<?xml version="1.0" encoding="UTF-8" standalone="no"?>
<!DOCTYPE svg PUBLIC "-//W3C//DTD SVG 1.1//EN"
 "http://www.w3.org/Graphics/SVG/1.1/DTD/svg11.dtd">
<!-- Generated by graphviz version 2.36.0 (20140111.2315)
 -->
<!-- Title: IntegerLiteralConvertible &#45; Type Hierarchy &#45; SwiftDoc.org Pages: 1 -->
<svg width="2282pt" height="369pt"
 viewBox="0.00 0.00 2282.40 369.20" xmlns="http://www.w3.org/2000/svg" xmlns:xlink="http://www.w3.org/1999/xlink">
<g id="graph0" class="graph" transform="scale(1 1) rotate(0) translate(7.2 311.6)">
<title>IntegerLiteralConvertible &#45; Type Hierarchy &#45; SwiftDoc.org</title>
<polygon fill="white" stroke="none" points="-7.2,57.6 -7.2,-311.6 2275.2,-311.6 2275.2,57.6 -7.2,57.6"/>
<!-- AbsoluteValuable -->
<g id="node1" class="node"><title>AbsoluteValuable</title>
<g id="a_node1"><a xlink:href="/protocol/AbsoluteValuable/" xlink:title="AbsoluteValuable">
<path fill="#999999" stroke="#999999" d="M263.558,-138C263.558,-138 176.442,-138 176.442,-138 172.775,-138 169.109,-134.333 169.109,-130.667 169.109,-130.667 169.109,-123.333 169.109,-123.333 169.109,-119.667 172.775,-116 176.442,-116 176.442,-116 263.558,-116 263.558,-116 267.225,-116 270.891,-119.667 270.891,-123.333 270.891,-123.333 270.891,-130.667 270.891,-130.667 270.891,-134.333 267.225,-138 263.558,-138"/>
<text text-anchor="middle" x="220" y="-123.4" font-family="Helvetica,sans-Serif" font-size="12.00" fill="white">AbsoluteValuable</text>
</a>
</g>
</g>
<!-- Double -->
<g id="node3" class="node"><title>Double</title>
<g id="a_node3"><a xlink:href="/type/Double/" xlink:title="Double">
<polygon fill="#999999" stroke="#999999" points="168,-22 114,-22 114,-0 168,-0 168,-22"/>
<text text-anchor="middle" x="141" y="-7.4" font-family="Helvetica,sans-Serif" font-size="12.00" fill="white">Double</text>
</a>
</g>
</g>
<!-- AbsoluteValuable&#45;&gt;Double -->
<g id="edge27" class="edge"><title>AbsoluteValuable&#45;&gt;Double</title>
<path fill="none" stroke="#cccccc" d="M212.989,-115.883C199.729,-96.7488 170.797,-54.9984 153.926,-30.6529"/>
<polygon fill="#cccccc" stroke="#cccccc" points="156.681,-28.4837 148.109,-22.2579 150.928,-32.4708 156.681,-28.4837"/>
</g>
<!-- Float -->
<g id="node4" class="node"><title>Float</title>
<g id="a_node4"><a xlink:href="/type/Float/" xlink:title="Float">
<polygon fill="#999999" stroke="#999999" points="326,-22 272,-22 272,-0 326,-0 326,-22"/>
<text text-anchor="middle" x="299" y="-7.4" font-family="Helvetica,sans-Serif" font-size="12.00" fill="white">Float</text>
</a>
</g>
</g>
<!-- AbsoluteValuable&#45;&gt;Float -->
<g id="edge28" class="edge"><title>AbsoluteValuable&#45;&gt;Float</title>
<path fill="none" stroke="#cccccc" d="M227.011,-115.883C240.271,-96.7488 269.203,-54.9984 286.074,-30.6529"/>
<polygon fill="#cccccc" stroke="#cccccc" points="289.072,-32.4708 291.891,-22.2579 283.319,-28.4837 289.072,-32.4708"/>
</g>
<!-- Float80 -->
<g id="node5" class="node"><title>Float80</title>
<g id="a_node5"><a xlink:href="/type/Float80/" xlink:title="Float80">
<polygon fill="#999999" stroke="#999999" points="54,-22 0,-22 0,-0 54,-0 54,-22"/>
<text text-anchor="middle" x="27" y="-7.4" font-family="Helvetica,sans-Serif" font-size="12.00" fill="white">Float80</text>
</a>
</g>
</g>
<!-- AbsoluteValuable&#45;&gt;Float80 -->
<g id="edge29" class="edge"><title>AbsoluteValuable&#45;&gt;Float80</title>
<path fill="none" stroke="#cccccc" d="M202.873,-115.883C168.894,-95.8132 92.7915,-50.8613 52.7522,-27.2112"/>
<polygon fill="#cccccc" stroke="#cccccc" points="54.4793,-24.1663 44.0891,-22.0941 50.9192,-30.1935 54.4793,-24.1663"/>
</g>
<!-- Bit -->
<g id="node2" class="node"><title>Bit</title>
<g id="a_node2"><a xlink:href="/type/Bit/" xlink:title="Bit">
<polygon fill="#999999" stroke="#999999" points="719,-22 665,-22 665,-0 719,-0 719,-22"/>
<text text-anchor="middle" x="692" y="-7.4" font-family="Helvetica,sans-Serif" font-size="12.00" fill="white">Bit</text>
</a>
</g>
</g>
<!-- Int -->
<g id="node6" class="node"><title>Int</title>
<g id="a_node6"><a xlink:href="/type/Int/" xlink:title="Int">
<polygon fill="#999999" stroke="#999999" points="575,-22 521,-22 521,-0 575,-0 575,-22"/>
<text text-anchor="middle" x="548" y="-7.4" font-family="Helvetica,sans-Serif" font-size="12.00" fill="white">Int</text>
</a>
</g>
</g>
<!-- Int&#45;&gt;Bit -->
<g id="edge16" class="edge"><title>Int&#45;&gt;Bit</title>
<path fill="none" stroke="#cccccc" d="M560.779,-22.0854C569.283,-28.7029 581.052,-36.4837 593,-40 616.024,-46.7761 623.976,-46.7761 647,-40 655.401,-37.5276 663.713,-32.9469 670.865,-28.1447"/>
<polygon fill="#cccccc" stroke="#cccccc" points="673.18,-30.7891 679.221,-22.0854 669.071,-25.122 673.18,-30.7891"/>
</g>
<!-- Int16 -->
<g id="node7" class="node"><title>Int16</title>
<g id="a_node7"><a xlink:href="/type/Int16/" xlink:title="Int16">
<polygon fill="#999999" stroke="#999999" points="881,-22 827,-22 827,-0 881,-0 881,-22"/>
<text text-anchor="middle" x="854" y="-7.4" font-family="Helvetica,sans-Serif" font-size="12.00" fill="white">Int16</text>
</a>
</g>
</g>
<!-- Int32 -->
<g id="node8" class="node"><title>Int32</title>
<g id="a_node8"><a xlink:href="/type/Int32/" xlink:title="Int32">
<polygon fill="#999999" stroke="#999999" points="1196,-22 1142,-22 1142,-0 1196,-0 1196,-22"/>
<text text-anchor="middle" x="1169" y="-7.4" font-family="Helvetica,sans-Serif" font-size="12.00" fill="white">Int32</text>
</a>
</g>
</g>
<!-- Int64 -->
<g id="node9" class="node"><title>Int64</title>
<g id="a_node9"><a xlink:href="/type/Int64/" xlink:title="Int64">
<polygon fill="#999999" stroke="#999999" points="647,-22 593,-22 593,-0 647,-0 647,-22"/>
<text text-anchor="middle" x="620" y="-7.4" font-family="Helvetica,sans-Serif" font-size="12.00" fill="white">Int64</text>
</a>
</g>
</g>
<!-- Int8 -->
<g id="node10" class="node"><title>Int8</title>
<g id="a_node10"><a xlink:href="/type/Int8/" xlink:title="Int8">
<polygon fill="#999999" stroke="#999999" points="1270,-22 1216,-22 1216,-0 1270,-0 1270,-22"/>
<text text-anchor="middle" x="1243" y="-7.4" font-family="Helvetica,sans-Serif" font-size="12.00" fill="white">Int8</text>
</a>
</g>
</g>
<!-- IntegerLiteralConvertible -->
<g id="node11" class="node"><title>IntegerLiteralConvertible</title>
<g id="a_node11"><a xlink:href="/protocol/IntegerLiteralConvertible/" xlink:title="IntegerLiteralConvertible">
<path fill="#ee543d" stroke="#ee543d" d="M1249.72,-254C1249.72,-254 1124.28,-254 1124.28,-254 1120.61,-254 1116.94,-250.333 1116.94,-246.667 1116.94,-246.667 1116.94,-239.333 1116.94,-239.333 1116.94,-235.667 1120.61,-232 1124.28,-232 1124.28,-232 1249.72,-232 1249.72,-232 1253.39,-232 1257.06,-235.667 1257.06,-239.333 1257.06,-239.333 1257.06,-246.667 1257.06,-246.667 1257.06,-250.333 1253.39,-254 1249.72,-254"/>
<text text-anchor="middle" x="1187" y="-239.4" font-family="Helvetica,sans-Serif" font-size="12.00" fill="white">IntegerLiteralConvertible</text>
</a>
</g>
</g>
<!-- IntegerLiteralConvertible&#45;&gt;Double -->
<g id="edge1" class="edge"><title>IntegerLiteralConvertible&#45;&gt;Double</title>
<path fill="none" stroke="#cccccc" d="M1116.71,-240.602C938.777,-236.686 473.865,-224.015 322,-196 239.344,-180.752 197.099,-201.471 142,-138 116.553,-108.687 125.903,-59.4735 134.037,-32.0309"/>
<polygon fill="#cccccc" stroke="#cccccc" points="137.42,-32.9415 137.127,-22.3507 130.751,-30.8124 137.42,-32.9415"/>
</g>
<!-- IntegerLiteralConvertible&#45;&gt;Float -->
<g id="edge2" class="edge"><title>IntegerLiteralConvertible&#45;&gt;Float</title>
<path fill="none" stroke="#cccccc" d="M1116.94,-240.433C919.949,-235.73 373.554,-220.528 344,-196 294.941,-155.285 294.378,-70.7163 296.996,-32.062"/>
<polygon fill="#cccccc" stroke="#cccccc" points="300.488,-32.2969 297.82,-22.0435 293.512,-31.7228 300.488,-32.2969"/>
</g>
<!-- IntegerLiteralConvertible&#45;&gt;Float80 -->
<g id="edge3" class="edge"><title>IntegerLiteralConvertible&#45;&gt;Float80</title>
<path fill="none" stroke="#cccccc" d="M1116.64,-241.489C902.746,-239.558 269.649,-230.925 184,-196 112.297,-166.761 98.3671,-143.465 54,-80 43.793,-65.3993 36.666,-46.387 32.3078,-32.1792"/>
<polygon fill="#cccccc" stroke="#cccccc" points="35.6264,-31.0543 29.5096,-22.4036 28.8967,-32.9807 35.6264,-31.0543"/>
</g>
<!-- IntegerLiteralConvertible&#45;&gt;Int -->
<g id="edge4" class="edge"><title>IntegerLiteralConvertible&#45;&gt;Int</title>
<path fill="none" stroke="#cccccc" d="M1116.73,-240.617C923.937,-236.484 399.337,-222.811 374,-196 339.813,-159.824 298.247,-177.41 424,-58 447.845,-35.3583 483.815,-23.6534 510.883,-17.7345"/>
<polygon fill="#cccccc" stroke="#cccccc" points="511.667,-21.147 520.777,-15.7386 510.282,-14.2852 511.667,-21.147"/>
</g>
<!-- IntegerLiteralConvertible&#45;&gt;Int16 -->
<g id="edge5" class="edge"><title>IntegerLiteralConvertible&#45;&gt;Int16</title>
<path fill="none" stroke="#cccccc" d="M1118.37,-231.942C1024.5,-216.622 863.732,-184.258 829,-138 805.148,-106.233 826.592,-57.6717 841.846,-31.0665"/>
<polygon fill="#cccccc" stroke="#cccccc" points="844.944,-32.7051 847.09,-22.3298 838.942,-29.1024 844.944,-32.7051"/>
</g>
<!-- IntegerLiteralConvertible&#45;&gt;Int32 -->
<g id="edge6" class="edge"><title>IntegerLiteralConvertible&#45;&gt;Int32</title>
<path fill="none" stroke="#cccccc" d="M1186.2,-231.82C1183.45,-196.642 1174.3,-79.7709 1170.59,-32.3033"/>
<polygon fill="#cccccc" stroke="#cccccc" points="1174.06,-31.7584 1169.79,-22.062 1167.08,-32.3047 1174.06,-31.7584"/>
</g>
<!-- IntegerLiteralConvertible&#45;&gt;Int64 -->
<g id="edge7" class="edge"><title>IntegerLiteralConvertible&#45;&gt;Int64</title>
<path fill="none" stroke="#cccccc" d="M1116.85,-238.64C1053.9,-233.947 959.73,-222.735 882,-196 782.64,-161.825 756.543,-147.478 676,-80 658.719,-65.5225 642.772,-45.1719 632.353,-30.5118"/>
<polygon fill="#cccccc" stroke="#cccccc" points="635.185,-28.4541 626.617,-22.2225 629.429,-32.4374 635.185,-28.4541"/>
</g>
<!-- IntegerLiteralConvertible&#45;&gt;Int8 -->
<g id="edge8" class="edge"><title>IntegerLiteralConvertible&#45;&gt;Int8</title>
<path fill="none" stroke="#cccccc" d="M1189.48,-231.82C1198.06,-196.568 1226.62,-79.2764 1238.13,-32.0032"/>
<polygon fill="#cccccc" stroke="#cccccc" points="1241.59,-32.6062 1240.55,-22.062 1234.78,-30.9502 1241.59,-32.6062"/>
</g>
<!-- SignedNumberType -->
<g id="node14" class="node"><title>SignedNumberType</title>
<g id="a_node14"><a xlink:href="/protocol/SignedNumberType/" xlink:title="SignedNumberType">
<path fill="#999999" stroke="#999999" d="M491.716,-196C491.716,-196 390.284,-196 390.284,-196 386.617,-196 382.95,-192.333 382.95,-188.667 382.95,-188.667 382.95,-181.333 382.95,-181.333 382.95,-177.667 386.617,-174 390.284,-174 390.284,-174 491.716,-174 491.716,-174 495.383,-174 499.05,-177.667 499.05,-181.333 499.05,-181.333 499.05,-188.667 499.05,-188.667 499.05,-192.333 495.383,-196 491.716,-196"/>
<text text-anchor="middle" x="441" y="-181.4" font-family="Helvetica,sans-Serif" font-size="12.00" fill="white">SignedNumberType</text>
</a>
</g>
</g>
<!-- IntegerLiteralConvertible&#45;&gt;SignedNumberType -->
<g id="edge9" class="edge"><title>IntegerLiteralConvertible&#45;&gt;SignedNumberType</title>
<path fill="none" stroke="#cccccc" d="M1116.51,-238.813C993.704,-232.899 732.619,-218.718 513,-196 511.729,-195.869 510.446,-195.732 509.154,-195.59"/>
<polygon fill="#cccccc" stroke="#cccccc" points="509.453,-192.102 499.117,-194.427 508.647,-199.055 509.453,-192.102"/>
</g>
<!-- UInt -->
<g id="node15" class="node"><title>UInt</title>
<g id="a_node15"><a xlink:href="/type/UInt/" xlink:title="UInt">
<polygon fill="#999999" stroke="#999999" points="2268,-22 2214,-22 2214,-0 2268,-0 2268,-22"/>
<text text-anchor="middle" x="2241" y="-7.4" font-family="Helvetica,sans-Serif" font-size="12.00" fill="white">UInt</text>
</a>
</g>
</g>
<!-- IntegerLiteralConvertible&#45;&gt;UInt -->
<g id="edge10" class="edge"><title>IntegerLiteralConvertible&#45;&gt;UInt</title>
<path fill="none" stroke="#cccccc" d="M1257.25,-240.065C1415.87,-235.298 1797.79,-221.485 1924,-196 2077.21,-165.064 2165.52,-207.454 2256,-80 2266.12,-65.7429 2260.02,-45.8918 2252.79,-31.3176"/>
<polygon fill="#cccccc" stroke="#cccccc" points="2255.67,-29.2908 2247.8,-22.2044 2249.54,-32.6558 2255.67,-29.2908"/>
</g>
<!-- UInt16 -->
<g id="node16" class="node"><title>UInt16</title>
<g id="a_node16"><a xlink:href="/type/UInt16/" xlink:title="UInt16">
<polygon fill="#999999" stroke="#999999" points="1556,-22 1502,-22 1502,-0 1556,-0 1556,-22"/>
<text text-anchor="middle" x="1529" y="-7.4" font-family="Helvetica,sans-Serif" font-size="12.00" fill="white">UInt16</text>
</a>
</g>
</g>
<!-- IntegerLiteralConvertible&#45;&gt;UInt16 -->
<g id="edge11" class="edge"><title>IntegerLiteralConvertible&#45;&gt;UInt16</title>
<path fill="none" stroke="#cccccc" d="M1257.3,-241.8C1311.07,-238.81 1385.36,-228.349 1442,-196 1502.02,-161.722 1521.11,-72.3995 1526.78,-32.1647"/>
<polygon fill="#cccccc" stroke="#cccccc" points="1530.26,-32.5661 1528.05,-22.2046 1523.31,-31.6837 1530.26,-32.5661"/>
</g>
<!-- UInt32 -->
<g id="node17" class="node"><title>UInt32</title>
<g id="a_node17"><a xlink:href="/type/UInt32/" xlink:title="UInt32">
<polygon fill="#999999" stroke="#999999" points="1746,-22 1692,-22 1692,-0 1746,-0 1746,-22"/>
<text text-anchor="middle" x="1719" y="-7.4" font-family="Helvetica,sans-Serif" font-size="12.00" fill="white">UInt32</text>
</a>
</g>
</g>
<!-- IntegerLiteralConvertible&#45;&gt;UInt32 -->
<g id="edge12" class="edge"><title>IntegerLiteralConvertible&#45;&gt;UInt32</title>
<path fill="none" stroke="#cccccc" d="M1257.13,-239.23C1315.66,-234.907 1400.29,-223.907 1469,-196 1568.29,-155.673 1664.17,-66.9733 1702.03,-29.3835"/>
<polygon fill="#cccccc" stroke="#cccccc" points="1704.64,-31.7298 1709.21,-22.1738 1699.67,-26.7907 1704.64,-31.7298"/>
</g>
<!-- UInt64 -->
<g id="node18" class="node"><title>UInt64</title>
<g id="a_node18"><a xlink:href="/type/UInt64/" xlink:title="UInt64">
<polygon fill="#999999" stroke="#999999" points="1964,-22 1910,-22 1910,-0 1964,-0 1964,-22"/>
<text text-anchor="middle" x="1937" y="-7.4" font-family="Helvetica,sans-Serif" font-size="12.00" fill="white">UInt64</text>
</a>
</g>
</g>
<!-- IntegerLiteralConvertible&#45;&gt;UInt64 -->
<g id="edge13" class="edge"><title>IntegerLiteralConvertible&#45;&gt;UInt64</title>
<path fill="none" stroke="#cccccc" d="M1257.29,-241.75C1424.62,-239.714 1840.2,-225.725 1942,-138 1969.54,-114.271 1967.04,-93.449 1959,-58 1956.88,-48.6708 1952.63,-39.0212 1948.43,-30.984"/>
<polygon fill="#cccccc" stroke="#cccccc" points="1951.4,-29.131 1943.47,-22.1099 1945.29,-32.5465 1951.4,-29.131"/>
</g>
<!-- UInt8 -->
<g id="node19" class="node"><title>UInt8</title>
<g id="a_node19"><a xlink:href="/type/UInt8/" xlink:title="UInt8">
<polygon fill="#999999" stroke="#999999" points="2116,-22 2062,-22 2062,-0 2116,-0 2116,-22"/>
<text text-anchor="middle" x="2089" y="-7.4" font-family="Helvetica,sans-Serif" font-size="12.00" fill="white">UInt8</text>
</a>
</g>
</g>
<!-- IntegerLiteralConvertible&#45;&gt;UInt8 -->
<g id="edge14" class="edge"><title>IntegerLiteralConvertible&#45;&gt;UInt8</title>
<path fill="none" stroke="#cccccc" d="M1257.2,-239.48C1402.86,-233.861 1733.52,-218.961 1844,-196 1967.49,-170.335 2041.28,-189.996 2103,-80 2111.35,-65.1131 2106.18,-45.886 2099.89,-31.6771"/>
<polygon fill="#cccccc" stroke="#cccccc" points="2102.85,-29.7712 2095.29,-22.3515 2096.57,-32.8681 2102.85,-29.7712"/>
</g>
<!-- _IntegerType -->
<g id="node21" class="node"><title>_IntegerType</title>
<g id="a_node21"><a xlink:href="/protocol/_IntegerType/" xlink:title="_IntegerType">
<path fill="#999999" stroke="#999999" d="M1425.71,-196C1425.71,-196 1360.29,-196 1360.29,-196 1356.63,-196 1352.96,-192.333 1352.96,-188.667 1352.96,-188.667 1352.96,-181.333 1352.96,-181.333 1352.96,-177.667 1356.63,-174 1360.29,-174 1360.29,-174 1425.71,-174 1425.71,-174 1429.37,-174 1433.04,-177.667 1433.04,-181.333 1433.04,-181.333 1433.04,-188.667 1433.04,-188.667 1433.04,-192.333 1429.37,-196 1425.71,-196"/>
<text text-anchor="middle" x="1393" y="-181.4" font-family="Helvetica,sans-Serif" font-size="12.00" fill="white">_IntegerType</text>
</a>
</g>
</g>
<!-- IntegerLiteralConvertible&#45;&gt;_IntegerType -->
<g id="edge15" class="edge"><title>IntegerLiteralConvertible&#45;&gt;_IntegerType</title>
<path fill="none" stroke="#cccccc" d="M1223.83,-231.988C1258,-222.7 1309.01,-208.832 1346.08,-198.754"/>
<polygon fill="#cccccc" stroke="#cccccc" points="1347.41,-202.02 1356.14,-196.019 1345.58,-195.265 1347.41,-202.02"/>
</g>
<!-- IntegerType -->
<g id="node12" class="node"><title>IntegerType</title>
<g id="a_node12"><a xlink:href="/protocol/IntegerType/" xlink:title="IntegerType">
<path fill="#999999" stroke="#999999" d="M1455.2,-138C1455.2,-138 1396.8,-138 1396.8,-138 1393.13,-138 1389.47,-134.333 1389.47,-130.667 1389.47,-130.667 1389.47,-123.333 1389.47,-123.333 1389.47,-119.667 1393.13,-116 1396.8,-116 1396.8,-116 1455.2,-116 1455.2,-116 1458.87,-116 1462.53,-119.667 1462.53,-123.333 1462.53,-123.333 1462.53,-130.667 1462.53,-130.667 1462.53,-134.333 1458.87,-138 1455.2,-138"/>
<text text-anchor="middle" x="1426" y="-123.4" font-family="Helvetica,sans-Serif" font-size="12.00" fill="white">IntegerType</text>
</a>
</g>
</g>
<!-- IntegerType&#45;&gt;Int -->
<g id="edge54" class="edge"><title>IntegerType&#45;&gt;Int</title>
<path fill="none" stroke="#cccccc" d="M1389.4,-125.013C1267.92,-121.497 878.919,-108.259 757,-80 731.754,-74.1483 727.452,-66.5859 703,-58 681.241,-50.3596 623.557,-33.576 585.03,-22.5343"/>
<polygon fill="#cccccc" stroke="#cccccc" points="585.776,-19.1076 575.199,-19.7223 583.851,-25.8376 585.776,-19.1076"/>
</g>
<!-- IntegerType&#45;&gt;Int16 -->
<g id="edge55" class="edge"><title>IntegerType&#45;&gt;Int16</title>
<path fill="none" stroke="#cccccc" d="M1389.35,-118.695C1286.37,-98.1707 995.163,-40.1338 891.342,-19.4424"/>
<polygon fill="#cccccc" stroke="#cccccc" points="891.815,-15.9678 881.324,-17.4457 890.447,-22.8328 891.815,-15.9678"/>
</g>
<!-- IntegerType&#45;&gt;Int32 -->
<g id="edge56" class="edge"><title>IntegerType&#45;&gt;Int32</title>
<path fill="none" stroke="#cccccc" d="M1404.36,-115.916C1375.44,-102.484 1322.53,-78.0811 1277,-58 1252.1,-47.0166 1223.79,-34.9742 1202.4,-25.9668"/>
<polygon fill="#cccccc" stroke="#cccccc" points="1203.67,-22.7052 1193.1,-22.0565 1200.96,-29.1583 1203.67,-22.7052"/>
</g>
<!-- IntegerType&#45;&gt;Int64 -->
<g id="edge57" class="edge"><title>IntegerType&#45;&gt;Int64</title>
<path fill="none" stroke="#cccccc" d="M1389.6,-125.706C1298.11,-124.404 1051.46,-117.404 850,-80 780.348,-67.0679 701.691,-41.2912 656.762,-25.4542"/>
<polygon fill="#cccccc" stroke="#cccccc" points="657.759,-22.0944 647.165,-22.0413 655.414,-28.6897 657.759,-22.0944"/>
</g>
<!-- IntegerType&#45;&gt;Int8 -->
<g id="edge58" class="edge"><title>IntegerType&#45;&gt;Int8</title>
<path fill="none" stroke="#cccccc" d="M1423.42,-115.642C1419.17,-100.742 1409.3,-73.3673 1391,-58 1359.39,-31.4606 1312.52,-20.2101 1280.03,-15.4551"/>
<polygon fill="#cccccc" stroke="#cccccc" points="1280.4,-11.9732 1270.02,-14.1283 1279.48,-18.9125 1280.4,-11.9732"/>
</g>
<!-- SignedIntegerType -->
<g id="node13" class="node"><title>SignedIntegerType</title>
<g id="a_node13"><a xlink:href="/protocol/SignedIntegerType/" xlink:title="SignedIntegerType">
<path fill="#999999" stroke="#999999" d="M961.727,-80C961.727,-80 866.273,-80 866.273,-80 862.606,-80 858.94,-76.3333 858.94,-72.6667 858.94,-72.6667 858.94,-65.3333 858.94,-65.3333 858.94,-61.6667 862.606,-58 866.273,-58 866.273,-58 961.727,-58 961.727,-58 965.394,-58 969.06,-61.6667 969.06,-65.3333 969.06,-65.3333 969.06,-72.6667 969.06,-72.6667 969.06,-76.3333 965.394,-80 961.727,-80"/>
<text text-anchor="middle" x="914" y="-65.4" font-family="Helvetica,sans-Serif" font-size="12.00" fill="white">SignedIntegerType</text>
</a>
</g>
</g>
<!-- IntegerType&#45;&gt;SignedIntegerType -->
<g id="edge59" class="edge"><title>IntegerType&#45;&gt;SignedIntegerType</title>
<path fill="none" stroke="#cccccc" d="M1389.59,-122.018C1303.94,-112.649 1088.72,-89.1103 979.611,-77.1762"/>
<polygon fill="#cccccc" stroke="#cccccc" points="979.712,-73.6665 969.391,-76.0584 978.951,-80.625 979.712,-73.6665"/>
</g>
<!-- IntegerType&#45;&gt;UInt -->
<g id="edge60" class="edge"><title>IntegerType&#45;&gt;UInt</title>
<path fill="none" stroke="#cccccc" d="M1462.52,-124.853C1549.88,-121.683 1777.58,-110.89 1965,-80 2051.73,-65.7046 2151.39,-38.3812 2204,-23.0806"/>
<polygon fill="#cccccc" stroke="#cccccc" points="2205.26,-26.3579 2213.87,-20.1882 2203.29,-19.6401 2205.26,-26.3579"/>
</g>
<!-- IntegerType&#45;&gt;UInt16 -->
<g id="edge61" class="edge"><title>IntegerType&#45;&gt;UInt16</title>
<path fill="none" stroke="#cccccc" d="M1432.67,-115.822C1441.89,-102.073 1459.39,-77.0914 1477,-58 1486.58,-47.6173 1498.28,-37.101 1508.16,-28.7492"/>
<polygon fill="#cccccc" stroke="#cccccc" points="1510.48,-31.372 1515.94,-22.2931 1506.01,-25.9847 1510.48,-31.372"/>
</g>
<!-- IntegerType&#45;&gt;UInt32 -->
<g id="edge62" class="edge"><title>IntegerType&#45;&gt;UInt32</title>
<path fill="none" stroke="#cccccc" d="M1449.36,-115.975C1481.21,-102.4 1540.12,-77.6151 1591,-58 1621.54,-46.2271 1656.53,-33.7183 1682.2,-24.7215"/>
<polygon fill="#cccccc" stroke="#cccccc" points="1683.61,-27.9359 1691.9,-21.3342 1681.3,-21.3274 1683.61,-27.9359"/>
</g>
<!-- IntegerType&#45;&gt;UInt64 -->
<g id="edge63" class="edge"><title>IntegerType&#45;&gt;UInt64</title>
<path fill="none" stroke="#cccccc" d="M1462.75,-117.801C1556.82,-96.814 1805.56,-41.3223 1899.96,-20.2638"/>
<polygon fill="#cccccc" stroke="#cccccc" points="1900.91,-23.6378 1909.91,-18.0443 1899.38,-16.8057 1900.91,-23.6378"/>
</g>
<!-- IntegerType&#45;&gt;UInt8 -->
<g id="edge64" class="edge"><title>IntegerType&#45;&gt;UInt8</title>
<path fill="none" stroke="#cccccc" d="M1462.38,-126.115C1544.72,-125.617 1751.17,-120.094 1918,-80 1969.74,-67.5653 2026.54,-42.5264 2059.91,-26.5479"/>
<polygon fill="#cccccc" stroke="#cccccc" points="2061.61,-29.6137 2069.08,-22.1018 2058.56,-23.3149 2061.61,-29.6137"/>
</g>
<!-- UnsignedIntegerType -->
<g id="node20" class="node"><title>UnsignedIntegerType</title>
<g id="a_node20"><a xlink:href="/protocol/UnsignedIntegerType/" xlink:title="UnsignedIntegerType">
<path fill="#999999" stroke="#999999" d="M1901.73,-80C1901.73,-80 1792.27,-80 1792.27,-80 1788.61,-80 1784.94,-76.3333 1784.94,-72.6667 1784.94,-72.6667 1784.94,-65.3333 1784.94,-65.3333 1784.94,-61.6667 1788.61,-58 1792.27,-58 1792.27,-58 1901.73,-58 1901.73,-58 1905.39,-58 1909.06,-61.6667 1909.06,-65.3333 1909.06,-65.3333 1909.06,-72.6667 1909.06,-72.6667 1909.06,-76.3333 1905.39,-80 1901.73,-80"/>
<text text-anchor="middle" x="1847" y="-65.4" font-family="Helvetica,sans-Serif" font-size="12.00" fill="white">UnsignedIntegerType</text>
</a>
</g>
</g>
<!-- IntegerType&#45;&gt;UnsignedIntegerType -->
<g id="edge65" class="edge"><title>IntegerType&#45;&gt;UnsignedIntegerType</title>
<path fill="none" stroke="#cccccc" d="M1462.62,-121.128C1532.14,-111.882 1684.33,-91.6372 1774.97,-79.5811"/>
<polygon fill="#cccccc" stroke="#cccccc" points="1775.45,-83.0488 1784.9,-78.2608 1774.52,-76.11 1775.45,-83.0488"/>
</g>
<!-- SignedIntegerType&#45;&gt;Int -->
<g id="edge36" class="edge"><title>SignedIntegerType&#45;&gt;Int</title>
<path fill="none" stroke="#cccccc" d="M858.73,-62.5589C794.932,-55.7741 686.744,-42.7227 584.87,-21.9566"/>
<polygon fill="#cccccc" stroke="#cccccc" points="585.534,-18.52 575.033,-19.9228 584.117,-25.375 585.534,-18.52"/>
</g>
<!-- SignedIntegerType&#45;&gt;Int16 -->
<g id="edge37" class="edge"><title>SignedIntegerType&#45;&gt;Int16</title>
<path fill="none" stroke="#cccccc" d="M903.273,-57.9883C894.762,-50.0446 882.662,-38.7512 872.583,-29.3439"/>
<polygon fill="#cccccc" stroke="#cccccc" points="874.739,-26.5684 865.04,-22.3039 869.962,-31.6858 874.739,-26.5684"/>
</g>
<!-- SignedIntegerType&#45;&gt;Int32 -->
<g id="edge38" class="edge"><title>SignedIntegerType&#45;&gt;Int32</title>
<path fill="none" stroke="#cccccc" d="M959.589,-57.9883C1008.87,-47.1665 1086.45,-30.1279 1132.07,-20.1106"/>
<polygon fill="#cccccc" stroke="#cccccc" points="1132.83,-23.5275 1141.84,-17.964 1131.32,-16.6905 1132.83,-23.5275"/>
</g>
<!-- SignedIntegerType&#45;&gt;Int64 -->
<g id="edge39" class="edge"><title>SignedIntegerType&#45;&gt;Int64</title>
<path fill="none" stroke="#cccccc" d="M858.838,-59.7132C808.645,-51.8239 732.335,-38.9606 657.172,-22.1055"/>
<polygon fill="#cccccc" stroke="#cccccc" points="657.584,-18.6101 647.057,-19.8112 656.035,-25.4367 657.584,-18.6101"/>
</g>
<!-- SignedIntegerType&#45;&gt;Int8 -->
<g id="edge40" class="edge"><title>SignedIntegerType&#45;&gt;Int8</title>
<path fill="none" stroke="#cccccc" d="M969.277,-60.9479C1028.04,-53.0587 1123.53,-39.1128 1205,-22 1205.22,-21.9544 1205.43,-21.9084 1205.65,-21.8619"/>
<polygon fill="#cccccc" stroke="#cccccc" points="1206.73,-25.2058 1215.68,-19.5406 1205.15,-18.3862 1206.73,-25.2058"/>
</g>
<!-- SignedNumberType&#45;&gt;AbsoluteValuable -->
<g id="edge17" class="edge"><title>SignedNumberType&#45;&gt;AbsoluteValuable</title>
<path fill="none" stroke="#cccccc" d="M401.49,-173.988C364.52,-164.621 309.167,-150.594 269.317,-140.497"/>
<polygon fill="#cccccc" stroke="#cccccc" points="270.094,-137.083 259.54,-138.019 268.374,-143.868 270.094,-137.083"/>
</g>
<!-- SignedNumberType&#45;&gt;Double -->
<g id="edge18" class="edge"><title>SignedNumberType&#45;&gt;Double</title>
<path fill="none" stroke="#cccccc" d="M382.908,-182.313C309.858,-178.914 190.306,-168.69 160,-138 132.403,-110.054 133.946,-60.2687 137.483,-32.3769"/>
<polygon fill="#cccccc" stroke="#cccccc" points="140.986,-32.6141 138.988,-22.2094 134.062,-31.5892 140.986,-32.6141"/>
</g>
<!-- SignedNumberType&#45;&gt;Float -->
<g id="edge19" class="edge"><title>SignedNumberType&#45;&gt;Float</title>
<path fill="none" stroke="#cccccc" d="M432.543,-173.756C409.216,-145.501 343.734,-66.1852 314.012,-30.183"/>
<polygon fill="#cccccc" stroke="#cccccc" points="316.658,-27.8913 307.593,-22.4081 311.26,-32.3479 316.658,-27.8913"/>
</g>
<!-- SignedNumberType&#45;&gt;Float80 -->
<g id="edge20" class="edge"><title>SignedNumberType&#45;&gt;Float80</title>
<path fill="none" stroke="#cccccc" d="M382.949,-179.671C308.071,-173.306 182.624,-159.764 142,-138 94.3873,-112.492 56.2468,-59.3768 38.2483,-30.9379"/>
<polygon fill="#cccccc" stroke="#cccccc" points="41.1593,-28.9903 32.932,-22.3149 35.2008,-32.664 41.1593,-28.9903"/>
</g>
<!-- SignedNumberType&#45;&gt;Int -->
<g id="edge21" class="edge"><title>SignedNumberType&#45;&gt;Int</title>
<path fill="none" stroke="#cccccc" d="M437.019,-173.775C428.803,-150.828 412.685,-94.3972 437,-58 453.295,-33.6079 485.182,-22.1333 510.614,-16.7449"/>
<polygon fill="#cccccc" stroke="#cccccc" points="511.521,-20.1358 520.701,-14.8465 510.226,-13.2566 511.521,-20.1358"/>
</g>
<!-- SignedNumberType&#45;&gt;Int16 -->
<g id="edge22" class="edge"><title>SignedNumberType&#45;&gt;Int16</title>
<path fill="none" stroke="#cccccc" d="M464.686,-173.947C515.323,-152.479 637.899,-100.635 741,-58 767.258,-47.1417 797.026,-35.032 819.415,-25.9639"/>
<polygon fill="#cccccc" stroke="#cccccc" points="820.877,-29.1478 828.834,-22.152 818.251,-22.659 820.877,-29.1478"/>
</g>
<!-- SignedNumberType&#45;&gt;Int32 -->
<g id="edge23" class="edge"><title>SignedNumberType&#45;&gt;Int32</title>
<path fill="none" stroke="#cccccc" d="M499.294,-182.242C617.006,-178.143 879.084,-166.086 964,-138 1038.59,-113.33 1114.22,-56.9081 1149.11,-28.6992"/>
<polygon fill="#cccccc" stroke="#cccccc" points="1151.56,-31.2168 1157.08,-22.1718 1147.12,-25.8021 1151.56,-31.2168"/>
</g>
<!-- SignedNumberType&#45;&gt;Int64 -->
<g id="edge24" class="edge"><title>SignedNumberType&#45;&gt;Int64</title>
<path fill="none" stroke="#cccccc" d="M444.311,-173.722C452.382,-150.167 475.224,-91.727 513,-58 523.948,-48.225 556.888,-34.7439 583.357,-24.9033"/>
<polygon fill="#cccccc" stroke="#cccccc" points="584.578,-28.1834 592.763,-21.4561 582.17,-21.6109 584.578,-28.1834"/>
</g>
<!-- SignedNumberType&#45;&gt;Int8 -->
<g id="edge25" class="edge"><title>SignedNumberType&#45;&gt;Int8</title>
<path fill="none" stroke="#cccccc" d="M499.306,-182.199C623.527,-177.88 910.548,-165.211 1004,-138 1089.41,-113.129 1179.45,-55.9541 1220.37,-27.9899"/>
<polygon fill="#cccccc" stroke="#cccccc" points="1222.56,-30.7364 1228.79,-22.1729 1218.58,-24.9771 1222.56,-30.7364"/>
</g>
<!-- _SignedIntegerType -->
<g id="node22" class="node"><title>_SignedIntegerType</title>
<g id="a_node22"><a xlink:href="/protocol/_SignedIntegerType/" xlink:title="_SignedIntegerType">
<path fill="#999999" stroke="#999999" d="M948.231,-138C948.231,-138 845.769,-138 845.769,-138 842.102,-138 838.436,-134.333 838.436,-130.667 838.436,-130.667 838.436,-123.333 838.436,-123.333 838.436,-119.667 842.102,-116 845.769,-116 845.769,-116 948.231,-116 948.231,-116 951.898,-116 955.564,-119.667 955.564,-123.333 955.564,-123.333 955.564,-130.667 955.564,-130.667 955.564,-134.333 951.898,-138 948.231,-138"/>
<text text-anchor="middle" x="897" y="-123.4" font-family="Helvetica,sans-Serif" font-size="12.00" fill="white">_SignedIntegerType</text>
</a>
</g>
</g>
<!-- SignedNumberType&#45;&gt;_SignedIntegerType -->
<g id="edge26" class="edge"><title>SignedNumberType&#45;&gt;_SignedIntegerType</title>
<path fill="none" stroke="#cccccc" d="M499.216,-176.851C583.37,-166.516 738.715,-147.438 828.348,-136.431"/>
<polygon fill="#cccccc" stroke="#cccccc" points="828.912,-139.888 838.41,-135.195 828.058,-132.94 828.912,-139.888"/>
</g>
<!-- UnsignedIntegerType&#45;&gt;UInt -->
<g id="edge66" class="edge"><title>UnsignedIntegerType&#45;&gt;UInt</title>
<path fill="none" stroke="#cccccc" d="M1909.43,-59.1266C1992.23,-47.3582 2135.78,-26.955 2203.54,-17.3245"/>
<polygon fill="#cccccc" stroke="#cccccc" points="2204.33,-20.7467 2213.74,-15.8743 2203.35,-13.8164 2204.33,-20.7467"/>
</g>
<!-- UnsignedIntegerType&#45;&gt;UInt16 -->
<g id="edge67" class="edge"><title>UnsignedIntegerType&#45;&gt;UInt16</title>
<path fill="none" stroke="#cccccc" d="M1790.15,-57.9883C1725.36,-46.58 1621.35,-28.2626 1566.17,-18.5457"/>
<polygon fill="#cccccc" stroke="#cccccc" points="1566.59,-15.0657 1556.13,-16.7783 1565.38,-21.9597 1566.59,-15.0657"/>
</g>
<!-- UnsignedIntegerType&#45;&gt;UInt32 -->
<g id="edge68" class="edge"><title>UnsignedIntegerType&#45;&gt;UInt32</title>
<path fill="none" stroke="#cccccc" d="M1824.12,-57.9883C1803.86,-49.1244 1774.06,-36.0897 1751.36,-26.1587"/>
<polygon fill="#cccccc" stroke="#cccccc" points="1752.68,-22.9155 1742.12,-22.1138 1749.88,-29.3286 1752.68,-22.9155"/>
</g>
<!-- UnsignedIntegerType&#45;&gt;UInt64 -->
<g id="edge69" class="edge"><title>UnsignedIntegerType&#45;&gt;UInt64</title>
<path fill="none" stroke="#cccccc" d="M1863.09,-57.9883C1876.7,-49.5201 1896.43,-37.2452 1912.08,-27.5067"/>
<polygon fill="#cccccc" stroke="#cccccc" points="1914.1,-30.3686 1920.75,-22.1138 1910.41,-24.4252 1914.1,-30.3686"/>
</g>
<!-- UnsignedIntegerType&#45;&gt;UInt8 -->
<g id="edge70" class="edge"><title>UnsignedIntegerType&#45;&gt;UInt8</title>
<path fill="none" stroke="#cccccc" d="M1890.26,-57.9883C1936.33,-47.3285 2008.46,-30.6365 2051.99,-20.565"/>
<polygon fill="#cccccc" stroke="#cccccc" points="2052.92,-23.9414 2061.87,-18.277 2051.34,-17.1216 2052.92,-23.9414"/>
</g>
<!-- _IntegerType&#45;&gt;Int -->
<g id="edge41" class="edge"><title>_IntegerType&#45;&gt;Int</title>
<path fill="none" stroke="#cccccc" d="M1352.82,-183.217C1233.43,-180.545 882.395,-170.096 773,-138 691.867,-114.196 607.987,-56.9384 569.569,-28.5423"/>
<polygon fill="#cccccc" stroke="#cccccc" points="571.334,-25.4916 561.231,-22.3015 567.14,-31.0957 571.334,-25.4916"/>
</g>
<!-- _IntegerType&#45;&gt;Int16 -->
<g id="edge42" class="edge"><title>_IntegerType&#45;&gt;Int16</title>
<path fill="none" stroke="#cccccc" d="M1361.3,-173.883C1267.37,-143.912 990.925,-55.6939 890.766,-23.7324"/>
<polygon fill="#cccccc" stroke="#cccccc" points="891.676,-20.3489 881.085,-20.6431 889.548,-27.0176 891.676,-20.3489"/>
</g>
<!-- _IntegerType&#45;&gt;Int32 -->
<g id="edge43" class="edge"><title>_IntegerType&#45;&gt;Int32</title>
<path fill="none" stroke="#cccccc" d="M1379.66,-173.756C1342.23,-145.016 1236,-63.446 1190.32,-28.3671"/>
<polygon fill="#cccccc" stroke="#cccccc" points="1192.33,-25.5049 1182.27,-22.1906 1188.07,-31.0569 1192.33,-25.5049"/>
</g>
<!-- _IntegerType&#45;&gt;Int64 -->
<g id="edge44" class="edge"><title>_IntegerType&#45;&gt;Int64</title>
<path fill="none" stroke="#cccccc" d="M1352.85,-183.042C1240.87,-180.004 926.904,-168.894 829,-138 753.014,-114.022 675.88,-57.2756 640.291,-28.8454"/>
<polygon fill="#cccccc" stroke="#cccccc" points="642.138,-25.8377 632.164,-22.2647 637.733,-31.2779 642.138,-25.8377"/>
</g>
<!-- _IntegerType&#45;&gt;Int8 -->
<g id="edge45" class="edge"><title>_IntegerType&#45;&gt;Int8</title>
<path fill="none" stroke="#cccccc" d="M1388.62,-173.81C1378.41,-150.935 1351.12,-94.6416 1315,-58 1302.9,-45.7271 1286.95,-35.1191 1273.14,-27.1928"/>
<polygon fill="#cccccc" stroke="#cccccc" points="1274.44,-23.9129 1264,-22.1463 1271.06,-30.0419 1274.44,-23.9129"/>
</g>
<!-- _IntegerType&#45;&gt;IntegerType -->
<g id="edge46" class="edge"><title>_IntegerType&#45;&gt;IntegerType</title>
<path fill="none" stroke="#cccccc" d="M1398.9,-173.988C1403.3,-166.517 1409.45,-156.081 1414.78,-147.039"/>
<polygon fill="#cccccc" stroke="#cccccc" points="1417.87,-148.696 1419.93,-138.304 1411.84,-145.142 1417.87,-148.696"/>
</g>
<!-- _IntegerType&#45;&gt;UInt -->
<g id="edge47" class="edge"><title>_IntegerType&#45;&gt;UInt</title>
<path fill="none" stroke="#cccccc" d="M1433.21,-183.385C1531.81,-181.359 1793.19,-172.851 2008,-138 2112.06,-121.117 2171.39,-161.712 2238,-80 2248.71,-66.8621 2248.36,-47.0987 2245.98,-32.2589"/>
<polygon fill="#cccccc" stroke="#cccccc" points="2249.33,-31.1685 2243.92,-22.0619 2242.47,-32.5576 2249.33,-31.1685"/>
</g>
<!-- _IntegerType&#45;&gt;UInt16 -->
<g id="edge48" class="edge"><title>_IntegerType&#45;&gt;UInt16</title>
<path fill="none" stroke="#cccccc" d="M1418.17,-173.951C1434.93,-166.208 1456.46,-154.099 1471,-138 1485.95,-121.456 1509.62,-62.924 1521.57,-31.8006"/>
<polygon fill="#cccccc" stroke="#cccccc" points="1524.99,-32.6398 1525.28,-22.0487 1518.45,-30.153 1524.99,-32.6398"/>
</g>
<!-- _IntegerType&#45;&gt;UInt32 -->
<g id="edge49" class="edge"><title>_IntegerType&#45;&gt;UInt32</title>
<path fill="none" stroke="#cccccc" d="M1416.03,-173.863C1436.24,-164.835 1466.33,-151.068 1492,-138 1566.13,-100.266 1651.34,-51.4582 1693.14,-27.1508"/>
<polygon fill="#cccccc" stroke="#cccccc" points="1694.98,-30.131 1701.86,-22.0715 1691.45,-24.0832 1694.98,-30.131"/>
</g>
<!-- _IntegerType&#45;&gt;UInt64 -->
<g id="edge50" class="edge"><title>_IntegerType&#45;&gt;UInt64</title>
<path fill="none" stroke="#cccccc" d="M1433.17,-183.104C1549.99,-180.141 1883.74,-169.018 1921,-138 1951.37,-112.716 1947.06,-61.0843 1941.74,-32.3845"/>
<polygon fill="#cccccc" stroke="#cccccc" points="1945.11,-31.3652 1939.65,-22.2829 1938.25,-32.785 1945.11,-31.3652"/>
</g>
<!-- _IntegerType&#45;&gt;UInt8 -->
<g id="edge51" class="edge"><title>_IntegerType&#45;&gt;UInt8</title>
<path fill="none" stroke="#cccccc" d="M1433.26,-184.704C1524.92,-185.428 1755.65,-182.27 1942,-138 2009.13,-122.052 2046.14,-136.315 2086,-80 2095.68,-66.3191 2095.56,-46.9226 2093.52,-32.3444"/>
<polygon fill="#cccccc" stroke="#cccccc" points="2096.93,-31.5345 2091.72,-22.31 2090.04,-32.771 2096.93,-31.5345"/>
</g>
<!-- _IntegerType&#45;&gt;_SignedIntegerType -->
<g id="edge52" class="edge"><title>_IntegerType&#45;&gt;_SignedIntegerType</title>
<path fill="none" stroke="#cccccc" d="M1352.83,-179.465C1268.24,-169.914 1070.92,-147.636 965.789,-135.767"/>
<polygon fill="#cccccc" stroke="#cccccc" points="965.931,-132.26 955.602,-134.616 965.146,-139.216 965.931,-132.26"/>
</g>
<!-- _UnsignedIntegerType -->
<g id="node23" class="node"><title>_UnsignedIntegerType</title>
<g id="a_node23"><a xlink:href="/protocol/_UnsignedIntegerType/" xlink:title="_UnsignedIntegerType">
<path fill="#999999" stroke="#999999" d="M1904.73,-138C1904.73,-138 1789.27,-138 1789.27,-138 1785.6,-138 1781.93,-134.333 1781.93,-130.667 1781.93,-130.667 1781.93,-123.333 1781.93,-123.333 1781.93,-119.667 1785.6,-116 1789.27,-116 1789.27,-116 1904.73,-116 1904.73,-116 1908.4,-116 1912.07,-119.667 1912.07,-123.333 1912.07,-123.333 1912.07,-130.667 1912.07,-130.667 1912.07,-134.333 1908.4,-138 1904.73,-138"/>
<text text-anchor="middle" x="1847" y="-123.4" font-family="Helvetica,sans-Serif" font-size="12.00" fill="white">_UnsignedIntegerType</text>
</a>
</g>
</g>
<!-- _IntegerType&#45;&gt;_UnsignedIntegerType -->
<g id="edge53" class="edge"><title>_IntegerType&#45;&gt;_UnsignedIntegerType</title>
<path fill="none" stroke="#cccccc" d="M1433.29,-179.03C1509.27,-169.659 1674.79,-149.242 1771.86,-137.268"/>
<polygon fill="#cccccc" stroke="#cccccc" points="1772.41,-140.728 1781.9,-136.03 1771.55,-133.78 1772.41,-140.728"/>
</g>
<!-- _SignedIntegerType&#45;&gt;Int -->
<g id="edge30" class="edge"><title>_SignedIntegerType&#45;&gt;Int</title>
<path fill="none" stroke="#cccccc" d="M856.548,-115.932C822.541,-107.212 772.772,-93.851 730,-80 677.935,-63.1398 618.761,-40.3372 582.402,-25.8967"/>
<polygon fill="#cccccc" stroke="#cccccc" points="583.362,-22.5114 572.777,-22.0574 580.768,-29.0133 583.362,-22.5114"/>
</g>
<!-- _SignedIntegerType&#45;&gt;Int16 -->
<g id="edge31" class="edge"><title>_SignedIntegerType&#45;&gt;Int16</title>
<path fill="none" stroke="#cccccc" d="M881.543,-115.993C870.448,-107.816 856.373,-95.1556 850,-80 843.634,-64.8609 845.352,-46.1357 848.256,-32.1705"/>
<polygon fill="#cccccc" stroke="#cccccc" points="851.731,-32.6959 850.708,-22.1505 844.932,-31.0318 851.731,-32.6959"/>
</g>
<!-- _SignedIntegerType&#45;&gt;Int32 -->
<g id="edge32" class="edge"><title>_SignedIntegerType&#45;&gt;Int32</title>
<path fill="none" stroke="#cccccc" d="M921.138,-115.883C969.831,-95.4751 1079.91,-49.3401 1135.51,-26.0345"/>
<polygon fill="#cccccc" stroke="#cccccc" points="1137.05,-29.1875 1144.92,-22.0941 1134.34,-22.7316 1137.05,-29.1875"/>
</g>
<!-- _SignedIntegerType&#45;&gt;Int64 -->
<g id="edge33" class="edge"><title>_SignedIntegerType&#45;&gt;Int64</title>
<path fill="none" stroke="#cccccc" d="M872.418,-115.883C822.83,-95.4751 710.73,-49.3401 654.101,-26.0345"/>
<polygon fill="#cccccc" stroke="#cccccc" points="655.106,-22.6633 644.527,-22.0941 652.442,-29.1366 655.106,-22.6633"/>
</g>
<!-- _SignedIntegerType&#45;&gt;Int8 -->
<g id="edge34" class="edge"><title>_SignedIntegerType&#45;&gt;Int8</title>
<path fill="none" stroke="#cccccc" d="M931.068,-115.938C961.543,-106.845 1007.39,-92.9415 1047,-80 1102.86,-61.7499 1167.14,-39.1385 1206.41,-25.14"/>
<polygon fill="#cccccc" stroke="#cccccc" points="1207.6,-28.4337 1215.84,-21.7745 1205.24,-21.8414 1207.6,-28.4337"/>
</g>
<!-- _SignedIntegerType&#45;&gt;SignedIntegerType -->
<g id="edge35" class="edge"><title>_SignedIntegerType&#45;&gt;SignedIntegerType</title>
<path fill="none" stroke="#cccccc" d="M900.039,-115.988C902.236,-108.752 905.276,-98.7373 907.959,-89.9"/>
<polygon fill="#cccccc" stroke="#cccccc" points="911.316,-90.8894 910.872,-80.3039 904.618,-88.856 911.316,-90.8894"/>
</g>
<!-- _UnsignedIntegerType&#45;&gt;UInt -->
<g id="edge71" class="edge"><title>_UnsignedIntegerType&#45;&gt;UInt</title>
<path fill="none" stroke="#cccccc" d="M1912.3,-125.92C2005.76,-124.493 2171.42,-116.675 2217,-80 2231.28,-68.5055 2237.08,-47.9076 2239.42,-32.3841"/>
<polygon fill="#cccccc" stroke="#cccccc" points="2242.93,-32.5135 2240.59,-22.1801 2235.98,-31.7167 2242.93,-32.5135"/>
</g>
<!-- _UnsignedIntegerType&#45;&gt;UInt16 -->
<g id="edge72" class="edge"><title>_UnsignedIntegerType&#45;&gt;UInt16</title>
<path fill="none" stroke="#cccccc" d="M1819.06,-115.983C1761.66,-95.4055 1630.46,-48.3728 1566.05,-25.2838"/>
<polygon fill="#cccccc" stroke="#cccccc" points="1566.91,-21.8714 1556.31,-21.7914 1564.55,-28.4608 1566.91,-21.8714"/>
</g>
<!-- _UnsignedIntegerType&#45;&gt;UInt32 -->
<g id="edge73" class="edge"><title>_UnsignedIntegerType&#45;&gt;UInt32</title>
<path fill="none" stroke="#cccccc" d="M1828.14,-115.862C1813.18,-107.346 1792.17,-94.3017 1776,-80 1758.99,-64.9585 1742.67,-44.6934 1731.89,-30.2073"/>
<polygon fill="#cccccc" stroke="#cccccc" points="1734.65,-28.0539 1725.93,-22.0329 1728.99,-32.1762 1734.65,-28.0539"/>
</g>
<!-- _UnsignedIntegerType&#45;&gt;UInt64 -->
<g id="edge74" class="edge"><title>_UnsignedIntegerType&#45;&gt;UInt64</title>
<path fill="none" stroke="#cccccc" d="M1871.03,-115.929C1886.58,-108.243 1906.08,-96.2091 1918,-80 1928.3,-65.994 1933.02,-46.6327 1935.18,-32.1505"/>
<polygon fill="#cccccc" stroke="#cccccc" points="1938.66,-32.5441 1936.38,-22.1964 1931.71,-31.7042 1938.66,-32.5441"/>
</g>
<!-- _UnsignedIntegerType&#45;&gt;UInt8 -->
<g id="edge75" class="edge"><title>_UnsignedIntegerType&#45;&gt;UInt8</title>
<path fill="none" stroke="#cccccc" d="M1912.31,-119.296C1968.02,-112.333 2042.57,-99.665 2065,-80 2078.64,-68.0468 2084.52,-47.8512 2087.07,-32.5668"/>
<polygon fill="#cccccc" stroke="#cccccc" points="2090.56,-32.8642 2088.39,-22.4935 2083.62,-31.9524 2090.56,-32.8642"/>
</g>
<!-- _UnsignedIntegerType&#45;&gt;UnsignedIntegerType -->
<g id="edge76" class="edge"><title>_UnsignedIntegerType&#45;&gt;UnsignedIntegerType</title>
<path fill="none" stroke="#cccccc" d="M1847,-115.988C1847,-108.91 1847,-99.1714 1847,-90.4779"/>
<polygon fill="#cccccc" stroke="#cccccc" points="1850.5,-90.3038 1847,-80.3039 1843.5,-90.3039 1850.5,-90.3038"/>
</g>
</g>
</svg>
