<?xml version="1.0" encoding="UTF-8" standalone="no"?>
<!DOCTYPE svg PUBLIC "-//W3C//DTD SVG 1.1//EN"
 "http://www.w3.org/Graphics/SVG/1.1/DTD/svg11.dtd">
<!-- Generated by graphviz version 2.36.0 (20140111.2315)
 -->
<!-- Title: ExtendedGraphemeClusterLiteralConvertible &#45; Type Hierarchy &#45; SwiftDoc.org Pages: 1 -->
<svg width="289pt" height="311pt"
 viewBox="0.00 0.00 289.40 311.20" xmlns="http://www.w3.org/2000/svg" xmlns:xlink="http://www.w3.org/1999/xlink">
<g id="graph0" class="graph" transform="scale(1 1) rotate(0) translate(7.2 253.6)">
<title>ExtendedGraphemeClusterLiteralConvertible &#45; Type Hierarchy &#45; SwiftDoc.org</title>
<polygon fill="white" stroke="none" points="-7.2,57.6 -7.2,-253.6 282.2,-253.6 282.2,57.6 -7.2,57.6"/>
<!-- Character -->
<g id="node1" class="node"><title>Character</title>
<g id="a_node1"><a xlink:href="/type/Character/" xlink:title="Character">
<polygon fill="#999999" stroke="#999999" points="70.0173,-22 7.98275,-22 7.98275,-0 70.0173,-0 70.0173,-22"/>
<text text-anchor="middle" x="39" y="-7.4" font-family="Helvetica,sans-Serif" font-size="12.00" fill="white">Character</text>
</a>
</g>
</g>
<!-- ExtendedGraphemeClusterLiteralConvertible -->
<g id="node2" class="node"><title>ExtendedGraphemeClusterLiteralConvertible</title>
<g id="a_node2"><a xlink:href="/protocol/ExtendedGraphemeClusterLiteralConvertible/" xlink:title="ExtendedGraphemeClusterLiteralConvertible">
<path fill="#ee543d" stroke="#ee543d" d="M240.762,-138C240.762,-138 7.23836,-138 7.23836,-138 3.57169,-138 -0.0949775,-134.333 -0.0949775,-130.667 -0.0949775,-130.667 -0.0949775,-123.333 -0.0949775,-123.333 -0.0949775,-119.667 3.57169,-116 7.23836,-116 7.23836,-116 240.762,-116 240.762,-116 244.428,-116 248.095,-119.667 248.095,-123.333 248.095,-123.333 248.095,-130.667 248.095,-130.667 248.095,-134.333 244.428,-138 240.762,-138"/>
<text text-anchor="middle" x="124" y="-123.4" font-family="Helvetica,sans-Serif" font-size="12.00" fill="white">ExtendedGraphemeClusterLiteralConvertible</text>
</a>
</g>
</g>
<!-- ExtendedGraphemeClusterLiteralConvertible&#45;&gt;Character -->
<g id="edge1" class="edge"><title>ExtendedGraphemeClusterLiteralConvertible&#45;&gt;Character</title>
<path fill="none" stroke="#cccccc" d="M116.457,-115.883C102.127,-96.6645 70.7856,-54.6301 52.6687,-30.3322"/>
<polygon fill="#cccccc" stroke="#cccccc" points="55.4319,-28.1827 46.6485,-22.2579 49.8201,-32.3669 55.4319,-28.1827"/>
</g>
<!-- StaticString -->
<g id="node3" class="node"><title>StaticString</title>
<g id="a_node3"><a xlink:href="/type/StaticString/" xlink:title="StaticString">
<polygon fill="#999999" stroke="#999999" points="183.519,-22 112.481,-22 112.481,-0 183.519,-0 183.519,-22"/>
<text text-anchor="middle" x="148" y="-7.4" font-family="Helvetica,sans-Serif" font-size="12.00" fill="white">StaticString</text>
</a>
</g>
</g>
<!-- ExtendedGraphemeClusterLiteralConvertible&#45;&gt;StaticString -->
<g id="edge2" class="edge"><title>ExtendedGraphemeClusterLiteralConvertible&#45;&gt;StaticString</title>
<path fill="none" stroke="#cccccc" d="M114.413,-115.773C103.09,-102.39 86.8753,-78.2545 96,-58 101.454,-45.8944 111.842,-35.6897 121.909,-27.9913"/>
<polygon fill="#cccccc" stroke="#cccccc" points="124.043,-30.7685 130.173,-22.1275 119.992,-25.0595 124.043,-30.7685"/>
</g>
<!-- String -->
<g id="node4" class="node"><title>String</title>
<g id="a_node4"><a xlink:href="/type/String/" xlink:title="String">
<polygon fill="#999999" stroke="#999999" points="275,-22 221,-22 221,-0 275,-0 275,-22"/>
<text text-anchor="middle" x="248" y="-7.4" font-family="Helvetica,sans-Serif" font-size="12.00" fill="white">String</text>
</a>
</g>
</g>
<!-- ExtendedGraphemeClusterLiteralConvertible&#45;&gt;String -->
<g id="edge3" class="edge"><title>ExtendedGraphemeClusterLiteralConvertible&#45;&gt;String</title>
<path fill="none" stroke="#cccccc" d="M193.364,-115.967C214.398,-109.316 235.281,-98.2839 248,-80 257.562,-66.2534 256.528,-46.864 253.704,-32.3052"/>
<polygon fill="#cccccc" stroke="#cccccc" points="257.044,-31.2168 251.342,-22.287 250.231,-32.8234 257.044,-31.2168"/>
</g>
<!-- StringLiteralConvertible -->
<g id="node5" class="node"><title>StringLiteralConvertible</title>
<g id="a_node5"><a xlink:href="/protocol/StringLiteralConvertible/" xlink:title="StringLiteralConvertible">
<path fill="#999999" stroke="#999999" d="M231.714,-80C231.714,-80 112.286,-80 112.286,-80 108.62,-80 104.953,-76.3333 104.953,-72.6667 104.953,-72.6667 104.953,-65.3333 104.953,-65.3333 104.953,-61.6667 108.62,-58 112.286,-58 112.286,-58 231.714,-58 231.714,-58 235.38,-58 239.047,-61.6667 239.047,-65.3333 239.047,-65.3333 239.047,-72.6667 239.047,-72.6667 239.047,-76.3333 235.38,-80 231.714,-80"/>
<text text-anchor="middle" x="172" y="-65.4" font-family="Helvetica,sans-Serif" font-size="12.00" fill="white">StringLiteralConvertible</text>
</a>
</g>
</g>
<!-- ExtendedGraphemeClusterLiteralConvertible&#45;&gt;StringLiteralConvertible -->
<g id="edge4" class="edge"><title>ExtendedGraphemeClusterLiteralConvertible&#45;&gt;StringLiteralConvertible</title>
<path fill="none" stroke="#cccccc" d="M132.581,-115.988C139.255,-108.202 148.688,-97.1971 156.653,-87.9049"/>
<polygon fill="#cccccc" stroke="#cccccc" points="159.318,-90.1742 163.168,-80.3039 154.003,-85.6187 159.318,-90.1742"/>
</g>
<!-- StringLiteralConvertible&#45;&gt;StaticString -->
<g id="edge5" class="edge"><title>StringLiteralConvertible&#45;&gt;StaticString</title>
<path fill="none" stroke="#cccccc" d="M167.709,-57.9883C164.575,-50.6738 160.223,-40.5192 156.405,-31.6122"/>
<polygon fill="#cccccc" stroke="#cccccc" points="159.572,-30.1166 152.416,-22.3039 153.138,-32.8741 159.572,-30.1166"/>
</g>
<!-- StringLiteralConvertible&#45;&gt;String -->
<g id="edge6" class="edge"><title>StringLiteralConvertible&#45;&gt;String</title>
<path fill="none" stroke="#cccccc" d="M185.587,-57.9883C196.865,-49.6784 213.118,-37.7028 226.211,-28.0554"/>
<polygon fill="#cccccc" stroke="#cccccc" points="228.3,-30.8635 234.274,-22.1138 224.147,-25.2281 228.3,-30.8635"/>
</g>
<!-- UnicodeScalarLiteralConvertible -->
<g id="node6" class="node"><title>UnicodeScalarLiteralConvertible</title>
<g id="a_node6"><a xlink:href="/protocol/UnicodeScalarLiteralConvertible/" xlink:title="UnicodeScalarLiteralConvertible">
<path fill="#999999" stroke="#999999" d="M207.233,-196C207.233,-196 40.7673,-196 40.7673,-196 37.1006,-196 33.4339,-192.333 33.4339,-188.667 33.4339,-188.667 33.4339,-181.333 33.4339,-181.333 33.4339,-177.667 37.1006,-174 40.7673,-174 40.7673,-174 207.233,-174 207.233,-174 210.899,-174 214.566,-177.667 214.566,-181.333 214.566,-181.333 214.566,-188.667 214.566,-188.667 214.566,-192.333 210.899,-196 207.233,-196"/>
<text text-anchor="middle" x="124" y="-181.4" font-family="Helvetica,sans-Serif" font-size="12.00" fill="white">UnicodeScalarLiteralConvertible</text>
</a>
</g>
</g>
<!-- UnicodeScalarLiteralConvertible&#45;&gt;ExtendedGraphemeClusterLiteralConvertible -->
<g id="edge7" class="edge"><title>UnicodeScalarLiteralConvertible&#45;&gt;ExtendedGraphemeClusterLiteralConvertible</title>
<path fill="none" stroke="#cccccc" d="M124,-173.988C124,-166.91 124,-157.171 124,-148.478"/>
<polygon fill="#cccccc" stroke="#cccccc" points="127.5,-148.304 124,-138.304 120.5,-148.304 127.5,-148.304"/>
</g>
</g>
</svg>
