<?xml version="1.0" encoding="UTF-8" standalone="no"?>
<!DOCTYPE svg PUBLIC "-//W3C//DTD SVG 1.1//EN"
 "http://www.w3.org/Graphics/SVG/1.1/DTD/svg11.dtd">
<!-- Generated by graphviz version 2.36.0 (20140111.2315)
 -->
<!-- Title: CustomDebugStringConvertible &#45; Type Hierarchy &#45; SwiftDoc.org Pages: 1 -->
<svg width="4029pt" height="195pt"
 viewBox="0.00 0.00 4029.40 195.20" xmlns="http://www.w3.org/2000/svg" xmlns:xlink="http://www.w3.org/1999/xlink">
<g id="graph0" class="graph" transform="scale(1 1) rotate(0) translate(7.2 137.6)">
<g transform="translate(0 -137.6)">
<g>
    <path fill="#666666" d="M13.846,10.832c-0.336-0.464-0.792-0.844-1.368-1.14s-1.224-0.444-1.944-0.444
        c-0.384,0-0.772,0.052-1.164,0.156C8.977,9.509,8.622,9.677,8.301,9.908c-0.32,0.232-0.58,0.52-0.78,0.864
        c-0.2,0.344-0.3,0.756-0.3,1.236c0,0.464,0.092,0.852,0.276,1.164c0.184,0.312,0.432,0.576,0.744,0.792s0.68,0.4,1.104,0.552
        c0.423,0.152,0.876,0.309,1.356,0.468c0.576,0.177,1.16,0.376,1.752,0.601c0.592,0.224,1.128,0.52,1.608,0.888
        s0.872,0.828,1.176,1.38s0.456,1.252,0.456,2.101c0,0.88-0.164,1.644-0.492,2.292c-0.328,0.647-0.765,1.184-1.308,1.607
        c-0.544,0.424-1.172,0.74-1.884,0.948s-1.444,0.312-2.196,0.312c-1.072,0-2.108-0.208-3.108-0.624
        c-1-0.415-1.828-1.031-2.484-1.848l1.848-1.56c0.4,0.592,0.936,1.071,1.608,1.439c0.672,0.368,1.399,0.552,2.184,0.552
        c0.4,0,0.8-0.056,1.2-0.168c0.4-0.111,0.764-0.288,1.092-0.527c0.328-0.24,0.596-0.54,0.804-0.9
        c0.208-0.36,0.312-0.796,0.312-1.308s-0.108-0.94-0.324-1.284c-0.216-0.344-0.508-0.636-0.876-0.876s-0.796-0.444-1.284-0.612
        c-0.488-0.168-1.004-0.34-1.548-0.516c-0.544-0.16-1.08-0.356-1.608-0.588c-0.528-0.232-1-0.528-1.416-0.889
        c-0.416-0.359-0.752-0.804-1.008-1.332c-0.256-0.527-0.384-1.184-0.384-1.968c0-0.848,0.172-1.576,0.516-2.184
        c0.344-0.608,0.792-1.112,1.344-1.512c0.552-0.4,1.176-0.692,1.872-0.876c0.696-0.184,1.396-0.276,2.1-0.276
        c0.992,0,1.92,0.176,2.784,0.528c0.864,0.352,1.56,0.824,2.088,1.416L13.846,10.832z"/>
    <path fill="#666666" d="M18.813,13.304l2.568,8.688h0.048l2.712-8.688h2.376l2.76,8.688h0.048l2.568-8.688h2.376L30.501,24.68
        h-2.352l-2.808-8.544h-0.048l-2.784,8.544h-2.352l-3.792-11.376H18.813z"/>
    <path fill="#666666" d="M38.685,9.2c0,0.416-0.147,0.76-0.44,1.032c-0.294,0.272-0.647,0.408-1.06,0.408s-0.762-0.14-1.047-0.42
        c-0.286-0.28-0.429-0.62-0.429-1.02c0-0.416,0.143-0.764,0.429-1.044c0.286-0.28,0.635-0.42,1.047-0.42s0.766,0.14,1.06,0.42
        C38.538,8.437,38.685,8.784,38.685,9.2z M38.325,24.68h-2.256V13.304h2.256V24.68z"/>
    <path fill="#666666" d="M47.613,15.152h-2.64v9.528h-2.256v-9.528h-2.256v-1.848h2.256v-2.376c0-0.672,0.076-1.292,0.228-1.86
        c0.152-0.568,0.4-1.06,0.744-1.476c0.344-0.416,0.784-0.744,1.32-0.984c0.536-0.24,1.188-0.36,1.956-0.36
        c0.544,0,1.016,0.056,1.416,0.168l-0.264,1.944c-0.176-0.048-0.352-0.088-0.528-0.12c-0.176-0.032-0.376-0.048-0.6-0.048
        c-0.432,0-0.78,0.076-1.044,0.228c-0.264,0.152-0.468,0.356-0.612,0.612s-0.24,0.548-0.288,0.876
        c-0.048,0.328-0.072,0.668-0.072,1.02v2.376h2.64V15.152z"/>
    <path fill="#666666" d="M54.909,15.152h-3.024v5.91c0,0.687,0.128,1.177,0.384,1.472c0.256,0.295,0.664,0.442,1.224,0.442
        c0.208,0,0.432-0.021,0.672-0.065c0.24-0.044,0.456-0.11,0.648-0.198l0.072,1.848c-0.272,0.096-0.572,0.172-0.9,0.229
        c-0.328,0.056-0.668,0.084-1.02,0.084c-1.072,0-1.892-0.296-2.46-0.889c-0.568-0.592-0.852-1.479-0.852-2.664v-6.168h-2.184
        v-1.848h2.184V10.04h2.232v3.264h3.024V15.152z"/>
    <path fill="#666666" d="M57.356,7.688h5.832c1.088,0,2.176,0.16,3.264,0.48c1.088,0.32,2.072,0.824,2.952,1.512
        s1.592,1.568,2.136,2.64c0.544,1.072,0.816,2.36,0.816,3.864c0,1.456-0.272,2.716-0.816,3.78s-1.256,1.943-2.136,2.64
        s-1.864,1.216-2.952,1.561c-1.088,0.344-2.176,0.516-3.264,0.516h-5.832V7.688z M59.732,22.593h2.976
        c1.024,0,1.972-0.145,2.844-0.432c0.872-0.288,1.624-0.704,2.256-1.248c0.632-0.544,1.124-1.216,1.476-2.017
        c0.352-0.8,0.528-1.704,0.528-2.712c0-1.056-0.176-1.983-0.528-2.784c-0.353-0.8-0.844-1.468-1.476-2.004
        c-0.632-0.536-1.384-0.944-2.256-1.224s-1.82-0.42-2.844-0.42h-2.976V22.593z"/>
    <path fill="#666666" d="M86.06,18.969c0,0.88-0.156,1.688-0.468,2.424c-0.312,0.736-0.744,1.372-1.296,1.908
        c-0.552,0.536-1.204,0.952-1.956,1.248c-0.752,0.296-1.56,0.443-2.424,0.443c-0.864,0-1.672-0.147-2.424-0.443
        c-0.752-0.296-1.4-0.712-1.944-1.248c-0.544-0.536-0.972-1.172-1.284-1.908c-0.312-0.735-0.468-1.544-0.468-2.424
        s0.156-1.684,0.468-2.412c0.312-0.728,0.74-1.356,1.284-1.884c0.543-0.528,1.191-0.939,1.944-1.236
        c0.752-0.296,1.56-0.444,2.424-0.444c0.864,0,1.672,0.148,2.424,0.444c0.752,0.297,1.404,0.708,1.956,1.236
        c0.552,0.527,0.984,1.156,1.296,1.884C85.904,17.285,86.06,18.089,86.06,18.969z M83.708,18.98c0-0.542-0.084-1.061-0.252-1.556
        c-0.169-0.494-0.414-0.929-0.734-1.304s-0.718-0.674-1.192-0.897s-1.015-0.335-1.625-0.335c-0.61,0-1.152,0.111-1.625,0.335
        c-0.474,0.224-0.871,0.522-1.191,0.897c-0.321,0.375-0.566,0.81-0.734,1.304C76.184,17.92,76.1,18.438,76.1,18.98
        c0,0.543,0.084,1.062,0.253,1.556c0.168,0.495,0.413,0.934,0.734,1.316c0.321,0.383,0.718,0.686,1.191,0.909
        c0.473,0.224,1.015,0.335,1.625,0.335c0.61,0,1.151-0.111,1.625-0.335s0.871-0.526,1.192-0.909s0.565-0.821,0.734-1.316
        C83.624,20.042,83.708,19.523,83.708,18.98z"/>
    <path fill="#666666" d="M96.428,16.184c-0.24-0.368-0.6-0.676-1.08-0.924s-0.992-0.372-1.536-0.372
        c-0.592,0-1.116,0.112-1.572,0.336c-0.456,0.225-0.844,0.524-1.164,0.9c-0.32,0.376-0.564,0.812-0.732,1.308
        s-0.252,1.017-0.252,1.56c0,0.545,0.084,1.064,0.252,1.561s0.412,0.933,0.732,1.308c0.32,0.376,0.712,0.677,1.176,0.9
        c0.464,0.225,0.992,0.336,1.584,0.336c0.576,0,1.1-0.111,1.572-0.336c0.472-0.224,0.86-0.528,1.164-0.912l1.512,1.368
        c-0.48,0.561-1.08,0.996-1.8,1.308c-0.72,0.312-1.536,0.468-2.448,0.468c-0.88,0-1.692-0.144-2.436-0.432
        c-0.744-0.288-1.388-0.691-1.932-1.212c-0.544-0.52-0.972-1.147-1.284-1.884s-0.468-1.561-0.468-2.473
        c0-0.896,0.152-1.711,0.456-2.447c0.304-0.736,0.728-1.368,1.272-1.896c0.543-0.527,1.188-0.936,1.932-1.224
        c0.744-0.288,1.548-0.433,2.412-0.433c0.8,0,1.596,0.16,2.388,0.48s1.419,0.784,1.884,1.392L96.428,16.184z"/>
    <path fill="#666666" d="M103.1,23.24c0,0.417-0.152,0.784-0.456,1.104c-0.304,0.32-0.688,0.479-1.152,0.479
        c-0.448,0-0.828-0.155-1.14-0.468c-0.312-0.312-0.468-0.676-0.468-1.092c0-0.432,0.152-0.804,0.456-1.116
        c0.304-0.312,0.688-0.468,1.152-0.468c0.464,0,0.848,0.152,1.152,0.456C102.947,22.44,103.1,22.808,103.1,23.24z"/>
    <path fill="#666666" d="M116.635,18.969c0,0.88-0.156,1.688-0.468,2.424c-0.312,0.736-0.744,1.372-1.296,1.908
        c-0.552,0.536-1.204,0.952-1.956,1.248c-0.752,0.296-1.56,0.443-2.424,0.443c-0.864,0-1.672-0.147-2.424-0.443
        c-0.752-0.296-1.4-0.712-1.944-1.248c-0.544-0.536-0.972-1.172-1.284-1.908c-0.312-0.735-0.468-1.544-0.468-2.424
        s0.156-1.684,0.468-2.412c0.312-0.728,0.74-1.356,1.284-1.884c0.543-0.528,1.191-0.939,1.944-1.236
        c0.752-0.296,1.56-0.444,2.424-0.444c0.864,0,1.672,0.148,2.424,0.444c0.752,0.297,1.404,0.708,1.956,1.236
        c0.552,0.527,0.984,1.156,1.296,1.884C116.479,17.285,116.635,18.089,116.635,18.969z M114.283,18.98
        c0-0.542-0.084-1.061-0.252-1.556c-0.169-0.494-0.414-0.929-0.734-1.304s-0.718-0.674-1.192-0.897s-1.015-0.335-1.625-0.335
        c-0.61,0-1.152,0.111-1.625,0.335c-0.474,0.224-0.871,0.522-1.191,0.897c-0.321,0.375-0.566,0.81-0.734,1.304
        c-0.169,0.495-0.253,1.014-0.253,1.556c0,0.543,0.084,1.062,0.253,1.556c0.168,0.495,0.413,0.934,0.734,1.316
        c0.321,0.383,0.718,0.686,1.191,0.909c0.473,0.224,1.015,0.335,1.625,0.335c0.61,0,1.151-0.111,1.625-0.335
        s0.871-0.526,1.192-0.909s0.565-0.821,0.734-1.316C114.199,20.042,114.283,19.523,114.283,18.98z"/>
    <path fill="#666666" d="M119.251,14.577c-0.016-0.48-0.04-0.904-0.072-1.272h2.136c0.032,0.288,0.056,0.62,0.072,0.996
        c0.016,0.376,0.024,0.684,0.024,0.924h0.072c0.32-0.672,0.788-1.212,1.404-1.62c0.616-0.408,1.308-0.612,2.076-0.612
        c0.352,0,0.648,0.033,0.888,0.097l-0.096,2.088c-0.32-0.08-0.664-0.12-1.032-0.12c-0.544,0-1.016,0.101-1.416,0.3
        c-0.4,0.2-0.732,0.468-0.996,0.805c-0.264,0.336-0.46,0.724-0.588,1.163c-0.128,0.44-0.192,0.9-0.192,1.381v5.976h-2.256v-8.928
        C119.275,15.449,119.267,15.056,119.251,14.577z"/>
    <path fill="#666666" d="M128.419,26.625c0.496,0.56,1.116,1.008,1.86,1.344c0.744,0.336,1.508,0.504,2.292,0.504
        c0.752,0,1.384-0.108,1.896-0.324s0.924-0.512,1.236-0.888s0.536-0.82,0.672-1.332c0.136-0.513,0.204-1.064,0.204-1.656v-1.464
        h-0.048c-0.416,0.641-0.984,1.128-1.704,1.464c-0.72,0.336-1.488,0.504-2.304,0.504c-0.864,0-1.652-0.151-2.364-0.456
        c-0.712-0.304-1.316-0.72-1.812-1.248c-0.496-0.527-0.88-1.147-1.152-1.859s-0.408-1.477-0.408-2.292
        c0-0.816,0.136-1.584,0.408-2.305c0.272-0.72,0.656-1.348,1.152-1.884c0.496-0.535,1.096-0.96,1.8-1.271
        c0.704-0.312,1.488-0.469,2.352-0.469c0.816,0,1.596,0.177,2.34,0.528c0.744,0.353,1.332,0.888,1.764,1.608h0.048v-1.824h2.184
        v10.8c0,0.832-0.104,1.628-0.312,2.388c-0.208,0.76-0.56,1.433-1.056,2.017s-1.144,1.052-1.944,1.404
        c-0.8,0.352-1.792,0.527-2.976,0.527c-0.992,0-1.988-0.18-2.988-0.54c-1-0.359-1.86-0.868-2.58-1.523L128.419,26.625z
         M129.091,18.873c0,0.527,0.084,1.031,0.253,1.512c0.168,0.479,0.417,0.904,0.746,1.271c0.329,0.369,0.726,0.664,1.192,0.889
        c0.465,0.224,0.995,0.336,1.589,0.336c0.577,0,1.107-0.104,1.589-0.312c0.481-0.207,0.891-0.491,1.228-0.852
        s0.598-0.784,0.782-1.272c0.185-0.487,0.277-1.012,0.277-1.571c0-0.544-0.093-1.057-0.277-1.536
        c-0.185-0.48-0.449-0.904-0.794-1.272c-0.345-0.367-0.755-0.66-1.228-0.876c-0.474-0.216-1-0.324-1.577-0.324
        c-0.594,0-1.124,0.108-1.589,0.324c-0.466,0.216-0.863,0.504-1.192,0.864s-0.578,0.784-0.746,1.271
        C129.175,17.812,129.091,18.329,129.091,18.873z"/>
</g>
<g><a xlink:href="/" pointer-events="all" target="_top"><polygon fill="none" points="0,0 145,0 145,35 0,35 0,0"/></a></g>

</g>


<!-- AnyHashable -->
<g id="node1" class="node">
<g id="a_node1"><a xlink:href="/v4.2/type/AnyHashable/hierarchy/" target="_top">
<polygon fill="#999999" stroke="#999999" points="80.5335,-22 -0.533453,-22 -0.533453,-0 80.5335,-0 80.5335,-22"/>
<text text-anchor="middle" x="40" y="-7.4" font-family="Helvetica,sans-Serif" font-size="12.00" fill="white">AnyHashable</text>
</a>
</g>
</g>
<!-- Array -->
<g id="node2" class="node">
<g id="a_node2"><a xlink:href="/v4.2/type/Array/hierarchy/" target="_top">
<polygon fill="#999999" stroke="#999999" points="153,-22 99,-22 99,-0 153,-0 153,-22"/>
<text text-anchor="middle" x="126" y="-7.4" font-family="Helvetica,sans-Serif" font-size="12.00" fill="white">Array</text>
</a>
</g>
</g>
<!-- ArraySlice -->
<g id="node3" class="node">
<g id="a_node3"><a xlink:href="/v4.2/type/ArraySlice/hierarchy/" target="_top">
<polygon fill="#999999" stroke="#999999" points="235.011,-22 170.989,-22 170.989,-0 235.011,-0 235.011,-22"/>
<text text-anchor="middle" x="203" y="-7.4" font-family="Helvetica,sans-Serif" font-size="12.00" fill="white">ArraySlice</text>
</a>
</g>
</g>
<!-- AutoreleasingUnsafeMutablePointer -->
<g id="node4" class="node">
<g id="a_node4"><a xlink:href="/v4.2/type/AutoreleasingUnsafeMutablePointer/hierarchy/" target="_top">
<polygon fill="#999999" stroke="#999999" points="455.088,-22 252.912,-22 252.912,-0 455.088,-0 455.088,-22"/>
<text text-anchor="middle" x="354" y="-7.4" font-family="Helvetica,sans-Serif" font-size="12.00" fill="white">AutoreleasingUnsafeMutablePointer</text>
</a>
</g>
</g>
<!-- CVaListPointer -->
<g id="node5" class="node">
<g id="a_node5"><a xlink:href="/v4.2/type/CVaListPointer/hierarchy/" target="_top">
<polygon fill="#999999" stroke="#999999" points="562.365,-22 473.635,-22 473.635,-0 562.365,-0 562.365,-22"/>
<text text-anchor="middle" x="518" y="-7.4" font-family="Helvetica,sans-Serif" font-size="12.00" fill="white">CVaListPointer</text>
</a>
</g>
</g>
<!-- Character -->
<g id="node6" class="node">
<g id="a_node6"><a xlink:href="/v4.2/type/Character/hierarchy/" target="_top">
<polygon fill="#999999" stroke="#999999" points="643.017,-22 580.983,-22 580.983,-0 643.017,-0 643.017,-22"/>
<text text-anchor="middle" x="612" y="-7.4" font-family="Helvetica,sans-Serif" font-size="12.00" fill="white">Character</text>
</a>
</g>
</g>
<!-- ClosedRange -->
<g id="node7" class="node">
<g id="a_node7"><a xlink:href="/v4.2/type/ClosedRange/hierarchy/" target="_top">
<polygon fill="#999999" stroke="#999999" points="744.037,-22 661.963,-22 661.963,-0 744.037,-0 744.037,-22"/>
<text text-anchor="middle" x="703" y="-7.4" font-family="Helvetica,sans-Serif" font-size="12.00" fill="white">ClosedRange</text>
</a>
</g>
</g>
<!-- CodingKey -->
<g id="node8" class="node">
<g id="a_node8"><a xlink:href="/v4.2/protocol/CodingKey/hierarchy/" target="_top">
<path fill="#999999" stroke="#999999" d="M823.697,-22C823.697,-22 770.303,-22 770.303,-22 766.636,-22 762.97,-18.3333 762.97,-14.6667 762.97,-14.6667 762.97,-7.33333 762.97,-7.33333 762.97,-3.66667 766.636,-0 770.303,-0 770.303,-0 823.697,-0 823.697,-0 827.364,-0 831.03,-3.66667 831.03,-7.33333 831.03,-7.33333 831.03,-14.6667 831.03,-14.6667 831.03,-18.3333 827.364,-22 823.697,-22"/>
<text text-anchor="middle" x="797" y="-7.4" font-family="Helvetica,sans-Serif" font-size="12.00" fill="white">CodingKey</text>
</a>
</g>
</g>
<!-- CollectionOfOne -->
<g id="node9" class="node">
<g id="a_node9"><a xlink:href="/v4.2/type/CollectionOfOne/hierarchy/" target="_top">
<polygon fill="#999999" stroke="#999999" points="947.032,-22 848.968,-22 848.968,-0 947.032,-0 947.032,-22"/>
<text text-anchor="middle" x="898" y="-7.4" font-family="Helvetica,sans-Serif" font-size="12.00" fill="white">CollectionOfOne</text>
</a>
</g>
</g>
<!-- ContiguousArray -->
<g id="node10" class="node">
<g id="a_node10"><a xlink:href="/v4.2/type/ContiguousArray/hierarchy/" target="_top">
<polygon fill="#999999" stroke="#999999" points="1064.53,-22 965.466,-22 965.466,-0 1064.53,-0 1064.53,-22"/>
<text text-anchor="middle" x="1015" y="-7.4" font-family="Helvetica,sans-Serif" font-size="12.00" fill="white">ContiguousArray</text>
</a>
</g>
</g>
<!-- CustomDebugStringConvertible -->
<g id="node11" class="node">
<g id="a_node11"><a xlink:href="/v4.2/protocol/CustomDebugStringConvertible/" target="_top">
<path fill="#ee543d" stroke="#ee543d" d="M1890.73,-80C1890.73,-80 1727.27,-80 1727.27,-80 1723.6,-80 1719.94,-76.3333 1719.94,-72.6667 1719.94,-72.6667 1719.94,-65.3333 1719.94,-65.3333 1719.94,-61.6667 1723.6,-58 1727.27,-58 1727.27,-58 1890.73,-58 1890.73,-58 1894.4,-58 1898.06,-61.6667 1898.06,-65.3333 1898.06,-65.3333 1898.06,-72.6667 1898.06,-72.6667 1898.06,-76.3333 1894.4,-80 1890.73,-80"/>
<text text-anchor="middle" x="1809" y="-65.4" font-family="Helvetica,sans-Serif" font-size="12.00" fill="white">CustomDebugStringConvertible</text>
</a>
</g>
</g>
<!-- CustomDebugStringConvertible&#45;&gt;AnyHashable -->
<g id="edge1" class="edge">
<path fill="none" stroke="#cccccc" d="M1719.68,-67.6229C1416.97,-66.033 430.425,-58.219 90.6739,-21.8282"/>
<polygon fill="#cccccc" stroke="#cccccc" points="90.891,-18.3311 80.568,-20.7156 90.1249,-25.289 90.891,-18.3311"/>
</g>
<!-- CustomDebugStringConvertible&#45;&gt;Array -->
<g id="edge2" class="edge">
<path fill="none" stroke="#cccccc" d="M1719.71,-68.3598C1425.4,-69.1031 486.714,-67.8351 163.673,-21.8548"/>
<polygon fill="#cccccc" stroke="#cccccc" points="163.771,-18.3318 153.369,-20.3411 162.754,-25.2575 163.771,-18.3318"/>
</g>
<!-- CustomDebugStringConvertible&#45;&gt;ArraySlice -->
<g id="edge3" class="edge">
<path fill="none" stroke="#cccccc" d="M1719.72,-67.8366C1435.41,-66.9337 552.363,-61.0793 245.344,-21.8552"/>
<polygon fill="#cccccc" stroke="#cccccc" points="245.479,-18.3428 235.107,-20.5057 244.564,-25.2828 245.479,-18.3428"/>
</g>
<!-- CustomDebugStringConvertible&#45;&gt;AutoreleasingUnsafeMutablePointer -->
<g id="edge4" class="edge">
<path fill="none" stroke="#cccccc" d="M1719.6,-66.6864C1505.17,-63.1584 944.511,-51.6973 465.513,-22.0607"/>
<polygon fill="#cccccc" stroke="#cccccc" points="465.477,-18.5518 455.279,-21.4239 465.042,-25.5383 465.477,-18.5518"/>
</g>
<!-- CustomDebugStringConvertible&#45;&gt;CVaListPointer -->
<g id="edge5" class="edge">
<path fill="none" stroke="#cccccc" d="M1719.6,-66.3716C1477.84,-61.7009 813.713,-47.0345 572.548,-21.8488"/>
<polygon fill="#cccccc" stroke="#cccccc" points="572.738,-18.3491 562.42,-20.7571 571.988,-25.3088 572.738,-18.3491"/>
</g>
<!-- CustomDebugStringConvertible&#45;&gt;Character -->
<g id="edge6" class="edge">
<path fill="none" stroke="#cccccc" d="M1719.51,-66.7466C1488.9,-63.1523 877.378,-51.2224 653.271,-21.6683"/>
<polygon fill="#cccccc" stroke="#cccccc" points="653.597,-18.1804 643.215,-20.2931 652.648,-25.1158 653.597,-18.1804"/>
</g>
<!-- CustomDebugStringConvertible&#45;&gt;ClosedRange -->
<g id="edge7" class="edge">
<path fill="none" stroke="#cccccc" d="M1719.71,-68.6125C1539.18,-68.869 1117.81,-64.4905 754.308,-21.8197"/>
<polygon fill="#cccccc" stroke="#cccccc" points="754.454,-18.3126 744.112,-20.6108 753.63,-25.2639 754.454,-18.3126"/>
</g>
<!-- CustomDebugStringConvertible&#45;&gt;CodingKey -->
<g id="edge8" class="edge">
<path fill="none" stroke="#cccccc" d="M1719.57,-65.8261C1516.88,-60.5692 1026.42,-45.9078 841.08,-21.8694"/>
<polygon fill="#cccccc" stroke="#cccccc" points="841.541,-18.4 831.163,-20.533 840.606,-25.3372 841.541,-18.4"/>
</g>
<!-- CustomDebugStringConvertible&#45;&gt;CollectionOfOne -->
<g id="edge9" class="edge">
<path fill="none" stroke="#cccccc" d="M1719.68,-66.6141C1565.92,-63.4721 1241.15,-53.5249 957.382,-22.0336"/>
<polygon fill="#cccccc" stroke="#cccccc" points="957.633,-18.5399 947.305,-20.9043 956.853,-25.4964 957.633,-18.5399"/>
</g>
<!-- CustomDebugStringConvertible&#45;&gt;ContiguousArray -->
<g id="edge10" class="edge">
<path fill="none" stroke="#cccccc" d="M1719.79,-65.541C1583.02,-61.0795 1313.16,-49.5465 1074.87,-22.1115"/>
<polygon fill="#cccccc" stroke="#cccccc" points="1074.96,-18.5984 1064.62,-20.9194 1074.15,-25.5515 1074.96,-18.5984"/>
</g>
<!-- Dictionary -->
<g id="node12" class="node">
<g id="a_node12"><a xlink:href="/v4.2/type/Dictionary/hierarchy/" target="_top">
<polygon fill="#999999" stroke="#999999" points="1145.51,-22 1082.49,-22 1082.49,-0 1145.51,-0 1145.51,-22"/>
<text text-anchor="middle" x="1114" y="-7.4" font-family="Helvetica,sans-Serif" font-size="12.00" fill="white">Dictionary</text>
</a>
</g>
</g>
<!-- CustomDebugStringConvertible&#45;&gt;Dictionary -->
<g id="edge11" class="edge">
<path fill="none" stroke="#cccccc" d="M1719.87,-66.4936C1595.54,-63.3316 1362.97,-53.5667 1155.83,-21.8621"/>
<polygon fill="#cccccc" stroke="#cccccc" points="1156.1,-18.361 1145.68,-20.2867 1155.02,-25.2783 1156.1,-18.361"/>
</g>
<!-- Dictionary.Keys -->
<g id="node13" class="node">
<g id="a_node13"><a xlink:href="/v4.2/type/Dictionary.Keys/hierarchy/" target="_top">
<polygon fill="#999999" stroke="#999999" points="1256.36,-22 1163.64,-22 1163.64,-0 1256.36,-0 1256.36,-22"/>
<text text-anchor="middle" x="1210" y="-7.4" font-family="Helvetica,sans-Serif" font-size="12.00" fill="white">Dictionary.Keys</text>
</a>
</g>
</g>
<!-- CustomDebugStringConvertible&#45;&gt;Dictionary.Keys -->
<g id="edge31" class="edge">
<path fill="none" stroke="#cccccc" d="M1719.67,-63.0708C1613.87,-56.6405 1432.13,-43.7361 1266.54,-22.0944"/>
<polygon fill="#cccccc" stroke="#cccccc" points="1266.54,-18.5632 1256.16,-20.7235 1265.62,-25.5029 1266.54,-18.5632"/>
</g>
<!-- Dictionary.Values -->
<g id="node14" class="node">
<g id="a_node14"><a xlink:href="/v4.2/type/Dictionary.Values/hierarchy/" target="_top">
<polygon fill="#999999" stroke="#999999" points="1375.21,-22 1274.79,-22 1274.79,-0 1375.21,-0 1375.21,-22"/>
<text text-anchor="middle" x="1325" y="-7.4" font-family="Helvetica,sans-Serif" font-size="12.00" fill="white">Dictionary.Values</text>
</a>
</g>
</g>
<!-- CustomDebugStringConvertible&#45;&gt;Dictionary.Values -->
<g id="edge32" class="edge">
<path fill="none" stroke="#cccccc" d="M1719.89,-59.8246C1636.32,-51.8144 1507.62,-38.6032 1385.65,-22.0181"/>
<polygon fill="#cccccc" stroke="#cccccc" points="1385.77,-18.501 1375.38,-20.6114 1384.82,-25.4363 1385.77,-18.501"/>
</g>
<!-- Double -->
<g id="node15" class="node">
<g id="a_node15"><a xlink:href="/v4.2/type/Double/hierarchy/" target="_top">
<polygon fill="#999999" stroke="#999999" points="1448,-22 1394,-22 1394,-0 1448,-0 1448,-22"/>
<text text-anchor="middle" x="1421" y="-7.4" font-family="Helvetica,sans-Serif" font-size="12.00" fill="white">Double</text>
</a>
</g>
</g>
<!-- CustomDebugStringConvertible&#45;&gt;Double -->
<g id="edge12" class="edge">
<path fill="none" stroke="#cccccc" d="M1719.82,-59.8564C1650.76,-52.7378 1552.62,-40.8548 1458.05,-21.9785"/>
<polygon fill="#cccccc" stroke="#cccccc" points="1458.52,-18.5029 1448.03,-19.9481 1457.13,-25.3636 1458.52,-18.5029"/>
</g>
<!-- Float -->
<g id="node16" class="node">
<g id="a_node16"><a xlink:href="/v4.2/type/Float/hierarchy/" target="_top">
<polygon fill="#999999" stroke="#999999" points="1520,-22 1466,-22 1466,-0 1520,-0 1520,-22"/>
<text text-anchor="middle" x="1493" y="-7.4" font-family="Helvetica,sans-Serif" font-size="12.00" fill="white">Float</text>
</a>
</g>
</g>
<!-- CustomDebugStringConvertible&#45;&gt;Float -->
<g id="edge13" class="edge">
<path fill="none" stroke="#cccccc" d="M1734.3,-57.9707C1680.09,-50.1741 1604.84,-38.288 1530.11,-22.0629"/>
<polygon fill="#cccccc" stroke="#cccccc" points="1530.57,-18.5801 1520.05,-19.8512 1529.06,-25.4168 1530.57,-18.5801"/>
</g>
<!-- Float80 -->
<g id="node17" class="node">
<g id="a_node17"><a xlink:href="/v4.2/type/Float80/hierarchy/" target="_top">
<polygon fill="#999999" stroke="#999999" points="1592,-22 1538,-22 1538,-0 1592,-0 1592,-22"/>
<text text-anchor="middle" x="1565" y="-7.4" font-family="Helvetica,sans-Serif" font-size="12.00" fill="white">Float80</text>
</a>
</g>
</g>
<!-- CustomDebugStringConvertible&#45;&gt;Float80 -->
<g id="edge14" class="edge">
<path fill="none" stroke="#cccccc" d="M1760.08,-57.9496C1720.05,-49.5521 1661.74,-36.9265 1602.06,-22.1737"/>
<polygon fill="#cccccc" stroke="#cccccc" points="1602.64,-18.7097 1592.09,-19.6904 1600.94,-25.5024 1602.64,-18.7097"/>
</g>
<!-- ObjectIdentifier -->
<g id="node18" class="node">
<g id="a_node18"><a xlink:href="/v4.2/type/ObjectIdentifier/hierarchy/" target="_top">
<polygon fill="#999999" stroke="#999999" points="1700.03,-22 1609.97,-22 1609.97,-0 1700.03,-0 1700.03,-22"/>
<text text-anchor="middle" x="1655" y="-7.4" font-family="Helvetica,sans-Serif" font-size="12.00" fill="white">ObjectIdentifier</text>
</a>
</g>
</g>
<!-- CustomDebugStringConvertible&#45;&gt;ObjectIdentifier -->
<g id="edge15" class="edge">
<path fill="none" stroke="#cccccc" d="M1781.47,-57.9883C1756.58,-48.9381 1719.73,-35.5399 1692.23,-25.5367"/>
<polygon fill="#cccccc" stroke="#cccccc" points="1693.15,-22.1475 1682.55,-22.0192 1690.75,-28.726 1693.15,-22.1475"/>
</g>
<!-- OpaquePointer -->
<g id="node19" class="node">
<g id="a_node19"><a xlink:href="/v4.2/type/OpaquePointer/hierarchy/" target="_top">
<polygon fill="#999999" stroke="#999999" points="1809.04,-22 1718.96,-22 1718.96,-0 1809.04,-0 1809.04,-22"/>
<text text-anchor="middle" x="1764" y="-7.4" font-family="Helvetica,sans-Serif" font-size="12.00" fill="white">OpaquePointer</text>
</a>
</g>
</g>
<!-- CustomDebugStringConvertible&#45;&gt;OpaquePointer -->
<g id="edge16" class="edge">
<path fill="none" stroke="#cccccc" d="M1800.95,-57.9883C1794.76,-50.2806 1786.03,-39.4191 1778.61,-30.187"/>
<polygon fill="#cccccc" stroke="#cccccc" points="1781.27,-27.9066 1772.28,-22.3039 1775.82,-32.2914 1781.27,-27.9066"/>
</g>
<!-- Optional -->
<g id="node20" class="node">
<g id="a_node20"><a xlink:href="/v4.2/type/Optional/hierarchy/" target="_top">
<polygon fill="#999999" stroke="#999999" points="1882.02,-22 1827.98,-22 1827.98,-0 1882.02,-0 1882.02,-22"/>
<text text-anchor="middle" x="1855" y="-7.4" font-family="Helvetica,sans-Serif" font-size="12.00" fill="white">Optional</text>
</a>
</g>
</g>
<!-- CustomDebugStringConvertible&#45;&gt;Optional -->
<g id="edge17" class="edge">
<path fill="none" stroke="#cccccc" d="M1817.22,-57.9883C1823.56,-50.2806 1832.48,-39.4191 1840.06,-30.187"/>
<polygon fill="#cccccc" stroke="#cccccc" points="1842.89,-32.2528 1846.54,-22.3039 1837.48,-27.8096 1842.89,-32.2528"/>
</g>
<!-- Range -->
<g id="node21" class="node">
<g id="a_node21"><a xlink:href="/v4.2/type/Range/hierarchy/" target="_top">
<polygon fill="#999999" stroke="#999999" points="1954,-22 1900,-22 1900,-0 1954,-0 1954,-22"/>
<text text-anchor="middle" x="1927" y="-7.4" font-family="Helvetica,sans-Serif" font-size="12.00" fill="white">Range</text>
</a>
</g>
</g>
<!-- CustomDebugStringConvertible&#45;&gt;Range -->
<g id="edge18" class="edge">
<path fill="none" stroke="#cccccc" d="M1830.1,-57.9883C1848.61,-49.2036 1875.75,-36.3222 1896.6,-26.4255"/>
<polygon fill="#cccccc" stroke="#cccccc" points="1898.16,-29.5633 1905.69,-22.1138 1895.15,-23.2393 1898.16,-29.5633"/>
</g>
<!-- Set -->
<g id="node22" class="node">
<g id="a_node22"><a xlink:href="/v4.2/type/Set/hierarchy/" target="_top">
<polygon fill="#999999" stroke="#999999" points="2026,-22 1972,-22 1972,-0 2026,-0 2026,-22"/>
<text text-anchor="middle" x="1999" y="-7.4" font-family="Helvetica,sans-Serif" font-size="12.00" fill="white">Set</text>
</a>
</g>
</g>
<!-- CustomDebugStringConvertible&#45;&gt;Set -->
<g id="edge19" class="edge">
<path fill="none" stroke="#cccccc" d="M1842.97,-57.9883C1876.48,-48.1097 1927.58,-33.0507 1962.08,-22.881"/>
<polygon fill="#cccccc" stroke="#cccccc" points="1963.18,-26.2065 1971.78,-20.022 1961.2,-19.492 1963.18,-26.2065"/>
</g>
<!-- StaticString -->
<g id="node23" class="node">
<g id="a_node23"><a xlink:href="/v4.2/type/StaticString/hierarchy/" target="_top">
<polygon fill="#999999" stroke="#999999" points="2115.52,-22 2044.48,-22 2044.48,-0 2115.52,-0 2115.52,-22"/>
<text text-anchor="middle" x="2080" y="-7.4" font-family="Helvetica,sans-Serif" font-size="12.00" fill="white">StaticString</text>
</a>
</g>
</g>
<!-- CustomDebugStringConvertible&#45;&gt;StaticString -->
<g id="edge20" class="edge">
<path fill="none" stroke="#cccccc" d="M1859.77,-57.9364C1903.46,-49.2145 1968.44,-36.0972 2034.84,-22.0061"/>
<polygon fill="#cccccc" stroke="#cccccc" points="2035.59,-25.4247 2044.64,-19.9204 2034.13,-18.578 2035.59,-25.4247"/>
</g>
<!-- String -->
<g id="node24" class="node">
<g id="a_node24"><a xlink:href="/v4.2/type/String/hierarchy/" target="_top">
<polygon fill="#999999" stroke="#999999" points="2188,-22 2134,-22 2134,-0 2188,-0 2188,-22"/>
<text text-anchor="middle" x="2161" y="-7.4" font-family="Helvetica,sans-Serif" font-size="12.00" fill="white">String</text>
</a>
</g>
</g>
<!-- CustomDebugStringConvertible&#45;&gt;String -->
<g id="edge21" class="edge">
<path fill="none" stroke="#cccccc" d="M1897.07,-57.9875C1958.03,-50.3927 2041.17,-38.7235 2123.57,-21.8733"/>
<polygon fill="#cccccc" stroke="#cccccc" points="2124.53,-25.2487 2133.61,-19.7927 2123.11,-18.3942 2124.53,-25.2487"/>
</g>
<!-- String.UTF16View -->
<g id="node25" class="node">
<g id="a_node25"><a xlink:href="/v4.2/type/String.UTF16View/hierarchy/" target="_top">
<polygon fill="#999999" stroke="#999999" points="2313.37,-22 2206.63,-22 2206.63,-0 2313.37,-0 2313.37,-22"/>
<text text-anchor="middle" x="2260" y="-7.4" font-family="Helvetica,sans-Serif" font-size="12.00" fill="white">String.UTF16View</text>
</a>
</g>
</g>
<!-- CustomDebugStringConvertible&#45;&gt;String.UTF16View -->
<g id="edge35" class="edge">
<path fill="none" stroke="#cccccc" d="M1898.12,-58.4437C1974.46,-50.0244 2087.6,-36.9953 2196.24,-22.0587"/>
<polygon fill="#cccccc" stroke="#cccccc" points="2196.98,-25.4906 2206.41,-20.6543 2196.02,-18.5566 2196.98,-25.4906"/>
</g>
<!-- String.UTF8View -->
<g id="node26" class="node">
<g id="a_node26"><a xlink:href="/v4.2/type/String.UTF8View/hierarchy/" target="_top">
<polygon fill="#999999" stroke="#999999" points="2432.36,-22 2331.64,-22 2331.64,-0 2432.36,-0 2432.36,-22"/>
<text text-anchor="middle" x="2382" y="-7.4" font-family="Helvetica,sans-Serif" font-size="12.00" fill="white">String.UTF8View</text>
</a>
</g>
</g>
<!-- CustomDebugStringConvertible&#45;&gt;String.UTF8View -->
<g id="edge33" class="edge">
<path fill="none" stroke="#cccccc" d="M1898.19,-62.0601C1998.5,-54.9133 2166.47,-41.5469 2321.44,-21.9778"/>
<polygon fill="#cccccc" stroke="#cccccc" points="2322.15,-25.4157 2331.63,-20.6799 2321.26,-18.4718 2322.15,-25.4157"/>
</g>
<!-- String.UnicodeScalarView -->
<g id="node27" class="node">
<g id="a_node27"><a xlink:href="/v4.2/type/String.UnicodeScalarView/hierarchy/" target="_top">
<polygon fill="#999999" stroke="#999999" points="2598.89,-22 2451.11,-22 2451.11,-0 2598.89,-0 2598.89,-22"/>
<text text-anchor="middle" x="2525" y="-7.4" font-family="Helvetica,sans-Serif" font-size="12.00" fill="white">String.UnicodeScalarView</text>
</a>
</g>
</g>
<!-- CustomDebugStringConvertible&#45;&gt;String.UnicodeScalarView -->
<g id="edge34" class="edge">
<path fill="none" stroke="#cccccc" d="M1898.07,-62.8076C2018.5,-55.4978 2240.2,-41.0203 2440.68,-21.9862"/>
<polygon fill="#cccccc" stroke="#cccccc" points="2441.19,-25.4532 2450.82,-21.0183 2440.53,-18.4849 2441.19,-25.4532"/>
</g>
<!-- Substring -->
<g id="node28" class="node">
<g id="a_node28"><a xlink:href="/v4.2/type/Substring/hierarchy/" target="_top">
<polygon fill="#999999" stroke="#999999" points="2678.02,-22 2617.98,-22 2617.98,-0 2678.02,-0 2678.02,-22"/>
<text text-anchor="middle" x="2648" y="-7.4" font-family="Helvetica,sans-Serif" font-size="12.00" fill="white">Substring</text>
</a>
</g>
</g>
<!-- CustomDebugStringConvertible&#45;&gt;Substring -->
<g id="edge22" class="edge">
<path fill="none" stroke="#cccccc" d="M1898.24,-68.2969C2044.61,-67.5865 2344.77,-61.1058 2607.43,-21.7727"/>
<polygon fill="#cccccc" stroke="#cccccc" points="2608.18,-25.1988 2617.54,-20.239 2607.13,-18.278 2608.18,-25.1988"/>
</g>
<!-- Unicode.Scalar -->
<g id="node29" class="node">
<g id="a_node29"><a xlink:href="/v4.2/type/Unicode.Scalar/hierarchy/" target="_top">
<polygon fill="#999999" stroke="#999999" points="2787.53,-22 2696.47,-22 2696.47,-0 2787.53,-0 2787.53,-22"/>
<text text-anchor="middle" x="2742" y="-7.4" font-family="Helvetica,sans-Serif" font-size="12.00" fill="white">Unicode.Scalar</text>
</a>
</g>
</g>
<!-- CustomDebugStringConvertible&#45;&gt;Unicode.Scalar -->
<g id="edge36" class="edge">
<path fill="none" stroke="#cccccc" d="M1898.11,-67.0786C2055.31,-64.629 2392.21,-55.6882 2686.44,-21.9048"/>
<polygon fill="#cccccc" stroke="#cccccc" points="2686.92,-25.3728 2696.45,-20.744 2686.11,-18.4194 2686.92,-25.3728"/>
</g>
<!-- UnsafeBufferPointer -->
<g id="node30" class="node">
<g id="a_node30"><a xlink:href="/v4.2/type/UnsafeBufferPointer/hierarchy/" target="_top">
<polygon fill="#999999" stroke="#999999" points="2923.39,-22 2806.61,-22 2806.61,-0 2923.39,-0 2923.39,-22"/>
<text text-anchor="middle" x="2865" y="-7.4" font-family="Helvetica,sans-Serif" font-size="12.00" fill="white">UnsafeBufferPointer</text>
</a>
</g>
</g>
<!-- CustomDebugStringConvertible&#45;&gt;UnsafeBufferPointer -->
<g id="edge23" class="edge">
<path fill="none" stroke="#cccccc" d="M1898.35,-66.7463C2071.78,-63.6688 2466,-53.5274 2796,-22 2796.11,-21.9899 2796.21,-21.9798 2796.32,-21.9696"/>
<polygon fill="#cccccc" stroke="#cccccc" points="2796.75,-25.443 2806.32,-20.9003 2796.01,-18.4827 2796.75,-25.443"/>
</g>
<!-- UnsafeMutableBufferPointer -->
<g id="node31" class="node">
<g id="a_node31"><a xlink:href="/v4.2/type/UnsafeMutableBufferPointer/hierarchy/" target="_top">
<polygon fill="#999999" stroke="#999999" points="3101.91,-22 2942.09,-22 2942.09,-0 3101.91,-0 3101.91,-22"/>
<text text-anchor="middle" x="3022" y="-7.4" font-family="Helvetica,sans-Serif" font-size="12.00" fill="white">UnsafeMutableBufferPointer</text>
</a>
</g>
</g>
<!-- CustomDebugStringConvertible&#45;&gt;UnsafeMutableBufferPointer -->
<g id="edge24" class="edge">
<path fill="none" stroke="#cccccc" d="M1898.29,-66.4562C2088.56,-62.7016 2547.97,-51.1646 2932,-22 2932.1,-21.9922 2932.21,-21.9843 2932.31,-21.9765"/>
<polygon fill="#cccccc" stroke="#cccccc" points="2932.36,-25.4842 2942.04,-21.1772 2931.79,-18.5077 2932.36,-25.4842"/>
</g>
<!-- UnsafeMutablePointer -->
<g id="node32" class="node">
<g id="a_node32"><a xlink:href="/v4.2/type/UnsafeMutablePointer/hierarchy/" target="_top">
<polygon fill="#999999" stroke="#999999" points="3249.05,-22 3120.95,-22 3120.95,-0 3249.05,-0 3249.05,-22"/>
<text text-anchor="middle" x="3185" y="-7.4" font-family="Helvetica,sans-Serif" font-size="12.00" fill="white">UnsafeMutablePointer</text>
</a>
</g>
</g>
<!-- CustomDebugStringConvertible&#45;&gt;UnsafeMutablePointer -->
<g id="edge25" class="edge">
<path fill="none" stroke="#cccccc" d="M1898.37,-67.8864C2108.1,-66.961 2648.33,-60.7502 3110.65,-21.9265"/>
<polygon fill="#cccccc" stroke="#cccccc" points="3111.2,-25.3925 3120.87,-21.0618 3110.61,-18.4174 3111.2,-25.3925"/>
</g>
<!-- UnsafeMutableRawBufferPointer -->
<g id="node33" class="node">
<g id="a_node33"><a xlink:href="/v4.2/type/UnsafeMutableRawBufferPointer/hierarchy/" target="_top">
<polygon fill="#999999" stroke="#999999" points="3451.91,-22 3268.09,-22 3268.09,-0 3451.91,-0 3451.91,-22"/>
<text text-anchor="middle" x="3360" y="-7.4" font-family="Helvetica,sans-Serif" font-size="12.00" fill="white">UnsafeMutableRawBufferPointer</text>
</a>
</g>
</g>
<!-- CustomDebugStringConvertible&#45;&gt;UnsafeMutableRawBufferPointer -->
<g id="edge26" class="edge">
<path fill="none" stroke="#cccccc" d="M1898.14,-67.2154C2125.19,-64.7726 2743.75,-55.3348 3258,-22 3258.1,-21.9933 3258.21,-21.9867 3258.31,-21.98"/>
<polygon fill="#cccccc" stroke="#cccccc" points="3258.27,-25.4912 3268,-21.3011 3257.78,-18.5083 3258.27,-25.4912"/>
</g>
<!-- UnsafeMutableRawPointer -->
<g id="node34" class="node">
<g id="a_node34"><a xlink:href="/v4.2/type/UnsafeMutableRawPointer/hierarchy/" target="_top">
<polygon fill="#999999" stroke="#999999" points="3623.06,-22 3470.94,-22 3470.94,-0 3623.06,-0 3623.06,-22"/>
<text text-anchor="middle" x="3547" y="-7.4" font-family="Helvetica,sans-Serif" font-size="12.00" fill="white">UnsafeMutableRawPointer</text>
</a>
</g>
</g>
<!-- CustomDebugStringConvertible&#45;&gt;UnsafeMutableRawPointer -->
<g id="edge27" class="edge">
<path fill="none" stroke="#cccccc" d="M1898.23,-68.2699C2144.95,-68.425 2857.33,-64.8775 3460.39,-21.9674"/>
<polygon fill="#cccccc" stroke="#cccccc" points="3460.88,-25.442 3470.6,-21.2367 3460.38,-18.4599 3460.88,-25.442"/>
</g>
<!-- UnsafePointer -->
<g id="node35" class="node">
<g id="a_node35"><a xlink:href="/v4.2/type/UnsafePointer/hierarchy/" target="_top">
<polygon fill="#999999" stroke="#999999" points="3727.03,-22 3640.97,-22 3640.97,-0 3727.03,-0 3727.03,-22"/>
<text text-anchor="middle" x="3684" y="-7.4" font-family="Helvetica,sans-Serif" font-size="12.00" fill="white">UnsafePointer</text>
</a>
</g>
</g>
<!-- CustomDebugStringConvertible&#45;&gt;UnsafePointer -->
<g id="edge28" class="edge">
<path fill="none" stroke="#cccccc" d="M1898.16,-67.696C2212.66,-66.3225 3270.22,-59.0713 3631,-21.8968"/>
<polygon fill="#cccccc" stroke="#cccccc" points="3631.38,-25.3768 3640.95,-20.8446 3630.64,-18.4157 3631.38,-25.3768"/>
</g>
<!-- UnsafeRawBufferPointer -->
<g id="node36" class="node">
<g id="a_node36"><a xlink:href="/v4.2/type/UnsafeRawBufferPointer/hierarchy/" target="_top">
<polygon fill="#999999" stroke="#999999" points="3886.39,-22 3745.61,-22 3745.61,-0 3886.39,-0 3886.39,-22"/>
<text text-anchor="middle" x="3816" y="-7.4" font-family="Helvetica,sans-Serif" font-size="12.00" fill="white">UnsafeRawBufferPointer</text>
</a>
</g>
</g>
<!-- CustomDebugStringConvertible&#45;&gt;UnsafeRawBufferPointer -->
<g id="edge29" class="edge">
<path fill="none" stroke="#cccccc" d="M1898.31,-67.0612C2224.46,-63.4485 3351.67,-49.2986 3735.34,-21.9502"/>
<polygon fill="#cccccc" stroke="#cccccc" points="3735.65,-25.437 3745.37,-21.2196 3735.14,-18.4555 3735.65,-25.437"/>
</g>
<!-- UnsafeRawPointer -->
<g id="node37" class="node">
<g id="a_node37"><a xlink:href="/v4.2/type/UnsafeRawPointer/hierarchy/" target="_top">
<polygon fill="#999999" stroke="#999999" points="4015.04,-22 3904.96,-22 3904.96,-0 4015.04,-0 4015.04,-22"/>
<text text-anchor="middle" x="3960" y="-7.4" font-family="Helvetica,sans-Serif" font-size="12.00" fill="white">UnsafeRawPointer</text>
</a>
</g>
</g>
<!-- CustomDebugStringConvertible&#45;&gt;UnsafeRawPointer -->
<g id="edge30" class="edge">
<path fill="none" stroke="#cccccc" d="M1898.19,-67.5859C2241.43,-65.7534 3478.13,-56.8859 3894.75,-21.8622"/>
<polygon fill="#cccccc" stroke="#cccccc" points="3895.08,-25.3473 3904.74,-21.0036 3894.48,-18.373 3895.08,-25.3473"/>
</g>
</g>
</svg>
