<?xml version="1.0" encoding="UTF-8" standalone="no"?>
<!DOCTYPE svg PUBLIC "-//W3C//DTD SVG 1.1//EN"
 "http://www.w3.org/Graphics/SVG/1.1/DTD/svg11.dtd">
<!-- Generated by graphviz version 2.36.0 (20140111.2315)
 -->
<!-- Title: _CollectionType &#45; Type Hierarchy &#45; SwiftDoc.org Pages: 1 -->
<svg width="2885pt" height="543pt"
 viewBox="0.00 0.00 2885.40 543.20" xmlns="http://www.w3.org/2000/svg" xmlns:xlink="http://www.w3.org/1999/xlink">
<g id="graph0" class="graph" transform="scale(1 1) rotate(0) translate(7.2 485.6)">
<g transform="translate(0 -485.6)">
<g>
    <path fill="#666666" d="M13.846,10.832c-0.336-0.464-0.792-0.844-1.368-1.14s-1.224-0.444-1.944-0.444
        c-0.384,0-0.772,0.052-1.164,0.156C8.977,9.509,8.622,9.677,8.301,9.908c-0.32,0.232-0.58,0.52-0.78,0.864
        c-0.2,0.344-0.3,0.756-0.3,1.236c0,0.464,0.092,0.852,0.276,1.164c0.184,0.312,0.432,0.576,0.744,0.792s0.68,0.4,1.104,0.552
        c0.423,0.152,0.876,0.309,1.356,0.468c0.576,0.177,1.16,0.376,1.752,0.601c0.592,0.224,1.128,0.52,1.608,0.888
        s0.872,0.828,1.176,1.38s0.456,1.252,0.456,2.101c0,0.88-0.164,1.644-0.492,2.292c-0.328,0.647-0.765,1.184-1.308,1.607
        c-0.544,0.424-1.172,0.74-1.884,0.948s-1.444,0.312-2.196,0.312c-1.072,0-2.108-0.208-3.108-0.624
        c-1-0.415-1.828-1.031-2.484-1.848l1.848-1.56c0.4,0.592,0.936,1.071,1.608,1.439c0.672,0.368,1.399,0.552,2.184,0.552
        c0.4,0,0.8-0.056,1.2-0.168c0.4-0.111,0.764-0.288,1.092-0.527c0.328-0.24,0.596-0.54,0.804-0.9
        c0.208-0.36,0.312-0.796,0.312-1.308s-0.108-0.94-0.324-1.284c-0.216-0.344-0.508-0.636-0.876-0.876s-0.796-0.444-1.284-0.612
        c-0.488-0.168-1.004-0.34-1.548-0.516c-0.544-0.16-1.08-0.356-1.608-0.588c-0.528-0.232-1-0.528-1.416-0.889
        c-0.416-0.359-0.752-0.804-1.008-1.332c-0.256-0.527-0.384-1.184-0.384-1.968c0-0.848,0.172-1.576,0.516-2.184
        c0.344-0.608,0.792-1.112,1.344-1.512c0.552-0.4,1.176-0.692,1.872-0.876c0.696-0.184,1.396-0.276,2.1-0.276
        c0.992,0,1.92,0.176,2.784,0.528c0.864,0.352,1.56,0.824,2.088,1.416L13.846,10.832z"/>
    <path fill="#666666" d="M18.813,13.304l2.568,8.688h0.048l2.712-8.688h2.376l2.76,8.688h0.048l2.568-8.688h2.376L30.501,24.68
        h-2.352l-2.808-8.544h-0.048l-2.784,8.544h-2.352l-3.792-11.376H18.813z"/>
    <path fill="#666666" d="M38.685,9.2c0,0.416-0.147,0.76-0.44,1.032c-0.294,0.272-0.647,0.408-1.06,0.408s-0.762-0.14-1.047-0.42
        c-0.286-0.28-0.429-0.62-0.429-1.02c0-0.416,0.143-0.764,0.429-1.044c0.286-0.28,0.635-0.42,1.047-0.42s0.766,0.14,1.06,0.42
        C38.538,8.437,38.685,8.784,38.685,9.2z M38.325,24.68h-2.256V13.304h2.256V24.68z"/>
    <path fill="#666666" d="M47.613,15.152h-2.64v9.528h-2.256v-9.528h-2.256v-1.848h2.256v-2.376c0-0.672,0.076-1.292,0.228-1.86
        c0.152-0.568,0.4-1.06,0.744-1.476c0.344-0.416,0.784-0.744,1.32-0.984c0.536-0.24,1.188-0.36,1.956-0.36
        c0.544,0,1.016,0.056,1.416,0.168l-0.264,1.944c-0.176-0.048-0.352-0.088-0.528-0.12c-0.176-0.032-0.376-0.048-0.6-0.048
        c-0.432,0-0.78,0.076-1.044,0.228c-0.264,0.152-0.468,0.356-0.612,0.612s-0.24,0.548-0.288,0.876
        c-0.048,0.328-0.072,0.668-0.072,1.02v2.376h2.64V15.152z"/>
    <path fill="#666666" d="M54.909,15.152h-3.024v5.91c0,0.687,0.128,1.177,0.384,1.472c0.256,0.295,0.664,0.442,1.224,0.442
        c0.208,0,0.432-0.021,0.672-0.065c0.24-0.044,0.456-0.11,0.648-0.198l0.072,1.848c-0.272,0.096-0.572,0.172-0.9,0.229
        c-0.328,0.056-0.668,0.084-1.02,0.084c-1.072,0-1.892-0.296-2.46-0.889c-0.568-0.592-0.852-1.479-0.852-2.664v-6.168h-2.184
        v-1.848h2.184V10.04h2.232v3.264h3.024V15.152z"/>
    <path fill="#666666" d="M57.356,7.688h5.832c1.088,0,2.176,0.16,3.264,0.48c1.088,0.32,2.072,0.824,2.952,1.512
        s1.592,1.568,2.136,2.64c0.544,1.072,0.816,2.36,0.816,3.864c0,1.456-0.272,2.716-0.816,3.78s-1.256,1.943-2.136,2.64
        s-1.864,1.216-2.952,1.561c-1.088,0.344-2.176,0.516-3.264,0.516h-5.832V7.688z M59.732,22.593h2.976
        c1.024,0,1.972-0.145,2.844-0.432c0.872-0.288,1.624-0.704,2.256-1.248c0.632-0.544,1.124-1.216,1.476-2.017
        c0.352-0.8,0.528-1.704,0.528-2.712c0-1.056-0.176-1.983-0.528-2.784c-0.353-0.8-0.844-1.468-1.476-2.004
        c-0.632-0.536-1.384-0.944-2.256-1.224s-1.82-0.42-2.844-0.42h-2.976V22.593z"/>
    <path fill="#666666" d="M86.06,18.969c0,0.88-0.156,1.688-0.468,2.424c-0.312,0.736-0.744,1.372-1.296,1.908
        c-0.552,0.536-1.204,0.952-1.956,1.248c-0.752,0.296-1.56,0.443-2.424,0.443c-0.864,0-1.672-0.147-2.424-0.443
        c-0.752-0.296-1.4-0.712-1.944-1.248c-0.544-0.536-0.972-1.172-1.284-1.908c-0.312-0.735-0.468-1.544-0.468-2.424
        s0.156-1.684,0.468-2.412c0.312-0.728,0.74-1.356,1.284-1.884c0.543-0.528,1.191-0.939,1.944-1.236
        c0.752-0.296,1.56-0.444,2.424-0.444c0.864,0,1.672,0.148,2.424,0.444c0.752,0.297,1.404,0.708,1.956,1.236
        c0.552,0.527,0.984,1.156,1.296,1.884C85.904,17.285,86.06,18.089,86.06,18.969z M83.708,18.98c0-0.542-0.084-1.061-0.252-1.556
        c-0.169-0.494-0.414-0.929-0.734-1.304s-0.718-0.674-1.192-0.897s-1.015-0.335-1.625-0.335c-0.61,0-1.152,0.111-1.625,0.335
        c-0.474,0.224-0.871,0.522-1.191,0.897c-0.321,0.375-0.566,0.81-0.734,1.304C76.184,17.92,76.1,18.438,76.1,18.98
        c0,0.543,0.084,1.062,0.253,1.556c0.168,0.495,0.413,0.934,0.734,1.316c0.321,0.383,0.718,0.686,1.191,0.909
        c0.473,0.224,1.015,0.335,1.625,0.335c0.61,0,1.151-0.111,1.625-0.335s0.871-0.526,1.192-0.909s0.565-0.821,0.734-1.316
        C83.624,20.042,83.708,19.523,83.708,18.98z"/>
    <path fill="#666666" d="M96.428,16.184c-0.24-0.368-0.6-0.676-1.08-0.924s-0.992-0.372-1.536-0.372
        c-0.592,0-1.116,0.112-1.572,0.336c-0.456,0.225-0.844,0.524-1.164,0.9c-0.32,0.376-0.564,0.812-0.732,1.308
        s-0.252,1.017-0.252,1.56c0,0.545,0.084,1.064,0.252,1.561s0.412,0.933,0.732,1.308c0.32,0.376,0.712,0.677,1.176,0.9
        c0.464,0.225,0.992,0.336,1.584,0.336c0.576,0,1.1-0.111,1.572-0.336c0.472-0.224,0.86-0.528,1.164-0.912l1.512,1.368
        c-0.48,0.561-1.08,0.996-1.8,1.308c-0.72,0.312-1.536,0.468-2.448,0.468c-0.88,0-1.692-0.144-2.436-0.432
        c-0.744-0.288-1.388-0.691-1.932-1.212c-0.544-0.52-0.972-1.147-1.284-1.884s-0.468-1.561-0.468-2.473
        c0-0.896,0.152-1.711,0.456-2.447c0.304-0.736,0.728-1.368,1.272-1.896c0.543-0.527,1.188-0.936,1.932-1.224
        c0.744-0.288,1.548-0.433,2.412-0.433c0.8,0,1.596,0.16,2.388,0.48s1.419,0.784,1.884,1.392L96.428,16.184z"/>
    <path fill="#666666" d="M103.1,23.24c0,0.417-0.152,0.784-0.456,1.104c-0.304,0.32-0.688,0.479-1.152,0.479
        c-0.448,0-0.828-0.155-1.14-0.468c-0.312-0.312-0.468-0.676-0.468-1.092c0-0.432,0.152-0.804,0.456-1.116
        c0.304-0.312,0.688-0.468,1.152-0.468c0.464,0,0.848,0.152,1.152,0.456C102.947,22.44,103.1,22.808,103.1,23.24z"/>
    <path fill="#666666" d="M116.635,18.969c0,0.88-0.156,1.688-0.468,2.424c-0.312,0.736-0.744,1.372-1.296,1.908
        c-0.552,0.536-1.204,0.952-1.956,1.248c-0.752,0.296-1.56,0.443-2.424,0.443c-0.864,0-1.672-0.147-2.424-0.443
        c-0.752-0.296-1.4-0.712-1.944-1.248c-0.544-0.536-0.972-1.172-1.284-1.908c-0.312-0.735-0.468-1.544-0.468-2.424
        s0.156-1.684,0.468-2.412c0.312-0.728,0.74-1.356,1.284-1.884c0.543-0.528,1.191-0.939,1.944-1.236
        c0.752-0.296,1.56-0.444,2.424-0.444c0.864,0,1.672,0.148,2.424,0.444c0.752,0.297,1.404,0.708,1.956,1.236
        c0.552,0.527,0.984,1.156,1.296,1.884C116.479,17.285,116.635,18.089,116.635,18.969z M114.283,18.98
        c0-0.542-0.084-1.061-0.252-1.556c-0.169-0.494-0.414-0.929-0.734-1.304s-0.718-0.674-1.192-0.897s-1.015-0.335-1.625-0.335
        c-0.61,0-1.152,0.111-1.625,0.335c-0.474,0.224-0.871,0.522-1.191,0.897c-0.321,0.375-0.566,0.81-0.734,1.304
        c-0.169,0.495-0.253,1.014-0.253,1.556c0,0.543,0.084,1.062,0.253,1.556c0.168,0.495,0.413,0.934,0.734,1.316
        c0.321,0.383,0.718,0.686,1.191,0.909c0.473,0.224,1.015,0.335,1.625,0.335c0.61,0,1.151-0.111,1.625-0.335
        s0.871-0.526,1.192-0.909s0.565-0.821,0.734-1.316C114.199,20.042,114.283,19.523,114.283,18.98z"/>
    <path fill="#666666" d="M119.251,14.577c-0.016-0.48-0.04-0.904-0.072-1.272h2.136c0.032,0.288,0.056,0.62,0.072,0.996
        c0.016,0.376,0.024,0.684,0.024,0.924h0.072c0.32-0.672,0.788-1.212,1.404-1.62c0.616-0.408,1.308-0.612,2.076-0.612
        c0.352,0,0.648,0.033,0.888,0.097l-0.096,2.088c-0.32-0.08-0.664-0.12-1.032-0.12c-0.544,0-1.016,0.101-1.416,0.3
        c-0.4,0.2-0.732,0.468-0.996,0.805c-0.264,0.336-0.46,0.724-0.588,1.163c-0.128,0.44-0.192,0.9-0.192,1.381v5.976h-2.256v-8.928
        C119.275,15.449,119.267,15.056,119.251,14.577z"/>
    <path fill="#666666" d="M128.419,26.625c0.496,0.56,1.116,1.008,1.86,1.344c0.744,0.336,1.508,0.504,2.292,0.504
        c0.752,0,1.384-0.108,1.896-0.324s0.924-0.512,1.236-0.888s0.536-0.82,0.672-1.332c0.136-0.513,0.204-1.064,0.204-1.656v-1.464
        h-0.048c-0.416,0.641-0.984,1.128-1.704,1.464c-0.72,0.336-1.488,0.504-2.304,0.504c-0.864,0-1.652-0.151-2.364-0.456
        c-0.712-0.304-1.316-0.72-1.812-1.248c-0.496-0.527-0.88-1.147-1.152-1.859s-0.408-1.477-0.408-2.292
        c0-0.816,0.136-1.584,0.408-2.305c0.272-0.72,0.656-1.348,1.152-1.884c0.496-0.535,1.096-0.96,1.8-1.271
        c0.704-0.312,1.488-0.469,2.352-0.469c0.816,0,1.596,0.177,2.34,0.528c0.744,0.353,1.332,0.888,1.764,1.608h0.048v-1.824h2.184
        v10.8c0,0.832-0.104,1.628-0.312,2.388c-0.208,0.76-0.56,1.433-1.056,2.017s-1.144,1.052-1.944,1.404
        c-0.8,0.352-1.792,0.527-2.976,0.527c-0.992,0-1.988-0.18-2.988-0.54c-1-0.359-1.86-0.868-2.58-1.523L128.419,26.625z
         M129.091,18.873c0,0.527,0.084,1.031,0.253,1.512c0.168,0.479,0.417,0.904,0.746,1.271c0.329,0.369,0.726,0.664,1.192,0.889
        c0.465,0.224,0.995,0.336,1.589,0.336c0.577,0,1.107-0.104,1.589-0.312c0.481-0.207,0.891-0.491,1.228-0.852
        s0.598-0.784,0.782-1.272c0.185-0.487,0.277-1.012,0.277-1.571c0-0.544-0.093-1.057-0.277-1.536
        c-0.185-0.48-0.449-0.904-0.794-1.272c-0.345-0.367-0.755-0.66-1.228-0.876c-0.474-0.216-1-0.324-1.577-0.324
        c-0.594,0-1.124,0.108-1.589,0.324c-0.466,0.216-0.863,0.504-1.192,0.864s-0.578,0.784-0.746,1.271
        C129.175,17.812,129.091,18.329,129.091,18.873z"/>
</g>
<g><a xlink:href="/" pointer-events="all" target="_top"><polygon fill="none" points="0,0 145,0 145,35 0,35 0,0"/></a></g>

</g>


<!-- Array -->
<g id="node1" class="node">
<g id="a_node1"><a xlink:href="/v1.2/type/Array/hierarchy/" target="_top">
<polygon fill="#999999" stroke="#999999" points="2262,-22 2208,-22 2208,-0 2262,-0 2262,-22"/>
<text text-anchor="middle" x="2235" y="-7.4" font-family="Helvetica,sans-Serif" font-size="12.00" fill="white">Array</text>
</a>
</g>
</g>
<!-- ArraySlice -->
<g id="node2" class="node">
<g id="a_node2"><a xlink:href="/v1.2/type/ArraySlice/hierarchy/" target="_top">
<polygon fill="#999999" stroke="#999999" points="2344.01,-22 2279.99,-22 2279.99,-0 2344.01,-0 2344.01,-22"/>
<text text-anchor="middle" x="2312" y="-7.4" font-family="Helvetica,sans-Serif" font-size="12.00" fill="white">ArraySlice</text>
</a>
</g>
</g>
<!-- BidirectionalReverseView -->
<g id="node3" class="node">
<g id="a_node3"><a xlink:href="/v1.2/type/BidirectionalReverseView/hierarchy/" target="_top">
<polygon fill="#999999" stroke="#999999" points="2871.39,-22 2726.61,-22 2726.61,-0 2871.39,-0 2871.39,-22"/>
<text text-anchor="middle" x="2799" y="-7.4" font-family="Helvetica,sans-Serif" font-size="12.00" fill="white">BidirectionalReverseView</text>
</a>
</g>
</g>
<!-- CollectionOfOne -->
<g id="node4" class="node">
<g id="a_node4"><a xlink:href="/v1.2/type/CollectionOfOne/hierarchy/" target="_top">
<polygon fill="#999999" stroke="#999999" points="98.0322,-22 -0.0322313,-22 -0.0322313,-0 98.0322,-0 98.0322,-22"/>
<text text-anchor="middle" x="49" y="-7.4" font-family="Helvetica,sans-Serif" font-size="12.00" fill="white">CollectionOfOne</text>
</a>
</g>
</g>
<!-- CollectionType -->
<g id="node5" class="node">
<g id="a_node5"><a xlink:href="/v1.2/protocol/CollectionType/hierarchy/" target="_top">
<path fill="#999999" stroke="#999999" d="M1469.7,-312C1469.7,-312 1396.3,-312 1396.3,-312 1392.63,-312 1388.96,-308.333 1388.96,-304.667 1388.96,-304.667 1388.96,-297.333 1388.96,-297.333 1388.96,-293.667 1392.63,-290 1396.3,-290 1396.3,-290 1469.7,-290 1469.7,-290 1473.37,-290 1477.04,-293.667 1477.04,-297.333 1477.04,-297.333 1477.04,-304.667 1477.04,-304.667 1477.04,-308.333 1473.37,-312 1469.7,-312"/>
<text text-anchor="middle" x="1433" y="-297.4" font-family="Helvetica,sans-Serif" font-size="12.00" fill="white">CollectionType</text>
</a>
</g>
</g>
<!-- CollectionType&#45;&gt;BidirectionalReverseView -->
<g id="edge3" class="edge">
<path fill="none" stroke="#cccccc" d="M1477.33,-299.317C1659.81,-295.981 2352.76,-278.054 2553,-196 2651.14,-155.785 2745.24,-67.0233 2782.37,-29.4003"/>
<polygon fill="#cccccc" stroke="#cccccc" points="2784.93,-31.7867 2789.41,-22.184 2779.92,-26.8993 2784.93,-31.7867"/>
</g>
<!-- CollectionType&#45;&gt;CollectionOfOne -->
<g id="edge4" class="edge">
<path fill="none" stroke="#cccccc" d="M1388.8,-299.657C1178.69,-297.855 286.242,-288.231 167,-254 108.82,-237.298 49,-246.529 49,-186 49,-186 49,-186 49,-126 49,-93.1536 49,-54.9837 49,-32.197"/>
<polygon fill="#cccccc" stroke="#cccccc" points="52.5001,-32.0648 49,-22.0648 45.5001,-32.0648 52.5001,-32.0648"/>
</g>
<!-- Dictionary -->
<g id="node7" class="node">
<g id="a_node7"><a xlink:href="/v1.2/type/Dictionary/hierarchy/" target="_top">
<polygon fill="#999999" stroke="#999999" points="179.511,-22 116.489,-22 116.489,-0 179.511,-0 179.511,-22"/>
<text text-anchor="middle" x="148" y="-7.4" font-family="Helvetica,sans-Serif" font-size="12.00" fill="white">Dictionary</text>
</a>
</g>
</g>
<!-- CollectionType&#45;&gt;Dictionary -->
<g id="edge5" class="edge">
<path fill="none" stroke="#cccccc" d="M1388.94,-300.337C1207.48,-301.398 517.594,-302.118 306,-254 231.454,-237.047 148,-262.45 148,-186 148,-186 148,-186 148,-126 148,-93.1536 148,-54.9837 148,-32.197"/>
<polygon fill="#cccccc" stroke="#cccccc" points="151.5,-32.0648 148,-22.0648 144.5,-32.0648 151.5,-32.0648"/>
</g>
<!-- EmptyCollection -->
<g id="node8" class="node">
<g id="a_node8"><a xlink:href="/v1.2/type/EmptyCollection/hierarchy/" target="_top">
<polygon fill="#999999" stroke="#999999" points="294.027,-22 197.973,-22 197.973,-0 294.027,-0 294.027,-22"/>
<text text-anchor="middle" x="246" y="-7.4" font-family="Helvetica,sans-Serif" font-size="12.00" fill="white">EmptyCollection</text>
</a>
</g>
</g>
<!-- CollectionType&#45;&gt;EmptyCollection -->
<g id="edge6" class="edge">
<path fill="none" stroke="#cccccc" d="M1388.63,-300.483C1173.15,-302.26 246,-303.098 246,-186 246,-186 246,-186 246,-126 246,-93.1536 246,-54.9837 246,-32.197"/>
<polygon fill="#cccccc" stroke="#cccccc" points="249.5,-32.0648 246,-22.0648 242.5,-32.0648 249.5,-32.0648"/>
</g>
<!-- FilterCollectionView -->
<g id="node10" class="node">
<g id="a_node10"><a xlink:href="/v1.2/type/FilterCollectionView/hierarchy/" target="_top">
<polygon fill="#999999" stroke="#999999" points="427.368,-22 312.632,-22 312.632,-0 427.368,-0 427.368,-22"/>
<text text-anchor="middle" x="370" y="-7.4" font-family="Helvetica,sans-Serif" font-size="12.00" fill="white">FilterCollectionView</text>
</a>
</g>
</g>
<!-- CollectionType&#45;&gt;FilterCollectionView -->
<g id="edge7" class="edge">
<path fill="none" stroke="#cccccc" d="M1388.68,-299.978C1187.5,-299.307 370,-290.172 370,-186 370,-186 370,-186 370,-126 370,-93.1536 370,-54.9837 370,-32.197"/>
<polygon fill="#cccccc" stroke="#cccccc" points="373.5,-32.0648 370,-22.0648 366.5,-32.0648 373.5,-32.0648"/>
</g>
<!-- LazyBidirectionalCollection -->
<g id="node11" class="node">
<g id="a_node11"><a xlink:href="/v1.2/type/LazyBidirectionalCollection/hierarchy/" target="_top">
<polygon fill="#999999" stroke="#999999" points="598.556,-22 445.444,-22 445.444,-0 598.556,-0 598.556,-22"/>
<text text-anchor="middle" x="522" y="-7.4" font-family="Helvetica,sans-Serif" font-size="12.00" fill="white">LazyBidirectionalCollection</text>
</a>
</g>
</g>
<!-- CollectionType&#45;&gt;LazyBidirectionalCollection -->
<g id="edge8" class="edge">
<path fill="none" stroke="#cccccc" d="M1388.59,-298.982C1250.78,-295.547 831.702,-282.936 699,-254 616.662,-236.046 522,-270.272 522,-186 522,-186 522,-186 522,-126 522,-93.1536 522,-54.9837 522,-32.197"/>
<polygon fill="#cccccc" stroke="#cccccc" points="525.5,-32.0648 522,-22.0648 518.5,-32.0648 525.5,-32.0648"/>
</g>
<!-- LazyForwardCollection -->
<g id="node12" class="node">
<g id="a_node12"><a xlink:href="/v1.2/type/LazyForwardCollection/hierarchy/" target="_top">
<polygon fill="#999999" stroke="#999999" points="749.038,-22 616.962,-22 616.962,-0 749.038,-0 749.038,-22"/>
<text text-anchor="middle" x="683" y="-7.4" font-family="Helvetica,sans-Serif" font-size="12.00" fill="white">LazyForwardCollection</text>
</a>
</g>
</g>
<!-- CollectionType&#45;&gt;LazyForwardCollection -->
<g id="edge9" class="edge">
<path fill="none" stroke="#cccccc" d="M1388.73,-300.038C1294.23,-299.309 1066.18,-293.232 880,-254 789.366,-234.901 683,-278.625 683,-186 683,-186 683,-186 683,-126 683,-93.1536 683,-54.9837 683,-32.197"/>
<polygon fill="#cccccc" stroke="#cccccc" points="686.5,-32.0648 683,-22.0648 679.5,-32.0648 686.5,-32.0648"/>
</g>
<!-- LazyRandomAccessCollection -->
<g id="node13" class="node">
<g id="a_node13"><a xlink:href="/v1.2/type/LazyRandomAccessCollection/hierarchy/" target="_top">
<polygon fill="#999999" stroke="#999999" points="939.057,-22 766.943,-22 766.943,-0 939.057,-0 939.057,-22"/>
<text text-anchor="middle" x="853" y="-7.4" font-family="Helvetica,sans-Serif" font-size="12.00" fill="white">LazyRandomAccessCollection</text>
</a>
</g>
</g>
<!-- CollectionType&#45;&gt;LazyRandomAccessCollection -->
<g id="edge10" class="edge">
<path fill="none" stroke="#cccccc" d="M1388.93,-300.685C1253.58,-301.62 853,-295.163 853,-186 853,-186 853,-186 853,-126 853,-93.1536 853,-54.9837 853,-32.197"/>
<polygon fill="#cccccc" stroke="#cccccc" points="856.5,-32.0648 853,-22.0648 849.5,-32.0648 856.5,-32.0648"/>
</g>
<!-- MapCollectionView -->
<g id="node14" class="node">
<g id="a_node14"><a xlink:href="/v1.2/type/MapCollectionView/hierarchy/" target="_top">
<polygon fill="#999999" stroke="#999999" points="1068.38,-22 957.622,-22 957.622,-0 1068.38,-0 1068.38,-22"/>
<text text-anchor="middle" x="1013" y="-7.4" font-family="Helvetica,sans-Serif" font-size="12.00" fill="white">MapCollectionView</text>
</a>
</g>
</g>
<!-- CollectionType&#45;&gt;MapCollectionView -->
<g id="edge11" class="edge">
<path fill="none" stroke="#cccccc" d="M1388.85,-297.395C1281.01,-289.829 1013,-263.255 1013,-186 1013,-186 1013,-186 1013,-126 1013,-93.1536 1013,-54.9837 1013,-32.197"/>
<polygon fill="#cccccc" stroke="#cccccc" points="1016.5,-32.0648 1013,-22.0648 1009.5,-32.0648 1016.5,-32.0648"/>
</g>
<!-- MutableCollectionType -->
<g id="node15" class="node">
<g id="a_node15"><a xlink:href="/v1.2/protocol/MutableCollectionType/hierarchy/" target="_top">
<path fill="#999999" stroke="#999999" d="M1356.22,-196C1356.22,-196 1239.78,-196 1239.78,-196 1236.11,-196 1232.45,-192.333 1232.45,-188.667 1232.45,-188.667 1232.45,-181.333 1232.45,-181.333 1232.45,-177.667 1236.11,-174 1239.78,-174 1239.78,-174 1356.22,-174 1356.22,-174 1359.89,-174 1363.55,-177.667 1363.55,-181.333 1363.55,-181.333 1363.55,-188.667 1363.55,-188.667 1363.55,-192.333 1359.89,-196 1356.22,-196"/>
<text text-anchor="middle" x="1298" y="-181.4" font-family="Helvetica,sans-Serif" font-size="12.00" fill="white">MutableCollectionType</text>
</a>
</g>
</g>
<!-- CollectionType&#45;&gt;MutableCollectionType -->
<g id="edge12" class="edge">
<path fill="none" stroke="#cccccc" d="M1420.74,-289.797C1409.58,-280.493 1392.66,-266.357 1378,-254 1357.35,-236.59 1333.8,-216.553 1317.63,-202.763"/>
<polygon fill="#cccccc" stroke="#cccccc" points="1319.78,-199.995 1309.9,-196.168 1315.24,-205.321 1319.78,-199.995"/>
</g>
<!-- RandomAccessReverseView -->
<g id="node17" class="node">
<g id="a_node17"><a xlink:href="/v1.2/type/RandomAccessReverseView/hierarchy/" target="_top">
<polygon fill="#999999" stroke="#999999" points="1429.89,-22 1266.11,-22 1266.11,-0 1429.89,-0 1429.89,-22"/>
<text text-anchor="middle" x="1348" y="-7.4" font-family="Helvetica,sans-Serif" font-size="12.00" fill="white">RandomAccessReverseView</text>
</a>
</g>
</g>
<!-- CollectionType&#45;&gt;RandomAccessReverseView -->
<g id="edge13" class="edge">
<path fill="none" stroke="#cccccc" d="M1426.59,-289.759C1415.06,-270.316 1392,-226.383 1392,-186 1392,-186 1392,-186 1392,-126 1392,-90.5184 1373.22,-52.7402 1360.2,-30.8107"/>
<polygon fill="#cccccc" stroke="#cccccc" points="1363.1,-28.8513 1354.88,-22.1752 1357.14,-32.5245 1363.1,-28.8513"/>
</g>
<!-- Range -->
<g id="node18" class="node">
<g id="a_node18"><a xlink:href="/v1.2/type/Range/hierarchy/" target="_top">
<polygon fill="#999999" stroke="#999999" points="1502,-22 1448,-22 1448,-0 1502,-0 1502,-22"/>
<text text-anchor="middle" x="1475" y="-7.4" font-family="Helvetica,sans-Serif" font-size="12.00" fill="white">Range</text>
</a>
</g>
</g>
<!-- CollectionType&#45;&gt;Range -->
<g id="edge14" class="edge">
<path fill="none" stroke="#cccccc" d="M1439.56,-289.781C1451.38,-270.373 1475,-226.497 1475,-186 1475,-186 1475,-186 1475,-126 1475,-93.1536 1475,-54.9837 1475,-32.197"/>
<polygon fill="#cccccc" stroke="#cccccc" points="1478.5,-32.0648 1475,-22.0648 1471.5,-32.0648 1478.5,-32.0648"/>
</g>
<!-- Repeat -->
<g id="node20" class="node">
<g id="a_node20"><a xlink:href="/v1.2/type/Repeat/hierarchy/" target="_top">
<polygon fill="#999999" stroke="#999999" points="1574,-22 1520,-22 1520,-0 1574,-0 1574,-22"/>
<text text-anchor="middle" x="1547" y="-7.4" font-family="Helvetica,sans-Serif" font-size="12.00" fill="white">Repeat</text>
</a>
</g>
</g>
<!-- CollectionType&#45;&gt;Repeat -->
<g id="edge15" class="edge">
<path fill="none" stroke="#cccccc" d="M1455.52,-289.972C1488.75,-273.466 1547,-237.221 1547,-186 1547,-186 1547,-186 1547,-126 1547,-93.1536 1547,-54.9837 1547,-32.197"/>
<polygon fill="#cccccc" stroke="#cccccc" points="1550.5,-32.0648 1547,-22.0648 1543.5,-32.0648 1550.5,-32.0648"/>
</g>
<!-- Set -->
<g id="node21" class="node">
<g id="a_node21"><a xlink:href="/v1.2/type/Set/hierarchy/" target="_top">
<polygon fill="#999999" stroke="#999999" points="1646,-22 1592,-22 1592,-0 1646,-0 1646,-22"/>
<text text-anchor="middle" x="1619" y="-7.4" font-family="Helvetica,sans-Serif" font-size="12.00" fill="white">Set</text>
</a>
</g>
</g>
<!-- CollectionType&#45;&gt;Set -->
<g id="edge16" class="edge">
<path fill="none" stroke="#cccccc" d="M1477.08,-292.89C1532.08,-281.215 1619,-252.28 1619,-186 1619,-186 1619,-186 1619,-126 1619,-93.1536 1619,-54.9837 1619,-32.197"/>
<polygon fill="#cccccc" stroke="#cccccc" points="1622.5,-32.0648 1619,-22.0648 1615.5,-32.0648 1622.5,-32.0648"/>
</g>
<!-- String.UTF8View -->
<g id="node25" class="node">
<g id="a_node25"><a xlink:href="/v1.2/type/String.UTF8View/hierarchy/" target="_top">
<polygon fill="#999999" stroke="#999999" points="1764.36,-22 1663.64,-22 1663.64,-0 1764.36,-0 1764.36,-22"/>
<text text-anchor="middle" x="1714" y="-7.4" font-family="Helvetica,sans-Serif" font-size="12.00" fill="white">String.UTF8View</text>
</a>
</g>
</g>
<!-- CollectionType&#45;&gt;String.UTF8View -->
<g id="edge21" class="edge">
<path fill="none" stroke="#cccccc" d="M1477.22,-291.6C1556.35,-275.294 1714,-236.475 1714,-186 1714,-186 1714,-186 1714,-126 1714,-93.1536 1714,-54.9837 1714,-32.197"/>
<polygon fill="#cccccc" stroke="#cccccc" points="1717.5,-32.0648 1714,-22.0648 1710.5,-32.0648 1717.5,-32.0648"/>
</g>
<!-- UnicodeScalar.UTF16View -->
<g id="node27" class="node">
<g id="a_node27"><a xlink:href="/v1.2/type/UnicodeScalar.UTF16View/hierarchy/" target="_top">
<polygon fill="#999999" stroke="#999999" points="1935.39,-22 1782.61,-22 1782.61,-0 1935.39,-0 1935.39,-22"/>
<text text-anchor="middle" x="1859" y="-7.4" font-family="Helvetica,sans-Serif" font-size="12.00" fill="white">UnicodeScalar.UTF16View</text>
</a>
</g>
</g>
<!-- CollectionType&#45;&gt;UnicodeScalar.UTF16View -->
<g id="edge17" class="edge">
<path fill="none" stroke="#cccccc" d="M1477.39,-296.366C1579.05,-286.823 1820,-256.742 1820,-186 1820,-186 1820,-186 1820,-126 1820,-91.1719 1836.5,-53.4246 1848.03,-31.2879"/>
<polygon fill="#cccccc" stroke="#cccccc" points="1851.22,-32.7427 1852.91,-22.2821 1845.07,-29.411 1851.22,-32.7427"/>
</g>
<!-- UnsafeBufferPointer -->
<g id="node28" class="node">
<g id="a_node28"><a xlink:href="/v1.2/type/UnsafeBufferPointer/hierarchy/" target="_top">
<polygon fill="#999999" stroke="#999999" points="2071.39,-22 1954.61,-22 1954.61,-0 2071.39,-0 2071.39,-22"/>
<text text-anchor="middle" x="2013" y="-7.4" font-family="Helvetica,sans-Serif" font-size="12.00" fill="white">UnsafeBufferPointer</text>
</a>
</g>
</g>
<!-- CollectionType&#45;&gt;UnsafeBufferPointer -->
<g id="edge18" class="edge">
<path fill="none" stroke="#cccccc" d="M1477.12,-300.915C1542.99,-300.767 1669.79,-294.57 1768,-254 1814.34,-234.858 1858,-236.134 1858,-186 1858,-186 1858,-186 1858,-126 1858,-72.3167 1919.08,-41.1082 1964.56,-25.3128"/>
<polygon fill="#cccccc" stroke="#cccccc" points="1965.9,-28.5556 1974.29,-22.082 1963.69,-21.9124 1965.9,-28.5556"/>
</g>
<!-- _ExtensibleCollectionType -->
<g id="node33" class="node">
<g id="a_node33"><a xlink:href="/v1.2/protocol/_ExtensibleCollectionType/hierarchy/" target="_top">
<path fill="#999999" stroke="#999999" d="M2028.73,-254C2028.73,-254 1893.27,-254 1893.27,-254 1889.6,-254 1885.93,-250.333 1885.93,-246.667 1885.93,-246.667 1885.93,-239.333 1885.93,-239.333 1885.93,-235.667 1889.6,-232 1893.27,-232 1893.27,-232 2028.73,-232 2028.73,-232 2032.4,-232 2036.07,-235.667 2036.07,-239.333 2036.07,-239.333 2036.07,-246.667 2036.07,-246.667 2036.07,-250.333 2032.4,-254 2028.73,-254"/>
<text text-anchor="middle" x="1961" y="-239.4" font-family="Helvetica,sans-Serif" font-size="12.00" fill="white">_ExtensibleCollectionType</text>
</a>
</g>
</g>
<!-- CollectionType&#45;&gt;_ExtensibleCollectionType -->
<g id="edge19" class="edge">
<path fill="none" stroke="#cccccc" d="M1477.25,-295.474C1556.45,-287.349 1727.63,-269.674 1872,-254 1873.12,-253.878 1874.25,-253.756 1875.38,-253.632"/>
<polygon fill="#cccccc" stroke="#cccccc" points="1876.18,-257.065 1885.74,-252.496 1875.42,-250.107 1876.18,-257.065"/>
</g>
<!-- _Sliceable -->
<g id="node35" class="node">
<g id="a_node35"><a xlink:href="/v1.2/protocol/_Sliceable/hierarchy/" target="_top">
<path fill="#999999" stroke="#999999" d="M2112.19,-254C2112.19,-254 2061.81,-254 2061.81,-254 2058.14,-254 2054.47,-250.333 2054.47,-246.667 2054.47,-246.667 2054.47,-239.333 2054.47,-239.333 2054.47,-235.667 2058.14,-232 2061.81,-232 2061.81,-232 2112.19,-232 2112.19,-232 2115.86,-232 2119.53,-235.667 2119.53,-239.333 2119.53,-239.333 2119.53,-246.667 2119.53,-246.667 2119.53,-250.333 2115.86,-254 2112.19,-254"/>
<text text-anchor="middle" x="2087" y="-239.4" font-family="Helvetica,sans-Serif" font-size="12.00" fill="white">_Sliceable</text>
</a>
</g>
</g>
<!-- CollectionType&#45;&gt;_Sliceable -->
<g id="edge20" class="edge">
<path fill="none" stroke="#cccccc" d="M1477.06,-299.083C1576.54,-296.5 1826.2,-287.14 2044.5,-253.819"/>
<polygon fill="#cccccc" stroke="#cccccc" points="2045.19,-257.254 2054.54,-252.266 2044.12,-250.336 2045.19,-257.254"/>
</g>
<!-- ContiguousArray -->
<g id="node6" class="node">
<g id="a_node6"><a xlink:href="/v1.2/type/ContiguousArray/hierarchy/" target="_top">
<polygon fill="#999999" stroke="#999999" points="2189.53,-22 2090.47,-22 2090.47,-0 2189.53,-0 2189.53,-22"/>
<text text-anchor="middle" x="2140" y="-7.4" font-family="Helvetica,sans-Serif" font-size="12.00" fill="white">ContiguousArray</text>
</a>
</g>
</g>
<!-- ExtensibleCollectionType -->
<g id="node9" class="node">
<g id="a_node9"><a xlink:href="/v1.2/protocol/ExtensibleCollectionType/hierarchy/" target="_top">
<path fill="#999999" stroke="#999999" d="M2087.73,-196C2087.73,-196 1958.27,-196 1958.27,-196 1954.61,-196 1950.94,-192.333 1950.94,-188.667 1950.94,-188.667 1950.94,-181.333 1950.94,-181.333 1950.94,-177.667 1954.61,-174 1958.27,-174 1958.27,-174 2087.73,-174 2087.73,-174 2091.39,-174 2095.06,-177.667 2095.06,-181.333 2095.06,-181.333 2095.06,-188.667 2095.06,-188.667 2095.06,-192.333 2091.39,-196 2087.73,-196"/>
<text text-anchor="middle" x="2023" y="-181.4" font-family="Helvetica,sans-Serif" font-size="12.00" fill="white">ExtensibleCollectionType</text>
</a>
</g>
</g>
<!-- RangeReplaceableCollectionType -->
<g id="node19" class="node">
<g id="a_node19"><a xlink:href="/v1.2/protocol/RangeReplaceableCollectionType/hierarchy/" target="_top">
<path fill="#999999" stroke="#999999" d="M2479.76,-138C2479.76,-138 2304.24,-138 2304.24,-138 2300.57,-138 2296.91,-134.333 2296.91,-130.667 2296.91,-130.667 2296.91,-123.333 2296.91,-123.333 2296.91,-119.667 2300.57,-116 2304.24,-116 2304.24,-116 2479.76,-116 2479.76,-116 2483.43,-116 2487.09,-119.667 2487.09,-123.333 2487.09,-123.333 2487.09,-130.667 2487.09,-130.667 2487.09,-134.333 2483.43,-138 2479.76,-138"/>
<text text-anchor="middle" x="2392" y="-123.4" font-family="Helvetica,sans-Serif" font-size="12.00" fill="white">RangeReplaceableCollectionType</text>
</a>
</g>
</g>
<!-- ExtensibleCollectionType&#45;&gt;RangeReplaceableCollectionType -->
<g id="edge30" class="edge">
<path fill="none" stroke="#cccccc" d="M2088.97,-173.988C2152.66,-164.323 2249.02,-149.698 2315.92,-139.546"/>
<polygon fill="#cccccc" stroke="#cccccc" points="2316.62,-142.98 2325.98,-138.019 2315.57,-136.059 2316.62,-142.98"/>
</g>
<!-- MutableSliceable -->
<g id="node16" class="node">
<g id="a_node16"><a xlink:href="/v1.2/protocol/MutableSliceable/hierarchy/" target="_top">
<path fill="#999999" stroke="#999999" d="M2271.21,-138C2271.21,-138 2184.79,-138 2184.79,-138 2181.13,-138 2177.46,-134.333 2177.46,-130.667 2177.46,-130.667 2177.46,-123.333 2177.46,-123.333 2177.46,-119.667 2181.13,-116 2184.79,-116 2184.79,-116 2271.21,-116 2271.21,-116 2274.87,-116 2278.54,-119.667 2278.54,-123.333 2278.54,-123.333 2278.54,-130.667 2278.54,-130.667 2278.54,-134.333 2274.87,-138 2271.21,-138"/>
<text text-anchor="middle" x="2228" y="-123.4" font-family="Helvetica,sans-Serif" font-size="12.00" fill="white">MutableSliceable</text>
</a>
</g>
</g>
<!-- MutableCollectionType&#45;&gt;MutableSliceable -->
<g id="edge22" class="edge">
<path fill="none" stroke="#cccccc" d="M1363.4,-180.062C1535.81,-169.68 2000.94,-141.672 2167.58,-131.638"/>
<polygon fill="#cccccc" stroke="#cccccc" points="2167.87,-135.127 2177.65,-131.032 2167.45,-128.14 2167.87,-135.127"/>
</g>
<!-- UnsafeMutableBufferPointer -->
<g id="node29" class="node">
<g id="a_node29"><a xlink:href="/v1.2/type/UnsafeMutableBufferPointer/hierarchy/" target="_top">
<polygon fill="#999999" stroke="#999999" points="1246.91,-22 1087.09,-22 1087.09,-0 1246.91,-0 1246.91,-22"/>
<text text-anchor="middle" x="1167" y="-7.4" font-family="Helvetica,sans-Serif" font-size="12.00" fill="white">UnsafeMutableBufferPointer</text>
</a>
</g>
</g>
<!-- MutableCollectionType&#45;&gt;UnsafeMutableBufferPointer -->
<g id="edge23" class="edge">
<path fill="none" stroke="#cccccc" d="M1280.93,-173.913C1267.76,-165.518 1249.71,-152.611 1237,-138 1208.13,-104.811 1185.9,-57.7933 1174.81,-31.5859"/>
<polygon fill="#cccccc" stroke="#cccccc" points="1177.92,-29.94 1170.87,-22.0292 1171.44,-32.6083 1177.92,-29.94"/>
</g>
<!-- _ArrayBufferType -->
<g id="node30" class="node">
<g id="a_node30"><a xlink:href="/v1.2/protocol/_ArrayBufferType/hierarchy/" target="_top">
<path fill="#999999" stroke="#999999" d="M1342.04,-138C1342.04,-138 1253.96,-138 1253.96,-138 1250.29,-138 1246.62,-134.333 1246.62,-130.667 1246.62,-130.667 1246.62,-123.333 1246.62,-123.333 1246.62,-119.667 1250.29,-116 1253.96,-116 1253.96,-116 1342.04,-116 1342.04,-116 1345.71,-116 1349.38,-119.667 1349.38,-123.333 1349.38,-123.333 1349.38,-130.667 1349.38,-130.667 1349.38,-134.333 1345.71,-138 1342.04,-138"/>
<text text-anchor="middle" x="1298" y="-123.4" font-family="Helvetica,sans-Serif" font-size="12.00" fill="white">_ArrayBufferType</text>
</a>
</g>
</g>
<!-- MutableCollectionType&#45;&gt;_ArrayBufferType -->
<g id="edge24" class="edge">
<path fill="none" stroke="#cccccc" d="M1298,-173.988C1298,-166.91 1298,-157.171 1298,-148.478"/>
<polygon fill="#cccccc" stroke="#cccccc" points="1301.5,-148.304 1298,-138.304 1294.5,-148.304 1301.5,-148.304"/>
</g>
<!-- _ArrayType -->
<g id="node31" class="node">
<g id="a_node31"><a xlink:href="/v1.2/protocol/_ArrayType/hierarchy/" target="_top">
<path fill="#999999" stroke="#999999" d="M2261.19,-80C2261.19,-80 2204.81,-80 2204.81,-80 2201.14,-80 2197.48,-76.3333 2197.48,-72.6667 2197.48,-72.6667 2197.48,-65.3333 2197.48,-65.3333 2197.48,-61.6667 2201.14,-58 2204.81,-58 2204.81,-58 2261.19,-58 2261.19,-58 2264.86,-58 2268.52,-61.6667 2268.52,-65.3333 2268.52,-65.3333 2268.52,-72.6667 2268.52,-72.6667 2268.52,-76.3333 2264.86,-80 2261.19,-80"/>
<text text-anchor="middle" x="2233" y="-65.4" font-family="Helvetica,sans-Serif" font-size="12.00" fill="white">_ArrayType</text>
</a>
</g>
</g>
<!-- MutableSliceable&#45;&gt;_ArrayType -->
<g id="edge25" class="edge">
<path fill="none" stroke="#cccccc" d="M2228.89,-115.988C2229.53,-108.91 2230.4,-99.1714 2231.17,-90.4779"/>
<polygon fill="#cccccc" stroke="#cccccc" points="2234.68,-90.5755 2232.08,-80.3039 2227.7,-89.953 2234.68,-90.5755"/>
</g>
<!-- String -->
<g id="node23" class="node">
<g id="a_node23"><a xlink:href="/v1.2/type/String/hierarchy/" target="_top">
<polygon fill="#999999" stroke="#999999" points="2416,-22 2362,-22 2362,-0 2416,-0 2416,-22"/>
<text text-anchor="middle" x="2389" y="-7.4" font-family="Helvetica,sans-Serif" font-size="12.00" fill="white">String</text>
</a>
</g>
</g>
<!-- RangeReplaceableCollectionType&#45;&gt;String -->
<g id="edge31" class="edge">
<path fill="none" stroke="#cccccc" d="M2391.73,-115.883C2391.24,-97.1703 2390.18,-56.8266 2389.53,-32.2866"/>
<polygon fill="#cccccc" stroke="#cccccc" points="2393.03,-32.1624 2389.27,-22.2579 2386.03,-32.3466 2393.03,-32.1624"/>
</g>
<!-- String.UnicodeScalarView -->
<g id="node26" class="node">
<g id="a_node26"><a xlink:href="/v1.2/type/String.UnicodeScalarView/hierarchy/" target="_top">
<polygon fill="#999999" stroke="#999999" points="2581.89,-22 2434.11,-22 2434.11,-0 2581.89,-0 2581.89,-22"/>
<text text-anchor="middle" x="2508" y="-7.4" font-family="Helvetica,sans-Serif" font-size="12.00" fill="white">String.UnicodeScalarView</text>
</a>
</g>
</g>
<!-- RangeReplaceableCollectionType&#45;&gt;String.UnicodeScalarView -->
<g id="edge33" class="edge">
<path fill="none" stroke="#cccccc" d="M2402.29,-115.883C2422.11,-96.4116 2465.75,-53.52 2490.31,-29.3824"/>
<polygon fill="#cccccc" stroke="#cccccc" points="2492.88,-31.7636 2497.56,-22.2579 2487.98,-26.771 2492.88,-31.7636"/>
</g>
<!-- RangeReplaceableCollectionType&#45;&gt;_ArrayType -->
<g id="edge32" class="edge">
<path fill="none" stroke="#cccccc" d="M2363.57,-115.988C2337.77,-106.898 2299.5,-93.4223 2271.06,-83.4053"/>
<polygon fill="#cccccc" stroke="#cccccc" points="2272.04,-80.0401 2261.45,-80.0192 2269.72,-86.6425 2272.04,-80.0401"/>
</g>
<!-- Sliceable -->
<g id="node22" class="node">
<g id="a_node22"><a xlink:href="/v1.2/protocol/Sliceable/hierarchy/" target="_top">
<path fill="#999999" stroke="#999999" d="M2536.69,-196C2536.69,-196 2493.31,-196 2493.31,-196 2489.64,-196 2485.98,-192.333 2485.98,-188.667 2485.98,-188.667 2485.98,-181.333 2485.98,-181.333 2485.98,-177.667 2489.64,-174 2493.31,-174 2493.31,-174 2536.69,-174 2536.69,-174 2540.36,-174 2544.02,-177.667 2544.02,-181.333 2544.02,-181.333 2544.02,-188.667 2544.02,-188.667 2544.02,-192.333 2540.36,-196 2536.69,-196"/>
<text text-anchor="middle" x="2515" y="-181.4" font-family="Helvetica,sans-Serif" font-size="12.00" fill="white">Sliceable</text>
</a>
</g>
</g>
<!-- Sliceable&#45;&gt;MutableSliceable -->
<g id="edge35" class="edge">
<path fill="none" stroke="#cccccc" d="M2485.9,-178.322C2439.8,-169.327 2349,-151.61 2288.39,-139.783"/>
<polygon fill="#cccccc" stroke="#cccccc" points="2289.05,-136.346 2278.56,-137.866 2287.71,-143.216 2289.05,-136.346"/>
</g>
<!-- Sliceable&#45;&gt;String -->
<g id="edge36" class="edge">
<path fill="none" stroke="#cccccc" d="M2513.82,-173.662C2511.87,-159.733 2507.02,-134.548 2496,-116 2474.2,-79.3037 2436.14,-46.763 2411.78,-28.2297"/>
<polygon fill="#cccccc" stroke="#cccccc" points="2413.59,-25.2157 2403.48,-22.0537 2409.41,-30.8315 2413.59,-25.2157"/>
</g>
<!-- String.UTF16View -->
<g id="node24" class="node">
<g id="a_node24"><a xlink:href="/v1.2/type/String.UTF16View/hierarchy/" target="_top">
<polygon fill="#999999" stroke="#999999" points="2707.37,-22 2600.63,-22 2600.63,-0 2707.37,-0 2707.37,-22"/>
<text text-anchor="middle" x="2654" y="-7.4" font-family="Helvetica,sans-Serif" font-size="12.00" fill="white">String.UTF16View</text>
</a>
</g>
</g>
<!-- Sliceable&#45;&gt;String.UTF16View -->
<g id="edge37" class="edge">
<path fill="none" stroke="#cccccc" d="M2522.93,-173.785C2539.7,-152.22 2580.11,-100.535 2615,-58 2622.67,-48.6507 2631.36,-38.3741 2638.58,-29.91"/>
<polygon fill="#cccccc" stroke="#cccccc" points="2641.38,-32.023 2645.23,-22.1517 2636.07,-27.4687 2641.38,-32.023"/>
</g>
<!-- Sliceable&#45;&gt;String.UnicodeScalarView -->
<g id="edge38" class="edge">
<path fill="none" stroke="#cccccc" d="M2519,-173.967C2522.43,-164.779 2527.11,-150.716 2529,-138 2534.23,-102.832 2536.56,-92.7435 2529,-58 2526.98,-48.7299 2522.93,-39.0895 2518.91,-31.0432"/>
<polygon fill="#cccccc" stroke="#cccccc" points="2521.97,-29.3318 2514.18,-22.1511 2515.79,-32.6226 2521.97,-29.3318"/>
</g>
<!-- _ArrayType&#45;&gt;Array -->
<g id="edge26" class="edge">
<path fill="none" stroke="#cccccc" d="M2233.36,-57.9883C2233.61,-50.9098 2233.96,-41.1714 2234.27,-32.4779"/>
<polygon fill="#cccccc" stroke="#cccccc" points="2237.77,-32.4225 2234.63,-22.3039 2230.78,-32.1726 2237.77,-32.4225"/>
</g>
<!-- _ArrayType&#45;&gt;ArraySlice -->
<g id="edge27" class="edge">
<path fill="none" stroke="#cccccc" d="M2247.12,-57.9883C2258.85,-49.6784 2275.74,-37.7028 2289.35,-28.0554"/>
<polygon fill="#cccccc" stroke="#cccccc" points="2291.6,-30.7523 2297.73,-22.1138 2287.55,-25.0415 2291.6,-30.7523"/>
</g>
<!-- _ArrayType&#45;&gt;ContiguousArray -->
<g id="edge28" class="edge">
<path fill="none" stroke="#cccccc" d="M2216.37,-57.9883C2202.31,-49.5201 2181.93,-37.2452 2165.75,-27.5067"/>
<polygon fill="#cccccc" stroke="#cccccc" points="2167.17,-24.274 2156.8,-22.1138 2163.56,-30.2707 2167.17,-24.274"/>
</g>
<!-- _CollectionType -->
<g id="node32" class="node">
<g id="a_node32"><a xlink:href="/v1.2/protocol/_CollectionType/" target="_top">
<path fill="#ee543d" stroke="#ee543d" d="M1523.21,-370C1523.21,-370 1442.79,-370 1442.79,-370 1439.13,-370 1435.46,-366.333 1435.46,-362.667 1435.46,-362.667 1435.46,-355.333 1435.46,-355.333 1435.46,-351.667 1439.13,-348 1442.79,-348 1442.79,-348 1523.21,-348 1523.21,-348 1526.87,-348 1530.54,-351.667 1530.54,-355.333 1530.54,-355.333 1530.54,-362.667 1530.54,-362.667 1530.54,-366.333 1526.87,-370 1523.21,-370"/>
<text text-anchor="middle" x="1483" y="-355.4" font-family="Helvetica,sans-Serif" font-size="12.00" fill="white">_CollectionType</text>
</a>
</g>
</g>
<!-- _CollectionType&#45;&gt;CollectionType -->
<g id="edge1" class="edge">
<path fill="none" stroke="#cccccc" d="M1474.06,-347.988C1467.11,-340.202 1457.28,-329.197 1448.99,-319.905"/>
<polygon fill="#cccccc" stroke="#cccccc" points="1451.47,-317.432 1442.2,-312.304 1446.25,-322.094 1451.47,-317.432"/>
</g>
<!-- __ArrayType -->
<g id="node36" class="node">
<g id="a_node36"><a xlink:href="/v1.2/protocol/__ArrayType/hierarchy/" target="_top">
<path fill="#999999" stroke="#999999" d="M1953.7,-312C1953.7,-312 1890.3,-312 1890.3,-312 1886.64,-312 1882.97,-308.333 1882.97,-304.667 1882.97,-304.667 1882.97,-297.333 1882.97,-297.333 1882.97,-293.667 1886.64,-290 1890.3,-290 1890.3,-290 1953.7,-290 1953.7,-290 1957.36,-290 1961.03,-293.667 1961.03,-297.333 1961.03,-297.333 1961.03,-304.667 1961.03,-304.667 1961.03,-308.333 1957.36,-312 1953.7,-312"/>
<text text-anchor="middle" x="1922" y="-297.4" font-family="Helvetica,sans-Serif" font-size="12.00" fill="white">__ArrayType</text>
</a>
</g>
</g>
<!-- _CollectionType&#45;&gt;__ArrayType -->
<g id="edge2" class="edge">
<path fill="none" stroke="#cccccc" d="M1530.4,-351.954C1614.23,-341.26 1787.83,-319.115 1872.88,-308.266"/>
<polygon fill="#cccccc" stroke="#cccccc" points="1873.32,-311.738 1882.8,-307.001 1872.44,-304.794 1873.32,-311.738"/>
</g>
<!-- _ExtensibleCollectionType&#45;&gt;ExtensibleCollectionType -->
<g id="edge29" class="edge">
<path fill="none" stroke="#cccccc" d="M1972.08,-231.988C1980.97,-223.966 1993.63,-212.527 2004.11,-203.065"/>
<polygon fill="#cccccc" stroke="#cccccc" points="2006.52,-205.604 2011.59,-196.304 2001.83,-200.409 2006.52,-205.604"/>
</g>
<!-- _SequenceType -->
<g id="node34" class="node">
<g id="a_node34"><a xlink:href="/v1.2/protocol/_SequenceType/hierarchy/" target="_top">
<path fill="#999999" stroke="#999999" d="M1523.72,-428C1523.72,-428 1442.28,-428 1442.28,-428 1438.61,-428 1434.94,-424.333 1434.94,-420.667 1434.94,-420.667 1434.94,-413.333 1434.94,-413.333 1434.94,-409.667 1438.61,-406 1442.28,-406 1442.28,-406 1523.72,-406 1523.72,-406 1527.39,-406 1531.06,-409.667 1531.06,-413.333 1531.06,-413.333 1531.06,-420.667 1531.06,-420.667 1531.06,-424.333 1527.39,-428 1523.72,-428"/>
<text text-anchor="middle" x="1483" y="-413.4" font-family="Helvetica,sans-Serif" font-size="12.00" fill="white">_SequenceType</text>
</a>
</g>
</g>
<!-- _SequenceType&#45;&gt;_CollectionType -->
<g id="edge40" class="edge">
<path fill="none" stroke="#cccccc" d="M1483,-405.988C1483,-398.91 1483,-389.171 1483,-380.478"/>
<polygon fill="#cccccc" stroke="#cccccc" points="1486.5,-380.304 1483,-370.304 1479.5,-380.304 1486.5,-380.304"/>
</g>
<!-- _Sliceable&#45;&gt;Sliceable -->
<g id="edge34" class="edge">
<path fill="none" stroke="#cccccc" d="M2119.54,-234.681C2124.38,-233.709 2129.31,-232.781 2134,-232 2258.09,-211.351 2406.38,-196.139 2475.68,-189.576"/>
<polygon fill="#cccccc" stroke="#cccccc" points="2476.09,-193.053 2485.72,-188.634 2475.43,-186.084 2476.09,-193.053"/>
</g>
<!-- __ArrayType&#45;&gt;_ArrayType -->
<g id="edge39" class="edge">
<path fill="none" stroke="#cccccc" d="M1961.1,-296.01C2013.92,-289.847 2104.23,-276.33 2128,-254 2174.54,-210.277 2130.97,-168.027 2168,-116 2177.03,-103.311 2190.7,-92.8817 2203.18,-85.1807"/>
<polygon fill="#cccccc" stroke="#cccccc" points="2205.09,-88.1184 2211.97,-80.062 2201.57,-82.069 2205.09,-88.1184"/>
</g>
</g>
</svg>
