<?xml version="1.0" encoding="UTF-8" standalone="no"?>
<!DOCTYPE svg PUBLIC "-//W3C//DTD SVG 1.1//EN"
 "http://www.w3.org/Graphics/SVG/1.1/DTD/svg11.dtd">
<!-- Generated by graphviz version 2.36.0 (20140111.2315)
 -->
<!-- Title: Comparable &#45; Type Hierarchy &#45; SwiftDoc.org Pages: 1 -->
<svg width="3510pt" height="427pt"
 viewBox="0.00 0.00 3510.40 427.20" xmlns="http://www.w3.org/2000/svg" xmlns:xlink="http://www.w3.org/1999/xlink">
<g id="graph0" class="graph" transform="scale(1 1) rotate(0) translate(7.2 369.6)">
<g transform="translate(0 -369.6)">
<g>
    <path fill="#666666" d="M13.846,10.832c-0.336-0.464-0.792-0.844-1.368-1.14s-1.224-0.444-1.944-0.444
        c-0.384,0-0.772,0.052-1.164,0.156C8.977,9.509,8.622,9.677,8.301,9.908c-0.32,0.232-0.58,0.52-0.78,0.864
        c-0.2,0.344-0.3,0.756-0.3,1.236c0,0.464,0.092,0.852,0.276,1.164c0.184,0.312,0.432,0.576,0.744,0.792s0.68,0.4,1.104,0.552
        c0.423,0.152,0.876,0.309,1.356,0.468c0.576,0.177,1.16,0.376,1.752,0.601c0.592,0.224,1.128,0.52,1.608,0.888
        s0.872,0.828,1.176,1.38s0.456,1.252,0.456,2.101c0,0.88-0.164,1.644-0.492,2.292c-0.328,0.647-0.765,1.184-1.308,1.607
        c-0.544,0.424-1.172,0.74-1.884,0.948s-1.444,0.312-2.196,0.312c-1.072,0-2.108-0.208-3.108-0.624
        c-1-0.415-1.828-1.031-2.484-1.848l1.848-1.56c0.4,0.592,0.936,1.071,1.608,1.439c0.672,0.368,1.399,0.552,2.184,0.552
        c0.4,0,0.8-0.056,1.2-0.168c0.4-0.111,0.764-0.288,1.092-0.527c0.328-0.24,0.596-0.54,0.804-0.9
        c0.208-0.36,0.312-0.796,0.312-1.308s-0.108-0.94-0.324-1.284c-0.216-0.344-0.508-0.636-0.876-0.876s-0.796-0.444-1.284-0.612
        c-0.488-0.168-1.004-0.34-1.548-0.516c-0.544-0.16-1.08-0.356-1.608-0.588c-0.528-0.232-1-0.528-1.416-0.889
        c-0.416-0.359-0.752-0.804-1.008-1.332c-0.256-0.527-0.384-1.184-0.384-1.968c0-0.848,0.172-1.576,0.516-2.184
        c0.344-0.608,0.792-1.112,1.344-1.512c0.552-0.4,1.176-0.692,1.872-0.876c0.696-0.184,1.396-0.276,2.1-0.276
        c0.992,0,1.92,0.176,2.784,0.528c0.864,0.352,1.56,0.824,2.088,1.416L13.846,10.832z"/>
    <path fill="#666666" d="M18.813,13.304l2.568,8.688h0.048l2.712-8.688h2.376l2.76,8.688h0.048l2.568-8.688h2.376L30.501,24.68
        h-2.352l-2.808-8.544h-0.048l-2.784,8.544h-2.352l-3.792-11.376H18.813z"/>
    <path fill="#666666" d="M38.685,9.2c0,0.416-0.147,0.76-0.44,1.032c-0.294,0.272-0.647,0.408-1.06,0.408s-0.762-0.14-1.047-0.42
        c-0.286-0.28-0.429-0.62-0.429-1.02c0-0.416,0.143-0.764,0.429-1.044c0.286-0.28,0.635-0.42,1.047-0.42s0.766,0.14,1.06,0.42
        C38.538,8.437,38.685,8.784,38.685,9.2z M38.325,24.68h-2.256V13.304h2.256V24.68z"/>
    <path fill="#666666" d="M47.613,15.152h-2.64v9.528h-2.256v-9.528h-2.256v-1.848h2.256v-2.376c0-0.672,0.076-1.292,0.228-1.86
        c0.152-0.568,0.4-1.06,0.744-1.476c0.344-0.416,0.784-0.744,1.32-0.984c0.536-0.24,1.188-0.36,1.956-0.36
        c0.544,0,1.016,0.056,1.416,0.168l-0.264,1.944c-0.176-0.048-0.352-0.088-0.528-0.12c-0.176-0.032-0.376-0.048-0.6-0.048
        c-0.432,0-0.78,0.076-1.044,0.228c-0.264,0.152-0.468,0.356-0.612,0.612s-0.24,0.548-0.288,0.876
        c-0.048,0.328-0.072,0.668-0.072,1.02v2.376h2.64V15.152z"/>
    <path fill="#666666" d="M54.909,15.152h-3.024v5.91c0,0.687,0.128,1.177,0.384,1.472c0.256,0.295,0.664,0.442,1.224,0.442
        c0.208,0,0.432-0.021,0.672-0.065c0.24-0.044,0.456-0.11,0.648-0.198l0.072,1.848c-0.272,0.096-0.572,0.172-0.9,0.229
        c-0.328,0.056-0.668,0.084-1.02,0.084c-1.072,0-1.892-0.296-2.46-0.889c-0.568-0.592-0.852-1.479-0.852-2.664v-6.168h-2.184
        v-1.848h2.184V10.04h2.232v3.264h3.024V15.152z"/>
    <path fill="#666666" d="M57.356,7.688h5.832c1.088,0,2.176,0.16,3.264,0.48c1.088,0.32,2.072,0.824,2.952,1.512
        s1.592,1.568,2.136,2.64c0.544,1.072,0.816,2.36,0.816,3.864c0,1.456-0.272,2.716-0.816,3.78s-1.256,1.943-2.136,2.64
        s-1.864,1.216-2.952,1.561c-1.088,0.344-2.176,0.516-3.264,0.516h-5.832V7.688z M59.732,22.593h2.976
        c1.024,0,1.972-0.145,2.844-0.432c0.872-0.288,1.624-0.704,2.256-1.248c0.632-0.544,1.124-1.216,1.476-2.017
        c0.352-0.8,0.528-1.704,0.528-2.712c0-1.056-0.176-1.983-0.528-2.784c-0.353-0.8-0.844-1.468-1.476-2.004
        c-0.632-0.536-1.384-0.944-2.256-1.224s-1.82-0.42-2.844-0.42h-2.976V22.593z"/>
    <path fill="#666666" d="M86.06,18.969c0,0.88-0.156,1.688-0.468,2.424c-0.312,0.736-0.744,1.372-1.296,1.908
        c-0.552,0.536-1.204,0.952-1.956,1.248c-0.752,0.296-1.56,0.443-2.424,0.443c-0.864,0-1.672-0.147-2.424-0.443
        c-0.752-0.296-1.4-0.712-1.944-1.248c-0.544-0.536-0.972-1.172-1.284-1.908c-0.312-0.735-0.468-1.544-0.468-2.424
        s0.156-1.684,0.468-2.412c0.312-0.728,0.74-1.356,1.284-1.884c0.543-0.528,1.191-0.939,1.944-1.236
        c0.752-0.296,1.56-0.444,2.424-0.444c0.864,0,1.672,0.148,2.424,0.444c0.752,0.297,1.404,0.708,1.956,1.236
        c0.552,0.527,0.984,1.156,1.296,1.884C85.904,17.285,86.06,18.089,86.06,18.969z M83.708,18.98c0-0.542-0.084-1.061-0.252-1.556
        c-0.169-0.494-0.414-0.929-0.734-1.304s-0.718-0.674-1.192-0.897s-1.015-0.335-1.625-0.335c-0.61,0-1.152,0.111-1.625,0.335
        c-0.474,0.224-0.871,0.522-1.191,0.897c-0.321,0.375-0.566,0.81-0.734,1.304C76.184,17.92,76.1,18.438,76.1,18.98
        c0,0.543,0.084,1.062,0.253,1.556c0.168,0.495,0.413,0.934,0.734,1.316c0.321,0.383,0.718,0.686,1.191,0.909
        c0.473,0.224,1.015,0.335,1.625,0.335c0.61,0,1.151-0.111,1.625-0.335s0.871-0.526,1.192-0.909s0.565-0.821,0.734-1.316
        C83.624,20.042,83.708,19.523,83.708,18.98z"/>
    <path fill="#666666" d="M96.428,16.184c-0.24-0.368-0.6-0.676-1.08-0.924s-0.992-0.372-1.536-0.372
        c-0.592,0-1.116,0.112-1.572,0.336c-0.456,0.225-0.844,0.524-1.164,0.9c-0.32,0.376-0.564,0.812-0.732,1.308
        s-0.252,1.017-0.252,1.56c0,0.545,0.084,1.064,0.252,1.561s0.412,0.933,0.732,1.308c0.32,0.376,0.712,0.677,1.176,0.9
        c0.464,0.225,0.992,0.336,1.584,0.336c0.576,0,1.1-0.111,1.572-0.336c0.472-0.224,0.86-0.528,1.164-0.912l1.512,1.368
        c-0.48,0.561-1.08,0.996-1.8,1.308c-0.72,0.312-1.536,0.468-2.448,0.468c-0.88,0-1.692-0.144-2.436-0.432
        c-0.744-0.288-1.388-0.691-1.932-1.212c-0.544-0.52-0.972-1.147-1.284-1.884s-0.468-1.561-0.468-2.473
        c0-0.896,0.152-1.711,0.456-2.447c0.304-0.736,0.728-1.368,1.272-1.896c0.543-0.527,1.188-0.936,1.932-1.224
        c0.744-0.288,1.548-0.433,2.412-0.433c0.8,0,1.596,0.16,2.388,0.48s1.419,0.784,1.884,1.392L96.428,16.184z"/>
    <path fill="#666666" d="M103.1,23.24c0,0.417-0.152,0.784-0.456,1.104c-0.304,0.32-0.688,0.479-1.152,0.479
        c-0.448,0-0.828-0.155-1.14-0.468c-0.312-0.312-0.468-0.676-0.468-1.092c0-0.432,0.152-0.804,0.456-1.116
        c0.304-0.312,0.688-0.468,1.152-0.468c0.464,0,0.848,0.152,1.152,0.456C102.947,22.44,103.1,22.808,103.1,23.24z"/>
    <path fill="#666666" d="M116.635,18.969c0,0.88-0.156,1.688-0.468,2.424c-0.312,0.736-0.744,1.372-1.296,1.908
        c-0.552,0.536-1.204,0.952-1.956,1.248c-0.752,0.296-1.56,0.443-2.424,0.443c-0.864,0-1.672-0.147-2.424-0.443
        c-0.752-0.296-1.4-0.712-1.944-1.248c-0.544-0.536-0.972-1.172-1.284-1.908c-0.312-0.735-0.468-1.544-0.468-2.424
        s0.156-1.684,0.468-2.412c0.312-0.728,0.74-1.356,1.284-1.884c0.543-0.528,1.191-0.939,1.944-1.236
        c0.752-0.296,1.56-0.444,2.424-0.444c0.864,0,1.672,0.148,2.424,0.444c0.752,0.297,1.404,0.708,1.956,1.236
        c0.552,0.527,0.984,1.156,1.296,1.884C116.479,17.285,116.635,18.089,116.635,18.969z M114.283,18.98
        c0-0.542-0.084-1.061-0.252-1.556c-0.169-0.494-0.414-0.929-0.734-1.304s-0.718-0.674-1.192-0.897s-1.015-0.335-1.625-0.335
        c-0.61,0-1.152,0.111-1.625,0.335c-0.474,0.224-0.871,0.522-1.191,0.897c-0.321,0.375-0.566,0.81-0.734,1.304
        c-0.169,0.495-0.253,1.014-0.253,1.556c0,0.543,0.084,1.062,0.253,1.556c0.168,0.495,0.413,0.934,0.734,1.316
        c0.321,0.383,0.718,0.686,1.191,0.909c0.473,0.224,1.015,0.335,1.625,0.335c0.61,0,1.151-0.111,1.625-0.335
        s0.871-0.526,1.192-0.909s0.565-0.821,0.734-1.316C114.199,20.042,114.283,19.523,114.283,18.98z"/>
    <path fill="#666666" d="M119.251,14.577c-0.016-0.48-0.04-0.904-0.072-1.272h2.136c0.032,0.288,0.056,0.62,0.072,0.996
        c0.016,0.376,0.024,0.684,0.024,0.924h0.072c0.32-0.672,0.788-1.212,1.404-1.62c0.616-0.408,1.308-0.612,2.076-0.612
        c0.352,0,0.648,0.033,0.888,0.097l-0.096,2.088c-0.32-0.08-0.664-0.12-1.032-0.12c-0.544,0-1.016,0.101-1.416,0.3
        c-0.4,0.2-0.732,0.468-0.996,0.805c-0.264,0.336-0.46,0.724-0.588,1.163c-0.128,0.44-0.192,0.9-0.192,1.381v5.976h-2.256v-8.928
        C119.275,15.449,119.267,15.056,119.251,14.577z"/>
    <path fill="#666666" d="M128.419,26.625c0.496,0.56,1.116,1.008,1.86,1.344c0.744,0.336,1.508,0.504,2.292,0.504
        c0.752,0,1.384-0.108,1.896-0.324s0.924-0.512,1.236-0.888s0.536-0.82,0.672-1.332c0.136-0.513,0.204-1.064,0.204-1.656v-1.464
        h-0.048c-0.416,0.641-0.984,1.128-1.704,1.464c-0.72,0.336-1.488,0.504-2.304,0.504c-0.864,0-1.652-0.151-2.364-0.456
        c-0.712-0.304-1.316-0.72-1.812-1.248c-0.496-0.527-0.88-1.147-1.152-1.859s-0.408-1.477-0.408-2.292
        c0-0.816,0.136-1.584,0.408-2.305c0.272-0.72,0.656-1.348,1.152-1.884c0.496-0.535,1.096-0.96,1.8-1.271
        c0.704-0.312,1.488-0.469,2.352-0.469c0.816,0,1.596,0.177,2.34,0.528c0.744,0.353,1.332,0.888,1.764,1.608h0.048v-1.824h2.184
        v10.8c0,0.832-0.104,1.628-0.312,2.388c-0.208,0.76-0.56,1.433-1.056,2.017s-1.144,1.052-1.944,1.404
        c-0.8,0.352-1.792,0.527-2.976,0.527c-0.992,0-1.988-0.18-2.988-0.54c-1-0.359-1.86-0.868-2.58-1.523L128.419,26.625z
         M129.091,18.873c0,0.527,0.084,1.031,0.253,1.512c0.168,0.479,0.417,0.904,0.746,1.271c0.329,0.369,0.726,0.664,1.192,0.889
        c0.465,0.224,0.995,0.336,1.589,0.336c0.577,0,1.107-0.104,1.589-0.312c0.481-0.207,0.891-0.491,1.228-0.852
        s0.598-0.784,0.782-1.272c0.185-0.487,0.277-1.012,0.277-1.571c0-0.544-0.093-1.057-0.277-1.536
        c-0.185-0.48-0.449-0.904-0.794-1.272c-0.345-0.367-0.755-0.66-1.228-0.876c-0.474-0.216-1-0.324-1.577-0.324
        c-0.594,0-1.124,0.108-1.589,0.324c-0.466,0.216-0.863,0.504-1.192,0.864s-0.578,0.784-0.746,1.271
        C129.175,17.812,129.091,18.329,129.091,18.873z"/>
</g>
<g><a xlink:href="/" pointer-events="all" target="_top"><polygon fill="none" points="0,0 145,0 145,35 0,35 0,0"/></a></g>

</g>


<!-- AnyIndex -->
<g id="node1" class="node">
<g id="a_node1"><a xlink:href="/v4.2/type/AnyIndex/hierarchy/" target="_top">
<polygon fill="#999999" stroke="#999999" points="60.0249,-22 -0.0249069,-22 -0.0249069,-0 60.0249,-0 60.0249,-22"/>
<text text-anchor="middle" x="30" y="-7.4" font-family="Helvetica,sans-Serif" font-size="12.00" fill="white">AnyIndex</text>
</a>
</g>
</g>
<!-- BinaryFloatingPoint -->
<g id="node2" class="node">
<g id="a_node2"><a xlink:href="/v4.2/protocol/BinaryFloatingPoint/hierarchy/" target="_top">
<path fill="#999999" stroke="#999999" d="M2418.71,-80C2418.71,-80 2319.29,-80 2319.29,-80 2315.62,-80 2311.96,-76.3333 2311.96,-72.6667 2311.96,-72.6667 2311.96,-65.3333 2311.96,-65.3333 2311.96,-61.6667 2315.62,-58 2319.29,-58 2319.29,-58 2418.71,-58 2418.71,-58 2422.38,-58 2426.04,-61.6667 2426.04,-65.3333 2426.04,-65.3333 2426.04,-72.6667 2426.04,-72.6667 2426.04,-76.3333 2422.38,-80 2418.71,-80"/>
<text text-anchor="middle" x="2369" y="-65.4" font-family="Helvetica,sans-Serif" font-size="12.00" fill="white">BinaryFloatingPoint</text>
</a>
</g>
</g>
<!-- Double -->
<g id="node9" class="node">
<g id="a_node9"><a xlink:href="/v4.2/type/Double/hierarchy/" target="_top">
<polygon fill="#999999" stroke="#999999" points="2294,-22 2240,-22 2240,-0 2294,-0 2294,-22"/>
<text text-anchor="middle" x="2267" y="-7.4" font-family="Helvetica,sans-Serif" font-size="12.00" fill="white">Double</text>
</a>
</g>
</g>
<!-- BinaryFloatingPoint&#45;&gt;Double -->
<g id="edge47" class="edge">
<path fill="none" stroke="#cccccc" d="M2350.76,-57.9883C2335.05,-49.3619 2312.14,-36.785 2294.25,-26.9633"/>
<polygon fill="#cccccc" stroke="#cccccc" points="2295.87,-23.8584 2285.42,-22.1138 2292.5,-29.9945 2295.87,-23.8584"/>
</g>
<!-- Float -->
<g id="node13" class="node">
<g id="a_node13"><a xlink:href="/v4.2/type/Float/hierarchy/" target="_top">
<polygon fill="#999999" stroke="#999999" points="2366,-22 2312,-22 2312,-0 2366,-0 2366,-22"/>
<text text-anchor="middle" x="2339" y="-7.4" font-family="Helvetica,sans-Serif" font-size="12.00" fill="white">Float</text>
</a>
</g>
</g>
<!-- BinaryFloatingPoint&#45;&gt;Float -->
<g id="edge48" class="edge">
<path fill="none" stroke="#cccccc" d="M2363.64,-57.9883C2359.68,-50.5952 2354.16,-40.3005 2349.35,-31.3253"/>
<polygon fill="#cccccc" stroke="#cccccc" points="2352.33,-29.4659 2344.52,-22.3039 2346.16,-32.7715 2352.33,-29.4659"/>
</g>
<!-- Float80 -->
<g id="node14" class="node">
<g id="a_node14"><a xlink:href="/v4.2/type/Float80/hierarchy/" target="_top">
<polygon fill="#999999" stroke="#999999" points="2438,-22 2384,-22 2384,-0 2438,-0 2438,-22"/>
<text text-anchor="middle" x="2411" y="-7.4" font-family="Helvetica,sans-Serif" font-size="12.00" fill="white">Float80</text>
</a>
</g>
</g>
<!-- BinaryFloatingPoint&#45;&gt;Float80 -->
<g id="edge49" class="edge">
<path fill="none" stroke="#cccccc" d="M2376.51,-57.9883C2382.23,-50.3592 2390.27,-39.6405 2397.15,-30.4702"/>
<polygon fill="#cccccc" stroke="#cccccc" points="2400.07,-32.4039 2403.27,-22.3039 2394.47,-28.2039 2400.07,-32.4039"/>
</g>
<!-- BinaryInteger -->
<g id="node3" class="node">
<g id="a_node3"><a xlink:href="/v4.2/protocol/BinaryInteger/hierarchy/" target="_top">
<path fill="#999999" stroke="#999999" d="M2012.2,-138C2012.2,-138 1945.8,-138 1945.8,-138 1942.14,-138 1938.47,-134.333 1938.47,-130.667 1938.47,-130.667 1938.47,-123.333 1938.47,-123.333 1938.47,-119.667 1942.14,-116 1945.8,-116 1945.8,-116 2012.2,-116 2012.2,-116 2015.86,-116 2019.53,-119.667 2019.53,-123.333 2019.53,-123.333 2019.53,-130.667 2019.53,-130.667 2019.53,-134.333 2015.86,-138 2012.2,-138"/>
<text text-anchor="middle" x="1979" y="-123.4" font-family="Helvetica,sans-Serif" font-size="12.00" fill="white">BinaryInteger</text>
</a>
</g>
</g>
<!-- FixedWidthInteger -->
<g id="node11" class="node">
<g id="a_node11"><a xlink:href="/v4.2/protocol/FixedWidthInteger/hierarchy/" target="_top">
<path fill="#999999" stroke="#999999" d="M1953.2,-80C1953.2,-80 1860.8,-80 1860.8,-80 1857.13,-80 1853.47,-76.3333 1853.47,-72.6667 1853.47,-72.6667 1853.47,-65.3333 1853.47,-65.3333 1853.47,-61.6667 1857.13,-58 1860.8,-58 1860.8,-58 1953.2,-58 1953.2,-58 1956.87,-58 1960.53,-61.6667 1960.53,-65.3333 1960.53,-65.3333 1960.53,-72.6667 1960.53,-72.6667 1960.53,-76.3333 1956.87,-80 1953.2,-80"/>
<text text-anchor="middle" x="1907" y="-65.4" font-family="Helvetica,sans-Serif" font-size="12.00" fill="white">FixedWidthInteger</text>
</a>
</g>
</g>
<!-- BinaryInteger&#45;&gt;FixedWidthInteger -->
<g id="edge23" class="edge">
<path fill="none" stroke="#cccccc" d="M1966.13,-115.988C1955.61,-107.809 1940.53,-96.0773 1928.23,-86.5108"/>
<polygon fill="#cccccc" stroke="#cccccc" points="1930.29,-83.6806 1920.25,-80.3039 1925.99,-89.2061 1930.29,-83.6806"/>
</g>
<!-- SignedInteger -->
<g id="node26" class="node">
<g id="a_node26"><a xlink:href="/v4.2/protocol/SignedInteger/hierarchy/" target="_top">
<path fill="#999999" stroke="#999999" d="M2070.71,-80C2070.71,-80 2001.29,-80 2001.29,-80 1997.62,-80 1993.96,-76.3333 1993.96,-72.6667 1993.96,-72.6667 1993.96,-65.3333 1993.96,-65.3333 1993.96,-61.6667 1997.62,-58 2001.29,-58 2001.29,-58 2070.71,-58 2070.71,-58 2074.38,-58 2078.04,-61.6667 2078.04,-65.3333 2078.04,-65.3333 2078.04,-72.6667 2078.04,-72.6667 2078.04,-76.3333 2074.38,-80 2070.71,-80"/>
<text text-anchor="middle" x="2036" y="-65.4" font-family="Helvetica,sans-Serif" font-size="12.00" fill="white">SignedInteger</text>
</a>
</g>
</g>
<!-- BinaryInteger&#45;&gt;SignedInteger -->
<g id="edge24" class="edge">
<path fill="none" stroke="#cccccc" d="M1989.19,-115.988C1997.28,-108.045 2008.77,-96.7512 2018.35,-87.3439"/>
<polygon fill="#cccccc" stroke="#cccccc" points="2020.83,-89.8088 2025.51,-80.3039 2015.93,-84.8154 2020.83,-89.8088"/>
</g>
<!-- UnsignedInteger -->
<g id="node43" class="node">
<g id="a_node43"><a xlink:href="/v4.2/protocol/UnsignedInteger/hierarchy/" target="_top">
<path fill="#999999" stroke="#999999" d="M1768.71,-80C1768.71,-80 1685.29,-80 1685.29,-80 1681.62,-80 1677.95,-76.3333 1677.95,-72.6667 1677.95,-72.6667 1677.95,-65.3333 1677.95,-65.3333 1677.95,-61.6667 1681.62,-58 1685.29,-58 1685.29,-58 1768.71,-58 1768.71,-58 1772.38,-58 1776.05,-61.6667 1776.05,-65.3333 1776.05,-65.3333 1776.05,-72.6667 1776.05,-72.6667 1776.05,-76.3333 1772.38,-80 1768.71,-80"/>
<text text-anchor="middle" x="1727" y="-65.4" font-family="Helvetica,sans-Serif" font-size="12.00" fill="white">UnsignedInteger</text>
</a>
</g>
</g>
<!-- BinaryInteger&#45;&gt;UnsignedInteger -->
<g id="edge25" class="edge">
<path fill="none" stroke="#cccccc" d="M1938.51,-117.003C1896.13,-107.584 1829.3,-92.7327 1782.12,-82.2486"/>
<polygon fill="#cccccc" stroke="#cccccc" points="1782.59,-78.7679 1772.07,-80.0152 1781.07,-85.6012 1782.59,-78.7679"/>
</g>
<!-- Character -->
<g id="node4" class="node">
<g id="a_node4"><a xlink:href="/v4.2/type/Character/hierarchy/" target="_top">
<polygon fill="#999999" stroke="#999999" points="140.017,-22 77.9827,-22 77.9827,-0 140.017,-0 140.017,-22"/>
<text text-anchor="middle" x="109" y="-7.4" font-family="Helvetica,sans-Serif" font-size="12.00" fill="white">Character</text>
</a>
</g>
</g>
<!-- Character.UnicodeScalarView.Index -->
<g id="node5" class="node">
<g id="a_node5"><a xlink:href="/v4.2/type/Character.UnicodeScalarView.Index/hierarchy/" target="_top">
<polygon fill="#999999" stroke="#999999" points="359.428,-22 158.572,-22 158.572,-0 359.428,-0 359.428,-22"/>
<text text-anchor="middle" x="259" y="-7.4" font-family="Helvetica,sans-Serif" font-size="12.00" fill="white">Character.UnicodeScalarView.Index</text>
</a>
</g>
</g>
<!-- ClosedRange.Index -->
<g id="node6" class="node">
<g id="a_node6"><a xlink:href="/v4.2/type/ClosedRange.Index/hierarchy/" target="_top">
<polygon fill="#999999" stroke="#999999" points="492.553,-22 377.447,-22 377.447,-0 492.553,-0 492.553,-22"/>
<text text-anchor="middle" x="435" y="-7.4" font-family="Helvetica,sans-Serif" font-size="12.00" fill="white">ClosedRange.Index</text>
</a>
</g>
</g>
<!-- Comparable -->
<g id="node7" class="node">
<g id="a_node7"><a xlink:href="/v4.2/protocol/Comparable/" target="_top">
<path fill="#ee543d" stroke="#ee543d" d="M1089.19,-254C1089.19,-254 1028.81,-254 1028.81,-254 1025.14,-254 1021.48,-250.333 1021.48,-246.667 1021.48,-246.667 1021.48,-239.333 1021.48,-239.333 1021.48,-235.667 1025.14,-232 1028.81,-232 1028.81,-232 1089.19,-232 1089.19,-232 1092.86,-232 1096.52,-235.667 1096.52,-239.333 1096.52,-239.333 1096.52,-246.667 1096.52,-246.667 1096.52,-250.333 1092.86,-254 1089.19,-254"/>
<text text-anchor="middle" x="1059" y="-239.4" font-family="Helvetica,sans-Serif" font-size="12.00" fill="white">Comparable</text>
</a>
</g>
</g>
<!-- Comparable&#45;&gt;AnyIndex -->
<g id="edge1" class="edge">
<path fill="none" stroke="#cccccc" d="M1021.6,-239.465C951.025,-234.282 793.55,-220.815 663,-196 475.275,-160.318 431.866,-135.444 249,-80 186.262,-60.978 113.62,-38.2912 69.7751,-24.5253"/>
<polygon fill="#cccccc" stroke="#cccccc" points="70.6611,-21.135 60.0717,-21.4767 68.5629,-27.8132 70.6611,-21.135"/>
</g>
<!-- Comparable&#45;&gt;Character -->
<g id="edge2" class="edge">
<path fill="none" stroke="#cccccc" d="M1021.28,-237.859C963.537,-231.168 849.936,-216.615 755,-196 521.982,-145.4 249.067,-58.2433 148.652,-25.2104"/>
<polygon fill="#cccccc" stroke="#cccccc" points="149.518,-21.8107 138.925,-22.0022 147.325,-28.4584 149.518,-21.8107"/>
</g>
<!-- Comparable&#45;&gt;Character.UnicodeScalarView.Index -->
<g id="edge6" class="edge">
<path fill="none" stroke="#cccccc" d="M1021.58,-235.422C977.409,-227.379 901.876,-212.75 838,-196 630.997,-141.718 388.422,-57.9005 296.687,-25.4614"/>
<polygon fill="#cccccc" stroke="#cccccc" points="297.611,-22.0756 287.017,-22.0342 295.273,-28.6736 297.611,-22.0756"/>
</g>
<!-- Comparable&#45;&gt;ClosedRange.Index -->
<g id="edge7" class="edge">
<path fill="none" stroke="#cccccc" d="M1021.58,-232.447C988.743,-223.792 939.827,-210.247 898,-196 733.445,-139.951 541.904,-58.5021 467.167,-26.0789"/>
<polygon fill="#cccccc" stroke="#cccccc" points="468.387,-22.7925 457.82,-22.0149 465.595,-29.212 468.387,-22.7925"/>
</g>
<!-- Dictionary.Index -->
<g id="node8" class="node">
<g id="a_node8"><a xlink:href="/v4.2/type/Dictionary.Index/hierarchy/" target="_top">
<polygon fill="#999999" stroke="#999999" points="605.365,-22 510.635,-22 510.635,-0 605.365,-0 605.365,-22"/>
<text text-anchor="middle" x="558" y="-7.4" font-family="Helvetica,sans-Serif" font-size="12.00" fill="white">Dictionary.Index</text>
</a>
</g>
</g>
<!-- Comparable&#45;&gt;Dictionary.Index -->
<g id="edge8" class="edge">
<path fill="none" stroke="#cccccc" d="M1033.97,-231.896C1011.58,-222.775 977.944,-208.855 949,-196 813.023,-135.609 653.071,-58.3606 587.895,-26.6163"/>
<polygon fill="#cccccc" stroke="#cccccc" points="589.146,-23.3321 578.623,-22.0957 586.078,-29.6241 589.146,-23.3321"/>
</g>
<!-- FlattenCollection.Index -->
<g id="node12" class="node">
<g id="a_node12"><a xlink:href="/v4.2/type/FlattenCollection.Index/hierarchy/" target="_top">
<polygon fill="#999999" stroke="#999999" points="756.051,-22 623.949,-22 623.949,-0 756.051,-0 756.051,-22"/>
<text text-anchor="middle" x="690" y="-7.4" font-family="Helvetica,sans-Serif" font-size="12.00" fill="white">FlattenCollection.Index</text>
</a>
</g>
</g>
<!-- Comparable&#45;&gt;FlattenCollection.Index -->
<g id="edge9" class="edge">
<path fill="none" stroke="#cccccc" d="M1042.67,-231.82C984.202,-195.378 785.081,-71.2645 714.805,-27.4612"/>
<polygon fill="#cccccc" stroke="#cccccc" points="716.481,-24.3815 706.143,-22.062 712.778,-30.322 716.481,-24.3815"/>
</g>
<!-- LazyDropWhileCollection.Index -->
<g id="node21" class="node">
<g id="a_node21"><a xlink:href="/v4.2/type/LazyDropWhileCollection.Index/hierarchy/" target="_top">
<polygon fill="#999999" stroke="#999999" points="950.06,-22 773.94,-22 773.94,-0 950.06,-0 950.06,-22"/>
<text text-anchor="middle" x="862" y="-7.4" font-family="Helvetica,sans-Serif" font-size="12.00" fill="white">LazyDropWhileCollection.Index</text>
</a>
</g>
</g>
<!-- Comparable&#45;&gt;LazyDropWhileCollection.Index -->
<g id="edge10" class="edge">
<path fill="none" stroke="#cccccc" d="M1050.28,-231.82C1019.58,-195.973 916.213,-75.2938 877.135,-29.6701"/>
<polygon fill="#cccccc" stroke="#cccccc" points="879.782,-27.3801 870.618,-22.062 874.465,-31.9338 879.782,-27.3801"/>
</g>
<!-- LazyPrefixWhileCollection.Index -->
<g id="node22" class="node">
<g id="a_node22"><a xlink:href="/v4.2/type/LazyPrefixWhileCollection.Index/hierarchy/" target="_top">
<polygon fill="#999999" stroke="#999999" points="1149.56,-22 968.443,-22 968.443,-0 1149.56,-0 1149.56,-22"/>
<text text-anchor="middle" x="1059" y="-7.4" font-family="Helvetica,sans-Serif" font-size="12.00" fill="white">LazyPrefixWhileCollection.Index</text>
</a>
</g>
</g>
<!-- Comparable&#45;&gt;LazyPrefixWhileCollection.Index -->
<g id="edge11" class="edge">
<path fill="none" stroke="#cccccc" d="M1059,-231.82C1059,-196.642 1059,-79.7709 1059,-32.3033"/>
<polygon fill="#cccccc" stroke="#cccccc" points="1062.5,-32.062 1059,-22.062 1055.5,-32.0621 1062.5,-32.062"/>
</g>
<!-- ObjectIdentifier -->
<g id="node23" class="node">
<g id="a_node23"><a xlink:href="/v4.2/type/ObjectIdentifier/hierarchy/" target="_top">
<polygon fill="#999999" stroke="#999999" points="1258.03,-22 1167.97,-22 1167.97,-0 1258.03,-0 1258.03,-22"/>
<text text-anchor="middle" x="1213" y="-7.4" font-family="Helvetica,sans-Serif" font-size="12.00" fill="white">ObjectIdentifier</text>
</a>
</g>
</g>
<!-- Comparable&#45;&gt;ObjectIdentifier -->
<g id="edge3" class="edge">
<path fill="none" stroke="#cccccc" d="M1065.82,-231.82C1089.67,-196.196 1169.62,-76.7927 1200.59,-30.5307"/>
<polygon fill="#cccccc" stroke="#cccccc" points="1203.61,-32.3187 1206.26,-22.062 1197.79,-28.4241 1203.61,-32.3187"/>
</g>
<!-- ReversedCollection.Index -->
<g id="node24" class="node">
<g id="a_node24"><a xlink:href="/v4.2/type/ReversedCollection.Index/hierarchy/" target="_top">
<polygon fill="#999999" stroke="#999999" points="1423.06,-22 1276.94,-22 1276.94,-0 1423.06,-0 1423.06,-22"/>
<text text-anchor="middle" x="1350" y="-7.4" font-family="Helvetica,sans-Serif" font-size="12.00" fill="white">ReversedCollection.Index</text>
</a>
</g>
</g>
<!-- Comparable&#45;&gt;ReversedCollection.Index -->
<g id="edge12" class="edge">
<path fill="none" stroke="#cccccc" d="M1071.88,-231.82C1117.7,-195.601 1273.1,-72.781 1329.41,-28.2747"/>
<polygon fill="#cccccc" stroke="#cccccc" points="1331.59,-31.0088 1337.27,-22.062 1327.25,-25.517 1331.59,-31.0088"/>
</g>
<!-- Set.Index -->
<g id="node25" class="node">
<g id="a_node25"><a xlink:href="/v4.2/type/Set.Index/hierarchy/" target="_top">
<polygon fill="#999999" stroke="#999999" points="1502.03,-22 1441.97,-22 1441.97,-0 1502.03,-0 1502.03,-22"/>
<text text-anchor="middle" x="1472" y="-7.4" font-family="Helvetica,sans-Serif" font-size="12.00" fill="white">Set.Index</text>
</a>
</g>
</g>
<!-- Comparable&#45;&gt;Set.Index -->
<g id="edge13" class="edge">
<path fill="none" stroke="#cccccc" d="M1078.19,-231.885C1095.66,-222.642 1122.14,-208.544 1145,-196 1257.29,-134.386 1389.99,-58.8727 1445.51,-27.1592"/>
<polygon fill="#cccccc" stroke="#cccccc" points="1447.41,-30.107 1454.35,-22.1061 1443.93,-24.0296 1447.41,-30.107"/>
</g>
<!-- Strideable -->
<g id="node27" class="node">
<g id="a_node27"><a xlink:href="/v4.2/protocol/Strideable/hierarchy/" target="_top">
<path fill="#999999" stroke="#999999" d="M2626.69,-196C2626.69,-196 2577.31,-196 2577.31,-196 2573.64,-196 2569.97,-192.333 2569.97,-188.667 2569.97,-188.667 2569.97,-181.333 2569.97,-181.333 2569.97,-177.667 2573.64,-174 2577.31,-174 2577.31,-174 2626.69,-174 2626.69,-174 2630.36,-174 2634.03,-177.667 2634.03,-181.333 2634.03,-181.333 2634.03,-188.667 2634.03,-188.667 2634.03,-192.333 2630.36,-196 2626.69,-196"/>
<text text-anchor="middle" x="2602" y="-181.4" font-family="Helvetica,sans-Serif" font-size="12.00" fill="white">Strideable</text>
</a>
</g>
</g>
<!-- Comparable&#45;&gt;Strideable -->
<g id="edge4" class="edge">
<path fill="none" stroke="#cccccc" d="M1096.38,-240.643C1306.26,-233.026 2336.71,-195.628 2559.48,-187.543"/>
<polygon fill="#cccccc" stroke="#cccccc" points="2559.91,-191.03 2569.77,-187.17 2559.65,-184.035 2559.91,-191.03"/>
</g>
<!-- String.Index -->
<g id="node29" class="node">
<g id="a_node29"><a xlink:href="/v4.2/type/String.Index/hierarchy/" target="_top">
<polygon fill="#999999" stroke="#999999" points="3237.03,-22 3162.97,-22 3162.97,-0 3237.03,-0 3237.03,-22"/>
<text text-anchor="middle" x="3200" y="-7.4" font-family="Helvetica,sans-Serif" font-size="12.00" fill="white">String.Index</text>
</a>
</g>
</g>
<!-- Comparable&#45;&gt;String.Index -->
<g id="edge14" class="edge">
<path fill="none" stroke="#cccccc" d="M1096.53,-241.561C1321.45,-238.844 2486.44,-223.527 2643,-196 2849.71,-159.655 3084.59,-62.5801 3168.31,-26.1099"/>
<polygon fill="#cccccc" stroke="#cccccc" points="3169.78,-29.2884 3177.54,-22.0705 3166.97,-22.8764 3169.78,-29.2884"/>
</g>
<!-- StringProtocol -->
<g id="node31" class="node">
<g id="a_node31"><a xlink:href="/v4.2/protocol/StringProtocol/hierarchy/" target="_top">
<path fill="#999999" stroke="#999999" d="M3320.19,-80C3320.19,-80 3249.81,-80 3249.81,-80 3246.14,-80 3242.47,-76.3333 3242.47,-72.6667 3242.47,-72.6667 3242.47,-65.3333 3242.47,-65.3333 3242.47,-61.6667 3246.14,-58 3249.81,-58 3249.81,-58 3320.19,-58 3320.19,-58 3323.86,-58 3327.53,-61.6667 3327.53,-65.3333 3327.53,-65.3333 3327.53,-72.6667 3327.53,-72.6667 3327.53,-76.3333 3323.86,-80 3320.19,-80"/>
<text text-anchor="middle" x="3285" y="-65.4" font-family="Helvetica,sans-Serif" font-size="12.00" fill="white">StringProtocol</text>
</a>
</g>
</g>
<!-- Comparable&#45;&gt;StringProtocol -->
<g id="edge5" class="edge">
<path fill="none" stroke="#cccccc" d="M1096.43,-241.714C1378.96,-239.492 3166.69,-224.325 3214,-196 3252.97,-172.668 3272.32,-119.398 3280.31,-90.1488"/>
<polygon fill="#cccccc" stroke="#cccccc" points="3283.76,-90.7817 3282.84,-80.2272 3276.98,-89.0539 3283.76,-90.7817"/>
</g>
<!-- Unicode.Scalar -->
<g id="node38" class="node">
<g id="a_node38"><a xlink:href="/v4.2/type/Unicode.Scalar/hierarchy/" target="_top">
<polygon fill="#999999" stroke="#999999" points="3496.53,-22 3405.47,-22 3405.47,-0 3496.53,-0 3496.53,-22"/>
<text text-anchor="middle" x="3451" y="-7.4" font-family="Helvetica,sans-Serif" font-size="12.00" fill="white">Unicode.Scalar</text>
</a>
</g>
</g>
<!-- Comparable&#45;&gt;Unicode.Scalar -->
<g id="edge15" class="edge">
<path fill="none" stroke="#cccccc" d="M1096.72,-241.936C1377.66,-241.37 3136.02,-236.224 3240,-196 3329.81,-161.258 3406.98,-70.0892 3437.29,-30.6379"/>
<polygon fill="#cccccc" stroke="#cccccc" points="3440.43,-32.2925 3443.66,-22.2025 3434.84,-28.0749 3440.43,-32.2925"/>
</g>
<!-- Equatable -->
<g id="node10" class="node">
<g id="a_node10"><a xlink:href="/v4.2/protocol/Equatable/hierarchy/" target="_top">
<path fill="#999999" stroke="#999999" d="M1083.7,-312C1083.7,-312 1034.3,-312 1034.3,-312 1030.63,-312 1026.96,-308.333 1026.96,-304.667 1026.96,-304.667 1026.96,-297.333 1026.96,-297.333 1026.96,-293.667 1030.63,-290 1034.3,-290 1034.3,-290 1083.7,-290 1083.7,-290 1087.37,-290 1091.04,-293.667 1091.04,-297.333 1091.04,-297.333 1091.04,-304.667 1091.04,-304.667 1091.04,-308.333 1087.37,-312 1083.7,-312"/>
<text text-anchor="middle" x="1059" y="-297.4" font-family="Helvetica,sans-Serif" font-size="12.00" fill="white">Equatable</text>
</a>
</g>
</g>
<!-- Equatable&#45;&gt;Comparable -->
<g id="edge52" class="edge">
<path fill="none" stroke="#cccccc" d="M1059,-289.988C1059,-282.91 1059,-273.171 1059,-264.478"/>
<polygon fill="#cccccc" stroke="#cccccc" points="1062.5,-264.304 1059,-254.304 1055.5,-264.304 1062.5,-264.304"/>
</g>
<!-- Int -->
<g id="node16" class="node">
<g id="a_node16"><a xlink:href="/v4.2/type/Int/hierarchy/" target="_top">
<polygon fill="#999999" stroke="#999999" points="1934,-22 1880,-22 1880,-0 1934,-0 1934,-22"/>
<text text-anchor="middle" x="1907" y="-7.4" font-family="Helvetica,sans-Serif" font-size="12.00" fill="white">Int</text>
</a>
</g>
</g>
<!-- FixedWidthInteger&#45;&gt;Int -->
<g id="edge26" class="edge">
<path fill="none" stroke="#cccccc" d="M1907,-57.9883C1907,-50.9098 1907,-41.1714 1907,-32.4779"/>
<polygon fill="#cccccc" stroke="#cccccc" points="1910.5,-32.3038 1907,-22.3039 1903.5,-32.3039 1910.5,-32.3038"/>
</g>
<!-- Int16 -->
<g id="node17" class="node">
<g id="a_node17"><a xlink:href="/v4.2/type/Int16/hierarchy/" target="_top">
<polygon fill="#999999" stroke="#999999" points="2006,-22 1952,-22 1952,-0 2006,-0 2006,-22"/>
<text text-anchor="middle" x="1979" y="-7.4" font-family="Helvetica,sans-Serif" font-size="12.00" fill="white">Int16</text>
</a>
</g>
</g>
<!-- FixedWidthInteger&#45;&gt;Int16 -->
<g id="edge27" class="edge">
<path fill="none" stroke="#cccccc" d="M1919.87,-57.9883C1930.39,-49.8087 1945.47,-38.0773 1957.77,-28.5108"/>
<polygon fill="#cccccc" stroke="#cccccc" points="1960.01,-31.2061 1965.75,-22.3039 1955.71,-25.6806 1960.01,-31.2061"/>
</g>
<!-- Int32 -->
<g id="node18" class="node">
<g id="a_node18"><a xlink:href="/v4.2/type/Int32/hierarchy/" target="_top">
<polygon fill="#999999" stroke="#999999" points="2078,-22 2024,-22 2024,-0 2078,-0 2078,-22"/>
<text text-anchor="middle" x="2051" y="-7.4" font-family="Helvetica,sans-Serif" font-size="12.00" fill="white">Int32</text>
</a>
</g>
</g>
<!-- FixedWidthInteger&#45;&gt;Int32 -->
<g id="edge28" class="edge">
<path fill="none" stroke="#cccccc" d="M1932.74,-57.9883C1955.84,-49.0057 1989.95,-35.7398 2015.61,-25.7614"/>
<polygon fill="#cccccc" stroke="#cccccc" points="2016.94,-29.0004 2024.99,-22.1138 2014.4,-22.4763 2016.94,-29.0004"/>
</g>
<!-- Int64 -->
<g id="node19" class="node">
<g id="a_node19"><a xlink:href="/v4.2/type/Int64/hierarchy/" target="_top">
<polygon fill="#999999" stroke="#999999" points="2150,-22 2096,-22 2096,-0 2150,-0 2150,-22"/>
<text text-anchor="middle" x="2123" y="-7.4" font-family="Helvetica,sans-Serif" font-size="12.00" fill="white">Int64</text>
</a>
</g>
</g>
<!-- FixedWidthInteger&#45;&gt;Int64 -->
<g id="edge29" class="edge">
<path fill="none" stroke="#cccccc" d="M1947.45,-57.9168C1981.84,-49.2898 2032.76,-36.3793 2085.94,-22.2477"/>
<polygon fill="#cccccc" stroke="#cccccc" points="2087.13,-25.5525 2095.89,-19.5955 2085.33,-18.7885 2087.13,-25.5525"/>
</g>
<!-- Int8 -->
<g id="node20" class="node">
<g id="a_node20"><a xlink:href="/v4.2/type/Int8/hierarchy/" target="_top">
<polygon fill="#999999" stroke="#999999" points="2222,-22 2168,-22 2168,-0 2222,-0 2222,-22"/>
<text text-anchor="middle" x="2195" y="-7.4" font-family="Helvetica,sans-Serif" font-size="12.00" fill="white">Int8</text>
</a>
</g>
</g>
<!-- FixedWidthInteger&#45;&gt;Int8 -->
<g id="edge30" class="edge">
<path fill="none" stroke="#cccccc" d="M1960.38,-59.6946C2009.39,-51.746 2084.18,-38.8013 2158,-22.0748"/>
<polygon fill="#cccccc" stroke="#cccccc" points="2158.97,-25.4435 2167.94,-19.7991 2157.41,-18.6202 2158.97,-25.4435"/>
</g>
<!-- UInt -->
<g id="node33" class="node">
<g id="a_node33"><a xlink:href="/v4.2/type/UInt/hierarchy/" target="_top">
<polygon fill="#999999" stroke="#999999" points="1574,-22 1520,-22 1520,-0 1574,-0 1574,-22"/>
<text text-anchor="middle" x="1547" y="-7.4" font-family="Helvetica,sans-Serif" font-size="12.00" fill="white">UInt</text>
</a>
</g>
</g>
<!-- FixedWidthInteger&#45;&gt;UInt -->
<g id="edge31" class="edge">
<path fill="none" stroke="#cccccc" d="M1853.6,-62.5712C1791.15,-55.7446 1684.55,-42.6078 1584.05,-21.999"/>
<polygon fill="#cccccc" stroke="#cccccc" points="1584.54,-18.5252 1574.03,-19.9154 1583.11,-25.3785 1584.54,-18.5252"/>
</g>
<!-- UInt16 -->
<g id="node34" class="node">
<g id="a_node34"><a xlink:href="/v4.2/type/UInt16/hierarchy/" target="_top">
<polygon fill="#999999" stroke="#999999" points="1646,-22 1592,-22 1592,-0 1646,-0 1646,-22"/>
<text text-anchor="middle" x="1619" y="-7.4" font-family="Helvetica,sans-Serif" font-size="12.00" fill="white">UInt16</text>
</a>
</g>
</g>
<!-- FixedWidthInteger&#45;&gt;UInt16 -->
<g id="edge32" class="edge">
<path fill="none" stroke="#cccccc" d="M1853.62,-59.6946C1804.61,-51.746 1729.82,-38.8013 1656,-22.0748"/>
<polygon fill="#cccccc" stroke="#cccccc" points="1656.59,-18.6202 1646.06,-19.7991 1655.03,-25.4435 1656.59,-18.6202"/>
</g>
<!-- UInt32 -->
<g id="node35" class="node">
<g id="a_node35"><a xlink:href="/v4.2/type/UInt32/hierarchy/" target="_top">
<polygon fill="#999999" stroke="#999999" points="1718,-22 1664,-22 1664,-0 1718,-0 1718,-22"/>
<text text-anchor="middle" x="1691" y="-7.4" font-family="Helvetica,sans-Serif" font-size="12.00" fill="white">UInt32</text>
</a>
</g>
</g>
<!-- FixedWidthInteger&#45;&gt;UInt32 -->
<g id="edge33" class="edge">
<path fill="none" stroke="#cccccc" d="M1866.55,-57.9168C1832.16,-49.2898 1781.24,-36.3793 1728.06,-22.2477"/>
<polygon fill="#cccccc" stroke="#cccccc" points="1728.67,-18.7885 1718.11,-19.5955 1726.87,-25.5525 1728.67,-18.7885"/>
</g>
<!-- UInt64 -->
<g id="node36" class="node">
<g id="a_node36"><a xlink:href="/v4.2/type/UInt64/hierarchy/" target="_top">
<polygon fill="#999999" stroke="#999999" points="1790,-22 1736,-22 1736,-0 1790,-0 1790,-22"/>
<text text-anchor="middle" x="1763" y="-7.4" font-family="Helvetica,sans-Serif" font-size="12.00" fill="white">UInt64</text>
</a>
</g>
</g>
<!-- FixedWidthInteger&#45;&gt;UInt64 -->
<g id="edge34" class="edge">
<path fill="none" stroke="#cccccc" d="M1881.26,-57.9883C1858.16,-49.0057 1824.05,-35.7398 1798.39,-25.7614"/>
<polygon fill="#cccccc" stroke="#cccccc" points="1799.6,-22.4763 1789.01,-22.1138 1797.06,-29.0004 1799.6,-22.4763"/>
</g>
<!-- UInt8 -->
<g id="node37" class="node">
<g id="a_node37"><a xlink:href="/v4.2/type/UInt8/hierarchy/" target="_top">
<polygon fill="#999999" stroke="#999999" points="1862,-22 1808,-22 1808,-0 1862,-0 1862,-22"/>
<text text-anchor="middle" x="1835" y="-7.4" font-family="Helvetica,sans-Serif" font-size="12.00" fill="white">UInt8</text>
</a>
</g>
</g>
<!-- FixedWidthInteger&#45;&gt;UInt8 -->
<g id="edge35" class="edge">
<path fill="none" stroke="#cccccc" d="M1894.13,-57.9883C1883.61,-49.8087 1868.53,-38.0773 1856.23,-28.5108"/>
<polygon fill="#cccccc" stroke="#cccccc" points="1858.29,-25.6806 1848.25,-22.3039 1853.99,-31.2061 1858.29,-25.6806"/>
</g>
<!-- FloatingPoint -->
<g id="node15" class="node">
<g id="a_node15"><a xlink:href="/v4.2/protocol/FloatingPoint/hierarchy/" target="_top">
<path fill="#999999" stroke="#999999" d="M2431.7,-138C2431.7,-138 2366.3,-138 2366.3,-138 2362.63,-138 2358.97,-134.333 2358.97,-130.667 2358.97,-130.667 2358.97,-123.333 2358.97,-123.333 2358.97,-119.667 2362.63,-116 2366.3,-116 2366.3,-116 2431.7,-116 2431.7,-116 2435.37,-116 2439.03,-119.667 2439.03,-123.333 2439.03,-123.333 2439.03,-130.667 2439.03,-130.667 2439.03,-134.333 2435.37,-138 2431.7,-138"/>
<text text-anchor="middle" x="2399" y="-123.4" font-family="Helvetica,sans-Serif" font-size="12.00" fill="white">FloatingPoint</text>
</a>
</g>
</g>
<!-- FloatingPoint&#45;&gt;BinaryFloatingPoint -->
<g id="edge46" class="edge">
<path fill="none" stroke="#cccccc" d="M2393.64,-115.988C2389.68,-108.595 2384.16,-98.3005 2379.35,-89.3253"/>
<polygon fill="#cccccc" stroke="#cccccc" points="2382.33,-87.4659 2374.52,-80.3039 2376.16,-90.7715 2382.33,-87.4659"/>
</g>
<!-- SignedInteger&#45;&gt;Int -->
<g id="edge36" class="edge">
<path fill="none" stroke="#cccccc" d="M2012.94,-57.9883C1992.52,-49.1244 1962.49,-36.0897 1939.62,-26.1587"/>
<polygon fill="#cccccc" stroke="#cccccc" points="1940.86,-22.8854 1930.3,-22.1138 1938.08,-29.3065 1940.86,-22.8854"/>
</g>
<!-- SignedInteger&#45;&gt;Int16 -->
<g id="edge37" class="edge">
<path fill="none" stroke="#cccccc" d="M2025.81,-57.9883C2017.72,-50.0446 2006.23,-38.7512 1996.65,-29.3439"/>
<polygon fill="#cccccc" stroke="#cccccc" points="1999.07,-26.8154 1989.49,-22.3039 1994.17,-31.8088 1999.07,-26.8154"/>
</g>
<!-- SignedInteger&#45;&gt;Int32 -->
<g id="edge38" class="edge">
<path fill="none" stroke="#cccccc" d="M2038.68,-57.9883C2040.6,-50.8311 2043.24,-40.9547 2045.59,-32.1885"/>
<polygon fill="#cccccc" stroke="#cccccc" points="2049.03,-32.869 2048.24,-22.3039 2042.27,-31.0578 2049.03,-32.869"/>
</g>
<!-- SignedInteger&#45;&gt;Int64 -->
<g id="edge39" class="edge">
<path fill="none" stroke="#cccccc" d="M2051.55,-57.9883C2064.59,-49.5993 2083.42,-37.4743 2098.48,-27.7804"/>
<polygon fill="#cccccc" stroke="#cccccc" points="2100.77,-30.4693 2107.29,-22.1138 2096.98,-24.5833 2100.77,-30.4693"/>
</g>
<!-- SignedInteger&#45;&gt;Int8 -->
<g id="edge40" class="edge">
<path fill="none" stroke="#cccccc" d="M2064.43,-57.9883C2090.63,-48.7577 2129.68,-35.0041 2158.25,-24.9426"/>
<polygon fill="#cccccc" stroke="#cccccc" points="2159.61,-28.1745 2167.88,-21.5512 2157.29,-21.572 2159.61,-28.1745"/>
</g>
<!-- Strideable&#45;&gt;BinaryInteger -->
<g id="edge16" class="edge">
<path fill="none" stroke="#cccccc" d="M2569.82,-181.107C2468.15,-171.969 2153.3,-143.667 2029.62,-132.55"/>
<polygon fill="#cccccc" stroke="#cccccc" points="2029.92,-129.063 2019.65,-131.654 2029.3,-136.035 2029.92,-129.063"/>
</g>
<!-- Strideable&#45;&gt;FloatingPoint -->
<g id="edge17" class="edge">
<path fill="none" stroke="#cccccc" d="M2569.83,-175.127C2536.28,-165.869 2483.35,-151.268 2445.29,-140.771"/>
<polygon fill="#cccccc" stroke="#cccccc" points="2446.05,-137.347 2435.47,-138.062 2444.18,-144.095 2446.05,-137.347"/>
</g>
<!-- String.UTF16View.Index -->
<g id="node30" class="node">
<g id="a_node30"><a xlink:href="/v4.2/type/String.UTF16View.Index/hierarchy/" target="_top">
<polygon fill="#999999" stroke="#999999" points="2595.39,-22 2456.61,-22 2456.61,-0 2595.39,-0 2595.39,-22"/>
<text text-anchor="middle" x="2526" y="-7.4" font-family="Helvetica,sans-Serif" font-size="12.00" fill="white">String.UTF16View.Index</text>
</a>
</g>
</g>
<!-- Strideable&#45;&gt;String.UTF16View.Index -->
<g id="edge22" class="edge">
<path fill="none" stroke="#cccccc" d="M2597.47,-173.756C2585.15,-145.859 2550.83,-68.185 2534.65,-31.5708"/>
<polygon fill="#cccccc" stroke="#cccccc" points="2537.84,-30.1404 2530.6,-22.4081 2531.44,-32.9695 2537.84,-30.1404"/>
</g>
<!-- UnsafeMutablePointer -->
<g id="node39" class="node">
<g id="a_node39"><a xlink:href="/v4.2/type/UnsafeMutablePointer/hierarchy/" target="_top">
<polygon fill="#999999" stroke="#999999" points="2742.05,-22 2613.95,-22 2613.95,-0 2742.05,-0 2742.05,-22"/>
<text text-anchor="middle" x="2678" y="-7.4" font-family="Helvetica,sans-Serif" font-size="12.00" fill="white">UnsafeMutablePointer</text>
</a>
</g>
</g>
<!-- Strideable&#45;&gt;UnsafeMutablePointer -->
<g id="edge18" class="edge">
<path fill="none" stroke="#cccccc" d="M2606.53,-173.756C2618.85,-145.859 2653.17,-68.185 2669.35,-31.5708"/>
<polygon fill="#cccccc" stroke="#cccccc" points="2672.56,-32.9695 2673.4,-22.4081 2666.16,-30.1404 2672.56,-32.9695"/>
</g>
<!-- UnsafeMutableRawPointer -->
<g id="node40" class="node">
<g id="a_node40"><a xlink:href="/v4.2/type/UnsafeMutableRawPointer/hierarchy/" target="_top">
<polygon fill="#999999" stroke="#999999" points="2913.06,-22 2760.94,-22 2760.94,-0 2913.06,-0 2913.06,-22"/>
<text text-anchor="middle" x="2837" y="-7.4" font-family="Helvetica,sans-Serif" font-size="12.00" fill="white">UnsafeMutableRawPointer</text>
</a>
</g>
</g>
<!-- Strideable&#45;&gt;UnsafeMutableRawPointer -->
<g id="edge19" class="edge">
<path fill="none" stroke="#cccccc" d="M2616,-173.756C2655.34,-144.956 2767.17,-63.1066 2814.94,-28.1489"/>
<polygon fill="#cccccc" stroke="#cccccc" points="2817.07,-30.9212 2823.08,-22.1906 2812.94,-25.2725 2817.07,-30.9212"/>
</g>
<!-- UnsafePointer -->
<g id="node41" class="node">
<g id="a_node41"><a xlink:href="/v4.2/type/UnsafePointer/hierarchy/" target="_top">
<polygon fill="#999999" stroke="#999999" points="3017.03,-22 2930.97,-22 2930.97,-0 3017.03,-0 3017.03,-22"/>
<text text-anchor="middle" x="2974" y="-7.4" font-family="Helvetica,sans-Serif" font-size="12.00" fill="white">UnsafePointer</text>
</a>
</g>
</g>
<!-- Strideable&#45;&gt;UnsafePointer -->
<g id="edge20" class="edge">
<path fill="none" stroke="#cccccc" d="M2623.88,-173.883C2686.93,-144.731 2869.16,-60.4753 2942.69,-26.4784"/>
<polygon fill="#cccccc" stroke="#cccccc" points="2944.3,-29.5864 2951.91,-22.2127 2941.37,-23.2327 2944.3,-29.5864"/>
</g>
<!-- UnsafeRawPointer -->
<g id="node42" class="node">
<g id="a_node42"><a xlink:href="/v4.2/type/UnsafeRawPointer/hierarchy/" target="_top">
<polygon fill="#999999" stroke="#999999" points="3145.04,-22 3034.96,-22 3034.96,-0 3145.04,-0 3145.04,-22"/>
<text text-anchor="middle" x="3090" y="-7.4" font-family="Helvetica,sans-Serif" font-size="12.00" fill="white">UnsafeRawPointer</text>
</a>
</g>
</g>
<!-- Strideable&#45;&gt;UnsafeRawPointer -->
<g id="edge21" class="edge">
<path fill="none" stroke="#cccccc" d="M2632.53,-173.949C2660.34,-164.749 2702.5,-150.677 2739,-138 2853.66,-98.1758 2988.62,-49.1082 3052.66,-25.6919"/>
<polygon fill="#cccccc" stroke="#cccccc" points="3054.12,-28.8823 3062.31,-22.1593 3051.72,-22.3085 3054.12,-28.8823"/>
</g>
<!-- String -->
<g id="node28" class="node">
<g id="a_node28"><a xlink:href="/v4.2/type/String/hierarchy/" target="_top">
<polygon fill="#999999" stroke="#999999" points="3387,-22 3333,-22 3333,-0 3387,-0 3387,-22"/>
<text text-anchor="middle" x="3360" y="-7.4" font-family="Helvetica,sans-Serif" font-size="12.00" fill="white">String</text>
</a>
</g>
</g>
<!-- StringProtocol&#45;&gt;String -->
<g id="edge50" class="edge">
<path fill="none" stroke="#cccccc" d="M3298.41,-57.9883C3309.43,-49.7576 3325.27,-37.9305 3338.13,-28.3316"/>
<polygon fill="#cccccc" stroke="#cccccc" points="3340.54,-30.9012 3346.45,-22.1138 3336.35,-25.2923 3340.54,-30.9012"/>
</g>
<!-- Substring -->
<g id="node32" class="node">
<g id="a_node32"><a xlink:href="/v4.2/type/Substring/hierarchy/" target="_top">
<polygon fill="#999999" stroke="#999999" points="3315.02,-22 3254.98,-22 3254.98,-0 3315.02,-0 3315.02,-22"/>
<text text-anchor="middle" x="3285" y="-7.4" font-family="Helvetica,sans-Serif" font-size="12.00" fill="white">Substring</text>
</a>
</g>
</g>
<!-- StringProtocol&#45;&gt;Substring -->
<g id="edge51" class="edge">
<path fill="none" stroke="#cccccc" d="M3285,-57.9883C3285,-50.9098 3285,-41.1714 3285,-32.4779"/>
<polygon fill="#cccccc" stroke="#cccccc" points="3288.5,-32.3038 3285,-22.3039 3281.5,-32.3039 3288.5,-32.3038"/>
</g>
<!-- UnsignedInteger&#45;&gt;UInt -->
<g id="edge41" class="edge">
<path fill="none" stroke="#cccccc" d="M1694.82,-57.9883C1663.66,-48.2947 1616.47,-33.6128 1583.83,-23.4573"/>
<polygon fill="#cccccc" stroke="#cccccc" points="1584.79,-20.0902 1574.2,-20.4615 1582.71,-26.7742 1584.79,-20.0902"/>
</g>
<!-- UnsignedInteger&#45;&gt;UInt16 -->
<g id="edge42" class="edge">
<path fill="none" stroke="#cccccc" d="M1707.69,-57.9883C1690.98,-49.3223 1666.58,-36.6696 1647.6,-26.8283"/>
<polygon fill="#cccccc" stroke="#cccccc" points="1648.99,-23.6099 1638.51,-22.1138 1645.77,-29.8242 1648.99,-23.6099"/>
</g>
<!-- UnsignedInteger&#45;&gt;UInt32 -->
<g id="edge43" class="edge">
<path fill="none" stroke="#cccccc" d="M1720.56,-57.9883C1715.71,-50.4379 1708.91,-39.8611 1703.06,-30.7543"/>
<polygon fill="#cccccc" stroke="#cccccc" points="1705.98,-28.823 1697.62,-22.3039 1700.09,-32.6083 1705.98,-28.823"/>
</g>
<!-- UnsignedInteger&#45;&gt;UInt64 -->
<g id="edge44" class="edge">
<path fill="none" stroke="#cccccc" d="M1733.44,-57.9883C1738.29,-50.4379 1745.09,-39.8611 1750.94,-30.7543"/>
<polygon fill="#cccccc" stroke="#cccccc" points="1753.91,-32.6083 1756.38,-22.3039 1748.02,-28.823 1753.91,-32.6083"/>
</g>
<!-- UnsignedInteger&#45;&gt;UInt8 -->
<g id="edge45" class="edge">
<path fill="none" stroke="#cccccc" d="M1746.31,-57.9883C1763.02,-49.3223 1787.42,-36.6696 1806.4,-26.8283"/>
<polygon fill="#cccccc" stroke="#cccccc" points="1808.23,-29.8242 1815.49,-22.1138 1805.01,-23.6099 1808.23,-29.8242"/>
</g>
</g>
</svg>
