<?xml version="1.0" encoding="UTF-8" standalone="no"?>
<!DOCTYPE svg PUBLIC "-//W3C//DTD SVG 1.1//EN"
 "http://www.w3.org/Graphics/SVG/1.1/DTD/svg11.dtd">
<!-- Generated by graphviz version 2.36.0 (20140111.2315)
 -->
<!-- Title: _SwiftNSOperatingSystemVersion &#45; Type Hierarchy &#45; SwiftDoc.org Pages: 1 -->
<svg width="206pt" height="253pt"
 viewBox="0.00 0.00 206.40 253.20" xmlns="http://www.w3.org/2000/svg" xmlns:xlink="http://www.w3.org/1999/xlink">
<g id="graph0" class="graph" transform="scale(1 1) rotate(0) translate(7.2 195.6)">
<title>_SwiftNSOperatingSystemVersion &#45; Type Hierarchy &#45; SwiftDoc.org</title>
<polygon fill="white" stroke="none" points="-7.2,57.6 -7.2,-195.6 199.2,-195.6 199.2,57.6 -7.2,57.6"/>
<!-- Comparable -->
<g id="node1" class="node"><title>Comparable</title>
<g id="a_node1"><a xlink:href="/protocol/Comparable/" xlink:title="Comparable">
<path fill="#999999" stroke="#999999" d="M93.1913,-80C93.1913,-80 32.8087,-80 32.8087,-80 29.1421,-80 25.4754,-76.3333 25.4754,-72.6667 25.4754,-72.6667 25.4754,-65.3333 25.4754,-65.3333 25.4754,-61.6667 29.1421,-58 32.8087,-58 32.8087,-58 93.1913,-58 93.1913,-58 96.8579,-58 100.525,-61.6667 100.525,-65.3333 100.525,-65.3333 100.525,-72.6667 100.525,-72.6667 100.525,-76.3333 96.8579,-80 93.1913,-80"/>
<text text-anchor="middle" x="63" y="-65.4" font-family="Helvetica,sans-Serif" font-size="12.00" fill="white">Comparable</text>
</a>
</g>
</g>
<!-- _SwiftNSOperatingSystemVersion -->
<g id="node3" class="node"><title>_SwiftNSOperatingSystemVersion</title>
<g id="a_node3"><a xlink:href="/type/_SwiftNSOperatingSystemVersion/" xlink:title="_SwiftNSOperatingSystemVersion">
<polygon fill="#ee543d" stroke="#ee543d" points="192.064,-22 -0.0644627,-22 -0.0644627,-0 192.064,-0 192.064,-22"/>
<text text-anchor="middle" x="96" y="-7.4" font-family="Helvetica,sans-Serif" font-size="12.00" fill="white">_SwiftNSOperatingSystemVersion</text>
</a>
</g>
</g>
<!-- Comparable&#45;&gt;_SwiftNSOperatingSystemVersion -->
<g id="edge1" class="edge"><title>Comparable&#45;&gt;_SwiftNSOperatingSystemVersion</title>
<path fill="none" stroke="#cccccc" d="M68.8997,-57.9883C73.3028,-50.5165 79.4522,-40.0812 84.7804,-31.0393"/>
<polygon fill="#cccccc" stroke="#cccccc" points="87.8665,-32.6962 89.9281,-22.3039 81.8357,-29.1423 87.8665,-32.6962"/>
</g>
<!-- Equatable -->
<g id="node2" class="node"><title>Equatable</title>
<g id="a_node2"><a xlink:href="/protocol/Equatable/" xlink:title="Equatable">
<path fill="#999999" stroke="#999999" d="M120.702,-138C120.702,-138 71.2982,-138 71.2982,-138 67.6315,-138 63.9648,-134.333 63.9648,-130.667 63.9648,-130.667 63.9648,-123.333 63.9648,-123.333 63.9648,-119.667 67.6315,-116 71.2982,-116 71.2982,-116 120.702,-116 120.702,-116 124.368,-116 128.035,-119.667 128.035,-123.333 128.035,-123.333 128.035,-130.667 128.035,-130.667 128.035,-134.333 124.368,-138 120.702,-138"/>
<text text-anchor="middle" x="96" y="-123.4" font-family="Helvetica,sans-Serif" font-size="12.00" fill="white">Equatable</text>
</a>
</g>
</g>
<!-- Equatable&#45;&gt;Comparable -->
<g id="edge3" class="edge"><title>Equatable&#45;&gt;Comparable</title>
<path fill="none" stroke="#cccccc" d="M90.1003,-115.988C85.6972,-108.517 79.5478,-98.0812 74.2196,-89.0393"/>
<polygon fill="#cccccc" stroke="#cccccc" points="77.1643,-87.1423 69.0719,-80.3039 71.1335,-90.6962 77.1643,-87.1423"/>
</g>
<!-- Equatable&#45;&gt;_SwiftNSOperatingSystemVersion -->
<g id="edge2" class="edge"><title>Equatable&#45;&gt;_SwiftNSOperatingSystemVersion</title>
<path fill="none" stroke="#cccccc" d="M99.7112,-115.941C102.898,-106.734 107.246,-92.6593 109,-80 110.342,-70.3148 110.342,-67.6852 109,-58 107.78,-49.1978 105.306,-39.7112 102.841,-31.6528"/>
<polygon fill="#cccccc" stroke="#cccccc" points="106.14,-30.4807 99.7112,-22.0595 99.4855,-32.6519 106.14,-30.4807"/>
</g>
</g>
</svg>
