<?xml version="1.0" encoding="UTF-8" standalone="no"?>
<!DOCTYPE svg PUBLIC "-//W3C//DTD SVG 1.1//EN"
 "http://www.w3.org/Graphics/SVG/1.1/DTD/svg11.dtd">
<!-- Generated by graphviz version 2.36.0 (20140111.2315)
 -->
<!-- Title: AnyRandomAccessIndex &#45; Type Hierarchy &#45; SwiftDoc.org Pages: 1 -->
<svg width="475pt" height="427pt"
 viewBox="0.00 0.00 475.40 427.20" xmlns="http://www.w3.org/2000/svg" xmlns:xlink="http://www.w3.org/1999/xlink">
<g id="graph0" class="graph" transform="scale(1 1) rotate(0) translate(7.2 369.6)">
<g transform="translate(0 -369.6)">
<g>
    <path fill="#666666" d="M13.846,10.832c-0.336-0.464-0.792-0.844-1.368-1.14s-1.224-0.444-1.944-0.444
        c-0.384,0-0.772,0.052-1.164,0.156C8.977,9.509,8.622,9.677,8.301,9.908c-0.32,0.232-0.58,0.52-0.78,0.864
        c-0.2,0.344-0.3,0.756-0.3,1.236c0,0.464,0.092,0.852,0.276,1.164c0.184,0.312,0.432,0.576,0.744,0.792s0.68,0.4,1.104,0.552
        c0.423,0.152,0.876,0.309,1.356,0.468c0.576,0.177,1.16,0.376,1.752,0.601c0.592,0.224,1.128,0.52,1.608,0.888
        s0.872,0.828,1.176,1.38s0.456,1.252,0.456,2.101c0,0.88-0.164,1.644-0.492,2.292c-0.328,0.647-0.765,1.184-1.308,1.607
        c-0.544,0.424-1.172,0.74-1.884,0.948s-1.444,0.312-2.196,0.312c-1.072,0-2.108-0.208-3.108-0.624
        c-1-0.415-1.828-1.031-2.484-1.848l1.848-1.56c0.4,0.592,0.936,1.071,1.608,1.439c0.672,0.368,1.399,0.552,2.184,0.552
        c0.4,0,0.8-0.056,1.2-0.168c0.4-0.111,0.764-0.288,1.092-0.527c0.328-0.24,0.596-0.54,0.804-0.9
        c0.208-0.36,0.312-0.796,0.312-1.308s-0.108-0.94-0.324-1.284c-0.216-0.344-0.508-0.636-0.876-0.876s-0.796-0.444-1.284-0.612
        c-0.488-0.168-1.004-0.34-1.548-0.516c-0.544-0.16-1.08-0.356-1.608-0.588c-0.528-0.232-1-0.528-1.416-0.889
        c-0.416-0.359-0.752-0.804-1.008-1.332c-0.256-0.527-0.384-1.184-0.384-1.968c0-0.848,0.172-1.576,0.516-2.184
        c0.344-0.608,0.792-1.112,1.344-1.512c0.552-0.4,1.176-0.692,1.872-0.876c0.696-0.184,1.396-0.276,2.1-0.276
        c0.992,0,1.92,0.176,2.784,0.528c0.864,0.352,1.56,0.824,2.088,1.416L13.846,10.832z"/>
    <path fill="#666666" d="M18.813,13.304l2.568,8.688h0.048l2.712-8.688h2.376l2.76,8.688h0.048l2.568-8.688h2.376L30.501,24.68
        h-2.352l-2.808-8.544h-0.048l-2.784,8.544h-2.352l-3.792-11.376H18.813z"/>
    <path fill="#666666" d="M38.685,9.2c0,0.416-0.147,0.76-0.44,1.032c-0.294,0.272-0.647,0.408-1.06,0.408s-0.762-0.14-1.047-0.42
        c-0.286-0.28-0.429-0.62-0.429-1.02c0-0.416,0.143-0.764,0.429-1.044c0.286-0.28,0.635-0.42,1.047-0.42s0.766,0.14,1.06,0.42
        C38.538,8.437,38.685,8.784,38.685,9.2z M38.325,24.68h-2.256V13.304h2.256V24.68z"/>
    <path fill="#666666" d="M47.613,15.152h-2.64v9.528h-2.256v-9.528h-2.256v-1.848h2.256v-2.376c0-0.672,0.076-1.292,0.228-1.86
        c0.152-0.568,0.4-1.06,0.744-1.476c0.344-0.416,0.784-0.744,1.32-0.984c0.536-0.24,1.188-0.36,1.956-0.36
        c0.544,0,1.016,0.056,1.416,0.168l-0.264,1.944c-0.176-0.048-0.352-0.088-0.528-0.12c-0.176-0.032-0.376-0.048-0.6-0.048
        c-0.432,0-0.78,0.076-1.044,0.228c-0.264,0.152-0.468,0.356-0.612,0.612s-0.24,0.548-0.288,0.876
        c-0.048,0.328-0.072,0.668-0.072,1.02v2.376h2.64V15.152z"/>
    <path fill="#666666" d="M54.909,15.152h-3.024v5.91c0,0.687,0.128,1.177,0.384,1.472c0.256,0.295,0.664,0.442,1.224,0.442
        c0.208,0,0.432-0.021,0.672-0.065c0.24-0.044,0.456-0.11,0.648-0.198l0.072,1.848c-0.272,0.096-0.572,0.172-0.9,0.229
        c-0.328,0.056-0.668,0.084-1.02,0.084c-1.072,0-1.892-0.296-2.46-0.889c-0.568-0.592-0.852-1.479-0.852-2.664v-6.168h-2.184
        v-1.848h2.184V10.04h2.232v3.264h3.024V15.152z"/>
    <path fill="#666666" d="M57.356,7.688h5.832c1.088,0,2.176,0.16,3.264,0.48c1.088,0.32,2.072,0.824,2.952,1.512
        s1.592,1.568,2.136,2.64c0.544,1.072,0.816,2.36,0.816,3.864c0,1.456-0.272,2.716-0.816,3.78s-1.256,1.943-2.136,2.64
        s-1.864,1.216-2.952,1.561c-1.088,0.344-2.176,0.516-3.264,0.516h-5.832V7.688z M59.732,22.593h2.976
        c1.024,0,1.972-0.145,2.844-0.432c0.872-0.288,1.624-0.704,2.256-1.248c0.632-0.544,1.124-1.216,1.476-2.017
        c0.352-0.8,0.528-1.704,0.528-2.712c0-1.056-0.176-1.983-0.528-2.784c-0.353-0.8-0.844-1.468-1.476-2.004
        c-0.632-0.536-1.384-0.944-2.256-1.224s-1.82-0.42-2.844-0.42h-2.976V22.593z"/>
    <path fill="#666666" d="M86.06,18.969c0,0.88-0.156,1.688-0.468,2.424c-0.312,0.736-0.744,1.372-1.296,1.908
        c-0.552,0.536-1.204,0.952-1.956,1.248c-0.752,0.296-1.56,0.443-2.424,0.443c-0.864,0-1.672-0.147-2.424-0.443
        c-0.752-0.296-1.4-0.712-1.944-1.248c-0.544-0.536-0.972-1.172-1.284-1.908c-0.312-0.735-0.468-1.544-0.468-2.424
        s0.156-1.684,0.468-2.412c0.312-0.728,0.74-1.356,1.284-1.884c0.543-0.528,1.191-0.939,1.944-1.236
        c0.752-0.296,1.56-0.444,2.424-0.444c0.864,0,1.672,0.148,2.424,0.444c0.752,0.297,1.404,0.708,1.956,1.236
        c0.552,0.527,0.984,1.156,1.296,1.884C85.904,17.285,86.06,18.089,86.06,18.969z M83.708,18.98c0-0.542-0.084-1.061-0.252-1.556
        c-0.169-0.494-0.414-0.929-0.734-1.304s-0.718-0.674-1.192-0.897s-1.015-0.335-1.625-0.335c-0.61,0-1.152,0.111-1.625,0.335
        c-0.474,0.224-0.871,0.522-1.191,0.897c-0.321,0.375-0.566,0.81-0.734,1.304C76.184,17.92,76.1,18.438,76.1,18.98
        c0,0.543,0.084,1.062,0.253,1.556c0.168,0.495,0.413,0.934,0.734,1.316c0.321,0.383,0.718,0.686,1.191,0.909
        c0.473,0.224,1.015,0.335,1.625,0.335c0.61,0,1.151-0.111,1.625-0.335s0.871-0.526,1.192-0.909s0.565-0.821,0.734-1.316
        C83.624,20.042,83.708,19.523,83.708,18.98z"/>
    <path fill="#666666" d="M96.428,16.184c-0.24-0.368-0.6-0.676-1.08-0.924s-0.992-0.372-1.536-0.372
        c-0.592,0-1.116,0.112-1.572,0.336c-0.456,0.225-0.844,0.524-1.164,0.9c-0.32,0.376-0.564,0.812-0.732,1.308
        s-0.252,1.017-0.252,1.56c0,0.545,0.084,1.064,0.252,1.561s0.412,0.933,0.732,1.308c0.32,0.376,0.712,0.677,1.176,0.9
        c0.464,0.225,0.992,0.336,1.584,0.336c0.576,0,1.1-0.111,1.572-0.336c0.472-0.224,0.86-0.528,1.164-0.912l1.512,1.368
        c-0.48,0.561-1.08,0.996-1.8,1.308c-0.72,0.312-1.536,0.468-2.448,0.468c-0.88,0-1.692-0.144-2.436-0.432
        c-0.744-0.288-1.388-0.691-1.932-1.212c-0.544-0.52-0.972-1.147-1.284-1.884s-0.468-1.561-0.468-2.473
        c0-0.896,0.152-1.711,0.456-2.447c0.304-0.736,0.728-1.368,1.272-1.896c0.543-0.527,1.188-0.936,1.932-1.224
        c0.744-0.288,1.548-0.433,2.412-0.433c0.8,0,1.596,0.16,2.388,0.48s1.419,0.784,1.884,1.392L96.428,16.184z"/>
    <path fill="#666666" d="M103.1,23.24c0,0.417-0.152,0.784-0.456,1.104c-0.304,0.32-0.688,0.479-1.152,0.479
        c-0.448,0-0.828-0.155-1.14-0.468c-0.312-0.312-0.468-0.676-0.468-1.092c0-0.432,0.152-0.804,0.456-1.116
        c0.304-0.312,0.688-0.468,1.152-0.468c0.464,0,0.848,0.152,1.152,0.456C102.947,22.44,103.1,22.808,103.1,23.24z"/>
    <path fill="#666666" d="M116.635,18.969c0,0.88-0.156,1.688-0.468,2.424c-0.312,0.736-0.744,1.372-1.296,1.908
        c-0.552,0.536-1.204,0.952-1.956,1.248c-0.752,0.296-1.56,0.443-2.424,0.443c-0.864,0-1.672-0.147-2.424-0.443
        c-0.752-0.296-1.4-0.712-1.944-1.248c-0.544-0.536-0.972-1.172-1.284-1.908c-0.312-0.735-0.468-1.544-0.468-2.424
        s0.156-1.684,0.468-2.412c0.312-0.728,0.74-1.356,1.284-1.884c0.543-0.528,1.191-0.939,1.944-1.236
        c0.752-0.296,1.56-0.444,2.424-0.444c0.864,0,1.672,0.148,2.424,0.444c0.752,0.297,1.404,0.708,1.956,1.236
        c0.552,0.527,0.984,1.156,1.296,1.884C116.479,17.285,116.635,18.089,116.635,18.969z M114.283,18.98
        c0-0.542-0.084-1.061-0.252-1.556c-0.169-0.494-0.414-0.929-0.734-1.304s-0.718-0.674-1.192-0.897s-1.015-0.335-1.625-0.335
        c-0.61,0-1.152,0.111-1.625,0.335c-0.474,0.224-0.871,0.522-1.191,0.897c-0.321,0.375-0.566,0.81-0.734,1.304
        c-0.169,0.495-0.253,1.014-0.253,1.556c0,0.543,0.084,1.062,0.253,1.556c0.168,0.495,0.413,0.934,0.734,1.316
        c0.321,0.383,0.718,0.686,1.191,0.909c0.473,0.224,1.015,0.335,1.625,0.335c0.61,0,1.151-0.111,1.625-0.335
        s0.871-0.526,1.192-0.909s0.565-0.821,0.734-1.316C114.199,20.042,114.283,19.523,114.283,18.98z"/>
    <path fill="#666666" d="M119.251,14.577c-0.016-0.48-0.04-0.904-0.072-1.272h2.136c0.032,0.288,0.056,0.62,0.072,0.996
        c0.016,0.376,0.024,0.684,0.024,0.924h0.072c0.32-0.672,0.788-1.212,1.404-1.62c0.616-0.408,1.308-0.612,2.076-0.612
        c0.352,0,0.648,0.033,0.888,0.097l-0.096,2.088c-0.32-0.08-0.664-0.12-1.032-0.12c-0.544,0-1.016,0.101-1.416,0.3
        c-0.4,0.2-0.732,0.468-0.996,0.805c-0.264,0.336-0.46,0.724-0.588,1.163c-0.128,0.44-0.192,0.9-0.192,1.381v5.976h-2.256v-8.928
        C119.275,15.449,119.267,15.056,119.251,14.577z"/>
    <path fill="#666666" d="M128.419,26.625c0.496,0.56,1.116,1.008,1.86,1.344c0.744,0.336,1.508,0.504,2.292,0.504
        c0.752,0,1.384-0.108,1.896-0.324s0.924-0.512,1.236-0.888s0.536-0.82,0.672-1.332c0.136-0.513,0.204-1.064,0.204-1.656v-1.464
        h-0.048c-0.416,0.641-0.984,1.128-1.704,1.464c-0.72,0.336-1.488,0.504-2.304,0.504c-0.864,0-1.652-0.151-2.364-0.456
        c-0.712-0.304-1.316-0.72-1.812-1.248c-0.496-0.527-0.88-1.147-1.152-1.859s-0.408-1.477-0.408-2.292
        c0-0.816,0.136-1.584,0.408-2.305c0.272-0.72,0.656-1.348,1.152-1.884c0.496-0.535,1.096-0.96,1.8-1.271
        c0.704-0.312,1.488-0.469,2.352-0.469c0.816,0,1.596,0.177,2.34,0.528c0.744,0.353,1.332,0.888,1.764,1.608h0.048v-1.824h2.184
        v10.8c0,0.832-0.104,1.628-0.312,2.388c-0.208,0.76-0.56,1.433-1.056,2.017s-1.144,1.052-1.944,1.404
        c-0.8,0.352-1.792,0.527-2.976,0.527c-0.992,0-1.988-0.18-2.988-0.54c-1-0.359-1.86-0.868-2.58-1.523L128.419,26.625z
         M129.091,18.873c0,0.527,0.084,1.031,0.253,1.512c0.168,0.479,0.417,0.904,0.746,1.271c0.329,0.369,0.726,0.664,1.192,0.889
        c0.465,0.224,0.995,0.336,1.589,0.336c0.577,0,1.107-0.104,1.589-0.312c0.481-0.207,0.891-0.491,1.228-0.852
        s0.598-0.784,0.782-1.272c0.185-0.487,0.277-1.012,0.277-1.571c0-0.544-0.093-1.057-0.277-1.536
        c-0.185-0.48-0.449-0.904-0.794-1.272c-0.345-0.367-0.755-0.66-1.228-0.876c-0.474-0.216-1-0.324-1.577-0.324
        c-0.594,0-1.124,0.108-1.589,0.324c-0.466,0.216-0.863,0.504-1.192,0.864s-0.578,0.784-0.746,1.271
        C129.175,17.812,129.091,18.329,129.091,18.873z"/>
</g>
<g><a xlink:href="/" pointer-events="all" target="_top"><polygon fill="none" points="0,0 145,0 145,35 0,35 0,0"/></a></g>

</g>


<!-- AnyRandomAccessIndex -->
<g id="node1" class="node">
<g id="a_node1"><a xlink:href="/v2.0/type/AnyRandomAccessIndex/" target="_top">
<polygon fill="#ee543d" stroke="#ee543d" points="297.051,-22 152.949,-22 152.949,-0 297.051,-0 297.051,-22"/>
<text text-anchor="middle" x="225" y="-7.4" font-family="Helvetica,sans-Serif" font-size="12.00" fill="white">AnyRandomAccessIndex</text>
</a>
</g>
</g>
<!-- BidirectionalIndexType -->
<g id="node2" class="node">
<g id="a_node2"><a xlink:href="/v2.0/protocol/BidirectionalIndexType/hierarchy/" target="_top">
<path fill="#999999" stroke="#999999" d="M282.725,-138C282.725,-138 167.275,-138 167.275,-138 163.608,-138 159.941,-134.333 159.941,-130.667 159.941,-130.667 159.941,-123.333 159.941,-123.333 159.941,-119.667 163.608,-116 167.275,-116 167.275,-116 282.725,-116 282.725,-116 286.392,-116 290.059,-119.667 290.059,-123.333 290.059,-123.333 290.059,-130.667 290.059,-130.667 290.059,-134.333 286.392,-138 282.725,-138"/>
<text text-anchor="middle" x="225" y="-123.4" font-family="Helvetica,sans-Serif" font-size="12.00" fill="white">BidirectionalIndexType</text>
</a>
</g>
</g>
<!-- RandomAccessIndexType -->
<g id="node6" class="node">
<g id="a_node6"><a xlink:href="/v2.0/protocol/RandomAccessIndexType/hierarchy/" target="_top">
<path fill="#999999" stroke="#999999" d="M292.225,-80C292.225,-80 157.775,-80 157.775,-80 154.108,-80 150.441,-76.3333 150.441,-72.6667 150.441,-72.6667 150.441,-65.3333 150.441,-65.3333 150.441,-61.6667 154.108,-58 157.775,-58 157.775,-58 292.225,-58 292.225,-58 295.892,-58 299.559,-61.6667 299.559,-65.3333 299.559,-65.3333 299.559,-72.6667 299.559,-72.6667 299.559,-76.3333 295.892,-80 292.225,-80"/>
<text text-anchor="middle" x="225" y="-65.4" font-family="Helvetica,sans-Serif" font-size="12.00" fill="white">RandomAccessIndexType</text>
</a>
</g>
</g>
<!-- BidirectionalIndexType&#45;&gt;RandomAccessIndexType -->
<g id="edge2" class="edge">
<path fill="none" stroke="#cccccc" d="M225,-115.988C225,-108.91 225,-99.1714 225,-90.4779"/>
<polygon fill="#cccccc" stroke="#cccccc" points="228.5,-90.3038 225,-80.3039 221.5,-90.3039 228.5,-90.3038"/>
</g>
<!-- Comparable -->
<g id="node3" class="node">
<g id="a_node3"><a xlink:href="/v2.0/protocol/Comparable/hierarchy/" target="_top">
<path fill="#999999" stroke="#999999" d="M67.1913,-254C67.1913,-254 6.80872,-254 6.80872,-254 3.14205,-254 -0.524616,-250.333 -0.524616,-246.667 -0.524616,-246.667 -0.524616,-239.333 -0.524616,-239.333 -0.524616,-235.667 3.14205,-232 6.80872,-232 6.80872,-232 67.1913,-232 67.1913,-232 70.8579,-232 74.5246,-235.667 74.5246,-239.333 74.5246,-239.333 74.5246,-246.667 74.5246,-246.667 74.5246,-250.333 70.8579,-254 67.1913,-254"/>
<text text-anchor="middle" x="37" y="-239.4" font-family="Helvetica,sans-Serif" font-size="12.00" fill="white">Comparable</text>
</a>
</g>
</g>
<!-- Strideable -->
<g id="node7" class="node">
<g id="a_node7"><a xlink:href="/v2.0/protocol/Strideable/hierarchy/" target="_top">
<path fill="#999999" stroke="#999999" d="M147.693,-196C147.693,-196 98.307,-196 98.307,-196 94.6403,-196 90.9736,-192.333 90.9736,-188.667 90.9736,-188.667 90.9736,-181.333 90.9736,-181.333 90.9736,-177.667 94.6403,-174 98.307,-174 98.307,-174 147.693,-174 147.693,-174 151.36,-174 155.026,-177.667 155.026,-181.333 155.026,-181.333 155.026,-188.667 155.026,-188.667 155.026,-192.333 151.36,-196 147.693,-196"/>
<text text-anchor="middle" x="123" y="-181.4" font-family="Helvetica,sans-Serif" font-size="12.00" fill="white">Strideable</text>
</a>
</g>
</g>
<!-- Comparable&#45;&gt;Strideable -->
<g id="edge8" class="edge">
<path fill="none" stroke="#cccccc" d="M52.3751,-231.988C65.2582,-223.599 83.8787,-211.474 98.7658,-201.78"/>
<polygon fill="#cccccc" stroke="#cccccc" points="100.998,-204.504 107.468,-196.114 97.1782,-198.638 100.998,-204.504"/>
</g>
<!-- Equatable -->
<g id="node4" class="node">
<g id="a_node4"><a xlink:href="/v2.0/protocol/Equatable/hierarchy/" target="_top">
<path fill="#999999" stroke="#999999" d="M156.702,-312C156.702,-312 107.298,-312 107.298,-312 103.632,-312 99.9648,-308.333 99.9648,-304.667 99.9648,-304.667 99.9648,-297.333 99.9648,-297.333 99.9648,-293.667 103.632,-290 107.298,-290 107.298,-290 156.702,-290 156.702,-290 160.368,-290 164.035,-293.667 164.035,-297.333 164.035,-297.333 164.035,-304.667 164.035,-304.667 164.035,-308.333 160.368,-312 156.702,-312"/>
<text text-anchor="middle" x="132" y="-297.4" font-family="Helvetica,sans-Serif" font-size="12.00" fill="white">Equatable</text>
</a>
</g>
</g>
<!-- Equatable&#45;&gt;Comparable -->
<g id="edge10" class="edge">
<path fill="none" stroke="#cccccc" d="M115.016,-289.988C100.516,-281.441 79.4369,-269.015 62.8439,-259.234"/>
<polygon fill="#cccccc" stroke="#cccccc" points="64.5494,-256.177 54.1574,-254.114 60.9947,-262.207 64.5494,-256.177"/>
</g>
<!-- _Incrementable -->
<g id="node8" class="node">
<g id="a_node8"><a xlink:href="/v2.0/protocol/_Incrementable/hierarchy/" target="_top">
<path fill="#999999" stroke="#999999" d="M266.705,-254C266.705,-254 189.295,-254 189.295,-254 185.628,-254 181.961,-250.333 181.961,-246.667 181.961,-246.667 181.961,-239.333 181.961,-239.333 181.961,-235.667 185.628,-232 189.295,-232 189.295,-232 266.705,-232 266.705,-232 270.372,-232 274.039,-235.667 274.039,-239.333 274.039,-239.333 274.039,-246.667 274.039,-246.667 274.039,-250.333 270.372,-254 266.705,-254"/>
<text text-anchor="middle" x="228" y="-239.4" font-family="Helvetica,sans-Serif" font-size="12.00" fill="white">_Incrementable</text>
</a>
</g>
</g>
<!-- Equatable&#45;&gt;_Incrementable -->
<g id="edge7" class="edge">
<path fill="none" stroke="#cccccc" d="M149.163,-289.988C163.815,-281.441 185.116,-269.015 201.884,-259.234"/>
<polygon fill="#cccccc" stroke="#cccccc" points="203.788,-262.176 210.662,-254.114 200.261,-256.129 203.788,-262.176"/>
</g>
<!-- ForwardIndexType -->
<g id="node5" class="node">
<g id="a_node5"><a xlink:href="/v2.0/protocol/ForwardIndexType/hierarchy/" target="_top">
<path fill="#999999" stroke="#999999" d="M275.206,-196C275.206,-196 180.794,-196 180.794,-196 177.127,-196 173.461,-192.333 173.461,-188.667 173.461,-188.667 173.461,-181.333 173.461,-181.333 173.461,-177.667 177.127,-174 180.794,-174 180.794,-174 275.206,-174 275.206,-174 278.873,-174 282.539,-177.667 282.539,-181.333 282.539,-181.333 282.539,-188.667 282.539,-188.667 282.539,-192.333 278.873,-196 275.206,-196"/>
<text text-anchor="middle" x="228" y="-181.4" font-family="Helvetica,sans-Serif" font-size="12.00" fill="white">ForwardIndexType</text>
</a>
</g>
</g>
<!-- ForwardIndexType&#45;&gt;BidirectionalIndexType -->
<g id="edge5" class="edge">
<path fill="none" stroke="#cccccc" d="M227.464,-173.988C227.084,-166.91 226.563,-157.171 226.097,-148.478"/>
<polygon fill="#cccccc" stroke="#cccccc" points="229.582,-148.102 225.552,-138.304 222.592,-148.477 229.582,-148.102"/>
</g>
<!-- RandomAccessIndexType&#45;&gt;AnyRandomAccessIndex -->
<g id="edge1" class="edge">
<path fill="none" stroke="#cccccc" d="M225,-57.9883C225,-50.9098 225,-41.1714 225,-32.4779"/>
<polygon fill="#cccccc" stroke="#cccccc" points="228.5,-32.3038 225,-22.3039 221.5,-32.3039 228.5,-32.3038"/>
</g>
<!-- Strideable&#45;&gt;RandomAccessIndexType -->
<g id="edge3" class="edge">
<path fill="none" stroke="#cccccc" d="M125.124,-173.739C128.514,-159.444 136.314,-133.343 151,-116 162.066,-102.932 177.815,-92.4259 191.942,-84.772"/>
<polygon fill="#cccccc" stroke="#cccccc" points="193.631,-87.8394 200.926,-80.1558 190.431,-81.6133 193.631,-87.8394"/>
</g>
<!-- _Incrementable&#45;&gt;ForwardIndexType -->
<g id="edge6" class="edge">
<path fill="none" stroke="#cccccc" d="M228,-231.988C228,-224.91 228,-215.171 228,-206.478"/>
<polygon fill="#cccccc" stroke="#cccccc" points="231.5,-206.304 228,-196.304 224.5,-206.304 231.5,-206.304"/>
</g>
<!-- _RandomAccessAmbiguity -->
<g id="node9" class="node">
<g id="a_node9"><a xlink:href="/v2.0/protocol/_RandomAccessAmbiguity/hierarchy/" target="_top">
<path fill="#999999" stroke="#999999" d="M454.214,-138C454.214,-138 315.786,-138 315.786,-138 312.12,-138 308.453,-134.333 308.453,-130.667 308.453,-130.667 308.453,-123.333 308.453,-123.333 308.453,-119.667 312.12,-116 315.786,-116 315.786,-116 454.214,-116 454.214,-116 457.88,-116 461.547,-119.667 461.547,-123.333 461.547,-123.333 461.547,-130.667 461.547,-130.667 461.547,-134.333 457.88,-138 454.214,-138"/>
<text text-anchor="middle" x="385" y="-123.4" font-family="Helvetica,sans-Serif" font-size="12.00" fill="white">_RandomAccessAmbiguity</text>
</a>
</g>
</g>
<!-- _RandomAccessAmbiguity&#45;&gt;RandomAccessIndexType -->
<g id="edge4" class="edge">
<path fill="none" stroke="#cccccc" d="M356.395,-115.988C330.424,-106.898 291.921,-93.4223 263.301,-83.4053"/>
<polygon fill="#cccccc" stroke="#cccccc" points="264.221,-80.0193 253.626,-80.0192 261.909,-86.6263 264.221,-80.0193"/>
</g>
<!-- _Strideable -->
<g id="node10" class="node">
<g id="a_node10"><a xlink:href="/v2.0/protocol/_Strideable/hierarchy/" target="_top">
<path fill="#999999" stroke="#999999" d="M155.7,-254C155.7,-254 100.3,-254 100.3,-254 96.6336,-254 92.9669,-250.333 92.9669,-246.667 92.9669,-246.667 92.9669,-239.333 92.9669,-239.333 92.9669,-235.667 96.6336,-232 100.3,-232 100.3,-232 155.7,-232 155.7,-232 159.366,-232 163.033,-235.667 163.033,-239.333 163.033,-239.333 163.033,-246.667 163.033,-246.667 163.033,-250.333 159.366,-254 155.7,-254"/>
<text text-anchor="middle" x="128" y="-239.4" font-family="Helvetica,sans-Serif" font-size="12.00" fill="white">_Strideable</text>
</a>
</g>
</g>
<!-- _Strideable&#45;&gt;Strideable -->
<g id="edge9" class="edge">
<path fill="none" stroke="#cccccc" d="M127.106,-231.988C126.474,-224.91 125.605,-215.171 124.828,-206.478"/>
<polygon fill="#cccccc" stroke="#cccccc" points="128.296,-205.953 123.92,-196.304 121.323,-206.576 128.296,-205.953"/>
</g>
</g>
</svg>
