<?xml version="1.0" encoding="UTF-8" standalone="no"?>
<!DOCTYPE svg PUBLIC "-//W3C//DTD SVG 1.1//EN"
 "http://www.w3.org/Graphics/SVG/1.1/DTD/svg11.dtd">
<!-- Generated by graphviz version 2.36.0 (20140111.2315)
 -->
<!-- Title: ReverseRandomAccessIndex&lt;I : RandomAccessIndexType&gt; &#45; Type Hierarchy &#45; SwiftDoc.org Pages: 1 -->
<svg width="388pt" height="485pt"
 viewBox="0.00 0.00 388.40 485.20" xmlns="http://www.w3.org/2000/svg" xmlns:xlink="http://www.w3.org/1999/xlink">
<g id="graph0" class="graph" transform="scale(1 1) rotate(0) translate(7.2 427.6)">
<title>ReverseRandomAccessIndex&lt;I : RandomAccessIndexType&gt; &#45; Type Hierarchy &#45; SwiftDoc.org</title>
<polygon fill="white" stroke="none" points="-7.2,57.6 -7.2,-427.6 381.2,-427.6 381.2,57.6 -7.2,57.6"/>
<!-- BidirectionalIndexType -->
<g id="node1" class="node"><title>BidirectionalIndexType</title>
<g id="a_node1"><a xlink:href="/protocol/BidirectionalIndexType/" xlink:title="BidirectionalIndexType">
<path fill="#999999" stroke="#999999" d="M338.725,-138C338.725,-138 223.275,-138 223.275,-138 219.608,-138 215.941,-134.333 215.941,-130.667 215.941,-130.667 215.941,-123.333 215.941,-123.333 215.941,-119.667 219.608,-116 223.275,-116 223.275,-116 338.725,-116 338.725,-116 342.392,-116 346.059,-119.667 346.059,-123.333 346.059,-123.333 346.059,-130.667 346.059,-130.667 346.059,-134.333 342.392,-138 338.725,-138"/>
<text text-anchor="middle" x="281" y="-123.4" font-family="Helvetica,sans-Serif" font-size="12.00" fill="white">BidirectionalIndexType</text>
</a>
</g>
</g>
<!-- RandomAccessIndexType -->
<g id="node5" class="node"><title>RandomAccessIndexType</title>
<g id="a_node5"><a xlink:href="/protocol/RandomAccessIndexType/" xlink:title="RandomAccessIndexType">
<path fill="#999999" stroke="#999999" d="M267.225,-80C267.225,-80 132.775,-80 132.775,-80 129.108,-80 125.441,-76.3333 125.441,-72.6667 125.441,-72.6667 125.441,-65.3333 125.441,-65.3333 125.441,-61.6667 129.108,-58 132.775,-58 132.775,-58 267.225,-58 267.225,-58 270.892,-58 274.559,-61.6667 274.559,-65.3333 274.559,-65.3333 274.559,-72.6667 274.559,-72.6667 274.559,-76.3333 270.892,-80 267.225,-80"/>
<text text-anchor="middle" x="200" y="-65.4" font-family="Helvetica,sans-Serif" font-size="12.00" fill="white">RandomAccessIndexType</text>
</a>
</g>
</g>
<!-- BidirectionalIndexType&#45;&gt;RandomAccessIndexType -->
<g id="edge2" class="edge"><title>BidirectionalIndexType&#45;&gt;RandomAccessIndexType</title>
<path fill="none" stroke="#cccccc" d="M266.519,-115.988C254.499,-107.678 237.177,-95.7028 223.223,-86.0554"/>
<polygon fill="#cccccc" stroke="#cccccc" points="224.845,-82.9217 214.629,-80.1138 220.864,-88.6796 224.845,-82.9217"/>
</g>
<!-- Comparable -->
<g id="node2" class="node"><title>Comparable</title>
<g id="a_node2"><a xlink:href="/protocol/Comparable/" xlink:title="Comparable">
<path fill="#999999" stroke="#999999" d="M71.1913,-312C71.1913,-312 10.8087,-312 10.8087,-312 7.14205,-312 3.47538,-308.333 3.47538,-304.667 3.47538,-304.667 3.47538,-297.333 3.47538,-297.333 3.47538,-293.667 7.14205,-290 10.8087,-290 10.8087,-290 71.1913,-290 71.1913,-290 74.8579,-290 78.5246,-293.667 78.5246,-297.333 78.5246,-297.333 78.5246,-304.667 78.5246,-304.667 78.5246,-308.333 74.8579,-312 71.1913,-312"/>
<text text-anchor="middle" x="41" y="-297.4" font-family="Helvetica,sans-Serif" font-size="12.00" fill="white">Comparable</text>
</a>
</g>
</g>
<!-- Strideable -->
<g id="node7" class="node"><title>Strideable</title>
<g id="a_node7"><a xlink:href="/protocol/Strideable/" xlink:title="Strideable">
<path fill="#999999" stroke="#999999" d="M106.693,-254C106.693,-254 57.307,-254 57.307,-254 53.6403,-254 49.9736,-250.333 49.9736,-246.667 49.9736,-246.667 49.9736,-239.333 49.9736,-239.333 49.9736,-235.667 53.6403,-232 57.307,-232 57.307,-232 106.693,-232 106.693,-232 110.36,-232 114.026,-235.667 114.026,-239.333 114.026,-239.333 114.026,-246.667 114.026,-246.667 114.026,-250.333 110.36,-254 106.693,-254"/>
<text text-anchor="middle" x="82" y="-239.4" font-family="Helvetica,sans-Serif" font-size="12.00" fill="white">Strideable</text>
</a>
</g>
</g>
<!-- Comparable&#45;&gt;Strideable -->
<g id="edge12" class="edge"><title>Comparable&#45;&gt;Strideable</title>
<path fill="none" stroke="#cccccc" d="M48.33,-289.988C53.9156,-282.359 61.7632,-271.64 68.4772,-262.47"/>
<polygon fill="#cccccc" stroke="#cccccc" points="71.3727,-264.44 74.4561,-254.304 65.7246,-260.305 71.3727,-264.44"/>
</g>
<!-- Equatable -->
<g id="node3" class="node"><title>Equatable</title>
<g id="a_node3"><a xlink:href="/protocol/Equatable/" xlink:title="Equatable">
<path fill="#999999" stroke="#999999" d="M206.702,-370C206.702,-370 157.298,-370 157.298,-370 153.632,-370 149.965,-366.333 149.965,-362.667 149.965,-362.667 149.965,-355.333 149.965,-355.333 149.965,-351.667 153.632,-348 157.298,-348 157.298,-348 206.702,-348 206.702,-348 210.368,-348 214.035,-351.667 214.035,-355.333 214.035,-355.333 214.035,-362.667 214.035,-362.667 214.035,-366.333 210.368,-370 206.702,-370"/>
<text text-anchor="middle" x="182" y="-355.4" font-family="Helvetica,sans-Serif" font-size="12.00" fill="white">Equatable</text>
</a>
</g>
</g>
<!-- Equatable&#45;&gt;Comparable -->
<g id="edge15" class="edge"><title>Equatable&#45;&gt;Comparable</title>
<path fill="none" stroke="#cccccc" d="M156.792,-347.988C134.275,-339.045 101.068,-325.857 75.9818,-315.893"/>
<polygon fill="#cccccc" stroke="#cccccc" points="77.0509,-312.552 66.4651,-312.114 74.467,-319.058 77.0509,-312.552"/>
</g>
<!-- _Incrementable -->
<g id="node11" class="node"><title>_Incrementable</title>
<g id="a_node11"><a xlink:href="/protocol/_Incrementable/" xlink:title="_Incrementable">
<path fill="#999999" stroke="#999999" d="M270.705,-312C270.705,-312 193.295,-312 193.295,-312 189.628,-312 185.961,-308.333 185.961,-304.667 185.961,-304.667 185.961,-297.333 185.961,-297.333 185.961,-293.667 189.628,-290 193.295,-290 193.295,-290 270.705,-290 270.705,-290 274.372,-290 278.039,-293.667 278.039,-297.333 278.039,-297.333 278.039,-304.667 278.039,-304.667 278.039,-308.333 274.372,-312 270.705,-312"/>
<text text-anchor="middle" x="232" y="-297.4" font-family="Helvetica,sans-Serif" font-size="12.00" fill="white">_Incrementable</text>
</a>
</g>
</g>
<!-- Equatable&#45;&gt;_Incrementable -->
<g id="edge8" class="edge"><title>Equatable&#45;&gt;_Incrementable</title>
<path fill="none" stroke="#cccccc" d="M190.939,-347.988C197.891,-340.202 207.717,-329.197 216.013,-319.905"/>
<polygon fill="#cccccc" stroke="#cccccc" points="218.751,-322.094 222.8,-312.304 213.529,-317.432 218.751,-322.094"/>
</g>
<!-- ForwardIndexType -->
<g id="node4" class="node"><title>ForwardIndexType</title>
<g id="a_node4"><a xlink:href="/protocol/ForwardIndexType/" xlink:title="ForwardIndexType">
<path fill="#999999" stroke="#999999" d="M367.206,-196C367.206,-196 272.794,-196 272.794,-196 269.127,-196 265.461,-192.333 265.461,-188.667 265.461,-188.667 265.461,-181.333 265.461,-181.333 265.461,-177.667 269.127,-174 272.794,-174 272.794,-174 367.206,-174 367.206,-174 370.873,-174 374.539,-177.667 374.539,-181.333 374.539,-181.333 374.539,-188.667 374.539,-188.667 374.539,-192.333 370.873,-196 367.206,-196"/>
<text text-anchor="middle" x="320" y="-181.4" font-family="Helvetica,sans-Serif" font-size="12.00" fill="white">ForwardIndexType</text>
</a>
</g>
</g>
<!-- ForwardIndexType&#45;&gt;BidirectionalIndexType -->
<g id="edge4" class="edge"><title>ForwardIndexType&#45;&gt;BidirectionalIndexType</title>
<path fill="none" stroke="#cccccc" d="M313.028,-173.988C307.769,-166.438 300.403,-155.861 294.061,-146.754"/>
<polygon fill="#cccccc" stroke="#cccccc" points="296.763,-144.51 288.176,-138.304 291.019,-148.51 296.763,-144.51"/>
</g>
<!-- ReverseRandomAccessIndex&lt;I : RandomAccessIndexType&gt; -->
<g id="node6" class="node"><title>ReverseRandomAccessIndex&lt;I : RandomAccessIndexType&gt;</title>
<g id="a_node6"><a xlink:href="/type/ReverseRandomAccessIndex/" xlink:title="ReverseRandomAccessIndex&lt;I : RandomAccessIndexType&gt;">
<polygon fill="#ee543d" stroke="#ee543d" points="367.129,-22 32.8714,-22 32.8714,-0 367.129,-0 367.129,-22"/>
<text text-anchor="middle" x="200" y="-7.4" font-family="Helvetica,sans-Serif" font-size="12.00" fill="white">ReverseRandomAccessIndex&lt;I : RandomAccessIndexType&gt;</text>
</a>
</g>
</g>
<!-- RandomAccessIndexType&#45;&gt;ReverseRandomAccessIndex&lt;I : RandomAccessIndexType&gt; -->
<g id="edge1" class="edge"><title>RandomAccessIndexType&#45;&gt;ReverseRandomAccessIndex&lt;I : RandomAccessIndexType&gt;</title>
<path fill="none" stroke="#cccccc" d="M200,-57.9883C200,-50.9098 200,-41.1714 200,-32.4779"/>
<polygon fill="#cccccc" stroke="#cccccc" points="203.5,-32.3038 200,-22.3039 196.5,-32.3039 203.5,-32.3038"/>
</g>
<!-- _RandomAccessIndexType -->
<g id="node12" class="node"><title>_RandomAccessIndexType</title>
<g id="a_node12"><a xlink:href="/protocol/_RandomAccessIndexType/" xlink:title="_RandomAccessIndexType">
<path fill="#999999" stroke="#999999" d="M190.731,-138C190.731,-138 49.2689,-138 49.2689,-138 45.6022,-138 41.9355,-134.333 41.9355,-130.667 41.9355,-130.667 41.9355,-123.333 41.9355,-123.333 41.9355,-119.667 45.6022,-116 49.2689,-116 49.2689,-116 190.731,-116 190.731,-116 194.398,-116 198.064,-119.667 198.064,-123.333 198.064,-123.333 198.064,-130.667 198.064,-130.667 198.064,-134.333 194.398,-138 190.731,-138"/>
<text text-anchor="middle" x="120" y="-123.4" font-family="Helvetica,sans-Serif" font-size="12.00" fill="white">_RandomAccessIndexType</text>
</a>
</g>
</g>
<!-- Strideable&#45;&gt;_RandomAccessIndexType -->
<g id="edge11" class="edge"><title>Strideable&#45;&gt;_RandomAccessIndexType</title>
<path fill="none" stroke="#cccccc" d="M84.4591,-231.745C87.768,-218.331 94.0467,-194.163 101,-174 104.05,-165.155 107.919,-155.563 111.369,-147.438"/>
<polygon fill="#cccccc" stroke="#cccccc" points="114.652,-148.664 115.421,-138.098 108.23,-145.879 114.652,-148.664"/>
</g>
<!-- _BidirectionalIndexType -->
<g id="node8" class="node"><title>_BidirectionalIndexType</title>
<g id="a_node8"><a xlink:href="/protocol/_BidirectionalIndexType/" xlink:title="_BidirectionalIndexType">
<path fill="#999999" stroke="#999999" d="M240.23,-196C240.23,-196 117.77,-196 117.77,-196 114.104,-196 110.437,-192.333 110.437,-188.667 110.437,-188.667 110.437,-181.333 110.437,-181.333 110.437,-177.667 114.104,-174 117.77,-174 117.77,-174 240.23,-174 240.23,-174 243.896,-174 247.563,-177.667 247.563,-181.333 247.563,-181.333 247.563,-188.667 247.563,-188.667 247.563,-192.333 243.896,-196 240.23,-196"/>
<text text-anchor="middle" x="179" y="-181.4" font-family="Helvetica,sans-Serif" font-size="12.00" fill="white">_BidirectionalIndexType</text>
</a>
</g>
</g>
<!-- _BidirectionalIndexType&#45;&gt;BidirectionalIndexType -->
<g id="edge5" class="edge"><title>_BidirectionalIndexType&#45;&gt;BidirectionalIndexType</title>
<path fill="none" stroke="#cccccc" d="M197.236,-173.988C212.948,-165.362 235.856,-152.785 253.745,-142.963"/>
<polygon fill="#cccccc" stroke="#cccccc" points="255.497,-145.994 262.578,-138.114 252.128,-139.858 255.497,-145.994"/>
</g>
<!-- _BidirectionalIndexType&#45;&gt;_RandomAccessIndexType -->
<g id="edge10" class="edge"><title>_BidirectionalIndexType&#45;&gt;_RandomAccessIndexType</title>
<path fill="none" stroke="#cccccc" d="M168.452,-173.988C160.083,-166.045 148.184,-154.751 138.273,-145.344"/>
<polygon fill="#cccccc" stroke="#cccccc" points="140.518,-142.65 130.856,-138.304 135.699,-147.727 140.518,-142.65"/>
</g>
<!-- _Comparable -->
<g id="node9" class="node"><title>_Comparable</title>
<g id="a_node9"><a xlink:href="/protocol/_Comparable/" xlink:title="_Comparable">
<path fill="#999999" stroke="#999999" d="M74.6974,-370C74.6974,-370 7.30257,-370 7.30257,-370 3.6359,-370 -0.0307668,-366.333 -0.0307668,-362.667 -0.0307668,-362.667 -0.0307668,-355.333 -0.0307668,-355.333 -0.0307668,-351.667 3.6359,-348 7.30257,-348 7.30257,-348 74.6974,-348 74.6974,-348 78.3641,-348 82.0308,-351.667 82.0308,-355.333 82.0308,-355.333 82.0308,-362.667 82.0308,-362.667 82.0308,-366.333 78.3641,-370 74.6974,-370"/>
<text text-anchor="middle" x="41" y="-355.4" font-family="Helvetica,sans-Serif" font-size="12.00" fill="white">_Comparable</text>
</a>
</g>
</g>
<!-- _Comparable&#45;&gt;Comparable -->
<g id="edge14" class="edge"><title>_Comparable&#45;&gt;Comparable</title>
<path fill="none" stroke="#cccccc" d="M41,-347.988C41,-340.91 41,-331.171 41,-322.478"/>
<polygon fill="#cccccc" stroke="#cccccc" points="44.5001,-322.304 41,-312.304 37.5001,-322.304 44.5001,-322.304"/>
</g>
<!-- _ForwardIndexType -->
<g id="node10" class="node"><title>_ForwardIndexType</title>
<g id="a_node10"><a xlink:href="/protocol/_ForwardIndexType/" xlink:title="_ForwardIndexType">
<path fill="#999999" stroke="#999999" d="M282.712,-254C282.712,-254 181.288,-254 181.288,-254 177.621,-254 173.955,-250.333 173.955,-246.667 173.955,-246.667 173.955,-239.333 173.955,-239.333 173.955,-235.667 177.621,-232 181.288,-232 181.288,-232 282.712,-232 282.712,-232 286.379,-232 290.045,-235.667 290.045,-239.333 290.045,-239.333 290.045,-246.667 290.045,-246.667 290.045,-250.333 286.379,-254 282.712,-254"/>
<text text-anchor="middle" x="232" y="-239.4" font-family="Helvetica,sans-Serif" font-size="12.00" fill="white">_ForwardIndexType</text>
</a>
</g>
</g>
<!-- _ForwardIndexType&#45;&gt;ForwardIndexType -->
<g id="edge6" class="edge"><title>_ForwardIndexType&#45;&gt;ForwardIndexType</title>
<path fill="none" stroke="#cccccc" d="M247.733,-231.988C261.04,-223.52 280.329,-211.245 295.632,-201.507"/>
<polygon fill="#cccccc" stroke="#cccccc" points="297.549,-204.435 304.107,-196.114 293.791,-198.53 297.549,-204.435"/>
</g>
<!-- _ForwardIndexType&#45;&gt;_BidirectionalIndexType -->
<g id="edge9" class="edge"><title>_ForwardIndexType&#45;&gt;_BidirectionalIndexType</title>
<path fill="none" stroke="#cccccc" d="M222.525,-231.988C215.081,-224.123 204.529,-212.974 195.68,-203.624"/>
<polygon fill="#cccccc" stroke="#cccccc" points="198.168,-201.161 188.752,-196.304 193.084,-205.973 198.168,-201.161"/>
</g>
<!-- _Incrementable&#45;&gt;_ForwardIndexType -->
<g id="edge7" class="edge"><title>_Incrementable&#45;&gt;_ForwardIndexType</title>
<path fill="none" stroke="#cccccc" d="M232,-289.988C232,-282.91 232,-273.171 232,-264.478"/>
<polygon fill="#cccccc" stroke="#cccccc" points="235.5,-264.304 232,-254.304 228.5,-264.304 235.5,-264.304"/>
</g>
<!-- _RandomAccessIndexType&#45;&gt;RandomAccessIndexType -->
<g id="edge3" class="edge"><title>_RandomAccessIndexType&#45;&gt;RandomAccessIndexType</title>
<path fill="none" stroke="#cccccc" d="M134.302,-115.988C146.174,-107.678 163.282,-95.7028 177.064,-86.0554"/>
<polygon fill="#cccccc" stroke="#cccccc" points="179.366,-88.7158 185.552,-80.1138 175.352,-82.9812 179.366,-88.7158"/>
</g>
<!-- _Strideable -->
<g id="node13" class="node"><title>_Strideable</title>
<g id="a_node13"><a xlink:href="/protocol/_Strideable/" xlink:title="_Strideable">
<path fill="#999999" stroke="#999999" d="M159.7,-312C159.7,-312 104.3,-312 104.3,-312 100.634,-312 96.9669,-308.333 96.9669,-304.667 96.9669,-304.667 96.9669,-297.333 96.9669,-297.333 96.9669,-293.667 100.634,-290 104.3,-290 104.3,-290 159.7,-290 159.7,-290 163.366,-290 167.033,-293.667 167.033,-297.333 167.033,-297.333 167.033,-304.667 167.033,-304.667 167.033,-308.333 163.366,-312 159.7,-312"/>
<text text-anchor="middle" x="132" y="-297.4" font-family="Helvetica,sans-Serif" font-size="12.00" fill="white">_Strideable</text>
</a>
</g>
</g>
<!-- _Strideable&#45;&gt;Strideable -->
<g id="edge13" class="edge"><title>_Strideable&#45;&gt;Strideable</title>
<path fill="none" stroke="#cccccc" d="M123.061,-289.988C116.109,-282.202 106.283,-271.197 97.9865,-261.905"/>
<polygon fill="#cccccc" stroke="#cccccc" points="100.471,-259.432 91.1999,-254.304 95.2493,-264.094 100.471,-259.432"/>
</g>
</g>
</svg>
