<?xml version="1.0" encoding="UTF-8" standalone="no"?>
<!DOCTYPE svg PUBLIC "-//W3C//DTD SVG 1.1//EN"
 "http://www.w3.org/Graphics/SVG/1.1/DTD/svg11.dtd">
<!-- Generated by graphviz version 2.36.0 (20140111.2315)
 -->
<!-- Title: SinkType &#45; Type Hierarchy &#45; SwiftDoc.org Pages: 1 -->
<svg width="214pt" height="195pt"
 viewBox="0.00 0.00 214.40 195.20" xmlns="http://www.w3.org/2000/svg" xmlns:xlink="http://www.w3.org/1999/xlink">
<g id="graph0" class="graph" transform="scale(1 1) rotate(0) translate(7.2 137.6)">
<title>SinkType &#45; Type Hierarchy &#45; SwiftDoc.org</title>
<polygon fill="white" stroke="none" points="-7.2,57.6 -7.2,-137.6 207.2,-137.6 207.2,57.6 -7.2,57.6"/>
<!-- SinkOf -->
<g id="node1" class="node"><title>SinkOf</title>
<g id="a_node1"><a xlink:href="/type/SinkOf/" xlink:title="SinkOf">
<polygon fill="#999999" stroke="#999999" points="54,-22 0,-22 0,-0 54,-0 54,-22"/>
<text text-anchor="middle" x="27" y="-7.4" font-family="Helvetica,sans-Serif" font-size="12.00" fill="white">SinkOf</text>
</a>
</g>
</g>
<!-- SinkType -->
<g id="node2" class="node"><title>SinkType</title>
<g id="a_node2"><a xlink:href="/protocol/SinkType/" xlink:title="SinkType">
<path fill="#ee543d" stroke="#ee543d" d="M103.19,-80C103.19,-80 58.8104,-80 58.8104,-80 55.1437,-80 51.4771,-76.3333 51.4771,-72.6667 51.4771,-72.6667 51.4771,-65.3333 51.4771,-65.3333 51.4771,-61.6667 55.1437,-58 58.8104,-58 58.8104,-58 103.19,-58 103.19,-58 106.856,-58 110.523,-61.6667 110.523,-65.3333 110.523,-65.3333 110.523,-72.6667 110.523,-72.6667 110.523,-76.3333 106.856,-80 103.19,-80"/>
<text text-anchor="middle" x="81" y="-65.4" font-family="Helvetica,sans-Serif" font-size="12.00" fill="white">SinkType</text>
</a>
</g>
</g>
<!-- SinkType&#45;&gt;SinkOf -->
<g id="edge1" class="edge"><title>SinkType&#45;&gt;SinkOf</title>
<path fill="none" stroke="#cccccc" d="M71.3459,-57.9883C63.7617,-50.1233 53.0111,-38.9745 43.9945,-29.6239"/>
<polygon fill="#cccccc" stroke="#cccccc" points="46.3967,-27.0729 36.9359,-22.3039 41.3578,-31.9318 46.3967,-27.0729"/>
</g>
<!-- UnsafeMutablePointer -->
<g id="node3" class="node"><title>UnsafeMutablePointer</title>
<g id="a_node3"><a xlink:href="/type/UnsafeMutablePointer/" xlink:title="UnsafeMutablePointer">
<polygon fill="#999999" stroke="#999999" points="200.051,-22 71.9486,-22 71.9486,-0 200.051,-0 200.051,-22"/>
<text text-anchor="middle" x="136" y="-7.4" font-family="Helvetica,sans-Serif" font-size="12.00" fill="white">UnsafeMutablePointer</text>
</a>
</g>
</g>
<!-- SinkType&#45;&gt;UnsafeMutablePointer -->
<g id="edge2" class="edge"><title>SinkType&#45;&gt;UnsafeMutablePointer</title>
<path fill="none" stroke="#cccccc" d="M90.8329,-57.9883C98.5575,-50.1233 109.507,-38.9745 118.691,-29.6239"/>
<polygon fill="#cccccc" stroke="#cccccc" points="121.37,-31.8909 125.88,-22.3039 116.376,-26.9859 121.37,-31.8909"/>
</g>
</g>
</svg>
