<?xml version="1.0" encoding="UTF-8" standalone="no"?>
<!DOCTYPE svg PUBLIC "-//W3C//DTD SVG 1.1//EN"
 "http://www.w3.org/Graphics/SVG/1.1/DTD/svg11.dtd">
<!-- Generated by graphviz version 2.36.0 (20140111.2315)
 -->
<!-- Title: _CollectionGeneratorDefaultsType &#45; Type Hierarchy &#45; SwiftDoc.org Pages: 1 -->
<svg width="4174pt" height="485pt"
 viewBox="0.00 0.00 4174.40 485.20" xmlns="http://www.w3.org/2000/svg" xmlns:xlink="http://www.w3.org/1999/xlink">
<g id="graph0" class="graph" transform="scale(1 1) rotate(0) translate(7.2 427.6)">
<g transform="translate(0 -427.6)">
<g>
    <path fill="#666666" d="M13.846,10.832c-0.336-0.464-0.792-0.844-1.368-1.14s-1.224-0.444-1.944-0.444
        c-0.384,0-0.772,0.052-1.164,0.156C8.977,9.509,8.622,9.677,8.301,9.908c-0.32,0.232-0.58,0.52-0.78,0.864
        c-0.2,0.344-0.3,0.756-0.3,1.236c0,0.464,0.092,0.852,0.276,1.164c0.184,0.312,0.432,0.576,0.744,0.792s0.68,0.4,1.104,0.552
        c0.423,0.152,0.876,0.309,1.356,0.468c0.576,0.177,1.16,0.376,1.752,0.601c0.592,0.224,1.128,0.52,1.608,0.888
        s0.872,0.828,1.176,1.38s0.456,1.252,0.456,2.101c0,0.88-0.164,1.644-0.492,2.292c-0.328,0.647-0.765,1.184-1.308,1.607
        c-0.544,0.424-1.172,0.74-1.884,0.948s-1.444,0.312-2.196,0.312c-1.072,0-2.108-0.208-3.108-0.624
        c-1-0.415-1.828-1.031-2.484-1.848l1.848-1.56c0.4,0.592,0.936,1.071,1.608,1.439c0.672,0.368,1.399,0.552,2.184,0.552
        c0.4,0,0.8-0.056,1.2-0.168c0.4-0.111,0.764-0.288,1.092-0.527c0.328-0.24,0.596-0.54,0.804-0.9
        c0.208-0.36,0.312-0.796,0.312-1.308s-0.108-0.94-0.324-1.284c-0.216-0.344-0.508-0.636-0.876-0.876s-0.796-0.444-1.284-0.612
        c-0.488-0.168-1.004-0.34-1.548-0.516c-0.544-0.16-1.08-0.356-1.608-0.588c-0.528-0.232-1-0.528-1.416-0.889
        c-0.416-0.359-0.752-0.804-1.008-1.332c-0.256-0.527-0.384-1.184-0.384-1.968c0-0.848,0.172-1.576,0.516-2.184
        c0.344-0.608,0.792-1.112,1.344-1.512c0.552-0.4,1.176-0.692,1.872-0.876c0.696-0.184,1.396-0.276,2.1-0.276
        c0.992,0,1.92,0.176,2.784,0.528c0.864,0.352,1.56,0.824,2.088,1.416L13.846,10.832z"/>
    <path fill="#666666" d="M18.813,13.304l2.568,8.688h0.048l2.712-8.688h2.376l2.76,8.688h0.048l2.568-8.688h2.376L30.501,24.68
        h-2.352l-2.808-8.544h-0.048l-2.784,8.544h-2.352l-3.792-11.376H18.813z"/>
    <path fill="#666666" d="M38.685,9.2c0,0.416-0.147,0.76-0.44,1.032c-0.294,0.272-0.647,0.408-1.06,0.408s-0.762-0.14-1.047-0.42
        c-0.286-0.28-0.429-0.62-0.429-1.02c0-0.416,0.143-0.764,0.429-1.044c0.286-0.28,0.635-0.42,1.047-0.42s0.766,0.14,1.06,0.42
        C38.538,8.437,38.685,8.784,38.685,9.2z M38.325,24.68h-2.256V13.304h2.256V24.68z"/>
    <path fill="#666666" d="M47.613,15.152h-2.64v9.528h-2.256v-9.528h-2.256v-1.848h2.256v-2.376c0-0.672,0.076-1.292,0.228-1.86
        c0.152-0.568,0.4-1.06,0.744-1.476c0.344-0.416,0.784-0.744,1.32-0.984c0.536-0.24,1.188-0.36,1.956-0.36
        c0.544,0,1.016,0.056,1.416,0.168l-0.264,1.944c-0.176-0.048-0.352-0.088-0.528-0.12c-0.176-0.032-0.376-0.048-0.6-0.048
        c-0.432,0-0.78,0.076-1.044,0.228c-0.264,0.152-0.468,0.356-0.612,0.612s-0.24,0.548-0.288,0.876
        c-0.048,0.328-0.072,0.668-0.072,1.02v2.376h2.64V15.152z"/>
    <path fill="#666666" d="M54.909,15.152h-3.024v5.91c0,0.687,0.128,1.177,0.384,1.472c0.256,0.295,0.664,0.442,1.224,0.442
        c0.208,0,0.432-0.021,0.672-0.065c0.24-0.044,0.456-0.11,0.648-0.198l0.072,1.848c-0.272,0.096-0.572,0.172-0.9,0.229
        c-0.328,0.056-0.668,0.084-1.02,0.084c-1.072,0-1.892-0.296-2.46-0.889c-0.568-0.592-0.852-1.479-0.852-2.664v-6.168h-2.184
        v-1.848h2.184V10.04h2.232v3.264h3.024V15.152z"/>
    <path fill="#666666" d="M57.356,7.688h5.832c1.088,0,2.176,0.16,3.264,0.48c1.088,0.32,2.072,0.824,2.952,1.512
        s1.592,1.568,2.136,2.64c0.544,1.072,0.816,2.36,0.816,3.864c0,1.456-0.272,2.716-0.816,3.78s-1.256,1.943-2.136,2.64
        s-1.864,1.216-2.952,1.561c-1.088,0.344-2.176,0.516-3.264,0.516h-5.832V7.688z M59.732,22.593h2.976
        c1.024,0,1.972-0.145,2.844-0.432c0.872-0.288,1.624-0.704,2.256-1.248c0.632-0.544,1.124-1.216,1.476-2.017
        c0.352-0.8,0.528-1.704,0.528-2.712c0-1.056-0.176-1.983-0.528-2.784c-0.353-0.8-0.844-1.468-1.476-2.004
        c-0.632-0.536-1.384-0.944-2.256-1.224s-1.82-0.42-2.844-0.42h-2.976V22.593z"/>
    <path fill="#666666" d="M86.06,18.969c0,0.88-0.156,1.688-0.468,2.424c-0.312,0.736-0.744,1.372-1.296,1.908
        c-0.552,0.536-1.204,0.952-1.956,1.248c-0.752,0.296-1.56,0.443-2.424,0.443c-0.864,0-1.672-0.147-2.424-0.443
        c-0.752-0.296-1.4-0.712-1.944-1.248c-0.544-0.536-0.972-1.172-1.284-1.908c-0.312-0.735-0.468-1.544-0.468-2.424
        s0.156-1.684,0.468-2.412c0.312-0.728,0.74-1.356,1.284-1.884c0.543-0.528,1.191-0.939,1.944-1.236
        c0.752-0.296,1.56-0.444,2.424-0.444c0.864,0,1.672,0.148,2.424,0.444c0.752,0.297,1.404,0.708,1.956,1.236
        c0.552,0.527,0.984,1.156,1.296,1.884C85.904,17.285,86.06,18.089,86.06,18.969z M83.708,18.98c0-0.542-0.084-1.061-0.252-1.556
        c-0.169-0.494-0.414-0.929-0.734-1.304s-0.718-0.674-1.192-0.897s-1.015-0.335-1.625-0.335c-0.61,0-1.152,0.111-1.625,0.335
        c-0.474,0.224-0.871,0.522-1.191,0.897c-0.321,0.375-0.566,0.81-0.734,1.304C76.184,17.92,76.1,18.438,76.1,18.98
        c0,0.543,0.084,1.062,0.253,1.556c0.168,0.495,0.413,0.934,0.734,1.316c0.321,0.383,0.718,0.686,1.191,0.909
        c0.473,0.224,1.015,0.335,1.625,0.335c0.61,0,1.151-0.111,1.625-0.335s0.871-0.526,1.192-0.909s0.565-0.821,0.734-1.316
        C83.624,20.042,83.708,19.523,83.708,18.98z"/>
    <path fill="#666666" d="M96.428,16.184c-0.24-0.368-0.6-0.676-1.08-0.924s-0.992-0.372-1.536-0.372
        c-0.592,0-1.116,0.112-1.572,0.336c-0.456,0.225-0.844,0.524-1.164,0.9c-0.32,0.376-0.564,0.812-0.732,1.308
        s-0.252,1.017-0.252,1.56c0,0.545,0.084,1.064,0.252,1.561s0.412,0.933,0.732,1.308c0.32,0.376,0.712,0.677,1.176,0.9
        c0.464,0.225,0.992,0.336,1.584,0.336c0.576,0,1.1-0.111,1.572-0.336c0.472-0.224,0.86-0.528,1.164-0.912l1.512,1.368
        c-0.48,0.561-1.08,0.996-1.8,1.308c-0.72,0.312-1.536,0.468-2.448,0.468c-0.88,0-1.692-0.144-2.436-0.432
        c-0.744-0.288-1.388-0.691-1.932-1.212c-0.544-0.52-0.972-1.147-1.284-1.884s-0.468-1.561-0.468-2.473
        c0-0.896,0.152-1.711,0.456-2.447c0.304-0.736,0.728-1.368,1.272-1.896c0.543-0.527,1.188-0.936,1.932-1.224
        c0.744-0.288,1.548-0.433,2.412-0.433c0.8,0,1.596,0.16,2.388,0.48s1.419,0.784,1.884,1.392L96.428,16.184z"/>
    <path fill="#666666" d="M103.1,23.24c0,0.417-0.152,0.784-0.456,1.104c-0.304,0.32-0.688,0.479-1.152,0.479
        c-0.448,0-0.828-0.155-1.14-0.468c-0.312-0.312-0.468-0.676-0.468-1.092c0-0.432,0.152-0.804,0.456-1.116
        c0.304-0.312,0.688-0.468,1.152-0.468c0.464,0,0.848,0.152,1.152,0.456C102.947,22.44,103.1,22.808,103.1,23.24z"/>
    <path fill="#666666" d="M116.635,18.969c0,0.88-0.156,1.688-0.468,2.424c-0.312,0.736-0.744,1.372-1.296,1.908
        c-0.552,0.536-1.204,0.952-1.956,1.248c-0.752,0.296-1.56,0.443-2.424,0.443c-0.864,0-1.672-0.147-2.424-0.443
        c-0.752-0.296-1.4-0.712-1.944-1.248c-0.544-0.536-0.972-1.172-1.284-1.908c-0.312-0.735-0.468-1.544-0.468-2.424
        s0.156-1.684,0.468-2.412c0.312-0.728,0.74-1.356,1.284-1.884c0.543-0.528,1.191-0.939,1.944-1.236
        c0.752-0.296,1.56-0.444,2.424-0.444c0.864,0,1.672,0.148,2.424,0.444c0.752,0.297,1.404,0.708,1.956,1.236
        c0.552,0.527,0.984,1.156,1.296,1.884C116.479,17.285,116.635,18.089,116.635,18.969z M114.283,18.98
        c0-0.542-0.084-1.061-0.252-1.556c-0.169-0.494-0.414-0.929-0.734-1.304s-0.718-0.674-1.192-0.897s-1.015-0.335-1.625-0.335
        c-0.61,0-1.152,0.111-1.625,0.335c-0.474,0.224-0.871,0.522-1.191,0.897c-0.321,0.375-0.566,0.81-0.734,1.304
        c-0.169,0.495-0.253,1.014-0.253,1.556c0,0.543,0.084,1.062,0.253,1.556c0.168,0.495,0.413,0.934,0.734,1.316
        c0.321,0.383,0.718,0.686,1.191,0.909c0.473,0.224,1.015,0.335,1.625,0.335c0.61,0,1.151-0.111,1.625-0.335
        s0.871-0.526,1.192-0.909s0.565-0.821,0.734-1.316C114.199,20.042,114.283,19.523,114.283,18.98z"/>
    <path fill="#666666" d="M119.251,14.577c-0.016-0.48-0.04-0.904-0.072-1.272h2.136c0.032,0.288,0.056,0.62,0.072,0.996
        c0.016,0.376,0.024,0.684,0.024,0.924h0.072c0.32-0.672,0.788-1.212,1.404-1.62c0.616-0.408,1.308-0.612,2.076-0.612
        c0.352,0,0.648,0.033,0.888,0.097l-0.096,2.088c-0.32-0.08-0.664-0.12-1.032-0.12c-0.544,0-1.016,0.101-1.416,0.3
        c-0.4,0.2-0.732,0.468-0.996,0.805c-0.264,0.336-0.46,0.724-0.588,1.163c-0.128,0.44-0.192,0.9-0.192,1.381v5.976h-2.256v-8.928
        C119.275,15.449,119.267,15.056,119.251,14.577z"/>
    <path fill="#666666" d="M128.419,26.625c0.496,0.56,1.116,1.008,1.86,1.344c0.744,0.336,1.508,0.504,2.292,0.504
        c0.752,0,1.384-0.108,1.896-0.324s0.924-0.512,1.236-0.888s0.536-0.82,0.672-1.332c0.136-0.513,0.204-1.064,0.204-1.656v-1.464
        h-0.048c-0.416,0.641-0.984,1.128-1.704,1.464c-0.72,0.336-1.488,0.504-2.304,0.504c-0.864,0-1.652-0.151-2.364-0.456
        c-0.712-0.304-1.316-0.72-1.812-1.248c-0.496-0.527-0.88-1.147-1.152-1.859s-0.408-1.477-0.408-2.292
        c0-0.816,0.136-1.584,0.408-2.305c0.272-0.72,0.656-1.348,1.152-1.884c0.496-0.535,1.096-0.96,1.8-1.271
        c0.704-0.312,1.488-0.469,2.352-0.469c0.816,0,1.596,0.177,2.34,0.528c0.744,0.353,1.332,0.888,1.764,1.608h0.048v-1.824h2.184
        v10.8c0,0.832-0.104,1.628-0.312,2.388c-0.208,0.76-0.56,1.433-1.056,2.017s-1.144,1.052-1.944,1.404
        c-0.8,0.352-1.792,0.527-2.976,0.527c-0.992,0-1.988-0.18-2.988-0.54c-1-0.359-1.86-0.868-2.58-1.523L128.419,26.625z
         M129.091,18.873c0,0.527,0.084,1.031,0.253,1.512c0.168,0.479,0.417,0.904,0.746,1.271c0.329,0.369,0.726,0.664,1.192,0.889
        c0.465,0.224,0.995,0.336,1.589,0.336c0.577,0,1.107-0.104,1.589-0.312c0.481-0.207,0.891-0.491,1.228-0.852
        s0.598-0.784,0.782-1.272c0.185-0.487,0.277-1.012,0.277-1.571c0-0.544-0.093-1.057-0.277-1.536
        c-0.185-0.48-0.449-0.904-0.794-1.272c-0.345-0.367-0.755-0.66-1.228-0.876c-0.474-0.216-1-0.324-1.577-0.324
        c-0.594,0-1.124,0.108-1.589,0.324c-0.466,0.216-0.863,0.504-1.192,0.864s-0.578,0.784-0.746,1.271
        C129.175,17.812,129.091,18.329,129.091,18.873z"/>
</g>
<g><a xlink:href="/" pointer-events="all" target="_top"><polygon fill="none" points="0,0 145,0 145,35 0,35 0,0"/></a></g>

</g>


<!-- AnyBidirectionalCollection -->
<g id="node1" class="node">
<g id="a_node1"><a xlink:href="/swift-2/type/AnyBidirectionalCollection/" target="_top">
<polygon fill="#999999" stroke="#999999" points="1853.05,-22 1704.95,-22 1704.95,-0 1853.05,-0 1853.05,-22"/>
<text text-anchor="middle" x="1779" y="-7.4" font-family="Helvetica,sans-Serif" font-size="12.00" fill="white">AnyBidirectionalCollection</text>
</a>
</g>
</g>
<!-- AnyCollectionType -->
<g id="node2" class="node">
<g id="a_node2"><a xlink:href="/swift-2/protocol/AnyCollectionType/" target="_top">
<path fill="#999999" stroke="#999999" d="M2251.21,-80C2251.21,-80 2156.79,-80 2156.79,-80 2153.12,-80 2149.46,-76.3333 2149.46,-72.6667 2149.46,-72.6667 2149.46,-65.3333 2149.46,-65.3333 2149.46,-61.6667 2153.12,-58 2156.79,-58 2156.79,-58 2251.21,-58 2251.21,-58 2254.88,-58 2258.54,-61.6667 2258.54,-65.3333 2258.54,-65.3333 2258.54,-72.6667 2258.54,-72.6667 2258.54,-76.3333 2254.88,-80 2251.21,-80"/>
<text text-anchor="middle" x="2204" y="-65.4" font-family="Helvetica,sans-Serif" font-size="12.00" fill="white">AnyCollectionType</text>
</a>
</g>
</g>
<!-- AnyCollectionType&#45;&gt;AnyBidirectionalCollection -->
<g id="edge61" class="edge">
<path fill="none" stroke="#cccccc" d="M2149.31,-60.7936C2076.82,-51.2416 1948.19,-34.293 1863.24,-23.1004"/>
<polygon fill="#cccccc" stroke="#cccccc" points="1863.48,-19.6013 1853.11,-21.7648 1862.57,-26.5413 1863.48,-19.6013"/>
</g>
<!-- AnyForwardCollection -->
<g id="node3" class="node">
<g id="a_node3"><a xlink:href="/swift-2/type/AnyForwardCollection/" target="_top">
<polygon fill="#999999" stroke="#999999" points="1998.54,-22 1871.46,-22 1871.46,-0 1998.54,-0 1998.54,-22"/>
<text text-anchor="middle" x="1935" y="-7.4" font-family="Helvetica,sans-Serif" font-size="12.00" fill="white">AnyForwardCollection</text>
</a>
</g>
</g>
<!-- AnyCollectionType&#45;&gt;AnyForwardCollection -->
<g id="edge62" class="edge">
<path fill="none" stroke="#cccccc" d="M2155.91,-57.9883C2110.34,-48.5015 2041.82,-34.237 1993.19,-24.1134"/>
<polygon fill="#cccccc" stroke="#cccccc" points="1993.63,-20.6309 1983.13,-22.0192 1992.2,-27.484 1993.63,-20.6309"/>
</g>
<!-- AnyRandomAccessCollection -->
<g id="node4" class="node">
<g id="a_node4"><a xlink:href="/swift-2/type/AnyRandomAccessCollection/" target="_top">
<polygon fill="#999999" stroke="#999999" points="2183.55,-22 2016.45,-22 2016.45,-0 2183.55,-0 2183.55,-22"/>
<text text-anchor="middle" x="2100" y="-7.4" font-family="Helvetica,sans-Serif" font-size="12.00" fill="white">AnyRandomAccessCollection</text>
</a>
</g>
</g>
<!-- AnyCollectionType&#45;&gt;AnyRandomAccessCollection -->
<g id="edge63" class="edge">
<path fill="none" stroke="#cccccc" d="M2185.41,-57.9883C2169.39,-49.3619 2146.03,-36.785 2127.79,-26.9633"/>
<polygon fill="#cccccc" stroke="#cccccc" points="2129.25,-23.7732 2118.78,-22.1138 2125.93,-29.9365 2129.25,-23.7732"/>
</g>
<!-- Array -->
<g id="node5" class="node">
<g id="a_node5"><a xlink:href="/swift-2/type/Array/" target="_top">
<polygon fill="#999999" stroke="#999999" points="1291,-22 1237,-22 1237,-0 1291,-0 1291,-22"/>
<text text-anchor="middle" x="1264" y="-7.4" font-family="Helvetica,sans-Serif" font-size="12.00" fill="white">Array</text>
</a>
</g>
</g>
<!-- ArraySlice -->
<g id="node6" class="node">
<g id="a_node6"><a xlink:href="/swift-2/type/ArraySlice/" target="_top">
<polygon fill="#999999" stroke="#999999" points="915.011,-22 850.989,-22 850.989,-0 915.011,-0 915.011,-22"/>
<text text-anchor="middle" x="883" y="-7.4" font-family="Helvetica,sans-Serif" font-size="12.00" fill="white">ArraySlice</text>
</a>
</g>
</g>
<!-- CollectionOfOne -->
<g id="node7" class="node">
<g id="a_node7"><a xlink:href="/swift-2/type/CollectionOfOne/" target="_top">
<polygon fill="#999999" stroke="#999999" points="3101.03,-22 3002.97,-22 3002.97,-0 3101.03,-0 3101.03,-22"/>
<text text-anchor="middle" x="3052" y="-7.4" font-family="Helvetica,sans-Serif" font-size="12.00" fill="white">CollectionOfOne</text>
</a>
</g>
</g>
<!-- CollectionType -->
<g id="node8" class="node">
<g id="a_node8"><a xlink:href="/swift-2/protocol/CollectionType/" target="_top">
<path fill="#999999" stroke="#999999" d="M2399.7,-312C2399.7,-312 2326.3,-312 2326.3,-312 2322.63,-312 2318.96,-308.333 2318.96,-304.667 2318.96,-304.667 2318.96,-297.333 2318.96,-297.333 2318.96,-293.667 2322.63,-290 2326.3,-290 2326.3,-290 2399.7,-290 2399.7,-290 2403.37,-290 2407.04,-293.667 2407.04,-297.333 2407.04,-297.333 2407.04,-304.667 2407.04,-304.667 2407.04,-308.333 2403.37,-312 2399.7,-312"/>
<text text-anchor="middle" x="2363" y="-297.4" font-family="Helvetica,sans-Serif" font-size="12.00" fill="white">CollectionType</text>
</a>
</g>
</g>
<!-- CollectionType&#45;&gt;AnyBidirectionalCollection -->
<g id="edge29" class="edge">
<path fill="none" stroke="#cccccc" d="M2335.48,-289.921C2315.46,-281.871 2288.25,-269.402 2267,-254 2198.28,-204.187 2203.12,-166.627 2135,-116 2089.37,-82.0909 2074.79,-76.3801 2021,-58 1990.54,-47.5921 1912.22,-33.5179 1852.86,-23.6886"/>
<polygon fill="#cccccc" stroke="#cccccc" points="1853.2,-20.197 1842.76,-22.0268 1852.06,-27.1041 1853.2,-20.197"/>
</g>
<!-- CollectionType&#45;&gt;AnyCollectionType -->
<g id="edge30" class="edge">
<path fill="none" stroke="#cccccc" d="M2349.08,-289.713C2337.92,-281.015 2322.31,-267.796 2311,-254 2299.16,-239.553 2239.27,-133.132 2214.62,-89.045"/>
<polygon fill="#cccccc" stroke="#cccccc" points="2217.6,-87.203 2209.67,-80.1786 2211.49,-90.616 2217.6,-87.203"/>
</g>
<!-- CollectionType&#45;&gt;AnyForwardCollection -->
<g id="edge31" class="edge">
<path fill="none" stroke="#cccccc" d="M2344.74,-289.963C2329.99,-281.409 2309.12,-268.264 2293,-254 2200.75,-172.354 2207.66,-112.137 2097,-58 2065.84,-42.7547 2028.76,-31.7594 1997.94,-24.3496"/>
<polygon fill="#cccccc" stroke="#cccccc" points="1998.71,-20.934 1988.17,-22.069 1997.12,-27.7508 1998.71,-20.934"/>
</g>
<!-- CollectionType&#45;&gt;AnyRandomAccessCollection -->
<g id="edge32" class="edge">
<path fill="none" stroke="#cccccc" d="M2357.06,-289.698C2346.38,-270.153 2325,-226.056 2325,-186 2325,-186 2325,-186 2325,-126 2325,-93.9507 2324.92,-79.3307 2301,-58 2283.98,-42.8228 2234.12,-31.3591 2188.32,-23.6717"/>
<polygon fill="#cccccc" stroke="#cccccc" points="2188.75,-20.1959 2178.32,-22.0405 2187.63,-27.1046 2188.75,-20.1959"/>
</g>
<!-- CollectionType&#45;&gt;Array -->
<g id="edge33" class="edge">
<path fill="none" stroke="#cccccc" d="M2318.95,-295.973C2250.12,-289.339 2113.02,-274.747 1998,-254 1887.45,-234.06 1857.91,-233.447 1752,-196 1685.28,-172.408 1531.8,-81.3725 1465,-58 1409.36,-38.5315 1342.14,-25.0762 1301.25,-17.9534"/>
<polygon fill="#cccccc" stroke="#cccccc" points="1301.64,-14.4699 1291.2,-16.2374 1300.47,-21.3702 1301.64,-14.4699"/>
</g>
<!-- CollectionType&#45;&gt;ArraySlice -->
<g id="edge34" class="edge">
<path fill="none" stroke="#cccccc" d="M2318.84,-299.502C2060.65,-296.502 756.647,-280.076 725,-254 655.618,-196.831 708.487,-118.483 775,-58 793.567,-41.116 819.261,-29.8316 840.929,-22.6664"/>
<polygon fill="#cccccc" stroke="#cccccc" points="842.059,-25.9803 850.561,-19.6588 839.973,-19.2984 842.059,-25.9803"/>
</g>
<!-- CollectionType&#45;&gt;CollectionOfOne -->
<g id="edge35" class="edge">
<path fill="none" stroke="#cccccc" d="M2401.21,-289.927C2431.63,-281.494 2475.1,-268.53 2512,-254 2698.07,-180.741 2732.01,-133.946 2917,-58 2947.26,-45.5756 2982.25,-33.7232 3009.02,-25.1617"/>
<polygon fill="#cccccc" stroke="#cccccc" points="3010.37,-28.4039 3018.85,-22.0472 3008.26,-21.7308 3010.37,-28.4039"/>
</g>
<!-- ContiguousArray -->
<g id="node9" class="node">
<g id="a_node9"><a xlink:href="/swift-2/type/ContiguousArray/" target="_top">
<polygon fill="#999999" stroke="#999999" points="1507.53,-22 1408.47,-22 1408.47,-0 1507.53,-0 1507.53,-22"/>
<text text-anchor="middle" x="1458" y="-7.4" font-family="Helvetica,sans-Serif" font-size="12.00" fill="white">ContiguousArray</text>
</a>
</g>
</g>
<!-- CollectionType&#45;&gt;ContiguousArray -->
<g id="edge36" class="edge">
<path fill="none" stroke="#cccccc" d="M2318.79,-290.886C2284.56,-283.104 2236.35,-270.544 2196,-254 2079.65,-206.291 2064.13,-166.577 1949,-116 1873.59,-82.8746 1853.21,-76.6979 1773,-58 1664.27,-32.654 1632.34,-39.1936 1517.79,-22.0633"/>
<polygon fill="#cccccc" stroke="#cccccc" points="1517.97,-18.5509 1507.56,-20.5038 1516.92,-25.4709 1517.97,-18.5509"/>
</g>
<!-- Dictionary -->
<g id="node10" class="node">
<g id="a_node10"><a xlink:href="/swift-2/type/Dictionary/" target="_top">
<polygon fill="#999999" stroke="#999999" points="4052.51,-22 3989.49,-22 3989.49,-0 4052.51,-0 4052.51,-22"/>
<text text-anchor="middle" x="4021" y="-7.4" font-family="Helvetica,sans-Serif" font-size="12.00" fill="white">Dictionary</text>
</a>
</g>
</g>
<!-- CollectionType&#45;&gt;Dictionary -->
<g id="edge37" class="edge">
<path fill="none" stroke="#cccccc" d="M2407.06,-298.73C2642.96,-291.647 3746,-254.85 3746,-186 3746,-186 3746,-186 3746,-126 3746,-101.022 3902.82,-48.7585 3979.62,-24.6634"/>
<polygon fill="#cccccc" stroke="#cccccc" points="3980.95,-27.9134 3989.45,-21.5933 3978.87,-21.2312 3980.95,-27.9134"/>
</g>
<!-- DictionaryLiteral -->
<g id="node11" class="node">
<g id="a_node11"><a xlink:href="/swift-2/type/DictionaryLiteral/" target="_top">
<polygon fill="#999999" stroke="#999999" points="3215.02,-22 3118.98,-22 3118.98,-0 3215.02,-0 3215.02,-22"/>
<text text-anchor="middle" x="3167" y="-7.4" font-family="Helvetica,sans-Serif" font-size="12.00" fill="white">DictionaryLiteral</text>
</a>
</g>
</g>
<!-- CollectionType&#45;&gt;DictionaryLiteral -->
<g id="edge38" class="edge">
<path fill="none" stroke="#cccccc" d="M2407.17,-291.572C2445.88,-283.639 2503.4,-270.519 2552,-254 2755.85,-184.714 2791.95,-129.584 2995,-58 3033.47,-44.4368 3077.99,-32.6328 3112.09,-24.3788"/>
<polygon fill="#cccccc" stroke="#cccccc" points="3112.96,-27.7701 3121.87,-22.04 3111.33,-20.962 3112.96,-27.7701"/>
</g>
<!-- EmptyCollection -->
<g id="node12" class="node">
<g id="a_node12"><a xlink:href="/swift-2/type/EmptyCollection/" target="_top">
<polygon fill="#999999" stroke="#999999" points="3527.03,-22 3430.97,-22 3430.97,-0 3527.03,-0 3527.03,-22"/>
<text text-anchor="middle" x="3479" y="-7.4" font-family="Helvetica,sans-Serif" font-size="12.00" fill="white">EmptyCollection</text>
</a>
</g>
</g>
<!-- CollectionType&#45;&gt;EmptyCollection -->
<g id="edge39" class="edge">
<path fill="none" stroke="#cccccc" d="M2407.08,-296.826C2470.59,-291.578 2591.17,-279.082 2691,-254 2935.38,-192.596 2979.84,-124.091 3223,-58 3227.79,-56.6991 3346.64,-35.5077 3420.69,-22.3469"/>
<polygon fill="#cccccc" stroke="#cccccc" points="3421.6,-25.7414 3430.83,-20.546 3420.37,-18.8494 3421.6,-25.7414"/>
</g>
<!-- ExtensibleCollectionType -->
<g id="node13" class="node">
<g id="a_node13"><a xlink:href="/swift-2/protocol/ExtensibleCollectionType/" target="_top">
<path fill="#999999" stroke="#999999" d="M1146.73,-196C1146.73,-196 1017.27,-196 1017.27,-196 1013.61,-196 1009.94,-192.333 1009.94,-188.667 1009.94,-188.667 1009.94,-181.333 1009.94,-181.333 1009.94,-177.667 1013.61,-174 1017.27,-174 1017.27,-174 1146.73,-174 1146.73,-174 1150.39,-174 1154.06,-177.667 1154.06,-181.333 1154.06,-181.333 1154.06,-188.667 1154.06,-188.667 1154.06,-192.333 1150.39,-196 1146.73,-196"/>
<text text-anchor="middle" x="1082" y="-181.4" font-family="Helvetica,sans-Serif" font-size="12.00" fill="white">ExtensibleCollectionType</text>
</a>
</g>
</g>
<!-- CollectionType&#45;&gt;ExtensibleCollectionType -->
<g id="edge40" class="edge">
<path fill="none" stroke="#cccccc" d="M2318.87,-297.024C2218.84,-290.198 1967.2,-272.563 1757,-254 1543.1,-235.111 1291.52,-208.638 1164.42,-194.963"/>
<polygon fill="#cccccc" stroke="#cccccc" points="1164.68,-191.472 1154.37,-193.881 1163.93,-198.432 1164.68,-191.472"/>
</g>
<!-- FilterCollection -->
<g id="node14" class="node">
<g id="a_node14"><a xlink:href="/swift-2/type/FilterCollection/" target="_top">
<polygon fill="#999999" stroke="#999999" points="4159.52,-22 4070.48,-22 4070.48,-0 4159.52,-0 4159.52,-22"/>
<text text-anchor="middle" x="4115" y="-7.4" font-family="Helvetica,sans-Serif" font-size="12.00" fill="white">FilterCollection</text>
</a>
</g>
</g>
<!-- CollectionType&#45;&gt;FilterCollection -->
<g id="edge41" class="edge">
<path fill="none" stroke="#cccccc" d="M2407.18,-300.483C2555.73,-301.611 3050.65,-301.319 3456,-254 3591.32,-238.203 3628.23,-240.477 3757,-196 3889.65,-150.186 4034.48,-63.022 4090.76,-27.575"/>
<polygon fill="#cccccc" stroke="#cccccc" points="4092.75,-30.4611 4099.32,-22.1519 4089,-24.5483 4092.75,-30.4611"/>
</g>
<!-- LazyBidirectionalCollection -->
<g id="node15" class="node">
<g id="a_node15"><a xlink:href="/swift-2/type/LazyBidirectionalCollection/" target="_top">
<polygon fill="#999999" stroke="#999999" points="2775.56,-22 2622.44,-22 2622.44,-0 2775.56,-0 2775.56,-22"/>
<text text-anchor="middle" x="2699" y="-7.4" font-family="Helvetica,sans-Serif" font-size="12.00" fill="white">LazyBidirectionalCollection</text>
</a>
</g>
</g>
<!-- CollectionType&#45;&gt;LazyBidirectionalCollection -->
<g id="edge42" class="edge">
<path fill="none" stroke="#cccccc" d="M2385.64,-289.831C2403.36,-281.392 2428.23,-268.464 2448,-254 2546.93,-181.627 2646.4,-72.3295 2683.66,-29.8075"/>
<polygon fill="#cccccc" stroke="#cccccc" points="2686.33,-32.0643 2690.26,-22.2242 2681.05,-27.4676 2686.33,-32.0643"/>
</g>
<!-- LazyForwardCollection -->
<g id="node16" class="node">
<g id="a_node16"><a xlink:href="/swift-2/type/LazyForwardCollection/" target="_top">
<polygon fill="#999999" stroke="#999999" points="132.038,-22 -0.0380908,-22 -0.0380908,-0 132.038,-0 132.038,-22"/>
<text text-anchor="middle" x="66" y="-7.4" font-family="Helvetica,sans-Serif" font-size="12.00" fill="white">LazyForwardCollection</text>
</a>
</g>
</g>
<!-- CollectionType&#45;&gt;LazyForwardCollection -->
<g id="edge43" class="edge">
<path fill="none" stroke="#cccccc" d="M2318.58,-299.925C2052.36,-299.342 673.558,-294.377 490,-254 315.993,-215.724 141.867,-77.1378 85.1424,-28.7844"/>
<polygon fill="#cccccc" stroke="#cccccc" points="87.2128,-25.9485 77.3506,-22.077 82.6459,-31.2536 87.2128,-25.9485"/>
</g>
<!-- LazyRandomAccessCollection -->
<g id="node17" class="node">
<g id="a_node17"><a xlink:href="/swift-2/type/LazyRandomAccessCollection/" target="_top">
<polygon fill="#999999" stroke="#999999" points="3971.06,-22 3798.94,-22 3798.94,-0 3971.06,-0 3971.06,-22"/>
<text text-anchor="middle" x="3885" y="-7.4" font-family="Helvetica,sans-Serif" font-size="12.00" fill="white">LazyRandomAccessCollection</text>
</a>
</g>
</g>
<!-- CollectionType&#45;&gt;LazyRandomAccessCollection -->
<g id="edge44" class="edge">
<path fill="none" stroke="#cccccc" d="M2407.21,-298.946C2493.92,-296.204 2692.01,-286.602 2855,-254 3142.54,-196.484 3198.09,-118.571 3485,-58 3499.69,-54.899 3674.84,-35.2401 3788.44,-22.6458"/>
<polygon fill="#cccccc" stroke="#cccccc" points="3789,-26.1055 3798.56,-21.5254 3788.23,-19.148 3789,-26.1055"/>
</g>
<!-- MapCollection -->
<g id="node18" class="node">
<g id="a_node18"><a xlink:href="/swift-2/type/MapCollection/" target="_top">
<polygon fill="#999999" stroke="#999999" points="2288.03,-22 2201.97,-22 2201.97,-0 2288.03,-0 2288.03,-22"/>
<text text-anchor="middle" x="2245" y="-7.4" font-family="Helvetica,sans-Serif" font-size="12.00" fill="white">MapCollection</text>
</a>
</g>
</g>
<!-- CollectionType&#45;&gt;MapCollection -->
<g id="edge45" class="edge">
<path fill="none" stroke="#cccccc" d="M2363,-289.935C2363,-270.066 2363,-224.396 2363,-186 2363,-186 2363,-186 2363,-126 2363,-93.9507 2360.31,-81.9358 2339,-58 2326.05,-43.4598 2307.48,-33.0324 2290.25,-25.8224"/>
<polygon fill="#cccccc" stroke="#cccccc" points="2291.45,-22.5338 2280.86,-22.1421 2288.89,-29.0508 2291.45,-22.5338"/>
</g>
<!-- MutableCollectionType -->
<g id="node19" class="node">
<g id="a_node19"><a xlink:href="/swift-2/protocol/MutableCollectionType/" target="_top">
<path fill="#999999" stroke="#999999" d="M1885.22,-196C1885.22,-196 1768.78,-196 1768.78,-196 1765.11,-196 1761.45,-192.333 1761.45,-188.667 1761.45,-188.667 1761.45,-181.333 1761.45,-181.333 1761.45,-177.667 1765.11,-174 1768.78,-174 1768.78,-174 1885.22,-174 1885.22,-174 1888.89,-174 1892.55,-177.667 1892.55,-181.333 1892.55,-181.333 1892.55,-188.667 1892.55,-188.667 1892.55,-192.333 1888.89,-196 1885.22,-196"/>
<text text-anchor="middle" x="1827" y="-181.4" font-family="Helvetica,sans-Serif" font-size="12.00" fill="white">MutableCollectionType</text>
</a>
</g>
</g>
<!-- CollectionType&#45;&gt;MutableCollectionType -->
<g id="edge46" class="edge">
<path fill="none" stroke="#cccccc" d="M2318.62,-294.063C2263.2,-286.338 2165.61,-271.714 2083,-254 2062.58,-249.621 1942.21,-217.211 1874.04,-198.76"/>
<polygon fill="#cccccc" stroke="#cccccc" points="1874.55,-195.27 1863.98,-196.035 1872.72,-202.027 1874.55,-195.27"/>
</g>
<!-- Range -->
<g id="node21" class="node">
<g id="a_node21"><a xlink:href="/swift-2/type/Range/" target="_top">
<polygon fill="#999999" stroke="#999999" points="2532,-22 2478,-22 2478,-0 2532,-0 2532,-22"/>
<text text-anchor="middle" x="2505" y="-7.4" font-family="Helvetica,sans-Serif" font-size="12.00" fill="white">Range</text>
</a>
</g>
</g>
<!-- CollectionType&#45;&gt;Range -->
<g id="edge47" class="edge">
<path fill="none" stroke="#cccccc" d="M2373.87,-289.857C2382.85,-281.04 2395.45,-267.581 2404,-254 2451.96,-177.791 2486.1,-74.8899 2499.15,-32.0296"/>
<polygon fill="#cccccc" stroke="#cccccc" points="2502.56,-32.8425 2502.07,-22.2589 2495.85,-30.8362 2502.56,-32.8425"/>
</g>
<!-- Repeat -->
<g id="node23" class="node">
<g id="a_node23"><a xlink:href="/swift-2/type/Repeat/" target="_top">
<polygon fill="#999999" stroke="#999999" points="2604,-22 2550,-22 2550,-0 2604,-0 2604,-22"/>
<text text-anchor="middle" x="2577" y="-7.4" font-family="Helvetica,sans-Serif" font-size="12.00" fill="white">Repeat</text>
</a>
</g>
</g>
<!-- CollectionType&#45;&gt;Repeat -->
<g id="edge48" class="edge">
<path fill="none" stroke="#cccccc" d="M2379.58,-289.884C2392.64,-281.381 2410.79,-268.343 2424,-254 2491.33,-180.882 2546.83,-74.3342 2567.9,-31.1961"/>
<polygon fill="#cccccc" stroke="#cccccc" points="2571.1,-32.6211 2572.29,-22.0937 2564.79,-29.5794 2571.1,-32.6211"/>
</g>
<!-- ReverseCollection -->
<g id="node24" class="node">
<g id="a_node24"><a xlink:href="/swift-2/type/ReverseCollection/" target="_top">
<polygon fill="#999999" stroke="#999999" points="3340.53,-22 3233.47,-22 3233.47,-0 3340.53,-0 3340.53,-22"/>
<text text-anchor="middle" x="3287" y="-7.4" font-family="Helvetica,sans-Serif" font-size="12.00" fill="white">ReverseCollection</text>
</a>
</g>
</g>
<!-- CollectionType&#45;&gt;ReverseCollection -->
<g id="edge49" class="edge">
<path fill="none" stroke="#cccccc" d="M2407.24,-293.857C2454.39,-286.702 2530.92,-273.342 2595,-254 2814.03,-187.882 2852.44,-125.659 3071,-58 3121.46,-42.3791 3180.17,-30.249 3223.63,-22.3765"/>
<polygon fill="#cccccc" stroke="#cccccc" points="3224.27,-25.8179 3233.5,-20.6147 3223.04,-18.9268 3224.27,-25.8179"/>
</g>
<!-- ReverseRandomAccessCollection -->
<g id="node25" class="node">
<g id="a_node25"><a xlink:href="/swift-2/type/ReverseRandomAccessCollection/" target="_top">
<polygon fill="#999999" stroke="#999999" points="2984.56,-22 2793.44,-22 2793.44,-0 2984.56,-0 2984.56,-22"/>
<text text-anchor="middle" x="2889" y="-7.4" font-family="Helvetica,sans-Serif" font-size="12.00" fill="white">ReverseRandomAccessCollection</text>
</a>
</g>
</g>
<!-- CollectionType&#45;&gt;ReverseRandomAccessCollection -->
<g id="edge50" class="edge">
<path fill="none" stroke="#cccccc" d="M2390.89,-289.927C2414.06,-281.255 2447.7,-267.963 2476,-254 2629.12,-178.459 2802.47,-68.2996 2864.96,-27.743"/>
<polygon fill="#cccccc" stroke="#cccccc" points="2867.22,-30.4499 2873.69,-22.0615 2863.4,-24.5831 2867.22,-30.4499"/>
</g>
<!-- Set -->
<g id="node26" class="node">
<g id="a_node26"><a xlink:href="/swift-2/type/Set/" target="_top">
<polygon fill="#999999" stroke="#999999" points="3413,-22 3359,-22 3359,-0 3413,-0 3413,-22"/>
<text text-anchor="middle" x="3386" y="-7.4" font-family="Helvetica,sans-Serif" font-size="12.00" fill="white">Set</text>
</a>
</g>
</g>
<!-- CollectionType&#45;&gt;Set -->
<g id="edge51" class="edge">
<path fill="none" stroke="#cccccc" d="M2407.1,-295.583C2462.6,-289.375 2560.55,-276.263 2642,-254 2874.24,-190.522 2915.18,-122.981 3147,-58 3234.81,-33.3867 3260.01,-41.9156 3349,-22 3349.1,-21.9773 3349.2,-21.9545 3349.3,-21.9316"/>
<polygon fill="#cccccc" stroke="#cccccc" points="3350.09,-25.3425 3358.99,-19.5931 3348.45,-18.538 3350.09,-25.3425"/>
</g>
<!-- String.CharacterView -->
<g id="node28" class="node">
<g id="a_node28"><a xlink:href="/swift-2/type/String.CharacterView/" target="_top">
<polygon fill="#999999" stroke="#999999" points="621.376,-22 498.624,-22 498.624,-0 621.376,-0 621.376,-22"/>
<text text-anchor="middle" x="560" y="-7.4" font-family="Helvetica,sans-Serif" font-size="12.00" fill="white">String.CharacterView</text>
</a>
</g>
</g>
<!-- CollectionType&#45;&gt;String.CharacterView -->
<g id="edge57" class="edge">
<path fill="none" stroke="#cccccc" d="M2318.58,-299.927C2061.64,-299.36 774.532,-294.499 702,-254 615.389,-205.64 576.718,-81.0898 564.522,-32.162"/>
<polygon fill="#cccccc" stroke="#cccccc" points="567.865,-31.0936 562.143,-22.1767 561.056,-32.7155 567.865,-31.0936"/>
</g>
<!-- String.UTF16View -->
<g id="node29" class="node">
<g id="a_node29"><a xlink:href="/swift-2/type/String.UTF16View/" target="_top">
<polygon fill="#999999" stroke="#999999" points="283.365,-22 176.635,-22 176.635,-0 283.365,-0 283.365,-22"/>
<text text-anchor="middle" x="230" y="-7.4" font-family="Helvetica,sans-Serif" font-size="12.00" fill="white">String.UTF16View</text>
</a>
</g>
</g>
<!-- CollectionType&#45;&gt;String.UTF16View -->
<g id="edge59" class="edge">
<path fill="none" stroke="#cccccc" d="M2318.85,-299.798C2061.65,-298.497 761.917,-290.162 588,-254 453.301,-225.992 416.045,-213.452 301,-138 270.252,-117.834 259.12,-112.542 242,-80 234.249,-65.2663 231.376,-46.5067 230.37,-32.4251"/>
<polygon fill="#cccccc" stroke="#cccccc" points="233.86,-32.1302 229.905,-22.3011 226.867,-32.4509 233.86,-32.1302"/>
</g>
<!-- String.UTF8View -->
<g id="node30" class="node">
<g id="a_node30"><a xlink:href="/swift-2/type/String.UTF8View/" target="_top">
<polygon fill="#999999" stroke="#999999" points="3781.36,-22 3680.64,-22 3680.64,-0 3781.36,-0 3781.36,-22"/>
<text text-anchor="middle" x="3731" y="-7.4" font-family="Helvetica,sans-Serif" font-size="12.00" fill="white">String.UTF8View</text>
</a>
</g>
</g>
<!-- CollectionType&#45;&gt;String.UTF8View -->
<g id="edge60" class="edge">
<path fill="none" stroke="#cccccc" d="M2407.34,-298.475C2486.58,-295.051 2657.36,-284.499 2798,-254 3062.68,-196.601 3111.02,-118.55 3375,-58 3501.02,-29.0952 3538.03,-40.3116 3670.48,-21.9956"/>
<polygon fill="#cccccc" stroke="#cccccc" points="3671.2,-25.4295 3680.61,-20.5639 3670.22,-18.4984 3671.2,-25.4295"/>
</g>
<!-- String.UnicodeScalarView -->
<g id="node31" class="node">
<g id="a_node31"><a xlink:href="/swift-2/type/String.UnicodeScalarView/" target="_top">
<polygon fill="#999999" stroke="#999999" points="474.892,-22 327.108,-22 327.108,-0 474.892,-0 474.892,-22"/>
<text text-anchor="middle" x="401" y="-7.4" font-family="Helvetica,sans-Serif" font-size="12.00" fill="white">String.UnicodeScalarView</text>
</a>
</g>
</g>
<!-- CollectionType&#45;&gt;String.UnicodeScalarView -->
<g id="edge58" class="edge">
<path fill="none" stroke="#cccccc" d="M2318.78,-299.927C2068.22,-299.365 832.247,-294.54 668,-254 562.587,-227.981 531.785,-212.711 453,-138 430.46,-116.625 425.822,-108.726 414,-80 407.71,-64.7171 404.427,-46.2343 402.735,-32.3979"/>
<polygon fill="#cccccc" stroke="#cccccc" points="406.173,-31.6243 401.656,-22.0404 399.211,-32.3491 406.173,-31.6243"/>
</g>
<!-- UnicodeScalar.UTF16View -->
<g id="node32" class="node">
<g id="a_node32"><a xlink:href="/swift-2/type/UnicodeScalar.UTF16View/" target="_top">
<polygon fill="#999999" stroke="#999999" points="2459.39,-22 2306.61,-22 2306.61,-0 2459.39,-0 2459.39,-22"/>
<text text-anchor="middle" x="2383" y="-7.4" font-family="Helvetica,sans-Serif" font-size="12.00" fill="white">UnicodeScalar.UTF16View</text>
</a>
</g>
</g>
<!-- CollectionType&#45;&gt;UnicodeScalar.UTF16View -->
<g id="edge52" class="edge">
<path fill="none" stroke="#cccccc" d="M2368.94,-289.698C2379.62,-270.153 2401,-226.056 2401,-186 2401,-186 2401,-186 2401,-126 2401,-92.767 2393.44,-54.744 2388.12,-32.0876"/>
<polygon fill="#cccccc" stroke="#cccccc" points="2391.5,-31.1742 2385.73,-22.2881 2384.7,-32.8327 2391.5,-31.1742"/>
</g>
<!-- UnsafeBufferPointer -->
<g id="node33" class="node">
<g id="a_node33"><a xlink:href="/swift-2/type/UnsafeBufferPointer/" target="_top">
<polygon fill="#999999" stroke="#999999" points="3662.39,-22 3545.61,-22 3545.61,-0 3662.39,-0 3662.39,-22"/>
<text text-anchor="middle" x="3604" y="-7.4" font-family="Helvetica,sans-Serif" font-size="12.00" fill="white">UnsafeBufferPointer</text>
</a>
</g>
</g>
<!-- CollectionType&#45;&gt;UnsafeBufferPointer -->
<g id="edge53" class="edge">
<path fill="none" stroke="#cccccc" d="M2407.3,-297.695C2478.59,-293.302 2622.86,-281.585 2742,-254 2997.67,-194.803 3044.4,-121.628 3299,-58 3304.73,-56.5682 3447.46,-35.2567 3535.61,-22.1502"/>
<polygon fill="#cccccc" stroke="#cccccc" points="3536.17,-25.6053 3545.55,-20.673 3535.14,-18.6814 3536.17,-25.6053"/>
</g>
<!-- UnsafeMutableBufferPointer -->
<g id="node34" class="node">
<g id="a_node34"><a xlink:href="/swift-2/type/UnsafeMutableBufferPointer/" target="_top">
<polygon fill="#999999" stroke="#999999" points="1685.91,-22 1526.09,-22 1526.09,-0 1685.91,-0 1685.91,-22"/>
<text text-anchor="middle" x="1606" y="-7.4" font-family="Helvetica,sans-Serif" font-size="12.00" fill="white">UnsafeMutableBufferPointer</text>
</a>
</g>
</g>
<!-- CollectionType&#45;&gt;UnsafeMutableBufferPointer -->
<g id="edge54" class="edge">
<path fill="none" stroke="#cccccc" d="M2329.2,-289.968C2303.51,-281.779 2267.67,-269.113 2238,-254 2098.39,-182.892 2091.51,-113.517 1945,-58 1922.16,-49.3444 1788.69,-32.8179 1696.2,-22.1105"/>
<polygon fill="#cccccc" stroke="#cccccc" points="1696.6,-18.633 1686.26,-20.9639 1695.79,-25.5869 1696.6,-18.633"/>
</g>
<!-- _Sliceable -->
<g id="node38" class="node">
<g id="a_node38"><a xlink:href="/swift-2/protocol/_Sliceable/" target="_top">
<path fill="#999999" stroke="#999999" d="M792.194,-254C792.194,-254 741.806,-254 741.806,-254 738.139,-254 734.473,-250.333 734.473,-246.667 734.473,-246.667 734.473,-239.333 734.473,-239.333 734.473,-235.667 738.139,-232 741.806,-232 741.806,-232 792.194,-232 792.194,-232 795.861,-232 799.527,-235.667 799.527,-239.333 799.527,-239.333 799.527,-246.667 799.527,-246.667 799.527,-250.333 795.861,-254 792.194,-254"/>
<text text-anchor="middle" x="767" y="-239.4" font-family="Helvetica,sans-Serif" font-size="12.00" fill="white">_Sliceable</text>
</a>
</g>
</g>
<!-- CollectionType&#45;&gt;_Sliceable -->
<g id="edge55" class="edge">
<path fill="none" stroke="#cccccc" d="M2318.65,-298.444C2088.82,-290.38 1035.32,-253.415 809.637,-245.496"/>
<polygon fill="#cccccc" stroke="#cccccc" points="809.639,-241.994 799.522,-245.141 809.393,-248.99 809.639,-241.994"/>
</g>
<!-- __ArrayType -->
<g id="node39" class="node">
<g id="a_node39"><a xlink:href="/swift-2/protocol/__ArrayType/" target="_top">
<path fill="#999999" stroke="#999999" d="M1499.7,-138C1499.7,-138 1436.3,-138 1436.3,-138 1432.64,-138 1428.97,-134.333 1428.97,-130.667 1428.97,-130.667 1428.97,-123.333 1428.97,-123.333 1428.97,-119.667 1432.64,-116 1436.3,-116 1436.3,-116 1499.7,-116 1499.7,-116 1503.36,-116 1507.03,-119.667 1507.03,-123.333 1507.03,-123.333 1507.03,-130.667 1507.03,-130.667 1507.03,-134.333 1503.36,-138 1499.7,-138"/>
<text text-anchor="middle" x="1468" y="-123.4" font-family="Helvetica,sans-Serif" font-size="12.00" fill="white">__ArrayType</text>
</a>
</g>
</g>
<!-- CollectionType&#45;&gt;__ArrayType -->
<g id="edge56" class="edge">
<path fill="none" stroke="#cccccc" d="M2318.76,-297.609C2204.79,-290.598 1892.6,-265.978 1643,-196 1591.44,-181.545 1533.99,-157.638 1499.44,-142.364"/>
<polygon fill="#cccccc" stroke="#cccccc" points="1500.46,-138.989 1489.9,-138.111 1497.61,-145.381 1500.46,-138.989"/>
</g>
<!-- ExtensibleCollectionType&#45;&gt;Array -->
<g id="edge64" class="edge">
<path fill="none" stroke="#cccccc" d="M1154.23,-183.278C1233.19,-180.775 1352.36,-171.384 1381,-138 1416.66,-96.4368 1341.13,-49.7384 1295.45,-26.6084"/>
<polygon fill="#cccccc" stroke="#cccccc" points="1296.73,-23.3337 1286.21,-22.0407 1293.63,-29.6091 1296.73,-23.3337"/>
</g>
<!-- ExtensibleCollectionType&#45;&gt;ArraySlice -->
<g id="edge65" class="edge">
<path fill="none" stroke="#cccccc" d="M1048.26,-173.986C1026.66,-166.45 998.881,-154.564 978,-138 939.577,-107.522 908.437,-58.0563 893.182,-31.0618"/>
<polygon fill="#cccccc" stroke="#cccccc" points="896.193,-29.2738 888.297,-22.21 890.065,-32.6563 896.193,-29.2738"/>
</g>
<!-- ExtensibleCollectionType&#45;&gt;ContiguousArray -->
<g id="edge66" class="edge">
<path fill="none" stroke="#cccccc" d="M1154.18,-183.296C1296.26,-181.158 1601.21,-172.549 1633,-138 1657.07,-111.833 1654.71,-86.1566 1633,-58 1625.7,-48.5359 1565.24,-34.0691 1517.4,-23.8913"/>
<polygon fill="#cccccc" stroke="#cccccc" points="1517.92,-20.4228 1507.41,-21.788 1516.48,-27.2727 1517.92,-20.4228"/>
</g>
<!-- RangeReplaceableCollectionType -->
<g id="node22" class="node">
<g id="a_node22"><a xlink:href="/swift-2/protocol/RangeReplaceableCollectionType/" target="_top">
<path fill="#999999" stroke="#999999" d="M1169.76,-138C1169.76,-138 994.24,-138 994.24,-138 990.573,-138 986.906,-134.333 986.906,-130.667 986.906,-130.667 986.906,-123.333 986.906,-123.333 986.906,-119.667 990.573,-116 994.24,-116 994.24,-116 1169.76,-116 1169.76,-116 1173.43,-116 1177.09,-119.667 1177.09,-123.333 1177.09,-123.333 1177.09,-130.667 1177.09,-130.667 1177.09,-134.333 1173.43,-138 1169.76,-138"/>
<text text-anchor="middle" x="1082" y="-123.4" font-family="Helvetica,sans-Serif" font-size="12.00" fill="white">RangeReplaceableCollectionType</text>
</a>
</g>
</g>
<!-- ExtensibleCollectionType&#45;&gt;RangeReplaceableCollectionType -->
<g id="edge67" class="edge">
<path fill="none" stroke="#cccccc" d="M1082,-173.988C1082,-166.91 1082,-157.171 1082,-148.478"/>
<polygon fill="#cccccc" stroke="#cccccc" points="1085.5,-148.304 1082,-138.304 1078.5,-148.304 1085.5,-148.304"/>
</g>
<!-- ExtensibleCollectionType&#45;&gt;String.CharacterView -->
<g id="edge68" class="edge">
<path fill="none" stroke="#cccccc" d="M1051.3,-173.883C961.725,-144.369 700.739,-58.3739 600.167,-25.2352"/>
<polygon fill="#cccccc" stroke="#cccccc" points="601.259,-21.9099 590.666,-22.1045 599.068,-28.5583 601.259,-21.9099"/>
</g>
<!-- ExtensibleCollectionType&#45;&gt;String.UnicodeScalarView -->
<g id="edge69" class="edge">
<path fill="none" stroke="#cccccc" d="M1034.17,-173.935C991.743,-164.896 928.129,-151.075 873,-138 771.262,-113.87 746.034,-106.926 645,-80 575.233,-61.4069 494.589,-38.6922 445.719,-24.7909"/>
<polygon fill="#cccccc" stroke="#cccccc" points="446.662,-21.4201 436.085,-22.0475 444.744,-28.1525 446.662,-21.4201"/>
</g>
<!-- MutableCollectionType&#45;&gt;Array -->
<g id="edge79" class="edge">
<path fill="none" stroke="#cccccc" d="M1806.63,-173.902C1758.04,-150.217 1631.05,-90.6321 1519,-58 1443.19,-35.9224 1351.47,-22.4953 1301.29,-16.2347"/>
<polygon fill="#cccccc" stroke="#cccccc" points="1301.58,-12.7446 1291.23,-15.007 1300.73,-19.6931 1301.58,-12.7446"/>
</g>
<!-- MutableCollectionType&#45;&gt;ArraySlice -->
<g id="edge80" class="edge">
<path fill="none" stroke="#cccccc" d="M1761.62,-182.921C1655.81,-180.227 1440.83,-170.82 1262,-138 1227.41,-131.652 1219.79,-125.719 1186,-116 1130.03,-99.9028 1115.24,-98.4614 1060,-80 1009.34,-63.07 951.802,-40.2861 916.449,-25.8686"/>
<polygon fill="#cccccc" stroke="#cccccc" points="917.67,-22.5868 907.09,-22.0358 915.017,-29.0647 917.67,-22.5868"/>
</g>
<!-- MutableCollectionType&#45;&gt;ContiguousArray -->
<g id="edge81" class="edge">
<path fill="none" stroke="#cccccc" d="M1823.79,-173.742C1815.52,-149.168 1790.99,-86.8343 1747,-58 1663.08,-2.99931 1621.66,-36.4694 1517.51,-21.952"/>
<polygon fill="#cccccc" stroke="#cccccc" points="1517.98,-18.4833 1507.57,-20.4479 1516.93,-25.4045 1517.98,-18.4833"/>
</g>
<!-- MutableSliceable -->
<g id="node20" class="node">
<g id="a_node20"><a xlink:href="/swift-2/protocol/MutableSliceable/" target="_top">
<path fill="#999999" stroke="#999999" d="M1365.21,-138C1365.21,-138 1278.79,-138 1278.79,-138 1275.13,-138 1271.46,-134.333 1271.46,-130.667 1271.46,-130.667 1271.46,-123.333 1271.46,-123.333 1271.46,-119.667 1275.13,-116 1278.79,-116 1278.79,-116 1365.21,-116 1365.21,-116 1368.87,-116 1372.54,-119.667 1372.54,-123.333 1372.54,-123.333 1372.54,-130.667 1372.54,-130.667 1372.54,-134.333 1368.87,-138 1365.21,-138"/>
<text text-anchor="middle" x="1322" y="-123.4" font-family="Helvetica,sans-Serif" font-size="12.00" fill="white">MutableSliceable</text>
</a>
</g>
</g>
<!-- MutableCollectionType&#45;&gt;MutableSliceable -->
<g id="edge82" class="edge">
<path fill="none" stroke="#cccccc" d="M1761.5,-176.736C1663.01,-165.815 1478.16,-145.316 1382.61,-134.722"/>
<polygon fill="#cccccc" stroke="#cccccc" points="1382.86,-131.227 1372.53,-133.604 1382.09,-138.185 1382.86,-131.227"/>
</g>
<!-- MutableCollectionType&#45;&gt;UnsafeMutableBufferPointer -->
<g id="edge83" class="edge">
<path fill="none" stroke="#cccccc" d="M1826.73,-173.786C1825.52,-149.848 1819.07,-89.7592 1785,-58 1769.57,-43.6195 1722.79,-31.878 1680.92,-23.8574"/>
<polygon fill="#cccccc" stroke="#cccccc" points="1681.43,-20.3933 1670.96,-22.0006 1680.15,-27.2747 1681.43,-20.3933"/>
</g>
<!-- _ArrayBufferType -->
<g id="node35" class="node">
<g id="a_node35"><a xlink:href="/swift-2/protocol/_ArrayBufferType/" target="_top">
<path fill="#999999" stroke="#999999" d="M1933.04,-138C1933.04,-138 1844.96,-138 1844.96,-138 1841.29,-138 1837.62,-134.333 1837.62,-130.667 1837.62,-130.667 1837.62,-123.333 1837.62,-123.333 1837.62,-119.667 1841.29,-116 1844.96,-116 1844.96,-116 1933.04,-116 1933.04,-116 1936.71,-116 1940.38,-119.667 1940.38,-123.333 1940.38,-123.333 1940.38,-130.667 1940.38,-130.667 1940.38,-134.333 1936.71,-138 1933.04,-138"/>
<text text-anchor="middle" x="1889" y="-123.4" font-family="Helvetica,sans-Serif" font-size="12.00" fill="white">_ArrayBufferType</text>
</a>
</g>
</g>
<!-- MutableCollectionType&#45;&gt;_ArrayBufferType -->
<g id="edge84" class="edge">
<path fill="none" stroke="#cccccc" d="M1838.08,-173.988C1846.97,-165.966 1859.63,-154.527 1870.11,-145.065"/>
<polygon fill="#cccccc" stroke="#cccccc" points="1872.52,-147.604 1877.59,-138.304 1867.83,-142.409 1872.52,-147.604"/>
</g>
<!-- MutableSliceable&#45;&gt;Array -->
<g id="edge85" class="edge">
<path fill="none" stroke="#cccccc" d="M1316.85,-115.883C1307.2,-96.9174 1286.25,-55.7323 1273.82,-31.3004"/>
<polygon fill="#cccccc" stroke="#cccccc" points="1276.87,-29.5836 1269.22,-22.2579 1270.63,-32.7579 1276.87,-29.5836"/>
</g>
<!-- MutableSliceable&#45;&gt;ArraySlice -->
<g id="edge86" class="edge">
<path fill="none" stroke="#cccccc" d="M1283.43,-115.983C1201.4,-94.6815 1010.2,-45.0308 925.121,-22.938"/>
<polygon fill="#cccccc" stroke="#cccccc" points="925.845,-19.51 915.286,-20.3841 924.086,-26.2853 925.845,-19.51"/>
</g>
<!-- MutableSliceable&#45;&gt;ContiguousArray -->
<g id="edge87" class="edge">
<path fill="none" stroke="#cccccc" d="M1334.07,-115.883C1357.5,-96.243 1409.36,-52.7755 1438.01,-28.7597"/>
<polygon fill="#cccccc" stroke="#cccccc" points="1440.35,-31.3643 1445.76,-22.2579 1435.85,-25.9997 1440.35,-31.3643"/>
</g>
<!-- _ArrayType -->
<g id="node36" class="node">
<g id="a_node36"><a xlink:href="/swift-2/protocol/_ArrayType/" target="_top">
<path fill="#999999" stroke="#999999" d="M1241.19,-80C1241.19,-80 1184.81,-80 1184.81,-80 1181.14,-80 1177.48,-76.3333 1177.48,-72.6667 1177.48,-72.6667 1177.48,-65.3333 1177.48,-65.3333 1177.48,-61.6667 1181.14,-58 1184.81,-58 1184.81,-58 1241.19,-58 1241.19,-58 1244.86,-58 1248.52,-61.6667 1248.52,-65.3333 1248.52,-65.3333 1248.52,-72.6667 1248.52,-72.6667 1248.52,-76.3333 1244.86,-80 1241.19,-80"/>
<text text-anchor="middle" x="1213" y="-65.4" font-family="Helvetica,sans-Serif" font-size="12.00" fill="white">_ArrayType</text>
</a>
</g>
</g>
<!-- MutableSliceable&#45;&gt;_ArrayType -->
<g id="edge88" class="edge">
<path fill="none" stroke="#cccccc" d="M1302.51,-115.988C1285.57,-107.283 1260.79,-94.5539 1241.6,-84.6937"/>
<polygon fill="#cccccc" stroke="#cccccc" points="1243.18,-81.5705 1232.69,-80.1138 1239.98,-87.7968 1243.18,-81.5705"/>
</g>
<!-- RangeReplaceableCollectionType&#45;&gt;Array -->
<g id="edge70" class="edge">
<path fill="none" stroke="#cccccc" d="M1087.47,-115.751C1095.83,-100.986 1113.16,-73.7776 1135,-58 1162.6,-38.0599 1199.69,-26.0341 1227.01,-19.3079"/>
<polygon fill="#cccccc" stroke="#cccccc" points="1228.03,-22.6659 1236.97,-16.9841 1226.43,-15.8492 1228.03,-22.6659"/>
</g>
<!-- RangeReplaceableCollectionType&#45;&gt;ArraySlice -->
<g id="edge71" class="edge">
<path fill="none" stroke="#cccccc" d="M1057.44,-115.913C1037.07,-107.232 1007.56,-93.935 983,-80 954.845,-64.0262 924.331,-42.6274 904.511,-28.1327"/>
<polygon fill="#cccccc" stroke="#cccccc" points="906.583,-25.3115 896.458,-22.1914 902.427,-30.9445 906.583,-25.3115"/>
</g>
<!-- RangeReplaceableCollectionType&#45;&gt;ContiguousArray -->
<g id="edge72" class="edge">
<path fill="none" stroke="#cccccc" d="M1123.6,-115.928C1159.2,-107.102 1211.72,-93.5932 1257,-80 1314.57,-62.7173 1380.41,-39.8402 1420.59,-25.5216"/>
<polygon fill="#cccccc" stroke="#cccccc" points="1421.99,-28.7369 1430.23,-22.0743 1419.64,-22.1455 1421.99,-28.7369"/>
</g>
<!-- RangeReplaceableCollectionType&#45;&gt;String.CharacterView -->
<g id="edge74" class="edge">
<path fill="none" stroke="#cccccc" d="M1036.13,-115.983C940.429,-95.0821 719.751,-46.8881 615.924,-24.2132"/>
<polygon fill="#cccccc" stroke="#cccccc" points="616.466,-20.7491 605.949,-22.0348 614.972,-27.588 616.466,-20.7491"/>
</g>
<!-- RangeReplaceableCollectionType&#45;&gt;String.UnicodeScalarView -->
<g id="edge75" class="edge">
<path fill="none" stroke="#cccccc" d="M1009.31,-115.98C946.209,-107.107 852.441,-93.5025 771,-80 662.078,-61.9413 535.667,-38.0806 462.361,-23.9553"/>
<polygon fill="#cccccc" stroke="#cccccc" points="462.859,-20.4869 452.377,-22.0284 461.533,-27.3601 462.859,-20.4869"/>
</g>
<!-- RangeReplaceableCollectionType&#45;&gt;_ArrayType -->
<g id="edge73" class="edge">
<path fill="none" stroke="#cccccc" d="M1105.42,-115.988C1126.16,-107.124 1156.65,-94.0897 1179.88,-84.1587"/>
<polygon fill="#cccccc" stroke="#cccccc" points="1181.52,-87.2629 1189.34,-80.1138 1178.77,-80.8263 1181.52,-87.2629"/>
</g>
<!-- Sliceable -->
<g id="node27" class="node">
<g id="a_node27"><a xlink:href="/swift-2/protocol/Sliceable/" target="_top">
<path fill="#999999" stroke="#999999" d="M771.691,-196C771.691,-196 728.309,-196 728.309,-196 724.642,-196 720.975,-192.333 720.975,-188.667 720.975,-188.667 720.975,-181.333 720.975,-181.333 720.975,-177.667 724.642,-174 728.309,-174 728.309,-174 771.691,-174 771.691,-174 775.358,-174 779.025,-177.667 779.025,-181.333 779.025,-181.333 779.025,-188.667 779.025,-188.667 779.025,-192.333 775.358,-196 771.691,-196"/>
<text text-anchor="middle" x="750" y="-181.4" font-family="Helvetica,sans-Serif" font-size="12.00" fill="white">Sliceable</text>
</a>
</g>
</g>
<!-- Sliceable&#45;&gt;Array -->
<g id="edge96" class="edge">
<path fill="none" stroke="#cccccc" d="M777.318,-173.896C837.12,-151.892 984.255,-98.375 1109,-58 1149.24,-44.9749 1195.82,-31.3451 1227.32,-22.3357"/>
<polygon fill="#cccccc" stroke="#cccccc" points="1228.34,-25.686 1237,-19.5796 1226.42,-18.9539 1228.34,-25.686"/>
</g>
<!-- Sliceable&#45;&gt;ArraySlice -->
<g id="edge97" class="edge">
<path fill="none" stroke="#cccccc" d="M750.891,-173.915C753.425,-150.767 762.59,-93.1236 793,-58 805.674,-43.3615 824.143,-32.796 841.057,-25.5121"/>
<polygon fill="#cccccc" stroke="#cccccc" points="842.811,-28.5787 850.78,-21.5966 840.196,-22.0854 842.811,-28.5787"/>
</g>
<!-- Sliceable&#45;&gt;ContiguousArray -->
<g id="edge98" class="edge">
<path fill="none" stroke="#cccccc" d="M779.48,-182.779C918.583,-176.949 1503.13,-151.669 1516,-138 1546.2,-105.929 1503.62,-55.3496 1476.85,-29.0927"/>
<polygon fill="#cccccc" stroke="#cccccc" points="1479.13,-26.4288 1469.48,-22.0692 1474.31,-31.499 1479.13,-26.4288"/>
</g>
<!-- Sliceable&#45;&gt;MutableSliceable -->
<g id="edge99" class="edge">
<path fill="none" stroke="#cccccc" d="M779.152,-181.146C868.412,-172.407 1139.29,-145.887 1261.29,-133.943"/>
<polygon fill="#cccccc" stroke="#cccccc" points="1261.96,-137.395 1271.57,-132.937 1261.28,-130.428 1261.96,-137.395"/>
</g>
<!-- Sliceable&#45;&gt;String.CharacterView -->
<g id="edge100" class="edge">
<path fill="none" stroke="#cccccc" d="M738.684,-173.756C707.209,-145.263 618.373,-64.8429 579.089,-29.2809"/>
<polygon fill="#cccccc" stroke="#cccccc" points="581.26,-26.5245 571.497,-22.4081 576.562,-31.714 581.26,-26.5245"/>
</g>
<!-- Sliceable&#45;&gt;String.UTF16View -->
<g id="edge102" class="edge">
<path fill="none" stroke="#cccccc" d="M720.83,-181.649C671.458,-177.072 568.72,-164.949 486,-138 396.957,-108.991 299.815,-54.1117 255.097,-27.3924"/>
<polygon fill="#cccccc" stroke="#cccccc" points="256.744,-24.2987 246.372,-22.1376 253.133,-30.2952 256.744,-24.2987"/>
</g>
<!-- Sliceable&#45;&gt;String.UnicodeScalarView -->
<g id="edge101" class="edge">
<path fill="none" stroke="#cccccc" d="M720.922,-182.14C677.092,-178.441 592.286,-167.756 527,-138 488.336,-120.378 480.776,-110.312 451,-80 436.175,-64.9076 422.168,-45.2106 412.773,-30.9028"/>
<polygon fill="#cccccc" stroke="#cccccc" points="415.65,-28.9055 407.302,-22.3814 409.759,-32.6873 415.65,-28.9055"/>
</g>
<!-- _ArrayType&#45;&gt;Array -->
<g id="edge76" class="edge">
<path fill="none" stroke="#cccccc" d="M1222.12,-57.9883C1229.21,-50.2019 1239.23,-39.1971 1247.69,-29.9049"/>
<polygon fill="#cccccc" stroke="#cccccc" points="1250.47,-32.054 1254.62,-22.3039 1245.3,-27.3407 1250.47,-32.054"/>
</g>
<!-- _ArrayType&#45;&gt;ArraySlice -->
<g id="edge77" class="edge">
<path fill="none" stroke="#cccccc" d="M1177.37,-61.9538C1115.99,-51.5376 990.597,-30.2589 925.045,-19.1349"/>
<polygon fill="#cccccc" stroke="#cccccc" points="925.501,-15.6624 915.057,-17.4399 924.33,-22.5637 925.501,-15.6624"/>
</g>
<!-- _ArrayType&#45;&gt;ContiguousArray -->
<g id="edge78" class="edge">
<path fill="none" stroke="#cccccc" d="M1248.36,-59.9169C1289.19,-50.5852 1356.79,-35.1341 1404.16,-24.3069"/>
<polygon fill="#cccccc" stroke="#cccccc" points="1404.97,-27.7109 1413.94,-22.0705 1403.41,-20.8869 1404.97,-27.7109"/>
</g>
<!-- _CollectionGeneratorDefaultsType -->
<g id="node37" class="node">
<g id="a_node37"><a xlink:href="/swift-2/protocol/_CollectionGeneratorDefaultsType/" target="_top">
<path fill="#ee543d" stroke="#ee543d" d="M2718.25,-370C2718.25,-370 2539.75,-370 2539.75,-370 2536.09,-370 2532.42,-366.333 2532.42,-362.667 2532.42,-362.667 2532.42,-355.333 2532.42,-355.333 2532.42,-351.667 2536.09,-348 2539.75,-348 2539.75,-348 2718.25,-348 2718.25,-348 2721.91,-348 2725.58,-351.667 2725.58,-355.333 2725.58,-355.333 2725.58,-362.667 2725.58,-362.667 2725.58,-366.333 2721.91,-370 2718.25,-370"/>
<text text-anchor="middle" x="2629" y="-355.4" font-family="Helvetica,sans-Serif" font-size="12.00" fill="white">_CollectionGeneratorDefaultsType</text>
</a>
</g>
</g>
<!-- _CollectionGeneratorDefaultsType&#45;&gt;AnyBidirectionalCollection -->
<g id="edge1" class="edge">
<path fill="none" stroke="#cccccc" d="M2532.23,-352.402C2435.62,-345.752 2294.47,-332.855 2244,-312 2082.85,-245.411 2098.56,-140.595 1945,-58 1915.66,-42.2183 1880.42,-31.4608 1849.97,-24.3434"/>
<polygon fill="#cccccc" stroke="#cccccc" points="1850.36,-20.8454 1839.84,-22.0672 1848.83,-27.675 1850.36,-20.8454"/>
</g>
<!-- _CollectionGeneratorDefaultsType&#45;&gt;AnyForwardCollection -->
<g id="edge2" class="edge">
<path fill="none" stroke="#cccccc" d="M2532.38,-350.954C2447.82,-343.69 2332.11,-330.768 2290,-312 2167.02,-257.191 2161.91,-202.818 2059,-116 2022.31,-85.0462 1979.36,-49.0852 1954.85,-28.5884"/>
<polygon fill="#cccccc" stroke="#cccccc" points="1956.91,-25.7461 1946.99,-22.0169 1952.42,-31.1164 1956.91,-25.7461"/>
</g>
<!-- _CollectionGeneratorDefaultsType&#45;&gt;AnyRandomAccessCollection -->
<g id="edge3" class="edge">
<path fill="none" stroke="#cccccc" d="M2532.52,-356.26C2450.37,-352.659 2340.89,-342.139 2310,-312 2228.05,-232.037 2343.77,-142.947 2267,-58 2254,-43.6117 2211.71,-32.0455 2172.94,-24.1098"/>
<polygon fill="#cccccc" stroke="#cccccc" points="2173.15,-20.5824 2162.66,-22.0699 2171.79,-27.4486 2173.15,-20.5824"/>
</g>
<!-- _CollectionGeneratorDefaultsType&#45;&gt;Array -->
<g id="edge4" class="edge">
<path fill="none" stroke="#cccccc" d="M2532.45,-356.926C2161.03,-352.17 845,-329.299 845,-244 845,-244 845,-244 845,-184 845,-101.8 1124.46,-39.1443 1226.92,-18.9343"/>
<polygon fill="#cccccc" stroke="#cccccc" points="1227.68,-22.3511 1236.83,-17.0032 1226.35,-15.4802 1227.68,-22.3511"/>
</g>
<!-- _CollectionGeneratorDefaultsType&#45;&gt;ArraySlice -->
<g id="edge5" class="edge">
<path fill="none" stroke="#cccccc" d="M2532.49,-357.102C2232.91,-354.018 1321.42,-342.33 1027,-312 881.046,-296.964 808.003,-355.45 702,-254 637.207,-191.99 677.11,-110.254 750,-58 777.147,-38.539 813.229,-26.7449 840.961,-19.979"/>
<polygon fill="#cccccc" stroke="#cccccc" points="841.815,-23.3739 850.768,-17.7089 840.237,-16.5542 841.815,-23.3739"/>
</g>
<!-- _CollectionGeneratorDefaultsType&#45;&gt;CollectionOfOne -->
<g id="edge6" class="edge">
<path fill="none" stroke="#cccccc" d="M2706.61,-347.956C2807.51,-332.682 2971,-299.389 2971,-244 2971,-244 2971,-244 2971,-126 2971,-85.1698 3005.96,-48.7878 3029.94,-28.6299"/>
<polygon fill="#cccccc" stroke="#cccccc" points="3032.32,-31.2072 3037.89,-22.1958 3027.92,-25.7657 3032.32,-31.2072"/>
</g>
<!-- _CollectionGeneratorDefaultsType&#45;&gt;CollectionType -->
<g id="edge7" class="edge">
<path fill="none" stroke="#cccccc" d="M2581.44,-347.988C2535.27,-338.267 2465.26,-323.527 2417,-313.369"/>
<polygon fill="#cccccc" stroke="#cccccc" points="2417.56,-309.91 2407.05,-311.274 2416.12,-316.759 2417.56,-309.91"/>
</g>
<!-- _CollectionGeneratorDefaultsType&#45;&gt;ContiguousArray -->
<g id="edge8" class="edge">
<path fill="none" stroke="#cccccc" d="M2532.26,-355.674C2300.58,-348.819 1733,-323.875 1733,-244 1733,-244 1733,-244 1733,-126 1733,-86.2775 1709.14,-78.3117 1675,-58 1661.49,-49.9606 1576.91,-33.4596 1517.44,-22.5638"/>
<polygon fill="#cccccc" stroke="#cccccc" points="1517.85,-19.0816 1507.38,-20.7318 1516.6,-25.9682 1517.85,-19.0816"/>
</g>
<!-- _CollectionGeneratorDefaultsType&#45;&gt;Dictionary -->
<g id="edge9" class="edge">
<path fill="none" stroke="#cccccc" d="M2725.43,-354.565C3026.01,-343.229 3926,-304.254 3926,-244 3926,-244 3926,-244 3926,-126 3926,-82.7605 3966.83,-47.2175 3994.96,-27.8646"/>
<polygon fill="#cccccc" stroke="#cccccc" points="3997.17,-30.599 4003.58,-22.1609 3993.3,-24.7619 3997.17,-30.599"/>
</g>
<!-- _CollectionGeneratorDefaultsType&#45;&gt;DictionaryLiteral -->
<g id="edge10" class="edge">
<path fill="none" stroke="#cccccc" d="M2725.42,-351.002C2848.87,-339.336 3047,-310.288 3047,-244 3047,-244 3047,-244 3047,-126 3047,-78.1231 3097.83,-44.2778 3133.33,-26.4793"/>
<polygon fill="#cccccc" stroke="#cccccc" points="3134.94,-29.5876 3142.43,-22.0936 3131.9,-23.2816 3134.94,-29.5876"/>
</g>
<!-- _CollectionGeneratorDefaultsType&#45;&gt;EmptyCollection -->
<g id="edge11" class="edge">
<path fill="none" stroke="#cccccc" d="M2725.59,-354.954C2856.86,-349.912 3084.28,-337.72 3163,-312 3218.35,-293.914 3275,-302.234 3275,-244 3275,-244 3275,-244 3275,-126 3275,-85.1015 3302.62,-80.1527 3337,-58 3362.42,-41.6236 3394.16,-30.6197 3421.18,-23.4928"/>
<polygon fill="#cccccc" stroke="#cccccc" points="3422.07,-26.8798 3430.91,-21.0397 3420.35,-20.0925 3422.07,-26.8798"/>
</g>
<!-- _CollectionGeneratorDefaultsType&#45;&gt;FilterCollection -->
<g id="edge12" class="edge">
<path fill="none" stroke="#cccccc" d="M2725.57,-355.43C3048.57,-346.207 4071,-311.667 4071,-244 4071,-244 4071,-244 4071,-126 4071,-90.5184 4089.78,-52.7402 4102.8,-30.8107"/>
<polygon fill="#cccccc" stroke="#cccccc" points="4105.86,-32.5245 4108.12,-22.1752 4099.9,-28.8513 4105.86,-32.5245"/>
</g>
<!-- _CollectionGeneratorDefaultsType&#45;&gt;LazyBidirectionalCollection -->
<g id="edge13" class="edge">
<path fill="none" stroke="#cccccc" d="M2654.91,-347.991C2670.61,-340.516 2689.58,-328.696 2700,-312 2756.65,-221.236 2721.74,-82.9619 2705.73,-31.8715"/>
<polygon fill="#cccccc" stroke="#cccccc" points="2708.98,-30.5186 2702.56,-22.0866 2702.32,-32.6786 2708.98,-30.5186"/>
</g>
<!-- _CollectionGeneratorDefaultsType&#45;&gt;LazyForwardCollection -->
<g id="edge14" class="edge">
<path fill="none" stroke="#cccccc" d="M2532.52,-357.346C2176.35,-354.704 935.653,-343.405 541,-312 320.073,-294.419 47,-465.626 47,-244 47,-244 47,-244 47,-126 47,-92.7209 54.9754,-54.7115 60.5919,-32.0705"/>
<polygon fill="#cccccc" stroke="#cccccc" points="64.0091,-32.8354 63.1143,-22.2784 57.2304,-31.0891 64.0091,-32.8354"/>
</g>
<!-- _CollectionGeneratorDefaultsType&#45;&gt;LazyRandomAccessCollection -->
<g id="edge15" class="edge">
<path fill="none" stroke="#cccccc" d="M2725.49,-355.686C2891.35,-351.048 3223.62,-338.685 3337,-312 3413.01,-294.111 3499,-322.086 3499,-244 3499,-244 3499,-244 3499,-126 3499,-92.7129 3712.86,-45.8187 3822.21,-24.0166"/>
<polygon fill="#cccccc" stroke="#cccccc" points="3823.01,-27.4267 3832.14,-22.0493 3821.65,-20.5603 3823.01,-27.4267"/>
</g>
<!-- _CollectionGeneratorDefaultsType&#45;&gt;MapCollection -->
<g id="edge16" class="edge">
<path fill="none" stroke="#cccccc" d="M2622.62,-347.949C2595.82,-306.461 2487.83,-146.569 2361,-58 2340.27,-43.5214 2314.32,-32.6827 2292.23,-25.1747"/>
<polygon fill="#cccccc" stroke="#cccccc" points="2293.3,-21.8416 2282.71,-22.0594 2291.12,-28.4947 2293.3,-21.8416"/>
</g>
<!-- _CollectionGeneratorDefaultsType&#45;&gt;Range -->
<g id="edge17" class="edge">
<path fill="none" stroke="#cccccc" d="M2628.85,-347.778C2628.19,-319.499 2624.59,-238.08 2605,-174 2588.15,-118.877 2579.63,-105.514 2547,-58 2540.04,-47.867 2530.98,-37.6632 2523.06,-29.4494"/>
<polygon fill="#cccccc" stroke="#cccccc" points="2525.44,-26.8847 2515.92,-22.2512 2520.47,-31.8151 2525.44,-26.8847"/>
</g>
<!-- _CollectionGeneratorDefaultsType&#45;&gt;Repeat -->
<g id="edge18" class="edge">
<path fill="none" stroke="#cccccc" d="M2646.83,-347.873C2658.95,-339.876 2674.02,-327.495 2681,-312 2706.19,-256.079 2688.49,-234.874 2681,-174 2674.51,-121.256 2683.43,-100.852 2652,-58 2642.07,-44.4607 2626.84,-34.0675 2612.69,-26.6149"/>
<polygon fill="#cccccc" stroke="#cccccc" points="2614.13,-23.4237 2603.62,-22.1385 2611.04,-29.7014 2614.13,-23.4237"/>
</g>
<!-- _CollectionGeneratorDefaultsType&#45;&gt;ReverseCollection -->
<g id="edge19" class="edge">
<path fill="none" stroke="#cccccc" d="M2725.42,-355.18C2869.18,-348.314 3123,-324.756 3123,-244 3123,-244 3123,-244 3123,-126 3123,-71.0136 3185.93,-40.4064 3233.82,-25.0741"/>
<polygon fill="#cccccc" stroke="#cccccc" points="3234.94,-28.3915 3243.48,-22.1197 3232.9,-21.6976 3234.94,-28.3915"/>
</g>
<!-- _CollectionGeneratorDefaultsType&#45;&gt;ReverseRandomAccessCollection -->
<g id="edge20" class="edge">
<path fill="none" stroke="#cccccc" d="M2659.19,-347.953C2678.36,-340.403 2702.73,-328.514 2720,-312 2809.15,-226.77 2864.38,-84.0545 2882.45,-31.8768"/>
<polygon fill="#cccccc" stroke="#cccccc" points="2885.84,-32.7645 2885.74,-22.1702 2879.22,-30.5163 2885.84,-32.7645"/>
</g>
<!-- _CollectionGeneratorDefaultsType&#45;&gt;Set -->
<g id="edge21" class="edge">
<path fill="none" stroke="#cccccc" d="M2725.37,-358.263C2887.91,-356.078 3199,-339.431 3199,-244 3199,-244 3199,-244 3199,-126 3199,-85.1015 3227.06,-80.8246 3261,-58 3275.76,-48.0727 3317.93,-33.4637 3349.23,-23.3856"/>
<polygon fill="#cccccc" stroke="#cccccc" points="3350.49,-26.6554 3358.96,-20.2843 3348.37,-19.9858 3350.49,-26.6554"/>
</g>
<!-- _CollectionGeneratorDefaultsType&#45;&gt;String.CharacterView -->
<g id="edge25" class="edge">
<path fill="none" stroke="#cccccc" d="M2532.35,-357.507C2159.12,-355.361 828.521,-345.392 745,-312 648.559,-273.443 630.539,-233.195 589,-138 578.095,-113.008 575.265,-106.538 569,-80 565.281,-64.2449 562.974,-46.0481 561.628,-32.4452"/>
<polygon fill="#cccccc" stroke="#cccccc" points="565.093,-31.9008 560.713,-22.2536 558.121,-32.5264 565.093,-31.9008"/>
</g>
<!-- _CollectionGeneratorDefaultsType&#45;&gt;String.UTF16View -->
<g id="edge27" class="edge">
<path fill="none" stroke="#cccccc" d="M2532.47,-358.123C2158.99,-358.278 820.302,-355.748 635,-312 458.533,-270.338 400.601,-259.487 266,-138 243.65,-117.827 239.286,-108.945 231,-80 226.583,-64.57 226.575,-46.353 227.539,-32.6597"/>
<polygon fill="#cccccc" stroke="#cccccc" points="231.053,-32.6646 228.502,-22.3817 224.084,-32.0116 231.053,-32.6646"/>
</g>
<!-- _CollectionGeneratorDefaultsType&#45;&gt;String.UTF8View -->
<g id="edge28" class="edge">
<path fill="none" stroke="#cccccc" d="M2725.65,-357.236C2882.48,-354.993 3185.02,-346.218 3286,-312 3337.95,-294.396 3389,-298.854 3389,-244 3389,-244 3389,-244 3389,-126 3389,-73.714 3436.85,-78.3889 3485,-58 3493.56,-54.3767 3600.55,-35.0513 3670.58,-22.6297"/>
<polygon fill="#cccccc" stroke="#cccccc" points="3671.4,-26.0403 3680.63,-20.8497 3670.17,-19.1476 3671.4,-26.0403"/>
</g>
<!-- _CollectionGeneratorDefaultsType&#45;&gt;String.UnicodeScalarView -->
<g id="edge26" class="edge">
<path fill="none" stroke="#cccccc" d="M2532.44,-357.413C2153.16,-354.886 781.984,-343.596 695,-312 539.533,-255.528 479.044,-227.402 404,-80 396.554,-65.3753 396.304,-46.6065 397.634,-32.4935"/>
<polygon fill="#cccccc" stroke="#cccccc" points="401.135,-32.7046 398.931,-22.3415 394.192,-31.817 401.135,-32.7046"/>
</g>
<!-- _CollectionGeneratorDefaultsType&#45;&gt;UnicodeScalar.UTF16View -->
<g id="edge22" class="edge">
<path fill="none" stroke="#cccccc" d="M2625.45,-347.981C2610.61,-307.275 2549.93,-151.982 2456,-58 2443.58,-45.5709 2427.21,-34.8739 2413.13,-26.9313"/>
<polygon fill="#cccccc" stroke="#cccccc" points="2414.72,-23.8145 2404.26,-22.1191 2411.38,-29.9664 2414.72,-23.8145"/>
</g>
<!-- _CollectionGeneratorDefaultsType&#45;&gt;UnsafeBufferPointer -->
<g id="edge23" class="edge">
<path fill="none" stroke="#cccccc" d="M2725.44,-355.16C2868.51,-350.155 3129.83,-337.758 3220,-312 3283.08,-293.983 3351,-309.599 3351,-244 3351,-244 3351,-244 3351,-126 3351,-93.9507 3350.8,-79.0089 3375,-58 3387.17,-47.434 3472.56,-32.249 3535.52,-22.258"/>
<polygon fill="#cccccc" stroke="#cccccc" points="3536.08,-25.7125 3545.42,-20.7006 3534.99,-18.7976 3536.08,-25.7125"/>
</g>
<!-- _CollectionGeneratorDefaultsType&#45;&gt;UnsafeMutableBufferPointer -->
<g id="edge24" class="edge">
<path fill="none" stroke="#cccccc" d="M2532.23,-353.941C2423.88,-348.304 2255.75,-335.973 2197,-312 2066.92,-258.919 2070.25,-186.965 1949,-116 1890.52,-81.7718 1872.59,-78.4825 1808,-58 1763.12,-43.7679 1711.32,-32.0629 1671.41,-24.022"/>
<polygon fill="#cccccc" stroke="#cccccc" points="1672.02,-20.5753 1661.53,-22.0573 1670.66,-27.4408 1672.02,-20.5753"/>
</g>
<!-- _Sliceable&#45;&gt;Array -->
<g id="edge89" class="edge">
<path fill="none" stroke="#cccccc" d="M799.638,-242.386C883.949,-242.745 1106.37,-239.448 1163,-196 1192.35,-173.48 1194.5,-152.006 1186,-116 1179.8,-89.7314 1153.62,-80.8396 1168,-58 1180.92,-37.4789 1205.82,-25.9093 1227.02,-19.5061"/>
<polygon fill="#cccccc" stroke="#cccccc" points="1228.03,-22.8573 1236.75,-16.8376 1226.18,-16.1065 1228.03,-22.8573"/>
</g>
<!-- _Sliceable&#45;&gt;ArraySlice -->
<g id="edge90" class="edge">
<path fill="none" stroke="#cccccc" d="M772.134,-231.82C790.026,-196.345 849.82,-77.7884 873.36,-31.114"/>
<polygon fill="#cccccc" stroke="#cccccc" points="876.547,-32.5669 877.925,-22.062 870.297,-29.4146 876.547,-32.5669"/>
</g>
<!-- _Sliceable&#45;&gt;ContiguousArray -->
<g id="edge91" class="edge">
<path fill="none" stroke="#cccccc" d="M799.562,-240.702C952.691,-234.271 1596.17,-203.476 1654,-138 1677.54,-111.351 1676.08,-85.8662 1654,-58 1645.37,-47.1044 1571.76,-31.9849 1517.28,-22.0997"/>
<polygon fill="#cccccc" stroke="#cccccc" points="1517.81,-18.639 1507.35,-20.3171 1516.57,-25.5289 1517.81,-18.639"/>
</g>
<!-- _Sliceable&#45;&gt;Sliceable -->
<g id="edge92" class="edge">
<path fill="none" stroke="#cccccc" d="M763.961,-231.988C761.764,-224.752 758.724,-214.737 756.041,-205.9"/>
<polygon fill="#cccccc" stroke="#cccccc" points="759.382,-204.856 753.128,-196.304 752.684,-206.889 759.382,-204.856"/>
</g>
<!-- _Sliceable&#45;&gt;String.CharacterView -->
<g id="edge93" class="edge">
<path fill="none" stroke="#cccccc" d="M753.881,-231.902C742.446,-222.899 725.607,-209.147 712,-196 662.204,-147.887 651.149,-134.154 608,-80 595.269,-64.0224 581.961,-44.9536 572.595,-31.0806"/>
<polygon fill="#cccccc" stroke="#cccccc" points="575.264,-28.7759 566.797,-22.4081 569.445,-32.6666 575.264,-28.7759"/>
</g>
<!-- _Sliceable&#45;&gt;String.UTF16View -->
<g id="edge95" class="edge">
<path fill="none" stroke="#cccccc" d="M734.572,-236.928C691.762,-229.825 614.293,-215.557 550,-196 417.586,-155.721 361.094,-175.589 261,-80 247.409,-67.0209 239.274,-46.9604 234.771,-31.9866"/>
<polygon fill="#cccccc" stroke="#cccccc" points="238.101,-30.8935 232.109,-22.1564 231.345,-32.7236 238.101,-30.8935"/>
</g>
<!-- _Sliceable&#45;&gt;String.UnicodeScalarView -->
<g id="edge94" class="edge">
<path fill="none" stroke="#cccccc" d="M734.562,-234.924C679.963,-221.979 567.67,-190.843 486,-138 455.656,-118.366 448.917,-110.159 429,-80 419.132,-65.0583 411.673,-46.0786 406.944,-31.9701"/>
<polygon fill="#cccccc" stroke="#cccccc" points="410.229,-30.7496 403.866,-22.2782 403.558,-32.8685 410.229,-30.7496"/>
</g>
<!-- __ArrayType&#45;&gt;Array -->
<g id="edge103" class="edge">
<path fill="none" stroke="#cccccc" d="M1467.14,-115.593C1465.33,-100.633 1459.8,-73.1827 1443,-58 1403.89,-22.6442 1341.24,-13.7241 1301.38,-11.8697"/>
<polygon fill="#cccccc" stroke="#cccccc" points="1301.39,-8.36799 1291.28,-11.528 1301.15,-15.364 1301.39,-8.36799"/>
</g>
<!-- __ArrayType&#45;&gt;ArraySlice -->
<g id="edge104" class="edge">
<path fill="none" stroke="#cccccc" d="M1442.12,-115.897C1402.76,-100.937 1325.22,-73.0447 1257,-58 1138.36,-31.8333 995.023,-19.423 925.264,-14.581"/>
<polygon fill="#cccccc" stroke="#cccccc" points="925.329,-11.0775 915.115,-13.8943 924.856,-18.0615 925.329,-11.0775"/>
</g>
<!-- __ArrayType&#45;&gt;ContiguousArray -->
<g id="edge105" class="edge">
<path fill="none" stroke="#cccccc" d="M1472.63,-115.804C1478.07,-102.454 1485.8,-78.3542 1481,-58 1478.78,-48.6095 1474.34,-38.9503 1469.94,-30.9225"/>
<polygon fill="#cccccc" stroke="#cccccc" points="1472.83,-28.9286 1464.76,-22.0672 1466.79,-32.4654 1472.83,-28.9286"/>
</g>
<!-- __ArrayType&#45;&gt;_ArrayType -->
<g id="edge106" class="edge">
<path fill="none" stroke="#cccccc" d="M1428.72,-117.373C1382.8,-107.29 1306.96,-90.6347 1258.52,-79.9974"/>
<polygon fill="#cccccc" stroke="#cccccc" points="1259.14,-76.5499 1248.62,-77.8234 1257.64,-83.387 1259.14,-76.5499"/>
</g>
</g>
</svg>
