<?xml version="1.0" encoding="UTF-8" standalone="no"?>
<!DOCTYPE svg PUBLIC "-//W3C//DTD SVG 1.1//EN"
 "http://www.w3.org/Graphics/SVG/1.1/DTD/svg11.dtd">
<!-- Generated by graphviz version 2.36.0 (20140111.2315)
 -->
<!-- Title: _CollectionGeneratorDefaultsType &#45; Type Hierarchy &#45; SwiftDoc.org Pages: 1 -->
<svg width="4269pt" height="485pt"
 viewBox="0.00 0.00 4269.40 485.20" xmlns="http://www.w3.org/2000/svg" xmlns:xlink="http://www.w3.org/1999/xlink">
<g id="graph0" class="graph" transform="scale(1 1) rotate(0) translate(7.2 427.6)">
<g transform="translate(0 -427.6)">
<g>
    <path fill="#666666" d="M13.846,10.832c-0.336-0.464-0.792-0.844-1.368-1.14s-1.224-0.444-1.944-0.444
        c-0.384,0-0.772,0.052-1.164,0.156C8.977,9.509,8.622,9.677,8.301,9.908c-0.32,0.232-0.58,0.52-0.78,0.864
        c-0.2,0.344-0.3,0.756-0.3,1.236c0,0.464,0.092,0.852,0.276,1.164c0.184,0.312,0.432,0.576,0.744,0.792s0.68,0.4,1.104,0.552
        c0.423,0.152,0.876,0.309,1.356,0.468c0.576,0.177,1.16,0.376,1.752,0.601c0.592,0.224,1.128,0.52,1.608,0.888
        s0.872,0.828,1.176,1.38s0.456,1.252,0.456,2.101c0,0.88-0.164,1.644-0.492,2.292c-0.328,0.647-0.765,1.184-1.308,1.607
        c-0.544,0.424-1.172,0.74-1.884,0.948s-1.444,0.312-2.196,0.312c-1.072,0-2.108-0.208-3.108-0.624
        c-1-0.415-1.828-1.031-2.484-1.848l1.848-1.56c0.4,0.592,0.936,1.071,1.608,1.439c0.672,0.368,1.399,0.552,2.184,0.552
        c0.4,0,0.8-0.056,1.2-0.168c0.4-0.111,0.764-0.288,1.092-0.527c0.328-0.24,0.596-0.54,0.804-0.9
        c0.208-0.36,0.312-0.796,0.312-1.308s-0.108-0.94-0.324-1.284c-0.216-0.344-0.508-0.636-0.876-0.876s-0.796-0.444-1.284-0.612
        c-0.488-0.168-1.004-0.34-1.548-0.516c-0.544-0.16-1.08-0.356-1.608-0.588c-0.528-0.232-1-0.528-1.416-0.889
        c-0.416-0.359-0.752-0.804-1.008-1.332c-0.256-0.527-0.384-1.184-0.384-1.968c0-0.848,0.172-1.576,0.516-2.184
        c0.344-0.608,0.792-1.112,1.344-1.512c0.552-0.4,1.176-0.692,1.872-0.876c0.696-0.184,1.396-0.276,2.1-0.276
        c0.992,0,1.92,0.176,2.784,0.528c0.864,0.352,1.56,0.824,2.088,1.416L13.846,10.832z"/>
    <path fill="#666666" d="M18.813,13.304l2.568,8.688h0.048l2.712-8.688h2.376l2.76,8.688h0.048l2.568-8.688h2.376L30.501,24.68
        h-2.352l-2.808-8.544h-0.048l-2.784,8.544h-2.352l-3.792-11.376H18.813z"/>
    <path fill="#666666" d="M38.685,9.2c0,0.416-0.147,0.76-0.44,1.032c-0.294,0.272-0.647,0.408-1.06,0.408s-0.762-0.14-1.047-0.42
        c-0.286-0.28-0.429-0.62-0.429-1.02c0-0.416,0.143-0.764,0.429-1.044c0.286-0.28,0.635-0.42,1.047-0.42s0.766,0.14,1.06,0.42
        C38.538,8.437,38.685,8.784,38.685,9.2z M38.325,24.68h-2.256V13.304h2.256V24.68z"/>
    <path fill="#666666" d="M47.613,15.152h-2.64v9.528h-2.256v-9.528h-2.256v-1.848h2.256v-2.376c0-0.672,0.076-1.292,0.228-1.86
        c0.152-0.568,0.4-1.06,0.744-1.476c0.344-0.416,0.784-0.744,1.32-0.984c0.536-0.24,1.188-0.36,1.956-0.36
        c0.544,0,1.016,0.056,1.416,0.168l-0.264,1.944c-0.176-0.048-0.352-0.088-0.528-0.12c-0.176-0.032-0.376-0.048-0.6-0.048
        c-0.432,0-0.78,0.076-1.044,0.228c-0.264,0.152-0.468,0.356-0.612,0.612s-0.24,0.548-0.288,0.876
        c-0.048,0.328-0.072,0.668-0.072,1.02v2.376h2.64V15.152z"/>
    <path fill="#666666" d="M54.909,15.152h-3.024v5.91c0,0.687,0.128,1.177,0.384,1.472c0.256,0.295,0.664,0.442,1.224,0.442
        c0.208,0,0.432-0.021,0.672-0.065c0.24-0.044,0.456-0.11,0.648-0.198l0.072,1.848c-0.272,0.096-0.572,0.172-0.9,0.229
        c-0.328,0.056-0.668,0.084-1.02,0.084c-1.072,0-1.892-0.296-2.46-0.889c-0.568-0.592-0.852-1.479-0.852-2.664v-6.168h-2.184
        v-1.848h2.184V10.04h2.232v3.264h3.024V15.152z"/>
    <path fill="#666666" d="M57.356,7.688h5.832c1.088,0,2.176,0.16,3.264,0.48c1.088,0.32,2.072,0.824,2.952,1.512
        s1.592,1.568,2.136,2.64c0.544,1.072,0.816,2.36,0.816,3.864c0,1.456-0.272,2.716-0.816,3.78s-1.256,1.943-2.136,2.64
        s-1.864,1.216-2.952,1.561c-1.088,0.344-2.176,0.516-3.264,0.516h-5.832V7.688z M59.732,22.593h2.976
        c1.024,0,1.972-0.145,2.844-0.432c0.872-0.288,1.624-0.704,2.256-1.248c0.632-0.544,1.124-1.216,1.476-2.017
        c0.352-0.8,0.528-1.704,0.528-2.712c0-1.056-0.176-1.983-0.528-2.784c-0.353-0.8-0.844-1.468-1.476-2.004
        c-0.632-0.536-1.384-0.944-2.256-1.224s-1.82-0.42-2.844-0.42h-2.976V22.593z"/>
    <path fill="#666666" d="M86.06,18.969c0,0.88-0.156,1.688-0.468,2.424c-0.312,0.736-0.744,1.372-1.296,1.908
        c-0.552,0.536-1.204,0.952-1.956,1.248c-0.752,0.296-1.56,0.443-2.424,0.443c-0.864,0-1.672-0.147-2.424-0.443
        c-0.752-0.296-1.4-0.712-1.944-1.248c-0.544-0.536-0.972-1.172-1.284-1.908c-0.312-0.735-0.468-1.544-0.468-2.424
        s0.156-1.684,0.468-2.412c0.312-0.728,0.74-1.356,1.284-1.884c0.543-0.528,1.191-0.939,1.944-1.236
        c0.752-0.296,1.56-0.444,2.424-0.444c0.864,0,1.672,0.148,2.424,0.444c0.752,0.297,1.404,0.708,1.956,1.236
        c0.552,0.527,0.984,1.156,1.296,1.884C85.904,17.285,86.06,18.089,86.06,18.969z M83.708,18.98c0-0.542-0.084-1.061-0.252-1.556
        c-0.169-0.494-0.414-0.929-0.734-1.304s-0.718-0.674-1.192-0.897s-1.015-0.335-1.625-0.335c-0.61,0-1.152,0.111-1.625,0.335
        c-0.474,0.224-0.871,0.522-1.191,0.897c-0.321,0.375-0.566,0.81-0.734,1.304C76.184,17.92,76.1,18.438,76.1,18.98
        c0,0.543,0.084,1.062,0.253,1.556c0.168,0.495,0.413,0.934,0.734,1.316c0.321,0.383,0.718,0.686,1.191,0.909
        c0.473,0.224,1.015,0.335,1.625,0.335c0.61,0,1.151-0.111,1.625-0.335s0.871-0.526,1.192-0.909s0.565-0.821,0.734-1.316
        C83.624,20.042,83.708,19.523,83.708,18.98z"/>
    <path fill="#666666" d="M96.428,16.184c-0.24-0.368-0.6-0.676-1.08-0.924s-0.992-0.372-1.536-0.372
        c-0.592,0-1.116,0.112-1.572,0.336c-0.456,0.225-0.844,0.524-1.164,0.9c-0.32,0.376-0.564,0.812-0.732,1.308
        s-0.252,1.017-0.252,1.56c0,0.545,0.084,1.064,0.252,1.561s0.412,0.933,0.732,1.308c0.32,0.376,0.712,0.677,1.176,0.9
        c0.464,0.225,0.992,0.336,1.584,0.336c0.576,0,1.1-0.111,1.572-0.336c0.472-0.224,0.86-0.528,1.164-0.912l1.512,1.368
        c-0.48,0.561-1.08,0.996-1.8,1.308c-0.72,0.312-1.536,0.468-2.448,0.468c-0.88,0-1.692-0.144-2.436-0.432
        c-0.744-0.288-1.388-0.691-1.932-1.212c-0.544-0.52-0.972-1.147-1.284-1.884s-0.468-1.561-0.468-2.473
        c0-0.896,0.152-1.711,0.456-2.447c0.304-0.736,0.728-1.368,1.272-1.896c0.543-0.527,1.188-0.936,1.932-1.224
        c0.744-0.288,1.548-0.433,2.412-0.433c0.8,0,1.596,0.16,2.388,0.48s1.419,0.784,1.884,1.392L96.428,16.184z"/>
    <path fill="#666666" d="M103.1,23.24c0,0.417-0.152,0.784-0.456,1.104c-0.304,0.32-0.688,0.479-1.152,0.479
        c-0.448,0-0.828-0.155-1.14-0.468c-0.312-0.312-0.468-0.676-0.468-1.092c0-0.432,0.152-0.804,0.456-1.116
        c0.304-0.312,0.688-0.468,1.152-0.468c0.464,0,0.848,0.152,1.152,0.456C102.947,22.44,103.1,22.808,103.1,23.24z"/>
    <path fill="#666666" d="M116.635,18.969c0,0.88-0.156,1.688-0.468,2.424c-0.312,0.736-0.744,1.372-1.296,1.908
        c-0.552,0.536-1.204,0.952-1.956,1.248c-0.752,0.296-1.56,0.443-2.424,0.443c-0.864,0-1.672-0.147-2.424-0.443
        c-0.752-0.296-1.4-0.712-1.944-1.248c-0.544-0.536-0.972-1.172-1.284-1.908c-0.312-0.735-0.468-1.544-0.468-2.424
        s0.156-1.684,0.468-2.412c0.312-0.728,0.74-1.356,1.284-1.884c0.543-0.528,1.191-0.939,1.944-1.236
        c0.752-0.296,1.56-0.444,2.424-0.444c0.864,0,1.672,0.148,2.424,0.444c0.752,0.297,1.404,0.708,1.956,1.236
        c0.552,0.527,0.984,1.156,1.296,1.884C116.479,17.285,116.635,18.089,116.635,18.969z M114.283,18.98
        c0-0.542-0.084-1.061-0.252-1.556c-0.169-0.494-0.414-0.929-0.734-1.304s-0.718-0.674-1.192-0.897s-1.015-0.335-1.625-0.335
        c-0.61,0-1.152,0.111-1.625,0.335c-0.474,0.224-0.871,0.522-1.191,0.897c-0.321,0.375-0.566,0.81-0.734,1.304
        c-0.169,0.495-0.253,1.014-0.253,1.556c0,0.543,0.084,1.062,0.253,1.556c0.168,0.495,0.413,0.934,0.734,1.316
        c0.321,0.383,0.718,0.686,1.191,0.909c0.473,0.224,1.015,0.335,1.625,0.335c0.61,0,1.151-0.111,1.625-0.335
        s0.871-0.526,1.192-0.909s0.565-0.821,0.734-1.316C114.199,20.042,114.283,19.523,114.283,18.98z"/>
    <path fill="#666666" d="M119.251,14.577c-0.016-0.48-0.04-0.904-0.072-1.272h2.136c0.032,0.288,0.056,0.62,0.072,0.996
        c0.016,0.376,0.024,0.684,0.024,0.924h0.072c0.32-0.672,0.788-1.212,1.404-1.62c0.616-0.408,1.308-0.612,2.076-0.612
        c0.352,0,0.648,0.033,0.888,0.097l-0.096,2.088c-0.32-0.08-0.664-0.12-1.032-0.12c-0.544,0-1.016,0.101-1.416,0.3
        c-0.4,0.2-0.732,0.468-0.996,0.805c-0.264,0.336-0.46,0.724-0.588,1.163c-0.128,0.44-0.192,0.9-0.192,1.381v5.976h-2.256v-8.928
        C119.275,15.449,119.267,15.056,119.251,14.577z"/>
    <path fill="#666666" d="M128.419,26.625c0.496,0.56,1.116,1.008,1.86,1.344c0.744,0.336,1.508,0.504,2.292,0.504
        c0.752,0,1.384-0.108,1.896-0.324s0.924-0.512,1.236-0.888s0.536-0.82,0.672-1.332c0.136-0.513,0.204-1.064,0.204-1.656v-1.464
        h-0.048c-0.416,0.641-0.984,1.128-1.704,1.464c-0.72,0.336-1.488,0.504-2.304,0.504c-0.864,0-1.652-0.151-2.364-0.456
        c-0.712-0.304-1.316-0.72-1.812-1.248c-0.496-0.527-0.88-1.147-1.152-1.859s-0.408-1.477-0.408-2.292
        c0-0.816,0.136-1.584,0.408-2.305c0.272-0.72,0.656-1.348,1.152-1.884c0.496-0.535,1.096-0.96,1.8-1.271
        c0.704-0.312,1.488-0.469,2.352-0.469c0.816,0,1.596,0.177,2.34,0.528c0.744,0.353,1.332,0.888,1.764,1.608h0.048v-1.824h2.184
        v10.8c0,0.832-0.104,1.628-0.312,2.388c-0.208,0.76-0.56,1.433-1.056,2.017s-1.144,1.052-1.944,1.404
        c-0.8,0.352-1.792,0.527-2.976,0.527c-0.992,0-1.988-0.18-2.988-0.54c-1-0.359-1.86-0.868-2.58-1.523L128.419,26.625z
         M129.091,18.873c0,0.527,0.084,1.031,0.253,1.512c0.168,0.479,0.417,0.904,0.746,1.271c0.329,0.369,0.726,0.664,1.192,0.889
        c0.465,0.224,0.995,0.336,1.589,0.336c0.577,0,1.107-0.104,1.589-0.312c0.481-0.207,0.891-0.491,1.228-0.852
        s0.598-0.784,0.782-1.272c0.185-0.487,0.277-1.012,0.277-1.571c0-0.544-0.093-1.057-0.277-1.536
        c-0.185-0.48-0.449-0.904-0.794-1.272c-0.345-0.367-0.755-0.66-1.228-0.876c-0.474-0.216-1-0.324-1.577-0.324
        c-0.594,0-1.124,0.108-1.589,0.324c-0.466,0.216-0.863,0.504-1.192,0.864s-0.578,0.784-0.746,1.271
        C129.175,17.812,129.091,18.329,129.091,18.873z"/>
</g>
<g><a xlink:href="/" pointer-events="all" target="_top"><polygon fill="none" points="0,0 145,0 145,35 0,35 0,0"/></a></g>

</g>


<!-- AnyBidirectionalCollection -->
<g id="node1" class="node">
<g id="a_node1"><a xlink:href="/swift-2/type/AnyBidirectionalCollection/" target="_top">
<polygon fill="#999999" stroke="#999999" points="148.054,-22 -0.054265,-22 -0.054265,-0 148.054,-0 148.054,-22"/>
<text text-anchor="middle" x="74" y="-7.4" font-family="Helvetica,sans-Serif" font-size="12.00" fill="white">AnyBidirectionalCollection</text>
</a>
</g>
</g>
<!-- AnyCollectionType -->
<g id="node2" class="node">
<g id="a_node2"><a xlink:href="/swift-2/protocol/AnyCollectionType/" target="_top">
<path fill="#999999" stroke="#999999" d="M435.211,-80C435.211,-80 340.789,-80 340.789,-80 337.123,-80 333.456,-76.3333 333.456,-72.6667 333.456,-72.6667 333.456,-65.3333 333.456,-65.3333 333.456,-61.6667 337.123,-58 340.789,-58 340.789,-58 435.211,-58 435.211,-58 438.877,-58 442.544,-61.6667 442.544,-65.3333 442.544,-65.3333 442.544,-72.6667 442.544,-72.6667 442.544,-76.3333 438.877,-80 435.211,-80"/>
<text text-anchor="middle" x="388" y="-65.4" font-family="Helvetica,sans-Serif" font-size="12.00" fill="white">AnyCollectionType</text>
</a>
</g>
</g>
<!-- AnyCollectionType&#45;&gt;AnyBidirectionalCollection -->
<g id="edge61" class="edge">
<path fill="none" stroke="#cccccc" d="M333.305,-58.2455C279.6,-48.6675 197.606,-34.0444 140.238,-23.8131"/>
<polygon fill="#cccccc" stroke="#cccccc" points="140.641,-20.3299 130.182,-22.0198 139.412,-27.2212 140.641,-20.3299"/>
</g>
<!-- AnyForwardCollection -->
<g id="node3" class="node">
<g id="a_node3"><a xlink:href="/swift-2/type/AnyForwardCollection/" target="_top">
<polygon fill="#999999" stroke="#999999" points="293.535,-22 166.465,-22 166.465,-0 293.535,-0 293.535,-22"/>
<text text-anchor="middle" x="230" y="-7.4" font-family="Helvetica,sans-Serif" font-size="12.00" fill="white">AnyForwardCollection</text>
</a>
</g>
</g>
<!-- AnyCollectionType&#45;&gt;AnyForwardCollection -->
<g id="edge62" class="edge">
<path fill="none" stroke="#cccccc" d="M359.753,-57.9883C334.106,-48.8984 296.084,-35.4223 267.822,-25.4053"/>
<polygon fill="#cccccc" stroke="#cccccc" points="268.863,-22.0611 258.269,-22.0192 266.525,-28.6589 268.863,-22.0611"/>
</g>
<!-- AnyRandomAccessCollection -->
<g id="node4" class="node">
<g id="a_node4"><a xlink:href="/swift-2/type/AnyRandomAccessCollection/" target="_top">
<polygon fill="#999999" stroke="#999999" points="478.554,-22 311.446,-22 311.446,-0 478.554,-0 478.554,-22"/>
<text text-anchor="middle" x="395" y="-7.4" font-family="Helvetica,sans-Serif" font-size="12.00" fill="white">AnyRandomAccessCollection</text>
</a>
</g>
</g>
<!-- AnyCollectionType&#45;&gt;AnyRandomAccessCollection -->
<g id="edge63" class="edge">
<path fill="none" stroke="#cccccc" d="M389.251,-57.9883C390.136,-50.9098 391.354,-41.1714 392.44,-32.4779"/>
<polygon fill="#cccccc" stroke="#cccccc" points="395.945,-32.6608 393.712,-22.3039 388.999,-31.7925 395.945,-32.6608"/>
</g>
<!-- Array -->
<g id="node5" class="node">
<g id="a_node5"><a xlink:href="/swift-2/type/Array/" target="_top">
<polygon fill="#999999" stroke="#999999" points="1143,-22 1089,-22 1089,-0 1143,-0 1143,-22"/>
<text text-anchor="middle" x="1116" y="-7.4" font-family="Helvetica,sans-Serif" font-size="12.00" fill="white">Array</text>
</a>
</g>
</g>
<!-- ArraySlice -->
<g id="node6" class="node">
<g id="a_node6"><a xlink:href="/swift-2/type/ArraySlice/" target="_top">
<polygon fill="#999999" stroke="#999999" points="1446.01,-22 1381.99,-22 1381.99,-0 1446.01,-0 1446.01,-22"/>
<text text-anchor="middle" x="1414" y="-7.4" font-family="Helvetica,sans-Serif" font-size="12.00" fill="white">ArraySlice</text>
</a>
</g>
</g>
<!-- BidirectionalReverseView -->
<g id="node7" class="node">
<g id="a_node7"><a xlink:href="/swift-2/type/BidirectionalReverseView/" target="_top">
<polygon fill="#999999" stroke="#999999" points="642.388,-22 497.612,-22 497.612,-0 642.388,-0 642.388,-22"/>
<text text-anchor="middle" x="570" y="-7.4" font-family="Helvetica,sans-Serif" font-size="12.00" fill="white">BidirectionalReverseView</text>
</a>
</g>
</g>
<!-- CollectionOfOne -->
<g id="node8" class="node">
<g id="a_node8"><a xlink:href="/swift-2/type/CollectionOfOne/" target="_top">
<polygon fill="#999999" stroke="#999999" points="759.032,-22 660.968,-22 660.968,-0 759.032,-0 759.032,-22"/>
<text text-anchor="middle" x="710" y="-7.4" font-family="Helvetica,sans-Serif" font-size="12.00" fill="white">CollectionOfOne</text>
</a>
</g>
</g>
<!-- CollectionType -->
<g id="node9" class="node">
<g id="a_node9"><a xlink:href="/swift-2/protocol/CollectionType/" target="_top">
<path fill="#999999" stroke="#999999" d="M2533.7,-312C2533.7,-312 2460.3,-312 2460.3,-312 2456.63,-312 2452.96,-308.333 2452.96,-304.667 2452.96,-304.667 2452.96,-297.333 2452.96,-297.333 2452.96,-293.667 2456.63,-290 2460.3,-290 2460.3,-290 2533.7,-290 2533.7,-290 2537.37,-290 2541.04,-293.667 2541.04,-297.333 2541.04,-297.333 2541.04,-304.667 2541.04,-304.667 2541.04,-308.333 2537.37,-312 2533.7,-312"/>
<text text-anchor="middle" x="2497" y="-297.4" font-family="Helvetica,sans-Serif" font-size="12.00" fill="white">CollectionType</text>
</a>
</g>
</g>
<!-- CollectionType&#45;&gt;AnyBidirectionalCollection -->
<g id="edge29" class="edge">
<path fill="none" stroke="#cccccc" d="M2452.88,-300.087C2182.21,-300.472 751.895,-300.288 563,-254 464.247,-229.801 187.243,-76.0074 100.39,-26.9888"/>
<polygon fill="#cccccc" stroke="#cccccc" points="102.099,-23.9342 91.6716,-22.0591 98.6538,-30.0277 102.099,-23.9342"/>
</g>
<!-- CollectionType&#45;&gt;AnyCollectionType -->
<g id="edge30" class="edge">
<path fill="none" stroke="#cccccc" d="M2452.74,-299.537C2183.12,-296.632 770.316,-280.201 683,-254 566.497,-219.041 450.619,-125.109 406.57,-86.707"/>
<polygon fill="#cccccc" stroke="#cccccc" points="408.783,-83.9922 398.967,-80.0048 404.154,-89.2432 408.783,-83.9922"/>
</g>
<!-- CollectionType&#45;&gt;AnyForwardCollection -->
<g id="edge31" class="edge">
<path fill="none" stroke="#cccccc" d="M2452.57,-300.172C2186.28,-301.038 807.21,-303.104 626,-254 463.601,-209.993 302.644,-76.7497 248.84,-29.1396"/>
<polygon fill="#cccccc" stroke="#cccccc" points="250.93,-26.3135 241.141,-22.2605 246.266,-31.5334 250.93,-26.3135"/>
</g>
<!-- CollectionType&#45;&gt;AnyRandomAccessCollection -->
<g id="edge32" class="edge">
<path fill="none" stroke="#cccccc" d="M2452.77,-299.805C2211.54,-298.598 1059.83,-290.927 906,-254 854.334,-241.597 524.536,-77.0674 424.031,-26.6096"/>
<polygon fill="#cccccc" stroke="#cccccc" points="425.545,-23.4532 415.038,-22.0917 422.402,-29.7083 425.545,-23.4532"/>
</g>
<!-- CollectionType&#45;&gt;Array -->
<g id="edge33" class="edge">
<path fill="none" stroke="#cccccc" d="M2452.61,-299.857C2233.15,-298.97 1269.57,-292.872 1142,-254 1063.05,-229.944 1026.49,-215.079 997,-138 989.243,-117.728 1001.24,-65.251 1007,-58 1024.55,-35.9025 1054.65,-24.2747 1078.78,-18.2433"/>
<polygon fill="#cccccc" stroke="#cccccc" points="1079.73,-21.6174 1088.7,-15.9869 1078.17,-14.7917 1079.73,-21.6174"/>
</g>
<!-- CollectionType&#45;&gt;ArraySlice -->
<g id="edge34" class="edge">
<path fill="none" stroke="#cccccc" d="M2452.69,-299.354C2279.37,-296.627 1647.07,-284.741 1449,-254 1253.82,-223.708 1140.06,-294.835 1020,-138 928.365,-18.2965 1251.92,-10.1837 1371.38,-11.142"/>
<polygon fill="#cccccc" stroke="#cccccc" points="1371.59,-14.6443 1381.62,-11.2507 1371.66,-7.64466 1371.59,-14.6443"/>
</g>
<!-- CollectionType&#45;&gt;BidirectionalReverseView -->
<g id="edge35" class="edge">
<path fill="none" stroke="#cccccc" d="M2452.92,-300.011C2217.58,-299.889 1114.38,-297.011 969,-254 806.767,-206.003 643.708,-75.2792 589.125,-28.7332"/>
<polygon fill="#cccccc" stroke="#cccccc" points="591.175,-25.8805 581.312,-22.0112 586.61,-31.1866 591.175,-25.8805"/>
</g>
<!-- CollectionType&#45;&gt;CollectionOfOne -->
<g id="edge36" class="edge">
<path fill="none" stroke="#cccccc" d="M2452.85,-300.165C2222.03,-300.823 1159.28,-301.247 1021,-254 886.641,-208.094 765.732,-77.5694 724.77,-29.7977"/>
<polygon fill="#cccccc" stroke="#cccccc" points="727.405,-27.4929 718.271,-22.124 722.063,-32.017 727.405,-27.4929"/>
</g>
<!-- ContiguousArray -->
<g id="node10" class="node">
<g id="a_node10"><a xlink:href="/swift-2/type/ContiguousArray/" target="_top">
<polygon fill="#999999" stroke="#999999" points="1787.53,-22 1688.47,-22 1688.47,-0 1787.53,-0 1787.53,-22"/>
<text text-anchor="middle" x="1738" y="-7.4" font-family="Helvetica,sans-Serif" font-size="12.00" fill="white">ContiguousArray</text>
</a>
</g>
</g>
<!-- CollectionType&#45;&gt;ContiguousArray -->
<g id="edge37" class="edge">
<path fill="none" stroke="#cccccc" d="M2476.26,-289.925C2402.3,-254.297 2144.02,-132.403 1921,-58 1879.95,-44.3067 1832.55,-32.4982 1796.27,-24.2748"/>
<polygon fill="#cccccc" stroke="#cccccc" points="1796.87,-20.8227 1786.35,-22.0518 1795.34,-27.6534 1796.87,-20.8227"/>
</g>
<!-- Dictionary -->
<g id="node11" class="node">
<g id="a_node11"><a xlink:href="/swift-2/type/Dictionary/" target="_top">
<polygon fill="#999999" stroke="#999999" points="2734.51,-22 2671.49,-22 2671.49,-0 2734.51,-0 2734.51,-22"/>
<text text-anchor="middle" x="2703" y="-7.4" font-family="Helvetica,sans-Serif" font-size="12.00" fill="white">Dictionary</text>
</a>
</g>
</g>
<!-- CollectionType&#45;&gt;Dictionary -->
<g id="edge38" class="edge">
<path fill="none" stroke="#cccccc" d="M2509.47,-289.778C2519.88,-280.914 2534.78,-267.429 2546,-254 2609.93,-177.517 2669.36,-73.6721 2692.64,-31.2494"/>
<polygon fill="#cccccc" stroke="#cccccc" points="2695.81,-32.7327 2697.52,-22.2765 2689.67,-29.3853 2695.81,-32.7327"/>
</g>
<!-- DictionaryLiteral -->
<g id="node12" class="node">
<g id="a_node12"><a xlink:href="/swift-2/type/DictionaryLiteral/" target="_top">
<polygon fill="#999999" stroke="#999999" points="2849.02,-22 2752.98,-22 2752.98,-0 2849.02,-0 2849.02,-22"/>
<text text-anchor="middle" x="2801" y="-7.4" font-family="Helvetica,sans-Serif" font-size="12.00" fill="white">DictionaryLiteral</text>
</a>
</g>
</g>
<!-- CollectionType&#45;&gt;DictionaryLiteral -->
<g id="edge39" class="edge">
<path fill="none" stroke="#cccccc" d="M2514.99,-289.907C2529.83,-281.222 2551.12,-267.924 2568,-254 2658.93,-179.015 2751.49,-71.6209 2786.44,-29.7064"/>
<polygon fill="#cccccc" stroke="#cccccc" points="2789.14,-31.9392 2792.83,-22.0079 2783.75,-27.4702 2789.14,-31.9392"/>
</g>
<!-- EmptyCollection -->
<g id="node13" class="node">
<g id="a_node13"><a xlink:href="/swift-2/type/EmptyCollection/" target="_top">
<polygon fill="#999999" stroke="#999999" points="2963.03,-22 2866.97,-22 2866.97,-0 2963.03,-0 2963.03,-22"/>
<text text-anchor="middle" x="2915" y="-7.4" font-family="Helvetica,sans-Serif" font-size="12.00" fill="white">EmptyCollection</text>
</a>
</g>
</g>
<!-- CollectionType&#45;&gt;EmptyCollection -->
<g id="edge40" class="edge">
<path fill="none" stroke="#cccccc" d="M2522.31,-289.85C2542.55,-281.328 2571.35,-268.28 2595,-254 2716.5,-180.643 2847.32,-70.7449 2895.64,-28.9516"/>
<polygon fill="#cccccc" stroke="#cccccc" points="2898.18,-31.383 2903.44,-22.1829 2893.59,-26.0982 2898.18,-31.383"/>
</g>
<!-- ExtensibleCollectionType -->
<g id="node14" class="node">
<g id="a_node14"><a xlink:href="/swift-2/protocol/ExtensibleCollectionType/" target="_top">
<path fill="#999999" stroke="#999999" d="M2105.73,-196C2105.73,-196 1976.27,-196 1976.27,-196 1972.61,-196 1968.94,-192.333 1968.94,-188.667 1968.94,-188.667 1968.94,-181.333 1968.94,-181.333 1968.94,-177.667 1972.61,-174 1976.27,-174 1976.27,-174 2105.73,-174 2105.73,-174 2109.39,-174 2113.06,-177.667 2113.06,-181.333 2113.06,-181.333 2113.06,-188.667 2113.06,-188.667 2113.06,-192.333 2109.39,-196 2105.73,-196"/>
<text text-anchor="middle" x="2041" y="-181.4" font-family="Helvetica,sans-Serif" font-size="12.00" fill="white">ExtensibleCollectionType</text>
</a>
</g>
</g>
<!-- CollectionType&#45;&gt;ExtensibleCollectionType -->
<g id="edge41" class="edge">
<path fill="none" stroke="#cccccc" d="M2452.85,-297.203C2392.62,-292.527 2281.8,-280.841 2191,-254 2145.97,-240.689 2096.98,-216.472 2067.65,-200.819"/>
<polygon fill="#cccccc" stroke="#cccccc" points="2069.31,-197.737 2058.85,-196.063 2065.98,-203.896 2069.31,-197.737"/>
</g>
<!-- FilterCollectionView -->
<g id="node15" class="node">
<g id="a_node15"><a xlink:href="/swift-2/type/FilterCollectionView/" target="_top">
<polygon fill="#999999" stroke="#999999" points="3096.37,-22 2981.63,-22 2981.63,-0 3096.37,-0 3096.37,-22"/>
<text text-anchor="middle" x="3039" y="-7.4" font-family="Helvetica,sans-Serif" font-size="12.00" fill="white">FilterCollectionView</text>
</a>
</g>
</g>
<!-- CollectionType&#45;&gt;FilterCollectionView -->
<g id="edge42" class="edge">
<path fill="none" stroke="#cccccc" d="M2530.56,-289.945C2557,-281.568 2594.54,-268.669 2626,-254 2781.1,-181.683 2953.92,-69.1191 3015.58,-27.8526"/>
<polygon fill="#cccccc" stroke="#cccccc" points="3017.83,-30.5571 3024.18,-22.0761 3013.93,-24.7461 3017.83,-30.5571"/>
</g>
<!-- LazyBidirectionalCollection -->
<g id="node16" class="node">
<g id="a_node16"><a xlink:href="/swift-2/type/LazyBidirectionalCollection/" target="_top">
<polygon fill="#999999" stroke="#999999" points="3267.56,-22 3114.44,-22 3114.44,-0 3267.56,-0 3267.56,-22"/>
<text text-anchor="middle" x="3191" y="-7.4" font-family="Helvetica,sans-Serif" font-size="12.00" fill="white">LazyBidirectionalCollection</text>
</a>
</g>
</g>
<!-- CollectionType&#45;&gt;LazyBidirectionalCollection -->
<g id="edge43" class="edge">
<path fill="none" stroke="#cccccc" d="M2539.97,-289.991C2573.62,-281.684 2621.36,-268.856 2662,-254 2858.94,-182.008 3084.38,-67.6146 3162.56,-26.9487"/>
<polygon fill="#cccccc" stroke="#cccccc" points="3164.52,-29.873 3171.77,-22.1446 3161.29,-23.6667 3164.52,-29.873"/>
</g>
<!-- LazyForwardCollection -->
<g id="node17" class="node">
<g id="a_node17"><a xlink:href="/swift-2/type/LazyForwardCollection/" target="_top">
<polygon fill="#999999" stroke="#999999" points="3418.04,-22 3285.96,-22 3285.96,-0 3418.04,-0 3418.04,-22"/>
<text text-anchor="middle" x="3352" y="-7.4" font-family="Helvetica,sans-Serif" font-size="12.00" fill="white">LazyForwardCollection</text>
</a>
</g>
</g>
<!-- CollectionType&#45;&gt;LazyForwardCollection -->
<g id="edge44" class="edge">
<path fill="none" stroke="#cccccc" d="M2541.25,-291.944C2583.27,-283.866 2648.02,-270.306 2703,-254 2944.35,-182.424 3224.96,-66.084 3319.23,-26.0534"/>
<polygon fill="#cccccc" stroke="#cccccc" points="3320.7,-29.2324 3328.53,-22.0955 3317.96,-22.7916 3320.7,-29.2324"/>
</g>
<!-- LazyRandomAccessCollection -->
<g id="node18" class="node">
<g id="a_node18"><a xlink:href="/swift-2/type/LazyRandomAccessCollection/" target="_top">
<polygon fill="#999999" stroke="#999999" points="3608.06,-22 3435.94,-22 3435.94,-0 3608.06,-0 3608.06,-22"/>
<text text-anchor="middle" x="3522" y="-7.4" font-family="Helvetica,sans-Serif" font-size="12.00" fill="white">LazyRandomAccessCollection</text>
</a>
</g>
</g>
<!-- CollectionType&#45;&gt;LazyRandomAccessCollection -->
<g id="edge45" class="edge">
<path fill="none" stroke="#cccccc" d="M2541.27,-293.829C2592.09,-286.313 2677.73,-272.319 2750,-254 2830.24,-233.659 2848.62,-222.635 2927,-196 3101.88,-136.572 3141.52,-109.162 3319,-58 3365.73,-44.5277 3419.44,-32.5063 3459.87,-24.1343"/>
<polygon fill="#cccccc" stroke="#cccccc" points="3460.76,-27.5251 3469.85,-22.0858 3459.35,-20.668 3460.76,-27.5251"/>
</g>
<!-- MapCollectionView -->
<g id="node19" class="node">
<g id="a_node19"><a xlink:href="/swift-2/type/MapCollectionView/" target="_top">
<polygon fill="#999999" stroke="#999999" points="3737.38,-22 3626.62,-22 3626.62,-0 3737.38,-0 3737.38,-22"/>
<text text-anchor="middle" x="3682" y="-7.4" font-family="Helvetica,sans-Serif" font-size="12.00" fill="white">MapCollectionView</text>
</a>
</g>
</g>
<!-- CollectionType&#45;&gt;MapCollectionView -->
<g id="edge46" class="edge">
<path fill="none" stroke="#cccccc" d="M2541.14,-295.719C2600.86,-289.388 2710.46,-275.864 2802,-254 3071.98,-189.515 3125.32,-123.731 3395,-58 3405.68,-55.3966 3534.86,-35.0151 3616.22,-22.2705"/>
<polygon fill="#cccccc" stroke="#cccccc" points="3617.05,-25.6838 3626.39,-20.6791 3615.97,-18.768 3617.05,-25.6838"/>
</g>
<!-- MutableCollectionType -->
<g id="node20" class="node">
<g id="a_node20"><a xlink:href="/swift-2/protocol/MutableCollectionType/" target="_top">
<path fill="#999999" stroke="#999999" d="M1508.22,-196C1508.22,-196 1391.78,-196 1391.78,-196 1388.11,-196 1384.45,-192.333 1384.45,-188.667 1384.45,-188.667 1384.45,-181.333 1384.45,-181.333 1384.45,-177.667 1388.11,-174 1391.78,-174 1391.78,-174 1508.22,-174 1508.22,-174 1511.89,-174 1515.55,-177.667 1515.55,-181.333 1515.55,-181.333 1515.55,-188.667 1515.55,-188.667 1515.55,-192.333 1511.89,-196 1508.22,-196"/>
<text text-anchor="middle" x="1450" y="-181.4" font-family="Helvetica,sans-Serif" font-size="12.00" fill="white">MutableCollectionType</text>
</a>
</g>
</g>
<!-- CollectionType&#45;&gt;MutableCollectionType -->
<g id="edge47" class="edge">
<path fill="none" stroke="#cccccc" d="M2452.81,-299.204C2301.55,-296.23 1805.32,-284.343 1649,-254 1588.46,-242.249 1521.18,-216.402 1482.41,-200.176"/>
<polygon fill="#cccccc" stroke="#cccccc" points="1483.29,-196.751 1472.72,-196.073 1480.56,-203.196 1483.29,-196.751"/>
</g>
<!-- RandomAccessReverseView -->
<g id="node22" class="node">
<g id="a_node22"><a xlink:href="/swift-2/type/RandomAccessReverseView/" target="_top">
<polygon fill="#999999" stroke="#999999" points="3919.89,-22 3756.11,-22 3756.11,-0 3919.89,-0 3919.89,-22"/>
<text text-anchor="middle" x="3838" y="-7.4" font-family="Helvetica,sans-Serif" font-size="12.00" fill="white">RandomAccessReverseView</text>
</a>
</g>
</g>
<!-- CollectionType&#45;&gt;RandomAccessReverseView -->
<g id="edge48" class="edge">
<path fill="none" stroke="#cccccc" d="M2541.21,-296.903C2609.55,-291.544 2744.69,-278.67 2857,-254 3136.79,-192.543 3191.3,-119.847 3471,-58 3497.22,-52.2029 3645.83,-34.3453 3745.72,-22.6611"/>
<polygon fill="#cccccc" stroke="#cccccc" points="3746.31,-26.1166 3755.83,-21.4799 3745.49,-19.1639 3746.31,-26.1166"/>
</g>
<!-- Range -->
<g id="node23" class="node">
<g id="a_node23"><a xlink:href="/swift-2/type/Range/" target="_top">
<polygon fill="#999999" stroke="#999999" points="3992,-22 3938,-22 3938,-0 3992,-0 3992,-22"/>
<text text-anchor="middle" x="3965" y="-7.4" font-family="Helvetica,sans-Serif" font-size="12.00" fill="white">Range</text>
</a>
</g>
</g>
<!-- CollectionType&#45;&gt;Range -->
<g id="edge49" class="edge">
<path fill="none" stroke="#cccccc" d="M2541.24,-297.792C2617.84,-293.375 2779.84,-281.421 2914,-254 3202.55,-195.023 3258.28,-116.111 3547,-58 3710.99,-24.9927 3759.46,-51.8754 3928.04,-21.8672"/>
<polygon fill="#cccccc" stroke="#cccccc" points="3928.78,-25.2894 3937.99,-20.0545 3927.53,-18.4027 3928.78,-25.2894"/>
</g>
<!-- Repeat -->
<g id="node25" class="node">
<g id="a_node25"><a xlink:href="/swift-2/type/Repeat/" target="_top">
<polygon fill="#999999" stroke="#999999" points="4064,-22 4010,-22 4010,-0 4064,-0 4064,-22"/>
<text text-anchor="middle" x="4037" y="-7.4" font-family="Helvetica,sans-Serif" font-size="12.00" fill="white">Repeat</text>
</a>
</g>
</g>
<!-- CollectionType&#45;&gt;Repeat -->
<g id="edge50" class="edge">
<path fill="none" stroke="#cccccc" d="M2541.23,-298.594C2626.08,-295.271 2817.27,-284.746 2975,-254 3270.33,-196.43 3327.84,-116.398 3623,-58 3785.32,-25.8854 3833.19,-51.653 3999.89,-21.8968"/>
<polygon fill="#cccccc" stroke="#cccccc" points="4000.78,-25.291 4009.99,-20.0515 3999.53,-18.4049 4000.78,-25.291"/>
</g>
<!-- Set -->
<g id="node26" class="node">
<g id="a_node26"><a xlink:href="/swift-2/type/Set/" target="_top">
<polygon fill="#999999" stroke="#999999" points="4136,-22 4082,-22 4082,-0 4136,-0 4136,-22"/>
<text text-anchor="middle" x="4109" y="-7.4" font-family="Helvetica,sans-Serif" font-size="12.00" fill="white">Set</text>
</a>
</g>
</g>
<!-- CollectionType&#45;&gt;Set -->
<g id="edge51" class="edge">
<path fill="none" stroke="#cccccc" d="M2541.06,-298.715C2633.55,-295.478 2854.48,-284.907 3037,-254 3383.48,-195.33 3458.01,-124.894 3803,-58 3918.71,-35.5626 3952.62,-45.6866 4072.07,-21.9451"/>
<polygon fill="#cccccc" stroke="#cccccc" points="4072.86,-25.3561 4081.97,-19.9404 4071.47,-18.4954 4072.86,-25.3561"/>
</g>
<!-- String.CharacterView -->
<g id="node28" class="node">
<g id="a_node28"><a xlink:href="/swift-2/type/String.CharacterView/" target="_top">
<polygon fill="#999999" stroke="#999999" points="2000.38,-22 1877.62,-22 1877.62,-0 2000.38,-0 2000.38,-22"/>
<text text-anchor="middle" x="1939" y="-7.4" font-family="Helvetica,sans-Serif" font-size="12.00" fill="white">String.CharacterView</text>
</a>
</g>
</g>
<!-- CollectionType&#45;&gt;String.CharacterView -->
<g id="edge57" class="edge">
<path fill="none" stroke="#cccccc" d="M2490.2,-289.97C2463.88,-252.052 2364.2,-116.638 2245,-58 2239.74,-55.4133 2099.44,-34.9745 2010.66,-22.2265"/>
<polygon fill="#cccccc" stroke="#cccccc" points="2011.03,-18.7441 2000.64,-20.7883 2010.04,-25.6731 2011.03,-18.7441"/>
</g>
<!-- String.UTF16View -->
<g id="node29" class="node">
<g id="a_node29"><a xlink:href="/swift-2/type/String.UTF16View/" target="_top">
<polygon fill="#999999" stroke="#999999" points="884.365,-22 777.635,-22 777.635,-0 884.365,-0 884.365,-22"/>
<text text-anchor="middle" x="831" y="-7.4" font-family="Helvetica,sans-Serif" font-size="12.00" fill="white">String.UTF16View</text>
</a>
</g>
</g>
<!-- CollectionType&#45;&gt;String.UTF16View -->
<g id="edge59" class="edge">
<path fill="none" stroke="#cccccc" d="M2452.61,-300.217C2226.44,-301.103 1207.71,-302.358 1076,-254 962.859,-212.46 941.755,-175.324 868,-80 856.352,-64.9457 846.268,-45.7364 839.582,-31.5768"/>
<polygon fill="#cccccc" stroke="#cccccc" points="842.679,-29.9326 835.341,-22.2905 836.312,-32.8408 842.679,-29.9326"/>
</g>
<!-- String.UTF8View -->
<g id="node30" class="node">
<g id="a_node30"><a xlink:href="/swift-2/type/String.UTF8View/" target="_top">
<polygon fill="#999999" stroke="#999999" points="4254.36,-22 4153.64,-22 4153.64,-0 4254.36,-0 4254.36,-22"/>
<text text-anchor="middle" x="4204" y="-7.4" font-family="Helvetica,sans-Serif" font-size="12.00" fill="white">String.UTF8View</text>
</a>
</g>
</g>
<!-- CollectionType&#45;&gt;String.UTF8View -->
<g id="edge60" class="edge">
<path fill="none" stroke="#cccccc" d="M2541.3,-298.547C2771.11,-290.724 3817,-251.52 3817,-186 3817,-186 3817,-186 3817,-126 3817,-92.3364 4035.25,-44.9425 4143.95,-23.4252"/>
<polygon fill="#cccccc" stroke="#cccccc" points="4144.67,-26.8519 4153.8,-21.4869 4143.32,-19.9836 4144.67,-26.8519"/>
</g>
<!-- String.UnicodeScalarView -->
<g id="node31" class="node">
<g id="a_node31"><a xlink:href="/swift-2/type/String.UnicodeScalarView/" target="_top">
<polygon fill="#999999" stroke="#999999" points="2166.89,-22 2019.11,-22 2019.11,-0 2166.89,-0 2166.89,-22"/>
<text text-anchor="middle" x="2093" y="-7.4" font-family="Helvetica,sans-Serif" font-size="12.00" fill="white">String.UnicodeScalarView</text>
</a>
</g>
</g>
<!-- CollectionType&#45;&gt;String.UnicodeScalarView -->
<g id="edge58" class="edge">
<path fill="none" stroke="#cccccc" d="M2494.55,-289.751C2486.51,-258.435 2457.88,-163.27 2397,-116 2330.37,-64.263 2236.36,-37.3585 2170.59,-24.0025"/>
<polygon fill="#cccccc" stroke="#cccccc" points="2171.18,-20.5512 2160.69,-22.0512 2169.82,-27.4191 2171.18,-20.5512"/>
</g>
<!-- UnicodeScalar.UTF16View -->
<g id="node32" class="node">
<g id="a_node32"><a xlink:href="/swift-2/type/UnicodeScalar.UTF16View/" target="_top">
<polygon fill="#999999" stroke="#999999" points="2338.39,-22 2185.61,-22 2185.61,-0 2338.39,-0 2338.39,-22"/>
<text text-anchor="middle" x="2262" y="-7.4" font-family="Helvetica,sans-Serif" font-size="12.00" fill="white">UnicodeScalar.UTF16View</text>
</a>
</g>
</g>
<!-- CollectionType&#45;&gt;UnicodeScalar.UTF16View -->
<g id="edge52" class="edge">
<path fill="none" stroke="#cccccc" d="M2496.24,-289.861C2492.85,-252.127 2475.49,-118.869 2397,-58 2376.71,-42.2636 2350.7,-31.7278 2326.94,-24.7616"/>
<polygon fill="#cccccc" stroke="#cccccc" points="2327.84,-21.3789 2317.27,-22.0813 2325.97,-28.1247 2327.84,-21.3789"/>
</g>
<!-- UnsafeBufferPointer -->
<g id="node33" class="node">
<g id="a_node33"><a xlink:href="/swift-2/type/UnsafeBufferPointer/" target="_top">
<polygon fill="#999999" stroke="#999999" points="2652.39,-22 2535.61,-22 2535.61,-0 2652.39,-0 2652.39,-22"/>
<text text-anchor="middle" x="2594" y="-7.4" font-family="Helvetica,sans-Serif" font-size="12.00" fill="white">UnsafeBufferPointer</text>
</a>
</g>
</g>
<!-- CollectionType&#45;&gt;UnsafeBufferPointer -->
<g id="edge53" class="edge">
<path fill="none" stroke="#cccccc" d="M2504.88,-289.933C2511.58,-280.949 2521.04,-267.209 2527,-254 2562.4,-175.579 2583.04,-74.2394 2590.64,-31.9298"/>
<polygon fill="#cccccc" stroke="#cccccc" points="2594.09,-32.5133 2592.36,-22.0599 2587.19,-31.3076 2594.09,-32.5133"/>
</g>
<!-- UnsafeMutableBufferPointer -->
<g id="node34" class="node">
<g id="a_node34"><a xlink:href="/swift-2/type/UnsafeMutableBufferPointer/" target="_top">
<polygon fill="#999999" stroke="#999999" points="2516.91,-22 2357.09,-22 2357.09,-0 2516.91,-0 2516.91,-22"/>
<text text-anchor="middle" x="2437" y="-7.4" font-family="Helvetica,sans-Serif" font-size="12.00" fill="white">UnsafeMutableBufferPointer</text>
</a>
</g>
</g>
<!-- CollectionType&#45;&gt;UnsafeMutableBufferPointer -->
<g id="edge54" class="edge">
<path fill="none" stroke="#cccccc" d="M2501,-289.967C2504.43,-280.779 2509.11,-266.716 2511,-254 2520.03,-193.335 2529.66,-174.424 2511,-116 2500.03,-81.6455 2473.1,-48.9387 2454.93,-29.6696"/>
<polygon fill="#cccccc" stroke="#cccccc" points="2457.23,-27.0123 2447.76,-22.2685 2452.21,-31.8847 2457.23,-27.0123"/>
</g>
<!-- _Sliceable -->
<g id="node38" class="node">
<g id="a_node38"><a xlink:href="/swift-2/protocol/_Sliceable/" target="_top">
<path fill="#999999" stroke="#999999" d="M1716.19,-254C1716.19,-254 1665.81,-254 1665.81,-254 1662.14,-254 1658.47,-250.333 1658.47,-246.667 1658.47,-246.667 1658.47,-239.333 1658.47,-239.333 1658.47,-235.667 1662.14,-232 1665.81,-232 1665.81,-232 1716.19,-232 1716.19,-232 1719.86,-232 1723.53,-235.667 1723.53,-239.333 1723.53,-239.333 1723.53,-246.667 1723.53,-246.667 1723.53,-250.333 1719.86,-254 1716.19,-254"/>
<text text-anchor="middle" x="1691" y="-239.4" font-family="Helvetica,sans-Serif" font-size="12.00" fill="white">_Sliceable</text>
</a>
</g>
</g>
<!-- CollectionType&#45;&gt;_Sliceable -->
<g id="edge55" class="edge">
<path fill="none" stroke="#cccccc" d="M2452.81,-296.929C2311.61,-287.119 1872.53,-256.612 1733.6,-246.96"/>
<polygon fill="#cccccc" stroke="#cccccc" points="1733.58,-243.45 1723.36,-246.249 1733.1,-250.433 1733.58,-243.45"/>
</g>
<!-- __ArrayType -->
<g id="node39" class="node">
<g id="a_node39"><a xlink:href="/swift-2/protocol/__ArrayType/" target="_top">
<path fill="#999999" stroke="#999999" d="M1335.7,-138C1335.7,-138 1272.3,-138 1272.3,-138 1268.64,-138 1264.97,-134.333 1264.97,-130.667 1264.97,-130.667 1264.97,-123.333 1264.97,-123.333 1264.97,-119.667 1268.64,-116 1272.3,-116 1272.3,-116 1335.7,-116 1335.7,-116 1339.36,-116 1343.03,-119.667 1343.03,-123.333 1343.03,-123.333 1343.03,-130.667 1343.03,-130.667 1343.03,-134.333 1339.36,-138 1335.7,-138"/>
<text text-anchor="middle" x="1304" y="-123.4" font-family="Helvetica,sans-Serif" font-size="12.00" fill="white">__ArrayType</text>
</a>
</g>
</g>
<!-- CollectionType&#45;&gt;__ArrayType -->
<g id="edge56" class="edge">
<path fill="none" stroke="#cccccc" d="M2452.81,-299.242C2292.31,-296.265 1740.52,-284.036 1567,-254 1479.16,-238.796 1451.98,-240.956 1375,-196 1352.62,-182.927 1331.8,-161.432 1318.57,-146.109"/>
<polygon fill="#cccccc" stroke="#cccccc" points="1321.15,-143.736 1312.04,-138.324 1315.79,-148.235 1321.15,-143.736"/>
</g>
<!-- ExtensibleCollectionType&#45;&gt;Array -->
<g id="edge64" class="edge">
<path fill="none" stroke="#cccccc" d="M1968.64,-181.036C1780.57,-173.161 1288.64,-151.406 1256,-138 1200.08,-115.03 1151.91,-59.5241 1129.47,-30.4545"/>
<polygon fill="#cccccc" stroke="#cccccc" points="1132.16,-28.2189 1123.34,-22.3469 1126.58,-32.4367 1132.16,-28.2189"/>
</g>
<!-- ExtensibleCollectionType&#45;&gt;ArraySlice -->
<g id="edge65" class="edge">
<path fill="none" stroke="#cccccc" d="M1968.85,-178.653C1914.49,-172.927 1838.83,-161.294 1776,-138 1710.96,-113.887 1706.7,-82.9951 1642,-58 1579.84,-33.987 1503.08,-21.8181 1456.37,-16.2015"/>
<polygon fill="#cccccc" stroke="#cccccc" points="1456.64,-12.7098 1446.31,-15.0373 1455.84,-19.6634 1456.64,-12.7098"/>
</g>
<!-- ExtensibleCollectionType&#45;&gt;ContiguousArray -->
<g id="edge66" class="edge">
<path fill="none" stroke="#cccccc" d="M2034.31,-173.684C2024.6,-159.323 2005.4,-133.145 1984,-116 1925.36,-69.0144 1842.38,-39.8398 1789.38,-24.7548"/>
<polygon fill="#cccccc" stroke="#cccccc" points="1790.09,-21.3201 1779.52,-22.0127 1788.22,-28.0641 1790.09,-21.3201"/>
</g>
<!-- RangeReplaceableCollectionType -->
<g id="node24" class="node">
<g id="a_node24"><a xlink:href="/swift-2/protocol/RangeReplaceableCollectionType/" target="_top">
<path fill="#999999" stroke="#999999" d="M1967.76,-138C1967.76,-138 1792.24,-138 1792.24,-138 1788.57,-138 1784.91,-134.333 1784.91,-130.667 1784.91,-130.667 1784.91,-123.333 1784.91,-123.333 1784.91,-119.667 1788.57,-116 1792.24,-116 1792.24,-116 1967.76,-116 1967.76,-116 1971.43,-116 1975.09,-119.667 1975.09,-123.333 1975.09,-123.333 1975.09,-130.667 1975.09,-130.667 1975.09,-134.333 1971.43,-138 1967.76,-138"/>
<text text-anchor="middle" x="1880" y="-123.4" font-family="Helvetica,sans-Serif" font-size="12.00" fill="white">RangeReplaceableCollectionType</text>
</a>
</g>
</g>
<!-- ExtensibleCollectionType&#45;&gt;RangeReplaceableCollectionType -->
<g id="edge67" class="edge">
<path fill="none" stroke="#cccccc" d="M2012.22,-173.988C1986.08,-164.898 1947.34,-151.422 1918.54,-141.405"/>
<polygon fill="#cccccc" stroke="#cccccc" points="1919.4,-137.999 1908.81,-138.019 1917.1,-144.61 1919.4,-137.999"/>
</g>
<!-- ExtensibleCollectionType&#45;&gt;String.CharacterView -->
<g id="edge68" class="edge">
<path fill="none" stroke="#cccccc" d="M2046.23,-173.725C2052.37,-160.289 2061,-136.097 2055,-116 2046.19,-86.4692 2039.3,-79.2715 2017,-58 2003.62,-45.2395 1986.08,-34.4959 1971.02,-26.6089"/>
<polygon fill="#cccccc" stroke="#cccccc" points="1972.52,-23.4493 1962.02,-22.0747 1969.37,-29.7004 1972.52,-23.4493"/>
</g>
<!-- ExtensibleCollectionType&#45;&gt;String.UnicodeScalarView -->
<g id="edge69" class="edge">
<path fill="none" stroke="#cccccc" d="M2113.22,-174.285C2134.7,-167.647 2155.96,-156.543 2169,-138 2189.45,-108.916 2186.46,-88.9742 2169,-58 2161.05,-43.8924 2146.83,-33.619 2132.83,-26.4077"/>
<polygon fill="#cccccc" stroke="#cccccc" points="2134.27,-23.2142 2123.73,-22.1016 2131.27,-29.5418 2134.27,-23.2142"/>
</g>
<!-- MutableCollectionType&#45;&gt;Array -->
<g id="edge79" class="edge">
<path fill="none" stroke="#cccccc" d="M1384.2,-181.711C1269.75,-177.048 1043.87,-164.559 1020,-138 986.219,-100.412 1050.41,-51.861 1089.32,-27.4555"/>
<polygon fill="#cccccc" stroke="#cccccc" points="1091.42,-30.2725 1098.12,-22.0694 1087.77,-24.3006 1091.42,-30.2725"/>
</g>
<!-- MutableCollectionType&#45;&gt;ArraySlice -->
<g id="edge80" class="edge">
<path fill="none" stroke="#cccccc" d="M1428.32,-173.875C1414.58,-166.166 1397.96,-154.126 1390,-138 1372.69,-102.917 1390.44,-56.6473 1403.28,-31.0664"/>
<polygon fill="#cccccc" stroke="#cccccc" points="1406.47,-32.5249 1408.04,-22.0476 1400.28,-29.2569 1406.47,-32.5249"/>
</g>
<!-- MutableCollectionType&#45;&gt;ContiguousArray -->
<g id="edge81" class="edge">
<path fill="none" stroke="#cccccc" d="M1464.46,-173.983C1484.2,-160.417 1520.81,-135.642 1553,-116 1607.71,-82.618 1673.49,-46.5823 1710.03,-26.9131"/>
<polygon fill="#cccccc" stroke="#cccccc" points="1711.95,-29.8593 1719.1,-22.0457 1708.63,-23.6917 1711.95,-29.8593"/>
</g>
<!-- MutableSliceable -->
<g id="node21" class="node">
<g id="a_node21"><a xlink:href="/swift-2/protocol/MutableSliceable/" target="_top">
<path fill="#999999" stroke="#999999" d="M1493.21,-138C1493.21,-138 1406.79,-138 1406.79,-138 1403.13,-138 1399.46,-134.333 1399.46,-130.667 1399.46,-130.667 1399.46,-123.333 1399.46,-123.333 1399.46,-119.667 1403.13,-116 1406.79,-116 1406.79,-116 1493.21,-116 1493.21,-116 1496.87,-116 1500.54,-119.667 1500.54,-123.333 1500.54,-123.333 1500.54,-130.667 1500.54,-130.667 1500.54,-134.333 1496.87,-138 1493.21,-138"/>
<text text-anchor="middle" x="1450" y="-123.4" font-family="Helvetica,sans-Serif" font-size="12.00" fill="white">MutableSliceable</text>
</a>
</g>
</g>
<!-- MutableCollectionType&#45;&gt;MutableSliceable -->
<g id="edge82" class="edge">
<path fill="none" stroke="#cccccc" d="M1450,-173.988C1450,-166.91 1450,-157.171 1450,-148.478"/>
<polygon fill="#cccccc" stroke="#cccccc" points="1453.5,-148.304 1450,-138.304 1446.5,-148.304 1453.5,-148.304"/>
</g>
<!-- MutableCollectionType&#45;&gt;UnsafeMutableBufferPointer -->
<g id="edge83" class="edge">
<path fill="none" stroke="#cccccc" d="M1515.52,-179.881C1637.66,-171.95 1895.75,-153.932 1984,-138 2140.45,-109.755 2321.04,-51.5615 2398.49,-25.3341"/>
<polygon fill="#cccccc" stroke="#cccccc" points="2399.95,-28.5353 2408.28,-22.0004 2397.69,-21.9085 2399.95,-28.5353"/>
</g>
<!-- _ArrayBufferType -->
<g id="node35" class="node">
<g id="a_node35"><a xlink:href="/swift-2/protocol/_ArrayBufferType/" target="_top">
<path fill="#999999" stroke="#999999" d="M1125.04,-138C1125.04,-138 1036.96,-138 1036.96,-138 1033.29,-138 1029.62,-134.333 1029.62,-130.667 1029.62,-130.667 1029.62,-123.333 1029.62,-123.333 1029.62,-119.667 1033.29,-116 1036.96,-116 1036.96,-116 1125.04,-116 1125.04,-116 1128.71,-116 1132.38,-119.667 1132.38,-123.333 1132.38,-123.333 1132.38,-130.667 1132.38,-130.667 1132.38,-134.333 1128.71,-138 1125.04,-138"/>
<text text-anchor="middle" x="1081" y="-123.4" font-family="Helvetica,sans-Serif" font-size="12.00" fill="white">_ArrayBufferType</text>
</a>
</g>
</g>
<!-- MutableCollectionType&#45;&gt;_ArrayBufferType -->
<g id="edge84" class="edge">
<path fill="none" stroke="#cccccc" d="M1384.46,-174.053C1316,-163.664 1209.46,-147.496 1142.54,-137.34"/>
<polygon fill="#cccccc" stroke="#cccccc" points="1142.97,-133.865 1132.56,-135.825 1141.92,-140.786 1142.97,-133.865"/>
</g>
<!-- MutableSliceable&#45;&gt;Array -->
<g id="edge85" class="edge">
<path fill="none" stroke="#cccccc" d="M1419.31,-115.999C1391.11,-106.774 1348.18,-92.6353 1311,-80 1255.73,-61.2174 1191.88,-38.8186 1152.72,-25.0021"/>
<polygon fill="#cccccc" stroke="#cccccc" points="1153.68,-21.627 1143.08,-21.5972 1151.35,-28.2275 1153.68,-21.627"/>
</g>
<!-- MutableSliceable&#45;&gt;ArraySlice -->
<g id="edge86" class="edge">
<path fill="none" stroke="#cccccc" d="M1441.23,-115.823C1434.17,-106.986 1424.67,-93.5162 1420,-80 1414.73,-64.7743 1413.37,-46.5447 1413.25,-32.7945"/>
<polygon fill="#cccccc" stroke="#cccccc" points="1416.75,-32.5058 1413.38,-22.4622 1409.75,-32.4169 1416.75,-32.5058"/>
</g>
<!-- MutableSliceable&#45;&gt;ContiguousArray -->
<g id="edge87" class="edge">
<path fill="none" stroke="#cccccc" d="M1462.2,-115.924C1480.7,-101.126 1517.49,-73.5877 1553,-58 1593.17,-40.3699 1641.33,-28.665 1678.44,-21.4757"/>
<polygon fill="#cccccc" stroke="#cccccc" points="1679.42,-24.8533 1688.6,-19.5665 1678.13,-17.9737 1679.42,-24.8533"/>
</g>
<!-- _ArrayType -->
<g id="node36" class="node">
<g id="a_node36"><a xlink:href="/swift-2/protocol/_ArrayType/" target="_top">
<path fill="#999999" stroke="#999999" d="M1493.19,-80C1493.19,-80 1436.81,-80 1436.81,-80 1433.14,-80 1429.48,-76.3333 1429.48,-72.6667 1429.48,-72.6667 1429.48,-65.3333 1429.48,-65.3333 1429.48,-61.6667 1433.14,-58 1436.81,-58 1436.81,-58 1493.19,-58 1493.19,-58 1496.86,-58 1500.52,-61.6667 1500.52,-65.3333 1500.52,-65.3333 1500.52,-72.6667 1500.52,-72.6667 1500.52,-76.3333 1496.86,-80 1493.19,-80"/>
<text text-anchor="middle" x="1465" y="-65.4" font-family="Helvetica,sans-Serif" font-size="12.00" fill="white">_ArrayType</text>
</a>
</g>
</g>
<!-- MutableSliceable&#45;&gt;_ArrayType -->
<g id="edge88" class="edge">
<path fill="none" stroke="#cccccc" d="M1452.68,-115.988C1454.6,-108.831 1457.24,-98.9547 1459.59,-90.1885"/>
<polygon fill="#cccccc" stroke="#cccccc" points="1463.03,-90.869 1462.24,-80.3039 1456.27,-89.0578 1463.03,-90.869"/>
</g>
<!-- RangeReplaceableCollectionType&#45;&gt;Array -->
<g id="edge70" class="edge">
<path fill="none" stroke="#cccccc" d="M1784.86,-119.845C1691.54,-113.018 1545.39,-100.218 1420,-80 1322.74,-64.3176 1209.97,-36.5228 1153.01,-21.7938"/>
<polygon fill="#cccccc" stroke="#cccccc" points="1153.6,-18.3306 1143.04,-19.2015 1151.84,-25.1054 1153.6,-18.3306"/>
</g>
<!-- RangeReplaceableCollectionType&#45;&gt;ArraySlice -->
<g id="edge71" class="edge">
<path fill="none" stroke="#cccccc" d="M1857.09,-115.968C1822.58,-101.226 1754.9,-73.758 1695,-58 1611.69,-36.082 1511.59,-22.6883 1456.16,-16.3701"/>
<polygon fill="#cccccc" stroke="#cccccc" points="1456.35,-12.8689 1446.02,-15.2363 1455.57,-19.8256 1456.35,-12.8689"/>
</g>
<!-- RangeReplaceableCollectionType&#45;&gt;ContiguousArray -->
<g id="edge72" class="edge">
<path fill="none" stroke="#cccccc" d="M1878.04,-115.865C1874.71,-101.243 1866.63,-74.2103 1850,-58 1834.35,-42.7445 1812.93,-32.2927 1793.02,-25.2592"/>
<polygon fill="#cccccc" stroke="#cccccc" points="1793.99,-21.8935 1783.39,-22.0749 1791.79,-28.5392 1793.99,-21.8935"/>
</g>
<!-- RangeReplaceableCollectionType&#45;&gt;String.CharacterView -->
<g id="edge74" class="edge">
<path fill="none" stroke="#cccccc" d="M1885.24,-115.883C1895.05,-96.9174 1916.37,-55.7323 1929.01,-31.3004"/>
<polygon fill="#cccccc" stroke="#cccccc" points="1932.2,-32.7478 1933.69,-22.2579 1925.99,-29.5303 1932.2,-32.7478"/>
</g>
<!-- RangeReplaceableCollectionType&#45;&gt;String.UnicodeScalarView -->
<g id="edge75" class="edge">
<path fill="none" stroke="#cccccc" d="M1898.9,-115.883C1936.56,-95.7287 2021.1,-50.4823 2065.14,-26.9136"/>
<polygon fill="#cccccc" stroke="#cccccc" points="2066.97,-29.8987 2074.14,-22.0941 2063.67,-23.7271 2066.97,-29.8987"/>
</g>
<!-- RangeReplaceableCollectionType&#45;&gt;_ArrayType -->
<g id="edge73" class="edge">
<path fill="none" stroke="#cccccc" d="M1805.81,-115.988C1720.03,-104.414 1581.56,-85.728 1510.41,-76.127"/>
<polygon fill="#cccccc" stroke="#cccccc" points="1510.79,-72.6471 1500.41,-74.7783 1509.85,-79.5842 1510.79,-72.6471"/>
</g>
<!-- Sliceable -->
<g id="node27" class="node">
<g id="a_node27"><a xlink:href="/swift-2/protocol/Sliceable/" target="_top">
<path fill="#999999" stroke="#999999" d="M1683.69,-196C1683.69,-196 1640.31,-196 1640.31,-196 1636.64,-196 1632.98,-192.333 1632.98,-188.667 1632.98,-188.667 1632.98,-181.333 1632.98,-181.333 1632.98,-177.667 1636.64,-174 1640.31,-174 1640.31,-174 1683.69,-174 1683.69,-174 1687.36,-174 1691.02,-177.667 1691.02,-181.333 1691.02,-181.333 1691.02,-188.667 1691.02,-188.667 1691.02,-192.333 1687.36,-196 1683.69,-196"/>
<text text-anchor="middle" x="1662" y="-181.4" font-family="Helvetica,sans-Serif" font-size="12.00" fill="white">Sliceable</text>
</a>
</g>
</g>
<!-- Sliceable&#45;&gt;Array -->
<g id="edge96" class="edge">
<path fill="none" stroke="#cccccc" d="M1632.94,-181.652C1541.27,-174.147 1261.94,-150.506 1223,-138 1210.59,-134.014 1127.96,-91.0212 1121,-80 1112.12,-65.9452 1111.48,-46.8438 1112.71,-32.4641"/>
<polygon fill="#cccccc" stroke="#cccccc" points="1116.23,-32.4823 1113.97,-22.1307 1109.28,-31.6305 1116.23,-32.4823"/>
</g>
<!-- Sliceable&#45;&gt;ArraySlice -->
<g id="edge97" class="edge">
<path fill="none" stroke="#cccccc" d="M1661.71,-173.709C1660.43,-149.605 1653.75,-89.1822 1619,-58 1595.39,-36.818 1509.26,-23.1868 1456.44,-16.6226"/>
<polygon fill="#cccccc" stroke="#cccccc" points="1456.7,-13.1282 1446.35,-15.4038 1455.86,-20.0777 1456.7,-13.1282"/>
</g>
<!-- Sliceable&#45;&gt;ContiguousArray -->
<g id="edge98" class="edge">
<path fill="none" stroke="#cccccc" d="M1668.11,-173.66C1676.18,-160.154 1691.03,-135.887 1705,-116 1716.65,-99.4145 1725.72,-98.9184 1733,-80 1738.84,-64.8087 1739.85,-46.3191 1739.53,-32.4568"/>
<polygon fill="#cccccc" stroke="#cccccc" points="1743.01,-31.8939 1739.03,-22.0747 1736.02,-32.2323 1743.01,-31.8939"/>
</g>
<!-- Sliceable&#45;&gt;MutableSliceable -->
<g id="edge99" class="edge">
<path fill="none" stroke="#cccccc" d="M1632.97,-176.331C1598.19,-167.143 1539.42,-151.62 1497.88,-140.648"/>
<polygon fill="#cccccc" stroke="#cccccc" points="1498.54,-137.203 1487.98,-138.033 1496.76,-143.971 1498.54,-137.203"/>
</g>
<!-- Sliceable&#45;&gt;String.CharacterView -->
<g id="edge100" class="edge">
<path fill="none" stroke="#cccccc" d="M1691.26,-184.46C1763.3,-184.904 1946.17,-181.621 1984,-138 2011.6,-106.173 1977.51,-56.1987 1955.28,-29.7664"/>
<polygon fill="#cccccc" stroke="#cccccc" points="1957.78,-27.3082 1948.57,-22.0645 1952.5,-31.9048 1957.78,-27.3082"/>
</g>
<!-- Sliceable&#45;&gt;String.UTF16View -->
<g id="edge102" class="edge">
<path fill="none" stroke="#cccccc" d="M1632.76,-181.609C1531.06,-173.243 1197.74,-145.392 1176,-138 1158.6,-132.085 1157.6,-123.866 1141,-116 1052.8,-74.2146 943.245,-41.6467 880.803,-24.7624"/>
<polygon fill="#cccccc" stroke="#cccccc" points="881.389,-21.2961 870.824,-22.0895 879.578,-28.0578 881.389,-21.2961"/>
</g>
<!-- Sliceable&#45;&gt;String.UnicodeScalarView -->
<g id="edge101" class="edge">
<path fill="none" stroke="#cccccc" d="M1691.23,-183.002C1763.89,-180.064 1950.62,-169.564 2003,-138 2044.63,-112.915 2072.35,-60.4169 2085.04,-31.7375"/>
<polygon fill="#cccccc" stroke="#cccccc" points="2088.34,-32.9162 2089.03,-22.344 2081.9,-30.1768 2088.34,-32.9162"/>
</g>
<!-- _ArrayType&#45;&gt;Array -->
<g id="edge76" class="edge">
<path fill="none" stroke="#cccccc" d="M1429.62,-62.3222C1363.32,-51.6854 1221.03,-28.8522 1153.3,-17.9851"/>
<polygon fill="#cccccc" stroke="#cccccc" points="1153.52,-14.4761 1143.09,-16.3474 1152.41,-21.3876 1153.52,-14.4761"/>
</g>
<!-- _ArrayType&#45;&gt;ArraySlice -->
<g id="edge77" class="edge">
<path fill="none" stroke="#cccccc" d="M1455.88,-57.9883C1448.79,-50.2019 1438.77,-39.1971 1430.31,-29.9049"/>
<polygon fill="#cccccc" stroke="#cccccc" points="1432.7,-27.3407 1423.38,-22.3039 1427.53,-32.054 1432.7,-27.3407"/>
</g>
<!-- _ArrayType&#45;&gt;ContiguousArray -->
<g id="edge78" class="edge">
<path fill="none" stroke="#cccccc" d="M1500.41,-60.7364C1545.64,-51.459 1624.55,-35.2716 1678.94,-24.114"/>
<polygon fill="#cccccc" stroke="#cccccc" points="1679.71,-27.53 1688.8,-22.0919 1678.3,-20.6728 1679.71,-27.53"/>
</g>
<!-- _CollectionGeneratorDefaultsType -->
<g id="node37" class="node">
<g id="a_node37"><a xlink:href="/swift-2/protocol/_CollectionGeneratorDefaultsType/" target="_top">
<path fill="#ee543d" stroke="#ee543d" d="M2890.25,-370C2890.25,-370 2711.75,-370 2711.75,-370 2708.09,-370 2704.42,-366.333 2704.42,-362.667 2704.42,-362.667 2704.42,-355.333 2704.42,-355.333 2704.42,-351.667 2708.09,-348 2711.75,-348 2711.75,-348 2890.25,-348 2890.25,-348 2893.91,-348 2897.58,-351.667 2897.58,-355.333 2897.58,-355.333 2897.58,-362.667 2897.58,-362.667 2897.58,-366.333 2893.91,-370 2890.25,-370"/>
<text text-anchor="middle" x="2801" y="-355.4" font-family="Helvetica,sans-Serif" font-size="12.00" fill="white">_CollectionGeneratorDefaultsType</text>
</a>
</g>
</g>
<!-- _CollectionGeneratorDefaultsType&#45;&gt;AnyBidirectionalCollection -->
<g id="edge1" class="edge">
<path fill="none" stroke="#cccccc" d="M2704.35,-357.79C2251.18,-356.612 353.819,-349.453 234,-312 181.997,-295.745 132,-298.484 132,-244 132,-244 132,-244 132,-126 132,-88.7226 107.06,-51.3139 89.8883,-29.9755"/>
<polygon fill="#cccccc" stroke="#cccccc" points="92.4166,-27.5427 83.3187,-22.1131 87.0449,-32.0311 92.4166,-27.5427"/>
</g>
<!-- _CollectionGeneratorDefaultsType&#45;&gt;AnyForwardCollection -->
<g id="edge2" class="edge">
<path fill="none" stroke="#cccccc" d="M2704.49,-358.124C2334.77,-358.266 1008.3,-355.655 589,-312 427.046,-295.138 229,-406.829 229,-244 229,-244 229,-244 229,-126 229,-93.1523 229.42,-54.9828 229.716,-32.1966"/>
<polygon fill="#cccccc" stroke="#cccccc" points="233.217,-32.1108 229.852,-22.0645 226.218,-32.0164 233.217,-32.1108"/>
</g>
<!-- _CollectionGeneratorDefaultsType&#45;&gt;AnyRandomAccessCollection -->
<g id="edge3" class="edge">
<path fill="none" stroke="#cccccc" d="M2704.45,-358.401C2294.98,-359.79 718.522,-361.865 626,-312 505.323,-246.96 543.761,-158.939 451,-58 441.058,-47.1814 428.533,-36.6608 417.851,-28.4175"/>
<polygon fill="#cccccc" stroke="#cccccc" points="419.859,-25.5481 409.763,-22.3326 415.65,-31.1417 419.859,-25.5481"/>
</g>
<!-- _CollectionGeneratorDefaultsType&#45;&gt;Array -->
<g id="edge4" class="edge">
<path fill="none" stroke="#cccccc" d="M2704.45,-357.982C2287.09,-357.282 659,-347.894 659,-244 659,-244 659,-244 659,-184 659,-94.4844 970.009,-35.6071 1078.89,-17.7373"/>
<polygon fill="#cccccc" stroke="#cccccc" points="1079.47,-21.1896 1088.78,-16.1363 1078.35,-14.2796 1079.47,-21.1896"/>
</g>
<!-- _CollectionGeneratorDefaultsType&#45;&gt;ArraySlice -->
<g id="edge5" class="edge">
<path fill="none" stroke="#cccccc" d="M2704.62,-357.171C2524.12,-354.834 2122.98,-345.921 1787,-312 1456.65,-278.648 1333.98,-366.38 1049,-196 993.861,-163.034 962.783,-105.532 1006,-58 1030.32,-31.2525 1272.29,-18.0108 1371.7,-13.6659"/>
<polygon fill="#cccccc" stroke="#cccccc" points="1372.14,-17.1504 1381.98,-13.2262 1371.84,-10.1568 1372.14,-17.1504"/>
</g>
<!-- _CollectionGeneratorDefaultsType&#45;&gt;BidirectionalReverseView -->
<g id="edge6" class="edge">
<path fill="none" stroke="#cccccc" d="M2704.43,-357.25C2292.36,-353.884 700.202,-339.143 656,-312 559.257,-252.594 563.266,-89.4599 567.909,-32.1935"/>
<polygon fill="#cccccc" stroke="#cccccc" points="571.397,-32.4898 568.817,-22.2139 564.426,-31.8558 571.397,-32.4898"/>
</g>
<!-- _CollectionGeneratorDefaultsType&#45;&gt;CollectionOfOne -->
<g id="edge7" class="edge">
<path fill="none" stroke="#cccccc" d="M2704.35,-357.912C2303.49,-357.288 788.156,-352.264 695,-312 633.279,-285.323 618.205,-239.591 633,-174 645.497,-118.597 679.269,-59.9112 697.66,-30.7403"/>
<polygon fill="#cccccc" stroke="#cccccc" points="700.797,-32.3325 703.254,-22.0265 694.906,-28.5508 700.797,-32.3325"/>
</g>
<!-- _CollectionGeneratorDefaultsType&#45;&gt;CollectionType -->
<g id="edge8" class="edge">
<path fill="none" stroke="#cccccc" d="M2746.65,-347.988C2691.5,-337.83 2606.62,-322.193 2551.44,-312.028"/>
<polygon fill="#cccccc" stroke="#cccccc" points="2551.97,-308.566 2541.5,-310.197 2550.7,-315.451 2551.97,-308.566"/>
</g>
<!-- _CollectionGeneratorDefaultsType&#45;&gt;ContiguousArray -->
<g id="edge9" class="edge">
<path fill="none" stroke="#cccccc" d="M2704.55,-354.897C2442.91,-345.702 1733.67,-315.335 1649,-254 1618.83,-232.146 1612.76,-209.514 1624,-174 1642.99,-114.019 1693.06,-57.0354 1720.09,-29.396"/>
<polygon fill="#cccccc" stroke="#cccccc" points="1722.78,-31.6472 1727.36,-22.094 1717.83,-26.7052 1722.78,-31.6472"/>
</g>
<!-- _CollectionGeneratorDefaultsType&#45;&gt;Dictionary -->
<g id="edge10" class="edge">
<path fill="none" stroke="#cccccc" d="M2818.83,-347.873C2830.95,-339.876 2846.02,-327.495 2853,-312 2867.6,-279.582 2862.32,-266.313 2853,-232 2829.56,-145.68 2755.87,-64.1677 2721.27,-29.5064"/>
<polygon fill="#cccccc" stroke="#cccccc" points="2723.33,-26.6215 2713.75,-22.0951 2718.42,-31.6073 2723.33,-26.6215"/>
</g>
<!-- _CollectionGeneratorDefaultsType&#45;&gt;DictionaryLiteral -->
<g id="edge11" class="edge">
<path fill="none" stroke="#cccccc" d="M2874.23,-347.97C2895.36,-341.299 2916.16,-330.253 2929,-312 2949.45,-282.916 2938.21,-266.343 2929,-232 2906.85,-149.37 2845,-65.901 2816.16,-30.116"/>
<polygon fill="#cccccc" stroke="#cccccc" points="2818.63,-27.6 2809.59,-22.075 2813.21,-32.0317 2818.63,-27.6"/>
</g>
<!-- _CollectionGeneratorDefaultsType&#45;&gt;EmptyCollection -->
<g id="edge12" class="edge">
<path fill="none" stroke="#cccccc" d="M2894.66,-347.884C2915.79,-341.006 2935.84,-329.875 2949,-312 3013.4,-224.551 2951.29,-82.1488 2925.26,-31.0235"/>
<polygon fill="#cccccc" stroke="#cccccc" points="2928.31,-29.3065 2920.58,-22.0588 2922.11,-32.5438 2928.31,-29.3065"/>
</g>
<!-- _CollectionGeneratorDefaultsType&#45;&gt;FilterCollectionView -->
<g id="edge13" class="edge">
<path fill="none" stroke="#cccccc" d="M2897.7,-348.421C2923.79,-341.685 2950.24,-330.491 2970,-312 3050.88,-236.316 3046.02,-86.5438 3041.24,-32.2543"/>
<polygon fill="#cccccc" stroke="#cccccc" points="3044.72,-31.7904 3040.26,-22.1798 3037.75,-32.4736 3044.72,-31.7904"/>
</g>
<!-- _CollectionGeneratorDefaultsType&#45;&gt;LazyBidirectionalCollection -->
<g id="edge14" class="edge">
<path fill="none" stroke="#cccccc" d="M2897.74,-349.517C2930.54,-343.019 2965.94,-331.686 2994,-312 3100.15,-237.512 3163.91,-85.8549 3184.05,-31.7365"/>
<polygon fill="#cccccc" stroke="#cccccc" points="3187.36,-32.8592 3187.49,-22.2651 3180.78,-30.4665 3187.36,-32.8592"/>
</g>
<!-- _CollectionGeneratorDefaultsType&#45;&gt;LazyForwardCollection -->
<g id="edge15" class="edge">
<path fill="none" stroke="#cccccc" d="M2897.45,-349.244C2937.6,-342.777 2983.68,-331.537 3022,-312 3167.08,-238.025 3296.53,-83.0946 3338.09,-30.1724"/>
<polygon fill="#cccccc" stroke="#cccccc" points="3341.04,-32.09 3344.41,-22.0471 3335.51,-27.7933 3341.04,-32.09"/>
</g>
<!-- _CollectionGeneratorDefaultsType&#45;&gt;LazyRandomAccessCollection -->
<g id="edge16" class="edge">
<path fill="none" stroke="#cccccc" d="M2897.36,-349.927C2945.96,-343.539 3005.03,-332.168 3055,-312 3098.09,-294.608 3104.27,-281.136 3142,-254 3257.47,-170.942 3270.4,-126.607 3395,-58 3420.28,-44.0823 3450.6,-32.9166 3475.27,-25.0726"/>
<polygon fill="#cccccc" stroke="#cccccc" points="3476.6,-28.3239 3485.12,-22.0211 3474.53,-21.6374 3476.6,-28.3239"/>
</g>
<!-- _CollectionGeneratorDefaultsType&#45;&gt;MapCollectionView -->
<g id="edge17" class="edge">
<path fill="none" stroke="#cccccc" d="M2897.41,-353.027C2954.93,-347.55 3028.49,-336.063 3090,-312 3279.53,-237.852 3283.66,-137.5 3471,-58 3496.8,-47.0498 3564.45,-33.1975 3616.26,-23.5693"/>
<polygon fill="#cccccc" stroke="#cccccc" points="3617.19,-26.9565 3626.39,-21.7021 3615.92,-20.0724 3617.19,-26.9565"/>
</g>
<!-- _CollectionGeneratorDefaultsType&#45;&gt;RandomAccessReverseView -->
<g id="edge18" class="edge">
<path fill="none" stroke="#cccccc" d="M2897.55,-351.767C3086.09,-338.295 3485,-302.84 3485,-244 3485,-244 3485,-244 3485,-126 3485,-85.1015 3510.99,-77.3975 3547,-58 3564.52,-48.5637 3668.24,-33.605 3746.91,-23.3228"/>
<polygon fill="#cccccc" stroke="#cccccc" points="3747.39,-26.7897 3756.85,-22.03 3746.49,-19.8481 3747.39,-26.7897"/>
</g>
<!-- _CollectionGeneratorDefaultsType&#45;&gt;Range -->
<g id="edge19" class="edge">
<path fill="none" stroke="#cccccc" d="M2897.64,-353.413C3102.34,-342.404 3561,-310.335 3561,-244 3561,-244 3561,-244 3561,-126 3561,-85.1015 3586.62,-76.6795 3623,-58 3741.97,3.07757 3792.26,-45.9849 3928.05,-21.8525"/>
<polygon fill="#cccccc" stroke="#cccccc" points="3928.8,-25.2736 3937.98,-19.986 3927.51,-18.3942 3928.8,-25.2736"/>
</g>
<!-- _CollectionGeneratorDefaultsType&#45;&gt;Repeat -->
<g id="edge20" class="edge">
<path fill="none" stroke="#cccccc" d="M2897.72,-354.765C3117.78,-346.116 3637,-317.882 3637,-244 3637,-244 3637,-244 3637,-126 3637,-85.9877 3660.64,-76.7184 3696,-58 3813.81,4.35861 3864.67,-45.868 4000.08,-21.8454"/>
<polygon fill="#cccccc" stroke="#cccccc" points="4000.8,-25.272 4009.98,-19.9849 3999.51,-18.3925 4000.8,-25.272"/>
</g>
<!-- _CollectionGeneratorDefaultsType&#45;&gt;Set -->
<g id="edge21" class="edge">
<path fill="none" stroke="#cccccc" d="M2897.7,-358.088C3167.18,-357.061 3907,-345.04 3907,-244 3907,-244 3907,-244 3907,-126 3907,-88.5044 4013.89,-45.2345 4072.16,-24.4331"/>
<polygon fill="#cccccc" stroke="#cccccc" points="4073.49,-27.6773 4081.76,-21.0541 4071.16,-21.0748 4073.49,-27.6773"/>
</g>
<!-- _CollectionGeneratorDefaultsType&#45;&gt;String.CharacterView -->
<g id="edge25" class="edge">
<path fill="none" stroke="#cccccc" d="M2704.35,-356.822C2550.97,-352.302 2269,-332.023 2269,-244 2269,-244 2269,-244 2269,-184 2269,-120.327 2073.36,-52.7364 1983.35,-25.0094"/>
<polygon fill="#cccccc" stroke="#cccccc" points="1984.28,-21.6323 1973.69,-22.0615 1982.24,-28.3276 1984.28,-21.6323"/>
</g>
<!-- _CollectionGeneratorDefaultsType&#45;&gt;String.UTF16View -->
<g id="edge27" class="edge">
<path fill="none" stroke="#cccccc" d="M2704.63,-357.771C2330.95,-356.609 989.144,-349.82 802,-312 733.157,-298.087 699.319,-308.486 655,-254 615.333,-205.234 641.703,-160.602 686,-116 722.6,-79.148 773.452,-45.9593 804.19,-27.4416"/>
<polygon fill="#cccccc" stroke="#cccccc" points="806.238,-30.2961 813.046,-22.178 802.662,-24.2787 806.238,-30.2961"/>
</g>
<!-- _CollectionGeneratorDefaultsType&#45;&gt;String.UTF8View -->
<g id="edge28" class="edge">
<path fill="none" stroke="#cccccc" d="M2897.41,-358.258C3076.49,-357.7 3472.32,-351.59 3803,-312 3959.91,-293.215 4152,-402.028 4152,-244 4152,-244 4152,-244 4152,-126 4152,-89.6446 4174.16,-52.1715 4189.55,-30.5344"/>
<polygon fill="#cccccc" stroke="#cccccc" points="4192.52,-32.4037 4195.65,-22.2803 4186.89,-28.2452 4192.52,-32.4037"/>
</g>
<!-- _CollectionGeneratorDefaultsType&#45;&gt;String.UnicodeScalarView -->
<g id="edge26" class="edge">
<path fill="none" stroke="#cccccc" d="M2789.2,-347.974C2738.21,-305.209 2530.21,-136.66 2329,-58 2300.26,-46.7626 2225.98,-33.1593 2168.36,-23.6727"/>
<polygon fill="#cccccc" stroke="#cccccc" points="2168.61,-20.167 2158.17,-22.0098 2167.48,-27.0755 2168.61,-20.167"/>
</g>
<!-- _CollectionGeneratorDefaultsType&#45;&gt;UnicodeScalar.UTF16View -->
<g id="edge22" class="edge">
<path fill="none" stroke="#cccccc" d="M2704.44,-354.883C2613.67,-350.312 2485.71,-339.136 2444,-312 2337.49,-242.7 2283.72,-87.1548 2267.45,-31.9233"/>
<polygon fill="#cccccc" stroke="#cccccc" points="2270.81,-30.9242 2264.7,-22.2698 2264.08,-32.8465 2270.81,-30.9242"/>
</g>
<!-- _CollectionGeneratorDefaultsType&#45;&gt;UnsafeBufferPointer -->
<g id="edge23" class="edge">
<path fill="none" stroke="#cccccc" d="M2800.31,-347.861C2798.56,-326.01 2792.89,-273.128 2777,-232 2755.21,-175.617 2744.28,-162.779 2706,-116 2678.01,-81.7996 2639.04,-48.0814 2615.22,-28.6931"/>
<polygon fill="#cccccc" stroke="#cccccc" points="2617.16,-25.7649 2607.17,-22.2241 2612.77,-31.2192 2617.16,-25.7649"/>
</g>
<!-- _CollectionGeneratorDefaultsType&#45;&gt;UnsafeMutableBufferPointer -->
<g id="edge24" class="edge">
<path fill="none" stroke="#cccccc" d="M2793.81,-347.683C2778.13,-325.486 2739.21,-271.972 2701,-232 2619.59,-146.83 2593.38,-131.128 2501,-58 2487.79,-47.5439 2472.48,-36.5056 2460.15,-27.8636"/>
<polygon fill="#cccccc" stroke="#cccccc" points="2461.98,-24.8716 2451.77,-22.037 2457.99,-30.6191 2461.98,-24.8716"/>
</g>
<!-- _Sliceable&#45;&gt;Array -->
<g id="edge89" class="edge">
<path fill="none" stroke="#cccccc" d="M1658.47,-242.372C1534.28,-243.033 1092.65,-238.209 1007,-138 991.914,-120.35 1007.97,-77.1795 1024,-58 1038.24,-40.9639 1060.34,-29.6255 1079.32,-22.4688"/>
<polygon fill="#cccccc" stroke="#cccccc" points="1080.63,-25.7193 1088.9,-19.0994 1078.3,-19.1158 1080.63,-25.7193"/>
</g>
<!-- _Sliceable&#45;&gt;ArraySlice -->
<g id="edge90" class="edge">
<path fill="none" stroke="#cccccc" d="M1673.53,-231.855C1659.42,-223.24 1639.44,-210.063 1624,-196 1564.98,-142.234 1571.9,-107.17 1509,-58 1491.87,-44.6069 1470.2,-33.746 1451.89,-25.9476"/>
<polygon fill="#cccccc" stroke="#cccccc" points="1452.97,-22.6063 1442.39,-22.0427 1450.31,-29.081 1452.97,-22.6063"/>
</g>
<!-- _Sliceable&#45;&gt;ContiguousArray -->
<g id="edge91" class="edge">
<path fill="none" stroke="#cccccc" d="M1696.18,-231.739C1708.53,-206.642 1739.44,-139.838 1750,-80 1752.86,-63.7912 1749.2,-45.4093 1745.19,-31.8475"/>
<polygon fill="#cccccc" stroke="#cccccc" points="1748.45,-30.557 1742.02,-22.1381 1741.8,-32.7306 1748.45,-30.557"/>
</g>
<!-- _Sliceable&#45;&gt;Sliceable -->
<g id="edge92" class="edge">
<path fill="none" stroke="#cccccc" d="M1685.82,-231.988C1681.99,-224.595 1676.66,-214.301 1672.01,-205.325"/>
<polygon fill="#cccccc" stroke="#cccccc" points="1675.04,-203.574 1667.34,-196.304 1668.83,-206.793 1675.04,-203.574"/>
</g>
<!-- _Sliceable&#45;&gt;String.CharacterView -->
<g id="edge93" class="edge">
<path fill="none" stroke="#cccccc" d="M1723.47,-240.984C1819.22,-237.656 2095.43,-225.556 2122,-196 2163.74,-149.574 2197.1,-186.933 2042,-58 2024.87,-43.7557 2002.62,-33.0866 1983.18,-25.6285"/>
<polygon fill="#cccccc" stroke="#cccccc" points="1984.21,-22.276 1973.61,-22.1215 1981.8,-28.8486 1984.21,-22.276"/>
</g>
<!-- _Sliceable&#45;&gt;String.UTF16View -->
<g id="edge95" class="edge">
<path fill="none" stroke="#cccccc" d="M1658.47,-242.162C1545.44,-242.333 1170.65,-239.53 1060,-196 965.577,-158.852 879.607,-68.312 845.98,-29.8048"/>
<polygon fill="#cccccc" stroke="#cccccc" points="848.444,-27.3022 839.268,-22.0063 843.139,-31.8687 848.444,-27.3022"/>
</g>
<!-- _Sliceable&#45;&gt;String.UnicodeScalarView -->
<g id="edge94" class="edge">
<path fill="none" stroke="#cccccc" d="M1723.38,-242.212C1815.47,-242.283 2076.84,-238.627 2149,-196 2203.98,-163.521 2223.03,-112.037 2189,-58 2179.49,-42.9005 2163.5,-32.6475 2147.27,-25.7329"/>
<polygon fill="#cccccc" stroke="#cccccc" points="2148.32,-22.3867 2137.73,-22.0361 2145.79,-28.9136 2148.32,-22.3867"/>
</g>
<!-- __ArrayType&#45;&gt;Array -->
<g id="edge103" class="edge">
<path fill="none" stroke="#cccccc" d="M1287.32,-115.883C1254.29,-95.8554 1180.4,-51.0505 1141.33,-27.3608"/>
<polygon fill="#cccccc" stroke="#cccccc" points="1143.01,-24.2864 1132.65,-22.0941 1139.38,-30.2719 1143.01,-24.2864"/>
</g>
<!-- __ArrayType&#45;&gt;ArraySlice -->
<g id="edge104" class="edge">
<path fill="none" stroke="#cccccc" d="M1292.88,-115.643C1279.27,-101.692 1259.59,-76.482 1273,-58 1295.31,-27.2535 1338.74,-16.6679 1371.53,-13.2172"/>
<polygon fill="#cccccc" stroke="#cccccc" points="1372.1,-16.6808 1381.76,-12.3311 1371.5,-9.70693 1372.1,-16.6808"/>
</g>
<!-- __ArrayType&#45;&gt;ContiguousArray -->
<g id="edge105" class="edge">
<path fill="none" stroke="#cccccc" d="M1317.42,-115.76C1338.19,-100.49 1379.9,-72.0458 1420,-58 1506.58,-27.6722 1613.15,-17.3264 1678.3,-13.8053"/>
<polygon fill="#cccccc" stroke="#cccccc" points="1678.58,-17.2957 1688.39,-13.2968 1678.23,-10.3046 1678.58,-17.2957"/>
</g>
<!-- __ArrayType&#45;&gt;_ArrayType -->
<g id="edge106" class="edge">
<path fill="none" stroke="#cccccc" d="M1332.78,-115.988C1358.92,-106.898 1397.66,-93.4223 1426.46,-83.4053"/>
<polygon fill="#cccccc" stroke="#cccccc" points="1427.9,-86.6103 1436.19,-80.0192 1425.6,-79.9988 1427.9,-86.6103"/>
</g>
</g>
</svg>
