<?xml version="1.0" encoding="UTF-8" standalone="no"?>
<!DOCTYPE svg PUBLIC "-//W3C//DTD SVG 1.1//EN"
 "http://www.w3.org/Graphics/SVG/1.1/DTD/svg11.dtd">
<!-- Generated by graphviz version 2.36.0 (20140111.2315)
 -->
<!-- Title: Int &#45; Type Hierarchy &#45; SwiftDoc.org Pages: 1 -->
<svg width="1044pt" height="543pt"
 viewBox="0.00 0.00 1044.24 543.20" xmlns="http://www.w3.org/2000/svg" xmlns:xlink="http://www.w3.org/1999/xlink">
<g id="graph0" class="graph" transform="scale(1 1) rotate(0) translate(7.2 485.6)">
<g transform="translate(0 -485.6)">
<g>
    <path fill="#666666" d="M13.846,10.832c-0.336-0.464-0.792-0.844-1.368-1.14s-1.224-0.444-1.944-0.444
        c-0.384,0-0.772,0.052-1.164,0.156C8.977,9.509,8.622,9.677,8.301,9.908c-0.32,0.232-0.58,0.52-0.78,0.864
        c-0.2,0.344-0.3,0.756-0.3,1.236c0,0.464,0.092,0.852,0.276,1.164c0.184,0.312,0.432,0.576,0.744,0.792s0.68,0.4,1.104,0.552
        c0.423,0.152,0.876,0.309,1.356,0.468c0.576,0.177,1.16,0.376,1.752,0.601c0.592,0.224,1.128,0.52,1.608,0.888
        s0.872,0.828,1.176,1.38s0.456,1.252,0.456,2.101c0,0.88-0.164,1.644-0.492,2.292c-0.328,0.647-0.765,1.184-1.308,1.607
        c-0.544,0.424-1.172,0.74-1.884,0.948s-1.444,0.312-2.196,0.312c-1.072,0-2.108-0.208-3.108-0.624
        c-1-0.415-1.828-1.031-2.484-1.848l1.848-1.56c0.4,0.592,0.936,1.071,1.608,1.439c0.672,0.368,1.399,0.552,2.184,0.552
        c0.4,0,0.8-0.056,1.2-0.168c0.4-0.111,0.764-0.288,1.092-0.527c0.328-0.24,0.596-0.54,0.804-0.9
        c0.208-0.36,0.312-0.796,0.312-1.308s-0.108-0.94-0.324-1.284c-0.216-0.344-0.508-0.636-0.876-0.876s-0.796-0.444-1.284-0.612
        c-0.488-0.168-1.004-0.34-1.548-0.516c-0.544-0.16-1.08-0.356-1.608-0.588c-0.528-0.232-1-0.528-1.416-0.889
        c-0.416-0.359-0.752-0.804-1.008-1.332c-0.256-0.527-0.384-1.184-0.384-1.968c0-0.848,0.172-1.576,0.516-2.184
        c0.344-0.608,0.792-1.112,1.344-1.512c0.552-0.4,1.176-0.692,1.872-0.876c0.696-0.184,1.396-0.276,2.1-0.276
        c0.992,0,1.92,0.176,2.784,0.528c0.864,0.352,1.56,0.824,2.088,1.416L13.846,10.832z"/>
    <path fill="#666666" d="M18.813,13.304l2.568,8.688h0.048l2.712-8.688h2.376l2.76,8.688h0.048l2.568-8.688h2.376L30.501,24.68
        h-2.352l-2.808-8.544h-0.048l-2.784,8.544h-2.352l-3.792-11.376H18.813z"/>
    <path fill="#666666" d="M38.685,9.2c0,0.416-0.147,0.76-0.44,1.032c-0.294,0.272-0.647,0.408-1.06,0.408s-0.762-0.14-1.047-0.42
        c-0.286-0.28-0.429-0.62-0.429-1.02c0-0.416,0.143-0.764,0.429-1.044c0.286-0.28,0.635-0.42,1.047-0.42s0.766,0.14,1.06,0.42
        C38.538,8.437,38.685,8.784,38.685,9.2z M38.325,24.68h-2.256V13.304h2.256V24.68z"/>
    <path fill="#666666" d="M47.613,15.152h-2.64v9.528h-2.256v-9.528h-2.256v-1.848h2.256v-2.376c0-0.672,0.076-1.292,0.228-1.86
        c0.152-0.568,0.4-1.06,0.744-1.476c0.344-0.416,0.784-0.744,1.32-0.984c0.536-0.24,1.188-0.36,1.956-0.36
        c0.544,0,1.016,0.056,1.416,0.168l-0.264,1.944c-0.176-0.048-0.352-0.088-0.528-0.12c-0.176-0.032-0.376-0.048-0.6-0.048
        c-0.432,0-0.78,0.076-1.044,0.228c-0.264,0.152-0.468,0.356-0.612,0.612s-0.24,0.548-0.288,0.876
        c-0.048,0.328-0.072,0.668-0.072,1.02v2.376h2.64V15.152z"/>
    <path fill="#666666" d="M54.909,15.152h-3.024v5.91c0,0.687,0.128,1.177,0.384,1.472c0.256,0.295,0.664,0.442,1.224,0.442
        c0.208,0,0.432-0.021,0.672-0.065c0.24-0.044,0.456-0.11,0.648-0.198l0.072,1.848c-0.272,0.096-0.572,0.172-0.9,0.229
        c-0.328,0.056-0.668,0.084-1.02,0.084c-1.072,0-1.892-0.296-2.46-0.889c-0.568-0.592-0.852-1.479-0.852-2.664v-6.168h-2.184
        v-1.848h2.184V10.04h2.232v3.264h3.024V15.152z"/>
    <path fill="#666666" d="M57.356,7.688h5.832c1.088,0,2.176,0.16,3.264,0.48c1.088,0.32,2.072,0.824,2.952,1.512
        s1.592,1.568,2.136,2.64c0.544,1.072,0.816,2.36,0.816,3.864c0,1.456-0.272,2.716-0.816,3.78s-1.256,1.943-2.136,2.64
        s-1.864,1.216-2.952,1.561c-1.088,0.344-2.176,0.516-3.264,0.516h-5.832V7.688z M59.732,22.593h2.976
        c1.024,0,1.972-0.145,2.844-0.432c0.872-0.288,1.624-0.704,2.256-1.248c0.632-0.544,1.124-1.216,1.476-2.017
        c0.352-0.8,0.528-1.704,0.528-2.712c0-1.056-0.176-1.983-0.528-2.784c-0.353-0.8-0.844-1.468-1.476-2.004
        c-0.632-0.536-1.384-0.944-2.256-1.224s-1.82-0.42-2.844-0.42h-2.976V22.593z"/>
    <path fill="#666666" d="M86.06,18.969c0,0.88-0.156,1.688-0.468,2.424c-0.312,0.736-0.744,1.372-1.296,1.908
        c-0.552,0.536-1.204,0.952-1.956,1.248c-0.752,0.296-1.56,0.443-2.424,0.443c-0.864,0-1.672-0.147-2.424-0.443
        c-0.752-0.296-1.4-0.712-1.944-1.248c-0.544-0.536-0.972-1.172-1.284-1.908c-0.312-0.735-0.468-1.544-0.468-2.424
        s0.156-1.684,0.468-2.412c0.312-0.728,0.74-1.356,1.284-1.884c0.543-0.528,1.191-0.939,1.944-1.236
        c0.752-0.296,1.56-0.444,2.424-0.444c0.864,0,1.672,0.148,2.424,0.444c0.752,0.297,1.404,0.708,1.956,1.236
        c0.552,0.527,0.984,1.156,1.296,1.884C85.904,17.285,86.06,18.089,86.06,18.969z M83.708,18.98c0-0.542-0.084-1.061-0.252-1.556
        c-0.169-0.494-0.414-0.929-0.734-1.304s-0.718-0.674-1.192-0.897s-1.015-0.335-1.625-0.335c-0.61,0-1.152,0.111-1.625,0.335
        c-0.474,0.224-0.871,0.522-1.191,0.897c-0.321,0.375-0.566,0.81-0.734,1.304C76.184,17.92,76.1,18.438,76.1,18.98
        c0,0.543,0.084,1.062,0.253,1.556c0.168,0.495,0.413,0.934,0.734,1.316c0.321,0.383,0.718,0.686,1.191,0.909
        c0.473,0.224,1.015,0.335,1.625,0.335c0.61,0,1.151-0.111,1.625-0.335s0.871-0.526,1.192-0.909s0.565-0.821,0.734-1.316
        C83.624,20.042,83.708,19.523,83.708,18.98z"/>
    <path fill="#666666" d="M96.428,16.184c-0.24-0.368-0.6-0.676-1.08-0.924s-0.992-0.372-1.536-0.372
        c-0.592,0-1.116,0.112-1.572,0.336c-0.456,0.225-0.844,0.524-1.164,0.9c-0.32,0.376-0.564,0.812-0.732,1.308
        s-0.252,1.017-0.252,1.56c0,0.545,0.084,1.064,0.252,1.561s0.412,0.933,0.732,1.308c0.32,0.376,0.712,0.677,1.176,0.9
        c0.464,0.225,0.992,0.336,1.584,0.336c0.576,0,1.1-0.111,1.572-0.336c0.472-0.224,0.86-0.528,1.164-0.912l1.512,1.368
        c-0.48,0.561-1.08,0.996-1.8,1.308c-0.72,0.312-1.536,0.468-2.448,0.468c-0.88,0-1.692-0.144-2.436-0.432
        c-0.744-0.288-1.388-0.691-1.932-1.212c-0.544-0.52-0.972-1.147-1.284-1.884s-0.468-1.561-0.468-2.473
        c0-0.896,0.152-1.711,0.456-2.447c0.304-0.736,0.728-1.368,1.272-1.896c0.543-0.527,1.188-0.936,1.932-1.224
        c0.744-0.288,1.548-0.433,2.412-0.433c0.8,0,1.596,0.16,2.388,0.48s1.419,0.784,1.884,1.392L96.428,16.184z"/>
    <path fill="#666666" d="M103.1,23.24c0,0.417-0.152,0.784-0.456,1.104c-0.304,0.32-0.688,0.479-1.152,0.479
        c-0.448,0-0.828-0.155-1.14-0.468c-0.312-0.312-0.468-0.676-0.468-1.092c0-0.432,0.152-0.804,0.456-1.116
        c0.304-0.312,0.688-0.468,1.152-0.468c0.464,0,0.848,0.152,1.152,0.456C102.947,22.44,103.1,22.808,103.1,23.24z"/>
    <path fill="#666666" d="M116.635,18.969c0,0.88-0.156,1.688-0.468,2.424c-0.312,0.736-0.744,1.372-1.296,1.908
        c-0.552,0.536-1.204,0.952-1.956,1.248c-0.752,0.296-1.56,0.443-2.424,0.443c-0.864,0-1.672-0.147-2.424-0.443
        c-0.752-0.296-1.4-0.712-1.944-1.248c-0.544-0.536-0.972-1.172-1.284-1.908c-0.312-0.735-0.468-1.544-0.468-2.424
        s0.156-1.684,0.468-2.412c0.312-0.728,0.74-1.356,1.284-1.884c0.543-0.528,1.191-0.939,1.944-1.236
        c0.752-0.296,1.56-0.444,2.424-0.444c0.864,0,1.672,0.148,2.424,0.444c0.752,0.297,1.404,0.708,1.956,1.236
        c0.552,0.527,0.984,1.156,1.296,1.884C116.479,17.285,116.635,18.089,116.635,18.969z M114.283,18.98
        c0-0.542-0.084-1.061-0.252-1.556c-0.169-0.494-0.414-0.929-0.734-1.304s-0.718-0.674-1.192-0.897s-1.015-0.335-1.625-0.335
        c-0.61,0-1.152,0.111-1.625,0.335c-0.474,0.224-0.871,0.522-1.191,0.897c-0.321,0.375-0.566,0.81-0.734,1.304
        c-0.169,0.495-0.253,1.014-0.253,1.556c0,0.543,0.084,1.062,0.253,1.556c0.168,0.495,0.413,0.934,0.734,1.316
        c0.321,0.383,0.718,0.686,1.191,0.909c0.473,0.224,1.015,0.335,1.625,0.335c0.61,0,1.151-0.111,1.625-0.335
        s0.871-0.526,1.192-0.909s0.565-0.821,0.734-1.316C114.199,20.042,114.283,19.523,114.283,18.98z"/>
    <path fill="#666666" d="M119.251,14.577c-0.016-0.48-0.04-0.904-0.072-1.272h2.136c0.032,0.288,0.056,0.62,0.072,0.996
        c0.016,0.376,0.024,0.684,0.024,0.924h0.072c0.32-0.672,0.788-1.212,1.404-1.62c0.616-0.408,1.308-0.612,2.076-0.612
        c0.352,0,0.648,0.033,0.888,0.097l-0.096,2.088c-0.32-0.08-0.664-0.12-1.032-0.12c-0.544,0-1.016,0.101-1.416,0.3
        c-0.4,0.2-0.732,0.468-0.996,0.805c-0.264,0.336-0.46,0.724-0.588,1.163c-0.128,0.44-0.192,0.9-0.192,1.381v5.976h-2.256v-8.928
        C119.275,15.449,119.267,15.056,119.251,14.577z"/>
    <path fill="#666666" d="M128.419,26.625c0.496,0.56,1.116,1.008,1.86,1.344c0.744,0.336,1.508,0.504,2.292,0.504
        c0.752,0,1.384-0.108,1.896-0.324s0.924-0.512,1.236-0.888s0.536-0.82,0.672-1.332c0.136-0.513,0.204-1.064,0.204-1.656v-1.464
        h-0.048c-0.416,0.641-0.984,1.128-1.704,1.464c-0.72,0.336-1.488,0.504-2.304,0.504c-0.864,0-1.652-0.151-2.364-0.456
        c-0.712-0.304-1.316-0.72-1.812-1.248c-0.496-0.527-0.88-1.147-1.152-1.859s-0.408-1.477-0.408-2.292
        c0-0.816,0.136-1.584,0.408-2.305c0.272-0.72,0.656-1.348,1.152-1.884c0.496-0.535,1.096-0.96,1.8-1.271
        c0.704-0.312,1.488-0.469,2.352-0.469c0.816,0,1.596,0.177,2.34,0.528c0.744,0.353,1.332,0.888,1.764,1.608h0.048v-1.824h2.184
        v10.8c0,0.832-0.104,1.628-0.312,2.388c-0.208,0.76-0.56,1.433-1.056,2.017s-1.144,1.052-1.944,1.404
        c-0.8,0.352-1.792,0.527-2.976,0.527c-0.992,0-1.988-0.18-2.988-0.54c-1-0.359-1.86-0.868-2.58-1.523L128.419,26.625z
         M129.091,18.873c0,0.527,0.084,1.031,0.253,1.512c0.168,0.479,0.417,0.904,0.746,1.271c0.329,0.369,0.726,0.664,1.192,0.889
        c0.465,0.224,0.995,0.336,1.589,0.336c0.577,0,1.107-0.104,1.589-0.312c0.481-0.207,0.891-0.491,1.228-0.852
        s0.598-0.784,0.782-1.272c0.185-0.487,0.277-1.012,0.277-1.571c0-0.544-0.093-1.057-0.277-1.536
        c-0.185-0.48-0.449-0.904-0.794-1.272c-0.345-0.367-0.755-0.66-1.228-0.876c-0.474-0.216-1-0.324-1.577-0.324
        c-0.594,0-1.124,0.108-1.589,0.324c-0.466,0.216-0.863,0.504-1.192,0.864s-0.578,0.784-0.746,1.271
        C129.175,17.812,129.091,18.329,129.091,18.873z"/>
</g>
<g><a xlink:href="/" pointer-events="all" target="_top"><polygon fill="none" points="0,0 145,0 145,35 0,35 0,0"/></a></g>

</g>


<!-- BidirectionalIndexType -->
<g id="node1" class="node">
<g id="a_node1"><a xlink:href="/v2.2/protocol/BidirectionalIndexType/hierarchy/" target="_top">
<path fill="#999999" stroke="#999999" d="M294.725,-254C294.725,-254 179.275,-254 179.275,-254 175.608,-254 171.941,-250.333 171.941,-246.667 171.941,-246.667 171.941,-239.333 171.941,-239.333 171.941,-235.667 175.608,-232 179.275,-232 179.275,-232 294.725,-232 294.725,-232 298.392,-232 302.059,-235.667 302.059,-239.333 302.059,-239.333 302.059,-246.667 302.059,-246.667 302.059,-250.333 298.392,-254 294.725,-254"/>
<text text-anchor="middle" x="237" y="-239.4" font-family="Helvetica,sans-Serif" font-size="12.00" fill="white">BidirectionalIndexType</text>
</a>
</g>
</g>
<!-- RandomAccessIndexType -->
<g id="node14" class="node">
<g id="a_node14"><a xlink:href="/v2.2/protocol/RandomAccessIndexType/hierarchy/" target="_top">
<path fill="#999999" stroke="#999999" d="M362.225,-196C362.225,-196 227.775,-196 227.775,-196 224.108,-196 220.441,-192.333 220.441,-188.667 220.441,-188.667 220.441,-181.333 220.441,-181.333 220.441,-177.667 224.108,-174 227.775,-174 227.775,-174 362.225,-174 362.225,-174 365.892,-174 369.559,-177.667 369.559,-181.333 369.559,-181.333 369.559,-188.667 369.559,-188.667 369.559,-192.333 365.892,-196 362.225,-196"/>
<text text-anchor="middle" x="295" y="-181.4" font-family="Helvetica,sans-Serif" font-size="12.00" fill="white">RandomAccessIndexType</text>
</a>
</g>
</g>
<!-- BidirectionalIndexType&#45;&gt;RandomAccessIndexType -->
<g id="edge24" class="edge">
<path fill="none" stroke="#cccccc" d="M247.369,-231.988C255.597,-224.045 267.293,-212.751 277.037,-203.344"/>
<polygon fill="#cccccc" stroke="#cccccc" points="279.565,-205.768 284.328,-196.304 274.703,-200.732 279.565,-205.768"/>
</g>
<!-- BitwiseOperationsType -->
<g id="node2" class="node">
<g id="a_node2"><a xlink:href="/v2.2/protocol/BitwiseOperationsType/hierarchy/" target="_top">
<path fill="#999999" stroke="#999999" d="M811.715,-312C811.715,-312 694.285,-312 694.285,-312 690.618,-312 686.952,-308.333 686.952,-304.667 686.952,-304.667 686.952,-297.333 686.952,-297.333 686.952,-293.667 690.618,-290 694.285,-290 694.285,-290 811.715,-290 811.715,-290 815.382,-290 819.048,-293.667 819.048,-297.333 819.048,-297.333 819.048,-304.667 819.048,-304.667 819.048,-308.333 815.382,-312 811.715,-312"/>
<text text-anchor="middle" x="753" y="-297.4" font-family="Helvetica,sans-Serif" font-size="12.00" fill="white">BitwiseOperationsType</text>
</a>
</g>
</g>
<!-- _IntegerType -->
<g id="node20" class="node">
<g id="a_node20"><a xlink:href="/v2.2/protocol/_IntegerType/hierarchy/" target="_top">
<path fill="#999999" stroke="#999999" d="M711.708,-254C711.708,-254 646.292,-254 646.292,-254 642.626,-254 638.959,-250.333 638.959,-246.667 638.959,-246.667 638.959,-239.333 638.959,-239.333 638.959,-235.667 642.626,-232 646.292,-232 646.292,-232 711.708,-232 711.708,-232 715.374,-232 719.041,-235.667 719.041,-239.333 719.041,-239.333 719.041,-246.667 719.041,-246.667 719.041,-250.333 715.374,-254 711.708,-254"/>
<text text-anchor="middle" x="679" y="-239.4" font-family="Helvetica,sans-Serif" font-size="12.00" fill="white">_IntegerType</text>
</a>
</g>
</g>
<!-- BitwiseOperationsType&#45;&gt;_IntegerType -->
<g id="edge13" class="edge">
<path fill="none" stroke="#cccccc" d="M739.77,-289.988C728.961,-281.809 713.459,-270.077 700.818,-260.511"/>
<polygon fill="#cccccc" stroke="#cccccc" points="702.702,-257.547 692.616,-254.304 698.478,-263.129 702.702,-257.547"/>
</g>
<!-- CVarArgType -->
<g id="node3" class="node">
<g id="a_node3"><a xlink:href="/v2.2/protocol/CVarArgType/hierarchy/" target="_top">
<path fill="#999999" stroke="#999999" d="M482.029,-80C482.029,-80 415.971,-80 415.971,-80 412.304,-80 408.638,-76.3333 408.638,-72.6667 408.638,-72.6667 408.638,-65.3333 408.638,-65.3333 408.638,-61.6667 412.304,-58 415.971,-58 415.971,-58 482.029,-58 482.029,-58 485.696,-58 489.362,-61.6667 489.362,-65.3333 489.362,-65.3333 489.362,-72.6667 489.362,-72.6667 489.362,-76.3333 485.696,-80 482.029,-80"/>
<text text-anchor="middle" x="449" y="-65.4" font-family="Helvetica,sans-Serif" font-size="12.00" fill="white">CVarArgType</text>
</a>
</g>
</g>
<!-- Int -->
<g id="node9" class="node">
<g id="a_node9"><a xlink:href="/v2.2/type/Int/" target="_top">
<polygon fill="#ee543d" stroke="#ee543d" points="640,-22 586,-22 586,-0 640,-0 640,-22"/>
<text text-anchor="middle" x="613" y="-7.4" font-family="Helvetica,sans-Serif" font-size="12.00" fill="white">Int</text>
</a>
</g>
</g>
<!-- CVarArgType&#45;&gt;Int -->
<g id="edge4" class="edge">
<path fill="none" stroke="#cccccc" d="M478.32,-57.9883C505.719,-48.6326 546.725,-34.6304 576.289,-24.5356"/>
<polygon fill="#cccccc" stroke="#cccccc" points="577.507,-27.818 585.84,-21.2743 575.245,-21.1935 577.507,-27.818"/>
</g>
<!-- Comparable -->
<g id="node4" class="node">
<g id="a_node4"><a xlink:href="/v2.2/protocol/Comparable/hierarchy/" target="_top">
<path fill="#999999" stroke="#999999" d="M545.191,-370C545.191,-370 484.809,-370 484.809,-370 481.142,-370 477.475,-366.333 477.475,-362.667 477.475,-362.667 477.475,-355.333 477.475,-355.333 477.475,-351.667 481.142,-348 484.809,-348 484.809,-348 545.191,-348 545.191,-348 548.858,-348 552.525,-351.667 552.525,-355.333 552.525,-355.333 552.525,-362.667 552.525,-362.667 552.525,-366.333 548.858,-370 545.191,-370"/>
<text text-anchor="middle" x="515" y="-355.4" font-family="Helvetica,sans-Serif" font-size="12.00" fill="white">Comparable</text>
</a>
</g>
</g>
<!-- IntegerArithmeticType -->
<g id="node10" class="node">
<g id="a_node10"><a xlink:href="/v2.2/protocol/IntegerArithmeticType/hierarchy/" target="_top">
<path fill="#999999" stroke="#999999" d="M660.711,-312C660.711,-312 549.289,-312 549.289,-312 545.623,-312 541.956,-308.333 541.956,-304.667 541.956,-304.667 541.956,-297.333 541.956,-297.333 541.956,-293.667 545.623,-290 549.289,-290 549.289,-290 660.711,-290 660.711,-290 664.377,-290 668.044,-293.667 668.044,-297.333 668.044,-297.333 668.044,-304.667 668.044,-304.667 668.044,-308.333 664.377,-312 660.711,-312"/>
<text text-anchor="middle" x="605" y="-297.4" font-family="Helvetica,sans-Serif" font-size="12.00" fill="white">IntegerArithmeticType</text>
</a>
</g>
</g>
<!-- Comparable&#45;&gt;IntegerArithmeticType -->
<g id="edge17" class="edge">
<path fill="none" stroke="#cccccc" d="M531.09,-347.988C544.7,-339.52 564.427,-327.245 580.079,-317.507"/>
<polygon fill="#cccccc" stroke="#cccccc" points="582.104,-320.369 588.746,-312.114 578.406,-314.425 582.104,-320.369"/>
</g>
<!-- SignedNumberType -->
<g id="node16" class="node">
<g id="a_node16"><a xlink:href="/v2.2/protocol/SignedNumberType/hierarchy/" target="_top">
<path fill="#999999" stroke="#999999" d="M995.716,-254C995.716,-254 894.284,-254 894.284,-254 890.617,-254 886.95,-250.333 886.95,-246.667 886.95,-246.667 886.95,-239.333 886.95,-239.333 886.95,-235.667 890.617,-232 894.284,-232 894.284,-232 995.716,-232 995.716,-232 999.383,-232 1003.05,-235.667 1003.05,-239.333 1003.05,-239.333 1003.05,-246.667 1003.05,-246.667 1003.05,-250.333 999.383,-254 995.716,-254"/>
<text text-anchor="middle" x="945" y="-239.4" font-family="Helvetica,sans-Serif" font-size="12.00" fill="white">SignedNumberType</text>
</a>
</g>
</g>
<!-- Comparable&#45;&gt;SignedNumberType -->
<g id="edge20" class="edge">
<path fill="none" stroke="#cccccc" d="M552.579,-349.393C555.42,-348.877 558.251,-348.404 561,-348 612.052,-340.502 988.956,-349.874 1024,-312 1042.83,-291.653 1010.84,-271.309 982.103,-258.249"/>
<polygon fill="#cccccc" stroke="#cccccc" points="983.129,-254.879 972.562,-254.11 980.343,-261.301 983.129,-254.879"/>
</g>
<!-- Strideable -->
<g id="node17" class="node">
<g id="a_node17"><a xlink:href="/v2.2/protocol/Strideable/hierarchy/" target="_top">
<path fill="#999999" stroke="#999999" d="M376.693,-254C376.693,-254 327.307,-254 327.307,-254 323.64,-254 319.974,-250.333 319.974,-246.667 319.974,-246.667 319.974,-239.333 319.974,-239.333 319.974,-235.667 323.64,-232 327.307,-232 327.307,-232 376.693,-232 376.693,-232 380.36,-232 384.026,-235.667 384.026,-239.333 384.026,-239.333 384.026,-246.667 384.026,-246.667 384.026,-250.333 380.36,-254 376.693,-254"/>
<text text-anchor="middle" x="352" y="-239.4" font-family="Helvetica,sans-Serif" font-size="12.00" fill="white">Strideable</text>
</a>
</g>
</g>
<!-- Comparable&#45;&gt;Strideable -->
<g id="edge29" class="edge">
<path fill="none" stroke="#cccccc" d="M477.359,-355.693C444.86,-351.694 398.867,-340.91 371,-312 358.798,-299.341 354.305,-279.52 352.713,-264.537"/>
<polygon fill="#cccccc" stroke="#cccccc" points="356.18,-263.948 351.981,-254.221 349.197,-264.443 356.18,-263.948"/>
</g>
<!-- CustomStringConvertible -->
<g id="node5" class="node">
<g id="a_node5"><a xlink:href="/v2.2/protocol/CustomStringConvertible/hierarchy/" target="_top">
<path fill="#999999" stroke="#999999" d="M516.208,-312C516.208,-312 387.792,-312 387.792,-312 384.126,-312 380.459,-308.333 380.459,-304.667 380.459,-304.667 380.459,-297.333 380.459,-297.333 380.459,-293.667 384.126,-290 387.792,-290 387.792,-290 516.208,-290 516.208,-290 519.874,-290 523.541,-293.667 523.541,-297.333 523.541,-297.333 523.541,-304.667 523.541,-304.667 523.541,-308.333 519.874,-312 516.208,-312"/>
<text text-anchor="middle" x="452" y="-297.4" font-family="Helvetica,sans-Serif" font-size="12.00" fill="white">CustomStringConvertible</text>
</a>
</g>
</g>
<!-- CustomStringConvertible&#45;&gt;_IntegerType -->
<g id="edge10" class="edge">
<path fill="none" stroke="#cccccc" d="M492.583,-289.988C530.754,-280.572 588.006,-266.448 628.984,-256.339"/>
<polygon fill="#cccccc" stroke="#cccccc" points="629.898,-259.718 638.768,-253.925 628.221,-252.922 629.898,-259.718"/>
</g>
<!-- Equatable -->
<g id="node6" class="node">
<g id="a_node6"><a xlink:href="/v2.2/protocol/Equatable/hierarchy/" target="_top">
<path fill="#999999" stroke="#999999" d="M539.702,-428C539.702,-428 490.298,-428 490.298,-428 486.632,-428 482.965,-424.333 482.965,-420.667 482.965,-420.667 482.965,-413.333 482.965,-413.333 482.965,-409.667 486.632,-406 490.298,-406 490.298,-406 539.702,-406 539.702,-406 543.368,-406 547.035,-409.667 547.035,-413.333 547.035,-413.333 547.035,-420.667 547.035,-420.667 547.035,-424.333 543.368,-428 539.702,-428"/>
<text text-anchor="middle" x="515" y="-413.4" font-family="Helvetica,sans-Serif" font-size="12.00" fill="white">Equatable</text>
</a>
</g>
</g>
<!-- Equatable&#45;&gt;Comparable -->
<g id="edge18" class="edge">
<path fill="none" stroke="#cccccc" d="M515,-405.988C515,-398.91 515,-389.171 515,-380.478"/>
<polygon fill="#cccccc" stroke="#cccccc" points="518.5,-380.304 515,-370.304 511.5,-380.304 518.5,-380.304"/>
</g>
<!-- Hashable -->
<g id="node8" class="node">
<g id="a_node8"><a xlink:href="/v2.2/protocol/Hashable/hierarchy/" target="_top">
<path fill="#999999" stroke="#999999" d="M837.694,-370C837.694,-370 792.306,-370 792.306,-370 788.639,-370 784.973,-366.333 784.973,-362.667 784.973,-362.667 784.973,-355.333 784.973,-355.333 784.973,-351.667 788.639,-348 792.306,-348 792.306,-348 837.694,-348 837.694,-348 841.361,-348 845.027,-351.667 845.027,-355.333 845.027,-355.333 845.027,-362.667 845.027,-362.667 845.027,-366.333 841.361,-370 837.694,-370"/>
<text text-anchor="middle" x="815" y="-355.4" font-family="Helvetica,sans-Serif" font-size="12.00" fill="white">Hashable</text>
</a>
</g>
</g>
<!-- Equatable&#45;&gt;Hashable -->
<g id="edge15" class="edge">
<path fill="none" stroke="#cccccc" d="M547.105,-410.007C602.261,-399.711 714.866,-378.692 775.021,-367.463"/>
<polygon fill="#cccccc" stroke="#cccccc" points="775.725,-370.892 784.913,-365.616 774.441,-364.011 775.725,-370.892"/>
</g>
<!-- _Incrementable -->
<g id="node18" class="node">
<g id="a_node18"><a xlink:href="/v2.2/protocol/_Incrementable/hierarchy/" target="_top">
<path fill="#999999" stroke="#999999" d="M352.705,-370C352.705,-370 275.295,-370 275.295,-370 271.628,-370 267.961,-366.333 267.961,-362.667 267.961,-362.667 267.961,-355.333 267.961,-355.333 267.961,-351.667 271.628,-348 275.295,-348 275.295,-348 352.705,-348 352.705,-348 356.372,-348 360.039,-351.667 360.039,-355.333 360.039,-355.333 360.039,-362.667 360.039,-362.667 360.039,-366.333 356.372,-370 352.705,-370"/>
<text text-anchor="middle" x="314" y="-355.4" font-family="Helvetica,sans-Serif" font-size="12.00" fill="white">_Incrementable</text>
</a>
</g>
</g>
<!-- Equatable&#45;&gt;_Incrementable -->
<g id="edge19" class="edge">
<path fill="none" stroke="#cccccc" d="M482.706,-407.003C449.395,-397.722 397.154,-383.167 359.63,-372.713"/>
<polygon fill="#cccccc" stroke="#cccccc" points="360.52,-369.328 349.947,-370.015 358.641,-376.071 360.52,-369.328"/>
</g>
<!-- ForwardIndexType -->
<g id="node7" class="node">
<g id="a_node7"><a xlink:href="/v2.2/protocol/ForwardIndexType/hierarchy/" target="_top">
<path fill="#999999" stroke="#999999" d="M278.206,-312C278.206,-312 183.794,-312 183.794,-312 180.127,-312 176.461,-308.333 176.461,-304.667 176.461,-304.667 176.461,-297.333 176.461,-297.333 176.461,-293.667 180.127,-290 183.794,-290 183.794,-290 278.206,-290 278.206,-290 281.873,-290 285.539,-293.667 285.539,-297.333 285.539,-297.333 285.539,-304.667 285.539,-304.667 285.539,-308.333 281.873,-312 278.206,-312"/>
<text text-anchor="middle" x="231" y="-297.4" font-family="Helvetica,sans-Serif" font-size="12.00" fill="white">ForwardIndexType</text>
</a>
</g>
</g>
<!-- ForwardIndexType&#45;&gt;BidirectionalIndexType -->
<g id="edge27" class="edge">
<path fill="none" stroke="#cccccc" d="M232.073,-289.988C232.831,-282.91 233.874,-273.171 234.806,-264.478"/>
<polygon fill="#cccccc" stroke="#cccccc" points="238.311,-264.62 235.896,-254.304 231.351,-263.874 238.311,-264.62"/>
</g>
<!-- Hashable&#45;&gt;_IntegerType -->
<g id="edge11" class="edge">
<path fill="none" stroke="#cccccc" d="M821.423,-347.703C829.456,-333.366 840.702,-307.215 828,-290 805.567,-259.597 763.31,-248.672 729.511,-245.023"/>
<polygon fill="#cccccc" stroke="#cccccc" points="729.596,-241.517 719.324,-244.111 728.972,-248.489 729.596,-241.517"/>
</g>
<!-- IntegerArithmeticType&#45;&gt;_IntegerType -->
<g id="edge12" class="edge">
<path fill="none" stroke="#cccccc" d="M618.23,-289.988C629.039,-281.809 644.541,-270.077 657.182,-260.511"/>
<polygon fill="#cccccc" stroke="#cccccc" points="659.522,-263.129 665.384,-254.304 655.298,-257.547 659.522,-263.129"/>
</g>
<!-- IntegerLiteralConvertible -->
<g id="node11" class="node">
<g id="a_node11"><a xlink:href="/v2.2/protocol/IntegerLiteralConvertible/hierarchy/" target="_top">
<path fill="#999999" stroke="#999999" d="M1007.72,-312C1007.72,-312 882.278,-312 882.278,-312 878.611,-312 874.944,-308.333 874.944,-304.667 874.944,-304.667 874.944,-297.333 874.944,-297.333 874.944,-293.667 878.611,-290 882.278,-290 882.278,-290 1007.72,-290 1007.72,-290 1011.39,-290 1015.06,-293.667 1015.06,-297.333 1015.06,-297.333 1015.06,-304.667 1015.06,-304.667 1015.06,-308.333 1011.39,-312 1007.72,-312"/>
<text text-anchor="middle" x="945" y="-297.4" font-family="Helvetica,sans-Serif" font-size="12.00" fill="white">IntegerLiteralConvertible</text>
</a>
</g>
</g>
<!-- IntegerLiteralConvertible&#45;&gt;SignedNumberType -->
<g id="edge21" class="edge">
<path fill="none" stroke="#cccccc" d="M945,-289.988C945,-282.91 945,-273.171 945,-264.478"/>
<polygon fill="#cccccc" stroke="#cccccc" points="948.5,-264.304 945,-254.304 941.5,-264.304 948.5,-264.304"/>
</g>
<!-- IntegerLiteralConvertible&#45;&gt;_IntegerType -->
<g id="edge9" class="edge">
<path fill="none" stroke="#cccccc" d="M897.445,-289.988C850.01,-280.002 777.431,-264.722 729.116,-254.551"/>
<polygon fill="#cccccc" stroke="#cccccc" points="729.699,-251.097 719.192,-252.461 728.256,-257.947 729.699,-251.097"/>
</g>
<!-- IntegerType -->
<g id="node12" class="node">
<g id="a_node12"><a xlink:href="/v2.2/protocol/IntegerType/hierarchy/" target="_top">
<path fill="#999999" stroke="#999999" d="M664.202,-138C664.202,-138 605.798,-138 605.798,-138 602.132,-138 598.465,-134.333 598.465,-130.667 598.465,-130.667 598.465,-123.333 598.465,-123.333 598.465,-119.667 602.132,-116 605.798,-116 605.798,-116 664.202,-116 664.202,-116 667.868,-116 671.535,-119.667 671.535,-123.333 671.535,-123.333 671.535,-130.667 671.535,-130.667 671.535,-134.333 667.868,-138 664.202,-138"/>
<text text-anchor="middle" x="635" y="-123.4" font-family="Helvetica,sans-Serif" font-size="12.00" fill="white">IntegerType</text>
</a>
</g>
</g>
<!-- SignedIntegerType -->
<g id="node15" class="node">
<g id="a_node15"><a xlink:href="/v2.2/protocol/SignedIntegerType/hierarchy/" target="_top">
<path fill="#999999" stroke="#999999" d="M720.727,-80C720.727,-80 625.273,-80 625.273,-80 621.606,-80 617.94,-76.3333 617.94,-72.6667 617.94,-72.6667 617.94,-65.3333 617.94,-65.3333 617.94,-61.6667 621.606,-58 625.273,-58 625.273,-58 720.727,-58 720.727,-58 724.394,-58 728.06,-61.6667 728.06,-65.3333 728.06,-65.3333 728.06,-72.6667 728.06,-72.6667 728.06,-76.3333 724.394,-80 720.727,-80"/>
<text text-anchor="middle" x="673" y="-65.4" font-family="Helvetica,sans-Serif" font-size="12.00" fill="white">SignedIntegerType</text>
</a>
</g>
</g>
<!-- IntegerType&#45;&gt;SignedIntegerType -->
<g id="edge6" class="edge">
<path fill="none" stroke="#cccccc" d="M641.794,-115.988C646.917,-108.438 654.094,-97.8611 660.274,-88.7543"/>
<polygon fill="#cccccc" stroke="#cccccc" points="663.289,-90.5439 666.008,-80.3039 657.497,-86.6134 663.289,-90.5439"/>
</g>
<!-- MirrorPathType -->
<g id="node13" class="node">
<g id="a_node13"><a xlink:href="/v2.2/protocol/MirrorPathType/hierarchy/" target="_top">
<path fill="#999999" stroke="#999999" d="M592.69,-80C592.69,-80 515.31,-80 515.31,-80 511.643,-80 507.977,-76.3333 507.977,-72.6667 507.977,-72.6667 507.977,-65.3333 507.977,-65.3333 507.977,-61.6667 511.643,-58 515.31,-58 515.31,-58 592.69,-58 592.69,-58 596.357,-58 600.023,-61.6667 600.023,-65.3333 600.023,-65.3333 600.023,-72.6667 600.023,-72.6667 600.023,-76.3333 596.357,-80 592.69,-80"/>
<text text-anchor="middle" x="554" y="-65.4" font-family="Helvetica,sans-Serif" font-size="12.00" fill="white">MirrorPathType</text>
</a>
</g>
</g>
<!-- MirrorPathType&#45;&gt;Int -->
<g id="edge3" class="edge">
<path fill="none" stroke="#cccccc" d="M564.548,-57.9883C572.917,-50.0446 584.816,-38.7512 594.727,-29.3439"/>
<polygon fill="#cccccc" stroke="#cccccc" points="597.301,-31.7268 602.144,-22.3039 592.482,-26.6496 597.301,-31.7268"/>
</g>
<!-- RandomAccessIndexType&#45;&gt;IntegerType -->
<g id="edge23" class="edge">
<path fill="none" stroke="#cccccc" d="M355.785,-173.988C422.413,-163.014 527.854,-145.648 588.297,-135.692"/>
<polygon fill="#cccccc" stroke="#cccccc" points="589.021,-139.12 598.319,-134.042 587.883,-132.213 589.021,-139.12"/>
</g>
<!-- SignedIntegerType&#45;&gt;Int -->
<g id="edge1" class="edge">
<path fill="none" stroke="#cccccc" d="M662.273,-57.9883C653.762,-50.0446 641.662,-38.7512 631.583,-29.3439"/>
<polygon fill="#cccccc" stroke="#cccccc" points="633.739,-26.5684 624.04,-22.3039 628.962,-31.6858 633.739,-26.5684"/>
</g>
<!-- _SignedIntegerType -->
<g id="node23" class="node">
<g id="a_node23"><a xlink:href="/v2.2/protocol/_SignedIntegerType/hierarchy/" target="_top">
<path fill="#999999" stroke="#999999" d="M773.231,-196C773.231,-196 670.769,-196 670.769,-196 667.102,-196 663.436,-192.333 663.436,-188.667 663.436,-188.667 663.436,-181.333 663.436,-181.333 663.436,-177.667 667.102,-174 670.769,-174 670.769,-174 773.231,-174 773.231,-174 776.898,-174 780.564,-177.667 780.564,-181.333 780.564,-181.333 780.564,-188.667 780.564,-188.667 780.564,-192.333 776.898,-196 773.231,-196"/>
<text text-anchor="middle" x="722" y="-181.4" font-family="Helvetica,sans-Serif" font-size="12.00" fill="white">_SignedIntegerType</text>
</a>
</g>
</g>
<!-- SignedNumberType&#45;&gt;_SignedIntegerType -->
<g id="edge8" class="edge">
<path fill="none" stroke="#cccccc" d="M905.132,-231.988C867.828,-222.621 811.974,-208.594 771.763,-198.497"/>
<polygon fill="#cccccc" stroke="#cccccc" points="772.449,-195.06 761.898,-196.019 770.744,-201.85 772.449,-195.06"/>
</g>
<!-- Strideable&#45;&gt;RandomAccessIndexType -->
<g id="edge25" class="edge">
<path fill="none" stroke="#cccccc" d="M341.81,-231.988C333.724,-224.045 322.229,-212.751 312.654,-203.344"/>
<polygon fill="#cccccc" stroke="#cccccc" points="315.074,-200.815 305.488,-196.304 310.168,-205.809 315.074,-200.815"/>
</g>
<!-- _Incrementable&#45;&gt;ForwardIndexType -->
<g id="edge28" class="edge">
<path fill="none" stroke="#cccccc" d="M299.161,-347.988C286.728,-339.599 268.757,-327.474 254.389,-317.78"/>
<polygon fill="#cccccc" stroke="#cccccc" points="256.237,-314.805 245.99,-312.114 252.322,-320.608 256.237,-314.805"/>
</g>
<!-- _Incrementable&#45;&gt;_IntegerType -->
<g id="edge14" class="edge">
<path fill="none" stroke="#cccccc" d="M319.262,-347.927C327.847,-332.607 346.407,-303.779 371,-290 414.133,-265.833 552.846,-252.718 628.55,-247.199"/>
<polygon fill="#cccccc" stroke="#cccccc" points="629.071,-250.671 638.797,-246.47 628.574,-243.688 629.071,-250.671"/>
</g>
<!-- _IntegerArithmeticType -->
<g id="node19" class="node">
<g id="a_node19"><a xlink:href="/v2.2/protocol/_IntegerArithmeticType/hierarchy/" target="_top">
<path fill="#999999" stroke="#999999" d="M696.215,-370C696.215,-370 577.785,-370 577.785,-370 574.118,-370 570.452,-366.333 570.452,-362.667 570.452,-362.667 570.452,-355.333 570.452,-355.333 570.452,-351.667 574.118,-348 577.785,-348 577.785,-348 696.215,-348 696.215,-348 699.882,-348 703.548,-351.667 703.548,-355.333 703.548,-355.333 703.548,-362.667 703.548,-362.667 703.548,-366.333 699.882,-370 696.215,-370"/>
<text text-anchor="middle" x="637" y="-355.4" font-family="Helvetica,sans-Serif" font-size="12.00" fill="white">_IntegerArithmeticType</text>
</a>
</g>
</g>
<!-- _IntegerArithmeticType&#45;&gt;IntegerArithmeticType -->
<g id="edge16" class="edge">
<path fill="none" stroke="#cccccc" d="M631.279,-347.988C627.009,-340.517 621.046,-330.081 615.88,-321.039"/>
<polygon fill="#cccccc" stroke="#cccccc" points="618.888,-319.25 610.888,-312.304 612.811,-322.723 618.888,-319.25"/>
</g>
<!-- _IntegerType&#45;&gt;IntegerType -->
<g id="edge22" class="edge">
<path fill="none" stroke="#cccccc" d="M672.544,-231.732C667.031,-222.62 659.19,-208.804 654,-196 647.677,-180.403 642.671,-161.977 639.389,-148.242"/>
<polygon fill="#cccccc" stroke="#cccccc" points="642.774,-147.345 637.133,-138.377 635.95,-148.905 642.774,-147.345"/>
</g>
<!-- _IntegerType&#45;&gt;_SignedIntegerType -->
<g id="edge7" class="edge">
<path fill="none" stroke="#cccccc" d="M686.688,-231.988C692.546,-224.359 700.776,-213.64 707.818,-204.47"/>
<polygon fill="#cccccc" stroke="#cccccc" points="710.774,-206.367 714.088,-196.304 705.222,-202.104 710.774,-206.367"/>
</g>
<!-- _RandomAccessAmbiguity -->
<g id="node21" class="node">
<g id="a_node21"><a xlink:href="/v2.2/protocol/_RandomAccessAmbiguity/hierarchy/" target="_top">
<path fill="#999999" stroke="#999999" d="M146.214,-254C146.214,-254 7.78636,-254 7.78636,-254 4.11969,-254 0.453028,-250.333 0.453028,-246.667 0.453028,-246.667 0.453028,-239.333 0.453028,-239.333 0.453028,-235.667 4.11969,-232 7.78636,-232 7.78636,-232 146.214,-232 146.214,-232 149.88,-232 153.547,-235.667 153.547,-239.333 153.547,-239.333 153.547,-246.667 153.547,-246.667 153.547,-250.333 149.88,-254 146.214,-254"/>
<text text-anchor="middle" x="77" y="-239.4" font-family="Helvetica,sans-Serif" font-size="12.00" fill="white">_RandomAccessAmbiguity</text>
</a>
</g>
</g>
<!-- _RandomAccessAmbiguity&#45;&gt;RandomAccessIndexType -->
<g id="edge26" class="edge">
<path fill="none" stroke="#cccccc" d="M115.974,-231.988C152.364,-222.64 206.812,-208.654 246.102,-198.561"/>
<polygon fill="#cccccc" stroke="#cccccc" points="247.182,-201.897 255.996,-196.019 245.44,-195.117 247.182,-201.897"/>
</g>
<!-- _Reflectable -->
<g id="node22" class="node">
<g id="a_node22"><a xlink:href="/v2.2/protocol/_Reflectable/hierarchy/" target="_top">
<path fill="#999999" stroke="#999999" d="M815.7,-80C815.7,-80 754.3,-80 754.3,-80 750.634,-80 746.967,-76.3333 746.967,-72.6667 746.967,-72.6667 746.967,-65.3333 746.967,-65.3333 746.967,-61.6667 750.634,-58 754.3,-58 754.3,-58 815.7,-58 815.7,-58 819.366,-58 823.033,-61.6667 823.033,-65.3333 823.033,-65.3333 823.033,-72.6667 823.033,-72.6667 823.033,-76.3333 819.366,-80 815.7,-80"/>
<text text-anchor="middle" x="785" y="-65.4" font-family="Helvetica,sans-Serif" font-size="12.00" fill="white">_Reflectable</text>
</a>
</g>
</g>
<!-- _Reflectable&#45;&gt;Int -->
<g id="edge2" class="edge">
<path fill="none" stroke="#cccccc" d="M754.25,-57.9883C724.954,-48.45 680.823,-34.082 649.7,-23.949"/>
<polygon fill="#cccccc" stroke="#cccccc" points="650.68,-20.5872 640.088,-20.8193 648.513,-27.2433 650.68,-20.5872"/>
</g>
<!-- _SignedIntegerType&#45;&gt;SignedIntegerType -->
<g id="edge5" class="edge">
<path fill="none" stroke="#cccccc" d="M717.652,-173.883C709.536,-155.002 691.954,-114.098 681.436,-89.6272"/>
<polygon fill="#cccccc" stroke="#cccccc" points="684.574,-88.0631 677.409,-80.2579 678.143,-90.8274 684.574,-88.0631"/>
</g>
</g>
</svg>
