<?xml version="1.0" encoding="UTF-8" standalone="no"?>
<!DOCTYPE svg PUBLIC "-//W3C//DTD SVG 1.1//EN"
 "http://www.w3.org/Graphics/SVG/1.1/DTD/svg11.dtd">
<!-- Generated by graphviz version 2.36.0 (20140111.2315)
 -->
<!-- Title: IntervalType &#45; Type Hierarchy &#45; SwiftDoc.org Pages: 1 -->
<svg width="218pt" height="195pt"
 viewBox="0.00 0.00 218.40 195.20" xmlns="http://www.w3.org/2000/svg" xmlns:xlink="http://www.w3.org/1999/xlink">
<g id="graph0" class="graph" transform="scale(1 1) rotate(0) translate(7.2 137.6)">
<title>IntervalType &#45; Type Hierarchy &#45; SwiftDoc.org</title>
<polygon fill="white" stroke="none" points="-7.2,57.6 -7.2,-137.6 211.2,-137.6 211.2,57.6 -7.2,57.6"/>
<!-- ClosedInterval -->
<g id="node1" class="node"><title>ClosedInterval</title>
<g id="a_node1"><a xlink:href="/type/ClosedInterval/" xlink:title="ClosedInterval">
<polygon fill="#999999" stroke="#999999" points="86.0299,-22 -0.029906,-22 -0.029906,-0 86.0299,-0 86.0299,-22"/>
<text text-anchor="middle" x="43" y="-7.4" font-family="Helvetica,sans-Serif" font-size="12.00" fill="white">ClosedInterval</text>
</a>
</g>
</g>
<!-- HalfOpenInterval -->
<g id="node2" class="node"><title>HalfOpenInterval</title>
<g id="a_node2"><a xlink:href="/type/HalfOpenInterval/" xlink:title="HalfOpenInterval">
<polygon fill="#999999" stroke="#999999" points="204.035,-22 103.965,-22 103.965,-0 204.035,-0 204.035,-22"/>
<text text-anchor="middle" x="154" y="-7.4" font-family="Helvetica,sans-Serif" font-size="12.00" fill="white">HalfOpenInterval</text>
</a>
</g>
</g>
<!-- IntervalType -->
<g id="node3" class="node"><title>IntervalType</title>
<g id="a_node3"><a xlink:href="/protocol/IntervalType/" xlink:title="IntervalType">
<path fill="#ee543d" stroke="#ee543d" d="M128.196,-80C128.196,-80 67.8043,-80 67.8043,-80 64.1377,-80 60.471,-76.3333 60.471,-72.6667 60.471,-72.6667 60.471,-65.3333 60.471,-65.3333 60.471,-61.6667 64.1377,-58 67.8043,-58 67.8043,-58 128.196,-58 128.196,-58 131.862,-58 135.529,-61.6667 135.529,-65.3333 135.529,-65.3333 135.529,-72.6667 135.529,-72.6667 135.529,-76.3333 131.862,-80 128.196,-80"/>
<text text-anchor="middle" x="98" y="-65.4" font-family="Helvetica,sans-Serif" font-size="12.00" fill="white">IntervalType</text>
</a>
</g>
</g>
<!-- IntervalType&#45;&gt;ClosedInterval -->
<g id="edge1" class="edge"><title>IntervalType&#45;&gt;ClosedInterval</title>
<path fill="none" stroke="#cccccc" d="M88.1671,-57.9883C80.4425,-50.1233 69.4928,-38.9745 60.3092,-29.6239"/>
<polygon fill="#cccccc" stroke="#cccccc" points="62.6241,-26.9859 53.1199,-22.3039 57.6299,-31.8909 62.6241,-26.9859"/>
</g>
<!-- IntervalType&#45;&gt;HalfOpenInterval -->
<g id="edge2" class="edge"><title>IntervalType&#45;&gt;HalfOpenInterval</title>
<path fill="none" stroke="#cccccc" d="M108.012,-57.9883C115.877,-50.1233 127.026,-38.9745 136.376,-29.6239"/>
<polygon fill="#cccccc" stroke="#cccccc" points="139.1,-31.8499 143.696,-22.3039 134.15,-26.9001 139.1,-31.8499"/>
</g>
</g>
</svg>
