<?xml version="1.0" encoding="UTF-8" standalone="no"?>
<!DOCTYPE svg PUBLIC "-//W3C//DTD SVG 1.1//EN"
 "http://www.w3.org/Graphics/SVG/1.1/DTD/svg11.dtd">
<!-- Generated by graphviz version 2.36.0 (20140111.2315)
 -->
<!-- Title: StringLiteralConvertible &#45; Type Hierarchy &#45; SwiftDoc.org Pages: 1 -->
<svg width="262pt" height="311pt"
 viewBox="0.00 0.00 262.40 311.20" xmlns="http://www.w3.org/2000/svg" xmlns:xlink="http://www.w3.org/1999/xlink">
<g id="graph0" class="graph" transform="scale(1 1) rotate(0) translate(7.2 253.6)">
<title>StringLiteralConvertible &#45; Type Hierarchy &#45; SwiftDoc.org</title>
<polygon fill="white" stroke="none" points="-7.2,57.6 -7.2,-253.6 255.2,-253.6 255.2,57.6 -7.2,57.6"/>
<!-- ExtendedGraphemeClusterLiteralConvertible -->
<g id="node1" class="node"><title>ExtendedGraphemeClusterLiteralConvertible</title>
<g id="a_node1"><a xlink:href="/protocol/ExtendedGraphemeClusterLiteralConvertible/" xlink:title="ExtendedGraphemeClusterLiteralConvertible">
<path fill="#999999" stroke="#999999" d="M240.762,-138C240.762,-138 7.23836,-138 7.23836,-138 3.57169,-138 -0.0949775,-134.333 -0.0949775,-130.667 -0.0949775,-130.667 -0.0949775,-123.333 -0.0949775,-123.333 -0.0949775,-119.667 3.57169,-116 7.23836,-116 7.23836,-116 240.762,-116 240.762,-116 244.428,-116 248.095,-119.667 248.095,-123.333 248.095,-123.333 248.095,-130.667 248.095,-130.667 248.095,-134.333 244.428,-138 240.762,-138"/>
<text text-anchor="middle" x="124" y="-123.4" font-family="Helvetica,sans-Serif" font-size="12.00" fill="white">ExtendedGraphemeClusterLiteralConvertible</text>
</a>
</g>
</g>
<!-- StringLiteralConvertible -->
<g id="node4" class="node"><title>StringLiteralConvertible</title>
<g id="a_node4"><a xlink:href="/protocol/StringLiteralConvertible/" xlink:title="StringLiteralConvertible">
<path fill="#ee543d" stroke="#ee543d" d="M183.714,-80C183.714,-80 64.2863,-80 64.2863,-80 60.6196,-80 56.953,-76.3333 56.953,-72.6667 56.953,-72.6667 56.953,-65.3333 56.953,-65.3333 56.953,-61.6667 60.6196,-58 64.2863,-58 64.2863,-58 183.714,-58 183.714,-58 187.38,-58 191.047,-61.6667 191.047,-65.3333 191.047,-65.3333 191.047,-72.6667 191.047,-72.6667 191.047,-76.3333 187.38,-80 183.714,-80"/>
<text text-anchor="middle" x="124" y="-65.4" font-family="Helvetica,sans-Serif" font-size="12.00" fill="white">StringLiteralConvertible</text>
</a>
</g>
</g>
<!-- ExtendedGraphemeClusterLiteralConvertible&#45;&gt;StringLiteralConvertible -->
<g id="edge3" class="edge"><title>ExtendedGraphemeClusterLiteralConvertible&#45;&gt;StringLiteralConvertible</title>
<path fill="none" stroke="#cccccc" d="M124,-115.988C124,-108.91 124,-99.1714 124,-90.4779"/>
<polygon fill="#cccccc" stroke="#cccccc" points="127.5,-90.3038 124,-80.3039 120.5,-90.3039 127.5,-90.3038"/>
</g>
<!-- StaticString -->
<g id="node2" class="node"><title>StaticString</title>
<g id="a_node2"><a xlink:href="/type/StaticString/" xlink:title="StaticString">
<polygon fill="#999999" stroke="#999999" points="119.519,-22 48.4813,-22 48.4813,-0 119.519,-0 119.519,-22"/>
<text text-anchor="middle" x="84" y="-7.4" font-family="Helvetica,sans-Serif" font-size="12.00" fill="white">StaticString</text>
</a>
</g>
</g>
<!-- String -->
<g id="node3" class="node"><title>String</title>
<g id="a_node3"><a xlink:href="/type/String/" xlink:title="String">
<polygon fill="#999999" stroke="#999999" points="192,-22 138,-22 138,-0 192,-0 192,-22"/>
<text text-anchor="middle" x="165" y="-7.4" font-family="Helvetica,sans-Serif" font-size="12.00" fill="white">String</text>
</a>
</g>
</g>
<!-- StringLiteralConvertible&#45;&gt;StaticString -->
<g id="edge1" class="edge"><title>StringLiteralConvertible&#45;&gt;StaticString</title>
<path fill="none" stroke="#cccccc" d="M116.849,-57.9883C111.399,-50.3592 103.743,-39.6405 97.193,-30.4702"/>
<polygon fill="#cccccc" stroke="#cccccc" points="100.02,-28.4069 91.3599,-22.3039 94.3243,-32.4756 100.02,-28.4069"/>
</g>
<!-- StringLiteralConvertible&#45;&gt;String -->
<g id="edge2" class="edge"><title>StringLiteralConvertible&#45;&gt;String</title>
<path fill="none" stroke="#cccccc" d="M131.33,-57.9883C136.916,-50.3592 144.763,-39.6405 151.477,-30.4702"/>
<polygon fill="#cccccc" stroke="#cccccc" points="154.373,-32.4401 157.456,-22.3039 148.725,-28.3049 154.373,-32.4401"/>
</g>
<!-- UnicodeScalarLiteralConvertible -->
<g id="node5" class="node"><title>UnicodeScalarLiteralConvertible</title>
<g id="a_node5"><a xlink:href="/protocol/UnicodeScalarLiteralConvertible/" xlink:title="UnicodeScalarLiteralConvertible">
<path fill="#999999" stroke="#999999" d="M207.233,-196C207.233,-196 40.7673,-196 40.7673,-196 37.1006,-196 33.4339,-192.333 33.4339,-188.667 33.4339,-188.667 33.4339,-181.333 33.4339,-181.333 33.4339,-177.667 37.1006,-174 40.7673,-174 40.7673,-174 207.233,-174 207.233,-174 210.899,-174 214.566,-177.667 214.566,-181.333 214.566,-181.333 214.566,-188.667 214.566,-188.667 214.566,-192.333 210.899,-196 207.233,-196"/>
<text text-anchor="middle" x="124" y="-181.4" font-family="Helvetica,sans-Serif" font-size="12.00" fill="white">UnicodeScalarLiteralConvertible</text>
</a>
</g>
</g>
<!-- UnicodeScalarLiteralConvertible&#45;&gt;ExtendedGraphemeClusterLiteralConvertible -->
<g id="edge4" class="edge"><title>UnicodeScalarLiteralConvertible&#45;&gt;ExtendedGraphemeClusterLiteralConvertible</title>
<path fill="none" stroke="#cccccc" d="M124,-173.988C124,-166.91 124,-157.171 124,-148.478"/>
<polygon fill="#cccccc" stroke="#cccccc" points="127.5,-148.304 124,-138.304 120.5,-148.304 127.5,-148.304"/>
</g>
</g>
</svg>
