<?xml version="1.0" encoding="UTF-8" standalone="no"?>
<!DOCTYPE svg PUBLIC "-//W3C//DTD SVG 1.1//EN"
 "http://www.w3.org/Graphics/SVG/1.1/DTD/svg11.dtd">
<!-- Generated by graphviz version 2.36.0 (20140111.2315)
 -->
<!-- Title: SequenceType &#45; Type Hierarchy &#45; SwiftDoc.org Pages: 1 -->
<svg width="6143pt" height="427pt"
 viewBox="0.00 0.00 6143.40 427.20" xmlns="http://www.w3.org/2000/svg" xmlns:xlink="http://www.w3.org/1999/xlink">
<g id="graph0" class="graph" transform="scale(1 1) rotate(0) translate(7.2 369.6)">
<g transform="translate(0 -369.6)">
<g>
    <path fill="#666666" d="M13.846,10.832c-0.336-0.464-0.792-0.844-1.368-1.14s-1.224-0.444-1.944-0.444
        c-0.384,0-0.772,0.052-1.164,0.156C8.977,9.509,8.622,9.677,8.301,9.908c-0.32,0.232-0.58,0.52-0.78,0.864
        c-0.2,0.344-0.3,0.756-0.3,1.236c0,0.464,0.092,0.852,0.276,1.164c0.184,0.312,0.432,0.576,0.744,0.792s0.68,0.4,1.104,0.552
        c0.423,0.152,0.876,0.309,1.356,0.468c0.576,0.177,1.16,0.376,1.752,0.601c0.592,0.224,1.128,0.52,1.608,0.888
        s0.872,0.828,1.176,1.38s0.456,1.252,0.456,2.101c0,0.88-0.164,1.644-0.492,2.292c-0.328,0.647-0.765,1.184-1.308,1.607
        c-0.544,0.424-1.172,0.74-1.884,0.948s-1.444,0.312-2.196,0.312c-1.072,0-2.108-0.208-3.108-0.624
        c-1-0.415-1.828-1.031-2.484-1.848l1.848-1.56c0.4,0.592,0.936,1.071,1.608,1.439c0.672,0.368,1.399,0.552,2.184,0.552
        c0.4,0,0.8-0.056,1.2-0.168c0.4-0.111,0.764-0.288,1.092-0.527c0.328-0.24,0.596-0.54,0.804-0.9
        c0.208-0.36,0.312-0.796,0.312-1.308s-0.108-0.94-0.324-1.284c-0.216-0.344-0.508-0.636-0.876-0.876s-0.796-0.444-1.284-0.612
        c-0.488-0.168-1.004-0.34-1.548-0.516c-0.544-0.16-1.08-0.356-1.608-0.588c-0.528-0.232-1-0.528-1.416-0.889
        c-0.416-0.359-0.752-0.804-1.008-1.332c-0.256-0.527-0.384-1.184-0.384-1.968c0-0.848,0.172-1.576,0.516-2.184
        c0.344-0.608,0.792-1.112,1.344-1.512c0.552-0.4,1.176-0.692,1.872-0.876c0.696-0.184,1.396-0.276,2.1-0.276
        c0.992,0,1.92,0.176,2.784,0.528c0.864,0.352,1.56,0.824,2.088,1.416L13.846,10.832z"/>
    <path fill="#666666" d="M18.813,13.304l2.568,8.688h0.048l2.712-8.688h2.376l2.76,8.688h0.048l2.568-8.688h2.376L30.501,24.68
        h-2.352l-2.808-8.544h-0.048l-2.784,8.544h-2.352l-3.792-11.376H18.813z"/>
    <path fill="#666666" d="M38.685,9.2c0,0.416-0.147,0.76-0.44,1.032c-0.294,0.272-0.647,0.408-1.06,0.408s-0.762-0.14-1.047-0.42
        c-0.286-0.28-0.429-0.62-0.429-1.02c0-0.416,0.143-0.764,0.429-1.044c0.286-0.28,0.635-0.42,1.047-0.42s0.766,0.14,1.06,0.42
        C38.538,8.437,38.685,8.784,38.685,9.2z M38.325,24.68h-2.256V13.304h2.256V24.68z"/>
    <path fill="#666666" d="M47.613,15.152h-2.64v9.528h-2.256v-9.528h-2.256v-1.848h2.256v-2.376c0-0.672,0.076-1.292,0.228-1.86
        c0.152-0.568,0.4-1.06,0.744-1.476c0.344-0.416,0.784-0.744,1.32-0.984c0.536-0.24,1.188-0.36,1.956-0.36
        c0.544,0,1.016,0.056,1.416,0.168l-0.264,1.944c-0.176-0.048-0.352-0.088-0.528-0.12c-0.176-0.032-0.376-0.048-0.6-0.048
        c-0.432,0-0.78,0.076-1.044,0.228c-0.264,0.152-0.468,0.356-0.612,0.612s-0.24,0.548-0.288,0.876
        c-0.048,0.328-0.072,0.668-0.072,1.02v2.376h2.64V15.152z"/>
    <path fill="#666666" d="M54.909,15.152h-3.024v5.91c0,0.687,0.128,1.177,0.384,1.472c0.256,0.295,0.664,0.442,1.224,0.442
        c0.208,0,0.432-0.021,0.672-0.065c0.24-0.044,0.456-0.11,0.648-0.198l0.072,1.848c-0.272,0.096-0.572,0.172-0.9,0.229
        c-0.328,0.056-0.668,0.084-1.02,0.084c-1.072,0-1.892-0.296-2.46-0.889c-0.568-0.592-0.852-1.479-0.852-2.664v-6.168h-2.184
        v-1.848h2.184V10.04h2.232v3.264h3.024V15.152z"/>
    <path fill="#666666" d="M57.356,7.688h5.832c1.088,0,2.176,0.16,3.264,0.48c1.088,0.32,2.072,0.824,2.952,1.512
        s1.592,1.568,2.136,2.64c0.544,1.072,0.816,2.36,0.816,3.864c0,1.456-0.272,2.716-0.816,3.78s-1.256,1.943-2.136,2.64
        s-1.864,1.216-2.952,1.561c-1.088,0.344-2.176,0.516-3.264,0.516h-5.832V7.688z M59.732,22.593h2.976
        c1.024,0,1.972-0.145,2.844-0.432c0.872-0.288,1.624-0.704,2.256-1.248c0.632-0.544,1.124-1.216,1.476-2.017
        c0.352-0.8,0.528-1.704,0.528-2.712c0-1.056-0.176-1.983-0.528-2.784c-0.353-0.8-0.844-1.468-1.476-2.004
        c-0.632-0.536-1.384-0.944-2.256-1.224s-1.82-0.42-2.844-0.42h-2.976V22.593z"/>
    <path fill="#666666" d="M86.06,18.969c0,0.88-0.156,1.688-0.468,2.424c-0.312,0.736-0.744,1.372-1.296,1.908
        c-0.552,0.536-1.204,0.952-1.956,1.248c-0.752,0.296-1.56,0.443-2.424,0.443c-0.864,0-1.672-0.147-2.424-0.443
        c-0.752-0.296-1.4-0.712-1.944-1.248c-0.544-0.536-0.972-1.172-1.284-1.908c-0.312-0.735-0.468-1.544-0.468-2.424
        s0.156-1.684,0.468-2.412c0.312-0.728,0.74-1.356,1.284-1.884c0.543-0.528,1.191-0.939,1.944-1.236
        c0.752-0.296,1.56-0.444,2.424-0.444c0.864,0,1.672,0.148,2.424,0.444c0.752,0.297,1.404,0.708,1.956,1.236
        c0.552,0.527,0.984,1.156,1.296,1.884C85.904,17.285,86.06,18.089,86.06,18.969z M83.708,18.98c0-0.542-0.084-1.061-0.252-1.556
        c-0.169-0.494-0.414-0.929-0.734-1.304s-0.718-0.674-1.192-0.897s-1.015-0.335-1.625-0.335c-0.61,0-1.152,0.111-1.625,0.335
        c-0.474,0.224-0.871,0.522-1.191,0.897c-0.321,0.375-0.566,0.81-0.734,1.304C76.184,17.92,76.1,18.438,76.1,18.98
        c0,0.543,0.084,1.062,0.253,1.556c0.168,0.495,0.413,0.934,0.734,1.316c0.321,0.383,0.718,0.686,1.191,0.909
        c0.473,0.224,1.015,0.335,1.625,0.335c0.61,0,1.151-0.111,1.625-0.335s0.871-0.526,1.192-0.909s0.565-0.821,0.734-1.316
        C83.624,20.042,83.708,19.523,83.708,18.98z"/>
    <path fill="#666666" d="M96.428,16.184c-0.24-0.368-0.6-0.676-1.08-0.924s-0.992-0.372-1.536-0.372
        c-0.592,0-1.116,0.112-1.572,0.336c-0.456,0.225-0.844,0.524-1.164,0.9c-0.32,0.376-0.564,0.812-0.732,1.308
        s-0.252,1.017-0.252,1.56c0,0.545,0.084,1.064,0.252,1.561s0.412,0.933,0.732,1.308c0.32,0.376,0.712,0.677,1.176,0.9
        c0.464,0.225,0.992,0.336,1.584,0.336c0.576,0,1.1-0.111,1.572-0.336c0.472-0.224,0.86-0.528,1.164-0.912l1.512,1.368
        c-0.48,0.561-1.08,0.996-1.8,1.308c-0.72,0.312-1.536,0.468-2.448,0.468c-0.88,0-1.692-0.144-2.436-0.432
        c-0.744-0.288-1.388-0.691-1.932-1.212c-0.544-0.52-0.972-1.147-1.284-1.884s-0.468-1.561-0.468-2.473
        c0-0.896,0.152-1.711,0.456-2.447c0.304-0.736,0.728-1.368,1.272-1.896c0.543-0.527,1.188-0.936,1.932-1.224
        c0.744-0.288,1.548-0.433,2.412-0.433c0.8,0,1.596,0.16,2.388,0.48s1.419,0.784,1.884,1.392L96.428,16.184z"/>
    <path fill="#666666" d="M103.1,23.24c0,0.417-0.152,0.784-0.456,1.104c-0.304,0.32-0.688,0.479-1.152,0.479
        c-0.448,0-0.828-0.155-1.14-0.468c-0.312-0.312-0.468-0.676-0.468-1.092c0-0.432,0.152-0.804,0.456-1.116
        c0.304-0.312,0.688-0.468,1.152-0.468c0.464,0,0.848,0.152,1.152,0.456C102.947,22.44,103.1,22.808,103.1,23.24z"/>
    <path fill="#666666" d="M116.635,18.969c0,0.88-0.156,1.688-0.468,2.424c-0.312,0.736-0.744,1.372-1.296,1.908
        c-0.552,0.536-1.204,0.952-1.956,1.248c-0.752,0.296-1.56,0.443-2.424,0.443c-0.864,0-1.672-0.147-2.424-0.443
        c-0.752-0.296-1.4-0.712-1.944-1.248c-0.544-0.536-0.972-1.172-1.284-1.908c-0.312-0.735-0.468-1.544-0.468-2.424
        s0.156-1.684,0.468-2.412c0.312-0.728,0.74-1.356,1.284-1.884c0.543-0.528,1.191-0.939,1.944-1.236
        c0.752-0.296,1.56-0.444,2.424-0.444c0.864,0,1.672,0.148,2.424,0.444c0.752,0.297,1.404,0.708,1.956,1.236
        c0.552,0.527,0.984,1.156,1.296,1.884C116.479,17.285,116.635,18.089,116.635,18.969z M114.283,18.98
        c0-0.542-0.084-1.061-0.252-1.556c-0.169-0.494-0.414-0.929-0.734-1.304s-0.718-0.674-1.192-0.897s-1.015-0.335-1.625-0.335
        c-0.61,0-1.152,0.111-1.625,0.335c-0.474,0.224-0.871,0.522-1.191,0.897c-0.321,0.375-0.566,0.81-0.734,1.304
        c-0.169,0.495-0.253,1.014-0.253,1.556c0,0.543,0.084,1.062,0.253,1.556c0.168,0.495,0.413,0.934,0.734,1.316
        c0.321,0.383,0.718,0.686,1.191,0.909c0.473,0.224,1.015,0.335,1.625,0.335c0.61,0,1.151-0.111,1.625-0.335
        s0.871-0.526,1.192-0.909s0.565-0.821,0.734-1.316C114.199,20.042,114.283,19.523,114.283,18.98z"/>
    <path fill="#666666" d="M119.251,14.577c-0.016-0.48-0.04-0.904-0.072-1.272h2.136c0.032,0.288,0.056,0.62,0.072,0.996
        c0.016,0.376,0.024,0.684,0.024,0.924h0.072c0.32-0.672,0.788-1.212,1.404-1.62c0.616-0.408,1.308-0.612,2.076-0.612
        c0.352,0,0.648,0.033,0.888,0.097l-0.096,2.088c-0.32-0.08-0.664-0.12-1.032-0.12c-0.544,0-1.016,0.101-1.416,0.3
        c-0.4,0.2-0.732,0.468-0.996,0.805c-0.264,0.336-0.46,0.724-0.588,1.163c-0.128,0.44-0.192,0.9-0.192,1.381v5.976h-2.256v-8.928
        C119.275,15.449,119.267,15.056,119.251,14.577z"/>
    <path fill="#666666" d="M128.419,26.625c0.496,0.56,1.116,1.008,1.86,1.344c0.744,0.336,1.508,0.504,2.292,0.504
        c0.752,0,1.384-0.108,1.896-0.324s0.924-0.512,1.236-0.888s0.536-0.82,0.672-1.332c0.136-0.513,0.204-1.064,0.204-1.656v-1.464
        h-0.048c-0.416,0.641-0.984,1.128-1.704,1.464c-0.72,0.336-1.488,0.504-2.304,0.504c-0.864,0-1.652-0.151-2.364-0.456
        c-0.712-0.304-1.316-0.72-1.812-1.248c-0.496-0.527-0.88-1.147-1.152-1.859s-0.408-1.477-0.408-2.292
        c0-0.816,0.136-1.584,0.408-2.305c0.272-0.72,0.656-1.348,1.152-1.884c0.496-0.535,1.096-0.96,1.8-1.271
        c0.704-0.312,1.488-0.469,2.352-0.469c0.816,0,1.596,0.177,2.34,0.528c0.744,0.353,1.332,0.888,1.764,1.608h0.048v-1.824h2.184
        v10.8c0,0.832-0.104,1.628-0.312,2.388c-0.208,0.76-0.56,1.433-1.056,2.017s-1.144,1.052-1.944,1.404
        c-0.8,0.352-1.792,0.527-2.976,0.527c-0.992,0-1.988-0.18-2.988-0.54c-1-0.359-1.86-0.868-2.58-1.523L128.419,26.625z
         M129.091,18.873c0,0.527,0.084,1.031,0.253,1.512c0.168,0.479,0.417,0.904,0.746,1.271c0.329,0.369,0.726,0.664,1.192,0.889
        c0.465,0.224,0.995,0.336,1.589,0.336c0.577,0,1.107-0.104,1.589-0.312c0.481-0.207,0.891-0.491,1.228-0.852
        s0.598-0.784,0.782-1.272c0.185-0.487,0.277-1.012,0.277-1.571c0-0.544-0.093-1.057-0.277-1.536
        c-0.185-0.48-0.449-0.904-0.794-1.272c-0.345-0.367-0.755-0.66-1.228-0.876c-0.474-0.216-1-0.324-1.577-0.324
        c-0.594,0-1.124,0.108-1.589,0.324c-0.466,0.216-0.863,0.504-1.192,0.864s-0.578,0.784-0.746,1.271
        C129.175,17.812,129.091,18.329,129.091,18.873z"/>
</g>
<g><a xlink:href="/" pointer-events="all" target="_top"><polygon fill="none" points="0,0 145,0 145,35 0,35 0,0"/></a></g>

</g>


<!-- AnyBidirectionalCollection -->
<g id="node1" class="node">
<g id="a_node1"><a xlink:href="/v2.2/type/AnyBidirectionalCollection/hierarchy/" target="_top">
<polygon fill="#999999" stroke="#999999" points="2542.05,-22 2393.95,-22 2393.95,-0 2542.05,-0 2542.05,-22"/>
<text text-anchor="middle" x="2468" y="-7.4" font-family="Helvetica,sans-Serif" font-size="12.00" fill="white">AnyBidirectionalCollection</text>
</a>
</g>
</g>
<!-- AnyCollectionType -->
<g id="node2" class="node">
<g id="a_node2"><a xlink:href="/v2.2/protocol/AnyCollectionType/hierarchy/" target="_top">
<path fill="#999999" stroke="#999999" d="M2263.21,-80C2263.21,-80 2168.79,-80 2168.79,-80 2165.12,-80 2161.46,-76.3333 2161.46,-72.6667 2161.46,-72.6667 2161.46,-65.3333 2161.46,-65.3333 2161.46,-61.6667 2165.12,-58 2168.79,-58 2168.79,-58 2263.21,-58 2263.21,-58 2266.88,-58 2270.54,-61.6667 2270.54,-65.3333 2270.54,-65.3333 2270.54,-72.6667 2270.54,-72.6667 2270.54,-76.3333 2266.88,-80 2263.21,-80"/>
<text text-anchor="middle" x="2216" y="-65.4" font-family="Helvetica,sans-Serif" font-size="12.00" fill="white">AnyCollectionType</text>
</a>
</g>
</g>
<!-- AnyCollectionType&#45;&gt;AnyBidirectionalCollection -->
<g id="edge40" class="edge">
<path fill="none" stroke="#cccccc" d="M2261.05,-57.9883C2303.56,-48.5412 2367.4,-34.3563 2412.92,-24.2407"/>
<polygon fill="#cccccc" stroke="#cccccc" points="2413.91,-27.6053 2422.91,-22.0192 2412.39,-20.772 2413.91,-27.6053"/>
</g>
<!-- AnyForwardCollection -->
<g id="node3" class="node">
<g id="a_node3"><a xlink:href="/v2.2/type/AnyForwardCollection/hierarchy/" target="_top">
<polygon fill="#999999" stroke="#999999" points="2190.54,-22 2063.46,-22 2063.46,-0 2190.54,-0 2190.54,-22"/>
<text text-anchor="middle" x="2127" y="-7.4" font-family="Helvetica,sans-Serif" font-size="12.00" fill="white">AnyForwardCollection</text>
</a>
</g>
</g>
<!-- AnyCollectionType&#45;&gt;AnyForwardCollection -->
<g id="edge41" class="edge">
<path fill="none" stroke="#cccccc" d="M2200.09,-57.9883C2186.63,-49.5201 2167.12,-37.2452 2151.64,-27.5067"/>
<polygon fill="#cccccc" stroke="#cccccc" points="2153.4,-24.4771 2143.07,-22.1138 2149.67,-30.4018 2153.4,-24.4771"/>
</g>
<!-- AnyRandomAccessCollection -->
<g id="node5" class="node">
<g id="a_node5"><a xlink:href="/v2.2/type/AnyRandomAccessCollection/hierarchy/" target="_top">
<polygon fill="#999999" stroke="#999999" points="2375.55,-22 2208.45,-22 2208.45,-0 2375.55,-0 2375.55,-22"/>
<text text-anchor="middle" x="2292" y="-7.4" font-family="Helvetica,sans-Serif" font-size="12.00" fill="white">AnyRandomAccessCollection</text>
</a>
</g>
</g>
<!-- AnyCollectionType&#45;&gt;AnyRandomAccessCollection -->
<g id="edge42" class="edge">
<path fill="none" stroke="#cccccc" d="M2229.59,-57.9883C2240.86,-49.6784 2257.12,-37.7028 2270.21,-28.0554"/>
<polygon fill="#cccccc" stroke="#cccccc" points="2272.3,-30.8635 2278.27,-22.1138 2268.15,-25.2281 2272.3,-30.8635"/>
</g>
<!-- AnyGenerator -->
<g id="node4" class="node">
<g id="a_node4"><a xlink:href="/v2.2/type/AnyGenerator/hierarchy/" target="_top">
<polygon fill="#999999" stroke="#999999" points="84.0314,-22 -0.0313876,-22 -0.0313876,-0 84.0314,-0 84.0314,-22"/>
<text text-anchor="middle" x="42" y="-7.4" font-family="Helvetica,sans-Serif" font-size="12.00" fill="white">AnyGenerator</text>
</a>
</g>
</g>
<!-- AnySequence -->
<g id="node6" class="node">
<g id="a_node6"><a xlink:href="/v2.2/type/AnySequence/hierarchy/" target="_top">
<polygon fill="#999999" stroke="#999999" points="187.044,-22 102.956,-22 102.956,-0 187.044,-0 187.044,-22"/>
<text text-anchor="middle" x="145" y="-7.4" font-family="Helvetica,sans-Serif" font-size="12.00" fill="white">AnySequence</text>
</a>
</g>
</g>
<!-- Array -->
<g id="node7" class="node">
<g id="a_node7"><a xlink:href="/v2.2/type/Array/hierarchy/" target="_top">
<polygon fill="#999999" stroke="#999999" points="607,-22 553,-22 553,-0 607,-0 607,-22"/>
<text text-anchor="middle" x="580" y="-7.4" font-family="Helvetica,sans-Serif" font-size="12.00" fill="white">Array</text>
</a>
</g>
</g>
<!-- ArraySlice -->
<g id="node8" class="node">
<g id="a_node8"><a xlink:href="/v2.2/type/ArraySlice/hierarchy/" target="_top">
<polygon fill="#999999" stroke="#999999" points="689.011,-22 624.989,-22 624.989,-0 689.011,-0 689.011,-22"/>
<text text-anchor="middle" x="657" y="-7.4" font-family="Helvetica,sans-Serif" font-size="12.00" fill="white">ArraySlice</text>
</a>
</g>
</g>
<!-- CollectionOfOne -->
<g id="node9" class="node">
<g id="a_node9"><a xlink:href="/v2.2/type/CollectionOfOne/hierarchy/" target="_top">
<polygon fill="#999999" stroke="#999999" points="2658.03,-22 2559.97,-22 2559.97,-0 2658.03,-0 2658.03,-22"/>
<text text-anchor="middle" x="2609" y="-7.4" font-family="Helvetica,sans-Serif" font-size="12.00" fill="white">CollectionOfOne</text>
</a>
</g>
</g>
<!-- CollectionType -->
<g id="node10" class="node">
<g id="a_node10"><a xlink:href="/v2.2/protocol/CollectionType/hierarchy/" target="_top">
<path fill="#999999" stroke="#999999" d="M1902.7,-254C1902.7,-254 1829.3,-254 1829.3,-254 1825.63,-254 1821.96,-250.333 1821.96,-246.667 1821.96,-246.667 1821.96,-239.333 1821.96,-239.333 1821.96,-235.667 1825.63,-232 1829.3,-232 1829.3,-232 1902.7,-232 1902.7,-232 1906.37,-232 1910.04,-235.667 1910.04,-239.333 1910.04,-239.333 1910.04,-246.667 1910.04,-246.667 1910.04,-250.333 1906.37,-254 1902.7,-254"/>
<text text-anchor="middle" x="1866" y="-239.4" font-family="Helvetica,sans-Serif" font-size="12.00" fill="white">CollectionType</text>
</a>
</g>
</g>
<!-- CollectionType&#45;&gt;AnyCollectionType -->
<g id="edge22" class="edge">
<path fill="none" stroke="#cccccc" d="M1886.59,-231.883C1945.79,-202.791 2116.66,-118.819 2186.11,-84.6872"/>
<polygon fill="#cccccc" stroke="#cccccc" points="2187.79,-87.7644 2195.22,-80.2127 2184.7,-81.4821 2187.79,-87.7644"/>
</g>
<!-- CollectionType&#45;&gt;CollectionOfOne -->
<g id="edge23" class="edge">
<path fill="none" stroke="#cccccc" d="M1898.4,-231.969C2017.63,-195.061 2432.01,-66.7885 2566.5,-25.1577"/>
<polygon fill="#cccccc" stroke="#cccccc" points="2567.91,-28.3842 2576.43,-22.0835 2565.84,-21.6972 2567.91,-28.3842"/>
</g>
<!-- Dictionary -->
<g id="node12" class="node">
<g id="a_node12"><a xlink:href="/v2.2/type/Dictionary/hierarchy/" target="_top">
<polygon fill="#999999" stroke="#999999" points="2739.51,-22 2676.49,-22 2676.49,-0 2739.51,-0 2739.51,-22"/>
<text text-anchor="middle" x="2708" y="-7.4" font-family="Helvetica,sans-Serif" font-size="12.00" fill="white">Dictionary</text>
</a>
</g>
</g>
<!-- CollectionType&#45;&gt;Dictionary -->
<g id="edge24" class="edge">
<path fill="none" stroke="#cccccc" d="M1910.36,-232.288C1950.38,-223.371 2010.81,-209.528 2063,-196 2292.63,-136.474 2565.24,-55.1687 2667.01,-24.441"/>
<polygon fill="#cccccc" stroke="#cccccc" points="2668.04,-27.7858 2676.6,-21.5422 2666.02,-21.0851 2668.04,-27.7858"/>
</g>
<!-- DictionaryLiteral -->
<g id="node13" class="node">
<g id="a_node13"><a xlink:href="/v2.2/type/DictionaryLiteral/hierarchy/" target="_top">
<polygon fill="#999999" stroke="#999999" points="2854.02,-22 2757.98,-22 2757.98,-0 2854.02,-0 2854.02,-22"/>
<text text-anchor="middle" x="2806" y="-7.4" font-family="Helvetica,sans-Serif" font-size="12.00" fill="white">DictionaryLiteral</text>
</a>
</g>
</g>
<!-- CollectionType&#45;&gt;DictionaryLiteral -->
<g id="edge25" class="edge">
<path fill="none" stroke="#cccccc" d="M1910.2,-234.996C1960.5,-226.77 2045.03,-212.177 2117,-196 2363.28,-140.639 2654.3,-56.7497 2762.58,-24.8887"/>
<polygon fill="#cccccc" stroke="#cccccc" points="2763.58,-28.2436 2772.18,-22.0593 2761.6,-21.5292 2763.58,-28.2436"/>
</g>
<!-- EmptyCollection -->
<g id="node14" class="node">
<g id="a_node14"><a xlink:href="/v2.2/type/EmptyCollection/hierarchy/" target="_top">
<polygon fill="#999999" stroke="#999999" points="2968.03,-22 2871.97,-22 2871.97,-0 2968.03,-0 2968.03,-22"/>
<text text-anchor="middle" x="2920" y="-7.4" font-family="Helvetica,sans-Serif" font-size="12.00" fill="white">EmptyCollection</text>
</a>
</g>
</g>
<!-- CollectionType&#45;&gt;EmptyCollection -->
<g id="edge26" class="edge">
<path fill="none" stroke="#cccccc" d="M1910.19,-236.653C1970.04,-229.122 2080.06,-214.25 2173,-196 2441.44,-143.292 2758.5,-57.1433 2874.55,-24.8029"/>
<polygon fill="#cccccc" stroke="#cccccc" points="2875.81,-28.0847 2884.5,-22.0242 2873.93,-21.3426 2875.81,-28.0847"/>
</g>
<!-- FlattenBidirectionalCollection -->
<g id="node18" class="node">
<g id="a_node18"><a xlink:href="/v2.2/type/FlattenBidirectionalCollection/hierarchy/" target="_top">
<polygon fill="#999999" stroke="#999999" points="3151.06,-22 2986.94,-22 2986.94,-0 3151.06,-0 3151.06,-22"/>
<text text-anchor="middle" x="3069" y="-7.4" font-family="Helvetica,sans-Serif" font-size="12.00" fill="white">FlattenBidirectionalCollection</text>
</a>
</g>
</g>
<!-- CollectionType&#45;&gt;FlattenBidirectionalCollection -->
<g id="edge27" class="edge">
<path fill="none" stroke="#cccccc" d="M1910.12,-237.92C1980.13,-231.14 2120.83,-216.27 2239,-196 2538.2,-144.676 2892.4,-57.0491 3020.08,-24.5838"/>
<polygon fill="#cccccc" stroke="#cccccc" points="3021.13,-27.9299 3029.95,-22.0693 3019.4,-21.1466 3021.13,-27.9299"/>
</g>
<!-- FlattenCollection -->
<g id="node19" class="node">
<g id="a_node19"><a xlink:href="/v2.2/type/FlattenCollection/hierarchy/" target="_top">
<polygon fill="#999999" stroke="#999999" points="3268.53,-22 3169.47,-22 3169.47,-0 3268.53,-0 3268.53,-22"/>
<text text-anchor="middle" x="3219" y="-7.4" font-family="Helvetica,sans-Serif" font-size="12.00" fill="white">FlattenCollection</text>
</a>
</g>
</g>
<!-- CollectionType&#45;&gt;FlattenCollection -->
<g id="edge28" class="edge">
<path fill="none" stroke="#cccccc" d="M1910.28,-238.772C1990.35,-232.634 2164.4,-217.906 2310,-196 2638.92,-146.514 3028.91,-57.0776 3167.23,-24.3912"/>
<polygon fill="#cccccc" stroke="#cccccc" points="3168.21,-27.7555 3177.13,-22.0454 3166.59,-20.9439 3168.21,-27.7555"/>
</g>
<!-- LazyCollectionType -->
<g id="node27" class="node">
<g id="a_node27"><a xlink:href="/v2.2/protocol/LazyCollectionType/hierarchy/" target="_top">
<path fill="#999999" stroke="#999999" d="M4252.71,-80C4252.71,-80 4153.29,-80 4153.29,-80 4149.62,-80 4145.95,-76.3333 4145.95,-72.6667 4145.95,-72.6667 4145.95,-65.3333 4145.95,-65.3333 4145.95,-61.6667 4149.62,-58 4153.29,-58 4153.29,-58 4252.71,-58 4252.71,-58 4256.38,-58 4260.05,-61.6667 4260.05,-65.3333 4260.05,-65.3333 4260.05,-72.6667 4260.05,-72.6667 4260.05,-76.3333 4256.38,-80 4252.71,-80"/>
<text text-anchor="middle" x="4203" y="-65.4" font-family="Helvetica,sans-Serif" font-size="12.00" fill="white">LazyCollectionType</text>
</a>
</g>
</g>
<!-- CollectionType&#45;&gt;LazyCollectionType -->
<g id="edge29" class="edge">
<path fill="none" stroke="#cccccc" d="M1910.05,-242.046C2080.6,-241.9 2713.8,-238.36 3233,-196 3573.76,-168.199 3978.48,-106.196 4135.8,-80.9811"/>
<polygon fill="#cccccc" stroke="#cccccc" points="4136.49,-84.4163 4145.8,-79.3742 4135.38,-77.5049 4136.49,-84.4163"/>
</g>
<!-- MutableCollectionType -->
<g id="node36" class="node">
<g id="a_node36"><a xlink:href="/v2.2/protocol/MutableCollectionType/hierarchy/" target="_top">
<path fill="#999999" stroke="#999999" d="M482.221,-196C482.221,-196 365.779,-196 365.779,-196 362.112,-196 358.446,-192.333 358.446,-188.667 358.446,-188.667 358.446,-181.333 358.446,-181.333 358.446,-177.667 362.112,-174 365.779,-174 365.779,-174 482.221,-174 482.221,-174 485.888,-174 489.554,-177.667 489.554,-181.333 489.554,-181.333 489.554,-188.667 489.554,-188.667 489.554,-192.333 485.888,-196 482.221,-196"/>
<text text-anchor="middle" x="424" y="-181.4" font-family="Helvetica,sans-Serif" font-size="12.00" fill="white">MutableCollectionType</text>
</a>
</g>
</g>
<!-- CollectionType&#45;&gt;MutableCollectionType -->
<g id="edge30" class="edge">
<path fill="none" stroke="#cccccc" d="M1821.71,-240.975C1656.36,-237.033 1059.45,-221.765 568,-196 545.856,-194.839 521.815,-193.286 499.836,-191.75"/>
<polygon fill="#cccccc" stroke="#cccccc" points="499.785,-188.238 489.563,-191.024 499.292,-195.221 499.785,-188.238"/>
</g>
<!-- Range -->
<g id="node40" class="node">
<g id="a_node40"><a xlink:href="/v2.2/type/Range/hierarchy/" target="_top">
<polygon fill="#999999" stroke="#999999" points="535,-22 481,-22 481,-0 535,-0 535,-22"/>
<text text-anchor="middle" x="508" y="-7.4" font-family="Helvetica,sans-Serif" font-size="12.00" fill="white">Range</text>
</a>
</g>
</g>
<!-- CollectionType&#45;&gt;Range -->
<g id="edge31" class="edge">
<path fill="none" stroke="#cccccc" d="M1821.57,-242.408C1700.1,-242.886 1352.57,-239.982 1068,-196 861.332,-164.059 803.447,-164.141 612,-80 580.862,-66.3147 548.63,-43.6929 528.462,-28.3335"/>
<polygon fill="#cccccc" stroke="#cccccc" points="530.393,-25.4019 520.344,-22.0443 526.106,-30.9355 530.393,-25.4019"/>
</g>
<!-- RangeReplaceableCollectionType -->
<g id="node42" class="node">
<g id="a_node42"><a xlink:href="/v2.2/protocol/RangeReplaceableCollectionType/hierarchy/" target="_top">
<path fill="#999999" stroke="#999999" d="M1042.76,-138C1042.76,-138 867.24,-138 867.24,-138 863.573,-138 859.906,-134.333 859.906,-130.667 859.906,-130.667 859.906,-123.333 859.906,-123.333 859.906,-119.667 863.573,-116 867.24,-116 867.24,-116 1042.76,-116 1042.76,-116 1046.43,-116 1050.09,-119.667 1050.09,-123.333 1050.09,-123.333 1050.09,-130.667 1050.09,-130.667 1050.09,-134.333 1046.43,-138 1042.76,-138"/>
<text text-anchor="middle" x="955" y="-123.4" font-family="Helvetica,sans-Serif" font-size="12.00" fill="white">RangeReplaceableCollectionType</text>
</a>
</g>
</g>
<!-- CollectionType&#45;&gt;RangeReplaceableCollectionType -->
<g id="edge32" class="edge">
<path fill="none" stroke="#cccccc" d="M1821.51,-240.776C1685.44,-236.777 1276.2,-222.788 1146,-196 1087.77,-184.019 1023.23,-158.246 986.059,-142.096"/>
<polygon fill="#cccccc" stroke="#cccccc" points="987.336,-138.834 976.773,-138.014 984.519,-145.242 987.336,-138.834"/>
</g>
<!-- Repeat -->
<g id="node43" class="node">
<g id="a_node43"><a xlink:href="/v2.2/type/Repeat/hierarchy/" target="_top">
<polygon fill="#999999" stroke="#999999" points="1187,-22 1133,-22 1133,-0 1187,-0 1187,-22"/>
<text text-anchor="middle" x="1160" y="-7.4" font-family="Helvetica,sans-Serif" font-size="12.00" fill="white">Repeat</text>
</a>
</g>
</g>
<!-- CollectionType&#45;&gt;Repeat -->
<g id="edge33" class="edge">
<path fill="none" stroke="#cccccc" d="M1821.91,-237.249C1768.46,-230.842 1675.97,-217.666 1599,-196 1437.88,-150.65 1256.92,-61.8847 1188.36,-26.7884"/>
<polygon fill="#cccccc" stroke="#cccccc" points="1189.57,-23.4747 1179.08,-22.0112 1186.37,-29.699 1189.57,-23.4747"/>
</g>
<!-- Set -->
<g id="node47" class="node">
<g id="a_node47"><a xlink:href="/v2.2/type/Set/hierarchy/" target="_top">
<polygon fill="#999999" stroke="#999999" points="1259,-22 1205,-22 1205,-0 1259,-0 1259,-22"/>
<text text-anchor="middle" x="1232" y="-7.4" font-family="Helvetica,sans-Serif" font-size="12.00" fill="white">Set</text>
</a>
</g>
</g>
<!-- CollectionType&#45;&gt;Set -->
<g id="edge34" class="edge">
<path fill="none" stroke="#cccccc" d="M1821.87,-234.245C1780.35,-226.424 1716.72,-213.079 1663,-196 1506.7,-146.311 1329.3,-60.784 1260.95,-26.6704"/>
<polygon fill="#cccccc" stroke="#cccccc" points="1262.18,-23.3722 1251.68,-22.0207 1259.05,-29.6303 1262.18,-23.3722"/>
</g>
<!-- Slice -->
<g id="node48" class="node">
<g id="a_node48"><a xlink:href="/v2.2/type/Slice/hierarchy/" target="_top">
<polygon fill="#999999" stroke="#999999" points="1331,-22 1277,-22 1277,-0 1331,-0 1331,-22"/>
<text text-anchor="middle" x="1304" y="-7.4" font-family="Helvetica,sans-Serif" font-size="12.00" fill="white">Slice</text>
</a>
</g>
</g>
<!-- CollectionType&#45;&gt;Slice -->
<g id="edge35" class="edge">
<path fill="none" stroke="#cccccc" d="M1829.15,-231.956C1798.75,-223.35 1754.64,-210.135 1717,-196 1569.92,-140.758 1400.36,-59.419 1333.39,-26.561"/>
<polygon fill="#cccccc" stroke="#cccccc" points="1334.78,-23.3471 1324.26,-22.0737 1331.69,-29.6283 1334.78,-23.3471"/>
</g>
<!-- String.UTF16View -->
<g id="node52" class="node">
<g id="a_node52"><a xlink:href="/v2.2/type/String.UTF16View/hierarchy/" target="_top">
<polygon fill="#999999" stroke="#999999" points="1456.37,-22 1349.63,-22 1349.63,-0 1456.37,-0 1456.37,-22"/>
<text text-anchor="middle" x="1403" y="-7.4" font-family="Helvetica,sans-Serif" font-size="12.00" fill="white">String.UTF16View</text>
</a>
</g>
</g>
<!-- CollectionType&#45;&gt;String.UTF16View -->
<g id="edge38" class="edge">
<path fill="none" stroke="#cccccc" d="M1842.76,-231.899C1821.99,-222.78 1790.79,-208.861 1764,-196 1638.49,-135.754 1491.28,-58.6877 1430.94,-26.8158"/>
<polygon fill="#cccccc" stroke="#cccccc" points="1432.49,-23.6784 1422.02,-22.0981 1429.22,-29.8666 1432.49,-23.6784"/>
</g>
<!-- String.UTF8View -->
<g id="node53" class="node">
<g id="a_node53"><a xlink:href="/v2.2/type/String.UTF8View/hierarchy/" target="_top">
<polygon fill="#999999" stroke="#999999" points="1575.36,-22 1474.64,-22 1474.64,-0 1575.36,-0 1575.36,-22"/>
<text text-anchor="middle" x="1525" y="-7.4" font-family="Helvetica,sans-Serif" font-size="12.00" fill="white">String.UTF8View</text>
</a>
</g>
</g>
<!-- CollectionType&#45;&gt;String.UTF8View -->
<g id="edge39" class="edge">
<path fill="none" stroke="#cccccc" d="M1850.91,-231.82C1796.99,-195.452 1613.62,-71.7707 1548.32,-27.7304"/>
<polygon fill="#cccccc" stroke="#cccccc" points="1550.17,-24.7522 1539.92,-22.062 1546.25,-30.5555 1550.17,-24.7522"/>
</g>
<!-- UnsafeBufferPointer -->
<g id="node55" class="node">
<g id="a_node55"><a xlink:href="/v2.2/type/UnsafeBufferPointer/hierarchy/" target="_top">
<polygon fill="#999999" stroke="#999999" points="1710.39,-22 1593.61,-22 1593.61,-0 1710.39,-0 1710.39,-22"/>
<text text-anchor="middle" x="1652" y="-7.4" font-family="Helvetica,sans-Serif" font-size="12.00" fill="white">UnsafeBufferPointer</text>
</a>
</g>
</g>
<!-- CollectionType&#45;&gt;UnsafeBufferPointer -->
<g id="edge36" class="edge">
<path fill="none" stroke="#cccccc" d="M1856.53,-231.82C1823.11,-195.899 1710.42,-74.7927 1668.18,-29.3871"/>
<polygon fill="#cccccc" stroke="#cccccc" points="1670.74,-26.999 1661.36,-22.062 1665.61,-31.7673 1670.74,-26.999"/>
</g>
<!-- _ReverseCollectionType -->
<g id="node61" class="node">
<g id="a_node61"><a xlink:href="/v2.2/protocol/_ReverseCollectionType/hierarchy/" target="_top">
<path fill="#999999" stroke="#999999" d="M1928.72,-80C1928.72,-80 1803.28,-80 1803.28,-80 1799.61,-80 1795.95,-76.3333 1795.95,-72.6667 1795.95,-72.6667 1795.95,-65.3333 1795.95,-65.3333 1795.95,-61.6667 1799.61,-58 1803.28,-58 1803.28,-58 1928.72,-58 1928.72,-58 1932.39,-58 1936.05,-61.6667 1936.05,-65.3333 1936.05,-65.3333 1936.05,-72.6667 1936.05,-72.6667 1936.05,-76.3333 1932.39,-80 1928.72,-80"/>
<text text-anchor="middle" x="1866" y="-65.4" font-family="Helvetica,sans-Serif" font-size="12.00" fill="white">_ReverseCollectionType</text>
</a>
</g>
</g>
<!-- CollectionType&#45;&gt;_ReverseCollectionType -->
<g id="edge37" class="edge">
<path fill="none" stroke="#cccccc" d="M1866,-231.756C1866,-204.097 1866,-127.509 1866,-90.5186"/>
<polygon fill="#cccccc" stroke="#cccccc" points="1869.5,-90.408 1866,-80.4081 1862.5,-90.4081 1869.5,-90.408"/>
</g>
<!-- ContiguousArray -->
<g id="node11" class="node">
<g id="a_node11"><a xlink:href="/v2.2/type/ContiguousArray/hierarchy/" target="_top">
<polygon fill="#999999" stroke="#999999" points="806.534,-22 707.466,-22 707.466,-0 806.534,-0 806.534,-22"/>
<text text-anchor="middle" x="757" y="-7.4" font-family="Helvetica,sans-Serif" font-size="12.00" fill="white">ContiguousArray</text>
</a>
</g>
</g>
<!-- EmptyGenerator -->
<g id="node15" class="node">
<g id="a_node15"><a xlink:href="/v2.2/type/EmptyGenerator/hierarchy/" target="_top">
<polygon fill="#999999" stroke="#999999" points="3385.03,-22 3286.97,-22 3286.97,-0 3385.03,-0 3385.03,-22"/>
<text text-anchor="middle" x="3336" y="-7.4" font-family="Helvetica,sans-Serif" font-size="12.00" fill="white">EmptyGenerator</text>
</a>
</g>
</g>
<!-- EnumerateGenerator -->
<g id="node16" class="node">
<g id="a_node16"><a xlink:href="/v2.2/type/EnumerateGenerator/hierarchy/" target="_top">
<polygon fill="#999999" stroke="#999999" points="3525.05,-22 3402.95,-22 3402.95,-0 3525.05,-0 3525.05,-22"/>
<text text-anchor="middle" x="3464" y="-7.4" font-family="Helvetica,sans-Serif" font-size="12.00" fill="white">EnumerateGenerator</text>
</a>
</g>
</g>
<!-- EnumerateSequence -->
<g id="node17" class="node">
<g id="a_node17"><a xlink:href="/v2.2/type/EnumerateSequence/hierarchy/" target="_top">
<polygon fill="#999999" stroke="#999999" points="3666.06,-22 3543.94,-22 3543.94,-0 3666.06,-0 3666.06,-22"/>
<text text-anchor="middle" x="3605" y="-7.4" font-family="Helvetica,sans-Serif" font-size="12.00" fill="white">EnumerateSequence</text>
</a>
</g>
</g>
<!-- FlattenGenerator -->
<g id="node20" class="node">
<g id="a_node20"><a xlink:href="/v2.2/type/FlattenGenerator/hierarchy/" target="_top">
<polygon fill="#999999" stroke="#999999" points="3785.04,-22 3684.96,-22 3684.96,-0 3785.04,-0 3785.04,-22"/>
<text text-anchor="middle" x="3735" y="-7.4" font-family="Helvetica,sans-Serif" font-size="12.00" fill="white">FlattenGenerator</text>
</a>
</g>
</g>
<!-- FlattenSequence -->
<g id="node21" class="node">
<g id="a_node21"><a xlink:href="/v2.2/type/FlattenSequence/hierarchy/" target="_top">
<polygon fill="#999999" stroke="#999999" points="3904.05,-22 3803.95,-22 3803.95,-0 3904.05,-0 3904.05,-22"/>
<text text-anchor="middle" x="3854" y="-7.4" font-family="Helvetica,sans-Serif" font-size="12.00" fill="white">FlattenSequence</text>
</a>
</g>
</g>
<!-- GeneratorOfOne -->
<g id="node22" class="node">
<g id="a_node22"><a xlink:href="/v2.2/type/GeneratorOfOne/hierarchy/" target="_top">
<polygon fill="#999999" stroke="#999999" points="4021.53,-22 3922.47,-22 3922.47,-0 4021.53,-0 4021.53,-22"/>
<text text-anchor="middle" x="3972" y="-7.4" font-family="Helvetica,sans-Serif" font-size="12.00" fill="white">GeneratorOfOne</text>
</a>
</g>
</g>
<!-- GeneratorSequence -->
<g id="node23" class="node">
<g id="a_node23"><a xlink:href="/v2.2/type/GeneratorSequence/hierarchy/" target="_top">
<polygon fill="#999999" stroke="#999999" points="4526.06,-22 4407.94,-22 4407.94,-0 4526.06,-0 4526.06,-22"/>
<text text-anchor="middle" x="4467" y="-7.4" font-family="Helvetica,sans-Serif" font-size="12.00" fill="white">GeneratorSequence</text>
</a>
</g>
</g>
<!-- IndexingGenerator -->
<g id="node24" class="node">
<g id="a_node24"><a xlink:href="/v2.2/type/IndexingGenerator/hierarchy/" target="_top">
<polygon fill="#999999" stroke="#999999" points="4653.55,-22 4544.45,-22 4544.45,-0 4653.55,-0 4653.55,-22"/>
<text text-anchor="middle" x="4599" y="-7.4" font-family="Helvetica,sans-Serif" font-size="12.00" fill="white">IndexingGenerator</text>
</a>
</g>
</g>
<!-- JoinSequence -->
<g id="node25" class="node">
<g id="a_node25"><a xlink:href="/v2.2/type/JoinSequence/hierarchy/" target="_top">
<polygon fill="#999999" stroke="#999999" points="4758.05,-22 4671.95,-22 4671.95,-0 4758.05,-0 4758.05,-22"/>
<text text-anchor="middle" x="4715" y="-7.4" font-family="Helvetica,sans-Serif" font-size="12.00" fill="white">JoinSequence</text>
</a>
</g>
</g>
<!-- LazyCollection -->
<g id="node26" class="node">
<g id="a_node26"><a xlink:href="/v2.2/type/LazyCollection/hierarchy/" target="_top">
<polygon fill="#999999" stroke="#999999" points="4128.03,-22 4039.97,-22 4039.97,-0 4128.03,-0 4128.03,-22"/>
<text text-anchor="middle" x="4084" y="-7.4" font-family="Helvetica,sans-Serif" font-size="12.00" fill="white">LazyCollection</text>
</a>
</g>
</g>
<!-- LazyCollectionType&#45;&gt;LazyCollection -->
<g id="edge43" class="edge">
<path fill="none" stroke="#cccccc" d="M4181.73,-57.9883C4163.06,-49.2036 4135.68,-36.3222 4114.65,-26.4255"/>
<polygon fill="#cccccc" stroke="#cccccc" points="4116.03,-23.205 4105.49,-22.1138 4113.05,-29.5387 4116.03,-23.205"/>
</g>
<!-- LazyFilterCollection -->
<g id="node28" class="node">
<g id="a_node28"><a xlink:href="/v2.2/type/LazyFilterCollection/hierarchy/" target="_top">
<polygon fill="#999999" stroke="#999999" points="4260.03,-22 4145.97,-22 4145.97,-0 4260.03,-0 4260.03,-22"/>
<text text-anchor="middle" x="4203" y="-7.4" font-family="Helvetica,sans-Serif" font-size="12.00" fill="white">LazyFilterCollection</text>
</a>
</g>
</g>
<!-- LazyCollectionType&#45;&gt;LazyFilterCollection -->
<g id="edge44" class="edge">
<path fill="none" stroke="#cccccc" d="M4203,-57.9883C4203,-50.9098 4203,-41.1714 4203,-32.4779"/>
<polygon fill="#cccccc" stroke="#cccccc" points="4206.5,-32.3038 4203,-22.3039 4199.5,-32.3039 4206.5,-32.3038"/>
</g>
<!-- LazyMapCollection -->
<g id="node31" class="node">
<g id="a_node31"><a xlink:href="/v2.2/type/LazyMapCollection/hierarchy/" target="_top">
<polygon fill="#999999" stroke="#999999" points="4389.54,-22 4278.46,-22 4278.46,-0 4389.54,-0 4389.54,-22"/>
<text text-anchor="middle" x="4334" y="-7.4" font-family="Helvetica,sans-Serif" font-size="12.00" fill="white">LazyMapCollection</text>
</a>
</g>
</g>
<!-- LazyCollectionType&#45;&gt;LazyMapCollection -->
<g id="edge45" class="edge">
<path fill="none" stroke="#cccccc" d="M4226.42,-57.9883C4247.16,-49.1244 4277.65,-36.0897 4300.88,-26.1587"/>
<polygon fill="#cccccc" stroke="#cccccc" points="4302.52,-29.2629 4310.34,-22.1138 4299.77,-22.8263 4302.52,-29.2629"/>
</g>
<!-- LazyFilterGenerator -->
<g id="node29" class="node">
<g id="a_node29"><a xlink:href="/v2.2/type/LazyFilterGenerator/hierarchy/" target="_top">
<polygon fill="#999999" stroke="#999999" points="4892.03,-22 4775.97,-22 4775.97,-0 4892.03,-0 4892.03,-22"/>
<text text-anchor="middle" x="4834" y="-7.4" font-family="Helvetica,sans-Serif" font-size="12.00" fill="white">LazyFilterGenerator</text>
</a>
</g>
</g>
<!-- LazyFilterSequence -->
<g id="node30" class="node">
<g id="a_node30"><a xlink:href="/v2.2/type/LazyFilterSequence/hierarchy/" target="_top">
<polygon fill="#999999" stroke="#999999" points="5156.05,-22 5039.95,-22 5039.95,-0 5156.05,-0 5156.05,-22"/>
<text text-anchor="middle" x="5098" y="-7.4" font-family="Helvetica,sans-Serif" font-size="12.00" fill="white">LazyFilterSequence</text>
</a>
</g>
</g>
<!-- LazyMapGenerator -->
<g id="node32" class="node">
<g id="a_node32"><a xlink:href="/v2.2/type/LazyMapGenerator/hierarchy/" target="_top">
<polygon fill="#999999" stroke="#999999" points="5022.04,-22 4909.96,-22 4909.96,-0 5022.04,-0 5022.04,-22"/>
<text text-anchor="middle" x="4966" y="-7.4" font-family="Helvetica,sans-Serif" font-size="12.00" fill="white">LazyMapGenerator</text>
</a>
</g>
</g>
<!-- LazyMapSequence -->
<g id="node33" class="node">
<g id="a_node33"><a xlink:href="/v2.2/type/LazyMapSequence/hierarchy/" target="_top">
<polygon fill="#999999" stroke="#999999" points="5286.05,-22 5173.95,-22 5173.95,-0 5286.05,-0 5286.05,-22"/>
<text text-anchor="middle" x="5230" y="-7.4" font-family="Helvetica,sans-Serif" font-size="12.00" fill="white">LazyMapSequence</text>
</a>
</g>
</g>
<!-- LazySequence -->
<g id="node34" class="node">
<g id="a_node34"><a xlink:href="/v2.2/type/LazySequence/hierarchy/" target="_top">
<polygon fill="#999999" stroke="#999999" points="5393.55,-22 5304.45,-22 5304.45,-0 5393.55,-0 5393.55,-22"/>
<text text-anchor="middle" x="5349" y="-7.4" font-family="Helvetica,sans-Serif" font-size="12.00" fill="white">LazySequence</text>
</a>
</g>
</g>
<!-- LazySequenceType -->
<g id="node35" class="node">
<g id="a_node35"><a xlink:href="/v2.2/protocol/LazySequenceType/hierarchy/" target="_top">
<path fill="#999999" stroke="#999999" d="M5148.23,-138C5148.23,-138 5047.77,-138 5047.77,-138 5044.11,-138 5040.44,-134.333 5040.44,-130.667 5040.44,-130.667 5040.44,-123.333 5040.44,-123.333 5040.44,-119.667 5044.11,-116 5047.77,-116 5047.77,-116 5148.23,-116 5148.23,-116 5151.89,-116 5155.56,-119.667 5155.56,-123.333 5155.56,-123.333 5155.56,-130.667 5155.56,-130.667 5155.56,-134.333 5151.89,-138 5148.23,-138"/>
<text text-anchor="middle" x="5098" y="-123.4" font-family="Helvetica,sans-Serif" font-size="12.00" fill="white">LazySequenceType</text>
</a>
</g>
</g>
<!-- LazySequenceType&#45;&gt;LazyCollectionType -->
<g id="edge59" class="edge">
<path fill="none" stroke="#cccccc" d="M5040.31,-122.39C4881.67,-112.464 4439.44,-84.7941 4270.13,-74.2001"/>
<polygon fill="#cccccc" stroke="#cccccc" points="4270.3,-70.7039 4260.1,-73.5725 4269.86,-77.6903 4270.3,-70.7039"/>
</g>
<!-- LazySequenceType&#45;&gt;LazyFilterSequence -->
<g id="edge60" class="edge">
<path fill="none" stroke="#cccccc" d="M5098,-115.883C5098,-97.1703 5098,-56.8266 5098,-32.2866"/>
<polygon fill="#cccccc" stroke="#cccccc" points="5101.5,-32.2579 5098,-22.2579 5094.5,-32.258 5101.5,-32.2579"/>
</g>
<!-- LazySequenceType&#45;&gt;LazyMapSequence -->
<g id="edge61" class="edge">
<path fill="none" stroke="#cccccc" d="M5109.71,-115.883C5132.36,-96.3273 5182.35,-53.1482 5210.23,-29.07"/>
<polygon fill="#cccccc" stroke="#cccccc" points="5212.84,-31.4431 5218.12,-22.2579 5208.27,-26.1453 5212.84,-31.4431"/>
</g>
<!-- LazySequenceType&#45;&gt;LazySequence -->
<g id="edge62" class="edge">
<path fill="none" stroke="#cccccc" d="M5120.27,-115.883C5165.02,-95.5596 5265.95,-49.7217 5317.46,-26.3252"/>
<polygon fill="#cccccc" stroke="#cccccc" points="5319.12,-29.4161 5326.78,-22.0941 5316.22,-23.0427 5319.12,-29.4161"/>
</g>
<!-- MutableSlice -->
<g id="node37" class="node">
<g id="a_node37"><a xlink:href="/v2.2/type/MutableSlice/hierarchy/" target="_top">
<polygon fill="#999999" stroke="#999999" points="463.027,-22 384.973,-22 384.973,-0 463.027,-0 463.027,-22"/>
<text text-anchor="middle" x="424" y="-7.4" font-family="Helvetica,sans-Serif" font-size="12.00" fill="white">MutableSlice</text>
</a>
</g>
</g>
<!-- MutableCollectionType&#45;&gt;MutableSlice -->
<g id="edge46" class="edge">
<path fill="none" stroke="#cccccc" d="M424,-173.756C424,-146.097 424,-69.5091 424,-32.5186"/>
<polygon fill="#cccccc" stroke="#cccccc" points="427.5,-32.408 424,-22.4081 420.5,-32.4081 427.5,-32.408"/>
</g>
<!-- MutableSliceable -->
<g id="node38" class="node">
<g id="a_node38"><a xlink:href="/v2.2/protocol/MutableSliceable/hierarchy/" target="_top">
<path fill="#999999" stroke="#999999" d="M546.208,-138C546.208,-138 459.792,-138 459.792,-138 456.126,-138 452.459,-134.333 452.459,-130.667 452.459,-130.667 452.459,-123.333 452.459,-123.333 452.459,-119.667 456.126,-116 459.792,-116 459.792,-116 546.208,-116 546.208,-116 549.874,-116 553.541,-119.667 553.541,-123.333 553.541,-123.333 553.541,-130.667 553.541,-130.667 553.541,-134.333 549.874,-138 546.208,-138"/>
<text text-anchor="middle" x="503" y="-123.4" font-family="Helvetica,sans-Serif" font-size="12.00" fill="white">MutableSliceable</text>
</a>
</g>
</g>
<!-- MutableCollectionType&#45;&gt;MutableSliceable -->
<g id="edge47" class="edge">
<path fill="none" stroke="#cccccc" d="M438.124,-173.988C449.847,-165.678 466.741,-153.703 480.35,-144.055"/>
<polygon fill="#cccccc" stroke="#cccccc" points="482.598,-146.752 488.732,-138.114 478.55,-141.042 482.598,-146.752"/>
</g>
<!-- UnsafeMutableBufferPointer -->
<g id="node57" class="node">
<g id="a_node57"><a xlink:href="/v2.2/type/UnsafeMutableBufferPointer/hierarchy/" target="_top">
<polygon fill="#999999" stroke="#999999" points="365.905,-22 206.095,-22 206.095,-0 365.905,-0 365.905,-22"/>
<text text-anchor="middle" x="286" y="-7.4" font-family="Helvetica,sans-Serif" font-size="12.00" fill="white">UnsafeMutableBufferPointer</text>
</a>
</g>
</g>
<!-- MutableCollectionType&#45;&gt;UnsafeMutableBufferPointer -->
<g id="edge48" class="edge">
<path fill="none" stroke="#cccccc" d="M415.781,-173.756C393.207,-145.621 330.01,-66.8536 300.956,-30.6411"/>
<polygon fill="#cccccc" stroke="#cccccc" points="303.339,-28.0176 294.351,-22.4081 297.879,-32.3982 303.339,-28.0176"/>
</g>
<!-- _ArrayBufferType -->
<g id="node59" class="node">
<g id="a_node59"><a xlink:href="/v2.2/protocol/_ArrayBufferType/hierarchy/" target="_top">
<path fill="#999999" stroke="#999999" d="M309.044,-138C309.044,-138 220.956,-138 220.956,-138 217.29,-138 213.623,-134.333 213.623,-130.667 213.623,-130.667 213.623,-123.333 213.623,-123.333 213.623,-119.667 217.29,-116 220.956,-116 220.956,-116 309.044,-116 309.044,-116 312.71,-116 316.377,-119.667 316.377,-123.333 316.377,-123.333 316.377,-130.667 316.377,-130.667 316.377,-134.333 312.71,-138 309.044,-138"/>
<text text-anchor="middle" x="265" y="-123.4" font-family="Helvetica,sans-Serif" font-size="12.00" fill="white">_ArrayBufferType</text>
</a>
</g>
</g>
<!-- MutableCollectionType&#45;&gt;_ArrayBufferType -->
<g id="edge49" class="edge">
<path fill="none" stroke="#cccccc" d="M395.574,-173.988C369.765,-164.898 331.503,-151.422 303.061,-141.405"/>
<polygon fill="#cccccc" stroke="#cccccc" points="304.042,-138.04 293.448,-138.019 301.717,-144.643 304.042,-138.04"/>
</g>
<!-- _ArrayType -->
<g id="node60" class="node">
<g id="a_node60"><a xlink:href="/v2.2/protocol/_ArrayType/hierarchy/" target="_top">
<path fill="#999999" stroke="#999999" d="M685.19,-80C685.19,-80 628.81,-80 628.81,-80 625.144,-80 621.477,-76.3333 621.477,-72.6667 621.477,-72.6667 621.477,-65.3333 621.477,-65.3333 621.477,-61.6667 625.144,-58 628.81,-58 628.81,-58 685.19,-58 685.19,-58 688.856,-58 692.523,-61.6667 692.523,-65.3333 692.523,-65.3333 692.523,-72.6667 692.523,-72.6667 692.523,-76.3333 688.856,-80 685.19,-80"/>
<text text-anchor="middle" x="657" y="-65.4" font-family="Helvetica,sans-Serif" font-size="12.00" fill="white">_ArrayType</text>
</a>
</g>
</g>
<!-- MutableSliceable&#45;&gt;_ArrayType -->
<g id="edge50" class="edge">
<path fill="none" stroke="#cccccc" d="M530.532,-115.988C555.42,-106.938 592.265,-93.5399 619.774,-83.5367"/>
<polygon fill="#cccccc" stroke="#cccccc" points="621.245,-86.726 629.447,-80.0192 618.853,-80.1475 621.245,-86.726"/>
</g>
<!-- PermutationGenerator -->
<g id="node39" class="node">
<g id="a_node39"><a xlink:href="/v2.2/type/PermutationGenerator/hierarchy/" target="_top">
<polygon fill="#999999" stroke="#999999" points="5540.05,-22 5411.95,-22 5411.95,-0 5540.05,-0 5540.05,-22"/>
<text text-anchor="middle" x="5476" y="-7.4" font-family="Helvetica,sans-Serif" font-size="12.00" fill="white">PermutationGenerator</text>
</a>
</g>
</g>
<!-- RangeGenerator -->
<g id="node41" class="node">
<g id="a_node41"><a xlink:href="/v2.2/type/RangeGenerator/hierarchy/" target="_top">
<polygon fill="#999999" stroke="#999999" points="5657.54,-22 5558.46,-22 5558.46,-0 5657.54,-0 5657.54,-22"/>
<text text-anchor="middle" x="5608" y="-7.4" font-family="Helvetica,sans-Serif" font-size="12.00" fill="white">RangeGenerator</text>
</a>
</g>
</g>
<!-- String.CharacterView -->
<g id="node51" class="node">
<g id="a_node51"><a xlink:href="/v2.2/type/String.CharacterView/hierarchy/" target="_top">
<polygon fill="#999999" stroke="#999999" points="1114.38,-22 991.624,-22 991.624,-0 1114.38,-0 1114.38,-22"/>
<text text-anchor="middle" x="1053" y="-7.4" font-family="Helvetica,sans-Serif" font-size="12.00" fill="white">String.CharacterView</text>
</a>
</g>
</g>
<!-- RangeReplaceableCollectionType&#45;&gt;String.CharacterView -->
<g id="edge55" class="edge">
<path fill="none" stroke="#cccccc" d="M963.697,-115.883C980.291,-96.5802 1016.67,-54.2609 1037.51,-30.0135"/>
<polygon fill="#cccccc" stroke="#cccccc" points="1040.32,-32.1227 1044.18,-22.2579 1035.01,-27.5595 1040.32,-32.1227"/>
</g>
<!-- String.UnicodeScalarView -->
<g id="node54" class="node">
<g id="a_node54"><a xlink:href="/v2.2/type/String.UnicodeScalarView/hierarchy/" target="_top">
<polygon fill="#999999" stroke="#999999" points="972.892,-22 825.108,-22 825.108,-0 972.892,-0 972.892,-22"/>
<text text-anchor="middle" x="899" y="-7.4" font-family="Helvetica,sans-Serif" font-size="12.00" fill="white">String.UnicodeScalarView</text>
</a>
</g>
</g>
<!-- RangeReplaceableCollectionType&#45;&gt;String.UnicodeScalarView -->
<g id="edge56" class="edge">
<path fill="none" stroke="#cccccc" d="M950.03,-115.883C940.714,-96.9174 920.483,-55.7323 908.481,-31.3004"/>
<polygon fill="#cccccc" stroke="#cccccc" points="911.59,-29.6903 904.039,-22.2579 905.307,-32.7767 911.59,-29.6903"/>
</g>
<!-- RangeReplaceableCollectionType&#45;&gt;_ArrayType -->
<g id="edge54" class="edge">
<path fill="none" stroke="#cccccc" d="M901.724,-115.988C844.947,-105.319 756.012,-88.6063 702.433,-78.5377"/>
<polygon fill="#cccccc" stroke="#cccccc" points="703.007,-75.0843 692.532,-76.6772 701.714,-81.9639 703.007,-75.0843"/>
</g>
<!-- ReverseCollection -->
<g id="node44" class="node">
<g id="a_node44"><a xlink:href="/v2.2/type/ReverseCollection/hierarchy/" target="_top">
<polygon fill="#999999" stroke="#999999" points="1836.53,-22 1729.47,-22 1729.47,-0 1836.53,-0 1836.53,-22"/>
<text text-anchor="middle" x="1783" y="-7.4" font-family="Helvetica,sans-Serif" font-size="12.00" fill="white">ReverseCollection</text>
</a>
</g>
</g>
<!-- ReverseRandomAccessCollection -->
<g id="node45" class="node">
<g id="a_node45"><a xlink:href="/v2.2/type/ReverseRandomAccessCollection/hierarchy/" target="_top">
<polygon fill="#999999" stroke="#999999" points="2045.56,-22 1854.44,-22 1854.44,-0 2045.56,-0 2045.56,-22"/>
<text text-anchor="middle" x="1950" y="-7.4" font-family="Helvetica,sans-Serif" font-size="12.00" fill="white">ReverseRandomAccessCollection</text>
</a>
</g>
</g>
<!-- SequenceType -->
<g id="node46" class="node">
<g id="a_node46"><a xlink:href="/v2.2/protocol/SequenceType/" target="_top">
<path fill="#ee543d" stroke="#ee543d" d="M4636.72,-312C4636.72,-312 4561.28,-312 4561.28,-312 4557.62,-312 4553.95,-308.333 4553.95,-304.667 4553.95,-304.667 4553.95,-297.333 4553.95,-297.333 4553.95,-293.667 4557.62,-290 4561.28,-290 4561.28,-290 4636.72,-290 4636.72,-290 4640.38,-290 4644.05,-293.667 4644.05,-297.333 4644.05,-297.333 4644.05,-304.667 4644.05,-304.667 4644.05,-308.333 4640.38,-312 4636.72,-312"/>
<text text-anchor="middle" x="4599" y="-297.4" font-family="Helvetica,sans-Serif" font-size="12.00" fill="white">SequenceType</text>
</a>
</g>
</g>
<!-- SequenceType&#45;&gt;AnyGenerator -->
<g id="edge1" class="edge">
<path fill="none" stroke="#cccccc" d="M4553.85,-299.926C4131.35,-299.18 876.591,-292.211 447,-254 265.198,-237.829 42,-368.52 42,-186 42,-186 42,-186 42,-126 42,-93.1536 42,-54.9837 42,-32.197"/>
<polygon fill="#cccccc" stroke="#cccccc" points="45.5001,-32.0648 42,-22.0648 38.5001,-32.0648 45.5001,-32.0648"/>
</g>
<!-- SequenceType&#45;&gt;AnySequence -->
<g id="edge2" class="edge">
<path fill="none" stroke="#cccccc" d="M4553.83,-300.073C4086.2,-300.688 145,-302.42 145,-186 145,-186 145,-186 145,-126 145,-93.1536 145,-54.9837 145,-32.197"/>
<polygon fill="#cccccc" stroke="#cccccc" points="148.5,-32.0648 145,-22.0648 141.5,-32.0648 148.5,-32.0648"/>
</g>
<!-- SequenceType&#45;&gt;CollectionType -->
<g id="edge3" class="edge">
<path fill="none" stroke="#cccccc" d="M4553.84,-299.075C4230.74,-292.454 2273.01,-252.34 1920.39,-245.115"/>
<polygon fill="#cccccc" stroke="#cccccc" points="1920.26,-241.611 1910.19,-244.905 1920.12,-248.61 1920.26,-241.611"/>
</g>
<!-- SequenceType&#45;&gt;EmptyGenerator -->
<g id="edge4" class="edge">
<path fill="none" stroke="#cccccc" d="M4553.74,-299.739C4377.44,-298.461 3736.55,-291.293 3537,-254 3444.3,-236.675 3336,-280.307 3336,-186 3336,-186 3336,-186 3336,-126 3336,-93.1536 3336,-54.9837 3336,-32.197"/>
<polygon fill="#cccccc" stroke="#cccccc" points="3339.5,-32.0648 3336,-22.0648 3332.5,-32.0648 3339.5,-32.0648"/>
</g>
<!-- SequenceType&#45;&gt;EnumerateGenerator -->
<g id="edge5" class="edge">
<path fill="none" stroke="#cccccc" d="M4553.81,-300.288C4342.71,-301.049 3464,-297.521 3464,-186 3464,-186 3464,-186 3464,-126 3464,-93.1536 3464,-54.9837 3464,-32.197"/>
<polygon fill="#cccccc" stroke="#cccccc" points="3467.5,-32.0648 3464,-22.0648 3460.5,-32.0648 3467.5,-32.0648"/>
</g>
<!-- SequenceType&#45;&gt;EnumerateSequence -->
<g id="edge6" class="edge">
<path fill="none" stroke="#cccccc" d="M4553.71,-299.633C4359.25,-297.47 3605,-282.838 3605,-186 3605,-186 3605,-186 3605,-126 3605,-93.1536 3605,-54.9837 3605,-32.197"/>
<polygon fill="#cccccc" stroke="#cccccc" points="3608.5,-32.0648 3605,-22.0648 3601.5,-32.0648 3608.5,-32.0648"/>
</g>
<!-- SequenceType&#45;&gt;FlattenGenerator -->
<g id="edge7" class="edge">
<path fill="none" stroke="#cccccc" d="M4553.76,-298.843C4375.99,-293.707 3735,-269.404 3735,-186 3735,-186 3735,-186 3735,-126 3735,-93.1536 3735,-54.9837 3735,-32.197"/>
<polygon fill="#cccccc" stroke="#cccccc" points="3738.5,-32.0648 3735,-22.0648 3731.5,-32.0648 3738.5,-32.0648"/>
</g>
<!-- SequenceType&#45;&gt;FlattenSequence -->
<g id="edge8" class="edge">
<path fill="none" stroke="#cccccc" d="M4553.8,-297.882C4392.39,-289.727 3854,-257.188 3854,-186 3854,-186 3854,-186 3854,-126 3854,-93.1536 3854,-54.9837 3854,-32.197"/>
<polygon fill="#cccccc" stroke="#cccccc" points="3857.5,-32.0648 3854,-22.0648 3850.5,-32.0648 3857.5,-32.0648"/>
</g>
<!-- SequenceType&#45;&gt;GeneratorOfOne -->
<g id="edge9" class="edge">
<path fill="none" stroke="#cccccc" d="M4553.91,-296.581C4410.14,-285.085 3972,-245.192 3972,-186 3972,-186 3972,-186 3972,-126 3972,-93.1536 3972,-54.9837 3972,-32.197"/>
<polygon fill="#cccccc" stroke="#cccccc" points="3975.5,-32.0648 3972,-22.0648 3968.5,-32.0648 3975.5,-32.0648"/>
</g>
<!-- SequenceType&#45;&gt;GeneratorSequence -->
<g id="edge10" class="edge">
<path fill="none" stroke="#cccccc" d="M4570.36,-289.974C4531.54,-274.341 4467,-240.201 4467,-186 4467,-186 4467,-186 4467,-126 4467,-93.1536 4467,-54.9837 4467,-32.197"/>
<polygon fill="#cccccc" stroke="#cccccc" points="4470.5,-32.0648 4467,-22.0648 4463.5,-32.0648 4470.5,-32.0648"/>
</g>
<!-- SequenceType&#45;&gt;IndexingGenerator -->
<g id="edge11" class="edge">
<path fill="none" stroke="#cccccc" d="M4599,-289.935C4599,-270.066 4599,-224.396 4599,-186 4599,-186 4599,-186 4599,-126 4599,-93.1536 4599,-54.9837 4599,-32.197"/>
<polygon fill="#cccccc" stroke="#cccccc" points="4602.5,-32.0648 4599,-22.0648 4595.5,-32.0648 4602.5,-32.0648"/>
</g>
<!-- SequenceType&#45;&gt;JoinSequence -->
<g id="edge12" class="edge">
<path fill="none" stroke="#cccccc" d="M4622.2,-289.948C4656.05,-273.526 4715,-237.531 4715,-186 4715,-186 4715,-186 4715,-126 4715,-93.1536 4715,-54.9837 4715,-32.197"/>
<polygon fill="#cccccc" stroke="#cccccc" points="4718.5,-32.0648 4715,-22.0648 4711.5,-32.0648 4718.5,-32.0648"/>
</g>
<!-- SequenceType&#45;&gt;LazyFilterGenerator -->
<g id="edge13" class="edge">
<path fill="none" stroke="#cccccc" d="M4644.03,-297.844C4712.27,-291.886 4834,-269.55 4834,-186 4834,-186 4834,-186 4834,-126 4834,-93.1536 4834,-54.9837 4834,-32.197"/>
<polygon fill="#cccccc" stroke="#cccccc" points="4837.5,-32.0648 4834,-22.0648 4830.5,-32.0648 4837.5,-32.0648"/>
</g>
<!-- SequenceType&#45;&gt;LazyMapGenerator -->
<g id="edge14" class="edge">
<path fill="none" stroke="#cccccc" d="M4644.37,-295.558C4742.56,-284.689 4966,-252.635 4966,-186 4966,-186 4966,-186 4966,-126 4966,-93.1536 4966,-54.9837 4966,-32.197"/>
<polygon fill="#cccccc" stroke="#cccccc" points="4969.5,-32.0648 4966,-22.0648 4962.5,-32.0648 4969.5,-32.0648"/>
</g>
<!-- SequenceType&#45;&gt;LazySequenceType -->
<g id="edge15" class="edge">
<path fill="none" stroke="#cccccc" d="M4644.06,-298.398C4731.81,-294.658 4922.13,-283.334 4980,-254 5028.99,-229.164 5068.32,-175.306 5086.71,-146.713"/>
<polygon fill="#cccccc" stroke="#cccccc" points="5089.78,-148.396 5092.12,-138.063 5083.85,-144.68 5089.78,-148.396"/>
</g>
<!-- SequenceType&#45;&gt;PermutationGenerator -->
<g id="edge16" class="edge">
<path fill="none" stroke="#cccccc" d="M4644.3,-298.931C4823.89,-294.102 5476,-270.734 5476,-186 5476,-186 5476,-186 5476,-126 5476,-93.1536 5476,-54.9837 5476,-32.197"/>
<polygon fill="#cccccc" stroke="#cccccc" points="5479.5,-32.0648 5476,-22.0648 5472.5,-32.0648 5479.5,-32.0648"/>
</g>
<!-- SequenceType&#45;&gt;RangeGenerator -->
<g id="edge17" class="edge">
<path fill="none" stroke="#cccccc" d="M4644.31,-299.711C4840.65,-297.872 5608,-284.391 5608,-186 5608,-186 5608,-186 5608,-126 5608,-93.1536 5608,-54.9837 5608,-32.197"/>
<polygon fill="#cccccc" stroke="#cccccc" points="5611.5,-32.0648 5608,-22.0648 5604.5,-32.0648 5611.5,-32.0648"/>
</g>
<!-- StrideThrough -->
<g id="node49" class="node">
<g id="a_node49"><a xlink:href="/v2.2/type/StrideThrough/hierarchy/" target="_top">
<polygon fill="#999999" stroke="#999999" points="5762.03,-22 5675.97,-22 5675.97,-0 5762.03,-0 5762.03,-22"/>
<text text-anchor="middle" x="5719" y="-7.4" font-family="Helvetica,sans-Serif" font-size="12.00" fill="white">StrideThrough</text>
</a>
</g>
</g>
<!-- SequenceType&#45;&gt;StrideThrough -->
<g id="edge18" class="edge">
<path fill="none" stroke="#cccccc" d="M4644.29,-300.226C4853.83,-300.688 5719,-295.94 5719,-186 5719,-186 5719,-186 5719,-126 5719,-93.1536 5719,-54.9837 5719,-32.197"/>
<polygon fill="#cccccc" stroke="#cccccc" points="5722.5,-32.0648 5719,-22.0648 5715.5,-32.0648 5722.5,-32.0648"/>
</g>
<!-- StrideTo -->
<g id="node50" class="node">
<g id="a_node50"><a xlink:href="/v2.2/type/StrideTo/hierarchy/" target="_top">
<polygon fill="#999999" stroke="#999999" points="5834.02,-22 5779.98,-22 5779.98,-0 5834.02,-0 5834.02,-22"/>
<text text-anchor="middle" x="5807" y="-7.4" font-family="Helvetica,sans-Serif" font-size="12.00" fill="white">StrideTo</text>
</a>
</g>
</g>
<!-- SequenceType&#45;&gt;StrideTo -->
<g id="edge19" class="edge">
<path fill="none" stroke="#cccccc" d="M4644.22,-299.845C4816.74,-298.962 5433.37,-293.082 5625,-254 5709.61,-236.745 5807,-272.35 5807,-186 5807,-186 5807,-186 5807,-126 5807,-93.1536 5807,-54.9837 5807,-32.197"/>
<polygon fill="#cccccc" stroke="#cccccc" points="5810.5,-32.0648 5807,-22.0648 5803.5,-32.0648 5810.5,-32.0648"/>
</g>
<!-- UnsafeBufferPointerGenerator -->
<g id="node56" class="node">
<g id="a_node56"><a xlink:href="/v2.2/type/UnsafeBufferPointerGenerator/hierarchy/" target="_top">
<polygon fill="#999999" stroke="#999999" points="6023.41,-22 5852.59,-22 5852.59,-0 6023.41,-0 6023.41,-22"/>
<text text-anchor="middle" x="5938" y="-7.4" font-family="Helvetica,sans-Serif" font-size="12.00" fill="white">UnsafeBufferPointerGenerator</text>
</a>
</g>
</g>
<!-- SequenceType&#45;&gt;UnsafeBufferPointerGenerator -->
<g id="edge20" class="edge">
<path fill="none" stroke="#cccccc" d="M4644.2,-299.708C4826.37,-298.291 5507.1,-290.605 5719,-254 5819.43,-236.651 5938,-287.917 5938,-186 5938,-186 5938,-186 5938,-126 5938,-93.1536 5938,-54.9837 5938,-32.197"/>
<polygon fill="#cccccc" stroke="#cccccc" points="5941.5,-32.0648 5938,-22.0648 5934.5,-32.0648 5941.5,-32.0648"/>
</g>
<!-- Zip2Sequence -->
<g id="node58" class="node">
<g id="a_node58"><a xlink:href="/v2.2/type/Zip2Sequence/hierarchy/" target="_top">
<polygon fill="#999999" stroke="#999999" points="6129.54,-22 6042.46,-22 6042.46,-0 6129.54,-0 6129.54,-22"/>
<text text-anchor="middle" x="6086" y="-7.4" font-family="Helvetica,sans-Serif" font-size="12.00" fill="white">Zip2Sequence</text>
</a>
</g>
</g>
<!-- SequenceType&#45;&gt;Zip2Sequence -->
<g id="edge21" class="edge">
<path fill="none" stroke="#cccccc" d="M4644.13,-299.686C4837.6,-298.127 5597.73,-289.804 5834,-254 5948.7,-236.619 6086,-302.006 6086,-186 6086,-186 6086,-186 6086,-126 6086,-93.1536 6086,-54.9837 6086,-32.197"/>
<polygon fill="#cccccc" stroke="#cccccc" points="6089.5,-32.0648 6086,-22.0648 6082.5,-32.0648 6089.5,-32.0648"/>
</g>
<!-- _ArrayType&#45;&gt;Array -->
<g id="edge51" class="edge">
<path fill="none" stroke="#cccccc" d="M643.234,-57.9883C631.808,-49.6784 615.341,-37.7028 602.076,-28.0554"/>
<polygon fill="#cccccc" stroke="#cccccc" points="604.052,-25.165 593.906,-22.1138 599.935,-30.8262 604.052,-25.165"/>
</g>
<!-- _ArrayType&#45;&gt;ArraySlice -->
<g id="edge52" class="edge">
<path fill="none" stroke="#cccccc" d="M657,-57.9883C657,-50.9098 657,-41.1714 657,-32.4779"/>
<polygon fill="#cccccc" stroke="#cccccc" points="660.5,-32.3038 657,-22.3039 653.5,-32.3039 660.5,-32.3038"/>
</g>
<!-- _ArrayType&#45;&gt;ContiguousArray -->
<g id="edge53" class="edge">
<path fill="none" stroke="#cccccc" d="M674.878,-57.9883C690.141,-49.441 712.33,-37.0155 729.796,-27.2343"/>
<polygon fill="#cccccc" stroke="#cccccc" points="731.925,-30.0537 738.94,-22.1138 728.504,-23.9461 731.925,-30.0537"/>
</g>
<!-- _ReverseCollectionType&#45;&gt;ReverseCollection -->
<g id="edge57" class="edge">
<path fill="none" stroke="#cccccc" d="M1851.16,-57.9883C1838.73,-49.5993 1820.76,-37.4743 1806.39,-27.7804"/>
<polygon fill="#cccccc" stroke="#cccccc" points="1808.24,-24.8055 1797.99,-22.1138 1804.32,-30.6083 1808.24,-24.8055"/>
</g>
<!-- _ReverseCollectionType&#45;&gt;ReverseRandomAccessCollection -->
<g id="edge58" class="edge">
<path fill="none" stroke="#cccccc" d="M1881.02,-57.9883C1893.6,-49.5993 1911.79,-37.4743 1926.33,-27.7804"/>
<polygon fill="#cccccc" stroke="#cccccc" points="1928.45,-30.573 1934.83,-22.1138 1924.57,-24.7487 1928.45,-30.573"/>
</g>
</g>
</svg>
