<?xml version="1.0" encoding="UTF-8" standalone="no"?>
<!DOCTYPE svg PUBLIC "-//W3C//DTD SVG 1.1//EN"
 "http://www.w3.org/Graphics/SVG/1.1/DTD/svg11.dtd">
<!-- Generated by graphviz version 2.36.0 (20140111.2315)
 -->
<!-- Title: HalfOpenInterval&lt;T : Comparable&gt; &#45; Type Hierarchy &#45; SwiftDoc.org Pages: 1 -->
<svg width="445pt" height="195pt"
 viewBox="0.00 0.00 445.40 195.20" xmlns="http://www.w3.org/2000/svg" xmlns:xlink="http://www.w3.org/1999/xlink">
<g id="graph0" class="graph" transform="scale(1 1) rotate(0) translate(7.2 137.6)">
<title>HalfOpenInterval&lt;T : Comparable&gt; &#45; Type Hierarchy &#45; SwiftDoc.org</title>
<polygon fill="white" stroke="none" points="-7.2,57.6 -7.2,-137.6 438.2,-137.6 438.2,57.6 -7.2,57.6"/>
<!-- DebugPrintable -->
<g id="node1" class="node"><title>DebugPrintable</title>
<g id="a_node1"><a xlink:href="/protocol/DebugPrintable/" xlink:title="DebugPrintable">
<path fill="#999999" stroke="#999999" d="M84.7096,-80C84.7096,-80 7.29039,-80 7.29039,-80 3.62372,-80 -0.0429445,-76.3333 -0.0429445,-72.6667 -0.0429445,-72.6667 -0.0429445,-65.3333 -0.0429445,-65.3333 -0.0429445,-61.6667 3.62372,-58 7.29039,-58 7.29039,-58 84.7096,-58 84.7096,-58 88.3763,-58 92.0429,-61.6667 92.0429,-65.3333 92.0429,-65.3333 92.0429,-72.6667 92.0429,-72.6667 92.0429,-76.3333 88.3763,-80 84.7096,-80"/>
<text text-anchor="middle" x="46" y="-65.4" font-family="Helvetica,sans-Serif" font-size="12.00" fill="white">DebugPrintable</text>
</a>
</g>
</g>
<!-- HalfOpenInterval&lt;T : Comparable&gt; -->
<g id="node3" class="node"><title>HalfOpenInterval&lt;T : Comparable&gt;</title>
<g id="a_node3"><a xlink:href="/type/HalfOpenInterval/" xlink:title="HalfOpenInterval&lt;T : Comparable&gt;">
<polygon fill="#ee543d" stroke="#ee543d" points="327.914,-22 132.086,-22 132.086,-0 327.914,-0 327.914,-22"/>
<text text-anchor="middle" x="230" y="-7.4" font-family="Helvetica,sans-Serif" font-size="12.00" fill="white">HalfOpenInterval&lt;T : Comparable&gt;</text>
</a>
</g>
</g>
<!-- DebugPrintable&#45;&gt;HalfOpenInterval&lt;T : Comparable&gt; -->
<g id="edge4" class="edge"><title>DebugPrintable&#45;&gt;HalfOpenInterval&lt;T : Comparable&gt;</title>
<path fill="none" stroke="#cccccc" d="M78.8955,-57.9883C109.154,-48.7794 154.204,-35.0685 187.242,-25.0134"/>
<polygon fill="#cccccc" stroke="#cccccc" points="188.532,-28.2793 197.08,-22.0192 186.494,-21.5826 188.532,-28.2793"/>
</g>
<!-- Equatable -->
<g id="node2" class="node"><title>Equatable</title>
<g id="a_node2"><a xlink:href="/protocol/Equatable/" xlink:title="Equatable">
<path fill="#999999" stroke="#999999" d="M166.702,-80C166.702,-80 117.298,-80 117.298,-80 113.632,-80 109.965,-76.3333 109.965,-72.6667 109.965,-72.6667 109.965,-65.3333 109.965,-65.3333 109.965,-61.6667 113.632,-58 117.298,-58 117.298,-58 166.702,-58 166.702,-58 170.368,-58 174.035,-61.6667 174.035,-65.3333 174.035,-65.3333 174.035,-72.6667 174.035,-72.6667 174.035,-76.3333 170.368,-80 166.702,-80"/>
<text text-anchor="middle" x="142" y="-65.4" font-family="Helvetica,sans-Serif" font-size="12.00" fill="white">Equatable</text>
</a>
</g>
</g>
<!-- Equatable&#45;&gt;HalfOpenInterval&lt;T : Comparable&gt; -->
<g id="edge2" class="edge"><title>Equatable&#45;&gt;HalfOpenInterval&lt;T : Comparable&gt;</title>
<path fill="none" stroke="#cccccc" d="M157.733,-57.9883C171.04,-49.5201 190.329,-37.2452 205.632,-27.5067"/>
<polygon fill="#cccccc" stroke="#cccccc" points="207.549,-30.4354 214.107,-22.1138 203.791,-24.5298 207.549,-30.4354"/>
</g>
<!-- IntervalType -->
<g id="node4" class="node"><title>IntervalType</title>
<g id="a_node4"><a xlink:href="/protocol/IntervalType/" xlink:title="IntervalType">
<path fill="#999999" stroke="#999999" d="M260.196,-80C260.196,-80 199.804,-80 199.804,-80 196.138,-80 192.471,-76.3333 192.471,-72.6667 192.471,-72.6667 192.471,-65.3333 192.471,-65.3333 192.471,-61.6667 196.138,-58 199.804,-58 199.804,-58 260.196,-58 260.196,-58 263.862,-58 267.529,-61.6667 267.529,-65.3333 267.529,-65.3333 267.529,-72.6667 267.529,-72.6667 267.529,-76.3333 263.862,-80 260.196,-80"/>
<text text-anchor="middle" x="230" y="-65.4" font-family="Helvetica,sans-Serif" font-size="12.00" fill="white">IntervalType</text>
</a>
</g>
</g>
<!-- IntervalType&#45;&gt;HalfOpenInterval&lt;T : Comparable&gt; -->
<g id="edge1" class="edge"><title>IntervalType&#45;&gt;HalfOpenInterval&lt;T : Comparable&gt;</title>
<path fill="none" stroke="#cccccc" d="M230,-57.9883C230,-50.9098 230,-41.1714 230,-32.4779"/>
<polygon fill="#cccccc" stroke="#cccccc" points="233.5,-32.3038 230,-22.3039 226.5,-32.3039 233.5,-32.3038"/>
</g>
<!-- Printable -->
<g id="node5" class="node"><title>Printable</title>
<g id="a_node5"><a xlink:href="/protocol/Printable/" xlink:title="Printable">
<path fill="#999999" stroke="#999999" d="M335.187,-80C335.187,-80 292.813,-80 292.813,-80 289.147,-80 285.48,-76.3333 285.48,-72.6667 285.48,-72.6667 285.48,-65.3333 285.48,-65.3333 285.48,-61.6667 289.147,-58 292.813,-58 292.813,-58 335.187,-58 335.187,-58 338.853,-58 342.52,-61.6667 342.52,-65.3333 342.52,-65.3333 342.52,-72.6667 342.52,-72.6667 342.52,-76.3333 338.853,-80 335.187,-80"/>
<text text-anchor="middle" x="314" y="-65.4" font-family="Helvetica,sans-Serif" font-size="12.00" fill="white">Printable</text>
</a>
</g>
</g>
<!-- Printable&#45;&gt;HalfOpenInterval&lt;T : Comparable&gt; -->
<g id="edge3" class="edge"><title>Printable&#45;&gt;HalfOpenInterval&lt;T : Comparable&gt;</title>
<path fill="none" stroke="#cccccc" d="M298.982,-57.9883C286.399,-49.5993 268.211,-37.4743 253.671,-27.7804"/>
<polygon fill="#cccccc" stroke="#cccccc" points="255.433,-24.7487 245.171,-22.1138 251.55,-30.573 255.433,-24.7487"/>
</g>
<!-- Reflectable -->
<g id="node6" class="node"><title>Reflectable</title>
<g id="a_node6"><a xlink:href="/protocol/Reflectable/" xlink:title="Reflectable">
<path fill="#999999" stroke="#999999" d="M423.693,-80C423.693,-80 368.307,-80 368.307,-80 364.64,-80 360.974,-76.3333 360.974,-72.6667 360.974,-72.6667 360.974,-65.3333 360.974,-65.3333 360.974,-61.6667 364.64,-58 368.307,-58 368.307,-58 423.693,-58 423.693,-58 427.36,-58 431.026,-61.6667 431.026,-65.3333 431.026,-65.3333 431.026,-72.6667 431.026,-72.6667 431.026,-76.3333 427.36,-80 423.693,-80"/>
<text text-anchor="middle" x="396" y="-65.4" font-family="Helvetica,sans-Serif" font-size="12.00" fill="white">Reflectable</text>
</a>
</g>
</g>
<!-- Reflectable&#45;&gt;HalfOpenInterval&lt;T : Comparable&gt; -->
<g id="edge5" class="edge"><title>Reflectable&#45;&gt;HalfOpenInterval&lt;T : Comparable&gt;</title>
<path fill="none" stroke="#cccccc" d="M366.323,-57.9883C339.26,-48.8587 299.081,-35.3046 269.349,-25.2743"/>
<polygon fill="#cccccc" stroke="#cccccc" points="270.294,-21.8994 259.7,-22.0192 268.056,-28.5322 270.294,-21.8994"/>
</g>
</g>
</svg>
