<?xml version="1.0" encoding="UTF-8" standalone="no"?>
<!DOCTYPE svg PUBLIC "-//W3C//DTD SVG 1.1//EN"
 "http://www.w3.org/Graphics/SVG/1.1/DTD/svg11.dtd">
<!-- Generated by graphviz version 2.36.0 (20140111.2315)
 -->
<!-- Title: IntegerArithmeticType &#45; Type Hierarchy &#45; SwiftDoc.org Pages: 1 -->
<svg width="788pt" height="485pt"
 viewBox="0.00 0.00 788.40 485.20" xmlns="http://www.w3.org/2000/svg" xmlns:xlink="http://www.w3.org/1999/xlink">
<g id="graph0" class="graph" transform="scale(1 1) rotate(0) translate(7.2 427.6)">
<g transform="translate(0 -427.6)">
<g>
    <path fill="#666666" d="M13.846,10.832c-0.336-0.464-0.792-0.844-1.368-1.14s-1.224-0.444-1.944-0.444
        c-0.384,0-0.772,0.052-1.164,0.156C8.977,9.509,8.622,9.677,8.301,9.908c-0.32,0.232-0.58,0.52-0.78,0.864
        c-0.2,0.344-0.3,0.756-0.3,1.236c0,0.464,0.092,0.852,0.276,1.164c0.184,0.312,0.432,0.576,0.744,0.792s0.68,0.4,1.104,0.552
        c0.423,0.152,0.876,0.309,1.356,0.468c0.576,0.177,1.16,0.376,1.752,0.601c0.592,0.224,1.128,0.52,1.608,0.888
        s0.872,0.828,1.176,1.38s0.456,1.252,0.456,2.101c0,0.88-0.164,1.644-0.492,2.292c-0.328,0.647-0.765,1.184-1.308,1.607
        c-0.544,0.424-1.172,0.74-1.884,0.948s-1.444,0.312-2.196,0.312c-1.072,0-2.108-0.208-3.108-0.624
        c-1-0.415-1.828-1.031-2.484-1.848l1.848-1.56c0.4,0.592,0.936,1.071,1.608,1.439c0.672,0.368,1.399,0.552,2.184,0.552
        c0.4,0,0.8-0.056,1.2-0.168c0.4-0.111,0.764-0.288,1.092-0.527c0.328-0.24,0.596-0.54,0.804-0.9
        c0.208-0.36,0.312-0.796,0.312-1.308s-0.108-0.94-0.324-1.284c-0.216-0.344-0.508-0.636-0.876-0.876s-0.796-0.444-1.284-0.612
        c-0.488-0.168-1.004-0.34-1.548-0.516c-0.544-0.16-1.08-0.356-1.608-0.588c-0.528-0.232-1-0.528-1.416-0.889
        c-0.416-0.359-0.752-0.804-1.008-1.332c-0.256-0.527-0.384-1.184-0.384-1.968c0-0.848,0.172-1.576,0.516-2.184
        c0.344-0.608,0.792-1.112,1.344-1.512c0.552-0.4,1.176-0.692,1.872-0.876c0.696-0.184,1.396-0.276,2.1-0.276
        c0.992,0,1.92,0.176,2.784,0.528c0.864,0.352,1.56,0.824,2.088,1.416L13.846,10.832z"/>
    <path fill="#666666" d="M18.813,13.304l2.568,8.688h0.048l2.712-8.688h2.376l2.76,8.688h0.048l2.568-8.688h2.376L30.501,24.68
        h-2.352l-2.808-8.544h-0.048l-2.784,8.544h-2.352l-3.792-11.376H18.813z"/>
    <path fill="#666666" d="M38.685,9.2c0,0.416-0.147,0.76-0.44,1.032c-0.294,0.272-0.647,0.408-1.06,0.408s-0.762-0.14-1.047-0.42
        c-0.286-0.28-0.429-0.62-0.429-1.02c0-0.416,0.143-0.764,0.429-1.044c0.286-0.28,0.635-0.42,1.047-0.42s0.766,0.14,1.06,0.42
        C38.538,8.437,38.685,8.784,38.685,9.2z M38.325,24.68h-2.256V13.304h2.256V24.68z"/>
    <path fill="#666666" d="M47.613,15.152h-2.64v9.528h-2.256v-9.528h-2.256v-1.848h2.256v-2.376c0-0.672,0.076-1.292,0.228-1.86
        c0.152-0.568,0.4-1.06,0.744-1.476c0.344-0.416,0.784-0.744,1.32-0.984c0.536-0.24,1.188-0.36,1.956-0.36
        c0.544,0,1.016,0.056,1.416,0.168l-0.264,1.944c-0.176-0.048-0.352-0.088-0.528-0.12c-0.176-0.032-0.376-0.048-0.6-0.048
        c-0.432,0-0.78,0.076-1.044,0.228c-0.264,0.152-0.468,0.356-0.612,0.612s-0.24,0.548-0.288,0.876
        c-0.048,0.328-0.072,0.668-0.072,1.02v2.376h2.64V15.152z"/>
    <path fill="#666666" d="M54.909,15.152h-3.024v5.91c0,0.687,0.128,1.177,0.384,1.472c0.256,0.295,0.664,0.442,1.224,0.442
        c0.208,0,0.432-0.021,0.672-0.065c0.24-0.044,0.456-0.11,0.648-0.198l0.072,1.848c-0.272,0.096-0.572,0.172-0.9,0.229
        c-0.328,0.056-0.668,0.084-1.02,0.084c-1.072,0-1.892-0.296-2.46-0.889c-0.568-0.592-0.852-1.479-0.852-2.664v-6.168h-2.184
        v-1.848h2.184V10.04h2.232v3.264h3.024V15.152z"/>
    <path fill="#666666" d="M57.356,7.688h5.832c1.088,0,2.176,0.16,3.264,0.48c1.088,0.32,2.072,0.824,2.952,1.512
        s1.592,1.568,2.136,2.64c0.544,1.072,0.816,2.36,0.816,3.864c0,1.456-0.272,2.716-0.816,3.78s-1.256,1.943-2.136,2.64
        s-1.864,1.216-2.952,1.561c-1.088,0.344-2.176,0.516-3.264,0.516h-5.832V7.688z M59.732,22.593h2.976
        c1.024,0,1.972-0.145,2.844-0.432c0.872-0.288,1.624-0.704,2.256-1.248c0.632-0.544,1.124-1.216,1.476-2.017
        c0.352-0.8,0.528-1.704,0.528-2.712c0-1.056-0.176-1.983-0.528-2.784c-0.353-0.8-0.844-1.468-1.476-2.004
        c-0.632-0.536-1.384-0.944-2.256-1.224s-1.82-0.42-2.844-0.42h-2.976V22.593z"/>
    <path fill="#666666" d="M86.06,18.969c0,0.88-0.156,1.688-0.468,2.424c-0.312,0.736-0.744,1.372-1.296,1.908
        c-0.552,0.536-1.204,0.952-1.956,1.248c-0.752,0.296-1.56,0.443-2.424,0.443c-0.864,0-1.672-0.147-2.424-0.443
        c-0.752-0.296-1.4-0.712-1.944-1.248c-0.544-0.536-0.972-1.172-1.284-1.908c-0.312-0.735-0.468-1.544-0.468-2.424
        s0.156-1.684,0.468-2.412c0.312-0.728,0.74-1.356,1.284-1.884c0.543-0.528,1.191-0.939,1.944-1.236
        c0.752-0.296,1.56-0.444,2.424-0.444c0.864,0,1.672,0.148,2.424,0.444c0.752,0.297,1.404,0.708,1.956,1.236
        c0.552,0.527,0.984,1.156,1.296,1.884C85.904,17.285,86.06,18.089,86.06,18.969z M83.708,18.98c0-0.542-0.084-1.061-0.252-1.556
        c-0.169-0.494-0.414-0.929-0.734-1.304s-0.718-0.674-1.192-0.897s-1.015-0.335-1.625-0.335c-0.61,0-1.152,0.111-1.625,0.335
        c-0.474,0.224-0.871,0.522-1.191,0.897c-0.321,0.375-0.566,0.81-0.734,1.304C76.184,17.92,76.1,18.438,76.1,18.98
        c0,0.543,0.084,1.062,0.253,1.556c0.168,0.495,0.413,0.934,0.734,1.316c0.321,0.383,0.718,0.686,1.191,0.909
        c0.473,0.224,1.015,0.335,1.625,0.335c0.61,0,1.151-0.111,1.625-0.335s0.871-0.526,1.192-0.909s0.565-0.821,0.734-1.316
        C83.624,20.042,83.708,19.523,83.708,18.98z"/>
    <path fill="#666666" d="M96.428,16.184c-0.24-0.368-0.6-0.676-1.08-0.924s-0.992-0.372-1.536-0.372
        c-0.592,0-1.116,0.112-1.572,0.336c-0.456,0.225-0.844,0.524-1.164,0.9c-0.32,0.376-0.564,0.812-0.732,1.308
        s-0.252,1.017-0.252,1.56c0,0.545,0.084,1.064,0.252,1.561s0.412,0.933,0.732,1.308c0.32,0.376,0.712,0.677,1.176,0.9
        c0.464,0.225,0.992,0.336,1.584,0.336c0.576,0,1.1-0.111,1.572-0.336c0.472-0.224,0.86-0.528,1.164-0.912l1.512,1.368
        c-0.48,0.561-1.08,0.996-1.8,1.308c-0.72,0.312-1.536,0.468-2.448,0.468c-0.88,0-1.692-0.144-2.436-0.432
        c-0.744-0.288-1.388-0.691-1.932-1.212c-0.544-0.52-0.972-1.147-1.284-1.884s-0.468-1.561-0.468-2.473
        c0-0.896,0.152-1.711,0.456-2.447c0.304-0.736,0.728-1.368,1.272-1.896c0.543-0.527,1.188-0.936,1.932-1.224
        c0.744-0.288,1.548-0.433,2.412-0.433c0.8,0,1.596,0.16,2.388,0.48s1.419,0.784,1.884,1.392L96.428,16.184z"/>
    <path fill="#666666" d="M103.1,23.24c0,0.417-0.152,0.784-0.456,1.104c-0.304,0.32-0.688,0.479-1.152,0.479
        c-0.448,0-0.828-0.155-1.14-0.468c-0.312-0.312-0.468-0.676-0.468-1.092c0-0.432,0.152-0.804,0.456-1.116
        c0.304-0.312,0.688-0.468,1.152-0.468c0.464,0,0.848,0.152,1.152,0.456C102.947,22.44,103.1,22.808,103.1,23.24z"/>
    <path fill="#666666" d="M116.635,18.969c0,0.88-0.156,1.688-0.468,2.424c-0.312,0.736-0.744,1.372-1.296,1.908
        c-0.552,0.536-1.204,0.952-1.956,1.248c-0.752,0.296-1.56,0.443-2.424,0.443c-0.864,0-1.672-0.147-2.424-0.443
        c-0.752-0.296-1.4-0.712-1.944-1.248c-0.544-0.536-0.972-1.172-1.284-1.908c-0.312-0.735-0.468-1.544-0.468-2.424
        s0.156-1.684,0.468-2.412c0.312-0.728,0.74-1.356,1.284-1.884c0.543-0.528,1.191-0.939,1.944-1.236
        c0.752-0.296,1.56-0.444,2.424-0.444c0.864,0,1.672,0.148,2.424,0.444c0.752,0.297,1.404,0.708,1.956,1.236
        c0.552,0.527,0.984,1.156,1.296,1.884C116.479,17.285,116.635,18.089,116.635,18.969z M114.283,18.98
        c0-0.542-0.084-1.061-0.252-1.556c-0.169-0.494-0.414-0.929-0.734-1.304s-0.718-0.674-1.192-0.897s-1.015-0.335-1.625-0.335
        c-0.61,0-1.152,0.111-1.625,0.335c-0.474,0.224-0.871,0.522-1.191,0.897c-0.321,0.375-0.566,0.81-0.734,1.304
        c-0.169,0.495-0.253,1.014-0.253,1.556c0,0.543,0.084,1.062,0.253,1.556c0.168,0.495,0.413,0.934,0.734,1.316
        c0.321,0.383,0.718,0.686,1.191,0.909c0.473,0.224,1.015,0.335,1.625,0.335c0.61,0,1.151-0.111,1.625-0.335
        s0.871-0.526,1.192-0.909s0.565-0.821,0.734-1.316C114.199,20.042,114.283,19.523,114.283,18.98z"/>
    <path fill="#666666" d="M119.251,14.577c-0.016-0.48-0.04-0.904-0.072-1.272h2.136c0.032,0.288,0.056,0.62,0.072,0.996
        c0.016,0.376,0.024,0.684,0.024,0.924h0.072c0.32-0.672,0.788-1.212,1.404-1.62c0.616-0.408,1.308-0.612,2.076-0.612
        c0.352,0,0.648,0.033,0.888,0.097l-0.096,2.088c-0.32-0.08-0.664-0.12-1.032-0.12c-0.544,0-1.016,0.101-1.416,0.3
        c-0.4,0.2-0.732,0.468-0.996,0.805c-0.264,0.336-0.46,0.724-0.588,1.163c-0.128,0.44-0.192,0.9-0.192,1.381v5.976h-2.256v-8.928
        C119.275,15.449,119.267,15.056,119.251,14.577z"/>
    <path fill="#666666" d="M128.419,26.625c0.496,0.56,1.116,1.008,1.86,1.344c0.744,0.336,1.508,0.504,2.292,0.504
        c0.752,0,1.384-0.108,1.896-0.324s0.924-0.512,1.236-0.888s0.536-0.82,0.672-1.332c0.136-0.513,0.204-1.064,0.204-1.656v-1.464
        h-0.048c-0.416,0.641-0.984,1.128-1.704,1.464c-0.72,0.336-1.488,0.504-2.304,0.504c-0.864,0-1.652-0.151-2.364-0.456
        c-0.712-0.304-1.316-0.72-1.812-1.248c-0.496-0.527-0.88-1.147-1.152-1.859s-0.408-1.477-0.408-2.292
        c0-0.816,0.136-1.584,0.408-2.305c0.272-0.72,0.656-1.348,1.152-1.884c0.496-0.535,1.096-0.96,1.8-1.271
        c0.704-0.312,1.488-0.469,2.352-0.469c0.816,0,1.596,0.177,2.34,0.528c0.744,0.353,1.332,0.888,1.764,1.608h0.048v-1.824h2.184
        v10.8c0,0.832-0.104,1.628-0.312,2.388c-0.208,0.76-0.56,1.433-1.056,2.017s-1.144,1.052-1.944,1.404
        c-0.8,0.352-1.792,0.527-2.976,0.527c-0.992,0-1.988-0.18-2.988-0.54c-1-0.359-1.86-0.868-2.58-1.523L128.419,26.625z
         M129.091,18.873c0,0.527,0.084,1.031,0.253,1.512c0.168,0.479,0.417,0.904,0.746,1.271c0.329,0.369,0.726,0.664,1.192,0.889
        c0.465,0.224,0.995,0.336,1.589,0.336c0.577,0,1.107-0.104,1.589-0.312c0.481-0.207,0.891-0.491,1.228-0.852
        s0.598-0.784,0.782-1.272c0.185-0.487,0.277-1.012,0.277-1.571c0-0.544-0.093-1.057-0.277-1.536
        c-0.185-0.48-0.449-0.904-0.794-1.272c-0.345-0.367-0.755-0.66-1.228-0.876c-0.474-0.216-1-0.324-1.577-0.324
        c-0.594,0-1.124,0.108-1.589,0.324c-0.466,0.216-0.863,0.504-1.192,0.864s-0.578,0.784-0.746,1.271
        C129.175,17.812,129.091,18.329,129.091,18.873z"/>
</g>
<g><a xlink:href="/" pointer-events="all" target="_top"><polygon fill="none" points="0,0 145,0 145,35 0,35 0,0"/></a></g>

</g>


<!-- Bit -->
<g id="node1" class="node">
<g id="a_node1"><a xlink:href="/type/Bit/" target="_top">
<polygon fill="#999999" stroke="#999999" points="126,-22 72,-22 72,-0 126,-0 126,-22"/>
<text text-anchor="middle" x="99" y="-7.4" font-family="Helvetica,sans-Serif" font-size="12.00" fill="white">Bit</text>
</a>
</g>
</g>
<!-- Comparable -->
<g id="node2" class="node">
<g id="a_node2"><a xlink:href="/protocol/Comparable/" target="_top">
<path fill="#999999" stroke="#999999" d="M154.191,-312C154.191,-312 93.8087,-312 93.8087,-312 90.1421,-312 86.4754,-308.333 86.4754,-304.667 86.4754,-304.667 86.4754,-297.333 86.4754,-297.333 86.4754,-293.667 90.1421,-290 93.8087,-290 93.8087,-290 154.191,-290 154.191,-290 157.858,-290 161.525,-293.667 161.525,-297.333 161.525,-297.333 161.525,-304.667 161.525,-304.667 161.525,-308.333 157.858,-312 154.191,-312"/>
<text text-anchor="middle" x="124" y="-297.4" font-family="Helvetica,sans-Serif" font-size="12.00" fill="white">Comparable</text>
</a>
</g>
</g>
<!-- IntegerArithmeticType -->
<g id="node9" class="node">
<g id="a_node9"><a xlink:href="/protocol/IntegerArithmeticType/" target="_top">
<path fill="#ee543d" stroke="#ee543d" d="M240.711,-254C240.711,-254 129.289,-254 129.289,-254 125.623,-254 121.956,-250.333 121.956,-246.667 121.956,-246.667 121.956,-239.333 121.956,-239.333 121.956,-235.667 125.623,-232 129.289,-232 129.289,-232 240.711,-232 240.711,-232 244.377,-232 248.044,-235.667 248.044,-239.333 248.044,-239.333 248.044,-246.667 248.044,-246.667 248.044,-250.333 244.377,-254 240.711,-254"/>
<text text-anchor="middle" x="185" y="-239.4" font-family="Helvetica,sans-Serif" font-size="12.00" fill="white">IntegerArithmeticType</text>
</a>
</g>
</g>
<!-- Comparable&#45;&gt;IntegerArithmeticType -->
<g id="edge22" class="edge">
<path fill="none" stroke="#cccccc" d="M134.906,-289.988C143.559,-282.045 155.86,-270.751 166.108,-261.344"/>
<polygon fill="#cccccc" stroke="#cccccc" points="168.777,-263.645 173.776,-254.304 164.043,-258.488 168.777,-263.645"/>
</g>
<!-- Equatable -->
<g id="node3" class="node">
<g id="a_node3"><a xlink:href="/protocol/Equatable/" target="_top">
<path fill="#999999" stroke="#999999" d="M103.702,-370C103.702,-370 54.2982,-370 54.2982,-370 50.6315,-370 46.9648,-366.333 46.9648,-362.667 46.9648,-362.667 46.9648,-355.333 46.9648,-355.333 46.9648,-351.667 50.6315,-348 54.2982,-348 54.2982,-348 103.702,-348 103.702,-348 107.368,-348 111.035,-351.667 111.035,-355.333 111.035,-355.333 111.035,-362.667 111.035,-362.667 111.035,-366.333 107.368,-370 103.702,-370"/>
<text text-anchor="middle" x="79" y="-355.4" font-family="Helvetica,sans-Serif" font-size="12.00" fill="white">Equatable</text>
</a>
</g>
</g>
<!-- Equatable&#45;&gt;Comparable -->
<g id="edge24" class="edge">
<path fill="none" stroke="#cccccc" d="M87.0451,-347.988C93.2388,-340.281 101.967,-329.419 109.385,-320.187"/>
<polygon fill="#cccccc" stroke="#cccccc" points="112.184,-322.291 115.72,-312.304 106.728,-317.907 112.184,-322.291"/>
</g>
<!-- Int -->
<g id="node4" class="node">
<g id="a_node4"><a xlink:href="/type/Int/" target="_top">
<polygon fill="#999999" stroke="#999999" points="54,-22 0,-22 0,-0 54,-0 54,-22"/>
<text text-anchor="middle" x="27" y="-7.4" font-family="Helvetica,sans-Serif" font-size="12.00" fill="white">Int</text>
</a>
</g>
</g>
<!-- Int&#45;&gt;Bit -->
<g id="edge13" class="edge">
<path fill="none" stroke="#cccccc" d="M54.2812,-11C56.7377,-11 59.1942,-11 61.6507,-11"/>
<polygon fill="#cccccc" stroke="#cccccc" points="61.7495,-14.5001 71.7495,-11 61.7495,-7.5001 61.7495,-14.5001"/>
</g>
<!-- Int16 -->
<g id="node5" class="node">
<g id="a_node5"><a xlink:href="/type/Int16/" target="_top">
<polygon fill="#999999" stroke="#999999" points="414,-22 360,-22 360,-0 414,-0 414,-22"/>
<text text-anchor="middle" x="387" y="-7.4" font-family="Helvetica,sans-Serif" font-size="12.00" fill="white">Int16</text>
</a>
</g>
</g>
<!-- Int32 -->
<g id="node6" class="node">
<g id="a_node6"><a xlink:href="/type/Int32/" target="_top">
<polygon fill="#999999" stroke="#999999" points="198,-22 144,-22 144,-0 198,-0 198,-22"/>
<text text-anchor="middle" x="171" y="-7.4" font-family="Helvetica,sans-Serif" font-size="12.00" fill="white">Int32</text>
</a>
</g>
</g>
<!-- Int64 -->
<g id="node7" class="node">
<g id="a_node7"><a xlink:href="/type/Int64/" target="_top">
<polygon fill="#999999" stroke="#999999" points="270,-22 216,-22 216,-0 270,-0 270,-22"/>
<text text-anchor="middle" x="243" y="-7.4" font-family="Helvetica,sans-Serif" font-size="12.00" fill="white">Int64</text>
</a>
</g>
</g>
<!-- Int8 -->
<g id="node8" class="node">
<g id="a_node8"><a xlink:href="/type/Int8/" target="_top">
<polygon fill="#999999" stroke="#999999" points="342,-22 288,-22 288,-0 342,-0 342,-22"/>
<text text-anchor="middle" x="315" y="-7.4" font-family="Helvetica,sans-Serif" font-size="12.00" fill="white">Int8</text>
</a>
</g>
</g>
<!-- IntegerArithmeticType&#45;&gt;Bit -->
<g id="edge1" class="edge">
<path fill="none" stroke="#cccccc" d="M181.194,-231.82C167.985,-196.494 123.97,-78.7811 106.368,-31.7049"/>
<polygon fill="#cccccc" stroke="#cccccc" points="109.543,-30.2028 102.762,-22.062 102.986,-32.6545 109.543,-30.2028"/>
</g>
<!-- _IntegerType -->
<g id="node20" class="node">
<g id="a_node20"><a xlink:href="/protocol/_IntegerType/" target="_top">
<path fill="#999999" stroke="#999999" d="M345.708,-196C345.708,-196 280.292,-196 280.292,-196 276.626,-196 272.959,-192.333 272.959,-188.667 272.959,-188.667 272.959,-181.333 272.959,-181.333 272.959,-177.667 276.626,-174 280.292,-174 280.292,-174 345.708,-174 345.708,-174 349.374,-174 353.041,-177.667 353.041,-181.333 353.041,-181.333 353.041,-188.667 353.041,-188.667 353.041,-192.333 349.374,-196 345.708,-196"/>
<text text-anchor="middle" x="313" y="-181.4" font-family="Helvetica,sans-Serif" font-size="12.00" fill="white">_IntegerType</text>
</a>
</g>
</g>
<!-- IntegerArithmeticType&#45;&gt;_IntegerType -->
<g id="edge2" class="edge">
<path fill="none" stroke="#cccccc" d="M207.884,-231.988C228.144,-223.124 257.938,-210.09 280.637,-200.159"/>
<polygon fill="#cccccc" stroke="#cccccc" points="282.124,-203.329 289.883,-196.114 279.318,-196.916 282.124,-203.329"/>
</g>
<!-- IntegerType -->
<g id="node10" class="node">
<g id="a_node10"><a xlink:href="/protocol/IntegerType/" target="_top">
<path fill="#999999" stroke="#999999" d="M399.202,-138C399.202,-138 340.798,-138 340.798,-138 337.132,-138 333.465,-134.333 333.465,-130.667 333.465,-130.667 333.465,-123.333 333.465,-123.333 333.465,-119.667 337.132,-116 340.798,-116 340.798,-116 399.202,-116 399.202,-116 402.868,-116 406.535,-119.667 406.535,-123.333 406.535,-123.333 406.535,-130.667 406.535,-130.667 406.535,-134.333 402.868,-138 399.202,-138"/>
<text text-anchor="middle" x="370" y="-123.4" font-family="Helvetica,sans-Serif" font-size="12.00" fill="white">IntegerType</text>
</a>
</g>
</g>
<!-- SignedIntegerType -->
<g id="node11" class="node">
<g id="a_node11"><a xlink:href="/protocol/SignedIntegerType/" target="_top">
<path fill="#999999" stroke="#999999" d="M304.727,-80C304.727,-80 209.273,-80 209.273,-80 205.606,-80 201.94,-76.3333 201.94,-72.6667 201.94,-72.6667 201.94,-65.3333 201.94,-65.3333 201.94,-61.6667 205.606,-58 209.273,-58 209.273,-58 304.727,-58 304.727,-58 308.394,-58 312.06,-61.6667 312.06,-65.3333 312.06,-65.3333 312.06,-72.6667 312.06,-72.6667 312.06,-76.3333 308.394,-80 304.727,-80"/>
<text text-anchor="middle" x="257" y="-65.4" font-family="Helvetica,sans-Serif" font-size="12.00" fill="white">SignedIntegerType</text>
</a>
</g>
</g>
<!-- IntegerType&#45;&gt;SignedIntegerType -->
<g id="edge6" class="edge">
<path fill="none" stroke="#cccccc" d="M349.798,-115.988C332.151,-107.243 306.313,-94.4381 286.379,-84.5594"/>
<polygon fill="#cccccc" stroke="#cccccc" points="287.922,-81.4182 277.408,-80.1138 284.814,-87.6903 287.922,-81.4182"/>
</g>
<!-- UnsignedIntegerType -->
<g id="node17" class="node">
<g id="a_node17"><a xlink:href="/protocol/UnsignedIntegerType/" target="_top">
<path fill="#999999" stroke="#999999" d="M585.728,-80C585.728,-80 476.272,-80 476.272,-80 472.605,-80 468.938,-76.3333 468.938,-72.6667 468.938,-72.6667 468.938,-65.3333 468.938,-65.3333 468.938,-61.6667 472.605,-58 476.272,-58 476.272,-58 585.728,-58 585.728,-58 589.395,-58 593.062,-61.6667 593.062,-65.3333 593.062,-65.3333 593.062,-72.6667 593.062,-72.6667 593.062,-76.3333 589.395,-80 585.728,-80"/>
<text text-anchor="middle" x="531" y="-65.4" font-family="Helvetica,sans-Serif" font-size="12.00" fill="white">UnsignedIntegerType</text>
</a>
</g>
</g>
<!-- IntegerType&#45;&gt;UnsignedIntegerType -->
<g id="edge7" class="edge">
<path fill="none" stroke="#cccccc" d="M398.784,-115.988C424.917,-106.898 463.661,-93.4223 492.46,-83.4053"/>
<polygon fill="#cccccc" stroke="#cccccc" points="493.9,-86.6103 502.195,-80.0192 491.6,-79.9988 493.9,-86.6103"/>
</g>
<!-- SignedIntegerType&#45;&gt;Int -->
<g id="edge8" class="edge">
<path fill="none" stroke="#cccccc" d="M212.578,-57.9741C175.334,-49.4543 120.522,-36.6515 63.9331,-22.1749"/>
<polygon fill="#cccccc" stroke="#cccccc" points="64.6537,-18.7464 54.0971,-19.6462 62.9106,-25.526 64.6537,-18.7464"/>
</g>
<!-- SignedIntegerType&#45;&gt;Int16 -->
<g id="edge9" class="edge">
<path fill="none" stroke="#cccccc" d="M280.241,-57.9883C300.818,-49.1244 331.077,-36.0897 354.132,-26.1587"/>
<polygon fill="#cccccc" stroke="#cccccc" points="355.722,-29.2846 363.522,-22.1138 352.953,-22.8557 355.722,-29.2846"/>
</g>
<!-- SignedIntegerType&#45;&gt;Int32 -->
<g id="edge10" class="edge">
<path fill="none" stroke="#cccccc" d="M241.625,-57.9883C228.742,-49.5993 210.121,-37.4743 195.234,-27.7804"/>
<polygon fill="#cccccc" stroke="#cccccc" points="196.822,-24.6376 186.532,-22.1138 193.002,-30.5036 196.822,-24.6376"/>
</g>
<!-- SignedIntegerType&#45;&gt;Int64 -->
<g id="edge11" class="edge">
<path fill="none" stroke="#cccccc" d="M254.497,-57.9883C252.708,-50.8311 250.239,-40.9547 248.047,-32.1885"/>
<polygon fill="#cccccc" stroke="#cccccc" points="251.397,-31.1564 245.576,-22.3039 244.606,-32.8542 251.397,-31.1564"/>
</g>
<!-- SignedIntegerType&#45;&gt;Int8 -->
<g id="edge12" class="edge">
<path fill="none" stroke="#cccccc" d="M267.369,-57.9883C275.597,-50.0446 287.293,-38.7512 297.037,-29.3439"/>
<polygon fill="#cccccc" stroke="#cccccc" points="299.565,-31.7678 304.328,-22.3039 294.703,-26.7319 299.565,-31.7678"/>
</g>
<!-- UInt -->
<g id="node12" class="node">
<g id="a_node12"><a xlink:href="/type/UInt/" target="_top">
<polygon fill="#999999" stroke="#999999" points="630,-22 576,-22 576,-0 630,-0 630,-22"/>
<text text-anchor="middle" x="603" y="-7.4" font-family="Helvetica,sans-Serif" font-size="12.00" fill="white">UInt</text>
</a>
</g>
</g>
<!-- UInt16 -->
<g id="node13" class="node">
<g id="a_node13"><a xlink:href="/type/UInt16/" target="_top">
<polygon fill="#999999" stroke="#999999" points="702,-22 648,-22 648,-0 702,-0 702,-22"/>
<text text-anchor="middle" x="675" y="-7.4" font-family="Helvetica,sans-Serif" font-size="12.00" fill="white">UInt16</text>
</a>
</g>
</g>
<!-- UInt32 -->
<g id="node14" class="node">
<g id="a_node14"><a xlink:href="/type/UInt32/" target="_top">
<polygon fill="#999999" stroke="#999999" points="774,-22 720,-22 720,-0 774,-0 774,-22"/>
<text text-anchor="middle" x="747" y="-7.4" font-family="Helvetica,sans-Serif" font-size="12.00" fill="white">UInt32</text>
</a>
</g>
</g>
<!-- UInt64 -->
<g id="node15" class="node">
<g id="a_node15"><a xlink:href="/type/UInt64/" target="_top">
<polygon fill="#999999" stroke="#999999" points="486,-22 432,-22 432,-0 486,-0 486,-22"/>
<text text-anchor="middle" x="459" y="-7.4" font-family="Helvetica,sans-Serif" font-size="12.00" fill="white">UInt64</text>
</a>
</g>
</g>
<!-- UInt8 -->
<g id="node16" class="node">
<g id="a_node16"><a xlink:href="/type/UInt8/" target="_top">
<polygon fill="#999999" stroke="#999999" points="558,-22 504,-22 504,-0 558,-0 558,-22"/>
<text text-anchor="middle" x="531" y="-7.4" font-family="Helvetica,sans-Serif" font-size="12.00" fill="white">UInt8</text>
</a>
</g>
</g>
<!-- UnsignedIntegerType&#45;&gt;UInt -->
<g id="edge14" class="edge">
<path fill="none" stroke="#cccccc" d="M543.872,-57.9883C554.389,-49.8087 569.472,-38.0773 581.772,-28.5108"/>
<polygon fill="#cccccc" stroke="#cccccc" points="584.007,-31.2061 589.752,-22.3039 579.71,-25.6806 584.007,-31.2061"/>
</g>
<!-- UnsignedIntegerType&#45;&gt;UInt16 -->
<g id="edge15" class="edge">
<path fill="none" stroke="#cccccc" d="M556.744,-57.9883C579.842,-49.0057 613.955,-35.7398 639.614,-25.7614"/>
<polygon fill="#cccccc" stroke="#cccccc" points="640.942,-29.0004 648.993,-22.1138 638.404,-22.4763 640.942,-29.0004"/>
</g>
<!-- UnsignedIntegerType&#45;&gt;UInt32 -->
<g id="edge16" class="edge">
<path fill="none" stroke="#cccccc" d="M571.454,-57.9168C605.836,-49.2898 656.758,-36.3793 709.937,-22.2477"/>
<polygon fill="#cccccc" stroke="#cccccc" points="711.128,-25.5525 719.89,-19.5955 709.326,-18.7885 711.128,-25.5525"/>
</g>
<!-- UnsignedIntegerType&#45;&gt;UInt64 -->
<g id="edge17" class="edge">
<path fill="none" stroke="#cccccc" d="M518.128,-57.9883C507.611,-49.8087 492.528,-38.0773 480.228,-28.5108"/>
<polygon fill="#cccccc" stroke="#cccccc" points="482.29,-25.6806 472.248,-22.3039 477.993,-31.2061 482.29,-25.6806"/>
</g>
<!-- UnsignedIntegerType&#45;&gt;UInt8 -->
<g id="edge18" class="edge">
<path fill="none" stroke="#cccccc" d="M531,-57.9883C531,-50.9098 531,-41.1714 531,-32.4779"/>
<polygon fill="#cccccc" stroke="#cccccc" points="534.5,-32.3038 531,-22.3039 527.5,-32.3039 534.5,-32.3038"/>
</g>
<!-- _Comparable -->
<g id="node18" class="node">
<g id="a_node18"><a xlink:href="/protocol/_Comparable/" target="_top">
<path fill="#999999" stroke="#999999" d="M203.697,-370C203.697,-370 136.303,-370 136.303,-370 132.636,-370 128.969,-366.333 128.969,-362.667 128.969,-362.667 128.969,-355.333 128.969,-355.333 128.969,-351.667 132.636,-348 136.303,-348 136.303,-348 203.697,-348 203.697,-348 207.364,-348 211.031,-351.667 211.031,-355.333 211.031,-355.333 211.031,-362.667 211.031,-362.667 211.031,-366.333 207.364,-370 203.697,-370"/>
<text text-anchor="middle" x="170" y="-355.4" font-family="Helvetica,sans-Serif" font-size="12.00" fill="white">_Comparable</text>
</a>
</g>
</g>
<!-- _Comparable&#45;&gt;Comparable -->
<g id="edge23" class="edge">
<path fill="none" stroke="#cccccc" d="M161.776,-347.988C155.445,-340.281 146.523,-329.419 138.939,-320.187"/>
<polygon fill="#cccccc" stroke="#cccccc" points="141.516,-317.81 132.464,-312.304 136.107,-322.253 141.516,-317.81"/>
</g>
<!-- _IntegerArithmeticType -->
<g id="node19" class="node">
<g id="a_node19"><a xlink:href="/protocol/_IntegerArithmeticType/" target="_top">
<path fill="#999999" stroke="#999999" d="M305.215,-312C305.215,-312 186.785,-312 186.785,-312 183.118,-312 179.452,-308.333 179.452,-304.667 179.452,-304.667 179.452,-297.333 179.452,-297.333 179.452,-293.667 183.118,-290 186.785,-290 186.785,-290 305.215,-290 305.215,-290 308.882,-290 312.548,-293.667 312.548,-297.333 312.548,-297.333 312.548,-304.667 312.548,-304.667 312.548,-308.333 308.882,-312 305.215,-312"/>
<text text-anchor="middle" x="246" y="-297.4" font-family="Helvetica,sans-Serif" font-size="12.00" fill="white">_IntegerArithmeticType</text>
</a>
</g>
</g>
<!-- _IntegerArithmeticType&#45;&gt;IntegerArithmeticType -->
<g id="edge21" class="edge">
<path fill="none" stroke="#cccccc" d="M235.094,-289.988C226.441,-282.045 214.14,-270.751 203.892,-261.344"/>
<polygon fill="#cccccc" stroke="#cccccc" points="205.957,-258.488 196.224,-254.304 201.223,-263.645 205.957,-258.488"/>
</g>
<!-- _IntegerType&#45;&gt;IntegerType -->
<g id="edge3" class="edge">
<path fill="none" stroke="#cccccc" d="M323.19,-173.988C331.276,-166.045 342.771,-154.751 352.346,-145.344"/>
<polygon fill="#cccccc" stroke="#cccccc" points="354.832,-147.809 359.512,-138.304 349.926,-142.815 354.832,-147.809"/>
</g>
<!-- _SignedIntegerType -->
<g id="node21" class="node">
<g id="a_node21"><a xlink:href="/protocol/_SignedIntegerType/" target="_top">
<path fill="#999999" stroke="#999999" d="M308.231,-138C308.231,-138 205.769,-138 205.769,-138 202.102,-138 198.436,-134.333 198.436,-130.667 198.436,-130.667 198.436,-123.333 198.436,-123.333 198.436,-119.667 202.102,-116 205.769,-116 205.769,-116 308.231,-116 308.231,-116 311.898,-116 315.564,-119.667 315.564,-123.333 315.564,-123.333 315.564,-130.667 315.564,-130.667 315.564,-134.333 311.898,-138 308.231,-138"/>
<text text-anchor="middle" x="257" y="-123.4" font-family="Helvetica,sans-Serif" font-size="12.00" fill="white">_SignedIntegerType</text>
</a>
</g>
</g>
<!-- _IntegerType&#45;&gt;_SignedIntegerType -->
<g id="edge4" class="edge">
<path fill="none" stroke="#cccccc" d="M302.988,-173.988C295.123,-166.123 283.974,-154.974 274.624,-145.624"/>
<polygon fill="#cccccc" stroke="#cccccc" points="276.85,-142.9 267.304,-138.304 271.9,-147.85 276.85,-142.9"/>
</g>
<!-- _UnsignedIntegerType -->
<g id="node22" class="node">
<g id="a_node22"><a xlink:href="/protocol/_UnsignedIntegerType/" target="_top">
<path fill="#999999" stroke="#999999" d="M561.734,-138C561.734,-138 446.266,-138 446.266,-138 442.599,-138 438.933,-134.333 438.933,-130.667 438.933,-130.667 438.933,-123.333 438.933,-123.333 438.933,-119.667 442.599,-116 446.266,-116 446.266,-116 561.734,-116 561.734,-116 565.401,-116 569.067,-119.667 569.067,-123.333 569.067,-123.333 569.067,-130.667 569.067,-130.667 569.067,-134.333 565.401,-138 561.734,-138"/>
<text text-anchor="middle" x="504" y="-123.4" font-family="Helvetica,sans-Serif" font-size="12.00" fill="white">_UnsignedIntegerType</text>
</a>
</g>
</g>
<!-- _IntegerType&#45;&gt;_UnsignedIntegerType -->
<g id="edge5" class="edge">
<path fill="none" stroke="#cccccc" d="M347.147,-173.988C378.692,-164.74 425.723,-150.95 460.058,-140.884"/>
<polygon fill="#cccccc" stroke="#cccccc" points="461.216,-144.191 469.827,-138.019 459.246,-137.474 461.216,-144.191"/>
</g>
<!-- _SignedIntegerType&#45;&gt;SignedIntegerType -->
<g id="edge19" class="edge">
<path fill="none" stroke="#cccccc" d="M257,-115.988C257,-108.91 257,-99.1714 257,-90.4779"/>
<polygon fill="#cccccc" stroke="#cccccc" points="260.5,-90.3038 257,-80.3039 253.5,-90.3039 260.5,-90.3038"/>
</g>
<!-- _UnsignedIntegerType&#45;&gt;UnsignedIntegerType -->
<g id="edge20" class="edge">
<path fill="none" stroke="#cccccc" d="M508.827,-115.988C512.392,-108.595 517.355,-98.3005 521.682,-89.3253"/>
<polygon fill="#cccccc" stroke="#cccccc" points="524.842,-90.8316 526.032,-80.3039 518.536,-87.7915 524.842,-90.8316"/>
</g>
</g>
</svg>
