<?xml version="1.0" encoding="UTF-8" standalone="no"?>
<!DOCTYPE svg PUBLIC "-//W3C//DTD SVG 1.1//EN"
 "http://www.w3.org/Graphics/SVG/1.1/DTD/svg11.dtd">
<!-- Generated by graphviz version 2.36.0 (20140111.2315)
 -->
<!-- Title: _BidirectionalIndexType &#45; Type Hierarchy &#45; SwiftDoc.org Pages: 1 -->
<svg width="1839pt" height="601pt"
 viewBox="0.00 0.00 1839.40 601.20" xmlns="http://www.w3.org/2000/svg" xmlns:xlink="http://www.w3.org/1999/xlink">
<g id="graph0" class="graph" transform="scale(1 1) rotate(0) translate(7.2 543.6)">
<g transform="translate(0 -543.6)">
<g>
    <path fill="#666666" d="M13.846,10.832c-0.336-0.464-0.792-0.844-1.368-1.14s-1.224-0.444-1.944-0.444
        c-0.384,0-0.772,0.052-1.164,0.156C8.977,9.509,8.622,9.677,8.301,9.908c-0.32,0.232-0.58,0.52-0.78,0.864
        c-0.2,0.344-0.3,0.756-0.3,1.236c0,0.464,0.092,0.852,0.276,1.164c0.184,0.312,0.432,0.576,0.744,0.792s0.68,0.4,1.104,0.552
        c0.423,0.152,0.876,0.309,1.356,0.468c0.576,0.177,1.16,0.376,1.752,0.601c0.592,0.224,1.128,0.52,1.608,0.888
        s0.872,0.828,1.176,1.38s0.456,1.252,0.456,2.101c0,0.88-0.164,1.644-0.492,2.292c-0.328,0.647-0.765,1.184-1.308,1.607
        c-0.544,0.424-1.172,0.74-1.884,0.948s-1.444,0.312-2.196,0.312c-1.072,0-2.108-0.208-3.108-0.624
        c-1-0.415-1.828-1.031-2.484-1.848l1.848-1.56c0.4,0.592,0.936,1.071,1.608,1.439c0.672,0.368,1.399,0.552,2.184,0.552
        c0.4,0,0.8-0.056,1.2-0.168c0.4-0.111,0.764-0.288,1.092-0.527c0.328-0.24,0.596-0.54,0.804-0.9
        c0.208-0.36,0.312-0.796,0.312-1.308s-0.108-0.94-0.324-1.284c-0.216-0.344-0.508-0.636-0.876-0.876s-0.796-0.444-1.284-0.612
        c-0.488-0.168-1.004-0.34-1.548-0.516c-0.544-0.16-1.08-0.356-1.608-0.588c-0.528-0.232-1-0.528-1.416-0.889
        c-0.416-0.359-0.752-0.804-1.008-1.332c-0.256-0.527-0.384-1.184-0.384-1.968c0-0.848,0.172-1.576,0.516-2.184
        c0.344-0.608,0.792-1.112,1.344-1.512c0.552-0.4,1.176-0.692,1.872-0.876c0.696-0.184,1.396-0.276,2.1-0.276
        c0.992,0,1.92,0.176,2.784,0.528c0.864,0.352,1.56,0.824,2.088,1.416L13.846,10.832z"/>
    <path fill="#666666" d="M18.813,13.304l2.568,8.688h0.048l2.712-8.688h2.376l2.76,8.688h0.048l2.568-8.688h2.376L30.501,24.68
        h-2.352l-2.808-8.544h-0.048l-2.784,8.544h-2.352l-3.792-11.376H18.813z"/>
    <path fill="#666666" d="M38.685,9.2c0,0.416-0.147,0.76-0.44,1.032c-0.294,0.272-0.647,0.408-1.06,0.408s-0.762-0.14-1.047-0.42
        c-0.286-0.28-0.429-0.62-0.429-1.02c0-0.416,0.143-0.764,0.429-1.044c0.286-0.28,0.635-0.42,1.047-0.42s0.766,0.14,1.06,0.42
        C38.538,8.437,38.685,8.784,38.685,9.2z M38.325,24.68h-2.256V13.304h2.256V24.68z"/>
    <path fill="#666666" d="M47.613,15.152h-2.64v9.528h-2.256v-9.528h-2.256v-1.848h2.256v-2.376c0-0.672,0.076-1.292,0.228-1.86
        c0.152-0.568,0.4-1.06,0.744-1.476c0.344-0.416,0.784-0.744,1.32-0.984c0.536-0.24,1.188-0.36,1.956-0.36
        c0.544,0,1.016,0.056,1.416,0.168l-0.264,1.944c-0.176-0.048-0.352-0.088-0.528-0.12c-0.176-0.032-0.376-0.048-0.6-0.048
        c-0.432,0-0.78,0.076-1.044,0.228c-0.264,0.152-0.468,0.356-0.612,0.612s-0.24,0.548-0.288,0.876
        c-0.048,0.328-0.072,0.668-0.072,1.02v2.376h2.64V15.152z"/>
    <path fill="#666666" d="M54.909,15.152h-3.024v5.91c0,0.687,0.128,1.177,0.384,1.472c0.256,0.295,0.664,0.442,1.224,0.442
        c0.208,0,0.432-0.021,0.672-0.065c0.24-0.044,0.456-0.11,0.648-0.198l0.072,1.848c-0.272,0.096-0.572,0.172-0.9,0.229
        c-0.328,0.056-0.668,0.084-1.02,0.084c-1.072,0-1.892-0.296-2.46-0.889c-0.568-0.592-0.852-1.479-0.852-2.664v-6.168h-2.184
        v-1.848h2.184V10.04h2.232v3.264h3.024V15.152z"/>
    <path fill="#666666" d="M57.356,7.688h5.832c1.088,0,2.176,0.16,3.264,0.48c1.088,0.32,2.072,0.824,2.952,1.512
        s1.592,1.568,2.136,2.64c0.544,1.072,0.816,2.36,0.816,3.864c0,1.456-0.272,2.716-0.816,3.78s-1.256,1.943-2.136,2.64
        s-1.864,1.216-2.952,1.561c-1.088,0.344-2.176,0.516-3.264,0.516h-5.832V7.688z M59.732,22.593h2.976
        c1.024,0,1.972-0.145,2.844-0.432c0.872-0.288,1.624-0.704,2.256-1.248c0.632-0.544,1.124-1.216,1.476-2.017
        c0.352-0.8,0.528-1.704,0.528-2.712c0-1.056-0.176-1.983-0.528-2.784c-0.353-0.8-0.844-1.468-1.476-2.004
        c-0.632-0.536-1.384-0.944-2.256-1.224s-1.82-0.42-2.844-0.42h-2.976V22.593z"/>
    <path fill="#666666" d="M86.06,18.969c0,0.88-0.156,1.688-0.468,2.424c-0.312,0.736-0.744,1.372-1.296,1.908
        c-0.552,0.536-1.204,0.952-1.956,1.248c-0.752,0.296-1.56,0.443-2.424,0.443c-0.864,0-1.672-0.147-2.424-0.443
        c-0.752-0.296-1.4-0.712-1.944-1.248c-0.544-0.536-0.972-1.172-1.284-1.908c-0.312-0.735-0.468-1.544-0.468-2.424
        s0.156-1.684,0.468-2.412c0.312-0.728,0.74-1.356,1.284-1.884c0.543-0.528,1.191-0.939,1.944-1.236
        c0.752-0.296,1.56-0.444,2.424-0.444c0.864,0,1.672,0.148,2.424,0.444c0.752,0.297,1.404,0.708,1.956,1.236
        c0.552,0.527,0.984,1.156,1.296,1.884C85.904,17.285,86.06,18.089,86.06,18.969z M83.708,18.98c0-0.542-0.084-1.061-0.252-1.556
        c-0.169-0.494-0.414-0.929-0.734-1.304s-0.718-0.674-1.192-0.897s-1.015-0.335-1.625-0.335c-0.61,0-1.152,0.111-1.625,0.335
        c-0.474,0.224-0.871,0.522-1.191,0.897c-0.321,0.375-0.566,0.81-0.734,1.304C76.184,17.92,76.1,18.438,76.1,18.98
        c0,0.543,0.084,1.062,0.253,1.556c0.168,0.495,0.413,0.934,0.734,1.316c0.321,0.383,0.718,0.686,1.191,0.909
        c0.473,0.224,1.015,0.335,1.625,0.335c0.61,0,1.151-0.111,1.625-0.335s0.871-0.526,1.192-0.909s0.565-0.821,0.734-1.316
        C83.624,20.042,83.708,19.523,83.708,18.98z"/>
    <path fill="#666666" d="M96.428,16.184c-0.24-0.368-0.6-0.676-1.08-0.924s-0.992-0.372-1.536-0.372
        c-0.592,0-1.116,0.112-1.572,0.336c-0.456,0.225-0.844,0.524-1.164,0.9c-0.32,0.376-0.564,0.812-0.732,1.308
        s-0.252,1.017-0.252,1.56c0,0.545,0.084,1.064,0.252,1.561s0.412,0.933,0.732,1.308c0.32,0.376,0.712,0.677,1.176,0.9
        c0.464,0.225,0.992,0.336,1.584,0.336c0.576,0,1.1-0.111,1.572-0.336c0.472-0.224,0.86-0.528,1.164-0.912l1.512,1.368
        c-0.48,0.561-1.08,0.996-1.8,1.308c-0.72,0.312-1.536,0.468-2.448,0.468c-0.88,0-1.692-0.144-2.436-0.432
        c-0.744-0.288-1.388-0.691-1.932-1.212c-0.544-0.52-0.972-1.147-1.284-1.884s-0.468-1.561-0.468-2.473
        c0-0.896,0.152-1.711,0.456-2.447c0.304-0.736,0.728-1.368,1.272-1.896c0.543-0.527,1.188-0.936,1.932-1.224
        c0.744-0.288,1.548-0.433,2.412-0.433c0.8,0,1.596,0.16,2.388,0.48s1.419,0.784,1.884,1.392L96.428,16.184z"/>
    <path fill="#666666" d="M103.1,23.24c0,0.417-0.152,0.784-0.456,1.104c-0.304,0.32-0.688,0.479-1.152,0.479
        c-0.448,0-0.828-0.155-1.14-0.468c-0.312-0.312-0.468-0.676-0.468-1.092c0-0.432,0.152-0.804,0.456-1.116
        c0.304-0.312,0.688-0.468,1.152-0.468c0.464,0,0.848,0.152,1.152,0.456C102.947,22.44,103.1,22.808,103.1,23.24z"/>
    <path fill="#666666" d="M116.635,18.969c0,0.88-0.156,1.688-0.468,2.424c-0.312,0.736-0.744,1.372-1.296,1.908
        c-0.552,0.536-1.204,0.952-1.956,1.248c-0.752,0.296-1.56,0.443-2.424,0.443c-0.864,0-1.672-0.147-2.424-0.443
        c-0.752-0.296-1.4-0.712-1.944-1.248c-0.544-0.536-0.972-1.172-1.284-1.908c-0.312-0.735-0.468-1.544-0.468-2.424
        s0.156-1.684,0.468-2.412c0.312-0.728,0.74-1.356,1.284-1.884c0.543-0.528,1.191-0.939,1.944-1.236
        c0.752-0.296,1.56-0.444,2.424-0.444c0.864,0,1.672,0.148,2.424,0.444c0.752,0.297,1.404,0.708,1.956,1.236
        c0.552,0.527,0.984,1.156,1.296,1.884C116.479,17.285,116.635,18.089,116.635,18.969z M114.283,18.98
        c0-0.542-0.084-1.061-0.252-1.556c-0.169-0.494-0.414-0.929-0.734-1.304s-0.718-0.674-1.192-0.897s-1.015-0.335-1.625-0.335
        c-0.61,0-1.152,0.111-1.625,0.335c-0.474,0.224-0.871,0.522-1.191,0.897c-0.321,0.375-0.566,0.81-0.734,1.304
        c-0.169,0.495-0.253,1.014-0.253,1.556c0,0.543,0.084,1.062,0.253,1.556c0.168,0.495,0.413,0.934,0.734,1.316
        c0.321,0.383,0.718,0.686,1.191,0.909c0.473,0.224,1.015,0.335,1.625,0.335c0.61,0,1.151-0.111,1.625-0.335
        s0.871-0.526,1.192-0.909s0.565-0.821,0.734-1.316C114.199,20.042,114.283,19.523,114.283,18.98z"/>
    <path fill="#666666" d="M119.251,14.577c-0.016-0.48-0.04-0.904-0.072-1.272h2.136c0.032,0.288,0.056,0.62,0.072,0.996
        c0.016,0.376,0.024,0.684,0.024,0.924h0.072c0.32-0.672,0.788-1.212,1.404-1.62c0.616-0.408,1.308-0.612,2.076-0.612
        c0.352,0,0.648,0.033,0.888,0.097l-0.096,2.088c-0.32-0.08-0.664-0.12-1.032-0.12c-0.544,0-1.016,0.101-1.416,0.3
        c-0.4,0.2-0.732,0.468-0.996,0.805c-0.264,0.336-0.46,0.724-0.588,1.163c-0.128,0.44-0.192,0.9-0.192,1.381v5.976h-2.256v-8.928
        C119.275,15.449,119.267,15.056,119.251,14.577z"/>
    <path fill="#666666" d="M128.419,26.625c0.496,0.56,1.116,1.008,1.86,1.344c0.744,0.336,1.508,0.504,2.292,0.504
        c0.752,0,1.384-0.108,1.896-0.324s0.924-0.512,1.236-0.888s0.536-0.82,0.672-1.332c0.136-0.513,0.204-1.064,0.204-1.656v-1.464
        h-0.048c-0.416,0.641-0.984,1.128-1.704,1.464c-0.72,0.336-1.488,0.504-2.304,0.504c-0.864,0-1.652-0.151-2.364-0.456
        c-0.712-0.304-1.316-0.72-1.812-1.248c-0.496-0.527-0.88-1.147-1.152-1.859s-0.408-1.477-0.408-2.292
        c0-0.816,0.136-1.584,0.408-2.305c0.272-0.72,0.656-1.348,1.152-1.884c0.496-0.535,1.096-0.96,1.8-1.271
        c0.704-0.312,1.488-0.469,2.352-0.469c0.816,0,1.596,0.177,2.34,0.528c0.744,0.353,1.332,0.888,1.764,1.608h0.048v-1.824h2.184
        v10.8c0,0.832-0.104,1.628-0.312,2.388c-0.208,0.76-0.56,1.433-1.056,2.017s-1.144,1.052-1.944,1.404
        c-0.8,0.352-1.792,0.527-2.976,0.527c-0.992,0-1.988-0.18-2.988-0.54c-1-0.359-1.86-0.868-2.58-1.523L128.419,26.625z
         M129.091,18.873c0,0.527,0.084,1.031,0.253,1.512c0.168,0.479,0.417,0.904,0.746,1.271c0.329,0.369,0.726,0.664,1.192,0.889
        c0.465,0.224,0.995,0.336,1.589,0.336c0.577,0,1.107-0.104,1.589-0.312c0.481-0.207,0.891-0.491,1.228-0.852
        s0.598-0.784,0.782-1.272c0.185-0.487,0.277-1.012,0.277-1.571c0-0.544-0.093-1.057-0.277-1.536
        c-0.185-0.48-0.449-0.904-0.794-1.272c-0.345-0.367-0.755-0.66-1.228-0.876c-0.474-0.216-1-0.324-1.577-0.324
        c-0.594,0-1.124,0.108-1.589,0.324c-0.466,0.216-0.863,0.504-1.192,0.864s-0.578,0.784-0.746,1.271
        C129.175,17.812,129.091,18.329,129.091,18.873z"/>
</g>
<g><a xlink:href="/" pointer-events="all" target="_top"><polygon fill="none" points="0,0 145,0 145,35 0,35 0,0"/></a></g>

</g>


<!-- BidirectionalIndexType -->
<g id="node1" class="node">
<g id="a_node1"><a xlink:href="/protocol/BidirectionalIndexType/" target="_top">
<path fill="#999999" stroke="#999999" d="M1448.73,-254C1448.73,-254 1333.27,-254 1333.27,-254 1329.61,-254 1325.94,-250.333 1325.94,-246.667 1325.94,-246.667 1325.94,-239.333 1325.94,-239.333 1325.94,-235.667 1329.61,-232 1333.27,-232 1333.27,-232 1448.73,-232 1448.73,-232 1452.39,-232 1456.06,-235.667 1456.06,-239.333 1456.06,-239.333 1456.06,-246.667 1456.06,-246.667 1456.06,-250.333 1452.39,-254 1448.73,-254"/>
<text text-anchor="middle" x="1391" y="-239.4" font-family="Helvetica,sans-Serif" font-size="12.00" fill="white">BidirectionalIndexType</text>
</a>
</g>
</g>
<!-- RandomAccessIndexType -->
<g id="node10" class="node">
<g id="a_node10"><a xlink:href="/protocol/RandomAccessIndexType/" target="_top">
<path fill="#999999" stroke="#999999" d="M789.225,-196C789.225,-196 654.775,-196 654.775,-196 651.108,-196 647.441,-192.333 647.441,-188.667 647.441,-188.667 647.441,-181.333 647.441,-181.333 647.441,-177.667 651.108,-174 654.775,-174 654.775,-174 789.225,-174 789.225,-174 792.892,-174 796.559,-177.667 796.559,-181.333 796.559,-181.333 796.559,-188.667 796.559,-188.667 796.559,-192.333 792.892,-196 789.225,-196"/>
<text text-anchor="middle" x="722" y="-181.4" font-family="Helvetica,sans-Serif" font-size="12.00" fill="white">RandomAccessIndexType</text>
</a>
</g>
</g>
<!-- BidirectionalIndexType&#45;&gt;RandomAccessIndexType -->
<g id="edge3" class="edge">
<path fill="none" stroke="#cccccc" d="M1325.94,-236.554C1204.26,-226.368 942.313,-204.442 806.908,-193.107"/>
<polygon fill="#cccccc" stroke="#cccccc" points="806.845,-189.59 796.588,-192.244 806.261,-196.566 806.845,-189.59"/>
</g>
<!-- ReverseBidirectionalIndex -->
<g id="node11" class="node">
<g id="a_node11"><a xlink:href="/type/ReverseBidirectionalIndex/" target="_top">
<polygon fill="#999999" stroke="#999999" points="1825.55,-22 1676.45,-22 1676.45,-0 1825.55,-0 1825.55,-22"/>
<text text-anchor="middle" x="1751" y="-7.4" font-family="Helvetica,sans-Serif" font-size="12.00" fill="white">ReverseBidirectionalIndex</text>
</a>
</g>
</g>
<!-- BidirectionalIndexType&#45;&gt;ReverseBidirectionalIndex -->
<g id="edge4" class="edge">
<path fill="none" stroke="#cccccc" d="M1406.93,-231.82C1463.97,-195.378 1658.24,-71.2645 1726.8,-27.4612"/>
<polygon fill="#cccccc" stroke="#cccccc" points="1728.71,-30.3954 1735.25,-22.062 1724.94,-24.4965 1728.71,-30.3954"/>
</g>
<!-- String.Index -->
<g id="node14" class="node">
<g id="a_node14"><a xlink:href="/type/String.Index/" target="_top">
<polygon fill="#999999" stroke="#999999" points="1460.03,-22 1385.97,-22 1385.97,-0 1460.03,-0 1460.03,-22"/>
<text text-anchor="middle" x="1423" y="-7.4" font-family="Helvetica,sans-Serif" font-size="12.00" fill="white">String.Index</text>
</a>
</g>
</g>
<!-- BidirectionalIndexType&#45;&gt;String.Index -->
<g id="edge5" class="edge">
<path fill="none" stroke="#cccccc" d="M1392.42,-231.82C1397.32,-196.568 1413.64,-79.2764 1420.22,-32.0032"/>
<polygon fill="#cccccc" stroke="#cccccc" points="1423.69,-32.449 1421.6,-22.062 1416.76,-31.4843 1423.69,-32.449"/>
</g>
<!-- String.UTF16View.Index -->
<g id="node15" class="node">
<g id="a_node15"><a xlink:href="/type/String.UTF16View.Index/" target="_top">
<polygon fill="#999999" stroke="#999999" points="1367.39,-22 1228.61,-22 1228.61,-0 1367.39,-0 1367.39,-22"/>
<text text-anchor="middle" x="1298" y="-7.4" font-family="Helvetica,sans-Serif" font-size="12.00" fill="white">String.UTF16View.Index</text>
</a>
</g>
</g>
<!-- BidirectionalIndexType&#45;&gt;String.UTF16View.Index -->
<g id="edge6" class="edge">
<path fill="none" stroke="#cccccc" d="M1386.88,-231.82C1372.57,-196.419 1324.8,-78.2851 1305.85,-31.4085"/>
<polygon fill="#cccccc" stroke="#cccccc" points="1309.06,-30.0208 1302.07,-22.062 1302.57,-32.6449 1309.06,-30.0208"/>
</g>
<!-- String.UnicodeScalarView.Index -->
<g id="node16" class="node">
<g id="a_node16"><a xlink:href="/type/String.UnicodeScalarView.Index/" target="_top">
<polygon fill="#999999" stroke="#999999" points="1657.92,-22 1478.08,-22 1478.08,-0 1657.92,-0 1657.92,-22"/>
<text text-anchor="middle" x="1568" y="-7.4" font-family="Helvetica,sans-Serif" font-size="12.00" fill="white">String.UnicodeScalarView.Index</text>
</a>
</g>
</g>
<!-- BidirectionalIndexType&#45;&gt;String.UnicodeScalarView.Index -->
<g id="edge7" class="edge">
<path fill="none" stroke="#cccccc" d="M1398.83,-231.82C1426.31,-196.122 1518.52,-76.2938 1553.96,-30.2419"/>
<polygon fill="#cccccc" stroke="#cccccc" points="1556.93,-32.1216 1560.26,-22.062 1551.38,-27.8524 1556.93,-32.1216"/>
</g>
<!-- Bit -->
<g id="node2" class="node">
<g id="a_node2"><a xlink:href="/type/Bit/" target="_top">
<polygon fill="#999999" stroke="#999999" points="1210,-22 1156,-22 1156,-0 1210,-0 1210,-22"/>
<text text-anchor="middle" x="1183" y="-7.4" font-family="Helvetica,sans-Serif" font-size="12.00" fill="white">Bit</text>
</a>
</g>
</g>
<!-- Equatable -->
<g id="node3" class="node">
<g id="a_node3"><a xlink:href="/protocol/Equatable/" target="_top">
<path fill="#999999" stroke="#999999" d="M1214.7,-486C1214.7,-486 1165.3,-486 1165.3,-486 1161.63,-486 1157.96,-482.333 1157.96,-478.667 1157.96,-478.667 1157.96,-471.333 1157.96,-471.333 1157.96,-467.667 1161.63,-464 1165.3,-464 1165.3,-464 1214.7,-464 1214.7,-464 1218.37,-464 1222.04,-467.667 1222.04,-471.333 1222.04,-471.333 1222.04,-478.667 1222.04,-478.667 1222.04,-482.333 1218.37,-486 1214.7,-486"/>
<text text-anchor="middle" x="1190" y="-471.4" font-family="Helvetica,sans-Serif" font-size="12.00" fill="white">Equatable</text>
</a>
</g>
</g>
<!-- _Incrementable -->
<g id="node27" class="node">
<g id="a_node27"><a xlink:href="/protocol/_Incrementable/" target="_top">
<path fill="#999999" stroke="#999999" d="M1228.71,-428C1228.71,-428 1151.29,-428 1151.29,-428 1147.63,-428 1143.96,-424.333 1143.96,-420.667 1143.96,-420.667 1143.96,-413.333 1143.96,-413.333 1143.96,-409.667 1147.63,-406 1151.29,-406 1151.29,-406 1228.71,-406 1228.71,-406 1232.37,-406 1236.04,-409.667 1236.04,-413.333 1236.04,-413.333 1236.04,-420.667 1236.04,-420.667 1236.04,-424.333 1232.37,-428 1228.71,-428"/>
<text text-anchor="middle" x="1190" y="-413.4" font-family="Helvetica,sans-Serif" font-size="12.00" fill="white">_Incrementable</text>
</a>
</g>
</g>
<!-- Equatable&#45;&gt;_Incrementable -->
<g id="edge40" class="edge">
<path fill="none" stroke="#cccccc" d="M1190,-463.988C1190,-456.91 1190,-447.171 1190,-438.478"/>
<polygon fill="#cccccc" stroke="#cccccc" points="1193.5,-438.304 1190,-428.304 1186.5,-438.304 1193.5,-438.304"/>
</g>
<!-- Int -->
<g id="node4" class="node">
<g id="a_node4"><a xlink:href="/type/Int/" target="_top">
<polygon fill="#999999" stroke="#999999" points="744,-22 690,-22 690,-0 744,-0 744,-22"/>
<text text-anchor="middle" x="717" y="-7.4" font-family="Helvetica,sans-Serif" font-size="12.00" fill="white">Int</text>
</a>
</g>
</g>
<!-- Int&#45;&gt;Bit -->
<g id="edge24" class="edge">
<path fill="none" stroke="#cccccc" d="M729.779,-22.0854C738.283,-28.7029 750.052,-36.4837 762,-40 842.156,-63.5909 1057.84,-63.5909 1138,-40 1146.4,-37.5276 1154.71,-32.9469 1161.86,-28.1447"/>
<polygon fill="#cccccc" stroke="#cccccc" points="1164.18,-30.7891 1170.22,-22.0854 1160.07,-25.122 1164.18,-30.7891"/>
</g>
<!-- Int16 -->
<g id="node5" class="node">
<g id="a_node5"><a xlink:href="/type/Int16/" target="_top">
<polygon fill="#999999" stroke="#999999" points="816,-22 762,-22 762,-0 816,-0 816,-22"/>
<text text-anchor="middle" x="789" y="-7.4" font-family="Helvetica,sans-Serif" font-size="12.00" fill="white">Int16</text>
</a>
</g>
</g>
<!-- Int32 -->
<g id="node6" class="node">
<g id="a_node6"><a xlink:href="/type/Int32/" target="_top">
<polygon fill="#999999" stroke="#999999" points="888,-22 834,-22 834,-0 888,-0 888,-22"/>
<text text-anchor="middle" x="861" y="-7.4" font-family="Helvetica,sans-Serif" font-size="12.00" fill="white">Int32</text>
</a>
</g>
</g>
<!-- Int64 -->
<g id="node7" class="node">
<g id="a_node7"><a xlink:href="/type/Int64/" target="_top">
<polygon fill="#999999" stroke="#999999" points="600,-22 546,-22 546,-0 600,-0 600,-22"/>
<text text-anchor="middle" x="573" y="-7.4" font-family="Helvetica,sans-Serif" font-size="12.00" fill="white">Int64</text>
</a>
</g>
</g>
<!-- Int8 -->
<g id="node8" class="node">
<g id="a_node8"><a xlink:href="/type/Int8/" target="_top">
<polygon fill="#999999" stroke="#999999" points="672,-22 618,-22 618,-0 672,-0 672,-22"/>
<text text-anchor="middle" x="645" y="-7.4" font-family="Helvetica,sans-Serif" font-size="12.00" fill="white">Int8</text>
</a>
</g>
</g>
<!-- IntegerType -->
<g id="node9" class="node">
<g id="a_node9"><a xlink:href="/protocol/IntegerType/" target="_top">
<path fill="#999999" stroke="#999999" d="M527.202,-138C527.202,-138 468.798,-138 468.798,-138 465.132,-138 461.465,-134.333 461.465,-130.667 461.465,-130.667 461.465,-123.333 461.465,-123.333 461.465,-119.667 465.132,-116 468.798,-116 468.798,-116 527.202,-116 527.202,-116 530.868,-116 534.535,-119.667 534.535,-123.333 534.535,-123.333 534.535,-130.667 534.535,-130.667 534.535,-134.333 530.868,-138 527.202,-138"/>
<text text-anchor="middle" x="498" y="-123.4" font-family="Helvetica,sans-Serif" font-size="12.00" fill="white">IntegerType</text>
</a>
</g>
</g>
<!-- SignedIntegerType -->
<g id="node13" class="node">
<g id="a_node13"><a xlink:href="/protocol/SignedIntegerType/" target="_top">
<path fill="#999999" stroke="#999999" d="M769.727,-80C769.727,-80 674.273,-80 674.273,-80 670.606,-80 666.94,-76.3333 666.94,-72.6667 666.94,-72.6667 666.94,-65.3333 666.94,-65.3333 666.94,-61.6667 670.606,-58 674.273,-58 674.273,-58 769.727,-58 769.727,-58 773.394,-58 777.06,-61.6667 777.06,-65.3333 777.06,-65.3333 777.06,-72.6667 777.06,-72.6667 777.06,-76.3333 773.394,-80 769.727,-80"/>
<text text-anchor="middle" x="722" y="-65.4" font-family="Helvetica,sans-Serif" font-size="12.00" fill="white">SignedIntegerType</text>
</a>
</g>
</g>
<!-- IntegerType&#45;&gt;SignedIntegerType -->
<g id="edge25" class="edge">
<path fill="none" stroke="#cccccc" d="M534.488,-116.878C571.824,-107.544 630.116,-92.971 671.792,-82.552"/>
<polygon fill="#cccccc" stroke="#cccccc" points="672.889,-85.8857 681.741,-80.0647 671.191,-79.0947 672.889,-85.8857"/>
</g>
<!-- UnsignedIntegerType -->
<g id="node24" class="node">
<g id="a_node24"><a xlink:href="/protocol/UnsignedIntegerType/" target="_top">
<path fill="#999999" stroke="#999999" d="M433.728,-80C433.728,-80 324.272,-80 324.272,-80 320.605,-80 316.938,-76.3333 316.938,-72.6667 316.938,-72.6667 316.938,-65.3333 316.938,-65.3333 316.938,-61.6667 320.605,-58 324.272,-58 324.272,-58 433.728,-58 433.728,-58 437.395,-58 441.062,-61.6667 441.062,-65.3333 441.062,-65.3333 441.062,-72.6667 441.062,-72.6667 441.062,-76.3333 437.395,-80 433.728,-80"/>
<text text-anchor="middle" x="379" y="-65.4" font-family="Helvetica,sans-Serif" font-size="12.00" fill="white">UnsignedIntegerType</text>
</a>
</g>
</g>
<!-- IntegerType&#45;&gt;UnsignedIntegerType -->
<g id="edge26" class="edge">
<path fill="none" stroke="#cccccc" d="M476.725,-115.988C458.058,-107.204 430.685,-94.3222 409.654,-84.4255"/>
<polygon fill="#cccccc" stroke="#cccccc" points="411.03,-81.205 400.492,-80.1138 408.05,-87.5387 411.03,-81.205"/>
</g>
<!-- RandomAccessIndexType&#45;&gt;Bit -->
<g id="edge8" class="edge">
<path fill="none" stroke="#cccccc" d="M769.207,-173.944C805.227,-165.742 855.835,-153.071 899,-138 994.923,-104.508 1103.44,-52.0885 1154.09,-26.7261"/>
<polygon fill="#cccccc" stroke="#cccccc" points="1155.78,-29.7927 1163.14,-22.1718 1152.63,-23.5394 1155.78,-29.7927"/>
</g>
<!-- RandomAccessIndexType&#45;&gt;Int -->
<g id="edge9" class="edge">
<path fill="none" stroke="#cccccc" d="M734.266,-173.798C758.613,-152.257 808.807,-100.615 786,-58 778.784,-44.517 765.677,-34.3035 752.811,-26.9675"/>
<polygon fill="#cccccc" stroke="#cccccc" points="754.054,-23.6678 743.572,-22.1287 750.806,-29.8688 754.054,-23.6678"/>
</g>
<!-- RandomAccessIndexType&#45;&gt;Int16 -->
<g id="edge10" class="edge">
<path fill="none" stroke="#cccccc" d="M745.291,-173.881C760.301,-166.175 779.002,-154.135 790,-138 810.288,-108.235 808.302,-93.6296 803,-58 801.684,-49.1587 799.02,-39.6657 796.365,-31.613"/>
<polygon fill="#cccccc" stroke="#cccccc" points="799.615,-30.3047 792.995,-22.0327 793.012,-32.6275 799.615,-30.3047"/>
</g>
<!-- RandomAccessIndexType&#45;&gt;Int32 -->
<g id="edge11" class="edge">
<path fill="none" stroke="#cccccc" d="M753.175,-173.939C771.79,-166.556 794.709,-154.852 810,-138 838.015,-107.125 851.651,-58.8603 857.413,-31.9091"/>
<polygon fill="#cccccc" stroke="#cccccc" points="860.849,-32.5744 859.363,-22.0843 853.983,-31.2115 860.849,-32.5744"/>
</g>
<!-- RandomAccessIndexType&#45;&gt;Int64 -->
<g id="edge12" class="edge">
<path fill="none" stroke="#cccccc" d="M709.977,-173.909C699.519,-164.91 684.175,-151.161 672,-138 638.686,-101.988 604.292,-55.8018 586.114,-30.5459"/>
<polygon fill="#cccccc" stroke="#cccccc" points="588.844,-28.3468 580.182,-22.2457 583.149,-32.4168 588.844,-28.3468"/>
</g>
<!-- RandomAccessIndexType&#45;&gt;Int8 -->
<g id="edge13" class="edge">
<path fill="none" stroke="#cccccc" d="M713.905,-173.749C700.178,-155.827 672.423,-117.156 658,-80 652.087,-64.7685 648.789,-46.5393 646.995,-32.7907"/>
<polygon fill="#cccccc" stroke="#cccccc" points="650.427,-31.9994 645.817,-22.4599 643.472,-32.7919 650.427,-31.9994"/>
</g>
<!-- RandomAccessIndexType&#45;&gt;IntegerType -->
<g id="edge14" class="edge">
<path fill="none" stroke="#cccccc" d="M681.953,-173.988C643.322,-164.331 584.886,-149.721 544.281,-139.57"/>
<polygon fill="#cccccc" stroke="#cccccc" points="544.915,-136.121 534.365,-137.091 543.218,-142.912 544.915,-136.121"/>
</g>
<!-- ReverseRandomAccessIndex -->
<g id="node12" class="node">
<g id="a_node12"><a xlink:href="/type/ReverseRandomAccessIndex/" target="_top">
<polygon fill="#999999" stroke="#999999" points="168.056,-22 -0.0556723,-22 -0.0556723,-0 168.056,-0 168.056,-22"/>
<text text-anchor="middle" x="84" y="-7.4" font-family="Helvetica,sans-Serif" font-size="12.00" fill="white">ReverseRandomAccessIndex</text>
</a>
</g>
</g>
<!-- RandomAccessIndexType&#45;&gt;ReverseRandomAccessIndex -->
<g id="edge15" class="edge">
<path fill="none" stroke="#cccccc" d="M647.462,-180.104C541.398,-173.879 352.615,-160.092 288,-138 213.924,-112.673 138.592,-56.5596 103.825,-28.5604"/>
<polygon fill="#cccccc" stroke="#cccccc" points="105.847,-25.6928 95.8855,-22.0836 101.422,-31.1169 105.847,-25.6928"/>
</g>
<!-- RandomAccessIndexType&#45;&gt;String.UTF16View.Index -->
<g id="edge23" class="edge">
<path fill="none" stroke="#cccccc" d="M780.414,-173.994C825.048,-165.818 887.894,-153.158 942,-138 1062.45,-104.256 1201.1,-50.8229 1263.92,-25.792"/>
<polygon fill="#cccccc" stroke="#cccccc" points="1265.35,-28.9893 1273.34,-22.026 1262.75,-22.4898 1265.35,-28.9893"/>
</g>
<!-- UInt -->
<g id="node17" class="node">
<g id="a_node17"><a xlink:href="/type/UInt/" target="_top">
<polygon fill="#999999" stroke="#999999" points="240,-22 186,-22 186,-0 240,-0 240,-22"/>
<text text-anchor="middle" x="213" y="-7.4" font-family="Helvetica,sans-Serif" font-size="12.00" fill="white">UInt</text>
</a>
</g>
</g>
<!-- RandomAccessIndexType&#45;&gt;UInt -->
<g id="edge16" class="edge">
<path fill="none" stroke="#cccccc" d="M647.298,-181.959C546.99,-178.12 374.998,-167.36 320,-138 273.801,-113.337 239.096,-59.8113 222.974,-31.103"/>
<polygon fill="#cccccc" stroke="#cccccc" points="225.913,-29.1813 218.058,-22.0715 219.765,-32.528 225.913,-29.1813"/>
</g>
<!-- UInt16 -->
<g id="node18" class="node">
<g id="a_node18"><a xlink:href="/type/UInt16/" target="_top">
<polygon fill="#999999" stroke="#999999" points="312,-22 258,-22 258,-0 312,-0 312,-22"/>
<text text-anchor="middle" x="285" y="-7.4" font-family="Helvetica,sans-Serif" font-size="12.00" fill="white">UInt16</text>
</a>
</g>
</g>
<!-- RandomAccessIndexType&#45;&gt;UInt16 -->
<g id="edge17" class="edge">
<path fill="none" stroke="#cccccc" d="M647.274,-180.63C555.101,-175.447 404.521,-163.335 355,-138 323.645,-121.958 317.588,-111.07 301,-80 293.068,-65.1423 289.033,-46.3932 287.002,-32.3472"/>
<polygon fill="#cccccc" stroke="#cccccc" points="290.455,-31.7554 285.766,-22.255 283.507,-32.6063 290.455,-31.7554"/>
</g>
<!-- UInt32 -->
<g id="node19" class="node">
<g id="a_node19"><a xlink:href="/type/UInt32/" target="_top">
<polygon fill="#999999" stroke="#999999" points="384,-22 330,-22 330,-0 384,-0 384,-22"/>
<text text-anchor="middle" x="357" y="-7.4" font-family="Helvetica,sans-Serif" font-size="12.00" fill="white">UInt32</text>
</a>
</g>
</g>
<!-- RandomAccessIndexType&#45;&gt;UInt32 -->
<g id="edge18" class="edge">
<path fill="none" stroke="#cccccc" d="M647.443,-177.122C538.517,-165.241 344.788,-136.521 308,-80 296.199,-61.8687 314.631,-41.8625 332.161,-28.2743"/>
<polygon fill="#cccccc" stroke="#cccccc" points="334.537,-30.8736 340.557,-22.1556 330.414,-25.2163 334.537,-30.8736"/>
</g>
<!-- UInt64 -->
<g id="node20" class="node">
<g id="a_node20"><a xlink:href="/type/UInt64/" target="_top">
<polygon fill="#999999" stroke="#999999" points="456,-22 402,-22 402,-0 456,-0 456,-22"/>
<text text-anchor="middle" x="429" y="-7.4" font-family="Helvetica,sans-Serif" font-size="12.00" fill="white">UInt64</text>
</a>
</g>
</g>
<!-- RandomAccessIndexType&#45;&gt;UInt64 -->
<g id="edge19" class="edge">
<path fill="none" stroke="#cccccc" d="M647.406,-181.598C576.452,-177.573 476.936,-166.806 452,-138 428.722,-111.109 457.992,-92.6572 450,-58 447.868,-48.7558 443.794,-39.1194 439.798,-31.0691"/>
<polygon fill="#cccccc" stroke="#cccccc" points="442.862,-29.3768 435.097,-22.1691 436.673,-32.6462 442.862,-29.3768"/>
</g>
<!-- UInt8 -->
<g id="node21" class="node">
<g id="a_node21"><a xlink:href="/type/UInt8/" target="_top">
<polygon fill="#999999" stroke="#999999" points="528,-22 474,-22 474,-0 528,-0 528,-22"/>
<text text-anchor="middle" x="501" y="-7.4" font-family="Helvetica,sans-Serif" font-size="12.00" fill="white">UInt8</text>
</a>
</g>
</g>
<!-- RandomAccessIndexType&#45;&gt;UInt8 -->
<g id="edge20" class="edge">
<path fill="none" stroke="#cccccc" d="M704.698,-173.84C689.839,-164.907 668.029,-151.291 650,-138 600.822,-101.748 546.988,-54.0419 519.463,-29.011"/>
<polygon fill="#cccccc" stroke="#cccccc" points="521.543,-26.1705 511.8,-22.0085 516.821,-31.338 521.543,-26.1705"/>
</g>
<!-- UnsafeMutablePointer -->
<g id="node22" class="node">
<g id="a_node22"><a xlink:href="/type/UnsafeMutablePointer/" target="_top">
<polygon fill="#999999" stroke="#999999" points="1034.05,-22 905.949,-22 905.949,-0 1034.05,-0 1034.05,-22"/>
<text text-anchor="middle" x="970" y="-7.4" font-family="Helvetica,sans-Serif" font-size="12.00" fill="white">UnsafeMutablePointer</text>
</a>
</g>
</g>
<!-- RandomAccessIndexType&#45;&gt;UnsafeMutablePointer -->
<g id="edge21" class="edge">
<path fill="none" stroke="#cccccc" d="M753.755,-173.997C776.526,-166.061 807.397,-153.702 832,-138 881.601,-106.345 930.188,-56.2989 954.3,-29.8102"/>
<polygon fill="#cccccc" stroke="#cccccc" points="957.157,-31.8677 961.239,-22.0909 951.951,-27.188 957.157,-31.8677"/>
</g>
<!-- UnsafePointer -->
<g id="node23" class="node">
<g id="a_node23"><a xlink:href="/type/UnsafePointer/" target="_top">
<polygon fill="#999999" stroke="#999999" points="1138.03,-22 1051.97,-22 1051.97,-0 1138.03,-0 1138.03,-22"/>
<text text-anchor="middle" x="1095" y="-7.4" font-family="Helvetica,sans-Serif" font-size="12.00" fill="white">UnsafePointer</text>
</a>
</g>
</g>
<!-- RandomAccessIndexType&#45;&gt;UnsafePointer -->
<g id="edge22" class="edge">
<path fill="none" stroke="#cccccc" d="M758.058,-173.952C786.499,-165.58 826.916,-152.683 861,-138 939.989,-103.972 1028.01,-52.6955 1070.03,-27.3297"/>
<polygon fill="#cccccc" stroke="#cccccc" points="1072.02,-30.2175 1078.75,-22.0377 1068.39,-24.2331 1072.02,-30.2175"/>
</g>
<!-- SignedIntegerType&#45;&gt;Int -->
<g id="edge27" class="edge">
<path fill="none" stroke="#cccccc" d="M721.106,-57.9883C720.474,-50.9098 719.605,-41.1714 718.828,-32.4779"/>
<polygon fill="#cccccc" stroke="#cccccc" points="722.296,-31.953 717.92,-22.3039 715.323,-32.5755 722.296,-31.953"/>
</g>
<!-- SignedIntegerType&#45;&gt;Int16 -->
<g id="edge28" class="edge">
<path fill="none" stroke="#cccccc" d="M733.978,-57.9883C743.671,-49.8873 757.531,-38.3026 768.915,-28.7873"/>
<polygon fill="#cccccc" stroke="#cccccc" points="771.244,-31.4025 776.672,-22.3039 766.755,-26.0315 771.244,-31.4025"/>
</g>
<!-- SignedIntegerType&#45;&gt;Int32 -->
<g id="edge29" class="edge">
<path fill="none" stroke="#cccccc" d="M746.85,-57.9883C769.048,-49.0453 801.784,-35.8566 826.514,-25.8935"/>
<polygon fill="#cccccc" stroke="#cccccc" points="827.928,-29.0972 835.896,-22.1138 825.313,-22.6043 827.928,-29.0972"/>
</g>
<!-- SignedIntegerType&#45;&gt;Int64 -->
<g id="edge30" class="edge">
<path fill="none" stroke="#cccccc" d="M695.362,-57.9883C671.387,-48.9778 635.946,-35.6574 609.368,-25.6685"/>
<polygon fill="#cccccc" stroke="#cccccc" points="610.25,-22.2612 599.658,-22.0192 607.788,-28.8137 610.25,-22.2612"/>
</g>
<!-- SignedIntegerType&#45;&gt;Int8 -->
<g id="edge31" class="edge">
<path fill="none" stroke="#cccccc" d="M708.234,-57.9883C696.808,-49.6784 680.341,-37.7028 667.076,-28.0554"/>
<polygon fill="#cccccc" stroke="#cccccc" points="669.052,-25.165 658.906,-22.1138 664.935,-30.8262 669.052,-25.165"/>
</g>
<!-- UnsignedIntegerType&#45;&gt;UInt -->
<g id="edge32" class="edge">
<path fill="none" stroke="#cccccc" d="M349.323,-57.9883C321.506,-48.6044 279.832,-34.5458 249.888,-24.4442"/>
<polygon fill="#cccccc" stroke="#cccccc" points="250.814,-21.0628 240.22,-21.1826 248.576,-27.6955 250.814,-21.0628"/>
</g>
<!-- UnsignedIntegerType&#45;&gt;UInt16 -->
<g id="edge33" class="edge">
<path fill="none" stroke="#cccccc" d="M362.195,-57.9883C347.847,-49.441 326.99,-37.0155 310.572,-27.2343"/>
<polygon fill="#cccccc" stroke="#cccccc" points="312.359,-24.2251 301.977,-22.1138 308.776,-30.2388 312.359,-24.2251"/>
</g>
<!-- UnsignedIntegerType&#45;&gt;UInt32 -->
<g id="edge34" class="edge">
<path fill="none" stroke="#cccccc" d="M375.067,-57.9883C372.193,-50.6738 368.204,-40.5192 364.705,-31.6122"/>
<polygon fill="#cccccc" stroke="#cccccc" points="367.962,-30.3316 361.048,-22.3039 361.447,-32.8912 367.962,-30.3316"/>
</g>
<!-- UnsignedIntegerType&#45;&gt;UInt64 -->
<g id="edge35" class="edge">
<path fill="none" stroke="#cccccc" d="M387.939,-57.9883C394.891,-50.2019 404.717,-39.1971 413.013,-29.9049"/>
<polygon fill="#cccccc" stroke="#cccccc" points="415.751,-32.0943 419.8,-22.3039 410.529,-27.4322 415.751,-32.0943"/>
</g>
<!-- UnsignedIntegerType&#45;&gt;UInt8 -->
<g id="edge36" class="edge">
<path fill="none" stroke="#cccccc" d="M400.811,-57.9883C420.036,-49.164 448.265,-36.206 469.864,-26.2919"/>
<polygon fill="#cccccc" stroke="#cccccc" points="471.338,-29.4665 478.966,-22.1138 468.418,-23.1046 471.338,-29.4665"/>
</g>
<!-- _BidirectionalIndexType -->
<g id="node25" class="node">
<g id="a_node25"><a xlink:href="/protocol/_BidirectionalIndexType/" target="_top">
<path fill="#ee543d" stroke="#ee543d" d="M1251.23,-312C1251.23,-312 1128.77,-312 1128.77,-312 1125.1,-312 1121.44,-308.333 1121.44,-304.667 1121.44,-304.667 1121.44,-297.333 1121.44,-297.333 1121.44,-293.667 1125.1,-290 1128.77,-290 1128.77,-290 1251.23,-290 1251.23,-290 1254.9,-290 1258.56,-293.667 1258.56,-297.333 1258.56,-297.333 1258.56,-304.667 1258.56,-304.667 1258.56,-308.333 1254.9,-312 1251.23,-312"/>
<text text-anchor="middle" x="1190" y="-297.4" font-family="Helvetica,sans-Serif" font-size="12.00" fill="white">_BidirectionalIndexType</text>
</a>
</g>
</g>
<!-- _BidirectionalIndexType&#45;&gt;BidirectionalIndexType -->
<g id="edge1" class="edge">
<path fill="none" stroke="#cccccc" d="M1225.93,-289.988C1259.27,-280.7 1309.05,-266.832 1345.22,-256.754"/>
<polygon fill="#cccccc" stroke="#cccccc" points="1346.34,-260.075 1355.04,-254.019 1344.47,-253.332 1346.34,-260.075"/>
</g>
<!-- _RandomAccessIndexType -->
<g id="node28" class="node">
<g id="a_node28"><a xlink:href="/protocol/_RandomAccessIndexType/" target="_top">
<path fill="#999999" stroke="#999999" d="M1059.73,-254C1059.73,-254 918.269,-254 918.269,-254 914.602,-254 910.936,-250.333 910.936,-246.667 910.936,-246.667 910.936,-239.333 910.936,-239.333 910.936,-235.667 914.602,-232 918.269,-232 918.269,-232 1059.73,-232 1059.73,-232 1063.4,-232 1067.06,-235.667 1067.06,-239.333 1067.06,-239.333 1067.06,-246.667 1067.06,-246.667 1067.06,-250.333 1063.4,-254 1059.73,-254"/>
<text text-anchor="middle" x="989" y="-239.4" font-family="Helvetica,sans-Serif" font-size="12.00" fill="white">_RandomAccessIndexType</text>
</a>
</g>
</g>
<!-- _BidirectionalIndexType&#45;&gt;_RandomAccessIndexType -->
<g id="edge2" class="edge">
<path fill="none" stroke="#cccccc" d="M1154.07,-289.988C1120.73,-280.7 1070.95,-266.832 1034.78,-256.754"/>
<polygon fill="#cccccc" stroke="#cccccc" points="1035.53,-253.332 1024.96,-254.019 1033.66,-260.075 1035.53,-253.332"/>
</g>
<!-- _ForwardIndexType -->
<g id="node26" class="node">
<g id="a_node26"><a xlink:href="/protocol/_ForwardIndexType/" target="_top">
<path fill="#999999" stroke="#999999" d="M1240.71,-370C1240.71,-370 1139.29,-370 1139.29,-370 1135.62,-370 1131.95,-366.333 1131.95,-362.667 1131.95,-362.667 1131.95,-355.333 1131.95,-355.333 1131.95,-351.667 1135.62,-348 1139.29,-348 1139.29,-348 1240.71,-348 1240.71,-348 1244.38,-348 1248.05,-351.667 1248.05,-355.333 1248.05,-355.333 1248.05,-362.667 1248.05,-362.667 1248.05,-366.333 1244.38,-370 1240.71,-370"/>
<text text-anchor="middle" x="1190" y="-355.4" font-family="Helvetica,sans-Serif" font-size="12.00" fill="white">_ForwardIndexType</text>
</a>
</g>
</g>
<!-- _ForwardIndexType&#45;&gt;_BidirectionalIndexType -->
<g id="edge38" class="edge">
<path fill="none" stroke="#cccccc" d="M1190,-347.988C1190,-340.91 1190,-331.171 1190,-322.478"/>
<polygon fill="#cccccc" stroke="#cccccc" points="1193.5,-322.304 1190,-312.304 1186.5,-322.304 1193.5,-322.304"/>
</g>
<!-- _Incrementable&#45;&gt;_ForwardIndexType -->
<g id="edge39" class="edge">
<path fill="none" stroke="#cccccc" d="M1190,-405.988C1190,-398.91 1190,-389.171 1190,-380.478"/>
<polygon fill="#cccccc" stroke="#cccccc" points="1193.5,-380.304 1190,-370.304 1186.5,-380.304 1193.5,-380.304"/>
</g>
<!-- _RandomAccessIndexType&#45;&gt;RandomAccessIndexType -->
<g id="edge37" class="edge">
<path fill="none" stroke="#cccccc" d="M941.266,-231.988C896.034,-222.501 828.023,-208.237 779.755,-198.113"/>
<polygon fill="#cccccc" stroke="#cccccc" points="780.276,-194.647 769.77,-196.019 778.839,-201.498 780.276,-194.647"/>
</g>
</g>
</svg>
