<?xml version="1.0" encoding="UTF-8" standalone="no"?>
<!DOCTYPE svg PUBLIC "-//W3C//DTD SVG 1.1//EN"
 "http://www.w3.org/Graphics/SVG/1.1/DTD/svg11.dtd">
<!-- Generated by graphviz version 2.36.0 (20140111.2315)
 -->
<!-- Title: CollectionOfOne&lt;T&gt; &#45; Type Hierarchy &#45; SwiftDoc.org Pages: 1 -->
<svg width="248pt" height="369pt"
 viewBox="0.00 0.00 248.40 369.20" xmlns="http://www.w3.org/2000/svg" xmlns:xlink="http://www.w3.org/1999/xlink">
<g id="graph0" class="graph" transform="scale(1 1) rotate(0) translate(7.2 311.6)">
<title>CollectionOfOne&lt;T&gt; &#45; Type Hierarchy &#45; SwiftDoc.org</title>
<polygon fill="white" stroke="none" points="-7.2,57.6 -7.2,-311.6 241.2,-311.6 241.2,57.6 -7.2,57.6"/>
<!-- CollectionOfOne&lt;T&gt; -->
<g id="node1" class="node"><title>CollectionOfOne&lt;T&gt;</title>
<g id="a_node1"><a xlink:href="/type/CollectionOfOne/" xlink:title="CollectionOfOne&lt;T&gt;">
<polygon fill="#ee543d" stroke="#ee543d" points="209.541,-22 90.459,-22 90.459,-0 209.541,-0 209.541,-22"/>
<text text-anchor="middle" x="150" y="-7.4" font-family="Helvetica,sans-Serif" font-size="12.00" fill="white">CollectionOfOne&lt;T&gt;</text>
</a>
</g>
</g>
<!-- CollectionType -->
<g id="node2" class="node"><title>CollectionType</title>
<g id="a_node2"><a xlink:href="/protocol/CollectionType/" xlink:title="CollectionType">
<path fill="#999999" stroke="#999999" d="M138.704,-80C138.704,-80 65.2962,-80 65.2962,-80 61.6295,-80 57.9628,-76.3333 57.9628,-72.6667 57.9628,-72.6667 57.9628,-65.3333 57.9628,-65.3333 57.9628,-61.6667 61.6295,-58 65.2962,-58 65.2962,-58 138.704,-58 138.704,-58 142.37,-58 146.037,-61.6667 146.037,-65.3333 146.037,-65.3333 146.037,-72.6667 146.037,-72.6667 146.037,-76.3333 142.37,-80 138.704,-80"/>
<text text-anchor="middle" x="102" y="-65.4" font-family="Helvetica,sans-Serif" font-size="12.00" fill="white">CollectionType</text>
</a>
</g>
</g>
<!-- CollectionType&#45;&gt;CollectionOfOne&lt;T&gt; -->
<g id="edge1" class="edge"><title>CollectionType&#45;&gt;CollectionOfOne&lt;T&gt;</title>
<path fill="none" stroke="#cccccc" d="M110.581,-57.9883C117.255,-50.2019 126.688,-39.1971 134.653,-29.9049"/>
<polygon fill="#cccccc" stroke="#cccccc" points="137.318,-32.1742 141.168,-22.3039 132.003,-27.6187 137.318,-32.1742"/>
</g>
<!-- Reflectable -->
<g id="node3" class="node"><title>Reflectable</title>
<g id="a_node3"><a xlink:href="/protocol/Reflectable/" xlink:title="Reflectable">
<path fill="#999999" stroke="#999999" d="M226.693,-80C226.693,-80 171.307,-80 171.307,-80 167.64,-80 163.974,-76.3333 163.974,-72.6667 163.974,-72.6667 163.974,-65.3333 163.974,-65.3333 163.974,-61.6667 167.64,-58 171.307,-58 171.307,-58 226.693,-58 226.693,-58 230.36,-58 234.026,-61.6667 234.026,-65.3333 234.026,-65.3333 234.026,-72.6667 234.026,-72.6667 234.026,-76.3333 230.36,-80 226.693,-80"/>
<text text-anchor="middle" x="199" y="-65.4" font-family="Helvetica,sans-Serif" font-size="12.00" fill="white">Reflectable</text>
</a>
</g>
</g>
<!-- Reflectable&#45;&gt;CollectionOfOne&lt;T&gt; -->
<g id="edge2" class="edge"><title>Reflectable&#45;&gt;CollectionOfOne&lt;T&gt;</title>
<path fill="none" stroke="#cccccc" d="M190.24,-57.9883C183.427,-50.2019 173.797,-39.1971 165.667,-29.9049"/>
<polygon fill="#cccccc" stroke="#cccccc" points="168.235,-27.5249 159.016,-22.3039 162.967,-32.1344 168.235,-27.5249"/>
</g>
<!-- SequenceType -->
<g id="node4" class="node"><title>SequenceType</title>
<g id="a_node4"><a xlink:href="/protocol/SequenceType/" xlink:title="SequenceType">
<path fill="#999999" stroke="#999999" d="M195.718,-138C195.718,-138 120.282,-138 120.282,-138 116.615,-138 112.949,-134.333 112.949,-130.667 112.949,-130.667 112.949,-123.333 112.949,-123.333 112.949,-119.667 116.615,-116 120.282,-116 120.282,-116 195.718,-116 195.718,-116 199.385,-116 203.051,-119.667 203.051,-123.333 203.051,-123.333 203.051,-130.667 203.051,-130.667 203.051,-134.333 199.385,-138 195.718,-138"/>
<text text-anchor="middle" x="158" y="-123.4" font-family="Helvetica,sans-Serif" font-size="12.00" fill="white">SequenceType</text>
</a>
</g>
</g>
<!-- SequenceType&#45;&gt;CollectionType -->
<g id="edge4" class="edge"><title>SequenceType&#45;&gt;CollectionType</title>
<path fill="none" stroke="#cccccc" d="M147.988,-115.988C140.123,-108.123 128.974,-96.9745 119.624,-87.6239"/>
<polygon fill="#cccccc" stroke="#cccccc" points="121.85,-84.9001 112.304,-80.3039 116.9,-89.8499 121.85,-84.9001"/>
</g>
<!-- _CollectionType -->
<g id="node5" class="node"><title>_CollectionType</title>
<g id="a_node5"><a xlink:href="/protocol/_CollectionType/" xlink:title="_CollectionType">
<path fill="#999999" stroke="#999999" d="M87.2075,-138C87.2075,-138 6.79245,-138 6.79245,-138 3.12579,-138 -0.540879,-134.333 -0.540879,-130.667 -0.540879,-130.667 -0.540879,-123.333 -0.540879,-123.333 -0.540879,-119.667 3.12579,-116 6.79245,-116 6.79245,-116 87.2075,-116 87.2075,-116 90.8742,-116 94.5409,-119.667 94.5409,-123.333 94.5409,-123.333 94.5409,-130.667 94.5409,-130.667 94.5409,-134.333 90.8742,-138 87.2075,-138"/>
<text text-anchor="middle" x="47" y="-123.4" font-family="Helvetica,sans-Serif" font-size="12.00" fill="white">_CollectionType</text>
</a>
</g>
</g>
<!-- _CollectionType&#45;&gt;CollectionType -->
<g id="edge3" class="edge"><title>_CollectionType&#45;&gt;CollectionType</title>
<path fill="none" stroke="#cccccc" d="M56.8329,-115.988C64.5575,-108.123 75.5072,-96.9745 84.6908,-87.6239"/>
<polygon fill="#cccccc" stroke="#cccccc" points="87.3701,-89.8909 91.8801,-80.3039 82.3759,-84.9859 87.3701,-89.8909"/>
</g>
<!-- _SequenceType -->
<g id="node6" class="node"><title>_SequenceType</title>
<g id="a_node6"><a xlink:href="/protocol/_SequenceType/" xlink:title="_SequenceType">
<path fill="#999999" stroke="#999999" d="M146.724,-254C146.724,-254 65.2759,-254 65.2759,-254 61.6092,-254 57.9425,-250.333 57.9425,-246.667 57.9425,-246.667 57.9425,-239.333 57.9425,-239.333 57.9425,-235.667 61.6092,-232 65.2759,-232 65.2759,-232 146.724,-232 146.724,-232 150.391,-232 154.057,-235.667 154.057,-239.333 154.057,-239.333 154.057,-246.667 154.057,-246.667 154.057,-250.333 150.391,-254 146.724,-254"/>
<text text-anchor="middle" x="106" y="-239.4" font-family="Helvetica,sans-Serif" font-size="12.00" fill="white">_SequenceType</text>
</a>
</g>
</g>
<!-- _SequenceType&#45;&gt;_CollectionType -->
<g id="edge5" class="edge"><title>_SequenceType&#45;&gt;_CollectionType</title>
<path fill="none" stroke="#cccccc" d="M100.764,-231.883C90.9485,-212.917 69.6334,-171.732 56.9888,-147.3"/>
<polygon fill="#cccccc" stroke="#cccccc" points="60.0137,-145.53 52.3089,-138.258 53.797,-148.748 60.0137,-145.53"/>
</g>
<!-- _Sequence_Type -->
<g id="node7" class="node"><title>_Sequence_Type</title>
<g id="a_node7"><a xlink:href="/protocol/_Sequence_Type/" xlink:title="_Sequence_Type">
<path fill="#999999" stroke="#999999" d="M194.228,-196C194.228,-196 105.772,-196 105.772,-196 102.105,-196 98.4386,-192.333 98.4386,-188.667 98.4386,-188.667 98.4386,-181.333 98.4386,-181.333 98.4386,-177.667 102.105,-174 105.772,-174 105.772,-174 194.228,-174 194.228,-174 197.895,-174 201.561,-177.667 201.561,-181.333 201.561,-181.333 201.561,-188.667 201.561,-188.667 201.561,-192.333 197.895,-196 194.228,-196"/>
<text text-anchor="middle" x="150" y="-181.4" font-family="Helvetica,sans-Serif" font-size="12.00" fill="white">_Sequence_Type</text>
</a>
</g>
</g>
<!-- _SequenceType&#45;&gt;_Sequence_Type -->
<g id="edge7" class="edge"><title>_SequenceType&#45;&gt;_Sequence_Type</title>
<path fill="none" stroke="#cccccc" d="M113.866,-231.988C119.922,-224.281 128.456,-213.419 135.71,-204.187"/>
<polygon fill="#cccccc" stroke="#cccccc" points="138.478,-206.329 141.904,-196.304 132.974,-202.005 138.478,-206.329"/>
</g>
<!-- _Sequence_Type&#45;&gt;SequenceType -->
<g id="edge6" class="edge"><title>_Sequence_Type&#45;&gt;SequenceType</title>
<path fill="none" stroke="#cccccc" d="M151.43,-173.988C152.441,-166.91 153.833,-157.171 155.075,-148.478"/>
<polygon fill="#cccccc" stroke="#cccccc" points="158.579,-148.698 156.528,-138.304 151.649,-147.708 158.579,-148.698"/>
</g>
</g>
</svg>
