<?xml version="1.0" encoding="UTF-8" standalone="no"?>
<!DOCTYPE svg PUBLIC "-//W3C//DTD SVG 1.1//EN"
 "http://www.w3.org/Graphics/SVG/1.1/DTD/svg11.dtd">
<!-- Generated by graphviz version 2.36.0 (20140111.2315)
 -->
<!-- Title: _ForwardIndexType &#45; Type Hierarchy &#45; Swifter Pages: 1 -->
<svg width="2106pt" height="601pt"
 viewBox="0.00 0.00 2106.40 601.20" xmlns="http://www.w3.org/2000/svg" xmlns:xlink="http://www.w3.org/1999/xlink">
<g id="graph0" class="graph" transform="scale(1 1) rotate(0) translate(7.2 543.6)">
<g transform="translate(0 -543.6)">
<g>
    <path fill="#666666" d="M13.846,10.832c-0.336-0.464-0.792-0.844-1.368-1.14s-1.224-0.444-1.944-0.444
        c-0.384,0-0.772,0.052-1.164,0.156C8.977,9.509,8.622,9.677,8.301,9.908c-0.32,0.232-0.58,0.52-0.78,0.864
        c-0.2,0.344-0.3,0.756-0.3,1.236c0,0.464,0.092,0.852,0.276,1.164c0.184,0.312,0.432,0.576,0.744,0.792s0.68,0.4,1.104,0.552
        c0.423,0.152,0.876,0.309,1.356,0.468c0.576,0.177,1.16,0.376,1.752,0.601c0.592,0.224,1.128,0.52,1.608,0.888
        s0.872,0.828,1.176,1.38s0.456,1.252,0.456,2.101c0,0.88-0.164,1.644-0.492,2.292c-0.328,0.647-0.765,1.184-1.308,1.607
        c-0.544,0.424-1.172,0.74-1.884,0.948s-1.444,0.312-2.196,0.312c-1.072,0-2.108-0.208-3.108-0.624
        c-1-0.415-1.828-1.031-2.484-1.848l1.848-1.56c0.4,0.592,0.936,1.071,1.608,1.439c0.672,0.368,1.399,0.552,2.184,0.552
        c0.4,0,0.8-0.056,1.2-0.168c0.4-0.111,0.764-0.288,1.092-0.527c0.328-0.24,0.596-0.54,0.804-0.9
        c0.208-0.36,0.312-0.796,0.312-1.308s-0.108-0.94-0.324-1.284c-0.216-0.344-0.508-0.636-0.876-0.876s-0.796-0.444-1.284-0.612
        c-0.488-0.168-1.004-0.34-1.548-0.516c-0.544-0.16-1.08-0.356-1.608-0.588c-0.528-0.232-1-0.528-1.416-0.889
        c-0.416-0.359-0.752-0.804-1.008-1.332c-0.256-0.527-0.384-1.184-0.384-1.968c0-0.848,0.172-1.576,0.516-2.184
        c0.344-0.608,0.792-1.112,1.344-1.512c0.552-0.4,1.176-0.692,1.872-0.876c0.696-0.184,1.396-0.276,2.1-0.276
        c0.992,0,1.92,0.176,2.784,0.528c0.864,0.352,1.56,0.824,2.088,1.416L13.846,10.832z"/>
    <path fill="#666666" d="M18.813,13.304l2.568,8.688h0.048l2.712-8.688h2.376l2.76,8.688h0.048l2.568-8.688h2.376L30.501,24.68
        h-2.352l-2.808-8.544h-0.048l-2.784,8.544h-2.352l-3.792-11.376H18.813z"/>
    <path fill="#666666" d="M38.685,9.2c0,0.416-0.147,0.76-0.44,1.032c-0.294,0.272-0.647,0.408-1.06,0.408s-0.762-0.14-1.047-0.42
        c-0.286-0.28-0.429-0.62-0.429-1.02c0-0.416,0.143-0.764,0.429-1.044c0.286-0.28,0.635-0.42,1.047-0.42s0.766,0.14,1.06,0.42
        C38.538,8.437,38.685,8.784,38.685,9.2z M38.325,24.68h-2.256V13.304h2.256V24.68z"/>
    <path fill="#666666" d="M47.613,15.152h-2.64v9.528h-2.256v-9.528h-2.256v-1.848h2.256v-2.376c0-0.672,0.076-1.292,0.228-1.86
        c0.152-0.568,0.4-1.06,0.744-1.476c0.344-0.416,0.784-0.744,1.32-0.984c0.536-0.24,1.188-0.36,1.956-0.36
        c0.544,0,1.016,0.056,1.416,0.168l-0.264,1.944c-0.176-0.048-0.352-0.088-0.528-0.12c-0.176-0.032-0.376-0.048-0.6-0.048
        c-0.432,0-0.78,0.076-1.044,0.228c-0.264,0.152-0.468,0.356-0.612,0.612s-0.24,0.548-0.288,0.876
        c-0.048,0.328-0.072,0.668-0.072,1.02v2.376h2.64V15.152z"/>
    <path fill="#666666" d="M54.909,15.152h-3.024v5.91c0,0.687,0.128,1.177,0.384,1.472c0.256,0.295,0.664,0.442,1.224,0.442
        c0.208,0,0.432-0.021,0.672-0.065c0.24-0.044,0.456-0.11,0.648-0.198l0.072,1.848c-0.272,0.096-0.572,0.172-0.9,0.229
        c-0.328,0.056-0.668,0.084-1.02,0.084c-1.072,0-1.892-0.296-2.46-0.889c-0.568-0.592-0.852-1.479-0.852-2.664v-6.168h-2.184
        v-1.848h2.184V10.04h2.232v3.264h3.024V15.152z"/>
    <path fill="#666666" d="M57.356,7.688h5.832c1.088,0,2.176,0.16,3.264,0.48c1.088,0.32,2.072,0.824,2.952,1.512
        s1.592,1.568,2.136,2.64c0.544,1.072,0.816,2.36,0.816,3.864c0,1.456-0.272,2.716-0.816,3.78s-1.256,1.943-2.136,2.64
        s-1.864,1.216-2.952,1.561c-1.088,0.344-2.176,0.516-3.264,0.516h-5.832V7.688z M59.732,22.593h2.976
        c1.024,0,1.972-0.145,2.844-0.432c0.872-0.288,1.624-0.704,2.256-1.248c0.632-0.544,1.124-1.216,1.476-2.017
        c0.352-0.8,0.528-1.704,0.528-2.712c0-1.056-0.176-1.983-0.528-2.784c-0.353-0.8-0.844-1.468-1.476-2.004
        c-0.632-0.536-1.384-0.944-2.256-1.224s-1.82-0.42-2.844-0.42h-2.976V22.593z"/>
    <path fill="#666666" d="M86.06,18.969c0,0.88-0.156,1.688-0.468,2.424c-0.312,0.736-0.744,1.372-1.296,1.908
        c-0.552,0.536-1.204,0.952-1.956,1.248c-0.752,0.296-1.56,0.443-2.424,0.443c-0.864,0-1.672-0.147-2.424-0.443
        c-0.752-0.296-1.4-0.712-1.944-1.248c-0.544-0.536-0.972-1.172-1.284-1.908c-0.312-0.735-0.468-1.544-0.468-2.424
        s0.156-1.684,0.468-2.412c0.312-0.728,0.74-1.356,1.284-1.884c0.543-0.528,1.191-0.939,1.944-1.236
        c0.752-0.296,1.56-0.444,2.424-0.444c0.864,0,1.672,0.148,2.424,0.444c0.752,0.297,1.404,0.708,1.956,1.236
        c0.552,0.527,0.984,1.156,1.296,1.884C85.904,17.285,86.06,18.089,86.06,18.969z M83.708,18.98c0-0.542-0.084-1.061-0.252-1.556
        c-0.169-0.494-0.414-0.929-0.734-1.304s-0.718-0.674-1.192-0.897s-1.015-0.335-1.625-0.335c-0.61,0-1.152,0.111-1.625,0.335
        c-0.474,0.224-0.871,0.522-1.191,0.897c-0.321,0.375-0.566,0.81-0.734,1.304C76.184,17.92,76.1,18.438,76.1,18.98
        c0,0.543,0.084,1.062,0.253,1.556c0.168,0.495,0.413,0.934,0.734,1.316c0.321,0.383,0.718,0.686,1.191,0.909
        c0.473,0.224,1.015,0.335,1.625,0.335c0.61,0,1.151-0.111,1.625-0.335s0.871-0.526,1.192-0.909s0.565-0.821,0.734-1.316
        C83.624,20.042,83.708,19.523,83.708,18.98z"/>
    <path fill="#666666" d="M96.428,16.184c-0.24-0.368-0.6-0.676-1.08-0.924s-0.992-0.372-1.536-0.372
        c-0.592,0-1.116,0.112-1.572,0.336c-0.456,0.225-0.844,0.524-1.164,0.9c-0.32,0.376-0.564,0.812-0.732,1.308
        s-0.252,1.017-0.252,1.56c0,0.545,0.084,1.064,0.252,1.561s0.412,0.933,0.732,1.308c0.32,0.376,0.712,0.677,1.176,0.9
        c0.464,0.225,0.992,0.336,1.584,0.336c0.576,0,1.1-0.111,1.572-0.336c0.472-0.224,0.86-0.528,1.164-0.912l1.512,1.368
        c-0.48,0.561-1.08,0.996-1.8,1.308c-0.72,0.312-1.536,0.468-2.448,0.468c-0.88,0-1.692-0.144-2.436-0.432
        c-0.744-0.288-1.388-0.691-1.932-1.212c-0.544-0.52-0.972-1.147-1.284-1.884s-0.468-1.561-0.468-2.473
        c0-0.896,0.152-1.711,0.456-2.447c0.304-0.736,0.728-1.368,1.272-1.896c0.543-0.527,1.188-0.936,1.932-1.224
        c0.744-0.288,1.548-0.433,2.412-0.433c0.8,0,1.596,0.16,2.388,0.48s1.419,0.784,1.884,1.392L96.428,16.184z"/>
    <path fill="#666666" d="M103.1,23.24c0,0.417-0.152,0.784-0.456,1.104c-0.304,0.32-0.688,0.479-1.152,0.479
        c-0.448,0-0.828-0.155-1.14-0.468c-0.312-0.312-0.468-0.676-0.468-1.092c0-0.432,0.152-0.804,0.456-1.116
        c0.304-0.312,0.688-0.468,1.152-0.468c0.464,0,0.848,0.152,1.152,0.456C102.947,22.44,103.1,22.808,103.1,23.24z"/>
    <path fill="#666666" d="M116.635,18.969c0,0.88-0.156,1.688-0.468,2.424c-0.312,0.736-0.744,1.372-1.296,1.908
        c-0.552,0.536-1.204,0.952-1.956,1.248c-0.752,0.296-1.56,0.443-2.424,0.443c-0.864,0-1.672-0.147-2.424-0.443
        c-0.752-0.296-1.4-0.712-1.944-1.248c-0.544-0.536-0.972-1.172-1.284-1.908c-0.312-0.735-0.468-1.544-0.468-2.424
        s0.156-1.684,0.468-2.412c0.312-0.728,0.74-1.356,1.284-1.884c0.543-0.528,1.191-0.939,1.944-1.236
        c0.752-0.296,1.56-0.444,2.424-0.444c0.864,0,1.672,0.148,2.424,0.444c0.752,0.297,1.404,0.708,1.956,1.236
        c0.552,0.527,0.984,1.156,1.296,1.884C116.479,17.285,116.635,18.089,116.635,18.969z M114.283,18.98
        c0-0.542-0.084-1.061-0.252-1.556c-0.169-0.494-0.414-0.929-0.734-1.304s-0.718-0.674-1.192-0.897s-1.015-0.335-1.625-0.335
        c-0.61,0-1.152,0.111-1.625,0.335c-0.474,0.224-0.871,0.522-1.191,0.897c-0.321,0.375-0.566,0.81-0.734,1.304
        c-0.169,0.495-0.253,1.014-0.253,1.556c0,0.543,0.084,1.062,0.253,1.556c0.168,0.495,0.413,0.934,0.734,1.316
        c0.321,0.383,0.718,0.686,1.191,0.909c0.473,0.224,1.015,0.335,1.625,0.335c0.61,0,1.151-0.111,1.625-0.335
        s0.871-0.526,1.192-0.909s0.565-0.821,0.734-1.316C114.199,20.042,114.283,19.523,114.283,18.98z"/>
    <path fill="#666666" d="M119.251,14.577c-0.016-0.48-0.04-0.904-0.072-1.272h2.136c0.032,0.288,0.056,0.62,0.072,0.996
        c0.016,0.376,0.024,0.684,0.024,0.924h0.072c0.32-0.672,0.788-1.212,1.404-1.62c0.616-0.408,1.308-0.612,2.076-0.612
        c0.352,0,0.648,0.033,0.888,0.097l-0.096,2.088c-0.32-0.08-0.664-0.12-1.032-0.12c-0.544,0-1.016,0.101-1.416,0.3
        c-0.4,0.2-0.732,0.468-0.996,0.805c-0.264,0.336-0.46,0.724-0.588,1.163c-0.128,0.44-0.192,0.9-0.192,1.381v5.976h-2.256v-8.928
        C119.275,15.449,119.267,15.056,119.251,14.577z"/>
    <path fill="#666666" d="M128.419,26.625c0.496,0.56,1.116,1.008,1.86,1.344c0.744,0.336,1.508,0.504,2.292,0.504
        c0.752,0,1.384-0.108,1.896-0.324s0.924-0.512,1.236-0.888s0.536-0.82,0.672-1.332c0.136-0.513,0.204-1.064,0.204-1.656v-1.464
        h-0.048c-0.416,0.641-0.984,1.128-1.704,1.464c-0.72,0.336-1.488,0.504-2.304,0.504c-0.864,0-1.652-0.151-2.364-0.456
        c-0.712-0.304-1.316-0.72-1.812-1.248c-0.496-0.527-0.88-1.147-1.152-1.859s-0.408-1.477-0.408-2.292
        c0-0.816,0.136-1.584,0.408-2.305c0.272-0.72,0.656-1.348,1.152-1.884c0.496-0.535,1.096-0.96,1.8-1.271
        c0.704-0.312,1.488-0.469,2.352-0.469c0.816,0,1.596,0.177,2.34,0.528c0.744,0.353,1.332,0.888,1.764,1.608h0.048v-1.824h2.184
        v10.8c0,0.832-0.104,1.628-0.312,2.388c-0.208,0.76-0.56,1.433-1.056,2.017s-1.144,1.052-1.944,1.404
        c-0.8,0.352-1.792,0.527-2.976,0.527c-0.992,0-1.988-0.18-2.988-0.54c-1-0.359-1.86-0.868-2.58-1.523L128.419,26.625z
         M129.091,18.873c0,0.527,0.084,1.031,0.253,1.512c0.168,0.479,0.417,0.904,0.746,1.271c0.329,0.369,0.726,0.664,1.192,0.889
        c0.465,0.224,0.995,0.336,1.589,0.336c0.577,0,1.107-0.104,1.589-0.312c0.481-0.207,0.891-0.491,1.228-0.852
        s0.598-0.784,0.782-1.272c0.185-0.487,0.277-1.012,0.277-1.571c0-0.544-0.093-1.057-0.277-1.536
        c-0.185-0.48-0.449-0.904-0.794-1.272c-0.345-0.367-0.755-0.66-1.228-0.876c-0.474-0.216-1-0.324-1.577-0.324
        c-0.594,0-1.124,0.108-1.589,0.324c-0.466,0.216-0.863,0.504-1.192,0.864s-0.578,0.784-0.746,1.271
        C129.175,17.812,129.091,18.329,129.091,18.873z"/>
</g>
<g><a xlink:href="/" pointer-events="all" target="_top"><polygon fill="none" points="0,0 145,0 145,35 0,35 0,0"/></a></g>

</g>


<!-- BidirectionalIndexType -->
<g id="node1" class="node">
<g id="a_node1"><a xlink:href="/protocol/BidirectionalIndexType/" target="_top">
<path fill="#999999" stroke="#999999" d="M1600.73,-254C1600.73,-254 1485.27,-254 1485.27,-254 1481.61,-254 1477.94,-250.333 1477.94,-246.667 1477.94,-246.667 1477.94,-239.333 1477.94,-239.333 1477.94,-235.667 1481.61,-232 1485.27,-232 1485.27,-232 1600.73,-232 1600.73,-232 1604.39,-232 1608.06,-235.667 1608.06,-239.333 1608.06,-239.333 1608.06,-246.667 1608.06,-246.667 1608.06,-250.333 1604.39,-254 1600.73,-254"/>
<text text-anchor="middle" x="1543" y="-239.4" font-family="Helvetica,sans-Serif" font-size="12.00" fill="white">BidirectionalIndexType</text>
</a>
</g>
</g>
<!-- DictionaryIndex -->
<g id="node3" class="node">
<g id="a_node3"><a xlink:href="/type/DictionaryIndex/" target="_top">
<polygon fill="#999999" stroke="#999999" points="1519.03,-22 1426.97,-22 1426.97,-0 1519.03,-0 1519.03,-22"/>
<text text-anchor="middle" x="1473" y="-7.4" font-family="Helvetica,sans-Serif" font-size="12.00" fill="white">DictionaryIndex</text>
</a>
</g>
</g>
<!-- BidirectionalIndexType&#45;&gt;DictionaryIndex -->
<g id="edge6" class="edge">
<path fill="none" stroke="#cccccc" d="M1539.9,-231.82C1529.15,-196.494 1493.32,-78.7811 1479,-31.7049"/>
<polygon fill="#cccccc" stroke="#cccccc" points="1482.32,-30.6097 1476.06,-22.062 1475.63,-32.6479 1482.32,-30.6097"/>
</g>
<!-- RandomAccessIndexType -->
<g id="node13" class="node">
<g id="a_node13"><a xlink:href="/protocol/RandomAccessIndexType/" target="_top">
<path fill="#999999" stroke="#999999" d="M692.225,-196C692.225,-196 557.775,-196 557.775,-196 554.108,-196 550.441,-192.333 550.441,-188.667 550.441,-188.667 550.441,-181.333 550.441,-181.333 550.441,-177.667 554.108,-174 557.775,-174 557.775,-174 692.225,-174 692.225,-174 695.892,-174 699.559,-177.667 699.559,-181.333 699.559,-181.333 699.559,-188.667 699.559,-188.667 699.559,-192.333 695.892,-196 692.225,-196"/>
<text text-anchor="middle" x="625" y="-181.4" font-family="Helvetica,sans-Serif" font-size="12.00" fill="white">RandomAccessIndexType</text>
</a>
</g>
</g>
<!-- BidirectionalIndexType&#45;&gt;RandomAccessIndexType -->
<g id="edge7" class="edge">
<path fill="none" stroke="#cccccc" d="M1477.72,-238.018C1314.9,-228.085 890.95,-202.224 709.454,-191.152"/>
<polygon fill="#cccccc" stroke="#cccccc" points="709.618,-187.655 699.423,-190.54 709.192,-194.642 709.618,-187.655"/>
</g>
<!-- ReverseBidirectionalIndex -->
<g id="node14" class="node">
<g id="a_node14"><a xlink:href="/type/ReverseBidirectionalIndex/" target="_top">
<polygon fill="#999999" stroke="#999999" points="1686.55,-22 1537.45,-22 1537.45,-0 1686.55,-0 1686.55,-22"/>
<text text-anchor="middle" x="1612" y="-7.4" font-family="Helvetica,sans-Serif" font-size="12.00" fill="white">ReverseBidirectionalIndex</text>
</a>
</g>
</g>
<!-- BidirectionalIndexType&#45;&gt;ReverseBidirectionalIndex -->
<g id="edge8" class="edge">
<path fill="none" stroke="#cccccc" d="M1546.05,-231.82C1556.65,-196.494 1591.97,-78.7811 1606.09,-31.7049"/>
<polygon fill="#cccccc" stroke="#cccccc" points="1609.46,-32.646 1608.98,-22.062 1602.76,-30.6346 1609.46,-32.646"/>
</g>
<!-- String.Index -->
<g id="node17" class="node">
<g id="a_node17"><a xlink:href="/type/String.Index/" target="_top">
<polygon fill="#999999" stroke="#999999" points="1779.03,-22 1704.97,-22 1704.97,-0 1779.03,-0 1779.03,-22"/>
<text text-anchor="middle" x="1742" y="-7.4" font-family="Helvetica,sans-Serif" font-size="12.00" fill="white">String.Index</text>
</a>
</g>
</g>
<!-- BidirectionalIndexType&#45;&gt;String.Index -->
<g id="edge9" class="edge">
<path fill="none" stroke="#cccccc" d="M1551.81,-231.82C1582.82,-195.973 1687.24,-75.2938 1726.71,-29.6701"/>
<polygon fill="#cccccc" stroke="#cccccc" points="1729.4,-31.9144 1733.29,-22.062 1724.1,-27.3343 1729.4,-31.9144"/>
</g>
<!-- String.UnicodeScalarView.Index -->
<g id="node19" class="node">
<g id="a_node19"><a xlink:href="/type/String.UnicodeScalarView.Index/" target="_top">
<polygon fill="#999999" stroke="#999999" points="1407.92,-22 1228.08,-22 1228.08,-0 1407.92,-0 1407.92,-22"/>
<text text-anchor="middle" x="1318" y="-7.4" font-family="Helvetica,sans-Serif" font-size="12.00" fill="white">String.UnicodeScalarView.Index</text>
</a>
</g>
</g>
<!-- BidirectionalIndexType&#45;&gt;String.UnicodeScalarView.Index -->
<g id="edge10" class="edge">
<path fill="none" stroke="#cccccc" d="M1533.04,-231.82C1497.9,-195.899 1379.43,-74.7927 1335.01,-29.3871"/>
<polygon fill="#cccccc" stroke="#cccccc" points="1337.34,-26.7629 1327.84,-22.062 1332.33,-31.6579 1337.34,-26.7629"/>
</g>
<!-- Bit -->
<g id="node2" class="node">
<g id="a_node2"><a xlink:href="/type/Bit/" target="_top">
<polygon fill="#999999" stroke="#999999" points="774,-22 720,-22 720,-0 774,-0 774,-22"/>
<text text-anchor="middle" x="747" y="-7.4" font-family="Helvetica,sans-Serif" font-size="12.00" fill="white">Bit</text>
</a>
</g>
</g>
<!-- Equatable -->
<g id="node4" class="node">
<g id="a_node4"><a xlink:href="/protocol/Equatable/" target="_top">
<path fill="#999999" stroke="#999999" d="M1683.7,-486C1683.7,-486 1634.3,-486 1634.3,-486 1630.63,-486 1626.96,-482.333 1626.96,-478.667 1626.96,-478.667 1626.96,-471.333 1626.96,-471.333 1626.96,-467.667 1630.63,-464 1634.3,-464 1634.3,-464 1683.7,-464 1683.7,-464 1687.37,-464 1691.04,-467.667 1691.04,-471.333 1691.04,-471.333 1691.04,-478.667 1691.04,-478.667 1691.04,-482.333 1687.37,-486 1683.7,-486"/>
<text text-anchor="middle" x="1659" y="-471.4" font-family="Helvetica,sans-Serif" font-size="12.00" fill="white">Equatable</text>
</a>
</g>
</g>
<!-- _Incrementable -->
<g id="node30" class="node">
<g id="a_node30"><a xlink:href="/protocol/_Incrementable/" target="_top">
<path fill="#999999" stroke="#999999" d="M1697.71,-428C1697.71,-428 1620.29,-428 1620.29,-428 1616.63,-428 1612.96,-424.333 1612.96,-420.667 1612.96,-420.667 1612.96,-413.333 1612.96,-413.333 1612.96,-409.667 1616.63,-406 1620.29,-406 1620.29,-406 1697.71,-406 1697.71,-406 1701.37,-406 1705.04,-409.667 1705.04,-413.333 1705.04,-413.333 1705.04,-420.667 1705.04,-420.667 1705.04,-424.333 1701.37,-428 1697.71,-428"/>
<text text-anchor="middle" x="1659" y="-413.4" font-family="Helvetica,sans-Serif" font-size="12.00" fill="white">_Incrementable</text>
</a>
</g>
</g>
<!-- Equatable&#45;&gt;_Incrementable -->
<g id="edge43" class="edge">
<path fill="none" stroke="#cccccc" d="M1659,-463.988C1659,-456.91 1659,-447.171 1659,-438.478"/>
<polygon fill="#cccccc" stroke="#cccccc" points="1662.5,-438.304 1659,-428.304 1655.5,-438.304 1662.5,-438.304"/>
</g>
<!-- FilterCollectionViewIndex -->
<g id="node5" class="node">
<g id="a_node5"><a xlink:href="/type/FilterCollectionViewIndex/" target="_top">
<polygon fill="#999999" stroke="#999999" points="1940.89,-22 1797.11,-22 1797.11,-0 1940.89,-0 1940.89,-22"/>
<text text-anchor="middle" x="1869" y="-7.4" font-family="Helvetica,sans-Serif" font-size="12.00" fill="white">FilterCollectionViewIndex</text>
</a>
</g>
</g>
<!-- ForwardIndexType -->
<g id="node6" class="node">
<g id="a_node6"><a xlink:href="/protocol/ForwardIndexType/" target="_top">
<path fill="#999999" stroke="#999999" d="M1823.21,-312C1823.21,-312 1728.79,-312 1728.79,-312 1725.13,-312 1721.46,-308.333 1721.46,-304.667 1721.46,-304.667 1721.46,-297.333 1721.46,-297.333 1721.46,-293.667 1725.13,-290 1728.79,-290 1728.79,-290 1823.21,-290 1823.21,-290 1826.87,-290 1830.54,-293.667 1830.54,-297.333 1830.54,-297.333 1830.54,-304.667 1830.54,-304.667 1830.54,-308.333 1826.87,-312 1823.21,-312"/>
<text text-anchor="middle" x="1776" y="-297.4" font-family="Helvetica,sans-Serif" font-size="12.00" fill="white">ForwardIndexType</text>
</a>
</g>
</g>
<!-- ForwardIndexType&#45;&gt;BidirectionalIndexType -->
<g id="edge3" class="edge">
<path fill="none" stroke="#cccccc" d="M1734.34,-289.988C1695.2,-280.581 1636.51,-266.475 1594.46,-256.368"/>
<polygon fill="#cccccc" stroke="#cccccc" points="1595.23,-252.953 1584.69,-254.019 1593.59,-259.759 1595.23,-252.953"/>
</g>
<!-- ForwardIndexType&#45;&gt;FilterCollectionViewIndex -->
<g id="edge4" class="edge">
<path fill="none" stroke="#cccccc" d="M1793.06,-289.747C1819.91,-272.161 1869,-233.508 1869,-186 1869,-186 1869,-186 1869,-126 1869,-93.1536 1869,-54.9837 1869,-32.197"/>
<polygon fill="#cccccc" stroke="#cccccc" points="1872.5,-32.0648 1869,-22.0648 1865.5,-32.0648 1872.5,-32.0648"/>
</g>
<!-- String.UTF8View.Index -->
<g id="node18" class="node">
<g id="a_node18"><a xlink:href="/type/String.UTF8View.Index/" target="_top">
<polygon fill="#999999" stroke="#999999" points="2091.89,-22 1960.11,-22 1960.11,-0 2091.89,-0 2091.89,-22"/>
<text text-anchor="middle" x="2026" y="-7.4" font-family="Helvetica,sans-Serif" font-size="12.00" fill="white">String.UTF8View.Index</text>
</a>
</g>
</g>
<!-- ForwardIndexType&#45;&gt;String.UTF8View.Index -->
<g id="edge5" class="edge">
<path fill="none" stroke="#cccccc" d="M1830.55,-298.416C1904.11,-293.04 2026,-271.268 2026,-186 2026,-186 2026,-186 2026,-126 2026,-93.1536 2026,-54.9837 2026,-32.197"/>
<polygon fill="#cccccc" stroke="#cccccc" points="2029.5,-32.0648 2026,-22.0648 2022.5,-32.0648 2029.5,-32.0648"/>
</g>
<!-- Int -->
<g id="node7" class="node">
<g id="a_node7"><a xlink:href="/type/Int/" target="_top">
<polygon fill="#999999" stroke="#999999" points="558,-22 504,-22 504,-0 558,-0 558,-22"/>
<text text-anchor="middle" x="531" y="-7.4" font-family="Helvetica,sans-Serif" font-size="12.00" fill="white">Int</text>
</a>
</g>
</g>
<!-- Int&#45;&gt;Bit -->
<g id="edge26" class="edge">
<path fill="none" stroke="#cccccc" d="M543.779,-22.0854C552.283,-28.7029 564.052,-36.4837 576,-40 629.722,-55.8109 648.278,-55.8109 702,-40 710.401,-37.5276 718.713,-32.9469 725.865,-28.1447"/>
<polygon fill="#cccccc" stroke="#cccccc" points="728.18,-30.7891 734.221,-22.0854 724.071,-25.122 728.18,-30.7891"/>
</g>
<!-- Int16 -->
<g id="node8" class="node">
<g id="a_node8"><a xlink:href="/type/Int16/" target="_top">
<polygon fill="#999999" stroke="#999999" points="630,-22 576,-22 576,-0 630,-0 630,-22"/>
<text text-anchor="middle" x="603" y="-7.4" font-family="Helvetica,sans-Serif" font-size="12.00" fill="white">Int16</text>
</a>
</g>
</g>
<!-- Int32 -->
<g id="node9" class="node">
<g id="a_node9"><a xlink:href="/type/Int32/" target="_top">
<polygon fill="#999999" stroke="#999999" points="702,-22 648,-22 648,-0 702,-0 702,-22"/>
<text text-anchor="middle" x="675" y="-7.4" font-family="Helvetica,sans-Serif" font-size="12.00" fill="white">Int32</text>
</a>
</g>
</g>
<!-- Int64 -->
<g id="node10" class="node">
<g id="a_node10"><a xlink:href="/type/Int64/" target="_top">
<polygon fill="#999999" stroke="#999999" points="414,-22 360,-22 360,-0 414,-0 414,-22"/>
<text text-anchor="middle" x="387" y="-7.4" font-family="Helvetica,sans-Serif" font-size="12.00" fill="white">Int64</text>
</a>
</g>
</g>
<!-- Int8 -->
<g id="node11" class="node">
<g id="a_node11"><a xlink:href="/type/Int8/" target="_top">
<polygon fill="#999999" stroke="#999999" points="486,-22 432,-22 432,-0 486,-0 486,-22"/>
<text text-anchor="middle" x="459" y="-7.4" font-family="Helvetica,sans-Serif" font-size="12.00" fill="white">Int8</text>
</a>
</g>
</g>
<!-- IntegerType -->
<g id="node12" class="node">
<g id="a_node12"><a xlink:href="/protocol/IntegerType/" target="_top">
<path fill="#999999" stroke="#999999" d="M347.202,-138C347.202,-138 288.798,-138 288.798,-138 285.132,-138 281.465,-134.333 281.465,-130.667 281.465,-130.667 281.465,-123.333 281.465,-123.333 281.465,-119.667 285.132,-116 288.798,-116 288.798,-116 347.202,-116 347.202,-116 350.868,-116 354.535,-119.667 354.535,-123.333 354.535,-123.333 354.535,-130.667 354.535,-130.667 354.535,-134.333 350.868,-138 347.202,-138"/>
<text text-anchor="middle" x="318" y="-123.4" font-family="Helvetica,sans-Serif" font-size="12.00" fill="white">IntegerType</text>
</a>
</g>
</g>
<!-- SignedIntegerType -->
<g id="node16" class="node">
<g id="a_node16"><a xlink:href="/protocol/SignedIntegerType/" target="_top">
<path fill="#999999" stroke="#999999" d="M589.727,-80C589.727,-80 494.273,-80 494.273,-80 490.606,-80 486.94,-76.3333 486.94,-72.6667 486.94,-72.6667 486.94,-65.3333 486.94,-65.3333 486.94,-61.6667 490.606,-58 494.273,-58 494.273,-58 589.727,-58 589.727,-58 593.394,-58 597.06,-61.6667 597.06,-65.3333 597.06,-65.3333 597.06,-72.6667 597.06,-72.6667 597.06,-76.3333 593.394,-80 589.727,-80"/>
<text text-anchor="middle" x="542" y="-65.4" font-family="Helvetica,sans-Serif" font-size="12.00" fill="white">SignedIntegerType</text>
</a>
</g>
</g>
<!-- IntegerType&#45;&gt;SignedIntegerType -->
<g id="edge27" class="edge">
<path fill="none" stroke="#cccccc" d="M354.488,-116.878C391.824,-107.544 450.116,-92.971 491.792,-82.552"/>
<polygon fill="#cccccc" stroke="#cccccc" points="492.889,-85.8857 501.741,-80.0647 491.191,-79.0947 492.889,-85.8857"/>
</g>
<!-- UnsignedIntegerType -->
<g id="node27" class="node">
<g id="a_node27"><a xlink:href="/protocol/UnsignedIntegerType/" target="_top">
<path fill="#999999" stroke="#999999" d="M247.728,-80C247.728,-80 138.272,-80 138.272,-80 134.605,-80 130.938,-76.3333 130.938,-72.6667 130.938,-72.6667 130.938,-65.3333 130.938,-65.3333 130.938,-61.6667 134.605,-58 138.272,-58 138.272,-58 247.728,-58 247.728,-58 251.395,-58 255.062,-61.6667 255.062,-65.3333 255.062,-65.3333 255.062,-72.6667 255.062,-72.6667 255.062,-76.3333 251.395,-80 247.728,-80"/>
<text text-anchor="middle" x="193" y="-65.4" font-family="Helvetica,sans-Serif" font-size="12.00" fill="white">UnsignedIntegerType</text>
</a>
</g>
</g>
<!-- IntegerType&#45;&gt;UnsignedIntegerType -->
<g id="edge28" class="edge">
<path fill="none" stroke="#cccccc" d="M295.653,-115.988C275.955,-107.164 247.031,-94.206 224.902,-84.2919"/>
<polygon fill="#cccccc" stroke="#cccccc" points="226.132,-81.0082 215.575,-80.1138 223.271,-87.3964 226.132,-81.0082"/>
</g>
<!-- RandomAccessIndexType&#45;&gt;Bit -->
<g id="edge11" class="edge">
<path fill="none" stroke="#cccccc" d="M637.648,-173.922C648.165,-165.144 663.117,-151.707 674,-138 701.616,-103.216 725.708,-56.8349 738.107,-31.1547"/>
<polygon fill="#cccccc" stroke="#cccccc" points="741.279,-32.6326 742.407,-22.0979 734.956,-29.6301 741.279,-32.6326"/>
</g>
<!-- RandomAccessIndexType&#45;&gt;Int -->
<g id="edge12" class="edge">
<path fill="none" stroke="#cccccc" d="M626.178,-173.845C628.288,-151.041 630.437,-94.8836 606,-58 596.726,-44.003 581.589,-33.5452 567.333,-26.1678"/>
<polygon fill="#cccccc" stroke="#cccccc" points="568.692,-22.9376 558.163,-21.7584 565.658,-29.2462 568.692,-22.9376"/>
</g>
<!-- RandomAccessIndexType&#45;&gt;Int16 -->
<g id="edge13" class="edge">
<path fill="none" stroke="#cccccc" d="M629.018,-173.872C637.062,-152.042 653.205,-99.199 639,-58 635.369,-47.4691 628.226,-37.5064 621.254,-29.5631"/>
<polygon fill="#cccccc" stroke="#cccccc" points="623.607,-26.9574 614.203,-22.0772 618.512,-31.7566 623.607,-26.9574"/>
</g>
<!-- RandomAccessIndexType&#45;&gt;Int32 -->
<g id="edge14" class="edge">
<path fill="none" stroke="#cccccc" d="M633.847,-173.795C641.016,-164.94 650.758,-151.461 656,-138 669.783,-102.604 673.624,-58.0072 674.66,-32.4748"/>
<polygon fill="#cccccc" stroke="#cccccc" points="678.167,-32.2859 674.964,-22.1869 671.17,-32.0791 678.167,-32.2859"/>
</g>
<!-- RandomAccessIndexType&#45;&gt;Int64 -->
<g id="edge15" class="edge">
<path fill="none" stroke="#cccccc" d="M589.174,-173.946C565.481,-166.301 534.406,-154.305 510,-138 464.097,-107.333 421.749,-57.2333 400.783,-30.3771"/>
<polygon fill="#cccccc" stroke="#cccccc" points="403.385,-28.0199 394.518,-22.2221 397.834,-32.2844 403.385,-28.0199"/>
</g>
<!-- RandomAccessIndexType&#45;&gt;Int8 -->
<g id="edge16" class="edge">
<path fill="none" stroke="#cccccc" d="M602.123,-173.979C569.587,-158.547 510.32,-125.874 478,-80 468.084,-65.9259 463.33,-46.8264 461.058,-32.4523"/>
<polygon fill="#cccccc" stroke="#cccccc" points="464.475,-31.59 459.717,-22.1239 457.534,-32.4913 464.475,-31.59"/>
</g>
<!-- RandomAccessIndexType&#45;&gt;IntegerType -->
<g id="edge17" class="edge">
<path fill="none" stroke="#cccccc" d="M567.76,-173.982C515.847,-164.833 437.234,-150.819 369,-138 367.531,-137.724 366.039,-137.442 364.533,-137.156"/>
<polygon fill="#cccccc" stroke="#cccccc" points="364.962,-133.674 354.481,-135.226 363.642,-140.549 364.962,-133.674"/>
</g>
<!-- ReverseRandomAccessIndex -->
<g id="node15" class="node">
<g id="a_node15"><a xlink:href="/type/ReverseRandomAccessIndex/" target="_top">
<polygon fill="#999999" stroke="#999999" points="960.056,-22 791.944,-22 791.944,-0 960.056,-0 960.056,-22"/>
<text text-anchor="middle" x="876" y="-7.4" font-family="Helvetica,sans-Serif" font-size="12.00" fill="white">ReverseRandomAccessIndex</text>
</a>
</g>
</g>
<!-- RandomAccessIndexType&#45;&gt;ReverseRandomAccessIndex -->
<g id="edge18" class="edge">
<path fill="none" stroke="#cccccc" d="M640.898,-173.93C655.358,-164.716 677.241,-150.637 696,-138 753.212,-99.4602 819.416,-52.4947 853.359,-28.2392"/>
<polygon fill="#cccccc" stroke="#cccccc" points="855.559,-30.9681 861.656,-22.3029 851.486,-25.2751 855.559,-30.9681"/>
</g>
<!-- UInt -->
<g id="node20" class="node">
<g id="a_node20"><a xlink:href="/type/UInt/" target="_top">
<polygon fill="#999999" stroke="#999999" points="198,-22 144,-22 144,-0 198,-0 198,-22"/>
<text text-anchor="middle" x="171" y="-7.4" font-family="Helvetica,sans-Serif" font-size="12.00" fill="white">UInt</text>
</a>
</g>
</g>
<!-- RandomAccessIndexType&#45;&gt;UInt -->
<g id="edge19" class="edge">
<path fill="none" stroke="#cccccc" d="M550.491,-180.878C422.148,-173.642 168.605,-150.542 122,-80 110.075,-61.9499 128.527,-41.9306 146.095,-28.3171"/>
<polygon fill="#cccccc" stroke="#cccccc" points="148.49,-30.9027 154.512,-22.1854 144.368,-25.245 148.49,-30.9027"/>
</g>
<!-- UInt16 -->
<g id="node21" class="node">
<g id="a_node21"><a xlink:href="/type/UInt16/" target="_top">
<polygon fill="#999999" stroke="#999999" points="270,-22 216,-22 216,-0 270,-0 270,-22"/>
<text text-anchor="middle" x="243" y="-7.4" font-family="Helvetica,sans-Serif" font-size="12.00" fill="white">UInt16</text>
</a>
</g>
</g>
<!-- RandomAccessIndexType&#45;&gt;UInt16 -->
<g id="edge20" class="edge">
<path fill="none" stroke="#cccccc" d="M550.28,-184.734C458.208,-183.926 309.34,-176.474 272,-138 247.114,-112.358 273.323,-92.4952 264,-58 261.525,-48.8418 257.397,-39.2189 253.454,-31.1553"/>
<polygon fill="#cccccc" stroke="#cccccc" points="256.547,-29.5176 248.858,-22.229 250.324,-32.722 256.547,-29.5176"/>
</g>
<!-- UInt32 -->
<g id="node22" class="node">
<g id="a_node22"><a xlink:href="/type/UInt32/" target="_top">
<polygon fill="#999999" stroke="#999999" points="342,-22 288,-22 288,-0 342,-0 342,-22"/>
<text text-anchor="middle" x="315" y="-7.4" font-family="Helvetica,sans-Serif" font-size="12.00" fill="white">UInt32</text>
</a>
</g>
</g>
<!-- RandomAccessIndexType&#45;&gt;UInt32 -->
<g id="edge21" class="edge">
<path fill="none" stroke="#cccccc" d="M579.308,-173.992C549.681,-166.458 510.82,-154.572 479,-138 420.742,-107.658 361.998,-56.3368 333.213,-29.5153"/>
<polygon fill="#cccccc" stroke="#cccccc" points="335.271,-26.6454 325.593,-22.3324 330.469,-31.7388 335.271,-26.6454"/>
</g>
<!-- UInt64 -->
<g id="node23" class="node">
<g id="a_node23"><a xlink:href="/type/UInt64/" target="_top">
<polygon fill="#999999" stroke="#999999" points="54,-22 0,-22 0,-0 54,-0 54,-22"/>
<text text-anchor="middle" x="27" y="-7.4" font-family="Helvetica,sans-Serif" font-size="12.00" fill="white">UInt64</text>
</a>
</g>
</g>
<!-- RandomAccessIndexType&#45;&gt;UInt64 -->
<g id="edge22" class="edge">
<path fill="none" stroke="#cccccc" d="M550.644,-183.703C432.085,-182.123 206.402,-174.268 136,-138 89.0779,-113.828 53.665,-60.0929 37.1954,-31.2243"/>
<polygon fill="#cccccc" stroke="#cccccc" points="40.074,-29.1971 32.1721,-22.1394 33.9481,-32.5843 40.074,-29.1971"/>
</g>
<!-- UInt8 -->
<g id="node24" class="node">
<g id="a_node24"><a xlink:href="/type/UInt8/" target="_top">
<polygon fill="#999999" stroke="#999999" points="126,-22 72,-22 72,-0 126,-0 126,-22"/>
<text text-anchor="middle" x="99" y="-7.4" font-family="Helvetica,sans-Serif" font-size="12.00" fill="white">UInt8</text>
</a>
</g>
</g>
<!-- RandomAccessIndexType&#45;&gt;UInt8 -->
<g id="edge23" class="edge">
<path fill="none" stroke="#cccccc" d="M550.24,-182.424C439.492,-179.081 237.926,-168.837 173,-138 140.07,-122.36 132.741,-111.847 115,-80 106.804,-65.2862 102.791,-46.5249 100.836,-32.4376"/>
<polygon fill="#cccccc" stroke="#cccccc" points="104.29,-31.8416 99.6677,-22.3084 97.3365,-32.6436 104.29,-31.8416"/>
</g>
<!-- UnsafeMutablePointer -->
<g id="node25" class="node">
<g id="a_node25"><a xlink:href="/type/UnsafeMutablePointer/" target="_top">
<polygon fill="#999999" stroke="#999999" points="1106.05,-22 977.949,-22 977.949,-0 1106.05,-0 1106.05,-22"/>
<text text-anchor="middle" x="1042" y="-7.4" font-family="Helvetica,sans-Serif" font-size="12.00" fill="white">UnsafeMutablePointer</text>
</a>
</g>
</g>
<!-- RandomAccessIndexType&#45;&gt;UnsafeMutablePointer -->
<g id="edge24" class="edge">
<path fill="none" stroke="#cccccc" d="M649.528,-173.883C720.576,-144.578 926.632,-59.5859 1008.19,-25.9453"/>
<polygon fill="#cccccc" stroke="#cccccc" points="1009.59,-29.1532 1017.5,-22.1045 1006.92,-22.6821 1009.59,-29.1532"/>
</g>
<!-- UnsafePointer -->
<g id="node26" class="node">
<g id="a_node26"><a xlink:href="/type/UnsafePointer/" target="_top">
<polygon fill="#999999" stroke="#999999" points="1210.03,-22 1123.97,-22 1123.97,-0 1210.03,-0 1210.03,-22"/>
<text text-anchor="middle" x="1167" y="-7.4" font-family="Helvetica,sans-Serif" font-size="12.00" fill="white">UnsafePointer</text>
</a>
</g>
</g>
<!-- RandomAccessIndexType&#45;&gt;UnsafePointer -->
<g id="edge25" class="edge">
<path fill="none" stroke="#cccccc" d="M659.093,-173.975C690.141,-164.792 737.226,-150.731 778,-138 905.881,-98.0702 1056.62,-48.5383 1127.01,-25.2607"/>
<polygon fill="#cccccc" stroke="#cccccc" points="1128.41,-28.4851 1136.81,-22.021 1126.21,-21.8394 1128.41,-28.4851"/>
</g>
<!-- SignedIntegerType&#45;&gt;Int -->
<g id="edge29" class="edge">
<path fill="none" stroke="#cccccc" d="M540.033,-57.9883C538.628,-50.8311 536.688,-40.9547 534.966,-32.1885"/>
<polygon fill="#cccccc" stroke="#cccccc" points="538.386,-31.4417 533.024,-22.3039 531.517,-32.791 538.386,-31.4417"/>
</g>
<!-- SignedIntegerType&#45;&gt;Int16 -->
<g id="edge30" class="edge">
<path fill="none" stroke="#cccccc" d="M552.906,-57.9883C561.559,-50.0446 573.86,-38.7512 584.108,-29.3439"/>
<polygon fill="#cccccc" stroke="#cccccc" points="586.777,-31.6449 591.776,-22.3039 582.043,-26.4883 586.777,-31.6449"/>
</g>
<!-- SignedIntegerType&#45;&gt;Int32 -->
<g id="edge31" class="edge">
<path fill="none" stroke="#cccccc" d="M565.778,-57.9883C586.923,-49.0849 618.064,-35.9733 641.688,-26.0259"/>
<polygon fill="#cccccc" stroke="#cccccc" points="643.122,-29.2202 650.98,-22.1138 640.405,-22.7687 643.122,-29.2202"/>
</g>
<!-- SignedIntegerType&#45;&gt;Int64 -->
<g id="edge32" class="edge">
<path fill="none" stroke="#cccccc" d="M514.289,-57.9883C489.084,-48.8821 451.696,-35.3739 423.954,-25.3513"/>
<polygon fill="#cccccc" stroke="#cccccc" points="424.805,-21.9373 414.211,-21.8311 422.427,-28.5208 424.805,-21.9373"/>
</g>
<!-- SignedIntegerType&#45;&gt;Int8 -->
<g id="edge33" class="edge">
<path fill="none" stroke="#cccccc" d="M527.161,-57.9883C514.728,-49.5993 496.757,-37.4743 482.389,-27.7804"/>
<polygon fill="#cccccc" stroke="#cccccc" points="484.237,-24.8055 473.99,-22.1138 480.322,-30.6083 484.237,-24.8055"/>
</g>
<!-- UnsignedIntegerType&#45;&gt;UInt -->
<g id="edge34" class="edge">
<path fill="none" stroke="#cccccc" d="M189.067,-57.9883C186.193,-50.6738 182.204,-40.5192 178.705,-31.6122"/>
<polygon fill="#cccccc" stroke="#cccccc" points="181.962,-30.3316 175.048,-22.3039 175.447,-32.8912 181.962,-30.3316"/>
</g>
<!-- UnsignedIntegerType&#45;&gt;UInt16 -->
<g id="edge35" class="edge">
<path fill="none" stroke="#cccccc" d="M201.939,-57.9883C208.891,-50.2019 218.717,-39.1971 227.013,-29.9049"/>
<polygon fill="#cccccc" stroke="#cccccc" points="229.751,-32.0943 233.8,-22.3039 224.529,-27.4322 229.751,-32.0943"/>
</g>
<!-- UnsignedIntegerType&#45;&gt;UInt32 -->
<g id="edge36" class="edge">
<path fill="none" stroke="#cccccc" d="M214.811,-57.9883C234.036,-49.164 262.265,-36.206 283.864,-26.2919"/>
<polygon fill="#cccccc" stroke="#cccccc" points="285.338,-29.4665 292.966,-22.1138 282.418,-23.1046 285.338,-29.4665"/>
</g>
<!-- UnsignedIntegerType&#45;&gt;UInt64 -->
<g id="edge37" class="edge">
<path fill="none" stroke="#cccccc" d="M163.323,-57.9883C135.506,-48.6044 93.8321,-34.5458 63.8881,-24.4442"/>
<polygon fill="#cccccc" stroke="#cccccc" points="64.814,-21.0628 54.2198,-21.1826 62.5764,-27.6955 64.814,-21.0628"/>
</g>
<!-- UnsignedIntegerType&#45;&gt;UInt8 -->
<g id="edge38" class="edge">
<path fill="none" stroke="#cccccc" d="M176.195,-57.9883C161.847,-49.441 140.99,-37.0155 124.572,-27.2343"/>
<polygon fill="#cccccc" stroke="#cccccc" points="126.359,-24.2251 115.977,-22.1138 122.776,-30.2388 126.359,-24.2251"/>
</g>
<!-- _BidirectionalIndexType -->
<g id="node28" class="node">
<g id="a_node28"><a xlink:href="/protocol/_BidirectionalIndexType/" target="_top">
<path fill="#999999" stroke="#999999" d="M1604.23,-312C1604.23,-312 1481.77,-312 1481.77,-312 1478.1,-312 1474.44,-308.333 1474.44,-304.667 1474.44,-304.667 1474.44,-297.333 1474.44,-297.333 1474.44,-293.667 1478.1,-290 1481.77,-290 1481.77,-290 1604.23,-290 1604.23,-290 1607.9,-290 1611.56,-293.667 1611.56,-297.333 1611.56,-297.333 1611.56,-304.667 1611.56,-304.667 1611.56,-308.333 1607.9,-312 1604.23,-312"/>
<text text-anchor="middle" x="1543" y="-297.4" font-family="Helvetica,sans-Serif" font-size="12.00" fill="white">_BidirectionalIndexType</text>
</a>
</g>
</g>
<!-- _BidirectionalIndexType&#45;&gt;BidirectionalIndexType -->
<g id="edge39" class="edge">
<path fill="none" stroke="#cccccc" d="M1543,-289.988C1543,-282.91 1543,-273.171 1543,-264.478"/>
<polygon fill="#cccccc" stroke="#cccccc" points="1546.5,-264.304 1543,-254.304 1539.5,-264.304 1546.5,-264.304"/>
</g>
<!-- _RandomAccessIndexType -->
<g id="node31" class="node">
<g id="a_node31"><a xlink:href="/protocol/_RandomAccessIndexType/" target="_top">
<path fill="#999999" stroke="#999999" d="M1074.73,-254C1074.73,-254 933.269,-254 933.269,-254 929.602,-254 925.936,-250.333 925.936,-246.667 925.936,-246.667 925.936,-239.333 925.936,-239.333 925.936,-235.667 929.602,-232 933.269,-232 933.269,-232 1074.73,-232 1074.73,-232 1078.4,-232 1082.06,-235.667 1082.06,-239.333 1082.06,-239.333 1082.06,-246.667 1082.06,-246.667 1082.06,-250.333 1078.4,-254 1074.73,-254"/>
<text text-anchor="middle" x="1004" y="-239.4" font-family="Helvetica,sans-Serif" font-size="12.00" fill="white">_RandomAccessIndexType</text>
</a>
</g>
</g>
<!-- _BidirectionalIndexType&#45;&gt;_RandomAccessIndexType -->
<g id="edge40" class="edge">
<path fill="none" stroke="#cccccc" d="M1474.46,-292.879C1377.22,-282.777 1199.18,-264.279 1092.21,-253.164"/>
<polygon fill="#cccccc" stroke="#cccccc" points="1092.39,-249.664 1082.08,-252.112 1091.66,-256.627 1092.39,-249.664"/>
</g>
<!-- _ForwardIndexType -->
<g id="node29" class="node">
<g id="a_node29"><a xlink:href="/protocol/_ForwardIndexType/" target="_top">
<path fill="#ee543d" stroke="#ee543d" d="M1709.71,-370C1709.71,-370 1608.29,-370 1608.29,-370 1604.62,-370 1600.95,-366.333 1600.95,-362.667 1600.95,-362.667 1600.95,-355.333 1600.95,-355.333 1600.95,-351.667 1604.62,-348 1608.29,-348 1608.29,-348 1709.71,-348 1709.71,-348 1713.38,-348 1717.05,-351.667 1717.05,-355.333 1717.05,-355.333 1717.05,-362.667 1717.05,-362.667 1717.05,-366.333 1713.38,-370 1709.71,-370"/>
<text text-anchor="middle" x="1659" y="-355.4" font-family="Helvetica,sans-Serif" font-size="12.00" fill="white">_ForwardIndexType</text>
</a>
</g>
</g>
<!-- _ForwardIndexType&#45;&gt;ForwardIndexType -->
<g id="edge1" class="edge">
<path fill="none" stroke="#cccccc" d="M1679.92,-347.988C1698.19,-339.243 1724.94,-326.438 1745.58,-316.559"/>
<polygon fill="#cccccc" stroke="#cccccc" points="1747.36,-319.588 1754.87,-312.114 1744.34,-313.274 1747.36,-319.588"/>
</g>
<!-- _ForwardIndexType&#45;&gt;_BidirectionalIndexType -->
<g id="edge2" class="edge">
<path fill="none" stroke="#cccccc" d="M1638.26,-347.988C1620.15,-339.243 1593.62,-326.438 1573.16,-316.559"/>
<polygon fill="#cccccc" stroke="#cccccc" points="1574.48,-313.309 1563.95,-312.114 1571.43,-319.613 1574.48,-313.309"/>
</g>
<!-- _Incrementable&#45;&gt;_ForwardIndexType -->
<g id="edge42" class="edge">
<path fill="none" stroke="#cccccc" d="M1659,-405.988C1659,-398.91 1659,-389.171 1659,-380.478"/>
<polygon fill="#cccccc" stroke="#cccccc" points="1662.5,-380.304 1659,-370.304 1655.5,-380.304 1662.5,-380.304"/>
</g>
<!-- _RandomAccessIndexType&#45;&gt;RandomAccessIndexType -->
<g id="edge41" class="edge">
<path fill="none" stroke="#cccccc" d="M936.242,-231.988C870.694,-222.303 771.443,-207.638 702.719,-197.484"/>
<polygon fill="#cccccc" stroke="#cccccc" points="703.213,-194.019 692.809,-196.019 702.19,-200.943 703.213,-194.019"/>
</g>
</g>
</svg>
