<?xml version="1.0" encoding="UTF-8" standalone="no"?>
<!DOCTYPE svg PUBLIC "-//W3C//DTD SVG 1.1//EN"
 "http://www.w3.org/Graphics/SVG/1.1/DTD/svg11.dtd">
<!-- Generated by graphviz version 2.36.0 (20140111.2315)
 -->
<!-- Title: _ForwardIndexType &#45; Type Hierarchy &#45; Swifter Pages: 1 -->
<svg width="2181pt" height="601pt"
 viewBox="0.00 0.00 2181.40 601.20" xmlns="http://www.w3.org/2000/svg" xmlns:xlink="http://www.w3.org/1999/xlink">
<g id="graph0" class="graph" transform="scale(1 1) rotate(0) translate(7.2 543.6)">
<g transform="translate(0 -543.6)">
<g>
    <path fill="#666666" d="M13.846,10.832c-0.336-0.464-0.792-0.844-1.368-1.14s-1.224-0.444-1.944-0.444
        c-0.384,0-0.772,0.052-1.164,0.156C8.977,9.509,8.622,9.677,8.301,9.908c-0.32,0.232-0.58,0.52-0.78,0.864
        c-0.2,0.344-0.3,0.756-0.3,1.236c0,0.464,0.092,0.852,0.276,1.164c0.184,0.312,0.432,0.576,0.744,0.792s0.68,0.4,1.104,0.552
        c0.423,0.152,0.876,0.309,1.356,0.468c0.576,0.177,1.16,0.376,1.752,0.601c0.592,0.224,1.128,0.52,1.608,0.888
        s0.872,0.828,1.176,1.38s0.456,1.252,0.456,2.101c0,0.88-0.164,1.644-0.492,2.292c-0.328,0.647-0.765,1.184-1.308,1.607
        c-0.544,0.424-1.172,0.74-1.884,0.948s-1.444,0.312-2.196,0.312c-1.072,0-2.108-0.208-3.108-0.624
        c-1-0.415-1.828-1.031-2.484-1.848l1.848-1.56c0.4,0.592,0.936,1.071,1.608,1.439c0.672,0.368,1.399,0.552,2.184,0.552
        c0.4,0,0.8-0.056,1.2-0.168c0.4-0.111,0.764-0.288,1.092-0.527c0.328-0.24,0.596-0.54,0.804-0.9
        c0.208-0.36,0.312-0.796,0.312-1.308s-0.108-0.94-0.324-1.284c-0.216-0.344-0.508-0.636-0.876-0.876s-0.796-0.444-1.284-0.612
        c-0.488-0.168-1.004-0.34-1.548-0.516c-0.544-0.16-1.08-0.356-1.608-0.588c-0.528-0.232-1-0.528-1.416-0.889
        c-0.416-0.359-0.752-0.804-1.008-1.332c-0.256-0.527-0.384-1.184-0.384-1.968c0-0.848,0.172-1.576,0.516-2.184
        c0.344-0.608,0.792-1.112,1.344-1.512c0.552-0.4,1.176-0.692,1.872-0.876c0.696-0.184,1.396-0.276,2.1-0.276
        c0.992,0,1.92,0.176,2.784,0.528c0.864,0.352,1.56,0.824,2.088,1.416L13.846,10.832z"/>
    <path fill="#666666" d="M18.813,13.304l2.568,8.688h0.048l2.712-8.688h2.376l2.76,8.688h0.048l2.568-8.688h2.376L30.501,24.68
        h-2.352l-2.808-8.544h-0.048l-2.784,8.544h-2.352l-3.792-11.376H18.813z"/>
    <path fill="#666666" d="M38.685,9.2c0,0.416-0.147,0.76-0.44,1.032c-0.294,0.272-0.647,0.408-1.06,0.408s-0.762-0.14-1.047-0.42
        c-0.286-0.28-0.429-0.62-0.429-1.02c0-0.416,0.143-0.764,0.429-1.044c0.286-0.28,0.635-0.42,1.047-0.42s0.766,0.14,1.06,0.42
        C38.538,8.437,38.685,8.784,38.685,9.2z M38.325,24.68h-2.256V13.304h2.256V24.68z"/>
    <path fill="#666666" d="M47.613,15.152h-2.64v9.528h-2.256v-9.528h-2.256v-1.848h2.256v-2.376c0-0.672,0.076-1.292,0.228-1.86
        c0.152-0.568,0.4-1.06,0.744-1.476c0.344-0.416,0.784-0.744,1.32-0.984c0.536-0.24,1.188-0.36,1.956-0.36
        c0.544,0,1.016,0.056,1.416,0.168l-0.264,1.944c-0.176-0.048-0.352-0.088-0.528-0.12c-0.176-0.032-0.376-0.048-0.6-0.048
        c-0.432,0-0.78,0.076-1.044,0.228c-0.264,0.152-0.468,0.356-0.612,0.612s-0.24,0.548-0.288,0.876
        c-0.048,0.328-0.072,0.668-0.072,1.02v2.376h2.64V15.152z"/>
    <path fill="#666666" d="M54.909,15.152h-3.024v5.91c0,0.687,0.128,1.177,0.384,1.472c0.256,0.295,0.664,0.442,1.224,0.442
        c0.208,0,0.432-0.021,0.672-0.065c0.24-0.044,0.456-0.11,0.648-0.198l0.072,1.848c-0.272,0.096-0.572,0.172-0.9,0.229
        c-0.328,0.056-0.668,0.084-1.02,0.084c-1.072,0-1.892-0.296-2.46-0.889c-0.568-0.592-0.852-1.479-0.852-2.664v-6.168h-2.184
        v-1.848h2.184V10.04h2.232v3.264h3.024V15.152z"/>
    <path fill="#666666" d="M57.356,7.688h5.832c1.088,0,2.176,0.16,3.264,0.48c1.088,0.32,2.072,0.824,2.952,1.512
        s1.592,1.568,2.136,2.64c0.544,1.072,0.816,2.36,0.816,3.864c0,1.456-0.272,2.716-0.816,3.78s-1.256,1.943-2.136,2.64
        s-1.864,1.216-2.952,1.561c-1.088,0.344-2.176,0.516-3.264,0.516h-5.832V7.688z M59.732,22.593h2.976
        c1.024,0,1.972-0.145,2.844-0.432c0.872-0.288,1.624-0.704,2.256-1.248c0.632-0.544,1.124-1.216,1.476-2.017
        c0.352-0.8,0.528-1.704,0.528-2.712c0-1.056-0.176-1.983-0.528-2.784c-0.353-0.8-0.844-1.468-1.476-2.004
        c-0.632-0.536-1.384-0.944-2.256-1.224s-1.82-0.42-2.844-0.42h-2.976V22.593z"/>
    <path fill="#666666" d="M86.06,18.969c0,0.88-0.156,1.688-0.468,2.424c-0.312,0.736-0.744,1.372-1.296,1.908
        c-0.552,0.536-1.204,0.952-1.956,1.248c-0.752,0.296-1.56,0.443-2.424,0.443c-0.864,0-1.672-0.147-2.424-0.443
        c-0.752-0.296-1.4-0.712-1.944-1.248c-0.544-0.536-0.972-1.172-1.284-1.908c-0.312-0.735-0.468-1.544-0.468-2.424
        s0.156-1.684,0.468-2.412c0.312-0.728,0.74-1.356,1.284-1.884c0.543-0.528,1.191-0.939,1.944-1.236
        c0.752-0.296,1.56-0.444,2.424-0.444c0.864,0,1.672,0.148,2.424,0.444c0.752,0.297,1.404,0.708,1.956,1.236
        c0.552,0.527,0.984,1.156,1.296,1.884C85.904,17.285,86.06,18.089,86.06,18.969z M83.708,18.98c0-0.542-0.084-1.061-0.252-1.556
        c-0.169-0.494-0.414-0.929-0.734-1.304s-0.718-0.674-1.192-0.897s-1.015-0.335-1.625-0.335c-0.61,0-1.152,0.111-1.625,0.335
        c-0.474,0.224-0.871,0.522-1.191,0.897c-0.321,0.375-0.566,0.81-0.734,1.304C76.184,17.92,76.1,18.438,76.1,18.98
        c0,0.543,0.084,1.062,0.253,1.556c0.168,0.495,0.413,0.934,0.734,1.316c0.321,0.383,0.718,0.686,1.191,0.909
        c0.473,0.224,1.015,0.335,1.625,0.335c0.61,0,1.151-0.111,1.625-0.335s0.871-0.526,1.192-0.909s0.565-0.821,0.734-1.316
        C83.624,20.042,83.708,19.523,83.708,18.98z"/>
    <path fill="#666666" d="M96.428,16.184c-0.24-0.368-0.6-0.676-1.08-0.924s-0.992-0.372-1.536-0.372
        c-0.592,0-1.116,0.112-1.572,0.336c-0.456,0.225-0.844,0.524-1.164,0.9c-0.32,0.376-0.564,0.812-0.732,1.308
        s-0.252,1.017-0.252,1.56c0,0.545,0.084,1.064,0.252,1.561s0.412,0.933,0.732,1.308c0.32,0.376,0.712,0.677,1.176,0.9
        c0.464,0.225,0.992,0.336,1.584,0.336c0.576,0,1.1-0.111,1.572-0.336c0.472-0.224,0.86-0.528,1.164-0.912l1.512,1.368
        c-0.48,0.561-1.08,0.996-1.8,1.308c-0.72,0.312-1.536,0.468-2.448,0.468c-0.88,0-1.692-0.144-2.436-0.432
        c-0.744-0.288-1.388-0.691-1.932-1.212c-0.544-0.52-0.972-1.147-1.284-1.884s-0.468-1.561-0.468-2.473
        c0-0.896,0.152-1.711,0.456-2.447c0.304-0.736,0.728-1.368,1.272-1.896c0.543-0.527,1.188-0.936,1.932-1.224
        c0.744-0.288,1.548-0.433,2.412-0.433c0.8,0,1.596,0.16,2.388,0.48s1.419,0.784,1.884,1.392L96.428,16.184z"/>
    <path fill="#666666" d="M103.1,23.24c0,0.417-0.152,0.784-0.456,1.104c-0.304,0.32-0.688,0.479-1.152,0.479
        c-0.448,0-0.828-0.155-1.14-0.468c-0.312-0.312-0.468-0.676-0.468-1.092c0-0.432,0.152-0.804,0.456-1.116
        c0.304-0.312,0.688-0.468,1.152-0.468c0.464,0,0.848,0.152,1.152,0.456C102.947,22.44,103.1,22.808,103.1,23.24z"/>
    <path fill="#666666" d="M116.635,18.969c0,0.88-0.156,1.688-0.468,2.424c-0.312,0.736-0.744,1.372-1.296,1.908
        c-0.552,0.536-1.204,0.952-1.956,1.248c-0.752,0.296-1.56,0.443-2.424,0.443c-0.864,0-1.672-0.147-2.424-0.443
        c-0.752-0.296-1.4-0.712-1.944-1.248c-0.544-0.536-0.972-1.172-1.284-1.908c-0.312-0.735-0.468-1.544-0.468-2.424
        s0.156-1.684,0.468-2.412c0.312-0.728,0.74-1.356,1.284-1.884c0.543-0.528,1.191-0.939,1.944-1.236
        c0.752-0.296,1.56-0.444,2.424-0.444c0.864,0,1.672,0.148,2.424,0.444c0.752,0.297,1.404,0.708,1.956,1.236
        c0.552,0.527,0.984,1.156,1.296,1.884C116.479,17.285,116.635,18.089,116.635,18.969z M114.283,18.98
        c0-0.542-0.084-1.061-0.252-1.556c-0.169-0.494-0.414-0.929-0.734-1.304s-0.718-0.674-1.192-0.897s-1.015-0.335-1.625-0.335
        c-0.61,0-1.152,0.111-1.625,0.335c-0.474,0.224-0.871,0.522-1.191,0.897c-0.321,0.375-0.566,0.81-0.734,1.304
        c-0.169,0.495-0.253,1.014-0.253,1.556c0,0.543,0.084,1.062,0.253,1.556c0.168,0.495,0.413,0.934,0.734,1.316
        c0.321,0.383,0.718,0.686,1.191,0.909c0.473,0.224,1.015,0.335,1.625,0.335c0.61,0,1.151-0.111,1.625-0.335
        s0.871-0.526,1.192-0.909s0.565-0.821,0.734-1.316C114.199,20.042,114.283,19.523,114.283,18.98z"/>
    <path fill="#666666" d="M119.251,14.577c-0.016-0.48-0.04-0.904-0.072-1.272h2.136c0.032,0.288,0.056,0.62,0.072,0.996
        c0.016,0.376,0.024,0.684,0.024,0.924h0.072c0.32-0.672,0.788-1.212,1.404-1.62c0.616-0.408,1.308-0.612,2.076-0.612
        c0.352,0,0.648,0.033,0.888,0.097l-0.096,2.088c-0.32-0.08-0.664-0.12-1.032-0.12c-0.544,0-1.016,0.101-1.416,0.3
        c-0.4,0.2-0.732,0.468-0.996,0.805c-0.264,0.336-0.46,0.724-0.588,1.163c-0.128,0.44-0.192,0.9-0.192,1.381v5.976h-2.256v-8.928
        C119.275,15.449,119.267,15.056,119.251,14.577z"/>
    <path fill="#666666" d="M128.419,26.625c0.496,0.56,1.116,1.008,1.86,1.344c0.744,0.336,1.508,0.504,2.292,0.504
        c0.752,0,1.384-0.108,1.896-0.324s0.924-0.512,1.236-0.888s0.536-0.82,0.672-1.332c0.136-0.513,0.204-1.064,0.204-1.656v-1.464
        h-0.048c-0.416,0.641-0.984,1.128-1.704,1.464c-0.72,0.336-1.488,0.504-2.304,0.504c-0.864,0-1.652-0.151-2.364-0.456
        c-0.712-0.304-1.316-0.72-1.812-1.248c-0.496-0.527-0.88-1.147-1.152-1.859s-0.408-1.477-0.408-2.292
        c0-0.816,0.136-1.584,0.408-2.305c0.272-0.72,0.656-1.348,1.152-1.884c0.496-0.535,1.096-0.96,1.8-1.271
        c0.704-0.312,1.488-0.469,2.352-0.469c0.816,0,1.596,0.177,2.34,0.528c0.744,0.353,1.332,0.888,1.764,1.608h0.048v-1.824h2.184
        v10.8c0,0.832-0.104,1.628-0.312,2.388c-0.208,0.76-0.56,1.433-1.056,2.017s-1.144,1.052-1.944,1.404
        c-0.8,0.352-1.792,0.527-2.976,0.527c-0.992,0-1.988-0.18-2.988-0.54c-1-0.359-1.86-0.868-2.58-1.523L128.419,26.625z
         M129.091,18.873c0,0.527,0.084,1.031,0.253,1.512c0.168,0.479,0.417,0.904,0.746,1.271c0.329,0.369,0.726,0.664,1.192,0.889
        c0.465,0.224,0.995,0.336,1.589,0.336c0.577,0,1.107-0.104,1.589-0.312c0.481-0.207,0.891-0.491,1.228-0.852
        s0.598-0.784,0.782-1.272c0.185-0.487,0.277-1.012,0.277-1.571c0-0.544-0.093-1.057-0.277-1.536
        c-0.185-0.48-0.449-0.904-0.794-1.272c-0.345-0.367-0.755-0.66-1.228-0.876c-0.474-0.216-1-0.324-1.577-0.324
        c-0.594,0-1.124,0.108-1.589,0.324c-0.466,0.216-0.863,0.504-1.192,0.864s-0.578,0.784-0.746,1.271
        C129.175,17.812,129.091,18.329,129.091,18.873z"/>
</g>
<g><a xlink:href="/" pointer-events="all" target="_top"><polygon fill="none" points="0,0 145,0 145,35 0,35 0,0"/></a></g>

</g>


<!-- BidirectionalIndexType -->
<g id="node1" class="node">
<g id="a_node1"><a xlink:href="/protocol/BidirectionalIndexType/" target="_top">
<path fill="#999999" stroke="#999999" d="M1467.73,-254C1467.73,-254 1352.27,-254 1352.27,-254 1348.61,-254 1344.94,-250.333 1344.94,-246.667 1344.94,-246.667 1344.94,-239.333 1344.94,-239.333 1344.94,-235.667 1348.61,-232 1352.27,-232 1352.27,-232 1467.73,-232 1467.73,-232 1471.39,-232 1475.06,-235.667 1475.06,-239.333 1475.06,-239.333 1475.06,-246.667 1475.06,-246.667 1475.06,-250.333 1471.39,-254 1467.73,-254"/>
<text text-anchor="middle" x="1410" y="-239.4" font-family="Helvetica,sans-Serif" font-size="12.00" fill="white">BidirectionalIndexType</text>
</a>
</g>
</g>
<!-- RandomAccessIndexType -->
<g id="node13" class="node">
<g id="a_node13"><a xlink:href="/protocol/RandomAccessIndexType/" target="_top">
<path fill="#999999" stroke="#999999" d="M700.225,-196C700.225,-196 565.775,-196 565.775,-196 562.108,-196 558.441,-192.333 558.441,-188.667 558.441,-188.667 558.441,-181.333 558.441,-181.333 558.441,-177.667 562.108,-174 565.775,-174 565.775,-174 700.225,-174 700.225,-174 703.892,-174 707.559,-177.667 707.559,-181.333 707.559,-181.333 707.559,-188.667 707.559,-188.667 707.559,-192.333 703.892,-196 700.225,-196"/>
<text text-anchor="middle" x="633" y="-181.4" font-family="Helvetica,sans-Serif" font-size="12.00" fill="white">RandomAccessIndexType</text>
</a>
</g>
</g>
<!-- BidirectionalIndexType&#45;&gt;RandomAccessIndexType -->
<g id="edge8" class="edge">
<path fill="none" stroke="#cccccc" d="M1344.76,-237.298C1204.37,-227.18 873.719,-203.349 717.529,-192.092"/>
<polygon fill="#cccccc" stroke="#cccccc" points="717.723,-188.597 707.498,-191.369 717.22,-195.579 717.723,-188.597"/>
</g>
<!-- ReverseBidirectionalIndex -->
<g id="node14" class="node">
<g id="a_node14"><a xlink:href="/type/ReverseBidirectionalIndex/" target="_top">
<polygon fill="#999999" stroke="#999999" points="1667.55,-22 1518.45,-22 1518.45,-0 1667.55,-0 1667.55,-22"/>
<text text-anchor="middle" x="1593" y="-7.4" font-family="Helvetica,sans-Serif" font-size="12.00" fill="white">ReverseBidirectionalIndex</text>
</a>
</g>
</g>
<!-- BidirectionalIndexType&#45;&gt;ReverseBidirectionalIndex -->
<g id="edge9" class="edge">
<path fill="none" stroke="#cccccc" d="M1418.1,-231.82C1446.56,-196.047 1542.24,-75.7942 1578.71,-29.9551"/>
<polygon fill="#cccccc" stroke="#cccccc" points="1581.51,-32.0665 1584.99,-22.062 1576.03,-27.7081 1581.51,-32.0665"/>
</g>
<!-- String.Index -->
<g id="node18" class="node">
<g id="a_node18"><a xlink:href="/type/String.Index/" target="_top">
<polygon fill="#999999" stroke="#999999" points="1302.03,-22 1227.97,-22 1227.97,-0 1302.03,-0 1302.03,-22"/>
<text text-anchor="middle" x="1265" y="-7.4" font-family="Helvetica,sans-Serif" font-size="12.00" fill="white">String.Index</text>
</a>
</g>
</g>
<!-- BidirectionalIndexType&#45;&gt;String.Index -->
<g id="edge10" class="edge">
<path fill="none" stroke="#cccccc" d="M1403.58,-231.82C1381.12,-196.196 1305.85,-76.7927 1276.68,-30.5307"/>
<polygon fill="#cccccc" stroke="#cccccc" points="1279.64,-28.6547 1271.34,-22.062 1273.72,-32.3879 1279.64,-28.6547"/>
</g>
<!-- String.UnicodeScalarView.Index -->
<g id="node20" class="node">
<g id="a_node20"><a xlink:href="/type/String.UnicodeScalarView.Index/" target="_top">
<polygon fill="#999999" stroke="#999999" points="1499.92,-22 1320.08,-22 1320.08,-0 1499.92,-0 1499.92,-22"/>
<text text-anchor="middle" x="1410" y="-7.4" font-family="Helvetica,sans-Serif" font-size="12.00" fill="white">String.UnicodeScalarView.Index</text>
</a>
</g>
</g>
<!-- BidirectionalIndexType&#45;&gt;String.UnicodeScalarView.Index -->
<g id="edge11" class="edge">
<path fill="none" stroke="#cccccc" d="M1410,-231.82C1410,-196.642 1410,-79.7709 1410,-32.3033"/>
<polygon fill="#cccccc" stroke="#cccccc" points="1413.5,-32.062 1410,-22.062 1406.5,-32.0621 1413.5,-32.062"/>
</g>
<!-- Bit -->
<g id="node2" class="node">
<g id="a_node2"><a xlink:href="/type/Bit/" target="_top">
<polygon fill="#999999" stroke="#999999" points="774,-22 720,-22 720,-0 774,-0 774,-22"/>
<text text-anchor="middle" x="747" y="-7.4" font-family="Helvetica,sans-Serif" font-size="12.00" fill="white">Bit</text>
</a>
</g>
</g>
<!-- DictionaryIndex -->
<g id="node3" class="node">
<g id="a_node3"><a xlink:href="/type/DictionaryIndex/" target="_top">
<polygon fill="#999999" stroke="#999999" points="1778.03,-22 1685.97,-22 1685.97,-0 1778.03,-0 1778.03,-22"/>
<text text-anchor="middle" x="1732" y="-7.4" font-family="Helvetica,sans-Serif" font-size="12.00" fill="white">DictionaryIndex</text>
</a>
</g>
</g>
<!-- Equatable -->
<g id="node4" class="node">
<g id="a_node4"><a xlink:href="/protocol/Equatable/" target="_top">
<path fill="#999999" stroke="#999999" d="M1629.7,-486C1629.7,-486 1580.3,-486 1580.3,-486 1576.63,-486 1572.96,-482.333 1572.96,-478.667 1572.96,-478.667 1572.96,-471.333 1572.96,-471.333 1572.96,-467.667 1576.63,-464 1580.3,-464 1580.3,-464 1629.7,-464 1629.7,-464 1633.37,-464 1637.04,-467.667 1637.04,-471.333 1637.04,-471.333 1637.04,-478.667 1637.04,-478.667 1637.04,-482.333 1633.37,-486 1629.7,-486"/>
<text text-anchor="middle" x="1605" y="-471.4" font-family="Helvetica,sans-Serif" font-size="12.00" fill="white">Equatable</text>
</a>
</g>
</g>
<!-- _Incrementable -->
<g id="node31" class="node">
<g id="a_node31"><a xlink:href="/protocol/_Incrementable/" target="_top">
<path fill="#999999" stroke="#999999" d="M1643.71,-428C1643.71,-428 1566.29,-428 1566.29,-428 1562.63,-428 1558.96,-424.333 1558.96,-420.667 1558.96,-420.667 1558.96,-413.333 1558.96,-413.333 1558.96,-409.667 1562.63,-406 1566.29,-406 1566.29,-406 1643.71,-406 1643.71,-406 1647.37,-406 1651.04,-409.667 1651.04,-413.333 1651.04,-413.333 1651.04,-420.667 1651.04,-420.667 1651.04,-424.333 1647.37,-428 1643.71,-428"/>
<text text-anchor="middle" x="1605" y="-413.4" font-family="Helvetica,sans-Serif" font-size="12.00" fill="white">_Incrementable</text>
</a>
</g>
</g>
<!-- Equatable&#45;&gt;_Incrementable -->
<g id="edge44" class="edge">
<path fill="none" stroke="#cccccc" d="M1605,-463.988C1605,-456.91 1605,-447.171 1605,-438.478"/>
<polygon fill="#cccccc" stroke="#cccccc" points="1608.5,-438.304 1605,-428.304 1601.5,-438.304 1608.5,-438.304"/>
</g>
<!-- FilterCollectionViewIndex -->
<g id="node5" class="node">
<g id="a_node5"><a xlink:href="/type/FilterCollectionViewIndex/" target="_top">
<polygon fill="#999999" stroke="#999999" points="1940.89,-22 1797.11,-22 1797.11,-0 1940.89,-0 1940.89,-22"/>
<text text-anchor="middle" x="1869" y="-7.4" font-family="Helvetica,sans-Serif" font-size="12.00" fill="white">FilterCollectionViewIndex</text>
</a>
</g>
</g>
<!-- ForwardIndexType -->
<g id="node6" class="node">
<g id="a_node6"><a xlink:href="/protocol/ForwardIndexType/" target="_top">
<path fill="#999999" stroke="#999999" d="M1847.21,-312C1847.21,-312 1752.79,-312 1752.79,-312 1749.13,-312 1745.46,-308.333 1745.46,-304.667 1745.46,-304.667 1745.46,-297.333 1745.46,-297.333 1745.46,-293.667 1749.13,-290 1752.79,-290 1752.79,-290 1847.21,-290 1847.21,-290 1850.87,-290 1854.54,-293.667 1854.54,-297.333 1854.54,-297.333 1854.54,-304.667 1854.54,-304.667 1854.54,-308.333 1850.87,-312 1847.21,-312"/>
<text text-anchor="middle" x="1800" y="-297.4" font-family="Helvetica,sans-Serif" font-size="12.00" fill="white">ForwardIndexType</text>
</a>
</g>
</g>
<!-- ForwardIndexType&#45;&gt;BidirectionalIndexType -->
<g id="edge3" class="edge">
<path fill="none" stroke="#cccccc" d="M1745.36,-292.154C1677.55,-282.417 1561.56,-265.763 1485.34,-254.818"/>
<polygon fill="#cccccc" stroke="#cccccc" points="1485.72,-251.336 1475.32,-253.379 1484.72,-258.265 1485.72,-251.336"/>
</g>
<!-- ForwardIndexType&#45;&gt;DictionaryIndex -->
<g id="edge4" class="edge">
<path fill="none" stroke="#cccccc" d="M1788.77,-289.906C1769.46,-271.373 1732,-229.786 1732,-186 1732,-186 1732,-186 1732,-126 1732,-93.1536 1732,-54.9837 1732,-32.197"/>
<polygon fill="#cccccc" stroke="#cccccc" points="1735.5,-32.0648 1732,-22.0648 1728.5,-32.0648 1735.5,-32.0648"/>
</g>
<!-- ForwardIndexType&#45;&gt;FilterCollectionViewIndex -->
<g id="edge5" class="edge">
<path fill="none" stroke="#cccccc" d="M1811.39,-289.94C1830.99,-271.461 1869,-229.956 1869,-186 1869,-186 1869,-186 1869,-126 1869,-93.1536 1869,-54.9837 1869,-32.197"/>
<polygon fill="#cccccc" stroke="#cccccc" points="1872.5,-32.0648 1869,-22.0648 1865.5,-32.0648 1872.5,-32.0648"/>
</g>
<!-- SetIndex -->
<g id="node16" class="node">
<g id="a_node16"><a xlink:href="/type/SetIndex/" target="_top">
<polygon fill="#999999" stroke="#999999" points="2016.52,-22 1959.48,-22 1959.48,-0 2016.52,-0 2016.52,-22"/>
<text text-anchor="middle" x="1988" y="-7.4" font-family="Helvetica,sans-Serif" font-size="12.00" fill="white">SetIndex</text>
</a>
</g>
</g>
<!-- ForwardIndexType&#45;&gt;SetIndex -->
<g id="edge6" class="edge">
<path fill="none" stroke="#cccccc" d="M1854.38,-290.901C1909.9,-278.134 1988,-248.982 1988,-186 1988,-186 1988,-186 1988,-126 1988,-93.1536 1988,-54.9837 1988,-32.197"/>
<polygon fill="#cccccc" stroke="#cccccc" points="1991.5,-32.0648 1988,-22.0648 1984.5,-32.0648 1991.5,-32.0648"/>
</g>
<!-- String.UTF8View.Index -->
<g id="node19" class="node">
<g id="a_node19"><a xlink:href="/type/String.UTF8View.Index/" target="_top">
<polygon fill="#999999" stroke="#999999" points="2166.89,-22 2035.11,-22 2035.11,-0 2166.89,-0 2166.89,-22"/>
<text text-anchor="middle" x="2101" y="-7.4" font-family="Helvetica,sans-Serif" font-size="12.00" fill="white">String.UTF8View.Index</text>
</a>
</g>
</g>
<!-- ForwardIndexType&#45;&gt;String.UTF8View.Index -->
<g id="edge7" class="edge">
<path fill="none" stroke="#cccccc" d="M1854.51,-290.877C1941.25,-274.797 2101,-238.107 2101,-186 2101,-186 2101,-186 2101,-126 2101,-93.1536 2101,-54.9837 2101,-32.197"/>
<polygon fill="#cccccc" stroke="#cccccc" points="2104.5,-32.0648 2101,-22.0648 2097.5,-32.0648 2104.5,-32.0648"/>
</g>
<!-- Int -->
<g id="node7" class="node">
<g id="a_node7"><a xlink:href="/type/Int/" target="_top">
<polygon fill="#999999" stroke="#999999" points="54,-22 0,-22 0,-0 54,-0 54,-22"/>
<text text-anchor="middle" x="27" y="-7.4" font-family="Helvetica,sans-Serif" font-size="12.00" fill="white">Int</text>
</a>
</g>
</g>
<!-- Int&#45;&gt;Bit -->
<g id="edge27" class="edge">
<path fill="none" stroke="#cccccc" d="M39.7788,-22.0854C48.283,-28.7029 60.0524,-36.4837 72,-40 139.152,-59.7636 634.848,-59.7636 702,-40 710.401,-37.5276 718.713,-32.9469 725.865,-28.1447"/>
<polygon fill="#cccccc" stroke="#cccccc" points="728.18,-30.7891 734.221,-22.0854 724.071,-25.122 728.18,-30.7891"/>
</g>
<!-- Int16 -->
<g id="node8" class="node">
<g id="a_node8"><a xlink:href="/type/Int16/" target="_top">
<polygon fill="#999999" stroke="#999999" points="126,-22 72,-22 72,-0 126,-0 126,-22"/>
<text text-anchor="middle" x="99" y="-7.4" font-family="Helvetica,sans-Serif" font-size="12.00" fill="white">Int16</text>
</a>
</g>
</g>
<!-- Int32 -->
<g id="node9" class="node">
<g id="a_node9"><a xlink:href="/type/Int32/" target="_top">
<polygon fill="#999999" stroke="#999999" points="198,-22 144,-22 144,-0 198,-0 198,-22"/>
<text text-anchor="middle" x="171" y="-7.4" font-family="Helvetica,sans-Serif" font-size="12.00" fill="white">Int32</text>
</a>
</g>
</g>
<!-- Int64 -->
<g id="node10" class="node">
<g id="a_node10"><a xlink:href="/type/Int64/" target="_top">
<polygon fill="#999999" stroke="#999999" points="270,-22 216,-22 216,-0 270,-0 270,-22"/>
<text text-anchor="middle" x="243" y="-7.4" font-family="Helvetica,sans-Serif" font-size="12.00" fill="white">Int64</text>
</a>
</g>
</g>
<!-- Int8 -->
<g id="node11" class="node">
<g id="a_node11"><a xlink:href="/type/Int8/" target="_top">
<polygon fill="#999999" stroke="#999999" points="342,-22 288,-22 288,-0 342,-0 342,-22"/>
<text text-anchor="middle" x="315" y="-7.4" font-family="Helvetica,sans-Serif" font-size="12.00" fill="white">Int8</text>
</a>
</g>
</g>
<!-- IntegerType -->
<g id="node12" class="node">
<g id="a_node12"><a xlink:href="/protocol/IntegerType/" target="_top">
<path fill="#999999" stroke="#999999" d="M341.202,-138C341.202,-138 282.798,-138 282.798,-138 279.132,-138 275.465,-134.333 275.465,-130.667 275.465,-130.667 275.465,-123.333 275.465,-123.333 275.465,-119.667 279.132,-116 282.798,-116 282.798,-116 341.202,-116 341.202,-116 344.868,-116 348.535,-119.667 348.535,-123.333 348.535,-123.333 348.535,-130.667 348.535,-130.667 348.535,-134.333 344.868,-138 341.202,-138"/>
<text text-anchor="middle" x="312" y="-123.4" font-family="Helvetica,sans-Serif" font-size="12.00" fill="white">IntegerType</text>
</a>
</g>
</g>
<!-- SignedIntegerType -->
<g id="node17" class="node">
<g id="a_node17"><a xlink:href="/protocol/SignedIntegerType/" target="_top">
<path fill="#999999" stroke="#999999" d="M233.727,-80C233.727,-80 138.273,-80 138.273,-80 134.606,-80 130.94,-76.3333 130.94,-72.6667 130.94,-72.6667 130.94,-65.3333 130.94,-65.3333 130.94,-61.6667 134.606,-58 138.273,-58 138.273,-58 233.727,-58 233.727,-58 237.394,-58 241.06,-61.6667 241.06,-65.3333 241.06,-65.3333 241.06,-72.6667 241.06,-72.6667 241.06,-76.3333 237.394,-80 233.727,-80"/>
<text text-anchor="middle" x="186" y="-65.4" font-family="Helvetica,sans-Serif" font-size="12.00" fill="white">SignedIntegerType</text>
</a>
</g>
</g>
<!-- IntegerType&#45;&gt;SignedIntegerType -->
<g id="edge28" class="edge">
<path fill="none" stroke="#cccccc" d="M289.474,-115.988C269.619,-107.164 240.464,-94.206 218.157,-84.2919"/>
<polygon fill="#cccccc" stroke="#cccccc" points="219.316,-80.9769 208.756,-80.1138 216.473,-87.3736 219.316,-80.9769"/>
</g>
<!-- UnsignedIntegerType -->
<g id="node28" class="node">
<g id="a_node28"><a xlink:href="/protocol/UnsignedIntegerType/" target="_top">
<path fill="#999999" stroke="#999999" d="M597.728,-80C597.728,-80 488.272,-80 488.272,-80 484.605,-80 480.938,-76.3333 480.938,-72.6667 480.938,-72.6667 480.938,-65.3333 480.938,-65.3333 480.938,-61.6667 484.605,-58 488.272,-58 488.272,-58 597.728,-58 597.728,-58 601.395,-58 605.062,-61.6667 605.062,-65.3333 605.062,-65.3333 605.062,-72.6667 605.062,-72.6667 605.062,-76.3333 601.395,-80 597.728,-80"/>
<text text-anchor="middle" x="543" y="-65.4" font-family="Helvetica,sans-Serif" font-size="12.00" fill="white">UnsignedIntegerType</text>
</a>
</g>
</g>
<!-- IntegerType&#45;&gt;UnsignedIntegerType -->
<g id="edge29" class="edge">
<path fill="none" stroke="#cccccc" d="M348.348,-117.188C386.893,-107.844 448.099,-93.0064 491.579,-82.4657"/>
<polygon fill="#cccccc" stroke="#cccccc" points="492.504,-85.8429 501.398,-80.0853 490.855,-79.0399 492.504,-85.8429"/>
</g>
<!-- RandomAccessIndexType&#45;&gt;Bit -->
<g id="edge12" class="edge">
<path fill="none" stroke="#cccccc" d="M646.249,-173.706C656.844,-165.004 671.596,-151.783 682,-138 707.938,-103.64 728.774,-57.4161 739.373,-31.5781"/>
<polygon fill="#cccccc" stroke="#cccccc" points="742.682,-32.7278 743.157,-22.1436 736.186,-30.1218 742.682,-32.7278"/>
</g>
<!-- RandomAccessIndexType&#45;&gt;Int -->
<g id="edge13" class="edge">
<path fill="none" stroke="#cccccc" d="M558.367,-184.156C436.797,-183.263 202.31,-176.416 130,-138 84.4679,-113.81 51.5121,-60.083 36.3391,-31.22"/>
<polygon fill="#cccccc" stroke="#cccccc" points="39.3736,-29.4657 31.7224,-22.137 33.1334,-32.6375 39.3736,-29.4657"/>
</g>
<!-- RandomAccessIndexType&#45;&gt;Int16 -->
<g id="edge14" class="edge">
<path fill="none" stroke="#cccccc" d="M558.373,-184.152C441.955,-183.177 223.548,-176.12 157,-138 119.016,-116.242 105.731,-61.8545 101.221,-32.1462"/>
<polygon fill="#cccccc" stroke="#cccccc" points="104.671,-31.5419 99.8883,-22.0881 97.7318,-32.4611 104.671,-31.5419"/>
</g>
<!-- RandomAccessIndexType&#45;&gt;Int32 -->
<g id="edge15" class="edge">
<path fill="none" stroke="#cccccc" d="M558.322,-181.102C481.582,-176.682 359.219,-165.604 257,-138 193.955,-120.975 157.924,-134.534 122,-80 110.099,-61.934 128.547,-41.9173 146.108,-28.3087"/>
<polygon fill="#cccccc" stroke="#cccccc" points="148.499,-30.897 154.52,-22.1796 144.377,-25.2394 148.499,-30.897"/>
</g>
<!-- RandomAccessIndexType&#45;&gt;Int64 -->
<g id="edge16" class="edge">
<path fill="none" stroke="#cccccc" d="M558.287,-184.693C463.333,-183.926 306.824,-176.605 266,-138 262.173,-134.381 251.41,-67.084 246.076,-32.3612"/>
<polygon fill="#cccccc" stroke="#cccccc" points="249.517,-31.7125 244.55,-22.3542 242.597,-32.7675 249.517,-31.7125"/>
</g>
<!-- RandomAccessIndexType&#45;&gt;Int8 -->
<g id="edge17" class="edge">
<path fill="none" stroke="#cccccc" d="M579.496,-173.976C547.689,-166.709 507.206,-155.114 474,-138 416.441,-108.335 359.549,-56.2924 332.053,-29.3141"/>
<polygon fill="#cccccc" stroke="#cccccc" points="334.358,-26.6699 324.798,-22.1032 329.423,-31.6349 334.358,-26.6699"/>
</g>
<!-- RandomAccessIndexType&#45;&gt;IntegerType -->
<g id="edge18" class="edge">
<path fill="none" stroke="#cccccc" d="M571.532,-173.975C516.757,-164.935 434.444,-151.088 363,-138 361.53,-137.731 360.037,-137.454 358.53,-137.173"/>
<polygon fill="#cccccc" stroke="#cccccc" points="358.951,-133.691 348.474,-135.266 357.647,-140.568 358.951,-133.691"/>
</g>
<!-- ReverseRandomAccessIndex -->
<g id="node15" class="node">
<g id="a_node15"><a xlink:href="/type/ReverseRandomAccessIndex/" target="_top">
<polygon fill="#999999" stroke="#999999" points="960.056,-22 791.944,-22 791.944,-0 960.056,-0 960.056,-22"/>
<text text-anchor="middle" x="876" y="-7.4" font-family="Helvetica,sans-Serif" font-size="12.00" fill="white">ReverseRandomAccessIndex</text>
</a>
</g>
</g>
<!-- RandomAccessIndexType&#45;&gt;ReverseRandomAccessIndex -->
<g id="edge19" class="edge">
<path fill="none" stroke="#cccccc" d="M649.247,-173.847C663.752,-164.694 685.499,-150.755 704,-138 759.157,-99.9756 822.292,-52.7398 854.557,-28.3218"/>
<polygon fill="#cccccc" stroke="#cccccc" points="856.953,-30.8974 862.806,-22.0663 852.723,-25.3197 856.953,-30.8974"/>
</g>
<!-- UInt -->
<g id="node21" class="node">
<g id="a_node21"><a xlink:href="/type/UInt/" target="_top">
<polygon fill="#999999" stroke="#999999" points="558,-22 504,-22 504,-0 558,-0 558,-22"/>
<text text-anchor="middle" x="531" y="-7.4" font-family="Helvetica,sans-Serif" font-size="12.00" fill="white">UInt</text>
</a>
</g>
</g>
<!-- RandomAccessIndexType&#45;&gt;UInt -->
<g id="edge20" class="edge">
<path fill="none" stroke="#cccccc" d="M634.294,-173.766C636.641,-150.801 639.244,-94.336 614,-58 602.921,-42.0526 584.449,-31.0389 567.74,-23.7963"/>
<polygon fill="#cccccc" stroke="#cccccc" points="568.76,-20.4342 558.176,-19.9589 566.153,-26.9308 568.76,-20.4342"/>
</g>
<!-- UInt16 -->
<g id="node22" class="node">
<g id="a_node22"><a xlink:href="/type/UInt16/" target="_top">
<polygon fill="#999999" stroke="#999999" points="630,-22 576,-22 576,-0 630,-0 630,-22"/>
<text text-anchor="middle" x="603" y="-7.4" font-family="Helvetica,sans-Serif" font-size="12.00" fill="white">UInt16</text>
</a>
</g>
</g>
<!-- RandomAccessIndexType&#45;&gt;UInt16 -->
<g id="edge21" class="edge">
<path fill="none" stroke="#cccccc" d="M637.329,-173.756C645.979,-151.7 663.229,-98.4446 647,-58 642.463,-46.6923 633.673,-36.5926 625.135,-28.7576"/>
<polygon fill="#cccccc" stroke="#cccccc" points="627.37,-26.064 617.494,-22.2292 622.823,-31.3861 627.37,-26.064"/>
</g>
<!-- UInt32 -->
<g id="node23" class="node">
<g id="a_node23"><a xlink:href="/type/UInt32/" target="_top">
<polygon fill="#999999" stroke="#999999" points="702,-22 648,-22 648,-0 702,-0 702,-22"/>
<text text-anchor="middle" x="675" y="-7.4" font-family="Helvetica,sans-Serif" font-size="12.00" fill="white">UInt32</text>
</a>
</g>
</g>
<!-- RandomAccessIndexType&#45;&gt;UInt32 -->
<g id="edge22" class="edge">
<path fill="none" stroke="#cccccc" d="M642.388,-173.938C649.944,-165.171 660.085,-151.74 665,-138 677.689,-102.523 677.855,-57.9537 676.589,-32.4484"/>
<polygon fill="#cccccc" stroke="#cccccc" points="680.064,-31.9343 675.946,-22.1724 673.077,-32.3715 680.064,-31.9343"/>
</g>
<!-- UInt64 -->
<g id="node24" class="node">
<g id="a_node24"><a xlink:href="/type/UInt64/" target="_top">
<polygon fill="#999999" stroke="#999999" points="414,-22 360,-22 360,-0 414,-0 414,-22"/>
<text text-anchor="middle" x="387" y="-7.4" font-family="Helvetica,sans-Serif" font-size="12.00" fill="white">UInt64</text>
</a>
</g>
</g>
<!-- RandomAccessIndexType&#45;&gt;UInt64 -->
<g id="edge23" class="edge">
<path fill="none" stroke="#cccccc" d="M589.072,-173.98C562.929,-166.689 529.913,-155.069 504,-138 458.758,-108.198 418.861,-57.3267 399.468,-30.2366"/>
<polygon fill="#cccccc" stroke="#cccccc" points="402.312,-28.1963 393.7,-22.0261 396.585,-32.2205 402.312,-28.1963"/>
</g>
<!-- UInt8 -->
<g id="node25" class="node">
<g id="a_node25"><a xlink:href="/type/UInt8/" target="_top">
<polygon fill="#999999" stroke="#999999" points="486,-22 432,-22 432,-0 486,-0 486,-22"/>
<text text-anchor="middle" x="459" y="-7.4" font-family="Helvetica,sans-Serif" font-size="12.00" fill="white">UInt8</text>
</a>
</g>
</g>
<!-- RandomAccessIndexType&#45;&gt;UInt8 -->
<g id="edge24" class="edge">
<path fill="none" stroke="#cccccc" d="M604.935,-173.982C568.194,-159.333 504.64,-128.426 472,-80 462.565,-66.0014 459.569,-46.8946 458.788,-32.4984"/>
<polygon fill="#cccccc" stroke="#cccccc" points="462.279,-32.0692 458.555,-22.1505 455.281,-32.2268 462.279,-32.0692"/>
</g>
<!-- UnsafeMutablePointer -->
<g id="node26" class="node">
<g id="a_node26"><a xlink:href="/type/UnsafeMutablePointer/" target="_top">
<polygon fill="#999999" stroke="#999999" points="1106.05,-22 977.949,-22 977.949,-0 1106.05,-0 1106.05,-22"/>
<text text-anchor="middle" x="1042" y="-7.4" font-family="Helvetica,sans-Serif" font-size="12.00" fill="white">UnsafeMutablePointer</text>
</a>
</g>
</g>
<!-- RandomAccessIndexType&#45;&gt;UnsafeMutablePointer -->
<g id="edge25" class="edge">
<path fill="none" stroke="#cccccc" d="M657.058,-173.883C726.601,-144.637 928.024,-59.9312 1008.35,-26.151"/>
<polygon fill="#cccccc" stroke="#cccccc" points="1010.11,-29.2074 1017.97,-22.1045 1007.4,-22.7548 1010.11,-29.2074"/>
</g>
<!-- UnsafePointer -->
<g id="node27" class="node">
<g id="a_node27"><a xlink:href="/type/UnsafePointer/" target="_top">
<polygon fill="#999999" stroke="#999999" points="1210.03,-22 1123.97,-22 1123.97,-0 1210.03,-0 1210.03,-22"/>
<text text-anchor="middle" x="1167" y="-7.4" font-family="Helvetica,sans-Serif" font-size="12.00" fill="white">UnsafePointer</text>
</a>
</g>
</g>
<!-- RandomAccessIndexType&#45;&gt;UnsafePointer -->
<g id="edge26" class="edge">
<path fill="none" stroke="#cccccc" d="M666.651,-173.981C697.296,-164.802 743.767,-150.744 784,-138 909.934,-98.1084 1058.33,-48.5584 1127.64,-25.2686"/>
<polygon fill="#cccccc" stroke="#cccccc" points="1128.91,-28.532 1137.28,-22.0272 1126.68,-21.8971 1128.91,-28.532"/>
</g>
<!-- SignedIntegerType&#45;&gt;Int -->
<g id="edge30" class="edge">
<path fill="none" stroke="#cccccc" d="M157.574,-57.9883C131.366,-48.7577 92.3151,-35.0041 63.7478,-24.9426"/>
<polygon fill="#cccccc" stroke="#cccccc" points="64.7134,-21.572 54.1186,-21.5512 62.388,-28.1745 64.7134,-21.572"/>
</g>
<!-- SignedIntegerType&#45;&gt;Int16 -->
<g id="edge31" class="edge">
<path fill="none" stroke="#cccccc" d="M170.446,-57.9883C157.413,-49.5993 138.576,-37.4743 123.516,-27.7804"/>
<polygon fill="#cccccc" stroke="#cccccc" points="125.016,-24.5833 114.713,-22.1138 121.227,-30.4693 125.016,-24.5833"/>
</g>
<!-- SignedIntegerType&#45;&gt;Int32 -->
<g id="edge32" class="edge">
<path fill="none" stroke="#cccccc" d="M183.318,-57.9883C181.401,-50.8311 178.756,-40.9547 176.408,-32.1885"/>
<polygon fill="#cccccc" stroke="#cccccc" points="179.728,-31.0578 173.76,-22.3039 172.967,-32.869 179.728,-31.0578"/>
</g>
<!-- SignedIntegerType&#45;&gt;Int64 -->
<g id="edge33" class="edge">
<path fill="none" stroke="#cccccc" d="M196.19,-57.9883C204.276,-50.0446 215.771,-38.7512 225.346,-29.3439"/>
<polygon fill="#cccccc" stroke="#cccccc" points="227.832,-31.8088 232.512,-22.3039 222.926,-26.8154 227.832,-31.8088"/>
</g>
<!-- SignedIntegerType&#45;&gt;Int8 -->
<g id="edge34" class="edge">
<path fill="none" stroke="#cccccc" d="M209.063,-57.9883C229.481,-49.1244 259.508,-36.0897 282.384,-26.1587"/>
<polygon fill="#cccccc" stroke="#cccccc" points="283.923,-29.3065 291.702,-22.1138 281.135,-22.8854 283.923,-29.3065"/>
</g>
<!-- UnsignedIntegerType&#45;&gt;UInt -->
<g id="edge35" class="edge">
<path fill="none" stroke="#cccccc" d="M540.855,-57.9883C539.321,-50.8311 537.205,-40.9547 535.326,-32.1885"/>
<polygon fill="#cccccc" stroke="#cccccc" points="538.726,-31.3485 533.208,-22.3039 531.881,-32.8153 538.726,-31.3485"/>
</g>
<!-- UnsignedIntegerType&#45;&gt;UInt16 -->
<g id="edge36" class="edge">
<path fill="none" stroke="#cccccc" d="M553.727,-57.9883C562.238,-50.0446 574.338,-38.7512 584.417,-29.3439"/>
<polygon fill="#cccccc" stroke="#cccccc" points="587.038,-31.6858 591.96,-22.3039 582.261,-26.5684 587.038,-31.6858"/>
</g>
<!-- UnsignedIntegerType&#45;&gt;UInt32 -->
<g id="edge37" class="edge">
<path fill="none" stroke="#cccccc" d="M566.599,-57.9883C587.586,-49.0849 618.492,-35.9733 641.939,-26.0259"/>
<polygon fill="#cccccc" stroke="#cccccc" points="643.321,-29.2414 651.16,-22.1138 640.588,-22.7973 643.321,-29.2414"/>
</g>
<!-- UnsignedIntegerType&#45;&gt;UInt64 -->
<g id="edge38" class="edge">
<path fill="none" stroke="#cccccc" d="M515.11,-57.9883C489.553,-48.814 451.55,-35.1716 423.568,-25.1271"/>
<polygon fill="#cccccc" stroke="#cccccc" points="424.72,-21.822 414.126,-21.7375 422.355,-28.4104 424.72,-21.822"/>
</g>
<!-- UnsignedIntegerType&#45;&gt;UInt8 -->
<g id="edge39" class="edge">
<path fill="none" stroke="#cccccc" d="M527.982,-57.9883C515.399,-49.5993 497.211,-37.4743 482.671,-27.7804"/>
<polygon fill="#cccccc" stroke="#cccccc" points="484.433,-24.7487 474.171,-22.1138 480.55,-30.573 484.433,-24.7487"/>
</g>
<!-- _BidirectionalIndexType -->
<g id="node29" class="node">
<g id="a_node29"><a xlink:href="/protocol/_BidirectionalIndexType/" target="_top">
<path fill="#999999" stroke="#999999" d="M1471.23,-312C1471.23,-312 1348.77,-312 1348.77,-312 1345.1,-312 1341.44,-308.333 1341.44,-304.667 1341.44,-304.667 1341.44,-297.333 1341.44,-297.333 1341.44,-293.667 1345.1,-290 1348.77,-290 1348.77,-290 1471.23,-290 1471.23,-290 1474.9,-290 1478.56,-293.667 1478.56,-297.333 1478.56,-297.333 1478.56,-304.667 1478.56,-304.667 1478.56,-308.333 1474.9,-312 1471.23,-312"/>
<text text-anchor="middle" x="1410" y="-297.4" font-family="Helvetica,sans-Serif" font-size="12.00" fill="white">_BidirectionalIndexType</text>
</a>
</g>
</g>
<!-- _BidirectionalIndexType&#45;&gt;BidirectionalIndexType -->
<g id="edge40" class="edge">
<path fill="none" stroke="#cccccc" d="M1410,-289.988C1410,-282.91 1410,-273.171 1410,-264.478"/>
<polygon fill="#cccccc" stroke="#cccccc" points="1413.5,-264.304 1410,-254.304 1406.5,-264.304 1413.5,-264.304"/>
</g>
<!-- _RandomAccessIndexType -->
<g id="node32" class="node">
<g id="a_node32"><a xlink:href="/protocol/_RandomAccessIndexType/" target="_top">
<path fill="#999999" stroke="#999999" d="M1011.73,-254C1011.73,-254 870.269,-254 870.269,-254 866.602,-254 862.936,-250.333 862.936,-246.667 862.936,-246.667 862.936,-239.333 862.936,-239.333 862.936,-235.667 866.602,-232 870.269,-232 870.269,-232 1011.73,-232 1011.73,-232 1015.4,-232 1019.06,-235.667 1019.06,-239.333 1019.06,-239.333 1019.06,-246.667 1019.06,-246.667 1019.06,-250.333 1015.4,-254 1011.73,-254"/>
<text text-anchor="middle" x="941" y="-239.4" font-family="Helvetica,sans-Serif" font-size="12.00" fill="white">_RandomAccessIndexType</text>
</a>
</g>
</g>
<!-- _BidirectionalIndexType&#45;&gt;_RandomAccessIndexType -->
<g id="edge41" class="edge">
<path fill="none" stroke="#cccccc" d="M1341.55,-291.827C1258.97,-281.966 1119.95,-265.367 1029.35,-254.549"/>
<polygon fill="#cccccc" stroke="#cccccc" points="1029.71,-251.068 1019.37,-253.357 1028.88,-258.018 1029.71,-251.068"/>
</g>
<!-- _ForwardIndexType -->
<g id="node30" class="node">
<g id="a_node30"><a xlink:href="/protocol/_ForwardIndexType/" target="_top">
<path fill="#ee543d" stroke="#ee543d" d="M1655.71,-370C1655.71,-370 1554.29,-370 1554.29,-370 1550.62,-370 1546.95,-366.333 1546.95,-362.667 1546.95,-362.667 1546.95,-355.333 1546.95,-355.333 1546.95,-351.667 1550.62,-348 1554.29,-348 1554.29,-348 1655.71,-348 1655.71,-348 1659.38,-348 1663.05,-351.667 1663.05,-355.333 1663.05,-355.333 1663.05,-362.667 1663.05,-362.667 1663.05,-366.333 1659.38,-370 1655.71,-370"/>
<text text-anchor="middle" x="1605" y="-355.4" font-family="Helvetica,sans-Serif" font-size="12.00" fill="white">_ForwardIndexType</text>
</a>
</g>
</g>
<!-- _ForwardIndexType&#45;&gt;ForwardIndexType -->
<g id="edge1" class="edge">
<path fill="none" stroke="#cccccc" d="M1639.86,-347.988C1672.07,-338.74 1720.08,-324.95 1755.14,-314.884"/>
<polygon fill="#cccccc" stroke="#cccccc" points="1756.47,-318.144 1765.11,-312.019 1754.53,-311.416 1756.47,-318.144"/>
</g>
<!-- _ForwardIndexType&#45;&gt;_BidirectionalIndexType -->
<g id="edge2" class="edge">
<path fill="none" stroke="#cccccc" d="M1570.14,-347.988C1537.93,-338.74 1489.92,-324.95 1454.86,-314.884"/>
<polygon fill="#cccccc" stroke="#cccccc" points="1455.47,-311.416 1444.89,-312.019 1453.53,-318.144 1455.47,-311.416"/>
</g>
<!-- _Incrementable&#45;&gt;_ForwardIndexType -->
<g id="edge43" class="edge">
<path fill="none" stroke="#cccccc" d="M1605,-405.988C1605,-398.91 1605,-389.171 1605,-380.478"/>
<polygon fill="#cccccc" stroke="#cccccc" points="1608.5,-380.304 1605,-370.304 1601.5,-380.304 1608.5,-380.304"/>
</g>
<!-- _RandomAccessIndexType&#45;&gt;RandomAccessIndexType -->
<g id="edge42" class="edge">
<path fill="none" stroke="#cccccc" d="M885.936,-231.988C833.322,-222.422 753.989,-207.998 698.231,-197.86"/>
<polygon fill="#cccccc" stroke="#cccccc" points="698.571,-194.365 688.106,-196.019 697.318,-201.252 698.571,-194.365"/>
</g>
</g>
</svg>
