<?xml version="1.0" encoding="UTF-8" standalone="no"?>
<!DOCTYPE svg PUBLIC "-//W3C//DTD SVG 1.1//EN"
 "http://www.w3.org/Graphics/SVG/1.1/DTD/svg11.dtd">
<!-- Generated by graphviz version 2.36.0 (20140111.2315)
 -->
<!-- Title: IntegerType &#45; Type Hierarchy &#45; SwiftDoc.org Pages: 1 -->
<svg width="879pt" height="601pt"
 viewBox="0.00 0.00 879.40 601.20" xmlns="http://www.w3.org/2000/svg" xmlns:xlink="http://www.w3.org/1999/xlink">
<g id="graph0" class="graph" transform="scale(1 1) rotate(0) translate(7.2 543.6)">
<title>IntegerType &#45; Type Hierarchy &#45; SwiftDoc.org</title>
<polygon fill="white" stroke="none" points="-7.2,57.6 -7.2,-543.6 872.2,-543.6 872.2,57.6 -7.2,57.6"/>
<!-- BidirectionalIndexType -->
<g id="node1" class="node"><title>BidirectionalIndexType</title>
<g id="a_node1"><a xlink:href="/protocol/BidirectionalIndexType/" xlink:title="BidirectionalIndexType">
<path fill="#999999" stroke="#999999" d="M375.725,-254C375.725,-254 260.275,-254 260.275,-254 256.608,-254 252.941,-250.333 252.941,-246.667 252.941,-246.667 252.941,-239.333 252.941,-239.333 252.941,-235.667 256.608,-232 260.275,-232 260.275,-232 375.725,-232 375.725,-232 379.392,-232 383.059,-235.667 383.059,-239.333 383.059,-239.333 383.059,-246.667 383.059,-246.667 383.059,-250.333 379.392,-254 375.725,-254"/>
<text text-anchor="middle" x="318" y="-239.4" font-family="Helvetica,sans-Serif" font-size="12.00" fill="white">BidirectionalIndexType</text>
</a>
</g>
</g>
<!-- RandomAccessIndexType -->
<g id="node17" class="node"><title>RandomAccessIndexType</title>
<g id="a_node17"><a xlink:href="/protocol/RandomAccessIndexType/" xlink:title="RandomAccessIndexType">
<path fill="#999999" stroke="#999999" d="M385.225,-196C385.225,-196 250.775,-196 250.775,-196 247.108,-196 243.441,-192.333 243.441,-188.667 243.441,-188.667 243.441,-181.333 243.441,-181.333 243.441,-177.667 247.108,-174 250.775,-174 250.775,-174 385.225,-174 385.225,-174 388.892,-174 392.559,-177.667 392.559,-181.333 392.559,-181.333 392.559,-188.667 392.559,-188.667 392.559,-192.333 388.892,-196 385.225,-196"/>
<text text-anchor="middle" x="318" y="-181.4" font-family="Helvetica,sans-Serif" font-size="12.00" fill="white">RandomAccessIndexType</text>
</a>
</g>
</g>
<!-- BidirectionalIndexType&#45;&gt;RandomAccessIndexType -->
<g id="edge28" class="edge"><title>BidirectionalIndexType&#45;&gt;RandomAccessIndexType</title>
<path fill="none" stroke="#cccccc" d="M318,-231.988C318,-224.91 318,-215.171 318,-206.478"/>
<polygon fill="#cccccc" stroke="#cccccc" points="321.5,-206.304 318,-196.304 314.5,-206.304 321.5,-206.304"/>
</g>
<!-- Bit -->
<g id="node2" class="node"><title>Bit</title>
<g id="a_node2"><a xlink:href="/type/Bit/" xlink:title="Bit">
<polygon fill="#999999" stroke="#999999" points="414,-22 360,-22 360,-0 414,-0 414,-22"/>
<text text-anchor="middle" x="387" y="-7.4" font-family="Helvetica,sans-Serif" font-size="12.00" fill="white">Bit</text>
</a>
</g>
</g>
<!-- BitwiseOperationsType -->
<g id="node3" class="node"><title>BitwiseOperationsType</title>
<g id="a_node3"><a xlink:href="/protocol/BitwiseOperationsType/" xlink:title="BitwiseOperationsType">
<path fill="#999999" stroke="#999999" d="M458.715,-370C458.715,-370 341.285,-370 341.285,-370 337.618,-370 333.952,-366.333 333.952,-362.667 333.952,-362.667 333.952,-355.333 333.952,-355.333 333.952,-351.667 337.618,-348 341.285,-348 341.285,-348 458.715,-348 458.715,-348 462.382,-348 466.048,-351.667 466.048,-355.333 466.048,-355.333 466.048,-362.667 466.048,-362.667 466.048,-366.333 462.382,-370 458.715,-370"/>
<text text-anchor="middle" x="400" y="-355.4" font-family="Helvetica,sans-Serif" font-size="12.00" fill="white">BitwiseOperationsType</text>
</a>
</g>
</g>
<!-- _IntegerType -->
<g id="node31" class="node"><title>_IntegerType</title>
<g id="a_node31"><a xlink:href="/protocol/_IntegerType/" xlink:title="_IntegerType">
<path fill="#999999" stroke="#999999" d="M526.708,-312C526.708,-312 461.292,-312 461.292,-312 457.626,-312 453.959,-308.333 453.959,-304.667 453.959,-304.667 453.959,-297.333 453.959,-297.333 453.959,-293.667 457.626,-290 461.292,-290 461.292,-290 526.708,-290 526.708,-290 530.374,-290 534.041,-293.667 534.041,-297.333 534.041,-297.333 534.041,-304.667 534.041,-304.667 534.041,-308.333 530.374,-312 526.708,-312"/>
<text text-anchor="middle" x="494" y="-297.4" font-family="Helvetica,sans-Serif" font-size="12.00" fill="white">_IntegerType</text>
</a>
</g>
</g>
<!-- BitwiseOperationsType&#45;&gt;_IntegerType -->
<g id="edge20" class="edge"><title>BitwiseOperationsType&#45;&gt;_IntegerType</title>
<path fill="none" stroke="#cccccc" d="M416.805,-347.988C431.153,-339.441 452.01,-327.015 468.428,-317.234"/>
<polygon fill="#cccccc" stroke="#cccccc" points="470.224,-320.239 477.023,-312.114 466.641,-314.225 470.224,-320.239"/>
</g>
<!-- Comparable -->
<g id="node4" class="node"><title>Comparable</title>
<g id="a_node4"><a xlink:href="/protocol/Comparable/" xlink:title="Comparable">
<path fill="#999999" stroke="#999999" d="M422.191,-428C422.191,-428 361.809,-428 361.809,-428 358.142,-428 354.475,-424.333 354.475,-420.667 354.475,-420.667 354.475,-413.333 354.475,-413.333 354.475,-409.667 358.142,-406 361.809,-406 361.809,-406 422.191,-406 422.191,-406 425.858,-406 429.525,-409.667 429.525,-413.333 429.525,-413.333 429.525,-420.667 429.525,-420.667 429.525,-424.333 425.858,-428 422.191,-428"/>
<text text-anchor="middle" x="392" y="-413.4" font-family="Helvetica,sans-Serif" font-size="12.00" fill="white">Comparable</text>
</a>
</g>
</g>
<!-- IntegerArithmeticType -->
<g id="node13" class="node"><title>IntegerArithmeticType</title>
<g id="a_node13"><a xlink:href="/protocol/IntegerArithmeticType/" xlink:title="IntegerArithmeticType">
<path fill="#999999" stroke="#999999" d="M799.711,-370C799.711,-370 688.289,-370 688.289,-370 684.623,-370 680.956,-366.333 680.956,-362.667 680.956,-362.667 680.956,-355.333 680.956,-355.333 680.956,-351.667 684.623,-348 688.289,-348 688.289,-348 799.711,-348 799.711,-348 803.377,-348 807.044,-351.667 807.044,-355.333 807.044,-355.333 807.044,-362.667 807.044,-362.667 807.044,-366.333 803.377,-370 799.711,-370"/>
<text text-anchor="middle" x="744" y="-355.4" font-family="Helvetica,sans-Serif" font-size="12.00" fill="white">IntegerArithmeticType</text>
</a>
</g>
</g>
<!-- Comparable&#45;&gt;IntegerArithmeticType -->
<g id="edge24" class="edge"><title>Comparable&#45;&gt;IntegerArithmeticType</title>
<path fill="none" stroke="#cccccc" d="M429.415,-407.828C432.652,-407.185 435.881,-406.566 439,-406 482.176,-398.158 595.076,-381.504 670.729,-370.534"/>
<polygon fill="#cccccc" stroke="#cccccc" points="671.289,-373.99 680.684,-369.092 670.286,-367.062 671.289,-373.99"/>
</g>
<!-- Strideable -->
<g id="node19" class="node"><title>Strideable</title>
<g id="a_node19"><a xlink:href="/protocol/Strideable/" xlink:title="Strideable">
<path fill="#999999" stroke="#999999" d="M98.693,-370C98.693,-370 49.307,-370 49.307,-370 45.6403,-370 41.9736,-366.333 41.9736,-362.667 41.9736,-362.667 41.9736,-355.333 41.9736,-355.333 41.9736,-351.667 45.6403,-348 49.307,-348 49.307,-348 98.693,-348 98.693,-348 102.36,-348 106.026,-351.667 106.026,-355.333 106.026,-355.333 106.026,-362.667 106.026,-362.667 106.026,-366.333 102.36,-370 98.693,-370"/>
<text text-anchor="middle" x="74" y="-355.4" font-family="Helvetica,sans-Serif" font-size="12.00" fill="white">Strideable</text>
</a>
</g>
</g>
<!-- Comparable&#45;&gt;Strideable -->
<g id="edge37" class="edge"><title>Comparable&#45;&gt;Strideable</title>
<path fill="none" stroke="#cccccc" d="M354.65,-410.703C303.163,-403.203 207.295,-388.528 116.123,-370.116"/>
<polygon fill="#cccccc" stroke="#cccccc" points="116.675,-366.657 106.178,-368.089 115.277,-373.516 116.675,-366.657"/>
</g>
<!-- Equatable -->
<g id="node5" class="node"><title>Equatable</title>
<g id="a_node5"><a xlink:href="/protocol/Equatable/" xlink:title="Equatable">
<path fill="#999999" stroke="#999999" d="M518.702,-486C518.702,-486 469.298,-486 469.298,-486 465.632,-486 461.965,-482.333 461.965,-478.667 461.965,-478.667 461.965,-471.333 461.965,-471.333 461.965,-467.667 465.632,-464 469.298,-464 469.298,-464 518.702,-464 518.702,-464 522.368,-464 526.035,-467.667 526.035,-471.333 526.035,-471.333 526.035,-478.667 526.035,-478.667 526.035,-482.333 522.368,-486 518.702,-486"/>
<text text-anchor="middle" x="494" y="-471.4" font-family="Helvetica,sans-Serif" font-size="12.00" fill="white">Equatable</text>
</a>
</g>
</g>
<!-- Equatable&#45;&gt;Comparable -->
<g id="edge26" class="edge"><title>Equatable&#45;&gt;Comparable</title>
<path fill="none" stroke="#cccccc" d="M475.764,-463.988C460.052,-455.362 437.144,-442.785 419.255,-432.963"/>
<polygon fill="#cccccc" stroke="#cccccc" points="420.872,-429.858 410.422,-428.114 417.503,-435.994 420.872,-429.858"/>
</g>
<!-- Hashable -->
<g id="node7" class="node"><title>Hashable</title>
<g id="a_node7"><a xlink:href="/protocol/Hashable/" xlink:title="Hashable">
<path fill="#999999" stroke="#999999" d="M857.694,-428C857.694,-428 812.306,-428 812.306,-428 808.639,-428 804.973,-424.333 804.973,-420.667 804.973,-420.667 804.973,-413.333 804.973,-413.333 804.973,-409.667 808.639,-406 812.306,-406 812.306,-406 857.694,-406 857.694,-406 861.361,-406 865.027,-409.667 865.027,-413.333 865.027,-413.333 865.027,-420.667 865.027,-420.667 865.027,-424.333 861.361,-428 857.694,-428"/>
<text text-anchor="middle" x="835" y="-413.4" font-family="Helvetica,sans-Serif" font-size="12.00" fill="white">Hashable</text>
</a>
</g>
</g>
<!-- Equatable&#45;&gt;Hashable -->
<g id="edge22" class="edge"><title>Equatable&#45;&gt;Hashable</title>
<path fill="none" stroke="#cccccc" d="M526.247,-470.077C581.526,-463.127 697.823,-447.528 795,-428 795.101,-427.98 795.202,-427.959 795.303,-427.939"/>
<polygon fill="#cccccc" stroke="#cccccc" points="795.904,-431.39 804.927,-425.838 794.411,-424.551 795.904,-431.39"/>
</g>
<!-- _Incrementable -->
<g id="node29" class="node"><title>_Incrementable</title>
<g id="a_node29"><a xlink:href="/protocol/_Incrementable/" xlink:title="_Incrementable">
<path fill="#999999" stroke="#999999" d="M532.705,-428C532.705,-428 455.295,-428 455.295,-428 451.628,-428 447.961,-424.333 447.961,-420.667 447.961,-420.667 447.961,-413.333 447.961,-413.333 447.961,-409.667 451.628,-406 455.295,-406 455.295,-406 532.705,-406 532.705,-406 536.372,-406 540.039,-409.667 540.039,-413.333 540.039,-413.333 540.039,-420.667 540.039,-420.667 540.039,-424.333 536.372,-428 532.705,-428"/>
<text text-anchor="middle" x="494" y="-413.4" font-family="Helvetica,sans-Serif" font-size="12.00" fill="white">_Incrementable</text>
</a>
</g>
</g>
<!-- Equatable&#45;&gt;_Incrementable -->
<g id="edge27" class="edge"><title>Equatable&#45;&gt;_Incrementable</title>
<path fill="none" stroke="#cccccc" d="M494,-463.988C494,-456.91 494,-447.171 494,-438.478"/>
<polygon fill="#cccccc" stroke="#cccccc" points="497.5,-438.304 494,-428.304 490.5,-438.304 497.5,-438.304"/>
</g>
<!-- ForwardIndexType -->
<g id="node6" class="node"><title>ForwardIndexType</title>
<g id="a_node6"><a xlink:href="/protocol/ForwardIndexType/" xlink:title="ForwardIndexType">
<path fill="#999999" stroke="#999999" d="M365.206,-312C365.206,-312 270.794,-312 270.794,-312 267.127,-312 263.461,-308.333 263.461,-304.667 263.461,-304.667 263.461,-297.333 263.461,-297.333 263.461,-293.667 267.127,-290 270.794,-290 270.794,-290 365.206,-290 365.206,-290 368.873,-290 372.539,-293.667 372.539,-297.333 372.539,-297.333 372.539,-304.667 372.539,-304.667 372.539,-308.333 368.873,-312 365.206,-312"/>
<text text-anchor="middle" x="318" y="-297.4" font-family="Helvetica,sans-Serif" font-size="12.00" fill="white">ForwardIndexType</text>
</a>
</g>
</g>
<!-- ForwardIndexType&#45;&gt;BidirectionalIndexType -->
<g id="edge30" class="edge"><title>ForwardIndexType&#45;&gt;BidirectionalIndexType</title>
<path fill="none" stroke="#cccccc" d="M318,-289.988C318,-282.91 318,-273.171 318,-264.478"/>
<polygon fill="#cccccc" stroke="#cccccc" points="321.5,-264.304 318,-254.304 314.5,-264.304 321.5,-264.304"/>
</g>
<!-- Hashable&#45;&gt;_IntegerType -->
<g id="edge18" class="edge"><title>Hashable&#45;&gt;_IntegerType</title>
<path fill="none" stroke="#cccccc" d="M835.359,-405.927C835.299,-390.875 832.77,-362.712 816,-348 776.592,-313.429 624.977,-304.808 544.64,-302.68"/>
<polygon fill="#cccccc" stroke="#cccccc" points="544.348,-299.172 534.267,-302.431 544.18,-306.17 544.348,-299.172"/>
</g>
<!-- Int -->
<g id="node8" class="node"><title>Int</title>
<g id="a_node8"><a xlink:href="/type/Int/" xlink:title="Int">
<polygon fill="#999999" stroke="#999999" points="270,-22 216,-22 216,-0 270,-0 270,-22"/>
<text text-anchor="middle" x="243" y="-7.4" font-family="Helvetica,sans-Serif" font-size="12.00" fill="white">Int</text>
</a>
</g>
</g>
<!-- Int&#45;&gt;Bit -->
<g id="edge8" class="edge"><title>Int&#45;&gt;Bit</title>
<path fill="none" stroke="#cccccc" d="M255.779,-22.0854C264.283,-28.7029 276.052,-36.4837 288,-40 311.024,-46.7761 318.976,-46.7761 342,-40 350.401,-37.5276 358.713,-32.9469 365.865,-28.1447"/>
<polygon fill="#cccccc" stroke="#cccccc" points="368.18,-30.7891 374.221,-22.0854 364.071,-25.122 368.18,-30.7891"/>
</g>
<!-- Int16 -->
<g id="node9" class="node"><title>Int16</title>
<g id="a_node9"><a xlink:href="/type/Int16/" xlink:title="Int16">
<polygon fill="#999999" stroke="#999999" points="342,-22 288,-22 288,-0 342,-0 342,-22"/>
<text text-anchor="middle" x="315" y="-7.4" font-family="Helvetica,sans-Serif" font-size="12.00" fill="white">Int16</text>
</a>
</g>
</g>
<!-- Int32 -->
<g id="node10" class="node"><title>Int32</title>
<g id="a_node10"><a xlink:href="/type/Int32/" xlink:title="Int32">
<polygon fill="#999999" stroke="#999999" points="54,-22 0,-22 0,-0 54,-0 54,-22"/>
<text text-anchor="middle" x="27" y="-7.4" font-family="Helvetica,sans-Serif" font-size="12.00" fill="white">Int32</text>
</a>
</g>
</g>
<!-- Int64 -->
<g id="node11" class="node"><title>Int64</title>
<g id="a_node11"><a xlink:href="/type/Int64/" xlink:title="Int64">
<polygon fill="#999999" stroke="#999999" points="126,-22 72,-22 72,-0 126,-0 126,-22"/>
<text text-anchor="middle" x="99" y="-7.4" font-family="Helvetica,sans-Serif" font-size="12.00" fill="white">Int64</text>
</a>
</g>
</g>
<!-- Int8 -->
<g id="node12" class="node"><title>Int8</title>
<g id="a_node12"><a xlink:href="/type/Int8/" xlink:title="Int8">
<polygon fill="#999999" stroke="#999999" points="198,-22 144,-22 144,-0 198,-0 198,-22"/>
<text text-anchor="middle" x="171" y="-7.4" font-family="Helvetica,sans-Serif" font-size="12.00" fill="white">Int8</text>
</a>
</g>
</g>
<!-- IntegerArithmeticType&#45;&gt;_IntegerType -->
<g id="edge19" class="edge"><title>IntegerArithmeticType&#45;&gt;_IntegerType</title>
<path fill="none" stroke="#cccccc" d="M699.305,-347.988C655.694,-338.219 589.467,-323.385 544.097,-313.222"/>
<polygon fill="#cccccc" stroke="#cccccc" points="544.703,-309.771 534.18,-311 543.173,-316.602 544.703,-309.771"/>
</g>
<!-- IntegerLiteralConvertible -->
<g id="node14" class="node"><title>IntegerLiteralConvertible</title>
<g id="a_node14"><a xlink:href="/protocol/IntegerLiteralConvertible/" xlink:title="IntegerLiteralConvertible">
<path fill="#999999" stroke="#999999" d="M654.722,-370C654.722,-370 529.278,-370 529.278,-370 525.611,-370 521.944,-366.333 521.944,-362.667 521.944,-362.667 521.944,-355.333 521.944,-355.333 521.944,-351.667 525.611,-348 529.278,-348 529.278,-348 654.722,-348 654.722,-348 658.389,-348 662.056,-351.667 662.056,-355.333 662.056,-355.333 662.056,-362.667 662.056,-362.667 662.056,-366.333 658.389,-370 654.722,-370"/>
<text text-anchor="middle" x="592" y="-355.4" font-family="Helvetica,sans-Serif" font-size="12.00" fill="white">IntegerLiteralConvertible</text>
</a>
</g>
</g>
<!-- IntegerLiteralConvertible&#45;&gt;_IntegerType -->
<g id="edge16" class="edge"><title>IntegerLiteralConvertible&#45;&gt;_IntegerType</title>
<path fill="none" stroke="#cccccc" d="M574.48,-347.988C559.522,-339.441 537.777,-327.015 520.66,-317.234"/>
<polygon fill="#cccccc" stroke="#cccccc" points="522.118,-314.036 511.699,-312.114 518.645,-320.114 522.118,-314.036"/>
</g>
<!-- IntegerType -->
<g id="node15" class="node"><title>IntegerType</title>
<g id="a_node15"><a xlink:href="/protocol/IntegerType/" xlink:title="IntegerType">
<path fill="#ee543d" stroke="#ee543d" d="M416.202,-138C416.202,-138 357.798,-138 357.798,-138 354.132,-138 350.465,-134.333 350.465,-130.667 350.465,-130.667 350.465,-123.333 350.465,-123.333 350.465,-119.667 354.132,-116 357.798,-116 357.798,-116 416.202,-116 416.202,-116 419.868,-116 423.535,-119.667 423.535,-123.333 423.535,-123.333 423.535,-130.667 423.535,-130.667 423.535,-134.333 419.868,-138 416.202,-138"/>
<text text-anchor="middle" x="387" y="-123.4" font-family="Helvetica,sans-Serif" font-size="12.00" fill="white">IntegerType</text>
</a>
</g>
</g>
<!-- SignedIntegerType -->
<g id="node18" class="node"><title>SignedIntegerType</title>
<g id="a_node18"><a xlink:href="/protocol/SignedIntegerType/" xlink:title="SignedIntegerType">
<path fill="#999999" stroke="#999999" d="M254.727,-80C254.727,-80 159.273,-80 159.273,-80 155.606,-80 151.94,-76.3333 151.94,-72.6667 151.94,-72.6667 151.94,-65.3333 151.94,-65.3333 151.94,-61.6667 155.606,-58 159.273,-58 159.273,-58 254.727,-58 254.727,-58 258.394,-58 262.06,-61.6667 262.06,-65.3333 262.06,-65.3333 262.06,-72.6667 262.06,-72.6667 262.06,-76.3333 258.394,-80 254.727,-80"/>
<text text-anchor="middle" x="207" y="-65.4" font-family="Helvetica,sans-Serif" font-size="12.00" fill="white">SignedIntegerType</text>
</a>
</g>
</g>
<!-- IntegerType&#45;&gt;SignedIntegerType -->
<g id="edge1" class="edge"><title>IntegerType&#45;&gt;SignedIntegerType</title>
<path fill="none" stroke="#cccccc" d="M354.82,-115.988C325.219,-106.779 281.149,-93.0685 248.829,-83.0134"/>
<polygon fill="#cccccc" stroke="#cccccc" points="249.793,-79.648 239.205,-80.0192 247.714,-86.332 249.793,-79.648"/>
</g>
<!-- UnsignedIntegerType -->
<g id="node25" class="node"><title>UnsignedIntegerType</title>
<g id="a_node25"><a xlink:href="/protocol/UnsignedIntegerType/" xlink:title="UnsignedIntegerType">
<path fill="#999999" stroke="#999999" d="M621.728,-80C621.728,-80 512.272,-80 512.272,-80 508.605,-80 504.938,-76.3333 504.938,-72.6667 504.938,-72.6667 504.938,-65.3333 504.938,-65.3333 504.938,-61.6667 508.605,-58 512.272,-58 512.272,-58 621.728,-58 621.728,-58 625.395,-58 629.062,-61.6667 629.062,-65.3333 629.062,-65.3333 629.062,-72.6667 629.062,-72.6667 629.062,-76.3333 625.395,-80 621.728,-80"/>
<text text-anchor="middle" x="567" y="-65.4" font-family="Helvetica,sans-Serif" font-size="12.00" fill="white">UnsignedIntegerType</text>
</a>
</g>
</g>
<!-- IntegerType&#45;&gt;UnsignedIntegerType -->
<g id="edge2" class="edge"><title>IntegerType&#45;&gt;UnsignedIntegerType</title>
<path fill="none" stroke="#cccccc" d="M419.18,-115.988C448.781,-106.779 492.851,-93.0685 525.171,-83.0134"/>
<polygon fill="#cccccc" stroke="#cccccc" points="526.286,-86.332 534.795,-80.0192 524.207,-79.648 526.286,-86.332"/>
</g>
<!-- Printable -->
<g id="node16" class="node"><title>Printable</title>
<g id="a_node16"><a xlink:href="/protocol/Printable/" xlink:title="Printable">
<path fill="#999999" stroke="#999999" d="M308.187,-370C308.187,-370 265.813,-370 265.813,-370 262.147,-370 258.48,-366.333 258.48,-362.667 258.48,-362.667 258.48,-355.333 258.48,-355.333 258.48,-351.667 262.147,-348 265.813,-348 265.813,-348 308.187,-348 308.187,-348 311.853,-348 315.52,-351.667 315.52,-355.333 315.52,-355.333 315.52,-362.667 315.52,-362.667 315.52,-366.333 311.853,-370 308.187,-370"/>
<text text-anchor="middle" x="287" y="-355.4" font-family="Helvetica,sans-Serif" font-size="12.00" fill="white">Printable</text>
</a>
</g>
</g>
<!-- Printable&#45;&gt;_IntegerType -->
<g id="edge17" class="edge"><title>Printable&#45;&gt;_IntegerType</title>
<path fill="none" stroke="#cccccc" d="M315.348,-350.331C349.31,-341.143 406.692,-325.62 447.248,-314.648"/>
<polygon fill="#cccccc" stroke="#cccccc" points="448.175,-318.023 456.914,-312.033 446.347,-311.266 448.175,-318.023"/>
</g>
<!-- RandomAccessIndexType&#45;&gt;IntegerType -->
<g id="edge15" class="edge"><title>RandomAccessIndexType&#45;&gt;IntegerType</title>
<path fill="none" stroke="#cccccc" d="M330.336,-173.988C340.317,-165.887 354.591,-154.303 366.316,-144.787"/>
<polygon fill="#cccccc" stroke="#cccccc" points="368.745,-147.323 374.304,-138.304 364.334,-141.888 368.745,-147.323"/>
</g>
<!-- SignedIntegerType&#45;&gt;Int -->
<g id="edge3" class="edge"><title>SignedIntegerType&#45;&gt;Int</title>
<path fill="none" stroke="#cccccc" d="M213.436,-57.9883C218.29,-50.4379 225.089,-39.8611 230.944,-30.7543"/>
<polygon fill="#cccccc" stroke="#cccccc" points="233.913,-32.6083 236.376,-22.3039 228.024,-28.823 233.913,-32.6083"/>
</g>
<!-- SignedIntegerType&#45;&gt;Int16 -->
<g id="edge4" class="edge"><title>SignedIntegerType&#45;&gt;Int16</title>
<path fill="none" stroke="#cccccc" d="M226.308,-57.9883C243.021,-49.3223 267.423,-36.6696 286.403,-26.8283"/>
<polygon fill="#cccccc" stroke="#cccccc" points="288.228,-29.8242 295.495,-22.1138 285.006,-23.6099 288.228,-29.8242"/>
</g>
<!-- SignedIntegerType&#45;&gt;Int32 -->
<g id="edge5" class="edge"><title>SignedIntegerType&#45;&gt;Int32</title>
<path fill="none" stroke="#cccccc" d="M174.82,-57.9883C143.661,-48.2947 96.4696,-33.6128 63.8271,-23.4573"/>
<polygon fill="#cccccc" stroke="#cccccc" points="64.7859,-20.0902 54.1976,-20.4615 62.7064,-26.7742 64.7859,-20.0902"/>
</g>
<!-- SignedIntegerType&#45;&gt;Int64 -->
<g id="edge6" class="edge"><title>SignedIntegerType&#45;&gt;Int64</title>
<path fill="none" stroke="#cccccc" d="M187.692,-57.9883C170.979,-49.3223 146.577,-36.6696 127.597,-26.8283"/>
<polygon fill="#cccccc" stroke="#cccccc" points="128.994,-23.6099 118.505,-22.1138 125.772,-29.8242 128.994,-23.6099"/>
</g>
<!-- SignedIntegerType&#45;&gt;Int8 -->
<g id="edge7" class="edge"><title>SignedIntegerType&#45;&gt;Int8</title>
<path fill="none" stroke="#cccccc" d="M200.564,-57.9883C195.71,-50.4379 188.911,-39.8611 183.056,-30.7543"/>
<polygon fill="#cccccc" stroke="#cccccc" points="185.976,-28.823 177.624,-22.3039 180.087,-32.6083 185.976,-28.823"/>
</g>
<!-- _RandomAccessIndexType -->
<g id="node32" class="node"><title>_RandomAccessIndexType</title>
<g id="a_node32"><a xlink:href="/protocol/_RandomAccessIndexType/" xlink:title="_RandomAccessIndexType">
<path fill="#999999" stroke="#999999" d="M227.731,-254C227.731,-254 86.2689,-254 86.2689,-254 82.6022,-254 78.9355,-250.333 78.9355,-246.667 78.9355,-246.667 78.9355,-239.333 78.9355,-239.333 78.9355,-235.667 82.6022,-232 86.2689,-232 86.2689,-232 227.731,-232 227.731,-232 231.398,-232 235.064,-235.667 235.064,-239.333 235.064,-239.333 235.064,-246.667 235.064,-246.667 235.064,-250.333 231.398,-254 227.731,-254"/>
<text text-anchor="middle" x="157" y="-239.4" font-family="Helvetica,sans-Serif" font-size="12.00" fill="white">_RandomAccessIndexType</text>
</a>
</g>
</g>
<!-- Strideable&#45;&gt;_RandomAccessIndexType -->
<g id="edge36" class="edge"><title>Strideable&#45;&gt;_RandomAccessIndexType</title>
<path fill="none" stroke="#cccccc" d="M75.8934,-347.961C78.9166,-333.929 85.8768,-308.14 99,-290 107.559,-278.169 119.947,-267.778 131.078,-259.88"/>
<polygon fill="#cccccc" stroke="#cccccc" points="133.309,-262.596 139.638,-254.1 129.392,-256.795 133.309,-262.596"/>
</g>
<!-- UInt -->
<g id="node20" class="node"><title>UInt</title>
<g id="a_node20"><a xlink:href="/type/UInt/" xlink:title="UInt">
<polygon fill="#999999" stroke="#999999" points="630,-22 576,-22 576,-0 630,-0 630,-22"/>
<text text-anchor="middle" x="603" y="-7.4" font-family="Helvetica,sans-Serif" font-size="12.00" fill="white">UInt</text>
</a>
</g>
</g>
<!-- UInt16 -->
<g id="node21" class="node"><title>UInt16</title>
<g id="a_node21"><a xlink:href="/type/UInt16/" xlink:title="UInt16">
<polygon fill="#999999" stroke="#999999" points="702,-22 648,-22 648,-0 702,-0 702,-22"/>
<text text-anchor="middle" x="675" y="-7.4" font-family="Helvetica,sans-Serif" font-size="12.00" fill="white">UInt16</text>
</a>
</g>
</g>
<!-- UInt32 -->
<g id="node22" class="node"><title>UInt32</title>
<g id="a_node22"><a xlink:href="/type/UInt32/" xlink:title="UInt32">
<polygon fill="#999999" stroke="#999999" points="774,-22 720,-22 720,-0 774,-0 774,-22"/>
<text text-anchor="middle" x="747" y="-7.4" font-family="Helvetica,sans-Serif" font-size="12.00" fill="white">UInt32</text>
</a>
</g>
</g>
<!-- UInt64 -->
<g id="node23" class="node"><title>UInt64</title>
<g id="a_node23"><a xlink:href="/type/UInt64/" xlink:title="UInt64">
<polygon fill="#999999" stroke="#999999" points="486,-22 432,-22 432,-0 486,-0 486,-22"/>
<text text-anchor="middle" x="459" y="-7.4" font-family="Helvetica,sans-Serif" font-size="12.00" fill="white">UInt64</text>
</a>
</g>
</g>
<!-- UInt8 -->
<g id="node24" class="node"><title>UInt8</title>
<g id="a_node24"><a xlink:href="/type/UInt8/" xlink:title="UInt8">
<polygon fill="#999999" stroke="#999999" points="558,-22 504,-22 504,-0 558,-0 558,-22"/>
<text text-anchor="middle" x="531" y="-7.4" font-family="Helvetica,sans-Serif" font-size="12.00" fill="white">UInt8</text>
</a>
</g>
</g>
<!-- UnsignedIntegerType&#45;&gt;UInt -->
<g id="edge9" class="edge"><title>UnsignedIntegerType&#45;&gt;UInt</title>
<path fill="none" stroke="#cccccc" d="M573.436,-57.9883C578.29,-50.4379 585.089,-39.8611 590.944,-30.7543"/>
<polygon fill="#cccccc" stroke="#cccccc" points="593.913,-32.6083 596.376,-22.3039 588.024,-28.823 593.913,-32.6083"/>
</g>
<!-- UnsignedIntegerType&#45;&gt;UInt16 -->
<g id="edge10" class="edge"><title>UnsignedIntegerType&#45;&gt;UInt16</title>
<path fill="none" stroke="#cccccc" d="M586.308,-57.9883C603.021,-49.3223 627.423,-36.6696 646.403,-26.8283"/>
<polygon fill="#cccccc" stroke="#cccccc" points="648.228,-29.8242 655.495,-22.1138 645.006,-23.6099 648.228,-29.8242"/>
</g>
<!-- UnsignedIntegerType&#45;&gt;UInt32 -->
<g id="edge11" class="edge"><title>UnsignedIntegerType&#45;&gt;UInt32</title>
<path fill="none" stroke="#cccccc" d="M599.18,-57.9883C630.339,-48.2947 677.53,-33.6128 710.173,-23.4573"/>
<polygon fill="#cccccc" stroke="#cccccc" points="711.294,-26.7742 719.802,-20.4615 709.214,-20.0902 711.294,-26.7742"/>
</g>
<!-- UnsignedIntegerType&#45;&gt;UInt64 -->
<g id="edge12" class="edge"><title>UnsignedIntegerType&#45;&gt;UInt64</title>
<path fill="none" stroke="#cccccc" d="M547.692,-57.9883C530.979,-49.3223 506.577,-36.6696 487.597,-26.8283"/>
<polygon fill="#cccccc" stroke="#cccccc" points="488.994,-23.6099 478.505,-22.1138 485.772,-29.8242 488.994,-23.6099"/>
</g>
<!-- UnsignedIntegerType&#45;&gt;UInt8 -->
<g id="edge13" class="edge"><title>UnsignedIntegerType&#45;&gt;UInt8</title>
<path fill="none" stroke="#cccccc" d="M560.564,-57.9883C555.71,-50.4379 548.911,-39.8611 543.056,-30.7543"/>
<polygon fill="#cccccc" stroke="#cccccc" points="545.976,-28.823 537.624,-22.3039 540.087,-32.6083 545.976,-28.823"/>
</g>
<!-- _BidirectionalIndexType -->
<g id="node26" class="node"><title>_BidirectionalIndexType</title>
<g id="a_node26"><a xlink:href="/protocol/_BidirectionalIndexType/" xlink:title="_BidirectionalIndexType">
<path fill="#999999" stroke="#999999" d="M238.23,-312C238.23,-312 115.77,-312 115.77,-312 112.104,-312 108.437,-308.333 108.437,-304.667 108.437,-304.667 108.437,-297.333 108.437,-297.333 108.437,-293.667 112.104,-290 115.77,-290 115.77,-290 238.23,-290 238.23,-290 241.896,-290 245.563,-293.667 245.563,-297.333 245.563,-297.333 245.563,-304.667 245.563,-304.667 245.563,-308.333 241.896,-312 238.23,-312"/>
<text text-anchor="middle" x="177" y="-297.4" font-family="Helvetica,sans-Serif" font-size="12.00" fill="white">_BidirectionalIndexType</text>
</a>
</g>
</g>
<!-- _BidirectionalIndexType&#45;&gt;BidirectionalIndexType -->
<g id="edge31" class="edge"><title>_BidirectionalIndexType&#45;&gt;BidirectionalIndexType</title>
<path fill="none" stroke="#cccccc" d="M202.208,-289.988C224.725,-281.045 257.932,-267.857 283.018,-257.893"/>
<polygon fill="#cccccc" stroke="#cccccc" points="284.533,-261.058 292.535,-254.114 281.949,-254.552 284.533,-261.058"/>
</g>
<!-- _BidirectionalIndexType&#45;&gt;_RandomAccessIndexType -->
<g id="edge35" class="edge"><title>_BidirectionalIndexType&#45;&gt;_RandomAccessIndexType</title>
<path fill="none" stroke="#cccccc" d="M173.424,-289.988C170.84,-282.752 167.263,-272.737 164.107,-263.9"/>
<polygon fill="#cccccc" stroke="#cccccc" points="167.339,-262.544 160.68,-254.304 160.747,-264.899 167.339,-262.544"/>
</g>
<!-- _Comparable -->
<g id="node27" class="node"><title>_Comparable</title>
<g id="a_node27"><a xlink:href="/protocol/_Comparable/" xlink:title="_Comparable">
<path fill="#999999" stroke="#999999" d="M425.697,-486C425.697,-486 358.303,-486 358.303,-486 354.636,-486 350.969,-482.333 350.969,-478.667 350.969,-478.667 350.969,-471.333 350.969,-471.333 350.969,-467.667 354.636,-464 358.303,-464 358.303,-464 425.697,-464 425.697,-464 429.364,-464 433.031,-467.667 433.031,-471.333 433.031,-471.333 433.031,-478.667 433.031,-478.667 433.031,-482.333 429.364,-486 425.697,-486"/>
<text text-anchor="middle" x="392" y="-471.4" font-family="Helvetica,sans-Serif" font-size="12.00" fill="white">_Comparable</text>
</a>
</g>
</g>
<!-- _Comparable&#45;&gt;Comparable -->
<g id="edge25" class="edge"><title>_Comparable&#45;&gt;Comparable</title>
<path fill="none" stroke="#cccccc" d="M392,-463.988C392,-456.91 392,-447.171 392,-438.478"/>
<polygon fill="#cccccc" stroke="#cccccc" points="395.5,-438.304 392,-428.304 388.5,-438.304 395.5,-438.304"/>
</g>
<!-- _ForwardIndexType -->
<g id="node28" class="node"><title>_ForwardIndexType</title>
<g id="a_node28"><a xlink:href="/protocol/_ForwardIndexType/" xlink:title="_ForwardIndexType">
<path fill="#999999" stroke="#999999" d="M232.712,-370C232.712,-370 131.288,-370 131.288,-370 127.621,-370 123.955,-366.333 123.955,-362.667 123.955,-362.667 123.955,-355.333 123.955,-355.333 123.955,-351.667 127.621,-348 131.288,-348 131.288,-348 232.712,-348 232.712,-348 236.379,-348 240.045,-351.667 240.045,-355.333 240.045,-355.333 240.045,-362.667 240.045,-362.667 240.045,-366.333 236.379,-370 232.712,-370"/>
<text text-anchor="middle" x="182" y="-355.4" font-family="Helvetica,sans-Serif" font-size="12.00" fill="white">_ForwardIndexType</text>
</a>
</g>
</g>
<!-- _ForwardIndexType&#45;&gt;ForwardIndexType -->
<g id="edge32" class="edge"><title>_ForwardIndexType&#45;&gt;ForwardIndexType</title>
<path fill="none" stroke="#cccccc" d="M206.314,-347.988C227.937,-339.085 259.779,-325.973 283.937,-316.026"/>
<polygon fill="#cccccc" stroke="#cccccc" points="285.524,-319.158 293.438,-312.114 282.858,-312.685 285.524,-319.158"/>
</g>
<!-- _ForwardIndexType&#45;&gt;_BidirectionalIndexType -->
<g id="edge34" class="edge"><title>_ForwardIndexType&#45;&gt;_BidirectionalIndexType</title>
<path fill="none" stroke="#cccccc" d="M181.106,-347.988C180.474,-340.91 179.605,-331.171 178.828,-322.478"/>
<polygon fill="#cccccc" stroke="#cccccc" points="182.296,-321.953 177.92,-312.304 175.323,-322.576 182.296,-321.953"/>
</g>
<!-- _Incrementable&#45;&gt;_ForwardIndexType -->
<g id="edge33" class="edge"><title>_Incrementable&#45;&gt;_ForwardIndexType</title>
<path fill="none" stroke="#cccccc" d="M447.627,-407.677C394.753,-398.186 307.902,-382.598 247.984,-371.843"/>
<polygon fill="#cccccc" stroke="#cccccc" points="248.329,-368.349 237.868,-370.028 247.092,-375.239 248.329,-368.349"/>
</g>
<!-- _Incrementable&#45;&gt;_IntegerType -->
<g id="edge21" class="edge"><title>_Incrementable&#45;&gt;_IntegerType</title>
<path fill="none" stroke="#cccccc" d="M494,-405.883C494,-387.17 494,-346.827 494,-322.287"/>
<polygon fill="#cccccc" stroke="#cccccc" points="497.5,-322.258 494,-312.258 490.5,-322.258 497.5,-322.258"/>
</g>
<!-- _IntegerArithmeticType -->
<g id="node30" class="node"><title>_IntegerArithmeticType</title>
<g id="a_node30"><a xlink:href="/protocol/_IntegerArithmeticType/" xlink:title="_IntegerArithmeticType">
<path fill="#999999" stroke="#999999" d="M779.215,-428C779.215,-428 660.785,-428 660.785,-428 657.118,-428 653.452,-424.333 653.452,-420.667 653.452,-420.667 653.452,-413.333 653.452,-413.333 653.452,-409.667 657.118,-406 660.785,-406 660.785,-406 779.215,-406 779.215,-406 782.882,-406 786.548,-409.667 786.548,-413.333 786.548,-413.333 786.548,-420.667 786.548,-420.667 786.548,-424.333 782.882,-428 779.215,-428"/>
<text text-anchor="middle" x="720" y="-413.4" font-family="Helvetica,sans-Serif" font-size="12.00" fill="white">_IntegerArithmeticType</text>
</a>
</g>
</g>
<!-- _IntegerArithmeticType&#45;&gt;IntegerArithmeticType -->
<g id="edge23" class="edge"><title>_IntegerArithmeticType&#45;&gt;IntegerArithmeticType</title>
<path fill="none" stroke="#cccccc" d="M724.291,-405.988C727.425,-398.674 731.777,-388.519 735.595,-379.612"/>
<polygon fill="#cccccc" stroke="#cccccc" points="738.862,-380.874 739.584,-370.304 732.428,-378.117 738.862,-380.874"/>
</g>
<!-- _IntegerType&#45;&gt;IntegerType -->
<g id="edge14" class="edge"><title>_IntegerType&#45;&gt;IntegerType</title>
<path fill="none" stroke="#cccccc" d="M487.627,-289.756C470.199,-261.74 421.539,-183.52 398.884,-147.104"/>
<polygon fill="#cccccc" stroke="#cccccc" points="401.729,-145.05 393.475,-138.408 395.785,-148.748 401.729,-145.05"/>
</g>
<!-- _RandomAccessIndexType&#45;&gt;RandomAccessIndexType -->
<g id="edge29" class="edge"><title>_RandomAccessIndexType&#45;&gt;RandomAccessIndexType</title>
<path fill="none" stroke="#cccccc" d="M185.784,-231.988C211.917,-222.898 250.661,-209.422 279.46,-199.405"/>
<polygon fill="#cccccc" stroke="#cccccc" points="280.9,-202.61 289.195,-196.019 278.6,-195.999 280.9,-202.61"/>
</g>
<!-- _Strideable -->
<g id="node33" class="node"><title>_Strideable</title>
<g id="a_node33"><a xlink:href="/protocol/_Strideable/" xlink:title="_Strideable">
<path fill="#999999" stroke="#999999" d="M101.7,-428C101.7,-428 46.3003,-428 46.3003,-428 42.6336,-428 38.9669,-424.333 38.9669,-420.667 38.9669,-420.667 38.9669,-413.333 38.9669,-413.333 38.9669,-409.667 42.6336,-406 46.3003,-406 46.3003,-406 101.7,-406 101.7,-406 105.366,-406 109.033,-409.667 109.033,-413.333 109.033,-413.333 109.033,-420.667 109.033,-420.667 109.033,-424.333 105.366,-428 101.7,-428"/>
<text text-anchor="middle" x="74" y="-413.4" font-family="Helvetica,sans-Serif" font-size="12.00" fill="white">_Strideable</text>
</a>
</g>
</g>
<!-- _Strideable&#45;&gt;Strideable -->
<g id="edge38" class="edge"><title>_Strideable&#45;&gt;Strideable</title>
<path fill="none" stroke="#cccccc" d="M74,-405.988C74,-398.91 74,-389.171 74,-380.478"/>
<polygon fill="#cccccc" stroke="#cccccc" points="77.5001,-380.304 74,-370.304 70.5001,-380.304 77.5001,-380.304"/>
</g>
</g>
</svg>
