<?xml version="1.0" encoding="UTF-8" standalone="no"?>
<!DOCTYPE svg PUBLIC "-//W3C//DTD SVG 1.1//EN"
 "http://www.w3.org/Graphics/SVG/1.1/DTD/svg11.dtd">
<!-- Generated by graphviz version 2.36.0 (20140111.2315)
 -->
<!-- Title: CustomStringConvertible &#45; Type Hierarchy &#45; SwiftDoc.org Pages: 1 -->
<svg width="2581pt" height="369pt"
 viewBox="0.00 0.00 2581.40 369.20" xmlns="http://www.w3.org/2000/svg" xmlns:xlink="http://www.w3.org/1999/xlink">
<g id="graph0" class="graph" transform="scale(1 1) rotate(0) translate(7.2 311.6)">
<g transform="translate(0 -311.6)">
<g>
    <path fill="#666666" d="M13.846,10.832c-0.336-0.464-0.792-0.844-1.368-1.14s-1.224-0.444-1.944-0.444
        c-0.384,0-0.772,0.052-1.164,0.156C8.977,9.509,8.622,9.677,8.301,9.908c-0.32,0.232-0.58,0.52-0.78,0.864
        c-0.2,0.344-0.3,0.756-0.3,1.236c0,0.464,0.092,0.852,0.276,1.164c0.184,0.312,0.432,0.576,0.744,0.792s0.68,0.4,1.104,0.552
        c0.423,0.152,0.876,0.309,1.356,0.468c0.576,0.177,1.16,0.376,1.752,0.601c0.592,0.224,1.128,0.52,1.608,0.888
        s0.872,0.828,1.176,1.38s0.456,1.252,0.456,2.101c0,0.88-0.164,1.644-0.492,2.292c-0.328,0.647-0.765,1.184-1.308,1.607
        c-0.544,0.424-1.172,0.74-1.884,0.948s-1.444,0.312-2.196,0.312c-1.072,0-2.108-0.208-3.108-0.624
        c-1-0.415-1.828-1.031-2.484-1.848l1.848-1.56c0.4,0.592,0.936,1.071,1.608,1.439c0.672,0.368,1.399,0.552,2.184,0.552
        c0.4,0,0.8-0.056,1.2-0.168c0.4-0.111,0.764-0.288,1.092-0.527c0.328-0.24,0.596-0.54,0.804-0.9
        c0.208-0.36,0.312-0.796,0.312-1.308s-0.108-0.94-0.324-1.284c-0.216-0.344-0.508-0.636-0.876-0.876s-0.796-0.444-1.284-0.612
        c-0.488-0.168-1.004-0.34-1.548-0.516c-0.544-0.16-1.08-0.356-1.608-0.588c-0.528-0.232-1-0.528-1.416-0.889
        c-0.416-0.359-0.752-0.804-1.008-1.332c-0.256-0.527-0.384-1.184-0.384-1.968c0-0.848,0.172-1.576,0.516-2.184
        c0.344-0.608,0.792-1.112,1.344-1.512c0.552-0.4,1.176-0.692,1.872-0.876c0.696-0.184,1.396-0.276,2.1-0.276
        c0.992,0,1.92,0.176,2.784,0.528c0.864,0.352,1.56,0.824,2.088,1.416L13.846,10.832z"/>
    <path fill="#666666" d="M18.813,13.304l2.568,8.688h0.048l2.712-8.688h2.376l2.76,8.688h0.048l2.568-8.688h2.376L30.501,24.68
        h-2.352l-2.808-8.544h-0.048l-2.784,8.544h-2.352l-3.792-11.376H18.813z"/>
    <path fill="#666666" d="M38.685,9.2c0,0.416-0.147,0.76-0.44,1.032c-0.294,0.272-0.647,0.408-1.06,0.408s-0.762-0.14-1.047-0.42
        c-0.286-0.28-0.429-0.62-0.429-1.02c0-0.416,0.143-0.764,0.429-1.044c0.286-0.28,0.635-0.42,1.047-0.42s0.766,0.14,1.06,0.42
        C38.538,8.437,38.685,8.784,38.685,9.2z M38.325,24.68h-2.256V13.304h2.256V24.68z"/>
    <path fill="#666666" d="M47.613,15.152h-2.64v9.528h-2.256v-9.528h-2.256v-1.848h2.256v-2.376c0-0.672,0.076-1.292,0.228-1.86
        c0.152-0.568,0.4-1.06,0.744-1.476c0.344-0.416,0.784-0.744,1.32-0.984c0.536-0.24,1.188-0.36,1.956-0.36
        c0.544,0,1.016,0.056,1.416,0.168l-0.264,1.944c-0.176-0.048-0.352-0.088-0.528-0.12c-0.176-0.032-0.376-0.048-0.6-0.048
        c-0.432,0-0.78,0.076-1.044,0.228c-0.264,0.152-0.468,0.356-0.612,0.612s-0.24,0.548-0.288,0.876
        c-0.048,0.328-0.072,0.668-0.072,1.02v2.376h2.64V15.152z"/>
    <path fill="#666666" d="M54.909,15.152h-3.024v5.91c0,0.687,0.128,1.177,0.384,1.472c0.256,0.295,0.664,0.442,1.224,0.442
        c0.208,0,0.432-0.021,0.672-0.065c0.24-0.044,0.456-0.11,0.648-0.198l0.072,1.848c-0.272,0.096-0.572,0.172-0.9,0.229
        c-0.328,0.056-0.668,0.084-1.02,0.084c-1.072,0-1.892-0.296-2.46-0.889c-0.568-0.592-0.852-1.479-0.852-2.664v-6.168h-2.184
        v-1.848h2.184V10.04h2.232v3.264h3.024V15.152z"/>
    <path fill="#666666" d="M57.356,7.688h5.832c1.088,0,2.176,0.16,3.264,0.48c1.088,0.32,2.072,0.824,2.952,1.512
        s1.592,1.568,2.136,2.64c0.544,1.072,0.816,2.36,0.816,3.864c0,1.456-0.272,2.716-0.816,3.78s-1.256,1.943-2.136,2.64
        s-1.864,1.216-2.952,1.561c-1.088,0.344-2.176,0.516-3.264,0.516h-5.832V7.688z M59.732,22.593h2.976
        c1.024,0,1.972-0.145,2.844-0.432c0.872-0.288,1.624-0.704,2.256-1.248c0.632-0.544,1.124-1.216,1.476-2.017
        c0.352-0.8,0.528-1.704,0.528-2.712c0-1.056-0.176-1.983-0.528-2.784c-0.353-0.8-0.844-1.468-1.476-2.004
        c-0.632-0.536-1.384-0.944-2.256-1.224s-1.82-0.42-2.844-0.42h-2.976V22.593z"/>
    <path fill="#666666" d="M86.06,18.969c0,0.88-0.156,1.688-0.468,2.424c-0.312,0.736-0.744,1.372-1.296,1.908
        c-0.552,0.536-1.204,0.952-1.956,1.248c-0.752,0.296-1.56,0.443-2.424,0.443c-0.864,0-1.672-0.147-2.424-0.443
        c-0.752-0.296-1.4-0.712-1.944-1.248c-0.544-0.536-0.972-1.172-1.284-1.908c-0.312-0.735-0.468-1.544-0.468-2.424
        s0.156-1.684,0.468-2.412c0.312-0.728,0.74-1.356,1.284-1.884c0.543-0.528,1.191-0.939,1.944-1.236
        c0.752-0.296,1.56-0.444,2.424-0.444c0.864,0,1.672,0.148,2.424,0.444c0.752,0.297,1.404,0.708,1.956,1.236
        c0.552,0.527,0.984,1.156,1.296,1.884C85.904,17.285,86.06,18.089,86.06,18.969z M83.708,18.98c0-0.542-0.084-1.061-0.252-1.556
        c-0.169-0.494-0.414-0.929-0.734-1.304s-0.718-0.674-1.192-0.897s-1.015-0.335-1.625-0.335c-0.61,0-1.152,0.111-1.625,0.335
        c-0.474,0.224-0.871,0.522-1.191,0.897c-0.321,0.375-0.566,0.81-0.734,1.304C76.184,17.92,76.1,18.438,76.1,18.98
        c0,0.543,0.084,1.062,0.253,1.556c0.168,0.495,0.413,0.934,0.734,1.316c0.321,0.383,0.718,0.686,1.191,0.909
        c0.473,0.224,1.015,0.335,1.625,0.335c0.61,0,1.151-0.111,1.625-0.335s0.871-0.526,1.192-0.909s0.565-0.821,0.734-1.316
        C83.624,20.042,83.708,19.523,83.708,18.98z"/>
    <path fill="#666666" d="M96.428,16.184c-0.24-0.368-0.6-0.676-1.08-0.924s-0.992-0.372-1.536-0.372
        c-0.592,0-1.116,0.112-1.572,0.336c-0.456,0.225-0.844,0.524-1.164,0.9c-0.32,0.376-0.564,0.812-0.732,1.308
        s-0.252,1.017-0.252,1.56c0,0.545,0.084,1.064,0.252,1.561s0.412,0.933,0.732,1.308c0.32,0.376,0.712,0.677,1.176,0.9
        c0.464,0.225,0.992,0.336,1.584,0.336c0.576,0,1.1-0.111,1.572-0.336c0.472-0.224,0.86-0.528,1.164-0.912l1.512,1.368
        c-0.48,0.561-1.08,0.996-1.8,1.308c-0.72,0.312-1.536,0.468-2.448,0.468c-0.88,0-1.692-0.144-2.436-0.432
        c-0.744-0.288-1.388-0.691-1.932-1.212c-0.544-0.52-0.972-1.147-1.284-1.884s-0.468-1.561-0.468-2.473
        c0-0.896,0.152-1.711,0.456-2.447c0.304-0.736,0.728-1.368,1.272-1.896c0.543-0.527,1.188-0.936,1.932-1.224
        c0.744-0.288,1.548-0.433,2.412-0.433c0.8,0,1.596,0.16,2.388,0.48s1.419,0.784,1.884,1.392L96.428,16.184z"/>
    <path fill="#666666" d="M103.1,23.24c0,0.417-0.152,0.784-0.456,1.104c-0.304,0.32-0.688,0.479-1.152,0.479
        c-0.448,0-0.828-0.155-1.14-0.468c-0.312-0.312-0.468-0.676-0.468-1.092c0-0.432,0.152-0.804,0.456-1.116
        c0.304-0.312,0.688-0.468,1.152-0.468c0.464,0,0.848,0.152,1.152,0.456C102.947,22.44,103.1,22.808,103.1,23.24z"/>
    <path fill="#666666" d="M116.635,18.969c0,0.88-0.156,1.688-0.468,2.424c-0.312,0.736-0.744,1.372-1.296,1.908
        c-0.552,0.536-1.204,0.952-1.956,1.248c-0.752,0.296-1.56,0.443-2.424,0.443c-0.864,0-1.672-0.147-2.424-0.443
        c-0.752-0.296-1.4-0.712-1.944-1.248c-0.544-0.536-0.972-1.172-1.284-1.908c-0.312-0.735-0.468-1.544-0.468-2.424
        s0.156-1.684,0.468-2.412c0.312-0.728,0.74-1.356,1.284-1.884c0.543-0.528,1.191-0.939,1.944-1.236
        c0.752-0.296,1.56-0.444,2.424-0.444c0.864,0,1.672,0.148,2.424,0.444c0.752,0.297,1.404,0.708,1.956,1.236
        c0.552,0.527,0.984,1.156,1.296,1.884C116.479,17.285,116.635,18.089,116.635,18.969z M114.283,18.98
        c0-0.542-0.084-1.061-0.252-1.556c-0.169-0.494-0.414-0.929-0.734-1.304s-0.718-0.674-1.192-0.897s-1.015-0.335-1.625-0.335
        c-0.61,0-1.152,0.111-1.625,0.335c-0.474,0.224-0.871,0.522-1.191,0.897c-0.321,0.375-0.566,0.81-0.734,1.304
        c-0.169,0.495-0.253,1.014-0.253,1.556c0,0.543,0.084,1.062,0.253,1.556c0.168,0.495,0.413,0.934,0.734,1.316
        c0.321,0.383,0.718,0.686,1.191,0.909c0.473,0.224,1.015,0.335,1.625,0.335c0.61,0,1.151-0.111,1.625-0.335
        s0.871-0.526,1.192-0.909s0.565-0.821,0.734-1.316C114.199,20.042,114.283,19.523,114.283,18.98z"/>
    <path fill="#666666" d="M119.251,14.577c-0.016-0.48-0.04-0.904-0.072-1.272h2.136c0.032,0.288,0.056,0.62,0.072,0.996
        c0.016,0.376,0.024,0.684,0.024,0.924h0.072c0.32-0.672,0.788-1.212,1.404-1.62c0.616-0.408,1.308-0.612,2.076-0.612
        c0.352,0,0.648,0.033,0.888,0.097l-0.096,2.088c-0.32-0.08-0.664-0.12-1.032-0.12c-0.544,0-1.016,0.101-1.416,0.3
        c-0.4,0.2-0.732,0.468-0.996,0.805c-0.264,0.336-0.46,0.724-0.588,1.163c-0.128,0.44-0.192,0.9-0.192,1.381v5.976h-2.256v-8.928
        C119.275,15.449,119.267,15.056,119.251,14.577z"/>
    <path fill="#666666" d="M128.419,26.625c0.496,0.56,1.116,1.008,1.86,1.344c0.744,0.336,1.508,0.504,2.292,0.504
        c0.752,0,1.384-0.108,1.896-0.324s0.924-0.512,1.236-0.888s0.536-0.82,0.672-1.332c0.136-0.513,0.204-1.064,0.204-1.656v-1.464
        h-0.048c-0.416,0.641-0.984,1.128-1.704,1.464c-0.72,0.336-1.488,0.504-2.304,0.504c-0.864,0-1.652-0.151-2.364-0.456
        c-0.712-0.304-1.316-0.72-1.812-1.248c-0.496-0.527-0.88-1.147-1.152-1.859s-0.408-1.477-0.408-2.292
        c0-0.816,0.136-1.584,0.408-2.305c0.272-0.72,0.656-1.348,1.152-1.884c0.496-0.535,1.096-0.96,1.8-1.271
        c0.704-0.312,1.488-0.469,2.352-0.469c0.816,0,1.596,0.177,2.34,0.528c0.744,0.353,1.332,0.888,1.764,1.608h0.048v-1.824h2.184
        v10.8c0,0.832-0.104,1.628-0.312,2.388c-0.208,0.76-0.56,1.433-1.056,2.017s-1.144,1.052-1.944,1.404
        c-0.8,0.352-1.792,0.527-2.976,0.527c-0.992,0-1.988-0.18-2.988-0.54c-1-0.359-1.86-0.868-2.58-1.523L128.419,26.625z
         M129.091,18.873c0,0.527,0.084,1.031,0.253,1.512c0.168,0.479,0.417,0.904,0.746,1.271c0.329,0.369,0.726,0.664,1.192,0.889
        c0.465,0.224,0.995,0.336,1.589,0.336c0.577,0,1.107-0.104,1.589-0.312c0.481-0.207,0.891-0.491,1.228-0.852
        s0.598-0.784,0.782-1.272c0.185-0.487,0.277-1.012,0.277-1.571c0-0.544-0.093-1.057-0.277-1.536
        c-0.185-0.48-0.449-0.904-0.794-1.272c-0.345-0.367-0.755-0.66-1.228-0.876c-0.474-0.216-1-0.324-1.577-0.324
        c-0.594,0-1.124,0.108-1.589,0.324c-0.466,0.216-0.863,0.504-1.192,0.864s-0.578,0.784-0.746,1.271
        C129.175,17.812,129.091,18.329,129.091,18.873z"/>
</g>
<g><a xlink:href="/" pointer-events="all" target="_top"><polygon fill="none" points="0,0 145,0 145,35 0,35 0,0"/></a></g>

</g>


<!-- Array -->
<g id="node1" class="node">
<g id="a_node1"><a xlink:href="/v2.0/type/Array/hierarchy/" target="_top">
<polygon fill="#999999" stroke="#999999" points="54,-22 0,-22 0,-0 54,-0 54,-22"/>
<text text-anchor="middle" x="27" y="-7.4" font-family="Helvetica,sans-Serif" font-size="12.00" fill="white">Array</text>
</a>
</g>
</g>
<!-- ArraySlice -->
<g id="node2" class="node">
<g id="a_node2"><a xlink:href="/v2.0/type/ArraySlice/hierarchy/" target="_top">
<polygon fill="#999999" stroke="#999999" points="136.011,-22 71.9886,-22 71.9886,-0 136.011,-0 136.011,-22"/>
<text text-anchor="middle" x="104" y="-7.4" font-family="Helvetica,sans-Serif" font-size="12.00" fill="white">ArraySlice</text>
</a>
</g>
</g>
<!-- Bool -->
<g id="node3" class="node">
<g id="a_node3"><a xlink:href="/v2.0/type/Bool/hierarchy/" target="_top">
<polygon fill="#999999" stroke="#999999" points="208,-22 154,-22 154,-0 208,-0 208,-22"/>
<text text-anchor="middle" x="181" y="-7.4" font-family="Helvetica,sans-Serif" font-size="12.00" fill="white">Bool</text>
</a>
</g>
</g>
<!-- ClosedInterval -->
<g id="node4" class="node">
<g id="a_node4"><a xlink:href="/v2.0/type/ClosedInterval/hierarchy/" target="_top">
<polygon fill="#999999" stroke="#999999" points="312.03,-22 225.97,-22 225.97,-0 312.03,-0 312.03,-22"/>
<text text-anchor="middle" x="269" y="-7.4" font-family="Helvetica,sans-Serif" font-size="12.00" fill="white">ClosedInterval</text>
</a>
</g>
</g>
<!-- ContiguousArray -->
<g id="node5" class="node">
<g id="a_node5"><a xlink:href="/v2.0/type/ContiguousArray/hierarchy/" target="_top">
<polygon fill="#999999" stroke="#999999" points="429.534,-22 330.466,-22 330.466,-0 429.534,-0 429.534,-22"/>
<text text-anchor="middle" x="380" y="-7.4" font-family="Helvetica,sans-Serif" font-size="12.00" fill="white">ContiguousArray</text>
</a>
</g>
</g>
<!-- CustomStringConvertible -->
<g id="node6" class="node">
<g id="a_node6"><a xlink:href="/v2.0/protocol/CustomStringConvertible/" target="_top">
<path fill="#ee543d" stroke="#ee543d" d="M933.208,-254C933.208,-254 804.792,-254 804.792,-254 801.126,-254 797.459,-250.333 797.459,-246.667 797.459,-246.667 797.459,-239.333 797.459,-239.333 797.459,-235.667 801.126,-232 804.792,-232 804.792,-232 933.208,-232 933.208,-232 936.874,-232 940.541,-235.667 940.541,-239.333 940.541,-239.333 940.541,-246.667 940.541,-246.667 940.541,-250.333 936.874,-254 933.208,-254"/>
<text text-anchor="middle" x="869" y="-239.4" font-family="Helvetica,sans-Serif" font-size="12.00" fill="white">CustomStringConvertible</text>
</a>
</g>
</g>
<!-- CustomStringConvertible&#45;&gt;Array -->
<g id="edge1" class="edge">
<path fill="none" stroke="#cccccc" d="M797.45,-239.2C716.144,-234.786 579.944,-223.642 466,-196 395.328,-178.855 380.298,-165.558 313,-138 219.366,-99.6575 110.386,-50.3164 58.1023,-26.346"/>
<polygon fill="#cccccc" stroke="#cccccc" points="59.2675,-23.0297 48.7193,-22.0373 56.3463,-29.3911 59.2675,-23.0297"/>
</g>
<!-- CustomStringConvertible&#45;&gt;ArraySlice -->
<g id="edge2" class="edge">
<path fill="none" stroke="#cccccc" d="M797.635,-237.105C729.923,-231.288 625.762,-219.281 538,-196 377.408,-153.4 198.583,-62.6492 131.44,-26.9086"/>
<polygon fill="#cccccc" stroke="#cccccc" points="132.827,-23.6814 122.359,-22.0469 129.523,-29.8526 132.827,-23.6814"/>
</g>
<!-- CustomStringConvertible&#45;&gt;Bool -->
<g id="edge3" class="edge">
<path fill="none" stroke="#cccccc" d="M797.643,-233.903C744.601,-226.81 670.85,-214.672 608,-196 451.646,-149.549 276.091,-61.7932 209.056,-26.8762"/>
<polygon fill="#cccccc" stroke="#cccccc" points="210.451,-23.6559 199.968,-22.1191 207.204,-29.8576 210.451,-23.6559"/>
</g>
<!-- CustomStringConvertible&#45;&gt;ClosedInterval -->
<g id="edge4" class="edge">
<path fill="none" stroke="#cccccc" d="M810.2,-231.98C769.408,-224.216 714.151,-212.07 667,-196 522.047,-146.597 359.134,-61.2131 296.001,-26.9061"/>
<polygon fill="#cccccc" stroke="#cccccc" points="297.537,-23.7573 287.083,-22.0382 294.183,-29.9016 297.537,-23.7573"/>
</g>
<!-- CustomStringConvertible&#45;&gt;ContiguousArray -->
<g id="edge5" class="edge">
<path fill="none" stroke="#cccccc" d="M828.158,-231.969C797.32,-223.821 754.266,-211.209 718,-196 595.106,-144.459 458.528,-61.5338 404.195,-27.4186"/>
<polygon fill="#cccccc" stroke="#cccccc" points="405.934,-24.378 395.609,-22.0034 402.2,-30.2987 405.934,-24.378"/>
</g>
<!-- Dictionary -->
<g id="node7" class="node">
<g id="a_node7"><a xlink:href="/v2.0/type/Dictionary/hierarchy/" target="_top">
<polygon fill="#999999" stroke="#999999" points="510.511,-22 447.489,-22 447.489,-0 510.511,-0 510.511,-22"/>
<text text-anchor="middle" x="479" y="-7.4" font-family="Helvetica,sans-Serif" font-size="12.00" fill="white">Dictionary</text>
</a>
</g>
</g>
<!-- CustomStringConvertible&#45;&gt;Dictionary -->
<g id="edge6" class="edge">
<path fill="none" stroke="#cccccc" d="M840.228,-231.951C817.181,-223.486 784.305,-210.466 757,-196 656.311,-142.656 546.073,-62.5371 500.524,-28.3745"/>
<polygon fill="#cccccc" stroke="#cccccc" points="502.392,-25.3992 492.299,-22.1762 498.179,-30.9896 502.392,-25.3992"/>
</g>
<!-- Double -->
<g id="node8" class="node">
<g id="a_node8"><a xlink:href="/v2.0/type/Double/hierarchy/" target="_top">
<polygon fill="#999999" stroke="#999999" points="583,-22 529,-22 529,-0 583,-0 583,-22"/>
<text text-anchor="middle" x="556" y="-7.4" font-family="Helvetica,sans-Serif" font-size="12.00" fill="white">Double</text>
</a>
</g>
</g>
<!-- CustomStringConvertible&#45;&gt;Double -->
<g id="edge7" class="edge">
<path fill="none" stroke="#cccccc" d="M850.036,-231.93C833.746,-223.053 809.822,-209.469 790,-196 706.942,-139.564 615.163,-62.7987 575.749,-29.0758"/>
<polygon fill="#cccccc" stroke="#cccccc" points="577.599,-26.0503 567.732,-22.1904 573.038,-31.3608 577.599,-26.0503"/>
</g>
<!-- Float -->
<g id="node9" class="node">
<g id="a_node9"><a xlink:href="/v2.0/type/Float/hierarchy/" target="_top">
<polygon fill="#999999" stroke="#999999" points="655,-22 601,-22 601,-0 655,-0 655,-22"/>
<text text-anchor="middle" x="628" y="-7.4" font-family="Helvetica,sans-Serif" font-size="12.00" fill="white">Float</text>
</a>
</g>
</g>
<!-- CustomStringConvertible&#45;&gt;Float -->
<g id="edge8" class="edge">
<path fill="none" stroke="#cccccc" d="M857.293,-231.925C846.659,-222.708 830.605,-208.627 817,-196 752.365,-136.013 678.03,-62.1626 645.158,-29.2457"/>
<polygon fill="#cccccc" stroke="#cccccc" points="647.618,-26.7556 638.078,-22.1465 642.662,-31.6987 647.618,-26.7556"/>
</g>
<!-- Float80 -->
<g id="node10" class="node">
<g id="a_node10"><a xlink:href="/v2.0/type/Float80/hierarchy/" target="_top">
<polygon fill="#999999" stroke="#999999" points="727,-22 673,-22 673,-0 727,-0 727,-22"/>
<text text-anchor="middle" x="700" y="-7.4" font-family="Helvetica,sans-Serif" font-size="12.00" fill="white">Float80</text>
</a>
</g>
</g>
<!-- CustomStringConvertible&#45;&gt;Float80 -->
<g id="edge9" class="edge">
<path fill="none" stroke="#cccccc" d="M861.52,-231.82C835.289,-196.122 747.242,-76.2938 713.404,-30.2419"/>
<polygon fill="#cccccc" stroke="#cccccc" points="716.135,-28.0481 707.393,-22.062 710.494,-32.193 716.135,-28.0481"/>
</g>
<!-- HalfOpenInterval -->
<g id="node11" class="node">
<g id="a_node11"><a xlink:href="/v2.0/type/HalfOpenInterval/hierarchy/" target="_top">
<polygon fill="#999999" stroke="#999999" points="845.035,-22 744.965,-22 744.965,-0 845.035,-0 845.035,-22"/>
<text text-anchor="middle" x="795" y="-7.4" font-family="Helvetica,sans-Serif" font-size="12.00" fill="white">HalfOpenInterval</text>
</a>
</g>
</g>
<!-- CustomStringConvertible&#45;&gt;HalfOpenInterval -->
<g id="edge10" class="edge">
<path fill="none" stroke="#cccccc" d="M865.725,-231.82C854.359,-196.494 816.486,-78.7811 801.34,-31.7049"/>
<polygon fill="#cccccc" stroke="#cccccc" points="804.632,-30.5095 798.237,-22.062 797.968,-32.6535 804.632,-30.5095"/>
</g>
<!-- ImplicitlyUnwrappedOptional -->
<g id="node12" class="node">
<g id="a_node12"><a xlink:href="/v2.0/type/ImplicitlyUnwrappedOptional/hierarchy/" target="_top">
<polygon fill="#999999" stroke="#999999" points="1025.05,-22 862.949,-22 862.949,-0 1025.05,-0 1025.05,-22"/>
<text text-anchor="middle" x="944" y="-7.4" font-family="Helvetica,sans-Serif" font-size="12.00" fill="white">ImplicitlyUnwrappedOptional</text>
</a>
</g>
</g>
<!-- CustomStringConvertible&#45;&gt;ImplicitlyUnwrappedOptional -->
<g id="edge11" class="edge">
<path fill="none" stroke="#cccccc" d="M872.319,-231.82C883.839,-196.494 922.224,-78.7811 937.574,-31.7049"/>
<polygon fill="#cccccc" stroke="#cccccc" points="940.946,-32.6544 940.719,-22.062 934.291,-30.4842 940.946,-32.6544"/>
</g>
<!-- Mirror -->
<g id="node19" class="node">
<g id="a_node19"><a xlink:href="/v2.0/type/Mirror/hierarchy/" target="_top">
<polygon fill="#999999" stroke="#999999" points="1097,-22 1043,-22 1043,-0 1097,-0 1097,-22"/>
<text text-anchor="middle" x="1070" y="-7.4" font-family="Helvetica,sans-Serif" font-size="12.00" fill="white">Mirror</text>
</a>
</g>
</g>
<!-- CustomStringConvertible&#45;&gt;Mirror -->
<g id="edge12" class="edge">
<path fill="none" stroke="#cccccc" d="M877.896,-231.82C909.224,-195.973 1014.69,-75.2938 1054.56,-29.6701"/>
<polygon fill="#cccccc" stroke="#cccccc" points="1057.26,-31.895 1061.21,-22.062 1051.99,-27.2887 1057.26,-31.895"/>
</g>
<!-- Range -->
<g id="node20" class="node">
<g id="a_node20"><a xlink:href="/v2.0/type/Range/hierarchy/" target="_top">
<polygon fill="#999999" stroke="#999999" points="1169,-22 1115,-22 1115,-0 1169,-0 1169,-22"/>
<text text-anchor="middle" x="1142" y="-7.4" font-family="Helvetica,sans-Serif" font-size="12.00" fill="white">Range</text>
</a>
</g>
</g>
<!-- CustomStringConvertible&#45;&gt;Range -->
<g id="edge13" class="edge">
<path fill="none" stroke="#cccccc" d="M883.791,-231.986C896.961,-222.926 916.623,-209.042 933,-196 1005.82,-138.008 1087.34,-63.1513 1123.27,-29.6132"/>
<polygon fill="#cccccc" stroke="#cccccc" points="1126.1,-31.7626 1131.01,-22.3737 1121.32,-26.6519 1126.1,-31.7626"/>
</g>
<!-- Set -->
<g id="node21" class="node">
<g id="a_node21"><a xlink:href="/v2.0/type/Set/hierarchy/" target="_top">
<polygon fill="#999999" stroke="#999999" points="1241,-22 1187,-22 1187,-0 1241,-0 1241,-22"/>
<text text-anchor="middle" x="1214" y="-7.4" font-family="Helvetica,sans-Serif" font-size="12.00" fill="white">Set</text>
</a>
</g>
</g>
<!-- CustomStringConvertible&#45;&gt;Set -->
<g id="edge14" class="edge">
<path fill="none" stroke="#cccccc" d="M891.865,-231.853C910.828,-223.137 938.264,-209.822 961,-196 1051.96,-140.704 1151.94,-62.2245 1193.81,-28.4733"/>
<polygon fill="#cccccc" stroke="#cccccc" points="1196.04,-31.1685 1201.61,-22.1566 1191.64,-25.7273 1196.04,-31.1685"/>
</g>
<!-- StaticString -->
<g id="node23" class="node">
<g id="a_node23"><a xlink:href="/v2.0/type/StaticString/hierarchy/" target="_top">
<polygon fill="#999999" stroke="#999999" points="1330.52,-22 1259.48,-22 1259.48,-0 1330.52,-0 1330.52,-22"/>
<text text-anchor="middle" x="1295" y="-7.4" font-family="Helvetica,sans-Serif" font-size="12.00" fill="white">StaticString</text>
</a>
</g>
</g>
<!-- CustomStringConvertible&#45;&gt;StaticString -->
<g id="edge15" class="edge">
<path fill="none" stroke="#cccccc" d="M900.241,-231.995C925.288,-223.554 961.073,-210.546 991,-196 1100.69,-142.684 1222.26,-61.9831 1271.95,-27.9888"/>
<polygon fill="#cccccc" stroke="#cccccc" points="1274.11,-30.7499 1280.37,-22.202 1270.14,-24.9806 1274.11,-30.7499"/>
</g>
<!-- String.UTF16View -->
<g id="node24" class="node">
<g id="a_node24"><a xlink:href="/v2.0/type/String.UTF16View/hierarchy/" target="_top">
<polygon fill="#999999" stroke="#999999" points="1455.37,-22 1348.63,-22 1348.63,-0 1455.37,-0 1455.37,-22"/>
<text text-anchor="middle" x="1402" y="-7.4" font-family="Helvetica,sans-Serif" font-size="12.00" fill="white">String.UTF16View</text>
</a>
</g>
</g>
<!-- CustomStringConvertible&#45;&gt;String.UTF16View -->
<g id="edge19" class="edge">
<path fill="none" stroke="#cccccc" d="M910.569,-231.998C942.815,-223.739 988.374,-210.97 1027,-196 1162.11,-143.638 1314.76,-60.9222 1375.26,-27.1341"/>
<polygon fill="#cccccc" stroke="#cccccc" points="1377.15,-30.0866 1384.16,-22.1435 1373.73,-23.9806 1377.15,-30.0866"/>
</g>
<!-- String.UTF8View -->
<g id="node25" class="node">
<g id="a_node25"><a xlink:href="/v2.0/type/String.UTF8View/hierarchy/" target="_top">
<polygon fill="#999999" stroke="#999999" points="1574.36,-22 1473.64,-22 1473.64,-0 1574.36,-0 1574.36,-22"/>
<text text-anchor="middle" x="1524" y="-7.4" font-family="Helvetica,sans-Serif" font-size="12.00" fill="white">String.UTF8View</text>
</a>
</g>
</g>
<!-- CustomStringConvertible&#45;&gt;String.UTF8View -->
<g id="edge20" class="edge">
<path fill="none" stroke="#cccccc" d="M922.822,-231.935C963.212,-223.811 1019.64,-211.244 1068,-196 1232.08,-144.282 1420.4,-59.9682 1493.13,-26.4253"/>
<polygon fill="#cccccc" stroke="#cccccc" points="1495,-29.4144 1502.61,-22.0379 1492.06,-23.0617 1495,-29.4144"/>
</g>
<!-- String.UnicodeScalarView -->
<g id="node26" class="node">
<g id="a_node26"><a xlink:href="/v2.0/type/String.UnicodeScalarView/hierarchy/" target="_top">
<polygon fill="#999999" stroke="#999999" points="1740.89,-22 1593.11,-22 1593.11,-0 1740.89,-0 1740.89,-22"/>
<text text-anchor="middle" x="1667" y="-7.4" font-family="Helvetica,sans-Serif" font-size="12.00" fill="white">String.UnicodeScalarView</text>
</a>
</g>
</g>
<!-- CustomStringConvertible&#45;&gt;String.UnicodeScalarView -->
<g id="edge18" class="edge">
<path fill="none" stroke="#cccccc" d="M935.829,-231.966C985.391,-223.919 1054.4,-211.434 1114,-196 1313.01,-144.464 1544.45,-58.8363 1631.49,-25.6897"/>
<polygon fill="#cccccc" stroke="#cccccc" points="1632.81,-28.9332 1640.9,-22.0961 1630.31,-22.3938 1632.81,-28.9332"/>
</g>
<!-- UnicodeScalar -->
<g id="node32" class="node">
<g id="a_node32"><a xlink:href="/v2.0/type/UnicodeScalar/hierarchy/" target="_top">
<polygon fill="#999999" stroke="#999999" points="1847.03,-22 1758.97,-22 1758.97,-0 1847.03,-0 1847.03,-22"/>
<text text-anchor="middle" x="1803" y="-7.4" font-family="Helvetica,sans-Serif" font-size="12.00" fill="white">UnicodeScalar</text>
</a>
</g>
</g>
<!-- CustomStringConvertible&#45;&gt;UnicodeScalar -->
<g id="edge16" class="edge">
<path fill="none" stroke="#cccccc" d="M940.527,-233.582C1001.19,-225.818 1090.32,-212.936 1167,-196 1396.23,-145.368 1664.5,-58.4118 1763.62,-25.3164"/>
<polygon fill="#cccccc" stroke="#cccccc" points="1764.86,-28.5944 1773.23,-22.1008 1762.63,-21.9565 1764.86,-28.5944"/>
</g>
<!-- _IntegerType -->
<g id="node35" class="node">
<g id="a_node35"><a xlink:href="/v2.0/protocol/_IntegerType/hierarchy/" target="_top">
<path fill="#999999" stroke="#999999" d="M2133.71,-196C2133.71,-196 2068.29,-196 2068.29,-196 2064.63,-196 2060.96,-192.333 2060.96,-188.667 2060.96,-188.667 2060.96,-181.333 2060.96,-181.333 2060.96,-177.667 2064.63,-174 2068.29,-174 2068.29,-174 2133.71,-174 2133.71,-174 2137.37,-174 2141.04,-177.667 2141.04,-181.333 2141.04,-181.333 2141.04,-188.667 2141.04,-188.667 2141.04,-192.333 2137.37,-196 2133.71,-196"/>
<text text-anchor="middle" x="2101" y="-181.4" font-family="Helvetica,sans-Serif" font-size="12.00" fill="white">_IntegerType</text>
</a>
</g>
</g>
<!-- CustomStringConvertible&#45;&gt;_IntegerType -->
<g id="edge17" class="edge">
<path fill="none" stroke="#cccccc" d="M940.563,-238.747C1165.97,-228.501 1857.73,-197.058 2050.61,-188.291"/>
<polygon fill="#cccccc" stroke="#cccccc" points="2050.91,-191.781 2060.74,-187.83 2050.59,-184.788 2050.91,-191.781"/>
</g>
<!-- Int -->
<g id="node13" class="node">
<g id="a_node13"><a xlink:href="/v2.0/type/Int/hierarchy/" target="_top">
<polygon fill="#999999" stroke="#999999" points="1919,-22 1865,-22 1865,-0 1919,-0 1919,-22"/>
<text text-anchor="middle" x="1892" y="-7.4" font-family="Helvetica,sans-Serif" font-size="12.00" fill="white">Int</text>
</a>
</g>
</g>
<!-- Int16 -->
<g id="node14" class="node">
<g id="a_node14"><a xlink:href="/v2.0/type/Int16/hierarchy/" target="_top">
<polygon fill="#999999" stroke="#999999" points="1991,-22 1937,-22 1937,-0 1991,-0 1991,-22"/>
<text text-anchor="middle" x="1964" y="-7.4" font-family="Helvetica,sans-Serif" font-size="12.00" fill="white">Int16</text>
</a>
</g>
</g>
<!-- Int32 -->
<g id="node15" class="node">
<g id="a_node15"><a xlink:href="/v2.0/type/Int32/hierarchy/" target="_top">
<polygon fill="#999999" stroke="#999999" points="2063,-22 2009,-22 2009,-0 2063,-0 2063,-22"/>
<text text-anchor="middle" x="2036" y="-7.4" font-family="Helvetica,sans-Serif" font-size="12.00" fill="white">Int32</text>
</a>
</g>
</g>
<!-- Int64 -->
<g id="node16" class="node">
<g id="a_node16"><a xlink:href="/v2.0/type/Int64/hierarchy/" target="_top">
<polygon fill="#999999" stroke="#999999" points="2135,-22 2081,-22 2081,-0 2135,-0 2135,-22"/>
<text text-anchor="middle" x="2108" y="-7.4" font-family="Helvetica,sans-Serif" font-size="12.00" fill="white">Int64</text>
</a>
</g>
</g>
<!-- Int8 -->
<g id="node17" class="node">
<g id="a_node17"><a xlink:href="/v2.0/type/Int8/hierarchy/" target="_top">
<polygon fill="#999999" stroke="#999999" points="2207,-22 2153,-22 2153,-0 2207,-0 2207,-22"/>
<text text-anchor="middle" x="2180" y="-7.4" font-family="Helvetica,sans-Serif" font-size="12.00" fill="white">Int8</text>
</a>
</g>
</g>
<!-- IntegerType -->
<g id="node18" class="node">
<g id="a_node18"><a xlink:href="/v2.0/protocol/IntegerType/hierarchy/" target="_top">
<path fill="#999999" stroke="#999999" d="M2187.2,-138C2187.2,-138 2128.8,-138 2128.8,-138 2125.13,-138 2121.47,-134.333 2121.47,-130.667 2121.47,-130.667 2121.47,-123.333 2121.47,-123.333 2121.47,-119.667 2125.13,-116 2128.8,-116 2128.8,-116 2187.2,-116 2187.2,-116 2190.87,-116 2194.53,-119.667 2194.53,-123.333 2194.53,-123.333 2194.53,-130.667 2194.53,-130.667 2194.53,-134.333 2190.87,-138 2187.2,-138"/>
<text text-anchor="middle" x="2158" y="-123.4" font-family="Helvetica,sans-Serif" font-size="12.00" fill="white">IntegerType</text>
</a>
</g>
</g>
<!-- SignedIntegerType -->
<g id="node22" class="node">
<g id="a_node22"><a xlink:href="/v2.0/protocol/SignedIntegerType/hierarchy/" target="_top">
<path fill="#999999" stroke="#999999" d="M2092.73,-80C2092.73,-80 1997.27,-80 1997.27,-80 1993.61,-80 1989.94,-76.3333 1989.94,-72.6667 1989.94,-72.6667 1989.94,-65.3333 1989.94,-65.3333 1989.94,-61.6667 1993.61,-58 1997.27,-58 1997.27,-58 2092.73,-58 2092.73,-58 2096.39,-58 2100.06,-61.6667 2100.06,-65.3333 2100.06,-65.3333 2100.06,-72.6667 2100.06,-72.6667 2100.06,-76.3333 2096.39,-80 2092.73,-80"/>
<text text-anchor="middle" x="2045" y="-65.4" font-family="Helvetica,sans-Serif" font-size="12.00" fill="white">SignedIntegerType</text>
</a>
</g>
</g>
<!-- IntegerType&#45;&gt;SignedIntegerType -->
<g id="edge24" class="edge">
<path fill="none" stroke="#cccccc" d="M2137.8,-115.988C2120.15,-107.243 2094.31,-94.4381 2074.38,-84.5594"/>
<polygon fill="#cccccc" stroke="#cccccc" points="2075.92,-81.4182 2065.41,-80.1138 2072.81,-87.6903 2075.92,-81.4182"/>
</g>
<!-- UnsignedIntegerType -->
<g id="node33" class="node">
<g id="a_node33"><a xlink:href="/v2.0/protocol/UnsignedIntegerType/hierarchy/" target="_top">
<path fill="#999999" stroke="#999999" d="M2378.73,-80C2378.73,-80 2269.27,-80 2269.27,-80 2265.61,-80 2261.94,-76.3333 2261.94,-72.6667 2261.94,-72.6667 2261.94,-65.3333 2261.94,-65.3333 2261.94,-61.6667 2265.61,-58 2269.27,-58 2269.27,-58 2378.73,-58 2378.73,-58 2382.39,-58 2386.06,-61.6667 2386.06,-65.3333 2386.06,-65.3333 2386.06,-72.6667 2386.06,-72.6667 2386.06,-76.3333 2382.39,-80 2378.73,-80"/>
<text text-anchor="middle" x="2324" y="-65.4" font-family="Helvetica,sans-Serif" font-size="12.00" fill="white">UnsignedIntegerType</text>
</a>
</g>
</g>
<!-- IntegerType&#45;&gt;UnsignedIntegerType -->
<g id="edge25" class="edge">
<path fill="none" stroke="#cccccc" d="M2187.68,-115.988C2214.74,-106.859 2254.92,-93.3046 2284.65,-83.2743"/>
<polygon fill="#cccccc" stroke="#cccccc" points="2285.94,-86.5322 2294.3,-80.0192 2283.71,-79.8994 2285.94,-86.5322"/>
</g>
<!-- SignedIntegerType&#45;&gt;Int -->
<g id="edge26" class="edge">
<path fill="none" stroke="#cccccc" d="M2017.65,-57.9883C1992.84,-48.9101 1956.09,-35.4569 1928.73,-25.4439"/>
<polygon fill="#cccccc" stroke="#cccccc" points="1929.71,-22.0754 1919.12,-21.925 1927.3,-28.649 1929.71,-22.0754"/>
</g>
<!-- SignedIntegerType&#45;&gt;Int16 -->
<g id="edge27" class="edge">
<path fill="none" stroke="#cccccc" d="M2030.52,-57.9883C2018.5,-49.6784 2001.18,-37.7028 1987.22,-28.0554"/>
<polygon fill="#cccccc" stroke="#cccccc" points="1988.84,-24.9217 1978.63,-22.1138 1984.86,-30.6796 1988.84,-24.9217"/>
</g>
<!-- SignedIntegerType&#45;&gt;Int32 -->
<g id="edge28" class="edge">
<path fill="none" stroke="#cccccc" d="M2043.39,-57.9883C2042.24,-50.8311 2040.65,-40.9547 2039.24,-32.1885"/>
<polygon fill="#cccccc" stroke="#cccccc" points="2042.7,-31.6218 2037.66,-22.3039 2035.79,-32.7326 2042.7,-31.6218"/>
</g>
<!-- SignedIntegerType&#45;&gt;Int64 -->
<g id="edge29" class="edge">
<path fill="none" stroke="#cccccc" d="M2056.26,-57.9883C2065.29,-49.966 2078.16,-38.5272 2088.8,-29.065"/>
<polygon fill="#cccccc" stroke="#cccccc" points="2091.26,-31.5635 2096.41,-22.3039 2086.61,-26.3316 2091.26,-31.5635"/>
</g>
<!-- SignedIntegerType&#45;&gt;Int8 -->
<g id="edge30" class="edge">
<path fill="none" stroke="#cccccc" d="M2069.14,-57.9883C2090.6,-49.0849 2122.21,-35.9733 2146.19,-26.0259"/>
<polygon fill="#cccccc" stroke="#cccccc" points="2147.72,-29.1783 2155.62,-22.1138 2145.04,-22.7126 2147.72,-29.1783"/>
</g>
<!-- UInt -->
<g id="node27" class="node">
<g id="a_node27"><a xlink:href="/v2.0/type/UInt/hierarchy/" target="_top">
<polygon fill="#999999" stroke="#999999" points="2279,-22 2225,-22 2225,-0 2279,-0 2279,-22"/>
<text text-anchor="middle" x="2252" y="-7.4" font-family="Helvetica,sans-Serif" font-size="12.00" fill="white">UInt</text>
</a>
</g>
</g>
<!-- UInt16 -->
<g id="node28" class="node">
<g id="a_node28"><a xlink:href="/v2.0/type/UInt16/hierarchy/" target="_top">
<polygon fill="#999999" stroke="#999999" points="2351,-22 2297,-22 2297,-0 2351,-0 2351,-22"/>
<text text-anchor="middle" x="2324" y="-7.4" font-family="Helvetica,sans-Serif" font-size="12.00" fill="white">UInt16</text>
</a>
</g>
</g>
<!-- UInt32 -->
<g id="node29" class="node">
<g id="a_node29"><a xlink:href="/v2.0/type/UInt32/hierarchy/" target="_top">
<polygon fill="#999999" stroke="#999999" points="2423,-22 2369,-22 2369,-0 2423,-0 2423,-22"/>
<text text-anchor="middle" x="2396" y="-7.4" font-family="Helvetica,sans-Serif" font-size="12.00" fill="white">UInt32</text>
</a>
</g>
</g>
<!-- UInt64 -->
<g id="node30" class="node">
<g id="a_node30"><a xlink:href="/v2.0/type/UInt64/hierarchy/" target="_top">
<polygon fill="#999999" stroke="#999999" points="2495,-22 2441,-22 2441,-0 2495,-0 2495,-22"/>
<text text-anchor="middle" x="2468" y="-7.4" font-family="Helvetica,sans-Serif" font-size="12.00" fill="white">UInt64</text>
</a>
</g>
</g>
<!-- UInt8 -->
<g id="node31" class="node">
<g id="a_node31"><a xlink:href="/v2.0/type/UInt8/hierarchy/" target="_top">
<polygon fill="#999999" stroke="#999999" points="2567,-22 2513,-22 2513,-0 2567,-0 2567,-22"/>
<text text-anchor="middle" x="2540" y="-7.4" font-family="Helvetica,sans-Serif" font-size="12.00" fill="white">UInt8</text>
</a>
</g>
</g>
<!-- UnsignedIntegerType&#45;&gt;UInt -->
<g id="edge31" class="edge">
<path fill="none" stroke="#cccccc" d="M2311.13,-57.9883C2300.61,-49.8087 2285.53,-38.0773 2273.23,-28.5108"/>
<polygon fill="#cccccc" stroke="#cccccc" points="2275.29,-25.6806 2265.25,-22.3039 2270.99,-31.2061 2275.29,-25.6806"/>
</g>
<!-- UnsignedIntegerType&#45;&gt;UInt16 -->
<g id="edge32" class="edge">
<path fill="none" stroke="#cccccc" d="M2324,-57.9883C2324,-50.9098 2324,-41.1714 2324,-32.4779"/>
<polygon fill="#cccccc" stroke="#cccccc" points="2327.5,-32.3038 2324,-22.3039 2320.5,-32.3039 2327.5,-32.3038"/>
</g>
<!-- UnsignedIntegerType&#45;&gt;UInt32 -->
<g id="edge33" class="edge">
<path fill="none" stroke="#cccccc" d="M2336.87,-57.9883C2347.39,-49.8087 2362.47,-38.0773 2374.77,-28.5108"/>
<polygon fill="#cccccc" stroke="#cccccc" points="2377.01,-31.2061 2382.75,-22.3039 2372.71,-25.6806 2377.01,-31.2061"/>
</g>
<!-- UnsignedIntegerType&#45;&gt;UInt64 -->
<g id="edge34" class="edge">
<path fill="none" stroke="#cccccc" d="M2349.74,-57.9883C2372.84,-49.0057 2406.95,-35.7398 2432.61,-25.7614"/>
<polygon fill="#cccccc" stroke="#cccccc" points="2433.94,-29.0004 2441.99,-22.1138 2431.4,-22.4763 2433.94,-29.0004"/>
</g>
<!-- UnsignedIntegerType&#45;&gt;UInt8 -->
<g id="edge35" class="edge">
<path fill="none" stroke="#cccccc" d="M2364.45,-57.9168C2398.84,-49.2898 2449.76,-36.3793 2502.94,-22.2477"/>
<polygon fill="#cccccc" stroke="#cccccc" points="2504.13,-25.5525 2512.89,-19.5955 2502.33,-18.7885 2504.13,-25.5525"/>
</g>
<!-- _DisallowMixedSignArithmetic -->
<g id="node34" class="node">
<g id="a_node34"><a xlink:href="/v2.0/protocol/_DisallowMixedSignArithmetic/hierarchy/" target="_top">
<path fill="#999999" stroke="#999999" d="M2384.71,-138C2384.71,-138 2229.29,-138 2229.29,-138 2225.62,-138 2221.96,-134.333 2221.96,-130.667 2221.96,-130.667 2221.96,-123.333 2221.96,-123.333 2221.96,-119.667 2225.62,-116 2229.29,-116 2229.29,-116 2384.71,-116 2384.71,-116 2388.38,-116 2392.04,-119.667 2392.04,-123.333 2392.04,-123.333 2392.04,-130.667 2392.04,-130.667 2392.04,-134.333 2388.38,-138 2384.71,-138"/>
<text text-anchor="middle" x="2307" y="-123.4" font-family="Helvetica,sans-Serif" font-size="12.00" fill="white">_DisallowMixedSignArithmetic</text>
</a>
</g>
</g>
<!-- _DisallowMixedSignArithmetic&#45;&gt;UnsignedIntegerType -->
<g id="edge36" class="edge">
<path fill="none" stroke="#cccccc" d="M2310.04,-115.988C2312.24,-108.752 2315.28,-98.7373 2317.96,-89.9"/>
<polygon fill="#cccccc" stroke="#cccccc" points="2321.32,-90.8894 2320.87,-80.3039 2314.62,-88.856 2321.32,-90.8894"/>
</g>
<!-- _IntegerType&#45;&gt;IntegerType -->
<g id="edge21" class="edge">
<path fill="none" stroke="#cccccc" d="M2111.19,-173.988C2119.28,-166.045 2130.77,-154.751 2140.35,-145.344"/>
<polygon fill="#cccccc" stroke="#cccccc" points="2142.83,-147.809 2147.51,-138.304 2137.93,-142.815 2142.83,-147.809"/>
</g>
<!-- _IntegerType&#45;&gt;_DisallowMixedSignArithmetic -->
<g id="edge22" class="edge">
<path fill="none" stroke="#cccccc" d="M2137.83,-173.988C2172,-164.7 2223.01,-150.832 2260.08,-140.754"/>
<polygon fill="#cccccc" stroke="#cccccc" points="2261.41,-144.02 2270.14,-138.019 2259.58,-137.265 2261.41,-144.02"/>
</g>
<!-- _SignedIntegerType -->
<g id="node36" class="node">
<g id="a_node36"><a xlink:href="/v2.0/protocol/_SignedIntegerType/hierarchy/" target="_top">
<path fill="#999999" stroke="#999999" d="M2096.23,-138C2096.23,-138 1993.77,-138 1993.77,-138 1990.1,-138 1986.44,-134.333 1986.44,-130.667 1986.44,-130.667 1986.44,-123.333 1986.44,-123.333 1986.44,-119.667 1990.1,-116 1993.77,-116 1993.77,-116 2096.23,-116 2096.23,-116 2099.9,-116 2103.56,-119.667 2103.56,-123.333 2103.56,-123.333 2103.56,-130.667 2103.56,-130.667 2103.56,-134.333 2099.9,-138 2096.23,-138"/>
<text text-anchor="middle" x="2045" y="-123.4" font-family="Helvetica,sans-Serif" font-size="12.00" fill="white">_SignedIntegerType</text>
</a>
</g>
</g>
<!-- _IntegerType&#45;&gt;_SignedIntegerType -->
<g id="edge23" class="edge">
<path fill="none" stroke="#cccccc" d="M2090.99,-173.988C2083.12,-166.123 2071.97,-154.974 2062.62,-145.624"/>
<polygon fill="#cccccc" stroke="#cccccc" points="2064.85,-142.9 2055.3,-138.304 2059.9,-147.85 2064.85,-142.9"/>
</g>
<!-- _SignedIntegerType&#45;&gt;SignedIntegerType -->
<g id="edge37" class="edge">
<path fill="none" stroke="#cccccc" d="M2045,-115.988C2045,-108.91 2045,-99.1714 2045,-90.4779"/>
<polygon fill="#cccccc" stroke="#cccccc" points="2048.5,-90.3038 2045,-80.3039 2041.5,-90.3039 2048.5,-90.3038"/>
</g>
</g>
</svg>
