<?xml version="1.0" encoding="UTF-8" standalone="no"?>
<!DOCTYPE svg PUBLIC "-//W3C//DTD SVG 1.1//EN"
 "http://www.w3.org/Graphics/SVG/1.1/DTD/svg11.dtd">
<!-- Generated by graphviz version 2.36.0 (20140111.2315)
 -->
<!-- Title: String &#45; Type Hierarchy &#45; SwiftDoc.org Pages: 1 -->
<svg width="1276pt" height="311pt"
 viewBox="0.00 0.00 1276.40 311.20" xmlns="http://www.w3.org/2000/svg" xmlns:xlink="http://www.w3.org/1999/xlink">
<g id="graph0" class="graph" transform="scale(1 1) rotate(0) translate(7.2 253.6)">
<g transform="translate(0 -253.6)">
<g>
    <path fill="#666666" d="M13.846,10.832c-0.336-0.464-0.792-0.844-1.368-1.14s-1.224-0.444-1.944-0.444
        c-0.384,0-0.772,0.052-1.164,0.156C8.977,9.509,8.622,9.677,8.301,9.908c-0.32,0.232-0.58,0.52-0.78,0.864
        c-0.2,0.344-0.3,0.756-0.3,1.236c0,0.464,0.092,0.852,0.276,1.164c0.184,0.312,0.432,0.576,0.744,0.792s0.68,0.4,1.104,0.552
        c0.423,0.152,0.876,0.309,1.356,0.468c0.576,0.177,1.16,0.376,1.752,0.601c0.592,0.224,1.128,0.52,1.608,0.888
        s0.872,0.828,1.176,1.38s0.456,1.252,0.456,2.101c0,0.88-0.164,1.644-0.492,2.292c-0.328,0.647-0.765,1.184-1.308,1.607
        c-0.544,0.424-1.172,0.74-1.884,0.948s-1.444,0.312-2.196,0.312c-1.072,0-2.108-0.208-3.108-0.624
        c-1-0.415-1.828-1.031-2.484-1.848l1.848-1.56c0.4,0.592,0.936,1.071,1.608,1.439c0.672,0.368,1.399,0.552,2.184,0.552
        c0.4,0,0.8-0.056,1.2-0.168c0.4-0.111,0.764-0.288,1.092-0.527c0.328-0.24,0.596-0.54,0.804-0.9
        c0.208-0.36,0.312-0.796,0.312-1.308s-0.108-0.94-0.324-1.284c-0.216-0.344-0.508-0.636-0.876-0.876s-0.796-0.444-1.284-0.612
        c-0.488-0.168-1.004-0.34-1.548-0.516c-0.544-0.16-1.08-0.356-1.608-0.588c-0.528-0.232-1-0.528-1.416-0.889
        c-0.416-0.359-0.752-0.804-1.008-1.332c-0.256-0.527-0.384-1.184-0.384-1.968c0-0.848,0.172-1.576,0.516-2.184
        c0.344-0.608,0.792-1.112,1.344-1.512c0.552-0.4,1.176-0.692,1.872-0.876c0.696-0.184,1.396-0.276,2.1-0.276
        c0.992,0,1.92,0.176,2.784,0.528c0.864,0.352,1.56,0.824,2.088,1.416L13.846,10.832z"/>
    <path fill="#666666" d="M18.813,13.304l2.568,8.688h0.048l2.712-8.688h2.376l2.76,8.688h0.048l2.568-8.688h2.376L30.501,24.68
        h-2.352l-2.808-8.544h-0.048l-2.784,8.544h-2.352l-3.792-11.376H18.813z"/>
    <path fill="#666666" d="M38.685,9.2c0,0.416-0.147,0.76-0.44,1.032c-0.294,0.272-0.647,0.408-1.06,0.408s-0.762-0.14-1.047-0.42
        c-0.286-0.28-0.429-0.62-0.429-1.02c0-0.416,0.143-0.764,0.429-1.044c0.286-0.28,0.635-0.42,1.047-0.42s0.766,0.14,1.06,0.42
        C38.538,8.437,38.685,8.784,38.685,9.2z M38.325,24.68h-2.256V13.304h2.256V24.68z"/>
    <path fill="#666666" d="M47.613,15.152h-2.64v9.528h-2.256v-9.528h-2.256v-1.848h2.256v-2.376c0-0.672,0.076-1.292,0.228-1.86
        c0.152-0.568,0.4-1.06,0.744-1.476c0.344-0.416,0.784-0.744,1.32-0.984c0.536-0.24,1.188-0.36,1.956-0.36
        c0.544,0,1.016,0.056,1.416,0.168l-0.264,1.944c-0.176-0.048-0.352-0.088-0.528-0.12c-0.176-0.032-0.376-0.048-0.6-0.048
        c-0.432,0-0.78,0.076-1.044,0.228c-0.264,0.152-0.468,0.356-0.612,0.612s-0.24,0.548-0.288,0.876
        c-0.048,0.328-0.072,0.668-0.072,1.02v2.376h2.64V15.152z"/>
    <path fill="#666666" d="M54.909,15.152h-3.024v5.91c0,0.687,0.128,1.177,0.384,1.472c0.256,0.295,0.664,0.442,1.224,0.442
        c0.208,0,0.432-0.021,0.672-0.065c0.24-0.044,0.456-0.11,0.648-0.198l0.072,1.848c-0.272,0.096-0.572,0.172-0.9,0.229
        c-0.328,0.056-0.668,0.084-1.02,0.084c-1.072,0-1.892-0.296-2.46-0.889c-0.568-0.592-0.852-1.479-0.852-2.664v-6.168h-2.184
        v-1.848h2.184V10.04h2.232v3.264h3.024V15.152z"/>
    <path fill="#666666" d="M57.356,7.688h5.832c1.088,0,2.176,0.16,3.264,0.48c1.088,0.32,2.072,0.824,2.952,1.512
        s1.592,1.568,2.136,2.64c0.544,1.072,0.816,2.36,0.816,3.864c0,1.456-0.272,2.716-0.816,3.78s-1.256,1.943-2.136,2.64
        s-1.864,1.216-2.952,1.561c-1.088,0.344-2.176,0.516-3.264,0.516h-5.832V7.688z M59.732,22.593h2.976
        c1.024,0,1.972-0.145,2.844-0.432c0.872-0.288,1.624-0.704,2.256-1.248c0.632-0.544,1.124-1.216,1.476-2.017
        c0.352-0.8,0.528-1.704,0.528-2.712c0-1.056-0.176-1.983-0.528-2.784c-0.353-0.8-0.844-1.468-1.476-2.004
        c-0.632-0.536-1.384-0.944-2.256-1.224s-1.82-0.42-2.844-0.42h-2.976V22.593z"/>
    <path fill="#666666" d="M86.06,18.969c0,0.88-0.156,1.688-0.468,2.424c-0.312,0.736-0.744,1.372-1.296,1.908
        c-0.552,0.536-1.204,0.952-1.956,1.248c-0.752,0.296-1.56,0.443-2.424,0.443c-0.864,0-1.672-0.147-2.424-0.443
        c-0.752-0.296-1.4-0.712-1.944-1.248c-0.544-0.536-0.972-1.172-1.284-1.908c-0.312-0.735-0.468-1.544-0.468-2.424
        s0.156-1.684,0.468-2.412c0.312-0.728,0.74-1.356,1.284-1.884c0.543-0.528,1.191-0.939,1.944-1.236
        c0.752-0.296,1.56-0.444,2.424-0.444c0.864,0,1.672,0.148,2.424,0.444c0.752,0.297,1.404,0.708,1.956,1.236
        c0.552,0.527,0.984,1.156,1.296,1.884C85.904,17.285,86.06,18.089,86.06,18.969z M83.708,18.98c0-0.542-0.084-1.061-0.252-1.556
        c-0.169-0.494-0.414-0.929-0.734-1.304s-0.718-0.674-1.192-0.897s-1.015-0.335-1.625-0.335c-0.61,0-1.152,0.111-1.625,0.335
        c-0.474,0.224-0.871,0.522-1.191,0.897c-0.321,0.375-0.566,0.81-0.734,1.304C76.184,17.92,76.1,18.438,76.1,18.98
        c0,0.543,0.084,1.062,0.253,1.556c0.168,0.495,0.413,0.934,0.734,1.316c0.321,0.383,0.718,0.686,1.191,0.909
        c0.473,0.224,1.015,0.335,1.625,0.335c0.61,0,1.151-0.111,1.625-0.335s0.871-0.526,1.192-0.909s0.565-0.821,0.734-1.316
        C83.624,20.042,83.708,19.523,83.708,18.98z"/>
    <path fill="#666666" d="M96.428,16.184c-0.24-0.368-0.6-0.676-1.08-0.924s-0.992-0.372-1.536-0.372
        c-0.592,0-1.116,0.112-1.572,0.336c-0.456,0.225-0.844,0.524-1.164,0.9c-0.32,0.376-0.564,0.812-0.732,1.308
        s-0.252,1.017-0.252,1.56c0,0.545,0.084,1.064,0.252,1.561s0.412,0.933,0.732,1.308c0.32,0.376,0.712,0.677,1.176,0.9
        c0.464,0.225,0.992,0.336,1.584,0.336c0.576,0,1.1-0.111,1.572-0.336c0.472-0.224,0.86-0.528,1.164-0.912l1.512,1.368
        c-0.48,0.561-1.08,0.996-1.8,1.308c-0.72,0.312-1.536,0.468-2.448,0.468c-0.88,0-1.692-0.144-2.436-0.432
        c-0.744-0.288-1.388-0.691-1.932-1.212c-0.544-0.52-0.972-1.147-1.284-1.884s-0.468-1.561-0.468-2.473
        c0-0.896,0.152-1.711,0.456-2.447c0.304-0.736,0.728-1.368,1.272-1.896c0.543-0.527,1.188-0.936,1.932-1.224
        c0.744-0.288,1.548-0.433,2.412-0.433c0.8,0,1.596,0.16,2.388,0.48s1.419,0.784,1.884,1.392L96.428,16.184z"/>
    <path fill="#666666" d="M103.1,23.24c0,0.417-0.152,0.784-0.456,1.104c-0.304,0.32-0.688,0.479-1.152,0.479
        c-0.448,0-0.828-0.155-1.14-0.468c-0.312-0.312-0.468-0.676-0.468-1.092c0-0.432,0.152-0.804,0.456-1.116
        c0.304-0.312,0.688-0.468,1.152-0.468c0.464,0,0.848,0.152,1.152,0.456C102.947,22.44,103.1,22.808,103.1,23.24z"/>
    <path fill="#666666" d="M116.635,18.969c0,0.88-0.156,1.688-0.468,2.424c-0.312,0.736-0.744,1.372-1.296,1.908
        c-0.552,0.536-1.204,0.952-1.956,1.248c-0.752,0.296-1.56,0.443-2.424,0.443c-0.864,0-1.672-0.147-2.424-0.443
        c-0.752-0.296-1.4-0.712-1.944-1.248c-0.544-0.536-0.972-1.172-1.284-1.908c-0.312-0.735-0.468-1.544-0.468-2.424
        s0.156-1.684,0.468-2.412c0.312-0.728,0.74-1.356,1.284-1.884c0.543-0.528,1.191-0.939,1.944-1.236
        c0.752-0.296,1.56-0.444,2.424-0.444c0.864,0,1.672,0.148,2.424,0.444c0.752,0.297,1.404,0.708,1.956,1.236
        c0.552,0.527,0.984,1.156,1.296,1.884C116.479,17.285,116.635,18.089,116.635,18.969z M114.283,18.98
        c0-0.542-0.084-1.061-0.252-1.556c-0.169-0.494-0.414-0.929-0.734-1.304s-0.718-0.674-1.192-0.897s-1.015-0.335-1.625-0.335
        c-0.61,0-1.152,0.111-1.625,0.335c-0.474,0.224-0.871,0.522-1.191,0.897c-0.321,0.375-0.566,0.81-0.734,1.304
        c-0.169,0.495-0.253,1.014-0.253,1.556c0,0.543,0.084,1.062,0.253,1.556c0.168,0.495,0.413,0.934,0.734,1.316
        c0.321,0.383,0.718,0.686,1.191,0.909c0.473,0.224,1.015,0.335,1.625,0.335c0.61,0,1.151-0.111,1.625-0.335
        s0.871-0.526,1.192-0.909s0.565-0.821,0.734-1.316C114.199,20.042,114.283,19.523,114.283,18.98z"/>
    <path fill="#666666" d="M119.251,14.577c-0.016-0.48-0.04-0.904-0.072-1.272h2.136c0.032,0.288,0.056,0.62,0.072,0.996
        c0.016,0.376,0.024,0.684,0.024,0.924h0.072c0.32-0.672,0.788-1.212,1.404-1.62c0.616-0.408,1.308-0.612,2.076-0.612
        c0.352,0,0.648,0.033,0.888,0.097l-0.096,2.088c-0.32-0.08-0.664-0.12-1.032-0.12c-0.544,0-1.016,0.101-1.416,0.3
        c-0.4,0.2-0.732,0.468-0.996,0.805c-0.264,0.336-0.46,0.724-0.588,1.163c-0.128,0.44-0.192,0.9-0.192,1.381v5.976h-2.256v-8.928
        C119.275,15.449,119.267,15.056,119.251,14.577z"/>
    <path fill="#666666" d="M128.419,26.625c0.496,0.56,1.116,1.008,1.86,1.344c0.744,0.336,1.508,0.504,2.292,0.504
        c0.752,0,1.384-0.108,1.896-0.324s0.924-0.512,1.236-0.888s0.536-0.82,0.672-1.332c0.136-0.513,0.204-1.064,0.204-1.656v-1.464
        h-0.048c-0.416,0.641-0.984,1.128-1.704,1.464c-0.72,0.336-1.488,0.504-2.304,0.504c-0.864,0-1.652-0.151-2.364-0.456
        c-0.712-0.304-1.316-0.72-1.812-1.248c-0.496-0.527-0.88-1.147-1.152-1.859s-0.408-1.477-0.408-2.292
        c0-0.816,0.136-1.584,0.408-2.305c0.272-0.72,0.656-1.348,1.152-1.884c0.496-0.535,1.096-0.96,1.8-1.271
        c0.704-0.312,1.488-0.469,2.352-0.469c0.816,0,1.596,0.177,2.34,0.528c0.744,0.353,1.332,0.888,1.764,1.608h0.048v-1.824h2.184
        v10.8c0,0.832-0.104,1.628-0.312,2.388c-0.208,0.76-0.56,1.433-1.056,2.017s-1.144,1.052-1.944,1.404
        c-0.8,0.352-1.792,0.527-2.976,0.527c-0.992,0-1.988-0.18-2.988-0.54c-1-0.359-1.86-0.868-2.58-1.523L128.419,26.625z
         M129.091,18.873c0,0.527,0.084,1.031,0.253,1.512c0.168,0.479,0.417,0.904,0.746,1.271c0.329,0.369,0.726,0.664,1.192,0.889
        c0.465,0.224,0.995,0.336,1.589,0.336c0.577,0,1.107-0.104,1.589-0.312c0.481-0.207,0.891-0.491,1.228-0.852
        s0.598-0.784,0.782-1.272c0.185-0.487,0.277-1.012,0.277-1.571c0-0.544-0.093-1.057-0.277-1.536
        c-0.185-0.48-0.449-0.904-0.794-1.272c-0.345-0.367-0.755-0.66-1.228-0.876c-0.474-0.216-1-0.324-1.577-0.324
        c-0.594,0-1.124,0.108-1.589,0.324c-0.466,0.216-0.863,0.504-1.192,0.864s-0.578,0.784-0.746,1.271
        C129.175,17.812,129.091,18.329,129.091,18.873z"/>
</g>
<g><a xlink:href="/" pointer-events="all" target="_top"><polygon fill="none" points="0,0 145,0 145,35 0,35 0,0"/></a></g>

</g>


<!-- Comparable -->
<g id="node1" class="node">
<g id="a_node1"><a xlink:href="/v2.1/protocol/Comparable/hierarchy/" target="_top">
<path fill="#999999" stroke="#999999" d="M264.191,-80C264.191,-80 203.809,-80 203.809,-80 200.142,-80 196.475,-76.3333 196.475,-72.6667 196.475,-72.6667 196.475,-65.3333 196.475,-65.3333 196.475,-61.6667 200.142,-58 203.809,-58 203.809,-58 264.191,-58 264.191,-58 267.858,-58 271.525,-61.6667 271.525,-65.3333 271.525,-65.3333 271.525,-72.6667 271.525,-72.6667 271.525,-76.3333 267.858,-80 264.191,-80"/>
<text text-anchor="middle" x="234" y="-65.4" font-family="Helvetica,sans-Serif" font-size="12.00" fill="white">Comparable</text>
</a>
</g>
</g>
<!-- String -->
<g id="node9" class="node">
<g id="a_node9"><a xlink:href="/v2.1/type/String/" target="_top">
<polygon fill="#ee543d" stroke="#ee543d" points="614,-22 560,-22 560,-0 614,-0 614,-22"/>
<text text-anchor="middle" x="587" y="-7.4" font-family="Helvetica,sans-Serif" font-size="12.00" fill="white">String</text>
</a>
</g>
</g>
<!-- Comparable&#45;&gt;String -->
<g id="edge6" class="edge">
<path fill="none" stroke="#cccccc" d="M271.415,-59.8264C274.652,-59.1839 277.881,-58.5657 281,-58 377.539,-40.4903 492.074,-24.5519 549.794,-16.8545"/>
<polygon fill="#cccccc" stroke="#cccccc" points="550.441,-20.2995 559.893,-15.5146 549.52,-13.3603 550.441,-20.2995"/>
</g>
<!-- CustomDebugStringConvertible -->
<g id="node2" class="node">
<g id="a_node2"><a xlink:href="/v2.1/protocol/CustomDebugStringConvertible/hierarchy/" target="_top">
<path fill="#999999" stroke="#999999" d="M170.73,-80C170.73,-80 7.2704,-80 7.2704,-80 3.60373,-80 -0.0629365,-76.3333 -0.0629365,-72.6667 -0.0629365,-72.6667 -0.0629365,-65.3333 -0.0629365,-65.3333 -0.0629365,-61.6667 3.60373,-58 7.2704,-58 7.2704,-58 170.73,-58 170.73,-58 174.396,-58 178.063,-61.6667 178.063,-65.3333 178.063,-65.3333 178.063,-72.6667 178.063,-72.6667 178.063,-76.3333 174.396,-80 170.73,-80"/>
<text text-anchor="middle" x="89" y="-65.4" font-family="Helvetica,sans-Serif" font-size="12.00" fill="white">CustomDebugStringConvertible</text>
</a>
</g>
</g>
<!-- CustomDebugStringConvertible&#45;&gt;String -->
<g id="edge5" class="edge">
<path fill="none" stroke="#cccccc" d="M178.032,-57.9883C288.253,-45.594 470.995,-25.0447 549.392,-16.2291"/>
<polygon fill="#cccccc" stroke="#cccccc" points="550.196,-19.6607 559.743,-15.0651 549.414,-12.7045 550.196,-19.6607"/>
</g>
<!-- Equatable -->
<g id="node3" class="node">
<g id="a_node3"><a xlink:href="/v2.1/protocol/Equatable/hierarchy/" target="_top">
<path fill="#999999" stroke="#999999" d="M301.702,-138C301.702,-138 252.298,-138 252.298,-138 248.632,-138 244.965,-134.333 244.965,-130.667 244.965,-130.667 244.965,-123.333 244.965,-123.333 244.965,-119.667 248.632,-116 252.298,-116 252.298,-116 301.702,-116 301.702,-116 305.368,-116 309.035,-119.667 309.035,-123.333 309.035,-123.333 309.035,-130.667 309.035,-130.667 309.035,-134.333 305.368,-138 301.702,-138"/>
<text text-anchor="middle" x="277" y="-123.4" font-family="Helvetica,sans-Serif" font-size="12.00" fill="white">Equatable</text>
</a>
</g>
</g>
<!-- Equatable&#45;&gt;Comparable -->
<g id="edge13" class="edge">
<path fill="none" stroke="#cccccc" d="M269.312,-115.988C263.454,-108.359 255.224,-97.6405 248.182,-88.4702"/>
<polygon fill="#cccccc" stroke="#cccccc" points="250.778,-86.1038 241.912,-80.3039 245.226,-90.367 250.778,-86.1038"/>
</g>
<!-- Hashable -->
<g id="node5" class="node">
<g id="a_node5"><a xlink:href="/v2.1/protocol/Hashable/hierarchy/" target="_top">
<path fill="#999999" stroke="#999999" d="M342.694,-80C342.694,-80 297.306,-80 297.306,-80 293.639,-80 289.973,-76.3333 289.973,-72.6667 289.973,-72.6667 289.973,-65.3333 289.973,-65.3333 289.973,-61.6667 293.639,-58 297.306,-58 297.306,-58 342.694,-58 342.694,-58 346.361,-58 350.027,-61.6667 350.027,-65.3333 350.027,-65.3333 350.027,-72.6667 350.027,-72.6667 350.027,-76.3333 346.361,-80 342.694,-80"/>
<text text-anchor="middle" x="320" y="-65.4" font-family="Helvetica,sans-Serif" font-size="12.00" fill="white">Hashable</text>
</a>
</g>
</g>
<!-- Equatable&#45;&gt;Hashable -->
<g id="edge14" class="edge">
<path fill="none" stroke="#cccccc" d="M284.688,-115.988C290.546,-108.359 298.776,-97.6405 305.818,-88.4702"/>
<polygon fill="#cccccc" stroke="#cccccc" points="308.774,-90.367 312.088,-80.3039 303.222,-86.1038 308.774,-90.367"/>
</g>
<!-- ExtendedGraphemeClusterLiteralConvertible -->
<g id="node4" class="node">
<g id="a_node4"><a xlink:href="/v2.1/protocol/ExtendedGraphemeClusterLiteralConvertible/hierarchy/" target="_top">
<path fill="#999999" stroke="#999999" d="M1065.76,-138C1065.76,-138 832.238,-138 832.238,-138 828.572,-138 824.905,-134.333 824.905,-130.667 824.905,-130.667 824.905,-123.333 824.905,-123.333 824.905,-119.667 828.572,-116 832.238,-116 832.238,-116 1065.76,-116 1065.76,-116 1069.43,-116 1073.09,-119.667 1073.09,-123.333 1073.09,-123.333 1073.09,-130.667 1073.09,-130.667 1073.09,-134.333 1069.43,-138 1065.76,-138"/>
<text text-anchor="middle" x="949" y="-123.4" font-family="Helvetica,sans-Serif" font-size="12.00" fill="white">ExtendedGraphemeClusterLiteralConvertible</text>
</a>
</g>
</g>
<!-- StringLiteralConvertible -->
<g id="node11" class="node">
<g id="a_node11"><a xlink:href="/v2.1/protocol/StringLiteralConvertible/hierarchy/" target="_top">
<path fill="#999999" stroke="#999999" d="M1008.71,-80C1008.71,-80 889.286,-80 889.286,-80 885.62,-80 881.953,-76.3333 881.953,-72.6667 881.953,-72.6667 881.953,-65.3333 881.953,-65.3333 881.953,-61.6667 885.62,-58 889.286,-58 889.286,-58 1008.71,-58 1008.71,-58 1012.38,-58 1016.05,-61.6667 1016.05,-65.3333 1016.05,-65.3333 1016.05,-72.6667 1016.05,-72.6667 1016.05,-76.3333 1012.38,-80 1008.71,-80"/>
<text text-anchor="middle" x="949" y="-65.4" font-family="Helvetica,sans-Serif" font-size="12.00" fill="white">StringLiteralConvertible</text>
</a>
</g>
</g>
<!-- ExtendedGraphemeClusterLiteralConvertible&#45;&gt;StringLiteralConvertible -->
<g id="edge11" class="edge">
<path fill="none" stroke="#cccccc" d="M949,-115.988C949,-108.91 949,-99.1714 949,-90.4779"/>
<polygon fill="#cccccc" stroke="#cccccc" points="952.5,-90.3038 949,-80.3039 945.5,-90.3039 952.5,-90.3038"/>
</g>
<!-- Hashable&#45;&gt;String -->
<g id="edge7" class="edge">
<path fill="none" stroke="#cccccc" d="M350.196,-60.0925C353.166,-59.3644 356.138,-58.6551 359,-58 426.011,-42.6599 504.724,-27.3799 549.942,-18.8637"/>
<polygon fill="#cccccc" stroke="#cccccc" points="550.694,-22.2837 559.878,-16.9999 549.404,-15.4037 550.694,-22.2837"/>
</g>
<!-- MirrorPathType -->
<g id="node6" class="node">
<g id="a_node6"><a xlink:href="/v2.1/protocol/MirrorPathType/hierarchy/" target="_top">
<path fill="#999999" stroke="#999999" d="M452.69,-80C452.69,-80 375.31,-80 375.31,-80 371.643,-80 367.977,-76.3333 367.977,-72.6667 367.977,-72.6667 367.977,-65.3333 367.977,-65.3333 367.977,-61.6667 371.643,-58 375.31,-58 375.31,-58 452.69,-58 452.69,-58 456.357,-58 460.023,-61.6667 460.023,-65.3333 460.023,-65.3333 460.023,-72.6667 460.023,-72.6667 460.023,-76.3333 456.357,-80 452.69,-80"/>
<text text-anchor="middle" x="414" y="-65.4" font-family="Helvetica,sans-Serif" font-size="12.00" fill="white">MirrorPathType</text>
</a>
</g>
</g>
<!-- MirrorPathType&#45;&gt;String -->
<g id="edge9" class="edge">
<path fill="none" stroke="#cccccc" d="M444.929,-57.9883C474.396,-48.45 518.782,-34.082 550.086,-23.949"/>
<polygon fill="#cccccc" stroke="#cccccc" points="551.319,-27.2289 559.755,-20.8193 549.163,-20.5692 551.319,-27.2289"/>
</g>
<!-- OutputStreamType -->
<g id="node7" class="node">
<g id="a_node7"><a xlink:href="/v2.1/protocol/OutputStreamType/hierarchy/" target="_top">
<path fill="#999999" stroke="#999999" d="M580.709,-80C580.709,-80 485.291,-80 485.291,-80 481.624,-80 477.957,-76.3333 477.957,-72.6667 477.957,-72.6667 477.957,-65.3333 477.957,-65.3333 477.957,-61.6667 481.624,-58 485.291,-58 485.291,-58 580.709,-58 580.709,-58 584.376,-58 588.043,-61.6667 588.043,-65.3333 588.043,-65.3333 588.043,-72.6667 588.043,-72.6667 588.043,-76.3333 584.376,-80 580.709,-80"/>
<text text-anchor="middle" x="533" y="-65.4" font-family="Helvetica,sans-Serif" font-size="12.00" fill="white">OutputStreamType</text>
</a>
</g>
</g>
<!-- OutputStreamType&#45;&gt;String -->
<g id="edge2" class="edge">
<path fill="none" stroke="#cccccc" d="M542.654,-57.9883C550.238,-50.1233 560.989,-38.9745 570.006,-29.6239"/>
<polygon fill="#cccccc" stroke="#cccccc" points="572.642,-31.9318 577.064,-22.3039 567.603,-27.0729 572.642,-31.9318"/>
</g>
<!-- Streamable -->
<g id="node8" class="node">
<g id="a_node8"><a xlink:href="/v2.1/protocol/Streamable/hierarchy/" target="_top">
<path fill="#999999" stroke="#999999" d="M670.19,-80C670.19,-80 613.81,-80 613.81,-80 610.144,-80 606.477,-76.3333 606.477,-72.6667 606.477,-72.6667 606.477,-65.3333 606.477,-65.3333 606.477,-61.6667 610.144,-58 613.81,-58 613.81,-58 670.19,-58 670.19,-58 673.856,-58 677.523,-61.6667 677.523,-65.3333 677.523,-65.3333 677.523,-72.6667 677.523,-72.6667 677.523,-76.3333 673.856,-80 670.19,-80"/>
<text text-anchor="middle" x="642" y="-65.4" font-family="Helvetica,sans-Serif" font-size="12.00" fill="white">Streamable</text>
</a>
</g>
</g>
<!-- Streamable&#45;&gt;String -->
<g id="edge3" class="edge">
<path fill="none" stroke="#cccccc" d="M632.167,-57.9883C624.443,-50.1233 613.493,-38.9745 604.309,-29.6239"/>
<polygon fill="#cccccc" stroke="#cccccc" points="606.624,-26.9859 597.12,-22.3039 601.63,-31.8909 606.624,-26.9859"/>
</g>
<!-- StringInterpolationConvertible -->
<g id="node10" class="node">
<g id="a_node10"><a xlink:href="/v2.1/protocol/StringInterpolationConvertible/hierarchy/" target="_top">
<path fill="#999999" stroke="#999999" d="M856.736,-80C856.736,-80 703.264,-80 703.264,-80 699.598,-80 695.931,-76.3333 695.931,-72.6667 695.931,-72.6667 695.931,-65.3333 695.931,-65.3333 695.931,-61.6667 699.598,-58 703.264,-58 703.264,-58 856.736,-58 856.736,-58 860.402,-58 864.069,-61.6667 864.069,-65.3333 864.069,-65.3333 864.069,-72.6667 864.069,-72.6667 864.069,-76.3333 860.402,-80 856.736,-80"/>
<text text-anchor="middle" x="780" y="-65.4" font-family="Helvetica,sans-Serif" font-size="12.00" fill="white">StringInterpolationConvertible</text>
</a>
</g>
</g>
<!-- StringInterpolationConvertible&#45;&gt;String -->
<g id="edge8" class="edge">
<path fill="none" stroke="#cccccc" d="M745.495,-57.9883C711.252,-48.0525 658.947,-32.8759 623.893,-22.7047"/>
<polygon fill="#cccccc" stroke="#cccccc" points="624.629,-19.2741 614.05,-19.8488 622.679,-25.9968 624.629,-19.2741"/>
</g>
<!-- StringLiteralConvertible&#45;&gt;String -->
<g id="edge4" class="edge">
<path fill="none" stroke="#cccccc" d="M884.282,-57.9883C808.537,-46.2709 685.677,-27.265 624.333,-17.7752"/>
<polygon fill="#cccccc" stroke="#cccccc" points="624.742,-14.297 614.325,-16.227 623.672,-21.2147 624.742,-14.297"/>
</g>
<!-- UnicodeScalarLiteralConvertible -->
<g id="node12" class="node">
<g id="a_node12"><a xlink:href="/v2.1/protocol/UnicodeScalarLiteralConvertible/hierarchy/" target="_top">
<path fill="#999999" stroke="#999999" d="M1032.23,-196C1032.23,-196 865.767,-196 865.767,-196 862.101,-196 858.434,-192.333 858.434,-188.667 858.434,-188.667 858.434,-181.333 858.434,-181.333 858.434,-177.667 862.101,-174 865.767,-174 865.767,-174 1032.23,-174 1032.23,-174 1035.9,-174 1039.57,-177.667 1039.57,-181.333 1039.57,-181.333 1039.57,-188.667 1039.57,-188.667 1039.57,-192.333 1035.9,-196 1032.23,-196"/>
<text text-anchor="middle" x="949" y="-181.4" font-family="Helvetica,sans-Serif" font-size="12.00" fill="white">UnicodeScalarLiteralConvertible</text>
</a>
</g>
</g>
<!-- UnicodeScalarLiteralConvertible&#45;&gt;ExtendedGraphemeClusterLiteralConvertible -->
<g id="edge12" class="edge">
<path fill="none" stroke="#cccccc" d="M949,-173.988C949,-166.91 949,-157.171 949,-148.478"/>
<polygon fill="#cccccc" stroke="#cccccc" points="952.5,-148.304 949,-138.304 945.5,-148.304 952.5,-148.304"/>
</g>
<!-- _ObjectiveCBridgeable -->
<g id="node13" class="node">
<g id="a_node13"><a xlink:href="/v2.1/protocol/_ObjectiveCBridgeable/hierarchy/" target="_top">
<path fill="#999999" stroke="#999999" d="M1159.72,-80C1159.72,-80 1042.28,-80 1042.28,-80 1038.61,-80 1034.95,-76.3333 1034.95,-72.6667 1034.95,-72.6667 1034.95,-65.3333 1034.95,-65.3333 1034.95,-61.6667 1038.61,-58 1042.28,-58 1042.28,-58 1159.72,-58 1159.72,-58 1163.39,-58 1167.05,-61.6667 1167.05,-65.3333 1167.05,-65.3333 1167.05,-72.6667 1167.05,-72.6667 1167.05,-76.3333 1163.39,-80 1159.72,-80"/>
<text text-anchor="middle" x="1101" y="-65.4" font-family="Helvetica,sans-Serif" font-size="12.00" fill="white">_ObjectiveCBridgeable</text>
</a>
</g>
</g>
<!-- _ObjectiveCBridgeable&#45;&gt;String -->
<g id="edge10" class="edge">
<path fill="none" stroke="#cccccc" d="M1034.69,-59.1716C1031.42,-58.7679 1028.17,-58.3752 1025,-58 876.697,-40.4587 699.736,-22.9076 624.17,-15.5722"/>
<polygon fill="#cccccc" stroke="#cccccc" points="624.484,-12.0864 614.193,-14.606 623.809,-19.0538 624.484,-12.0864"/>
</g>
<!-- _Reflectable -->
<g id="node14" class="node">
<g id="a_node14"><a xlink:href="/v2.1/protocol/_Reflectable/hierarchy/" target="_top">
<path fill="#999999" stroke="#999999" d="M1254.7,-80C1254.7,-80 1193.3,-80 1193.3,-80 1189.63,-80 1185.97,-76.3333 1185.97,-72.6667 1185.97,-72.6667 1185.97,-65.3333 1185.97,-65.3333 1185.97,-61.6667 1189.63,-58 1193.3,-58 1193.3,-58 1254.7,-58 1254.7,-58 1258.37,-58 1262.03,-61.6667 1262.03,-65.3333 1262.03,-65.3333 1262.03,-72.6667 1262.03,-72.6667 1262.03,-76.3333 1258.37,-80 1254.7,-80"/>
<text text-anchor="middle" x="1224" y="-65.4" font-family="Helvetica,sans-Serif" font-size="12.00" fill="white">_Reflectable</text>
</a>
</g>
</g>
<!-- _Reflectable&#45;&gt;String -->
<g id="edge1" class="edge">
<path fill="none" stroke="#cccccc" d="M1185.83,-59.5892C1182.51,-58.9982 1179.2,-58.4567 1176,-58 968.722,-28.4373 717.5,-16.7723 624.211,-13.2591"/>
<polygon fill="#cccccc" stroke="#cccccc" points="624.262,-9.75868 614.14,-12.8886 624.005,-16.754 624.262,-9.75868"/>
</g>
</g>
</svg>
