<?xml version="1.0" encoding="UTF-8" standalone="no"?>
<!DOCTYPE svg PUBLIC "-//W3C//DTD SVG 1.1//EN"
 "http://www.w3.org/Graphics/SVG/1.1/DTD/svg11.dtd">
<!-- Generated by graphviz version 2.36.0 (20140111.2315)
 -->
<!-- Title: MapSequenceView&lt;Base : SequenceType, T&gt; &#45; Type Hierarchy &#45; SwiftDoc.org Pages: 1 -->
<svg width="272pt" height="195pt"
 viewBox="0.00 0.00 272.40 195.20" xmlns="http://www.w3.org/2000/svg" xmlns:xlink="http://www.w3.org/1999/xlink">
<g id="graph0" class="graph" transform="scale(1 1) rotate(0) translate(7.2 137.6)">
<title>MapSequenceView&lt;Base : SequenceType, T&gt; &#45; Type Hierarchy &#45; SwiftDoc.org</title>
<polygon fill="white" stroke="none" points="-7.2,57.6 -7.2,-137.6 265.2,-137.6 265.2,57.6 -7.2,57.6"/>
<!-- MapSequenceView&lt;Base : SequenceType, T&gt; -->
<g id="node1" class="node"><title>MapSequenceView&lt;Base : SequenceType, T&gt;</title>
<g id="a_node1"><a xlink:href="/type/MapSequenceView/" xlink:title="MapSequenceView&lt;Base : SequenceType, T&gt;">
<polygon fill="#ee543d" stroke="#ee543d" points="258.311,-22 -0.310713,-22 -0.310713,-0 258.311,-0 258.311,-22"/>
<text text-anchor="middle" x="129" y="-7.4" font-family="Helvetica,sans-Serif" font-size="12.00" fill="white">MapSequenceView&lt;Base : SequenceType, T&gt;</text>
</a>
</g>
</g>
<!-- SequenceType -->
<g id="node2" class="node"><title>SequenceType</title>
<g id="a_node2"><a xlink:href="/protocol/SequenceType/" xlink:title="SequenceType">
<path fill="#999999" stroke="#999999" d="M166.718,-80C166.718,-80 91.2821,-80 91.2821,-80 87.6154,-80 83.9487,-76.3333 83.9487,-72.6667 83.9487,-72.6667 83.9487,-65.3333 83.9487,-65.3333 83.9487,-61.6667 87.6154,-58 91.2821,-58 91.2821,-58 166.718,-58 166.718,-58 170.385,-58 174.051,-61.6667 174.051,-65.3333 174.051,-65.3333 174.051,-72.6667 174.051,-72.6667 174.051,-76.3333 170.385,-80 166.718,-80"/>
<text text-anchor="middle" x="129" y="-65.4" font-family="Helvetica,sans-Serif" font-size="12.00" fill="white">SequenceType</text>
</a>
</g>
</g>
<!-- SequenceType&#45;&gt;MapSequenceView&lt;Base : SequenceType, T&gt; -->
<g id="edge1" class="edge"><title>SequenceType&#45;&gt;MapSequenceView&lt;Base : SequenceType, T&gt;</title>
<path fill="none" stroke="#cccccc" d="M129,-57.9883C129,-50.9098 129,-41.1714 129,-32.4779"/>
<polygon fill="#cccccc" stroke="#cccccc" points="132.5,-32.3038 129,-22.3039 125.5,-32.3039 132.5,-32.3038"/>
</g>
</g>
</svg>
