<?xml version="1.0" encoding="UTF-8" standalone="no"?>
<!DOCTYPE svg PUBLIC "-//W3C//DTD SVG 1.1//EN"
 "http://www.w3.org/Graphics/SVG/1.1/DTD/svg11.dtd">
<!-- Generated by graphviz version 2.36.0 (20140111.2315)
 -->
<!-- Title: LazyMapRandomAccessCollection&lt;Base : RandomAccessCollection, Element&gt; &#45; Type Hierarchy &#45; SwiftDoc.org Pages: 1 -->
<svg width="521pt" height="427pt"
 viewBox="0.00 0.00 521.40 427.20" xmlns="http://www.w3.org/2000/svg" xmlns:xlink="http://www.w3.org/1999/xlink">
<g id="graph0" class="graph" transform="scale(1 1) rotate(0) translate(7.2 369.6)">
<g transform="translate(0 -369.6)">
<g>
    <path fill="#666666" d="M13.846,10.832c-0.336-0.464-0.792-0.844-1.368-1.14s-1.224-0.444-1.944-0.444
        c-0.384,0-0.772,0.052-1.164,0.156C8.977,9.509,8.622,9.677,8.301,9.908c-0.32,0.232-0.58,0.52-0.78,0.864
        c-0.2,0.344-0.3,0.756-0.3,1.236c0,0.464,0.092,0.852,0.276,1.164c0.184,0.312,0.432,0.576,0.744,0.792s0.68,0.4,1.104,0.552
        c0.423,0.152,0.876,0.309,1.356,0.468c0.576,0.177,1.16,0.376,1.752,0.601c0.592,0.224,1.128,0.52,1.608,0.888
        s0.872,0.828,1.176,1.38s0.456,1.252,0.456,2.101c0,0.88-0.164,1.644-0.492,2.292c-0.328,0.647-0.765,1.184-1.308,1.607
        c-0.544,0.424-1.172,0.74-1.884,0.948s-1.444,0.312-2.196,0.312c-1.072,0-2.108-0.208-3.108-0.624
        c-1-0.415-1.828-1.031-2.484-1.848l1.848-1.56c0.4,0.592,0.936,1.071,1.608,1.439c0.672,0.368,1.399,0.552,2.184,0.552
        c0.4,0,0.8-0.056,1.2-0.168c0.4-0.111,0.764-0.288,1.092-0.527c0.328-0.24,0.596-0.54,0.804-0.9
        c0.208-0.36,0.312-0.796,0.312-1.308s-0.108-0.94-0.324-1.284c-0.216-0.344-0.508-0.636-0.876-0.876s-0.796-0.444-1.284-0.612
        c-0.488-0.168-1.004-0.34-1.548-0.516c-0.544-0.16-1.08-0.356-1.608-0.588c-0.528-0.232-1-0.528-1.416-0.889
        c-0.416-0.359-0.752-0.804-1.008-1.332c-0.256-0.527-0.384-1.184-0.384-1.968c0-0.848,0.172-1.576,0.516-2.184
        c0.344-0.608,0.792-1.112,1.344-1.512c0.552-0.4,1.176-0.692,1.872-0.876c0.696-0.184,1.396-0.276,2.1-0.276
        c0.992,0,1.92,0.176,2.784,0.528c0.864,0.352,1.56,0.824,2.088,1.416L13.846,10.832z"/>
    <path fill="#666666" d="M18.813,13.304l2.568,8.688h0.048l2.712-8.688h2.376l2.76,8.688h0.048l2.568-8.688h2.376L30.501,24.68
        h-2.352l-2.808-8.544h-0.048l-2.784,8.544h-2.352l-3.792-11.376H18.813z"/>
    <path fill="#666666" d="M38.685,9.2c0,0.416-0.147,0.76-0.44,1.032c-0.294,0.272-0.647,0.408-1.06,0.408s-0.762-0.14-1.047-0.42
        c-0.286-0.28-0.429-0.62-0.429-1.02c0-0.416,0.143-0.764,0.429-1.044c0.286-0.28,0.635-0.42,1.047-0.42s0.766,0.14,1.06,0.42
        C38.538,8.437,38.685,8.784,38.685,9.2z M38.325,24.68h-2.256V13.304h2.256V24.68z"/>
    <path fill="#666666" d="M47.613,15.152h-2.64v9.528h-2.256v-9.528h-2.256v-1.848h2.256v-2.376c0-0.672,0.076-1.292,0.228-1.86
        c0.152-0.568,0.4-1.06,0.744-1.476c0.344-0.416,0.784-0.744,1.32-0.984c0.536-0.24,1.188-0.36,1.956-0.36
        c0.544,0,1.016,0.056,1.416,0.168l-0.264,1.944c-0.176-0.048-0.352-0.088-0.528-0.12c-0.176-0.032-0.376-0.048-0.6-0.048
        c-0.432,0-0.78,0.076-1.044,0.228c-0.264,0.152-0.468,0.356-0.612,0.612s-0.24,0.548-0.288,0.876
        c-0.048,0.328-0.072,0.668-0.072,1.02v2.376h2.64V15.152z"/>
    <path fill="#666666" d="M54.909,15.152h-3.024v5.91c0,0.687,0.128,1.177,0.384,1.472c0.256,0.295,0.664,0.442,1.224,0.442
        c0.208,0,0.432-0.021,0.672-0.065c0.24-0.044,0.456-0.11,0.648-0.198l0.072,1.848c-0.272,0.096-0.572,0.172-0.9,0.229
        c-0.328,0.056-0.668,0.084-1.02,0.084c-1.072,0-1.892-0.296-2.46-0.889c-0.568-0.592-0.852-1.479-0.852-2.664v-6.168h-2.184
        v-1.848h2.184V10.04h2.232v3.264h3.024V15.152z"/>
    <path fill="#666666" d="M57.356,7.688h5.832c1.088,0,2.176,0.16,3.264,0.48c1.088,0.32,2.072,0.824,2.952,1.512
        s1.592,1.568,2.136,2.64c0.544,1.072,0.816,2.36,0.816,3.864c0,1.456-0.272,2.716-0.816,3.78s-1.256,1.943-2.136,2.64
        s-1.864,1.216-2.952,1.561c-1.088,0.344-2.176,0.516-3.264,0.516h-5.832V7.688z M59.732,22.593h2.976
        c1.024,0,1.972-0.145,2.844-0.432c0.872-0.288,1.624-0.704,2.256-1.248c0.632-0.544,1.124-1.216,1.476-2.017
        c0.352-0.8,0.528-1.704,0.528-2.712c0-1.056-0.176-1.983-0.528-2.784c-0.353-0.8-0.844-1.468-1.476-2.004
        c-0.632-0.536-1.384-0.944-2.256-1.224s-1.82-0.42-2.844-0.42h-2.976V22.593z"/>
    <path fill="#666666" d="M86.06,18.969c0,0.88-0.156,1.688-0.468,2.424c-0.312,0.736-0.744,1.372-1.296,1.908
        c-0.552,0.536-1.204,0.952-1.956,1.248c-0.752,0.296-1.56,0.443-2.424,0.443c-0.864,0-1.672-0.147-2.424-0.443
        c-0.752-0.296-1.4-0.712-1.944-1.248c-0.544-0.536-0.972-1.172-1.284-1.908c-0.312-0.735-0.468-1.544-0.468-2.424
        s0.156-1.684,0.468-2.412c0.312-0.728,0.74-1.356,1.284-1.884c0.543-0.528,1.191-0.939,1.944-1.236
        c0.752-0.296,1.56-0.444,2.424-0.444c0.864,0,1.672,0.148,2.424,0.444c0.752,0.297,1.404,0.708,1.956,1.236
        c0.552,0.527,0.984,1.156,1.296,1.884C85.904,17.285,86.06,18.089,86.06,18.969z M83.708,18.98c0-0.542-0.084-1.061-0.252-1.556
        c-0.169-0.494-0.414-0.929-0.734-1.304s-0.718-0.674-1.192-0.897s-1.015-0.335-1.625-0.335c-0.61,0-1.152,0.111-1.625,0.335
        c-0.474,0.224-0.871,0.522-1.191,0.897c-0.321,0.375-0.566,0.81-0.734,1.304C76.184,17.92,76.1,18.438,76.1,18.98
        c0,0.543,0.084,1.062,0.253,1.556c0.168,0.495,0.413,0.934,0.734,1.316c0.321,0.383,0.718,0.686,1.191,0.909
        c0.473,0.224,1.015,0.335,1.625,0.335c0.61,0,1.151-0.111,1.625-0.335s0.871-0.526,1.192-0.909s0.565-0.821,0.734-1.316
        C83.624,20.042,83.708,19.523,83.708,18.98z"/>
    <path fill="#666666" d="M96.428,16.184c-0.24-0.368-0.6-0.676-1.08-0.924s-0.992-0.372-1.536-0.372
        c-0.592,0-1.116,0.112-1.572,0.336c-0.456,0.225-0.844,0.524-1.164,0.9c-0.32,0.376-0.564,0.812-0.732,1.308
        s-0.252,1.017-0.252,1.56c0,0.545,0.084,1.064,0.252,1.561s0.412,0.933,0.732,1.308c0.32,0.376,0.712,0.677,1.176,0.9
        c0.464,0.225,0.992,0.336,1.584,0.336c0.576,0,1.1-0.111,1.572-0.336c0.472-0.224,0.86-0.528,1.164-0.912l1.512,1.368
        c-0.48,0.561-1.08,0.996-1.8,1.308c-0.72,0.312-1.536,0.468-2.448,0.468c-0.88,0-1.692-0.144-2.436-0.432
        c-0.744-0.288-1.388-0.691-1.932-1.212c-0.544-0.52-0.972-1.147-1.284-1.884s-0.468-1.561-0.468-2.473
        c0-0.896,0.152-1.711,0.456-2.447c0.304-0.736,0.728-1.368,1.272-1.896c0.543-0.527,1.188-0.936,1.932-1.224
        c0.744-0.288,1.548-0.433,2.412-0.433c0.8,0,1.596,0.16,2.388,0.48s1.419,0.784,1.884,1.392L96.428,16.184z"/>
    <path fill="#666666" d="M103.1,23.24c0,0.417-0.152,0.784-0.456,1.104c-0.304,0.32-0.688,0.479-1.152,0.479
        c-0.448,0-0.828-0.155-1.14-0.468c-0.312-0.312-0.468-0.676-0.468-1.092c0-0.432,0.152-0.804,0.456-1.116
        c0.304-0.312,0.688-0.468,1.152-0.468c0.464,0,0.848,0.152,1.152,0.456C102.947,22.44,103.1,22.808,103.1,23.24z"/>
    <path fill="#666666" d="M116.635,18.969c0,0.88-0.156,1.688-0.468,2.424c-0.312,0.736-0.744,1.372-1.296,1.908
        c-0.552,0.536-1.204,0.952-1.956,1.248c-0.752,0.296-1.56,0.443-2.424,0.443c-0.864,0-1.672-0.147-2.424-0.443
        c-0.752-0.296-1.4-0.712-1.944-1.248c-0.544-0.536-0.972-1.172-1.284-1.908c-0.312-0.735-0.468-1.544-0.468-2.424
        s0.156-1.684,0.468-2.412c0.312-0.728,0.74-1.356,1.284-1.884c0.543-0.528,1.191-0.939,1.944-1.236
        c0.752-0.296,1.56-0.444,2.424-0.444c0.864,0,1.672,0.148,2.424,0.444c0.752,0.297,1.404,0.708,1.956,1.236
        c0.552,0.527,0.984,1.156,1.296,1.884C116.479,17.285,116.635,18.089,116.635,18.969z M114.283,18.98
        c0-0.542-0.084-1.061-0.252-1.556c-0.169-0.494-0.414-0.929-0.734-1.304s-0.718-0.674-1.192-0.897s-1.015-0.335-1.625-0.335
        c-0.61,0-1.152,0.111-1.625,0.335c-0.474,0.224-0.871,0.522-1.191,0.897c-0.321,0.375-0.566,0.81-0.734,1.304
        c-0.169,0.495-0.253,1.014-0.253,1.556c0,0.543,0.084,1.062,0.253,1.556c0.168,0.495,0.413,0.934,0.734,1.316
        c0.321,0.383,0.718,0.686,1.191,0.909c0.473,0.224,1.015,0.335,1.625,0.335c0.61,0,1.151-0.111,1.625-0.335
        s0.871-0.526,1.192-0.909s0.565-0.821,0.734-1.316C114.199,20.042,114.283,19.523,114.283,18.98z"/>
    <path fill="#666666" d="M119.251,14.577c-0.016-0.48-0.04-0.904-0.072-1.272h2.136c0.032,0.288,0.056,0.62,0.072,0.996
        c0.016,0.376,0.024,0.684,0.024,0.924h0.072c0.32-0.672,0.788-1.212,1.404-1.62c0.616-0.408,1.308-0.612,2.076-0.612
        c0.352,0,0.648,0.033,0.888,0.097l-0.096,2.088c-0.32-0.08-0.664-0.12-1.032-0.12c-0.544,0-1.016,0.101-1.416,0.3
        c-0.4,0.2-0.732,0.468-0.996,0.805c-0.264,0.336-0.46,0.724-0.588,1.163c-0.128,0.44-0.192,0.9-0.192,1.381v5.976h-2.256v-8.928
        C119.275,15.449,119.267,15.056,119.251,14.577z"/>
    <path fill="#666666" d="M128.419,26.625c0.496,0.56,1.116,1.008,1.86,1.344c0.744,0.336,1.508,0.504,2.292,0.504
        c0.752,0,1.384-0.108,1.896-0.324s0.924-0.512,1.236-0.888s0.536-0.82,0.672-1.332c0.136-0.513,0.204-1.064,0.204-1.656v-1.464
        h-0.048c-0.416,0.641-0.984,1.128-1.704,1.464c-0.72,0.336-1.488,0.504-2.304,0.504c-0.864,0-1.652-0.151-2.364-0.456
        c-0.712-0.304-1.316-0.72-1.812-1.248c-0.496-0.527-0.88-1.147-1.152-1.859s-0.408-1.477-0.408-2.292
        c0-0.816,0.136-1.584,0.408-2.305c0.272-0.72,0.656-1.348,1.152-1.884c0.496-0.535,1.096-0.96,1.8-1.271
        c0.704-0.312,1.488-0.469,2.352-0.469c0.816,0,1.596,0.177,2.34,0.528c0.744,0.353,1.332,0.888,1.764,1.608h0.048v-1.824h2.184
        v10.8c0,0.832-0.104,1.628-0.312,2.388c-0.208,0.76-0.56,1.433-1.056,2.017s-1.144,1.052-1.944,1.404
        c-0.8,0.352-1.792,0.527-2.976,0.527c-0.992,0-1.988-0.18-2.988-0.54c-1-0.359-1.86-0.868-2.58-1.523L128.419,26.625z
         M129.091,18.873c0,0.527,0.084,1.031,0.253,1.512c0.168,0.479,0.417,0.904,0.746,1.271c0.329,0.369,0.726,0.664,1.192,0.889
        c0.465,0.224,0.995,0.336,1.589,0.336c0.577,0,1.107-0.104,1.589-0.312c0.481-0.207,0.891-0.491,1.228-0.852
        s0.598-0.784,0.782-1.272c0.185-0.487,0.277-1.012,0.277-1.571c0-0.544-0.093-1.057-0.277-1.536
        c-0.185-0.48-0.449-0.904-0.794-1.272c-0.345-0.367-0.755-0.66-1.228-0.876c-0.474-0.216-1-0.324-1.577-0.324
        c-0.594,0-1.124,0.108-1.589,0.324c-0.466,0.216-0.863,0.504-1.192,0.864s-0.578,0.784-0.746,1.271
        C129.175,17.812,129.091,18.329,129.091,18.873z"/>
</g>
<g><a xlink:href="/" pointer-events="all" target="_top"><polygon fill="none" points="0,0 145,0 145,35 0,35 0,0"/></a></g>

</g>


<!-- BidirectionalCollection -->
<g id="node1" class="node">
<g id="a_node1"><a xlink:href="/v3.0/protocol/BidirectionalCollection/hierarchy/" target="_top">
<path fill="#999999" stroke="#999999" d="M284.712,-138C284.712,-138 171.288,-138 171.288,-138 167.621,-138 163.955,-134.333 163.955,-130.667 163.955,-130.667 163.955,-123.333 163.955,-123.333 163.955,-119.667 167.621,-116 171.288,-116 171.288,-116 284.712,-116 284.712,-116 288.379,-116 292.045,-119.667 292.045,-123.333 292.045,-123.333 292.045,-130.667 292.045,-130.667 292.045,-134.333 288.379,-138 284.712,-138"/>
<text text-anchor="middle" x="228" y="-123.4" font-family="Helvetica,sans-Serif" font-size="12.00" fill="white">BidirectionalCollection</text>
</a>
</g>
</g>
<!-- RandomAccessCollection -->
<g id="node9" class="node">
<g id="a_node9"><a xlink:href="/v3.0/protocol/RandomAccessCollection/hierarchy/" target="_top">
<path fill="#999999" stroke="#999999" d="M293.714,-80C293.714,-80 162.286,-80 162.286,-80 158.62,-80 154.953,-76.3333 154.953,-72.6667 154.953,-72.6667 154.953,-65.3333 154.953,-65.3333 154.953,-61.6667 158.62,-58 162.286,-58 162.286,-58 293.714,-58 293.714,-58 297.38,-58 301.047,-61.6667 301.047,-65.3333 301.047,-65.3333 301.047,-72.6667 301.047,-72.6667 301.047,-76.3333 297.38,-80 293.714,-80"/>
<text text-anchor="middle" x="228" y="-65.4" font-family="Helvetica,sans-Serif" font-size="12.00" fill="white">RandomAccessCollection</text>
</a>
</g>
</g>
<!-- BidirectionalCollection&#45;&gt;RandomAccessCollection -->
<g id="edge10" class="edge">
<path fill="none" stroke="#cccccc" d="M228,-115.988C228,-108.91 228,-99.1714 228,-90.4779"/>
<polygon fill="#cccccc" stroke="#cccccc" points="231.5,-90.3038 228,-80.3039 224.5,-90.3039 231.5,-90.3038"/>
</g>
<!-- BidirectionalIndexable -->
<g id="node2" class="node">
<g id="a_node2"><a xlink:href="/v3.0/protocol/BidirectionalIndexable/hierarchy/" target="_top">
<path fill="#999999" stroke="#999999" d="M203.224,-196C203.224,-196 90.7762,-196 90.7762,-196 87.1095,-196 83.4429,-192.333 83.4429,-188.667 83.4429,-188.667 83.4429,-181.333 83.4429,-181.333 83.4429,-177.667 87.1095,-174 90.7762,-174 90.7762,-174 203.224,-174 203.224,-174 206.89,-174 210.557,-177.667 210.557,-181.333 210.557,-181.333 210.557,-188.667 210.557,-188.667 210.557,-192.333 206.89,-196 203.224,-196"/>
<text text-anchor="middle" x="147" y="-181.4" font-family="Helvetica,sans-Serif" font-size="12.00" fill="white">BidirectionalIndexable</text>
</a>
</g>
</g>
<!-- BidirectionalIndexable&#45;&gt;BidirectionalCollection -->
<g id="edge13" class="edge">
<path fill="none" stroke="#cccccc" d="M161.481,-173.988C173.501,-165.678 190.823,-153.703 204.777,-144.055"/>
<polygon fill="#cccccc" stroke="#cccccc" points="207.136,-146.68 213.371,-138.114 203.155,-140.922 207.136,-146.68"/>
</g>
<!-- RandomAccessIndexable -->
<g id="node10" class="node">
<g id="a_node10"><a xlink:href="/v3.0/protocol/RandomAccessIndexable/hierarchy/" target="_top">
<path fill="#999999" stroke="#999999" d="M138.725,-138C138.725,-138 7.27473,-138 7.27473,-138 3.60806,-138 -0.0586042,-134.333 -0.0586042,-130.667 -0.0586042,-130.667 -0.0586042,-123.333 -0.0586042,-123.333 -0.0586042,-119.667 3.60806,-116 7.27473,-116 7.27473,-116 138.725,-116 138.725,-116 142.392,-116 146.059,-119.667 146.059,-123.333 146.059,-123.333 146.059,-130.667 146.059,-130.667 146.059,-134.333 142.392,-138 138.725,-138"/>
<text text-anchor="middle" x="73" y="-123.4" font-family="Helvetica,sans-Serif" font-size="12.00" fill="white">RandomAccessIndexable</text>
</a>
</g>
</g>
<!-- BidirectionalIndexable&#45;&gt;RandomAccessIndexable -->
<g id="edge11" class="edge">
<path fill="none" stroke="#cccccc" d="M133.77,-173.988C122.961,-165.809 107.459,-154.077 94.8178,-144.511"/>
<polygon fill="#cccccc" stroke="#cccccc" points="96.702,-141.547 86.6158,-138.304 92.4779,-147.129 96.702,-141.547"/>
</g>
<!-- Collection -->
<g id="node3" class="node">
<g id="a_node3"><a xlink:href="/v3.0/protocol/Collection/hierarchy/" target="_top">
<path fill="#999999" stroke="#999999" d="M283.688,-196C283.688,-196 236.312,-196 236.312,-196 232.645,-196 228.978,-192.333 228.978,-188.667 228.978,-188.667 228.978,-181.333 228.978,-181.333 228.978,-177.667 232.645,-174 236.312,-174 236.312,-174 283.688,-174 283.688,-174 287.355,-174 291.022,-177.667 291.022,-181.333 291.022,-181.333 291.022,-188.667 291.022,-188.667 291.022,-192.333 287.355,-196 283.688,-196"/>
<text text-anchor="middle" x="260" y="-181.4" font-family="Helvetica,sans-Serif" font-size="12.00" fill="white">Collection</text>
</a>
</g>
</g>
<!-- Collection&#45;&gt;BidirectionalCollection -->
<g id="edge14" class="edge">
<path fill="none" stroke="#cccccc" d="M254.279,-173.988C250.009,-166.517 244.046,-156.081 238.88,-147.039"/>
<polygon fill="#cccccc" stroke="#cccccc" points="241.888,-145.25 233.888,-138.304 235.811,-148.723 241.888,-145.25"/>
</g>
<!-- LazyCollectionProtocol -->
<g id="node6" class="node">
<g id="a_node6"><a xlink:href="/v3.0/protocol/LazyCollectionProtocol/hierarchy/" target="_top">
<path fill="#999999" stroke="#999999" d="M434.714,-138C434.714,-138 317.286,-138 317.286,-138 313.62,-138 309.953,-134.333 309.953,-130.667 309.953,-130.667 309.953,-123.333 309.953,-123.333 309.953,-119.667 313.62,-116 317.286,-116 317.286,-116 434.714,-116 434.714,-116 438.38,-116 442.047,-119.667 442.047,-123.333 442.047,-123.333 442.047,-130.667 442.047,-130.667 442.047,-134.333 438.38,-138 434.714,-138"/>
<text text-anchor="middle" x="376" y="-123.4" font-family="Helvetica,sans-Serif" font-size="12.00" fill="white">LazyCollectionProtocol</text>
</a>
</g>
</g>
<!-- Collection&#45;&gt;LazyCollectionProtocol -->
<g id="edge3" class="edge">
<path fill="none" stroke="#cccccc" d="M280.738,-173.988C298.853,-165.243 325.378,-152.438 345.841,-142.559"/>
<polygon fill="#cccccc" stroke="#cccccc" points="347.566,-145.613 355.05,-138.114 344.523,-139.309 347.566,-145.613"/>
</g>
<!-- Indexable -->
<g id="node4" class="node">
<g id="a_node4"><a xlink:href="/v3.0/protocol/Indexable/hierarchy/" target="_top">
<path fill="#999999" stroke="#999999" d="M234.699,-254C234.699,-254 187.301,-254 187.301,-254 183.634,-254 179.968,-250.333 179.968,-246.667 179.968,-246.667 179.968,-239.333 179.968,-239.333 179.968,-235.667 183.634,-232 187.301,-232 187.301,-232 234.699,-232 234.699,-232 238.366,-232 242.032,-235.667 242.032,-239.333 242.032,-239.333 242.032,-246.667 242.032,-246.667 242.032,-250.333 238.366,-254 234.699,-254"/>
<text text-anchor="middle" x="211" y="-239.4" font-family="Helvetica,sans-Serif" font-size="12.00" fill="white">Indexable</text>
</a>
</g>
</g>
<!-- Indexable&#45;&gt;BidirectionalIndexable -->
<g id="edge12" class="edge">
<path fill="none" stroke="#cccccc" d="M199.558,-231.988C190.39,-223.966 177.317,-212.527 166.503,-203.065"/>
<polygon fill="#cccccc" stroke="#cccccc" points="168.606,-200.255 158.776,-196.304 163.997,-205.523 168.606,-200.255"/>
</g>
<!-- Indexable&#45;&gt;Collection -->
<g id="edge5" class="edge">
<path fill="none" stroke="#cccccc" d="M219.76,-231.988C226.573,-224.202 236.203,-213.197 244.333,-203.905"/>
<polygon fill="#cccccc" stroke="#cccccc" points="247.033,-206.134 250.984,-196.304 241.765,-201.525 247.033,-206.134"/>
</g>
<!-- IndexableBase -->
<g id="node5" class="node">
<g id="a_node5"><a xlink:href="/v3.0/protocol/IndexableBase/hierarchy/" target="_top">
<path fill="#999999" stroke="#999999" d="M248.212,-312C248.212,-312 173.788,-312 173.788,-312 170.121,-312 166.455,-308.333 166.455,-304.667 166.455,-304.667 166.455,-297.333 166.455,-297.333 166.455,-293.667 170.121,-290 173.788,-290 173.788,-290 248.212,-290 248.212,-290 251.879,-290 255.545,-293.667 255.545,-297.333 255.545,-297.333 255.545,-304.667 255.545,-304.667 255.545,-308.333 251.879,-312 248.212,-312"/>
<text text-anchor="middle" x="211" y="-297.4" font-family="Helvetica,sans-Serif" font-size="12.00" fill="white">IndexableBase</text>
</a>
</g>
</g>
<!-- IndexableBase&#45;&gt;Indexable -->
<g id="edge7" class="edge">
<path fill="none" stroke="#cccccc" d="M211,-289.988C211,-282.91 211,-273.171 211,-264.478"/>
<polygon fill="#cccccc" stroke="#cccccc" points="214.5,-264.304 211,-254.304 207.5,-264.304 214.5,-264.304"/>
</g>
<!-- LazyMapRandomAccessCollection&lt;Base : RandomAccessCollection, Element&gt; -->
<g id="node7" class="node">
<g id="a_node7"><a xlink:href="/v3.0/type/LazyMapRandomAccessCollection/" target="_top">
<polygon fill="#ee543d" stroke="#ee543d" points="507.155,-22 72.8447,-22 72.8447,-0 507.155,-0 507.155,-22"/>
<text text-anchor="middle" x="290" y="-7.4" font-family="Helvetica,sans-Serif" font-size="12.00" fill="white">LazyMapRandomAccessCollection&lt;Base : RandomAccessCollection, Element&gt;</text>
</a>
</g>
</g>
<!-- LazyCollectionProtocol&#45;&gt;LazyMapRandomAccessCollection&lt;Base : RandomAccessCollection, Element&gt; -->
<g id="edge1" class="edge">
<path fill="none" stroke="#cccccc" d="M368.368,-115.883C353.87,-96.6645 322.16,-54.6301 303.83,-30.3322"/>
<polygon fill="#cccccc" stroke="#cccccc" points="306.555,-28.1333 297.738,-22.2579 300.967,-32.349 306.555,-28.1333"/>
</g>
<!-- LazySequenceProtocol -->
<g id="node8" class="node">
<g id="a_node8"><a xlink:href="/v3.0/protocol/LazySequenceProtocol/hierarchy/" target="_top">
<path fill="#999999" stroke="#999999" d="M435.228,-196C435.228,-196 316.772,-196 316.772,-196 313.105,-196 309.438,-192.333 309.438,-188.667 309.438,-188.667 309.438,-181.333 309.438,-181.333 309.438,-177.667 313.105,-174 316.772,-174 316.772,-174 435.228,-174 435.228,-174 438.895,-174 442.562,-177.667 442.562,-181.333 442.562,-181.333 442.562,-188.667 442.562,-188.667 442.562,-192.333 438.895,-196 435.228,-196"/>
<text text-anchor="middle" x="376" y="-181.4" font-family="Helvetica,sans-Serif" font-size="12.00" fill="white">LazySequenceProtocol</text>
</a>
</g>
</g>
<!-- LazySequenceProtocol&#45;&gt;LazyCollectionProtocol -->
<g id="edge4" class="edge">
<path fill="none" stroke="#cccccc" d="M376,-173.988C376,-166.91 376,-157.171 376,-148.478"/>
<polygon fill="#cccccc" stroke="#cccccc" points="379.5,-148.304 376,-138.304 372.5,-148.304 379.5,-148.304"/>
</g>
<!-- RandomAccessCollection&#45;&gt;LazyMapRandomAccessCollection&lt;Base : RandomAccessCollection, Element&gt; -->
<g id="edge2" class="edge">
<path fill="none" stroke="#cccccc" d="M239.084,-57.9883C247.966,-49.966 260.631,-38.5272 271.107,-29.065"/>
<polygon fill="#cccccc" stroke="#cccccc" points="273.517,-31.6041 278.592,-22.3039 268.825,-26.4094 273.517,-31.6041"/>
</g>
<!-- RandomAccessIndexable&#45;&gt;RandomAccessCollection -->
<g id="edge9" class="edge">
<path fill="none" stroke="#cccccc" d="M100.711,-115.988C125.761,-106.938 162.845,-93.5399 190.532,-83.5367"/>
<polygon fill="#cccccc" stroke="#cccccc" points="192.052,-86.709 200.268,-80.0192 189.674,-80.1255 192.052,-86.709"/>
</g>
<!-- Sequence -->
<g id="node11" class="node">
<g id="a_node11"><a xlink:href="/v3.0/protocol/Sequence/hierarchy/" target="_top">
<path fill="#999999" stroke="#999999" d="M332.702,-254C332.702,-254 283.298,-254 283.298,-254 279.632,-254 275.965,-250.333 275.965,-246.667 275.965,-246.667 275.965,-239.333 275.965,-239.333 275.965,-235.667 279.632,-232 283.298,-232 283.298,-232 332.702,-232 332.702,-232 336.368,-232 340.035,-235.667 340.035,-239.333 340.035,-239.333 340.035,-246.667 340.035,-246.667 340.035,-250.333 336.368,-254 332.702,-254"/>
<text text-anchor="middle" x="308" y="-239.4" font-family="Helvetica,sans-Serif" font-size="12.00" fill="white">Sequence</text>
</a>
</g>
</g>
<!-- Sequence&#45;&gt;Collection -->
<g id="edge6" class="edge">
<path fill="none" stroke="#cccccc" d="M299.419,-231.988C292.745,-224.202 283.312,-213.197 275.347,-203.905"/>
<polygon fill="#cccccc" stroke="#cccccc" points="277.997,-201.619 268.832,-196.304 272.682,-206.174 277.997,-201.619"/>
</g>
<!-- Sequence&#45;&gt;LazySequenceProtocol -->
<g id="edge8" class="edge">
<path fill="none" stroke="#cccccc" d="M320.157,-231.988C329.994,-223.887 344.061,-212.303 355.615,-202.787"/>
<polygon fill="#cccccc" stroke="#cccccc" points="357.994,-205.363 363.488,-196.304 353.544,-199.959 357.994,-205.363"/>
</g>
</g>
</svg>
