<?xml version="1.0" encoding="UTF-8" standalone="no"?>
<!DOCTYPE svg PUBLIC "-//W3C//DTD SVG 1.1//EN"
 "http://www.w3.org/Graphics/SVG/1.1/DTD/svg11.dtd">
<!-- Generated by graphviz version 2.36.0 (20140111.2315)
 -->
<!-- Title: Array&lt;T&gt; &#45; Type Hierarchy &#45; SwiftDoc.org Pages: 1 -->
<svg width="681pt" height="601pt"
 viewBox="0.00 0.00 681.40 601.20" xmlns="http://www.w3.org/2000/svg" xmlns:xlink="http://www.w3.org/1999/xlink">
<g id="graph0" class="graph" transform="scale(1 1) rotate(0) translate(7.2 543.6)">
<g transform="translate(0 -543.6)">
<g>
    <path fill="#666666" d="M13.846,10.832c-0.336-0.464-0.792-0.844-1.368-1.14s-1.224-0.444-1.944-0.444
        c-0.384,0-0.772,0.052-1.164,0.156C8.977,9.509,8.622,9.677,8.301,9.908c-0.32,0.232-0.58,0.52-0.78,0.864
        c-0.2,0.344-0.3,0.756-0.3,1.236c0,0.464,0.092,0.852,0.276,1.164c0.184,0.312,0.432,0.576,0.744,0.792s0.68,0.4,1.104,0.552
        c0.423,0.152,0.876,0.309,1.356,0.468c0.576,0.177,1.16,0.376,1.752,0.601c0.592,0.224,1.128,0.52,1.608,0.888
        s0.872,0.828,1.176,1.38s0.456,1.252,0.456,2.101c0,0.88-0.164,1.644-0.492,2.292c-0.328,0.647-0.765,1.184-1.308,1.607
        c-0.544,0.424-1.172,0.74-1.884,0.948s-1.444,0.312-2.196,0.312c-1.072,0-2.108-0.208-3.108-0.624
        c-1-0.415-1.828-1.031-2.484-1.848l1.848-1.56c0.4,0.592,0.936,1.071,1.608,1.439c0.672,0.368,1.399,0.552,2.184,0.552
        c0.4,0,0.8-0.056,1.2-0.168c0.4-0.111,0.764-0.288,1.092-0.527c0.328-0.24,0.596-0.54,0.804-0.9
        c0.208-0.36,0.312-0.796,0.312-1.308s-0.108-0.94-0.324-1.284c-0.216-0.344-0.508-0.636-0.876-0.876s-0.796-0.444-1.284-0.612
        c-0.488-0.168-1.004-0.34-1.548-0.516c-0.544-0.16-1.08-0.356-1.608-0.588c-0.528-0.232-1-0.528-1.416-0.889
        c-0.416-0.359-0.752-0.804-1.008-1.332c-0.256-0.527-0.384-1.184-0.384-1.968c0-0.848,0.172-1.576,0.516-2.184
        c0.344-0.608,0.792-1.112,1.344-1.512c0.552-0.4,1.176-0.692,1.872-0.876c0.696-0.184,1.396-0.276,2.1-0.276
        c0.992,0,1.92,0.176,2.784,0.528c0.864,0.352,1.56,0.824,2.088,1.416L13.846,10.832z"/>
    <path fill="#666666" d="M18.813,13.304l2.568,8.688h0.048l2.712-8.688h2.376l2.76,8.688h0.048l2.568-8.688h2.376L30.501,24.68
        h-2.352l-2.808-8.544h-0.048l-2.784,8.544h-2.352l-3.792-11.376H18.813z"/>
    <path fill="#666666" d="M38.685,9.2c0,0.416-0.147,0.76-0.44,1.032c-0.294,0.272-0.647,0.408-1.06,0.408s-0.762-0.14-1.047-0.42
        c-0.286-0.28-0.429-0.62-0.429-1.02c0-0.416,0.143-0.764,0.429-1.044c0.286-0.28,0.635-0.42,1.047-0.42s0.766,0.14,1.06,0.42
        C38.538,8.437,38.685,8.784,38.685,9.2z M38.325,24.68h-2.256V13.304h2.256V24.68z"/>
    <path fill="#666666" d="M47.613,15.152h-2.64v9.528h-2.256v-9.528h-2.256v-1.848h2.256v-2.376c0-0.672,0.076-1.292,0.228-1.86
        c0.152-0.568,0.4-1.06,0.744-1.476c0.344-0.416,0.784-0.744,1.32-0.984c0.536-0.24,1.188-0.36,1.956-0.36
        c0.544,0,1.016,0.056,1.416,0.168l-0.264,1.944c-0.176-0.048-0.352-0.088-0.528-0.12c-0.176-0.032-0.376-0.048-0.6-0.048
        c-0.432,0-0.78,0.076-1.044,0.228c-0.264,0.152-0.468,0.356-0.612,0.612s-0.24,0.548-0.288,0.876
        c-0.048,0.328-0.072,0.668-0.072,1.02v2.376h2.64V15.152z"/>
    <path fill="#666666" d="M54.909,15.152h-3.024v5.91c0,0.687,0.128,1.177,0.384,1.472c0.256,0.295,0.664,0.442,1.224,0.442
        c0.208,0,0.432-0.021,0.672-0.065c0.24-0.044,0.456-0.11,0.648-0.198l0.072,1.848c-0.272,0.096-0.572,0.172-0.9,0.229
        c-0.328,0.056-0.668,0.084-1.02,0.084c-1.072,0-1.892-0.296-2.46-0.889c-0.568-0.592-0.852-1.479-0.852-2.664v-6.168h-2.184
        v-1.848h2.184V10.04h2.232v3.264h3.024V15.152z"/>
    <path fill="#666666" d="M57.356,7.688h5.832c1.088,0,2.176,0.16,3.264,0.48c1.088,0.32,2.072,0.824,2.952,1.512
        s1.592,1.568,2.136,2.64c0.544,1.072,0.816,2.36,0.816,3.864c0,1.456-0.272,2.716-0.816,3.78s-1.256,1.943-2.136,2.64
        s-1.864,1.216-2.952,1.561c-1.088,0.344-2.176,0.516-3.264,0.516h-5.832V7.688z M59.732,22.593h2.976
        c1.024,0,1.972-0.145,2.844-0.432c0.872-0.288,1.624-0.704,2.256-1.248c0.632-0.544,1.124-1.216,1.476-2.017
        c0.352-0.8,0.528-1.704,0.528-2.712c0-1.056-0.176-1.983-0.528-2.784c-0.353-0.8-0.844-1.468-1.476-2.004
        c-0.632-0.536-1.384-0.944-2.256-1.224s-1.82-0.42-2.844-0.42h-2.976V22.593z"/>
    <path fill="#666666" d="M86.06,18.969c0,0.88-0.156,1.688-0.468,2.424c-0.312,0.736-0.744,1.372-1.296,1.908
        c-0.552,0.536-1.204,0.952-1.956,1.248c-0.752,0.296-1.56,0.443-2.424,0.443c-0.864,0-1.672-0.147-2.424-0.443
        c-0.752-0.296-1.4-0.712-1.944-1.248c-0.544-0.536-0.972-1.172-1.284-1.908c-0.312-0.735-0.468-1.544-0.468-2.424
        s0.156-1.684,0.468-2.412c0.312-0.728,0.74-1.356,1.284-1.884c0.543-0.528,1.191-0.939,1.944-1.236
        c0.752-0.296,1.56-0.444,2.424-0.444c0.864,0,1.672,0.148,2.424,0.444c0.752,0.297,1.404,0.708,1.956,1.236
        c0.552,0.527,0.984,1.156,1.296,1.884C85.904,17.285,86.06,18.089,86.06,18.969z M83.708,18.98c0-0.542-0.084-1.061-0.252-1.556
        c-0.169-0.494-0.414-0.929-0.734-1.304s-0.718-0.674-1.192-0.897s-1.015-0.335-1.625-0.335c-0.61,0-1.152,0.111-1.625,0.335
        c-0.474,0.224-0.871,0.522-1.191,0.897c-0.321,0.375-0.566,0.81-0.734,1.304C76.184,17.92,76.1,18.438,76.1,18.98
        c0,0.543,0.084,1.062,0.253,1.556c0.168,0.495,0.413,0.934,0.734,1.316c0.321,0.383,0.718,0.686,1.191,0.909
        c0.473,0.224,1.015,0.335,1.625,0.335c0.61,0,1.151-0.111,1.625-0.335s0.871-0.526,1.192-0.909s0.565-0.821,0.734-1.316
        C83.624,20.042,83.708,19.523,83.708,18.98z"/>
    <path fill="#666666" d="M96.428,16.184c-0.24-0.368-0.6-0.676-1.08-0.924s-0.992-0.372-1.536-0.372
        c-0.592,0-1.116,0.112-1.572,0.336c-0.456,0.225-0.844,0.524-1.164,0.9c-0.32,0.376-0.564,0.812-0.732,1.308
        s-0.252,1.017-0.252,1.56c0,0.545,0.084,1.064,0.252,1.561s0.412,0.933,0.732,1.308c0.32,0.376,0.712,0.677,1.176,0.9
        c0.464,0.225,0.992,0.336,1.584,0.336c0.576,0,1.1-0.111,1.572-0.336c0.472-0.224,0.86-0.528,1.164-0.912l1.512,1.368
        c-0.48,0.561-1.08,0.996-1.8,1.308c-0.72,0.312-1.536,0.468-2.448,0.468c-0.88,0-1.692-0.144-2.436-0.432
        c-0.744-0.288-1.388-0.691-1.932-1.212c-0.544-0.52-0.972-1.147-1.284-1.884s-0.468-1.561-0.468-2.473
        c0-0.896,0.152-1.711,0.456-2.447c0.304-0.736,0.728-1.368,1.272-1.896c0.543-0.527,1.188-0.936,1.932-1.224
        c0.744-0.288,1.548-0.433,2.412-0.433c0.8,0,1.596,0.16,2.388,0.48s1.419,0.784,1.884,1.392L96.428,16.184z"/>
    <path fill="#666666" d="M103.1,23.24c0,0.417-0.152,0.784-0.456,1.104c-0.304,0.32-0.688,0.479-1.152,0.479
        c-0.448,0-0.828-0.155-1.14-0.468c-0.312-0.312-0.468-0.676-0.468-1.092c0-0.432,0.152-0.804,0.456-1.116
        c0.304-0.312,0.688-0.468,1.152-0.468c0.464,0,0.848,0.152,1.152,0.456C102.947,22.44,103.1,22.808,103.1,23.24z"/>
    <path fill="#666666" d="M116.635,18.969c0,0.88-0.156,1.688-0.468,2.424c-0.312,0.736-0.744,1.372-1.296,1.908
        c-0.552,0.536-1.204,0.952-1.956,1.248c-0.752,0.296-1.56,0.443-2.424,0.443c-0.864,0-1.672-0.147-2.424-0.443
        c-0.752-0.296-1.4-0.712-1.944-1.248c-0.544-0.536-0.972-1.172-1.284-1.908c-0.312-0.735-0.468-1.544-0.468-2.424
        s0.156-1.684,0.468-2.412c0.312-0.728,0.74-1.356,1.284-1.884c0.543-0.528,1.191-0.939,1.944-1.236
        c0.752-0.296,1.56-0.444,2.424-0.444c0.864,0,1.672,0.148,2.424,0.444c0.752,0.297,1.404,0.708,1.956,1.236
        c0.552,0.527,0.984,1.156,1.296,1.884C116.479,17.285,116.635,18.089,116.635,18.969z M114.283,18.98
        c0-0.542-0.084-1.061-0.252-1.556c-0.169-0.494-0.414-0.929-0.734-1.304s-0.718-0.674-1.192-0.897s-1.015-0.335-1.625-0.335
        c-0.61,0-1.152,0.111-1.625,0.335c-0.474,0.224-0.871,0.522-1.191,0.897c-0.321,0.375-0.566,0.81-0.734,1.304
        c-0.169,0.495-0.253,1.014-0.253,1.556c0,0.543,0.084,1.062,0.253,1.556c0.168,0.495,0.413,0.934,0.734,1.316
        c0.321,0.383,0.718,0.686,1.191,0.909c0.473,0.224,1.015,0.335,1.625,0.335c0.61,0,1.151-0.111,1.625-0.335
        s0.871-0.526,1.192-0.909s0.565-0.821,0.734-1.316C114.199,20.042,114.283,19.523,114.283,18.98z"/>
    <path fill="#666666" d="M119.251,14.577c-0.016-0.48-0.04-0.904-0.072-1.272h2.136c0.032,0.288,0.056,0.62,0.072,0.996
        c0.016,0.376,0.024,0.684,0.024,0.924h0.072c0.32-0.672,0.788-1.212,1.404-1.62c0.616-0.408,1.308-0.612,2.076-0.612
        c0.352,0,0.648,0.033,0.888,0.097l-0.096,2.088c-0.32-0.08-0.664-0.12-1.032-0.12c-0.544,0-1.016,0.101-1.416,0.3
        c-0.4,0.2-0.732,0.468-0.996,0.805c-0.264,0.336-0.46,0.724-0.588,1.163c-0.128,0.44-0.192,0.9-0.192,1.381v5.976h-2.256v-8.928
        C119.275,15.449,119.267,15.056,119.251,14.577z"/>
    <path fill="#666666" d="M128.419,26.625c0.496,0.56,1.116,1.008,1.86,1.344c0.744,0.336,1.508,0.504,2.292,0.504
        c0.752,0,1.384-0.108,1.896-0.324s0.924-0.512,1.236-0.888s0.536-0.82,0.672-1.332c0.136-0.513,0.204-1.064,0.204-1.656v-1.464
        h-0.048c-0.416,0.641-0.984,1.128-1.704,1.464c-0.72,0.336-1.488,0.504-2.304,0.504c-0.864,0-1.652-0.151-2.364-0.456
        c-0.712-0.304-1.316-0.72-1.812-1.248c-0.496-0.527-0.88-1.147-1.152-1.859s-0.408-1.477-0.408-2.292
        c0-0.816,0.136-1.584,0.408-2.305c0.272-0.72,0.656-1.348,1.152-1.884c0.496-0.535,1.096-0.96,1.8-1.271
        c0.704-0.312,1.488-0.469,2.352-0.469c0.816,0,1.596,0.177,2.34,0.528c0.744,0.353,1.332,0.888,1.764,1.608h0.048v-1.824h2.184
        v10.8c0,0.832-0.104,1.628-0.312,2.388c-0.208,0.76-0.56,1.433-1.056,2.017s-1.144,1.052-1.944,1.404
        c-0.8,0.352-1.792,0.527-2.976,0.527c-0.992,0-1.988-0.18-2.988-0.54c-1-0.359-1.86-0.868-2.58-1.523L128.419,26.625z
         M129.091,18.873c0,0.527,0.084,1.031,0.253,1.512c0.168,0.479,0.417,0.904,0.746,1.271c0.329,0.369,0.726,0.664,1.192,0.889
        c0.465,0.224,0.995,0.336,1.589,0.336c0.577,0,1.107-0.104,1.589-0.312c0.481-0.207,0.891-0.491,1.228-0.852
        s0.598-0.784,0.782-1.272c0.185-0.487,0.277-1.012,0.277-1.571c0-0.544-0.093-1.057-0.277-1.536
        c-0.185-0.48-0.449-0.904-0.794-1.272c-0.345-0.367-0.755-0.66-1.228-0.876c-0.474-0.216-1-0.324-1.577-0.324
        c-0.594,0-1.124,0.108-1.589,0.324c-0.466,0.216-0.863,0.504-1.192,0.864s-0.578,0.784-0.746,1.271
        C129.175,17.812,129.091,18.329,129.091,18.873z"/>
</g>
<g><a xlink:href="/" pointer-events="all" target="_top"><polygon fill="none" points="0,0 145,0 145,35 0,35 0,0"/></a></g>

</g>


<!-- Array&lt;T&gt; -->
<g id="node1" class="node">
<g id="a_node1"><a xlink:href="/v1.2/type/Array/" target="_top">
<polygon fill="#ee543d" stroke="#ee543d" points="251.012,-22 190.988,-22 190.988,-0 251.012,-0 251.012,-22"/>
<text text-anchor="middle" x="221" y="-7.4" font-family="Helvetica,sans-Serif" font-size="12.00" fill="white">Array&lt;T&gt;</text>
</a>
</g>
</g>
<!-- ArrayLiteralConvertible -->
<g id="node2" class="node">
<g id="a_node2"><a xlink:href="/v1.2/protocol/ArrayLiteralConvertible/hierarchy/" target="_top">
<path fill="#999999" stroke="#999999" d="M213.705,-138C213.705,-138 96.2952,-138 96.2952,-138 92.6286,-138 88.9619,-134.333 88.9619,-130.667 88.9619,-130.667 88.9619,-123.333 88.9619,-123.333 88.9619,-119.667 92.6286,-116 96.2952,-116 96.2952,-116 213.705,-116 213.705,-116 217.371,-116 221.038,-119.667 221.038,-123.333 221.038,-123.333 221.038,-130.667 221.038,-130.667 221.038,-134.333 217.371,-138 213.705,-138"/>
<text text-anchor="middle" x="155" y="-123.4" font-family="Helvetica,sans-Serif" font-size="12.00" fill="white">ArrayLiteralConvertible</text>
</a>
</g>
</g>
<!-- _ArrayType -->
<g id="node13" class="node">
<g id="a_node13"><a xlink:href="/v1.2/protocol/_ArrayType/hierarchy/" target="_top">
<path fill="#999999" stroke="#999999" d="M338.19,-80C338.19,-80 281.81,-80 281.81,-80 278.144,-80 274.477,-76.3333 274.477,-72.6667 274.477,-72.6667 274.477,-65.3333 274.477,-65.3333 274.477,-61.6667 278.144,-58 281.81,-58 281.81,-58 338.19,-58 338.19,-58 341.856,-58 345.523,-61.6667 345.523,-65.3333 345.523,-65.3333 345.523,-72.6667 345.523,-72.6667 345.523,-76.3333 341.856,-80 338.19,-80"/>
<text text-anchor="middle" x="310" y="-65.4" font-family="Helvetica,sans-Serif" font-size="12.00" fill="white">_ArrayType</text>
</a>
</g>
</g>
<!-- ArrayLiteralConvertible&#45;&gt;_ArrayType -->
<g id="edge9" class="edge">
<path fill="none" stroke="#cccccc" d="M182.711,-115.988C207.761,-106.938 244.845,-93.5399 272.532,-83.5367"/>
<polygon fill="#cccccc" stroke="#cccccc" points="274.052,-86.709 282.268,-80.0192 271.674,-80.1255 274.052,-86.709"/>
</g>
<!-- CollectionType -->
<g id="node3" class="node">
<g id="a_node3"><a xlink:href="/v1.2/protocol/CollectionType/hierarchy/" target="_top">
<path fill="#999999" stroke="#999999" d="M406.704,-312C406.704,-312 333.296,-312 333.296,-312 329.63,-312 325.963,-308.333 325.963,-304.667 325.963,-304.667 325.963,-297.333 325.963,-297.333 325.963,-293.667 329.63,-290 333.296,-290 333.296,-290 406.704,-290 406.704,-290 410.37,-290 414.037,-293.667 414.037,-297.333 414.037,-297.333 414.037,-304.667 414.037,-304.667 414.037,-308.333 410.37,-312 406.704,-312"/>
<text text-anchor="middle" x="370" y="-297.4" font-family="Helvetica,sans-Serif" font-size="12.00" fill="white">CollectionType</text>
</a>
</g>
</g>
<!-- MutableCollectionType -->
<g id="node6" class="node">
<g id="a_node6"><a xlink:href="/v1.2/protocol/MutableCollectionType/hierarchy/" target="_top">
<path fill="#999999" stroke="#999999" d="M659.221,-196C659.221,-196 542.779,-196 542.779,-196 539.112,-196 535.446,-192.333 535.446,-188.667 535.446,-188.667 535.446,-181.333 535.446,-181.333 535.446,-177.667 539.112,-174 542.779,-174 542.779,-174 659.221,-174 659.221,-174 662.888,-174 666.554,-177.667 666.554,-181.333 666.554,-181.333 666.554,-188.667 666.554,-188.667 666.554,-192.333 662.888,-196 659.221,-196"/>
<text text-anchor="middle" x="601" y="-181.4" font-family="Helvetica,sans-Serif" font-size="12.00" fill="white">MutableCollectionType</text>
</a>
</g>
</g>
<!-- CollectionType&#45;&gt;MutableCollectionType -->
<g id="edge23" class="edge">
<path fill="none" stroke="#cccccc" d="M414.33,-293.396C448.034,-286.983 494.643,-275.04 531,-254 553.272,-241.112 573.755,-219.582 586.733,-204.201"/>
<polygon fill="#cccccc" stroke="#cccccc" points="589.507,-206.337 593.134,-196.382 584.091,-201.902 589.507,-206.337"/>
</g>
<!-- _ExtensibleCollectionType -->
<g id="node16" class="node">
<g id="a_node16"><a xlink:href="/v1.2/protocol/_ExtensibleCollectionType/hierarchy/" target="_top">
<path fill="#999999" stroke="#999999" d="M431.733,-254C431.733,-254 296.267,-254 296.267,-254 292.601,-254 288.934,-250.333 288.934,-246.667 288.934,-246.667 288.934,-239.333 288.934,-239.333 288.934,-235.667 292.601,-232 296.267,-232 296.267,-232 431.733,-232 431.733,-232 435.399,-232 439.066,-235.667 439.066,-239.333 439.066,-239.333 439.066,-246.667 439.066,-246.667 439.066,-250.333 435.399,-254 431.733,-254"/>
<text text-anchor="middle" x="364" y="-239.4" font-family="Helvetica,sans-Serif" font-size="12.00" fill="white">_ExtensibleCollectionType</text>
</a>
</g>
</g>
<!-- CollectionType&#45;&gt;_ExtensibleCollectionType -->
<g id="edge14" class="edge">
<path fill="none" stroke="#cccccc" d="M368.927,-289.988C368.169,-282.91 367.126,-273.171 366.194,-264.478"/>
<polygon fill="#cccccc" stroke="#cccccc" points="369.649,-263.874 365.104,-254.304 362.689,-264.62 369.649,-263.874"/>
</g>
<!-- _Sliceable -->
<g id="node19" class="node">
<g id="a_node19"><a xlink:href="/v1.2/protocol/_Sliceable/hierarchy/" target="_top">
<path fill="#999999" stroke="#999999" d="M515.194,-254C515.194,-254 464.806,-254 464.806,-254 461.139,-254 457.473,-250.333 457.473,-246.667 457.473,-246.667 457.473,-239.333 457.473,-239.333 457.473,-235.667 461.139,-232 464.806,-232 464.806,-232 515.194,-232 515.194,-232 518.861,-232 522.527,-235.667 522.527,-239.333 522.527,-239.333 522.527,-246.667 522.527,-246.667 522.527,-250.333 518.861,-254 515.194,-254"/>
<text text-anchor="middle" x="490" y="-239.4" font-family="Helvetica,sans-Serif" font-size="12.00" fill="white">_Sliceable</text>
</a>
</g>
</g>
<!-- CollectionType&#45;&gt;_Sliceable -->
<g id="edge22" class="edge">
<path fill="none" stroke="#cccccc" d="M391.454,-289.988C410.278,-281.204 437.881,-268.322 459.088,-258.425"/>
<polygon fill="#cccccc" stroke="#cccccc" points="460.746,-261.514 468.328,-254.114 457.786,-255.171 460.746,-261.514"/>
</g>
<!-- DebugPrintable -->
<g id="node4" class="node">
<g id="a_node4"><a xlink:href="/v1.2/protocol/DebugPrintable/hierarchy/" target="_top">
<path fill="#999999" stroke="#999999" d="M84.7096,-80C84.7096,-80 7.29039,-80 7.29039,-80 3.62372,-80 -0.0429445,-76.3333 -0.0429445,-72.6667 -0.0429445,-72.6667 -0.0429445,-65.3333 -0.0429445,-65.3333 -0.0429445,-61.6667 3.62372,-58 7.29039,-58 7.29039,-58 84.7096,-58 84.7096,-58 88.3763,-58 92.0429,-61.6667 92.0429,-65.3333 92.0429,-65.3333 92.0429,-72.6667 92.0429,-72.6667 92.0429,-76.3333 88.3763,-80 84.7096,-80"/>
<text text-anchor="middle" x="46" y="-65.4" font-family="Helvetica,sans-Serif" font-size="12.00" fill="white">DebugPrintable</text>
</a>
</g>
</g>
<!-- DebugPrintable&#45;&gt;Array&lt;T&gt; -->
<g id="edge5" class="edge">
<path fill="none" stroke="#cccccc" d="M77.2865,-57.9883C106.295,-48.7055 149.599,-34.8483 181.087,-24.7722"/>
<polygon fill="#cccccc" stroke="#cccccc" points="182.404,-28.0255 190.862,-21.6442 180.271,-21.3585 182.404,-28.0255"/>
</g>
<!-- ExtensibleCollectionType -->
<g id="node5" class="node">
<g id="a_node5"><a xlink:href="/v1.2/protocol/ExtensibleCollectionType/hierarchy/" target="_top">
<path fill="#999999" stroke="#999999" d="M430.727,-196C430.727,-196 301.273,-196 301.273,-196 297.607,-196 293.94,-192.333 293.94,-188.667 293.94,-188.667 293.94,-181.333 293.94,-181.333 293.94,-177.667 297.607,-174 301.273,-174 301.273,-174 430.727,-174 430.727,-174 434.393,-174 438.06,-177.667 438.06,-181.333 438.06,-181.333 438.06,-188.667 438.06,-188.667 438.06,-192.333 434.393,-196 430.727,-196"/>
<text text-anchor="middle" x="366" y="-181.4" font-family="Helvetica,sans-Serif" font-size="12.00" fill="white">ExtensibleCollectionType</text>
</a>
</g>
</g>
<!-- RangeReplaceableCollectionType -->
<g id="node9" class="node">
<g id="a_node9"><a xlink:href="/v1.2/protocol/RangeReplaceableCollectionType/hierarchy/" target="_top">
<path fill="#999999" stroke="#999999" d="M459.76,-138C459.76,-138 284.24,-138 284.24,-138 280.573,-138 276.906,-134.333 276.906,-130.667 276.906,-130.667 276.906,-123.333 276.906,-123.333 276.906,-119.667 280.573,-116 284.24,-116 284.24,-116 459.76,-116 459.76,-116 463.427,-116 467.094,-119.667 467.094,-123.333 467.094,-123.333 467.094,-130.667 467.094,-130.667 467.094,-134.333 463.427,-138 459.76,-138"/>
<text text-anchor="middle" x="372" y="-123.4" font-family="Helvetica,sans-Serif" font-size="12.00" fill="white">RangeReplaceableCollectionType</text>
</a>
</g>
</g>
<!-- ExtensibleCollectionType&#45;&gt;RangeReplaceableCollectionType -->
<g id="edge12" class="edge">
<path fill="none" stroke="#cccccc" d="M367.073,-173.988C367.831,-166.91 368.874,-157.171 369.806,-148.478"/>
<polygon fill="#cccccc" stroke="#cccccc" points="373.311,-148.62 370.896,-138.304 366.351,-147.874 373.311,-148.62"/>
</g>
<!-- MutableSliceable -->
<g id="node7" class="node">
<g id="a_node7"><a xlink:href="/v1.2/protocol/MutableSliceable/hierarchy/" target="_top">
<path fill="#999999" stroke="#999999" d="M579.208,-138C579.208,-138 492.792,-138 492.792,-138 489.126,-138 485.459,-134.333 485.459,-130.667 485.459,-130.667 485.459,-123.333 485.459,-123.333 485.459,-119.667 489.126,-116 492.792,-116 492.792,-116 579.208,-116 579.208,-116 582.874,-116 586.541,-119.667 586.541,-123.333 586.541,-123.333 586.541,-130.667 586.541,-130.667 586.541,-134.333 582.874,-138 579.208,-138"/>
<text text-anchor="middle" x="536" y="-123.4" font-family="Helvetica,sans-Serif" font-size="12.00" fill="white">MutableSliceable</text>
</a>
</g>
</g>
<!-- MutableCollectionType&#45;&gt;MutableSliceable -->
<g id="edge20" class="edge">
<path fill="none" stroke="#cccccc" d="M589.379,-173.988C580.068,-165.966 566.791,-154.527 555.808,-145.065"/>
<polygon fill="#cccccc" stroke="#cccccc" points="557.82,-142.179 547.96,-138.304 553.251,-147.483 557.82,-142.179"/>
</g>
<!-- MutableSliceable&#45;&gt;_ArrayType -->
<g id="edge8" class="edge">
<path fill="none" stroke="#cccccc" d="M495.596,-115.988C456.185,-106.223 396.345,-91.3951 355.331,-81.2325"/>
<polygon fill="#cccccc" stroke="#cccccc" points="356.141,-77.8273 345.592,-78.8193 354.457,-84.6218 356.141,-77.8273"/>
</g>
<!-- Printable -->
<g id="node8" class="node">
<g id="a_node8"><a xlink:href="/v1.2/protocol/Printable/hierarchy/" target="_top">
<path fill="#999999" stroke="#999999" d="M160.187,-80C160.187,-80 117.813,-80 117.813,-80 114.147,-80 110.48,-76.3333 110.48,-72.6667 110.48,-72.6667 110.48,-65.3333 110.48,-65.3333 110.48,-61.6667 114.147,-58 117.813,-58 117.813,-58 160.187,-58 160.187,-58 163.853,-58 167.52,-61.6667 167.52,-65.3333 167.52,-65.3333 167.52,-72.6667 167.52,-72.6667 167.52,-76.3333 163.853,-80 160.187,-80"/>
<text text-anchor="middle" x="139" y="-65.4" font-family="Helvetica,sans-Serif" font-size="12.00" fill="white">Printable</text>
</a>
</g>
</g>
<!-- Printable&#45;&gt;Array&lt;T&gt; -->
<g id="edge4" class="edge">
<path fill="none" stroke="#cccccc" d="M153.66,-57.9883C165.944,-49.5993 183.698,-37.4743 197.893,-27.7804"/>
<polygon fill="#cccccc" stroke="#cccccc" points="199.906,-30.6438 206.19,-22.1138 195.959,-24.8632 199.906,-30.6438"/>
</g>
<!-- RangeReplaceableCollectionType&#45;&gt;_ArrayType -->
<g id="edge7" class="edge">
<path fill="none" stroke="#cccccc" d="M360.916,-115.988C352.034,-107.966 339.369,-96.5272 328.893,-87.065"/>
<polygon fill="#cccccc" stroke="#cccccc" points="331.175,-84.4094 321.408,-80.3039 326.483,-89.6041 331.175,-84.4094"/>
</g>
<!-- Reflectable -->
<g id="node10" class="node">
<g id="a_node10"><a xlink:href="/v1.2/protocol/Reflectable/hierarchy/" target="_top">
<path fill="#999999" stroke="#999999" d="M248.693,-80C248.693,-80 193.307,-80 193.307,-80 189.64,-80 185.974,-76.3333 185.974,-72.6667 185.974,-72.6667 185.974,-65.3333 185.974,-65.3333 185.974,-61.6667 189.64,-58 193.307,-58 193.307,-58 248.693,-58 248.693,-58 252.36,-58 256.026,-61.6667 256.026,-65.3333 256.026,-65.3333 256.026,-72.6667 256.026,-72.6667 256.026,-76.3333 252.36,-80 248.693,-80"/>
<text text-anchor="middle" x="221" y="-65.4" font-family="Helvetica,sans-Serif" font-size="12.00" fill="white">Reflectable</text>
</a>
</g>
</g>
<!-- Reflectable&#45;&gt;Array&lt;T&gt; -->
<g id="edge3" class="edge">
<path fill="none" stroke="#cccccc" d="M221,-57.9883C221,-50.9098 221,-41.1714 221,-32.4779"/>
<polygon fill="#cccccc" stroke="#cccccc" points="224.5,-32.3038 221,-22.3039 217.5,-32.3039 224.5,-32.3038"/>
</g>
<!-- SequenceType -->
<g id="node11" class="node">
<g id="a_node11"><a xlink:href="/v1.2/protocol/SequenceType/hierarchy/" target="_top">
<path fill="#999999" stroke="#999999" d="M407.718,-370C407.718,-370 332.282,-370 332.282,-370 328.615,-370 324.949,-366.333 324.949,-362.667 324.949,-362.667 324.949,-355.333 324.949,-355.333 324.949,-351.667 328.615,-348 332.282,-348 332.282,-348 407.718,-348 407.718,-348 411.385,-348 415.051,-351.667 415.051,-355.333 415.051,-355.333 415.051,-362.667 415.051,-362.667 415.051,-366.333 411.385,-370 407.718,-370"/>
<text text-anchor="middle" x="370" y="-355.4" font-family="Helvetica,sans-Serif" font-size="12.00" fill="white">SequenceType</text>
</a>
</g>
</g>
<!-- SequenceType&#45;&gt;CollectionType -->
<g id="edge16" class="edge">
<path fill="none" stroke="#cccccc" d="M370,-347.988C370,-340.91 370,-331.171 370,-322.478"/>
<polygon fill="#cccccc" stroke="#cccccc" points="373.5,-322.304 370,-312.304 366.5,-322.304 373.5,-322.304"/>
</g>
<!-- Sliceable -->
<g id="node12" class="node">
<g id="a_node12"><a xlink:href="/v1.2/protocol/Sliceable/hierarchy/" target="_top">
<path fill="#999999" stroke="#999999" d="M509.691,-196C509.691,-196 466.309,-196 466.309,-196 462.642,-196 458.975,-192.333 458.975,-188.667 458.975,-188.667 458.975,-181.333 458.975,-181.333 458.975,-177.667 462.642,-174 466.309,-174 466.309,-174 509.691,-174 509.691,-174 513.358,-174 517.025,-177.667 517.025,-181.333 517.025,-181.333 517.025,-188.667 517.025,-188.667 517.025,-192.333 513.358,-196 509.691,-196"/>
<text text-anchor="middle" x="488" y="-181.4" font-family="Helvetica,sans-Serif" font-size="12.00" fill="white">Sliceable</text>
</a>
</g>
</g>
<!-- Sliceable&#45;&gt;MutableSliceable -->
<g id="edge19" class="edge">
<path fill="none" stroke="#cccccc" d="M496.581,-173.988C503.255,-166.202 512.688,-155.197 520.653,-145.905"/>
<polygon fill="#cccccc" stroke="#cccccc" points="523.318,-148.174 527.168,-138.304 518.003,-143.619 523.318,-148.174"/>
</g>
<!-- _ArrayType&#45;&gt;Array&lt;T&gt; -->
<g id="edge2" class="edge">
<path fill="none" stroke="#cccccc" d="M294.089,-57.9883C280.63,-49.5201 261.122,-37.2452 245.645,-27.5067"/>
<polygon fill="#cccccc" stroke="#cccccc" points="247.402,-24.4771 237.074,-22.1138 243.674,-30.4018 247.402,-24.4771"/>
</g>
<!-- _CollectionType -->
<g id="node14" class="node">
<g id="a_node14"><a xlink:href="/v1.2/protocol/_CollectionType/hierarchy/" target="_top">
<path fill="#999999" stroke="#999999" d="M299.208,-370C299.208,-370 218.792,-370 218.792,-370 215.126,-370 211.459,-366.333 211.459,-362.667 211.459,-362.667 211.459,-355.333 211.459,-355.333 211.459,-351.667 215.126,-348 218.792,-348 218.792,-348 299.208,-348 299.208,-348 302.874,-348 306.541,-351.667 306.541,-355.333 306.541,-355.333 306.541,-362.667 306.541,-362.667 306.541,-366.333 302.874,-370 299.208,-370"/>
<text text-anchor="middle" x="259" y="-355.4" font-family="Helvetica,sans-Serif" font-size="12.00" fill="white">_CollectionType</text>
</a>
</g>
</g>
<!-- _CollectionType&#45;&gt;CollectionType -->
<g id="edge15" class="edge">
<path fill="none" stroke="#cccccc" d="M278.845,-347.988C296.1,-339.283 321.331,-326.554 340.875,-316.694"/>
<polygon fill="#cccccc" stroke="#cccccc" points="342.601,-319.743 349.953,-312.114 339.448,-313.493 342.601,-319.743"/>
</g>
<!-- __ArrayType -->
<g id="node20" class="node">
<g id="a_node20"><a xlink:href="/v1.2/protocol/__ArrayType/hierarchy/" target="_top">
<path fill="#999999" stroke="#999999" d="M285.696,-312C285.696,-312 222.304,-312 222.304,-312 218.637,-312 214.971,-308.333 214.971,-304.667 214.971,-304.667 214.971,-297.333 214.971,-297.333 214.971,-293.667 218.637,-290 222.304,-290 222.304,-290 285.696,-290 285.696,-290 289.363,-290 293.029,-293.667 293.029,-297.333 293.029,-297.333 293.029,-304.667 293.029,-304.667 293.029,-308.333 289.363,-312 285.696,-312"/>
<text text-anchor="middle" x="254" y="-297.4" font-family="Helvetica,sans-Serif" font-size="12.00" fill="white">__ArrayType</text>
</a>
</g>
</g>
<!-- _CollectionType&#45;&gt;__ArrayType -->
<g id="edge10" class="edge">
<path fill="none" stroke="#cccccc" d="M258.106,-347.988C257.474,-340.91 256.605,-331.171 255.828,-322.478"/>
<polygon fill="#cccccc" stroke="#cccccc" points="259.296,-321.953 254.92,-312.304 252.323,-322.576 259.296,-321.953"/>
</g>
<!-- _DestructorSafeContainer -->
<g id="node15" class="node">
<g id="a_node15"><a xlink:href="/v1.2/protocol/_DestructorSafeContainer/hierarchy/" target="_top">
<path fill="#999999" stroke="#999999" d="M504.721,-80C504.721,-80 371.279,-80 371.279,-80 367.612,-80 363.946,-76.3333 363.946,-72.6667 363.946,-72.6667 363.946,-65.3333 363.946,-65.3333 363.946,-61.6667 367.612,-58 371.279,-58 371.279,-58 504.721,-58 504.721,-58 508.388,-58 512.054,-61.6667 512.054,-65.3333 512.054,-65.3333 512.054,-72.6667 512.054,-72.6667 512.054,-76.3333 508.388,-80 504.721,-80"/>
<text text-anchor="middle" x="438" y="-65.4" font-family="Helvetica,sans-Serif" font-size="12.00" fill="white">_DestructorSafeContainer</text>
</a>
</g>
</g>
<!-- _DestructorSafeContainer&#45;&gt;Array&lt;T&gt; -->
<g id="edge1" class="edge">
<path fill="none" stroke="#cccccc" d="M399.205,-57.9883C360.178,-47.9169 300.286,-32.4609 260.878,-22.2912"/>
<polygon fill="#cccccc" stroke="#cccccc" points="261.638,-18.8725 251.08,-19.7627 259.888,-25.6505 261.638,-18.8725"/>
</g>
<!-- _ExtensibleCollectionType&#45;&gt;ExtensibleCollectionType -->
<g id="edge13" class="edge">
<path fill="none" stroke="#cccccc" d="M364.358,-231.988C364.61,-224.91 364.958,-215.171 365.269,-206.478"/>
<polygon fill="#cccccc" stroke="#cccccc" points="368.773,-206.422 365.632,-196.304 361.777,-206.173 368.773,-206.422"/>
</g>
<!-- _SequenceType -->
<g id="node17" class="node">
<g id="a_node17"><a xlink:href="/v1.2/protocol/_SequenceType/hierarchy/" target="_top">
<path fill="#999999" stroke="#999999" d="M358.724,-486C358.724,-486 277.276,-486 277.276,-486 273.609,-486 269.943,-482.333 269.943,-478.667 269.943,-478.667 269.943,-471.333 269.943,-471.333 269.943,-467.667 273.609,-464 277.276,-464 277.276,-464 358.724,-464 358.724,-464 362.391,-464 366.057,-467.667 366.057,-471.333 366.057,-471.333 366.057,-478.667 366.057,-478.667 366.057,-482.333 362.391,-486 358.724,-486"/>
<text text-anchor="middle" x="318" y="-471.4" font-family="Helvetica,sans-Serif" font-size="12.00" fill="white">_SequenceType</text>
</a>
</g>
</g>
<!-- _SequenceType&#45;&gt;_CollectionType -->
<g id="edge11" class="edge">
<path fill="none" stroke="#cccccc" d="M312.764,-463.883C302.948,-444.917 281.633,-403.732 268.989,-379.3"/>
<polygon fill="#cccccc" stroke="#cccccc" points="272.014,-377.53 264.309,-370.258 265.797,-380.748 272.014,-377.53"/>
</g>
<!-- _Sequence_Type -->
<g id="node18" class="node">
<g id="a_node18"><a xlink:href="/v1.2/protocol/_Sequence_Type/hierarchy/" target="_top">
<path fill="#999999" stroke="#999999" d="M406.228,-428C406.228,-428 317.772,-428 317.772,-428 314.105,-428 310.439,-424.333 310.439,-420.667 310.439,-420.667 310.439,-413.333 310.439,-413.333 310.439,-409.667 314.105,-406 317.772,-406 317.772,-406 406.228,-406 406.228,-406 409.895,-406 413.561,-409.667 413.561,-413.333 413.561,-413.333 413.561,-420.667 413.561,-420.667 413.561,-424.333 409.895,-428 406.228,-428"/>
<text text-anchor="middle" x="362" y="-413.4" font-family="Helvetica,sans-Serif" font-size="12.00" fill="white">_Sequence_Type</text>
</a>
</g>
</g>
<!-- _SequenceType&#45;&gt;_Sequence_Type -->
<g id="edge18" class="edge">
<path fill="none" stroke="#cccccc" d="M325.866,-463.988C331.922,-456.281 340.456,-445.419 347.71,-436.187"/>
<polygon fill="#cccccc" stroke="#cccccc" points="350.478,-438.329 353.904,-428.304 344.974,-434.005 350.478,-438.329"/>
</g>
<!-- _Sequence_Type&#45;&gt;SequenceType -->
<g id="edge17" class="edge">
<path fill="none" stroke="#cccccc" d="M363.43,-405.988C364.441,-398.91 365.833,-389.171 367.075,-380.478"/>
<polygon fill="#cccccc" stroke="#cccccc" points="370.579,-380.698 368.528,-370.304 363.649,-379.708 370.579,-380.698"/>
</g>
<!-- _Sliceable&#45;&gt;Sliceable -->
<g id="edge21" class="edge">
<path fill="none" stroke="#cccccc" d="M489.642,-231.988C489.39,-224.91 489.042,-215.171 488.731,-206.478"/>
<polygon fill="#cccccc" stroke="#cccccc" points="492.223,-206.173 488.368,-196.304 485.227,-206.422 492.223,-206.173"/>
</g>
<!-- __ArrayType&#45;&gt;_ArrayType -->
<g id="edge6" class="edge">
<path fill="none" stroke="#cccccc" d="M252.556,-289.886C248.915,-261.208 241.436,-177.462 268,-116 272.747,-105.017 281.236,-94.9353 289.345,-87.0272"/>
<polygon fill="#cccccc" stroke="#cccccc" points="291.848,-89.4818 296.87,-80.1529 287.126,-84.3138 291.848,-89.4818"/>
</g>
</g>
</svg>
