<?xml version="1.0" encoding="UTF-8" standalone="no"?>
<!DOCTYPE svg PUBLIC "-//W3C//DTD SVG 1.1//EN"
 "http://www.w3.org/Graphics/SVG/1.1/DTD/svg11.dtd">
<!-- Generated by graphviz version 2.36.0 (20140111.2315)
 -->
<!-- Title: Reflectable &#45; Type Hierarchy &#45; SwiftDoc.org Pages: 1 -->
<svg width="3564pt" height="195pt"
 viewBox="0.00 0.00 3564.40 195.20" xmlns="http://www.w3.org/2000/svg" xmlns:xlink="http://www.w3.org/1999/xlink">
<g id="graph0" class="graph" transform="scale(1 1) rotate(0) translate(7.2 137.6)">
<title>Reflectable &#45; Type Hierarchy &#45; SwiftDoc.org</title>
<polygon fill="white" stroke="none" points="-7.2,57.6 -7.2,-137.6 3557.2,-137.6 3557.2,57.6 -7.2,57.6"/>
<!-- Array -->
<g id="node1" class="node"><title>Array</title>
<g id="a_node1"><a xlink:href="/type/Array/" xlink:title="Array">
<polygon fill="#999999" stroke="#999999" points="54,-22 0,-22 0,-0 54,-0 54,-22"/>
<text text-anchor="middle" x="27" y="-7.4" font-family="Helvetica,sans-Serif" font-size="12.00" fill="white">Array</text>
</a>
</g>
</g>
<!-- ArraySlice -->
<g id="node2" class="node"><title>ArraySlice</title>
<g id="a_node2"><a xlink:href="/type/ArraySlice/" xlink:title="ArraySlice">
<polygon fill="#999999" stroke="#999999" points="136.011,-22 71.9886,-22 71.9886,-0 136.011,-0 136.011,-22"/>
<text text-anchor="middle" x="104" y="-7.4" font-family="Helvetica,sans-Serif" font-size="12.00" fill="white">ArraySlice</text>
</a>
</g>
</g>
<!-- Bit -->
<g id="node3" class="node"><title>Bit</title>
<g id="a_node3"><a xlink:href="/type/Bit/" xlink:title="Bit">
<polygon fill="#999999" stroke="#999999" points="1408,-22 1354,-22 1354,-0 1408,-0 1408,-22"/>
<text text-anchor="middle" x="1381" y="-7.4" font-family="Helvetica,sans-Serif" font-size="12.00" fill="white">Bit</text>
</a>
</g>
</g>
<!-- Bool -->
<g id="node4" class="node"><title>Bool</title>
<g id="a_node4"><a xlink:href="/type/Bool/" xlink:title="Bool">
<polygon fill="#999999" stroke="#999999" points="208,-22 154,-22 154,-0 208,-0 208,-22"/>
<text text-anchor="middle" x="181" y="-7.4" font-family="Helvetica,sans-Serif" font-size="12.00" fill="white">Bool</text>
</a>
</g>
</g>
<!-- Character -->
<g id="node5" class="node"><title>Character</title>
<g id="a_node5"><a xlink:href="/type/Character/" xlink:title="Character">
<polygon fill="#999999" stroke="#999999" points="288.017,-22 225.983,-22 225.983,-0 288.017,-0 288.017,-22"/>
<text text-anchor="middle" x="257" y="-7.4" font-family="Helvetica,sans-Serif" font-size="12.00" fill="white">Character</text>
</a>
</g>
</g>
<!-- ClosedInterval -->
<g id="node6" class="node"><title>ClosedInterval</title>
<g id="a_node6"><a xlink:href="/type/ClosedInterval/" xlink:title="ClosedInterval">
<polygon fill="#999999" stroke="#999999" points="393.03,-22 306.97,-22 306.97,-0 393.03,-0 393.03,-22"/>
<text text-anchor="middle" x="350" y="-7.4" font-family="Helvetica,sans-Serif" font-size="12.00" fill="white">ClosedInterval</text>
</a>
</g>
</g>
<!-- CollectionOfOne -->
<g id="node7" class="node"><title>CollectionOfOne</title>
<g id="a_node7"><a xlink:href="/type/CollectionOfOne/" xlink:title="CollectionOfOne">
<polygon fill="#999999" stroke="#999999" points="509.032,-22 410.968,-22 410.968,-0 509.032,-0 509.032,-22"/>
<text text-anchor="middle" x="460" y="-7.4" font-family="Helvetica,sans-Serif" font-size="12.00" fill="white">CollectionOfOne</text>
</a>
</g>
</g>
<!-- ContiguousArray -->
<g id="node8" class="node"><title>ContiguousArray</title>
<g id="a_node8"><a xlink:href="/type/ContiguousArray/" xlink:title="ContiguousArray">
<polygon fill="#999999" stroke="#999999" points="626.534,-22 527.466,-22 527.466,-0 626.534,-0 626.534,-22"/>
<text text-anchor="middle" x="577" y="-7.4" font-family="Helvetica,sans-Serif" font-size="12.00" fill="white">ContiguousArray</text>
</a>
</g>
</g>
<!-- Dictionary -->
<g id="node9" class="node"><title>Dictionary</title>
<g id="a_node9"><a xlink:href="/type/Dictionary/" xlink:title="Dictionary">
<polygon fill="#999999" stroke="#999999" points="707.511,-22 644.489,-22 644.489,-0 707.511,-0 707.511,-22"/>
<text text-anchor="middle" x="676" y="-7.4" font-family="Helvetica,sans-Serif" font-size="12.00" fill="white">Dictionary</text>
</a>
</g>
</g>
<!-- Double -->
<g id="node10" class="node"><title>Double</title>
<g id="a_node10"><a xlink:href="/type/Double/" xlink:title="Double">
<polygon fill="#999999" stroke="#999999" points="780,-22 726,-22 726,-0 780,-0 780,-22"/>
<text text-anchor="middle" x="753" y="-7.4" font-family="Helvetica,sans-Serif" font-size="12.00" fill="white">Double</text>
</a>
</g>
</g>
<!-- EmptyCollection -->
<g id="node11" class="node"><title>EmptyCollection</title>
<g id="a_node11"><a xlink:href="/type/EmptyCollection/" xlink:title="EmptyCollection">
<polygon fill="#999999" stroke="#999999" points="894.027,-22 797.973,-22 797.973,-0 894.027,-0 894.027,-22"/>
<text text-anchor="middle" x="846" y="-7.4" font-family="Helvetica,sans-Serif" font-size="12.00" fill="white">EmptyCollection</text>
</a>
</g>
</g>
<!-- Float -->
<g id="node12" class="node"><title>Float</title>
<g id="a_node12"><a xlink:href="/type/Float/" xlink:title="Float">
<polygon fill="#999999" stroke="#999999" points="966,-22 912,-22 912,-0 966,-0 966,-22"/>
<text text-anchor="middle" x="939" y="-7.4" font-family="Helvetica,sans-Serif" font-size="12.00" fill="white">Float</text>
</a>
</g>
</g>
<!-- HalfOpenInterval -->
<g id="node13" class="node"><title>HalfOpenInterval</title>
<g id="a_node13"><a xlink:href="/type/HalfOpenInterval/" xlink:title="HalfOpenInterval">
<polygon fill="#999999" stroke="#999999" points="1084.04,-22 983.965,-22 983.965,-0 1084.04,-0 1084.04,-22"/>
<text text-anchor="middle" x="1034" y="-7.4" font-family="Helvetica,sans-Serif" font-size="12.00" fill="white">HalfOpenInterval</text>
</a>
</g>
</g>
<!-- ImplicitlyUnwrappedOptional -->
<g id="node14" class="node"><title>ImplicitlyUnwrappedOptional</title>
<g id="a_node14"><a xlink:href="/type/ImplicitlyUnwrappedOptional/" xlink:title="ImplicitlyUnwrappedOptional">
<polygon fill="#999999" stroke="#999999" points="1264.05,-22 1101.95,-22 1101.95,-0 1264.05,-0 1264.05,-22"/>
<text text-anchor="middle" x="1183" y="-7.4" font-family="Helvetica,sans-Serif" font-size="12.00" fill="white">ImplicitlyUnwrappedOptional</text>
</a>
</g>
</g>
<!-- Int -->
<g id="node15" class="node"><title>Int</title>
<g id="a_node15"><a xlink:href="/type/Int/" xlink:title="Int">
<polygon fill="#999999" stroke="#999999" points="1336,-22 1282,-22 1282,-0 1336,-0 1336,-22"/>
<text text-anchor="middle" x="1309" y="-7.4" font-family="Helvetica,sans-Serif" font-size="12.00" fill="white">Int</text>
</a>
</g>
</g>
<!-- Int&#45;&gt;Bit -->
<g id="edge39" class="edge"><title>Int&#45;&gt;Bit</title>
<path fill="none" stroke="#cccccc" d="M1336.28,-11C1338.74,-11 1341.19,-11 1343.65,-11"/>
<polygon fill="#cccccc" stroke="#cccccc" points="1343.75,-14.5001 1353.75,-11 1343.75,-7.5001 1343.75,-14.5001"/>
</g>
<!-- Int16 -->
<g id="node16" class="node"><title>Int16</title>
<g id="a_node16"><a xlink:href="/type/Int16/" xlink:title="Int16">
<polygon fill="#999999" stroke="#999999" points="1480,-22 1426,-22 1426,-0 1480,-0 1480,-22"/>
<text text-anchor="middle" x="1453" y="-7.4" font-family="Helvetica,sans-Serif" font-size="12.00" fill="white">Int16</text>
</a>
</g>
</g>
<!-- Int32 -->
<g id="node17" class="node"><title>Int32</title>
<g id="a_node17"><a xlink:href="/type/Int32/" xlink:title="Int32">
<polygon fill="#999999" stroke="#999999" points="1552,-22 1498,-22 1498,-0 1552,-0 1552,-22"/>
<text text-anchor="middle" x="1525" y="-7.4" font-family="Helvetica,sans-Serif" font-size="12.00" fill="white">Int32</text>
</a>
</g>
</g>
<!-- Int64 -->
<g id="node18" class="node"><title>Int64</title>
<g id="a_node18"><a xlink:href="/type/Int64/" xlink:title="Int64">
<polygon fill="#999999" stroke="#999999" points="1624,-22 1570,-22 1570,-0 1624,-0 1624,-22"/>
<text text-anchor="middle" x="1597" y="-7.4" font-family="Helvetica,sans-Serif" font-size="12.00" fill="white">Int64</text>
</a>
</g>
</g>
<!-- Int8 -->
<g id="node19" class="node"><title>Int8</title>
<g id="a_node19"><a xlink:href="/type/Int8/" xlink:title="Int8">
<polygon fill="#999999" stroke="#999999" points="1696,-22 1642,-22 1642,-0 1696,-0 1696,-22"/>
<text text-anchor="middle" x="1669" y="-7.4" font-family="Helvetica,sans-Serif" font-size="12.00" fill="white">Int8</text>
</a>
</g>
</g>
<!-- Optional -->
<g id="node20" class="node"><title>Optional</title>
<g id="a_node20"><a xlink:href="/type/Optional/" xlink:title="Optional">
<polygon fill="#999999" stroke="#999999" points="1768.02,-22 1713.98,-22 1713.98,-0 1768.02,-0 1768.02,-22"/>
<text text-anchor="middle" x="1741" y="-7.4" font-family="Helvetica,sans-Serif" font-size="12.00" fill="white">Optional</text>
</a>
</g>
</g>
<!-- Range -->
<g id="node21" class="node"><title>Range</title>
<g id="a_node21"><a xlink:href="/type/Range/" xlink:title="Range">
<polygon fill="#999999" stroke="#999999" points="1840,-22 1786,-22 1786,-0 1840,-0 1840,-22"/>
<text text-anchor="middle" x="1813" y="-7.4" font-family="Helvetica,sans-Serif" font-size="12.00" fill="white">Range</text>
</a>
</g>
</g>
<!-- Reflectable -->
<g id="node22" class="node"><title>Reflectable</title>
<g id="a_node22"><a xlink:href="/protocol/Reflectable/" xlink:title="Reflectable">
<path fill="#ee543d" stroke="#ee543d" d="M1732.69,-80C1732.69,-80 1677.31,-80 1677.31,-80 1673.64,-80 1669.97,-76.3333 1669.97,-72.6667 1669.97,-72.6667 1669.97,-65.3333 1669.97,-65.3333 1669.97,-61.6667 1673.64,-58 1677.31,-58 1677.31,-58 1732.69,-58 1732.69,-58 1736.36,-58 1740.03,-61.6667 1740.03,-65.3333 1740.03,-65.3333 1740.03,-72.6667 1740.03,-72.6667 1740.03,-76.3333 1736.36,-80 1732.69,-80"/>
<text text-anchor="middle" x="1705" y="-65.4" font-family="Helvetica,sans-Serif" font-size="12.00" fill="white">Reflectable</text>
</a>
</g>
</g>
<!-- Reflectable&#45;&gt;Array -->
<g id="edge1" class="edge"><title>Reflectable&#45;&gt;Array</title>
<path fill="none" stroke="#cccccc" d="M1669.72,-68.1758C1463.28,-69.0307 409.231,-70.961 64.3634,-21.81"/>
<polygon fill="#cccccc" stroke="#cccccc" points="64.7713,-18.3324 54.3686,-20.3409 63.7533,-25.258 64.7713,-18.3324"/>
</g>
<!-- Reflectable&#45;&gt;ArraySlice -->
<g id="edge2" class="edge"><title>Reflectable&#45;&gt;ArraySlice</title>
<path fill="none" stroke="#cccccc" d="M1669.88,-67.9651C1470.11,-67.6166 474.665,-63.8397 146.103,-21.8237"/>
<polygon fill="#cccccc" stroke="#cccccc" points="146.479,-18.3431 136.107,-20.5054 145.564,-25.283 146.479,-18.3431"/>
</g>
<!-- Reflectable&#45;&gt;Bit -->
<g id="edge3" class="edge"><title>Reflectable&#45;&gt;Bit</title>
<path fill="none" stroke="#cccccc" d="M1669.74,-63.6697C1617.02,-56.9131 1514.39,-42.6716 1417.96,-22.0151"/>
<polygon fill="#cccccc" stroke="#cccccc" points="1418.56,-18.5646 1408.05,-19.8642 1417.08,-25.4054 1418.56,-18.5646"/>
</g>
<!-- Reflectable&#45;&gt;Bool -->
<g id="edge4" class="edge"><title>Reflectable&#45;&gt;Bool</title>
<path fill="none" stroke="#cccccc" d="M1669.89,-68.0568C1475.69,-68.1998 530.817,-66.626 218.324,-21.8078"/>
<polygon fill="#cccccc" stroke="#cccccc" points="218.775,-18.3365 208.37,-20.3324 217.749,-25.2608 218.775,-18.3365"/>
</g>
<!-- Reflectable&#45;&gt;Character -->
<g id="edge5" class="edge"><title>Reflectable&#45;&gt;Character</title>
<path fill="none" stroke="#cccccc" d="M1669.98,-67.8352C1482.59,-66.8064 596.077,-60.0487 298.545,-21.6941"/>
<polygon fill="#cccccc" stroke="#cccccc" points="298.586,-18.1687 288.212,-20.3164 297.661,-25.1073 298.586,-18.1687"/>
</g>
<!-- Reflectable&#45;&gt;ClosedInterval -->
<g id="edge6" class="edge"><title>Reflectable&#45;&gt;ClosedInterval</title>
<path fill="none" stroke="#cccccc" d="M1669.96,-67.4971C1491.12,-64.8201 678.178,-51.2928 403.005,-21.9075"/>
<polygon fill="#cccccc" stroke="#cccccc" points="403.375,-18.4272 393.051,-20.8108 402.608,-25.3851 403.375,-18.4272"/>
</g>
<!-- Reflectable&#45;&gt;CollectionOfOne -->
<g id="edge7" class="edge"><title>Reflectable&#45;&gt;CollectionOfOne</title>
<path fill="none" stroke="#cccccc" d="M1669.92,-68.3275C1527.61,-69.3032 979.385,-69.6427 519.465,-22.0176"/>
<polygon fill="#cccccc" stroke="#cccccc" points="519.609,-18.5136 509.299,-20.9555 518.881,-25.4757 519.609,-18.5136"/>
</g>
<!-- Reflectable&#45;&gt;ContiguousArray -->
<g id="edge8" class="edge"><title>Reflectable&#45;&gt;ContiguousArray</title>
<path fill="none" stroke="#cccccc" d="M1669.78,-68.1165C1536.17,-68.2161 1047.83,-65.4711 636.62,-22.0495"/>
<polygon fill="#cccccc" stroke="#cccccc" points="636.93,-18.5629 626.616,-20.9835 636.188,-25.5235 636.93,-18.5629"/>
</g>
<!-- Reflectable&#45;&gt;Dictionary -->
<g id="edge9" class="edge"><title>Reflectable&#45;&gt;Dictionary</title>
<path fill="none" stroke="#cccccc" d="M1669.94,-67.2742C1519.39,-64.0198 926.268,-49.7631 717.605,-21.7497"/>
<polygon fill="#cccccc" stroke="#cccccc" points="718.054,-18.2785 707.666,-20.3622 717.086,-25.2113 718.054,-18.2785"/>
</g>
<!-- Reflectable&#45;&gt;Double -->
<g id="edge10" class="edge"><title>Reflectable&#45;&gt;Double</title>
<path fill="none" stroke="#cccccc" d="M1669.56,-67.2658C1525.5,-64.1233 982.821,-50.7079 790.368,-21.8409"/>
<polygon fill="#cccccc" stroke="#cccccc" points="790.8,-18.3659 780.379,-20.2765 789.717,-25.2816 790.8,-18.3659"/>
</g>
<!-- Reflectable&#45;&gt;EmptyCollection -->
<g id="edge11" class="edge"><title>Reflectable&#45;&gt;EmptyCollection</title>
<path fill="none" stroke="#cccccc" d="M1669.7,-67.4397C1558.6,-65.3671 1206.12,-56.4329 904.405,-22.0342"/>
<polygon fill="#cccccc" stroke="#cccccc" points="904.479,-18.5197 894.144,-20.8522 903.678,-25.4737 904.479,-18.5197"/>
</g>
<!-- Reflectable&#45;&gt;Float -->
<g id="edge12" class="edge"><title>Reflectable&#45;&gt;Float</title>
<path fill="none" stroke="#cccccc" d="M1669.75,-68.3628C1565.1,-68.8954 1247.11,-66.5803 976.399,-21.915"/>
<polygon fill="#cccccc" stroke="#cccccc" points="976.825,-18.4377 966.385,-20.2396 975.67,-25.3418 976.825,-18.4377"/>
</g>
<!-- Reflectable&#45;&gt;HalfOpenInterval -->
<g id="edge13" class="edge"><title>Reflectable&#45;&gt;HalfOpenInterval</title>
<path fill="none" stroke="#cccccc" d="M1669.7,-66.4957C1577.05,-62.3024 1319.11,-49.0543 1094.17,-22.0424"/>
<polygon fill="#cccccc" stroke="#cccccc" points="1094.51,-18.558 1084.17,-20.8286 1093.67,-25.5071 1094.51,-18.558"/>
</g>
<!-- Reflectable&#45;&gt;ImplicitlyUnwrappedOptional -->
<g id="edge14" class="edge"><title>Reflectable&#45;&gt;ImplicitlyUnwrappedOptional</title>
<path fill="none" stroke="#cccccc" d="M1669.72,-64.2981C1597.6,-56.7199 1427.84,-38.8208 1274.51,-22.1605"/>
<polygon fill="#cccccc" stroke="#cccccc" points="1274.75,-18.6666 1264.43,-21.065 1274,-25.6256 1274.75,-18.6666"/>
</g>
<!-- Reflectable&#45;&gt;Int -->
<g id="edge15" class="edge"><title>Reflectable&#45;&gt;Int</title>
<path fill="none" stroke="#cccccc" d="M1669.98,-65.211C1607.01,-59.8342 1470.42,-46.5201 1346.1,-21.9754"/>
<polygon fill="#cccccc" stroke="#cccccc" points="1346.52,-18.4902 1336.03,-19.9565 1345.14,-25.3537 1346.52,-18.4902"/>
</g>
<!-- Reflectable&#45;&gt;Int16 -->
<g id="edge16" class="edge"><title>Reflectable&#45;&gt;Int16</title>
<path fill="none" stroke="#cccccc" d="M1669.68,-61.1678C1628.71,-53.091 1558.93,-38.8693 1489.82,-22.0966"/>
<polygon fill="#cccccc" stroke="#cccccc" points="1490.63,-18.6894 1480.08,-19.7133 1488.96,-25.489 1490.63,-18.6894"/>
</g>
<!-- Reflectable&#45;&gt;Int32 -->
<g id="edge17" class="edge"><title>Reflectable&#45;&gt;Int32</title>
<path fill="none" stroke="#cccccc" d="M1672.82,-57.9883C1641.66,-48.2947 1594.47,-33.6128 1561.83,-23.4573"/>
<polygon fill="#cccccc" stroke="#cccccc" points="1562.79,-20.0902 1552.2,-20.4615 1560.71,-26.7742 1562.79,-20.0902"/>
</g>
<!-- Reflectable&#45;&gt;Int64 -->
<g id="edge18" class="edge"><title>Reflectable&#45;&gt;Int64</title>
<path fill="none" stroke="#cccccc" d="M1685.69,-57.9883C1668.98,-49.3223 1644.58,-36.6696 1625.6,-26.8283"/>
<polygon fill="#cccccc" stroke="#cccccc" points="1626.99,-23.6099 1616.51,-22.1138 1623.77,-29.8242 1626.99,-23.6099"/>
</g>
<!-- Reflectable&#45;&gt;Int8 -->
<g id="edge19" class="edge"><title>Reflectable&#45;&gt;Int8</title>
<path fill="none" stroke="#cccccc" d="M1698.56,-57.9883C1693.71,-50.4379 1686.91,-39.8611 1681.06,-30.7543"/>
<polygon fill="#cccccc" stroke="#cccccc" points="1683.98,-28.823 1675.62,-22.3039 1678.09,-32.6083 1683.98,-28.823"/>
</g>
<!-- Reflectable&#45;&gt;Optional -->
<g id="edge20" class="edge"><title>Reflectable&#45;&gt;Optional</title>
<path fill="none" stroke="#cccccc" d="M1711.44,-57.9883C1716.29,-50.4379 1723.09,-39.8611 1728.94,-30.7543"/>
<polygon fill="#cccccc" stroke="#cccccc" points="1731.91,-32.6083 1734.38,-22.3039 1726.02,-28.823 1731.91,-32.6083"/>
</g>
<!-- Reflectable&#45;&gt;Range -->
<g id="edge21" class="edge"><title>Reflectable&#45;&gt;Range</title>
<path fill="none" stroke="#cccccc" d="M1724.31,-57.9883C1741.02,-49.3223 1765.42,-36.6696 1784.4,-26.8283"/>
<polygon fill="#cccccc" stroke="#cccccc" points="1786.23,-29.8242 1793.49,-22.1138 1783.01,-23.6099 1786.23,-29.8242"/>
</g>
<!-- Set -->
<g id="node23" class="node"><title>Set</title>
<g id="a_node23"><a xlink:href="/type/Set/" xlink:title="Set">
<polygon fill="#999999" stroke="#999999" points="1912,-22 1858,-22 1858,-0 1912,-0 1912,-22"/>
<text text-anchor="middle" x="1885" y="-7.4" font-family="Helvetica,sans-Serif" font-size="12.00" fill="white">Set</text>
</a>
</g>
</g>
<!-- Reflectable&#45;&gt;Set -->
<g id="edge22" class="edge"><title>Reflectable&#45;&gt;Set</title>
<path fill="none" stroke="#cccccc" d="M1737.18,-57.9883C1768.34,-48.2947 1815.53,-33.6128 1848.17,-23.4573"/>
<polygon fill="#cccccc" stroke="#cccccc" points="1849.29,-26.7742 1857.8,-20.4615 1847.21,-20.0902 1849.29,-26.7742"/>
</g>
<!-- StaticString -->
<g id="node24" class="node"><title>StaticString</title>
<g id="a_node24"><a xlink:href="/type/StaticString/" xlink:title="StaticString">
<polygon fill="#999999" stroke="#999999" points="2001.52,-22 1930.48,-22 1930.48,-0 2001.52,-0 2001.52,-22"/>
<text text-anchor="middle" x="1966" y="-7.4" font-family="Helvetica,sans-Serif" font-size="12.00" fill="white">StaticString</text>
</a>
</g>
</g>
<!-- Reflectable&#45;&gt;StaticString -->
<g id="edge23" class="edge"><title>Reflectable&#45;&gt;StaticString</title>
<path fill="none" stroke="#cccccc" d="M1740.19,-60.6059C1781.04,-52.0007 1850.69,-37.2584 1920.75,-22.0402"/>
<polygon fill="#cccccc" stroke="#cccccc" points="1921.61,-25.4357 1930.63,-19.8902 1920.12,-18.5956 1921.61,-25.4357"/>
</g>
<!-- StrideThrough -->
<g id="node25" class="node"><title>StrideThrough</title>
<g id="a_node25"><a xlink:href="/type/StrideThrough/" xlink:title="StrideThrough">
<polygon fill="#999999" stroke="#999999" points="2106.03,-22 2019.97,-22 2019.97,-0 2106.03,-0 2106.03,-22"/>
<text text-anchor="middle" x="2063" y="-7.4" font-family="Helvetica,sans-Serif" font-size="12.00" fill="white">StrideThrough</text>
</a>
</g>
</g>
<!-- Reflectable&#45;&gt;StrideThrough -->
<g id="edge24" class="edge"><title>Reflectable&#45;&gt;StrideThrough</title>
<path fill="none" stroke="#cccccc" d="M1740.29,-63.1076C1797.17,-55.1261 1912.59,-38.5291 2010,-22 2010.1,-21.9829 2010.2,-21.9657 2010.3,-21.9485"/>
<polygon fill="#cccccc" stroke="#cccccc" points="2010.68,-25.4361 2019.93,-20.2645 2009.47,-18.5409 2010.68,-25.4361"/>
</g>
<!-- StrideTo -->
<g id="node26" class="node"><title>StrideTo</title>
<g id="a_node26"><a xlink:href="/type/StrideTo/" xlink:title="StrideTo">
<polygon fill="#999999" stroke="#999999" points="2178.02,-22 2123.98,-22 2123.98,-0 2178.02,-0 2178.02,-22"/>
<text text-anchor="middle" x="2151" y="-7.4" font-family="Helvetica,sans-Serif" font-size="12.00" fill="white">StrideTo</text>
</a>
</g>
</g>
<!-- Reflectable&#45;&gt;StrideTo -->
<g id="edge25" class="edge"><title>Reflectable&#45;&gt;StrideTo</title>
<path fill="none" stroke="#cccccc" d="M1740.11,-65.9513C1809.74,-61.4837 1970.27,-49.1661 2114.1,-21.9048"/>
<polygon fill="#cccccc" stroke="#cccccc" points="2114.82,-25.329 2123.98,-20.0019 2113.5,-18.4552 2114.82,-25.329"/>
</g>
<!-- String -->
<g id="node27" class="node"><title>String</title>
<g id="a_node27"><a xlink:href="/type/String/" xlink:title="String">
<polygon fill="#999999" stroke="#999999" points="2250,-22 2196,-22 2196,-0 2250,-0 2250,-22"/>
<text text-anchor="middle" x="2223" y="-7.4" font-family="Helvetica,sans-Serif" font-size="12.00" fill="white">String</text>
</a>
</g>
</g>
<!-- Reflectable&#45;&gt;String -->
<g id="edge26" class="edge"><title>Reflectable&#45;&gt;String</title>
<path fill="none" stroke="#cccccc" d="M1740.07,-66.7649C1818.46,-63.5543 2013.85,-53.0514 2185.99,-21.8892"/>
<polygon fill="#cccccc" stroke="#cccccc" points="2186.79,-25.3017 2195.99,-20.0509 2185.52,-18.4171 2186.79,-25.3017"/>
</g>
<!-- String.CharacterView.Index -->
<g id="node28" class="node"><title>String.CharacterView.Index</title>
<g id="a_node28"><a xlink:href="/type/String.CharacterView.Index/" xlink:title="String.CharacterView.Index">
<polygon fill="#999999" stroke="#999999" points="2423.4,-22 2268.6,-22 2268.6,-0 2423.4,-0 2423.4,-22"/>
<text text-anchor="middle" x="2346" y="-7.4" font-family="Helvetica,sans-Serif" font-size="12.00" fill="white">String.CharacterView.Index</text>
</a>
</g>
</g>
<!-- Reflectable&#45;&gt;String.CharacterView.Index -->
<g id="edge38" class="edge"><title>Reflectable&#45;&gt;String.CharacterView.Index</title>
<path fill="none" stroke="#cccccc" d="M1740.04,-65.4772C1826.2,-59.1903 2055.52,-41.9568 2258.73,-21.9971"/>
<polygon fill="#cccccc" stroke="#cccccc" points="2259.08,-25.4793 2268.69,-21.0143 2258.4,-18.5131 2259.08,-25.4793"/>
</g>
<!-- String.UTF16View -->
<g id="node29" class="node"><title>String.UTF16View</title>
<g id="a_node29"><a xlink:href="/type/String.UTF16View/" xlink:title="String.UTF16View">
<polygon fill="#999999" stroke="#999999" points="2548.37,-22 2441.63,-22 2441.63,-0 2548.37,-0 2548.37,-22"/>
<text text-anchor="middle" x="2495" y="-7.4" font-family="Helvetica,sans-Serif" font-size="12.00" fill="white">String.UTF16View</text>
</a>
</g>
</g>
<!-- Reflectable&#45;&gt;String.UTF16View -->
<g id="edge36" class="edge"><title>Reflectable&#45;&gt;String.UTF16View</title>
<path fill="none" stroke="#cccccc" d="M1740.28,-66.9465C1844.36,-63.589 2159.27,-51.6363 2431.36,-21.9632"/>
<polygon fill="#cccccc" stroke="#cccccc" points="2431.87,-25.4283 2441.43,-20.855 2431.11,-18.4703 2431.87,-25.4283"/>
</g>
<!-- String.UTF8View -->
<g id="node30" class="node"><title>String.UTF8View</title>
<g id="a_node30"><a xlink:href="/type/String.UTF8View/" xlink:title="String.UTF8View">
<polygon fill="#999999" stroke="#999999" points="2667.36,-22 2566.64,-22 2566.64,-0 2667.36,-0 2667.36,-22"/>
<text text-anchor="middle" x="2617" y="-7.4" font-family="Helvetica,sans-Serif" font-size="12.00" fill="white">String.UTF8View</text>
</a>
</g>
</g>
<!-- Reflectable&#45;&gt;String.UTF8View -->
<g id="edge37" class="edge"><title>Reflectable&#45;&gt;String.UTF8View</title>
<path fill="none" stroke="#cccccc" d="M1740.01,-67.504C1855.25,-65.5772 2233.3,-56.9173 2556.61,-21.907"/>
<polygon fill="#cccccc" stroke="#cccccc" points="2557.08,-25.3766 2566.64,-20.8104 2556.32,-18.418 2557.08,-25.3766"/>
</g>
<!-- String.UnicodeScalarView -->
<g id="node31" class="node"><title>String.UnicodeScalarView</title>
<g id="a_node31"><a xlink:href="/type/String.UnicodeScalarView/" xlink:title="String.UnicodeScalarView">
<polygon fill="#999999" stroke="#999999" points="2833.89,-22 2686.11,-22 2686.11,-0 2833.89,-0 2833.89,-22"/>
<text text-anchor="middle" x="2760" y="-7.4" font-family="Helvetica,sans-Serif" font-size="12.00" fill="white">String.UnicodeScalarView</text>
</a>
</g>
</g>
<!-- Reflectable&#45;&gt;String.UnicodeScalarView -->
<g id="edge35" class="edge"><title>Reflectable&#45;&gt;String.UnicodeScalarView</title>
<path fill="none" stroke="#cccccc" d="M1740.33,-67.2343C1865.97,-64.3198 2303.04,-52.5455 2675.65,-21.9615"/>
<polygon fill="#cccccc" stroke="#cccccc" points="2676.15,-25.4325 2685.83,-21.1204 2675.57,-18.4563 2676.15,-25.4325"/>
</g>
<!-- UInt -->
<g id="node32" class="node"><title>UInt</title>
<g id="a_node32"><a xlink:href="/type/UInt/" xlink:title="UInt">
<polygon fill="#999999" stroke="#999999" points="2906,-22 2852,-22 2852,-0 2906,-0 2906,-22"/>
<text text-anchor="middle" x="2879" y="-7.4" font-family="Helvetica,sans-Serif" font-size="12.00" fill="white">UInt</text>
</a>
</g>
</g>
<!-- Reflectable&#45;&gt;UInt -->
<g id="edge27" class="edge"><title>Reflectable&#45;&gt;UInt</title>
<path fill="none" stroke="#cccccc" d="M1740.23,-67.6687C1905.16,-65.9531 2602.61,-56.8296 2841.61,-21.8292"/>
<polygon fill="#cccccc" stroke="#cccccc" points="2842.27,-25.2702 2851.63,-20.3049 2841.21,-18.3499 2842.27,-25.2702"/>
</g>
<!-- UInt16 -->
<g id="node33" class="node"><title>UInt16</title>
<g id="a_node33"><a xlink:href="/type/UInt16/" xlink:title="UInt16">
<polygon fill="#999999" stroke="#999999" points="2978,-22 2924,-22 2924,-0 2978,-0 2978,-22"/>
<text text-anchor="middle" x="2951" y="-7.4" font-family="Helvetica,sans-Serif" font-size="12.00" fill="white">UInt16</text>
</a>
</g>
</g>
<!-- Reflectable&#45;&gt;UInt16 -->
<g id="edge28" class="edge"><title>Reflectable&#45;&gt;UInt16</title>
<path fill="none" stroke="#cccccc" d="M1740.13,-67.7675C1911.3,-66.4687 2659.66,-58.8351 2913.71,-21.8115"/>
<polygon fill="#cccccc" stroke="#cccccc" points="2914.26,-25.2681 2923.63,-20.3119 2913.22,-18.3468 2914.26,-25.2681"/>
</g>
<!-- UInt32 -->
<g id="node34" class="node"><title>UInt32</title>
<g id="a_node34"><a xlink:href="/type/UInt32/" xlink:title="UInt32">
<polygon fill="#999999" stroke="#999999" points="3050,-22 2996,-22 2996,-0 3050,-0 3050,-22"/>
<text text-anchor="middle" x="3023" y="-7.4" font-family="Helvetica,sans-Serif" font-size="12.00" fill="white">UInt32</text>
</a>
</g>
</g>
<!-- Reflectable&#45;&gt;UInt32 -->
<g id="edge29" class="edge"><title>Reflectable&#45;&gt;UInt32</title>
<path fill="none" stroke="#cccccc" d="M1740.12,-67.8544C1917.43,-66.9519 2716.13,-60.8476 2985.5,-21.8392"/>
<polygon fill="#cccccc" stroke="#cccccc" points="2986.26,-25.2648 2995.63,-20.318 2985.22,-18.3425 2986.26,-25.2648"/>
</g>
<!-- UInt64 -->
<g id="node35" class="node"><title>UInt64</title>
<g id="a_node35"><a xlink:href="/type/UInt64/" xlink:title="UInt64">
<polygon fill="#999999" stroke="#999999" points="3122,-22 3068,-22 3068,-0 3122,-0 3122,-22"/>
<text text-anchor="middle" x="3095" y="-7.4" font-family="Helvetica,sans-Serif" font-size="12.00" fill="white">UInt64</text>
</a>
</g>
</g>
<!-- Reflectable&#45;&gt;UInt64 -->
<g id="edge30" class="edge"><title>Reflectable&#45;&gt;UInt64</title>
<path fill="none" stroke="#cccccc" d="M1740.23,-67.9318C1923.8,-67.4069 2772.75,-62.8552 3057.34,-21.8602"/>
<polygon fill="#cccccc" stroke="#cccccc" points="3058.26,-25.2622 3067.63,-20.3236 3057.22,-18.339 3058.26,-25.2622"/>
</g>
<!-- UInt8 -->
<g id="node36" class="node"><title>UInt8</title>
<g id="a_node36"><a xlink:href="/type/UInt8/" xlink:title="UInt8">
<polygon fill="#999999" stroke="#999999" points="3194,-22 3140,-22 3140,-0 3194,-0 3194,-22"/>
<text text-anchor="middle" x="3167" y="-7.4" font-family="Helvetica,sans-Serif" font-size="12.00" fill="white">UInt8</text>
</a>
</g>
</g>
<!-- Reflectable&#45;&gt;UInt8 -->
<g id="edge31" class="edge"><title>Reflectable&#45;&gt;UInt8</title>
<path fill="none" stroke="#cccccc" d="M1740.2,-68.0019C1929.65,-67.8417 2830.24,-64.8749 3129.66,-21.8115"/>
<polygon fill="#cccccc" stroke="#cccccc" points="3130.25,-25.262 3139.63,-20.3285 3129.22,-18.3382 3130.25,-25.262"/>
</g>
<!-- UnicodeScalar -->
<g id="node37" class="node"><title>UnicodeScalar</title>
<g id="a_node37"><a xlink:href="/type/UnicodeScalar/" xlink:title="UnicodeScalar">
<polygon fill="#999999" stroke="#999999" points="3300.03,-22 3211.97,-22 3211.97,-0 3300.03,-0 3300.03,-22"/>
<text text-anchor="middle" x="3256" y="-7.4" font-family="Helvetica,sans-Serif" font-size="12.00" fill="white">UnicodeScalar</text>
</a>
</g>
</g>
<!-- Reflectable&#45;&gt;UnicodeScalar -->
<g id="edge32" class="edge"><title>Reflectable&#45;&gt;UnicodeScalar</title>
<path fill="none" stroke="#cccccc" d="M1740.29,-67.6635C1935.51,-65.6902 2885.47,-54.6007 3201.75,-21.9382"/>
<polygon fill="#cccccc" stroke="#cccccc" points="3202.26,-25.4045 3211.83,-20.8665 3201.52,-18.4437 3202.26,-25.4045"/>
</g>
<!-- UnsafeMutablePointer -->
<g id="node38" class="node"><title>UnsafeMutablePointer</title>
<g id="a_node38"><a xlink:href="/type/UnsafeMutablePointer/" xlink:title="UnsafeMutablePointer">
<polygon fill="#999999" stroke="#999999" points="3446.05,-22 3317.95,-22 3317.95,-0 3446.05,-0 3446.05,-22"/>
<text text-anchor="middle" x="3382" y="-7.4" font-family="Helvetica,sans-Serif" font-size="12.00" fill="white">UnsafeMutablePointer</text>
</a>
</g>
</g>
<!-- Reflectable&#45;&gt;UnsafeMutablePointer -->
<g id="edge33" class="edge"><title>Reflectable&#45;&gt;UnsafeMutablePointer</title>
<path fill="none" stroke="#cccccc" d="M1740.05,-67.5083C1942.84,-64.5868 2968.2,-48.7494 3307.48,-22.0245"/>
<polygon fill="#cccccc" stroke="#cccccc" points="3307.87,-25.5042 3317.55,-21.2105 3307.31,-18.5269 3307.87,-25.5042"/>
</g>
<!-- UnsafePointer -->
<g id="node39" class="node"><title>UnsafePointer</title>
<g id="a_node39"><a xlink:href="/type/UnsafePointer/" xlink:title="UnsafePointer">
<polygon fill="#999999" stroke="#999999" points="3550.03,-22 3463.97,-22 3463.97,-0 3550.03,-0 3550.03,-22"/>
<text text-anchor="middle" x="3507" y="-7.4" font-family="Helvetica,sans-Serif" font-size="12.00" fill="white">UnsafePointer</text>
</a>
</g>
</g>
<!-- Reflectable&#45;&gt;UnsafePointer -->
<g id="edge34" class="edge"><title>Reflectable&#45;&gt;UnsafePointer</title>
<path fill="none" stroke="#cccccc" d="M1740.06,-67.8615C1953.75,-66.9001 3083.83,-60.1147 3453.76,-21.9223"/>
<polygon fill="#cccccc" stroke="#cccccc" points="3454.38,-25.3766 3463.95,-20.8411 3453.64,-18.4157 3454.38,-25.3766"/>
</g>
</g>
</svg>
