<?xml version="1.0" encoding="UTF-8" standalone="no"?>
<!DOCTYPE svg PUBLIC "-//W3C//DTD SVG 1.1//EN"
 "http://www.w3.org/Graphics/SVG/1.1/DTD/svg11.dtd">
<!-- Generated by graphviz version 2.36.0 (20140111.2315)
 -->
<!-- Title: String &#45; Type Hierarchy &#45; SwiftDoc.org Pages: 1 -->
<svg width="1209pt" height="543pt"
 viewBox="0.00 0.00 1209.40 543.20" xmlns="http://www.w3.org/2000/svg" xmlns:xlink="http://www.w3.org/1999/xlink">
<g id="graph0" class="graph" transform="scale(1 1) rotate(0) translate(7.2 485.6)">
<g transform="translate(0 -485.6)">
<g>
    <path fill="#666666" d="M13.846,10.832c-0.336-0.464-0.792-0.844-1.368-1.14s-1.224-0.444-1.944-0.444
        c-0.384,0-0.772,0.052-1.164,0.156C8.977,9.509,8.622,9.677,8.301,9.908c-0.32,0.232-0.58,0.52-0.78,0.864
        c-0.2,0.344-0.3,0.756-0.3,1.236c0,0.464,0.092,0.852,0.276,1.164c0.184,0.312,0.432,0.576,0.744,0.792s0.68,0.4,1.104,0.552
        c0.423,0.152,0.876,0.309,1.356,0.468c0.576,0.177,1.16,0.376,1.752,0.601c0.592,0.224,1.128,0.52,1.608,0.888
        s0.872,0.828,1.176,1.38s0.456,1.252,0.456,2.101c0,0.88-0.164,1.644-0.492,2.292c-0.328,0.647-0.765,1.184-1.308,1.607
        c-0.544,0.424-1.172,0.74-1.884,0.948s-1.444,0.312-2.196,0.312c-1.072,0-2.108-0.208-3.108-0.624
        c-1-0.415-1.828-1.031-2.484-1.848l1.848-1.56c0.4,0.592,0.936,1.071,1.608,1.439c0.672,0.368,1.399,0.552,2.184,0.552
        c0.4,0,0.8-0.056,1.2-0.168c0.4-0.111,0.764-0.288,1.092-0.527c0.328-0.24,0.596-0.54,0.804-0.9
        c0.208-0.36,0.312-0.796,0.312-1.308s-0.108-0.94-0.324-1.284c-0.216-0.344-0.508-0.636-0.876-0.876s-0.796-0.444-1.284-0.612
        c-0.488-0.168-1.004-0.34-1.548-0.516c-0.544-0.16-1.08-0.356-1.608-0.588c-0.528-0.232-1-0.528-1.416-0.889
        c-0.416-0.359-0.752-0.804-1.008-1.332c-0.256-0.527-0.384-1.184-0.384-1.968c0-0.848,0.172-1.576,0.516-2.184
        c0.344-0.608,0.792-1.112,1.344-1.512c0.552-0.4,1.176-0.692,1.872-0.876c0.696-0.184,1.396-0.276,2.1-0.276
        c0.992,0,1.92,0.176,2.784,0.528c0.864,0.352,1.56,0.824,2.088,1.416L13.846,10.832z"/>
    <path fill="#666666" d="M18.813,13.304l2.568,8.688h0.048l2.712-8.688h2.376l2.76,8.688h0.048l2.568-8.688h2.376L30.501,24.68
        h-2.352l-2.808-8.544h-0.048l-2.784,8.544h-2.352l-3.792-11.376H18.813z"/>
    <path fill="#666666" d="M38.685,9.2c0,0.416-0.147,0.76-0.44,1.032c-0.294,0.272-0.647,0.408-1.06,0.408s-0.762-0.14-1.047-0.42
        c-0.286-0.28-0.429-0.62-0.429-1.02c0-0.416,0.143-0.764,0.429-1.044c0.286-0.28,0.635-0.42,1.047-0.42s0.766,0.14,1.06,0.42
        C38.538,8.437,38.685,8.784,38.685,9.2z M38.325,24.68h-2.256V13.304h2.256V24.68z"/>
    <path fill="#666666" d="M47.613,15.152h-2.64v9.528h-2.256v-9.528h-2.256v-1.848h2.256v-2.376c0-0.672,0.076-1.292,0.228-1.86
        c0.152-0.568,0.4-1.06,0.744-1.476c0.344-0.416,0.784-0.744,1.32-0.984c0.536-0.24,1.188-0.36,1.956-0.36
        c0.544,0,1.016,0.056,1.416,0.168l-0.264,1.944c-0.176-0.048-0.352-0.088-0.528-0.12c-0.176-0.032-0.376-0.048-0.6-0.048
        c-0.432,0-0.78,0.076-1.044,0.228c-0.264,0.152-0.468,0.356-0.612,0.612s-0.24,0.548-0.288,0.876
        c-0.048,0.328-0.072,0.668-0.072,1.02v2.376h2.64V15.152z"/>
    <path fill="#666666" d="M54.909,15.152h-3.024v5.91c0,0.687,0.128,1.177,0.384,1.472c0.256,0.295,0.664,0.442,1.224,0.442
        c0.208,0,0.432-0.021,0.672-0.065c0.24-0.044,0.456-0.11,0.648-0.198l0.072,1.848c-0.272,0.096-0.572,0.172-0.9,0.229
        c-0.328,0.056-0.668,0.084-1.02,0.084c-1.072,0-1.892-0.296-2.46-0.889c-0.568-0.592-0.852-1.479-0.852-2.664v-6.168h-2.184
        v-1.848h2.184V10.04h2.232v3.264h3.024V15.152z"/>
    <path fill="#666666" d="M57.356,7.688h5.832c1.088,0,2.176,0.16,3.264,0.48c1.088,0.32,2.072,0.824,2.952,1.512
        s1.592,1.568,2.136,2.64c0.544,1.072,0.816,2.36,0.816,3.864c0,1.456-0.272,2.716-0.816,3.78s-1.256,1.943-2.136,2.64
        s-1.864,1.216-2.952,1.561c-1.088,0.344-2.176,0.516-3.264,0.516h-5.832V7.688z M59.732,22.593h2.976
        c1.024,0,1.972-0.145,2.844-0.432c0.872-0.288,1.624-0.704,2.256-1.248c0.632-0.544,1.124-1.216,1.476-2.017
        c0.352-0.8,0.528-1.704,0.528-2.712c0-1.056-0.176-1.983-0.528-2.784c-0.353-0.8-0.844-1.468-1.476-2.004
        c-0.632-0.536-1.384-0.944-2.256-1.224s-1.82-0.42-2.844-0.42h-2.976V22.593z"/>
    <path fill="#666666" d="M86.06,18.969c0,0.88-0.156,1.688-0.468,2.424c-0.312,0.736-0.744,1.372-1.296,1.908
        c-0.552,0.536-1.204,0.952-1.956,1.248c-0.752,0.296-1.56,0.443-2.424,0.443c-0.864,0-1.672-0.147-2.424-0.443
        c-0.752-0.296-1.4-0.712-1.944-1.248c-0.544-0.536-0.972-1.172-1.284-1.908c-0.312-0.735-0.468-1.544-0.468-2.424
        s0.156-1.684,0.468-2.412c0.312-0.728,0.74-1.356,1.284-1.884c0.543-0.528,1.191-0.939,1.944-1.236
        c0.752-0.296,1.56-0.444,2.424-0.444c0.864,0,1.672,0.148,2.424,0.444c0.752,0.297,1.404,0.708,1.956,1.236
        c0.552,0.527,0.984,1.156,1.296,1.884C85.904,17.285,86.06,18.089,86.06,18.969z M83.708,18.98c0-0.542-0.084-1.061-0.252-1.556
        c-0.169-0.494-0.414-0.929-0.734-1.304s-0.718-0.674-1.192-0.897s-1.015-0.335-1.625-0.335c-0.61,0-1.152,0.111-1.625,0.335
        c-0.474,0.224-0.871,0.522-1.191,0.897c-0.321,0.375-0.566,0.81-0.734,1.304C76.184,17.92,76.1,18.438,76.1,18.98
        c0,0.543,0.084,1.062,0.253,1.556c0.168,0.495,0.413,0.934,0.734,1.316c0.321,0.383,0.718,0.686,1.191,0.909
        c0.473,0.224,1.015,0.335,1.625,0.335c0.61,0,1.151-0.111,1.625-0.335s0.871-0.526,1.192-0.909s0.565-0.821,0.734-1.316
        C83.624,20.042,83.708,19.523,83.708,18.98z"/>
    <path fill="#666666" d="M96.428,16.184c-0.24-0.368-0.6-0.676-1.08-0.924s-0.992-0.372-1.536-0.372
        c-0.592,0-1.116,0.112-1.572,0.336c-0.456,0.225-0.844,0.524-1.164,0.9c-0.32,0.376-0.564,0.812-0.732,1.308
        s-0.252,1.017-0.252,1.56c0,0.545,0.084,1.064,0.252,1.561s0.412,0.933,0.732,1.308c0.32,0.376,0.712,0.677,1.176,0.9
        c0.464,0.225,0.992,0.336,1.584,0.336c0.576,0,1.1-0.111,1.572-0.336c0.472-0.224,0.86-0.528,1.164-0.912l1.512,1.368
        c-0.48,0.561-1.08,0.996-1.8,1.308c-0.72,0.312-1.536,0.468-2.448,0.468c-0.88,0-1.692-0.144-2.436-0.432
        c-0.744-0.288-1.388-0.691-1.932-1.212c-0.544-0.52-0.972-1.147-1.284-1.884s-0.468-1.561-0.468-2.473
        c0-0.896,0.152-1.711,0.456-2.447c0.304-0.736,0.728-1.368,1.272-1.896c0.543-0.527,1.188-0.936,1.932-1.224
        c0.744-0.288,1.548-0.433,2.412-0.433c0.8,0,1.596,0.16,2.388,0.48s1.419,0.784,1.884,1.392L96.428,16.184z"/>
    <path fill="#666666" d="M103.1,23.24c0,0.417-0.152,0.784-0.456,1.104c-0.304,0.32-0.688,0.479-1.152,0.479
        c-0.448,0-0.828-0.155-1.14-0.468c-0.312-0.312-0.468-0.676-0.468-1.092c0-0.432,0.152-0.804,0.456-1.116
        c0.304-0.312,0.688-0.468,1.152-0.468c0.464,0,0.848,0.152,1.152,0.456C102.947,22.44,103.1,22.808,103.1,23.24z"/>
    <path fill="#666666" d="M116.635,18.969c0,0.88-0.156,1.688-0.468,2.424c-0.312,0.736-0.744,1.372-1.296,1.908
        c-0.552,0.536-1.204,0.952-1.956,1.248c-0.752,0.296-1.56,0.443-2.424,0.443c-0.864,0-1.672-0.147-2.424-0.443
        c-0.752-0.296-1.4-0.712-1.944-1.248c-0.544-0.536-0.972-1.172-1.284-1.908c-0.312-0.735-0.468-1.544-0.468-2.424
        s0.156-1.684,0.468-2.412c0.312-0.728,0.74-1.356,1.284-1.884c0.543-0.528,1.191-0.939,1.944-1.236
        c0.752-0.296,1.56-0.444,2.424-0.444c0.864,0,1.672,0.148,2.424,0.444c0.752,0.297,1.404,0.708,1.956,1.236
        c0.552,0.527,0.984,1.156,1.296,1.884C116.479,17.285,116.635,18.089,116.635,18.969z M114.283,18.98
        c0-0.542-0.084-1.061-0.252-1.556c-0.169-0.494-0.414-0.929-0.734-1.304s-0.718-0.674-1.192-0.897s-1.015-0.335-1.625-0.335
        c-0.61,0-1.152,0.111-1.625,0.335c-0.474,0.224-0.871,0.522-1.191,0.897c-0.321,0.375-0.566,0.81-0.734,1.304
        c-0.169,0.495-0.253,1.014-0.253,1.556c0,0.543,0.084,1.062,0.253,1.556c0.168,0.495,0.413,0.934,0.734,1.316
        c0.321,0.383,0.718,0.686,1.191,0.909c0.473,0.224,1.015,0.335,1.625,0.335c0.61,0,1.151-0.111,1.625-0.335
        s0.871-0.526,1.192-0.909s0.565-0.821,0.734-1.316C114.199,20.042,114.283,19.523,114.283,18.98z"/>
    <path fill="#666666" d="M119.251,14.577c-0.016-0.48-0.04-0.904-0.072-1.272h2.136c0.032,0.288,0.056,0.62,0.072,0.996
        c0.016,0.376,0.024,0.684,0.024,0.924h0.072c0.32-0.672,0.788-1.212,1.404-1.62c0.616-0.408,1.308-0.612,2.076-0.612
        c0.352,0,0.648,0.033,0.888,0.097l-0.096,2.088c-0.32-0.08-0.664-0.12-1.032-0.12c-0.544,0-1.016,0.101-1.416,0.3
        c-0.4,0.2-0.732,0.468-0.996,0.805c-0.264,0.336-0.46,0.724-0.588,1.163c-0.128,0.44-0.192,0.9-0.192,1.381v5.976h-2.256v-8.928
        C119.275,15.449,119.267,15.056,119.251,14.577z"/>
    <path fill="#666666" d="M128.419,26.625c0.496,0.56,1.116,1.008,1.86,1.344c0.744,0.336,1.508,0.504,2.292,0.504
        c0.752,0,1.384-0.108,1.896-0.324s0.924-0.512,1.236-0.888s0.536-0.82,0.672-1.332c0.136-0.513,0.204-1.064,0.204-1.656v-1.464
        h-0.048c-0.416,0.641-0.984,1.128-1.704,1.464c-0.72,0.336-1.488,0.504-2.304,0.504c-0.864,0-1.652-0.151-2.364-0.456
        c-0.712-0.304-1.316-0.72-1.812-1.248c-0.496-0.527-0.88-1.147-1.152-1.859s-0.408-1.477-0.408-2.292
        c0-0.816,0.136-1.584,0.408-2.305c0.272-0.72,0.656-1.348,1.152-1.884c0.496-0.535,1.096-0.96,1.8-1.271
        c0.704-0.312,1.488-0.469,2.352-0.469c0.816,0,1.596,0.177,2.34,0.528c0.744,0.353,1.332,0.888,1.764,1.608h0.048v-1.824h2.184
        v10.8c0,0.832-0.104,1.628-0.312,2.388c-0.208,0.76-0.56,1.433-1.056,2.017s-1.144,1.052-1.944,1.404
        c-0.8,0.352-1.792,0.527-2.976,0.527c-0.992,0-1.988-0.18-2.988-0.54c-1-0.359-1.86-0.868-2.58-1.523L128.419,26.625z
         M129.091,18.873c0,0.527,0.084,1.031,0.253,1.512c0.168,0.479,0.417,0.904,0.746,1.271c0.329,0.369,0.726,0.664,1.192,0.889
        c0.465,0.224,0.995,0.336,1.589,0.336c0.577,0,1.107-0.104,1.589-0.312c0.481-0.207,0.891-0.491,1.228-0.852
        s0.598-0.784,0.782-1.272c0.185-0.487,0.277-1.012,0.277-1.571c0-0.544-0.093-1.057-0.277-1.536
        c-0.185-0.48-0.449-0.904-0.794-1.272c-0.345-0.367-0.755-0.66-1.228-0.876c-0.474-0.216-1-0.324-1.577-0.324
        c-0.594,0-1.124,0.108-1.589,0.324c-0.466,0.216-0.863,0.504-1.192,0.864s-0.578,0.784-0.746,1.271
        C129.175,17.812,129.091,18.329,129.091,18.873z"/>
</g>
<g><a xlink:href="/" pointer-events="all" target="_top"><polygon fill="none" points="0,0 145,0 145,35 0,35 0,0"/></a></g>

</g>


<!-- CollectionType -->
<g id="node1" class="node">
<g id="a_node1"><a xlink:href="/v1.2/protocol/CollectionType/hierarchy/" target="_top">
<path fill="#999999" stroke="#999999" d="M1130.7,-254C1130.7,-254 1057.3,-254 1057.3,-254 1053.63,-254 1049.96,-250.333 1049.96,-246.667 1049.96,-246.667 1049.96,-239.333 1049.96,-239.333 1049.96,-235.667 1053.63,-232 1057.3,-232 1057.3,-232 1130.7,-232 1130.7,-232 1134.37,-232 1138.04,-235.667 1138.04,-239.333 1138.04,-239.333 1138.04,-246.667 1138.04,-246.667 1138.04,-250.333 1134.37,-254 1130.7,-254"/>
<text text-anchor="middle" x="1094" y="-239.4" font-family="Helvetica,sans-Serif" font-size="12.00" fill="white">CollectionType</text>
</a>
</g>
</g>
<!-- _ExtensibleCollectionType -->
<g id="node20" class="node">
<g id="a_node20"><a xlink:href="/v1.2/protocol/_ExtensibleCollectionType/hierarchy/" target="_top">
<path fill="#999999" stroke="#999999" d="M1098.73,-196C1098.73,-196 963.267,-196 963.267,-196 959.601,-196 955.934,-192.333 955.934,-188.667 955.934,-188.667 955.934,-181.333 955.934,-181.333 955.934,-177.667 959.601,-174 963.267,-174 963.267,-174 1098.73,-174 1098.73,-174 1102.4,-174 1106.07,-177.667 1106.07,-181.333 1106.07,-181.333 1106.07,-188.667 1106.07,-188.667 1106.07,-192.333 1102.4,-196 1098.73,-196"/>
<text text-anchor="middle" x="1031" y="-181.4" font-family="Helvetica,sans-Serif" font-size="12.00" fill="white">_ExtensibleCollectionType</text>
</a>
</g>
</g>
<!-- CollectionType&#45;&gt;_ExtensibleCollectionType -->
<g id="edge25" class="edge">
<path fill="none" stroke="#cccccc" d="M1082.74,-231.988C1073.71,-223.966 1060.84,-212.527 1050.2,-203.065"/>
<polygon fill="#cccccc" stroke="#cccccc" points="1052.39,-200.332 1042.59,-196.304 1047.74,-205.563 1052.39,-200.332"/>
</g>
<!-- _Sliceable -->
<g id="node23" class="node">
<g id="a_node23"><a xlink:href="/v1.2/protocol/_Sliceable/hierarchy/" target="_top">
<path fill="#999999" stroke="#999999" d="M1182.19,-196C1182.19,-196 1131.81,-196 1131.81,-196 1128.14,-196 1124.47,-192.333 1124.47,-188.667 1124.47,-188.667 1124.47,-181.333 1124.47,-181.333 1124.47,-177.667 1128.14,-174 1131.81,-174 1131.81,-174 1182.19,-174 1182.19,-174 1185.86,-174 1189.53,-177.667 1189.53,-181.333 1189.53,-181.333 1189.53,-188.667 1189.53,-188.667 1189.53,-192.333 1185.86,-196 1182.19,-196"/>
<text text-anchor="middle" x="1157" y="-181.4" font-family="Helvetica,sans-Serif" font-size="12.00" fill="white">_Sliceable</text>
</a>
</g>
</g>
<!-- CollectionType&#45;&gt;_Sliceable -->
<g id="edge17" class="edge">
<path fill="none" stroke="#cccccc" d="M1105.26,-231.988C1114.29,-223.966 1127.16,-212.527 1137.8,-203.065"/>
<polygon fill="#cccccc" stroke="#cccccc" points="1140.26,-205.563 1145.41,-196.304 1135.61,-200.332 1140.26,-205.563"/>
</g>
<!-- Comparable -->
<g id="node2" class="node">
<g id="a_node2"><a xlink:href="/v1.2/protocol/Comparable/hierarchy/" target="_top">
<path fill="#999999" stroke="#999999" d="M76.1913,-80C76.1913,-80 15.8087,-80 15.8087,-80 12.1421,-80 8.47538,-76.3333 8.47538,-72.6667 8.47538,-72.6667 8.47538,-65.3333 8.47538,-65.3333 8.47538,-61.6667 12.1421,-58 15.8087,-58 15.8087,-58 76.1913,-58 76.1913,-58 79.8579,-58 83.5246,-61.6667 83.5246,-65.3333 83.5246,-65.3333 83.5246,-72.6667 83.5246,-72.6667 83.5246,-76.3333 79.8579,-80 76.1913,-80"/>
<text text-anchor="middle" x="46" y="-65.4" font-family="Helvetica,sans-Serif" font-size="12.00" fill="white">Comparable</text>
</a>
</g>
</g>
<!-- String -->
<g id="node14" class="node">
<g id="a_node14"><a xlink:href="/v1.2/type/String/" target="_top">
<polygon fill="#ee543d" stroke="#ee543d" points="526,-22 472,-22 472,-0 526,-0 526,-22"/>
<text text-anchor="middle" x="499" y="-7.4" font-family="Helvetica,sans-Serif" font-size="12.00" fill="white">String</text>
</a>
</g>
</g>
<!-- Comparable&#45;&gt;String -->
<g id="edge6" class="edge">
<path fill="none" stroke="#cccccc" d="M83.3937,-59.7027C86.6354,-59.0871 89.871,-58.5089 93,-58 227.862,-36.0659 389.62,-21.0976 461.456,-15.0298"/>
<polygon fill="#cccccc" stroke="#cccccc" points="462.119,-18.4867 471.793,-14.166 461.536,-11.511 462.119,-18.4867"/>
</g>
<!-- DebugPrintable -->
<g id="node3" class="node">
<g id="a_node3"><a xlink:href="/v1.2/protocol/DebugPrintable/hierarchy/" target="_top">
<path fill="#999999" stroke="#999999" d="M265.71,-80C265.71,-80 188.29,-80 188.29,-80 184.624,-80 180.957,-76.3333 180.957,-72.6667 180.957,-72.6667 180.957,-65.3333 180.957,-65.3333 180.957,-61.6667 184.624,-58 188.29,-58 188.29,-58 265.71,-58 265.71,-58 269.376,-58 273.043,-61.6667 273.043,-65.3333 273.043,-65.3333 273.043,-72.6667 273.043,-72.6667 273.043,-76.3333 269.376,-80 265.71,-80"/>
<text text-anchor="middle" x="227" y="-65.4" font-family="Helvetica,sans-Serif" font-size="12.00" fill="white">DebugPrintable</text>
</a>
</g>
</g>
<!-- DebugPrintable&#45;&gt;String -->
<g id="edge5" class="edge">
<path fill="none" stroke="#cccccc" d="M273.141,-58.5004C326.346,-47.5464 412.762,-29.7548 461.841,-19.6504"/>
<polygon fill="#cccccc" stroke="#cccccc" points="462.633,-23.0609 471.721,-17.6162 461.221,-16.2047 462.633,-23.0609"/>
</g>
<!-- Equatable -->
<g id="node4" class="node">
<g id="a_node4"><a xlink:href="/v1.2/protocol/Equatable/hierarchy/" target="_top">
<path fill="#999999" stroke="#999999" d="M156.702,-138C156.702,-138 107.298,-138 107.298,-138 103.632,-138 99.9648,-134.333 99.9648,-130.667 99.9648,-130.667 99.9648,-123.333 99.9648,-123.333 99.9648,-119.667 103.632,-116 107.298,-116 107.298,-116 156.702,-116 156.702,-116 160.368,-116 164.035,-119.667 164.035,-123.333 164.035,-123.333 164.035,-130.667 164.035,-130.667 164.035,-134.333 160.368,-138 156.702,-138"/>
<text text-anchor="middle" x="132" y="-123.4" font-family="Helvetica,sans-Serif" font-size="12.00" fill="white">Equatable</text>
</a>
</g>
</g>
<!-- Equatable&#45;&gt;Comparable -->
<g id="edge14" class="edge">
<path fill="none" stroke="#cccccc" d="M116.625,-115.988C103.742,-107.599 85.1213,-95.4743 70.2342,-85.7804"/>
<polygon fill="#cccccc" stroke="#cccccc" points="71.8218,-82.6376 61.5319,-80.1138 68.0021,-88.5036 71.8218,-82.6376"/>
</g>
<!-- Hashable -->
<g id="node7" class="node">
<g id="a_node7"><a xlink:href="/v1.2/protocol/Hashable/hierarchy/" target="_top">
<path fill="#999999" stroke="#999999" d="M154.694,-80C154.694,-80 109.306,-80 109.306,-80 105.639,-80 101.973,-76.3333 101.973,-72.6667 101.973,-72.6667 101.973,-65.3333 101.973,-65.3333 101.973,-61.6667 105.639,-58 109.306,-58 109.306,-58 154.694,-58 154.694,-58 158.361,-58 162.027,-61.6667 162.027,-65.3333 162.027,-65.3333 162.027,-72.6667 162.027,-72.6667 162.027,-76.3333 158.361,-80 154.694,-80"/>
<text text-anchor="middle" x="132" y="-65.4" font-family="Helvetica,sans-Serif" font-size="12.00" fill="white">Hashable</text>
</a>
</g>
</g>
<!-- Equatable&#45;&gt;Hashable -->
<g id="edge15" class="edge">
<path fill="none" stroke="#cccccc" d="M132,-115.988C132,-108.91 132,-99.1714 132,-90.4779"/>
<polygon fill="#cccccc" stroke="#cccccc" points="135.5,-90.3038 132,-80.3039 128.5,-90.3039 135.5,-90.3038"/>
</g>
<!-- ExtendedGraphemeClusterLiteralConvertible -->
<g id="node5" class="node">
<g id="a_node5"><a xlink:href="/v1.2/protocol/ExtendedGraphemeClusterLiteralConvertible/hierarchy/" target="_top">
<path fill="#999999" stroke="#999999" d="M934.762,-138C934.762,-138 701.238,-138 701.238,-138 697.572,-138 693.905,-134.333 693.905,-130.667 693.905,-130.667 693.905,-123.333 693.905,-123.333 693.905,-119.667 697.572,-116 701.238,-116 701.238,-116 934.762,-116 934.762,-116 938.428,-116 942.095,-119.667 942.095,-123.333 942.095,-123.333 942.095,-130.667 942.095,-130.667 942.095,-134.333 938.428,-138 934.762,-138"/>
<text text-anchor="middle" x="818" y="-123.4" font-family="Helvetica,sans-Serif" font-size="12.00" fill="white">ExtendedGraphemeClusterLiteralConvertible</text>
</a>
</g>
</g>
<!-- StringLiteralConvertible -->
<g id="node16" class="node">
<g id="a_node16"><a xlink:href="/v1.2/protocol/StringLiteralConvertible/hierarchy/" target="_top">
<path fill="#999999" stroke="#999999" d="M910.714,-80C910.714,-80 791.286,-80 791.286,-80 787.62,-80 783.953,-76.3333 783.953,-72.6667 783.953,-72.6667 783.953,-65.3333 783.953,-65.3333 783.953,-61.6667 787.62,-58 791.286,-58 791.286,-58 910.714,-58 910.714,-58 914.38,-58 918.047,-61.6667 918.047,-65.3333 918.047,-65.3333 918.047,-72.6667 918.047,-72.6667 918.047,-76.3333 914.38,-80 910.714,-80"/>
<text text-anchor="middle" x="851" y="-65.4" font-family="Helvetica,sans-Serif" font-size="12.00" fill="white">StringLiteralConvertible</text>
</a>
</g>
</g>
<!-- ExtendedGraphemeClusterLiteralConvertible&#45;&gt;StringLiteralConvertible -->
<g id="edge11" class="edge">
<path fill="none" stroke="#cccccc" d="M823.9,-115.988C828.303,-108.517 834.452,-98.0812 839.78,-89.0393"/>
<polygon fill="#cccccc" stroke="#cccccc" points="842.866,-90.6962 844.928,-80.3039 836.836,-87.1423 842.866,-90.6962"/>
</g>
<!-- ExtensibleCollectionType -->
<g id="node6" class="node">
<g id="a_node6"><a xlink:href="/v1.2/protocol/ExtensibleCollectionType/hierarchy/" target="_top">
<path fill="#999999" stroke="#999999" d="M1096.73,-138C1096.73,-138 967.273,-138 967.273,-138 963.607,-138 959.94,-134.333 959.94,-130.667 959.94,-130.667 959.94,-123.333 959.94,-123.333 959.94,-119.667 963.607,-116 967.273,-116 967.273,-116 1096.73,-116 1096.73,-116 1100.39,-116 1104.06,-119.667 1104.06,-123.333 1104.06,-123.333 1104.06,-130.667 1104.06,-130.667 1104.06,-134.333 1100.39,-138 1096.73,-138"/>
<text text-anchor="middle" x="1032" y="-123.4" font-family="Helvetica,sans-Serif" font-size="12.00" fill="white">ExtensibleCollectionType</text>
</a>
</g>
</g>
<!-- RangeReplaceableCollectionType -->
<g id="node9" class="node">
<g id="a_node9"><a xlink:href="/v1.2/protocol/RangeReplaceableCollectionType/hierarchy/" target="_top">
<path fill="#999999" stroke="#999999" d="M1119.76,-80C1119.76,-80 944.24,-80 944.24,-80 940.573,-80 936.906,-76.3333 936.906,-72.6667 936.906,-72.6667 936.906,-65.3333 936.906,-65.3333 936.906,-61.6667 940.573,-58 944.24,-58 944.24,-58 1119.76,-58 1119.76,-58 1123.43,-58 1127.09,-61.6667 1127.09,-65.3333 1127.09,-65.3333 1127.09,-72.6667 1127.09,-72.6667 1127.09,-76.3333 1123.43,-80 1119.76,-80"/>
<text text-anchor="middle" x="1032" y="-65.4" font-family="Helvetica,sans-Serif" font-size="12.00" fill="white">RangeReplaceableCollectionType</text>
</a>
</g>
</g>
<!-- ExtensibleCollectionType&#45;&gt;RangeReplaceableCollectionType -->
<g id="edge23" class="edge">
<path fill="none" stroke="#cccccc" d="M1032,-115.988C1032,-108.91 1032,-99.1714 1032,-90.4779"/>
<polygon fill="#cccccc" stroke="#cccccc" points="1035.5,-90.3038 1032,-80.3039 1028.5,-90.3039 1035.5,-90.3038"/>
</g>
<!-- Hashable&#45;&gt;String -->
<g id="edge7" class="edge">
<path fill="none" stroke="#cccccc" d="M162.065,-60.1234C165.406,-59.3557 168.768,-58.6295 172,-58 276.047,-37.7342 400.378,-22.7465 461.416,-15.9843"/>
<polygon fill="#cccccc" stroke="#cccccc" points="462.149,-19.425 471.708,-14.8559 461.386,-12.4667 462.149,-19.425"/>
</g>
<!-- OutputStreamType -->
<g id="node8" class="node">
<g id="a_node8"><a xlink:href="/v1.2/protocol/OutputStreamType/hierarchy/" target="_top">
<path fill="#999999" stroke="#999999" d="M394.709,-80C394.709,-80 299.291,-80 299.291,-80 295.624,-80 291.957,-76.3333 291.957,-72.6667 291.957,-72.6667 291.957,-65.3333 291.957,-65.3333 291.957,-61.6667 295.624,-58 299.291,-58 299.291,-58 394.709,-58 394.709,-58 398.376,-58 402.043,-61.6667 402.043,-65.3333 402.043,-65.3333 402.043,-72.6667 402.043,-72.6667 402.043,-76.3333 398.376,-80 394.709,-80"/>
<text text-anchor="middle" x="347" y="-65.4" font-family="Helvetica,sans-Serif" font-size="12.00" fill="white">OutputStreamType</text>
</a>
</g>
</g>
<!-- OutputStreamType&#45;&gt;String -->
<g id="edge2" class="edge">
<path fill="none" stroke="#cccccc" d="M374.175,-57.9883C398.739,-48.9381 435.106,-35.5399 462.258,-25.5367"/>
<polygon fill="#cccccc" stroke="#cccccc" points="463.631,-28.7606 471.805,-22.0192 461.211,-22.1922 463.631,-28.7606"/>
</g>
<!-- RangeReplaceableCollectionType&#45;&gt;String -->
<g id="edge10" class="edge">
<path fill="none" stroke="#cccccc" d="M936.71,-57.9883C817.377,-45.4505 618.618,-24.5678 536.382,-15.9276"/>
<polygon fill="#cccccc" stroke="#cccccc" points="536.568,-12.4279 526.257,-14.8637 535.836,-19.3896 536.568,-12.4279"/>
</g>
<!-- Reflectable -->
<g id="node10" class="node">
<g id="a_node10"><a xlink:href="/v1.2/protocol/Reflectable/hierarchy/" target="_top">
<path fill="#999999" stroke="#999999" d="M482.693,-80C482.693,-80 427.307,-80 427.307,-80 423.64,-80 419.974,-76.3333 419.974,-72.6667 419.974,-72.6667 419.974,-65.3333 419.974,-65.3333 419.974,-61.6667 423.64,-58 427.307,-58 427.307,-58 482.693,-58 482.693,-58 486.36,-58 490.026,-61.6667 490.026,-65.3333 490.026,-65.3333 490.026,-72.6667 490.026,-72.6667 490.026,-76.3333 486.36,-80 482.693,-80"/>
<text text-anchor="middle" x="455" y="-65.4" font-family="Helvetica,sans-Serif" font-size="12.00" fill="white">Reflectable</text>
</a>
</g>
</g>
<!-- Reflectable&#45;&gt;String -->
<g id="edge1" class="edge">
<path fill="none" stroke="#cccccc" d="M462.866,-57.9883C468.922,-50.2806 477.456,-39.4191 484.71,-30.187"/>
<polygon fill="#cccccc" stroke="#cccccc" points="487.478,-32.3295 490.904,-22.3039 481.974,-28.0047 487.478,-32.3295"/>
</g>
<!-- SequenceType -->
<g id="node11" class="node">
<g id="a_node11"><a xlink:href="/v1.2/protocol/SequenceType/hierarchy/" target="_top">
<path fill="#999999" stroke="#999999" d="M1187.72,-312C1187.72,-312 1112.28,-312 1112.28,-312 1108.62,-312 1104.95,-308.333 1104.95,-304.667 1104.95,-304.667 1104.95,-297.333 1104.95,-297.333 1104.95,-293.667 1108.62,-290 1112.28,-290 1112.28,-290 1187.72,-290 1187.72,-290 1191.38,-290 1195.05,-293.667 1195.05,-297.333 1195.05,-297.333 1195.05,-304.667 1195.05,-304.667 1195.05,-308.333 1191.38,-312 1187.72,-312"/>
<text text-anchor="middle" x="1150" y="-297.4" font-family="Helvetica,sans-Serif" font-size="12.00" fill="white">SequenceType</text>
</a>
</g>
</g>
<!-- SequenceType&#45;&gt;CollectionType -->
<g id="edge19" class="edge">
<path fill="none" stroke="#cccccc" d="M1139.99,-289.988C1132.12,-282.123 1120.97,-270.974 1111.62,-261.624"/>
<polygon fill="#cccccc" stroke="#cccccc" points="1113.85,-258.9 1104.3,-254.304 1108.9,-263.85 1113.85,-258.9"/>
</g>
<!-- Sliceable -->
<g id="node12" class="node">
<g id="a_node12"><a xlink:href="/v1.2/protocol/Sliceable/hierarchy/" target="_top">
<path fill="#999999" stroke="#999999" d="M1177.69,-138C1177.69,-138 1134.31,-138 1134.31,-138 1130.64,-138 1126.98,-134.333 1126.98,-130.667 1126.98,-130.667 1126.98,-123.333 1126.98,-123.333 1126.98,-119.667 1130.64,-116 1134.31,-116 1134.31,-116 1177.69,-116 1177.69,-116 1181.36,-116 1185.02,-119.667 1185.02,-123.333 1185.02,-123.333 1185.02,-130.667 1185.02,-130.667 1185.02,-134.333 1181.36,-138 1177.69,-138"/>
<text text-anchor="middle" x="1156" y="-123.4" font-family="Helvetica,sans-Serif" font-size="12.00" fill="white">Sliceable</text>
</a>
</g>
</g>
<!-- Sliceable&#45;&gt;String -->
<g id="edge9" class="edge">
<path fill="none" stroke="#cccccc" d="M1156.32,-115.762C1156.19,-100.495 1153.44,-72.055 1136,-58 1089.24,-20.3106 665.367,-13.4679 536.194,-12.2549"/>
<polygon fill="#cccccc" stroke="#cccccc" points="536.044,-8.75354 526.013,-12.1654 535.982,-15.7533 536.044,-8.75354"/>
</g>
<!-- Streamable -->
<g id="node13" class="node">
<g id="a_node13"><a xlink:href="/v1.2/protocol/Streamable/hierarchy/" target="_top">
<path fill="#999999" stroke="#999999" d="M572.19,-80C572.19,-80 515.81,-80 515.81,-80 512.144,-80 508.477,-76.3333 508.477,-72.6667 508.477,-72.6667 508.477,-65.3333 508.477,-65.3333 508.477,-61.6667 512.144,-58 515.81,-58 515.81,-58 572.19,-58 572.19,-58 575.856,-58 579.523,-61.6667 579.523,-65.3333 579.523,-65.3333 579.523,-72.6667 579.523,-72.6667 579.523,-76.3333 575.856,-80 572.19,-80"/>
<text text-anchor="middle" x="544" y="-65.4" font-family="Helvetica,sans-Serif" font-size="12.00" fill="white">Streamable</text>
</a>
</g>
</g>
<!-- Streamable&#45;&gt;String -->
<g id="edge3" class="edge">
<path fill="none" stroke="#cccccc" d="M535.955,-57.9883C529.761,-50.2806 521.033,-39.4191 513.615,-30.187"/>
<polygon fill="#cccccc" stroke="#cccccc" points="516.272,-27.9066 507.28,-22.3039 510.816,-32.2914 516.272,-27.9066"/>
</g>
<!-- StringInterpolationConvertible -->
<g id="node15" class="node">
<g id="a_node15"><a xlink:href="/v1.2/protocol/StringInterpolationConvertible/hierarchy/" target="_top">
<path fill="#999999" stroke="#999999" d="M758.736,-80C758.736,-80 605.264,-80 605.264,-80 601.598,-80 597.931,-76.3333 597.931,-72.6667 597.931,-72.6667 597.931,-65.3333 597.931,-65.3333 597.931,-61.6667 601.598,-58 605.264,-58 605.264,-58 758.736,-58 758.736,-58 762.402,-58 766.069,-61.6667 766.069,-65.3333 766.069,-65.3333 766.069,-72.6667 766.069,-72.6667 766.069,-76.3333 762.402,-80 758.736,-80"/>
<text text-anchor="middle" x="682" y="-65.4" font-family="Helvetica,sans-Serif" font-size="12.00" fill="white">StringInterpolationConvertible</text>
</a>
</g>
</g>
<!-- StringInterpolationConvertible&#45;&gt;String -->
<g id="edge8" class="edge">
<path fill="none" stroke="#cccccc" d="M649.283,-57.9883C617.419,-48.2376 569.062,-33.4399 535.857,-23.2786"/>
<polygon fill="#cccccc" stroke="#cccccc" points="536.66,-19.8641 526.073,-20.2846 534.611,-26.5577 536.66,-19.8641"/>
</g>
<!-- StringLiteralConvertible&#45;&gt;String -->
<g id="edge4" class="edge">
<path fill="none" stroke="#cccccc" d="M788.069,-57.9883C714.942,-46.3545 596.653,-27.5357 536.587,-17.9797"/>
<polygon fill="#cccccc" stroke="#cccccc" points="536.845,-14.4769 526.419,-16.3622 535.745,-21.3899 536.845,-14.4769"/>
</g>
<!-- UnicodeScalarLiteralConvertible -->
<g id="node17" class="node">
<g id="a_node17"><a xlink:href="/v1.2/protocol/UnicodeScalarLiteralConvertible/hierarchy/" target="_top">
<path fill="#999999" stroke="#999999" d="M901.233,-196C901.233,-196 734.767,-196 734.767,-196 731.101,-196 727.434,-192.333 727.434,-188.667 727.434,-188.667 727.434,-181.333 727.434,-181.333 727.434,-177.667 731.101,-174 734.767,-174 734.767,-174 901.233,-174 901.233,-174 904.899,-174 908.566,-177.667 908.566,-181.333 908.566,-181.333 908.566,-188.667 908.566,-188.667 908.566,-192.333 904.899,-196 901.233,-196"/>
<text text-anchor="middle" x="818" y="-181.4" font-family="Helvetica,sans-Serif" font-size="12.00" fill="white">UnicodeScalarLiteralConvertible</text>
</a>
</g>
</g>
<!-- UnicodeScalarLiteralConvertible&#45;&gt;ExtendedGraphemeClusterLiteralConvertible -->
<g id="edge12" class="edge">
<path fill="none" stroke="#cccccc" d="M818,-173.988C818,-166.91 818,-157.171 818,-148.478"/>
<polygon fill="#cccccc" stroke="#cccccc" points="821.5,-148.304 818,-138.304 814.5,-148.304 821.5,-148.304"/>
</g>
<!-- _CollectionType -->
<g id="node18" class="node">
<g id="a_node18"><a xlink:href="/v1.2/protocol/_CollectionType/hierarchy/" target="_top">
<path fill="#999999" stroke="#999999" d="M1079.21,-312C1079.21,-312 998.792,-312 998.792,-312 995.126,-312 991.459,-308.333 991.459,-304.667 991.459,-304.667 991.459,-297.333 991.459,-297.333 991.459,-293.667 995.126,-290 998.792,-290 998.792,-290 1079.21,-290 1079.21,-290 1082.87,-290 1086.54,-293.667 1086.54,-297.333 1086.54,-297.333 1086.54,-304.667 1086.54,-304.667 1086.54,-308.333 1082.87,-312 1079.21,-312"/>
<text text-anchor="middle" x="1039" y="-297.4" font-family="Helvetica,sans-Serif" font-size="12.00" fill="white">_CollectionType</text>
</a>
</g>
</g>
<!-- _CollectionType&#45;&gt;CollectionType -->
<g id="edge18" class="edge">
<path fill="none" stroke="#cccccc" d="M1048.83,-289.988C1056.56,-282.123 1067.51,-270.974 1076.69,-261.624"/>
<polygon fill="#cccccc" stroke="#cccccc" points="1079.37,-263.891 1083.88,-254.304 1074.38,-258.986 1079.37,-263.891"/>
</g>
<!-- _Comparable -->
<g id="node19" class="node">
<g id="a_node19"><a xlink:href="/v1.2/protocol/_Comparable/hierarchy/" target="_top">
<path fill="#999999" stroke="#999999" d="M74.6974,-138C74.6974,-138 7.30257,-138 7.30257,-138 3.6359,-138 -0.0307668,-134.333 -0.0307668,-130.667 -0.0307668,-130.667 -0.0307668,-123.333 -0.0307668,-123.333 -0.0307668,-119.667 3.6359,-116 7.30257,-116 7.30257,-116 74.6974,-116 74.6974,-116 78.3641,-116 82.0308,-119.667 82.0308,-123.333 82.0308,-123.333 82.0308,-130.667 82.0308,-130.667 82.0308,-134.333 78.3641,-138 74.6974,-138"/>
<text text-anchor="middle" x="41" y="-123.4" font-family="Helvetica,sans-Serif" font-size="12.00" fill="white">_Comparable</text>
</a>
</g>
</g>
<!-- _Comparable&#45;&gt;Comparable -->
<g id="edge13" class="edge">
<path fill="none" stroke="#cccccc" d="M41.8939,-115.988C42.5259,-108.91 43.3954,-99.1714 44.1716,-90.4779"/>
<polygon fill="#cccccc" stroke="#cccccc" points="47.6767,-90.5755 45.08,-80.3039 40.7045,-89.953 47.6767,-90.5755"/>
</g>
<!-- _ExtensibleCollectionType&#45;&gt;ExtensibleCollectionType -->
<g id="edge24" class="edge">
<path fill="none" stroke="#cccccc" d="M1031.18,-173.988C1031.31,-166.91 1031.48,-157.171 1031.63,-148.478"/>
<polygon fill="#cccccc" stroke="#cccccc" points="1035.14,-148.365 1031.82,-138.304 1028.14,-148.24 1035.14,-148.365"/>
</g>
<!-- _SequenceType -->
<g id="node21" class="node">
<g id="a_node21"><a xlink:href="/v1.2/protocol/_SequenceType/hierarchy/" target="_top">
<path fill="#999999" stroke="#999999" d="M1138.72,-428C1138.72,-428 1057.28,-428 1057.28,-428 1053.61,-428 1049.94,-424.333 1049.94,-420.667 1049.94,-420.667 1049.94,-413.333 1049.94,-413.333 1049.94,-409.667 1053.61,-406 1057.28,-406 1057.28,-406 1138.72,-406 1138.72,-406 1142.39,-406 1146.06,-409.667 1146.06,-413.333 1146.06,-413.333 1146.06,-420.667 1146.06,-420.667 1146.06,-424.333 1142.39,-428 1138.72,-428"/>
<text text-anchor="middle" x="1098" y="-413.4" font-family="Helvetica,sans-Serif" font-size="12.00" fill="white">_SequenceType</text>
</a>
</g>
</g>
<!-- _SequenceType&#45;&gt;_CollectionType -->
<g id="edge20" class="edge">
<path fill="none" stroke="#cccccc" d="M1092.76,-405.883C1082.95,-386.917 1061.63,-345.732 1048.99,-321.3"/>
<polygon fill="#cccccc" stroke="#cccccc" points="1052.01,-319.53 1044.31,-312.258 1045.8,-322.748 1052.01,-319.53"/>
</g>
<!-- _Sequence_Type -->
<g id="node22" class="node">
<g id="a_node22"><a xlink:href="/v1.2/protocol/_Sequence_Type/hierarchy/" target="_top">
<path fill="#999999" stroke="#999999" d="M1186.23,-370C1186.23,-370 1097.77,-370 1097.77,-370 1094.11,-370 1090.44,-366.333 1090.44,-362.667 1090.44,-362.667 1090.44,-355.333 1090.44,-355.333 1090.44,-351.667 1094.11,-348 1097.77,-348 1097.77,-348 1186.23,-348 1186.23,-348 1189.89,-348 1193.56,-351.667 1193.56,-355.333 1193.56,-355.333 1193.56,-362.667 1193.56,-362.667 1193.56,-366.333 1189.89,-370 1186.23,-370"/>
<text text-anchor="middle" x="1142" y="-355.4" font-family="Helvetica,sans-Serif" font-size="12.00" fill="white">_Sequence_Type</text>
</a>
</g>
</g>
<!-- _SequenceType&#45;&gt;_Sequence_Type -->
<g id="edge22" class="edge">
<path fill="none" stroke="#cccccc" d="M1105.87,-405.988C1111.92,-398.281 1120.46,-387.419 1127.71,-378.187"/>
<polygon fill="#cccccc" stroke="#cccccc" points="1130.48,-380.329 1133.9,-370.304 1124.97,-376.005 1130.48,-380.329"/>
</g>
<!-- _Sequence_Type&#45;&gt;SequenceType -->
<g id="edge21" class="edge">
<path fill="none" stroke="#cccccc" d="M1143.43,-347.988C1144.44,-340.91 1145.83,-331.171 1147.07,-322.478"/>
<polygon fill="#cccccc" stroke="#cccccc" points="1150.58,-322.698 1148.53,-312.304 1143.65,-321.708 1150.58,-322.698"/>
</g>
<!-- _Sliceable&#45;&gt;Sliceable -->
<g id="edge16" class="edge">
<path fill="none" stroke="#cccccc" d="M1156.82,-173.988C1156.69,-166.91 1156.52,-157.171 1156.37,-148.478"/>
<polygon fill="#cccccc" stroke="#cccccc" points="1159.86,-148.24 1156.18,-138.304 1152.86,-148.365 1159.86,-148.24"/>
</g>
</g>
</svg>
