<?xml version="1.0" encoding="UTF-8" standalone="no"?>
<!DOCTYPE svg PUBLIC "-//W3C//DTD SVG 1.1//EN"
 "http://www.w3.org/Graphics/SVG/1.1/DTD/svg11.dtd">
<!-- Generated by graphviz version 2.36.0 (20140111.2315)
 -->
<!-- Title: DebugPrintable &#45; Type Hierarchy &#45; SwiftDoc.org Pages: 1 -->
<svg width="2677pt" height="195pt"
 viewBox="0.00 0.00 2677.40 195.20" xmlns="http://www.w3.org/2000/svg" xmlns:xlink="http://www.w3.org/1999/xlink">
<g id="graph0" class="graph" transform="scale(1 1) rotate(0) translate(7.2 137.6)">
<g transform="translate(0 -137.6)">
<g>
    <path fill="#666666" d="M13.846,10.832c-0.336-0.464-0.792-0.844-1.368-1.14s-1.224-0.444-1.944-0.444
        c-0.384,0-0.772,0.052-1.164,0.156C8.977,9.509,8.622,9.677,8.301,9.908c-0.32,0.232-0.58,0.52-0.78,0.864
        c-0.2,0.344-0.3,0.756-0.3,1.236c0,0.464,0.092,0.852,0.276,1.164c0.184,0.312,0.432,0.576,0.744,0.792s0.68,0.4,1.104,0.552
        c0.423,0.152,0.876,0.309,1.356,0.468c0.576,0.177,1.16,0.376,1.752,0.601c0.592,0.224,1.128,0.52,1.608,0.888
        s0.872,0.828,1.176,1.38s0.456,1.252,0.456,2.101c0,0.88-0.164,1.644-0.492,2.292c-0.328,0.647-0.765,1.184-1.308,1.607
        c-0.544,0.424-1.172,0.74-1.884,0.948s-1.444,0.312-2.196,0.312c-1.072,0-2.108-0.208-3.108-0.624
        c-1-0.415-1.828-1.031-2.484-1.848l1.848-1.56c0.4,0.592,0.936,1.071,1.608,1.439c0.672,0.368,1.399,0.552,2.184,0.552
        c0.4,0,0.8-0.056,1.2-0.168c0.4-0.111,0.764-0.288,1.092-0.527c0.328-0.24,0.596-0.54,0.804-0.9
        c0.208-0.36,0.312-0.796,0.312-1.308s-0.108-0.94-0.324-1.284c-0.216-0.344-0.508-0.636-0.876-0.876s-0.796-0.444-1.284-0.612
        c-0.488-0.168-1.004-0.34-1.548-0.516c-0.544-0.16-1.08-0.356-1.608-0.588c-0.528-0.232-1-0.528-1.416-0.889
        c-0.416-0.359-0.752-0.804-1.008-1.332c-0.256-0.527-0.384-1.184-0.384-1.968c0-0.848,0.172-1.576,0.516-2.184
        c0.344-0.608,0.792-1.112,1.344-1.512c0.552-0.4,1.176-0.692,1.872-0.876c0.696-0.184,1.396-0.276,2.1-0.276
        c0.992,0,1.92,0.176,2.784,0.528c0.864,0.352,1.56,0.824,2.088,1.416L13.846,10.832z"/>
    <path fill="#666666" d="M18.813,13.304l2.568,8.688h0.048l2.712-8.688h2.376l2.76,8.688h0.048l2.568-8.688h2.376L30.501,24.68
        h-2.352l-2.808-8.544h-0.048l-2.784,8.544h-2.352l-3.792-11.376H18.813z"/>
    <path fill="#666666" d="M38.685,9.2c0,0.416-0.147,0.76-0.44,1.032c-0.294,0.272-0.647,0.408-1.06,0.408s-0.762-0.14-1.047-0.42
        c-0.286-0.28-0.429-0.62-0.429-1.02c0-0.416,0.143-0.764,0.429-1.044c0.286-0.28,0.635-0.42,1.047-0.42s0.766,0.14,1.06,0.42
        C38.538,8.437,38.685,8.784,38.685,9.2z M38.325,24.68h-2.256V13.304h2.256V24.68z"/>
    <path fill="#666666" d="M47.613,15.152h-2.64v9.528h-2.256v-9.528h-2.256v-1.848h2.256v-2.376c0-0.672,0.076-1.292,0.228-1.86
        c0.152-0.568,0.4-1.06,0.744-1.476c0.344-0.416,0.784-0.744,1.32-0.984c0.536-0.24,1.188-0.36,1.956-0.36
        c0.544,0,1.016,0.056,1.416,0.168l-0.264,1.944c-0.176-0.048-0.352-0.088-0.528-0.12c-0.176-0.032-0.376-0.048-0.6-0.048
        c-0.432,0-0.78,0.076-1.044,0.228c-0.264,0.152-0.468,0.356-0.612,0.612s-0.24,0.548-0.288,0.876
        c-0.048,0.328-0.072,0.668-0.072,1.02v2.376h2.64V15.152z"/>
    <path fill="#666666" d="M54.909,15.152h-3.024v5.91c0,0.687,0.128,1.177,0.384,1.472c0.256,0.295,0.664,0.442,1.224,0.442
        c0.208,0,0.432-0.021,0.672-0.065c0.24-0.044,0.456-0.11,0.648-0.198l0.072,1.848c-0.272,0.096-0.572,0.172-0.9,0.229
        c-0.328,0.056-0.668,0.084-1.02,0.084c-1.072,0-1.892-0.296-2.46-0.889c-0.568-0.592-0.852-1.479-0.852-2.664v-6.168h-2.184
        v-1.848h2.184V10.04h2.232v3.264h3.024V15.152z"/>
    <path fill="#666666" d="M57.356,7.688h5.832c1.088,0,2.176,0.16,3.264,0.48c1.088,0.32,2.072,0.824,2.952,1.512
        s1.592,1.568,2.136,2.64c0.544,1.072,0.816,2.36,0.816,3.864c0,1.456-0.272,2.716-0.816,3.78s-1.256,1.943-2.136,2.64
        s-1.864,1.216-2.952,1.561c-1.088,0.344-2.176,0.516-3.264,0.516h-5.832V7.688z M59.732,22.593h2.976
        c1.024,0,1.972-0.145,2.844-0.432c0.872-0.288,1.624-0.704,2.256-1.248c0.632-0.544,1.124-1.216,1.476-2.017
        c0.352-0.8,0.528-1.704,0.528-2.712c0-1.056-0.176-1.983-0.528-2.784c-0.353-0.8-0.844-1.468-1.476-2.004
        c-0.632-0.536-1.384-0.944-2.256-1.224s-1.82-0.42-2.844-0.42h-2.976V22.593z"/>
    <path fill="#666666" d="M86.06,18.969c0,0.88-0.156,1.688-0.468,2.424c-0.312,0.736-0.744,1.372-1.296,1.908
        c-0.552,0.536-1.204,0.952-1.956,1.248c-0.752,0.296-1.56,0.443-2.424,0.443c-0.864,0-1.672-0.147-2.424-0.443
        c-0.752-0.296-1.4-0.712-1.944-1.248c-0.544-0.536-0.972-1.172-1.284-1.908c-0.312-0.735-0.468-1.544-0.468-2.424
        s0.156-1.684,0.468-2.412c0.312-0.728,0.74-1.356,1.284-1.884c0.543-0.528,1.191-0.939,1.944-1.236
        c0.752-0.296,1.56-0.444,2.424-0.444c0.864,0,1.672,0.148,2.424,0.444c0.752,0.297,1.404,0.708,1.956,1.236
        c0.552,0.527,0.984,1.156,1.296,1.884C85.904,17.285,86.06,18.089,86.06,18.969z M83.708,18.98c0-0.542-0.084-1.061-0.252-1.556
        c-0.169-0.494-0.414-0.929-0.734-1.304s-0.718-0.674-1.192-0.897s-1.015-0.335-1.625-0.335c-0.61,0-1.152,0.111-1.625,0.335
        c-0.474,0.224-0.871,0.522-1.191,0.897c-0.321,0.375-0.566,0.81-0.734,1.304C76.184,17.92,76.1,18.438,76.1,18.98
        c0,0.543,0.084,1.062,0.253,1.556c0.168,0.495,0.413,0.934,0.734,1.316c0.321,0.383,0.718,0.686,1.191,0.909
        c0.473,0.224,1.015,0.335,1.625,0.335c0.61,0,1.151-0.111,1.625-0.335s0.871-0.526,1.192-0.909s0.565-0.821,0.734-1.316
        C83.624,20.042,83.708,19.523,83.708,18.98z"/>
    <path fill="#666666" d="M96.428,16.184c-0.24-0.368-0.6-0.676-1.08-0.924s-0.992-0.372-1.536-0.372
        c-0.592,0-1.116,0.112-1.572,0.336c-0.456,0.225-0.844,0.524-1.164,0.9c-0.32,0.376-0.564,0.812-0.732,1.308
        s-0.252,1.017-0.252,1.56c0,0.545,0.084,1.064,0.252,1.561s0.412,0.933,0.732,1.308c0.32,0.376,0.712,0.677,1.176,0.9
        c0.464,0.225,0.992,0.336,1.584,0.336c0.576,0,1.1-0.111,1.572-0.336c0.472-0.224,0.86-0.528,1.164-0.912l1.512,1.368
        c-0.48,0.561-1.08,0.996-1.8,1.308c-0.72,0.312-1.536,0.468-2.448,0.468c-0.88,0-1.692-0.144-2.436-0.432
        c-0.744-0.288-1.388-0.691-1.932-1.212c-0.544-0.52-0.972-1.147-1.284-1.884s-0.468-1.561-0.468-2.473
        c0-0.896,0.152-1.711,0.456-2.447c0.304-0.736,0.728-1.368,1.272-1.896c0.543-0.527,1.188-0.936,1.932-1.224
        c0.744-0.288,1.548-0.433,2.412-0.433c0.8,0,1.596,0.16,2.388,0.48s1.419,0.784,1.884,1.392L96.428,16.184z"/>
    <path fill="#666666" d="M103.1,23.24c0,0.417-0.152,0.784-0.456,1.104c-0.304,0.32-0.688,0.479-1.152,0.479
        c-0.448,0-0.828-0.155-1.14-0.468c-0.312-0.312-0.468-0.676-0.468-1.092c0-0.432,0.152-0.804,0.456-1.116
        c0.304-0.312,0.688-0.468,1.152-0.468c0.464,0,0.848,0.152,1.152,0.456C102.947,22.44,103.1,22.808,103.1,23.24z"/>
    <path fill="#666666" d="M116.635,18.969c0,0.88-0.156,1.688-0.468,2.424c-0.312,0.736-0.744,1.372-1.296,1.908
        c-0.552,0.536-1.204,0.952-1.956,1.248c-0.752,0.296-1.56,0.443-2.424,0.443c-0.864,0-1.672-0.147-2.424-0.443
        c-0.752-0.296-1.4-0.712-1.944-1.248c-0.544-0.536-0.972-1.172-1.284-1.908c-0.312-0.735-0.468-1.544-0.468-2.424
        s0.156-1.684,0.468-2.412c0.312-0.728,0.74-1.356,1.284-1.884c0.543-0.528,1.191-0.939,1.944-1.236
        c0.752-0.296,1.56-0.444,2.424-0.444c0.864,0,1.672,0.148,2.424,0.444c0.752,0.297,1.404,0.708,1.956,1.236
        c0.552,0.527,0.984,1.156,1.296,1.884C116.479,17.285,116.635,18.089,116.635,18.969z M114.283,18.98
        c0-0.542-0.084-1.061-0.252-1.556c-0.169-0.494-0.414-0.929-0.734-1.304s-0.718-0.674-1.192-0.897s-1.015-0.335-1.625-0.335
        c-0.61,0-1.152,0.111-1.625,0.335c-0.474,0.224-0.871,0.522-1.191,0.897c-0.321,0.375-0.566,0.81-0.734,1.304
        c-0.169,0.495-0.253,1.014-0.253,1.556c0,0.543,0.084,1.062,0.253,1.556c0.168,0.495,0.413,0.934,0.734,1.316
        c0.321,0.383,0.718,0.686,1.191,0.909c0.473,0.224,1.015,0.335,1.625,0.335c0.61,0,1.151-0.111,1.625-0.335
        s0.871-0.526,1.192-0.909s0.565-0.821,0.734-1.316C114.199,20.042,114.283,19.523,114.283,18.98z"/>
    <path fill="#666666" d="M119.251,14.577c-0.016-0.48-0.04-0.904-0.072-1.272h2.136c0.032,0.288,0.056,0.62,0.072,0.996
        c0.016,0.376,0.024,0.684,0.024,0.924h0.072c0.32-0.672,0.788-1.212,1.404-1.62c0.616-0.408,1.308-0.612,2.076-0.612
        c0.352,0,0.648,0.033,0.888,0.097l-0.096,2.088c-0.32-0.08-0.664-0.12-1.032-0.12c-0.544,0-1.016,0.101-1.416,0.3
        c-0.4,0.2-0.732,0.468-0.996,0.805c-0.264,0.336-0.46,0.724-0.588,1.163c-0.128,0.44-0.192,0.9-0.192,1.381v5.976h-2.256v-8.928
        C119.275,15.449,119.267,15.056,119.251,14.577z"/>
    <path fill="#666666" d="M128.419,26.625c0.496,0.56,1.116,1.008,1.86,1.344c0.744,0.336,1.508,0.504,2.292,0.504
        c0.752,0,1.384-0.108,1.896-0.324s0.924-0.512,1.236-0.888s0.536-0.82,0.672-1.332c0.136-0.513,0.204-1.064,0.204-1.656v-1.464
        h-0.048c-0.416,0.641-0.984,1.128-1.704,1.464c-0.72,0.336-1.488,0.504-2.304,0.504c-0.864,0-1.652-0.151-2.364-0.456
        c-0.712-0.304-1.316-0.72-1.812-1.248c-0.496-0.527-0.88-1.147-1.152-1.859s-0.408-1.477-0.408-2.292
        c0-0.816,0.136-1.584,0.408-2.305c0.272-0.72,0.656-1.348,1.152-1.884c0.496-0.535,1.096-0.96,1.8-1.271
        c0.704-0.312,1.488-0.469,2.352-0.469c0.816,0,1.596,0.177,2.34,0.528c0.744,0.353,1.332,0.888,1.764,1.608h0.048v-1.824h2.184
        v10.8c0,0.832-0.104,1.628-0.312,2.388c-0.208,0.76-0.56,1.433-1.056,2.017s-1.144,1.052-1.944,1.404
        c-0.8,0.352-1.792,0.527-2.976,0.527c-0.992,0-1.988-0.18-2.988-0.54c-1-0.359-1.86-0.868-2.58-1.523L128.419,26.625z
         M129.091,18.873c0,0.527,0.084,1.031,0.253,1.512c0.168,0.479,0.417,0.904,0.746,1.271c0.329,0.369,0.726,0.664,1.192,0.889
        c0.465,0.224,0.995,0.336,1.589,0.336c0.577,0,1.107-0.104,1.589-0.312c0.481-0.207,0.891-0.491,1.228-0.852
        s0.598-0.784,0.782-1.272c0.185-0.487,0.277-1.012,0.277-1.571c0-0.544-0.093-1.057-0.277-1.536
        c-0.185-0.48-0.449-0.904-0.794-1.272c-0.345-0.367-0.755-0.66-1.228-0.876c-0.474-0.216-1-0.324-1.577-0.324
        c-0.594,0-1.124,0.108-1.589,0.324c-0.466,0.216-0.863,0.504-1.192,0.864s-0.578,0.784-0.746,1.271
        C129.175,17.812,129.091,18.329,129.091,18.873z"/>
</g>
<g><a xlink:href="/" pointer-events="all" target="_top"><polygon fill="none" points="0,0 145,0 145,35 0,35 0,0"/></a></g>

</g>


<!-- Array -->
<g id="node1" class="node">
<g id="a_node1"><a xlink:href="/v1.2/type/Array/hierarchy/" target="_top">
<polygon fill="#999999" stroke="#999999" points="54,-22 0,-22 0,-0 54,-0 54,-22"/>
<text text-anchor="middle" x="27" y="-7.4" font-family="Helvetica,sans-Serif" font-size="12.00" fill="white">Array</text>
</a>
</g>
</g>
<!-- ArraySlice -->
<g id="node2" class="node">
<g id="a_node2"><a xlink:href="/v1.2/type/ArraySlice/hierarchy/" target="_top">
<polygon fill="#999999" stroke="#999999" points="136.011,-22 71.9886,-22 71.9886,-0 136.011,-0 136.011,-22"/>
<text text-anchor="middle" x="104" y="-7.4" font-family="Helvetica,sans-Serif" font-size="12.00" fill="white">ArraySlice</text>
</a>
</g>
</g>
<!-- AutoreleasingUnsafeMutablePointer -->
<g id="node3" class="node">
<g id="a_node3"><a xlink:href="/v1.2/type/AutoreleasingUnsafeMutablePointer/hierarchy/" target="_top">
<polygon fill="#999999" stroke="#999999" points="356.088,-22 153.912,-22 153.912,-0 356.088,-0 356.088,-22"/>
<text text-anchor="middle" x="255" y="-7.4" font-family="Helvetica,sans-Serif" font-size="12.00" fill="white">AutoreleasingUnsafeMutablePointer</text>
</a>
</g>
</g>
<!-- CFunctionPointer -->
<g id="node4" class="node">
<g id="a_node4"><a xlink:href="/v1.2/type/CFunctionPointer/hierarchy/" target="_top">
<polygon fill="#999999" stroke="#999999" points="476.036,-22 373.964,-22 373.964,-0 476.036,-0 476.036,-22"/>
<text text-anchor="middle" x="425" y="-7.4" font-family="Helvetica,sans-Serif" font-size="12.00" fill="white">CFunctionPointer</text>
</a>
</g>
</g>
<!-- COpaquePointer -->
<g id="node5" class="node">
<g id="a_node5"><a xlink:href="/v1.2/type/COpaquePointer/hierarchy/" target="_top">
<polygon fill="#999999" stroke="#999999" points="593.542,-22 494.458,-22 494.458,-0 593.542,-0 593.542,-22"/>
<text text-anchor="middle" x="544" y="-7.4" font-family="Helvetica,sans-Serif" font-size="12.00" fill="white">COpaquePointer</text>
</a>
</g>
</g>
<!-- CVaListPointer -->
<g id="node6" class="node">
<g id="a_node6"><a xlink:href="/v1.2/type/CVaListPointer/hierarchy/" target="_top">
<polygon fill="#999999" stroke="#999999" points="700.365,-22 611.635,-22 611.635,-0 700.365,-0 700.365,-22"/>
<text text-anchor="middle" x="656" y="-7.4" font-family="Helvetica,sans-Serif" font-size="12.00" fill="white">CVaListPointer</text>
</a>
</g>
</g>
<!-- Character -->
<g id="node7" class="node">
<g id="a_node7"><a xlink:href="/v1.2/type/Character/hierarchy/" target="_top">
<polygon fill="#999999" stroke="#999999" points="781.017,-22 718.983,-22 718.983,-0 781.017,-0 781.017,-22"/>
<text text-anchor="middle" x="750" y="-7.4" font-family="Helvetica,sans-Serif" font-size="12.00" fill="white">Character</text>
</a>
</g>
</g>
<!-- ClosedInterval -->
<g id="node8" class="node">
<g id="a_node8"><a xlink:href="/v1.2/type/ClosedInterval/hierarchy/" target="_top">
<polygon fill="#999999" stroke="#999999" points="886.03,-22 799.97,-22 799.97,-0 886.03,-0 886.03,-22"/>
<text text-anchor="middle" x="843" y="-7.4" font-family="Helvetica,sans-Serif" font-size="12.00" fill="white">ClosedInterval</text>
</a>
</g>
</g>
<!-- ContiguousArray -->
<g id="node9" class="node">
<g id="a_node9"><a xlink:href="/v1.2/type/ContiguousArray/hierarchy/" target="_top">
<polygon fill="#999999" stroke="#999999" points="1003.53,-22 904.466,-22 904.466,-0 1003.53,-0 1003.53,-22"/>
<text text-anchor="middle" x="954" y="-7.4" font-family="Helvetica,sans-Serif" font-size="12.00" fill="white">ContiguousArray</text>
</a>
</g>
</g>
<!-- DebugPrintable -->
<g id="node10" class="node">
<g id="a_node10"><a xlink:href="/v1.2/protocol/DebugPrintable/" target="_top">
<path fill="#ee543d" stroke="#ee543d" d="M1322.71,-80C1322.71,-80 1245.29,-80 1245.29,-80 1241.62,-80 1237.96,-76.3333 1237.96,-72.6667 1237.96,-72.6667 1237.96,-65.3333 1237.96,-65.3333 1237.96,-61.6667 1241.62,-58 1245.29,-58 1245.29,-58 1322.71,-58 1322.71,-58 1326.38,-58 1330.04,-61.6667 1330.04,-65.3333 1330.04,-65.3333 1330.04,-72.6667 1330.04,-72.6667 1330.04,-76.3333 1326.38,-80 1322.71,-80"/>
<text text-anchor="middle" x="1284" y="-65.4" font-family="Helvetica,sans-Serif" font-size="12.00" fill="white">DebugPrintable</text>
</a>
</g>
</g>
<!-- DebugPrintable&#45;&gt;Array -->
<g id="edge1" class="edge">
<path fill="none" stroke="#cccccc" d="M1237.75,-67.6988C1046.5,-66.2345 316.148,-58.4265 64.5565,-21.8505"/>
<polygon fill="#cccccc" stroke="#cccccc" points="64.7834,-18.3451 54.3729,-20.3128 63.7383,-25.2667 64.7834,-18.3451"/>
</g>
<!-- DebugPrintable&#45;&gt;ArraySlice -->
<g id="edge2" class="edge">
<path fill="none" stroke="#cccccc" d="M1237.78,-67.3597C1054.99,-64.6406 381.56,-52.8087 146.31,-21.8645"/>
<polygon fill="#cccccc" stroke="#cccccc" points="146.493,-18.3571 136.112,-20.4717 145.546,-25.2927 146.493,-18.3571"/>
</g>
<!-- DebugPrintable&#45;&gt;AutoreleasingUnsafeMutablePointer -->
<g id="edge3" class="edge">
<path fill="none" stroke="#cccccc" d="M1237.58,-66.3441C1104.02,-61.4374 707.098,-45.8567 366.347,-22.0697"/>
<polygon fill="#cccccc" stroke="#cccccc" points="366.503,-18.5721 356.283,-21.3636 366.013,-25.555 366.503,-18.5721"/>
</g>
<!-- DebugPrintable&#45;&gt;CFunctionPointer -->
<g id="edge4" class="edge">
<path fill="none" stroke="#cccccc" d="M1237.92,-67.081C1116.59,-64.2911 778.201,-54.1189 486.686,-22.0783"/>
<polygon fill="#cccccc" stroke="#cccccc" points="486.661,-18.5542 476.336,-20.9293 485.889,-25.5114 486.661,-18.5542"/>
</g>
<!-- DebugPrintable&#45;&gt;COpaquePointer -->
<g id="edge5" class="edge">
<path fill="none" stroke="#cccccc" d="M1237.95,-66.5377C1129.26,-62.7336 848.142,-50.8354 603.765,-22.1076"/>
<polygon fill="#cccccc" stroke="#cccccc" points="603.968,-18.6071 593.625,-20.9032 603.142,-25.5583 603.968,-18.6071"/>
</g>
<!-- DebugPrintable&#45;&gt;CVaListPointer -->
<g id="edge6" class="edge">
<path fill="none" stroke="#cccccc" d="M1237.7,-65.9124C1141.48,-61.2237 912.771,-48.2584 710.362,-21.9102"/>
<polygon fill="#cccccc" stroke="#cccccc" points="710.81,-18.4391 700.439,-20.6049 709.897,-25.3793 710.81,-18.4391"/>
</g>
<!-- DebugPrintable&#45;&gt;Character -->
<g id="edge7" class="edge">
<path fill="none" stroke="#cccccc" d="M1237.83,-65.9473C1151.88,-61.6375 961.421,-49.7923 791.135,-21.7689"/>
<polygon fill="#cccccc" stroke="#cccccc" points="791.681,-18.3117 781.242,-20.1185 790.529,-25.2163 791.681,-18.3117"/>
</g>
<!-- DebugPrintable&#45;&gt;ClosedInterval -->
<g id="edge8" class="edge">
<path fill="none" stroke="#cccccc" d="M1237.74,-63.6227C1166.57,-56.6477 1025.7,-41.8967 896.186,-22.0929"/>
<polygon fill="#cccccc" stroke="#cccccc" points="896.505,-18.6008 886.088,-20.5349 895.438,-25.5189 896.505,-18.6008"/>
</g>
<!-- DebugPrintable&#45;&gt;ContiguousArray -->
<g id="edge9" class="edge">
<path fill="none" stroke="#cccccc" d="M1237.79,-60.2314C1185.73,-51.4688 1098.29,-36.7209 1013.43,-22.2397"/>
<polygon fill="#cccccc" stroke="#cccccc" points="1013.81,-18.7541 1003.36,-20.5213 1012.63,-25.6543 1013.81,-18.7541"/>
</g>
<!-- Dictionary -->
<g id="node11" class="node">
<g id="a_node11"><a xlink:href="/v1.2/type/Dictionary/hierarchy/" target="_top">
<polygon fill="#999999" stroke="#999999" points="1084.51,-22 1021.49,-22 1021.49,-0 1084.51,-0 1084.51,-22"/>
<text text-anchor="middle" x="1053" y="-7.4" font-family="Helvetica,sans-Serif" font-size="12.00" fill="white">Dictionary</text>
</a>
</g>
</g>
<!-- DebugPrintable&#45;&gt;Dictionary -->
<g id="edge10" class="edge">
<path fill="none" stroke="#cccccc" d="M1242.48,-57.97C1206.09,-49.1737 1151.5,-35.9649 1094.29,-22.0673"/>
<polygon fill="#cccccc" stroke="#cccccc" points="1094.88,-18.6094 1084.34,-19.6492 1093.23,-25.4115 1094.88,-18.6094"/>
</g>
<!-- HalfOpenInterval -->
<g id="node12" class="node">
<g id="a_node12"><a xlink:href="/v1.2/type/HalfOpenInterval/hierarchy/" target="_top">
<polygon fill="#999999" stroke="#999999" points="1203.04,-22 1102.96,-22 1102.96,-0 1203.04,-0 1203.04,-22"/>
<text text-anchor="middle" x="1153" y="-7.4" font-family="Helvetica,sans-Serif" font-size="12.00" fill="white">HalfOpenInterval</text>
</a>
</g>
</g>
<!-- DebugPrintable&#45;&gt;HalfOpenInterval -->
<g id="edge11" class="edge">
<path fill="none" stroke="#cccccc" d="M1260.58,-57.9883C1239.84,-49.1244 1209.35,-36.0897 1186.12,-26.1587"/>
<polygon fill="#cccccc" stroke="#cccccc" points="1187.23,-22.8263 1176.66,-22.1138 1184.48,-29.2629 1187.23,-22.8263"/>
</g>
<!-- Optional -->
<g id="node13" class="node">
<g id="a_node13"><a xlink:href="/v1.2/type/Optional/hierarchy/" target="_top">
<polygon fill="#999999" stroke="#999999" points="1275.02,-22 1220.98,-22 1220.98,-0 1275.02,-0 1275.02,-22"/>
<text text-anchor="middle" x="1248" y="-7.4" font-family="Helvetica,sans-Serif" font-size="12.00" fill="white">Optional</text>
</a>
</g>
</g>
<!-- DebugPrintable&#45;&gt;Optional -->
<g id="edge12" class="edge">
<path fill="none" stroke="#cccccc" d="M1277.56,-57.9883C1272.71,-50.4379 1265.91,-39.8611 1260.06,-30.7543"/>
<polygon fill="#cccccc" stroke="#cccccc" points="1262.98,-28.823 1254.62,-22.3039 1257.09,-32.6083 1262.98,-28.823"/>
</g>
<!-- Range -->
<g id="node14" class="node">
<g id="a_node14"><a xlink:href="/v1.2/type/Range/hierarchy/" target="_top">
<polygon fill="#999999" stroke="#999999" points="1347,-22 1293,-22 1293,-0 1347,-0 1347,-22"/>
<text text-anchor="middle" x="1320" y="-7.4" font-family="Helvetica,sans-Serif" font-size="12.00" fill="white">Range</text>
</a>
</g>
</g>
<!-- DebugPrintable&#45;&gt;Range -->
<g id="edge13" class="edge">
<path fill="none" stroke="#cccccc" d="M1290.44,-57.9883C1295.29,-50.4379 1302.09,-39.8611 1307.94,-30.7543"/>
<polygon fill="#cccccc" stroke="#cccccc" points="1310.91,-32.6083 1313.38,-22.3039 1305.02,-28.823 1310.91,-32.6083"/>
</g>
<!-- Set -->
<g id="node15" class="node">
<g id="a_node15"><a xlink:href="/v1.2/type/Set/hierarchy/" target="_top">
<polygon fill="#999999" stroke="#999999" points="1419,-22 1365,-22 1365,-0 1419,-0 1419,-22"/>
<text text-anchor="middle" x="1392" y="-7.4" font-family="Helvetica,sans-Serif" font-size="12.00" fill="white">Set</text>
</a>
</g>
</g>
<!-- DebugPrintable&#45;&gt;Set -->
<g id="edge14" class="edge">
<path fill="none" stroke="#cccccc" d="M1303.31,-57.9883C1320.02,-49.3223 1344.42,-36.6696 1363.4,-26.8283"/>
<polygon fill="#cccccc" stroke="#cccccc" points="1365.23,-29.8242 1372.49,-22.1138 1362.01,-23.6099 1365.23,-29.8242"/>
</g>
<!-- StaticString -->
<g id="node16" class="node">
<g id="a_node16"><a xlink:href="/v1.2/type/StaticString/hierarchy/" target="_top">
<polygon fill="#999999" stroke="#999999" points="1508.52,-22 1437.48,-22 1437.48,-0 1508.52,-0 1508.52,-22"/>
<text text-anchor="middle" x="1473" y="-7.4" font-family="Helvetica,sans-Serif" font-size="12.00" fill="white">StaticString</text>
</a>
</g>
</g>
<!-- DebugPrintable&#45;&gt;StaticString -->
<g id="edge15" class="edge">
<path fill="none" stroke="#cccccc" d="M1317.79,-57.9883C1349,-48.7397 1395.54,-34.9502 1429.52,-24.8836"/>
<polygon fill="#cccccc" stroke="#cccccc" points="1430.59,-28.216 1439.19,-22.0192 1428.6,-21.5044 1430.59,-28.216"/>
</g>
<!-- String -->
<g id="node17" class="node">
<g id="a_node17"><a xlink:href="/v1.2/type/String/hierarchy/" target="_top">
<polygon fill="#999999" stroke="#999999" points="1581,-22 1527,-22 1527,-0 1581,-0 1581,-22"/>
<text text-anchor="middle" x="1554" y="-7.4" font-family="Helvetica,sans-Serif" font-size="12.00" fill="white">String</text>
</a>
</g>
</g>
<!-- DebugPrintable&#45;&gt;String -->
<g id="edge16" class="edge">
<path fill="none" stroke="#cccccc" d="M1330.18,-59.8552C1377.33,-51.3107 1452.56,-37.051 1517,-22 1517.1,-21.9764 1517.2,-21.9526 1517.3,-21.9288"/>
<polygon fill="#cccccc" stroke="#cccccc" points="1518.11,-25.3349 1526.98,-19.5347 1516.43,-18.54 1518.11,-25.3349"/>
</g>
<!-- String.UTF16View -->
<g id="node18" class="node">
<g id="a_node18"><a xlink:href="/v1.2/type/String.UTF16View/hierarchy/" target="_top">
<polygon fill="#999999" stroke="#999999" points="1706.37,-22 1599.63,-22 1599.63,-0 1706.37,-0 1706.37,-22"/>
<text text-anchor="middle" x="1653" y="-7.4" font-family="Helvetica,sans-Serif" font-size="12.00" fill="white">String.UTF16View</text>
</a>
</g>
</g>
<!-- DebugPrintable&#45;&gt;String.UTF16View -->
<g id="edge22" class="edge">
<path fill="none" stroke="#cccccc" d="M1330.16,-61.182C1388.09,-52.598 1490.78,-37.2932 1589.26,-22.1046"/>
<polygon fill="#cccccc" stroke="#cccccc" points="1590.04,-25.5256 1599.39,-20.5404 1588.97,-18.6076 1590.04,-25.5256"/>
</g>
<!-- String.UTF8View -->
<g id="node19" class="node">
<g id="a_node19"><a xlink:href="/v1.2/type/String.UTF8View/hierarchy/" target="_top">
<polygon fill="#999999" stroke="#999999" points="1825.36,-22 1724.64,-22 1724.64,-0 1825.36,-0 1825.36,-22"/>
<text text-anchor="middle" x="1775" y="-7.4" font-family="Helvetica,sans-Serif" font-size="12.00" fill="white">String.UTF8View</text>
</a>
</g>
</g>
<!-- DebugPrintable&#45;&gt;String.UTF8View -->
<g id="edge23" class="edge">
<path fill="none" stroke="#cccccc" d="M1330.35,-63.9547C1407.65,-57.0116 1567.98,-41.7725 1714.54,-21.9887"/>
<polygon fill="#cccccc" stroke="#cccccc" points="1715.18,-25.4336 1724.62,-20.6178 1714.24,-18.4975 1715.18,-25.4336"/>
</g>
<!-- String.UnicodeScalarView -->
<g id="node20" class="node">
<g id="a_node20"><a xlink:href="/v1.2/type/String.UnicodeScalarView/hierarchy/" target="_top">
<polygon fill="#999999" stroke="#999999" points="1991.89,-22 1844.11,-22 1844.11,-0 1991.89,-0 1991.89,-22"/>
<text text-anchor="middle" x="1918" y="-7.4" font-family="Helvetica,sans-Serif" font-size="12.00" fill="white">String.UnicodeScalarView</text>
</a>
</g>
</g>
<!-- DebugPrintable&#45;&gt;String.UnicodeScalarView -->
<g id="edge24" class="edge">
<path fill="none" stroke="#cccccc" d="M1330.04,-64.697C1422.97,-57.9126 1639.81,-41.48 1833.72,-21.994"/>
<polygon fill="#cccccc" stroke="#cccccc" points="1834.21,-25.4619 1843.81,-20.9748 1833.51,-18.4973 1834.21,-25.4619"/>
</g>
<!-- UnicodeScalar -->
<g id="node21" class="node">
<g id="a_node21"><a xlink:href="/v1.2/type/UnicodeScalar/hierarchy/" target="_top">
<polygon fill="#999999" stroke="#999999" points="2098.03,-22 2009.97,-22 2009.97,-0 2098.03,-0 2098.03,-22"/>
<text text-anchor="middle" x="2054" y="-7.4" font-family="Helvetica,sans-Serif" font-size="12.00" fill="white">UnicodeScalar</text>
</a>
</g>
</g>
<!-- DebugPrintable&#45;&gt;UnicodeScalar -->
<g id="edge17" class="edge">
<path fill="none" stroke="#cccccc" d="M1330.32,-66.9914C1443.18,-64.1133 1741.45,-53.9787 1999.87,-21.9996"/>
<polygon fill="#cccccc" stroke="#cccccc" points="2000.33,-25.4694 2009.82,-20.7551 1999.46,-18.5235 2000.33,-25.4694"/>
</g>
<!-- UnsafeBufferPointer -->
<g id="node22" class="node">
<g id="a_node22"><a xlink:href="/v1.2/type/UnsafeBufferPointer/hierarchy/" target="_top">
<polygon fill="#999999" stroke="#999999" points="2233.39,-22 2116.61,-22 2116.61,-0 2233.39,-0 2233.39,-22"/>
<text text-anchor="middle" x="2175" y="-7.4" font-family="Helvetica,sans-Serif" font-size="12.00" fill="white">UnsafeBufferPointer</text>
</a>
</g>
</g>
<!-- DebugPrintable&#45;&gt;UnsafeBufferPointer -->
<g id="edge18" class="edge">
<path fill="none" stroke="#cccccc" d="M1330.07,-66.8818C1453.81,-63.5669 1803.94,-52.1422 2106.16,-21.9893"/>
<polygon fill="#cccccc" stroke="#cccccc" points="2106.84,-25.4386 2116.44,-20.9546 2106.14,-18.4738 2106.84,-25.4386"/>
</g>
<!-- UnsafeMutableBufferPointer -->
<g id="node23" class="node">
<g id="a_node23"><a xlink:href="/v1.2/type/UnsafeMutableBufferPointer/hierarchy/" target="_top">
<polygon fill="#999999" stroke="#999999" points="2411.91,-22 2252.09,-22 2252.09,-0 2411.91,-0 2411.91,-22"/>
<text text-anchor="middle" x="2332" y="-7.4" font-family="Helvetica,sans-Serif" font-size="12.00" fill="white">UnsafeMutableBufferPointer</text>
</a>
</g>
</g>
<!-- DebugPrintable&#45;&gt;UnsafeMutableBufferPointer -->
<g id="edge19" class="edge">
<path fill="none" stroke="#cccccc" d="M1330.42,-66.8027C1469.07,-63.0051 1892.18,-49.8054 2242,-22 2242.1,-21.9918 2242.21,-21.9836 2242.31,-21.9754"/>
<polygon fill="#cccccc" stroke="#cccccc" points="2242.37,-25.4829 2252.04,-21.1479 2241.78,-18.5081 2242.37,-25.4829"/>
</g>
<!-- UnsafeMutablePointer -->
<g id="node24" class="node">
<g id="a_node24"><a xlink:href="/v1.2/type/UnsafeMutablePointer/hierarchy/" target="_top">
<polygon fill="#999999" stroke="#999999" points="2559.05,-22 2430.95,-22 2430.95,-0 2559.05,-0 2559.05,-22"/>
<text text-anchor="middle" x="2495" y="-7.4" font-family="Helvetica,sans-Serif" font-size="12.00" fill="white">UnsafeMutablePointer</text>
</a>
</g>
</g>
<!-- DebugPrintable&#45;&gt;UnsafeMutablePointer -->
<g id="edge20" class="edge">
<path fill="none" stroke="#cccccc" d="M1330.13,-67.6857C1483.49,-66.3123 1990.36,-59.1369 2420.71,-21.9262"/>
<polygon fill="#cccccc" stroke="#cccccc" points="2421.21,-25.3966 2430.87,-21.0417 2420.6,-18.4231 2421.21,-25.3966"/>
</g>
<!-- UnsafePointer -->
<g id="node25" class="node">
<g id="a_node25"><a xlink:href="/v1.2/type/UnsafePointer/hierarchy/" target="_top">
<polygon fill="#999999" stroke="#999999" points="2663.03,-22 2576.97,-22 2576.97,-0 2663.03,-0 2663.03,-22"/>
<text text-anchor="middle" x="2620" y="-7.4" font-family="Helvetica,sans-Serif" font-size="12.00" fill="white">UnsafePointer</text>
</a>
</g>
</g>
<!-- DebugPrintable&#45;&gt;UnsafePointer -->
<g id="edge21" class="edge">
<path fill="none" stroke="#cccccc" d="M1330.19,-67.3007C1527.45,-64.1691 2300.89,-50.3762 2566.94,-21.9143"/>
<polygon fill="#cccccc" stroke="#cccccc" points="2567.39,-25.3856 2576.95,-20.8091 2566.62,-18.4278 2567.39,-25.3856"/>
</g>
</g>
</svg>
