<?xml version="1.0" encoding="UTF-8" standalone="no"?>
<!DOCTYPE svg PUBLIC "-//W3C//DTD SVG 1.1//EN"
 "http://www.w3.org/Graphics/SVG/1.1/DTD/svg11.dtd">
<!-- Generated by graphviz version 2.36.0 (20140111.2315)
 -->
<!-- Title: RawOptionSetType &#45; Type Hierarchy &#45; SwiftDoc.org Pages: 1 -->
<svg width="469pt" height="253pt"
 viewBox="0.00 0.00 469.40 253.20" xmlns="http://www.w3.org/2000/svg" xmlns:xlink="http://www.w3.org/1999/xlink">
<g id="graph0" class="graph" transform="scale(1 1) rotate(0) translate(7.2 195.6)">
<title>RawOptionSetType &#45; Type Hierarchy &#45; SwiftDoc.org</title>
<polygon fill="white" stroke="none" points="-7.2,57.6 -7.2,-195.6 462.2,-195.6 462.2,57.6 -7.2,57.6"/>
<!-- BitwiseOperationsType -->
<g id="node1" class="node"><title>BitwiseOperationsType</title>
<g id="a_node1"><a xlink:href="/protocol/BitwiseOperationsType/" xlink:title="BitwiseOperationsType">
<path fill="#999999" stroke="#999999" d="M124.715,-80C124.715,-80 7.28484,-80 7.28484,-80 3.61817,-80 -0.0484948,-76.3333 -0.0484948,-72.6667 -0.0484948,-72.6667 -0.0484948,-65.3333 -0.0484948,-65.3333 -0.0484948,-61.6667 3.61817,-58 7.28484,-58 7.28484,-58 124.715,-58 124.715,-58 128.382,-58 132.048,-61.6667 132.048,-65.3333 132.048,-65.3333 132.048,-72.6667 132.048,-72.6667 132.048,-76.3333 128.382,-80 124.715,-80"/>
<text text-anchor="middle" x="66" y="-65.4" font-family="Helvetica,sans-Serif" font-size="12.00" fill="white">BitwiseOperationsType</text>
</a>
</g>
</g>
<!-- RawOptionSetType -->
<g id="node4" class="node"><title>RawOptionSetType</title>
<g id="a_node4"><a xlink:href="/protocol/RawOptionSetType/" xlink:title="RawOptionSetType">
<path fill="#ee543d" stroke="#ee543d" d="M258.212,-22C258.212,-22 159.788,-22 159.788,-22 156.121,-22 152.455,-18.3333 152.455,-14.6667 152.455,-14.6667 152.455,-7.33333 152.455,-7.33333 152.455,-3.66667 156.121,-0 159.788,-0 159.788,-0 258.212,-0 258.212,-0 261.879,-0 265.545,-3.66667 265.545,-7.33333 265.545,-7.33333 265.545,-14.6667 265.545,-14.6667 265.545,-18.3333 261.879,-22 258.212,-22"/>
<text text-anchor="middle" x="209" y="-7.4" font-family="Helvetica,sans-Serif" font-size="12.00" fill="white">RawOptionSetType</text>
</a>
</g>
</g>
<!-- BitwiseOperationsType&#45;&gt;RawOptionSetType -->
<g id="edge2" class="edge"><title>BitwiseOperationsType&#45;&gt;RawOptionSetType</title>
<path fill="none" stroke="#cccccc" d="M91.5655,-57.9883C114.503,-49.0057 148.379,-35.7398 173.859,-25.7614"/>
<polygon fill="#cccccc" stroke="#cccccc" points="175.138,-29.0193 183.174,-22.1138 172.586,-22.5013 175.138,-29.0193"/>
</g>
<!-- Equatable -->
<g id="node2" class="node"><title>Equatable</title>
<g id="a_node2"><a xlink:href="/protocol/Equatable/" xlink:title="Equatable">
<path fill="#999999" stroke="#999999" d="M317.702,-138C317.702,-138 268.298,-138 268.298,-138 264.632,-138 260.965,-134.333 260.965,-130.667 260.965,-130.667 260.965,-123.333 260.965,-123.333 260.965,-119.667 264.632,-116 268.298,-116 268.298,-116 317.702,-116 317.702,-116 321.368,-116 325.035,-119.667 325.035,-123.333 325.035,-123.333 325.035,-130.667 325.035,-130.667 325.035,-134.333 321.368,-138 317.702,-138"/>
<text text-anchor="middle" x="293" y="-123.4" font-family="Helvetica,sans-Serif" font-size="12.00" fill="white">Equatable</text>
</a>
</g>
</g>
<!-- _RawOptionSetType -->
<g id="node6" class="node"><title>_RawOptionSetType</title>
<g id="a_node6"><a xlink:href="/protocol/_RawOptionSetType/" xlink:title="_RawOptionSetType">
<path fill="#999999" stroke="#999999" d="M398.718,-80C398.718,-80 293.282,-80 293.282,-80 289.615,-80 285.949,-76.3333 285.949,-72.6667 285.949,-72.6667 285.949,-65.3333 285.949,-65.3333 285.949,-61.6667 289.615,-58 293.282,-58 293.282,-58 398.718,-58 398.718,-58 402.385,-58 406.051,-61.6667 406.051,-65.3333 406.051,-65.3333 406.051,-72.6667 406.051,-72.6667 406.051,-76.3333 402.385,-80 398.718,-80"/>
<text text-anchor="middle" x="346" y="-65.4" font-family="Helvetica,sans-Serif" font-size="12.00" fill="white">_RawOptionSetType</text>
</a>
</g>
</g>
<!-- Equatable&#45;&gt;_RawOptionSetType -->
<g id="edge5" class="edge"><title>Equatable&#45;&gt;_RawOptionSetType</title>
<path fill="none" stroke="#cccccc" d="M302.475,-115.988C309.919,-108.123 320.471,-96.9745 329.32,-87.6239"/>
<polygon fill="#cccccc" stroke="#cccccc" points="331.916,-89.9727 336.248,-80.3039 326.832,-85.161 331.916,-89.9727"/>
</g>
<!-- NilLiteralConvertible -->
<g id="node3" class="node"><title>NilLiteralConvertible</title>
<g id="a_node3"><a xlink:href="/protocol/NilLiteralConvertible/" xlink:title="NilLiteralConvertible">
<path fill="#999999" stroke="#999999" d="M260.2,-80C260.2,-80 157.8,-80 157.8,-80 154.133,-80 150.466,-76.3333 150.466,-72.6667 150.466,-72.6667 150.466,-65.3333 150.466,-65.3333 150.466,-61.6667 154.133,-58 157.8,-58 157.8,-58 260.2,-58 260.2,-58 263.867,-58 267.534,-61.6667 267.534,-65.3333 267.534,-65.3333 267.534,-72.6667 267.534,-72.6667 267.534,-76.3333 263.867,-80 260.2,-80"/>
<text text-anchor="middle" x="209" y="-65.4" font-family="Helvetica,sans-Serif" font-size="12.00" fill="white">NilLiteralConvertible</text>
</a>
</g>
</g>
<!-- NilLiteralConvertible&#45;&gt;RawOptionSetType -->
<g id="edge3" class="edge"><title>NilLiteralConvertible&#45;&gt;RawOptionSetType</title>
<path fill="none" stroke="#cccccc" d="M209,-57.9883C209,-50.9098 209,-41.1714 209,-32.4779"/>
<polygon fill="#cccccc" stroke="#cccccc" points="212.5,-32.3038 209,-22.3039 205.5,-32.3039 212.5,-32.3038"/>
</g>
<!-- RawRepresentable -->
<g id="node5" class="node"><title>RawRepresentable</title>
<g id="a_node5"><a xlink:href="/protocol/RawRepresentable/" xlink:title="RawRepresentable">
<path fill="#999999" stroke="#999999" d="M447.711,-138C447.711,-138 350.289,-138 350.289,-138 346.623,-138 342.956,-134.333 342.956,-130.667 342.956,-130.667 342.956,-123.333 342.956,-123.333 342.956,-119.667 346.623,-116 350.289,-116 350.289,-116 447.711,-116 447.711,-116 451.377,-116 455.044,-119.667 455.044,-123.333 455.044,-123.333 455.044,-130.667 455.044,-130.667 455.044,-134.333 451.377,-138 447.711,-138"/>
<text text-anchor="middle" x="399" y="-123.4" font-family="Helvetica,sans-Serif" font-size="12.00" fill="white">RawRepresentable</text>
</a>
</g>
</g>
<!-- RawRepresentable&#45;&gt;_RawOptionSetType -->
<g id="edge4" class="edge"><title>RawRepresentable&#45;&gt;_RawOptionSetType</title>
<path fill="none" stroke="#cccccc" d="M389.525,-115.988C382.081,-108.123 371.529,-96.9745 362.68,-87.6239"/>
<polygon fill="#cccccc" stroke="#cccccc" points="365.168,-85.161 355.752,-80.3039 360.084,-89.9727 365.168,-85.161"/>
</g>
<!-- _RawOptionSetType&#45;&gt;RawOptionSetType -->
<g id="edge1" class="edge"><title>_RawOptionSetType&#45;&gt;RawOptionSetType</title>
<path fill="none" stroke="#cccccc" d="M321.507,-57.9883C299.725,-49.0849 267.649,-35.9733 243.313,-26.0259"/>
<polygon fill="#cccccc" stroke="#cccccc" points="244.324,-22.6578 233.743,-22.1138 241.675,-29.1374 244.324,-22.6578"/>
</g>
</g>
</svg>
