<?xml version="1.0" encoding="UTF-8" standalone="no"?>
<!DOCTYPE svg PUBLIC "-//W3C//DTD SVG 1.1//EN"
 "http://www.w3.org/Graphics/SVG/1.1/DTD/svg11.dtd">
<!-- Generated by graphviz version 2.36.0 (20140111.2315)
 -->
<!-- Title: Hashable &#45; Type Hierarchy &#45; SwiftDoc.org Pages: 1 -->
<svg width="1810pt" height="427pt"
 viewBox="0.00 0.00 1810.40 427.20" xmlns="http://www.w3.org/2000/svg" xmlns:xlink="http://www.w3.org/1999/xlink">
<g id="graph0" class="graph" transform="scale(1 1) rotate(0) translate(7.2 369.6)">
<g transform="translate(0 -369.6)">
<g>
    <path fill="#666666" d="M13.846,10.832c-0.336-0.464-0.792-0.844-1.368-1.14s-1.224-0.444-1.944-0.444
        c-0.384,0-0.772,0.052-1.164,0.156C8.977,9.509,8.622,9.677,8.301,9.908c-0.32,0.232-0.58,0.52-0.78,0.864
        c-0.2,0.344-0.3,0.756-0.3,1.236c0,0.464,0.092,0.852,0.276,1.164c0.184,0.312,0.432,0.576,0.744,0.792s0.68,0.4,1.104,0.552
        c0.423,0.152,0.876,0.309,1.356,0.468c0.576,0.177,1.16,0.376,1.752,0.601c0.592,0.224,1.128,0.52,1.608,0.888
        s0.872,0.828,1.176,1.38s0.456,1.252,0.456,2.101c0,0.88-0.164,1.644-0.492,2.292c-0.328,0.647-0.765,1.184-1.308,1.607
        c-0.544,0.424-1.172,0.74-1.884,0.948s-1.444,0.312-2.196,0.312c-1.072,0-2.108-0.208-3.108-0.624
        c-1-0.415-1.828-1.031-2.484-1.848l1.848-1.56c0.4,0.592,0.936,1.071,1.608,1.439c0.672,0.368,1.399,0.552,2.184,0.552
        c0.4,0,0.8-0.056,1.2-0.168c0.4-0.111,0.764-0.288,1.092-0.527c0.328-0.24,0.596-0.54,0.804-0.9
        c0.208-0.36,0.312-0.796,0.312-1.308s-0.108-0.94-0.324-1.284c-0.216-0.344-0.508-0.636-0.876-0.876s-0.796-0.444-1.284-0.612
        c-0.488-0.168-1.004-0.34-1.548-0.516c-0.544-0.16-1.08-0.356-1.608-0.588c-0.528-0.232-1-0.528-1.416-0.889
        c-0.416-0.359-0.752-0.804-1.008-1.332c-0.256-0.527-0.384-1.184-0.384-1.968c0-0.848,0.172-1.576,0.516-2.184
        c0.344-0.608,0.792-1.112,1.344-1.512c0.552-0.4,1.176-0.692,1.872-0.876c0.696-0.184,1.396-0.276,2.1-0.276
        c0.992,0,1.92,0.176,2.784,0.528c0.864,0.352,1.56,0.824,2.088,1.416L13.846,10.832z"/>
    <path fill="#666666" d="M18.813,13.304l2.568,8.688h0.048l2.712-8.688h2.376l2.76,8.688h0.048l2.568-8.688h2.376L30.501,24.68
        h-2.352l-2.808-8.544h-0.048l-2.784,8.544h-2.352l-3.792-11.376H18.813z"/>
    <path fill="#666666" d="M38.685,9.2c0,0.416-0.147,0.76-0.44,1.032c-0.294,0.272-0.647,0.408-1.06,0.408s-0.762-0.14-1.047-0.42
        c-0.286-0.28-0.429-0.62-0.429-1.02c0-0.416,0.143-0.764,0.429-1.044c0.286-0.28,0.635-0.42,1.047-0.42s0.766,0.14,1.06,0.42
        C38.538,8.437,38.685,8.784,38.685,9.2z M38.325,24.68h-2.256V13.304h2.256V24.68z"/>
    <path fill="#666666" d="M47.613,15.152h-2.64v9.528h-2.256v-9.528h-2.256v-1.848h2.256v-2.376c0-0.672,0.076-1.292,0.228-1.86
        c0.152-0.568,0.4-1.06,0.744-1.476c0.344-0.416,0.784-0.744,1.32-0.984c0.536-0.24,1.188-0.36,1.956-0.36
        c0.544,0,1.016,0.056,1.416,0.168l-0.264,1.944c-0.176-0.048-0.352-0.088-0.528-0.12c-0.176-0.032-0.376-0.048-0.6-0.048
        c-0.432,0-0.78,0.076-1.044,0.228c-0.264,0.152-0.468,0.356-0.612,0.612s-0.24,0.548-0.288,0.876
        c-0.048,0.328-0.072,0.668-0.072,1.02v2.376h2.64V15.152z"/>
    <path fill="#666666" d="M54.909,15.152h-3.024v5.91c0,0.687,0.128,1.177,0.384,1.472c0.256,0.295,0.664,0.442,1.224,0.442
        c0.208,0,0.432-0.021,0.672-0.065c0.24-0.044,0.456-0.11,0.648-0.198l0.072,1.848c-0.272,0.096-0.572,0.172-0.9,0.229
        c-0.328,0.056-0.668,0.084-1.02,0.084c-1.072,0-1.892-0.296-2.46-0.889c-0.568-0.592-0.852-1.479-0.852-2.664v-6.168h-2.184
        v-1.848h2.184V10.04h2.232v3.264h3.024V15.152z"/>
    <path fill="#666666" d="M57.356,7.688h5.832c1.088,0,2.176,0.16,3.264,0.48c1.088,0.32,2.072,0.824,2.952,1.512
        s1.592,1.568,2.136,2.64c0.544,1.072,0.816,2.36,0.816,3.864c0,1.456-0.272,2.716-0.816,3.78s-1.256,1.943-2.136,2.64
        s-1.864,1.216-2.952,1.561c-1.088,0.344-2.176,0.516-3.264,0.516h-5.832V7.688z M59.732,22.593h2.976
        c1.024,0,1.972-0.145,2.844-0.432c0.872-0.288,1.624-0.704,2.256-1.248c0.632-0.544,1.124-1.216,1.476-2.017
        c0.352-0.8,0.528-1.704,0.528-2.712c0-1.056-0.176-1.983-0.528-2.784c-0.353-0.8-0.844-1.468-1.476-2.004
        c-0.632-0.536-1.384-0.944-2.256-1.224s-1.82-0.42-2.844-0.42h-2.976V22.593z"/>
    <path fill="#666666" d="M86.06,18.969c0,0.88-0.156,1.688-0.468,2.424c-0.312,0.736-0.744,1.372-1.296,1.908
        c-0.552,0.536-1.204,0.952-1.956,1.248c-0.752,0.296-1.56,0.443-2.424,0.443c-0.864,0-1.672-0.147-2.424-0.443
        c-0.752-0.296-1.4-0.712-1.944-1.248c-0.544-0.536-0.972-1.172-1.284-1.908c-0.312-0.735-0.468-1.544-0.468-2.424
        s0.156-1.684,0.468-2.412c0.312-0.728,0.74-1.356,1.284-1.884c0.543-0.528,1.191-0.939,1.944-1.236
        c0.752-0.296,1.56-0.444,2.424-0.444c0.864,0,1.672,0.148,2.424,0.444c0.752,0.297,1.404,0.708,1.956,1.236
        c0.552,0.527,0.984,1.156,1.296,1.884C85.904,17.285,86.06,18.089,86.06,18.969z M83.708,18.98c0-0.542-0.084-1.061-0.252-1.556
        c-0.169-0.494-0.414-0.929-0.734-1.304s-0.718-0.674-1.192-0.897s-1.015-0.335-1.625-0.335c-0.61,0-1.152,0.111-1.625,0.335
        c-0.474,0.224-0.871,0.522-1.191,0.897c-0.321,0.375-0.566,0.81-0.734,1.304C76.184,17.92,76.1,18.438,76.1,18.98
        c0,0.543,0.084,1.062,0.253,1.556c0.168,0.495,0.413,0.934,0.734,1.316c0.321,0.383,0.718,0.686,1.191,0.909
        c0.473,0.224,1.015,0.335,1.625,0.335c0.61,0,1.151-0.111,1.625-0.335s0.871-0.526,1.192-0.909s0.565-0.821,0.734-1.316
        C83.624,20.042,83.708,19.523,83.708,18.98z"/>
    <path fill="#666666" d="M96.428,16.184c-0.24-0.368-0.6-0.676-1.08-0.924s-0.992-0.372-1.536-0.372
        c-0.592,0-1.116,0.112-1.572,0.336c-0.456,0.225-0.844,0.524-1.164,0.9c-0.32,0.376-0.564,0.812-0.732,1.308
        s-0.252,1.017-0.252,1.56c0,0.545,0.084,1.064,0.252,1.561s0.412,0.933,0.732,1.308c0.32,0.376,0.712,0.677,1.176,0.9
        c0.464,0.225,0.992,0.336,1.584,0.336c0.576,0,1.1-0.111,1.572-0.336c0.472-0.224,0.86-0.528,1.164-0.912l1.512,1.368
        c-0.48,0.561-1.08,0.996-1.8,1.308c-0.72,0.312-1.536,0.468-2.448,0.468c-0.88,0-1.692-0.144-2.436-0.432
        c-0.744-0.288-1.388-0.691-1.932-1.212c-0.544-0.52-0.972-1.147-1.284-1.884s-0.468-1.561-0.468-2.473
        c0-0.896,0.152-1.711,0.456-2.447c0.304-0.736,0.728-1.368,1.272-1.896c0.543-0.527,1.188-0.936,1.932-1.224
        c0.744-0.288,1.548-0.433,2.412-0.433c0.8,0,1.596,0.16,2.388,0.48s1.419,0.784,1.884,1.392L96.428,16.184z"/>
    <path fill="#666666" d="M103.1,23.24c0,0.417-0.152,0.784-0.456,1.104c-0.304,0.32-0.688,0.479-1.152,0.479
        c-0.448,0-0.828-0.155-1.14-0.468c-0.312-0.312-0.468-0.676-0.468-1.092c0-0.432,0.152-0.804,0.456-1.116
        c0.304-0.312,0.688-0.468,1.152-0.468c0.464,0,0.848,0.152,1.152,0.456C102.947,22.44,103.1,22.808,103.1,23.24z"/>
    <path fill="#666666" d="M116.635,18.969c0,0.88-0.156,1.688-0.468,2.424c-0.312,0.736-0.744,1.372-1.296,1.908
        c-0.552,0.536-1.204,0.952-1.956,1.248c-0.752,0.296-1.56,0.443-2.424,0.443c-0.864,0-1.672-0.147-2.424-0.443
        c-0.752-0.296-1.4-0.712-1.944-1.248c-0.544-0.536-0.972-1.172-1.284-1.908c-0.312-0.735-0.468-1.544-0.468-2.424
        s0.156-1.684,0.468-2.412c0.312-0.728,0.74-1.356,1.284-1.884c0.543-0.528,1.191-0.939,1.944-1.236
        c0.752-0.296,1.56-0.444,2.424-0.444c0.864,0,1.672,0.148,2.424,0.444c0.752,0.297,1.404,0.708,1.956,1.236
        c0.552,0.527,0.984,1.156,1.296,1.884C116.479,17.285,116.635,18.089,116.635,18.969z M114.283,18.98
        c0-0.542-0.084-1.061-0.252-1.556c-0.169-0.494-0.414-0.929-0.734-1.304s-0.718-0.674-1.192-0.897s-1.015-0.335-1.625-0.335
        c-0.61,0-1.152,0.111-1.625,0.335c-0.474,0.224-0.871,0.522-1.191,0.897c-0.321,0.375-0.566,0.81-0.734,1.304
        c-0.169,0.495-0.253,1.014-0.253,1.556c0,0.543,0.084,1.062,0.253,1.556c0.168,0.495,0.413,0.934,0.734,1.316
        c0.321,0.383,0.718,0.686,1.191,0.909c0.473,0.224,1.015,0.335,1.625,0.335c0.61,0,1.151-0.111,1.625-0.335
        s0.871-0.526,1.192-0.909s0.565-0.821,0.734-1.316C114.199,20.042,114.283,19.523,114.283,18.98z"/>
    <path fill="#666666" d="M119.251,14.577c-0.016-0.48-0.04-0.904-0.072-1.272h2.136c0.032,0.288,0.056,0.62,0.072,0.996
        c0.016,0.376,0.024,0.684,0.024,0.924h0.072c0.32-0.672,0.788-1.212,1.404-1.62c0.616-0.408,1.308-0.612,2.076-0.612
        c0.352,0,0.648,0.033,0.888,0.097l-0.096,2.088c-0.32-0.08-0.664-0.12-1.032-0.12c-0.544,0-1.016,0.101-1.416,0.3
        c-0.4,0.2-0.732,0.468-0.996,0.805c-0.264,0.336-0.46,0.724-0.588,1.163c-0.128,0.44-0.192,0.9-0.192,1.381v5.976h-2.256v-8.928
        C119.275,15.449,119.267,15.056,119.251,14.577z"/>
    <path fill="#666666" d="M128.419,26.625c0.496,0.56,1.116,1.008,1.86,1.344c0.744,0.336,1.508,0.504,2.292,0.504
        c0.752,0,1.384-0.108,1.896-0.324s0.924-0.512,1.236-0.888s0.536-0.82,0.672-1.332c0.136-0.513,0.204-1.064,0.204-1.656v-1.464
        h-0.048c-0.416,0.641-0.984,1.128-1.704,1.464c-0.72,0.336-1.488,0.504-2.304,0.504c-0.864,0-1.652-0.151-2.364-0.456
        c-0.712-0.304-1.316-0.72-1.812-1.248c-0.496-0.527-0.88-1.147-1.152-1.859s-0.408-1.477-0.408-2.292
        c0-0.816,0.136-1.584,0.408-2.305c0.272-0.72,0.656-1.348,1.152-1.884c0.496-0.535,1.096-0.96,1.8-1.271
        c0.704-0.312,1.488-0.469,2.352-0.469c0.816,0,1.596,0.177,2.34,0.528c0.744,0.353,1.332,0.888,1.764,1.608h0.048v-1.824h2.184
        v10.8c0,0.832-0.104,1.628-0.312,2.388c-0.208,0.76-0.56,1.433-1.056,2.017s-1.144,1.052-1.944,1.404
        c-0.8,0.352-1.792,0.527-2.976,0.527c-0.992,0-1.988-0.18-2.988-0.54c-1-0.359-1.86-0.868-2.58-1.523L128.419,26.625z
         M129.091,18.873c0,0.527,0.084,1.031,0.253,1.512c0.168,0.479,0.417,0.904,0.746,1.271c0.329,0.369,0.726,0.664,1.192,0.889
        c0.465,0.224,0.995,0.336,1.589,0.336c0.577,0,1.107-0.104,1.589-0.312c0.481-0.207,0.891-0.491,1.228-0.852
        s0.598-0.784,0.782-1.272c0.185-0.487,0.277-1.012,0.277-1.571c0-0.544-0.093-1.057-0.277-1.536
        c-0.185-0.48-0.449-0.904-0.794-1.272c-0.345-0.367-0.755-0.66-1.228-0.876c-0.474-0.216-1-0.324-1.577-0.324
        c-0.594,0-1.124,0.108-1.589,0.324c-0.466,0.216-0.863,0.504-1.192,0.864s-0.578,0.784-0.746,1.271
        C129.175,17.812,129.091,18.329,129.091,18.873z"/>
</g>
<g><a xlink:href="/" pointer-events="all" target="_top"><polygon fill="none" points="0,0 145,0 145,35 0,35 0,0"/></a></g>

</g>


<!-- Bool -->
<g id="node1" class="node">
<g id="a_node1"><a xlink:href="/v2.0/type/Bool/hierarchy/" target="_top">
<polygon fill="#999999" stroke="#999999" points="54,-22 0,-22 0,-0 54,-0 54,-22"/>
<text text-anchor="middle" x="27" y="-7.4" font-family="Helvetica,sans-Serif" font-size="12.00" fill="white">Bool</text>
</a>
</g>
</g>
<!-- COpaquePointer -->
<g id="node2" class="node">
<g id="a_node2"><a xlink:href="/v2.0/type/COpaquePointer/hierarchy/" target="_top">
<polygon fill="#999999" stroke="#999999" points="171.542,-22 72.4576,-22 72.4576,-0 171.542,-0 171.542,-22"/>
<text text-anchor="middle" x="122" y="-7.4" font-family="Helvetica,sans-Serif" font-size="12.00" fill="white">COpaquePointer</text>
</a>
</g>
</g>
<!-- Character -->
<g id="node3" class="node">
<g id="a_node3"><a xlink:href="/v2.0/type/Character/hierarchy/" target="_top">
<polygon fill="#999999" stroke="#999999" points="252.017,-22 189.983,-22 189.983,-0 252.017,-0 252.017,-22"/>
<text text-anchor="middle" x="221" y="-7.4" font-family="Helvetica,sans-Serif" font-size="12.00" fill="white">Character</text>
</a>
</g>
</g>
<!-- Double -->
<g id="node4" class="node">
<g id="a_node4"><a xlink:href="/v2.0/type/Double/hierarchy/" target="_top">
<polygon fill="#999999" stroke="#999999" points="324,-22 270,-22 270,-0 324,-0 324,-22"/>
<text text-anchor="middle" x="297" y="-7.4" font-family="Helvetica,sans-Serif" font-size="12.00" fill="white">Double</text>
</a>
</g>
</g>
<!-- Equatable -->
<g id="node5" class="node">
<g id="a_node5"><a xlink:href="/v2.0/protocol/Equatable/hierarchy/" target="_top">
<path fill="#999999" stroke="#999999" d="M555.702,-312C555.702,-312 506.298,-312 506.298,-312 502.632,-312 498.965,-308.333 498.965,-304.667 498.965,-304.667 498.965,-297.333 498.965,-297.333 498.965,-293.667 502.632,-290 506.298,-290 506.298,-290 555.702,-290 555.702,-290 559.368,-290 563.035,-293.667 563.035,-297.333 563.035,-297.333 563.035,-304.667 563.035,-304.667 563.035,-308.333 559.368,-312 555.702,-312"/>
<text text-anchor="middle" x="531" y="-297.4" font-family="Helvetica,sans-Serif" font-size="12.00" fill="white">Equatable</text>
</a>
</g>
</g>
<!-- Hashable -->
<g id="node8" class="node">
<g id="a_node8"><a xlink:href="/v2.0/protocol/Hashable/" target="_top">
<path fill="#ee543d" stroke="#ee543d" d="M553.694,-254C553.694,-254 508.306,-254 508.306,-254 504.639,-254 500.973,-250.333 500.973,-246.667 500.973,-246.667 500.973,-239.333 500.973,-239.333 500.973,-235.667 504.639,-232 508.306,-232 508.306,-232 553.694,-232 553.694,-232 557.361,-232 561.027,-235.667 561.027,-239.333 561.027,-239.333 561.027,-246.667 561.027,-246.667 561.027,-250.333 557.361,-254 553.694,-254"/>
<text text-anchor="middle" x="531" y="-239.4" font-family="Helvetica,sans-Serif" font-size="12.00" fill="white">Hashable</text>
</a>
</g>
</g>
<!-- Equatable&#45;&gt;Hashable -->
<g id="edge31" class="edge">
<path fill="none" stroke="#cccccc" d="M531,-289.988C531,-282.91 531,-273.171 531,-264.478"/>
<polygon fill="#cccccc" stroke="#cccccc" points="534.5,-264.304 531,-254.304 527.5,-264.304 534.5,-264.304"/>
</g>
<!-- Float -->
<g id="node6" class="node">
<g id="a_node6"><a xlink:href="/v2.0/type/Float/hierarchy/" target="_top">
<polygon fill="#999999" stroke="#999999" points="396,-22 342,-22 342,-0 396,-0 396,-22"/>
<text text-anchor="middle" x="369" y="-7.4" font-family="Helvetica,sans-Serif" font-size="12.00" fill="white">Float</text>
</a>
</g>
</g>
<!-- Float80 -->
<g id="node7" class="node">
<g id="a_node7"><a xlink:href="/v2.0/type/Float80/hierarchy/" target="_top">
<polygon fill="#999999" stroke="#999999" points="468,-22 414,-22 414,-0 468,-0 468,-22"/>
<text text-anchor="middle" x="441" y="-7.4" font-family="Helvetica,sans-Serif" font-size="12.00" fill="white">Float80</text>
</a>
</g>
</g>
<!-- Hashable&#45;&gt;Bool -->
<g id="edge1" class="edge">
<path fill="none" stroke="#cccccc" d="M500.843,-234.485C470.148,-226.435 421.461,-212.558 381,-196 253.177,-143.689 109.709,-61.2372 52.5169,-27.3349"/>
<polygon fill="#cccccc" stroke="#cccccc" points="54.1682,-24.2448 43.785,-22.1378 50.5881,-30.26 54.1682,-24.2448"/>
</g>
<!-- Hashable&#45;&gt;COpaquePointer -->
<g id="edge2" class="edge">
<path fill="none" stroke="#cccccc" d="M504.057,-231.941C481.679,-223.278 449.22,-209.99 422,-196 314.568,-140.784 194.155,-61.1176 144.878,-27.6931"/>
<polygon fill="#cccccc" stroke="#cccccc" points="146.76,-24.7404 136.524,-22.0065 142.821,-30.5269 146.76,-24.7404"/>
</g>
<!-- Hashable&#45;&gt;Character -->
<g id="edge3" class="edge">
<path fill="none" stroke="#cccccc" d="M513.107,-231.998C497.456,-223.055 474.278,-209.34 455,-196 372.425,-138.861 280.395,-62.4595 240.833,-28.9532"/>
<polygon fill="#cccccc" stroke="#cccccc" points="242.671,-25.9219 232.784,-22.1139 238.139,-31.2563 242.671,-25.9219"/>
</g>
<!-- Hashable&#45;&gt;Double -->
<g id="edge4" class="edge">
<path fill="none" stroke="#cccccc" d="M519.756,-231.9C509.54,-222.666 494.109,-208.574 481,-196 418.485,-136.035 346.39,-62.6698 314.139,-29.621"/>
<polygon fill="#cccccc" stroke="#cccccc" points="316.314,-26.8385 306.828,-22.1201 311.302,-31.7243 316.314,-26.8385"/>
</g>
<!-- Hashable&#45;&gt;Float -->
<g id="edge5" class="edge">
<path fill="none" stroke="#cccccc" d="M523.83,-231.82C498.686,-196.122 414.285,-76.2938 381.849,-30.2419"/>
<polygon fill="#cccccc" stroke="#cccccc" points="384.707,-28.2222 376.087,-22.062 378.984,-32.2531 384.707,-28.2222"/>
</g>
<!-- Hashable&#45;&gt;Float80 -->
<g id="edge6" class="edge">
<path fill="none" stroke="#cccccc" d="M527.017,-231.82C513.164,-196.419 466.938,-78.2851 448.595,-31.4085"/>
<polygon fill="#cccccc" stroke="#cccccc" points="451.841,-30.099 444.937,-22.062 445.322,-32.6499 451.841,-30.099"/>
</g>
<!-- ObjectIdentifier -->
<g id="node15" class="node">
<g id="a_node15"><a xlink:href="/v2.0/type/ObjectIdentifier/hierarchy/" target="_top">
<polygon fill="#999999" stroke="#999999" points="576.031,-22 485.969,-22 485.969,-0 576.031,-0 576.031,-22"/>
<text text-anchor="middle" x="531" y="-7.4" font-family="Helvetica,sans-Serif" font-size="12.00" fill="white">ObjectIdentifier</text>
</a>
</g>
</g>
<!-- Hashable&#45;&gt;ObjectIdentifier -->
<g id="edge7" class="edge">
<path fill="none" stroke="#cccccc" d="M531,-231.82C531,-196.642 531,-79.7709 531,-32.3033"/>
<polygon fill="#cccccc" stroke="#cccccc" points="534.5,-32.062 531,-22.062 527.5,-32.0621 534.5,-32.062"/>
</g>
<!-- Set -->
<g id="node16" class="node">
<g id="a_node16"><a xlink:href="/v2.0/type/Set/hierarchy/" target="_top">
<polygon fill="#999999" stroke="#999999" points="648,-22 594,-22 594,-0 648,-0 648,-22"/>
<text text-anchor="middle" x="621" y="-7.4" font-family="Helvetica,sans-Serif" font-size="12.00" fill="white">Set</text>
</a>
</g>
</g>
<!-- Hashable&#45;&gt;Set -->
<g id="edge8" class="edge">
<path fill="none" stroke="#cccccc" d="M534.983,-231.82C548.836,-196.419 595.062,-78.2851 613.405,-31.4085"/>
<polygon fill="#cccccc" stroke="#cccccc" points="616.678,-32.6499 617.063,-22.062 610.159,-30.099 616.678,-32.6499"/>
</g>
<!-- String -->
<g id="node18" class="node">
<g id="a_node18"><a xlink:href="/v2.0/type/String/hierarchy/" target="_top">
<polygon fill="#999999" stroke="#999999" points="720,-22 666,-22 666,-0 720,-0 720,-22"/>
<text text-anchor="middle" x="693" y="-7.4" font-family="Helvetica,sans-Serif" font-size="12.00" fill="white">String</text>
</a>
</g>
</g>
<!-- Hashable&#45;&gt;String -->
<g id="edge9" class="edge">
<path fill="none" stroke="#cccccc" d="M539.469,-231.954C547.129,-222.757 558.612,-208.687 568,-196 611.488,-137.231 659.015,-64.7586 680.825,-30.989"/>
<polygon fill="#cccccc" stroke="#cccccc" points="684.033,-32.4729 686.504,-22.1703 678.147,-28.6832 684.033,-32.4729"/>
</g>
<!-- UnicodeScalar -->
<g id="node24" class="node">
<g id="a_node24"><a xlink:href="/v2.0/type/UnicodeScalar/hierarchy/" target="_top">
<polygon fill="#999999" stroke="#999999" points="826.031,-22 737.969,-22 737.969,-0 826.031,-0 826.031,-22"/>
<text text-anchor="middle" x="782" y="-7.4" font-family="Helvetica,sans-Serif" font-size="12.00" fill="white">UnicodeScalar</text>
</a>
</g>
</g>
<!-- Hashable&#45;&gt;UnicodeScalar -->
<g id="edge10" class="edge">
<path fill="none" stroke="#cccccc" d="M544.908,-231.788C557.069,-222.711 575.069,-208.916 590,-196 657.237,-137.836 731.957,-63.0663 764.86,-29.5816"/>
<polygon fill="#cccccc" stroke="#cccccc" points="767.442,-31.9465 771.941,-22.3542 762.443,-27.0474 767.442,-31.9465"/>
</g>
<!-- UnsafeMutablePointer -->
<g id="node25" class="node">
<g id="a_node25"><a xlink:href="/v2.0/type/UnsafeMutablePointer/hierarchy/" target="_top">
<polygon fill="#999999" stroke="#999999" points="972.051,-22 843.949,-22 843.949,-0 972.051,-0 972.051,-22"/>
<text text-anchor="middle" x="908" y="-7.4" font-family="Helvetica,sans-Serif" font-size="12.00" fill="white">UnsafeMutablePointer</text>
</a>
</g>
</g>
<!-- Hashable&#45;&gt;UnsafeMutablePointer -->
<g id="edge11" class="edge">
<path fill="none" stroke="#cccccc" d="M550.692,-231.986C568.269,-222.924 594.615,-209.041 617,-196 718.376,-136.942 835.368,-60.2779 884.433,-27.7248"/>
<polygon fill="#cccccc" stroke="#cccccc" points="886.394,-30.6242 892.785,-22.174 882.519,-24.7943 886.394,-30.6242"/>
</g>
<!-- UnsafePointer -->
<g id="node26" class="node">
<g id="a_node26"><a xlink:href="/v2.0/type/UnsafePointer/hierarchy/" target="_top">
<polygon fill="#999999" stroke="#999999" points="1076.03,-22 989.968,-22 989.968,-0 1076.03,-0 1076.03,-22"/>
<text text-anchor="middle" x="1033" y="-7.4" font-family="Helvetica,sans-Serif" font-size="12.00" fill="white">UnsafePointer</text>
</a>
</g>
</g>
<!-- Hashable&#45;&gt;UnsafePointer -->
<g id="edge12" class="edge">
<path fill="none" stroke="#cccccc" d="M558.42,-231.978C582.488,-223.023 618.339,-209.3 649,-196 783.822,-137.518 940.813,-58.9083 1004.24,-26.6965"/>
<polygon fill="#cccccc" stroke="#cccccc" points="1005.93,-29.7652 1013.26,-22.1115 1002.76,-23.5261 1005.93,-29.7652"/>
</g>
<!-- _IntegerType -->
<g id="node29" class="node">
<g id="a_node29"><a xlink:href="/v2.0/protocol/_IntegerType/hierarchy/" target="_top">
<path fill="#999999" stroke="#999999" d="M1362.71,-196C1362.71,-196 1297.29,-196 1297.29,-196 1293.63,-196 1289.96,-192.333 1289.96,-188.667 1289.96,-188.667 1289.96,-181.333 1289.96,-181.333 1289.96,-177.667 1293.63,-174 1297.29,-174 1297.29,-174 1362.71,-174 1362.71,-174 1366.37,-174 1370.04,-177.667 1370.04,-181.333 1370.04,-181.333 1370.04,-188.667 1370.04,-188.667 1370.04,-192.333 1366.37,-196 1362.71,-196"/>
<text text-anchor="middle" x="1330" y="-181.4" font-family="Helvetica,sans-Serif" font-size="12.00" fill="white">_IntegerType</text>
</a>
</g>
</g>
<!-- Hashable&#45;&gt;_IntegerType -->
<g id="edge13" class="edge">
<path fill="none" stroke="#cccccc" d="M561.346,-239.873C681.881,-231.425 1127.6,-200.185 1279.17,-189.563"/>
<polygon fill="#cccccc" stroke="#cccccc" points="1279.83,-193.025 1289.56,-188.834 1279.34,-186.042 1279.83,-193.025"/>
</g>
<!-- Int -->
<g id="node9" class="node">
<g id="a_node9"><a xlink:href="/v2.0/type/Int/hierarchy/" target="_top">
<polygon fill="#999999" stroke="#999999" points="1148,-22 1094,-22 1094,-0 1148,-0 1148,-22"/>
<text text-anchor="middle" x="1121" y="-7.4" font-family="Helvetica,sans-Serif" font-size="12.00" fill="white">Int</text>
</a>
</g>
</g>
<!-- Int16 -->
<g id="node10" class="node">
<g id="a_node10"><a xlink:href="/v2.0/type/Int16/hierarchy/" target="_top">
<polygon fill="#999999" stroke="#999999" points="1220,-22 1166,-22 1166,-0 1220,-0 1220,-22"/>
<text text-anchor="middle" x="1193" y="-7.4" font-family="Helvetica,sans-Serif" font-size="12.00" fill="white">Int16</text>
</a>
</g>
</g>
<!-- Int32 -->
<g id="node11" class="node">
<g id="a_node11"><a xlink:href="/v2.0/type/Int32/hierarchy/" target="_top">
<polygon fill="#999999" stroke="#999999" points="1292,-22 1238,-22 1238,-0 1292,-0 1292,-22"/>
<text text-anchor="middle" x="1265" y="-7.4" font-family="Helvetica,sans-Serif" font-size="12.00" fill="white">Int32</text>
</a>
</g>
</g>
<!-- Int64 -->
<g id="node12" class="node">
<g id="a_node12"><a xlink:href="/v2.0/type/Int64/hierarchy/" target="_top">
<polygon fill="#999999" stroke="#999999" points="1364,-22 1310,-22 1310,-0 1364,-0 1364,-22"/>
<text text-anchor="middle" x="1337" y="-7.4" font-family="Helvetica,sans-Serif" font-size="12.00" fill="white">Int64</text>
</a>
</g>
</g>
<!-- Int8 -->
<g id="node13" class="node">
<g id="a_node13"><a xlink:href="/v2.0/type/Int8/hierarchy/" target="_top">
<polygon fill="#999999" stroke="#999999" points="1436,-22 1382,-22 1382,-0 1436,-0 1436,-22"/>
<text text-anchor="middle" x="1409" y="-7.4" font-family="Helvetica,sans-Serif" font-size="12.00" fill="white">Int8</text>
</a>
</g>
</g>
<!-- IntegerType -->
<g id="node14" class="node">
<g id="a_node14"><a xlink:href="/v2.0/protocol/IntegerType/hierarchy/" target="_top">
<path fill="#999999" stroke="#999999" d="M1416.2,-138C1416.2,-138 1357.8,-138 1357.8,-138 1354.13,-138 1350.47,-134.333 1350.47,-130.667 1350.47,-130.667 1350.47,-123.333 1350.47,-123.333 1350.47,-119.667 1354.13,-116 1357.8,-116 1357.8,-116 1416.2,-116 1416.2,-116 1419.87,-116 1423.53,-119.667 1423.53,-123.333 1423.53,-123.333 1423.53,-130.667 1423.53,-130.667 1423.53,-134.333 1419.87,-138 1416.2,-138"/>
<text text-anchor="middle" x="1387" y="-123.4" font-family="Helvetica,sans-Serif" font-size="12.00" fill="white">IntegerType</text>
</a>
</g>
</g>
<!-- SignedIntegerType -->
<g id="node17" class="node">
<g id="a_node17"><a xlink:href="/v2.0/protocol/SignedIntegerType/hierarchy/" target="_top">
<path fill="#999999" stroke="#999999" d="M1321.73,-80C1321.73,-80 1226.27,-80 1226.27,-80 1222.61,-80 1218.94,-76.3333 1218.94,-72.6667 1218.94,-72.6667 1218.94,-65.3333 1218.94,-65.3333 1218.94,-61.6667 1222.61,-58 1226.27,-58 1226.27,-58 1321.73,-58 1321.73,-58 1325.39,-58 1329.06,-61.6667 1329.06,-65.3333 1329.06,-65.3333 1329.06,-72.6667 1329.06,-72.6667 1329.06,-76.3333 1325.39,-80 1321.73,-80"/>
<text text-anchor="middle" x="1274" y="-65.4" font-family="Helvetica,sans-Serif" font-size="12.00" fill="white">SignedIntegerType</text>
</a>
</g>
</g>
<!-- IntegerType&#45;&gt;SignedIntegerType -->
<g id="edge17" class="edge">
<path fill="none" stroke="#cccccc" d="M1366.8,-115.988C1349.15,-107.243 1323.31,-94.4381 1303.38,-84.5594"/>
<polygon fill="#cccccc" stroke="#cccccc" points="1304.92,-81.4182 1294.41,-80.1138 1301.81,-87.6903 1304.92,-81.4182"/>
</g>
<!-- UnsignedIntegerType -->
<g id="node27" class="node">
<g id="a_node27"><a xlink:href="/v2.0/protocol/UnsignedIntegerType/hierarchy/" target="_top">
<path fill="#999999" stroke="#999999" d="M1607.73,-80C1607.73,-80 1498.27,-80 1498.27,-80 1494.61,-80 1490.94,-76.3333 1490.94,-72.6667 1490.94,-72.6667 1490.94,-65.3333 1490.94,-65.3333 1490.94,-61.6667 1494.61,-58 1498.27,-58 1498.27,-58 1607.73,-58 1607.73,-58 1611.39,-58 1615.06,-61.6667 1615.06,-65.3333 1615.06,-65.3333 1615.06,-72.6667 1615.06,-72.6667 1615.06,-76.3333 1611.39,-80 1607.73,-80"/>
<text text-anchor="middle" x="1553" y="-65.4" font-family="Helvetica,sans-Serif" font-size="12.00" fill="white">UnsignedIntegerType</text>
</a>
</g>
</g>
<!-- IntegerType&#45;&gt;UnsignedIntegerType -->
<g id="edge18" class="edge">
<path fill="none" stroke="#cccccc" d="M1416.68,-115.988C1443.74,-106.859 1483.92,-93.3046 1513.65,-83.2743"/>
<polygon fill="#cccccc" stroke="#cccccc" points="1514.94,-86.5322 1523.3,-80.0192 1512.71,-79.8994 1514.94,-86.5322"/>
</g>
<!-- SignedIntegerType&#45;&gt;Int -->
<g id="edge19" class="edge">
<path fill="none" stroke="#cccccc" d="M1246.65,-57.9883C1221.84,-48.9101 1185.09,-35.4569 1157.73,-25.4439"/>
<polygon fill="#cccccc" stroke="#cccccc" points="1158.71,-22.0754 1148.12,-21.925 1156.3,-28.649 1158.71,-22.0754"/>
</g>
<!-- SignedIntegerType&#45;&gt;Int16 -->
<g id="edge20" class="edge">
<path fill="none" stroke="#cccccc" d="M1259.52,-57.9883C1247.5,-49.6784 1230.18,-37.7028 1216.22,-28.0554"/>
<polygon fill="#cccccc" stroke="#cccccc" points="1217.84,-24.9217 1207.63,-22.1138 1213.86,-30.6796 1217.84,-24.9217"/>
</g>
<!-- SignedIntegerType&#45;&gt;Int32 -->
<g id="edge21" class="edge">
<path fill="none" stroke="#cccccc" d="M1272.39,-57.9883C1271.24,-50.8311 1269.65,-40.9547 1268.24,-32.1885"/>
<polygon fill="#cccccc" stroke="#cccccc" points="1271.7,-31.6218 1266.66,-22.3039 1264.79,-32.7326 1271.7,-31.6218"/>
</g>
<!-- SignedIntegerType&#45;&gt;Int64 -->
<g id="edge22" class="edge">
<path fill="none" stroke="#cccccc" d="M1285.26,-57.9883C1294.29,-49.966 1307.16,-38.5272 1317.8,-29.065"/>
<polygon fill="#cccccc" stroke="#cccccc" points="1320.26,-31.5635 1325.41,-22.3039 1315.61,-26.3316 1320.26,-31.5635"/>
</g>
<!-- SignedIntegerType&#45;&gt;Int8 -->
<g id="edge23" class="edge">
<path fill="none" stroke="#cccccc" d="M1298.14,-57.9883C1319.6,-49.0849 1351.21,-35.9733 1375.19,-26.0259"/>
<polygon fill="#cccccc" stroke="#cccccc" points="1376.72,-29.1783 1384.62,-22.1138 1374.04,-22.7126 1376.72,-29.1783"/>
</g>
<!-- UInt -->
<g id="node19" class="node">
<g id="a_node19"><a xlink:href="/v2.0/type/UInt/hierarchy/" target="_top">
<polygon fill="#999999" stroke="#999999" points="1508,-22 1454,-22 1454,-0 1508,-0 1508,-22"/>
<text text-anchor="middle" x="1481" y="-7.4" font-family="Helvetica,sans-Serif" font-size="12.00" fill="white">UInt</text>
</a>
</g>
</g>
<!-- UInt16 -->
<g id="node20" class="node">
<g id="a_node20"><a xlink:href="/v2.0/type/UInt16/hierarchy/" target="_top">
<polygon fill="#999999" stroke="#999999" points="1580,-22 1526,-22 1526,-0 1580,-0 1580,-22"/>
<text text-anchor="middle" x="1553" y="-7.4" font-family="Helvetica,sans-Serif" font-size="12.00" fill="white">UInt16</text>
</a>
</g>
</g>
<!-- UInt32 -->
<g id="node21" class="node">
<g id="a_node21"><a xlink:href="/v2.0/type/UInt32/hierarchy/" target="_top">
<polygon fill="#999999" stroke="#999999" points="1652,-22 1598,-22 1598,-0 1652,-0 1652,-22"/>
<text text-anchor="middle" x="1625" y="-7.4" font-family="Helvetica,sans-Serif" font-size="12.00" fill="white">UInt32</text>
</a>
</g>
</g>
<!-- UInt64 -->
<g id="node22" class="node">
<g id="a_node22"><a xlink:href="/v2.0/type/UInt64/hierarchy/" target="_top">
<polygon fill="#999999" stroke="#999999" points="1724,-22 1670,-22 1670,-0 1724,-0 1724,-22"/>
<text text-anchor="middle" x="1697" y="-7.4" font-family="Helvetica,sans-Serif" font-size="12.00" fill="white">UInt64</text>
</a>
</g>
</g>
<!-- UInt8 -->
<g id="node23" class="node">
<g id="a_node23"><a xlink:href="/v2.0/type/UInt8/hierarchy/" target="_top">
<polygon fill="#999999" stroke="#999999" points="1796,-22 1742,-22 1742,-0 1796,-0 1796,-22"/>
<text text-anchor="middle" x="1769" y="-7.4" font-family="Helvetica,sans-Serif" font-size="12.00" fill="white">UInt8</text>
</a>
</g>
</g>
<!-- UnsignedIntegerType&#45;&gt;UInt -->
<g id="edge24" class="edge">
<path fill="none" stroke="#cccccc" d="M1540.13,-57.9883C1529.61,-49.8087 1514.53,-38.0773 1502.23,-28.5108"/>
<polygon fill="#cccccc" stroke="#cccccc" points="1504.29,-25.6806 1494.25,-22.3039 1499.99,-31.2061 1504.29,-25.6806"/>
</g>
<!-- UnsignedIntegerType&#45;&gt;UInt16 -->
<g id="edge25" class="edge">
<path fill="none" stroke="#cccccc" d="M1553,-57.9883C1553,-50.9098 1553,-41.1714 1553,-32.4779"/>
<polygon fill="#cccccc" stroke="#cccccc" points="1556.5,-32.3038 1553,-22.3039 1549.5,-32.3039 1556.5,-32.3038"/>
</g>
<!-- UnsignedIntegerType&#45;&gt;UInt32 -->
<g id="edge26" class="edge">
<path fill="none" stroke="#cccccc" d="M1565.87,-57.9883C1576.39,-49.8087 1591.47,-38.0773 1603.77,-28.5108"/>
<polygon fill="#cccccc" stroke="#cccccc" points="1606.01,-31.2061 1611.75,-22.3039 1601.71,-25.6806 1606.01,-31.2061"/>
</g>
<!-- UnsignedIntegerType&#45;&gt;UInt64 -->
<g id="edge27" class="edge">
<path fill="none" stroke="#cccccc" d="M1578.74,-57.9883C1601.84,-49.0057 1635.95,-35.7398 1661.61,-25.7614"/>
<polygon fill="#cccccc" stroke="#cccccc" points="1662.94,-29.0004 1670.99,-22.1138 1660.4,-22.4763 1662.94,-29.0004"/>
</g>
<!-- UnsignedIntegerType&#45;&gt;UInt8 -->
<g id="edge28" class="edge">
<path fill="none" stroke="#cccccc" d="M1593.45,-57.9168C1627.84,-49.2898 1678.76,-36.3793 1731.94,-22.2477"/>
<polygon fill="#cccccc" stroke="#cccccc" points="1733.13,-25.5525 1741.89,-19.5955 1731.33,-18.7885 1733.13,-25.5525"/>
</g>
<!-- _DisallowMixedSignArithmetic -->
<g id="node28" class="node">
<g id="a_node28"><a xlink:href="/v2.0/protocol/_DisallowMixedSignArithmetic/hierarchy/" target="_top">
<path fill="#999999" stroke="#999999" d="M1613.71,-138C1613.71,-138 1458.29,-138 1458.29,-138 1454.62,-138 1450.96,-134.333 1450.96,-130.667 1450.96,-130.667 1450.96,-123.333 1450.96,-123.333 1450.96,-119.667 1454.62,-116 1458.29,-116 1458.29,-116 1613.71,-116 1613.71,-116 1617.38,-116 1621.04,-119.667 1621.04,-123.333 1621.04,-123.333 1621.04,-130.667 1621.04,-130.667 1621.04,-134.333 1617.38,-138 1613.71,-138"/>
<text text-anchor="middle" x="1536" y="-123.4" font-family="Helvetica,sans-Serif" font-size="12.00" fill="white">_DisallowMixedSignArithmetic</text>
</a>
</g>
</g>
<!-- _DisallowMixedSignArithmetic&#45;&gt;UnsignedIntegerType -->
<g id="edge29" class="edge">
<path fill="none" stroke="#cccccc" d="M1539.04,-115.988C1541.24,-108.752 1544.28,-98.7373 1546.96,-89.9"/>
<polygon fill="#cccccc" stroke="#cccccc" points="1550.32,-90.8894 1549.87,-80.3039 1543.62,-88.856 1550.32,-90.8894"/>
</g>
<!-- _IntegerType&#45;&gt;IntegerType -->
<g id="edge14" class="edge">
<path fill="none" stroke="#cccccc" d="M1340.19,-173.988C1348.28,-166.045 1359.77,-154.751 1369.35,-145.344"/>
<polygon fill="#cccccc" stroke="#cccccc" points="1371.83,-147.809 1376.51,-138.304 1366.93,-142.815 1371.83,-147.809"/>
</g>
<!-- _IntegerType&#45;&gt;_DisallowMixedSignArithmetic -->
<g id="edge15" class="edge">
<path fill="none" stroke="#cccccc" d="M1366.83,-173.988C1401,-164.7 1452.01,-150.832 1489.08,-140.754"/>
<polygon fill="#cccccc" stroke="#cccccc" points="1490.41,-144.02 1499.14,-138.019 1488.58,-137.265 1490.41,-144.02"/>
</g>
<!-- _SignedIntegerType -->
<g id="node30" class="node">
<g id="a_node30"><a xlink:href="/v2.0/protocol/_SignedIntegerType/hierarchy/" target="_top">
<path fill="#999999" stroke="#999999" d="M1325.23,-138C1325.23,-138 1222.77,-138 1222.77,-138 1219.1,-138 1215.44,-134.333 1215.44,-130.667 1215.44,-130.667 1215.44,-123.333 1215.44,-123.333 1215.44,-119.667 1219.1,-116 1222.77,-116 1222.77,-116 1325.23,-116 1325.23,-116 1328.9,-116 1332.56,-119.667 1332.56,-123.333 1332.56,-123.333 1332.56,-130.667 1332.56,-130.667 1332.56,-134.333 1328.9,-138 1325.23,-138"/>
<text text-anchor="middle" x="1274" y="-123.4" font-family="Helvetica,sans-Serif" font-size="12.00" fill="white">_SignedIntegerType</text>
</a>
</g>
</g>
<!-- _IntegerType&#45;&gt;_SignedIntegerType -->
<g id="edge16" class="edge">
<path fill="none" stroke="#cccccc" d="M1319.99,-173.988C1312.12,-166.123 1300.97,-154.974 1291.62,-145.624"/>
<polygon fill="#cccccc" stroke="#cccccc" points="1293.85,-142.9 1284.3,-138.304 1288.9,-147.85 1293.85,-142.9"/>
</g>
<!-- _SignedIntegerType&#45;&gt;SignedIntegerType -->
<g id="edge30" class="edge">
<path fill="none" stroke="#cccccc" d="M1274,-115.988C1274,-108.91 1274,-99.1714 1274,-90.4779"/>
<polygon fill="#cccccc" stroke="#cccccc" points="1277.5,-90.3038 1274,-80.3039 1270.5,-90.3039 1277.5,-90.3038"/>
</g>
</g>
</svg>
