<?xml version="1.0" encoding="UTF-8" standalone="no"?>
<!DOCTYPE svg PUBLIC "-//W3C//DTD SVG 1.1//EN"
 "http://www.w3.org/Graphics/SVG/1.1/DTD/svg11.dtd">
<!-- Generated by graphviz version 2.36.0 (20140111.2315)
 -->
<!-- Title: IndexingGenerator&lt;C : _CollectionType&gt; &#45; Type Hierarchy &#45; SwiftDoc.org Pages: 1 -->
<svg width="240pt" height="311pt"
 viewBox="0.00 0.00 240.40 311.20" xmlns="http://www.w3.org/2000/svg" xmlns:xlink="http://www.w3.org/1999/xlink">
<g id="graph0" class="graph" transform="scale(1 1) rotate(0) translate(7.2 253.6)">
<title>IndexingGenerator&lt;C : _CollectionType&gt; &#45; Type Hierarchy &#45; SwiftDoc.org</title>
<polygon fill="white" stroke="none" points="-7.2,57.6 -7.2,-253.6 233.2,-253.6 233.2,57.6 -7.2,57.6"/>
<!-- GeneratorType -->
<g id="node1" class="node"><title>GeneratorType</title>
<g id="a_node1"><a xlink:href="/protocol/GeneratorType/" xlink:title="GeneratorType">
<path fill="#999999" stroke="#999999" d="M96.7048,-80C96.7048,-80 21.2952,-80 21.2952,-80 17.6286,-80 13.9619,-76.3333 13.9619,-72.6667 13.9619,-72.6667 13.9619,-65.3333 13.9619,-65.3333 13.9619,-61.6667 17.6286,-58 21.2952,-58 21.2952,-58 96.7048,-58 96.7048,-58 100.371,-58 104.038,-61.6667 104.038,-65.3333 104.038,-65.3333 104.038,-72.6667 104.038,-72.6667 104.038,-76.3333 100.371,-80 96.7048,-80"/>
<text text-anchor="middle" x="59" y="-65.4" font-family="Helvetica,sans-Serif" font-size="12.00" fill="white">GeneratorType</text>
</a>
</g>
</g>
<!-- IndexingGenerator&lt;C : _CollectionType&gt; -->
<g id="node2" class="node"><title>IndexingGenerator&lt;C : _CollectionType&gt;</title>
<g id="a_node2"><a xlink:href="/type/IndexingGenerator/" xlink:title="IndexingGenerator&lt;C : _CollectionType&gt;">
<polygon fill="#ee543d" stroke="#ee543d" points="226.603,-22 -0.602753,-22 -0.602753,-0 226.603,-0 226.603,-22"/>
<text text-anchor="middle" x="113" y="-7.4" font-family="Helvetica,sans-Serif" font-size="12.00" fill="white">IndexingGenerator&lt;C : _CollectionType&gt;</text>
</a>
</g>
</g>
<!-- GeneratorType&#45;&gt;IndexingGenerator&lt;C : _CollectionType&gt; -->
<g id="edge1" class="edge"><title>GeneratorType&#45;&gt;IndexingGenerator&lt;C : _CollectionType&gt;</title>
<path fill="none" stroke="#cccccc" d="M68.6541,-57.9883C76.2383,-50.1233 86.9889,-38.9745 96.0055,-29.6239"/>
<polygon fill="#cccccc" stroke="#cccccc" points="98.6422,-31.9318 103.064,-22.3039 93.6033,-27.0729 98.6422,-31.9318"/>
</g>
<!-- SequenceType -->
<g id="node3" class="node"><title>SequenceType</title>
<g id="a_node3"><a xlink:href="/protocol/SequenceType/" xlink:title="SequenceType">
<path fill="#999999" stroke="#999999" d="M204.718,-80C204.718,-80 129.282,-80 129.282,-80 125.615,-80 121.949,-76.3333 121.949,-72.6667 121.949,-72.6667 121.949,-65.3333 121.949,-65.3333 121.949,-61.6667 125.615,-58 129.282,-58 129.282,-58 204.718,-58 204.718,-58 208.385,-58 212.051,-61.6667 212.051,-65.3333 212.051,-65.3333 212.051,-72.6667 212.051,-72.6667 212.051,-76.3333 208.385,-80 204.718,-80"/>
<text text-anchor="middle" x="167" y="-65.4" font-family="Helvetica,sans-Serif" font-size="12.00" fill="white">SequenceType</text>
</a>
</g>
</g>
<!-- SequenceType&#45;&gt;IndexingGenerator&lt;C : _CollectionType&gt; -->
<g id="edge2" class="edge"><title>SequenceType&#45;&gt;IndexingGenerator&lt;C : _CollectionType&gt;</title>
<path fill="none" stroke="#cccccc" d="M157.346,-57.9883C149.762,-50.1233 139.011,-38.9745 129.994,-29.6239"/>
<polygon fill="#cccccc" stroke="#cccccc" points="132.397,-27.0729 122.936,-22.3039 127.358,-31.9318 132.397,-27.0729"/>
</g>
<!-- _SequenceType -->
<g id="node4" class="node"><title>_SequenceType</title>
<g id="a_node4"><a xlink:href="/protocol/_SequenceType/" xlink:title="_SequenceType">
<path fill="#999999" stroke="#999999" d="M207.724,-196C207.724,-196 126.276,-196 126.276,-196 122.609,-196 118.943,-192.333 118.943,-188.667 118.943,-188.667 118.943,-181.333 118.943,-181.333 118.943,-177.667 122.609,-174 126.276,-174 126.276,-174 207.724,-174 207.724,-174 211.391,-174 215.057,-177.667 215.057,-181.333 215.057,-181.333 215.057,-188.667 215.057,-188.667 215.057,-192.333 211.391,-196 207.724,-196"/>
<text text-anchor="middle" x="167" y="-181.4" font-family="Helvetica,sans-Serif" font-size="12.00" fill="white">_SequenceType</text>
</a>
</g>
</g>
<!-- _Sequence_Type -->
<g id="node5" class="node"><title>_Sequence_Type</title>
<g id="a_node5"><a xlink:href="/protocol/_Sequence_Type/" xlink:title="_Sequence_Type">
<path fill="#999999" stroke="#999999" d="M211.228,-138C211.228,-138 122.772,-138 122.772,-138 119.105,-138 115.439,-134.333 115.439,-130.667 115.439,-130.667 115.439,-123.333 115.439,-123.333 115.439,-119.667 119.105,-116 122.772,-116 122.772,-116 211.228,-116 211.228,-116 214.895,-116 218.561,-119.667 218.561,-123.333 218.561,-123.333 218.561,-130.667 218.561,-130.667 218.561,-134.333 214.895,-138 211.228,-138"/>
<text text-anchor="middle" x="167" y="-123.4" font-family="Helvetica,sans-Serif" font-size="12.00" fill="white">_Sequence_Type</text>
</a>
</g>
</g>
<!-- _SequenceType&#45;&gt;_Sequence_Type -->
<g id="edge4" class="edge"><title>_SequenceType&#45;&gt;_Sequence_Type</title>
<path fill="none" stroke="#cccccc" d="M167,-173.988C167,-166.91 167,-157.171 167,-148.478"/>
<polygon fill="#cccccc" stroke="#cccccc" points="170.5,-148.304 167,-138.304 163.5,-148.304 170.5,-148.304"/>
</g>
<!-- _Sequence_Type&#45;&gt;SequenceType -->
<g id="edge3" class="edge"><title>_Sequence_Type&#45;&gt;SequenceType</title>
<path fill="none" stroke="#cccccc" d="M167,-115.988C167,-108.91 167,-99.1714 167,-90.4779"/>
<polygon fill="#cccccc" stroke="#cccccc" points="170.5,-90.3038 167,-80.3039 163.5,-90.3039 170.5,-90.3038"/>
</g>
</g>
</svg>
