<?xml version="1.0" encoding="UTF-8" standalone="no"?>
<!DOCTYPE svg PUBLIC "-//W3C//DTD SVG 1.1//EN"
 "http://www.w3.org/Graphics/SVG/1.1/DTD/svg11.dtd">
<!-- Generated by graphviz version 2.36.0 (20140111.2315)
 -->
<!-- Title: LazyForwardCollection&lt;S : CollectionType where S.Index : ForwardIndexType&gt; &#45; Type Hierarchy &#45; SwiftDoc.org Pages: 1 -->
<svg width="446pt" height="369pt"
 viewBox="0.00 0.00 446.40 369.20" xmlns="http://www.w3.org/2000/svg" xmlns:xlink="http://www.w3.org/1999/xlink">
<g id="graph0" class="graph" transform="scale(1 1) rotate(0) translate(7.2 311.6)">
<title>LazyForwardCollection&lt;S : CollectionType where S.Index : ForwardIndexType&gt; &#45; Type Hierarchy &#45; SwiftDoc.org</title>
<polygon fill="white" stroke="none" points="-7.2,57.6 -7.2,-311.6 439.2,-311.6 439.2,57.6 -7.2,57.6"/>
<!-- CollectionType -->
<g id="node1" class="node"><title>CollectionType</title>
<g id="a_node1"><a xlink:href="/protocol/CollectionType/" xlink:title="CollectionType">
<path fill="#999999" stroke="#999999" d="M252.704,-80C252.704,-80 179.296,-80 179.296,-80 175.63,-80 171.963,-76.3333 171.963,-72.6667 171.963,-72.6667 171.963,-65.3333 171.963,-65.3333 171.963,-61.6667 175.63,-58 179.296,-58 179.296,-58 252.704,-58 252.704,-58 256.37,-58 260.037,-61.6667 260.037,-65.3333 260.037,-65.3333 260.037,-72.6667 260.037,-72.6667 260.037,-76.3333 256.37,-80 252.704,-80"/>
<text text-anchor="middle" x="216" y="-65.4" font-family="Helvetica,sans-Serif" font-size="12.00" fill="white">CollectionType</text>
</a>
</g>
</g>
<!-- LazyForwardCollection&lt;S : CollectionType where S.Index : ForwardIndexType&gt; -->
<g id="node2" class="node"><title>LazyForwardCollection&lt;S : CollectionType where S.Index : ForwardIndexType&gt;</title>
<g id="a_node2"><a xlink:href="/type/LazyForwardCollection/" xlink:title="LazyForwardCollection&lt;S : CollectionType where S.Index : ForwardIndexType&gt;">
<polygon fill="#ee543d" stroke="#ee543d" points="432.166,-22 -0.165556,-22 -0.165556,-0 432.166,-0 432.166,-22"/>
<text text-anchor="middle" x="216" y="-7.4" font-family="Helvetica,sans-Serif" font-size="12.00" fill="white">LazyForwardCollection&lt;S : CollectionType where S.Index : ForwardIndexType&gt;</text>
</a>
</g>
</g>
<!-- CollectionType&#45;&gt;LazyForwardCollection&lt;S : CollectionType where S.Index : ForwardIndexType&gt; -->
<g id="edge1" class="edge"><title>CollectionType&#45;&gt;LazyForwardCollection&lt;S : CollectionType where S.Index : ForwardIndexType&gt;</title>
<path fill="none" stroke="#cccccc" d="M216,-57.9883C216,-50.9098 216,-41.1714 216,-32.4779"/>
<polygon fill="#cccccc" stroke="#cccccc" points="219.5,-32.3038 216,-22.3039 212.5,-32.3039 219.5,-32.3038"/>
</g>
<!-- SequenceType -->
<g id="node3" class="node"><title>SequenceType</title>
<g id="a_node3"><a xlink:href="/protocol/SequenceType/" xlink:title="SequenceType">
<path fill="#999999" stroke="#999999" d="M309.718,-138C309.718,-138 234.282,-138 234.282,-138 230.615,-138 226.949,-134.333 226.949,-130.667 226.949,-130.667 226.949,-123.333 226.949,-123.333 226.949,-119.667 230.615,-116 234.282,-116 234.282,-116 309.718,-116 309.718,-116 313.385,-116 317.051,-119.667 317.051,-123.333 317.051,-123.333 317.051,-130.667 317.051,-130.667 317.051,-134.333 313.385,-138 309.718,-138"/>
<text text-anchor="middle" x="272" y="-123.4" font-family="Helvetica,sans-Serif" font-size="12.00" fill="white">SequenceType</text>
</a>
</g>
</g>
<!-- SequenceType&#45;&gt;CollectionType -->
<g id="edge3" class="edge"><title>SequenceType&#45;&gt;CollectionType</title>
<path fill="none" stroke="#cccccc" d="M261.988,-115.988C254.123,-108.123 242.974,-96.9745 233.624,-87.6239"/>
<polygon fill="#cccccc" stroke="#cccccc" points="235.85,-84.9001 226.304,-80.3039 230.9,-89.8499 235.85,-84.9001"/>
</g>
<!-- _CollectionType -->
<g id="node4" class="node"><title>_CollectionType</title>
<g id="a_node4"><a xlink:href="/protocol/_CollectionType/" xlink:title="_CollectionType">
<path fill="#999999" stroke="#999999" d="M201.208,-138C201.208,-138 120.792,-138 120.792,-138 117.126,-138 113.459,-134.333 113.459,-130.667 113.459,-130.667 113.459,-123.333 113.459,-123.333 113.459,-119.667 117.126,-116 120.792,-116 120.792,-116 201.208,-116 201.208,-116 204.874,-116 208.541,-119.667 208.541,-123.333 208.541,-123.333 208.541,-130.667 208.541,-130.667 208.541,-134.333 204.874,-138 201.208,-138"/>
<text text-anchor="middle" x="161" y="-123.4" font-family="Helvetica,sans-Serif" font-size="12.00" fill="white">_CollectionType</text>
</a>
</g>
</g>
<!-- _CollectionType&#45;&gt;CollectionType -->
<g id="edge2" class="edge"><title>_CollectionType&#45;&gt;CollectionType</title>
<path fill="none" stroke="#cccccc" d="M170.833,-115.988C178.557,-108.123 189.507,-96.9745 198.691,-87.6239"/>
<polygon fill="#cccccc" stroke="#cccccc" points="201.37,-89.8909 205.88,-80.3039 196.376,-84.9859 201.37,-89.8909"/>
</g>
<!-- _SequenceType -->
<g id="node5" class="node"><title>_SequenceType</title>
<g id="a_node5"><a xlink:href="/protocol/_SequenceType/" xlink:title="_SequenceType">
<path fill="#999999" stroke="#999999" d="M260.724,-254C260.724,-254 179.276,-254 179.276,-254 175.609,-254 171.943,-250.333 171.943,-246.667 171.943,-246.667 171.943,-239.333 171.943,-239.333 171.943,-235.667 175.609,-232 179.276,-232 179.276,-232 260.724,-232 260.724,-232 264.391,-232 268.057,-235.667 268.057,-239.333 268.057,-239.333 268.057,-246.667 268.057,-246.667 268.057,-250.333 264.391,-254 260.724,-254"/>
<text text-anchor="middle" x="220" y="-239.4" font-family="Helvetica,sans-Serif" font-size="12.00" fill="white">_SequenceType</text>
</a>
</g>
</g>
<!-- _SequenceType&#45;&gt;_CollectionType -->
<g id="edge4" class="edge"><title>_SequenceType&#45;&gt;_CollectionType</title>
<path fill="none" stroke="#cccccc" d="M214.764,-231.883C204.948,-212.917 183.633,-171.732 170.989,-147.3"/>
<polygon fill="#cccccc" stroke="#cccccc" points="174.014,-145.53 166.309,-138.258 167.797,-148.748 174.014,-145.53"/>
</g>
<!-- _Sequence_Type -->
<g id="node6" class="node"><title>_Sequence_Type</title>
<g id="a_node6"><a xlink:href="/protocol/_Sequence_Type/" xlink:title="_Sequence_Type">
<path fill="#999999" stroke="#999999" d="M308.228,-196C308.228,-196 219.772,-196 219.772,-196 216.105,-196 212.439,-192.333 212.439,-188.667 212.439,-188.667 212.439,-181.333 212.439,-181.333 212.439,-177.667 216.105,-174 219.772,-174 219.772,-174 308.228,-174 308.228,-174 311.895,-174 315.561,-177.667 315.561,-181.333 315.561,-181.333 315.561,-188.667 315.561,-188.667 315.561,-192.333 311.895,-196 308.228,-196"/>
<text text-anchor="middle" x="264" y="-181.4" font-family="Helvetica,sans-Serif" font-size="12.00" fill="white">_Sequence_Type</text>
</a>
</g>
</g>
<!-- _SequenceType&#45;&gt;_Sequence_Type -->
<g id="edge6" class="edge"><title>_SequenceType&#45;&gt;_Sequence_Type</title>
<path fill="none" stroke="#cccccc" d="M227.866,-231.988C233.922,-224.281 242.456,-213.419 249.71,-204.187"/>
<polygon fill="#cccccc" stroke="#cccccc" points="252.478,-206.329 255.904,-196.304 246.974,-202.005 252.478,-206.329"/>
</g>
<!-- _Sequence_Type&#45;&gt;SequenceType -->
<g id="edge5" class="edge"><title>_Sequence_Type&#45;&gt;SequenceType</title>
<path fill="none" stroke="#cccccc" d="M265.43,-173.988C266.441,-166.91 267.833,-157.171 269.075,-148.478"/>
<polygon fill="#cccccc" stroke="#cccccc" points="272.579,-148.698 270.528,-138.304 265.649,-147.708 272.579,-148.698"/>
</g>
</g>
</svg>
