<?xml version="1.0" encoding="UTF-8" standalone="no"?>
<!DOCTYPE svg PUBLIC "-//W3C//DTD SVG 1.1//EN"
 "http://www.w3.org/Graphics/SVG/1.1/DTD/svg11.dtd">
<!-- Generated by graphviz version 2.36.0 (20140111.2315)
 -->
<!-- Title: RandomAccessIndexType &#45; Type Hierarchy &#45; SwiftDoc.org Pages: 1 -->
<svg width="1595pt" height="543pt"
 viewBox="0.00 0.00 1595.40 543.20" xmlns="http://www.w3.org/2000/svg" xmlns:xlink="http://www.w3.org/1999/xlink">
<g id="graph0" class="graph" transform="scale(1 1) rotate(0) translate(7.2 485.6)">
<g transform="translate(0 -485.6)">
<g>
    <path fill="#666666" d="M13.846,10.832c-0.336-0.464-0.792-0.844-1.368-1.14s-1.224-0.444-1.944-0.444
        c-0.384,0-0.772,0.052-1.164,0.156C8.977,9.509,8.622,9.677,8.301,9.908c-0.32,0.232-0.58,0.52-0.78,0.864
        c-0.2,0.344-0.3,0.756-0.3,1.236c0,0.464,0.092,0.852,0.276,1.164c0.184,0.312,0.432,0.576,0.744,0.792s0.68,0.4,1.104,0.552
        c0.423,0.152,0.876,0.309,1.356,0.468c0.576,0.177,1.16,0.376,1.752,0.601c0.592,0.224,1.128,0.52,1.608,0.888
        s0.872,0.828,1.176,1.38s0.456,1.252,0.456,2.101c0,0.88-0.164,1.644-0.492,2.292c-0.328,0.647-0.765,1.184-1.308,1.607
        c-0.544,0.424-1.172,0.74-1.884,0.948s-1.444,0.312-2.196,0.312c-1.072,0-2.108-0.208-3.108-0.624
        c-1-0.415-1.828-1.031-2.484-1.848l1.848-1.56c0.4,0.592,0.936,1.071,1.608,1.439c0.672,0.368,1.399,0.552,2.184,0.552
        c0.4,0,0.8-0.056,1.2-0.168c0.4-0.111,0.764-0.288,1.092-0.527c0.328-0.24,0.596-0.54,0.804-0.9
        c0.208-0.36,0.312-0.796,0.312-1.308s-0.108-0.94-0.324-1.284c-0.216-0.344-0.508-0.636-0.876-0.876s-0.796-0.444-1.284-0.612
        c-0.488-0.168-1.004-0.34-1.548-0.516c-0.544-0.16-1.08-0.356-1.608-0.588c-0.528-0.232-1-0.528-1.416-0.889
        c-0.416-0.359-0.752-0.804-1.008-1.332c-0.256-0.527-0.384-1.184-0.384-1.968c0-0.848,0.172-1.576,0.516-2.184
        c0.344-0.608,0.792-1.112,1.344-1.512c0.552-0.4,1.176-0.692,1.872-0.876c0.696-0.184,1.396-0.276,2.1-0.276
        c0.992,0,1.92,0.176,2.784,0.528c0.864,0.352,1.56,0.824,2.088,1.416L13.846,10.832z"/>
    <path fill="#666666" d="M18.813,13.304l2.568,8.688h0.048l2.712-8.688h2.376l2.76,8.688h0.048l2.568-8.688h2.376L30.501,24.68
        h-2.352l-2.808-8.544h-0.048l-2.784,8.544h-2.352l-3.792-11.376H18.813z"/>
    <path fill="#666666" d="M38.685,9.2c0,0.416-0.147,0.76-0.44,1.032c-0.294,0.272-0.647,0.408-1.06,0.408s-0.762-0.14-1.047-0.42
        c-0.286-0.28-0.429-0.62-0.429-1.02c0-0.416,0.143-0.764,0.429-1.044c0.286-0.28,0.635-0.42,1.047-0.42s0.766,0.14,1.06,0.42
        C38.538,8.437,38.685,8.784,38.685,9.2z M38.325,24.68h-2.256V13.304h2.256V24.68z"/>
    <path fill="#666666" d="M47.613,15.152h-2.64v9.528h-2.256v-9.528h-2.256v-1.848h2.256v-2.376c0-0.672,0.076-1.292,0.228-1.86
        c0.152-0.568,0.4-1.06,0.744-1.476c0.344-0.416,0.784-0.744,1.32-0.984c0.536-0.24,1.188-0.36,1.956-0.36
        c0.544,0,1.016,0.056,1.416,0.168l-0.264,1.944c-0.176-0.048-0.352-0.088-0.528-0.12c-0.176-0.032-0.376-0.048-0.6-0.048
        c-0.432,0-0.78,0.076-1.044,0.228c-0.264,0.152-0.468,0.356-0.612,0.612s-0.24,0.548-0.288,0.876
        c-0.048,0.328-0.072,0.668-0.072,1.02v2.376h2.64V15.152z"/>
    <path fill="#666666" d="M54.909,15.152h-3.024v5.91c0,0.687,0.128,1.177,0.384,1.472c0.256,0.295,0.664,0.442,1.224,0.442
        c0.208,0,0.432-0.021,0.672-0.065c0.24-0.044,0.456-0.11,0.648-0.198l0.072,1.848c-0.272,0.096-0.572,0.172-0.9,0.229
        c-0.328,0.056-0.668,0.084-1.02,0.084c-1.072,0-1.892-0.296-2.46-0.889c-0.568-0.592-0.852-1.479-0.852-2.664v-6.168h-2.184
        v-1.848h2.184V10.04h2.232v3.264h3.024V15.152z"/>
    <path fill="#666666" d="M57.356,7.688h5.832c1.088,0,2.176,0.16,3.264,0.48c1.088,0.32,2.072,0.824,2.952,1.512
        s1.592,1.568,2.136,2.64c0.544,1.072,0.816,2.36,0.816,3.864c0,1.456-0.272,2.716-0.816,3.78s-1.256,1.943-2.136,2.64
        s-1.864,1.216-2.952,1.561c-1.088,0.344-2.176,0.516-3.264,0.516h-5.832V7.688z M59.732,22.593h2.976
        c1.024,0,1.972-0.145,2.844-0.432c0.872-0.288,1.624-0.704,2.256-1.248c0.632-0.544,1.124-1.216,1.476-2.017
        c0.352-0.8,0.528-1.704,0.528-2.712c0-1.056-0.176-1.983-0.528-2.784c-0.353-0.8-0.844-1.468-1.476-2.004
        c-0.632-0.536-1.384-0.944-2.256-1.224s-1.82-0.42-2.844-0.42h-2.976V22.593z"/>
    <path fill="#666666" d="M86.06,18.969c0,0.88-0.156,1.688-0.468,2.424c-0.312,0.736-0.744,1.372-1.296,1.908
        c-0.552,0.536-1.204,0.952-1.956,1.248c-0.752,0.296-1.56,0.443-2.424,0.443c-0.864,0-1.672-0.147-2.424-0.443
        c-0.752-0.296-1.4-0.712-1.944-1.248c-0.544-0.536-0.972-1.172-1.284-1.908c-0.312-0.735-0.468-1.544-0.468-2.424
        s0.156-1.684,0.468-2.412c0.312-0.728,0.74-1.356,1.284-1.884c0.543-0.528,1.191-0.939,1.944-1.236
        c0.752-0.296,1.56-0.444,2.424-0.444c0.864,0,1.672,0.148,2.424,0.444c0.752,0.297,1.404,0.708,1.956,1.236
        c0.552,0.527,0.984,1.156,1.296,1.884C85.904,17.285,86.06,18.089,86.06,18.969z M83.708,18.98c0-0.542-0.084-1.061-0.252-1.556
        c-0.169-0.494-0.414-0.929-0.734-1.304s-0.718-0.674-1.192-0.897s-1.015-0.335-1.625-0.335c-0.61,0-1.152,0.111-1.625,0.335
        c-0.474,0.224-0.871,0.522-1.191,0.897c-0.321,0.375-0.566,0.81-0.734,1.304C76.184,17.92,76.1,18.438,76.1,18.98
        c0,0.543,0.084,1.062,0.253,1.556c0.168,0.495,0.413,0.934,0.734,1.316c0.321,0.383,0.718,0.686,1.191,0.909
        c0.473,0.224,1.015,0.335,1.625,0.335c0.61,0,1.151-0.111,1.625-0.335s0.871-0.526,1.192-0.909s0.565-0.821,0.734-1.316
        C83.624,20.042,83.708,19.523,83.708,18.98z"/>
    <path fill="#666666" d="M96.428,16.184c-0.24-0.368-0.6-0.676-1.08-0.924s-0.992-0.372-1.536-0.372
        c-0.592,0-1.116,0.112-1.572,0.336c-0.456,0.225-0.844,0.524-1.164,0.9c-0.32,0.376-0.564,0.812-0.732,1.308
        s-0.252,1.017-0.252,1.56c0,0.545,0.084,1.064,0.252,1.561s0.412,0.933,0.732,1.308c0.32,0.376,0.712,0.677,1.176,0.9
        c0.464,0.225,0.992,0.336,1.584,0.336c0.576,0,1.1-0.111,1.572-0.336c0.472-0.224,0.86-0.528,1.164-0.912l1.512,1.368
        c-0.48,0.561-1.08,0.996-1.8,1.308c-0.72,0.312-1.536,0.468-2.448,0.468c-0.88,0-1.692-0.144-2.436-0.432
        c-0.744-0.288-1.388-0.691-1.932-1.212c-0.544-0.52-0.972-1.147-1.284-1.884s-0.468-1.561-0.468-2.473
        c0-0.896,0.152-1.711,0.456-2.447c0.304-0.736,0.728-1.368,1.272-1.896c0.543-0.527,1.188-0.936,1.932-1.224
        c0.744-0.288,1.548-0.433,2.412-0.433c0.8,0,1.596,0.16,2.388,0.48s1.419,0.784,1.884,1.392L96.428,16.184z"/>
    <path fill="#666666" d="M103.1,23.24c0,0.417-0.152,0.784-0.456,1.104c-0.304,0.32-0.688,0.479-1.152,0.479
        c-0.448,0-0.828-0.155-1.14-0.468c-0.312-0.312-0.468-0.676-0.468-1.092c0-0.432,0.152-0.804,0.456-1.116
        c0.304-0.312,0.688-0.468,1.152-0.468c0.464,0,0.848,0.152,1.152,0.456C102.947,22.44,103.1,22.808,103.1,23.24z"/>
    <path fill="#666666" d="M116.635,18.969c0,0.88-0.156,1.688-0.468,2.424c-0.312,0.736-0.744,1.372-1.296,1.908
        c-0.552,0.536-1.204,0.952-1.956,1.248c-0.752,0.296-1.56,0.443-2.424,0.443c-0.864,0-1.672-0.147-2.424-0.443
        c-0.752-0.296-1.4-0.712-1.944-1.248c-0.544-0.536-0.972-1.172-1.284-1.908c-0.312-0.735-0.468-1.544-0.468-2.424
        s0.156-1.684,0.468-2.412c0.312-0.728,0.74-1.356,1.284-1.884c0.543-0.528,1.191-0.939,1.944-1.236
        c0.752-0.296,1.56-0.444,2.424-0.444c0.864,0,1.672,0.148,2.424,0.444c0.752,0.297,1.404,0.708,1.956,1.236
        c0.552,0.527,0.984,1.156,1.296,1.884C116.479,17.285,116.635,18.089,116.635,18.969z M114.283,18.98
        c0-0.542-0.084-1.061-0.252-1.556c-0.169-0.494-0.414-0.929-0.734-1.304s-0.718-0.674-1.192-0.897s-1.015-0.335-1.625-0.335
        c-0.61,0-1.152,0.111-1.625,0.335c-0.474,0.224-0.871,0.522-1.191,0.897c-0.321,0.375-0.566,0.81-0.734,1.304
        c-0.169,0.495-0.253,1.014-0.253,1.556c0,0.543,0.084,1.062,0.253,1.556c0.168,0.495,0.413,0.934,0.734,1.316
        c0.321,0.383,0.718,0.686,1.191,0.909c0.473,0.224,1.015,0.335,1.625,0.335c0.61,0,1.151-0.111,1.625-0.335
        s0.871-0.526,1.192-0.909s0.565-0.821,0.734-1.316C114.199,20.042,114.283,19.523,114.283,18.98z"/>
    <path fill="#666666" d="M119.251,14.577c-0.016-0.48-0.04-0.904-0.072-1.272h2.136c0.032,0.288,0.056,0.62,0.072,0.996
        c0.016,0.376,0.024,0.684,0.024,0.924h0.072c0.32-0.672,0.788-1.212,1.404-1.62c0.616-0.408,1.308-0.612,2.076-0.612
        c0.352,0,0.648,0.033,0.888,0.097l-0.096,2.088c-0.32-0.08-0.664-0.12-1.032-0.12c-0.544,0-1.016,0.101-1.416,0.3
        c-0.4,0.2-0.732,0.468-0.996,0.805c-0.264,0.336-0.46,0.724-0.588,1.163c-0.128,0.44-0.192,0.9-0.192,1.381v5.976h-2.256v-8.928
        C119.275,15.449,119.267,15.056,119.251,14.577z"/>
    <path fill="#666666" d="M128.419,26.625c0.496,0.56,1.116,1.008,1.86,1.344c0.744,0.336,1.508,0.504,2.292,0.504
        c0.752,0,1.384-0.108,1.896-0.324s0.924-0.512,1.236-0.888s0.536-0.82,0.672-1.332c0.136-0.513,0.204-1.064,0.204-1.656v-1.464
        h-0.048c-0.416,0.641-0.984,1.128-1.704,1.464c-0.72,0.336-1.488,0.504-2.304,0.504c-0.864,0-1.652-0.151-2.364-0.456
        c-0.712-0.304-1.316-0.72-1.812-1.248c-0.496-0.527-0.88-1.147-1.152-1.859s-0.408-1.477-0.408-2.292
        c0-0.816,0.136-1.584,0.408-2.305c0.272-0.72,0.656-1.348,1.152-1.884c0.496-0.535,1.096-0.96,1.8-1.271
        c0.704-0.312,1.488-0.469,2.352-0.469c0.816,0,1.596,0.177,2.34,0.528c0.744,0.353,1.332,0.888,1.764,1.608h0.048v-1.824h2.184
        v10.8c0,0.832-0.104,1.628-0.312,2.388c-0.208,0.76-0.56,1.433-1.056,2.017s-1.144,1.052-1.944,1.404
        c-0.8,0.352-1.792,0.527-2.976,0.527c-0.992,0-1.988-0.18-2.988-0.54c-1-0.359-1.86-0.868-2.58-1.523L128.419,26.625z
         M129.091,18.873c0,0.527,0.084,1.031,0.253,1.512c0.168,0.479,0.417,0.904,0.746,1.271c0.329,0.369,0.726,0.664,1.192,0.889
        c0.465,0.224,0.995,0.336,1.589,0.336c0.577,0,1.107-0.104,1.589-0.312c0.481-0.207,0.891-0.491,1.228-0.852
        s0.598-0.784,0.782-1.272c0.185-0.487,0.277-1.012,0.277-1.571c0-0.544-0.093-1.057-0.277-1.536
        c-0.185-0.48-0.449-0.904-0.794-1.272c-0.345-0.367-0.755-0.66-1.228-0.876c-0.474-0.216-1-0.324-1.577-0.324
        c-0.594,0-1.124,0.108-1.589,0.324c-0.466,0.216-0.863,0.504-1.192,0.864s-0.578,0.784-0.746,1.271
        C129.175,17.812,129.091,18.329,129.091,18.873z"/>
</g>
<g><a xlink:href="/" pointer-events="all" target="_top"><polygon fill="none" points="0,0 145,0 145,35 0,35 0,0"/></a></g>

</g>


<!-- AnyRandomAccessIndex -->
<g id="node1" class="node">
<g id="a_node1"><a xlink:href="/swift-2/type/AnyRandomAccessIndex/" target="_top">
<polygon fill="#999999" stroke="#999999" points="144.051,-22 -0.0512776,-22 -0.0512776,-0 144.051,-0 144.051,-22"/>
<text text-anchor="middle" x="72" y="-7.4" font-family="Helvetica,sans-Serif" font-size="12.00" fill="white">AnyRandomAccessIndex</text>
</a>
</g>
</g>
<!-- BidirectionalIndexType -->
<g id="node2" class="node">
<g id="a_node2"><a xlink:href="/swift-2/protocol/BidirectionalIndexType/" target="_top">
<path fill="#999999" stroke="#999999" d="M812.725,-254C812.725,-254 697.275,-254 697.275,-254 693.608,-254 689.941,-250.333 689.941,-246.667 689.941,-246.667 689.941,-239.333 689.941,-239.333 689.941,-235.667 693.608,-232 697.275,-232 697.275,-232 812.725,-232 812.725,-232 816.392,-232 820.059,-235.667 820.059,-239.333 820.059,-239.333 820.059,-246.667 820.059,-246.667 820.059,-250.333 816.392,-254 812.725,-254"/>
<text text-anchor="middle" x="755" y="-239.4" font-family="Helvetica,sans-Serif" font-size="12.00" fill="white">BidirectionalIndexType</text>
</a>
</g>
</g>
<!-- RandomAccessIndexType -->
<g id="node13" class="node">
<g id="a_node13"><a xlink:href="/swift-2/protocol/RandomAccessIndexType/" target="_top">
<path fill="#ee543d" stroke="#ee543d" d="M774.225,-196C774.225,-196 639.775,-196 639.775,-196 636.108,-196 632.441,-192.333 632.441,-188.667 632.441,-188.667 632.441,-181.333 632.441,-181.333 632.441,-177.667 636.108,-174 639.775,-174 639.775,-174 774.225,-174 774.225,-174 777.892,-174 781.559,-177.667 781.559,-181.333 781.559,-181.333 781.559,-188.667 781.559,-188.667 781.559,-192.333 777.892,-196 774.225,-196"/>
<text text-anchor="middle" x="707" y="-181.4" font-family="Helvetica,sans-Serif" font-size="12.00" fill="white">RandomAccessIndexType</text>
</a>
</g>
</g>
<!-- BidirectionalIndexType&#45;&gt;RandomAccessIndexType -->
<g id="edge40" class="edge">
<path fill="none" stroke="#cccccc" d="M746.419,-231.988C739.745,-224.202 730.312,-213.197 722.347,-203.905"/>
<polygon fill="#cccccc" stroke="#cccccc" points="724.997,-201.619 715.832,-196.304 719.682,-206.174 724.997,-201.619"/>
</g>
<!-- Bit -->
<g id="node3" class="node">
<g id="a_node3"><a xlink:href="/swift-2/type/Bit/" target="_top">
<polygon fill="#999999" stroke="#999999" points="288,-22 234,-22 234,-0 288,-0 288,-22"/>
<text text-anchor="middle" x="261" y="-7.4" font-family="Helvetica,sans-Serif" font-size="12.00" fill="white">Bit</text>
</a>
</g>
</g>
<!-- Comparable -->
<g id="node4" class="node">
<g id="a_node4"><a xlink:href="/swift-2/protocol/Comparable/" target="_top">
<path fill="#999999" stroke="#999999" d="M597.191,-370C597.191,-370 536.809,-370 536.809,-370 533.142,-370 529.475,-366.333 529.475,-362.667 529.475,-362.667 529.475,-355.333 529.475,-355.333 529.475,-351.667 533.142,-348 536.809,-348 536.809,-348 597.191,-348 597.191,-348 600.858,-348 604.525,-351.667 604.525,-355.333 604.525,-355.333 604.525,-362.667 604.525,-362.667 604.525,-366.333 600.858,-370 597.191,-370"/>
<text text-anchor="middle" x="567" y="-355.4" font-family="Helvetica,sans-Serif" font-size="12.00" fill="white">Comparable</text>
</a>
</g>
</g>
<!-- Strideable -->
<g id="node16" class="node">
<g id="a_node16"><a xlink:href="/swift-2/protocol/Strideable/" target="_top">
<path fill="#999999" stroke="#999999" d="M677.693,-312C677.693,-312 628.307,-312 628.307,-312 624.64,-312 620.974,-308.333 620.974,-304.667 620.974,-304.667 620.974,-297.333 620.974,-297.333 620.974,-293.667 624.64,-290 628.307,-290 628.307,-290 677.693,-290 677.693,-290 681.36,-290 685.026,-293.667 685.026,-297.333 685.026,-297.333 685.026,-304.667 685.026,-304.667 685.026,-308.333 681.36,-312 677.693,-312"/>
<text text-anchor="middle" x="653" y="-297.4" font-family="Helvetica,sans-Serif" font-size="12.00" fill="white">Strideable</text>
</a>
</g>
</g>
<!-- Comparable&#45;&gt;Strideable -->
<g id="edge45" class="edge">
<path fill="none" stroke="#cccccc" d="M582.375,-347.988C595.258,-339.599 613.879,-327.474 628.766,-317.78"/>
<polygon fill="#cccccc" stroke="#cccccc" points="630.998,-320.504 637.468,-312.114 627.178,-314.638 630.998,-320.504"/>
</g>
<!-- Equatable -->
<g id="node5" class="node">
<g id="a_node5"><a xlink:href="/swift-2/protocol/Equatable/" target="_top">
<path fill="#999999" stroke="#999999" d="M686.702,-428C686.702,-428 637.298,-428 637.298,-428 633.632,-428 629.965,-424.333 629.965,-420.667 629.965,-420.667 629.965,-413.333 629.965,-413.333 629.965,-409.667 633.632,-406 637.298,-406 637.298,-406 686.702,-406 686.702,-406 690.368,-406 694.035,-409.667 694.035,-413.333 694.035,-413.333 694.035,-420.667 694.035,-420.667 694.035,-424.333 690.368,-428 686.702,-428"/>
<text text-anchor="middle" x="662" y="-413.4" font-family="Helvetica,sans-Serif" font-size="12.00" fill="white">Equatable</text>
</a>
</g>
</g>
<!-- Equatable&#45;&gt;Comparable -->
<g id="edge47" class="edge">
<path fill="none" stroke="#cccccc" d="M645.016,-405.988C630.516,-397.441 609.437,-385.015 592.844,-375.234"/>
<polygon fill="#cccccc" stroke="#cccccc" points="594.549,-372.177 584.157,-370.114 590.995,-378.207 594.549,-372.177"/>
</g>
<!-- _Incrementable -->
<g id="node25" class="node">
<g id="a_node25"><a xlink:href="/swift-2/protocol/_Incrementable/" target="_top">
<path fill="#999999" stroke="#999999" d="M796.705,-370C796.705,-370 719.295,-370 719.295,-370 715.628,-370 711.961,-366.333 711.961,-362.667 711.961,-362.667 711.961,-355.333 711.961,-355.333 711.961,-351.667 715.628,-348 719.295,-348 719.295,-348 796.705,-348 796.705,-348 800.372,-348 804.039,-351.667 804.039,-355.333 804.039,-355.333 804.039,-362.667 804.039,-362.667 804.039,-366.333 800.372,-370 796.705,-370"/>
<text text-anchor="middle" x="758" y="-355.4" font-family="Helvetica,sans-Serif" font-size="12.00" fill="white">_Incrementable</text>
</a>
</g>
</g>
<!-- Equatable&#45;&gt;_Incrementable -->
<g id="edge44" class="edge">
<path fill="none" stroke="#cccccc" d="M679.163,-405.988C693.815,-397.441 715.116,-385.015 731.884,-375.234"/>
<polygon fill="#cccccc" stroke="#cccccc" points="733.788,-378.176 740.662,-370.114 730.261,-372.129 733.788,-378.176"/>
</g>
<!-- ForwardIndexType -->
<g id="node6" class="node">
<g id="a_node6"><a xlink:href="/swift-2/protocol/ForwardIndexType/" target="_top">
<path fill="#999999" stroke="#999999" d="M805.206,-312C805.206,-312 710.794,-312 710.794,-312 707.127,-312 703.461,-308.333 703.461,-304.667 703.461,-304.667 703.461,-297.333 703.461,-297.333 703.461,-293.667 707.127,-290 710.794,-290 710.794,-290 805.206,-290 805.206,-290 808.873,-290 812.539,-293.667 812.539,-297.333 812.539,-297.333 812.539,-304.667 812.539,-304.667 812.539,-308.333 808.873,-312 805.206,-312"/>
<text text-anchor="middle" x="758" y="-297.4" font-family="Helvetica,sans-Serif" font-size="12.00" fill="white">ForwardIndexType</text>
</a>
</g>
</g>
<!-- ForwardIndexType&#45;&gt;BidirectionalIndexType -->
<g id="edge42" class="edge">
<path fill="none" stroke="#cccccc" d="M757.464,-289.988C757.084,-282.91 756.563,-273.171 756.097,-264.478"/>
<polygon fill="#cccccc" stroke="#cccccc" points="759.582,-264.102 755.552,-254.304 752.592,-264.477 759.582,-264.102"/>
</g>
<!-- Int -->
<g id="node7" class="node">
<g id="a_node7"><a xlink:href="/swift-2/type/Int/" target="_top">
<polygon fill="#999999" stroke="#999999" points="216,-22 162,-22 162,-0 216,-0 216,-22"/>
<text text-anchor="middle" x="189" y="-7.4" font-family="Helvetica,sans-Serif" font-size="12.00" fill="white">Int</text>
</a>
</g>
</g>
<!-- Int&#45;&gt;Bit -->
<g id="edge17" class="edge">
<path fill="none" stroke="#cccccc" d="M216.281,-11C218.738,-11 221.194,-11 223.651,-11"/>
<polygon fill="#cccccc" stroke="#cccccc" points="223.75,-14.5001 233.75,-11 223.749,-7.5001 223.75,-14.5001"/>
</g>
<!-- Int16 -->
<g id="node8" class="node">
<g id="a_node8"><a xlink:href="/swift-2/type/Int16/" target="_top">
<polygon fill="#999999" stroke="#999999" points="360,-22 306,-22 306,-0 360,-0 360,-22"/>
<text text-anchor="middle" x="333" y="-7.4" font-family="Helvetica,sans-Serif" font-size="12.00" fill="white">Int16</text>
</a>
</g>
</g>
<!-- Int32 -->
<g id="node9" class="node">
<g id="a_node9"><a xlink:href="/swift-2/type/Int32/" target="_top">
<polygon fill="#999999" stroke="#999999" points="456,-22 402,-22 402,-0 456,-0 456,-22"/>
<text text-anchor="middle" x="429" y="-7.4" font-family="Helvetica,sans-Serif" font-size="12.00" fill="white">Int32</text>
</a>
</g>
</g>
<!-- Int64 -->
<g id="node10" class="node">
<g id="a_node10"><a xlink:href="/swift-2/type/Int64/" target="_top">
<polygon fill="#999999" stroke="#999999" points="615,-22 561,-22 561,-0 615,-0 615,-22"/>
<text text-anchor="middle" x="588" y="-7.4" font-family="Helvetica,sans-Serif" font-size="12.00" fill="white">Int64</text>
</a>
</g>
</g>
<!-- Int8 -->
<g id="node11" class="node">
<g id="a_node11"><a xlink:href="/swift-2/type/Int8/" target="_top">
<polygon fill="#999999" stroke="#999999" points="539,-22 485,-22 485,-0 539,-0 539,-22"/>
<text text-anchor="middle" x="512" y="-7.4" font-family="Helvetica,sans-Serif" font-size="12.00" fill="white">Int8</text>
</a>
</g>
</g>
<!-- IntegerType -->
<g id="node12" class="node">
<g id="a_node12"><a xlink:href="/swift-2/protocol/IntegerType/" target="_top">
<path fill="#999999" stroke="#999999" d="M704.202,-138C704.202,-138 645.798,-138 645.798,-138 642.132,-138 638.465,-134.333 638.465,-130.667 638.465,-130.667 638.465,-123.333 638.465,-123.333 638.465,-119.667 642.132,-116 645.798,-116 645.798,-116 704.202,-116 704.202,-116 707.868,-116 711.535,-119.667 711.535,-123.333 711.535,-123.333 711.535,-130.667 711.535,-130.667 711.535,-134.333 707.868,-138 704.202,-138"/>
<text text-anchor="middle" x="675" y="-123.4" font-family="Helvetica,sans-Serif" font-size="12.00" fill="white">IntegerType</text>
</a>
</g>
</g>
<!-- IntegerType&#45;&gt;Int -->
<g id="edge18" class="edge">
<path fill="none" stroke="#cccccc" d="M638.576,-124.214C576.891,-120.469 448.394,-109.54 344,-80 297.565,-66.8603 246.919,-42.5947 216.574,-26.8854"/>
<polygon fill="#cccccc" stroke="#cccccc" points="217.949,-23.6541 207.467,-22.1106 214.698,-29.8537 217.949,-23.6541"/>
</g>
<!-- IntegerType&#45;&gt;Int16 -->
<g id="edge19" class="edge">
<path fill="none" stroke="#cccccc" d="M638.394,-124.822C565.966,-121.822 407.687,-111.725 365,-80 349.514,-68.4912 341.242,-47.5891 337.016,-31.9855"/>
<polygon fill="#cccccc" stroke="#cccccc" points="340.411,-31.1328 334.698,-22.2101 333.6,-32.7479 340.411,-31.1328"/>
</g>
<!-- IntegerType&#45;&gt;Int32 -->
<g id="edge20" class="edge">
<path fill="none" stroke="#cccccc" d="M653.138,-115.979C632.869,-106.681 601.88,-92.4422 575,-80 535.332,-61.6385 489.667,-40.3449 460.122,-26.5471"/>
<polygon fill="#cccccc" stroke="#cccccc" points="461.294,-23.2316 450.752,-22.1704 458.331,-29.5737 461.294,-23.2316"/>
</g>
<!-- IntegerType&#45;&gt;Int64 -->
<g id="edge21" class="edge">
<path fill="none" stroke="#cccccc" d="M671.085,-115.633C665.509,-101.67 654.345,-76.4474 640,-58 631.445,-46.9984 620.01,-36.5509 610.042,-28.4013"/>
<polygon fill="#cccccc" stroke="#cccccc" points="612.125,-25.5869 602.109,-22.1343 607.786,-31.0797 612.125,-25.5869"/>
</g>
<!-- IntegerType&#45;&gt;Int8 -->
<g id="edge22" class="edge">
<path fill="none" stroke="#cccccc" d="M660.535,-115.883C632.212,-96.0744 569.232,-52.0275 535.085,-28.1456"/>
<polygon fill="#cccccc" stroke="#cccccc" points="536.868,-25.1211 526.667,-22.2579 532.856,-30.8574 536.868,-25.1211"/>
</g>
<!-- SignedIntegerType -->
<g id="node15" class="node">
<g id="a_node15"><a xlink:href="/swift-2/protocol/SignedIntegerType/" target="_top">
<path fill="#999999" stroke="#999999" d="M476.727,-80C476.727,-80 381.273,-80 381.273,-80 377.606,-80 373.94,-76.3333 373.94,-72.6667 373.94,-72.6667 373.94,-65.3333 373.94,-65.3333 373.94,-61.6667 377.606,-58 381.273,-58 381.273,-58 476.727,-58 476.727,-58 480.394,-58 484.06,-61.6667 484.06,-65.3333 484.06,-65.3333 484.06,-72.6667 484.06,-72.6667 484.06,-76.3333 480.394,-80 476.727,-80"/>
<text text-anchor="middle" x="429" y="-65.4" font-family="Helvetica,sans-Serif" font-size="12.00" fill="white">SignedIntegerType</text>
</a>
</g>
</g>
<!-- IntegerType&#45;&gt;SignedIntegerType -->
<g id="edge23" class="edge">
<path fill="none" stroke="#cccccc" d="M638.437,-117.677C597.413,-108.338 530.448,-93.0938 483.304,-82.3619"/>
<polygon fill="#cccccc" stroke="#cccccc" points="483.792,-78.8835 473.265,-80.0765 482.238,-85.7089 483.792,-78.8835"/>
</g>
<!-- UInt -->
<g id="node17" class="node">
<g id="a_node17"><a xlink:href="/swift-2/type/UInt/" target="_top">
<polygon fill="#999999" stroke="#999999" points="843,-22 789,-22 789,-0 843,-0 843,-22"/>
<text text-anchor="middle" x="816" y="-7.4" font-family="Helvetica,sans-Serif" font-size="12.00" fill="white">UInt</text>
</a>
</g>
</g>
<!-- IntegerType&#45;&gt;UInt -->
<g id="edge24" class="edge">
<path fill="none" stroke="#cccccc" d="M687.513,-115.883C711.805,-96.243 765.567,-52.7755 795.271,-28.7597"/>
<polygon fill="#cccccc" stroke="#cccccc" points="797.737,-31.2669 803.313,-22.2579 793.336,-25.8235 797.737,-31.2669"/>
</g>
<!-- UInt16 -->
<g id="node18" class="node">
<g id="a_node18"><a xlink:href="/swift-2/type/UInt16/" target="_top">
<polygon fill="#999999" stroke="#999999" points="767,-22 713,-22 713,-0 767,-0 767,-22"/>
<text text-anchor="middle" x="740" y="-7.4" font-family="Helvetica,sans-Serif" font-size="12.00" fill="white">UInt16</text>
</a>
</g>
</g>
<!-- IntegerType&#45;&gt;UInt16 -->
<g id="edge25" class="edge">
<path fill="none" stroke="#cccccc" d="M680.768,-115.883C691.63,-96.8331 715.274,-55.3658 729.181,-30.9757"/>
<polygon fill="#cccccc" stroke="#cccccc" points="732.238,-32.6787 734.151,-22.2579 726.157,-29.2114 732.238,-32.6787"/>
</g>
<!-- UInt32 -->
<g id="node19" class="node">
<g id="a_node19"><a xlink:href="/swift-2/type/UInt32/" target="_top">
<polygon fill="#999999" stroke="#999999" points="1144,-22 1090,-22 1090,-0 1144,-0 1144,-22"/>
<text text-anchor="middle" x="1117" y="-7.4" font-family="Helvetica,sans-Serif" font-size="12.00" fill="white">UInt32</text>
</a>
</g>
</g>
<!-- IntegerType&#45;&gt;UInt32 -->
<g id="edge26" class="edge">
<path fill="none" stroke="#cccccc" d="M711.531,-126.799C776.245,-127.001 914.256,-121.923 1021,-80 1051.17,-68.1513 1080.83,-44.8617 1099.01,-28.8688"/>
<polygon fill="#cccccc" stroke="#cccccc" points="1101.43,-31.3962 1106.52,-22.1016 1096.75,-26.1962 1101.43,-31.3962"/>
</g>
<!-- UInt64 -->
<g id="node20" class="node">
<g id="a_node20"><a xlink:href="/swift-2/type/UInt64/" target="_top">
<polygon fill="#999999" stroke="#999999" points="1000,-22 946,-22 946,-0 1000,-0 1000,-22"/>
<text text-anchor="middle" x="973" y="-7.4" font-family="Helvetica,sans-Serif" font-size="12.00" fill="white">UInt64</text>
</a>
</g>
</g>
<!-- IntegerType&#45;&gt;UInt64 -->
<g id="edge27" class="edge">
<path fill="none" stroke="#cccccc" d="M711.41,-126.1C784.096,-125.443 943.128,-119.422 977,-80 988.163,-67.0079 985.414,-46.949 980.921,-31.9792"/>
<polygon fill="#cccccc" stroke="#cccccc" points="984.097,-30.455 977.516,-22.1521 977.483,-32.7469 984.097,-30.455"/>
</g>
<!-- UInt8 -->
<g id="node21" class="node">
<g id="a_node21"><a xlink:href="/swift-2/type/UInt8/" target="_top">
<polygon fill="#999999" stroke="#999999" points="1072,-22 1018,-22 1018,-0 1072,-0 1072,-22"/>
<text text-anchor="middle" x="1045" y="-7.4" font-family="Helvetica,sans-Serif" font-size="12.00" fill="white">UInt8</text>
</a>
</g>
</g>
<!-- IntegerType&#45;&gt;UInt8 -->
<g id="edge28" class="edge">
<path fill="none" stroke="#cccccc" d="M711.438,-124.278C784.89,-120.246 947.756,-108.305 995,-80 1013.87,-68.6947 1027.8,-47.2657 1036.1,-31.4734"/>
<polygon fill="#cccccc" stroke="#cccccc" points="1039.45,-32.5897 1040.73,-22.0727 1033.17,-29.4948 1039.45,-32.5897"/>
</g>
<!-- UnsignedIntegerType -->
<g id="node24" class="node">
<g id="a_node24"><a xlink:href="/swift-2/protocol/UnsignedIntegerType/" target="_top">
<path fill="#999999" stroke="#999999" d="M960.728,-80C960.728,-80 851.272,-80 851.272,-80 847.605,-80 843.938,-76.3333 843.938,-72.6667 843.938,-72.6667 843.938,-65.3333 843.938,-65.3333 843.938,-61.6667 847.605,-58 851.272,-58 851.272,-58 960.728,-58 960.728,-58 964.395,-58 968.062,-61.6667 968.062,-65.3333 968.062,-65.3333 968.062,-72.6667 968.062,-72.6667 968.062,-76.3333 964.395,-80 960.728,-80"/>
<text text-anchor="middle" x="906" y="-65.4" font-family="Helvetica,sans-Serif" font-size="12.00" fill="white">UnsignedIntegerType</text>
</a>
</g>
</g>
<!-- IntegerType&#45;&gt;UnsignedIntegerType -->
<g id="edge29" class="edge">
<path fill="none" stroke="#cccccc" d="M711.348,-117.188C749.893,-107.844 811.099,-93.0064 854.579,-82.4657"/>
<polygon fill="#cccccc" stroke="#cccccc" points="855.504,-85.8429 864.398,-80.0853 853.855,-79.0399 855.504,-85.8429"/>
</g>
<!-- RandomAccessIndexType&#45;&gt;AnyRandomAccessIndex -->
<g id="edge1" class="edge">
<path fill="none" stroke="#cccccc" d="M632.407,-184.224C549.377,-182.506 412.123,-173.756 300,-138 218.625,-112.05 133.227,-55.8128 94.0303,-28.0995"/>
<polygon fill="#cccccc" stroke="#cccccc" points="95.6902,-24.9837 85.5199,-22.0146 91.6188,-30.678 95.6902,-24.9837"/>
</g>
<!-- RandomAccessIndexType&#45;&gt;Bit -->
<g id="edge2" class="edge">
<path fill="none" stroke="#cccccc" d="M632.611,-179.746C548.213,-173.884 416.629,-161.3 373,-138 325.888,-112.84 289.032,-59.5259 271.749,-30.9801"/>
<polygon fill="#cccccc" stroke="#cccccc" points="274.554,-28.847 266.467,-22.0028 268.521,-32.3966 274.554,-28.847"/>
</g>
<!-- RandomAccessIndexType&#45;&gt;Int -->
<g id="edge3" class="edge">
<path fill="none" stroke="#cccccc" d="M632.345,-179.612C540.633,-173.365 390.941,-160.143 340,-138 282.11,-112.837 229.082,-58.3053 204.085,-29.9465"/>
<polygon fill="#cccccc" stroke="#cccccc" points="206.442,-27.3211 197.253,-22.0473 201.147,-31.9004 206.442,-27.3211"/>
</g>
<!-- RandomAccessIndexType&#45;&gt;Int16 -->
<g id="edge4" class="edge">
<path fill="none" stroke="#cccccc" d="M632.599,-181.834C573.224,-177.829 489.019,-166.961 421,-138 381.58,-121.216 366.131,-116.686 344,-80 335.324,-65.6174 332.857,-46.5479 332.397,-32.2638"/>
<polygon fill="#cccccc" stroke="#cccccc" points="335.897,-32.0087 332.379,-22.015 328.897,-32.0213 335.897,-32.0087"/>
</g>
<!-- RandomAccessIndexType&#45;&gt;Int32 -->
<g id="edge5" class="edge">
<path fill="none" stroke="#cccccc" d="M644.008,-173.94C554.691,-158.244 398.349,-124.998 365,-80 350.428,-60.3375 375.297,-40.2186 398.158,-27.0189"/>
<polygon fill="#cccccc" stroke="#cccccc" points="399.969,-30.0179 407.059,-22.1454 396.607,-23.878 399.969,-30.0179"/>
</g>
<!-- RandomAccessIndexType&#45;&gt;Int64 -->
<g id="edge6" class="edge">
<path fill="none" stroke="#cccccc" d="M680.099,-173.979C663.248,-166.439 642.284,-154.553 629,-138 603.804,-106.603 593.896,-59.2518 590.149,-32.4305"/>
<polygon fill="#cccccc" stroke="#cccccc" points="593.597,-31.7927 588.894,-22.299 586.65,-32.6535 593.597,-31.7927"/>
</g>
<!-- RandomAccessIndexType&#45;&gt;Int8 -->
<g id="edge7" class="edge">
<path fill="none" stroke="#cccccc" d="M678.065,-173.937C658.178,-166.119 631.879,-153.926 612,-138 572.983,-106.742 539.634,-57.5871 523.106,-30.8502"/>
<polygon fill="#cccccc" stroke="#cccccc" points="525.973,-28.828 517.798,-22.0887 519.986,-32.4551 525.973,-28.828"/>
</g>
<!-- RandomAccessIndexType&#45;&gt;IntegerType -->
<g id="edge8" class="edge">
<path fill="none" stroke="#cccccc" d="M701.279,-173.988C697.009,-166.517 691.046,-156.081 685.88,-147.039"/>
<polygon fill="#cccccc" stroke="#cccccc" points="688.888,-145.25 680.888,-138.304 682.811,-148.723 688.888,-145.25"/>
</g>
<!-- ReverseRandomAccessIndex -->
<g id="node14" class="node">
<g id="a_node14"><a xlink:href="/swift-2/type/ReverseRandomAccessIndex/" target="_top">
<polygon fill="#999999" stroke="#999999" points="1330.06,-22 1161.94,-22 1161.94,-0 1330.06,-0 1330.06,-22"/>
<text text-anchor="middle" x="1246" y="-7.4" font-family="Helvetica,sans-Serif" font-size="12.00" fill="white">ReverseRandomAccessIndex</text>
</a>
</g>
</g>
<!-- RandomAccessIndexType&#45;&gt;ReverseRandomAccessIndex -->
<g id="edge9" class="edge">
<path fill="none" stroke="#cccccc" d="M781.356,-180.82C846.349,-176.25 942.491,-165.118 1022,-138 1101.56,-110.864 1185.33,-55.4286 1224.03,-28.0425"/>
<polygon fill="#cccccc" stroke="#cccccc" points="1226.35,-30.6901 1232.44,-22.0258 1222.27,-24.9964 1226.35,-30.6901"/>
</g>
<!-- RandomAccessIndexType&#45;&gt;UInt -->
<g id="edge10" class="edge">
<path fill="none" stroke="#cccccc" d="M713.725,-173.803C719.84,-164.504 729.089,-150.37 737,-138 761.192,-100.171 788.974,-55.589 804.304,-30.8882"/>
<polygon fill="#cccccc" stroke="#cccccc" points="807.417,-32.5081 809.712,-22.1648 801.468,-28.8193 807.417,-32.5081"/>
</g>
<!-- RandomAccessIndexType&#45;&gt;UInt16 -->
<g id="edge11" class="edge">
<path fill="none" stroke="#cccccc" d="M710.24,-173.856C713.109,-164.593 717.256,-150.482 720,-138 728.125,-101.044 734.313,-57.3007 737.53,-32.286"/>
<polygon fill="#cccccc" stroke="#cccccc" points="741.023,-32.5603 738.796,-22.2023 734.078,-31.6885 741.023,-32.5603"/>
</g>
<!-- RandomAccessIndexType&#45;&gt;UInt32 -->
<g id="edge12" class="edge">
<path fill="none" stroke="#cccccc" d="M781.605,-183.192C840.725,-179.945 924.062,-169.433 990,-138 1041.61,-113.398 1084.66,-59.0292 1104.78,-30.4219"/>
<polygon fill="#cccccc" stroke="#cccccc" points="1107.71,-32.3343 1110.49,-22.1094 1101.94,-28.3719 1107.71,-32.3343"/>
</g>
<!-- RandomAccessIndexType&#45;&gt;UInt64 -->
<g id="edge13" class="edge">
<path fill="none" stroke="#cccccc" d="M781.383,-180.016C849.587,-171.947 947.042,-148.307 995,-80 1005.51,-65.0308 996.622,-44.7548 987.191,-30.2464"/>
<polygon fill="#cccccc" stroke="#cccccc" points="990.04,-28.2131 981.417,-22.0572 984.319,-32.2468 990.04,-28.2131"/>
</g>
<!-- RandomAccessIndexType&#45;&gt;UInt8 -->
<g id="edge14" class="edge">
<path fill="none" stroke="#cccccc" d="M781.356,-181.444C833.484,-177.086 903.485,-165.943 959,-138 992.705,-121.035 1000.35,-111.583 1021,-80 1030.61,-65.3036 1036.89,-46.3005 1040.61,-32.1205"/>
<polygon fill="#cccccc" stroke="#cccccc" points="1044.02,-32.9107 1042.97,-22.3684 1037.22,-31.2669 1044.02,-32.9107"/>
</g>
<!-- UnsafeMutablePointer -->
<g id="node22" class="node">
<g id="a_node22"><a xlink:href="/swift-2/type/UnsafeMutablePointer/" target="_top">
<polygon fill="#999999" stroke="#999999" points="1476.05,-22 1347.95,-22 1347.95,-0 1476.05,-0 1476.05,-22"/>
<text text-anchor="middle" x="1412" y="-7.4" font-family="Helvetica,sans-Serif" font-size="12.00" fill="white">UnsafeMutablePointer</text>
</a>
</g>
</g>
<!-- RandomAccessIndexType&#45;&gt;UnsafeMutablePointer -->
<g id="edge15" class="edge">
<path fill="none" stroke="#cccccc" d="M781.624,-179.054C854.057,-173.15 966.708,-161.038 1062,-138 1182.71,-108.817 1319.56,-52.383 1380.19,-26.103"/>
<polygon fill="#cccccc" stroke="#cccccc" points="1381.82,-29.209 1389.59,-22.0043 1379.03,-22.7922 1381.82,-29.209"/>
</g>
<!-- UnsafePointer -->
<g id="node23" class="node">
<g id="a_node23"><a xlink:href="/swift-2/type/UnsafePointer/" target="_top">
<polygon fill="#999999" stroke="#999999" points="1580.03,-22 1493.97,-22 1493.97,-0 1580.03,-0 1580.03,-22"/>
<text text-anchor="middle" x="1537" y="-7.4" font-family="Helvetica,sans-Serif" font-size="12.00" fill="white">UnsafePointer</text>
</a>
</g>
</g>
<!-- RandomAccessIndexType&#45;&gt;UnsafePointer -->
<g id="edge16" class="edge">
<path fill="none" stroke="#cccccc" d="M781.699,-179.579C863.991,-173.783 999.932,-161.471 1115,-138 1259.89,-108.446 1426.72,-51.6322 1499.63,-25.6152"/>
<polygon fill="#cccccc" stroke="#cccccc" points="1501.06,-28.8237 1509.29,-22.1545 1498.69,-22.2343 1501.06,-28.8237"/>
</g>
<!-- SignedIntegerType&#45;&gt;Int -->
<g id="edge30" class="edge">
<path fill="none" stroke="#cccccc" d="M381.44,-57.9684C342.18,-49.5314 284.789,-36.8404 225.93,-22.15"/>
<polygon fill="#cccccc" stroke="#cccccc" points="226.64,-18.7198 216.089,-19.6784 224.935,-25.509 226.64,-18.7198"/>
</g>
<!-- SignedIntegerType&#45;&gt;Int16 -->
<g id="edge31" class="edge">
<path fill="none" stroke="#cccccc" d="M411.837,-57.9883C397.185,-49.441 375.884,-37.0155 359.116,-27.2343"/>
<polygon fill="#cccccc" stroke="#cccccc" points="360.739,-24.1293 350.338,-22.1138 357.212,-30.1758 360.739,-24.1293"/>
</g>
<!-- SignedIntegerType&#45;&gt;Int32 -->
<g id="edge32" class="edge">
<path fill="none" stroke="#cccccc" d="M429,-57.9883C429,-50.9098 429,-41.1714 429,-32.4779"/>
<polygon fill="#cccccc" stroke="#cccccc" points="432.5,-32.3038 429,-22.3039 425.5,-32.3039 432.5,-32.3038"/>
</g>
<!-- SignedIntegerType&#45;&gt;Int64 -->
<g id="edge33" class="edge">
<path fill="none" stroke="#cccccc" d="M457.426,-57.9883C483.634,-48.7577 522.685,-35.0041 551.252,-24.9426"/>
<polygon fill="#cccccc" stroke="#cccccc" points="552.612,-28.1745 560.881,-21.5512 550.287,-21.572 552.612,-28.1745"/>
</g>
<!-- SignedIntegerType&#45;&gt;Int8 -->
<g id="edge34" class="edge">
<path fill="none" stroke="#cccccc" d="M443.839,-57.9883C456.272,-49.5993 474.243,-37.4743 488.611,-27.7804"/>
<polygon fill="#cccccc" stroke="#cccccc" points="490.678,-30.6083 497.01,-22.1138 486.763,-24.8055 490.678,-30.6083"/>
</g>
<!-- Strideable&#45;&gt;RandomAccessIndexType -->
<g id="edge41" class="edge">
<path fill="none" stroke="#cccccc" d="M656.788,-289.689C661.842,-276.213 671.287,-251.979 681,-232 685.44,-222.868 690.901,-213.033 695.67,-204.811"/>
<polygon fill="#cccccc" stroke="#cccccc" points="698.779,-206.429 700.848,-196.038 692.751,-202.87 698.779,-206.429"/>
</g>
<!-- UnsignedIntegerType&#45;&gt;UInt -->
<g id="edge35" class="edge">
<path fill="none" stroke="#cccccc" d="M889.91,-57.9883C876.3,-49.5201 856.573,-37.2452 840.921,-27.5067"/>
<polygon fill="#cccccc" stroke="#cccccc" points="842.594,-24.4252 832.254,-22.1138 838.896,-30.3686 842.594,-24.4252"/>
</g>
<!-- UnsignedIntegerType&#45;&gt;UInt16 -->
<g id="edge36" class="edge">
<path fill="none" stroke="#cccccc" d="M876.323,-57.9883C848.506,-48.6044 806.832,-34.5458 776.888,-24.4442"/>
<polygon fill="#cccccc" stroke="#cccccc" points="777.814,-21.0628 767.22,-21.1826 775.576,-27.6955 777.814,-21.0628"/>
</g>
<!-- UnsignedIntegerType&#45;&gt;UInt32 -->
<g id="edge37" class="edge">
<path fill="none" stroke="#cccccc" d="M944.965,-57.9235C978.377,-49.2459 1028.05,-36.2571 1080.13,-22.21"/>
<polygon fill="#cccccc" stroke="#cccccc" points="1081.14,-25.563 1089.88,-19.5756 1079.32,-18.8054 1081.14,-25.563"/>
</g>
<!-- UnsignedIntegerType&#45;&gt;UInt64 -->
<g id="edge38" class="edge">
<path fill="none" stroke="#cccccc" d="M917.978,-57.9883C927.671,-49.8873 941.531,-38.3026 952.915,-28.7873"/>
<polygon fill="#cccccc" stroke="#cccccc" points="955.244,-31.4025 960.672,-22.3039 950.755,-26.0315 955.244,-31.4025"/>
</g>
<!-- UnsignedIntegerType&#45;&gt;UInt8 -->
<g id="edge39" class="edge">
<path fill="none" stroke="#cccccc" d="M930.85,-57.9883C953.048,-49.0453 985.784,-35.8566 1010.51,-25.8935"/>
<polygon fill="#cccccc" stroke="#cccccc" points="1011.93,-29.0972 1019.9,-22.1138 1009.31,-22.6043 1011.93,-29.0972"/>
</g>
<!-- _Incrementable&#45;&gt;ForwardIndexType -->
<g id="edge43" class="edge">
<path fill="none" stroke="#cccccc" d="M758,-347.988C758,-340.91 758,-331.171 758,-322.478"/>
<polygon fill="#cccccc" stroke="#cccccc" points="761.5,-322.304 758,-312.304 754.5,-322.304 761.5,-322.304"/>
</g>
<!-- _Strideable -->
<g id="node26" class="node">
<g id="a_node26"><a xlink:href="/swift-2/protocol/_Strideable/" target="_top">
<path fill="#999999" stroke="#999999" d="M685.7,-370C685.7,-370 630.3,-370 630.3,-370 626.634,-370 622.967,-366.333 622.967,-362.667 622.967,-362.667 622.967,-355.333 622.967,-355.333 622.967,-351.667 626.634,-348 630.3,-348 630.3,-348 685.7,-348 685.7,-348 689.366,-348 693.033,-351.667 693.033,-355.333 693.033,-355.333 693.033,-362.667 693.033,-362.667 693.033,-366.333 689.366,-370 685.7,-370"/>
<text text-anchor="middle" x="658" y="-355.4" font-family="Helvetica,sans-Serif" font-size="12.00" fill="white">_Strideable</text>
</a>
</g>
</g>
<!-- _Strideable&#45;&gt;Strideable -->
<g id="edge46" class="edge">
<path fill="none" stroke="#cccccc" d="M657.106,-347.988C656.474,-340.91 655.605,-331.171 654.828,-322.478"/>
<polygon fill="#cccccc" stroke="#cccccc" points="658.296,-321.953 653.92,-312.304 651.323,-322.576 658.296,-321.953"/>
</g>
</g>
</svg>
