<?xml version="1.0" encoding="UTF-8" standalone="no"?>
<!DOCTYPE svg PUBLIC "-//W3C//DTD SVG 1.1//EN"
 "http://www.w3.org/Graphics/SVG/1.1/DTD/svg11.dtd">
<!-- Generated by graphviz version 2.36.0 (20140111.2315)
 -->
<!-- Title: CustomStringConvertible &#45; Type Hierarchy &#45; SwiftDoc.org Pages: 1 -->
<svg width="3351pt" height="369pt"
 viewBox="0.00 0.00 3351.40 369.20" xmlns="http://www.w3.org/2000/svg" xmlns:xlink="http://www.w3.org/1999/xlink">
<g id="graph0" class="graph" transform="scale(1 1) rotate(0) translate(7.2 311.6)">
<title>CustomStringConvertible &#45; Type Hierarchy &#45; SwiftDoc.org</title>
<polygon fill="white" stroke="none" points="-7.2,57.6 -7.2,-311.6 3344.2,-311.6 3344.2,57.6 -7.2,57.6"/>
<!-- Array -->
<g id="node1" class="node"><title>Array</title>
<g id="a_node1"><a xlink:href="/type/Array/" xlink:title="Array">
<polygon fill="#999999" stroke="#999999" points="54,-22 0,-22 0,-0 54,-0 54,-22"/>
<text text-anchor="middle" x="27" y="-7.4" font-family="Helvetica,sans-Serif" font-size="12.00" fill="white">Array</text>
</a>
</g>
</g>
<!-- ArraySlice -->
<g id="node2" class="node"><title>ArraySlice</title>
<g id="a_node2"><a xlink:href="/type/ArraySlice/" xlink:title="ArraySlice">
<polygon fill="#999999" stroke="#999999" points="136.011,-22 71.9886,-22 71.9886,-0 136.011,-0 136.011,-22"/>
<text text-anchor="middle" x="104" y="-7.4" font-family="Helvetica,sans-Serif" font-size="12.00" fill="white">ArraySlice</text>
</a>
</g>
</g>
<!-- Bit -->
<g id="node3" class="node"><title>Bit</title>
<g id="a_node3"><a xlink:href="/type/Bit/" xlink:title="Bit">
<polygon fill="#999999" stroke="#999999" points="1732,-22 1678,-22 1678,-0 1732,-0 1732,-22"/>
<text text-anchor="middle" x="1705" y="-7.4" font-family="Helvetica,sans-Serif" font-size="12.00" fill="white">Bit</text>
</a>
</g>
</g>
<!-- Bool -->
<g id="node4" class="node"><title>Bool</title>
<g id="a_node4"><a xlink:href="/type/Bool/" xlink:title="Bool">
<polygon fill="#999999" stroke="#999999" points="208,-22 154,-22 154,-0 208,-0 208,-22"/>
<text text-anchor="middle" x="181" y="-7.4" font-family="Helvetica,sans-Serif" font-size="12.00" fill="white">Bool</text>
</a>
</g>
</g>
<!-- ClosedInterval -->
<g id="node5" class="node"><title>ClosedInterval</title>
<g id="a_node5"><a xlink:href="/type/ClosedInterval/" xlink:title="ClosedInterval">
<polygon fill="#999999" stroke="#999999" points="312.03,-22 225.97,-22 225.97,-0 312.03,-0 312.03,-22"/>
<text text-anchor="middle" x="269" y="-7.4" font-family="Helvetica,sans-Serif" font-size="12.00" fill="white">ClosedInterval</text>
</a>
</g>
</g>
<!-- ContiguousArray -->
<g id="node6" class="node"><title>ContiguousArray</title>
<g id="a_node6"><a xlink:href="/type/ContiguousArray/" xlink:title="ContiguousArray">
<polygon fill="#999999" stroke="#999999" points="429.534,-22 330.466,-22 330.466,-0 429.534,-0 429.534,-22"/>
<text text-anchor="middle" x="380" y="-7.4" font-family="Helvetica,sans-Serif" font-size="12.00" fill="white">ContiguousArray</text>
</a>
</g>
</g>
<!-- CustomStringConvertible -->
<g id="node7" class="node"><title>CustomStringConvertible</title>
<g id="a_node7"><a xlink:href="/protocol/CustomStringConvertible/" xlink:title="CustomStringConvertible">
<path fill="#ee543d" stroke="#ee543d" d="M1581.21,-254C1581.21,-254 1452.79,-254 1452.79,-254 1449.13,-254 1445.46,-250.333 1445.46,-246.667 1445.46,-246.667 1445.46,-239.333 1445.46,-239.333 1445.46,-235.667 1449.13,-232 1452.79,-232 1452.79,-232 1581.21,-232 1581.21,-232 1584.87,-232 1588.54,-235.667 1588.54,-239.333 1588.54,-239.333 1588.54,-246.667 1588.54,-246.667 1588.54,-250.333 1584.87,-254 1581.21,-254"/>
<text text-anchor="middle" x="1517" y="-239.4" font-family="Helvetica,sans-Serif" font-size="12.00" fill="white">CustomStringConvertible</text>
</a>
</g>
</g>
<!-- CustomStringConvertible&#45;&gt;Array -->
<g id="edge1" class="edge"><title>CustomStringConvertible&#45;&gt;Array</title>
<path fill="none" stroke="#cccccc" d="M1445.46,-241.446C1244.48,-239.465 677.526,-230.858 495,-196 417.411,-181.182 400.787,-166.198 327,-138 228.187,-100.238 113.417,-50.3034 58.9035,-26.2084"/>
<polygon fill="#cccccc" stroke="#cccccc" points="60.3133,-23.005 49.7525,-22.156 57.4789,-29.4055 60.3133,-23.005"/>
</g>
<!-- CustomStringConvertible&#45;&gt;ArraySlice -->
<g id="edge2" class="edge"><title>CustomStringConvertible&#45;&gt;ArraySlice</title>
<path fill="none" stroke="#cccccc" d="M1445.36,-241.423C1256.04,-239.427 745.739,-230.877 581,-196 403.157,-158.349 204.575,-63.1754 132.262,-26.6154"/>
<polygon fill="#cccccc" stroke="#cccccc" points="133.799,-23.4704 123.299,-22.056 130.625,-29.7096 133.799,-23.4704"/>
</g>
<!-- CustomStringConvertible&#45;&gt;Bool -->
<g id="edge3" class="edge"><title>CustomStringConvertible&#45;&gt;Bool</title>
<path fill="none" stroke="#cccccc" d="M1445.52,-240.871C1267.48,-237.626 807.826,-226.47 658,-196 583.878,-180.926 568.709,-164.861 498,-138 394.377,-98.635 272.822,-49.4773 214.951,-25.8898"/>
<polygon fill="#cccccc" stroke="#cccccc" points="216.143,-22.5964 205.562,-22.0597 213.499,-29.0778 216.143,-22.5964"/>
</g>
<!-- CustomStringConvertible&#45;&gt;ClosedInterval -->
<g id="edge4" class="edge"><title>CustomStringConvertible&#45;&gt;ClosedInterval</title>
<path fill="none" stroke="#cccccc" d="M1445.64,-240.585C1280.45,-236.853 875.751,-224.965 743,-196 566.778,-157.551 369.901,-63.2622 297.601,-26.7643"/>
<polygon fill="#cccccc" stroke="#cccccc" points="299.13,-23.6155 288.63,-22.2081 295.961,-29.8568 299.13,-23.6155"/>
</g>
<!-- CustomStringConvertible&#45;&gt;ContiguousArray -->
<g id="edge5" class="edge"><title>CustomStringConvertible&#45;&gt;ContiguousArray</title>
<path fill="none" stroke="#cccccc" d="M1445.57,-240.352C1291.04,-236.297 930.03,-224.055 811,-196 746.244,-180.737 734.226,-164.031 673,-138 578.255,-97.7189 466.58,-49.4857 412.544,-26.0989"/>
<polygon fill="#cccccc" stroke="#cccccc" points="413.709,-22.7896 403.142,-22.0287 410.928,-29.2135 413.709,-22.7896"/>
</g>
<!-- Dictionary -->
<g id="node8" class="node"><title>Dictionary</title>
<g id="a_node8"><a xlink:href="/type/Dictionary/" xlink:title="Dictionary">
<polygon fill="#999999" stroke="#999999" points="510.511,-22 447.489,-22 447.489,-0 510.511,-0 510.511,-22"/>
<text text-anchor="middle" x="479" y="-7.4" font-family="Helvetica,sans-Serif" font-size="12.00" fill="white">Dictionary</text>
</a>
</g>
</g>
<!-- CustomStringConvertible&#45;&gt;Dictionary -->
<g id="edge6" class="edge"><title>CustomStringConvertible&#45;&gt;Dictionary</title>
<path fill="none" stroke="#cccccc" d="M1445.53,-239.957C1303.24,-235.373 989.285,-222.527 885,-196 732.696,-157.259 566.544,-64.1967 504.354,-27.3736"/>
<polygon fill="#cccccc" stroke="#cccccc" points="505.996,-24.2776 495.615,-22.1623 502.411,-30.2899 505.996,-24.2776"/>
</g>
<!-- Double -->
<g id="node9" class="node"><title>Double</title>
<g id="a_node9"><a xlink:href="/type/Double/" xlink:title="Double">
<polygon fill="#999999" stroke="#999999" points="583,-22 529,-22 529,-0 583,-0 583,-22"/>
<text text-anchor="middle" x="556" y="-7.4" font-family="Helvetica,sans-Serif" font-size="12.00" fill="white">Double</text>
</a>
</g>
</g>
<!-- CustomStringConvertible&#45;&gt;Double -->
<g id="edge7" class="edge"><title>CustomStringConvertible&#45;&gt;Double</title>
<path fill="none" stroke="#cccccc" d="M1445.52,-239.102C1314.93,-233.325 1042.76,-218.922 951,-196 888.04,-180.272 876.011,-165.001 817,-138 732.246,-99.2197 633.492,-50.5904 585.374,-26.6698"/>
<polygon fill="#cccccc" stroke="#cccccc" points="586.683,-23.4118 576.171,-22.089 583.563,-29.6784 586.683,-23.4118"/>
</g>
<!-- Float -->
<g id="node10" class="node"><title>Float</title>
<g id="a_node10"><a xlink:href="/type/Float/" xlink:title="Float">
<polygon fill="#999999" stroke="#999999" points="655,-22 601,-22 601,-0 655,-0 655,-22"/>
<text text-anchor="middle" x="628" y="-7.4" font-family="Helvetica,sans-Serif" font-size="12.00" fill="white">Float</text>
</a>
</g>
</g>
<!-- CustomStringConvertible&#45;&gt;Float -->
<g id="edge8" class="edge"><title>CustomStringConvertible&#45;&gt;Float</title>
<path fill="none" stroke="#cccccc" d="M1445.45,-242.897C1348.3,-242.417 1170.05,-235.479 1024,-196 875.69,-155.91 714.027,-63.9834 653.097,-27.4151"/>
<polygon fill="#cccccc" stroke="#cccccc" points="654.569,-24.2152 644.2,-22.0378 650.948,-30.206 654.569,-24.2152"/>
</g>
<!-- Float80 -->
<g id="node11" class="node"><title>Float80</title>
<g id="a_node11"><a xlink:href="/type/Float80/" xlink:title="Float80">
<polygon fill="#999999" stroke="#999999" points="727,-22 673,-22 673,-0 727,-0 727,-22"/>
<text text-anchor="middle" x="700" y="-7.4" font-family="Helvetica,sans-Serif" font-size="12.00" fill="white">Float80</text>
</a>
</g>
</g>
<!-- CustomStringConvertible&#45;&gt;Float80 -->
<g id="edge9" class="edge"><title>CustomStringConvertible&#45;&gt;Float80</title>
<path fill="none" stroke="#cccccc" d="M1445.53,-241.599C1358.56,-239.482 1207.98,-230.537 1084,-196 1025.39,-179.673 1014.93,-164.156 960,-138 876.321,-98.156 777.99,-50.1895 729.75,-26.5817"/>
<polygon fill="#cccccc" stroke="#cccccc" points="731.034,-23.3136 720.514,-22.0599 727.956,-29.6006 731.034,-23.3136"/>
</g>
<!-- HalfOpenInterval -->
<g id="node12" class="node"><title>HalfOpenInterval</title>
<g id="a_node12"><a xlink:href="/type/HalfOpenInterval/" xlink:title="HalfOpenInterval">
<polygon fill="#999999" stroke="#999999" points="845.035,-22 744.965,-22 744.965,-0 845.035,-0 845.035,-22"/>
<text text-anchor="middle" x="795" y="-7.4" font-family="Helvetica,sans-Serif" font-size="12.00" fill="white">HalfOpenInterval</text>
</a>
</g>
</g>
<!-- CustomStringConvertible&#45;&gt;HalfOpenInterval -->
<g id="edge10" class="edge"><title>CustomStringConvertible&#45;&gt;HalfOpenInterval</title>
<path fill="none" stroke="#cccccc" d="M1445.62,-240.815C1369.33,-237.806 1245.63,-227.879 1144,-196 1012.4,-154.723 871.915,-64.5496 817.931,-27.9317"/>
<polygon fill="#cccccc" stroke="#cccccc" points="819.68,-24.8875 809.449,-22.1341 815.73,-30.6666 819.68,-24.8875"/>
</g>
<!-- ImplicitlyUnwrappedOptional -->
<g id="node13" class="node"><title>ImplicitlyUnwrappedOptional</title>
<g id="a_node13"><a xlink:href="/type/ImplicitlyUnwrappedOptional/" xlink:title="ImplicitlyUnwrappedOptional">
<polygon fill="#999999" stroke="#999999" points="1025.05,-22 862.949,-22 862.949,-0 1025.05,-0 1025.05,-22"/>
<text text-anchor="middle" x="944" y="-7.4" font-family="Helvetica,sans-Serif" font-size="12.00" fill="white">ImplicitlyUnwrappedOptional</text>
</a>
</g>
</g>
<!-- CustomStringConvertible&#45;&gt;ImplicitlyUnwrappedOptional -->
<g id="edge11" class="edge"><title>CustomStringConvertible&#45;&gt;ImplicitlyUnwrappedOptional</title>
<path fill="none" stroke="#cccccc" d="M1445.54,-242.157C1377.23,-239.99 1272.57,-230.523 1189,-196 1091.23,-155.613 997.523,-66.9466 960.559,-29.3746"/>
<polygon fill="#cccccc" stroke="#cccccc" points="963.032,-26.8975 953.551,-22.1684 958.014,-31.7776 963.032,-26.8975"/>
</g>
<!-- Int -->
<g id="node14" class="node"><title>Int</title>
<g id="a_node14"><a xlink:href="/type/Int/" xlink:title="Int">
<polygon fill="#999999" stroke="#999999" points="1580,-22 1526,-22 1526,-0 1580,-0 1580,-22"/>
<text text-anchor="middle" x="1553" y="-7.4" font-family="Helvetica,sans-Serif" font-size="12.00" fill="white">Int</text>
</a>
</g>
</g>
<!-- CustomStringConvertible&#45;&gt;Int -->
<g id="edge12" class="edge"><title>CustomStringConvertible&#45;&gt;Int</title>
<path fill="none" stroke="#cccccc" d="M1518.59,-231.82C1524.11,-196.568 1542.47,-79.2764 1549.87,-32.0032"/>
<polygon fill="#cccccc" stroke="#cccccc" points="1553.34,-32.483 1551.43,-22.062 1546.42,-31.4005 1553.34,-32.483"/>
</g>
<!-- Int16 -->
<g id="node15" class="node"><title>Int16</title>
<g id="a_node15"><a xlink:href="/type/Int16/" xlink:title="Int16">
<polygon fill="#999999" stroke="#999999" points="1097,-22 1043,-22 1043,-0 1097,-0 1097,-22"/>
<text text-anchor="middle" x="1070" y="-7.4" font-family="Helvetica,sans-Serif" font-size="12.00" fill="white">Int16</text>
</a>
</g>
</g>
<!-- CustomStringConvertible&#45;&gt;Int16 -->
<g id="edge13" class="edge"><title>CustomStringConvertible&#45;&gt;Int16</title>
<path fill="none" stroke="#cccccc" d="M1445.42,-236.685C1370.63,-230.111 1259.11,-217.124 1222,-196 1151.59,-155.919 1100.07,-69.7264 1079.65,-31.2416"/>
<polygon fill="#cccccc" stroke="#cccccc" points="1082.64,-29.4031 1074.93,-22.1343 1076.43,-32.6235 1082.64,-29.4031"/>
</g>
<!-- Int32 -->
<g id="node16" class="node"><title>Int32</title>
<g id="a_node16"><a xlink:href="/type/Int32/" xlink:title="Int32">
<polygon fill="#999999" stroke="#999999" points="1169,-22 1115,-22 1115,-0 1169,-0 1169,-22"/>
<text text-anchor="middle" x="1142" y="-7.4" font-family="Helvetica,sans-Serif" font-size="12.00" fill="white">Int32</text>
</a>
</g>
</g>
<!-- CustomStringConvertible&#45;&gt;Int32 -->
<g id="edge14" class="edge"><title>CustomStringConvertible&#45;&gt;Int32</title>
<path fill="none" stroke="#cccccc" d="M1445.43,-241.665C1390.13,-238.626 1313.28,-228.164 1254,-196 1189.7,-161.114 1158.27,-72.1127 1147.02,-32.0632"/>
<polygon fill="#cccccc" stroke="#cccccc" points="1150.34,-30.9085 1144.37,-22.1509 1143.57,-32.7155 1150.34,-30.9085"/>
</g>
<!-- Int64 -->
<g id="node17" class="node"><title>Int64</title>
<g id="a_node17"><a xlink:href="/type/Int64/" xlink:title="Int64">
<polygon fill="#999999" stroke="#999999" points="1245,-22 1191,-22 1191,-0 1245,-0 1245,-22"/>
<text text-anchor="middle" x="1218" y="-7.4" font-family="Helvetica,sans-Serif" font-size="12.00" fill="white">Int64</text>
</a>
</g>
</g>
<!-- CustomStringConvertible&#45;&gt;Int64 -->
<g id="edge15" class="edge"><title>CustomStringConvertible&#45;&gt;Int64</title>
<path fill="none" stroke="#cccccc" d="M1445.46,-237.805C1375.66,-229.668 1271.92,-206.057 1215,-138 1190.09,-108.217 1201.15,-59.1852 1210.29,-31.8982"/>
<polygon fill="#cccccc" stroke="#cccccc" points="1213.66,-32.8716 1213.74,-22.2771 1207.07,-30.5103 1213.66,-32.8716"/>
</g>
<!-- Int8 -->
<g id="node18" class="node"><title>Int8</title>
<g id="a_node18"><a xlink:href="/type/Int8/" xlink:title="Int8">
<polygon fill="#999999" stroke="#999999" points="1508,-22 1454,-22 1454,-0 1508,-0 1508,-22"/>
<text text-anchor="middle" x="1481" y="-7.4" font-family="Helvetica,sans-Serif" font-size="12.00" fill="white">Int8</text>
</a>
</g>
</g>
<!-- CustomStringConvertible&#45;&gt;Int8 -->
<g id="edge16" class="edge"><title>CustomStringConvertible&#45;&gt;Int8</title>
<path fill="none" stroke="#cccccc" d="M1515.41,-231.82C1509.89,-196.568 1491.53,-79.2764 1484.13,-32.0032"/>
<polygon fill="#cccccc" stroke="#cccccc" points="1487.58,-31.4005 1482.57,-22.062 1480.66,-32.483 1487.58,-31.4005"/>
</g>
<!-- Mirror -->
<g id="node20" class="node"><title>Mirror</title>
<g id="a_node20"><a xlink:href="/type/Mirror/" xlink:title="Mirror">
<polygon fill="#999999" stroke="#999999" points="2587,-22 2533,-22 2533,-0 2587,-0 2587,-22"/>
<text text-anchor="middle" x="2560" y="-7.4" font-family="Helvetica,sans-Serif" font-size="12.00" fill="white">Mirror</text>
</a>
</g>
</g>
<!-- CustomStringConvertible&#45;&gt;Mirror -->
<g id="edge17" class="edge"><title>CustomStringConvertible&#45;&gt;Mirror</title>
<path fill="none" stroke="#cccccc" d="M1588.41,-240.645C1746.2,-237.137 2120.28,-225.853 2243,-196 2368.15,-165.555 2493.56,-68.233 2540.59,-28.8156"/>
<polygon fill="#cccccc" stroke="#cccccc" points="2543.08,-31.2952 2548.44,-22.1585 2538.55,-25.9561 2543.08,-31.2952"/>
</g>
<!-- Range -->
<g id="node21" class="node"><title>Range</title>
<g id="a_node21"><a xlink:href="/type/Range/" xlink:title="Range">
<polygon fill="#999999" stroke="#999999" points="2659,-22 2605,-22 2605,-0 2659,-0 2659,-22"/>
<text text-anchor="middle" x="2632" y="-7.4" font-family="Helvetica,sans-Serif" font-size="12.00" fill="white">Range</text>
</a>
</g>
</g>
<!-- CustomStringConvertible&#45;&gt;Range -->
<g id="edge18" class="edge"><title>CustomStringConvertible&#45;&gt;Range</title>
<path fill="none" stroke="#cccccc" d="M1588.6,-241.06C1753.8,-238.353 2157.52,-228.521 2289,-196 2422.01,-163.099 2559.5,-66.8811 2610.93,-28.2902"/>
<polygon fill="#cccccc" stroke="#cccccc" points="2613.12,-31.024 2618.97,-22.1946 2608.89,-25.445 2613.12,-31.024"/>
</g>
<!-- Set -->
<g id="node22" class="node"><title>Set</title>
<g id="a_node22"><a xlink:href="/type/Set/" xlink:title="Set">
<polygon fill="#999999" stroke="#999999" points="2731,-22 2677,-22 2677,-0 2731,-0 2731,-22"/>
<text text-anchor="middle" x="2704" y="-7.4" font-family="Helvetica,sans-Serif" font-size="12.00" fill="white">Set</text>
</a>
</g>
</g>
<!-- CustomStringConvertible&#45;&gt;Set -->
<g id="edge19" class="edge"><title>CustomStringConvertible&#45;&gt;Set</title>
<path fill="none" stroke="#cccccc" d="M1588.5,-241.179C1760.92,-238.686 2195.77,-229.204 2337,-196 2477.98,-162.855 2626.36,-66.4108 2681.59,-28.0293"/>
<polygon fill="#cccccc" stroke="#cccccc" points="2683.75,-30.7878 2689.93,-22.18 2679.73,-25.057 2683.75,-30.7878"/>
</g>
<!-- StaticString -->
<g id="node24" class="node"><title>StaticString</title>
<g id="a_node24"><a xlink:href="/type/StaticString/" xlink:title="StaticString">
<polygon fill="#999999" stroke="#999999" points="2820.52,-22 2749.48,-22 2749.48,-0 2820.52,-0 2820.52,-22"/>
<text text-anchor="middle" x="2785" y="-7.4" font-family="Helvetica,sans-Serif" font-size="12.00" fill="white">StaticString</text>
</a>
</g>
</g>
<!-- CustomStringConvertible&#45;&gt;StaticString -->
<g id="edge20" class="edge"><title>CustomStringConvertible&#45;&gt;StaticString</title>
<path fill="none" stroke="#cccccc" d="M1588.49,-241.311C1768.28,-239.081 2235.66,-230.086 2387,-196 2453.11,-181.111 2466.21,-165.819 2528,-138 2612.15,-100.115 2709.45,-50.8903 2756.54,-26.7138"/>
<polygon fill="#cccccc" stroke="#cccccc" points="2758.25,-29.7722 2765.54,-22.0855 2755.05,-23.5475 2758.25,-29.7722"/>
</g>
<!-- String.UTF16View -->
<g id="node25" class="node"><title>String.UTF16View</title>
<g id="a_node25"><a xlink:href="/type/String.UTF16View/" xlink:title="String.UTF16View">
<polygon fill="#999999" stroke="#999999" points="2945.37,-22 2838.63,-22 2838.63,-0 2945.37,-0 2945.37,-22"/>
<text text-anchor="middle" x="2892" y="-7.4" font-family="Helvetica,sans-Serif" font-size="12.00" fill="white">String.UTF16View</text>
</a>
</g>
</g>
<!-- CustomStringConvertible&#45;&gt;String.UTF16View -->
<g id="edge29" class="edge"><title>CustomStringConvertible&#45;&gt;String.UTF16View</title>
<path fill="none" stroke="#cccccc" d="M1588.64,-241.474C1775.46,-239.613 2274.08,-231.38 2435,-196 2605.73,-158.462 2795.15,-63.5786 2864.58,-26.8445"/>
<polygon fill="#cccccc" stroke="#cccccc" points="2866.39,-29.8485 2873.57,-22.0591 2863.1,-23.6698 2866.39,-29.8485"/>
</g>
<!-- String.UTF8View -->
<g id="node26" class="node"><title>String.UTF8View</title>
<g id="a_node26"><a xlink:href="/type/String.UTF8View/" xlink:title="String.UTF8View">
<polygon fill="#999999" stroke="#999999" points="3064.36,-22 2963.64,-22 2963.64,-0 3064.36,-0 3064.36,-22"/>
<text text-anchor="middle" x="3014" y="-7.4" font-family="Helvetica,sans-Serif" font-size="12.00" fill="white">String.UTF8View</text>
</a>
</g>
</g>
<!-- CustomStringConvertible&#45;&gt;String.UTF8View -->
<g id="edge30" class="edge"><title>CustomStringConvertible&#45;&gt;String.UTF8View</title>
<path fill="none" stroke="#cccccc" d="M1588.48,-241.108C1782.53,-238.291 2316.2,-227.796 2489,-196 2570.42,-181.019 2587.74,-164.983 2666,-138 2780.17,-98.6364 2914.27,-49.1581 2977.5,-25.6335"/>
<polygon fill="#cccccc" stroke="#cccccc" points="2978.88,-28.8561 2987.03,-22.0863 2976.43,-22.2961 2978.88,-28.8561"/>
</g>
<!-- String.UnicodeScalarView -->
<g id="node27" class="node"><title>String.UnicodeScalarView</title>
<g id="a_node27"><a xlink:href="/type/String.UnicodeScalarView/" xlink:title="String.UnicodeScalarView">
<polygon fill="#999999" stroke="#999999" points="3230.89,-22 3083.11,-22 3083.11,-0 3230.89,-0 3230.89,-22"/>
<text text-anchor="middle" x="3157" y="-7.4" font-family="Helvetica,sans-Serif" font-size="12.00" fill="white">String.UnicodeScalarView</text>
</a>
</g>
</g>
<!-- CustomStringConvertible&#45;&gt;String.UnicodeScalarView -->
<g id="edge28" class="edge"><title>CustomStringConvertible&#45;&gt;String.UnicodeScalarView</title>
<path fill="none" stroke="#cccccc" d="M1588.46,-241.091C1789.93,-238.163 2359.79,-227.276 2544,-196 2770.19,-157.596 3030.28,-61.4455 3122.45,-25.6819"/>
<polygon fill="#cccccc" stroke="#cccccc" points="3123.8,-28.912 3131.84,-22.0187 3121.26,-22.3901 3123.8,-28.912"/>
</g>
<!-- UInt -->
<g id="node28" class="node"><title>UInt</title>
<g id="a_node28"><a xlink:href="/type/UInt/" xlink:title="UInt">
<polygon fill="#999999" stroke="#999999" points="2185,-22 2131,-22 2131,-0 2185,-0 2185,-22"/>
<text text-anchor="middle" x="2158" y="-7.4" font-family="Helvetica,sans-Serif" font-size="12.00" fill="white">UInt</text>
</a>
</g>
</g>
<!-- CustomStringConvertible&#45;&gt;UInt -->
<g id="edge21" class="edge"><title>CustomStringConvertible&#45;&gt;UInt</title>
<path fill="none" stroke="#cccccc" d="M1588.42,-241.537C1750.53,-238.97 2139.42,-223.795 2232,-138 2258.42,-113.515 2263.59,-88.8553 2245,-58 2234.09,-39.8882 2213.39,-28.5375 2194.93,-21.6438"/>
<polygon fill="#cccccc" stroke="#cccccc" points="2195.85,-18.2605 2185.25,-18.3454 2193.59,-24.8859 2195.85,-18.2605"/>
</g>
<!-- UInt16 -->
<g id="node29" class="node"><title>UInt16</title>
<g id="a_node29"><a xlink:href="/type/UInt16/" xlink:title="UInt16">
<polygon fill="#999999" stroke="#999999" points="2427,-22 2373,-22 2373,-0 2427,-0 2427,-22"/>
<text text-anchor="middle" x="2400" y="-7.4" font-family="Helvetica,sans-Serif" font-size="12.00" fill="white">UInt16</text>
</a>
</g>
</g>
<!-- CustomStringConvertible&#45;&gt;UInt16 -->
<g id="edge22" class="edge"><title>CustomStringConvertible&#45;&gt;UInt16</title>
<path fill="none" stroke="#cccccc" d="M1588.46,-240.356C1729.87,-236.513 2040.56,-224.968 2143,-196 2247.86,-166.348 2280.66,-155.737 2359,-80 2373.33,-66.1429 2384.56,-46.2399 2391.61,-31.5448"/>
<polygon fill="#cccccc" stroke="#cccccc" points="2394.84,-32.8918 2395.81,-22.3416 2388.48,-29.9837 2394.84,-32.8918"/>
</g>
<!-- UInt32 -->
<g id="node30" class="node"><title>UInt32</title>
<g id="a_node30"><a xlink:href="/type/UInt32/" xlink:title="UInt32">
<polygon fill="#999999" stroke="#999999" points="1981,-22 1927,-22 1927,-0 1981,-0 1981,-22"/>
<text text-anchor="middle" x="1954" y="-7.4" font-family="Helvetica,sans-Serif" font-size="12.00" fill="white">UInt32</text>
</a>
</g>
</g>
<!-- CustomStringConvertible&#45;&gt;UInt32 -->
<g id="edge23" class="edge"><title>CustomStringConvertible&#45;&gt;UInt32</title>
<path fill="none" stroke="#cccccc" d="M1588.81,-234.411C1631.55,-228.006 1686.04,-216.464 1731,-196 1821.47,-154.828 1905.41,-67.2556 1938.79,-29.702"/>
<polygon fill="#cccccc" stroke="#cccccc" points="1941.51,-31.9065 1945.47,-22.0815 1936.25,-27.2894 1941.51,-31.9065"/>
</g>
<!-- UInt64 -->
<g id="node31" class="node"><title>UInt64</title>
<g id="a_node31"><a xlink:href="/type/UInt64/" xlink:title="UInt64">
<polygon fill="#999999" stroke="#999999" points="2515,-22 2461,-22 2461,-0 2515,-0 2515,-22"/>
<text text-anchor="middle" x="2488" y="-7.4" font-family="Helvetica,sans-Serif" font-size="12.00" fill="white">UInt64</text>
</a>
</g>
</g>
<!-- CustomStringConvertible&#45;&gt;UInt64 -->
<g id="edge24" class="edge"><title>CustomStringConvertible&#45;&gt;UInt64</title>
<path fill="none" stroke="#cccccc" d="M1588.6,-240.539C1738.45,-236.925 2080.52,-225.616 2193,-196 2304.48,-166.646 2333.4,-149.998 2425,-80 2444.03,-65.4598 2462.22,-44.8492 2474.12,-30.1372"/>
<polygon fill="#cccccc" stroke="#cccccc" points="2476.9,-32.2623 2480.36,-22.2471 2471.41,-27.9209 2476.9,-32.2623"/>
</g>
<!-- UInt8 -->
<g id="node32" class="node"><title>UInt8</title>
<g id="a_node32"><a xlink:href="/type/UInt8/" xlink:title="UInt8">
<polygon fill="#999999" stroke="#999999" points="1867,-22 1813,-22 1813,-0 1867,-0 1867,-22"/>
<text text-anchor="middle" x="1840" y="-7.4" font-family="Helvetica,sans-Serif" font-size="12.00" fill="white">UInt8</text>
</a>
</g>
</g>
<!-- CustomStringConvertible&#45;&gt;UInt8 -->
<g id="edge25" class="edge"><title>CustomStringConvertible&#45;&gt;UInt8</title>
<path fill="none" stroke="#cccccc" d="M1588.47,-232.787C1623.41,-226.132 1665.11,-214.866 1699,-196 1762.16,-160.838 1774.37,-141.096 1813,-80 1822.52,-64.9428 1829.71,-45.9742 1834.27,-31.8992"/>
<polygon fill="#cccccc" stroke="#cccccc" points="1837.65,-32.8226 1837.24,-22.2357 1830.96,-30.7681 1837.65,-32.8226"/>
</g>
<!-- UnicodeScalar -->
<g id="node33" class="node"><title>UnicodeScalar</title>
<g id="a_node33"><a xlink:href="/type/UnicodeScalar/" xlink:title="UnicodeScalar">
<polygon fill="#999999" stroke="#999999" points="3337.03,-22 3248.97,-22 3248.97,-0 3337.03,-0 3337.03,-22"/>
<text text-anchor="middle" x="3293" y="-7.4" font-family="Helvetica,sans-Serif" font-size="12.00" fill="white">UnicodeScalar</text>
</a>
</g>
</g>
<!-- CustomStringConvertible&#45;&gt;UnicodeScalar -->
<g id="edge26" class="edge"><title>CustomStringConvertible&#45;&gt;UnicodeScalar</title>
<path fill="none" stroke="#cccccc" d="M1588.5,-240.897C1798.76,-237.353 2412.64,-224.765 2611,-196 2715.76,-180.809 2739.68,-165.133 2842,-138 2991.4,-98.3827 3167.63,-48.1162 3248.45,-24.868"/>
<polygon fill="#cccccc" stroke="#cccccc" points="3249.64,-28.1662 3258.29,-22.0362 3247.71,-21.4395 3249.64,-28.1662"/>
</g>
<!-- _IntegerType -->
<g id="node35" class="node"><title>_IntegerType</title>
<g id="a_node35"><a xlink:href="/protocol/_IntegerType/" xlink:title="_IntegerType">
<path fill="#999999" stroke="#999999" d="M1682.71,-196C1682.71,-196 1617.29,-196 1617.29,-196 1613.63,-196 1609.96,-192.333 1609.96,-188.667 1609.96,-188.667 1609.96,-181.333 1609.96,-181.333 1609.96,-177.667 1613.63,-174 1617.29,-174 1617.29,-174 1682.71,-174 1682.71,-174 1686.37,-174 1690.04,-177.667 1690.04,-181.333 1690.04,-181.333 1690.04,-188.667 1690.04,-188.667 1690.04,-192.333 1686.37,-196 1682.71,-196"/>
<text text-anchor="middle" x="1650" y="-181.4" font-family="Helvetica,sans-Serif" font-size="12.00" fill="white">_IntegerType</text>
</a>
</g>
</g>
<!-- CustomStringConvertible&#45;&gt;_IntegerType -->
<g id="edge27" class="edge"><title>CustomStringConvertible&#45;&gt;_IntegerType</title>
<path fill="none" stroke="#cccccc" d="M1540.78,-231.988C1561.92,-223.085 1593.06,-209.973 1616.69,-200.026"/>
<polygon fill="#cccccc" stroke="#cccccc" points="1618.12,-203.22 1625.98,-196.114 1615.41,-196.769 1618.12,-203.22"/>
</g>
<!-- Int&#45;&gt;Bit -->
<g id="edge31" class="edge"><title>Int&#45;&gt;Bit</title>
<path fill="none" stroke="#cccccc" d="M1580.02,-11C1609.13,-11 1638.25,-11 1667.36,-11"/>
<polygon fill="#cccccc" stroke="#cccccc" points="1667.66,-14.5001 1677.66,-11 1667.66,-7.5001 1667.66,-14.5001"/>
</g>
<!-- IntegerType -->
<g id="node19" class="node"><title>IntegerType</title>
<g id="a_node19"><a xlink:href="/protocol/IntegerType/" xlink:title="IntegerType">
<path fill="#999999" stroke="#999999" d="M1717.2,-138C1717.2,-138 1658.8,-138 1658.8,-138 1655.13,-138 1651.47,-134.333 1651.47,-130.667 1651.47,-130.667 1651.47,-123.333 1651.47,-123.333 1651.47,-119.667 1655.13,-116 1658.8,-116 1658.8,-116 1717.2,-116 1717.2,-116 1720.87,-116 1724.53,-119.667 1724.53,-123.333 1724.53,-123.333 1724.53,-130.667 1724.53,-130.667 1724.53,-134.333 1720.87,-138 1717.2,-138"/>
<text text-anchor="middle" x="1688" y="-123.4" font-family="Helvetica,sans-Serif" font-size="12.00" fill="white">IntegerType</text>
</a>
</g>
</g>
<!-- IntegerType&#45;&gt;Int -->
<g id="edge45" class="edge"><title>IntegerType&#45;&gt;Int</title>
<path fill="none" stroke="#cccccc" d="M1687.01,-115.903C1685.07,-101.329 1679.5,-74.3555 1664,-58 1644.41,-37.3337 1614.16,-25.6281 1590.18,-19.2029"/>
<polygon fill="#cccccc" stroke="#cccccc" points="1590.88,-15.7718 1580.33,-16.7618 1589.2,-22.566 1590.88,-15.7718"/>
</g>
<!-- IntegerType&#45;&gt;Int16 -->
<g id="edge46" class="edge"><title>IntegerType&#45;&gt;Int16</title>
<path fill="none" stroke="#cccccc" d="M1651.44,-124.522C1552.24,-120.205 1279.65,-106.235 1194,-80 1155.91,-68.3318 1116.28,-44.1343 1092.38,-27.9794"/>
<polygon fill="#cccccc" stroke="#cccccc" points="1094.24,-25.0133 1084.02,-22.2246 1090.27,-30.7787 1094.24,-25.0133"/>
</g>
<!-- IntegerType&#45;&gt;Int32 -->
<g id="edge47" class="edge"><title>IntegerType&#45;&gt;Int32</title>
<path fill="none" stroke="#cccccc" d="M1651.45,-124.688C1558.06,-120.954 1312.74,-108.632 1237,-80 1206.89,-68.6176 1177.61,-45.2161 1159.69,-29.0709"/>
<polygon fill="#cccccc" stroke="#cccccc" points="1162.02,-26.454 1152.3,-22.2327 1157.26,-31.5926 1162.02,-26.454"/>
</g>
<!-- IntegerType&#45;&gt;Int64 -->
<g id="edge48" class="edge"><title>IntegerType&#45;&gt;Int64</title>
<path fill="none" stroke="#cccccc" d="M1651.51,-117.149C1563.96,-95.9137 1342.74,-42.2562 1254.84,-20.9349"/>
<polygon fill="#cccccc" stroke="#cccccc" points="1255.58,-17.5143 1245.04,-18.5584 1253.93,-24.317 1255.58,-17.5143"/>
</g>
<!-- IntegerType&#45;&gt;Int8 -->
<g id="edge49" class="edge"><title>IntegerType&#45;&gt;Int8</title>
<path fill="none" stroke="#cccccc" d="M1674.93,-115.913C1656.31,-101.825 1620.77,-75.9688 1588,-58 1565.35,-45.578 1538.65,-34.0974 1517.6,-25.7125"/>
<polygon fill="#cccccc" stroke="#cccccc" points="1518.64,-22.3628 1508.05,-21.9703 1516.08,-28.8796 1518.64,-22.3628"/>
</g>
<!-- SignedIntegerType -->
<g id="node23" class="node"><title>SignedIntegerType</title>
<g id="a_node23"><a xlink:href="/protocol/SignedIntegerType/" xlink:title="SignedIntegerType">
<path fill="#999999" stroke="#999999" d="M1348.73,-80C1348.73,-80 1253.27,-80 1253.27,-80 1249.61,-80 1245.94,-76.3333 1245.94,-72.6667 1245.94,-72.6667 1245.94,-65.3333 1245.94,-65.3333 1245.94,-61.6667 1249.61,-58 1253.27,-58 1253.27,-58 1348.73,-58 1348.73,-58 1352.39,-58 1356.06,-61.6667 1356.06,-65.3333 1356.06,-65.3333 1356.06,-72.6667 1356.06,-72.6667 1356.06,-76.3333 1352.39,-80 1348.73,-80"/>
<text text-anchor="middle" x="1301" y="-65.4" font-family="Helvetica,sans-Serif" font-size="12.00" fill="white">SignedIntegerType</text>
</a>
</g>
</g>
<!-- IntegerType&#45;&gt;SignedIntegerType -->
<g id="edge50" class="edge"><title>IntegerType&#45;&gt;SignedIntegerType</title>
<path fill="none" stroke="#cccccc" d="M1651.59,-120.732C1586.21,-111.27 1448.07,-91.2818 1366.06,-79.4148"/>
<polygon fill="#cccccc" stroke="#cccccc" points="1366.5,-75.942 1356.1,-77.9737 1365.5,-82.8698 1366.5,-75.942"/>
</g>
<!-- IntegerType&#45;&gt;UInt -->
<g id="edge51" class="edge"><title>IntegerType&#45;&gt;UInt</title>
<path fill="none" stroke="#cccccc" d="M1724.49,-117.149C1812.04,-95.9137 2033.26,-42.2562 2121.16,-20.9349"/>
<polygon fill="#cccccc" stroke="#cccccc" points="2122.07,-24.317 2130.96,-18.5584 2120.42,-17.5143 2122.07,-24.317"/>
</g>
<!-- IntegerType&#45;&gt;UInt16 -->
<g id="edge52" class="edge"><title>IntegerType&#45;&gt;UInt16</title>
<path fill="none" stroke="#cccccc" d="M1724.67,-126.555C1812.84,-127.1 2043.22,-123.824 2229,-80 2280.93,-67.7494 2337.89,-42.541 2371.2,-26.4962"/>
<polygon fill="#cccccc" stroke="#cccccc" points="2372.9,-29.5637 2380.35,-22.0339 2369.83,-23.2722 2372.9,-29.5637"/>
</g>
<!-- IntegerType&#45;&gt;UInt32 -->
<g id="edge53" class="edge"><title>IntegerType&#45;&gt;UInt32</title>
<path fill="none" stroke="#cccccc" d="M1711.61,-115.883C1759.22,-95.4751 1866.87,-49.3401 1921.25,-26.0345"/>
<polygon fill="#cccccc" stroke="#cccccc" points="1922.63,-29.2503 1930.45,-22.0941 1919.88,-22.8163 1922.63,-29.2503"/>
</g>
<!-- IntegerType&#45;&gt;UInt64 -->
<g id="edge54" class="edge"><title>IntegerType&#45;&gt;UInt64</title>
<path fill="none" stroke="#cccccc" d="M1724.59,-126.096C1817.73,-125.706 2070.97,-120.662 2277,-80 2340.84,-67.4016 2412.38,-41.7869 2453.61,-25.8421"/>
<polygon fill="#cccccc" stroke="#cccccc" points="2455.13,-29.0067 2463.17,-22.1079 2452.58,-22.4865 2455.13,-29.0067"/>
</g>
<!-- IntegerType&#45;&gt;UInt8 -->
<g id="edge55" class="edge"><title>IntegerType&#45;&gt;UInt8</title>
<path fill="none" stroke="#cccccc" d="M1695.46,-115.714C1706.25,-101.39 1727.4,-75.2553 1750,-58 1766.83,-45.153 1787.79,-34.1977 1805.24,-26.2046"/>
<polygon fill="#cccccc" stroke="#cccccc" points="1806.82,-29.3357 1814.53,-22.0756 1803.97,-22.9391 1806.82,-29.3357"/>
</g>
<!-- UnsignedIntegerType -->
<g id="node34" class="node"><title>UnsignedIntegerType</title>
<g id="a_node34"><a xlink:href="/protocol/UnsignedIntegerType/" xlink:title="UnsignedIntegerType">
<path fill="#999999" stroke="#999999" d="M2212.73,-80C2212.73,-80 2103.27,-80 2103.27,-80 2099.61,-80 2095.94,-76.3333 2095.94,-72.6667 2095.94,-72.6667 2095.94,-65.3333 2095.94,-65.3333 2095.94,-61.6667 2099.61,-58 2103.27,-58 2103.27,-58 2212.73,-58 2212.73,-58 2216.39,-58 2220.06,-61.6667 2220.06,-65.3333 2220.06,-65.3333 2220.06,-72.6667 2220.06,-72.6667 2220.06,-76.3333 2216.39,-80 2212.73,-80"/>
<text text-anchor="middle" x="2158" y="-65.4" font-family="Helvetica,sans-Serif" font-size="12.00" fill="white">UnsignedIntegerType</text>
</a>
</g>
</g>
<!-- IntegerType&#45;&gt;UnsignedIntegerType -->
<g id="edge56" class="edge"><title>IntegerType&#45;&gt;UnsignedIntegerType</title>
<path fill="none" stroke="#cccccc" d="M1724.49,-121.652C1801.85,-112.435 1983.57,-90.7826 2085.47,-78.6415"/>
<polygon fill="#cccccc" stroke="#cccccc" points="2086.17,-82.0838 2095.68,-77.4252 2085.34,-75.133 2086.17,-82.0838"/>
</g>
<!-- SignedIntegerType&#45;&gt;Int -->
<g id="edge57" class="edge"><title>SignedIntegerType&#45;&gt;Int</title>
<path fill="none" stroke="#cccccc" d="M1352.7,-57.9138C1394.36,-49.5777 1454.64,-37.0452 1516.06,-22.1277"/>
<polygon fill="#cccccc" stroke="#cccccc" points="1517.04,-25.4905 1525.92,-19.7133 1515.37,-18.6912 1517.04,-25.4905"/>
</g>
<!-- SignedIntegerType&#45;&gt;Int16 -->
<g id="edge58" class="edge"><title>SignedIntegerType&#45;&gt;Int16</title>
<path fill="none" stroke="#cccccc" d="M1256.35,-57.9911C1218.91,-49.4817 1163.81,-36.6854 1106.97,-22.1831"/>
<polygon fill="#cccccc" stroke="#cccccc" points="1107.65,-18.7436 1097.1,-19.6495 1105.91,-25.5241 1107.65,-18.7436"/>
</g>
<!-- SignedIntegerType&#45;&gt;Int32 -->
<g id="edge59" class="edge"><title>SignedIntegerType&#45;&gt;Int32</title>
<path fill="none" stroke="#cccccc" d="M1272.57,-57.9883C1246.37,-48.7577 1207.32,-35.0041 1178.75,-24.9426"/>
<polygon fill="#cccccc" stroke="#cccccc" points="1179.71,-21.572 1169.12,-21.5512 1177.39,-28.1745 1179.71,-21.572"/>
</g>
<!-- SignedIntegerType&#45;&gt;Int64 -->
<g id="edge60" class="edge"><title>SignedIntegerType&#45;&gt;Int64</title>
<path fill="none" stroke="#cccccc" d="M1286.16,-57.9883C1273.73,-49.5993 1255.76,-37.4743 1241.39,-27.7804"/>
<polygon fill="#cccccc" stroke="#cccccc" points="1243.24,-24.8055 1232.99,-22.1138 1239.32,-30.6083 1243.24,-24.8055"/>
</g>
<!-- SignedIntegerType&#45;&gt;Int8 -->
<g id="edge61" class="edge"><title>SignedIntegerType&#45;&gt;Int8</title>
<path fill="none" stroke="#cccccc" d="M1333.18,-57.9883C1364.34,-48.2947 1411.53,-33.6128 1444.17,-23.4573"/>
<polygon fill="#cccccc" stroke="#cccccc" points="1445.29,-26.7742 1453.8,-20.4615 1443.21,-20.0902 1445.29,-26.7742"/>
</g>
<!-- UnsignedIntegerType&#45;&gt;UInt -->
<g id="edge62" class="edge"><title>UnsignedIntegerType&#45;&gt;UInt</title>
<path fill="none" stroke="#cccccc" d="M2158,-57.9883C2158,-50.9098 2158,-41.1714 2158,-32.4779"/>
<polygon fill="#cccccc" stroke="#cccccc" points="2161.5,-32.3038 2158,-22.3039 2154.5,-32.3039 2161.5,-32.3038"/>
</g>
<!-- UnsignedIntegerType&#45;&gt;UInt16 -->
<g id="edge63" class="edge"><title>UnsignedIntegerType&#45;&gt;UInt16</title>
<path fill="none" stroke="#cccccc" d="M2201.26,-57.9883C2247.33,-47.3285 2319.46,-30.6365 2362.99,-20.565"/>
<polygon fill="#cccccc" stroke="#cccccc" points="2363.92,-23.9414 2372.87,-18.277 2362.34,-17.1216 2363.92,-23.9414"/>
</g>
<!-- UnsignedIntegerType&#45;&gt;UInt32 -->
<g id="edge64" class="edge"><title>UnsignedIntegerType&#45;&gt;UInt32</title>
<path fill="none" stroke="#cccccc" d="M2121.53,-57.9883C2084.65,-47.866 2027.97,-32.3046 1990.93,-22.1375"/>
<polygon fill="#cccccc" stroke="#cccccc" points="1991.61,-18.694 1981.04,-19.4219 1989.75,-25.4443 1991.61,-18.694"/>
</g>
<!-- UnsignedIntegerType&#45;&gt;UInt64 -->
<g id="edge65" class="edge"><title>UnsignedIntegerType&#45;&gt;UInt64</title>
<path fill="none" stroke="#cccccc" d="M2220.19,-58.1846C2276.58,-49.1708 2361.96,-35.2425 2436,-22 2440.78,-21.1447 2445.81,-20.2164 2450.77,-19.2817"/>
<polygon fill="#cccccc" stroke="#cccccc" points="2451.6,-22.6861 2460.77,-17.3754 2450.29,-15.8099 2451.6,-22.6861"/>
</g>
<!-- UnsignedIntegerType&#45;&gt;UInt8 -->
<g id="edge66" class="edge"><title>UnsignedIntegerType&#45;&gt;UInt8</title>
<path fill="none" stroke="#cccccc" d="M2101.15,-57.9883C2036.36,-46.58 1932.35,-28.2626 1877.17,-18.5457"/>
<polygon fill="#cccccc" stroke="#cccccc" points="1877.59,-15.0657 1867.13,-16.7783 1876.38,-21.9597 1877.59,-15.0657"/>
</g>
<!-- _IntegerType&#45;&gt;Int -->
<g id="edge32" class="edge"><title>_IntegerType&#45;&gt;Int</title>
<path fill="none" stroke="#cccccc" d="M1645.8,-173.85C1636.59,-151.977 1613.39,-99.0557 1588,-58 1582.05,-48.3717 1574.54,-38.2964 1568.01,-30.0378"/>
<polygon fill="#cccccc" stroke="#cccccc" points="1570.67,-27.761 1561.66,-22.184 1565.23,-32.1613 1570.67,-27.761"/>
</g>
<!-- _IntegerType&#45;&gt;Int16 -->
<g id="edge33" class="edge"><title>_IntegerType&#45;&gt;Int16</title>
<path fill="none" stroke="#cccccc" d="M1609.96,-183.261C1524.46,-181.044 1318.07,-172.277 1149,-138 1065.8,-121.131 1017.1,-148.542 967,-80 961.23,-72.1059 961.679,-66.2034 967,-58 974.725,-46.0894 1006.73,-32.9161 1033.05,-23.7303"/>
<polygon fill="#cccccc" stroke="#cccccc" points="1034.45,-26.9503 1042.79,-20.4159 1032.19,-20.3233 1034.45,-26.9503"/>
</g>
<!-- _IntegerType&#45;&gt;Int32 -->
<g id="edge34" class="edge"><title>_IntegerType&#45;&gt;Int32</title>
<path fill="none" stroke="#cccccc" d="M1609.8,-181.987C1516.51,-176.955 1287.7,-162.449 1215,-138 1167.75,-122.11 1143.49,-123.416 1119,-80 1110.16,-64.3291 1118.61,-44.706 1127.65,-30.5728"/>
<polygon fill="#cccccc" stroke="#cccccc" points="1130.66,-32.3794 1133.51,-22.1747 1124.92,-28.3755 1130.66,-32.3794"/>
</g>
<!-- _IntegerType&#45;&gt;Int64 -->
<g id="edge35" class="edge"><title>_IntegerType&#45;&gt;Int64</title>
<path fill="none" stroke="#cccccc" d="M1609.82,-182.279C1510.62,-177.655 1260.15,-163.548 1233,-138 1204.25,-110.946 1208.4,-60.0226 1213.48,-31.9068"/>
<polygon fill="#cccccc" stroke="#cccccc" points="1216.92,-32.5202 1215.47,-22.0251 1210.06,-31.134 1216.92,-32.5202"/>
</g>
<!-- _IntegerType&#45;&gt;Int8 -->
<g id="edge36" class="edge"><title>_IntegerType&#45;&gt;Int8</title>
<path fill="none" stroke="#cccccc" d="M1639.93,-173.756C1612.06,-145.382 1533.58,-65.5149 1498.42,-29.7296"/>
<polygon fill="#cccccc" stroke="#cccccc" points="1500.73,-27.0881 1491.23,-22.4081 1495.74,-31.9941 1500.73,-27.0881"/>
</g>
<!-- _IntegerType&#45;&gt;IntegerType -->
<g id="edge37" class="edge"><title>_IntegerType&#45;&gt;IntegerType</title>
<path fill="none" stroke="#cccccc" d="M1656.79,-173.988C1661.92,-166.438 1669.09,-155.861 1675.27,-146.754"/>
<polygon fill="#cccccc" stroke="#cccccc" points="1678.29,-148.544 1681.01,-138.304 1672.5,-144.613 1678.29,-148.544"/>
</g>
<!-- _IntegerType&#45;&gt;UInt -->
<g id="edge38" class="edge"><title>_IntegerType&#45;&gt;UInt</title>
<path fill="none" stroke="#cccccc" d="M1681.13,-173.996C1709.73,-164.769 1753.28,-150.629 1791,-138 1912.22,-97.4201 2055.38,-47.7695 2121.35,-24.7918"/>
<polygon fill="#cccccc" stroke="#cccccc" points="2122.59,-28.0646 2130.88,-21.4689 2120.29,-21.4545 2122.59,-28.0646"/>
</g>
<!-- _IntegerType&#45;&gt;UInt16 -->
<g id="edge39" class="edge"><title>_IntegerType&#45;&gt;UInt16</title>
<path fill="none" stroke="#cccccc" d="M1690.18,-183.115C1804.6,-180.234 2130.45,-169.421 2232,-138 2281.45,-122.699 2292.01,-111.616 2333,-80 2352.53,-64.9379 2371.99,-44.4122 2384.87,-29.8627"/>
<polygon fill="#cccccc" stroke="#cccccc" points="2387.72,-31.9167 2391.64,-22.0733 2382.43,-27.3244 2387.72,-31.9167"/>
</g>
<!-- _IntegerType&#45;&gt;UInt32 -->
<g id="edge40" class="edge"><title>_IntegerType&#45;&gt;UInt32</title>
<path fill="none" stroke="#cccccc" d="M1677.48,-173.935C1699.9,-165.366 1732.13,-152.213 1759,-138 1824.69,-103.255 1896.91,-53.2002 1932.18,-27.911"/>
<polygon fill="#cccccc" stroke="#cccccc" points="1934.25,-30.7269 1940.32,-22.0395 1930.16,-25.0488 1934.25,-30.7269"/>
</g>
<!-- _IntegerType&#45;&gt;UInt64 -->
<g id="edge41" class="edge"><title>_IntegerType&#45;&gt;UInt64</title>
<path fill="none" stroke="#cccccc" d="M1690.33,-183.285C1810.15,-180.806 2162.45,-170.845 2272,-138 2350.54,-114.454 2430.75,-57.0741 2467.43,-28.5957"/>
<polygon fill="#cccccc" stroke="#cccccc" points="2469.69,-31.2697 2475.38,-22.3361 2465.36,-25.7679 2469.69,-31.2697"/>
</g>
<!-- _IntegerType&#45;&gt;UInt8 -->
<g id="edge42" class="edge"><title>_IntegerType&#45;&gt;UInt8</title>
<path fill="none" stroke="#cccccc" d="M1673.22,-173.924C1690.68,-165.711 1714.65,-153.035 1733,-138 1772.72,-105.46 1809.18,-56.8637 1827.54,-30.5453"/>
<polygon fill="#cccccc" stroke="#cccccc" points="1830.47,-32.4521 1833.25,-22.2281 1824.71,-28.4879 1830.47,-32.4521"/>
</g>
<!-- _SignedIntegerType -->
<g id="node36" class="node"><title>_SignedIntegerType</title>
<g id="a_node36"><a xlink:href="/protocol/_SignedIntegerType/" xlink:title="_SignedIntegerType">
<path fill="#999999" stroke="#999999" d="M1352.23,-138C1352.23,-138 1249.77,-138 1249.77,-138 1246.1,-138 1242.44,-134.333 1242.44,-130.667 1242.44,-130.667 1242.44,-123.333 1242.44,-123.333 1242.44,-119.667 1246.1,-116 1249.77,-116 1249.77,-116 1352.23,-116 1352.23,-116 1355.9,-116 1359.56,-119.667 1359.56,-123.333 1359.56,-123.333 1359.56,-130.667 1359.56,-130.667 1359.56,-134.333 1355.9,-138 1352.23,-138"/>
<text text-anchor="middle" x="1301" y="-123.4" font-family="Helvetica,sans-Serif" font-size="12.00" fill="white">_SignedIntegerType</text>
</a>
</g>
</g>
<!-- _IntegerType&#45;&gt;_SignedIntegerType -->
<g id="edge43" class="edge"><title>_IntegerType&#45;&gt;_SignedIntegerType</title>
<path fill="none" stroke="#cccccc" d="M1609.97,-177.576C1551.35,-168.17 1441.36,-150.522 1369.67,-139.019"/>
<polygon fill="#cccccc" stroke="#cccccc" points="1369.81,-135.496 1359.38,-137.368 1368.7,-142.408 1369.81,-135.496"/>
</g>
<!-- _UnsignedIntegerType -->
<g id="node37" class="node"><title>_UnsignedIntegerType</title>
<g id="a_node37"><a xlink:href="/protocol/_UnsignedIntegerType/" xlink:title="_UnsignedIntegerType">
<path fill="#999999" stroke="#999999" d="M2215.73,-138C2215.73,-138 2100.27,-138 2100.27,-138 2096.6,-138 2092.93,-134.333 2092.93,-130.667 2092.93,-130.667 2092.93,-123.333 2092.93,-123.333 2092.93,-119.667 2096.6,-116 2100.27,-116 2100.27,-116 2215.73,-116 2215.73,-116 2219.4,-116 2223.07,-119.667 2223.07,-123.333 2223.07,-123.333 2223.07,-130.667 2223.07,-130.667 2223.07,-134.333 2219.4,-138 2215.73,-138"/>
<text text-anchor="middle" x="2158" y="-123.4" font-family="Helvetica,sans-Serif" font-size="12.00" fill="white">_UnsignedIntegerType</text>
</a>
</g>
</g>
<!-- _IntegerType&#45;&gt;_UnsignedIntegerType -->
<g id="edge44" class="edge"><title>_IntegerType&#45;&gt;_UnsignedIntegerType</title>
<path fill="none" stroke="#cccccc" d="M1690.29,-179.559C1775.17,-170.202 1973.55,-148.333 2082.7,-136.301"/>
<polygon fill="#cccccc" stroke="#cccccc" points="2083.1,-139.778 2092.66,-135.203 2082.33,-132.82 2083.1,-139.778"/>
</g>
<!-- _SignedIntegerType&#45;&gt;Int -->
<g id="edge67" class="edge"><title>_SignedIntegerType&#45;&gt;Int</title>
<path fill="none" stroke="#cccccc" d="M1324.17,-115.863C1345.28,-106.604 1377.28,-92.4965 1405,-80 1445.71,-61.6475 1492.51,-40.0628 1522.39,-26.2163"/>
<polygon fill="#cccccc" stroke="#cccccc" points="1523.87,-29.388 1531.47,-22.0065 1520.93,-23.0373 1523.87,-29.388"/>
</g>
<!-- _SignedIntegerType&#45;&gt;Int16 -->
<g id="edge68" class="edge"><title>_SignedIntegerType&#45;&gt;Int16</title>
<path fill="none" stroke="#cccccc" d="M1242.37,-126.495C1158.28,-125.811 1009.82,-118.939 976,-80 954.452,-55.187 998.554,-34.3807 1033.38,-22.5531"/>
<polygon fill="#cccccc" stroke="#cccccc" points="1034.46,-25.8804 1042.89,-19.4593 1032.3,-19.2236 1034.46,-25.8804"/>
</g>
<!-- _SignedIntegerType&#45;&gt;Int32 -->
<g id="edge69" class="edge"><title>_SignedIntegerType&#45;&gt;Int32</title>
<path fill="none" stroke="#cccccc" d="M1242.54,-118.156C1198.03,-110.842 1142.07,-98.2937 1128,-80 1117.37,-66.1805 1123.22,-46.2726 1130.32,-31.5661"/>
<polygon fill="#cccccc" stroke="#cccccc" points="1133.62,-32.823 1135.25,-22.3545 1127.45,-29.5209 1133.62,-32.823"/>
</g>
<!-- _SignedIntegerType&#45;&gt;Int64 -->
<g id="edge70" class="edge"><title>_SignedIntegerType&#45;&gt;Int64</title>
<path fill="none" stroke="#cccccc" d="M1280.25,-115.896C1266.09,-107.987 1247.97,-95.7014 1237,-80 1227.14,-65.8889 1222.38,-46.793 1220.09,-32.4297"/>
<polygon fill="#cccccc" stroke="#cccccc" points="1223.51,-31.5702 1218.74,-22.1108 1216.57,-32.4813 1223.51,-31.5702"/>
</g>
<!-- _SignedIntegerType&#45;&gt;Int8 -->
<g id="edge71" class="edge"><title>_SignedIntegerType&#45;&gt;Int8</title>
<path fill="none" stroke="#cccccc" d="M1316.97,-115.883C1348.46,-95.9399 1418.75,-51.4281 1456.27,-27.6618"/>
<polygon fill="#cccccc" stroke="#cccccc" points="1458.49,-30.4015 1465.06,-22.0941 1454.74,-24.4878 1458.49,-30.4015"/>
</g>
<!-- _SignedIntegerType&#45;&gt;SignedIntegerType -->
<g id="edge72" class="edge"><title>_SignedIntegerType&#45;&gt;SignedIntegerType</title>
<path fill="none" stroke="#cccccc" d="M1301,-115.988C1301,-108.91 1301,-99.1714 1301,-90.4779"/>
<polygon fill="#cccccc" stroke="#cccccc" points="1304.5,-90.3038 1301,-80.3039 1297.5,-90.3039 1304.5,-90.3038"/>
</g>
<!-- _UnsignedIntegerType&#45;&gt;UInt -->
<g id="edge73" class="edge"><title>_UnsignedIntegerType&#45;&gt;UInt</title>
<path fill="none" stroke="#cccccc" d="M2183.17,-115.925C2208.66,-104.094 2242.53,-82.8919 2229,-58 2221.48,-44.1607 2207.8,-33.8436 2194.44,-26.5264"/>
<polygon fill="#cccccc" stroke="#cccccc" points="2195.82,-23.3067 2185.32,-21.9335 2192.68,-29.5583 2195.82,-23.3067"/>
</g>
<!-- _UnsignedIntegerType&#45;&gt;UInt16 -->
<g id="edge74" class="edge"><title>_UnsignedIntegerType&#45;&gt;UInt16</title>
<path fill="none" stroke="#cccccc" d="M2199.29,-115.966C2228.28,-108.125 2267.53,-95.894 2300,-80 2329.43,-65.5915 2360.15,-43.4726 2379.65,-28.4028"/>
<polygon fill="#cccccc" stroke="#cccccc" points="2382.06,-30.9556 2387.77,-22.0279 2377.74,-25.4492 2382.06,-30.9556"/>
</g>
<!-- _UnsignedIntegerType&#45;&gt;UInt32 -->
<g id="edge75" class="edge"><title>_UnsignedIntegerType&#45;&gt;UInt32</title>
<path fill="none" stroke="#cccccc" d="M2141.96,-115.979C2120.07,-102.409 2079.49,-77.6289 2044,-58 2024.18,-47.0371 2001.46,-35.4334 1983.81,-26.6229"/>
<polygon fill="#cccccc" stroke="#cccccc" points="1985.09,-23.3502 1974.57,-22.0374 1981.97,-29.6198 1985.09,-23.3502"/>
</g>
<!-- _UnsignedIntegerType&#45;&gt;UInt64 -->
<g id="edge76" class="edge"><title>_UnsignedIntegerType&#45;&gt;UInt64</title>
<path fill="none" stroke="#cccccc" d="M2204.28,-115.922C2239.9,-107.665 2290.13,-94.9339 2333,-80 2377.82,-64.3851 2427.79,-41.4047 2458.56,-26.5692"/>
<polygon fill="#cccccc" stroke="#cccccc" points="2460.38,-29.5757 2467.85,-22.0583 2457.32,-23.2792 2460.38,-29.5757"/>
</g>
<!-- _UnsignedIntegerType&#45;&gt;UInt8 -->
<g id="edge77" class="edge"><title>_UnsignedIntegerType&#45;&gt;UInt8</title>
<path fill="none" stroke="#cccccc" d="M2130.06,-115.983C2072.66,-95.4055 1941.46,-48.3728 1877.05,-25.2838"/>
<polygon fill="#cccccc" stroke="#cccccc" points="1877.91,-21.8714 1867.31,-21.7914 1875.55,-28.4608 1877.91,-21.8714"/>
</g>
<!-- _UnsignedIntegerType&#45;&gt;UnsignedIntegerType -->
<g id="edge78" class="edge"><title>_UnsignedIntegerType&#45;&gt;UnsignedIntegerType</title>
<path fill="none" stroke="#cccccc" d="M2158,-115.988C2158,-108.91 2158,-99.1714 2158,-90.4779"/>
<polygon fill="#cccccc" stroke="#cccccc" points="2161.5,-90.3038 2158,-80.3039 2154.5,-90.3039 2161.5,-90.3038"/>
</g>
</g>
</svg>
