<?xml version="1.0" encoding="UTF-8" standalone="no"?>
<!DOCTYPE svg PUBLIC "-//W3C//DTD SVG 1.1//EN"
 "http://www.w3.org/Graphics/SVG/1.1/DTD/svg11.dtd">
<!-- Generated by graphviz version 2.36.0 (20140111.2315)
 -->
<!-- Title: CustomStringConvertible &#45; Type Hierarchy &#45; SwiftDoc.org Pages: 1 -->
<svg width="3367pt" height="369pt"
 viewBox="0.00 0.00 3367.40 369.20" xmlns="http://www.w3.org/2000/svg" xmlns:xlink="http://www.w3.org/1999/xlink">
<g id="graph0" class="graph" transform="scale(1 1) rotate(0) translate(7.2 311.6)">
<g transform="translate(0 -311.6)">
<g>
    <path fill="#666666" d="M13.846,10.832c-0.336-0.464-0.792-0.844-1.368-1.14s-1.224-0.444-1.944-0.444
        c-0.384,0-0.772,0.052-1.164,0.156C8.977,9.509,8.622,9.677,8.301,9.908c-0.32,0.232-0.58,0.52-0.78,0.864
        c-0.2,0.344-0.3,0.756-0.3,1.236c0,0.464,0.092,0.852,0.276,1.164c0.184,0.312,0.432,0.576,0.744,0.792s0.68,0.4,1.104,0.552
        c0.423,0.152,0.876,0.309,1.356,0.468c0.576,0.177,1.16,0.376,1.752,0.601c0.592,0.224,1.128,0.52,1.608,0.888
        s0.872,0.828,1.176,1.38s0.456,1.252,0.456,2.101c0,0.88-0.164,1.644-0.492,2.292c-0.328,0.647-0.765,1.184-1.308,1.607
        c-0.544,0.424-1.172,0.74-1.884,0.948s-1.444,0.312-2.196,0.312c-1.072,0-2.108-0.208-3.108-0.624
        c-1-0.415-1.828-1.031-2.484-1.848l1.848-1.56c0.4,0.592,0.936,1.071,1.608,1.439c0.672,0.368,1.399,0.552,2.184,0.552
        c0.4,0,0.8-0.056,1.2-0.168c0.4-0.111,0.764-0.288,1.092-0.527c0.328-0.24,0.596-0.54,0.804-0.9
        c0.208-0.36,0.312-0.796,0.312-1.308s-0.108-0.94-0.324-1.284c-0.216-0.344-0.508-0.636-0.876-0.876s-0.796-0.444-1.284-0.612
        c-0.488-0.168-1.004-0.34-1.548-0.516c-0.544-0.16-1.08-0.356-1.608-0.588c-0.528-0.232-1-0.528-1.416-0.889
        c-0.416-0.359-0.752-0.804-1.008-1.332c-0.256-0.527-0.384-1.184-0.384-1.968c0-0.848,0.172-1.576,0.516-2.184
        c0.344-0.608,0.792-1.112,1.344-1.512c0.552-0.4,1.176-0.692,1.872-0.876c0.696-0.184,1.396-0.276,2.1-0.276
        c0.992,0,1.92,0.176,2.784,0.528c0.864,0.352,1.56,0.824,2.088,1.416L13.846,10.832z"/>
    <path fill="#666666" d="M18.813,13.304l2.568,8.688h0.048l2.712-8.688h2.376l2.76,8.688h0.048l2.568-8.688h2.376L30.501,24.68
        h-2.352l-2.808-8.544h-0.048l-2.784,8.544h-2.352l-3.792-11.376H18.813z"/>
    <path fill="#666666" d="M38.685,9.2c0,0.416-0.147,0.76-0.44,1.032c-0.294,0.272-0.647,0.408-1.06,0.408s-0.762-0.14-1.047-0.42
        c-0.286-0.28-0.429-0.62-0.429-1.02c0-0.416,0.143-0.764,0.429-1.044c0.286-0.28,0.635-0.42,1.047-0.42s0.766,0.14,1.06,0.42
        C38.538,8.437,38.685,8.784,38.685,9.2z M38.325,24.68h-2.256V13.304h2.256V24.68z"/>
    <path fill="#666666" d="M47.613,15.152h-2.64v9.528h-2.256v-9.528h-2.256v-1.848h2.256v-2.376c0-0.672,0.076-1.292,0.228-1.86
        c0.152-0.568,0.4-1.06,0.744-1.476c0.344-0.416,0.784-0.744,1.32-0.984c0.536-0.24,1.188-0.36,1.956-0.36
        c0.544,0,1.016,0.056,1.416,0.168l-0.264,1.944c-0.176-0.048-0.352-0.088-0.528-0.12c-0.176-0.032-0.376-0.048-0.6-0.048
        c-0.432,0-0.78,0.076-1.044,0.228c-0.264,0.152-0.468,0.356-0.612,0.612s-0.24,0.548-0.288,0.876
        c-0.048,0.328-0.072,0.668-0.072,1.02v2.376h2.64V15.152z"/>
    <path fill="#666666" d="M54.909,15.152h-3.024v5.91c0,0.687,0.128,1.177,0.384,1.472c0.256,0.295,0.664,0.442,1.224,0.442
        c0.208,0,0.432-0.021,0.672-0.065c0.24-0.044,0.456-0.11,0.648-0.198l0.072,1.848c-0.272,0.096-0.572,0.172-0.9,0.229
        c-0.328,0.056-0.668,0.084-1.02,0.084c-1.072,0-1.892-0.296-2.46-0.889c-0.568-0.592-0.852-1.479-0.852-2.664v-6.168h-2.184
        v-1.848h2.184V10.04h2.232v3.264h3.024V15.152z"/>
    <path fill="#666666" d="M57.356,7.688h5.832c1.088,0,2.176,0.16,3.264,0.48c1.088,0.32,2.072,0.824,2.952,1.512
        s1.592,1.568,2.136,2.64c0.544,1.072,0.816,2.36,0.816,3.864c0,1.456-0.272,2.716-0.816,3.78s-1.256,1.943-2.136,2.64
        s-1.864,1.216-2.952,1.561c-1.088,0.344-2.176,0.516-3.264,0.516h-5.832V7.688z M59.732,22.593h2.976
        c1.024,0,1.972-0.145,2.844-0.432c0.872-0.288,1.624-0.704,2.256-1.248c0.632-0.544,1.124-1.216,1.476-2.017
        c0.352-0.8,0.528-1.704,0.528-2.712c0-1.056-0.176-1.983-0.528-2.784c-0.353-0.8-0.844-1.468-1.476-2.004
        c-0.632-0.536-1.384-0.944-2.256-1.224s-1.82-0.42-2.844-0.42h-2.976V22.593z"/>
    <path fill="#666666" d="M86.06,18.969c0,0.88-0.156,1.688-0.468,2.424c-0.312,0.736-0.744,1.372-1.296,1.908
        c-0.552,0.536-1.204,0.952-1.956,1.248c-0.752,0.296-1.56,0.443-2.424,0.443c-0.864,0-1.672-0.147-2.424-0.443
        c-0.752-0.296-1.4-0.712-1.944-1.248c-0.544-0.536-0.972-1.172-1.284-1.908c-0.312-0.735-0.468-1.544-0.468-2.424
        s0.156-1.684,0.468-2.412c0.312-0.728,0.74-1.356,1.284-1.884c0.543-0.528,1.191-0.939,1.944-1.236
        c0.752-0.296,1.56-0.444,2.424-0.444c0.864,0,1.672,0.148,2.424,0.444c0.752,0.297,1.404,0.708,1.956,1.236
        c0.552,0.527,0.984,1.156,1.296,1.884C85.904,17.285,86.06,18.089,86.06,18.969z M83.708,18.98c0-0.542-0.084-1.061-0.252-1.556
        c-0.169-0.494-0.414-0.929-0.734-1.304s-0.718-0.674-1.192-0.897s-1.015-0.335-1.625-0.335c-0.61,0-1.152,0.111-1.625,0.335
        c-0.474,0.224-0.871,0.522-1.191,0.897c-0.321,0.375-0.566,0.81-0.734,1.304C76.184,17.92,76.1,18.438,76.1,18.98
        c0,0.543,0.084,1.062,0.253,1.556c0.168,0.495,0.413,0.934,0.734,1.316c0.321,0.383,0.718,0.686,1.191,0.909
        c0.473,0.224,1.015,0.335,1.625,0.335c0.61,0,1.151-0.111,1.625-0.335s0.871-0.526,1.192-0.909s0.565-0.821,0.734-1.316
        C83.624,20.042,83.708,19.523,83.708,18.98z"/>
    <path fill="#666666" d="M96.428,16.184c-0.24-0.368-0.6-0.676-1.08-0.924s-0.992-0.372-1.536-0.372
        c-0.592,0-1.116,0.112-1.572,0.336c-0.456,0.225-0.844,0.524-1.164,0.9c-0.32,0.376-0.564,0.812-0.732,1.308
        s-0.252,1.017-0.252,1.56c0,0.545,0.084,1.064,0.252,1.561s0.412,0.933,0.732,1.308c0.32,0.376,0.712,0.677,1.176,0.9
        c0.464,0.225,0.992,0.336,1.584,0.336c0.576,0,1.1-0.111,1.572-0.336c0.472-0.224,0.86-0.528,1.164-0.912l1.512,1.368
        c-0.48,0.561-1.08,0.996-1.8,1.308c-0.72,0.312-1.536,0.468-2.448,0.468c-0.88,0-1.692-0.144-2.436-0.432
        c-0.744-0.288-1.388-0.691-1.932-1.212c-0.544-0.52-0.972-1.147-1.284-1.884s-0.468-1.561-0.468-2.473
        c0-0.896,0.152-1.711,0.456-2.447c0.304-0.736,0.728-1.368,1.272-1.896c0.543-0.527,1.188-0.936,1.932-1.224
        c0.744-0.288,1.548-0.433,2.412-0.433c0.8,0,1.596,0.16,2.388,0.48s1.419,0.784,1.884,1.392L96.428,16.184z"/>
    <path fill="#666666" d="M103.1,23.24c0,0.417-0.152,0.784-0.456,1.104c-0.304,0.32-0.688,0.479-1.152,0.479
        c-0.448,0-0.828-0.155-1.14-0.468c-0.312-0.312-0.468-0.676-0.468-1.092c0-0.432,0.152-0.804,0.456-1.116
        c0.304-0.312,0.688-0.468,1.152-0.468c0.464,0,0.848,0.152,1.152,0.456C102.947,22.44,103.1,22.808,103.1,23.24z"/>
    <path fill="#666666" d="M116.635,18.969c0,0.88-0.156,1.688-0.468,2.424c-0.312,0.736-0.744,1.372-1.296,1.908
        c-0.552,0.536-1.204,0.952-1.956,1.248c-0.752,0.296-1.56,0.443-2.424,0.443c-0.864,0-1.672-0.147-2.424-0.443
        c-0.752-0.296-1.4-0.712-1.944-1.248c-0.544-0.536-0.972-1.172-1.284-1.908c-0.312-0.735-0.468-1.544-0.468-2.424
        s0.156-1.684,0.468-2.412c0.312-0.728,0.74-1.356,1.284-1.884c0.543-0.528,1.191-0.939,1.944-1.236
        c0.752-0.296,1.56-0.444,2.424-0.444c0.864,0,1.672,0.148,2.424,0.444c0.752,0.297,1.404,0.708,1.956,1.236
        c0.552,0.527,0.984,1.156,1.296,1.884C116.479,17.285,116.635,18.089,116.635,18.969z M114.283,18.98
        c0-0.542-0.084-1.061-0.252-1.556c-0.169-0.494-0.414-0.929-0.734-1.304s-0.718-0.674-1.192-0.897s-1.015-0.335-1.625-0.335
        c-0.61,0-1.152,0.111-1.625,0.335c-0.474,0.224-0.871,0.522-1.191,0.897c-0.321,0.375-0.566,0.81-0.734,1.304
        c-0.169,0.495-0.253,1.014-0.253,1.556c0,0.543,0.084,1.062,0.253,1.556c0.168,0.495,0.413,0.934,0.734,1.316
        c0.321,0.383,0.718,0.686,1.191,0.909c0.473,0.224,1.015,0.335,1.625,0.335c0.61,0,1.151-0.111,1.625-0.335
        s0.871-0.526,1.192-0.909s0.565-0.821,0.734-1.316C114.199,20.042,114.283,19.523,114.283,18.98z"/>
    <path fill="#666666" d="M119.251,14.577c-0.016-0.48-0.04-0.904-0.072-1.272h2.136c0.032,0.288,0.056,0.62,0.072,0.996
        c0.016,0.376,0.024,0.684,0.024,0.924h0.072c0.32-0.672,0.788-1.212,1.404-1.62c0.616-0.408,1.308-0.612,2.076-0.612
        c0.352,0,0.648,0.033,0.888,0.097l-0.096,2.088c-0.32-0.08-0.664-0.12-1.032-0.12c-0.544,0-1.016,0.101-1.416,0.3
        c-0.4,0.2-0.732,0.468-0.996,0.805c-0.264,0.336-0.46,0.724-0.588,1.163c-0.128,0.44-0.192,0.9-0.192,1.381v5.976h-2.256v-8.928
        C119.275,15.449,119.267,15.056,119.251,14.577z"/>
    <path fill="#666666" d="M128.419,26.625c0.496,0.56,1.116,1.008,1.86,1.344c0.744,0.336,1.508,0.504,2.292,0.504
        c0.752,0,1.384-0.108,1.896-0.324s0.924-0.512,1.236-0.888s0.536-0.82,0.672-1.332c0.136-0.513,0.204-1.064,0.204-1.656v-1.464
        h-0.048c-0.416,0.641-0.984,1.128-1.704,1.464c-0.72,0.336-1.488,0.504-2.304,0.504c-0.864,0-1.652-0.151-2.364-0.456
        c-0.712-0.304-1.316-0.72-1.812-1.248c-0.496-0.527-0.88-1.147-1.152-1.859s-0.408-1.477-0.408-2.292
        c0-0.816,0.136-1.584,0.408-2.305c0.272-0.72,0.656-1.348,1.152-1.884c0.496-0.535,1.096-0.96,1.8-1.271
        c0.704-0.312,1.488-0.469,2.352-0.469c0.816,0,1.596,0.177,2.34,0.528c0.744,0.353,1.332,0.888,1.764,1.608h0.048v-1.824h2.184
        v10.8c0,0.832-0.104,1.628-0.312,2.388c-0.208,0.76-0.56,1.433-1.056,2.017s-1.144,1.052-1.944,1.404
        c-0.8,0.352-1.792,0.527-2.976,0.527c-0.992,0-1.988-0.18-2.988-0.54c-1-0.359-1.86-0.868-2.58-1.523L128.419,26.625z
         M129.091,18.873c0,0.527,0.084,1.031,0.253,1.512c0.168,0.479,0.417,0.904,0.746,1.271c0.329,0.369,0.726,0.664,1.192,0.889
        c0.465,0.224,0.995,0.336,1.589,0.336c0.577,0,1.107-0.104,1.589-0.312c0.481-0.207,0.891-0.491,1.228-0.852
        s0.598-0.784,0.782-1.272c0.185-0.487,0.277-1.012,0.277-1.571c0-0.544-0.093-1.057-0.277-1.536
        c-0.185-0.48-0.449-0.904-0.794-1.272c-0.345-0.367-0.755-0.66-1.228-0.876c-0.474-0.216-1-0.324-1.577-0.324
        c-0.594,0-1.124,0.108-1.589,0.324c-0.466,0.216-0.863,0.504-1.192,0.864s-0.578,0.784-0.746,1.271
        C129.175,17.812,129.091,18.329,129.091,18.873z"/>
</g>
<g><a xlink:href="/" pointer-events="all" target="_top"><polygon fill="none" points="0,0 145,0 145,35 0,35 0,0"/></a></g>

</g>


<!-- Array -->
<g id="node1" class="node">
<g id="a_node1"><a xlink:href="/swift-2/type/Array/" target="_top">
<polygon fill="#999999" stroke="#999999" points="54,-22 0,-22 0,-0 54,-0 54,-22"/>
<text text-anchor="middle" x="27" y="-7.4" font-family="Helvetica,sans-Serif" font-size="12.00" fill="white">Array</text>
</a>
</g>
</g>
<!-- ArraySlice -->
<g id="node2" class="node">
<g id="a_node2"><a xlink:href="/swift-2/type/ArraySlice/" target="_top">
<polygon fill="#999999" stroke="#999999" points="136.011,-22 71.9886,-22 71.9886,-0 136.011,-0 136.011,-22"/>
<text text-anchor="middle" x="104" y="-7.4" font-family="Helvetica,sans-Serif" font-size="12.00" fill="white">ArraySlice</text>
</a>
</g>
</g>
<!-- Bit -->
<g id="node3" class="node">
<g id="a_node3"><a xlink:href="/swift-2/type/Bit/" target="_top">
<polygon fill="#999999" stroke="#999999" points="1241,-22 1187,-22 1187,-0 1241,-0 1241,-22"/>
<text text-anchor="middle" x="1214" y="-7.4" font-family="Helvetica,sans-Serif" font-size="12.00" fill="white">Bit</text>
</a>
</g>
</g>
<!-- Bool -->
<g id="node4" class="node">
<g id="a_node4"><a xlink:href="/swift-2/type/Bool/" target="_top">
<polygon fill="#999999" stroke="#999999" points="208,-22 154,-22 154,-0 208,-0 208,-22"/>
<text text-anchor="middle" x="181" y="-7.4" font-family="Helvetica,sans-Serif" font-size="12.00" fill="white">Bool</text>
</a>
</g>
</g>
<!-- ClosedInterval -->
<g id="node5" class="node">
<g id="a_node5"><a xlink:href="/swift-2/type/ClosedInterval/" target="_top">
<polygon fill="#999999" stroke="#999999" points="312.03,-22 225.97,-22 225.97,-0 312.03,-0 312.03,-22"/>
<text text-anchor="middle" x="269" y="-7.4" font-family="Helvetica,sans-Serif" font-size="12.00" fill="white">ClosedInterval</text>
</a>
</g>
</g>
<!-- ContiguousArray -->
<g id="node6" class="node">
<g id="a_node6"><a xlink:href="/swift-2/type/ContiguousArray/" target="_top">
<polygon fill="#999999" stroke="#999999" points="429.534,-22 330.466,-22 330.466,-0 429.534,-0 429.534,-22"/>
<text text-anchor="middle" x="380" y="-7.4" font-family="Helvetica,sans-Serif" font-size="12.00" fill="white">ContiguousArray</text>
</a>
</g>
</g>
<!-- CustomStringConvertible -->
<g id="node7" class="node">
<g id="a_node7"><a xlink:href="/swift-2/protocol/CustomStringConvertible/" target="_top">
<path fill="#ee543d" stroke="#ee543d" d="M1632.21,-254C1632.21,-254 1503.79,-254 1503.79,-254 1500.13,-254 1496.46,-250.333 1496.46,-246.667 1496.46,-246.667 1496.46,-239.333 1496.46,-239.333 1496.46,-235.667 1500.13,-232 1503.79,-232 1503.79,-232 1632.21,-232 1632.21,-232 1635.87,-232 1639.54,-235.667 1639.54,-239.333 1639.54,-239.333 1639.54,-246.667 1639.54,-246.667 1639.54,-250.333 1635.87,-254 1632.21,-254"/>
<text text-anchor="middle" x="1568" y="-239.4" font-family="Helvetica,sans-Serif" font-size="12.00" fill="white">CustomStringConvertible</text>
</a>
</g>
</g>
<!-- CustomStringConvertible&#45;&gt;Array -->
<g id="edge1" class="edge">
<path fill="none" stroke="#cccccc" d="M1496.63,-241.626C1289.01,-240.114 687.8,-232.607 495,-196 417.395,-181.265 400.787,-166.198 327,-138 228.187,-100.238 113.417,-50.3034 58.9035,-26.2084"/>
<polygon fill="#cccccc" stroke="#cccccc" points="60.3133,-23.005 49.7525,-22.156 57.4789,-29.4055 60.3133,-23.005"/>
</g>
<!-- CustomStringConvertible&#45;&gt;ArraySlice -->
<g id="edge2" class="edge">
<path fill="none" stroke="#cccccc" d="M1496.39,-241.637C1300,-240.167 755.895,-232.796 581,-196 403.11,-158.574 204.556,-63.2655 132.257,-26.6424"/>
<polygon fill="#cccccc" stroke="#cccccc" points="133.794,-23.4977 123.295,-22.075 130.615,-29.7343 133.794,-23.4977"/>
</g>
<!-- CustomStringConvertible&#45;&gt;Bool -->
<g id="edge3" class="edge">
<path fill="none" stroke="#cccccc" d="M1496.54,-240.938C1312.03,-237.785 823.023,-226.702 664,-196 586.028,-180.946 569.429,-165.685 495,-138 391.694,-99.5745 271.129,-49.7838 214.11,-25.9339"/>
<polygon fill="#cccccc" stroke="#cccccc" points="215.443,-22.6978 204.868,-22.0623 212.739,-29.1542 215.443,-22.6978"/>
</g>
<!-- CustomStringConvertible&#45;&gt;ClosedInterval -->
<g id="edge4" class="edge">
<path fill="none" stroke="#cccccc" d="M1496.53,-240.794C1324.71,-237.439 892.275,-226.179 751,-196 572.022,-157.767 371.692,-63.3494 298.111,-26.7908"/>
<polygon fill="#cccccc" stroke="#cccccc" points="299.489,-23.5671 288.98,-22.2268 296.36,-29.8285 299.489,-23.5671"/>
</g>
<!-- CustomStringConvertible&#45;&gt;ContiguousArray -->
<g id="edge5" class="edge">
<path fill="none" stroke="#cccccc" d="M1496.6,-240.59C1335.39,-236.924 947.357,-225.261 820,-196 753.959,-180.827 741.556,-164.046 679,-138 582.111,-97.6588 467.879,-49.2983 412.867,-25.9588"/>
<polygon fill="#cccccc" stroke="#cccccc" points="414.188,-22.7173 403.615,-22.0326 411.453,-29.1611 414.188,-22.7173"/>
</g>
<!-- Dictionary -->
<g id="node8" class="node">
<g id="a_node8"><a xlink:href="/swift-2/type/Dictionary/" target="_top">
<polygon fill="#999999" stroke="#999999" points="510.511,-22 447.489,-22 447.489,-0 510.511,-0 510.511,-22"/>
<text text-anchor="middle" x="479" y="-7.4" font-family="Helvetica,sans-Serif" font-size="12.00" fill="white">Dictionary</text>
</a>
</g>
</g>
<!-- CustomStringConvertible&#45;&gt;Dictionary -->
<g id="edge6" class="edge">
<path fill="none" stroke="#cccccc" d="M1496.61,-240.234C1347.64,-236.039 1008.19,-223.685 896,-196 739.987,-157.499 569.089,-64.2958 505.095,-27.4043"/>
<polygon fill="#cccccc" stroke="#cccccc" points="506.507,-24.177 496.101,-22.1831 502.992,-30.2307 506.507,-24.177"/>
</g>
<!-- Double -->
<g id="node9" class="node">
<g id="a_node9"><a xlink:href="/swift-2/type/Double/" target="_top">
<polygon fill="#999999" stroke="#999999" points="583,-22 529,-22 529,-0 583,-0 583,-22"/>
<text text-anchor="middle" x="556" y="-7.4" font-family="Helvetica,sans-Serif" font-size="12.00" fill="white">Double</text>
</a>
</g>
</g>
<!-- CustomStringConvertible&#45;&gt;Double -->
<g id="edge7" class="edge">
<path fill="none" stroke="#cccccc" d="M1496.6,-239.414C1359.29,-233.972 1063.25,-219.833 964,-196 898.91,-180.371 886.213,-165.092 825,-138 737.462,-99.2566 635.44,-50.4521 585.963,-26.5471"/>
<polygon fill="#cccccc" stroke="#cccccc" points="587.315,-23.3127 576.788,-22.1084 584.266,-29.6141 587.315,-23.3127"/>
</g>
<!-- Float -->
<g id="node10" class="node">
<g id="a_node10"><a xlink:href="/swift-2/type/Float/" target="_top">
<polygon fill="#999999" stroke="#999999" points="655,-22 601,-22 601,-0 655,-0 655,-22"/>
<text text-anchor="middle" x="628" y="-7.4" font-family="Helvetica,sans-Serif" font-size="12.00" fill="white">Float</text>
</a>
</g>
</g>
<!-- CustomStringConvertible&#45;&gt;Float -->
<g id="edge8" class="edge">
<path fill="none" stroke="#cccccc" d="M1496.57,-238.741C1372.79,-232.601 1123.55,-217.934 1039,-196 885.326,-156.132 716.832,-63.7309 653.731,-27.2292"/>
<polygon fill="#cccccc" stroke="#cccccc" points="655.266,-24.0726 644.863,-22.0643 651.743,-30.1215 655.266,-24.0726"/>
</g>
<!-- Float80 -->
<g id="node11" class="node">
<g id="a_node11"><a xlink:href="/swift-2/type/Float80/" target="_top">
<polygon fill="#999999" stroke="#999999" points="727,-22 673,-22 673,-0 727,-0 727,-22"/>
<text text-anchor="middle" x="700" y="-7.4" font-family="Helvetica,sans-Serif" font-size="12.00" fill="white">Float80</text>
</a>
</g>
</g>
<!-- CustomStringConvertible&#45;&gt;Float80 -->
<g id="edge9" class="edge">
<path fill="none" stroke="#cccccc" d="M1496.5,-241.943C1403.96,-240.289 1238.39,-231.934 1102,-196 1040.43,-179.778 1028.98,-164.312 971,-138 883.518,-98.3004 780.817,-50.1152 730.676,-26.4865"/>
<polygon fill="#cccccc" stroke="#cccccc" points="731.906,-23.197 721.368,-22.098 728.921,-29.5285 731.906,-23.197"/>
</g>
<!-- HalfOpenInterval -->
<g id="node12" class="node">
<g id="a_node12"><a xlink:href="/swift-2/type/HalfOpenInterval/" target="_top">
<polygon fill="#999999" stroke="#999999" points="845.035,-22 744.965,-22 744.965,-0 845.035,-0 845.035,-22"/>
<text text-anchor="middle" x="795" y="-7.4" font-family="Helvetica,sans-Serif" font-size="12.00" fill="white">HalfOpenInterval</text>
</a>
</g>
</g>
<!-- CustomStringConvertible&#45;&gt;HalfOpenInterval -->
<g id="edge10" class="edge">
<path fill="none" stroke="#cccccc" d="M1496.63,-241.28C1414.91,-238.767 1277.77,-229.354 1165,-196 1026.19,-154.946 876.35,-64.3073 819.092,-27.7469"/>
<polygon fill="#cccccc" stroke="#cccccc" points="820.711,-24.6274 810.408,-22.1616 816.925,-30.5148 820.711,-24.6274"/>
</g>
<!-- ImplicitlyUnwrappedOptional -->
<g id="node13" class="node">
<g id="a_node13"><a xlink:href="/swift-2/type/ImplicitlyUnwrappedOptional/" target="_top">
<polygon fill="#999999" stroke="#999999" points="1025.05,-22 862.949,-22 862.949,-0 1025.05,-0 1025.05,-22"/>
<text text-anchor="middle" x="944" y="-7.4" font-family="Helvetica,sans-Serif" font-size="12.00" fill="white">ImplicitlyUnwrappedOptional</text>
</a>
</g>
</g>
<!-- CustomStringConvertible&#45;&gt;ImplicitlyUnwrappedOptional -->
<g id="edge11" class="edge">
<path fill="none" stroke="#cccccc" d="M1496.59,-242.437C1423.16,-240.687 1306.63,-231.713 1213,-196 1107.65,-155.818 1003.32,-66.7037 962.254,-29.1821"/>
<polygon fill="#cccccc" stroke="#cccccc" points="964.409,-26.4078 954.688,-22.1946 959.66,-31.5504 964.409,-26.4078"/>
</g>
<!-- Int -->
<g id="node14" class="node">
<g id="a_node14"><a xlink:href="/swift-2/type/Int/" target="_top">
<polygon fill="#999999" stroke="#999999" points="1169,-22 1115,-22 1115,-0 1169,-0 1169,-22"/>
<text text-anchor="middle" x="1142" y="-7.4" font-family="Helvetica,sans-Serif" font-size="12.00" fill="white">Int</text>
</a>
</g>
</g>
<!-- CustomStringConvertible&#45;&gt;Int -->
<g id="edge12" class="edge">
<path fill="none" stroke="#cccccc" d="M1496.56,-241.637C1437.2,-238.765 1351.92,-228.544 1285,-196 1213.53,-161.243 1167.54,-71.4806 1150.01,-31.5977"/>
<polygon fill="#cccccc" stroke="#cccccc" points="1153.14,-30.0029 1146,-22.1754 1146.7,-32.7471 1153.14,-30.0029"/>
</g>
<!-- Int16 -->
<g id="node15" class="node">
<g id="a_node15"><a xlink:href="/swift-2/type/Int16/" target="_top">
<polygon fill="#999999" stroke="#999999" points="1541,-22 1487,-22 1487,-0 1541,-0 1541,-22"/>
<text text-anchor="middle" x="1514" y="-7.4" font-family="Helvetica,sans-Serif" font-size="12.00" fill="white">Int16</text>
</a>
</g>
</g>
<!-- CustomStringConvertible&#45;&gt;Int16 -->
<g id="edge13" class="edge">
<path fill="none" stroke="#cccccc" d="M1565.61,-231.82C1557.33,-196.568 1529.8,-79.2764 1518.7,-32.0032"/>
<polygon fill="#cccccc" stroke="#cccccc" points="1522.06,-30.9973 1516.36,-22.062 1515.24,-32.5973 1522.06,-30.9973"/>
</g>
<!-- Int32 -->
<g id="node16" class="node">
<g id="a_node16"><a xlink:href="/swift-2/type/Int32/" target="_top">
<polygon fill="#999999" stroke="#999999" points="1617,-22 1563,-22 1563,-0 1617,-0 1617,-22"/>
<text text-anchor="middle" x="1590" y="-7.4" font-family="Helvetica,sans-Serif" font-size="12.00" fill="white">Int32</text>
</a>
</g>
</g>
<!-- CustomStringConvertible&#45;&gt;Int32 -->
<g id="edge14" class="edge">
<path fill="none" stroke="#cccccc" d="M1606.42,-231.832C1627.54,-224.655 1653.03,-213.199 1671,-196 1691.82,-176.07 1693.38,-166.049 1700,-138 1711.69,-88.4983 1655.89,-47.7501 1619.48,-26.9505"/>
<polygon fill="#cccccc" stroke="#cccccc" points="1621.14,-23.8692 1610.69,-22.0991 1617.75,-29.997 1621.14,-23.8692"/>
</g>
<!-- Int64 -->
<g id="node17" class="node">
<g id="a_node17"><a xlink:href="/swift-2/type/Int64/" target="_top">
<polygon fill="#999999" stroke="#999999" points="1097,-22 1043,-22 1043,-0 1097,-0 1097,-22"/>
<text text-anchor="middle" x="1070" y="-7.4" font-family="Helvetica,sans-Serif" font-size="12.00" fill="white">Int64</text>
</a>
</g>
</g>
<!-- CustomStringConvertible&#45;&gt;Int64 -->
<g id="edge15" class="edge">
<path fill="none" stroke="#cccccc" d="M1496.4,-237.052C1415.91,-230.558 1291,-217.4 1249,-196 1171.03,-156.275 1107.36,-69.2369 1081.92,-30.8385"/>
<polygon fill="#cccccc" stroke="#cccccc" points="1084.68,-28.6585 1076.29,-22.1826 1078.81,-32.4742 1084.68,-28.6585"/>
</g>
<!-- Int8 -->
<g id="node18" class="node">
<g id="a_node18"><a xlink:href="/swift-2/type/Int8/" target="_top">
<polygon fill="#999999" stroke="#999999" points="1313,-22 1259,-22 1259,-0 1313,-0 1313,-22"/>
<text text-anchor="middle" x="1286" y="-7.4" font-family="Helvetica,sans-Serif" font-size="12.00" fill="white">Int8</text>
</a>
</g>
</g>
<!-- CustomStringConvertible&#45;&gt;Int8 -->
<g id="edge16" class="edge">
<path fill="none" stroke="#cccccc" d="M1507.19,-231.97C1419.61,-216.144 1264.84,-182.542 1232,-138 1224.56,-127.902 1219.85,-89.823 1235,-58 1240.69,-46.0564 1251.02,-35.8258 1260.91,-28.0666"/>
<polygon fill="#cccccc" stroke="#cccccc" points="1262.99,-30.8773 1269,-22.1467 1258.86,-25.2286 1262.99,-30.8773"/>
</g>
<!-- Mirror -->
<g id="node20" class="node">
<g id="a_node20"><a xlink:href="/swift-2/type/Mirror/" target="_top">
<polygon fill="#999999" stroke="#999999" points="2603,-22 2549,-22 2549,-0 2603,-0 2603,-22"/>
<text text-anchor="middle" x="2576" y="-7.4" font-family="Helvetica,sans-Serif" font-size="12.00" fill="white">Mirror</text>
</a>
</g>
</g>
<!-- CustomStringConvertible&#45;&gt;Mirror -->
<g id="edge17" class="edge">
<path fill="none" stroke="#cccccc" d="M1639.41,-240.24C1790.68,-236.019 2138.93,-223.554 2254,-196 2381,-165.589 2508.88,-67.869 2556.53,-28.5835"/>
<polygon fill="#cccccc" stroke="#cccccc" points="2558.79,-31.2581 2564.23,-22.1664 2554.3,-25.8815 2558.79,-31.2581"/>
</g>
<!-- Range -->
<g id="node21" class="node">
<g id="a_node21"><a xlink:href="/swift-2/type/Range/" target="_top">
<polygon fill="#999999" stroke="#999999" points="2675,-22 2621,-22 2621,-0 2675,-0 2675,-22"/>
<text text-anchor="middle" x="2648" y="-7.4" font-family="Helvetica,sans-Serif" font-size="12.00" fill="white">Range</text>
</a>
</g>
</g>
<!-- CustomStringConvertible&#45;&gt;Range -->
<g id="edge18" class="edge">
<path fill="none" stroke="#cccccc" d="M1639.41,-240.738C1798.18,-237.411 2176.2,-226.455 2300,-196 2434.56,-162.898 2574.29,-66.7975 2626.57,-28.2641"/>
<polygon fill="#cccccc" stroke="#cccccc" points="2628.82,-30.9557 2634.75,-22.1778 2624.64,-25.3399 2628.82,-30.9557"/>
</g>
<!-- Set -->
<g id="node22" class="node">
<g id="a_node22"><a xlink:href="/swift-2/type/Set/" target="_top">
<polygon fill="#999999" stroke="#999999" points="2747,-22 2693,-22 2693,-0 2747,-0 2747,-22"/>
<text text-anchor="middle" x="2720" y="-7.4" font-family="Helvetica,sans-Serif" font-size="12.00" fill="white">Set</text>
</a>
</g>
</g>
<!-- CustomStringConvertible&#45;&gt;Set -->
<g id="edge19" class="edge">
<path fill="none" stroke="#cccccc" d="M1639.37,-240.94C1805.6,-237.963 2214.59,-227.567 2348,-196 2411.55,-180.963 2424.12,-166.241 2483,-138 2560.7,-100.733 2649.82,-51.5561 2693.31,-27.1241"/>
<polygon fill="#cccccc" stroke="#cccccc" points="2695.13,-30.1169 2702.12,-22.1601 2691.69,-24.0176 2695.13,-30.1169"/>
</g>
<!-- StaticString -->
<g id="node24" class="node">
<g id="a_node24"><a xlink:href="/swift-2/type/StaticString/" target="_top">
<polygon fill="#999999" stroke="#999999" points="2836.52,-22 2765.48,-22 2765.48,-0 2836.52,-0 2836.52,-22"/>
<text text-anchor="middle" x="2801" y="-7.4" font-family="Helvetica,sans-Serif" font-size="12.00" fill="white">StaticString</text>
</a>
</g>
</g>
<!-- CustomStringConvertible&#45;&gt;StaticString -->
<g id="edge20" class="edge">
<path fill="none" stroke="#cccccc" d="M1639.51,-241.395C1813.06,-239.385 2252.72,-230.899 2395,-196 2547.99,-158.474 2714.37,-64.2956 2776.12,-27.2803"/>
<polygon fill="#cccccc" stroke="#cccccc" points="2778.04,-30.2121 2784.79,-22.0471 2774.42,-24.2197 2778.04,-30.2121"/>
</g>
<!-- String.UTF16View -->
<g id="node25" class="node">
<g id="a_node25"><a xlink:href="/swift-2/type/String.UTF16View/" target="_top">
<polygon fill="#999999" stroke="#999999" points="2961.37,-22 2854.63,-22 2854.63,-0 2961.37,-0 2961.37,-22"/>
<text text-anchor="middle" x="2908" y="-7.4" font-family="Helvetica,sans-Serif" font-size="12.00" fill="white">String.UTF16View</text>
</a>
</g>
</g>
<!-- CustomStringConvertible&#45;&gt;String.UTF16View -->
<g id="edge29" class="edge">
<path fill="none" stroke="#cccccc" d="M1639.66,-240.996C1820.48,-238.023 2291.72,-227.409 2445,-196 2518.28,-180.984 2533.31,-165.175 2603,-138 2702.7,-99.1241 2819.28,-49.901 2875.03,-26.1258"/>
<polygon fill="#cccccc" stroke="#cccccc" points="2876.58,-29.2719 2884.4,-22.1263 2873.83,-22.8341 2876.58,-29.2719"/>
</g>
<!-- String.UTF8View -->
<g id="node26" class="node">
<g id="a_node26"><a xlink:href="/swift-2/type/String.UTF8View/" target="_top">
<polygon fill="#999999" stroke="#999999" points="3080.36,-22 2979.64,-22 2979.64,-0 3080.36,-0 3080.36,-22"/>
<text text-anchor="middle" x="3030" y="-7.4" font-family="Helvetica,sans-Serif" font-size="12.00" fill="white">String.UTF8View</text>
</a>
</g>
</g>
<!-- CustomStringConvertible&#45;&gt;String.UTF8View -->
<g id="edge30" class="edge">
<path fill="none" stroke="#cccccc" d="M1639.64,-241.057C1827.72,-238.163 2332.27,-227.604 2496,-196 2693.59,-157.861 2917.56,-62.6236 2998.63,-26.3438"/>
<polygon fill="#cccccc" stroke="#cccccc" points="3000.55,-29.3169 3008.23,-22.0214 2997.68,-22.9335 3000.55,-29.3169"/>
</g>
<!-- String.UnicodeScalarView -->
<g id="node27" class="node">
<g id="a_node27"><a xlink:href="/swift-2/type/String.UnicodeScalarView/" target="_top">
<polygon fill="#999999" stroke="#999999" points="3246.89,-22 3099.11,-22 3099.11,-0 3246.89,-0 3246.89,-22"/>
<text text-anchor="middle" x="3173" y="-7.4" font-family="Helvetica,sans-Serif" font-size="12.00" fill="white">String.UnicodeScalarView</text>
</a>
</g>
</g>
<!-- CustomStringConvertible&#45;&gt;String.UnicodeScalarView -->
<g id="edge28" class="edge">
<path fill="none" stroke="#cccccc" d="M1639.53,-240.832C1835.73,-237.283 2379.47,-225.044 2556,-196 2648.17,-180.836 2668.42,-164.458 2758,-138 2894.39,-97.7182 3055.41,-48.2924 3130.49,-25.1398"/>
<polygon fill="#cccccc" stroke="#cccccc" points="3131.98,-28.3436 3140.5,-22.0509 3129.91,-21.6547 3131.98,-28.3436"/>
</g>
<!-- UInt -->
<g id="node28" class="node">
<g id="a_node28"><a xlink:href="/swift-2/type/UInt/" target="_top">
<polygon fill="#999999" stroke="#999999" points="2035,-22 1981,-22 1981,-0 2035,-0 2035,-22"/>
<text text-anchor="middle" x="2008" y="-7.4" font-family="Helvetica,sans-Serif" font-size="12.00" fill="white">UInt</text>
</a>
</g>
</g>
<!-- CustomStringConvertible&#45;&gt;UInt -->
<g id="edge21" class="edge">
<path fill="none" stroke="#cccccc" d="M1613.7,-231.943C1645,-224.197 1687.01,-212.087 1722,-196 1828.58,-146.992 1942.01,-63.216 1987.45,-28.1651"/>
<polygon fill="#cccccc" stroke="#cccccc" points="1989.61,-30.9148 1995.36,-22.0176 1985.32,-25.3855 1989.61,-30.9148"/>
</g>
<!-- UInt16 -->
<g id="node29" class="node">
<g id="a_node29"><a xlink:href="/swift-2/type/UInt16/" target="_top">
<polygon fill="#999999" stroke="#999999" points="2291,-22 2237,-22 2237,-0 2291,-0 2291,-22"/>
<text text-anchor="middle" x="2264" y="-7.4" font-family="Helvetica,sans-Serif" font-size="12.00" fill="white">UInt16</text>
</a>
</g>
</g>
<!-- CustomStringConvertible&#45;&gt;UInt16 -->
<g id="edge22" class="edge">
<path fill="none" stroke="#cccccc" d="M1639.57,-239.852C1795.31,-233.822 2158.55,-211.997 2253,-138 2282.22,-115.107 2282.1,-94.7696 2277,-58 2275.78,-49.1978 2273.31,-39.7112 2270.84,-31.6528"/>
<polygon fill="#cccccc" stroke="#cccccc" points="2274.14,-30.4807 2267.71,-22.0595 2267.49,-32.6519 2274.14,-30.4807"/>
</g>
<!-- UInt32 -->
<g id="node30" class="node">
<g id="a_node30"><a xlink:href="/swift-2/type/UInt32/" target="_top">
<polygon fill="#999999" stroke="#999999" points="2531,-22 2477,-22 2477,-0 2531,-0 2531,-22"/>
<text text-anchor="middle" x="2504" y="-7.4" font-family="Helvetica,sans-Serif" font-size="12.00" fill="white">UInt32</text>
</a>
</g>
</g>
<!-- CustomStringConvertible&#45;&gt;UInt32 -->
<g id="edge23" class="edge">
<path fill="none" stroke="#cccccc" d="M1639.57,-239.912C1782.06,-235.246 2096.47,-222.256 2201,-196 2315.9,-167.138 2347,-152.111 2441,-80 2460,-65.4244 2478.2,-44.8196 2490.1,-30.1186"/>
<polygon fill="#cccccc" stroke="#cccccc" points="2492.88,-32.2476 2496.35,-22.2353 2487.4,-27.9016 2492.88,-32.2476"/>
</g>
<!-- UInt64 -->
<g id="node31" class="node">
<g id="a_node31"><a xlink:href="/swift-2/type/UInt64/" target="_top">
<polygon fill="#999999" stroke="#999999" points="2443,-22 2389,-22 2389,-0 2443,-0 2443,-22"/>
<text text-anchor="middle" x="2416" y="-7.4" font-family="Helvetica,sans-Serif" font-size="12.00" fill="white">UInt64</text>
</a>
</g>
</g>
<!-- CustomStringConvertible&#45;&gt;UInt64 -->
<g id="edge24" class="edge">
<path fill="none" stroke="#cccccc" d="M1639.58,-239.347C1772.59,-233.915 2052.89,-219.977 2147,-196 2256.79,-168.028 2293.31,-159.536 2374,-80 2388.29,-65.9123 2399.84,-46.0392 2407.18,-31.4138"/>
<polygon fill="#cccccc" stroke="#cccccc" points="2410.4,-32.7922 2411.58,-22.2625 2404.09,-29.7622 2410.4,-32.7922"/>
</g>
<!-- UInt8 -->
<g id="node32" class="node">
<g id="a_node32"><a xlink:href="/swift-2/type/UInt8/" target="_top">
<polygon fill="#999999" stroke="#999999" points="1883,-22 1829,-22 1829,-0 1883,-0 1883,-22"/>
<text text-anchor="middle" x="1856" y="-7.4" font-family="Helvetica,sans-Serif" font-size="12.00" fill="white">UInt8</text>
</a>
</g>
</g>
<!-- CustomStringConvertible&#45;&gt;UInt8 -->
<g id="edge25" class="edge">
<path fill="none" stroke="#cccccc" d="M1609.64,-231.996C1635.32,-224.606 1668.17,-212.877 1694,-196 1763.34,-150.696 1820.88,-67.9392 1844.48,-30.8532"/>
<polygon fill="#cccccc" stroke="#cccccc" points="1847.64,-32.3981 1849.98,-22.0644 1841.71,-28.6846 1847.64,-32.3981"/>
</g>
<!-- UnicodeScalar -->
<g id="node33" class="node">
<g id="a_node33"><a xlink:href="/swift-2/type/UnicodeScalar/" target="_top">
<polygon fill="#999999" stroke="#999999" points="3353.03,-22 3264.97,-22 3264.97,-0 3353.03,-0 3353.03,-22"/>
<text text-anchor="middle" x="3309" y="-7.4" font-family="Helvetica,sans-Serif" font-size="12.00" fill="white">UnicodeScalar</text>
</a>
</g>
</g>
<!-- CustomStringConvertible&#45;&gt;UnicodeScalar -->
<g id="edge26" class="edge">
<path fill="none" stroke="#cccccc" d="M1639.47,-240.876C1843.82,-237.345 2427.91,-224.937 2617,-196 2871.2,-157.1 3166.43,-60.9238 3270.4,-25.4355"/>
<polygon fill="#cccccc" stroke="#cccccc" points="3271.81,-28.6498 3280.14,-22.0965 3269.54,-22.028 3271.81,-28.6498"/>
</g>
<!-- _IntegerType -->
<g id="node36" class="node">
<g id="a_node36"><a xlink:href="/swift-2/protocol/_IntegerType/" target="_top">
<path fill="#999999" stroke="#999999" d="M1654.71,-196C1654.71,-196 1589.29,-196 1589.29,-196 1585.63,-196 1581.96,-192.333 1581.96,-188.667 1581.96,-188.667 1581.96,-181.333 1581.96,-181.333 1581.96,-177.667 1585.63,-174 1589.29,-174 1589.29,-174 1654.71,-174 1654.71,-174 1658.37,-174 1662.04,-177.667 1662.04,-181.333 1662.04,-181.333 1662.04,-188.667 1662.04,-188.667 1662.04,-192.333 1658.37,-196 1654.71,-196"/>
<text text-anchor="middle" x="1622" y="-181.4" font-family="Helvetica,sans-Serif" font-size="12.00" fill="white">_IntegerType</text>
</a>
</g>
</g>
<!-- CustomStringConvertible&#45;&gt;_IntegerType -->
<g id="edge27" class="edge">
<path fill="none" stroke="#cccccc" d="M1577.65,-231.988C1585.24,-224.123 1595.99,-212.974 1605.01,-203.624"/>
<polygon fill="#cccccc" stroke="#cccccc" points="1607.64,-205.932 1612.06,-196.304 1602.6,-201.073 1607.64,-205.932"/>
</g>
<!-- Int&#45;&gt;Bit -->
<g id="edge31" class="edge">
<path fill="none" stroke="#cccccc" d="M1169.28,-11C1171.74,-11 1174.19,-11 1176.65,-11"/>
<polygon fill="#cccccc" stroke="#cccccc" points="1176.75,-14.5001 1186.75,-11 1176.75,-7.5001 1176.75,-14.5001"/>
</g>
<!-- IntegerType -->
<g id="node19" class="node">
<g id="a_node19"><a xlink:href="/swift-2/protocol/IntegerType/" target="_top">
<path fill="#999999" stroke="#999999" d="M1684.2,-138C1684.2,-138 1625.8,-138 1625.8,-138 1622.13,-138 1618.47,-134.333 1618.47,-130.667 1618.47,-130.667 1618.47,-123.333 1618.47,-123.333 1618.47,-119.667 1622.13,-116 1625.8,-116 1625.8,-116 1684.2,-116 1684.2,-116 1687.87,-116 1691.53,-119.667 1691.53,-123.333 1691.53,-123.333 1691.53,-130.667 1691.53,-130.667 1691.53,-134.333 1687.87,-138 1684.2,-138"/>
<text text-anchor="middle" x="1655" y="-123.4" font-family="Helvetica,sans-Serif" font-size="12.00" fill="white">IntegerType</text>
</a>
</g>
</g>
<!-- IntegerType&#45;&gt;Int -->
<g id="edge45" class="edge">
<path fill="none" stroke="#cccccc" d="M1618.48,-123.848C1532.64,-118.466 1320.25,-103.168 1253,-80 1218.63,-68.1599 1183.63,-44.3556 1162.36,-28.2945"/>
<polygon fill="#cccccc" stroke="#cccccc" points="1164.45,-25.4819 1154.39,-22.1484 1160.17,-31.0258 1164.45,-25.4819"/>
</g>
<!-- IntegerType&#45;&gt;Int16 -->
<g id="edge46" class="edge">
<path fill="none" stroke="#cccccc" d="M1642.49,-115.883C1618.2,-96.243 1564.43,-52.7755 1534.73,-28.7597"/>
<polygon fill="#cccccc" stroke="#cccccc" points="1536.66,-25.8235 1526.69,-22.2579 1532.26,-31.2669 1536.66,-25.8235"/>
</g>
<!-- IntegerType&#45;&gt;Int32 -->
<g id="edge47" class="edge">
<path fill="none" stroke="#cccccc" d="M1655.05,-115.614C1654.69,-101.629 1652.47,-76.3818 1642,-58 1635.29,-46.2172 1624.43,-35.9069 1614.37,-28.0504"/>
<polygon fill="#cccccc" stroke="#cccccc" points="1616.35,-25.1569 1606.22,-22.0496 1612.2,-30.7952 1616.35,-25.1569"/>
</g>
<!-- IntegerType&#45;&gt;Int64 -->
<g id="edge48" class="edge">
<path fill="none" stroke="#cccccc" d="M1618.48,-126.753C1540.59,-127.395 1353.14,-123.796 1204,-80 1163.2,-68.02 1120.04,-43.7317 1094.06,-27.6633"/>
<polygon fill="#cccccc" stroke="#cccccc" points="1095.63,-24.5159 1085.3,-22.1533 1091.9,-30.4409 1095.63,-24.5159"/>
</g>
<!-- IntegerType&#45;&gt;Int8 -->
<g id="edge49" class="edge">
<path fill="none" stroke="#cccccc" d="M1622.58,-115.983C1554.05,-94.8114 1394.87,-45.6352 1322.72,-23.3452"/>
<polygon fill="#cccccc" stroke="#cccccc" points="1323.73,-19.9919 1313.14,-20.3841 1321.66,-26.68 1323.73,-19.9919"/>
</g>
<!-- SignedIntegerType -->
<g id="node23" class="node">
<g id="a_node23"><a xlink:href="/swift-2/protocol/SignedIntegerType/" target="_top">
<path fill="#999999" stroke="#999999" d="M1364.73,-80C1364.73,-80 1269.27,-80 1269.27,-80 1265.61,-80 1261.94,-76.3333 1261.94,-72.6667 1261.94,-72.6667 1261.94,-65.3333 1261.94,-65.3333 1261.94,-61.6667 1265.61,-58 1269.27,-58 1269.27,-58 1364.73,-58 1364.73,-58 1368.39,-58 1372.06,-61.6667 1372.06,-65.3333 1372.06,-65.3333 1372.06,-72.6667 1372.06,-72.6667 1372.06,-76.3333 1368.39,-80 1364.73,-80"/>
<text text-anchor="middle" x="1317" y="-65.4" font-family="Helvetica,sans-Serif" font-size="12.00" fill="white">SignedIntegerType</text>
</a>
</g>
</g>
<!-- IntegerType&#45;&gt;SignedIntegerType -->
<g id="edge50" class="edge">
<path fill="none" stroke="#cccccc" d="M1618.51,-119.954C1562.05,-110.6 1452.72,-92.4864 1382.39,-80.8331"/>
<polygon fill="#cccccc" stroke="#cccccc" points="1382.74,-77.3441 1372.3,-79.1624 1381.6,-84.25 1382.74,-77.3441"/>
</g>
<!-- IntegerType&#45;&gt;UInt -->
<g id="edge51" class="edge">
<path fill="none" stroke="#cccccc" d="M1686.02,-115.983C1750.96,-95.0101 1901,-46.5556 1970.9,-23.9797"/>
<polygon fill="#cccccc" stroke="#cccccc" points="1972.18,-27.2468 1980.62,-20.843 1970.03,-20.5856 1972.18,-27.2468"/>
</g>
<!-- IntegerType&#45;&gt;UInt16 -->
<g id="edge52" class="edge">
<path fill="none" stroke="#cccccc" d="M1691.72,-119.126C1800.22,-98.8163 2118.48,-39.2403 2227.14,-18.8993"/>
<polygon fill="#cccccc" stroke="#cccccc" points="2227.81,-22.3362 2236.99,-17.0559 2226.52,-15.4557 2227.81,-22.3362"/>
</g>
<!-- IntegerType&#45;&gt;UInt32 -->
<g id="edge53" class="edge">
<path fill="none" stroke="#cccccc" d="M1691.58,-125.745C1786.48,-124.542 2048.13,-117.767 2262,-80 2336.07,-66.9202 2420.1,-40.6299 2467.1,-24.8459"/>
<polygon fill="#cccccc" stroke="#cccccc" points="2468.48,-28.0735 2476.83,-21.5505 2466.23,-21.4435 2468.48,-28.0735"/>
</g>
<!-- IntegerType&#45;&gt;UInt64 -->
<g id="edge54" class="edge">
<path fill="none" stroke="#cccccc" d="M1691.58,-125.86C1780.66,-124.892 2015.63,-118.563 2207,-80 2270.24,-67.257 2341.1,-41.6887 2381.94,-25.792"/>
<polygon fill="#cccccc" stroke="#cccccc" points="2383.38,-28.9859 2391.41,-22.0697 2380.82,-22.4713 2383.38,-28.9859"/>
</g>
<!-- IntegerType&#45;&gt;UInt8 -->
<g id="edge55" class="edge">
<path fill="none" stroke="#cccccc" d="M1670.58,-115.928C1691.85,-102.3 1731.31,-77.4544 1766,-58 1785.63,-46.9927 1808.18,-35.4692 1825.8,-26.7093"/>
<polygon fill="#cccccc" stroke="#cccccc" points="1827.61,-29.7161 1835.03,-22.1479 1824.51,-23.4406 1827.61,-29.7161"/>
</g>
<!-- UnsignedIntegerType -->
<g id="node34" class="node">
<g id="a_node34"><a xlink:href="/swift-2/protocol/UnsignedIntegerType/" target="_top">
<path fill="#999999" stroke="#999999" d="M2190.73,-80C2190.73,-80 2081.27,-80 2081.27,-80 2077.61,-80 2073.94,-76.3333 2073.94,-72.6667 2073.94,-72.6667 2073.94,-65.3333 2073.94,-65.3333 2073.94,-61.6667 2077.61,-58 2081.27,-58 2081.27,-58 2190.73,-58 2190.73,-58 2194.39,-58 2198.06,-61.6667 2198.06,-65.3333 2198.06,-65.3333 2198.06,-72.6667 2198.06,-72.6667 2198.06,-76.3333 2194.39,-80 2190.73,-80"/>
<text text-anchor="middle" x="2136" y="-65.4" font-family="Helvetica,sans-Serif" font-size="12.00" fill="white">UnsignedIntegerType</text>
</a>
</g>
</g>
<!-- IntegerType&#45;&gt;UnsignedIntegerType -->
<g id="edge56" class="edge">
<path fill="none" stroke="#cccccc" d="M1691.55,-121.745C1770.69,-112.531 1959.16,-90.5882 2063.46,-78.4452"/>
<polygon fill="#cccccc" stroke="#cccccc" points="2064.07,-81.8986 2073.59,-77.2655 2063.26,-74.9455 2064.07,-81.8986"/>
</g>
<!-- SignedIntegerType&#45;&gt;Int -->
<g id="edge57" class="edge">
<path fill="none" stroke="#cccccc" d="M1285.71,-57.9883C1255.82,-48.4216 1210.74,-33.9965 1179.06,-23.8586"/>
<polygon fill="#cccccc" stroke="#cccccc" points="1179.87,-20.4437 1169.28,-20.7293 1177.74,-27.1107 1179.87,-20.4437"/>
</g>
<!-- SignedIntegerType&#45;&gt;Int16 -->
<g id="edge58" class="edge">
<path fill="none" stroke="#cccccc" d="M1352.22,-57.9883C1387.37,-47.9952 1441.18,-32.7008 1476.96,-22.5293"/>
<polygon fill="#cccccc" stroke="#cccccc" points="1478.33,-25.7779 1486.99,-19.6769 1476.42,-19.0447 1478.33,-25.7779"/>
</g>
<!-- SignedIntegerType&#45;&gt;Int32 -->
<g id="edge59" class="edge">
<path fill="none" stroke="#cccccc" d="M1371.77,-57.9881C1419.09,-49.1472 1489.24,-35.584 1550,-22 1551.05,-21.7657 1552.11,-21.5246 1553.18,-21.2782"/>
<polygon fill="#cccccc" stroke="#cccccc" points="1554.01,-24.6784 1562.93,-18.9617 1552.39,-17.8679 1554.01,-24.6784"/>
</g>
<!-- SignedIntegerType&#45;&gt;Int64 -->
<g id="edge60" class="edge">
<path fill="none" stroke="#cccccc" d="M1266.94,-57.9139C1226.33,-49.5455 1167.39,-36.9782 1107.15,-22.1894"/>
<polygon fill="#cccccc" stroke="#cccccc" points="1107.63,-18.7024 1097.08,-19.6992 1105.95,-25.4976 1107.63,-18.7024"/>
</g>
<!-- SignedIntegerType&#45;&gt;Int8 -->
<g id="edge61" class="edge">
<path fill="none" stroke="#cccccc" d="M1311.46,-57.9883C1307.37,-50.5952 1301.67,-40.3005 1296.7,-31.3253"/>
<polygon fill="#cccccc" stroke="#cccccc" points="1299.61,-29.3577 1291.7,-22.3039 1293.49,-32.7479 1299.61,-29.3577"/>
</g>
<!-- UnsignedIntegerType&#45;&gt;UInt -->
<g id="edge62" class="edge">
<path fill="none" stroke="#cccccc" d="M2113.12,-57.9883C2092.86,-49.1244 2063.06,-36.0897 2040.36,-26.1587"/>
<polygon fill="#cccccc" stroke="#cccccc" points="2041.68,-22.9155 2031.12,-22.1138 2038.88,-29.3286 2041.68,-22.9155"/>
</g>
<!-- UnsignedIntegerType&#45;&gt;UInt16 -->
<g id="edge63" class="edge">
<path fill="none" stroke="#cccccc" d="M2158.88,-57.9883C2179.14,-49.1244 2208.94,-36.0897 2231.64,-26.1587"/>
<polygon fill="#cccccc" stroke="#cccccc" points="2233.12,-29.3286 2240.88,-22.1138 2230.32,-22.9155 2233.12,-29.3286"/>
</g>
<!-- UnsignedIntegerType&#45;&gt;UInt32 -->
<g id="edge64" class="edge">
<path fill="none" stroke="#cccccc" d="M2198.19,-59.7967C2262.01,-51.1789 2364.13,-36.8376 2452,-22 2456.79,-21.1912 2461.82,-20.2902 2466.78,-19.3695"/>
<polygon fill="#cccccc" stroke="#cccccc" points="2467.61,-22.775 2476.78,-17.4753 2466.31,-15.8972 2467.61,-22.775"/>
</g>
<!-- UnsignedIntegerType&#45;&gt;UInt64 -->
<g id="edge65" class="edge">
<path fill="none" stroke="#cccccc" d="M2186.06,-57.9883C2241.42,-46.9155 2329.33,-29.3339 2378.88,-19.4249"/>
<polygon fill="#cccccc" stroke="#cccccc" points="2379.72,-22.8252 2388.84,-17.432 2378.35,-15.9612 2379.72,-22.8252"/>
</g>
<!-- UnsignedIntegerType&#45;&gt;UInt8 -->
<g id="edge66" class="edge">
<path fill="none" stroke="#cccccc" d="M2085.94,-57.9883C2030.58,-46.9155 1942.67,-29.3339 1893.12,-19.4249"/>
<polygon fill="#cccccc" stroke="#cccccc" points="1893.65,-15.9612 1883.16,-17.432 1892.28,-22.8252 1893.65,-15.9612"/>
</g>
<!-- _DisallowMixedSignArithmetic -->
<g id="node35" class="node">
<g id="a_node35"><a xlink:href="/swift-2/protocol/_DisallowMixedSignArithmetic/" target="_top">
<path fill="#999999" stroke="#999999" d="M2213.71,-138C2213.71,-138 2058.29,-138 2058.29,-138 2054.62,-138 2050.96,-134.333 2050.96,-130.667 2050.96,-130.667 2050.96,-123.333 2050.96,-123.333 2050.96,-119.667 2054.62,-116 2058.29,-116 2058.29,-116 2213.71,-116 2213.71,-116 2217.38,-116 2221.04,-119.667 2221.04,-123.333 2221.04,-123.333 2221.04,-130.667 2221.04,-130.667 2221.04,-134.333 2217.38,-138 2213.71,-138"/>
<text text-anchor="middle" x="2136" y="-123.4" font-family="Helvetica,sans-Serif" font-size="12.00" fill="white">_DisallowMixedSignArithmetic</text>
</a>
</g>
</g>
<!-- _DisallowMixedSignArithmetic&#45;&gt;UInt -->
<g id="edge67" class="edge">
<path fill="none" stroke="#cccccc" d="M2117.14,-115.862C2102.18,-107.346 2081.17,-94.3017 2065,-80 2047.99,-64.9585 2031.67,-44.6934 2020.89,-30.2073"/>
<polygon fill="#cccccc" stroke="#cccccc" points="2023.65,-28.0539 2014.93,-22.0329 2017.99,-32.1762 2023.65,-28.0539"/>
</g>
<!-- _DisallowMixedSignArithmetic&#45;&gt;UInt16 -->
<g id="edge68" class="edge">
<path fill="none" stroke="#cccccc" d="M2154.86,-115.862C2169.82,-107.346 2190.83,-94.3017 2207,-80 2224.01,-64.9585 2240.33,-44.6934 2251.11,-30.2073"/>
<polygon fill="#cccccc" stroke="#cccccc" points="2254.01,-32.1762 2257.07,-22.0329 2248.35,-28.0539 2254.01,-32.1762"/>
</g>
<!-- _DisallowMixedSignArithmetic&#45;&gt;UInt32 -->
<g id="edge69" class="edge">
<path fill="none" stroke="#cccccc" d="M2170.3,-115.939C2201.55,-106.732 2248.93,-92.6564 2290,-80 2352.25,-60.8134 2424.42,-37.7014 2467.03,-23.9636"/>
<polygon fill="#cccccc" stroke="#cccccc" points="2468.24,-27.249 2476.68,-20.8472 2466.09,-20.5872 2468.24,-27.249"/>
</g>
<!-- _DisallowMixedSignArithmetic&#45;&gt;UInt64 -->
<g id="edge70" class="edge">
<path fill="none" stroke="#cccccc" d="M2160.85,-115.883C2211.08,-95.4329 2324.76,-49.1489 2381.88,-25.8901"/>
<polygon fill="#cccccc" stroke="#cccccc" points="2383.27,-29.1066 2391.21,-22.0941 2380.63,-22.6234 2383.27,-29.1066"/>
</g>
<!-- _DisallowMixedSignArithmetic&#45;&gt;UInt8 -->
<g id="edge71" class="edge">
<path fill="none" stroke="#cccccc" d="M2111.15,-115.883C2060.92,-95.4329 1947.24,-49.1489 1890.12,-25.8901"/>
<polygon fill="#cccccc" stroke="#cccccc" points="1891.37,-22.6234 1880.79,-22.0941 1888.73,-29.1066 1891.37,-22.6234"/>
</g>
<!-- _DisallowMixedSignArithmetic&#45;&gt;UnsignedIntegerType -->
<g id="edge72" class="edge">
<path fill="none" stroke="#cccccc" d="M2136,-115.988C2136,-108.91 2136,-99.1714 2136,-90.4779"/>
<polygon fill="#cccccc" stroke="#cccccc" points="2139.5,-90.3038 2136,-80.3039 2132.5,-90.3039 2139.5,-90.3038"/>
</g>
<!-- _IntegerType&#45;&gt;Int -->
<g id="edge32" class="edge">
<path fill="none" stroke="#cccccc" d="M1581.82,-184.565C1509.79,-184.43 1354.74,-178.878 1232,-138 1183.25,-121.765 1157.65,-124.521 1132,-80 1123.56,-65.3563 1127.52,-46.1033 1132.74,-31.8227"/>
<polygon fill="#cccccc" stroke="#cccccc" points="1136.04,-33.0194 1136.61,-22.44 1129.56,-30.3528 1136.04,-33.0194"/>
</g>
<!-- _IntegerType&#45;&gt;Int16 -->
<g id="edge33" class="edge">
<path fill="none" stroke="#cccccc" d="M1615.57,-173.756C1597.98,-145.74 1548.86,-67.5202 1526,-31.1037"/>
<polygon fill="#cccccc" stroke="#cccccc" points="1528.82,-29.0158 1520.54,-22.4081 1522.89,-32.7382 1528.82,-29.0158"/>
</g>
<!-- _IntegerType&#45;&gt;Int32 -->
<g id="edge34" class="edge">
<path fill="none" stroke="#cccccc" d="M1618.74,-173.861C1615.85,-164.601 1611.7,-150.493 1609,-138 1601.03,-101.058 1595.23,-57.3094 1592.26,-32.2903"/>
<polygon fill="#cccccc" stroke="#cccccc" points="1595.72,-31.7371 1591.1,-22.2047 1588.77,-32.5402 1595.72,-31.7371"/>
</g>
<!-- _IntegerType&#45;&gt;Int64 -->
<g id="edge35" class="edge">
<path fill="none" stroke="#cccccc" d="M1581.76,-184.37C1452.76,-184.571 1053.81,-177.21 983,-80 965.202,-55.5656 1002.34,-35.4325 1033.49,-23.5726"/>
<polygon fill="#cccccc" stroke="#cccccc" points="1034.69,-26.8609 1042.89,-20.162 1032.3,-20.2801 1034.69,-26.8609"/>
</g>
<!-- _IntegerType&#45;&gt;Int8 -->
<g id="edge36" class="edge">
<path fill="none" stroke="#cccccc" d="M1581.87,-181.923C1490.17,-176.776 1271.43,-162.082 1249,-138 1224.75,-111.963 1233.54,-91.3263 1246,-58 1250.06,-47.1456 1257.96,-37.1608 1265.68,-29.2876"/>
<polygon fill="#cccccc" stroke="#cccccc" points="1268.34,-31.5866 1273.19,-22.1642 1263.53,-26.509 1268.34,-31.5866"/>
</g>
<!-- _IntegerType&#45;&gt;IntegerType -->
<g id="edge37" class="edge">
<path fill="none" stroke="#cccccc" d="M1627.9,-173.988C1632.3,-166.517 1638.45,-156.081 1643.78,-147.039"/>
<polygon fill="#cccccc" stroke="#cccccc" points="1646.87,-148.696 1648.93,-138.304 1640.84,-145.142 1646.87,-148.696"/>
</g>
<!-- _IntegerType&#45;&gt;UInt -->
<g id="edge38" class="edge">
<path fill="none" stroke="#cccccc" d="M1645.85,-173.892C1667.57,-164.654 1700.51,-150.558 1729,-138 1819.24,-98.2311 1925.23,-49.9217 1976.74,-26.3422"/>
<polygon fill="#cccccc" stroke="#cccccc" points="1978.36,-29.4466 1986,-22.1002 1975.45,-23.0825 1978.36,-29.4466"/>
</g>
<!-- _IntegerType&#45;&gt;UInt16 -->
<g id="edge39" class="edge">
<path fill="none" stroke="#cccccc" d="M1662.2,-183.608C1790.82,-181.993 2186.37,-174.109 2230,-138 2261.28,-112.111 2265.43,-60.7211 2265.1,-32.2211"/>
<polygon fill="#cccccc" stroke="#cccccc" points="2268.6,-32.0804 2264.79,-22.1947 2261.6,-32.2993 2268.6,-32.0804"/>
</g>
<!-- _IntegerType&#45;&gt;UInt32 -->
<g id="edge40" class="edge">
<path fill="none" stroke="#cccccc" d="M1662.14,-183.629C1787.57,-182.096 2170.88,-174.47 2289,-138 2367.07,-113.894 2446.96,-56.7805 2483.5,-28.4802"/>
<polygon fill="#cccccc" stroke="#cccccc" points="2485.72,-31.1871 2491.43,-22.2612 2481.4,-25.6794 2485.72,-31.1871"/>
</g>
<!-- _IntegerType&#45;&gt;UInt64 -->
<g id="edge41" class="edge">
<path fill="none" stroke="#cccccc" d="M1662.31,-184.077C1783.74,-183.838 2144.39,-179.556 2253,-138 2315.03,-114.269 2372.82,-58.6812 2399.9,-29.9301"/>
<polygon fill="#cccccc" stroke="#cccccc" points="2402.77,-31.9756 2406.99,-22.2568 2397.63,-27.2235 2402.77,-31.9756"/>
</g>
<!-- _IntegerType&#45;&gt;UInt8 -->
<g id="edge42" class="edge">
<path fill="none" stroke="#cccccc" d="M1640.75,-173.958C1656.86,-165.098 1680.49,-151.524 1700,-138 1751.82,-102.078 1808.4,-53.915 1837.07,-28.8134"/>
<polygon fill="#cccccc" stroke="#cccccc" points="1839.52,-31.3221 1844.71,-22.088 1834.89,-26.0674 1839.52,-31.3221"/>
</g>
<!-- _IntegerType&#45;&gt;_DisallowMixedSignArithmetic -->
<g id="edge43" class="edge">
<path fill="none" stroke="#cccccc" d="M1662.33,-179.606C1743.2,-170.796 1927.09,-150.761 2040.48,-138.407"/>
<polygon fill="#cccccc" stroke="#cccccc" points="2040.98,-141.873 2050.55,-137.31 2040.23,-134.914 2040.98,-141.873"/>
</g>
<!-- _SignedIntegerType -->
<g id="node37" class="node">
<g id="a_node37"><a xlink:href="/swift-2/protocol/_SignedIntegerType/" target="_top">
<path fill="#999999" stroke="#999999" d="M1368.23,-138C1368.23,-138 1265.77,-138 1265.77,-138 1262.1,-138 1258.44,-134.333 1258.44,-130.667 1258.44,-130.667 1258.44,-123.333 1258.44,-123.333 1258.44,-119.667 1262.1,-116 1265.77,-116 1265.77,-116 1368.23,-116 1368.23,-116 1371.9,-116 1375.56,-119.667 1375.56,-123.333 1375.56,-123.333 1375.56,-130.667 1375.56,-130.667 1375.56,-134.333 1371.9,-138 1368.23,-138"/>
<text text-anchor="middle" x="1317" y="-123.4" font-family="Helvetica,sans-Serif" font-size="12.00" fill="white">_SignedIntegerType</text>
</a>
</g>
</g>
<!-- _IntegerType&#45;&gt;_SignedIntegerType -->
<g id="edge44" class="edge">
<path fill="none" stroke="#cccccc" d="M1581.81,-176.621C1530.79,-167.253 1442.12,-150.973 1381.56,-139.854"/>
<polygon fill="#cccccc" stroke="#cccccc" points="1382.19,-136.41 1371.72,-138.047 1380.92,-143.295 1382.19,-136.41"/>
</g>
<!-- _SignedIntegerType&#45;&gt;Int -->
<g id="edge73" class="edge">
<path fill="none" stroke="#cccccc" d="M1258.24,-117.97C1213.87,-110.582 1158.28,-98.024 1144,-80 1133.48,-66.723 1134.12,-46.9764 1136.72,-32.1783"/>
<polygon fill="#cccccc" stroke="#cccccc" points="1140.22,-32.5318 1138.93,-22.0157 1133.38,-31.0406 1140.22,-32.5318"/>
</g>
<!-- _SignedIntegerType&#45;&gt;Int16 -->
<g id="edge74" class="edge">
<path fill="none" stroke="#cccccc" d="M1334.48,-115.883C1369.16,-95.8132 1446.84,-50.8613 1487.71,-27.2112"/>
<polygon fill="#cccccc" stroke="#cccccc" points="1489.65,-30.1321 1496.56,-22.0941 1486.15,-24.0734 1489.65,-30.1321"/>
</g>
<!-- _SignedIntegerType&#45;&gt;Int32 -->
<g id="edge75" class="edge">
<path fill="none" stroke="#cccccc" d="M1342.18,-115.878C1365.11,-106.63 1399.88,-92.529 1430,-80 1474.2,-61.6142 1525.04,-39.911 1557.33,-26.057"/>
<polygon fill="#cccccc" stroke="#cccccc" points="1558.92,-29.1832 1566.73,-22.0218 1556.16,-22.751 1558.92,-29.1832"/>
</g>
<!-- _SignedIntegerType&#45;&gt;Int64 -->
<g id="edge76" class="edge">
<path fill="none" stroke="#cccccc" d="M1258.37,-126.495C1174.28,-125.811 1025.82,-118.939 992,-80 973.956,-59.2218 1005.43,-38.9624 1033.63,-26.0406"/>
<polygon fill="#cccccc" stroke="#cccccc" points="1035.23,-29.1616 1042.99,-21.9495 1032.42,-22.7475 1035.23,-29.1616"/>
</g>
<!-- _SignedIntegerType&#45;&gt;Int8 -->
<g id="edge77" class="edge">
<path fill="none" stroke="#cccccc" d="M1293.27,-115.902C1278.77,-108.331 1261.43,-96.4376 1253,-80 1244.29,-63.0158 1256.13,-43.3796 1267.98,-29.5879"/>
<polygon fill="#cccccc" stroke="#cccccc" points="1270.59,-31.9261 1274.8,-22.2072 1265.45,-27.1744 1270.59,-31.9261"/>
</g>
<!-- _SignedIntegerType&#45;&gt;SignedIntegerType -->
<g id="edge78" class="edge">
<path fill="none" stroke="#cccccc" d="M1317,-115.988C1317,-108.91 1317,-99.1714 1317,-90.4779"/>
<polygon fill="#cccccc" stroke="#cccccc" points="1320.5,-90.3038 1317,-80.3039 1313.5,-90.3039 1320.5,-90.3038"/>
</g>
</g>
</svg>
