<?xml version="1.0" encoding="UTF-8" standalone="no"?>
<!DOCTYPE svg PUBLIC "-//W3C//DTD SVG 1.1//EN"
 "http://www.w3.org/Graphics/SVG/1.1/DTD/svg11.dtd">
<!-- Generated by graphviz version 2.36.0 (20140111.2315)
 -->
<!-- Title: String.CharacterView &#45; Type Hierarchy &#45; SwiftDoc.org Pages: 1 -->
<svg width="518pt" height="427pt"
 viewBox="0.00 0.00 518.40 427.20" xmlns="http://www.w3.org/2000/svg" xmlns:xlink="http://www.w3.org/1999/xlink">
<g id="graph0" class="graph" transform="scale(1 1) rotate(0) translate(7.2 369.6)">
<title>String.CharacterView &#45; Type Hierarchy &#45; SwiftDoc.org</title>
<polygon fill="white" stroke="none" points="-7.2,57.6 -7.2,-369.6 511.2,-369.6 511.2,57.6 -7.2,57.6"/>
<!-- CollectionType -->
<g id="node1" class="node"><title>CollectionType</title>
<g id="a_node1"><a xlink:href="/protocol/CollectionType/" xlink:title="CollectionType">
<path fill="#999999" stroke="#999999" d="M308.704,-196C308.704,-196 235.296,-196 235.296,-196 231.63,-196 227.963,-192.333 227.963,-188.667 227.963,-188.667 227.963,-181.333 227.963,-181.333 227.963,-177.667 231.63,-174 235.296,-174 235.296,-174 308.704,-174 308.704,-174 312.37,-174 316.037,-177.667 316.037,-181.333 316.037,-181.333 316.037,-188.667 316.037,-188.667 316.037,-192.333 312.37,-196 308.704,-196"/>
<text text-anchor="middle" x="272" y="-181.4" font-family="Helvetica,sans-Serif" font-size="12.00" fill="white">CollectionType</text>
</a>
</g>
</g>
<!-- ExtensibleCollectionType -->
<g id="node2" class="node"><title>ExtensibleCollectionType</title>
<g id="a_node2"><a xlink:href="/protocol/ExtensibleCollectionType/" xlink:title="ExtensibleCollectionType">
<path fill="#999999" stroke="#999999" d="M286.727,-138C286.727,-138 157.273,-138 157.273,-138 153.607,-138 149.94,-134.333 149.94,-130.667 149.94,-130.667 149.94,-123.333 149.94,-123.333 149.94,-119.667 153.607,-116 157.273,-116 157.273,-116 286.727,-116 286.727,-116 290.393,-116 294.06,-119.667 294.06,-123.333 294.06,-123.333 294.06,-130.667 294.06,-130.667 294.06,-134.333 290.393,-138 286.727,-138"/>
<text text-anchor="middle" x="222" y="-123.4" font-family="Helvetica,sans-Serif" font-size="12.00" fill="white">ExtensibleCollectionType</text>
</a>
</g>
</g>
<!-- CollectionType&#45;&gt;ExtensibleCollectionType -->
<g id="edge13" class="edge"><title>CollectionType&#45;&gt;ExtensibleCollectionType</title>
<path fill="none" stroke="#cccccc" d="M263.061,-173.988C256.109,-166.202 246.283,-155.197 237.987,-145.905"/>
<polygon fill="#cccccc" stroke="#cccccc" points="240.471,-143.432 231.2,-138.304 235.249,-148.094 240.471,-143.432"/>
</g>
<!-- String.CharacterView -->
<g id="node6" class="node"><title>String.CharacterView</title>
<g id="a_node6"><a xlink:href="/type/String.CharacterView/" xlink:title="String.CharacterView">
<polygon fill="#ee543d" stroke="#ee543d" points="364.376,-22 241.624,-22 241.624,-0 364.376,-0 364.376,-22"/>
<text text-anchor="middle" x="303" y="-7.4" font-family="Helvetica,sans-Serif" font-size="12.00" fill="white">String.CharacterView</text>
</a>
</g>
</g>
<!-- CollectionType&#45;&gt;String.CharacterView -->
<g id="edge1" class="edge"><title>CollectionType&#45;&gt;String.CharacterView</title>
<path fill="none" stroke="#cccccc" d="M281.372,-173.977C288.862,-165.234 298.779,-151.815 303,-138 313.974,-102.079 310.227,-57.6612 306.57,-32.304"/>
<polygon fill="#cccccc" stroke="#cccccc" points="309.973,-31.4211 304.949,-22.0936 303.06,-32.5187 309.973,-31.4211"/>
</g>
<!-- _Sliceable -->
<g id="node9" class="node"><title>_Sliceable</title>
<g id="a_node9"><a xlink:href="/protocol/_Sliceable/" xlink:title="_Sliceable">
<path fill="#999999" stroke="#999999" d="M408.194,-138C408.194,-138 357.806,-138 357.806,-138 354.139,-138 350.473,-134.333 350.473,-130.667 350.473,-130.667 350.473,-123.333 350.473,-123.333 350.473,-119.667 354.139,-116 357.806,-116 357.806,-116 408.194,-116 408.194,-116 411.861,-116 415.527,-119.667 415.527,-123.333 415.527,-123.333 415.527,-130.667 415.527,-130.667 415.527,-134.333 411.861,-138 408.194,-138"/>
<text text-anchor="middle" x="383" y="-123.4" font-family="Helvetica,sans-Serif" font-size="12.00" fill="white">_Sliceable</text>
</a>
</g>
</g>
<!-- CollectionType&#45;&gt;_Sliceable -->
<g id="edge16" class="edge"><title>CollectionType&#45;&gt;_Sliceable</title>
<path fill="none" stroke="#cccccc" d="M291.845,-173.988C309.1,-165.283 334.331,-152.554 353.875,-142.694"/>
<polygon fill="#cccccc" stroke="#cccccc" points="355.601,-145.743 362.953,-138.114 352.448,-139.493 355.601,-145.743"/>
</g>
<!-- RangeReplaceableCollectionType -->
<g id="node3" class="node"><title>RangeReplaceableCollectionType</title>
<g id="a_node3"><a xlink:href="/protocol/RangeReplaceableCollectionType/" xlink:title="RangeReplaceableCollectionType">
<path fill="#999999" stroke="#999999" d="M248.76,-80C248.76,-80 73.2397,-80 73.2397,-80 69.5731,-80 65.9064,-76.3333 65.9064,-72.6667 65.9064,-72.6667 65.9064,-65.3333 65.9064,-65.3333 65.9064,-61.6667 69.5731,-58 73.2397,-58 73.2397,-58 248.76,-58 248.76,-58 252.427,-58 256.094,-61.6667 256.094,-65.3333 256.094,-65.3333 256.094,-72.6667 256.094,-72.6667 256.094,-76.3333 252.427,-80 248.76,-80"/>
<text text-anchor="middle" x="161" y="-65.4" font-family="Helvetica,sans-Serif" font-size="12.00" fill="white">RangeReplaceableCollectionType</text>
</a>
</g>
</g>
<!-- ExtensibleCollectionType&#45;&gt;RangeReplaceableCollectionType -->
<g id="edge14" class="edge"><title>ExtensibleCollectionType&#45;&gt;RangeReplaceableCollectionType</title>
<path fill="none" stroke="#cccccc" d="M211.094,-115.988C202.441,-108.045 190.14,-96.7512 179.892,-87.3439"/>
<polygon fill="#cccccc" stroke="#cccccc" points="181.957,-84.4883 172.224,-80.3039 177.223,-89.6449 181.957,-84.4883"/>
</g>
<!-- ExtensibleCollectionType&#45;&gt;String.CharacterView -->
<g id="edge5" class="edge"><title>ExtensibleCollectionType&#45;&gt;String.CharacterView</title>
<path fill="none" stroke="#cccccc" d="M233.038,-115.683C242.23,-106.76 255.331,-93.2438 265,-80 276.294,-64.531 286.722,-45.3659 293.785,-31.3285"/>
<polygon fill="#cccccc" stroke="#cccccc" points="297.032,-32.6584 298.298,-22.1396 290.748,-29.5725 297.032,-32.6584"/>
</g>
<!-- RangeReplaceableCollectionType&#45;&gt;String.CharacterView -->
<g id="edge6" class="edge"><title>RangeReplaceableCollectionType&#45;&gt;String.CharacterView</title>
<path fill="none" stroke="#cccccc" d="M186.387,-57.9883C209.064,-49.0453 242.506,-35.8566 267.77,-25.8935"/>
<polygon fill="#cccccc" stroke="#cccccc" points="269.336,-29.0385 277.354,-22.1138 266.767,-22.5266 269.336,-29.0385"/>
</g>
<!-- SequenceType -->
<g id="node4" class="node"><title>SequenceType</title>
<g id="a_node4"><a xlink:href="/protocol/SequenceType/" xlink:title="SequenceType">
<path fill="#999999" stroke="#999999" d="M148.718,-312C148.718,-312 73.2821,-312 73.2821,-312 69.6154,-312 65.9487,-308.333 65.9487,-304.667 65.9487,-304.667 65.9487,-297.333 65.9487,-297.333 65.9487,-293.667 69.6154,-290 73.2821,-290 73.2821,-290 148.718,-290 148.718,-290 152.385,-290 156.051,-293.667 156.051,-297.333 156.051,-297.333 156.051,-304.667 156.051,-304.667 156.051,-308.333 152.385,-312 148.718,-312"/>
<text text-anchor="middle" x="111" y="-297.4" font-family="Helvetica,sans-Serif" font-size="12.00" fill="white">SequenceType</text>
</a>
</g>
</g>
<!-- SequenceType&#45;&gt;CollectionType -->
<g id="edge9" class="edge"><title>SequenceType&#45;&gt;CollectionType</title>
<path fill="none" stroke="#cccccc" d="M129.779,-289.992C145.897,-281.154 169.537,-267.592 189,-254 212.02,-237.924 236.705,-217.206 253.115,-202.884"/>
<polygon fill="#cccccc" stroke="#cccccc" points="255.698,-205.273 260.889,-196.037 251.071,-200.02 255.698,-205.273"/>
</g>
<!-- SequenceType&#45;&gt;String.CharacterView -->
<g id="edge2" class="edge"><title>SequenceType&#45;&gt;String.CharacterView</title>
<path fill="none" stroke="#cccccc" d="M85.5498,-289.983C68.5959,-282.255 46.7953,-270.149 32,-254 9.43652,-229.372 0,-219.401 0,-186 0,-186 0,-186 0,-126 0,-90.4778 12.6018,-77.9393 42,-58 72.1978,-37.5184 165.164,-24.7586 231.528,-18.0144"/>
<polygon fill="#cccccc" stroke="#cccccc" points="231.92,-21.4927 241.526,-17.023 231.23,-14.5269 231.92,-21.4927"/>
</g>
<!-- _CollectionDefaultsType -->
<g id="node7" class="node"><title>_CollectionDefaultsType</title>
<g id="a_node7"><a xlink:href="/protocol/_CollectionDefaultsType/" xlink:title="_CollectionDefaultsType">
<path fill="#999999" stroke="#999999" d="M173.224,-254C173.224,-254 48.7762,-254 48.7762,-254 45.1095,-254 41.4428,-250.333 41.4428,-246.667 41.4428,-246.667 41.4428,-239.333 41.4428,-239.333 41.4428,-235.667 45.1095,-232 48.7762,-232 48.7762,-232 173.224,-232 173.224,-232 176.891,-232 180.557,-235.667 180.557,-239.333 180.557,-239.333 180.557,-246.667 180.557,-246.667 180.557,-250.333 176.891,-254 173.224,-254"/>
<text text-anchor="middle" x="111" y="-239.4" font-family="Helvetica,sans-Serif" font-size="12.00" fill="white">_CollectionDefaultsType</text>
</a>
</g>
</g>
<!-- SequenceType&#45;&gt;_CollectionDefaultsType -->
<g id="edge12" class="edge"><title>SequenceType&#45;&gt;_CollectionDefaultsType</title>
<path fill="none" stroke="#cccccc" d="M111,-289.988C111,-282.91 111,-273.171 111,-264.478"/>
<polygon fill="#cccccc" stroke="#cccccc" points="114.5,-264.304 111,-254.304 107.5,-264.304 114.5,-264.304"/>
</g>
<!-- Sliceable -->
<g id="node5" class="node"><title>Sliceable</title>
<g id="a_node5"><a xlink:href="/protocol/Sliceable/" xlink:title="Sliceable">
<path fill="#999999" stroke="#999999" d="M400.691,-80C400.691,-80 357.309,-80 357.309,-80 353.642,-80 349.975,-76.3333 349.975,-72.6667 349.975,-72.6667 349.975,-65.3333 349.975,-65.3333 349.975,-61.6667 353.642,-58 357.309,-58 357.309,-58 400.691,-58 400.691,-58 404.358,-58 408.025,-61.6667 408.025,-65.3333 408.025,-65.3333 408.025,-72.6667 408.025,-72.6667 408.025,-76.3333 404.358,-80 400.691,-80"/>
<text text-anchor="middle" x="379" y="-65.4" font-family="Helvetica,sans-Serif" font-size="12.00" fill="white">Sliceable</text>
</a>
</g>
</g>
<!-- Sliceable&#45;&gt;String.CharacterView -->
<g id="edge7" class="edge"><title>Sliceable&#45;&gt;String.CharacterView</title>
<path fill="none" stroke="#cccccc" d="M365.413,-57.9883C354.135,-49.6784 337.882,-37.7028 324.789,-28.0554"/>
<polygon fill="#cccccc" stroke="#cccccc" points="326.853,-25.2281 316.726,-22.1138 322.7,-30.8635 326.853,-25.2281"/>
</g>
<!-- _CollectionDefaultsType&#45;&gt;CollectionType -->
<g id="edge10" class="edge"><title>_CollectionDefaultsType&#45;&gt;CollectionType</title>
<path fill="none" stroke="#cccccc" d="M139.784,-231.988C165.917,-222.898 204.661,-209.422 233.46,-199.405"/>
<polygon fill="#cccccc" stroke="#cccccc" points="234.9,-202.61 243.195,-196.019 232.6,-195.999 234.9,-202.61"/>
</g>
<!-- _CollectionDefaultsType&#45;&gt;String.CharacterView -->
<g id="edge3" class="edge"><title>_CollectionDefaultsType&#45;&gt;String.CharacterView</title>
<path fill="none" stroke="#cccccc" d="M102.421,-231.952C77.908,-201.998 12.1254,-112.044 57,-58 78.8676,-31.6643 167.013,-20.3211 231.563,-15.4918"/>
<polygon fill="#cccccc" stroke="#cccccc" points="231.979,-18.9711 241.706,-14.7713 231.483,-11.9887 231.979,-18.9711"/>
</g>
<!-- _CollectionGeneratorDefaultsType -->
<g id="node8" class="node"><title>_CollectionGeneratorDefaultsType</title>
<g id="a_node8"><a xlink:href="/protocol/_CollectionGeneratorDefaultsType/" xlink:title="_CollectionGeneratorDefaultsType">
<path fill="#999999" stroke="#999999" d="M496.246,-254C496.246,-254 317.754,-254 317.754,-254 314.087,-254 310.421,-250.333 310.421,-246.667 310.421,-246.667 310.421,-239.333 310.421,-239.333 310.421,-235.667 314.087,-232 317.754,-232 317.754,-232 496.246,-232 496.246,-232 499.913,-232 503.579,-235.667 503.579,-239.333 503.579,-239.333 503.579,-246.667 503.579,-246.667 503.579,-250.333 499.913,-254 496.246,-254"/>
<text text-anchor="middle" x="407" y="-239.4" font-family="Helvetica,sans-Serif" font-size="12.00" fill="white">_CollectionGeneratorDefaultsType</text>
</a>
</g>
</g>
<!-- _CollectionGeneratorDefaultsType&#45;&gt;CollectionType -->
<g id="edge11" class="edge"><title>_CollectionGeneratorDefaultsType&#45;&gt;CollectionType</title>
<path fill="none" stroke="#cccccc" d="M382.865,-231.988C361.401,-223.085 329.793,-209.973 305.812,-200.026"/>
<polygon fill="#cccccc" stroke="#cccccc" points="306.959,-196.713 296.382,-196.114 304.277,-203.178 306.959,-196.713"/>
</g>
<!-- _CollectionGeneratorDefaultsType&#45;&gt;String.CharacterView -->
<g id="edge4" class="edge"><title>_CollectionGeneratorDefaultsType&#45;&gt;String.CharacterView</title>
<path fill="none" stroke="#cccccc" d="M413.099,-231.671C429.921,-201.696 473.205,-113.318 434,-58 420.097,-38.3829 397.139,-27.0693 374.294,-20.5668"/>
<polygon fill="#cccccc" stroke="#cccccc" points="375.093,-17.1585 364.537,-18.0644 373.354,-23.939 375.093,-17.1585"/>
</g>
<!-- _Sliceable&#45;&gt;Sliceable -->
<g id="edge15" class="edge"><title>_Sliceable&#45;&gt;Sliceable</title>
<path fill="none" stroke="#cccccc" d="M382.285,-115.988C381.779,-108.91 381.084,-99.1714 380.463,-90.4779"/>
<polygon fill="#cccccc" stroke="#cccccc" points="383.94,-90.0291 379.736,-80.3039 376.957,-90.5279 383.94,-90.0291"/>
</g>
<!-- _Sliceable&#45;&gt;String.CharacterView -->
<g id="edge8" class="edge"><title>_Sliceable&#45;&gt;String.CharacterView</title>
<path fill="none" stroke="#cccccc" d="M394.693,-115.87C409.051,-102.176 429.994,-77.2559 417,-58 406.574,-42.551 389.996,-32.2892 372.676,-25.4734"/>
<polygon fill="#cccccc" stroke="#cccccc" points="373.606,-22.0894 363.011,-22.0303 371.257,-28.6834 373.606,-22.0894"/>
</g>
</g>
</svg>
