<?xml version="1.0" encoding="UTF-8" standalone="no"?>
<!DOCTYPE svg PUBLIC "-//W3C//DTD SVG 1.1//EN"
 "http://www.w3.org/Graphics/SVG/1.1/DTD/svg11.dtd">
<!-- Generated by graphviz version 2.36.0 (20140111.2315)
 -->
<!-- Title: String.CharacterView &#45; Type Hierarchy &#45; SwiftDoc.org Pages: 1 -->
<svg width="518pt" height="427pt"
 viewBox="0.00 0.00 518.40 427.20" xmlns="http://www.w3.org/2000/svg" xmlns:xlink="http://www.w3.org/1999/xlink">
<g id="graph0" class="graph" transform="scale(1 1) rotate(0) translate(7.2 369.6)">
<g transform="translate(0 -369.6)">
<g>
    <path fill="#666666" d="M13.846,10.832c-0.336-0.464-0.792-0.844-1.368-1.14s-1.224-0.444-1.944-0.444
        c-0.384,0-0.772,0.052-1.164,0.156C8.977,9.509,8.622,9.677,8.301,9.908c-0.32,0.232-0.58,0.52-0.78,0.864
        c-0.2,0.344-0.3,0.756-0.3,1.236c0,0.464,0.092,0.852,0.276,1.164c0.184,0.312,0.432,0.576,0.744,0.792s0.68,0.4,1.104,0.552
        c0.423,0.152,0.876,0.309,1.356,0.468c0.576,0.177,1.16,0.376,1.752,0.601c0.592,0.224,1.128,0.52,1.608,0.888
        s0.872,0.828,1.176,1.38s0.456,1.252,0.456,2.101c0,0.88-0.164,1.644-0.492,2.292c-0.328,0.647-0.765,1.184-1.308,1.607
        c-0.544,0.424-1.172,0.74-1.884,0.948s-1.444,0.312-2.196,0.312c-1.072,0-2.108-0.208-3.108-0.624
        c-1-0.415-1.828-1.031-2.484-1.848l1.848-1.56c0.4,0.592,0.936,1.071,1.608,1.439c0.672,0.368,1.399,0.552,2.184,0.552
        c0.4,0,0.8-0.056,1.2-0.168c0.4-0.111,0.764-0.288,1.092-0.527c0.328-0.24,0.596-0.54,0.804-0.9
        c0.208-0.36,0.312-0.796,0.312-1.308s-0.108-0.94-0.324-1.284c-0.216-0.344-0.508-0.636-0.876-0.876s-0.796-0.444-1.284-0.612
        c-0.488-0.168-1.004-0.34-1.548-0.516c-0.544-0.16-1.08-0.356-1.608-0.588c-0.528-0.232-1-0.528-1.416-0.889
        c-0.416-0.359-0.752-0.804-1.008-1.332c-0.256-0.527-0.384-1.184-0.384-1.968c0-0.848,0.172-1.576,0.516-2.184
        c0.344-0.608,0.792-1.112,1.344-1.512c0.552-0.4,1.176-0.692,1.872-0.876c0.696-0.184,1.396-0.276,2.1-0.276
        c0.992,0,1.92,0.176,2.784,0.528c0.864,0.352,1.56,0.824,2.088,1.416L13.846,10.832z"/>
    <path fill="#666666" d="M18.813,13.304l2.568,8.688h0.048l2.712-8.688h2.376l2.76,8.688h0.048l2.568-8.688h2.376L30.501,24.68
        h-2.352l-2.808-8.544h-0.048l-2.784,8.544h-2.352l-3.792-11.376H18.813z"/>
    <path fill="#666666" d="M38.685,9.2c0,0.416-0.147,0.76-0.44,1.032c-0.294,0.272-0.647,0.408-1.06,0.408s-0.762-0.14-1.047-0.42
        c-0.286-0.28-0.429-0.62-0.429-1.02c0-0.416,0.143-0.764,0.429-1.044c0.286-0.28,0.635-0.42,1.047-0.42s0.766,0.14,1.06,0.42
        C38.538,8.437,38.685,8.784,38.685,9.2z M38.325,24.68h-2.256V13.304h2.256V24.68z"/>
    <path fill="#666666" d="M47.613,15.152h-2.64v9.528h-2.256v-9.528h-2.256v-1.848h2.256v-2.376c0-0.672,0.076-1.292,0.228-1.86
        c0.152-0.568,0.4-1.06,0.744-1.476c0.344-0.416,0.784-0.744,1.32-0.984c0.536-0.24,1.188-0.36,1.956-0.36
        c0.544,0,1.016,0.056,1.416,0.168l-0.264,1.944c-0.176-0.048-0.352-0.088-0.528-0.12c-0.176-0.032-0.376-0.048-0.6-0.048
        c-0.432,0-0.78,0.076-1.044,0.228c-0.264,0.152-0.468,0.356-0.612,0.612s-0.24,0.548-0.288,0.876
        c-0.048,0.328-0.072,0.668-0.072,1.02v2.376h2.64V15.152z"/>
    <path fill="#666666" d="M54.909,15.152h-3.024v5.91c0,0.687,0.128,1.177,0.384,1.472c0.256,0.295,0.664,0.442,1.224,0.442
        c0.208,0,0.432-0.021,0.672-0.065c0.24-0.044,0.456-0.11,0.648-0.198l0.072,1.848c-0.272,0.096-0.572,0.172-0.9,0.229
        c-0.328,0.056-0.668,0.084-1.02,0.084c-1.072,0-1.892-0.296-2.46-0.889c-0.568-0.592-0.852-1.479-0.852-2.664v-6.168h-2.184
        v-1.848h2.184V10.04h2.232v3.264h3.024V15.152z"/>
    <path fill="#666666" d="M57.356,7.688h5.832c1.088,0,2.176,0.16,3.264,0.48c1.088,0.32,2.072,0.824,2.952,1.512
        s1.592,1.568,2.136,2.64c0.544,1.072,0.816,2.36,0.816,3.864c0,1.456-0.272,2.716-0.816,3.78s-1.256,1.943-2.136,2.64
        s-1.864,1.216-2.952,1.561c-1.088,0.344-2.176,0.516-3.264,0.516h-5.832V7.688z M59.732,22.593h2.976
        c1.024,0,1.972-0.145,2.844-0.432c0.872-0.288,1.624-0.704,2.256-1.248c0.632-0.544,1.124-1.216,1.476-2.017
        c0.352-0.8,0.528-1.704,0.528-2.712c0-1.056-0.176-1.983-0.528-2.784c-0.353-0.8-0.844-1.468-1.476-2.004
        c-0.632-0.536-1.384-0.944-2.256-1.224s-1.82-0.42-2.844-0.42h-2.976V22.593z"/>
    <path fill="#666666" d="M86.06,18.969c0,0.88-0.156,1.688-0.468,2.424c-0.312,0.736-0.744,1.372-1.296,1.908
        c-0.552,0.536-1.204,0.952-1.956,1.248c-0.752,0.296-1.56,0.443-2.424,0.443c-0.864,0-1.672-0.147-2.424-0.443
        c-0.752-0.296-1.4-0.712-1.944-1.248c-0.544-0.536-0.972-1.172-1.284-1.908c-0.312-0.735-0.468-1.544-0.468-2.424
        s0.156-1.684,0.468-2.412c0.312-0.728,0.74-1.356,1.284-1.884c0.543-0.528,1.191-0.939,1.944-1.236
        c0.752-0.296,1.56-0.444,2.424-0.444c0.864,0,1.672,0.148,2.424,0.444c0.752,0.297,1.404,0.708,1.956,1.236
        c0.552,0.527,0.984,1.156,1.296,1.884C85.904,17.285,86.06,18.089,86.06,18.969z M83.708,18.98c0-0.542-0.084-1.061-0.252-1.556
        c-0.169-0.494-0.414-0.929-0.734-1.304s-0.718-0.674-1.192-0.897s-1.015-0.335-1.625-0.335c-0.61,0-1.152,0.111-1.625,0.335
        c-0.474,0.224-0.871,0.522-1.191,0.897c-0.321,0.375-0.566,0.81-0.734,1.304C76.184,17.92,76.1,18.438,76.1,18.98
        c0,0.543,0.084,1.062,0.253,1.556c0.168,0.495,0.413,0.934,0.734,1.316c0.321,0.383,0.718,0.686,1.191,0.909
        c0.473,0.224,1.015,0.335,1.625,0.335c0.61,0,1.151-0.111,1.625-0.335s0.871-0.526,1.192-0.909s0.565-0.821,0.734-1.316
        C83.624,20.042,83.708,19.523,83.708,18.98z"/>
    <path fill="#666666" d="M96.428,16.184c-0.24-0.368-0.6-0.676-1.08-0.924s-0.992-0.372-1.536-0.372
        c-0.592,0-1.116,0.112-1.572,0.336c-0.456,0.225-0.844,0.524-1.164,0.9c-0.32,0.376-0.564,0.812-0.732,1.308
        s-0.252,1.017-0.252,1.56c0,0.545,0.084,1.064,0.252,1.561s0.412,0.933,0.732,1.308c0.32,0.376,0.712,0.677,1.176,0.9
        c0.464,0.225,0.992,0.336,1.584,0.336c0.576,0,1.1-0.111,1.572-0.336c0.472-0.224,0.86-0.528,1.164-0.912l1.512,1.368
        c-0.48,0.561-1.08,0.996-1.8,1.308c-0.72,0.312-1.536,0.468-2.448,0.468c-0.88,0-1.692-0.144-2.436-0.432
        c-0.744-0.288-1.388-0.691-1.932-1.212c-0.544-0.52-0.972-1.147-1.284-1.884s-0.468-1.561-0.468-2.473
        c0-0.896,0.152-1.711,0.456-2.447c0.304-0.736,0.728-1.368,1.272-1.896c0.543-0.527,1.188-0.936,1.932-1.224
        c0.744-0.288,1.548-0.433,2.412-0.433c0.8,0,1.596,0.16,2.388,0.48s1.419,0.784,1.884,1.392L96.428,16.184z"/>
    <path fill="#666666" d="M103.1,23.24c0,0.417-0.152,0.784-0.456,1.104c-0.304,0.32-0.688,0.479-1.152,0.479
        c-0.448,0-0.828-0.155-1.14-0.468c-0.312-0.312-0.468-0.676-0.468-1.092c0-0.432,0.152-0.804,0.456-1.116
        c0.304-0.312,0.688-0.468,1.152-0.468c0.464,0,0.848,0.152,1.152,0.456C102.947,22.44,103.1,22.808,103.1,23.24z"/>
    <path fill="#666666" d="M116.635,18.969c0,0.88-0.156,1.688-0.468,2.424c-0.312,0.736-0.744,1.372-1.296,1.908
        c-0.552,0.536-1.204,0.952-1.956,1.248c-0.752,0.296-1.56,0.443-2.424,0.443c-0.864,0-1.672-0.147-2.424-0.443
        c-0.752-0.296-1.4-0.712-1.944-1.248c-0.544-0.536-0.972-1.172-1.284-1.908c-0.312-0.735-0.468-1.544-0.468-2.424
        s0.156-1.684,0.468-2.412c0.312-0.728,0.74-1.356,1.284-1.884c0.543-0.528,1.191-0.939,1.944-1.236
        c0.752-0.296,1.56-0.444,2.424-0.444c0.864,0,1.672,0.148,2.424,0.444c0.752,0.297,1.404,0.708,1.956,1.236
        c0.552,0.527,0.984,1.156,1.296,1.884C116.479,17.285,116.635,18.089,116.635,18.969z M114.283,18.98
        c0-0.542-0.084-1.061-0.252-1.556c-0.169-0.494-0.414-0.929-0.734-1.304s-0.718-0.674-1.192-0.897s-1.015-0.335-1.625-0.335
        c-0.61,0-1.152,0.111-1.625,0.335c-0.474,0.224-0.871,0.522-1.191,0.897c-0.321,0.375-0.566,0.81-0.734,1.304
        c-0.169,0.495-0.253,1.014-0.253,1.556c0,0.543,0.084,1.062,0.253,1.556c0.168,0.495,0.413,0.934,0.734,1.316
        c0.321,0.383,0.718,0.686,1.191,0.909c0.473,0.224,1.015,0.335,1.625,0.335c0.61,0,1.151-0.111,1.625-0.335
        s0.871-0.526,1.192-0.909s0.565-0.821,0.734-1.316C114.199,20.042,114.283,19.523,114.283,18.98z"/>
    <path fill="#666666" d="M119.251,14.577c-0.016-0.48-0.04-0.904-0.072-1.272h2.136c0.032,0.288,0.056,0.62,0.072,0.996
        c0.016,0.376,0.024,0.684,0.024,0.924h0.072c0.32-0.672,0.788-1.212,1.404-1.62c0.616-0.408,1.308-0.612,2.076-0.612
        c0.352,0,0.648,0.033,0.888,0.097l-0.096,2.088c-0.32-0.08-0.664-0.12-1.032-0.12c-0.544,0-1.016,0.101-1.416,0.3
        c-0.4,0.2-0.732,0.468-0.996,0.805c-0.264,0.336-0.46,0.724-0.588,1.163c-0.128,0.44-0.192,0.9-0.192,1.381v5.976h-2.256v-8.928
        C119.275,15.449,119.267,15.056,119.251,14.577z"/>
    <path fill="#666666" d="M128.419,26.625c0.496,0.56,1.116,1.008,1.86,1.344c0.744,0.336,1.508,0.504,2.292,0.504
        c0.752,0,1.384-0.108,1.896-0.324s0.924-0.512,1.236-0.888s0.536-0.82,0.672-1.332c0.136-0.513,0.204-1.064,0.204-1.656v-1.464
        h-0.048c-0.416,0.641-0.984,1.128-1.704,1.464c-0.72,0.336-1.488,0.504-2.304,0.504c-0.864,0-1.652-0.151-2.364-0.456
        c-0.712-0.304-1.316-0.72-1.812-1.248c-0.496-0.527-0.88-1.147-1.152-1.859s-0.408-1.477-0.408-2.292
        c0-0.816,0.136-1.584,0.408-2.305c0.272-0.72,0.656-1.348,1.152-1.884c0.496-0.535,1.096-0.96,1.8-1.271
        c0.704-0.312,1.488-0.469,2.352-0.469c0.816,0,1.596,0.177,2.34,0.528c0.744,0.353,1.332,0.888,1.764,1.608h0.048v-1.824h2.184
        v10.8c0,0.832-0.104,1.628-0.312,2.388c-0.208,0.76-0.56,1.433-1.056,2.017s-1.144,1.052-1.944,1.404
        c-0.8,0.352-1.792,0.527-2.976,0.527c-0.992,0-1.988-0.18-2.988-0.54c-1-0.359-1.86-0.868-2.58-1.523L128.419,26.625z
         M129.091,18.873c0,0.527,0.084,1.031,0.253,1.512c0.168,0.479,0.417,0.904,0.746,1.271c0.329,0.369,0.726,0.664,1.192,0.889
        c0.465,0.224,0.995,0.336,1.589,0.336c0.577,0,1.107-0.104,1.589-0.312c0.481-0.207,0.891-0.491,1.228-0.852
        s0.598-0.784,0.782-1.272c0.185-0.487,0.277-1.012,0.277-1.571c0-0.544-0.093-1.057-0.277-1.536
        c-0.185-0.48-0.449-0.904-0.794-1.272c-0.345-0.367-0.755-0.66-1.228-0.876c-0.474-0.216-1-0.324-1.577-0.324
        c-0.594,0-1.124,0.108-1.589,0.324c-0.466,0.216-0.863,0.504-1.192,0.864s-0.578,0.784-0.746,1.271
        C129.175,17.812,129.091,18.329,129.091,18.873z"/>
</g>
<g><a xlink:href="/" pointer-events="all" target="_top"><polygon fill="none" points="0,0 145,0 145,35 0,35 0,0"/></a></g>

</g>


<!-- CollectionType -->
<g id="node1" class="node">
<g id="a_node1"><a xlink:href="/swift-2/protocol/CollectionType/" target="_top">
<path fill="#999999" stroke="#999999" d="M308.704,-196C308.704,-196 235.296,-196 235.296,-196 231.63,-196 227.963,-192.333 227.963,-188.667 227.963,-188.667 227.963,-181.333 227.963,-181.333 227.963,-177.667 231.63,-174 235.296,-174 235.296,-174 308.704,-174 308.704,-174 312.37,-174 316.037,-177.667 316.037,-181.333 316.037,-181.333 316.037,-188.667 316.037,-188.667 316.037,-192.333 312.37,-196 308.704,-196"/>
<text text-anchor="middle" x="272" y="-181.4" font-family="Helvetica,sans-Serif" font-size="12.00" fill="white">CollectionType</text>
</a>
</g>
</g>
<!-- ExtensibleCollectionType -->
<g id="node2" class="node">
<g id="a_node2"><a xlink:href="/swift-2/protocol/ExtensibleCollectionType/" target="_top">
<path fill="#999999" stroke="#999999" d="M286.727,-138C286.727,-138 157.273,-138 157.273,-138 153.607,-138 149.94,-134.333 149.94,-130.667 149.94,-130.667 149.94,-123.333 149.94,-123.333 149.94,-119.667 153.607,-116 157.273,-116 157.273,-116 286.727,-116 286.727,-116 290.393,-116 294.06,-119.667 294.06,-123.333 294.06,-123.333 294.06,-130.667 294.06,-130.667 294.06,-134.333 290.393,-138 286.727,-138"/>
<text text-anchor="middle" x="222" y="-123.4" font-family="Helvetica,sans-Serif" font-size="12.00" fill="white">ExtensibleCollectionType</text>
</a>
</g>
</g>
<!-- CollectionType&#45;&gt;ExtensibleCollectionType -->
<g id="edge13" class="edge">
<path fill="none" stroke="#cccccc" d="M263.061,-173.988C256.109,-166.202 246.283,-155.197 237.987,-145.905"/>
<polygon fill="#cccccc" stroke="#cccccc" points="240.471,-143.432 231.2,-138.304 235.249,-148.094 240.471,-143.432"/>
</g>
<!-- String.CharacterView -->
<g id="node6" class="node">
<g id="a_node6"><a xlink:href="/swift-2/type/String.CharacterView/" target="_top">
<polygon fill="#ee543d" stroke="#ee543d" points="364.376,-22 241.624,-22 241.624,-0 364.376,-0 364.376,-22"/>
<text text-anchor="middle" x="303" y="-7.4" font-family="Helvetica,sans-Serif" font-size="12.00" fill="white">String.CharacterView</text>
</a>
</g>
</g>
<!-- CollectionType&#45;&gt;String.CharacterView -->
<g id="edge1" class="edge">
<path fill="none" stroke="#cccccc" d="M281.372,-173.977C288.862,-165.234 298.779,-151.815 303,-138 313.974,-102.079 310.227,-57.6612 306.57,-32.304"/>
<polygon fill="#cccccc" stroke="#cccccc" points="309.973,-31.4211 304.949,-22.0936 303.06,-32.5187 309.973,-31.4211"/>
</g>
<!-- _Sliceable -->
<g id="node9" class="node">
<g id="a_node9"><a xlink:href="/swift-2/protocol/_Sliceable/" target="_top">
<path fill="#999999" stroke="#999999" d="M408.194,-138C408.194,-138 357.806,-138 357.806,-138 354.139,-138 350.473,-134.333 350.473,-130.667 350.473,-130.667 350.473,-123.333 350.473,-123.333 350.473,-119.667 354.139,-116 357.806,-116 357.806,-116 408.194,-116 408.194,-116 411.861,-116 415.527,-119.667 415.527,-123.333 415.527,-123.333 415.527,-130.667 415.527,-130.667 415.527,-134.333 411.861,-138 408.194,-138"/>
<text text-anchor="middle" x="383" y="-123.4" font-family="Helvetica,sans-Serif" font-size="12.00" fill="white">_Sliceable</text>
</a>
</g>
</g>
<!-- CollectionType&#45;&gt;_Sliceable -->
<g id="edge16" class="edge">
<path fill="none" stroke="#cccccc" d="M291.845,-173.988C309.1,-165.283 334.331,-152.554 353.875,-142.694"/>
<polygon fill="#cccccc" stroke="#cccccc" points="355.601,-145.743 362.953,-138.114 352.448,-139.493 355.601,-145.743"/>
</g>
<!-- RangeReplaceableCollectionType -->
<g id="node3" class="node">
<g id="a_node3"><a xlink:href="/swift-2/protocol/RangeReplaceableCollectionType/" target="_top">
<path fill="#999999" stroke="#999999" d="M248.76,-80C248.76,-80 73.2397,-80 73.2397,-80 69.5731,-80 65.9064,-76.3333 65.9064,-72.6667 65.9064,-72.6667 65.9064,-65.3333 65.9064,-65.3333 65.9064,-61.6667 69.5731,-58 73.2397,-58 73.2397,-58 248.76,-58 248.76,-58 252.427,-58 256.094,-61.6667 256.094,-65.3333 256.094,-65.3333 256.094,-72.6667 256.094,-72.6667 256.094,-76.3333 252.427,-80 248.76,-80"/>
<text text-anchor="middle" x="161" y="-65.4" font-family="Helvetica,sans-Serif" font-size="12.00" fill="white">RangeReplaceableCollectionType</text>
</a>
</g>
</g>
<!-- ExtensibleCollectionType&#45;&gt;RangeReplaceableCollectionType -->
<g id="edge14" class="edge">
<path fill="none" stroke="#cccccc" d="M211.094,-115.988C202.441,-108.045 190.14,-96.7512 179.892,-87.3439"/>
<polygon fill="#cccccc" stroke="#cccccc" points="181.957,-84.4883 172.224,-80.3039 177.223,-89.6449 181.957,-84.4883"/>
</g>
<!-- ExtensibleCollectionType&#45;&gt;String.CharacterView -->
<g id="edge5" class="edge">
<path fill="none" stroke="#cccccc" d="M233.038,-115.683C242.23,-106.76 255.331,-93.2438 265,-80 276.294,-64.531 286.722,-45.3659 293.785,-31.3285"/>
<polygon fill="#cccccc" stroke="#cccccc" points="297.032,-32.6584 298.298,-22.1396 290.748,-29.5725 297.032,-32.6584"/>
</g>
<!-- RangeReplaceableCollectionType&#45;&gt;String.CharacterView -->
<g id="edge6" class="edge">
<path fill="none" stroke="#cccccc" d="M186.387,-57.9883C209.064,-49.0453 242.506,-35.8566 267.77,-25.8935"/>
<polygon fill="#cccccc" stroke="#cccccc" points="269.336,-29.0385 277.354,-22.1138 266.767,-22.5266 269.336,-29.0385"/>
</g>
<!-- SequenceType -->
<g id="node4" class="node">
<g id="a_node4"><a xlink:href="/swift-2/protocol/SequenceType/" target="_top">
<path fill="#999999" stroke="#999999" d="M148.718,-312C148.718,-312 73.2821,-312 73.2821,-312 69.6154,-312 65.9487,-308.333 65.9487,-304.667 65.9487,-304.667 65.9487,-297.333 65.9487,-297.333 65.9487,-293.667 69.6154,-290 73.2821,-290 73.2821,-290 148.718,-290 148.718,-290 152.385,-290 156.051,-293.667 156.051,-297.333 156.051,-297.333 156.051,-304.667 156.051,-304.667 156.051,-308.333 152.385,-312 148.718,-312"/>
<text text-anchor="middle" x="111" y="-297.4" font-family="Helvetica,sans-Serif" font-size="12.00" fill="white">SequenceType</text>
</a>
</g>
</g>
<!-- SequenceType&#45;&gt;CollectionType -->
<g id="edge9" class="edge">
<path fill="none" stroke="#cccccc" d="M129.779,-289.992C145.897,-281.154 169.537,-267.592 189,-254 212.02,-237.924 236.705,-217.206 253.115,-202.884"/>
<polygon fill="#cccccc" stroke="#cccccc" points="255.698,-205.273 260.889,-196.037 251.071,-200.02 255.698,-205.273"/>
</g>
<!-- SequenceType&#45;&gt;String.CharacterView -->
<g id="edge2" class="edge">
<path fill="none" stroke="#cccccc" d="M85.5498,-289.983C68.5959,-282.255 46.7953,-270.149 32,-254 9.43652,-229.372 0,-219.401 0,-186 0,-186 0,-186 0,-126 0,-90.4778 12.6018,-77.9393 42,-58 72.1978,-37.5184 165.164,-24.7586 231.528,-18.0144"/>
<polygon fill="#cccccc" stroke="#cccccc" points="231.92,-21.4927 241.526,-17.023 231.23,-14.5269 231.92,-21.4927"/>
</g>
<!-- _CollectionDefaultsType -->
<g id="node7" class="node">
<g id="a_node7"><a xlink:href="/swift-2/protocol/_CollectionDefaultsType/" target="_top">
<path fill="#999999" stroke="#999999" d="M173.224,-254C173.224,-254 48.7762,-254 48.7762,-254 45.1095,-254 41.4428,-250.333 41.4428,-246.667 41.4428,-246.667 41.4428,-239.333 41.4428,-239.333 41.4428,-235.667 45.1095,-232 48.7762,-232 48.7762,-232 173.224,-232 173.224,-232 176.891,-232 180.557,-235.667 180.557,-239.333 180.557,-239.333 180.557,-246.667 180.557,-246.667 180.557,-250.333 176.891,-254 173.224,-254"/>
<text text-anchor="middle" x="111" y="-239.4" font-family="Helvetica,sans-Serif" font-size="12.00" fill="white">_CollectionDefaultsType</text>
</a>
</g>
</g>
<!-- SequenceType&#45;&gt;_CollectionDefaultsType -->
<g id="edge12" class="edge">
<path fill="none" stroke="#cccccc" d="M111,-289.988C111,-282.91 111,-273.171 111,-264.478"/>
<polygon fill="#cccccc" stroke="#cccccc" points="114.5,-264.304 111,-254.304 107.5,-264.304 114.5,-264.304"/>
</g>
<!-- Sliceable -->
<g id="node5" class="node">
<g id="a_node5"><a xlink:href="/swift-2/protocol/Sliceable/" target="_top">
<path fill="#999999" stroke="#999999" d="M400.691,-80C400.691,-80 357.309,-80 357.309,-80 353.642,-80 349.975,-76.3333 349.975,-72.6667 349.975,-72.6667 349.975,-65.3333 349.975,-65.3333 349.975,-61.6667 353.642,-58 357.309,-58 357.309,-58 400.691,-58 400.691,-58 404.358,-58 408.025,-61.6667 408.025,-65.3333 408.025,-65.3333 408.025,-72.6667 408.025,-72.6667 408.025,-76.3333 404.358,-80 400.691,-80"/>
<text text-anchor="middle" x="379" y="-65.4" font-family="Helvetica,sans-Serif" font-size="12.00" fill="white">Sliceable</text>
</a>
</g>
</g>
<!-- Sliceable&#45;&gt;String.CharacterView -->
<g id="edge7" class="edge">
<path fill="none" stroke="#cccccc" d="M365.413,-57.9883C354.135,-49.6784 337.882,-37.7028 324.789,-28.0554"/>
<polygon fill="#cccccc" stroke="#cccccc" points="326.853,-25.2281 316.726,-22.1138 322.7,-30.8635 326.853,-25.2281"/>
</g>
<!-- _CollectionDefaultsType&#45;&gt;CollectionType -->
<g id="edge10" class="edge">
<path fill="none" stroke="#cccccc" d="M139.784,-231.988C165.917,-222.898 204.661,-209.422 233.46,-199.405"/>
<polygon fill="#cccccc" stroke="#cccccc" points="234.9,-202.61 243.195,-196.019 232.6,-195.999 234.9,-202.61"/>
</g>
<!-- _CollectionDefaultsType&#45;&gt;String.CharacterView -->
<g id="edge3" class="edge">
<path fill="none" stroke="#cccccc" d="M102.421,-231.952C77.908,-201.998 12.1254,-112.044 57,-58 78.8676,-31.6643 167.013,-20.3211 231.563,-15.4918"/>
<polygon fill="#cccccc" stroke="#cccccc" points="231.979,-18.9711 241.706,-14.7713 231.483,-11.9887 231.979,-18.9711"/>
</g>
<!-- _CollectionGeneratorDefaultsType -->
<g id="node8" class="node">
<g id="a_node8"><a xlink:href="/swift-2/protocol/_CollectionGeneratorDefaultsType/" target="_top">
<path fill="#999999" stroke="#999999" d="M496.246,-254C496.246,-254 317.754,-254 317.754,-254 314.087,-254 310.421,-250.333 310.421,-246.667 310.421,-246.667 310.421,-239.333 310.421,-239.333 310.421,-235.667 314.087,-232 317.754,-232 317.754,-232 496.246,-232 496.246,-232 499.913,-232 503.579,-235.667 503.579,-239.333 503.579,-239.333 503.579,-246.667 503.579,-246.667 503.579,-250.333 499.913,-254 496.246,-254"/>
<text text-anchor="middle" x="407" y="-239.4" font-family="Helvetica,sans-Serif" font-size="12.00" fill="white">_CollectionGeneratorDefaultsType</text>
</a>
</g>
</g>
<!-- _CollectionGeneratorDefaultsType&#45;&gt;CollectionType -->
<g id="edge11" class="edge">
<path fill="none" stroke="#cccccc" d="M382.865,-231.988C361.401,-223.085 329.793,-209.973 305.812,-200.026"/>
<polygon fill="#cccccc" stroke="#cccccc" points="306.959,-196.713 296.382,-196.114 304.277,-203.178 306.959,-196.713"/>
</g>
<!-- _CollectionGeneratorDefaultsType&#45;&gt;String.CharacterView -->
<g id="edge4" class="edge">
<path fill="none" stroke="#cccccc" d="M413.099,-231.671C429.921,-201.696 473.205,-113.318 434,-58 420.097,-38.3829 397.139,-27.0693 374.294,-20.5668"/>
<polygon fill="#cccccc" stroke="#cccccc" points="375.093,-17.1585 364.537,-18.0644 373.354,-23.939 375.093,-17.1585"/>
</g>
<!-- _Sliceable&#45;&gt;Sliceable -->
<g id="edge15" class="edge">
<path fill="none" stroke="#cccccc" d="M382.285,-115.988C381.779,-108.91 381.084,-99.1714 380.463,-90.4779"/>
<polygon fill="#cccccc" stroke="#cccccc" points="383.94,-90.0291 379.736,-80.3039 376.957,-90.5279 383.94,-90.0291"/>
</g>
<!-- _Sliceable&#45;&gt;String.CharacterView -->
<g id="edge8" class="edge">
<path fill="none" stroke="#cccccc" d="M394.693,-115.87C409.051,-102.176 429.994,-77.2559 417,-58 406.574,-42.551 389.996,-32.2892 372.676,-25.4734"/>
<polygon fill="#cccccc" stroke="#cccccc" points="373.606,-22.0894 363.011,-22.0303 371.257,-28.6834 373.606,-22.0894"/>
</g>
</g>
</svg>
