<?xml version="1.0" encoding="UTF-8" standalone="no"?>
<!DOCTYPE svg PUBLIC "-//W3C//DTD SVG 1.1//EN"
 "http://www.w3.org/Graphics/SVG/1.1/DTD/svg11.dtd">
<!-- Generated by graphviz version 2.36.0 (20140111.2315)
 -->
<!-- Title: CustomReflectable &#45; Type Hierarchy &#45; SwiftDoc.org Pages: 1 -->
<svg width="3812pt" height="195pt"
 viewBox="0.00 0.00 3812.40 195.20" xmlns="http://www.w3.org/2000/svg" xmlns:xlink="http://www.w3.org/1999/xlink">
<g id="graph0" class="graph" transform="scale(1 1) rotate(0) translate(7.2 137.6)">
<g transform="translate(0 -137.6)">
<g>
    <path fill="#666666" d="M13.846,10.832c-0.336-0.464-0.792-0.844-1.368-1.14s-1.224-0.444-1.944-0.444
        c-0.384,0-0.772,0.052-1.164,0.156C8.977,9.509,8.622,9.677,8.301,9.908c-0.32,0.232-0.58,0.52-0.78,0.864
        c-0.2,0.344-0.3,0.756-0.3,1.236c0,0.464,0.092,0.852,0.276,1.164c0.184,0.312,0.432,0.576,0.744,0.792s0.68,0.4,1.104,0.552
        c0.423,0.152,0.876,0.309,1.356,0.468c0.576,0.177,1.16,0.376,1.752,0.601c0.592,0.224,1.128,0.52,1.608,0.888
        s0.872,0.828,1.176,1.38s0.456,1.252,0.456,2.101c0,0.88-0.164,1.644-0.492,2.292c-0.328,0.647-0.765,1.184-1.308,1.607
        c-0.544,0.424-1.172,0.74-1.884,0.948s-1.444,0.312-2.196,0.312c-1.072,0-2.108-0.208-3.108-0.624
        c-1-0.415-1.828-1.031-2.484-1.848l1.848-1.56c0.4,0.592,0.936,1.071,1.608,1.439c0.672,0.368,1.399,0.552,2.184,0.552
        c0.4,0,0.8-0.056,1.2-0.168c0.4-0.111,0.764-0.288,1.092-0.527c0.328-0.24,0.596-0.54,0.804-0.9
        c0.208-0.36,0.312-0.796,0.312-1.308s-0.108-0.94-0.324-1.284c-0.216-0.344-0.508-0.636-0.876-0.876s-0.796-0.444-1.284-0.612
        c-0.488-0.168-1.004-0.34-1.548-0.516c-0.544-0.16-1.08-0.356-1.608-0.588c-0.528-0.232-1-0.528-1.416-0.889
        c-0.416-0.359-0.752-0.804-1.008-1.332c-0.256-0.527-0.384-1.184-0.384-1.968c0-0.848,0.172-1.576,0.516-2.184
        c0.344-0.608,0.792-1.112,1.344-1.512c0.552-0.4,1.176-0.692,1.872-0.876c0.696-0.184,1.396-0.276,2.1-0.276
        c0.992,0,1.92,0.176,2.784,0.528c0.864,0.352,1.56,0.824,2.088,1.416L13.846,10.832z"/>
    <path fill="#666666" d="M18.813,13.304l2.568,8.688h0.048l2.712-8.688h2.376l2.76,8.688h0.048l2.568-8.688h2.376L30.501,24.68
        h-2.352l-2.808-8.544h-0.048l-2.784,8.544h-2.352l-3.792-11.376H18.813z"/>
    <path fill="#666666" d="M38.685,9.2c0,0.416-0.147,0.76-0.44,1.032c-0.294,0.272-0.647,0.408-1.06,0.408s-0.762-0.14-1.047-0.42
        c-0.286-0.28-0.429-0.62-0.429-1.02c0-0.416,0.143-0.764,0.429-1.044c0.286-0.28,0.635-0.42,1.047-0.42s0.766,0.14,1.06,0.42
        C38.538,8.437,38.685,8.784,38.685,9.2z M38.325,24.68h-2.256V13.304h2.256V24.68z"/>
    <path fill="#666666" d="M47.613,15.152h-2.64v9.528h-2.256v-9.528h-2.256v-1.848h2.256v-2.376c0-0.672,0.076-1.292,0.228-1.86
        c0.152-0.568,0.4-1.06,0.744-1.476c0.344-0.416,0.784-0.744,1.32-0.984c0.536-0.24,1.188-0.36,1.956-0.36
        c0.544,0,1.016,0.056,1.416,0.168l-0.264,1.944c-0.176-0.048-0.352-0.088-0.528-0.12c-0.176-0.032-0.376-0.048-0.6-0.048
        c-0.432,0-0.78,0.076-1.044,0.228c-0.264,0.152-0.468,0.356-0.612,0.612s-0.24,0.548-0.288,0.876
        c-0.048,0.328-0.072,0.668-0.072,1.02v2.376h2.64V15.152z"/>
    <path fill="#666666" d="M54.909,15.152h-3.024v5.91c0,0.687,0.128,1.177,0.384,1.472c0.256,0.295,0.664,0.442,1.224,0.442
        c0.208,0,0.432-0.021,0.672-0.065c0.24-0.044,0.456-0.11,0.648-0.198l0.072,1.848c-0.272,0.096-0.572,0.172-0.9,0.229
        c-0.328,0.056-0.668,0.084-1.02,0.084c-1.072,0-1.892-0.296-2.46-0.889c-0.568-0.592-0.852-1.479-0.852-2.664v-6.168h-2.184
        v-1.848h2.184V10.04h2.232v3.264h3.024V15.152z"/>
    <path fill="#666666" d="M57.356,7.688h5.832c1.088,0,2.176,0.16,3.264,0.48c1.088,0.32,2.072,0.824,2.952,1.512
        s1.592,1.568,2.136,2.64c0.544,1.072,0.816,2.36,0.816,3.864c0,1.456-0.272,2.716-0.816,3.78s-1.256,1.943-2.136,2.64
        s-1.864,1.216-2.952,1.561c-1.088,0.344-2.176,0.516-3.264,0.516h-5.832V7.688z M59.732,22.593h2.976
        c1.024,0,1.972-0.145,2.844-0.432c0.872-0.288,1.624-0.704,2.256-1.248c0.632-0.544,1.124-1.216,1.476-2.017
        c0.352-0.8,0.528-1.704,0.528-2.712c0-1.056-0.176-1.983-0.528-2.784c-0.353-0.8-0.844-1.468-1.476-2.004
        c-0.632-0.536-1.384-0.944-2.256-1.224s-1.82-0.42-2.844-0.42h-2.976V22.593z"/>
    <path fill="#666666" d="M86.06,18.969c0,0.88-0.156,1.688-0.468,2.424c-0.312,0.736-0.744,1.372-1.296,1.908
        c-0.552,0.536-1.204,0.952-1.956,1.248c-0.752,0.296-1.56,0.443-2.424,0.443c-0.864,0-1.672-0.147-2.424-0.443
        c-0.752-0.296-1.4-0.712-1.944-1.248c-0.544-0.536-0.972-1.172-1.284-1.908c-0.312-0.735-0.468-1.544-0.468-2.424
        s0.156-1.684,0.468-2.412c0.312-0.728,0.74-1.356,1.284-1.884c0.543-0.528,1.191-0.939,1.944-1.236
        c0.752-0.296,1.56-0.444,2.424-0.444c0.864,0,1.672,0.148,2.424,0.444c0.752,0.297,1.404,0.708,1.956,1.236
        c0.552,0.527,0.984,1.156,1.296,1.884C85.904,17.285,86.06,18.089,86.06,18.969z M83.708,18.98c0-0.542-0.084-1.061-0.252-1.556
        c-0.169-0.494-0.414-0.929-0.734-1.304s-0.718-0.674-1.192-0.897s-1.015-0.335-1.625-0.335c-0.61,0-1.152,0.111-1.625,0.335
        c-0.474,0.224-0.871,0.522-1.191,0.897c-0.321,0.375-0.566,0.81-0.734,1.304C76.184,17.92,76.1,18.438,76.1,18.98
        c0,0.543,0.084,1.062,0.253,1.556c0.168,0.495,0.413,0.934,0.734,1.316c0.321,0.383,0.718,0.686,1.191,0.909
        c0.473,0.224,1.015,0.335,1.625,0.335c0.61,0,1.151-0.111,1.625-0.335s0.871-0.526,1.192-0.909s0.565-0.821,0.734-1.316
        C83.624,20.042,83.708,19.523,83.708,18.98z"/>
    <path fill="#666666" d="M96.428,16.184c-0.24-0.368-0.6-0.676-1.08-0.924s-0.992-0.372-1.536-0.372
        c-0.592,0-1.116,0.112-1.572,0.336c-0.456,0.225-0.844,0.524-1.164,0.9c-0.32,0.376-0.564,0.812-0.732,1.308
        s-0.252,1.017-0.252,1.56c0,0.545,0.084,1.064,0.252,1.561s0.412,0.933,0.732,1.308c0.32,0.376,0.712,0.677,1.176,0.9
        c0.464,0.225,0.992,0.336,1.584,0.336c0.576,0,1.1-0.111,1.572-0.336c0.472-0.224,0.86-0.528,1.164-0.912l1.512,1.368
        c-0.48,0.561-1.08,0.996-1.8,1.308c-0.72,0.312-1.536,0.468-2.448,0.468c-0.88,0-1.692-0.144-2.436-0.432
        c-0.744-0.288-1.388-0.691-1.932-1.212c-0.544-0.52-0.972-1.147-1.284-1.884s-0.468-1.561-0.468-2.473
        c0-0.896,0.152-1.711,0.456-2.447c0.304-0.736,0.728-1.368,1.272-1.896c0.543-0.527,1.188-0.936,1.932-1.224
        c0.744-0.288,1.548-0.433,2.412-0.433c0.8,0,1.596,0.16,2.388,0.48s1.419,0.784,1.884,1.392L96.428,16.184z"/>
    <path fill="#666666" d="M103.1,23.24c0,0.417-0.152,0.784-0.456,1.104c-0.304,0.32-0.688,0.479-1.152,0.479
        c-0.448,0-0.828-0.155-1.14-0.468c-0.312-0.312-0.468-0.676-0.468-1.092c0-0.432,0.152-0.804,0.456-1.116
        c0.304-0.312,0.688-0.468,1.152-0.468c0.464,0,0.848,0.152,1.152,0.456C102.947,22.44,103.1,22.808,103.1,23.24z"/>
    <path fill="#666666" d="M116.635,18.969c0,0.88-0.156,1.688-0.468,2.424c-0.312,0.736-0.744,1.372-1.296,1.908
        c-0.552,0.536-1.204,0.952-1.956,1.248c-0.752,0.296-1.56,0.443-2.424,0.443c-0.864,0-1.672-0.147-2.424-0.443
        c-0.752-0.296-1.4-0.712-1.944-1.248c-0.544-0.536-0.972-1.172-1.284-1.908c-0.312-0.735-0.468-1.544-0.468-2.424
        s0.156-1.684,0.468-2.412c0.312-0.728,0.74-1.356,1.284-1.884c0.543-0.528,1.191-0.939,1.944-1.236
        c0.752-0.296,1.56-0.444,2.424-0.444c0.864,0,1.672,0.148,2.424,0.444c0.752,0.297,1.404,0.708,1.956,1.236
        c0.552,0.527,0.984,1.156,1.296,1.884C116.479,17.285,116.635,18.089,116.635,18.969z M114.283,18.98
        c0-0.542-0.084-1.061-0.252-1.556c-0.169-0.494-0.414-0.929-0.734-1.304s-0.718-0.674-1.192-0.897s-1.015-0.335-1.625-0.335
        c-0.61,0-1.152,0.111-1.625,0.335c-0.474,0.224-0.871,0.522-1.191,0.897c-0.321,0.375-0.566,0.81-0.734,1.304
        c-0.169,0.495-0.253,1.014-0.253,1.556c0,0.543,0.084,1.062,0.253,1.556c0.168,0.495,0.413,0.934,0.734,1.316
        c0.321,0.383,0.718,0.686,1.191,0.909c0.473,0.224,1.015,0.335,1.625,0.335c0.61,0,1.151-0.111,1.625-0.335
        s0.871-0.526,1.192-0.909s0.565-0.821,0.734-1.316C114.199,20.042,114.283,19.523,114.283,18.98z"/>
    <path fill="#666666" d="M119.251,14.577c-0.016-0.48-0.04-0.904-0.072-1.272h2.136c0.032,0.288,0.056,0.62,0.072,0.996
        c0.016,0.376,0.024,0.684,0.024,0.924h0.072c0.32-0.672,0.788-1.212,1.404-1.62c0.616-0.408,1.308-0.612,2.076-0.612
        c0.352,0,0.648,0.033,0.888,0.097l-0.096,2.088c-0.32-0.08-0.664-0.12-1.032-0.12c-0.544,0-1.016,0.101-1.416,0.3
        c-0.4,0.2-0.732,0.468-0.996,0.805c-0.264,0.336-0.46,0.724-0.588,1.163c-0.128,0.44-0.192,0.9-0.192,1.381v5.976h-2.256v-8.928
        C119.275,15.449,119.267,15.056,119.251,14.577z"/>
    <path fill="#666666" d="M128.419,26.625c0.496,0.56,1.116,1.008,1.86,1.344c0.744,0.336,1.508,0.504,2.292,0.504
        c0.752,0,1.384-0.108,1.896-0.324s0.924-0.512,1.236-0.888s0.536-0.82,0.672-1.332c0.136-0.513,0.204-1.064,0.204-1.656v-1.464
        h-0.048c-0.416,0.641-0.984,1.128-1.704,1.464c-0.72,0.336-1.488,0.504-2.304,0.504c-0.864,0-1.652-0.151-2.364-0.456
        c-0.712-0.304-1.316-0.72-1.812-1.248c-0.496-0.527-0.88-1.147-1.152-1.859s-0.408-1.477-0.408-2.292
        c0-0.816,0.136-1.584,0.408-2.305c0.272-0.72,0.656-1.348,1.152-1.884c0.496-0.535,1.096-0.96,1.8-1.271
        c0.704-0.312,1.488-0.469,2.352-0.469c0.816,0,1.596,0.177,2.34,0.528c0.744,0.353,1.332,0.888,1.764,1.608h0.048v-1.824h2.184
        v10.8c0,0.832-0.104,1.628-0.312,2.388c-0.208,0.76-0.56,1.433-1.056,2.017s-1.144,1.052-1.944,1.404
        c-0.8,0.352-1.792,0.527-2.976,0.527c-0.992,0-1.988-0.18-2.988-0.54c-1-0.359-1.86-0.868-2.58-1.523L128.419,26.625z
         M129.091,18.873c0,0.527,0.084,1.031,0.253,1.512c0.168,0.479,0.417,0.904,0.746,1.271c0.329,0.369,0.726,0.664,1.192,0.889
        c0.465,0.224,0.995,0.336,1.589,0.336c0.577,0,1.107-0.104,1.589-0.312c0.481-0.207,0.891-0.491,1.228-0.852
        s0.598-0.784,0.782-1.272c0.185-0.487,0.277-1.012,0.277-1.571c0-0.544-0.093-1.057-0.277-1.536
        c-0.185-0.48-0.449-0.904-0.794-1.272c-0.345-0.367-0.755-0.66-1.228-0.876c-0.474-0.216-1-0.324-1.577-0.324
        c-0.594,0-1.124,0.108-1.589,0.324c-0.466,0.216-0.863,0.504-1.192,0.864s-0.578,0.784-0.746,1.271
        C129.175,17.812,129.091,18.329,129.091,18.873z"/>
</g>
<g><a xlink:href="/" pointer-events="all" target="_top"><polygon fill="none" points="0,0 145,0 145,35 0,35 0,0"/></a></g>

</g>


<!-- AnyHashable -->
<g id="node1" class="node">
<g id="a_node1"><a xlink:href="/v4.2/type/AnyHashable/hierarchy/" target="_top">
<polygon fill="#999999" stroke="#999999" points="80.5335,-22 -0.533453,-22 -0.533453,-0 80.5335,-0 80.5335,-22"/>
<text text-anchor="middle" x="40" y="-7.4" font-family="Helvetica,sans-Serif" font-size="12.00" fill="white">AnyHashable</text>
</a>
</g>
</g>
<!-- Array -->
<g id="node2" class="node">
<g id="a_node2"><a xlink:href="/v4.2/type/Array/hierarchy/" target="_top">
<polygon fill="#999999" stroke="#999999" points="153,-22 99,-22 99,-0 153,-0 153,-22"/>
<text text-anchor="middle" x="126" y="-7.4" font-family="Helvetica,sans-Serif" font-size="12.00" fill="white">Array</text>
</a>
</g>
</g>
<!-- ArraySlice -->
<g id="node3" class="node">
<g id="a_node3"><a xlink:href="/v4.2/type/ArraySlice/hierarchy/" target="_top">
<polygon fill="#999999" stroke="#999999" points="235.011,-22 170.989,-22 170.989,-0 235.011,-0 235.011,-22"/>
<text text-anchor="middle" x="203" y="-7.4" font-family="Helvetica,sans-Serif" font-size="12.00" fill="white">ArraySlice</text>
</a>
</g>
</g>
<!-- Bool -->
<g id="node4" class="node">
<g id="a_node4"><a xlink:href="/v4.2/type/Bool/hierarchy/" target="_top">
<polygon fill="#999999" stroke="#999999" points="307,-22 253,-22 253,-0 307,-0 307,-22"/>
<text text-anchor="middle" x="280" y="-7.4" font-family="Helvetica,sans-Serif" font-size="12.00" fill="white">Bool</text>
</a>
</g>
</g>
<!-- Character -->
<g id="node5" class="node">
<g id="a_node5"><a xlink:href="/v4.2/type/Character/hierarchy/" target="_top">
<polygon fill="#999999" stroke="#999999" points="387.017,-22 324.983,-22 324.983,-0 387.017,-0 387.017,-22"/>
<text text-anchor="middle" x="356" y="-7.4" font-family="Helvetica,sans-Serif" font-size="12.00" fill="white">Character</text>
</a>
</g>
</g>
<!-- ClosedRange -->
<g id="node6" class="node">
<g id="a_node6"><a xlink:href="/v4.2/type/ClosedRange/hierarchy/" target="_top">
<polygon fill="#999999" stroke="#999999" points="488.037,-22 405.963,-22 405.963,-0 488.037,-0 488.037,-22"/>
<text text-anchor="middle" x="447" y="-7.4" font-family="Helvetica,sans-Serif" font-size="12.00" fill="white">ClosedRange</text>
</a>
</g>
</g>
<!-- CollectionOfOne -->
<g id="node7" class="node">
<g id="a_node7"><a xlink:href="/v4.2/type/CollectionOfOne/hierarchy/" target="_top">
<polygon fill="#999999" stroke="#999999" points="604.032,-22 505.968,-22 505.968,-0 604.032,-0 604.032,-22"/>
<text text-anchor="middle" x="555" y="-7.4" font-family="Helvetica,sans-Serif" font-size="12.00" fill="white">CollectionOfOne</text>
</a>
</g>
</g>
<!-- ContiguousArray -->
<g id="node8" class="node">
<g id="a_node8"><a xlink:href="/v4.2/type/ContiguousArray/hierarchy/" target="_top">
<polygon fill="#999999" stroke="#999999" points="721.534,-22 622.466,-22 622.466,-0 721.534,-0 721.534,-22"/>
<text text-anchor="middle" x="672" y="-7.4" font-family="Helvetica,sans-Serif" font-size="12.00" fill="white">ContiguousArray</text>
</a>
</g>
</g>
<!-- CustomLeafReflectable -->
<g id="node9" class="node">
<g id="a_node9"><a xlink:href="/v4.2/protocol/CustomLeafReflectable/hierarchy/" target="_top">
<path fill="#999999" stroke="#999999" d="M866.718,-22C866.718,-22 747.282,-22 747.282,-22 743.615,-22 739.949,-18.3333 739.949,-14.6667 739.949,-14.6667 739.949,-7.33333 739.949,-7.33333 739.949,-3.66667 743.615,-0 747.282,-0 747.282,-0 866.718,-0 866.718,-0 870.385,-0 874.051,-3.66667 874.051,-7.33333 874.051,-7.33333 874.051,-14.6667 874.051,-14.6667 874.051,-18.3333 870.385,-22 866.718,-22"/>
<text text-anchor="middle" x="807" y="-7.4" font-family="Helvetica,sans-Serif" font-size="12.00" fill="white">CustomLeafReflectable</text>
</a>
</g>
</g>
<!-- CustomReflectable -->
<g id="node10" class="node">
<g id="a_node10"><a xlink:href="/v4.2/protocol/CustomReflectable/" target="_top">
<path fill="#ee543d" stroke="#ee543d" d="M1816.2,-80C1816.2,-80 1719.8,-80 1719.8,-80 1716.13,-80 1712.47,-76.3333 1712.47,-72.6667 1712.47,-72.6667 1712.47,-65.3333 1712.47,-65.3333 1712.47,-61.6667 1716.13,-58 1719.8,-58 1719.8,-58 1816.2,-58 1816.2,-58 1819.87,-58 1823.53,-61.6667 1823.53,-65.3333 1823.53,-65.3333 1823.53,-72.6667 1823.53,-72.6667 1823.53,-76.3333 1819.87,-80 1816.2,-80"/>
<text text-anchor="middle" x="1768" y="-65.4" font-family="Helvetica,sans-Serif" font-size="12.00" fill="white">CustomReflectable</text>
</a>
</g>
</g>
<!-- CustomReflectable&#45;&gt;AnyHashable -->
<g id="edge1" class="edge">
<path fill="none" stroke="#cccccc" d="M1712.38,-67.7464C1461.76,-66.4105 435.207,-58.8221 90.5644,-21.8168"/>
<polygon fill="#cccccc" stroke="#cccccc" points="90.8919,-18.3318 80.5683,-20.7134 90.1238,-25.2895 90.8919,-18.3318"/>
</g>
<!-- CustomReflectable&#45;&gt;Array -->
<g id="edge2" class="edge">
<path fill="none" stroke="#cccccc" d="M1712.65,-68.211C1469.12,-68.8665 490.91,-68.5748 163.339,-21.8076"/>
<polygon fill="#cccccc" stroke="#cccccc" points="163.772,-18.3337 153.369,-20.339 162.752,-25.259 163.772,-18.3337"/>
</g>
<!-- CustomReflectable&#45;&gt;ArraySlice -->
<g id="edge3" class="edge">
<path fill="none" stroke="#cccccc" d="M1712.34,-67.8773C1476.28,-67.1197 556.206,-61.7104 245.027,-21.8152"/>
<polygon fill="#cccccc" stroke="#cccccc" points="245.48,-18.3446 235.107,-20.5033 244.562,-25.2842 245.48,-18.3446"/>
</g>
<!-- CustomReflectable&#45;&gt;Bool -->
<g id="edge4" class="edge">
<path fill="none" stroke="#cccccc" d="M1712.61,-68.0143C1484.15,-67.8039 613.493,-64.2818 317.65,-21.8559"/>
<polygon fill="#cccccc" stroke="#cccccc" points="317.776,-18.3363 307.37,-20.3302 316.748,-25.2605 317.776,-18.3363"/>
</g>
<!-- CustomReflectable&#45;&gt;Character -->
<g id="edge5" class="edge">
<path fill="none" stroke="#cccccc" d="M1712.37,-67.6593C1491.82,-66.0755 677.78,-57.9615 397.361,-21.6719"/>
<polygon fill="#cccccc" stroke="#cccccc" points="397.588,-18.1711 387.212,-20.3135 396.659,-25.1092 397.588,-18.1711"/>
</g>
<!-- CustomReflectable&#45;&gt;ClosedRange -->
<g id="edge6" class="edge">
<path fill="none" stroke="#cccccc" d="M1712.53,-67.1834C1502.84,-63.9135 757.687,-50.5944 498.252,-21.9267"/>
<polygon fill="#cccccc" stroke="#cccccc" points="498.449,-18.4265 488.117,-20.7695 497.655,-25.3813 498.449,-18.4265"/>
</g>
<!-- CustomReflectable&#45;&gt;CollectionOfOne -->
<g id="edge7" class="edge">
<path fill="none" stroke="#cccccc" d="M1712.52,-68.36C1546.98,-68.8874 1042.06,-66.5302 614.388,-22.0114"/>
<polygon fill="#cccccc" stroke="#cccccc" points="614.611,-18.5156 604.3,-20.9519 613.879,-25.4773 614.611,-18.5156"/>
</g>
<!-- CustomReflectable&#45;&gt;ContiguousArray -->
<g id="edge8" class="edge">
<path fill="none" stroke="#cccccc" d="M1712.45,-67.9457C1558.35,-67.2808 1112.34,-61.8687 731.625,-21.9192"/>
<polygon fill="#cccccc" stroke="#cccccc" points="731.826,-18.4211 721.513,-20.8484 731.089,-25.3822 731.826,-18.4211"/>
</g>
<!-- CustomReflectable&#45;&gt;CustomLeafReflectable -->
<g id="edge9" class="edge">
<path fill="none" stroke="#cccccc" d="M1712.49,-66.6361C1574.38,-62.9159 1204.01,-50.9366 884.495,-22.0679"/>
<polygon fill="#cccccc" stroke="#cccccc" points="884.381,-18.5431 874.105,-21.1215 883.746,-25.5143 884.381,-18.5431"/>
</g>
<!-- Dictionary -->
<g id="node11" class="node">
<g id="a_node11"><a xlink:href="/v4.2/type/Dictionary/hierarchy/" target="_top">
<polygon fill="#999999" stroke="#999999" points="955.511,-22 892.489,-22 892.489,-0 955.511,-0 955.511,-22"/>
<text text-anchor="middle" x="924" y="-7.4" font-family="Helvetica,sans-Serif" font-size="12.00" fill="white">Dictionary</text>
</a>
</g>
</g>
<!-- CustomReflectable&#45;&gt;Dictionary -->
<g id="edge10" class="edge">
<path fill="none" stroke="#cccccc" d="M1712.55,-68.3971C1583.07,-68.5588 1250.77,-64.5448 965.881,-22.0421"/>
<polygon fill="#cccccc" stroke="#cccccc" points="966.178,-18.5473 955.767,-20.5139 965.132,-25.4687 966.178,-18.5473"/>
</g>
<!-- DictionaryIterator -->
<g id="node12" class="node">
<g id="a_node12"><a xlink:href="/v4.2/type/DictionaryIterator/hierarchy/" target="_top">
<polygon fill="#999999" stroke="#999999" points="1074.52,-22 973.477,-22 973.477,-0 1074.52,-0 1074.52,-22"/>
<text text-anchor="middle" x="1024" y="-7.4" font-family="Helvetica,sans-Serif" font-size="12.00" fill="white">DictionaryIterator</text>
</a>
</g>
</g>
<!-- CustomReflectable&#45;&gt;DictionaryIterator -->
<g id="edge11" class="edge">
<path fill="none" stroke="#cccccc" d="M1712.42,-66.1094C1597.28,-61.7926 1324.19,-49.4803 1084.32,-21.9168"/>
<polygon fill="#cccccc" stroke="#cccccc" points="1084.7,-18.4377 1074.36,-20.7618 1083.89,-25.391 1084.7,-18.4377"/>
</g>
<!-- Double -->
<g id="node13" class="node">
<g id="a_node13"><a xlink:href="/v4.2/type/Double/hierarchy/" target="_top">
<polygon fill="#999999" stroke="#999999" points="1147,-22 1093,-22 1093,-0 1147,-0 1147,-22"/>
<text text-anchor="middle" x="1120" y="-7.4" font-family="Helvetica,sans-Serif" font-size="12.00" fill="white">Double</text>
</a>
</g>
</g>
<!-- CustomReflectable&#45;&gt;Double -->
<g id="edge12" class="edge">
<path fill="none" stroke="#cccccc" d="M1712.28,-67.4517C1605.87,-65.6167 1366.47,-57.6945 1157.33,-21.9289"/>
<polygon fill="#cccccc" stroke="#cccccc" points="1157.84,-18.4661 1147.39,-20.2046 1156.65,-25.363 1157.84,-18.4661"/>
</g>
<!-- Float -->
<g id="node14" class="node">
<g id="a_node14"><a xlink:href="/v4.2/type/Float/hierarchy/" target="_top">
<polygon fill="#999999" stroke="#999999" points="1219,-22 1165,-22 1165,-0 1219,-0 1219,-22"/>
<text text-anchor="middle" x="1192" y="-7.4" font-family="Helvetica,sans-Serif" font-size="12.00" fill="white">Float</text>
</a>
</g>
</g>
<!-- CustomReflectable&#45;&gt;Float -->
<g id="edge13" class="edge">
<path fill="none" stroke="#cccccc" d="M1712.36,-66.6656C1615.72,-63.607 1410.61,-53.8419 1229,-21.8685"/>
<polygon fill="#cccccc" stroke="#cccccc" points="1229.46,-18.3955 1219,-20.0811 1228.23,-25.2863 1229.46,-18.3955"/>
</g>
<!-- Int -->
<g id="node15" class="node">
<g id="a_node15"><a xlink:href="/v4.2/type/Int/hierarchy/" target="_top">
<polygon fill="#999999" stroke="#999999" points="1291,-22 1237,-22 1237,-0 1291,-0 1291,-22"/>
<text text-anchor="middle" x="1264" y="-7.4" font-family="Helvetica,sans-Serif" font-size="12.00" fill="white">Int</text>
</a>
</g>
</g>
<!-- CustomReflectable&#45;&gt;Int -->
<g id="edge14" class="edge">
<path fill="none" stroke="#cccccc" d="M1712.45,-65.6512C1626.25,-61.3254 1455.03,-50.0156 1301.12,-21.9177"/>
<polygon fill="#cccccc" stroke="#cccccc" points="1301.48,-18.4247 1291.01,-20.0426 1300.2,-25.3073 1301.48,-18.4247"/>
</g>
<!-- Int16 -->
<g id="node16" class="node">
<g id="a_node16"><a xlink:href="/v4.2/type/Int16/hierarchy/" target="_top">
<polygon fill="#999999" stroke="#999999" points="1363,-22 1309,-22 1309,-0 1363,-0 1363,-22"/>
<text text-anchor="middle" x="1336" y="-7.4" font-family="Helvetica,sans-Serif" font-size="12.00" fill="white">Int16</text>
</a>
</g>
</g>
<!-- CustomReflectable&#45;&gt;Int16 -->
<g id="edge15" class="edge">
<path fill="none" stroke="#cccccc" d="M1712.49,-64.2849C1637.46,-58.6605 1499.46,-46.1871 1372.89,-21.9117"/>
<polygon fill="#cccccc" stroke="#cccccc" points="1373.5,-18.4662 1363.02,-19.9903 1372.17,-25.3371 1373.5,-18.4662"/>
</g>
<!-- Int32 -->
<g id="node17" class="node">
<g id="a_node17"><a xlink:href="/v4.2/type/Int32/hierarchy/" target="_top">
<polygon fill="#999999" stroke="#999999" points="1435,-22 1381,-22 1381,-0 1435,-0 1435,-22"/>
<text text-anchor="middle" x="1408" y="-7.4" font-family="Helvetica,sans-Serif" font-size="12.00" fill="white">Int32</text>
</a>
</g>
</g>
<!-- CustomReflectable&#45;&gt;Int32 -->
<g id="edge16" class="edge">
<path fill="none" stroke="#cccccc" d="M1712.59,-62.3509C1649.86,-55.4617 1544.49,-42.3993 1444.96,-21.9798"/>
<polygon fill="#cccccc" stroke="#cccccc" points="1445.54,-18.5257 1435.03,-19.9154 1444.11,-25.379 1445.54,-18.5257"/>
</g>
<!-- Int64 -->
<g id="node18" class="node">
<g id="a_node18"><a xlink:href="/v4.2/type/Int64/hierarchy/" target="_top">
<polygon fill="#999999" stroke="#999999" points="1507,-22 1453,-22 1453,-0 1507,-0 1507,-22"/>
<text text-anchor="middle" x="1480" y="-7.4" font-family="Helvetica,sans-Serif" font-size="12.00" fill="white">Int64</text>
</a>
</g>
</g>
<!-- CustomReflectable&#45;&gt;Int64 -->
<g id="edge17" class="edge">
<path fill="none" stroke="#cccccc" d="M1712.65,-59.3746C1663.6,-51.3965 1589.86,-38.5895 1516.88,-22.0494"/>
<polygon fill="#cccccc" stroke="#cccccc" points="1517.59,-18.6208 1507.06,-19.7991 1516.03,-25.444 1517.59,-18.6208"/>
</g>
<!-- Int8 -->
<g id="node19" class="node">
<g id="a_node19"><a xlink:href="/v4.2/type/Int8/hierarchy/" target="_top">
<polygon fill="#999999" stroke="#999999" points="1579,-22 1525,-22 1525,-0 1579,-0 1579,-22"/>
<text text-anchor="middle" x="1552" y="-7.4" font-family="Helvetica,sans-Serif" font-size="12.00" fill="white">Int8</text>
</a>
</g>
</g>
<!-- CustomReflectable&#45;&gt;Int8 -->
<g id="edge18" class="edge">
<path fill="none" stroke="#cccccc" d="M1727.55,-57.9168C1693.16,-49.2898 1642.24,-36.3793 1589.06,-22.2477"/>
<polygon fill="#cccccc" stroke="#cccccc" points="1589.67,-18.7885 1579.11,-19.5955 1587.87,-25.5525 1589.67,-18.7885"/>
</g>
<!-- Mirror -->
<g id="node20" class="node">
<g id="a_node20"><a xlink:href="/v4.2/type/Mirror/hierarchy/" target="_top">
<polygon fill="#999999" stroke="#999999" points="1651,-22 1597,-22 1597,-0 1651,-0 1651,-22"/>
<text text-anchor="middle" x="1624" y="-7.4" font-family="Helvetica,sans-Serif" font-size="12.00" fill="white">Mirror</text>
</a>
</g>
</g>
<!-- CustomReflectable&#45;&gt;Mirror -->
<g id="edge19" class="edge">
<path fill="none" stroke="#cccccc" d="M1742.26,-57.9883C1719.16,-49.0057 1685.05,-35.7398 1659.39,-25.7614"/>
<polygon fill="#cccccc" stroke="#cccccc" points="1660.6,-22.4763 1650.01,-22.1138 1658.06,-29.0004 1660.6,-22.4763"/>
</g>
<!-- Optional -->
<g id="node21" class="node">
<g id="a_node21"><a xlink:href="/v4.2/type/Optional/hierarchy/" target="_top">
<polygon fill="#999999" stroke="#999999" points="1723.02,-22 1668.98,-22 1668.98,-0 1723.02,-0 1723.02,-22"/>
<text text-anchor="middle" x="1696" y="-7.4" font-family="Helvetica,sans-Serif" font-size="12.00" fill="white">Optional</text>
</a>
</g>
</g>
<!-- CustomReflectable&#45;&gt;Optional -->
<g id="edge20" class="edge">
<path fill="none" stroke="#cccccc" d="M1755.13,-57.9883C1744.61,-49.8087 1729.53,-38.0773 1717.23,-28.5108"/>
<polygon fill="#cccccc" stroke="#cccccc" points="1719.29,-25.6806 1709.25,-22.3039 1714.99,-31.2061 1719.29,-25.6806"/>
</g>
<!-- Range -->
<g id="node22" class="node">
<g id="a_node22"><a xlink:href="/v4.2/type/Range/hierarchy/" target="_top">
<polygon fill="#999999" stroke="#999999" points="1795,-22 1741,-22 1741,-0 1795,-0 1795,-22"/>
<text text-anchor="middle" x="1768" y="-7.4" font-family="Helvetica,sans-Serif" font-size="12.00" fill="white">Range</text>
</a>
</g>
</g>
<!-- CustomReflectable&#45;&gt;Range -->
<g id="edge21" class="edge">
<path fill="none" stroke="#cccccc" d="M1768,-57.9883C1768,-50.9098 1768,-41.1714 1768,-32.4779"/>
<polygon fill="#cccccc" stroke="#cccccc" points="1771.5,-32.3038 1768,-22.3039 1764.5,-32.3039 1771.5,-32.3038"/>
</g>
<!-- Set -->
<g id="node23" class="node">
<g id="a_node23"><a xlink:href="/v4.2/type/Set/hierarchy/" target="_top">
<polygon fill="#999999" stroke="#999999" points="1867,-22 1813,-22 1813,-0 1867,-0 1867,-22"/>
<text text-anchor="middle" x="1840" y="-7.4" font-family="Helvetica,sans-Serif" font-size="12.00" fill="white">Set</text>
</a>
</g>
</g>
<!-- CustomReflectable&#45;&gt;Set -->
<g id="edge22" class="edge">
<path fill="none" stroke="#cccccc" d="M1780.87,-57.9883C1791.39,-49.8087 1806.47,-38.0773 1818.77,-28.5108"/>
<polygon fill="#cccccc" stroke="#cccccc" points="1821.01,-31.2061 1826.75,-22.3039 1816.71,-25.6806 1821.01,-31.2061"/>
</g>
<!-- SetIterator -->
<g id="node24" class="node">
<g id="a_node24"><a xlink:href="/v4.2/type/SetIterator/hierarchy/" target="_top">
<polygon fill="#999999" stroke="#999999" points="1951.02,-22 1884.98,-22 1884.98,-0 1951.02,-0 1951.02,-22"/>
<text text-anchor="middle" x="1918" y="-7.4" font-family="Helvetica,sans-Serif" font-size="12.00" fill="white">SetIterator</text>
</a>
</g>
</g>
<!-- CustomReflectable&#45;&gt;SetIterator -->
<g id="edge23" class="edge">
<path fill="none" stroke="#cccccc" d="M1794.82,-57.9883C1819.06,-48.9381 1854.95,-35.5399 1881.74,-25.5367"/>
<polygon fill="#cccccc" stroke="#cccccc" points="1883.02,-28.7958 1891.16,-22.0192 1880.57,-22.2379 1883.02,-28.7958"/>
</g>
<!-- StaticString -->
<g id="node25" class="node">
<g id="a_node25"><a xlink:href="/v4.2/type/StaticString/hierarchy/" target="_top">
<polygon fill="#999999" stroke="#999999" points="2040.52,-22 1969.48,-22 1969.48,-0 2040.52,-0 2040.52,-22"/>
<text text-anchor="middle" x="2005" y="-7.4" font-family="Helvetica,sans-Serif" font-size="12.00" fill="white">StaticString</text>
</a>
</g>
</g>
<!-- CustomReflectable&#45;&gt;StaticString -->
<g id="edge24" class="edge">
<path fill="none" stroke="#cccccc" d="M1810.37,-57.9883C1852.4,-48.0566 1916.6,-32.8887 1959.64,-22.7175"/>
<polygon fill="#cccccc" stroke="#cccccc" points="1960.64,-26.0787 1969.56,-20.3729 1959.03,-19.2663 1960.64,-26.0787"/>
</g>
<!-- StrideThrough -->
<g id="node26" class="node">
<g id="a_node26"><a xlink:href="/v4.2/type/StrideThrough/hierarchy/" target="_top">
<polygon fill="#999999" stroke="#999999" points="2145.03,-22 2058.97,-22 2058.97,-0 2145.03,-0 2145.03,-22"/>
<text text-anchor="middle" x="2102" y="-7.4" font-family="Helvetica,sans-Serif" font-size="12.00" fill="white">StrideThrough</text>
</a>
</g>
</g>
<!-- CustomReflectable&#45;&gt;StrideThrough -->
<g id="edge25" class="edge">
<path fill="none" stroke="#cccccc" d="M1823.52,-59.3184C1880.25,-50.3513 1970.86,-35.7651 2049,-22 2049.1,-21.9822 2049.2,-21.9644 2049.3,-21.9466"/>
<polygon fill="#cccccc" stroke="#cccccc" points="2049.69,-25.4325 2058.92,-20.2191 2048.46,-18.5428 2049.69,-25.4325"/>
</g>
<!-- StrideTo -->
<g id="node27" class="node">
<g id="a_node27"><a xlink:href="/v4.2/type/StrideTo/hierarchy/" target="_top">
<polygon fill="#999999" stroke="#999999" points="2217.02,-22 2162.98,-22 2162.98,-0 2217.02,-0 2217.02,-22"/>
<text text-anchor="middle" x="2190" y="-7.4" font-family="Helvetica,sans-Serif" font-size="12.00" fill="white">StrideTo</text>
</a>
</g>
</g>
<!-- CustomReflectable&#45;&gt;StrideTo -->
<g id="edge26" class="edge">
<path fill="none" stroke="#cccccc" d="M1823.39,-64.0663C1896.74,-58.2678 2030.19,-45.6766 2153.02,-21.935"/>
<polygon fill="#cccccc" stroke="#cccccc" points="2153.84,-25.3418 2162.98,-19.9815 2152.49,-18.4728 2153.84,-25.3418"/>
</g>
<!-- String -->
<g id="node28" class="node">
<g id="a_node28"><a xlink:href="/v4.2/type/String/hierarchy/" target="_top">
<polygon fill="#999999" stroke="#999999" points="2289,-22 2235,-22 2235,-0 2289,-0 2289,-22"/>
<text text-anchor="middle" x="2262" y="-7.4" font-family="Helvetica,sans-Serif" font-size="12.00" fill="white">String</text>
</a>
</g>
</g>
<!-- CustomReflectable&#45;&gt;String -->
<g id="edge27" class="edge">
<path fill="none" stroke="#cccccc" d="M1823.42,-65.4925C1908.13,-60.9897 2074.9,-49.4847 2225.12,-21.8781"/>
<polygon fill="#cccccc" stroke="#cccccc" points="2225.8,-25.3114 2234.99,-20.0363 2224.52,-18.4302 2225.8,-25.3114"/>
</g>
<!-- String.UTF16View -->
<g id="node29" class="node">
<g id="a_node29"><a xlink:href="/v4.2/type/String.UTF16View/hierarchy/" target="_top">
<polygon fill="#999999" stroke="#999999" points="2414.37,-22 2307.63,-22 2307.63,-0 2414.37,-0 2414.37,-22"/>
<text text-anchor="middle" x="2361" y="-7.4" font-family="Helvetica,sans-Serif" font-size="12.00" fill="white">String.UTF16View</text>
</a>
</g>
</g>
<!-- CustomReflectable&#45;&gt;String.UTF16View -->
<g id="edge40" class="edge">
<path fill="none" stroke="#cccccc" d="M1823.45,-64.4857C1918.27,-58.1923 2117.84,-43.7091 2297.27,-22.0079"/>
<polygon fill="#cccccc" stroke="#cccccc" points="2297.92,-25.4545 2307.42,-20.7693 2297.07,-18.506 2297.92,-25.4545"/>
</g>
<!-- String.UTF8View -->
<g id="node30" class="node">
<g id="a_node30"><a xlink:href="/v4.2/type/String.UTF8View/hierarchy/" target="_top">
<polygon fill="#999999" stroke="#999999" points="2533.36,-22 2432.64,-22 2432.64,-0 2533.36,-0 2533.36,-22"/>
<text text-anchor="middle" x="2483" y="-7.4" font-family="Helvetica,sans-Serif" font-size="12.00" fill="white">String.UTF8View</text>
</a>
</g>
</g>
<!-- CustomReflectable&#45;&gt;String.UTF8View -->
<g id="edge38" class="edge">
<path fill="none" stroke="#cccccc" d="M1823.37,-65.8892C1934.74,-61.2581 2193.94,-48.5351 2422.46,-21.9459"/>
<polygon fill="#cccccc" stroke="#cccccc" points="2423.11,-25.394 2432.63,-20.7509 2422.29,-18.4418 2423.11,-25.394"/>
</g>
<!-- String.UnicodeScalarView -->
<g id="node31" class="node">
<g id="a_node31"><a xlink:href="/v4.2/type/String.UnicodeScalarView/hierarchy/" target="_top">
<polygon fill="#999999" stroke="#999999" points="2699.89,-22 2552.11,-22 2552.11,-0 2699.89,-0 2699.89,-22"/>
<text text-anchor="middle" x="2626" y="-7.4" font-family="Helvetica,sans-Serif" font-size="12.00" fill="white">String.UnicodeScalarView</text>
</a>
</g>
</g>
<!-- CustomReflectable&#45;&gt;String.UnicodeScalarView -->
<g id="edge39" class="edge">
<path fill="none" stroke="#cccccc" d="M1823.46,-65.831C1949.11,-60.6734 2265.32,-46.3252 2541.6,-21.9791"/>
<polygon fill="#cccccc" stroke="#cccccc" points="2542.17,-25.4422 2551.82,-21.0719 2541.55,-18.4696 2542.17,-25.4422"/>
</g>
<!-- Substring -->
<g id="node32" class="node">
<g id="a_node32"><a xlink:href="/v4.2/type/Substring/hierarchy/" target="_top">
<polygon fill="#999999" stroke="#999999" points="2779.02,-22 2718.98,-22 2718.98,-0 2779.02,-0 2779.02,-22"/>
<text text-anchor="middle" x="2749" y="-7.4" font-family="Helvetica,sans-Serif" font-size="12.00" fill="white">Substring</text>
</a>
</g>
</g>
<!-- CustomReflectable&#45;&gt;Substring -->
<g id="edge28" class="edge">
<path fill="none" stroke="#cccccc" d="M1823.53,-66.7159C1995.34,-62.5209 2517.68,-48.0504 2708.62,-21.693"/>
<polygon fill="#cccccc" stroke="#cccccc" points="2709.15,-25.1533 2718.55,-20.2668 2708.15,-18.2245 2709.15,-25.1533"/>
</g>
<!-- UInt -->
<g id="node33" class="node">
<g id="a_node33"><a xlink:href="/v4.2/type/UInt/hierarchy/" target="_top">
<polygon fill="#999999" stroke="#999999" points="2851,-22 2797,-22 2797,-0 2851,-0 2851,-22"/>
<text text-anchor="middle" x="2824" y="-7.4" font-family="Helvetica,sans-Serif" font-size="12.00" fill="white">UInt</text>
</a>
</g>
</g>
<!-- CustomReflectable&#45;&gt;UInt -->
<g id="edge29" class="edge">
<path fill="none" stroke="#cccccc" d="M1823.63,-67.1455C2005.21,-64.1013 2580.29,-52.3826 2786.5,-21.8536"/>
<polygon fill="#cccccc" stroke="#cccccc" points="2787.27,-25.2755 2796.62,-20.2914 2786.21,-18.3574 2787.27,-25.2755"/>
</g>
<!-- UInt16 -->
<g id="node34" class="node">
<g id="a_node34"><a xlink:href="/v4.2/type/UInt16/hierarchy/" target="_top">
<polygon fill="#999999" stroke="#999999" points="2923,-22 2869,-22 2869,-0 2923,-0 2923,-22"/>
<text text-anchor="middle" x="2896" y="-7.4" font-family="Helvetica,sans-Serif" font-size="12.00" fill="white">UInt16</text>
</a>
</g>
</g>
<!-- CustomReflectable&#45;&gt;UInt16 -->
<g id="edge30" class="edge">
<path fill="none" stroke="#cccccc" d="M1823.48,-67.3394C2013.45,-64.8196 2637.81,-54.3436 2858.73,-21.8154"/>
<polygon fill="#cccccc" stroke="#cccccc" points="2859.27,-25.2733 2868.63,-20.3 2858.21,-18.354 2859.27,-25.2733"/>
</g>
<!-- UInt32 -->
<g id="node35" class="node">
<g id="a_node35"><a xlink:href="/v4.2/type/UInt32/hierarchy/" target="_top">
<polygon fill="#999999" stroke="#999999" points="2995,-22 2941,-22 2941,-0 2995,-0 2995,-22"/>
<text text-anchor="middle" x="2968" y="-7.4" font-family="Helvetica,sans-Serif" font-size="12.00" fill="white">UInt32</text>
</a>
</g>
</g>
<!-- CustomReflectable&#45;&gt;UInt32 -->
<g id="edge31" class="edge">
<path fill="none" stroke="#cccccc" d="M1823.62,-67.506C2021.89,-65.4834 2694.36,-56.3155 2930.39,-21.861"/>
<polygon fill="#cccccc" stroke="#cccccc" points="2931.26,-25.2686 2940.63,-20.3075 2930.21,-18.3479 2931.26,-25.2686"/>
</g>
<!-- UInt64 -->
<g id="node36" class="node">
<g id="a_node36"><a xlink:href="/v4.2/type/UInt64/hierarchy/" target="_top">
<polygon fill="#999999" stroke="#999999" points="3067,-22 3013,-22 3013,-0 3067,-0 3067,-22"/>
<text text-anchor="middle" x="3040" y="-7.4" font-family="Helvetica,sans-Serif" font-size="12.00" fill="white">UInt64</text>
</a>
</g>
</g>
<!-- CustomReflectable&#45;&gt;UInt64 -->
<g id="edge32" class="edge">
<path fill="none" stroke="#cccccc" d="M1823.43,-67.6564C2029.44,-66.116 2751.54,-58.3021 3002.47,-21.8467"/>
<polygon fill="#cccccc" stroke="#cccccc" points="3003.26,-25.2666 3012.63,-20.3142 3002.22,-18.3449 3003.26,-25.2666"/>
</g>
<!-- UInt8 -->
<g id="node37" class="node">
<g id="a_node37"><a xlink:href="/v4.2/type/UInt8/hierarchy/" target="_top">
<polygon fill="#999999" stroke="#999999" points="3139,-22 3085,-22 3085,-0 3139,-0 3139,-22"/>
<text text-anchor="middle" x="3112" y="-7.4" font-family="Helvetica,sans-Serif" font-size="12.00" fill="white">UInt8</text>
</a>
</g>
</g>
<!-- CustomReflectable&#45;&gt;UInt8 -->
<g id="edge33" class="edge">
<path fill="none" stroke="#cccccc" d="M1823.67,-67.7875C2037.78,-66.7032 2809.05,-60.2714 3074.64,-21.8194"/>
<polygon fill="#cccccc" stroke="#cccccc" points="3075.26,-25.2653 3084.63,-20.3201 3074.22,-18.3428 3075.26,-25.2653"/>
</g>
<!-- Unicode.Scalar -->
<g id="node38" class="node">
<g id="a_node38"><a xlink:href="/v4.2/type/Unicode.Scalar/hierarchy/" target="_top">
<polygon fill="#999999" stroke="#999999" points="3248.53,-22 3157.47,-22 3157.47,-0 3248.53,-0 3248.53,-22"/>
<text text-anchor="middle" x="3203" y="-7.4" font-family="Helvetica,sans-Serif" font-size="12.00" fill="white">Unicode.Scalar</text>
</a>
</g>
</g>
<!-- CustomReflectable&#45;&gt;Unicode.Scalar -->
<g id="edge41" class="edge">
<path fill="none" stroke="#cccccc" d="M1823.56,-67.2358C2044.8,-64.0269 2864.27,-50.5156 3147.21,-21.88"/>
<polygon fill="#cccccc" stroke="#cccccc" points="3147.87,-25.3303 3157.46,-20.8114 3147.15,-18.3681 3147.87,-25.3303"/>
</g>
<!-- UnsafeMutablePointer -->
<g id="node39" class="node">
<g id="a_node39"><a xlink:href="/v4.2/type/UnsafeMutablePointer/hierarchy/" target="_top">
<polygon fill="#999999" stroke="#999999" points="3395.05,-22 3266.95,-22 3266.95,-0 3395.05,-0 3395.05,-22"/>
<text text-anchor="middle" x="3331" y="-7.4" font-family="Helvetica,sans-Serif" font-size="12.00" fill="white">UnsafeMutablePointer</text>
</a>
</g>
</g>
<!-- CustomReflectable&#45;&gt;UnsafeMutablePointer -->
<g id="edge34" class="edge">
<path fill="none" stroke="#cccccc" d="M1823.55,-68.3522C2018.69,-69.152 2691.03,-68.2105 3256.88,-21.9029"/>
<polygon fill="#cccccc" stroke="#cccccc" points="3257.19,-25.3889 3266.87,-21.0793 3256.62,-18.4125 3257.19,-25.3889"/>
</g>
<!-- UnsafeMutableRawPointer -->
<g id="node40" class="node">
<g id="a_node40"><a xlink:href="/v4.2/type/UnsafeMutableRawPointer/hierarchy/" target="_top">
<polygon fill="#999999" stroke="#999999" points="3566.06,-22 3413.94,-22 3413.94,-0 3566.06,-0 3566.06,-22"/>
<text text-anchor="middle" x="3490" y="-7.4" font-family="Helvetica,sans-Serif" font-size="12.00" fill="white">UnsafeMutableRawPointer</text>
</a>
</g>
</g>
<!-- CustomReflectable&#45;&gt;UnsafeMutableRawPointer -->
<g id="edge35" class="edge">
<path fill="none" stroke="#cccccc" d="M1823.52,-68.2011C2030.52,-68.579 2777.04,-66.6175 3403.46,-21.9628"/>
<polygon fill="#cccccc" stroke="#cccccc" points="3403.88,-25.4422 3413.6,-21.2356 3403.38,-18.4601 3403.88,-25.4422"/>
</g>
<!-- UnsafePointer -->
<g id="node41" class="node">
<g id="a_node41"><a xlink:href="/v4.2/type/UnsafePointer/hierarchy/" target="_top">
<polygon fill="#999999" stroke="#999999" points="3670.03,-22 3583.97,-22 3583.97,-0 3670.03,-0 3670.03,-22"/>
<text text-anchor="middle" x="3627" y="-7.4" font-family="Helvetica,sans-Serif" font-size="12.00" fill="white">UnsafePointer</text>
</a>
</g>
</g>
<!-- CustomReflectable&#45;&gt;UnsafePointer -->
<g id="edge36" class="edge">
<path fill="none" stroke="#cccccc" d="M1823.42,-67.8184C2085.46,-66.7733 3202.59,-60.1823 3573.98,-21.8987"/>
<polygon fill="#cccccc" stroke="#cccccc" points="3574.38,-25.3767 3583.95,-20.8439 3573.64,-18.4156 3574.38,-25.3767"/>
</g>
<!-- UnsafeRawPointer -->
<g id="node42" class="node">
<g id="a_node42"><a xlink:href="/v4.2/type/UnsafeRawPointer/hierarchy/" target="_top">
<polygon fill="#999999" stroke="#999999" points="3798.04,-22 3687.96,-22 3687.96,-0 3798.04,-0 3798.04,-22"/>
<text text-anchor="middle" x="3743" y="-7.4" font-family="Helvetica,sans-Serif" font-size="12.00" fill="white">UnsafeRawPointer</text>
</a>
</g>
</g>
<!-- CustomReflectable&#45;&gt;UnsafeRawPointer -->
<g id="edge37" class="edge">
<path fill="none" stroke="#cccccc" d="M1823.37,-67.647C2094.44,-65.7702 3284.09,-55.7774 3677.89,-21.9582"/>
<polygon fill="#cccccc" stroke="#cccccc" points="3678.24,-25.4411 3687.9,-21.0784 3677.63,-18.468 3678.24,-25.4411"/>
</g>
</g>
</svg>
