<?xml version="1.0" encoding="UTF-8" standalone="no"?>
<!DOCTYPE svg PUBLIC "-//W3C//DTD SVG 1.1//EN"
 "http://www.w3.org/Graphics/SVG/1.1/DTD/svg11.dtd">
<!-- Generated by graphviz version 2.36.0 (20140111.2315)
 -->
<!-- Title: ManagedBuffer&lt;Value, Element&gt; &#45; Type Hierarchy &#45; SwiftDoc.org Pages: 1 -->
<svg width="474pt" height="137pt"
 viewBox="0.00 0.00 474.40 137.20" xmlns="http://www.w3.org/2000/svg" xmlns:xlink="http://www.w3.org/1999/xlink">
<g id="graph0" class="graph" transform="scale(1 1) rotate(0) translate(7.2 79.6)">
<title>ManagedBuffer&lt;Value, Element&gt; &#45; Type Hierarchy &#45; SwiftDoc.org</title>
<polygon fill="white" stroke="none" points="-7.2,57.6 -7.2,-79.6 467.2,-79.6 467.2,57.6 -7.2,57.6"/>
<!-- ManagedBuffer&lt;Value, Element&gt; -->
<g id="node1" class="node"><title>ManagedBuffer&lt;Value, Element&gt;</title>
<g id="a_node1"><a xlink:href="/type/ManagedBuffer/" xlink:title="ManagedBuffer&lt;Value, Element&gt;">
<polygon fill="#ee543d" stroke="#ee543d" points="460.267,-22 273.733,-22 273.733,-0 460.267,-0 460.267,-22"/>
<text text-anchor="middle" x="367" y="-7.4" font-family="Helvetica,sans-Serif" font-size="12.00" fill="white">ManagedBuffer&lt;Value, Element&gt;</text>
</a>
</g>
</g>
<!-- ManagedProtoBuffer -->
<g id="node2" class="node"><title>ManagedProtoBuffer</title>
<g id="a_node2"><a xlink:href="/type/ManagedProtoBuffer/" xlink:title="ManagedProtoBuffer">
<polygon fill="#999999" stroke="#999999" points="255.895,-22 136.105,-22 136.105,-0 255.895,-0 255.895,-22"/>
<text text-anchor="middle" x="196" y="-7.4" font-family="Helvetica,sans-Serif" font-size="12.00" fill="white">ManagedProtoBuffer</text>
</a>
</g>
</g>
<!-- ManagedProtoBuffer&#45;&gt;ManagedBuffer&lt;Value, Element&gt; -->
<g id="edge1" class="edge"><title>ManagedProtoBuffer&#45;&gt;ManagedBuffer&lt;Value, Element&gt;</title>
<path fill="none" stroke="#cccccc" d="M256.117,-11C258.614,-11 261.112,-11 263.609,-11"/>
<polygon fill="#cccccc" stroke="#cccccc" points="263.876,-14.5001 273.876,-11 263.876,-7.5001 263.876,-14.5001"/>
</g>
<!-- NonObjectiveCBase -->
<g id="node3" class="node"><title>NonObjectiveCBase</title>
<g id="a_node3"><a xlink:href="/type/NonObjectiveCBase/" xlink:title="NonObjectiveCBase">
<polygon fill="#999999" stroke="#999999" points="118.04,-22 -0.0395567,-22 -0.0395567,-0 118.04,-0 118.04,-22"/>
<text text-anchor="middle" x="59" y="-7.4" font-family="Helvetica,sans-Serif" font-size="12.00" fill="white">NonObjectiveCBase</text>
</a>
</g>
</g>
<!-- NonObjectiveCBase&#45;&gt;ManagedProtoBuffer -->
<g id="edge2" class="edge"><title>NonObjectiveCBase&#45;&gt;ManagedProtoBuffer</title>
<path fill="none" stroke="#cccccc" d="M118.135,-11C120.752,-11 123.369,-11 125.986,-11"/>
<polygon fill="#cccccc" stroke="#cccccc" points="126.08,-14.5001 136.08,-11 126.08,-7.5001 126.08,-14.5001"/>
</g>
</g>
</svg>
