<?xml version="1.0" encoding="UTF-8" standalone="no"?>
<!DOCTYPE svg PUBLIC "-//W3C//DTD SVG 1.1//EN"
 "http://www.w3.org/Graphics/SVG/1.1/DTD/svg11.dtd">
<!-- Generated by graphviz version 2.36.0 (20140111.2315)
 -->
<!-- Title: SequenceType &#45; Type Hierarchy &#45; SwiftDoc.org Pages: 1 -->
<svg width="6848pt" height="543pt"
 viewBox="0.00 0.00 6848.40 543.20" xmlns="http://www.w3.org/2000/svg" xmlns:xlink="http://www.w3.org/1999/xlink">
<g id="graph0" class="graph" transform="scale(1 1) rotate(0) translate(7.2 485.6)">
<g transform="translate(0 -485.6)">
<g>
    <path fill="#666666" d="M13.846,10.832c-0.336-0.464-0.792-0.844-1.368-1.14s-1.224-0.444-1.944-0.444
        c-0.384,0-0.772,0.052-1.164,0.156C8.977,9.509,8.622,9.677,8.301,9.908c-0.32,0.232-0.58,0.52-0.78,0.864
        c-0.2,0.344-0.3,0.756-0.3,1.236c0,0.464,0.092,0.852,0.276,1.164c0.184,0.312,0.432,0.576,0.744,0.792s0.68,0.4,1.104,0.552
        c0.423,0.152,0.876,0.309,1.356,0.468c0.576,0.177,1.16,0.376,1.752,0.601c0.592,0.224,1.128,0.52,1.608,0.888
        s0.872,0.828,1.176,1.38s0.456,1.252,0.456,2.101c0,0.88-0.164,1.644-0.492,2.292c-0.328,0.647-0.765,1.184-1.308,1.607
        c-0.544,0.424-1.172,0.74-1.884,0.948s-1.444,0.312-2.196,0.312c-1.072,0-2.108-0.208-3.108-0.624
        c-1-0.415-1.828-1.031-2.484-1.848l1.848-1.56c0.4,0.592,0.936,1.071,1.608,1.439c0.672,0.368,1.399,0.552,2.184,0.552
        c0.4,0,0.8-0.056,1.2-0.168c0.4-0.111,0.764-0.288,1.092-0.527c0.328-0.24,0.596-0.54,0.804-0.9
        c0.208-0.36,0.312-0.796,0.312-1.308s-0.108-0.94-0.324-1.284c-0.216-0.344-0.508-0.636-0.876-0.876s-0.796-0.444-1.284-0.612
        c-0.488-0.168-1.004-0.34-1.548-0.516c-0.544-0.16-1.08-0.356-1.608-0.588c-0.528-0.232-1-0.528-1.416-0.889
        c-0.416-0.359-0.752-0.804-1.008-1.332c-0.256-0.527-0.384-1.184-0.384-1.968c0-0.848,0.172-1.576,0.516-2.184
        c0.344-0.608,0.792-1.112,1.344-1.512c0.552-0.4,1.176-0.692,1.872-0.876c0.696-0.184,1.396-0.276,2.1-0.276
        c0.992,0,1.92,0.176,2.784,0.528c0.864,0.352,1.56,0.824,2.088,1.416L13.846,10.832z"/>
    <path fill="#666666" d="M18.813,13.304l2.568,8.688h0.048l2.712-8.688h2.376l2.76,8.688h0.048l2.568-8.688h2.376L30.501,24.68
        h-2.352l-2.808-8.544h-0.048l-2.784,8.544h-2.352l-3.792-11.376H18.813z"/>
    <path fill="#666666" d="M38.685,9.2c0,0.416-0.147,0.76-0.44,1.032c-0.294,0.272-0.647,0.408-1.06,0.408s-0.762-0.14-1.047-0.42
        c-0.286-0.28-0.429-0.62-0.429-1.02c0-0.416,0.143-0.764,0.429-1.044c0.286-0.28,0.635-0.42,1.047-0.42s0.766,0.14,1.06,0.42
        C38.538,8.437,38.685,8.784,38.685,9.2z M38.325,24.68h-2.256V13.304h2.256V24.68z"/>
    <path fill="#666666" d="M47.613,15.152h-2.64v9.528h-2.256v-9.528h-2.256v-1.848h2.256v-2.376c0-0.672,0.076-1.292,0.228-1.86
        c0.152-0.568,0.4-1.06,0.744-1.476c0.344-0.416,0.784-0.744,1.32-0.984c0.536-0.24,1.188-0.36,1.956-0.36
        c0.544,0,1.016,0.056,1.416,0.168l-0.264,1.944c-0.176-0.048-0.352-0.088-0.528-0.12c-0.176-0.032-0.376-0.048-0.6-0.048
        c-0.432,0-0.78,0.076-1.044,0.228c-0.264,0.152-0.468,0.356-0.612,0.612s-0.24,0.548-0.288,0.876
        c-0.048,0.328-0.072,0.668-0.072,1.02v2.376h2.64V15.152z"/>
    <path fill="#666666" d="M54.909,15.152h-3.024v5.91c0,0.687,0.128,1.177,0.384,1.472c0.256,0.295,0.664,0.442,1.224,0.442
        c0.208,0,0.432-0.021,0.672-0.065c0.24-0.044,0.456-0.11,0.648-0.198l0.072,1.848c-0.272,0.096-0.572,0.172-0.9,0.229
        c-0.328,0.056-0.668,0.084-1.02,0.084c-1.072,0-1.892-0.296-2.46-0.889c-0.568-0.592-0.852-1.479-0.852-2.664v-6.168h-2.184
        v-1.848h2.184V10.04h2.232v3.264h3.024V15.152z"/>
    <path fill="#666666" d="M57.356,7.688h5.832c1.088,0,2.176,0.16,3.264,0.48c1.088,0.32,2.072,0.824,2.952,1.512
        s1.592,1.568,2.136,2.64c0.544,1.072,0.816,2.36,0.816,3.864c0,1.456-0.272,2.716-0.816,3.78s-1.256,1.943-2.136,2.64
        s-1.864,1.216-2.952,1.561c-1.088,0.344-2.176,0.516-3.264,0.516h-5.832V7.688z M59.732,22.593h2.976
        c1.024,0,1.972-0.145,2.844-0.432c0.872-0.288,1.624-0.704,2.256-1.248c0.632-0.544,1.124-1.216,1.476-2.017
        c0.352-0.8,0.528-1.704,0.528-2.712c0-1.056-0.176-1.983-0.528-2.784c-0.353-0.8-0.844-1.468-1.476-2.004
        c-0.632-0.536-1.384-0.944-2.256-1.224s-1.82-0.42-2.844-0.42h-2.976V22.593z"/>
    <path fill="#666666" d="M86.06,18.969c0,0.88-0.156,1.688-0.468,2.424c-0.312,0.736-0.744,1.372-1.296,1.908
        c-0.552,0.536-1.204,0.952-1.956,1.248c-0.752,0.296-1.56,0.443-2.424,0.443c-0.864,0-1.672-0.147-2.424-0.443
        c-0.752-0.296-1.4-0.712-1.944-1.248c-0.544-0.536-0.972-1.172-1.284-1.908c-0.312-0.735-0.468-1.544-0.468-2.424
        s0.156-1.684,0.468-2.412c0.312-0.728,0.74-1.356,1.284-1.884c0.543-0.528,1.191-0.939,1.944-1.236
        c0.752-0.296,1.56-0.444,2.424-0.444c0.864,0,1.672,0.148,2.424,0.444c0.752,0.297,1.404,0.708,1.956,1.236
        c0.552,0.527,0.984,1.156,1.296,1.884C85.904,17.285,86.06,18.089,86.06,18.969z M83.708,18.98c0-0.542-0.084-1.061-0.252-1.556
        c-0.169-0.494-0.414-0.929-0.734-1.304s-0.718-0.674-1.192-0.897s-1.015-0.335-1.625-0.335c-0.61,0-1.152,0.111-1.625,0.335
        c-0.474,0.224-0.871,0.522-1.191,0.897c-0.321,0.375-0.566,0.81-0.734,1.304C76.184,17.92,76.1,18.438,76.1,18.98
        c0,0.543,0.084,1.062,0.253,1.556c0.168,0.495,0.413,0.934,0.734,1.316c0.321,0.383,0.718,0.686,1.191,0.909
        c0.473,0.224,1.015,0.335,1.625,0.335c0.61,0,1.151-0.111,1.625-0.335s0.871-0.526,1.192-0.909s0.565-0.821,0.734-1.316
        C83.624,20.042,83.708,19.523,83.708,18.98z"/>
    <path fill="#666666" d="M96.428,16.184c-0.24-0.368-0.6-0.676-1.08-0.924s-0.992-0.372-1.536-0.372
        c-0.592,0-1.116,0.112-1.572,0.336c-0.456,0.225-0.844,0.524-1.164,0.9c-0.32,0.376-0.564,0.812-0.732,1.308
        s-0.252,1.017-0.252,1.56c0,0.545,0.084,1.064,0.252,1.561s0.412,0.933,0.732,1.308c0.32,0.376,0.712,0.677,1.176,0.9
        c0.464,0.225,0.992,0.336,1.584,0.336c0.576,0,1.1-0.111,1.572-0.336c0.472-0.224,0.86-0.528,1.164-0.912l1.512,1.368
        c-0.48,0.561-1.08,0.996-1.8,1.308c-0.72,0.312-1.536,0.468-2.448,0.468c-0.88,0-1.692-0.144-2.436-0.432
        c-0.744-0.288-1.388-0.691-1.932-1.212c-0.544-0.52-0.972-1.147-1.284-1.884s-0.468-1.561-0.468-2.473
        c0-0.896,0.152-1.711,0.456-2.447c0.304-0.736,0.728-1.368,1.272-1.896c0.543-0.527,1.188-0.936,1.932-1.224
        c0.744-0.288,1.548-0.433,2.412-0.433c0.8,0,1.596,0.16,2.388,0.48s1.419,0.784,1.884,1.392L96.428,16.184z"/>
    <path fill="#666666" d="M103.1,23.24c0,0.417-0.152,0.784-0.456,1.104c-0.304,0.32-0.688,0.479-1.152,0.479
        c-0.448,0-0.828-0.155-1.14-0.468c-0.312-0.312-0.468-0.676-0.468-1.092c0-0.432,0.152-0.804,0.456-1.116
        c0.304-0.312,0.688-0.468,1.152-0.468c0.464,0,0.848,0.152,1.152,0.456C102.947,22.44,103.1,22.808,103.1,23.24z"/>
    <path fill="#666666" d="M116.635,18.969c0,0.88-0.156,1.688-0.468,2.424c-0.312,0.736-0.744,1.372-1.296,1.908
        c-0.552,0.536-1.204,0.952-1.956,1.248c-0.752,0.296-1.56,0.443-2.424,0.443c-0.864,0-1.672-0.147-2.424-0.443
        c-0.752-0.296-1.4-0.712-1.944-1.248c-0.544-0.536-0.972-1.172-1.284-1.908c-0.312-0.735-0.468-1.544-0.468-2.424
        s0.156-1.684,0.468-2.412c0.312-0.728,0.74-1.356,1.284-1.884c0.543-0.528,1.191-0.939,1.944-1.236
        c0.752-0.296,1.56-0.444,2.424-0.444c0.864,0,1.672,0.148,2.424,0.444c0.752,0.297,1.404,0.708,1.956,1.236
        c0.552,0.527,0.984,1.156,1.296,1.884C116.479,17.285,116.635,18.089,116.635,18.969z M114.283,18.98
        c0-0.542-0.084-1.061-0.252-1.556c-0.169-0.494-0.414-0.929-0.734-1.304s-0.718-0.674-1.192-0.897s-1.015-0.335-1.625-0.335
        c-0.61,0-1.152,0.111-1.625,0.335c-0.474,0.224-0.871,0.522-1.191,0.897c-0.321,0.375-0.566,0.81-0.734,1.304
        c-0.169,0.495-0.253,1.014-0.253,1.556c0,0.543,0.084,1.062,0.253,1.556c0.168,0.495,0.413,0.934,0.734,1.316
        c0.321,0.383,0.718,0.686,1.191,0.909c0.473,0.224,1.015,0.335,1.625,0.335c0.61,0,1.151-0.111,1.625-0.335
        s0.871-0.526,1.192-0.909s0.565-0.821,0.734-1.316C114.199,20.042,114.283,19.523,114.283,18.98z"/>
    <path fill="#666666" d="M119.251,14.577c-0.016-0.48-0.04-0.904-0.072-1.272h2.136c0.032,0.288,0.056,0.62,0.072,0.996
        c0.016,0.376,0.024,0.684,0.024,0.924h0.072c0.32-0.672,0.788-1.212,1.404-1.62c0.616-0.408,1.308-0.612,2.076-0.612
        c0.352,0,0.648,0.033,0.888,0.097l-0.096,2.088c-0.32-0.08-0.664-0.12-1.032-0.12c-0.544,0-1.016,0.101-1.416,0.3
        c-0.4,0.2-0.732,0.468-0.996,0.805c-0.264,0.336-0.46,0.724-0.588,1.163c-0.128,0.44-0.192,0.9-0.192,1.381v5.976h-2.256v-8.928
        C119.275,15.449,119.267,15.056,119.251,14.577z"/>
    <path fill="#666666" d="M128.419,26.625c0.496,0.56,1.116,1.008,1.86,1.344c0.744,0.336,1.508,0.504,2.292,0.504
        c0.752,0,1.384-0.108,1.896-0.324s0.924-0.512,1.236-0.888s0.536-0.82,0.672-1.332c0.136-0.513,0.204-1.064,0.204-1.656v-1.464
        h-0.048c-0.416,0.641-0.984,1.128-1.704,1.464c-0.72,0.336-1.488,0.504-2.304,0.504c-0.864,0-1.652-0.151-2.364-0.456
        c-0.712-0.304-1.316-0.72-1.812-1.248c-0.496-0.527-0.88-1.147-1.152-1.859s-0.408-1.477-0.408-2.292
        c0-0.816,0.136-1.584,0.408-2.305c0.272-0.72,0.656-1.348,1.152-1.884c0.496-0.535,1.096-0.96,1.8-1.271
        c0.704-0.312,1.488-0.469,2.352-0.469c0.816,0,1.596,0.177,2.34,0.528c0.744,0.353,1.332,0.888,1.764,1.608h0.048v-1.824h2.184
        v10.8c0,0.832-0.104,1.628-0.312,2.388c-0.208,0.76-0.56,1.433-1.056,2.017s-1.144,1.052-1.944,1.404
        c-0.8,0.352-1.792,0.527-2.976,0.527c-0.992,0-1.988-0.18-2.988-0.54c-1-0.359-1.86-0.868-2.58-1.523L128.419,26.625z
         M129.091,18.873c0,0.527,0.084,1.031,0.253,1.512c0.168,0.479,0.417,0.904,0.746,1.271c0.329,0.369,0.726,0.664,1.192,0.889
        c0.465,0.224,0.995,0.336,1.589,0.336c0.577,0,1.107-0.104,1.589-0.312c0.481-0.207,0.891-0.491,1.228-0.852
        s0.598-0.784,0.782-1.272c0.185-0.487,0.277-1.012,0.277-1.571c0-0.544-0.093-1.057-0.277-1.536
        c-0.185-0.48-0.449-0.904-0.794-1.272c-0.345-0.367-0.755-0.66-1.228-0.876c-0.474-0.216-1-0.324-1.577-0.324
        c-0.594,0-1.124,0.108-1.589,0.324c-0.466,0.216-0.863,0.504-1.192,0.864s-0.578,0.784-0.746,1.271
        C129.175,17.812,129.091,18.329,129.091,18.873z"/>
</g>
<g><a xlink:href="/" pointer-events="all" target="_top"><polygon fill="none" points="0,0 145,0 145,35 0,35 0,0"/></a></g>

</g>


<!-- AnyBidirectionalCollection -->
<g id="node1" class="node">
<g id="a_node1"><a xlink:href="/swift-2/type/AnyBidirectionalCollection/" target="_top">
<polygon fill="#999999" stroke="#999999" points="4309.05,-22 4160.95,-22 4160.95,-0 4309.05,-0 4309.05,-22"/>
<text text-anchor="middle" x="4235" y="-7.4" font-family="Helvetica,sans-Serif" font-size="12.00" fill="white">AnyBidirectionalCollection</text>
</a>
</g>
</g>
<!-- AnyCollectionType -->
<g id="node2" class="node">
<g id="a_node2"><a xlink:href="/swift-2/protocol/AnyCollectionType/" target="_top">
<path fill="#999999" stroke="#999999" d="M4411.21,-80C4411.21,-80 4316.79,-80 4316.79,-80 4313.12,-80 4309.46,-76.3333 4309.46,-72.6667 4309.46,-72.6667 4309.46,-65.3333 4309.46,-65.3333 4309.46,-61.6667 4313.12,-58 4316.79,-58 4316.79,-58 4411.21,-58 4411.21,-58 4414.88,-58 4418.54,-61.6667 4418.54,-65.3333 4418.54,-65.3333 4418.54,-72.6667 4418.54,-72.6667 4418.54,-76.3333 4414.88,-80 4411.21,-80"/>
<text text-anchor="middle" x="4364" y="-65.4" font-family="Helvetica,sans-Serif" font-size="12.00" fill="white">AnyCollectionType</text>
</a>
</g>
</g>
<!-- AnyCollectionType&#45;&gt;AnyBidirectionalCollection -->
<g id="edge81" class="edge">
<path fill="none" stroke="#cccccc" d="M4340.94,-57.9883C4320.52,-49.1244 4290.49,-36.0897 4267.62,-26.1587"/>
<polygon fill="#cccccc" stroke="#cccccc" points="4268.86,-22.8854 4258.3,-22.1138 4266.08,-29.3065 4268.86,-22.8854"/>
</g>
<!-- AnyForwardCollection -->
<g id="node3" class="node">
<g id="a_node3"><a xlink:href="/swift-2/type/AnyForwardCollection/" target="_top">
<polygon fill="#999999" stroke="#999999" points="4454.54,-22 4327.46,-22 4327.46,-0 4454.54,-0 4454.54,-22"/>
<text text-anchor="middle" x="4391" y="-7.4" font-family="Helvetica,sans-Serif" font-size="12.00" fill="white">AnyForwardCollection</text>
</a>
</g>
</g>
<!-- AnyCollectionType&#45;&gt;AnyForwardCollection -->
<g id="edge82" class="edge">
<path fill="none" stroke="#cccccc" d="M4368.83,-57.9883C4372.39,-50.5952 4377.36,-40.3005 4381.68,-31.3253"/>
<polygon fill="#cccccc" stroke="#cccccc" points="4384.84,-32.8316 4386.03,-22.3039 4378.54,-29.7915 4384.84,-32.8316"/>
</g>
<!-- AnyRandomAccessCollection -->
<g id="node5" class="node">
<g id="a_node5"><a xlink:href="/swift-2/type/AnyRandomAccessCollection/" target="_top">
<polygon fill="#999999" stroke="#999999" points="4639.55,-22 4472.45,-22 4472.45,-0 4639.55,-0 4639.55,-22"/>
<text text-anchor="middle" x="4556" y="-7.4" font-family="Helvetica,sans-Serif" font-size="12.00" fill="white">AnyRandomAccessCollection</text>
</a>
</g>
</g>
<!-- AnyCollectionType&#45;&gt;AnyRandomAccessCollection -->
<g id="edge83" class="edge">
<path fill="none" stroke="#cccccc" d="M4398.33,-57.9883C4430.04,-48.7397 4477.31,-34.9502 4511.83,-24.8836"/>
<polygon fill="#cccccc" stroke="#cccccc" points="4513.03,-28.1793 4521.65,-22.0192 4511.07,-21.4593 4513.03,-28.1793"/>
</g>
<!-- AnyGenerator -->
<g id="node4" class="node">
<g id="a_node4"><a xlink:href="/swift-2/type/AnyGenerator/" target="_top">
<polygon fill="#999999" stroke="#999999" points="84.0314,-22 -0.0313876,-22 -0.0313876,-0 84.0314,-0 84.0314,-22"/>
<text text-anchor="middle" x="42" y="-7.4" font-family="Helvetica,sans-Serif" font-size="12.00" fill="white">AnyGenerator</text>
</a>
</g>
</g>
<!-- AnySequence -->
<g id="node6" class="node">
<g id="a_node6"><a xlink:href="/swift-2/type/AnySequence/" target="_top">
<polygon fill="#999999" stroke="#999999" points="187.044,-22 102.956,-22 102.956,-0 187.044,-0 187.044,-22"/>
<text text-anchor="middle" x="145" y="-7.4" font-family="Helvetica,sans-Serif" font-size="12.00" fill="white">AnySequence</text>
</a>
</g>
</g>
<!-- Array -->
<g id="node7" class="node">
<g id="a_node7"><a xlink:href="/swift-2/type/Array/" target="_top">
<polygon fill="#999999" stroke="#999999" points="2470,-22 2416,-22 2416,-0 2470,-0 2470,-22"/>
<text text-anchor="middle" x="2443" y="-7.4" font-family="Helvetica,sans-Serif" font-size="12.00" fill="white">Array</text>
</a>
</g>
</g>
<!-- ArraySlice -->
<g id="node8" class="node">
<g id="a_node8"><a xlink:href="/swift-2/type/ArraySlice/" target="_top">
<polygon fill="#999999" stroke="#999999" points="2855.01,-22 2790.99,-22 2790.99,-0 2855.01,-0 2855.01,-22"/>
<text text-anchor="middle" x="2823" y="-7.4" font-family="Helvetica,sans-Serif" font-size="12.00" fill="white">ArraySlice</text>
</a>
</g>
</g>
<!-- CollectionOfOne -->
<g id="node9" class="node">
<g id="a_node9"><a xlink:href="/swift-2/type/CollectionOfOne/" target="_top">
<polygon fill="#999999" stroke="#999999" points="4934.03,-22 4835.97,-22 4835.97,-0 4934.03,-0 4934.03,-22"/>
<text text-anchor="middle" x="4885" y="-7.4" font-family="Helvetica,sans-Serif" font-size="12.00" fill="white">CollectionOfOne</text>
</a>
</g>
</g>
<!-- CollectionType -->
<g id="node10" class="node">
<g id="a_node10"><a xlink:href="/swift-2/protocol/CollectionType/" target="_top">
<path fill="#999999" stroke="#999999" d="M4070.7,-312C4070.7,-312 3997.3,-312 3997.3,-312 3993.63,-312 3989.96,-308.333 3989.96,-304.667 3989.96,-304.667 3989.96,-297.333 3989.96,-297.333 3989.96,-293.667 3993.63,-290 3997.3,-290 3997.3,-290 4070.7,-290 4070.7,-290 4074.37,-290 4078.04,-293.667 4078.04,-297.333 4078.04,-297.333 4078.04,-304.667 4078.04,-304.667 4078.04,-308.333 4074.37,-312 4070.7,-312"/>
<text text-anchor="middle" x="4034" y="-297.4" font-family="Helvetica,sans-Serif" font-size="12.00" fill="white">CollectionType</text>
</a>
</g>
</g>
<!-- CollectionType&#45;&gt;AnyBidirectionalCollection -->
<g id="edge49" class="edge">
<path fill="none" stroke="#cccccc" d="M4041.15,-289.75C4070.7,-247.409 4183.51,-85.774 4222.02,-30.5918"/>
<polygon fill="#cccccc" stroke="#cccccc" points="4225.08,-32.3307 4227.93,-22.1273 4219.34,-28.3245 4225.08,-32.3307"/>
</g>
<!-- CollectionType&#45;&gt;AnyCollectionType -->
<g id="edge50" class="edge">
<path fill="none" stroke="#cccccc" d="M4049.92,-289.961C4064.39,-280.768 4086.28,-266.702 4105,-254 4193.81,-193.725 4297.26,-118.768 4341.77,-86.2773"/>
<polygon fill="#cccccc" stroke="#cccccc" points="4344.1,-88.911 4350.11,-80.1853 4339.97,-83.2589 4344.1,-88.911"/>
</g>
<!-- CollectionType&#45;&gt;AnyForwardCollection -->
<g id="edge51" class="edge">
<path fill="none" stroke="#cccccc" d="M4078.14,-290.904C4164.04,-270.526 4351.87,-212.23 4427,-80 4436.65,-63.0099 4423.52,-43.2324 4410.49,-29.4012"/>
<polygon fill="#cccccc" stroke="#cccccc" points="4412.58,-26.5446 4403,-22.0108 4407.66,-31.5266 4412.58,-26.5446"/>
</g>
<!-- CollectionType&#45;&gt;AnyRandomAccessCollection -->
<g id="edge52" class="edge">
<path fill="none" stroke="#cccccc" d="M4078.25,-293.771C4120.11,-287 4184.23,-274.337 4237,-254 4371.31,-202.238 4497.05,-75.8835 4540.21,-29.4713"/>
<polygon fill="#cccccc" stroke="#cccccc" points="4542.88,-31.7384 4547.08,-22.0094 4537.73,-26.9989 4542.88,-31.7384"/>
</g>
<!-- CollectionType&#45;&gt;Array -->
<g id="edge53" class="edge">
<path fill="none" stroke="#cccccc" d="M3989.85,-299.383C3749.34,-295.932 2605.46,-278.291 2535,-254 2460.53,-228.327 2430.18,-211.168 2401,-138 2393.9,-120.186 2404.55,-71.3335 2410,-58 2414.1,-47.9785 2420.78,-38.0642 2427.06,-30.0205"/>
<polygon fill="#cccccc" stroke="#cccccc" points="2429.92,-32.0526 2433.58,-22.1098 2424.52,-27.6005 2429.92,-32.0526"/>
</g>
<!-- CollectionType&#45;&gt;ArraySlice -->
<g id="edge54" class="edge">
<path fill="none" stroke="#cccccc" d="M3989.82,-300.535C3845.6,-301.751 3375.73,-301.537 2991,-254 2735.72,-222.458 2586.64,-337.278 2424,-138 2358.6,-57.8616 2326.57,-142.899 2571,-80 2645.11,-60.9299 2731.1,-37.4304 2781.05,-23.6428"/>
<polygon fill="#cccccc" stroke="#cccccc" points="2782.14,-26.9733 2790.84,-20.9361 2780.27,-20.2262 2782.14,-26.9733"/>
</g>
<!-- CollectionType&#45;&gt;CollectionOfOne -->
<g id="edge55" class="edge">
<path fill="none" stroke="#cccccc" d="M4078.2,-296.109C4134.34,-290.415 4233.81,-277.805 4316,-254 4532,-191.44 4775.5,-69.2195 4856.86,-26.8694"/>
<polygon fill="#cccccc" stroke="#cccccc" points="4858.73,-29.8444 4865.97,-22.1101 4855.48,-23.6407 4858.73,-29.8444"/>
</g>
<!-- ContiguousArray -->
<g id="node11" class="node">
<g id="a_node11"><a xlink:href="/swift-2/type/ContiguousArray/" target="_top">
<polygon fill="#999999" stroke="#999999" points="3266.53,-22 3167.47,-22 3167.47,-0 3266.53,-0 3266.53,-22"/>
<text text-anchor="middle" x="3217" y="-7.4" font-family="Helvetica,sans-Serif" font-size="12.00" fill="white">ContiguousArray</text>
</a>
</g>
</g>
<!-- CollectionType&#45;&gt;ContiguousArray -->
<g id="edge56" class="edge">
<path fill="none" stroke="#cccccc" d="M3989.83,-297.389C3900.12,-291.682 3699.62,-276.759 3635,-254 3501.17,-206.864 3508.12,-124.904 3383,-58 3349.78,-40.237 3309.06,-28.8172 3276.26,-21.799"/>
<polygon fill="#cccccc" stroke="#cccccc" points="3276.86,-18.3479 3266.36,-19.7601 3275.45,-25.2042 3276.86,-18.3479"/>
</g>
<!-- Dictionary -->
<g id="node12" class="node">
<g id="a_node12"><a xlink:href="/swift-2/type/Dictionary/" target="_top">
<polygon fill="#999999" stroke="#999999" points="5015.51,-22 4952.49,-22 4952.49,-0 5015.51,-0 5015.51,-22"/>
<text text-anchor="middle" x="4984" y="-7.4" font-family="Helvetica,sans-Serif" font-size="12.00" fill="white">Dictionary</text>
</a>
</g>
</g>
<!-- CollectionType&#45;&gt;Dictionary -->
<g id="edge57" class="edge">
<path fill="none" stroke="#cccccc" d="M4078.17,-296.663C4141.82,-291.217 4262.71,-278.482 4363,-254 4600.01,-196.145 4867.86,-69.4311 4954.98,-26.5308"/>
<polygon fill="#cccccc" stroke="#cccccc" points="4956.59,-29.6382 4964,-22.0676 4953.49,-23.3637 4956.59,-29.6382"/>
</g>
<!-- DictionaryLiteral -->
<g id="node13" class="node">
<g id="a_node13"><a xlink:href="/swift-2/type/DictionaryLiteral/" target="_top">
<polygon fill="#999999" stroke="#999999" points="1510.02,-22 1413.98,-22 1413.98,-0 1510.02,-0 1510.02,-22"/>
<text text-anchor="middle" x="1462" y="-7.4" font-family="Helvetica,sans-Serif" font-size="12.00" fill="white">DictionaryLiteral</text>
</a>
</g>
</g>
<!-- CollectionType&#45;&gt;DictionaryLiteral -->
<g id="edge58" class="edge">
<path fill="none" stroke="#cccccc" d="M3989.82,-299.919C3712.34,-299.287 2215.38,-294.032 2016,-254 1798.41,-210.312 1562.3,-73.6856 1486.72,-27.4625"/>
<polygon fill="#cccccc" stroke="#cccccc" points="1488.27,-24.3053 1477.92,-22.0421 1484.6,-30.2659 1488.27,-24.3053"/>
</g>
<!-- EmptyCollection -->
<g id="node14" class="node">
<g id="a_node14"><a xlink:href="/swift-2/type/EmptyCollection/" target="_top">
<polygon fill="#999999" stroke="#999999" points="1624.03,-22 1527.97,-22 1527.97,-0 1624.03,-0 1624.03,-22"/>
<text text-anchor="middle" x="1576" y="-7.4" font-family="Helvetica,sans-Serif" font-size="12.00" fill="white">EmptyCollection</text>
</a>
</g>
</g>
<!-- CollectionType&#45;&gt;EmptyCollection -->
<g id="edge59" class="edge">
<path fill="none" stroke="#cccccc" d="M3989.55,-299.887C3718.47,-299.075 2293.12,-292.968 2103,-254 1894.87,-211.341 1671.77,-74.5722 1599.81,-27.8331"/>
<polygon fill="#cccccc" stroke="#cccccc" points="1601.33,-24.6452 1591.05,-22.0988 1597.5,-30.5028 1601.33,-24.6452"/>
</g>
<!-- ExtensibleCollectionType -->
<g id="node18" class="node">
<g id="a_node18"><a xlink:href="/swift-2/protocol/ExtensibleCollectionType/" target="_top">
<path fill="#999999" stroke="#999999" d="M3333.73,-196C3333.73,-196 3204.27,-196 3204.27,-196 3200.61,-196 3196.94,-192.333 3196.94,-188.667 3196.94,-188.667 3196.94,-181.333 3196.94,-181.333 3196.94,-177.667 3200.61,-174 3204.27,-174 3204.27,-174 3333.73,-174 3333.73,-174 3337.39,-174 3341.06,-177.667 3341.06,-181.333 3341.06,-181.333 3341.06,-188.667 3341.06,-188.667 3341.06,-192.333 3337.39,-196 3333.73,-196"/>
<text text-anchor="middle" x="3269" y="-181.4" font-family="Helvetica,sans-Serif" font-size="12.00" fill="white">ExtensibleCollectionType</text>
</a>
</g>
</g>
<!-- CollectionType&#45;&gt;ExtensibleCollectionType -->
<g id="edge60" class="edge">
<path fill="none" stroke="#cccccc" d="M3989.55,-298.456C3868.88,-293.972 3537.14,-279.613 3431,-254 3381.83,-242.134 3328.38,-217.104 3296.83,-200.946"/>
<polygon fill="#cccccc" stroke="#cccccc" points="3298.26,-197.744 3287.77,-196.241 3295.03,-203.956 3298.26,-197.744"/>
</g>
<!-- FilterCollection -->
<g id="node19" class="node">
<g id="a_node19"><a xlink:href="/swift-2/type/FilterCollection/" target="_top">
<polygon fill="#999999" stroke="#999999" points="1731.52,-22 1642.48,-22 1642.48,-0 1731.52,-0 1731.52,-22"/>
<text text-anchor="middle" x="1687" y="-7.4" font-family="Helvetica,sans-Serif" font-size="12.00" fill="white">FilterCollection</text>
</a>
</g>
</g>
<!-- CollectionType&#45;&gt;FilterCollection -->
<g id="edge61" class="edge">
<path fill="none" stroke="#cccccc" d="M3989.54,-299.998C3724.58,-299.838 2359.12,-296.925 2178,-254 1983.7,-207.951 1777.58,-74.4668 1709.94,-28.0972"/>
<polygon fill="#cccccc" stroke="#cccccc" points="1711.55,-24.9537 1701.33,-22.1506 1707.57,-30.7135 1711.55,-24.9537"/>
</g>
<!-- LazyBidirectionalCollection -->
<g id="node25" class="node">
<g id="a_node25"><a xlink:href="/swift-2/type/LazyBidirectionalCollection/" target="_top">
<polygon fill="#999999" stroke="#999999" points="1902.56,-22 1749.44,-22 1749.44,-0 1902.56,-0 1902.56,-22"/>
<text text-anchor="middle" x="1826" y="-7.4" font-family="Helvetica,sans-Serif" font-size="12.00" fill="white">LazyBidirectionalCollection</text>
</a>
</g>
</g>
<!-- CollectionType&#45;&gt;LazyBidirectionalCollection -->
<g id="edge62" class="edge">
<path fill="none" stroke="#cccccc" d="M3989.81,-299.778C3732.34,-298.36 2431.26,-289.478 2257,-254 2080.24,-218.013 1903.16,-77.9568 1845.47,-29.0042"/>
<polygon fill="#cccccc" stroke="#cccccc" points="1847.42,-26.0622 1837.54,-22.2119 1842.86,-31.3771 1847.42,-26.0622"/>
</g>
<!-- LazyForwardCollection -->
<g id="node26" class="node">
<g id="a_node26"><a xlink:href="/swift-2/type/LazyForwardCollection/" target="_top">
<polygon fill="#999999" stroke="#999999" points="2053.04,-22 1920.96,-22 1920.96,-0 2053.04,-0 2053.04,-22"/>
<text text-anchor="middle" x="1987" y="-7.4" font-family="Helvetica,sans-Serif" font-size="12.00" fill="white">LazyForwardCollection</text>
</a>
</g>
</g>
<!-- CollectionType&#45;&gt;LazyForwardCollection -->
<g id="edge63" class="edge">
<path fill="none" stroke="#cccccc" d="M3989.86,-299.991C3739.81,-299.779 2506.32,-296.568 2343,-254 2181.79,-211.983 2120.05,-205.938 2011,-80 1999.38,-66.5758 1993.26,-47.1516 1990.13,-32.4975"/>
<polygon fill="#cccccc" stroke="#cccccc" points="1993.52,-31.5989 1988.26,-22.3997 1986.64,-32.8687 1993.52,-31.5989"/>
</g>
<!-- LazyRandomAccessCollection -->
<g id="node27" class="node">
<g id="a_node27"><a xlink:href="/swift-2/type/LazyRandomAccessCollection/" target="_top">
<polygon fill="#999999" stroke="#999999" points="2243.06,-22 2070.94,-22 2070.94,-0 2243.06,-0 2243.06,-22"/>
<text text-anchor="middle" x="2157" y="-7.4" font-family="Helvetica,sans-Serif" font-size="12.00" fill="white">LazyRandomAccessCollection</text>
</a>
</g>
</g>
<!-- CollectionType&#45;&gt;LazyRandomAccessCollection -->
<g id="edge64" class="edge">
<path fill="none" stroke="#cccccc" d="M3989.88,-299.811C3745.28,-298.626 2561.17,-291.001 2403,-254 2372.99,-246.979 2301.8,-214.3 2277,-196 2249.14,-175.446 2244.92,-166.319 2225,-138 2200.12,-102.616 2177.64,-57.114 2165.8,-31.601"/>
<polygon fill="#cccccc" stroke="#cccccc" points="2168.87,-29.9099 2161.53,-22.2727 2162.51,-32.8223 2168.87,-29.9099"/>
</g>
<!-- MapCollection -->
<g id="node29" class="node">
<g id="a_node29"><a xlink:href="/swift-2/type/MapCollection/" target="_top">
<polygon fill="#999999" stroke="#999999" points="2347.03,-22 2260.97,-22 2260.97,-0 2347.03,-0 2347.03,-22"/>
<text text-anchor="middle" x="2304" y="-7.4" font-family="Helvetica,sans-Serif" font-size="12.00" fill="white">MapCollection</text>
</a>
</g>
</g>
<!-- CollectionType&#45;&gt;MapCollection -->
<g id="edge65" class="edge">
<path fill="none" stroke="#cccccc" d="M3989.93,-299.805C3752.14,-298.603 2627.16,-290.99 2477,-254 2419.87,-239.927 2270.19,-187.892 2239,-138 2220.15,-107.85 2222.66,-89.5791 2239,-58 2245.9,-44.6614 2258.65,-34.36 2271.04,-26.9199"/>
<polygon fill="#cccccc" stroke="#cccccc" points="2272.86,-29.9133 2279.91,-22.0056 2269.47,-23.7902 2272.86,-29.9133"/>
</g>
<!-- MutableCollectionType -->
<g id="node32" class="node">
<g id="a_node32"><a xlink:href="/swift-2/protocol/MutableCollectionType/" target="_top">
<path fill="#999999" stroke="#999999" d="M2935.22,-196C2935.22,-196 2818.78,-196 2818.78,-196 2815.11,-196 2811.45,-192.333 2811.45,-188.667 2811.45,-188.667 2811.45,-181.333 2811.45,-181.333 2811.45,-177.667 2815.11,-174 2818.78,-174 2818.78,-174 2935.22,-174 2935.22,-174 2938.89,-174 2942.55,-177.667 2942.55,-181.333 2942.55,-181.333 2942.55,-188.667 2942.55,-188.667 2942.55,-192.333 2938.89,-196 2935.22,-196"/>
<text text-anchor="middle" x="2877" y="-181.4" font-family="Helvetica,sans-Serif" font-size="12.00" fill="white">MutableCollectionType</text>
</a>
</g>
</g>
<!-- CollectionType&#45;&gt;MutableCollectionType -->
<g id="edge66" class="edge">
<path fill="none" stroke="#cccccc" d="M3989.9,-299.582C3825.78,-297.766 3250.59,-288.992 3071,-254 3011.67,-242.44 2945.93,-216.413 2908.23,-200.12"/>
<polygon fill="#cccccc" stroke="#cccccc" points="2909.39,-196.805 2898.82,-196.003 2906.58,-203.218 2909.39,-196.805"/>
</g>
<!-- Range -->
<g id="node35" class="node">
<g id="a_node35"><a xlink:href="/swift-2/type/Range/" target="_top">
<polygon fill="#999999" stroke="#999999" points="5088,-22 5034,-22 5034,-0 5088,-0 5088,-22"/>
<text text-anchor="middle" x="5061" y="-7.4" font-family="Helvetica,sans-Serif" font-size="12.00" fill="white">Range</text>
</a>
</g>
</g>
<!-- CollectionType&#45;&gt;Range -->
<g id="edge67" class="edge">
<path fill="none" stroke="#cccccc" d="M4078.1,-297.398C4149.82,-292.566 4295.91,-280.218 4417,-254 4500.39,-235.945 4519.57,-224.47 4600,-196 4666.6,-172.426 4682.34,-164.08 4748,-138 4849.64,-97.6272 4969.5,-49.1261 5026.95,-25.8256"/>
<polygon fill="#cccccc" stroke="#cccccc" points="5028.33,-29.044 5036.28,-22.0412 5025.7,-22.5575 5028.33,-29.044"/>
</g>
<!-- Repeat -->
<g id="node38" class="node">
<g id="a_node38"><a xlink:href="/swift-2/type/Repeat/" target="_top">
<polygon fill="#999999" stroke="#999999" points="5160,-22 5106,-22 5106,-0 5160,-0 5160,-22"/>
<text text-anchor="middle" x="5133" y="-7.4" font-family="Helvetica,sans-Serif" font-size="12.00" fill="white">Repeat</text>
</a>
</g>
</g>
<!-- CollectionType&#45;&gt;Repeat -->
<g id="edge68" class="edge">
<path fill="none" stroke="#cccccc" d="M4078.13,-298.618C4157.84,-295.408 4330.77,-285.164 4473,-254 4724.9,-198.805 5010.61,-69.8568 5102.7,-26.5091"/>
<polygon fill="#cccccc" stroke="#cccccc" points="5104.44,-29.5579 5111.99,-22.1194 5101.45,-23.2296 5104.44,-29.5579"/>
</g>
<!-- ReverseCollection -->
<g id="node39" class="node">
<g id="a_node39"><a xlink:href="/swift-2/type/ReverseCollection/" target="_top">
<polygon fill="#999999" stroke="#999999" points="5285.53,-22 5178.47,-22 5178.47,-0 5285.53,-0 5285.53,-22"/>
<text text-anchor="middle" x="5232" y="-7.4" font-family="Helvetica,sans-Serif" font-size="12.00" fill="white">ReverseCollection</text>
</a>
</g>
</g>
<!-- CollectionType&#45;&gt;ReverseCollection -->
<g id="edge69" class="edge">
<path fill="none" stroke="#cccccc" d="M4078.19,-298.751C4165.34,-295.662 4365.21,-285.474 4530,-254 4798.71,-202.679 5104.31,-70.1498 5201,-26.314"/>
<polygon fill="#cccccc" stroke="#cccccc" points="5202.56,-29.4485 5210.21,-22.1183 5199.66,-23.0781 5202.56,-29.4485"/>
</g>
<!-- ReverseRandomAccessCollection -->
<g id="node40" class="node">
<g id="a_node40"><a xlink:href="/swift-2/type/ReverseRandomAccessCollection/" target="_top">
<polygon fill="#999999" stroke="#999999" points="5494.56,-22 5303.44,-22 5303.44,-0 5494.56,-0 5494.56,-22"/>
<text text-anchor="middle" x="5399" y="-7.4" font-family="Helvetica,sans-Serif" font-size="12.00" fill="white">ReverseRandomAccessCollection</text>
</a>
</g>
</g>
<!-- CollectionType&#45;&gt;ReverseRandomAccessCollection -->
<g id="edge70" class="edge">
<path fill="none" stroke="#cccccc" d="M4078.27,-299.106C4173.38,-296.587 4403.99,-287.266 4594,-254 4899.94,-200.439 5253.57,-68.6762 5364.14,-25.7569"/>
<polygon fill="#cccccc" stroke="#cccccc" points="5365.43,-29.0098 5373.48,-22.1183 5362.89,-22.4873 5365.43,-29.0098"/>
</g>
<!-- Set -->
<g id="node42" class="node">
<g id="a_node42"><a xlink:href="/swift-2/type/Set/" target="_top">
<polygon fill="#999999" stroke="#999999" points="5567,-22 5513,-22 5513,-0 5567,-0 5567,-22"/>
<text text-anchor="middle" x="5540" y="-7.4" font-family="Helvetica,sans-Serif" font-size="12.00" fill="white">Set</text>
</a>
</g>
</g>
<!-- CollectionType&#45;&gt;Set -->
<g id="edge71" class="edge">
<path fill="none" stroke="#cccccc" d="M4078.23,-299.226C4180.87,-296.892 4442.94,-287.825 4659,-254 4993.95,-201.562 5383.73,-67.989 5503.29,-25.3192"/>
<polygon fill="#cccccc" stroke="#cccccc" points="5504.49,-28.6068 5512.72,-21.9399 5502.13,-22.0167 5504.49,-28.6068"/>
</g>
<!-- String.CharacterView -->
<g id="node46" class="node">
<g id="a_node46"><a xlink:href="/swift-2/type/String.CharacterView/" target="_top">
<polygon fill="#999999" stroke="#999999" points="3695.38,-22 3572.62,-22 3572.62,-0 3695.38,-0 3695.38,-22"/>
<text text-anchor="middle" x="3634" y="-7.4" font-family="Helvetica,sans-Serif" font-size="12.00" fill="white">String.CharacterView</text>
</a>
</g>
</g>
<!-- CollectionType&#45;&gt;String.CharacterView -->
<g id="edge77" class="edge">
<path fill="none" stroke="#cccccc" d="M4029.12,-289.953C4010.38,-252.543 3939.1,-120.287 3839,-58 3816.84,-44.2078 3755.37,-31.4579 3705.48,-22.8967"/>
<polygon fill="#cccccc" stroke="#cccccc" points="3705.79,-19.4001 3695.35,-21.1879 3704.63,-26.3026 3705.79,-19.4001"/>
</g>
<!-- String.UTF16View -->
<g id="node47" class="node">
<g id="a_node47"><a xlink:href="/swift-2/type/String.UTF16View/" target="_top">
<polygon fill="#999999" stroke="#999999" points="4142.37,-22 4035.63,-22 4035.63,-0 4142.37,-0 4142.37,-22"/>
<text text-anchor="middle" x="4089" y="-7.4" font-family="Helvetica,sans-Serif" font-size="12.00" fill="white">String.UTF16View</text>
</a>
</g>
</g>
<!-- CollectionType&#45;&gt;String.UTF16View -->
<g id="edge79" class="edge">
<path fill="none" stroke="#cccccc" d="M4035.96,-289.75C4043.98,-247.758 4074.4,-88.4375 4085.18,-31.9816"/>
<polygon fill="#cccccc" stroke="#cccccc" points="4088.63,-32.6063 4087.07,-22.1273 4081.75,-31.2932 4088.63,-32.6063"/>
</g>
<!-- String.UTF8View -->
<g id="node48" class="node">
<g id="a_node48"><a xlink:href="/swift-2/type/String.UTF8View/" target="_top">
<polygon fill="#999999" stroke="#999999" points="5685.36,-22 5584.64,-22 5584.64,-0 5685.36,-0 5685.36,-22"/>
<text text-anchor="middle" x="5635" y="-7.4" font-family="Helvetica,sans-Serif" font-size="12.00" fill="white">String.UTF8View</text>
</a>
</g>
</g>
<!-- CollectionType&#45;&gt;String.UTF8View -->
<g id="edge80" class="edge">
<path fill="none" stroke="#cccccc" d="M4078.13,-299.269C4188.4,-296.968 4484.65,-287.865 4729,-254 4851.87,-236.971 4881.59,-225.79 5002,-196 5093.92,-173.26 5116.03,-164.26 5207,-138 5347.84,-97.3457 5514.35,-47.9389 5591.61,-24.9389"/>
<polygon fill="#cccccc" stroke="#cccccc" points="5592.88,-28.2125 5601.46,-22.0038 5590.88,-21.5037 5592.88,-28.2125"/>
</g>
<!-- String.UnicodeScalarView -->
<g id="node49" class="node">
<g id="a_node49"><a xlink:href="/swift-2/type/String.UnicodeScalarView/" target="_top">
<polygon fill="#999999" stroke="#999999" points="3861.89,-22 3714.11,-22 3714.11,-0 3861.89,-0 3861.89,-22"/>
<text text-anchor="middle" x="3788" y="-7.4" font-family="Helvetica,sans-Serif" font-size="12.00" fill="white">String.UnicodeScalarView</text>
</a>
</g>
</g>
<!-- CollectionType&#45;&gt;String.UnicodeScalarView -->
<g id="edge78" class="edge">
<path fill="none" stroke="#cccccc" d="M4032.2,-289.772C4025.06,-252.284 3995.05,-121.313 3915,-58 3895.37,-42.4714 3870.02,-31.8948 3847.15,-24.8405"/>
<polygon fill="#cccccc" stroke="#cccccc" points="3848.1,-21.4721 3837.52,-22.0287 3846.14,-28.1915 3848.1,-21.4721"/>
</g>
<!-- UnicodeScalar.UTF16View -->
<g id="node50" class="node">
<g id="a_node50"><a xlink:href="/swift-2/type/UnicodeScalar.UTF16View/" target="_top">
<polygon fill="#999999" stroke="#999999" points="5856.39,-22 5703.61,-22 5703.61,-0 5856.39,-0 5856.39,-22"/>
<text text-anchor="middle" x="5780" y="-7.4" font-family="Helvetica,sans-Serif" font-size="12.00" fill="white">UnicodeScalar.UTF16View</text>
</a>
</g>
</g>
<!-- CollectionType&#45;&gt;UnicodeScalar.UTF16View -->
<g id="edge72" class="edge">
<path fill="none" stroke="#cccccc" d="M4078.28,-299.954C4196.96,-299.273 4531.9,-293.684 4807,-254 5175.57,-200.833 5607.61,-67.5325 5739.66,-25.1529"/>
<polygon fill="#cccccc" stroke="#cccccc" points="5740.92,-28.425 5749.36,-22.0288 5738.77,-21.7619 5740.92,-28.425"/>
</g>
<!-- UnsafeBufferPointer -->
<g id="node51" class="node">
<g id="a_node51"><a xlink:href="/swift-2/type/UnsafeBufferPointer/" target="_top">
<polygon fill="#999999" stroke="#999999" points="5992.39,-22 5875.61,-22 5875.61,-0 5992.39,-0 5992.39,-22"/>
<text text-anchor="middle" x="5934" y="-7.4" font-family="Helvetica,sans-Serif" font-size="12.00" fill="white">UnsafeBufferPointer</text>
</a>
</g>
</g>
<!-- CollectionType&#45;&gt;UnsafeBufferPointer -->
<g id="edge73" class="edge">
<path fill="none" stroke="#cccccc" d="M4078.39,-299.78C4204.72,-298.685 4576.86,-292.197 4883,-254 5015.59,-237.456 5047.5,-224.696 5178,-196 5446.24,-137.017 5765.28,-55.6581 5885.22,-24.6735"/>
<polygon fill="#cccccc" stroke="#cccccc" points="5886.39,-27.9867 5895.19,-22.0945 5884.63,-21.2096 5886.39,-27.9867"/>
</g>
<!-- UnsafeMutableBufferPointer -->
<g id="node53" class="node">
<g id="a_node53"><a xlink:href="/swift-2/type/UnsafeMutableBufferPointer/" target="_top">
<polygon fill="#999999" stroke="#999999" points="4817.91,-22 4658.09,-22 4658.09,-0 4817.91,-0 4817.91,-22"/>
<text text-anchor="middle" x="4738" y="-7.4" font-family="Helvetica,sans-Serif" font-size="12.00" fill="white">UnsafeMutableBufferPointer</text>
</a>
</g>
</g>
<!-- CollectionType&#45;&gt;UnsafeMutableBufferPointer -->
<g id="edge74" class="edge">
<path fill="none" stroke="#cccccc" d="M4078.36,-295.42C4127.3,-289.474 4207.89,-277.018 4274,-254 4452.64,-191.799 4647.63,-70.6993 4714.2,-27.6506"/>
<polygon fill="#cccccc" stroke="#cccccc" points="4716.25,-30.4928 4722.73,-22.1085 4712.44,-24.6236 4716.25,-30.4928"/>
</g>
<!-- _Sliceable -->
<g id="node58" class="node">
<g id="a_node58"><a xlink:href="/swift-2/protocol/_Sliceable/" target="_top">
<path fill="#999999" stroke="#999999" d="M3702.19,-254C3702.19,-254 3651.81,-254 3651.81,-254 3648.14,-254 3644.47,-250.333 3644.47,-246.667 3644.47,-246.667 3644.47,-239.333 3644.47,-239.333 3644.47,-235.667 3648.14,-232 3651.81,-232 3651.81,-232 3702.19,-232 3702.19,-232 3705.86,-232 3709.53,-235.667 3709.53,-239.333 3709.53,-239.333 3709.53,-246.667 3709.53,-246.667 3709.53,-250.333 3705.86,-254 3702.19,-254"/>
<text text-anchor="middle" x="3677" y="-239.4" font-family="Helvetica,sans-Serif" font-size="12.00" fill="white">_Sliceable</text>
</a>
</g>
</g>
<!-- CollectionType&#45;&gt;_Sliceable -->
<g id="edge75" class="edge">
<path fill="none" stroke="#cccccc" d="M3989.87,-293.077C3920.66,-282.222 3787.5,-261.334 3719.39,-250.65"/>
<polygon fill="#cccccc" stroke="#cccccc" points="3719.85,-247.18 3709.43,-249.088 3718.77,-254.095 3719.85,-247.18"/>
</g>
<!-- __ArrayType -->
<g id="node59" class="node">
<g id="a_node59"><a xlink:href="/swift-2/protocol/__ArrayType/" target="_top">
<path fill="#999999" stroke="#999999" d="M2777.7,-138C2777.7,-138 2714.3,-138 2714.3,-138 2710.64,-138 2706.97,-134.333 2706.97,-130.667 2706.97,-130.667 2706.97,-123.333 2706.97,-123.333 2706.97,-119.667 2710.64,-116 2714.3,-116 2714.3,-116 2777.7,-116 2777.7,-116 2781.36,-116 2785.03,-119.667 2785.03,-123.333 2785.03,-123.333 2785.03,-130.667 2785.03,-130.667 2785.03,-134.333 2781.36,-138 2777.7,-138"/>
<text text-anchor="middle" x="2746" y="-123.4" font-family="Helvetica,sans-Serif" font-size="12.00" fill="white">__ArrayType</text>
</a>
</g>
</g>
<!-- CollectionType&#45;&gt;__ArrayType -->
<g id="edge76" class="edge">
<path fill="none" stroke="#cccccc" d="M3989.84,-298.921C3882.21,-295.868 3597.97,-285.26 3363,-254 3231.84,-236.551 3200.64,-222.438 3071,-196 2973.22,-176.06 2859.07,-151.993 2795.4,-138.499"/>
<polygon fill="#cccccc" stroke="#cccccc" points="2795.75,-134.996 2785.24,-136.346 2794.3,-141.844 2795.75,-134.996"/>
</g>
<!-- EmptyGenerator -->
<g id="node15" class="node">
<g id="a_node15"><a xlink:href="/swift-2/type/EmptyGenerator/" target="_top">
<polygon fill="#999999" stroke="#999999" points="303.028,-22 204.972,-22 204.972,-0 303.028,-0 303.028,-22"/>
<text text-anchor="middle" x="254" y="-7.4" font-family="Helvetica,sans-Serif" font-size="12.00" fill="white">EmptyGenerator</text>
</a>
</g>
</g>
<!-- EnumerateGenerator -->
<g id="node16" class="node">
<g id="a_node16"><a xlink:href="/swift-2/type/EnumerateGenerator/" target="_top">
<polygon fill="#999999" stroke="#999999" points="443.047,-22 320.953,-22 320.953,-0 443.047,-0 443.047,-22"/>
<text text-anchor="middle" x="382" y="-7.4" font-family="Helvetica,sans-Serif" font-size="12.00" fill="white">EnumerateGenerator</text>
</a>
</g>
</g>
<!-- EnumerateSequence -->
<g id="node17" class="node">
<g id="a_node17"><a xlink:href="/swift-2/type/EnumerateSequence/" target="_top">
<polygon fill="#999999" stroke="#999999" points="584.06,-22 461.94,-22 461.94,-0 584.06,-0 584.06,-22"/>
<text text-anchor="middle" x="523" y="-7.4" font-family="Helvetica,sans-Serif" font-size="12.00" fill="white">EnumerateSequence</text>
</a>
</g>
</g>
<!-- ExtensibleCollectionType&#45;&gt;Array -->
<g id="edge84" class="edge">
<path fill="none" stroke="#cccccc" d="M3196.97,-181.764C3059.27,-176.955 2763.6,-163.902 2665,-138 2642.69,-132.14 2639.77,-123.603 2618,-116 2552.86,-93.2578 2518.28,-126.151 2467,-80 2453.52,-67.87 2447.61,-47.6977 2445.02,-32.4668"/>
<polygon fill="#cccccc" stroke="#cccccc" points="2448.47,-31.8743 2443.66,-22.4354 2441.54,-32.815 2448.47,-31.8743"/>
</g>
<!-- ExtensibleCollectionType&#45;&gt;ArraySlice -->
<g id="edge85" class="edge">
<path fill="none" stroke="#cccccc" d="M3196.75,-181.384C3079.13,-176.399 2856.82,-163.672 2832,-138 2804.81,-109.886 2811.14,-59.7993 2817.47,-31.9943"/>
<polygon fill="#cccccc" stroke="#cccccc" points="2820.89,-32.7531 2819.92,-22.2028 2814.1,-31.0559 2820.89,-32.7531"/>
</g>
<!-- ExtensibleCollectionType&#45;&gt;ContiguousArray -->
<g id="edge86" class="edge">
<path fill="none" stroke="#cccccc" d="M3283.17,-173.698C3293.34,-165.367 3306.22,-152.643 3312,-138 3315.59,-128.905 3315.54,-125.116 3312,-116 3297.5,-78.6386 3262.64,-46.4934 3239.42,-28.196"/>
<polygon fill="#cccccc" stroke="#cccccc" points="3241.52,-25.3965 3231.45,-22.0974 3237.27,-30.955 3241.52,-25.3965"/>
</g>
<!-- RangeReplaceableCollectionType -->
<g id="node37" class="node">
<g id="a_node37"><a xlink:href="/swift-2/protocol/RangeReplaceableCollectionType/" target="_top">
<path fill="#999999" stroke="#999999" d="M3295.76,-138C3295.76,-138 3120.24,-138 3120.24,-138 3116.57,-138 3112.91,-134.333 3112.91,-130.667 3112.91,-130.667 3112.91,-123.333 3112.91,-123.333 3112.91,-119.667 3116.57,-116 3120.24,-116 3120.24,-116 3295.76,-116 3295.76,-116 3299.43,-116 3303.09,-119.667 3303.09,-123.333 3303.09,-123.333 3303.09,-130.667 3303.09,-130.667 3303.09,-134.333 3299.43,-138 3295.76,-138"/>
<text text-anchor="middle" x="3208" y="-123.4" font-family="Helvetica,sans-Serif" font-size="12.00" fill="white">RangeReplaceableCollectionType</text>
</a>
</g>
</g>
<!-- ExtensibleCollectionType&#45;&gt;RangeReplaceableCollectionType -->
<g id="edge87" class="edge">
<path fill="none" stroke="#cccccc" d="M3258.09,-173.988C3249.44,-166.045 3237.14,-154.751 3226.89,-145.344"/>
<polygon fill="#cccccc" stroke="#cccccc" points="3228.96,-142.488 3219.22,-138.304 3224.22,-147.645 3228.96,-142.488"/>
</g>
<!-- ExtensibleCollectionType&#45;&gt;String.CharacterView -->
<g id="edge88" class="edge">
<path fill="none" stroke="#cccccc" d="M3290.47,-173.883C3352.33,-144.731 3531.13,-60.4753 3603.28,-26.4784"/>
<polygon fill="#cccccc" stroke="#cccccc" points="3604.77,-29.6416 3612.33,-22.2127 3601.79,-23.3094 3604.77,-29.6416"/>
</g>
<!-- ExtensibleCollectionType&#45;&gt;String.UnicodeScalarView -->
<g id="edge89" class="edge">
<path fill="none" stroke="#cccccc" d="M3299.53,-173.883C3388.49,-144.399 3647.55,-58.5474 3747.76,-25.3356"/>
<polygon fill="#cccccc" stroke="#cccccc" points="3749.12,-28.5727 3757.51,-22.1045 3746.92,-21.9281 3749.12,-28.5727"/>
</g>
<!-- FilterGenerator -->
<g id="node20" class="node">
<g id="a_node20"><a xlink:href="/swift-2/type/FilterGenerator/" target="_top">
<polygon fill="#999999" stroke="#999999" points="693.023,-22 602.977,-22 602.977,-0 693.023,-0 693.023,-22"/>
<text text-anchor="middle" x="648" y="-7.4" font-family="Helvetica,sans-Serif" font-size="12.00" fill="white">FilterGenerator</text>
</a>
</g>
</g>
<!-- FilterSequence -->
<g id="node21" class="node">
<g id="a_node21"><a xlink:href="/swift-2/type/FilterSequence/" target="_top">
<polygon fill="#999999" stroke="#999999" points="802.036,-22 711.964,-22 711.964,-0 802.036,-0 802.036,-22"/>
<text text-anchor="middle" x="757" y="-7.4" font-family="Helvetica,sans-Serif" font-size="12.00" fill="white">FilterSequence</text>
</a>
</g>
</g>
<!-- GeneratorOfOne -->
<g id="node22" class="node">
<g id="a_node22"><a xlink:href="/swift-2/type/GeneratorOfOne/" target="_top">
<polygon fill="#999999" stroke="#999999" points="919.534,-22 820.466,-22 820.466,-0 919.534,-0 919.534,-22"/>
<text text-anchor="middle" x="870" y="-7.4" font-family="Helvetica,sans-Serif" font-size="12.00" fill="white">GeneratorOfOne</text>
</a>
</g>
</g>
<!-- GeneratorSequence -->
<g id="node23" class="node">
<g id="a_node23"><a xlink:href="/swift-2/type/GeneratorSequence/" target="_top">
<polygon fill="#999999" stroke="#999999" points="1056.06,-22 937.943,-22 937.943,-0 1056.06,-0 1056.06,-22"/>
<text text-anchor="middle" x="997" y="-7.4" font-family="Helvetica,sans-Serif" font-size="12.00" fill="white">GeneratorSequence</text>
</a>
</g>
</g>
<!-- IndexingGenerator -->
<g id="node24" class="node">
<g id="a_node24"><a xlink:href="/swift-2/type/IndexingGenerator/" target="_top">
<polygon fill="#999999" stroke="#999999" points="1183.55,-22 1074.45,-22 1074.45,-0 1183.55,-0 1183.55,-22"/>
<text text-anchor="middle" x="1129" y="-7.4" font-family="Helvetica,sans-Serif" font-size="12.00" fill="white">IndexingGenerator</text>
</a>
</g>
</g>
<!-- LazySequence -->
<g id="node28" class="node">
<g id="a_node28"><a xlink:href="/swift-2/type/LazySequence/" target="_top">
<polygon fill="#999999" stroke="#999999" points="1290.55,-22 1201.45,-22 1201.45,-0 1290.55,-0 1290.55,-22"/>
<text text-anchor="middle" x="1246" y="-7.4" font-family="Helvetica,sans-Serif" font-size="12.00" fill="white">LazySequence</text>
</a>
</g>
</g>
<!-- MapGenerator -->
<g id="node30" class="node">
<g id="a_node30"><a xlink:href="/swift-2/type/MapGenerator/" target="_top">
<polygon fill="#999999" stroke="#999999" points="1395.53,-22 1308.47,-22 1308.47,-0 1395.53,-0 1395.53,-22"/>
<text text-anchor="middle" x="1352" y="-7.4" font-family="Helvetica,sans-Serif" font-size="12.00" fill="white">MapGenerator</text>
</a>
</g>
</g>
<!-- MapSequence -->
<g id="node31" class="node">
<g id="a_node31"><a xlink:href="/swift-2/type/MapSequence/" target="_top">
<polygon fill="#999999" stroke="#999999" points="6098.54,-22 6011.46,-22 6011.46,-0 6098.54,-0 6098.54,-22"/>
<text text-anchor="middle" x="6055" y="-7.4" font-family="Helvetica,sans-Serif" font-size="12.00" fill="white">MapSequence</text>
</a>
</g>
</g>
<!-- MutableCollectionType&#45;&gt;Array -->
<g id="edge99" class="edge">
<path fill="none" stroke="#cccccc" d="M2826.01,-173.922C2711.21,-151 2441.49,-95.7272 2429,-80 2418.05,-66.2199 2424.15,-46.0372 2431.41,-31.2387"/>
<polygon fill="#cccccc" stroke="#cccccc" points="2434.5,-32.8744 2436.18,-22.4129 2428.34,-29.5461 2434.5,-32.8744"/>
</g>
<!-- MutableCollectionType&#45;&gt;ArraySlice -->
<g id="edge100" class="edge">
<path fill="none" stroke="#cccccc" d="M2811.4,-174.644C2766.95,-166.952 2713.58,-154.617 2698,-138 2673.45,-111.822 2666.08,-87.1617 2687,-58 2708.15,-28.5233 2749.21,-17.695 2780.71,-13.8384"/>
<polygon fill="#cccccc" stroke="#cccccc" points="2781.39,-17.2867 2790.98,-12.7809 2780.67,-10.3235 2781.39,-17.2867"/>
</g>
<!-- MutableCollectionType&#45;&gt;ContiguousArray -->
<g id="edge101" class="edge">
<path fill="none" stroke="#cccccc" d="M2893.56,-173.863C2916.16,-160.161 2958.1,-135.233 2995,-116 3030.44,-97.5281 3133.37,-50.1845 3185.68,-26.2738"/>
<polygon fill="#cccccc" stroke="#cccccc" points="3187.19,-29.4321 3194.83,-22.0941 3184.28,-23.0648 3187.19,-29.4321"/>
</g>
<!-- MutableSliceable -->
<g id="node33" class="node">
<g id="a_node33"><a xlink:href="/swift-2/protocol/MutableSliceable/" target="_top">
<path fill="#999999" stroke="#999999" d="M2935.21,-138C2935.21,-138 2848.79,-138 2848.79,-138 2845.13,-138 2841.46,-134.333 2841.46,-130.667 2841.46,-130.667 2841.46,-123.333 2841.46,-123.333 2841.46,-119.667 2845.13,-116 2848.79,-116 2848.79,-116 2935.21,-116 2935.21,-116 2938.87,-116 2942.54,-119.667 2942.54,-123.333 2942.54,-123.333 2942.54,-130.667 2942.54,-130.667 2942.54,-134.333 2938.87,-138 2935.21,-138"/>
<text text-anchor="middle" x="2892" y="-123.4" font-family="Helvetica,sans-Serif" font-size="12.00" fill="white">MutableSliceable</text>
</a>
</g>
</g>
<!-- MutableCollectionType&#45;&gt;MutableSliceable -->
<g id="edge102" class="edge">
<path fill="none" stroke="#cccccc" d="M2879.68,-173.988C2881.6,-166.831 2884.24,-156.955 2886.59,-148.189"/>
<polygon fill="#cccccc" stroke="#cccccc" points="2890.03,-148.869 2889.24,-138.304 2883.27,-147.058 2890.03,-148.869"/>
</g>
<!-- MutableCollectionType&#45;&gt;UnsafeMutableBufferPointer -->
<g id="edge103" class="edge">
<path fill="none" stroke="#cccccc" d="M2942.47,-180.905C3198.61,-168.596 4133.11,-121.754 4427,-80 4521.4,-66.5881 4629.81,-40.3709 4690.47,-24.6984"/>
<polygon fill="#cccccc" stroke="#cccccc" points="4691.71,-27.9926 4700.51,-22.0888 4689.95,-21.2178 4691.71,-27.9926"/>
</g>
<!-- _ArrayBufferType -->
<g id="node55" class="node">
<g id="a_node55"><a xlink:href="/swift-2/protocol/_ArrayBufferType/" target="_top">
<path fill="#999999" stroke="#999999" d="M2529.04,-138C2529.04,-138 2440.96,-138 2440.96,-138 2437.29,-138 2433.62,-134.333 2433.62,-130.667 2433.62,-130.667 2433.62,-123.333 2433.62,-123.333 2433.62,-119.667 2437.29,-116 2440.96,-116 2440.96,-116 2529.04,-116 2529.04,-116 2532.71,-116 2536.38,-119.667 2536.38,-123.333 2536.38,-123.333 2536.38,-130.667 2536.38,-130.667 2536.38,-134.333 2532.71,-138 2529.04,-138"/>
<text text-anchor="middle" x="2485" y="-123.4" font-family="Helvetica,sans-Serif" font-size="12.00" fill="white">_ArrayBufferType</text>
</a>
</g>
</g>
<!-- MutableCollectionType&#45;&gt;_ArrayBufferType -->
<g id="edge104" class="edge">
<path fill="none" stroke="#cccccc" d="M2811.41,-174.945C2745.56,-165.806 2641.21,-151.198 2551,-138 2549.53,-137.785 2548.04,-137.567 2546.54,-137.345"/>
<polygon fill="#cccccc" stroke="#cccccc" points="2546.92,-133.863 2536.52,-135.857 2545.89,-140.787 2546.92,-133.863"/>
</g>
<!-- MutableSliceable&#45;&gt;Array -->
<g id="edge105" class="edge">
<path fill="none" stroke="#cccccc" d="M2852.55,-115.983C2766.58,-94.1555 2563.37,-42.5614 2479.84,-21.3527"/>
<polygon fill="#cccccc" stroke="#cccccc" points="2480.58,-17.9304 2470.03,-18.8618 2478.86,-24.7151 2480.58,-17.9304"/>
</g>
<!-- MutableSliceable&#45;&gt;ArraySlice -->
<g id="edge106" class="edge">
<path fill="none" stroke="#cccccc" d="M2877.22,-115.953C2866,-107.581 2851,-94.6837 2842,-80 2833.11,-65.4853 2828.27,-46.7071 2825.71,-32.5626"/>
<polygon fill="#cccccc" stroke="#cccccc" points="2829.12,-31.7165 2824.1,-22.3824 2822.2,-32.805 2829.12,-31.7165"/>
</g>
<!-- MutableSliceable&#45;&gt;ContiguousArray -->
<g id="edge107" class="edge">
<path fill="none" stroke="#cccccc" d="M2920.56,-115.983C2979.05,-95.4665 3112.51,-48.6515 3178.54,-25.4898"/>
<polygon fill="#cccccc" stroke="#cccccc" points="3179.88,-28.7293 3188.16,-22.1165 3177.56,-22.1239 3179.88,-28.7293"/>
</g>
<!-- _ArrayType -->
<g id="node56" class="node">
<g id="a_node56"><a xlink:href="/swift-2/protocol/_ArrayType/" target="_top">
<path fill="#999999" stroke="#999999" d="M2915.19,-80C2915.19,-80 2858.81,-80 2858.81,-80 2855.14,-80 2851.48,-76.3333 2851.48,-72.6667 2851.48,-72.6667 2851.48,-65.3333 2851.48,-65.3333 2851.48,-61.6667 2855.14,-58 2858.81,-58 2858.81,-58 2915.19,-58 2915.19,-58 2918.86,-58 2922.52,-61.6667 2922.52,-65.3333 2922.52,-65.3333 2922.52,-72.6667 2922.52,-72.6667 2922.52,-76.3333 2918.86,-80 2915.19,-80"/>
<text text-anchor="middle" x="2887" y="-65.4" font-family="Helvetica,sans-Serif" font-size="12.00" fill="white">_ArrayType</text>
</a>
</g>
</g>
<!-- MutableSliceable&#45;&gt;_ArrayType -->
<g id="edge108" class="edge">
<path fill="none" stroke="#cccccc" d="M2891.11,-115.988C2890.47,-108.91 2889.6,-99.1714 2888.83,-90.4779"/>
<polygon fill="#cccccc" stroke="#cccccc" points="2892.3,-89.953 2887.92,-80.3039 2885.32,-90.5755 2892.3,-89.953"/>
</g>
<!-- PermutationGenerator -->
<g id="node34" class="node">
<g id="a_node34"><a xlink:href="/swift-2/type/PermutationGenerator/" target="_top">
<polygon fill="#999999" stroke="#999999" points="6245.05,-22 6116.95,-22 6116.95,-0 6245.05,-0 6245.05,-22"/>
<text text-anchor="middle" x="6181" y="-7.4" font-family="Helvetica,sans-Serif" font-size="12.00" fill="white">PermutationGenerator</text>
</a>
</g>
</g>
<!-- RangeGenerator -->
<g id="node36" class="node">
<g id="a_node36"><a xlink:href="/swift-2/type/RangeGenerator/" target="_top">
<polygon fill="#999999" stroke="#999999" points="6362.54,-22 6263.46,-22 6263.46,-0 6362.54,-0 6362.54,-22"/>
<text text-anchor="middle" x="6313" y="-7.4" font-family="Helvetica,sans-Serif" font-size="12.00" fill="white">RangeGenerator</text>
</a>
</g>
</g>
<!-- RangeReplaceableCollectionType&#45;&gt;Array -->
<g id="edge90" class="edge">
<path fill="none" stroke="#cccccc" d="M3173.79,-115.879C3121.82,-100.894 3019.62,-72.9711 2931,-58 2764.2,-29.8216 2562.2,-17.6683 2480.23,-13.6435"/>
<polygon fill="#cccccc" stroke="#cccccc" points="2480.32,-10.1435 2470.16,-13.1604 2479.98,-17.1355 2480.32,-10.1435"/>
</g>
<!-- RangeReplaceableCollectionType&#45;&gt;ArraySlice -->
<g id="edge91" class="edge">
<path fill="none" stroke="#cccccc" d="M3192.82,-115.998C3169.39,-101.038 3122.57,-72.9942 3079,-58 3006.3,-32.9795 2917.06,-20.8926 2865.44,-15.6032"/>
<polygon fill="#cccccc" stroke="#cccccc" points="2865.62,-12.1041 2855.33,-14.6048 2864.93,-19.0703 2865.62,-12.1041"/>
</g>
<!-- RangeReplaceableCollectionType&#45;&gt;ContiguousArray -->
<g id="edge92" class="edge">
<path fill="none" stroke="#cccccc" d="M3208.8,-115.883C3210.28,-97.1703 3213.46,-56.8266 3215.4,-32.2866"/>
<polygon fill="#cccccc" stroke="#cccccc" points="3218.89,-32.5024 3216.19,-22.2579 3211.91,-31.9514 3218.89,-32.5024"/>
</g>
<!-- RangeReplaceableCollectionType&#45;&gt;String.CharacterView -->
<g id="edge94" class="edge">
<path fill="none" stroke="#cccccc" d="M3238.46,-115.938C3281.21,-101.993 3361.56,-76.4284 3431,-58 3479.14,-45.225 3534.28,-32.8729 3574.93,-24.1909"/>
<polygon fill="#cccccc" stroke="#cccccc" points="3575.89,-27.566 3584.94,-22.0646 3574.43,-20.7187 3575.89,-27.566"/>
</g>
<!-- RangeReplaceableCollectionType&#45;&gt;String.UnicodeScalarView -->
<g id="edge95" class="edge">
<path fill="none" stroke="#cccccc" d="M3258.96,-115.983C3365.62,-95.0188 3611.99,-46.596 3726.91,-24.008"/>
<polygon fill="#cccccc" stroke="#cccccc" points="3727.81,-27.3978 3736.95,-22.0348 3726.46,-20.5293 3727.81,-27.3978"/>
</g>
<!-- RangeReplaceableCollectionType&#45;&gt;_ArrayType -->
<g id="edge93" class="edge">
<path fill="none" stroke="#cccccc" d="M3150.61,-115.988C3088.18,-105.096 2989.64,-87.9068 2932.38,-77.9168"/>
<polygon fill="#cccccc" stroke="#cccccc" points="2932.98,-74.4689 2922.53,-76.1981 2931.78,-81.3647 2932.98,-74.4689"/>
</g>
<!-- SequenceType -->
<g id="node41" class="node">
<g id="a_node41"><a xlink:href="/swift-2/protocol/SequenceType/" target="_top">
<path fill="#ee543d" stroke="#ee543d" d="M3278.72,-428C3278.72,-428 3203.28,-428 3203.28,-428 3199.62,-428 3195.95,-424.333 3195.95,-420.667 3195.95,-420.667 3195.95,-413.333 3195.95,-413.333 3195.95,-409.667 3199.62,-406 3203.28,-406 3203.28,-406 3278.72,-406 3278.72,-406 3282.38,-406 3286.05,-409.667 3286.05,-413.333 3286.05,-413.333 3286.05,-420.667 3286.05,-420.667 3286.05,-424.333 3282.38,-428 3278.72,-428"/>
<text text-anchor="middle" x="3241" y="-413.4" font-family="Helvetica,sans-Serif" font-size="12.00" fill="white">SequenceType</text>
</a>
</g>
</g>
<!-- SequenceType&#45;&gt;AnyBidirectionalCollection -->
<g id="edge1" class="edge">
<path fill="none" stroke="#cccccc" d="M3286.24,-415.867C3490.84,-415.049 4321.27,-409.31 4359,-370 4456.45,-268.454 4304.36,-86.549 4251.81,-29.5645"/>
<polygon fill="#cccccc" stroke="#cccccc" points="4254.2,-27.0018 4244.81,-22.0878 4249.09,-31.7827 4254.2,-27.0018"/>
</g>
<!-- SequenceType&#45;&gt;AnyForwardCollection -->
<g id="edge2" class="edge">
<path fill="none" stroke="#cccccc" d="M3286.28,-416.243C3485.77,-417.034 4280.81,-417.179 4381,-370 4500.86,-313.558 4567.44,-244.936 4537,-116 4530.38,-87.9505 4529.27,-77.4518 4508,-58 4491.18,-42.6123 4468.6,-32.1234 4447.77,-25.0975"/>
<polygon fill="#cccccc" stroke="#cccccc" points="4448.63,-21.6967 4438.04,-22.0142 4446.51,-28.37 4448.63,-21.6967"/>
</g>
<!-- SequenceType&#45;&gt;AnyGenerator -->
<g id="edge3" class="edge">
<path fill="none" stroke="#cccccc" d="M3195.81,-415.946C2826.84,-415.427 319.006,-410.421 166,-370 105.231,-353.946 42,-364.854 42,-302 42,-302 42,-302 42,-126 42,-93.1536 42,-54.9837 42,-32.197"/>
<polygon fill="#cccccc" stroke="#cccccc" points="45.5001,-32.0648 42,-22.0648 38.5001,-32.0648 45.5001,-32.0648"/>
</g>
<!-- SequenceType&#45;&gt;AnyRandomAccessCollection -->
<g id="edge4" class="edge">
<path fill="none" stroke="#cccccc" d="M3286.06,-415.693C3488.31,-414.117 4307.28,-405.574 4416,-370 4533.49,-331.555 4565.12,-299.315 4633,-196 4647.9,-173.33 4644.38,-164.033 4652,-138 4662.16,-103.282 4687.1,-88.0803 4667,-58 4656.69,-42.5598 4640.12,-32.2955 4622.9,-25.4744"/>
<polygon fill="#cccccc" stroke="#cccccc" points="4623.9,-22.1137 4613.31,-22.0282 4621.54,-28.7019 4623.9,-22.1137"/>
</g>
<!-- SequenceType&#45;&gt;AnySequence -->
<g id="edge5" class="edge">
<path fill="none" stroke="#cccccc" d="M3195.7,-415.899C2833.78,-415.022 421.706,-407.764 274,-370 211.209,-353.946 145,-366.811 145,-302 145,-302 145,-302 145,-126 145,-93.1536 145,-54.9837 145,-32.197"/>
<polygon fill="#cccccc" stroke="#cccccc" points="148.5,-32.0648 145,-22.0648 141.5,-32.0648 148.5,-32.0648"/>
</g>
<!-- SequenceType&#45;&gt;Array -->
<g id="edge6" class="edge">
<path fill="none" stroke="#cccccc" d="M3195.81,-415.668C3033.87,-414.179 2488.57,-406.477 2420,-370 2339.8,-327.335 2348.62,-263.855 2362,-174 2369.86,-121.217 2365.38,-103.659 2393,-58 2399.89,-46.6038 2410.44,-36.3112 2420.06,-28.3658"/>
<polygon fill="#cccccc" stroke="#cccccc" points="2422.46,-30.9376 2428.18,-22.0191 2418.14,-25.4244 2422.46,-30.9376"/>
</g>
<!-- SequenceType&#45;&gt;ArraySlice -->
<g id="edge7" class="edge">
<path fill="none" stroke="#cccccc" d="M3195.91,-416.43C3036.36,-417.541 2504.94,-417.609 2447,-370 2358.36,-297.168 2334.25,-209.306 2401,-116 2445.37,-53.9769 2682.77,-25.0605 2780.71,-15.6377"/>
<polygon fill="#cccccc" stroke="#cccccc" points="2781.21,-19.1057 2790.84,-14.6847 2780.56,-12.1364 2781.21,-19.1057"/>
</g>
<!-- SequenceType&#45;&gt;CollectionOfOne -->
<g id="edge8" class="edge">
<path fill="none" stroke="#cccccc" d="M3286.18,-415.503C3497.85,-413.018 4386.15,-400.825 4506,-370 4702.64,-319.425 4747.44,-249.65 4859,-80 4868.74,-65.189 4875.61,-46.1968 4879.83,-32.0502"/>
<polygon fill="#cccccc" stroke="#cccccc" points="4883.23,-32.8992 4882.55,-22.3263 4876.49,-31.0157 4883.23,-32.8992"/>
</g>
<!-- SequenceType&#45;&gt;CollectionType -->
<g id="edge9" class="edge">
<path fill="none" stroke="#cccccc" d="M3286.19,-409.503C3422.8,-389.864 3831.12,-331.166 3979.41,-309.847"/>
<polygon fill="#cccccc" stroke="#cccccc" points="3980.23,-313.265 3989.63,-308.378 3979.24,-306.337 3980.23,-313.265"/>
</g>
<!-- SequenceType&#45;&gt;ContiguousArray -->
<g id="edge10" class="edge">
<path fill="none" stroke="#cccccc" d="M3195.73,-415.005C3033.87,-411.233 2492.11,-396.65 2467,-370 2424.94,-325.363 2425.27,-276.949 2467,-232 2503.69,-192.479 2900.16,-213.968 2951,-196 3056.5,-158.716 3158.93,-67.988 3199.15,-29.609"/>
<polygon fill="#cccccc" stroke="#cccccc" points="3201.79,-31.921 3206.55,-22.4568 3196.93,-26.8856 3201.79,-31.921"/>
</g>
<!-- SequenceType&#45;&gt;Dictionary -->
<g id="edge11" class="edge">
<path fill="none" stroke="#cccccc" d="M3286.12,-415.432C3502.68,-412.569 4430.24,-398.715 4556,-370 4767.28,-321.759 4815,-251.108 4948,-80 4959.61,-65.0632 4969.39,-45.8414 4975.82,-31.6472"/>
<polygon fill="#cccccc" stroke="#cccccc" points="4979.09,-32.8987 4979.88,-22.3333 4972.67,-30.1005 4979.09,-32.8987"/>
</g>
<!-- SequenceType&#45;&gt;DictionaryLiteral -->
<g id="edge12" class="edge">
<path fill="none" stroke="#cccccc" d="M3195.74,-415.819C2927.88,-414.621 1559.32,-406.719 1479,-370 1441.8,-352.995 1417,-342.899 1417,-302 1417,-302 1417,-302 1417,-126 1417,-90.4129 1436.21,-52.667 1449.52,-30.7727"/>
<polygon fill="#cccccc" stroke="#cccccc" points="1452.59,-32.4764 1454.97,-22.1525 1446.67,-28.7386 1452.59,-32.4764"/>
</g>
<!-- SequenceType&#45;&gt;EmptyCollection -->
<g id="edge13" class="edge">
<path fill="none" stroke="#cccccc" d="M3195.61,-415.502C2934.43,-412.543 1632.16,-396.503 1552,-370 1502.01,-353.472 1455,-354.649 1455,-302 1455,-302 1455,-302 1455,-184 1455,-116.348 1518.39,-56.5189 1553.41,-28.6314"/>
<polygon fill="#cccccc" stroke="#cccccc" points="1555.89,-31.1385 1561.64,-22.2442 1551.6,-25.6072 1555.89,-31.1385"/>
</g>
<!-- SequenceType&#45;&gt;EmptyGenerator -->
<g id="edge14" class="edge">
<path fill="none" stroke="#cccccc" d="M3195.73,-415.798C2842.97,-414.16 543.992,-402.266 402,-370 331.411,-353.959 254,-374.389 254,-302 254,-302 254,-302 254,-126 254,-93.1536 254,-54.9837 254,-32.197"/>
<polygon fill="#cccccc" stroke="#cccccc" points="257.5,-32.0648 254,-22.0648 250.5,-32.0648 257.5,-32.0648"/>
</g>
<!-- SequenceType&#45;&gt;EnumerateGenerator -->
<g id="edge15" class="edge">
<path fill="none" stroke="#cccccc" d="M3195.83,-415.72C2853.57,-413.536 678.103,-398.562 543,-370 467.004,-353.934 382,-379.676 382,-302 382,-302 382,-302 382,-126 382,-93.1536 382,-54.9837 382,-32.197"/>
<polygon fill="#cccccc" stroke="#cccccc" points="385.5,-32.0648 382,-22.0648 378.5,-32.0648 385.5,-32.0648"/>
</g>
<!-- SequenceType&#45;&gt;EnumerateSequence -->
<g id="edge16" class="edge">
<path fill="none" stroke="#cccccc" d="M3195.85,-415.723C2862.95,-413.613 797.985,-399.371 670,-370 599.839,-353.899 523,-373.985 523,-302 523,-302 523,-302 523,-126 523,-93.1536 523,-54.9837 523,-32.197"/>
<polygon fill="#cccccc" stroke="#cccccc" points="526.5,-32.0648 523,-22.0648 519.5,-32.0648 526.5,-32.0648"/>
</g>
<!-- SequenceType&#45;&gt;FilterCollection -->
<g id="edge17" class="edge">
<path fill="none" stroke="#cccccc" d="M3195.69,-415.832C2953.73,-414.78 1819.41,-407.853 1668,-370 1602.05,-353.513 1531,-369.977 1531,-302 1531,-302 1531,-302 1531,-184 1531,-109.291 1612.75,-52.6125 1657.89,-27.0096"/>
<polygon fill="#cccccc" stroke="#cccccc" points="1659.86,-29.9194 1666.93,-22.0226 1656.48,-23.7911 1659.86,-29.9194"/>
</g>
<!-- SequenceType&#45;&gt;FilterGenerator -->
<g id="edge18" class="edge">
<path fill="none" stroke="#cccccc" d="M3195.96,-415.743C2871.52,-413.821 900.65,-400.899 779,-370 715.42,-353.851 648,-367.599 648,-302 648,-302 648,-302 648,-126 648,-93.1536 648,-54.9837 648,-32.197"/>
<polygon fill="#cccccc" stroke="#cccccc" points="651.5,-32.0648 648,-22.0648 644.5,-32.0648 651.5,-32.0648"/>
</g>
<!-- SequenceType&#45;&gt;FilterSequence -->
<g id="edge19" class="edge">
<path fill="none" stroke="#cccccc" d="M3195.74,-415.693C2879.18,-413.472 1005.97,-399.129 890,-370 825.611,-353.826 757,-368.389 757,-302 757,-302 757,-302 757,-126 757,-93.1536 757,-54.9837 757,-32.197"/>
<polygon fill="#cccccc" stroke="#cccccc" points="760.5,-32.0648 757,-22.0648 753.5,-32.0648 760.5,-32.0648"/>
</g>
<!-- SequenceType&#45;&gt;GeneratorOfOne -->
<g id="edge20" class="edge">
<path fill="none" stroke="#cccccc" d="M3195.63,-416.194C2898.38,-417.313 1234.25,-421.241 1015,-370 945.689,-353.801 870,-373.179 870,-302 870,-302 870,-302 870,-126 870,-93.1536 870,-54.9837 870,-32.197"/>
<polygon fill="#cccccc" stroke="#cccccc" points="873.5,-32.0648 870,-22.0648 866.5,-32.0648 873.5,-32.0648"/>
</g>
<!-- SequenceType&#45;&gt;GeneratorSequence -->
<g id="edge21" class="edge">
<path fill="none" stroke="#cccccc" d="M3195.66,-416.074C2909.19,-416.402 1355.74,-416.032 1150,-370 1077.38,-353.753 997,-376.414 997,-302 997,-302 997,-302 997,-126 997,-93.1536 997,-54.9837 997,-32.197"/>
<polygon fill="#cccccc" stroke="#cccccc" points="1000.5,-32.0648 997,-22.0648 993.5,-32.0648 1000.5,-32.0648"/>
</g>
<!-- SequenceType&#45;&gt;IndexingGenerator -->
<g id="edge22" class="edge">
<path fill="none" stroke="#cccccc" d="M3195.96,-416.115C2919.7,-416.663 1459.79,-417.294 1267,-370 1200.59,-353.709 1129,-370.375 1129,-302 1129,-302 1129,-302 1129,-126 1129,-93.1536 1129,-54.9837 1129,-32.197"/>
<polygon fill="#cccccc" stroke="#cccccc" points="1132.5,-32.0648 1129,-22.0648 1125.5,-32.0648 1132.5,-32.0648"/>
</g>
<!-- SequenceType&#45;&gt;LazyBidirectionalCollection -->
<g id="edge23" class="edge">
<path fill="none" stroke="#cccccc" d="M3195.61,-415.443C2951.02,-412.34 1798.37,-396.358 1728,-370 1683.34,-353.273 1645,-349.688 1645,-302 1645,-302 1645,-302 1645,-242 1645,-142.503 1750.9,-60.6511 1800.69,-27.6629"/>
<polygon fill="#cccccc" stroke="#cccccc" points="1802.81,-30.4578 1809.3,-22.0786 1799,-24.5856 1802.81,-30.4578"/>
</g>
<!-- SequenceType&#45;&gt;LazyForwardCollection -->
<g id="edge24" class="edge">
<path fill="none" stroke="#cccccc" d="M3195.68,-415.159C3008.18,-411.534 2292.44,-396.233 2068,-370 1911.91,-351.755 1721,-459.156 1721,-302 1721,-302 1721,-302 1721,-242 1721,-124.124 1872.31,-53.2216 1946.69,-25.4897"/>
<polygon fill="#cccccc" stroke="#cccccc" points="1948.03,-28.7281 1956.23,-22.0151 1945.63,-22.1513 1948.03,-28.7281"/>
</g>
<!-- SequenceType&#45;&gt;LazyRandomAccessCollection -->
<g id="edge25" class="edge">
<path fill="none" stroke="#cccccc" d="M3195.87,-414.657C2959.31,-407.325 1873,-369.959 1873,-302 1873,-302 1873,-302 1873,-242 1873,-120.463 2032.01,-52.0323 2112.07,-25.2815"/>
<polygon fill="#cccccc" stroke="#cccccc" points="2113.47,-28.5066 2121.89,-22.077 2111.3,-21.852 2113.47,-28.5066"/>
</g>
<!-- SequenceType&#45;&gt;LazySequence -->
<g id="edge26" class="edge">
<path fill="none" stroke="#cccccc" d="M3195.84,-416.12C2928.23,-416.671 1556,-417.159 1375,-370 1312.28,-353.659 1246,-366.811 1246,-302 1246,-302 1246,-302 1246,-126 1246,-93.1536 1246,-54.9837 1246,-32.197"/>
<polygon fill="#cccccc" stroke="#cccccc" points="1249.5,-32.0648 1246,-22.0648 1242.5,-32.0648 1249.5,-32.0648"/>
</g>
<!-- SequenceType&#45;&gt;MapCollection -->
<g id="edge27" class="edge">
<path fill="none" stroke="#cccccc" d="M3195.77,-415.584C3029.66,-413.78 2459.19,-405.067 2386,-370 2269.28,-314.076 2245.49,-262.464 2210,-138 2205.09,-120.771 2204.54,-70.9962 2213,-58 2222.69,-43.1194 2238.76,-32.8376 2254.72,-25.8354"/>
<polygon fill="#cccccc" stroke="#cccccc" points="2256.08,-29.0596 2264.05,-22.0816 2253.47,-22.565 2256.08,-29.0596"/>
</g>
<!-- SequenceType&#45;&gt;MapGenerator -->
<g id="edge28" class="edge">
<path fill="none" stroke="#cccccc" d="M3195.56,-415.676C2923.59,-413.631 1519.93,-401.575 1435,-370 1390.3,-353.383 1352,-349.688 1352,-302 1352,-302 1352,-302 1352,-126 1352,-93.1536 1352,-54.9837 1352,-32.197"/>
<polygon fill="#cccccc" stroke="#cccccc" points="1355.5,-32.0648 1352,-22.0648 1348.5,-32.0648 1355.5,-32.0648"/>
</g>
<!-- SequenceType&#45;&gt;MapSequence -->
<g id="edge29" class="edge">
<path fill="none" stroke="#cccccc" d="M3286.28,-415.969C3610.59,-415.648 5574.91,-411.972 5836,-370 5936.63,-353.824 6055,-403.917 6055,-302 6055,-302 6055,-302 6055,-126 6055,-93.1536 6055,-54.9837 6055,-32.197"/>
<polygon fill="#cccccc" stroke="#cccccc" points="6058.5,-32.0648 6055,-22.0648 6051.5,-32.0648 6058.5,-32.0648"/>
</g>
<!-- SequenceType&#45;&gt;PermutationGenerator -->
<g id="edge30" class="edge">
<path fill="none" stroke="#cccccc" d="M3286.15,-415.973C3618.31,-415.676 5678.38,-412.14 5952,-370 6056.93,-353.839 6181,-408.17 6181,-302 6181,-302 6181,-302 6181,-126 6181,-93.1536 6181,-54.9837 6181,-32.197"/>
<polygon fill="#cccccc" stroke="#cccccc" points="6184.5,-32.0648 6181,-22.0648 6177.5,-32.0648 6184.5,-32.0648"/>
</g>
<!-- SequenceType&#45;&gt;Range -->
<g id="edge31" class="edge">
<path fill="none" stroke="#cccccc" d="M3286.1,-415.424C3507.98,-412.462 4478.28,-397.999 4610,-370 4828.67,-323.516 4879.44,-253.03 5021,-80 5033.28,-64.9867 5044.22,-45.773 5051.54,-31.6014"/>
<polygon fill="#cccccc" stroke="#cccccc" points="5054.84,-32.8139 5056.19,-22.3055 5048.59,-29.678 5054.84,-32.8139"/>
</g>
<!-- SequenceType&#45;&gt;RangeGenerator -->
<g id="edge32" class="edge">
<path fill="none" stroke="#cccccc" d="M3286.26,-415.977C3627.24,-415.714 5787.27,-412.371 6074,-370 6183.25,-353.855 6313,-412.438 6313,-302 6313,-302 6313,-302 6313,-126 6313,-93.1536 6313,-54.9837 6313,-32.197"/>
<polygon fill="#cccccc" stroke="#cccccc" points="6316.5,-32.0648 6313,-22.0648 6309.5,-32.0648 6316.5,-32.0648"/>
</g>
<!-- SequenceType&#45;&gt;Repeat -->
<g id="edge33" class="edge">
<path fill="none" stroke="#cccccc" d="M3286.04,-415.445C3513.26,-412.526 4528.27,-398.007 4666,-370 4889.37,-324.578 4940.5,-252.928 5089,-80 5102.1,-64.745 5114.29,-45.3149 5122.51,-31.134"/>
<polygon fill="#cccccc" stroke="#cccccc" points="5125.64,-32.6984 5127.52,-22.2709 5119.55,-29.2528 5125.64,-32.6984"/>
</g>
<!-- SequenceType&#45;&gt;ReverseCollection -->
<g id="edge34" class="edge">
<path fill="none" stroke="#cccccc" d="M3286.09,-416.17C3605.26,-417.083 5511,-417.696 5511,-302 5511,-302 5511,-302 5511,-242 5511,-121.45 5354,-52.3351 5275.55,-25.3232"/>
<polygon fill="#cccccc" stroke="#cccccc" points="5276.53,-21.9592 5265.93,-22.0877 5274.29,-28.5938 5276.53,-21.9592"/>
</g>
<!-- SequenceType&#45;&gt;ReverseRandomAccessCollection -->
<g id="edge35" class="edge">
<path fill="none" stroke="#cccccc" d="M3286.18,-415.642C3569.94,-413.305 5100.89,-399.407 5307,-370 5405.83,-355.9 5462.52,-390.655 5524,-312 5596.73,-218.954 5466.98,-77.5192 5417.22,-29.0167"/>
<polygon fill="#cccccc" stroke="#cccccc" points="5419.6,-26.4522 5409.96,-22.0519 5414.75,-31.502 5419.6,-26.4522"/>
</g>
<!-- SequenceType&#45;&gt;Set -->
<g id="edge36" class="edge">
<path fill="none" stroke="#cccccc" d="M3286.12,-416.08C3578.18,-416.458 5195.81,-416.435 5410,-370 5473.82,-356.164 5502.48,-361.564 5545,-312 5615.28,-230.072 5568.51,-84.2089 5548.13,-31.5997"/>
<polygon fill="#cccccc" stroke="#cccccc" points="5551.3,-30.0962 5544.34,-22.1056 5544.8,-32.6907 5551.3,-30.0962"/>
</g>
<!-- StrideThrough -->
<g id="node44" class="node">
<g id="a_node44"><a xlink:href="/swift-2/type/StrideThrough/" target="_top">
<polygon fill="#999999" stroke="#999999" points="6467.03,-22 6380.97,-22 6380.97,-0 6467.03,-0 6467.03,-22"/>
<text text-anchor="middle" x="6424" y="-7.4" font-family="Helvetica,sans-Serif" font-size="12.00" fill="white">StrideThrough</text>
</a>
</g>
</g>
<!-- SequenceType&#45;&gt;StrideThrough -->
<g id="edge37" class="edge">
<path fill="none" stroke="#cccccc" d="M3286.06,-416.062C3635.03,-416.442 5901.2,-417.077 6201,-370 6303.36,-353.926 6424,-405.617 6424,-302 6424,-302 6424,-302 6424,-126 6424,-93.1536 6424,-54.9837 6424,-32.197"/>
<polygon fill="#cccccc" stroke="#cccccc" points="6427.5,-32.0648 6424,-22.0648 6420.5,-32.0648 6427.5,-32.0648"/>
</g>
<!-- StrideTo -->
<g id="node45" class="node">
<g id="a_node45"><a xlink:href="/swift-2/type/StrideTo/" target="_top">
<polygon fill="#999999" stroke="#999999" points="6539.02,-22 6484.98,-22 6484.98,-0 6539.02,-0 6539.02,-22"/>
<text text-anchor="middle" x="6512" y="-7.4" font-family="Helvetica,sans-Serif" font-size="12.00" fill="white">StrideTo</text>
</a>
</g>
</g>
<!-- SequenceType&#45;&gt;StrideTo -->
<g id="edge38" class="edge">
<path fill="none" stroke="#cccccc" d="M3286.19,-415.741C3655.16,-413.576 6163.06,-397.869 6319,-370 6408.53,-354 6512,-392.946 6512,-302 6512,-302 6512,-302 6512,-126 6512,-93.1536 6512,-54.9837 6512,-32.197"/>
<polygon fill="#cccccc" stroke="#cccccc" points="6515.5,-32.0648 6512,-22.0648 6508.5,-32.0648 6515.5,-32.0648"/>
</g>
<!-- SequenceType&#45;&gt;String.CharacterView -->
<g id="edge45" class="edge">
<path fill="none" stroke="#cccccc" d="M3195.95,-415.505C3123.75,-413.651 2987.15,-405.422 2957,-370 2933.96,-342.923 2934.98,-317.913 2957,-290 3068.24,-149.009 3184.92,-266.735 3350,-196 3457.33,-150.011 3569.18,-64.5253 3613.85,-28.5906"/>
<polygon fill="#cccccc" stroke="#cccccc" points="3616.3,-31.1079 3621.86,-22.0907 3611.89,-25.6709 3616.3,-31.1079"/>
</g>
<!-- SequenceType&#45;&gt;String.UTF16View -->
<g id="edge47" class="edge">
<path fill="none" stroke="#cccccc" d="M3286.03,-416.511C3442.83,-417.394 3962.17,-412.532 4087,-312 4171.98,-243.56 4119.21,-86.2261 4097.24,-31.3255"/>
<polygon fill="#cccccc" stroke="#cccccc" points="4100.46,-29.9551 4093.42,-22.0383 4093.99,-32.6179 4100.46,-29.9551"/>
</g>
<!-- SequenceType&#45;&gt;String.UTF8View -->
<g id="edge48" class="edge">
<path fill="none" stroke="#cccccc" d="M3286.32,-415.603C3583.31,-412.928 5246.14,-396.835 5470,-370 5608.76,-353.366 5777,-441.751 5777,-302 5777,-302 5777,-302 5777,-242 5777,-149.996 5693.72,-64.0154 5654.71,-28.7935"/>
<polygon fill="#cccccc" stroke="#cccccc" points="5656.92,-26.0697 5647.11,-22.064 5652.28,-31.312 5656.92,-26.0697"/>
</g>
<!-- SequenceType&#45;&gt;String.UnicodeScalarView -->
<g id="edge46" class="edge">
<path fill="none" stroke="#cccccc" d="M3286.14,-411.711C3377.66,-400.859 3587.47,-364.77 3718,-254 3784.86,-197.265 3789.69,-165.059 3811,-80 3815.19,-63.2679 3808.13,-44.7517 3800.75,-31.2713"/>
<polygon fill="#cccccc" stroke="#cccccc" points="3803.62,-29.2373 3795.49,-22.4431 3797.6,-32.824 3803.62,-29.2373"/>
</g>
<!-- SequenceType&#45;&gt;UnicodeScalar.UTF16View -->
<g id="edge39" class="edge">
<path fill="none" stroke="#cccccc" d="M3286.16,-416.032C3595.34,-416.136 5394.31,-414.797 5633,-370 5717.87,-354.072 5815,-388.35 5815,-302 5815,-302 5815,-302 5815,-126 5815,-91.3492 5800.04,-53.2797 5789.68,-31.0723"/>
<polygon fill="#cccccc" stroke="#cccccc" points="5792.82,-29.5302 5785.32,-22.0544 5786.52,-32.5803 5792.82,-29.5302"/>
</g>
<!-- SequenceType&#45;&gt;UnsafeBufferPointer -->
<g id="edge40" class="edge">
<path fill="none" stroke="#cccccc" d="M3286.15,-415.984C3602.28,-415.762 5478.65,-412.645 5728,-370 5822.62,-353.817 5933,-397.993 5933,-302 5933,-302 5933,-302 5933,-126 5933,-93.1523 5933.42,-54.9828 5933.72,-32.1966"/>
<polygon fill="#cccccc" stroke="#cccccc" points="5937.22,-32.1108 5933.85,-22.0645 5930.22,-32.0164 5937.22,-32.1108"/>
</g>
<!-- UnsafeBufferPointerGenerator -->
<g id="node52" class="node">
<g id="a_node52"><a xlink:href="/swift-2/type/UnsafeBufferPointerGenerator/" target="_top">
<polygon fill="#999999" stroke="#999999" points="6728.41,-22 6557.59,-22 6557.59,-0 6728.41,-0 6728.41,-22"/>
<text text-anchor="middle" x="6643" y="-7.4" font-family="Helvetica,sans-Serif" font-size="12.00" fill="white">UnsafeBufferPointerGenerator</text>
</a>
</g>
</g>
<!-- SequenceType&#45;&gt;UnsafeBufferPointerGenerator -->
<g id="edge41" class="edge">
<path fill="none" stroke="#cccccc" d="M3286.18,-416.118C3650.13,-416.967 6097.99,-420.752 6421,-370 6522.94,-353.983 6643,-405.192 6643,-302 6643,-302 6643,-302 6643,-126 6643,-93.1536 6643,-54.9837 6643,-32.197"/>
<polygon fill="#cccccc" stroke="#cccccc" points="6646.5,-32.0648 6643,-22.0648 6639.5,-32.0648 6646.5,-32.0648"/>
</g>
<!-- SequenceType&#45;&gt;UnsafeMutableBufferPointer -->
<g id="edge42" class="edge">
<path fill="none" stroke="#cccccc" d="M3286.24,-415.531C3493.19,-413.219 4344.51,-401.835 4459,-370 4630.43,-322.333 4678.37,-248.678 4735,-80 4740.11,-64.7716 4740.64,-46.5422 4740.01,-32.7927"/>
<polygon fill="#cccccc" stroke="#cccccc" points="4743.48,-32.1916 4739.29,-22.4612 4736.5,-32.6817 4743.48,-32.1916"/>
</g>
<!-- Zip2Sequence -->
<g id="node54" class="node">
<g id="a_node54"><a xlink:href="/swift-2/type/Zip2Sequence/" target="_top">
<polygon fill="#999999" stroke="#999999" points="6834.54,-22 6747.46,-22 6747.46,-0 6834.54,-0 6834.54,-22"/>
<text text-anchor="middle" x="6791" y="-7.4" font-family="Helvetica,sans-Serif" font-size="12.00" fill="white">Zip2Sequence</text>
</a>
</g>
</g>
<!-- SequenceType&#45;&gt;Zip2Sequence -->
<g id="edge43" class="edge">
<path fill="none" stroke="#cccccc" d="M3286.07,-416.052C3657.14,-416.39 6202.63,-416.976 6539,-370 6653.89,-353.955 6791,-418.006 6791,-302 6791,-302 6791,-302 6791,-126 6791,-93.1536 6791,-54.9837 6791,-32.197"/>
<polygon fill="#cccccc" stroke="#cccccc" points="6794.5,-32.0648 6791,-22.0648 6787.5,-32.0648 6794.5,-32.0648"/>
</g>
<!-- _CollectionDefaultsType -->
<g id="node57" class="node">
<g id="a_node57"><a xlink:href="/swift-2/protocol/_CollectionDefaultsType/" target="_top">
<path fill="#999999" stroke="#999999" d="M4343.22,-370C4343.22,-370 4218.78,-370 4218.78,-370 4215.11,-370 4211.44,-366.333 4211.44,-362.667 4211.44,-362.667 4211.44,-355.333 4211.44,-355.333 4211.44,-351.667 4215.11,-348 4218.78,-348 4218.78,-348 4343.22,-348 4343.22,-348 4346.89,-348 4350.56,-351.667 4350.56,-355.333 4350.56,-355.333 4350.56,-362.667 4350.56,-362.667 4350.56,-366.333 4346.89,-370 4343.22,-370"/>
<text text-anchor="middle" x="4281" y="-355.4" font-family="Helvetica,sans-Serif" font-size="12.00" fill="white">_CollectionDefaultsType</text>
</a>
</g>
</g>
<!-- SequenceType&#45;&gt;_CollectionDefaultsType -->
<g id="edge44" class="edge">
<path fill="none" stroke="#cccccc" d="M3286.47,-414.399C3421.35,-409.512 3830.9,-393.66 4170,-370 4180.17,-369.291 4190.85,-368.45 4201.4,-367.562"/>
<polygon fill="#cccccc" stroke="#cccccc" points="4201.8,-371.041 4211.46,-366.699 4201.2,-364.067 4201.8,-371.041"/>
</g>
<!-- Sliceable -->
<g id="node43" class="node">
<g id="a_node43"><a xlink:href="/swift-2/protocol/Sliceable/" target="_top">
<path fill="#999999" stroke="#999999" d="M3634.69,-196C3634.69,-196 3591.31,-196 3591.31,-196 3587.64,-196 3583.98,-192.333 3583.98,-188.667 3583.98,-188.667 3583.98,-181.333 3583.98,-181.333 3583.98,-177.667 3587.64,-174 3591.31,-174 3591.31,-174 3634.69,-174 3634.69,-174 3638.36,-174 3642.02,-177.667 3642.02,-181.333 3642.02,-181.333 3642.02,-188.667 3642.02,-188.667 3642.02,-192.333 3638.36,-196 3634.69,-196"/>
<text text-anchor="middle" x="3613" y="-181.4" font-family="Helvetica,sans-Serif" font-size="12.00" fill="white">Sliceable</text>
</a>
</g>
</g>
<!-- Sliceable&#45;&gt;Array -->
<g id="edge116" class="edge">
<path fill="none" stroke="#cccccc" d="M3583.88,-182.888C3432.6,-177.068 2741.71,-149.926 2698,-138 2677.67,-132.453 2675.17,-124.741 2656,-116 2616.05,-97.7859 2603.68,-98.801 2564,-80 2529.97,-63.8771 2492.4,-42.1019 2468.3,-27.5815"/>
<polygon fill="#cccccc" stroke="#cccccc" points="2469.81,-24.407 2459.45,-22.2127 2466.18,-30.3918 2469.81,-24.407"/>
</g>
<!-- Sliceable&#45;&gt;ArraySlice -->
<g id="edge117" class="edge">
<path fill="none" stroke="#cccccc" d="M3583.87,-175.581C3507.7,-153.787 3296.08,-94.6729 3117,-58 3028.14,-39.803 2922.88,-24.9294 2865.51,-17.3799"/>
<polygon fill="#cccccc" stroke="#cccccc" points="2865.74,-13.8801 2855.37,-16.0563 2864.83,-20.8213 2865.74,-13.8801"/>
</g>
<!-- Sliceable&#45;&gt;ContiguousArray -->
<g id="edge118" class="edge">
<path fill="none" stroke="#cccccc" d="M3610.02,-173.643C3602.28,-148.848 3579.05,-86.0609 3535,-58 3493.3,-31.4314 3356.84,-19.6003 3276.87,-14.8367"/>
<polygon fill="#cccccc" stroke="#cccccc" points="3276.64,-11.3177 3266.46,-14.2371 3276.24,-18.3061 3276.64,-11.3177"/>
</g>
<!-- Sliceable&#45;&gt;MutableSliceable -->
<g id="edge119" class="edge">
<path fill="none" stroke="#cccccc" d="M3583.84,-181.735C3476.37,-173.388 3100.92,-144.227 2952.78,-132.721"/>
<polygon fill="#cccccc" stroke="#cccccc" points="2952.75,-129.208 2942.51,-131.923 2952.21,-136.187 2952.75,-129.208"/>
</g>
<!-- Sliceable&#45;&gt;String.CharacterView -->
<g id="edge120" class="edge">
<path fill="none" stroke="#cccccc" d="M3624.2,-173.923C3632.84,-165.346 3644.11,-152.189 3649,-138 3661.44,-101.918 3650.17,-56.9657 3641.59,-31.6744"/>
<polygon fill="#cccccc" stroke="#cccccc" points="3644.83,-30.3462 3638.15,-22.1223 3638.24,-32.7167 3644.83,-30.3462"/>
</g>
<!-- Sliceable&#45;&gt;String.UTF16View -->
<g id="edge122" class="edge">
<path fill="none" stroke="#cccccc" d="M3641,-173.883C3722.43,-144.459 3959.22,-58.894 4051.54,-25.5376"/>
<polygon fill="#cccccc" stroke="#cccccc" points="4052.82,-28.7947 4061.04,-22.1045 4050.44,-22.2113 4052.82,-28.7947"/>
</g>
<!-- Sliceable&#45;&gt;String.UnicodeScalarView -->
<g id="edge121" class="edge">
<path fill="none" stroke="#cccccc" d="M3625.48,-173.698C3636.39,-164.563 3652.55,-150.734 3666,-138 3705.33,-100.756 3748.91,-54.4317 3771.84,-29.6303"/>
<polygon fill="#cccccc" stroke="#cccccc" points="3774.59,-31.8144 3778.79,-22.0887 3769.44,-27.0707 3774.59,-31.8144"/>
</g>
<!-- _ArrayType&#45;&gt;Array -->
<g id="edge96" class="edge">
<path fill="none" stroke="#cccccc" d="M2851.42,-63.5119C2768.83,-53.0956 2564.77,-27.3585 2480.42,-16.7194"/>
<polygon fill="#cccccc" stroke="#cccccc" points="2480.63,-13.2184 2470.27,-15.4395 2479.75,-20.1634 2480.63,-13.2184"/>
</g>
<!-- _ArrayType&#45;&gt;ArraySlice -->
<g id="edge97" class="edge">
<path fill="none" stroke="#cccccc" d="M2875.56,-57.9883C2866.39,-49.966 2853.32,-38.5272 2842.5,-29.065"/>
<polygon fill="#cccccc" stroke="#cccccc" points="2844.61,-26.2549 2834.78,-22.3039 2840,-31.523 2844.61,-26.2549"/>
</g>
<!-- _ArrayType&#45;&gt;ContiguousArray -->
<g id="edge98" class="edge">
<path fill="none" stroke="#cccccc" d="M2922.48,-60.7467C2927.35,-59.7964 2932.3,-58.8564 2937,-58 3012.85,-44.1881 3100.61,-30.0712 3157.37,-21.1846"/>
<polygon fill="#cccccc" stroke="#cccccc" points="3158.26,-24.5887 3167.6,-19.5874 3157.18,-17.6725 3158.26,-24.5887"/>
</g>
<!-- _CollectionDefaultsType&#45;&gt;AnyBidirectionalCollection -->
<g id="edge127" class="edge">
<path fill="none" stroke="#cccccc" d="M4285,-347.967C4288.43,-338.779 4293.11,-324.716 4295,-312 4300.23,-276.832 4299.72,-267.241 4295,-232 4284.87,-156.321 4255.95,-69.8026 4242.3,-31.7325"/>
<polygon fill="#cccccc" stroke="#cccccc" points="4245.59,-30.5328 4238.88,-22.3287 4239.01,-32.9228 4245.59,-30.5328"/>
</g>
<!-- _CollectionDefaultsType&#45;&gt;AnyForwardCollection -->
<g id="edge128" class="edge">
<path fill="none" stroke="#cccccc" d="M4350.67,-354.112C4422.16,-345.913 4523,-320.746 4523,-244 4523,-244 4523,-244 4523,-126 4523,-76.0331 4468.15,-43.1159 4429.17,-26.0293"/>
<polygon fill="#cccccc" stroke="#cccccc" points="4430.22,-22.6734 4419.64,-22.0256 4427.5,-29.1267 4430.22,-22.6734"/>
</g>
<!-- _CollectionDefaultsType&#45;&gt;AnyRandomAccessCollection -->
<g id="edge129" class="edge">
<path fill="none" stroke="#cccccc" d="M4350.39,-350.439C4408.66,-342.971 4486.39,-330.047 4512,-312 4610.26,-242.768 4618.95,-195.85 4651,-80 4653.61,-70.5762 4656.19,-66.2846 4651,-58 4641.56,-42.9442 4625.64,-32.6942 4609.51,-25.7695"/>
<polygon fill="#cccccc" stroke="#cccccc" points="4610.62,-22.4456 4600.03,-22.0654 4608.07,-28.9654 4610.62,-22.4456"/>
</g>
<!-- _CollectionDefaultsType&#45;&gt;Array -->
<g id="edge130" class="edge">
<path fill="none" stroke="#cccccc" d="M4211.51,-356.944C3899.59,-351.811 2637.05,-326.672 2477,-254 2419.51,-227.898 2405.43,-200.268 2395,-138 2391.51,-117.169 2398.27,-61.8872 2400,-58 2404.92,-46.9503 2413.62,-36.8595 2421.91,-28.9627"/>
<polygon fill="#cccccc" stroke="#cccccc" points="2424.47,-31.3724 2429.6,-22.1041 2419.81,-26.1484 2424.47,-31.3724"/>
</g>
<!-- _CollectionDefaultsType&#45;&gt;ArraySlice -->
<g id="edge131" class="edge">
<path fill="none" stroke="#cccccc" d="M4211.6,-356.876C4067.93,-353.957 3727.63,-343.977 3444,-312 3266.11,-291.944 3047,-423.014 3047,-244 3047,-244 3047,-244 3047,-184 3047,-93.2449 2929.9,-43.8098 2865.03,-23.3881"/>
<polygon fill="#cccccc" stroke="#cccccc" points="2865.68,-19.9272 2855.09,-20.3577 2863.64,-26.6227 2865.68,-19.9272"/>
</g>
<!-- _CollectionDefaultsType&#45;&gt;CollectionOfOne -->
<g id="edge132" class="edge">
<path fill="none" stroke="#cccccc" d="M4350.55,-357.834C4411.79,-355.231 4502.03,-345.291 4573,-312 4716.41,-244.727 4835.2,-84.8228 4872.67,-30.4593"/>
<polygon fill="#cccccc" stroke="#cccccc" points="4875.61,-32.3582 4878.35,-22.1223 4869.83,-28.4187 4875.61,-32.3582"/>
</g>
<!-- _CollectionDefaultsType&#45;&gt;CollectionType -->
<g id="edge133" class="edge">
<path fill="none" stroke="#cccccc" d="M4236.84,-347.988C4195.17,-338.541 4132.61,-324.356 4087.99,-314.241"/>
<polygon fill="#cccccc" stroke="#cccccc" points="4088.72,-310.817 4078.19,-312.019 4087.17,-317.644 4088.72,-310.817"/>
</g>
<!-- _CollectionDefaultsType&#45;&gt;ContiguousArray -->
<g id="edge134" class="edge">
<path fill="none" stroke="#cccccc" d="M4211.33,-356.596C3998.13,-351.384 3369,-328.819 3369,-244 3369,-244 3369,-244 3369,-126 3369,-72.6814 3308.4,-41.2454 3263.73,-25.3151"/>
<polygon fill="#cccccc" stroke="#cccccc" points="3264.78,-21.9748 3254.18,-22.0564 3262.52,-28.5994 3264.78,-21.9748"/>
</g>
<!-- _CollectionDefaultsType&#45;&gt;Dictionary -->
<g id="edge135" class="edge">
<path fill="none" stroke="#cccccc" d="M4350.57,-356.882C4418.08,-353.806 4522.44,-343.718 4607,-312 4773.15,-249.675 4922.83,-84.6198 4969.23,-29.9045"/>
<polygon fill="#cccccc" stroke="#cccccc" points="4972.03,-32.013 4975.78,-22.103 4966.67,-27.5131 4972.03,-32.013"/>
</g>
<!-- _CollectionDefaultsType&#45;&gt;DictionaryLiteral -->
<g id="edge136" class="edge">
<path fill="none" stroke="#cccccc" d="M4211.38,-357.631C3879.15,-355.712 2452.8,-345.631 2009,-312 1893.67,-303.26 1493,-359.658 1493,-244 1493,-244 1493,-244 1493,-184 1493,-128.359 1477.09,-64.1752 1468.07,-32.2381"/>
<polygon fill="#cccccc" stroke="#cccccc" points="1471.35,-30.982 1465.2,-22.3532 1464.63,-32.9324 1471.35,-30.982"/>
</g>
<!-- _CollectionDefaultsType&#45;&gt;EmptyCollection -->
<g id="edge137" class="edge">
<path fill="none" stroke="#cccccc" d="M4211.65,-358C3863.54,-357.803 2315.18,-354.526 2105,-312 1880.96,-266.669 1828.51,-217.62 1646,-80 1625.87,-64.8215 1605.49,-44.3147 1591.96,-29.8015"/>
<polygon fill="#cccccc" stroke="#cccccc" points="1594.17,-27.0366 1584.83,-22.0345 1589.01,-31.7691 1594.17,-27.0366"/>
</g>
<!-- _CollectionDefaultsType&#45;&gt;FilterCollection -->
<g id="edge138" class="edge">
<path fill="none" stroke="#cccccc" d="M4211.39,-358.044C3871.49,-358.045 2394.37,-355.528 2194,-312 1977.2,-264.902 1926.04,-217.591 1752,-80 1732.94,-64.9296 1714.07,-44.4052 1701.62,-29.8583"/>
<polygon fill="#cccccc" stroke="#cccccc" points="1704.19,-27.4737 1695.07,-22.0705 1698.83,-31.9776 1704.19,-27.4737"/>
</g>
<!-- _CollectionDefaultsType&#45;&gt;LazyBidirectionalCollection -->
<g id="edge139" class="edge">
<path fill="none" stroke="#cccccc" d="M4211.44,-357.946C3880.8,-357.483 2476.15,-353.094 2285,-312 2081.44,-268.238 2031.03,-221.194 1878,-80 1862.05,-65.2844 1847.38,-45.2334 1837.72,-30.7207"/>
<polygon fill="#cccccc" stroke="#cccccc" points="1840.5,-28.5836 1832.13,-22.0953 1834.63,-32.3906 1840.5,-28.5836"/>
</g>
<!-- _CollectionDefaultsType&#45;&gt;LazyForwardCollection -->
<g id="edge140" class="edge">
<path fill="none" stroke="#cccccc" d="M4211.65,-357.869C3891.36,-357.054 2563.18,-351.313 2382,-312 2216.11,-276.005 2160.51,-259.533 2042,-138 2018.84,-114.245 2007.89,-110.572 1995,-80 1988.59,-64.7891 1986.78,-46.07 1986.46,-32.1254"/>
<polygon fill="#cccccc" stroke="#cccccc" points="1989.96,-32.1276 1986.47,-22.1239 1982.96,-32.1202 1989.96,-32.1276"/>
</g>
<!-- _CollectionDefaultsType&#45;&gt;LazyRandomAccessCollection -->
<g id="edge141" class="edge">
<path fill="none" stroke="#cccccc" d="M4211.51,-357.654C3900.97,-355.915 2648.06,-346.787 2476,-312 2364.17,-289.391 2326.48,-277.853 2247,-196 2204.73,-152.466 2197.96,-136.168 2175,-80 2168.66,-64.4796 2163.94,-46.0477 2160.93,-32.2915"/>
<polygon fill="#cccccc" stroke="#cccccc" points="2164.34,-31.4893 2158.88,-22.4067 2157.48,-32.9086 2164.34,-31.4893"/>
</g>
<!-- _CollectionDefaultsType&#45;&gt;MapCollection -->
<g id="edge142" class="edge">
<path fill="none" stroke="#cccccc" d="M4211.36,-357.687C3943.46,-356.222 2979.12,-348.474 2675,-312 2492.06,-290.06 2425.26,-305.388 2277,-196 2224.38,-157.18 2193.08,-114.496 2226,-58 2234.25,-43.8489 2248.7,-33.5973 2262.94,-26.4151"/>
<polygon fill="#cccccc" stroke="#cccccc" points="2264.6,-29.5053 2272.2,-22.1284 2261.66,-23.1528 2264.6,-29.5053"/>
</g>
<!-- _CollectionDefaultsType&#45;&gt;Range -->
<g id="edge143" class="edge">
<path fill="none" stroke="#cccccc" d="M4350.57,-356.849C4424.9,-353.87 4545.35,-343.967 4644,-312 4824.76,-253.426 4993.49,-84.5466 5045,-29.544"/>
<polygon fill="#cccccc" stroke="#cccccc" points="5047.76,-31.7163 5051.99,-22.004 5042.62,-26.9565 5047.76,-31.7163"/>
</g>
<!-- _CollectionDefaultsType&#45;&gt;Repeat -->
<g id="edge144" class="edge">
<path fill="none" stroke="#cccccc" d="M4350.56,-357.506C4432.44,-355.245 4571.74,-346.109 4686,-312 4877.2,-254.92 5060.39,-84.3888 5115.94,-29.3402"/>
<polygon fill="#cccccc" stroke="#cccccc" points="5118.6,-31.6296 5123.2,-22.0834 5113.65,-26.6801 5118.6,-31.6296"/>
</g>
<!-- _CollectionDefaultsType&#45;&gt;ReverseCollection -->
<g id="edge145" class="edge">
<path fill="none" stroke="#cccccc" d="M4350.6,-357.878C4439.8,-356.137 4598.52,-347.669 4729,-312 4939.26,-254.519 5150.1,-82.9348 5213.11,-28.6559"/>
<polygon fill="#cccccc" stroke="#cccccc" points="5215.43,-31.2743 5220.69,-22.0752 5210.84,-25.9887 5215.43,-31.2743"/>
</g>
<!-- _CollectionDefaultsType&#45;&gt;ReverseRandomAccessCollection -->
<g id="edge146" class="edge">
<path fill="none" stroke="#cccccc" d="M4350.42,-358.093C4447.03,-356.751 4626.85,-348.895 4775,-312 5026.02,-249.486 5295.97,-80.0697 5375.64,-27.6635"/>
<polygon fill="#cccccc" stroke="#cccccc" points="5377.58,-30.5755 5383.99,-22.1386 5373.72,-24.7376 5377.58,-30.5755"/>
</g>
<!-- _CollectionDefaultsType&#45;&gt;Set -->
<g id="edge147" class="edge">
<path fill="none" stroke="#cccccc" d="M4350.47,-357.776C4455.17,-356.181 4659.1,-348.17 4828,-312 5111.44,-251.301 5423.71,-79.3036 5514.16,-27.1661"/>
<polygon fill="#cccccc" stroke="#cccccc" points="5516.02,-30.1332 5522.92,-22.0914 5512.51,-24.0765 5516.02,-30.1332"/>
</g>
<!-- _CollectionDefaultsType&#45;&gt;String.CharacterView -->
<g id="edge151" class="edge">
<path fill="none" stroke="#cccccc" d="M4211.25,-354.964C4083.51,-347.489 3825,-322.645 3825,-244 3825,-244 3825,-244 3825,-126 3825,-67.8331 3758.88,-38.6489 3704.44,-24.4786"/>
<polygon fill="#cccccc" stroke="#cccccc" points="3704.98,-21.0063 3694.43,-22.0038 3703.3,-27.8017 3704.98,-21.0063"/>
</g>
<!-- _CollectionDefaultsType&#45;&gt;String.UTF16View -->
<g id="edge153" class="edge">
<path fill="none" stroke="#cccccc" d="M4280.36,-347.85C4277.26,-306.64 4260.5,-149.66 4181,-58 4168.48,-43.5652 4150.35,-33.1608 4133.5,-25.9395"/>
<polygon fill="#cccccc" stroke="#cccccc" points="4134.35,-22.5127 4123.77,-22.0491 4131.75,-29.0122 4134.35,-22.5127"/>
</g>
<!-- _CollectionDefaultsType&#45;&gt;String.UTF8View -->
<g id="edge154" class="edge">
<path fill="none" stroke="#cccccc" d="M4350.72,-356.362C4463.61,-352.89 4693.1,-342.418 4885,-312 5208.45,-260.73 5366.54,-366.634 5601,-138 5629.8,-109.916 5635.01,-60.1845 5635.49,-32.3382"/>
<polygon fill="#cccccc" stroke="#cccccc" points="5638.99,-32.1822 5635.47,-22.1886 5631.99,-32.195 5638.99,-32.1822"/>
</g>
<!-- _CollectionDefaultsType&#45;&gt;String.UnicodeScalarView -->
<g id="edge152" class="edge">
<path fill="none" stroke="#cccccc" d="M4272.41,-347.749C4236.42,-305.475 4092.63,-142.911 3940,-58 3912.31,-42.5925 3878.84,-31.7471 3850.36,-24.4734"/>
<polygon fill="#cccccc" stroke="#cccccc" points="3851.06,-21.0415 3840.52,-22.0479 3849.39,-27.8383 3851.06,-21.0415"/>
</g>
<!-- _CollectionDefaultsType&#45;&gt;UnicodeScalar.UTF16View -->
<g id="edge148" class="edge">
<path fill="none" stroke="#cccccc" d="M4350.66,-356.851C4573.2,-352.413 5264.52,-332.491 5472,-254 5603.43,-204.278 5723.36,-77.152 5764.72,-29.9763"/>
<polygon fill="#cccccc" stroke="#cccccc" points="5767.61,-31.9844 5771.52,-22.1346 5762.32,-27.4006 5767.61,-31.9844"/>
</g>
<!-- _CollectionDefaultsType&#45;&gt;UnsafeBufferPointer -->
<g id="edge149" class="edge">
<path fill="none" stroke="#cccccc" d="M4350.62,-356.337C4543.55,-351.47 5082.41,-336.065 5258,-312 5372.29,-296.336 5403.55,-295.986 5511,-254 5674.36,-190.166 5850.53,-71.0239 5911.64,-28.0082"/>
<polygon fill="#cccccc" stroke="#cccccc" points="5913.66,-30.8631 5919.81,-22.2296 5909.62,-25.149 5913.66,-30.8631"/>
</g>
<!-- _CollectionDefaultsType&#45;&gt;UnsafeMutableBufferPointer -->
<g id="edge150" class="edge">
<path fill="none" stroke="#cccccc" d="M4350.39,-356.549C4404.83,-352.926 4481.16,-342.221 4541,-312 4657.78,-253.023 4715.52,-88.9786 4732.51,-31.8906"/>
<polygon fill="#cccccc" stroke="#cccccc" points="4735.88,-32.8206 4735.29,-22.2423 4729.16,-30.8813 4735.88,-32.8206"/>
</g>
<!-- _Sliceable&#45;&gt;Array -->
<g id="edge109" class="edge">
<path fill="none" stroke="#cccccc" d="M3644.41,-241.864C3455.75,-240.745 2509.11,-230.524 2424,-138 2397.06,-108.709 2417.37,-58.3593 2431.82,-31.0154"/>
<polygon fill="#cccccc" stroke="#cccccc" points="2434.99,-32.5068 2436.78,-22.0637 2428.87,-29.113 2434.99,-32.5068"/>
</g>
<!-- _Sliceable&#45;&gt;ArraySlice -->
<g id="edge110" class="edge">
<path fill="none" stroke="#cccccc" d="M3644.48,-241.077C3549.26,-238.039 3272.44,-226.73 3188,-196 3145.37,-180.484 3137.07,-169.058 3104,-138 3071.01,-107.018 3079.44,-81.8802 3041,-58 2986.63,-24.2244 2911.46,-14.8938 2865.1,-12.5181"/>
<polygon fill="#cccccc" stroke="#cccccc" points="2865.23,-9.02087 2855.09,-12.0908 2864.93,-16.0145 2865.23,-9.02087"/>
</g>
<!-- _Sliceable&#45;&gt;ContiguousArray -->
<g id="edge111" class="edge">
<path fill="none" stroke="#cccccc" d="M3648.53,-231.884C3627.38,-223.735 3598.28,-211.158 3575,-196 3497.98,-145.852 3502.68,-100.131 3421,-58 3375.69,-34.629 3318.71,-23.0567 3276.49,-17.3712"/>
<polygon fill="#cccccc" stroke="#cccccc" points="3276.73,-13.873 3266.37,-16.0816 3275.84,-20.8169 3276.73,-13.873"/>
</g>
<!-- _Sliceable&#45;&gt;Sliceable -->
<g id="edge112" class="edge">
<path fill="none" stroke="#cccccc" d="M3665.56,-231.988C3656.39,-223.966 3643.32,-212.527 3632.5,-203.065"/>
<polygon fill="#cccccc" stroke="#cccccc" points="3634.61,-200.255 3624.78,-196.304 3630,-205.523 3634.61,-200.255"/>
</g>
<!-- _Sliceable&#45;&gt;String.CharacterView -->
<g id="edge113" class="edge">
<path fill="none" stroke="#cccccc" d="M3678.28,-231.652C3681.44,-203.053 3687.81,-120.89 3666,-58 3662.49,-47.8749 3656.07,-37.9462 3649.91,-29.9197"/>
<polygon fill="#cccccc" stroke="#cccccc" points="3652.5,-27.5607 3643.46,-22.0373 3647.08,-31.9933 3652.5,-27.5607"/>
</g>
<!-- _Sliceable&#45;&gt;String.UTF16View -->
<g id="edge115" class="edge">
<path fill="none" stroke="#cccccc" d="M3694.97,-231.969C3760.16,-195.578 3984.44,-70.3694 4062.2,-26.9603"/>
<polygon fill="#cccccc" stroke="#cccccc" points="4063.91,-30.014 4070.94,-22.0835 4060.5,-23.9019 4063.91,-30.014"/>
</g>
<!-- _Sliceable&#45;&gt;String.UnicodeScalarView -->
<g id="edge114" class="edge">
<path fill="none" stroke="#cccccc" d="M3681.91,-231.82C3699.03,-196.345 3756.25,-77.7884 3778.78,-31.114"/>
<polygon fill="#cccccc" stroke="#cccccc" points="3781.95,-32.5893 3783.14,-22.062 3775.65,-29.5468 3781.95,-32.5893"/>
</g>
<!-- __ArrayType&#45;&gt;Array -->
<g id="edge123" class="edge">
<path fill="none" stroke="#cccccc" d="M2719.38,-115.983C2665.07,-95.5508 2541.44,-49.0356 2479.62,-25.7763"/>
<polygon fill="#cccccc" stroke="#cccccc" points="2480.48,-22.3622 2469.89,-22.1165 2478.02,-28.9138 2480.48,-22.3622"/>
</g>
<!-- __ArrayType&#45;&gt;ArraySlice -->
<g id="edge124" class="edge">
<path fill="none" stroke="#cccccc" d="M2728.76,-115.776C2708.77,-102.595 2680.31,-78.8828 2695,-58 2714.26,-30.6137 2751.45,-19.4527 2780.8,-14.9449"/>
<polygon fill="#cccccc" stroke="#cccccc" points="2781.36,-18.4011 2790.81,-13.6123 2780.44,-11.4623 2781.36,-18.4011"/>
</g>
<!-- __ArrayType&#45;&gt;ContiguousArray -->
<g id="edge125" class="edge">
<path fill="none" stroke="#cccccc" d="M2756.46,-115.855C2773.06,-100.44 2807.14,-71.4872 2842,-58 2898.1,-36.2921 3066.34,-22.0759 3157.21,-15.7605"/>
<polygon fill="#cccccc" stroke="#cccccc" points="3157.62,-19.2405 3167.36,-15.0655 3157.14,-12.2568 3157.62,-19.2405"/>
</g>
<!-- __ArrayType&#45;&gt;_ArrayType -->
<g id="edge126" class="edge">
<path fill="none" stroke="#cccccc" d="M2771.21,-115.988C2793.73,-107.045 2826.93,-93.8566 2852.02,-83.8935"/>
<polygon fill="#cccccc" stroke="#cccccc" points="2853.53,-87.0579 2861.53,-80.1138 2850.95,-80.5522 2853.53,-87.0579"/>
</g>
</g>
</svg>
