<?xml version="1.0" encoding="UTF-8" standalone="no"?>
<!DOCTYPE svg PUBLIC "-//W3C//DTD SVG 1.1//EN"
 "http://www.w3.org/Graphics/SVG/1.1/DTD/svg11.dtd">
<!-- Generated by graphviz version 2.36.0 (20140111.2315)
 -->
<!-- Title: MapSequenceView&lt;Base : SequenceType, T&gt; &#45; Type Hierarchy &#45; SwiftDoc.org Pages: 1 -->
<svg width="272pt" height="311pt"
 viewBox="0.00 0.00 272.40 311.20" xmlns="http://www.w3.org/2000/svg" xmlns:xlink="http://www.w3.org/1999/xlink">
<g id="graph0" class="graph" transform="scale(1 1) rotate(0) translate(7.2 253.6)">
<title>MapSequenceView&lt;Base : SequenceType, T&gt; &#45; Type Hierarchy &#45; SwiftDoc.org</title>
<polygon fill="white" stroke="none" points="-7.2,57.6 -7.2,-253.6 265.2,-253.6 265.2,57.6 -7.2,57.6"/>
<!-- MapSequenceView&lt;Base : SequenceType, T&gt; -->
<g id="node1" class="node"><title>MapSequenceView&lt;Base : SequenceType, T&gt;</title>
<g id="a_node1"><a xlink:href="/type/MapSequenceView/" xlink:title="MapSequenceView&lt;Base : SequenceType, T&gt;">
<polygon fill="#ee543d" stroke="#ee543d" points="258.311,-22 -0.310713,-22 -0.310713,-0 258.311,-0 258.311,-22"/>
<text text-anchor="middle" x="129" y="-7.4" font-family="Helvetica,sans-Serif" font-size="12.00" fill="white">MapSequenceView&lt;Base : SequenceType, T&gt;</text>
</a>
</g>
</g>
<!-- SequenceType -->
<g id="node2" class="node"><title>SequenceType</title>
<g id="a_node2"><a xlink:href="/protocol/SequenceType/" xlink:title="SequenceType">
<path fill="#999999" stroke="#999999" d="M166.718,-80C166.718,-80 91.2821,-80 91.2821,-80 87.6154,-80 83.9487,-76.3333 83.9487,-72.6667 83.9487,-72.6667 83.9487,-65.3333 83.9487,-65.3333 83.9487,-61.6667 87.6154,-58 91.2821,-58 91.2821,-58 166.718,-58 166.718,-58 170.385,-58 174.051,-61.6667 174.051,-65.3333 174.051,-65.3333 174.051,-72.6667 174.051,-72.6667 174.051,-76.3333 170.385,-80 166.718,-80"/>
<text text-anchor="middle" x="129" y="-65.4" font-family="Helvetica,sans-Serif" font-size="12.00" fill="white">SequenceType</text>
</a>
</g>
</g>
<!-- SequenceType&#45;&gt;MapSequenceView&lt;Base : SequenceType, T&gt; -->
<g id="edge1" class="edge"><title>SequenceType&#45;&gt;MapSequenceView&lt;Base : SequenceType, T&gt;</title>
<path fill="none" stroke="#cccccc" d="M129,-57.9883C129,-50.9098 129,-41.1714 129,-32.4779"/>
<polygon fill="#cccccc" stroke="#cccccc" points="132.5,-32.3038 129,-22.3039 125.5,-32.3039 132.5,-32.3038"/>
</g>
<!-- _SequenceType -->
<g id="node3" class="node"><title>_SequenceType</title>
<g id="a_node3"><a xlink:href="/protocol/_SequenceType/" xlink:title="_SequenceType">
<path fill="#999999" stroke="#999999" d="M169.724,-196C169.724,-196 88.2759,-196 88.2759,-196 84.6092,-196 80.9425,-192.333 80.9425,-188.667 80.9425,-188.667 80.9425,-181.333 80.9425,-181.333 80.9425,-177.667 84.6092,-174 88.2759,-174 88.2759,-174 169.724,-174 169.724,-174 173.391,-174 177.057,-177.667 177.057,-181.333 177.057,-181.333 177.057,-188.667 177.057,-188.667 177.057,-192.333 173.391,-196 169.724,-196"/>
<text text-anchor="middle" x="129" y="-181.4" font-family="Helvetica,sans-Serif" font-size="12.00" fill="white">_SequenceType</text>
</a>
</g>
</g>
<!-- _Sequence_Type -->
<g id="node4" class="node"><title>_Sequence_Type</title>
<g id="a_node4"><a xlink:href="/protocol/_Sequence_Type/" xlink:title="_Sequence_Type">
<path fill="#999999" stroke="#999999" d="M173.228,-138C173.228,-138 84.7719,-138 84.7719,-138 81.1052,-138 77.4386,-134.333 77.4386,-130.667 77.4386,-130.667 77.4386,-123.333 77.4386,-123.333 77.4386,-119.667 81.1052,-116 84.7719,-116 84.7719,-116 173.228,-116 173.228,-116 176.895,-116 180.561,-119.667 180.561,-123.333 180.561,-123.333 180.561,-130.667 180.561,-130.667 180.561,-134.333 176.895,-138 173.228,-138"/>
<text text-anchor="middle" x="129" y="-123.4" font-family="Helvetica,sans-Serif" font-size="12.00" fill="white">_Sequence_Type</text>
</a>
</g>
</g>
<!-- _SequenceType&#45;&gt;_Sequence_Type -->
<g id="edge3" class="edge"><title>_SequenceType&#45;&gt;_Sequence_Type</title>
<path fill="none" stroke="#cccccc" d="M129,-173.988C129,-166.91 129,-157.171 129,-148.478"/>
<polygon fill="#cccccc" stroke="#cccccc" points="132.5,-148.304 129,-138.304 125.5,-148.304 132.5,-148.304"/>
</g>
<!-- _Sequence_Type&#45;&gt;SequenceType -->
<g id="edge2" class="edge"><title>_Sequence_Type&#45;&gt;SequenceType</title>
<path fill="none" stroke="#cccccc" d="M129,-115.988C129,-108.91 129,-99.1714 129,-90.4779"/>
<polygon fill="#cccccc" stroke="#cccccc" points="132.5,-90.3038 129,-80.3039 125.5,-90.3039 132.5,-90.3038"/>
</g>
</g>
</svg>
