<?xml version="1.0" encoding="UTF-8" standalone="no"?>
<!DOCTYPE svg PUBLIC "-//W3C//DTD SVG 1.1//EN"
 "http://www.w3.org/Graphics/SVG/1.1/DTD/svg11.dtd">
<!-- Generated by graphviz version 2.36.0 (20140111.2315)
 -->
<!-- Title: _RandomAccessIndexType &#45; Type Hierarchy &#45; Swifter Pages: 1 -->
<svg width="1382pt" height="601pt"
 viewBox="0.00 0.00 1382.40 601.20" xmlns="http://www.w3.org/2000/svg" xmlns:xlink="http://www.w3.org/1999/xlink">
<g id="graph0" class="graph" transform="scale(1 1) rotate(0) translate(7.2 543.6)">
<g transform="translate(0 -543.6)">
<g>
    <path fill="#666666" d="M13.846,10.832c-0.336-0.464-0.792-0.844-1.368-1.14s-1.224-0.444-1.944-0.444
        c-0.384,0-0.772,0.052-1.164,0.156C8.977,9.509,8.622,9.677,8.301,9.908c-0.32,0.232-0.58,0.52-0.78,0.864
        c-0.2,0.344-0.3,0.756-0.3,1.236c0,0.464,0.092,0.852,0.276,1.164c0.184,0.312,0.432,0.576,0.744,0.792s0.68,0.4,1.104,0.552
        c0.423,0.152,0.876,0.309,1.356,0.468c0.576,0.177,1.16,0.376,1.752,0.601c0.592,0.224,1.128,0.52,1.608,0.888
        s0.872,0.828,1.176,1.38s0.456,1.252,0.456,2.101c0,0.88-0.164,1.644-0.492,2.292c-0.328,0.647-0.765,1.184-1.308,1.607
        c-0.544,0.424-1.172,0.74-1.884,0.948s-1.444,0.312-2.196,0.312c-1.072,0-2.108-0.208-3.108-0.624
        c-1-0.415-1.828-1.031-2.484-1.848l1.848-1.56c0.4,0.592,0.936,1.071,1.608,1.439c0.672,0.368,1.399,0.552,2.184,0.552
        c0.4,0,0.8-0.056,1.2-0.168c0.4-0.111,0.764-0.288,1.092-0.527c0.328-0.24,0.596-0.54,0.804-0.9
        c0.208-0.36,0.312-0.796,0.312-1.308s-0.108-0.94-0.324-1.284c-0.216-0.344-0.508-0.636-0.876-0.876s-0.796-0.444-1.284-0.612
        c-0.488-0.168-1.004-0.34-1.548-0.516c-0.544-0.16-1.08-0.356-1.608-0.588c-0.528-0.232-1-0.528-1.416-0.889
        c-0.416-0.359-0.752-0.804-1.008-1.332c-0.256-0.527-0.384-1.184-0.384-1.968c0-0.848,0.172-1.576,0.516-2.184
        c0.344-0.608,0.792-1.112,1.344-1.512c0.552-0.4,1.176-0.692,1.872-0.876c0.696-0.184,1.396-0.276,2.1-0.276
        c0.992,0,1.92,0.176,2.784,0.528c0.864,0.352,1.56,0.824,2.088,1.416L13.846,10.832z"/>
    <path fill="#666666" d="M18.813,13.304l2.568,8.688h0.048l2.712-8.688h2.376l2.76,8.688h0.048l2.568-8.688h2.376L30.501,24.68
        h-2.352l-2.808-8.544h-0.048l-2.784,8.544h-2.352l-3.792-11.376H18.813z"/>
    <path fill="#666666" d="M38.685,9.2c0,0.416-0.147,0.76-0.44,1.032c-0.294,0.272-0.647,0.408-1.06,0.408s-0.762-0.14-1.047-0.42
        c-0.286-0.28-0.429-0.62-0.429-1.02c0-0.416,0.143-0.764,0.429-1.044c0.286-0.28,0.635-0.42,1.047-0.42s0.766,0.14,1.06,0.42
        C38.538,8.437,38.685,8.784,38.685,9.2z M38.325,24.68h-2.256V13.304h2.256V24.68z"/>
    <path fill="#666666" d="M47.613,15.152h-2.64v9.528h-2.256v-9.528h-2.256v-1.848h2.256v-2.376c0-0.672,0.076-1.292,0.228-1.86
        c0.152-0.568,0.4-1.06,0.744-1.476c0.344-0.416,0.784-0.744,1.32-0.984c0.536-0.24,1.188-0.36,1.956-0.36
        c0.544,0,1.016,0.056,1.416,0.168l-0.264,1.944c-0.176-0.048-0.352-0.088-0.528-0.12c-0.176-0.032-0.376-0.048-0.6-0.048
        c-0.432,0-0.78,0.076-1.044,0.228c-0.264,0.152-0.468,0.356-0.612,0.612s-0.24,0.548-0.288,0.876
        c-0.048,0.328-0.072,0.668-0.072,1.02v2.376h2.64V15.152z"/>
    <path fill="#666666" d="M54.909,15.152h-3.024v5.91c0,0.687,0.128,1.177,0.384,1.472c0.256,0.295,0.664,0.442,1.224,0.442
        c0.208,0,0.432-0.021,0.672-0.065c0.24-0.044,0.456-0.11,0.648-0.198l0.072,1.848c-0.272,0.096-0.572,0.172-0.9,0.229
        c-0.328,0.056-0.668,0.084-1.02,0.084c-1.072,0-1.892-0.296-2.46-0.889c-0.568-0.592-0.852-1.479-0.852-2.664v-6.168h-2.184
        v-1.848h2.184V10.04h2.232v3.264h3.024V15.152z"/>
    <path fill="#666666" d="M57.356,7.688h5.832c1.088,0,2.176,0.16,3.264,0.48c1.088,0.32,2.072,0.824,2.952,1.512
        s1.592,1.568,2.136,2.64c0.544,1.072,0.816,2.36,0.816,3.864c0,1.456-0.272,2.716-0.816,3.78s-1.256,1.943-2.136,2.64
        s-1.864,1.216-2.952,1.561c-1.088,0.344-2.176,0.516-3.264,0.516h-5.832V7.688z M59.732,22.593h2.976
        c1.024,0,1.972-0.145,2.844-0.432c0.872-0.288,1.624-0.704,2.256-1.248c0.632-0.544,1.124-1.216,1.476-2.017
        c0.352-0.8,0.528-1.704,0.528-2.712c0-1.056-0.176-1.983-0.528-2.784c-0.353-0.8-0.844-1.468-1.476-2.004
        c-0.632-0.536-1.384-0.944-2.256-1.224s-1.82-0.42-2.844-0.42h-2.976V22.593z"/>
    <path fill="#666666" d="M86.06,18.969c0,0.88-0.156,1.688-0.468,2.424c-0.312,0.736-0.744,1.372-1.296,1.908
        c-0.552,0.536-1.204,0.952-1.956,1.248c-0.752,0.296-1.56,0.443-2.424,0.443c-0.864,0-1.672-0.147-2.424-0.443
        c-0.752-0.296-1.4-0.712-1.944-1.248c-0.544-0.536-0.972-1.172-1.284-1.908c-0.312-0.735-0.468-1.544-0.468-2.424
        s0.156-1.684,0.468-2.412c0.312-0.728,0.74-1.356,1.284-1.884c0.543-0.528,1.191-0.939,1.944-1.236
        c0.752-0.296,1.56-0.444,2.424-0.444c0.864,0,1.672,0.148,2.424,0.444c0.752,0.297,1.404,0.708,1.956,1.236
        c0.552,0.527,0.984,1.156,1.296,1.884C85.904,17.285,86.06,18.089,86.06,18.969z M83.708,18.98c0-0.542-0.084-1.061-0.252-1.556
        c-0.169-0.494-0.414-0.929-0.734-1.304s-0.718-0.674-1.192-0.897s-1.015-0.335-1.625-0.335c-0.61,0-1.152,0.111-1.625,0.335
        c-0.474,0.224-0.871,0.522-1.191,0.897c-0.321,0.375-0.566,0.81-0.734,1.304C76.184,17.92,76.1,18.438,76.1,18.98
        c0,0.543,0.084,1.062,0.253,1.556c0.168,0.495,0.413,0.934,0.734,1.316c0.321,0.383,0.718,0.686,1.191,0.909
        c0.473,0.224,1.015,0.335,1.625,0.335c0.61,0,1.151-0.111,1.625-0.335s0.871-0.526,1.192-0.909s0.565-0.821,0.734-1.316
        C83.624,20.042,83.708,19.523,83.708,18.98z"/>
    <path fill="#666666" d="M96.428,16.184c-0.24-0.368-0.6-0.676-1.08-0.924s-0.992-0.372-1.536-0.372
        c-0.592,0-1.116,0.112-1.572,0.336c-0.456,0.225-0.844,0.524-1.164,0.9c-0.32,0.376-0.564,0.812-0.732,1.308
        s-0.252,1.017-0.252,1.56c0,0.545,0.084,1.064,0.252,1.561s0.412,0.933,0.732,1.308c0.32,0.376,0.712,0.677,1.176,0.9
        c0.464,0.225,0.992,0.336,1.584,0.336c0.576,0,1.1-0.111,1.572-0.336c0.472-0.224,0.86-0.528,1.164-0.912l1.512,1.368
        c-0.48,0.561-1.08,0.996-1.8,1.308c-0.72,0.312-1.536,0.468-2.448,0.468c-0.88,0-1.692-0.144-2.436-0.432
        c-0.744-0.288-1.388-0.691-1.932-1.212c-0.544-0.52-0.972-1.147-1.284-1.884s-0.468-1.561-0.468-2.473
        c0-0.896,0.152-1.711,0.456-2.447c0.304-0.736,0.728-1.368,1.272-1.896c0.543-0.527,1.188-0.936,1.932-1.224
        c0.744-0.288,1.548-0.433,2.412-0.433c0.8,0,1.596,0.16,2.388,0.48s1.419,0.784,1.884,1.392L96.428,16.184z"/>
    <path fill="#666666" d="M103.1,23.24c0,0.417-0.152,0.784-0.456,1.104c-0.304,0.32-0.688,0.479-1.152,0.479
        c-0.448,0-0.828-0.155-1.14-0.468c-0.312-0.312-0.468-0.676-0.468-1.092c0-0.432,0.152-0.804,0.456-1.116
        c0.304-0.312,0.688-0.468,1.152-0.468c0.464,0,0.848,0.152,1.152,0.456C102.947,22.44,103.1,22.808,103.1,23.24z"/>
    <path fill="#666666" d="M116.635,18.969c0,0.88-0.156,1.688-0.468,2.424c-0.312,0.736-0.744,1.372-1.296,1.908
        c-0.552,0.536-1.204,0.952-1.956,1.248c-0.752,0.296-1.56,0.443-2.424,0.443c-0.864,0-1.672-0.147-2.424-0.443
        c-0.752-0.296-1.4-0.712-1.944-1.248c-0.544-0.536-0.972-1.172-1.284-1.908c-0.312-0.735-0.468-1.544-0.468-2.424
        s0.156-1.684,0.468-2.412c0.312-0.728,0.74-1.356,1.284-1.884c0.543-0.528,1.191-0.939,1.944-1.236
        c0.752-0.296,1.56-0.444,2.424-0.444c0.864,0,1.672,0.148,2.424,0.444c0.752,0.297,1.404,0.708,1.956,1.236
        c0.552,0.527,0.984,1.156,1.296,1.884C116.479,17.285,116.635,18.089,116.635,18.969z M114.283,18.98
        c0-0.542-0.084-1.061-0.252-1.556c-0.169-0.494-0.414-0.929-0.734-1.304s-0.718-0.674-1.192-0.897s-1.015-0.335-1.625-0.335
        c-0.61,0-1.152,0.111-1.625,0.335c-0.474,0.224-0.871,0.522-1.191,0.897c-0.321,0.375-0.566,0.81-0.734,1.304
        c-0.169,0.495-0.253,1.014-0.253,1.556c0,0.543,0.084,1.062,0.253,1.556c0.168,0.495,0.413,0.934,0.734,1.316
        c0.321,0.383,0.718,0.686,1.191,0.909c0.473,0.224,1.015,0.335,1.625,0.335c0.61,0,1.151-0.111,1.625-0.335
        s0.871-0.526,1.192-0.909s0.565-0.821,0.734-1.316C114.199,20.042,114.283,19.523,114.283,18.98z"/>
    <path fill="#666666" d="M119.251,14.577c-0.016-0.48-0.04-0.904-0.072-1.272h2.136c0.032,0.288,0.056,0.62,0.072,0.996
        c0.016,0.376,0.024,0.684,0.024,0.924h0.072c0.32-0.672,0.788-1.212,1.404-1.62c0.616-0.408,1.308-0.612,2.076-0.612
        c0.352,0,0.648,0.033,0.888,0.097l-0.096,2.088c-0.32-0.08-0.664-0.12-1.032-0.12c-0.544,0-1.016,0.101-1.416,0.3
        c-0.4,0.2-0.732,0.468-0.996,0.805c-0.264,0.336-0.46,0.724-0.588,1.163c-0.128,0.44-0.192,0.9-0.192,1.381v5.976h-2.256v-8.928
        C119.275,15.449,119.267,15.056,119.251,14.577z"/>
    <path fill="#666666" d="M128.419,26.625c0.496,0.56,1.116,1.008,1.86,1.344c0.744,0.336,1.508,0.504,2.292,0.504
        c0.752,0,1.384-0.108,1.896-0.324s0.924-0.512,1.236-0.888s0.536-0.82,0.672-1.332c0.136-0.513,0.204-1.064,0.204-1.656v-1.464
        h-0.048c-0.416,0.641-0.984,1.128-1.704,1.464c-0.72,0.336-1.488,0.504-2.304,0.504c-0.864,0-1.652-0.151-2.364-0.456
        c-0.712-0.304-1.316-0.72-1.812-1.248c-0.496-0.527-0.88-1.147-1.152-1.859s-0.408-1.477-0.408-2.292
        c0-0.816,0.136-1.584,0.408-2.305c0.272-0.72,0.656-1.348,1.152-1.884c0.496-0.535,1.096-0.96,1.8-1.271
        c0.704-0.312,1.488-0.469,2.352-0.469c0.816,0,1.596,0.177,2.34,0.528c0.744,0.353,1.332,0.888,1.764,1.608h0.048v-1.824h2.184
        v10.8c0,0.832-0.104,1.628-0.312,2.388c-0.208,0.76-0.56,1.433-1.056,2.017s-1.144,1.052-1.944,1.404
        c-0.8,0.352-1.792,0.527-2.976,0.527c-0.992,0-1.988-0.18-2.988-0.54c-1-0.359-1.86-0.868-2.58-1.523L128.419,26.625z
         M129.091,18.873c0,0.527,0.084,1.031,0.253,1.512c0.168,0.479,0.417,0.904,0.746,1.271c0.329,0.369,0.726,0.664,1.192,0.889
        c0.465,0.224,0.995,0.336,1.589,0.336c0.577,0,1.107-0.104,1.589-0.312c0.481-0.207,0.891-0.491,1.228-0.852
        s0.598-0.784,0.782-1.272c0.185-0.487,0.277-1.012,0.277-1.571c0-0.544-0.093-1.057-0.277-1.536
        c-0.185-0.48-0.449-0.904-0.794-1.272c-0.345-0.367-0.755-0.66-1.228-0.876c-0.474-0.216-1-0.324-1.577-0.324
        c-0.594,0-1.124,0.108-1.589,0.324c-0.466,0.216-0.863,0.504-1.192,0.864s-0.578,0.784-0.746,1.271
        C129.175,17.812,129.091,18.329,129.091,18.873z"/>
</g>
<g><a xlink:href="/" pointer-events="all" target="_top"><polygon fill="none" points="0,0 145,0 145,35 0,35 0,0"/></a></g>

</g>


<!-- Bit -->
<g id="node1" class="node">
<g id="a_node1"><a xlink:href="/type/Bit/" target="_top">
<polygon fill="#999999" stroke="#999999" points="126,-22 72,-22 72,-0 126,-0 126,-22"/>
<text text-anchor="middle" x="99" y="-7.4" font-family="Helvetica,sans-Serif" font-size="12.00" fill="white">Bit</text>
</a>
</g>
</g>
<!-- Comparable -->
<g id="node2" class="node">
<g id="a_node2"><a xlink:href="/protocol/Comparable/" target="_top">
<path fill="#999999" stroke="#999999" d="M467.191,-428C467.191,-428 406.809,-428 406.809,-428 403.142,-428 399.475,-424.333 399.475,-420.667 399.475,-420.667 399.475,-413.333 399.475,-413.333 399.475,-409.667 403.142,-406 406.809,-406 406.809,-406 467.191,-406 467.191,-406 470.858,-406 474.525,-409.667 474.525,-413.333 474.525,-413.333 474.525,-420.667 474.525,-420.667 474.525,-424.333 470.858,-428 467.191,-428"/>
<text text-anchor="middle" x="437" y="-413.4" font-family="Helvetica,sans-Serif" font-size="12.00" fill="white">Comparable</text>
</a>
</g>
</g>
<!-- Strideable -->
<g id="node13" class="node">
<g id="a_node13"><a xlink:href="/protocol/Strideable/" target="_top">
<path fill="#999999" stroke="#999999" d="M455.693,-370C455.693,-370 406.307,-370 406.307,-370 402.64,-370 398.974,-366.333 398.974,-362.667 398.974,-362.667 398.974,-355.333 398.974,-355.333 398.974,-351.667 402.64,-348 406.307,-348 406.307,-348 455.693,-348 455.693,-348 459.36,-348 463.026,-351.667 463.026,-355.333 463.026,-355.333 463.026,-362.667 463.026,-362.667 463.026,-366.333 459.36,-370 455.693,-370"/>
<text text-anchor="middle" x="431" y="-355.4" font-family="Helvetica,sans-Serif" font-size="12.00" fill="white">Strideable</text>
</a>
</g>
</g>
<!-- Comparable&#45;&gt;Strideable -->
<g id="edge36" class="edge">
<path fill="none" stroke="#cccccc" d="M435.927,-405.988C435.169,-398.91 434.126,-389.171 433.194,-380.478"/>
<polygon fill="#cccccc" stroke="#cccccc" points="436.649,-379.874 432.104,-370.304 429.689,-380.62 436.649,-379.874"/>
</g>
<!-- Equatable -->
<g id="node3" class="node">
<g id="a_node3"><a xlink:href="/protocol/Equatable/" target="_top">
<path fill="#999999" stroke="#999999" d="M557.702,-486C557.702,-486 508.298,-486 508.298,-486 504.632,-486 500.965,-482.333 500.965,-478.667 500.965,-478.667 500.965,-471.333 500.965,-471.333 500.965,-467.667 504.632,-464 508.298,-464 508.298,-464 557.702,-464 557.702,-464 561.368,-464 565.035,-467.667 565.035,-471.333 565.035,-471.333 565.035,-478.667 565.035,-478.667 565.035,-482.333 561.368,-486 557.702,-486"/>
<text text-anchor="middle" x="533" y="-471.4" font-family="Helvetica,sans-Serif" font-size="12.00" fill="white">Equatable</text>
</a>
</g>
</g>
<!-- Equatable&#45;&gt;Comparable -->
<g id="edge39" class="edge">
<path fill="none" stroke="#cccccc" d="M515.837,-463.988C501.185,-455.441 479.884,-443.015 463.116,-433.234"/>
<polygon fill="#cccccc" stroke="#cccccc" points="464.739,-430.129 454.338,-428.114 461.212,-436.176 464.739,-430.129"/>
</g>
<!-- _Incrementable -->
<g id="node26" class="node">
<g id="a_node26"><a xlink:href="/protocol/_Incrementable/" target="_top">
<path fill="#999999" stroke="#999999" d="M577.705,-428C577.705,-428 500.295,-428 500.295,-428 496.628,-428 492.961,-424.333 492.961,-420.667 492.961,-420.667 492.961,-413.333 492.961,-413.333 492.961,-409.667 496.628,-406 500.295,-406 500.295,-406 577.705,-406 577.705,-406 581.372,-406 585.039,-409.667 585.039,-413.333 585.039,-413.333 585.039,-420.667 585.039,-420.667 585.039,-424.333 581.372,-428 577.705,-428"/>
<text text-anchor="middle" x="539" y="-413.4" font-family="Helvetica,sans-Serif" font-size="12.00" fill="white">_Incrementable</text>
</a>
</g>
</g>
<!-- Equatable&#45;&gt;_Incrementable -->
<g id="edge35" class="edge">
<path fill="none" stroke="#cccccc" d="M534.073,-463.988C534.831,-456.91 535.874,-447.171 536.806,-438.478"/>
<polygon fill="#cccccc" stroke="#cccccc" points="540.311,-438.62 537.896,-428.304 533.351,-437.874 540.311,-438.62"/>
</g>
<!-- Int -->
<g id="node4" class="node">
<g id="a_node4"><a xlink:href="/type/Int/" target="_top">
<polygon fill="#999999" stroke="#999999" points="54,-22 0,-22 0,-0 54,-0 54,-22"/>
<text text-anchor="middle" x="27" y="-7.4" font-family="Helvetica,sans-Serif" font-size="12.00" fill="white">Int</text>
</a>
</g>
</g>
<!-- Int&#45;&gt;Bit -->
<g id="edge18" class="edge">
<path fill="none" stroke="#cccccc" d="M54.2812,-11C56.7377,-11 59.1942,-11 61.6507,-11"/>
<polygon fill="#cccccc" stroke="#cccccc" points="61.7495,-14.5001 71.7495,-11 61.7495,-7.5001 61.7495,-14.5001"/>
</g>
<!-- Int16 -->
<g id="node5" class="node">
<g id="a_node5"><a xlink:href="/type/Int16/" target="_top">
<polygon fill="#999999" stroke="#999999" points="198,-22 144,-22 144,-0 198,-0 198,-22"/>
<text text-anchor="middle" x="171" y="-7.4" font-family="Helvetica,sans-Serif" font-size="12.00" fill="white">Int16</text>
</a>
</g>
</g>
<!-- Int32 -->
<g id="node6" class="node">
<g id="a_node6"><a xlink:href="/type/Int32/" target="_top">
<polygon fill="#999999" stroke="#999999" points="270,-22 216,-22 216,-0 270,-0 270,-22"/>
<text text-anchor="middle" x="243" y="-7.4" font-family="Helvetica,sans-Serif" font-size="12.00" fill="white">Int32</text>
</a>
</g>
</g>
<!-- Int64 -->
<g id="node7" class="node">
<g id="a_node7"><a xlink:href="/type/Int64/" target="_top">
<polygon fill="#999999" stroke="#999999" points="342,-22 288,-22 288,-0 342,-0 342,-22"/>
<text text-anchor="middle" x="315" y="-7.4" font-family="Helvetica,sans-Serif" font-size="12.00" fill="white">Int64</text>
</a>
</g>
</g>
<!-- Int8 -->
<g id="node8" class="node">
<g id="a_node8"><a xlink:href="/type/Int8/" target="_top">
<polygon fill="#999999" stroke="#999999" points="414,-22 360,-22 360,-0 414,-0 414,-22"/>
<text text-anchor="middle" x="387" y="-7.4" font-family="Helvetica,sans-Serif" font-size="12.00" fill="white">Int8</text>
</a>
</g>
</g>
<!-- IntegerType -->
<g id="node9" class="node">
<g id="a_node9"><a xlink:href="/protocol/IntegerType/" target="_top">
<path fill="#999999" stroke="#999999" d="M393.202,-138C393.202,-138 334.798,-138 334.798,-138 331.132,-138 327.465,-134.333 327.465,-130.667 327.465,-130.667 327.465,-123.333 327.465,-123.333 327.465,-119.667 331.132,-116 334.798,-116 334.798,-116 393.202,-116 393.202,-116 396.868,-116 400.535,-119.667 400.535,-123.333 400.535,-123.333 400.535,-130.667 400.535,-130.667 400.535,-134.333 396.868,-138 393.202,-138"/>
<text text-anchor="middle" x="364" y="-123.4" font-family="Helvetica,sans-Serif" font-size="12.00" fill="white">IntegerType</text>
</a>
</g>
</g>
<!-- SignedIntegerType -->
<g id="node12" class="node">
<g id="a_node12"><a xlink:href="/protocol/SignedIntegerType/" target="_top">
<path fill="#999999" stroke="#999999" d="M305.727,-80C305.727,-80 210.273,-80 210.273,-80 206.606,-80 202.94,-76.3333 202.94,-72.6667 202.94,-72.6667 202.94,-65.3333 202.94,-65.3333 202.94,-61.6667 206.606,-58 210.273,-58 210.273,-58 305.727,-58 305.727,-58 309.394,-58 313.06,-61.6667 313.06,-65.3333 313.06,-65.3333 313.06,-72.6667 313.06,-72.6667 313.06,-76.3333 309.394,-80 305.727,-80"/>
<text text-anchor="middle" x="258" y="-65.4" font-family="Helvetica,sans-Serif" font-size="12.00" fill="white">SignedIntegerType</text>
</a>
</g>
</g>
<!-- IntegerType&#45;&gt;SignedIntegerType -->
<g id="edge19" class="edge">
<path fill="none" stroke="#cccccc" d="M345.049,-115.988C328.646,-107.322 304.696,-94.6696 286.068,-84.8283"/>
<polygon fill="#cccccc" stroke="#cccccc" points="287.621,-81.6904 277.144,-80.1138 284.351,-87.8798 287.621,-81.6904"/>
</g>
<!-- UnsignedIntegerType -->
<g id="node22" class="node">
<g id="a_node22"><a xlink:href="/protocol/UnsignedIntegerType/" target="_top">
<path fill="#999999" stroke="#999999" d="M649.728,-80C649.728,-80 540.272,-80 540.272,-80 536.605,-80 532.938,-76.3333 532.938,-72.6667 532.938,-72.6667 532.938,-65.3333 532.938,-65.3333 532.938,-61.6667 536.605,-58 540.272,-58 540.272,-58 649.728,-58 649.728,-58 653.395,-58 657.062,-61.6667 657.062,-65.3333 657.062,-65.3333 657.062,-72.6667 657.062,-72.6667 657.062,-76.3333 653.395,-80 649.728,-80"/>
<text text-anchor="middle" x="595" y="-65.4" font-family="Helvetica,sans-Serif" font-size="12.00" fill="white">UnsignedIntegerType</text>
</a>
</g>
</g>
<!-- IntegerType&#45;&gt;UnsignedIntegerType -->
<g id="edge20" class="edge">
<path fill="none" stroke="#cccccc" d="M400.348,-117.188C438.893,-107.844 500.099,-93.0064 543.579,-82.4657"/>
<polygon fill="#cccccc" stroke="#cccccc" points="544.504,-85.8429 553.398,-80.0853 542.855,-79.0399 544.504,-85.8429"/>
</g>
<!-- RandomAccessIndexType -->
<g id="node10" class="node">
<g id="a_node10"><a xlink:href="/protocol/RandomAccessIndexType/" target="_top">
<path fill="#999999" stroke="#999999" d="M553.225,-196C553.225,-196 418.775,-196 418.775,-196 415.108,-196 411.441,-192.333 411.441,-188.667 411.441,-188.667 411.441,-181.333 411.441,-181.333 411.441,-177.667 415.108,-174 418.775,-174 418.775,-174 553.225,-174 553.225,-174 556.892,-174 560.559,-177.667 560.559,-181.333 560.559,-181.333 560.559,-188.667 560.559,-188.667 560.559,-192.333 556.892,-196 553.225,-196"/>
<text text-anchor="middle" x="486" y="-181.4" font-family="Helvetica,sans-Serif" font-size="12.00" fill="white">RandomAccessIndexType</text>
</a>
</g>
</g>
<!-- RandomAccessIndexType&#45;&gt;Bit -->
<g id="edge2" class="edge">
<path fill="none" stroke="#cccccc" d="M411.588,-178.205C338.861,-171.461 234.115,-158.548 199,-138 155.23,-112.388 123.24,-59.7131 108.341,-31.2557"/>
<polygon fill="#cccccc" stroke="#cccccc" points="111.436,-29.6205 103.792,-22.284 105.192,-32.7859 111.436,-29.6205"/>
</g>
<!-- RandomAccessIndexType&#45;&gt;Int -->
<g id="edge3" class="edge">
<path fill="none" stroke="#cccccc" d="M411.644,-178.231C331.578,-171.145 210.022,-157.602 168,-138 113.267,-112.469 64.3832,-58.5626 41.2074,-30.2487"/>
<polygon fill="#cccccc" stroke="#cccccc" points="43.8512,-27.951 34.8622,-22.343 38.392,-32.3326 43.8512,-27.951"/>
</g>
<!-- RandomAccessIndexType&#45;&gt;Int16 -->
<g id="edge4" class="edge">
<path fill="none" stroke="#cccccc" d="M411.355,-177.466C345.331,-170.508 254.968,-157.746 225,-138 189.21,-114.417 177.051,-61.6576 172.988,-32.4436"/>
<polygon fill="#cccccc" stroke="#cccccc" points="176.423,-31.6917 171.761,-22.1777 169.472,-32.5223 176.423,-31.6917"/>
</g>
<!-- RandomAccessIndexType&#45;&gt;Int32 -->
<g id="edge5" class="edge">
<path fill="none" stroke="#cccccc" d="M411.483,-181.804C340.918,-175.16 239.231,-152.632 194,-80 182.564,-61.6361 200.937,-41.6675 218.353,-28.1516"/>
<polygon fill="#cccccc" stroke="#cccccc" points="220.674,-30.7908 226.691,-22.0702 216.549,-25.1353 220.674,-30.7908"/>
</g>
<!-- RandomAccessIndexType&#45;&gt;Int64 -->
<g id="edge6" class="edge">
<path fill="none" stroke="#cccccc" d="M418.087,-173.93C377.108,-166.309 330.474,-154.348 318,-138 312.069,-130.227 317.459,-125.763 318,-116 319.429,-90.2005 323.949,-83.7654 322,-58 321.355,-49.4717 320.046,-40.1296 318.733,-32.1055"/>
<polygon fill="#cccccc" stroke="#cccccc" points="322.168,-31.4304 317.001,-22.1807 315.272,-32.6335 322.168,-31.4304"/>
</g>
<!-- RandomAccessIndexType&#45;&gt;Int8 -->
<g id="edge7" class="edge">
<path fill="none" stroke="#cccccc" d="M480.104,-173.756C463.978,-145.74 418.956,-67.5202 397.996,-31.1037"/>
<polygon fill="#cccccc" stroke="#cccccc" points="401.013,-29.329 392.991,-22.4081 394.946,-32.821 401.013,-29.329"/>
</g>
<!-- RandomAccessIndexType&#45;&gt;IntegerType -->
<g id="edge8" class="edge">
<path fill="none" stroke="#cccccc" d="M464.189,-173.988C444.964,-165.164 416.735,-152.206 395.136,-142.292"/>
<polygon fill="#cccccc" stroke="#cccccc" points="396.582,-139.105 386.034,-138.114 393.662,-145.466 396.582,-139.105"/>
</g>
<!-- ReverseRandomAccessIndex -->
<g id="node11" class="node">
<g id="a_node11"><a xlink:href="/type/ReverseRandomAccessIndex/" target="_top">
<polygon fill="#999999" stroke="#999999" points="960.056,-22 791.944,-22 791.944,-0 960.056,-0 960.056,-22"/>
<text text-anchor="middle" x="876" y="-7.4" font-family="Helvetica,sans-Serif" font-size="12.00" fill="white">ReverseRandomAccessIndex</text>
</a>
</g>
</g>
<!-- RandomAccessIndexType&#45;&gt;ReverseRandomAccessIndex -->
<g id="edge9" class="edge">
<path fill="none" stroke="#cccccc" d="M560.79,-174.02C600.326,-167.055 649.02,-155.743 690,-138 756.37,-109.264 824.179,-56.0498 856.52,-28.8948"/>
<polygon fill="#cccccc" stroke="#cccccc" points="858.958,-31.4163 864.314,-22.2753 854.427,-26.0809 858.958,-31.4163"/>
</g>
<!-- String.UTF16View.Index -->
<g id="node14" class="node">
<g id="a_node14"><a xlink:href="/type/String.UTF16View.Index/" target="_top">
<polygon fill="#999999" stroke="#999999" points="1117.39,-22 978.61,-22 978.61,-0 1117.39,-0 1117.39,-22"/>
<text text-anchor="middle" x="1048" y="-7.4" font-family="Helvetica,sans-Serif" font-size="12.00" fill="white">String.UTF16View.Index</text>
</a>
</g>
</g>
<!-- RandomAccessIndexType&#45;&gt;String.UTF16View.Index -->
<g id="edge17" class="edge">
<path fill="none" stroke="#cccccc" d="M556.64,-173.961C604.879,-166.256 669.956,-154.187 726,-138 835.856,-106.27 960.501,-52.0009 1017.11,-26.3003"/>
<polygon fill="#cccccc" stroke="#cccccc" points="1018.59,-29.472 1026.23,-22.1366 1015.68,-23.1036 1018.59,-29.472"/>
</g>
<!-- UInt -->
<g id="node15" class="node">
<g id="a_node15"><a xlink:href="/type/UInt/" target="_top">
<polygon fill="#999999" stroke="#999999" points="486,-22 432,-22 432,-0 486,-0 486,-22"/>
<text text-anchor="middle" x="459" y="-7.4" font-family="Helvetica,sans-Serif" font-size="12.00" fill="white">UInt</text>
</a>
</g>
</g>
<!-- RandomAccessIndexType&#45;&gt;UInt -->
<g id="edge10" class="edge">
<path fill="none" stroke="#cccccc" d="M484.392,-173.756C480.05,-146.097 468.028,-69.5091 462.221,-32.5186"/>
<polygon fill="#cccccc" stroke="#cccccc" points="465.642,-31.7443 460.634,-22.4081 458.727,-32.8299 465.642,-31.7443"/>
</g>
<!-- UInt16 -->
<g id="node16" class="node">
<g id="a_node16"><a xlink:href="/type/UInt16/" target="_top">
<polygon fill="#999999" stroke="#999999" points="558,-22 504,-22 504,-0 558,-0 558,-22"/>
<text text-anchor="middle" x="531" y="-7.4" font-family="Helvetica,sans-Serif" font-size="12.00" fill="white">UInt16</text>
</a>
</g>
</g>
<!-- RandomAccessIndexType&#45;&gt;UInt16 -->
<g id="edge11" class="edge">
<path fill="none" stroke="#cccccc" d="M488.68,-173.756C495.916,-146.097 515.954,-69.5091 525.632,-32.5186"/>
<polygon fill="#cccccc" stroke="#cccccc" points="529.132,-32.9684 528.277,-22.4081 522.36,-31.1966 529.132,-32.9684"/>
</g>
<!-- UInt32 -->
<g id="node17" class="node">
<g id="a_node17"><a xlink:href="/type/UInt32/" target="_top">
<polygon fill="#999999" stroke="#999999" points="630,-22 576,-22 576,-0 630,-0 630,-22"/>
<text text-anchor="middle" x="603" y="-7.4" font-family="Helvetica,sans-Serif" font-size="12.00" fill="white">UInt32</text>
</a>
</g>
</g>
<!-- RandomAccessIndexType&#45;&gt;UInt32 -->
<g id="edge12" class="edge">
<path fill="none" stroke="#cccccc" d="M525.216,-173.958C568.452,-160.554 635.872,-132.202 666,-80 677.896,-59.3882 655.028,-39.8995 633.589,-27.1138"/>
<polygon fill="#cccccc" stroke="#cccccc" points="635.026,-23.907 624.593,-22.0609 631.598,-30.01 635.026,-23.907"/>
</g>
<!-- UInt64 -->
<g id="node18" class="node">
<g id="a_node18"><a xlink:href="/type/UInt64/" target="_top">
<polygon fill="#999999" stroke="#999999" points="702,-22 648,-22 648,-0 702,-0 702,-22"/>
<text text-anchor="middle" x="675" y="-7.4" font-family="Helvetica,sans-Serif" font-size="12.00" fill="white">UInt64</text>
</a>
</g>
</g>
<!-- RandomAccessIndexType&#45;&gt;UInt64 -->
<g id="edge13" class="edge">
<path fill="none" stroke="#cccccc" d="M547.364,-173.933C576.084,-167.119 609.678,-155.966 636,-138 663.174,-119.452 671.175,-111.069 682,-80 687.361,-64.6129 684.958,-46.1713 681.577,-32.3775"/>
<polygon fill="#cccccc" stroke="#cccccc" points="684.864,-31.1365 678.786,-22.4586 678.126,-33.0329 684.864,-31.1365"/>
</g>
<!-- UInt8 -->
<g id="node19" class="node">
<g id="a_node19"><a xlink:href="/type/UInt8/" target="_top">
<polygon fill="#999999" stroke="#999999" points="774,-22 720,-22 720,-0 774,-0 774,-22"/>
<text text-anchor="middle" x="747" y="-7.4" font-family="Helvetica,sans-Serif" font-size="12.00" fill="white">UInt8</text>
</a>
</g>
</g>
<!-- RandomAccessIndexType&#45;&gt;UInt8 -->
<g id="edge14" class="edge">
<path fill="none" stroke="#cccccc" d="M560.454,-177.093C594.508,-170.994 633.879,-159.531 664,-138 702.17,-110.715 727.559,-59.9287 739.366,-31.8847"/>
<polygon fill="#cccccc" stroke="#cccccc" points="742.719,-32.9292 743.225,-22.3465 736.23,-30.3041 742.719,-32.9292"/>
</g>
<!-- UnsafeMutablePointer -->
<g id="node20" class="node">
<g id="a_node20"><a xlink:href="/type/UnsafeMutablePointer/" target="_top">
<polygon fill="#999999" stroke="#999999" points="1264.05,-22 1135.95,-22 1135.95,-0 1264.05,-0 1264.05,-22"/>
<text text-anchor="middle" x="1200" y="-7.4" font-family="Helvetica,sans-Serif" font-size="12.00" fill="white">UnsafeMutablePointer</text>
</a>
</g>
</g>
<!-- RandomAccessIndexType&#45;&gt;UnsafeMutablePointer -->
<g id="edge15" class="edge">
<path fill="none" stroke="#cccccc" d="M560.532,-174.72C618.759,-166.83 701.517,-154.205 773,-138 918.066,-105.113 1086.34,-50.4655 1160.94,-25.3597"/>
<polygon fill="#cccccc" stroke="#cccccc" points="1162.48,-28.5343 1170.83,-22.0186 1160.24,-21.9023 1162.48,-28.5343"/>
</g>
<!-- UnsafePointer -->
<g id="node21" class="node">
<g id="a_node21"><a xlink:href="/type/UnsafePointer/" target="_top">
<polygon fill="#999999" stroke="#999999" points="1368.03,-22 1281.97,-22 1281.97,-0 1368.03,-0 1368.03,-22"/>
<text text-anchor="middle" x="1325" y="-7.4" font-family="Helvetica,sans-Serif" font-size="12.00" fill="white">UnsafePointer</text>
</a>
</g>
</g>
<!-- RandomAccessIndexType&#45;&gt;UnsafePointer -->
<g id="edge16" class="edge">
<path fill="none" stroke="#cccccc" d="M560.555,-176.562C630.507,-168.987 737.863,-155.824 830,-138 998.752,-105.354 1195.73,-49.9136 1281.45,-24.9095"/>
<polygon fill="#cccccc" stroke="#cccccc" points="1282.49,-28.2533 1291.1,-22.0859 1280.52,-21.5349 1282.49,-28.2533"/>
</g>
<!-- SignedIntegerType&#45;&gt;Int -->
<g id="edge21" class="edge">
<path fill="none" stroke="#cccccc" d="M213.346,-57.9911C175.908,-49.4817 120.812,-36.6854 63.975,-22.1831"/>
<polygon fill="#cccccc" stroke="#cccccc" points="64.6523,-18.7436 54.0962,-19.6495 62.9132,-25.5241 64.6523,-18.7436"/>
</g>
<!-- SignedIntegerType&#45;&gt;Int16 -->
<g id="edge22" class="edge">
<path fill="none" stroke="#cccccc" d="M242.446,-57.9883C229.413,-49.5993 210.576,-37.4743 195.516,-27.7804"/>
<polygon fill="#cccccc" stroke="#cccccc" points="197.016,-24.5833 186.713,-22.1138 193.227,-30.4693 197.016,-24.5833"/>
</g>
<!-- SignedIntegerType&#45;&gt;Int32 -->
<g id="edge23" class="edge">
<path fill="none" stroke="#cccccc" d="M255.318,-57.9883C253.401,-50.8311 250.756,-40.9547 248.408,-32.1885"/>
<polygon fill="#cccccc" stroke="#cccccc" points="251.728,-31.0578 245.76,-22.3039 244.967,-32.869 251.728,-31.0578"/>
</g>
<!-- SignedIntegerType&#45;&gt;Int64 -->
<g id="edge24" class="edge">
<path fill="none" stroke="#cccccc" d="M268.19,-57.9883C276.276,-50.0446 287.771,-38.7512 297.346,-29.3439"/>
<polygon fill="#cccccc" stroke="#cccccc" points="299.832,-31.8088 304.512,-22.3039 294.926,-26.8154 299.832,-31.8088"/>
</g>
<!-- SignedIntegerType&#45;&gt;Int8 -->
<g id="edge25" class="edge">
<path fill="none" stroke="#cccccc" d="M281.063,-57.9883C301.481,-49.1244 331.508,-36.0897 354.384,-26.1587"/>
<polygon fill="#cccccc" stroke="#cccccc" points="355.923,-29.3065 363.702,-22.1138 353.135,-22.8854 355.923,-29.3065"/>
</g>
<!-- _RandomAccessIndexType -->
<g id="node27" class="node">
<g id="a_node27"><a xlink:href="/protocol/_RandomAccessIndexType/" target="_top">
<path fill="#ee543d" stroke="#ee543d" d="M556.731,-254C556.731,-254 415.269,-254 415.269,-254 411.602,-254 407.936,-250.333 407.936,-246.667 407.936,-246.667 407.936,-239.333 407.936,-239.333 407.936,-235.667 411.602,-232 415.269,-232 415.269,-232 556.731,-232 556.731,-232 560.398,-232 564.064,-235.667 564.064,-239.333 564.064,-239.333 564.064,-246.667 564.064,-246.667 564.064,-250.333 560.398,-254 556.731,-254"/>
<text text-anchor="middle" x="486" y="-239.4" font-family="Helvetica,sans-Serif" font-size="12.00" fill="white">_RandomAccessIndexType</text>
</a>
</g>
</g>
<!-- Strideable&#45;&gt;_RandomAccessIndexType -->
<g id="edge32" class="edge">
<path fill="none" stroke="#cccccc" d="M434.501,-347.628C439.211,-334.086 448.141,-309.781 458,-290 462.606,-280.759 468.449,-270.93 473.604,-262.741"/>
<polygon fill="#cccccc" stroke="#cccccc" points="476.561,-264.613 479.03,-254.31 470.675,-260.825 476.561,-264.613"/>
</g>
<!-- UnsignedIntegerType&#45;&gt;UInt -->
<g id="edge26" class="edge">
<path fill="none" stroke="#cccccc" d="M570.686,-57.9883C549.063,-49.0849 517.221,-35.9733 493.063,-26.0259"/>
<polygon fill="#cccccc" stroke="#cccccc" points="494.142,-22.685 483.562,-22.1138 491.476,-29.1577 494.142,-22.685"/>
</g>
<!-- UnsignedIntegerType&#45;&gt;UInt16 -->
<g id="edge27" class="edge">
<path fill="none" stroke="#cccccc" d="M583.558,-57.9883C574.39,-49.966 561.317,-38.5272 550.503,-29.065"/>
<polygon fill="#cccccc" stroke="#cccccc" points="552.606,-26.2549 542.776,-22.3039 547.997,-31.523 552.606,-26.2549"/>
</g>
<!-- UnsignedIntegerType&#45;&gt;UInt32 -->
<g id="edge28" class="edge">
<path fill="none" stroke="#cccccc" d="M596.43,-57.9883C597.441,-50.9098 598.833,-41.1714 600.075,-32.4779"/>
<polygon fill="#cccccc" stroke="#cccccc" points="603.579,-32.6984 601.528,-22.3039 596.649,-31.7084 603.579,-32.6984"/>
</g>
<!-- UnsignedIntegerType&#45;&gt;UInt64 -->
<g id="edge29" class="edge">
<path fill="none" stroke="#cccccc" d="M609.302,-57.9883C621.174,-49.6784 638.282,-37.7028 652.064,-28.0554"/>
<polygon fill="#cccccc" stroke="#cccccc" points="654.366,-30.7158 660.552,-22.1138 650.352,-24.9812 654.366,-30.7158"/>
</g>
<!-- UnsignedIntegerType&#45;&gt;UInt8 -->
<g id="edge30" class="edge">
<path fill="none" stroke="#cccccc" d="M622.175,-57.9883C646.739,-48.9381 683.106,-35.5399 710.258,-25.5367"/>
<polygon fill="#cccccc" stroke="#cccccc" points="711.631,-28.7606 719.805,-22.0192 709.211,-22.1922 711.631,-28.7606"/>
</g>
<!-- _BidirectionalIndexType -->
<g id="node23" class="node">
<g id="a_node23"><a xlink:href="/protocol/_BidirectionalIndexType/" target="_top">
<path fill="#999999" stroke="#999999" d="M597.23,-312C597.23,-312 474.77,-312 474.77,-312 471.104,-312 467.437,-308.333 467.437,-304.667 467.437,-304.667 467.437,-297.333 467.437,-297.333 467.437,-293.667 471.104,-290 474.77,-290 474.77,-290 597.23,-290 597.23,-290 600.896,-290 604.563,-293.667 604.563,-297.333 604.563,-297.333 604.563,-304.667 604.563,-304.667 604.563,-308.333 600.896,-312 597.23,-312"/>
<text text-anchor="middle" x="536" y="-297.4" font-family="Helvetica,sans-Serif" font-size="12.00" fill="white">_BidirectionalIndexType</text>
</a>
</g>
</g>
<!-- _BidirectionalIndexType&#45;&gt;_RandomAccessIndexType -->
<g id="edge31" class="edge">
<path fill="none" stroke="#cccccc" d="M527.061,-289.988C520.109,-282.202 510.283,-271.197 501.987,-261.905"/>
<polygon fill="#cccccc" stroke="#cccccc" points="504.471,-259.432 495.2,-254.304 499.249,-264.094 504.471,-259.432"/>
</g>
<!-- _Comparable -->
<g id="node24" class="node">
<g id="a_node24"><a xlink:href="/protocol/_Comparable/" target="_top">
<path fill="#999999" stroke="#999999" d="M470.697,-486C470.697,-486 403.303,-486 403.303,-486 399.636,-486 395.969,-482.333 395.969,-478.667 395.969,-478.667 395.969,-471.333 395.969,-471.333 395.969,-467.667 399.636,-464 403.303,-464 403.303,-464 470.697,-464 470.697,-464 474.364,-464 478.031,-467.667 478.031,-471.333 478.031,-471.333 478.031,-478.667 478.031,-478.667 478.031,-482.333 474.364,-486 470.697,-486"/>
<text text-anchor="middle" x="437" y="-471.4" font-family="Helvetica,sans-Serif" font-size="12.00" fill="white">_Comparable</text>
</a>
</g>
</g>
<!-- _Comparable&#45;&gt;Comparable -->
<g id="edge38" class="edge">
<path fill="none" stroke="#cccccc" d="M437,-463.988C437,-456.91 437,-447.171 437,-438.478"/>
<polygon fill="#cccccc" stroke="#cccccc" points="440.5,-438.304 437,-428.304 433.5,-438.304 440.5,-438.304"/>
</g>
<!-- _ForwardIndexType -->
<g id="node25" class="node">
<g id="a_node25"><a xlink:href="/protocol/_ForwardIndexType/" target="_top">
<path fill="#999999" stroke="#999999" d="M589.712,-370C589.712,-370 488.288,-370 488.288,-370 484.621,-370 480.955,-366.333 480.955,-362.667 480.955,-362.667 480.955,-355.333 480.955,-355.333 480.955,-351.667 484.621,-348 488.288,-348 488.288,-348 589.712,-348 589.712,-348 593.379,-348 597.045,-351.667 597.045,-355.333 597.045,-355.333 597.045,-362.667 597.045,-362.667 597.045,-366.333 593.379,-370 589.712,-370"/>
<text text-anchor="middle" x="539" y="-355.4" font-family="Helvetica,sans-Serif" font-size="12.00" fill="white">_ForwardIndexType</text>
</a>
</g>
</g>
<!-- _ForwardIndexType&#45;&gt;_BidirectionalIndexType -->
<g id="edge33" class="edge">
<path fill="none" stroke="#cccccc" d="M538.464,-347.988C538.084,-340.91 537.563,-331.171 537.097,-322.478"/>
<polygon fill="#cccccc" stroke="#cccccc" points="540.582,-322.102 536.552,-312.304 533.592,-322.477 540.582,-322.102"/>
</g>
<!-- _Incrementable&#45;&gt;_ForwardIndexType -->
<g id="edge34" class="edge">
<path fill="none" stroke="#cccccc" d="M539,-405.988C539,-398.91 539,-389.171 539,-380.478"/>
<polygon fill="#cccccc" stroke="#cccccc" points="542.5,-380.304 539,-370.304 535.5,-380.304 542.5,-380.304"/>
</g>
<!-- _RandomAccessIndexType&#45;&gt;RandomAccessIndexType -->
<g id="edge1" class="edge">
<path fill="none" stroke="#cccccc" d="M486,-231.988C486,-224.91 486,-215.171 486,-206.478"/>
<polygon fill="#cccccc" stroke="#cccccc" points="489.5,-206.304 486,-196.304 482.5,-206.304 489.5,-206.304"/>
</g>
<!-- _Strideable -->
<g id="node28" class="node">
<g id="a_node28"><a xlink:href="/protocol/_Strideable/" target="_top">
<path fill="#999999" stroke="#999999" d="M373.7,-428C373.7,-428 318.3,-428 318.3,-428 314.634,-428 310.967,-424.333 310.967,-420.667 310.967,-420.667 310.967,-413.333 310.967,-413.333 310.967,-409.667 314.634,-406 318.3,-406 318.3,-406 373.7,-406 373.7,-406 377.366,-406 381.033,-409.667 381.033,-413.333 381.033,-413.333 381.033,-420.667 381.033,-420.667 381.033,-424.333 377.366,-428 373.7,-428"/>
<text text-anchor="middle" x="346" y="-413.4" font-family="Helvetica,sans-Serif" font-size="12.00" fill="white">_Strideable</text>
</a>
</g>
</g>
<!-- _Strideable&#45;&gt;Strideable -->
<g id="edge37" class="edge">
<path fill="none" stroke="#cccccc" d="M361.196,-405.988C373.93,-397.599 392.334,-385.474 407.048,-375.78"/>
<polygon fill="#cccccc" stroke="#cccccc" points="409.224,-378.538 415.649,-370.114 405.372,-372.693 409.224,-378.538"/>
</g>
</g>
</svg>
