<?xml version="1.0" encoding="UTF-8" standalone="no"?>
<!DOCTYPE svg PUBLIC "-//W3C//DTD SVG 1.1//EN"
 "http://www.w3.org/Graphics/SVG/1.1/DTD/svg11.dtd">
<!-- Generated by graphviz version 2.36.0 (20140111.2315)
 -->
<!-- Title: _Integer &#45; Type Hierarchy &#45; SwiftDoc.org Pages: 1 -->
<svg width="822pt" height="485pt"
 viewBox="0.00 0.00 822.40 485.20" xmlns="http://www.w3.org/2000/svg" xmlns:xlink="http://www.w3.org/1999/xlink">
<g id="graph0" class="graph" transform="scale(1 1) rotate(0) translate(7.2 427.6)">
<g transform="translate(0 -427.6)">
<g>
    <path fill="#666666" d="M13.846,10.832c-0.336-0.464-0.792-0.844-1.368-1.14s-1.224-0.444-1.944-0.444
        c-0.384,0-0.772,0.052-1.164,0.156C8.977,9.509,8.622,9.677,8.301,9.908c-0.32,0.232-0.58,0.52-0.78,0.864
        c-0.2,0.344-0.3,0.756-0.3,1.236c0,0.464,0.092,0.852,0.276,1.164c0.184,0.312,0.432,0.576,0.744,0.792s0.68,0.4,1.104,0.552
        c0.423,0.152,0.876,0.309,1.356,0.468c0.576,0.177,1.16,0.376,1.752,0.601c0.592,0.224,1.128,0.52,1.608,0.888
        s0.872,0.828,1.176,1.38s0.456,1.252,0.456,2.101c0,0.88-0.164,1.644-0.492,2.292c-0.328,0.647-0.765,1.184-1.308,1.607
        c-0.544,0.424-1.172,0.74-1.884,0.948s-1.444,0.312-2.196,0.312c-1.072,0-2.108-0.208-3.108-0.624
        c-1-0.415-1.828-1.031-2.484-1.848l1.848-1.56c0.4,0.592,0.936,1.071,1.608,1.439c0.672,0.368,1.399,0.552,2.184,0.552
        c0.4,0,0.8-0.056,1.2-0.168c0.4-0.111,0.764-0.288,1.092-0.527c0.328-0.24,0.596-0.54,0.804-0.9
        c0.208-0.36,0.312-0.796,0.312-1.308s-0.108-0.94-0.324-1.284c-0.216-0.344-0.508-0.636-0.876-0.876s-0.796-0.444-1.284-0.612
        c-0.488-0.168-1.004-0.34-1.548-0.516c-0.544-0.16-1.08-0.356-1.608-0.588c-0.528-0.232-1-0.528-1.416-0.889
        c-0.416-0.359-0.752-0.804-1.008-1.332c-0.256-0.527-0.384-1.184-0.384-1.968c0-0.848,0.172-1.576,0.516-2.184
        c0.344-0.608,0.792-1.112,1.344-1.512c0.552-0.4,1.176-0.692,1.872-0.876c0.696-0.184,1.396-0.276,2.1-0.276
        c0.992,0,1.92,0.176,2.784,0.528c0.864,0.352,1.56,0.824,2.088,1.416L13.846,10.832z"/>
    <path fill="#666666" d="M18.813,13.304l2.568,8.688h0.048l2.712-8.688h2.376l2.76,8.688h0.048l2.568-8.688h2.376L30.501,24.68
        h-2.352l-2.808-8.544h-0.048l-2.784,8.544h-2.352l-3.792-11.376H18.813z"/>
    <path fill="#666666" d="M38.685,9.2c0,0.416-0.147,0.76-0.44,1.032c-0.294,0.272-0.647,0.408-1.06,0.408s-0.762-0.14-1.047-0.42
        c-0.286-0.28-0.429-0.62-0.429-1.02c0-0.416,0.143-0.764,0.429-1.044c0.286-0.28,0.635-0.42,1.047-0.42s0.766,0.14,1.06,0.42
        C38.538,8.437,38.685,8.784,38.685,9.2z M38.325,24.68h-2.256V13.304h2.256V24.68z"/>
    <path fill="#666666" d="M47.613,15.152h-2.64v9.528h-2.256v-9.528h-2.256v-1.848h2.256v-2.376c0-0.672,0.076-1.292,0.228-1.86
        c0.152-0.568,0.4-1.06,0.744-1.476c0.344-0.416,0.784-0.744,1.32-0.984c0.536-0.24,1.188-0.36,1.956-0.36
        c0.544,0,1.016,0.056,1.416,0.168l-0.264,1.944c-0.176-0.048-0.352-0.088-0.528-0.12c-0.176-0.032-0.376-0.048-0.6-0.048
        c-0.432,0-0.78,0.076-1.044,0.228c-0.264,0.152-0.468,0.356-0.612,0.612s-0.24,0.548-0.288,0.876
        c-0.048,0.328-0.072,0.668-0.072,1.02v2.376h2.64V15.152z"/>
    <path fill="#666666" d="M54.909,15.152h-3.024v5.91c0,0.687,0.128,1.177,0.384,1.472c0.256,0.295,0.664,0.442,1.224,0.442
        c0.208,0,0.432-0.021,0.672-0.065c0.24-0.044,0.456-0.11,0.648-0.198l0.072,1.848c-0.272,0.096-0.572,0.172-0.9,0.229
        c-0.328,0.056-0.668,0.084-1.02,0.084c-1.072,0-1.892-0.296-2.46-0.889c-0.568-0.592-0.852-1.479-0.852-2.664v-6.168h-2.184
        v-1.848h2.184V10.04h2.232v3.264h3.024V15.152z"/>
    <path fill="#666666" d="M57.356,7.688h5.832c1.088,0,2.176,0.16,3.264,0.48c1.088,0.32,2.072,0.824,2.952,1.512
        s1.592,1.568,2.136,2.64c0.544,1.072,0.816,2.36,0.816,3.864c0,1.456-0.272,2.716-0.816,3.78s-1.256,1.943-2.136,2.64
        s-1.864,1.216-2.952,1.561c-1.088,0.344-2.176,0.516-3.264,0.516h-5.832V7.688z M59.732,22.593h2.976
        c1.024,0,1.972-0.145,2.844-0.432c0.872-0.288,1.624-0.704,2.256-1.248c0.632-0.544,1.124-1.216,1.476-2.017
        c0.352-0.8,0.528-1.704,0.528-2.712c0-1.056-0.176-1.983-0.528-2.784c-0.353-0.8-0.844-1.468-1.476-2.004
        c-0.632-0.536-1.384-0.944-2.256-1.224s-1.82-0.42-2.844-0.42h-2.976V22.593z"/>
    <path fill="#666666" d="M86.06,18.969c0,0.88-0.156,1.688-0.468,2.424c-0.312,0.736-0.744,1.372-1.296,1.908
        c-0.552,0.536-1.204,0.952-1.956,1.248c-0.752,0.296-1.56,0.443-2.424,0.443c-0.864,0-1.672-0.147-2.424-0.443
        c-0.752-0.296-1.4-0.712-1.944-1.248c-0.544-0.536-0.972-1.172-1.284-1.908c-0.312-0.735-0.468-1.544-0.468-2.424
        s0.156-1.684,0.468-2.412c0.312-0.728,0.74-1.356,1.284-1.884c0.543-0.528,1.191-0.939,1.944-1.236
        c0.752-0.296,1.56-0.444,2.424-0.444c0.864,0,1.672,0.148,2.424,0.444c0.752,0.297,1.404,0.708,1.956,1.236
        c0.552,0.527,0.984,1.156,1.296,1.884C85.904,17.285,86.06,18.089,86.06,18.969z M83.708,18.98c0-0.542-0.084-1.061-0.252-1.556
        c-0.169-0.494-0.414-0.929-0.734-1.304s-0.718-0.674-1.192-0.897s-1.015-0.335-1.625-0.335c-0.61,0-1.152,0.111-1.625,0.335
        c-0.474,0.224-0.871,0.522-1.191,0.897c-0.321,0.375-0.566,0.81-0.734,1.304C76.184,17.92,76.1,18.438,76.1,18.98
        c0,0.543,0.084,1.062,0.253,1.556c0.168,0.495,0.413,0.934,0.734,1.316c0.321,0.383,0.718,0.686,1.191,0.909
        c0.473,0.224,1.015,0.335,1.625,0.335c0.61,0,1.151-0.111,1.625-0.335s0.871-0.526,1.192-0.909s0.565-0.821,0.734-1.316
        C83.624,20.042,83.708,19.523,83.708,18.98z"/>
    <path fill="#666666" d="M96.428,16.184c-0.24-0.368-0.6-0.676-1.08-0.924s-0.992-0.372-1.536-0.372
        c-0.592,0-1.116,0.112-1.572,0.336c-0.456,0.225-0.844,0.524-1.164,0.9c-0.32,0.376-0.564,0.812-0.732,1.308
        s-0.252,1.017-0.252,1.56c0,0.545,0.084,1.064,0.252,1.561s0.412,0.933,0.732,1.308c0.32,0.376,0.712,0.677,1.176,0.9
        c0.464,0.225,0.992,0.336,1.584,0.336c0.576,0,1.1-0.111,1.572-0.336c0.472-0.224,0.86-0.528,1.164-0.912l1.512,1.368
        c-0.48,0.561-1.08,0.996-1.8,1.308c-0.72,0.312-1.536,0.468-2.448,0.468c-0.88,0-1.692-0.144-2.436-0.432
        c-0.744-0.288-1.388-0.691-1.932-1.212c-0.544-0.52-0.972-1.147-1.284-1.884s-0.468-1.561-0.468-2.473
        c0-0.896,0.152-1.711,0.456-2.447c0.304-0.736,0.728-1.368,1.272-1.896c0.543-0.527,1.188-0.936,1.932-1.224
        c0.744-0.288,1.548-0.433,2.412-0.433c0.8,0,1.596,0.16,2.388,0.48s1.419,0.784,1.884,1.392L96.428,16.184z"/>
    <path fill="#666666" d="M103.1,23.24c0,0.417-0.152,0.784-0.456,1.104c-0.304,0.32-0.688,0.479-1.152,0.479
        c-0.448,0-0.828-0.155-1.14-0.468c-0.312-0.312-0.468-0.676-0.468-1.092c0-0.432,0.152-0.804,0.456-1.116
        c0.304-0.312,0.688-0.468,1.152-0.468c0.464,0,0.848,0.152,1.152,0.456C102.947,22.44,103.1,22.808,103.1,23.24z"/>
    <path fill="#666666" d="M116.635,18.969c0,0.88-0.156,1.688-0.468,2.424c-0.312,0.736-0.744,1.372-1.296,1.908
        c-0.552,0.536-1.204,0.952-1.956,1.248c-0.752,0.296-1.56,0.443-2.424,0.443c-0.864,0-1.672-0.147-2.424-0.443
        c-0.752-0.296-1.4-0.712-1.944-1.248c-0.544-0.536-0.972-1.172-1.284-1.908c-0.312-0.735-0.468-1.544-0.468-2.424
        s0.156-1.684,0.468-2.412c0.312-0.728,0.74-1.356,1.284-1.884c0.543-0.528,1.191-0.939,1.944-1.236
        c0.752-0.296,1.56-0.444,2.424-0.444c0.864,0,1.672,0.148,2.424,0.444c0.752,0.297,1.404,0.708,1.956,1.236
        c0.552,0.527,0.984,1.156,1.296,1.884C116.479,17.285,116.635,18.089,116.635,18.969z M114.283,18.98
        c0-0.542-0.084-1.061-0.252-1.556c-0.169-0.494-0.414-0.929-0.734-1.304s-0.718-0.674-1.192-0.897s-1.015-0.335-1.625-0.335
        c-0.61,0-1.152,0.111-1.625,0.335c-0.474,0.224-0.871,0.522-1.191,0.897c-0.321,0.375-0.566,0.81-0.734,1.304
        c-0.169,0.495-0.253,1.014-0.253,1.556c0,0.543,0.084,1.062,0.253,1.556c0.168,0.495,0.413,0.934,0.734,1.316
        c0.321,0.383,0.718,0.686,1.191,0.909c0.473,0.224,1.015,0.335,1.625,0.335c0.61,0,1.151-0.111,1.625-0.335
        s0.871-0.526,1.192-0.909s0.565-0.821,0.734-1.316C114.199,20.042,114.283,19.523,114.283,18.98z"/>
    <path fill="#666666" d="M119.251,14.577c-0.016-0.48-0.04-0.904-0.072-1.272h2.136c0.032,0.288,0.056,0.62,0.072,0.996
        c0.016,0.376,0.024,0.684,0.024,0.924h0.072c0.32-0.672,0.788-1.212,1.404-1.62c0.616-0.408,1.308-0.612,2.076-0.612
        c0.352,0,0.648,0.033,0.888,0.097l-0.096,2.088c-0.32-0.08-0.664-0.12-1.032-0.12c-0.544,0-1.016,0.101-1.416,0.3
        c-0.4,0.2-0.732,0.468-0.996,0.805c-0.264,0.336-0.46,0.724-0.588,1.163c-0.128,0.44-0.192,0.9-0.192,1.381v5.976h-2.256v-8.928
        C119.275,15.449,119.267,15.056,119.251,14.577z"/>
    <path fill="#666666" d="M128.419,26.625c0.496,0.56,1.116,1.008,1.86,1.344c0.744,0.336,1.508,0.504,2.292,0.504
        c0.752,0,1.384-0.108,1.896-0.324s0.924-0.512,1.236-0.888s0.536-0.82,0.672-1.332c0.136-0.513,0.204-1.064,0.204-1.656v-1.464
        h-0.048c-0.416,0.641-0.984,1.128-1.704,1.464c-0.72,0.336-1.488,0.504-2.304,0.504c-0.864,0-1.652-0.151-2.364-0.456
        c-0.712-0.304-1.316-0.72-1.812-1.248c-0.496-0.527-0.88-1.147-1.152-1.859s-0.408-1.477-0.408-2.292
        c0-0.816,0.136-1.584,0.408-2.305c0.272-0.72,0.656-1.348,1.152-1.884c0.496-0.535,1.096-0.96,1.8-1.271
        c0.704-0.312,1.488-0.469,2.352-0.469c0.816,0,1.596,0.177,2.34,0.528c0.744,0.353,1.332,0.888,1.764,1.608h0.048v-1.824h2.184
        v10.8c0,0.832-0.104,1.628-0.312,2.388c-0.208,0.76-0.56,1.433-1.056,2.017s-1.144,1.052-1.944,1.404
        c-0.8,0.352-1.792,0.527-2.976,0.527c-0.992,0-1.988-0.18-2.988-0.54c-1-0.359-1.86-0.868-2.58-1.523L128.419,26.625z
         M129.091,18.873c0,0.527,0.084,1.031,0.253,1.512c0.168,0.479,0.417,0.904,0.746,1.271c0.329,0.369,0.726,0.664,1.192,0.889
        c0.465,0.224,0.995,0.336,1.589,0.336c0.577,0,1.107-0.104,1.589-0.312c0.481-0.207,0.891-0.491,1.228-0.852
        s0.598-0.784,0.782-1.272c0.185-0.487,0.277-1.012,0.277-1.571c0-0.544-0.093-1.057-0.277-1.536
        c-0.185-0.48-0.449-0.904-0.794-1.272c-0.345-0.367-0.755-0.66-1.228-0.876c-0.474-0.216-1-0.324-1.577-0.324
        c-0.594,0-1.124,0.108-1.589,0.324c-0.466,0.216-0.863,0.504-1.192,0.864s-0.578,0.784-0.746,1.271
        C129.175,17.812,129.091,18.329,129.091,18.873z"/>
</g>
<g><a xlink:href="/" pointer-events="all" target="_top"><polygon fill="none" points="0,0 145,0 145,35 0,35 0,0"/></a></g>

</g>


<!-- BitwiseOperations -->
<g id="node1" class="node">
<g id="a_node1"><a xlink:href="/v3.1/protocol/BitwiseOperations/hierarchy/" target="_top">
<path fill="#999999" stroke="#999999" d="M98.6993,-254C98.6993,-254 7.30072,-254 7.30072,-254 3.63405,-254 -0.0326161,-250.333 -0.0326161,-246.667 -0.0326161,-246.667 -0.0326161,-239.333 -0.0326161,-239.333 -0.0326161,-235.667 3.63405,-232 7.30072,-232 7.30072,-232 98.6993,-232 98.6993,-232 102.366,-232 106.033,-235.667 106.033,-239.333 106.033,-239.333 106.033,-246.667 106.033,-246.667 106.033,-250.333 102.366,-254 98.6993,-254"/>
<text text-anchor="middle" x="53" y="-239.4" font-family="Helvetica,sans-Serif" font-size="12.00" fill="white">BitwiseOperations</text>
</a>
</g>
</g>
<!-- _Integer -->
<g id="node23" class="node">
<g id="a_node23"><a xlink:href="/v3.1/protocol/_Integer/" target="_top">
<path fill="#ee543d" stroke="#ee543d" d="M456.692,-196C456.692,-196 417.308,-196 417.308,-196 413.642,-196 409.975,-192.333 409.975,-188.667 409.975,-188.667 409.975,-181.333 409.975,-181.333 409.975,-177.667 413.642,-174 417.308,-174 417.308,-174 456.692,-174 456.692,-174 460.358,-174 464.025,-177.667 464.025,-181.333 464.025,-181.333 464.025,-188.667 464.025,-188.667 464.025,-192.333 460.358,-196 456.692,-196"/>
<text text-anchor="middle" x="437" y="-181.4" font-family="Helvetica,sans-Serif" font-size="12.00" fill="white">_Integer</text>
</a>
</g>
</g>
<!-- BitwiseOperations&#45;&gt;_Integer -->
<g id="edge22" class="edge">
<path fill="none" stroke="#cccccc" d="M106.09,-233.373C109.104,-232.903 112.09,-232.443 115,-232 217.963,-216.343 339.692,-199.371 399.71,-191.105"/>
<polygon fill="#cccccc" stroke="#cccccc" points="400.406,-194.542 409.836,-189.712 399.452,-187.608 400.406,-194.542"/>
</g>
<!-- Comparable -->
<g id="node2" class="node">
<g id="a_node2"><a xlink:href="/v3.1/protocol/Comparable/hierarchy/" target="_top">
<path fill="#999999" stroke="#999999" d="M425.191,-312C425.191,-312 364.809,-312 364.809,-312 361.142,-312 357.475,-308.333 357.475,-304.667 357.475,-304.667 357.475,-297.333 357.475,-297.333 357.475,-293.667 361.142,-290 364.809,-290 364.809,-290 425.191,-290 425.191,-290 428.858,-290 432.525,-293.667 432.525,-297.333 432.525,-297.333 432.525,-304.667 432.525,-304.667 432.525,-308.333 428.858,-312 425.191,-312"/>
<text text-anchor="middle" x="395" y="-297.4" font-family="Helvetica,sans-Serif" font-size="12.00" fill="white">Comparable</text>
</a>
</g>
</g>
<!-- IntegerArithmetic -->
<g id="node13" class="node">
<g id="a_node13"><a xlink:href="/v3.1/protocol/IntegerArithmetic/hierarchy/" target="_top">
<path fill="#999999" stroke="#999999" d="M552.695,-254C552.695,-254 467.305,-254 467.305,-254 463.638,-254 459.972,-250.333 459.972,-246.667 459.972,-246.667 459.972,-239.333 459.972,-239.333 459.972,-235.667 463.638,-232 467.305,-232 467.305,-232 552.695,-232 552.695,-232 556.362,-232 560.028,-235.667 560.028,-239.333 560.028,-239.333 560.028,-246.667 560.028,-246.667 560.028,-250.333 556.362,-254 552.695,-254"/>
<text text-anchor="middle" x="510" y="-239.4" font-family="Helvetica,sans-Serif" font-size="12.00" fill="white">IntegerArithmetic</text>
</a>
</g>
</g>
<!-- Comparable&#45;&gt;IntegerArithmetic -->
<g id="edge26" class="edge">
<path fill="none" stroke="#cccccc" d="M415.56,-289.988C433.519,-281.243 459.815,-268.438 480.101,-258.559"/>
<polygon fill="#cccccc" stroke="#cccccc" points="481.772,-261.639 489.231,-254.114 478.708,-255.345 481.772,-261.639"/>
</g>
<!-- CustomStringConvertible -->
<g id="node3" class="node">
<g id="a_node3"><a xlink:href="/v3.1/protocol/CustomStringConvertible/hierarchy/" target="_top">
<path fill="#999999" stroke="#999999" d="M260.208,-254C260.208,-254 131.792,-254 131.792,-254 128.126,-254 124.459,-250.333 124.459,-246.667 124.459,-246.667 124.459,-239.333 124.459,-239.333 124.459,-235.667 128.126,-232 131.792,-232 131.792,-232 260.208,-232 260.208,-232 263.874,-232 267.541,-235.667 267.541,-239.333 267.541,-239.333 267.541,-246.667 267.541,-246.667 267.541,-250.333 263.874,-254 260.208,-254"/>
<text text-anchor="middle" x="196" y="-239.4" font-family="Helvetica,sans-Serif" font-size="12.00" fill="white">CustomStringConvertible</text>
</a>
</g>
</g>
<!-- CustomStringConvertible&#45;&gt;_Integer -->
<g id="edge19" class="edge">
<path fill="none" stroke="#cccccc" d="M239.086,-231.988C284.961,-221.329 356.796,-204.637 400.14,-194.565"/>
<polygon fill="#cccccc" stroke="#cccccc" points="401.038,-197.95 409.987,-192.277 399.454,-191.131 401.038,-197.95"/>
</g>
<!-- Equatable -->
<g id="node4" class="node">
<g id="a_node4"><a xlink:href="/v3.1/protocol/Equatable/hierarchy/" target="_top">
<path fill="#999999" stroke="#999999" d="M630.702,-370C630.702,-370 581.298,-370 581.298,-370 577.632,-370 573.965,-366.333 573.965,-362.667 573.965,-362.667 573.965,-355.333 573.965,-355.333 573.965,-351.667 577.632,-348 581.298,-348 581.298,-348 630.702,-348 630.702,-348 634.368,-348 638.035,-351.667 638.035,-355.333 638.035,-355.333 638.035,-362.667 638.035,-362.667 638.035,-366.333 634.368,-370 630.702,-370"/>
<text text-anchor="middle" x="606" y="-355.4" font-family="Helvetica,sans-Serif" font-size="12.00" fill="white">Equatable</text>
</a>
</g>
</g>
<!-- Equatable&#45;&gt;Comparable -->
<g id="edge27" class="edge">
<path fill="none" stroke="#cccccc" d="M573.954,-349.495C538.988,-340.215 482.651,-325.263 442.533,-314.615"/>
<polygon fill="#cccccc" stroke="#cccccc" points="443.269,-311.19 432.705,-312.007 441.473,-317.955 443.269,-311.19"/>
</g>
<!-- Hashable -->
<g id="node6" class="node">
<g id="a_node6"><a xlink:href="/v3.1/protocol/Hashable/hierarchy/" target="_top">
<path fill="#999999" stroke="#999999" d="M628.694,-312C628.694,-312 583.306,-312 583.306,-312 579.639,-312 575.973,-308.333 575.973,-304.667 575.973,-304.667 575.973,-297.333 575.973,-297.333 575.973,-293.667 579.639,-290 583.306,-290 583.306,-290 628.694,-290 628.694,-290 632.361,-290 636.027,-293.667 636.027,-297.333 636.027,-297.333 636.027,-304.667 636.027,-304.667 636.027,-308.333 632.361,-312 628.694,-312"/>
<text text-anchor="middle" x="606" y="-297.4" font-family="Helvetica,sans-Serif" font-size="12.00" fill="white">Hashable</text>
</a>
</g>
</g>
<!-- Equatable&#45;&gt;Hashable -->
<g id="edge24" class="edge">
<path fill="none" stroke="#cccccc" d="M606,-347.988C606,-340.91 606,-331.171 606,-322.478"/>
<polygon fill="#cccccc" stroke="#cccccc" points="609.5,-322.304 606,-312.304 602.5,-322.304 609.5,-322.304"/>
</g>
<!-- _Incrementable -->
<g id="node22" class="node">
<g id="a_node22"><a xlink:href="/v3.1/protocol/_Incrementable/hierarchy/" target="_top">
<path fill="#999999" stroke="#999999" d="M739.705,-312C739.705,-312 662.295,-312 662.295,-312 658.628,-312 654.961,-308.333 654.961,-304.667 654.961,-304.667 654.961,-297.333 654.961,-297.333 654.961,-293.667 658.628,-290 662.295,-290 662.295,-290 739.705,-290 739.705,-290 743.372,-290 747.039,-293.667 747.039,-297.333 747.039,-297.333 747.039,-304.667 747.039,-304.667 747.039,-308.333 743.372,-312 739.705,-312"/>
<text text-anchor="middle" x="701" y="-297.4" font-family="Helvetica,sans-Serif" font-size="12.00" fill="white">_Incrementable</text>
</a>
</g>
</g>
<!-- Equatable&#45;&gt;_Incrementable -->
<g id="edge28" class="edge">
<path fill="none" stroke="#cccccc" d="M622.984,-347.988C637.484,-339.441 658.563,-327.015 675.156,-317.234"/>
<polygon fill="#cccccc" stroke="#cccccc" points="677.005,-320.207 683.843,-312.114 673.451,-314.177 677.005,-320.207"/>
</g>
<!-- ExpressibleByIntegerLiteral -->
<g id="node5" class="node">
<g id="a_node5"><a xlink:href="/v3.1/protocol/ExpressibleByIntegerLiteral/hierarchy/" target="_top">
<path fill="#999999" stroke="#999999" d="M434.722,-254C434.722,-254 293.278,-254 293.278,-254 289.611,-254 285.944,-250.333 285.944,-246.667 285.944,-246.667 285.944,-239.333 285.944,-239.333 285.944,-235.667 289.611,-232 293.278,-232 293.278,-232 434.722,-232 434.722,-232 438.389,-232 442.056,-235.667 442.056,-239.333 442.056,-239.333 442.056,-246.667 442.056,-246.667 442.056,-250.333 438.389,-254 434.722,-254"/>
<text text-anchor="middle" x="364" y="-239.4" font-family="Helvetica,sans-Serif" font-size="12.00" fill="white">ExpressibleByIntegerLiteral</text>
</a>
</g>
</g>
<!-- ExpressibleByIntegerLiteral&#45;&gt;_Integer -->
<g id="edge18" class="edge">
<path fill="none" stroke="#cccccc" d="M377.051,-231.988C387.714,-223.809 403.006,-212.077 415.477,-202.511"/>
<polygon fill="#cccccc" stroke="#cccccc" points="417.764,-205.168 423.568,-196.304 413.504,-199.613 417.764,-205.168"/>
</g>
<!-- Hashable&#45;&gt;_Integer -->
<g id="edge20" class="edge">
<path fill="none" stroke="#cccccc" d="M603.029,-289.719C598.242,-274.915 587.442,-247.657 569,-232 541.978,-209.059 502.821,-197.322 474.172,-191.471"/>
<polygon fill="#cccccc" stroke="#cccccc" points="474.611,-187.992 464.135,-189.573 473.31,-194.87 474.611,-187.992"/>
</g>
<!-- Int -->
<g id="node7" class="node">
<g id="a_node7"><a xlink:href="/v3.1/type/Int/hierarchy/" target="_top">
<polygon fill="#999999" stroke="#999999" points="160,-22 106,-22 106,-0 160,-0 160,-22"/>
<text text-anchor="middle" x="133" y="-7.4" font-family="Helvetica,sans-Serif" font-size="12.00" fill="white">Int</text>
</a>
</g>
</g>
<!-- Int16 -->
<g id="node8" class="node">
<g id="a_node8"><a xlink:href="/v3.1/type/Int16/hierarchy/" target="_top">
<polygon fill="#999999" stroke="#999999" points="232,-22 178,-22 178,-0 232,-0 232,-22"/>
<text text-anchor="middle" x="205" y="-7.4" font-family="Helvetica,sans-Serif" font-size="12.00" fill="white">Int16</text>
</a>
</g>
</g>
<!-- Int32 -->
<g id="node9" class="node">
<g id="a_node9"><a xlink:href="/v3.1/type/Int32/hierarchy/" target="_top">
<polygon fill="#999999" stroke="#999999" points="304,-22 250,-22 250,-0 304,-0 304,-22"/>
<text text-anchor="middle" x="277" y="-7.4" font-family="Helvetica,sans-Serif" font-size="12.00" fill="white">Int32</text>
</a>
</g>
</g>
<!-- Int64 -->
<g id="node10" class="node">
<g id="a_node10"><a xlink:href="/v3.1/type/Int64/hierarchy/" target="_top">
<polygon fill="#999999" stroke="#999999" points="376,-22 322,-22 322,-0 376,-0 376,-22"/>
<text text-anchor="middle" x="349" y="-7.4" font-family="Helvetica,sans-Serif" font-size="12.00" fill="white">Int64</text>
</a>
</g>
</g>
<!-- Int8 -->
<g id="node11" class="node">
<g id="a_node11"><a xlink:href="/v3.1/type/Int8/hierarchy/" target="_top">
<polygon fill="#999999" stroke="#999999" points="448,-22 394,-22 394,-0 448,-0 448,-22"/>
<text text-anchor="middle" x="421" y="-7.4" font-family="Helvetica,sans-Serif" font-size="12.00" fill="white">Int8</text>
</a>
</g>
</g>
<!-- Integer -->
<g id="node12" class="node">
<g id="a_node12"><a xlink:href="/v3.1/protocol/Integer/hierarchy/" target="_top">
<path fill="#999999" stroke="#999999" d="M456.667,-138C456.667,-138 417.333,-138 417.333,-138 413.667,-138 410,-134.333 410,-130.667 410,-130.667 410,-123.333 410,-123.333 410,-119.667 413.667,-116 417.333,-116 417.333,-116 456.667,-116 456.667,-116 460.333,-116 464,-119.667 464,-123.333 464,-123.333 464,-130.667 464,-130.667 464,-134.333 460.333,-138 456.667,-138"/>
<text text-anchor="middle" x="437" y="-123.4" font-family="Helvetica,sans-Serif" font-size="12.00" fill="white">Integer</text>
</a>
</g>
</g>
<!-- SignedInteger -->
<g id="node14" class="node">
<g id="a_node14"><a xlink:href="/v3.1/protocol/SignedInteger/hierarchy/" target="_top">
<path fill="#999999" stroke="#999999" d="M380.711,-80C380.711,-80 311.289,-80 311.289,-80 307.622,-80 303.956,-76.3333 303.956,-72.6667 303.956,-72.6667 303.956,-65.3333 303.956,-65.3333 303.956,-61.6667 307.622,-58 311.289,-58 311.289,-58 380.711,-58 380.711,-58 384.378,-58 388.044,-61.6667 388.044,-65.3333 388.044,-65.3333 388.044,-72.6667 388.044,-72.6667 388.044,-76.3333 384.378,-80 380.711,-80"/>
<text text-anchor="middle" x="346" y="-65.4" font-family="Helvetica,sans-Serif" font-size="12.00" fill="white">SignedInteger</text>
</a>
</g>
</g>
<!-- Integer&#45;&gt;SignedInteger -->
<g id="edge4" class="edge">
<path fill="none" stroke="#cccccc" d="M420.731,-115.988C406.97,-107.52 387.023,-95.2452 371.198,-85.5067"/>
<polygon fill="#cccccc" stroke="#cccccc" points="372.786,-82.374 362.435,-80.1138 369.117,-88.3356 372.786,-82.374"/>
</g>
<!-- UnsignedInteger -->
<g id="node20" class="node">
<g id="a_node20"><a xlink:href="/v3.1/protocol/UnsignedInteger/hierarchy/" target="_top">
<path fill="#999999" stroke="#999999" d="M608.712,-80C608.712,-80 525.288,-80 525.288,-80 521.621,-80 517.955,-76.3333 517.955,-72.6667 517.955,-72.6667 517.955,-65.3333 517.955,-65.3333 517.955,-61.6667 521.621,-58 525.288,-58 525.288,-58 608.712,-58 608.712,-58 612.379,-58 616.045,-61.6667 616.045,-65.3333 616.045,-65.3333 616.045,-72.6667 616.045,-72.6667 616.045,-76.3333 612.379,-80 608.712,-80"/>
<text text-anchor="middle" x="567" y="-65.4" font-family="Helvetica,sans-Serif" font-size="12.00" fill="white">UnsignedInteger</text>
</a>
</g>
</g>
<!-- Integer&#45;&gt;UnsignedInteger -->
<g id="edge5" class="edge">
<path fill="none" stroke="#cccccc" d="M460.241,-115.988C480.818,-107.124 511.077,-94.0897 534.132,-84.1587"/>
<polygon fill="#cccccc" stroke="#cccccc" points="535.722,-87.2846 543.522,-80.1138 532.953,-80.8557 535.722,-87.2846"/>
</g>
<!-- IntegerArithmetic&#45;&gt;_Integer -->
<g id="edge21" class="edge">
<path fill="none" stroke="#cccccc" d="M496.949,-231.988C486.286,-223.809 470.994,-212.077 458.523,-202.511"/>
<polygon fill="#cccccc" stroke="#cccccc" points="460.496,-199.613 450.432,-196.304 456.236,-205.168 460.496,-199.613"/>
</g>
<!-- SignedInteger&#45;&gt;Int -->
<g id="edge6" class="edge">
<path fill="none" stroke="#cccccc" d="M306.582,-57.9565C272.783,-49.2999 222.537,-36.3248 169.955,-22.2281"/>
<polygon fill="#cccccc" stroke="#cccccc" points="170.679,-18.7985 160.114,-19.5837 168.863,-25.5588 170.679,-18.7985"/>
</g>
<!-- SignedInteger&#45;&gt;Int16 -->
<g id="edge7" class="edge">
<path fill="none" stroke="#cccccc" d="M320.792,-57.9883C298.275,-49.0453 265.068,-35.8566 239.982,-25.8935"/>
<polygon fill="#cccccc" stroke="#cccccc" points="241.051,-22.5522 230.465,-22.1138 238.467,-29.0579 241.051,-22.5522"/>
</g>
<!-- SignedInteger&#45;&gt;Int32 -->
<g id="edge8" class="edge">
<path fill="none" stroke="#cccccc" d="M333.664,-57.9883C323.683,-49.8873 309.409,-38.3026 297.684,-28.7873"/>
<polygon fill="#cccccc" stroke="#cccccc" points="299.666,-25.888 289.696,-22.3039 295.255,-31.3232 299.666,-25.888"/>
</g>
<!-- SignedInteger&#45;&gt;Int64 -->
<g id="edge9" class="edge">
<path fill="none" stroke="#cccccc" d="M346.536,-57.9883C346.916,-50.9098 347.437,-41.1714 347.903,-32.4779"/>
<polygon fill="#cccccc" stroke="#cccccc" points="351.408,-32.4768 348.448,-22.3039 344.418,-32.1023 351.408,-32.4768"/>
</g>
<!-- SignedInteger&#45;&gt;Int8 -->
<g id="edge10" class="edge">
<path fill="none" stroke="#cccccc" d="M359.408,-57.9883C370.432,-49.7576 386.272,-37.9305 399.127,-28.3316"/>
<polygon fill="#cccccc" stroke="#cccccc" points="401.536,-30.9012 407.455,-22.1138 397.348,-25.2923 401.536,-30.9012"/>
</g>
<!-- UInt -->
<g id="node15" class="node">
<g id="a_node15"><a xlink:href="/v3.1/type/UInt/hierarchy/" target="_top">
<polygon fill="#999999" stroke="#999999" points="520,-22 466,-22 466,-0 520,-0 520,-22"/>
<text text-anchor="middle" x="493" y="-7.4" font-family="Helvetica,sans-Serif" font-size="12.00" fill="white">UInt</text>
</a>
</g>
</g>
<!-- UInt16 -->
<g id="node16" class="node">
<g id="a_node16"><a xlink:href="/v3.1/type/UInt16/hierarchy/" target="_top">
<polygon fill="#999999" stroke="#999999" points="592,-22 538,-22 538,-0 592,-0 592,-22"/>
<text text-anchor="middle" x="565" y="-7.4" font-family="Helvetica,sans-Serif" font-size="12.00" fill="white">UInt16</text>
</a>
</g>
</g>
<!-- UInt32 -->
<g id="node17" class="node">
<g id="a_node17"><a xlink:href="/v3.1/type/UInt32/hierarchy/" target="_top">
<polygon fill="#999999" stroke="#999999" points="664,-22 610,-22 610,-0 664,-0 664,-22"/>
<text text-anchor="middle" x="637" y="-7.4" font-family="Helvetica,sans-Serif" font-size="12.00" fill="white">UInt32</text>
</a>
</g>
</g>
<!-- UInt64 -->
<g id="node18" class="node">
<g id="a_node18"><a xlink:href="/v3.1/type/UInt64/hierarchy/" target="_top">
<polygon fill="#999999" stroke="#999999" points="736,-22 682,-22 682,-0 736,-0 736,-22"/>
<text text-anchor="middle" x="709" y="-7.4" font-family="Helvetica,sans-Serif" font-size="12.00" fill="white">UInt64</text>
</a>
</g>
</g>
<!-- UInt8 -->
<g id="node19" class="node">
<g id="a_node19"><a xlink:href="/v3.1/type/UInt8/hierarchy/" target="_top">
<polygon fill="#999999" stroke="#999999" points="808,-22 754,-22 754,-0 808,-0 808,-22"/>
<text text-anchor="middle" x="781" y="-7.4" font-family="Helvetica,sans-Serif" font-size="12.00" fill="white">UInt8</text>
</a>
</g>
</g>
<!-- UnsignedInteger&#45;&gt;UInt -->
<g id="edge11" class="edge">
<path fill="none" stroke="#cccccc" d="M553.77,-57.9883C542.961,-49.8087 527.459,-38.0773 514.818,-28.5108"/>
<polygon fill="#cccccc" stroke="#cccccc" points="516.702,-25.5474 506.616,-22.3039 512.478,-31.1293 516.702,-25.5474"/>
</g>
<!-- UnsignedInteger&#45;&gt;UInt16 -->
<g id="edge12" class="edge">
<path fill="none" stroke="#cccccc" d="M566.642,-57.9883C566.39,-50.9098 566.042,-41.1714 565.731,-32.4779"/>
<polygon fill="#cccccc" stroke="#cccccc" points="569.223,-32.1726 565.368,-22.3039 562.227,-32.4225 569.223,-32.1726"/>
</g>
<!-- UnsignedInteger&#45;&gt;UInt32 -->
<g id="edge13" class="edge">
<path fill="none" stroke="#cccccc" d="M579.515,-57.9883C589.641,-49.8873 604.122,-38.3026 616.016,-28.7873"/>
<polygon fill="#cccccc" stroke="#cccccc" points="618.498,-31.2839 624.12,-22.3039 614.125,-25.8178 618.498,-31.2839"/>
</g>
<!-- UnsignedInteger&#45;&gt;UInt64 -->
<g id="edge14" class="edge">
<path fill="none" stroke="#cccccc" d="M592.387,-57.9883C615.064,-49.0453 648.506,-35.8566 673.77,-25.8935"/>
<polygon fill="#cccccc" stroke="#cccccc" points="675.336,-29.0385 683.354,-22.1138 672.767,-22.5266 675.336,-29.0385"/>
</g>
<!-- UnsignedInteger&#45;&gt;UInt8 -->
<g id="edge15" class="edge">
<path fill="none" stroke="#cccccc" d="M606.644,-57.9731C640.637,-49.3269 691.168,-36.3587 743.999,-22.2371"/>
<polygon fill="#cccccc" stroke="#cccccc" points="745.134,-25.5566 753.888,-19.5877 743.322,-18.7952 745.134,-25.5566"/>
</g>
<!-- _DisallowMixedSignArithmetic -->
<g id="node21" class="node">
<g id="a_node21"><a xlink:href="/v3.1/protocol/_DisallowMixedSignArithmetic/hierarchy/" target="_top">
<path fill="#999999" stroke="#999999" d="M644.709,-138C644.709,-138 489.291,-138 489.291,-138 485.624,-138 481.957,-134.333 481.957,-130.667 481.957,-130.667 481.957,-123.333 481.957,-123.333 481.957,-119.667 485.624,-116 489.291,-116 489.291,-116 644.709,-116 644.709,-116 648.376,-116 652.043,-119.667 652.043,-123.333 652.043,-123.333 652.043,-130.667 652.043,-130.667 652.043,-134.333 648.376,-138 644.709,-138"/>
<text text-anchor="middle" x="567" y="-123.4" font-family="Helvetica,sans-Serif" font-size="12.00" fill="white">_DisallowMixedSignArithmetic</text>
</a>
</g>
</g>
<!-- _DisallowMixedSignArithmetic&#45;&gt;UnsignedInteger -->
<g id="edge16" class="edge">
<path fill="none" stroke="#cccccc" d="M567,-115.988C567,-108.91 567,-99.1714 567,-90.4779"/>
<polygon fill="#cccccc" stroke="#cccccc" points="570.5,-90.3038 567,-80.3039 563.5,-90.3039 570.5,-90.3038"/>
</g>
<!-- _Incrementable&#45;&gt;_Integer -->
<g id="edge23" class="edge">
<path fill="none" stroke="#cccccc" d="M687.563,-289.938C667.623,-275.406 628.607,-248.485 592,-232 553.201,-214.527 506.001,-201.618 473.954,-193.994"/>
<polygon fill="#cccccc" stroke="#cccccc" points="474.645,-190.561 464.112,-191.705 473.059,-197.379 474.645,-190.561"/>
</g>
<!-- _Integer&#45;&gt;Integer -->
<g id="edge1" class="edge">
<path fill="none" stroke="#cccccc" d="M437,-173.988C437,-166.91 437,-157.171 437,-148.478"/>
<polygon fill="#cccccc" stroke="#cccccc" points="440.5,-148.304 437,-138.304 433.5,-148.304 440.5,-148.304"/>
</g>
<!-- _Integer&#45;&gt;_DisallowMixedSignArithmetic -->
<g id="edge2" class="edge">
<path fill="none" stroke="#cccccc" d="M460.241,-173.988C480.818,-165.124 511.077,-152.09 534.132,-142.159"/>
<polygon fill="#cccccc" stroke="#cccccc" points="535.722,-145.285 543.522,-138.114 532.953,-138.856 535.722,-145.285"/>
</g>
<!-- _SignedInteger -->
<g id="node25" class="node">
<g id="a_node25"><a xlink:href="/v3.1/protocol/_SignedInteger/hierarchy/" target="_top">
<path fill="#999999" stroke="#999999" d="M384.215,-138C384.215,-138 307.785,-138 307.785,-138 304.118,-138 300.452,-134.333 300.452,-130.667 300.452,-130.667 300.452,-123.333 300.452,-123.333 300.452,-119.667 304.118,-116 307.785,-116 307.785,-116 384.215,-116 384.215,-116 387.882,-116 391.548,-119.667 391.548,-123.333 391.548,-123.333 391.548,-130.667 391.548,-130.667 391.548,-134.333 387.882,-138 384.215,-138"/>
<text text-anchor="middle" x="346" y="-123.4" font-family="Helvetica,sans-Serif" font-size="12.00" fill="white">_SignedInteger</text>
</a>
</g>
</g>
<!-- _Integer&#45;&gt;_SignedInteger -->
<g id="edge3" class="edge">
<path fill="none" stroke="#cccccc" d="M420.731,-173.988C406.97,-165.52 387.023,-153.245 371.198,-143.507"/>
<polygon fill="#cccccc" stroke="#cccccc" points="372.786,-140.374 362.435,-138.114 369.117,-146.336 372.786,-140.374"/>
</g>
<!-- _IntegerArithmetic -->
<g id="node24" class="node">
<g id="a_node24"><a xlink:href="/v3.1/protocol/_IntegerArithmetic/hierarchy/" target="_top">
<path fill="#999999" stroke="#999999" d="M550.199,-312C550.199,-312 457.801,-312 457.801,-312 454.135,-312 450.468,-308.333 450.468,-304.667 450.468,-304.667 450.468,-297.333 450.468,-297.333 450.468,-293.667 454.135,-290 457.801,-290 457.801,-290 550.199,-290 550.199,-290 553.865,-290 557.532,-293.667 557.532,-297.333 557.532,-297.333 557.532,-304.667 557.532,-304.667 557.532,-308.333 553.865,-312 550.199,-312"/>
<text text-anchor="middle" x="504" y="-297.4" font-family="Helvetica,sans-Serif" font-size="12.00" fill="white">_IntegerArithmetic</text>
</a>
</g>
</g>
<!-- _IntegerArithmetic&#45;&gt;IntegerArithmetic -->
<g id="edge25" class="edge">
<path fill="none" stroke="#cccccc" d="M505.073,-289.988C505.831,-282.91 506.874,-273.171 507.806,-264.478"/>
<polygon fill="#cccccc" stroke="#cccccc" points="511.311,-264.62 508.896,-254.304 504.351,-263.874 511.311,-264.62"/>
</g>
<!-- _SignedInteger&#45;&gt;SignedInteger -->
<g id="edge17" class="edge">
<path fill="none" stroke="#cccccc" d="M346,-115.988C346,-108.91 346,-99.1714 346,-90.4779"/>
<polygon fill="#cccccc" stroke="#cccccc" points="349.5,-90.3038 346,-80.3039 342.5,-90.3039 349.5,-90.3038"/>
</g>
</g>
</svg>
