<?xml version="1.0" encoding="UTF-8" standalone="no"?>
<!DOCTYPE svg PUBLIC "-//W3C//DTD SVG 1.1//EN"
 "http://www.w3.org/Graphics/SVG/1.1/DTD/svg11.dtd">
<!-- Generated by graphviz version 2.36.0 (20140111.2315)
 -->
<!-- Title: Integer &#45; Type Hierarchy &#45; SwiftDoc.org Pages: 1 -->
<svg width="830pt" height="485pt"
 viewBox="0.00 0.00 830.35 485.20" xmlns="http://www.w3.org/2000/svg" xmlns:xlink="http://www.w3.org/1999/xlink">
<g id="graph0" class="graph" transform="scale(1 1) rotate(0) translate(7.2 427.6)">
<g transform="translate(0 -427.6)">
<g>
    <path fill="#666666" d="M13.846,10.832c-0.336-0.464-0.792-0.844-1.368-1.14s-1.224-0.444-1.944-0.444
        c-0.384,0-0.772,0.052-1.164,0.156C8.977,9.509,8.622,9.677,8.301,9.908c-0.32,0.232-0.58,0.52-0.78,0.864
        c-0.2,0.344-0.3,0.756-0.3,1.236c0,0.464,0.092,0.852,0.276,1.164c0.184,0.312,0.432,0.576,0.744,0.792s0.68,0.4,1.104,0.552
        c0.423,0.152,0.876,0.309,1.356,0.468c0.576,0.177,1.16,0.376,1.752,0.601c0.592,0.224,1.128,0.52,1.608,0.888
        s0.872,0.828,1.176,1.38s0.456,1.252,0.456,2.101c0,0.88-0.164,1.644-0.492,2.292c-0.328,0.647-0.765,1.184-1.308,1.607
        c-0.544,0.424-1.172,0.74-1.884,0.948s-1.444,0.312-2.196,0.312c-1.072,0-2.108-0.208-3.108-0.624
        c-1-0.415-1.828-1.031-2.484-1.848l1.848-1.56c0.4,0.592,0.936,1.071,1.608,1.439c0.672,0.368,1.399,0.552,2.184,0.552
        c0.4,0,0.8-0.056,1.2-0.168c0.4-0.111,0.764-0.288,1.092-0.527c0.328-0.24,0.596-0.54,0.804-0.9
        c0.208-0.36,0.312-0.796,0.312-1.308s-0.108-0.94-0.324-1.284c-0.216-0.344-0.508-0.636-0.876-0.876s-0.796-0.444-1.284-0.612
        c-0.488-0.168-1.004-0.34-1.548-0.516c-0.544-0.16-1.08-0.356-1.608-0.588c-0.528-0.232-1-0.528-1.416-0.889
        c-0.416-0.359-0.752-0.804-1.008-1.332c-0.256-0.527-0.384-1.184-0.384-1.968c0-0.848,0.172-1.576,0.516-2.184
        c0.344-0.608,0.792-1.112,1.344-1.512c0.552-0.4,1.176-0.692,1.872-0.876c0.696-0.184,1.396-0.276,2.1-0.276
        c0.992,0,1.92,0.176,2.784,0.528c0.864,0.352,1.56,0.824,2.088,1.416L13.846,10.832z"/>
    <path fill="#666666" d="M18.813,13.304l2.568,8.688h0.048l2.712-8.688h2.376l2.76,8.688h0.048l2.568-8.688h2.376L30.501,24.68
        h-2.352l-2.808-8.544h-0.048l-2.784,8.544h-2.352l-3.792-11.376H18.813z"/>
    <path fill="#666666" d="M38.685,9.2c0,0.416-0.147,0.76-0.44,1.032c-0.294,0.272-0.647,0.408-1.06,0.408s-0.762-0.14-1.047-0.42
        c-0.286-0.28-0.429-0.62-0.429-1.02c0-0.416,0.143-0.764,0.429-1.044c0.286-0.28,0.635-0.42,1.047-0.42s0.766,0.14,1.06,0.42
        C38.538,8.437,38.685,8.784,38.685,9.2z M38.325,24.68h-2.256V13.304h2.256V24.68z"/>
    <path fill="#666666" d="M47.613,15.152h-2.64v9.528h-2.256v-9.528h-2.256v-1.848h2.256v-2.376c0-0.672,0.076-1.292,0.228-1.86
        c0.152-0.568,0.4-1.06,0.744-1.476c0.344-0.416,0.784-0.744,1.32-0.984c0.536-0.24,1.188-0.36,1.956-0.36
        c0.544,0,1.016,0.056,1.416,0.168l-0.264,1.944c-0.176-0.048-0.352-0.088-0.528-0.12c-0.176-0.032-0.376-0.048-0.6-0.048
        c-0.432,0-0.78,0.076-1.044,0.228c-0.264,0.152-0.468,0.356-0.612,0.612s-0.24,0.548-0.288,0.876
        c-0.048,0.328-0.072,0.668-0.072,1.02v2.376h2.64V15.152z"/>
    <path fill="#666666" d="M54.909,15.152h-3.024v5.91c0,0.687,0.128,1.177,0.384,1.472c0.256,0.295,0.664,0.442,1.224,0.442
        c0.208,0,0.432-0.021,0.672-0.065c0.24-0.044,0.456-0.11,0.648-0.198l0.072,1.848c-0.272,0.096-0.572,0.172-0.9,0.229
        c-0.328,0.056-0.668,0.084-1.02,0.084c-1.072,0-1.892-0.296-2.46-0.889c-0.568-0.592-0.852-1.479-0.852-2.664v-6.168h-2.184
        v-1.848h2.184V10.04h2.232v3.264h3.024V15.152z"/>
    <path fill="#666666" d="M57.356,7.688h5.832c1.088,0,2.176,0.16,3.264,0.48c1.088,0.32,2.072,0.824,2.952,1.512
        s1.592,1.568,2.136,2.64c0.544,1.072,0.816,2.36,0.816,3.864c0,1.456-0.272,2.716-0.816,3.78s-1.256,1.943-2.136,2.64
        s-1.864,1.216-2.952,1.561c-1.088,0.344-2.176,0.516-3.264,0.516h-5.832V7.688z M59.732,22.593h2.976
        c1.024,0,1.972-0.145,2.844-0.432c0.872-0.288,1.624-0.704,2.256-1.248c0.632-0.544,1.124-1.216,1.476-2.017
        c0.352-0.8,0.528-1.704,0.528-2.712c0-1.056-0.176-1.983-0.528-2.784c-0.353-0.8-0.844-1.468-1.476-2.004
        c-0.632-0.536-1.384-0.944-2.256-1.224s-1.82-0.42-2.844-0.42h-2.976V22.593z"/>
    <path fill="#666666" d="M86.06,18.969c0,0.88-0.156,1.688-0.468,2.424c-0.312,0.736-0.744,1.372-1.296,1.908
        c-0.552,0.536-1.204,0.952-1.956,1.248c-0.752,0.296-1.56,0.443-2.424,0.443c-0.864,0-1.672-0.147-2.424-0.443
        c-0.752-0.296-1.4-0.712-1.944-1.248c-0.544-0.536-0.972-1.172-1.284-1.908c-0.312-0.735-0.468-1.544-0.468-2.424
        s0.156-1.684,0.468-2.412c0.312-0.728,0.74-1.356,1.284-1.884c0.543-0.528,1.191-0.939,1.944-1.236
        c0.752-0.296,1.56-0.444,2.424-0.444c0.864,0,1.672,0.148,2.424,0.444c0.752,0.297,1.404,0.708,1.956,1.236
        c0.552,0.527,0.984,1.156,1.296,1.884C85.904,17.285,86.06,18.089,86.06,18.969z M83.708,18.98c0-0.542-0.084-1.061-0.252-1.556
        c-0.169-0.494-0.414-0.929-0.734-1.304s-0.718-0.674-1.192-0.897s-1.015-0.335-1.625-0.335c-0.61,0-1.152,0.111-1.625,0.335
        c-0.474,0.224-0.871,0.522-1.191,0.897c-0.321,0.375-0.566,0.81-0.734,1.304C76.184,17.92,76.1,18.438,76.1,18.98
        c0,0.543,0.084,1.062,0.253,1.556c0.168,0.495,0.413,0.934,0.734,1.316c0.321,0.383,0.718,0.686,1.191,0.909
        c0.473,0.224,1.015,0.335,1.625,0.335c0.61,0,1.151-0.111,1.625-0.335s0.871-0.526,1.192-0.909s0.565-0.821,0.734-1.316
        C83.624,20.042,83.708,19.523,83.708,18.98z"/>
    <path fill="#666666" d="M96.428,16.184c-0.24-0.368-0.6-0.676-1.08-0.924s-0.992-0.372-1.536-0.372
        c-0.592,0-1.116,0.112-1.572,0.336c-0.456,0.225-0.844,0.524-1.164,0.9c-0.32,0.376-0.564,0.812-0.732,1.308
        s-0.252,1.017-0.252,1.56c0,0.545,0.084,1.064,0.252,1.561s0.412,0.933,0.732,1.308c0.32,0.376,0.712,0.677,1.176,0.9
        c0.464,0.225,0.992,0.336,1.584,0.336c0.576,0,1.1-0.111,1.572-0.336c0.472-0.224,0.86-0.528,1.164-0.912l1.512,1.368
        c-0.48,0.561-1.08,0.996-1.8,1.308c-0.72,0.312-1.536,0.468-2.448,0.468c-0.88,0-1.692-0.144-2.436-0.432
        c-0.744-0.288-1.388-0.691-1.932-1.212c-0.544-0.52-0.972-1.147-1.284-1.884s-0.468-1.561-0.468-2.473
        c0-0.896,0.152-1.711,0.456-2.447c0.304-0.736,0.728-1.368,1.272-1.896c0.543-0.527,1.188-0.936,1.932-1.224
        c0.744-0.288,1.548-0.433,2.412-0.433c0.8,0,1.596,0.16,2.388,0.48s1.419,0.784,1.884,1.392L96.428,16.184z"/>
    <path fill="#666666" d="M103.1,23.24c0,0.417-0.152,0.784-0.456,1.104c-0.304,0.32-0.688,0.479-1.152,0.479
        c-0.448,0-0.828-0.155-1.14-0.468c-0.312-0.312-0.468-0.676-0.468-1.092c0-0.432,0.152-0.804,0.456-1.116
        c0.304-0.312,0.688-0.468,1.152-0.468c0.464,0,0.848,0.152,1.152,0.456C102.947,22.44,103.1,22.808,103.1,23.24z"/>
    <path fill="#666666" d="M116.635,18.969c0,0.88-0.156,1.688-0.468,2.424c-0.312,0.736-0.744,1.372-1.296,1.908
        c-0.552,0.536-1.204,0.952-1.956,1.248c-0.752,0.296-1.56,0.443-2.424,0.443c-0.864,0-1.672-0.147-2.424-0.443
        c-0.752-0.296-1.4-0.712-1.944-1.248c-0.544-0.536-0.972-1.172-1.284-1.908c-0.312-0.735-0.468-1.544-0.468-2.424
        s0.156-1.684,0.468-2.412c0.312-0.728,0.74-1.356,1.284-1.884c0.543-0.528,1.191-0.939,1.944-1.236
        c0.752-0.296,1.56-0.444,2.424-0.444c0.864,0,1.672,0.148,2.424,0.444c0.752,0.297,1.404,0.708,1.956,1.236
        c0.552,0.527,0.984,1.156,1.296,1.884C116.479,17.285,116.635,18.089,116.635,18.969z M114.283,18.98
        c0-0.542-0.084-1.061-0.252-1.556c-0.169-0.494-0.414-0.929-0.734-1.304s-0.718-0.674-1.192-0.897s-1.015-0.335-1.625-0.335
        c-0.61,0-1.152,0.111-1.625,0.335c-0.474,0.224-0.871,0.522-1.191,0.897c-0.321,0.375-0.566,0.81-0.734,1.304
        c-0.169,0.495-0.253,1.014-0.253,1.556c0,0.543,0.084,1.062,0.253,1.556c0.168,0.495,0.413,0.934,0.734,1.316
        c0.321,0.383,0.718,0.686,1.191,0.909c0.473,0.224,1.015,0.335,1.625,0.335c0.61,0,1.151-0.111,1.625-0.335
        s0.871-0.526,1.192-0.909s0.565-0.821,0.734-1.316C114.199,20.042,114.283,19.523,114.283,18.98z"/>
    <path fill="#666666" d="M119.251,14.577c-0.016-0.48-0.04-0.904-0.072-1.272h2.136c0.032,0.288,0.056,0.62,0.072,0.996
        c0.016,0.376,0.024,0.684,0.024,0.924h0.072c0.32-0.672,0.788-1.212,1.404-1.62c0.616-0.408,1.308-0.612,2.076-0.612
        c0.352,0,0.648,0.033,0.888,0.097l-0.096,2.088c-0.32-0.08-0.664-0.12-1.032-0.12c-0.544,0-1.016,0.101-1.416,0.3
        c-0.4,0.2-0.732,0.468-0.996,0.805c-0.264,0.336-0.46,0.724-0.588,1.163c-0.128,0.44-0.192,0.9-0.192,1.381v5.976h-2.256v-8.928
        C119.275,15.449,119.267,15.056,119.251,14.577z"/>
    <path fill="#666666" d="M128.419,26.625c0.496,0.56,1.116,1.008,1.86,1.344c0.744,0.336,1.508,0.504,2.292,0.504
        c0.752,0,1.384-0.108,1.896-0.324s0.924-0.512,1.236-0.888s0.536-0.82,0.672-1.332c0.136-0.513,0.204-1.064,0.204-1.656v-1.464
        h-0.048c-0.416,0.641-0.984,1.128-1.704,1.464c-0.72,0.336-1.488,0.504-2.304,0.504c-0.864,0-1.652-0.151-2.364-0.456
        c-0.712-0.304-1.316-0.72-1.812-1.248c-0.496-0.527-0.88-1.147-1.152-1.859s-0.408-1.477-0.408-2.292
        c0-0.816,0.136-1.584,0.408-2.305c0.272-0.72,0.656-1.348,1.152-1.884c0.496-0.535,1.096-0.96,1.8-1.271
        c0.704-0.312,1.488-0.469,2.352-0.469c0.816,0,1.596,0.177,2.34,0.528c0.744,0.353,1.332,0.888,1.764,1.608h0.048v-1.824h2.184
        v10.8c0,0.832-0.104,1.628-0.312,2.388c-0.208,0.76-0.56,1.433-1.056,2.017s-1.144,1.052-1.944,1.404
        c-0.8,0.352-1.792,0.527-2.976,0.527c-0.992,0-1.988-0.18-2.988-0.54c-1-0.359-1.86-0.868-2.58-1.523L128.419,26.625z
         M129.091,18.873c0,0.527,0.084,1.031,0.253,1.512c0.168,0.479,0.417,0.904,0.746,1.271c0.329,0.369,0.726,0.664,1.192,0.889
        c0.465,0.224,0.995,0.336,1.589,0.336c0.577,0,1.107-0.104,1.589-0.312c0.481-0.207,0.891-0.491,1.228-0.852
        s0.598-0.784,0.782-1.272c0.185-0.487,0.277-1.012,0.277-1.571c0-0.544-0.093-1.057-0.277-1.536
        c-0.185-0.48-0.449-0.904-0.794-1.272c-0.345-0.367-0.755-0.66-1.228-0.876c-0.474-0.216-1-0.324-1.577-0.324
        c-0.594,0-1.124,0.108-1.589,0.324c-0.466,0.216-0.863,0.504-1.192,0.864s-0.578,0.784-0.746,1.271
        C129.175,17.812,129.091,18.329,129.091,18.873z"/>
</g>
<g><a xlink:href="/" pointer-events="all" target="_top"><polygon fill="none" points="0,0 145,0 145,35 0,35 0,0"/></a></g>

</g>


<!-- BitwiseOperations -->
<g id="node1" class="node">
<g id="a_node1"><a xlink:href="/v3.0/protocol/BitwiseOperations/hierarchy/" target="_top">
<path fill="#999999" stroke="#999999" d="M115.653,-254C115.653,-254 24.2548,-254 24.2548,-254 20.5882,-254 16.9215,-250.333 16.9215,-246.667 16.9215,-246.667 16.9215,-239.333 16.9215,-239.333 16.9215,-235.667 20.5882,-232 24.2548,-232 24.2548,-232 115.653,-232 115.653,-232 119.32,-232 122.987,-235.667 122.987,-239.333 122.987,-239.333 122.987,-246.667 122.987,-246.667 122.987,-250.333 119.32,-254 115.653,-254"/>
<text text-anchor="middle" x="69.9541" y="-239.4" font-family="Helvetica,sans-Serif" font-size="12.00" fill="white">BitwiseOperations</text>
</a>
</g>
</g>
<!-- _Integer -->
<g id="node23" class="node">
<g id="a_node23"><a xlink:href="/v3.0/protocol/_Integer/hierarchy/" target="_top">
<path fill="#999999" stroke="#999999" d="M400.646,-196C400.646,-196 361.263,-196 361.263,-196 357.596,-196 353.929,-192.333 353.929,-188.667 353.929,-188.667 353.929,-181.333 353.929,-181.333 353.929,-177.667 357.596,-174 361.263,-174 361.263,-174 400.646,-174 400.646,-174 404.312,-174 407.979,-177.667 407.979,-181.333 407.979,-181.333 407.979,-188.667 407.979,-188.667 407.979,-192.333 404.312,-196 400.646,-196"/>
<text text-anchor="middle" x="380.954" y="-181.4" font-family="Helvetica,sans-Serif" font-size="12.00" fill="white">_Integer</text>
</a>
</g>
</g>
<!-- BitwiseOperations&#45;&gt;_Integer -->
<g id="edge19" class="edge">
<path fill="none" stroke="#cccccc" d="M123.064,-232.437C185.812,-221.138 288.603,-202.629 343.549,-192.735"/>
<polygon fill="#cccccc" stroke="#cccccc" points="344.331,-196.151 353.553,-190.934 343.091,-189.262 344.331,-196.151"/>
</g>
<!-- Comparable -->
<g id="node2" class="node">
<g id="a_node2"><a xlink:href="/v3.0/protocol/Comparable/hierarchy/" target="_top">
<path fill="#999999" stroke="#999999" d="M673.145,-312C673.145,-312 612.763,-312 612.763,-312 609.096,-312 605.429,-308.333 605.429,-304.667 605.429,-304.667 605.429,-297.333 605.429,-297.333 605.429,-293.667 609.096,-290 612.763,-290 612.763,-290 673.145,-290 673.145,-290 676.812,-290 680.479,-293.667 680.479,-297.333 680.479,-297.333 680.479,-304.667 680.479,-304.667 680.479,-308.333 676.812,-312 673.145,-312"/>
<text text-anchor="middle" x="642.954" y="-297.4" font-family="Helvetica,sans-Serif" font-size="12.00" fill="white">Comparable</text>
</a>
</g>
</g>
<!-- IntegerArithmetic -->
<g id="node13" class="node">
<g id="a_node13"><a xlink:href="/v3.0/protocol/IntegerArithmetic/hierarchy/" target="_top">
<path fill="#999999" stroke="#999999" d="M607.649,-254C607.649,-254 522.259,-254 522.259,-254 518.592,-254 514.926,-250.333 514.926,-246.667 514.926,-246.667 514.926,-239.333 514.926,-239.333 514.926,-235.667 518.592,-232 522.259,-232 522.259,-232 607.649,-232 607.649,-232 611.316,-232 614.982,-235.667 614.982,-239.333 614.982,-239.333 614.982,-246.667 614.982,-246.667 614.982,-250.333 611.316,-254 607.649,-254"/>
<text text-anchor="middle" x="564.954" y="-239.4" font-family="Helvetica,sans-Serif" font-size="12.00" fill="white">IntegerArithmetic</text>
</a>
</g>
</g>
<!-- Comparable&#45;&gt;IntegerArithmetic -->
<g id="edge23" class="edge">
<path fill="none" stroke="#cccccc" d="M629.009,-289.988C617.435,-281.678 600.754,-269.703 587.317,-260.055"/>
<polygon fill="#cccccc" stroke="#cccccc" points="589.206,-257.103 579.041,-254.114 585.123,-262.789 589.206,-257.103"/>
</g>
<!-- Strideable -->
<g id="node15" class="node">
<g id="a_node15"><a xlink:href="/v3.0/protocol/Strideable/hierarchy/" target="_top">
<path fill="#999999" stroke="#999999" d="M574.647,-196C574.647,-196 525.261,-196 525.261,-196 521.594,-196 517.928,-192.333 517.928,-188.667 517.928,-188.667 517.928,-181.333 517.928,-181.333 517.928,-177.667 521.594,-174 525.261,-174 525.261,-174 574.647,-174 574.647,-174 578.314,-174 581.98,-177.667 581.98,-181.333 581.98,-181.333 581.98,-188.667 581.98,-188.667 581.98,-192.333 578.314,-196 574.647,-196"/>
<text text-anchor="middle" x="549.954" y="-181.4" font-family="Helvetica,sans-Serif" font-size="12.00" fill="white">Strideable</text>
</a>
</g>
</g>
<!-- Comparable&#45;&gt;Strideable -->
<g id="edge26" class="edge">
<path fill="none" stroke="#cccccc" d="M642.384,-289.77C641.118,-275.512 637.046,-249.454 623.954,-232 613.902,-218.599 598.699,-208.184 584.683,-200.679"/>
<polygon fill="#cccccc" stroke="#cccccc" points="586.216,-197.533 575.709,-196.166 583.07,-203.786 586.216,-197.533"/>
</g>
<!-- CustomStringConvertible -->
<g id="node3" class="node">
<g id="a_node3"><a xlink:href="/v3.0/protocol/CustomStringConvertible/hierarchy/" target="_top">
<path fill="#999999" stroke="#999999" d="M277.162,-254C277.162,-254 148.746,-254 148.746,-254 145.08,-254 141.413,-250.333 141.413,-246.667 141.413,-246.667 141.413,-239.333 141.413,-239.333 141.413,-235.667 145.08,-232 148.746,-232 148.746,-232 277.162,-232 277.162,-232 280.829,-232 284.495,-235.667 284.495,-239.333 284.495,-239.333 284.495,-246.667 284.495,-246.667 284.495,-250.333 280.829,-254 277.162,-254"/>
<text text-anchor="middle" x="212.954" y="-239.4" font-family="Helvetica,sans-Serif" font-size="12.00" fill="white">CustomStringConvertible</text>
</a>
</g>
</g>
<!-- CustomStringConvertible&#45;&gt;_Integer -->
<g id="edge16" class="edge">
<path fill="none" stroke="#cccccc" d="M242.989,-231.988C271.226,-222.576 313.571,-208.461 343.895,-198.353"/>
<polygon fill="#cccccc" stroke="#cccccc" points="345.3,-201.574 353.68,-195.091 343.087,-194.933 345.3,-201.574"/>
</g>
<!-- Equatable -->
<g id="node4" class="node">
<g id="a_node4"><a xlink:href="/v3.0/protocol/Equatable/hierarchy/" target="_top">
<path fill="#999999" stroke="#999999" d="M440.656,-370C440.656,-370 391.252,-370 391.252,-370 387.586,-370 383.919,-366.333 383.919,-362.667 383.919,-362.667 383.919,-355.333 383.919,-355.333 383.919,-351.667 387.586,-348 391.252,-348 391.252,-348 440.656,-348 440.656,-348 444.323,-348 447.989,-351.667 447.989,-355.333 447.989,-355.333 447.989,-362.667 447.989,-362.667 447.989,-366.333 444.323,-370 440.656,-370"/>
<text text-anchor="middle" x="415.954" y="-355.4" font-family="Helvetica,sans-Serif" font-size="12.00" fill="white">Equatable</text>
</a>
</g>
</g>
<!-- Equatable&#45;&gt;Comparable -->
<g id="edge24" class="edge">
<path fill="none" stroke="#cccccc" d="M447.996,-350.095C486.432,-340.613 551.21,-324.633 595.465,-313.715"/>
<polygon fill="#cccccc" stroke="#cccccc" points="596.54,-317.055 605.411,-311.262 594.864,-310.259 596.54,-317.055"/>
</g>
<!-- Hashable -->
<g id="node6" class="node">
<g id="a_node6"><a xlink:href="/v3.0/protocol/Hashable/hierarchy/" target="_top">
<path fill="#999999" stroke="#999999" d="M177.648,-312C177.648,-312 132.26,-312 132.26,-312 128.593,-312 124.927,-308.333 124.927,-304.667 124.927,-304.667 124.927,-297.333 124.927,-297.333 124.927,-293.667 128.593,-290 132.26,-290 132.26,-290 177.648,-290 177.648,-290 181.315,-290 184.982,-293.667 184.982,-297.333 184.982,-297.333 184.982,-304.667 184.982,-304.667 184.982,-308.333 181.315,-312 177.648,-312"/>
<text text-anchor="middle" x="154.954" y="-297.4" font-family="Helvetica,sans-Serif" font-size="12.00" fill="white">Hashable</text>
</a>
</g>
</g>
<!-- Equatable&#45;&gt;Hashable -->
<g id="edge21" class="edge">
<path fill="none" stroke="#cccccc" d="M383.689,-351.077C335.995,-340.844 246.753,-321.696 194.963,-310.584"/>
<polygon fill="#cccccc" stroke="#cccccc" points="195.639,-307.15 185.128,-308.474 194.171,-313.994 195.639,-307.15"/>
</g>
<!-- _Incrementable -->
<g id="node22" class="node">
<g id="a_node22"><a xlink:href="/v3.0/protocol/_Incrementable/hierarchy/" target="_top">
<path fill="#999999" stroke="#999999" d="M454.659,-312C454.659,-312 377.249,-312 377.249,-312 373.582,-312 369.916,-308.333 369.916,-304.667 369.916,-304.667 369.916,-297.333 369.916,-297.333 369.916,-293.667 373.582,-290 377.249,-290 377.249,-290 454.659,-290 454.659,-290 458.326,-290 461.993,-293.667 461.993,-297.333 461.993,-297.333 461.993,-304.667 461.993,-304.667 461.993,-308.333 458.326,-312 454.659,-312"/>
<text text-anchor="middle" x="415.954" y="-297.4" font-family="Helvetica,sans-Serif" font-size="12.00" fill="white">_Incrementable</text>
</a>
</g>
</g>
<!-- Equatable&#45;&gt;_Incrementable -->
<g id="edge25" class="edge">
<path fill="none" stroke="#cccccc" d="M415.954,-347.988C415.954,-340.91 415.954,-331.171 415.954,-322.478"/>
<polygon fill="#cccccc" stroke="#cccccc" points="419.454,-322.304 415.954,-312.304 412.454,-322.304 419.454,-322.304"/>
</g>
<!-- ExpressibleByIntegerLiteral -->
<g id="node5" class="node">
<g id="a_node5"><a xlink:href="/v3.0/protocol/ExpressibleByIntegerLiteral/hierarchy/" target="_top">
<path fill="#999999" stroke="#999999" d="M451.676,-254C451.676,-254 310.232,-254 310.232,-254 306.565,-254 302.898,-250.333 302.898,-246.667 302.898,-246.667 302.898,-239.333 302.898,-239.333 302.898,-235.667 306.565,-232 310.232,-232 310.232,-232 451.676,-232 451.676,-232 455.343,-232 459.01,-235.667 459.01,-239.333 459.01,-239.333 459.01,-246.667 459.01,-246.667 459.01,-250.333 455.343,-254 451.676,-254"/>
<text text-anchor="middle" x="380.954" y="-239.4" font-family="Helvetica,sans-Serif" font-size="12.00" fill="white">ExpressibleByIntegerLiteral</text>
</a>
</g>
</g>
<!-- ExpressibleByIntegerLiteral&#45;&gt;_Integer -->
<g id="edge15" class="edge">
<path fill="none" stroke="#cccccc" d="M380.954,-231.988C380.954,-224.91 380.954,-215.171 380.954,-206.478"/>
<polygon fill="#cccccc" stroke="#cccccc" points="384.454,-206.304 380.954,-196.304 377.454,-206.304 384.454,-206.304"/>
</g>
<!-- Hashable&#45;&gt;_Integer -->
<g id="edge17" class="edge">
<path fill="none" stroke="#cccccc" d="M124.868,-296.907C72.2371,-290.378 -27.716,-272.339 7.95411,-232 29.989,-207.081 253.605,-192.673 343.667,-187.842"/>
<polygon fill="#cccccc" stroke="#cccccc" points="343.913,-191.334 353.716,-187.314 343.545,-184.344 343.913,-191.334"/>
</g>
<!-- Int -->
<g id="node7" class="node">
<g id="a_node7"><a xlink:href="/v3.0/type/Int/hierarchy/" target="_top">
<polygon fill="#999999" stroke="#999999" points="167.954,-22 113.954,-22 113.954,-0 167.954,-0 167.954,-22"/>
<text text-anchor="middle" x="140.954" y="-7.4" font-family="Helvetica,sans-Serif" font-size="12.00" fill="white">Int</text>
</a>
</g>
</g>
<!-- Int16 -->
<g id="node8" class="node">
<g id="a_node8"><a xlink:href="/v3.0/type/Int16/hierarchy/" target="_top">
<polygon fill="#999999" stroke="#999999" points="239.954,-22 185.954,-22 185.954,-0 239.954,-0 239.954,-22"/>
<text text-anchor="middle" x="212.954" y="-7.4" font-family="Helvetica,sans-Serif" font-size="12.00" fill="white">Int16</text>
</a>
</g>
</g>
<!-- Int32 -->
<g id="node9" class="node">
<g id="a_node9"><a xlink:href="/v3.0/type/Int32/hierarchy/" target="_top">
<polygon fill="#999999" stroke="#999999" points="311.954,-22 257.954,-22 257.954,-0 311.954,-0 311.954,-22"/>
<text text-anchor="middle" x="284.954" y="-7.4" font-family="Helvetica,sans-Serif" font-size="12.00" fill="white">Int32</text>
</a>
</g>
</g>
<!-- Int64 -->
<g id="node10" class="node">
<g id="a_node10"><a xlink:href="/v3.0/type/Int64/hierarchy/" target="_top">
<polygon fill="#999999" stroke="#999999" points="383.954,-22 329.954,-22 329.954,-0 383.954,-0 383.954,-22"/>
<text text-anchor="middle" x="356.954" y="-7.4" font-family="Helvetica,sans-Serif" font-size="12.00" fill="white">Int64</text>
</a>
</g>
</g>
<!-- Int8 -->
<g id="node11" class="node">
<g id="a_node11"><a xlink:href="/v3.0/type/Int8/hierarchy/" target="_top">
<polygon fill="#999999" stroke="#999999" points="455.954,-22 401.954,-22 401.954,-0 455.954,-0 455.954,-22"/>
<text text-anchor="middle" x="428.954" y="-7.4" font-family="Helvetica,sans-Serif" font-size="12.00" fill="white">Int8</text>
</a>
</g>
</g>
<!-- Integer -->
<g id="node12" class="node">
<g id="a_node12"><a xlink:href="/v3.0/protocol/Integer/" target="_top">
<path fill="#ee543d" stroke="#ee543d" d="M484.621,-138C484.621,-138 445.287,-138 445.287,-138 441.621,-138 437.954,-134.333 437.954,-130.667 437.954,-130.667 437.954,-123.333 437.954,-123.333 437.954,-119.667 441.621,-116 445.287,-116 445.287,-116 484.621,-116 484.621,-116 488.287,-116 491.954,-119.667 491.954,-123.333 491.954,-123.333 491.954,-130.667 491.954,-130.667 491.954,-134.333 488.287,-138 484.621,-138"/>
<text text-anchor="middle" x="464.954" y="-123.4" font-family="Helvetica,sans-Serif" font-size="12.00" fill="white">Integer</text>
</a>
</g>
</g>
<!-- SignedInteger -->
<g id="node14" class="node">
<g id="a_node14"><a xlink:href="/v3.0/protocol/SignedInteger/hierarchy/" target="_top">
<path fill="#999999" stroke="#999999" d="M355.665,-80C355.665,-80 286.243,-80 286.243,-80 282.576,-80 278.91,-76.3333 278.91,-72.6667 278.91,-72.6667 278.91,-65.3333 278.91,-65.3333 278.91,-61.6667 282.576,-58 286.243,-58 286.243,-58 355.665,-58 355.665,-58 359.332,-58 362.999,-61.6667 362.999,-65.3333 362.999,-65.3333 362.999,-72.6667 362.999,-72.6667 362.999,-76.3333 359.332,-80 355.665,-80"/>
<text text-anchor="middle" x="320.954" y="-65.4" font-family="Helvetica,sans-Serif" font-size="12.00" fill="white">SignedInteger</text>
</a>
</g>
</g>
<!-- Integer&#45;&gt;SignedInteger -->
<g id="edge1" class="edge">
<path fill="none" stroke="#cccccc" d="M439.21,-115.988C416.112,-107.006 381.999,-93.7398 356.341,-83.7614"/>
<polygon fill="#cccccc" stroke="#cccccc" points="357.55,-80.4763 346.961,-80.1138 355.013,-87.0004 357.55,-80.4763"/>
</g>
<!-- UnsignedInteger -->
<g id="node21" class="node">
<g id="a_node21"><a xlink:href="/v3.0/protocol/UnsignedInteger/hierarchy/" target="_top">
<path fill="#999999" stroke="#999999" d="M650.666,-80C650.666,-80 567.242,-80 567.242,-80 563.575,-80 559.909,-76.3333 559.909,-72.6667 559.909,-72.6667 559.909,-65.3333 559.909,-65.3333 559.909,-61.6667 563.575,-58 567.242,-58 567.242,-58 650.666,-58 650.666,-58 654.333,-58 658,-61.6667 658,-65.3333 658,-65.3333 658,-72.6667 658,-72.6667 658,-76.3333 654.333,-80 650.666,-80"/>
<text text-anchor="middle" x="608.954" y="-65.4" font-family="Helvetica,sans-Serif" font-size="12.00" fill="white">UnsignedInteger</text>
</a>
</g>
</g>
<!-- Integer&#45;&gt;UnsignedInteger -->
<g id="edge2" class="edge">
<path fill="none" stroke="#cccccc" d="M490.698,-115.988C513.797,-107.006 547.909,-93.7398 573.568,-83.7614"/>
<polygon fill="#cccccc" stroke="#cccccc" points="574.896,-87.0004 582.947,-80.1138 572.359,-80.4763 574.896,-87.0004"/>
</g>
<!-- IntegerArithmetic&#45;&gt;_Integer -->
<g id="edge18" class="edge">
<path fill="none" stroke="#cccccc" d="M532.059,-231.988C500.021,-222.238 451.399,-207.44 418.012,-197.279"/>
<polygon fill="#cccccc" stroke="#cccccc" points="418.761,-193.848 408.175,-194.285 416.723,-200.545 418.761,-193.848"/>
</g>
<!-- SignedInteger&#45;&gt;Int -->
<g id="edge3" class="edge">
<path fill="none" stroke="#cccccc" d="M288.774,-57.9883C257.616,-48.2947 210.424,-33.6128 177.781,-23.4573"/>
<polygon fill="#cccccc" stroke="#cccccc" points="178.74,-20.0902 168.152,-20.4615 176.661,-26.7742 178.74,-20.0902"/>
</g>
<!-- SignedInteger&#45;&gt;Int16 -->
<g id="edge4" class="edge">
<path fill="none" stroke="#cccccc" d="M301.646,-57.9883C284.933,-49.3223 260.531,-36.6696 241.552,-26.8283"/>
<polygon fill="#cccccc" stroke="#cccccc" points="242.948,-23.6099 232.459,-22.1138 239.726,-29.8242 242.948,-23.6099"/>
</g>
<!-- SignedInteger&#45;&gt;Int32 -->
<g id="edge5" class="edge">
<path fill="none" stroke="#cccccc" d="M314.518,-57.9883C309.664,-50.4379 302.865,-39.8611 297.01,-30.7543"/>
<polygon fill="#cccccc" stroke="#cccccc" points="299.93,-28.823 291.578,-22.3039 294.042,-32.6083 299.93,-28.823"/>
</g>
<!-- SignedInteger&#45;&gt;Int64 -->
<g id="edge6" class="edge">
<path fill="none" stroke="#cccccc" d="M327.39,-57.9883C332.244,-50.4379 339.043,-39.8611 344.898,-30.7543"/>
<polygon fill="#cccccc" stroke="#cccccc" points="347.867,-32.6083 350.33,-22.3039 341.978,-28.823 347.867,-32.6083"/>
</g>
<!-- SignedInteger&#45;&gt;Int8 -->
<g id="edge7" class="edge">
<path fill="none" stroke="#cccccc" d="M340.262,-57.9883C356.975,-49.3223 381.377,-36.6696 400.357,-26.8283"/>
<polygon fill="#cccccc" stroke="#cccccc" points="402.182,-29.8242 409.449,-22.1138 398.96,-23.6099 402.182,-29.8242"/>
</g>
<!-- Strideable&#45;&gt;Integer -->
<g id="edge14" class="edge">
<path fill="none" stroke="#cccccc" d="M534.758,-173.988C522.024,-165.599 503.621,-153.474 488.906,-143.78"/>
<polygon fill="#cccccc" stroke="#cccccc" points="490.582,-140.693 480.305,-138.114 486.73,-146.538 490.582,-140.693"/>
</g>
<!-- UInt -->
<g id="node16" class="node">
<g id="a_node16"><a xlink:href="/v3.0/type/UInt/hierarchy/" target="_top">
<polygon fill="#999999" stroke="#999999" points="527.954,-22 473.954,-22 473.954,-0 527.954,-0 527.954,-22"/>
<text text-anchor="middle" x="500.954" y="-7.4" font-family="Helvetica,sans-Serif" font-size="12.00" fill="white">UInt</text>
</a>
</g>
</g>
<!-- UInt16 -->
<g id="node17" class="node">
<g id="a_node17"><a xlink:href="/v3.0/type/UInt16/hierarchy/" target="_top">
<polygon fill="#999999" stroke="#999999" points="599.954,-22 545.954,-22 545.954,-0 599.954,-0 599.954,-22"/>
<text text-anchor="middle" x="572.954" y="-7.4" font-family="Helvetica,sans-Serif" font-size="12.00" fill="white">UInt16</text>
</a>
</g>
</g>
<!-- UInt32 -->
<g id="node18" class="node">
<g id="a_node18"><a xlink:href="/v3.0/type/UInt32/hierarchy/" target="_top">
<polygon fill="#999999" stroke="#999999" points="671.954,-22 617.954,-22 617.954,-0 671.954,-0 671.954,-22"/>
<text text-anchor="middle" x="644.954" y="-7.4" font-family="Helvetica,sans-Serif" font-size="12.00" fill="white">UInt32</text>
</a>
</g>
</g>
<!-- UInt64 -->
<g id="node19" class="node">
<g id="a_node19"><a xlink:href="/v3.0/type/UInt64/hierarchy/" target="_top">
<polygon fill="#999999" stroke="#999999" points="743.954,-22 689.954,-22 689.954,-0 743.954,-0 743.954,-22"/>
<text text-anchor="middle" x="716.954" y="-7.4" font-family="Helvetica,sans-Serif" font-size="12.00" fill="white">UInt64</text>
</a>
</g>
</g>
<!-- UInt8 -->
<g id="node20" class="node">
<g id="a_node20"><a xlink:href="/v3.0/type/UInt8/hierarchy/" target="_top">
<polygon fill="#999999" stroke="#999999" points="815.954,-22 761.954,-22 761.954,-0 815.954,-0 815.954,-22"/>
<text text-anchor="middle" x="788.954" y="-7.4" font-family="Helvetica,sans-Serif" font-size="12.00" fill="white">UInt8</text>
</a>
</g>
</g>
<!-- UnsignedInteger&#45;&gt;UInt -->
<g id="edge8" class="edge">
<path fill="none" stroke="#cccccc" d="M589.646,-57.9883C572.933,-49.3223 548.531,-36.6696 529.552,-26.8283"/>
<polygon fill="#cccccc" stroke="#cccccc" points="530.948,-23.6099 520.459,-22.1138 527.726,-29.8242 530.948,-23.6099"/>
</g>
<!-- UnsignedInteger&#45;&gt;UInt16 -->
<g id="edge9" class="edge">
<path fill="none" stroke="#cccccc" d="M602.518,-57.9883C597.664,-50.4379 590.865,-39.8611 585.01,-30.7543"/>
<polygon fill="#cccccc" stroke="#cccccc" points="587.93,-28.823 579.578,-22.3039 582.042,-32.6083 587.93,-28.823"/>
</g>
<!-- UnsignedInteger&#45;&gt;UInt32 -->
<g id="edge10" class="edge">
<path fill="none" stroke="#cccccc" d="M615.39,-57.9883C620.244,-50.4379 627.043,-39.8611 632.898,-30.7543"/>
<polygon fill="#cccccc" stroke="#cccccc" points="635.867,-32.6083 638.33,-22.3039 629.978,-28.823 635.867,-32.6083"/>
</g>
<!-- UnsignedInteger&#45;&gt;UInt64 -->
<g id="edge11" class="edge">
<path fill="none" stroke="#cccccc" d="M628.262,-57.9883C644.975,-49.3223 669.377,-36.6696 688.357,-26.8283"/>
<polygon fill="#cccccc" stroke="#cccccc" points="690.182,-29.8242 697.449,-22.1138 686.96,-23.6099 690.182,-29.8242"/>
</g>
<!-- UnsignedInteger&#45;&gt;UInt8 -->
<g id="edge12" class="edge">
<path fill="none" stroke="#cccccc" d="M641.135,-57.9883C672.293,-48.2947 719.484,-33.6128 752.127,-23.4573"/>
<polygon fill="#cccccc" stroke="#cccccc" points="753.248,-26.7742 761.756,-20.4615 751.168,-20.0902 753.248,-26.7742"/>
</g>
<!-- _Incrementable&#45;&gt;_Integer -->
<g id="edge20" class="edge">
<path fill="none" stroke="#cccccc" d="M433.337,-289.913C453.137,-277.065 481.145,-253.896 467.954,-232 457.043,-213.888 436.349,-202.538 417.881,-195.644"/>
<polygon fill="#cccccc" stroke="#cccccc" points="418.803,-192.261 408.209,-192.345 416.544,-198.886 418.803,-192.261"/>
</g>
<!-- _Integer&#45;&gt;Integer -->
<g id="edge13" class="edge">
<path fill="none" stroke="#cccccc" d="M395.972,-173.988C408.555,-165.599 426.743,-153.474 441.284,-143.78"/>
<polygon fill="#cccccc" stroke="#cccccc" points="443.404,-146.573 449.783,-138.114 439.521,-140.749 443.404,-146.573"/>
</g>
<!-- _IntegerArithmetic -->
<g id="node24" class="node">
<g id="a_node24"><a xlink:href="/v3.0/protocol/_IntegerArithmetic/hierarchy/" target="_top">
<path fill="#999999" stroke="#999999" d="M580.153,-312C580.153,-312 487.755,-312 487.755,-312 484.089,-312 480.422,-308.333 480.422,-304.667 480.422,-304.667 480.422,-297.333 480.422,-297.333 480.422,-293.667 484.089,-290 487.755,-290 487.755,-290 580.153,-290 580.153,-290 583.82,-290 587.486,-293.667 587.486,-297.333 587.486,-297.333 587.486,-304.667 587.486,-304.667 587.486,-308.333 583.82,-312 580.153,-312"/>
<text text-anchor="middle" x="533.954" y="-297.4" font-family="Helvetica,sans-Serif" font-size="12.00" fill="white">_IntegerArithmetic</text>
</a>
</g>
</g>
<!-- _IntegerArithmetic&#45;&gt;IntegerArithmetic -->
<g id="edge22" class="edge">
<path fill="none" stroke="#cccccc" d="M539.496,-289.988C543.589,-282.595 549.288,-272.301 554.256,-263.325"/>
<polygon fill="#cccccc" stroke="#cccccc" points="557.469,-264.748 559.25,-254.304 551.345,-261.358 557.469,-264.748"/>
</g>
</g>
</svg>
