<?xml version="1.0" encoding="UTF-8" standalone="no"?>
<!DOCTYPE svg PUBLIC "-//W3C//DTD SVG 1.1//EN"
 "http://www.w3.org/Graphics/SVG/1.1/DTD/svg11.dtd">
<!-- Generated by graphviz version 2.36.0 (20140111.2315)
 -->
<!-- Title: Comparable &#45; Type Hierarchy &#45; SwiftDoc.org Pages: 1 -->
<svg width="2685pt" height="485pt"
 viewBox="0.00 0.00 2685.40 485.20" xmlns="http://www.w3.org/2000/svg" xmlns:xlink="http://www.w3.org/1999/xlink">
<g id="graph0" class="graph" transform="scale(1 1) rotate(0) translate(7.2 427.6)">
<g transform="translate(0 -427.6)">
<g>
    <path fill="#666666" d="M13.846,10.832c-0.336-0.464-0.792-0.844-1.368-1.14s-1.224-0.444-1.944-0.444
        c-0.384,0-0.772,0.052-1.164,0.156C8.977,9.509,8.622,9.677,8.301,9.908c-0.32,0.232-0.58,0.52-0.78,0.864
        c-0.2,0.344-0.3,0.756-0.3,1.236c0,0.464,0.092,0.852,0.276,1.164c0.184,0.312,0.432,0.576,0.744,0.792s0.68,0.4,1.104,0.552
        c0.423,0.152,0.876,0.309,1.356,0.468c0.576,0.177,1.16,0.376,1.752,0.601c0.592,0.224,1.128,0.52,1.608,0.888
        s0.872,0.828,1.176,1.38s0.456,1.252,0.456,2.101c0,0.88-0.164,1.644-0.492,2.292c-0.328,0.647-0.765,1.184-1.308,1.607
        c-0.544,0.424-1.172,0.74-1.884,0.948s-1.444,0.312-2.196,0.312c-1.072,0-2.108-0.208-3.108-0.624
        c-1-0.415-1.828-1.031-2.484-1.848l1.848-1.56c0.4,0.592,0.936,1.071,1.608,1.439c0.672,0.368,1.399,0.552,2.184,0.552
        c0.4,0,0.8-0.056,1.2-0.168c0.4-0.111,0.764-0.288,1.092-0.527c0.328-0.24,0.596-0.54,0.804-0.9
        c0.208-0.36,0.312-0.796,0.312-1.308s-0.108-0.94-0.324-1.284c-0.216-0.344-0.508-0.636-0.876-0.876s-0.796-0.444-1.284-0.612
        c-0.488-0.168-1.004-0.34-1.548-0.516c-0.544-0.16-1.08-0.356-1.608-0.588c-0.528-0.232-1-0.528-1.416-0.889
        c-0.416-0.359-0.752-0.804-1.008-1.332c-0.256-0.527-0.384-1.184-0.384-1.968c0-0.848,0.172-1.576,0.516-2.184
        c0.344-0.608,0.792-1.112,1.344-1.512c0.552-0.4,1.176-0.692,1.872-0.876c0.696-0.184,1.396-0.276,2.1-0.276
        c0.992,0,1.92,0.176,2.784,0.528c0.864,0.352,1.56,0.824,2.088,1.416L13.846,10.832z"/>
    <path fill="#666666" d="M18.813,13.304l2.568,8.688h0.048l2.712-8.688h2.376l2.76,8.688h0.048l2.568-8.688h2.376L30.501,24.68
        h-2.352l-2.808-8.544h-0.048l-2.784,8.544h-2.352l-3.792-11.376H18.813z"/>
    <path fill="#666666" d="M38.685,9.2c0,0.416-0.147,0.76-0.44,1.032c-0.294,0.272-0.647,0.408-1.06,0.408s-0.762-0.14-1.047-0.42
        c-0.286-0.28-0.429-0.62-0.429-1.02c0-0.416,0.143-0.764,0.429-1.044c0.286-0.28,0.635-0.42,1.047-0.42s0.766,0.14,1.06,0.42
        C38.538,8.437,38.685,8.784,38.685,9.2z M38.325,24.68h-2.256V13.304h2.256V24.68z"/>
    <path fill="#666666" d="M47.613,15.152h-2.64v9.528h-2.256v-9.528h-2.256v-1.848h2.256v-2.376c0-0.672,0.076-1.292,0.228-1.86
        c0.152-0.568,0.4-1.06,0.744-1.476c0.344-0.416,0.784-0.744,1.32-0.984c0.536-0.24,1.188-0.36,1.956-0.36
        c0.544,0,1.016,0.056,1.416,0.168l-0.264,1.944c-0.176-0.048-0.352-0.088-0.528-0.12c-0.176-0.032-0.376-0.048-0.6-0.048
        c-0.432,0-0.78,0.076-1.044,0.228c-0.264,0.152-0.468,0.356-0.612,0.612s-0.24,0.548-0.288,0.876
        c-0.048,0.328-0.072,0.668-0.072,1.02v2.376h2.64V15.152z"/>
    <path fill="#666666" d="M54.909,15.152h-3.024v5.91c0,0.687,0.128,1.177,0.384,1.472c0.256,0.295,0.664,0.442,1.224,0.442
        c0.208,0,0.432-0.021,0.672-0.065c0.24-0.044,0.456-0.11,0.648-0.198l0.072,1.848c-0.272,0.096-0.572,0.172-0.9,0.229
        c-0.328,0.056-0.668,0.084-1.02,0.084c-1.072,0-1.892-0.296-2.46-0.889c-0.568-0.592-0.852-1.479-0.852-2.664v-6.168h-2.184
        v-1.848h2.184V10.04h2.232v3.264h3.024V15.152z"/>
    <path fill="#666666" d="M57.356,7.688h5.832c1.088,0,2.176,0.16,3.264,0.48c1.088,0.32,2.072,0.824,2.952,1.512
        s1.592,1.568,2.136,2.64c0.544,1.072,0.816,2.36,0.816,3.864c0,1.456-0.272,2.716-0.816,3.78s-1.256,1.943-2.136,2.64
        s-1.864,1.216-2.952,1.561c-1.088,0.344-2.176,0.516-3.264,0.516h-5.832V7.688z M59.732,22.593h2.976
        c1.024,0,1.972-0.145,2.844-0.432c0.872-0.288,1.624-0.704,2.256-1.248c0.632-0.544,1.124-1.216,1.476-2.017
        c0.352-0.8,0.528-1.704,0.528-2.712c0-1.056-0.176-1.983-0.528-2.784c-0.353-0.8-0.844-1.468-1.476-2.004
        c-0.632-0.536-1.384-0.944-2.256-1.224s-1.82-0.42-2.844-0.42h-2.976V22.593z"/>
    <path fill="#666666" d="M86.06,18.969c0,0.88-0.156,1.688-0.468,2.424c-0.312,0.736-0.744,1.372-1.296,1.908
        c-0.552,0.536-1.204,0.952-1.956,1.248c-0.752,0.296-1.56,0.443-2.424,0.443c-0.864,0-1.672-0.147-2.424-0.443
        c-0.752-0.296-1.4-0.712-1.944-1.248c-0.544-0.536-0.972-1.172-1.284-1.908c-0.312-0.735-0.468-1.544-0.468-2.424
        s0.156-1.684,0.468-2.412c0.312-0.728,0.74-1.356,1.284-1.884c0.543-0.528,1.191-0.939,1.944-1.236
        c0.752-0.296,1.56-0.444,2.424-0.444c0.864,0,1.672,0.148,2.424,0.444c0.752,0.297,1.404,0.708,1.956,1.236
        c0.552,0.527,0.984,1.156,1.296,1.884C85.904,17.285,86.06,18.089,86.06,18.969z M83.708,18.98c0-0.542-0.084-1.061-0.252-1.556
        c-0.169-0.494-0.414-0.929-0.734-1.304s-0.718-0.674-1.192-0.897s-1.015-0.335-1.625-0.335c-0.61,0-1.152,0.111-1.625,0.335
        c-0.474,0.224-0.871,0.522-1.191,0.897c-0.321,0.375-0.566,0.81-0.734,1.304C76.184,17.92,76.1,18.438,76.1,18.98
        c0,0.543,0.084,1.062,0.253,1.556c0.168,0.495,0.413,0.934,0.734,1.316c0.321,0.383,0.718,0.686,1.191,0.909
        c0.473,0.224,1.015,0.335,1.625,0.335c0.61,0,1.151-0.111,1.625-0.335s0.871-0.526,1.192-0.909s0.565-0.821,0.734-1.316
        C83.624,20.042,83.708,19.523,83.708,18.98z"/>
    <path fill="#666666" d="M96.428,16.184c-0.24-0.368-0.6-0.676-1.08-0.924s-0.992-0.372-1.536-0.372
        c-0.592,0-1.116,0.112-1.572,0.336c-0.456,0.225-0.844,0.524-1.164,0.9c-0.32,0.376-0.564,0.812-0.732,1.308
        s-0.252,1.017-0.252,1.56c0,0.545,0.084,1.064,0.252,1.561s0.412,0.933,0.732,1.308c0.32,0.376,0.712,0.677,1.176,0.9
        c0.464,0.225,0.992,0.336,1.584,0.336c0.576,0,1.1-0.111,1.572-0.336c0.472-0.224,0.86-0.528,1.164-0.912l1.512,1.368
        c-0.48,0.561-1.08,0.996-1.8,1.308c-0.72,0.312-1.536,0.468-2.448,0.468c-0.88,0-1.692-0.144-2.436-0.432
        c-0.744-0.288-1.388-0.691-1.932-1.212c-0.544-0.52-0.972-1.147-1.284-1.884s-0.468-1.561-0.468-2.473
        c0-0.896,0.152-1.711,0.456-2.447c0.304-0.736,0.728-1.368,1.272-1.896c0.543-0.527,1.188-0.936,1.932-1.224
        c0.744-0.288,1.548-0.433,2.412-0.433c0.8,0,1.596,0.16,2.388,0.48s1.419,0.784,1.884,1.392L96.428,16.184z"/>
    <path fill="#666666" d="M103.1,23.24c0,0.417-0.152,0.784-0.456,1.104c-0.304,0.32-0.688,0.479-1.152,0.479
        c-0.448,0-0.828-0.155-1.14-0.468c-0.312-0.312-0.468-0.676-0.468-1.092c0-0.432,0.152-0.804,0.456-1.116
        c0.304-0.312,0.688-0.468,1.152-0.468c0.464,0,0.848,0.152,1.152,0.456C102.947,22.44,103.1,22.808,103.1,23.24z"/>
    <path fill="#666666" d="M116.635,18.969c0,0.88-0.156,1.688-0.468,2.424c-0.312,0.736-0.744,1.372-1.296,1.908
        c-0.552,0.536-1.204,0.952-1.956,1.248c-0.752,0.296-1.56,0.443-2.424,0.443c-0.864,0-1.672-0.147-2.424-0.443
        c-0.752-0.296-1.4-0.712-1.944-1.248c-0.544-0.536-0.972-1.172-1.284-1.908c-0.312-0.735-0.468-1.544-0.468-2.424
        s0.156-1.684,0.468-2.412c0.312-0.728,0.74-1.356,1.284-1.884c0.543-0.528,1.191-0.939,1.944-1.236
        c0.752-0.296,1.56-0.444,2.424-0.444c0.864,0,1.672,0.148,2.424,0.444c0.752,0.297,1.404,0.708,1.956,1.236
        c0.552,0.527,0.984,1.156,1.296,1.884C116.479,17.285,116.635,18.089,116.635,18.969z M114.283,18.98
        c0-0.542-0.084-1.061-0.252-1.556c-0.169-0.494-0.414-0.929-0.734-1.304s-0.718-0.674-1.192-0.897s-1.015-0.335-1.625-0.335
        c-0.61,0-1.152,0.111-1.625,0.335c-0.474,0.224-0.871,0.522-1.191,0.897c-0.321,0.375-0.566,0.81-0.734,1.304
        c-0.169,0.495-0.253,1.014-0.253,1.556c0,0.543,0.084,1.062,0.253,1.556c0.168,0.495,0.413,0.934,0.734,1.316
        c0.321,0.383,0.718,0.686,1.191,0.909c0.473,0.224,1.015,0.335,1.625,0.335c0.61,0,1.151-0.111,1.625-0.335
        s0.871-0.526,1.192-0.909s0.565-0.821,0.734-1.316C114.199,20.042,114.283,19.523,114.283,18.98z"/>
    <path fill="#666666" d="M119.251,14.577c-0.016-0.48-0.04-0.904-0.072-1.272h2.136c0.032,0.288,0.056,0.62,0.072,0.996
        c0.016,0.376,0.024,0.684,0.024,0.924h0.072c0.32-0.672,0.788-1.212,1.404-1.62c0.616-0.408,1.308-0.612,2.076-0.612
        c0.352,0,0.648,0.033,0.888,0.097l-0.096,2.088c-0.32-0.08-0.664-0.12-1.032-0.12c-0.544,0-1.016,0.101-1.416,0.3
        c-0.4,0.2-0.732,0.468-0.996,0.805c-0.264,0.336-0.46,0.724-0.588,1.163c-0.128,0.44-0.192,0.9-0.192,1.381v5.976h-2.256v-8.928
        C119.275,15.449,119.267,15.056,119.251,14.577z"/>
    <path fill="#666666" d="M128.419,26.625c0.496,0.56,1.116,1.008,1.86,1.344c0.744,0.336,1.508,0.504,2.292,0.504
        c0.752,0,1.384-0.108,1.896-0.324s0.924-0.512,1.236-0.888s0.536-0.82,0.672-1.332c0.136-0.513,0.204-1.064,0.204-1.656v-1.464
        h-0.048c-0.416,0.641-0.984,1.128-1.704,1.464c-0.72,0.336-1.488,0.504-2.304,0.504c-0.864,0-1.652-0.151-2.364-0.456
        c-0.712-0.304-1.316-0.72-1.812-1.248c-0.496-0.527-0.88-1.147-1.152-1.859s-0.408-1.477-0.408-2.292
        c0-0.816,0.136-1.584,0.408-2.305c0.272-0.72,0.656-1.348,1.152-1.884c0.496-0.535,1.096-0.96,1.8-1.271
        c0.704-0.312,1.488-0.469,2.352-0.469c0.816,0,1.596,0.177,2.34,0.528c0.744,0.353,1.332,0.888,1.764,1.608h0.048v-1.824h2.184
        v10.8c0,0.832-0.104,1.628-0.312,2.388c-0.208,0.76-0.56,1.433-1.056,2.017s-1.144,1.052-1.944,1.404
        c-0.8,0.352-1.792,0.527-2.976,0.527c-0.992,0-1.988-0.18-2.988-0.54c-1-0.359-1.86-0.868-2.58-1.523L128.419,26.625z
         M129.091,18.873c0,0.527,0.084,1.031,0.253,1.512c0.168,0.479,0.417,0.904,0.746,1.271c0.329,0.369,0.726,0.664,1.192,0.889
        c0.465,0.224,0.995,0.336,1.589,0.336c0.577,0,1.107-0.104,1.589-0.312c0.481-0.207,0.891-0.491,1.228-0.852
        s0.598-0.784,0.782-1.272c0.185-0.487,0.277-1.012,0.277-1.571c0-0.544-0.093-1.057-0.277-1.536
        c-0.185-0.48-0.449-0.904-0.794-1.272c-0.345-0.367-0.755-0.66-1.228-0.876c-0.474-0.216-1-0.324-1.577-0.324
        c-0.594,0-1.124,0.108-1.589,0.324c-0.466,0.216-0.863,0.504-1.192,0.864s-0.578,0.784-0.746,1.271
        C129.175,17.812,129.091,18.329,129.091,18.873z"/>
</g>
<g><a xlink:href="/" pointer-events="all" target="_top"><polygon fill="none" points="0,0 145,0 145,35 0,35 0,0"/></a></g>

</g>


<!-- AbsoluteValuable -->
<g id="node1" class="node">
<g id="a_node1"><a xlink:href="/v2.1/protocol/AbsoluteValuable/hierarchy/" target="_top">
<path fill="#999999" stroke="#999999" d="M815.558,-138C815.558,-138 728.442,-138 728.442,-138 724.775,-138 721.109,-134.333 721.109,-130.667 721.109,-130.667 721.109,-123.333 721.109,-123.333 721.109,-119.667 724.775,-116 728.442,-116 728.442,-116 815.558,-116 815.558,-116 819.225,-116 822.891,-119.667 822.891,-123.333 822.891,-123.333 822.891,-130.667 822.891,-130.667 822.891,-134.333 819.225,-138 815.558,-138"/>
<text text-anchor="middle" x="772" y="-123.4" font-family="Helvetica,sans-Serif" font-size="12.00" fill="white">AbsoluteValuable</text>
</a>
</g>
</g>
<!-- Double -->
<g id="node7" class="node">
<g id="a_node7"><a xlink:href="/v2.1/type/Double/hierarchy/" target="_top">
<polygon fill="#999999" stroke="#999999" points="724,-22 670,-22 670,-0 724,-0 724,-22"/>
<text text-anchor="middle" x="697" y="-7.4" font-family="Helvetica,sans-Serif" font-size="12.00" fill="white">Double</text>
</a>
</g>
</g>
<!-- AbsoluteValuable&#45;&gt;Double -->
<g id="edge34" class="edge">
<path fill="none" stroke="#cccccc" d="M765.344,-115.883C752.756,-96.7488 725.288,-54.9984 709.272,-30.6529"/>
<polygon fill="#cccccc" stroke="#cccccc" points="712.169,-28.6885 703.749,-22.2579 706.321,-32.5358 712.169,-28.6885"/>
</g>
<!-- Float -->
<g id="node9" class="node">
<g id="a_node9"><a xlink:href="/v2.1/type/Float/hierarchy/" target="_top">
<polygon fill="#999999" stroke="#999999" points="652,-22 598,-22 598,-0 652,-0 652,-22"/>
<text text-anchor="middle" x="625" y="-7.4" font-family="Helvetica,sans-Serif" font-size="12.00" fill="white">Float</text>
</a>
</g>
</g>
<!-- AbsoluteValuable&#45;&gt;Float -->
<g id="edge35" class="edge">
<path fill="none" stroke="#cccccc" d="M758.955,-115.883C733.52,-96.1587 677.097,-52.4019 646.214,-28.4515"/>
<polygon fill="#cccccc" stroke="#cccccc" points="648.274,-25.6204 638.227,-22.2579 643.985,-31.152 648.274,-25.6204"/>
</g>
<!-- Float80 -->
<g id="node10" class="node">
<g id="a_node10"><a xlink:href="/v2.1/type/Float80/hierarchy/" target="_top">
<polygon fill="#999999" stroke="#999999" points="796,-22 742,-22 742,-0 796,-0 796,-22"/>
<text text-anchor="middle" x="769" y="-7.4" font-family="Helvetica,sans-Serif" font-size="12.00" fill="white">Float80</text>
</a>
</g>
</g>
<!-- AbsoluteValuable&#45;&gt;Float80 -->
<g id="edge36" class="edge">
<path fill="none" stroke="#cccccc" d="M771.734,-115.883C771.241,-97.1703 770.18,-56.8266 769.534,-32.2866"/>
<polygon fill="#cccccc" stroke="#cccccc" points="773.032,-32.1624 769.27,-22.2579 766.034,-32.3466 773.032,-32.1624"/>
</g>
<!-- AnyRandomAccessIndex -->
<g id="node2" class="node">
<g id="a_node2"><a xlink:href="/v2.1/type/AnyRandomAccessIndex/hierarchy/" target="_top">
<polygon fill="#999999" stroke="#999999" points="290.051,-22 145.949,-22 145.949,-0 290.051,-0 290.051,-22"/>
<text text-anchor="middle" x="218" y="-7.4" font-family="Helvetica,sans-Serif" font-size="12.00" fill="white">AnyRandomAccessIndex</text>
</a>
</g>
</g>
<!-- Bit -->
<g id="node3" class="node">
<g id="a_node3"><a xlink:href="/v2.1/type/Bit/hierarchy/" target="_top">
<polygon fill="#999999" stroke="#999999" points="868,-22 814,-22 814,-0 868,-0 868,-22"/>
<text text-anchor="middle" x="841" y="-7.4" font-family="Helvetica,sans-Serif" font-size="12.00" fill="white">Bit</text>
</a>
</g>
</g>
<!-- Character -->
<g id="node4" class="node">
<g id="a_node4"><a xlink:href="/v2.1/type/Character/hierarchy/" target="_top">
<polygon fill="#999999" stroke="#999999" points="1668.02,-22 1605.98,-22 1605.98,-0 1668.02,-0 1668.02,-22"/>
<text text-anchor="middle" x="1637" y="-7.4" font-family="Helvetica,sans-Serif" font-size="12.00" fill="white">Character</text>
</a>
</g>
</g>
<!-- Comparable -->
<g id="node5" class="node">
<g id="a_node5"><a xlink:href="/v2.1/protocol/Comparable/" target="_top">
<path fill="#ee543d" stroke="#ee543d" d="M1919.19,-312C1919.19,-312 1858.81,-312 1858.81,-312 1855.14,-312 1851.48,-308.333 1851.48,-304.667 1851.48,-304.667 1851.48,-297.333 1851.48,-297.333 1851.48,-293.667 1855.14,-290 1858.81,-290 1858.81,-290 1919.19,-290 1919.19,-290 1922.86,-290 1926.52,-293.667 1926.52,-297.333 1926.52,-297.333 1926.52,-304.667 1926.52,-304.667 1926.52,-308.333 1922.86,-312 1919.19,-312"/>
<text text-anchor="middle" x="1889" y="-297.4" font-family="Helvetica,sans-Serif" font-size="12.00" fill="white">Comparable</text>
</a>
</g>
</g>
<!-- Comparable&#45;&gt;Character -->
<g id="edge1" class="edge">
<path fill="none" stroke="#cccccc" d="M1851.55,-299.559C1781.35,-296.545 1637,-279.036 1637,-186 1637,-186 1637,-186 1637,-126 1637,-93.1536 1637,-54.9837 1637,-32.197"/>
<polygon fill="#cccccc" stroke="#cccccc" points="1640.5,-32.0648 1637,-22.0648 1633.5,-32.0648 1640.5,-32.0648"/>
</g>
<!-- DictionaryIndex -->
<g id="node6" class="node">
<g id="a_node6"><a xlink:href="/v2.1/type/DictionaryIndex/hierarchy/" target="_top">
<polygon fill="#999999" stroke="#999999" points="1779.03,-22 1686.97,-22 1686.97,-0 1779.03,-0 1779.03,-22"/>
<text text-anchor="middle" x="1733" y="-7.4" font-family="Helvetica,sans-Serif" font-size="12.00" fill="white">DictionaryIndex</text>
</a>
</g>
</g>
<!-- Comparable&#45;&gt;DictionaryIndex -->
<g id="edge2" class="edge">
<path fill="none" stroke="#cccccc" d="M1851.63,-290.492C1805.48,-276.238 1733,-244.535 1733,-186 1733,-186 1733,-186 1733,-126 1733,-93.1536 1733,-54.9837 1733,-32.197"/>
<polygon fill="#cccccc" stroke="#cccccc" points="1736.5,-32.0648 1733,-22.0648 1729.5,-32.0648 1736.5,-32.0648"/>
</g>
<!-- IntegerArithmeticType -->
<g id="node17" class="node">
<g id="a_node17"><a xlink:href="/v2.1/protocol/IntegerArithmeticType/hierarchy/" target="_top">
<path fill="#999999" stroke="#999999" d="M1227.71,-254C1227.71,-254 1116.29,-254 1116.29,-254 1112.62,-254 1108.96,-250.333 1108.96,-246.667 1108.96,-246.667 1108.96,-239.333 1108.96,-239.333 1108.96,-235.667 1112.62,-232 1116.29,-232 1116.29,-232 1227.71,-232 1227.71,-232 1231.38,-232 1235.04,-235.667 1235.04,-239.333 1235.04,-239.333 1235.04,-246.667 1235.04,-246.667 1235.04,-250.333 1231.38,-254 1227.71,-254"/>
<text text-anchor="middle" x="1172" y="-239.4" font-family="Helvetica,sans-Serif" font-size="12.00" fill="white">IntegerArithmeticType</text>
</a>
</g>
</g>
<!-- Comparable&#45;&gt;IntegerArithmeticType -->
<g id="edge3" class="edge">
<path fill="none" stroke="#cccccc" d="M1851.46,-297.068C1737.88,-288.197 1396.44,-261.529 1245.32,-249.727"/>
<polygon fill="#cccccc" stroke="#cccccc" points="1245.46,-246.227 1235.21,-248.937 1244.91,-253.205 1245.46,-246.227"/>
</g>
<!-- ObjectIdentifier -->
<g id="node19" class="node">
<g id="a_node19"><a xlink:href="/v2.1/type/ObjectIdentifier/hierarchy/" target="_top">
<polygon fill="#999999" stroke="#999999" points="1888.03,-22 1797.97,-22 1797.97,-0 1888.03,-0 1888.03,-22"/>
<text text-anchor="middle" x="1843" y="-7.4" font-family="Helvetica,sans-Serif" font-size="12.00" fill="white">ObjectIdentifier</text>
</a>
</g>
</g>
<!-- Comparable&#45;&gt;ObjectIdentifier -->
<g id="edge4" class="edge">
<path fill="none" stroke="#cccccc" d="M1881.81,-289.871C1868.88,-270.613 1843,-226.977 1843,-186 1843,-186 1843,-186 1843,-126 1843,-93.1536 1843,-54.9837 1843,-32.197"/>
<polygon fill="#cccccc" stroke="#cccccc" points="1846.5,-32.0648 1843,-22.0648 1839.5,-32.0648 1846.5,-32.0648"/>
</g>
<!-- SetIndex -->
<g id="node22" class="node">
<g id="a_node22"><a xlink:href="/v2.1/type/SetIndex/hierarchy/" target="_top">
<polygon fill="#999999" stroke="#999999" points="1963.52,-22 1906.48,-22 1906.48,-0 1963.52,-0 1963.52,-22"/>
<text text-anchor="middle" x="1935" y="-7.4" font-family="Helvetica,sans-Serif" font-size="12.00" fill="white">SetIndex</text>
</a>
</g>
</g>
<!-- Comparable&#45;&gt;SetIndex -->
<g id="edge5" class="edge">
<path fill="none" stroke="#cccccc" d="M1896.19,-289.871C1909.12,-270.613 1935,-226.977 1935,-186 1935,-186 1935,-186 1935,-126 1935,-93.1536 1935,-54.9837 1935,-32.197"/>
<polygon fill="#cccccc" stroke="#cccccc" points="1938.5,-32.0648 1935,-22.0648 1931.5,-32.0648 1938.5,-32.0648"/>
</g>
<!-- SignedNumberType -->
<g id="node24" class="node">
<g id="a_node24"><a xlink:href="/v2.1/protocol/SignedNumberType/hierarchy/" target="_top">
<path fill="#999999" stroke="#999999" d="M949.716,-196C949.716,-196 848.284,-196 848.284,-196 844.617,-196 840.95,-192.333 840.95,-188.667 840.95,-188.667 840.95,-181.333 840.95,-181.333 840.95,-177.667 844.617,-174 848.284,-174 848.284,-174 949.716,-174 949.716,-174 953.383,-174 957.05,-177.667 957.05,-181.333 957.05,-181.333 957.05,-188.667 957.05,-188.667 957.05,-192.333 953.383,-196 949.716,-196"/>
<text text-anchor="middle" x="899" y="-181.4" font-family="Helvetica,sans-Serif" font-size="12.00" fill="white">SignedNumberType</text>
</a>
</g>
</g>
<!-- Comparable&#45;&gt;SignedNumberType -->
<g id="edge6" class="edge">
<path fill="none" stroke="#cccccc" d="M1851.24,-299.138C1714.66,-295.81 1246.64,-282.54 1100,-254 1038.66,-242.062 970.364,-216.09 931.257,-199.923"/>
<polygon fill="#cccccc" stroke="#cccccc" points="932.542,-196.666 921.966,-196.038 929.842,-203.125 932.542,-196.666"/>
</g>
<!-- Strideable -->
<g id="node25" class="node">
<g id="a_node25"><a xlink:href="/v2.1/protocol/Strideable/hierarchy/" target="_top">
<path fill="#999999" stroke="#999999" d="M684.693,-254C684.693,-254 635.307,-254 635.307,-254 631.64,-254 627.974,-250.333 627.974,-246.667 627.974,-246.667 627.974,-239.333 627.974,-239.333 627.974,-235.667 631.64,-232 635.307,-232 635.307,-232 684.693,-232 684.693,-232 688.36,-232 692.026,-235.667 692.026,-239.333 692.026,-239.333 692.026,-246.667 692.026,-246.667 692.026,-250.333 688.36,-254 684.693,-254"/>
<text text-anchor="middle" x="660" y="-239.4" font-family="Helvetica,sans-Serif" font-size="12.00" fill="white">Strideable</text>
</a>
</g>
</g>
<!-- Comparable&#45;&gt;Strideable -->
<g id="edge7" class="edge">
<path fill="none" stroke="#cccccc" d="M1851.55,-298.293C1671.21,-290.076 893.258,-254.629 702.399,-245.932"/>
<polygon fill="#cccccc" stroke="#cccccc" points="702.361,-242.427 692.212,-245.468 702.042,-249.419 702.361,-242.427"/>
</g>
<!-- String -->
<g id="node26" class="node">
<g id="a_node26"><a xlink:href="/v2.1/type/String/hierarchy/" target="_top">
<polygon fill="#999999" stroke="#999999" points="2036,-22 1982,-22 1982,-0 2036,-0 2036,-22"/>
<text text-anchor="middle" x="2009" y="-7.4" font-family="Helvetica,sans-Serif" font-size="12.00" fill="white">String</text>
</a>
</g>
</g>
<!-- Comparable&#45;&gt;String -->
<g id="edge8" class="edge">
<path fill="none" stroke="#cccccc" d="M1913.57,-289.906C1948.68,-273.659 2009,-238.155 2009,-186 2009,-186 2009,-186 2009,-126 2009,-93.1536 2009,-54.9837 2009,-32.197"/>
<polygon fill="#cccccc" stroke="#cccccc" points="2012.5,-32.0648 2009,-22.0648 2005.5,-32.0648 2012.5,-32.0648"/>
</g>
<!-- String.CharacterView.Index -->
<g id="node27" class="node">
<g id="a_node27"><a xlink:href="/v2.1/type/String.CharacterView.Index/hierarchy/" target="_top">
<polygon fill="#999999" stroke="#999999" points="2209.4,-22 2054.6,-22 2054.6,-0 2209.4,-0 2209.4,-22"/>
<text text-anchor="middle" x="2132" y="-7.4" font-family="Helvetica,sans-Serif" font-size="12.00" fill="white">String.CharacterView.Index</text>
</a>
</g>
</g>
<!-- Comparable&#45;&gt;String.CharacterView.Index -->
<g id="edge10" class="edge">
<path fill="none" stroke="#cccccc" d="M1926.44,-298.995C1994.6,-294.961 2132,-275.704 2132,-186 2132,-186 2132,-186 2132,-126 2132,-93.1536 2132,-54.9837 2132,-32.197"/>
<polygon fill="#cccccc" stroke="#cccccc" points="2135.5,-32.0648 2132,-22.0648 2128.5,-32.0648 2135.5,-32.0648"/>
</g>
<!-- String.UTF16View.Index -->
<g id="node28" class="node">
<g id="a_node28"><a xlink:href="/v2.1/type/String.UTF16View.Index/hierarchy/" target="_top">
<polygon fill="#999999" stroke="#999999" points="2366.39,-22 2227.61,-22 2227.61,-0 2366.39,-0 2366.39,-22"/>
<text text-anchor="middle" x="2297" y="-7.4" font-family="Helvetica,sans-Serif" font-size="12.00" fill="white">String.UTF16View.Index</text>
</a>
</g>
</g>
<!-- Comparable&#45;&gt;String.UTF16View.Index -->
<g id="edge12" class="edge">
<path fill="none" stroke="#cccccc" d="M1926.65,-297.547C2027.66,-289.941 2297,-262.488 2297,-186 2297,-186 2297,-186 2297,-126 2297,-93.1536 2297,-54.9837 2297,-32.197"/>
<polygon fill="#cccccc" stroke="#cccccc" points="2300.5,-32.0648 2297,-22.0648 2293.5,-32.0648 2300.5,-32.0648"/>
</g>
<!-- String.UnicodeScalarView.Index -->
<g id="node29" class="node">
<g id="a_node29"><a xlink:href="/v2.1/type/String.UnicodeScalarView.Index/hierarchy/" target="_top">
<polygon fill="#999999" stroke="#999999" points="2564.92,-22 2385.08,-22 2385.08,-0 2564.92,-0 2564.92,-22"/>
<text text-anchor="middle" x="2475" y="-7.4" font-family="Helvetica,sans-Serif" font-size="12.00" fill="white">String.UnicodeScalarView.Index</text>
</a>
</g>
</g>
<!-- Comparable&#45;&gt;String.UnicodeScalarView.Index -->
<g id="edge11" class="edge">
<path fill="none" stroke="#cccccc" d="M1926.55,-300.709C2055.88,-302.157 2475,-298.194 2475,-186 2475,-186 2475,-186 2475,-126 2475,-93.1536 2475,-54.9837 2475,-32.197"/>
<polygon fill="#cccccc" stroke="#cccccc" points="2478.5,-32.0648 2475,-22.0648 2471.5,-32.0648 2478.5,-32.0648"/>
</g>
<!-- UnicodeScalar -->
<g id="node35" class="node">
<g id="a_node35"><a xlink:href="/v2.1/type/UnicodeScalar/hierarchy/" target="_top">
<polygon fill="#999999" stroke="#999999" points="2671.03,-22 2582.97,-22 2582.97,-0 2671.03,-0 2671.03,-22"/>
<text text-anchor="middle" x="2627" y="-7.4" font-family="Helvetica,sans-Serif" font-size="12.00" fill="white">UnicodeScalar</text>
</a>
</g>
</g>
<!-- Comparable&#45;&gt;UnicodeScalar -->
<g id="edge9" class="edge">
<path fill="none" stroke="#cccccc" d="M1926.37,-300.184C2015.72,-299.909 2248.3,-294.954 2437,-254 2524.65,-234.977 2627,-275.69 2627,-186 2627,-186 2627,-186 2627,-126 2627,-93.1536 2627,-54.9837 2627,-32.197"/>
<polygon fill="#cccccc" stroke="#cccccc" points="2630.5,-32.0648 2627,-22.0648 2623.5,-32.0648 2630.5,-32.0648"/>
</g>
<!-- Equatable -->
<g id="node8" class="node">
<g id="a_node8"><a xlink:href="/v2.1/protocol/Equatable/hierarchy/" target="_top">
<path fill="#999999" stroke="#999999" d="M1913.7,-370C1913.7,-370 1864.3,-370 1864.3,-370 1860.63,-370 1856.96,-366.333 1856.96,-362.667 1856.96,-362.667 1856.96,-355.333 1856.96,-355.333 1856.96,-351.667 1860.63,-348 1864.3,-348 1864.3,-348 1913.7,-348 1913.7,-348 1917.37,-348 1921.04,-351.667 1921.04,-355.333 1921.04,-355.333 1921.04,-362.667 1921.04,-362.667 1921.04,-366.333 1917.37,-370 1913.7,-370"/>
<text text-anchor="middle" x="1889" y="-355.4" font-family="Helvetica,sans-Serif" font-size="12.00" fill="white">Equatable</text>
</a>
</g>
</g>
<!-- Equatable&#45;&gt;Comparable -->
<g id="edge48" class="edge">
<path fill="none" stroke="#cccccc" d="M1889,-347.988C1889,-340.91 1889,-331.171 1889,-322.478"/>
<polygon fill="#cccccc" stroke="#cccccc" points="1892.5,-322.304 1889,-312.304 1885.5,-322.304 1892.5,-322.304"/>
</g>
<!-- FloatingPointType -->
<g id="node11" class="node">
<g id="a_node11"><a xlink:href="/v2.1/protocol/FloatingPointType/hierarchy/" target="_top">
<path fill="#999999" stroke="#999999" d="M622.715,-80C622.715,-80 531.285,-80 531.285,-80 527.618,-80 523.952,-76.3333 523.952,-72.6667 523.952,-72.6667 523.952,-65.3333 523.952,-65.3333 523.952,-61.6667 527.618,-58 531.285,-58 531.285,-58 622.715,-58 622.715,-58 626.382,-58 630.048,-61.6667 630.048,-65.3333 630.048,-65.3333 630.048,-72.6667 630.048,-72.6667 630.048,-76.3333 626.382,-80 622.715,-80"/>
<text text-anchor="middle" x="577" y="-65.4" font-family="Helvetica,sans-Serif" font-size="12.00" fill="white">FloatingPointType</text>
</a>
</g>
</g>
<!-- FloatingPointType&#45;&gt;Double -->
<g id="edge40" class="edge">
<path fill="none" stroke="#cccccc" d="M598.454,-57.9883C617.278,-49.2036 644.881,-36.3222 666.088,-26.4255"/>
<polygon fill="#cccccc" stroke="#cccccc" points="667.746,-29.5144 675.328,-22.1138 664.786,-23.1711 667.746,-29.5144"/>
</g>
<!-- FloatingPointType&#45;&gt;Float -->
<g id="edge41" class="edge">
<path fill="none" stroke="#cccccc" d="M585.581,-57.9883C592.255,-50.2019 601.688,-39.1971 609.653,-29.9049"/>
<polygon fill="#cccccc" stroke="#cccccc" points="612.318,-32.1742 616.168,-22.3039 607.003,-27.6187 612.318,-32.1742"/>
</g>
<!-- Int -->
<g id="node12" class="node">
<g id="a_node12"><a xlink:href="/v2.1/type/Int/hierarchy/" target="_top">
<polygon fill="#999999" stroke="#999999" points="1012,-22 958,-22 958,-0 1012,-0 1012,-22"/>
<text text-anchor="middle" x="985" y="-7.4" font-family="Helvetica,sans-Serif" font-size="12.00" fill="white">Int</text>
</a>
</g>
</g>
<!-- Int16 -->
<g id="node13" class="node">
<g id="a_node13"><a xlink:href="/v2.1/type/Int16/hierarchy/" target="_top">
<polygon fill="#999999" stroke="#999999" points="1084,-22 1030,-22 1030,-0 1084,-0 1084,-22"/>
<text text-anchor="middle" x="1057" y="-7.4" font-family="Helvetica,sans-Serif" font-size="12.00" fill="white">Int16</text>
</a>
</g>
</g>
<!-- Int32 -->
<g id="node14" class="node">
<g id="a_node14"><a xlink:href="/v2.1/type/Int32/hierarchy/" target="_top">
<polygon fill="#999999" stroke="#999999" points="1156,-22 1102,-22 1102,-0 1156,-0 1156,-22"/>
<text text-anchor="middle" x="1129" y="-7.4" font-family="Helvetica,sans-Serif" font-size="12.00" fill="white">Int32</text>
</a>
</g>
</g>
<!-- Int64 -->
<g id="node15" class="node">
<g id="a_node15"><a xlink:href="/v2.1/type/Int64/hierarchy/" target="_top">
<polygon fill="#999999" stroke="#999999" points="1228,-22 1174,-22 1174,-0 1228,-0 1228,-22"/>
<text text-anchor="middle" x="1201" y="-7.4" font-family="Helvetica,sans-Serif" font-size="12.00" fill="white">Int64</text>
</a>
</g>
</g>
<!-- Int8 -->
<g id="node16" class="node">
<g id="a_node16"><a xlink:href="/v2.1/type/Int8/hierarchy/" target="_top">
<polygon fill="#999999" stroke="#999999" points="940,-22 886,-22 886,-0 940,-0 940,-22"/>
<text text-anchor="middle" x="913" y="-7.4" font-family="Helvetica,sans-Serif" font-size="12.00" fill="white">Int8</text>
</a>
</g>
</g>
<!-- IntegerArithmeticType&#45;&gt;Bit -->
<g id="edge13" class="edge">
<path fill="none" stroke="#cccccc" d="M1156.02,-231.942C1127.15,-213.687 1064.52,-173.683 1013,-138 957.926,-99.8556 894.757,-52.6694 862.465,-28.2909"/>
<polygon fill="#cccccc" stroke="#cccccc" points="864.295,-25.2868 854.208,-22.0461 860.072,-30.8699 864.295,-25.2868"/>
</g>
<!-- _IntegerType -->
<g id="node40" class="node">
<g id="a_node40"><a xlink:href="/v2.1/protocol/_IntegerType/hierarchy/" target="_top">
<path fill="#999999" stroke="#999999" d="M1204.71,-196C1204.71,-196 1139.29,-196 1139.29,-196 1135.63,-196 1131.96,-192.333 1131.96,-188.667 1131.96,-188.667 1131.96,-181.333 1131.96,-181.333 1131.96,-177.667 1135.63,-174 1139.29,-174 1139.29,-174 1204.71,-174 1204.71,-174 1208.37,-174 1212.04,-177.667 1212.04,-181.333 1212.04,-181.333 1212.04,-188.667 1212.04,-188.667 1212.04,-192.333 1208.37,-196 1204.71,-196"/>
<text text-anchor="middle" x="1172" y="-181.4" font-family="Helvetica,sans-Serif" font-size="12.00" fill="white">_IntegerType</text>
</a>
</g>
</g>
<!-- IntegerArithmeticType&#45;&gt;_IntegerType -->
<g id="edge14" class="edge">
<path fill="none" stroke="#cccccc" d="M1172,-231.988C1172,-224.91 1172,-215.171 1172,-206.478"/>
<polygon fill="#cccccc" stroke="#cccccc" points="1175.5,-206.304 1172,-196.304 1168.5,-206.304 1175.5,-206.304"/>
</g>
<!-- IntegerType -->
<g id="node18" class="node">
<g id="a_node18"><a xlink:href="/v2.1/protocol/IntegerType/hierarchy/" target="_top">
<path fill="#999999" stroke="#999999" d="M1088.2,-138C1088.2,-138 1029.8,-138 1029.8,-138 1026.13,-138 1022.47,-134.333 1022.47,-130.667 1022.47,-130.667 1022.47,-123.333 1022.47,-123.333 1022.47,-119.667 1026.13,-116 1029.8,-116 1029.8,-116 1088.2,-116 1088.2,-116 1091.87,-116 1095.53,-119.667 1095.53,-123.333 1095.53,-123.333 1095.53,-130.667 1095.53,-130.667 1095.53,-134.333 1091.87,-138 1088.2,-138"/>
<text text-anchor="middle" x="1059" y="-123.4" font-family="Helvetica,sans-Serif" font-size="12.00" fill="white">IntegerType</text>
</a>
</g>
</g>
<!-- SignedIntegerType -->
<g id="node23" class="node">
<g id="a_node23"><a xlink:href="/v2.1/protocol/SignedIntegerType/hierarchy/" target="_top">
<path fill="#999999" stroke="#999999" d="M1115.73,-80C1115.73,-80 1020.27,-80 1020.27,-80 1016.61,-80 1012.94,-76.3333 1012.94,-72.6667 1012.94,-72.6667 1012.94,-65.3333 1012.94,-65.3333 1012.94,-61.6667 1016.61,-58 1020.27,-58 1020.27,-58 1115.73,-58 1115.73,-58 1119.39,-58 1123.06,-61.6667 1123.06,-65.3333 1123.06,-65.3333 1123.06,-72.6667 1123.06,-72.6667 1123.06,-76.3333 1119.39,-80 1115.73,-80"/>
<text text-anchor="middle" x="1068" y="-65.4" font-family="Helvetica,sans-Serif" font-size="12.00" fill="white">SignedIntegerType</text>
</a>
</g>
</g>
<!-- IntegerType&#45;&gt;SignedIntegerType -->
<g id="edge18" class="edge">
<path fill="none" stroke="#cccccc" d="M1060.61,-115.988C1061.76,-108.831 1063.35,-98.9547 1064.76,-90.1885"/>
<polygon fill="#cccccc" stroke="#cccccc" points="1068.21,-90.7326 1066.34,-80.3039 1061.3,-89.6218 1068.21,-90.7326"/>
</g>
<!-- UnsignedIntegerType -->
<g id="node38" class="node">
<g id="a_node38"><a xlink:href="/v2.1/protocol/UnsignedIntegerType/hierarchy/" target="_top">
<path fill="#999999" stroke="#999999" d="M1399.73,-80C1399.73,-80 1290.27,-80 1290.27,-80 1286.61,-80 1282.94,-76.3333 1282.94,-72.6667 1282.94,-72.6667 1282.94,-65.3333 1282.94,-65.3333 1282.94,-61.6667 1286.61,-58 1290.27,-58 1290.27,-58 1399.73,-58 1399.73,-58 1403.39,-58 1407.06,-61.6667 1407.06,-65.3333 1407.06,-65.3333 1407.06,-72.6667 1407.06,-72.6667 1407.06,-76.3333 1403.39,-80 1399.73,-80"/>
<text text-anchor="middle" x="1345" y="-65.4" font-family="Helvetica,sans-Serif" font-size="12.00" fill="white">UnsignedIntegerType</text>
</a>
</g>
</g>
<!-- IntegerType&#45;&gt;UnsignedIntegerType -->
<g id="edge19" class="edge">
<path fill="none" stroke="#cccccc" d="M1095.82,-117.724C1098.58,-117.131 1101.34,-116.55 1104,-116 1163.39,-103.736 1231.26,-90.8852 1279.81,-81.8938"/>
<polygon fill="#cccccc" stroke="#cccccc" points="1280.67,-85.2944 1289.87,-80.0354 1279.4,-78.411 1280.67,-85.2944"/>
</g>
<!-- RandomAccessIndexType -->
<g id="node20" class="node">
<g id="a_node20"><a xlink:href="/v2.1/protocol/RandomAccessIndexType/hierarchy/" target="_top">
<path fill="#999999" stroke="#999999" d="M563.225,-196C563.225,-196 428.775,-196 428.775,-196 425.108,-196 421.441,-192.333 421.441,-188.667 421.441,-188.667 421.441,-181.333 421.441,-181.333 421.441,-177.667 425.108,-174 428.775,-174 428.775,-174 563.225,-174 563.225,-174 566.892,-174 570.559,-177.667 570.559,-181.333 570.559,-181.333 570.559,-188.667 570.559,-188.667 570.559,-192.333 566.892,-196 563.225,-196"/>
<text text-anchor="middle" x="496" y="-181.4" font-family="Helvetica,sans-Serif" font-size="12.00" fill="white">RandomAccessIndexType</text>
</a>
</g>
</g>
<!-- RandomAccessIndexType&#45;&gt;AnyRandomAccessIndex -->
<g id="edge42" class="edge">
<path fill="none" stroke="#cccccc" d="M479.442,-173.756C432.605,-144.777 298.952,-62.0856 243.055,-27.5016"/>
<polygon fill="#cccccc" stroke="#cccccc" points="244.816,-24.4757 234.471,-22.1906 241.133,-30.4285 244.816,-24.4757"/>
</g>
<!-- RandomAccessIndexType&#45;&gt;Bit -->
<g id="edge43" class="edge">
<path fill="none" stroke="#cccccc" d="M570.371,-184.314C658.412,-182.963 797.474,-174.837 832,-138 858.744,-109.465 852.596,-59.5441 846.403,-31.8782"/>
<polygon fill="#cccccc" stroke="#cccccc" points="849.795,-31.016 844.011,-22.1393 842.997,-32.6855 849.795,-31.016"/>
</g>
<!-- RandomAccessIndexType&#45;&gt;IntegerType -->
<g id="edge44" class="edge">
<path fill="none" stroke="#cccccc" d="M570.471,-176.593C688.406,-164.862 914.754,-142.348 1012.34,-132.641"/>
<polygon fill="#cccccc" stroke="#cccccc" points="1012.88,-136.105 1022.48,-131.632 1012.19,-129.139 1012.88,-136.105"/>
</g>
<!-- ReverseRandomAccessIndex -->
<g id="node21" class="node">
<g id="a_node21"><a xlink:href="/v2.1/type/ReverseRandomAccessIndex/hierarchy/" target="_top">
<polygon fill="#999999" stroke="#999999" points="580.056,-22 411.944,-22 411.944,-0 580.056,-0 580.056,-22"/>
<text text-anchor="middle" x="496" y="-7.4" font-family="Helvetica,sans-Serif" font-size="12.00" fill="white">ReverseRandomAccessIndex</text>
</a>
</g>
</g>
<!-- RandomAccessIndexType&#45;&gt;ReverseRandomAccessIndex -->
<g id="edge45" class="edge">
<path fill="none" stroke="#cccccc" d="M496,-173.756C496,-146.097 496,-69.5091 496,-32.5186"/>
<polygon fill="#cccccc" stroke="#cccccc" points="499.5,-32.408 496,-22.4081 492.5,-32.4081 499.5,-32.408"/>
</g>
<!-- UnsafeMutablePointer -->
<g id="node36" class="node">
<g id="a_node36"><a xlink:href="/v2.1/type/UnsafeMutablePointer/hierarchy/" target="_top">
<polygon fill="#999999" stroke="#999999" points="128.051,-22 -0.0514328,-22 -0.0514328,-0 128.051,-0 128.051,-22"/>
<text text-anchor="middle" x="64" y="-7.4" font-family="Helvetica,sans-Serif" font-size="12.00" fill="white">UnsafeMutablePointer</text>
</a>
</g>
</g>
<!-- RandomAccessIndexType&#45;&gt;UnsafeMutablePointer -->
<g id="edge46" class="edge">
<path fill="none" stroke="#cccccc" d="M470.589,-173.883C396.911,-144.548 183.084,-59.4131 98.7681,-25.8429"/>
<polygon fill="#cccccc" stroke="#cccccc" points="99.9641,-22.5519 89.3788,-22.1045 97.3748,-29.0554 99.9641,-22.5519"/>
</g>
<!-- UnsafePointer -->
<g id="node37" class="node">
<g id="a_node37"><a xlink:href="/v2.1/type/UnsafePointer/hierarchy/" target="_top">
<polygon fill="#999999" stroke="#999999" points="394.032,-22 307.968,-22 307.968,-0 394.032,-0 394.032,-22"/>
<text text-anchor="middle" x="351" y="-7.4" font-family="Helvetica,sans-Serif" font-size="12.00" fill="white">UnsafePointer</text>
</a>
</g>
</g>
<!-- RandomAccessIndexType&#45;&gt;UnsafePointer -->
<g id="edge47" class="edge">
<path fill="none" stroke="#cccccc" d="M487.364,-173.756C463.545,-145.501 396.679,-66.1852 366.329,-30.183"/>
<polygon fill="#cccccc" stroke="#cccccc" points="368.896,-27.7978 359.774,-22.4081 363.544,-32.3097 368.896,-27.7978"/>
</g>
<!-- SignedIntegerType&#45;&gt;Int -->
<g id="edge20" class="edge">
<path fill="none" stroke="#cccccc" d="M1053.16,-57.9883C1040.73,-49.5993 1022.76,-37.4743 1008.39,-27.7804"/>
<polygon fill="#cccccc" stroke="#cccccc" points="1010.24,-24.8055 999.99,-22.1138 1006.32,-30.6083 1010.24,-24.8055"/>
</g>
<!-- SignedIntegerType&#45;&gt;Int16 -->
<g id="edge21" class="edge">
<path fill="none" stroke="#cccccc" d="M1066.03,-57.9883C1064.63,-50.8311 1062.69,-40.9547 1060.97,-32.1885"/>
<polygon fill="#cccccc" stroke="#cccccc" points="1064.39,-31.4417 1059.02,-22.3039 1057.52,-32.791 1064.39,-31.4417"/>
</g>
<!-- SignedIntegerType&#45;&gt;Int32 -->
<g id="edge22" class="edge">
<path fill="none" stroke="#cccccc" d="M1078.91,-57.9883C1087.56,-50.0446 1099.86,-38.7512 1110.11,-29.3439"/>
<polygon fill="#cccccc" stroke="#cccccc" points="1112.78,-31.6449 1117.78,-22.3039 1108.04,-26.4883 1112.78,-31.6449"/>
</g>
<!-- SignedIntegerType&#45;&gt;Int64 -->
<g id="edge23" class="edge">
<path fill="none" stroke="#cccccc" d="M1091.78,-57.9883C1112.92,-49.0849 1144.06,-35.9733 1167.69,-26.0259"/>
<polygon fill="#cccccc" stroke="#cccccc" points="1169.12,-29.2202 1176.98,-22.1138 1166.41,-22.7687 1169.12,-29.2202"/>
</g>
<!-- SignedIntegerType&#45;&gt;Int8 -->
<g id="edge24" class="edge">
<path fill="none" stroke="#cccccc" d="M1040.29,-57.9883C1015.08,-48.8821 977.696,-35.3739 949.954,-25.3513"/>
<polygon fill="#cccccc" stroke="#cccccc" points="950.805,-21.9373 940.211,-21.8311 948.427,-28.5208 950.805,-21.9373"/>
</g>
<!-- SignedNumberType&#45;&gt;AbsoluteValuable -->
<g id="edge32" class="edge">
<path fill="none" stroke="#cccccc" d="M876.295,-173.988C856.193,-165.124 826.632,-152.09 804.11,-142.159"/>
<polygon fill="#cccccc" stroke="#cccccc" points="805.499,-138.946 794.937,-138.114 802.675,-145.351 805.499,-138.946"/>
</g>
<!-- _SignedIntegerType -->
<g id="node41" class="node">
<g id="a_node41"><a xlink:href="/v2.1/protocol/_SignedIntegerType/hierarchy/" target="_top">
<path fill="#999999" stroke="#999999" d="M1223.23,-138C1223.23,-138 1120.77,-138 1120.77,-138 1117.1,-138 1113.44,-134.333 1113.44,-130.667 1113.44,-130.667 1113.44,-123.333 1113.44,-123.333 1113.44,-119.667 1117.1,-116 1120.77,-116 1120.77,-116 1223.23,-116 1223.23,-116 1226.9,-116 1230.56,-119.667 1230.56,-123.333 1230.56,-123.333 1230.56,-130.667 1230.56,-130.667 1230.56,-134.333 1226.9,-138 1223.23,-138"/>
<text text-anchor="middle" x="1172" y="-123.4" font-family="Helvetica,sans-Serif" font-size="12.00" fill="white">_SignedIntegerType</text>
</a>
</g>
</g>
<!-- SignedNumberType&#45;&gt;_SignedIntegerType -->
<g id="edge33" class="edge">
<path fill="none" stroke="#cccccc" d="M947.807,-173.988C994.152,-164.482 1063.89,-150.177 1113.26,-140.05"/>
<polygon fill="#cccccc" stroke="#cccccc" points="1114.06,-143.457 1123.16,-138.019 1112.66,-136.6 1114.06,-143.457"/>
</g>
<!-- Strideable&#45;&gt;Float80 -->
<g id="edge37" class="edge">
<path fill="none" stroke="#cccccc" d="M663.806,-231.708C671.93,-209.998 691.874,-158.051 712,-116 726.58,-85.5374 745.876,-51.4168 757.86,-30.831"/>
<polygon fill="#cccccc" stroke="#cccccc" points="760.918,-32.5344 762.955,-22.1372 754.879,-28.9947 760.918,-32.5344"/>
</g>
<!-- Strideable&#45;&gt;FloatingPointType -->
<g id="edge38" class="edge">
<path fill="none" stroke="#cccccc" d="M655.057,-231.756C641.595,-203.859 604.113,-126.185 586.444,-89.5708"/>
<polygon fill="#cccccc" stroke="#cccccc" points="589.521,-87.8932 582.023,-80.4081 583.216,-90.9354 589.521,-87.8932"/>
</g>
<!-- Strideable&#45;&gt;RandomAccessIndexType -->
<g id="edge39" class="edge">
<path fill="none" stroke="#cccccc" d="M630.68,-231.988C603.943,-222.859 564.249,-209.305 534.875,-199.274"/>
<polygon fill="#cccccc" stroke="#cccccc" points="535.937,-195.939 525.342,-196.019 533.675,-202.563 535.937,-195.939"/>
</g>
<!-- UInt -->
<g id="node30" class="node">
<g id="a_node30"><a xlink:href="/v2.1/type/UInt/hierarchy/" target="_top">
<polygon fill="#999999" stroke="#999999" points="1372,-22 1318,-22 1318,-0 1372,-0 1372,-22"/>
<text text-anchor="middle" x="1345" y="-7.4" font-family="Helvetica,sans-Serif" font-size="12.00" fill="white">UInt</text>
</a>
</g>
</g>
<!-- UInt16 -->
<g id="node31" class="node">
<g id="a_node31"><a xlink:href="/v2.1/type/UInt16/hierarchy/" target="_top">
<polygon fill="#999999" stroke="#999999" points="1444,-22 1390,-22 1390,-0 1444,-0 1444,-22"/>
<text text-anchor="middle" x="1417" y="-7.4" font-family="Helvetica,sans-Serif" font-size="12.00" fill="white">UInt16</text>
</a>
</g>
</g>
<!-- UInt32 -->
<g id="node32" class="node">
<g id="a_node32"><a xlink:href="/v2.1/type/UInt32/hierarchy/" target="_top">
<polygon fill="#999999" stroke="#999999" points="1516,-22 1462,-22 1462,-0 1516,-0 1516,-22"/>
<text text-anchor="middle" x="1489" y="-7.4" font-family="Helvetica,sans-Serif" font-size="12.00" fill="white">UInt32</text>
</a>
</g>
</g>
<!-- UInt64 -->
<g id="node33" class="node">
<g id="a_node33"><a xlink:href="/v2.1/type/UInt64/hierarchy/" target="_top">
<polygon fill="#999999" stroke="#999999" points="1588,-22 1534,-22 1534,-0 1588,-0 1588,-22"/>
<text text-anchor="middle" x="1561" y="-7.4" font-family="Helvetica,sans-Serif" font-size="12.00" fill="white">UInt64</text>
</a>
</g>
</g>
<!-- UInt8 -->
<g id="node34" class="node">
<g id="a_node34"><a xlink:href="/v2.1/type/UInt8/hierarchy/" target="_top">
<polygon fill="#999999" stroke="#999999" points="1300,-22 1246,-22 1246,-0 1300,-0 1300,-22"/>
<text text-anchor="middle" x="1273" y="-7.4" font-family="Helvetica,sans-Serif" font-size="12.00" fill="white">UInt8</text>
</a>
</g>
</g>
<!-- UnsignedIntegerType&#45;&gt;UInt -->
<g id="edge25" class="edge">
<path fill="none" stroke="#cccccc" d="M1345,-57.9883C1345,-50.9098 1345,-41.1714 1345,-32.4779"/>
<polygon fill="#cccccc" stroke="#cccccc" points="1348.5,-32.3038 1345,-22.3039 1341.5,-32.3039 1348.5,-32.3038"/>
</g>
<!-- UnsignedIntegerType&#45;&gt;UInt16 -->
<g id="edge26" class="edge">
<path fill="none" stroke="#cccccc" d="M1357.87,-57.9883C1368.39,-49.8087 1383.47,-38.0773 1395.77,-28.5108"/>
<polygon fill="#cccccc" stroke="#cccccc" points="1398.01,-31.2061 1403.75,-22.3039 1393.71,-25.6806 1398.01,-31.2061"/>
</g>
<!-- UnsignedIntegerType&#45;&gt;UInt32 -->
<g id="edge27" class="edge">
<path fill="none" stroke="#cccccc" d="M1370.74,-57.9883C1393.84,-49.0057 1427.95,-35.7398 1453.61,-25.7614"/>
<polygon fill="#cccccc" stroke="#cccccc" points="1454.94,-29.0004 1462.99,-22.1138 1452.4,-22.4763 1454.94,-29.0004"/>
</g>
<!-- UnsignedIntegerType&#45;&gt;UInt64 -->
<g id="edge28" class="edge">
<path fill="none" stroke="#cccccc" d="M1385.45,-57.9168C1419.84,-49.2898 1470.76,-36.3793 1523.94,-22.2477"/>
<polygon fill="#cccccc" stroke="#cccccc" points="1525.13,-25.5525 1533.89,-19.5955 1523.33,-18.7885 1525.13,-25.5525"/>
</g>
<!-- UnsignedIntegerType&#45;&gt;UInt8 -->
<g id="edge29" class="edge">
<path fill="none" stroke="#cccccc" d="M1332.13,-57.9883C1321.61,-49.8087 1306.53,-38.0773 1294.23,-28.5108"/>
<polygon fill="#cccccc" stroke="#cccccc" points="1296.29,-25.6806 1286.25,-22.3039 1291.99,-31.2061 1296.29,-25.6806"/>
</g>
<!-- _DisallowMixedSignArithmetic -->
<g id="node39" class="node">
<g id="a_node39"><a xlink:href="/v2.1/protocol/_DisallowMixedSignArithmetic/hierarchy/" target="_top">
<path fill="#999999" stroke="#999999" d="M1416.71,-138C1416.71,-138 1261.29,-138 1261.29,-138 1257.62,-138 1253.96,-134.333 1253.96,-130.667 1253.96,-130.667 1253.96,-123.333 1253.96,-123.333 1253.96,-119.667 1257.62,-116 1261.29,-116 1261.29,-116 1416.71,-116 1416.71,-116 1420.38,-116 1424.04,-119.667 1424.04,-123.333 1424.04,-123.333 1424.04,-130.667 1424.04,-130.667 1424.04,-134.333 1420.38,-138 1416.71,-138"/>
<text text-anchor="middle" x="1339" y="-123.4" font-family="Helvetica,sans-Serif" font-size="12.00" fill="white">_DisallowMixedSignArithmetic</text>
</a>
</g>
</g>
<!-- _DisallowMixedSignArithmetic&#45;&gt;UnsignedIntegerType -->
<g id="edge30" class="edge">
<path fill="none" stroke="#cccccc" d="M1340.07,-115.988C1340.83,-108.91 1341.87,-99.1714 1342.81,-90.4779"/>
<polygon fill="#cccccc" stroke="#cccccc" points="1346.31,-90.6199 1343.9,-80.3039 1339.35,-89.8741 1346.31,-90.6199"/>
</g>
<!-- _IntegerType&#45;&gt;IntegerType -->
<g id="edge15" class="edge">
<path fill="none" stroke="#cccccc" d="M1151.8,-173.988C1134.15,-165.243 1108.31,-152.438 1088.38,-142.559"/>
<polygon fill="#cccccc" stroke="#cccccc" points="1089.92,-139.418 1079.41,-138.114 1086.81,-145.69 1089.92,-139.418"/>
</g>
<!-- _IntegerType&#45;&gt;_DisallowMixedSignArithmetic -->
<g id="edge16" class="edge">
<path fill="none" stroke="#cccccc" d="M1201.86,-173.988C1229.08,-164.859 1269.5,-151.305 1299.41,-141.274"/>
<polygon fill="#cccccc" stroke="#cccccc" points="1300.75,-144.517 1309.12,-138.019 1298.53,-137.88 1300.75,-144.517"/>
</g>
<!-- _IntegerType&#45;&gt;_SignedIntegerType -->
<g id="edge17" class="edge">
<path fill="none" stroke="#cccccc" d="M1172,-173.988C1172,-166.91 1172,-157.171 1172,-148.478"/>
<polygon fill="#cccccc" stroke="#cccccc" points="1175.5,-148.304 1172,-138.304 1168.5,-148.304 1175.5,-148.304"/>
</g>
<!-- _SignedIntegerType&#45;&gt;SignedIntegerType -->
<g id="edge31" class="edge">
<path fill="none" stroke="#cccccc" d="M1153.41,-115.988C1137.39,-107.362 1114.03,-94.785 1095.79,-84.9633"/>
<polygon fill="#cccccc" stroke="#cccccc" points="1097.25,-81.7732 1086.78,-80.1138 1093.93,-87.9365 1097.25,-81.7732"/>
</g>
</g>
</svg>
