<?xml version="1.0" encoding="UTF-8" standalone="no"?>
<!DOCTYPE svg PUBLIC "-//W3C//DTD SVG 1.1//EN"
 "http://www.w3.org/Graphics/SVG/1.1/DTD/svg11.dtd">
<!-- Generated by graphviz version 2.36.0 (20140111.2315)
 -->
<!-- Title: RandomAccessCollection &#45; Type Hierarchy &#45; SwiftDoc.org Pages: 1 -->
<svg width="3475pt" height="427pt"
 viewBox="0.00 0.00 3475.40 427.20" xmlns="http://www.w3.org/2000/svg" xmlns:xlink="http://www.w3.org/1999/xlink">
<g id="graph0" class="graph" transform="scale(1 1) rotate(0) translate(7.2 369.6)">
<g transform="translate(0 -369.6)">
<g>
    <path fill="#666666" d="M13.846,10.832c-0.336-0.464-0.792-0.844-1.368-1.14s-1.224-0.444-1.944-0.444
        c-0.384,0-0.772,0.052-1.164,0.156C8.977,9.509,8.622,9.677,8.301,9.908c-0.32,0.232-0.58,0.52-0.78,0.864
        c-0.2,0.344-0.3,0.756-0.3,1.236c0,0.464,0.092,0.852,0.276,1.164c0.184,0.312,0.432,0.576,0.744,0.792s0.68,0.4,1.104,0.552
        c0.423,0.152,0.876,0.309,1.356,0.468c0.576,0.177,1.16,0.376,1.752,0.601c0.592,0.224,1.128,0.52,1.608,0.888
        s0.872,0.828,1.176,1.38s0.456,1.252,0.456,2.101c0,0.88-0.164,1.644-0.492,2.292c-0.328,0.647-0.765,1.184-1.308,1.607
        c-0.544,0.424-1.172,0.74-1.884,0.948s-1.444,0.312-2.196,0.312c-1.072,0-2.108-0.208-3.108-0.624
        c-1-0.415-1.828-1.031-2.484-1.848l1.848-1.56c0.4,0.592,0.936,1.071,1.608,1.439c0.672,0.368,1.399,0.552,2.184,0.552
        c0.4,0,0.8-0.056,1.2-0.168c0.4-0.111,0.764-0.288,1.092-0.527c0.328-0.24,0.596-0.54,0.804-0.9
        c0.208-0.36,0.312-0.796,0.312-1.308s-0.108-0.94-0.324-1.284c-0.216-0.344-0.508-0.636-0.876-0.876s-0.796-0.444-1.284-0.612
        c-0.488-0.168-1.004-0.34-1.548-0.516c-0.544-0.16-1.08-0.356-1.608-0.588c-0.528-0.232-1-0.528-1.416-0.889
        c-0.416-0.359-0.752-0.804-1.008-1.332c-0.256-0.527-0.384-1.184-0.384-1.968c0-0.848,0.172-1.576,0.516-2.184
        c0.344-0.608,0.792-1.112,1.344-1.512c0.552-0.4,1.176-0.692,1.872-0.876c0.696-0.184,1.396-0.276,2.1-0.276
        c0.992,0,1.92,0.176,2.784,0.528c0.864,0.352,1.56,0.824,2.088,1.416L13.846,10.832z"/>
    <path fill="#666666" d="M18.813,13.304l2.568,8.688h0.048l2.712-8.688h2.376l2.76,8.688h0.048l2.568-8.688h2.376L30.501,24.68
        h-2.352l-2.808-8.544h-0.048l-2.784,8.544h-2.352l-3.792-11.376H18.813z"/>
    <path fill="#666666" d="M38.685,9.2c0,0.416-0.147,0.76-0.44,1.032c-0.294,0.272-0.647,0.408-1.06,0.408s-0.762-0.14-1.047-0.42
        c-0.286-0.28-0.429-0.62-0.429-1.02c0-0.416,0.143-0.764,0.429-1.044c0.286-0.28,0.635-0.42,1.047-0.42s0.766,0.14,1.06,0.42
        C38.538,8.437,38.685,8.784,38.685,9.2z M38.325,24.68h-2.256V13.304h2.256V24.68z"/>
    <path fill="#666666" d="M47.613,15.152h-2.64v9.528h-2.256v-9.528h-2.256v-1.848h2.256v-2.376c0-0.672,0.076-1.292,0.228-1.86
        c0.152-0.568,0.4-1.06,0.744-1.476c0.344-0.416,0.784-0.744,1.32-0.984c0.536-0.24,1.188-0.36,1.956-0.36
        c0.544,0,1.016,0.056,1.416,0.168l-0.264,1.944c-0.176-0.048-0.352-0.088-0.528-0.12c-0.176-0.032-0.376-0.048-0.6-0.048
        c-0.432,0-0.78,0.076-1.044,0.228c-0.264,0.152-0.468,0.356-0.612,0.612s-0.24,0.548-0.288,0.876
        c-0.048,0.328-0.072,0.668-0.072,1.02v2.376h2.64V15.152z"/>
    <path fill="#666666" d="M54.909,15.152h-3.024v5.91c0,0.687,0.128,1.177,0.384,1.472c0.256,0.295,0.664,0.442,1.224,0.442
        c0.208,0,0.432-0.021,0.672-0.065c0.24-0.044,0.456-0.11,0.648-0.198l0.072,1.848c-0.272,0.096-0.572,0.172-0.9,0.229
        c-0.328,0.056-0.668,0.084-1.02,0.084c-1.072,0-1.892-0.296-2.46-0.889c-0.568-0.592-0.852-1.479-0.852-2.664v-6.168h-2.184
        v-1.848h2.184V10.04h2.232v3.264h3.024V15.152z"/>
    <path fill="#666666" d="M57.356,7.688h5.832c1.088,0,2.176,0.16,3.264,0.48c1.088,0.32,2.072,0.824,2.952,1.512
        s1.592,1.568,2.136,2.64c0.544,1.072,0.816,2.36,0.816,3.864c0,1.456-0.272,2.716-0.816,3.78s-1.256,1.943-2.136,2.64
        s-1.864,1.216-2.952,1.561c-1.088,0.344-2.176,0.516-3.264,0.516h-5.832V7.688z M59.732,22.593h2.976
        c1.024,0,1.972-0.145,2.844-0.432c0.872-0.288,1.624-0.704,2.256-1.248c0.632-0.544,1.124-1.216,1.476-2.017
        c0.352-0.8,0.528-1.704,0.528-2.712c0-1.056-0.176-1.983-0.528-2.784c-0.353-0.8-0.844-1.468-1.476-2.004
        c-0.632-0.536-1.384-0.944-2.256-1.224s-1.82-0.42-2.844-0.42h-2.976V22.593z"/>
    <path fill="#666666" d="M86.06,18.969c0,0.88-0.156,1.688-0.468,2.424c-0.312,0.736-0.744,1.372-1.296,1.908
        c-0.552,0.536-1.204,0.952-1.956,1.248c-0.752,0.296-1.56,0.443-2.424,0.443c-0.864,0-1.672-0.147-2.424-0.443
        c-0.752-0.296-1.4-0.712-1.944-1.248c-0.544-0.536-0.972-1.172-1.284-1.908c-0.312-0.735-0.468-1.544-0.468-2.424
        s0.156-1.684,0.468-2.412c0.312-0.728,0.74-1.356,1.284-1.884c0.543-0.528,1.191-0.939,1.944-1.236
        c0.752-0.296,1.56-0.444,2.424-0.444c0.864,0,1.672,0.148,2.424,0.444c0.752,0.297,1.404,0.708,1.956,1.236
        c0.552,0.527,0.984,1.156,1.296,1.884C85.904,17.285,86.06,18.089,86.06,18.969z M83.708,18.98c0-0.542-0.084-1.061-0.252-1.556
        c-0.169-0.494-0.414-0.929-0.734-1.304s-0.718-0.674-1.192-0.897s-1.015-0.335-1.625-0.335c-0.61,0-1.152,0.111-1.625,0.335
        c-0.474,0.224-0.871,0.522-1.191,0.897c-0.321,0.375-0.566,0.81-0.734,1.304C76.184,17.92,76.1,18.438,76.1,18.98
        c0,0.543,0.084,1.062,0.253,1.556c0.168,0.495,0.413,0.934,0.734,1.316c0.321,0.383,0.718,0.686,1.191,0.909
        c0.473,0.224,1.015,0.335,1.625,0.335c0.61,0,1.151-0.111,1.625-0.335s0.871-0.526,1.192-0.909s0.565-0.821,0.734-1.316
        C83.624,20.042,83.708,19.523,83.708,18.98z"/>
    <path fill="#666666" d="M96.428,16.184c-0.24-0.368-0.6-0.676-1.08-0.924s-0.992-0.372-1.536-0.372
        c-0.592,0-1.116,0.112-1.572,0.336c-0.456,0.225-0.844,0.524-1.164,0.9c-0.32,0.376-0.564,0.812-0.732,1.308
        s-0.252,1.017-0.252,1.56c0,0.545,0.084,1.064,0.252,1.561s0.412,0.933,0.732,1.308c0.32,0.376,0.712,0.677,1.176,0.9
        c0.464,0.225,0.992,0.336,1.584,0.336c0.576,0,1.1-0.111,1.572-0.336c0.472-0.224,0.86-0.528,1.164-0.912l1.512,1.368
        c-0.48,0.561-1.08,0.996-1.8,1.308c-0.72,0.312-1.536,0.468-2.448,0.468c-0.88,0-1.692-0.144-2.436-0.432
        c-0.744-0.288-1.388-0.691-1.932-1.212c-0.544-0.52-0.972-1.147-1.284-1.884s-0.468-1.561-0.468-2.473
        c0-0.896,0.152-1.711,0.456-2.447c0.304-0.736,0.728-1.368,1.272-1.896c0.543-0.527,1.188-0.936,1.932-1.224
        c0.744-0.288,1.548-0.433,2.412-0.433c0.8,0,1.596,0.16,2.388,0.48s1.419,0.784,1.884,1.392L96.428,16.184z"/>
    <path fill="#666666" d="M103.1,23.24c0,0.417-0.152,0.784-0.456,1.104c-0.304,0.32-0.688,0.479-1.152,0.479
        c-0.448,0-0.828-0.155-1.14-0.468c-0.312-0.312-0.468-0.676-0.468-1.092c0-0.432,0.152-0.804,0.456-1.116
        c0.304-0.312,0.688-0.468,1.152-0.468c0.464,0,0.848,0.152,1.152,0.456C102.947,22.44,103.1,22.808,103.1,23.24z"/>
    <path fill="#666666" d="M116.635,18.969c0,0.88-0.156,1.688-0.468,2.424c-0.312,0.736-0.744,1.372-1.296,1.908
        c-0.552,0.536-1.204,0.952-1.956,1.248c-0.752,0.296-1.56,0.443-2.424,0.443c-0.864,0-1.672-0.147-2.424-0.443
        c-0.752-0.296-1.4-0.712-1.944-1.248c-0.544-0.536-0.972-1.172-1.284-1.908c-0.312-0.735-0.468-1.544-0.468-2.424
        s0.156-1.684,0.468-2.412c0.312-0.728,0.74-1.356,1.284-1.884c0.543-0.528,1.191-0.939,1.944-1.236
        c0.752-0.296,1.56-0.444,2.424-0.444c0.864,0,1.672,0.148,2.424,0.444c0.752,0.297,1.404,0.708,1.956,1.236
        c0.552,0.527,0.984,1.156,1.296,1.884C116.479,17.285,116.635,18.089,116.635,18.969z M114.283,18.98
        c0-0.542-0.084-1.061-0.252-1.556c-0.169-0.494-0.414-0.929-0.734-1.304s-0.718-0.674-1.192-0.897s-1.015-0.335-1.625-0.335
        c-0.61,0-1.152,0.111-1.625,0.335c-0.474,0.224-0.871,0.522-1.191,0.897c-0.321,0.375-0.566,0.81-0.734,1.304
        c-0.169,0.495-0.253,1.014-0.253,1.556c0,0.543,0.084,1.062,0.253,1.556c0.168,0.495,0.413,0.934,0.734,1.316
        c0.321,0.383,0.718,0.686,1.191,0.909c0.473,0.224,1.015,0.335,1.625,0.335c0.61,0,1.151-0.111,1.625-0.335
        s0.871-0.526,1.192-0.909s0.565-0.821,0.734-1.316C114.199,20.042,114.283,19.523,114.283,18.98z"/>
    <path fill="#666666" d="M119.251,14.577c-0.016-0.48-0.04-0.904-0.072-1.272h2.136c0.032,0.288,0.056,0.62,0.072,0.996
        c0.016,0.376,0.024,0.684,0.024,0.924h0.072c0.32-0.672,0.788-1.212,1.404-1.62c0.616-0.408,1.308-0.612,2.076-0.612
        c0.352,0,0.648,0.033,0.888,0.097l-0.096,2.088c-0.32-0.08-0.664-0.12-1.032-0.12c-0.544,0-1.016,0.101-1.416,0.3
        c-0.4,0.2-0.732,0.468-0.996,0.805c-0.264,0.336-0.46,0.724-0.588,1.163c-0.128,0.44-0.192,0.9-0.192,1.381v5.976h-2.256v-8.928
        C119.275,15.449,119.267,15.056,119.251,14.577z"/>
    <path fill="#666666" d="M128.419,26.625c0.496,0.56,1.116,1.008,1.86,1.344c0.744,0.336,1.508,0.504,2.292,0.504
        c0.752,0,1.384-0.108,1.896-0.324s0.924-0.512,1.236-0.888s0.536-0.82,0.672-1.332c0.136-0.513,0.204-1.064,0.204-1.656v-1.464
        h-0.048c-0.416,0.641-0.984,1.128-1.704,1.464c-0.72,0.336-1.488,0.504-2.304,0.504c-0.864,0-1.652-0.151-2.364-0.456
        c-0.712-0.304-1.316-0.72-1.812-1.248c-0.496-0.527-0.88-1.147-1.152-1.859s-0.408-1.477-0.408-2.292
        c0-0.816,0.136-1.584,0.408-2.305c0.272-0.72,0.656-1.348,1.152-1.884c0.496-0.535,1.096-0.96,1.8-1.271
        c0.704-0.312,1.488-0.469,2.352-0.469c0.816,0,1.596,0.177,2.34,0.528c0.744,0.353,1.332,0.888,1.764,1.608h0.048v-1.824h2.184
        v10.8c0,0.832-0.104,1.628-0.312,2.388c-0.208,0.76-0.56,1.433-1.056,2.017s-1.144,1.052-1.944,1.404
        c-0.8,0.352-1.792,0.527-2.976,0.527c-0.992,0-1.988-0.18-2.988-0.54c-1-0.359-1.86-0.868-2.58-1.523L128.419,26.625z
         M129.091,18.873c0,0.527,0.084,1.031,0.253,1.512c0.168,0.479,0.417,0.904,0.746,1.271c0.329,0.369,0.726,0.664,1.192,0.889
        c0.465,0.224,0.995,0.336,1.589,0.336c0.577,0,1.107-0.104,1.589-0.312c0.481-0.207,0.891-0.491,1.228-0.852
        s0.598-0.784,0.782-1.272c0.185-0.487,0.277-1.012,0.277-1.571c0-0.544-0.093-1.057-0.277-1.536
        c-0.185-0.48-0.449-0.904-0.794-1.272c-0.345-0.367-0.755-0.66-1.228-0.876c-0.474-0.216-1-0.324-1.577-0.324
        c-0.594,0-1.124,0.108-1.589,0.324c-0.466,0.216-0.863,0.504-1.192,0.864s-0.578,0.784-0.746,1.271
        C129.175,17.812,129.091,18.329,129.091,18.873z"/>
</g>
<g><a xlink:href="/" pointer-events="all" target="_top"><polygon fill="none" points="0,0 145,0 145,35 0,35 0,0"/></a></g>

</g>


<!-- AnyRandomAccessCollection -->
<g id="node1" class="node">
<g id="a_node1"><a xlink:href="/v3.0/type/AnyRandomAccessCollection/hierarchy/" target="_top">
<polygon fill="#999999" stroke="#999999" points="166.554,-22 -0.554326,-22 -0.554326,-0 166.554,-0 166.554,-22"/>
<text text-anchor="middle" x="83" y="-7.4" font-family="Helvetica,sans-Serif" font-size="12.00" fill="white">AnyRandomAccessCollection</text>
</a>
</g>
</g>
<!-- Array -->
<g id="node2" class="node">
<g id="a_node2"><a xlink:href="/v3.0/type/Array/hierarchy/" target="_top">
<polygon fill="#999999" stroke="#999999" points="239,-22 185,-22 185,-0 239,-0 239,-22"/>
<text text-anchor="middle" x="212" y="-7.4" font-family="Helvetica,sans-Serif" font-size="12.00" fill="white">Array</text>
</a>
</g>
</g>
<!-- ArraySlice -->
<g id="node3" class="node">
<g id="a_node3"><a xlink:href="/v3.0/type/ArraySlice/hierarchy/" target="_top">
<polygon fill="#999999" stroke="#999999" points="321.011,-22 256.989,-22 256.989,-0 321.011,-0 321.011,-22"/>
<text text-anchor="middle" x="289" y="-7.4" font-family="Helvetica,sans-Serif" font-size="12.00" fill="white">ArraySlice</text>
</a>
</g>
</g>
<!-- BidirectionalCollection -->
<g id="node4" class="node">
<g id="a_node4"><a xlink:href="/v3.0/protocol/BidirectionalCollection/hierarchy/" target="_top">
<path fill="#999999" stroke="#999999" d="M1440.71,-138C1440.71,-138 1327.29,-138 1327.29,-138 1323.62,-138 1319.95,-134.333 1319.95,-130.667 1319.95,-130.667 1319.95,-123.333 1319.95,-123.333 1319.95,-119.667 1323.62,-116 1327.29,-116 1327.29,-116 1440.71,-116 1440.71,-116 1444.38,-116 1448.05,-119.667 1448.05,-123.333 1448.05,-123.333 1448.05,-130.667 1448.05,-130.667 1448.05,-134.333 1444.38,-138 1440.71,-138"/>
<text text-anchor="middle" x="1384" y="-123.4" font-family="Helvetica,sans-Serif" font-size="12.00" fill="white">BidirectionalCollection</text>
</a>
</g>
</g>
<!-- RandomAccessCollection -->
<g id="node20" class="node">
<g id="a_node20"><a xlink:href="/v3.0/protocol/RandomAccessCollection/" target="_top">
<path fill="#ee543d" stroke="#ee543d" d="M1526.71,-80C1526.71,-80 1395.29,-80 1395.29,-80 1391.62,-80 1387.95,-76.3333 1387.95,-72.6667 1387.95,-72.6667 1387.95,-65.3333 1387.95,-65.3333 1387.95,-61.6667 1391.62,-58 1395.29,-58 1395.29,-58 1526.71,-58 1526.71,-58 1530.38,-58 1534.05,-61.6667 1534.05,-65.3333 1534.05,-65.3333 1534.05,-72.6667 1534.05,-72.6667 1534.05,-76.3333 1530.38,-80 1526.71,-80"/>
<text text-anchor="middle" x="1461" y="-65.4" font-family="Helvetica,sans-Serif" font-size="12.00" fill="white">RandomAccessCollection</text>
</a>
</g>
</g>
<!-- BidirectionalCollection&#45;&gt;RandomAccessCollection -->
<g id="edge24" class="edge">
<path fill="none" stroke="#cccccc" d="M1397.77,-115.988C1409.19,-107.678 1425.66,-95.7028 1438.92,-86.0554"/>
<polygon fill="#cccccc" stroke="#cccccc" points="1441.06,-88.8262 1447.09,-80.1138 1436.95,-83.165 1441.06,-88.8262"/>
</g>
<!-- BidirectionalIndexable -->
<g id="node5" class="node">
<g id="a_node5"><a xlink:href="/v3.0/protocol/BidirectionalIndexable/hierarchy/" target="_top">
<path fill="#999999" stroke="#999999" d="M1553.22,-196C1553.22,-196 1440.78,-196 1440.78,-196 1437.11,-196 1433.44,-192.333 1433.44,-188.667 1433.44,-188.667 1433.44,-181.333 1433.44,-181.333 1433.44,-177.667 1437.11,-174 1440.78,-174 1440.78,-174 1553.22,-174 1553.22,-174 1556.89,-174 1560.56,-177.667 1560.56,-181.333 1560.56,-181.333 1560.56,-188.667 1560.56,-188.667 1560.56,-192.333 1556.89,-196 1553.22,-196"/>
<text text-anchor="middle" x="1497" y="-181.4" font-family="Helvetica,sans-Serif" font-size="12.00" fill="white">BidirectionalIndexable</text>
</a>
</g>
</g>
<!-- BidirectionalIndexable&#45;&gt;BidirectionalCollection -->
<g id="edge28" class="edge">
<path fill="none" stroke="#cccccc" d="M1476.8,-173.988C1459.15,-165.243 1433.31,-152.438 1413.38,-142.559"/>
<polygon fill="#cccccc" stroke="#cccccc" points="1414.92,-139.418 1404.41,-138.114 1411.81,-145.69 1414.92,-139.418"/>
</g>
<!-- RandomAccessIndexable -->
<g id="node21" class="node">
<g id="a_node21"><a xlink:href="/v3.0/protocol/RandomAccessIndexable/hierarchy/" target="_top">
<path fill="#999999" stroke="#999999" d="M1604.73,-138C1604.73,-138 1473.27,-138 1473.27,-138 1469.61,-138 1465.94,-134.333 1465.94,-130.667 1465.94,-130.667 1465.94,-123.333 1465.94,-123.333 1465.94,-119.667 1469.61,-116 1473.27,-116 1473.27,-116 1604.73,-116 1604.73,-116 1608.39,-116 1612.06,-119.667 1612.06,-123.333 1612.06,-123.333 1612.06,-130.667 1612.06,-130.667 1612.06,-134.333 1608.39,-138 1604.73,-138"/>
<text text-anchor="middle" x="1539" y="-123.4" font-family="Helvetica,sans-Serif" font-size="12.00" fill="white">RandomAccessIndexable</text>
</a>
</g>
</g>
<!-- BidirectionalIndexable&#45;&gt;RandomAccessIndexable -->
<g id="edge25" class="edge">
<path fill="none" stroke="#cccccc" d="M1504.51,-173.988C1510.23,-166.359 1518.27,-155.64 1525.15,-146.47"/>
<polygon fill="#cccccc" stroke="#cccccc" points="1528.07,-148.404 1531.27,-138.304 1522.47,-144.204 1528.07,-148.404"/>
</g>
<!-- Collection -->
<g id="node6" class="node">
<g id="a_node6"><a xlink:href="/v3.0/protocol/Collection/hierarchy/" target="_top">
<path fill="#999999" stroke="#999999" d="M1407.69,-196C1407.69,-196 1360.31,-196 1360.31,-196 1356.65,-196 1352.98,-192.333 1352.98,-188.667 1352.98,-188.667 1352.98,-181.333 1352.98,-181.333 1352.98,-177.667 1356.65,-174 1360.31,-174 1360.31,-174 1407.69,-174 1407.69,-174 1411.35,-174 1415.02,-177.667 1415.02,-181.333 1415.02,-181.333 1415.02,-188.667 1415.02,-188.667 1415.02,-192.333 1411.35,-196 1407.69,-196"/>
<text text-anchor="middle" x="1384" y="-181.4" font-family="Helvetica,sans-Serif" font-size="12.00" fill="white">Collection</text>
</a>
</g>
</g>
<!-- Collection&#45;&gt;BidirectionalCollection -->
<g id="edge29" class="edge">
<path fill="none" stroke="#cccccc" d="M1384,-173.988C1384,-166.91 1384,-157.171 1384,-148.478"/>
<polygon fill="#cccccc" stroke="#cccccc" points="1387.5,-148.304 1384,-138.304 1380.5,-148.304 1387.5,-148.304"/>
</g>
<!-- CollectionOfOne -->
<g id="node7" class="node">
<g id="a_node7"><a xlink:href="/v3.0/type/CollectionOfOne/hierarchy/" target="_top">
<polygon fill="#999999" stroke="#999999" points="437.032,-22 338.968,-22 338.968,-0 437.032,-0 437.032,-22"/>
<text text-anchor="middle" x="388" y="-7.4" font-family="Helvetica,sans-Serif" font-size="12.00" fill="white">CollectionOfOne</text>
</a>
</g>
</g>
<!-- ContiguousArray -->
<g id="node8" class="node">
<g id="a_node8"><a xlink:href="/v3.0/type/ContiguousArray/hierarchy/" target="_top">
<polygon fill="#999999" stroke="#999999" points="554.534,-22 455.466,-22 455.466,-0 554.534,-0 554.534,-22"/>
<text text-anchor="middle" x="505" y="-7.4" font-family="Helvetica,sans-Serif" font-size="12.00" fill="white">ContiguousArray</text>
</a>
</g>
</g>
<!-- CountableClosedRange -->
<g id="node9" class="node">
<g id="a_node9"><a xlink:href="/v3.0/type/CountableClosedRange/hierarchy/" target="_top">
<polygon fill="#999999" stroke="#999999" points="709.567,-22 572.433,-22 572.433,-0 709.567,-0 709.567,-22"/>
<text text-anchor="middle" x="641" y="-7.4" font-family="Helvetica,sans-Serif" font-size="12.00" fill="white">CountableClosedRange</text>
</a>
</g>
</g>
<!-- CountableRange -->
<g id="node10" class="node">
<g id="a_node10"><a xlink:href="/v3.0/type/CountableRange/hierarchy/" target="_top">
<polygon fill="#999999" stroke="#999999" points="828.053,-22 727.947,-22 727.947,-0 828.053,-0 828.053,-22"/>
<text text-anchor="middle" x="778" y="-7.4" font-family="Helvetica,sans-Serif" font-size="12.00" fill="white">CountableRange</text>
</a>
</g>
</g>
<!-- DefaultRandomAccessIndices -->
<g id="node11" class="node">
<g id="a_node11"><a xlink:href="/v3.0/type/DefaultRandomAccessIndices/hierarchy/" target="_top">
<polygon fill="#999999" stroke="#999999" points="1016.06,-22 845.941,-22 845.941,-0 1016.06,-0 1016.06,-22"/>
<text text-anchor="middle" x="931" y="-7.4" font-family="Helvetica,sans-Serif" font-size="12.00" fill="white">DefaultRandomAccessIndices</text>
</a>
</g>
</g>
<!-- DictionaryLiteral -->
<g id="node12" class="node">
<g id="a_node12"><a xlink:href="/v3.0/type/DictionaryLiteral/hierarchy/" target="_top">
<polygon fill="#999999" stroke="#999999" points="1130.02,-22 1033.98,-22 1033.98,-0 1130.02,-0 1130.02,-22"/>
<text text-anchor="middle" x="1082" y="-7.4" font-family="Helvetica,sans-Serif" font-size="12.00" fill="white">DictionaryLiteral</text>
</a>
</g>
</g>
<!-- EmptyCollection -->
<g id="node13" class="node">
<g id="a_node13"><a xlink:href="/v3.0/type/EmptyCollection/hierarchy/" target="_top">
<polygon fill="#999999" stroke="#999999" points="1244.03,-22 1147.97,-22 1147.97,-0 1244.03,-0 1244.03,-22"/>
<text text-anchor="middle" x="1196" y="-7.4" font-family="Helvetica,sans-Serif" font-size="12.00" fill="white">EmptyCollection</text>
</a>
</g>
</g>
<!-- Indexable -->
<g id="node14" class="node">
<g id="a_node14"><a xlink:href="/v3.0/protocol/Indexable/hierarchy/" target="_top">
<path fill="#999999" stroke="#999999" d="M1504.7,-254C1504.7,-254 1457.3,-254 1457.3,-254 1453.63,-254 1449.97,-250.333 1449.97,-246.667 1449.97,-246.667 1449.97,-239.333 1449.97,-239.333 1449.97,-235.667 1453.63,-232 1457.3,-232 1457.3,-232 1504.7,-232 1504.7,-232 1508.37,-232 1512.03,-235.667 1512.03,-239.333 1512.03,-239.333 1512.03,-246.667 1512.03,-246.667 1512.03,-250.333 1508.37,-254 1504.7,-254"/>
<text text-anchor="middle" x="1481" y="-239.4" font-family="Helvetica,sans-Serif" font-size="12.00" fill="white">Indexable</text>
</a>
</g>
</g>
<!-- Indexable&#45;&gt;BidirectionalIndexable -->
<g id="edge26" class="edge">
<path fill="none" stroke="#cccccc" d="M1483.86,-231.988C1485.91,-224.831 1488.73,-214.955 1491.23,-206.189"/>
<polygon fill="#cccccc" stroke="#cccccc" points="1494.67,-206.881 1494.06,-196.304 1487.94,-204.958 1494.67,-206.881"/>
</g>
<!-- Indexable&#45;&gt;Collection -->
<g id="edge30" class="edge">
<path fill="none" stroke="#cccccc" d="M1463.66,-231.988C1448.85,-223.441 1427.33,-211.015 1410.39,-201.234"/>
<polygon fill="#cccccc" stroke="#cccccc" points="1411.93,-198.083 1401.52,-196.114 1408.43,-204.145 1411.93,-198.083"/>
</g>
<!-- IndexableBase -->
<g id="node15" class="node">
<g id="a_node15"><a xlink:href="/v3.0/protocol/IndexableBase/hierarchy/" target="_top">
<path fill="#999999" stroke="#999999" d="M1518.21,-312C1518.21,-312 1443.79,-312 1443.79,-312 1440.12,-312 1436.45,-308.333 1436.45,-304.667 1436.45,-304.667 1436.45,-297.333 1436.45,-297.333 1436.45,-293.667 1440.12,-290 1443.79,-290 1443.79,-290 1518.21,-290 1518.21,-290 1521.88,-290 1525.55,-293.667 1525.55,-297.333 1525.55,-297.333 1525.55,-304.667 1525.55,-304.667 1525.55,-308.333 1521.88,-312 1518.21,-312"/>
<text text-anchor="middle" x="1481" y="-297.4" font-family="Helvetica,sans-Serif" font-size="12.00" fill="white">IndexableBase</text>
</a>
</g>
</g>
<!-- IndexableBase&#45;&gt;Indexable -->
<g id="edge27" class="edge">
<path fill="none" stroke="#cccccc" d="M1481,-289.988C1481,-282.91 1481,-273.171 1481,-264.478"/>
<polygon fill="#cccccc" stroke="#cccccc" points="1484.5,-264.304 1481,-254.304 1477.5,-264.304 1484.5,-264.304"/>
</g>
<!-- LazyMapRandomAccessCollection -->
<g id="node16" class="node">
<g id="a_node16"><a xlink:href="/v3.0/type/LazyMapRandomAccessCollection/hierarchy/" target="_top">
<polygon fill="#999999" stroke="#999999" points="1457.56,-22 1262.44,-22 1262.44,-0 1457.56,-0 1457.56,-22"/>
<text text-anchor="middle" x="1360" y="-7.4" font-family="Helvetica,sans-Serif" font-size="12.00" fill="white">LazyMapRandomAccessCollection</text>
</a>
</g>
</g>
<!-- LazyRandomAccessCollection -->
<g id="node17" class="node">
<g id="a_node17"><a xlink:href="/v3.0/type/LazyRandomAccessCollection/hierarchy/" target="_top">
<polygon fill="#999999" stroke="#999999" points="1648.06,-22 1475.94,-22 1475.94,-0 1648.06,-0 1648.06,-22"/>
<text text-anchor="middle" x="1562" y="-7.4" font-family="Helvetica,sans-Serif" font-size="12.00" fill="white">LazyRandomAccessCollection</text>
</a>
</g>
</g>
<!-- MutableRandomAccessSlice -->
<g id="node18" class="node">
<g id="a_node18"><a xlink:href="/v3.0/type/MutableRandomAccessSlice/hierarchy/" target="_top">
<polygon fill="#999999" stroke="#999999" points="1828.05,-22 1665.95,-22 1665.95,-0 1828.05,-0 1828.05,-22"/>
<text text-anchor="middle" x="1747" y="-7.4" font-family="Helvetica,sans-Serif" font-size="12.00" fill="white">MutableRandomAccessSlice</text>
</a>
</g>
</g>
<!-- MutableRangeReplaceableRandomAccessSlice -->
<g id="node19" class="node">
<g id="a_node19"><a xlink:href="/v3.0/type/MutableRangeReplaceableRandomAccessSlice/hierarchy/" target="_top">
<polygon fill="#999999" stroke="#999999" points="2111.11,-22 1846.89,-22 1846.89,-0 2111.11,-0 2111.11,-22"/>
<text text-anchor="middle" x="1979" y="-7.4" font-family="Helvetica,sans-Serif" font-size="12.00" fill="white">MutableRangeReplaceableRandomAccessSlice</text>
</a>
</g>
</g>
<!-- RandomAccessCollection&#45;&gt;AnyRandomAccessCollection -->
<g id="edge1" class="edge">
<path fill="none" stroke="#cccccc" d="M1387.74,-67.2059C1192.66,-64.6985 644.197,-55.0855 176.616,-21.9882"/>
<polygon fill="#cccccc" stroke="#cccccc" points="176.85,-18.496 166.626,-21.2766 176.352,-25.4784 176.85,-18.496"/>
</g>
<!-- RandomAccessCollection&#45;&gt;Array -->
<g id="edge2" class="edge">
<path fill="none" stroke="#cccccc" d="M1387.8,-67.4573C1163.82,-65.4497 488.988,-56.7329 249.424,-21.8323"/>
<polygon fill="#cccccc" stroke="#cccccc" points="249.784,-18.347 239.373,-20.3121 248.737,-25.2683 249.784,-18.347"/>
</g>
<!-- RandomAccessCollection&#45;&gt;ArraySlice -->
<g id="edge3" class="edge">
<path fill="none" stroke="#cccccc" d="M1387.86,-66.9225C1174.54,-63.4838 554.573,-51.3119 331.13,-21.8419"/>
<polygon fill="#cccccc" stroke="#cccccc" points="331.494,-18.3591 321.112,-20.4708 330.545,-25.2945 331.494,-18.3591"/>
</g>
<!-- RandomAccessCollection&#45;&gt;CollectionOfOne -->
<g id="edge4" class="edge">
<path fill="none" stroke="#cccccc" d="M1387.83,-67.8253C1222.09,-66.7501 805.223,-60.2258 447.34,-22.0151"/>
<polygon fill="#cccccc" stroke="#cccccc" points="447.619,-18.5251 437.302,-20.9333 446.869,-25.4848 447.619,-18.5251"/>
</g>
<!-- RandomAccessCollection&#45;&gt;ContiguousArray -->
<g id="edge5" class="edge">
<path fill="none" stroke="#cccccc" d="M1387.72,-67.2094C1235.91,-64.9274 875.901,-56.1789 564.738,-22.0763"/>
<polygon fill="#cccccc" stroke="#cccccc" points="564.943,-18.5778 554.618,-20.9564 564.173,-25.5353 564.943,-18.5778"/>
</g>
<!-- RandomAccessCollection&#45;&gt;CountableClosedRange -->
<g id="edge6" class="edge">
<path fill="none" stroke="#cccccc" d="M1387.94,-65.0623C1256.51,-59.4277 971.259,-45.6078 719.527,-21.9863"/>
<polygon fill="#cccccc" stroke="#cccccc" points="719.741,-18.4911 709.456,-21.0344 719.082,-25.46 719.741,-18.4911"/>
</g>
<!-- RandomAccessCollection&#45;&gt;CountableRange -->
<g id="edge7" class="edge">
<path fill="none" stroke="#cccccc" d="M1387.77,-64.8437C1272.85,-59.3947 1042.98,-46.4987 838.205,-22.0443"/>
<polygon fill="#cccccc" stroke="#cccccc" points="838.512,-18.5561 828.165,-20.8335 837.674,-25.5057 838.512,-18.5561"/>
</g>
<!-- RandomAccessCollection&#45;&gt;DefaultRandomAccessIndices -->
<g id="edge8" class="edge">
<path fill="none" stroke="#cccccc" d="M1387.71,-60.2874C1303.19,-51.3881 1159.76,-36.2724 1026.07,-22.1128"/>
<polygon fill="#cccccc" stroke="#cccccc" points="1026.37,-18.6246 1016.05,-21.0516 1025.63,-25.5857 1026.37,-18.6246"/>
</g>
<!-- RandomAccessCollection&#45;&gt;DictionaryLiteral -->
<g id="edge9" class="edge">
<path fill="none" stroke="#cccccc" d="M1387.69,-58.202C1324.65,-49.6229 1231.05,-36.515 1140.11,-22.1404"/>
<polygon fill="#cccccc" stroke="#cccccc" points="1140.61,-18.6755 1130.18,-20.5642 1139.51,-25.5889 1140.61,-18.6755"/>
</g>
<!-- RandomAccessCollection&#45;&gt;EmptyCollection -->
<g id="edge10" class="edge">
<path fill="none" stroke="#cccccc" d="M1413.62,-57.9883C1368.73,-48.5015 1301.23,-34.237 1253.32,-24.1134"/>
<polygon fill="#cccccc" stroke="#cccccc" points="1253.92,-20.6625 1243.41,-22.0192 1252.47,-27.5113 1253.92,-20.6625"/>
</g>
<!-- RandomAccessCollection&#45;&gt;LazyMapRandomAccessCollection -->
<g id="edge11" class="edge">
<path fill="none" stroke="#cccccc" d="M1442.94,-57.9883C1427.38,-49.3619 1404.7,-36.785 1386.99,-26.9633"/>
<polygon fill="#cccccc" stroke="#cccccc" points="1388.68,-23.902 1378.24,-22.1138 1385.29,-30.0239 1388.68,-23.902"/>
</g>
<!-- RandomAccessCollection&#45;&gt;LazyRandomAccessCollection -->
<g id="edge12" class="edge">
<path fill="none" stroke="#cccccc" d="M1479.06,-57.9883C1494.62,-49.3619 1517.3,-36.785 1535.01,-26.9633"/>
<polygon fill="#cccccc" stroke="#cccccc" points="1536.71,-30.0239 1543.76,-22.1138 1533.32,-23.902 1536.71,-30.0239"/>
</g>
<!-- RandomAccessCollection&#45;&gt;MutableRandomAccessSlice -->
<g id="edge13" class="edge">
<path fill="none" stroke="#cccccc" d="M1512.13,-57.9883C1560.78,-48.4618 1634.04,-34.1176 1685.78,-23.9866"/>
<polygon fill="#cccccc" stroke="#cccccc" points="1686.69,-27.3757 1695.83,-22.0192 1685.34,-20.5061 1686.69,-27.3757"/>
</g>
<!-- RandomAccessCollection&#45;&gt;MutableRangeReplaceableRandomAccessSlice -->
<g id="edge14" class="edge">
<path fill="none" stroke="#cccccc" d="M1534.12,-60.0953C1623.36,-50.4473 1774.84,-34.0713 1875.89,-23.1465"/>
<polygon fill="#cccccc" stroke="#cccccc" points="1876.56,-26.5953 1886.12,-22.0407 1875.81,-19.6359 1876.56,-26.5953"/>
</g>
<!-- RandomAccessSlice -->
<g id="node22" class="node">
<g id="a_node22"><a xlink:href="/v3.0/type/RandomAccessSlice/hierarchy/" target="_top">
<polygon fill="#999999" stroke="#999999" points="2249.03,-22 2128.97,-22 2128.97,-0 2249.03,-0 2249.03,-22"/>
<text text-anchor="middle" x="2189" y="-7.4" font-family="Helvetica,sans-Serif" font-size="12.00" fill="white">RandomAccessSlice</text>
</a>
</g>
</g>
<!-- RandomAccessCollection&#45;&gt;RandomAccessSlice -->
<g id="edge15" class="edge">
<path fill="none" stroke="#cccccc" d="M1534.29,-64.6638C1654.28,-58.8095 1900.3,-45.1622 2118.77,-22.0616"/>
<polygon fill="#cccccc" stroke="#cccccc" points="2119.25,-25.5303 2128.82,-20.9898 2118.51,-18.5698 2119.25,-25.5303"/>
</g>
<!-- RangeReplaceableRandomAccessSlice -->
<g id="node23" class="node">
<g id="a_node23"><a xlink:href="/v3.0/type/RangeReplaceableRandomAccessSlice/hierarchy/" target="_top">
<polygon fill="#999999" stroke="#999999" points="2489.09,-22 2266.91,-22 2266.91,-0 2489.09,-0 2489.09,-22"/>
<text text-anchor="middle" x="2378" y="-7.4" font-family="Helvetica,sans-Serif" font-size="12.00" fill="white">RangeReplaceableRandomAccessSlice</text>
</a>
</g>
</g>
<!-- RandomAccessCollection&#45;&gt;RangeReplaceableRandomAccessSlice -->
<g id="edge16" class="edge">
<path fill="none" stroke="#cccccc" d="M1534.11,-64.4047C1672.78,-57.4488 1983.8,-41.194 2256.76,-22.0719"/>
<polygon fill="#cccccc" stroke="#cccccc" points="2257.13,-25.5545 2266.86,-21.3617 2256.64,-18.5717 2257.13,-25.5545"/>
</g>
<!-- Repeated -->
<g id="node24" class="node">
<g id="a_node24"><a xlink:href="/v3.0/type/Repeated/hierarchy/" target="_top">
<polygon fill="#999999" stroke="#999999" points="2569.03,-22 2506.97,-22 2506.97,-0 2569.03,-0 2569.03,-22"/>
<text text-anchor="middle" x="2538" y="-7.4" font-family="Helvetica,sans-Serif" font-size="12.00" fill="white">Repeated</text>
</a>
</g>
</g>
<!-- RandomAccessCollection&#45;&gt;Repeated -->
<g id="edge17" class="edge">
<path fill="none" stroke="#cccccc" d="M1534.18,-66.6629C1735,-62.6947 2292.71,-49.5916 2496.65,-21.8784"/>
<polygon fill="#cccccc" stroke="#cccccc" points="2497.26,-25.327 2506.68,-20.4624 2496.28,-18.3958 2497.26,-25.327"/>
</g>
<!-- ReversedRandomAccessCollection -->
<g id="node25" class="node">
<g id="a_node25"><a xlink:href="/v3.0/type/ReversedRandomAccessCollection/hierarchy/" target="_top">
<polygon fill="#999999" stroke="#999999" points="2785.06,-22 2586.94,-22 2586.94,-0 2785.06,-0 2785.06,-22"/>
<text text-anchor="middle" x="2686" y="-7.4" font-family="Helvetica,sans-Serif" font-size="12.00" fill="white">ReversedRandomAccessCollection</text>
</a>
</g>
</g>
<!-- RandomAccessCollection&#45;&gt;ReversedRandomAccessCollection -->
<g id="edge18" class="edge">
<path fill="none" stroke="#cccccc" d="M1534.26,-66.2804C1711.37,-61.8424 2177.06,-48.5014 2576.83,-22.0461"/>
<polygon fill="#cccccc" stroke="#cccccc" points="2577.1,-25.5354 2586.85,-21.3791 2576.64,-18.5509 2577.1,-25.5354"/>
</g>
<!-- UnsafeBufferPointer -->
<g id="node27" class="node">
<g id="a_node27"><a xlink:href="/v3.0/type/UnsafeBufferPointer/hierarchy/" target="_top">
<polygon fill="#999999" stroke="#999999" points="2920.39,-22 2803.61,-22 2803.61,-0 2920.39,-0 2920.39,-22"/>
<text text-anchor="middle" x="2862" y="-7.4" font-family="Helvetica,sans-Serif" font-size="12.00" fill="white">UnsafeBufferPointer</text>
</a>
</g>
</g>
<!-- RandomAccessCollection&#45;&gt;UnsafeBufferPointer -->
<g id="edge19" class="edge">
<path fill="none" stroke="#cccccc" d="M1534.15,-68.3345C1734.15,-68.6366 2306.99,-65.4039 2793.41,-21.9376"/>
<polygon fill="#cccccc" stroke="#cccccc" points="2793.8,-25.4171 2803.44,-21.0344 2793.17,-18.4453 2793.8,-25.4171"/>
</g>
<!-- UnsafeMutableBufferPointer -->
<g id="node28" class="node">
<g id="a_node28"><a xlink:href="/v3.0/type/UnsafeMutableBufferPointer/hierarchy/" target="_top">
<polygon fill="#999999" stroke="#999999" points="3098.91,-22 2939.09,-22 2939.09,-0 3098.91,-0 3098.91,-22"/>
<text text-anchor="middle" x="3019" y="-7.4" font-family="Helvetica,sans-Serif" font-size="12.00" fill="white">UnsafeMutableBufferPointer</text>
</a>
</g>
</g>
<!-- RandomAccessCollection&#45;&gt;UnsafeMutableBufferPointer -->
<g id="edge20" class="edge">
<path fill="none" stroke="#cccccc" d="M1534.42,-67.7571C1749.21,-66.6037 2394.88,-59.9817 2929,-22 2929.1,-21.9927 2929.21,-21.9853 2929.31,-21.978"/>
<polygon fill="#cccccc" stroke="#cccccc" points="2929.35,-25.4859 2939.04,-21.2172 2928.8,-18.5071 2929.35,-25.4859"/>
</g>
<!-- UnsafeMutableRawBufferPointer -->
<g id="node29" class="node">
<g id="a_node29"><a xlink:href="/v3.0/type/UnsafeMutableRawBufferPointer/hierarchy/" target="_top">
<polygon fill="#999999" stroke="#999999" points="3301.91,-22 3118.09,-22 3118.09,-0 3301.91,-0 3301.91,-22"/>
<text text-anchor="middle" x="3210" y="-7.4" font-family="Helvetica,sans-Serif" font-size="12.00" fill="white">UnsafeMutableRawBufferPointer</text>
</a>
</g>
</g>
<!-- RandomAccessCollection&#45;&gt;UnsafeMutableRawBufferPointer -->
<g id="edge21" class="edge">
<path fill="none" stroke="#cccccc" d="M1534.14,-67.7764C1765.27,-66.6801 2500.63,-60.208 3108,-22 3108.1,-21.9935 3108.21,-21.9871 3108.31,-21.9806"/>
<polygon fill="#cccccc" stroke="#cccccc" points="3108.27,-25.4917 3118,-21.3172 3107.79,-18.508 3108.27,-25.4917"/>
</g>
<!-- UnsafeRawBufferPointer -->
<g id="node30" class="node">
<g id="a_node30"><a xlink:href="/v3.0/type/UnsafeRawBufferPointer/hierarchy/" target="_top">
<polygon fill="#999999" stroke="#999999" points="3461.39,-22 3320.61,-22 3320.61,-0 3461.39,-0 3461.39,-22"/>
<text text-anchor="middle" x="3391" y="-7.4" font-family="Helvetica,sans-Serif" font-size="12.00" fill="white">UnsafeRawBufferPointer</text>
</a>
</g>
</g>
<!-- RandomAccessCollection&#45;&gt;UnsafeRawBufferPointer -->
<g id="edge22" class="edge">
<path fill="none" stroke="#cccccc" d="M1534.16,-67.1548C1829.61,-63.5925 2936.23,-48.7707 3310.32,-21.9522"/>
<polygon fill="#cccccc" stroke="#cccccc" points="3310.65,-25.4376 3320.37,-21.2158 3310.14,-18.4563 3310.65,-25.4376"/>
</g>
<!-- RandomAccessIndexable&#45;&gt;RandomAccessCollection -->
<g id="edge23" class="edge">
<path fill="none" stroke="#cccccc" d="M1525.06,-115.988C1513.48,-107.678 1496.8,-95.7028 1483.36,-86.0554"/>
<polygon fill="#cccccc" stroke="#cccccc" points="1485.25,-83.1028 1475.09,-80.1138 1481.17,-88.7891 1485.25,-83.1028"/>
</g>
<!-- Sequence -->
<g id="node26" class="node">
<g id="a_node26"><a xlink:href="/v3.0/protocol/Sequence/hierarchy/" target="_top">
<path fill="#999999" stroke="#999999" d="M1408.7,-254C1408.7,-254 1359.3,-254 1359.3,-254 1355.63,-254 1351.96,-250.333 1351.96,-246.667 1351.96,-246.667 1351.96,-239.333 1351.96,-239.333 1351.96,-235.667 1355.63,-232 1359.3,-232 1359.3,-232 1408.7,-232 1408.7,-232 1412.37,-232 1416.04,-235.667 1416.04,-239.333 1416.04,-239.333 1416.04,-246.667 1416.04,-246.667 1416.04,-250.333 1412.37,-254 1408.7,-254"/>
<text text-anchor="middle" x="1384" y="-239.4" font-family="Helvetica,sans-Serif" font-size="12.00" fill="white">Sequence</text>
</a>
</g>
</g>
<!-- Sequence&#45;&gt;Collection -->
<g id="edge31" class="edge">
<path fill="none" stroke="#cccccc" d="M1384,-231.988C1384,-224.91 1384,-215.171 1384,-206.478"/>
<polygon fill="#cccccc" stroke="#cccccc" points="1387.5,-206.304 1384,-196.304 1380.5,-206.304 1387.5,-206.304"/>
</g>
</g>
</svg>
