<?xml version="1.0" encoding="UTF-8" standalone="no"?>
<!DOCTYPE svg PUBLIC "-//W3C//DTD SVG 1.1//EN"
 "http://www.w3.org/Graphics/SVG/1.1/DTD/svg11.dtd">
<!-- Generated by graphviz version 2.36.0 (20140111.2315)
 -->
<!-- Title: ManagedProtoBuffer&lt;Value, Element&gt; &#45; Type Hierarchy &#45; SwiftDoc.org Pages: 1 -->
<svg width="474pt" height="137pt"
 viewBox="0.00 0.00 474.40 137.20" xmlns="http://www.w3.org/2000/svg" xmlns:xlink="http://www.w3.org/1999/xlink">
<g id="graph0" class="graph" transform="scale(1 1) rotate(0) translate(7.2 79.6)">
<title>ManagedProtoBuffer&lt;Value, Element&gt; &#45; Type Hierarchy &#45; SwiftDoc.org</title>
<polygon fill="white" stroke="none" points="-7.2,57.6 -7.2,-79.6 467.2,-79.6 467.2,57.6 -7.2,57.6"/>
<!-- ManagedBuffer -->
<g id="node1" class="node"><title>ManagedBuffer</title>
<g id="a_node1"><a xlink:href="/type/ManagedBuffer/" xlink:title="ManagedBuffer">
<polygon fill="#999999" stroke="#999999" points="460.384,-22 369.616,-22 369.616,-0 460.384,-0 460.384,-22"/>
<text text-anchor="middle" x="415" y="-7.4" font-family="Helvetica,sans-Serif" font-size="12.00" fill="white">ManagedBuffer</text>
</a>
</g>
</g>
<!-- ManagedProtoBuffer&lt;Value, Element&gt; -->
<g id="node2" class="node"><title>ManagedProtoBuffer&lt;Value, Element&gt;</title>
<g id="a_node2"><a xlink:href="/type/ManagedProtoBuffer/" xlink:title="ManagedProtoBuffer&lt;Value, Element&gt;">
<polygon fill="#ee543d" stroke="#ee543d" points="351.278,-22 136.722,-22 136.722,-0 351.278,-0 351.278,-22"/>
<text text-anchor="middle" x="244" y="-7.4" font-family="Helvetica,sans-Serif" font-size="12.00" fill="white">ManagedProtoBuffer&lt;Value, Element&gt;</text>
</a>
</g>
</g>
<!-- ManagedProtoBuffer&lt;Value, Element&gt;&#45;&gt;ManagedBuffer -->
<g id="edge1" class="edge"><title>ManagedProtoBuffer&lt;Value, Element&gt;&#45;&gt;ManagedBuffer</title>
<path fill="none" stroke="#cccccc" d="M351.543,-11C354.146,-11 356.748,-11 359.351,-11"/>
<polygon fill="#cccccc" stroke="#cccccc" points="359.39,-14.5001 369.39,-11 359.39,-7.5001 359.39,-14.5001"/>
</g>
<!-- NonObjectiveCBase -->
<g id="node3" class="node"><title>NonObjectiveCBase</title>
<g id="a_node3"><a xlink:href="/type/NonObjectiveCBase/" xlink:title="NonObjectiveCBase">
<polygon fill="#999999" stroke="#999999" points="118.04,-22 -0.0395567,-22 -0.0395567,-0 118.04,-0 118.04,-22"/>
<text text-anchor="middle" x="59" y="-7.4" font-family="Helvetica,sans-Serif" font-size="12.00" fill="white">NonObjectiveCBase</text>
</a>
</g>
</g>
<!-- NonObjectiveCBase&#45;&gt;ManagedProtoBuffer&lt;Value, Element&gt; -->
<g id="edge2" class="edge"><title>NonObjectiveCBase&#45;&gt;ManagedProtoBuffer&lt;Value, Element&gt;</title>
<path fill="none" stroke="#cccccc" d="M118.258,-11C120.908,-11 123.558,-11 126.209,-11"/>
<polygon fill="#cccccc" stroke="#cccccc" points="126.432,-14.5001 136.431,-11 126.431,-7.5001 126.432,-14.5001"/>
</g>
</g>
</svg>
