<?xml version="1.0" encoding="UTF-8" standalone="no"?>
<!DOCTYPE svg PUBLIC "-//W3C//DTD SVG 1.1//EN"
 "http://www.w3.org/Graphics/SVG/1.1/DTD/svg11.dtd">
<!-- Generated by graphviz version 2.36.0 (20140111.2315)
 -->
<!-- Title: StaticString &#45; Type Hierarchy &#45; SwiftDoc.org Pages: 1 -->
<svg width="410pt" height="311pt"
 viewBox="0.00 0.00 410.40 311.20" xmlns="http://www.w3.org/2000/svg" xmlns:xlink="http://www.w3.org/1999/xlink">
<g id="graph0" class="graph" transform="scale(1 1) rotate(0) translate(7.2 253.6)">
<title>StaticString &#45; Type Hierarchy &#45; SwiftDoc.org</title>
<polygon fill="white" stroke="none" points="-7.2,57.6 -7.2,-253.6 403.2,-253.6 403.2,57.6 -7.2,57.6"/>
<!-- DebugPrintable -->
<g id="node1" class="node"><title>DebugPrintable</title>
<g id="a_node1"><a xlink:href="/protocol/DebugPrintable/" xlink:title="DebugPrintable">
<path fill="#999999" stroke="#999999" d="M84.7096,-80C84.7096,-80 7.29039,-80 7.29039,-80 3.62372,-80 -0.0429445,-76.3333 -0.0429445,-72.6667 -0.0429445,-72.6667 -0.0429445,-65.3333 -0.0429445,-65.3333 -0.0429445,-61.6667 3.62372,-58 7.29039,-58 7.29039,-58 84.7096,-58 84.7096,-58 88.3763,-58 92.0429,-61.6667 92.0429,-65.3333 92.0429,-65.3333 92.0429,-72.6667 92.0429,-72.6667 92.0429,-76.3333 88.3763,-80 84.7096,-80"/>
<text text-anchor="middle" x="46" y="-65.4" font-family="Helvetica,sans-Serif" font-size="12.00" fill="white">DebugPrintable</text>
</a>
</g>
</g>
<!-- StaticString -->
<g id="node4" class="node"><title>StaticString</title>
<g id="a_node4"><a xlink:href="/type/StaticString/" xlink:title="StaticString">
<polygon fill="#ee543d" stroke="#ee543d" points="250.519,-22 179.481,-22 179.481,-0 250.519,-0 250.519,-22"/>
<text text-anchor="middle" x="215" y="-7.4" font-family="Helvetica,sans-Serif" font-size="12.00" fill="white">StaticString</text>
</a>
</g>
</g>
<!-- DebugPrintable&#45;&gt;StaticString -->
<g id="edge5" class="edge"><title>DebugPrintable&#45;&gt;StaticString</title>
<path fill="none" stroke="#cccccc" d="M76.2138,-57.9883C103.766,-48.8587 144.67,-35.3046 174.94,-25.2743"/>
<polygon fill="#cccccc" stroke="#cccccc" points="176.372,-28.4871 184.763,-22.0192 174.17,-21.8424 176.372,-28.4871"/>
</g>
<!-- ExtendedGraphemeClusterLiteralConvertible -->
<g id="node2" class="node"><title>ExtendedGraphemeClusterLiteralConvertible</title>
<g id="a_node2"><a xlink:href="/protocol/ExtendedGraphemeClusterLiteralConvertible/" xlink:title="ExtendedGraphemeClusterLiteralConvertible">
<path fill="#999999" stroke="#999999" d="M274.762,-138C274.762,-138 41.2384,-138 41.2384,-138 37.5717,-138 33.905,-134.333 33.905,-130.667 33.905,-130.667 33.905,-123.333 33.905,-123.333 33.905,-119.667 37.5717,-116 41.2384,-116 41.2384,-116 274.762,-116 274.762,-116 278.428,-116 282.095,-119.667 282.095,-123.333 282.095,-123.333 282.095,-130.667 282.095,-130.667 282.095,-134.333 278.428,-138 274.762,-138"/>
<text text-anchor="middle" x="158" y="-123.4" font-family="Helvetica,sans-Serif" font-size="12.00" fill="white">ExtendedGraphemeClusterLiteralConvertible</text>
</a>
</g>
</g>
<!-- ExtendedGraphemeClusterLiteralConvertible&#45;&gt;StaticString -->
<g id="edge2" class="edge"><title>ExtendedGraphemeClusterLiteralConvertible&#45;&gt;StaticString</title>
<path fill="none" stroke="#cccccc" d="M150.49,-115.735C141.36,-101.887 128.407,-76.7938 139,-58 146.952,-43.8924 161.166,-33.619 175.168,-26.4077"/>
<polygon fill="#cccccc" stroke="#cccccc" points="176.727,-29.5418 184.27,-22.1016 173.734,-23.2142 176.727,-29.5418"/>
</g>
<!-- StringLiteralConvertible -->
<g id="node5" class="node"><title>StringLiteralConvertible</title>
<g id="a_node5"><a xlink:href="/protocol/StringLiteralConvertible/" xlink:title="StringLiteralConvertible">
<path fill="#999999" stroke="#999999" d="M274.714,-80C274.714,-80 155.286,-80 155.286,-80 151.62,-80 147.953,-76.3333 147.953,-72.6667 147.953,-72.6667 147.953,-65.3333 147.953,-65.3333 147.953,-61.6667 151.62,-58 155.286,-58 155.286,-58 274.714,-58 274.714,-58 278.38,-58 282.047,-61.6667 282.047,-65.3333 282.047,-65.3333 282.047,-72.6667 282.047,-72.6667 282.047,-76.3333 278.38,-80 274.714,-80"/>
<text text-anchor="middle" x="215" y="-65.4" font-family="Helvetica,sans-Serif" font-size="12.00" fill="white">StringLiteralConvertible</text>
</a>
</g>
</g>
<!-- ExtendedGraphemeClusterLiteralConvertible&#45;&gt;StringLiteralConvertible -->
<g id="edge7" class="edge"><title>ExtendedGraphemeClusterLiteralConvertible&#45;&gt;StringLiteralConvertible</title>
<path fill="none" stroke="#cccccc" d="M168.19,-115.988C176.276,-108.045 187.771,-96.7512 197.346,-87.3439"/>
<polygon fill="#cccccc" stroke="#cccccc" points="199.832,-89.8088 204.512,-80.3039 194.926,-84.8154 199.832,-89.8088"/>
</g>
<!-- Printable -->
<g id="node3" class="node"><title>Printable</title>
<g id="a_node3"><a xlink:href="/protocol/Printable/" xlink:title="Printable">
<path fill="#999999" stroke="#999999" d="M388.187,-80C388.187,-80 345.813,-80 345.813,-80 342.147,-80 338.48,-76.3333 338.48,-72.6667 338.48,-72.6667 338.48,-65.3333 338.48,-65.3333 338.48,-61.6667 342.147,-58 345.813,-58 345.813,-58 388.187,-58 388.187,-58 391.853,-58 395.52,-61.6667 395.52,-65.3333 395.52,-65.3333 395.52,-72.6667 395.52,-72.6667 395.52,-76.3333 391.853,-80 388.187,-80"/>
<text text-anchor="middle" x="367" y="-65.4" font-family="Helvetica,sans-Serif" font-size="12.00" fill="white">Printable</text>
</a>
</g>
</g>
<!-- Printable&#45;&gt;StaticString -->
<g id="edge4" class="edge"><title>Printable&#45;&gt;StaticString</title>
<path fill="none" stroke="#cccccc" d="M339.825,-57.9883C315.261,-48.9381 278.894,-35.5399 251.742,-25.5367"/>
<polygon fill="#cccccc" stroke="#cccccc" points="252.789,-22.1922 242.195,-22.0192 250.369,-28.7606 252.789,-22.1922"/>
</g>
<!-- StringLiteralConvertible&#45;&gt;StaticString -->
<g id="edge3" class="edge"><title>StringLiteralConvertible&#45;&gt;StaticString</title>
<path fill="none" stroke="#cccccc" d="M215,-57.9883C215,-50.9098 215,-41.1714 215,-32.4779"/>
<polygon fill="#cccccc" stroke="#cccccc" points="218.5,-32.3038 215,-22.3039 211.5,-32.3039 218.5,-32.3038"/>
</g>
<!-- UnicodeScalarLiteralConvertible -->
<g id="node6" class="node"><title>UnicodeScalarLiteralConvertible</title>
<g id="a_node6"><a xlink:href="/protocol/UnicodeScalarLiteralConvertible/" xlink:title="UnicodeScalarLiteralConvertible">
<path fill="#999999" stroke="#999999" d="M317.233,-196C317.233,-196 150.767,-196 150.767,-196 147.101,-196 143.434,-192.333 143.434,-188.667 143.434,-188.667 143.434,-181.333 143.434,-181.333 143.434,-177.667 147.101,-174 150.767,-174 150.767,-174 317.233,-174 317.233,-174 320.899,-174 324.566,-177.667 324.566,-181.333 324.566,-181.333 324.566,-188.667 324.566,-188.667 324.566,-192.333 320.899,-196 317.233,-196"/>
<text text-anchor="middle" x="234" y="-181.4" font-family="Helvetica,sans-Serif" font-size="12.00" fill="white">UnicodeScalarLiteralConvertible</text>
</a>
</g>
</g>
<!-- UnicodeScalarLiteralConvertible&#45;&gt;ExtendedGraphemeClusterLiteralConvertible -->
<g id="edge6" class="edge"><title>UnicodeScalarLiteralConvertible&#45;&gt;ExtendedGraphemeClusterLiteralConvertible</title>
<path fill="none" stroke="#cccccc" d="M220.413,-173.988C209.135,-165.678 192.882,-153.703 179.789,-144.055"/>
<polygon fill="#cccccc" stroke="#cccccc" points="181.853,-141.228 171.726,-138.114 177.7,-146.864 181.853,-141.228"/>
</g>
<!-- UnicodeScalarLiteralConvertible&#45;&gt;StaticString -->
<g id="edge1" class="edge"><title>UnicodeScalarLiteralConvertible&#45;&gt;StaticString</title>
<path fill="none" stroke="#cccccc" d="M254.058,-173.951C267.228,-166.138 283.377,-153.947 291,-138 306.334,-105.921 308.458,-88.9742 291,-58 283.048,-43.8924 268.834,-33.619 254.832,-26.4077"/>
<polygon fill="#cccccc" stroke="#cccccc" points="256.266,-23.2142 245.73,-22.1016 253.273,-29.5418 256.266,-23.2142"/>
</g>
</g>
</svg>
