<?xml version="1.0" encoding="UTF-8" standalone="no"?>
<!DOCTYPE svg PUBLIC "-//W3C//DTD SVG 1.1//EN"
 "http://www.w3.org/Graphics/SVG/1.1/DTD/svg11.dtd">
<!-- Generated by graphviz version 2.36.0 (20140111.2315)
 -->
<!-- Title: LazySequenceProtocol &#45; Type Hierarchy &#45; SwiftDoc.org Pages: 1 -->
<svg width="2822pt" height="311pt"
 viewBox="0.00 0.00 2822.40 311.20" xmlns="http://www.w3.org/2000/svg" xmlns:xlink="http://www.w3.org/1999/xlink">
<g id="graph0" class="graph" transform="scale(1 1) rotate(0) translate(7.2 253.6)">
<g transform="translate(0 -253.6)">
<g>
    <path fill="#666666" d="M13.846,10.832c-0.336-0.464-0.792-0.844-1.368-1.14s-1.224-0.444-1.944-0.444
        c-0.384,0-0.772,0.052-1.164,0.156C8.977,9.509,8.622,9.677,8.301,9.908c-0.32,0.232-0.58,0.52-0.78,0.864
        c-0.2,0.344-0.3,0.756-0.3,1.236c0,0.464,0.092,0.852,0.276,1.164c0.184,0.312,0.432,0.576,0.744,0.792s0.68,0.4,1.104,0.552
        c0.423,0.152,0.876,0.309,1.356,0.468c0.576,0.177,1.16,0.376,1.752,0.601c0.592,0.224,1.128,0.52,1.608,0.888
        s0.872,0.828,1.176,1.38s0.456,1.252,0.456,2.101c0,0.88-0.164,1.644-0.492,2.292c-0.328,0.647-0.765,1.184-1.308,1.607
        c-0.544,0.424-1.172,0.74-1.884,0.948s-1.444,0.312-2.196,0.312c-1.072,0-2.108-0.208-3.108-0.624
        c-1-0.415-1.828-1.031-2.484-1.848l1.848-1.56c0.4,0.592,0.936,1.071,1.608,1.439c0.672,0.368,1.399,0.552,2.184,0.552
        c0.4,0,0.8-0.056,1.2-0.168c0.4-0.111,0.764-0.288,1.092-0.527c0.328-0.24,0.596-0.54,0.804-0.9
        c0.208-0.36,0.312-0.796,0.312-1.308s-0.108-0.94-0.324-1.284c-0.216-0.344-0.508-0.636-0.876-0.876s-0.796-0.444-1.284-0.612
        c-0.488-0.168-1.004-0.34-1.548-0.516c-0.544-0.16-1.08-0.356-1.608-0.588c-0.528-0.232-1-0.528-1.416-0.889
        c-0.416-0.359-0.752-0.804-1.008-1.332c-0.256-0.527-0.384-1.184-0.384-1.968c0-0.848,0.172-1.576,0.516-2.184
        c0.344-0.608,0.792-1.112,1.344-1.512c0.552-0.4,1.176-0.692,1.872-0.876c0.696-0.184,1.396-0.276,2.1-0.276
        c0.992,0,1.92,0.176,2.784,0.528c0.864,0.352,1.56,0.824,2.088,1.416L13.846,10.832z"/>
    <path fill="#666666" d="M18.813,13.304l2.568,8.688h0.048l2.712-8.688h2.376l2.76,8.688h0.048l2.568-8.688h2.376L30.501,24.68
        h-2.352l-2.808-8.544h-0.048l-2.784,8.544h-2.352l-3.792-11.376H18.813z"/>
    <path fill="#666666" d="M38.685,9.2c0,0.416-0.147,0.76-0.44,1.032c-0.294,0.272-0.647,0.408-1.06,0.408s-0.762-0.14-1.047-0.42
        c-0.286-0.28-0.429-0.62-0.429-1.02c0-0.416,0.143-0.764,0.429-1.044c0.286-0.28,0.635-0.42,1.047-0.42s0.766,0.14,1.06,0.42
        C38.538,8.437,38.685,8.784,38.685,9.2z M38.325,24.68h-2.256V13.304h2.256V24.68z"/>
    <path fill="#666666" d="M47.613,15.152h-2.64v9.528h-2.256v-9.528h-2.256v-1.848h2.256v-2.376c0-0.672,0.076-1.292,0.228-1.86
        c0.152-0.568,0.4-1.06,0.744-1.476c0.344-0.416,0.784-0.744,1.32-0.984c0.536-0.24,1.188-0.36,1.956-0.36
        c0.544,0,1.016,0.056,1.416,0.168l-0.264,1.944c-0.176-0.048-0.352-0.088-0.528-0.12c-0.176-0.032-0.376-0.048-0.6-0.048
        c-0.432,0-0.78,0.076-1.044,0.228c-0.264,0.152-0.468,0.356-0.612,0.612s-0.24,0.548-0.288,0.876
        c-0.048,0.328-0.072,0.668-0.072,1.02v2.376h2.64V15.152z"/>
    <path fill="#666666" d="M54.909,15.152h-3.024v5.91c0,0.687,0.128,1.177,0.384,1.472c0.256,0.295,0.664,0.442,1.224,0.442
        c0.208,0,0.432-0.021,0.672-0.065c0.24-0.044,0.456-0.11,0.648-0.198l0.072,1.848c-0.272,0.096-0.572,0.172-0.9,0.229
        c-0.328,0.056-0.668,0.084-1.02,0.084c-1.072,0-1.892-0.296-2.46-0.889c-0.568-0.592-0.852-1.479-0.852-2.664v-6.168h-2.184
        v-1.848h2.184V10.04h2.232v3.264h3.024V15.152z"/>
    <path fill="#666666" d="M57.356,7.688h5.832c1.088,0,2.176,0.16,3.264,0.48c1.088,0.32,2.072,0.824,2.952,1.512
        s1.592,1.568,2.136,2.64c0.544,1.072,0.816,2.36,0.816,3.864c0,1.456-0.272,2.716-0.816,3.78s-1.256,1.943-2.136,2.64
        s-1.864,1.216-2.952,1.561c-1.088,0.344-2.176,0.516-3.264,0.516h-5.832V7.688z M59.732,22.593h2.976
        c1.024,0,1.972-0.145,2.844-0.432c0.872-0.288,1.624-0.704,2.256-1.248c0.632-0.544,1.124-1.216,1.476-2.017
        c0.352-0.8,0.528-1.704,0.528-2.712c0-1.056-0.176-1.983-0.528-2.784c-0.353-0.8-0.844-1.468-1.476-2.004
        c-0.632-0.536-1.384-0.944-2.256-1.224s-1.82-0.42-2.844-0.42h-2.976V22.593z"/>
    <path fill="#666666" d="M86.06,18.969c0,0.88-0.156,1.688-0.468,2.424c-0.312,0.736-0.744,1.372-1.296,1.908
        c-0.552,0.536-1.204,0.952-1.956,1.248c-0.752,0.296-1.56,0.443-2.424,0.443c-0.864,0-1.672-0.147-2.424-0.443
        c-0.752-0.296-1.4-0.712-1.944-1.248c-0.544-0.536-0.972-1.172-1.284-1.908c-0.312-0.735-0.468-1.544-0.468-2.424
        s0.156-1.684,0.468-2.412c0.312-0.728,0.74-1.356,1.284-1.884c0.543-0.528,1.191-0.939,1.944-1.236
        c0.752-0.296,1.56-0.444,2.424-0.444c0.864,0,1.672,0.148,2.424,0.444c0.752,0.297,1.404,0.708,1.956,1.236
        c0.552,0.527,0.984,1.156,1.296,1.884C85.904,17.285,86.06,18.089,86.06,18.969z M83.708,18.98c0-0.542-0.084-1.061-0.252-1.556
        c-0.169-0.494-0.414-0.929-0.734-1.304s-0.718-0.674-1.192-0.897s-1.015-0.335-1.625-0.335c-0.61,0-1.152,0.111-1.625,0.335
        c-0.474,0.224-0.871,0.522-1.191,0.897c-0.321,0.375-0.566,0.81-0.734,1.304C76.184,17.92,76.1,18.438,76.1,18.98
        c0,0.543,0.084,1.062,0.253,1.556c0.168,0.495,0.413,0.934,0.734,1.316c0.321,0.383,0.718,0.686,1.191,0.909
        c0.473,0.224,1.015,0.335,1.625,0.335c0.61,0,1.151-0.111,1.625-0.335s0.871-0.526,1.192-0.909s0.565-0.821,0.734-1.316
        C83.624,20.042,83.708,19.523,83.708,18.98z"/>
    <path fill="#666666" d="M96.428,16.184c-0.24-0.368-0.6-0.676-1.08-0.924s-0.992-0.372-1.536-0.372
        c-0.592,0-1.116,0.112-1.572,0.336c-0.456,0.225-0.844,0.524-1.164,0.9c-0.32,0.376-0.564,0.812-0.732,1.308
        s-0.252,1.017-0.252,1.56c0,0.545,0.084,1.064,0.252,1.561s0.412,0.933,0.732,1.308c0.32,0.376,0.712,0.677,1.176,0.9
        c0.464,0.225,0.992,0.336,1.584,0.336c0.576,0,1.1-0.111,1.572-0.336c0.472-0.224,0.86-0.528,1.164-0.912l1.512,1.368
        c-0.48,0.561-1.08,0.996-1.8,1.308c-0.72,0.312-1.536,0.468-2.448,0.468c-0.88,0-1.692-0.144-2.436-0.432
        c-0.744-0.288-1.388-0.691-1.932-1.212c-0.544-0.52-0.972-1.147-1.284-1.884s-0.468-1.561-0.468-2.473
        c0-0.896,0.152-1.711,0.456-2.447c0.304-0.736,0.728-1.368,1.272-1.896c0.543-0.527,1.188-0.936,1.932-1.224
        c0.744-0.288,1.548-0.433,2.412-0.433c0.8,0,1.596,0.16,2.388,0.48s1.419,0.784,1.884,1.392L96.428,16.184z"/>
    <path fill="#666666" d="M103.1,23.24c0,0.417-0.152,0.784-0.456,1.104c-0.304,0.32-0.688,0.479-1.152,0.479
        c-0.448,0-0.828-0.155-1.14-0.468c-0.312-0.312-0.468-0.676-0.468-1.092c0-0.432,0.152-0.804,0.456-1.116
        c0.304-0.312,0.688-0.468,1.152-0.468c0.464,0,0.848,0.152,1.152,0.456C102.947,22.44,103.1,22.808,103.1,23.24z"/>
    <path fill="#666666" d="M116.635,18.969c0,0.88-0.156,1.688-0.468,2.424c-0.312,0.736-0.744,1.372-1.296,1.908
        c-0.552,0.536-1.204,0.952-1.956,1.248c-0.752,0.296-1.56,0.443-2.424,0.443c-0.864,0-1.672-0.147-2.424-0.443
        c-0.752-0.296-1.4-0.712-1.944-1.248c-0.544-0.536-0.972-1.172-1.284-1.908c-0.312-0.735-0.468-1.544-0.468-2.424
        s0.156-1.684,0.468-2.412c0.312-0.728,0.74-1.356,1.284-1.884c0.543-0.528,1.191-0.939,1.944-1.236
        c0.752-0.296,1.56-0.444,2.424-0.444c0.864,0,1.672,0.148,2.424,0.444c0.752,0.297,1.404,0.708,1.956,1.236
        c0.552,0.527,0.984,1.156,1.296,1.884C116.479,17.285,116.635,18.089,116.635,18.969z M114.283,18.98
        c0-0.542-0.084-1.061-0.252-1.556c-0.169-0.494-0.414-0.929-0.734-1.304s-0.718-0.674-1.192-0.897s-1.015-0.335-1.625-0.335
        c-0.61,0-1.152,0.111-1.625,0.335c-0.474,0.224-0.871,0.522-1.191,0.897c-0.321,0.375-0.566,0.81-0.734,1.304
        c-0.169,0.495-0.253,1.014-0.253,1.556c0,0.543,0.084,1.062,0.253,1.556c0.168,0.495,0.413,0.934,0.734,1.316
        c0.321,0.383,0.718,0.686,1.191,0.909c0.473,0.224,1.015,0.335,1.625,0.335c0.61,0,1.151-0.111,1.625-0.335
        s0.871-0.526,1.192-0.909s0.565-0.821,0.734-1.316C114.199,20.042,114.283,19.523,114.283,18.98z"/>
    <path fill="#666666" d="M119.251,14.577c-0.016-0.48-0.04-0.904-0.072-1.272h2.136c0.032,0.288,0.056,0.62,0.072,0.996
        c0.016,0.376,0.024,0.684,0.024,0.924h0.072c0.32-0.672,0.788-1.212,1.404-1.62c0.616-0.408,1.308-0.612,2.076-0.612
        c0.352,0,0.648,0.033,0.888,0.097l-0.096,2.088c-0.32-0.08-0.664-0.12-1.032-0.12c-0.544,0-1.016,0.101-1.416,0.3
        c-0.4,0.2-0.732,0.468-0.996,0.805c-0.264,0.336-0.46,0.724-0.588,1.163c-0.128,0.44-0.192,0.9-0.192,1.381v5.976h-2.256v-8.928
        C119.275,15.449,119.267,15.056,119.251,14.577z"/>
    <path fill="#666666" d="M128.419,26.625c0.496,0.56,1.116,1.008,1.86,1.344c0.744,0.336,1.508,0.504,2.292,0.504
        c0.752,0,1.384-0.108,1.896-0.324s0.924-0.512,1.236-0.888s0.536-0.82,0.672-1.332c0.136-0.513,0.204-1.064,0.204-1.656v-1.464
        h-0.048c-0.416,0.641-0.984,1.128-1.704,1.464c-0.72,0.336-1.488,0.504-2.304,0.504c-0.864,0-1.652-0.151-2.364-0.456
        c-0.712-0.304-1.316-0.72-1.812-1.248c-0.496-0.527-0.88-1.147-1.152-1.859s-0.408-1.477-0.408-2.292
        c0-0.816,0.136-1.584,0.408-2.305c0.272-0.72,0.656-1.348,1.152-1.884c0.496-0.535,1.096-0.96,1.8-1.271
        c0.704-0.312,1.488-0.469,2.352-0.469c0.816,0,1.596,0.177,2.34,0.528c0.744,0.353,1.332,0.888,1.764,1.608h0.048v-1.824h2.184
        v10.8c0,0.832-0.104,1.628-0.312,2.388c-0.208,0.76-0.56,1.433-1.056,2.017s-1.144,1.052-1.944,1.404
        c-0.8,0.352-1.792,0.527-2.976,0.527c-0.992,0-1.988-0.18-2.988-0.54c-1-0.359-1.86-0.868-2.58-1.523L128.419,26.625z
         M129.091,18.873c0,0.527,0.084,1.031,0.253,1.512c0.168,0.479,0.417,0.904,0.746,1.271c0.329,0.369,0.726,0.664,1.192,0.889
        c0.465,0.224,0.995,0.336,1.589,0.336c0.577,0,1.107-0.104,1.589-0.312c0.481-0.207,0.891-0.491,1.228-0.852
        s0.598-0.784,0.782-1.272c0.185-0.487,0.277-1.012,0.277-1.571c0-0.544-0.093-1.057-0.277-1.536
        c-0.185-0.48-0.449-0.904-0.794-1.272c-0.345-0.367-0.755-0.66-1.228-0.876c-0.474-0.216-1-0.324-1.577-0.324
        c-0.594,0-1.124,0.108-1.589,0.324c-0.466,0.216-0.863,0.504-1.192,0.864s-0.578,0.784-0.746,1.271
        C129.175,17.812,129.091,18.329,129.091,18.873z"/>
</g>
<g><a xlink:href="/" pointer-events="all" target="_top"><polygon fill="none" points="0,0 145,0 145,35 0,35 0,0"/></a></g>

</g>


<!-- LazyBidirectionalCollection -->
<g id="node1" class="node">
<g id="a_node1"><a xlink:href="/v3.1/type/LazyBidirectionalCollection/hierarchy/" target="_top">
<polygon fill="#999999" stroke="#999999" points="152.556,-22 -0.555758,-22 -0.555758,-0 152.556,-0 152.556,-22"/>
<text text-anchor="middle" x="76" y="-7.4" font-family="Helvetica,sans-Serif" font-size="12.00" fill="white">LazyBidirectionalCollection</text>
</a>
</g>
</g>
<!-- LazyCollection -->
<g id="node2" class="node">
<g id="a_node2"><a xlink:href="/v3.1/type/LazyCollection/hierarchy/" target="_top">
<polygon fill="#999999" stroke="#999999" points="259.031,-22 170.969,-22 170.969,-0 259.031,-0 259.031,-22"/>
<text text-anchor="middle" x="215" y="-7.4" font-family="Helvetica,sans-Serif" font-size="12.00" fill="white">LazyCollection</text>
</a>
</g>
</g>
<!-- LazyCollectionProtocol -->
<g id="node3" class="node">
<g id="a_node3"><a xlink:href="/v3.1/protocol/LazyCollectionProtocol/hierarchy/" target="_top">
<path fill="#999999" stroke="#999999" d="M1144.71,-80C1144.71,-80 1027.29,-80 1027.29,-80 1023.62,-80 1019.95,-76.3333 1019.95,-72.6667 1019.95,-72.6667 1019.95,-65.3333 1019.95,-65.3333 1019.95,-61.6667 1023.62,-58 1027.29,-58 1027.29,-58 1144.71,-58 1144.71,-58 1148.38,-58 1152.05,-61.6667 1152.05,-65.3333 1152.05,-65.3333 1152.05,-72.6667 1152.05,-72.6667 1152.05,-76.3333 1148.38,-80 1144.71,-80"/>
<text text-anchor="middle" x="1086" y="-65.4" font-family="Helvetica,sans-Serif" font-size="12.00" fill="white">LazyCollectionProtocol</text>
</a>
</g>
</g>
<!-- LazyCollectionProtocol&#45;&gt;LazyBidirectionalCollection -->
<g id="edge7" class="edge">
<path fill="none" stroke="#cccccc" d="M1019.8,-66.2046C869.499,-61.8038 490.803,-48.8867 162.591,-21.9901"/>
<polygon fill="#cccccc" stroke="#cccccc" points="162.66,-18.484 152.406,-21.1496 162.085,-25.4603 162.66,-18.484"/>
</g>
<!-- LazyCollectionProtocol&#45;&gt;LazyCollection -->
<g id="edge8" class="edge">
<path fill="none" stroke="#cccccc" d="M1019.74,-67.196C881.822,-64.8888 553.779,-56.1026 269.281,-22.0051"/>
<polygon fill="#cccccc" stroke="#cccccc" points="269.528,-18.5094 259.179,-20.7814 268.686,-25.4587 269.528,-18.5094"/>
</g>
<!-- LazyDropWhileBidirectionalCollection -->
<g id="node4" class="node">
<g id="a_node4"><a xlink:href="/v3.1/type/LazyDropWhileBidirectionalCollection/hierarchy/" target="_top">
<polygon fill="#999999" stroke="#999999" points="486.568,-22 277.432,-22 277.432,-0 486.568,-0 486.568,-22"/>
<text text-anchor="middle" x="382" y="-7.4" font-family="Helvetica,sans-Serif" font-size="12.00" fill="white">LazyDropWhileBidirectionalCollection</text>
</a>
</g>
</g>
<!-- LazyCollectionProtocol&#45;&gt;LazyDropWhileBidirectionalCollection -->
<g id="edge9" class="edge">
<path fill="none" stroke="#cccccc" d="M1019.62,-63.0354C912.264,-54.9593 693.573,-38.3157 496.62,-22.0441"/>
<polygon fill="#cccccc" stroke="#cccccc" points="496.621,-18.5323 486.367,-21.1957 496.044,-25.5085 496.621,-18.5323"/>
</g>
<!-- LazyDropWhileCollection -->
<g id="node5" class="node">
<g id="a_node5"><a xlink:href="/v3.1/type/LazyDropWhileCollection/hierarchy/" target="_top">
<polygon fill="#999999" stroke="#999999" points="649.042,-22 504.958,-22 504.958,-0 649.042,-0 649.042,-22"/>
<text text-anchor="middle" x="577" y="-7.4" font-family="Helvetica,sans-Serif" font-size="12.00" fill="white">LazyDropWhileCollection</text>
</a>
</g>
</g>
<!-- LazyCollectionProtocol&#45;&gt;LazyDropWhileCollection -->
<g id="edge10" class="edge">
<path fill="none" stroke="#cccccc" d="M1019.98,-61.2302C937.926,-52.7441 793.34,-37.5509 659.447,-22.1539"/>
<polygon fill="#cccccc" stroke="#cccccc" points="659.752,-18.6659 649.417,-20.9977 658.95,-25.6199 659.752,-18.6659"/>
</g>
<!-- LazyFilterBidirectionalCollection -->
<g id="node7" class="node">
<g id="a_node7"><a xlink:href="/v3.1/type/LazyFilterBidirectionalCollection/hierarchy/" target="_top">
<polygon fill="#999999" stroke="#999999" points="847.056,-22 666.944,-22 666.944,-0 847.056,-0 847.056,-22"/>
<text text-anchor="middle" x="757" y="-7.4" font-family="Helvetica,sans-Serif" font-size="12.00" fill="white">LazyFilterBidirectionalCollection</text>
</a>
</g>
</g>
<!-- LazyCollectionProtocol&#45;&gt;LazyFilterBidirectionalCollection -->
<g id="edge11" class="edge">
<path fill="none" stroke="#cccccc" d="M1027.18,-57.9883C970.747,-48.3824 885.534,-33.8782 825.938,-23.7342"/>
<polygon fill="#cccccc" stroke="#cccccc" points="826.309,-20.2469 815.863,-22.0192 825.134,-27.1477 826.309,-20.2469"/>
</g>
<!-- LazyFilterCollection -->
<g id="node8" class="node">
<g id="a_node8"><a xlink:href="/v3.1/type/LazyFilterCollection/hierarchy/" target="_top">
<polygon fill="#999999" stroke="#999999" points="979.031,-22 864.969,-22 864.969,-0 979.031,-0 979.031,-22"/>
<text text-anchor="middle" x="922" y="-7.4" font-family="Helvetica,sans-Serif" font-size="12.00" fill="white">LazyFilterCollection</text>
</a>
</g>
</g>
<!-- LazyCollectionProtocol&#45;&gt;LazyFilterCollection -->
<g id="edge12" class="edge">
<path fill="none" stroke="#cccccc" d="M1056.68,-57.9883C1029.94,-48.8587 990.249,-35.3046 960.875,-25.2743"/>
<polygon fill="#cccccc" stroke="#cccccc" points="961.937,-21.9385 951.342,-22.0192 959.675,-28.563 961.937,-21.9385"/>
</g>
<!-- LazyMapBidirectionalCollection -->
<g id="node10" class="node">
<g id="a_node10"><a xlink:href="/v3.1/type/LazyMapBidirectionalCollection/hierarchy/" target="_top">
<polygon fill="#999999" stroke="#999999" points="1174.06,-22 997.936,-22 997.936,-0 1174.06,-0 1174.06,-22"/>
<text text-anchor="middle" x="1086" y="-7.4" font-family="Helvetica,sans-Serif" font-size="12.00" fill="white">LazyMapBidirectionalCollection</text>
</a>
</g>
</g>
<!-- LazyCollectionProtocol&#45;&gt;LazyMapBidirectionalCollection -->
<g id="edge13" class="edge">
<path fill="none" stroke="#cccccc" d="M1086,-57.9883C1086,-50.9098 1086,-41.1714 1086,-32.4779"/>
<polygon fill="#cccccc" stroke="#cccccc" points="1089.5,-32.3038 1086,-22.3039 1082.5,-32.3039 1089.5,-32.3038"/>
</g>
<!-- LazyMapCollection -->
<g id="node11" class="node">
<g id="a_node11"><a xlink:href="/v3.1/type/LazyMapCollection/hierarchy/" target="_top">
<polygon fill="#999999" stroke="#999999" points="1303.54,-22 1192.46,-22 1192.46,-0 1303.54,-0 1303.54,-22"/>
<text text-anchor="middle" x="1248" y="-7.4" font-family="Helvetica,sans-Serif" font-size="12.00" fill="white">LazyMapCollection</text>
</a>
</g>
</g>
<!-- LazyCollectionProtocol&#45;&gt;LazyMapCollection -->
<g id="edge14" class="edge">
<path fill="none" stroke="#cccccc" d="M1114.96,-57.9883C1141.26,-48.8984 1180.24,-35.4223 1209.22,-25.4053"/>
<polygon fill="#cccccc" stroke="#cccccc" points="1210.71,-28.5944 1219.02,-22.0192 1208.42,-21.9785 1210.71,-28.5944"/>
</g>
<!-- LazyMapRandomAccessCollection -->
<g id="node12" class="node">
<g id="a_node12"><a xlink:href="/v3.1/type/LazyMapRandomAccessCollection/hierarchy/" target="_top">
<polygon fill="#999999" stroke="#999999" points="1516.56,-22 1321.44,-22 1321.44,-0 1516.56,-0 1516.56,-22"/>
<text text-anchor="middle" x="1419" y="-7.4" font-family="Helvetica,sans-Serif" font-size="12.00" fill="white">LazyMapRandomAccessCollection</text>
</a>
</g>
</g>
<!-- LazyCollectionProtocol&#45;&gt;LazyMapRandomAccessCollection -->
<g id="edge15" class="edge">
<path fill="none" stroke="#cccccc" d="M1145.53,-57.9883C1202.65,-48.3824 1288.9,-33.8782 1349.22,-23.7342"/>
<polygon fill="#cccccc" stroke="#cccccc" points="1350.14,-27.1293 1359.42,-22.0192 1348.98,-20.2262 1350.14,-27.1293"/>
</g>
<!-- LazyPrefixWhileBidirectionalCollection -->
<g id="node14" class="node">
<g id="a_node14"><a xlink:href="/v3.1/type/LazyPrefixWhileBidirectionalCollection/hierarchy/" target="_top">
<polygon fill="#999999" stroke="#999999" points="1749.07,-22 1534.93,-22 1534.93,-0 1749.07,-0 1749.07,-22"/>
<text text-anchor="middle" x="1642" y="-7.4" font-family="Helvetica,sans-Serif" font-size="12.00" fill="white">LazyPrefixWhileBidirectionalCollection</text>
</a>
</g>
</g>
<!-- LazyCollectionProtocol&#45;&gt;LazyPrefixWhileBidirectionalCollection -->
<g id="edge16" class="edge">
<path fill="none" stroke="#cccccc" d="M1152.24,-61.3285C1246.16,-51.8693 1419.16,-34.4441 1532.38,-23.0405"/>
<polygon fill="#cccccc" stroke="#cccccc" points="1532.87,-26.5094 1542.47,-22.0248 1532.17,-19.5446 1532.87,-26.5094"/>
</g>
<!-- LazyPrefixWhileCollection -->
<g id="node15" class="node">
<g id="a_node15"><a xlink:href="/v3.1/type/LazyPrefixWhileCollection/hierarchy/" target="_top">
<polygon fill="#999999" stroke="#999999" points="1915.04,-22 1766.96,-22 1766.96,-0 1915.04,-0 1915.04,-22"/>
<text text-anchor="middle" x="1841" y="-7.4" font-family="Helvetica,sans-Serif" font-size="12.00" fill="white">LazyPrefixWhileCollection</text>
</a>
</g>
</g>
<!-- LazyCollectionProtocol&#45;&gt;LazyPrefixWhileCollection -->
<g id="edge17" class="edge">
<path fill="none" stroke="#cccccc" d="M1152.38,-64.5935C1271.32,-58.2407 1528.82,-43.3543 1756.67,-22.0837"/>
<polygon fill="#cccccc" stroke="#cccccc" points="1757.18,-25.5511 1766.81,-21.1309 1756.53,-18.5817 1757.18,-25.5511"/>
</g>
<!-- LazyRandomAccessCollection -->
<g id="node17" class="node">
<g id="a_node17"><a xlink:href="/v3.1/type/LazyRandomAccessCollection/hierarchy/" target="_top">
<polygon fill="#999999" stroke="#999999" points="2105.06,-22 1932.94,-22 1932.94,-0 2105.06,-0 2105.06,-22"/>
<text text-anchor="middle" x="2019" y="-7.4" font-family="Helvetica,sans-Serif" font-size="12.00" fill="white">LazyRandomAccessCollection</text>
</a>
</g>
</g>
<!-- LazyCollectionProtocol&#45;&gt;LazyRandomAccessCollection -->
<g id="edge18" class="edge">
<path fill="none" stroke="#cccccc" d="M1152.07,-65.4984C1292.11,-59.9521 1629.28,-45.3044 1922.82,-22.0588"/>
<polygon fill="#cccccc" stroke="#cccccc" points="1923.11,-25.5465 1932.8,-21.2634 1922.56,-18.5686 1923.11,-25.5465"/>
</g>
<!-- LazyDropWhileSequence -->
<g id="node6" class="node">
<g id="a_node6"><a xlink:href="/v3.1/type/LazyDropWhileSequence/hierarchy/" target="_top">
<polygon fill="#999999" stroke="#999999" points="2268.56,-22 2123.44,-22 2123.44,-0 2268.56,-0 2268.56,-22"/>
<text text-anchor="middle" x="2196" y="-7.4" font-family="Helvetica,sans-Serif" font-size="12.00" fill="white">LazyDropWhileSequence</text>
</a>
</g>
</g>
<!-- LazyFilterSequence -->
<g id="node9" class="node">
<g id="a_node9"><a xlink:href="/v3.1/type/LazyFilterSequence/hierarchy/" target="_top">
<polygon fill="#999999" stroke="#999999" points="2403.05,-22 2286.95,-22 2286.95,-0 2403.05,-0 2403.05,-22"/>
<text text-anchor="middle" x="2345" y="-7.4" font-family="Helvetica,sans-Serif" font-size="12.00" fill="white">LazyFilterSequence</text>
</a>
</g>
</g>
<!-- LazyMapSequence -->
<g id="node13" class="node">
<g id="a_node13"><a xlink:href="/v3.1/type/LazyMapSequence/hierarchy/" target="_top">
<polygon fill="#999999" stroke="#999999" points="2533.05,-22 2420.95,-22 2420.95,-0 2533.05,-0 2533.05,-22"/>
<text text-anchor="middle" x="2477" y="-7.4" font-family="Helvetica,sans-Serif" font-size="12.00" fill="white">LazyMapSequence</text>
</a>
</g>
</g>
<!-- LazyPrefixWhileSequence -->
<g id="node16" class="node">
<g id="a_node16"><a xlink:href="/v3.1/type/LazyPrefixWhileSequence/hierarchy/" target="_top">
<polygon fill="#999999" stroke="#999999" points="2701.06,-22 2550.94,-22 2550.94,-0 2701.06,-0 2701.06,-22"/>
<text text-anchor="middle" x="2626" y="-7.4" font-family="Helvetica,sans-Serif" font-size="12.00" fill="white">LazyPrefixWhileSequence</text>
</a>
</g>
</g>
<!-- LazySequence -->
<g id="node18" class="node">
<g id="a_node18"><a xlink:href="/v3.1/type/LazySequence/hierarchy/" target="_top">
<polygon fill="#999999" stroke="#999999" points="2808.55,-22 2719.45,-22 2719.45,-0 2808.55,-0 2808.55,-22"/>
<text text-anchor="middle" x="2764" y="-7.4" font-family="Helvetica,sans-Serif" font-size="12.00" fill="white">LazySequence</text>
</a>
</g>
</g>
<!-- LazySequenceProtocol -->
<g id="node19" class="node">
<g id="a_node19"><a xlink:href="/v3.1/protocol/LazySequenceProtocol/" target="_top">
<path fill="#ee543d" stroke="#ee543d" d="M2470.23,-138C2470.23,-138 2351.77,-138 2351.77,-138 2348.11,-138 2344.44,-134.333 2344.44,-130.667 2344.44,-130.667 2344.44,-123.333 2344.44,-123.333 2344.44,-119.667 2348.11,-116 2351.77,-116 2351.77,-116 2470.23,-116 2470.23,-116 2473.89,-116 2477.56,-119.667 2477.56,-123.333 2477.56,-123.333 2477.56,-130.667 2477.56,-130.667 2477.56,-134.333 2473.89,-138 2470.23,-138"/>
<text text-anchor="middle" x="2411" y="-123.4" font-family="Helvetica,sans-Serif" font-size="12.00" fill="white">LazySequenceProtocol</text>
</a>
</g>
</g>
<!-- LazySequenceProtocol&#45;&gt;LazyCollectionProtocol -->
<g id="edge1" class="edge">
<path fill="none" stroke="#cccccc" d="M2344.39,-123.185C2121.13,-113.749 1400.08,-83.2744 1162.62,-73.2383"/>
<polygon fill="#cccccc" stroke="#cccccc" points="1162.49,-69.7299 1152.35,-72.8044 1162.2,-76.7236 1162.49,-69.7299"/>
</g>
<!-- LazySequenceProtocol&#45;&gt;LazyDropWhileSequence -->
<g id="edge2" class="edge">
<path fill="none" stroke="#cccccc" d="M2391.92,-115.883C2353.91,-95.7287 2268.58,-50.4823 2224.13,-26.9136"/>
<polygon fill="#cccccc" stroke="#cccccc" points="2225.51,-23.6864 2215.04,-22.0941 2222.23,-29.8709 2225.51,-23.6864"/>
</g>
<!-- LazySequenceProtocol&#45;&gt;LazyFilterSequence -->
<g id="edge3" class="edge">
<path fill="none" stroke="#cccccc" d="M2405.14,-115.883C2394.11,-96.8331 2370.11,-55.3658 2355.99,-30.9757"/>
<polygon fill="#cccccc" stroke="#cccccc" points="2358.98,-29.1586 2350.94,-22.2579 2352.92,-32.6659 2358.98,-29.1586"/>
</g>
<!-- LazySequenceProtocol&#45;&gt;LazyMapSequence -->
<g id="edge4" class="edge">
<path fill="none" stroke="#cccccc" d="M2416.86,-115.883C2427.89,-96.8331 2451.89,-55.3658 2466.01,-30.9757"/>
<polygon fill="#cccccc" stroke="#cccccc" points="2469.08,-32.6659 2471.06,-22.2579 2463.02,-29.1586 2469.08,-32.6659"/>
</g>
<!-- LazySequenceProtocol&#45;&gt;LazyPrefixWhileSequence -->
<g id="edge5" class="edge">
<path fill="none" stroke="#cccccc" d="M2430.08,-115.883C2468.09,-95.7287 2553.42,-50.4823 2597.87,-26.9136"/>
<polygon fill="#cccccc" stroke="#cccccc" points="2599.77,-29.8709 2606.96,-22.0941 2596.49,-23.6864 2599.77,-29.8709"/>
</g>
<!-- LazySequenceProtocol&#45;&gt;LazySequence -->
<g id="edge6" class="edge">
<path fill="none" stroke="#cccccc" d="M2442.02,-115.983C2505.89,-95.3563 2652.07,-48.1478 2723.38,-25.1186"/>
<polygon fill="#cccccc" stroke="#cccccc" points="2724.49,-28.4387 2732.93,-22.0348 2722.34,-21.7775 2724.49,-28.4387"/>
</g>
<!-- Sequence -->
<g id="node20" class="node">
<g id="a_node20"><a xlink:href="/v3.1/protocol/Sequence/hierarchy/" target="_top">
<path fill="#999999" stroke="#999999" d="M2435.7,-196C2435.7,-196 2386.3,-196 2386.3,-196 2382.63,-196 2378.96,-192.333 2378.96,-188.667 2378.96,-188.667 2378.96,-181.333 2378.96,-181.333 2378.96,-177.667 2382.63,-174 2386.3,-174 2386.3,-174 2435.7,-174 2435.7,-174 2439.37,-174 2443.04,-177.667 2443.04,-181.333 2443.04,-181.333 2443.04,-188.667 2443.04,-188.667 2443.04,-192.333 2439.37,-196 2435.7,-196"/>
<text text-anchor="middle" x="2411" y="-181.4" font-family="Helvetica,sans-Serif" font-size="12.00" fill="white">Sequence</text>
</a>
</g>
</g>
<!-- Sequence&#45;&gt;LazySequenceProtocol -->
<g id="edge19" class="edge">
<path fill="none" stroke="#cccccc" d="M2411,-173.988C2411,-166.91 2411,-157.171 2411,-148.478"/>
<polygon fill="#cccccc" stroke="#cccccc" points="2414.5,-148.304 2411,-138.304 2407.5,-148.304 2414.5,-148.304"/>
</g>
</g>
</svg>
