<?xml version="1.0" encoding="UTF-8" standalone="no"?>
<!DOCTYPE svg PUBLIC "-//W3C//DTD SVG 1.1//EN"
 "http://www.w3.org/Graphics/SVG/1.1/DTD/svg11.dtd">
<!-- Generated by graphviz version 2.36.0 (20140111.2315)
 -->
<!-- Title: ManagedBufferPointer&lt;Value, Element&gt; &#45; Type Hierarchy &#45; SwiftDoc.org Pages: 1 -->
<svg width="238pt" height="195pt"
 viewBox="0.00 0.00 238.40 195.20" xmlns="http://www.w3.org/2000/svg" xmlns:xlink="http://www.w3.org/1999/xlink">
<g id="graph0" class="graph" transform="scale(1 1) rotate(0) translate(7.2 137.6)">
<title>ManagedBufferPointer&lt;Value, Element&gt; &#45; Type Hierarchy &#45; SwiftDoc.org</title>
<polygon fill="white" stroke="none" points="-7.2,57.6 -7.2,-137.6 231.2,-137.6 231.2,57.6 -7.2,57.6"/>
<!-- Equatable -->
<g id="node1" class="node"><title>Equatable</title>
<g id="a_node1"><a xlink:href="/protocol/Equatable/" xlink:title="Equatable">
<path fill="#999999" stroke="#999999" d="M136.702,-80C136.702,-80 87.2982,-80 87.2982,-80 83.6315,-80 79.9648,-76.3333 79.9648,-72.6667 79.9648,-72.6667 79.9648,-65.3333 79.9648,-65.3333 79.9648,-61.6667 83.6315,-58 87.2982,-58 87.2982,-58 136.702,-58 136.702,-58 140.368,-58 144.035,-61.6667 144.035,-65.3333 144.035,-65.3333 144.035,-72.6667 144.035,-72.6667 144.035,-76.3333 140.368,-80 136.702,-80"/>
<text text-anchor="middle" x="112" y="-65.4" font-family="Helvetica,sans-Serif" font-size="12.00" fill="white">Equatable</text>
</a>
</g>
</g>
<!-- ManagedBufferPointer&lt;Value, Element&gt; -->
<g id="node2" class="node"><title>ManagedBufferPointer&lt;Value, Element&gt;</title>
<g id="a_node2"><a xlink:href="/type/ManagedBufferPointer/" xlink:title="ManagedBufferPointer&lt;Value, Element&gt;">
<polygon fill="#ee543d" stroke="#ee543d" points="224.283,-22 -0.282873,-22 -0.282873,-0 224.283,-0 224.283,-22"/>
<text text-anchor="middle" x="112" y="-7.4" font-family="Helvetica,sans-Serif" font-size="12.00" fill="white">ManagedBufferPointer&lt;Value, Element&gt;</text>
</a>
</g>
</g>
<!-- Equatable&#45;&gt;ManagedBufferPointer&lt;Value, Element&gt; -->
<g id="edge1" class="edge"><title>Equatable&#45;&gt;ManagedBufferPointer&lt;Value, Element&gt;</title>
<path fill="none" stroke="#cccccc" d="M112,-57.9883C112,-50.9098 112,-41.1714 112,-32.4779"/>
<polygon fill="#cccccc" stroke="#cccccc" points="115.5,-32.3038 112,-22.3039 108.5,-32.3039 115.5,-32.3038"/>
</g>
</g>
</svg>
