<?xml version="1.0" encoding="UTF-8" standalone="no"?>
<!DOCTYPE svg PUBLIC "-//W3C//DTD SVG 1.1//EN"
 "http://www.w3.org/Graphics/SVG/1.1/DTD/svg11.dtd">
<!-- Generated by graphviz version 2.36.0 (20140111.2315)
 -->
<!-- Title: UInt &#45; Type Hierarchy &#45; SwiftDoc.org Pages: 1 -->
<svg width="861pt" height="543pt"
 viewBox="0.00 0.00 861.40 543.20" xmlns="http://www.w3.org/2000/svg" xmlns:xlink="http://www.w3.org/1999/xlink">
<g id="graph0" class="graph" transform="scale(1 1) rotate(0) translate(7.2 485.6)">
<g transform="translate(0 -485.6)">
<g>
    <path fill="#666666" d="M13.846,10.832c-0.336-0.464-0.792-0.844-1.368-1.14s-1.224-0.444-1.944-0.444
        c-0.384,0-0.772,0.052-1.164,0.156C8.977,9.509,8.622,9.677,8.301,9.908c-0.32,0.232-0.58,0.52-0.78,0.864
        c-0.2,0.344-0.3,0.756-0.3,1.236c0,0.464,0.092,0.852,0.276,1.164c0.184,0.312,0.432,0.576,0.744,0.792s0.68,0.4,1.104,0.552
        c0.423,0.152,0.876,0.309,1.356,0.468c0.576,0.177,1.16,0.376,1.752,0.601c0.592,0.224,1.128,0.52,1.608,0.888
        s0.872,0.828,1.176,1.38s0.456,1.252,0.456,2.101c0,0.88-0.164,1.644-0.492,2.292c-0.328,0.647-0.765,1.184-1.308,1.607
        c-0.544,0.424-1.172,0.74-1.884,0.948s-1.444,0.312-2.196,0.312c-1.072,0-2.108-0.208-3.108-0.624
        c-1-0.415-1.828-1.031-2.484-1.848l1.848-1.56c0.4,0.592,0.936,1.071,1.608,1.439c0.672,0.368,1.399,0.552,2.184,0.552
        c0.4,0,0.8-0.056,1.2-0.168c0.4-0.111,0.764-0.288,1.092-0.527c0.328-0.24,0.596-0.54,0.804-0.9
        c0.208-0.36,0.312-0.796,0.312-1.308s-0.108-0.94-0.324-1.284c-0.216-0.344-0.508-0.636-0.876-0.876s-0.796-0.444-1.284-0.612
        c-0.488-0.168-1.004-0.34-1.548-0.516c-0.544-0.16-1.08-0.356-1.608-0.588c-0.528-0.232-1-0.528-1.416-0.889
        c-0.416-0.359-0.752-0.804-1.008-1.332c-0.256-0.527-0.384-1.184-0.384-1.968c0-0.848,0.172-1.576,0.516-2.184
        c0.344-0.608,0.792-1.112,1.344-1.512c0.552-0.4,1.176-0.692,1.872-0.876c0.696-0.184,1.396-0.276,2.1-0.276
        c0.992,0,1.92,0.176,2.784,0.528c0.864,0.352,1.56,0.824,2.088,1.416L13.846,10.832z"/>
    <path fill="#666666" d="M18.813,13.304l2.568,8.688h0.048l2.712-8.688h2.376l2.76,8.688h0.048l2.568-8.688h2.376L30.501,24.68
        h-2.352l-2.808-8.544h-0.048l-2.784,8.544h-2.352l-3.792-11.376H18.813z"/>
    <path fill="#666666" d="M38.685,9.2c0,0.416-0.147,0.76-0.44,1.032c-0.294,0.272-0.647,0.408-1.06,0.408s-0.762-0.14-1.047-0.42
        c-0.286-0.28-0.429-0.62-0.429-1.02c0-0.416,0.143-0.764,0.429-1.044c0.286-0.28,0.635-0.42,1.047-0.42s0.766,0.14,1.06,0.42
        C38.538,8.437,38.685,8.784,38.685,9.2z M38.325,24.68h-2.256V13.304h2.256V24.68z"/>
    <path fill="#666666" d="M47.613,15.152h-2.64v9.528h-2.256v-9.528h-2.256v-1.848h2.256v-2.376c0-0.672,0.076-1.292,0.228-1.86
        c0.152-0.568,0.4-1.06,0.744-1.476c0.344-0.416,0.784-0.744,1.32-0.984c0.536-0.24,1.188-0.36,1.956-0.36
        c0.544,0,1.016,0.056,1.416,0.168l-0.264,1.944c-0.176-0.048-0.352-0.088-0.528-0.12c-0.176-0.032-0.376-0.048-0.6-0.048
        c-0.432,0-0.78,0.076-1.044,0.228c-0.264,0.152-0.468,0.356-0.612,0.612s-0.24,0.548-0.288,0.876
        c-0.048,0.328-0.072,0.668-0.072,1.02v2.376h2.64V15.152z"/>
    <path fill="#666666" d="M54.909,15.152h-3.024v5.91c0,0.687,0.128,1.177,0.384,1.472c0.256,0.295,0.664,0.442,1.224,0.442
        c0.208,0,0.432-0.021,0.672-0.065c0.24-0.044,0.456-0.11,0.648-0.198l0.072,1.848c-0.272,0.096-0.572,0.172-0.9,0.229
        c-0.328,0.056-0.668,0.084-1.02,0.084c-1.072,0-1.892-0.296-2.46-0.889c-0.568-0.592-0.852-1.479-0.852-2.664v-6.168h-2.184
        v-1.848h2.184V10.04h2.232v3.264h3.024V15.152z"/>
    <path fill="#666666" d="M57.356,7.688h5.832c1.088,0,2.176,0.16,3.264,0.48c1.088,0.32,2.072,0.824,2.952,1.512
        s1.592,1.568,2.136,2.64c0.544,1.072,0.816,2.36,0.816,3.864c0,1.456-0.272,2.716-0.816,3.78s-1.256,1.943-2.136,2.64
        s-1.864,1.216-2.952,1.561c-1.088,0.344-2.176,0.516-3.264,0.516h-5.832V7.688z M59.732,22.593h2.976
        c1.024,0,1.972-0.145,2.844-0.432c0.872-0.288,1.624-0.704,2.256-1.248c0.632-0.544,1.124-1.216,1.476-2.017
        c0.352-0.8,0.528-1.704,0.528-2.712c0-1.056-0.176-1.983-0.528-2.784c-0.353-0.8-0.844-1.468-1.476-2.004
        c-0.632-0.536-1.384-0.944-2.256-1.224s-1.82-0.42-2.844-0.42h-2.976V22.593z"/>
    <path fill="#666666" d="M86.06,18.969c0,0.88-0.156,1.688-0.468,2.424c-0.312,0.736-0.744,1.372-1.296,1.908
        c-0.552,0.536-1.204,0.952-1.956,1.248c-0.752,0.296-1.56,0.443-2.424,0.443c-0.864,0-1.672-0.147-2.424-0.443
        c-0.752-0.296-1.4-0.712-1.944-1.248c-0.544-0.536-0.972-1.172-1.284-1.908c-0.312-0.735-0.468-1.544-0.468-2.424
        s0.156-1.684,0.468-2.412c0.312-0.728,0.74-1.356,1.284-1.884c0.543-0.528,1.191-0.939,1.944-1.236
        c0.752-0.296,1.56-0.444,2.424-0.444c0.864,0,1.672,0.148,2.424,0.444c0.752,0.297,1.404,0.708,1.956,1.236
        c0.552,0.527,0.984,1.156,1.296,1.884C85.904,17.285,86.06,18.089,86.06,18.969z M83.708,18.98c0-0.542-0.084-1.061-0.252-1.556
        c-0.169-0.494-0.414-0.929-0.734-1.304s-0.718-0.674-1.192-0.897s-1.015-0.335-1.625-0.335c-0.61,0-1.152,0.111-1.625,0.335
        c-0.474,0.224-0.871,0.522-1.191,0.897c-0.321,0.375-0.566,0.81-0.734,1.304C76.184,17.92,76.1,18.438,76.1,18.98
        c0,0.543,0.084,1.062,0.253,1.556c0.168,0.495,0.413,0.934,0.734,1.316c0.321,0.383,0.718,0.686,1.191,0.909
        c0.473,0.224,1.015,0.335,1.625,0.335c0.61,0,1.151-0.111,1.625-0.335s0.871-0.526,1.192-0.909s0.565-0.821,0.734-1.316
        C83.624,20.042,83.708,19.523,83.708,18.98z"/>
    <path fill="#666666" d="M96.428,16.184c-0.24-0.368-0.6-0.676-1.08-0.924s-0.992-0.372-1.536-0.372
        c-0.592,0-1.116,0.112-1.572,0.336c-0.456,0.225-0.844,0.524-1.164,0.9c-0.32,0.376-0.564,0.812-0.732,1.308
        s-0.252,1.017-0.252,1.56c0,0.545,0.084,1.064,0.252,1.561s0.412,0.933,0.732,1.308c0.32,0.376,0.712,0.677,1.176,0.9
        c0.464,0.225,0.992,0.336,1.584,0.336c0.576,0,1.1-0.111,1.572-0.336c0.472-0.224,0.86-0.528,1.164-0.912l1.512,1.368
        c-0.48,0.561-1.08,0.996-1.8,1.308c-0.72,0.312-1.536,0.468-2.448,0.468c-0.88,0-1.692-0.144-2.436-0.432
        c-0.744-0.288-1.388-0.691-1.932-1.212c-0.544-0.52-0.972-1.147-1.284-1.884s-0.468-1.561-0.468-2.473
        c0-0.896,0.152-1.711,0.456-2.447c0.304-0.736,0.728-1.368,1.272-1.896c0.543-0.527,1.188-0.936,1.932-1.224
        c0.744-0.288,1.548-0.433,2.412-0.433c0.8,0,1.596,0.16,2.388,0.48s1.419,0.784,1.884,1.392L96.428,16.184z"/>
    <path fill="#666666" d="M103.1,23.24c0,0.417-0.152,0.784-0.456,1.104c-0.304,0.32-0.688,0.479-1.152,0.479
        c-0.448,0-0.828-0.155-1.14-0.468c-0.312-0.312-0.468-0.676-0.468-1.092c0-0.432,0.152-0.804,0.456-1.116
        c0.304-0.312,0.688-0.468,1.152-0.468c0.464,0,0.848,0.152,1.152,0.456C102.947,22.44,103.1,22.808,103.1,23.24z"/>
    <path fill="#666666" d="M116.635,18.969c0,0.88-0.156,1.688-0.468,2.424c-0.312,0.736-0.744,1.372-1.296,1.908
        c-0.552,0.536-1.204,0.952-1.956,1.248c-0.752,0.296-1.56,0.443-2.424,0.443c-0.864,0-1.672-0.147-2.424-0.443
        c-0.752-0.296-1.4-0.712-1.944-1.248c-0.544-0.536-0.972-1.172-1.284-1.908c-0.312-0.735-0.468-1.544-0.468-2.424
        s0.156-1.684,0.468-2.412c0.312-0.728,0.74-1.356,1.284-1.884c0.543-0.528,1.191-0.939,1.944-1.236
        c0.752-0.296,1.56-0.444,2.424-0.444c0.864,0,1.672,0.148,2.424,0.444c0.752,0.297,1.404,0.708,1.956,1.236
        c0.552,0.527,0.984,1.156,1.296,1.884C116.479,17.285,116.635,18.089,116.635,18.969z M114.283,18.98
        c0-0.542-0.084-1.061-0.252-1.556c-0.169-0.494-0.414-0.929-0.734-1.304s-0.718-0.674-1.192-0.897s-1.015-0.335-1.625-0.335
        c-0.61,0-1.152,0.111-1.625,0.335c-0.474,0.224-0.871,0.522-1.191,0.897c-0.321,0.375-0.566,0.81-0.734,1.304
        c-0.169,0.495-0.253,1.014-0.253,1.556c0,0.543,0.084,1.062,0.253,1.556c0.168,0.495,0.413,0.934,0.734,1.316
        c0.321,0.383,0.718,0.686,1.191,0.909c0.473,0.224,1.015,0.335,1.625,0.335c0.61,0,1.151-0.111,1.625-0.335
        s0.871-0.526,1.192-0.909s0.565-0.821,0.734-1.316C114.199,20.042,114.283,19.523,114.283,18.98z"/>
    <path fill="#666666" d="M119.251,14.577c-0.016-0.48-0.04-0.904-0.072-1.272h2.136c0.032,0.288,0.056,0.62,0.072,0.996
        c0.016,0.376,0.024,0.684,0.024,0.924h0.072c0.32-0.672,0.788-1.212,1.404-1.62c0.616-0.408,1.308-0.612,2.076-0.612
        c0.352,0,0.648,0.033,0.888,0.097l-0.096,2.088c-0.32-0.08-0.664-0.12-1.032-0.12c-0.544,0-1.016,0.101-1.416,0.3
        c-0.4,0.2-0.732,0.468-0.996,0.805c-0.264,0.336-0.46,0.724-0.588,1.163c-0.128,0.44-0.192,0.9-0.192,1.381v5.976h-2.256v-8.928
        C119.275,15.449,119.267,15.056,119.251,14.577z"/>
    <path fill="#666666" d="M128.419,26.625c0.496,0.56,1.116,1.008,1.86,1.344c0.744,0.336,1.508,0.504,2.292,0.504
        c0.752,0,1.384-0.108,1.896-0.324s0.924-0.512,1.236-0.888s0.536-0.82,0.672-1.332c0.136-0.513,0.204-1.064,0.204-1.656v-1.464
        h-0.048c-0.416,0.641-0.984,1.128-1.704,1.464c-0.72,0.336-1.488,0.504-2.304,0.504c-0.864,0-1.652-0.151-2.364-0.456
        c-0.712-0.304-1.316-0.72-1.812-1.248c-0.496-0.527-0.88-1.147-1.152-1.859s-0.408-1.477-0.408-2.292
        c0-0.816,0.136-1.584,0.408-2.305c0.272-0.72,0.656-1.348,1.152-1.884c0.496-0.535,1.096-0.96,1.8-1.271
        c0.704-0.312,1.488-0.469,2.352-0.469c0.816,0,1.596,0.177,2.34,0.528c0.744,0.353,1.332,0.888,1.764,1.608h0.048v-1.824h2.184
        v10.8c0,0.832-0.104,1.628-0.312,2.388c-0.208,0.76-0.56,1.433-1.056,2.017s-1.144,1.052-1.944,1.404
        c-0.8,0.352-1.792,0.527-2.976,0.527c-0.992,0-1.988-0.18-2.988-0.54c-1-0.359-1.86-0.868-2.58-1.523L128.419,26.625z
         M129.091,18.873c0,0.527,0.084,1.031,0.253,1.512c0.168,0.479,0.417,0.904,0.746,1.271c0.329,0.369,0.726,0.664,1.192,0.889
        c0.465,0.224,0.995,0.336,1.589,0.336c0.577,0,1.107-0.104,1.589-0.312c0.481-0.207,0.891-0.491,1.228-0.852
        s0.598-0.784,0.782-1.272c0.185-0.487,0.277-1.012,0.277-1.571c0-0.544-0.093-1.057-0.277-1.536
        c-0.185-0.48-0.449-0.904-0.794-1.272c-0.345-0.367-0.755-0.66-1.228-0.876c-0.474-0.216-1-0.324-1.577-0.324
        c-0.594,0-1.124,0.108-1.589,0.324c-0.466,0.216-0.863,0.504-1.192,0.864s-0.578,0.784-0.746,1.271
        C129.175,17.812,129.091,18.329,129.091,18.873z"/>
</g>
<g><a xlink:href="/" pointer-events="all" target="_top"><polygon fill="none" points="0,0 145,0 145,35 0,35 0,0"/></a></g>

</g>


<!-- BidirectionalIndexType -->
<g id="node1" class="node">
<g id="a_node1"><a xlink:href="/v2.2/protocol/BidirectionalIndexType/hierarchy/" target="_top">
<path fill="#999999" stroke="#999999" d="M122.725,-254C122.725,-254 7.27461,-254 7.27461,-254 3.60795,-254 -0.0587187,-250.333 -0.0587187,-246.667 -0.0587187,-246.667 -0.0587187,-239.333 -0.0587187,-239.333 -0.0587187,-235.667 3.60795,-232 7.27461,-232 7.27461,-232 122.725,-232 122.725,-232 126.392,-232 130.059,-235.667 130.059,-239.333 130.059,-239.333 130.059,-246.667 130.059,-246.667 130.059,-250.333 126.392,-254 122.725,-254"/>
<text text-anchor="middle" x="65" y="-239.4" font-family="Helvetica,sans-Serif" font-size="12.00" fill="white">BidirectionalIndexType</text>
</a>
</g>
</g>
<!-- RandomAccessIndexType -->
<g id="node12" class="node">
<g id="a_node12"><a xlink:href="/v2.2/protocol/RandomAccessIndexType/hierarchy/" target="_top">
<path fill="#999999" stroke="#999999" d="M285.225,-196C285.225,-196 150.775,-196 150.775,-196 147.108,-196 143.441,-192.333 143.441,-188.667 143.441,-188.667 143.441,-181.333 143.441,-181.333 143.441,-177.667 147.108,-174 150.775,-174 150.775,-174 285.225,-174 285.225,-174 288.892,-174 292.559,-177.667 292.559,-181.333 292.559,-181.333 292.559,-188.667 292.559,-188.667 292.559,-192.333 288.892,-196 285.225,-196"/>
<text text-anchor="middle" x="218" y="-181.4" font-family="Helvetica,sans-Serif" font-size="12.00" fill="white">RandomAccessIndexType</text>
</a>
</g>
</g>
<!-- BidirectionalIndexType&#45;&gt;RandomAccessIndexType -->
<g id="edge20" class="edge">
<path fill="none" stroke="#cccccc" d="M92.3533,-231.988C117.08,-222.938 153.685,-209.54 181.016,-199.537"/>
<polygon fill="#cccccc" stroke="#cccccc" points="182.438,-202.743 190.626,-196.019 180.032,-196.17 182.438,-202.743"/>
</g>
<!-- BitwiseOperationsType -->
<g id="node2" class="node">
<g id="a_node2"><a xlink:href="/v2.2/protocol/BitwiseOperationsType/hierarchy/" target="_top">
<path fill="#999999" stroke="#999999" d="M337.715,-312C337.715,-312 220.285,-312 220.285,-312 216.618,-312 212.952,-308.333 212.952,-304.667 212.952,-304.667 212.952,-297.333 212.952,-297.333 212.952,-293.667 216.618,-290 220.285,-290 220.285,-290 337.715,-290 337.715,-290 341.382,-290 345.048,-293.667 345.048,-297.333 345.048,-297.333 345.048,-304.667 345.048,-304.667 345.048,-308.333 341.382,-312 337.715,-312"/>
<text text-anchor="middle" x="279" y="-297.4" font-family="Helvetica,sans-Serif" font-size="12.00" fill="white">BitwiseOperationsType</text>
</a>
</g>
</g>
<!-- _IntegerType -->
<g id="node19" class="node">
<g id="a_node19"><a xlink:href="/v2.2/protocol/_IntegerType/hierarchy/" target="_top">
<path fill="#999999" stroke="#999999" d="M477.708,-254C477.708,-254 412.292,-254 412.292,-254 408.626,-254 404.959,-250.333 404.959,-246.667 404.959,-246.667 404.959,-239.333 404.959,-239.333 404.959,-235.667 408.626,-232 412.292,-232 412.292,-232 477.708,-232 477.708,-232 481.374,-232 485.041,-235.667 485.041,-239.333 485.041,-239.333 485.041,-246.667 485.041,-246.667 485.041,-250.333 481.374,-254 477.708,-254"/>
<text text-anchor="middle" x="445" y="-239.4" font-family="Helvetica,sans-Serif" font-size="12.00" fill="white">_IntegerType</text>
</a>
</g>
</g>
<!-- BitwiseOperationsType&#45;&gt;_IntegerType -->
<g id="edge11" class="edge">
<path fill="none" stroke="#cccccc" d="M308.677,-289.988C335.74,-280.859 375.919,-267.305 405.651,-257.274"/>
<polygon fill="#cccccc" stroke="#cccccc" points="406.944,-260.532 415.3,-254.019 404.706,-253.899 406.944,-260.532"/>
</g>
<!-- CVarArgType -->
<g id="node3" class="node">
<g id="a_node3"><a xlink:href="/v2.2/protocol/CVarArgType/hierarchy/" target="_top">
<path fill="#999999" stroke="#999999" d="M193.029,-80C193.029,-80 126.971,-80 126.971,-80 123.304,-80 119.638,-76.3333 119.638,-72.6667 119.638,-72.6667 119.638,-65.3333 119.638,-65.3333 119.638,-61.6667 123.304,-58 126.971,-58 126.971,-58 193.029,-58 193.029,-58 196.696,-58 200.362,-61.6667 200.362,-65.3333 200.362,-65.3333 200.362,-72.6667 200.362,-72.6667 200.362,-76.3333 196.696,-80 193.029,-80"/>
<text text-anchor="middle" x="160" y="-65.4" font-family="Helvetica,sans-Serif" font-size="12.00" fill="white">CVarArgType</text>
</a>
</g>
</g>
<!-- UInt -->
<g id="node14" class="node">
<g id="a_node14"><a xlink:href="/v2.2/type/UInt/" target="_top">
<polygon fill="#ee543d" stroke="#ee543d" points="284,-22 230,-22 230,-0 284,-0 284,-22"/>
<text text-anchor="middle" x="257" y="-7.4" font-family="Helvetica,sans-Serif" font-size="12.00" fill="white">UInt</text>
</a>
</g>
</g>
<!-- CVarArgType&#45;&gt;UInt -->
<g id="edge3" class="edge">
<path fill="none" stroke="#cccccc" d="M177.342,-57.9883C192.147,-49.441 213.67,-37.0155 230.612,-27.2343"/>
<polygon fill="#cccccc" stroke="#cccccc" points="232.571,-30.1448 239.481,-22.1138 229.071,-24.0825 232.571,-30.1448"/>
</g>
<!-- Comparable -->
<g id="node4" class="node">
<g id="a_node4"><a xlink:href="/v2.2/protocol/Comparable/hierarchy/" target="_top">
<path fill="#999999" stroke="#999999" d="M375.191,-370C375.191,-370 314.809,-370 314.809,-370 311.142,-370 307.475,-366.333 307.475,-362.667 307.475,-362.667 307.475,-355.333 307.475,-355.333 307.475,-351.667 311.142,-348 314.809,-348 314.809,-348 375.191,-348 375.191,-348 378.858,-348 382.525,-351.667 382.525,-355.333 382.525,-355.333 382.525,-362.667 382.525,-362.667 382.525,-366.333 378.858,-370 375.191,-370"/>
<text text-anchor="middle" x="345" y="-355.4" font-family="Helvetica,sans-Serif" font-size="12.00" fill="white">Comparable</text>
</a>
</g>
</g>
<!-- IntegerArithmeticType -->
<g id="node9" class="node">
<g id="a_node9"><a xlink:href="/v2.2/protocol/IntegerArithmeticType/hierarchy/" target="_top">
<path fill="#999999" stroke="#999999" d="M643.711,-312C643.711,-312 532.289,-312 532.289,-312 528.623,-312 524.956,-308.333 524.956,-304.667 524.956,-304.667 524.956,-297.333 524.956,-297.333 524.956,-293.667 528.623,-290 532.289,-290 532.289,-290 643.711,-290 643.711,-290 647.377,-290 651.044,-293.667 651.044,-297.333 651.044,-297.333 651.044,-304.667 651.044,-304.667 651.044,-308.333 647.377,-312 643.711,-312"/>
<text text-anchor="middle" x="588" y="-297.4" font-family="Helvetica,sans-Serif" font-size="12.00" fill="white">IntegerArithmeticType</text>
</a>
</g>
</g>
<!-- Comparable&#45;&gt;IntegerArithmeticType -->
<g id="edge15" class="edge">
<path fill="none" stroke="#cccccc" d="M382.436,-349.373C423.118,-339.997 488.463,-324.939 534.541,-314.32"/>
<polygon fill="#cccccc" stroke="#cccccc" points="535.396,-317.714 544.355,-312.058 533.824,-310.893 535.396,-317.714"/>
</g>
<!-- Strideable -->
<g id="node13" class="node">
<g id="a_node13"><a xlink:href="/v2.2/protocol/Strideable/hierarchy/" target="_top">
<path fill="#999999" stroke="#999999" d="M207.693,-254C207.693,-254 158.307,-254 158.307,-254 154.64,-254 150.974,-250.333 150.974,-246.667 150.974,-246.667 150.974,-239.333 150.974,-239.333 150.974,-235.667 154.64,-232 158.307,-232 158.307,-232 207.693,-232 207.693,-232 211.36,-232 215.026,-235.667 215.026,-239.333 215.026,-239.333 215.026,-246.667 215.026,-246.667 215.026,-250.333 211.36,-254 207.693,-254"/>
<text text-anchor="middle" x="183" y="-239.4" font-family="Helvetica,sans-Serif" font-size="12.00" fill="white">Strideable</text>
</a>
</g>
</g>
<!-- Comparable&#45;&gt;Strideable -->
<g id="edge25" class="edge">
<path fill="none" stroke="#cccccc" d="M307.376,-355.16C275.722,-350.807 231.365,-339.801 204,-312 191.568,-299.369 186.474,-279.545 184.399,-264.553"/>
<polygon fill="#cccccc" stroke="#cccccc" points="187.841,-263.816 183.329,-254.23 180.879,-264.538 187.841,-263.816"/>
</g>
<!-- CustomStringConvertible -->
<g id="node5" class="node">
<g id="a_node5"><a xlink:href="/v2.2/protocol/CustomStringConvertible/hierarchy/" target="_top">
<path fill="#999999" stroke="#999999" d="M499.208,-312C499.208,-312 370.792,-312 370.792,-312 367.126,-312 363.459,-308.333 363.459,-304.667 363.459,-304.667 363.459,-297.333 363.459,-297.333 363.459,-293.667 367.126,-290 370.792,-290 370.792,-290 499.208,-290 499.208,-290 502.874,-290 506.541,-293.667 506.541,-297.333 506.541,-297.333 506.541,-304.667 506.541,-304.667 506.541,-308.333 502.874,-312 499.208,-312"/>
<text text-anchor="middle" x="435" y="-297.4" font-family="Helvetica,sans-Serif" font-size="12.00" fill="white">CustomStringConvertible</text>
</a>
</g>
</g>
<!-- CustomStringConvertible&#45;&gt;_IntegerType -->
<g id="edge8" class="edge">
<path fill="none" stroke="#cccccc" d="M436.788,-289.988C438.066,-282.831 439.83,-272.955 441.395,-264.189"/>
<polygon fill="#cccccc" stroke="#cccccc" points="444.848,-264.763 443.16,-254.304 437.957,-263.533 444.848,-264.763"/>
</g>
<!-- Equatable -->
<g id="node6" class="node">
<g id="a_node6"><a xlink:href="/v2.2/protocol/Equatable/hierarchy/" target="_top">
<path fill="#999999" stroke="#999999" d="M369.702,-428C369.702,-428 320.298,-428 320.298,-428 316.632,-428 312.965,-424.333 312.965,-420.667 312.965,-420.667 312.965,-413.333 312.965,-413.333 312.965,-409.667 316.632,-406 320.298,-406 320.298,-406 369.702,-406 369.702,-406 373.368,-406 377.035,-409.667 377.035,-413.333 377.035,-413.333 377.035,-420.667 377.035,-420.667 377.035,-424.333 373.368,-428 369.702,-428"/>
<text text-anchor="middle" x="345" y="-413.4" font-family="Helvetica,sans-Serif" font-size="12.00" fill="white">Equatable</text>
</a>
</g>
</g>
<!-- Equatable&#45;&gt;Comparable -->
<g id="edge16" class="edge">
<path fill="none" stroke="#cccccc" d="M345,-405.988C345,-398.91 345,-389.171 345,-380.478"/>
<polygon fill="#cccccc" stroke="#cccccc" points="348.5,-380.304 345,-370.304 341.5,-380.304 348.5,-380.304"/>
</g>
<!-- Hashable -->
<g id="node8" class="node">
<g id="a_node8"><a xlink:href="/v2.2/protocol/Hashable/hierarchy/" target="_top">
<path fill="#999999" stroke="#999999" d="M701.694,-370C701.694,-370 656.306,-370 656.306,-370 652.639,-370 648.973,-366.333 648.973,-362.667 648.973,-362.667 648.973,-355.333 648.973,-355.333 648.973,-351.667 652.639,-348 656.306,-348 656.306,-348 701.694,-348 701.694,-348 705.361,-348 709.027,-351.667 709.027,-355.333 709.027,-355.333 709.027,-362.667 709.027,-362.667 709.027,-366.333 705.361,-370 701.694,-370"/>
<text text-anchor="middle" x="679" y="-355.4" font-family="Helvetica,sans-Serif" font-size="12.00" fill="white">Hashable</text>
</a>
</g>
</g>
<!-- Equatable&#45;&gt;Hashable -->
<g id="edge13" class="edge">
<path fill="none" stroke="#cccccc" d="M377.362,-411.904C431.692,-404.812 544.572,-389.151 639,-370 639.101,-369.98 639.202,-369.959 639.303,-369.938"/>
<polygon fill="#cccccc" stroke="#cccccc" points="639.908,-373.389 648.925,-367.826 638.407,-366.552 639.908,-373.389"/>
</g>
<!-- _Incrementable -->
<g id="node17" class="node">
<g id="a_node17"><a xlink:href="/v2.2/protocol/_Incrementable/hierarchy/" target="_top">
<path fill="#999999" stroke="#999999" d="M185.705,-370C185.705,-370 108.295,-370 108.295,-370 104.628,-370 100.961,-366.333 100.961,-362.667 100.961,-362.667 100.961,-355.333 100.961,-355.333 100.961,-351.667 104.628,-348 108.295,-348 108.295,-348 185.705,-348 185.705,-348 189.372,-348 193.039,-351.667 193.039,-355.333 193.039,-355.333 193.039,-362.667 193.039,-362.667 193.039,-366.333 189.372,-370 185.705,-370"/>
<text text-anchor="middle" x="147" y="-355.4" font-family="Helvetica,sans-Serif" font-size="12.00" fill="white">_Incrementable</text>
</a>
</g>
</g>
<!-- Equatable&#45;&gt;_Incrementable -->
<g id="edge17" class="edge">
<path fill="none" stroke="#cccccc" d="M312.747,-406.878C280.094,-397.643 229.306,-383.279 192.553,-372.884"/>
<polygon fill="#cccccc" stroke="#cccccc" points="193.161,-369.418 182.586,-370.065 191.256,-376.154 193.161,-369.418"/>
</g>
<!-- ForwardIndexType -->
<g id="node7" class="node">
<g id="a_node7"><a xlink:href="/v2.2/protocol/ForwardIndexType/hierarchy/" target="_top">
<path fill="#999999" stroke="#999999" d="M111.206,-312C111.206,-312 16.7938,-312 16.7938,-312 13.1272,-312 9.4605,-308.333 9.4605,-304.667 9.4605,-304.667 9.4605,-297.333 9.4605,-297.333 9.4605,-293.667 13.1272,-290 16.7938,-290 16.7938,-290 111.206,-290 111.206,-290 114.873,-290 118.539,-293.667 118.539,-297.333 118.539,-297.333 118.539,-304.667 118.539,-304.667 118.539,-308.333 114.873,-312 111.206,-312"/>
<text text-anchor="middle" x="64" y="-297.4" font-family="Helvetica,sans-Serif" font-size="12.00" fill="white">ForwardIndexType</text>
</a>
</g>
</g>
<!-- ForwardIndexType&#45;&gt;BidirectionalIndexType -->
<g id="edge23" class="edge">
<path fill="none" stroke="#cccccc" d="M64.1788,-289.988C64.3052,-282.91 64.4791,-273.171 64.6343,-264.478"/>
<polygon fill="#cccccc" stroke="#cccccc" points="68.1368,-264.365 64.816,-254.304 61.1379,-264.24 68.1368,-264.365"/>
</g>
<!-- Hashable&#45;&gt;_IntegerType -->
<g id="edge9" class="edge">
<path fill="none" stroke="#cccccc" d="M679.221,-347.575C678.938,-332.592 676.075,-305.113 660,-290 636.633,-268.032 551.305,-255.084 495.428,-248.78"/>
<polygon fill="#cccccc" stroke="#cccccc" points="495.679,-245.286 485.358,-247.679 494.919,-252.245 495.679,-245.286"/>
</g>
<!-- IntegerArithmeticType&#45;&gt;_IntegerType -->
<g id="edge10" class="edge">
<path fill="none" stroke="#cccccc" d="M562.434,-289.988C539.497,-281.006 505.621,-267.74 480.141,-257.761"/>
<polygon fill="#cccccc" stroke="#cccccc" points="481.414,-254.501 470.826,-254.114 478.862,-261.019 481.414,-254.501"/>
</g>
<!-- IntegerLiteralConvertible -->
<g id="node10" class="node">
<g id="a_node10"><a xlink:href="/v2.2/protocol/IntegerLiteralConvertible/hierarchy/" target="_top">
<path fill="#999999" stroke="#999999" d="M839.722,-312C839.722,-312 714.278,-312 714.278,-312 710.611,-312 706.944,-308.333 706.944,-304.667 706.944,-304.667 706.944,-297.333 706.944,-297.333 706.944,-293.667 710.611,-290 714.278,-290 714.278,-290 839.722,-290 839.722,-290 843.389,-290 847.056,-293.667 847.056,-297.333 847.056,-297.333 847.056,-304.667 847.056,-304.667 847.056,-308.333 843.389,-312 839.722,-312"/>
<text text-anchor="middle" x="777" y="-297.4" font-family="Helvetica,sans-Serif" font-size="12.00" fill="white">IntegerLiteralConvertible</text>
</a>
</g>
</g>
<!-- IntegerLiteralConvertible&#45;&gt;_IntegerType -->
<g id="edge7" class="edge">
<path fill="none" stroke="#cccccc" d="M717.645,-289.988C654.172,-279.282 554.625,-262.491 495,-252.434"/>
<polygon fill="#cccccc" stroke="#cccccc" points="495.51,-248.97 485.068,-250.758 494.346,-255.873 495.51,-248.97"/>
</g>
<!-- IntegerType -->
<g id="node11" class="node">
<g id="a_node11"><a xlink:href="/v2.2/protocol/IntegerType/hierarchy/" target="_top">
<path fill="#999999" stroke="#999999" d="M334.202,-138C334.202,-138 275.798,-138 275.798,-138 272.132,-138 268.465,-134.333 268.465,-130.667 268.465,-130.667 268.465,-123.333 268.465,-123.333 268.465,-119.667 272.132,-116 275.798,-116 275.798,-116 334.202,-116 334.202,-116 337.868,-116 341.535,-119.667 341.535,-123.333 341.535,-123.333 341.535,-130.667 341.535,-130.667 341.535,-134.333 337.868,-138 334.202,-138"/>
<text text-anchor="middle" x="305" y="-123.4" font-family="Helvetica,sans-Serif" font-size="12.00" fill="white">IntegerType</text>
</a>
</g>
</g>
<!-- UnsignedIntegerType -->
<g id="node15" class="node">
<g id="a_node15"><a xlink:href="/v2.2/protocol/UnsignedIntegerType/hierarchy/" target="_top">
<path fill="#999999" stroke="#999999" d="M429.728,-80C429.728,-80 320.272,-80 320.272,-80 316.605,-80 312.938,-76.3333 312.938,-72.6667 312.938,-72.6667 312.938,-65.3333 312.938,-65.3333 312.938,-61.6667 316.605,-58 320.272,-58 320.272,-58 429.728,-58 429.728,-58 433.395,-58 437.062,-61.6667 437.062,-65.3333 437.062,-65.3333 437.062,-72.6667 437.062,-72.6667 437.062,-76.3333 433.395,-80 429.728,-80"/>
<text text-anchor="middle" x="375" y="-65.4" font-family="Helvetica,sans-Serif" font-size="12.00" fill="white">UnsignedIntegerType</text>
</a>
</g>
</g>
<!-- IntegerType&#45;&gt;UnsignedIntegerType -->
<g id="edge5" class="edge">
<path fill="none" stroke="#cccccc" d="M317.515,-115.988C327.641,-107.887 342.122,-96.3026 354.016,-86.7873"/>
<polygon fill="#cccccc" stroke="#cccccc" points="356.498,-89.2839 362.12,-80.3039 352.125,-83.8178 356.498,-89.2839"/>
</g>
<!-- RandomAccessIndexType&#45;&gt;IntegerType -->
<g id="edge19" class="edge">
<path fill="none" stroke="#cccccc" d="M233.554,-173.988C246.587,-165.599 265.424,-153.474 280.484,-143.78"/>
<polygon fill="#cccccc" stroke="#cccccc" points="282.773,-146.469 289.287,-138.114 278.984,-140.583 282.773,-146.469"/>
</g>
<!-- Strideable&#45;&gt;RandomAccessIndexType -->
<g id="edge21" class="edge">
<path fill="none" stroke="#cccccc" d="M189.257,-231.988C193.927,-224.517 200.449,-214.081 206.1,-205.039"/>
<polygon fill="#cccccc" stroke="#cccccc" points="209.228,-206.639 211.56,-196.304 203.292,-202.929 209.228,-206.639"/>
</g>
<!-- UnsignedIntegerType&#45;&gt;UInt -->
<g id="edge1" class="edge">
<path fill="none" stroke="#cccccc" d="M353.904,-57.9883C335.393,-49.2036 308.25,-36.3222 287.397,-26.4255"/>
<polygon fill="#cccccc" stroke="#cccccc" points="288.846,-23.2393 278.311,-22.1138 285.845,-29.5633 288.846,-23.2393"/>
</g>
<!-- _DisallowMixedSignArithmetic -->
<g id="node16" class="node">
<g id="a_node16"><a xlink:href="/v2.2/protocol/_DisallowMixedSignArithmetic/hierarchy/" target="_top">
<path fill="#999999" stroke="#999999" d="M522.709,-138C522.709,-138 367.291,-138 367.291,-138 363.624,-138 359.957,-134.333 359.957,-130.667 359.957,-130.667 359.957,-123.333 359.957,-123.333 359.957,-119.667 363.624,-116 367.291,-116 367.291,-116 522.709,-116 522.709,-116 526.376,-116 530.043,-119.667 530.043,-123.333 530.043,-123.333 530.043,-130.667 530.043,-130.667 530.043,-134.333 526.376,-138 522.709,-138"/>
<text text-anchor="middle" x="445" y="-123.4" font-family="Helvetica,sans-Serif" font-size="12.00" fill="white">_DisallowMixedSignArithmetic</text>
</a>
</g>
</g>
<!-- _DisallowMixedSignArithmetic&#45;&gt;UnsignedIntegerType -->
<g id="edge4" class="edge">
<path fill="none" stroke="#cccccc" d="M432.485,-115.988C422.359,-107.887 407.878,-96.3026 395.984,-86.7873"/>
<polygon fill="#cccccc" stroke="#cccccc" points="397.875,-83.8178 387.88,-80.3039 393.502,-89.2839 397.875,-83.8178"/>
</g>
<!-- _Incrementable&#45;&gt;ForwardIndexType -->
<g id="edge24" class="edge">
<path fill="none" stroke="#cccccc" d="M132.161,-347.988C119.728,-339.599 101.757,-327.474 87.3888,-317.78"/>
<polygon fill="#cccccc" stroke="#cccccc" points="89.2373,-314.805 78.9901,-312.114 85.3222,-320.608 89.2373,-314.805"/>
</g>
<!-- _Incrementable&#45;&gt;_IntegerType -->
<g id="edge12" class="edge">
<path fill="none" stroke="#cccccc" d="M152.47,-347.79C161.203,-332.56 179.806,-304.167 204,-290 278.544,-246.35 310.201,-270.471 395,-254 395.1,-253.98 395.201,-253.961 395.302,-253.941"/>
<polygon fill="#cccccc" stroke="#cccccc" points="395.75,-257.42 404.891,-252.063 394.404,-250.551 395.75,-257.42"/>
</g>
<!-- _IntegerArithmeticType -->
<g id="node18" class="node">
<g id="a_node18"><a xlink:href="/v2.2/protocol/_IntegerArithmeticType/hierarchy/" target="_top">
<path fill="#999999" stroke="#999999" d="M623.215,-370C623.215,-370 504.785,-370 504.785,-370 501.118,-370 497.452,-366.333 497.452,-362.667 497.452,-362.667 497.452,-355.333 497.452,-355.333 497.452,-351.667 501.118,-348 504.785,-348 504.785,-348 623.215,-348 623.215,-348 626.882,-348 630.548,-351.667 630.548,-355.333 630.548,-355.333 630.548,-362.667 630.548,-362.667 630.548,-366.333 626.882,-370 623.215,-370"/>
<text text-anchor="middle" x="564" y="-355.4" font-family="Helvetica,sans-Serif" font-size="12.00" fill="white">_IntegerArithmeticType</text>
</a>
</g>
</g>
<!-- _IntegerArithmeticType&#45;&gt;IntegerArithmeticType -->
<g id="edge14" class="edge">
<path fill="none" stroke="#cccccc" d="M568.291,-347.988C571.425,-340.674 575.777,-330.519 579.595,-321.612"/>
<polygon fill="#cccccc" stroke="#cccccc" points="582.862,-322.874 583.584,-312.304 576.428,-320.117 582.862,-322.874"/>
</g>
<!-- _IntegerType&#45;&gt;IntegerType -->
<g id="edge18" class="edge">
<path fill="none" stroke="#cccccc" d="M432.576,-231.883C408.456,-212.243 355.075,-168.775 325.582,-144.76"/>
<polygon fill="#cccccc" stroke="#cccccc" points="327.562,-141.858 317.597,-138.258 323.142,-147.286 327.562,-141.858"/>
</g>
<!-- _IntegerType&#45;&gt;_DisallowMixedSignArithmetic -->
<g id="edge6" class="edge">
<path fill="none" stroke="#cccccc" d="M445,-231.883C445,-213.17 445,-172.827 445,-148.287"/>
<polygon fill="#cccccc" stroke="#cccccc" points="448.5,-148.258 445,-138.258 441.5,-148.258 448.5,-148.258"/>
</g>
<!-- _RandomAccessAmbiguity -->
<g id="node20" class="node">
<g id="a_node20"><a xlink:href="/v2.2/protocol/_RandomAccessAmbiguity/hierarchy/" target="_top">
<path fill="#999999" stroke="#999999" d="M379.214,-254C379.214,-254 240.786,-254 240.786,-254 237.12,-254 233.453,-250.333 233.453,-246.667 233.453,-246.667 233.453,-239.333 233.453,-239.333 233.453,-235.667 237.12,-232 240.786,-232 240.786,-232 379.214,-232 379.214,-232 382.88,-232 386.547,-235.667 386.547,-239.333 386.547,-239.333 386.547,-246.667 386.547,-246.667 386.547,-250.333 382.88,-254 379.214,-254"/>
<text text-anchor="middle" x="310" y="-239.4" font-family="Helvetica,sans-Serif" font-size="12.00" fill="white">_RandomAccessAmbiguity</text>
</a>
</g>
</g>
<!-- _RandomAccessAmbiguity&#45;&gt;RandomAccessIndexType -->
<g id="edge22" class="edge">
<path fill="none" stroke="#cccccc" d="M293.552,-231.988C279.64,-223.52 259.474,-211.245 243.475,-201.507"/>
<polygon fill="#cccccc" stroke="#cccccc" points="244.977,-198.324 234.616,-196.114 241.338,-204.303 244.977,-198.324"/>
</g>
<!-- _Reflectable -->
<g id="node21" class="node">
<g id="a_node21"><a xlink:href="/v2.2/protocol/_Reflectable/hierarchy/" target="_top">
<path fill="#999999" stroke="#999999" d="M287.7,-80C287.7,-80 226.3,-80 226.3,-80 222.634,-80 218.967,-76.3333 218.967,-72.6667 218.967,-72.6667 218.967,-65.3333 218.967,-65.3333 218.967,-61.6667 222.634,-58 226.3,-58 226.3,-58 287.7,-58 287.7,-58 291.366,-58 295.033,-61.6667 295.033,-65.3333 295.033,-65.3333 295.033,-72.6667 295.033,-72.6667 295.033,-76.3333 291.366,-80 287.7,-80"/>
<text text-anchor="middle" x="257" y="-65.4" font-family="Helvetica,sans-Serif" font-size="12.00" fill="white">_Reflectable</text>
</a>
</g>
</g>
<!-- _Reflectable&#45;&gt;UInt -->
<g id="edge2" class="edge">
<path fill="none" stroke="#cccccc" d="M257,-57.9883C257,-50.9098 257,-41.1714 257,-32.4779"/>
<polygon fill="#cccccc" stroke="#cccccc" points="260.5,-32.3038 257,-22.3039 253.5,-32.3039 260.5,-32.3038"/>
</g>
</g>
</svg>
