<?xml version="1.0" encoding="UTF-8" standalone="no"?>
<!DOCTYPE svg PUBLIC "-//W3C//DTD SVG 1.1//EN"
 "http://www.w3.org/Graphics/SVG/1.1/DTD/svg11.dtd">
<!-- Generated by graphviz version 2.36.0 (20140111.2315)
 -->
<!-- Title: BidirectionalIndexType &#45; Type Hierarchy &#45; Swifter Pages: 1 -->
<svg width="1840pt" height="601pt"
 viewBox="0.00 0.00 1840.40 601.20" xmlns="http://www.w3.org/2000/svg" xmlns:xlink="http://www.w3.org/1999/xlink">
<g id="graph0" class="graph" transform="scale(1 1) rotate(0) translate(7.2 543.6)">
<g transform="translate(0 -543.6)">
<g>
    <path fill="#666666" d="M13.846,10.832c-0.336-0.464-0.792-0.844-1.368-1.14s-1.224-0.444-1.944-0.444
        c-0.384,0-0.772,0.052-1.164,0.156C8.977,9.509,8.622,9.677,8.301,9.908c-0.32,0.232-0.58,0.52-0.78,0.864
        c-0.2,0.344-0.3,0.756-0.3,1.236c0,0.464,0.092,0.852,0.276,1.164c0.184,0.312,0.432,0.576,0.744,0.792s0.68,0.4,1.104,0.552
        c0.423,0.152,0.876,0.309,1.356,0.468c0.576,0.177,1.16,0.376,1.752,0.601c0.592,0.224,1.128,0.52,1.608,0.888
        s0.872,0.828,1.176,1.38s0.456,1.252,0.456,2.101c0,0.88-0.164,1.644-0.492,2.292c-0.328,0.647-0.765,1.184-1.308,1.607
        c-0.544,0.424-1.172,0.74-1.884,0.948s-1.444,0.312-2.196,0.312c-1.072,0-2.108-0.208-3.108-0.624
        c-1-0.415-1.828-1.031-2.484-1.848l1.848-1.56c0.4,0.592,0.936,1.071,1.608,1.439c0.672,0.368,1.399,0.552,2.184,0.552
        c0.4,0,0.8-0.056,1.2-0.168c0.4-0.111,0.764-0.288,1.092-0.527c0.328-0.24,0.596-0.54,0.804-0.9
        c0.208-0.36,0.312-0.796,0.312-1.308s-0.108-0.94-0.324-1.284c-0.216-0.344-0.508-0.636-0.876-0.876s-0.796-0.444-1.284-0.612
        c-0.488-0.168-1.004-0.34-1.548-0.516c-0.544-0.16-1.08-0.356-1.608-0.588c-0.528-0.232-1-0.528-1.416-0.889
        c-0.416-0.359-0.752-0.804-1.008-1.332c-0.256-0.527-0.384-1.184-0.384-1.968c0-0.848,0.172-1.576,0.516-2.184
        c0.344-0.608,0.792-1.112,1.344-1.512c0.552-0.4,1.176-0.692,1.872-0.876c0.696-0.184,1.396-0.276,2.1-0.276
        c0.992,0,1.92,0.176,2.784,0.528c0.864,0.352,1.56,0.824,2.088,1.416L13.846,10.832z"/>
    <path fill="#666666" d="M18.813,13.304l2.568,8.688h0.048l2.712-8.688h2.376l2.76,8.688h0.048l2.568-8.688h2.376L30.501,24.68
        h-2.352l-2.808-8.544h-0.048l-2.784,8.544h-2.352l-3.792-11.376H18.813z"/>
    <path fill="#666666" d="M38.685,9.2c0,0.416-0.147,0.76-0.44,1.032c-0.294,0.272-0.647,0.408-1.06,0.408s-0.762-0.14-1.047-0.42
        c-0.286-0.28-0.429-0.62-0.429-1.02c0-0.416,0.143-0.764,0.429-1.044c0.286-0.28,0.635-0.42,1.047-0.42s0.766,0.14,1.06,0.42
        C38.538,8.437,38.685,8.784,38.685,9.2z M38.325,24.68h-2.256V13.304h2.256V24.68z"/>
    <path fill="#666666" d="M47.613,15.152h-2.64v9.528h-2.256v-9.528h-2.256v-1.848h2.256v-2.376c0-0.672,0.076-1.292,0.228-1.86
        c0.152-0.568,0.4-1.06,0.744-1.476c0.344-0.416,0.784-0.744,1.32-0.984c0.536-0.24,1.188-0.36,1.956-0.36
        c0.544,0,1.016,0.056,1.416,0.168l-0.264,1.944c-0.176-0.048-0.352-0.088-0.528-0.12c-0.176-0.032-0.376-0.048-0.6-0.048
        c-0.432,0-0.78,0.076-1.044,0.228c-0.264,0.152-0.468,0.356-0.612,0.612s-0.24,0.548-0.288,0.876
        c-0.048,0.328-0.072,0.668-0.072,1.02v2.376h2.64V15.152z"/>
    <path fill="#666666" d="M54.909,15.152h-3.024v5.91c0,0.687,0.128,1.177,0.384,1.472c0.256,0.295,0.664,0.442,1.224,0.442
        c0.208,0,0.432-0.021,0.672-0.065c0.24-0.044,0.456-0.11,0.648-0.198l0.072,1.848c-0.272,0.096-0.572,0.172-0.9,0.229
        c-0.328,0.056-0.668,0.084-1.02,0.084c-1.072,0-1.892-0.296-2.46-0.889c-0.568-0.592-0.852-1.479-0.852-2.664v-6.168h-2.184
        v-1.848h2.184V10.04h2.232v3.264h3.024V15.152z"/>
    <path fill="#666666" d="M57.356,7.688h5.832c1.088,0,2.176,0.16,3.264,0.48c1.088,0.32,2.072,0.824,2.952,1.512
        s1.592,1.568,2.136,2.64c0.544,1.072,0.816,2.36,0.816,3.864c0,1.456-0.272,2.716-0.816,3.78s-1.256,1.943-2.136,2.64
        s-1.864,1.216-2.952,1.561c-1.088,0.344-2.176,0.516-3.264,0.516h-5.832V7.688z M59.732,22.593h2.976
        c1.024,0,1.972-0.145,2.844-0.432c0.872-0.288,1.624-0.704,2.256-1.248c0.632-0.544,1.124-1.216,1.476-2.017
        c0.352-0.8,0.528-1.704,0.528-2.712c0-1.056-0.176-1.983-0.528-2.784c-0.353-0.8-0.844-1.468-1.476-2.004
        c-0.632-0.536-1.384-0.944-2.256-1.224s-1.82-0.42-2.844-0.42h-2.976V22.593z"/>
    <path fill="#666666" d="M86.06,18.969c0,0.88-0.156,1.688-0.468,2.424c-0.312,0.736-0.744,1.372-1.296,1.908
        c-0.552,0.536-1.204,0.952-1.956,1.248c-0.752,0.296-1.56,0.443-2.424,0.443c-0.864,0-1.672-0.147-2.424-0.443
        c-0.752-0.296-1.4-0.712-1.944-1.248c-0.544-0.536-0.972-1.172-1.284-1.908c-0.312-0.735-0.468-1.544-0.468-2.424
        s0.156-1.684,0.468-2.412c0.312-0.728,0.74-1.356,1.284-1.884c0.543-0.528,1.191-0.939,1.944-1.236
        c0.752-0.296,1.56-0.444,2.424-0.444c0.864,0,1.672,0.148,2.424,0.444c0.752,0.297,1.404,0.708,1.956,1.236
        c0.552,0.527,0.984,1.156,1.296,1.884C85.904,17.285,86.06,18.089,86.06,18.969z M83.708,18.98c0-0.542-0.084-1.061-0.252-1.556
        c-0.169-0.494-0.414-0.929-0.734-1.304s-0.718-0.674-1.192-0.897s-1.015-0.335-1.625-0.335c-0.61,0-1.152,0.111-1.625,0.335
        c-0.474,0.224-0.871,0.522-1.191,0.897c-0.321,0.375-0.566,0.81-0.734,1.304C76.184,17.92,76.1,18.438,76.1,18.98
        c0,0.543,0.084,1.062,0.253,1.556c0.168,0.495,0.413,0.934,0.734,1.316c0.321,0.383,0.718,0.686,1.191,0.909
        c0.473,0.224,1.015,0.335,1.625,0.335c0.61,0,1.151-0.111,1.625-0.335s0.871-0.526,1.192-0.909s0.565-0.821,0.734-1.316
        C83.624,20.042,83.708,19.523,83.708,18.98z"/>
    <path fill="#666666" d="M96.428,16.184c-0.24-0.368-0.6-0.676-1.08-0.924s-0.992-0.372-1.536-0.372
        c-0.592,0-1.116,0.112-1.572,0.336c-0.456,0.225-0.844,0.524-1.164,0.9c-0.32,0.376-0.564,0.812-0.732,1.308
        s-0.252,1.017-0.252,1.56c0,0.545,0.084,1.064,0.252,1.561s0.412,0.933,0.732,1.308c0.32,0.376,0.712,0.677,1.176,0.9
        c0.464,0.225,0.992,0.336,1.584,0.336c0.576,0,1.1-0.111,1.572-0.336c0.472-0.224,0.86-0.528,1.164-0.912l1.512,1.368
        c-0.48,0.561-1.08,0.996-1.8,1.308c-0.72,0.312-1.536,0.468-2.448,0.468c-0.88,0-1.692-0.144-2.436-0.432
        c-0.744-0.288-1.388-0.691-1.932-1.212c-0.544-0.52-0.972-1.147-1.284-1.884s-0.468-1.561-0.468-2.473
        c0-0.896,0.152-1.711,0.456-2.447c0.304-0.736,0.728-1.368,1.272-1.896c0.543-0.527,1.188-0.936,1.932-1.224
        c0.744-0.288,1.548-0.433,2.412-0.433c0.8,0,1.596,0.16,2.388,0.48s1.419,0.784,1.884,1.392L96.428,16.184z"/>
    <path fill="#666666" d="M103.1,23.24c0,0.417-0.152,0.784-0.456,1.104c-0.304,0.32-0.688,0.479-1.152,0.479
        c-0.448,0-0.828-0.155-1.14-0.468c-0.312-0.312-0.468-0.676-0.468-1.092c0-0.432,0.152-0.804,0.456-1.116
        c0.304-0.312,0.688-0.468,1.152-0.468c0.464,0,0.848,0.152,1.152,0.456C102.947,22.44,103.1,22.808,103.1,23.24z"/>
    <path fill="#666666" d="M116.635,18.969c0,0.88-0.156,1.688-0.468,2.424c-0.312,0.736-0.744,1.372-1.296,1.908
        c-0.552,0.536-1.204,0.952-1.956,1.248c-0.752,0.296-1.56,0.443-2.424,0.443c-0.864,0-1.672-0.147-2.424-0.443
        c-0.752-0.296-1.4-0.712-1.944-1.248c-0.544-0.536-0.972-1.172-1.284-1.908c-0.312-0.735-0.468-1.544-0.468-2.424
        s0.156-1.684,0.468-2.412c0.312-0.728,0.74-1.356,1.284-1.884c0.543-0.528,1.191-0.939,1.944-1.236
        c0.752-0.296,1.56-0.444,2.424-0.444c0.864,0,1.672,0.148,2.424,0.444c0.752,0.297,1.404,0.708,1.956,1.236
        c0.552,0.527,0.984,1.156,1.296,1.884C116.479,17.285,116.635,18.089,116.635,18.969z M114.283,18.98
        c0-0.542-0.084-1.061-0.252-1.556c-0.169-0.494-0.414-0.929-0.734-1.304s-0.718-0.674-1.192-0.897s-1.015-0.335-1.625-0.335
        c-0.61,0-1.152,0.111-1.625,0.335c-0.474,0.224-0.871,0.522-1.191,0.897c-0.321,0.375-0.566,0.81-0.734,1.304
        c-0.169,0.495-0.253,1.014-0.253,1.556c0,0.543,0.084,1.062,0.253,1.556c0.168,0.495,0.413,0.934,0.734,1.316
        c0.321,0.383,0.718,0.686,1.191,0.909c0.473,0.224,1.015,0.335,1.625,0.335c0.61,0,1.151-0.111,1.625-0.335
        s0.871-0.526,1.192-0.909s0.565-0.821,0.734-1.316C114.199,20.042,114.283,19.523,114.283,18.98z"/>
    <path fill="#666666" d="M119.251,14.577c-0.016-0.48-0.04-0.904-0.072-1.272h2.136c0.032,0.288,0.056,0.62,0.072,0.996
        c0.016,0.376,0.024,0.684,0.024,0.924h0.072c0.32-0.672,0.788-1.212,1.404-1.62c0.616-0.408,1.308-0.612,2.076-0.612
        c0.352,0,0.648,0.033,0.888,0.097l-0.096,2.088c-0.32-0.08-0.664-0.12-1.032-0.12c-0.544,0-1.016,0.101-1.416,0.3
        c-0.4,0.2-0.732,0.468-0.996,0.805c-0.264,0.336-0.46,0.724-0.588,1.163c-0.128,0.44-0.192,0.9-0.192,1.381v5.976h-2.256v-8.928
        C119.275,15.449,119.267,15.056,119.251,14.577z"/>
    <path fill="#666666" d="M128.419,26.625c0.496,0.56,1.116,1.008,1.86,1.344c0.744,0.336,1.508,0.504,2.292,0.504
        c0.752,0,1.384-0.108,1.896-0.324s0.924-0.512,1.236-0.888s0.536-0.82,0.672-1.332c0.136-0.513,0.204-1.064,0.204-1.656v-1.464
        h-0.048c-0.416,0.641-0.984,1.128-1.704,1.464c-0.72,0.336-1.488,0.504-2.304,0.504c-0.864,0-1.652-0.151-2.364-0.456
        c-0.712-0.304-1.316-0.72-1.812-1.248c-0.496-0.527-0.88-1.147-1.152-1.859s-0.408-1.477-0.408-2.292
        c0-0.816,0.136-1.584,0.408-2.305c0.272-0.72,0.656-1.348,1.152-1.884c0.496-0.535,1.096-0.96,1.8-1.271
        c0.704-0.312,1.488-0.469,2.352-0.469c0.816,0,1.596,0.177,2.34,0.528c0.744,0.353,1.332,0.888,1.764,1.608h0.048v-1.824h2.184
        v10.8c0,0.832-0.104,1.628-0.312,2.388c-0.208,0.76-0.56,1.433-1.056,2.017s-1.144,1.052-1.944,1.404
        c-0.8,0.352-1.792,0.527-2.976,0.527c-0.992,0-1.988-0.18-2.988-0.54c-1-0.359-1.86-0.868-2.58-1.523L128.419,26.625z
         M129.091,18.873c0,0.527,0.084,1.031,0.253,1.512c0.168,0.479,0.417,0.904,0.746,1.271c0.329,0.369,0.726,0.664,1.192,0.889
        c0.465,0.224,0.995,0.336,1.589,0.336c0.577,0,1.107-0.104,1.589-0.312c0.481-0.207,0.891-0.491,1.228-0.852
        s0.598-0.784,0.782-1.272c0.185-0.487,0.277-1.012,0.277-1.571c0-0.544-0.093-1.057-0.277-1.536
        c-0.185-0.48-0.449-0.904-0.794-1.272c-0.345-0.367-0.755-0.66-1.228-0.876c-0.474-0.216-1-0.324-1.577-0.324
        c-0.594,0-1.124,0.108-1.589,0.324c-0.466,0.216-0.863,0.504-1.192,0.864s-0.578,0.784-0.746,1.271
        C129.175,17.812,129.091,18.329,129.091,18.873z"/>
</g>
<g><a xlink:href="/" pointer-events="all" target="_top"><polygon fill="none" points="0,0 145,0 145,35 0,35 0,0"/></a></g>

</g>


<!-- BidirectionalIndexType -->
<g id="node1" class="node">
<g id="a_node1"><a xlink:href="/protocol/BidirectionalIndexType/" target="_top">
<path fill="#ee543d" stroke="#ee543d" d="M1517.73,-254C1517.73,-254 1402.27,-254 1402.27,-254 1398.61,-254 1394.94,-250.333 1394.94,-246.667 1394.94,-246.667 1394.94,-239.333 1394.94,-239.333 1394.94,-235.667 1398.61,-232 1402.27,-232 1402.27,-232 1517.73,-232 1517.73,-232 1521.39,-232 1525.06,-235.667 1525.06,-239.333 1525.06,-239.333 1525.06,-246.667 1525.06,-246.667 1525.06,-250.333 1521.39,-254 1517.73,-254"/>
<text text-anchor="middle" x="1460" y="-239.4" font-family="Helvetica,sans-Serif" font-size="12.00" fill="white">BidirectionalIndexType</text>
</a>
</g>
</g>
<!-- RandomAccessIndexType -->
<g id="node11" class="node">
<g id="a_node11"><a xlink:href="/protocol/RandomAccessIndexType/" target="_top">
<path fill="#999999" stroke="#999999" d="M701.225,-196C701.225,-196 566.775,-196 566.775,-196 563.108,-196 559.441,-192.333 559.441,-188.667 559.441,-188.667 559.441,-181.333 559.441,-181.333 559.441,-177.667 563.108,-174 566.775,-174 566.775,-174 701.225,-174 701.225,-174 704.892,-174 708.559,-177.667 708.559,-181.333 708.559,-181.333 708.559,-188.667 708.559,-188.667 708.559,-192.333 704.892,-196 701.225,-196"/>
<text text-anchor="middle" x="634" y="-181.4" font-family="Helvetica,sans-Serif" font-size="12.00" fill="white">RandomAccessIndexType</text>
</a>
</g>
</g>
<!-- BidirectionalIndexType&#45;&gt;RandomAccessIndexType -->
<g id="edge1" class="edge">
<path fill="none" stroke="#cccccc" d="M1394.84,-237.582C1246.52,-227.527 883.802,-202.936 718.532,-191.731"/>
<polygon fill="#cccccc" stroke="#cccccc" points="718.628,-188.23 708.415,-191.045 718.155,-195.214 718.628,-188.23"/>
</g>
<!-- ReverseBidirectionalIndex -->
<g id="node12" class="node">
<g id="a_node12"><a xlink:href="/type/ReverseBidirectionalIndex/" target="_top">
<polygon fill="#999999" stroke="#999999" points="1534.55,-22 1385.45,-22 1385.45,-0 1534.55,-0 1534.55,-22"/>
<text text-anchor="middle" x="1460" y="-7.4" font-family="Helvetica,sans-Serif" font-size="12.00" fill="white">ReverseBidirectionalIndex</text>
</a>
</g>
</g>
<!-- BidirectionalIndexType&#45;&gt;ReverseBidirectionalIndex -->
<g id="edge2" class="edge">
<path fill="none" stroke="#cccccc" d="M1460,-231.82C1460,-196.642 1460,-79.7709 1460,-32.3033"/>
<polygon fill="#cccccc" stroke="#cccccc" points="1463.5,-32.062 1460,-22.062 1456.5,-32.0621 1463.5,-32.062"/>
</g>
<!-- String.Index -->
<g id="node15" class="node">
<g id="a_node15"><a xlink:href="/type/String.Index/" target="_top">
<polygon fill="#999999" stroke="#999999" points="1627.03,-22 1552.97,-22 1552.97,-0 1627.03,-0 1627.03,-22"/>
<text text-anchor="middle" x="1590" y="-7.4" font-family="Helvetica,sans-Serif" font-size="12.00" fill="white">String.Index</text>
</a>
</g>
</g>
<!-- BidirectionalIndexType&#45;&gt;String.Index -->
<g id="edge3" class="edge">
<path fill="none" stroke="#cccccc" d="M1465.75,-231.82C1485.85,-196.271 1553.1,-77.2909 1579.36,-30.8214"/>
<polygon fill="#cccccc" stroke="#cccccc" points="1582.44,-32.4899 1584.31,-22.062 1576.35,-29.0455 1582.44,-32.4899"/>
</g>
<!-- String.UTF16View.Index -->
<g id="node16" class="node">
<g id="a_node16"><a xlink:href="/type/String.UTF16View.Index/" target="_top">
<polygon fill="#999999" stroke="#999999" points="1367.39,-22 1228.61,-22 1228.61,-0 1367.39,-0 1367.39,-22"/>
<text text-anchor="middle" x="1298" y="-7.4" font-family="Helvetica,sans-Serif" font-size="12.00" fill="white">String.UTF16View.Index</text>
</a>
</g>
</g>
<!-- BidirectionalIndexType&#45;&gt;String.UTF16View.Index -->
<g id="edge4" class="edge">
<path fill="none" stroke="#cccccc" d="M1452.83,-231.82C1427.69,-196.122 1343.29,-76.2938 1310.85,-30.2419"/>
<polygon fill="#cccccc" stroke="#cccccc" points="1313.71,-28.2222 1305.09,-22.062 1307.98,-32.2531 1313.71,-28.2222"/>
</g>
<!-- String.UnicodeScalarView.Index -->
<g id="node17" class="node">
<g id="a_node17"><a xlink:href="/type/String.UnicodeScalarView.Index/" target="_top">
<polygon fill="#999999" stroke="#999999" points="1824.92,-22 1645.08,-22 1645.08,-0 1824.92,-0 1824.92,-22"/>
<text text-anchor="middle" x="1735" y="-7.4" font-family="Helvetica,sans-Serif" font-size="12.00" fill="white">String.UnicodeScalarView.Index</text>
</a>
</g>
</g>
<!-- BidirectionalIndexType&#45;&gt;String.UnicodeScalarView.Index -->
<g id="edge5" class="edge">
<path fill="none" stroke="#cccccc" d="M1472.17,-231.82C1515.39,-195.676 1661.72,-73.285 1715.21,-28.5499"/>
<polygon fill="#cccccc" stroke="#cccccc" points="1717.54,-31.1624 1722.97,-22.062 1713.05,-25.7928 1717.54,-31.1624"/>
</g>
<!-- Bit -->
<g id="node2" class="node">
<g id="a_node2"><a xlink:href="/type/Bit/" target="_top">
<polygon fill="#999999" stroke="#999999" points="1210,-22 1156,-22 1156,-0 1210,-0 1210,-22"/>
<text text-anchor="middle" x="1183" y="-7.4" font-family="Helvetica,sans-Serif" font-size="12.00" fill="white">Bit</text>
</a>
</g>
</g>
<!-- Equatable -->
<g id="node3" class="node">
<g id="a_node3"><a xlink:href="/protocol/Equatable/" target="_top">
<path fill="#999999" stroke="#999999" d="M1484.7,-486C1484.7,-486 1435.3,-486 1435.3,-486 1431.63,-486 1427.96,-482.333 1427.96,-478.667 1427.96,-478.667 1427.96,-471.333 1427.96,-471.333 1427.96,-467.667 1431.63,-464 1435.3,-464 1435.3,-464 1484.7,-464 1484.7,-464 1488.37,-464 1492.04,-467.667 1492.04,-471.333 1492.04,-471.333 1492.04,-478.667 1492.04,-478.667 1492.04,-482.333 1488.37,-486 1484.7,-486"/>
<text text-anchor="middle" x="1460" y="-471.4" font-family="Helvetica,sans-Serif" font-size="12.00" fill="white">Equatable</text>
</a>
</g>
</g>
<!-- _Incrementable -->
<g id="node28" class="node">
<g id="a_node28"><a xlink:href="/protocol/_Incrementable/" target="_top">
<path fill="#999999" stroke="#999999" d="M1498.71,-428C1498.71,-428 1421.29,-428 1421.29,-428 1417.63,-428 1413.96,-424.333 1413.96,-420.667 1413.96,-420.667 1413.96,-413.333 1413.96,-413.333 1413.96,-409.667 1417.63,-406 1421.29,-406 1421.29,-406 1498.71,-406 1498.71,-406 1502.37,-406 1506.04,-409.667 1506.04,-413.333 1506.04,-413.333 1506.04,-420.667 1506.04,-420.667 1506.04,-424.333 1502.37,-428 1498.71,-428"/>
<text text-anchor="middle" x="1460" y="-413.4" font-family="Helvetica,sans-Serif" font-size="12.00" fill="white">_Incrementable</text>
</a>
</g>
</g>
<!-- Equatable&#45;&gt;_Incrementable -->
<g id="edge39" class="edge">
<path fill="none" stroke="#cccccc" d="M1460,-463.988C1460,-456.91 1460,-447.171 1460,-438.478"/>
<polygon fill="#cccccc" stroke="#cccccc" points="1463.5,-438.304 1460,-428.304 1456.5,-438.304 1463.5,-438.304"/>
</g>
<!-- ForwardIndexType -->
<g id="node4" class="node">
<g id="a_node4"><a xlink:href="/protocol/ForwardIndexType/" target="_top">
<path fill="#999999" stroke="#999999" d="M1437.21,-312C1437.21,-312 1342.79,-312 1342.79,-312 1339.13,-312 1335.46,-308.333 1335.46,-304.667 1335.46,-304.667 1335.46,-297.333 1335.46,-297.333 1335.46,-293.667 1339.13,-290 1342.79,-290 1342.79,-290 1437.21,-290 1437.21,-290 1440.87,-290 1444.54,-293.667 1444.54,-297.333 1444.54,-297.333 1444.54,-304.667 1444.54,-304.667 1444.54,-308.333 1440.87,-312 1437.21,-312"/>
<text text-anchor="middle" x="1390" y="-297.4" font-family="Helvetica,sans-Serif" font-size="12.00" fill="white">ForwardIndexType</text>
</a>
</g>
</g>
<!-- ForwardIndexType&#45;&gt;BidirectionalIndexType -->
<g id="edge35" class="edge">
<path fill="none" stroke="#cccccc" d="M1402.51,-289.988C1412.64,-281.887 1427.12,-270.303 1439.02,-260.787"/>
<polygon fill="#cccccc" stroke="#cccccc" points="1441.5,-263.284 1447.12,-254.304 1437.13,-257.818 1441.5,-263.284"/>
</g>
<!-- Int -->
<g id="node5" class="node">
<g id="a_node5"><a xlink:href="/type/Int/" target="_top">
<polygon fill="#999999" stroke="#999999" points="744,-22 690,-22 690,-0 744,-0 744,-22"/>
<text text-anchor="middle" x="717" y="-7.4" font-family="Helvetica,sans-Serif" font-size="12.00" fill="white">Int</text>
</a>
</g>
</g>
<!-- Int&#45;&gt;Bit -->
<g id="edge22" class="edge">
<path fill="none" stroke="#cccccc" d="M729.779,-22.0854C738.283,-28.7029 750.052,-36.4837 762,-40 842.156,-63.5909 1057.84,-63.5909 1138,-40 1146.4,-37.5276 1154.71,-32.9469 1161.86,-28.1447"/>
<polygon fill="#cccccc" stroke="#cccccc" points="1164.18,-30.7891 1170.22,-22.0854 1160.07,-25.122 1164.18,-30.7891"/>
</g>
<!-- Int16 -->
<g id="node6" class="node">
<g id="a_node6"><a xlink:href="/type/Int16/" target="_top">
<polygon fill="#999999" stroke="#999999" points="816,-22 762,-22 762,-0 816,-0 816,-22"/>
<text text-anchor="middle" x="789" y="-7.4" font-family="Helvetica,sans-Serif" font-size="12.00" fill="white">Int16</text>
</a>
</g>
</g>
<!-- Int32 -->
<g id="node7" class="node">
<g id="a_node7"><a xlink:href="/type/Int32/" target="_top">
<polygon fill="#999999" stroke="#999999" points="888,-22 834,-22 834,-0 888,-0 888,-22"/>
<text text-anchor="middle" x="861" y="-7.4" font-family="Helvetica,sans-Serif" font-size="12.00" fill="white">Int32</text>
</a>
</g>
</g>
<!-- Int64 -->
<g id="node8" class="node">
<g id="a_node8"><a xlink:href="/type/Int64/" target="_top">
<polygon fill="#999999" stroke="#999999" points="600,-22 546,-22 546,-0 600,-0 600,-22"/>
<text text-anchor="middle" x="573" y="-7.4" font-family="Helvetica,sans-Serif" font-size="12.00" fill="white">Int64</text>
</a>
</g>
</g>
<!-- Int8 -->
<g id="node9" class="node">
<g id="a_node9"><a xlink:href="/type/Int8/" target="_top">
<polygon fill="#999999" stroke="#999999" points="672,-22 618,-22 618,-0 672,-0 672,-22"/>
<text text-anchor="middle" x="645" y="-7.4" font-family="Helvetica,sans-Serif" font-size="12.00" fill="white">Int8</text>
</a>
</g>
</g>
<!-- IntegerType -->
<g id="node10" class="node">
<g id="a_node10"><a xlink:href="/protocol/IntegerType/" target="_top">
<path fill="#999999" stroke="#999999" d="M522.202,-138C522.202,-138 463.798,-138 463.798,-138 460.132,-138 456.465,-134.333 456.465,-130.667 456.465,-130.667 456.465,-123.333 456.465,-123.333 456.465,-119.667 460.132,-116 463.798,-116 463.798,-116 522.202,-116 522.202,-116 525.868,-116 529.535,-119.667 529.535,-123.333 529.535,-123.333 529.535,-130.667 529.535,-130.667 529.535,-134.333 525.868,-138 522.202,-138"/>
<text text-anchor="middle" x="493" y="-123.4" font-family="Helvetica,sans-Serif" font-size="12.00" fill="white">IntegerType</text>
</a>
</g>
</g>
<!-- SignedIntegerType -->
<g id="node14" class="node">
<g id="a_node14"><a xlink:href="/protocol/SignedIntegerType/" target="_top">
<path fill="#999999" stroke="#999999" d="M764.727,-80C764.727,-80 669.273,-80 669.273,-80 665.606,-80 661.94,-76.3333 661.94,-72.6667 661.94,-72.6667 661.94,-65.3333 661.94,-65.3333 661.94,-61.6667 665.606,-58 669.273,-58 669.273,-58 764.727,-58 764.727,-58 768.394,-58 772.06,-61.6667 772.06,-65.3333 772.06,-65.3333 772.06,-72.6667 772.06,-72.6667 772.06,-76.3333 768.394,-80 764.727,-80"/>
<text text-anchor="middle" x="717" y="-65.4" font-family="Helvetica,sans-Serif" font-size="12.00" fill="white">SignedIntegerType</text>
</a>
</g>
</g>
<!-- IntegerType&#45;&gt;SignedIntegerType -->
<g id="edge23" class="edge">
<path fill="none" stroke="#cccccc" d="M529.488,-116.878C566.824,-107.544 625.116,-92.971 666.792,-82.552"/>
<polygon fill="#cccccc" stroke="#cccccc" points="667.889,-85.8857 676.741,-80.0647 666.191,-79.0947 667.889,-85.8857"/>
</g>
<!-- UnsignedIntegerType -->
<g id="node25" class="node">
<g id="a_node25"><a xlink:href="/protocol/UnsignedIntegerType/" target="_top">
<path fill="#999999" stroke="#999999" d="M433.728,-80C433.728,-80 324.272,-80 324.272,-80 320.605,-80 316.938,-76.3333 316.938,-72.6667 316.938,-72.6667 316.938,-65.3333 316.938,-65.3333 316.938,-61.6667 320.605,-58 324.272,-58 324.272,-58 433.728,-58 433.728,-58 437.395,-58 441.062,-61.6667 441.062,-65.3333 441.062,-65.3333 441.062,-72.6667 441.062,-72.6667 441.062,-76.3333 437.395,-80 433.728,-80"/>
<text text-anchor="middle" x="379" y="-65.4" font-family="Helvetica,sans-Serif" font-size="12.00" fill="white">UnsignedIntegerType</text>
</a>
</g>
</g>
<!-- IntegerType&#45;&gt;UnsignedIntegerType -->
<g id="edge24" class="edge">
<path fill="none" stroke="#cccccc" d="M472.619,-115.988C454.816,-107.243 428.749,-94.4381 408.639,-84.5594"/>
<polygon fill="#cccccc" stroke="#cccccc" points="410.108,-81.3815 399.589,-80.1138 407.021,-87.6644 410.108,-81.3815"/>
</g>
<!-- RandomAccessIndexType&#45;&gt;Bit -->
<g id="edge6" class="edge">
<path fill="none" stroke="#cccccc" d="M708.462,-174.324C757.993,-166.869 824.15,-154.946 881,-138 984.532,-107.139 1100.89,-52.6009 1153.89,-26.5906"/>
<polygon fill="#cccccc" stroke="#cccccc" points="1155.62,-29.6428 1163.04,-22.078 1152.52,-23.3658 1155.62,-29.6428"/>
</g>
<!-- RandomAccessIndexType&#45;&gt;Int -->
<g id="edge7" class="edge">
<path fill="none" stroke="#cccccc" d="M661.285,-173.946C696.396,-159.347 755.857,-128.588 781,-80 791.953,-58.8344 769.224,-39.5547 747.884,-26.974"/>
<polygon fill="#cccccc" stroke="#cccccc" points="749.368,-23.7949 738.926,-22.0064 745.974,-29.9168 749.368,-23.7949"/>
</g>
<!-- RandomAccessIndexType&#45;&gt;Int16 -->
<g id="edge8" class="edge">
<path fill="none" stroke="#cccccc" d="M676.941,-173.953C701.255,-166.771 731.255,-155.271 754,-138 779.557,-118.594 786.937,-110.471 797,-80 802.118,-64.5028 799.445,-46.0693 795.866,-32.3065"/>
<polygon fill="#cccccc" stroke="#cccccc" points="799.132,-31.0079 792.933,-22.4157 792.421,-32.9982 799.132,-31.0079"/>
</g>
<!-- RandomAccessIndexType&#45;&gt;Int32 -->
<g id="edge9" class="edge">
<path fill="none" stroke="#cccccc" d="M699.018,-173.919C726.403,-167.209 757.339,-156.144 781,-138 817.83,-109.758 842.286,-59.3533 853.653,-31.6255"/>
<polygon fill="#cccccc" stroke="#cccccc" points="856.956,-32.7891 857.367,-22.2023 850.444,-30.2222 856.956,-32.7891"/>
</g>
<!-- RandomAccessIndexType&#45;&gt;Int64 -->
<g id="edge10" class="edge">
<path fill="none" stroke="#cccccc" d="M630.367,-173.756C620.516,-145.978 593.161,-68.848 580.108,-32.0425"/>
<polygon fill="#cccccc" stroke="#cccccc" points="583.333,-30.663 576.691,-22.4081 576.735,-33.0028 583.333,-30.663"/>
</g>
<!-- RandomAccessIndexType&#45;&gt;Int8 -->
<g id="edge11" class="edge">
<path fill="none" stroke="#cccccc" d="M634.655,-173.756C636.424,-146.097 641.322,-69.5091 643.688,-32.5186"/>
<polygon fill="#cccccc" stroke="#cccccc" points="647.189,-32.6111 644.334,-22.4081 640.203,-32.1643 647.189,-32.6111"/>
</g>
<!-- RandomAccessIndexType&#45;&gt;IntegerType -->
<g id="edge12" class="edge">
<path fill="none" stroke="#cccccc" d="M608.792,-173.988C586.275,-165.045 553.068,-151.857 527.982,-141.893"/>
<polygon fill="#cccccc" stroke="#cccccc" points="529.051,-138.552 518.465,-138.114 526.467,-145.058 529.051,-138.552"/>
</g>
<!-- ReverseRandomAccessIndex -->
<g id="node13" class="node">
<g id="a_node13"><a xlink:href="/type/ReverseRandomAccessIndex/" target="_top">
<polygon fill="#999999" stroke="#999999" points="168.056,-22 -0.0556723,-22 -0.0556723,-0 168.056,-0 168.056,-22"/>
<text text-anchor="middle" x="84" y="-7.4" font-family="Helvetica,sans-Serif" font-size="12.00" fill="white">ReverseRandomAccessIndex</text>
</a>
</g>
</g>
<!-- RandomAccessIndexType&#45;&gt;ReverseRandomAccessIndex -->
<g id="edge13" class="edge">
<path fill="none" stroke="#cccccc" d="M559.452,-182.874C488.338,-179.766 379.154,-169.631 290,-138 216.06,-111.767 140.139,-56.5546 104.646,-28.7505"/>
<polygon fill="#cccccc" stroke="#cccccc" points="106.53,-25.7772 96.5193,-22.3065 102.18,-31.2622 106.53,-25.7772"/>
</g>
<!-- RandomAccessIndexType&#45;&gt;String.UTF16View.Index -->
<g id="edge21" class="edge">
<path fill="none" stroke="#cccccc" d="M708.499,-175.817C767.922,-168.441 852.997,-155.975 926,-138 1053.21,-106.678 1199.02,-51.3963 1263.85,-25.764"/>
<polygon fill="#cccccc" stroke="#cccccc" points="1265.18,-29.0023 1273.18,-22.0582 1262.59,-22.4967 1265.18,-29.0023"/>
</g>
<!-- UInt -->
<g id="node18" class="node">
<g id="a_node18"><a xlink:href="/type/UInt/" target="_top">
<polygon fill="#999999" stroke="#999999" points="240,-22 186,-22 186,-0 240,-0 240,-22"/>
<text text-anchor="middle" x="213" y="-7.4" font-family="Helvetica,sans-Serif" font-size="12.00" fill="white">UInt</text>
</a>
</g>
</g>
<!-- RandomAccessIndexType&#45;&gt;UInt -->
<g id="edge14" class="edge">
<path fill="none" stroke="#cccccc" d="M559.384,-178.907C480.647,-172.495 362.577,-159.619 323,-138 276.724,-112.721 240.751,-59.9069 223.749,-31.3402"/>
<polygon fill="#cccccc" stroke="#cccccc" points="226.576,-29.237 218.54,-22.3319 220.516,-32.7409 226.576,-29.237"/>
</g>
<!-- UInt16 -->
<g id="node19" class="node">
<g id="a_node19"><a xlink:href="/type/UInt16/" target="_top">
<polygon fill="#999999" stroke="#999999" points="312,-22 258,-22 258,-0 312,-0 312,-22"/>
<text text-anchor="middle" x="285" y="-7.4" font-family="Helvetica,sans-Serif" font-size="12.00" fill="white">UInt16</text>
</a>
</g>
</g>
<!-- RandomAccessIndexType&#45;&gt;UInt16 -->
<g id="edge15" class="edge">
<path fill="none" stroke="#cccccc" d="M559.57,-183.493C502.21,-180.348 422.414,-169.829 360,-138 327.243,-121.295 319.031,-112.046 301,-80 292.741,-65.3214 288.734,-46.5571 286.796,-32.4597"/>
<polygon fill="#cccccc" stroke="#cccccc" points="290.251,-31.8624 285.644,-22.3215 283.296,-32.6527 290.251,-31.8624"/>
</g>
<!-- UInt32 -->
<g id="node20" class="node">
<g id="a_node20"><a xlink:href="/type/UInt32/" target="_top">
<polygon fill="#999999" stroke="#999999" points="384,-22 330,-22 330,-0 384,-0 384,-22"/>
<text text-anchor="middle" x="357" y="-7.4" font-family="Helvetica,sans-Serif" font-size="12.00" fill="white">UInt32</text>
</a>
</g>
</g>
<!-- RandomAccessIndexType&#45;&gt;UInt32 -->
<g id="edge16" class="edge">
<path fill="none" stroke="#cccccc" d="M573.681,-173.967C487.807,-158.251 337.413,-124.916 308,-80 296.148,-61.9017 314.588,-41.8902 332.134,-28.2917"/>
<polygon fill="#cccccc" stroke="#cccccc" points="334.518,-30.8854 340.539,-22.1677 330.395,-25.228 334.518,-30.8854"/>
</g>
<!-- UInt64 -->
<g id="node21" class="node">
<g id="a_node21"><a xlink:href="/type/UInt64/" target="_top">
<polygon fill="#999999" stroke="#999999" points="456,-22 402,-22 402,-0 456,-0 456,-22"/>
<text text-anchor="middle" x="429" y="-7.4" font-family="Helvetica,sans-Serif" font-size="12.00" fill="white">UInt64</text>
</a>
</g>
</g>
<!-- RandomAccessIndexType&#45;&gt;UInt64 -->
<g id="edge17" class="edge">
<path fill="none" stroke="#cccccc" d="M559.503,-175.106C513.69,-167.931 461.128,-156.025 447,-138 440.968,-130.304 446.594,-125.769 447,-116 448.073,-90.2101 455.485,-83.2227 450,-58 447.984,-48.7299 443.928,-39.0895 439.914,-31.0432"/>
<polygon fill="#cccccc" stroke="#cccccc" points="442.968,-29.3318 435.178,-22.1511 436.79,-32.6226 442.968,-29.3318"/>
</g>
<!-- UInt8 -->
<g id="node22" class="node">
<g id="a_node22"><a xlink:href="/type/UInt8/" target="_top">
<polygon fill="#999999" stroke="#999999" points="528,-22 474,-22 474,-0 528,-0 528,-22"/>
<text text-anchor="middle" x="501" y="-7.4" font-family="Helvetica,sans-Serif" font-size="12.00" fill="white">UInt8</text>
</a>
</g>
</g>
<!-- RandomAccessIndexType&#45;&gt;UInt8 -->
<g id="edge18" class="edge">
<path fill="none" stroke="#cccccc" d="M626.079,-173.756C604.323,-145.621 543.416,-66.8536 515.414,-30.6411"/>
<polygon fill="#cccccc" stroke="#cccccc" points="517.934,-28.1779 509.048,-22.4081 512.396,-32.4599 517.934,-28.1779"/>
</g>
<!-- UnsafeMutablePointer -->
<g id="node23" class="node">
<g id="a_node23"><a xlink:href="/type/UnsafeMutablePointer/" target="_top">
<polygon fill="#999999" stroke="#999999" points="1034.05,-22 905.949,-22 905.949,-0 1034.05,-0 1034.05,-22"/>
<text text-anchor="middle" x="970" y="-7.4" font-family="Helvetica,sans-Serif" font-size="12.00" fill="white">UnsafeMutablePointer</text>
</a>
</g>
</g>
<!-- RandomAccessIndexType&#45;&gt;UnsafeMutablePointer -->
<g id="edge19" class="edge">
<path fill="none" stroke="#cccccc" d="M694.963,-173.967C729.099,-166.853 771.755,-155.417 807,-138 865.954,-108.867 924.3,-56.5919 952.505,-29.4407"/>
<polygon fill="#cccccc" stroke="#cccccc" points="955.233,-31.669 959.948,-22.1811 950.345,-26.6579 955.233,-31.669"/>
</g>
<!-- UnsafePointer -->
<g id="node24" class="node">
<g id="a_node24"><a xlink:href="/type/UnsafePointer/" target="_top">
<polygon fill="#999999" stroke="#999999" points="1138.03,-22 1051.97,-22 1051.97,-0 1138.03,-0 1138.03,-22"/>
<text text-anchor="middle" x="1095" y="-7.4" font-family="Helvetica,sans-Serif" font-size="12.00" fill="white">UnsafePointer</text>
</a>
</g>
</g>
<!-- RandomAccessIndexType&#45;&gt;UnsafePointer -->
<g id="edge20" class="edge">
<path fill="none" stroke="#cccccc" d="M697.611,-173.98C739.137,-166.441 794.139,-154.554 841,-138 928.53,-107.079 1024.94,-53.3377 1069.64,-27.1781"/>
<polygon fill="#cccccc" stroke="#cccccc" points="1071.54,-30.1245 1078.38,-22.0327 1067.99,-24.0935 1071.54,-30.1245"/>
</g>
<!-- SignedIntegerType&#45;&gt;Int -->
<g id="edge25" class="edge">
<path fill="none" stroke="#cccccc" d="M717,-57.9883C717,-50.9098 717,-41.1714 717,-32.4779"/>
<polygon fill="#cccccc" stroke="#cccccc" points="720.5,-32.3038 717,-22.3039 713.5,-32.3039 720.5,-32.3038"/>
</g>
<!-- SignedIntegerType&#45;&gt;Int16 -->
<g id="edge26" class="edge">
<path fill="none" stroke="#cccccc" d="M729.872,-57.9883C740.389,-49.8087 755.472,-38.0773 767.772,-28.5108"/>
<polygon fill="#cccccc" stroke="#cccccc" points="770.007,-31.2061 775.752,-22.3039 765.71,-25.6806 770.007,-31.2061"/>
</g>
<!-- SignedIntegerType&#45;&gt;Int32 -->
<g id="edge27" class="edge">
<path fill="none" stroke="#cccccc" d="M742.744,-57.9883C765.842,-49.0057 799.955,-35.7398 825.614,-25.7614"/>
<polygon fill="#cccccc" stroke="#cccccc" points="826.942,-29.0004 834.993,-22.1138 824.404,-22.4763 826.942,-29.0004"/>
</g>
<!-- SignedIntegerType&#45;&gt;Int64 -->
<g id="edge28" class="edge">
<path fill="none" stroke="#cccccc" d="M691.256,-57.9883C668.158,-49.0057 634.045,-35.7398 608.386,-25.7614"/>
<polygon fill="#cccccc" stroke="#cccccc" points="609.596,-22.4763 599.007,-22.1138 607.058,-29.0004 609.596,-22.4763"/>
</g>
<!-- SignedIntegerType&#45;&gt;Int8 -->
<g id="edge29" class="edge">
<path fill="none" stroke="#cccccc" d="M704.128,-57.9883C693.611,-49.8087 678.528,-38.0773 666.228,-28.5108"/>
<polygon fill="#cccccc" stroke="#cccccc" points="668.29,-25.6806 658.248,-22.3039 663.993,-31.2061 668.29,-25.6806"/>
</g>
<!-- UnsignedIntegerType&#45;&gt;UInt -->
<g id="edge30" class="edge">
<path fill="none" stroke="#cccccc" d="M349.323,-57.9883C321.506,-48.6044 279.832,-34.5458 249.888,-24.4442"/>
<polygon fill="#cccccc" stroke="#cccccc" points="250.814,-21.0628 240.22,-21.1826 248.576,-27.6955 250.814,-21.0628"/>
</g>
<!-- UnsignedIntegerType&#45;&gt;UInt16 -->
<g id="edge31" class="edge">
<path fill="none" stroke="#cccccc" d="M362.195,-57.9883C347.847,-49.441 326.99,-37.0155 310.572,-27.2343"/>
<polygon fill="#cccccc" stroke="#cccccc" points="312.359,-24.2251 301.977,-22.1138 308.776,-30.2388 312.359,-24.2251"/>
</g>
<!-- UnsignedIntegerType&#45;&gt;UInt32 -->
<g id="edge32" class="edge">
<path fill="none" stroke="#cccccc" d="M375.067,-57.9883C372.193,-50.6738 368.204,-40.5192 364.705,-31.6122"/>
<polygon fill="#cccccc" stroke="#cccccc" points="367.962,-30.3316 361.048,-22.3039 361.447,-32.8912 367.962,-30.3316"/>
</g>
<!-- UnsignedIntegerType&#45;&gt;UInt64 -->
<g id="edge33" class="edge">
<path fill="none" stroke="#cccccc" d="M387.939,-57.9883C394.891,-50.2019 404.717,-39.1971 413.013,-29.9049"/>
<polygon fill="#cccccc" stroke="#cccccc" points="415.751,-32.0943 419.8,-22.3039 410.529,-27.4322 415.751,-32.0943"/>
</g>
<!-- UnsignedIntegerType&#45;&gt;UInt8 -->
<g id="edge34" class="edge">
<path fill="none" stroke="#cccccc" d="M400.811,-57.9883C420.036,-49.164 448.265,-36.206 469.864,-26.2919"/>
<polygon fill="#cccccc" stroke="#cccccc" points="471.338,-29.4665 478.966,-22.1138 468.418,-23.1046 471.338,-29.4665"/>
</g>
<!-- _BidirectionalIndexType -->
<g id="node26" class="node">
<g id="a_node26"><a xlink:href="/protocol/_BidirectionalIndexType/" target="_top">
<path fill="#999999" stroke="#999999" d="M1592.23,-312C1592.23,-312 1469.77,-312 1469.77,-312 1466.1,-312 1462.44,-308.333 1462.44,-304.667 1462.44,-304.667 1462.44,-297.333 1462.44,-297.333 1462.44,-293.667 1466.1,-290 1469.77,-290 1469.77,-290 1592.23,-290 1592.23,-290 1595.9,-290 1599.56,-293.667 1599.56,-297.333 1599.56,-297.333 1599.56,-304.667 1599.56,-304.667 1599.56,-308.333 1595.9,-312 1592.23,-312"/>
<text text-anchor="middle" x="1531" y="-297.4" font-family="Helvetica,sans-Serif" font-size="12.00" fill="white">_BidirectionalIndexType</text>
</a>
</g>
</g>
<!-- _BidirectionalIndexType&#45;&gt;BidirectionalIndexType -->
<g id="edge36" class="edge">
<path fill="none" stroke="#cccccc" d="M1518.31,-289.988C1507.94,-281.809 1493.06,-270.077 1480.93,-260.511"/>
<polygon fill="#cccccc" stroke="#cccccc" points="1483.08,-257.749 1473.06,-254.304 1478.75,-263.245 1483.08,-257.749"/>
</g>
<!-- _ForwardIndexType -->
<g id="node27" class="node">
<g id="a_node27"><a xlink:href="/protocol/_ForwardIndexType/" target="_top">
<path fill="#999999" stroke="#999999" d="M1510.71,-370C1510.71,-370 1409.29,-370 1409.29,-370 1405.62,-370 1401.95,-366.333 1401.95,-362.667 1401.95,-362.667 1401.95,-355.333 1401.95,-355.333 1401.95,-351.667 1405.62,-348 1409.29,-348 1409.29,-348 1510.71,-348 1510.71,-348 1514.38,-348 1518.05,-351.667 1518.05,-355.333 1518.05,-355.333 1518.05,-362.667 1518.05,-362.667 1518.05,-366.333 1514.38,-370 1510.71,-370"/>
<text text-anchor="middle" x="1460" y="-355.4" font-family="Helvetica,sans-Serif" font-size="12.00" fill="white">_ForwardIndexType</text>
</a>
</g>
</g>
<!-- _ForwardIndexType&#45;&gt;ForwardIndexType -->
<g id="edge37" class="edge">
<path fill="none" stroke="#cccccc" d="M1447.49,-347.988C1437.36,-339.887 1422.88,-328.303 1410.98,-318.787"/>
<polygon fill="#cccccc" stroke="#cccccc" points="1412.87,-315.818 1402.88,-312.304 1408.5,-321.284 1412.87,-315.818"/>
</g>
<!-- _ForwardIndexType&#45;&gt;_BidirectionalIndexType -->
<g id="edge40" class="edge">
<path fill="none" stroke="#cccccc" d="M1472.69,-347.988C1483.06,-339.809 1497.94,-328.077 1510.07,-318.511"/>
<polygon fill="#cccccc" stroke="#cccccc" points="1512.25,-321.245 1517.94,-312.304 1507.92,-315.749 1512.25,-321.245"/>
</g>
<!-- _Incrementable&#45;&gt;_ForwardIndexType -->
<g id="edge38" class="edge">
<path fill="none" stroke="#cccccc" d="M1460,-405.988C1460,-398.91 1460,-389.171 1460,-380.478"/>
<polygon fill="#cccccc" stroke="#cccccc" points="1463.5,-380.304 1460,-370.304 1456.5,-380.304 1463.5,-380.304"/>
</g>
</g>
</svg>
