<?xml version="1.0" encoding="UTF-8" standalone="no"?>
<!DOCTYPE svg PUBLIC "-//W3C//DTD SVG 1.1//EN"
 "http://www.w3.org/Graphics/SVG/1.1/DTD/svg11.dtd">
<!-- Generated by graphviz version 2.36.0 (20140111.2315)
 -->
<!-- Title: UnsignedInteger &#45; Type Hierarchy &#45; SwiftDoc.org Pages: 1 -->
<svg width="451pt" height="427pt"
 viewBox="0.00 0.00 451.40 427.20" xmlns="http://www.w3.org/2000/svg" xmlns:xlink="http://www.w3.org/1999/xlink">
<g id="graph0" class="graph" transform="scale(1 1) rotate(0) translate(7.2 369.6)">
<g transform="translate(0 -369.6)">
<g>
    <path fill="#666666" d="M13.846,10.832c-0.336-0.464-0.792-0.844-1.368-1.14s-1.224-0.444-1.944-0.444
        c-0.384,0-0.772,0.052-1.164,0.156C8.977,9.509,8.622,9.677,8.301,9.908c-0.32,0.232-0.58,0.52-0.78,0.864
        c-0.2,0.344-0.3,0.756-0.3,1.236c0,0.464,0.092,0.852,0.276,1.164c0.184,0.312,0.432,0.576,0.744,0.792s0.68,0.4,1.104,0.552
        c0.423,0.152,0.876,0.309,1.356,0.468c0.576,0.177,1.16,0.376,1.752,0.601c0.592,0.224,1.128,0.52,1.608,0.888
        s0.872,0.828,1.176,1.38s0.456,1.252,0.456,2.101c0,0.88-0.164,1.644-0.492,2.292c-0.328,0.647-0.765,1.184-1.308,1.607
        c-0.544,0.424-1.172,0.74-1.884,0.948s-1.444,0.312-2.196,0.312c-1.072,0-2.108-0.208-3.108-0.624
        c-1-0.415-1.828-1.031-2.484-1.848l1.848-1.56c0.4,0.592,0.936,1.071,1.608,1.439c0.672,0.368,1.399,0.552,2.184,0.552
        c0.4,0,0.8-0.056,1.2-0.168c0.4-0.111,0.764-0.288,1.092-0.527c0.328-0.24,0.596-0.54,0.804-0.9
        c0.208-0.36,0.312-0.796,0.312-1.308s-0.108-0.94-0.324-1.284c-0.216-0.344-0.508-0.636-0.876-0.876s-0.796-0.444-1.284-0.612
        c-0.488-0.168-1.004-0.34-1.548-0.516c-0.544-0.16-1.08-0.356-1.608-0.588c-0.528-0.232-1-0.528-1.416-0.889
        c-0.416-0.359-0.752-0.804-1.008-1.332c-0.256-0.527-0.384-1.184-0.384-1.968c0-0.848,0.172-1.576,0.516-2.184
        c0.344-0.608,0.792-1.112,1.344-1.512c0.552-0.4,1.176-0.692,1.872-0.876c0.696-0.184,1.396-0.276,2.1-0.276
        c0.992,0,1.92,0.176,2.784,0.528c0.864,0.352,1.56,0.824,2.088,1.416L13.846,10.832z"/>
    <path fill="#666666" d="M18.813,13.304l2.568,8.688h0.048l2.712-8.688h2.376l2.76,8.688h0.048l2.568-8.688h2.376L30.501,24.68
        h-2.352l-2.808-8.544h-0.048l-2.784,8.544h-2.352l-3.792-11.376H18.813z"/>
    <path fill="#666666" d="M38.685,9.2c0,0.416-0.147,0.76-0.44,1.032c-0.294,0.272-0.647,0.408-1.06,0.408s-0.762-0.14-1.047-0.42
        c-0.286-0.28-0.429-0.62-0.429-1.02c0-0.416,0.143-0.764,0.429-1.044c0.286-0.28,0.635-0.42,1.047-0.42s0.766,0.14,1.06,0.42
        C38.538,8.437,38.685,8.784,38.685,9.2z M38.325,24.68h-2.256V13.304h2.256V24.68z"/>
    <path fill="#666666" d="M47.613,15.152h-2.64v9.528h-2.256v-9.528h-2.256v-1.848h2.256v-2.376c0-0.672,0.076-1.292,0.228-1.86
        c0.152-0.568,0.4-1.06,0.744-1.476c0.344-0.416,0.784-0.744,1.32-0.984c0.536-0.24,1.188-0.36,1.956-0.36
        c0.544,0,1.016,0.056,1.416,0.168l-0.264,1.944c-0.176-0.048-0.352-0.088-0.528-0.12c-0.176-0.032-0.376-0.048-0.6-0.048
        c-0.432,0-0.78,0.076-1.044,0.228c-0.264,0.152-0.468,0.356-0.612,0.612s-0.24,0.548-0.288,0.876
        c-0.048,0.328-0.072,0.668-0.072,1.02v2.376h2.64V15.152z"/>
    <path fill="#666666" d="M54.909,15.152h-3.024v5.91c0,0.687,0.128,1.177,0.384,1.472c0.256,0.295,0.664,0.442,1.224,0.442
        c0.208,0,0.432-0.021,0.672-0.065c0.24-0.044,0.456-0.11,0.648-0.198l0.072,1.848c-0.272,0.096-0.572,0.172-0.9,0.229
        c-0.328,0.056-0.668,0.084-1.02,0.084c-1.072,0-1.892-0.296-2.46-0.889c-0.568-0.592-0.852-1.479-0.852-2.664v-6.168h-2.184
        v-1.848h2.184V10.04h2.232v3.264h3.024V15.152z"/>
    <path fill="#666666" d="M57.356,7.688h5.832c1.088,0,2.176,0.16,3.264,0.48c1.088,0.32,2.072,0.824,2.952,1.512
        s1.592,1.568,2.136,2.64c0.544,1.072,0.816,2.36,0.816,3.864c0,1.456-0.272,2.716-0.816,3.78s-1.256,1.943-2.136,2.64
        s-1.864,1.216-2.952,1.561c-1.088,0.344-2.176,0.516-3.264,0.516h-5.832V7.688z M59.732,22.593h2.976
        c1.024,0,1.972-0.145,2.844-0.432c0.872-0.288,1.624-0.704,2.256-1.248c0.632-0.544,1.124-1.216,1.476-2.017
        c0.352-0.8,0.528-1.704,0.528-2.712c0-1.056-0.176-1.983-0.528-2.784c-0.353-0.8-0.844-1.468-1.476-2.004
        c-0.632-0.536-1.384-0.944-2.256-1.224s-1.82-0.42-2.844-0.42h-2.976V22.593z"/>
    <path fill="#666666" d="M86.06,18.969c0,0.88-0.156,1.688-0.468,2.424c-0.312,0.736-0.744,1.372-1.296,1.908
        c-0.552,0.536-1.204,0.952-1.956,1.248c-0.752,0.296-1.56,0.443-2.424,0.443c-0.864,0-1.672-0.147-2.424-0.443
        c-0.752-0.296-1.4-0.712-1.944-1.248c-0.544-0.536-0.972-1.172-1.284-1.908c-0.312-0.735-0.468-1.544-0.468-2.424
        s0.156-1.684,0.468-2.412c0.312-0.728,0.74-1.356,1.284-1.884c0.543-0.528,1.191-0.939,1.944-1.236
        c0.752-0.296,1.56-0.444,2.424-0.444c0.864,0,1.672,0.148,2.424,0.444c0.752,0.297,1.404,0.708,1.956,1.236
        c0.552,0.527,0.984,1.156,1.296,1.884C85.904,17.285,86.06,18.089,86.06,18.969z M83.708,18.98c0-0.542-0.084-1.061-0.252-1.556
        c-0.169-0.494-0.414-0.929-0.734-1.304s-0.718-0.674-1.192-0.897s-1.015-0.335-1.625-0.335c-0.61,0-1.152,0.111-1.625,0.335
        c-0.474,0.224-0.871,0.522-1.191,0.897c-0.321,0.375-0.566,0.81-0.734,1.304C76.184,17.92,76.1,18.438,76.1,18.98
        c0,0.543,0.084,1.062,0.253,1.556c0.168,0.495,0.413,0.934,0.734,1.316c0.321,0.383,0.718,0.686,1.191,0.909
        c0.473,0.224,1.015,0.335,1.625,0.335c0.61,0,1.151-0.111,1.625-0.335s0.871-0.526,1.192-0.909s0.565-0.821,0.734-1.316
        C83.624,20.042,83.708,19.523,83.708,18.98z"/>
    <path fill="#666666" d="M96.428,16.184c-0.24-0.368-0.6-0.676-1.08-0.924s-0.992-0.372-1.536-0.372
        c-0.592,0-1.116,0.112-1.572,0.336c-0.456,0.225-0.844,0.524-1.164,0.9c-0.32,0.376-0.564,0.812-0.732,1.308
        s-0.252,1.017-0.252,1.56c0,0.545,0.084,1.064,0.252,1.561s0.412,0.933,0.732,1.308c0.32,0.376,0.712,0.677,1.176,0.9
        c0.464,0.225,0.992,0.336,1.584,0.336c0.576,0,1.1-0.111,1.572-0.336c0.472-0.224,0.86-0.528,1.164-0.912l1.512,1.368
        c-0.48,0.561-1.08,0.996-1.8,1.308c-0.72,0.312-1.536,0.468-2.448,0.468c-0.88,0-1.692-0.144-2.436-0.432
        c-0.744-0.288-1.388-0.691-1.932-1.212c-0.544-0.52-0.972-1.147-1.284-1.884s-0.468-1.561-0.468-2.473
        c0-0.896,0.152-1.711,0.456-2.447c0.304-0.736,0.728-1.368,1.272-1.896c0.543-0.527,1.188-0.936,1.932-1.224
        c0.744-0.288,1.548-0.433,2.412-0.433c0.8,0,1.596,0.16,2.388,0.48s1.419,0.784,1.884,1.392L96.428,16.184z"/>
    <path fill="#666666" d="M103.1,23.24c0,0.417-0.152,0.784-0.456,1.104c-0.304,0.32-0.688,0.479-1.152,0.479
        c-0.448,0-0.828-0.155-1.14-0.468c-0.312-0.312-0.468-0.676-0.468-1.092c0-0.432,0.152-0.804,0.456-1.116
        c0.304-0.312,0.688-0.468,1.152-0.468c0.464,0,0.848,0.152,1.152,0.456C102.947,22.44,103.1,22.808,103.1,23.24z"/>
    <path fill="#666666" d="M116.635,18.969c0,0.88-0.156,1.688-0.468,2.424c-0.312,0.736-0.744,1.372-1.296,1.908
        c-0.552,0.536-1.204,0.952-1.956,1.248c-0.752,0.296-1.56,0.443-2.424,0.443c-0.864,0-1.672-0.147-2.424-0.443
        c-0.752-0.296-1.4-0.712-1.944-1.248c-0.544-0.536-0.972-1.172-1.284-1.908c-0.312-0.735-0.468-1.544-0.468-2.424
        s0.156-1.684,0.468-2.412c0.312-0.728,0.74-1.356,1.284-1.884c0.543-0.528,1.191-0.939,1.944-1.236
        c0.752-0.296,1.56-0.444,2.424-0.444c0.864,0,1.672,0.148,2.424,0.444c0.752,0.297,1.404,0.708,1.956,1.236
        c0.552,0.527,0.984,1.156,1.296,1.884C116.479,17.285,116.635,18.089,116.635,18.969z M114.283,18.98
        c0-0.542-0.084-1.061-0.252-1.556c-0.169-0.494-0.414-0.929-0.734-1.304s-0.718-0.674-1.192-0.897s-1.015-0.335-1.625-0.335
        c-0.61,0-1.152,0.111-1.625,0.335c-0.474,0.224-0.871,0.522-1.191,0.897c-0.321,0.375-0.566,0.81-0.734,1.304
        c-0.169,0.495-0.253,1.014-0.253,1.556c0,0.543,0.084,1.062,0.253,1.556c0.168,0.495,0.413,0.934,0.734,1.316
        c0.321,0.383,0.718,0.686,1.191,0.909c0.473,0.224,1.015,0.335,1.625,0.335c0.61,0,1.151-0.111,1.625-0.335
        s0.871-0.526,1.192-0.909s0.565-0.821,0.734-1.316C114.199,20.042,114.283,19.523,114.283,18.98z"/>
    <path fill="#666666" d="M119.251,14.577c-0.016-0.48-0.04-0.904-0.072-1.272h2.136c0.032,0.288,0.056,0.62,0.072,0.996
        c0.016,0.376,0.024,0.684,0.024,0.924h0.072c0.32-0.672,0.788-1.212,1.404-1.62c0.616-0.408,1.308-0.612,2.076-0.612
        c0.352,0,0.648,0.033,0.888,0.097l-0.096,2.088c-0.32-0.08-0.664-0.12-1.032-0.12c-0.544,0-1.016,0.101-1.416,0.3
        c-0.4,0.2-0.732,0.468-0.996,0.805c-0.264,0.336-0.46,0.724-0.588,1.163c-0.128,0.44-0.192,0.9-0.192,1.381v5.976h-2.256v-8.928
        C119.275,15.449,119.267,15.056,119.251,14.577z"/>
    <path fill="#666666" d="M128.419,26.625c0.496,0.56,1.116,1.008,1.86,1.344c0.744,0.336,1.508,0.504,2.292,0.504
        c0.752,0,1.384-0.108,1.896-0.324s0.924-0.512,1.236-0.888s0.536-0.82,0.672-1.332c0.136-0.513,0.204-1.064,0.204-1.656v-1.464
        h-0.048c-0.416,0.641-0.984,1.128-1.704,1.464c-0.72,0.336-1.488,0.504-2.304,0.504c-0.864,0-1.652-0.151-2.364-0.456
        c-0.712-0.304-1.316-0.72-1.812-1.248c-0.496-0.527-0.88-1.147-1.152-1.859s-0.408-1.477-0.408-2.292
        c0-0.816,0.136-1.584,0.408-2.305c0.272-0.72,0.656-1.348,1.152-1.884c0.496-0.535,1.096-0.96,1.8-1.271
        c0.704-0.312,1.488-0.469,2.352-0.469c0.816,0,1.596,0.177,2.34,0.528c0.744,0.353,1.332,0.888,1.764,1.608h0.048v-1.824h2.184
        v10.8c0,0.832-0.104,1.628-0.312,2.388c-0.208,0.76-0.56,1.433-1.056,2.017s-1.144,1.052-1.944,1.404
        c-0.8,0.352-1.792,0.527-2.976,0.527c-0.992,0-1.988-0.18-2.988-0.54c-1-0.359-1.86-0.868-2.58-1.523L128.419,26.625z
         M129.091,18.873c0,0.527,0.084,1.031,0.253,1.512c0.168,0.479,0.417,0.904,0.746,1.271c0.329,0.369,0.726,0.664,1.192,0.889
        c0.465,0.224,0.995,0.336,1.589,0.336c0.577,0,1.107-0.104,1.589-0.312c0.481-0.207,0.891-0.491,1.228-0.852
        s0.598-0.784,0.782-1.272c0.185-0.487,0.277-1.012,0.277-1.571c0-0.544-0.093-1.057-0.277-1.536
        c-0.185-0.48-0.449-0.904-0.794-1.272c-0.345-0.367-0.755-0.66-1.228-0.876c-0.474-0.216-1-0.324-1.577-0.324
        c-0.594,0-1.124,0.108-1.589,0.324c-0.466,0.216-0.863,0.504-1.192,0.864s-0.578,0.784-0.746,1.271
        C129.175,17.812,129.091,18.329,129.091,18.873z"/>
</g>
<g><a xlink:href="/" pointer-events="all" target="_top"><polygon fill="none" points="0,0 145,0 145,35 0,35 0,0"/></a></g>

</g>


<!-- BinaryInteger -->
<g id="node1" class="node">
<g id="a_node1"><a xlink:href="/v4.2/protocol/BinaryInteger/hierarchy/" target="_top">
<path fill="#999999" stroke="#999999" d="M266.196,-138C266.196,-138 199.804,-138 199.804,-138 196.138,-138 192.471,-134.333 192.471,-130.667 192.471,-130.667 192.471,-123.333 192.471,-123.333 192.471,-119.667 196.138,-116 199.804,-116 199.804,-116 266.196,-116 266.196,-116 269.862,-116 273.529,-119.667 273.529,-123.333 273.529,-123.333 273.529,-130.667 273.529,-130.667 273.529,-134.333 269.862,-138 266.196,-138"/>
<text text-anchor="middle" x="233" y="-123.4" font-family="Helvetica,sans-Serif" font-size="12.00" fill="white">BinaryInteger</text>
</a>
</g>
</g>
<!-- UnsignedInteger -->
<g id="node14" class="node">
<g id="a_node14"><a xlink:href="/v4.2/protocol/UnsignedInteger/" target="_top">
<path fill="#ee543d" stroke="#ee543d" d="M274.712,-80C274.712,-80 191.288,-80 191.288,-80 187.621,-80 183.955,-76.3333 183.955,-72.6667 183.955,-72.6667 183.955,-65.3333 183.955,-65.3333 183.955,-61.6667 187.621,-58 191.288,-58 191.288,-58 274.712,-58 274.712,-58 278.379,-58 282.045,-61.6667 282.045,-65.3333 282.045,-65.3333 282.045,-72.6667 282.045,-72.6667 282.045,-76.3333 278.379,-80 274.712,-80"/>
<text text-anchor="middle" x="233" y="-65.4" font-family="Helvetica,sans-Serif" font-size="12.00" fill="white">UnsignedInteger</text>
</a>
</g>
</g>
<!-- BinaryInteger&#45;&gt;UnsignedInteger -->
<g id="edge6" class="edge">
<path fill="none" stroke="#cccccc" d="M233,-115.988C233,-108.91 233,-99.1714 233,-90.4779"/>
<polygon fill="#cccccc" stroke="#cccccc" points="236.5,-90.3038 233,-80.3039 229.5,-90.3039 236.5,-90.3038"/>
</g>
<!-- Comparable -->
<g id="node2" class="node">
<g id="a_node2"><a xlink:href="/v4.2/protocol/Comparable/hierarchy/" target="_top">
<path fill="#999999" stroke="#999999" d="M226.191,-254C226.191,-254 165.809,-254 165.809,-254 162.142,-254 158.475,-250.333 158.475,-246.667 158.475,-246.667 158.475,-239.333 158.475,-239.333 158.475,-235.667 162.142,-232 165.809,-232 165.809,-232 226.191,-232 226.191,-232 229.858,-232 233.525,-235.667 233.525,-239.333 233.525,-239.333 233.525,-246.667 233.525,-246.667 233.525,-250.333 229.858,-254 226.191,-254"/>
<text text-anchor="middle" x="196" y="-239.4" font-family="Helvetica,sans-Serif" font-size="12.00" fill="white">Comparable</text>
</a>
</g>
</g>
<!-- Strideable -->
<g id="node8" class="node">
<g id="a_node8"><a xlink:href="/v4.2/protocol/Strideable/hierarchy/" target="_top">
<path fill="#999999" stroke="#999999" d="M217.693,-196C217.693,-196 168.307,-196 168.307,-196 164.64,-196 160.974,-192.333 160.974,-188.667 160.974,-188.667 160.974,-181.333 160.974,-181.333 160.974,-177.667 164.64,-174 168.307,-174 168.307,-174 217.693,-174 217.693,-174 221.36,-174 225.026,-177.667 225.026,-181.333 225.026,-181.333 225.026,-188.667 225.026,-188.667 225.026,-192.333 221.36,-196 217.693,-196"/>
<text text-anchor="middle" x="193" y="-181.4" font-family="Helvetica,sans-Serif" font-size="12.00" fill="white">Strideable</text>
</a>
</g>
</g>
<!-- Comparable&#45;&gt;Strideable -->
<g id="edge14" class="edge">
<path fill="none" stroke="#cccccc" d="M195.464,-231.988C195.084,-224.91 194.563,-215.171 194.097,-206.478"/>
<polygon fill="#cccccc" stroke="#cccccc" points="197.582,-206.102 193.552,-196.304 190.592,-206.477 197.582,-206.102"/>
</g>
<!-- CustomStringConvertible -->
<g id="node3" class="node">
<g id="a_node3"><a xlink:href="/v4.2/protocol/CustomStringConvertible/hierarchy/" target="_top">
<path fill="#999999" stroke="#999999" d="M135.208,-196C135.208,-196 6.79224,-196 6.79224,-196 3.12558,-196 -0.541089,-192.333 -0.541089,-188.667 -0.541089,-188.667 -0.541089,-181.333 -0.541089,-181.333 -0.541089,-177.667 3.12558,-174 6.79224,-174 6.79224,-174 135.208,-174 135.208,-174 138.874,-174 142.541,-177.667 142.541,-181.333 142.541,-181.333 142.541,-188.667 142.541,-188.667 142.541,-192.333 138.874,-196 135.208,-196"/>
<text text-anchor="middle" x="71" y="-181.4" font-family="Helvetica,sans-Serif" font-size="12.00" fill="white">CustomStringConvertible</text>
</a>
</g>
</g>
<!-- CustomStringConvertible&#45;&gt;BinaryInteger -->
<g id="edge7" class="edge">
<path fill="none" stroke="#cccccc" d="M99.9624,-173.988C126.258,-164.898 165.243,-151.422 194.22,-141.405"/>
<polygon fill="#cccccc" stroke="#cccccc" points="195.708,-144.594 204.016,-138.019 193.421,-137.978 195.708,-144.594"/>
</g>
<!-- Equatable -->
<g id="node4" class="node">
<g id="a_node4"><a xlink:href="/v4.2/protocol/Equatable/hierarchy/" target="_top">
<path fill="#999999" stroke="#999999" d="M255.702,-312C255.702,-312 206.298,-312 206.298,-312 202.632,-312 198.965,-308.333 198.965,-304.667 198.965,-304.667 198.965,-297.333 198.965,-297.333 198.965,-293.667 202.632,-290 206.298,-290 206.298,-290 255.702,-290 255.702,-290 259.368,-290 263.035,-293.667 263.035,-297.333 263.035,-297.333 263.035,-304.667 263.035,-304.667 263.035,-308.333 259.368,-312 255.702,-312"/>
<text text-anchor="middle" x="231" y="-297.4" font-family="Helvetica,sans-Serif" font-size="12.00" fill="white">Equatable</text>
</a>
</g>
</g>
<!-- Equatable&#45;&gt;Comparable -->
<g id="edge15" class="edge">
<path fill="none" stroke="#cccccc" d="M224.743,-289.988C220.073,-282.517 213.551,-272.081 207.9,-263.039"/>
<polygon fill="#cccccc" stroke="#cccccc" points="210.708,-260.929 202.44,-254.304 204.772,-264.639 210.708,-260.929"/>
</g>
<!-- Hashable -->
<g id="node6" class="node">
<g id="a_node6"><a xlink:href="/v4.2/protocol/Hashable/hierarchy/" target="_top">
<path fill="#999999" stroke="#999999" d="M295.694,-196C295.694,-196 250.306,-196 250.306,-196 246.639,-196 242.973,-192.333 242.973,-188.667 242.973,-188.667 242.973,-181.333 242.973,-181.333 242.973,-177.667 246.639,-174 250.306,-174 250.306,-174 295.694,-174 295.694,-174 299.361,-174 303.027,-177.667 303.027,-181.333 303.027,-181.333 303.027,-188.667 303.027,-188.667 303.027,-192.333 299.361,-196 295.694,-196"/>
<text text-anchor="middle" x="273" y="-181.4" font-family="Helvetica,sans-Serif" font-size="12.00" fill="white">Hashable</text>
</a>
</g>
</g>
<!-- Equatable&#45;&gt;Hashable -->
<g id="edge11" class="edge">
<path fill="none" stroke="#cccccc" d="M234.727,-289.883C241.653,-271.086 256.619,-230.463 265.648,-205.956"/>
<polygon fill="#cccccc" stroke="#cccccc" points="269.048,-206.851 269.221,-196.258 262.479,-204.431 269.048,-206.851"/>
</g>
<!-- Numeric -->
<g id="node7" class="node">
<g id="a_node7"><a xlink:href="/v4.2/protocol/Numeric/hierarchy/" target="_top">
<path fill="#999999" stroke="#999999" d="M350.673,-254C350.673,-254 311.327,-254 311.327,-254 307.661,-254 303.994,-250.333 303.994,-246.667 303.994,-246.667 303.994,-239.333 303.994,-239.333 303.994,-235.667 307.661,-232 311.327,-232 311.327,-232 350.673,-232 350.673,-232 354.339,-232 358.006,-235.667 358.006,-239.333 358.006,-239.333 358.006,-246.667 358.006,-246.667 358.006,-250.333 354.339,-254 350.673,-254"/>
<text text-anchor="middle" x="331" y="-239.4" font-family="Helvetica,sans-Serif" font-size="12.00" fill="white">Numeric</text>
</a>
</g>
</g>
<!-- Equatable&#45;&gt;Numeric -->
<g id="edge12" class="edge">
<path fill="none" stroke="#cccccc" d="M248.878,-289.988C264.141,-281.441 286.33,-269.015 303.796,-259.234"/>
<polygon fill="#cccccc" stroke="#cccccc" points="305.925,-262.054 312.94,-254.114 302.504,-255.946 305.925,-262.054"/>
</g>
<!-- ExpressibleByIntegerLiteral -->
<g id="node5" class="node">
<g id="a_node5"><a xlink:href="/v4.2/protocol/ExpressibleByIntegerLiteral/hierarchy/" target="_top">
<path fill="#999999" stroke="#999999" d="M429.722,-312C429.722,-312 288.278,-312 288.278,-312 284.611,-312 280.944,-308.333 280.944,-304.667 280.944,-304.667 280.944,-297.333 280.944,-297.333 280.944,-293.667 284.611,-290 288.278,-290 288.278,-290 429.722,-290 429.722,-290 433.389,-290 437.056,-293.667 437.056,-297.333 437.056,-297.333 437.056,-304.667 437.056,-304.667 437.056,-308.333 433.389,-312 429.722,-312"/>
<text text-anchor="middle" x="359" y="-297.4" font-family="Helvetica,sans-Serif" font-size="12.00" fill="white">ExpressibleByIntegerLiteral</text>
</a>
</g>
</g>
<!-- ExpressibleByIntegerLiteral&#45;&gt;Numeric -->
<g id="edge13" class="edge">
<path fill="none" stroke="#cccccc" d="M353.994,-289.988C350.298,-282.595 345.15,-272.301 340.663,-263.325"/>
<polygon fill="#cccccc" stroke="#cccccc" points="343.755,-261.683 336.152,-254.304 337.494,-264.813 343.755,-261.683"/>
</g>
<!-- Hashable&#45;&gt;BinaryInteger -->
<g id="edge8" class="edge">
<path fill="none" stroke="#cccccc" d="M265.849,-173.988C260.399,-166.359 252.743,-155.64 246.193,-146.47"/>
<polygon fill="#cccccc" stroke="#cccccc" points="249.02,-144.407 240.36,-138.304 243.324,-148.476 249.02,-144.407"/>
</g>
<!-- Numeric&#45;&gt;BinaryInteger -->
<g id="edge9" class="edge">
<path fill="none" stroke="#cccccc" d="M330.499,-231.717C329.316,-217.395 325.343,-191.264 312,-174 301.411,-160.3 285.499,-149.922 270.725,-142.523"/>
<polygon fill="#cccccc" stroke="#cccccc" points="271.788,-139.156 261.247,-138.086 268.82,-145.496 271.788,-139.156"/>
</g>
<!-- Strideable&#45;&gt;BinaryInteger -->
<g id="edge10" class="edge">
<path fill="none" stroke="#cccccc" d="M200.151,-173.988C205.601,-166.359 213.257,-155.64 219.807,-146.47"/>
<polygon fill="#cccccc" stroke="#cccccc" points="222.676,-148.476 225.64,-138.304 216.98,-144.407 222.676,-148.476"/>
</g>
<!-- UInt -->
<g id="node9" class="node">
<g id="a_node9"><a xlink:href="/v4.2/type/UInt/hierarchy/" target="_top">
<polygon fill="#999999" stroke="#999999" points="116,-22 62,-22 62,-0 116,-0 116,-22"/>
<text text-anchor="middle" x="89" y="-7.4" font-family="Helvetica,sans-Serif" font-size="12.00" fill="white">UInt</text>
</a>
</g>
</g>
<!-- UInt16 -->
<g id="node10" class="node">
<g id="a_node10"><a xlink:href="/v4.2/type/UInt16/hierarchy/" target="_top">
<polygon fill="#999999" stroke="#999999" points="188,-22 134,-22 134,-0 188,-0 188,-22"/>
<text text-anchor="middle" x="161" y="-7.4" font-family="Helvetica,sans-Serif" font-size="12.00" fill="white">UInt16</text>
</a>
</g>
</g>
<!-- UInt32 -->
<g id="node11" class="node">
<g id="a_node11"><a xlink:href="/v4.2/type/UInt32/hierarchy/" target="_top">
<polygon fill="#999999" stroke="#999999" points="260,-22 206,-22 206,-0 260,-0 260,-22"/>
<text text-anchor="middle" x="233" y="-7.4" font-family="Helvetica,sans-Serif" font-size="12.00" fill="white">UInt32</text>
</a>
</g>
</g>
<!-- UInt64 -->
<g id="node12" class="node">
<g id="a_node12"><a xlink:href="/v4.2/type/UInt64/hierarchy/" target="_top">
<polygon fill="#999999" stroke="#999999" points="332,-22 278,-22 278,-0 332,-0 332,-22"/>
<text text-anchor="middle" x="305" y="-7.4" font-family="Helvetica,sans-Serif" font-size="12.00" fill="white">UInt64</text>
</a>
</g>
</g>
<!-- UInt8 -->
<g id="node13" class="node">
<g id="a_node13"><a xlink:href="/v4.2/type/UInt8/hierarchy/" target="_top">
<polygon fill="#999999" stroke="#999999" points="404,-22 350,-22 350,-0 404,-0 404,-22"/>
<text text-anchor="middle" x="377" y="-7.4" font-family="Helvetica,sans-Serif" font-size="12.00" fill="white">UInt8</text>
</a>
</g>
</g>
<!-- UnsignedInteger&#45;&gt;UInt -->
<g id="edge1" class="edge">
<path fill="none" stroke="#cccccc" d="M207.256,-57.9883C184.158,-49.0057 150.045,-35.7398 124.386,-25.7614"/>
<polygon fill="#cccccc" stroke="#cccccc" points="125.596,-22.4763 115.007,-22.1138 123.058,-29.0004 125.596,-22.4763"/>
</g>
<!-- UnsignedInteger&#45;&gt;UInt16 -->
<g id="edge2" class="edge">
<path fill="none" stroke="#cccccc" d="M220.128,-57.9883C209.611,-49.8087 194.528,-38.0773 182.228,-28.5108"/>
<polygon fill="#cccccc" stroke="#cccccc" points="184.29,-25.6806 174.248,-22.3039 179.993,-31.2061 184.29,-25.6806"/>
</g>
<!-- UnsignedInteger&#45;&gt;UInt32 -->
<g id="edge3" class="edge">
<path fill="none" stroke="#cccccc" d="M233,-57.9883C233,-50.9098 233,-41.1714 233,-32.4779"/>
<polygon fill="#cccccc" stroke="#cccccc" points="236.5,-32.3038 233,-22.3039 229.5,-32.3039 236.5,-32.3038"/>
</g>
<!-- UnsignedInteger&#45;&gt;UInt64 -->
<g id="edge4" class="edge">
<path fill="none" stroke="#cccccc" d="M245.872,-57.9883C256.389,-49.8087 271.472,-38.0773 283.772,-28.5108"/>
<polygon fill="#cccccc" stroke="#cccccc" points="286.007,-31.2061 291.752,-22.3039 281.71,-25.6806 286.007,-31.2061"/>
</g>
<!-- UnsignedInteger&#45;&gt;UInt8 -->
<g id="edge5" class="edge">
<path fill="none" stroke="#cccccc" d="M258.744,-57.9883C281.842,-49.0057 315.955,-35.7398 341.614,-25.7614"/>
<polygon fill="#cccccc" stroke="#cccccc" points="342.942,-29.0004 350.993,-22.1138 340.404,-22.4763 342.942,-29.0004"/>
</g>
</g>
</svg>
