<?xml version="1.0" encoding="UTF-8" standalone="no"?>
<!DOCTYPE svg PUBLIC "-//W3C//DTD SVG 1.1//EN"
 "http://www.w3.org/Graphics/SVG/1.1/DTD/svg11.dtd">
<!-- Generated by graphviz version 2.36.0 (20140111.2315)
 -->
<!-- Title: UInt32 &#45; Type Hierarchy &#45; SwiftDoc.org Pages: 1 -->
<svg width="1165pt" height="543pt"
 viewBox="0.00 0.00 1165.40 543.20" xmlns="http://www.w3.org/2000/svg" xmlns:xlink="http://www.w3.org/1999/xlink">
<g id="graph0" class="graph" transform="scale(1 1) rotate(0) translate(7.2 485.6)">
<title>UInt32 &#45; Type Hierarchy &#45; SwiftDoc.org</title>
<polygon fill="white" stroke="none" points="-7.2,57.6 -7.2,-485.6 1158.2,-485.6 1158.2,57.6 -7.2,57.6"/>
<!-- BidirectionalIndexType -->
<g id="node1" class="node"><title>BidirectionalIndexType</title>
<g id="a_node1"><a xlink:href="/protocol/BidirectionalIndexType/" xlink:title="BidirectionalIndexType">
<path fill="#999999" stroke="#999999" d="M1039.73,-254C1039.73,-254 924.275,-254 924.275,-254 920.608,-254 916.941,-250.333 916.941,-246.667 916.941,-246.667 916.941,-239.333 916.941,-239.333 916.941,-235.667 920.608,-232 924.275,-232 924.275,-232 1039.73,-232 1039.73,-232 1043.39,-232 1047.06,-235.667 1047.06,-239.333 1047.06,-239.333 1047.06,-246.667 1047.06,-246.667 1047.06,-250.333 1043.39,-254 1039.73,-254"/>
<text text-anchor="middle" x="982" y="-239.4" font-family="Helvetica,sans-Serif" font-size="12.00" fill="white">BidirectionalIndexType</text>
</a>
</g>
</g>
<!-- RandomAccessIndexType -->
<g id="node12" class="node"><title>RandomAccessIndexType</title>
<g id="a_node12"><a xlink:href="/protocol/RandomAccessIndexType/" xlink:title="RandomAccessIndexType">
<path fill="#999999" stroke="#999999" d="M865.225,-196C865.225,-196 730.775,-196 730.775,-196 727.108,-196 723.441,-192.333 723.441,-188.667 723.441,-188.667 723.441,-181.333 723.441,-181.333 723.441,-177.667 727.108,-174 730.775,-174 730.775,-174 865.225,-174 865.225,-174 868.892,-174 872.559,-177.667 872.559,-181.333 872.559,-181.333 872.559,-188.667 872.559,-188.667 872.559,-192.333 868.892,-196 865.225,-196"/>
<text text-anchor="middle" x="798" y="-181.4" font-family="Helvetica,sans-Serif" font-size="12.00" fill="white">RandomAccessIndexType</text>
</a>
</g>
</g>
<!-- BidirectionalIndexType&#45;&gt;RandomAccessIndexType -->
<g id="edge37" class="edge"><title>BidirectionalIndexType&#45;&gt;RandomAccessIndexType</title>
<path fill="none" stroke="#cccccc" d="M949.104,-231.988C918.846,-222.779 873.796,-209.068 840.758,-199.013"/>
<polygon fill="#cccccc" stroke="#cccccc" points="841.506,-195.583 830.92,-196.019 839.468,-202.279 841.506,-195.583"/>
</g>
<!-- UInt32 -->
<g id="node15" class="node"><title>UInt32</title>
<g id="a_node15"><a xlink:href="/type/UInt32/" xlink:title="UInt32">
<polygon fill="#ee543d" stroke="#ee543d" points="576,-22 522,-22 522,-0 576,-0 576,-22"/>
<text text-anchor="middle" x="549" y="-7.4" font-family="Helvetica,sans-Serif" font-size="12.00" fill="white">UInt32</text>
</a>
</g>
</g>
<!-- BidirectionalIndexType&#45;&gt;UInt32 -->
<g id="edge13" class="edge"><title>BidirectionalIndexType&#45;&gt;UInt32</title>
<path fill="none" stroke="#cccccc" d="M981.756,-231.992C980.4,-200.548 971.609,-103.154 915,-58 864.879,-18.0206 669.271,-12.4399 586.414,-11.9059"/>
<polygon fill="#cccccc" stroke="#cccccc" points="586.205,-8.40505 576.19,-11.8623 586.175,-15.405 586.205,-8.40505"/>
</g>
<!-- BitwiseOperationsType -->
<g id="node2" class="node"><title>BitwiseOperationsType</title>
<g id="a_node2"><a xlink:href="/protocol/BitwiseOperationsType/" xlink:title="BitwiseOperationsType">
<path fill="#999999" stroke="#999999" d="M268.715,-254C268.715,-254 151.285,-254 151.285,-254 147.618,-254 143.952,-250.333 143.952,-246.667 143.952,-246.667 143.952,-239.333 143.952,-239.333 143.952,-235.667 147.618,-232 151.285,-232 151.285,-232 268.715,-232 268.715,-232 272.382,-232 276.048,-235.667 276.048,-239.333 276.048,-239.333 276.048,-246.667 276.048,-246.667 276.048,-250.333 272.382,-254 268.715,-254"/>
<text text-anchor="middle" x="210" y="-239.4" font-family="Helvetica,sans-Serif" font-size="12.00" fill="white">BitwiseOperationsType</text>
</a>
</g>
</g>
<!-- BitwiseOperationsType&#45;&gt;UInt32 -->
<g id="edge18" class="edge"><title>BitwiseOperationsType&#45;&gt;UInt32</title>
<path fill="none" stroke="#cccccc" d="M211.978,-231.598C218.6,-199.84 243.095,-103.54 304,-58 336.288,-33.8573 451.349,-20.4911 511.598,-15.0031"/>
<polygon fill="#cccccc" stroke="#cccccc" points="512.175,-18.4659 521.828,-14.0992 511.559,-11.4931 512.175,-18.4659"/>
</g>
<!-- _IntegerType -->
<g id="node19" class="node"><title>_IntegerType</title>
<g id="a_node19"><a xlink:href="/protocol/_IntegerType/" xlink:title="_IntegerType">
<path fill="#999999" stroke="#999999" d="M415.708,-196C415.708,-196 350.292,-196 350.292,-196 346.626,-196 342.959,-192.333 342.959,-188.667 342.959,-188.667 342.959,-181.333 342.959,-181.333 342.959,-177.667 346.626,-174 350.292,-174 350.292,-174 415.708,-174 415.708,-174 419.374,-174 423.041,-177.667 423.041,-181.333 423.041,-181.333 423.041,-188.667 423.041,-188.667 423.041,-192.333 419.374,-196 415.708,-196"/>
<text text-anchor="middle" x="383" y="-181.4" font-family="Helvetica,sans-Serif" font-size="12.00" fill="white">_IntegerType</text>
</a>
</g>
</g>
<!-- BitwiseOperationsType&#45;&gt;_IntegerType -->
<g id="edge28" class="edge"><title>BitwiseOperationsType&#45;&gt;_IntegerType</title>
<path fill="none" stroke="#cccccc" d="M240.929,-231.988C269.255,-222.819 311.37,-209.187 342.396,-199.144"/>
<polygon fill="#cccccc" stroke="#cccccc" points="343.612,-202.429 352.048,-196.019 341.456,-195.769 343.612,-202.429"/>
</g>
<!-- CVarArgType -->
<g id="node3" class="node"><title>CVarArgType</title>
<g id="a_node3"><a xlink:href="/protocol/CVarArgType/" xlink:title="CVarArgType">
<path fill="#999999" stroke="#999999" d="M140.029,-80C140.029,-80 73.9709,-80 73.9709,-80 70.3043,-80 66.6376,-76.3333 66.6376,-72.6667 66.6376,-72.6667 66.6376,-65.3333 66.6376,-65.3333 66.6376,-61.6667 70.3043,-58 73.9709,-58 73.9709,-58 140.029,-58 140.029,-58 143.696,-58 147.362,-61.6667 147.362,-65.3333 147.362,-65.3333 147.362,-72.6667 147.362,-72.6667 147.362,-76.3333 143.696,-80 140.029,-80"/>
<text text-anchor="middle" x="107" y="-65.4" font-family="Helvetica,sans-Serif" font-size="12.00" fill="white">CVarArgType</text>
</a>
</g>
</g>
<!-- CVarArgType&#45;&gt;UInt32 -->
<g id="edge20" class="edge"><title>CVarArgType&#45;&gt;UInt32</title>
<path fill="none" stroke="#cccccc" d="M147.502,-60.3443C152.38,-59.5086 157.297,-58.7063 162,-58 289.922,-38.7867 442.62,-22.6152 511.74,-15.6581"/>
<polygon fill="#cccccc" stroke="#cccccc" points="512.108,-19.1388 521.709,-14.6603 511.411,-12.1736 512.108,-19.1388"/>
</g>
<!-- Comparable -->
<g id="node4" class="node"><title>Comparable</title>
<g id="a_node4"><a xlink:href="/protocol/Comparable/" xlink:title="Comparable">
<path fill="#999999" stroke="#999999" d="M575.191,-312C575.191,-312 514.809,-312 514.809,-312 511.142,-312 507.475,-308.333 507.475,-304.667 507.475,-304.667 507.475,-297.333 507.475,-297.333 507.475,-293.667 511.142,-290 514.809,-290 514.809,-290 575.191,-290 575.191,-290 578.858,-290 582.525,-293.667 582.525,-297.333 582.525,-297.333 582.525,-304.667 582.525,-304.667 582.525,-308.333 578.858,-312 575.191,-312"/>
<text text-anchor="middle" x="545" y="-297.4" font-family="Helvetica,sans-Serif" font-size="12.00" fill="white">Comparable</text>
</a>
</g>
</g>
<!-- IntegerArithmeticType -->
<g id="node9" class="node"><title>IntegerArithmeticType</title>
<g id="a_node9"><a xlink:href="/protocol/IntegerArithmeticType/" xlink:title="IntegerArithmeticType">
<path fill="#999999" stroke="#999999" d="M612.711,-254C612.711,-254 501.289,-254 501.289,-254 497.623,-254 493.956,-250.333 493.956,-246.667 493.956,-246.667 493.956,-239.333 493.956,-239.333 493.956,-235.667 497.623,-232 501.289,-232 501.289,-232 612.711,-232 612.711,-232 616.377,-232 620.044,-235.667 620.044,-239.333 620.044,-239.333 620.044,-246.667 620.044,-246.667 620.044,-250.333 616.377,-254 612.711,-254"/>
<text text-anchor="middle" x="557" y="-239.4" font-family="Helvetica,sans-Serif" font-size="12.00" fill="white">IntegerArithmeticType</text>
</a>
</g>
</g>
<!-- Comparable&#45;&gt;IntegerArithmeticType -->
<g id="edge32" class="edge"><title>Comparable&#45;&gt;IntegerArithmeticType</title>
<path fill="none" stroke="#cccccc" d="M547.145,-289.988C548.679,-282.831 550.795,-272.955 552.674,-264.189"/>
<polygon fill="#cccccc" stroke="#cccccc" points="556.119,-264.815 554.792,-254.304 549.274,-263.349 556.119,-264.815"/>
</g>
<!-- Strideable -->
<g id="node14" class="node"><title>Strideable</title>
<g id="a_node14"><a xlink:href="/protocol/Strideable/" xlink:title="Strideable">
<path fill="#999999" stroke="#999999" d="M853.693,-254C853.693,-254 804.307,-254 804.307,-254 800.64,-254 796.974,-250.333 796.974,-246.667 796.974,-246.667 796.974,-239.333 796.974,-239.333 796.974,-235.667 800.64,-232 804.307,-232 804.307,-232 853.693,-232 853.693,-232 857.36,-232 861.026,-235.667 861.026,-239.333 861.026,-239.333 861.026,-246.667 861.026,-246.667 861.026,-250.333 857.36,-254 853.693,-254"/>
<text text-anchor="middle" x="829" y="-239.4" font-family="Helvetica,sans-Serif" font-size="12.00" fill="white">Strideable</text>
</a>
</g>
</g>
<!-- Comparable&#45;&gt;Strideable -->
<g id="edge41" class="edge"><title>Comparable&#45;&gt;Strideable</title>
<path fill="none" stroke="#cccccc" d="M582.588,-293.512C628.481,-285.452 708.687,-270.923 786.799,-254.18"/>
<polygon fill="#cccccc" stroke="#cccccc" points="787.771,-257.551 796.808,-252.02 786.294,-250.708 787.771,-257.551"/>
</g>
<!-- Comparable&#45;&gt;UInt32 -->
<g id="edge4" class="edge"><title>Comparable&#45;&gt;UInt32</title>
<path fill="none" stroke="#cccccc" d="M507.355,-298.583C410.697,-294.56 159.617,-281.533 135,-254 100.501,-215.414 23.2584,-205.725 278,-58 317.105,-35.3227 446.751,-21.0171 511.511,-15.1119"/>
<polygon fill="#cccccc" stroke="#cccccc" points="512.047,-18.5781 521.696,-14.2038 511.425,-11.6058 512.047,-18.5781"/>
</g>
<!-- CustomStringConvertible -->
<g id="node5" class="node"><title>CustomStringConvertible</title>
<g id="a_node5"><a xlink:href="/protocol/CustomStringConvertible/" xlink:title="CustomStringConvertible">
<path fill="#999999" stroke="#999999" d="M430.208,-254C430.208,-254 301.792,-254 301.792,-254 298.126,-254 294.459,-250.333 294.459,-246.667 294.459,-246.667 294.459,-239.333 294.459,-239.333 294.459,-235.667 298.126,-232 301.792,-232 301.792,-232 430.208,-232 430.208,-232 433.874,-232 437.541,-235.667 437.541,-239.333 437.541,-239.333 437.541,-246.667 437.541,-246.667 437.541,-250.333 433.874,-254 430.208,-254"/>
<text text-anchor="middle" x="366" y="-239.4" font-family="Helvetica,sans-Serif" font-size="12.00" fill="white">CustomStringConvertible</text>
</a>
</g>
</g>
<!-- CustomStringConvertible&#45;&gt;UInt32 -->
<g id="edge11" class="edge"><title>CustomStringConvertible&#45;&gt;UInt32</title>
<path fill="none" stroke="#cccccc" d="M356.713,-231.774C341.48,-214.188 311.888,-176.392 302,-138 292.675,-101.795 298.866,-81.4295 328,-58 355.83,-35.6191 456.046,-21.7906 511.476,-15.6808"/>
<polygon fill="#cccccc" stroke="#cccccc" points="512.033,-19.1411 521.603,-14.5954 511.287,-12.181 512.033,-19.1411"/>
</g>
<!-- CustomStringConvertible&#45;&gt;_IntegerType -->
<g id="edge25" class="edge"><title>CustomStringConvertible&#45;&gt;_IntegerType</title>
<path fill="none" stroke="#cccccc" d="M369.039,-231.988C371.236,-224.752 374.276,-214.737 376.959,-205.9"/>
<polygon fill="#cccccc" stroke="#cccccc" points="380.316,-206.889 379.872,-196.304 373.618,-204.856 380.316,-206.889"/>
</g>
<!-- Equatable -->
<g id="node6" class="node"><title>Equatable</title>
<g id="a_node6"><a xlink:href="/protocol/Equatable/" xlink:title="Equatable">
<path fill="#999999" stroke="#999999" d="M334.702,-428C334.702,-428 285.298,-428 285.298,-428 281.632,-428 277.965,-424.333 277.965,-420.667 277.965,-420.667 277.965,-413.333 277.965,-413.333 277.965,-409.667 281.632,-406 285.298,-406 285.298,-406 334.702,-406 334.702,-406 338.368,-406 342.035,-409.667 342.035,-413.333 342.035,-413.333 342.035,-420.667 342.035,-420.667 342.035,-424.333 338.368,-428 334.702,-428"/>
<text text-anchor="middle" x="310" y="-413.4" font-family="Helvetica,sans-Serif" font-size="12.00" fill="white">Equatable</text>
</a>
</g>
</g>
<!-- Equatable&#45;&gt;Comparable -->
<g id="edge33" class="edge"><title>Equatable&#45;&gt;Comparable</title>
<path fill="none" stroke="#cccccc" d="M330.855,-405.883C372.663,-385.602 466.848,-339.912 515.169,-316.471"/>
<polygon fill="#cccccc" stroke="#cccccc" points="516.722,-319.608 524.192,-312.094 513.667,-313.31 516.722,-319.608"/>
</g>
<!-- Hashable -->
<g id="node8" class="node"><title>Hashable</title>
<g id="a_node8"><a xlink:href="/protocol/Hashable/" xlink:title="Hashable">
<path fill="#999999" stroke="#999999" d="M80.6941,-254C80.6941,-254 35.3059,-254 35.3059,-254 31.6392,-254 27.9725,-250.333 27.9725,-246.667 27.9725,-246.667 27.9725,-239.333 27.9725,-239.333 27.9725,-235.667 31.6392,-232 35.3059,-232 35.3059,-232 80.6941,-232 80.6941,-232 84.3608,-232 88.0275,-235.667 88.0275,-239.333 88.0275,-239.333 88.0275,-246.667 88.0275,-246.667 88.0275,-250.333 84.3608,-254 80.6941,-254"/>
<text text-anchor="middle" x="58" y="-239.4" font-family="Helvetica,sans-Serif" font-size="12.00" fill="white">Hashable</text>
</a>
</g>
</g>
<!-- Equatable&#45;&gt;Hashable -->
<g id="edge30" class="edge"><title>Equatable&#45;&gt;Hashable</title>
<path fill="none" stroke="#cccccc" d="M294.991,-405.756C252.709,-376.897 132.379,-294.767 81.3421,-259.932"/>
<polygon fill="#cccccc" stroke="#cccccc" points="83.1631,-256.937 72.9304,-254.191 79.2168,-262.719 83.1631,-256.937"/>
</g>
<!-- Equatable&#45;&gt;UInt32 -->
<g id="edge3" class="edge"><title>Equatable&#45;&gt;UInt32</title>
<path fill="none" stroke="#cccccc" d="M277.702,-411.181C198.303,-398.429 0,-360.705 0,-302 0,-302 0,-302 0,-126 0,-90.9367 10.3785,-76.7616 40,-58 79.6208,-32.9051 400.988,-17.8849 511.689,-13.4155"/>
<polygon fill="#cccccc" stroke="#cccccc" points="511.875,-16.911 521.728,-13.0159 511.597,-9.9165 511.875,-16.911"/>
</g>
<!-- _Incrementable -->
<g id="node17" class="node"><title>_Incrementable</title>
<g id="a_node17"><a xlink:href="/protocol/_Incrementable/" xlink:title="_Incrementable">
<path fill="#999999" stroke="#999999" d="M586.705,-370C586.705,-370 509.295,-370 509.295,-370 505.628,-370 501.961,-366.333 501.961,-362.667 501.961,-362.667 501.961,-355.333 501.961,-355.333 501.961,-351.667 505.628,-348 509.295,-348 509.295,-348 586.705,-348 586.705,-348 590.372,-348 594.039,-351.667 594.039,-355.333 594.039,-355.333 594.039,-362.667 594.039,-362.667 594.039,-366.333 590.372,-370 586.705,-370"/>
<text text-anchor="middle" x="548" y="-355.4" font-family="Helvetica,sans-Serif" font-size="12.00" fill="white">_Incrementable</text>
</a>
</g>
</g>
<!-- Equatable&#45;&gt;_Incrementable -->
<g id="edge34" class="edge"><title>Equatable&#45;&gt;_Incrementable</title>
<path fill="none" stroke="#cccccc" d="M342.098,-408.448C381.343,-399.213 448.315,-383.455 495.192,-372.425"/>
<polygon fill="#cccccc" stroke="#cccccc" points="496.234,-375.776 505.167,-370.078 494.631,-368.962 496.234,-375.776"/>
</g>
<!-- ForwardIndexType -->
<g id="node7" class="node"><title>ForwardIndexType</title>
<g id="a_node7"><a xlink:href="/protocol/ForwardIndexType/" xlink:title="ForwardIndexType">
<path fill="#999999" stroke="#999999" d="M1029.21,-312C1029.21,-312 934.794,-312 934.794,-312 931.127,-312 927.461,-308.333 927.461,-304.667 927.461,-304.667 927.461,-297.333 927.461,-297.333 927.461,-293.667 931.127,-290 934.794,-290 934.794,-290 1029.21,-290 1029.21,-290 1032.87,-290 1036.54,-293.667 1036.54,-297.333 1036.54,-297.333 1036.54,-304.667 1036.54,-304.667 1036.54,-308.333 1032.87,-312 1029.21,-312"/>
<text text-anchor="middle" x="982" y="-297.4" font-family="Helvetica,sans-Serif" font-size="12.00" fill="white">ForwardIndexType</text>
</a>
</g>
</g>
<!-- ForwardIndexType&#45;&gt;BidirectionalIndexType -->
<g id="edge39" class="edge"><title>ForwardIndexType&#45;&gt;BidirectionalIndexType</title>
<path fill="none" stroke="#cccccc" d="M982,-289.988C982,-282.91 982,-273.171 982,-264.478"/>
<polygon fill="#cccccc" stroke="#cccccc" points="985.5,-264.304 982,-254.304 978.5,-264.304 985.5,-264.304"/>
</g>
<!-- ForwardIndexType&#45;&gt;UInt32 -->
<g id="edge14" class="edge"><title>ForwardIndexType&#45;&gt;UInt32</title>
<path fill="none" stroke="#cccccc" d="M1015.89,-289.877C1035.91,-282.524 1060.64,-270.874 1078,-254 1102.38,-230.31 1113,-219.991 1113,-186 1113,-186 1113,-186 1113,-126 1113,-18.2548 712.547,-11.1454 586.507,-11.5761"/>
<polygon fill="#cccccc" stroke="#cccccc" points="586.184,-8.07767 576.203,-11.6307 586.221,-15.0776 586.184,-8.07767"/>
</g>
<!-- Hashable&#45;&gt;UInt32 -->
<g id="edge10" class="edge"><title>Hashable&#45;&gt;UInt32</title>
<path fill="none" stroke="#cccccc" d="M53.8799,-231.999C42.0094,-201.396 11.3958,-108.067 57,-58 87.4698,-24.5485 401.871,-14.9911 511.523,-12.664"/>
<polygon fill="#cccccc" stroke="#cccccc" points="511.851,-16.1581 521.778,-12.4549 511.708,-9.15956 511.851,-16.1581"/>
</g>
<!-- Hashable&#45;&gt;_IntegerType -->
<g id="edge26" class="edge"><title>Hashable&#45;&gt;_IntegerType</title>
<path fill="none" stroke="#cccccc" d="M88.2834,-236.782C144.266,-227.136 264.453,-206.427 332.792,-194.651"/>
<polygon fill="#cccccc" stroke="#cccccc" points="333.63,-198.058 342.891,-192.911 332.441,-191.16 333.63,-198.058"/>
</g>
<!-- IntegerArithmeticType&#45;&gt;UInt32 -->
<g id="edge6" class="edge"><title>IntegerArithmeticType&#45;&gt;UInt32</title>
<path fill="none" stroke="#cccccc" d="M556.646,-231.82C555.422,-196.642 551.357,-79.7709 549.706,-32.3033"/>
<polygon fill="#cccccc" stroke="#cccccc" points="553.196,-31.9343 549.35,-22.062 546.2,-32.1777 553.196,-31.9343"/>
</g>
<!-- IntegerArithmeticType&#45;&gt;_IntegerType -->
<g id="edge27" class="edge"><title>IntegerArithmeticType&#45;&gt;_IntegerType</title>
<path fill="none" stroke="#cccccc" d="M525.892,-231.988C497.402,-222.819 455.044,-209.187 423.839,-199.144"/>
<polygon fill="#cccccc" stroke="#cccccc" points="424.723,-195.751 414.131,-196.019 422.578,-202.415 424.723,-195.751"/>
</g>
<!-- IntegerLiteralConvertible -->
<g id="node10" class="node"><title>IntegerLiteralConvertible</title>
<g id="a_node10"><a xlink:href="/protocol/IntegerLiteralConvertible/" xlink:title="IntegerLiteralConvertible">
<path fill="#999999" stroke="#999999" d="M771.722,-254C771.722,-254 646.278,-254 646.278,-254 642.611,-254 638.944,-250.333 638.944,-246.667 638.944,-246.667 638.944,-239.333 638.944,-239.333 638.944,-235.667 642.611,-232 646.278,-232 646.278,-232 771.722,-232 771.722,-232 775.389,-232 779.056,-235.667 779.056,-239.333 779.056,-239.333 779.056,-246.667 779.056,-246.667 779.056,-250.333 775.389,-254 771.722,-254"/>
<text text-anchor="middle" x="709" y="-239.4" font-family="Helvetica,sans-Serif" font-size="12.00" fill="white">IntegerLiteralConvertible</text>
</a>
</g>
</g>
<!-- IntegerLiteralConvertible&#45;&gt;UInt32 -->
<g id="edge8" class="edge"><title>IntegerLiteralConvertible&#45;&gt;UInt32</title>
<path fill="none" stroke="#cccccc" d="M701.919,-231.82C677.136,-196.196 594.073,-76.7927 561.891,-30.5307"/>
<polygon fill="#cccccc" stroke="#cccccc" points="564.584,-28.2724 556,-22.062 558.837,-32.2698 564.584,-28.2724"/>
</g>
<!-- IntegerLiteralConvertible&#45;&gt;_IntegerType -->
<g id="edge24" class="edge"><title>IntegerLiteralConvertible&#45;&gt;_IntegerType</title>
<path fill="none" stroke="#cccccc" d="M650.718,-231.988C588.866,-221.364 492.129,-204.746 433.44,-194.665"/>
<polygon fill="#cccccc" stroke="#cccccc" points="433.744,-191.166 423.296,-192.922 432.559,-198.065 433.744,-191.166"/>
</g>
<!-- IntegerType -->
<g id="node11" class="node"><title>IntegerType</title>
<g id="a_node11"><a xlink:href="/protocol/IntegerType/" xlink:title="IntegerType">
<path fill="#999999" stroke="#999999" d="M532.202,-138C532.202,-138 473.798,-138 473.798,-138 470.132,-138 466.465,-134.333 466.465,-130.667 466.465,-130.667 466.465,-123.333 466.465,-123.333 466.465,-119.667 470.132,-116 473.798,-116 473.798,-116 532.202,-116 532.202,-116 535.868,-116 539.535,-119.667 539.535,-123.333 539.535,-123.333 539.535,-130.667 539.535,-130.667 539.535,-134.333 535.868,-138 532.202,-138"/>
<text text-anchor="middle" x="503" y="-123.4" font-family="Helvetica,sans-Serif" font-size="12.00" fill="white">IntegerType</text>
</a>
</g>
</g>
<!-- IntegerType&#45;&gt;UInt32 -->
<g id="edge2" class="edge"><title>IntegerType&#45;&gt;UInt32</title>
<path fill="none" stroke="#cccccc" d="M507.082,-115.883C514.701,-97.0017 531.206,-56.098 541.08,-31.6272"/>
<polygon fill="#cccccc" stroke="#cccccc" points="544.365,-32.8412 544.861,-22.2579 537.873,-30.2218 544.365,-32.8412"/>
</g>
<!-- UnsignedIntegerType -->
<g id="node16" class="node"><title>UnsignedIntegerType</title>
<g id="a_node16"><a xlink:href="/protocol/UnsignedIntegerType/" xlink:title="UnsignedIntegerType">
<path fill="#999999" stroke="#999999" d="M494.728,-80C494.728,-80 385.272,-80 385.272,-80 381.605,-80 377.938,-76.3333 377.938,-72.6667 377.938,-72.6667 377.938,-65.3333 377.938,-65.3333 377.938,-61.6667 381.605,-58 385.272,-58 385.272,-58 494.728,-58 494.728,-58 498.395,-58 502.062,-61.6667 502.062,-65.3333 502.062,-65.3333 502.062,-72.6667 502.062,-72.6667 502.062,-76.3333 498.395,-80 494.728,-80"/>
<text text-anchor="middle" x="440" y="-65.4" font-family="Helvetica,sans-Serif" font-size="12.00" fill="white">UnsignedIntegerType</text>
</a>
</g>
</g>
<!-- IntegerType&#45;&gt;UnsignedIntegerType -->
<g id="edge22" class="edge"><title>IntegerType&#45;&gt;UnsignedIntegerType</title>
<path fill="none" stroke="#cccccc" d="M491.737,-115.988C482.712,-107.966 469.843,-96.5272 459.198,-87.065"/>
<polygon fill="#cccccc" stroke="#cccccc" points="461.391,-84.3316 451.592,-80.3039 456.741,-89.5635 461.391,-84.3316"/>
</g>
<!-- RandomAccessIndexType&#45;&gt;IntegerType -->
<g id="edge36" class="edge"><title>RandomAccessIndexType&#45;&gt;IntegerType</title>
<path fill="none" stroke="#cccccc" d="M745.26,-173.988C689.522,-163.408 602.476,-146.884 549.305,-136.79"/>
<polygon fill="#cccccc" stroke="#cccccc" points="549.941,-133.348 539.464,-134.922 548.636,-140.226 549.941,-133.348"/>
</g>
<!-- RandomAccessIndexType&#45;&gt;UInt32 -->
<g id="edge12" class="edge"><title>RandomAccessIndexType&#45;&gt;UInt32</title>
<path fill="none" stroke="#cccccc" d="M796.897,-173.678C793.743,-149.509 782.426,-88.9556 746,-58 722.201,-37.7753 636.389,-23.4502 586.214,-16.5889"/>
<polygon fill="#cccccc" stroke="#cccccc" points="586.458,-13.0905 576.084,-15.2386 585.533,-20.0292 586.458,-13.0905"/>
</g>
<!-- Reflectable -->
<g id="node13" class="node"><title>Reflectable</title>
<g id="a_node13"><a xlink:href="/protocol/Reflectable/" xlink:title="Reflectable">
<path fill="#999999" stroke="#999999" d="M696.693,-80C696.693,-80 641.307,-80 641.307,-80 637.64,-80 633.974,-76.3333 633.974,-72.6667 633.974,-72.6667 633.974,-65.3333 633.974,-65.3333 633.974,-61.6667 637.64,-58 641.307,-58 641.307,-58 696.693,-58 696.693,-58 700.36,-58 704.026,-61.6667 704.026,-65.3333 704.026,-65.3333 704.026,-72.6667 704.026,-72.6667 704.026,-76.3333 700.36,-80 696.693,-80"/>
<text text-anchor="middle" x="669" y="-65.4" font-family="Helvetica,sans-Serif" font-size="12.00" fill="white">Reflectable</text>
</a>
</g>
</g>
<!-- Reflectable&#45;&gt;UInt32 -->
<g id="edge19" class="edge"><title>Reflectable&#45;&gt;UInt32</title>
<path fill="none" stroke="#cccccc" d="M647.546,-57.9883C628.722,-49.2036 601.119,-36.3222 579.912,-26.4255"/>
<polygon fill="#cccccc" stroke="#cccccc" points="581.214,-23.1711 570.672,-22.1138 578.254,-29.5144 581.214,-23.1711"/>
</g>
<!-- Strideable&#45;&gt;RandomAccessIndexType -->
<g id="edge38" class="edge"><title>Strideable&#45;&gt;RandomAccessIndexType</title>
<path fill="none" stroke="#cccccc" d="M823.458,-231.988C819.365,-224.595 813.666,-214.301 808.698,-205.325"/>
<polygon fill="#cccccc" stroke="#cccccc" points="811.609,-203.358 803.704,-196.304 805.485,-206.748 811.609,-203.358"/>
</g>
<!-- Strideable&#45;&gt;UInt32 -->
<g id="edge16" class="edge"><title>Strideable&#45;&gt;UInt32</title>
<path fill="none" stroke="#cccccc" d="M796.989,-233.523C766.46,-224.716 723.726,-210.254 714,-196 679.43,-145.335 750.231,-106.743 713,-58 697.629,-37.8759 629.42,-24.0896 585.953,-17.1681"/>
<polygon fill="#cccccc" stroke="#cccccc" points="586.432,-13.7008 576.016,-15.6361 585.366,-20.6191 586.432,-13.7008"/>
</g>
<!-- UnsignedIntegerType&#45;&gt;UInt32 -->
<g id="edge1" class="edge"><title>UnsignedIntegerType&#45;&gt;UInt32</title>
<path fill="none" stroke="#cccccc" d="M459.487,-57.9883C476.432,-49.2827 501.208,-36.5539 520.4,-26.6937"/>
<polygon fill="#cccccc" stroke="#cccccc" points="522.019,-29.7968 529.314,-22.1138 518.82,-23.5705 522.019,-29.7968"/>
</g>
<!-- _Incrementable&#45;&gt;ForwardIndexType -->
<g id="edge40" class="edge"><title>_Incrementable&#45;&gt;ForwardIndexType</title>
<path fill="none" stroke="#cccccc" d="M594.446,-352.007C672.168,-341.978 828.746,-321.775 917.243,-310.356"/>
<polygon fill="#cccccc" stroke="#cccccc" points="917.955,-313.793 927.425,-309.042 917.059,-306.851 917.955,-313.793"/>
</g>
<!-- _Incrementable&#45;&gt;UInt32 -->
<g id="edge15" class="edge"><title>_Incrementable&#45;&gt;UInt32</title>
<path fill="none" stroke="#cccccc" d="M594.362,-356.509C701.291,-352.622 962.343,-340.436 1045,-312 1097.93,-293.792 1151,-299.972 1151,-244 1151,-244 1151,-244 1151,-126 1151,-80.0091 1115.32,-76.0065 1073,-58 985.056,-20.5806 690.624,-13.5998 586.154,-12.2981"/>
<polygon fill="#cccccc" stroke="#cccccc" points="586.118,-8.79758 576.079,-12.1831 586.038,-15.7971 586.118,-8.79758"/>
</g>
<!-- _Incrementable&#45;&gt;_IntegerType -->
<g id="edge29" class="edge"><title>_Incrementable&#45;&gt;_IntegerType</title>
<path fill="none" stroke="#cccccc" d="M535.256,-347.822C524.624,-338.983 509.421,-325.513 498,-312 470.626,-279.612 475.161,-262.789 446,-232 434.984,-220.369 420.698,-209.665 408.515,-201.515"/>
<polygon fill="#cccccc" stroke="#cccccc" points="410.387,-198.558 400.092,-196.055 406.58,-204.432 410.387,-198.558"/>
</g>
<!-- _IntegerArithmeticType -->
<g id="node18" class="node"><title>_IntegerArithmeticType</title>
<g id="a_node18"><a xlink:href="/protocol/_IntegerArithmeticType/" xlink:title="_IntegerArithmeticType">
<path fill="#999999" stroke="#999999" d="M769.215,-312C769.215,-312 650.785,-312 650.785,-312 647.118,-312 643.452,-308.333 643.452,-304.667 643.452,-304.667 643.452,-297.333 643.452,-297.333 643.452,-293.667 647.118,-290 650.785,-290 650.785,-290 769.215,-290 769.215,-290 772.882,-290 776.548,-293.667 776.548,-297.333 776.548,-297.333 776.548,-304.667 776.548,-304.667 776.548,-308.333 772.882,-312 769.215,-312"/>
<text text-anchor="middle" x="710" y="-297.4" font-family="Helvetica,sans-Serif" font-size="12.00" fill="white">_IntegerArithmeticType</text>
</a>
</g>
</g>
<!-- _IntegerArithmeticType&#45;&gt;IntegerArithmeticType -->
<g id="edge31" class="edge"><title>_IntegerArithmeticType&#45;&gt;IntegerArithmeticType</title>
<path fill="none" stroke="#cccccc" d="M682.647,-289.988C657.92,-280.938 621.315,-267.54 593.984,-257.537"/>
<polygon fill="#cccccc" stroke="#cccccc" points="594.968,-254.17 584.374,-254.019 592.562,-260.743 594.968,-254.17"/>
</g>
<!-- _IntegerArithmeticType&#45;&gt;UInt32 -->
<g id="edge7" class="edge"><title>_IntegerArithmeticType&#45;&gt;UInt32</title>
<path fill="none" stroke="#cccccc" d="M767.865,-289.952C807.786,-281.836 856.079,-269.273 870,-254 894.177,-227.475 894.369,-207.307 881,-174 854.421,-107.778 832.404,-92.6051 770,-58 711.335,-25.4684 632.321,-15.8749 586.395,-13.0891"/>
<polygon fill="#cccccc" stroke="#cccccc" points="586.461,-9.58786 576.29,-12.5544 586.092,-16.5781 586.461,-9.58786"/>
</g>
<!-- _IntegerType&#45;&gt;IntegerType -->
<g id="edge35" class="edge"><title>_IntegerType&#45;&gt;IntegerType</title>
<path fill="none" stroke="#cccccc" d="M404.454,-173.988C423.278,-165.204 450.881,-152.322 472.088,-142.425"/>
<polygon fill="#cccccc" stroke="#cccccc" points="473.746,-145.514 481.328,-138.114 470.786,-139.171 473.746,-145.514"/>
</g>
<!-- _IntegerType&#45;&gt;UInt32 -->
<g id="edge5" class="edge"><title>_IntegerType&#45;&gt;UInt32</title>
<path fill="none" stroke="#cccccc" d="M353.433,-173.863C337.197,-166.603 318.481,-155.056 309,-138 304.25,-129.454 305.55,-125.149 309,-116 338.779,-37.0369 451.801,-17.9119 511.513,-13.36"/>
<polygon fill="#cccccc" stroke="#cccccc" points="511.916,-16.8411 521.663,-12.6879 511.453,-9.85636 511.916,-16.8411"/>
</g>
<!-- _UnsignedIntegerType -->
<g id="node21" class="node"><title>_UnsignedIntegerType</title>
<g id="a_node21"><a xlink:href="/protocol/_UnsignedIntegerType/" xlink:title="_UnsignedIntegerType">
<path fill="#999999" stroke="#999999" d="M440.734,-138C440.734,-138 325.266,-138 325.266,-138 321.599,-138 317.933,-134.333 317.933,-130.667 317.933,-130.667 317.933,-123.333 317.933,-123.333 317.933,-119.667 321.599,-116 325.266,-116 325.266,-116 440.734,-116 440.734,-116 444.401,-116 448.067,-119.667 448.067,-123.333 448.067,-123.333 448.067,-130.667 448.067,-130.667 448.067,-134.333 444.401,-138 440.734,-138"/>
<text text-anchor="middle" x="383" y="-123.4" font-family="Helvetica,sans-Serif" font-size="12.00" fill="white">_UnsignedIntegerType</text>
</a>
</g>
</g>
<!-- _IntegerType&#45;&gt;_UnsignedIntegerType -->
<g id="edge23" class="edge"><title>_IntegerType&#45;&gt;_UnsignedIntegerType</title>
<path fill="none" stroke="#cccccc" d="M383,-173.988C383,-166.91 383,-157.171 383,-148.478"/>
<polygon fill="#cccccc" stroke="#cccccc" points="386.5,-148.304 383,-138.304 379.5,-148.304 386.5,-148.304"/>
</g>
<!-- _Strideable -->
<g id="node20" class="node"><title>_Strideable</title>
<g id="a_node20"><a xlink:href="/protocol/_Strideable/" xlink:title="_Strideable">
<path fill="#999999" stroke="#999999" d="M878.7,-312C878.7,-312 823.3,-312 823.3,-312 819.634,-312 815.967,-308.333 815.967,-304.667 815.967,-304.667 815.967,-297.333 815.967,-297.333 815.967,-293.667 819.634,-290 823.3,-290 823.3,-290 878.7,-290 878.7,-290 882.366,-290 886.033,-293.667 886.033,-297.333 886.033,-297.333 886.033,-304.667 886.033,-304.667 886.033,-308.333 882.366,-312 878.7,-312"/>
<text text-anchor="middle" x="851" y="-297.4" font-family="Helvetica,sans-Serif" font-size="12.00" fill="white">_Strideable</text>
</a>
</g>
</g>
<!-- _Strideable&#45;&gt;Strideable -->
<g id="edge42" class="edge"><title>_Strideable&#45;&gt;Strideable</title>
<path fill="none" stroke="#cccccc" d="M847.067,-289.988C844.193,-282.674 840.204,-272.519 836.705,-263.612"/>
<polygon fill="#cccccc" stroke="#cccccc" points="839.962,-262.332 833.048,-254.304 833.447,-264.891 839.962,-262.332"/>
</g>
<!-- _Strideable&#45;&gt;UInt32 -->
<g id="edge17" class="edge"><title>_Strideable&#45;&gt;UInt32</title>
<path fill="none" stroke="#cccccc" d="M886.288,-294.106C941.607,-284.568 1043.73,-265.648 1056,-254 1078.76,-232.392 1075,-217.38 1075,-186 1075,-186 1075,-186 1075,-126 1075,-25.8876 706.464,-13.4989 586.352,-12.1197"/>
<polygon fill="#cccccc" stroke="#cccccc" points="586.205,-8.61826 576.172,-12.0228 586.139,-15.6179 586.205,-8.61826"/>
</g>
<!-- _UnsignedIntegerType&#45;&gt;UInt32 -->
<g id="edge9" class="edge"><title>_UnsignedIntegerType&#45;&gt;UInt32</title>
<path fill="none" stroke="#cccccc" d="M376.228,-115.628C367.75,-101.201 355.841,-74.9451 369,-58 386.335,-35.6782 464.287,-22.3611 511.742,-16.1806"/>
<polygon fill="#cccccc" stroke="#cccccc" points="512.46,-19.618 521.946,-14.9 511.588,-12.6725 512.46,-19.618"/>
</g>
<!-- _UnsignedIntegerType&#45;&gt;UnsignedIntegerType -->
<g id="edge21" class="edge"><title>_UnsignedIntegerType&#45;&gt;UnsignedIntegerType</title>
<path fill="none" stroke="#cccccc" d="M393.19,-115.988C401.276,-108.045 412.771,-96.7512 422.346,-87.3439"/>
<polygon fill="#cccccc" stroke="#cccccc" points="424.832,-89.8088 429.512,-80.3039 419.926,-84.8154 424.832,-89.8088"/>
</g>
</g>
</svg>
