<?xml version="1.0" encoding="UTF-8" standalone="no"?>
<!DOCTYPE svg PUBLIC "-//W3C//DTD SVG 1.1//EN"
 "http://www.w3.org/Graphics/SVG/1.1/DTD/svg11.dtd">
<!-- Generated by graphviz version 2.36.0 (20140111.2315)
 -->
<!-- Title: Array&lt;T&gt; &#45; Type Hierarchy &#45; SwiftDoc.org Pages: 1 -->
<svg width="1476pt" height="543pt"
 viewBox="0.00 0.00 1476.40 543.20" xmlns="http://www.w3.org/2000/svg" xmlns:xlink="http://www.w3.org/1999/xlink">
<g id="graph0" class="graph" transform="scale(1 1) rotate(0) translate(7.2 485.6)">
<title>Array&lt;T&gt; &#45; Type Hierarchy &#45; SwiftDoc.org</title>
<polygon fill="white" stroke="none" points="-7.2,57.6 -7.2,-485.6 1469.2,-485.6 1469.2,57.6 -7.2,57.6"/>
<!-- Array&lt;T&gt; -->
<g id="node1" class="node"><title>Array&lt;T&gt;</title>
<g id="a_node1"><a xlink:href="/type/Array/" xlink:title="Array&lt;T&gt;">
<polygon fill="#ee543d" stroke="#ee543d" points="677.012,-22 616.988,-22 616.988,-0 677.012,-0 677.012,-22"/>
<text text-anchor="middle" x="647" y="-7.4" font-family="Helvetica,sans-Serif" font-size="12.00" fill="white">Array&lt;T&gt;</text>
</a>
</g>
</g>
<!-- ArrayLiteralConvertible -->
<g id="node2" class="node"><title>ArrayLiteralConvertible</title>
<g id="a_node2"><a xlink:href="/protocol/ArrayLiteralConvertible/" xlink:title="ArrayLiteralConvertible">
<path fill="#999999" stroke="#999999" d="M190.705,-138C190.705,-138 73.2952,-138 73.2952,-138 69.6286,-138 65.9619,-134.333 65.9619,-130.667 65.9619,-130.667 65.9619,-123.333 65.9619,-123.333 65.9619,-119.667 69.6286,-116 73.2952,-116 73.2952,-116 190.705,-116 190.705,-116 194.371,-116 198.038,-119.667 198.038,-123.333 198.038,-123.333 198.038,-130.667 198.038,-130.667 198.038,-134.333 194.371,-138 190.705,-138"/>
<text text-anchor="middle" x="132" y="-123.4" font-family="Helvetica,sans-Serif" font-size="12.00" fill="white">ArrayLiteralConvertible</text>
</a>
</g>
</g>
<!-- ArrayLiteralConvertible&#45;&gt;Array&lt;T&gt; -->
<g id="edge10" class="edge"><title>ArrayLiteralConvertible&#45;&gt;Array&lt;T&gt;</title>
<path fill="none" stroke="#cccccc" d="M154.318,-115.892C188.293,-100.925 255.347,-73.0241 315,-58 418.216,-32.0044 543.432,-19.6727 606.513,-14.7505"/>
<polygon fill="#cccccc" stroke="#cccccc" points="607.113,-18.2151 616.82,-13.9694 606.584,-11.2351 607.113,-18.2151"/>
</g>
<!-- _ArrayType -->
<g id="node13" class="node"><title>_ArrayType</title>
<g id="a_node13"><a xlink:href="/protocol/_ArrayType/" xlink:title="_ArrayType">
<path fill="#999999" stroke="#999999" d="M435.19,-80C435.19,-80 378.81,-80 378.81,-80 375.144,-80 371.477,-76.3333 371.477,-72.6667 371.477,-72.6667 371.477,-65.3333 371.477,-65.3333 371.477,-61.6667 375.144,-58 378.81,-58 378.81,-58 435.19,-58 435.19,-58 438.856,-58 442.523,-61.6667 442.523,-65.3333 442.523,-65.3333 442.523,-72.6667 442.523,-72.6667 442.523,-76.3333 438.856,-80 435.19,-80"/>
<text text-anchor="middle" x="407" y="-65.4" font-family="Helvetica,sans-Serif" font-size="12.00" fill="white">_ArrayType</text>
</a>
</g>
</g>
<!-- ArrayLiteralConvertible&#45;&gt;_ArrayType -->
<g id="edge29" class="edge"><title>ArrayLiteralConvertible&#45;&gt;_ArrayType</title>
<path fill="none" stroke="#cccccc" d="M181.164,-115.988C232.33,-105.569 311.794,-89.3874 361.54,-79.2574"/>
<polygon fill="#cccccc" stroke="#cccccc" points="362.278,-82.6789 371.379,-77.2538 360.882,-75.8196 362.278,-82.6789"/>
</g>
<!-- CollectionType -->
<g id="node3" class="node"><title>CollectionType</title>
<g id="a_node3"><a xlink:href="/protocol/CollectionType/" xlink:title="CollectionType">
<path fill="#999999" stroke="#999999" d="M518.704,-312C518.704,-312 445.296,-312 445.296,-312 441.63,-312 437.963,-308.333 437.963,-304.667 437.963,-304.667 437.963,-297.333 437.963,-297.333 437.963,-293.667 441.63,-290 445.296,-290 445.296,-290 518.704,-290 518.704,-290 522.37,-290 526.037,-293.667 526.037,-297.333 526.037,-297.333 526.037,-304.667 526.037,-304.667 526.037,-308.333 522.37,-312 518.704,-312"/>
<text text-anchor="middle" x="482" y="-297.4" font-family="Helvetica,sans-Serif" font-size="12.00" fill="white">CollectionType</text>
</a>
</g>
</g>
<!-- CollectionType&#45;&gt;Array&lt;T&gt; -->
<g id="edge1" class="edge"><title>CollectionType&#45;&gt;Array&lt;T&gt;</title>
<path fill="none" stroke="#cccccc" d="M526.349,-300.843C580.601,-300.002 673.645,-292.366 742,-254 777.147,-234.273 802,-226.305 802,-186 802,-186 802,-186 802,-126 802,-68.8934 732.877,-37.2194 686.952,-22.4772"/>
<polygon fill="#cccccc" stroke="#cccccc" points="687.84,-19.0889 677.254,-19.5022 685.787,-25.7811 687.84,-19.0889"/>
</g>
<!-- ExtensibleCollectionType -->
<g id="node6" class="node"><title>ExtensibleCollectionType</title>
<g id="a_node6"><a xlink:href="/protocol/ExtensibleCollectionType/" xlink:title="ExtensibleCollectionType">
<path fill="#999999" stroke="#999999" d="M483.727,-196C483.727,-196 354.273,-196 354.273,-196 350.607,-196 346.94,-192.333 346.94,-188.667 346.94,-188.667 346.94,-181.333 346.94,-181.333 346.94,-177.667 350.607,-174 354.273,-174 354.273,-174 483.727,-174 483.727,-174 487.393,-174 491.06,-177.667 491.06,-181.333 491.06,-181.333 491.06,-188.667 491.06,-188.667 491.06,-192.333 487.393,-196 483.727,-196"/>
<text text-anchor="middle" x="419" y="-181.4" font-family="Helvetica,sans-Serif" font-size="12.00" fill="white">ExtensibleCollectionType</text>
</a>
</g>
</g>
<!-- CollectionType&#45;&gt;ExtensibleCollectionType -->
<g id="edge31" class="edge"><title>CollectionType&#45;&gt;ExtensibleCollectionType</title>
<path fill="none" stroke="#cccccc" d="M476.409,-289.883C465.928,-270.917 443.168,-229.732 429.666,-205.3"/>
<polygon fill="#cccccc" stroke="#cccccc" points="432.569,-203.317 424.669,-196.258 426.442,-206.703 432.569,-203.317"/>
</g>
<!-- MutableCollectionType -->
<g id="node7" class="node"><title>MutableCollectionType</title>
<g id="a_node7"><a xlink:href="/protocol/MutableCollectionType/" xlink:title="MutableCollectionType">
<path fill="#999999" stroke="#999999" d="M633.221,-196C633.221,-196 516.779,-196 516.779,-196 513.112,-196 509.446,-192.333 509.446,-188.667 509.446,-188.667 509.446,-181.333 509.446,-181.333 509.446,-177.667 513.112,-174 516.779,-174 516.779,-174 633.221,-174 633.221,-174 636.888,-174 640.554,-177.667 640.554,-181.333 640.554,-181.333 640.554,-188.667 640.554,-188.667 640.554,-192.333 636.888,-196 633.221,-196"/>
<text text-anchor="middle" x="575" y="-181.4" font-family="Helvetica,sans-Serif" font-size="12.00" fill="white">MutableCollectionType</text>
</a>
</g>
</g>
<!-- CollectionType&#45;&gt;MutableCollectionType -->
<g id="edge22" class="edge"><title>CollectionType&#45;&gt;MutableCollectionType</title>
<path fill="none" stroke="#cccccc" d="M490.253,-289.883C506,-270.58 540.524,-228.261 560.305,-204.014"/>
<polygon fill="#cccccc" stroke="#cccccc" points="563.022,-206.219 566.632,-196.258 557.598,-201.794 563.022,-206.219"/>
</g>
<!-- _Sliceable -->
<g id="node17" class="node"><title>_Sliceable</title>
<g id="a_node17"><a xlink:href="/protocol/_Sliceable/" xlink:title="_Sliceable">
<path fill="#999999" stroke="#999999" d="M726.194,-254C726.194,-254 675.806,-254 675.806,-254 672.139,-254 668.473,-250.333 668.473,-246.667 668.473,-246.667 668.473,-239.333 668.473,-239.333 668.473,-235.667 672.139,-232 675.806,-232 675.806,-232 726.194,-232 726.194,-232 729.861,-232 733.527,-235.667 733.527,-239.333 733.527,-239.333 733.527,-246.667 733.527,-246.667 733.527,-250.333 729.861,-254 726.194,-254"/>
<text text-anchor="middle" x="701" y="-239.4" font-family="Helvetica,sans-Serif" font-size="12.00" fill="white">_Sliceable</text>
</a>
</g>
</g>
<!-- CollectionType&#45;&gt;_Sliceable -->
<g id="edge24" class="edge"><title>CollectionType&#45;&gt;_Sliceable</title>
<path fill="none" stroke="#cccccc" d="M521.153,-289.988C559.86,-280.091 618.905,-264.992 658.679,-254.822"/>
<polygon fill="#cccccc" stroke="#cccccc" points="659.78,-258.153 668.601,-252.285 658.046,-251.371 659.78,-258.153"/>
</g>
<!-- __ArrayType -->
<g id="node18" class="node"><title>__ArrayType</title>
<g id="a_node18"><a xlink:href="/protocol/__ArrayType/" xlink:title="__ArrayType">
<path fill="#999999" stroke="#999999" d="M286.696,-138C286.696,-138 223.304,-138 223.304,-138 219.637,-138 215.971,-134.333 215.971,-130.667 215.971,-130.667 215.971,-123.333 215.971,-123.333 215.971,-119.667 219.637,-116 223.304,-116 223.304,-116 286.696,-116 286.696,-116 290.363,-116 294.029,-119.667 294.029,-123.333 294.029,-123.333 294.029,-130.667 294.029,-130.667 294.029,-134.333 290.363,-138 286.696,-138"/>
<text text-anchor="middle" x="255" y="-123.4" font-family="Helvetica,sans-Serif" font-size="12.00" fill="white">__ArrayType</text>
</a>
</g>
</g>
<!-- CollectionType&#45;&gt;__ArrayType -->
<g id="edge25" class="edge"><title>CollectionType&#45;&gt;__ArrayType</title>
<path fill="none" stroke="#cccccc" d="M467.48,-289.952C441.264,-271.714 384.434,-231.736 338,-196 316,-179.069 291.488,-158.807 274.843,-144.829"/>
<polygon fill="#cccccc" stroke="#cccccc" points="276.813,-141.912 266.911,-138.144 272.301,-147.265 276.813,-141.912"/>
</g>
<!-- CustomDebugStringConvertible -->
<g id="node4" class="node"><title>CustomDebugStringConvertible</title>
<g id="a_node4"><a xlink:href="/protocol/CustomDebugStringConvertible/" xlink:title="CustomDebugStringConvertible">
<path fill="#999999" stroke="#999999" d="M1038.73,-80C1038.73,-80 875.27,-80 875.27,-80 871.604,-80 867.937,-76.3333 867.937,-72.6667 867.937,-72.6667 867.937,-65.3333 867.937,-65.3333 867.937,-61.6667 871.604,-58 875.27,-58 875.27,-58 1038.73,-58 1038.73,-58 1042.4,-58 1046.06,-61.6667 1046.06,-65.3333 1046.06,-65.3333 1046.06,-72.6667 1046.06,-72.6667 1046.06,-76.3333 1042.4,-80 1038.73,-80"/>
<text text-anchor="middle" x="957" y="-65.4" font-family="Helvetica,sans-Serif" font-size="12.00" fill="white">CustomDebugStringConvertible</text>
</a>
</g>
</g>
<!-- CustomDebugStringConvertible&#45;&gt;Array&lt;T&gt; -->
<g id="edge17" class="edge"><title>CustomDebugStringConvertible&#45;&gt;Array&lt;T&gt;</title>
<path fill="none" stroke="#cccccc" d="M901.578,-57.9883C839.897,-46.846 741.733,-29.113 687.074,-19.2392"/>
<polygon fill="#cccccc" stroke="#cccccc" points="687.533,-15.7655 677.07,-17.432 686.288,-22.654 687.533,-15.7655"/>
</g>
<!-- CustomStringConvertible -->
<g id="node5" class="node"><title>CustomStringConvertible</title>
<g id="a_node5"><a xlink:href="/protocol/CustomStringConvertible/" xlink:title="CustomStringConvertible">
<path fill="#999999" stroke="#999999" d="M1200.21,-80C1200.21,-80 1071.79,-80 1071.79,-80 1068.13,-80 1064.46,-76.3333 1064.46,-72.6667 1064.46,-72.6667 1064.46,-65.3333 1064.46,-65.3333 1064.46,-61.6667 1068.13,-58 1071.79,-58 1071.79,-58 1200.21,-58 1200.21,-58 1203.87,-58 1207.54,-61.6667 1207.54,-65.3333 1207.54,-65.3333 1207.54,-72.6667 1207.54,-72.6667 1207.54,-76.3333 1203.87,-80 1200.21,-80"/>
<text text-anchor="middle" x="1136" y="-65.4" font-family="Helvetica,sans-Serif" font-size="12.00" fill="white">CustomStringConvertible</text>
</a>
</g>
</g>
<!-- CustomStringConvertible&#45;&gt;Array&lt;T&gt; -->
<g id="edge16" class="edge"><title>CustomStringConvertible&#45;&gt;Array&lt;T&gt;</title>
<path fill="none" stroke="#cccccc" d="M1064.45,-59.1252C1061.26,-58.7422 1058.1,-58.3656 1055,-58 920.394,-42.1033 760.655,-24.4434 687.381,-16.4098"/>
<polygon fill="#cccccc" stroke="#cccccc" points="687.533,-12.9055 677.211,-15.2957 686.771,-19.8639 687.533,-12.9055"/>
</g>
<!-- ExtensibleCollectionType&#45;&gt;Array&lt;T&gt; -->
<g id="edge14" class="edge"><title>ExtensibleCollectionType&#45;&gt;Array&lt;T&gt;</title>
<path fill="none" stroke="#cccccc" d="M443.882,-173.867C463.022,-165.537 489.709,-152.737 511,-138 523.802,-129.139 594.943,-61.6945 628.923,-29.2848"/>
<polygon fill="#cccccc" stroke="#cccccc" points="631.513,-31.6507 636.329,-22.2138 626.679,-26.5875 631.513,-31.6507"/>
</g>
<!-- RangeReplaceableCollectionType -->
<g id="node9" class="node"><title>RangeReplaceableCollectionType</title>
<g id="a_node9"><a xlink:href="/protocol/RangeReplaceableCollectionType/" xlink:title="RangeReplaceableCollectionType">
<path fill="#999999" stroke="#999999" d="M494.76,-138C494.76,-138 319.24,-138 319.24,-138 315.573,-138 311.906,-134.333 311.906,-130.667 311.906,-130.667 311.906,-123.333 311.906,-123.333 311.906,-119.667 315.573,-116 319.24,-116 319.24,-116 494.76,-116 494.76,-116 498.427,-116 502.094,-119.667 502.094,-123.333 502.094,-123.333 502.094,-130.667 502.094,-130.667 502.094,-134.333 498.427,-138 494.76,-138"/>
<text text-anchor="middle" x="407" y="-123.4" font-family="Helvetica,sans-Serif" font-size="12.00" fill="white">RangeReplaceableCollectionType</text>
</a>
</g>
</g>
<!-- ExtensibleCollectionType&#45;&gt;RangeReplaceableCollectionType -->
<g id="edge30" class="edge"><title>ExtensibleCollectionType&#45;&gt;RangeReplaceableCollectionType</title>
<path fill="none" stroke="#cccccc" d="M416.855,-173.988C415.321,-166.831 413.205,-156.955 411.326,-148.189"/>
<polygon fill="#cccccc" stroke="#cccccc" points="414.726,-147.349 409.208,-138.304 407.881,-148.815 414.726,-147.349"/>
</g>
<!-- MutableCollectionType&#45;&gt;Array&lt;T&gt; -->
<g id="edge5" class="edge"><title>MutableCollectionType&#45;&gt;Array&lt;T&gt;</title>
<path fill="none" stroke="#cccccc" d="M575.709,-173.573C576.887,-159.972 579.868,-135.602 587,-116 598.682,-83.8948 619.999,-50.2701 633.826,-30.2313"/>
<polygon fill="#cccccc" stroke="#cccccc" points="636.701,-32.2278 639.59,-22.0345 630.975,-28.2011 636.701,-32.2278"/>
</g>
<!-- MutableSliceable -->
<g id="node8" class="node"><title>MutableSliceable</title>
<g id="a_node8"><a xlink:href="/protocol/MutableSliceable/" xlink:title="MutableSliceable">
<path fill="#999999" stroke="#999999" d="M690.208,-138C690.208,-138 603.792,-138 603.792,-138 600.126,-138 596.459,-134.333 596.459,-130.667 596.459,-130.667 596.459,-123.333 596.459,-123.333 596.459,-119.667 600.126,-116 603.792,-116 603.792,-116 690.208,-116 690.208,-116 693.874,-116 697.541,-119.667 697.541,-123.333 697.541,-123.333 697.541,-130.667 697.541,-130.667 697.541,-134.333 693.874,-138 690.208,-138"/>
<text text-anchor="middle" x="647" y="-123.4" font-family="Helvetica,sans-Serif" font-size="12.00" fill="white">MutableSliceable</text>
</a>
</g>
</g>
<!-- MutableCollectionType&#45;&gt;MutableSliceable -->
<g id="edge33" class="edge"><title>MutableCollectionType&#45;&gt;MutableSliceable</title>
<path fill="none" stroke="#cccccc" d="M587.872,-173.988C598.389,-165.809 613.472,-154.077 625.772,-144.511"/>
<polygon fill="#cccccc" stroke="#cccccc" points="628.007,-147.206 633.752,-138.304 623.71,-141.681 628.007,-147.206"/>
</g>
<!-- MutableSliceable&#45;&gt;Array&lt;T&gt; -->
<g id="edge12" class="edge"><title>MutableSliceable&#45;&gt;Array&lt;T&gt;</title>
<path fill="none" stroke="#cccccc" d="M647,-115.883C647,-97.1703 647,-56.8266 647,-32.2866"/>
<polygon fill="#cccccc" stroke="#cccccc" points="650.5,-32.2579 647,-22.2579 643.5,-32.258 650.5,-32.2579"/>
</g>
<!-- MutableSliceable&#45;&gt;_ArrayType -->
<g id="edge28" class="edge"><title>MutableSliceable&#45;&gt;_ArrayType</title>
<path fill="none" stroke="#cccccc" d="M604.093,-115.988C561.314,-106.006 495.866,-90.7354 452.274,-80.5638"/>
<polygon fill="#cccccc" stroke="#cccccc" points="453.039,-77.1486 442.506,-78.2846 451.449,-83.9655 453.039,-77.1486"/>
</g>
<!-- RangeReplaceableCollectionType&#45;&gt;Array&lt;T&gt; -->
<g id="edge13" class="edge"><title>RangeReplaceableCollectionType&#45;&gt;Array&lt;T&gt;</title>
<path fill="none" stroke="#cccccc" d="M420.884,-115.936C441.059,-101.643 480.011,-75.2842 516,-58 545.575,-43.7962 580.733,-31.6926 607.177,-23.4712"/>
<polygon fill="#cccccc" stroke="#cccccc" points="608.314,-26.7834 616.855,-20.514 606.269,-20.0889 608.314,-26.7834"/>
</g>
<!-- RangeReplaceableCollectionType&#45;&gt;_ArrayType -->
<g id="edge27" class="edge"><title>RangeReplaceableCollectionType&#45;&gt;_ArrayType</title>
<path fill="none" stroke="#cccccc" d="M407,-115.988C407,-108.91 407,-99.1714 407,-90.4779"/>
<polygon fill="#cccccc" stroke="#cccccc" points="410.5,-90.3038 407,-80.3039 403.5,-90.3039 410.5,-90.3038"/>
</g>
<!-- Reflectable -->
<g id="node10" class="node"><title>Reflectable</title>
<g id="a_node10"><a xlink:href="/protocol/Reflectable/" xlink:title="Reflectable">
<path fill="#999999" stroke="#999999" d="M1288.69,-80C1288.69,-80 1233.31,-80 1233.31,-80 1229.64,-80 1225.97,-76.3333 1225.97,-72.6667 1225.97,-72.6667 1225.97,-65.3333 1225.97,-65.3333 1225.97,-61.6667 1229.64,-58 1233.31,-58 1233.31,-58 1288.69,-58 1288.69,-58 1292.36,-58 1296.03,-61.6667 1296.03,-65.3333 1296.03,-65.3333 1296.03,-72.6667 1296.03,-72.6667 1296.03,-76.3333 1292.36,-80 1288.69,-80"/>
<text text-anchor="middle" x="1261" y="-65.4" font-family="Helvetica,sans-Serif" font-size="12.00" fill="white">Reflectable</text>
</a>
</g>
</g>
<!-- Reflectable&#45;&gt;Array&lt;T&gt; -->
<g id="edge15" class="edge"><title>Reflectable&#45;&gt;Array&lt;T&gt;</title>
<path fill="none" stroke="#cccccc" d="M1225.71,-59.6756C1222.44,-59.0496 1219.17,-58.4773 1216,-58 1019.02,-28.2959 780.581,-16.8787 687.225,-13.3441"/>
<polygon fill="#cccccc" stroke="#cccccc" points="687.211,-9.84129 677.089,-12.97 686.953,-16.8365 687.211,-9.84129"/>
</g>
<!-- SequenceType -->
<g id="node11" class="node"><title>SequenceType</title>
<g id="a_node11"><a xlink:href="/protocol/SequenceType/" xlink:title="SequenceType">
<path fill="#999999" stroke="#999999" d="M470.718,-428C470.718,-428 395.282,-428 395.282,-428 391.615,-428 387.949,-424.333 387.949,-420.667 387.949,-420.667 387.949,-413.333 387.949,-413.333 387.949,-409.667 391.615,-406 395.282,-406 395.282,-406 470.718,-406 470.718,-406 474.385,-406 478.051,-409.667 478.051,-413.333 478.051,-413.333 478.051,-420.667 478.051,-420.667 478.051,-424.333 474.385,-428 470.718,-428"/>
<text text-anchor="middle" x="433" y="-413.4" font-family="Helvetica,sans-Serif" font-size="12.00" fill="white">SequenceType</text>
</a>
</g>
</g>
<!-- SequenceType&#45;&gt;Array&lt;T&gt; -->
<g id="edge2" class="edge"><title>SequenceType&#45;&gt;Array&lt;T&gt;</title>
<path fill="none" stroke="#cccccc" d="M387.887,-413.691C276.985,-406.788 0,-381.582 0,-302 0,-302 0,-302 0,-126 0,-58.0232 71.5837,-76.481 137,-58 225.192,-33.0847 502.113,-18.4654 606.577,-13.7181"/>
<polygon fill="#cccccc" stroke="#cccccc" points="606.882,-17.2081 616.715,-13.2639 606.569,-10.2151 606.882,-17.2081"/>
</g>
<!-- SequenceType&#45;&gt;CollectionType -->
<g id="edge18" class="edge"><title>SequenceType&#45;&gt;CollectionType</title>
<path fill="none" stroke="#cccccc" d="M434.8,-405.986C437.458,-392.424 443.101,-367.653 452,-348 456.343,-338.408 462.522,-328.531 468.145,-320.4"/>
<polygon fill="#cccccc" stroke="#cccccc" points="471.137,-322.234 474.129,-312.071 465.452,-318.15 471.137,-322.234"/>
</g>
<!-- _CollectionDefaultsType -->
<g id="node14" class="node"><title>_CollectionDefaultsType</title>
<g id="a_node14"><a xlink:href="/protocol/_CollectionDefaultsType/" xlink:title="_CollectionDefaultsType">
<path fill="#999999" stroke="#999999" d="M593.224,-370C593.224,-370 468.776,-370 468.776,-370 465.109,-370 461.443,-366.333 461.443,-362.667 461.443,-362.667 461.443,-355.333 461.443,-355.333 461.443,-351.667 465.109,-348 468.776,-348 468.776,-348 593.224,-348 593.224,-348 596.891,-348 600.557,-351.667 600.557,-355.333 600.557,-355.333 600.557,-362.667 600.557,-362.667 600.557,-366.333 596.891,-370 593.224,-370"/>
<text text-anchor="middle" x="531" y="-355.4" font-family="Helvetica,sans-Serif" font-size="12.00" fill="white">_CollectionDefaultsType</text>
</a>
</g>
</g>
<!-- SequenceType&#45;&gt;_CollectionDefaultsType -->
<g id="edge21" class="edge"><title>SequenceType&#45;&gt;_CollectionDefaultsType</title>
<path fill="none" stroke="#cccccc" d="M450.52,-405.988C465.478,-397.441 487.223,-385.015 504.34,-375.234"/>
<polygon fill="#cccccc" stroke="#cccccc" points="506.355,-378.114 513.301,-370.114 502.882,-372.036 506.355,-378.114"/>
</g>
<!-- Sliceable -->
<g id="node12" class="node"><title>Sliceable</title>
<g id="a_node12"><a xlink:href="/protocol/Sliceable/" xlink:title="Sliceable">
<path fill="#999999" stroke="#999999" d="M722.691,-196C722.691,-196 679.309,-196 679.309,-196 675.642,-196 671.975,-192.333 671.975,-188.667 671.975,-188.667 671.975,-181.333 671.975,-181.333 671.975,-177.667 675.642,-174 679.309,-174 679.309,-174 722.691,-174 722.691,-174 726.358,-174 730.025,-177.667 730.025,-181.333 730.025,-181.333 730.025,-188.667 730.025,-188.667 730.025,-192.333 726.358,-196 722.691,-196"/>
<text text-anchor="middle" x="701" y="-181.4" font-family="Helvetica,sans-Serif" font-size="12.00" fill="white">Sliceable</text>
</a>
</g>
</g>
<!-- Sliceable&#45;&gt;Array&lt;T&gt; -->
<g id="edge6" class="edge"><title>Sliceable&#45;&gt;Array&lt;T&gt;</title>
<path fill="none" stroke="#cccccc" d="M703.828,-173.669C707.057,-160.173 711.256,-135.915 706,-116 697.364,-83.2771 675.799,-50.0539 661.275,-30.2389"/>
<polygon fill="#cccccc" stroke="#cccccc" points="663.98,-28.0122 655.169,-22.1282 658.388,-32.2224 663.98,-28.0122"/>
</g>
<!-- Sliceable&#45;&gt;MutableSliceable -->
<g id="edge32" class="edge"><title>Sliceable&#45;&gt;MutableSliceable</title>
<path fill="none" stroke="#cccccc" d="M691.346,-173.988C683.762,-166.123 673.011,-154.974 663.994,-145.624"/>
<polygon fill="#cccccc" stroke="#cccccc" points="666.397,-143.073 656.936,-138.304 661.358,-147.932 666.397,-143.073"/>
</g>
<!-- _ArrayType&#45;&gt;Array&lt;T&gt; -->
<g id="edge11" class="edge"><title>_ArrayType&#45;&gt;Array&lt;T&gt;</title>
<path fill="none" stroke="#cccccc" d="M442.413,-59.737C486.295,-49.4977 560.884,-32.0938 606.851,-21.3682"/>
<polygon fill="#cccccc" stroke="#cccccc" points="607.82,-24.736 616.763,-19.0552 606.23,-17.9191 607.82,-24.736"/>
</g>
<!-- _CollectionDefaultsType&#45;&gt;Array&lt;T&gt; -->
<g id="edge3" class="edge"><title>_CollectionDefaultsType&#45;&gt;Array&lt;T&gt;</title>
<path fill="none" stroke="#cccccc" d="M593.531,-347.974C683.821,-331.701 840,-296.034 840,-244 840,-244 840,-244 840,-126 840,-55.66 743.787,-27.8173 687.224,-17.5264"/>
<polygon fill="#cccccc" stroke="#cccccc" points="687.603,-14.0405 677.156,-15.8029 686.422,-20.9402 687.603,-14.0405"/>
</g>
<!-- _CollectionDefaultsType&#45;&gt;CollectionType -->
<g id="edge19" class="edge"><title>_CollectionDefaultsType&#45;&gt;CollectionType</title>
<path fill="none" stroke="#cccccc" d="M522.24,-347.988C515.427,-340.202 505.797,-329.197 497.667,-319.905"/>
<polygon fill="#cccccc" stroke="#cccccc" points="500.235,-317.525 491.016,-312.304 494.967,-322.134 500.235,-317.525"/>
</g>
<!-- _CollectionGeneratorDefaultsType -->
<g id="node15" class="node"><title>_CollectionGeneratorDefaultsType</title>
<g id="a_node15"><a xlink:href="/protocol/_CollectionGeneratorDefaultsType/" xlink:title="_CollectionGeneratorDefaultsType">
<path fill="#999999" stroke="#999999" d="M306.246,-370C306.246,-370 127.754,-370 127.754,-370 124.087,-370 120.421,-366.333 120.421,-362.667 120.421,-362.667 120.421,-355.333 120.421,-355.333 120.421,-351.667 124.087,-348 127.754,-348 127.754,-348 306.246,-348 306.246,-348 309.913,-348 313.579,-351.667 313.579,-355.333 313.579,-355.333 313.579,-362.667 313.579,-362.667 313.579,-366.333 309.913,-370 306.246,-370"/>
<text text-anchor="middle" x="217" y="-355.4" font-family="Helvetica,sans-Serif" font-size="12.00" fill="white">_CollectionGeneratorDefaultsType</text>
</a>
</g>
</g>
<!-- _CollectionGeneratorDefaultsType&#45;&gt;Array&lt;T&gt; -->
<g id="edge4" class="edge"><title>_CollectionGeneratorDefaultsType&#45;&gt;Array&lt;T&gt;</title>
<path fill="none" stroke="#cccccc" d="M164.745,-347.948C111.91,-334.396 38,-304.608 38,-244 38,-244 38,-244 38,-126 38,-67.9479 471.058,-26.7374 606.808,-15.2453"/>
<polygon fill="#cccccc" stroke="#cccccc" points="607.127,-18.731 616.8,-14.4079 606.542,-11.7554 607.127,-18.731"/>
</g>
<!-- _CollectionGeneratorDefaultsType&#45;&gt;CollectionType -->
<g id="edge20" class="edge"><title>_CollectionGeneratorDefaultsType&#45;&gt;CollectionType</title>
<path fill="none" stroke="#cccccc" d="M264.377,-347.988C310.243,-338.296 379.708,-323.617 427.764,-313.461"/>
<polygon fill="#cccccc" stroke="#cccccc" points="428.617,-316.858 437.678,-311.366 427.17,-310.009 428.617,-316.858"/>
</g>
<!-- _DestructorSafeContainer -->
<g id="node16" class="node"><title>_DestructorSafeContainer</title>
<g id="a_node16"><a xlink:href="/protocol/_DestructorSafeContainer/" xlink:title="_DestructorSafeContainer">
<path fill="#999999" stroke="#999999" d="M1454.72,-80C1454.72,-80 1321.28,-80 1321.28,-80 1317.61,-80 1313.95,-76.3333 1313.95,-72.6667 1313.95,-72.6667 1313.95,-65.3333 1313.95,-65.3333 1313.95,-61.6667 1317.61,-58 1321.28,-58 1321.28,-58 1454.72,-58 1454.72,-58 1458.39,-58 1462.05,-61.6667 1462.05,-65.3333 1462.05,-65.3333 1462.05,-72.6667 1462.05,-72.6667 1462.05,-76.3333 1458.39,-80 1454.72,-80"/>
<text text-anchor="middle" x="1388" y="-65.4" font-family="Helvetica,sans-Serif" font-size="12.00" fill="white">_DestructorSafeContainer</text>
</a>
</g>
</g>
<!-- _DestructorSafeContainer&#45;&gt;Array&lt;T&gt; -->
<g id="edge8" class="edge"><title>_DestructorSafeContainer&#45;&gt;Array&lt;T&gt;</title>
<path fill="none" stroke="#cccccc" d="M1313.81,-58.8745C1310.83,-58.5679 1307.89,-58.2749 1305,-58 1071.58,-35.7936 790.618,-19.6827 687.485,-14.1224"/>
<polygon fill="#cccccc" stroke="#cccccc" points="687.387,-10.6122 677.214,-13.5719 687.012,-17.6022 687.387,-10.6122"/>
</g>
<!-- _Sliceable&#45;&gt;Array&lt;T&gt; -->
<g id="edge7" class="edge"><title>_Sliceable&#45;&gt;Array&lt;T&gt;</title>
<path fill="none" stroke="#cccccc" d="M713.184,-231.702C722.242,-223.192 733.882,-210.231 739,-196 742.309,-186.799 740.389,-183.679 739,-174 731.292,-120.299 731.914,-102.581 701,-58 693.105,-46.6147 681.721,-36.3525 671.438,-28.4251"/>
<polygon fill="#cccccc" stroke="#cccccc" points="673.292,-25.4437 663.161,-22.3418 669.146,-31.0842 673.292,-25.4437"/>
</g>
<!-- _Sliceable&#45;&gt;Sliceable -->
<g id="edge23" class="edge"><title>_Sliceable&#45;&gt;Sliceable</title>
<path fill="none" stroke="#cccccc" d="M701,-231.988C701,-224.91 701,-215.171 701,-206.478"/>
<polygon fill="#cccccc" stroke="#cccccc" points="704.5,-206.304 701,-196.304 697.5,-206.304 704.5,-206.304"/>
</g>
<!-- __ArrayType&#45;&gt;Array&lt;T&gt; -->
<g id="edge9" class="edge"><title>__ArrayType&#45;&gt;Array&lt;T&gt;</title>
<path fill="none" stroke="#cccccc" d="M267.266,-115.805C286.27,-100.594 324.553,-72.2268 362,-58 445.189,-26.3951 550.082,-16.5028 606.553,-13.4079"/>
<polygon fill="#cccccc" stroke="#cccccc" points="607.038,-16.888 616.85,-12.8902 606.687,-9.89686 607.038,-16.888"/>
</g>
<!-- __ArrayType&#45;&gt;_ArrayType -->
<g id="edge26" class="edge"><title>__ArrayType&#45;&gt;_ArrayType</title>
<path fill="none" stroke="#cccccc" d="M282.175,-115.988C306.739,-106.938 343.106,-93.5399 370.258,-83.5367"/>
<polygon fill="#cccccc" stroke="#cccccc" points="371.631,-86.7606 379.805,-80.0192 369.211,-80.1922 371.631,-86.7606"/>
</g>
</g>
</svg>
