<?xml version="1.0" encoding="UTF-8" standalone="no"?>
<!DOCTYPE svg PUBLIC "-//W3C//DTD SVG 1.1//EN"
 "http://www.w3.org/Graphics/SVG/1.1/DTD/svg11.dtd">
<!-- Generated by graphviz version 2.36.0 (20140111.2315)
 -->
<!-- Title: UnicodeScalar &#45; Type Hierarchy &#45; SwiftDoc.org Pages: 1 -->
<svg width="730pt" height="253pt"
 viewBox="0.00 0.00 730.40 253.20" xmlns="http://www.w3.org/2000/svg" xmlns:xlink="http://www.w3.org/1999/xlink">
<g id="graph0" class="graph" transform="scale(1 1) rotate(0) translate(7.2 195.6)">
<title>UnicodeScalar &#45; Type Hierarchy &#45; SwiftDoc.org</title>
<polygon fill="white" stroke="none" points="-7.2,57.6 -7.2,-195.6 723.2,-195.6 723.2,57.6 -7.2,57.6"/>
<!-- Comparable -->
<g id="node1" class="node"><title>Comparable</title>
<g id="a_node1"><a xlink:href="/protocol/Comparable/" xlink:title="Comparable">
<path fill="#999999" stroke="#999999" d="M178.191,-80C178.191,-80 117.809,-80 117.809,-80 114.142,-80 110.475,-76.3333 110.475,-72.6667 110.475,-72.6667 110.475,-65.3333 110.475,-65.3333 110.475,-61.6667 114.142,-58 117.809,-58 117.809,-58 178.191,-58 178.191,-58 181.858,-58 185.525,-61.6667 185.525,-65.3333 185.525,-65.3333 185.525,-72.6667 185.525,-72.6667 185.525,-76.3333 181.858,-80 178.191,-80"/>
<text text-anchor="middle" x="148" y="-65.4" font-family="Helvetica,sans-Serif" font-size="12.00" fill="white">Comparable</text>
</a>
</g>
</g>
<!-- UnicodeScalar -->
<g id="node8" class="node"><title>UnicodeScalar</title>
<g id="a_node8"><a xlink:href="/type/UnicodeScalar/" xlink:title="UnicodeScalar">
<polygon fill="#ee543d" stroke="#ee543d" points="355.031,-22 266.969,-22 266.969,-0 355.031,-0 355.031,-22"/>
<text text-anchor="middle" x="311" y="-7.4" font-family="Helvetica,sans-Serif" font-size="12.00" fill="white">UnicodeScalar</text>
</a>
</g>
</g>
<!-- Comparable&#45;&gt;UnicodeScalar -->
<g id="edge7" class="edge"><title>Comparable&#45;&gt;UnicodeScalar</title>
<path fill="none" stroke="#cccccc" d="M177.141,-57.9883C203.715,-48.8587 243.167,-35.3046 272.362,-25.2743"/>
<polygon fill="#cccccc" stroke="#cccccc" points="273.517,-28.5786 281.837,-22.0192 271.242,-21.9584 273.517,-28.5786"/>
</g>
<!-- DebugPrintable -->
<g id="node2" class="node"><title>DebugPrintable</title>
<g id="a_node2"><a xlink:href="/protocol/DebugPrintable/" xlink:title="DebugPrintable">
<path fill="#999999" stroke="#999999" d="M84.7096,-80C84.7096,-80 7.29039,-80 7.29039,-80 3.62372,-80 -0.0429445,-76.3333 -0.0429445,-72.6667 -0.0429445,-72.6667 -0.0429445,-65.3333 -0.0429445,-65.3333 -0.0429445,-61.6667 3.62372,-58 7.29039,-58 7.29039,-58 84.7096,-58 84.7096,-58 88.3763,-58 92.0429,-61.6667 92.0429,-65.3333 92.0429,-65.3333 92.0429,-72.6667 92.0429,-72.6667 92.0429,-76.3333 88.3763,-80 84.7096,-80"/>
<text text-anchor="middle" x="46" y="-65.4" font-family="Helvetica,sans-Serif" font-size="12.00" fill="white">DebugPrintable</text>
</a>
</g>
</g>
<!-- DebugPrintable&#45;&gt;UnicodeScalar -->
<g id="edge5" class="edge"><title>DebugPrintable&#45;&gt;UnicodeScalar</title>
<path fill="none" stroke="#cccccc" d="M92.1595,-58.2455C137.984,-48.5619 208.212,-33.7213 256.693,-23.4762"/>
<polygon fill="#cccccc" stroke="#cccccc" points="257.631,-26.8553 266.692,-21.3633 256.184,-20.0065 257.631,-26.8553"/>
</g>
<!-- Equatable -->
<g id="node3" class="node"><title>Equatable</title>
<g id="a_node3"><a xlink:href="/protocol/Equatable/" xlink:title="Equatable">
<path fill="#999999" stroke="#999999" d="M258.702,-138C258.702,-138 209.298,-138 209.298,-138 205.632,-138 201.965,-134.333 201.965,-130.667 201.965,-130.667 201.965,-123.333 201.965,-123.333 201.965,-119.667 205.632,-116 209.298,-116 209.298,-116 258.702,-116 258.702,-116 262.368,-116 266.035,-119.667 266.035,-123.333 266.035,-123.333 266.035,-130.667 266.035,-130.667 266.035,-134.333 262.368,-138 258.702,-138"/>
<text text-anchor="middle" x="234" y="-123.4" font-family="Helvetica,sans-Serif" font-size="12.00" fill="white">Equatable</text>
</a>
</g>
</g>
<!-- Equatable&#45;&gt;Comparable -->
<g id="edge10" class="edge"><title>Equatable&#45;&gt;Comparable</title>
<path fill="none" stroke="#cccccc" d="M218.625,-115.988C205.742,-107.599 187.121,-95.4743 172.234,-85.7804"/>
<polygon fill="#cccccc" stroke="#cccccc" points="173.822,-82.6376 163.532,-80.1138 170.002,-88.5036 173.822,-82.6376"/>
</g>
<!-- Hashable -->
<g id="node4" class="node"><title>Hashable</title>
<g id="a_node4"><a xlink:href="/protocol/Hashable/" xlink:title="Hashable">
<path fill="#999999" stroke="#999999" d="M256.694,-80C256.694,-80 211.306,-80 211.306,-80 207.639,-80 203.973,-76.3333 203.973,-72.6667 203.973,-72.6667 203.973,-65.3333 203.973,-65.3333 203.973,-61.6667 207.639,-58 211.306,-58 211.306,-58 256.694,-58 256.694,-58 260.361,-58 264.027,-61.6667 264.027,-65.3333 264.027,-65.3333 264.027,-72.6667 264.027,-72.6667 264.027,-76.3333 260.361,-80 256.694,-80"/>
<text text-anchor="middle" x="234" y="-65.4" font-family="Helvetica,sans-Serif" font-size="12.00" fill="white">Hashable</text>
</a>
</g>
</g>
<!-- Equatable&#45;&gt;Hashable -->
<g id="edge8" class="edge"><title>Equatable&#45;&gt;Hashable</title>
<path fill="none" stroke="#cccccc" d="M234,-115.988C234,-108.91 234,-99.1714 234,-90.4779"/>
<polygon fill="#cccccc" stroke="#cccccc" points="237.5,-90.3038 234,-80.3039 230.5,-90.3039 237.5,-90.3038"/>
</g>
<!-- Hashable&#45;&gt;UnicodeScalar -->
<g id="edge6" class="edge"><title>Hashable&#45;&gt;UnicodeScalar</title>
<path fill="none" stroke="#cccccc" d="M247.766,-57.9883C259.192,-49.6784 275.659,-37.7028 288.924,-28.0554"/>
<polygon fill="#cccccc" stroke="#cccccc" points="291.065,-30.8262 297.094,-22.1138 286.948,-25.165 291.065,-30.8262"/>
</g>
<!-- Printable -->
<g id="node5" class="node"><title>Printable</title>
<g id="a_node5"><a xlink:href="/protocol/Printable/" xlink:title="Printable">
<path fill="#999999" stroke="#999999" d="M332.187,-80C332.187,-80 289.813,-80 289.813,-80 286.147,-80 282.48,-76.3333 282.48,-72.6667 282.48,-72.6667 282.48,-65.3333 282.48,-65.3333 282.48,-61.6667 286.147,-58 289.813,-58 289.813,-58 332.187,-58 332.187,-58 335.853,-58 339.52,-61.6667 339.52,-65.3333 339.52,-65.3333 339.52,-72.6667 339.52,-72.6667 339.52,-76.3333 335.853,-80 332.187,-80"/>
<text text-anchor="middle" x="311" y="-65.4" font-family="Helvetica,sans-Serif" font-size="12.00" fill="white">Printable</text>
</a>
</g>
</g>
<!-- Printable&#45;&gt;UnicodeScalar -->
<g id="edge4" class="edge"><title>Printable&#45;&gt;UnicodeScalar</title>
<path fill="none" stroke="#cccccc" d="M311,-57.9883C311,-50.9098 311,-41.1714 311,-32.4779"/>
<polygon fill="#cccccc" stroke="#cccccc" points="314.5,-32.3038 311,-22.3039 307.5,-32.3039 314.5,-32.3038"/>
</g>
<!-- Reflectable -->
<g id="node6" class="node"><title>Reflectable</title>
<g id="a_node6"><a xlink:href="/protocol/Reflectable/" xlink:title="Reflectable">
<path fill="#999999" stroke="#999999" d="M420.693,-80C420.693,-80 365.307,-80 365.307,-80 361.64,-80 357.974,-76.3333 357.974,-72.6667 357.974,-72.6667 357.974,-65.3333 357.974,-65.3333 357.974,-61.6667 361.64,-58 365.307,-58 365.307,-58 420.693,-58 420.693,-58 424.36,-58 428.026,-61.6667 428.026,-65.3333 428.026,-65.3333 428.026,-72.6667 428.026,-72.6667 428.026,-76.3333 424.36,-80 420.693,-80"/>
<text text-anchor="middle" x="393" y="-65.4" font-family="Helvetica,sans-Serif" font-size="12.00" fill="white">Reflectable</text>
</a>
</g>
</g>
<!-- Reflectable&#45;&gt;UnicodeScalar -->
<g id="edge2" class="edge"><title>Reflectable&#45;&gt;UnicodeScalar</title>
<path fill="none" stroke="#cccccc" d="M378.34,-57.9883C366.056,-49.5993 348.302,-37.4743 334.107,-27.7804"/>
<polygon fill="#cccccc" stroke="#cccccc" points="336.041,-24.8632 325.81,-22.1138 332.094,-30.6438 336.041,-24.8632"/>
</g>
<!-- Streamable -->
<g id="node7" class="node"><title>Streamable</title>
<g id="a_node7"><a xlink:href="/protocol/Streamable/" xlink:title="Streamable">
<path fill="#999999" stroke="#999999" d="M510.19,-80C510.19,-80 453.81,-80 453.81,-80 450.144,-80 446.477,-76.3333 446.477,-72.6667 446.477,-72.6667 446.477,-65.3333 446.477,-65.3333 446.477,-61.6667 450.144,-58 453.81,-58 453.81,-58 510.19,-58 510.19,-58 513.856,-58 517.523,-61.6667 517.523,-65.3333 517.523,-65.3333 517.523,-72.6667 517.523,-72.6667 517.523,-76.3333 513.856,-80 510.19,-80"/>
<text text-anchor="middle" x="482" y="-65.4" font-family="Helvetica,sans-Serif" font-size="12.00" fill="white">Streamable</text>
</a>
</g>
</g>
<!-- Streamable&#45;&gt;UnicodeScalar -->
<g id="edge3" class="edge"><title>Streamable&#45;&gt;UnicodeScalar</title>
<path fill="none" stroke="#cccccc" d="M451.429,-57.9883C423.43,-48.819 381.802,-35.1866 351.135,-25.1436"/>
<polygon fill="#cccccc" stroke="#cccccc" points="352.187,-21.8054 341.594,-22.0192 350.009,-28.4577 352.187,-21.8054"/>
</g>
<!-- UnicodeScalarLiteralConvertible -->
<g id="node9" class="node"><title>UnicodeScalarLiteralConvertible</title>
<g id="a_node9"><a xlink:href="/protocol/UnicodeScalarLiteralConvertible/" xlink:title="UnicodeScalarLiteralConvertible">
<path fill="#999999" stroke="#999999" d="M709.233,-80C709.233,-80 542.767,-80 542.767,-80 539.101,-80 535.434,-76.3333 535.434,-72.6667 535.434,-72.6667 535.434,-65.3333 535.434,-65.3333 535.434,-61.6667 539.101,-58 542.767,-58 542.767,-58 709.233,-58 709.233,-58 712.899,-58 716.566,-61.6667 716.566,-65.3333 716.566,-65.3333 716.566,-72.6667 716.566,-72.6667 716.566,-76.3333 712.899,-80 709.233,-80"/>
<text text-anchor="middle" x="626" y="-65.4" font-family="Helvetica,sans-Serif" font-size="12.00" fill="white">UnicodeScalarLiteralConvertible</text>
</a>
</g>
</g>
<!-- UnicodeScalarLiteralConvertible&#45;&gt;UnicodeScalar -->
<g id="edge1" class="edge"><title>UnicodeScalarLiteralConvertible&#45;&gt;UnicodeScalar</title>
<path fill="none" stroke="#cccccc" d="M569.684,-57.9883C511.756,-47.69 422.159,-31.7617 365.067,-21.612"/>
<polygon fill="#cccccc" stroke="#cccccc" points="365.608,-18.1532 355.149,-19.8488 364.382,-25.0451 365.608,-18.1532"/>
</g>
<!-- _Comparable -->
<g id="node10" class="node"><title>_Comparable</title>
<g id="a_node10"><a xlink:href="/protocol/_Comparable/" xlink:title="_Comparable">
<path fill="#999999" stroke="#999999" d="M176.697,-138C176.697,-138 109.303,-138 109.303,-138 105.636,-138 101.969,-134.333 101.969,-130.667 101.969,-130.667 101.969,-123.333 101.969,-123.333 101.969,-119.667 105.636,-116 109.303,-116 109.303,-116 176.697,-116 176.697,-116 180.364,-116 184.031,-119.667 184.031,-123.333 184.031,-123.333 184.031,-130.667 184.031,-130.667 184.031,-134.333 180.364,-138 176.697,-138"/>
<text text-anchor="middle" x="143" y="-123.4" font-family="Helvetica,sans-Serif" font-size="12.00" fill="white">_Comparable</text>
</a>
</g>
</g>
<!-- _Comparable&#45;&gt;Comparable -->
<g id="edge9" class="edge"><title>_Comparable&#45;&gt;Comparable</title>
<path fill="none" stroke="#cccccc" d="M143.894,-115.988C144.526,-108.91 145.395,-99.1714 146.172,-90.4779"/>
<polygon fill="#cccccc" stroke="#cccccc" points="149.677,-90.5755 147.08,-80.3039 142.704,-89.953 149.677,-90.5755"/>
</g>
</g>
</svg>
