<?xml version="1.0" encoding="UTF-8" standalone="no"?>
<!DOCTYPE svg PUBLIC "-//W3C//DTD SVG 1.1//EN"
 "http://www.w3.org/Graphics/SVG/1.1/DTD/svg11.dtd">
<!-- Generated by graphviz version 2.36.0 (20140111.2315)
 -->
<!-- Title: CustomStringConvertible &#45; Type Hierarchy &#45; SwiftDoc.org Pages: 1 -->
<svg width="2985pt" height="369pt"
 viewBox="0.00 0.00 2985.40 369.20" xmlns="http://www.w3.org/2000/svg" xmlns:xlink="http://www.w3.org/1999/xlink">
<g id="graph0" class="graph" transform="scale(1 1) rotate(0) translate(7.2 311.6)">
<g transform="translate(0 -311.6)">
<g>
    <path fill="#666666" d="M13.846,10.832c-0.336-0.464-0.792-0.844-1.368-1.14s-1.224-0.444-1.944-0.444
        c-0.384,0-0.772,0.052-1.164,0.156C8.977,9.509,8.622,9.677,8.301,9.908c-0.32,0.232-0.58,0.52-0.78,0.864
        c-0.2,0.344-0.3,0.756-0.3,1.236c0,0.464,0.092,0.852,0.276,1.164c0.184,0.312,0.432,0.576,0.744,0.792s0.68,0.4,1.104,0.552
        c0.423,0.152,0.876,0.309,1.356,0.468c0.576,0.177,1.16,0.376,1.752,0.601c0.592,0.224,1.128,0.52,1.608,0.888
        s0.872,0.828,1.176,1.38s0.456,1.252,0.456,2.101c0,0.88-0.164,1.644-0.492,2.292c-0.328,0.647-0.765,1.184-1.308,1.607
        c-0.544,0.424-1.172,0.74-1.884,0.948s-1.444,0.312-2.196,0.312c-1.072,0-2.108-0.208-3.108-0.624
        c-1-0.415-1.828-1.031-2.484-1.848l1.848-1.56c0.4,0.592,0.936,1.071,1.608,1.439c0.672,0.368,1.399,0.552,2.184,0.552
        c0.4,0,0.8-0.056,1.2-0.168c0.4-0.111,0.764-0.288,1.092-0.527c0.328-0.24,0.596-0.54,0.804-0.9
        c0.208-0.36,0.312-0.796,0.312-1.308s-0.108-0.94-0.324-1.284c-0.216-0.344-0.508-0.636-0.876-0.876s-0.796-0.444-1.284-0.612
        c-0.488-0.168-1.004-0.34-1.548-0.516c-0.544-0.16-1.08-0.356-1.608-0.588c-0.528-0.232-1-0.528-1.416-0.889
        c-0.416-0.359-0.752-0.804-1.008-1.332c-0.256-0.527-0.384-1.184-0.384-1.968c0-0.848,0.172-1.576,0.516-2.184
        c0.344-0.608,0.792-1.112,1.344-1.512c0.552-0.4,1.176-0.692,1.872-0.876c0.696-0.184,1.396-0.276,2.1-0.276
        c0.992,0,1.92,0.176,2.784,0.528c0.864,0.352,1.56,0.824,2.088,1.416L13.846,10.832z"/>
    <path fill="#666666" d="M18.813,13.304l2.568,8.688h0.048l2.712-8.688h2.376l2.76,8.688h0.048l2.568-8.688h2.376L30.501,24.68
        h-2.352l-2.808-8.544h-0.048l-2.784,8.544h-2.352l-3.792-11.376H18.813z"/>
    <path fill="#666666" d="M38.685,9.2c0,0.416-0.147,0.76-0.44,1.032c-0.294,0.272-0.647,0.408-1.06,0.408s-0.762-0.14-1.047-0.42
        c-0.286-0.28-0.429-0.62-0.429-1.02c0-0.416,0.143-0.764,0.429-1.044c0.286-0.28,0.635-0.42,1.047-0.42s0.766,0.14,1.06,0.42
        C38.538,8.437,38.685,8.784,38.685,9.2z M38.325,24.68h-2.256V13.304h2.256V24.68z"/>
    <path fill="#666666" d="M47.613,15.152h-2.64v9.528h-2.256v-9.528h-2.256v-1.848h2.256v-2.376c0-0.672,0.076-1.292,0.228-1.86
        c0.152-0.568,0.4-1.06,0.744-1.476c0.344-0.416,0.784-0.744,1.32-0.984c0.536-0.24,1.188-0.36,1.956-0.36
        c0.544,0,1.016,0.056,1.416,0.168l-0.264,1.944c-0.176-0.048-0.352-0.088-0.528-0.12c-0.176-0.032-0.376-0.048-0.6-0.048
        c-0.432,0-0.78,0.076-1.044,0.228c-0.264,0.152-0.468,0.356-0.612,0.612s-0.24,0.548-0.288,0.876
        c-0.048,0.328-0.072,0.668-0.072,1.02v2.376h2.64V15.152z"/>
    <path fill="#666666" d="M54.909,15.152h-3.024v5.91c0,0.687,0.128,1.177,0.384,1.472c0.256,0.295,0.664,0.442,1.224,0.442
        c0.208,0,0.432-0.021,0.672-0.065c0.24-0.044,0.456-0.11,0.648-0.198l0.072,1.848c-0.272,0.096-0.572,0.172-0.9,0.229
        c-0.328,0.056-0.668,0.084-1.02,0.084c-1.072,0-1.892-0.296-2.46-0.889c-0.568-0.592-0.852-1.479-0.852-2.664v-6.168h-2.184
        v-1.848h2.184V10.04h2.232v3.264h3.024V15.152z"/>
    <path fill="#666666" d="M57.356,7.688h5.832c1.088,0,2.176,0.16,3.264,0.48c1.088,0.32,2.072,0.824,2.952,1.512
        s1.592,1.568,2.136,2.64c0.544,1.072,0.816,2.36,0.816,3.864c0,1.456-0.272,2.716-0.816,3.78s-1.256,1.943-2.136,2.64
        s-1.864,1.216-2.952,1.561c-1.088,0.344-2.176,0.516-3.264,0.516h-5.832V7.688z M59.732,22.593h2.976
        c1.024,0,1.972-0.145,2.844-0.432c0.872-0.288,1.624-0.704,2.256-1.248c0.632-0.544,1.124-1.216,1.476-2.017
        c0.352-0.8,0.528-1.704,0.528-2.712c0-1.056-0.176-1.983-0.528-2.784c-0.353-0.8-0.844-1.468-1.476-2.004
        c-0.632-0.536-1.384-0.944-2.256-1.224s-1.82-0.42-2.844-0.42h-2.976V22.593z"/>
    <path fill="#666666" d="M86.06,18.969c0,0.88-0.156,1.688-0.468,2.424c-0.312,0.736-0.744,1.372-1.296,1.908
        c-0.552,0.536-1.204,0.952-1.956,1.248c-0.752,0.296-1.56,0.443-2.424,0.443c-0.864,0-1.672-0.147-2.424-0.443
        c-0.752-0.296-1.4-0.712-1.944-1.248c-0.544-0.536-0.972-1.172-1.284-1.908c-0.312-0.735-0.468-1.544-0.468-2.424
        s0.156-1.684,0.468-2.412c0.312-0.728,0.74-1.356,1.284-1.884c0.543-0.528,1.191-0.939,1.944-1.236
        c0.752-0.296,1.56-0.444,2.424-0.444c0.864,0,1.672,0.148,2.424,0.444c0.752,0.297,1.404,0.708,1.956,1.236
        c0.552,0.527,0.984,1.156,1.296,1.884C85.904,17.285,86.06,18.089,86.06,18.969z M83.708,18.98c0-0.542-0.084-1.061-0.252-1.556
        c-0.169-0.494-0.414-0.929-0.734-1.304s-0.718-0.674-1.192-0.897s-1.015-0.335-1.625-0.335c-0.61,0-1.152,0.111-1.625,0.335
        c-0.474,0.224-0.871,0.522-1.191,0.897c-0.321,0.375-0.566,0.81-0.734,1.304C76.184,17.92,76.1,18.438,76.1,18.98
        c0,0.543,0.084,1.062,0.253,1.556c0.168,0.495,0.413,0.934,0.734,1.316c0.321,0.383,0.718,0.686,1.191,0.909
        c0.473,0.224,1.015,0.335,1.625,0.335c0.61,0,1.151-0.111,1.625-0.335s0.871-0.526,1.192-0.909s0.565-0.821,0.734-1.316
        C83.624,20.042,83.708,19.523,83.708,18.98z"/>
    <path fill="#666666" d="M96.428,16.184c-0.24-0.368-0.6-0.676-1.08-0.924s-0.992-0.372-1.536-0.372
        c-0.592,0-1.116,0.112-1.572,0.336c-0.456,0.225-0.844,0.524-1.164,0.9c-0.32,0.376-0.564,0.812-0.732,1.308
        s-0.252,1.017-0.252,1.56c0,0.545,0.084,1.064,0.252,1.561s0.412,0.933,0.732,1.308c0.32,0.376,0.712,0.677,1.176,0.9
        c0.464,0.225,0.992,0.336,1.584,0.336c0.576,0,1.1-0.111,1.572-0.336c0.472-0.224,0.86-0.528,1.164-0.912l1.512,1.368
        c-0.48,0.561-1.08,0.996-1.8,1.308c-0.72,0.312-1.536,0.468-2.448,0.468c-0.88,0-1.692-0.144-2.436-0.432
        c-0.744-0.288-1.388-0.691-1.932-1.212c-0.544-0.52-0.972-1.147-1.284-1.884s-0.468-1.561-0.468-2.473
        c0-0.896,0.152-1.711,0.456-2.447c0.304-0.736,0.728-1.368,1.272-1.896c0.543-0.527,1.188-0.936,1.932-1.224
        c0.744-0.288,1.548-0.433,2.412-0.433c0.8,0,1.596,0.16,2.388,0.48s1.419,0.784,1.884,1.392L96.428,16.184z"/>
    <path fill="#666666" d="M103.1,23.24c0,0.417-0.152,0.784-0.456,1.104c-0.304,0.32-0.688,0.479-1.152,0.479
        c-0.448,0-0.828-0.155-1.14-0.468c-0.312-0.312-0.468-0.676-0.468-1.092c0-0.432,0.152-0.804,0.456-1.116
        c0.304-0.312,0.688-0.468,1.152-0.468c0.464,0,0.848,0.152,1.152,0.456C102.947,22.44,103.1,22.808,103.1,23.24z"/>
    <path fill="#666666" d="M116.635,18.969c0,0.88-0.156,1.688-0.468,2.424c-0.312,0.736-0.744,1.372-1.296,1.908
        c-0.552,0.536-1.204,0.952-1.956,1.248c-0.752,0.296-1.56,0.443-2.424,0.443c-0.864,0-1.672-0.147-2.424-0.443
        c-0.752-0.296-1.4-0.712-1.944-1.248c-0.544-0.536-0.972-1.172-1.284-1.908c-0.312-0.735-0.468-1.544-0.468-2.424
        s0.156-1.684,0.468-2.412c0.312-0.728,0.74-1.356,1.284-1.884c0.543-0.528,1.191-0.939,1.944-1.236
        c0.752-0.296,1.56-0.444,2.424-0.444c0.864,0,1.672,0.148,2.424,0.444c0.752,0.297,1.404,0.708,1.956,1.236
        c0.552,0.527,0.984,1.156,1.296,1.884C116.479,17.285,116.635,18.089,116.635,18.969z M114.283,18.98
        c0-0.542-0.084-1.061-0.252-1.556c-0.169-0.494-0.414-0.929-0.734-1.304s-0.718-0.674-1.192-0.897s-1.015-0.335-1.625-0.335
        c-0.61,0-1.152,0.111-1.625,0.335c-0.474,0.224-0.871,0.522-1.191,0.897c-0.321,0.375-0.566,0.81-0.734,1.304
        c-0.169,0.495-0.253,1.014-0.253,1.556c0,0.543,0.084,1.062,0.253,1.556c0.168,0.495,0.413,0.934,0.734,1.316
        c0.321,0.383,0.718,0.686,1.191,0.909c0.473,0.224,1.015,0.335,1.625,0.335c0.61,0,1.151-0.111,1.625-0.335
        s0.871-0.526,1.192-0.909s0.565-0.821,0.734-1.316C114.199,20.042,114.283,19.523,114.283,18.98z"/>
    <path fill="#666666" d="M119.251,14.577c-0.016-0.48-0.04-0.904-0.072-1.272h2.136c0.032,0.288,0.056,0.62,0.072,0.996
        c0.016,0.376,0.024,0.684,0.024,0.924h0.072c0.32-0.672,0.788-1.212,1.404-1.62c0.616-0.408,1.308-0.612,2.076-0.612
        c0.352,0,0.648,0.033,0.888,0.097l-0.096,2.088c-0.32-0.08-0.664-0.12-1.032-0.12c-0.544,0-1.016,0.101-1.416,0.3
        c-0.4,0.2-0.732,0.468-0.996,0.805c-0.264,0.336-0.46,0.724-0.588,1.163c-0.128,0.44-0.192,0.9-0.192,1.381v5.976h-2.256v-8.928
        C119.275,15.449,119.267,15.056,119.251,14.577z"/>
    <path fill="#666666" d="M128.419,26.625c0.496,0.56,1.116,1.008,1.86,1.344c0.744,0.336,1.508,0.504,2.292,0.504
        c0.752,0,1.384-0.108,1.896-0.324s0.924-0.512,1.236-0.888s0.536-0.82,0.672-1.332c0.136-0.513,0.204-1.064,0.204-1.656v-1.464
        h-0.048c-0.416,0.641-0.984,1.128-1.704,1.464c-0.72,0.336-1.488,0.504-2.304,0.504c-0.864,0-1.652-0.151-2.364-0.456
        c-0.712-0.304-1.316-0.72-1.812-1.248c-0.496-0.527-0.88-1.147-1.152-1.859s-0.408-1.477-0.408-2.292
        c0-0.816,0.136-1.584,0.408-2.305c0.272-0.72,0.656-1.348,1.152-1.884c0.496-0.535,1.096-0.96,1.8-1.271
        c0.704-0.312,1.488-0.469,2.352-0.469c0.816,0,1.596,0.177,2.34,0.528c0.744,0.353,1.332,0.888,1.764,1.608h0.048v-1.824h2.184
        v10.8c0,0.832-0.104,1.628-0.312,2.388c-0.208,0.76-0.56,1.433-1.056,2.017s-1.144,1.052-1.944,1.404
        c-0.8,0.352-1.792,0.527-2.976,0.527c-0.992,0-1.988-0.18-2.988-0.54c-1-0.359-1.86-0.868-2.58-1.523L128.419,26.625z
         M129.091,18.873c0,0.527,0.084,1.031,0.253,1.512c0.168,0.479,0.417,0.904,0.746,1.271c0.329,0.369,0.726,0.664,1.192,0.889
        c0.465,0.224,0.995,0.336,1.589,0.336c0.577,0,1.107-0.104,1.589-0.312c0.481-0.207,0.891-0.491,1.228-0.852
        s0.598-0.784,0.782-1.272c0.185-0.487,0.277-1.012,0.277-1.571c0-0.544-0.093-1.057-0.277-1.536
        c-0.185-0.48-0.449-0.904-0.794-1.272c-0.345-0.367-0.755-0.66-1.228-0.876c-0.474-0.216-1-0.324-1.577-0.324
        c-0.594,0-1.124,0.108-1.589,0.324c-0.466,0.216-0.863,0.504-1.192,0.864s-0.578,0.784-0.746,1.271
        C129.175,17.812,129.091,18.329,129.091,18.873z"/>
</g>
<g><a xlink:href="/" pointer-events="all" target="_top"><polygon fill="none" points="0,0 145,0 145,35 0,35 0,0"/></a></g>

</g>


<!-- AnyHashable -->
<g id="node1" class="node">
<g id="a_node1"><a xlink:href="/v3.0/type/AnyHashable/hierarchy/" target="_top">
<polygon fill="#999999" stroke="#999999" points="80.5335,-22 -0.533453,-22 -0.533453,-0 80.5335,-0 80.5335,-22"/>
<text text-anchor="middle" x="40" y="-7.4" font-family="Helvetica,sans-Serif" font-size="12.00" fill="white">AnyHashable</text>
</a>
</g>
</g>
<!-- Array -->
<g id="node2" class="node">
<g id="a_node2"><a xlink:href="/v3.0/type/Array/hierarchy/" target="_top">
<polygon fill="#999999" stroke="#999999" points="153,-22 99,-22 99,-0 153,-0 153,-22"/>
<text text-anchor="middle" x="126" y="-7.4" font-family="Helvetica,sans-Serif" font-size="12.00" fill="white">Array</text>
</a>
</g>
</g>
<!-- ArraySlice -->
<g id="node3" class="node">
<g id="a_node3"><a xlink:href="/v3.0/type/ArraySlice/hierarchy/" target="_top">
<polygon fill="#999999" stroke="#999999" points="235.011,-22 170.989,-22 170.989,-0 235.011,-0 235.011,-22"/>
<text text-anchor="middle" x="203" y="-7.4" font-family="Helvetica,sans-Serif" font-size="12.00" fill="white">ArraySlice</text>
</a>
</g>
</g>
<!-- Bool -->
<g id="node4" class="node">
<g id="a_node4"><a xlink:href="/v3.0/type/Bool/hierarchy/" target="_top">
<polygon fill="#999999" stroke="#999999" points="1061,-22 1007,-22 1007,-0 1061,-0 1061,-22"/>
<text text-anchor="middle" x="1034" y="-7.4" font-family="Helvetica,sans-Serif" font-size="12.00" fill="white">Bool</text>
</a>
</g>
</g>
<!-- Character -->
<g id="node5" class="node">
<g id="a_node5"><a xlink:href="/v3.0/type/Character/hierarchy/" target="_top">
<polygon fill="#999999" stroke="#999999" points="1141.02,-22 1078.98,-22 1078.98,-0 1141.02,-0 1141.02,-22"/>
<text text-anchor="middle" x="1110" y="-7.4" font-family="Helvetica,sans-Serif" font-size="12.00" fill="white">Character</text>
</a>
</g>
</g>
<!-- ClosedRange -->
<g id="node6" class="node">
<g id="a_node6"><a xlink:href="/v3.0/type/ClosedRange/hierarchy/" target="_top">
<polygon fill="#999999" stroke="#999999" points="336.037,-22 253.963,-22 253.963,-0 336.037,-0 336.037,-22"/>
<text text-anchor="middle" x="295" y="-7.4" font-family="Helvetica,sans-Serif" font-size="12.00" fill="white">ClosedRange</text>
</a>
</g>
</g>
<!-- ContiguousArray -->
<g id="node7" class="node">
<g id="a_node7"><a xlink:href="/v3.0/type/ContiguousArray/hierarchy/" target="_top">
<polygon fill="#999999" stroke="#999999" points="453.534,-22 354.466,-22 354.466,-0 453.534,-0 453.534,-22"/>
<text text-anchor="middle" x="404" y="-7.4" font-family="Helvetica,sans-Serif" font-size="12.00" fill="white">ContiguousArray</text>
</a>
</g>
</g>
<!-- CountableClosedRange -->
<g id="node8" class="node">
<g id="a_node8"><a xlink:href="/v3.0/type/CountableClosedRange/hierarchy/" target="_top">
<polygon fill="#999999" stroke="#999999" points="608.567,-22 471.433,-22 471.433,-0 608.567,-0 608.567,-22"/>
<text text-anchor="middle" x="540" y="-7.4" font-family="Helvetica,sans-Serif" font-size="12.00" fill="white">CountableClosedRange</text>
</a>
</g>
</g>
<!-- CountableRange -->
<g id="node9" class="node">
<g id="a_node9"><a xlink:href="/v3.0/type/CountableRange/hierarchy/" target="_top">
<polygon fill="#999999" stroke="#999999" points="727.053,-22 626.947,-22 626.947,-0 727.053,-0 727.053,-22"/>
<text text-anchor="middle" x="677" y="-7.4" font-family="Helvetica,sans-Serif" font-size="12.00" fill="white">CountableRange</text>
</a>
</g>
</g>
<!-- CustomStringConvertible -->
<g id="node10" class="node">
<g id="a_node10"><a xlink:href="/v3.0/protocol/CustomStringConvertible/" target="_top">
<path fill="#ee543d" stroke="#ee543d" d="M1069.21,-254C1069.21,-254 940.792,-254 940.792,-254 937.126,-254 933.459,-250.333 933.459,-246.667 933.459,-246.667 933.459,-239.333 933.459,-239.333 933.459,-235.667 937.126,-232 940.792,-232 940.792,-232 1069.21,-232 1069.21,-232 1072.87,-232 1076.54,-235.667 1076.54,-239.333 1076.54,-239.333 1076.54,-246.667 1076.54,-246.667 1076.54,-250.333 1072.87,-254 1069.21,-254"/>
<text text-anchor="middle" x="1005" y="-239.4" font-family="Helvetica,sans-Serif" font-size="12.00" fill="white">CustomStringConvertible</text>
</a>
</g>
</g>
<!-- CustomStringConvertible&#45;&gt;AnyHashable -->
<g id="edge1" class="edge">
<path fill="none" stroke="#cccccc" d="M933.373,-239.277C843.99,-234.83 686.835,-223.547 555,-196 472.312,-178.722 453.766,-165.806 374,-138 263.961,-99.6412 135.379,-49.6556 74.8593,-25.8173"/>
<polygon fill="#cccccc" stroke="#cccccc" points="75.9863,-22.4994 65.3996,-22.0856 73.4176,-29.0111 75.9863,-22.4994"/>
</g>
<!-- CustomStringConvertible&#45;&gt;Array -->
<g id="edge2" class="edge">
<path fill="none" stroke="#cccccc" d="M933.589,-237.2C859.109,-231.23 739.309,-218.906 638,-196 449.814,-153.451 235.971,-61.658 157.224,-26.2941"/>
<polygon fill="#cccccc" stroke="#cccccc" points="158.428,-22.9978 147.874,-22.0745 155.549,-29.3782 158.428,-22.9978"/>
</g>
<!-- CustomStringConvertible&#45;&gt;ArraySlice -->
<g id="edge3" class="edge">
<path fill="none" stroke="#cccccc" d="M933.374,-233.77C875.749,-226.334 792.971,-213.81 722,-196 533.487,-148.694 317.065,-60.4782 235.956,-26.1658"/>
<polygon fill="#cccccc" stroke="#cccccc" points="236.876,-22.7543 226.304,-22.0664 234.14,-29.1973 236.876,-22.7543"/>
</g>
<!-- CustomStringConvertible&#45;&gt;ClosedRange -->
<g id="edge4" class="edge">
<path fill="none" stroke="#cccccc" d="M949.209,-231.941C906.586,-223.737 846.59,-211.066 795,-196 615.554,-143.596 407.808,-59.2532 328.291,-26.0635"/>
<polygon fill="#cccccc" stroke="#cccccc" points="329.38,-22.7251 318.804,-22.0921 326.677,-29.1822 329.38,-22.7251"/>
</g>
<!-- CustomStringConvertible&#45;&gt;ContiguousArray -->
<g id="edge5" class="edge">
<path fill="none" stroke="#cccccc" d="M968.445,-231.993C937.457,-223.259 891.97,-209.846 853,-196 694.167,-139.565 509.33,-58.9444 436.168,-26.4208"/>
<polygon fill="#cccccc" stroke="#cccccc" points="437.159,-23.0306 426.6,-22.1583 434.31,-29.4248 437.159,-23.0306"/>
</g>
<!-- CustomStringConvertible&#45;&gt;CountableClosedRange -->
<g id="edge6" class="edge">
<path fill="none" stroke="#cccccc" d="M981.288,-231.953C960.099,-222.87 928.279,-208.973 901,-196 775.272,-136.209 628.183,-58.8938 567.905,-26.8859"/>
<polygon fill="#cccccc" stroke="#cccccc" points="569.465,-23.7517 558.993,-22.1475 566.179,-29.9324 569.465,-23.7517"/>
</g>
<!-- CustomStringConvertible&#45;&gt;CountableRange -->
<g id="edge7" class="edge">
<path fill="none" stroke="#cccccc" d="M989.565,-231.898C975.523,-222.664 954.263,-208.571 936,-196 847.587,-135.144 743.935,-60.4897 699.296,-28.177"/>
<polygon fill="#cccccc" stroke="#cccccc" points="701.086,-25.152 690.935,-22.1198 696.98,-30.8209 701.086,-25.152"/>
</g>
<!-- Dictionary -->
<g id="node11" class="node">
<g id="a_node11"><a xlink:href="/v3.0/type/Dictionary/hierarchy/" target="_top">
<polygon fill="#999999" stroke="#999999" points="808.511,-22 745.489,-22 745.489,-0 808.511,-0 808.511,-22"/>
<text text-anchor="middle" x="777" y="-7.4" font-family="Helvetica,sans-Serif" font-size="12.00" fill="white">Dictionary</text>
</a>
</g>
</g>
<!-- CustomStringConvertible&#45;&gt;Dictionary -->
<g id="edge8" class="edge">
<path fill="none" stroke="#cccccc" d="M994.909,-231.82C959.3,-195.899 839.247,-74.7927 794.236,-29.3871"/>
<polygon fill="#cccccc" stroke="#cccccc" points="796.5,-26.6999 786.975,-22.062 791.529,-31.628 796.5,-26.6999"/>
</g>
<!-- ImplicitlyUnwrappedOptional -->
<g id="node15" class="node">
<g id="a_node15"><a xlink:href="/v3.0/type/ImplicitlyUnwrappedOptional/hierarchy/" target="_top">
<polygon fill="#999999" stroke="#999999" points="989.051,-22 826.949,-22 826.949,-0 989.051,-0 989.051,-22"/>
<text text-anchor="middle" x="908" y="-7.4" font-family="Helvetica,sans-Serif" font-size="12.00" fill="white">ImplicitlyUnwrappedOptional</text>
</a>
</g>
</g>
<!-- CustomStringConvertible&#45;&gt;ImplicitlyUnwrappedOptional -->
<g id="edge9" class="edge">
<path fill="none" stroke="#cccccc" d="M1000.71,-231.82C985.777,-196.419 935.955,-78.2851 916.185,-31.4085"/>
<polygon fill="#cccccc" stroke="#cccccc" points="919.354,-29.916 912.244,-22.062 912.905,-32.6362 919.354,-29.916"/>
</g>
<!-- LosslessStringConvertible -->
<g id="node22" class="node">
<g id="a_node22"><a xlink:href="/v3.0/protocol/LosslessStringConvertible/hierarchy/" target="_top">
<path fill="#999999" stroke="#999999" d="M1288.72,-80C1288.72,-80 1155.28,-80 1155.28,-80 1151.62,-80 1147.95,-76.3333 1147.95,-72.6667 1147.95,-72.6667 1147.95,-65.3333 1147.95,-65.3333 1147.95,-61.6667 1151.62,-58 1155.28,-58 1155.28,-58 1288.72,-58 1288.72,-58 1292.38,-58 1296.05,-61.6667 1296.05,-65.3333 1296.05,-65.3333 1296.05,-72.6667 1296.05,-72.6667 1296.05,-76.3333 1292.38,-80 1288.72,-80"/>
<text text-anchor="middle" x="1222" y="-65.4" font-family="Helvetica,sans-Serif" font-size="12.00" fill="white">LosslessStringConvertible</text>
</a>
</g>
</g>
<!-- CustomStringConvertible&#45;&gt;LosslessStringConvertible -->
<g id="edge10" class="edge">
<path fill="none" stroke="#cccccc" d="M1017.92,-231.756C1054.11,-203.076 1156.67,-121.785 1201.07,-86.5865"/>
<polygon fill="#cccccc" stroke="#cccccc" points="1203.48,-89.1452 1209.14,-80.1906 1199.13,-83.6594 1203.48,-89.1452"/>
</g>
<!-- Mirror -->
<g id="node23" class="node">
<g id="a_node23"><a xlink:href="/v3.0/type/Mirror/hierarchy/" target="_top">
<polygon fill="#999999" stroke="#999999" points="1607,-22 1553,-22 1553,-0 1607,-0 1607,-22"/>
<text text-anchor="middle" x="1580" y="-7.4" font-family="Helvetica,sans-Serif" font-size="12.00" fill="white">Mirror</text>
</a>
</g>
</g>
<!-- CustomStringConvertible&#45;&gt;Mirror -->
<g id="edge11" class="edge">
<path fill="none" stroke="#cccccc" d="M1030.08,-231.969C1121.79,-195.283 1439.18,-68.3276 1545.21,-25.9179"/>
<polygon fill="#cccccc" stroke="#cccccc" points="1546.81,-29.0472 1554.79,-22.0835 1544.21,-22.5478 1546.81,-29.0472"/>
</g>
<!-- Range -->
<g id="node24" class="node">
<g id="a_node24"><a xlink:href="/v3.0/type/Range/hierarchy/" target="_top">
<polygon fill="#999999" stroke="#999999" points="1679,-22 1625,-22 1625,-0 1679,-0 1679,-22"/>
<text text-anchor="middle" x="1652" y="-7.4" font-family="Helvetica,sans-Serif" font-size="12.00" fill="white">Range</text>
</a>
</g>
</g>
<!-- CustomStringConvertible&#45;&gt;Range -->
<g id="edge12" class="edge">
<path fill="none" stroke="#cccccc" d="M1041.8,-231.955C1073.55,-223.094 1120.56,-209.519 1161,-196 1334.45,-138.01 1538.06,-57.7144 1617.67,-25.8401"/>
<polygon fill="#cccccc" stroke="#cccccc" points="1619.21,-28.9924 1627.19,-22.0215 1616.6,-22.4954 1619.21,-28.9924"/>
</g>
<!-- Set -->
<g id="node25" class="node">
<g id="a_node25"><a xlink:href="/v3.0/type/Set/hierarchy/" target="_top">
<polygon fill="#999999" stroke="#999999" points="1751,-22 1697,-22 1697,-0 1751,-0 1751,-22"/>
<text text-anchor="middle" x="1724" y="-7.4" font-family="Helvetica,sans-Serif" font-size="12.00" fill="white">Set</text>
</a>
</g>
</g>
<!-- CustomStringConvertible&#45;&gt;Set -->
<g id="edge13" class="edge">
<path fill="none" stroke="#cccccc" d="M1055.97,-231.962C1096.63,-223.55 1154.89,-210.594 1205,-196 1390.66,-141.931 1606.95,-58.4298 1689.55,-25.765"/>
<polygon fill="#cccccc" stroke="#cccccc" points="1690.95,-28.9778 1698.95,-22.0389 1688.37,-22.4704 1690.95,-28.9778"/>
</g>
<!-- StaticString -->
<g id="node27" class="node">
<g id="a_node27"><a xlink:href="/v3.0/type/StaticString/hierarchy/" target="_top">
<polygon fill="#999999" stroke="#999999" points="1840.52,-22 1769.48,-22 1769.48,-0 1840.52,-0 1840.52,-22"/>
<text text-anchor="middle" x="1805" y="-7.4" font-family="Helvetica,sans-Serif" font-size="12.00" fill="white">StaticString</text>
</a>
</g>
</g>
<!-- CustomStringConvertible&#45;&gt;StaticString -->
<g id="edge14" class="edge">
<path fill="none" stroke="#cccccc" d="M1073.45,-231.987C1124.01,-223.97 1194.28,-211.513 1255,-196 1453.23,-145.351 1683.3,-59.1767 1769.76,-25.7871"/>
<polygon fill="#cccccc" stroke="#cccccc" points="1771.29,-28.9505 1779.35,-22.0748 1768.76,-22.4231 1771.29,-28.9505"/>
</g>
<!-- String.UTF16View -->
<g id="node29" class="node">
<g id="a_node29"><a xlink:href="/v3.0/type/String.UTF16View/hierarchy/" target="_top">
<polygon fill="#999999" stroke="#999999" points="1965.37,-22 1858.63,-22 1858.63,-0 1965.37,-0 1965.37,-22"/>
<text text-anchor="middle" x="1912" y="-7.4" font-family="Helvetica,sans-Serif" font-size="12.00" fill="white">String.UTF16View</text>
</a>
</g>
</g>
<!-- CustomStringConvertible&#45;&gt;String.UTF16View -->
<g id="edge16" class="edge">
<path fill="none" stroke="#cccccc" d="M1076.54,-234.004C1138.27,-226.425 1229.6,-213.579 1308,-196 1526.53,-146.997 1780.95,-59.0175 1874.79,-25.4839"/>
<polygon fill="#cccccc" stroke="#cccccc" points="1876.17,-28.7087 1884.4,-22.0397 1873.81,-22.1193 1876.17,-28.7087"/>
</g>
<!-- String.UTF8View -->
<g id="node30" class="node">
<g id="a_node30"><a xlink:href="/v3.0/type/String.UTF8View/hierarchy/" target="_top">
<polygon fill="#999999" stroke="#999999" points="2084.36,-22 1983.64,-22 1983.64,-0 2084.36,-0 2084.36,-22"/>
<text text-anchor="middle" x="2034" y="-7.4" font-family="Helvetica,sans-Serif" font-size="12.00" fill="white">String.UTF8View</text>
</a>
</g>
</g>
<!-- CustomStringConvertible&#45;&gt;String.UTF8View -->
<g id="edge17" class="edge">
<path fill="none" stroke="#cccccc" d="M1076.65,-235.741C1149.45,-228.698 1265.23,-215.615 1364,-196 1606.75,-147.789 1890.74,-58.6708 1993.95,-25.1804"/>
<polygon fill="#cccccc" stroke="#cccccc" points="1995.23,-28.4462 2003.66,-22.0233 1993.06,-21.7898 1995.23,-28.4462"/>
</g>
<!-- String.UnicodeScalarView -->
<g id="node31" class="node">
<g id="a_node31"><a xlink:href="/v3.0/type/String.UnicodeScalarView/hierarchy/" target="_top">
<polygon fill="#999999" stroke="#999999" points="2250.89,-22 2103.11,-22 2103.11,-0 2250.89,-0 2250.89,-22"/>
<text text-anchor="middle" x="2177" y="-7.4" font-family="Helvetica,sans-Serif" font-size="12.00" fill="white">String.UnicodeScalarView</text>
</a>
</g>
</g>
<!-- CustomStringConvertible&#45;&gt;String.UnicodeScalarView -->
<g id="edge18" class="edge">
<path fill="none" stroke="#cccccc" d="M1076.36,-236.964C1160.23,-230.403 1303.42,-217.2 1425,-196 1697.48,-148.488 2017.83,-58.4622 2133.01,-24.9752"/>
<polygon fill="#cccccc" stroke="#cccccc" points="2134.25,-28.2594 2142.87,-22.1004 2132.29,-21.5391 2134.25,-28.2594"/>
</g>
<!-- _Integer -->
<g id="node40" class="node">
<g id="a_node40"><a xlink:href="/v3.0/protocol/_Integer/hierarchy/" target="_top">
<path fill="#999999" stroke="#999999" d="M2521.69,-196C2521.69,-196 2482.31,-196 2482.31,-196 2478.64,-196 2474.98,-192.333 2474.98,-188.667 2474.98,-188.667 2474.98,-181.333 2474.98,-181.333 2474.98,-177.667 2478.64,-174 2482.31,-174 2482.31,-174 2521.69,-174 2521.69,-174 2525.36,-174 2529.02,-177.667 2529.02,-181.333 2529.02,-181.333 2529.02,-188.667 2529.02,-188.667 2529.02,-192.333 2525.36,-196 2521.69,-196"/>
<text text-anchor="middle" x="2502" y="-181.4" font-family="Helvetica,sans-Serif" font-size="12.00" fill="white">_Integer</text>
</a>
</g>
</g>
<!-- CustomStringConvertible&#45;&gt;_Integer -->
<g id="edge15" class="edge">
<path fill="none" stroke="#cccccc" d="M1076.45,-239.327C1341.96,-229.395 2266.68,-194.803 2464.55,-187.401"/>
<polygon fill="#cccccc" stroke="#cccccc" points="2464.86,-190.892 2474.73,-187.02 2464.6,-183.897 2464.86,-190.892"/>
</g>
<!-- Double -->
<g id="node12" class="node">
<g id="a_node12"><a xlink:href="/v3.0/type/Double/hierarchy/" target="_top">
<polygon fill="#999999" stroke="#999999" points="1213,-22 1159,-22 1159,-0 1213,-0 1213,-22"/>
<text text-anchor="middle" x="1186" y="-7.4" font-family="Helvetica,sans-Serif" font-size="12.00" fill="white">Double</text>
</a>
</g>
</g>
<!-- Float -->
<g id="node13" class="node">
<g id="a_node13"><a xlink:href="/v3.0/type/Float/hierarchy/" target="_top">
<polygon fill="#999999" stroke="#999999" points="1285,-22 1231,-22 1231,-0 1285,-0 1285,-22"/>
<text text-anchor="middle" x="1258" y="-7.4" font-family="Helvetica,sans-Serif" font-size="12.00" fill="white">Float</text>
</a>
</g>
</g>
<!-- Float80 -->
<g id="node14" class="node">
<g id="a_node14"><a xlink:href="/v3.0/type/Float80/hierarchy/" target="_top">
<polygon fill="#999999" stroke="#999999" points="1357,-22 1303,-22 1303,-0 1357,-0 1357,-22"/>
<text text-anchor="middle" x="1330" y="-7.4" font-family="Helvetica,sans-Serif" font-size="12.00" fill="white">Float80</text>
</a>
</g>
</g>
<!-- Int -->
<g id="node16" class="node">
<g id="a_node16"><a xlink:href="/v3.0/type/Int/hierarchy/" target="_top">
<polygon fill="#999999" stroke="#999999" points="2323,-22 2269,-22 2269,-0 2323,-0 2323,-22"/>
<text text-anchor="middle" x="2296" y="-7.4" font-family="Helvetica,sans-Serif" font-size="12.00" fill="white">Int</text>
</a>
</g>
</g>
<!-- Int16 -->
<g id="node17" class="node">
<g id="a_node17"><a xlink:href="/v3.0/type/Int16/hierarchy/" target="_top">
<polygon fill="#999999" stroke="#999999" points="2395,-22 2341,-22 2341,-0 2395,-0 2395,-22"/>
<text text-anchor="middle" x="2368" y="-7.4" font-family="Helvetica,sans-Serif" font-size="12.00" fill="white">Int16</text>
</a>
</g>
</g>
<!-- Int32 -->
<g id="node18" class="node">
<g id="a_node18"><a xlink:href="/v3.0/type/Int32/hierarchy/" target="_top">
<polygon fill="#999999" stroke="#999999" points="2467,-22 2413,-22 2413,-0 2467,-0 2467,-22"/>
<text text-anchor="middle" x="2440" y="-7.4" font-family="Helvetica,sans-Serif" font-size="12.00" fill="white">Int32</text>
</a>
</g>
</g>
<!-- Int64 -->
<g id="node19" class="node">
<g id="a_node19"><a xlink:href="/v3.0/type/Int64/hierarchy/" target="_top">
<polygon fill="#999999" stroke="#999999" points="2539,-22 2485,-22 2485,-0 2539,-0 2539,-22"/>
<text text-anchor="middle" x="2512" y="-7.4" font-family="Helvetica,sans-Serif" font-size="12.00" fill="white">Int64</text>
</a>
</g>
</g>
<!-- Int8 -->
<g id="node20" class="node">
<g id="a_node20"><a xlink:href="/v3.0/type/Int8/hierarchy/" target="_top">
<polygon fill="#999999" stroke="#999999" points="2611,-22 2557,-22 2557,-0 2611,-0 2611,-22"/>
<text text-anchor="middle" x="2584" y="-7.4" font-family="Helvetica,sans-Serif" font-size="12.00" fill="white">Int8</text>
</a>
</g>
</g>
<!-- Integer -->
<g id="node21" class="node">
<g id="a_node21"><a xlink:href="/v3.0/protocol/Integer/hierarchy/" target="_top">
<path fill="#999999" stroke="#999999" d="M2567.67,-138C2567.67,-138 2528.33,-138 2528.33,-138 2524.67,-138 2521,-134.333 2521,-130.667 2521,-130.667 2521,-123.333 2521,-123.333 2521,-119.667 2524.67,-116 2528.33,-116 2528.33,-116 2567.67,-116 2567.67,-116 2571.33,-116 2575,-119.667 2575,-123.333 2575,-123.333 2575,-130.667 2575,-130.667 2575,-134.333 2571.33,-138 2567.67,-138"/>
<text text-anchor="middle" x="2548" y="-123.4" font-family="Helvetica,sans-Serif" font-size="12.00" fill="white">Integer</text>
</a>
</g>
</g>
<!-- SignedInteger -->
<g id="node26" class="node">
<g id="a_node26"><a xlink:href="/v3.0/protocol/SignedInteger/hierarchy/" target="_top">
<path fill="#999999" stroke="#999999" d="M2491.71,-80C2491.71,-80 2422.29,-80 2422.29,-80 2418.62,-80 2414.96,-76.3333 2414.96,-72.6667 2414.96,-72.6667 2414.96,-65.3333 2414.96,-65.3333 2414.96,-61.6667 2418.62,-58 2422.29,-58 2422.29,-58 2491.71,-58 2491.71,-58 2495.38,-58 2499.04,-61.6667 2499.04,-65.3333 2499.04,-65.3333 2499.04,-72.6667 2499.04,-72.6667 2499.04,-76.3333 2495.38,-80 2491.71,-80"/>
<text text-anchor="middle" x="2457" y="-65.4" font-family="Helvetica,sans-Serif" font-size="12.00" fill="white">SignedInteger</text>
</a>
</g>
</g>
<!-- Integer&#45;&gt;SignedInteger -->
<g id="edge29" class="edge">
<path fill="none" stroke="#cccccc" d="M2531.73,-115.988C2517.97,-107.52 2498.02,-95.2452 2482.2,-85.5067"/>
<polygon fill="#cccccc" stroke="#cccccc" points="2483.79,-82.374 2473.43,-80.1138 2480.12,-88.3356 2483.79,-82.374"/>
</g>
<!-- UnsignedInteger -->
<g id="node38" class="node">
<g id="a_node38"><a xlink:href="/v3.0/protocol/UnsignedInteger/hierarchy/" target="_top">
<path fill="#999999" stroke="#999999" d="M2769.71,-80C2769.71,-80 2686.29,-80 2686.29,-80 2682.62,-80 2678.95,-76.3333 2678.95,-72.6667 2678.95,-72.6667 2678.95,-65.3333 2678.95,-65.3333 2678.95,-61.6667 2682.62,-58 2686.29,-58 2686.29,-58 2769.71,-58 2769.71,-58 2773.38,-58 2777.05,-61.6667 2777.05,-65.3333 2777.05,-65.3333 2777.05,-72.6667 2777.05,-72.6667 2777.05,-76.3333 2773.38,-80 2769.71,-80"/>
<text text-anchor="middle" x="2728" y="-65.4" font-family="Helvetica,sans-Serif" font-size="12.00" fill="white">UnsignedInteger</text>
</a>
</g>
</g>
<!-- Integer&#45;&gt;UnsignedInteger -->
<g id="edge30" class="edge">
<path fill="none" stroke="#cccccc" d="M2575.34,-117.495C2604.79,-108.333 2652.01,-93.6421 2686.14,-83.0234"/>
<polygon fill="#cccccc" stroke="#cccccc" points="2687.33,-86.3199 2695.83,-80.0071 2685.25,-79.6359 2687.33,-86.3199"/>
</g>
<!-- LosslessStringConvertible&#45;&gt;Bool -->
<g id="edge19" class="edge">
<path fill="none" stroke="#cccccc" d="M1188.39,-57.9883C1155.32,-48.1384 1104.96,-33.138 1070.83,-22.9696"/>
<polygon fill="#cccccc" stroke="#cccccc" points="1071.81,-19.6097 1061.22,-20.1092 1069.81,-26.3184 1071.81,-19.6097"/>
</g>
<!-- LosslessStringConvertible&#45;&gt;Character -->
<g id="edge20" class="edge">
<path fill="none" stroke="#cccccc" d="M1201.98,-57.9883C1184.57,-49.2827 1159.11,-36.5539 1139.39,-26.6937"/>
<polygon fill="#cccccc" stroke="#cccccc" points="1140.74,-23.4555 1130.23,-22.1138 1137.61,-29.7165 1140.74,-23.4555"/>
</g>
<!-- LosslessStringConvertible&#45;&gt;Double -->
<g id="edge21" class="edge">
<path fill="none" stroke="#cccccc" d="M1215.56,-57.9883C1210.71,-50.4379 1203.91,-39.8611 1198.06,-30.7543"/>
<polygon fill="#cccccc" stroke="#cccccc" points="1200.98,-28.823 1192.62,-22.3039 1195.09,-32.6083 1200.98,-28.823"/>
</g>
<!-- LosslessStringConvertible&#45;&gt;Float -->
<g id="edge22" class="edge">
<path fill="none" stroke="#cccccc" d="M1228.44,-57.9883C1233.29,-50.4379 1240.09,-39.8611 1245.94,-30.7543"/>
<polygon fill="#cccccc" stroke="#cccccc" points="1248.91,-32.6083 1251.38,-22.3039 1243.02,-28.823 1248.91,-32.6083"/>
</g>
<!-- LosslessStringConvertible&#45;&gt;Float80 -->
<g id="edge23" class="edge">
<path fill="none" stroke="#cccccc" d="M1241.31,-57.9883C1258.02,-49.3223 1282.42,-36.6696 1301.4,-26.8283"/>
<polygon fill="#cccccc" stroke="#cccccc" points="1303.23,-29.8242 1310.49,-22.1138 1300.01,-23.6099 1303.23,-29.8242"/>
</g>
<!-- String -->
<g id="node28" class="node">
<g id="a_node28"><a xlink:href="/v3.0/type/String/hierarchy/" target="_top">
<polygon fill="#999999" stroke="#999999" points="1429,-22 1375,-22 1375,-0 1429,-0 1429,-22"/>
<text text-anchor="middle" x="1402" y="-7.4" font-family="Helvetica,sans-Serif" font-size="12.00" fill="white">String</text>
</a>
</g>
</g>
<!-- LosslessStringConvertible&#45;&gt;String -->
<g id="edge24" class="edge">
<path fill="none" stroke="#cccccc" d="M1254.18,-57.9883C1285.34,-48.2947 1332.53,-33.6128 1365.17,-23.4573"/>
<polygon fill="#cccccc" stroke="#cccccc" points="1366.29,-26.7742 1374.8,-20.4615 1364.21,-20.0902 1366.29,-26.7742"/>
</g>
<!-- UnicodeScalar -->
<g id="node37" class="node">
<g id="a_node37"><a xlink:href="/v3.0/type/UnicodeScalar/hierarchy/" target="_top">
<polygon fill="#999999" stroke="#999999" points="1535.03,-22 1446.97,-22 1446.97,-0 1535.03,-0 1535.03,-22"/>
<text text-anchor="middle" x="1491" y="-7.4" font-family="Helvetica,sans-Serif" font-size="12.00" fill="white">UnicodeScalar</text>
</a>
</g>
</g>
<!-- LosslessStringConvertible&#45;&gt;UnicodeScalar -->
<g id="edge25" class="edge">
<path fill="none" stroke="#cccccc" d="M1270.09,-57.9883C1316.93,-48.2372 1388.02,-33.4384 1436.83,-23.277"/>
<polygon fill="#cccccc" stroke="#cccccc" points="1437.81,-26.6473 1446.89,-21.1826 1436.39,-19.7942 1437.81,-26.6473"/>
</g>
<!-- SignedInteger&#45;&gt;Int -->
<g id="edge31" class="edge">
<path fill="none" stroke="#cccccc" d="M2428.22,-57.9883C2401.6,-48.7296 2361.9,-34.9202 2332.95,-24.8507"/>
<polygon fill="#cccccc" stroke="#cccccc" points="2333.79,-21.4381 2323.19,-21.4586 2331.49,-28.0496 2333.79,-21.4381"/>
</g>
<!-- SignedInteger&#45;&gt;Int16 -->
<g id="edge32" class="edge">
<path fill="none" stroke="#cccccc" d="M2441.09,-57.9883C2427.63,-49.5201 2408.12,-37.2452 2392.64,-27.5067"/>
<polygon fill="#cccccc" stroke="#cccccc" points="2394.4,-24.4771 2384.07,-22.1138 2390.67,-30.4018 2394.4,-24.4771"/>
</g>
<!-- SignedInteger&#45;&gt;Int32 -->
<g id="edge33" class="edge">
<path fill="none" stroke="#cccccc" d="M2453.96,-57.9883C2451.76,-50.7525 2448.72,-40.7373 2446.04,-31.9"/>
<polygon fill="#cccccc" stroke="#cccccc" points="2449.38,-30.856 2443.13,-22.3039 2442.68,-32.8894 2449.38,-30.856"/>
</g>
<!-- SignedInteger&#45;&gt;Int64 -->
<g id="edge34" class="edge">
<path fill="none" stroke="#cccccc" d="M2466.83,-57.9883C2474.56,-50.1233 2485.51,-38.9745 2494.69,-29.6239"/>
<polygon fill="#cccccc" stroke="#cccccc" points="2497.37,-31.8909 2501.88,-22.3039 2492.38,-26.9859 2497.37,-31.8909"/>
</g>
<!-- SignedInteger&#45;&gt;Int8 -->
<g id="edge35" class="edge">
<path fill="none" stroke="#cccccc" d="M2479.71,-57.9883C2499.81,-49.1244 2529.37,-36.0897 2551.89,-26.1587"/>
<polygon fill="#cccccc" stroke="#cccccc" points="2553.33,-29.351 2561.06,-22.1138 2550.5,-22.946 2553.33,-29.351"/>
</g>
<!-- UInt -->
<g id="node32" class="node">
<g id="a_node32"><a xlink:href="/v3.0/type/UInt/hierarchy/" target="_top">
<polygon fill="#999999" stroke="#999999" points="2683,-22 2629,-22 2629,-0 2683,-0 2683,-22"/>
<text text-anchor="middle" x="2656" y="-7.4" font-family="Helvetica,sans-Serif" font-size="12.00" fill="white">UInt</text>
</a>
</g>
</g>
<!-- UInt16 -->
<g id="node33" class="node">
<g id="a_node33"><a xlink:href="/v3.0/type/UInt16/hierarchy/" target="_top">
<polygon fill="#999999" stroke="#999999" points="2755,-22 2701,-22 2701,-0 2755,-0 2755,-22"/>
<text text-anchor="middle" x="2728" y="-7.4" font-family="Helvetica,sans-Serif" font-size="12.00" fill="white">UInt16</text>
</a>
</g>
</g>
<!-- UInt32 -->
<g id="node34" class="node">
<g id="a_node34"><a xlink:href="/v3.0/type/UInt32/hierarchy/" target="_top">
<polygon fill="#999999" stroke="#999999" points="2827,-22 2773,-22 2773,-0 2827,-0 2827,-22"/>
<text text-anchor="middle" x="2800" y="-7.4" font-family="Helvetica,sans-Serif" font-size="12.00" fill="white">UInt32</text>
</a>
</g>
</g>
<!-- UInt64 -->
<g id="node35" class="node">
<g id="a_node35"><a xlink:href="/v3.0/type/UInt64/hierarchy/" target="_top">
<polygon fill="#999999" stroke="#999999" points="2899,-22 2845,-22 2845,-0 2899,-0 2899,-22"/>
<text text-anchor="middle" x="2872" y="-7.4" font-family="Helvetica,sans-Serif" font-size="12.00" fill="white">UInt64</text>
</a>
</g>
</g>
<!-- UInt8 -->
<g id="node36" class="node">
<g id="a_node36"><a xlink:href="/v3.0/type/UInt8/hierarchy/" target="_top">
<polygon fill="#999999" stroke="#999999" points="2971,-22 2917,-22 2917,-0 2971,-0 2971,-22"/>
<text text-anchor="middle" x="2944" y="-7.4" font-family="Helvetica,sans-Serif" font-size="12.00" fill="white">UInt8</text>
</a>
</g>
</g>
<!-- UnsignedInteger&#45;&gt;UInt -->
<g id="edge36" class="edge">
<path fill="none" stroke="#cccccc" d="M2715.13,-57.9883C2704.61,-49.8087 2689.53,-38.0773 2677.23,-28.5108"/>
<polygon fill="#cccccc" stroke="#cccccc" points="2679.29,-25.6806 2669.25,-22.3039 2674.99,-31.2061 2679.29,-25.6806"/>
</g>
<!-- UnsignedInteger&#45;&gt;UInt16 -->
<g id="edge37" class="edge">
<path fill="none" stroke="#cccccc" d="M2728,-57.9883C2728,-50.9098 2728,-41.1714 2728,-32.4779"/>
<polygon fill="#cccccc" stroke="#cccccc" points="2731.5,-32.3038 2728,-22.3039 2724.5,-32.3039 2731.5,-32.3038"/>
</g>
<!-- UnsignedInteger&#45;&gt;UInt32 -->
<g id="edge38" class="edge">
<path fill="none" stroke="#cccccc" d="M2740.87,-57.9883C2751.39,-49.8087 2766.47,-38.0773 2778.77,-28.5108"/>
<polygon fill="#cccccc" stroke="#cccccc" points="2781.01,-31.2061 2786.75,-22.3039 2776.71,-25.6806 2781.01,-31.2061"/>
</g>
<!-- UnsignedInteger&#45;&gt;UInt64 -->
<g id="edge39" class="edge">
<path fill="none" stroke="#cccccc" d="M2753.74,-57.9883C2776.84,-49.0057 2810.95,-35.7398 2836.61,-25.7614"/>
<polygon fill="#cccccc" stroke="#cccccc" points="2837.94,-29.0004 2845.99,-22.1138 2835.4,-22.4763 2837.94,-29.0004"/>
</g>
<!-- UnsignedInteger&#45;&gt;UInt8 -->
<g id="edge40" class="edge">
<path fill="none" stroke="#cccccc" d="M2768.45,-57.9168C2802.84,-49.2898 2853.76,-36.3793 2906.94,-22.2477"/>
<polygon fill="#cccccc" stroke="#cccccc" points="2908.13,-25.5525 2916.89,-19.5955 2906.33,-18.7885 2908.13,-25.5525"/>
</g>
<!-- _DisallowMixedSignArithmetic -->
<g id="node39" class="node">
<g id="a_node39"><a xlink:href="/v3.0/protocol/_DisallowMixedSignArithmetic/hierarchy/" target="_top">
<path fill="#999999" stroke="#999999" d="M2772.71,-138C2772.71,-138 2617.29,-138 2617.29,-138 2613.62,-138 2609.96,-134.333 2609.96,-130.667 2609.96,-130.667 2609.96,-123.333 2609.96,-123.333 2609.96,-119.667 2613.62,-116 2617.29,-116 2617.29,-116 2772.71,-116 2772.71,-116 2776.38,-116 2780.04,-119.667 2780.04,-123.333 2780.04,-123.333 2780.04,-130.667 2780.04,-130.667 2780.04,-134.333 2776.38,-138 2772.71,-138"/>
<text text-anchor="middle" x="2695" y="-123.4" font-family="Helvetica,sans-Serif" font-size="12.00" fill="white">_DisallowMixedSignArithmetic</text>
</a>
</g>
</g>
<!-- _DisallowMixedSignArithmetic&#45;&gt;UnsignedInteger -->
<g id="edge41" class="edge">
<path fill="none" stroke="#cccccc" d="M2700.9,-115.988C2705.3,-108.517 2711.45,-98.0812 2716.78,-89.0393"/>
<polygon fill="#cccccc" stroke="#cccccc" points="2719.87,-90.6962 2721.93,-80.3039 2713.84,-87.1423 2719.87,-90.6962"/>
</g>
<!-- _Integer&#45;&gt;Integer -->
<g id="edge26" class="edge">
<path fill="none" stroke="#cccccc" d="M2510.22,-173.988C2516.56,-166.281 2525.48,-155.419 2533.06,-146.187"/>
<polygon fill="#cccccc" stroke="#cccccc" points="2535.89,-148.253 2539.54,-138.304 2530.48,-143.81 2535.89,-148.253"/>
</g>
<!-- _Integer&#45;&gt;_DisallowMixedSignArithmetic -->
<g id="edge27" class="edge">
<path fill="none" stroke="#cccccc" d="M2529.24,-176.095C2560.81,-166.935 2613.29,-151.708 2650.74,-140.842"/>
<polygon fill="#cccccc" stroke="#cccccc" points="2651.77,-144.189 2660.4,-138.041 2649.82,-137.466 2651.77,-144.189"/>
</g>
<!-- _SignedInteger -->
<g id="node41" class="node">
<g id="a_node41"><a xlink:href="/v3.0/protocol/_SignedInteger/hierarchy/" target="_top">
<path fill="#999999" stroke="#999999" d="M2495.21,-138C2495.21,-138 2418.79,-138 2418.79,-138 2415.12,-138 2411.45,-134.333 2411.45,-130.667 2411.45,-130.667 2411.45,-123.333 2411.45,-123.333 2411.45,-119.667 2415.12,-116 2418.79,-116 2418.79,-116 2495.21,-116 2495.21,-116 2498.88,-116 2502.55,-119.667 2502.55,-123.333 2502.55,-123.333 2502.55,-130.667 2502.55,-130.667 2502.55,-134.333 2498.88,-138 2495.21,-138"/>
<text text-anchor="middle" x="2457" y="-123.4" font-family="Helvetica,sans-Serif" font-size="12.00" fill="white">_SignedInteger</text>
</a>
</g>
</g>
<!-- _Integer&#45;&gt;_SignedInteger -->
<g id="edge28" class="edge">
<path fill="none" stroke="#cccccc" d="M2493.95,-173.988C2487.76,-166.281 2479.03,-155.419 2471.61,-146.187"/>
<polygon fill="#cccccc" stroke="#cccccc" points="2474.27,-143.907 2465.28,-138.304 2468.82,-148.291 2474.27,-143.907"/>
</g>
<!-- _SignedInteger&#45;&gt;SignedInteger -->
<g id="edge42" class="edge">
<path fill="none" stroke="#cccccc" d="M2457,-115.988C2457,-108.91 2457,-99.1714 2457,-90.4779"/>
<polygon fill="#cccccc" stroke="#cccccc" points="2460.5,-90.3038 2457,-80.3039 2453.5,-90.3039 2460.5,-90.3038"/>
</g>
</g>
</svg>
