<?xml version="1.0" encoding="UTF-8" standalone="no"?>
<!DOCTYPE svg PUBLIC "-//W3C//DTD SVG 1.1//EN"
 "http://www.w3.org/Graphics/SVG/1.1/DTD/svg11.dtd">
<!-- Generated by graphviz version 2.36.0 (20140111.2315)
 -->
<!-- Title: String &#45; Type Hierarchy &#45; Swifter Pages: 1 -->
<svg width="1378pt" height="543pt"
 viewBox="0.00 0.00 1378.40 543.20" xmlns="http://www.w3.org/2000/svg" xmlns:xlink="http://www.w3.org/1999/xlink">
<g id="graph0" class="graph" transform="scale(1 1) rotate(0) translate(7.2 485.6)">
<g transform="translate(0 -485.6)">
<g>
    <path fill="#666666" d="M13.846,10.832c-0.336-0.464-0.792-0.844-1.368-1.14s-1.224-0.444-1.944-0.444
        c-0.384,0-0.772,0.052-1.164,0.156C8.977,9.509,8.622,9.677,8.301,9.908c-0.32,0.232-0.58,0.52-0.78,0.864
        c-0.2,0.344-0.3,0.756-0.3,1.236c0,0.464,0.092,0.852,0.276,1.164c0.184,0.312,0.432,0.576,0.744,0.792s0.68,0.4,1.104,0.552
        c0.423,0.152,0.876,0.309,1.356,0.468c0.576,0.177,1.16,0.376,1.752,0.601c0.592,0.224,1.128,0.52,1.608,0.888
        s0.872,0.828,1.176,1.38s0.456,1.252,0.456,2.101c0,0.88-0.164,1.644-0.492,2.292c-0.328,0.647-0.765,1.184-1.308,1.607
        c-0.544,0.424-1.172,0.74-1.884,0.948s-1.444,0.312-2.196,0.312c-1.072,0-2.108-0.208-3.108-0.624
        c-1-0.415-1.828-1.031-2.484-1.848l1.848-1.56c0.4,0.592,0.936,1.071,1.608,1.439c0.672,0.368,1.399,0.552,2.184,0.552
        c0.4,0,0.8-0.056,1.2-0.168c0.4-0.111,0.764-0.288,1.092-0.527c0.328-0.24,0.596-0.54,0.804-0.9
        c0.208-0.36,0.312-0.796,0.312-1.308s-0.108-0.94-0.324-1.284c-0.216-0.344-0.508-0.636-0.876-0.876s-0.796-0.444-1.284-0.612
        c-0.488-0.168-1.004-0.34-1.548-0.516c-0.544-0.16-1.08-0.356-1.608-0.588c-0.528-0.232-1-0.528-1.416-0.889
        c-0.416-0.359-0.752-0.804-1.008-1.332c-0.256-0.527-0.384-1.184-0.384-1.968c0-0.848,0.172-1.576,0.516-2.184
        c0.344-0.608,0.792-1.112,1.344-1.512c0.552-0.4,1.176-0.692,1.872-0.876c0.696-0.184,1.396-0.276,2.1-0.276
        c0.992,0,1.92,0.176,2.784,0.528c0.864,0.352,1.56,0.824,2.088,1.416L13.846,10.832z"/>
    <path fill="#666666" d="M18.813,13.304l2.568,8.688h0.048l2.712-8.688h2.376l2.76,8.688h0.048l2.568-8.688h2.376L30.501,24.68
        h-2.352l-2.808-8.544h-0.048l-2.784,8.544h-2.352l-3.792-11.376H18.813z"/>
    <path fill="#666666" d="M38.685,9.2c0,0.416-0.147,0.76-0.44,1.032c-0.294,0.272-0.647,0.408-1.06,0.408s-0.762-0.14-1.047-0.42
        c-0.286-0.28-0.429-0.62-0.429-1.02c0-0.416,0.143-0.764,0.429-1.044c0.286-0.28,0.635-0.42,1.047-0.42s0.766,0.14,1.06,0.42
        C38.538,8.437,38.685,8.784,38.685,9.2z M38.325,24.68h-2.256V13.304h2.256V24.68z"/>
    <path fill="#666666" d="M47.613,15.152h-2.64v9.528h-2.256v-9.528h-2.256v-1.848h2.256v-2.376c0-0.672,0.076-1.292,0.228-1.86
        c0.152-0.568,0.4-1.06,0.744-1.476c0.344-0.416,0.784-0.744,1.32-0.984c0.536-0.24,1.188-0.36,1.956-0.36
        c0.544,0,1.016,0.056,1.416,0.168l-0.264,1.944c-0.176-0.048-0.352-0.088-0.528-0.12c-0.176-0.032-0.376-0.048-0.6-0.048
        c-0.432,0-0.78,0.076-1.044,0.228c-0.264,0.152-0.468,0.356-0.612,0.612s-0.24,0.548-0.288,0.876
        c-0.048,0.328-0.072,0.668-0.072,1.02v2.376h2.64V15.152z"/>
    <path fill="#666666" d="M54.909,15.152h-3.024v5.91c0,0.687,0.128,1.177,0.384,1.472c0.256,0.295,0.664,0.442,1.224,0.442
        c0.208,0,0.432-0.021,0.672-0.065c0.24-0.044,0.456-0.11,0.648-0.198l0.072,1.848c-0.272,0.096-0.572,0.172-0.9,0.229
        c-0.328,0.056-0.668,0.084-1.02,0.084c-1.072,0-1.892-0.296-2.46-0.889c-0.568-0.592-0.852-1.479-0.852-2.664v-6.168h-2.184
        v-1.848h2.184V10.04h2.232v3.264h3.024V15.152z"/>
    <path fill="#666666" d="M57.356,7.688h5.832c1.088,0,2.176,0.16,3.264,0.48c1.088,0.32,2.072,0.824,2.952,1.512
        s1.592,1.568,2.136,2.64c0.544,1.072,0.816,2.36,0.816,3.864c0,1.456-0.272,2.716-0.816,3.78s-1.256,1.943-2.136,2.64
        s-1.864,1.216-2.952,1.561c-1.088,0.344-2.176,0.516-3.264,0.516h-5.832V7.688z M59.732,22.593h2.976
        c1.024,0,1.972-0.145,2.844-0.432c0.872-0.288,1.624-0.704,2.256-1.248c0.632-0.544,1.124-1.216,1.476-2.017
        c0.352-0.8,0.528-1.704,0.528-2.712c0-1.056-0.176-1.983-0.528-2.784c-0.353-0.8-0.844-1.468-1.476-2.004
        c-0.632-0.536-1.384-0.944-2.256-1.224s-1.82-0.42-2.844-0.42h-2.976V22.593z"/>
    <path fill="#666666" d="M86.06,18.969c0,0.88-0.156,1.688-0.468,2.424c-0.312,0.736-0.744,1.372-1.296,1.908
        c-0.552,0.536-1.204,0.952-1.956,1.248c-0.752,0.296-1.56,0.443-2.424,0.443c-0.864,0-1.672-0.147-2.424-0.443
        c-0.752-0.296-1.4-0.712-1.944-1.248c-0.544-0.536-0.972-1.172-1.284-1.908c-0.312-0.735-0.468-1.544-0.468-2.424
        s0.156-1.684,0.468-2.412c0.312-0.728,0.74-1.356,1.284-1.884c0.543-0.528,1.191-0.939,1.944-1.236
        c0.752-0.296,1.56-0.444,2.424-0.444c0.864,0,1.672,0.148,2.424,0.444c0.752,0.297,1.404,0.708,1.956,1.236
        c0.552,0.527,0.984,1.156,1.296,1.884C85.904,17.285,86.06,18.089,86.06,18.969z M83.708,18.98c0-0.542-0.084-1.061-0.252-1.556
        c-0.169-0.494-0.414-0.929-0.734-1.304s-0.718-0.674-1.192-0.897s-1.015-0.335-1.625-0.335c-0.61,0-1.152,0.111-1.625,0.335
        c-0.474,0.224-0.871,0.522-1.191,0.897c-0.321,0.375-0.566,0.81-0.734,1.304C76.184,17.92,76.1,18.438,76.1,18.98
        c0,0.543,0.084,1.062,0.253,1.556c0.168,0.495,0.413,0.934,0.734,1.316c0.321,0.383,0.718,0.686,1.191,0.909
        c0.473,0.224,1.015,0.335,1.625,0.335c0.61,0,1.151-0.111,1.625-0.335s0.871-0.526,1.192-0.909s0.565-0.821,0.734-1.316
        C83.624,20.042,83.708,19.523,83.708,18.98z"/>
    <path fill="#666666" d="M96.428,16.184c-0.24-0.368-0.6-0.676-1.08-0.924s-0.992-0.372-1.536-0.372
        c-0.592,0-1.116,0.112-1.572,0.336c-0.456,0.225-0.844,0.524-1.164,0.9c-0.32,0.376-0.564,0.812-0.732,1.308
        s-0.252,1.017-0.252,1.56c0,0.545,0.084,1.064,0.252,1.561s0.412,0.933,0.732,1.308c0.32,0.376,0.712,0.677,1.176,0.9
        c0.464,0.225,0.992,0.336,1.584,0.336c0.576,0,1.1-0.111,1.572-0.336c0.472-0.224,0.86-0.528,1.164-0.912l1.512,1.368
        c-0.48,0.561-1.08,0.996-1.8,1.308c-0.72,0.312-1.536,0.468-2.448,0.468c-0.88,0-1.692-0.144-2.436-0.432
        c-0.744-0.288-1.388-0.691-1.932-1.212c-0.544-0.52-0.972-1.147-1.284-1.884s-0.468-1.561-0.468-2.473
        c0-0.896,0.152-1.711,0.456-2.447c0.304-0.736,0.728-1.368,1.272-1.896c0.543-0.527,1.188-0.936,1.932-1.224
        c0.744-0.288,1.548-0.433,2.412-0.433c0.8,0,1.596,0.16,2.388,0.48s1.419,0.784,1.884,1.392L96.428,16.184z"/>
    <path fill="#666666" d="M103.1,23.24c0,0.417-0.152,0.784-0.456,1.104c-0.304,0.32-0.688,0.479-1.152,0.479
        c-0.448,0-0.828-0.155-1.14-0.468c-0.312-0.312-0.468-0.676-0.468-1.092c0-0.432,0.152-0.804,0.456-1.116
        c0.304-0.312,0.688-0.468,1.152-0.468c0.464,0,0.848,0.152,1.152,0.456C102.947,22.44,103.1,22.808,103.1,23.24z"/>
    <path fill="#666666" d="M116.635,18.969c0,0.88-0.156,1.688-0.468,2.424c-0.312,0.736-0.744,1.372-1.296,1.908
        c-0.552,0.536-1.204,0.952-1.956,1.248c-0.752,0.296-1.56,0.443-2.424,0.443c-0.864,0-1.672-0.147-2.424-0.443
        c-0.752-0.296-1.4-0.712-1.944-1.248c-0.544-0.536-0.972-1.172-1.284-1.908c-0.312-0.735-0.468-1.544-0.468-2.424
        s0.156-1.684,0.468-2.412c0.312-0.728,0.74-1.356,1.284-1.884c0.543-0.528,1.191-0.939,1.944-1.236
        c0.752-0.296,1.56-0.444,2.424-0.444c0.864,0,1.672,0.148,2.424,0.444c0.752,0.297,1.404,0.708,1.956,1.236
        c0.552,0.527,0.984,1.156,1.296,1.884C116.479,17.285,116.635,18.089,116.635,18.969z M114.283,18.98
        c0-0.542-0.084-1.061-0.252-1.556c-0.169-0.494-0.414-0.929-0.734-1.304s-0.718-0.674-1.192-0.897s-1.015-0.335-1.625-0.335
        c-0.61,0-1.152,0.111-1.625,0.335c-0.474,0.224-0.871,0.522-1.191,0.897c-0.321,0.375-0.566,0.81-0.734,1.304
        c-0.169,0.495-0.253,1.014-0.253,1.556c0,0.543,0.084,1.062,0.253,1.556c0.168,0.495,0.413,0.934,0.734,1.316
        c0.321,0.383,0.718,0.686,1.191,0.909c0.473,0.224,1.015,0.335,1.625,0.335c0.61,0,1.151-0.111,1.625-0.335
        s0.871-0.526,1.192-0.909s0.565-0.821,0.734-1.316C114.199,20.042,114.283,19.523,114.283,18.98z"/>
    <path fill="#666666" d="M119.251,14.577c-0.016-0.48-0.04-0.904-0.072-1.272h2.136c0.032,0.288,0.056,0.62,0.072,0.996
        c0.016,0.376,0.024,0.684,0.024,0.924h0.072c0.32-0.672,0.788-1.212,1.404-1.62c0.616-0.408,1.308-0.612,2.076-0.612
        c0.352,0,0.648,0.033,0.888,0.097l-0.096,2.088c-0.32-0.08-0.664-0.12-1.032-0.12c-0.544,0-1.016,0.101-1.416,0.3
        c-0.4,0.2-0.732,0.468-0.996,0.805c-0.264,0.336-0.46,0.724-0.588,1.163c-0.128,0.44-0.192,0.9-0.192,1.381v5.976h-2.256v-8.928
        C119.275,15.449,119.267,15.056,119.251,14.577z"/>
    <path fill="#666666" d="M128.419,26.625c0.496,0.56,1.116,1.008,1.86,1.344c0.744,0.336,1.508,0.504,2.292,0.504
        c0.752,0,1.384-0.108,1.896-0.324s0.924-0.512,1.236-0.888s0.536-0.82,0.672-1.332c0.136-0.513,0.204-1.064,0.204-1.656v-1.464
        h-0.048c-0.416,0.641-0.984,1.128-1.704,1.464c-0.72,0.336-1.488,0.504-2.304,0.504c-0.864,0-1.652-0.151-2.364-0.456
        c-0.712-0.304-1.316-0.72-1.812-1.248c-0.496-0.527-0.88-1.147-1.152-1.859s-0.408-1.477-0.408-2.292
        c0-0.816,0.136-1.584,0.408-2.305c0.272-0.72,0.656-1.348,1.152-1.884c0.496-0.535,1.096-0.96,1.8-1.271
        c0.704-0.312,1.488-0.469,2.352-0.469c0.816,0,1.596,0.177,2.34,0.528c0.744,0.353,1.332,0.888,1.764,1.608h0.048v-1.824h2.184
        v10.8c0,0.832-0.104,1.628-0.312,2.388c-0.208,0.76-0.56,1.433-1.056,2.017s-1.144,1.052-1.944,1.404
        c-0.8,0.352-1.792,0.527-2.976,0.527c-0.992,0-1.988-0.18-2.988-0.54c-1-0.359-1.86-0.868-2.58-1.523L128.419,26.625z
         M129.091,18.873c0,0.527,0.084,1.031,0.253,1.512c0.168,0.479,0.417,0.904,0.746,1.271c0.329,0.369,0.726,0.664,1.192,0.889
        c0.465,0.224,0.995,0.336,1.589,0.336c0.577,0,1.107-0.104,1.589-0.312c0.481-0.207,0.891-0.491,1.228-0.852
        s0.598-0.784,0.782-1.272c0.185-0.487,0.277-1.012,0.277-1.571c0-0.544-0.093-1.057-0.277-1.536
        c-0.185-0.48-0.449-0.904-0.794-1.272c-0.345-0.367-0.755-0.66-1.228-0.876c-0.474-0.216-1-0.324-1.577-0.324
        c-0.594,0-1.124,0.108-1.589,0.324c-0.466,0.216-0.863,0.504-1.192,0.864s-0.578,0.784-0.746,1.271
        C129.175,17.812,129.091,18.329,129.091,18.873z"/>
</g>
<g><a xlink:href="/" pointer-events="all" target="_top"><polygon fill="none" points="0,0 145,0 145,35 0,35 0,0"/></a></g>

</g>


<!-- CollectionType -->
<g id="node1" class="node">
<g id="a_node1"><a xlink:href="/protocol/CollectionType/" target="_top">
<path fill="#999999" stroke="#999999" d="M1218.7,-254C1218.7,-254 1145.3,-254 1145.3,-254 1141.63,-254 1137.96,-250.333 1137.96,-246.667 1137.96,-246.667 1137.96,-239.333 1137.96,-239.333 1137.96,-235.667 1141.63,-232 1145.3,-232 1145.3,-232 1218.7,-232 1218.7,-232 1222.37,-232 1226.04,-235.667 1226.04,-239.333 1226.04,-239.333 1226.04,-246.667 1226.04,-246.667 1226.04,-250.333 1222.37,-254 1218.7,-254"/>
<text text-anchor="middle" x="1182" y="-239.4" font-family="Helvetica,sans-Serif" font-size="12.00" fill="white">CollectionType</text>
</a>
</g>
</g>
<!-- String -->
<g id="node14" class="node">
<g id="a_node14"><a xlink:href="/type/String/" target="_top">
<polygon fill="#ee543d" stroke="#ee543d" points="635,-22 581,-22 581,-0 635,-0 635,-22"/>
<text text-anchor="middle" x="608" y="-7.4" font-family="Helvetica,sans-Serif" font-size="12.00" fill="white">String</text>
</a>
</g>
</g>
<!-- CollectionType&#45;&gt;String -->
<g id="edge1" class="edge">
<path fill="none" stroke="#cccccc" d="M1153.65,-231.933C1135.76,-224.375 1113.23,-212.484 1098,-196 1052.36,-146.62 1090.42,-97.4942 1036,-58 974.111,-13.0838 737.659,-10.5838 645.286,-11.3882"/>
<polygon fill="#cccccc" stroke="#cccccc" points="644.974,-7.89124 635.012,-11.4969 645.048,-14.8908 644.974,-7.89124"/>
</g>
<!-- _ExtensibleCollectionType -->
<g id="node20" class="node">
<g id="a_node20"><a xlink:href="/protocol/_ExtensibleCollectionType/" target="_top">
<path fill="#999999" stroke="#999999" d="M1249.73,-196C1249.73,-196 1114.27,-196 1114.27,-196 1110.6,-196 1106.93,-192.333 1106.93,-188.667 1106.93,-188.667 1106.93,-181.333 1106.93,-181.333 1106.93,-177.667 1110.6,-174 1114.27,-174 1114.27,-174 1249.73,-174 1249.73,-174 1253.4,-174 1257.07,-177.667 1257.07,-181.333 1257.07,-181.333 1257.07,-188.667 1257.07,-188.667 1257.07,-192.333 1253.4,-196 1249.73,-196"/>
<text text-anchor="middle" x="1182" y="-181.4" font-family="Helvetica,sans-Serif" font-size="12.00" fill="white">_ExtensibleCollectionType</text>
</a>
</g>
</g>
<!-- CollectionType&#45;&gt;_ExtensibleCollectionType -->
<g id="edge29" class="edge">
<path fill="none" stroke="#cccccc" d="M1182,-231.988C1182,-224.91 1182,-215.171 1182,-206.478"/>
<polygon fill="#cccccc" stroke="#cccccc" points="1185.5,-206.304 1182,-196.304 1178.5,-206.304 1185.5,-206.304"/>
</g>
<!-- _Sliceable -->
<g id="node23" class="node">
<g id="a_node23"><a xlink:href="/protocol/_Sliceable/" target="_top">
<path fill="#999999" stroke="#999999" d="M1350.19,-196C1350.19,-196 1299.81,-196 1299.81,-196 1296.14,-196 1292.47,-192.333 1292.47,-188.667 1292.47,-188.667 1292.47,-181.333 1292.47,-181.333 1292.47,-177.667 1296.14,-174 1299.81,-174 1299.81,-174 1350.19,-174 1350.19,-174 1353.86,-174 1357.53,-177.667 1357.53,-181.333 1357.53,-181.333 1357.53,-188.667 1357.53,-188.667 1357.53,-192.333 1353.86,-196 1350.19,-196"/>
<text text-anchor="middle" x="1325" y="-181.4" font-family="Helvetica,sans-Serif" font-size="12.00" fill="white">_Sliceable</text>
</a>
</g>
</g>
<!-- CollectionType&#45;&gt;_Sliceable -->
<g id="edge27" class="edge">
<path fill="none" stroke="#cccccc" d="M1207.57,-231.988C1230.5,-223.006 1264.38,-209.74 1289.86,-199.761"/>
<polygon fill="#cccccc" stroke="#cccccc" points="1291.14,-203.019 1299.17,-196.114 1288.59,-196.501 1291.14,-203.019"/>
</g>
<!-- Comparable -->
<g id="node2" class="node">
<g id="a_node2"><a xlink:href="/protocol/Comparable/" target="_top">
<path fill="#999999" stroke="#999999" d="M73.1913,-80C73.1913,-80 12.8087,-80 12.8087,-80 9.14205,-80 5.47538,-76.3333 5.47538,-72.6667 5.47538,-72.6667 5.47538,-65.3333 5.47538,-65.3333 5.47538,-61.6667 9.14205,-58 12.8087,-58 12.8087,-58 73.1913,-58 73.1913,-58 76.8579,-58 80.5246,-61.6667 80.5246,-65.3333 80.5246,-65.3333 80.5246,-72.6667 80.5246,-72.6667 80.5246,-76.3333 76.8579,-80 73.1913,-80"/>
<text text-anchor="middle" x="43" y="-65.4" font-family="Helvetica,sans-Serif" font-size="12.00" fill="white">Comparable</text>
</a>
</g>
</g>
<!-- Comparable&#45;&gt;String -->
<g id="edge10" class="edge">
<path fill="none" stroke="#cccccc" d="M80.3807,-59.6201C83.6252,-59.0224 86.8651,-58.4709 90,-58 268.947,-31.1185 485.207,-18.1328 570.666,-13.7617"/>
<polygon fill="#cccccc" stroke="#cccccc" points="571.088,-17.245 580.9,-13.2477 570.737,-10.2538 571.088,-17.245"/>
</g>
<!-- DebugPrintable -->
<g id="node3" class="node">
<g id="a_node3"><a xlink:href="/protocol/DebugPrintable/" target="_top">
<path fill="#999999" stroke="#999999" d="M299.71,-80C299.71,-80 222.29,-80 222.29,-80 218.624,-80 214.957,-76.3333 214.957,-72.6667 214.957,-72.6667 214.957,-65.3333 214.957,-65.3333 214.957,-61.6667 218.624,-58 222.29,-58 222.29,-58 299.71,-58 299.71,-58 303.376,-58 307.043,-61.6667 307.043,-65.3333 307.043,-65.3333 307.043,-72.6667 307.043,-72.6667 307.043,-76.3333 303.376,-80 299.71,-80"/>
<text text-anchor="middle" x="261" y="-65.4" font-family="Helvetica,sans-Serif" font-size="12.00" fill="white">DebugPrintable</text>
</a>
</g>
</g>
<!-- DebugPrintable&#45;&gt;String -->
<g id="edge8" class="edge">
<path fill="none" stroke="#cccccc" d="M307.183,-60.2731C311.85,-59.5012 316.519,-58.7326 321,-58 410.595,-43.3538 516.003,-26.5752 570.75,-17.8946"/>
<polygon fill="#cccccc" stroke="#cccccc" points="571.357,-21.3421 580.686,-16.3198 570.262,-14.4284 571.357,-21.3421"/>
</g>
<!-- Equatable -->
<g id="node4" class="node">
<g id="a_node4"><a xlink:href="/protocol/Equatable/" target="_top">
<path fill="#999999" stroke="#999999" d="M156.702,-138C156.702,-138 107.298,-138 107.298,-138 103.632,-138 99.9648,-134.333 99.9648,-130.667 99.9648,-130.667 99.9648,-123.333 99.9648,-123.333 99.9648,-119.667 103.632,-116 107.298,-116 107.298,-116 156.702,-116 156.702,-116 160.368,-116 164.035,-119.667 164.035,-123.333 164.035,-123.333 164.035,-130.667 164.035,-130.667 164.035,-134.333 160.368,-138 156.702,-138"/>
<text text-anchor="middle" x="132" y="-123.4" font-family="Helvetica,sans-Serif" font-size="12.00" fill="white">Equatable</text>
</a>
</g>
</g>
<!-- Equatable&#45;&gt;Comparable -->
<g id="edge24" class="edge">
<path fill="none" stroke="#cccccc" d="M116.089,-115.988C102.63,-107.52 83.1219,-95.2452 67.6445,-85.5067"/>
<polygon fill="#cccccc" stroke="#cccccc" points="69.4016,-82.4771 59.0737,-80.1138 65.6737,-88.4018 69.4016,-82.4771"/>
</g>
<!-- Hashable -->
<g id="node7" class="node">
<g id="a_node7"><a xlink:href="/protocol/Hashable/" target="_top">
<path fill="#999999" stroke="#999999" d="M151.694,-80C151.694,-80 106.306,-80 106.306,-80 102.639,-80 98.9725,-76.3333 98.9725,-72.6667 98.9725,-72.6667 98.9725,-65.3333 98.9725,-65.3333 98.9725,-61.6667 102.639,-58 106.306,-58 106.306,-58 151.694,-58 151.694,-58 155.361,-58 159.027,-61.6667 159.027,-65.3333 159.027,-65.3333 159.027,-72.6667 159.027,-72.6667 159.027,-76.3333 155.361,-80 151.694,-80"/>
<text text-anchor="middle" x="129" y="-65.4" font-family="Helvetica,sans-Serif" font-size="12.00" fill="white">Hashable</text>
</a>
</g>
</g>
<!-- Equatable&#45;&gt;Hashable -->
<g id="edge25" class="edge">
<path fill="none" stroke="#cccccc" d="M131.464,-115.988C131.084,-108.91 130.563,-99.1714 130.097,-90.4779"/>
<polygon fill="#cccccc" stroke="#cccccc" points="133.582,-90.1023 129.552,-80.3039 126.592,-90.4768 133.582,-90.1023"/>
</g>
<!-- Equatable&#45;&gt;String -->
<g id="edge9" class="edge">
<path fill="none" stroke="#cccccc" d="M139.535,-115.802C151.623,-100.315 176.958,-71.2683 206,-58 270.556,-28.5062 483.67,-16.913 570.592,-13.3374"/>
<polygon fill="#cccccc" stroke="#cccccc" points="570.938,-16.8265 580.79,-12.9311 570.659,-9.83209 570.938,-16.8265"/>
</g>
<!-- ExtendedGraphemeClusterLiteralConvertible -->
<g id="node5" class="node">
<g id="a_node5"><a xlink:href="/protocol/ExtendedGraphemeClusterLiteralConvertible/" target="_top">
<path fill="#999999" stroke="#999999" d="M489.762,-138C489.762,-138 256.238,-138 256.238,-138 252.572,-138 248.905,-134.333 248.905,-130.667 248.905,-130.667 248.905,-123.333 248.905,-123.333 248.905,-119.667 252.572,-116 256.238,-116 256.238,-116 489.762,-116 489.762,-116 493.428,-116 497.095,-119.667 497.095,-123.333 497.095,-123.333 497.095,-130.667 497.095,-130.667 497.095,-134.333 493.428,-138 489.762,-138"/>
<text text-anchor="middle" x="373" y="-123.4" font-family="Helvetica,sans-Serif" font-size="12.00" fill="white">ExtendedGraphemeClusterLiteralConvertible</text>
</a>
</g>
</g>
<!-- ExtendedGraphemeClusterLiteralConvertible&#45;&gt;String -->
<g id="edge6" class="edge">
<path fill="none" stroke="#cccccc" d="M364.888,-115.573C354.663,-101.08 340.014,-74.7465 354,-58 381.212,-25.4174 507.257,-15.8673 570.949,-13.1039"/>
<polygon fill="#cccccc" stroke="#cccccc" points="571.126,-16.5997 580.978,-12.7027 570.847,-9.60532 571.126,-16.5997"/>
</g>
<!-- StringLiteralConvertible -->
<g id="node16" class="node">
<g id="a_node16"><a xlink:href="/protocol/StringLiteralConvertible/" target="_top">
<path fill="#999999" stroke="#999999" d="M489.714,-80C489.714,-80 370.286,-80 370.286,-80 366.62,-80 362.953,-76.3333 362.953,-72.6667 362.953,-72.6667 362.953,-65.3333 362.953,-65.3333 362.953,-61.6667 366.62,-58 370.286,-58 370.286,-58 489.714,-58 489.714,-58 493.38,-58 497.047,-61.6667 497.047,-65.3333 497.047,-65.3333 497.047,-72.6667 497.047,-72.6667 497.047,-76.3333 493.38,-80 489.714,-80"/>
<text text-anchor="middle" x="430" y="-65.4" font-family="Helvetica,sans-Serif" font-size="12.00" fill="white">StringLiteralConvertible</text>
</a>
</g>
</g>
<!-- ExtendedGraphemeClusterLiteralConvertible&#45;&gt;StringLiteralConvertible -->
<g id="edge22" class="edge">
<path fill="none" stroke="#cccccc" d="M383.19,-115.988C391.276,-108.045 402.771,-96.7512 412.346,-87.3439"/>
<polygon fill="#cccccc" stroke="#cccccc" points="414.832,-89.8088 419.512,-80.3039 409.926,-84.8154 414.832,-89.8088"/>
</g>
<!-- ExtensibleCollectionType -->
<g id="node6" class="node">
<g id="a_node6"><a xlink:href="/protocol/ExtensibleCollectionType/" target="_top">
<path fill="#999999" stroke="#999999" d="M1246.73,-138C1246.73,-138 1117.27,-138 1117.27,-138 1113.61,-138 1109.94,-134.333 1109.94,-130.667 1109.94,-130.667 1109.94,-123.333 1109.94,-123.333 1109.94,-119.667 1113.61,-116 1117.27,-116 1117.27,-116 1246.73,-116 1246.73,-116 1250.39,-116 1254.06,-119.667 1254.06,-123.333 1254.06,-123.333 1254.06,-130.667 1254.06,-130.667 1254.06,-134.333 1250.39,-138 1246.73,-138"/>
<text text-anchor="middle" x="1182" y="-123.4" font-family="Helvetica,sans-Serif" font-size="12.00" fill="white">ExtensibleCollectionType</text>
</a>
</g>
</g>
<!-- RangeReplaceableCollectionType -->
<g id="node9" class="node">
<g id="a_node9"><a xlink:href="/protocol/RangeReplaceableCollectionType/" target="_top">
<path fill="#999999" stroke="#999999" d="M1265.76,-80C1265.76,-80 1090.24,-80 1090.24,-80 1086.57,-80 1082.91,-76.3333 1082.91,-72.6667 1082.91,-72.6667 1082.91,-65.3333 1082.91,-65.3333 1082.91,-61.6667 1086.57,-58 1090.24,-58 1090.24,-58 1265.76,-58 1265.76,-58 1269.43,-58 1273.09,-61.6667 1273.09,-65.3333 1273.09,-65.3333 1273.09,-72.6667 1273.09,-72.6667 1273.09,-76.3333 1269.43,-80 1265.76,-80"/>
<text text-anchor="middle" x="1178" y="-65.4" font-family="Helvetica,sans-Serif" font-size="12.00" fill="white">RangeReplaceableCollectionType</text>
</a>
</g>
</g>
<!-- ExtensibleCollectionType&#45;&gt;RangeReplaceableCollectionType -->
<g id="edge30" class="edge">
<path fill="none" stroke="#cccccc" d="M1181.28,-115.988C1180.78,-108.91 1180.08,-99.1714 1179.46,-90.4779"/>
<polygon fill="#cccccc" stroke="#cccccc" points="1182.94,-90.0291 1178.74,-80.3039 1175.96,-90.5279 1182.94,-90.0291"/>
</g>
<!-- ExtensibleCollectionType&#45;&gt;String -->
<g id="edge14" class="edge">
<path fill="none" stroke="#cccccc" d="M1219.89,-115.928C1257.27,-104.246 1305.65,-83.3153 1282,-58 1238.4,-11.3197 780.918,-10.7757 645.538,-11.6502"/>
<polygon fill="#cccccc" stroke="#cccccc" points="645.237,-8.15217 635.262,-11.7235 645.287,-15.152 645.237,-8.15217"/>
</g>
<!-- Hashable&#45;&gt;String -->
<g id="edge11" class="edge">
<path fill="none" stroke="#cccccc" d="M159.204,-60.6419C163.808,-59.6637 168.518,-58.7437 173,-58 319.025,-33.7724 494.86,-19.7714 570.459,-14.4691"/>
<polygon fill="#cccccc" stroke="#cccccc" points="571.136,-17.9308 580.87,-13.7497 570.653,-10.9474 571.136,-17.9308"/>
</g>
<!-- OutputStreamType -->
<g id="node8" class="node">
<g id="a_node8"><a xlink:href="/protocol/OutputStreamType/" target="_top">
<path fill="#999999" stroke="#999999" d="M655.709,-80C655.709,-80 560.291,-80 560.291,-80 556.624,-80 552.957,-76.3333 552.957,-72.6667 552.957,-72.6667 552.957,-65.3333 552.957,-65.3333 552.957,-61.6667 556.624,-58 560.291,-58 560.291,-58 655.709,-58 655.709,-58 659.376,-58 663.043,-61.6667 663.043,-65.3333 663.043,-65.3333 663.043,-72.6667 663.043,-72.6667 663.043,-76.3333 659.376,-80 655.709,-80"/>
<text text-anchor="middle" x="608" y="-65.4" font-family="Helvetica,sans-Serif" font-size="12.00" fill="white">OutputStreamType</text>
</a>
</g>
</g>
<!-- OutputStreamType&#45;&gt;String -->
<g id="edge3" class="edge">
<path fill="none" stroke="#cccccc" d="M608,-57.9883C608,-50.9098 608,-41.1714 608,-32.4779"/>
<polygon fill="#cccccc" stroke="#cccccc" points="611.5,-32.3038 608,-22.3039 604.5,-32.3039 611.5,-32.3038"/>
</g>
<!-- RangeReplaceableCollectionType&#45;&gt;String -->
<g id="edge15" class="edge">
<path fill="none" stroke="#cccccc" d="M1082.59,-58.6269C954.382,-46.0305 732.479,-24.2295 644.991,-15.6342"/>
<polygon fill="#cccccc" stroke="#cccccc" points="645.297,-12.1475 635.003,-14.6529 644.613,-19.114 645.297,-12.1475"/>
</g>
<!-- Reflectable -->
<g id="node10" class="node">
<g id="a_node10"><a xlink:href="/protocol/Reflectable/" target="_top">
<path fill="#999999" stroke="#999999" d="M743.693,-80C743.693,-80 688.307,-80 688.307,-80 684.64,-80 680.974,-76.3333 680.974,-72.6667 680.974,-72.6667 680.974,-65.3333 680.974,-65.3333 680.974,-61.6667 684.64,-58 688.307,-58 688.307,-58 743.693,-58 743.693,-58 747.36,-58 751.026,-61.6667 751.026,-65.3333 751.026,-65.3333 751.026,-72.6667 751.026,-72.6667 751.026,-76.3333 747.36,-80 743.693,-80"/>
<text text-anchor="middle" x="716" y="-65.4" font-family="Helvetica,sans-Serif" font-size="12.00" fill="white">Reflectable</text>
</a>
</g>
</g>
<!-- Reflectable&#45;&gt;String -->
<g id="edge2" class="edge">
<path fill="none" stroke="#cccccc" d="M696.692,-57.9883C679.979,-49.3223 655.577,-36.6696 636.597,-26.8283"/>
<polygon fill="#cccccc" stroke="#cccccc" points="637.994,-23.6099 627.505,-22.1138 634.772,-29.8242 637.994,-23.6099"/>
</g>
<!-- SequenceType -->
<g id="node11" class="node">
<g id="a_node11"><a xlink:href="/protocol/SequenceType/" target="_top">
<path fill="#999999" stroke="#999999" d="M1275.72,-312C1275.72,-312 1200.28,-312 1200.28,-312 1196.62,-312 1192.95,-308.333 1192.95,-304.667 1192.95,-304.667 1192.95,-297.333 1192.95,-297.333 1192.95,-293.667 1196.62,-290 1200.28,-290 1200.28,-290 1275.72,-290 1275.72,-290 1279.38,-290 1283.05,-293.667 1283.05,-297.333 1283.05,-297.333 1283.05,-304.667 1283.05,-304.667 1283.05,-308.333 1279.38,-312 1275.72,-312"/>
<text text-anchor="middle" x="1238" y="-297.4" font-family="Helvetica,sans-Serif" font-size="12.00" fill="white">SequenceType</text>
</a>
</g>
</g>
<!-- SequenceType&#45;&gt;CollectionType -->
<g id="edge17" class="edge">
<path fill="none" stroke="#cccccc" d="M1227.99,-289.988C1220.12,-282.123 1208.97,-270.974 1199.62,-261.624"/>
<polygon fill="#cccccc" stroke="#cccccc" points="1201.85,-258.9 1192.3,-254.304 1196.9,-263.85 1201.85,-258.9"/>
</g>
<!-- Sliceable -->
<g id="node12" class="node">
<g id="a_node12"><a xlink:href="/protocol/Sliceable/" target="_top">
<path fill="#999999" stroke="#999999" d="M1355.69,-138C1355.69,-138 1312.31,-138 1312.31,-138 1308.64,-138 1304.98,-134.333 1304.98,-130.667 1304.98,-130.667 1304.98,-123.333 1304.98,-123.333 1304.98,-119.667 1308.64,-116 1312.31,-116 1312.31,-116 1355.69,-116 1355.69,-116 1359.36,-116 1363.02,-119.667 1363.02,-123.333 1363.02,-123.333 1363.02,-130.667 1363.02,-130.667 1363.02,-134.333 1359.36,-138 1355.69,-138"/>
<text text-anchor="middle" x="1334" y="-123.4" font-family="Helvetica,sans-Serif" font-size="12.00" fill="white">Sliceable</text>
</a>
</g>
</g>
<!-- Sliceable&#45;&gt;String -->
<g id="edge13" class="edge">
<path fill="none" stroke="#cccccc" d="M1332.19,-115.828C1328.85,-100.375 1320.11,-71.3734 1300,-58 1245.33,-21.6526 781.569,-13.85 645.428,-12.3362"/>
<polygon fill="#cccccc" stroke="#cccccc" points="645.139,-8.83306 635.102,-12.2266 645.065,-15.8327 645.139,-8.83306"/>
</g>
<!-- Streamable -->
<g id="node13" class="node">
<g id="a_node13"><a xlink:href="/protocol/Streamable/" target="_top">
<path fill="#999999" stroke="#999999" d="M833.19,-80C833.19,-80 776.81,-80 776.81,-80 773.144,-80 769.477,-76.3333 769.477,-72.6667 769.477,-72.6667 769.477,-65.3333 769.477,-65.3333 769.477,-61.6667 773.144,-58 776.81,-58 776.81,-58 833.19,-58 833.19,-58 836.856,-58 840.523,-61.6667 840.523,-65.3333 840.523,-65.3333 840.523,-72.6667 840.523,-72.6667 840.523,-76.3333 836.856,-80 833.19,-80"/>
<text text-anchor="middle" x="805" y="-65.4" font-family="Helvetica,sans-Serif" font-size="12.00" fill="white">Streamable</text>
</a>
</g>
</g>
<!-- Streamable&#45;&gt;String -->
<g id="edge4" class="edge">
<path fill="none" stroke="#cccccc" d="M769.78,-57.9883C734.626,-47.9952 680.823,-32.7008 645.041,-22.5293"/>
<polygon fill="#cccccc" stroke="#cccccc" points="645.582,-19.0447 635.006,-19.6769 643.668,-25.7779 645.582,-19.0447"/>
</g>
<!-- StringInterpolationConvertible -->
<g id="node15" class="node">
<g id="a_node15"><a xlink:href="/protocol/StringInterpolationConvertible/" target="_top">
<path fill="#999999" stroke="#999999" d="M1019.74,-80C1019.74,-80 866.264,-80 866.264,-80 862.598,-80 858.931,-76.3333 858.931,-72.6667 858.931,-72.6667 858.931,-65.3333 858.931,-65.3333 858.931,-61.6667 862.598,-58 866.264,-58 866.264,-58 1019.74,-58 1019.74,-58 1023.4,-58 1027.07,-61.6667 1027.07,-65.3333 1027.07,-65.3333 1027.07,-72.6667 1027.07,-72.6667 1027.07,-76.3333 1023.4,-80 1019.74,-80"/>
<text text-anchor="middle" x="943" y="-65.4" font-family="Helvetica,sans-Serif" font-size="12.00" fill="white">StringInterpolationConvertible</text>
</a>
</g>
</g>
<!-- StringInterpolationConvertible&#45;&gt;String -->
<g id="edge12" class="edge">
<path fill="none" stroke="#cccccc" d="M883.109,-57.9883C814.189,-46.4674 703.119,-27.9004 645.452,-18.2606"/>
<polygon fill="#cccccc" stroke="#cccccc" points="645.768,-14.765 635.328,-16.5682 644.614,-21.6692 645.768,-14.765"/>
</g>
<!-- StringLiteralConvertible&#45;&gt;String -->
<g id="edge7" class="edge">
<path fill="none" stroke="#cccccc" d="M461.823,-57.9883C492.412,-48.3648 538.627,-33.8251 570.879,-23.6786"/>
<polygon fill="#cccccc" stroke="#cccccc" points="572.333,-26.8902 580.822,-20.5504 570.232,-20.2129 572.333,-26.8902"/>
</g>
<!-- UnicodeScalarLiteralConvertible -->
<g id="node17" class="node">
<g id="a_node17"><a xlink:href="/protocol/UnicodeScalarLiteralConvertible/" target="_top">
<path fill="#999999" stroke="#999999" d="M532.233,-196C532.233,-196 365.767,-196 365.767,-196 362.101,-196 358.434,-192.333 358.434,-188.667 358.434,-188.667 358.434,-181.333 358.434,-181.333 358.434,-177.667 362.101,-174 365.767,-174 365.767,-174 532.233,-174 532.233,-174 535.899,-174 539.566,-177.667 539.566,-181.333 539.566,-181.333 539.566,-188.667 539.566,-188.667 539.566,-192.333 535.899,-196 532.233,-196"/>
<text text-anchor="middle" x="449" y="-181.4" font-family="Helvetica,sans-Serif" font-size="12.00" fill="white">UnicodeScalarLiteralConvertible</text>
</a>
</g>
</g>
<!-- UnicodeScalarLiteralConvertible&#45;&gt;ExtendedGraphemeClusterLiteralConvertible -->
<g id="edge21" class="edge">
<path fill="none" stroke="#cccccc" d="M435.413,-173.988C424.135,-165.678 407.882,-153.703 394.789,-144.055"/>
<polygon fill="#cccccc" stroke="#cccccc" points="396.853,-141.228 386.726,-138.114 392.7,-146.864 396.853,-141.228"/>
</g>
<!-- UnicodeScalarLiteralConvertible&#45;&gt;String -->
<g id="edge5" class="edge">
<path fill="none" stroke="#cccccc" d="M465.161,-173.895C477.582,-165.491 494.506,-152.58 506,-138 530.37,-107.088 518.777,-88.2196 544,-58 554.16,-45.8273 568.235,-35.2498 580.599,-27.3173"/>
<polygon fill="#cccccc" stroke="#cccccc" points="582.529,-30.2393 589.219,-22.0237 578.866,-24.2742 582.529,-30.2393"/>
</g>
<!-- _CollectionType -->
<g id="node18" class="node">
<g id="a_node18"><a xlink:href="/protocol/_CollectionType/" target="_top">
<path fill="#999999" stroke="#999999" d="M1167.21,-312C1167.21,-312 1086.79,-312 1086.79,-312 1083.13,-312 1079.46,-308.333 1079.46,-304.667 1079.46,-304.667 1079.46,-297.333 1079.46,-297.333 1079.46,-293.667 1083.13,-290 1086.79,-290 1086.79,-290 1167.21,-290 1167.21,-290 1170.87,-290 1174.54,-293.667 1174.54,-297.333 1174.54,-297.333 1174.54,-304.667 1174.54,-304.667 1174.54,-308.333 1170.87,-312 1167.21,-312"/>
<text text-anchor="middle" x="1127" y="-297.4" font-family="Helvetica,sans-Serif" font-size="12.00" fill="white">_CollectionType</text>
</a>
</g>
</g>
<!-- _CollectionType&#45;&gt;CollectionType -->
<g id="edge16" class="edge">
<path fill="none" stroke="#cccccc" d="M1136.83,-289.988C1144.56,-282.123 1155.51,-270.974 1164.69,-261.624"/>
<polygon fill="#cccccc" stroke="#cccccc" points="1167.37,-263.891 1171.88,-254.304 1162.38,-258.986 1167.37,-263.891"/>
</g>
<!-- _Comparable -->
<g id="node19" class="node">
<g id="a_node19"><a xlink:href="/protocol/_Comparable/" target="_top">
<path fill="#999999" stroke="#999999" d="M74.6974,-138C74.6974,-138 7.30257,-138 7.30257,-138 3.6359,-138 -0.0307668,-134.333 -0.0307668,-130.667 -0.0307668,-130.667 -0.0307668,-123.333 -0.0307668,-123.333 -0.0307668,-119.667 3.6359,-116 7.30257,-116 7.30257,-116 74.6974,-116 74.6974,-116 78.3641,-116 82.0308,-119.667 82.0308,-123.333 82.0308,-123.333 82.0308,-130.667 82.0308,-130.667 82.0308,-134.333 78.3641,-138 74.6974,-138"/>
<text text-anchor="middle" x="41" y="-123.4" font-family="Helvetica,sans-Serif" font-size="12.00" fill="white">_Comparable</text>
</a>
</g>
</g>
<!-- _Comparable&#45;&gt;Comparable -->
<g id="edge23" class="edge">
<path fill="none" stroke="#cccccc" d="M41.3576,-115.988C41.6104,-108.91 41.9582,-99.1714 42.2686,-90.4779"/>
<polygon fill="#cccccc" stroke="#cccccc" points="45.7728,-90.4225 42.632,-80.3039 38.7772,-90.1726 45.7728,-90.4225"/>
</g>
<!-- _ExtensibleCollectionType&#45;&gt;ExtensibleCollectionType -->
<g id="edge28" class="edge">
<path fill="none" stroke="#cccccc" d="M1182,-173.988C1182,-166.91 1182,-157.171 1182,-148.478"/>
<polygon fill="#cccccc" stroke="#cccccc" points="1185.5,-148.304 1182,-138.304 1178.5,-148.304 1185.5,-148.304"/>
</g>
<!-- _SequenceType -->
<g id="node21" class="node">
<g id="a_node21"><a xlink:href="/protocol/_SequenceType/" target="_top">
<path fill="#999999" stroke="#999999" d="M1226.72,-428C1226.72,-428 1145.28,-428 1145.28,-428 1141.61,-428 1137.94,-424.333 1137.94,-420.667 1137.94,-420.667 1137.94,-413.333 1137.94,-413.333 1137.94,-409.667 1141.61,-406 1145.28,-406 1145.28,-406 1226.72,-406 1226.72,-406 1230.39,-406 1234.06,-409.667 1234.06,-413.333 1234.06,-413.333 1234.06,-420.667 1234.06,-420.667 1234.06,-424.333 1230.39,-428 1226.72,-428"/>
<text text-anchor="middle" x="1186" y="-413.4" font-family="Helvetica,sans-Serif" font-size="12.00" fill="white">_SequenceType</text>
</a>
</g>
</g>
<!-- _SequenceType&#45;&gt;_CollectionType -->
<g id="edge18" class="edge">
<path fill="none" stroke="#cccccc" d="M1180.76,-405.883C1170.95,-386.917 1149.63,-345.732 1136.99,-321.3"/>
<polygon fill="#cccccc" stroke="#cccccc" points="1140.01,-319.53 1132.31,-312.258 1133.8,-322.748 1140.01,-319.53"/>
</g>
<!-- _Sequence_Type -->
<g id="node22" class="node">
<g id="a_node22"><a xlink:href="/protocol/_Sequence_Type/" target="_top">
<path fill="#999999" stroke="#999999" d="M1274.23,-370C1274.23,-370 1185.77,-370 1185.77,-370 1182.11,-370 1178.44,-366.333 1178.44,-362.667 1178.44,-362.667 1178.44,-355.333 1178.44,-355.333 1178.44,-351.667 1182.11,-348 1185.77,-348 1185.77,-348 1274.23,-348 1274.23,-348 1277.89,-348 1281.56,-351.667 1281.56,-355.333 1281.56,-355.333 1281.56,-362.667 1281.56,-362.667 1281.56,-366.333 1277.89,-370 1274.23,-370"/>
<text text-anchor="middle" x="1230" y="-355.4" font-family="Helvetica,sans-Serif" font-size="12.00" fill="white">_Sequence_Type</text>
</a>
</g>
</g>
<!-- _SequenceType&#45;&gt;_Sequence_Type -->
<g id="edge20" class="edge">
<path fill="none" stroke="#cccccc" d="M1193.87,-405.988C1199.92,-398.281 1208.46,-387.419 1215.71,-378.187"/>
<polygon fill="#cccccc" stroke="#cccccc" points="1218.48,-380.329 1221.9,-370.304 1212.97,-376.005 1218.48,-380.329"/>
</g>
<!-- _Sequence_Type&#45;&gt;SequenceType -->
<g id="edge19" class="edge">
<path fill="none" stroke="#cccccc" d="M1231.43,-347.988C1232.44,-340.91 1233.83,-331.171 1235.07,-322.478"/>
<polygon fill="#cccccc" stroke="#cccccc" points="1238.58,-322.698 1236.53,-312.304 1231.65,-321.708 1238.58,-322.698"/>
</g>
<!-- _Sliceable&#45;&gt;Sliceable -->
<g id="edge26" class="edge">
<path fill="none" stroke="#cccccc" d="M1326.61,-173.988C1327.76,-166.831 1329.35,-156.955 1330.76,-148.189"/>
<polygon fill="#cccccc" stroke="#cccccc" points="1334.21,-148.733 1332.34,-138.304 1327.3,-147.622 1334.21,-148.733"/>
</g>
</g>
</svg>
