<?xml version="1.0" encoding="UTF-8" standalone="no"?>
<!DOCTYPE svg PUBLIC "-//W3C//DTD SVG 1.1//EN"
 "http://www.w3.org/Graphics/SVG/1.1/DTD/svg11.dtd">
<!-- Generated by graphviz version 2.36.0 (20140111.2315)
 -->
<!-- Title: Int32 &#45; Type Hierarchy &#45; SwiftDoc.org Pages: 1 -->
<svg width="985pt" height="601pt"
 viewBox="0.00 0.00 985.40 601.20" xmlns="http://www.w3.org/2000/svg" xmlns:xlink="http://www.w3.org/1999/xlink">
<g id="graph0" class="graph" transform="scale(1 1) rotate(0) translate(7.2 543.6)">
<title>Int32 &#45; Type Hierarchy &#45; SwiftDoc.org</title>
<polygon fill="white" stroke="none" points="-7.2,57.6 -7.2,-543.6 978.2,-543.6 978.2,57.6 -7.2,57.6"/>
<!-- BidirectionalIndexType -->
<g id="node1" class="node"><title>BidirectionalIndexType</title>
<g id="a_node1"><a xlink:href="/protocol/BidirectionalIndexType/" xlink:title="BidirectionalIndexType">
<path fill="#999999" stroke="#999999" d="M122.725,-254C122.725,-254 7.27461,-254 7.27461,-254 3.60795,-254 -0.0587187,-250.333 -0.0587187,-246.667 -0.0587187,-246.667 -0.0587187,-239.333 -0.0587187,-239.333 -0.0587187,-235.667 3.60795,-232 7.27461,-232 7.27461,-232 122.725,-232 122.725,-232 126.392,-232 130.059,-235.667 130.059,-239.333 130.059,-239.333 130.059,-246.667 130.059,-246.667 130.059,-250.333 126.392,-254 122.725,-254"/>
<text text-anchor="middle" x="65" y="-239.4" font-family="Helvetica,sans-Serif" font-size="12.00" fill="white">BidirectionalIndexType</text>
</a>
</g>
</g>
<!-- RandomAccessIndexType -->
<g id="node13" class="node"><title>RandomAccessIndexType</title>
<g id="a_node13"><a xlink:href="/protocol/RandomAccessIndexType/" xlink:title="RandomAccessIndexType">
<path fill="#999999" stroke="#999999" d="M452.225,-196C452.225,-196 317.775,-196 317.775,-196 314.108,-196 310.441,-192.333 310.441,-188.667 310.441,-188.667 310.441,-181.333 310.441,-181.333 310.441,-177.667 314.108,-174 317.775,-174 317.775,-174 452.225,-174 452.225,-174 455.892,-174 459.559,-177.667 459.559,-181.333 459.559,-181.333 459.559,-188.667 459.559,-188.667 459.559,-192.333 455.892,-196 452.225,-196"/>
<text text-anchor="middle" x="385" y="-181.4" font-family="Helvetica,sans-Serif" font-size="12.00" fill="white">RandomAccessIndexType</text>
</a>
</g>
</g>
<!-- BidirectionalIndexType&#45;&gt;RandomAccessIndexType -->
<g id="edge30" class="edge"><title>BidirectionalIndexType&#45;&gt;RandomAccessIndexType</title>
<path fill="none" stroke="#cccccc" d="M122.21,-231.988C176.987,-222.402 259.64,-207.938 317.588,-197.797"/>
<polygon fill="#cccccc" stroke="#cccccc" points="318.5,-201.191 327.747,-196.019 317.293,-194.296 318.5,-201.191"/>
</g>
<!-- BitwiseOperationsType -->
<g id="node2" class="node"><title>BitwiseOperationsType</title>
<g id="a_node2"><a xlink:href="/protocol/BitwiseOperationsType/" xlink:title="BitwiseOperationsType">
<path fill="#999999" stroke="#999999" d="M273.715,-254C273.715,-254 156.285,-254 156.285,-254 152.618,-254 148.952,-250.333 148.952,-246.667 148.952,-246.667 148.952,-239.333 148.952,-239.333 148.952,-235.667 152.618,-232 156.285,-232 156.285,-232 273.715,-232 273.715,-232 277.382,-232 281.048,-235.667 281.048,-239.333 281.048,-239.333 281.048,-246.667 281.048,-246.667 281.048,-250.333 277.382,-254 273.715,-254"/>
<text text-anchor="middle" x="215" y="-239.4" font-family="Helvetica,sans-Serif" font-size="12.00" fill="white">BitwiseOperationsType</text>
</a>
</g>
</g>
<!-- Int32 -->
<g id="node8" class="node"><title>Int32</title>
<g id="a_node8"><a xlink:href="/type/Int32/" xlink:title="Int32">
<polygon fill="#ee543d" stroke="#ee543d" points="561,-22 507,-22 507,-0 561,-0 561,-22"/>
<text text-anchor="middle" x="534" y="-7.4" font-family="Helvetica,sans-Serif" font-size="12.00" fill="white">Int32</text>
</a>
</g>
</g>
<!-- BitwiseOperationsType&#45;&gt;Int32 -->
<g id="edge6" class="edge"><title>BitwiseOperationsType&#45;&gt;Int32</title>
<path fill="none" stroke="#cccccc" d="M218.602,-231.669C230.161,-200.117 269.504,-104.345 336,-58 384.443,-24.237 454.145,-14.9581 496.622,-12.581"/>
<polygon fill="#cccccc" stroke="#cccccc" points="496.976,-16.0686 506.805,-12.1147 496.655,-9.0759 496.976,-16.0686"/>
</g>
<!-- _IntegerType -->
<g id="node23" class="node"><title>_IntegerType</title>
<g id="a_node23"><a xlink:href="/protocol/_IntegerType/" xlink:title="_IntegerType">
<path fill="#999999" stroke="#999999" d="M628.708,-196C628.708,-196 563.292,-196 563.292,-196 559.626,-196 555.959,-192.333 555.959,-188.667 555.959,-188.667 555.959,-181.333 555.959,-181.333 555.959,-177.667 559.626,-174 563.292,-174 563.292,-174 628.708,-174 628.708,-174 632.374,-174 636.041,-177.667 636.041,-181.333 636.041,-181.333 636.041,-188.667 636.041,-188.667 636.041,-192.333 632.374,-196 628.708,-196"/>
<text text-anchor="middle" x="596" y="-181.4" font-family="Helvetica,sans-Serif" font-size="12.00" fill="white">_IntegerType</text>
</a>
</g>
</g>
<!-- BitwiseOperationsType&#45;&gt;_IntegerType -->
<g id="edge17" class="edge"><title>BitwiseOperationsType&#45;&gt;_IntegerType</title>
<path fill="none" stroke="#cccccc" d="M281.365,-232.246C356.702,-221.172 477.916,-203.356 545.798,-193.379"/>
<polygon fill="#cccccc" stroke="#cccccc" points="546.433,-196.823 555.817,-191.906 545.415,-189.898 546.433,-196.823"/>
</g>
<!-- CVarArgType -->
<g id="node3" class="node"><title>CVarArgType</title>
<g id="a_node3"><a xlink:href="/protocol/CVarArgType/" xlink:title="CVarArgType">
<path fill="#999999" stroke="#999999" d="M419.029,-80C419.029,-80 352.971,-80 352.971,-80 349.304,-80 345.638,-76.3333 345.638,-72.6667 345.638,-72.6667 345.638,-65.3333 345.638,-65.3333 345.638,-61.6667 349.304,-58 352.971,-58 352.971,-58 419.029,-58 419.029,-58 422.696,-58 426.362,-61.6667 426.362,-65.3333 426.362,-65.3333 426.362,-72.6667 426.362,-72.6667 426.362,-76.3333 422.696,-80 419.029,-80"/>
<text text-anchor="middle" x="386" y="-65.4" font-family="Helvetica,sans-Serif" font-size="12.00" fill="white">CVarArgType</text>
</a>
</g>
</g>
<!-- CVarArgType&#45;&gt;Int32 -->
<g id="edge8" class="edge"><title>CVarArgType&#45;&gt;Int32</title>
<path fill="none" stroke="#cccccc" d="M412.459,-57.9883C436.199,-49.0057 471.259,-35.7398 497.631,-25.7614"/>
<polygon fill="#cccccc" stroke="#cccccc" points="499.156,-28.9263 507.271,-22.1138 496.679,-22.3793 499.156,-28.9263"/>
</g>
<!-- Comparable -->
<g id="node4" class="node"><title>Comparable</title>
<g id="a_node4"><a xlink:href="/protocol/Comparable/" xlink:title="Comparable">
<path fill="#999999" stroke="#999999" d="M749.191,-370C749.191,-370 688.809,-370 688.809,-370 685.142,-370 681.475,-366.333 681.475,-362.667 681.475,-362.667 681.475,-355.333 681.475,-355.333 681.475,-351.667 685.142,-348 688.809,-348 688.809,-348 749.191,-348 749.191,-348 752.858,-348 756.525,-351.667 756.525,-355.333 756.525,-355.333 756.525,-362.667 756.525,-362.667 756.525,-366.333 752.858,-370 749.191,-370"/>
<text text-anchor="middle" x="719" y="-355.4" font-family="Helvetica,sans-Serif" font-size="12.00" fill="white">Comparable</text>
</a>
</g>
</g>
<!-- IntegerArithmeticType -->
<g id="node9" class="node"><title>IntegerArithmeticType</title>
<g id="a_node9"><a xlink:href="/protocol/IntegerArithmeticType/" xlink:title="IntegerArithmeticType">
<path fill="#999999" stroke="#999999" d="M705.711,-254C705.711,-254 594.289,-254 594.289,-254 590.623,-254 586.956,-250.333 586.956,-246.667 586.956,-246.667 586.956,-239.333 586.956,-239.333 586.956,-235.667 590.623,-232 594.289,-232 594.289,-232 705.711,-232 705.711,-232 709.377,-232 713.044,-235.667 713.044,-239.333 713.044,-239.333 713.044,-246.667 713.044,-246.667 713.044,-250.333 709.377,-254 705.711,-254"/>
<text text-anchor="middle" x="650" y="-239.4" font-family="Helvetica,sans-Serif" font-size="12.00" fill="white">IntegerArithmeticType</text>
</a>
</g>
</g>
<!-- Comparable&#45;&gt;IntegerArithmeticType -->
<g id="edge21" class="edge"><title>Comparable&#45;&gt;IntegerArithmeticType</title>
<path fill="none" stroke="#cccccc" d="M717.686,-347.633C715.546,-333.67 710.348,-308.447 699,-290 692.096,-278.778 681.749,-268.505 672.339,-260.529"/>
<polygon fill="#cccccc" stroke="#cccccc" points="674.403,-257.697 664.422,-254.144 670.009,-263.146 674.403,-257.697"/>
</g>
<!-- Strideable -->
<g id="node17" class="node"><title>Strideable</title>
<g id="a_node17"><a xlink:href="/protocol/Strideable/" xlink:title="Strideable">
<path fill="#999999" stroke="#999999" d="M468.693,-312C468.693,-312 419.307,-312 419.307,-312 415.64,-312 411.974,-308.333 411.974,-304.667 411.974,-304.667 411.974,-297.333 411.974,-297.333 411.974,-293.667 415.64,-290 419.307,-290 419.307,-290 468.693,-290 468.693,-290 472.36,-290 476.026,-293.667 476.026,-297.333 476.026,-297.333 476.026,-304.667 476.026,-304.667 476.026,-308.333 472.36,-312 468.693,-312"/>
<text text-anchor="middle" x="444" y="-297.4" font-family="Helvetica,sans-Serif" font-size="12.00" fill="white">Strideable</text>
</a>
</g>
</g>
<!-- Comparable&#45;&gt;Strideable -->
<g id="edge39" class="edge"><title>Comparable&#45;&gt;Strideable</title>
<path fill="none" stroke="#cccccc" d="M681.626,-350.389C630.579,-339.994 539.32,-321.411 485.977,-310.548"/>
<polygon fill="#cccccc" stroke="#cccccc" points="486.654,-307.114 476.157,-308.548 485.257,-313.973 486.654,-307.114"/>
</g>
<!-- _SignedNumberType -->
<g id="node26" class="node"><title>_SignedNumberType</title>
<g id="a_node26"><a xlink:href="/protocol/_SignedNumberType/" xlink:title="_SignedNumberType">
<path fill="#999999" stroke="#999999" d="M883.723,-254C883.723,-254 776.277,-254 776.277,-254 772.611,-254 768.944,-250.333 768.944,-246.667 768.944,-246.667 768.944,-239.333 768.944,-239.333 768.944,-235.667 772.611,-232 776.277,-232 776.277,-232 883.723,-232 883.723,-232 887.389,-232 891.056,-235.667 891.056,-239.333 891.056,-239.333 891.056,-246.667 891.056,-246.667 891.056,-250.333 887.389,-254 883.723,-254"/>
<text text-anchor="middle" x="830" y="-239.4" font-family="Helvetica,sans-Serif" font-size="12.00" fill="white">_SignedNumberType</text>
</a>
</g>
</g>
<!-- Comparable&#45;&gt;_SignedNumberType -->
<g id="edge26" class="edge"><title>Comparable&#45;&gt;_SignedNumberType</title>
<path fill="none" stroke="#cccccc" d="M756.646,-353.59C803.405,-347.249 879.102,-333.851 896,-312 911.261,-292.267 885.289,-272.054 861.576,-258.852"/>
<polygon fill="#cccccc" stroke="#cccccc" points="863.165,-255.733 852.689,-254.151 859.892,-261.921 863.165,-255.733"/>
</g>
<!-- Equatable -->
<g id="node5" class="node"><title>Equatable</title>
<g id="a_node5"><a xlink:href="/protocol/Equatable/" xlink:title="Equatable">
<path fill="#999999" stroke="#999999" d="M708.702,-486C708.702,-486 659.298,-486 659.298,-486 655.632,-486 651.965,-482.333 651.965,-478.667 651.965,-478.667 651.965,-471.333 651.965,-471.333 651.965,-467.667 655.632,-464 659.298,-464 659.298,-464 708.702,-464 708.702,-464 712.368,-464 716.035,-467.667 716.035,-471.333 716.035,-471.333 716.035,-478.667 716.035,-478.667 716.035,-482.333 712.368,-486 708.702,-486"/>
<text text-anchor="middle" x="684" y="-471.4" font-family="Helvetica,sans-Serif" font-size="12.00" fill="white">Equatable</text>
</a>
</g>
</g>
<!-- Equatable&#45;&gt;Comparable -->
<g id="edge23" class="edge"><title>Equatable&#45;&gt;Comparable</title>
<path fill="none" stroke="#cccccc" d="M686.637,-463.804C690.138,-450.453 696.624,-426.353 703,-406 705.707,-397.36 708.948,-387.9 711.804,-379.818"/>
<polygon fill="#cccccc" stroke="#cccccc" points="715.182,-380.765 715.258,-370.171 708.592,-378.406 715.182,-380.765"/>
</g>
<!-- Hashable -->
<g id="node7" class="node"><title>Hashable</title>
<g id="a_node7"><a xlink:href="/protocol/Hashable/" xlink:title="Hashable">
<path fill="#999999" stroke="#999999" d="M962.694,-254C962.694,-254 917.306,-254 917.306,-254 913.639,-254 909.973,-250.333 909.973,-246.667 909.973,-246.667 909.973,-239.333 909.973,-239.333 909.973,-235.667 913.639,-232 917.306,-232 917.306,-232 962.694,-232 962.694,-232 966.361,-232 970.027,-235.667 970.027,-239.333 970.027,-239.333 970.027,-246.667 970.027,-246.667 970.027,-250.333 966.361,-254 962.694,-254"/>
<text text-anchor="middle" x="940" y="-239.4" font-family="Helvetica,sans-Serif" font-size="12.00" fill="white">Hashable</text>
</a>
</g>
</g>
<!-- Equatable&#45;&gt;Hashable -->
<g id="edge19" class="edge"><title>Equatable&#45;&gt;Hashable</title>
<path fill="none" stroke="#cccccc" d="M716.152,-465.791C741.208,-458.433 776.136,-446.003 803,-428 862.022,-388.447 874.754,-371.878 913,-312 922.59,-296.987 929.776,-278.014 934.313,-263.926"/>
<polygon fill="#cccccc" stroke="#cccccc" points="937.694,-264.838 937.263,-254.252 930.999,-262.796 937.694,-264.838"/>
</g>
<!-- _Incrementable -->
<g id="node21" class="node"><title>_Incrementable</title>
<g id="a_node21"><a xlink:href="/protocol/_Incrementable/" xlink:title="_Incrementable">
<path fill="#999999" stroke="#999999" d="M567.705,-428C567.705,-428 490.295,-428 490.295,-428 486.628,-428 482.961,-424.333 482.961,-420.667 482.961,-420.667 482.961,-413.333 482.961,-413.333 482.961,-409.667 486.628,-406 490.295,-406 490.295,-406 567.705,-406 567.705,-406 571.372,-406 575.039,-409.667 575.039,-413.333 575.039,-413.333 575.039,-420.667 575.039,-420.667 575.039,-424.333 571.372,-428 567.705,-428"/>
<text text-anchor="middle" x="529" y="-413.4" font-family="Helvetica,sans-Serif" font-size="12.00" fill="white">_Incrementable</text>
</a>
</g>
</g>
<!-- Equatable&#45;&gt;_Incrementable -->
<g id="edge24" class="edge"><title>Equatable&#45;&gt;_Incrementable</title>
<path fill="none" stroke="#cccccc" d="M656.289,-463.988C631.239,-454.938 594.155,-441.54 566.468,-431.537"/>
<polygon fill="#cccccc" stroke="#cccccc" points="567.326,-428.125 556.732,-428.019 564.948,-434.709 567.326,-428.125"/>
</g>
<!-- ForwardIndexType -->
<g id="node6" class="node"><title>ForwardIndexType</title>
<g id="a_node6"><a xlink:href="/protocol/ForwardIndexType/" xlink:title="ForwardIndexType">
<path fill="#999999" stroke="#999999" d="M135.206,-312C135.206,-312 40.7938,-312 40.7938,-312 37.1272,-312 33.4605,-308.333 33.4605,-304.667 33.4605,-304.667 33.4605,-297.333 33.4605,-297.333 33.4605,-293.667 37.1272,-290 40.7938,-290 40.7938,-290 135.206,-290 135.206,-290 138.873,-290 142.539,-293.667 142.539,-297.333 142.539,-297.333 142.539,-304.667 142.539,-304.667 142.539,-308.333 138.873,-312 135.206,-312"/>
<text text-anchor="middle" x="88" y="-297.4" font-family="Helvetica,sans-Serif" font-size="12.00" fill="white">ForwardIndexType</text>
</a>
</g>
</g>
<!-- ForwardIndexType&#45;&gt;BidirectionalIndexType -->
<g id="edge32" class="edge"><title>ForwardIndexType&#45;&gt;BidirectionalIndexType</title>
<path fill="none" stroke="#cccccc" d="M83.8881,-289.988C80.8839,-282.674 76.7133,-272.519 73.055,-263.612"/>
<polygon fill="#cccccc" stroke="#cccccc" points="76.2688,-262.224 69.2319,-254.304 69.7936,-264.884 76.2688,-262.224"/>
</g>
<!-- Hashable&#45;&gt;Int32 -->
<g id="edge2" class="edge"><title>Hashable&#45;&gt;Int32</title>
<path fill="none" stroke="#cccccc" d="M932.705,-231.619C909.832,-199.922 835.912,-103.779 750,-58 692.518,-27.3697 616.208,-17.1352 571.371,-13.7156"/>
<polygon fill="#cccccc" stroke="#cccccc" points="571.437,-10.212 561.22,-13.0176 570.956,-17.1955 571.437,-10.212"/>
</g>
<!-- Hashable&#45;&gt;_IntegerType -->
<g id="edge15" class="edge"><title>Hashable&#45;&gt;_IntegerType</title>
<path fill="none" stroke="#cccccc" d="M909.928,-234.157C906.589,-233.383 903.229,-232.646 900,-232 811.187,-214.221 706.55,-199.801 646.086,-192.098"/>
<polygon fill="#cccccc" stroke="#cccccc" points="646.407,-188.611 636.047,-190.83 645.529,-195.556 646.407,-188.611"/>
</g>
<!-- IntegerArithmeticType&#45;&gt;_IntegerType -->
<g id="edge16" class="edge"><title>IntegerArithmeticType&#45;&gt;_IntegerType</title>
<path fill="none" stroke="#cccccc" d="M640.346,-231.988C632.762,-224.123 622.011,-212.974 612.994,-203.624"/>
<polygon fill="#cccccc" stroke="#cccccc" points="615.397,-201.073 605.936,-196.304 610.358,-205.932 615.397,-201.073"/>
</g>
<!-- IntegerLiteralConvertible -->
<g id="node10" class="node"><title>IntegerLiteralConvertible</title>
<g id="a_node10"><a xlink:href="/protocol/IntegerLiteralConvertible/" xlink:title="IntegerLiteralConvertible">
<path fill="#999999" stroke="#999999" d="M879.722,-312C879.722,-312 754.278,-312 754.278,-312 750.611,-312 746.944,-308.333 746.944,-304.667 746.944,-304.667 746.944,-297.333 746.944,-297.333 746.944,-293.667 750.611,-290 754.278,-290 754.278,-290 879.722,-290 879.722,-290 883.389,-290 887.056,-293.667 887.056,-297.333 887.056,-297.333 887.056,-304.667 887.056,-304.667 887.056,-308.333 883.389,-312 879.722,-312"/>
<text text-anchor="middle" x="817" y="-297.4" font-family="Helvetica,sans-Serif" font-size="12.00" fill="white">IntegerLiteralConvertible</text>
</a>
</g>
</g>
<!-- IntegerLiteralConvertible&#45;&gt;_IntegerType -->
<g id="edge13" class="edge"><title>IntegerLiteralConvertible&#45;&gt;_IntegerType</title>
<path fill="none" stroke="#cccccc" d="M805.101,-289.845C787.761,-275.44 754.108,-248.947 722,-232 696.297,-218.434 665.708,-207.162 641.107,-199.172"/>
<polygon fill="#cccccc" stroke="#cccccc" points="641.898,-195.751 631.308,-196.059 639.778,-202.422 641.898,-195.751"/>
</g>
<!-- IntegerLiteralConvertible&#45;&gt;_SignedNumberType -->
<g id="edge27" class="edge"><title>IntegerLiteralConvertible&#45;&gt;_SignedNumberType</title>
<path fill="none" stroke="#cccccc" d="M819.324,-289.988C820.986,-282.831 823.278,-272.955 825.313,-264.189"/>
<polygon fill="#cccccc" stroke="#cccccc" points="828.756,-264.836 827.608,-254.304 821.937,-263.253 828.756,-264.836"/>
</g>
<!-- IntegerType -->
<g id="node11" class="node"><title>IntegerType</title>
<g id="a_node11"><a xlink:href="/protocol/IntegerType/" xlink:title="IntegerType">
<path fill="#999999" stroke="#999999" d="M587.202,-138C587.202,-138 528.798,-138 528.798,-138 525.132,-138 521.465,-134.333 521.465,-130.667 521.465,-130.667 521.465,-123.333 521.465,-123.333 521.465,-119.667 525.132,-116 528.798,-116 528.798,-116 587.202,-116 587.202,-116 590.868,-116 594.535,-119.667 594.535,-123.333 594.535,-123.333 594.535,-130.667 594.535,-130.667 594.535,-134.333 590.868,-138 587.202,-138"/>
<text text-anchor="middle" x="558" y="-123.4" font-family="Helvetica,sans-Serif" font-size="12.00" fill="white">IntegerType</text>
</a>
</g>
</g>
<!-- SignedIntegerType -->
<g id="node15" class="node"><title>SignedIntegerType</title>
<g id="a_node15"><a xlink:href="/protocol/SignedIntegerType/" xlink:title="SignedIntegerType">
<path fill="#999999" stroke="#999999" d="M623.727,-80C623.727,-80 528.273,-80 528.273,-80 524.606,-80 520.94,-76.3333 520.94,-72.6667 520.94,-72.6667 520.94,-65.3333 520.94,-65.3333 520.94,-61.6667 524.606,-58 528.273,-58 528.273,-58 623.727,-58 623.727,-58 627.394,-58 631.06,-61.6667 631.06,-65.3333 631.06,-65.3333 631.06,-72.6667 631.06,-72.6667 631.06,-76.3333 627.394,-80 623.727,-80"/>
<text text-anchor="middle" x="576" y="-65.4" font-family="Helvetica,sans-Serif" font-size="12.00" fill="white">SignedIntegerType</text>
</a>
</g>
</g>
<!-- IntegerType&#45;&gt;SignedIntegerType -->
<g id="edge10" class="edge"><title>IntegerType&#45;&gt;SignedIntegerType</title>
<path fill="none" stroke="#cccccc" d="M561.218,-115.988C563.544,-108.752 566.763,-98.7373 569.604,-89.9"/>
<polygon fill="#cccccc" stroke="#cccccc" points="572.96,-90.8952 572.688,-80.3039 566.296,-88.7531 572.96,-90.8952"/>
</g>
<!-- Printable -->
<g id="node12" class="node"><title>Printable</title>
<g id="a_node12"><a xlink:href="/protocol/Printable/" xlink:title="Printable">
<path fill="#999999" stroke="#999999" d="M523.187,-254C523.187,-254 480.813,-254 480.813,-254 477.147,-254 473.48,-250.333 473.48,-246.667 473.48,-246.667 473.48,-239.333 473.48,-239.333 473.48,-235.667 477.147,-232 480.813,-232 480.813,-232 523.187,-232 523.187,-232 526.853,-232 530.52,-235.667 530.52,-239.333 530.52,-239.333 530.52,-246.667 530.52,-246.667 530.52,-250.333 526.853,-254 523.187,-254"/>
<text text-anchor="middle" x="502" y="-239.4" font-family="Helvetica,sans-Serif" font-size="12.00" fill="white">Printable</text>
</a>
</g>
</g>
<!-- Printable&#45;&gt;Int32 -->
<g id="edge3" class="edge"><title>Printable&#45;&gt;Int32</title>
<path fill="none" stroke="#cccccc" d="M501.185,-231.819C499.22,-203.645 495.524,-122.471 512,-58 514.369,-48.7317 518.658,-39.0915 522.824,-31.0449"/>
<polygon fill="#cccccc" stroke="#cccccc" points="525.961,-32.6024 527.707,-22.1523 519.826,-29.2329 525.961,-32.6024"/>
</g>
<!-- Printable&#45;&gt;_IntegerType -->
<g id="edge14" class="edge"><title>Printable&#45;&gt;_IntegerType</title>
<path fill="none" stroke="#cccccc" d="M518.805,-231.988C533.153,-223.441 554.01,-211.015 570.428,-201.234"/>
<polygon fill="#cccccc" stroke="#cccccc" points="572.224,-204.239 579.023,-196.114 568.641,-198.225 572.224,-204.239"/>
</g>
<!-- RandomAccessIndexType&#45;&gt;Int32 -->
<g id="edge4" class="edge"><title>RandomAccessIndexType&#45;&gt;Int32</title>
<path fill="none" stroke="#cccccc" d="M391.354,-173.91C405.579,-151.707 441.678,-97.4554 479,-58 489.125,-47.2965 501.644,-36.6574 512.179,-28.3111"/>
<polygon fill="#cccccc" stroke="#cccccc" points="514.364,-31.0465 520.12,-22.1517 510.073,-25.5155 514.364,-31.0465"/>
</g>
<!-- RandomAccessIndexType&#45;&gt;IntegerType -->
<g id="edge29" class="edge"><title>RandomAccessIndexType&#45;&gt;IntegerType</title>
<path fill="none" stroke="#cccccc" d="M415.929,-173.988C444.255,-164.819 486.37,-151.187 517.396,-141.144"/>
<polygon fill="#cccccc" stroke="#cccccc" points="518.612,-144.429 527.048,-138.019 516.456,-137.769 518.612,-144.429"/>
</g>
<!-- Reflectable -->
<g id="node14" class="node"><title>Reflectable</title>
<g id="a_node14"><a xlink:href="/protocol/Reflectable/" xlink:title="Reflectable">
<path fill="#999999" stroke="#999999" d="M711.693,-80C711.693,-80 656.307,-80 656.307,-80 652.64,-80 648.974,-76.3333 648.974,-72.6667 648.974,-72.6667 648.974,-65.3333 648.974,-65.3333 648.974,-61.6667 652.64,-58 656.307,-58 656.307,-58 711.693,-58 711.693,-58 715.36,-58 719.026,-61.6667 719.026,-65.3333 719.026,-65.3333 719.026,-72.6667 719.026,-72.6667 719.026,-76.3333 715.36,-80 711.693,-80"/>
<text text-anchor="middle" x="684" y="-65.4" font-family="Helvetica,sans-Serif" font-size="12.00" fill="white">Reflectable</text>
</a>
</g>
</g>
<!-- Reflectable&#45;&gt;Int32 -->
<g id="edge7" class="edge"><title>Reflectable&#45;&gt;Int32</title>
<path fill="none" stroke="#cccccc" d="M657.183,-57.9883C632.941,-48.9381 597.053,-35.5399 570.259,-25.5367"/>
<polygon fill="#cccccc" stroke="#cccccc" points="571.43,-22.2379 560.837,-22.0192 568.982,-28.7958 571.43,-22.2379"/>
</g>
<!-- SignedIntegerType&#45;&gt;Int32 -->
<g id="edge1" class="edge"><title>SignedIntegerType&#45;&gt;Int32</title>
<path fill="none" stroke="#cccccc" d="M568.491,-57.9883C562.769,-50.3592 554.73,-39.6405 547.853,-30.4702"/>
<polygon fill="#cccccc" stroke="#cccccc" points="550.528,-28.2039 541.728,-22.3039 544.928,-32.4039 550.528,-28.2039"/>
</g>
<!-- SignedNumberType -->
<g id="node16" class="node"><title>SignedNumberType</title>
<g id="a_node16"><a xlink:href="/protocol/SignedNumberType/" xlink:title="SignedNumberType">
<path fill="#999999" stroke="#999999" d="M808.716,-196C808.716,-196 707.284,-196 707.284,-196 703.617,-196 699.95,-192.333 699.95,-188.667 699.95,-188.667 699.95,-181.333 699.95,-181.333 699.95,-177.667 703.617,-174 707.284,-174 707.284,-174 808.716,-174 808.716,-174 812.383,-174 816.05,-177.667 816.05,-181.333 816.05,-181.333 816.05,-188.667 816.05,-188.667 816.05,-192.333 812.383,-196 808.716,-196"/>
<text text-anchor="middle" x="758" y="-181.4" font-family="Helvetica,sans-Serif" font-size="12.00" fill="white">SignedNumberType</text>
</a>
</g>
</g>
<!-- SignedNumberType&#45;&gt;Int32 -->
<g id="edge5" class="edge"><title>SignedNumberType&#45;&gt;Int32</title>
<path fill="none" stroke="#cccccc" d="M758.848,-173.832C760.235,-149.994 760.134,-90.1038 728,-58 706.225,-36.2448 621.072,-22.5158 571.112,-16.161"/>
<polygon fill="#cccccc" stroke="#cccccc" points="571.374,-12.6668 561.021,-14.9166 570.517,-19.6142 571.374,-12.6668"/>
</g>
<!-- _SignedIntegerType -->
<g id="node25" class="node"><title>_SignedIntegerType</title>
<g id="a_node25"><a xlink:href="/protocol/_SignedIntegerType/" xlink:title="_SignedIntegerType">
<path fill="#999999" stroke="#999999" d="M722.231,-138C722.231,-138 619.769,-138 619.769,-138 616.102,-138 612.436,-134.333 612.436,-130.667 612.436,-130.667 612.436,-123.333 612.436,-123.333 612.436,-119.667 616.102,-116 619.769,-116 619.769,-116 722.231,-116 722.231,-116 725.898,-116 729.564,-119.667 729.564,-123.333 729.564,-123.333 729.564,-130.667 729.564,-130.667 729.564,-134.333 725.898,-138 722.231,-138"/>
<text text-anchor="middle" x="671" y="-123.4" font-family="Helvetica,sans-Serif" font-size="12.00" fill="white">_SignedIntegerType</text>
</a>
</g>
</g>
<!-- SignedNumberType&#45;&gt;_SignedIntegerType -->
<g id="edge12" class="edge"><title>SignedNumberType&#45;&gt;_SignedIntegerType</title>
<path fill="none" stroke="#cccccc" d="M742.446,-173.988C729.413,-165.599 710.576,-153.474 695.516,-143.78"/>
<polygon fill="#cccccc" stroke="#cccccc" points="697.016,-140.583 686.713,-138.114 693.227,-146.469 697.016,-140.583"/>
</g>
<!-- _RandomAccessIndexType -->
<g id="node24" class="node"><title>_RandomAccessIndexType</title>
<g id="a_node24"><a xlink:href="/protocol/_RandomAccessIndexType/" xlink:title="_RandomAccessIndexType">
<path fill="#999999" stroke="#999999" d="M447.731,-254C447.731,-254 306.269,-254 306.269,-254 302.602,-254 298.936,-250.333 298.936,-246.667 298.936,-246.667 298.936,-239.333 298.936,-239.333 298.936,-235.667 302.602,-232 306.269,-232 306.269,-232 447.731,-232 447.731,-232 451.398,-232 455.064,-235.667 455.064,-239.333 455.064,-239.333 455.064,-246.667 455.064,-246.667 455.064,-250.333 451.398,-254 447.731,-254"/>
<text text-anchor="middle" x="377" y="-239.4" font-family="Helvetica,sans-Serif" font-size="12.00" fill="white">_RandomAccessIndexType</text>
</a>
</g>
</g>
<!-- Strideable&#45;&gt;_RandomAccessIndexType -->
<g id="edge38" class="edge"><title>Strideable&#45;&gt;_RandomAccessIndexType</title>
<path fill="none" stroke="#cccccc" d="M432.022,-289.988C422.329,-281.887 408.469,-270.303 397.085,-260.787"/>
<polygon fill="#cccccc" stroke="#cccccc" points="399.245,-258.032 389.328,-254.304 394.756,-263.403 399.245,-258.032"/>
</g>
<!-- _BidirectionalIndexType -->
<g id="node18" class="node"><title>_BidirectionalIndexType</title>
<g id="a_node18"><a xlink:href="/protocol/_BidirectionalIndexType/" xlink:title="_BidirectionalIndexType">
<path fill="#999999" stroke="#999999" d="M322.23,-312C322.23,-312 199.77,-312 199.77,-312 196.104,-312 192.437,-308.333 192.437,-304.667 192.437,-304.667 192.437,-297.333 192.437,-297.333 192.437,-293.667 196.104,-290 199.77,-290 199.77,-290 322.23,-290 322.23,-290 325.896,-290 329.563,-293.667 329.563,-297.333 329.563,-297.333 329.563,-304.667 329.563,-304.667 329.563,-308.333 325.896,-312 322.23,-312"/>
<text text-anchor="middle" x="261" y="-297.4" font-family="Helvetica,sans-Serif" font-size="12.00" fill="white">_BidirectionalIndexType</text>
</a>
</g>
</g>
<!-- _BidirectionalIndexType&#45;&gt;BidirectionalIndexType -->
<g id="edge33" class="edge"><title>_BidirectionalIndexType&#45;&gt;BidirectionalIndexType</title>
<path fill="none" stroke="#cccccc" d="M225.959,-289.988C193.589,-280.74 145.326,-266.95 110.093,-256.884"/>
<polygon fill="#cccccc" stroke="#cccccc" points="110.644,-253.401 100.067,-254.019 108.721,-260.132 110.644,-253.401"/>
</g>
<!-- _BidirectionalIndexType&#45;&gt;_RandomAccessIndexType -->
<g id="edge37" class="edge"><title>_BidirectionalIndexType&#45;&gt;_RandomAccessIndexType</title>
<path fill="none" stroke="#cccccc" d="M281.738,-289.988C299.853,-281.243 326.378,-268.438 346.841,-258.559"/>
<polygon fill="#cccccc" stroke="#cccccc" points="348.566,-261.613 356.05,-254.114 345.523,-255.309 348.566,-261.613"/>
</g>
<!-- _Comparable -->
<g id="node19" class="node"><title>_Comparable</title>
<g id="a_node19"><a xlink:href="/protocol/_Comparable/" xlink:title="_Comparable">
<path fill="#999999" stroke="#999999" d="M786.697,-428C786.697,-428 719.303,-428 719.303,-428 715.636,-428 711.969,-424.333 711.969,-420.667 711.969,-420.667 711.969,-413.333 711.969,-413.333 711.969,-409.667 715.636,-406 719.303,-406 719.303,-406 786.697,-406 786.697,-406 790.364,-406 794.031,-409.667 794.031,-413.333 794.031,-413.333 794.031,-420.667 794.031,-420.667 794.031,-424.333 790.364,-428 786.697,-428"/>
<text text-anchor="middle" x="753" y="-413.4" font-family="Helvetica,sans-Serif" font-size="12.00" fill="white">_Comparable</text>
</a>
</g>
</g>
<!-- _Comparable&#45;&gt;Comparable -->
<g id="edge22" class="edge"><title>_Comparable&#45;&gt;Comparable</title>
<path fill="none" stroke="#cccccc" d="M746.921,-405.988C742.385,-398.517 736.049,-388.081 730.56,-379.039"/>
<polygon fill="#cccccc" stroke="#cccccc" points="733.438,-377.035 725.256,-370.304 727.454,-380.668 733.438,-377.035"/>
</g>
<!-- _ForwardIndexType -->
<g id="node20" class="node"><title>_ForwardIndexType</title>
<g id="a_node20"><a xlink:href="/protocol/_ForwardIndexType/" xlink:title="_ForwardIndexType">
<path fill="#999999" stroke="#999999" d="M311.712,-370C311.712,-370 210.288,-370 210.288,-370 206.621,-370 202.955,-366.333 202.955,-362.667 202.955,-362.667 202.955,-355.333 202.955,-355.333 202.955,-351.667 206.621,-348 210.288,-348 210.288,-348 311.712,-348 311.712,-348 315.379,-348 319.045,-351.667 319.045,-355.333 319.045,-355.333 319.045,-362.667 319.045,-362.667 319.045,-366.333 315.379,-370 311.712,-370"/>
<text text-anchor="middle" x="261" y="-355.4" font-family="Helvetica,sans-Serif" font-size="12.00" fill="white">_ForwardIndexType</text>
</a>
</g>
</g>
<!-- _ForwardIndexType&#45;&gt;ForwardIndexType -->
<g id="edge34" class="edge"><title>_ForwardIndexType&#45;&gt;ForwardIndexType</title>
<path fill="none" stroke="#cccccc" d="M230.071,-347.988C201.745,-338.819 159.63,-325.187 128.604,-315.144"/>
<polygon fill="#cccccc" stroke="#cccccc" points="129.544,-311.769 118.952,-312.019 127.388,-318.429 129.544,-311.769"/>
</g>
<!-- _ForwardIndexType&#45;&gt;_BidirectionalIndexType -->
<g id="edge36" class="edge"><title>_ForwardIndexType&#45;&gt;_BidirectionalIndexType</title>
<path fill="none" stroke="#cccccc" d="M261,-347.988C261,-340.91 261,-331.171 261,-322.478"/>
<polygon fill="#cccccc" stroke="#cccccc" points="264.5,-322.304 261,-312.304 257.5,-322.304 264.5,-322.304"/>
</g>
<!-- _Incrementable&#45;&gt;_ForwardIndexType -->
<g id="edge35" class="edge"><title>_Incrementable&#45;&gt;_ForwardIndexType</title>
<path fill="none" stroke="#cccccc" d="M482.929,-406.373C437.565,-396.894 368.129,-382.385 319.024,-372.124"/>
<polygon fill="#cccccc" stroke="#cccccc" points="319.683,-368.687 309.179,-370.067 318.252,-375.539 319.683,-368.687"/>
</g>
<!-- _Incrementable&#45;&gt;_IntegerType -->
<g id="edge18" class="edge"><title>_Incrementable&#45;&gt;_IntegerType</title>
<path fill="none" stroke="#cccccc" d="M529.548,-405.989C530.939,-384.387 535.431,-331.96 548,-290 557.268,-259.059 574.098,-225.516 585.163,-205.127"/>
<polygon fill="#cccccc" stroke="#cccccc" points="588.299,-206.689 590.074,-196.244 582.172,-203.302 588.299,-206.689"/>
</g>
<!-- _IntegerArithmeticType -->
<g id="node22" class="node"><title>_IntegerArithmeticType</title>
<g id="a_node22"><a xlink:href="/protocol/_IntegerArithmeticType/" xlink:title="_IntegerArithmeticType">
<path fill="#999999" stroke="#999999" d="M683.215,-312C683.215,-312 564.785,-312 564.785,-312 561.118,-312 557.452,-308.333 557.452,-304.667 557.452,-304.667 557.452,-297.333 557.452,-297.333 557.452,-293.667 561.118,-290 564.785,-290 564.785,-290 683.215,-290 683.215,-290 686.882,-290 690.548,-293.667 690.548,-297.333 690.548,-297.333 690.548,-304.667 690.548,-304.667 690.548,-308.333 686.882,-312 683.215,-312"/>
<text text-anchor="middle" x="624" y="-297.4" font-family="Helvetica,sans-Serif" font-size="12.00" fill="white">_IntegerArithmeticType</text>
</a>
</g>
</g>
<!-- _IntegerArithmeticType&#45;&gt;IntegerArithmeticType -->
<g id="edge20" class="edge"><title>_IntegerArithmeticType&#45;&gt;IntegerArithmeticType</title>
<path fill="none" stroke="#cccccc" d="M628.648,-289.988C632.044,-282.674 636.759,-272.519 640.894,-263.612"/>
<polygon fill="#cccccc" stroke="#cccccc" points="644.179,-264.848 645.216,-254.304 637.83,-261.9 644.179,-264.848"/>
</g>
<!-- _IntegerType&#45;&gt;IntegerType -->
<g id="edge28" class="edge"><title>_IntegerType&#45;&gt;IntegerType</title>
<path fill="none" stroke="#cccccc" d="M589.206,-173.988C584.083,-166.438 576.906,-155.861 570.726,-146.754"/>
<polygon fill="#cccccc" stroke="#cccccc" points="573.503,-144.613 564.992,-138.304 567.711,-148.544 573.503,-144.613"/>
</g>
<!-- _IntegerType&#45;&gt;_SignedIntegerType -->
<g id="edge11" class="edge"><title>_IntegerType&#45;&gt;_SignedIntegerType</title>
<path fill="none" stroke="#cccccc" d="M609.408,-173.988C620.432,-165.758 636.272,-153.931 649.127,-144.332"/>
<polygon fill="#cccccc" stroke="#cccccc" points="651.536,-146.901 657.455,-138.114 647.348,-141.292 651.536,-146.901"/>
</g>
<!-- _RandomAccessIndexType&#45;&gt;RandomAccessIndexType -->
<g id="edge31" class="edge"><title>_RandomAccessIndexType&#45;&gt;RandomAccessIndexType</title>
<path fill="none" stroke="#cccccc" d="M378.43,-231.988C379.441,-224.91 380.833,-215.171 382.075,-206.478"/>
<polygon fill="#cccccc" stroke="#cccccc" points="385.579,-206.698 383.528,-196.304 378.649,-205.708 385.579,-206.698"/>
</g>
<!-- _SignedIntegerType&#45;&gt;SignedIntegerType -->
<g id="edge9" class="edge"><title>_SignedIntegerType&#45;&gt;SignedIntegerType</title>
<path fill="none" stroke="#cccccc" d="M654.016,-115.988C639.516,-107.441 618.437,-95.0155 601.844,-85.2343"/>
<polygon fill="#cccccc" stroke="#cccccc" points="603.549,-82.1768 593.157,-80.1138 599.995,-88.2071 603.549,-82.1768"/>
</g>
<!-- _SignedNumberType&#45;&gt;SignedNumberType -->
<g id="edge25" class="edge"><title>_SignedNumberType&#45;&gt;SignedNumberType</title>
<path fill="none" stroke="#cccccc" d="M817.128,-231.988C806.611,-223.809 791.528,-212.077 779.228,-202.511"/>
<polygon fill="#cccccc" stroke="#cccccc" points="781.29,-199.681 771.248,-196.304 776.993,-205.206 781.29,-199.681"/>
</g>
<!-- _Strideable -->
<g id="node27" class="node"><title>_Strideable</title>
<g id="a_node27"><a xlink:href="/protocol/_Strideable/" xlink:title="_Strideable">
<path fill="#999999" stroke="#999999" d="M471.7,-370C471.7,-370 416.3,-370 416.3,-370 412.634,-370 408.967,-366.333 408.967,-362.667 408.967,-362.667 408.967,-355.333 408.967,-355.333 408.967,-351.667 412.634,-348 416.3,-348 416.3,-348 471.7,-348 471.7,-348 475.366,-348 479.033,-351.667 479.033,-355.333 479.033,-355.333 479.033,-362.667 479.033,-362.667 479.033,-366.333 475.366,-370 471.7,-370"/>
<text text-anchor="middle" x="444" y="-355.4" font-family="Helvetica,sans-Serif" font-size="12.00" fill="white">_Strideable</text>
</a>
</g>
</g>
<!-- _Strideable&#45;&gt;Strideable -->
<g id="edge40" class="edge"><title>_Strideable&#45;&gt;Strideable</title>
<path fill="none" stroke="#cccccc" d="M444,-347.988C444,-340.91 444,-331.171 444,-322.478"/>
<polygon fill="#cccccc" stroke="#cccccc" points="447.5,-322.304 444,-312.304 440.5,-322.304 447.5,-322.304"/>
</g>
</g>
</svg>
