<?xml version="1.0" encoding="UTF-8" standalone="no"?>
<!DOCTYPE svg PUBLIC "-//W3C//DTD SVG 1.1//EN"
 "http://www.w3.org/Graphics/SVG/1.1/DTD/svg11.dtd">
<!-- Generated by graphviz version 2.36.0 (20140111.2315)
 -->
<!-- Title: SetAlgebraType &#45; Type Hierarchy &#45; SwiftDoc.org Pages: 1 -->
<svg width="228pt" height="253pt"
 viewBox="0.00 0.00 228.40 253.20" xmlns="http://www.w3.org/2000/svg" xmlns:xlink="http://www.w3.org/1999/xlink">
<g id="graph0" class="graph" transform="scale(1 1) rotate(0) translate(7.2 195.6)">
<title>SetAlgebraType &#45; Type Hierarchy &#45; SwiftDoc.org</title>
<polygon fill="white" stroke="none" points="-7.2,57.6 -7.2,-195.6 221.2,-195.6 221.2,57.6 -7.2,57.6"/>
<!-- ArrayLiteralConvertible -->
<g id="node1" class="node"><title>ArrayLiteralConvertible</title>
<g id="a_node1"><a xlink:href="/protocol/ArrayLiteralConvertible/" xlink:title="ArrayLiteralConvertible">
<path fill="#999999" stroke="#999999" d="M124.705,-138C124.705,-138 7.29524,-138 7.29524,-138 3.62858,-138 -0.0380908,-134.333 -0.0380908,-130.667 -0.0380908,-130.667 -0.0380908,-123.333 -0.0380908,-123.333 -0.0380908,-119.667 3.62858,-116 7.29524,-116 7.29524,-116 124.705,-116 124.705,-116 128.371,-116 132.038,-119.667 132.038,-123.333 132.038,-123.333 132.038,-130.667 132.038,-130.667 132.038,-134.333 128.371,-138 124.705,-138"/>
<text text-anchor="middle" x="66" y="-123.4" font-family="Helvetica,sans-Serif" font-size="12.00" fill="white">ArrayLiteralConvertible</text>
</a>
</g>
</g>
<!-- SetAlgebraType -->
<g id="node4" class="node"><title>SetAlgebraType</title>
<g id="a_node4"><a xlink:href="/protocol/SetAlgebraType/" xlink:title="SetAlgebraType">
<path fill="#ee543d" stroke="#ee543d" d="M164.212,-80C164.212,-80 83.7881,-80 83.7881,-80 80.1214,-80 76.4547,-76.3333 76.4547,-72.6667 76.4547,-72.6667 76.4547,-65.3333 76.4547,-65.3333 76.4547,-61.6667 80.1214,-58 83.7881,-58 83.7881,-58 164.212,-58 164.212,-58 167.879,-58 171.545,-61.6667 171.545,-65.3333 171.545,-65.3333 171.545,-72.6667 171.545,-72.6667 171.545,-76.3333 167.879,-80 164.212,-80"/>
<text text-anchor="middle" x="124" y="-65.4" font-family="Helvetica,sans-Serif" font-size="12.00" fill="white">SetAlgebraType</text>
</a>
</g>
</g>
<!-- ArrayLiteralConvertible&#45;&gt;SetAlgebraType -->
<g id="edge3" class="edge"><title>ArrayLiteralConvertible&#45;&gt;SetAlgebraType</title>
<path fill="none" stroke="#cccccc" d="M76.3692,-115.988C84.5966,-108.045 96.2934,-96.7512 106.037,-87.3439"/>
<polygon fill="#cccccc" stroke="#cccccc" points="108.565,-89.7678 113.328,-80.3039 103.703,-84.7319 108.565,-89.7678"/>
</g>
<!-- Equatable -->
<g id="node2" class="node"><title>Equatable</title>
<g id="a_node2"><a xlink:href="/protocol/Equatable/" xlink:title="Equatable">
<path fill="#999999" stroke="#999999" d="M206.702,-138C206.702,-138 157.298,-138 157.298,-138 153.632,-138 149.965,-134.333 149.965,-130.667 149.965,-130.667 149.965,-123.333 149.965,-123.333 149.965,-119.667 153.632,-116 157.298,-116 157.298,-116 206.702,-116 206.702,-116 210.368,-116 214.035,-119.667 214.035,-123.333 214.035,-123.333 214.035,-130.667 214.035,-130.667 214.035,-134.333 210.368,-138 206.702,-138"/>
<text text-anchor="middle" x="182" y="-123.4" font-family="Helvetica,sans-Serif" font-size="12.00" fill="white">Equatable</text>
</a>
</g>
</g>
<!-- Equatable&#45;&gt;SetAlgebraType -->
<g id="edge2" class="edge"><title>Equatable&#45;&gt;SetAlgebraType</title>
<path fill="none" stroke="#cccccc" d="M171.631,-115.988C163.403,-108.045 151.707,-96.7512 141.963,-87.3439"/>
<polygon fill="#cccccc" stroke="#cccccc" points="144.297,-84.7319 134.672,-80.3039 139.435,-89.7678 144.297,-84.7319"/>
</g>
<!-- OptionSetType -->
<g id="node3" class="node"><title>OptionSetType</title>
<g id="a_node3"><a xlink:href="/protocol/OptionSetType/" xlink:title="OptionSetType">
<path fill="#999999" stroke="#999999" d="M161.208,-22C161.208,-22 86.7925,-22 86.7925,-22 83.1258,-22 79.4592,-18.3333 79.4592,-14.6667 79.4592,-14.6667 79.4592,-7.33333 79.4592,-7.33333 79.4592,-3.66667 83.1258,-0 86.7925,-0 86.7925,-0 161.208,-0 161.208,-0 164.874,-0 168.541,-3.66667 168.541,-7.33333 168.541,-7.33333 168.541,-14.6667 168.541,-14.6667 168.541,-18.3333 164.874,-22 161.208,-22"/>
<text text-anchor="middle" x="124" y="-7.4" font-family="Helvetica,sans-Serif" font-size="12.00" fill="white">OptionSetType</text>
</a>
</g>
</g>
<!-- SetAlgebraType&#45;&gt;OptionSetType -->
<g id="edge1" class="edge"><title>SetAlgebraType&#45;&gt;OptionSetType</title>
<path fill="none" stroke="#cccccc" d="M124,-57.9883C124,-50.9098 124,-41.1714 124,-32.4779"/>
<polygon fill="#cccccc" stroke="#cccccc" points="127.5,-32.3038 124,-22.3039 120.5,-32.3039 127.5,-32.3038"/>
</g>
</g>
</svg>
