<?xml version="1.0" encoding="UTF-8" standalone="no"?>
<!DOCTYPE svg PUBLIC "-//W3C//DTD SVG 1.1//EN"
 "http://www.w3.org/Graphics/SVG/1.1/DTD/svg11.dtd">
<!-- Generated by graphviz version 2.36.0 (20140111.2315)
 -->
<!-- Title: String.CharacterView.Index &#45; Type Hierarchy &#45; SwiftDoc.org Pages: 1 -->
<svg width="440pt" height="369pt"
 viewBox="0.00 0.00 440.40 369.20" xmlns="http://www.w3.org/2000/svg" xmlns:xlink="http://www.w3.org/1999/xlink">
<g id="graph0" class="graph" transform="scale(1 1) rotate(0) translate(7.2 311.6)">
<title>String.CharacterView.Index &#45; Type Hierarchy &#45; SwiftDoc.org</title>
<polygon fill="white" stroke="none" points="-7.2,57.6 -7.2,-311.6 433.2,-311.6 433.2,57.6 -7.2,57.6"/>
<!-- BidirectionalIndexType -->
<g id="node1" class="node"><title>BidirectionalIndexType</title>
<g id="a_node1"><a xlink:href="/protocol/BidirectionalIndexType/" xlink:title="BidirectionalIndexType">
<path fill="#999999" stroke="#999999" d="M253.725,-80C253.725,-80 138.275,-80 138.275,-80 134.608,-80 130.941,-76.3333 130.941,-72.6667 130.941,-72.6667 130.941,-65.3333 130.941,-65.3333 130.941,-61.6667 134.608,-58 138.275,-58 138.275,-58 253.725,-58 253.725,-58 257.392,-58 261.059,-61.6667 261.059,-65.3333 261.059,-65.3333 261.059,-72.6667 261.059,-72.6667 261.059,-76.3333 257.392,-80 253.725,-80"/>
<text text-anchor="middle" x="196" y="-65.4" font-family="Helvetica,sans-Serif" font-size="12.00" fill="white">BidirectionalIndexType</text>
</a>
</g>
</g>
<!-- String.CharacterView.Index -->
<g id="node6" class="node"><title>String.CharacterView.Index</title>
<g id="a_node6"><a xlink:href="/type/String.CharacterView.Index/" xlink:title="String.CharacterView.Index">
<polygon fill="#ee543d" stroke="#ee543d" points="319.401,-22 164.599,-22 164.599,-0 319.401,-0 319.401,-22"/>
<text text-anchor="middle" x="242" y="-7.4" font-family="Helvetica,sans-Serif" font-size="12.00" fill="white">String.CharacterView.Index</text>
</a>
</g>
</g>
<!-- BidirectionalIndexType&#45;&gt;String.CharacterView.Index -->
<g id="edge4" class="edge"><title>BidirectionalIndexType&#45;&gt;String.CharacterView.Index</title>
<path fill="none" stroke="#cccccc" d="M204.224,-57.9883C210.555,-50.2806 219.477,-39.4191 227.061,-30.187"/>
<polygon fill="#cccccc" stroke="#cccccc" points="229.893,-32.2528 233.536,-22.3039 224.484,-27.8096 229.893,-32.2528"/>
</g>
<!-- Comparable -->
<g id="node2" class="node"><title>Comparable</title>
<g id="a_node2"><a xlink:href="/protocol/Comparable/" xlink:title="Comparable">
<path fill="#999999" stroke="#999999" d="M67.1913,-138C67.1913,-138 6.80872,-138 6.80872,-138 3.14205,-138 -0.524616,-134.333 -0.524616,-130.667 -0.524616,-130.667 -0.524616,-123.333 -0.524616,-123.333 -0.524616,-119.667 3.14205,-116 6.80872,-116 6.80872,-116 67.1913,-116 67.1913,-116 70.8579,-116 74.5246,-119.667 74.5246,-123.333 74.5246,-123.333 74.5246,-130.667 74.5246,-130.667 74.5246,-134.333 70.8579,-138 67.1913,-138"/>
<text text-anchor="middle" x="37" y="-123.4" font-family="Helvetica,sans-Serif" font-size="12.00" fill="white">Comparable</text>
</a>
</g>
</g>
<!-- Comparable&#45;&gt;String.CharacterView.Index -->
<g id="edge5" class="edge"><title>Comparable&#45;&gt;String.CharacterView.Index</title>
<path fill="none" stroke="#cccccc" d="M42.2102,-115.602C50.2278,-100.652 66.9972,-73.2151 89,-58 112.163,-41.9829 141.018,-31.4351 167.408,-24.5378"/>
<polygon fill="#cccccc" stroke="#cccccc" points="168.518,-27.8688 177.384,-22.0693 166.836,-21.0738 168.518,-27.8688"/>
</g>
<!-- Equatable -->
<g id="node3" class="node"><title>Equatable</title>
<g id="a_node3"><a xlink:href="/protocol/Equatable/" xlink:title="Equatable">
<path fill="#999999" stroke="#999999" d="M127.702,-254C127.702,-254 78.2982,-254 78.2982,-254 74.6315,-254 70.9648,-250.333 70.9648,-246.667 70.9648,-246.667 70.9648,-239.333 70.9648,-239.333 70.9648,-235.667 74.6315,-232 78.2982,-232 78.2982,-232 127.702,-232 127.702,-232 131.368,-232 135.035,-235.667 135.035,-239.333 135.035,-239.333 135.035,-246.667 135.035,-246.667 135.035,-250.333 131.368,-254 127.702,-254"/>
<text text-anchor="middle" x="103" y="-239.4" font-family="Helvetica,sans-Serif" font-size="12.00" fill="white">Equatable</text>
</a>
</g>
</g>
<!-- Equatable&#45;&gt;Comparable -->
<g id="edge10" class="edge"><title>Equatable&#45;&gt;Comparable</title>
<path fill="none" stroke="#cccccc" d="M97.1429,-231.883C86.1139,-212.833 62.1065,-171.366 47.9859,-146.976"/>
<polygon fill="#cccccc" stroke="#cccccc" points="50.9782,-145.159 42.9388,-138.258 44.9202,-148.666 50.9782,-145.159"/>
</g>
<!-- Equatable&#45;&gt;String.CharacterView.Index -->
<g id="edge3" class="edge"><title>Equatable&#45;&gt;String.CharacterView.Index</title>
<path fill="none" stroke="#cccccc" d="M100.734,-231.928C94.6034,-201.907 80.7862,-111.787 122,-58 133.96,-42.3908 151.909,-32.0772 170.305,-25.2629"/>
<polygon fill="#cccccc" stroke="#cccccc" points="171.583,-28.5257 179.936,-22.009 169.342,-21.8939 171.583,-28.5257"/>
</g>
<!-- _Incrementable -->
<g id="node7" class="node"><title>_Incrementable</title>
<g id="a_node7"><a xlink:href="/protocol/_Incrementable/" xlink:title="_Incrementable">
<path fill="#999999" stroke="#999999" d="M258.705,-196C258.705,-196 181.295,-196 181.295,-196 177.628,-196 173.961,-192.333 173.961,-188.667 173.961,-188.667 173.961,-181.333 173.961,-181.333 173.961,-177.667 177.628,-174 181.295,-174 181.295,-174 258.705,-174 258.705,-174 262.372,-174 266.039,-177.667 266.039,-181.333 266.039,-181.333 266.039,-188.667 266.039,-188.667 266.039,-192.333 262.372,-196 258.705,-196"/>
<text text-anchor="middle" x="220" y="-181.4" font-family="Helvetica,sans-Serif" font-size="12.00" fill="white">_Incrementable</text>
</a>
</g>
</g>
<!-- Equatable&#45;&gt;_Incrementable -->
<g id="edge8" class="edge"><title>Equatable&#45;&gt;_Incrementable</title>
<path fill="none" stroke="#cccccc" d="M123.917,-231.988C142.188,-223.243 168.942,-210.438 189.581,-200.559"/>
<polygon fill="#cccccc" stroke="#cccccc" points="191.36,-203.588 198.869,-196.114 188.338,-197.274 191.36,-203.588"/>
</g>
<!-- ForwardIndexType -->
<g id="node4" class="node"><title>ForwardIndexType</title>
<g id="a_node4"><a xlink:href="/protocol/ForwardIndexType/" xlink:title="ForwardIndexType">
<path fill="#999999" stroke="#999999" d="M267.206,-138C267.206,-138 172.794,-138 172.794,-138 169.127,-138 165.461,-134.333 165.461,-130.667 165.461,-130.667 165.461,-123.333 165.461,-123.333 165.461,-119.667 169.127,-116 172.794,-116 172.794,-116 267.206,-116 267.206,-116 270.873,-116 274.539,-119.667 274.539,-123.333 274.539,-123.333 274.539,-130.667 274.539,-130.667 274.539,-134.333 270.873,-138 267.206,-138"/>
<text text-anchor="middle" x="220" y="-123.4" font-family="Helvetica,sans-Serif" font-size="12.00" fill="white">ForwardIndexType</text>
</a>
</g>
</g>
<!-- ForwardIndexType&#45;&gt;BidirectionalIndexType -->
<g id="edge9" class="edge"><title>ForwardIndexType&#45;&gt;BidirectionalIndexType</title>
<path fill="none" stroke="#cccccc" d="M215.709,-115.988C212.575,-108.674 208.223,-98.5192 204.405,-89.6122"/>
<polygon fill="#cccccc" stroke="#cccccc" points="207.572,-88.1166 200.416,-80.3039 201.138,-90.8741 207.572,-88.1166"/>
</g>
<!-- ForwardIndexType&#45;&gt;String.CharacterView.Index -->
<g id="edge1" class="edge"><title>ForwardIndexType&#45;&gt;String.CharacterView.Index</title>
<path fill="none" stroke="#cccccc" d="M236.911,-115.883C248.622,-107.813 263.27,-95.3376 270,-80 277.323,-63.3128 267.775,-44.0946 257.894,-30.3553"/>
<polygon fill="#cccccc" stroke="#cccccc" points="260.439,-27.9275 251.526,-22.1995 254.921,-32.2355 260.439,-27.9275"/>
</g>
<!-- Reflectable -->
<g id="node5" class="node"><title>Reflectable</title>
<g id="a_node5"><a xlink:href="/protocol/Reflectable/" xlink:title="Reflectable">
<path fill="#999999" stroke="#999999" d="M417.693,-80C417.693,-80 362.307,-80 362.307,-80 358.64,-80 354.974,-76.3333 354.974,-72.6667 354.974,-72.6667 354.974,-65.3333 354.974,-65.3333 354.974,-61.6667 358.64,-58 362.307,-58 362.307,-58 417.693,-58 417.693,-58 421.36,-58 425.026,-61.6667 425.026,-65.3333 425.026,-65.3333 425.026,-72.6667 425.026,-72.6667 425.026,-76.3333 421.36,-80 417.693,-80"/>
<text text-anchor="middle" x="390" y="-65.4" font-family="Helvetica,sans-Serif" font-size="12.00" fill="white">Reflectable</text>
</a>
</g>
</g>
<!-- Reflectable&#45;&gt;String.CharacterView.Index -->
<g id="edge6" class="edge"><title>Reflectable&#45;&gt;String.CharacterView.Index</title>
<path fill="none" stroke="#cccccc" d="M363.541,-57.9883C339.801,-49.0057 304.741,-35.7398 278.369,-25.7614"/>
<polygon fill="#cccccc" stroke="#cccccc" points="279.321,-22.3793 268.729,-22.1138 276.844,-28.9263 279.321,-22.3793"/>
</g>
<!-- _Incrementable&#45;&gt;ForwardIndexType -->
<g id="edge7" class="edge"><title>_Incrementable&#45;&gt;ForwardIndexType</title>
<path fill="none" stroke="#cccccc" d="M220,-173.988C220,-166.91 220,-157.171 220,-148.478"/>
<polygon fill="#cccccc" stroke="#cccccc" points="223.5,-148.304 220,-138.304 216.5,-148.304 223.5,-148.304"/>
</g>
<!-- _Incrementable&#45;&gt;String.CharacterView.Index -->
<g id="edge2" class="edge"><title>_Incrementable&#45;&gt;String.CharacterView.Index</title>
<path fill="none" stroke="#cccccc" d="M242.774,-173.832C257.004,-166.17 274.236,-154.2 283,-138 299.93,-106.705 299.25,-91.0214 286,-58 281.463,-46.6923 272.673,-36.5926 264.135,-28.7576"/>
<polygon fill="#cccccc" stroke="#cccccc" points="266.37,-26.064 256.494,-22.2292 261.823,-31.3861 266.37,-26.064"/>
</g>
</g>
</svg>
