<?xml version="1.0" encoding="UTF-8" standalone="no"?>
<!DOCTYPE svg PUBLIC "-//W3C//DTD SVG 1.1//EN"
 "http://www.w3.org/Graphics/SVG/1.1/DTD/svg11.dtd">
<!-- Generated by graphviz version 2.36.0 (20140111.2315)
 -->
<!-- Title: Zip2&lt;S0 : SequenceType, S1 : SequenceType&gt; &#45; Type Hierarchy &#45; SwiftDoc.org Pages: 1 -->
<svg width="276pt" height="311pt"
 viewBox="0.00 0.00 276.40 311.20" xmlns="http://www.w3.org/2000/svg" xmlns:xlink="http://www.w3.org/1999/xlink">
<g id="graph0" class="graph" transform="scale(1 1) rotate(0) translate(7.2 253.6)">
<title>Zip2&lt;S0 : SequenceType, S1 : SequenceType&gt; &#45; Type Hierarchy &#45; SwiftDoc.org</title>
<polygon fill="white" stroke="none" points="-7.2,57.6 -7.2,-253.6 269.2,-253.6 269.2,57.6 -7.2,57.6"/>
<!-- SequenceType -->
<g id="node1" class="node"><title>SequenceType</title>
<g id="a_node1"><a xlink:href="/protocol/SequenceType/" xlink:title="SequenceType">
<path fill="#999999" stroke="#999999" d="M168.718,-80C168.718,-80 93.2821,-80 93.2821,-80 89.6154,-80 85.9487,-76.3333 85.9487,-72.6667 85.9487,-72.6667 85.9487,-65.3333 85.9487,-65.3333 85.9487,-61.6667 89.6154,-58 93.2821,-58 93.2821,-58 168.718,-58 168.718,-58 172.385,-58 176.051,-61.6667 176.051,-65.3333 176.051,-65.3333 176.051,-72.6667 176.051,-72.6667 176.051,-76.3333 172.385,-80 168.718,-80"/>
<text text-anchor="middle" x="131" y="-65.4" font-family="Helvetica,sans-Serif" font-size="12.00" fill="white">SequenceType</text>
</a>
</g>
</g>
<!-- Zip2&lt;S0 : SequenceType, S1 : SequenceType&gt; -->
<g id="node2" class="node"><title>Zip2&lt;S0 : SequenceType, S1 : SequenceType&gt;</title>
<g id="a_node2"><a xlink:href="/type/Zip2/" xlink:title="Zip2&lt;S0 : SequenceType, S1 : SequenceType&gt;">
<polygon fill="#ee543d" stroke="#ee543d" points="262.144,-22 -0.143696,-22 -0.143696,-0 262.144,-0 262.144,-22"/>
<text text-anchor="middle" x="131" y="-7.4" font-family="Helvetica,sans-Serif" font-size="12.00" fill="white">Zip2&lt;S0 : SequenceType, S1 : SequenceType&gt;</text>
</a>
</g>
</g>
<!-- SequenceType&#45;&gt;Zip2&lt;S0 : SequenceType, S1 : SequenceType&gt; -->
<g id="edge1" class="edge"><title>SequenceType&#45;&gt;Zip2&lt;S0 : SequenceType, S1 : SequenceType&gt;</title>
<path fill="none" stroke="#cccccc" d="M131,-57.9883C131,-50.9098 131,-41.1714 131,-32.4779"/>
<polygon fill="#cccccc" stroke="#cccccc" points="134.5,-32.3038 131,-22.3039 127.5,-32.3039 134.5,-32.3038"/>
</g>
<!-- _SequenceType -->
<g id="node3" class="node"><title>_SequenceType</title>
<g id="a_node3"><a xlink:href="/protocol/_SequenceType/" xlink:title="_SequenceType">
<path fill="#999999" stroke="#999999" d="M171.724,-196C171.724,-196 90.2759,-196 90.2759,-196 86.6092,-196 82.9425,-192.333 82.9425,-188.667 82.9425,-188.667 82.9425,-181.333 82.9425,-181.333 82.9425,-177.667 86.6092,-174 90.2759,-174 90.2759,-174 171.724,-174 171.724,-174 175.391,-174 179.057,-177.667 179.057,-181.333 179.057,-181.333 179.057,-188.667 179.057,-188.667 179.057,-192.333 175.391,-196 171.724,-196"/>
<text text-anchor="middle" x="131" y="-181.4" font-family="Helvetica,sans-Serif" font-size="12.00" fill="white">_SequenceType</text>
</a>
</g>
</g>
<!-- _Sequence_Type -->
<g id="node4" class="node"><title>_Sequence_Type</title>
<g id="a_node4"><a xlink:href="/protocol/_Sequence_Type/" xlink:title="_Sequence_Type">
<path fill="#999999" stroke="#999999" d="M175.228,-138C175.228,-138 86.7719,-138 86.7719,-138 83.1052,-138 79.4386,-134.333 79.4386,-130.667 79.4386,-130.667 79.4386,-123.333 79.4386,-123.333 79.4386,-119.667 83.1052,-116 86.7719,-116 86.7719,-116 175.228,-116 175.228,-116 178.895,-116 182.561,-119.667 182.561,-123.333 182.561,-123.333 182.561,-130.667 182.561,-130.667 182.561,-134.333 178.895,-138 175.228,-138"/>
<text text-anchor="middle" x="131" y="-123.4" font-family="Helvetica,sans-Serif" font-size="12.00" fill="white">_Sequence_Type</text>
</a>
</g>
</g>
<!-- _SequenceType&#45;&gt;_Sequence_Type -->
<g id="edge3" class="edge"><title>_SequenceType&#45;&gt;_Sequence_Type</title>
<path fill="none" stroke="#cccccc" d="M131,-173.988C131,-166.91 131,-157.171 131,-148.478"/>
<polygon fill="#cccccc" stroke="#cccccc" points="134.5,-148.304 131,-138.304 127.5,-148.304 134.5,-148.304"/>
</g>
<!-- _Sequence_Type&#45;&gt;SequenceType -->
<g id="edge2" class="edge"><title>_Sequence_Type&#45;&gt;SequenceType</title>
<path fill="none" stroke="#cccccc" d="M131,-115.988C131,-108.91 131,-99.1714 131,-90.4779"/>
<polygon fill="#cccccc" stroke="#cccccc" points="134.5,-90.3038 131,-80.3039 127.5,-90.3039 134.5,-90.3038"/>
</g>
</g>
</svg>
