<?xml version="1.0" encoding="UTF-8" standalone="no"?>
<!DOCTYPE svg PUBLIC "-//W3C//DTD SVG 1.1//EN"
 "http://www.w3.org/Graphics/SVG/1.1/DTD/svg11.dtd">
<!-- Generated by graphviz version 2.36.0 (20140111.2315)
 -->
<!-- Title: Int &#45; Type Hierarchy &#45; SwiftDoc.org Pages: 1 -->
<svg width="889pt" height="427pt"
 viewBox="0.00 0.00 889.40 427.20" xmlns="http://www.w3.org/2000/svg" xmlns:xlink="http://www.w3.org/1999/xlink">
<g id="graph0" class="graph" transform="scale(1 1) rotate(0) translate(7.2 369.6)">
<g transform="translate(0 -369.6)">
<g>
    <path fill="#666666" d="M13.846,10.832c-0.336-0.464-0.792-0.844-1.368-1.14s-1.224-0.444-1.944-0.444
        c-0.384,0-0.772,0.052-1.164,0.156C8.977,9.509,8.622,9.677,8.301,9.908c-0.32,0.232-0.58,0.52-0.78,0.864
        c-0.2,0.344-0.3,0.756-0.3,1.236c0,0.464,0.092,0.852,0.276,1.164c0.184,0.312,0.432,0.576,0.744,0.792s0.68,0.4,1.104,0.552
        c0.423,0.152,0.876,0.309,1.356,0.468c0.576,0.177,1.16,0.376,1.752,0.601c0.592,0.224,1.128,0.52,1.608,0.888
        s0.872,0.828,1.176,1.38s0.456,1.252,0.456,2.101c0,0.88-0.164,1.644-0.492,2.292c-0.328,0.647-0.765,1.184-1.308,1.607
        c-0.544,0.424-1.172,0.74-1.884,0.948s-1.444,0.312-2.196,0.312c-1.072,0-2.108-0.208-3.108-0.624
        c-1-0.415-1.828-1.031-2.484-1.848l1.848-1.56c0.4,0.592,0.936,1.071,1.608,1.439c0.672,0.368,1.399,0.552,2.184,0.552
        c0.4,0,0.8-0.056,1.2-0.168c0.4-0.111,0.764-0.288,1.092-0.527c0.328-0.24,0.596-0.54,0.804-0.9
        c0.208-0.36,0.312-0.796,0.312-1.308s-0.108-0.94-0.324-1.284c-0.216-0.344-0.508-0.636-0.876-0.876s-0.796-0.444-1.284-0.612
        c-0.488-0.168-1.004-0.34-1.548-0.516c-0.544-0.16-1.08-0.356-1.608-0.588c-0.528-0.232-1-0.528-1.416-0.889
        c-0.416-0.359-0.752-0.804-1.008-1.332c-0.256-0.527-0.384-1.184-0.384-1.968c0-0.848,0.172-1.576,0.516-2.184
        c0.344-0.608,0.792-1.112,1.344-1.512c0.552-0.4,1.176-0.692,1.872-0.876c0.696-0.184,1.396-0.276,2.1-0.276
        c0.992,0,1.92,0.176,2.784,0.528c0.864,0.352,1.56,0.824,2.088,1.416L13.846,10.832z"/>
    <path fill="#666666" d="M18.813,13.304l2.568,8.688h0.048l2.712-8.688h2.376l2.76,8.688h0.048l2.568-8.688h2.376L30.501,24.68
        h-2.352l-2.808-8.544h-0.048l-2.784,8.544h-2.352l-3.792-11.376H18.813z"/>
    <path fill="#666666" d="M38.685,9.2c0,0.416-0.147,0.76-0.44,1.032c-0.294,0.272-0.647,0.408-1.06,0.408s-0.762-0.14-1.047-0.42
        c-0.286-0.28-0.429-0.62-0.429-1.02c0-0.416,0.143-0.764,0.429-1.044c0.286-0.28,0.635-0.42,1.047-0.42s0.766,0.14,1.06,0.42
        C38.538,8.437,38.685,8.784,38.685,9.2z M38.325,24.68h-2.256V13.304h2.256V24.68z"/>
    <path fill="#666666" d="M47.613,15.152h-2.64v9.528h-2.256v-9.528h-2.256v-1.848h2.256v-2.376c0-0.672,0.076-1.292,0.228-1.86
        c0.152-0.568,0.4-1.06,0.744-1.476c0.344-0.416,0.784-0.744,1.32-0.984c0.536-0.24,1.188-0.36,1.956-0.36
        c0.544,0,1.016,0.056,1.416,0.168l-0.264,1.944c-0.176-0.048-0.352-0.088-0.528-0.12c-0.176-0.032-0.376-0.048-0.6-0.048
        c-0.432,0-0.78,0.076-1.044,0.228c-0.264,0.152-0.468,0.356-0.612,0.612s-0.24,0.548-0.288,0.876
        c-0.048,0.328-0.072,0.668-0.072,1.02v2.376h2.64V15.152z"/>
    <path fill="#666666" d="M54.909,15.152h-3.024v5.91c0,0.687,0.128,1.177,0.384,1.472c0.256,0.295,0.664,0.442,1.224,0.442
        c0.208,0,0.432-0.021,0.672-0.065c0.24-0.044,0.456-0.11,0.648-0.198l0.072,1.848c-0.272,0.096-0.572,0.172-0.9,0.229
        c-0.328,0.056-0.668,0.084-1.02,0.084c-1.072,0-1.892-0.296-2.46-0.889c-0.568-0.592-0.852-1.479-0.852-2.664v-6.168h-2.184
        v-1.848h2.184V10.04h2.232v3.264h3.024V15.152z"/>
    <path fill="#666666" d="M57.356,7.688h5.832c1.088,0,2.176,0.16,3.264,0.48c1.088,0.32,2.072,0.824,2.952,1.512
        s1.592,1.568,2.136,2.64c0.544,1.072,0.816,2.36,0.816,3.864c0,1.456-0.272,2.716-0.816,3.78s-1.256,1.943-2.136,2.64
        s-1.864,1.216-2.952,1.561c-1.088,0.344-2.176,0.516-3.264,0.516h-5.832V7.688z M59.732,22.593h2.976
        c1.024,0,1.972-0.145,2.844-0.432c0.872-0.288,1.624-0.704,2.256-1.248c0.632-0.544,1.124-1.216,1.476-2.017
        c0.352-0.8,0.528-1.704,0.528-2.712c0-1.056-0.176-1.983-0.528-2.784c-0.353-0.8-0.844-1.468-1.476-2.004
        c-0.632-0.536-1.384-0.944-2.256-1.224s-1.82-0.42-2.844-0.42h-2.976V22.593z"/>
    <path fill="#666666" d="M86.06,18.969c0,0.88-0.156,1.688-0.468,2.424c-0.312,0.736-0.744,1.372-1.296,1.908
        c-0.552,0.536-1.204,0.952-1.956,1.248c-0.752,0.296-1.56,0.443-2.424,0.443c-0.864,0-1.672-0.147-2.424-0.443
        c-0.752-0.296-1.4-0.712-1.944-1.248c-0.544-0.536-0.972-1.172-1.284-1.908c-0.312-0.735-0.468-1.544-0.468-2.424
        s0.156-1.684,0.468-2.412c0.312-0.728,0.74-1.356,1.284-1.884c0.543-0.528,1.191-0.939,1.944-1.236
        c0.752-0.296,1.56-0.444,2.424-0.444c0.864,0,1.672,0.148,2.424,0.444c0.752,0.297,1.404,0.708,1.956,1.236
        c0.552,0.527,0.984,1.156,1.296,1.884C85.904,17.285,86.06,18.089,86.06,18.969z M83.708,18.98c0-0.542-0.084-1.061-0.252-1.556
        c-0.169-0.494-0.414-0.929-0.734-1.304s-0.718-0.674-1.192-0.897s-1.015-0.335-1.625-0.335c-0.61,0-1.152,0.111-1.625,0.335
        c-0.474,0.224-0.871,0.522-1.191,0.897c-0.321,0.375-0.566,0.81-0.734,1.304C76.184,17.92,76.1,18.438,76.1,18.98
        c0,0.543,0.084,1.062,0.253,1.556c0.168,0.495,0.413,0.934,0.734,1.316c0.321,0.383,0.718,0.686,1.191,0.909
        c0.473,0.224,1.015,0.335,1.625,0.335c0.61,0,1.151-0.111,1.625-0.335s0.871-0.526,1.192-0.909s0.565-0.821,0.734-1.316
        C83.624,20.042,83.708,19.523,83.708,18.98z"/>
    <path fill="#666666" d="M96.428,16.184c-0.24-0.368-0.6-0.676-1.08-0.924s-0.992-0.372-1.536-0.372
        c-0.592,0-1.116,0.112-1.572,0.336c-0.456,0.225-0.844,0.524-1.164,0.9c-0.32,0.376-0.564,0.812-0.732,1.308
        s-0.252,1.017-0.252,1.56c0,0.545,0.084,1.064,0.252,1.561s0.412,0.933,0.732,1.308c0.32,0.376,0.712,0.677,1.176,0.9
        c0.464,0.225,0.992,0.336,1.584,0.336c0.576,0,1.1-0.111,1.572-0.336c0.472-0.224,0.86-0.528,1.164-0.912l1.512,1.368
        c-0.48,0.561-1.08,0.996-1.8,1.308c-0.72,0.312-1.536,0.468-2.448,0.468c-0.88,0-1.692-0.144-2.436-0.432
        c-0.744-0.288-1.388-0.691-1.932-1.212c-0.544-0.52-0.972-1.147-1.284-1.884s-0.468-1.561-0.468-2.473
        c0-0.896,0.152-1.711,0.456-2.447c0.304-0.736,0.728-1.368,1.272-1.896c0.543-0.527,1.188-0.936,1.932-1.224
        c0.744-0.288,1.548-0.433,2.412-0.433c0.8,0,1.596,0.16,2.388,0.48s1.419,0.784,1.884,1.392L96.428,16.184z"/>
    <path fill="#666666" d="M103.1,23.24c0,0.417-0.152,0.784-0.456,1.104c-0.304,0.32-0.688,0.479-1.152,0.479
        c-0.448,0-0.828-0.155-1.14-0.468c-0.312-0.312-0.468-0.676-0.468-1.092c0-0.432,0.152-0.804,0.456-1.116
        c0.304-0.312,0.688-0.468,1.152-0.468c0.464,0,0.848,0.152,1.152,0.456C102.947,22.44,103.1,22.808,103.1,23.24z"/>
    <path fill="#666666" d="M116.635,18.969c0,0.88-0.156,1.688-0.468,2.424c-0.312,0.736-0.744,1.372-1.296,1.908
        c-0.552,0.536-1.204,0.952-1.956,1.248c-0.752,0.296-1.56,0.443-2.424,0.443c-0.864,0-1.672-0.147-2.424-0.443
        c-0.752-0.296-1.4-0.712-1.944-1.248c-0.544-0.536-0.972-1.172-1.284-1.908c-0.312-0.735-0.468-1.544-0.468-2.424
        s0.156-1.684,0.468-2.412c0.312-0.728,0.74-1.356,1.284-1.884c0.543-0.528,1.191-0.939,1.944-1.236
        c0.752-0.296,1.56-0.444,2.424-0.444c0.864,0,1.672,0.148,2.424,0.444c0.752,0.297,1.404,0.708,1.956,1.236
        c0.552,0.527,0.984,1.156,1.296,1.884C116.479,17.285,116.635,18.089,116.635,18.969z M114.283,18.98
        c0-0.542-0.084-1.061-0.252-1.556c-0.169-0.494-0.414-0.929-0.734-1.304s-0.718-0.674-1.192-0.897s-1.015-0.335-1.625-0.335
        c-0.61,0-1.152,0.111-1.625,0.335c-0.474,0.224-0.871,0.522-1.191,0.897c-0.321,0.375-0.566,0.81-0.734,1.304
        c-0.169,0.495-0.253,1.014-0.253,1.556c0,0.543,0.084,1.062,0.253,1.556c0.168,0.495,0.413,0.934,0.734,1.316
        c0.321,0.383,0.718,0.686,1.191,0.909c0.473,0.224,1.015,0.335,1.625,0.335c0.61,0,1.151-0.111,1.625-0.335
        s0.871-0.526,1.192-0.909s0.565-0.821,0.734-1.316C114.199,20.042,114.283,19.523,114.283,18.98z"/>
    <path fill="#666666" d="M119.251,14.577c-0.016-0.48-0.04-0.904-0.072-1.272h2.136c0.032,0.288,0.056,0.62,0.072,0.996
        c0.016,0.376,0.024,0.684,0.024,0.924h0.072c0.32-0.672,0.788-1.212,1.404-1.62c0.616-0.408,1.308-0.612,2.076-0.612
        c0.352,0,0.648,0.033,0.888,0.097l-0.096,2.088c-0.32-0.08-0.664-0.12-1.032-0.12c-0.544,0-1.016,0.101-1.416,0.3
        c-0.4,0.2-0.732,0.468-0.996,0.805c-0.264,0.336-0.46,0.724-0.588,1.163c-0.128,0.44-0.192,0.9-0.192,1.381v5.976h-2.256v-8.928
        C119.275,15.449,119.267,15.056,119.251,14.577z"/>
    <path fill="#666666" d="M128.419,26.625c0.496,0.56,1.116,1.008,1.86,1.344c0.744,0.336,1.508,0.504,2.292,0.504
        c0.752,0,1.384-0.108,1.896-0.324s0.924-0.512,1.236-0.888s0.536-0.82,0.672-1.332c0.136-0.513,0.204-1.064,0.204-1.656v-1.464
        h-0.048c-0.416,0.641-0.984,1.128-1.704,1.464c-0.72,0.336-1.488,0.504-2.304,0.504c-0.864,0-1.652-0.151-2.364-0.456
        c-0.712-0.304-1.316-0.72-1.812-1.248c-0.496-0.527-0.88-1.147-1.152-1.859s-0.408-1.477-0.408-2.292
        c0-0.816,0.136-1.584,0.408-2.305c0.272-0.72,0.656-1.348,1.152-1.884c0.496-0.535,1.096-0.96,1.8-1.271
        c0.704-0.312,1.488-0.469,2.352-0.469c0.816,0,1.596,0.177,2.34,0.528c0.744,0.353,1.332,0.888,1.764,1.608h0.048v-1.824h2.184
        v10.8c0,0.832-0.104,1.628-0.312,2.388c-0.208,0.76-0.56,1.433-1.056,2.017s-1.144,1.052-1.944,1.404
        c-0.8,0.352-1.792,0.527-2.976,0.527c-0.992,0-1.988-0.18-2.988-0.54c-1-0.359-1.86-0.868-2.58-1.523L128.419,26.625z
         M129.091,18.873c0,0.527,0.084,1.031,0.253,1.512c0.168,0.479,0.417,0.904,0.746,1.271c0.329,0.369,0.726,0.664,1.192,0.889
        c0.465,0.224,0.995,0.336,1.589,0.336c0.577,0,1.107-0.104,1.589-0.312c0.481-0.207,0.891-0.491,1.228-0.852
        s0.598-0.784,0.782-1.272c0.185-0.487,0.277-1.012,0.277-1.571c0-0.544-0.093-1.057-0.277-1.536
        c-0.185-0.48-0.449-0.904-0.794-1.272c-0.345-0.367-0.755-0.66-1.228-0.876c-0.474-0.216-1-0.324-1.577-0.324
        c-0.594,0-1.124,0.108-1.589,0.324c-0.466,0.216-0.863,0.504-1.192,0.864s-0.578,0.784-0.746,1.271
        C129.175,17.812,129.091,18.329,129.091,18.873z"/>
</g>
<g><a xlink:href="/" pointer-events="all" target="_top"><polygon fill="none" points="0,0 145,0 145,35 0,35 0,0"/></a></g>

</g>


<!-- BinaryInteger -->
<g id="node1" class="node">
<g id="a_node1"><a xlink:href="/v4.2/protocol/BinaryInteger/hierarchy/" target="_top">
<path fill="#999999" stroke="#999999" d="M570.196,-138C570.196,-138 503.804,-138 503.804,-138 500.138,-138 496.471,-134.333 496.471,-130.667 496.471,-130.667 496.471,-123.333 496.471,-123.333 496.471,-119.667 500.138,-116 503.804,-116 503.804,-116 570.196,-116 570.196,-116 573.862,-116 577.529,-119.667 577.529,-123.333 577.529,-123.333 577.529,-130.667 577.529,-130.667 577.529,-134.333 573.862,-138 570.196,-138"/>
<text text-anchor="middle" x="537" y="-123.4" font-family="Helvetica,sans-Serif" font-size="12.00" fill="white">BinaryInteger</text>
</a>
</g>
</g>
<!-- FixedWidthInteger -->
<g id="node9" class="node">
<g id="a_node9"><a xlink:href="/v4.2/protocol/FixedWidthInteger/hierarchy/" target="_top">
<path fill="#999999" stroke="#999999" d="M697.199,-80C697.199,-80 604.801,-80 604.801,-80 601.135,-80 597.468,-76.3333 597.468,-72.6667 597.468,-72.6667 597.468,-65.3333 597.468,-65.3333 597.468,-61.6667 601.135,-58 604.801,-58 604.801,-58 697.199,-58 697.199,-58 700.865,-58 704.532,-61.6667 704.532,-65.3333 704.532,-65.3333 704.532,-72.6667 704.532,-72.6667 704.532,-76.3333 700.865,-80 697.199,-80"/>
<text text-anchor="middle" x="651" y="-65.4" font-family="Helvetica,sans-Serif" font-size="12.00" fill="white">FixedWidthInteger</text>
</a>
</g>
</g>
<!-- BinaryInteger&#45;&gt;FixedWidthInteger -->
<g id="edge8" class="edge">
<path fill="none" stroke="#cccccc" d="M557.381,-115.988C575.184,-107.243 601.251,-94.4381 621.361,-84.5594"/>
<polygon fill="#cccccc" stroke="#cccccc" points="622.979,-87.6644 630.411,-80.1138 619.892,-81.3815 622.979,-87.6644"/>
</g>
<!-- SignedInteger -->
<g id="node15" class="node">
<g id="a_node15"><a xlink:href="/v4.2/protocol/SignedInteger/hierarchy/" target="_top">
<path fill="#999999" stroke="#999999" d="M571.711,-80C571.711,-80 502.289,-80 502.289,-80 498.622,-80 494.956,-76.3333 494.956,-72.6667 494.956,-72.6667 494.956,-65.3333 494.956,-65.3333 494.956,-61.6667 498.622,-58 502.289,-58 502.289,-58 571.711,-58 571.711,-58 575.378,-58 579.044,-61.6667 579.044,-65.3333 579.044,-65.3333 579.044,-72.6667 579.044,-72.6667 579.044,-76.3333 575.378,-80 571.711,-80"/>
<text text-anchor="middle" x="537" y="-65.4" font-family="Helvetica,sans-Serif" font-size="12.00" fill="white">SignedInteger</text>
</a>
</g>
</g>
<!-- BinaryInteger&#45;&gt;SignedInteger -->
<g id="edge21" class="edge">
<path fill="none" stroke="#cccccc" d="M537,-115.988C537,-108.91 537,-99.1714 537,-90.4779"/>
<polygon fill="#cccccc" stroke="#cccccc" points="540.5,-90.3038 537,-80.3039 533.5,-90.3039 540.5,-90.3038"/>
</g>
<!-- CVarArg -->
<g id="node2" class="node">
<g id="a_node2"><a xlink:href="/v4.2/protocol/CVarArg/hierarchy/" target="_top">
<path fill="#999999" stroke="#999999" d="M47.0128,-80C47.0128,-80 6.98716,-80 6.98716,-80 3.3205,-80 -0.346169,-76.3333 -0.346169,-72.6667 -0.346169,-72.6667 -0.346169,-65.3333 -0.346169,-65.3333 -0.346169,-61.6667 3.3205,-58 6.98716,-58 6.98716,-58 47.0128,-58 47.0128,-58 50.6795,-58 54.3462,-61.6667 54.3462,-65.3333 54.3462,-65.3333 54.3462,-72.6667 54.3462,-72.6667 54.3462,-76.3333 50.6795,-80 47.0128,-80"/>
<text text-anchor="middle" x="27" y="-65.4" font-family="Helvetica,sans-Serif" font-size="12.00" fill="white">CVarArg</text>
</a>
</g>
</g>
<!-- Int -->
<g id="node11" class="node">
<g id="a_node11"><a xlink:href="/v4.2/type/Int/" target="_top">
<polygon fill="#ee543d" stroke="#ee543d" points="471,-22 417,-22 417,-0 471,-0 471,-22"/>
<text text-anchor="middle" x="444" y="-7.4" font-family="Helvetica,sans-Serif" font-size="12.00" fill="white">Int</text>
</a>
</g>
</g>
<!-- CVarArg&#45;&gt;Int -->
<g id="edge7" class="edge">
<path fill="none" stroke="#cccccc" d="M54.4151,-59.9256C57.2995,-59.2139 60.2003,-58.5546 63,-58 187.695,-33.3002 338.15,-19.8665 406.706,-14.6255"/>
<polygon fill="#cccccc" stroke="#cccccc" points="407.279,-18.0924 416.989,-13.8542 406.755,-11.112 407.279,-18.0924"/>
</g>
<!-- Comparable -->
<g id="node3" class="node">
<g id="a_node3"><a xlink:href="/v4.2/protocol/Comparable/hierarchy/" target="_top">
<path fill="#999999" stroke="#999999" d="M618.191,-254C618.191,-254 557.809,-254 557.809,-254 554.142,-254 550.475,-250.333 550.475,-246.667 550.475,-246.667 550.475,-239.333 550.475,-239.333 550.475,-235.667 554.142,-232 557.809,-232 557.809,-232 618.191,-232 618.191,-232 621.858,-232 625.525,-235.667 625.525,-239.333 625.525,-239.333 625.525,-246.667 625.525,-246.667 625.525,-250.333 621.858,-254 618.191,-254"/>
<text text-anchor="middle" x="588" y="-239.4" font-family="Helvetica,sans-Serif" font-size="12.00" fill="white">Comparable</text>
</a>
</g>
</g>
<!-- Strideable -->
<g id="node17" class="node">
<g id="a_node17"><a xlink:href="/v4.2/protocol/Strideable/hierarchy/" target="_top">
<path fill="#999999" stroke="#999999" d="M581.693,-196C581.693,-196 532.307,-196 532.307,-196 528.64,-196 524.974,-192.333 524.974,-188.667 524.974,-188.667 524.974,-181.333 524.974,-181.333 524.974,-177.667 528.64,-174 532.307,-174 532.307,-174 581.693,-174 581.693,-174 585.36,-174 589.026,-177.667 589.026,-181.333 589.026,-181.333 589.026,-188.667 589.026,-188.667 589.026,-192.333 585.36,-196 581.693,-196"/>
<text text-anchor="middle" x="557" y="-181.4" font-family="Helvetica,sans-Serif" font-size="12.00" fill="white">Strideable</text>
</a>
</g>
</g>
<!-- Comparable&#45;&gt;Strideable -->
<g id="edge18" class="edge">
<path fill="none" stroke="#cccccc" d="M582.458,-231.988C578.365,-224.595 572.666,-214.301 567.698,-205.325"/>
<polygon fill="#cccccc" stroke="#cccccc" points="570.609,-203.358 562.704,-196.304 564.485,-206.748 570.609,-203.358"/>
</g>
<!-- CustomPlaygroundQuickLookable -->
<g id="node4" class="node">
<g id="a_node4"><a xlink:href="/v4.2/protocol/CustomPlaygroundQuickLookable/hierarchy/" target="_top">
<path fill="#999999" stroke="#999999" d="M256.243,-80C256.243,-80 79.757,-80 79.757,-80 76.0903,-80 72.4237,-76.3333 72.4237,-72.6667 72.4237,-72.6667 72.4237,-65.3333 72.4237,-65.3333 72.4237,-61.6667 76.0903,-58 79.757,-58 79.757,-58 256.243,-58 256.243,-58 259.91,-58 263.576,-61.6667 263.576,-65.3333 263.576,-65.3333 263.576,-72.6667 263.576,-72.6667 263.576,-76.3333 259.91,-80 256.243,-80"/>
<text text-anchor="middle" x="168" y="-65.4" font-family="Helvetica,sans-Serif" font-size="12.00" fill="white">CustomPlaygroundQuickLookable</text>
</a>
</g>
</g>
<!-- CustomPlaygroundQuickLookable&#45;&gt;Int -->
<g id="edge5" class="edge">
<path fill="none" stroke="#cccccc" d="M217.343,-57.9883C271.772,-46.9448 358.109,-29.4272 407.017,-19.5039"/>
<polygon fill="#cccccc" stroke="#cccccc" points="407.755,-22.9254 416.86,-17.5067 406.363,-16.0651 407.755,-22.9254"/>
</g>
<!-- CustomReflectable -->
<g id="node5" class="node">
<g id="a_node5"><a xlink:href="/v4.2/protocol/CustomReflectable/hierarchy/" target="_top">
<path fill="#999999" stroke="#999999" d="M385.2,-80C385.2,-80 288.8,-80 288.8,-80 285.133,-80 281.466,-76.3333 281.466,-72.6667 281.466,-72.6667 281.466,-65.3333 281.466,-65.3333 281.466,-61.6667 285.133,-58 288.8,-58 288.8,-58 385.2,-58 385.2,-58 388.867,-58 392.534,-61.6667 392.534,-65.3333 392.534,-65.3333 392.534,-72.6667 392.534,-72.6667 392.534,-76.3333 388.867,-80 385.2,-80"/>
<text text-anchor="middle" x="337" y="-65.4" font-family="Helvetica,sans-Serif" font-size="12.00" fill="white">CustomReflectable</text>
</a>
</g>
</g>
<!-- CustomReflectable&#45;&gt;Int -->
<g id="edge4" class="edge">
<path fill="none" stroke="#cccccc" d="M356.129,-57.9883C372.688,-49.3223 396.864,-36.6696 415.667,-26.8283"/>
<polygon fill="#cccccc" stroke="#cccccc" points="417.438,-29.8518 424.675,-22.1138 414.192,-23.6499 417.438,-29.8518"/>
</g>
<!-- CustomStringConvertible -->
<g id="node6" class="node">
<g id="a_node6"><a xlink:href="/v4.2/protocol/CustomStringConvertible/hierarchy/" target="_top">
<path fill="#999999" stroke="#999999" d="M743.208,-196C743.208,-196 614.792,-196 614.792,-196 611.126,-196 607.459,-192.333 607.459,-188.667 607.459,-188.667 607.459,-181.333 607.459,-181.333 607.459,-177.667 611.126,-174 614.792,-174 614.792,-174 743.208,-174 743.208,-174 746.874,-174 750.541,-177.667 750.541,-181.333 750.541,-181.333 750.541,-188.667 750.541,-188.667 750.541,-192.333 746.874,-196 743.208,-196"/>
<text text-anchor="middle" x="679" y="-181.4" font-family="Helvetica,sans-Serif" font-size="12.00" fill="white">CustomStringConvertible</text>
</a>
</g>
</g>
<!-- CustomStringConvertible&#45;&gt;BinaryInteger -->
<g id="edge11" class="edge">
<path fill="none" stroke="#cccccc" d="M653.613,-173.988C630.936,-165.045 597.494,-151.857 572.23,-141.893"/>
<polygon fill="#cccccc" stroke="#cccccc" points="573.233,-138.527 562.646,-138.114 570.664,-145.039 573.233,-138.527"/>
</g>
<!-- LosslessStringConvertible -->
<g id="node12" class="node">
<g id="a_node12"><a xlink:href="/v4.2/protocol/LosslessStringConvertible/hierarchy/" target="_top">
<path fill="#999999" stroke="#999999" d="M736.717,-138C736.717,-138 603.283,-138 603.283,-138 599.617,-138 595.95,-134.333 595.95,-130.667 595.95,-130.667 595.95,-123.333 595.95,-123.333 595.95,-119.667 599.617,-116 603.283,-116 603.283,-116 736.717,-116 736.717,-116 740.383,-116 744.05,-119.667 744.05,-123.333 744.05,-123.333 744.05,-130.667 744.05,-130.667 744.05,-134.333 740.383,-138 736.717,-138"/>
<text text-anchor="middle" x="670" y="-123.4" font-family="Helvetica,sans-Serif" font-size="12.00" fill="white">LosslessStringConvertible</text>
</a>
</g>
</g>
<!-- CustomStringConvertible&#45;&gt;LosslessStringConvertible -->
<g id="edge20" class="edge">
<path fill="none" stroke="#cccccc" d="M677.391,-173.988C676.241,-166.831 674.653,-156.955 673.245,-148.189"/>
<polygon fill="#cccccc" stroke="#cccccc" points="676.699,-147.622 671.656,-138.304 669.787,-148.733 676.699,-147.622"/>
</g>
<!-- Equatable -->
<g id="node7" class="node">
<g id="a_node7"><a xlink:href="/v4.2/protocol/Equatable/hierarchy/" target="_top">
<path fill="#999999" stroke="#999999" d="M526.702,-312C526.702,-312 477.298,-312 477.298,-312 473.632,-312 469.965,-308.333 469.965,-304.667 469.965,-304.667 469.965,-297.333 469.965,-297.333 469.965,-293.667 473.632,-290 477.298,-290 477.298,-290 526.702,-290 526.702,-290 530.368,-290 534.035,-293.667 534.035,-297.333 534.035,-297.333 534.035,-304.667 534.035,-304.667 534.035,-308.333 530.368,-312 526.702,-312"/>
<text text-anchor="middle" x="502" y="-297.4" font-family="Helvetica,sans-Serif" font-size="12.00" fill="white">Equatable</text>
</a>
</g>
</g>
<!-- Equatable&#45;&gt;Comparable -->
<g id="edge19" class="edge">
<path fill="none" stroke="#cccccc" d="M517.375,-289.988C530.258,-281.599 548.879,-269.474 563.766,-259.78"/>
<polygon fill="#cccccc" stroke="#cccccc" points="565.998,-262.504 572.468,-254.114 562.178,-256.638 565.998,-262.504"/>
</g>
<!-- Hashable -->
<g id="node10" class="node">
<g id="a_node10"><a xlink:href="/v4.2/protocol/Hashable/hierarchy/" target="_top">
<path fill="#999999" stroke="#999999" d="M524.694,-254C524.694,-254 479.306,-254 479.306,-254 475.639,-254 471.973,-250.333 471.973,-246.667 471.973,-246.667 471.973,-239.333 471.973,-239.333 471.973,-235.667 475.639,-232 479.306,-232 479.306,-232 524.694,-232 524.694,-232 528.361,-232 532.027,-235.667 532.027,-239.333 532.027,-239.333 532.027,-246.667 532.027,-246.667 532.027,-250.333 528.361,-254 524.694,-254"/>
<text text-anchor="middle" x="502" y="-239.4" font-family="Helvetica,sans-Serif" font-size="12.00" fill="white">Hashable</text>
</a>
</g>
</g>
<!-- Equatable&#45;&gt;Hashable -->
<g id="edge15" class="edge">
<path fill="none" stroke="#cccccc" d="M502,-289.988C502,-282.91 502,-273.171 502,-264.478"/>
<polygon fill="#cccccc" stroke="#cccccc" points="505.5,-264.304 502,-254.304 498.5,-264.304 505.5,-264.304"/>
</g>
<!-- Numeric -->
<g id="node14" class="node">
<g id="a_node14"><a xlink:href="/v4.2/protocol/Numeric/hierarchy/" target="_top">
<path fill="#999999" stroke="#999999" d="M399.673,-196C399.673,-196 360.327,-196 360.327,-196 356.661,-196 352.994,-192.333 352.994,-188.667 352.994,-188.667 352.994,-181.333 352.994,-181.333 352.994,-177.667 356.661,-174 360.327,-174 360.327,-174 399.673,-174 399.673,-174 403.339,-174 407.006,-177.667 407.006,-181.333 407.006,-181.333 407.006,-188.667 407.006,-188.667 407.006,-192.333 403.339,-196 399.673,-196"/>
<text text-anchor="middle" x="380" y="-181.4" font-family="Helvetica,sans-Serif" font-size="12.00" fill="white">Numeric</text>
</a>
</g>
</g>
<!-- Equatable&#45;&gt;Numeric -->
<g id="edge16" class="edge">
<path fill="none" stroke="#cccccc" d="M469.626,-297.845C415.738,-293.509 311.335,-281.673 289,-254 269.102,-229.346 310.009,-208.857 343.245,-197.014"/>
<polygon fill="#cccccc" stroke="#cccccc" points="344.458,-200.298 352.798,-193.764 342.203,-193.671 344.458,-200.298"/>
</g>
<!-- ExpressibleByIntegerLiteral -->
<g id="node8" class="node">
<g id="a_node8"><a xlink:href="/v4.2/protocol/ExpressibleByIntegerLiteral/hierarchy/" target="_top">
<path fill="#999999" stroke="#999999" d="M446.722,-254C446.722,-254 305.278,-254 305.278,-254 301.611,-254 297.944,-250.333 297.944,-246.667 297.944,-246.667 297.944,-239.333 297.944,-239.333 297.944,-235.667 301.611,-232 305.278,-232 305.278,-232 446.722,-232 446.722,-232 450.389,-232 454.056,-235.667 454.056,-239.333 454.056,-239.333 454.056,-246.667 454.056,-246.667 454.056,-250.333 450.389,-254 446.722,-254"/>
<text text-anchor="middle" x="376" y="-239.4" font-family="Helvetica,sans-Serif" font-size="12.00" fill="white">ExpressibleByIntegerLiteral</text>
</a>
</g>
</g>
<!-- ExpressibleByIntegerLiteral&#45;&gt;Numeric -->
<g id="edge17" class="edge">
<path fill="none" stroke="#cccccc" d="M376.715,-231.988C377.221,-224.91 377.916,-215.171 378.537,-206.478"/>
<polygon fill="#cccccc" stroke="#cccccc" points="382.043,-206.528 379.264,-196.304 375.06,-206.029 382.043,-206.528"/>
</g>
<!-- FixedWidthInteger&#45;&gt;Int -->
<g id="edge1" class="edge">
<path fill="none" stroke="#cccccc" d="M613.993,-57.9883C576.47,-47.8373 518.727,-32.2161 481.153,-22.051"/>
<polygon fill="#cccccc" stroke="#cccccc" points="481.69,-18.5706 471.123,-19.3376 479.862,-25.3277 481.69,-18.5706"/>
</g>
<!-- Hashable&#45;&gt;BinaryInteger -->
<g id="edge12" class="edge">
<path fill="none" stroke="#cccccc" d="M503.385,-231.676C505.361,-218.186 509.489,-193.936 516,-174 518.945,-164.982 523.146,-155.381 527.017,-147.296"/>
<polygon fill="#cccccc" stroke="#cccccc" points="530.158,-148.84 531.47,-138.327 523.888,-145.727 530.158,-148.84"/>
</g>
<!-- LosslessStringConvertible&#45;&gt;FixedWidthInteger -->
<g id="edge9" class="edge">
<path fill="none" stroke="#cccccc" d="M666.603,-115.988C664.148,-108.752 660.75,-98.7373 657.752,-89.9"/>
<polygon fill="#cccccc" stroke="#cccccc" points="661.023,-88.6491 654.496,-80.3039 654.395,-90.8982 661.023,-88.6491"/>
</g>
<!-- MirrorPath -->
<g id="node13" class="node">
<g id="a_node13"><a xlink:href="/v4.2/protocol/MirrorPath/hierarchy/" target="_top">
<path fill="#999999" stroke="#999999" d="M469.674,-80C469.674,-80 418.326,-80 418.326,-80 414.659,-80 410.993,-76.3333 410.993,-72.6667 410.993,-72.6667 410.993,-65.3333 410.993,-65.3333 410.993,-61.6667 414.659,-58 418.326,-58 418.326,-58 469.674,-58 469.674,-58 473.341,-58 477.007,-61.6667 477.007,-65.3333 477.007,-65.3333 477.007,-72.6667 477.007,-72.6667 477.007,-76.3333 473.341,-80 469.674,-80"/>
<text text-anchor="middle" x="444" y="-65.4" font-family="Helvetica,sans-Serif" font-size="12.00" fill="white">MirrorPath</text>
</a>
</g>
</g>
<!-- MirrorPath&#45;&gt;Int -->
<g id="edge6" class="edge">
<path fill="none" stroke="#cccccc" d="M444,-57.9883C444,-50.9098 444,-41.1714 444,-32.4779"/>
<polygon fill="#cccccc" stroke="#cccccc" points="447.5,-32.3038 444,-22.3039 440.5,-32.3039 447.5,-32.3038"/>
</g>
<!-- Numeric&#45;&gt;BinaryInteger -->
<g id="edge13" class="edge">
<path fill="none" stroke="#cccccc" d="M407.347,-174.246C432.81,-165.163 470.991,-151.545 499.332,-141.436"/>
<polygon fill="#cccccc" stroke="#cccccc" points="500.666,-144.676 508.909,-138.02 498.314,-138.083 500.666,-144.676"/>
</g>
<!-- SignedNumeric -->
<g id="node16" class="node">
<g id="a_node16"><a xlink:href="/v4.2/protocol/SignedNumeric/hierarchy/" target="_top">
<path fill="#999999" stroke="#999999" d="M435.695,-138C435.695,-138 358.305,-138 358.305,-138 354.639,-138 350.972,-134.333 350.972,-130.667 350.972,-130.667 350.972,-123.333 350.972,-123.333 350.972,-119.667 354.639,-116 358.305,-116 358.305,-116 435.695,-116 435.695,-116 439.361,-116 443.028,-119.667 443.028,-123.333 443.028,-123.333 443.028,-130.667 443.028,-130.667 443.028,-134.333 439.361,-138 435.695,-138"/>
<text text-anchor="middle" x="397" y="-123.4" font-family="Helvetica,sans-Serif" font-size="12.00" fill="white">SignedNumeric</text>
</a>
</g>
</g>
<!-- Numeric&#45;&gt;SignedNumeric -->
<g id="edge23" class="edge">
<path fill="none" stroke="#cccccc" d="M383.039,-173.988C385.236,-166.752 388.276,-156.737 390.959,-147.9"/>
<polygon fill="#cccccc" stroke="#cccccc" points="394.316,-148.889 393.872,-138.304 387.618,-146.856 394.316,-148.889"/>
</g>
<!-- SignedInteger&#45;&gt;Int -->
<g id="edge2" class="edge">
<path fill="none" stroke="#cccccc" d="M520.373,-57.9883C506.31,-49.5201 485.925,-37.2452 469.752,-27.5067"/>
<polygon fill="#cccccc" stroke="#cccccc" points="471.168,-24.274 460.796,-22.1138 467.557,-30.2707 471.168,-24.274"/>
</g>
<!-- SignedNumeric&#45;&gt;SignedInteger -->
<g id="edge22" class="edge">
<path fill="none" stroke="#cccccc" d="M422.029,-115.988C444.387,-107.045 477.358,-93.8566 502.266,-83.8935"/>
<polygon fill="#cccccc" stroke="#cccccc" points="503.731,-87.0775 511.715,-80.1138 501.131,-80.5781 503.731,-87.0775"/>
</g>
<!-- Strideable&#45;&gt;BinaryInteger -->
<g id="edge14" class="edge">
<path fill="none" stroke="#cccccc" d="M553.424,-173.988C550.84,-166.752 547.263,-156.737 544.107,-147.9"/>
<polygon fill="#cccccc" stroke="#cccccc" points="547.339,-146.544 540.68,-138.304 540.747,-148.899 547.339,-146.544"/>
</g>
<!-- Codable -->
<g id="node18" class="node">
<path fill="#999999" stroke="#999999" d="M769.694,-80C769.694,-80 730.306,-80 730.306,-80 726.639,-80 722.972,-76.3333 722.972,-72.6667 722.972,-72.6667 722.972,-65.3333 722.972,-65.3333 722.972,-61.6667 726.639,-58 730.306,-58 730.306,-58 769.694,-58 769.694,-58 773.361,-58 777.028,-61.6667 777.028,-65.3333 777.028,-65.3333 777.028,-72.6667 777.028,-72.6667 777.028,-76.3333 773.361,-80 769.694,-80"/>
<text text-anchor="middle" x="750" y="-65.4" font-family="Helvetica,sans-Serif" font-size="12.00" fill="white">Codable</text>
</g>
<!-- Codable&#45;&gt;Int -->
<g id="edge3" class="edge">
<path fill="none" stroke="#cccccc" d="M722.592,-60.2827C719.37,-59.4673 716.119,-58.6866 713,-58 630.967,-39.9429 533.544,-24.8346 481.389,-17.2509"/>
<polygon fill="#cccccc" stroke="#cccccc" points="481.671,-13.7555 471.274,-15.7922 480.672,-20.6838 481.671,-13.7555"/>
</g>
<!-- _BitwiseOperations -->
<g id="node19" class="node">
<path fill="#999999" stroke="#999999" d="M868.203,-138C868.203,-138 769.797,-138 769.797,-138 766.13,-138 762.463,-134.333 762.463,-130.667 762.463,-130.667 762.463,-123.333 762.463,-123.333 762.463,-119.667 766.13,-116 769.797,-116 769.797,-116 868.203,-116 868.203,-116 871.87,-116 875.537,-119.667 875.537,-123.333 875.537,-123.333 875.537,-130.667 875.537,-130.667 875.537,-134.333 871.87,-138 868.203,-138"/>
<text text-anchor="middle" x="819" y="-123.4" font-family="Helvetica,sans-Serif" font-size="12.00" fill="white">_BitwiseOperations</text>
</g>
<!-- _BitwiseOperations&#45;&gt;FixedWidthInteger -->
<g id="edge10" class="edge">
<path fill="none" stroke="#cccccc" d="M788.965,-115.988C761.576,-106.859 720.914,-93.3046 690.823,-83.2743"/>
<polygon fill="#cccccc" stroke="#cccccc" points="691.651,-79.8612 681.058,-80.0192 689.438,-86.502 691.651,-79.8612"/>
</g>
</g>
</svg>
