<?xml version="1.0" encoding="UTF-8" standalone="no"?>
<!DOCTYPE svg PUBLIC "-//W3C//DTD SVG 1.1//EN"
 "http://www.w3.org/Graphics/SVG/1.1/DTD/svg11.dtd">
<!-- Generated by graphviz version 2.36.0 (20140111.2315)
 -->
<!-- Title: ExpressibleByIntegerLiteral &#45; Type Hierarchy &#45; SwiftDoc.org Pages: 1 -->
<svg width="932pt" height="427pt"
 viewBox="0.00 0.00 932.40 427.20" xmlns="http://www.w3.org/2000/svg" xmlns:xlink="http://www.w3.org/1999/xlink">
<g id="graph0" class="graph" transform="scale(1 1) rotate(0) translate(7.2 369.6)">
<g transform="translate(0 -369.6)">
<g>
    <path fill="#666666" d="M13.846,10.832c-0.336-0.464-0.792-0.844-1.368-1.14s-1.224-0.444-1.944-0.444
        c-0.384,0-0.772,0.052-1.164,0.156C8.977,9.509,8.622,9.677,8.301,9.908c-0.32,0.232-0.58,0.52-0.78,0.864
        c-0.2,0.344-0.3,0.756-0.3,1.236c0,0.464,0.092,0.852,0.276,1.164c0.184,0.312,0.432,0.576,0.744,0.792s0.68,0.4,1.104,0.552
        c0.423,0.152,0.876,0.309,1.356,0.468c0.576,0.177,1.16,0.376,1.752,0.601c0.592,0.224,1.128,0.52,1.608,0.888
        s0.872,0.828,1.176,1.38s0.456,1.252,0.456,2.101c0,0.88-0.164,1.644-0.492,2.292c-0.328,0.647-0.765,1.184-1.308,1.607
        c-0.544,0.424-1.172,0.74-1.884,0.948s-1.444,0.312-2.196,0.312c-1.072,0-2.108-0.208-3.108-0.624
        c-1-0.415-1.828-1.031-2.484-1.848l1.848-1.56c0.4,0.592,0.936,1.071,1.608,1.439c0.672,0.368,1.399,0.552,2.184,0.552
        c0.4,0,0.8-0.056,1.2-0.168c0.4-0.111,0.764-0.288,1.092-0.527c0.328-0.24,0.596-0.54,0.804-0.9
        c0.208-0.36,0.312-0.796,0.312-1.308s-0.108-0.94-0.324-1.284c-0.216-0.344-0.508-0.636-0.876-0.876s-0.796-0.444-1.284-0.612
        c-0.488-0.168-1.004-0.34-1.548-0.516c-0.544-0.16-1.08-0.356-1.608-0.588c-0.528-0.232-1-0.528-1.416-0.889
        c-0.416-0.359-0.752-0.804-1.008-1.332c-0.256-0.527-0.384-1.184-0.384-1.968c0-0.848,0.172-1.576,0.516-2.184
        c0.344-0.608,0.792-1.112,1.344-1.512c0.552-0.4,1.176-0.692,1.872-0.876c0.696-0.184,1.396-0.276,2.1-0.276
        c0.992,0,1.92,0.176,2.784,0.528c0.864,0.352,1.56,0.824,2.088,1.416L13.846,10.832z"/>
    <path fill="#666666" d="M18.813,13.304l2.568,8.688h0.048l2.712-8.688h2.376l2.76,8.688h0.048l2.568-8.688h2.376L30.501,24.68
        h-2.352l-2.808-8.544h-0.048l-2.784,8.544h-2.352l-3.792-11.376H18.813z"/>
    <path fill="#666666" d="M38.685,9.2c0,0.416-0.147,0.76-0.44,1.032c-0.294,0.272-0.647,0.408-1.06,0.408s-0.762-0.14-1.047-0.42
        c-0.286-0.28-0.429-0.62-0.429-1.02c0-0.416,0.143-0.764,0.429-1.044c0.286-0.28,0.635-0.42,1.047-0.42s0.766,0.14,1.06,0.42
        C38.538,8.437,38.685,8.784,38.685,9.2z M38.325,24.68h-2.256V13.304h2.256V24.68z"/>
    <path fill="#666666" d="M47.613,15.152h-2.64v9.528h-2.256v-9.528h-2.256v-1.848h2.256v-2.376c0-0.672,0.076-1.292,0.228-1.86
        c0.152-0.568,0.4-1.06,0.744-1.476c0.344-0.416,0.784-0.744,1.32-0.984c0.536-0.24,1.188-0.36,1.956-0.36
        c0.544,0,1.016,0.056,1.416,0.168l-0.264,1.944c-0.176-0.048-0.352-0.088-0.528-0.12c-0.176-0.032-0.376-0.048-0.6-0.048
        c-0.432,0-0.78,0.076-1.044,0.228c-0.264,0.152-0.468,0.356-0.612,0.612s-0.24,0.548-0.288,0.876
        c-0.048,0.328-0.072,0.668-0.072,1.02v2.376h2.64V15.152z"/>
    <path fill="#666666" d="M54.909,15.152h-3.024v5.91c0,0.687,0.128,1.177,0.384,1.472c0.256,0.295,0.664,0.442,1.224,0.442
        c0.208,0,0.432-0.021,0.672-0.065c0.24-0.044,0.456-0.11,0.648-0.198l0.072,1.848c-0.272,0.096-0.572,0.172-0.9,0.229
        c-0.328,0.056-0.668,0.084-1.02,0.084c-1.072,0-1.892-0.296-2.46-0.889c-0.568-0.592-0.852-1.479-0.852-2.664v-6.168h-2.184
        v-1.848h2.184V10.04h2.232v3.264h3.024V15.152z"/>
    <path fill="#666666" d="M57.356,7.688h5.832c1.088,0,2.176,0.16,3.264,0.48c1.088,0.32,2.072,0.824,2.952,1.512
        s1.592,1.568,2.136,2.64c0.544,1.072,0.816,2.36,0.816,3.864c0,1.456-0.272,2.716-0.816,3.78s-1.256,1.943-2.136,2.64
        s-1.864,1.216-2.952,1.561c-1.088,0.344-2.176,0.516-3.264,0.516h-5.832V7.688z M59.732,22.593h2.976
        c1.024,0,1.972-0.145,2.844-0.432c0.872-0.288,1.624-0.704,2.256-1.248c0.632-0.544,1.124-1.216,1.476-2.017
        c0.352-0.8,0.528-1.704,0.528-2.712c0-1.056-0.176-1.983-0.528-2.784c-0.353-0.8-0.844-1.468-1.476-2.004
        c-0.632-0.536-1.384-0.944-2.256-1.224s-1.82-0.42-2.844-0.42h-2.976V22.593z"/>
    <path fill="#666666" d="M86.06,18.969c0,0.88-0.156,1.688-0.468,2.424c-0.312,0.736-0.744,1.372-1.296,1.908
        c-0.552,0.536-1.204,0.952-1.956,1.248c-0.752,0.296-1.56,0.443-2.424,0.443c-0.864,0-1.672-0.147-2.424-0.443
        c-0.752-0.296-1.4-0.712-1.944-1.248c-0.544-0.536-0.972-1.172-1.284-1.908c-0.312-0.735-0.468-1.544-0.468-2.424
        s0.156-1.684,0.468-2.412c0.312-0.728,0.74-1.356,1.284-1.884c0.543-0.528,1.191-0.939,1.944-1.236
        c0.752-0.296,1.56-0.444,2.424-0.444c0.864,0,1.672,0.148,2.424,0.444c0.752,0.297,1.404,0.708,1.956,1.236
        c0.552,0.527,0.984,1.156,1.296,1.884C85.904,17.285,86.06,18.089,86.06,18.969z M83.708,18.98c0-0.542-0.084-1.061-0.252-1.556
        c-0.169-0.494-0.414-0.929-0.734-1.304s-0.718-0.674-1.192-0.897s-1.015-0.335-1.625-0.335c-0.61,0-1.152,0.111-1.625,0.335
        c-0.474,0.224-0.871,0.522-1.191,0.897c-0.321,0.375-0.566,0.81-0.734,1.304C76.184,17.92,76.1,18.438,76.1,18.98
        c0,0.543,0.084,1.062,0.253,1.556c0.168,0.495,0.413,0.934,0.734,1.316c0.321,0.383,0.718,0.686,1.191,0.909
        c0.473,0.224,1.015,0.335,1.625,0.335c0.61,0,1.151-0.111,1.625-0.335s0.871-0.526,1.192-0.909s0.565-0.821,0.734-1.316
        C83.624,20.042,83.708,19.523,83.708,18.98z"/>
    <path fill="#666666" d="M96.428,16.184c-0.24-0.368-0.6-0.676-1.08-0.924s-0.992-0.372-1.536-0.372
        c-0.592,0-1.116,0.112-1.572,0.336c-0.456,0.225-0.844,0.524-1.164,0.9c-0.32,0.376-0.564,0.812-0.732,1.308
        s-0.252,1.017-0.252,1.56c0,0.545,0.084,1.064,0.252,1.561s0.412,0.933,0.732,1.308c0.32,0.376,0.712,0.677,1.176,0.9
        c0.464,0.225,0.992,0.336,1.584,0.336c0.576,0,1.1-0.111,1.572-0.336c0.472-0.224,0.86-0.528,1.164-0.912l1.512,1.368
        c-0.48,0.561-1.08,0.996-1.8,1.308c-0.72,0.312-1.536,0.468-2.448,0.468c-0.88,0-1.692-0.144-2.436-0.432
        c-0.744-0.288-1.388-0.691-1.932-1.212c-0.544-0.52-0.972-1.147-1.284-1.884s-0.468-1.561-0.468-2.473
        c0-0.896,0.152-1.711,0.456-2.447c0.304-0.736,0.728-1.368,1.272-1.896c0.543-0.527,1.188-0.936,1.932-1.224
        c0.744-0.288,1.548-0.433,2.412-0.433c0.8,0,1.596,0.16,2.388,0.48s1.419,0.784,1.884,1.392L96.428,16.184z"/>
    <path fill="#666666" d="M103.1,23.24c0,0.417-0.152,0.784-0.456,1.104c-0.304,0.32-0.688,0.479-1.152,0.479
        c-0.448,0-0.828-0.155-1.14-0.468c-0.312-0.312-0.468-0.676-0.468-1.092c0-0.432,0.152-0.804,0.456-1.116
        c0.304-0.312,0.688-0.468,1.152-0.468c0.464,0,0.848,0.152,1.152,0.456C102.947,22.44,103.1,22.808,103.1,23.24z"/>
    <path fill="#666666" d="M116.635,18.969c0,0.88-0.156,1.688-0.468,2.424c-0.312,0.736-0.744,1.372-1.296,1.908
        c-0.552,0.536-1.204,0.952-1.956,1.248c-0.752,0.296-1.56,0.443-2.424,0.443c-0.864,0-1.672-0.147-2.424-0.443
        c-0.752-0.296-1.4-0.712-1.944-1.248c-0.544-0.536-0.972-1.172-1.284-1.908c-0.312-0.735-0.468-1.544-0.468-2.424
        s0.156-1.684,0.468-2.412c0.312-0.728,0.74-1.356,1.284-1.884c0.543-0.528,1.191-0.939,1.944-1.236
        c0.752-0.296,1.56-0.444,2.424-0.444c0.864,0,1.672,0.148,2.424,0.444c0.752,0.297,1.404,0.708,1.956,1.236
        c0.552,0.527,0.984,1.156,1.296,1.884C116.479,17.285,116.635,18.089,116.635,18.969z M114.283,18.98
        c0-0.542-0.084-1.061-0.252-1.556c-0.169-0.494-0.414-0.929-0.734-1.304s-0.718-0.674-1.192-0.897s-1.015-0.335-1.625-0.335
        c-0.61,0-1.152,0.111-1.625,0.335c-0.474,0.224-0.871,0.522-1.191,0.897c-0.321,0.375-0.566,0.81-0.734,1.304
        c-0.169,0.495-0.253,1.014-0.253,1.556c0,0.543,0.084,1.062,0.253,1.556c0.168,0.495,0.413,0.934,0.734,1.316
        c0.321,0.383,0.718,0.686,1.191,0.909c0.473,0.224,1.015,0.335,1.625,0.335c0.61,0,1.151-0.111,1.625-0.335
        s0.871-0.526,1.192-0.909s0.565-0.821,0.734-1.316C114.199,20.042,114.283,19.523,114.283,18.98z"/>
    <path fill="#666666" d="M119.251,14.577c-0.016-0.48-0.04-0.904-0.072-1.272h2.136c0.032,0.288,0.056,0.62,0.072,0.996
        c0.016,0.376,0.024,0.684,0.024,0.924h0.072c0.32-0.672,0.788-1.212,1.404-1.62c0.616-0.408,1.308-0.612,2.076-0.612
        c0.352,0,0.648,0.033,0.888,0.097l-0.096,2.088c-0.32-0.08-0.664-0.12-1.032-0.12c-0.544,0-1.016,0.101-1.416,0.3
        c-0.4,0.2-0.732,0.468-0.996,0.805c-0.264,0.336-0.46,0.724-0.588,1.163c-0.128,0.44-0.192,0.9-0.192,1.381v5.976h-2.256v-8.928
        C119.275,15.449,119.267,15.056,119.251,14.577z"/>
    <path fill="#666666" d="M128.419,26.625c0.496,0.56,1.116,1.008,1.86,1.344c0.744,0.336,1.508,0.504,2.292,0.504
        c0.752,0,1.384-0.108,1.896-0.324s0.924-0.512,1.236-0.888s0.536-0.82,0.672-1.332c0.136-0.513,0.204-1.064,0.204-1.656v-1.464
        h-0.048c-0.416,0.641-0.984,1.128-1.704,1.464c-0.72,0.336-1.488,0.504-2.304,0.504c-0.864,0-1.652-0.151-2.364-0.456
        c-0.712-0.304-1.316-0.72-1.812-1.248c-0.496-0.527-0.88-1.147-1.152-1.859s-0.408-1.477-0.408-2.292
        c0-0.816,0.136-1.584,0.408-2.305c0.272-0.72,0.656-1.348,1.152-1.884c0.496-0.535,1.096-0.96,1.8-1.271
        c0.704-0.312,1.488-0.469,2.352-0.469c0.816,0,1.596,0.177,2.34,0.528c0.744,0.353,1.332,0.888,1.764,1.608h0.048v-1.824h2.184
        v10.8c0,0.832-0.104,1.628-0.312,2.388c-0.208,0.76-0.56,1.433-1.056,2.017s-1.144,1.052-1.944,1.404
        c-0.8,0.352-1.792,0.527-2.976,0.527c-0.992,0-1.988-0.18-2.988-0.54c-1-0.359-1.86-0.868-2.58-1.523L128.419,26.625z
         M129.091,18.873c0,0.527,0.084,1.031,0.253,1.512c0.168,0.479,0.417,0.904,0.746,1.271c0.329,0.369,0.726,0.664,1.192,0.889
        c0.465,0.224,0.995,0.336,1.589,0.336c0.577,0,1.107-0.104,1.589-0.312c0.481-0.207,0.891-0.491,1.228-0.852
        s0.598-0.784,0.782-1.272c0.185-0.487,0.277-1.012,0.277-1.571c0-0.544-0.093-1.057-0.277-1.536
        c-0.185-0.48-0.449-0.904-0.794-1.272c-0.345-0.367-0.755-0.66-1.228-0.876c-0.474-0.216-1-0.324-1.577-0.324
        c-0.594,0-1.124,0.108-1.589,0.324c-0.466,0.216-0.863,0.504-1.192,0.864s-0.578,0.784-0.746,1.271
        C129.175,17.812,129.091,18.329,129.091,18.873z"/>
</g>
<g><a xlink:href="/" pointer-events="all" target="_top"><polygon fill="none" points="0,0 145,0 145,35 0,35 0,0"/></a></g>

</g>


<!-- AbsoluteValuable -->
<g id="node1" class="node">
<g id="a_node1"><a xlink:href="/v3.0/protocol/AbsoluteValuable/hierarchy/" target="_top">
<path fill="#999999" stroke="#999999" d="M263.558,-196C263.558,-196 176.442,-196 176.442,-196 172.775,-196 169.109,-192.333 169.109,-188.667 169.109,-188.667 169.109,-181.333 169.109,-181.333 169.109,-177.667 172.775,-174 176.442,-174 176.442,-174 263.558,-174 263.558,-174 267.225,-174 270.891,-177.667 270.891,-181.333 270.891,-181.333 270.891,-188.667 270.891,-188.667 270.891,-192.333 267.225,-196 263.558,-196"/>
<text text-anchor="middle" x="220" y="-181.4" font-family="Helvetica,sans-Serif" font-size="12.00" fill="white">AbsoluteValuable</text>
</a>
</g>
</g>
<!-- FloatingPoint -->
<g id="node7" class="node">
<g id="a_node7"><a xlink:href="/v3.0/protocol/FloatingPoint/hierarchy/" target="_top">
<path fill="#999999" stroke="#999999" d="M240.699,-138C240.699,-138 175.301,-138 175.301,-138 171.634,-138 167.968,-134.333 167.968,-130.667 167.968,-130.667 167.968,-123.333 167.968,-123.333 167.968,-119.667 171.634,-116 175.301,-116 175.301,-116 240.699,-116 240.699,-116 244.366,-116 248.032,-119.667 248.032,-123.333 248.032,-123.333 248.032,-130.667 248.032,-130.667 248.032,-134.333 244.366,-138 240.699,-138"/>
<text text-anchor="middle" x="208" y="-123.4" font-family="Helvetica,sans-Serif" font-size="12.00" fill="white">FloatingPoint</text>
</a>
</g>
</g>
<!-- AbsoluteValuable&#45;&gt;FloatingPoint -->
<g id="edge5" class="edge">
<path fill="none" stroke="#cccccc" d="M217.855,-173.988C216.321,-166.831 214.205,-156.955 212.326,-148.189"/>
<polygon fill="#cccccc" stroke="#cccccc" points="215.726,-147.349 210.208,-138.304 208.881,-148.815 215.726,-147.349"/>
</g>
<!-- BinaryFloatingPoint -->
<g id="node2" class="node">
<g id="a_node2"><a xlink:href="/v3.0/protocol/BinaryFloatingPoint/hierarchy/" target="_top">
<path fill="#999999" stroke="#999999" d="M184.709,-80C184.709,-80 85.2908,-80 85.2908,-80 81.6242,-80 77.9575,-76.3333 77.9575,-72.6667 77.9575,-72.6667 77.9575,-65.3333 77.9575,-65.3333 77.9575,-61.6667 81.6242,-58 85.2908,-58 85.2908,-58 184.709,-58 184.709,-58 188.376,-58 192.042,-61.6667 192.042,-65.3333 192.042,-65.3333 192.042,-72.6667 192.042,-72.6667 192.042,-76.3333 188.376,-80 184.709,-80"/>
<text text-anchor="middle" x="135" y="-65.4" font-family="Helvetica,sans-Serif" font-size="12.00" fill="white">BinaryFloatingPoint</text>
</a>
</g>
</g>
<!-- Double -->
<g id="node3" class="node">
<g id="a_node3"><a xlink:href="/v3.0/type/Double/hierarchy/" target="_top">
<polygon fill="#999999" stroke="#999999" points="54,-22 0,-22 0,-0 54,-0 54,-22"/>
<text text-anchor="middle" x="27" y="-7.4" font-family="Helvetica,sans-Serif" font-size="12.00" fill="white">Double</text>
</a>
</g>
</g>
<!-- BinaryFloatingPoint&#45;&gt;Double -->
<g id="edge7" class="edge">
<path fill="none" stroke="#cccccc" d="M115.692,-57.9883C98.9787,-49.3223 74.577,-36.6696 55.5974,-26.8283"/>
<polygon fill="#cccccc" stroke="#cccccc" points="56.9939,-23.6099 46.5052,-22.1138 53.7716,-29.8242 56.9939,-23.6099"/>
</g>
<!-- Float -->
<g id="node5" class="node">
<g id="a_node5"><a xlink:href="/v3.0/type/Float/hierarchy/" target="_top">
<polygon fill="#999999" stroke="#999999" points="126,-22 72,-22 72,-0 126,-0 126,-22"/>
<text text-anchor="middle" x="99" y="-7.4" font-family="Helvetica,sans-Serif" font-size="12.00" fill="white">Float</text>
</a>
</g>
</g>
<!-- BinaryFloatingPoint&#45;&gt;Float -->
<g id="edge8" class="edge">
<path fill="none" stroke="#cccccc" d="M128.564,-57.9883C123.71,-50.4379 116.911,-39.8611 111.056,-30.7543"/>
<polygon fill="#cccccc" stroke="#cccccc" points="113.976,-28.823 105.624,-22.3039 108.087,-32.6083 113.976,-28.823"/>
</g>
<!-- Float80 -->
<g id="node6" class="node">
<g id="a_node6"><a xlink:href="/v3.0/type/Float80/hierarchy/" target="_top">
<polygon fill="#999999" stroke="#999999" points="198,-22 144,-22 144,-0 198,-0 198,-22"/>
<text text-anchor="middle" x="171" y="-7.4" font-family="Helvetica,sans-Serif" font-size="12.00" fill="white">Float80</text>
</a>
</g>
</g>
<!-- BinaryFloatingPoint&#45;&gt;Float80 -->
<g id="edge9" class="edge">
<path fill="none" stroke="#cccccc" d="M141.436,-57.9883C146.29,-50.4379 153.089,-39.8611 158.944,-30.7543"/>
<polygon fill="#cccccc" stroke="#cccccc" points="161.913,-32.6083 164.376,-22.3039 156.024,-28.823 161.913,-32.6083"/>
</g>
<!-- ExpressibleByIntegerLiteral -->
<g id="node4" class="node">
<g id="a_node4"><a xlink:href="/v3.0/protocol/ExpressibleByIntegerLiteral/" target="_top">
<path fill="#ee543d" stroke="#ee543d" d="M510.722,-312C510.722,-312 369.278,-312 369.278,-312 365.611,-312 361.944,-308.333 361.944,-304.667 361.944,-304.667 361.944,-297.333 361.944,-297.333 361.944,-293.667 365.611,-290 369.278,-290 369.278,-290 510.722,-290 510.722,-290 514.389,-290 518.056,-293.667 518.056,-297.333 518.056,-297.333 518.056,-304.667 518.056,-304.667 518.056,-308.333 514.389,-312 510.722,-312"/>
<text text-anchor="middle" x="440" y="-297.4" font-family="Helvetica,sans-Serif" font-size="12.00" fill="white">ExpressibleByIntegerLiteral</text>
</a>
</g>
</g>
<!-- SignedNumber -->
<g id="node15" class="node">
<g id="a_node15"><a xlink:href="/v3.0/protocol/SignedNumber/hierarchy/" target="_top">
<path fill="#999999" stroke="#999999" d="M441.7,-254C441.7,-254 366.3,-254 366.3,-254 362.633,-254 358.966,-250.333 358.966,-246.667 358.966,-246.667 358.966,-239.333 358.966,-239.333 358.966,-235.667 362.633,-232 366.3,-232 366.3,-232 441.7,-232 441.7,-232 445.367,-232 449.034,-235.667 449.034,-239.333 449.034,-239.333 449.034,-246.667 449.034,-246.667 449.034,-250.333 445.367,-254 441.7,-254"/>
<text text-anchor="middle" x="404" y="-239.4" font-family="Helvetica,sans-Serif" font-size="12.00" fill="white">SignedNumber</text>
</a>
</g>
</g>
<!-- ExpressibleByIntegerLiteral&#45;&gt;SignedNumber -->
<g id="edge1" class="edge">
<path fill="none" stroke="#cccccc" d="M433.564,-289.988C428.71,-282.438 421.911,-271.861 416.056,-262.754"/>
<polygon fill="#cccccc" stroke="#cccccc" points="418.976,-260.823 410.624,-254.304 413.087,-264.608 418.976,-260.823"/>
</g>
<!-- _Integer -->
<g id="node23" class="node">
<g id="a_node23"><a xlink:href="/v3.0/protocol/_Integer/hierarchy/" target="_top">
<path fill="#999999" stroke="#999999" d="M509.692,-196C509.692,-196 470.308,-196 470.308,-196 466.642,-196 462.975,-192.333 462.975,-188.667 462.975,-188.667 462.975,-181.333 462.975,-181.333 462.975,-177.667 466.642,-174 470.308,-174 470.308,-174 509.692,-174 509.692,-174 513.358,-174 517.025,-177.667 517.025,-181.333 517.025,-181.333 517.025,-188.667 517.025,-188.667 517.025,-192.333 513.358,-196 509.692,-196"/>
<text text-anchor="middle" x="490" y="-181.4" font-family="Helvetica,sans-Serif" font-size="12.00" fill="white">_Integer</text>
</a>
</g>
</g>
<!-- ExpressibleByIntegerLiteral&#45;&gt;_Integer -->
<g id="edge2" class="edge">
<path fill="none" stroke="#cccccc" d="M444.437,-289.883C452.719,-271.002 470.659,-230.098 481.392,-205.627"/>
<polygon fill="#cccccc" stroke="#cccccc" points="484.689,-206.822 485.501,-196.258 478.279,-204.01 484.689,-206.822"/>
</g>
<!-- FloatingPoint&#45;&gt;BinaryFloatingPoint -->
<g id="edge6" class="edge">
<path fill="none" stroke="#cccccc" d="M194.949,-115.988C184.286,-107.809 168.994,-96.0773 156.523,-86.5108"/>
<polygon fill="#cccccc" stroke="#cccccc" points="158.496,-83.6135 148.432,-80.3039 154.236,-89.1675 158.496,-83.6135"/>
</g>
<!-- Int -->
<g id="node8" class="node">
<g id="a_node8"><a xlink:href="/v3.0/type/Int/hierarchy/" target="_top">
<polygon fill="#999999" stroke="#999999" points="270,-22 216,-22 216,-0 270,-0 270,-22"/>
<text text-anchor="middle" x="243" y="-7.4" font-family="Helvetica,sans-Serif" font-size="12.00" fill="white">Int</text>
</a>
</g>
</g>
<!-- Int16 -->
<g id="node9" class="node">
<g id="a_node9"><a xlink:href="/v3.0/type/Int16/hierarchy/" target="_top">
<polygon fill="#999999" stroke="#999999" points="342,-22 288,-22 288,-0 342,-0 342,-22"/>
<text text-anchor="middle" x="315" y="-7.4" font-family="Helvetica,sans-Serif" font-size="12.00" fill="white">Int16</text>
</a>
</g>
</g>
<!-- Int32 -->
<g id="node10" class="node">
<g id="a_node10"><a xlink:href="/v3.0/type/Int32/hierarchy/" target="_top">
<polygon fill="#999999" stroke="#999999" points="414,-22 360,-22 360,-0 414,-0 414,-22"/>
<text text-anchor="middle" x="387" y="-7.4" font-family="Helvetica,sans-Serif" font-size="12.00" fill="white">Int32</text>
</a>
</g>
</g>
<!-- Int64 -->
<g id="node11" class="node">
<g id="a_node11"><a xlink:href="/v3.0/type/Int64/hierarchy/" target="_top">
<polygon fill="#999999" stroke="#999999" points="486,-22 432,-22 432,-0 486,-0 486,-22"/>
<text text-anchor="middle" x="459" y="-7.4" font-family="Helvetica,sans-Serif" font-size="12.00" fill="white">Int64</text>
</a>
</g>
</g>
<!-- Int8 -->
<g id="node12" class="node">
<g id="a_node12"><a xlink:href="/v3.0/type/Int8/hierarchy/" target="_top">
<polygon fill="#999999" stroke="#999999" points="558,-22 504,-22 504,-0 558,-0 558,-22"/>
<text text-anchor="middle" x="531" y="-7.4" font-family="Helvetica,sans-Serif" font-size="12.00" fill="white">Int8</text>
</a>
</g>
</g>
<!-- Integer -->
<g id="node13" class="node">
<g id="a_node13"><a xlink:href="/v3.0/protocol/Integer/hierarchy/" target="_top">
<path fill="#999999" stroke="#999999" d="M514.667,-138C514.667,-138 475.333,-138 475.333,-138 471.667,-138 468,-134.333 468,-130.667 468,-130.667 468,-123.333 468,-123.333 468,-119.667 471.667,-116 475.333,-116 475.333,-116 514.667,-116 514.667,-116 518.333,-116 522,-119.667 522,-123.333 522,-123.333 522,-130.667 522,-130.667 522,-134.333 518.333,-138 514.667,-138"/>
<text text-anchor="middle" x="495" y="-123.4" font-family="Helvetica,sans-Serif" font-size="12.00" fill="white">Integer</text>
</a>
</g>
</g>
<!-- SignedInteger -->
<g id="node14" class="node">
<g id="a_node14"><a xlink:href="/v3.0/protocol/SignedInteger/hierarchy/" target="_top">
<path fill="#999999" stroke="#999999" d="M438.711,-80C438.711,-80 369.289,-80 369.289,-80 365.622,-80 361.956,-76.3333 361.956,-72.6667 361.956,-72.6667 361.956,-65.3333 361.956,-65.3333 361.956,-61.6667 365.622,-58 369.289,-58 369.289,-58 438.711,-58 438.711,-58 442.378,-58 446.044,-61.6667 446.044,-65.3333 446.044,-65.3333 446.044,-72.6667 446.044,-72.6667 446.044,-76.3333 442.378,-80 438.711,-80"/>
<text text-anchor="middle" x="404" y="-65.4" font-family="Helvetica,sans-Serif" font-size="12.00" fill="white">SignedInteger</text>
</a>
</g>
</g>
<!-- Integer&#45;&gt;SignedInteger -->
<g id="edge19" class="edge">
<path fill="none" stroke="#cccccc" d="M478.731,-115.988C464.97,-107.52 445.023,-95.2452 429.198,-85.5067"/>
<polygon fill="#cccccc" stroke="#cccccc" points="430.786,-82.374 420.435,-80.1138 427.117,-88.3356 430.786,-82.374"/>
</g>
<!-- UnsignedInteger -->
<g id="node21" class="node">
<g id="a_node21"><a xlink:href="/v3.0/protocol/UnsignedInteger/hierarchy/" target="_top">
<path fill="#999999" stroke="#999999" d="M716.712,-80C716.712,-80 633.288,-80 633.288,-80 629.621,-80 625.955,-76.3333 625.955,-72.6667 625.955,-72.6667 625.955,-65.3333 625.955,-65.3333 625.955,-61.6667 629.621,-58 633.288,-58 633.288,-58 716.712,-58 716.712,-58 720.379,-58 724.045,-61.6667 724.045,-65.3333 724.045,-65.3333 724.045,-72.6667 724.045,-72.6667 724.045,-76.3333 720.379,-80 716.712,-80"/>
<text text-anchor="middle" x="675" y="-65.4" font-family="Helvetica,sans-Serif" font-size="12.00" fill="white">UnsignedInteger</text>
</a>
</g>
</g>
<!-- Integer&#45;&gt;UnsignedInteger -->
<g id="edge20" class="edge">
<path fill="none" stroke="#cccccc" d="M522.338,-117.495C551.788,-108.333 599.008,-93.6421 633.139,-83.0234"/>
<polygon fill="#cccccc" stroke="#cccccc" points="634.325,-86.3199 642.834,-80.0071 632.246,-79.6359 634.325,-86.3199"/>
</g>
<!-- SignedInteger&#45;&gt;Int -->
<g id="edge11" class="edge">
<path fill="none" stroke="#cccccc" d="M375.216,-57.9883C348.598,-48.7296 308.895,-34.9202 279.946,-24.8507"/>
<polygon fill="#cccccc" stroke="#cccccc" points="280.788,-21.4381 270.193,-21.4586 278.488,-28.0496 280.788,-21.4381"/>
</g>
<!-- SignedInteger&#45;&gt;Int16 -->
<g id="edge12" class="edge">
<path fill="none" stroke="#cccccc" d="M388.089,-57.9883C374.63,-49.5201 355.122,-37.2452 339.645,-27.5067"/>
<polygon fill="#cccccc" stroke="#cccccc" points="341.402,-24.4771 331.074,-22.1138 337.674,-30.4018 341.402,-24.4771"/>
</g>
<!-- SignedInteger&#45;&gt;Int32 -->
<g id="edge13" class="edge">
<path fill="none" stroke="#cccccc" d="M400.961,-57.9883C398.764,-50.7525 395.724,-40.7373 393.041,-31.9"/>
<polygon fill="#cccccc" stroke="#cccccc" points="396.382,-30.856 390.128,-22.3039 389.684,-32.8894 396.382,-30.856"/>
</g>
<!-- SignedInteger&#45;&gt;Int64 -->
<g id="edge14" class="edge">
<path fill="none" stroke="#cccccc" d="M413.833,-57.9883C421.557,-50.1233 432.507,-38.9745 441.691,-29.6239"/>
<polygon fill="#cccccc" stroke="#cccccc" points="444.37,-31.8909 448.88,-22.3039 439.376,-26.9859 444.37,-31.8909"/>
</g>
<!-- SignedInteger&#45;&gt;Int8 -->
<g id="edge15" class="edge">
<path fill="none" stroke="#cccccc" d="M426.705,-57.9883C446.807,-49.1244 476.368,-36.0897 498.89,-26.1587"/>
<polygon fill="#cccccc" stroke="#cccccc" points="500.325,-29.351 508.063,-22.1138 497.501,-22.946 500.325,-29.351"/>
</g>
<!-- SignedNumber&#45;&gt;AbsoluteValuable -->
<g id="edge3" class="edge">
<path fill="none" stroke="#cccccc" d="M371.104,-231.988C340.846,-222.779 295.796,-209.068 262.758,-199.013"/>
<polygon fill="#cccccc" stroke="#cccccc" points="263.506,-195.583 252.92,-196.019 261.468,-202.279 263.506,-195.583"/>
</g>
<!-- _SignedInteger -->
<g id="node24" class="node">
<g id="a_node24"><a xlink:href="/v3.0/protocol/_SignedInteger/hierarchy/" target="_top">
<path fill="#999999" stroke="#999999" d="M442.215,-138C442.215,-138 365.785,-138 365.785,-138 362.118,-138 358.452,-134.333 358.452,-130.667 358.452,-130.667 358.452,-123.333 358.452,-123.333 358.452,-119.667 362.118,-116 365.785,-116 365.785,-116 442.215,-116 442.215,-116 445.882,-116 449.548,-119.667 449.548,-123.333 449.548,-123.333 449.548,-130.667 449.548,-130.667 449.548,-134.333 445.882,-138 442.215,-138"/>
<text text-anchor="middle" x="404" y="-123.4" font-family="Helvetica,sans-Serif" font-size="12.00" fill="white">_SignedInteger</text>
</a>
</g>
</g>
<!-- SignedNumber&#45;&gt;_SignedInteger -->
<g id="edge4" class="edge">
<path fill="none" stroke="#cccccc" d="M404,-231.883C404,-213.17 404,-172.827 404,-148.287"/>
<polygon fill="#cccccc" stroke="#cccccc" points="407.5,-148.258 404,-138.258 400.5,-148.258 407.5,-148.258"/>
</g>
<!-- UInt -->
<g id="node16" class="node">
<g id="a_node16"><a xlink:href="/v3.0/type/UInt/hierarchy/" target="_top">
<polygon fill="#999999" stroke="#999999" points="630,-22 576,-22 576,-0 630,-0 630,-22"/>
<text text-anchor="middle" x="603" y="-7.4" font-family="Helvetica,sans-Serif" font-size="12.00" fill="white">UInt</text>
</a>
</g>
</g>
<!-- UInt16 -->
<g id="node17" class="node">
<g id="a_node17"><a xlink:href="/v3.0/type/UInt16/hierarchy/" target="_top">
<polygon fill="#999999" stroke="#999999" points="702,-22 648,-22 648,-0 702,-0 702,-22"/>
<text text-anchor="middle" x="675" y="-7.4" font-family="Helvetica,sans-Serif" font-size="12.00" fill="white">UInt16</text>
</a>
</g>
</g>
<!-- UInt32 -->
<g id="node18" class="node">
<g id="a_node18"><a xlink:href="/v3.0/type/UInt32/hierarchy/" target="_top">
<polygon fill="#999999" stroke="#999999" points="774,-22 720,-22 720,-0 774,-0 774,-22"/>
<text text-anchor="middle" x="747" y="-7.4" font-family="Helvetica,sans-Serif" font-size="12.00" fill="white">UInt32</text>
</a>
</g>
</g>
<!-- UInt64 -->
<g id="node19" class="node">
<g id="a_node19"><a xlink:href="/v3.0/type/UInt64/hierarchy/" target="_top">
<polygon fill="#999999" stroke="#999999" points="846,-22 792,-22 792,-0 846,-0 846,-22"/>
<text text-anchor="middle" x="819" y="-7.4" font-family="Helvetica,sans-Serif" font-size="12.00" fill="white">UInt64</text>
</a>
</g>
</g>
<!-- UInt8 -->
<g id="node20" class="node">
<g id="a_node20"><a xlink:href="/v3.0/type/UInt8/hierarchy/" target="_top">
<polygon fill="#999999" stroke="#999999" points="918,-22 864,-22 864,-0 918,-0 918,-22"/>
<text text-anchor="middle" x="891" y="-7.4" font-family="Helvetica,sans-Serif" font-size="12.00" fill="white">UInt8</text>
</a>
</g>
</g>
<!-- UnsignedInteger&#45;&gt;UInt -->
<g id="edge21" class="edge">
<path fill="none" stroke="#cccccc" d="M662.128,-57.9883C651.611,-49.8087 636.528,-38.0773 624.228,-28.5108"/>
<polygon fill="#cccccc" stroke="#cccccc" points="626.29,-25.6806 616.248,-22.3039 621.993,-31.2061 626.29,-25.6806"/>
</g>
<!-- UnsignedInteger&#45;&gt;UInt16 -->
<g id="edge22" class="edge">
<path fill="none" stroke="#cccccc" d="M675,-57.9883C675,-50.9098 675,-41.1714 675,-32.4779"/>
<polygon fill="#cccccc" stroke="#cccccc" points="678.5,-32.3038 675,-22.3039 671.5,-32.3039 678.5,-32.3038"/>
</g>
<!-- UnsignedInteger&#45;&gt;UInt32 -->
<g id="edge23" class="edge">
<path fill="none" stroke="#cccccc" d="M687.872,-57.9883C698.389,-49.8087 713.472,-38.0773 725.772,-28.5108"/>
<polygon fill="#cccccc" stroke="#cccccc" points="728.007,-31.2061 733.752,-22.3039 723.71,-25.6806 728.007,-31.2061"/>
</g>
<!-- UnsignedInteger&#45;&gt;UInt64 -->
<g id="edge24" class="edge">
<path fill="none" stroke="#cccccc" d="M700.744,-57.9883C723.842,-49.0057 757.955,-35.7398 783.614,-25.7614"/>
<polygon fill="#cccccc" stroke="#cccccc" points="784.942,-29.0004 792.993,-22.1138 782.404,-22.4763 784.942,-29.0004"/>
</g>
<!-- UnsignedInteger&#45;&gt;UInt8 -->
<g id="edge25" class="edge">
<path fill="none" stroke="#cccccc" d="M715.454,-57.9168C749.836,-49.2898 800.758,-36.3793 853.937,-22.2477"/>
<polygon fill="#cccccc" stroke="#cccccc" points="855.128,-25.5525 863.89,-19.5955 853.326,-18.7885 855.128,-25.5525"/>
</g>
<!-- _DisallowMixedSignArithmetic -->
<g id="node22" class="node">
<g id="a_node22"><a xlink:href="/v3.0/protocol/_DisallowMixedSignArithmetic/hierarchy/" target="_top">
<path fill="#999999" stroke="#999999" d="M719.709,-138C719.709,-138 564.291,-138 564.291,-138 560.624,-138 556.957,-134.333 556.957,-130.667 556.957,-130.667 556.957,-123.333 556.957,-123.333 556.957,-119.667 560.624,-116 564.291,-116 564.291,-116 719.709,-116 719.709,-116 723.376,-116 727.043,-119.667 727.043,-123.333 727.043,-123.333 727.043,-130.667 727.043,-130.667 727.043,-134.333 723.376,-138 719.709,-138"/>
<text text-anchor="middle" x="642" y="-123.4" font-family="Helvetica,sans-Serif" font-size="12.00" fill="white">_DisallowMixedSignArithmetic</text>
</a>
</g>
</g>
<!-- _DisallowMixedSignArithmetic&#45;&gt;UnsignedInteger -->
<g id="edge26" class="edge">
<path fill="none" stroke="#cccccc" d="M647.9,-115.988C652.303,-108.517 658.452,-98.0812 663.78,-89.0393"/>
<polygon fill="#cccccc" stroke="#cccccc" points="666.866,-90.6962 668.928,-80.3039 660.836,-87.1423 666.866,-90.6962"/>
</g>
<!-- _Integer&#45;&gt;Integer -->
<g id="edge16" class="edge">
<path fill="none" stroke="#cccccc" d="M490.894,-173.988C491.526,-166.91 492.395,-157.171 493.172,-148.478"/>
<polygon fill="#cccccc" stroke="#cccccc" points="496.677,-148.576 494.08,-138.304 489.704,-147.953 496.677,-148.576"/>
</g>
<!-- _Integer&#45;&gt;_DisallowMixedSignArithmetic -->
<g id="edge17" class="edge">
<path fill="none" stroke="#cccccc" d="M517.175,-173.988C541.739,-164.938 578.106,-151.54 605.258,-141.537"/>
<polygon fill="#cccccc" stroke="#cccccc" points="606.631,-144.761 614.805,-138.019 604.211,-138.192 606.631,-144.761"/>
</g>
<!-- _Integer&#45;&gt;_SignedInteger -->
<g id="edge18" class="edge">
<path fill="none" stroke="#cccccc" d="M474.625,-173.988C461.742,-165.599 443.121,-153.474 428.234,-143.78"/>
<polygon fill="#cccccc" stroke="#cccccc" points="429.822,-140.638 419.532,-138.114 426.002,-146.504 429.822,-140.638"/>
</g>
<!-- _SignedInteger&#45;&gt;SignedInteger -->
<g id="edge10" class="edge">
<path fill="none" stroke="#cccccc" d="M404,-115.988C404,-108.91 404,-99.1714 404,-90.4779"/>
<polygon fill="#cccccc" stroke="#cccccc" points="407.5,-90.3038 404,-80.3039 400.5,-90.3039 407.5,-90.3038"/>
</g>
</g>
</svg>
