<?xml version="1.0" encoding="UTF-8" standalone="no"?>
<!DOCTYPE svg PUBLIC "-//W3C//DTD SVG 1.1//EN"
 "http://www.w3.org/Graphics/SVG/1.1/DTD/svg11.dtd">
<!-- Generated by graphviz version 2.36.0 (20140111.2315)
 -->
<!-- Title: GeneratorType &#45; Type Hierarchy &#45; SwiftDoc.org Pages: 1 -->
<svg width="2307pt" height="195pt"
 viewBox="0.00 0.00 2307.40 195.20" xmlns="http://www.w3.org/2000/svg" xmlns:xlink="http://www.w3.org/1999/xlink">
<g id="graph0" class="graph" transform="scale(1 1) rotate(0) translate(7.2 137.6)">
<title>GeneratorType &#45; Type Hierarchy &#45; SwiftDoc.org</title>
<polygon fill="white" stroke="none" points="-7.2,57.6 -7.2,-137.6 2300.2,-137.6 2300.2,57.6 -7.2,57.6"/>
<!-- AnyGenerator -->
<g id="node1" class="node"><title>AnyGenerator</title>
<g id="a_node1"><a xlink:href="/type/AnyGenerator/" xlink:title="AnyGenerator">
<polygon fill="#999999" stroke="#999999" points="84.0314,-22 -0.0313876,-22 -0.0313876,-0 84.0314,-0 84.0314,-22"/>
<text text-anchor="middle" x="42" y="-7.4" font-family="Helvetica,sans-Serif" font-size="12.00" fill="white">AnyGenerator</text>
</a>
</g>
</g>
<!-- DictionaryGenerator -->
<g id="node2" class="node"><title>DictionaryGenerator</title>
<g id="a_node2"><a xlink:href="/type/DictionaryGenerator/" xlink:title="DictionaryGenerator">
<polygon fill="#999999" stroke="#999999" points="219.534,-22 102.466,-22 102.466,-0 219.534,-0 219.534,-22"/>
<text text-anchor="middle" x="161" y="-7.4" font-family="Helvetica,sans-Serif" font-size="12.00" fill="white">DictionaryGenerator</text>
</a>
</g>
</g>
<!-- EmptyGenerator -->
<g id="node3" class="node"><title>EmptyGenerator</title>
<g id="a_node3"><a xlink:href="/type/EmptyGenerator/" xlink:title="EmptyGenerator">
<polygon fill="#999999" stroke="#999999" points="336.028,-22 237.972,-22 237.972,-0 336.028,-0 336.028,-22"/>
<text text-anchor="middle" x="287" y="-7.4" font-family="Helvetica,sans-Serif" font-size="12.00" fill="white">EmptyGenerator</text>
</a>
</g>
</g>
<!-- EnumerateGenerator -->
<g id="node4" class="node"><title>EnumerateGenerator</title>
<g id="a_node4"><a xlink:href="/type/EnumerateGenerator/" xlink:title="EnumerateGenerator">
<polygon fill="#999999" stroke="#999999" points="476.047,-22 353.953,-22 353.953,-0 476.047,-0 476.047,-22"/>
<text text-anchor="middle" x="415" y="-7.4" font-family="Helvetica,sans-Serif" font-size="12.00" fill="white">EnumerateGenerator</text>
</a>
</g>
</g>
<!-- FilterGenerator -->
<g id="node5" class="node"><title>FilterGenerator</title>
<g id="a_node5"><a xlink:href="/type/FilterGenerator/" xlink:title="FilterGenerator">
<polygon fill="#999999" stroke="#999999" points="585.023,-22 494.977,-22 494.977,-0 585.023,-0 585.023,-22"/>
<text text-anchor="middle" x="540" y="-7.4" font-family="Helvetica,sans-Serif" font-size="12.00" fill="white">FilterGenerator</text>
</a>
</g>
</g>
<!-- GeneratorOfOne -->
<g id="node6" class="node"><title>GeneratorOfOne</title>
<g id="a_node6"><a xlink:href="/type/GeneratorOfOne/" xlink:title="GeneratorOfOne">
<polygon fill="#999999" stroke="#999999" points="702.534,-22 603.466,-22 603.466,-0 702.534,-0 702.534,-22"/>
<text text-anchor="middle" x="653" y="-7.4" font-family="Helvetica,sans-Serif" font-size="12.00" fill="white">GeneratorOfOne</text>
</a>
</g>
</g>
<!-- GeneratorSequence -->
<g id="node7" class="node"><title>GeneratorSequence</title>
<g id="a_node7"><a xlink:href="/type/GeneratorSequence/" xlink:title="GeneratorSequence">
<polygon fill="#999999" stroke="#999999" points="839.057,-22 720.943,-22 720.943,-0 839.057,-0 839.057,-22"/>
<text text-anchor="middle" x="780" y="-7.4" font-family="Helvetica,sans-Serif" font-size="12.00" fill="white">GeneratorSequence</text>
</a>
</g>
</g>
<!-- GeneratorType -->
<g id="node8" class="node"><title>GeneratorType</title>
<g id="a_node8"><a xlink:href="/protocol/GeneratorType/" xlink:title="GeneratorType">
<path fill="#ee543d" stroke="#ee543d" d="M1092.7,-80C1092.7,-80 1017.3,-80 1017.3,-80 1013.63,-80 1009.96,-76.3333 1009.96,-72.6667 1009.96,-72.6667 1009.96,-65.3333 1009.96,-65.3333 1009.96,-61.6667 1013.63,-58 1017.3,-58 1017.3,-58 1092.7,-58 1092.7,-58 1096.37,-58 1100.04,-61.6667 1100.04,-65.3333 1100.04,-65.3333 1100.04,-72.6667 1100.04,-72.6667 1100.04,-76.3333 1096.37,-80 1092.7,-80"/>
<text text-anchor="middle" x="1055" y="-65.4" font-family="Helvetica,sans-Serif" font-size="12.00" fill="white">GeneratorType</text>
</a>
</g>
</g>
<!-- GeneratorType&#45;&gt;AnyGenerator -->
<g id="edge1" class="edge"><title>GeneratorType&#45;&gt;AnyGenerator</title>
<path fill="none" stroke="#cccccc" d="M1009.73,-68.1733C872.953,-68.2011 451.974,-64.6479 94.2574,-21.9807"/>
<polygon fill="#cccccc" stroke="#cccccc" points="94.5721,-18.4934 84.2251,-20.7718 93.7345,-25.4431 94.5721,-18.4934"/>
</g>
<!-- GeneratorType&#45;&gt;DictionaryGenerator -->
<g id="edge2" class="edge"><title>GeneratorType&#45;&gt;DictionaryGenerator</title>
<path fill="none" stroke="#cccccc" d="M1009.67,-66.9143C886.285,-63.6521 533.9,-52.2917 229.903,-21.995"/>
<polygon fill="#cccccc" stroke="#cccccc" points="229.864,-18.4735 219.564,-20.9553 229.163,-25.4384 229.864,-18.4735"/>
</g>
<!-- GeneratorType&#45;&gt;EmptyGenerator -->
<g id="edge3" class="edge"><title>GeneratorType&#45;&gt;EmptyGenerator</title>
<path fill="none" stroke="#cccccc" d="M1009.58,-66.7274C898.264,-63.2511 602.861,-51.8639 346.56,-22.0716"/>
<polygon fill="#cccccc" stroke="#cccccc" points="346.649,-18.5581 336.309,-20.8677 345.833,-25.5103 346.649,-18.5581"/>
</g>
<!-- GeneratorType&#45;&gt;EnumerateGenerator -->
<g id="edge4" class="edge"><title>GeneratorType&#45;&gt;EnumerateGenerator</title>
<path fill="none" stroke="#cccccc" d="M1009.92,-65.2668C915.176,-59.3258 688.247,-44.0632 486.364,-21.9734"/>
<polygon fill="#cccccc" stroke="#cccccc" points="486.485,-18.4656 476.162,-20.8488 485.718,-25.4235 486.485,-18.4656"/>
</g>
<!-- GeneratorType&#45;&gt;FilterGenerator -->
<g id="edge5" class="edge"><title>GeneratorType&#45;&gt;FilterGenerator</title>
<path fill="none" stroke="#cccccc" d="M1009.7,-64.7442C928.601,-58.6408 753.087,-44.1848 594.944,-22.0326"/>
<polygon fill="#cccccc" stroke="#cccccc" points="595.427,-18.5661 585.035,-20.6311 594.446,-25.4971 595.427,-18.5661"/>
</g>
<!-- GeneratorType&#45;&gt;GeneratorOfOne -->
<g id="edge6" class="edge"><title>GeneratorType&#45;&gt;GeneratorOfOne</title>
<path fill="none" stroke="#cccccc" d="M1009.98,-62.4666C946.281,-54.5259 825.942,-39.1179 712.779,-22.0743"/>
<polygon fill="#cccccc" stroke="#cccccc" points="712.966,-18.5628 702.554,-20.5269 711.918,-25.484 712.966,-18.5628"/>
</g>
<!-- GeneratorType&#45;&gt;GeneratorSequence -->
<g id="edge7" class="edge"><title>GeneratorType&#45;&gt;GeneratorSequence</title>
<path fill="none" stroke="#cccccc" d="M1009.9,-58.8154C963.327,-49.3321 890.438,-34.4892 839.245,-24.0644"/>
<polygon fill="#cccccc" stroke="#cccccc" points="839.807,-20.6071 829.31,-22.0412 838.41,-27.4663 839.807,-20.6071"/>
</g>
<!-- IndexingGenerator -->
<g id="node9" class="node"><title>IndexingGenerator</title>
<g id="a_node9"><a xlink:href="/type/IndexingGenerator/" xlink:title="IndexingGenerator">
<polygon fill="#999999" stroke="#999999" points="966.548,-22 857.452,-22 857.452,-0 966.548,-0 966.548,-22"/>
<text text-anchor="middle" x="912" y="-7.4" font-family="Helvetica,sans-Serif" font-size="12.00" fill="white">IndexingGenerator</text>
</a>
</g>
</g>
<!-- GeneratorType&#45;&gt;IndexingGenerator -->
<g id="edge8" class="edge"><title>GeneratorType&#45;&gt;IndexingGenerator</title>
<path fill="none" stroke="#cccccc" d="M1029.43,-57.9883C1006.5,-49.0057 972.621,-35.7398 947.141,-25.7614"/>
<polygon fill="#cccccc" stroke="#cccccc" points="948.414,-22.5013 937.826,-22.1138 945.862,-29.0193 948.414,-22.5013"/>
</g>
<!-- MapSequenceGenerator -->
<g id="node10" class="node"><title>MapSequenceGenerator</title>
<g id="a_node10"><a xlink:href="/type/MapSequenceGenerator/" xlink:title="MapSequenceGenerator">
<polygon fill="#999999" stroke="#999999" points="1125.56,-22 984.435,-22 984.435,-0 1125.56,-0 1125.56,-22"/>
<text text-anchor="middle" x="1055" y="-7.4" font-family="Helvetica,sans-Serif" font-size="12.00" fill="white">MapSequenceGenerator</text>
</a>
</g>
</g>
<!-- GeneratorType&#45;&gt;MapSequenceGenerator -->
<g id="edge9" class="edge"><title>GeneratorType&#45;&gt;MapSequenceGenerator</title>
<path fill="none" stroke="#cccccc" d="M1055,-57.9883C1055,-50.9098 1055,-41.1714 1055,-32.4779"/>
<polygon fill="#cccccc" stroke="#cccccc" points="1058.5,-32.3038 1055,-22.3039 1051.5,-32.3039 1058.5,-32.3038"/>
</g>
<!-- PermutationGenerator -->
<g id="node11" class="node"><title>PermutationGenerator</title>
<g id="a_node11"><a xlink:href="/type/PermutationGenerator/" xlink:title="PermutationGenerator">
<polygon fill="#999999" stroke="#999999" points="1272.05,-22 1143.95,-22 1143.95,-0 1272.05,-0 1272.05,-22"/>
<text text-anchor="middle" x="1208" y="-7.4" font-family="Helvetica,sans-Serif" font-size="12.00" fill="white">PermutationGenerator</text>
</a>
</g>
</g>
<!-- GeneratorType&#45;&gt;PermutationGenerator -->
<g id="edge10" class="edge"><title>GeneratorType&#45;&gt;PermutationGenerator</title>
<path fill="none" stroke="#cccccc" d="M1082.35,-57.9883C1107.08,-48.9381 1143.69,-35.5399 1171.02,-25.5367"/>
<polygon fill="#cccccc" stroke="#cccccc" points="1172.44,-28.7432 1180.63,-22.0192 1170.03,-22.1697 1172.44,-28.7432"/>
</g>
<!-- RangeGenerator -->
<g id="node12" class="node"><title>RangeGenerator</title>
<g id="a_node12"><a xlink:href="/type/RangeGenerator/" xlink:title="RangeGenerator">
<polygon fill="#999999" stroke="#999999" points="1389.54,-22 1290.46,-22 1290.46,-0 1389.54,-0 1389.54,-22"/>
<text text-anchor="middle" x="1340" y="-7.4" font-family="Helvetica,sans-Serif" font-size="12.00" fill="white">RangeGenerator</text>
</a>
</g>
</g>
<!-- GeneratorType&#45;&gt;RangeGenerator -->
<g id="edge11" class="edge"><title>GeneratorType&#45;&gt;RangeGenerator</title>
<path fill="none" stroke="#cccccc" d="M1100.16,-59.1266C1148.82,-49.5654 1226.49,-34.3045 1280.19,-23.7518"/>
<polygon fill="#cccccc" stroke="#cccccc" points="1281.13,-27.1354 1290.26,-21.773 1279.78,-20.2668 1281.13,-27.1354"/>
</g>
<!-- SetGenerator -->
<g id="node13" class="node"><title>SetGenerator</title>
<g id="a_node13"><a xlink:href="/type/SetGenerator/" xlink:title="SetGenerator">
<polygon fill="#999999" stroke="#999999" points="1490.03,-22 1407.97,-22 1407.97,-0 1490.03,-0 1490.03,-22"/>
<text text-anchor="middle" x="1449" y="-7.4" font-family="Helvetica,sans-Serif" font-size="12.00" fill="white">SetGenerator</text>
</a>
</g>
</g>
<!-- GeneratorType&#45;&gt;SetGenerator -->
<g id="edge12" class="edge"><title>GeneratorType&#45;&gt;SetGenerator</title>
<path fill="none" stroke="#cccccc" d="M1100.08,-62.8337C1163.91,-55.324 1284.51,-40.4259 1397.94,-21.9185"/>
<polygon fill="#cccccc" stroke="#cccccc" points="1398.54,-25.3672 1407.84,-20.2912 1397.41,-18.4599 1398.54,-25.3672"/>
</g>
<!-- StrideThroughGenerator -->
<g id="node14" class="node"><title>StrideThroughGenerator</title>
<g id="a_node14"><a xlink:href="/type/StrideThroughGenerator/" xlink:title="StrideThroughGenerator">
<polygon fill="#999999" stroke="#999999" points="1648.05,-22 1507.95,-22 1507.95,-0 1648.05,-0 1648.05,-22"/>
<text text-anchor="middle" x="1578" y="-7.4" font-family="Helvetica,sans-Serif" font-size="12.00" fill="white">StrideThroughGenerator</text>
</a>
</g>
</g>
<!-- GeneratorType&#45;&gt;StrideThroughGenerator -->
<g id="edge13" class="edge"><title>GeneratorType&#45;&gt;StrideThroughGenerator</title>
<path fill="none" stroke="#cccccc" d="M1100.1,-63.6685C1178.65,-56.05 1345.91,-39.4979 1497.82,-22.1161"/>
<polygon fill="#cccccc" stroke="#cccccc" points="1498.26,-25.5879 1507.8,-20.9701 1497.46,-18.6336 1498.26,-25.5879"/>
</g>
<!-- StrideToGenerator -->
<g id="node15" class="node"><title>StrideToGenerator</title>
<g id="a_node15"><a xlink:href="/type/StrideToGenerator/" xlink:title="StrideToGenerator">
<polygon fill="#999999" stroke="#999999" points="1774.04,-22 1665.96,-22 1665.96,-0 1774.04,-0 1774.04,-22"/>
<text text-anchor="middle" x="1720" y="-7.4" font-family="Helvetica,sans-Serif" font-size="12.00" fill="white">StrideToGenerator</text>
</a>
</g>
</g>
<!-- GeneratorType&#45;&gt;StrideToGenerator -->
<g id="edge14" class="edge"><title>GeneratorType&#45;&gt;StrideToGenerator</title>
<path fill="none" stroke="#cccccc" d="M1100.05,-65.81C1198.79,-60.7408 1441.82,-46.7918 1655.59,-22.0834"/>
<polygon fill="#cccccc" stroke="#cccccc" points="1656.22,-25.5338 1665.74,-20.8987 1655.4,-18.581 1656.22,-25.5338"/>
</g>
<!-- String.UnicodeScalarView.Generator -->
<g id="node16" class="node"><title>String.UnicodeScalarView.Generator</title>
<g id="a_node16"><a xlink:href="/type/String.UnicodeScalarView.Generator/" xlink:title="String.UnicodeScalarView.Generator">
<polygon fill="#999999" stroke="#999999" points="1997.42,-22 1792.58,-22 1792.58,-0 1997.42,-0 1997.42,-22"/>
<text text-anchor="middle" x="1895" y="-7.4" font-family="Helvetica,sans-Serif" font-size="12.00" fill="white">String.UnicodeScalarView.Generator</text>
</a>
</g>
</g>
<!-- GeneratorType&#45;&gt;String.UnicodeScalarView.Generator -->
<g id="edge17" class="edge"><title>GeneratorType&#45;&gt;String.UnicodeScalarView.Generator</title>
<path fill="none" stroke="#cccccc" d="M1100.18,-65.5539C1213.09,-59.353 1516.92,-42.1281 1782.25,-22.0381"/>
<polygon fill="#cccccc" stroke="#cccccc" points="1782.76,-25.5096 1792.47,-21.2618 1782.23,-18.5297 1782.76,-25.5096"/>
</g>
<!-- UnsafeBufferPointerGenerator -->
<g id="node17" class="node"><title>UnsafeBufferPointerGenerator</title>
<g id="a_node17"><a xlink:href="/type/UnsafeBufferPointerGenerator/" xlink:title="UnsafeBufferPointerGenerator">
<polygon fill="#999999" stroke="#999999" points="2187.41,-22 2016.59,-22 2016.59,-0 2187.41,-0 2187.41,-22"/>
<text text-anchor="middle" x="2102" y="-7.4" font-family="Helvetica,sans-Serif" font-size="12.00" fill="white">UnsafeBufferPointerGenerator</text>
</a>
</g>
</g>
<!-- GeneratorType&#45;&gt;UnsafeBufferPointerGenerator -->
<g id="edge15" class="edge"><title>GeneratorType&#45;&gt;UnsafeBufferPointerGenerator</title>
<path fill="none" stroke="#cccccc" d="M1100.1,-66.707C1236.69,-62.6003 1657.82,-48.5347 2006,-22 2006.11,-21.9918 2006.21,-21.9837 2006.32,-21.9755"/>
<polygon fill="#cccccc" stroke="#cccccc" points="2006.76,-25.4515 2016.44,-21.1552 2006.19,-18.4744 2006.76,-25.4515"/>
</g>
<!-- ZipGenerator2 -->
<g id="node18" class="node"><title>ZipGenerator2</title>
<g id="a_node18"><a xlink:href="/type/ZipGenerator2/" xlink:title="ZipGenerator2">
<polygon fill="#999999" stroke="#999999" points="2293.53,-22 2206.47,-22 2206.47,-0 2293.53,-0 2293.53,-22"/>
<text text-anchor="middle" x="2250" y="-7.4" font-family="Helvetica,sans-Serif" font-size="12.00" fill="white">ZipGenerator2</text>
</a>
</g>
</g>
<!-- GeneratorType&#45;&gt;ZipGenerator2 -->
<g id="edge16" class="edge"><title>GeneratorType&#45;&gt;ZipGenerator2</title>
<path fill="none" stroke="#cccccc" d="M1100.02,-68.4882C1253.73,-69.6649 1771.68,-69.5959 2196,-22 2196.11,-21.988 2196.21,-21.976 2196.32,-21.9639"/>
<polygon fill="#cccccc" stroke="#cccccc" points="2197.01,-25.4031 2206.46,-20.6147 2196.09,-18.4642 2197.01,-25.4031"/>
</g>
</g>
</svg>
