<?xml version="1.0" encoding="UTF-8" standalone="no"?>
<!DOCTYPE svg PUBLIC "-//W3C//DTD SVG 1.1//EN"
 "http://www.w3.org/Graphics/SVG/1.1/DTD/svg11.dtd">
<!-- Generated by graphviz version 2.36.0 (20140111.2315)
 -->
<!-- Title: StrideThroughGenerator&lt;T : Strideable&gt; &#45; Type Hierarchy &#45; SwiftDoc.org Pages: 1 -->
<svg width="238pt" height="195pt"
 viewBox="0.00 0.00 238.40 195.20" xmlns="http://www.w3.org/2000/svg" xmlns:xlink="http://www.w3.org/1999/xlink">
<g id="graph0" class="graph" transform="scale(1 1) rotate(0) translate(7.2 137.6)">
<title>StrideThroughGenerator&lt;T : Strideable&gt; &#45; Type Hierarchy &#45; SwiftDoc.org</title>
<polygon fill="white" stroke="none" points="-7.2,57.6 -7.2,-137.6 231.2,-137.6 231.2,57.6 -7.2,57.6"/>
<!-- GeneratorType -->
<g id="node1" class="node"><title>GeneratorType</title>
<g id="a_node1"><a xlink:href="/protocol/GeneratorType/" xlink:title="GeneratorType">
<path fill="#999999" stroke="#999999" d="M149.705,-80C149.705,-80 74.2952,-80 74.2952,-80 70.6286,-80 66.9619,-76.3333 66.9619,-72.6667 66.9619,-72.6667 66.9619,-65.3333 66.9619,-65.3333 66.9619,-61.6667 70.6286,-58 74.2952,-58 74.2952,-58 149.705,-58 149.705,-58 153.371,-58 157.038,-61.6667 157.038,-65.3333 157.038,-65.3333 157.038,-72.6667 157.038,-72.6667 157.038,-76.3333 153.371,-80 149.705,-80"/>
<text text-anchor="middle" x="112" y="-65.4" font-family="Helvetica,sans-Serif" font-size="12.00" fill="white">GeneratorType</text>
</a>
</g>
</g>
<!-- StrideThroughGenerator&lt;T : Strideable&gt; -->
<g id="node2" class="node"><title>StrideThroughGenerator&lt;T : Strideable&gt;</title>
<g id="a_node2"><a xlink:href="/type/StrideThroughGenerator/" xlink:title="StrideThroughGenerator&lt;T : Strideable&gt;">
<polygon fill="#ee543d" stroke="#ee543d" points="224.433,-22 -0.4329,-22 -0.4329,-0 224.433,-0 224.433,-22"/>
<text text-anchor="middle" x="112" y="-7.4" font-family="Helvetica,sans-Serif" font-size="12.00" fill="white">StrideThroughGenerator&lt;T : Strideable&gt;</text>
</a>
</g>
</g>
<!-- GeneratorType&#45;&gt;StrideThroughGenerator&lt;T : Strideable&gt; -->
<g id="edge1" class="edge"><title>GeneratorType&#45;&gt;StrideThroughGenerator&lt;T : Strideable&gt;</title>
<path fill="none" stroke="#cccccc" d="M112,-57.9883C112,-50.9098 112,-41.1714 112,-32.4779"/>
<polygon fill="#cccccc" stroke="#cccccc" points="115.5,-32.3038 112,-22.3039 108.5,-32.3039 115.5,-32.3038"/>
</g>
</g>
</svg>
