<?xml version="1.0" encoding="UTF-8" standalone="no"?>
<!DOCTYPE svg PUBLIC "-//W3C//DTD SVG 1.1//EN"
 "http://www.w3.org/Graphics/SVG/1.1/DTD/svg11.dtd">
<!-- Generated by graphviz version 2.36.0 (20140111.2315)
 -->
<!-- Title: StrideThrough&lt;T : Strideable&gt; &#45; Type Hierarchy &#45; SwiftDoc.org Pages: 1 -->
<svg width="193pt" height="195pt"
 viewBox="0.00 0.00 193.40 195.20" xmlns="http://www.w3.org/2000/svg" xmlns:xlink="http://www.w3.org/1999/xlink">
<g id="graph0" class="graph" transform="scale(1 1) rotate(0) translate(7.2 137.6)">
<title>StrideThrough&lt;T : Strideable&gt; &#45; Type Hierarchy &#45; SwiftDoc.org</title>
<polygon fill="white" stroke="none" points="-7.2,57.6 -7.2,-137.6 186.2,-137.6 186.2,57.6 -7.2,57.6"/>
<!-- Reflectable -->
<g id="node1" class="node"><title>Reflectable</title>
<g id="a_node1"><a xlink:href="/protocol/Reflectable/" xlink:title="Reflectable">
<path fill="#999999" stroke="#999999" d="M63.693,-80C63.693,-80 8.30696,-80 8.30696,-80 4.6403,-80 0.973628,-76.3333 0.973628,-72.6667 0.973628,-72.6667 0.973628,-65.3333 0.973628,-65.3333 0.973628,-61.6667 4.6403,-58 8.30696,-58 8.30696,-58 63.693,-58 63.693,-58 67.3597,-58 71.0264,-61.6667 71.0264,-65.3333 71.0264,-65.3333 71.0264,-72.6667 71.0264,-72.6667 71.0264,-76.3333 67.3597,-80 63.693,-80"/>
<text text-anchor="middle" x="36" y="-65.4" font-family="Helvetica,sans-Serif" font-size="12.00" fill="white">Reflectable</text>
</a>
</g>
</g>
<!-- StrideThrough&lt;T : Strideable&gt; -->
<g id="node3" class="node"><title>StrideThrough&lt;T : Strideable&gt;</title>
<g id="a_node3"><a xlink:href="/type/StrideThrough/" xlink:title="StrideThrough&lt;T : Strideable&gt;">
<polygon fill="#ee543d" stroke="#ee543d" points="170.411,-22 -0.410886,-22 -0.410886,-0 170.411,-0 170.411,-22"/>
<text text-anchor="middle" x="85" y="-7.4" font-family="Helvetica,sans-Serif" font-size="12.00" fill="white">StrideThrough&lt;T : Strideable&gt;</text>
</a>
</g>
</g>
<!-- Reflectable&#45;&gt;StrideThrough&lt;T : Strideable&gt; -->
<g id="edge2" class="edge"><title>Reflectable&#45;&gt;StrideThrough&lt;T : Strideable&gt;</title>
<path fill="none" stroke="#cccccc" d="M44.7602,-57.9883C51.5733,-50.2019 61.2025,-39.1971 69.3332,-29.9049"/>
<polygon fill="#cccccc" stroke="#cccccc" points="72.0331,-32.1344 75.9841,-22.3039 66.765,-27.5249 72.0331,-32.1344"/>
</g>
<!-- SequenceType -->
<g id="node2" class="node"><title>SequenceType</title>
<g id="a_node2"><a xlink:href="/protocol/SequenceType/" xlink:title="SequenceType">
<path fill="#999999" stroke="#999999" d="M171.718,-80C171.718,-80 96.2821,-80 96.2821,-80 92.6154,-80 88.9487,-76.3333 88.9487,-72.6667 88.9487,-72.6667 88.9487,-65.3333 88.9487,-65.3333 88.9487,-61.6667 92.6154,-58 96.2821,-58 96.2821,-58 171.718,-58 171.718,-58 175.385,-58 179.051,-61.6667 179.051,-65.3333 179.051,-65.3333 179.051,-72.6667 179.051,-72.6667 179.051,-76.3333 175.385,-80 171.718,-80"/>
<text text-anchor="middle" x="134" y="-65.4" font-family="Helvetica,sans-Serif" font-size="12.00" fill="white">SequenceType</text>
</a>
</g>
</g>
<!-- SequenceType&#45;&gt;StrideThrough&lt;T : Strideable&gt; -->
<g id="edge1" class="edge"><title>SequenceType&#45;&gt;StrideThrough&lt;T : Strideable&gt;</title>
<path fill="none" stroke="#cccccc" d="M125.24,-57.9883C118.427,-50.2019 108.797,-39.1971 100.667,-29.9049"/>
<polygon fill="#cccccc" stroke="#cccccc" points="103.235,-27.5249 94.0159,-22.3039 97.9669,-32.1344 103.235,-27.5249"/>
</g>
</g>
</svg>
