<?xml version="1.0" encoding="UTF-8" standalone="no"?>
<!DOCTYPE svg PUBLIC "-//W3C//DTD SVG 1.1//EN"
 "http://www.w3.org/Graphics/SVG/1.1/DTD/svg11.dtd">
<!-- Generated by graphviz version 2.36.0 (20140111.2315)
 -->
<!-- Title: _Incrementable &#45; Type Hierarchy &#45; SwiftDoc.org Pages: 1 -->
<svg width="3086pt" height="543pt"
 viewBox="0.00 0.00 3086.40 543.20" xmlns="http://www.w3.org/2000/svg" xmlns:xlink="http://www.w3.org/1999/xlink">
<g id="graph0" class="graph" transform="scale(1 1) rotate(0) translate(7.2 485.6)">
<g transform="translate(0 -485.6)">
<g>
    <path fill="#666666" d="M13.846,10.832c-0.336-0.464-0.792-0.844-1.368-1.14s-1.224-0.444-1.944-0.444
        c-0.384,0-0.772,0.052-1.164,0.156C8.977,9.509,8.622,9.677,8.301,9.908c-0.32,0.232-0.58,0.52-0.78,0.864
        c-0.2,0.344-0.3,0.756-0.3,1.236c0,0.464,0.092,0.852,0.276,1.164c0.184,0.312,0.432,0.576,0.744,0.792s0.68,0.4,1.104,0.552
        c0.423,0.152,0.876,0.309,1.356,0.468c0.576,0.177,1.16,0.376,1.752,0.601c0.592,0.224,1.128,0.52,1.608,0.888
        s0.872,0.828,1.176,1.38s0.456,1.252,0.456,2.101c0,0.88-0.164,1.644-0.492,2.292c-0.328,0.647-0.765,1.184-1.308,1.607
        c-0.544,0.424-1.172,0.74-1.884,0.948s-1.444,0.312-2.196,0.312c-1.072,0-2.108-0.208-3.108-0.624
        c-1-0.415-1.828-1.031-2.484-1.848l1.848-1.56c0.4,0.592,0.936,1.071,1.608,1.439c0.672,0.368,1.399,0.552,2.184,0.552
        c0.4,0,0.8-0.056,1.2-0.168c0.4-0.111,0.764-0.288,1.092-0.527c0.328-0.24,0.596-0.54,0.804-0.9
        c0.208-0.36,0.312-0.796,0.312-1.308s-0.108-0.94-0.324-1.284c-0.216-0.344-0.508-0.636-0.876-0.876s-0.796-0.444-1.284-0.612
        c-0.488-0.168-1.004-0.34-1.548-0.516c-0.544-0.16-1.08-0.356-1.608-0.588c-0.528-0.232-1-0.528-1.416-0.889
        c-0.416-0.359-0.752-0.804-1.008-1.332c-0.256-0.527-0.384-1.184-0.384-1.968c0-0.848,0.172-1.576,0.516-2.184
        c0.344-0.608,0.792-1.112,1.344-1.512c0.552-0.4,1.176-0.692,1.872-0.876c0.696-0.184,1.396-0.276,2.1-0.276
        c0.992,0,1.92,0.176,2.784,0.528c0.864,0.352,1.56,0.824,2.088,1.416L13.846,10.832z"/>
    <path fill="#666666" d="M18.813,13.304l2.568,8.688h0.048l2.712-8.688h2.376l2.76,8.688h0.048l2.568-8.688h2.376L30.501,24.68
        h-2.352l-2.808-8.544h-0.048l-2.784,8.544h-2.352l-3.792-11.376H18.813z"/>
    <path fill="#666666" d="M38.685,9.2c0,0.416-0.147,0.76-0.44,1.032c-0.294,0.272-0.647,0.408-1.06,0.408s-0.762-0.14-1.047-0.42
        c-0.286-0.28-0.429-0.62-0.429-1.02c0-0.416,0.143-0.764,0.429-1.044c0.286-0.28,0.635-0.42,1.047-0.42s0.766,0.14,1.06,0.42
        C38.538,8.437,38.685,8.784,38.685,9.2z M38.325,24.68h-2.256V13.304h2.256V24.68z"/>
    <path fill="#666666" d="M47.613,15.152h-2.64v9.528h-2.256v-9.528h-2.256v-1.848h2.256v-2.376c0-0.672,0.076-1.292,0.228-1.86
        c0.152-0.568,0.4-1.06,0.744-1.476c0.344-0.416,0.784-0.744,1.32-0.984c0.536-0.24,1.188-0.36,1.956-0.36
        c0.544,0,1.016,0.056,1.416,0.168l-0.264,1.944c-0.176-0.048-0.352-0.088-0.528-0.12c-0.176-0.032-0.376-0.048-0.6-0.048
        c-0.432,0-0.78,0.076-1.044,0.228c-0.264,0.152-0.468,0.356-0.612,0.612s-0.24,0.548-0.288,0.876
        c-0.048,0.328-0.072,0.668-0.072,1.02v2.376h2.64V15.152z"/>
    <path fill="#666666" d="M54.909,15.152h-3.024v5.91c0,0.687,0.128,1.177,0.384,1.472c0.256,0.295,0.664,0.442,1.224,0.442
        c0.208,0,0.432-0.021,0.672-0.065c0.24-0.044,0.456-0.11,0.648-0.198l0.072,1.848c-0.272,0.096-0.572,0.172-0.9,0.229
        c-0.328,0.056-0.668,0.084-1.02,0.084c-1.072,0-1.892-0.296-2.46-0.889c-0.568-0.592-0.852-1.479-0.852-2.664v-6.168h-2.184
        v-1.848h2.184V10.04h2.232v3.264h3.024V15.152z"/>
    <path fill="#666666" d="M57.356,7.688h5.832c1.088,0,2.176,0.16,3.264,0.48c1.088,0.32,2.072,0.824,2.952,1.512
        s1.592,1.568,2.136,2.64c0.544,1.072,0.816,2.36,0.816,3.864c0,1.456-0.272,2.716-0.816,3.78s-1.256,1.943-2.136,2.64
        s-1.864,1.216-2.952,1.561c-1.088,0.344-2.176,0.516-3.264,0.516h-5.832V7.688z M59.732,22.593h2.976
        c1.024,0,1.972-0.145,2.844-0.432c0.872-0.288,1.624-0.704,2.256-1.248c0.632-0.544,1.124-1.216,1.476-2.017
        c0.352-0.8,0.528-1.704,0.528-2.712c0-1.056-0.176-1.983-0.528-2.784c-0.353-0.8-0.844-1.468-1.476-2.004
        c-0.632-0.536-1.384-0.944-2.256-1.224s-1.82-0.42-2.844-0.42h-2.976V22.593z"/>
    <path fill="#666666" d="M86.06,18.969c0,0.88-0.156,1.688-0.468,2.424c-0.312,0.736-0.744,1.372-1.296,1.908
        c-0.552,0.536-1.204,0.952-1.956,1.248c-0.752,0.296-1.56,0.443-2.424,0.443c-0.864,0-1.672-0.147-2.424-0.443
        c-0.752-0.296-1.4-0.712-1.944-1.248c-0.544-0.536-0.972-1.172-1.284-1.908c-0.312-0.735-0.468-1.544-0.468-2.424
        s0.156-1.684,0.468-2.412c0.312-0.728,0.74-1.356,1.284-1.884c0.543-0.528,1.191-0.939,1.944-1.236
        c0.752-0.296,1.56-0.444,2.424-0.444c0.864,0,1.672,0.148,2.424,0.444c0.752,0.297,1.404,0.708,1.956,1.236
        c0.552,0.527,0.984,1.156,1.296,1.884C85.904,17.285,86.06,18.089,86.06,18.969z M83.708,18.98c0-0.542-0.084-1.061-0.252-1.556
        c-0.169-0.494-0.414-0.929-0.734-1.304s-0.718-0.674-1.192-0.897s-1.015-0.335-1.625-0.335c-0.61,0-1.152,0.111-1.625,0.335
        c-0.474,0.224-0.871,0.522-1.191,0.897c-0.321,0.375-0.566,0.81-0.734,1.304C76.184,17.92,76.1,18.438,76.1,18.98
        c0,0.543,0.084,1.062,0.253,1.556c0.168,0.495,0.413,0.934,0.734,1.316c0.321,0.383,0.718,0.686,1.191,0.909
        c0.473,0.224,1.015,0.335,1.625,0.335c0.61,0,1.151-0.111,1.625-0.335s0.871-0.526,1.192-0.909s0.565-0.821,0.734-1.316
        C83.624,20.042,83.708,19.523,83.708,18.98z"/>
    <path fill="#666666" d="M96.428,16.184c-0.24-0.368-0.6-0.676-1.08-0.924s-0.992-0.372-1.536-0.372
        c-0.592,0-1.116,0.112-1.572,0.336c-0.456,0.225-0.844,0.524-1.164,0.9c-0.32,0.376-0.564,0.812-0.732,1.308
        s-0.252,1.017-0.252,1.56c0,0.545,0.084,1.064,0.252,1.561s0.412,0.933,0.732,1.308c0.32,0.376,0.712,0.677,1.176,0.9
        c0.464,0.225,0.992,0.336,1.584,0.336c0.576,0,1.1-0.111,1.572-0.336c0.472-0.224,0.86-0.528,1.164-0.912l1.512,1.368
        c-0.48,0.561-1.08,0.996-1.8,1.308c-0.72,0.312-1.536,0.468-2.448,0.468c-0.88,0-1.692-0.144-2.436-0.432
        c-0.744-0.288-1.388-0.691-1.932-1.212c-0.544-0.52-0.972-1.147-1.284-1.884s-0.468-1.561-0.468-2.473
        c0-0.896,0.152-1.711,0.456-2.447c0.304-0.736,0.728-1.368,1.272-1.896c0.543-0.527,1.188-0.936,1.932-1.224
        c0.744-0.288,1.548-0.433,2.412-0.433c0.8,0,1.596,0.16,2.388,0.48s1.419,0.784,1.884,1.392L96.428,16.184z"/>
    <path fill="#666666" d="M103.1,23.24c0,0.417-0.152,0.784-0.456,1.104c-0.304,0.32-0.688,0.479-1.152,0.479
        c-0.448,0-0.828-0.155-1.14-0.468c-0.312-0.312-0.468-0.676-0.468-1.092c0-0.432,0.152-0.804,0.456-1.116
        c0.304-0.312,0.688-0.468,1.152-0.468c0.464,0,0.848,0.152,1.152,0.456C102.947,22.44,103.1,22.808,103.1,23.24z"/>
    <path fill="#666666" d="M116.635,18.969c0,0.88-0.156,1.688-0.468,2.424c-0.312,0.736-0.744,1.372-1.296,1.908
        c-0.552,0.536-1.204,0.952-1.956,1.248c-0.752,0.296-1.56,0.443-2.424,0.443c-0.864,0-1.672-0.147-2.424-0.443
        c-0.752-0.296-1.4-0.712-1.944-1.248c-0.544-0.536-0.972-1.172-1.284-1.908c-0.312-0.735-0.468-1.544-0.468-2.424
        s0.156-1.684,0.468-2.412c0.312-0.728,0.74-1.356,1.284-1.884c0.543-0.528,1.191-0.939,1.944-1.236
        c0.752-0.296,1.56-0.444,2.424-0.444c0.864,0,1.672,0.148,2.424,0.444c0.752,0.297,1.404,0.708,1.956,1.236
        c0.552,0.527,0.984,1.156,1.296,1.884C116.479,17.285,116.635,18.089,116.635,18.969z M114.283,18.98
        c0-0.542-0.084-1.061-0.252-1.556c-0.169-0.494-0.414-0.929-0.734-1.304s-0.718-0.674-1.192-0.897s-1.015-0.335-1.625-0.335
        c-0.61,0-1.152,0.111-1.625,0.335c-0.474,0.224-0.871,0.522-1.191,0.897c-0.321,0.375-0.566,0.81-0.734,1.304
        c-0.169,0.495-0.253,1.014-0.253,1.556c0,0.543,0.084,1.062,0.253,1.556c0.168,0.495,0.413,0.934,0.734,1.316
        c0.321,0.383,0.718,0.686,1.191,0.909c0.473,0.224,1.015,0.335,1.625,0.335c0.61,0,1.151-0.111,1.625-0.335
        s0.871-0.526,1.192-0.909s0.565-0.821,0.734-1.316C114.199,20.042,114.283,19.523,114.283,18.98z"/>
    <path fill="#666666" d="M119.251,14.577c-0.016-0.48-0.04-0.904-0.072-1.272h2.136c0.032,0.288,0.056,0.62,0.072,0.996
        c0.016,0.376,0.024,0.684,0.024,0.924h0.072c0.32-0.672,0.788-1.212,1.404-1.62c0.616-0.408,1.308-0.612,2.076-0.612
        c0.352,0,0.648,0.033,0.888,0.097l-0.096,2.088c-0.32-0.08-0.664-0.12-1.032-0.12c-0.544,0-1.016,0.101-1.416,0.3
        c-0.4,0.2-0.732,0.468-0.996,0.805c-0.264,0.336-0.46,0.724-0.588,1.163c-0.128,0.44-0.192,0.9-0.192,1.381v5.976h-2.256v-8.928
        C119.275,15.449,119.267,15.056,119.251,14.577z"/>
    <path fill="#666666" d="M128.419,26.625c0.496,0.56,1.116,1.008,1.86,1.344c0.744,0.336,1.508,0.504,2.292,0.504
        c0.752,0,1.384-0.108,1.896-0.324s0.924-0.512,1.236-0.888s0.536-0.82,0.672-1.332c0.136-0.513,0.204-1.064,0.204-1.656v-1.464
        h-0.048c-0.416,0.641-0.984,1.128-1.704,1.464c-0.72,0.336-1.488,0.504-2.304,0.504c-0.864,0-1.652-0.151-2.364-0.456
        c-0.712-0.304-1.316-0.72-1.812-1.248c-0.496-0.527-0.88-1.147-1.152-1.859s-0.408-1.477-0.408-2.292
        c0-0.816,0.136-1.584,0.408-2.305c0.272-0.72,0.656-1.348,1.152-1.884c0.496-0.535,1.096-0.96,1.8-1.271
        c0.704-0.312,1.488-0.469,2.352-0.469c0.816,0,1.596,0.177,2.34,0.528c0.744,0.353,1.332,0.888,1.764,1.608h0.048v-1.824h2.184
        v10.8c0,0.832-0.104,1.628-0.312,2.388c-0.208,0.76-0.56,1.433-1.056,2.017s-1.144,1.052-1.944,1.404
        c-0.8,0.352-1.792,0.527-2.976,0.527c-0.992,0-1.988-0.18-2.988-0.54c-1-0.359-1.86-0.868-2.58-1.523L128.419,26.625z
         M129.091,18.873c0,0.527,0.084,1.031,0.253,1.512c0.168,0.479,0.417,0.904,0.746,1.271c0.329,0.369,0.726,0.664,1.192,0.889
        c0.465,0.224,0.995,0.336,1.589,0.336c0.577,0,1.107-0.104,1.589-0.312c0.481-0.207,0.891-0.491,1.228-0.852
        s0.598-0.784,0.782-1.272c0.185-0.487,0.277-1.012,0.277-1.571c0-0.544-0.093-1.057-0.277-1.536
        c-0.185-0.48-0.449-0.904-0.794-1.272c-0.345-0.367-0.755-0.66-1.228-0.876c-0.474-0.216-1-0.324-1.577-0.324
        c-0.594,0-1.124,0.108-1.589,0.324c-0.466,0.216-0.863,0.504-1.192,0.864s-0.578,0.784-0.746,1.271
        C129.175,17.812,129.091,18.329,129.091,18.873z"/>
</g>
<g><a xlink:href="/" pointer-events="all" target="_top"><polygon fill="none" points="0,0 145,0 145,35 0,35 0,0"/></a></g>

</g>


<!-- AnyBidirectionalIndex -->
<g id="node1" class="node">
<g id="a_node1"><a xlink:href="/v2.2/type/AnyBidirectionalIndex/hierarchy/" target="_top">
<polygon fill="#999999" stroke="#999999" points="1920.55,-22 1795.45,-22 1795.45,-0 1920.55,-0 1920.55,-22"/>
<text text-anchor="middle" x="1858" y="-7.4" font-family="Helvetica,sans-Serif" font-size="12.00" fill="white">AnyBidirectionalIndex</text>
</a>
</g>
</g>
<!-- AnyForwardIndex -->
<g id="node2" class="node">
<g id="a_node2"><a xlink:href="/v2.2/type/AnyForwardIndex/hierarchy/" target="_top">
<polygon fill="#999999" stroke="#999999" points="2815.03,-22 2710.97,-22 2710.97,-0 2815.03,-0 2815.03,-22"/>
<text text-anchor="middle" x="2763" y="-7.4" font-family="Helvetica,sans-Serif" font-size="12.00" fill="white">AnyForwardIndex</text>
</a>
</g>
</g>
<!-- AnyRandomAccessIndex -->
<g id="node3" class="node">
<g id="a_node3"><a xlink:href="/v2.2/type/AnyRandomAccessIndex/hierarchy/" target="_top">
<polygon fill="#999999" stroke="#999999" points="2333.05,-22 2188.95,-22 2188.95,-0 2333.05,-0 2333.05,-22"/>
<text text-anchor="middle" x="2261" y="-7.4" font-family="Helvetica,sans-Serif" font-size="12.00" fill="white">AnyRandomAccessIndex</text>
</a>
</g>
</g>
<!-- BidirectionalIndexType -->
<g id="node4" class="node">
<g id="a_node4"><a xlink:href="/v2.2/protocol/BidirectionalIndexType/hierarchy/" target="_top">
<path fill="#999999" stroke="#999999" d="M1634.73,-254C1634.73,-254 1519.27,-254 1519.27,-254 1515.61,-254 1511.94,-250.333 1511.94,-246.667 1511.94,-246.667 1511.94,-239.333 1511.94,-239.333 1511.94,-235.667 1515.61,-232 1519.27,-232 1519.27,-232 1634.73,-232 1634.73,-232 1638.39,-232 1642.06,-235.667 1642.06,-239.333 1642.06,-239.333 1642.06,-246.667 1642.06,-246.667 1642.06,-250.333 1638.39,-254 1634.73,-254"/>
<text text-anchor="middle" x="1577" y="-239.4" font-family="Helvetica,sans-Serif" font-size="12.00" fill="white">BidirectionalIndexType</text>
</a>
</g>
</g>
<!-- BidirectionalIndexType&#45;&gt;AnyBidirectionalIndex -->
<g id="edge10" class="edge">
<path fill="none" stroke="#cccccc" d="M1589.44,-231.82C1633.6,-195.676 1783.13,-73.285 1837.78,-28.5499"/>
<polygon fill="#cccccc" stroke="#cccccc" points="1840.19,-31.1044 1845.71,-22.062 1835.75,-25.6875 1840.19,-31.1044"/>
</g>
<!-- FlattenBidirectionalCollectionIndex -->
<g id="node8" class="node">
<g id="a_node8"><a xlink:href="/v2.2/type/FlattenBidirectionalCollectionIndex/hierarchy/" target="_top">
<polygon fill="#999999" stroke="#999999" points="1777.08,-22 1582.92,-22 1582.92,-0 1777.08,-0 1777.08,-22"/>
<text text-anchor="middle" x="1680" y="-7.4" font-family="Helvetica,sans-Serif" font-size="12.00" fill="white">FlattenBidirectionalCollectionIndex</text>
</a>
</g>
</g>
<!-- BidirectionalIndexType&#45;&gt;FlattenBidirectionalCollectionIndex -->
<g id="edge11" class="edge">
<path fill="none" stroke="#cccccc" d="M1581.56,-231.82C1597.41,-196.419 1650.32,-78.2851 1671.31,-31.4085"/>
<polygon fill="#cccccc" stroke="#cccccc" points="1674.6,-32.6192 1675.49,-22.062 1668.21,-29.7581 1674.6,-32.6192"/>
</g>
<!-- RandomAccessIndexType -->
<g id="node18" class="node">
<g id="a_node18"><a xlink:href="/v2.2/protocol/RandomAccessIndexType/hierarchy/" target="_top">
<path fill="#999999" stroke="#999999" d="M2195.23,-196C2195.23,-196 2060.77,-196 2060.77,-196 2057.11,-196 2053.44,-192.333 2053.44,-188.667 2053.44,-188.667 2053.44,-181.333 2053.44,-181.333 2053.44,-177.667 2057.11,-174 2060.77,-174 2060.77,-174 2195.23,-174 2195.23,-174 2198.89,-174 2202.56,-177.667 2202.56,-181.333 2202.56,-181.333 2202.56,-188.667 2202.56,-188.667 2202.56,-192.333 2198.89,-196 2195.23,-196"/>
<text text-anchor="middle" x="2128" y="-181.4" font-family="Helvetica,sans-Serif" font-size="12.00" fill="white">RandomAccessIndexType</text>
</a>
</g>
</g>
<!-- BidirectionalIndexType&#45;&gt;RandomAccessIndexType -->
<g id="edge12" class="edge">
<path fill="none" stroke="#cccccc" d="M1642.1,-235.384C1741.93,-225.238 1932.84,-205.835 2043.31,-194.607"/>
<polygon fill="#cccccc" stroke="#cccccc" points="2043.82,-198.074 2053.42,-193.58 2043.11,-191.109 2043.82,-198.074"/>
</g>
<!-- ReverseIndexType -->
<g id="node20" class="node">
<g id="a_node20"><a xlink:href="/v2.2/protocol/ReverseIndexType/hierarchy/" target="_top">
<path fill="#999999" stroke="#999999" d="M2554.71,-80C2554.71,-80 2459.29,-80 2459.29,-80 2455.62,-80 2451.95,-76.3333 2451.95,-72.6667 2451.95,-72.6667 2451.95,-65.3333 2451.95,-65.3333 2451.95,-61.6667 2455.62,-58 2459.29,-58 2459.29,-58 2554.71,-58 2554.71,-58 2558.38,-58 2562.05,-61.6667 2562.05,-65.3333 2562.05,-65.3333 2562.05,-72.6667 2562.05,-72.6667 2562.05,-76.3333 2558.38,-80 2554.71,-80"/>
<text text-anchor="middle" x="2507" y="-65.4" font-family="Helvetica,sans-Serif" font-size="12.00" fill="white">ReverseIndexType</text>
</a>
</g>
</g>
<!-- BidirectionalIndexType&#45;&gt;ReverseIndexType -->
<g id="edge13" class="edge">
<path fill="none" stroke="#cccccc" d="M1642.21,-239.989C1781.59,-235.247 2104.47,-221.779 2211,-196 2315.03,-170.824 2429.19,-112.727 2480.01,-85.1099"/>
<polygon fill="#cccccc" stroke="#cccccc" points="2481.94,-88.0432 2489.03,-80.167 2478.58,-81.9049 2481.94,-88.0432"/>
</g>
<!-- String.CharacterView.Index -->
<g id="node24" class="node">
<g id="a_node24"><a xlink:href="/v2.2/type/String.CharacterView.Index/hierarchy/" target="_top">
<polygon fill="#999999" stroke="#999999" points="1209.4,-22 1054.6,-22 1054.6,-0 1209.4,-0 1209.4,-22"/>
<text text-anchor="middle" x="1132" y="-7.4" font-family="Helvetica,sans-Serif" font-size="12.00" fill="white">String.CharacterView.Index</text>
</a>
</g>
</g>
<!-- BidirectionalIndexType&#45;&gt;String.CharacterView.Index -->
<g id="edge14" class="edge">
<path fill="none" stroke="#cccccc" d="M1557.59,-231.969C1487.04,-195.504 1243.95,-69.86 1160.43,-26.6967"/>
<polygon fill="#cccccc" stroke="#cccccc" points="1162,-23.5658 1151.51,-22.0835 1158.79,-29.7843 1162,-23.5658"/>
</g>
<!-- String.UTF16View.Index -->
<g id="node25" class="node">
<g id="a_node25"><a xlink:href="/v2.2/type/String.UTF16View.Index/hierarchy/" target="_top">
<polygon fill="#999999" stroke="#999999" points="1366.39,-22 1227.61,-22 1227.61,-0 1366.39,-0 1366.39,-22"/>
<text text-anchor="middle" x="1297" y="-7.4" font-family="Helvetica,sans-Serif" font-size="12.00" fill="white">String.UTF16View.Index</text>
</a>
</g>
</g>
<!-- BidirectionalIndexType&#45;&gt;String.UTF16View.Index -->
<g id="edge16" class="edge">
<path fill="none" stroke="#cccccc" d="M1564.61,-231.82C1520.6,-195.676 1371.61,-73.285 1317.15,-28.5499"/>
<polygon fill="#cccccc" stroke="#cccccc" points="1319.2,-25.7049 1309.25,-22.062 1314.76,-31.114 1319.2,-25.7049"/>
</g>
<!-- String.UnicodeScalarView.Index -->
<g id="node27" class="node">
<g id="a_node27"><a xlink:href="/v2.2/type/String.UnicodeScalarView.Index/hierarchy/" target="_top">
<polygon fill="#999999" stroke="#999999" points="1564.92,-22 1385.08,-22 1385.08,-0 1564.92,-0 1564.92,-22"/>
<text text-anchor="middle" x="1475" y="-7.4" font-family="Helvetica,sans-Serif" font-size="12.00" fill="white">String.UnicodeScalarView.Index</text>
</a>
</g>
</g>
<!-- BidirectionalIndexType&#45;&gt;String.UnicodeScalarView.Index -->
<g id="edge15" class="edge">
<path fill="none" stroke="#cccccc" d="M1572.49,-231.82C1556.79,-196.419 1504.4,-78.2851 1483.61,-31.4085"/>
<polygon fill="#cccccc" stroke="#cccccc" points="1486.72,-29.7845 1479.46,-22.062 1480.32,-32.6223 1486.72,-29.7845"/>
</g>
<!-- Bit -->
<g id="node5" class="node">
<g id="a_node5"><a xlink:href="/v2.2/type/Bit/hierarchy/" target="_top">
<polygon fill="#999999" stroke="#999999" points="2405,-22 2351,-22 2351,-0 2405,-0 2405,-22"/>
<text text-anchor="middle" x="2378" y="-7.4" font-family="Helvetica,sans-Serif" font-size="12.00" fill="white">Bit</text>
</a>
</g>
</g>
<!-- DictionaryIndex -->
<g id="node6" class="node">
<g id="a_node6"><a xlink:href="/v2.2/type/DictionaryIndex/hierarchy/" target="_top">
<polygon fill="#999999" stroke="#999999" points="2925.03,-22 2832.97,-22 2832.97,-0 2925.03,-0 2925.03,-22"/>
<text text-anchor="middle" x="2879" y="-7.4" font-family="Helvetica,sans-Serif" font-size="12.00" fill="white">DictionaryIndex</text>
</a>
</g>
</g>
<!-- Equatable -->
<g id="node7" class="node">
<g id="a_node7"><a xlink:href="/v2.2/protocol/Equatable/hierarchy/" target="_top">
<path fill="#999999" stroke="#999999" d="M773.702,-428C773.702,-428 724.298,-428 724.298,-428 720.632,-428 716.965,-424.333 716.965,-420.667 716.965,-420.667 716.965,-413.333 716.965,-413.333 716.965,-409.667 720.632,-406 724.298,-406 724.298,-406 773.702,-406 773.702,-406 777.368,-406 781.035,-409.667 781.035,-413.333 781.035,-413.333 781.035,-420.667 781.035,-420.667 781.035,-424.333 777.368,-428 773.702,-428"/>
<text text-anchor="middle" x="749" y="-413.4" font-family="Helvetica,sans-Serif" font-size="12.00" fill="white">Equatable</text>
</a>
</g>
</g>
<!-- _Incrementable -->
<g id="node37" class="node">
<g id="a_node37"><a xlink:href="/v2.2/protocol/_Incrementable/" target="_top">
<path fill="#ee543d" stroke="#ee543d" d="M787.705,-370C787.705,-370 710.295,-370 710.295,-370 706.628,-370 702.961,-366.333 702.961,-362.667 702.961,-362.667 702.961,-355.333 702.961,-355.333 702.961,-351.667 706.628,-348 710.295,-348 710.295,-348 787.705,-348 787.705,-348 791.372,-348 795.039,-351.667 795.039,-355.333 795.039,-355.333 795.039,-362.667 795.039,-362.667 795.039,-366.333 791.372,-370 787.705,-370"/>
<text text-anchor="middle" x="749" y="-355.4" font-family="Helvetica,sans-Serif" font-size="12.00" fill="white">_Incrementable</text>
</a>
</g>
</g>
<!-- Equatable&#45;&gt;_Incrementable -->
<g id="edge42" class="edge">
<path fill="none" stroke="#cccccc" d="M749,-405.988C749,-398.91 749,-389.171 749,-380.478"/>
<polygon fill="#cccccc" stroke="#cccccc" points="752.5,-380.304 749,-370.304 745.5,-380.304 752.5,-380.304"/>
</g>
<!-- FlattenCollectionIndex -->
<g id="node9" class="node">
<g id="a_node9"><a xlink:href="/v2.2/type/FlattenCollectionIndex/hierarchy/" target="_top">
<polygon fill="#999999" stroke="#999999" points="3072.05,-22 2943.95,-22 2943.95,-0 3072.05,-0 3072.05,-22"/>
<text text-anchor="middle" x="3008" y="-7.4" font-family="Helvetica,sans-Serif" font-size="12.00" fill="white">FlattenCollectionIndex</text>
</a>
</g>
</g>
<!-- ForwardIndexType -->
<g id="node10" class="node">
<g id="a_node10"><a xlink:href="/v2.2/protocol/ForwardIndexType/hierarchy/" target="_top">
<path fill="#999999" stroke="#999999" d="M1269.21,-312C1269.21,-312 1174.79,-312 1174.79,-312 1171.13,-312 1167.46,-308.333 1167.46,-304.667 1167.46,-304.667 1167.46,-297.333 1167.46,-297.333 1167.46,-293.667 1171.13,-290 1174.79,-290 1174.79,-290 1269.21,-290 1269.21,-290 1272.87,-290 1276.54,-293.667 1276.54,-297.333 1276.54,-297.333 1276.54,-304.667 1276.54,-304.667 1276.54,-308.333 1272.87,-312 1269.21,-312"/>
<text text-anchor="middle" x="1222" y="-297.4" font-family="Helvetica,sans-Serif" font-size="12.00" fill="white">ForwardIndexType</text>
</a>
</g>
</g>
<!-- ForwardIndexType&#45;&gt;AnyForwardIndex -->
<g id="edge3" class="edge">
<path fill="none" stroke="#cccccc" d="M1276.39,-298.883C1550.02,-292.915 2763,-262.162 2763,-186 2763,-186 2763,-186 2763,-126 2763,-93.1536 2763,-54.9837 2763,-32.197"/>
<polygon fill="#cccccc" stroke="#cccccc" points="2766.5,-32.0648 2763,-22.0648 2759.5,-32.0648 2766.5,-32.0648"/>
</g>
<!-- ForwardIndexType&#45;&gt;BidirectionalIndexType -->
<g id="edge4" class="edge">
<path fill="none" stroke="#cccccc" d="M1276.69,-291.373C1337.46,-281.786 1435.9,-266.257 1503.41,-255.609"/>
<polygon fill="#cccccc" stroke="#cccccc" points="1504.21,-259.025 1513.55,-254.01 1503.12,-252.111 1504.21,-259.025"/>
</g>
<!-- ForwardIndexType&#45;&gt;DictionaryIndex -->
<g id="edge5" class="edge">
<path fill="none" stroke="#cccccc" d="M1276.45,-299.043C1487.69,-295.172 2253.23,-279.649 2495,-254 2667.35,-235.715 2879,-359.322 2879,-186 2879,-186 2879,-186 2879,-126 2879,-93.1536 2879,-54.9837 2879,-32.197"/>
<polygon fill="#cccccc" stroke="#cccccc" points="2882.5,-32.0648 2879,-22.0648 2875.5,-32.0648 2882.5,-32.0648"/>
</g>
<!-- ForwardIndexType&#45;&gt;FlattenCollectionIndex -->
<g id="edge6" class="edge">
<path fill="none" stroke="#cccccc" d="M1276.59,-299.637C1508.55,-297.887 2413.32,-288.916 2696,-254 2836.85,-236.602 3008,-327.922 3008,-186 3008,-186 3008,-186 3008,-126 3008,-93.1536 3008,-54.9837 3008,-32.197"/>
<polygon fill="#cccccc" stroke="#cccccc" points="3011.5,-32.0648 3008,-22.0648 3004.5,-32.0648 3011.5,-32.0648"/>
</g>
<!-- LazyFilterIndex -->
<g id="node17" class="node">
<g id="a_node17"><a xlink:href="/v2.2/type/LazyFilterIndex/hierarchy/" target="_top">
<polygon fill="#999999" stroke="#999999" points="90.5262,-22 -0.526216,-22 -0.526216,-0 90.5262,-0 90.5262,-22"/>
<text text-anchor="middle" x="45" y="-7.4" font-family="Helvetica,sans-Serif" font-size="12.00" fill="white">LazyFilterIndex</text>
</a>
</g>
</g>
<!-- ForwardIndexType&#45;&gt;LazyFilterIndex -->
<g id="edge7" class="edge">
<path fill="none" stroke="#cccccc" d="M1167.59,-300.516C936.111,-302.007 45,-300.324 45,-186 45,-186 45,-186 45,-126 45,-93.1536 45,-54.9837 45,-32.197"/>
<polygon fill="#cccccc" stroke="#cccccc" points="48.5001,-32.0648 45,-22.0648 41.5001,-32.0648 48.5001,-32.0648"/>
</g>
<!-- SetIndex -->
<g id="node22" class="node">
<g id="a_node22"><a xlink:href="/v2.2/type/SetIndex/hierarchy/" target="_top">
<polygon fill="#999999" stroke="#999999" points="165.524,-22 108.476,-22 108.476,-0 165.524,-0 165.524,-22"/>
<text text-anchor="middle" x="137" y="-7.4" font-family="Helvetica,sans-Serif" font-size="12.00" fill="white">SetIndex</text>
</a>
</g>
</g>
<!-- ForwardIndexType&#45;&gt;SetIndex -->
<g id="edge8" class="edge">
<path fill="none" stroke="#cccccc" d="M1167.33,-298.866C972.122,-294.102 321,-271.783 321,-186 321,-186 321,-186 321,-126 321,-91.5076 226.385,-47.863 172.849,-25.9284"/>
<polygon fill="#cccccc" stroke="#cccccc" points="173.946,-22.5966 163.363,-22.0925 171.321,-29.0861 173.946,-22.5966"/>
</g>
<!-- String.UTF8View.Index -->
<g id="node26" class="node">
<g id="a_node26"><a xlink:href="/v2.2/type/String.UTF8View.Index/hierarchy/" target="_top">
<polygon fill="#999999" stroke="#999999" points="1035.89,-22 904.113,-22 904.113,-0 1035.89,-0 1035.89,-22"/>
<text text-anchor="middle" x="970" y="-7.4" font-family="Helvetica,sans-Serif" font-size="12.00" fill="white">String.UTF8View.Index</text>
</a>
</g>
</g>
<!-- ForwardIndexType&#45;&gt;String.UTF8View.Index -->
<g id="edge9" class="edge">
<path fill="none" stroke="#cccccc" d="M1167.63,-298.614C1093.55,-293.501 970,-272.073 970,-186 970,-186 970,-186 970,-126 970,-93.1536 970,-54.9837 970,-32.197"/>
<polygon fill="#cccccc" stroke="#cccccc" points="973.5,-32.0648 970,-22.0648 966.5,-32.0648 973.5,-32.0648"/>
</g>
<!-- Int -->
<g id="node11" class="node">
<g id="a_node11"><a xlink:href="/v2.2/type/Int/hierarchy/" target="_top">
<polygon fill="#999999" stroke="#999999" points="598,-22 544,-22 544,-0 598,-0 598,-22"/>
<text text-anchor="middle" x="571" y="-7.4" font-family="Helvetica,sans-Serif" font-size="12.00" fill="white">Int</text>
</a>
</g>
</g>
<!-- Int16 -->
<g id="node12" class="node">
<g id="a_node12"><a xlink:href="/v2.2/type/Int16/hierarchy/" target="_top">
<polygon fill="#999999" stroke="#999999" points="670,-22 616,-22 616,-0 670,-0 670,-22"/>
<text text-anchor="middle" x="643" y="-7.4" font-family="Helvetica,sans-Serif" font-size="12.00" fill="white">Int16</text>
</a>
</g>
</g>
<!-- Int32 -->
<g id="node13" class="node">
<g id="a_node13"><a xlink:href="/v2.2/type/Int32/hierarchy/" target="_top">
<polygon fill="#999999" stroke="#999999" points="742,-22 688,-22 688,-0 742,-0 742,-22"/>
<text text-anchor="middle" x="715" y="-7.4" font-family="Helvetica,sans-Serif" font-size="12.00" fill="white">Int32</text>
</a>
</g>
</g>
<!-- Int64 -->
<g id="node14" class="node">
<g id="a_node14"><a xlink:href="/v2.2/type/Int64/hierarchy/" target="_top">
<polygon fill="#999999" stroke="#999999" points="814,-22 760,-22 760,-0 814,-0 814,-22"/>
<text text-anchor="middle" x="787" y="-7.4" font-family="Helvetica,sans-Serif" font-size="12.00" fill="white">Int64</text>
</a>
</g>
</g>
<!-- Int8 -->
<g id="node15" class="node">
<g id="a_node15"><a xlink:href="/v2.2/type/Int8/hierarchy/" target="_top">
<polygon fill="#999999" stroke="#999999" points="886,-22 832,-22 832,-0 886,-0 886,-22"/>
<text text-anchor="middle" x="859" y="-7.4" font-family="Helvetica,sans-Serif" font-size="12.00" fill="white">Int8</text>
</a>
</g>
</g>
<!-- IntegerType -->
<g id="node16" class="node">
<g id="a_node16"><a xlink:href="/v2.2/protocol/IntegerType/hierarchy/" target="_top">
<path fill="#999999" stroke="#999999" d="M738.202,-138C738.202,-138 679.798,-138 679.798,-138 676.132,-138 672.465,-134.333 672.465,-130.667 672.465,-130.667 672.465,-123.333 672.465,-123.333 672.465,-119.667 676.132,-116 679.798,-116 679.798,-116 738.202,-116 738.202,-116 741.868,-116 745.535,-119.667 745.535,-123.333 745.535,-123.333 745.535,-130.667 745.535,-130.667 745.535,-134.333 741.868,-138 738.202,-138"/>
<text text-anchor="middle" x="709" y="-123.4" font-family="Helvetica,sans-Serif" font-size="12.00" fill="white">IntegerType</text>
</a>
</g>
</g>
<!-- SignedIntegerType -->
<g id="node23" class="node">
<g id="a_node23"><a xlink:href="/v2.2/protocol/SignedIntegerType/hierarchy/" target="_top">
<path fill="#999999" stroke="#999999" d="M756.727,-80C756.727,-80 661.273,-80 661.273,-80 657.606,-80 653.94,-76.3333 653.94,-72.6667 653.94,-72.6667 653.94,-65.3333 653.94,-65.3333 653.94,-61.6667 657.606,-58 661.273,-58 661.273,-58 756.727,-58 756.727,-58 760.394,-58 764.06,-61.6667 764.06,-65.3333 764.06,-65.3333 764.06,-72.6667 764.06,-72.6667 764.06,-76.3333 760.394,-80 756.727,-80"/>
<text text-anchor="middle" x="709" y="-65.4" font-family="Helvetica,sans-Serif" font-size="12.00" fill="white">SignedIntegerType</text>
</a>
</g>
</g>
<!-- IntegerType&#45;&gt;SignedIntegerType -->
<g id="edge23" class="edge">
<path fill="none" stroke="#cccccc" d="M709,-115.988C709,-108.91 709,-99.1714 709,-90.4779"/>
<polygon fill="#cccccc" stroke="#cccccc" points="712.5,-90.3038 709,-80.3039 705.5,-90.3039 712.5,-90.3038"/>
</g>
<!-- UnsignedIntegerType -->
<g id="node35" class="node">
<g id="a_node35"><a xlink:href="/v2.2/protocol/UnsignedIntegerType/hierarchy/" target="_top">
<path fill="#999999" stroke="#999999" d="M481.728,-80C481.728,-80 372.272,-80 372.272,-80 368.605,-80 364.938,-76.3333 364.938,-72.6667 364.938,-72.6667 364.938,-65.3333 364.938,-65.3333 364.938,-61.6667 368.605,-58 372.272,-58 372.272,-58 481.728,-58 481.728,-58 485.395,-58 489.062,-61.6667 489.062,-65.3333 489.062,-65.3333 489.062,-72.6667 489.062,-72.6667 489.062,-76.3333 485.395,-80 481.728,-80"/>
<text text-anchor="middle" x="427" y="-65.4" font-family="Helvetica,sans-Serif" font-size="12.00" fill="white">UnsignedIntegerType</text>
</a>
</g>
</g>
<!-- IntegerType&#45;&gt;UnsignedIntegerType -->
<g id="edge24" class="edge">
<path fill="none" stroke="#cccccc" d="M672.357,-117.96C669.194,-117.288 666.042,-116.627 663,-116 604.602,-103.962 537.899,-91.0369 490.34,-81.962"/>
<polygon fill="#cccccc" stroke="#cccccc" points="490.97,-78.5192 480.491,-80.0857 489.66,-85.3955 490.97,-78.5192"/>
</g>
<!-- RandomAccessIndexType&#45;&gt;AnyRandomAccessIndex -->
<g id="edge17" class="edge">
<path fill="none" stroke="#cccccc" d="M2135.92,-173.756C2157.68,-145.621 2218.58,-66.8536 2246.59,-30.6411"/>
<polygon fill="#cccccc" stroke="#cccccc" points="2249.6,-32.4599 2252.95,-22.4081 2244.07,-28.1779 2249.6,-32.4599"/>
</g>
<!-- RandomAccessIndexType&#45;&gt;Bit -->
<g id="edge18" class="edge">
<path fill="none" stroke="#cccccc" d="M2142.89,-173.756C2184.84,-144.897 2304.21,-62.7667 2354.84,-27.9319"/>
<polygon fill="#cccccc" stroke="#cccccc" points="2356.93,-30.7422 2363.19,-22.1906 2352.97,-24.9753 2356.93,-30.7422"/>
</g>
<!-- RandomAccessIndexType&#45;&gt;IntegerType -->
<g id="edge19" class="edge">
<path fill="none" stroke="#cccccc" d="M2053.21,-181.048C1797.57,-170.96 962.926,-138.021 755.827,-129.848"/>
<polygon fill="#cccccc" stroke="#cccccc" points="755.731,-126.342 745.6,-129.444 755.454,-133.336 755.731,-126.342"/>
</g>
<!-- ReverseRandomAccessIndex -->
<g id="node21" class="node">
<g id="a_node21"><a xlink:href="/v2.2/type/ReverseRandomAccessIndex/hierarchy/" target="_top">
<polygon fill="#999999" stroke="#999999" points="2591.06,-22 2422.94,-22 2422.94,-0 2591.06,-0 2591.06,-22"/>
<text text-anchor="middle" x="2507" y="-7.4" font-family="Helvetica,sans-Serif" font-size="12.00" fill="white">ReverseRandomAccessIndex</text>
</a>
</g>
</g>
<!-- RandomAccessIndexType&#45;&gt;ReverseRandomAccessIndex -->
<g id="edge20" class="edge">
<path fill="none" stroke="#cccccc" d="M2150.29,-173.883C2214.53,-144.731 2400.19,-60.4753 2475.1,-26.4784"/>
<polygon fill="#cccccc" stroke="#cccccc" points="2476.84,-29.5325 2484.5,-22.2127 2473.94,-23.1582 2476.84,-29.5325"/>
</g>
<!-- UnsafeMutablePointer -->
<g id="node33" class="node">
<g id="a_node33"><a xlink:href="/v2.2/type/UnsafeMutablePointer/hierarchy/" target="_top">
<polygon fill="#999999" stroke="#999999" points="2067.05,-22 1938.95,-22 1938.95,-0 2067.05,-0 2067.05,-22"/>
<text text-anchor="middle" x="2003" y="-7.4" font-family="Helvetica,sans-Serif" font-size="12.00" fill="white">UnsafeMutablePointer</text>
</a>
</g>
</g>
<!-- RandomAccessIndexType&#45;&gt;UnsafeMutablePointer -->
<g id="edge21" class="edge">
<path fill="none" stroke="#cccccc" d="M2120.56,-173.756C2100.11,-145.621 2042.86,-66.8536 2016.55,-30.6411"/>
<polygon fill="#cccccc" stroke="#cccccc" points="2019.27,-28.4399 2010.56,-22.4081 2013.61,-32.5551 2019.27,-28.4399"/>
</g>
<!-- UnsafePointer -->
<g id="node34" class="node">
<g id="a_node34"><a xlink:href="/v2.2/type/UnsafePointer/hierarchy/" target="_top">
<polygon fill="#999999" stroke="#999999" points="2171.03,-22 2084.97,-22 2084.97,-0 2171.03,-0 2171.03,-22"/>
<text text-anchor="middle" x="2128" y="-7.4" font-family="Helvetica,sans-Serif" font-size="12.00" fill="white">UnsafePointer</text>
</a>
</g>
</g>
<!-- RandomAccessIndexType&#45;&gt;UnsafePointer -->
<g id="edge22" class="edge">
<path fill="none" stroke="#cccccc" d="M2128,-173.756C2128,-146.097 2128,-69.5091 2128,-32.5186"/>
<polygon fill="#cccccc" stroke="#cccccc" points="2131.5,-32.408 2128,-22.4081 2124.5,-32.4081 2131.5,-32.408"/>
</g>
<!-- ReverseIndex -->
<g id="node19" class="node">
<g id="a_node19"><a xlink:href="/v2.2/type/ReverseIndex/hierarchy/" target="_top">
<polygon fill="#999999" stroke="#999999" points="2693.03,-22 2608.97,-22 2608.97,-0 2693.03,-0 2693.03,-22"/>
<text text-anchor="middle" x="2651" y="-7.4" font-family="Helvetica,sans-Serif" font-size="12.00" fill="white">ReverseIndex</text>
</a>
</g>
</g>
<!-- ReverseIndexType&#45;&gt;ReverseIndex -->
<g id="edge35" class="edge">
<path fill="none" stroke="#cccccc" d="M2532.74,-57.9883C2555.84,-49.0057 2589.95,-35.7398 2615.61,-25.7614"/>
<polygon fill="#cccccc" stroke="#cccccc" points="2616.94,-29.0004 2624.99,-22.1138 2614.4,-22.4763 2616.94,-29.0004"/>
</g>
<!-- ReverseIndexType&#45;&gt;ReverseRandomAccessIndex -->
<g id="edge36" class="edge">
<path fill="none" stroke="#cccccc" d="M2507,-57.9883C2507,-50.9098 2507,-41.1714 2507,-32.4779"/>
<polygon fill="#cccccc" stroke="#cccccc" points="2510.5,-32.3038 2507,-22.3039 2503.5,-32.3039 2510.5,-32.3038"/>
</g>
<!-- SignedIntegerType&#45;&gt;Int -->
<g id="edge25" class="edge">
<path fill="none" stroke="#cccccc" d="M684.328,-57.9883C662.29,-49.0453 629.79,-35.8566 605.237,-25.8935"/>
<polygon fill="#cccccc" stroke="#cccccc" points="606.506,-22.6309 595.923,-22.1138 603.873,-29.1172 606.506,-22.6309"/>
</g>
<!-- SignedIntegerType&#45;&gt;Int16 -->
<g id="edge26" class="edge">
<path fill="none" stroke="#cccccc" d="M697.201,-57.9883C687.653,-49.8873 673.999,-38.3026 662.785,-28.7873"/>
<polygon fill="#cccccc" stroke="#cccccc" points="665.033,-26.1049 655.144,-22.3039 660.505,-31.4425 665.033,-26.1049"/>
</g>
<!-- SignedIntegerType&#45;&gt;Int32 -->
<g id="edge27" class="edge">
<path fill="none" stroke="#cccccc" d="M710.073,-57.9883C710.831,-50.9098 711.874,-41.1714 712.806,-32.4779"/>
<polygon fill="#cccccc" stroke="#cccccc" points="716.311,-32.6199 713.896,-22.3039 709.351,-31.8741 716.311,-32.6199"/>
</g>
<!-- SignedIntegerType&#45;&gt;Int64 -->
<g id="edge28" class="edge">
<path fill="none" stroke="#cccccc" d="M722.945,-57.9883C734.519,-49.6784 751.2,-37.7028 764.637,-28.0554"/>
<polygon fill="#cccccc" stroke="#cccccc" points="766.831,-30.7891 772.913,-22.1138 762.748,-25.1028 766.831,-30.7891"/>
</g>
<!-- SignedIntegerType&#45;&gt;Int8 -->
<g id="edge29" class="edge">
<path fill="none" stroke="#cccccc" d="M735.817,-57.9883C760.059,-48.9381 795.947,-35.5399 822.741,-25.5367"/>
<polygon fill="#cccccc" stroke="#cccccc" points="824.018,-28.7958 832.163,-22.0192 821.57,-22.2379 824.018,-28.7958"/>
</g>
<!-- UInt -->
<g id="node28" class="node">
<g id="a_node28"><a xlink:href="/v2.2/type/UInt/hierarchy/" target="_top">
<polygon fill="#999999" stroke="#999999" points="238,-22 184,-22 184,-0 238,-0 238,-22"/>
<text text-anchor="middle" x="211" y="-7.4" font-family="Helvetica,sans-Serif" font-size="12.00" fill="white">UInt</text>
</a>
</g>
</g>
<!-- UInt16 -->
<g id="node29" class="node">
<g id="a_node29"><a xlink:href="/v2.2/type/UInt16/hierarchy/" target="_top">
<polygon fill="#999999" stroke="#999999" points="310,-22 256,-22 256,-0 310,-0 310,-22"/>
<text text-anchor="middle" x="283" y="-7.4" font-family="Helvetica,sans-Serif" font-size="12.00" fill="white">UInt16</text>
</a>
</g>
</g>
<!-- UInt32 -->
<g id="node30" class="node">
<g id="a_node30"><a xlink:href="/v2.2/type/UInt32/hierarchy/" target="_top">
<polygon fill="#999999" stroke="#999999" points="382,-22 328,-22 328,-0 382,-0 382,-22"/>
<text text-anchor="middle" x="355" y="-7.4" font-family="Helvetica,sans-Serif" font-size="12.00" fill="white">UInt32</text>
</a>
</g>
</g>
<!-- UInt64 -->
<g id="node31" class="node">
<g id="a_node31"><a xlink:href="/v2.2/type/UInt64/hierarchy/" target="_top">
<polygon fill="#999999" stroke="#999999" points="454,-22 400,-22 400,-0 454,-0 454,-22"/>
<text text-anchor="middle" x="427" y="-7.4" font-family="Helvetica,sans-Serif" font-size="12.00" fill="white">UInt64</text>
</a>
</g>
</g>
<!-- UInt8 -->
<g id="node32" class="node">
<g id="a_node32"><a xlink:href="/v2.2/type/UInt8/hierarchy/" target="_top">
<polygon fill="#999999" stroke="#999999" points="526,-22 472,-22 472,-0 526,-0 526,-22"/>
<text text-anchor="middle" x="499" y="-7.4" font-family="Helvetica,sans-Serif" font-size="12.00" fill="white">UInt8</text>
</a>
</g>
</g>
<!-- UnsignedIntegerType&#45;&gt;UInt -->
<g id="edge30" class="edge">
<path fill="none" stroke="#cccccc" d="M386.546,-57.9168C352.164,-49.2898 301.242,-36.3793 248.063,-22.2477"/>
<polygon fill="#cccccc" stroke="#cccccc" points="248.674,-18.7885 238.11,-19.5955 246.872,-25.5525 248.674,-18.7885"/>
</g>
<!-- UnsignedIntegerType&#45;&gt;UInt16 -->
<g id="edge31" class="edge">
<path fill="none" stroke="#cccccc" d="M401.256,-57.9883C378.158,-49.0057 344.045,-35.7398 318.386,-25.7614"/>
<polygon fill="#cccccc" stroke="#cccccc" points="319.596,-22.4763 309.007,-22.1138 317.058,-29.0004 319.596,-22.4763"/>
</g>
<!-- UnsignedIntegerType&#45;&gt;UInt32 -->
<g id="edge32" class="edge">
<path fill="none" stroke="#cccccc" d="M414.128,-57.9883C403.611,-49.8087 388.528,-38.0773 376.228,-28.5108"/>
<polygon fill="#cccccc" stroke="#cccccc" points="378.29,-25.6806 368.248,-22.3039 373.993,-31.2061 378.29,-25.6806"/>
</g>
<!-- UnsignedIntegerType&#45;&gt;UInt64 -->
<g id="edge33" class="edge">
<path fill="none" stroke="#cccccc" d="M427,-57.9883C427,-50.9098 427,-41.1714 427,-32.4779"/>
<polygon fill="#cccccc" stroke="#cccccc" points="430.5,-32.3038 427,-22.3039 423.5,-32.3039 430.5,-32.3038"/>
</g>
<!-- UnsignedIntegerType&#45;&gt;UInt8 -->
<g id="edge34" class="edge">
<path fill="none" stroke="#cccccc" d="M439.872,-57.9883C450.389,-49.8087 465.472,-38.0773 477.772,-28.5108"/>
<polygon fill="#cccccc" stroke="#cccccc" points="480.007,-31.2061 485.752,-22.3039 475.71,-25.6806 480.007,-31.2061"/>
</g>
<!-- _DisallowMixedSignArithmetic -->
<g id="node36" class="node">
<g id="a_node36"><a xlink:href="/v2.2/protocol/_DisallowMixedSignArithmetic/hierarchy/" target="_top">
<path fill="#999999" stroke="#999999" d="M511.709,-138C511.709,-138 356.291,-138 356.291,-138 352.624,-138 348.957,-134.333 348.957,-130.667 348.957,-130.667 348.957,-123.333 348.957,-123.333 348.957,-119.667 352.624,-116 356.291,-116 356.291,-116 511.709,-116 511.709,-116 515.376,-116 519.043,-119.667 519.043,-123.333 519.043,-123.333 519.043,-130.667 519.043,-130.667 519.043,-134.333 515.376,-138 511.709,-138"/>
<text text-anchor="middle" x="434" y="-123.4" font-family="Helvetica,sans-Serif" font-size="12.00" fill="white">_DisallowMixedSignArithmetic</text>
</a>
</g>
</g>
<!-- _DisallowMixedSignArithmetic&#45;&gt;UnsignedIntegerType -->
<g id="edge40" class="edge">
<path fill="none" stroke="#cccccc" d="M432.749,-115.988C431.864,-108.91 430.646,-99.1714 429.56,-90.4779"/>
<polygon fill="#cccccc" stroke="#cccccc" points="433.001,-89.7925 428.288,-80.3039 426.055,-90.6608 433.001,-89.7925"/>
</g>
<!-- _Incrementable&#45;&gt;ForwardIndexType -->
<g id="edge1" class="edge">
<path fill="none" stroke="#cccccc" d="M795.214,-352.529C879.968,-342.494 1060.43,-321.128 1157.32,-309.658"/>
<polygon fill="#cccccc" stroke="#cccccc" points="1157.77,-313.129 1167.29,-308.478 1156.94,-306.178 1157.77,-313.129"/>
</g>
<!-- _IntegerType -->
<g id="node38" class="node">
<g id="a_node38"><a xlink:href="/v2.2/protocol/_IntegerType/hierarchy/" target="_top">
<path fill="#999999" stroke="#999999" d="M547.708,-196C547.708,-196 482.292,-196 482.292,-196 478.626,-196 474.959,-192.333 474.959,-188.667 474.959,-188.667 474.959,-181.333 474.959,-181.333 474.959,-177.667 478.626,-174 482.292,-174 482.292,-174 547.708,-174 547.708,-174 551.374,-174 555.041,-177.667 555.041,-181.333 555.041,-181.333 555.041,-188.667 555.041,-188.667 555.041,-192.333 551.374,-196 547.708,-196"/>
<text text-anchor="middle" x="515" y="-181.4" font-family="Helvetica,sans-Serif" font-size="12.00" fill="white">_IntegerType</text>
</a>
</g>
</g>
<!-- _Incrementable&#45;&gt;_IntegerType -->
<g id="edge2" class="edge">
<path fill="none" stroke="#cccccc" d="M735.063,-347.756C695.882,-318.956 584.529,-237.107 536.97,-202.149"/>
<polygon fill="#cccccc" stroke="#cccccc" points="538.994,-199.293 528.864,-196.191 534.849,-204.933 538.994,-199.293"/>
</g>
<!-- _IntegerType&#45;&gt;IntegerType -->
<g id="edge37" class="edge">
<path fill="none" stroke="#cccccc" d="M549.683,-173.988C581.723,-164.74 629.494,-150.95 664.368,-140.884"/>
<polygon fill="#cccccc" stroke="#cccccc" points="665.653,-144.155 674.29,-138.019 663.712,-137.43 665.653,-144.155"/>
</g>
<!-- _IntegerType&#45;&gt;_DisallowMixedSignArithmetic -->
<g id="edge38" class="edge">
<path fill="none" stroke="#cccccc" d="M500.519,-173.988C488.499,-165.678 471.177,-153.703 457.223,-144.055"/>
<polygon fill="#cccccc" stroke="#cccccc" points="458.845,-140.922 448.629,-138.114 454.864,-146.68 458.845,-140.922"/>
</g>
<!-- _SignedIntegerType -->
<g id="node39" class="node">
<g id="a_node39"><a xlink:href="/v2.2/protocol/_SignedIntegerType/hierarchy/" target="_top">
<path fill="#999999" stroke="#999999" d="M647.231,-138C647.231,-138 544.769,-138 544.769,-138 541.102,-138 537.436,-134.333 537.436,-130.667 537.436,-130.667 537.436,-123.333 537.436,-123.333 537.436,-119.667 541.102,-116 544.769,-116 544.769,-116 647.231,-116 647.231,-116 650.898,-116 654.564,-119.667 654.564,-123.333 654.564,-123.333 654.564,-130.667 654.564,-130.667 654.564,-134.333 650.898,-138 647.231,-138"/>
<text text-anchor="middle" x="596" y="-123.4" font-family="Helvetica,sans-Serif" font-size="12.00" fill="white">_SignedIntegerType</text>
</a>
</g>
</g>
<!-- _IntegerType&#45;&gt;_SignedIntegerType -->
<g id="edge39" class="edge">
<path fill="none" stroke="#cccccc" d="M529.481,-173.988C541.501,-165.678 558.823,-153.703 572.777,-144.055"/>
<polygon fill="#cccccc" stroke="#cccccc" points="575.136,-146.68 581.371,-138.114 571.155,-140.922 575.136,-146.68"/>
</g>
<!-- _SignedIntegerType&#45;&gt;SignedIntegerType -->
<g id="edge41" class="edge">
<path fill="none" stroke="#cccccc" d="M616.202,-115.988C633.849,-107.243 659.687,-94.4381 679.621,-84.5594"/>
<polygon fill="#cccccc" stroke="#cccccc" points="681.186,-87.6903 688.592,-80.1138 678.078,-81.4182 681.186,-87.6903"/>
</g>
</g>
</svg>
