<?xml version="1.0" encoding="UTF-8" standalone="no"?>
<!DOCTYPE svg PUBLIC "-//W3C//DTD SVG 1.1//EN"
 "http://www.w3.org/Graphics/SVG/1.1/DTD/svg11.dtd">
<!-- Generated by graphviz version 2.36.0 (20140111.2315)
 -->
<!-- Title: FloatingPointClassification &#45; Type Hierarchy &#45; SwiftDoc.org Pages: 1 -->
<svg width="164pt" height="195pt"
 viewBox="0.00 0.00 164.40 195.20" xmlns="http://www.w3.org/2000/svg" xmlns:xlink="http://www.w3.org/1999/xlink">
<g id="graph0" class="graph" transform="scale(1 1) rotate(0) translate(7.2 137.6)">
<title>FloatingPointClassification &#45; Type Hierarchy &#45; SwiftDoc.org</title>
<polygon fill="white" stroke="none" points="-7.2,57.6 -7.2,-137.6 157.2,-137.6 157.2,57.6 -7.2,57.6"/>
<!-- Equatable -->
<g id="node1" class="node"><title>Equatable</title>
<g id="a_node1"><a xlink:href="/protocol/Equatable/" xlink:title="Equatable">
<path fill="#999999" stroke="#999999" d="M99.7018,-80C99.7018,-80 50.2982,-80 50.2982,-80 46.6315,-80 42.9648,-76.3333 42.9648,-72.6667 42.9648,-72.6667 42.9648,-65.3333 42.9648,-65.3333 42.9648,-61.6667 46.6315,-58 50.2982,-58 50.2982,-58 99.7018,-58 99.7018,-58 103.368,-58 107.035,-61.6667 107.035,-65.3333 107.035,-65.3333 107.035,-72.6667 107.035,-72.6667 107.035,-76.3333 103.368,-80 99.7018,-80"/>
<text text-anchor="middle" x="75" y="-65.4" font-family="Helvetica,sans-Serif" font-size="12.00" fill="white">Equatable</text>
</a>
</g>
</g>
<!-- FloatingPointClassification -->
<g id="node2" class="node"><title>FloatingPointClassification</title>
<g id="a_node2"><a xlink:href="/type/FloatingPointClassification/" xlink:title="FloatingPointClassification">
<polygon fill="#ee543d" stroke="#ee543d" points="150.053,-22 -0.0527977,-22 -0.0527977,-0 150.053,-0 150.053,-22"/>
<text text-anchor="middle" x="75" y="-7.4" font-family="Helvetica,sans-Serif" font-size="12.00" fill="white">FloatingPointClassification</text>
</a>
</g>
</g>
<!-- Equatable&#45;&gt;FloatingPointClassification -->
<g id="edge1" class="edge"><title>Equatable&#45;&gt;FloatingPointClassification</title>
<path fill="none" stroke="#cccccc" d="M75,-57.9883C75,-50.9098 75,-41.1714 75,-32.4779"/>
<polygon fill="#cccccc" stroke="#cccccc" points="78.5001,-32.3038 75,-22.3039 71.5001,-32.3039 78.5001,-32.3038"/>
</g>
</g>
</svg>
