<?xml version="1.0" encoding="UTF-8" standalone="no"?>
<!DOCTYPE svg PUBLIC "-//W3C//DTD SVG 1.1//EN"
 "http://www.w3.org/Graphics/SVG/1.1/DTD/svg11.dtd">
<!-- Generated by graphviz version 2.36.0 (20140111.2315)
 -->
<!-- Title: ArraySlice&lt;T&gt; &#45; Type Hierarchy &#45; SwiftDoc.org Pages: 1 -->
<svg width="770pt" height="601pt"
 viewBox="0.00 0.00 769.94 601.20" xmlns="http://www.w3.org/2000/svg" xmlns:xlink="http://www.w3.org/1999/xlink">
<g id="graph0" class="graph" transform="scale(1 1) rotate(0) translate(7.2 543.6)">
<title>ArraySlice&lt;T&gt; &#45; Type Hierarchy &#45; SwiftDoc.org</title>
<polygon fill="white" stroke="none" points="-7.2,57.6 -7.2,-543.6 762.738,-543.6 762.738,57.6 -7.2,57.6"/>
<!-- ArrayLiteralConvertible -->
<g id="node1" class="node"><title>ArrayLiteralConvertible</title>
<g id="a_node1"><a xlink:href="/protocol/ArrayLiteralConvertible/" xlink:title="ArrayLiteralConvertible">
<path fill="#999999" stroke="#999999" d="M323.242,-138C323.242,-138 205.833,-138 205.833,-138 202.166,-138 198.499,-134.333 198.499,-130.667 198.499,-130.667 198.499,-123.333 198.499,-123.333 198.499,-119.667 202.166,-116 205.833,-116 205.833,-116 323.242,-116 323.242,-116 326.909,-116 330.576,-119.667 330.576,-123.333 330.576,-123.333 330.576,-130.667 330.576,-130.667 330.576,-134.333 326.909,-138 323.242,-138"/>
<text text-anchor="middle" x="264.538" y="-123.4" font-family="Helvetica,sans-Serif" font-size="12.00" fill="white">ArrayLiteralConvertible</text>
</a>
</g>
</g>
<!-- ArraySlice&lt;T&gt; -->
<g id="node2" class="node"><title>ArraySlice&lt;T&gt;</title>
<g id="a_node2"><a xlink:href="/type/ArraySlice/" xlink:title="ArraySlice&lt;T&gt;">
<polygon fill="#ee543d" stroke="#ee543d" points="315.557,-22 229.519,-22 229.519,-0 315.557,-0 315.557,-22"/>
<text text-anchor="middle" x="272.538" y="-7.4" font-family="Helvetica,sans-Serif" font-size="12.00" fill="white">ArraySlice&lt;T&gt;</text>
</a>
</g>
</g>
<!-- ArrayLiteralConvertible&#45;&gt;ArraySlice&lt;T&gt; -->
<g id="edge5" class="edge"><title>ArrayLiteralConvertible&#45;&gt;ArraySlice&lt;T&gt;</title>
<path fill="none" stroke="#cccccc" d="M215.912,-115.964C177.251,-105.61 132.689,-86.8657 152.538,-58 167.648,-36.0246 194.81,-24.5421 219.474,-18.5447"/>
<polygon fill="#cccccc" stroke="#cccccc" points="220.461,-21.9118 229.488,-16.365 218.973,-15.0719 220.461,-21.9118"/>
</g>
<!-- _ArrayType -->
<g id="node13" class="node"><title>_ArrayType</title>
<g id="a_node13"><a xlink:href="/protocol/_ArrayType/" xlink:title="_ArrayType">
<path fill="#999999" stroke="#999999" d="M427.727,-80C427.727,-80 371.348,-80 371.348,-80 367.681,-80 364.014,-76.3333 364.014,-72.6667 364.014,-72.6667 364.014,-65.3333 364.014,-65.3333 364.014,-61.6667 367.681,-58 371.348,-58 371.348,-58 427.727,-58 427.727,-58 431.394,-58 435.061,-61.6667 435.061,-65.3333 435.061,-65.3333 435.061,-72.6667 435.061,-72.6667 435.061,-76.3333 431.394,-80 427.727,-80"/>
<text text-anchor="middle" x="399.538" y="-65.4" font-family="Helvetica,sans-Serif" font-size="12.00" fill="white">_ArrayType</text>
</a>
</g>
</g>
<!-- ArrayLiteralConvertible&#45;&gt;_ArrayType -->
<g id="edge22" class="edge"><title>ArrayLiteralConvertible&#45;&gt;_ArrayType</title>
<path fill="none" stroke="#cccccc" d="M288.673,-115.988C310.137,-107.085 341.745,-93.9733 365.725,-84.0259"/>
<polygon fill="#cccccc" stroke="#cccccc" points="367.26,-87.1783 375.156,-80.1138 364.578,-80.7126 367.26,-87.1783"/>
</g>
<!-- CollectionType -->
<g id="node3" class="node"><title>CollectionType</title>
<g id="a_node3"><a xlink:href="/protocol/CollectionType/" xlink:title="CollectionType">
<path fill="#999999" stroke="#999999" d="M521.241,-312C521.241,-312 447.834,-312 447.834,-312 444.167,-312 440.5,-308.333 440.5,-304.667 440.5,-304.667 440.5,-297.333 440.5,-297.333 440.5,-293.667 444.167,-290 447.834,-290 447.834,-290 521.241,-290 521.241,-290 524.908,-290 528.575,-293.667 528.575,-297.333 528.575,-297.333 528.575,-304.667 528.575,-304.667 528.575,-308.333 524.908,-312 521.241,-312"/>
<text text-anchor="middle" x="484.538" y="-297.4" font-family="Helvetica,sans-Serif" font-size="12.00" fill="white">CollectionType</text>
</a>
</g>
</g>
<!-- MutableCollectionType -->
<g id="node6" class="node"><title>MutableCollectionType</title>
<g id="a_node6"><a xlink:href="/protocol/MutableCollectionType/" xlink:title="MutableCollectionType">
<path fill="#999999" stroke="#999999" d="M362.758,-196C362.758,-196 246.317,-196 246.317,-196 242.65,-196 238.983,-192.333 238.983,-188.667 238.983,-188.667 238.983,-181.333 238.983,-181.333 238.983,-177.667 242.65,-174 246.317,-174 246.317,-174 362.758,-174 362.758,-174 366.425,-174 370.092,-177.667 370.092,-181.333 370.092,-181.333 370.092,-188.667 370.092,-188.667 370.092,-192.333 366.425,-196 362.758,-196"/>
<text text-anchor="middle" x="304.538" y="-181.4" font-family="Helvetica,sans-Serif" font-size="12.00" fill="white">MutableCollectionType</text>
</a>
</g>
</g>
<!-- CollectionType&#45;&gt;MutableCollectionType -->
<g id="edge10" class="edge"><title>CollectionType&#45;&gt;MutableCollectionType</title>
<path fill="none" stroke="#cccccc" d="M453.616,-289.922C431.451,-281.949 401.417,-269.576 377.538,-254 355.75,-239.788 334.401,-218.847 320.476,-203.964"/>
<polygon fill="#cccccc" stroke="#cccccc" points="322.883,-201.41 313.547,-196.4 317.721,-206.139 322.883,-201.41"/>
</g>
<!-- _ExtensibleCollectionType -->
<g id="node16" class="node"><title>_ExtensibleCollectionType</title>
<g id="a_node16"><a xlink:href="/protocol/_ExtensibleCollectionType/" xlink:title="_ExtensibleCollectionType">
<path fill="#999999" stroke="#999999" d="M622.27,-254C622.27,-254 486.805,-254 486.805,-254 483.138,-254 479.472,-250.333 479.472,-246.667 479.472,-246.667 479.472,-239.333 479.472,-239.333 479.472,-235.667 483.138,-232 486.805,-232 486.805,-232 622.27,-232 622.27,-232 625.937,-232 629.604,-235.667 629.604,-239.333 629.604,-239.333 629.604,-246.667 629.604,-246.667 629.604,-250.333 625.937,-254 622.27,-254"/>
<text text-anchor="middle" x="554.538" y="-239.4" font-family="Helvetica,sans-Serif" font-size="12.00" fill="white">_ExtensibleCollectionType</text>
</a>
</g>
</g>
<!-- CollectionType&#45;&gt;_ExtensibleCollectionType -->
<g id="edge25" class="edge"><title>CollectionType&#45;&gt;_ExtensibleCollectionType</title>
<path fill="none" stroke="#cccccc" d="M497.052,-289.988C507.178,-281.887 521.659,-270.303 533.553,-260.787"/>
<polygon fill="#cccccc" stroke="#cccccc" points="536.035,-263.284 541.658,-254.304 531.663,-257.818 536.035,-263.284"/>
</g>
<!-- _Sliceable -->
<g id="node19" class="node"><title>_Sliceable</title>
<g id="a_node19"><a xlink:href="/protocol/_Sliceable/" xlink:title="_Sliceable">
<path fill="#999999" stroke="#999999" d="M444.732,-254C444.732,-254 394.343,-254 394.343,-254 390.677,-254 387.01,-250.333 387.01,-246.667 387.01,-246.667 387.01,-239.333 387.01,-239.333 387.01,-235.667 390.677,-232 394.343,-232 394.343,-232 444.732,-232 444.732,-232 448.398,-232 452.065,-235.667 452.065,-239.333 452.065,-239.333 452.065,-246.667 452.065,-246.667 452.065,-250.333 448.398,-254 444.732,-254"/>
<text text-anchor="middle" x="419.538" y="-239.4" font-family="Helvetica,sans-Serif" font-size="12.00" fill="white">_Sliceable</text>
</a>
</g>
</g>
<!-- CollectionType&#45;&gt;_Sliceable -->
<g id="edge17" class="edge"><title>CollectionType&#45;&gt;_Sliceable</title>
<path fill="none" stroke="#cccccc" d="M472.917,-289.988C463.605,-281.966 450.328,-270.527 439.345,-261.065"/>
<polygon fill="#cccccc" stroke="#cccccc" points="441.358,-258.179 431.497,-254.304 436.789,-263.483 441.358,-258.179"/>
</g>
<!-- DebugPrintable -->
<g id="node4" class="node"><title>DebugPrintable</title>
<g id="a_node4"><a xlink:href="/protocol/DebugPrintable/" xlink:title="DebugPrintable">
<path fill="#999999" stroke="#999999" d="M98.2472,-80C98.2472,-80 20.828,-80 20.828,-80 17.1613,-80 13.4946,-76.3333 13.4946,-72.6667 13.4946,-72.6667 13.4946,-65.3333 13.4946,-65.3333 13.4946,-61.6667 17.1613,-58 20.828,-58 20.828,-58 98.2472,-58 98.2472,-58 101.914,-58 105.581,-61.6667 105.581,-65.3333 105.581,-65.3333 105.581,-72.6667 105.581,-72.6667 105.581,-76.3333 101.914,-80 98.2472,-80"/>
<text text-anchor="middle" x="59.5376" y="-65.4" font-family="Helvetica,sans-Serif" font-size="12.00" fill="white">DebugPrintable</text>
</a>
</g>
</g>
<!-- DebugPrintable&#45;&gt;ArraySlice&lt;T&gt; -->
<g id="edge9" class="edge"><title>DebugPrintable&#45;&gt;ArraySlice&lt;T&gt;</title>
<path fill="none" stroke="#cccccc" d="M97.6177,-57.9883C133.098,-48.6603 186.146,-34.7132 224.517,-24.6252"/>
<polygon fill="#cccccc" stroke="#cccccc" points="225.647,-27.947 234.429,-22.0192 223.867,-21.1771 225.647,-27.947"/>
</g>
<!-- ExtensibleCollectionType -->
<g id="node5" class="node"><title>ExtensibleCollectionType</title>
<g id="a_node5"><a xlink:href="/protocol/ExtensibleCollectionType/" xlink:title="ExtensibleCollectionType">
<path fill="#999999" stroke="#999999" d="M625.264,-196C625.264,-196 495.811,-196 495.811,-196 492.144,-196 488.478,-192.333 488.478,-188.667 488.478,-188.667 488.478,-181.333 488.478,-181.333 488.478,-177.667 492.144,-174 495.811,-174 495.811,-174 625.264,-174 625.264,-174 628.931,-174 632.598,-177.667 632.598,-181.333 632.598,-181.333 632.598,-188.667 632.598,-188.667 632.598,-192.333 628.931,-196 625.264,-196"/>
<text text-anchor="middle" x="560.538" y="-181.4" font-family="Helvetica,sans-Serif" font-size="12.00" fill="white">ExtensibleCollectionType</text>
</a>
</g>
</g>
<!-- RangeReplaceableCollectionType -->
<g id="node9" class="node"><title>RangeReplaceableCollectionType</title>
<g id="a_node9"><a xlink:href="/protocol/RangeReplaceableCollectionType/" xlink:title="RangeReplaceableCollectionType">
<path fill="#999999" stroke="#999999" d="M651.298,-138C651.298,-138 475.777,-138 475.777,-138 472.111,-138 468.444,-134.333 468.444,-130.667 468.444,-130.667 468.444,-123.333 468.444,-123.333 468.444,-119.667 472.111,-116 475.777,-116 475.777,-116 651.298,-116 651.298,-116 654.965,-116 658.631,-119.667 658.631,-123.333 658.631,-123.333 658.631,-130.667 658.631,-130.667 658.631,-134.333 654.965,-138 651.298,-138"/>
<text text-anchor="middle" x="563.538" y="-123.4" font-family="Helvetica,sans-Serif" font-size="12.00" fill="white">RangeReplaceableCollectionType</text>
</a>
</g>
</g>
<!-- ExtensibleCollectionType&#45;&gt;RangeReplaceableCollectionType -->
<g id="edge23" class="edge"><title>ExtensibleCollectionType&#45;&gt;RangeReplaceableCollectionType</title>
<path fill="none" stroke="#cccccc" d="M561.074,-173.988C561.453,-166.91 561.975,-157.171 562.441,-148.478"/>
<polygon fill="#cccccc" stroke="#cccccc" points="565.946,-148.477 562.986,-138.304 558.956,-148.102 565.946,-148.477"/>
</g>
<!-- MutableCollectionType&#45;&gt;ArraySlice&lt;T&gt; -->
<g id="edge1" class="edge"><title>MutableCollectionType&#45;&gt;ArraySlice&lt;T&gt;</title>
<path fill="none" stroke="#cccccc" d="M238.94,-182.445C167.508,-176.781 56.5205,-155.474 4.53758,-80 -1.00864,-71.9474 -1.76447,-65.4759 4.53758,-58 31.4168,-26.1141 148.847,-16.3302 219.037,-13.3284"/>
<polygon fill="#cccccc" stroke="#cccccc" points="219.6,-16.809 229.454,-12.9176 219.324,-9.81442 219.6,-16.809"/>
</g>
<!-- MutableSliceable -->
<g id="node7" class="node"><title>MutableSliceable</title>
<g id="a_node7"><a xlink:href="/protocol/MutableSliceable/" xlink:title="MutableSliceable">
<path fill="#999999" stroke="#999999" d="M442.745,-138C442.745,-138 356.33,-138 356.33,-138 352.663,-138 348.997,-134.333 348.997,-130.667 348.997,-130.667 348.997,-123.333 348.997,-123.333 348.997,-119.667 352.663,-116 356.33,-116 356.33,-116 442.745,-116 442.745,-116 446.412,-116 450.078,-119.667 450.078,-123.333 450.078,-123.333 450.078,-130.667 450.078,-130.667 450.078,-134.333 446.412,-138 442.745,-138"/>
<text text-anchor="middle" x="399.538" y="-123.4" font-family="Helvetica,sans-Serif" font-size="12.00" fill="white">MutableSliceable</text>
</a>
</g>
</g>
<!-- MutableCollectionType&#45;&gt;MutableSliceable -->
<g id="edge27" class="edge"><title>MutableCollectionType&#45;&gt;MutableSliceable</title>
<path fill="none" stroke="#cccccc" d="M321.522,-173.988C336.022,-165.441 357.101,-153.015 373.694,-143.234"/>
<polygon fill="#cccccc" stroke="#cccccc" points="375.543,-146.207 382.38,-138.114 371.988,-140.177 375.543,-146.207"/>
</g>
<!-- MutableSliceable&#45;&gt;_ArrayType -->
<g id="edge21" class="edge"><title>MutableSliceable&#45;&gt;_ArrayType</title>
<path fill="none" stroke="#cccccc" d="M399.538,-115.988C399.538,-108.91 399.538,-99.1714 399.538,-90.4779"/>
<polygon fill="#cccccc" stroke="#cccccc" points="403.038,-90.3038 399.538,-80.3039 396.038,-90.3039 403.038,-90.3038"/>
</g>
<!-- Printable -->
<g id="node8" class="node"><title>Printable</title>
<g id="a_node8"><a xlink:href="/protocol/Printable/" xlink:title="Printable">
<path fill="#999999" stroke="#999999" d="M211.724,-80C211.724,-80 169.351,-80 169.351,-80 165.684,-80 162.018,-76.3333 162.018,-72.6667 162.018,-72.6667 162.018,-65.3333 162.018,-65.3333 162.018,-61.6667 165.684,-58 169.351,-58 169.351,-58 211.724,-58 211.724,-58 215.391,-58 219.058,-61.6667 219.058,-65.3333 219.058,-65.3333 219.058,-72.6667 219.058,-72.6667 219.058,-76.3333 215.391,-80 211.724,-80"/>
<text text-anchor="middle" x="190.538" y="-65.4" font-family="Helvetica,sans-Serif" font-size="12.00" fill="white">Printable</text>
</a>
</g>
</g>
<!-- Printable&#45;&gt;ArraySlice&lt;T&gt; -->
<g id="edge8" class="edge"><title>Printable&#45;&gt;ArraySlice&lt;T&gt;</title>
<path fill="none" stroke="#cccccc" d="M205.198,-57.9883C217.481,-49.5993 235.236,-37.4743 249.431,-27.7804"/>
<polygon fill="#cccccc" stroke="#cccccc" points="251.444,-30.6438 257.728,-22.1138 247.496,-24.8632 251.444,-30.6438"/>
</g>
<!-- RangeReplaceableCollectionType&#45;&gt;_ArrayType -->
<g id="edge20" class="edge"><title>RangeReplaceableCollectionType&#45;&gt;_ArrayType</title>
<path fill="none" stroke="#cccccc" d="M534.218,-115.988C507.481,-106.859 467.787,-93.3046 438.412,-83.2743"/>
<polygon fill="#cccccc" stroke="#cccccc" points="439.474,-79.9385 428.88,-80.0192 437.212,-86.563 439.474,-79.9385"/>
</g>
<!-- Reflectable -->
<g id="node10" class="node"><title>Reflectable</title>
<g id="a_node10"><a xlink:href="/protocol/Reflectable/" xlink:title="Reflectable">
<path fill="#999999" stroke="#999999" d="M300.231,-80C300.231,-80 244.845,-80 244.845,-80 241.178,-80 237.511,-76.3333 237.511,-72.6667 237.511,-72.6667 237.511,-65.3333 237.511,-65.3333 237.511,-61.6667 241.178,-58 244.845,-58 244.845,-58 300.231,-58 300.231,-58 303.897,-58 307.564,-61.6667 307.564,-65.3333 307.564,-65.3333 307.564,-72.6667 307.564,-72.6667 307.564,-76.3333 303.897,-80 300.231,-80"/>
<text text-anchor="middle" x="272.538" y="-65.4" font-family="Helvetica,sans-Serif" font-size="12.00" fill="white">Reflectable</text>
</a>
</g>
</g>
<!-- Reflectable&#45;&gt;ArraySlice&lt;T&gt; -->
<g id="edge7" class="edge"><title>Reflectable&#45;&gt;ArraySlice&lt;T&gt;</title>
<path fill="none" stroke="#cccccc" d="M272.538,-57.9883C272.538,-50.9098 272.538,-41.1714 272.538,-32.4779"/>
<polygon fill="#cccccc" stroke="#cccccc" points="276.038,-32.3038 272.538,-22.3039 269.038,-32.3039 276.038,-32.3038"/>
</g>
<!-- SequenceType -->
<g id="node11" class="node"><title>SequenceType</title>
<g id="a_node11"><a xlink:href="/protocol/SequenceType/" xlink:title="SequenceType">
<path fill="#999999" stroke="#999999" d="M522.256,-370C522.256,-370 446.82,-370 446.82,-370 443.153,-370 439.486,-366.333 439.486,-362.667 439.486,-362.667 439.486,-355.333 439.486,-355.333 439.486,-351.667 443.153,-348 446.82,-348 446.82,-348 522.256,-348 522.256,-348 525.922,-348 529.589,-351.667 529.589,-355.333 529.589,-355.333 529.589,-362.667 529.589,-362.667 529.589,-366.333 525.922,-370 522.256,-370"/>
<text text-anchor="middle" x="484.538" y="-355.4" font-family="Helvetica,sans-Serif" font-size="12.00" fill="white">SequenceType</text>
</a>
</g>
</g>
<!-- SequenceType&#45;&gt;CollectionType -->
<g id="edge12" class="edge"><title>SequenceType&#45;&gt;CollectionType</title>
<path fill="none" stroke="#cccccc" d="M484.538,-347.988C484.538,-340.91 484.538,-331.171 484.538,-322.478"/>
<polygon fill="#cccccc" stroke="#cccccc" points="488.038,-322.304 484.538,-312.304 481.038,-322.304 488.038,-322.304"/>
</g>
<!-- Sliceable -->
<g id="node12" class="node"><title>Sliceable</title>
<g id="a_node12"><a xlink:href="/protocol/Sliceable/" xlink:title="Sliceable">
<path fill="#999999" stroke="#999999" d="M439.229,-196C439.229,-196 395.846,-196 395.846,-196 392.18,-196 388.513,-192.333 388.513,-188.667 388.513,-188.667 388.513,-181.333 388.513,-181.333 388.513,-177.667 392.18,-174 395.846,-174 395.846,-174 439.229,-174 439.229,-174 442.896,-174 446.562,-177.667 446.562,-181.333 446.562,-181.333 446.562,-188.667 446.562,-188.667 446.562,-192.333 442.896,-196 439.229,-196"/>
<text text-anchor="middle" x="417.538" y="-181.4" font-family="Helvetica,sans-Serif" font-size="12.00" fill="white">Sliceable</text>
</a>
</g>
</g>
<!-- Sliceable&#45;&gt;ArraySlice&lt;T&gt; -->
<g id="edge2" class="edge"><title>Sliceable&#45;&gt;ArraySlice&lt;T&gt;</title>
<path fill="none" stroke="#cccccc" d="M388.198,-176.267C384.945,-175.472 381.676,-174.7 378.538,-174 295.081,-155.372 244.053,-203.879 189.538,-138 183.304,-130.467 183.641,-123.8 189.538,-116 224.916,-69.199 281.159,-126.801 316.538,-80 329.29,-63.1305 311.874,-42.6137 295.335,-28.5569"/>
<polygon fill="#cccccc" stroke="#cccccc" points="297.415,-25.7388 287.422,-22.2194 293.039,-31.2025 297.415,-25.7388"/>
</g>
<!-- Sliceable&#45;&gt;MutableSliceable -->
<g id="edge26" class="edge"><title>Sliceable&#45;&gt;MutableSliceable</title>
<path fill="none" stroke="#cccccc" d="M414.32,-173.988C411.994,-166.752 408.775,-156.737 405.934,-147.9"/>
<polygon fill="#cccccc" stroke="#cccccc" points="409.242,-146.753 402.85,-138.304 402.578,-148.895 409.242,-146.753"/>
</g>
<!-- _ArrayType&#45;&gt;ArraySlice&lt;T&gt; -->
<g id="edge6" class="edge"><title>_ArrayType&#45;&gt;ArraySlice&lt;T&gt;</title>
<path fill="none" stroke="#cccccc" d="M376.833,-57.9883C356.73,-49.1244 327.17,-36.0897 304.648,-26.1587"/>
<polygon fill="#cccccc" stroke="#cccccc" points="306.036,-22.946 295.474,-22.1138 303.212,-29.351 306.036,-22.946"/>
</g>
<!-- _CollectionType -->
<g id="node14" class="node"><title>_CollectionType</title>
<g id="a_node14"><a xlink:href="/protocol/_CollectionType/" xlink:title="_CollectionType">
<path fill="#999999" stroke="#999999" d="M635.745,-370C635.745,-370 555.33,-370 555.33,-370 551.663,-370 547.997,-366.333 547.997,-362.667 547.997,-362.667 547.997,-355.333 547.997,-355.333 547.997,-351.667 551.663,-348 555.33,-348 555.33,-348 635.745,-348 635.745,-348 639.412,-348 643.078,-351.667 643.078,-355.333 643.078,-355.333 643.078,-362.667 643.078,-362.667 643.078,-366.333 639.412,-370 635.745,-370"/>
<text text-anchor="middle" x="595.538" y="-355.4" font-family="Helvetica,sans-Serif" font-size="12.00" fill="white">_CollectionType</text>
</a>
</g>
</g>
<!-- _CollectionType&#45;&gt;CollectionType -->
<g id="edge11" class="edge"><title>_CollectionType&#45;&gt;CollectionType</title>
<path fill="none" stroke="#cccccc" d="M575.693,-347.988C558.437,-339.283 533.207,-326.554 513.663,-316.694"/>
<polygon fill="#cccccc" stroke="#cccccc" points="515.089,-313.493 504.585,-312.114 511.936,-319.743 515.089,-313.493"/>
</g>
<!-- __ArrayType -->
<g id="node20" class="node"><title>__ArrayType</title>
<g id="a_node20"><a xlink:href="/protocol/__ArrayType/" xlink:title="__ArrayType">
<path fill="#999999" stroke="#999999" d="M747.234,-138C747.234,-138 683.842,-138 683.842,-138 680.175,-138 676.508,-134.333 676.508,-130.667 676.508,-130.667 676.508,-123.333 676.508,-123.333 676.508,-119.667 680.175,-116 683.842,-116 683.842,-116 747.234,-116 747.234,-116 750.9,-116 754.567,-119.667 754.567,-123.333 754.567,-123.333 754.567,-130.667 754.567,-130.667 754.567,-134.333 750.9,-138 747.234,-138"/>
<text text-anchor="middle" x="715.538" y="-123.4" font-family="Helvetica,sans-Serif" font-size="12.00" fill="white">__ArrayType</text>
</a>
</g>
</g>
<!-- _CollectionType&#45;&gt;__ArrayType -->
<g id="edge18" class="edge"><title>_CollectionType&#45;&gt;__ArrayType</title>
<path fill="none" stroke="#cccccc" d="M600.849,-347.82C619.358,-312.345 681.213,-193.788 705.565,-147.114"/>
<polygon fill="#cccccc" stroke="#cccccc" points="708.765,-148.547 710.288,-138.062 702.559,-145.309 708.765,-148.547"/>
</g>
<!-- _DestructorSafeContainer -->
<g id="node15" class="node"><title>_DestructorSafeContainer</title>
<g id="a_node15"><a xlink:href="/protocol/_DestructorSafeContainer/" xlink:title="_DestructorSafeContainer">
<path fill="#999999" stroke="#999999" d="M594.259,-80C594.259,-80 460.817,-80 460.817,-80 457.15,-80 453.483,-76.3333 453.483,-72.6667 453.483,-72.6667 453.483,-65.3333 453.483,-65.3333 453.483,-61.6667 457.15,-58 460.817,-58 460.817,-58 594.259,-58 594.259,-58 597.925,-58 601.592,-61.6667 601.592,-65.3333 601.592,-65.3333 601.592,-72.6667 601.592,-72.6667 601.592,-76.3333 597.925,-80 594.259,-80"/>
<text text-anchor="middle" x="527.538" y="-65.4" font-family="Helvetica,sans-Serif" font-size="12.00" fill="white">_DestructorSafeContainer</text>
</a>
</g>
</g>
<!-- _DestructorSafeContainer&#45;&gt;ArraySlice&lt;T&gt; -->
<g id="edge3" class="edge"><title>_DestructorSafeContainer&#45;&gt;ArraySlice&lt;T&gt;</title>
<path fill="none" stroke="#cccccc" d="M481.949,-57.9883C438.039,-48.3455 371.653,-33.7666 325.438,-23.6174"/>
<polygon fill="#cccccc" stroke="#cccccc" points="326.126,-20.1851 315.608,-21.4586 324.624,-27.0221 326.126,-20.1851"/>
</g>
<!-- _ExtensibleCollectionType&#45;&gt;ExtensibleCollectionType -->
<g id="edge24" class="edge"><title>_ExtensibleCollectionType&#45;&gt;ExtensibleCollectionType</title>
<path fill="none" stroke="#cccccc" d="M555.61,-231.988C556.369,-224.91 557.412,-215.171 558.344,-206.478"/>
<polygon fill="#cccccc" stroke="#cccccc" points="561.848,-206.62 559.434,-196.304 554.888,-205.874 561.848,-206.62"/>
</g>
<!-- _SequenceType -->
<g id="node17" class="node"><title>_SequenceType</title>
<g id="a_node17"><a xlink:href="/protocol/_SequenceType/" xlink:title="_SequenceType">
<path fill="#999999" stroke="#999999" d="M584.262,-486C584.262,-486 502.813,-486 502.813,-486 499.147,-486 495.48,-482.333 495.48,-478.667 495.48,-478.667 495.48,-471.333 495.48,-471.333 495.48,-467.667 499.147,-464 502.813,-464 502.813,-464 584.262,-464 584.262,-464 587.928,-464 591.595,-467.667 591.595,-471.333 591.595,-471.333 591.595,-478.667 591.595,-478.667 591.595,-482.333 587.928,-486 584.262,-486"/>
<text text-anchor="middle" x="543.538" y="-471.4" font-family="Helvetica,sans-Serif" font-size="12.00" fill="white">_SequenceType</text>
</a>
</g>
</g>
<!-- _SequenceType&#45;&gt;_CollectionType -->
<g id="edge13" class="edge"><title>_SequenceType&#45;&gt;_CollectionType</title>
<path fill="none" stroke="#cccccc" d="M548.152,-463.883C556.765,-445.002 575.423,-404.098 586.585,-379.627"/>
<polygon fill="#cccccc" stroke="#cccccc" points="589.893,-380.809 590.859,-370.258 583.524,-377.904 589.893,-380.809"/>
</g>
<!-- _Sequence_Type -->
<g id="node18" class="node"><title>_Sequence_Type</title>
<g id="a_node18"><a xlink:href="/protocol/_Sequence_Type/" xlink:title="_Sequence_Type">
<path fill="#999999" stroke="#999999" d="M543.766,-428C543.766,-428 455.309,-428 455.309,-428 451.643,-428 447.976,-424.333 447.976,-420.667 447.976,-420.667 447.976,-413.333 447.976,-413.333 447.976,-409.667 451.643,-406 455.309,-406 455.309,-406 543.766,-406 543.766,-406 547.432,-406 551.099,-409.667 551.099,-413.333 551.099,-413.333 551.099,-420.667 551.099,-420.667 551.099,-424.333 547.432,-428 543.766,-428"/>
<text text-anchor="middle" x="499.538" y="-413.4" font-family="Helvetica,sans-Serif" font-size="12.00" fill="white">_Sequence_Type</text>
</a>
</g>
</g>
<!-- _SequenceType&#45;&gt;_Sequence_Type -->
<g id="edge15" class="edge"><title>_SequenceType&#45;&gt;_Sequence_Type</title>
<path fill="none" stroke="#cccccc" d="M535.671,-463.988C529.615,-456.281 521.081,-445.419 513.827,-436.187"/>
<polygon fill="#cccccc" stroke="#cccccc" points="516.564,-434.005 507.633,-428.304 511.06,-438.329 516.564,-434.005"/>
</g>
<!-- _Sequence_Type&#45;&gt;SequenceType -->
<g id="edge14" class="edge"><title>_Sequence_Type&#45;&gt;SequenceType</title>
<path fill="none" stroke="#cccccc" d="M496.856,-405.988C494.939,-398.831 492.293,-388.955 489.945,-380.189"/>
<polygon fill="#cccccc" stroke="#cccccc" points="493.266,-379.058 487.298,-370.304 486.504,-380.869 493.266,-379.058"/>
</g>
<!-- _Sliceable&#45;&gt;Sliceable -->
<g id="edge16" class="edge"><title>_Sliceable&#45;&gt;Sliceable</title>
<path fill="none" stroke="#cccccc" d="M419.18,-231.988C418.927,-224.91 418.579,-215.171 418.269,-206.478"/>
<polygon fill="#cccccc" stroke="#cccccc" points="421.76,-206.173 417.906,-196.304 414.765,-206.422 421.76,-206.173"/>
</g>
<!-- __ArrayType&#45;&gt;ArraySlice&lt;T&gt; -->
<g id="edge4" class="edge"><title>__ArrayType&#45;&gt;ArraySlice&lt;T&gt;</title>
<path fill="none" stroke="#cccccc" d="M703.884,-115.935C685.446,-100.626 647.804,-71.814 610.538,-58 514.409,-22.3667 393.729,-13.8908 325.66,-12.1376"/>
<polygon fill="#cccccc" stroke="#cccccc" points="325.677,-8.63726 315.603,-11.918 325.524,-15.6356 325.677,-8.63726"/>
</g>
<!-- __ArrayType&#45;&gt;_ArrayType -->
<g id="edge19" class="edge"><title>__ArrayType&#45;&gt;_ArrayType</title>
<path fill="none" stroke="#cccccc" d="M676.273,-117.669C673.32,-117.088 670.384,-116.526 667.538,-116 571.9,-98.3275 544.813,-98.8451 445.228,-80.0404"/>
<polygon fill="#cccccc" stroke="#cccccc" points="445.838,-76.5938 435.36,-78.1591 444.527,-83.47 445.838,-76.5938"/>
</g>
</g>
</svg>
