<?xml version="1.0" encoding="UTF-8" standalone="no"?>
<!DOCTYPE svg PUBLIC "-//W3C//DTD SVG 1.1//EN"
 "http://www.w3.org/Graphics/SVG/1.1/DTD/svg11.dtd">
<!-- Generated by graphviz version 2.36.0 (20140111.2315)
 -->
<!-- Title: String.UnicodeScalarView &#45; Type Hierarchy &#45; SwiftDoc.org Pages: 1 -->
<svg width="965pt" height="427pt"
 viewBox="0.00 0.00 965.40 427.20" xmlns="http://www.w3.org/2000/svg" xmlns:xlink="http://www.w3.org/1999/xlink">
<g id="graph0" class="graph" transform="scale(1 1) rotate(0) translate(7.2 369.6)">
<title>String.UnicodeScalarView &#45; Type Hierarchy &#45; SwiftDoc.org</title>
<polygon fill="white" stroke="none" points="-7.2,57.6 -7.2,-369.6 958.2,-369.6 958.2,57.6 -7.2,57.6"/>
<!-- CollectionType -->
<g id="node1" class="node"><title>CollectionType</title>
<g id="a_node1"><a xlink:href="/protocol/CollectionType/" xlink:title="CollectionType">
<path fill="#999999" stroke="#999999" d="M752.704,-196C752.704,-196 679.296,-196 679.296,-196 675.63,-196 671.963,-192.333 671.963,-188.667 671.963,-188.667 671.963,-181.333 671.963,-181.333 671.963,-177.667 675.63,-174 679.296,-174 679.296,-174 752.704,-174 752.704,-174 756.37,-174 760.037,-177.667 760.037,-181.333 760.037,-181.333 760.037,-188.667 760.037,-188.667 760.037,-192.333 756.37,-196 752.704,-196"/>
<text text-anchor="middle" x="716" y="-181.4" font-family="Helvetica,sans-Serif" font-size="12.00" fill="white">CollectionType</text>
</a>
</g>
</g>
<!-- ExtensibleCollectionType -->
<g id="node4" class="node"><title>ExtensibleCollectionType</title>
<g id="a_node4"><a xlink:href="/protocol/ExtensibleCollectionType/" xlink:title="ExtensibleCollectionType">
<path fill="#999999" stroke="#999999" d="M719.727,-138C719.727,-138 590.273,-138 590.273,-138 586.607,-138 582.94,-134.333 582.94,-130.667 582.94,-130.667 582.94,-123.333 582.94,-123.333 582.94,-119.667 586.607,-116 590.273,-116 590.273,-116 719.727,-116 719.727,-116 723.393,-116 727.06,-119.667 727.06,-123.333 727.06,-123.333 727.06,-130.667 727.06,-130.667 727.06,-134.333 723.393,-138 719.727,-138"/>
<text text-anchor="middle" x="655" y="-123.4" font-family="Helvetica,sans-Serif" font-size="12.00" fill="white">ExtensibleCollectionType</text>
</a>
</g>
</g>
<!-- CollectionType&#45;&gt;ExtensibleCollectionType -->
<g id="edge18" class="edge"><title>CollectionType&#45;&gt;ExtensibleCollectionType</title>
<path fill="none" stroke="#cccccc" d="M705.094,-173.988C696.441,-166.045 684.14,-154.751 673.892,-145.344"/>
<polygon fill="#cccccc" stroke="#cccccc" points="675.957,-142.488 666.224,-138.304 671.223,-147.645 675.957,-142.488"/>
</g>
<!-- String.UnicodeScalarView -->
<g id="node9" class="node"><title>String.UnicodeScalarView</title>
<g id="a_node9"><a xlink:href="/type/String.UnicodeScalarView/" xlink:title="String.UnicodeScalarView">
<polygon fill="#ee543d" stroke="#ee543d" points="605.892,-22 458.108,-22 458.108,-0 605.892,-0 605.892,-22"/>
<text text-anchor="middle" x="532" y="-7.4" font-family="Helvetica,sans-Serif" font-size="12.00" fill="white">String.UnicodeScalarView</text>
</a>
</g>
</g>
<!-- CollectionType&#45;&gt;String.UnicodeScalarView -->
<g id="edge3" class="edge"><title>CollectionType&#45;&gt;String.UnicodeScalarView</title>
<path fill="none" stroke="#cccccc" d="M725.473,-173.687C745.557,-150.561 788.262,-93.7869 759,-58 740.931,-35.9022 673.085,-24.1666 616.231,-18.0963"/>
<polygon fill="#cccccc" stroke="#cccccc" points="616.427,-14.5981 606.123,-17.0631 615.715,-21.5618 616.427,-14.5981"/>
</g>
<!-- _Sliceable -->
<g id="node12" class="node"><title>_Sliceable</title>
<g id="a_node12"><a xlink:href="/protocol/_Sliceable/" xlink:title="_Sliceable">
<path fill="#999999" stroke="#999999" d="M864.194,-138C864.194,-138 813.806,-138 813.806,-138 810.139,-138 806.473,-134.333 806.473,-130.667 806.473,-130.667 806.473,-123.333 806.473,-123.333 806.473,-119.667 810.139,-116 813.806,-116 813.806,-116 864.194,-116 864.194,-116 867.861,-116 871.527,-119.667 871.527,-123.333 871.527,-123.333 871.527,-130.667 871.527,-130.667 871.527,-134.333 867.861,-138 864.194,-138"/>
<text text-anchor="middle" x="839" y="-123.4" font-family="Helvetica,sans-Serif" font-size="12.00" fill="white">_Sliceable</text>
</a>
</g>
</g>
<!-- CollectionType&#45;&gt;_Sliceable -->
<g id="edge13" class="edge"><title>CollectionType&#45;&gt;_Sliceable</title>
<path fill="none" stroke="#cccccc" d="M737.99,-173.988C757.372,-165.164 785.833,-152.206 807.609,-142.292"/>
<polygon fill="#cccccc" stroke="#cccccc" points="809.135,-145.443 816.786,-138.114 806.234,-139.072 809.135,-145.443"/>
</g>
<!-- CustomDebugStringConvertible -->
<g id="node2" class="node"><title>CustomDebugStringConvertible</title>
<g id="a_node2"><a xlink:href="/protocol/CustomDebugStringConvertible/" xlink:title="CustomDebugStringConvertible">
<path fill="#999999" stroke="#999999" d="M170.73,-80C170.73,-80 7.2704,-80 7.2704,-80 3.60373,-80 -0.0629365,-76.3333 -0.0629365,-72.6667 -0.0629365,-72.6667 -0.0629365,-65.3333 -0.0629365,-65.3333 -0.0629365,-61.6667 3.60373,-58 7.2704,-58 7.2704,-58 170.73,-58 170.73,-58 174.396,-58 178.063,-61.6667 178.063,-65.3333 178.063,-65.3333 178.063,-72.6667 178.063,-72.6667 178.063,-76.3333 174.396,-80 170.73,-80"/>
<text text-anchor="middle" x="89" y="-65.4" font-family="Helvetica,sans-Serif" font-size="12.00" fill="white">CustomDebugStringConvertible</text>
</a>
</g>
</g>
<!-- CustomDebugStringConvertible&#45;&gt;String.UnicodeScalarView -->
<g id="edge9" class="edge"><title>CustomDebugStringConvertible&#45;&gt;String.UnicodeScalarView</title>
<path fill="none" stroke="#cccccc" d="M168.2,-57.9883C246.959,-48.0323 367.344,-32.8144 447.808,-22.6428"/>
<polygon fill="#cccccc" stroke="#cccccc" points="448.424,-26.0928 457.906,-21.3662 447.546,-19.1481 448.424,-26.0928"/>
</g>
<!-- CustomStringConvertible -->
<g id="node3" class="node"><title>CustomStringConvertible</title>
<g id="a_node3"><a xlink:href="/protocol/CustomStringConvertible/" xlink:title="CustomStringConvertible">
<path fill="#999999" stroke="#999999" d="M332.208,-80C332.208,-80 203.792,-80 203.792,-80 200.126,-80 196.459,-76.3333 196.459,-72.6667 196.459,-72.6667 196.459,-65.3333 196.459,-65.3333 196.459,-61.6667 200.126,-58 203.792,-58 203.792,-58 332.208,-58 332.208,-58 335.874,-58 339.541,-61.6667 339.541,-65.3333 339.541,-65.3333 339.541,-72.6667 339.541,-72.6667 339.541,-76.3333 335.874,-80 332.208,-80"/>
<text text-anchor="middle" x="268" y="-65.4" font-family="Helvetica,sans-Serif" font-size="12.00" fill="white">CustomStringConvertible</text>
</a>
</g>
</g>
<!-- CustomStringConvertible&#45;&gt;String.UnicodeScalarView -->
<g id="edge8" class="edge"><title>CustomStringConvertible&#45;&gt;String.UnicodeScalarView</title>
<path fill="none" stroke="#cccccc" d="M315.198,-57.9883C359.922,-48.5015 427.168,-34.237 474.894,-24.1134"/>
<polygon fill="#cccccc" stroke="#cccccc" points="475.71,-27.5182 484.766,-22.0192 474.258,-20.6705 475.71,-27.5182"/>
</g>
<!-- RangeReplaceableCollectionType -->
<g id="node5" class="node"><title>RangeReplaceableCollectionType</title>
<g id="a_node5"><a xlink:href="/protocol/RangeReplaceableCollectionType/" xlink:title="RangeReplaceableCollectionType">
<path fill="#999999" stroke="#999999" d="M742.76,-80C742.76,-80 567.24,-80 567.24,-80 563.573,-80 559.906,-76.3333 559.906,-72.6667 559.906,-72.6667 559.906,-65.3333 559.906,-65.3333 559.906,-61.6667 563.573,-58 567.24,-58 567.24,-58 742.76,-58 742.76,-58 746.427,-58 750.094,-61.6667 750.094,-65.3333 750.094,-65.3333 750.094,-72.6667 750.094,-72.6667 750.094,-76.3333 746.427,-80 742.76,-80"/>
<text text-anchor="middle" x="655" y="-65.4" font-family="Helvetica,sans-Serif" font-size="12.00" fill="white">RangeReplaceableCollectionType</text>
</a>
</g>
</g>
<!-- ExtensibleCollectionType&#45;&gt;RangeReplaceableCollectionType -->
<g id="edge19" class="edge"><title>ExtensibleCollectionType&#45;&gt;RangeReplaceableCollectionType</title>
<path fill="none" stroke="#cccccc" d="M655,-115.988C655,-108.91 655,-99.1714 655,-90.4779"/>
<polygon fill="#cccccc" stroke="#cccccc" points="658.5,-90.3038 655,-80.3039 651.5,-90.3039 658.5,-90.3038"/>
</g>
<!-- ExtensibleCollectionType&#45;&gt;String.UnicodeScalarView -->
<g id="edge10" class="edge"><title>ExtensibleCollectionType&#45;&gt;String.UnicodeScalarView</title>
<path fill="none" stroke="#cccccc" d="M610.997,-115.928C590.126,-109.047 566.439,-97.8393 551,-80 539.494,-66.7055 534.917,-46.961 533.116,-32.1681"/>
<polygon fill="#cccccc" stroke="#cccccc" points="536.585,-31.6601 532.212,-22.0099 529.612,-32.281 536.585,-31.6601"/>
</g>
<!-- RangeReplaceableCollectionType&#45;&gt;String.UnicodeScalarView -->
<g id="edge11" class="edge"><title>RangeReplaceableCollectionType&#45;&gt;String.UnicodeScalarView</title>
<path fill="none" stroke="#cccccc" d="M633.01,-57.9883C613.628,-49.164 585.167,-36.206 563.391,-26.2919"/>
<polygon fill="#cccccc" stroke="#cccccc" points="564.766,-23.0721 554.214,-22.1138 561.865,-29.4429 564.766,-23.0721"/>
</g>
<!-- Reflectable -->
<g id="node6" class="node"><title>Reflectable</title>
<g id="a_node6"><a xlink:href="/protocol/Reflectable/" xlink:title="Reflectable">
<path fill="#999999" stroke="#999999" d="M420.693,-80C420.693,-80 365.307,-80 365.307,-80 361.64,-80 357.974,-76.3333 357.974,-72.6667 357.974,-72.6667 357.974,-65.3333 357.974,-65.3333 357.974,-61.6667 361.64,-58 365.307,-58 365.307,-58 420.693,-58 420.693,-58 424.36,-58 428.026,-61.6667 428.026,-65.3333 428.026,-65.3333 428.026,-72.6667 428.026,-72.6667 428.026,-76.3333 424.36,-80 420.693,-80"/>
<text text-anchor="middle" x="393" y="-65.4" font-family="Helvetica,sans-Serif" font-size="12.00" fill="white">Reflectable</text>
</a>
</g>
</g>
<!-- Reflectable&#45;&gt;String.UnicodeScalarView -->
<g id="edge7" class="edge"><title>Reflectable&#45;&gt;String.UnicodeScalarView</title>
<path fill="none" stroke="#cccccc" d="M417.85,-57.9883C440.048,-49.0453 472.784,-35.8566 497.514,-25.8935"/>
<polygon fill="#cccccc" stroke="#cccccc" points="498.928,-29.0972 506.896,-22.1138 496.313,-22.6043 498.928,-29.0972"/>
</g>
<!-- SequenceType -->
<g id="node7" class="node"><title>SequenceType</title>
<g id="a_node7"><a xlink:href="/protocol/SequenceType/" xlink:title="SequenceType">
<path fill="#999999" stroke="#999999" d="M592.718,-312C592.718,-312 517.282,-312 517.282,-312 513.615,-312 509.949,-308.333 509.949,-304.667 509.949,-304.667 509.949,-297.333 509.949,-297.333 509.949,-293.667 513.615,-290 517.282,-290 517.282,-290 592.718,-290 592.718,-290 596.385,-290 600.051,-293.667 600.051,-297.333 600.051,-297.333 600.051,-304.667 600.051,-304.667 600.051,-308.333 596.385,-312 592.718,-312"/>
<text text-anchor="middle" x="555" y="-297.4" font-family="Helvetica,sans-Serif" font-size="12.00" fill="white">SequenceType</text>
</a>
</g>
</g>
<!-- SequenceType&#45;&gt;CollectionType -->
<g id="edge14" class="edge"><title>SequenceType&#45;&gt;CollectionType</title>
<path fill="none" stroke="#cccccc" d="M573.779,-289.992C589.897,-281.154 613.537,-267.592 633,-254 656.02,-237.924 680.705,-217.206 697.115,-202.884"/>
<polygon fill="#cccccc" stroke="#cccccc" points="699.698,-205.273 704.889,-196.037 695.071,-200.02 699.698,-205.273"/>
</g>
<!-- SequenceType&#45;&gt;String.UnicodeScalarView -->
<g id="edge4" class="edge"><title>SequenceType&#45;&gt;String.UnicodeScalarView</title>
<path fill="none" stroke="#cccccc" d="M526.831,-289.853C509.836,-282.38 489.021,-270.613 476,-254 456.567,-229.206 456,-217.502 456,-186 456,-186 456,-186 456,-126 456,-85.9604 488.858,-49.2878 511.364,-28.8653"/>
<polygon fill="#cccccc" stroke="#cccccc" points="513.88,-31.3155 519.108,-22.1004 509.274,-26.044 513.88,-31.3155"/>
</g>
<!-- _CollectionDefaultsType -->
<g id="node10" class="node"><title>_CollectionDefaultsType</title>
<g id="a_node10"><a xlink:href="/protocol/_CollectionDefaultsType/" xlink:title="_CollectionDefaultsType">
<path fill="#999999" stroke="#999999" d="M617.224,-254C617.224,-254 492.776,-254 492.776,-254 489.109,-254 485.443,-250.333 485.443,-246.667 485.443,-246.667 485.443,-239.333 485.443,-239.333 485.443,-235.667 489.109,-232 492.776,-232 492.776,-232 617.224,-232 617.224,-232 620.891,-232 624.557,-235.667 624.557,-239.333 624.557,-239.333 624.557,-246.667 624.557,-246.667 624.557,-250.333 620.891,-254 617.224,-254"/>
<text text-anchor="middle" x="555" y="-239.4" font-family="Helvetica,sans-Serif" font-size="12.00" fill="white">_CollectionDefaultsType</text>
</a>
</g>
</g>
<!-- SequenceType&#45;&gt;_CollectionDefaultsType -->
<g id="edge17" class="edge"><title>SequenceType&#45;&gt;_CollectionDefaultsType</title>
<path fill="none" stroke="#cccccc" d="M555,-289.988C555,-282.91 555,-273.171 555,-264.478"/>
<polygon fill="#cccccc" stroke="#cccccc" points="558.5,-264.304 555,-254.304 551.5,-264.304 558.5,-264.304"/>
</g>
<!-- Sliceable -->
<g id="node8" class="node"><title>Sliceable</title>
<g id="a_node8"><a xlink:href="/protocol/Sliceable/" xlink:title="Sliceable">
<path fill="#999999" stroke="#999999" d="M894.691,-80C894.691,-80 851.309,-80 851.309,-80 847.642,-80 843.975,-76.3333 843.975,-72.6667 843.975,-72.6667 843.975,-65.3333 843.975,-65.3333 843.975,-61.6667 847.642,-58 851.309,-58 851.309,-58 894.691,-58 894.691,-58 898.358,-58 902.025,-61.6667 902.025,-65.3333 902.025,-65.3333 902.025,-72.6667 902.025,-72.6667 902.025,-76.3333 898.358,-80 894.691,-80"/>
<text text-anchor="middle" x="873" y="-65.4" font-family="Helvetica,sans-Serif" font-size="12.00" fill="white">Sliceable</text>
</a>
</g>
</g>
<!-- Sliceable&#45;&gt;String.UnicodeScalarView -->
<g id="edge1" class="edge"><title>Sliceable&#45;&gt;String.UnicodeScalarView</title>
<path fill="none" stroke="#cccccc" d="M843.919,-60.9243C839.276,-59.8849 834.515,-58.8722 830,-58 758.212,-44.1322 676.053,-31.704 616.208,-23.2725"/>
<polygon fill="#cccccc" stroke="#cccccc" points="616.441,-19.7711 606.053,-21.8498 615.47,-26.7034 616.441,-19.7711"/>
</g>
<!-- _CollectionDefaultsType&#45;&gt;CollectionType -->
<g id="edge15" class="edge"><title>_CollectionDefaultsType&#45;&gt;CollectionType</title>
<path fill="none" stroke="#cccccc" d="M583.784,-231.988C609.917,-222.898 648.661,-209.422 677.46,-199.405"/>
<polygon fill="#cccccc" stroke="#cccccc" points="678.9,-202.61 687.195,-196.019 676.6,-195.999 678.9,-202.61"/>
</g>
<!-- _CollectionDefaultsType&#45;&gt;String.UnicodeScalarView -->
<g id="edge5" class="edge"><title>_CollectionDefaultsType&#45;&gt;String.UnicodeScalarView</title>
<path fill="none" stroke="#cccccc" d="M553.593,-231.786C550.122,-206.25 541.063,-137.546 536,-80 534.591,-63.9859 533.551,-45.8052 532.885,-32.2743"/>
<polygon fill="#cccccc" stroke="#cccccc" points="536.375,-31.978 532.413,-22.1516 529.382,-32.3036 536.375,-31.978"/>
</g>
<!-- _CollectionGeneratorDefaultsType -->
<g id="node11" class="node"><title>_CollectionGeneratorDefaultsType</title>
<g id="a_node11"><a xlink:href="/protocol/_CollectionGeneratorDefaultsType/" xlink:title="_CollectionGeneratorDefaultsType">
<path fill="#999999" stroke="#999999" d="M943.246,-254C943.246,-254 764.754,-254 764.754,-254 761.087,-254 757.421,-250.333 757.421,-246.667 757.421,-246.667 757.421,-239.333 757.421,-239.333 757.421,-235.667 761.087,-232 764.754,-232 764.754,-232 943.246,-232 943.246,-232 946.913,-232 950.579,-235.667 950.579,-239.333 950.579,-239.333 950.579,-246.667 950.579,-246.667 950.579,-250.333 946.913,-254 943.246,-254"/>
<text text-anchor="middle" x="854" y="-239.4" font-family="Helvetica,sans-Serif" font-size="12.00" fill="white">_CollectionGeneratorDefaultsType</text>
</a>
</g>
</g>
<!-- _CollectionGeneratorDefaultsType&#45;&gt;CollectionType -->
<g id="edge16" class="edge"><title>_CollectionGeneratorDefaultsType&#45;&gt;CollectionType</title>
<path fill="none" stroke="#cccccc" d="M829.328,-231.988C807.29,-223.045 774.79,-209.857 750.237,-199.893"/>
<polygon fill="#cccccc" stroke="#cccccc" points="751.506,-196.631 740.923,-196.114 748.873,-203.117 751.506,-196.631"/>
</g>
<!-- _CollectionGeneratorDefaultsType&#45;&gt;String.UnicodeScalarView -->
<g id="edge6" class="edge"><title>_CollectionGeneratorDefaultsType&#45;&gt;String.UnicodeScalarView</title>
<path fill="none" stroke="#cccccc" d="M863.002,-231.838C888.729,-201.566 957.793,-110.816 911,-58 891.786,-36.3125 721.997,-22.7908 616.297,-16.3979"/>
<polygon fill="#cccccc" stroke="#cccccc" points="616.466,-12.9019 606.275,-15.8015 616.05,-19.8895 616.466,-12.9019"/>
</g>
<!-- _Sliceable&#45;&gt;Sliceable -->
<g id="edge12" class="edge"><title>_Sliceable&#45;&gt;Sliceable</title>
<path fill="none" stroke="#cccccc" d="M845.079,-115.988C849.615,-108.517 855.951,-98.0812 861.44,-89.0393"/>
<polygon fill="#cccccc" stroke="#cccccc" points="864.546,-90.6682 866.744,-80.3039 858.562,-87.0353 864.546,-90.6682"/>
</g>
<!-- _Sliceable&#45;&gt;String.UnicodeScalarView -->
<g id="edge2" class="edge"><title>_Sliceable&#45;&gt;String.UnicodeScalarView</title>
<path fill="none" stroke="#cccccc" d="M834.999,-115.775C828.463,-100.525 813.982,-72.107 792,-58 763.391,-39.6397 680.661,-27.1136 616.124,-19.8243"/>
<polygon fill="#cccccc" stroke="#cccccc" points="616.257,-16.3178 605.934,-18.6993 615.489,-23.2756 616.257,-16.3178"/>
</g>
</g>
</svg>
