<?xml version="1.0" encoding="UTF-8" standalone="no"?>
<!DOCTYPE svg PUBLIC "-//W3C//DTD SVG 1.1//EN"
 "http://www.w3.org/Graphics/SVG/1.1/DTD/svg11.dtd">
<!-- Generated by graphviz version 2.36.0 (20140111.2315)
 -->
<!-- Title: FilterCollectionViewIndex&lt;Base : CollectionType&gt; &#45; Type Hierarchy &#45; SwiftDoc.org Pages: 1 -->
<svg width="288pt" height="311pt"
 viewBox="0.00 0.00 288.40 311.20" xmlns="http://www.w3.org/2000/svg" xmlns:xlink="http://www.w3.org/1999/xlink">
<g id="graph0" class="graph" transform="scale(1 1) rotate(0) translate(7.2 253.6)">
<title>FilterCollectionViewIndex&lt;Base : CollectionType&gt; &#45; Type Hierarchy &#45; SwiftDoc.org</title>
<polygon fill="white" stroke="none" points="-7.2,57.6 -7.2,-253.6 281.2,-253.6 281.2,57.6 -7.2,57.6"/>
<!-- Equatable -->
<g id="node1" class="node"><title>Equatable</title>
<g id="a_node1"><a xlink:href="/protocol/Equatable/" xlink:title="Equatable">
<path fill="#999999" stroke="#999999" d="M160.702,-196C160.702,-196 111.298,-196 111.298,-196 107.632,-196 103.965,-192.333 103.965,-188.667 103.965,-188.667 103.965,-181.333 103.965,-181.333 103.965,-177.667 107.632,-174 111.298,-174 111.298,-174 160.702,-174 160.702,-174 164.368,-174 168.035,-177.667 168.035,-181.333 168.035,-181.333 168.035,-188.667 168.035,-188.667 168.035,-192.333 164.368,-196 160.702,-196"/>
<text text-anchor="middle" x="136" y="-181.4" font-family="Helvetica,sans-Serif" font-size="12.00" fill="white">Equatable</text>
</a>
</g>
</g>
<!-- FilterCollectionViewIndex&lt;Base : CollectionType&gt; -->
<g id="node2" class="node"><title>FilterCollectionViewIndex&lt;Base : CollectionType&gt;</title>
<g id="a_node2"><a xlink:href="/type/FilterCollectionViewIndex/" xlink:title="FilterCollectionViewIndex&lt;Base : CollectionType&gt;">
<polygon fill="#ee543d" stroke="#ee543d" points="273.949,-22 0.0512449,-22 0.0512449,-0 273.949,-0 273.949,-22"/>
<text text-anchor="middle" x="137" y="-7.4" font-family="Helvetica,sans-Serif" font-size="12.00" fill="white">FilterCollectionViewIndex&lt;Base : CollectionType&gt;</text>
</a>
</g>
</g>
<!-- Equatable&#45;&gt;FilterCollectionViewIndex&lt;Base : CollectionType&gt; -->
<g id="edge3" class="edge"><title>Equatable&#45;&gt;FilterCollectionViewIndex&lt;Base : CollectionType&gt;</title>
<path fill="none" stroke="#cccccc" d="M130.698,-173.735C126.309,-164.624 120.417,-150.809 118,-138 110.961,-100.695 121.897,-56.7859 129.872,-31.8894"/>
<polygon fill="#cccccc" stroke="#cccccc" points="133.271,-32.763 133.15,-22.1688 126.638,-30.526 133.271,-32.763"/>
</g>
<!-- _Incrementable -->
<g id="node4" class="node"><title>_Incrementable</title>
<g id="a_node4"><a xlink:href="/protocol/_Incrementable/" xlink:title="_Incrementable">
<path fill="#999999" stroke="#999999" d="M211.705,-138C211.705,-138 134.295,-138 134.295,-138 130.628,-138 126.961,-134.333 126.961,-130.667 126.961,-130.667 126.961,-123.333 126.961,-123.333 126.961,-119.667 130.628,-116 134.295,-116 134.295,-116 211.705,-116 211.705,-116 215.372,-116 219.039,-119.667 219.039,-123.333 219.039,-123.333 219.039,-130.667 219.039,-130.667 219.039,-134.333 215.372,-138 211.705,-138"/>
<text text-anchor="middle" x="173" y="-123.4" font-family="Helvetica,sans-Serif" font-size="12.00" fill="white">_Incrementable</text>
</a>
</g>
</g>
<!-- Equatable&#45;&gt;_Incrementable -->
<g id="edge5" class="edge"><title>Equatable&#45;&gt;_Incrementable</title>
<path fill="none" stroke="#cccccc" d="M142.615,-173.988C147.604,-166.438 154.592,-155.861 160.609,-146.754"/>
<polygon fill="#cccccc" stroke="#cccccc" points="163.6,-148.577 166.192,-138.304 157.759,-144.718 163.6,-148.577"/>
</g>
<!-- ForwardIndexType -->
<g id="node3" class="node"><title>ForwardIndexType</title>
<g id="a_node3"><a xlink:href="/protocol/ForwardIndexType/" xlink:title="ForwardIndexType">
<path fill="#999999" stroke="#999999" d="M267.206,-80C267.206,-80 172.794,-80 172.794,-80 169.127,-80 165.461,-76.3333 165.461,-72.6667 165.461,-72.6667 165.461,-65.3333 165.461,-65.3333 165.461,-61.6667 169.127,-58 172.794,-58 172.794,-58 267.206,-58 267.206,-58 270.873,-58 274.539,-61.6667 274.539,-65.3333 274.539,-65.3333 274.539,-72.6667 274.539,-72.6667 274.539,-76.3333 270.873,-80 267.206,-80"/>
<text text-anchor="middle" x="220" y="-65.4" font-family="Helvetica,sans-Serif" font-size="12.00" fill="white">ForwardIndexType</text>
</a>
</g>
</g>
<!-- ForwardIndexType&#45;&gt;FilterCollectionViewIndex&lt;Base : CollectionType&gt; -->
<g id="edge1" class="edge"><title>ForwardIndexType&#45;&gt;FilterCollectionViewIndex&lt;Base : CollectionType&gt;</title>
<path fill="none" stroke="#cccccc" d="M205.161,-57.9883C192.728,-49.5993 174.757,-37.4743 160.389,-27.7804"/>
<polygon fill="#cccccc" stroke="#cccccc" points="162.237,-24.8055 151.99,-22.1138 158.322,-30.6083 162.237,-24.8055"/>
</g>
<!-- _Incrementable&#45;&gt;FilterCollectionViewIndex&lt;Base : CollectionType&gt; -->
<g id="edge2" class="edge"><title>_Incrementable&#45;&gt;FilterCollectionViewIndex&lt;Base : CollectionType&gt;</title>
<path fill="none" stroke="#cccccc" d="M168.978,-115.852C165.371,-106.586 160.04,-92.4736 156,-80 150.814,-63.9894 145.726,-45.5931 142.122,-31.9753"/>
<polygon fill="#cccccc" stroke="#cccccc" points="145.487,-31.0084 139.577,-22.2154 138.714,-32.7751 145.487,-31.0084"/>
</g>
<!-- _Incrementable&#45;&gt;ForwardIndexType -->
<g id="edge4" class="edge"><title>_Incrementable&#45;&gt;ForwardIndexType</title>
<path fill="none" stroke="#cccccc" d="M181.403,-115.988C187.872,-108.281 196.988,-97.4191 204.736,-88.187"/>
<polygon fill="#cccccc" stroke="#cccccc" points="207.604,-90.2137 211.352,-80.3039 202.242,-85.7136 207.604,-90.2137"/>
</g>
</g>
</svg>
