<?xml version="1.0" encoding="UTF-8" standalone="no"?>
<!DOCTYPE svg PUBLIC "-//W3C//DTD SVG 1.1//EN"
 "http://www.w3.org/Graphics/SVG/1.1/DTD/svg11.dtd">
<!-- Generated by graphviz version 2.36.0 (20140111.2315)
 -->
<!-- Title: Printable &#45; Type Hierarchy &#45; Swifter Pages: 1 -->
<svg width="2089pt" height="369pt"
 viewBox="0.00 0.00 2089.40 369.20" xmlns="http://www.w3.org/2000/svg" xmlns:xlink="http://www.w3.org/1999/xlink">
<g id="graph0" class="graph" transform="scale(1 1) rotate(0) translate(7.2 311.6)">
<g transform="translate(0 -311.6)">
<g>
    <path fill="#666666" d="M13.846,10.832c-0.336-0.464-0.792-0.844-1.368-1.14s-1.224-0.444-1.944-0.444
        c-0.384,0-0.772,0.052-1.164,0.156C8.977,9.509,8.622,9.677,8.301,9.908c-0.32,0.232-0.58,0.52-0.78,0.864
        c-0.2,0.344-0.3,0.756-0.3,1.236c0,0.464,0.092,0.852,0.276,1.164c0.184,0.312,0.432,0.576,0.744,0.792s0.68,0.4,1.104,0.552
        c0.423,0.152,0.876,0.309,1.356,0.468c0.576,0.177,1.16,0.376,1.752,0.601c0.592,0.224,1.128,0.52,1.608,0.888
        s0.872,0.828,1.176,1.38s0.456,1.252,0.456,2.101c0,0.88-0.164,1.644-0.492,2.292c-0.328,0.647-0.765,1.184-1.308,1.607
        c-0.544,0.424-1.172,0.74-1.884,0.948s-1.444,0.312-2.196,0.312c-1.072,0-2.108-0.208-3.108-0.624
        c-1-0.415-1.828-1.031-2.484-1.848l1.848-1.56c0.4,0.592,0.936,1.071,1.608,1.439c0.672,0.368,1.399,0.552,2.184,0.552
        c0.4,0,0.8-0.056,1.2-0.168c0.4-0.111,0.764-0.288,1.092-0.527c0.328-0.24,0.596-0.54,0.804-0.9
        c0.208-0.36,0.312-0.796,0.312-1.308s-0.108-0.94-0.324-1.284c-0.216-0.344-0.508-0.636-0.876-0.876s-0.796-0.444-1.284-0.612
        c-0.488-0.168-1.004-0.34-1.548-0.516c-0.544-0.16-1.08-0.356-1.608-0.588c-0.528-0.232-1-0.528-1.416-0.889
        c-0.416-0.359-0.752-0.804-1.008-1.332c-0.256-0.527-0.384-1.184-0.384-1.968c0-0.848,0.172-1.576,0.516-2.184
        c0.344-0.608,0.792-1.112,1.344-1.512c0.552-0.4,1.176-0.692,1.872-0.876c0.696-0.184,1.396-0.276,2.1-0.276
        c0.992,0,1.92,0.176,2.784,0.528c0.864,0.352,1.56,0.824,2.088,1.416L13.846,10.832z"/>
    <path fill="#666666" d="M18.813,13.304l2.568,8.688h0.048l2.712-8.688h2.376l2.76,8.688h0.048l2.568-8.688h2.376L30.501,24.68
        h-2.352l-2.808-8.544h-0.048l-2.784,8.544h-2.352l-3.792-11.376H18.813z"/>
    <path fill="#666666" d="M38.685,9.2c0,0.416-0.147,0.76-0.44,1.032c-0.294,0.272-0.647,0.408-1.06,0.408s-0.762-0.14-1.047-0.42
        c-0.286-0.28-0.429-0.62-0.429-1.02c0-0.416,0.143-0.764,0.429-1.044c0.286-0.28,0.635-0.42,1.047-0.42s0.766,0.14,1.06,0.42
        C38.538,8.437,38.685,8.784,38.685,9.2z M38.325,24.68h-2.256V13.304h2.256V24.68z"/>
    <path fill="#666666" d="M47.613,15.152h-2.64v9.528h-2.256v-9.528h-2.256v-1.848h2.256v-2.376c0-0.672,0.076-1.292,0.228-1.86
        c0.152-0.568,0.4-1.06,0.744-1.476c0.344-0.416,0.784-0.744,1.32-0.984c0.536-0.24,1.188-0.36,1.956-0.36
        c0.544,0,1.016,0.056,1.416,0.168l-0.264,1.944c-0.176-0.048-0.352-0.088-0.528-0.12c-0.176-0.032-0.376-0.048-0.6-0.048
        c-0.432,0-0.78,0.076-1.044,0.228c-0.264,0.152-0.468,0.356-0.612,0.612s-0.24,0.548-0.288,0.876
        c-0.048,0.328-0.072,0.668-0.072,1.02v2.376h2.64V15.152z"/>
    <path fill="#666666" d="M54.909,15.152h-3.024v5.91c0,0.687,0.128,1.177,0.384,1.472c0.256,0.295,0.664,0.442,1.224,0.442
        c0.208,0,0.432-0.021,0.672-0.065c0.24-0.044,0.456-0.11,0.648-0.198l0.072,1.848c-0.272,0.096-0.572,0.172-0.9,0.229
        c-0.328,0.056-0.668,0.084-1.02,0.084c-1.072,0-1.892-0.296-2.46-0.889c-0.568-0.592-0.852-1.479-0.852-2.664v-6.168h-2.184
        v-1.848h2.184V10.04h2.232v3.264h3.024V15.152z"/>
    <path fill="#666666" d="M57.356,7.688h5.832c1.088,0,2.176,0.16,3.264,0.48c1.088,0.32,2.072,0.824,2.952,1.512
        s1.592,1.568,2.136,2.64c0.544,1.072,0.816,2.36,0.816,3.864c0,1.456-0.272,2.716-0.816,3.78s-1.256,1.943-2.136,2.64
        s-1.864,1.216-2.952,1.561c-1.088,0.344-2.176,0.516-3.264,0.516h-5.832V7.688z M59.732,22.593h2.976
        c1.024,0,1.972-0.145,2.844-0.432c0.872-0.288,1.624-0.704,2.256-1.248c0.632-0.544,1.124-1.216,1.476-2.017
        c0.352-0.8,0.528-1.704,0.528-2.712c0-1.056-0.176-1.983-0.528-2.784c-0.353-0.8-0.844-1.468-1.476-2.004
        c-0.632-0.536-1.384-0.944-2.256-1.224s-1.82-0.42-2.844-0.42h-2.976V22.593z"/>
    <path fill="#666666" d="M86.06,18.969c0,0.88-0.156,1.688-0.468,2.424c-0.312,0.736-0.744,1.372-1.296,1.908
        c-0.552,0.536-1.204,0.952-1.956,1.248c-0.752,0.296-1.56,0.443-2.424,0.443c-0.864,0-1.672-0.147-2.424-0.443
        c-0.752-0.296-1.4-0.712-1.944-1.248c-0.544-0.536-0.972-1.172-1.284-1.908c-0.312-0.735-0.468-1.544-0.468-2.424
        s0.156-1.684,0.468-2.412c0.312-0.728,0.74-1.356,1.284-1.884c0.543-0.528,1.191-0.939,1.944-1.236
        c0.752-0.296,1.56-0.444,2.424-0.444c0.864,0,1.672,0.148,2.424,0.444c0.752,0.297,1.404,0.708,1.956,1.236
        c0.552,0.527,0.984,1.156,1.296,1.884C85.904,17.285,86.06,18.089,86.06,18.969z M83.708,18.98c0-0.542-0.084-1.061-0.252-1.556
        c-0.169-0.494-0.414-0.929-0.734-1.304s-0.718-0.674-1.192-0.897s-1.015-0.335-1.625-0.335c-0.61,0-1.152,0.111-1.625,0.335
        c-0.474,0.224-0.871,0.522-1.191,0.897c-0.321,0.375-0.566,0.81-0.734,1.304C76.184,17.92,76.1,18.438,76.1,18.98
        c0,0.543,0.084,1.062,0.253,1.556c0.168,0.495,0.413,0.934,0.734,1.316c0.321,0.383,0.718,0.686,1.191,0.909
        c0.473,0.224,1.015,0.335,1.625,0.335c0.61,0,1.151-0.111,1.625-0.335s0.871-0.526,1.192-0.909s0.565-0.821,0.734-1.316
        C83.624,20.042,83.708,19.523,83.708,18.98z"/>
    <path fill="#666666" d="M96.428,16.184c-0.24-0.368-0.6-0.676-1.08-0.924s-0.992-0.372-1.536-0.372
        c-0.592,0-1.116,0.112-1.572,0.336c-0.456,0.225-0.844,0.524-1.164,0.9c-0.32,0.376-0.564,0.812-0.732,1.308
        s-0.252,1.017-0.252,1.56c0,0.545,0.084,1.064,0.252,1.561s0.412,0.933,0.732,1.308c0.32,0.376,0.712,0.677,1.176,0.9
        c0.464,0.225,0.992,0.336,1.584,0.336c0.576,0,1.1-0.111,1.572-0.336c0.472-0.224,0.86-0.528,1.164-0.912l1.512,1.368
        c-0.48,0.561-1.08,0.996-1.8,1.308c-0.72,0.312-1.536,0.468-2.448,0.468c-0.88,0-1.692-0.144-2.436-0.432
        c-0.744-0.288-1.388-0.691-1.932-1.212c-0.544-0.52-0.972-1.147-1.284-1.884s-0.468-1.561-0.468-2.473
        c0-0.896,0.152-1.711,0.456-2.447c0.304-0.736,0.728-1.368,1.272-1.896c0.543-0.527,1.188-0.936,1.932-1.224
        c0.744-0.288,1.548-0.433,2.412-0.433c0.8,0,1.596,0.16,2.388,0.48s1.419,0.784,1.884,1.392L96.428,16.184z"/>
    <path fill="#666666" d="M103.1,23.24c0,0.417-0.152,0.784-0.456,1.104c-0.304,0.32-0.688,0.479-1.152,0.479
        c-0.448,0-0.828-0.155-1.14-0.468c-0.312-0.312-0.468-0.676-0.468-1.092c0-0.432,0.152-0.804,0.456-1.116
        c0.304-0.312,0.688-0.468,1.152-0.468c0.464,0,0.848,0.152,1.152,0.456C102.947,22.44,103.1,22.808,103.1,23.24z"/>
    <path fill="#666666" d="M116.635,18.969c0,0.88-0.156,1.688-0.468,2.424c-0.312,0.736-0.744,1.372-1.296,1.908
        c-0.552,0.536-1.204,0.952-1.956,1.248c-0.752,0.296-1.56,0.443-2.424,0.443c-0.864,0-1.672-0.147-2.424-0.443
        c-0.752-0.296-1.4-0.712-1.944-1.248c-0.544-0.536-0.972-1.172-1.284-1.908c-0.312-0.735-0.468-1.544-0.468-2.424
        s0.156-1.684,0.468-2.412c0.312-0.728,0.74-1.356,1.284-1.884c0.543-0.528,1.191-0.939,1.944-1.236
        c0.752-0.296,1.56-0.444,2.424-0.444c0.864,0,1.672,0.148,2.424,0.444c0.752,0.297,1.404,0.708,1.956,1.236
        c0.552,0.527,0.984,1.156,1.296,1.884C116.479,17.285,116.635,18.089,116.635,18.969z M114.283,18.98
        c0-0.542-0.084-1.061-0.252-1.556c-0.169-0.494-0.414-0.929-0.734-1.304s-0.718-0.674-1.192-0.897s-1.015-0.335-1.625-0.335
        c-0.61,0-1.152,0.111-1.625,0.335c-0.474,0.224-0.871,0.522-1.191,0.897c-0.321,0.375-0.566,0.81-0.734,1.304
        c-0.169,0.495-0.253,1.014-0.253,1.556c0,0.543,0.084,1.062,0.253,1.556c0.168,0.495,0.413,0.934,0.734,1.316
        c0.321,0.383,0.718,0.686,1.191,0.909c0.473,0.224,1.015,0.335,1.625,0.335c0.61,0,1.151-0.111,1.625-0.335
        s0.871-0.526,1.192-0.909s0.565-0.821,0.734-1.316C114.199,20.042,114.283,19.523,114.283,18.98z"/>
    <path fill="#666666" d="M119.251,14.577c-0.016-0.48-0.04-0.904-0.072-1.272h2.136c0.032,0.288,0.056,0.62,0.072,0.996
        c0.016,0.376,0.024,0.684,0.024,0.924h0.072c0.32-0.672,0.788-1.212,1.404-1.62c0.616-0.408,1.308-0.612,2.076-0.612
        c0.352,0,0.648,0.033,0.888,0.097l-0.096,2.088c-0.32-0.08-0.664-0.12-1.032-0.12c-0.544,0-1.016,0.101-1.416,0.3
        c-0.4,0.2-0.732,0.468-0.996,0.805c-0.264,0.336-0.46,0.724-0.588,1.163c-0.128,0.44-0.192,0.9-0.192,1.381v5.976h-2.256v-8.928
        C119.275,15.449,119.267,15.056,119.251,14.577z"/>
    <path fill="#666666" d="M128.419,26.625c0.496,0.56,1.116,1.008,1.86,1.344c0.744,0.336,1.508,0.504,2.292,0.504
        c0.752,0,1.384-0.108,1.896-0.324s0.924-0.512,1.236-0.888s0.536-0.82,0.672-1.332c0.136-0.513,0.204-1.064,0.204-1.656v-1.464
        h-0.048c-0.416,0.641-0.984,1.128-1.704,1.464c-0.72,0.336-1.488,0.504-2.304,0.504c-0.864,0-1.652-0.151-2.364-0.456
        c-0.712-0.304-1.316-0.72-1.812-1.248c-0.496-0.527-0.88-1.147-1.152-1.859s-0.408-1.477-0.408-2.292
        c0-0.816,0.136-1.584,0.408-2.305c0.272-0.72,0.656-1.348,1.152-1.884c0.496-0.535,1.096-0.96,1.8-1.271
        c0.704-0.312,1.488-0.469,2.352-0.469c0.816,0,1.596,0.177,2.34,0.528c0.744,0.353,1.332,0.888,1.764,1.608h0.048v-1.824h2.184
        v10.8c0,0.832-0.104,1.628-0.312,2.388c-0.208,0.76-0.56,1.433-1.056,2.017s-1.144,1.052-1.944,1.404
        c-0.8,0.352-1.792,0.527-2.976,0.527c-0.992,0-1.988-0.18-2.988-0.54c-1-0.359-1.86-0.868-2.58-1.523L128.419,26.625z
         M129.091,18.873c0,0.527,0.084,1.031,0.253,1.512c0.168,0.479,0.417,0.904,0.746,1.271c0.329,0.369,0.726,0.664,1.192,0.889
        c0.465,0.224,0.995,0.336,1.589,0.336c0.577,0,1.107-0.104,1.589-0.312c0.481-0.207,0.891-0.491,1.228-0.852
        s0.598-0.784,0.782-1.272c0.185-0.487,0.277-1.012,0.277-1.571c0-0.544-0.093-1.057-0.277-1.536
        c-0.185-0.48-0.449-0.904-0.794-1.272c-0.345-0.367-0.755-0.66-1.228-0.876c-0.474-0.216-1-0.324-1.577-0.324
        c-0.594,0-1.124,0.108-1.589,0.324c-0.466,0.216-0.863,0.504-1.192,0.864s-0.578,0.784-0.746,1.271
        C129.175,17.812,129.091,18.329,129.091,18.873z"/>
</g>

</g>
<title>Printable &#45; Type Hierarchy &#45; Swifter</title>

<!-- Array -->
<g id="node1" class="node">
<g id="a_node1"><a xlink:href="/type/Array/" xlink:title="Array">
<polygon fill="#999999" stroke="#999999" points="54,-22 0,-22 0,-0 54,-0 54,-22"/>
<text text-anchor="middle" x="27" y="-7.4" font-family="Helvetica,sans-Serif" font-size="12.00" fill="white">Array</text>
</a>
</g>
</g>
<!-- Bit -->
<g id="node2" class="node"><title>Bit</title>
<g id="a_node2"><a xlink:href="/type/Bit/" xlink:title="Bit">
<polygon fill="#999999" stroke="#999999" points="1087,-22 1033,-22 1033,-0 1087,-0 1087,-22"/>
<text text-anchor="middle" x="1060" y="-7.4" font-family="Helvetica,sans-Serif" font-size="12.00" fill="white">Bit</text>
</a>
</g>
</g>
<!-- Bool -->
<g id="node3" class="node"><title>Bool</title>
<g id="a_node3"><a xlink:href="/type/Bool/" xlink:title="Bool">
<polygon fill="#999999" stroke="#999999" points="126,-22 72,-22 72,-0 126,-0 126,-22"/>
<text text-anchor="middle" x="99" y="-7.4" font-family="Helvetica,sans-Serif" font-size="12.00" fill="white">Bool</text>
</a>
</g>
</g>
<!-- ClosedInterval -->
<g id="node4" class="node"><title>ClosedInterval</title>
<g id="a_node4"><a xlink:href="/type/ClosedInterval/" xlink:title="ClosedInterval">
<polygon fill="#999999" stroke="#999999" points="230.03,-22 143.97,-22 143.97,-0 230.03,-0 230.03,-22"/>
<text text-anchor="middle" x="187" y="-7.4" font-family="Helvetica,sans-Serif" font-size="12.00" fill="white">ClosedInterval</text>
</a>
</g>
</g>
<!-- ContiguousArray -->
<g id="node5" class="node"><title>ContiguousArray</title>
<g id="a_node5"><a xlink:href="/type/ContiguousArray/" xlink:title="ContiguousArray">
<polygon fill="#999999" stroke="#999999" points="347.534,-22 248.466,-22 248.466,-0 347.534,-0 347.534,-22"/>
<text text-anchor="middle" x="298" y="-7.4" font-family="Helvetica,sans-Serif" font-size="12.00" fill="white">ContiguousArray</text>
</a>
</g>
</g>
<!-- Dictionary -->
<g id="node6" class="node"><title>Dictionary</title>
<g id="a_node6"><a xlink:href="/type/Dictionary/" xlink:title="Dictionary">
<polygon fill="#999999" stroke="#999999" points="428.511,-22 365.489,-22 365.489,-0 428.511,-0 428.511,-22"/>
<text text-anchor="middle" x="397" y="-7.4" font-family="Helvetica,sans-Serif" font-size="12.00" fill="white">Dictionary</text>
</a>
</g>
</g>
<!-- Double -->
<g id="node7" class="node"><title>Double</title>
<g id="a_node7"><a xlink:href="/type/Double/" xlink:title="Double">
<polygon fill="#999999" stroke="#999999" points="501,-22 447,-22 447,-0 501,-0 501,-22"/>
<text text-anchor="middle" x="474" y="-7.4" font-family="Helvetica,sans-Serif" font-size="12.00" fill="white">Double</text>
</a>
</g>
</g>
<!-- Float -->
<g id="node8" class="node"><title>Float</title>
<g id="a_node8"><a xlink:href="/type/Float/" xlink:title="Float">
<polygon fill="#999999" stroke="#999999" points="573,-22 519,-22 519,-0 573,-0 573,-22"/>
<text text-anchor="middle" x="546" y="-7.4" font-family="Helvetica,sans-Serif" font-size="12.00" fill="white">Float</text>
</a>
</g>
</g>
<!-- Float80 -->
<g id="node9" class="node"><title>Float80</title>
<g id="a_node9"><a xlink:href="/type/Float80/" xlink:title="Float80">
<polygon fill="#999999" stroke="#999999" points="645,-22 591,-22 591,-0 645,-0 645,-22"/>
<text text-anchor="middle" x="618" y="-7.4" font-family="Helvetica,sans-Serif" font-size="12.00" fill="white">Float80</text>
</a>
</g>
</g>
<!-- HalfOpenInterval -->
<g id="node10" class="node"><title>HalfOpenInterval</title>
<g id="a_node10"><a xlink:href="/type/HalfOpenInterval/" xlink:title="HalfOpenInterval">
<polygon fill="#999999" stroke="#999999" points="763.035,-22 662.965,-22 662.965,-0 763.035,-0 763.035,-22"/>
<text text-anchor="middle" x="713" y="-7.4" font-family="Helvetica,sans-Serif" font-size="12.00" fill="white">HalfOpenInterval</text>
</a>
</g>
</g>
<!-- ImplicitlyUnwrappedOptional -->
<g id="node11" class="node"><title>ImplicitlyUnwrappedOptional</title>
<g id="a_node11"><a xlink:href="/type/ImplicitlyUnwrappedOptional/" xlink:title="ImplicitlyUnwrappedOptional">
<polygon fill="#999999" stroke="#999999" points="943.051,-22 780.949,-22 780.949,-0 943.051,-0 943.051,-22"/>
<text text-anchor="middle" x="862" y="-7.4" font-family="Helvetica,sans-Serif" font-size="12.00" fill="white">ImplicitlyUnwrappedOptional</text>
</a>
</g>
</g>
<!-- Int -->
<g id="node12" class="node"><title>Int</title>
<g id="a_node12"><a xlink:href="/type/Int/" xlink:title="Int">
<polygon fill="#999999" stroke="#999999" points="1015,-22 961,-22 961,-0 1015,-0 1015,-22"/>
<text text-anchor="middle" x="988" y="-7.4" font-family="Helvetica,sans-Serif" font-size="12.00" fill="white">Int</text>
</a>
</g>
</g>
<!-- Int&#45;&gt;Bit -->
<g id="edge26" class="edge"><title>Int&#45;&gt;Bit</title>
<path fill="none" stroke="#cccccc" d="M1015.28,-11C1017.74,-11 1020.19,-11 1022.65,-11"/>
<polygon fill="#cccccc" stroke="#cccccc" points="1022.75,-14.5001 1032.75,-11 1022.75,-7.5001 1022.75,-14.5001"/>
</g>
<!-- Int16 -->
<g id="node13" class="node"><title>Int16</title>
<g id="a_node13"><a xlink:href="/type/Int16/" xlink:title="Int16">
<polygon fill="#999999" stroke="#999999" points="1159,-22 1105,-22 1105,-0 1159,-0 1159,-22"/>
<text text-anchor="middle" x="1132" y="-7.4" font-family="Helvetica,sans-Serif" font-size="12.00" fill="white">Int16</text>
</a>
</g>
</g>
<!-- Int32 -->
<g id="node14" class="node"><title>Int32</title>
<g id="a_node14"><a xlink:href="/type/Int32/" xlink:title="Int32">
<polygon fill="#999999" stroke="#999999" points="1231,-22 1177,-22 1177,-0 1231,-0 1231,-22"/>
<text text-anchor="middle" x="1204" y="-7.4" font-family="Helvetica,sans-Serif" font-size="12.00" fill="white">Int32</text>
</a>
</g>
</g>
<!-- Int64 -->
<g id="node15" class="node"><title>Int64</title>
<g id="a_node15"><a xlink:href="/type/Int64/" xlink:title="Int64">
<polygon fill="#999999" stroke="#999999" points="1303,-22 1249,-22 1249,-0 1303,-0 1303,-22"/>
<text text-anchor="middle" x="1276" y="-7.4" font-family="Helvetica,sans-Serif" font-size="12.00" fill="white">Int64</text>
</a>
</g>
</g>
<!-- Int8 -->
<g id="node16" class="node"><title>Int8</title>
<g id="a_node16"><a xlink:href="/type/Int8/" xlink:title="Int8">
<polygon fill="#999999" stroke="#999999" points="1375,-22 1321,-22 1321,-0 1375,-0 1375,-22"/>
<text text-anchor="middle" x="1348" y="-7.4" font-family="Helvetica,sans-Serif" font-size="12.00" fill="white">Int8</text>
</a>
</g>
</g>
<!-- IntegerType -->
<g id="node17" class="node"><title>IntegerType</title>
<g id="a_node17"><a xlink:href="/protocol/IntegerType/" xlink:title="IntegerType">
<path fill="#999999" stroke="#999999" d="M1365.2,-138C1365.2,-138 1306.8,-138 1306.8,-138 1303.13,-138 1299.47,-134.333 1299.47,-130.667 1299.47,-130.667 1299.47,-123.333 1299.47,-123.333 1299.47,-119.667 1303.13,-116 1306.8,-116 1306.8,-116 1365.2,-116 1365.2,-116 1368.87,-116 1372.53,-119.667 1372.53,-123.333 1372.53,-123.333 1372.53,-130.667 1372.53,-130.667 1372.53,-134.333 1368.87,-138 1365.2,-138"/>
<text text-anchor="middle" x="1336" y="-123.4" font-family="Helvetica,sans-Serif" font-size="12.00" fill="white">IntegerType</text>
</a>
</g>
</g>
<!-- SignedIntegerType -->
<g id="node20" class="node"><title>SignedIntegerType</title>
<g id="a_node20"><a xlink:href="/protocol/SignedIntegerType/" xlink:title="SignedIntegerType">
<path fill="#999999" stroke="#999999" d="M1240.73,-80C1240.73,-80 1145.27,-80 1145.27,-80 1141.61,-80 1137.94,-76.3333 1137.94,-72.6667 1137.94,-72.6667 1137.94,-65.3333 1137.94,-65.3333 1137.94,-61.6667 1141.61,-58 1145.27,-58 1145.27,-58 1240.73,-58 1240.73,-58 1244.39,-58 1248.06,-61.6667 1248.06,-65.3333 1248.06,-65.3333 1248.06,-72.6667 1248.06,-72.6667 1248.06,-76.3333 1244.39,-80 1240.73,-80"/>
<text text-anchor="middle" x="1193" y="-65.4" font-family="Helvetica,sans-Serif" font-size="12.00" fill="white">SignedIntegerType</text>
</a>
</g>
</g>
<!-- IntegerType&#45;&gt;SignedIntegerType -->
<g id="edge30" class="edge"><title>IntegerType&#45;&gt;SignedIntegerType</title>
<path fill="none" stroke="#cccccc" d="M1310.43,-115.988C1287.5,-107.006 1253.62,-93.7398 1228.14,-83.7614"/>
<polygon fill="#cccccc" stroke="#cccccc" points="1229.41,-80.5013 1218.83,-80.1138 1226.86,-87.0193 1229.41,-80.5013"/>
</g>
<!-- UnsignedIntegerType -->
<g id="node29" class="node"><title>UnsignedIntegerType</title>
<g id="a_node29"><a xlink:href="/protocol/UnsignedIntegerType/" xlink:title="UnsignedIntegerType">
<path fill="#999999" stroke="#999999" d="M1548.73,-80C1548.73,-80 1439.27,-80 1439.27,-80 1435.61,-80 1431.94,-76.3333 1431.94,-72.6667 1431.94,-72.6667 1431.94,-65.3333 1431.94,-65.3333 1431.94,-61.6667 1435.61,-58 1439.27,-58 1439.27,-58 1548.73,-58 1548.73,-58 1552.39,-58 1556.06,-61.6667 1556.06,-65.3333 1556.06,-65.3333 1556.06,-72.6667 1556.06,-72.6667 1556.06,-76.3333 1552.39,-80 1548.73,-80"/>
<text text-anchor="middle" x="1494" y="-65.4" font-family="Helvetica,sans-Serif" font-size="12.00" fill="white">UnsignedIntegerType</text>
</a>
</g>
</g>
<!-- IntegerType&#45;&gt;UnsignedIntegerType -->
<g id="edge31" class="edge"><title>IntegerType&#45;&gt;UnsignedIntegerType</title>
<path fill="none" stroke="#cccccc" d="M1364.25,-115.988C1389.89,-106.898 1427.92,-93.4223 1456.18,-83.4053"/>
<polygon fill="#cccccc" stroke="#cccccc" points="1457.48,-86.6589 1465.73,-80.0192 1455.14,-80.0611 1457.48,-86.6589"/>
</g>
<!-- Printable -->
<g id="node18" class="node"><title>Printable</title>
<g id="a_node18"><a xlink:href="/protocol/Printable/" xlink:title="Printable">
<path fill="#ee543d" stroke="#ee543d" d="M1081.19,-254C1081.19,-254 1038.81,-254 1038.81,-254 1035.15,-254 1031.48,-250.333 1031.48,-246.667 1031.48,-246.667 1031.48,-239.333 1031.48,-239.333 1031.48,-235.667 1035.15,-232 1038.81,-232 1038.81,-232 1081.19,-232 1081.19,-232 1084.85,-232 1088.52,-235.667 1088.52,-239.333 1088.52,-239.333 1088.52,-246.667 1088.52,-246.667 1088.52,-250.333 1084.85,-254 1081.19,-254"/>
<text text-anchor="middle" x="1060" y="-239.4" font-family="Helvetica,sans-Serif" font-size="12.00" fill="white">Printable</text>
</a>
</g>
</g>
<!-- Printable&#45;&gt;Array -->
<g id="edge1" class="edge"><title>Printable&#45;&gt;Array</title>
<path fill="none" stroke="#cccccc" d="M1031.58,-242.611C947.942,-243.789 695.907,-242.894 494,-196 320.915,-155.8 127.276,-62.9024 55.639,-26.7613"/>
<polygon fill="#cccccc" stroke="#cccccc" points="56.8566,-23.4544 46.3552,-22.0497 53.6886,-29.6965 56.8566,-23.4544"/>
</g>
<!-- Printable&#45;&gt;Bool -->
<g id="edge2" class="edge"><title>Printable&#45;&gt;Bool</title>
<path fill="none" stroke="#cccccc" d="M1031.5,-241.793C955.649,-240.711 742.886,-234.22 571,-196 496.348,-179.4 480.439,-165.293 409,-138 307.633,-99.2733 189.155,-49.9816 132.499,-26.1585"/>
<polygon fill="#cccccc" stroke="#cccccc" points="133.555,-22.8053 122.98,-22.1507 130.838,-29.2568 133.555,-22.8053"/>
</g>
<!-- Printable&#45;&gt;ClosedInterval -->
<g id="edge3" class="edge"><title>Printable&#45;&gt;ClosedInterval</title>
<path fill="none" stroke="#cccccc" d="M1031.49,-241.455C963.776,-239.596 788.355,-231.449 647,-196 477.278,-153.437 286.818,-62.328 215.754,-26.7053"/>
<polygon fill="#cccccc" stroke="#cccccc" points="217.039,-23.4335 206.534,-22.0579 213.888,-29.6843 217.039,-23.4335"/>
</g>
<!-- Printable&#45;&gt;ContiguousArray -->
<g id="edge4" class="edge"><title>Printable&#45;&gt;ContiguousArray</title>
<path fill="none" stroke="#cccccc" d="M1031.36,-240.889C971.663,-237.984 829.988,-228.014 716,-196 561.39,-152.577 389.779,-62.6897 324.846,-27.0406"/>
<polygon fill="#cccccc" stroke="#cccccc" points="326.501,-23.956 316.055,-22.1864 323.117,-30.084 326.501,-23.956"/>
</g>
<!-- Printable&#45;&gt;Dictionary -->
<g id="edge5" class="edge"><title>Printable&#45;&gt;Dictionary</title>
<path fill="none" stroke="#cccccc" d="M1031.6,-239.895C980.362,-235.538 869.456,-223.538 780,-196 637.788,-152.222 481.904,-63.1993 422.183,-27.4096"/>
<polygon fill="#cccccc" stroke="#cccccc" points="423.811,-24.3044 413.44,-22.1377 420.196,-30.2989 423.811,-24.3044"/>
</g>
<!-- Printable&#45;&gt;Double -->
<g id="edge6" class="edge"><title>Printable&#45;&gt;Double</title>
<path fill="none" stroke="#cccccc" d="M1031.53,-238.273C989.326,-232.242 908.035,-218.673 842,-196 706.328,-149.418 557.057,-62.6909 499.011,-27.468"/>
<polygon fill="#cccccc" stroke="#cccccc" points="500.543,-24.3021 490.183,-22.0801 496.896,-30.2772 500.543,-24.3021"/>
</g>
<!-- Printable&#45;&gt;Float -->
<g id="edge7" class="edge"><title>Printable&#45;&gt;Float</title>
<path fill="none" stroke="#cccccc" d="M1031.37,-235.975C997.976,-228.504 941.423,-214.463 895,-196 767.788,-145.406 626.476,-61.6527 570.627,-27.3596"/>
<polygon fill="#cccccc" stroke="#cccccc" points="572.46,-24.378 562.111,-22.1065 568.785,-30.3356 572.46,-24.378"/>
</g>
<!-- Printable&#45;&gt;Float80 -->
<g id="edge8" class="edge"><title>Printable&#45;&gt;Float80</title>
<path fill="none" stroke="#cccccc" d="M1031.36,-232.668C1006.29,-224.155 969.112,-210.693 938,-196 823.202,-141.787 694.447,-61.2922 642.082,-27.6571"/>
<polygon fill="#cccccc" stroke="#cccccc" points="643.797,-24.5983 633.496,-22.1212 640.004,-30.4815 643.797,-24.5983"/>
</g>
<!-- Printable&#45;&gt;HalfOpenInterval -->
<g id="edge9" class="edge"><title>Printable&#45;&gt;HalfOpenInterval</title>
<path fill="none" stroke="#cccccc" d="M1039.45,-231.906C1021.77,-223.013 995.762,-209.421 974,-196 881.732,-139.098 778.151,-61.778 734.364,-28.4248"/>
<polygon fill="#cccccc" stroke="#cccccc" points="736.26,-25.4687 726.189,-22.1784 732.01,-31.0309 736.26,-25.4687"/>
</g>
<!-- Printable&#45;&gt;ImplicitlyUnwrappedOptional -->
<g id="edge10" class="edge"><title>Printable&#45;&gt;ImplicitlyUnwrappedOptional</title>
<path fill="none" stroke="#cccccc" d="M1043.11,-231.969C1029.51,-223.419 1010.36,-210.275 996,-196 942.195,-142.53 893.739,-65.7958 872.862,-30.7475"/>
<polygon fill="#cccccc" stroke="#cccccc" points="875.813,-28.8623 867.723,-22.0215 869.782,-32.4144 875.813,-28.8623"/>
</g>
<!-- Printable&#45;&gt;Int -->
<g id="edge11" class="edge"><title>Printable&#45;&gt;Int</title>
<path fill="none" stroke="#cccccc" d="M1043.18,-231.973C1031.22,-223.868 1015.92,-211.309 1008,-196 980.156,-142.177 982.482,-67.7984 985.638,-32.3596"/>
<polygon fill="#cccccc" stroke="#cccccc" points="989.132,-32.5983 986.655,-22.2971 982.167,-31.8947 989.132,-32.5983"/>
</g>
<!-- Printable&#45;&gt;Int16 -->
<g id="edge12" class="edge"><title>Printable&#45;&gt;Int16</title>
<path fill="none" stroke="#cccccc" d="M1055.46,-231.902C1042.99,-202.556 1011.42,-115.711 1046,-58 1051.99,-48.0048 1076.4,-35.4609 1097.69,-25.998"/>
<polygon fill="#cccccc" stroke="#cccccc" points="1099.08,-29.2078 1106.86,-22.0176 1096.3,-22.7859 1099.08,-29.2078"/>
</g>
<!-- Printable&#45;&gt;Int32 -->
<g id="edge13" class="edge"><title>Printable&#45;&gt;Int32</title>
<path fill="none" stroke="#cccccc" d="M1058.06,-231.892C1052.91,-201.77 1041.94,-111.396 1084,-58 1089.44,-51.0906 1133.71,-35.2401 1166.91,-24.0848"/>
<polygon fill="#cccccc" stroke="#cccccc" points="1168.42,-27.2704 1176.8,-20.7886 1166.21,-20.6294 1168.42,-27.2704"/>
</g>
<!-- Printable&#45;&gt;Int64 -->
<g id="edge14" class="edge"><title>Printable&#45;&gt;Int64</title>
<path fill="none" stroke="#cccccc" d="M1062.57,-231.782C1071.51,-196.905 1102.23,-83.3211 1129,-58 1133.14,-54.087 1196.85,-35.0143 1239.03,-22.6891"/>
<polygon fill="#cccccc" stroke="#cccccc" points="1240.1,-26.0244 1248.72,-19.8662 1238.14,-19.304 1240.1,-26.0244"/>
</g>
<!-- Printable&#45;&gt;Int8 -->
<g id="edge15" class="edge"><title>Printable&#45;&gt;Int8</title>
<path fill="none" stroke="#cccccc" d="M1066.59,-231.76C1084.13,-204.794 1132.12,-132.751 1155,-116 1193.79,-87.5988 1214.59,-102.647 1257,-80 1283.76,-65.7082 1311.22,-44.0392 1328.87,-29.0192"/>
<polygon fill="#cccccc" stroke="#cccccc" points="1331.43,-31.4314 1336.71,-22.2413 1326.85,-26.138 1331.43,-31.4314"/>
</g>
<!-- Range -->
<g id="node19" class="node"><title>Range</title>
<g id="a_node19"><a xlink:href="/type/Range/" xlink:title="Range">
<polygon fill="#999999" stroke="#999999" points="1807,-22 1753,-22 1753,-0 1807,-0 1807,-22"/>
<text text-anchor="middle" x="1780" y="-7.4" font-family="Helvetica,sans-Serif" font-size="12.00" fill="white">Range</text>
</a>
</g>
</g>
<!-- Printable&#45;&gt;Range -->
<g id="edge16" class="edge"><title>Printable&#45;&gt;Range</title>
<path fill="none" stroke="#cccccc" d="M1088.41,-242.045C1186.33,-241.824 1508.87,-237.862 1602,-196 1681.98,-160.052 1744.4,-70.2369 1768.82,-30.9265"/>
<polygon fill="#cccccc" stroke="#cccccc" points="1772,-32.4464 1774.2,-22.084 1766.02,-28.8082 1772,-32.4464"/>
</g>
<!-- Slice -->
<g id="node21" class="node"><title>Slice</title>
<g id="a_node21"><a xlink:href="/type/Slice/" xlink:title="Slice">
<polygon fill="#999999" stroke="#999999" points="1879,-22 1825,-22 1825,-0 1879,-0 1879,-22"/>
<text text-anchor="middle" x="1852" y="-7.4" font-family="Helvetica,sans-Serif" font-size="12.00" fill="white">Slice</text>
</a>
</g>
</g>
<!-- Printable&#45;&gt;Slice -->
<g id="edge17" class="edge"><title>Printable&#45;&gt;Slice</title>
<path fill="none" stroke="#cccccc" d="M1088.56,-241.854C1190.18,-241.008 1533.54,-235.241 1635,-196 1726.65,-160.551 1806.91,-69.0691 1838.13,-30.0578"/>
<polygon fill="#cccccc" stroke="#cccccc" points="1840.92,-32.1754 1844.35,-22.1538 1835.42,-27.8442 1840.92,-32.1754"/>
</g>
<!-- StaticString -->
<g id="node22" class="node"><title>StaticString</title>
<g id="a_node22"><a xlink:href="/type/StaticString/" xlink:title="StaticString">
<polygon fill="#999999" stroke="#999999" points="1968.52,-22 1897.48,-22 1897.48,-0 1968.52,-0 1968.52,-22"/>
<text text-anchor="middle" x="1933" y="-7.4" font-family="Helvetica,sans-Serif" font-size="12.00" fill="white">StaticString</text>
</a>
</g>
</g>
<!-- Printable&#45;&gt;StaticString -->
<g id="edge18" class="edge"><title>Printable&#45;&gt;StaticString</title>
<path fill="none" stroke="#cccccc" d="M1088.4,-241.726C1193.64,-240.426 1560.92,-233.258 1671,-196 1776.19,-160.399 1876.77,-68.298 1915.87,-29.5684"/>
<polygon fill="#cccccc" stroke="#cccccc" points="1918.68,-31.7074 1923.26,-22.1536 1913.72,-26.7661 1918.68,-31.7074"/>
</g>
<!-- UInt -->
<g id="node23" class="node"><title>UInt</title>
<g id="a_node23"><a xlink:href="/type/UInt/" xlink:title="UInt">
<polygon fill="#999999" stroke="#999999" points="1447,-22 1393,-22 1393,-0 1447,-0 1447,-22"/>
<text text-anchor="middle" x="1420" y="-7.4" font-family="Helvetica,sans-Serif" font-size="12.00" fill="white">UInt</text>
</a>
</g>
</g>
<!-- Printable&#45;&gt;UInt -->
<g id="edge19" class="edge"><title>Printable&#45;&gt;UInt</title>
<path fill="none" stroke="#cccccc" d="M1088.42,-242.883C1139.39,-243.264 1248.39,-238.521 1327,-196 1388.58,-162.688 1410.35,-72.8556 1417.2,-32.3261"/>
<polygon fill="#cccccc" stroke="#cccccc" points="1420.68,-32.7081 1418.75,-22.29 1413.76,-31.636 1420.68,-32.7081"/>
</g>
<!-- UInt16 -->
<g id="node24" class="node"><title>UInt16</title>
<g id="a_node24"><a xlink:href="/type/UInt16/" xlink:title="UInt16">
<polygon fill="#999999" stroke="#999999" points="1519,-22 1465,-22 1465,-0 1519,-0 1519,-22"/>
<text text-anchor="middle" x="1492" y="-7.4" font-family="Helvetica,sans-Serif" font-size="12.00" fill="white">UInt16</text>
</a>
</g>
</g>
<!-- Printable&#45;&gt;UInt16 -->
<g id="edge20" class="edge"><title>Printable&#45;&gt;UInt16</title>
<path fill="none" stroke="#cccccc" d="M1088.67,-240.851C1187.16,-236.229 1508.9,-215.344 1568,-138 1576.31,-127.121 1582.44,-87.7597 1565,-58 1556.67,-43.7936 1542.04,-33.3062 1528.05,-25.9632"/>
<polygon fill="#cccccc" stroke="#cccccc" points="1529.55,-22.7992 1519.02,-21.5845 1526.49,-29.0976 1529.55,-22.7992"/>
</g>
<!-- UInt32 -->
<g id="node25" class="node"><title>UInt32</title>
<g id="a_node25"><a xlink:href="/type/UInt32/" xlink:title="UInt32">
<polygon fill="#999999" stroke="#999999" points="1591,-22 1537,-22 1537,-0 1591,-0 1591,-22"/>
<text text-anchor="middle" x="1564" y="-7.4" font-family="Helvetica,sans-Serif" font-size="12.00" fill="white">UInt32</text>
</a>
</g>
</g>
<!-- Printable&#45;&gt;UInt32 -->
<g id="edge21" class="edge"><title>Printable&#45;&gt;UInt32</title>
<path fill="none" stroke="#cccccc" d="M1088.59,-240.687C1172.9,-236.547 1419.37,-222.446 1495,-196 1540.27,-180.169 1562.94,-180.051 1586,-138 1604.76,-103.796 1587.41,-57.1987 1574.68,-31.3259"/>
<polygon fill="#cccccc" stroke="#cccccc" points="1577.66,-29.4638 1569.95,-22.1956 1571.44,-32.6846 1577.66,-29.4638"/>
</g>
<!-- UInt64 -->
<g id="node26" class="node"><title>UInt64</title>
<g id="a_node26"><a xlink:href="/type/UInt64/" xlink:title="UInt64">
<polygon fill="#999999" stroke="#999999" points="1663,-22 1609,-22 1609,-0 1663,-0 1663,-22"/>
<text text-anchor="middle" x="1636" y="-7.4" font-family="Helvetica,sans-Serif" font-size="12.00" fill="white">UInt64</text>
</a>
</g>
</g>
<!-- Printable&#45;&gt;UInt64 -->
<g id="edge22" class="edge"><title>Printable&#45;&gt;UInt64</title>
<path fill="none" stroke="#cccccc" d="M1088.47,-241.571C1178.71,-239.856 1457.29,-231.724 1539,-196 1574.48,-180.491 1583.91,-171.099 1604,-138 1624.3,-104.554 1631.78,-58.63 1634.49,-32.4623"/>
<polygon fill="#cccccc" stroke="#cccccc" points="1638,-32.5208 1635.41,-22.2475 1631.03,-31.894 1638,-32.5208"/>
</g>
<!-- UInt8 -->
<g id="node27" class="node"><title>UInt8</title>
<g id="a_node27"><a xlink:href="/type/UInt8/" xlink:title="UInt8">
<polygon fill="#999999" stroke="#999999" points="1735,-22 1681,-22 1681,-0 1735,-0 1735,-22"/>
<text text-anchor="middle" x="1708" y="-7.4" font-family="Helvetica,sans-Serif" font-size="12.00" fill="white">UInt8</text>
</a>
</g>
</g>
<!-- Printable&#45;&gt;UInt8 -->
<g id="edge23" class="edge"><title>Printable&#45;&gt;UInt8</title>
<path fill="none" stroke="#cccccc" d="M1088.59,-242.147C1183.4,-242.219 1486.24,-239 1572,-196 1641.76,-161.025 1684.54,-71.3792 1700.67,-31.5623"/>
<polygon fill="#cccccc" stroke="#cccccc" points="1703.97,-32.7439 1704.36,-22.1563 1697.45,-30.1899 1703.97,-32.7439"/>
</g>
<!-- UnicodeScalar -->
<g id="node28" class="node"><title>UnicodeScalar</title>
<g id="a_node28"><a xlink:href="/type/UnicodeScalar/" xlink:title="UnicodeScalar">
<polygon fill="#999999" stroke="#999999" points="2075.03,-22 1986.97,-22 1986.97,-0 2075.03,-0 2075.03,-22"/>
<text text-anchor="middle" x="2031" y="-7.4" font-family="Helvetica,sans-Serif" font-size="12.00" fill="white">UnicodeScalar</text>
</a>
</g>
</g>
<!-- Printable&#45;&gt;UnicodeScalar -->
<g id="edge24" class="edge"><title>Printable&#45;&gt;UnicodeScalar</title>
<path fill="none" stroke="#cccccc" d="M1088.61,-241.61C1198.19,-239.863 1590.94,-231.225 1710,-196 1834.09,-159.285 1961.67,-66.405 2010.4,-28.4963"/>
<polygon fill="#cccccc" stroke="#cccccc" points="2012.86,-31.0138 2018.56,-22.0836 2008.53,-25.5094 2012.86,-31.0138"/>
</g>
<!-- _IntegerType -->
<g id="node30" class="node"><title>_IntegerType</title>
<g id="a_node30"><a xlink:href="/protocol/_IntegerType/" xlink:title="_IntegerType">
<path fill="#999999" stroke="#999999" d="M1310.71,-196C1310.71,-196 1245.29,-196 1245.29,-196 1241.63,-196 1237.96,-192.333 1237.96,-188.667 1237.96,-188.667 1237.96,-181.333 1237.96,-181.333 1237.96,-177.667 1241.63,-174 1245.29,-174 1245.29,-174 1310.71,-174 1310.71,-174 1314.37,-174 1318.04,-177.667 1318.04,-181.333 1318.04,-181.333 1318.04,-188.667 1318.04,-188.667 1318.04,-192.333 1314.37,-196 1310.71,-196"/>
<text text-anchor="middle" x="1278" y="-181.4" font-family="Helvetica,sans-Serif" font-size="12.00" fill="white">_IntegerType</text>
</a>
</g>
</g>
<!-- Printable&#45;&gt;_IntegerType -->
<g id="edge25" class="edge"><title>Printable&#45;&gt;_IntegerType</title>
<path fill="none" stroke="#cccccc" d="M1088.5,-234.679C1124.15,-225.52 1185.78,-209.691 1229.05,-198.576"/>
<polygon fill="#cccccc" stroke="#cccccc" points="1229.99,-201.947 1238.8,-196.069 1228.25,-195.167 1229.99,-201.947"/>
</g>
<!-- SignedIntegerType&#45;&gt;Int -->
<g id="edge32" class="edge"><title>SignedIntegerType&#45;&gt;Int</title>
<path fill="none" stroke="#cccccc" d="M1155.73,-57.9149C1123.55,-49.1941 1075.55,-36.1549 1024.94,-22.2489"/>
<polygon fill="#cccccc" stroke="#cccccc" points="1025.69,-18.8267 1015.12,-19.5503 1023.84,-25.5762 1025.69,-18.8267"/>
</g>
<!-- SignedIntegerType&#45;&gt;Int16 -->
<g id="edge33" class="edge"><title>SignedIntegerType&#45;&gt;Int16</title>
<path fill="none" stroke="#cccccc" d="M1182.09,-57.9883C1173.44,-50.0446 1161.14,-38.7512 1150.89,-29.3439"/>
<polygon fill="#cccccc" stroke="#cccccc" points="1152.96,-26.4883 1143.22,-22.3039 1148.22,-31.6449 1152.96,-26.4883"/>
</g>
<!-- SignedIntegerType&#45;&gt;Int32 -->
<g id="edge34" class="edge"><title>SignedIntegerType&#45;&gt;Int32</title>
<path fill="none" stroke="#cccccc" d="M1194.97,-57.9883C1196.37,-50.8311 1198.31,-40.9547 1200.03,-32.1885"/>
<polygon fill="#cccccc" stroke="#cccccc" points="1203.48,-32.791 1201.98,-22.3039 1196.61,-31.4417 1203.48,-32.791"/>
</g>
<!-- SignedIntegerType&#45;&gt;Int64 -->
<g id="edge35" class="edge"><title>SignedIntegerType&#45;&gt;Int64</title>
<path fill="none" stroke="#cccccc" d="M1207.84,-57.9883C1220.27,-49.5993 1238.24,-37.4743 1252.61,-27.7804"/>
<polygon fill="#cccccc" stroke="#cccccc" points="1254.68,-30.6083 1261.01,-22.1138 1250.76,-24.8055 1254.68,-30.6083"/>
</g>
<!-- SignedIntegerType&#45;&gt;Int8 -->
<g id="edge36" class="edge"><title>SignedIntegerType&#45;&gt;Int8</title>
<path fill="none" stroke="#cccccc" d="M1220.71,-57.9883C1245.92,-48.8821 1283.3,-35.3739 1311.05,-25.3513"/>
<polygon fill="#cccccc" stroke="#cccccc" points="1312.57,-28.5208 1320.79,-21.8311 1310.19,-21.9373 1312.57,-28.5208"/>
</g>
<!-- UnsignedIntegerType&#45;&gt;UInt -->
<g id="edge37" class="edge"><title>UnsignedIntegerType&#45;&gt;UInt</title>
<path fill="none" stroke="#cccccc" d="M1480.77,-57.9883C1469.96,-49.8087 1454.46,-38.0773 1441.82,-28.5108"/>
<polygon fill="#cccccc" stroke="#cccccc" points="1443.7,-25.5474 1433.62,-22.3039 1439.48,-31.1293 1443.7,-25.5474"/>
</g>
<!-- UnsignedIntegerType&#45;&gt;UInt16 -->
<g id="edge38" class="edge"><title>UnsignedIntegerType&#45;&gt;UInt16</title>
<path fill="none" stroke="#cccccc" d="M1493.64,-57.9883C1493.39,-50.9098 1493.04,-41.1714 1492.73,-32.4779"/>
<polygon fill="#cccccc" stroke="#cccccc" points="1496.22,-32.1726 1492.37,-22.3039 1489.23,-32.4225 1496.22,-32.1726"/>
</g>
<!-- UnsignedIntegerType&#45;&gt;UInt32 -->
<g id="edge39" class="edge"><title>UnsignedIntegerType&#45;&gt;UInt32</title>
<path fill="none" stroke="#cccccc" d="M1506.51,-57.9883C1516.64,-49.8873 1531.12,-38.3026 1543.02,-28.7873"/>
<polygon fill="#cccccc" stroke="#cccccc" points="1545.5,-31.2839 1551.12,-22.3039 1541.13,-25.8178 1545.5,-31.2839"/>
</g>
<!-- UnsignedIntegerType&#45;&gt;UInt64 -->
<g id="edge40" class="edge"><title>UnsignedIntegerType&#45;&gt;UInt64</title>
<path fill="none" stroke="#cccccc" d="M1519.39,-57.9883C1542.06,-49.0453 1575.51,-35.8566 1600.77,-25.8935"/>
<polygon fill="#cccccc" stroke="#cccccc" points="1602.34,-29.0385 1610.35,-22.1138 1599.77,-22.5266 1602.34,-29.0385"/>
</g>
<!-- UnsignedIntegerType&#45;&gt;UInt8 -->
<g id="edge41" class="edge"><title>UnsignedIntegerType&#45;&gt;UInt8</title>
<path fill="none" stroke="#cccccc" d="M1533.64,-57.9731C1567.64,-49.3269 1618.17,-36.3587 1671,-22.2371"/>
<polygon fill="#cccccc" stroke="#cccccc" points="1672.13,-25.5566 1680.89,-19.5877 1670.32,-18.7952 1672.13,-25.5566"/>
</g>
<!-- _IntegerType&#45;&gt;IntegerType -->
<g id="edge27" class="edge"><title>_IntegerType&#45;&gt;IntegerType</title>
<path fill="none" stroke="#cccccc" d="M1288.37,-173.988C1296.6,-166.045 1308.29,-154.751 1318.04,-145.344"/>
<polygon fill="#cccccc" stroke="#cccccc" points="1320.57,-147.768 1325.33,-138.304 1315.7,-142.732 1320.57,-147.768"/>
</g>
<!-- _SignedIntegerType -->
<g id="node31" class="node"><title>_SignedIntegerType</title>
<g id="a_node31"><a xlink:href="/protocol/_SignedIntegerType/" xlink:title="_SignedIntegerType">
<path fill="#999999" stroke="#999999" d="M1274.23,-138C1274.23,-138 1171.77,-138 1171.77,-138 1168.1,-138 1164.44,-134.333 1164.44,-130.667 1164.44,-130.667 1164.44,-123.333 1164.44,-123.333 1164.44,-119.667 1168.1,-116 1171.77,-116 1171.77,-116 1274.23,-116 1274.23,-116 1277.9,-116 1281.56,-119.667 1281.56,-123.333 1281.56,-123.333 1281.56,-130.667 1281.56,-130.667 1281.56,-134.333 1277.9,-138 1274.23,-138"/>
<text text-anchor="middle" x="1223" y="-123.4" font-family="Helvetica,sans-Serif" font-size="12.00" fill="white">_SignedIntegerType</text>
</a>
</g>
</g>
<!-- _IntegerType&#45;&gt;_SignedIntegerType -->
<g id="edge28" class="edge"><title>_IntegerType&#45;&gt;_SignedIntegerType</title>
<path fill="none" stroke="#cccccc" d="M1268.17,-173.988C1260.44,-166.123 1249.49,-154.974 1240.31,-145.624"/>
<polygon fill="#cccccc" stroke="#cccccc" points="1242.62,-142.986 1233.12,-138.304 1237.63,-147.891 1242.62,-142.986"/>
</g>
<!-- _UnsignedIntegerType -->
<g id="node32" class="node"><title>_UnsignedIntegerType</title>
<g id="a_node32"><a xlink:href="/protocol/_UnsignedIntegerType/" xlink:title="_UnsignedIntegerType">
<path fill="#999999" stroke="#999999" d="M1551.73,-138C1551.73,-138 1436.27,-138 1436.27,-138 1432.6,-138 1428.93,-134.333 1428.93,-130.667 1428.93,-130.667 1428.93,-123.333 1428.93,-123.333 1428.93,-119.667 1432.6,-116 1436.27,-116 1436.27,-116 1551.73,-116 1551.73,-116 1555.4,-116 1559.07,-119.667 1559.07,-123.333 1559.07,-123.333 1559.07,-130.667 1559.07,-130.667 1559.07,-134.333 1555.4,-138 1551.73,-138"/>
<text text-anchor="middle" x="1494" y="-123.4" font-family="Helvetica,sans-Serif" font-size="12.00" fill="white">_UnsignedIntegerType</text>
</a>
</g>
</g>
<!-- _IntegerType&#45;&gt;_UnsignedIntegerType -->
<g id="edge29" class="edge"><title>_IntegerType&#45;&gt;_UnsignedIntegerType</title>
<path fill="none" stroke="#cccccc" d="M1316.62,-173.988C1352.6,-164.66 1406.39,-150.713 1445.3,-140.625"/>
<polygon fill="#cccccc" stroke="#cccccc" points="1446.55,-143.917 1455.35,-138.019 1444.8,-137.141 1446.55,-143.917"/>
</g>
<!-- _SignedIntegerType&#45;&gt;SignedIntegerType -->
<g id="edge42" class="edge"><title>_SignedIntegerType&#45;&gt;SignedIntegerType</title>
<path fill="none" stroke="#cccccc" d="M1217.64,-115.988C1213.68,-108.595 1208.16,-98.3005 1203.35,-89.3253"/>
<polygon fill="#cccccc" stroke="#cccccc" points="1206.33,-87.4659 1198.52,-80.3039 1200.16,-90.7715 1206.33,-87.4659"/>
</g>
<!-- _UnsignedIntegerType&#45;&gt;UnsignedIntegerType -->
<g id="edge43" class="edge"><title>_UnsignedIntegerType&#45;&gt;UnsignedIntegerType</title>
<path fill="none" stroke="#cccccc" d="M1494,-115.988C1494,-108.91 1494,-99.1714 1494,-90.4779"/>
<polygon fill="#cccccc" stroke="#cccccc" points="1497.5,-90.3038 1494,-80.3039 1490.5,-90.3039 1497.5,-90.3038"/>
</g>
</g>
</svg>
