<?xml version="1.0" encoding="UTF-8" standalone="no"?>
<!DOCTYPE svg PUBLIC "-//W3C//DTD SVG 1.1//EN"
 "http://www.w3.org/Graphics/SVG/1.1/DTD/svg11.dtd">
<!-- Generated by graphviz version 2.36.0 (20140111.2315)
 -->
<!-- Title: Printable &#45; Type Hierarchy &#45; Swifter Pages: 1 -->
<svg width="2581pt" height="369pt"
 viewBox="0.00 0.00 2581.40 369.20" xmlns="http://www.w3.org/2000/svg" xmlns:xlink="http://www.w3.org/1999/xlink">
<g id="graph0" class="graph" transform="scale(1 1) rotate(0) translate(7.2 311.6)">
<g transform="translate(0 -311.6)">
<g>
    <path fill="#666666" d="M13.846,10.832c-0.336-0.464-0.792-0.844-1.368-1.14s-1.224-0.444-1.944-0.444
        c-0.384,0-0.772,0.052-1.164,0.156C8.977,9.509,8.622,9.677,8.301,9.908c-0.32,0.232-0.58,0.52-0.78,0.864
        c-0.2,0.344-0.3,0.756-0.3,1.236c0,0.464,0.092,0.852,0.276,1.164c0.184,0.312,0.432,0.576,0.744,0.792s0.68,0.4,1.104,0.552
        c0.423,0.152,0.876,0.309,1.356,0.468c0.576,0.177,1.16,0.376,1.752,0.601c0.592,0.224,1.128,0.52,1.608,0.888
        s0.872,0.828,1.176,1.38s0.456,1.252,0.456,2.101c0,0.88-0.164,1.644-0.492,2.292c-0.328,0.647-0.765,1.184-1.308,1.607
        c-0.544,0.424-1.172,0.74-1.884,0.948s-1.444,0.312-2.196,0.312c-1.072,0-2.108-0.208-3.108-0.624
        c-1-0.415-1.828-1.031-2.484-1.848l1.848-1.56c0.4,0.592,0.936,1.071,1.608,1.439c0.672,0.368,1.399,0.552,2.184,0.552
        c0.4,0,0.8-0.056,1.2-0.168c0.4-0.111,0.764-0.288,1.092-0.527c0.328-0.24,0.596-0.54,0.804-0.9
        c0.208-0.36,0.312-0.796,0.312-1.308s-0.108-0.94-0.324-1.284c-0.216-0.344-0.508-0.636-0.876-0.876s-0.796-0.444-1.284-0.612
        c-0.488-0.168-1.004-0.34-1.548-0.516c-0.544-0.16-1.08-0.356-1.608-0.588c-0.528-0.232-1-0.528-1.416-0.889
        c-0.416-0.359-0.752-0.804-1.008-1.332c-0.256-0.527-0.384-1.184-0.384-1.968c0-0.848,0.172-1.576,0.516-2.184
        c0.344-0.608,0.792-1.112,1.344-1.512c0.552-0.4,1.176-0.692,1.872-0.876c0.696-0.184,1.396-0.276,2.1-0.276
        c0.992,0,1.92,0.176,2.784,0.528c0.864,0.352,1.56,0.824,2.088,1.416L13.846,10.832z"/>
    <path fill="#666666" d="M18.813,13.304l2.568,8.688h0.048l2.712-8.688h2.376l2.76,8.688h0.048l2.568-8.688h2.376L30.501,24.68
        h-2.352l-2.808-8.544h-0.048l-2.784,8.544h-2.352l-3.792-11.376H18.813z"/>
    <path fill="#666666" d="M38.685,9.2c0,0.416-0.147,0.76-0.44,1.032c-0.294,0.272-0.647,0.408-1.06,0.408s-0.762-0.14-1.047-0.42
        c-0.286-0.28-0.429-0.62-0.429-1.02c0-0.416,0.143-0.764,0.429-1.044c0.286-0.28,0.635-0.42,1.047-0.42s0.766,0.14,1.06,0.42
        C38.538,8.437,38.685,8.784,38.685,9.2z M38.325,24.68h-2.256V13.304h2.256V24.68z"/>
    <path fill="#666666" d="M47.613,15.152h-2.64v9.528h-2.256v-9.528h-2.256v-1.848h2.256v-2.376c0-0.672,0.076-1.292,0.228-1.86
        c0.152-0.568,0.4-1.06,0.744-1.476c0.344-0.416,0.784-0.744,1.32-0.984c0.536-0.24,1.188-0.36,1.956-0.36
        c0.544,0,1.016,0.056,1.416,0.168l-0.264,1.944c-0.176-0.048-0.352-0.088-0.528-0.12c-0.176-0.032-0.376-0.048-0.6-0.048
        c-0.432,0-0.78,0.076-1.044,0.228c-0.264,0.152-0.468,0.356-0.612,0.612s-0.24,0.548-0.288,0.876
        c-0.048,0.328-0.072,0.668-0.072,1.02v2.376h2.64V15.152z"/>
    <path fill="#666666" d="M54.909,15.152h-3.024v5.91c0,0.687,0.128,1.177,0.384,1.472c0.256,0.295,0.664,0.442,1.224,0.442
        c0.208,0,0.432-0.021,0.672-0.065c0.24-0.044,0.456-0.11,0.648-0.198l0.072,1.848c-0.272,0.096-0.572,0.172-0.9,0.229
        c-0.328,0.056-0.668,0.084-1.02,0.084c-1.072,0-1.892-0.296-2.46-0.889c-0.568-0.592-0.852-1.479-0.852-2.664v-6.168h-2.184
        v-1.848h2.184V10.04h2.232v3.264h3.024V15.152z"/>
    <path fill="#666666" d="M57.356,7.688h5.832c1.088,0,2.176,0.16,3.264,0.48c1.088,0.32,2.072,0.824,2.952,1.512
        s1.592,1.568,2.136,2.64c0.544,1.072,0.816,2.36,0.816,3.864c0,1.456-0.272,2.716-0.816,3.78s-1.256,1.943-2.136,2.64
        s-1.864,1.216-2.952,1.561c-1.088,0.344-2.176,0.516-3.264,0.516h-5.832V7.688z M59.732,22.593h2.976
        c1.024,0,1.972-0.145,2.844-0.432c0.872-0.288,1.624-0.704,2.256-1.248c0.632-0.544,1.124-1.216,1.476-2.017
        c0.352-0.8,0.528-1.704,0.528-2.712c0-1.056-0.176-1.983-0.528-2.784c-0.353-0.8-0.844-1.468-1.476-2.004
        c-0.632-0.536-1.384-0.944-2.256-1.224s-1.82-0.42-2.844-0.42h-2.976V22.593z"/>
    <path fill="#666666" d="M86.06,18.969c0,0.88-0.156,1.688-0.468,2.424c-0.312,0.736-0.744,1.372-1.296,1.908
        c-0.552,0.536-1.204,0.952-1.956,1.248c-0.752,0.296-1.56,0.443-2.424,0.443c-0.864,0-1.672-0.147-2.424-0.443
        c-0.752-0.296-1.4-0.712-1.944-1.248c-0.544-0.536-0.972-1.172-1.284-1.908c-0.312-0.735-0.468-1.544-0.468-2.424
        s0.156-1.684,0.468-2.412c0.312-0.728,0.74-1.356,1.284-1.884c0.543-0.528,1.191-0.939,1.944-1.236
        c0.752-0.296,1.56-0.444,2.424-0.444c0.864,0,1.672,0.148,2.424,0.444c0.752,0.297,1.404,0.708,1.956,1.236
        c0.552,0.527,0.984,1.156,1.296,1.884C85.904,17.285,86.06,18.089,86.06,18.969z M83.708,18.98c0-0.542-0.084-1.061-0.252-1.556
        c-0.169-0.494-0.414-0.929-0.734-1.304s-0.718-0.674-1.192-0.897s-1.015-0.335-1.625-0.335c-0.61,0-1.152,0.111-1.625,0.335
        c-0.474,0.224-0.871,0.522-1.191,0.897c-0.321,0.375-0.566,0.81-0.734,1.304C76.184,17.92,76.1,18.438,76.1,18.98
        c0,0.543,0.084,1.062,0.253,1.556c0.168,0.495,0.413,0.934,0.734,1.316c0.321,0.383,0.718,0.686,1.191,0.909
        c0.473,0.224,1.015,0.335,1.625,0.335c0.61,0,1.151-0.111,1.625-0.335s0.871-0.526,1.192-0.909s0.565-0.821,0.734-1.316
        C83.624,20.042,83.708,19.523,83.708,18.98z"/>
    <path fill="#666666" d="M96.428,16.184c-0.24-0.368-0.6-0.676-1.08-0.924s-0.992-0.372-1.536-0.372
        c-0.592,0-1.116,0.112-1.572,0.336c-0.456,0.225-0.844,0.524-1.164,0.9c-0.32,0.376-0.564,0.812-0.732,1.308
        s-0.252,1.017-0.252,1.56c0,0.545,0.084,1.064,0.252,1.561s0.412,0.933,0.732,1.308c0.32,0.376,0.712,0.677,1.176,0.9
        c0.464,0.225,0.992,0.336,1.584,0.336c0.576,0,1.1-0.111,1.572-0.336c0.472-0.224,0.86-0.528,1.164-0.912l1.512,1.368
        c-0.48,0.561-1.08,0.996-1.8,1.308c-0.72,0.312-1.536,0.468-2.448,0.468c-0.88,0-1.692-0.144-2.436-0.432
        c-0.744-0.288-1.388-0.691-1.932-1.212c-0.544-0.52-0.972-1.147-1.284-1.884s-0.468-1.561-0.468-2.473
        c0-0.896,0.152-1.711,0.456-2.447c0.304-0.736,0.728-1.368,1.272-1.896c0.543-0.527,1.188-0.936,1.932-1.224
        c0.744-0.288,1.548-0.433,2.412-0.433c0.8,0,1.596,0.16,2.388,0.48s1.419,0.784,1.884,1.392L96.428,16.184z"/>
    <path fill="#666666" d="M103.1,23.24c0,0.417-0.152,0.784-0.456,1.104c-0.304,0.32-0.688,0.479-1.152,0.479
        c-0.448,0-0.828-0.155-1.14-0.468c-0.312-0.312-0.468-0.676-0.468-1.092c0-0.432,0.152-0.804,0.456-1.116
        c0.304-0.312,0.688-0.468,1.152-0.468c0.464,0,0.848,0.152,1.152,0.456C102.947,22.44,103.1,22.808,103.1,23.24z"/>
    <path fill="#666666" d="M116.635,18.969c0,0.88-0.156,1.688-0.468,2.424c-0.312,0.736-0.744,1.372-1.296,1.908
        c-0.552,0.536-1.204,0.952-1.956,1.248c-0.752,0.296-1.56,0.443-2.424,0.443c-0.864,0-1.672-0.147-2.424-0.443
        c-0.752-0.296-1.4-0.712-1.944-1.248c-0.544-0.536-0.972-1.172-1.284-1.908c-0.312-0.735-0.468-1.544-0.468-2.424
        s0.156-1.684,0.468-2.412c0.312-0.728,0.74-1.356,1.284-1.884c0.543-0.528,1.191-0.939,1.944-1.236
        c0.752-0.296,1.56-0.444,2.424-0.444c0.864,0,1.672,0.148,2.424,0.444c0.752,0.297,1.404,0.708,1.956,1.236
        c0.552,0.527,0.984,1.156,1.296,1.884C116.479,17.285,116.635,18.089,116.635,18.969z M114.283,18.98
        c0-0.542-0.084-1.061-0.252-1.556c-0.169-0.494-0.414-0.929-0.734-1.304s-0.718-0.674-1.192-0.897s-1.015-0.335-1.625-0.335
        c-0.61,0-1.152,0.111-1.625,0.335c-0.474,0.224-0.871,0.522-1.191,0.897c-0.321,0.375-0.566,0.81-0.734,1.304
        c-0.169,0.495-0.253,1.014-0.253,1.556c0,0.543,0.084,1.062,0.253,1.556c0.168,0.495,0.413,0.934,0.734,1.316
        c0.321,0.383,0.718,0.686,1.191,0.909c0.473,0.224,1.015,0.335,1.625,0.335c0.61,0,1.151-0.111,1.625-0.335
        s0.871-0.526,1.192-0.909s0.565-0.821,0.734-1.316C114.199,20.042,114.283,19.523,114.283,18.98z"/>
    <path fill="#666666" d="M119.251,14.577c-0.016-0.48-0.04-0.904-0.072-1.272h2.136c0.032,0.288,0.056,0.62,0.072,0.996
        c0.016,0.376,0.024,0.684,0.024,0.924h0.072c0.32-0.672,0.788-1.212,1.404-1.62c0.616-0.408,1.308-0.612,2.076-0.612
        c0.352,0,0.648,0.033,0.888,0.097l-0.096,2.088c-0.32-0.08-0.664-0.12-1.032-0.12c-0.544,0-1.016,0.101-1.416,0.3
        c-0.4,0.2-0.732,0.468-0.996,0.805c-0.264,0.336-0.46,0.724-0.588,1.163c-0.128,0.44-0.192,0.9-0.192,1.381v5.976h-2.256v-8.928
        C119.275,15.449,119.267,15.056,119.251,14.577z"/>
    <path fill="#666666" d="M128.419,26.625c0.496,0.56,1.116,1.008,1.86,1.344c0.744,0.336,1.508,0.504,2.292,0.504
        c0.752,0,1.384-0.108,1.896-0.324s0.924-0.512,1.236-0.888s0.536-0.82,0.672-1.332c0.136-0.513,0.204-1.064,0.204-1.656v-1.464
        h-0.048c-0.416,0.641-0.984,1.128-1.704,1.464c-0.72,0.336-1.488,0.504-2.304,0.504c-0.864,0-1.652-0.151-2.364-0.456
        c-0.712-0.304-1.316-0.72-1.812-1.248c-0.496-0.527-0.88-1.147-1.152-1.859s-0.408-1.477-0.408-2.292
        c0-0.816,0.136-1.584,0.408-2.305c0.272-0.72,0.656-1.348,1.152-1.884c0.496-0.535,1.096-0.96,1.8-1.271
        c0.704-0.312,1.488-0.469,2.352-0.469c0.816,0,1.596,0.177,2.34,0.528c0.744,0.353,1.332,0.888,1.764,1.608h0.048v-1.824h2.184
        v10.8c0,0.832-0.104,1.628-0.312,2.388c-0.208,0.76-0.56,1.433-1.056,2.017s-1.144,1.052-1.944,1.404
        c-0.8,0.352-1.792,0.527-2.976,0.527c-0.992,0-1.988-0.18-2.988-0.54c-1-0.359-1.86-0.868-2.58-1.523L128.419,26.625z
         M129.091,18.873c0,0.527,0.084,1.031,0.253,1.512c0.168,0.479,0.417,0.904,0.746,1.271c0.329,0.369,0.726,0.664,1.192,0.889
        c0.465,0.224,0.995,0.336,1.589,0.336c0.577,0,1.107-0.104,1.589-0.312c0.481-0.207,0.891-0.491,1.228-0.852
        s0.598-0.784,0.782-1.272c0.185-0.487,0.277-1.012,0.277-1.571c0-0.544-0.093-1.057-0.277-1.536
        c-0.185-0.48-0.449-0.904-0.794-1.272c-0.345-0.367-0.755-0.66-1.228-0.876c-0.474-0.216-1-0.324-1.577-0.324
        c-0.594,0-1.124,0.108-1.589,0.324c-0.466,0.216-0.863,0.504-1.192,0.864s-0.578,0.784-0.746,1.271
        C129.175,17.812,129.091,18.329,129.091,18.873z"/>
</g>
<g><a xlink:href="/" pointer-events="all" target="_top"><polygon fill="none" points="0,0 145,0 145,35 0,35 0,0"/></a></g>

</g>


<!-- Array -->
<g id="node1" class="node">
<g id="a_node1"><a xlink:href="/type/Array/" target="_top">
<polygon fill="#999999" stroke="#999999" points="54,-22 0,-22 0,-0 54,-0 54,-22"/>
<text text-anchor="middle" x="27" y="-7.4" font-family="Helvetica,sans-Serif" font-size="12.00" fill="white">Array</text>
</a>
</g>
</g>
<!-- ArraySlice -->
<g id="node2" class="node">
<g id="a_node2"><a xlink:href="/type/ArraySlice/" target="_top">
<polygon fill="#999999" stroke="#999999" points="136.011,-22 71.9886,-22 71.9886,-0 136.011,-0 136.011,-22"/>
<text text-anchor="middle" x="104" y="-7.4" font-family="Helvetica,sans-Serif" font-size="12.00" fill="white">ArraySlice</text>
</a>
</g>
</g>
<!-- Bit -->
<g id="node3" class="node">
<g id="a_node3"><a xlink:href="/type/Bit/" target="_top">
<polygon fill="#999999" stroke="#999999" points="1169,-22 1115,-22 1115,-0 1169,-0 1169,-22"/>
<text text-anchor="middle" x="1142" y="-7.4" font-family="Helvetica,sans-Serif" font-size="12.00" fill="white">Bit</text>
</a>
</g>
</g>
<!-- Bool -->
<g id="node4" class="node">
<g id="a_node4"><a xlink:href="/type/Bool/" target="_top">
<polygon fill="#999999" stroke="#999999" points="208,-22 154,-22 154,-0 208,-0 208,-22"/>
<text text-anchor="middle" x="181" y="-7.4" font-family="Helvetica,sans-Serif" font-size="12.00" fill="white">Bool</text>
</a>
</g>
</g>
<!-- ClosedInterval -->
<g id="node5" class="node">
<g id="a_node5"><a xlink:href="/type/ClosedInterval/" target="_top">
<polygon fill="#999999" stroke="#999999" points="312.03,-22 225.97,-22 225.97,-0 312.03,-0 312.03,-22"/>
<text text-anchor="middle" x="269" y="-7.4" font-family="Helvetica,sans-Serif" font-size="12.00" fill="white">ClosedInterval</text>
</a>
</g>
</g>
<!-- ContiguousArray -->
<g id="node6" class="node">
<g id="a_node6"><a xlink:href="/type/ContiguousArray/" target="_top">
<polygon fill="#999999" stroke="#999999" points="429.534,-22 330.466,-22 330.466,-0 429.534,-0 429.534,-22"/>
<text text-anchor="middle" x="380" y="-7.4" font-family="Helvetica,sans-Serif" font-size="12.00" fill="white">ContiguousArray</text>
</a>
</g>
</g>
<!-- Dictionary -->
<g id="node7" class="node">
<g id="a_node7"><a xlink:href="/type/Dictionary/" target="_top">
<polygon fill="#999999" stroke="#999999" points="510.511,-22 447.489,-22 447.489,-0 510.511,-0 510.511,-22"/>
<text text-anchor="middle" x="479" y="-7.4" font-family="Helvetica,sans-Serif" font-size="12.00" fill="white">Dictionary</text>
</a>
</g>
</g>
<!-- Double -->
<g id="node8" class="node">
<g id="a_node8"><a xlink:href="/type/Double/" target="_top">
<polygon fill="#999999" stroke="#999999" points="583,-22 529,-22 529,-0 583,-0 583,-22"/>
<text text-anchor="middle" x="556" y="-7.4" font-family="Helvetica,sans-Serif" font-size="12.00" fill="white">Double</text>
</a>
</g>
</g>
<!-- Float -->
<g id="node9" class="node">
<g id="a_node9"><a xlink:href="/type/Float/" target="_top">
<polygon fill="#999999" stroke="#999999" points="655,-22 601,-22 601,-0 655,-0 655,-22"/>
<text text-anchor="middle" x="628" y="-7.4" font-family="Helvetica,sans-Serif" font-size="12.00" fill="white">Float</text>
</a>
</g>
</g>
<!-- Float80 -->
<g id="node10" class="node">
<g id="a_node10"><a xlink:href="/type/Float80/" target="_top">
<polygon fill="#999999" stroke="#999999" points="727,-22 673,-22 673,-0 727,-0 727,-22"/>
<text text-anchor="middle" x="700" y="-7.4" font-family="Helvetica,sans-Serif" font-size="12.00" fill="white">Float80</text>
</a>
</g>
</g>
<!-- HalfOpenInterval -->
<g id="node11" class="node">
<g id="a_node11"><a xlink:href="/type/HalfOpenInterval/" target="_top">
<polygon fill="#999999" stroke="#999999" points="845.035,-22 744.965,-22 744.965,-0 845.035,-0 845.035,-22"/>
<text text-anchor="middle" x="795" y="-7.4" font-family="Helvetica,sans-Serif" font-size="12.00" fill="white">HalfOpenInterval</text>
</a>
</g>
</g>
<!-- ImplicitlyUnwrappedOptional -->
<g id="node12" class="node">
<g id="a_node12"><a xlink:href="/type/ImplicitlyUnwrappedOptional/" target="_top">
<polygon fill="#999999" stroke="#999999" points="1025.05,-22 862.949,-22 862.949,-0 1025.05,-0 1025.05,-22"/>
<text text-anchor="middle" x="944" y="-7.4" font-family="Helvetica,sans-Serif" font-size="12.00" fill="white">ImplicitlyUnwrappedOptional</text>
</a>
</g>
</g>
<!-- Int -->
<g id="node13" class="node">
<g id="a_node13"><a xlink:href="/type/Int/" target="_top">
<polygon fill="#999999" stroke="#999999" points="1097,-22 1043,-22 1043,-0 1097,-0 1097,-22"/>
<text text-anchor="middle" x="1070" y="-7.4" font-family="Helvetica,sans-Serif" font-size="12.00" fill="white">Int</text>
</a>
</g>
</g>
<!-- Int&#45;&gt;Bit -->
<g id="edge30" class="edge">
<path fill="none" stroke="#cccccc" d="M1097.28,-11C1099.74,-11 1102.19,-11 1104.65,-11"/>
<polygon fill="#cccccc" stroke="#cccccc" points="1104.75,-14.5001 1114.75,-11 1104.75,-7.5001 1104.75,-14.5001"/>
</g>
<!-- Int16 -->
<g id="node14" class="node">
<g id="a_node14"><a xlink:href="/type/Int16/" target="_top">
<polygon fill="#999999" stroke="#999999" points="1241,-22 1187,-22 1187,-0 1241,-0 1241,-22"/>
<text text-anchor="middle" x="1214" y="-7.4" font-family="Helvetica,sans-Serif" font-size="12.00" fill="white">Int16</text>
</a>
</g>
</g>
<!-- Int32 -->
<g id="node15" class="node">
<g id="a_node15"><a xlink:href="/type/Int32/" target="_top">
<polygon fill="#999999" stroke="#999999" points="1313,-22 1259,-22 1259,-0 1313,-0 1313,-22"/>
<text text-anchor="middle" x="1286" y="-7.4" font-family="Helvetica,sans-Serif" font-size="12.00" fill="white">Int32</text>
</a>
</g>
</g>
<!-- Int64 -->
<g id="node16" class="node">
<g id="a_node16"><a xlink:href="/type/Int64/" target="_top">
<polygon fill="#999999" stroke="#999999" points="1385,-22 1331,-22 1331,-0 1385,-0 1385,-22"/>
<text text-anchor="middle" x="1358" y="-7.4" font-family="Helvetica,sans-Serif" font-size="12.00" fill="white">Int64</text>
</a>
</g>
</g>
<!-- Int8 -->
<g id="node17" class="node">
<g id="a_node17"><a xlink:href="/type/Int8/" target="_top">
<polygon fill="#999999" stroke="#999999" points="1457,-22 1403,-22 1403,-0 1457,-0 1457,-22"/>
<text text-anchor="middle" x="1430" y="-7.4" font-family="Helvetica,sans-Serif" font-size="12.00" fill="white">Int8</text>
</a>
</g>
</g>
<!-- IntegerType -->
<g id="node18" class="node">
<g id="a_node18"><a xlink:href="/protocol/IntegerType/" target="_top">
<path fill="#999999" stroke="#999999" d="M1452.2,-138C1452.2,-138 1393.8,-138 1393.8,-138 1390.13,-138 1386.47,-134.333 1386.47,-130.667 1386.47,-130.667 1386.47,-123.333 1386.47,-123.333 1386.47,-119.667 1390.13,-116 1393.8,-116 1393.8,-116 1452.2,-116 1452.2,-116 1455.87,-116 1459.53,-119.667 1459.53,-123.333 1459.53,-123.333 1459.53,-130.667 1459.53,-130.667 1459.53,-134.333 1455.87,-138 1452.2,-138"/>
<text text-anchor="middle" x="1423" y="-123.4" font-family="Helvetica,sans-Serif" font-size="12.00" fill="white">IntegerType</text>
</a>
</g>
</g>
<!-- SignedIntegerType -->
<g id="node22" class="node">
<g id="a_node22"><a xlink:href="/protocol/SignedIntegerType/" target="_top">
<path fill="#999999" stroke="#999999" d="M1324.73,-80C1324.73,-80 1229.27,-80 1229.27,-80 1225.61,-80 1221.94,-76.3333 1221.94,-72.6667 1221.94,-72.6667 1221.94,-65.3333 1221.94,-65.3333 1221.94,-61.6667 1225.61,-58 1229.27,-58 1229.27,-58 1324.73,-58 1324.73,-58 1328.39,-58 1332.06,-61.6667 1332.06,-65.3333 1332.06,-65.3333 1332.06,-72.6667 1332.06,-72.6667 1332.06,-76.3333 1328.39,-80 1324.73,-80"/>
<text text-anchor="middle" x="1277" y="-65.4" font-family="Helvetica,sans-Serif" font-size="12.00" fill="white">SignedIntegerType</text>
</a>
</g>
</g>
<!-- IntegerType&#45;&gt;SignedIntegerType -->
<g id="edge34" class="edge">
<path fill="none" stroke="#cccccc" d="M1396.9,-115.988C1373.48,-107.006 1338.89,-93.7398 1312.88,-83.7614"/>
<polygon fill="#cccccc" stroke="#cccccc" points="1313.96,-80.4272 1303.37,-80.1138 1311.45,-86.963 1313.96,-80.4272"/>
</g>
<!-- UnsignedIntegerType -->
<g id="node33" class="node">
<g id="a_node33"><a xlink:href="/protocol/UnsignedIntegerType/" target="_top">
<path fill="#999999" stroke="#999999" d="M1635.73,-80C1635.73,-80 1526.27,-80 1526.27,-80 1522.61,-80 1518.94,-76.3333 1518.94,-72.6667 1518.94,-72.6667 1518.94,-65.3333 1518.94,-65.3333 1518.94,-61.6667 1522.61,-58 1526.27,-58 1526.27,-58 1635.73,-58 1635.73,-58 1639.39,-58 1643.06,-61.6667 1643.06,-65.3333 1643.06,-65.3333 1643.06,-72.6667 1643.06,-72.6667 1643.06,-76.3333 1639.39,-80 1635.73,-80"/>
<text text-anchor="middle" x="1581" y="-65.4" font-family="Helvetica,sans-Serif" font-size="12.00" fill="white">UnsignedIntegerType</text>
</a>
</g>
</g>
<!-- IntegerType&#45;&gt;UnsignedIntegerType -->
<g id="edge35" class="edge">
<path fill="none" stroke="#cccccc" d="M1451.25,-115.988C1476.89,-106.898 1514.92,-93.4223 1543.18,-83.4053"/>
<polygon fill="#cccccc" stroke="#cccccc" points="1544.48,-86.6589 1552.73,-80.0192 1542.14,-80.0611 1544.48,-86.6589"/>
</g>
<!-- Printable -->
<g id="node19" class="node">
<g id="a_node19"><a xlink:href="/protocol/Printable/" target="_top">
<path fill="#ee543d" stroke="#ee543d" d="M1206.19,-254C1206.19,-254 1163.81,-254 1163.81,-254 1160.15,-254 1156.48,-250.333 1156.48,-246.667 1156.48,-246.667 1156.48,-239.333 1156.48,-239.333 1156.48,-235.667 1160.15,-232 1163.81,-232 1163.81,-232 1206.19,-232 1206.19,-232 1209.85,-232 1213.52,-235.667 1213.52,-239.333 1213.52,-239.333 1213.52,-246.667 1213.52,-246.667 1213.52,-250.333 1209.85,-254 1206.19,-254"/>
<text text-anchor="middle" x="1185" y="-239.4" font-family="Helvetica,sans-Serif" font-size="12.00" fill="white">Printable</text>
</a>
</g>
</g>
<!-- Printable&#45;&gt;Array -->
<g id="edge1" class="edge">
<path fill="none" stroke="#cccccc" d="M1156.35,-241.155C1042.83,-237.642 624.56,-223.097 495,-196 420.554,-180.43 404.975,-165.334 334,-138 233.577,-99.3248 116.263,-50.0095 60.1674,-26.1698"/>
<polygon fill="#cccccc" stroke="#cccccc" points="61.3142,-22.8541 50.7422,-22.1591 58.5732,-29.2952 61.3142,-22.8541"/>
</g>
<!-- Printable&#45;&gt;ArraySlice -->
<g id="edge2" class="edge">
<path fill="none" stroke="#cccccc" d="M1156.42,-240.929C1052.19,-236.853 692.814,-221.249 581,-196 404.094,-156.053 205.714,-62.6576 132.835,-26.5813"/>
<polygon fill="#cccccc" stroke="#cccccc" points="134.303,-23.4023 123.791,-22.0787 131.183,-29.6687 134.303,-23.4023"/>
</g>
<!-- Printable&#45;&gt;Bool -->
<g id="edge3" class="edge">
<path fill="none" stroke="#cccccc" d="M1156.51,-241.988C1077.1,-241.423 846.889,-236.164 661,-196 585.021,-179.584 568.769,-165.33 496,-138 392.794,-99.2395 272.116,-49.8024 214.685,-26.0209"/>
<polygon fill="#cccccc" stroke="#cccccc" points="215.946,-22.755 205.368,-22.1582 213.265,-29.2213 215.946,-22.755"/>
</g>
<!-- Printable&#45;&gt;ClosedInterval -->
<g id="edge4" class="edge">
<path fill="none" stroke="#cccccc" d="M1156.57,-241.73C1085.15,-240.483 892.844,-233.599 738,-196 564.738,-153.929 370.031,-62.191 297.89,-26.5595"/>
<polygon fill="#cccccc" stroke="#cccccc" points="299.441,-23.4218 288.928,-22.1091 296.328,-29.6914 299.441,-23.4218"/>
</g>
<!-- Printable&#45;&gt;ContiguousArray -->
<g id="edge5" class="edge">
<path fill="none" stroke="#cccccc" d="M1156.37,-241.208C1092.36,-238.861 933.191,-229.811 805,-196 740.273,-178.928 727.521,-164.384 666,-138 573.286,-98.2384 464.385,-49.7701 411.714,-26.2156"/>
<polygon fill="#cccccc" stroke="#cccccc" points="413.108,-23.0049 402.55,-22.1151 410.248,-29.3944 413.108,-23.0049"/>
</g>
<!-- Printable&#45;&gt;Dictionary -->
<g id="edge6" class="edge">
<path fill="none" stroke="#cccccc" d="M1156.63,-240.521C1100.73,-237.03 972.887,-226.169 870,-196 724.445,-153.32 564.916,-63.2852 504.276,-27.3171"/>
<polygon fill="#cccccc" stroke="#cccccc" points="505.79,-24.1449 495.41,-22.0242 502.202,-30.1554 505.79,-24.1449"/>
</g>
<!-- Printable&#45;&gt;Double -->
<g id="edge7" class="edge">
<path fill="none" stroke="#cccccc" d="M1156.44,-239.261C1109.08,-234.176 1011.72,-221.405 933,-196 793.194,-150.882 639.65,-62.631 580.812,-27.2288"/>
<polygon fill="#cccccc" stroke="#cccccc" points="582.566,-24.1993 572.199,-22.0154 578.941,-30.1878 582.566,-24.1993"/>
</g>
<!-- Printable&#45;&gt;Float -->
<g id="edge8" class="edge">
<path fill="none" stroke="#cccccc" d="M1156.65,-237.612C1117.8,-231.102 1046.21,-217.311 988,-196 855.947,-147.655 710.096,-62.2859 652.921,-27.4527"/>
<polygon fill="#cccccc" stroke="#cccccc" points="654.571,-24.3585 644.215,-22.1201 650.915,-30.3278 654.571,-24.3585"/>
</g>
<!-- Printable&#45;&gt;Float80 -->
<g id="edge9" class="edge">
<path fill="none" stroke="#cccccc" d="M1156.43,-234.75C1126.57,-226.769 1078.63,-212.815 1039,-196 916.332,-143.956 779.542,-61.648 724.699,-27.5689"/>
<polygon fill="#cccccc" stroke="#cccccc" points="726.359,-24.4791 716.022,-22.1538 722.653,-30.4175 726.359,-24.4791"/>
</g>
<!-- Printable&#45;&gt;HalfOpenInterval -->
<g id="edge10" class="edge">
<path fill="none" stroke="#cccccc" d="M1158.03,-231.884C1136.03,-223.286 1104.39,-210.117 1078,-196 976.056,-141.459 863.166,-61.7053 816.744,-27.9902"/>
<polygon fill="#cccccc" stroke="#cccccc" points="818.76,-25.1283 808.617,-22.0643 814.635,-30.7843 818.76,-25.1283"/>
</g>
<!-- Printable&#45;&gt;ImplicitlyUnwrappedOptional -->
<g id="edge11" class="edge">
<path fill="none" stroke="#cccccc" d="M1163.69,-231.97C1147.08,-223.608 1123.9,-210.715 1106,-196 1042.62,-143.895 982.833,-65.9268 957.166,-30.5921"/>
<polygon fill="#cccccc" stroke="#cccccc" points="959.804,-28.2654 951.124,-22.1897 954.121,-32.352 959.804,-28.2654"/>
</g>
<!-- Printable&#45;&gt;Int -->
<g id="edge12" class="edge">
<path fill="none" stroke="#cccccc" d="M1164.24,-231.903C1150.07,-223.997 1131.96,-211.713 1121,-196 1085.07,-144.478 1074.39,-68.4157 1071.26,-32.3717"/>
<polygon fill="#cccccc" stroke="#cccccc" points="1074.73,-31.8651 1070.49,-22.1571 1067.75,-32.3923 1074.73,-31.8651"/>
</g>
<!-- Printable&#45;&gt;Int16 -->
<g id="edge13" class="edge">
<path fill="none" stroke="#cccccc" d="M1167.17,-231.873C1155.05,-223.876 1139.98,-211.495 1133,-196 1107.81,-140.079 1102.14,-111.007 1133,-58 1142.66,-41.4095 1160.77,-30.3144 1177.43,-23.1854"/>
<polygon fill="#cccccc" stroke="#cccccc" points="1178.96,-26.3447 1186.99,-19.4347 1176.4,-19.828 1178.96,-26.3447"/>
</g>
<!-- Printable&#45;&gt;Int32 -->
<g id="edge14" class="edge">
<path fill="none" stroke="#cccccc" d="M1180.15,-231.708C1166.87,-201.837 1133.28,-113.71 1171,-58 1175.71,-51.041 1217.55,-35.4276 1249.42,-24.3246"/>
<polygon fill="#cccccc" stroke="#cccccc" points="1250.63,-27.6106 1258.94,-21.0383 1248.34,-20.9939 1250.63,-27.6106"/>
</g>
<!-- Printable&#45;&gt;Int64 -->
<g id="edge15" class="edge">
<path fill="none" stroke="#cccccc" d="M1183.18,-231.746C1178.4,-201.217 1168.7,-109.824 1213,-58 1216.65,-53.7345 1279.38,-34.8523 1321.13,-22.6451"/>
<polygon fill="#cccccc" stroke="#cccccc" points="1322.36,-25.9318 1330.98,-19.7736 1320.4,-19.2113 1322.36,-25.9318"/>
</g>
<!-- Printable&#45;&gt;Int8 -->
<g id="edge16" class="edge">
<path fill="none" stroke="#cccccc" d="M1186.79,-231.946C1191.5,-208.357 1206.43,-148.965 1242,-116 1276.34,-84.1768 1299.93,-102.471 1341,-80 1367.24,-65.6436 1394.08,-43.9877 1411.33,-28.9884"/>
<polygon fill="#cccccc" stroke="#cccccc" points="1413.81,-31.4683 1418.98,-22.2209 1409.17,-26.2254 1413.81,-31.4683"/>
</g>
<!-- Range -->
<g id="node20" class="node">
<g id="a_node20"><a xlink:href="/type/Range/" target="_top">
<polygon fill="#999999" stroke="#999999" points="1889,-22 1835,-22 1835,-0 1889,-0 1889,-22"/>
<text text-anchor="middle" x="1862" y="-7.4" font-family="Helvetica,sans-Serif" font-size="12.00" fill="white">Range</text>
</a>
</g>
</g>
<!-- Printable&#45;&gt;Range -->
<g id="edge17" class="edge">
<path fill="none" stroke="#cccccc" d="M1213.37,-241.892C1306.75,-241.153 1603.4,-235.666 1689,-196 1767.48,-159.631 1827.74,-70.0439 1851.26,-30.8601"/>
<polygon fill="#cccccc" stroke="#cccccc" points="1854.39,-32.4426 1856.43,-22.0472 1848.35,-28.898 1854.39,-32.4426"/>
</g>
<!-- Set -->
<g id="node21" class="node">
<g id="a_node21"><a xlink:href="/type/Set/" target="_top">
<polygon fill="#999999" stroke="#999999" points="1961,-22 1907,-22 1907,-0 1961,-0 1961,-22"/>
<text text-anchor="middle" x="1934" y="-7.4" font-family="Helvetica,sans-Serif" font-size="12.00" fill="white">Set</text>
</a>
</g>
</g>
<!-- Printable&#45;&gt;Set -->
<g id="edge18" class="edge">
<path fill="none" stroke="#cccccc" d="M1213.63,-241.684C1310.82,-240.282 1627.26,-232.921 1721,-196 1811.08,-160.523 1889.3,-69.7568 1920.07,-30.5252"/>
<polygon fill="#cccccc" stroke="#cccccc" points="1923.2,-32.1948 1926.54,-22.1384 1917.66,-27.9204 1923.2,-32.1948"/>
</g>
<!-- StaticString -->
<g id="node23" class="node">
<g id="a_node23"><a xlink:href="/type/StaticString/" target="_top">
<polygon fill="#999999" stroke="#999999" points="2050.52,-22 1979.48,-22 1979.48,-0 2050.52,-0 2050.52,-22"/>
<text text-anchor="middle" x="2015" y="-7.4" font-family="Helvetica,sans-Serif" font-size="12.00" fill="white">StaticString</text>
</a>
</g>
</g>
<!-- Printable&#45;&gt;StaticString -->
<g id="edge19" class="edge">
<path fill="none" stroke="#cccccc" d="M1213.61,-241.568C1314.64,-239.754 1653.97,-231.126 1756,-196 1860.2,-160.128 1959.51,-68.179 1998.09,-29.5292"/>
<polygon fill="#cccccc" stroke="#cccccc" points="2000.86,-31.7092 2005.39,-22.1302 1995.87,-26.7955 2000.86,-31.7092"/>
</g>
<!-- String.UTF16View -->
<g id="node24" class="node">
<g id="a_node24"><a xlink:href="/type/String.UTF16View/" target="_top">
<polygon fill="#999999" stroke="#999999" points="2175.37,-22 2068.63,-22 2068.63,-0 2175.37,-0 2175.37,-22"/>
<text text-anchor="middle" x="2122" y="-7.4" font-family="Helvetica,sans-Serif" font-size="12.00" fill="white">String.UTF16View</text>
</a>
</g>
</g>
<!-- Printable&#45;&gt;String.UTF16View -->
<g id="edge27" class="edge">
<path fill="none" stroke="#cccccc" d="M1213.64,-241.471C1318.91,-239.273 1684.01,-229.362 1795,-196 1920.65,-158.232 2050.99,-66.0012 2100.87,-28.3816"/>
<polygon fill="#cccccc" stroke="#cccccc" points="2103.13,-31.0613 2108.97,-22.2197 2098.89,-25.4912 2103.13,-31.0613"/>
</g>
<!-- String.UTF8View -->
<g id="node25" class="node">
<g id="a_node25"><a xlink:href="/type/String.UTF8View/" target="_top">
<polygon fill="#999999" stroke="#999999" points="2294.36,-22 2193.64,-22 2193.64,-0 2294.36,-0 2294.36,-22"/>
<text text-anchor="middle" x="2244" y="-7.4" font-family="Helvetica,sans-Serif" font-size="12.00" fill="white">String.UTF8View</text>
</a>
</g>
</g>
<!-- Printable&#45;&gt;String.UTF8View -->
<g id="edge28" class="edge">
<path fill="none" stroke="#cccccc" d="M1213.71,-241.334C1323.67,-238.573 1717.91,-226.704 1839,-196 1991.02,-157.453 2156.71,-64.2768 2218.72,-27.3984"/>
<polygon fill="#cccccc" stroke="#cccccc" points="2220.65,-30.32 2227.43,-22.1791 2217.06,-24.3148 2220.65,-30.32"/>
</g>
<!-- String.UnicodeScalarView -->
<g id="node26" class="node">
<g id="a_node26"><a xlink:href="/type/String.UnicodeScalarView/" target="_top">
<polygon fill="#999999" stroke="#999999" points="2460.89,-22 2313.11,-22 2313.11,-0 2460.89,-0 2460.89,-22"/>
<text text-anchor="middle" x="2387" y="-7.4" font-family="Helvetica,sans-Serif" font-size="12.00" fill="white">String.UnicodeScalarView</text>
</a>
</g>
</g>
<!-- Printable&#45;&gt;String.UnicodeScalarView -->
<g id="edge29" class="edge">
<path fill="none" stroke="#cccccc" d="M1213.46,-241.235C1328.14,-237.981 1756.62,-224.159 1889,-196 2073.21,-156.817 2280.61,-62.9662 2356.84,-26.6747"/>
<polygon fill="#cccccc" stroke="#cccccc" points="2358.79,-29.6206 2366.3,-22.1447 2355.76,-23.3072 2358.79,-29.6206"/>
</g>
<!-- UInt -->
<g id="node27" class="node">
<g id="a_node27"><a xlink:href="/type/UInt/" target="_top">
<polygon fill="#999999" stroke="#999999" points="1529,-22 1475,-22 1475,-0 1529,-0 1529,-22"/>
<text text-anchor="middle" x="1502" y="-7.4" font-family="Helvetica,sans-Serif" font-size="12.00" fill="white">UInt</text>
</a>
</g>
</g>
<!-- Printable&#45;&gt;UInt -->
<g id="edge20" class="edge">
<path fill="none" stroke="#cccccc" d="M1213.7,-241.769C1259.06,-240.24 1348.87,-232.403 1414,-196 1444.74,-178.816 1450.91,-168.796 1468,-138 1487.06,-103.658 1495.9,-58.0512 1499.62,-32.1819"/>
<polygon fill="#cccccc" stroke="#cccccc" points="1503.11,-32.4666 1500.95,-22.0945 1496.17,-31.5503 1503.11,-32.4666"/>
</g>
<!-- UInt16 -->
<g id="node28" class="node">
<g id="a_node28"><a xlink:href="/type/UInt16/" target="_top">
<polygon fill="#999999" stroke="#999999" points="1601,-22 1547,-22 1547,-0 1601,-0 1601,-22"/>
<text text-anchor="middle" x="1574" y="-7.4" font-family="Helvetica,sans-Serif" font-size="12.00" fill="white">UInt16</text>
</a>
</g>
</g>
<!-- Printable&#45;&gt;UInt16 -->
<g id="edge21" class="edge">
<path fill="none" stroke="#cccccc" d="M1213.44,-240.328C1306.73,-234.184 1600.6,-209.367 1655,-138 1663.43,-126.941 1669.75,-87.2859 1652,-58 1642.69,-42.6348 1626.15,-31.821 1610.69,-24.557"/>
<polygon fill="#cccccc" stroke="#cccccc" points="1611.84,-21.243 1601.27,-20.4839 1609.06,-27.6674 1611.84,-21.243"/>
</g>
<!-- UInt32 -->
<g id="node29" class="node">
<g id="a_node29"><a xlink:href="/type/UInt32/" target="_top">
<polygon fill="#999999" stroke="#999999" points="1673,-22 1619,-22 1619,-0 1673,-0 1673,-22"/>
<text text-anchor="middle" x="1646" y="-7.4" font-family="Helvetica,sans-Serif" font-size="12.00" fill="white">UInt32</text>
</a>
</g>
</g>
<!-- Printable&#45;&gt;UInt32 -->
<g id="edge22" class="edge">
<path fill="none" stroke="#cccccc" d="M1213.61,-240.355C1292.83,-235.537 1513.76,-220.247 1582,-196 1627.19,-179.942 1649.94,-180.051 1673,-138 1677.79,-129.274 1680.62,-93.2953 1671,-58 1668.39,-48.4195 1663.45,-38.6385 1658.65,-30.5729"/>
<polygon fill="#cccccc" stroke="#cccccc" points="1661.53,-28.5823 1653.23,-22.0075 1655.62,-32.3282 1661.53,-28.5823"/>
</g>
<!-- UInt64 -->
<g id="node30" class="node">
<g id="a_node30"><a xlink:href="/type/UInt64/" target="_top">
<polygon fill="#999999" stroke="#999999" points="1745,-22 1691,-22 1691,-0 1745,-0 1745,-22"/>
<text text-anchor="middle" x="1718" y="-7.4" font-family="Helvetica,sans-Serif" font-size="12.00" fill="white">UInt64</text>
</a>
</g>
</g>
<!-- Printable&#45;&gt;UInt64 -->
<g id="edge23" class="edge">
<path fill="none" stroke="#cccccc" d="M1213.61,-241.323C1299.15,-238.94 1551.67,-229.2 1626,-196 1661.05,-180.344 1670.71,-171.186 1690,-138 1709.52,-104.418 1715.45,-58.5421 1717.23,-32.4197"/>
<polygon fill="#cccccc" stroke="#cccccc" points="1720.74,-32.3993 1717.79,-22.2243 1713.75,-32.0199 1720.74,-32.3993"/>
</g>
<!-- UInt8 -->
<g id="node31" class="node">
<g id="a_node31"><a xlink:href="/type/UInt8/" target="_top">
<polygon fill="#999999" stroke="#999999" points="1817,-22 1763,-22 1763,-0 1817,-0 1817,-22"/>
<text text-anchor="middle" x="1790" y="-7.4" font-family="Helvetica,sans-Serif" font-size="12.00" fill="white">UInt8</text>
</a>
</g>
</g>
<!-- Printable&#45;&gt;UInt8 -->
<g id="edge24" class="edge">
<path fill="none" stroke="#cccccc" d="M1213.36,-241.943C1303.23,-241.348 1580.44,-236.218 1659,-196 1727.57,-160.898 1768.04,-71.3198 1783.16,-31.5415"/>
<polygon fill="#cccccc" stroke="#cccccc" points="1786.45,-32.7387 1786.61,-22.145 1779.88,-30.3273 1786.45,-32.7387"/>
</g>
<!-- UnicodeScalar -->
<g id="node32" class="node">
<g id="a_node32"><a xlink:href="/type/UnicodeScalar/" target="_top">
<polygon fill="#999999" stroke="#999999" points="2567.03,-22 2478.97,-22 2478.97,-0 2567.03,-0 2567.03,-22"/>
<text text-anchor="middle" x="2523" y="-7.4" font-family="Helvetica,sans-Serif" font-size="12.00" fill="white">UnicodeScalar</text>
</a>
</g>
</g>
<!-- Printable&#45;&gt;UnicodeScalar -->
<g id="edge25" class="edge">
<path fill="none" stroke="#cccccc" d="M1213.65,-241.201C1334.29,-237.693 1801.35,-222.635 1946,-196 2030.74,-180.396 2048.87,-164.073 2131,-138 2259.26,-97.2829 2410.85,-48.3182 2482.11,-25.2509"/>
<polygon fill="#cccccc" stroke="#cccccc" points="2483.59,-28.4497 2492.03,-22.0394 2481.43,-21.79 2483.59,-28.4497"/>
</g>
<!-- _IntegerType -->
<g id="node34" class="node">
<g id="a_node34"><a xlink:href="/protocol/_IntegerType/" target="_top">
<path fill="#999999" stroke="#999999" d="M1397.71,-196C1397.71,-196 1332.29,-196 1332.29,-196 1328.63,-196 1324.96,-192.333 1324.96,-188.667 1324.96,-188.667 1324.96,-181.333 1324.96,-181.333 1324.96,-177.667 1328.63,-174 1332.29,-174 1332.29,-174 1397.71,-174 1397.71,-174 1401.37,-174 1405.04,-177.667 1405.04,-181.333 1405.04,-181.333 1405.04,-188.667 1405.04,-188.667 1405.04,-192.333 1401.37,-196 1397.71,-196"/>
<text text-anchor="middle" x="1365" y="-181.4" font-family="Helvetica,sans-Serif" font-size="12.00" fill="white">_IntegerType</text>
</a>
</g>
</g>
<!-- Printable&#45;&gt;_IntegerType -->
<g id="edge26" class="edge">
<path fill="none" stroke="#cccccc" d="M1213.52,-233.127C1243.03,-223.948 1289.41,-209.516 1323.09,-199.04"/>
<polygon fill="#cccccc" stroke="#cccccc" points="1324.15,-202.375 1332.66,-196.062 1322.07,-195.691 1324.15,-202.375"/>
</g>
<!-- SignedIntegerType&#45;&gt;Int -->
<g id="edge36" class="edge">
<path fill="none" stroke="#cccccc" d="M1239.28,-57.9476C1206.71,-49.2478 1158.14,-36.2225 1107.03,-22.2677"/>
<polygon fill="#cccccc" stroke="#cccccc" points="1107.69,-18.8194 1097.12,-19.5589 1105.84,-25.5717 1107.69,-18.8194"/>
</g>
<!-- SignedIntegerType&#45;&gt;Int16 -->
<g id="edge37" class="edge">
<path fill="none" stroke="#cccccc" d="M1265.74,-57.9883C1256.71,-49.966 1243.84,-38.5272 1233.2,-29.065"/>
<polygon fill="#cccccc" stroke="#cccccc" points="1235.39,-26.3316 1225.59,-22.3039 1230.74,-31.5635 1235.39,-26.3316"/>
</g>
<!-- SignedIntegerType&#45;&gt;Int32 -->
<g id="edge38" class="edge">
<path fill="none" stroke="#cccccc" d="M1278.61,-57.9883C1279.76,-50.8311 1281.35,-40.9547 1282.76,-32.1885"/>
<polygon fill="#cccccc" stroke="#cccccc" points="1286.21,-32.7326 1284.34,-22.3039 1279.3,-31.6218 1286.21,-32.7326"/>
</g>
<!-- SignedIntegerType&#45;&gt;Int64 -->
<g id="edge39" class="edge">
<path fill="none" stroke="#cccccc" d="M1291.48,-57.9883C1303.5,-49.6784 1320.82,-37.7028 1334.78,-28.0554"/>
<polygon fill="#cccccc" stroke="#cccccc" points="1337.14,-30.6796 1343.37,-22.1138 1333.16,-24.9217 1337.14,-30.6796"/>
</g>
<!-- SignedIntegerType&#45;&gt;Int8 -->
<g id="edge40" class="edge">
<path fill="none" stroke="#cccccc" d="M1304.35,-57.9883C1329.16,-48.9101 1365.91,-35.4569 1393.27,-25.4439"/>
<polygon fill="#cccccc" stroke="#cccccc" points="1394.7,-28.649 1402.88,-21.925 1392.29,-22.0754 1394.7,-28.649"/>
</g>
<!-- UnsignedIntegerType&#45;&gt;UInt -->
<g id="edge41" class="edge">
<path fill="none" stroke="#cccccc" d="M1566.88,-57.9883C1555.15,-49.6784 1538.26,-37.7028 1524.65,-28.0554"/>
<polygon fill="#cccccc" stroke="#cccccc" points="1526.45,-25.0415 1516.27,-22.1138 1522.4,-30.7523 1526.45,-25.0415"/>
</g>
<!-- UnsignedIntegerType&#45;&gt;UInt16 -->
<g id="edge42" class="edge">
<path fill="none" stroke="#cccccc" d="M1579.75,-57.9883C1578.86,-50.9098 1577.65,-41.1714 1576.56,-32.4779"/>
<polygon fill="#cccccc" stroke="#cccccc" points="1580,-31.7925 1575.29,-22.3039 1573.06,-32.6608 1580,-31.7925"/>
</g>
<!-- UnsignedIntegerType&#45;&gt;UInt32 -->
<g id="edge43" class="edge">
<path fill="none" stroke="#cccccc" d="M1592.62,-57.9883C1601.93,-49.966 1615.21,-38.5272 1626.19,-29.065"/>
<polygon fill="#cccccc" stroke="#cccccc" points="1628.75,-31.4826 1634.04,-22.3039 1624.18,-26.1794 1628.75,-31.4826"/>
</g>
<!-- UnsignedIntegerType&#45;&gt;UInt64 -->
<g id="edge44" class="edge">
<path fill="none" stroke="#cccccc" d="M1605.49,-57.9883C1627.27,-49.0849 1659.35,-35.9733 1683.69,-26.0259"/>
<polygon fill="#cccccc" stroke="#cccccc" points="1685.33,-29.1374 1693.26,-22.1138 1682.68,-22.6578 1685.33,-29.1374"/>
</g>
<!-- UnsignedIntegerType&#45;&gt;UInt8 -->
<g id="edge45" class="edge">
<path fill="none" stroke="#cccccc" d="M1619.17,-57.9804C1652.19,-49.2834 1701.47,-36.2361 1753.2,-22.1991"/>
<polygon fill="#cccccc" stroke="#cccccc" points="1754.15,-25.5673 1762.88,-19.5674 1752.31,-18.8123 1754.15,-25.5673"/>
</g>
<!-- _IntegerType&#45;&gt;IntegerType -->
<g id="edge31" class="edge">
<path fill="none" stroke="#cccccc" d="M1375.37,-173.988C1383.6,-166.045 1395.29,-154.751 1405.04,-145.344"/>
<polygon fill="#cccccc" stroke="#cccccc" points="1407.57,-147.768 1412.33,-138.304 1402.7,-142.732 1407.57,-147.768"/>
</g>
<!-- _SignedIntegerType -->
<g id="node35" class="node">
<g id="a_node35"><a xlink:href="/protocol/_SignedIntegerType/" target="_top">
<path fill="#999999" stroke="#999999" d="M1361.23,-138C1361.23,-138 1258.77,-138 1258.77,-138 1255.1,-138 1251.44,-134.333 1251.44,-130.667 1251.44,-130.667 1251.44,-123.333 1251.44,-123.333 1251.44,-119.667 1255.1,-116 1258.77,-116 1258.77,-116 1361.23,-116 1361.23,-116 1364.9,-116 1368.56,-119.667 1368.56,-123.333 1368.56,-123.333 1368.56,-130.667 1368.56,-130.667 1368.56,-134.333 1364.9,-138 1361.23,-138"/>
<text text-anchor="middle" x="1310" y="-123.4" font-family="Helvetica,sans-Serif" font-size="12.00" fill="white">_SignedIntegerType</text>
</a>
</g>
</g>
<!-- _IntegerType&#45;&gt;_SignedIntegerType -->
<g id="edge32" class="edge">
<path fill="none" stroke="#cccccc" d="M1355.17,-173.988C1347.44,-166.123 1336.49,-154.974 1327.31,-145.624"/>
<polygon fill="#cccccc" stroke="#cccccc" points="1329.62,-142.986 1320.12,-138.304 1324.63,-147.891 1329.62,-142.986"/>
</g>
<!-- _UnsignedIntegerType -->
<g id="node36" class="node">
<g id="a_node36"><a xlink:href="/protocol/_UnsignedIntegerType/" target="_top">
<path fill="#999999" stroke="#999999" d="M1638.73,-138C1638.73,-138 1523.27,-138 1523.27,-138 1519.6,-138 1515.93,-134.333 1515.93,-130.667 1515.93,-130.667 1515.93,-123.333 1515.93,-123.333 1515.93,-119.667 1519.6,-116 1523.27,-116 1523.27,-116 1638.73,-116 1638.73,-116 1642.4,-116 1646.07,-119.667 1646.07,-123.333 1646.07,-123.333 1646.07,-130.667 1646.07,-130.667 1646.07,-134.333 1642.4,-138 1638.73,-138"/>
<text text-anchor="middle" x="1581" y="-123.4" font-family="Helvetica,sans-Serif" font-size="12.00" fill="white">_UnsignedIntegerType</text>
</a>
</g>
</g>
<!-- _IntegerType&#45;&gt;_UnsignedIntegerType -->
<g id="edge33" class="edge">
<path fill="none" stroke="#cccccc" d="M1403.62,-173.988C1439.6,-164.66 1493.39,-150.713 1532.3,-140.625"/>
<polygon fill="#cccccc" stroke="#cccccc" points="1533.55,-143.917 1542.35,-138.019 1531.8,-137.141 1533.55,-143.917"/>
</g>
<!-- _SignedIntegerType&#45;&gt;SignedIntegerType -->
<g id="edge46" class="edge">
<path fill="none" stroke="#cccccc" d="M1304.1,-115.988C1299.7,-108.517 1293.55,-98.0812 1288.22,-89.0393"/>
<polygon fill="#cccccc" stroke="#cccccc" points="1291.16,-87.1423 1283.07,-80.3039 1285.13,-90.6962 1291.16,-87.1423"/>
</g>
<!-- _UnsignedIntegerType&#45;&gt;UnsignedIntegerType -->
<g id="edge47" class="edge">
<path fill="none" stroke="#cccccc" d="M1581,-115.988C1581,-108.91 1581,-99.1714 1581,-90.4779"/>
<polygon fill="#cccccc" stroke="#cccccc" points="1584.5,-90.3038 1581,-80.3039 1577.5,-90.3039 1584.5,-90.3038"/>
</g>
</g>
</svg>
