<?xml version="1.0" encoding="UTF-8" standalone="no"?>
<!DOCTYPE svg PUBLIC "-//W3C//DTD SVG 1.1//EN"
 "http://www.w3.org/Graphics/SVG/1.1/DTD/svg11.dtd">
<!-- Generated by graphviz version 2.36.0 (20140111.2315)
 -->
<!-- Title: ReverseBidirectionalIndex&lt;I : BidirectionalIndexType&gt; &#45; Type Hierarchy &#45; SwiftDoc.org Pages: 1 -->
<svg width="310pt" height="427pt"
 viewBox="0.00 0.00 310.40 427.20" xmlns="http://www.w3.org/2000/svg" xmlns:xlink="http://www.w3.org/1999/xlink">
<g id="graph0" class="graph" transform="scale(1 1) rotate(0) translate(7.2 369.6)">
<title>ReverseBidirectionalIndex&lt;I : BidirectionalIndexType&gt; &#45; Type Hierarchy &#45; SwiftDoc.org</title>
<polygon fill="white" stroke="none" points="-7.2,57.6 -7.2,-369.6 303.2,-369.6 303.2,57.6 -7.2,57.6"/>
<!-- BidirectionalIndexType -->
<g id="node1" class="node"><title>BidirectionalIndexType</title>
<g id="a_node1"><a xlink:href="/protocol/BidirectionalIndexType/" xlink:title="BidirectionalIndexType">
<path fill="#999999" stroke="#999999" d="M205.725,-80C205.725,-80 90.2746,-80 90.2746,-80 86.6079,-80 82.9413,-76.3333 82.9413,-72.6667 82.9413,-72.6667 82.9413,-65.3333 82.9413,-65.3333 82.9413,-61.6667 86.6079,-58 90.2746,-58 90.2746,-58 205.725,-58 205.725,-58 209.392,-58 213.059,-61.6667 213.059,-65.3333 213.059,-65.3333 213.059,-72.6667 213.059,-72.6667 213.059,-76.3333 209.392,-80 205.725,-80"/>
<text text-anchor="middle" x="148" y="-65.4" font-family="Helvetica,sans-Serif" font-size="12.00" fill="white">BidirectionalIndexType</text>
</a>
</g>
</g>
<!-- ReverseBidirectionalIndex&lt;I : BidirectionalIndexType&gt; -->
<g id="node4" class="node"><title>ReverseBidirectionalIndex&lt;I : BidirectionalIndexType&gt;</title>
<g id="a_node4"><a xlink:href="/type/ReverseBidirectionalIndex/" xlink:title="ReverseBidirectionalIndex&lt;I : BidirectionalIndexType&gt;">
<polygon fill="#ee543d" stroke="#ee543d" points="296.128,-22 -0.127509,-22 -0.127509,-0 296.128,-0 296.128,-22"/>
<text text-anchor="middle" x="148" y="-7.4" font-family="Helvetica,sans-Serif" font-size="12.00" fill="white">ReverseBidirectionalIndex&lt;I : BidirectionalIndexType&gt;</text>
</a>
</g>
</g>
<!-- BidirectionalIndexType&#45;&gt;ReverseBidirectionalIndex&lt;I : BidirectionalIndexType&gt; -->
<g id="edge1" class="edge"><title>BidirectionalIndexType&#45;&gt;ReverseBidirectionalIndex&lt;I : BidirectionalIndexType&gt;</title>
<path fill="none" stroke="#cccccc" d="M148,-57.9883C148,-50.9098 148,-41.1714 148,-32.4779"/>
<polygon fill="#cccccc" stroke="#cccccc" points="151.5,-32.3038 148,-22.3039 144.5,-32.3039 151.5,-32.3038"/>
</g>
<!-- Equatable -->
<g id="node2" class="node"><title>Equatable</title>
<g id="a_node2"><a xlink:href="/protocol/Equatable/" xlink:title="Equatable">
<path fill="#999999" stroke="#999999" d="M172.702,-312C172.702,-312 123.298,-312 123.298,-312 119.632,-312 115.965,-308.333 115.965,-304.667 115.965,-304.667 115.965,-297.333 115.965,-297.333 115.965,-293.667 119.632,-290 123.298,-290 123.298,-290 172.702,-290 172.702,-290 176.368,-290 180.035,-293.667 180.035,-297.333 180.035,-297.333 180.035,-304.667 180.035,-304.667 180.035,-308.333 176.368,-312 172.702,-312"/>
<text text-anchor="middle" x="148" y="-297.4" font-family="Helvetica,sans-Serif" font-size="12.00" fill="white">Equatable</text>
</a>
</g>
</g>
<!-- _Incrementable -->
<g id="node7" class="node"><title>_Incrementable</title>
<g id="a_node7"><a xlink:href="/protocol/_Incrementable/" xlink:title="_Incrementable">
<path fill="#999999" stroke="#999999" d="M186.705,-254C186.705,-254 109.295,-254 109.295,-254 105.628,-254 101.961,-250.333 101.961,-246.667 101.961,-246.667 101.961,-239.333 101.961,-239.333 101.961,-235.667 105.628,-232 109.295,-232 109.295,-232 186.705,-232 186.705,-232 190.372,-232 194.039,-235.667 194.039,-239.333 194.039,-239.333 194.039,-246.667 194.039,-246.667 194.039,-250.333 190.372,-254 186.705,-254"/>
<text text-anchor="middle" x="148" y="-239.4" font-family="Helvetica,sans-Serif" font-size="12.00" fill="white">_Incrementable</text>
</a>
</g>
</g>
<!-- Equatable&#45;&gt;_Incrementable -->
<g id="edge6" class="edge"><title>Equatable&#45;&gt;_Incrementable</title>
<path fill="none" stroke="#cccccc" d="M148,-289.988C148,-282.91 148,-273.171 148,-264.478"/>
<polygon fill="#cccccc" stroke="#cccccc" points="151.5,-264.304 148,-254.304 144.5,-264.304 151.5,-264.304"/>
</g>
<!-- ForwardIndexType -->
<g id="node3" class="node"><title>ForwardIndexType</title>
<g id="a_node3"><a xlink:href="/protocol/ForwardIndexType/" xlink:title="ForwardIndexType">
<path fill="#999999" stroke="#999999" d="M125.206,-138C125.206,-138 30.7938,-138 30.7938,-138 27.1272,-138 23.4605,-134.333 23.4605,-130.667 23.4605,-130.667 23.4605,-123.333 23.4605,-123.333 23.4605,-119.667 27.1272,-116 30.7938,-116 30.7938,-116 125.206,-116 125.206,-116 128.873,-116 132.539,-119.667 132.539,-123.333 132.539,-123.333 132.539,-130.667 132.539,-130.667 132.539,-134.333 128.873,-138 125.206,-138"/>
<text text-anchor="middle" x="78" y="-123.4" font-family="Helvetica,sans-Serif" font-size="12.00" fill="white">ForwardIndexType</text>
</a>
</g>
</g>
<!-- ForwardIndexType&#45;&gt;BidirectionalIndexType -->
<g id="edge2" class="edge"><title>ForwardIndexType&#45;&gt;BidirectionalIndexType</title>
<path fill="none" stroke="#cccccc" d="M90.5146,-115.988C100.641,-107.887 115.122,-96.3026 127.016,-86.7873"/>
<polygon fill="#cccccc" stroke="#cccccc" points="129.498,-89.2839 135.12,-80.3039 125.125,-83.8178 129.498,-89.2839"/>
</g>
<!-- _BidirectionalIndexType -->
<g id="node5" class="node"><title>_BidirectionalIndexType</title>
<g id="a_node5"><a xlink:href="/protocol/_BidirectionalIndexType/" xlink:title="_BidirectionalIndexType">
<path fill="#999999" stroke="#999999" d="M280.23,-138C280.23,-138 157.77,-138 157.77,-138 154.104,-138 150.437,-134.333 150.437,-130.667 150.437,-130.667 150.437,-123.333 150.437,-123.333 150.437,-119.667 154.104,-116 157.77,-116 157.77,-116 280.23,-116 280.23,-116 283.896,-116 287.563,-119.667 287.563,-123.333 287.563,-123.333 287.563,-130.667 287.563,-130.667 287.563,-134.333 283.896,-138 280.23,-138"/>
<text text-anchor="middle" x="219" y="-123.4" font-family="Helvetica,sans-Serif" font-size="12.00" fill="white">_BidirectionalIndexType</text>
</a>
</g>
</g>
<!-- _BidirectionalIndexType&#45;&gt;BidirectionalIndexType -->
<g id="edge3" class="edge"><title>_BidirectionalIndexType&#45;&gt;BidirectionalIndexType</title>
<path fill="none" stroke="#cccccc" d="M206.307,-115.988C195.936,-107.809 181.062,-96.0773 168.933,-86.5108"/>
<polygon fill="#cccccc" stroke="#cccccc" points="171.083,-83.7487 161.064,-80.3039 166.748,-89.2449 171.083,-83.7487"/>
</g>
<!-- _ForwardIndexType -->
<g id="node6" class="node"><title>_ForwardIndexType</title>
<g id="a_node6"><a xlink:href="/protocol/_ForwardIndexType/" xlink:title="_ForwardIndexType">
<path fill="#999999" stroke="#999999" d="M198.712,-196C198.712,-196 97.2879,-196 97.2879,-196 93.6212,-196 89.9546,-192.333 89.9546,-188.667 89.9546,-188.667 89.9546,-181.333 89.9546,-181.333 89.9546,-177.667 93.6212,-174 97.2879,-174 97.2879,-174 198.712,-174 198.712,-174 202.379,-174 206.045,-177.667 206.045,-181.333 206.045,-181.333 206.045,-188.667 206.045,-188.667 206.045,-192.333 202.379,-196 198.712,-196"/>
<text text-anchor="middle" x="148" y="-181.4" font-family="Helvetica,sans-Serif" font-size="12.00" fill="white">_ForwardIndexType</text>
</a>
</g>
</g>
<!-- _ForwardIndexType&#45;&gt;ForwardIndexType -->
<g id="edge4" class="edge"><title>_ForwardIndexType&#45;&gt;ForwardIndexType</title>
<path fill="none" stroke="#cccccc" d="M135.485,-173.988C125.359,-165.887 110.878,-154.303 98.9842,-144.787"/>
<polygon fill="#cccccc" stroke="#cccccc" points="100.875,-141.818 90.8798,-138.304 96.5021,-147.284 100.875,-141.818"/>
</g>
<!-- _ForwardIndexType&#45;&gt;_BidirectionalIndexType -->
<g id="edge7" class="edge"><title>_ForwardIndexType&#45;&gt;_BidirectionalIndexType</title>
<path fill="none" stroke="#cccccc" d="M160.693,-173.988C171.064,-165.809 185.938,-154.077 198.067,-144.511"/>
<polygon fill="#cccccc" stroke="#cccccc" points="200.252,-147.245 205.936,-138.304 195.917,-141.749 200.252,-147.245"/>
</g>
<!-- _Incrementable&#45;&gt;_ForwardIndexType -->
<g id="edge5" class="edge"><title>_Incrementable&#45;&gt;_ForwardIndexType</title>
<path fill="none" stroke="#cccccc" d="M148,-231.988C148,-224.91 148,-215.171 148,-206.478"/>
<polygon fill="#cccccc" stroke="#cccccc" points="151.5,-206.304 148,-196.304 144.5,-206.304 151.5,-206.304"/>
</g>
</g>
</svg>
