<?xml version="1.0" encoding="UTF-8" standalone="no"?>
<!DOCTYPE svg PUBLIC "-//W3C//DTD SVG 1.1//EN"
 "http://www.w3.org/Graphics/SVG/1.1/DTD/svg11.dtd">
<!-- Generated by graphviz version 2.36.0 (20140111.2315)
 -->
<!-- Title: ContiguousArray&lt;Element&gt; &#45; Type Hierarchy &#45; SwiftDoc.org Pages: 1 -->
<svg width="1483pt" height="543pt"
 viewBox="0.00 0.00 1483.40 543.20" xmlns="http://www.w3.org/2000/svg" xmlns:xlink="http://www.w3.org/1999/xlink">
<g id="graph0" class="graph" transform="scale(1 1) rotate(0) translate(7.2 485.6)">
<g transform="translate(0 -485.6)">
<g>
    <path fill="#666666" d="M13.846,10.832c-0.336-0.464-0.792-0.844-1.368-1.14s-1.224-0.444-1.944-0.444
        c-0.384,0-0.772,0.052-1.164,0.156C8.977,9.509,8.622,9.677,8.301,9.908c-0.32,0.232-0.58,0.52-0.78,0.864
        c-0.2,0.344-0.3,0.756-0.3,1.236c0,0.464,0.092,0.852,0.276,1.164c0.184,0.312,0.432,0.576,0.744,0.792s0.68,0.4,1.104,0.552
        c0.423,0.152,0.876,0.309,1.356,0.468c0.576,0.177,1.16,0.376,1.752,0.601c0.592,0.224,1.128,0.52,1.608,0.888
        s0.872,0.828,1.176,1.38s0.456,1.252,0.456,2.101c0,0.88-0.164,1.644-0.492,2.292c-0.328,0.647-0.765,1.184-1.308,1.607
        c-0.544,0.424-1.172,0.74-1.884,0.948s-1.444,0.312-2.196,0.312c-1.072,0-2.108-0.208-3.108-0.624
        c-1-0.415-1.828-1.031-2.484-1.848l1.848-1.56c0.4,0.592,0.936,1.071,1.608,1.439c0.672,0.368,1.399,0.552,2.184,0.552
        c0.4,0,0.8-0.056,1.2-0.168c0.4-0.111,0.764-0.288,1.092-0.527c0.328-0.24,0.596-0.54,0.804-0.9
        c0.208-0.36,0.312-0.796,0.312-1.308s-0.108-0.94-0.324-1.284c-0.216-0.344-0.508-0.636-0.876-0.876s-0.796-0.444-1.284-0.612
        c-0.488-0.168-1.004-0.34-1.548-0.516c-0.544-0.16-1.08-0.356-1.608-0.588c-0.528-0.232-1-0.528-1.416-0.889
        c-0.416-0.359-0.752-0.804-1.008-1.332c-0.256-0.527-0.384-1.184-0.384-1.968c0-0.848,0.172-1.576,0.516-2.184
        c0.344-0.608,0.792-1.112,1.344-1.512c0.552-0.4,1.176-0.692,1.872-0.876c0.696-0.184,1.396-0.276,2.1-0.276
        c0.992,0,1.92,0.176,2.784,0.528c0.864,0.352,1.56,0.824,2.088,1.416L13.846,10.832z"/>
    <path fill="#666666" d="M18.813,13.304l2.568,8.688h0.048l2.712-8.688h2.376l2.76,8.688h0.048l2.568-8.688h2.376L30.501,24.68
        h-2.352l-2.808-8.544h-0.048l-2.784,8.544h-2.352l-3.792-11.376H18.813z"/>
    <path fill="#666666" d="M38.685,9.2c0,0.416-0.147,0.76-0.44,1.032c-0.294,0.272-0.647,0.408-1.06,0.408s-0.762-0.14-1.047-0.42
        c-0.286-0.28-0.429-0.62-0.429-1.02c0-0.416,0.143-0.764,0.429-1.044c0.286-0.28,0.635-0.42,1.047-0.42s0.766,0.14,1.06,0.42
        C38.538,8.437,38.685,8.784,38.685,9.2z M38.325,24.68h-2.256V13.304h2.256V24.68z"/>
    <path fill="#666666" d="M47.613,15.152h-2.64v9.528h-2.256v-9.528h-2.256v-1.848h2.256v-2.376c0-0.672,0.076-1.292,0.228-1.86
        c0.152-0.568,0.4-1.06,0.744-1.476c0.344-0.416,0.784-0.744,1.32-0.984c0.536-0.24,1.188-0.36,1.956-0.36
        c0.544,0,1.016,0.056,1.416,0.168l-0.264,1.944c-0.176-0.048-0.352-0.088-0.528-0.12c-0.176-0.032-0.376-0.048-0.6-0.048
        c-0.432,0-0.78,0.076-1.044,0.228c-0.264,0.152-0.468,0.356-0.612,0.612s-0.24,0.548-0.288,0.876
        c-0.048,0.328-0.072,0.668-0.072,1.02v2.376h2.64V15.152z"/>
    <path fill="#666666" d="M54.909,15.152h-3.024v5.91c0,0.687,0.128,1.177,0.384,1.472c0.256,0.295,0.664,0.442,1.224,0.442
        c0.208,0,0.432-0.021,0.672-0.065c0.24-0.044,0.456-0.11,0.648-0.198l0.072,1.848c-0.272,0.096-0.572,0.172-0.9,0.229
        c-0.328,0.056-0.668,0.084-1.02,0.084c-1.072,0-1.892-0.296-2.46-0.889c-0.568-0.592-0.852-1.479-0.852-2.664v-6.168h-2.184
        v-1.848h2.184V10.04h2.232v3.264h3.024V15.152z"/>
    <path fill="#666666" d="M57.356,7.688h5.832c1.088,0,2.176,0.16,3.264,0.48c1.088,0.32,2.072,0.824,2.952,1.512
        s1.592,1.568,2.136,2.64c0.544,1.072,0.816,2.36,0.816,3.864c0,1.456-0.272,2.716-0.816,3.78s-1.256,1.943-2.136,2.64
        s-1.864,1.216-2.952,1.561c-1.088,0.344-2.176,0.516-3.264,0.516h-5.832V7.688z M59.732,22.593h2.976
        c1.024,0,1.972-0.145,2.844-0.432c0.872-0.288,1.624-0.704,2.256-1.248c0.632-0.544,1.124-1.216,1.476-2.017
        c0.352-0.8,0.528-1.704,0.528-2.712c0-1.056-0.176-1.983-0.528-2.784c-0.353-0.8-0.844-1.468-1.476-2.004
        c-0.632-0.536-1.384-0.944-2.256-1.224s-1.82-0.42-2.844-0.42h-2.976V22.593z"/>
    <path fill="#666666" d="M86.06,18.969c0,0.88-0.156,1.688-0.468,2.424c-0.312,0.736-0.744,1.372-1.296,1.908
        c-0.552,0.536-1.204,0.952-1.956,1.248c-0.752,0.296-1.56,0.443-2.424,0.443c-0.864,0-1.672-0.147-2.424-0.443
        c-0.752-0.296-1.4-0.712-1.944-1.248c-0.544-0.536-0.972-1.172-1.284-1.908c-0.312-0.735-0.468-1.544-0.468-2.424
        s0.156-1.684,0.468-2.412c0.312-0.728,0.74-1.356,1.284-1.884c0.543-0.528,1.191-0.939,1.944-1.236
        c0.752-0.296,1.56-0.444,2.424-0.444c0.864,0,1.672,0.148,2.424,0.444c0.752,0.297,1.404,0.708,1.956,1.236
        c0.552,0.527,0.984,1.156,1.296,1.884C85.904,17.285,86.06,18.089,86.06,18.969z M83.708,18.98c0-0.542-0.084-1.061-0.252-1.556
        c-0.169-0.494-0.414-0.929-0.734-1.304s-0.718-0.674-1.192-0.897s-1.015-0.335-1.625-0.335c-0.61,0-1.152,0.111-1.625,0.335
        c-0.474,0.224-0.871,0.522-1.191,0.897c-0.321,0.375-0.566,0.81-0.734,1.304C76.184,17.92,76.1,18.438,76.1,18.98
        c0,0.543,0.084,1.062,0.253,1.556c0.168,0.495,0.413,0.934,0.734,1.316c0.321,0.383,0.718,0.686,1.191,0.909
        c0.473,0.224,1.015,0.335,1.625,0.335c0.61,0,1.151-0.111,1.625-0.335s0.871-0.526,1.192-0.909s0.565-0.821,0.734-1.316
        C83.624,20.042,83.708,19.523,83.708,18.98z"/>
    <path fill="#666666" d="M96.428,16.184c-0.24-0.368-0.6-0.676-1.08-0.924s-0.992-0.372-1.536-0.372
        c-0.592,0-1.116,0.112-1.572,0.336c-0.456,0.225-0.844,0.524-1.164,0.9c-0.32,0.376-0.564,0.812-0.732,1.308
        s-0.252,1.017-0.252,1.56c0,0.545,0.084,1.064,0.252,1.561s0.412,0.933,0.732,1.308c0.32,0.376,0.712,0.677,1.176,0.9
        c0.464,0.225,0.992,0.336,1.584,0.336c0.576,0,1.1-0.111,1.572-0.336c0.472-0.224,0.86-0.528,1.164-0.912l1.512,1.368
        c-0.48,0.561-1.08,0.996-1.8,1.308c-0.72,0.312-1.536,0.468-2.448,0.468c-0.88,0-1.692-0.144-2.436-0.432
        c-0.744-0.288-1.388-0.691-1.932-1.212c-0.544-0.52-0.972-1.147-1.284-1.884s-0.468-1.561-0.468-2.473
        c0-0.896,0.152-1.711,0.456-2.447c0.304-0.736,0.728-1.368,1.272-1.896c0.543-0.527,1.188-0.936,1.932-1.224
        c0.744-0.288,1.548-0.433,2.412-0.433c0.8,0,1.596,0.16,2.388,0.48s1.419,0.784,1.884,1.392L96.428,16.184z"/>
    <path fill="#666666" d="M103.1,23.24c0,0.417-0.152,0.784-0.456,1.104c-0.304,0.32-0.688,0.479-1.152,0.479
        c-0.448,0-0.828-0.155-1.14-0.468c-0.312-0.312-0.468-0.676-0.468-1.092c0-0.432,0.152-0.804,0.456-1.116
        c0.304-0.312,0.688-0.468,1.152-0.468c0.464,0,0.848,0.152,1.152,0.456C102.947,22.44,103.1,22.808,103.1,23.24z"/>
    <path fill="#666666" d="M116.635,18.969c0,0.88-0.156,1.688-0.468,2.424c-0.312,0.736-0.744,1.372-1.296,1.908
        c-0.552,0.536-1.204,0.952-1.956,1.248c-0.752,0.296-1.56,0.443-2.424,0.443c-0.864,0-1.672-0.147-2.424-0.443
        c-0.752-0.296-1.4-0.712-1.944-1.248c-0.544-0.536-0.972-1.172-1.284-1.908c-0.312-0.735-0.468-1.544-0.468-2.424
        s0.156-1.684,0.468-2.412c0.312-0.728,0.74-1.356,1.284-1.884c0.543-0.528,1.191-0.939,1.944-1.236
        c0.752-0.296,1.56-0.444,2.424-0.444c0.864,0,1.672,0.148,2.424,0.444c0.752,0.297,1.404,0.708,1.956,1.236
        c0.552,0.527,0.984,1.156,1.296,1.884C116.479,17.285,116.635,18.089,116.635,18.969z M114.283,18.98
        c0-0.542-0.084-1.061-0.252-1.556c-0.169-0.494-0.414-0.929-0.734-1.304s-0.718-0.674-1.192-0.897s-1.015-0.335-1.625-0.335
        c-0.61,0-1.152,0.111-1.625,0.335c-0.474,0.224-0.871,0.522-1.191,0.897c-0.321,0.375-0.566,0.81-0.734,1.304
        c-0.169,0.495-0.253,1.014-0.253,1.556c0,0.543,0.084,1.062,0.253,1.556c0.168,0.495,0.413,0.934,0.734,1.316
        c0.321,0.383,0.718,0.686,1.191,0.909c0.473,0.224,1.015,0.335,1.625,0.335c0.61,0,1.151-0.111,1.625-0.335
        s0.871-0.526,1.192-0.909s0.565-0.821,0.734-1.316C114.199,20.042,114.283,19.523,114.283,18.98z"/>
    <path fill="#666666" d="M119.251,14.577c-0.016-0.48-0.04-0.904-0.072-1.272h2.136c0.032,0.288,0.056,0.62,0.072,0.996
        c0.016,0.376,0.024,0.684,0.024,0.924h0.072c0.32-0.672,0.788-1.212,1.404-1.62c0.616-0.408,1.308-0.612,2.076-0.612
        c0.352,0,0.648,0.033,0.888,0.097l-0.096,2.088c-0.32-0.08-0.664-0.12-1.032-0.12c-0.544,0-1.016,0.101-1.416,0.3
        c-0.4,0.2-0.732,0.468-0.996,0.805c-0.264,0.336-0.46,0.724-0.588,1.163c-0.128,0.44-0.192,0.9-0.192,1.381v5.976h-2.256v-8.928
        C119.275,15.449,119.267,15.056,119.251,14.577z"/>
    <path fill="#666666" d="M128.419,26.625c0.496,0.56,1.116,1.008,1.86,1.344c0.744,0.336,1.508,0.504,2.292,0.504
        c0.752,0,1.384-0.108,1.896-0.324s0.924-0.512,1.236-0.888s0.536-0.82,0.672-1.332c0.136-0.513,0.204-1.064,0.204-1.656v-1.464
        h-0.048c-0.416,0.641-0.984,1.128-1.704,1.464c-0.72,0.336-1.488,0.504-2.304,0.504c-0.864,0-1.652-0.151-2.364-0.456
        c-0.712-0.304-1.316-0.72-1.812-1.248c-0.496-0.527-0.88-1.147-1.152-1.859s-0.408-1.477-0.408-2.292
        c0-0.816,0.136-1.584,0.408-2.305c0.272-0.72,0.656-1.348,1.152-1.884c0.496-0.535,1.096-0.96,1.8-1.271
        c0.704-0.312,1.488-0.469,2.352-0.469c0.816,0,1.596,0.177,2.34,0.528c0.744,0.353,1.332,0.888,1.764,1.608h0.048v-1.824h2.184
        v10.8c0,0.832-0.104,1.628-0.312,2.388c-0.208,0.76-0.56,1.433-1.056,2.017s-1.144,1.052-1.944,1.404
        c-0.8,0.352-1.792,0.527-2.976,0.527c-0.992,0-1.988-0.18-2.988-0.54c-1-0.359-1.86-0.868-2.58-1.523L128.419,26.625z
         M129.091,18.873c0,0.527,0.084,1.031,0.253,1.512c0.168,0.479,0.417,0.904,0.746,1.271c0.329,0.369,0.726,0.664,1.192,0.889
        c0.465,0.224,0.995,0.336,1.589,0.336c0.577,0,1.107-0.104,1.589-0.312c0.481-0.207,0.891-0.491,1.228-0.852
        s0.598-0.784,0.782-1.272c0.185-0.487,0.277-1.012,0.277-1.571c0-0.544-0.093-1.057-0.277-1.536
        c-0.185-0.48-0.449-0.904-0.794-1.272c-0.345-0.367-0.755-0.66-1.228-0.876c-0.474-0.216-1-0.324-1.577-0.324
        c-0.594,0-1.124,0.108-1.589,0.324c-0.466,0.216-0.863,0.504-1.192,0.864s-0.578,0.784-0.746,1.271
        C129.175,17.812,129.091,18.329,129.091,18.873z"/>
</g>
<g><a xlink:href="/" pointer-events="all" target="_top"><polygon fill="none" points="0,0 145,0 145,35 0,35 0,0"/></a></g>

</g>


<!-- ArrayLiteralConvertible -->
<g id="node1" class="node">
<g id="a_node1"><a xlink:href="/swift-2/protocol/ArrayLiteralConvertible/" target="_top">
<path fill="#999999" stroke="#999999" d="M474.705,-138C474.705,-138 357.295,-138 357.295,-138 353.629,-138 349.962,-134.333 349.962,-130.667 349.962,-130.667 349.962,-123.333 349.962,-123.333 349.962,-119.667 353.629,-116 357.295,-116 357.295,-116 474.705,-116 474.705,-116 478.371,-116 482.038,-119.667 482.038,-123.333 482.038,-123.333 482.038,-130.667 482.038,-130.667 482.038,-134.333 478.371,-138 474.705,-138"/>
<text text-anchor="middle" x="416" y="-123.4" font-family="Helvetica,sans-Serif" font-size="12.00" fill="white">ArrayLiteralConvertible</text>
</a>
</g>
</g>
<!-- ContiguousArray&lt;Element&gt; -->
<g id="node3" class="node">
<g id="a_node3"><a xlink:href="/swift-2/type/ContiguousArray/" target="_top">
<polygon fill="#ee543d" stroke="#ee543d" points="737.562,-22 580.438,-22 580.438,-0 737.562,-0 737.562,-22"/>
<text text-anchor="middle" x="659" y="-7.4" font-family="Helvetica,sans-Serif" font-size="12.00" fill="white">ContiguousArray&lt;Element&gt;</text>
</a>
</g>
</g>
<!-- ArrayLiteralConvertible&#45;&gt;ContiguousArray&lt;Element&gt; -->
<g id="edge10" class="edge">
<path fill="none" stroke="#cccccc" d="M426.775,-115.796C442.841,-101.089 474.565,-73.9503 506,-58 535.539,-43.012 570.813,-31.9974 600.043,-24.5106"/>
<polygon fill="#cccccc" stroke="#cccccc" points="601.25,-27.8172 610.111,-22.0089 599.562,-21.0238 601.25,-27.8172"/>
</g>
<!-- _ArrayType -->
<g id="node12" class="node">
<g id="a_node12"><a xlink:href="/swift-2/protocol/_ArrayType/" target="_top">
<path fill="#999999" stroke="#999999" d="M579.19,-80C579.19,-80 522.81,-80 522.81,-80 519.144,-80 515.477,-76.3333 515.477,-72.6667 515.477,-72.6667 515.477,-65.3333 515.477,-65.3333 515.477,-61.6667 519.144,-58 522.81,-58 522.81,-58 579.19,-58 579.19,-58 582.856,-58 586.523,-61.6667 586.523,-65.3333 586.523,-65.3333 586.523,-72.6667 586.523,-72.6667 586.523,-76.3333 582.856,-80 579.19,-80"/>
<text text-anchor="middle" x="551" y="-65.4" font-family="Helvetica,sans-Serif" font-size="12.00" fill="white">_ArrayType</text>
</a>
</g>
</g>
<!-- ArrayLiteralConvertible&#45;&gt;_ArrayType -->
<g id="edge29" class="edge">
<path fill="none" stroke="#cccccc" d="M440.135,-115.988C461.599,-107.085 493.207,-93.9733 517.188,-84.0259"/>
<polygon fill="#cccccc" stroke="#cccccc" points="518.723,-87.1783 526.618,-80.1138 516.041,-80.7126 518.723,-87.1783"/>
</g>
<!-- CollectionType -->
<g id="node2" class="node">
<g id="a_node2"><a xlink:href="/swift-2/protocol/CollectionType/" target="_top">
<path fill="#999999" stroke="#999999" d="M600.704,-312C600.704,-312 527.296,-312 527.296,-312 523.63,-312 519.963,-308.333 519.963,-304.667 519.963,-304.667 519.963,-297.333 519.963,-297.333 519.963,-293.667 523.63,-290 527.296,-290 527.296,-290 600.704,-290 600.704,-290 604.37,-290 608.037,-293.667 608.037,-297.333 608.037,-297.333 608.037,-304.667 608.037,-304.667 608.037,-308.333 604.37,-312 600.704,-312"/>
<text text-anchor="middle" x="564" y="-297.4" font-family="Helvetica,sans-Serif" font-size="12.00" fill="white">CollectionType</text>
</a>
</g>
</g>
<!-- CollectionType&#45;&gt;ContiguousArray&lt;Element&gt; -->
<g id="edge1" class="edge">
<path fill="none" stroke="#cccccc" d="M519.607,-299.79C392.795,-298.004 38,-284.228 38,-186 38,-186 38,-186 38,-126 38,-69.278 92.2596,-76.1481 146,-58 222.223,-32.2596 444.746,-19.978 570.244,-14.9522"/>
<polygon fill="#cccccc" stroke="#cccccc" points="570.737,-18.4356 580.592,-14.5454 570.462,-11.441 570.737,-18.4356"/>
</g>
<!-- ExtensibleCollectionType -->
<g id="node6" class="node">
<g id="a_node6"><a xlink:href="/swift-2/protocol/ExtensibleCollectionType/" target="_top">
<path fill="#999999" stroke="#999999" d="M263.727,-196C263.727,-196 134.273,-196 134.273,-196 130.607,-196 126.94,-192.333 126.94,-188.667 126.94,-188.667 126.94,-181.333 126.94,-181.333 126.94,-177.667 130.607,-174 134.273,-174 134.273,-174 263.727,-174 263.727,-174 267.393,-174 271.06,-177.667 271.06,-181.333 271.06,-181.333 271.06,-188.667 271.06,-188.667 271.06,-192.333 267.393,-196 263.727,-196"/>
<text text-anchor="middle" x="199" y="-181.4" font-family="Helvetica,sans-Serif" font-size="12.00" fill="white">ExtensibleCollectionType</text>
</a>
</g>
</g>
<!-- CollectionType&#45;&gt;ExtensibleCollectionType -->
<g id="edge31" class="edge">
<path fill="none" stroke="#cccccc" d="M531.929,-289.983C465.886,-269.356 314.736,-222.148 241.003,-199.119"/>
<polygon fill="#cccccc" stroke="#cccccc" points="241.718,-195.675 231.129,-196.035 239.631,-202.357 241.718,-195.675"/>
</g>
<!-- MutableCollectionType -->
<g id="node7" class="node">
<g id="a_node7"><a xlink:href="/swift-2/protocol/MutableCollectionType/" target="_top">
<path fill="#999999" stroke="#999999" d="M609.221,-196C609.221,-196 492.779,-196 492.779,-196 489.112,-196 485.446,-192.333 485.446,-188.667 485.446,-188.667 485.446,-181.333 485.446,-181.333 485.446,-177.667 489.112,-174 492.779,-174 492.779,-174 609.221,-174 609.221,-174 612.888,-174 616.554,-177.667 616.554,-181.333 616.554,-181.333 616.554,-188.667 616.554,-188.667 616.554,-192.333 612.888,-196 609.221,-196"/>
<text text-anchor="middle" x="551" y="-181.4" font-family="Helvetica,sans-Serif" font-size="12.00" fill="white">MutableCollectionType</text>
</a>
</g>
</g>
<!-- CollectionType&#45;&gt;MutableCollectionType -->
<g id="edge22" class="edge">
<path fill="none" stroke="#cccccc" d="M562.846,-289.883C560.712,-271.17 556.112,-230.827 553.313,-206.287"/>
<polygon fill="#cccccc" stroke="#cccccc" points="556.78,-205.797 552.17,-196.258 549.825,-206.59 556.78,-205.797"/>
</g>
<!-- _Sliceable -->
<g id="node17" class="node">
<g id="a_node17"><a xlink:href="/swift-2/protocol/_Sliceable/" target="_top">
<path fill="#999999" stroke="#999999" d="M731.194,-254C731.194,-254 680.806,-254 680.806,-254 677.139,-254 673.473,-250.333 673.473,-246.667 673.473,-246.667 673.473,-239.333 673.473,-239.333 673.473,-235.667 677.139,-232 680.806,-232 680.806,-232 731.194,-232 731.194,-232 734.861,-232 738.527,-235.667 738.527,-239.333 738.527,-239.333 738.527,-246.667 738.527,-246.667 738.527,-250.333 734.861,-254 731.194,-254"/>
<text text-anchor="middle" x="706" y="-239.4" font-family="Helvetica,sans-Serif" font-size="12.00" fill="white">_Sliceable</text>
</a>
</g>
</g>
<!-- CollectionType&#45;&gt;_Sliceable -->
<g id="edge24" class="edge">
<path fill="none" stroke="#cccccc" d="M589.387,-289.988C612.064,-281.045 645.506,-267.857 670.77,-257.893"/>
<polygon fill="#cccccc" stroke="#cccccc" points="672.336,-261.039 680.354,-254.114 669.767,-254.527 672.336,-261.039"/>
</g>
<!-- __ArrayType -->
<g id="node18" class="node">
<g id="a_node18"><a xlink:href="/swift-2/protocol/__ArrayType/" target="_top">
<path fill="#999999" stroke="#999999" d="M690.696,-138C690.696,-138 627.304,-138 627.304,-138 623.637,-138 619.971,-134.333 619.971,-130.667 619.971,-130.667 619.971,-123.333 619.971,-123.333 619.971,-119.667 623.637,-116 627.304,-116 627.304,-116 690.696,-116 690.696,-116 694.363,-116 698.029,-119.667 698.029,-123.333 698.029,-123.333 698.029,-130.667 698.029,-130.667 698.029,-134.333 694.363,-138 690.696,-138"/>
<text text-anchor="middle" x="659" y="-123.4" font-family="Helvetica,sans-Serif" font-size="12.00" fill="white">__ArrayType</text>
</a>
</g>
</g>
<!-- CollectionType&#45;&gt;__ArrayType -->
<g id="edge25" class="edge">
<path fill="none" stroke="#cccccc" d="M570.291,-289.797C581.62,-271.313 606.036,-230.958 625,-196 633.727,-179.913 642.974,-161.304 649.619,-147.624"/>
<polygon fill="#cccccc" stroke="#cccccc" points="652.949,-148.775 654.14,-138.247 646.644,-145.735 652.949,-148.775"/>
</g>
<!-- CustomDebugStringConvertible -->
<g id="node4" class="node">
<g id="a_node4"><a xlink:href="/swift-2/protocol/CustomDebugStringConvertible/" target="_top">
<path fill="#999999" stroke="#999999" d="M1038.73,-80C1038.73,-80 875.27,-80 875.27,-80 871.604,-80 867.937,-76.3333 867.937,-72.6667 867.937,-72.6667 867.937,-65.3333 867.937,-65.3333 867.937,-61.6667 871.604,-58 875.27,-58 875.27,-58 1038.73,-58 1038.73,-58 1042.4,-58 1046.06,-61.6667 1046.06,-65.3333 1046.06,-65.3333 1046.06,-72.6667 1046.06,-72.6667 1046.06,-76.3333 1042.4,-80 1038.73,-80"/>
<text text-anchor="middle" x="957" y="-65.4" font-family="Helvetica,sans-Serif" font-size="12.00" fill="white">CustomDebugStringConvertible</text>
</a>
</g>
</g>
<!-- CustomDebugStringConvertible&#45;&gt;ContiguousArray&lt;Element&gt; -->
<g id="edge17" class="edge">
<path fill="none" stroke="#cccccc" d="M903.724,-57.9883C852.923,-48.442 776.379,-34.0578 722.449,-23.9233"/>
<polygon fill="#cccccc" stroke="#cccccc" points="722.791,-20.4264 712.317,-22.0192 721.498,-27.306 722.791,-20.4264"/>
</g>
<!-- CustomStringConvertible -->
<g id="node5" class="node">
<g id="a_node5"><a xlink:href="/swift-2/protocol/CustomStringConvertible/" target="_top">
<path fill="#999999" stroke="#999999" d="M1200.21,-80C1200.21,-80 1071.79,-80 1071.79,-80 1068.13,-80 1064.46,-76.3333 1064.46,-72.6667 1064.46,-72.6667 1064.46,-65.3333 1064.46,-65.3333 1064.46,-61.6667 1068.13,-58 1071.79,-58 1071.79,-58 1200.21,-58 1200.21,-58 1203.87,-58 1207.54,-61.6667 1207.54,-65.3333 1207.54,-65.3333 1207.54,-72.6667 1207.54,-72.6667 1207.54,-76.3333 1203.87,-80 1200.21,-80"/>
<text text-anchor="middle" x="1136" y="-65.4" font-family="Helvetica,sans-Serif" font-size="12.00" fill="white">CustomStringConvertible</text>
</a>
</g>
</g>
<!-- CustomStringConvertible&#45;&gt;ContiguousArray&lt;Element&gt; -->
<g id="edge16" class="edge">
<path fill="none" stroke="#cccccc" d="M1064.45,-59.1383C1061.26,-58.7518 1058.1,-58.3708 1055,-58 949.392,-45.3473 827.874,-31.3088 747.604,-22.1079"/>
<polygon fill="#cccccc" stroke="#cccccc" points="747.869,-18.6154 737.536,-20.9544 747.073,-25.5699 747.869,-18.6154"/>
</g>
<!-- ExtensibleCollectionType&#45;&gt;ContiguousArray&lt;Element&gt; -->
<g id="edge14" class="edge">
<path fill="none" stroke="#cccccc" d="M156.284,-173.961C119.53,-163.196 75.296,-143.812 95,-116 148.856,-39.9822 425.348,-19.5289 570.208,-14.0257"/>
<polygon fill="#cccccc" stroke="#cccccc" points="570.54,-17.5161 580.406,-13.6548 570.285,-10.5207 570.54,-17.5161"/>
</g>
<!-- RangeReplaceableCollectionType -->
<g id="node9" class="node">
<g id="a_node9"><a xlink:href="/swift-2/protocol/RangeReplaceableCollectionType/" target="_top">
<path fill="#999999" stroke="#999999" d="M286.76,-138C286.76,-138 111.24,-138 111.24,-138 107.573,-138 103.906,-134.333 103.906,-130.667 103.906,-130.667 103.906,-123.333 103.906,-123.333 103.906,-119.667 107.573,-116 111.24,-116 111.24,-116 286.76,-116 286.76,-116 290.427,-116 294.094,-119.667 294.094,-123.333 294.094,-123.333 294.094,-130.667 294.094,-130.667 294.094,-134.333 290.427,-138 286.76,-138"/>
<text text-anchor="middle" x="199" y="-123.4" font-family="Helvetica,sans-Serif" font-size="12.00" fill="white">RangeReplaceableCollectionType</text>
</a>
</g>
</g>
<!-- ExtensibleCollectionType&#45;&gt;RangeReplaceableCollectionType -->
<g id="edge30" class="edge">
<path fill="none" stroke="#cccccc" d="M199,-173.988C199,-166.91 199,-157.171 199,-148.478"/>
<polygon fill="#cccccc" stroke="#cccccc" points="202.5,-148.304 199,-138.304 195.5,-148.304 202.5,-148.304"/>
</g>
<!-- MutableCollectionType&#45;&gt;ContiguousArray&lt;Element&gt; -->
<g id="edge5" class="edge">
<path fill="none" stroke="#cccccc" d="M485.527,-184.729C411.481,-182.983 305.52,-171.209 341,-116 368.413,-73.3439 506.337,-40.4989 591.29,-23.9223"/>
<polygon fill="#cccccc" stroke="#cccccc" points="591.963,-27.357 601.121,-22.0302 590.64,-20.4831 591.963,-27.357"/>
</g>
<!-- MutableSliceable -->
<g id="node8" class="node">
<g id="a_node8"><a xlink:href="/swift-2/protocol/MutableSliceable/" target="_top">
<path fill="#999999" stroke="#999999" d="M594.208,-138C594.208,-138 507.792,-138 507.792,-138 504.126,-138 500.459,-134.333 500.459,-130.667 500.459,-130.667 500.459,-123.333 500.459,-123.333 500.459,-119.667 504.126,-116 507.792,-116 507.792,-116 594.208,-116 594.208,-116 597.874,-116 601.541,-119.667 601.541,-123.333 601.541,-123.333 601.541,-130.667 601.541,-130.667 601.541,-134.333 597.874,-138 594.208,-138"/>
<text text-anchor="middle" x="551" y="-123.4" font-family="Helvetica,sans-Serif" font-size="12.00" fill="white">MutableSliceable</text>
</a>
</g>
</g>
<!-- MutableCollectionType&#45;&gt;MutableSliceable -->
<g id="edge33" class="edge">
<path fill="none" stroke="#cccccc" d="M551,-173.988C551,-166.91 551,-157.171 551,-148.478"/>
<polygon fill="#cccccc" stroke="#cccccc" points="554.5,-148.304 551,-138.304 547.5,-148.304 554.5,-148.304"/>
</g>
<!-- MutableSliceable&#45;&gt;ContiguousArray&lt;Element&gt; -->
<g id="edge12" class="edge">
<path fill="none" stroke="#cccccc" d="M560.81,-115.791C569.743,-106.485 583.286,-92.346 595,-80 611.231,-62.8938 629.678,-43.2743 642.584,-29.5197"/>
<polygon fill="#cccccc" stroke="#cccccc" points="645.196,-31.8508 649.484,-22.1623 640.09,-27.0625 645.196,-31.8508"/>
</g>
<!-- MutableSliceable&#45;&gt;_ArrayType -->
<g id="edge28" class="edge">
<path fill="none" stroke="#cccccc" d="M551,-115.988C551,-108.91 551,-99.1714 551,-90.4779"/>
<polygon fill="#cccccc" stroke="#cccccc" points="554.5,-90.3038 551,-80.3039 547.5,-90.3039 554.5,-90.3038"/>
</g>
<!-- RangeReplaceableCollectionType&#45;&gt;ContiguousArray&lt;Element&gt; -->
<g id="edge13" class="edge">
<path fill="none" stroke="#cccccc" d="M211.161,-115.924C230.387,-100.6 269.575,-71.7673 308,-58 393.788,-27.2628 497.951,-16.6999 570.423,-13.2528"/>
<polygon fill="#cccccc" stroke="#cccccc" points="570.597,-16.7486 580.434,-12.8123 570.289,-9.75538 570.597,-16.7486"/>
</g>
<!-- RangeReplaceableCollectionType&#45;&gt;_ArrayType -->
<g id="edge27" class="edge">
<path fill="none" stroke="#cccccc" d="M261.931,-115.988C331.989,-104.843 443.498,-87.1026 505.551,-77.2306"/>
<polygon fill="#cccccc" stroke="#cccccc" points="506.113,-80.6852 515.439,-75.6575 505.013,-73.7722 506.113,-80.6852"/>
</g>
<!-- SequenceType -->
<g id="node10" class="node">
<g id="a_node10"><a xlink:href="/swift-2/protocol/SequenceType/" target="_top">
<path fill="#999999" stroke="#999999" d="M620.718,-428C620.718,-428 545.282,-428 545.282,-428 541.615,-428 537.949,-424.333 537.949,-420.667 537.949,-420.667 537.949,-413.333 537.949,-413.333 537.949,-409.667 541.615,-406 545.282,-406 545.282,-406 620.718,-406 620.718,-406 624.385,-406 628.051,-409.667 628.051,-413.333 628.051,-413.333 628.051,-420.667 628.051,-420.667 628.051,-424.333 624.385,-428 620.718,-428"/>
<text text-anchor="middle" x="583" y="-413.4" font-family="Helvetica,sans-Serif" font-size="12.00" fill="white">SequenceType</text>
</a>
</g>
</g>
<!-- SequenceType&#45;&gt;CollectionType -->
<g id="edge18" class="edge">
<path fill="none" stroke="#cccccc" d="M581.314,-405.883C578.195,-387.17 571.471,-346.827 567.381,-322.287"/>
<polygon fill="#cccccc" stroke="#cccccc" points="570.806,-321.546 565.71,-312.258 563.901,-322.697 570.806,-321.546"/>
</g>
<!-- SequenceType&#45;&gt;ContiguousArray&lt;Element&gt; -->
<g id="edge2" class="edge">
<path fill="none" stroke="#cccccc" d="M628.207,-412.56C688.385,-407.094 790.437,-394.449 818,-370 841.763,-348.922 840,-333.765 840,-302 840,-302 840,-302 840,-126 840,-68.9574 774.84,-39.3259 722.711,-24.7475"/>
<polygon fill="#cccccc" stroke="#cccccc" points="723.38,-21.3036 712.816,-22.1131 721.579,-28.068 723.38,-21.3036"/>
</g>
<!-- _CollectionDefaultsType -->
<g id="node13" class="node">
<g id="a_node13"><a xlink:href="/swift-2/protocol/_CollectionDefaultsType/" target="_top">
<path fill="#999999" stroke="#999999" d="M547.224,-370C547.224,-370 422.776,-370 422.776,-370 419.109,-370 415.443,-366.333 415.443,-362.667 415.443,-362.667 415.443,-355.333 415.443,-355.333 415.443,-351.667 419.109,-348 422.776,-348 422.776,-348 547.224,-348 547.224,-348 550.891,-348 554.557,-351.667 554.557,-355.333 554.557,-355.333 554.557,-362.667 554.557,-362.667 554.557,-366.333 550.891,-370 547.224,-370"/>
<text text-anchor="middle" x="485" y="-355.4" font-family="Helvetica,sans-Serif" font-size="12.00" fill="white">_CollectionDefaultsType</text>
</a>
</g>
</g>
<!-- SequenceType&#45;&gt;_CollectionDefaultsType -->
<g id="edge21" class="edge">
<path fill="none" stroke="#cccccc" d="M565.48,-405.988C550.522,-397.441 528.777,-385.015 511.66,-375.234"/>
<polygon fill="#cccccc" stroke="#cccccc" points="513.118,-372.036 502.699,-370.114 509.645,-378.114 513.118,-372.036"/>
</g>
<!-- Sliceable -->
<g id="node11" class="node">
<g id="a_node11"><a xlink:href="/swift-2/protocol/Sliceable/" target="_top">
<path fill="#999999" stroke="#999999" d="M727.691,-196C727.691,-196 684.309,-196 684.309,-196 680.642,-196 676.975,-192.333 676.975,-188.667 676.975,-188.667 676.975,-181.333 676.975,-181.333 676.975,-177.667 680.642,-174 684.309,-174 684.309,-174 727.691,-174 727.691,-174 731.358,-174 735.025,-177.667 735.025,-181.333 735.025,-181.333 735.025,-188.667 735.025,-188.667 735.025,-192.333 731.358,-196 727.691,-196"/>
<text text-anchor="middle" x="706" y="-181.4" font-family="Helvetica,sans-Serif" font-size="12.00" fill="white">Sliceable</text>
</a>
</g>
</g>
<!-- Sliceable&#45;&gt;ContiguousArray&lt;Element&gt; -->
<g id="edge6" class="edge">
<path fill="none" stroke="#cccccc" d="M707.599,-173.715C709.361,-160.269 711.407,-136.066 707,-116 700.071,-84.453 682.613,-51.0725 670.775,-30.884"/>
<polygon fill="#cccccc" stroke="#cccccc" points="673.642,-28.8608 665.486,-22.0988 667.645,-32.4713 673.642,-28.8608"/>
</g>
<!-- Sliceable&#45;&gt;MutableSliceable -->
<g id="edge32" class="edge">
<path fill="none" stroke="#cccccc" d="M678.289,-173.988C653.239,-164.938 616.155,-151.54 588.468,-141.537"/>
<polygon fill="#cccccc" stroke="#cccccc" points="589.326,-138.125 578.732,-138.019 586.948,-144.709 589.326,-138.125"/>
</g>
<!-- _ArrayType&#45;&gt;ContiguousArray&lt;Element&gt; -->
<g id="edge11" class="edge">
<path fill="none" stroke="#cccccc" d="M570.308,-57.9883C587.021,-49.3223 611.423,-36.6696 630.403,-26.8283"/>
<polygon fill="#cccccc" stroke="#cccccc" points="632.228,-29.8242 639.495,-22.1138 629.006,-23.6099 632.228,-29.8242"/>
</g>
<!-- _CollectionDefaultsType&#45;&gt;CollectionType -->
<g id="edge19" class="edge">
<path fill="none" stroke="#cccccc" d="M499.124,-347.988C510.847,-339.678 527.741,-327.703 541.35,-318.055"/>
<polygon fill="#cccccc" stroke="#cccccc" points="543.598,-320.752 549.732,-312.114 539.55,-315.042 543.598,-320.752"/>
</g>
<!-- _CollectionDefaultsType&#45;&gt;ContiguousArray&lt;Element&gt; -->
<g id="edge4" class="edge">
<path fill="none" stroke="#cccccc" d="M415.511,-356.031C281.404,-350.335 0,-328.334 0,-244 0,-244 0,-244 0,-126 0,-84.4974 26.5648,-75.9185 64,-58 151.099,-16.3099 426.812,-10.9434 570.291,-11.107"/>
<polygon fill="#cccccc" stroke="#cccccc" points="570.381,-14.607 580.389,-11.1279 570.396,-7.60706 570.381,-14.607"/>
</g>
<!-- _CollectionGeneratorDefaultsType -->
<g id="node14" class="node">
<g id="a_node14"><a xlink:href="/swift-2/protocol/_CollectionGeneratorDefaultsType/" target="_top">
<path fill="#999999" stroke="#999999" d="M802.246,-370C802.246,-370 623.754,-370 623.754,-370 620.087,-370 616.421,-366.333 616.421,-362.667 616.421,-362.667 616.421,-355.333 616.421,-355.333 616.421,-351.667 620.087,-348 623.754,-348 623.754,-348 802.246,-348 802.246,-348 805.913,-348 809.579,-351.667 809.579,-355.333 809.579,-355.333 809.579,-362.667 809.579,-362.667 809.579,-366.333 805.913,-370 802.246,-370"/>
<text text-anchor="middle" x="713" y="-355.4" font-family="Helvetica,sans-Serif" font-size="12.00" fill="white">_CollectionGeneratorDefaultsType</text>
</a>
</g>
</g>
<!-- _CollectionGeneratorDefaultsType&#45;&gt;CollectionType -->
<g id="edge20" class="edge">
<path fill="none" stroke="#cccccc" d="M686.362,-347.988C662.387,-338.978 626.946,-325.657 600.368,-315.669"/>
<polygon fill="#cccccc" stroke="#cccccc" points="601.25,-312.261 590.658,-312.019 598.788,-318.814 601.25,-312.261"/>
</g>
<!-- _CollectionGeneratorDefaultsType&#45;&gt;ContiguousArray&lt;Element&gt; -->
<g id="edge3" class="edge">
<path fill="none" stroke="#cccccc" d="M728.911,-347.852C754.511,-330.14 802,-290.954 802,-244 802,-244 802,-244 802,-126 802,-74.1583 743.826,-42.0712 701.687,-25.6288"/>
<polygon fill="#cccccc" stroke="#cccccc" points="702.759,-22.2931 692.167,-22.0694 700.307,-28.8498 702.759,-22.2931"/>
</g>
<!-- _DestructorSafeContainer -->
<g id="node15" class="node">
<g id="a_node15"><a xlink:href="/swift-2/protocol/_DestructorSafeContainer/" target="_top">
<path fill="#999999" stroke="#999999" d="M1366.72,-80C1366.72,-80 1233.28,-80 1233.28,-80 1229.61,-80 1225.95,-76.3333 1225.95,-72.6667 1225.95,-72.6667 1225.95,-65.3333 1225.95,-65.3333 1225.95,-61.6667 1229.61,-58 1233.28,-58 1233.28,-58 1366.72,-58 1366.72,-58 1370.39,-58 1374.05,-61.6667 1374.05,-65.3333 1374.05,-65.3333 1374.05,-72.6667 1374.05,-72.6667 1374.05,-76.3333 1370.39,-80 1366.72,-80"/>
<text text-anchor="middle" x="1300" y="-65.4" font-family="Helvetica,sans-Serif" font-size="12.00" fill="white">_DestructorSafeContainer</text>
</a>
</g>
</g>
<!-- _DestructorSafeContainer&#45;&gt;ContiguousArray&lt;Element&gt; -->
<g id="edge8" class="edge">
<path fill="none" stroke="#cccccc" d="M1225.81,-59.021C1222.5,-58.6661 1219.21,-58.324 1216,-58 1050.76,-41.3468 857.495,-26.3996 747.539,-18.3212"/>
<polygon fill="#cccccc" stroke="#cccccc" points="747.717,-14.825 737.488,-17.5849 747.206,-21.8062 747.717,-14.825"/>
</g>
<!-- _Reflectable -->
<g id="node16" class="node">
<g id="a_node16"><a xlink:href="/swift-2/protocol/_Reflectable/" target="_top">
<path fill="#999999" stroke="#999999" d="M1461.7,-80C1461.7,-80 1400.3,-80 1400.3,-80 1396.63,-80 1392.97,-76.3333 1392.97,-72.6667 1392.97,-72.6667 1392.97,-65.3333 1392.97,-65.3333 1392.97,-61.6667 1396.63,-58 1400.3,-58 1400.3,-58 1461.7,-58 1461.7,-58 1465.37,-58 1469.03,-61.6667 1469.03,-65.3333 1469.03,-65.3333 1469.03,-72.6667 1469.03,-72.6667 1469.03,-76.3333 1465.37,-80 1461.7,-80"/>
<text text-anchor="middle" x="1431" y="-65.4" font-family="Helvetica,sans-Serif" font-size="12.00" fill="white">_Reflectable</text>
</a>
</g>
</g>
<!-- _Reflectable&#45;&gt;ContiguousArray&lt;Element&gt; -->
<g id="edge15" class="edge">
<path fill="none" stroke="#cccccc" d="M1392.83,-59.5387C1389.52,-58.9586 1386.21,-58.4335 1383,-58 1155.3,-27.2062 884.452,-16.9409 747.59,-13.5839"/>
<polygon fill="#cccccc" stroke="#cccccc" points="747.65,-10.0845 737.57,-13.3447 747.483,-17.0825 747.65,-10.0845"/>
</g>
<!-- _Sliceable&#45;&gt;ContiguousArray&lt;Element&gt; -->
<g id="edge7" class="edge">
<path fill="none" stroke="#cccccc" d="M718.184,-231.702C727.242,-223.192 738.882,-210.231 744,-196 747.309,-186.799 745.579,-183.649 744,-174 735.218,-120.322 733.655,-104.231 705,-58 698.258,-47.1224 688.472,-36.862 679.658,-28.8035"/>
<polygon fill="#cccccc" stroke="#cccccc" points="681.784,-26.0134 671.951,-22.0674 677.177,-31.2838 681.784,-26.0134"/>
</g>
<!-- _Sliceable&#45;&gt;Sliceable -->
<g id="edge23" class="edge">
<path fill="none" stroke="#cccccc" d="M706,-231.988C706,-224.91 706,-215.171 706,-206.478"/>
<polygon fill="#cccccc" stroke="#cccccc" points="709.5,-206.304 706,-196.304 702.5,-206.304 709.5,-206.304"/>
</g>
<!-- __ArrayType&#45;&gt;ContiguousArray&lt;Element&gt; -->
<g id="edge9" class="edge">
<path fill="none" stroke="#cccccc" d="M659,-115.883C659,-97.1703 659,-56.8266 659,-32.2866"/>
<polygon fill="#cccccc" stroke="#cccccc" points="662.5,-32.2579 659,-22.2579 655.5,-32.258 662.5,-32.2579"/>
</g>
<!-- __ArrayType&#45;&gt;_ArrayType -->
<g id="edge26" class="edge">
<path fill="none" stroke="#cccccc" d="M639.692,-115.988C622.979,-107.322 598.577,-94.6696 579.597,-84.8283"/>
<polygon fill="#cccccc" stroke="#cccccc" points="580.994,-81.6099 570.505,-80.1138 577.772,-87.8242 580.994,-81.6099"/>
</g>
</g>
</svg>
