<?xml version="1.0" encoding="UTF-8" standalone="no"?>
<!DOCTYPE svg PUBLIC "-//W3C//DTD SVG 1.1//EN"
 "http://www.w3.org/Graphics/SVG/1.1/DTD/svg11.dtd">
<!-- Generated by graphviz version 2.36.0 (20140111.2315)
 -->
<!-- Title: ForwardIndexType &#45; Type Hierarchy &#45; SwiftDoc.org Pages: 1 -->
<svg width="2339pt" height="601pt"
 viewBox="0.00 0.00 2339.40 601.20" xmlns="http://www.w3.org/2000/svg" xmlns:xlink="http://www.w3.org/1999/xlink">
<g id="graph0" class="graph" transform="scale(1 1) rotate(0) translate(7.2 543.6)">
<title>ForwardIndexType &#45; Type Hierarchy &#45; SwiftDoc.org</title>
<polygon fill="white" stroke="none" points="-7.2,57.6 -7.2,-543.6 2332.2,-543.6 2332.2,57.6 -7.2,57.6"/>
<!-- BidirectionalIndexType -->
<g id="node1" class="node"><title>BidirectionalIndexType</title>
<g id="a_node1"><a xlink:href="/protocol/BidirectionalIndexType/" xlink:title="BidirectionalIndexType">
<path fill="#999999" stroke="#999999" d="M780.725,-254C780.725,-254 665.275,-254 665.275,-254 661.608,-254 657.941,-250.333 657.941,-246.667 657.941,-246.667 657.941,-239.333 657.941,-239.333 657.941,-235.667 661.608,-232 665.275,-232 665.275,-232 780.725,-232 780.725,-232 784.392,-232 788.059,-235.667 788.059,-239.333 788.059,-239.333 788.059,-246.667 788.059,-246.667 788.059,-250.333 784.392,-254 780.725,-254"/>
<text text-anchor="middle" x="723" y="-239.4" font-family="Helvetica,sans-Serif" font-size="12.00" fill="white">BidirectionalIndexType</text>
</a>
</g>
</g>
<!-- RandomAccessIndexType -->
<g id="node13" class="node"><title>RandomAccessIndexType</title>
<g id="a_node13"><a xlink:href="/protocol/RandomAccessIndexType/" xlink:title="RandomAccessIndexType">
<path fill="#999999" stroke="#999999" d="M1163.23,-196C1163.23,-196 1028.77,-196 1028.77,-196 1025.11,-196 1021.44,-192.333 1021.44,-188.667 1021.44,-188.667 1021.44,-181.333 1021.44,-181.333 1021.44,-177.667 1025.11,-174 1028.77,-174 1028.77,-174 1163.23,-174 1163.23,-174 1166.89,-174 1170.56,-177.667 1170.56,-181.333 1170.56,-181.333 1170.56,-188.667 1170.56,-188.667 1170.56,-192.333 1166.89,-196 1163.23,-196"/>
<text text-anchor="middle" x="1096" y="-181.4" font-family="Helvetica,sans-Serif" font-size="12.00" fill="white">RandomAccessIndexType</text>
</a>
</g>
</g>
<!-- BidirectionalIndexType&#45;&gt;RandomAccessIndexType -->
<g id="edge6" class="edge"><title>BidirectionalIndexType&#45;&gt;RandomAccessIndexType</title>
<path fill="none" stroke="#cccccc" d="M788.398,-232.181C852.689,-222.529 950.804,-207.799 1018.87,-197.58"/>
<polygon fill="#cccccc" stroke="#cccccc" points="1019.73,-200.989 1029.1,-196.043 1018.69,-194.067 1019.73,-200.989"/>
</g>
<!-- ReverseBidirectionalIndex -->
<g id="node14" class="node"><title>ReverseBidirectionalIndex</title>
<g id="a_node14"><a xlink:href="/type/ReverseBidirectionalIndex/" xlink:title="ReverseBidirectionalIndex">
<polygon fill="#999999" stroke="#999999" points="148.554,-22 -0.554283,-22 -0.554283,-0 148.554,-0 148.554,-22"/>
<text text-anchor="middle" x="74" y="-7.4" font-family="Helvetica,sans-Serif" font-size="12.00" fill="white">ReverseBidirectionalIndex</text>
</a>
</g>
</g>
<!-- BidirectionalIndexType&#45;&gt;ReverseBidirectionalIndex -->
<g id="edge7" class="edge"><title>BidirectionalIndexType&#45;&gt;ReverseBidirectionalIndex</title>
<path fill="none" stroke="#cccccc" d="M683.02,-231.949C649.412,-223.239 600.235,-209.883 558,-196 386.221,-139.534 185.578,-58.2056 107.481,-25.9456"/>
<polygon fill="#cccccc" stroke="#cccccc" points="108.723,-22.6719 98.1448,-22.0814 106.046,-29.1397 108.723,-22.6719"/>
</g>
<!-- String.Index -->
<g id="node18" class="node"><title>String.Index</title>
<g id="a_node18"><a xlink:href="/type/String.Index/" xlink:title="String.Index">
<polygon fill="#999999" stroke="#999999" points="241.028,-22 166.972,-22 166.972,-0 241.028,-0 241.028,-22"/>
<text text-anchor="middle" x="204" y="-7.4" font-family="Helvetica,sans-Serif" font-size="12.00" fill="white">String.Index</text>
</a>
</g>
</g>
<!-- BidirectionalIndexType&#45;&gt;String.Index -->
<g id="edge8" class="edge"><title>BidirectionalIndexType&#45;&gt;String.Index</title>
<path fill="none" stroke="#cccccc" d="M697.54,-231.838C674.77,-222.679 640.532,-208.736 611,-196 469.495,-134.976 302.424,-57.816 234.751,-26.345"/>
<polygon fill="#cccccc" stroke="#cccccc" points="236.046,-23.0871 225.503,-22.0406 233.092,-29.4334 236.046,-23.0871"/>
</g>
<!-- String.UTF16View.Index -->
<g id="node19" class="node"><title>String.UTF16View.Index</title>
<g id="a_node19"><a xlink:href="/type/String.UTF16View.Index/" xlink:title="String.UTF16View.Index">
<polygon fill="#999999" stroke="#999999" points="1824.39,-22 1685.61,-22 1685.61,-0 1824.39,-0 1824.39,-22"/>
<text text-anchor="middle" x="1755" y="-7.4" font-family="Helvetica,sans-Serif" font-size="12.00" fill="white">String.UTF16View.Index</text>
</a>
</g>
</g>
<!-- BidirectionalIndexType&#45;&gt;String.UTF16View.Index -->
<g id="edge9" class="edge"><title>BidirectionalIndexType&#45;&gt;String.UTF16View.Index</title>
<path fill="none" stroke="#cccccc" d="M788.309,-238.476C919.175,-230.197 1221.97,-204.892 1467,-138 1542.8,-117.308 1562.36,-112.263 1634,-80 1668.53,-64.4514 1706.26,-42.3696 1730.25,-27.6337"/>
<polygon fill="#cccccc" stroke="#cccccc" points="1732.38,-30.4296 1739.04,-22.1862 1728.69,-24.4798 1732.38,-30.4296"/>
</g>
<!-- String.UnicodeScalarView.Index -->
<g id="node21" class="node"><title>String.UnicodeScalarView.Index</title>
<g id="a_node21"><a xlink:href="/type/String.UnicodeScalarView.Index/" xlink:title="String.UnicodeScalarView.Index">
<polygon fill="#999999" stroke="#999999" points="438.917,-22 259.083,-22 259.083,-0 438.917,-0 438.917,-22"/>
<text text-anchor="middle" x="349" y="-7.4" font-family="Helvetica,sans-Serif" font-size="12.00" fill="white">String.UnicodeScalarView.Index</text>
</a>
</g>
</g>
<!-- BidirectionalIndexType&#45;&gt;String.UnicodeScalarView.Index -->
<g id="edge10" class="edge"><title>BidirectionalIndexType&#45;&gt;String.UnicodeScalarView.Index</title>
<path fill="none" stroke="#cccccc" d="M706.447,-231.82C647.189,-195.378 445.369,-71.2645 374.141,-27.4612"/>
<polygon fill="#cccccc" stroke="#cccccc" points="375.713,-24.3191 365.362,-22.062 372.046,-30.2819 375.713,-24.3191"/>
</g>
<!-- Bit -->
<g id="node2" class="node"><title>Bit</title>
<g id="a_node2"><a xlink:href="/type/Bit/" xlink:title="Bit">
<polygon fill="#999999" stroke="#999999" points="1521,-22 1467,-22 1467,-0 1521,-0 1521,-22"/>
<text text-anchor="middle" x="1494" y="-7.4" font-family="Helvetica,sans-Serif" font-size="12.00" fill="white">Bit</text>
</a>
</g>
</g>
<!-- DictionaryIndex -->
<g id="node3" class="node"><title>DictionaryIndex</title>
<g id="a_node3"><a xlink:href="/type/DictionaryIndex/" xlink:title="DictionaryIndex">
<polygon fill="#999999" stroke="#999999" points="1935.03,-22 1842.97,-22 1842.97,-0 1935.03,-0 1935.03,-22"/>
<text text-anchor="middle" x="1889" y="-7.4" font-family="Helvetica,sans-Serif" font-size="12.00" fill="white">DictionaryIndex</text>
</a>
</g>
</g>
<!-- Equatable -->
<g id="node4" class="node"><title>Equatable</title>
<g id="a_node4"><a xlink:href="/protocol/Equatable/" xlink:title="Equatable">
<path fill="#999999" stroke="#999999" d="M2050.7,-486C2050.7,-486 2001.3,-486 2001.3,-486 1997.63,-486 1993.96,-482.333 1993.96,-478.667 1993.96,-478.667 1993.96,-471.333 1993.96,-471.333 1993.96,-467.667 1997.63,-464 2001.3,-464 2001.3,-464 2050.7,-464 2050.7,-464 2054.37,-464 2058.04,-467.667 2058.04,-471.333 2058.04,-471.333 2058.04,-478.667 2058.04,-478.667 2058.04,-482.333 2054.37,-486 2050.7,-486"/>
<text text-anchor="middle" x="2026" y="-471.4" font-family="Helvetica,sans-Serif" font-size="12.00" fill="white">Equatable</text>
</a>
</g>
</g>
<!-- _Incrementable -->
<g id="node31" class="node"><title>_Incrementable</title>
<g id="a_node31"><a xlink:href="/protocol/_Incrementable/" xlink:title="_Incrementable">
<path fill="#999999" stroke="#999999" d="M2064.71,-428C2064.71,-428 1987.29,-428 1987.29,-428 1983.63,-428 1979.96,-424.333 1979.96,-420.667 1979.96,-420.667 1979.96,-413.333 1979.96,-413.333 1979.96,-409.667 1983.63,-406 1987.29,-406 1987.29,-406 2064.71,-406 2064.71,-406 2068.37,-406 2072.04,-409.667 2072.04,-413.333 2072.04,-413.333 2072.04,-420.667 2072.04,-420.667 2072.04,-424.333 2068.37,-428 2064.71,-428"/>
<text text-anchor="middle" x="2026" y="-413.4" font-family="Helvetica,sans-Serif" font-size="12.00" fill="white">_Incrementable</text>
</a>
</g>
</g>
<!-- Equatable&#45;&gt;_Incrementable -->
<g id="edge42" class="edge"><title>Equatable&#45;&gt;_Incrementable</title>
<path fill="none" stroke="#cccccc" d="M2026,-463.988C2026,-456.91 2026,-447.171 2026,-438.478"/>
<polygon fill="#cccccc" stroke="#cccccc" points="2029.5,-438.304 2026,-428.304 2022.5,-438.304 2029.5,-438.304"/>
</g>
<!-- FilterCollectionViewIndex -->
<g id="node5" class="node"><title>FilterCollectionViewIndex</title>
<g id="a_node5"><a xlink:href="/type/FilterCollectionViewIndex/" xlink:title="FilterCollectionViewIndex">
<polygon fill="#999999" stroke="#999999" points="2097.89,-22 1954.11,-22 1954.11,-0 2097.89,-0 2097.89,-22"/>
<text text-anchor="middle" x="2026" y="-7.4" font-family="Helvetica,sans-Serif" font-size="12.00" fill="white">FilterCollectionViewIndex</text>
</a>
</g>
</g>
<!-- ForwardIndexType -->
<g id="node6" class="node"><title>ForwardIndexType</title>
<g id="a_node6"><a xlink:href="/protocol/ForwardIndexType/" xlink:title="ForwardIndexType">
<path fill="#ee543d" stroke="#ee543d" d="M2073.21,-312C2073.21,-312 1978.79,-312 1978.79,-312 1975.13,-312 1971.46,-308.333 1971.46,-304.667 1971.46,-304.667 1971.46,-297.333 1971.46,-297.333 1971.46,-293.667 1975.13,-290 1978.79,-290 1978.79,-290 2073.21,-290 2073.21,-290 2076.87,-290 2080.54,-293.667 2080.54,-297.333 2080.54,-297.333 2080.54,-304.667 2080.54,-304.667 2080.54,-308.333 2076.87,-312 2073.21,-312"/>
<text text-anchor="middle" x="2026" y="-297.4" font-family="Helvetica,sans-Serif" font-size="12.00" fill="white">ForwardIndexType</text>
</a>
</g>
</g>
<!-- ForwardIndexType&#45;&gt;BidirectionalIndexType -->
<g id="edge1" class="edge"><title>ForwardIndexType&#45;&gt;BidirectionalIndexType</title>
<path fill="none" stroke="#cccccc" d="M1971.26,-297.647C1765.29,-288.795 1036.59,-257.477 798.717,-247.254"/>
<polygon fill="#cccccc" stroke="#cccccc" points="798.578,-243.745 788.437,-246.812 798.277,-250.739 798.578,-243.745"/>
</g>
<!-- ForwardIndexType&#45;&gt;DictionaryIndex -->
<g id="edge2" class="edge"><title>ForwardIndexType&#45;&gt;DictionaryIndex</title>
<path fill="none" stroke="#cccccc" d="M1995.25,-289.909C1954.86,-274.488 1889,-240.923 1889,-186 1889,-186 1889,-186 1889,-126 1889,-93.1536 1889,-54.9837 1889,-32.197"/>
<polygon fill="#cccccc" stroke="#cccccc" points="1892.5,-32.0648 1889,-22.0648 1885.5,-32.0648 1892.5,-32.0648"/>
</g>
<!-- ForwardIndexType&#45;&gt;FilterCollectionViewIndex -->
<g id="edge3" class="edge"><title>ForwardIndexType&#45;&gt;FilterCollectionViewIndex</title>
<path fill="none" stroke="#cccccc" d="M2026,-289.935C2026,-270.066 2026,-224.396 2026,-186 2026,-186 2026,-186 2026,-126 2026,-93.1536 2026,-54.9837 2026,-32.197"/>
<polygon fill="#cccccc" stroke="#cccccc" points="2029.5,-32.0648 2026,-22.0648 2022.5,-32.0648 2029.5,-32.0648"/>
</g>
<!-- SetIndex -->
<g id="node16" class="node"><title>SetIndex</title>
<g id="a_node16"><a xlink:href="/type/SetIndex/" xlink:title="SetIndex">
<polygon fill="#999999" stroke="#999999" points="2173.52,-22 2116.48,-22 2116.48,-0 2173.52,-0 2173.52,-22"/>
<text text-anchor="middle" x="2145" y="-7.4" font-family="Helvetica,sans-Serif" font-size="12.00" fill="white">SetIndex</text>
</a>
</g>
</g>
<!-- ForwardIndexType&#45;&gt;SetIndex -->
<g id="edge4" class="edge"><title>ForwardIndexType&#45;&gt;SetIndex</title>
<path fill="none" stroke="#cccccc" d="M2050.08,-289.983C2084.85,-273.722 2145,-238.07 2145,-186 2145,-186 2145,-186 2145,-126 2145,-93.1536 2145,-54.9837 2145,-32.197"/>
<polygon fill="#cccccc" stroke="#cccccc" points="2148.5,-32.0648 2145,-22.0648 2141.5,-32.0648 2148.5,-32.0648"/>
</g>
<!-- String.UTF8View.Index -->
<g id="node20" class="node"><title>String.UTF8View.Index</title>
<g id="a_node20"><a xlink:href="/type/String.UTF8View.Index/" xlink:title="String.UTF8View.Index">
<polygon fill="#999999" stroke="#999999" points="2323.89,-22 2192.11,-22 2192.11,-0 2323.89,-0 2323.89,-22"/>
<text text-anchor="middle" x="2258" y="-7.4" font-family="Helvetica,sans-Serif" font-size="12.00" fill="white">String.UTF8View.Index</text>
</a>
</g>
</g>
<!-- ForwardIndexType&#45;&gt;String.UTF8View.Index -->
<g id="edge5" class="edge"><title>ForwardIndexType&#45;&gt;String.UTF8View.Index</title>
<path fill="none" stroke="#cccccc" d="M2080.39,-296.636C2148.97,-289.11 2258,-264.76 2258,-186 2258,-186 2258,-186 2258,-126 2258,-93.1536 2258,-54.9837 2258,-32.197"/>
<polygon fill="#cccccc" stroke="#cccccc" points="2261.5,-32.0648 2258,-22.0648 2254.5,-32.0648 2261.5,-32.0648"/>
</g>
<!-- Int -->
<g id="node7" class="node"><title>Int</title>
<g id="a_node7"><a xlink:href="/type/Int/" xlink:title="Int">
<polygon fill="#999999" stroke="#999999" points="1449,-22 1395,-22 1395,-0 1449,-0 1449,-22"/>
<text text-anchor="middle" x="1422" y="-7.4" font-family="Helvetica,sans-Serif" font-size="12.00" fill="white">Int</text>
</a>
</g>
</g>
<!-- Int&#45;&gt;Bit -->
<g id="edge27" class="edge"><title>Int&#45;&gt;Bit</title>
<path fill="none" stroke="#cccccc" d="M1449.28,-11C1451.74,-11 1454.19,-11 1456.65,-11"/>
<polygon fill="#cccccc" stroke="#cccccc" points="1456.75,-14.5001 1466.75,-11 1456.75,-7.5001 1456.75,-14.5001"/>
</g>
<!-- Int16 -->
<g id="node8" class="node"><title>Int16</title>
<g id="a_node8"><a xlink:href="/type/Int16/" xlink:title="Int16">
<polygon fill="#999999" stroke="#999999" points="1161,-22 1107,-22 1107,-0 1161,-0 1161,-22"/>
<text text-anchor="middle" x="1134" y="-7.4" font-family="Helvetica,sans-Serif" font-size="12.00" fill="white">Int16</text>
</a>
</g>
</g>
<!-- Int32 -->
<g id="node9" class="node"><title>Int32</title>
<g id="a_node9"><a xlink:href="/type/Int32/" xlink:title="Int32">
<polygon fill="#999999" stroke="#999999" points="1233,-22 1179,-22 1179,-0 1233,-0 1233,-22"/>
<text text-anchor="middle" x="1206" y="-7.4" font-family="Helvetica,sans-Serif" font-size="12.00" fill="white">Int32</text>
</a>
</g>
</g>
<!-- Int64 -->
<g id="node10" class="node"><title>Int64</title>
<g id="a_node10"><a xlink:href="/type/Int64/" xlink:title="Int64">
<polygon fill="#999999" stroke="#999999" points="1305,-22 1251,-22 1251,-0 1305,-0 1305,-22"/>
<text text-anchor="middle" x="1278" y="-7.4" font-family="Helvetica,sans-Serif" font-size="12.00" fill="white">Int64</text>
</a>
</g>
</g>
<!-- Int8 -->
<g id="node11" class="node"><title>Int8</title>
<g id="a_node11"><a xlink:href="/type/Int8/" xlink:title="Int8">
<polygon fill="#999999" stroke="#999999" points="1377,-22 1323,-22 1323,-0 1377,-0 1377,-22"/>
<text text-anchor="middle" x="1350" y="-7.4" font-family="Helvetica,sans-Serif" font-size="12.00" fill="white">Int8</text>
</a>
</g>
</g>
<!-- IntegerType -->
<g id="node12" class="node"><title>IntegerType</title>
<g id="a_node12"><a xlink:href="/protocol/IntegerType/" xlink:title="IntegerType">
<path fill="#999999" stroke="#999999" d="M1060.2,-138C1060.2,-138 1001.8,-138 1001.8,-138 998.132,-138 994.465,-134.333 994.465,-130.667 994.465,-130.667 994.465,-123.333 994.465,-123.333 994.465,-119.667 998.132,-116 1001.8,-116 1001.8,-116 1060.2,-116 1060.2,-116 1063.87,-116 1067.53,-119.667 1067.53,-123.333 1067.53,-123.333 1067.53,-130.667 1067.53,-130.667 1067.53,-134.333 1063.87,-138 1060.2,-138"/>
<text text-anchor="middle" x="1031" y="-123.4" font-family="Helvetica,sans-Serif" font-size="12.00" fill="white">IntegerType</text>
</a>
</g>
</g>
<!-- SignedIntegerType -->
<g id="node17" class="node"><title>SignedIntegerType</title>
<g id="a_node17"><a xlink:href="/protocol/SignedIntegerType/" xlink:title="SignedIntegerType">
<path fill="#999999" stroke="#999999" d="M1302.73,-80C1302.73,-80 1207.27,-80 1207.27,-80 1203.61,-80 1199.94,-76.3333 1199.94,-72.6667 1199.94,-72.6667 1199.94,-65.3333 1199.94,-65.3333 1199.94,-61.6667 1203.61,-58 1207.27,-58 1207.27,-58 1302.73,-58 1302.73,-58 1306.39,-58 1310.06,-61.6667 1310.06,-65.3333 1310.06,-65.3333 1310.06,-72.6667 1310.06,-72.6667 1310.06,-76.3333 1306.39,-80 1302.73,-80"/>
<text text-anchor="middle" x="1255" y="-65.4" font-family="Helvetica,sans-Serif" font-size="12.00" fill="white">SignedIntegerType</text>
</a>
</g>
</g>
<!-- IntegerType&#45;&gt;SignedIntegerType -->
<g id="edge28" class="edge"><title>IntegerType&#45;&gt;SignedIntegerType</title>
<path fill="none" stroke="#cccccc" d="M1067.49,-116.878C1104.82,-107.544 1163.12,-92.971 1204.79,-82.552"/>
<polygon fill="#cccccc" stroke="#cccccc" points="1205.89,-85.8857 1214.74,-80.0647 1204.19,-79.0947 1205.89,-85.8857"/>
</g>
<!-- UnsignedIntegerType -->
<g id="node29" class="node"><title>UnsignedIntegerType</title>
<g id="a_node29"><a xlink:href="/protocol/UnsignedIntegerType/" xlink:title="UnsignedIntegerType">
<path fill="#999999" stroke="#999999" d="M994.728,-80C994.728,-80 885.272,-80 885.272,-80 881.605,-80 877.938,-76.3333 877.938,-72.6667 877.938,-72.6667 877.938,-65.3333 877.938,-65.3333 877.938,-61.6667 881.605,-58 885.272,-58 885.272,-58 994.728,-58 994.728,-58 998.395,-58 1002.06,-61.6667 1002.06,-65.3333 1002.06,-65.3333 1002.06,-72.6667 1002.06,-72.6667 1002.06,-76.3333 998.395,-80 994.728,-80"/>
<text text-anchor="middle" x="940" y="-65.4" font-family="Helvetica,sans-Serif" font-size="12.00" fill="white">UnsignedIntegerType</text>
</a>
</g>
</g>
<!-- IntegerType&#45;&gt;UnsignedIntegerType -->
<g id="edge29" class="edge"><title>IntegerType&#45;&gt;UnsignedIntegerType</title>
<path fill="none" stroke="#cccccc" d="M1014.73,-115.988C1000.97,-107.52 981.023,-95.2452 965.198,-85.5067"/>
<polygon fill="#cccccc" stroke="#cccccc" points="966.786,-82.374 956.435,-80.1138 963.117,-88.3356 966.786,-82.374"/>
</g>
<!-- RandomAccessIndexType&#45;&gt;Bit -->
<g id="edge11" class="edge"><title>RandomAccessIndexType&#45;&gt;Bit</title>
<path fill="none" stroke="#cccccc" d="M1170.56,-179.861C1220.96,-174.753 1287.91,-163.365 1342,-138 1399.09,-111.227 1452.63,-57.8637 1478.23,-29.9537"/>
<polygon fill="#cccccc" stroke="#cccccc" points="1481.16,-31.9369 1485.25,-22.1668 1475.96,-27.2487 1481.16,-31.9369"/>
</g>
<!-- RandomAccessIndexType&#45;&gt;Int -->
<g id="edge12" class="edge"><title>RandomAccessIndexType&#45;&gt;Int</title>
<path fill="none" stroke="#cccccc" d="M1170.37,-180.064C1214.39,-174.958 1269.8,-163.498 1313,-138 1358.23,-111.3 1394.14,-59.081 1411.19,-30.9801"/>
<polygon fill="#cccccc" stroke="#cccccc" points="1414.35,-32.5177 1416.42,-22.1276 1408.32,-28.9572 1414.35,-32.5177"/>
</g>
<!-- RandomAccessIndexType&#45;&gt;Int16 -->
<g id="edge13" class="edge"><title>RandomAccessIndexType&#45;&gt;Int16</title>
<path fill="none" stroke="#cccccc" d="M1098.26,-173.756C1104.37,-146.097 1121.29,-69.5091 1129.47,-32.5186"/>
<polygon fill="#cccccc" stroke="#cccccc" points="1132.96,-32.9277 1131.7,-22.4081 1126.13,-31.4175 1132.96,-32.9277"/>
</g>
<!-- RandomAccessIndexType&#45;&gt;Int32 -->
<g id="edge14" class="edge"><title>RandomAccessIndexType&#45;&gt;Int32</title>
<path fill="none" stroke="#cccccc" d="M1102.55,-173.756C1120.47,-145.74 1170.49,-67.5202 1193.78,-31.1037"/>
<polygon fill="#cccccc" stroke="#cccccc" points="1196.9,-32.7183 1199.34,-22.4081 1191.01,-28.9469 1196.9,-32.7183"/>
</g>
<!-- RandomAccessIndexType&#45;&gt;Int64 -->
<g id="edge15" class="edge"><title>RandomAccessIndexType&#45;&gt;Int64</title>
<path fill="none" stroke="#cccccc" d="M1157.42,-173.991C1210.37,-161.764 1283.71,-135.395 1319,-80 1330.04,-62.6735 1314.33,-42.4764 1299.28,-28.6221"/>
<polygon fill="#cccccc" stroke="#cccccc" points="1301.47,-25.8884 1291.61,-22.0041 1296.89,-31.1876 1301.47,-25.8884"/>
</g>
<!-- RandomAccessIndexType&#45;&gt;Int8 -->
<g id="edge16" class="edge"><title>RandomAccessIndexType&#45;&gt;Int8</title>
<path fill="none" stroke="#cccccc" d="M1170.54,-176.675C1207.11,-170.482 1250.58,-159.06 1285,-138 1314.03,-120.239 1319.76,-110.431 1335,-80 1342.52,-64.9882 1346.29,-46.2522 1348.17,-32.2504"/>
<polygon fill="#cccccc" stroke="#cccccc" points="1351.67,-32.528 1349.31,-22.1978 1344.71,-31.7407 1351.67,-32.528"/>
</g>
<!-- RandomAccessIndexType&#45;&gt;IntegerType -->
<g id="edge17" class="edge"><title>RandomAccessIndexType&#45;&gt;IntegerType</title>
<path fill="none" stroke="#cccccc" d="M1084.38,-173.988C1075.07,-165.966 1061.79,-154.527 1050.81,-145.065"/>
<polygon fill="#cccccc" stroke="#cccccc" points="1052.82,-142.179 1042.96,-138.304 1048.25,-147.483 1052.82,-142.179"/>
</g>
<!-- ReverseRandomAccessIndex -->
<g id="node15" class="node"><title>ReverseRandomAccessIndex</title>
<g id="a_node15"><a xlink:href="/type/ReverseRandomAccessIndex/" xlink:title="ReverseRandomAccessIndex">
<polygon fill="#999999" stroke="#999999" points="625.056,-22 456.944,-22 456.944,-0 625.056,-0 625.056,-22"/>
<text text-anchor="middle" x="541" y="-7.4" font-family="Helvetica,sans-Serif" font-size="12.00" fill="white">ReverseRandomAccessIndex</text>
</a>
</g>
</g>
<!-- RandomAccessIndexType&#45;&gt;ReverseRandomAccessIndex -->
<g id="edge18" class="edge"><title>RandomAccessIndexType&#45;&gt;ReverseRandomAccessIndex</title>
<path fill="none" stroke="#cccccc" d="M1021.49,-178.358C961.442,-172.379 875.389,-160.551 803,-138 711.482,-109.49 611.558,-53.9361 566.067,-27.1544"/>
<polygon fill="#cccccc" stroke="#cccccc" points="567.847,-24.1406 557.461,-22.0471 564.275,-30.1604 567.847,-24.1406"/>
</g>
<!-- RandomAccessIndexType&#45;&gt;String.UTF16View.Index -->
<g id="edge26" class="edge"><title>RandomAccessIndexType&#45;&gt;String.UTF16View.Index</title>
<path fill="none" stroke="#cccccc" d="M1170.36,-177.773C1235.57,-171.25 1332.57,-158.964 1415,-138 1532.03,-108.236 1664.57,-52.3332 1723.67,-26.1745"/>
<polygon fill="#cccccc" stroke="#cccccc" points="1725.13,-29.3559 1732.85,-22.092 1722.29,-22.9608 1725.13,-29.3559"/>
</g>
<!-- UInt -->
<g id="node22" class="node"><title>UInt</title>
<g id="a_node22"><a xlink:href="/type/UInt/" xlink:title="UInt">
<polygon fill="#999999" stroke="#999999" points="1089,-22 1035,-22 1035,-0 1089,-0 1089,-22"/>
<text text-anchor="middle" x="1062" y="-7.4" font-family="Helvetica,sans-Serif" font-size="12.00" fill="white">UInt</text>
</a>
</g>
</g>
<!-- RandomAccessIndexType&#45;&gt;UInt -->
<g id="edge19" class="edge"><title>RandomAccessIndexType&#45;&gt;UInt</title>
<path fill="none" stroke="#cccccc" d="M1093.97,-173.756C1088.51,-146.097 1073.37,-69.5091 1066.06,-32.5186"/>
<polygon fill="#cccccc" stroke="#cccccc" points="1069.43,-31.5395 1064.06,-22.4081 1062.56,-32.897 1069.43,-31.5395"/>
</g>
<!-- UInt16 -->
<g id="node23" class="node"><title>UInt16</title>
<g id="a_node23"><a xlink:href="/type/UInt16/" xlink:title="UInt16">
<polygon fill="#999999" stroke="#999999" points="801,-22 747,-22 747,-0 801,-0 801,-22"/>
<text text-anchor="middle" x="774" y="-7.4" font-family="Helvetica,sans-Serif" font-size="12.00" fill="white">UInt16</text>
</a>
</g>
</g>
<!-- RandomAccessIndexType&#45;&gt;UInt16 -->
<g id="edge20" class="edge"><title>RandomAccessIndexType&#45;&gt;UInt16</title>
<path fill="none" stroke="#cccccc" d="M1021.58,-180.917C976.644,-176.147 919.793,-164.741 876,-138 832.382,-111.365 799.322,-59.1188 783.788,-30.9966"/>
<polygon fill="#cccccc" stroke="#cccccc" points="786.847,-29.295 779.036,-22.137 780.678,-32.6038 786.847,-29.295"/>
</g>
<!-- UInt32 -->
<g id="node24" class="node"><title>UInt32</title>
<g id="a_node24"><a xlink:href="/type/UInt32/" xlink:title="UInt32">
<polygon fill="#999999" stroke="#999999" points="873,-22 819,-22 819,-0 873,-0 873,-22"/>
<text text-anchor="middle" x="846" y="-7.4" font-family="Helvetica,sans-Serif" font-size="12.00" fill="white">UInt32</text>
</a>
</g>
</g>
<!-- RandomAccessIndexType&#45;&gt;UInt32 -->
<g id="edge21" class="edge"><title>RandomAccessIndexType&#45;&gt;UInt32</title>
<path fill="none" stroke="#cccccc" d="M1021.26,-179.68C982.223,-174.328 935.365,-162.752 900,-138 864.885,-113.423 852.452,-61.0681 848.166,-32.1814"/>
<polygon fill="#cccccc" stroke="#cccccc" points="851.608,-31.5075 846.855,-22.0383 844.665,-32.4043 851.608,-31.5075"/>
</g>
<!-- UInt64 -->
<g id="node25" class="node"><title>UInt64</title>
<g id="a_node25"><a xlink:href="/type/UInt64/" xlink:title="UInt64">
<polygon fill="#999999" stroke="#999999" points="945,-22 891,-22 891,-0 945,-0 945,-22"/>
<text text-anchor="middle" x="918" y="-7.4" font-family="Helvetica,sans-Serif" font-size="12.00" fill="white">UInt64</text>
</a>
</g>
</g>
<!-- RandomAccessIndexType&#45;&gt;UInt64 -->
<g id="edge22" class="edge"><title>RandomAccessIndexType&#45;&gt;UInt64</title>
<path fill="none" stroke="#cccccc" d="M1028.64,-173.977C974.572,-161.919 902.374,-135.805 869,-80 857.96,-61.5406 876.005,-41.7279 893.228,-28.2786"/>
<polygon fill="#cccccc" stroke="#cccccc" points="895.493,-30.9581 901.486,-22.2213 891.353,-25.3137 895.493,-30.9581"/>
</g>
<!-- UInt8 -->
<g id="node26" class="node"><title>UInt8</title>
<g id="a_node26"><a xlink:href="/type/UInt8/" xlink:title="UInt8">
<polygon fill="#999999" stroke="#999999" points="1017,-22 963,-22 963,-0 1017,-0 1017,-22"/>
<text text-anchor="middle" x="990" y="-7.4" font-family="Helvetica,sans-Serif" font-size="12.00" fill="white">UInt8</text>
</a>
</g>
</g>
<!-- RandomAccessIndexType&#45;&gt;UInt8 -->
<g id="edge23" class="edge"><title>RandomAccessIndexType&#45;&gt;UInt8</title>
<path fill="none" stroke="#cccccc" d="M1038.69,-173.972C1018.23,-167.329 997.225,-156.3 985,-138 969.308,-114.51 1002.31,-106.879 1011,-80 1016.32,-63.5393 1009.54,-44.743 1002.3,-31.09"/>
<polygon fill="#cccccc" stroke="#cccccc" points="1005.17,-29.0539 997.119,-22.1645 999.115,-32.5697 1005.17,-29.0539"/>
</g>
<!-- UnsafeMutablePointer -->
<g id="node27" class="node"><title>UnsafeMutablePointer</title>
<g id="a_node27"><a xlink:href="/type/UnsafeMutablePointer/" xlink:title="UnsafeMutablePointer">
<polygon fill="#999999" stroke="#999999" points="1667.05,-22 1538.95,-22 1538.95,-0 1667.05,-0 1667.05,-22"/>
<text text-anchor="middle" x="1603" y="-7.4" font-family="Helvetica,sans-Serif" font-size="12.00" fill="white">UnsafeMutablePointer</text>
</a>
</g>
</g>
<!-- RandomAccessIndexType&#45;&gt;UnsafeMutablePointer -->
<g id="edge24" class="edge"><title>RandomAccessIndexType&#45;&gt;UnsafeMutablePointer</title>
<path fill="none" stroke="#cccccc" d="M1170.54,-178.662C1227.73,-172.921 1307.99,-161.264 1375,-138 1455.29,-110.126 1540.57,-55.2729 1580.25,-28.0742"/>
<polygon fill="#cccccc" stroke="#cccccc" points="1582.65,-30.6646 1588.88,-22.0941 1578.67,-24.9096 1582.65,-30.6646"/>
</g>
<!-- UnsafePointer -->
<g id="node28" class="node"><title>UnsafePointer</title>
<g id="a_node28"><a xlink:href="/type/UnsafePointer/" xlink:title="UnsafePointer">
<polygon fill="#999999" stroke="#999999" points="729.032,-22 642.968,-22 642.968,-0 729.032,-0 729.032,-22"/>
<text text-anchor="middle" x="686" y="-7.4" font-family="Helvetica,sans-Serif" font-size="12.00" fill="white">UnsafePointer</text>
</a>
</g>
</g>
<!-- RandomAccessIndexType&#45;&gt;UnsafePointer -->
<g id="edge25" class="edge"><title>RandomAccessIndexType&#45;&gt;UnsafePointer</title>
<path fill="none" stroke="#cccccc" d="M1021.5,-179.865C970.014,-174.765 900.983,-163.384 845,-138 785.733,-111.128 729.194,-57.4123 702.317,-29.5981"/>
<polygon fill="#cccccc" stroke="#cccccc" points="704.678,-27.0026 695.25,-22.1691 699.606,-31.827 704.678,-27.0026"/>
</g>
<!-- SignedIntegerType&#45;&gt;Int -->
<g id="edge30" class="edge"><title>SignedIntegerType&#45;&gt;Int</title>
<path fill="none" stroke="#cccccc" d="M1284.86,-57.9883C1312.92,-48.5761 1355.02,-34.461 1385.16,-24.353"/>
<polygon fill="#cccccc" stroke="#cccccc" points="1386.52,-27.589 1394.89,-21.0913 1384.29,-20.9522 1386.52,-27.589"/>
</g>
<!-- SignedIntegerType&#45;&gt;Int16 -->
<g id="edge31" class="edge"><title>SignedIntegerType&#45;&gt;Int16</title>
<path fill="none" stroke="#cccccc" d="M1233.37,-57.9883C1214.39,-49.2036 1186.55,-36.3222 1165.17,-26.4255"/>
<polygon fill="#cccccc" stroke="#cccccc" points="1166.4,-23.1376 1155.85,-22.1138 1163.46,-29.4903 1166.4,-23.1376"/>
</g>
<!-- SignedIntegerType&#45;&gt;Int32 -->
<g id="edge32" class="edge"><title>SignedIntegerType&#45;&gt;Int32</title>
<path fill="none" stroke="#cccccc" d="M1246.24,-57.9883C1239.43,-50.2019 1229.8,-39.1971 1221.67,-29.9049"/>
<polygon fill="#cccccc" stroke="#cccccc" points="1224.23,-27.5249 1215.02,-22.3039 1218.97,-32.1344 1224.23,-27.5249"/>
</g>
<!-- SignedIntegerType&#45;&gt;Int64 -->
<g id="edge33" class="edge"><title>SignedIntegerType&#45;&gt;Int64</title>
<path fill="none" stroke="#cccccc" d="M1259.11,-57.9883C1262.12,-50.6738 1266.29,-40.5192 1269.94,-31.6122"/>
<polygon fill="#cccccc" stroke="#cccccc" points="1273.21,-32.8838 1273.77,-22.3039 1266.73,-30.2243 1273.21,-32.8838"/>
</g>
<!-- SignedIntegerType&#45;&gt;Int8 -->
<g id="edge34" class="edge"><title>SignedIntegerType&#45;&gt;Int8</title>
<path fill="none" stroke="#cccccc" d="M1271.98,-57.9883C1286.48,-49.441 1307.56,-37.0155 1324.16,-27.2343"/>
<polygon fill="#cccccc" stroke="#cccccc" points="1326.01,-30.2071 1332.84,-22.1138 1322.45,-24.1768 1326.01,-30.2071"/>
</g>
<!-- UnsignedIntegerType&#45;&gt;UInt -->
<g id="edge35" class="edge"><title>UnsignedIntegerType&#45;&gt;UInt</title>
<path fill="none" stroke="#cccccc" d="M961.811,-57.9883C981.036,-49.164 1009.27,-36.206 1030.86,-26.2919"/>
<polygon fill="#cccccc" stroke="#cccccc" points="1032.34,-29.4665 1039.97,-22.1138 1029.42,-23.1046 1032.34,-29.4665"/>
</g>
<!-- UnsignedIntegerType&#45;&gt;UInt16 -->
<g id="edge36" class="edge"><title>UnsignedIntegerType&#45;&gt;UInt16</title>
<path fill="none" stroke="#cccccc" d="M910.323,-57.9883C882.506,-48.6044 840.832,-34.5458 810.888,-24.4442"/>
<polygon fill="#cccccc" stroke="#cccccc" points="811.814,-21.0628 801.22,-21.1826 809.576,-27.6955 811.814,-21.0628"/>
</g>
<!-- UnsignedIntegerType&#45;&gt;UInt32 -->
<g id="edge37" class="edge"><title>UnsignedIntegerType&#45;&gt;UInt32</title>
<path fill="none" stroke="#cccccc" d="M923.195,-57.9883C908.847,-49.441 887.99,-37.0155 871.572,-27.2343"/>
<polygon fill="#cccccc" stroke="#cccccc" points="873.359,-24.2251 862.977,-22.1138 869.776,-30.2388 873.359,-24.2251"/>
</g>
<!-- UnsignedIntegerType&#45;&gt;UInt64 -->
<g id="edge38" class="edge"><title>UnsignedIntegerType&#45;&gt;UInt64</title>
<path fill="none" stroke="#cccccc" d="M936.067,-57.9883C933.193,-50.6738 929.204,-40.5192 925.705,-31.6122"/>
<polygon fill="#cccccc" stroke="#cccccc" points="928.962,-30.3316 922.048,-22.3039 922.447,-32.8912 928.962,-30.3316"/>
</g>
<!-- UnsignedIntegerType&#45;&gt;UInt8 -->
<g id="edge39" class="edge"><title>UnsignedIntegerType&#45;&gt;UInt8</title>
<path fill="none" stroke="#cccccc" d="M948.939,-57.9883C955.891,-50.2019 965.717,-39.1971 974.013,-29.9049"/>
<polygon fill="#cccccc" stroke="#cccccc" points="976.751,-32.0943 980.8,-22.3039 971.529,-27.4322 976.751,-32.0943"/>
</g>
<!-- _ForwardIndexType -->
<g id="node30" class="node"><title>_ForwardIndexType</title>
<g id="a_node30"><a xlink:href="/protocol/_ForwardIndexType/" xlink:title="_ForwardIndexType">
<path fill="#999999" stroke="#999999" d="M2076.71,-370C2076.71,-370 1975.29,-370 1975.29,-370 1971.62,-370 1967.95,-366.333 1967.95,-362.667 1967.95,-362.667 1967.95,-355.333 1967.95,-355.333 1967.95,-351.667 1971.62,-348 1975.29,-348 1975.29,-348 2076.71,-348 2076.71,-348 2080.38,-348 2084.05,-351.667 2084.05,-355.333 2084.05,-355.333 2084.05,-362.667 2084.05,-362.667 2084.05,-366.333 2080.38,-370 2076.71,-370"/>
<text text-anchor="middle" x="2026" y="-355.4" font-family="Helvetica,sans-Serif" font-size="12.00" fill="white">_ForwardIndexType</text>
</a>
</g>
</g>
<!-- _ForwardIndexType&#45;&gt;ForwardIndexType -->
<g id="edge40" class="edge"><title>_ForwardIndexType&#45;&gt;ForwardIndexType</title>
<path fill="none" stroke="#cccccc" d="M2026,-347.988C2026,-340.91 2026,-331.171 2026,-322.478"/>
<polygon fill="#cccccc" stroke="#cccccc" points="2029.5,-322.304 2026,-312.304 2022.5,-322.304 2029.5,-322.304"/>
</g>
<!-- _Incrementable&#45;&gt;_ForwardIndexType -->
<g id="edge41" class="edge"><title>_Incrementable&#45;&gt;_ForwardIndexType</title>
<path fill="none" stroke="#cccccc" d="M2026,-405.988C2026,-398.91 2026,-389.171 2026,-380.478"/>
<polygon fill="#cccccc" stroke="#cccccc" points="2029.5,-380.304 2026,-370.304 2022.5,-380.304 2029.5,-380.304"/>
</g>
</g>
</svg>
