<?xml version="1.0" encoding="UTF-8" standalone="no"?>
<!DOCTYPE svg PUBLIC "-//W3C//DTD SVG 1.1//EN"
 "http://www.w3.org/Graphics/SVG/1.1/DTD/svg11.dtd">
<!-- Generated by graphviz version 2.36.0 (20140111.2315)
 -->
<!-- Title: FilterCollectionView&lt;Base : CollectionType&gt; &#45; Type Hierarchy &#45; SwiftDoc.org Pages: 1 -->
<svg width="258pt" height="369pt"
 viewBox="0.00 0.00 258.40 369.20" xmlns="http://www.w3.org/2000/svg" xmlns:xlink="http://www.w3.org/1999/xlink">
<g id="graph0" class="graph" transform="scale(1 1) rotate(0) translate(7.2 311.6)">
<title>FilterCollectionView&lt;Base : CollectionType&gt; &#45; Type Hierarchy &#45; SwiftDoc.org</title>
<polygon fill="white" stroke="none" points="-7.2,57.6 -7.2,-311.6 251.2,-311.6 251.2,57.6 -7.2,57.6"/>
<!-- CollectionType -->
<g id="node1" class="node"><title>CollectionType</title>
<g id="a_node1"><a xlink:href="/protocol/CollectionType/" xlink:title="CollectionType">
<path fill="#999999" stroke="#999999" d="M158.704,-80C158.704,-80 85.2962,-80 85.2962,-80 81.6295,-80 77.9628,-76.3333 77.9628,-72.6667 77.9628,-72.6667 77.9628,-65.3333 77.9628,-65.3333 77.9628,-61.6667 81.6295,-58 85.2962,-58 85.2962,-58 158.704,-58 158.704,-58 162.37,-58 166.037,-61.6667 166.037,-65.3333 166.037,-65.3333 166.037,-72.6667 166.037,-72.6667 166.037,-76.3333 162.37,-80 158.704,-80"/>
<text text-anchor="middle" x="122" y="-65.4" font-family="Helvetica,sans-Serif" font-size="12.00" fill="white">CollectionType</text>
</a>
</g>
</g>
<!-- FilterCollectionView&lt;Base : CollectionType&gt; -->
<g id="node2" class="node"><title>FilterCollectionView&lt;Base : CollectionType&gt;</title>
<g id="a_node2"><a xlink:href="/type/FilterCollectionView/" xlink:title="FilterCollectionView&lt;Base : CollectionType&gt;">
<polygon fill="#ee543d" stroke="#ee543d" points="244.431,-22 -0.431453,-22 -0.431453,-0 244.431,-0 244.431,-22"/>
<text text-anchor="middle" x="122" y="-7.4" font-family="Helvetica,sans-Serif" font-size="12.00" fill="white">FilterCollectionView&lt;Base : CollectionType&gt;</text>
</a>
</g>
</g>
<!-- CollectionType&#45;&gt;FilterCollectionView&lt;Base : CollectionType&gt; -->
<g id="edge1" class="edge"><title>CollectionType&#45;&gt;FilterCollectionView&lt;Base : CollectionType&gt;</title>
<path fill="none" stroke="#cccccc" d="M122,-57.9883C122,-50.9098 122,-41.1714 122,-32.4779"/>
<polygon fill="#cccccc" stroke="#cccccc" points="125.5,-32.3038 122,-22.3039 118.5,-32.3039 125.5,-32.3038"/>
</g>
<!-- SequenceType -->
<g id="node3" class="node"><title>SequenceType</title>
<g id="a_node3"><a xlink:href="/protocol/SequenceType/" xlink:title="SequenceType">
<path fill="#999999" stroke="#999999" d="M215.718,-138C215.718,-138 140.282,-138 140.282,-138 136.615,-138 132.949,-134.333 132.949,-130.667 132.949,-130.667 132.949,-123.333 132.949,-123.333 132.949,-119.667 136.615,-116 140.282,-116 140.282,-116 215.718,-116 215.718,-116 219.385,-116 223.051,-119.667 223.051,-123.333 223.051,-123.333 223.051,-130.667 223.051,-130.667 223.051,-134.333 219.385,-138 215.718,-138"/>
<text text-anchor="middle" x="178" y="-123.4" font-family="Helvetica,sans-Serif" font-size="12.00" fill="white">SequenceType</text>
</a>
</g>
</g>
<!-- SequenceType&#45;&gt;CollectionType -->
<g id="edge3" class="edge"><title>SequenceType&#45;&gt;CollectionType</title>
<path fill="none" stroke="#cccccc" d="M167.988,-115.988C160.123,-108.123 148.974,-96.9745 139.624,-87.6239"/>
<polygon fill="#cccccc" stroke="#cccccc" points="141.85,-84.9001 132.304,-80.3039 136.9,-89.8499 141.85,-84.9001"/>
</g>
<!-- _CollectionType -->
<g id="node4" class="node"><title>_CollectionType</title>
<g id="a_node4"><a xlink:href="/protocol/_CollectionType/" xlink:title="_CollectionType">
<path fill="#999999" stroke="#999999" d="M107.208,-138C107.208,-138 26.7925,-138 26.7925,-138 23.1258,-138 19.4591,-134.333 19.4591,-130.667 19.4591,-130.667 19.4591,-123.333 19.4591,-123.333 19.4591,-119.667 23.1258,-116 26.7925,-116 26.7925,-116 107.208,-116 107.208,-116 110.874,-116 114.541,-119.667 114.541,-123.333 114.541,-123.333 114.541,-130.667 114.541,-130.667 114.541,-134.333 110.874,-138 107.208,-138"/>
<text text-anchor="middle" x="67" y="-123.4" font-family="Helvetica,sans-Serif" font-size="12.00" fill="white">_CollectionType</text>
</a>
</g>
</g>
<!-- _CollectionType&#45;&gt;CollectionType -->
<g id="edge2" class="edge"><title>_CollectionType&#45;&gt;CollectionType</title>
<path fill="none" stroke="#cccccc" d="M76.8329,-115.988C84.5575,-108.123 95.5072,-96.9745 104.691,-87.6239"/>
<polygon fill="#cccccc" stroke="#cccccc" points="107.37,-89.8909 111.88,-80.3039 102.376,-84.9859 107.37,-89.8909"/>
</g>
<!-- _SequenceType -->
<g id="node5" class="node"><title>_SequenceType</title>
<g id="a_node5"><a xlink:href="/protocol/_SequenceType/" xlink:title="_SequenceType">
<path fill="#999999" stroke="#999999" d="M166.724,-254C166.724,-254 85.2759,-254 85.2759,-254 81.6092,-254 77.9425,-250.333 77.9425,-246.667 77.9425,-246.667 77.9425,-239.333 77.9425,-239.333 77.9425,-235.667 81.6092,-232 85.2759,-232 85.2759,-232 166.724,-232 166.724,-232 170.391,-232 174.057,-235.667 174.057,-239.333 174.057,-239.333 174.057,-246.667 174.057,-246.667 174.057,-250.333 170.391,-254 166.724,-254"/>
<text text-anchor="middle" x="126" y="-239.4" font-family="Helvetica,sans-Serif" font-size="12.00" fill="white">_SequenceType</text>
</a>
</g>
</g>
<!-- _SequenceType&#45;&gt;_CollectionType -->
<g id="edge4" class="edge"><title>_SequenceType&#45;&gt;_CollectionType</title>
<path fill="none" stroke="#cccccc" d="M120.764,-231.883C110.948,-212.917 89.6334,-171.732 76.9888,-147.3"/>
<polygon fill="#cccccc" stroke="#cccccc" points="80.0137,-145.53 72.3089,-138.258 73.797,-148.748 80.0137,-145.53"/>
</g>
<!-- _Sequence_Type -->
<g id="node6" class="node"><title>_Sequence_Type</title>
<g id="a_node6"><a xlink:href="/protocol/_Sequence_Type/" xlink:title="_Sequence_Type">
<path fill="#999999" stroke="#999999" d="M214.228,-196C214.228,-196 125.772,-196 125.772,-196 122.105,-196 118.439,-192.333 118.439,-188.667 118.439,-188.667 118.439,-181.333 118.439,-181.333 118.439,-177.667 122.105,-174 125.772,-174 125.772,-174 214.228,-174 214.228,-174 217.895,-174 221.561,-177.667 221.561,-181.333 221.561,-181.333 221.561,-188.667 221.561,-188.667 221.561,-192.333 217.895,-196 214.228,-196"/>
<text text-anchor="middle" x="170" y="-181.4" font-family="Helvetica,sans-Serif" font-size="12.00" fill="white">_Sequence_Type</text>
</a>
</g>
</g>
<!-- _SequenceType&#45;&gt;_Sequence_Type -->
<g id="edge6" class="edge"><title>_SequenceType&#45;&gt;_Sequence_Type</title>
<path fill="none" stroke="#cccccc" d="M133.866,-231.988C139.922,-224.281 148.456,-213.419 155.71,-204.187"/>
<polygon fill="#cccccc" stroke="#cccccc" points="158.478,-206.329 161.904,-196.304 152.974,-202.005 158.478,-206.329"/>
</g>
<!-- _Sequence_Type&#45;&gt;SequenceType -->
<g id="edge5" class="edge"><title>_Sequence_Type&#45;&gt;SequenceType</title>
<path fill="none" stroke="#cccccc" d="M171.43,-173.988C172.441,-166.91 173.833,-157.171 175.075,-148.478"/>
<polygon fill="#cccccc" stroke="#cccccc" points="178.579,-148.698 176.528,-138.304 171.649,-147.708 178.579,-148.698"/>
</g>
</g>
</svg>
