<?xml version="1.0" encoding="UTF-8" standalone="no"?>
<!DOCTYPE svg PUBLIC "-//W3C//DTD SVG 1.1//EN"
 "http://www.w3.org/Graphics/SVG/1.1/DTD/svg11.dtd">
<!-- Generated by graphviz version 2.36.0 (20140111.2315)
 -->
<!-- Title: String.UTF16View.Index &#45; Type Hierarchy &#45; SwiftDoc.org Pages: 1 -->
<svg width="440pt" height="485pt"
 viewBox="0.00 0.00 440.40 485.20" xmlns="http://www.w3.org/2000/svg" xmlns:xlink="http://www.w3.org/1999/xlink">
<g id="graph0" class="graph" transform="scale(1 1) rotate(0) translate(7.2 427.6)">
<title>String.UTF16View.Index &#45; Type Hierarchy &#45; SwiftDoc.org</title>
<polygon fill="white" stroke="none" points="-7.2,57.6 -7.2,-427.6 433.2,-427.6 433.2,57.6 -7.2,57.6"/>
<!-- BidirectionalIndexType -->
<g id="node1" class="node"><title>BidirectionalIndexType</title>
<g id="a_node1"><a xlink:href="/protocol/BidirectionalIndexType/" xlink:title="BidirectionalIndexType">
<path fill="#999999" stroke="#999999" d="M365.725,-138C365.725,-138 250.275,-138 250.275,-138 246.608,-138 242.941,-134.333 242.941,-130.667 242.941,-130.667 242.941,-123.333 242.941,-123.333 242.941,-119.667 246.608,-116 250.275,-116 250.275,-116 365.725,-116 365.725,-116 369.392,-116 373.059,-119.667 373.059,-123.333 373.059,-123.333 373.059,-130.667 373.059,-130.667 373.059,-134.333 369.392,-138 365.725,-138"/>
<text text-anchor="middle" x="308" y="-123.4" font-family="Helvetica,sans-Serif" font-size="12.00" fill="white">BidirectionalIndexType</text>
</a>
</g>
</g>
<!-- RandomAccessIndexType -->
<g id="node5" class="node"><title>RandomAccessIndexType</title>
<g id="a_node5"><a xlink:href="/protocol/RandomAccessIndexType/" xlink:title="RandomAccessIndexType">
<path fill="#999999" stroke="#999999" d="M228.225,-80C228.225,-80 93.7747,-80 93.7747,-80 90.108,-80 86.4413,-76.3333 86.4413,-72.6667 86.4413,-72.6667 86.4413,-65.3333 86.4413,-65.3333 86.4413,-61.6667 90.108,-58 93.7747,-58 93.7747,-58 228.225,-58 228.225,-58 231.892,-58 235.559,-61.6667 235.559,-65.3333 235.559,-65.3333 235.559,-72.6667 235.559,-72.6667 235.559,-76.3333 231.892,-80 228.225,-80"/>
<text text-anchor="middle" x="161" y="-65.4" font-family="Helvetica,sans-Serif" font-size="12.00" fill="white">RandomAccessIndexType</text>
</a>
</g>
</g>
<!-- BidirectionalIndexType&#45;&gt;RandomAccessIndexType -->
<g id="edge12" class="edge"><title>BidirectionalIndexType&#45;&gt;RandomAccessIndexType</title>
<path fill="none" stroke="#cccccc" d="M281.719,-115.988C258.14,-107.006 223.317,-93.7398 197.124,-83.7614"/>
<polygon fill="#cccccc" stroke="#cccccc" points="198.14,-80.4031 187.549,-80.1138 195.648,-86.9445 198.14,-80.4031"/>
</g>
<!-- String.UTF16View.Index -->
<g id="node7" class="node"><title>String.UTF16View.Index</title>
<g id="a_node7"><a xlink:href="/type/String.UTF16View.Index/" xlink:title="String.UTF16View.Index">
<polygon fill="#ee543d" stroke="#ee543d" points="230.39,-22 91.6096,-22 91.6096,-0 230.39,-0 230.39,-22"/>
<text text-anchor="middle" x="161" y="-7.4" font-family="Helvetica,sans-Serif" font-size="12.00" fill="white">String.UTF16View.Index</text>
</a>
</g>
</g>
<!-- BidirectionalIndexType&#45;&gt;String.UTF16View.Index -->
<g id="edge1" class="edge"><title>BidirectionalIndexType&#45;&gt;String.UTF16View.Index</title>
<path fill="none" stroke="#cccccc" d="M300.141,-115.842C288.824,-101.669 266.781,-75.713 244,-58 228.127,-45.6581 208.524,-34.6289 192.355,-26.4659"/>
<polygon fill="#cccccc" stroke="#cccccc" points="193.804,-23.2781 183.286,-22.0026 190.713,-29.5587 193.804,-23.2781"/>
</g>
<!-- Comparable -->
<g id="node2" class="node"><title>Comparable</title>
<g id="a_node2"><a xlink:href="/protocol/Comparable/" xlink:title="Comparable">
<path fill="#999999" stroke="#999999" d="M71.1913,-254C71.1913,-254 10.8087,-254 10.8087,-254 7.14205,-254 3.47538,-250.333 3.47538,-246.667 3.47538,-246.667 3.47538,-239.333 3.47538,-239.333 3.47538,-235.667 7.14205,-232 10.8087,-232 10.8087,-232 71.1913,-232 71.1913,-232 74.8579,-232 78.5246,-235.667 78.5246,-239.333 78.5246,-239.333 78.5246,-246.667 78.5246,-246.667 78.5246,-250.333 74.8579,-254 71.1913,-254"/>
<text text-anchor="middle" x="41" y="-239.4" font-family="Helvetica,sans-Serif" font-size="12.00" fill="white">Comparable</text>
</a>
</g>
</g>
<!-- Strideable -->
<g id="node6" class="node"><title>Strideable</title>
<g id="a_node6"><a xlink:href="/protocol/Strideable/" xlink:title="Strideable">
<path fill="#999999" stroke="#999999" d="M136.693,-196C136.693,-196 87.307,-196 87.307,-196 83.6403,-196 79.9736,-192.333 79.9736,-188.667 79.9736,-188.667 79.9736,-181.333 79.9736,-181.333 79.9736,-177.667 83.6403,-174 87.307,-174 87.307,-174 136.693,-174 136.693,-174 140.36,-174 144.026,-177.667 144.026,-181.333 144.026,-181.333 144.026,-188.667 144.026,-188.667 144.026,-192.333 140.36,-196 136.693,-196"/>
<text text-anchor="middle" x="112" y="-181.4" font-family="Helvetica,sans-Serif" font-size="12.00" fill="white">Strideable</text>
</a>
</g>
</g>
<!-- Comparable&#45;&gt;Strideable -->
<g id="edge16" class="edge"><title>Comparable&#45;&gt;Strideable</title>
<path fill="none" stroke="#cccccc" d="M53.6934,-231.988C64.064,-223.809 78.9377,-212.077 91.0667,-202.511"/>
<polygon fill="#cccccc" stroke="#cccccc" points="93.252,-205.245 98.9362,-196.304 88.917,-199.749 93.252,-205.245"/>
</g>
<!-- Comparable&#45;&gt;String.UTF16View.Index -->
<g id="edge2" class="edge"><title>Comparable&#45;&gt;String.UTF16View.Index</title>
<path fill="none" stroke="#cccccc" d="M39.9554,-231.903C37.4092,-201.812 33.9503,-111.514 77,-58 88.3061,-43.9456 105.114,-33.5422 120.731,-26.2193"/>
<polygon fill="#cccccc" stroke="#cccccc" points="122.486,-29.2716 130.241,-22.0527 119.677,-22.86 122.486,-29.2716"/>
</g>
<!-- Equatable -->
<g id="node3" class="node"><title>Equatable</title>
<g id="a_node3"><a xlink:href="/protocol/Equatable/" xlink:title="Equatable">
<path fill="#999999" stroke="#999999" d="M207.702,-370C207.702,-370 158.298,-370 158.298,-370 154.632,-370 150.965,-366.333 150.965,-362.667 150.965,-362.667 150.965,-355.333 150.965,-355.333 150.965,-351.667 154.632,-348 158.298,-348 158.298,-348 207.702,-348 207.702,-348 211.368,-348 215.035,-351.667 215.035,-355.333 215.035,-355.333 215.035,-362.667 215.035,-362.667 215.035,-366.333 211.368,-370 207.702,-370"/>
<text text-anchor="middle" x="183" y="-355.4" font-family="Helvetica,sans-Serif" font-size="12.00" fill="white">Equatable</text>
</a>
</g>
</g>
<!-- Equatable&#45;&gt;Comparable -->
<g id="edge11" class="edge"><title>Equatable&#45;&gt;Comparable</title>
<path fill="none" stroke="#cccccc" d="M170.398,-347.883C145.934,-328.243 91.7905,-284.775 61.8761,-260.76"/>
<polygon fill="#cccccc" stroke="#cccccc" points="63.7665,-257.789 53.7774,-254.258 59.3843,-263.248 63.7665,-257.789"/>
</g>
<!-- _Incrementable -->
<g id="node11" class="node"><title>_Incrementable</title>
<g id="a_node11"><a xlink:href="/protocol/_Incrementable/" xlink:title="_Incrementable">
<path fill="#999999" stroke="#999999" d="M266.705,-312C266.705,-312 189.295,-312 189.295,-312 185.628,-312 181.961,-308.333 181.961,-304.667 181.961,-304.667 181.961,-297.333 181.961,-297.333 181.961,-293.667 185.628,-290 189.295,-290 189.295,-290 266.705,-290 266.705,-290 270.372,-290 274.039,-293.667 274.039,-297.333 274.039,-297.333 274.039,-304.667 274.039,-304.667 274.039,-308.333 270.372,-312 266.705,-312"/>
<text text-anchor="middle" x="228" y="-297.4" font-family="Helvetica,sans-Serif" font-size="12.00" fill="white">_Incrementable</text>
</a>
</g>
</g>
<!-- Equatable&#45;&gt;_Incrementable -->
<g id="edge8" class="edge"><title>Equatable&#45;&gt;_Incrementable</title>
<path fill="none" stroke="#cccccc" d="M191.045,-347.988C197.239,-340.281 205.967,-329.419 213.385,-320.187"/>
<polygon fill="#cccccc" stroke="#cccccc" points="216.184,-322.291 219.72,-312.304 210.728,-317.907 216.184,-322.291"/>
</g>
<!-- ForwardIndexType -->
<g id="node4" class="node"><title>ForwardIndexType</title>
<g id="a_node4"><a xlink:href="/protocol/ForwardIndexType/" xlink:title="ForwardIndexType">
<path fill="#999999" stroke="#999999" d="M419.206,-196C419.206,-196 324.794,-196 324.794,-196 321.127,-196 317.461,-192.333 317.461,-188.667 317.461,-188.667 317.461,-181.333 317.461,-181.333 317.461,-177.667 321.127,-174 324.794,-174 324.794,-174 419.206,-174 419.206,-174 422.873,-174 426.539,-177.667 426.539,-181.333 426.539,-181.333 426.539,-188.667 426.539,-188.667 426.539,-192.333 422.873,-196 419.206,-196"/>
<text text-anchor="middle" x="372" y="-181.4" font-family="Helvetica,sans-Serif" font-size="12.00" fill="white">ForwardIndexType</text>
</a>
</g>
</g>
<!-- ForwardIndexType&#45;&gt;BidirectionalIndexType -->
<g id="edge4" class="edge"><title>ForwardIndexType&#45;&gt;BidirectionalIndexType</title>
<path fill="none" stroke="#cccccc" d="M360.558,-173.988C351.39,-165.966 338.317,-154.527 327.503,-145.065"/>
<polygon fill="#cccccc" stroke="#cccccc" points="329.606,-142.255 319.776,-138.304 324.997,-147.523 329.606,-142.255"/>
</g>
<!-- RandomAccessIndexType&#45;&gt;String.UTF16View.Index -->
<g id="edge3" class="edge"><title>RandomAccessIndexType&#45;&gt;String.UTF16View.Index</title>
<path fill="none" stroke="#cccccc" d="M161,-57.9883C161,-50.9098 161,-41.1714 161,-32.4779"/>
<polygon fill="#cccccc" stroke="#cccccc" points="164.5,-32.3038 161,-22.3039 157.5,-32.3039 164.5,-32.3038"/>
</g>
<!-- _RandomAccessIndexType -->
<g id="node12" class="node"><title>_RandomAccessIndexType</title>
<g id="a_node12"><a xlink:href="/protocol/_RandomAccessIndexType/" xlink:title="_RandomAccessIndexType">
<path fill="#999999" stroke="#999999" d="M217.731,-138C217.731,-138 76.2689,-138 76.2689,-138 72.6022,-138 68.9355,-134.333 68.9355,-130.667 68.9355,-130.667 68.9355,-123.333 68.9355,-123.333 68.9355,-119.667 72.6022,-116 76.2689,-116 76.2689,-116 217.731,-116 217.731,-116 221.398,-116 225.064,-119.667 225.064,-123.333 225.064,-123.333 225.064,-130.667 225.064,-130.667 225.064,-134.333 221.398,-138 217.731,-138"/>
<text text-anchor="middle" x="147" y="-123.4" font-family="Helvetica,sans-Serif" font-size="12.00" fill="white">_RandomAccessIndexType</text>
</a>
</g>
</g>
<!-- Strideable&#45;&gt;_RandomAccessIndexType -->
<g id="edge15" class="edge"><title>Strideable&#45;&gt;_RandomAccessIndexType</title>
<path fill="none" stroke="#cccccc" d="M118.257,-173.988C122.927,-166.517 129.449,-156.081 135.1,-147.039"/>
<polygon fill="#cccccc" stroke="#cccccc" points="138.228,-148.639 140.56,-138.304 132.292,-144.929 138.228,-148.639"/>
</g>
<!-- _BidirectionalIndexType -->
<g id="node8" class="node"><title>_BidirectionalIndexType</title>
<g id="a_node8"><a xlink:href="/protocol/_BidirectionalIndexType/" xlink:title="_BidirectionalIndexType">
<path fill="#999999" stroke="#999999" d="M292.23,-196C292.23,-196 169.77,-196 169.77,-196 166.104,-196 162.437,-192.333 162.437,-188.667 162.437,-188.667 162.437,-181.333 162.437,-181.333 162.437,-177.667 166.104,-174 169.77,-174 169.77,-174 292.23,-174 292.23,-174 295.896,-174 299.563,-177.667 299.563,-181.333 299.563,-181.333 299.563,-188.667 299.563,-188.667 299.563,-192.333 295.896,-196 292.23,-196"/>
<text text-anchor="middle" x="231" y="-181.4" font-family="Helvetica,sans-Serif" font-size="12.00" fill="white">_BidirectionalIndexType</text>
</a>
</g>
</g>
<!-- _BidirectionalIndexType&#45;&gt;BidirectionalIndexType -->
<g id="edge5" class="edge"><title>_BidirectionalIndexType&#45;&gt;BidirectionalIndexType</title>
<path fill="none" stroke="#cccccc" d="M244.766,-173.988C256.192,-165.678 272.659,-153.703 285.924,-144.055"/>
<polygon fill="#cccccc" stroke="#cccccc" points="288.065,-146.826 294.094,-138.114 283.948,-141.165 288.065,-146.826"/>
</g>
<!-- _BidirectionalIndexType&#45;&gt;_RandomAccessIndexType -->
<g id="edge14" class="edge"><title>_BidirectionalIndexType&#45;&gt;_RandomAccessIndexType</title>
<path fill="none" stroke="#cccccc" d="M215.982,-173.988C203.399,-165.599 185.211,-153.474 170.671,-143.78"/>
<polygon fill="#cccccc" stroke="#cccccc" points="172.433,-140.749 162.171,-138.114 168.55,-146.573 172.433,-140.749"/>
</g>
<!-- _Comparable -->
<g id="node9" class="node"><title>_Comparable</title>
<g id="a_node9"><a xlink:href="/protocol/_Comparable/" xlink:title="_Comparable">
<path fill="#999999" stroke="#999999" d="M74.6974,-312C74.6974,-312 7.30257,-312 7.30257,-312 3.6359,-312 -0.0307668,-308.333 -0.0307668,-304.667 -0.0307668,-304.667 -0.0307668,-297.333 -0.0307668,-297.333 -0.0307668,-293.667 3.6359,-290 7.30257,-290 7.30257,-290 74.6974,-290 74.6974,-290 78.3641,-290 82.0308,-293.667 82.0308,-297.333 82.0308,-297.333 82.0308,-304.667 82.0308,-304.667 82.0308,-308.333 78.3641,-312 74.6974,-312"/>
<text text-anchor="middle" x="41" y="-297.4" font-family="Helvetica,sans-Serif" font-size="12.00" fill="white">_Comparable</text>
</a>
</g>
</g>
<!-- _Comparable&#45;&gt;Comparable -->
<g id="edge10" class="edge"><title>_Comparable&#45;&gt;Comparable</title>
<path fill="none" stroke="#cccccc" d="M41,-289.988C41,-282.91 41,-273.171 41,-264.478"/>
<polygon fill="#cccccc" stroke="#cccccc" points="44.5001,-264.304 41,-254.304 37.5001,-264.304 44.5001,-264.304"/>
</g>
<!-- _ForwardIndexType -->
<g id="node10" class="node"><title>_ForwardIndexType</title>
<g id="a_node10"><a xlink:href="/protocol/_ForwardIndexType/" xlink:title="_ForwardIndexType">
<path fill="#999999" stroke="#999999" d="M293.712,-254C293.712,-254 192.288,-254 192.288,-254 188.621,-254 184.955,-250.333 184.955,-246.667 184.955,-246.667 184.955,-239.333 184.955,-239.333 184.955,-235.667 188.621,-232 192.288,-232 192.288,-232 293.712,-232 293.712,-232 297.379,-232 301.045,-235.667 301.045,-239.333 301.045,-239.333 301.045,-246.667 301.045,-246.667 301.045,-250.333 297.379,-254 293.712,-254"/>
<text text-anchor="middle" x="243" y="-239.4" font-family="Helvetica,sans-Serif" font-size="12.00" fill="white">_ForwardIndexType</text>
</a>
</g>
</g>
<!-- _ForwardIndexType&#45;&gt;ForwardIndexType -->
<g id="edge6" class="edge"><title>_ForwardIndexType&#45;&gt;ForwardIndexType</title>
<path fill="none" stroke="#cccccc" d="M266.063,-231.988C286.481,-223.124 316.508,-210.09 339.384,-200.159"/>
<polygon fill="#cccccc" stroke="#cccccc" points="340.923,-203.306 348.702,-196.114 338.135,-196.885 340.923,-203.306"/>
</g>
<!-- _ForwardIndexType&#45;&gt;_BidirectionalIndexType -->
<g id="edge9" class="edge"><title>_ForwardIndexType&#45;&gt;_BidirectionalIndexType</title>
<path fill="none" stroke="#cccccc" d="M240.855,-231.988C239.321,-224.831 237.205,-214.955 235.326,-206.189"/>
<polygon fill="#cccccc" stroke="#cccccc" points="238.726,-205.349 233.208,-196.304 231.881,-206.815 238.726,-205.349"/>
</g>
<!-- _Incrementable&#45;&gt;_ForwardIndexType -->
<g id="edge7" class="edge"><title>_Incrementable&#45;&gt;_ForwardIndexType</title>
<path fill="none" stroke="#cccccc" d="M230.682,-289.988C232.599,-282.831 235.244,-272.955 237.592,-264.189"/>
<polygon fill="#cccccc" stroke="#cccccc" points="241.033,-264.869 240.24,-254.304 234.272,-263.058 241.033,-264.869"/>
</g>
<!-- _RandomAccessIndexType&#45;&gt;RandomAccessIndexType -->
<g id="edge13" class="edge"><title>_RandomAccessIndexType&#45;&gt;RandomAccessIndexType</title>
<path fill="none" stroke="#cccccc" d="M149.503,-115.988C151.292,-108.831 153.761,-98.9547 155.953,-90.1885"/>
<polygon fill="#cccccc" stroke="#cccccc" points="159.394,-90.8542 158.424,-80.3039 152.603,-89.1564 159.394,-90.8542"/>
</g>
<!-- _Strideable -->
<g id="node13" class="node"><title>_Strideable</title>
<g id="a_node13"><a xlink:href="/protocol/_Strideable/" xlink:title="_Strideable">
<path fill="#999999" stroke="#999999" d="M159.7,-254C159.7,-254 104.3,-254 104.3,-254 100.634,-254 96.9669,-250.333 96.9669,-246.667 96.9669,-246.667 96.9669,-239.333 96.9669,-239.333 96.9669,-235.667 100.634,-232 104.3,-232 104.3,-232 159.7,-232 159.7,-232 163.366,-232 167.033,-235.667 167.033,-239.333 167.033,-239.333 167.033,-246.667 167.033,-246.667 167.033,-250.333 163.366,-254 159.7,-254"/>
<text text-anchor="middle" x="132" y="-239.4" font-family="Helvetica,sans-Serif" font-size="12.00" fill="white">_Strideable</text>
</a>
</g>
</g>
<!-- _Strideable&#45;&gt;Strideable -->
<g id="edge17" class="edge"><title>_Strideable&#45;&gt;Strideable</title>
<path fill="none" stroke="#cccccc" d="M128.424,-231.988C125.84,-224.752 122.263,-214.737 119.107,-205.9"/>
<polygon fill="#cccccc" stroke="#cccccc" points="122.339,-204.544 115.68,-196.304 115.747,-206.899 122.339,-204.544"/>
</g>
</g>
</svg>
