<?xml version="1.0" encoding="UTF-8" standalone="no"?>
<!DOCTYPE svg PUBLIC "-//W3C//DTD SVG 1.1//EN"
 "http://www.w3.org/Graphics/SVG/1.1/DTD/svg11.dtd">
<!-- Generated by graphviz version 2.36.0 (20140111.2315)
 -->
<!-- Title: IntegerType &#45; Type Hierarchy &#45; SwiftDoc.org Pages: 1 -->
<svg width="981pt" height="543pt"
 viewBox="0.00 0.00 981.40 543.20" xmlns="http://www.w3.org/2000/svg" xmlns:xlink="http://www.w3.org/1999/xlink">
<g id="graph0" class="graph" transform="scale(1 1) rotate(0) translate(7.2 485.6)">
<title>IntegerType &#45; Type Hierarchy &#45; SwiftDoc.org</title>
<polygon fill="white" stroke="none" points="-7.2,57.6 -7.2,-485.6 974.2,-485.6 974.2,57.6 -7.2,57.6"/>
<!-- BidirectionalIndexType -->
<g id="node1" class="node"><title>BidirectionalIndexType</title>
<g id="a_node1"><a xlink:href="/protocol/BidirectionalIndexType/" xlink:title="BidirectionalIndexType">
<path fill="#999999" stroke="#999999" d="M859.725,-254C859.725,-254 744.275,-254 744.275,-254 740.608,-254 736.941,-250.333 736.941,-246.667 736.941,-246.667 736.941,-239.333 736.941,-239.333 736.941,-235.667 740.608,-232 744.275,-232 744.275,-232 859.725,-232 859.725,-232 863.392,-232 867.059,-235.667 867.059,-239.333 867.059,-239.333 867.059,-246.667 867.059,-246.667 867.059,-250.333 863.392,-254 859.725,-254"/>
<text text-anchor="middle" x="802" y="-239.4" font-family="Helvetica,sans-Serif" font-size="12.00" fill="white">BidirectionalIndexType</text>
</a>
</g>
</g>
<!-- RandomAccessIndexType -->
<g id="node17" class="node"><title>RandomAccessIndexType</title>
<g id="a_node17"><a xlink:href="/protocol/RandomAccessIndexType/" xlink:title="RandomAccessIndexType">
<path fill="#999999" stroke="#999999" d="M751.225,-196C751.225,-196 616.775,-196 616.775,-196 613.108,-196 609.441,-192.333 609.441,-188.667 609.441,-188.667 609.441,-181.333 609.441,-181.333 609.441,-177.667 613.108,-174 616.775,-174 616.775,-174 751.225,-174 751.225,-174 754.892,-174 758.559,-177.667 758.559,-181.333 758.559,-181.333 758.559,-188.667 758.559,-188.667 758.559,-192.333 754.892,-196 751.225,-196"/>
<text text-anchor="middle" x="684" y="-181.4" font-family="Helvetica,sans-Serif" font-size="12.00" fill="white">RandomAccessIndexType</text>
</a>
</g>
</g>
<!-- BidirectionalIndexType&#45;&gt;RandomAccessIndexType -->
<g id="edge37" class="edge"><title>BidirectionalIndexType&#45;&gt;RandomAccessIndexType</title>
<path fill="none" stroke="#cccccc" d="M780.904,-231.988C762.393,-223.204 735.25,-210.322 714.397,-200.425"/>
<polygon fill="#cccccc" stroke="#cccccc" points="715.846,-197.239 705.311,-196.114 712.845,-203.563 715.846,-197.239"/>
</g>
<!-- Bit -->
<g id="node2" class="node"><title>Bit</title>
<g id="a_node2"><a xlink:href="/type/Bit/" xlink:title="Bit">
<polygon fill="#999999" stroke="#999999" points="319,-22 265,-22 265,-0 319,-0 319,-22"/>
<text text-anchor="middle" x="292" y="-7.4" font-family="Helvetica,sans-Serif" font-size="12.00" fill="white">Bit</text>
</a>
</g>
</g>
<!-- BitwiseOperationsType -->
<g id="node3" class="node"><title>BitwiseOperationsType</title>
<g id="a_node3"><a xlink:href="/protocol/BitwiseOperationsType/" xlink:title="BitwiseOperationsType">
<path fill="#999999" stroke="#999999" d="M626.715,-312C626.715,-312 509.285,-312 509.285,-312 505.618,-312 501.952,-308.333 501.952,-304.667 501.952,-304.667 501.952,-297.333 501.952,-297.333 501.952,-293.667 505.618,-290 509.285,-290 509.285,-290 626.715,-290 626.715,-290 630.382,-290 634.048,-293.667 634.048,-297.333 634.048,-297.333 634.048,-304.667 634.048,-304.667 634.048,-308.333 630.382,-312 626.715,-312"/>
<text text-anchor="middle" x="568" y="-297.4" font-family="Helvetica,sans-Serif" font-size="12.00" fill="white">BitwiseOperationsType</text>
</a>
</g>
</g>
<!-- _IntegerType -->
<g id="node28" class="node"><title>_IntegerType</title>
<g id="a_node28"><a xlink:href="/protocol/_IntegerType/" xlink:title="_IntegerType">
<path fill="#999999" stroke="#999999" d="M506.708,-254C506.708,-254 441.292,-254 441.292,-254 437.626,-254 433.959,-250.333 433.959,-246.667 433.959,-246.667 433.959,-239.333 433.959,-239.333 433.959,-235.667 437.626,-232 441.292,-232 441.292,-232 506.708,-232 506.708,-232 510.374,-232 514.041,-235.667 514.041,-239.333 514.041,-239.333 514.041,-246.667 514.041,-246.667 514.041,-250.333 510.374,-254 506.708,-254"/>
<text text-anchor="middle" x="474" y="-239.4" font-family="Helvetica,sans-Serif" font-size="12.00" fill="white">_IntegerType</text>
</a>
</g>
</g>
<!-- BitwiseOperationsType&#45;&gt;_IntegerType -->
<g id="edge30" class="edge"><title>BitwiseOperationsType&#45;&gt;_IntegerType</title>
<path fill="none" stroke="#cccccc" d="M551.195,-289.988C536.847,-281.441 515.99,-269.015 499.572,-259.234"/>
<polygon fill="#cccccc" stroke="#cccccc" points="501.359,-256.225 490.977,-254.114 497.776,-262.239 501.359,-256.225"/>
</g>
<!-- Comparable -->
<g id="node4" class="node"><title>Comparable</title>
<g id="a_node4"><a xlink:href="/protocol/Comparable/" xlink:title="Comparable">
<path fill="#999999" stroke="#999999" d="M539.191,-370C539.191,-370 478.809,-370 478.809,-370 475.142,-370 471.475,-366.333 471.475,-362.667 471.475,-362.667 471.475,-355.333 471.475,-355.333 471.475,-351.667 475.142,-348 478.809,-348 478.809,-348 539.191,-348 539.191,-348 542.858,-348 546.525,-351.667 546.525,-355.333 546.525,-355.333 546.525,-362.667 546.525,-362.667 546.525,-366.333 542.858,-370 539.191,-370"/>
<text text-anchor="middle" x="509" y="-355.4" font-family="Helvetica,sans-Serif" font-size="12.00" fill="white">Comparable</text>
</a>
</g>
</g>
<!-- IntegerArithmeticType -->
<g id="node14" class="node"><title>IntegerArithmeticType</title>
<g id="a_node14"><a xlink:href="/protocol/IntegerArithmeticType/" xlink:title="IntegerArithmeticType">
<path fill="#999999" stroke="#999999" d="M438.711,-312C438.711,-312 327.289,-312 327.289,-312 323.623,-312 319.956,-308.333 319.956,-304.667 319.956,-304.667 319.956,-297.333 319.956,-297.333 319.956,-293.667 323.623,-290 327.289,-290 327.289,-290 438.711,-290 438.711,-290 442.377,-290 446.044,-293.667 446.044,-297.333 446.044,-297.333 446.044,-304.667 446.044,-304.667 446.044,-308.333 442.377,-312 438.711,-312"/>
<text text-anchor="middle" x="383" y="-297.4" font-family="Helvetica,sans-Serif" font-size="12.00" fill="white">IntegerArithmeticType</text>
</a>
</g>
</g>
<!-- Comparable&#45;&gt;IntegerArithmeticType -->
<g id="edge34" class="edge"><title>Comparable&#45;&gt;IntegerArithmeticType</title>
<path fill="none" stroke="#cccccc" d="M486.474,-347.988C466.619,-339.164 437.464,-326.206 415.157,-316.292"/>
<polygon fill="#cccccc" stroke="#cccccc" points="416.316,-312.977 405.756,-312.114 413.473,-319.374 416.316,-312.977"/>
</g>
<!-- Strideable -->
<g id="node19" class="node"><title>Strideable</title>
<g id="a_node19"><a xlink:href="/protocol/Strideable/" xlink:title="Strideable">
<path fill="#999999" stroke="#999999" d="M708.693,-312C708.693,-312 659.307,-312 659.307,-312 655.64,-312 651.974,-308.333 651.974,-304.667 651.974,-304.667 651.974,-297.333 651.974,-297.333 651.974,-293.667 655.64,-290 659.307,-290 659.307,-290 708.693,-290 708.693,-290 712.36,-290 716.026,-293.667 716.026,-297.333 716.026,-297.333 716.026,-304.667 716.026,-304.667 716.026,-308.333 712.36,-312 708.693,-312"/>
<text text-anchor="middle" x="684" y="-297.4" font-family="Helvetica,sans-Serif" font-size="12.00" fill="white">Strideable</text>
</a>
</g>
</g>
<!-- Comparable&#45;&gt;Strideable -->
<g id="edge41" class="edge"><title>Comparable&#45;&gt;Strideable</title>
<path fill="none" stroke="#cccccc" d="M540.286,-347.988C568.94,-338.819 611.542,-325.187 642.926,-315.144"/>
<polygon fill="#cccccc" stroke="#cccccc" points="644.232,-318.401 652.69,-312.019 642.099,-311.734 644.232,-318.401"/>
</g>
<!-- CustomStringConvertible -->
<g id="node5" class="node"><title>CustomStringConvertible</title>
<g id="a_node5"><a xlink:href="/protocol/CustomStringConvertible/" xlink:title="CustomStringConvertible">
<path fill="#999999" stroke="#999999" d="M135.208,-312C135.208,-312 6.79224,-312 6.79224,-312 3.12558,-312 -0.541089,-308.333 -0.541089,-304.667 -0.541089,-304.667 -0.541089,-297.333 -0.541089,-297.333 -0.541089,-293.667 3.12558,-290 6.79224,-290 6.79224,-290 135.208,-290 135.208,-290 138.874,-290 142.541,-293.667 142.541,-297.333 142.541,-297.333 142.541,-304.667 142.541,-304.667 142.541,-308.333 138.874,-312 135.208,-312"/>
<text text-anchor="middle" x="71" y="-297.4" font-family="Helvetica,sans-Serif" font-size="12.00" fill="white">CustomStringConvertible</text>
</a>
</g>
</g>
<!-- CustomStringConvertible&#45;&gt;_IntegerType -->
<g id="edge27" class="edge"><title>CustomStringConvertible&#45;&gt;_IntegerType</title>
<path fill="none" stroke="#cccccc" d="M142.584,-290.053C223.427,-278.819 352.907,-260.827 423.721,-250.987"/>
<polygon fill="#cccccc" stroke="#cccccc" points="424.308,-254.439 433.731,-249.596 423.344,-247.505 424.308,-254.439"/>
</g>
<!-- Equatable -->
<g id="node6" class="node"><title>Equatable</title>
<g id="a_node6"><a xlink:href="/protocol/Equatable/" xlink:title="Equatable">
<path fill="#999999" stroke="#999999" d="M619.702,-428C619.702,-428 570.298,-428 570.298,-428 566.632,-428 562.965,-424.333 562.965,-420.667 562.965,-420.667 562.965,-413.333 562.965,-413.333 562.965,-409.667 566.632,-406 570.298,-406 570.298,-406 619.702,-406 619.702,-406 623.368,-406 627.035,-409.667 627.035,-413.333 627.035,-413.333 627.035,-420.667 627.035,-420.667 627.035,-424.333 623.368,-428 619.702,-428"/>
<text text-anchor="middle" x="595" y="-413.4" font-family="Helvetica,sans-Serif" font-size="12.00" fill="white">Equatable</text>
</a>
</g>
</g>
<!-- Equatable&#45;&gt;Comparable -->
<g id="edge35" class="edge"><title>Equatable&#45;&gt;Comparable</title>
<path fill="none" stroke="#cccccc" d="M579.625,-405.988C566.742,-397.599 548.121,-385.474 533.234,-375.78"/>
<polygon fill="#cccccc" stroke="#cccccc" points="534.822,-372.638 524.532,-370.114 531.002,-378.504 534.822,-372.638"/>
</g>
<!-- Hashable -->
<g id="node8" class="node"><title>Hashable</title>
<g id="a_node8"><a xlink:href="/protocol/Hashable/" xlink:title="Hashable">
<path fill="#999999" stroke="#999999" d="M617.694,-370C617.694,-370 572.306,-370 572.306,-370 568.639,-370 564.973,-366.333 564.973,-362.667 564.973,-362.667 564.973,-355.333 564.973,-355.333 564.973,-351.667 568.639,-348 572.306,-348 572.306,-348 617.694,-348 617.694,-348 621.361,-348 625.027,-351.667 625.027,-355.333 625.027,-355.333 625.027,-362.667 625.027,-362.667 625.027,-366.333 621.361,-370 617.694,-370"/>
<text text-anchor="middle" x="595" y="-355.4" font-family="Helvetica,sans-Serif" font-size="12.00" fill="white">Hashable</text>
</a>
</g>
</g>
<!-- Equatable&#45;&gt;Hashable -->
<g id="edge32" class="edge"><title>Equatable&#45;&gt;Hashable</title>
<path fill="none" stroke="#cccccc" d="M595,-405.988C595,-398.91 595,-389.171 595,-380.478"/>
<polygon fill="#cccccc" stroke="#cccccc" points="598.5,-380.304 595,-370.304 591.5,-380.304 598.5,-380.304"/>
</g>
<!-- _Incrementable -->
<g id="node26" class="node"><title>_Incrementable</title>
<g id="a_node26"><a xlink:href="/protocol/_Incrementable/" xlink:title="_Incrementable">
<path fill="#999999" stroke="#999999" d="M819.705,-370C819.705,-370 742.295,-370 742.295,-370 738.628,-370 734.961,-366.333 734.961,-362.667 734.961,-362.667 734.961,-355.333 734.961,-355.333 734.961,-351.667 738.628,-348 742.295,-348 742.295,-348 819.705,-348 819.705,-348 823.372,-348 827.039,-351.667 827.039,-355.333 827.039,-355.333 827.039,-362.667 827.039,-362.667 827.039,-366.333 823.372,-370 819.705,-370"/>
<text text-anchor="middle" x="781" y="-355.4" font-family="Helvetica,sans-Serif" font-size="12.00" fill="white">_Incrementable</text>
</a>
</g>
</g>
<!-- Equatable&#45;&gt;_Incrementable -->
<g id="edge36" class="edge"><title>Equatable&#45;&gt;_Incrementable</title>
<path fill="none" stroke="#cccccc" d="M627.399,-406.246C658.092,-397.005 704.383,-383.068 738.122,-372.909"/>
<polygon fill="#cccccc" stroke="#cccccc" points="739.154,-376.254 747.72,-370.02 737.136,-369.551 739.154,-376.254"/>
</g>
<!-- ForwardIndexType -->
<g id="node7" class="node"><title>ForwardIndexType</title>
<g id="a_node7"><a xlink:href="/protocol/ForwardIndexType/" xlink:title="ForwardIndexType">
<path fill="#999999" stroke="#999999" d="M874.206,-312C874.206,-312 779.794,-312 779.794,-312 776.127,-312 772.461,-308.333 772.461,-304.667 772.461,-304.667 772.461,-297.333 772.461,-297.333 772.461,-293.667 776.127,-290 779.794,-290 779.794,-290 874.206,-290 874.206,-290 877.873,-290 881.539,-293.667 881.539,-297.333 881.539,-297.333 881.539,-304.667 881.539,-304.667 881.539,-308.333 877.873,-312 874.206,-312"/>
<text text-anchor="middle" x="827" y="-297.4" font-family="Helvetica,sans-Serif" font-size="12.00" fill="white">ForwardIndexType</text>
</a>
</g>
</g>
<!-- ForwardIndexType&#45;&gt;BidirectionalIndexType -->
<g id="edge39" class="edge"><title>ForwardIndexType&#45;&gt;BidirectionalIndexType</title>
<path fill="none" stroke="#cccccc" d="M822.531,-289.988C819.265,-282.674 814.732,-272.519 810.755,-263.612"/>
<polygon fill="#cccccc" stroke="#cccccc" points="813.872,-262.008 806.6,-254.304 807.481,-264.862 813.872,-262.008"/>
</g>
<!-- Hashable&#45;&gt;_IntegerType -->
<g id="edge28" class="edge"><title>Hashable&#45;&gt;_IntegerType</title>
<path fill="none" stroke="#cccccc" d="M565.746,-347.964C539.28,-338.341 502.969,-323.603 493,-312 481.669,-298.812 477.062,-279.362 475.206,-264.639"/>
<polygon fill="#cccccc" stroke="#cccccc" points="478.672,-264.113 474.257,-254.482 471.702,-264.765 478.672,-264.113"/>
</g>
<!-- Int -->
<g id="node9" class="node"><title>Int</title>
<g id="a_node9"><a xlink:href="/type/Int/" xlink:title="Int">
<polygon fill="#999999" stroke="#999999" points="247,-22 193,-22 193,-0 247,-0 247,-22"/>
<text text-anchor="middle" x="220" y="-7.4" font-family="Helvetica,sans-Serif" font-size="12.00" fill="white">Int</text>
</a>
</g>
</g>
<!-- Int&#45;&gt;Bit -->
<g id="edge13" class="edge"><title>Int&#45;&gt;Bit</title>
<path fill="none" stroke="#cccccc" d="M247.281,-11C249.738,-11 252.194,-11 254.651,-11"/>
<polygon fill="#cccccc" stroke="#cccccc" points="254.75,-14.5001 264.75,-11 254.749,-7.5001 254.75,-14.5001"/>
</g>
<!-- Int16 -->
<g id="node10" class="node"><title>Int16</title>
<g id="a_node10"><a xlink:href="/type/Int16/" xlink:title="Int16">
<polygon fill="#999999" stroke="#999999" points="391,-22 337,-22 337,-0 391,-0 391,-22"/>
<text text-anchor="middle" x="364" y="-7.4" font-family="Helvetica,sans-Serif" font-size="12.00" fill="white">Int16</text>
</a>
</g>
</g>
<!-- Int32 -->
<g id="node11" class="node"><title>Int32</title>
<g id="a_node11"><a xlink:href="/type/Int32/" xlink:title="Int32">
<polygon fill="#999999" stroke="#999999" points="463,-22 409,-22 409,-0 463,-0 463,-22"/>
<text text-anchor="middle" x="436" y="-7.4" font-family="Helvetica,sans-Serif" font-size="12.00" fill="white">Int32</text>
</a>
</g>
</g>
<!-- Int64 -->
<g id="node12" class="node"><title>Int64</title>
<g id="a_node12"><a xlink:href="/type/Int64/" xlink:title="Int64">
<polygon fill="#999999" stroke="#999999" points="535,-22 481,-22 481,-0 535,-0 535,-22"/>
<text text-anchor="middle" x="508" y="-7.4" font-family="Helvetica,sans-Serif" font-size="12.00" fill="white">Int64</text>
</a>
</g>
</g>
<!-- Int8 -->
<g id="node13" class="node"><title>Int8</title>
<g id="a_node13"><a xlink:href="/type/Int8/" xlink:title="Int8">
<polygon fill="#999999" stroke="#999999" points="607,-22 553,-22 553,-0 607,-0 607,-22"/>
<text text-anchor="middle" x="580" y="-7.4" font-family="Helvetica,sans-Serif" font-size="12.00" fill="white">Int8</text>
</a>
</g>
</g>
<!-- IntegerArithmeticType&#45;&gt;_IntegerType -->
<g id="edge29" class="edge"><title>IntegerArithmeticType&#45;&gt;_IntegerType</title>
<path fill="none" stroke="#cccccc" d="M399.269,-289.988C413.03,-281.52 432.977,-269.245 448.802,-259.507"/>
<polygon fill="#cccccc" stroke="#cccccc" points="450.883,-262.336 457.565,-254.114 447.214,-256.374 450.883,-262.336"/>
</g>
<!-- IntegerLiteralConvertible -->
<g id="node15" class="node"><title>IntegerLiteralConvertible</title>
<g id="a_node15"><a xlink:href="/protocol/IntegerLiteralConvertible/" xlink:title="IntegerLiteralConvertible">
<path fill="#999999" stroke="#999999" d="M293.722,-312C293.722,-312 168.278,-312 168.278,-312 164.611,-312 160.944,-308.333 160.944,-304.667 160.944,-304.667 160.944,-297.333 160.944,-297.333 160.944,-293.667 164.611,-290 168.278,-290 168.278,-290 293.722,-290 293.722,-290 297.389,-290 301.056,-293.667 301.056,-297.333 301.056,-297.333 301.056,-304.667 301.056,-304.667 301.056,-308.333 297.389,-312 293.722,-312"/>
<text text-anchor="middle" x="231" y="-297.4" font-family="Helvetica,sans-Serif" font-size="12.00" fill="white">IntegerLiteralConvertible</text>
</a>
</g>
</g>
<!-- IntegerLiteralConvertible&#45;&gt;_IntegerType -->
<g id="edge26" class="edge"><title>IntegerLiteralConvertible&#45;&gt;_IntegerType</title>
<path fill="none" stroke="#cccccc" d="M274.444,-289.988C316.364,-280.328 379.784,-265.712 423.834,-255.561"/>
<polygon fill="#cccccc" stroke="#cccccc" points="424.798,-258.931 433.756,-253.274 423.226,-252.109 424.798,-258.931"/>
</g>
<!-- IntegerType -->
<g id="node16" class="node"><title>IntegerType</title>
<g id="a_node16"><a xlink:href="/protocol/IntegerType/" xlink:title="IntegerType">
<path fill="#ee543d" stroke="#ee543d" d="M635.202,-138C635.202,-138 576.798,-138 576.798,-138 573.132,-138 569.465,-134.333 569.465,-130.667 569.465,-130.667 569.465,-123.333 569.465,-123.333 569.465,-119.667 573.132,-116 576.798,-116 576.798,-116 635.202,-116 635.202,-116 638.868,-116 642.535,-119.667 642.535,-123.333 642.535,-123.333 642.535,-130.667 642.535,-130.667 642.535,-134.333 638.868,-138 635.202,-138"/>
<text text-anchor="middle" x="606" y="-123.4" font-family="Helvetica,sans-Serif" font-size="12.00" fill="white">IntegerType</text>
</a>
</g>
</g>
<!-- IntegerType&#45;&gt;Int -->
<g id="edge1" class="edge"><title>IntegerType&#45;&gt;Int</title>
<path fill="none" stroke="#cccccc" d="M569.396,-122.806C519.255,-117.666 426.895,-105.438 352,-80 312.652,-66.6352 270.518,-43.1385 244.709,-27.5695"/>
<polygon fill="#cccccc" stroke="#cccccc" points="246.331,-24.459 235.974,-22.2257 242.678,-30.4301 246.331,-24.459"/>
</g>
<!-- IntegerType&#45;&gt;Int16 -->
<g id="edge2" class="edge"><title>IntegerType&#45;&gt;Int16</title>
<path fill="none" stroke="#cccccc" d="M569.273,-124.542C508.131,-121.259 389.635,-110.966 364,-80 353.096,-66.8281 354.531,-46.7929 357.833,-31.8775"/>
<polygon fill="#cccccc" stroke="#cccccc" points="361.247,-32.6553 360.417,-22.093 354.479,-30.8676 361.247,-32.6553"/>
</g>
<!-- IntegerType&#45;&gt;Int32 -->
<g id="edge3" class="edge"><title>IntegerType&#45;&gt;Int32</title>
<path fill="none" stroke="#cccccc" d="M590.914,-115.883C561.248,-95.9902 495.13,-51.6522 459.624,-27.8418"/>
<polygon fill="#cccccc" stroke="#cccccc" points="461.552,-24.9206 451.297,-22.2579 457.653,-30.7344 461.552,-24.9206"/>
</g>
<!-- IntegerType&#45;&gt;Int64 -->
<g id="edge4" class="edge"><title>IntegerType&#45;&gt;Int64</title>
<path fill="none" stroke="#cccccc" d="M597.303,-115.883C580.709,-96.5802 544.33,-54.2609 523.485,-30.0135"/>
<polygon fill="#cccccc" stroke="#cccccc" points="525.991,-27.5595 516.818,-22.2579 520.683,-32.1227 525.991,-27.5595"/>
</g>
<!-- IntegerType&#45;&gt;Int8 -->
<g id="edge5" class="edge"><title>IntegerType&#45;&gt;Int8</title>
<path fill="none" stroke="#cccccc" d="M603.693,-115.883C599.425,-97.1703 590.224,-56.8266 584.627,-32.2866"/>
<polygon fill="#cccccc" stroke="#cccccc" points="587.976,-31.2293 582.34,-22.2579 581.151,-32.7859 587.976,-31.2293"/>
</g>
<!-- SignedIntegerType -->
<g id="node18" class="node"><title>SignedIntegerType</title>
<g id="a_node18"><a xlink:href="/protocol/SignedIntegerType/" xlink:title="SignedIntegerType">
<path fill="#999999" stroke="#999999" d="M475.727,-80C475.727,-80 380.273,-80 380.273,-80 376.606,-80 372.94,-76.3333 372.94,-72.6667 372.94,-72.6667 372.94,-65.3333 372.94,-65.3333 372.94,-61.6667 376.606,-58 380.273,-58 380.273,-58 475.727,-58 475.727,-58 479.394,-58 483.06,-61.6667 483.06,-65.3333 483.06,-65.3333 483.06,-72.6667 483.06,-72.6667 483.06,-76.3333 479.394,-80 475.727,-80"/>
<text text-anchor="middle" x="428" y="-65.4" font-family="Helvetica,sans-Serif" font-size="12.00" fill="white">SignedIntegerType</text>
</a>
</g>
</g>
<!-- IntegerType&#45;&gt;SignedIntegerType -->
<g id="edge6" class="edge"><title>IntegerType&#45;&gt;SignedIntegerType</title>
<path fill="none" stroke="#cccccc" d="M574.177,-115.988C545.032,-106.819 501.7,-93.1866 469.778,-83.1436"/>
<polygon fill="#cccccc" stroke="#cccccc" points="470.436,-79.6817 459.847,-80.0192 468.336,-86.359 470.436,-79.6817"/>
</g>
<!-- UInt -->
<g id="node20" class="node"><title>UInt</title>
<g id="a_node20"><a xlink:href="/type/UInt/" xlink:title="UInt">
<polygon fill="#999999" stroke="#999999" points="679,-22 625,-22 625,-0 679,-0 679,-22"/>
<text text-anchor="middle" x="652" y="-7.4" font-family="Helvetica,sans-Serif" font-size="12.00" fill="white">UInt</text>
</a>
</g>
</g>
<!-- IntegerType&#45;&gt;UInt -->
<g id="edge7" class="edge"><title>IntegerType&#45;&gt;UInt</title>
<path fill="none" stroke="#cccccc" d="M610.082,-115.883C617.701,-97.0017 634.206,-56.098 644.08,-31.6272"/>
<polygon fill="#cccccc" stroke="#cccccc" points="647.365,-32.8412 647.861,-22.2579 640.873,-30.2218 647.365,-32.8412"/>
</g>
<!-- UInt16 -->
<g id="node21" class="node"><title>UInt16</title>
<g id="a_node21"><a xlink:href="/type/UInt16/" xlink:title="UInt16">
<polygon fill="#999999" stroke="#999999" points="751,-22 697,-22 697,-0 751,-0 751,-22"/>
<text text-anchor="middle" x="724" y="-7.4" font-family="Helvetica,sans-Serif" font-size="12.00" fill="white">UInt16</text>
</a>
</g>
</g>
<!-- IntegerType&#45;&gt;UInt16 -->
<g id="edge8" class="edge"><title>IntegerType&#45;&gt;UInt16</title>
<path fill="none" stroke="#cccccc" d="M616.472,-115.883C636.627,-96.4116 681.023,-53.52 706.008,-29.3824"/>
<polygon fill="#cccccc" stroke="#cccccc" points="708.622,-31.7233 713.382,-22.2579 703.758,-26.6889 708.622,-31.7233"/>
</g>
<!-- UInt32 -->
<g id="node22" class="node"><title>UInt32</title>
<g id="a_node22"><a xlink:href="/type/UInt32/" xlink:title="UInt32">
<polygon fill="#999999" stroke="#999999" points="823,-22 769,-22 769,-0 823,-0 823,-22"/>
<text text-anchor="middle" x="796" y="-7.4" font-family="Helvetica,sans-Serif" font-size="12.00" fill="white">UInt32</text>
</a>
</g>
</g>
<!-- IntegerType&#45;&gt;UInt32 -->
<g id="edge9" class="edge"><title>IntegerType&#45;&gt;UInt32</title>
<path fill="none" stroke="#cccccc" d="M642.713,-123.69C698.772,-119.311 801.584,-107.639 824,-80 835.966,-65.2453 824.563,-44.6696 812.913,-30.0244"/>
<polygon fill="#cccccc" stroke="#cccccc" points="815.36,-27.5006 806.201,-22.1757 810.04,-32.0503 815.36,-27.5006"/>
</g>
<!-- UInt64 -->
<g id="node23" class="node"><title>UInt64</title>
<g id="a_node23"><a xlink:href="/type/UInt64/" xlink:title="UInt64">
<polygon fill="#999999" stroke="#999999" points="895,-22 841,-22 841,-0 895,-0 895,-22"/>
<text text-anchor="middle" x="868" y="-7.4" font-family="Helvetica,sans-Serif" font-size="12.00" fill="white">UInt64</text>
</a>
</g>
</g>
<!-- IntegerType&#45;&gt;UInt64 -->
<g id="edge10" class="edge"><title>IntegerType&#45;&gt;UInt64</title>
<path fill="none" stroke="#cccccc" d="M642.431,-123.104C700.679,-117.792 811.257,-104.702 841,-80 855.311,-68.1148 862.084,-47.5733 865.261,-32.1695"/>
<polygon fill="#cccccc" stroke="#cccccc" points="868.754,-32.5061 866.994,-22.0584 861.855,-31.3231 868.754,-32.5061"/>
</g>
<!-- UInt8 -->
<g id="node24" class="node"><title>UInt8</title>
<g id="a_node24"><a xlink:href="/type/UInt8/" xlink:title="UInt8">
<polygon fill="#999999" stroke="#999999" points="967,-22 913,-22 913,-0 967,-0 967,-22"/>
<text text-anchor="middle" x="940" y="-7.4" font-family="Helvetica,sans-Serif" font-size="12.00" fill="white">UInt8</text>
</a>
</g>
</g>
<!-- IntegerType&#45;&gt;UInt8 -->
<g id="edge11" class="edge"><title>IntegerType&#45;&gt;UInt8</title>
<path fill="none" stroke="#cccccc" d="M642.371,-125.586C693.947,-123.684 790.155,-115.212 863,-80 887.886,-67.9706 910.862,-45.5834 925.119,-29.7887"/>
<polygon fill="#cccccc" stroke="#cccccc" points="927.791,-32.0498 931.744,-22.2198 922.524,-27.4394 927.791,-32.0498"/>
</g>
<!-- UnsignedIntegerType -->
<g id="node25" class="node"><title>UnsignedIntegerType</title>
<g id="a_node25"><a xlink:href="/protocol/UnsignedIntegerType/" xlink:title="UnsignedIntegerType">
<path fill="#999999" stroke="#999999" d="M807.728,-80C807.728,-80 698.272,-80 698.272,-80 694.605,-80 690.938,-76.3333 690.938,-72.6667 690.938,-72.6667 690.938,-65.3333 690.938,-65.3333 690.938,-61.6667 694.605,-58 698.272,-58 698.272,-58 807.728,-58 807.728,-58 811.395,-58 815.062,-61.6667 815.062,-65.3333 815.062,-65.3333 815.062,-72.6667 815.062,-72.6667 815.062,-76.3333 811.395,-80 807.728,-80"/>
<text text-anchor="middle" x="753" y="-65.4" font-family="Helvetica,sans-Serif" font-size="12.00" fill="white">UnsignedIntegerType</text>
</a>
</g>
</g>
<!-- IntegerType&#45;&gt;UnsignedIntegerType -->
<g id="edge12" class="edge"><title>IntegerType&#45;&gt;UnsignedIntegerType</title>
<path fill="none" stroke="#cccccc" d="M632.281,-115.988C655.86,-107.006 690.683,-93.7398 716.876,-83.7614"/>
<polygon fill="#cccccc" stroke="#cccccc" points="718.352,-86.9445 726.451,-80.1138 715.86,-80.4031 718.352,-86.9445"/>
</g>
<!-- RandomAccessIndexType&#45;&gt;IntegerType -->
<g id="edge25" class="edge"><title>RandomAccessIndexType&#45;&gt;IntegerType</title>
<path fill="none" stroke="#cccccc" d="M670.055,-173.988C658.481,-165.678 641.8,-153.703 628.363,-144.055"/>
<polygon fill="#cccccc" stroke="#cccccc" points="630.252,-141.103 620.087,-138.114 626.169,-146.789 630.252,-141.103"/>
</g>
<!-- SignedIntegerType&#45;&gt;Int -->
<g id="edge14" class="edge"><title>SignedIntegerType&#45;&gt;Int</title>
<path fill="none" stroke="#cccccc" d="M390.055,-57.964C357.296,-49.2746 308.44,-36.2563 257.077,-22.2771"/>
<polygon fill="#cccccc" stroke="#cccccc" points="257.688,-18.8158 247.119,-19.5632 255.847,-25.5695 257.688,-18.8158"/>
</g>
<!-- SignedIntegerType&#45;&gt;Int16 -->
<g id="edge15" class="edge"><title>SignedIntegerType&#45;&gt;Int16</title>
<path fill="none" stroke="#cccccc" d="M416.558,-57.9883C407.39,-49.966 394.317,-38.5272 383.503,-29.065"/>
<polygon fill="#cccccc" stroke="#cccccc" points="385.606,-26.2549 375.776,-22.3039 380.997,-31.523 385.606,-26.2549"/>
</g>
<!-- SignedIntegerType&#45;&gt;Int32 -->
<g id="edge16" class="edge"><title>SignedIntegerType&#45;&gt;Int32</title>
<path fill="none" stroke="#cccccc" d="M429.43,-57.9883C430.441,-50.9098 431.833,-41.1714 433.075,-32.4779"/>
<polygon fill="#cccccc" stroke="#cccccc" points="436.579,-32.6984 434.528,-22.3039 429.649,-31.7084 436.579,-32.6984"/>
</g>
<!-- SignedIntegerType&#45;&gt;Int64 -->
<g id="edge17" class="edge"><title>SignedIntegerType&#45;&gt;Int64</title>
<path fill="none" stroke="#cccccc" d="M442.302,-57.9883C454.174,-49.6784 471.282,-37.7028 485.064,-28.0554"/>
<polygon fill="#cccccc" stroke="#cccccc" points="487.366,-30.7158 493.552,-22.1138 483.352,-24.9812 487.366,-30.7158"/>
</g>
<!-- SignedIntegerType&#45;&gt;Int8 -->
<g id="edge18" class="edge"><title>SignedIntegerType&#45;&gt;Int8</title>
<path fill="none" stroke="#cccccc" d="M455.175,-57.9883C479.739,-48.9381 516.106,-35.5399 543.258,-25.5367"/>
<polygon fill="#cccccc" stroke="#cccccc" points="544.631,-28.7606 552.805,-22.0192 542.211,-22.1922 544.631,-28.7606"/>
</g>
<!-- Strideable&#45;&gt;RandomAccessIndexType -->
<g id="edge38" class="edge"><title>Strideable&#45;&gt;RandomAccessIndexType</title>
<path fill="none" stroke="#cccccc" d="M684,-289.883C684,-271.17 684,-230.827 684,-206.287"/>
<polygon fill="#cccccc" stroke="#cccccc" points="687.5,-206.258 684,-196.258 680.5,-206.258 687.5,-206.258"/>
</g>
<!-- UnsignedIntegerType&#45;&gt;UInt -->
<g id="edge19" class="edge"><title>UnsignedIntegerType&#45;&gt;UInt</title>
<path fill="none" stroke="#cccccc" d="M734.943,-57.9883C719.385,-49.3619 696.702,-36.785 678.987,-26.9633"/>
<polygon fill="#cccccc" stroke="#cccccc" points="680.684,-23.902 670.241,-22.1138 677.289,-30.0239 680.684,-23.902"/>
</g>
<!-- UnsignedIntegerType&#45;&gt;UInt16 -->
<g id="edge20" class="edge"><title>UnsignedIntegerType&#45;&gt;UInt16</title>
<path fill="none" stroke="#cccccc" d="M747.815,-57.9883C743.987,-50.5952 738.656,-40.3005 734.008,-31.3253"/>
<polygon fill="#cccccc" stroke="#cccccc" points="737.043,-29.5743 729.336,-22.3039 730.827,-32.7933 737.043,-29.5743"/>
</g>
<!-- UnsignedIntegerType&#45;&gt;UInt32 -->
<g id="edge21" class="edge"><title>UnsignedIntegerType&#45;&gt;UInt32</title>
<path fill="none" stroke="#cccccc" d="M760.688,-57.9883C766.546,-50.3592 774.776,-39.6405 781.818,-30.4702"/>
<polygon fill="#cccccc" stroke="#cccccc" points="784.774,-32.367 788.088,-22.3039 779.222,-28.1038 784.774,-32.367"/>
</g>
<!-- UnsignedIntegerType&#45;&gt;UInt64 -->
<g id="edge22" class="edge"><title>UnsignedIntegerType&#45;&gt;UInt64</title>
<path fill="none" stroke="#cccccc" d="M773.56,-57.9883C791.519,-49.2431 817.815,-36.4381 838.101,-26.5594"/>
<polygon fill="#cccccc" stroke="#cccccc" points="839.772,-29.6387 847.231,-22.1138 836.708,-23.3452 839.772,-29.6387"/>
</g>
<!-- UnsignedIntegerType&#45;&gt;UInt8 -->
<g id="edge23" class="edge"><title>UnsignedIntegerType&#45;&gt;UInt8</title>
<path fill="none" stroke="#cccccc" d="M786.432,-57.9883C819.183,-48.1806 868.985,-33.2666 902.931,-23.1008"/>
<polygon fill="#cccccc" stroke="#cccccc" points="904.345,-26.331 912.921,-20.1092 902.337,-19.6252 904.345,-26.331"/>
</g>
<!-- _Incrementable&#45;&gt;ForwardIndexType -->
<g id="edge40" class="edge"><title>_Incrementable&#45;&gt;ForwardIndexType</title>
<path fill="none" stroke="#cccccc" d="M789.224,-347.988C795.555,-340.281 804.477,-329.419 812.061,-320.187"/>
<polygon fill="#cccccc" stroke="#cccccc" points="814.893,-322.253 818.536,-312.304 809.484,-317.81 814.893,-322.253"/>
</g>
<!-- _Incrementable&#45;&gt;_IntegerType -->
<g id="edge31" class="edge"><title>_Incrementable&#45;&gt;_IntegerType</title>
<path fill="none" stroke="#cccccc" d="M775.682,-347.776C767.175,-332.526 748.994,-304.109 725,-290 662.704,-253.369 577.885,-244.743 524.54,-243.306"/>
<polygon fill="#cccccc" stroke="#cccccc" points="524.373,-239.802 514.307,-243.109 524.238,-246.801 524.373,-239.802"/>
</g>
<!-- _IntegerArithmeticType -->
<g id="node27" class="node"><title>_IntegerArithmeticType</title>
<g id="a_node27"><a xlink:href="/protocol/_IntegerArithmeticType/" xlink:title="_IntegerArithmeticType">
<path fill="#999999" stroke="#999999" d="M442.215,-370C442.215,-370 323.785,-370 323.785,-370 320.118,-370 316.452,-366.333 316.452,-362.667 316.452,-362.667 316.452,-355.333 316.452,-355.333 316.452,-351.667 320.118,-348 323.785,-348 323.785,-348 442.215,-348 442.215,-348 445.882,-348 449.548,-351.667 449.548,-355.333 449.548,-355.333 449.548,-362.667 449.548,-362.667 449.548,-366.333 445.882,-370 442.215,-370"/>
<text text-anchor="middle" x="383" y="-355.4" font-family="Helvetica,sans-Serif" font-size="12.00" fill="white">_IntegerArithmeticType</text>
</a>
</g>
</g>
<!-- _IntegerArithmeticType&#45;&gt;IntegerArithmeticType -->
<g id="edge33" class="edge"><title>_IntegerArithmeticType&#45;&gt;IntegerArithmeticType</title>
<path fill="none" stroke="#cccccc" d="M383,-347.988C383,-340.91 383,-331.171 383,-322.478"/>
<polygon fill="#cccccc" stroke="#cccccc" points="386.5,-322.304 383,-312.304 379.5,-322.304 386.5,-322.304"/>
</g>
<!-- _IntegerType&#45;&gt;IntegerType -->
<g id="edge24" class="edge"><title>_IntegerType&#45;&gt;IntegerType</title>
<path fill="none" stroke="#cccccc" d="M485.714,-231.883C508.358,-212.327 558.355,-169.148 586.235,-145.07"/>
<polygon fill="#cccccc" stroke="#cccccc" points="588.842,-147.443 594.122,-138.258 584.266,-142.145 588.842,-147.443"/>
</g>
<!-- _Strideable -->
<g id="node29" class="node"><title>_Strideable</title>
<g id="a_node29"><a xlink:href="/protocol/_Strideable/" xlink:title="_Strideable">
<path fill="#999999" stroke="#999999" d="M708.7,-370C708.7,-370 653.3,-370 653.3,-370 649.634,-370 645.967,-366.333 645.967,-362.667 645.967,-362.667 645.967,-355.333 645.967,-355.333 645.967,-351.667 649.634,-348 653.3,-348 653.3,-348 708.7,-348 708.7,-348 712.366,-348 716.033,-351.667 716.033,-355.333 716.033,-355.333 716.033,-362.667 716.033,-362.667 716.033,-366.333 712.366,-370 708.7,-370"/>
<text text-anchor="middle" x="681" y="-355.4" font-family="Helvetica,sans-Serif" font-size="12.00" fill="white">_Strideable</text>
</a>
</g>
</g>
<!-- _Strideable&#45;&gt;Strideable -->
<g id="edge42" class="edge"><title>_Strideable&#45;&gt;Strideable</title>
<path fill="none" stroke="#cccccc" d="M681.536,-347.988C681.916,-340.91 682.437,-331.171 682.903,-322.478"/>
<polygon fill="#cccccc" stroke="#cccccc" points="686.408,-322.477 683.448,-312.304 679.418,-322.102 686.408,-322.477"/>
</g>
</g>
</svg>
