<?xml version="1.0" encoding="UTF-8" standalone="no"?>
<!DOCTYPE svg PUBLIC "-//W3C//DTD SVG 1.1//EN"
 "http://www.w3.org/Graphics/SVG/1.1/DTD/svg11.dtd">
<!-- Generated by graphviz version 2.36.0 (20140111.2315)
 -->
<!-- Title: CustomDebugStringConvertible &#45; Type Hierarchy &#45; SwiftDoc.org Pages: 1 -->
<svg width="2557pt" height="195pt"
 viewBox="0.00 0.00 2557.40 195.20" xmlns="http://www.w3.org/2000/svg" xmlns:xlink="http://www.w3.org/1999/xlink">
<g id="graph0" class="graph" transform="scale(1 1) rotate(0) translate(7.2 137.6)">
<g transform="translate(0 -137.6)">
<g>
    <path fill="#666666" d="M13.846,10.832c-0.336-0.464-0.792-0.844-1.368-1.14s-1.224-0.444-1.944-0.444
        c-0.384,0-0.772,0.052-1.164,0.156C8.977,9.509,8.622,9.677,8.301,9.908c-0.32,0.232-0.58,0.52-0.78,0.864
        c-0.2,0.344-0.3,0.756-0.3,1.236c0,0.464,0.092,0.852,0.276,1.164c0.184,0.312,0.432,0.576,0.744,0.792s0.68,0.4,1.104,0.552
        c0.423,0.152,0.876,0.309,1.356,0.468c0.576,0.177,1.16,0.376,1.752,0.601c0.592,0.224,1.128,0.52,1.608,0.888
        s0.872,0.828,1.176,1.38s0.456,1.252,0.456,2.101c0,0.88-0.164,1.644-0.492,2.292c-0.328,0.647-0.765,1.184-1.308,1.607
        c-0.544,0.424-1.172,0.74-1.884,0.948s-1.444,0.312-2.196,0.312c-1.072,0-2.108-0.208-3.108-0.624
        c-1-0.415-1.828-1.031-2.484-1.848l1.848-1.56c0.4,0.592,0.936,1.071,1.608,1.439c0.672,0.368,1.399,0.552,2.184,0.552
        c0.4,0,0.8-0.056,1.2-0.168c0.4-0.111,0.764-0.288,1.092-0.527c0.328-0.24,0.596-0.54,0.804-0.9
        c0.208-0.36,0.312-0.796,0.312-1.308s-0.108-0.94-0.324-1.284c-0.216-0.344-0.508-0.636-0.876-0.876s-0.796-0.444-1.284-0.612
        c-0.488-0.168-1.004-0.34-1.548-0.516c-0.544-0.16-1.08-0.356-1.608-0.588c-0.528-0.232-1-0.528-1.416-0.889
        c-0.416-0.359-0.752-0.804-1.008-1.332c-0.256-0.527-0.384-1.184-0.384-1.968c0-0.848,0.172-1.576,0.516-2.184
        c0.344-0.608,0.792-1.112,1.344-1.512c0.552-0.4,1.176-0.692,1.872-0.876c0.696-0.184,1.396-0.276,2.1-0.276
        c0.992,0,1.92,0.176,2.784,0.528c0.864,0.352,1.56,0.824,2.088,1.416L13.846,10.832z"/>
    <path fill="#666666" d="M18.813,13.304l2.568,8.688h0.048l2.712-8.688h2.376l2.76,8.688h0.048l2.568-8.688h2.376L30.501,24.68
        h-2.352l-2.808-8.544h-0.048l-2.784,8.544h-2.352l-3.792-11.376H18.813z"/>
    <path fill="#666666" d="M38.685,9.2c0,0.416-0.147,0.76-0.44,1.032c-0.294,0.272-0.647,0.408-1.06,0.408s-0.762-0.14-1.047-0.42
        c-0.286-0.28-0.429-0.62-0.429-1.02c0-0.416,0.143-0.764,0.429-1.044c0.286-0.28,0.635-0.42,1.047-0.42s0.766,0.14,1.06,0.42
        C38.538,8.437,38.685,8.784,38.685,9.2z M38.325,24.68h-2.256V13.304h2.256V24.68z"/>
    <path fill="#666666" d="M47.613,15.152h-2.64v9.528h-2.256v-9.528h-2.256v-1.848h2.256v-2.376c0-0.672,0.076-1.292,0.228-1.86
        c0.152-0.568,0.4-1.06,0.744-1.476c0.344-0.416,0.784-0.744,1.32-0.984c0.536-0.24,1.188-0.36,1.956-0.36
        c0.544,0,1.016,0.056,1.416,0.168l-0.264,1.944c-0.176-0.048-0.352-0.088-0.528-0.12c-0.176-0.032-0.376-0.048-0.6-0.048
        c-0.432,0-0.78,0.076-1.044,0.228c-0.264,0.152-0.468,0.356-0.612,0.612s-0.24,0.548-0.288,0.876
        c-0.048,0.328-0.072,0.668-0.072,1.02v2.376h2.64V15.152z"/>
    <path fill="#666666" d="M54.909,15.152h-3.024v5.91c0,0.687,0.128,1.177,0.384,1.472c0.256,0.295,0.664,0.442,1.224,0.442
        c0.208,0,0.432-0.021,0.672-0.065c0.24-0.044,0.456-0.11,0.648-0.198l0.072,1.848c-0.272,0.096-0.572,0.172-0.9,0.229
        c-0.328,0.056-0.668,0.084-1.02,0.084c-1.072,0-1.892-0.296-2.46-0.889c-0.568-0.592-0.852-1.479-0.852-2.664v-6.168h-2.184
        v-1.848h2.184V10.04h2.232v3.264h3.024V15.152z"/>
    <path fill="#666666" d="M57.356,7.688h5.832c1.088,0,2.176,0.16,3.264,0.48c1.088,0.32,2.072,0.824,2.952,1.512
        s1.592,1.568,2.136,2.64c0.544,1.072,0.816,2.36,0.816,3.864c0,1.456-0.272,2.716-0.816,3.78s-1.256,1.943-2.136,2.64
        s-1.864,1.216-2.952,1.561c-1.088,0.344-2.176,0.516-3.264,0.516h-5.832V7.688z M59.732,22.593h2.976
        c1.024,0,1.972-0.145,2.844-0.432c0.872-0.288,1.624-0.704,2.256-1.248c0.632-0.544,1.124-1.216,1.476-2.017
        c0.352-0.8,0.528-1.704,0.528-2.712c0-1.056-0.176-1.983-0.528-2.784c-0.353-0.8-0.844-1.468-1.476-2.004
        c-0.632-0.536-1.384-0.944-2.256-1.224s-1.82-0.42-2.844-0.42h-2.976V22.593z"/>
    <path fill="#666666" d="M86.06,18.969c0,0.88-0.156,1.688-0.468,2.424c-0.312,0.736-0.744,1.372-1.296,1.908
        c-0.552,0.536-1.204,0.952-1.956,1.248c-0.752,0.296-1.56,0.443-2.424,0.443c-0.864,0-1.672-0.147-2.424-0.443
        c-0.752-0.296-1.4-0.712-1.944-1.248c-0.544-0.536-0.972-1.172-1.284-1.908c-0.312-0.735-0.468-1.544-0.468-2.424
        s0.156-1.684,0.468-2.412c0.312-0.728,0.74-1.356,1.284-1.884c0.543-0.528,1.191-0.939,1.944-1.236
        c0.752-0.296,1.56-0.444,2.424-0.444c0.864,0,1.672,0.148,2.424,0.444c0.752,0.297,1.404,0.708,1.956,1.236
        c0.552,0.527,0.984,1.156,1.296,1.884C85.904,17.285,86.06,18.089,86.06,18.969z M83.708,18.98c0-0.542-0.084-1.061-0.252-1.556
        c-0.169-0.494-0.414-0.929-0.734-1.304s-0.718-0.674-1.192-0.897s-1.015-0.335-1.625-0.335c-0.61,0-1.152,0.111-1.625,0.335
        c-0.474,0.224-0.871,0.522-1.191,0.897c-0.321,0.375-0.566,0.81-0.734,1.304C76.184,17.92,76.1,18.438,76.1,18.98
        c0,0.543,0.084,1.062,0.253,1.556c0.168,0.495,0.413,0.934,0.734,1.316c0.321,0.383,0.718,0.686,1.191,0.909
        c0.473,0.224,1.015,0.335,1.625,0.335c0.61,0,1.151-0.111,1.625-0.335s0.871-0.526,1.192-0.909s0.565-0.821,0.734-1.316
        C83.624,20.042,83.708,19.523,83.708,18.98z"/>
    <path fill="#666666" d="M96.428,16.184c-0.24-0.368-0.6-0.676-1.08-0.924s-0.992-0.372-1.536-0.372
        c-0.592,0-1.116,0.112-1.572,0.336c-0.456,0.225-0.844,0.524-1.164,0.9c-0.32,0.376-0.564,0.812-0.732,1.308
        s-0.252,1.017-0.252,1.56c0,0.545,0.084,1.064,0.252,1.561s0.412,0.933,0.732,1.308c0.32,0.376,0.712,0.677,1.176,0.9
        c0.464,0.225,0.992,0.336,1.584,0.336c0.576,0,1.1-0.111,1.572-0.336c0.472-0.224,0.86-0.528,1.164-0.912l1.512,1.368
        c-0.48,0.561-1.08,0.996-1.8,1.308c-0.72,0.312-1.536,0.468-2.448,0.468c-0.88,0-1.692-0.144-2.436-0.432
        c-0.744-0.288-1.388-0.691-1.932-1.212c-0.544-0.52-0.972-1.147-1.284-1.884s-0.468-1.561-0.468-2.473
        c0-0.896,0.152-1.711,0.456-2.447c0.304-0.736,0.728-1.368,1.272-1.896c0.543-0.527,1.188-0.936,1.932-1.224
        c0.744-0.288,1.548-0.433,2.412-0.433c0.8,0,1.596,0.16,2.388,0.48s1.419,0.784,1.884,1.392L96.428,16.184z"/>
    <path fill="#666666" d="M103.1,23.24c0,0.417-0.152,0.784-0.456,1.104c-0.304,0.32-0.688,0.479-1.152,0.479
        c-0.448,0-0.828-0.155-1.14-0.468c-0.312-0.312-0.468-0.676-0.468-1.092c0-0.432,0.152-0.804,0.456-1.116
        c0.304-0.312,0.688-0.468,1.152-0.468c0.464,0,0.848,0.152,1.152,0.456C102.947,22.44,103.1,22.808,103.1,23.24z"/>
    <path fill="#666666" d="M116.635,18.969c0,0.88-0.156,1.688-0.468,2.424c-0.312,0.736-0.744,1.372-1.296,1.908
        c-0.552,0.536-1.204,0.952-1.956,1.248c-0.752,0.296-1.56,0.443-2.424,0.443c-0.864,0-1.672-0.147-2.424-0.443
        c-0.752-0.296-1.4-0.712-1.944-1.248c-0.544-0.536-0.972-1.172-1.284-1.908c-0.312-0.735-0.468-1.544-0.468-2.424
        s0.156-1.684,0.468-2.412c0.312-0.728,0.74-1.356,1.284-1.884c0.543-0.528,1.191-0.939,1.944-1.236
        c0.752-0.296,1.56-0.444,2.424-0.444c0.864,0,1.672,0.148,2.424,0.444c0.752,0.297,1.404,0.708,1.956,1.236
        c0.552,0.527,0.984,1.156,1.296,1.884C116.479,17.285,116.635,18.089,116.635,18.969z M114.283,18.98
        c0-0.542-0.084-1.061-0.252-1.556c-0.169-0.494-0.414-0.929-0.734-1.304s-0.718-0.674-1.192-0.897s-1.015-0.335-1.625-0.335
        c-0.61,0-1.152,0.111-1.625,0.335c-0.474,0.224-0.871,0.522-1.191,0.897c-0.321,0.375-0.566,0.81-0.734,1.304
        c-0.169,0.495-0.253,1.014-0.253,1.556c0,0.543,0.084,1.062,0.253,1.556c0.168,0.495,0.413,0.934,0.734,1.316
        c0.321,0.383,0.718,0.686,1.191,0.909c0.473,0.224,1.015,0.335,1.625,0.335c0.61,0,1.151-0.111,1.625-0.335
        s0.871-0.526,1.192-0.909s0.565-0.821,0.734-1.316C114.199,20.042,114.283,19.523,114.283,18.98z"/>
    <path fill="#666666" d="M119.251,14.577c-0.016-0.48-0.04-0.904-0.072-1.272h2.136c0.032,0.288,0.056,0.62,0.072,0.996
        c0.016,0.376,0.024,0.684,0.024,0.924h0.072c0.32-0.672,0.788-1.212,1.404-1.62c0.616-0.408,1.308-0.612,2.076-0.612
        c0.352,0,0.648,0.033,0.888,0.097l-0.096,2.088c-0.32-0.08-0.664-0.12-1.032-0.12c-0.544,0-1.016,0.101-1.416,0.3
        c-0.4,0.2-0.732,0.468-0.996,0.805c-0.264,0.336-0.46,0.724-0.588,1.163c-0.128,0.44-0.192,0.9-0.192,1.381v5.976h-2.256v-8.928
        C119.275,15.449,119.267,15.056,119.251,14.577z"/>
    <path fill="#666666" d="M128.419,26.625c0.496,0.56,1.116,1.008,1.86,1.344c0.744,0.336,1.508,0.504,2.292,0.504
        c0.752,0,1.384-0.108,1.896-0.324s0.924-0.512,1.236-0.888s0.536-0.82,0.672-1.332c0.136-0.513,0.204-1.064,0.204-1.656v-1.464
        h-0.048c-0.416,0.641-0.984,1.128-1.704,1.464c-0.72,0.336-1.488,0.504-2.304,0.504c-0.864,0-1.652-0.151-2.364-0.456
        c-0.712-0.304-1.316-0.72-1.812-1.248c-0.496-0.527-0.88-1.147-1.152-1.859s-0.408-1.477-0.408-2.292
        c0-0.816,0.136-1.584,0.408-2.305c0.272-0.72,0.656-1.348,1.152-1.884c0.496-0.535,1.096-0.96,1.8-1.271
        c0.704-0.312,1.488-0.469,2.352-0.469c0.816,0,1.596,0.177,2.34,0.528c0.744,0.353,1.332,0.888,1.764,1.608h0.048v-1.824h2.184
        v10.8c0,0.832-0.104,1.628-0.312,2.388c-0.208,0.76-0.56,1.433-1.056,2.017s-1.144,1.052-1.944,1.404
        c-0.8,0.352-1.792,0.527-2.976,0.527c-0.992,0-1.988-0.18-2.988-0.54c-1-0.359-1.86-0.868-2.58-1.523L128.419,26.625z
         M129.091,18.873c0,0.527,0.084,1.031,0.253,1.512c0.168,0.479,0.417,0.904,0.746,1.271c0.329,0.369,0.726,0.664,1.192,0.889
        c0.465,0.224,0.995,0.336,1.589,0.336c0.577,0,1.107-0.104,1.589-0.312c0.481-0.207,0.891-0.491,1.228-0.852
        s0.598-0.784,0.782-1.272c0.185-0.487,0.277-1.012,0.277-1.571c0-0.544-0.093-1.057-0.277-1.536
        c-0.185-0.48-0.449-0.904-0.794-1.272c-0.345-0.367-0.755-0.66-1.228-0.876c-0.474-0.216-1-0.324-1.577-0.324
        c-0.594,0-1.124,0.108-1.589,0.324c-0.466,0.216-0.863,0.504-1.192,0.864s-0.578,0.784-0.746,1.271
        C129.175,17.812,129.091,18.329,129.091,18.873z"/>
</g>
<g><a xlink:href="/" pointer-events="all" target="_top"><polygon fill="none" points="0,0 145,0 145,35 0,35 0,0"/></a></g>

</g>


<!-- Array -->
<g id="node1" class="node">
<g id="a_node1"><a xlink:href="/v2.1/type/Array/hierarchy/" target="_top">
<polygon fill="#999999" stroke="#999999" points="54,-22 0,-22 0,-0 54,-0 54,-22"/>
<text text-anchor="middle" x="27" y="-7.4" font-family="Helvetica,sans-Serif" font-size="12.00" fill="white">Array</text>
</a>
</g>
</g>
<!-- ArraySlice -->
<g id="node2" class="node">
<g id="a_node2"><a xlink:href="/v2.1/type/ArraySlice/hierarchy/" target="_top">
<polygon fill="#999999" stroke="#999999" points="136.011,-22 71.9886,-22 71.9886,-0 136.011,-0 136.011,-22"/>
<text text-anchor="middle" x="104" y="-7.4" font-family="Helvetica,sans-Serif" font-size="12.00" fill="white">ArraySlice</text>
</a>
</g>
</g>
<!-- AutoreleasingUnsafeMutablePointer -->
<g id="node3" class="node">
<g id="a_node3"><a xlink:href="/v2.1/type/AutoreleasingUnsafeMutablePointer/hierarchy/" target="_top">
<polygon fill="#999999" stroke="#999999" points="356.088,-22 153.912,-22 153.912,-0 356.088,-0 356.088,-22"/>
<text text-anchor="middle" x="255" y="-7.4" font-family="Helvetica,sans-Serif" font-size="12.00" fill="white">AutoreleasingUnsafeMutablePointer</text>
</a>
</g>
</g>
<!-- COpaquePointer -->
<g id="node4" class="node">
<g id="a_node4"><a xlink:href="/v2.1/type/COpaquePointer/hierarchy/" target="_top">
<polygon fill="#999999" stroke="#999999" points="473.542,-22 374.458,-22 374.458,-0 473.542,-0 473.542,-22"/>
<text text-anchor="middle" x="424" y="-7.4" font-family="Helvetica,sans-Serif" font-size="12.00" fill="white">COpaquePointer</text>
</a>
</g>
</g>
<!-- CVaListPointer -->
<g id="node5" class="node">
<g id="a_node5"><a xlink:href="/v2.1/type/CVaListPointer/hierarchy/" target="_top">
<polygon fill="#999999" stroke="#999999" points="580.365,-22 491.635,-22 491.635,-0 580.365,-0 580.365,-22"/>
<text text-anchor="middle" x="536" y="-7.4" font-family="Helvetica,sans-Serif" font-size="12.00" fill="white">CVaListPointer</text>
</a>
</g>
</g>
<!-- Character -->
<g id="node6" class="node">
<g id="a_node6"><a xlink:href="/v2.1/type/Character/hierarchy/" target="_top">
<polygon fill="#999999" stroke="#999999" points="661.017,-22 598.983,-22 598.983,-0 661.017,-0 661.017,-22"/>
<text text-anchor="middle" x="630" y="-7.4" font-family="Helvetica,sans-Serif" font-size="12.00" fill="white">Character</text>
</a>
</g>
</g>
<!-- ClosedInterval -->
<g id="node7" class="node">
<g id="a_node7"><a xlink:href="/v2.1/type/ClosedInterval/hierarchy/" target="_top">
<polygon fill="#999999" stroke="#999999" points="766.03,-22 679.97,-22 679.97,-0 766.03,-0 766.03,-22"/>
<text text-anchor="middle" x="723" y="-7.4" font-family="Helvetica,sans-Serif" font-size="12.00" fill="white">ClosedInterval</text>
</a>
</g>
</g>
<!-- ContiguousArray -->
<g id="node8" class="node">
<g id="a_node8"><a xlink:href="/v2.1/type/ContiguousArray/hierarchy/" target="_top">
<polygon fill="#999999" stroke="#999999" points="883.534,-22 784.466,-22 784.466,-0 883.534,-0 883.534,-22"/>
<text text-anchor="middle" x="834" y="-7.4" font-family="Helvetica,sans-Serif" font-size="12.00" fill="white">ContiguousArray</text>
</a>
</g>
</g>
<!-- CustomDebugStringConvertible -->
<g id="node9" class="node">
<g id="a_node9"><a xlink:href="/v2.1/protocol/CustomDebugStringConvertible/" target="_top">
<path fill="#ee543d" stroke="#ee543d" d="M1281.73,-80C1281.73,-80 1118.27,-80 1118.27,-80 1114.6,-80 1110.94,-76.3333 1110.94,-72.6667 1110.94,-72.6667 1110.94,-65.3333 1110.94,-65.3333 1110.94,-61.6667 1114.6,-58 1118.27,-58 1118.27,-58 1281.73,-58 1281.73,-58 1285.4,-58 1289.06,-61.6667 1289.06,-65.3333 1289.06,-65.3333 1289.06,-72.6667 1289.06,-72.6667 1289.06,-76.3333 1285.4,-80 1281.73,-80"/>
<text text-anchor="middle" x="1200" y="-65.4" font-family="Helvetica,sans-Serif" font-size="12.00" fill="white">CustomDebugStringConvertible</text>
</a>
</g>
</g>
<!-- CustomDebugStringConvertible&#45;&gt;Array -->
<g id="edge1" class="edge">
<path fill="none" stroke="#cccccc" d="M1110.67,-67.0427C882.863,-64.1823 283.391,-53.9188 64.5066,-21.8485"/>
<polygon fill="#cccccc" stroke="#cccccc" points="64.7873,-18.3509 54.3742,-20.3048 63.7329,-25.2711 64.7873,-18.3509"/>
</g>
<!-- CustomDebugStringConvertible&#45;&gt;ArraySlice -->
<g id="edge2" class="edge">
<path fill="none" stroke="#cccccc" d="M1110.82,-66.3555C895.16,-62.0233 348.899,-48.8345 146.088,-21.8407"/>
<polygon fill="#cccccc" stroke="#cccccc" points="146.498,-18.3642 136.113,-20.4618 145.54,-25.2983 146.498,-18.3642"/>
</g>
<!-- CustomDebugStringConvertible&#45;&gt;AutoreleasingUnsafeMutablePointer -->
<g id="edge3" class="edge">
<path fill="none" stroke="#cccccc" d="M1110.65,-64.124C959.661,-57.3426 644.142,-42.176 366.557,-22.0913"/>
<polygon fill="#cccccc" stroke="#cccccc" points="366.511,-18.5788 356.284,-21.3444 366.004,-25.5604 366.511,-18.5788"/>
</g>
<!-- CustomDebugStringConvertible&#45;&gt;COpaquePointer -->
<g id="edge4" class="edge">
<path fill="none" stroke="#cccccc" d="M1110.74,-65.3441C976.614,-60.6725 715.001,-48.9205 483.576,-22.0802"/>
<polygon fill="#cccccc" stroke="#cccccc" points="483.963,-18.6016 473.623,-20.9143 483.148,-25.5541 483.963,-18.6016"/>
</g>
<!-- CustomDebugStringConvertible&#45;&gt;CVaListPointer -->
<g id="edge5" class="edge">
<path fill="none" stroke="#cccccc" d="M1110.79,-64.2899C993.721,-58.7442 781.708,-46.376 590.396,-21.9088"/>
<polygon fill="#cccccc" stroke="#cccccc" points="590.803,-18.4323 580.437,-20.6216 589.906,-25.3746 590.803,-18.4323"/>
</g>
<!-- CustomDebugStringConvertible&#45;&gt;Character -->
<g id="edge6" class="edge">
<path fill="none" stroke="#cccccc" d="M1110.56,-64.3856C1007.12,-59.266 831.655,-47.6928 671.29,-21.7853"/>
<polygon fill="#cccccc" stroke="#cccccc" points="671.672,-18.3013 661.238,-20.1391 670.541,-25.2093 671.672,-18.3013"/>
</g>
<!-- CustomDebugStringConvertible&#45;&gt;ClosedInterval -->
<g id="edge7" class="edge">
<path fill="none" stroke="#cccccc" d="M1110.59,-60.4751C1026.75,-52.9256 897.704,-40.0419 776.303,-22.0936"/>
<polygon fill="#cccccc" stroke="#cccccc" points="776.491,-18.5829 766.083,-20.5679 775.457,-25.5062 776.491,-18.5829"/>
</g>
<!-- CustomDebugStringConvertible&#45;&gt;ContiguousArray -->
<g id="edge8" class="edge">
<path fill="none" stroke="#cccccc" d="M1129.9,-57.9884C1069.75,-49.2923 980.462,-36.1367 893.402,-22.2005"/>
<polygon fill="#cccccc" stroke="#cccccc" points="893.777,-18.7159 883.348,-20.586 892.667,-25.6274 893.777,-18.7159"/>
</g>
<!-- Dictionary -->
<g id="node10" class="node">
<g id="a_node10"><a xlink:href="/v2.1/type/Dictionary/hierarchy/" target="_top">
<polygon fill="#999999" stroke="#999999" points="964.511,-22 901.489,-22 901.489,-0 964.511,-0 964.511,-22"/>
<text text-anchor="middle" x="933" y="-7.4" font-family="Helvetica,sans-Serif" font-size="12.00" fill="white">Dictionary</text>
</a>
</g>
</g>
<!-- CustomDebugStringConvertible&#45;&gt;Dictionary -->
<g id="edge9" class="edge">
<path fill="none" stroke="#cccccc" d="M1147.82,-57.9694C1104.17,-49.4465 1040.03,-36.6118 974.807,-22.1178"/>
<polygon fill="#cccccc" stroke="#cccccc" points="975.278,-18.6369 964.756,-19.8729 973.752,-25.4686 975.278,-18.6369"/>
</g>
<!-- HalfOpenInterval -->
<g id="node11" class="node">
<g id="a_node11"><a xlink:href="/v2.1/type/HalfOpenInterval/hierarchy/" target="_top">
<polygon fill="#999999" stroke="#999999" points="1083.04,-22 982.965,-22 982.965,-0 1083.04,-0 1083.04,-22"/>
<text text-anchor="middle" x="1033" y="-7.4" font-family="Helvetica,sans-Serif" font-size="12.00" fill="white">HalfOpenInterval</text>
</a>
</g>
</g>
<!-- CustomDebugStringConvertible&#45;&gt;HalfOpenInterval -->
<g id="edge10" class="edge">
<path fill="none" stroke="#cccccc" d="M1170.14,-57.9883C1142.92,-48.8587 1102.5,-35.3046 1072.59,-25.2743"/>
<polygon fill="#cccccc" stroke="#cccccc" points="1073.47,-21.8802 1062.88,-22.0192 1071.25,-28.517 1073.47,-21.8802"/>
</g>
<!-- Optional -->
<g id="node12" class="node">
<g id="a_node12"><a xlink:href="/v2.1/type/Optional/hierarchy/" target="_top">
<polygon fill="#999999" stroke="#999999" points="1155.02,-22 1100.98,-22 1100.98,-0 1155.02,-0 1155.02,-22"/>
<text text-anchor="middle" x="1128" y="-7.4" font-family="Helvetica,sans-Serif" font-size="12.00" fill="white">Optional</text>
</a>
</g>
</g>
<!-- CustomDebugStringConvertible&#45;&gt;Optional -->
<g id="edge11" class="edge">
<path fill="none" stroke="#cccccc" d="M1187.13,-57.9883C1176.61,-49.8087 1161.53,-38.0773 1149.23,-28.5108"/>
<polygon fill="#cccccc" stroke="#cccccc" points="1151.29,-25.6806 1141.25,-22.3039 1146.99,-31.2061 1151.29,-25.6806"/>
</g>
<!-- Range -->
<g id="node13" class="node">
<g id="a_node13"><a xlink:href="/v2.1/type/Range/hierarchy/" target="_top">
<polygon fill="#999999" stroke="#999999" points="1227,-22 1173,-22 1173,-0 1227,-0 1227,-22"/>
<text text-anchor="middle" x="1200" y="-7.4" font-family="Helvetica,sans-Serif" font-size="12.00" fill="white">Range</text>
</a>
</g>
</g>
<!-- CustomDebugStringConvertible&#45;&gt;Range -->
<g id="edge12" class="edge">
<path fill="none" stroke="#cccccc" d="M1200,-57.9883C1200,-50.9098 1200,-41.1714 1200,-32.4779"/>
<polygon fill="#cccccc" stroke="#cccccc" points="1203.5,-32.3038 1200,-22.3039 1196.5,-32.3039 1203.5,-32.3038"/>
</g>
<!-- Set -->
<g id="node14" class="node">
<g id="a_node14"><a xlink:href="/v2.1/type/Set/hierarchy/" target="_top">
<polygon fill="#999999" stroke="#999999" points="1299,-22 1245,-22 1245,-0 1299,-0 1299,-22"/>
<text text-anchor="middle" x="1272" y="-7.4" font-family="Helvetica,sans-Serif" font-size="12.00" fill="white">Set</text>
</a>
</g>
</g>
<!-- CustomDebugStringConvertible&#45;&gt;Set -->
<g id="edge13" class="edge">
<path fill="none" stroke="#cccccc" d="M1212.87,-57.9883C1223.39,-49.8087 1238.47,-38.0773 1250.77,-28.5108"/>
<polygon fill="#cccccc" stroke="#cccccc" points="1253.01,-31.2061 1258.75,-22.3039 1248.71,-25.6806 1253.01,-31.2061"/>
</g>
<!-- StaticString -->
<g id="node15" class="node">
<g id="a_node15"><a xlink:href="/v2.1/type/StaticString/hierarchy/" target="_top">
<polygon fill="#999999" stroke="#999999" points="1388.52,-22 1317.48,-22 1317.48,-0 1388.52,-0 1388.52,-22"/>
<text text-anchor="middle" x="1353" y="-7.4" font-family="Helvetica,sans-Serif" font-size="12.00" fill="white">StaticString</text>
</a>
</g>
</g>
<!-- CustomDebugStringConvertible&#45;&gt;StaticString -->
<g id="edge14" class="edge">
<path fill="none" stroke="#cccccc" d="M1227.35,-57.9883C1252.08,-48.9381 1288.69,-35.5399 1316.02,-25.5367"/>
<polygon fill="#cccccc" stroke="#cccccc" points="1317.44,-28.7432 1325.63,-22.0192 1315.03,-22.1697 1317.44,-28.7432"/>
</g>
<!-- String -->
<g id="node16" class="node">
<g id="a_node16"><a xlink:href="/v2.1/type/String/hierarchy/" target="_top">
<polygon fill="#999999" stroke="#999999" points="1461,-22 1407,-22 1407,-0 1461,-0 1461,-22"/>
<text text-anchor="middle" x="1434" y="-7.4" font-family="Helvetica,sans-Serif" font-size="12.00" fill="white">String</text>
</a>
</g>
</g>
<!-- CustomDebugStringConvertible&#45;&gt;String -->
<g id="edge15" class="edge">
<path fill="none" stroke="#cccccc" d="M1245.1,-57.9362C1285.09,-48.8989 1345.06,-35.0785 1397,-22 1397.1,-21.9746 1397.2,-21.9492 1397.3,-21.9237"/>
<polygon fill="#cccccc" stroke="#cccccc" points="1398.15,-25.3207 1406.95,-19.4264 1396.39,-18.5441 1398.15,-25.3207"/>
</g>
<!-- String.UTF16View -->
<g id="node17" class="node">
<g id="a_node17"><a xlink:href="/v2.1/type/String.UTF16View/hierarchy/" target="_top">
<polygon fill="#999999" stroke="#999999" points="1586.37,-22 1479.63,-22 1479.63,-0 1586.37,-0 1586.37,-22"/>
<text text-anchor="middle" x="1533" y="-7.4" font-family="Helvetica,sans-Serif" font-size="12.00" fill="white">String.UTF16View</text>
</a>
</g>
</g>
<!-- CustomDebugStringConvertible&#45;&gt;String.UTF16View -->
<g id="edge22" class="edge">
<path fill="none" stroke="#cccccc" d="M1259.53,-57.9883C1318.6,-48.0553 1408.81,-32.8846 1469.29,-22.7134"/>
<polygon fill="#cccccc" stroke="#cccccc" points="1470.2,-26.1103 1479.48,-21.0003 1469.04,-19.2072 1470.2,-26.1103"/>
</g>
<!-- String.UTF8View -->
<g id="node18" class="node">
<g id="a_node18"><a xlink:href="/v2.1/type/String.UTF8View/hierarchy/" target="_top">
<polygon fill="#999999" stroke="#999999" points="1705.36,-22 1604.64,-22 1604.64,-0 1705.36,-0 1705.36,-22"/>
<text text-anchor="middle" x="1655" y="-7.4" font-family="Helvetica,sans-Serif" font-size="12.00" fill="white">String.UTF8View</text>
</a>
</g>
</g>
<!-- CustomDebugStringConvertible&#45;&gt;String.UTF8View -->
<g id="edge23" class="edge">
<path fill="none" stroke="#cccccc" d="M1289.19,-58.8801C1367,-50.6308 1483.19,-37.6111 1594.55,-22.0028"/>
<polygon fill="#cccccc" stroke="#cccccc" points="1595.2,-25.4452 1604.61,-20.5826 1594.22,-18.5138 1595.2,-25.4452"/>
</g>
<!-- String.UnicodeScalarView -->
<g id="node19" class="node">
<g id="a_node19"><a xlink:href="/v2.1/type/String.UnicodeScalarView/hierarchy/" target="_top">
<polygon fill="#999999" stroke="#999999" points="1871.89,-22 1724.11,-22 1724.11,-0 1871.89,-0 1871.89,-22"/>
<text text-anchor="middle" x="1798" y="-7.4" font-family="Helvetica,sans-Serif" font-size="12.00" fill="white">String.UnicodeScalarView</text>
</a>
</g>
</g>
<!-- CustomDebugStringConvertible&#45;&gt;String.UnicodeScalarView -->
<g id="edge21" class="edge">
<path fill="none" stroke="#cccccc" d="M1289.22,-60.8116C1389.59,-52.5437 1557.77,-38.1486 1713.57,-22.0165"/>
<polygon fill="#cccccc" stroke="#cccccc" points="1714.22,-25.4669 1723.81,-20.9514 1713.5,-18.5045 1714.22,-25.4669"/>
</g>
<!-- UnicodeScalar -->
<g id="node20" class="node">
<g id="a_node20"><a xlink:href="/v2.1/type/UnicodeScalar/hierarchy/" target="_top">
<polygon fill="#999999" stroke="#999999" points="1978.03,-22 1889.97,-22 1889.97,-0 1978.03,-0 1978.03,-22"/>
<text text-anchor="middle" x="1934" y="-7.4" font-family="Helvetica,sans-Serif" font-size="12.00" fill="white">UnicodeScalar</text>
</a>
</g>
</g>
<!-- CustomDebugStringConvertible&#45;&gt;UnicodeScalar -->
<g id="edge16" class="edge">
<path fill="none" stroke="#cccccc" d="M1289.3,-65.3569C1417.77,-60.7991 1662.32,-49.3074 1879.81,-22.0135"/>
<polygon fill="#cccccc" stroke="#cccccc" points="1880.34,-25.4746 1889.82,-20.7438 1879.46,-18.5303 1880.34,-25.4746"/>
</g>
<!-- UnsafeBufferPointer -->
<g id="node21" class="node">
<g id="a_node21"><a xlink:href="/v2.1/type/UnsafeBufferPointer/hierarchy/" target="_top">
<polygon fill="#999999" stroke="#999999" points="2113.39,-22 1996.61,-22 1996.61,-0 2113.39,-0 2113.39,-22"/>
<text text-anchor="middle" x="2055" y="-7.4" font-family="Helvetica,sans-Serif" font-size="12.00" fill="white">UnsafeBufferPointer</text>
</a>
</g>
</g>
<!-- CustomDebugStringConvertible&#45;&gt;UnsafeBufferPointer -->
<g id="edge17" class="edge">
<path fill="none" stroke="#cccccc" d="M1289.31,-65.3287C1433.63,-60.4477 1727.21,-48.1831 1986.45,-21.9634"/>
<polygon fill="#cccccc" stroke="#cccccc" points="1986.84,-25.4419 1996.44,-20.945 1986.13,-18.478 1986.84,-25.4419"/>
</g>
<!-- UnsafeMutableBufferPointer -->
<g id="node22" class="node">
<g id="a_node22"><a xlink:href="/v2.1/type/UnsafeMutableBufferPointer/hierarchy/" target="_top">
<polygon fill="#999999" stroke="#999999" points="2291.91,-22 2132.09,-22 2132.09,-0 2291.91,-0 2291.91,-22"/>
<text text-anchor="middle" x="2212" y="-7.4" font-family="Helvetica,sans-Serif" font-size="12.00" fill="white">UnsafeMutableBufferPointer</text>
</a>
</g>
</g>
<!-- CustomDebugStringConvertible&#45;&gt;UnsafeMutableBufferPointer -->
<g id="edge18" class="edge">
<path fill="none" stroke="#cccccc" d="M1289.12,-65.3555C1453.82,-60.0681 1816.87,-46.5403 2122,-22 2122.1,-21.9917 2122.21,-21.9834 2122.31,-21.9751"/>
<polygon fill="#cccccc" stroke="#cccccc" points="2122.37,-25.4826 2132.04,-21.1401 2121.77,-18.5082 2122.37,-25.4826"/>
</g>
<!-- UnsafeMutablePointer -->
<g id="node23" class="node">
<g id="a_node23"><a xlink:href="/v2.1/type/UnsafeMutablePointer/hierarchy/" target="_top">
<polygon fill="#999999" stroke="#999999" points="2439.05,-22 2310.95,-22 2310.95,-0 2439.05,-0 2439.05,-22"/>
<text text-anchor="middle" x="2375" y="-7.4" font-family="Helvetica,sans-Serif" font-size="12.00" fill="white">UnsafeMutablePointer</text>
</a>
</g>
</g>
<!-- CustomDebugStringConvertible&#45;&gt;UnsafeMutablePointer -->
<g id="edge19" class="edge">
<path fill="none" stroke="#cccccc" d="M1289.38,-67.0669C1475.45,-64.5134 1918.18,-55.2603 2300.7,-21.9288"/>
<polygon fill="#cccccc" stroke="#cccccc" points="2301.21,-25.3979 2310.87,-21.0364 2300.6,-18.4248 2301.21,-25.3979"/>
</g>
<!-- UnsafePointer -->
<g id="node24" class="node">
<g id="a_node24"><a xlink:href="/v2.1/type/UnsafePointer/hierarchy/" target="_top">
<polygon fill="#999999" stroke="#999999" points="2543.03,-22 2456.97,-22 2456.97,-0 2543.03,-0 2543.03,-22"/>
<text text-anchor="middle" x="2500" y="-7.4" font-family="Helvetica,sans-Serif" font-size="12.00" fill="white">UnsafePointer</text>
</a>
</g>
</g>
<!-- CustomDebugStringConvertible&#45;&gt;UnsafePointer -->
<g id="edge20" class="edge">
<path fill="none" stroke="#cccccc" d="M1289.31,-66.4867C1532.5,-62.0865 2203.91,-48.0021 2446.75,-21.9362"/>
<polygon fill="#cccccc" stroke="#cccccc" points="2447.39,-25.3865 2456.95,-20.8056 2446.62,-18.4291 2447.39,-25.3865"/>
</g>
</g>
</svg>
