<?xml version="1.0" encoding="UTF-8" standalone="no"?>
<!DOCTYPE svg PUBLIC "-//W3C//DTD SVG 1.1//EN"
 "http://www.w3.org/Graphics/SVG/1.1/DTD/svg11.dtd">
<!-- Generated by graphviz version 2.36.0 (20140111.2315)
 -->
<!-- Title: Int &#45; Type Hierarchy &#45; SwiftDoc.org Pages: 1 -->
<svg width="1278pt" height="543pt"
 viewBox="0.00 0.00 1278.40 543.20" xmlns="http://www.w3.org/2000/svg" xmlns:xlink="http://www.w3.org/1999/xlink">
<g id="graph0" class="graph" transform="scale(1 1) rotate(0) translate(7.2 485.6)">
<g transform="translate(0 -485.6)">
<g>
    <path fill="#666666" d="M13.846,10.832c-0.336-0.464-0.792-0.844-1.368-1.14s-1.224-0.444-1.944-0.444
        c-0.384,0-0.772,0.052-1.164,0.156C8.977,9.509,8.622,9.677,8.301,9.908c-0.32,0.232-0.58,0.52-0.78,0.864
        c-0.2,0.344-0.3,0.756-0.3,1.236c0,0.464,0.092,0.852,0.276,1.164c0.184,0.312,0.432,0.576,0.744,0.792s0.68,0.4,1.104,0.552
        c0.423,0.152,0.876,0.309,1.356,0.468c0.576,0.177,1.16,0.376,1.752,0.601c0.592,0.224,1.128,0.52,1.608,0.888
        s0.872,0.828,1.176,1.38s0.456,1.252,0.456,2.101c0,0.88-0.164,1.644-0.492,2.292c-0.328,0.647-0.765,1.184-1.308,1.607
        c-0.544,0.424-1.172,0.74-1.884,0.948s-1.444,0.312-2.196,0.312c-1.072,0-2.108-0.208-3.108-0.624
        c-1-0.415-1.828-1.031-2.484-1.848l1.848-1.56c0.4,0.592,0.936,1.071,1.608,1.439c0.672,0.368,1.399,0.552,2.184,0.552
        c0.4,0,0.8-0.056,1.2-0.168c0.4-0.111,0.764-0.288,1.092-0.527c0.328-0.24,0.596-0.54,0.804-0.9
        c0.208-0.36,0.312-0.796,0.312-1.308s-0.108-0.94-0.324-1.284c-0.216-0.344-0.508-0.636-0.876-0.876s-0.796-0.444-1.284-0.612
        c-0.488-0.168-1.004-0.34-1.548-0.516c-0.544-0.16-1.08-0.356-1.608-0.588c-0.528-0.232-1-0.528-1.416-0.889
        c-0.416-0.359-0.752-0.804-1.008-1.332c-0.256-0.527-0.384-1.184-0.384-1.968c0-0.848,0.172-1.576,0.516-2.184
        c0.344-0.608,0.792-1.112,1.344-1.512c0.552-0.4,1.176-0.692,1.872-0.876c0.696-0.184,1.396-0.276,2.1-0.276
        c0.992,0,1.92,0.176,2.784,0.528c0.864,0.352,1.56,0.824,2.088,1.416L13.846,10.832z"/>
    <path fill="#666666" d="M18.813,13.304l2.568,8.688h0.048l2.712-8.688h2.376l2.76,8.688h0.048l2.568-8.688h2.376L30.501,24.68
        h-2.352l-2.808-8.544h-0.048l-2.784,8.544h-2.352l-3.792-11.376H18.813z"/>
    <path fill="#666666" d="M38.685,9.2c0,0.416-0.147,0.76-0.44,1.032c-0.294,0.272-0.647,0.408-1.06,0.408s-0.762-0.14-1.047-0.42
        c-0.286-0.28-0.429-0.62-0.429-1.02c0-0.416,0.143-0.764,0.429-1.044c0.286-0.28,0.635-0.42,1.047-0.42s0.766,0.14,1.06,0.42
        C38.538,8.437,38.685,8.784,38.685,9.2z M38.325,24.68h-2.256V13.304h2.256V24.68z"/>
    <path fill="#666666" d="M47.613,15.152h-2.64v9.528h-2.256v-9.528h-2.256v-1.848h2.256v-2.376c0-0.672,0.076-1.292,0.228-1.86
        c0.152-0.568,0.4-1.06,0.744-1.476c0.344-0.416,0.784-0.744,1.32-0.984c0.536-0.24,1.188-0.36,1.956-0.36
        c0.544,0,1.016,0.056,1.416,0.168l-0.264,1.944c-0.176-0.048-0.352-0.088-0.528-0.12c-0.176-0.032-0.376-0.048-0.6-0.048
        c-0.432,0-0.78,0.076-1.044,0.228c-0.264,0.152-0.468,0.356-0.612,0.612s-0.24,0.548-0.288,0.876
        c-0.048,0.328-0.072,0.668-0.072,1.02v2.376h2.64V15.152z"/>
    <path fill="#666666" d="M54.909,15.152h-3.024v5.91c0,0.687,0.128,1.177,0.384,1.472c0.256,0.295,0.664,0.442,1.224,0.442
        c0.208,0,0.432-0.021,0.672-0.065c0.24-0.044,0.456-0.11,0.648-0.198l0.072,1.848c-0.272,0.096-0.572,0.172-0.9,0.229
        c-0.328,0.056-0.668,0.084-1.02,0.084c-1.072,0-1.892-0.296-2.46-0.889c-0.568-0.592-0.852-1.479-0.852-2.664v-6.168h-2.184
        v-1.848h2.184V10.04h2.232v3.264h3.024V15.152z"/>
    <path fill="#666666" d="M57.356,7.688h5.832c1.088,0,2.176,0.16,3.264,0.48c1.088,0.32,2.072,0.824,2.952,1.512
        s1.592,1.568,2.136,2.64c0.544,1.072,0.816,2.36,0.816,3.864c0,1.456-0.272,2.716-0.816,3.78s-1.256,1.943-2.136,2.64
        s-1.864,1.216-2.952,1.561c-1.088,0.344-2.176,0.516-3.264,0.516h-5.832V7.688z M59.732,22.593h2.976
        c1.024,0,1.972-0.145,2.844-0.432c0.872-0.288,1.624-0.704,2.256-1.248c0.632-0.544,1.124-1.216,1.476-2.017
        c0.352-0.8,0.528-1.704,0.528-2.712c0-1.056-0.176-1.983-0.528-2.784c-0.353-0.8-0.844-1.468-1.476-2.004
        c-0.632-0.536-1.384-0.944-2.256-1.224s-1.82-0.42-2.844-0.42h-2.976V22.593z"/>
    <path fill="#666666" d="M86.06,18.969c0,0.88-0.156,1.688-0.468,2.424c-0.312,0.736-0.744,1.372-1.296,1.908
        c-0.552,0.536-1.204,0.952-1.956,1.248c-0.752,0.296-1.56,0.443-2.424,0.443c-0.864,0-1.672-0.147-2.424-0.443
        c-0.752-0.296-1.4-0.712-1.944-1.248c-0.544-0.536-0.972-1.172-1.284-1.908c-0.312-0.735-0.468-1.544-0.468-2.424
        s0.156-1.684,0.468-2.412c0.312-0.728,0.74-1.356,1.284-1.884c0.543-0.528,1.191-0.939,1.944-1.236
        c0.752-0.296,1.56-0.444,2.424-0.444c0.864,0,1.672,0.148,2.424,0.444c0.752,0.297,1.404,0.708,1.956,1.236
        c0.552,0.527,0.984,1.156,1.296,1.884C85.904,17.285,86.06,18.089,86.06,18.969z M83.708,18.98c0-0.542-0.084-1.061-0.252-1.556
        c-0.169-0.494-0.414-0.929-0.734-1.304s-0.718-0.674-1.192-0.897s-1.015-0.335-1.625-0.335c-0.61,0-1.152,0.111-1.625,0.335
        c-0.474,0.224-0.871,0.522-1.191,0.897c-0.321,0.375-0.566,0.81-0.734,1.304C76.184,17.92,76.1,18.438,76.1,18.98
        c0,0.543,0.084,1.062,0.253,1.556c0.168,0.495,0.413,0.934,0.734,1.316c0.321,0.383,0.718,0.686,1.191,0.909
        c0.473,0.224,1.015,0.335,1.625,0.335c0.61,0,1.151-0.111,1.625-0.335s0.871-0.526,1.192-0.909s0.565-0.821,0.734-1.316
        C83.624,20.042,83.708,19.523,83.708,18.98z"/>
    <path fill="#666666" d="M96.428,16.184c-0.24-0.368-0.6-0.676-1.08-0.924s-0.992-0.372-1.536-0.372
        c-0.592,0-1.116,0.112-1.572,0.336c-0.456,0.225-0.844,0.524-1.164,0.9c-0.32,0.376-0.564,0.812-0.732,1.308
        s-0.252,1.017-0.252,1.56c0,0.545,0.084,1.064,0.252,1.561s0.412,0.933,0.732,1.308c0.32,0.376,0.712,0.677,1.176,0.9
        c0.464,0.225,0.992,0.336,1.584,0.336c0.576,0,1.1-0.111,1.572-0.336c0.472-0.224,0.86-0.528,1.164-0.912l1.512,1.368
        c-0.48,0.561-1.08,0.996-1.8,1.308c-0.72,0.312-1.536,0.468-2.448,0.468c-0.88,0-1.692-0.144-2.436-0.432
        c-0.744-0.288-1.388-0.691-1.932-1.212c-0.544-0.52-0.972-1.147-1.284-1.884s-0.468-1.561-0.468-2.473
        c0-0.896,0.152-1.711,0.456-2.447c0.304-0.736,0.728-1.368,1.272-1.896c0.543-0.527,1.188-0.936,1.932-1.224
        c0.744-0.288,1.548-0.433,2.412-0.433c0.8,0,1.596,0.16,2.388,0.48s1.419,0.784,1.884,1.392L96.428,16.184z"/>
    <path fill="#666666" d="M103.1,23.24c0,0.417-0.152,0.784-0.456,1.104c-0.304,0.32-0.688,0.479-1.152,0.479
        c-0.448,0-0.828-0.155-1.14-0.468c-0.312-0.312-0.468-0.676-0.468-1.092c0-0.432,0.152-0.804,0.456-1.116
        c0.304-0.312,0.688-0.468,1.152-0.468c0.464,0,0.848,0.152,1.152,0.456C102.947,22.44,103.1,22.808,103.1,23.24z"/>
    <path fill="#666666" d="M116.635,18.969c0,0.88-0.156,1.688-0.468,2.424c-0.312,0.736-0.744,1.372-1.296,1.908
        c-0.552,0.536-1.204,0.952-1.956,1.248c-0.752,0.296-1.56,0.443-2.424,0.443c-0.864,0-1.672-0.147-2.424-0.443
        c-0.752-0.296-1.4-0.712-1.944-1.248c-0.544-0.536-0.972-1.172-1.284-1.908c-0.312-0.735-0.468-1.544-0.468-2.424
        s0.156-1.684,0.468-2.412c0.312-0.728,0.74-1.356,1.284-1.884c0.543-0.528,1.191-0.939,1.944-1.236
        c0.752-0.296,1.56-0.444,2.424-0.444c0.864,0,1.672,0.148,2.424,0.444c0.752,0.297,1.404,0.708,1.956,1.236
        c0.552,0.527,0.984,1.156,1.296,1.884C116.479,17.285,116.635,18.089,116.635,18.969z M114.283,18.98
        c0-0.542-0.084-1.061-0.252-1.556c-0.169-0.494-0.414-0.929-0.734-1.304s-0.718-0.674-1.192-0.897s-1.015-0.335-1.625-0.335
        c-0.61,0-1.152,0.111-1.625,0.335c-0.474,0.224-0.871,0.522-1.191,0.897c-0.321,0.375-0.566,0.81-0.734,1.304
        c-0.169,0.495-0.253,1.014-0.253,1.556c0,0.543,0.084,1.062,0.253,1.556c0.168,0.495,0.413,0.934,0.734,1.316
        c0.321,0.383,0.718,0.686,1.191,0.909c0.473,0.224,1.015,0.335,1.625,0.335c0.61,0,1.151-0.111,1.625-0.335
        s0.871-0.526,1.192-0.909s0.565-0.821,0.734-1.316C114.199,20.042,114.283,19.523,114.283,18.98z"/>
    <path fill="#666666" d="M119.251,14.577c-0.016-0.48-0.04-0.904-0.072-1.272h2.136c0.032,0.288,0.056,0.62,0.072,0.996
        c0.016,0.376,0.024,0.684,0.024,0.924h0.072c0.32-0.672,0.788-1.212,1.404-1.62c0.616-0.408,1.308-0.612,2.076-0.612
        c0.352,0,0.648,0.033,0.888,0.097l-0.096,2.088c-0.32-0.08-0.664-0.12-1.032-0.12c-0.544,0-1.016,0.101-1.416,0.3
        c-0.4,0.2-0.732,0.468-0.996,0.805c-0.264,0.336-0.46,0.724-0.588,1.163c-0.128,0.44-0.192,0.9-0.192,1.381v5.976h-2.256v-8.928
        C119.275,15.449,119.267,15.056,119.251,14.577z"/>
    <path fill="#666666" d="M128.419,26.625c0.496,0.56,1.116,1.008,1.86,1.344c0.744,0.336,1.508,0.504,2.292,0.504
        c0.752,0,1.384-0.108,1.896-0.324s0.924-0.512,1.236-0.888s0.536-0.82,0.672-1.332c0.136-0.513,0.204-1.064,0.204-1.656v-1.464
        h-0.048c-0.416,0.641-0.984,1.128-1.704,1.464c-0.72,0.336-1.488,0.504-2.304,0.504c-0.864,0-1.652-0.151-2.364-0.456
        c-0.712-0.304-1.316-0.72-1.812-1.248c-0.496-0.527-0.88-1.147-1.152-1.859s-0.408-1.477-0.408-2.292
        c0-0.816,0.136-1.584,0.408-2.305c0.272-0.72,0.656-1.348,1.152-1.884c0.496-0.535,1.096-0.96,1.8-1.271
        c0.704-0.312,1.488-0.469,2.352-0.469c0.816,0,1.596,0.177,2.34,0.528c0.744,0.353,1.332,0.888,1.764,1.608h0.048v-1.824h2.184
        v10.8c0,0.832-0.104,1.628-0.312,2.388c-0.208,0.76-0.56,1.433-1.056,2.017s-1.144,1.052-1.944,1.404
        c-0.8,0.352-1.792,0.527-2.976,0.527c-0.992,0-1.988-0.18-2.988-0.54c-1-0.359-1.86-0.868-2.58-1.523L128.419,26.625z
         M129.091,18.873c0,0.527,0.084,1.031,0.253,1.512c0.168,0.479,0.417,0.904,0.746,1.271c0.329,0.369,0.726,0.664,1.192,0.889
        c0.465,0.224,0.995,0.336,1.589,0.336c0.577,0,1.107-0.104,1.589-0.312c0.481-0.207,0.891-0.491,1.228-0.852
        s0.598-0.784,0.782-1.272c0.185-0.487,0.277-1.012,0.277-1.571c0-0.544-0.093-1.057-0.277-1.536
        c-0.185-0.48-0.449-0.904-0.794-1.272c-0.345-0.367-0.755-0.66-1.228-0.876c-0.474-0.216-1-0.324-1.577-0.324
        c-0.594,0-1.124,0.108-1.589,0.324c-0.466,0.216-0.863,0.504-1.192,0.864s-0.578,0.784-0.746,1.271
        C129.175,17.812,129.091,18.329,129.091,18.873z"/>
</g>
<g><a xlink:href="/" pointer-events="all" target="_top"><polygon fill="none" points="0,0 145,0 145,35 0,35 0,0"/></a></g>

</g>


<!-- BidirectionalIndexType -->
<g id="node1" class="node">
<g id="a_node1"><a xlink:href="/swift-2/protocol/BidirectionalIndexType/" target="_top">
<path fill="#999999" stroke="#999999" d="M676.725,-254C676.725,-254 561.275,-254 561.275,-254 557.608,-254 553.941,-250.333 553.941,-246.667 553.941,-246.667 553.941,-239.333 553.941,-239.333 553.941,-235.667 557.608,-232 561.275,-232 561.275,-232 676.725,-232 676.725,-232 680.392,-232 684.059,-235.667 684.059,-239.333 684.059,-239.333 684.059,-246.667 684.059,-246.667 684.059,-250.333 680.392,-254 676.725,-254"/>
<text text-anchor="middle" x="619" y="-239.4" font-family="Helvetica,sans-Serif" font-size="12.00" fill="white">BidirectionalIndexType</text>
</a>
</g>
</g>
<!-- Int -->
<g id="node10" class="node">
<g id="a_node10"><a xlink:href="/swift-2/type/Int/" target="_top">
<polygon fill="#ee543d" stroke="#ee543d" points="680,-22 626,-22 626,-0 680,-0 680,-22"/>
<text text-anchor="middle" x="653" y="-7.4" font-family="Helvetica,sans-Serif" font-size="12.00" fill="white">Int</text>
</a>
</g>
</g>
<!-- BidirectionalIndexType&#45;&gt;Int -->
<g id="edge15" class="edge">
<path fill="none" stroke="#cccccc" d="M572.598,-231.935C553.18,-225.185 532.489,-214.085 521,-196 515.757,-187.747 519.727,-183.695 521,-174 527.948,-121.089 517.528,-98.7371 552,-58 568.332,-38.6998 594.457,-27.0995 616.045,-20.3763"/>
<polygon fill="#cccccc" stroke="#cccccc" points="617.262,-23.6681 625.903,-17.5378 615.325,-16.9414 617.262,-23.6681"/>
</g>
<!-- RandomAccessIndexType -->
<g id="node15" class="node">
<g id="a_node15"><a xlink:href="/swift-2/protocol/RandomAccessIndexType/" target="_top">
<path fill="#999999" stroke="#999999" d="M815.225,-196C815.225,-196 680.775,-196 680.775,-196 677.108,-196 673.441,-192.333 673.441,-188.667 673.441,-188.667 673.441,-181.333 673.441,-181.333 673.441,-177.667 677.108,-174 680.775,-174 680.775,-174 815.225,-174 815.225,-174 818.892,-174 822.559,-177.667 822.559,-181.333 822.559,-181.333 822.559,-188.667 822.559,-188.667 822.559,-192.333 818.892,-196 815.225,-196"/>
<text text-anchor="middle" x="748" y="-181.4" font-family="Helvetica,sans-Serif" font-size="12.00" fill="white">RandomAccessIndexType</text>
</a>
</g>
</g>
<!-- BidirectionalIndexType&#45;&gt;RandomAccessIndexType -->
<g id="edge43" class="edge">
<path fill="none" stroke="#cccccc" d="M642.063,-231.988C662.481,-223.124 692.508,-210.09 715.384,-200.159"/>
<polygon fill="#cccccc" stroke="#cccccc" points="716.923,-203.306 724.702,-196.114 714.135,-196.885 716.923,-203.306"/>
</g>
<!-- Bit -->
<g id="node2" class="node">
<g id="a_node2"><a xlink:href="/swift-2/type/Bit/" target="_top">
<polygon fill="#999999" stroke="#999999" points="752,-22 698,-22 698,-0 752,-0 752,-22"/>
<text text-anchor="middle" x="725" y="-7.4" font-family="Helvetica,sans-Serif" font-size="12.00" fill="white">Bit</text>
</a>
</g>
</g>
<!-- BitwiseOperationsType -->
<g id="node3" class="node">
<g id="a_node3"><a xlink:href="/swift-2/protocol/BitwiseOperationsType/" target="_top">
<path fill="#999999" stroke="#999999" d="M366.715,-254C366.715,-254 249.285,-254 249.285,-254 245.618,-254 241.952,-250.333 241.952,-246.667 241.952,-246.667 241.952,-239.333 241.952,-239.333 241.952,-235.667 245.618,-232 249.285,-232 249.285,-232 366.715,-232 366.715,-232 370.382,-232 374.048,-235.667 374.048,-239.333 374.048,-239.333 374.048,-246.667 374.048,-246.667 374.048,-250.333 370.382,-254 366.715,-254"/>
<text text-anchor="middle" x="308" y="-239.4" font-family="Helvetica,sans-Serif" font-size="12.00" fill="white">BitwiseOperationsType</text>
</a>
</g>
</g>
<!-- BitwiseOperationsType&#45;&gt;Int -->
<g id="edge20" class="edge">
<path fill="none" stroke="#cccccc" d="M316.679,-231.626C343.029,-200.762 425.655,-108.53 513,-58 545.488,-39.2057 586.716,-26.8457 615.999,-19.7174"/>
<polygon fill="#cccccc" stroke="#cccccc" points="616.888,-23.1039 625.824,-17.4123 615.289,-16.289 616.888,-23.1039"/>
</g>
<!-- _IntegerType -->
<g id="node21" class="node">
<g id="a_node21"><a xlink:href="/swift-2/protocol/_IntegerType/" target="_top">
<path fill="#999999" stroke="#999999" d="M602.708,-196C602.708,-196 537.292,-196 537.292,-196 533.626,-196 529.959,-192.333 529.959,-188.667 529.959,-188.667 529.959,-181.333 529.959,-181.333 529.959,-177.667 533.626,-174 537.292,-174 537.292,-174 602.708,-174 602.708,-174 606.374,-174 610.041,-177.667 610.041,-181.333 610.041,-181.333 610.041,-188.667 610.041,-188.667 610.041,-192.333 606.374,-196 602.708,-196"/>
<text text-anchor="middle" x="570" y="-181.4" font-family="Helvetica,sans-Serif" font-size="12.00" fill="white">_IntegerType</text>
</a>
</g>
</g>
<!-- BitwiseOperationsType&#45;&gt;_IntegerType -->
<g id="edge30" class="edge">
<path fill="none" stroke="#cccccc" d="M354.84,-231.988C401.286,-222.061 472.209,-206.902 519.796,-196.731"/>
<polygon fill="#cccccc" stroke="#cccccc" points="520.531,-200.153 529.579,-194.64 519.068,-193.307 520.531,-200.153"/>
</g>
<!-- CVarArgType -->
<g id="node4" class="node">
<g id="a_node4"><a xlink:href="/swift-2/protocol/CVarArgType/" target="_top">
<path fill="#999999" stroke="#999999" d="M140.029,-80C140.029,-80 73.9709,-80 73.9709,-80 70.3043,-80 66.6376,-76.3333 66.6376,-72.6667 66.6376,-72.6667 66.6376,-65.3333 66.6376,-65.3333 66.6376,-61.6667 70.3043,-58 73.9709,-58 73.9709,-58 140.029,-58 140.029,-58 143.696,-58 147.362,-61.6667 147.362,-65.3333 147.362,-65.3333 147.362,-72.6667 147.362,-72.6667 147.362,-76.3333 143.696,-80 140.029,-80"/>
<text text-anchor="middle" x="107" y="-65.4" font-family="Helvetica,sans-Serif" font-size="12.00" fill="white">CVarArgType</text>
</a>
</g>
</g>
<!-- CVarArgType&#45;&gt;Int -->
<g id="edge23" class="edge">
<path fill="none" stroke="#cccccc" d="M147.485,-60.2294C152.366,-59.4139 157.289,-58.6477 162,-58 330.608,-34.8181 533.422,-19.9016 615.654,-14.3922"/>
<polygon fill="#cccccc" stroke="#cccccc" points="616.013,-17.8761 625.759,-13.722 615.549,-10.8915 616.013,-17.8761"/>
</g>
<!-- Comparable -->
<g id="node5" class="node">
<g id="a_node5"><a xlink:href="/swift-2/protocol/Comparable/" target="_top">
<path fill="#999999" stroke="#999999" d="M1121.19,-312C1121.19,-312 1060.81,-312 1060.81,-312 1057.14,-312 1053.48,-308.333 1053.48,-304.667 1053.48,-304.667 1053.48,-297.333 1053.48,-297.333 1053.48,-293.667 1057.14,-290 1060.81,-290 1060.81,-290 1121.19,-290 1121.19,-290 1124.86,-290 1128.52,-293.667 1128.52,-297.333 1128.52,-297.333 1128.52,-304.667 1128.52,-304.667 1128.52,-308.333 1124.86,-312 1121.19,-312"/>
<text text-anchor="middle" x="1091" y="-297.4" font-family="Helvetica,sans-Serif" font-size="12.00" fill="white">Comparable</text>
</a>
</g>
</g>
<!-- Comparable&#45;&gt;Int -->
<g id="edge4" class="edge">
<path fill="none" stroke="#cccccc" d="M1092,-289.716C1094.37,-260.589 1097.98,-175.777 1067,-116 1049.49,-82.2102 1038.61,-73.8292 1004,-58 878.858,-0.766855 829.631,-46.6771 690.214,-21.904"/>
<polygon fill="#cccccc" stroke="#cccccc" points="690.491,-18.3951 680.018,-19.9958 689.204,-25.2757 690.491,-18.3951"/>
</g>
<!-- IntegerArithmeticType -->
<g id="node11" class="node">
<g id="a_node11"><a xlink:href="/swift-2/protocol/IntegerArithmeticType/" target="_top">
<path fill="#999999" stroke="#999999" d="M1017.71,-254C1017.71,-254 906.289,-254 906.289,-254 902.623,-254 898.956,-250.333 898.956,-246.667 898.956,-246.667 898.956,-239.333 898.956,-239.333 898.956,-235.667 902.623,-232 906.289,-232 906.289,-232 1017.71,-232 1017.71,-232 1021.38,-232 1025.04,-235.667 1025.04,-239.333 1025.04,-239.333 1025.04,-246.667 1025.04,-246.667 1025.04,-250.333 1021.38,-254 1017.71,-254"/>
<text text-anchor="middle" x="962" y="-239.4" font-family="Helvetica,sans-Serif" font-size="12.00" fill="white">IntegerArithmeticType</text>
</a>
</g>
</g>
<!-- Comparable&#45;&gt;IntegerArithmeticType -->
<g id="edge34" class="edge">
<path fill="none" stroke="#cccccc" d="M1067.94,-289.988C1047.52,-281.124 1017.49,-268.09 994.616,-258.159"/>
<polygon fill="#cccccc" stroke="#cccccc" points="995.865,-254.885 985.298,-254.114 993.077,-261.306 995.865,-254.885"/>
</g>
<!-- SignedNumberType -->
<g id="node17" class="node">
<g id="a_node17"><a xlink:href="/swift-2/protocol/SignedNumberType/" target="_top">
<path fill="#999999" stroke="#999999" d="M963.716,-196C963.716,-196 862.284,-196 862.284,-196 858.617,-196 854.95,-192.333 854.95,-188.667 854.95,-188.667 854.95,-181.333 854.95,-181.333 854.95,-177.667 858.617,-174 862.284,-174 862.284,-174 963.716,-174 963.716,-174 967.383,-174 971.05,-177.667 971.05,-181.333 971.05,-181.333 971.05,-188.667 971.05,-188.667 971.05,-192.333 967.383,-196 963.716,-196"/>
<text text-anchor="middle" x="913" y="-181.4" font-family="Helvetica,sans-Serif" font-size="12.00" fill="white">SignedNumberType</text>
</a>
</g>
</g>
<!-- Comparable&#45;&gt;SignedNumberType -->
<g id="edge37" class="edge">
<path fill="none" stroke="#cccccc" d="M1084.89,-289.828C1075.6,-275.16 1056.6,-248.071 1034,-232 1013.18,-217.193 986.992,-206.465 964.308,-199.114"/>
<polygon fill="#cccccc" stroke="#cccccc" points="965.084,-195.691 954.496,-196.071 963.01,-202.376 965.084,-195.691"/>
</g>
<!-- Strideable -->
<g id="node18" class="node">
<g id="a_node18"><a xlink:href="/swift-2/protocol/Strideable/" target="_top">
<path fill="#999999" stroke="#999999" d="M1219.69,-254C1219.69,-254 1170.31,-254 1170.31,-254 1166.64,-254 1162.97,-250.333 1162.97,-246.667 1162.97,-246.667 1162.97,-239.333 1162.97,-239.333 1162.97,-235.667 1166.64,-232 1170.31,-232 1170.31,-232 1219.69,-232 1219.69,-232 1223.36,-232 1227.03,-235.667 1227.03,-239.333 1227.03,-239.333 1227.03,-246.667 1227.03,-246.667 1227.03,-250.333 1223.36,-254 1219.69,-254"/>
<text text-anchor="middle" x="1195" y="-239.4" font-family="Helvetica,sans-Serif" font-size="12.00" fill="white">Strideable</text>
</a>
</g>
</g>
<!-- Comparable&#45;&gt;Strideable -->
<g id="edge47" class="edge">
<path fill="none" stroke="#cccccc" d="M1109.59,-289.988C1125.61,-281.362 1148.97,-268.785 1167.21,-258.963"/>
<polygon fill="#cccccc" stroke="#cccccc" points="1169.07,-261.937 1176.22,-254.114 1165.75,-255.773 1169.07,-261.937"/>
</g>
<!-- CustomStringConvertible -->
<g id="node6" class="node">
<g id="a_node6"><a xlink:href="/swift-2/protocol/CustomStringConvertible/" target="_top">
<path fill="#999999" stroke="#999999" d="M528.208,-254C528.208,-254 399.792,-254 399.792,-254 396.126,-254 392.459,-250.333 392.459,-246.667 392.459,-246.667 392.459,-239.333 392.459,-239.333 392.459,-235.667 396.126,-232 399.792,-232 399.792,-232 528.208,-232 528.208,-232 531.874,-232 535.541,-235.667 535.541,-239.333 535.541,-239.333 535.541,-246.667 535.541,-246.667 535.541,-250.333 531.874,-254 528.208,-254"/>
<text text-anchor="middle" x="464" y="-239.4" font-family="Helvetica,sans-Serif" font-size="12.00" fill="white">CustomStringConvertible</text>
</a>
</g>
</g>
<!-- CustomStringConvertible&#45;&gt;Int -->
<g id="edge11" class="edge">
<path fill="none" stroke="#cccccc" d="M464.945,-231.678C468.296,-200.958 482.284,-109.087 533,-58 555.203,-35.6344 589.437,-23.9455 615.666,-17.9603"/>
<polygon fill="#cccccc" stroke="#cccccc" points="616.574,-21.3462 625.642,-15.8667 615.136,-14.4955 616.574,-21.3462"/>
</g>
<!-- CustomStringConvertible&#45;&gt;_IntegerType -->
<g id="edge27" class="edge">
<path fill="none" stroke="#cccccc" d="M482.951,-231.988C499.354,-223.322 523.304,-210.67 541.932,-200.828"/>
<polygon fill="#cccccc" stroke="#cccccc" points="543.649,-203.88 550.856,-196.114 540.379,-197.69 543.649,-203.88"/>
</g>
<!-- Equatable -->
<g id="node7" class="node">
<g id="a_node7"><a xlink:href="/swift-2/protocol/Equatable/" target="_top">
<path fill="#999999" stroke="#999999" d="M205.702,-428C205.702,-428 156.298,-428 156.298,-428 152.632,-428 148.965,-424.333 148.965,-420.667 148.965,-420.667 148.965,-413.333 148.965,-413.333 148.965,-409.667 152.632,-406 156.298,-406 156.298,-406 205.702,-406 205.702,-406 209.368,-406 213.035,-409.667 213.035,-413.333 213.035,-413.333 213.035,-420.667 213.035,-420.667 213.035,-424.333 209.368,-428 205.702,-428"/>
<text text-anchor="middle" x="181" y="-413.4" font-family="Helvetica,sans-Serif" font-size="12.00" fill="white">Equatable</text>
</a>
</g>
</g>
<!-- Equatable&#45;&gt;Comparable -->
<g id="edge35" class="edge">
<path fill="none" stroke="#cccccc" d="M213.143,-413.015C326.703,-402.278 719.499,-363.511 1041,-312 1041.9,-311.856 1042.81,-311.707 1043.72,-311.555"/>
<polygon fill="#cccccc" stroke="#cccccc" points="1044.42,-314.986 1053.65,-309.796 1043.19,-308.093 1044.42,-314.986"/>
</g>
<!-- Hashable -->
<g id="node9" class="node">
<g id="a_node9"><a xlink:href="/swift-2/protocol/Hashable/" target="_top">
<path fill="#999999" stroke="#999999" d="M140.694,-254C140.694,-254 95.3059,-254 95.3059,-254 91.6392,-254 87.9725,-250.333 87.9725,-246.667 87.9725,-246.667 87.9725,-239.333 87.9725,-239.333 87.9725,-235.667 91.6392,-232 95.3059,-232 95.3059,-232 140.694,-232 140.694,-232 144.361,-232 148.027,-235.667 148.027,-239.333 148.027,-239.333 148.027,-246.667 148.027,-246.667 148.027,-250.333 144.361,-254 140.694,-254"/>
<text text-anchor="middle" x="118" y="-239.4" font-family="Helvetica,sans-Serif" font-size="12.00" fill="white">Hashable</text>
</a>
</g>
</g>
<!-- Equatable&#45;&gt;Hashable -->
<g id="edge32" class="edge">
<path fill="none" stroke="#cccccc" d="M177.248,-405.756C167.073,-377.978 138.822,-300.848 125.341,-264.042"/>
<polygon fill="#cccccc" stroke="#cccccc" points="128.538,-262.594 121.812,-254.408 121.965,-265.002 128.538,-262.594"/>
</g>
<!-- Equatable&#45;&gt;Int -->
<g id="edge2" class="edge">
<path fill="none" stroke="#cccccc" d="M148.641,-410.754C96.5788,-400.264 0,-371.446 0,-302 0,-302 0,-302 0,-126 0,-90.7093 10.9437,-76.4947 41,-58 89.8826,-27.9208 490.034,-15.8882 615.513,-12.8321"/>
<polygon fill="#cccccc" stroke="#cccccc" points="615.855,-16.325 625.769,-12.5875 615.688,-9.32701 615.855,-16.325"/>
</g>
<!-- _Incrementable -->
<g id="node19" class="node">
<g id="a_node19"><a xlink:href="/swift-2/protocol/_Incrementable/" target="_top">
<path fill="#999999" stroke="#999999" d="M273.705,-370C273.705,-370 196.295,-370 196.295,-370 192.628,-370 188.961,-366.333 188.961,-362.667 188.961,-362.667 188.961,-355.333 188.961,-355.333 188.961,-351.667 192.628,-348 196.295,-348 196.295,-348 273.705,-348 273.705,-348 277.372,-348 281.039,-351.667 281.039,-355.333 281.039,-355.333 281.039,-362.667 281.039,-362.667 281.039,-366.333 277.372,-370 273.705,-370"/>
<text text-anchor="middle" x="235" y="-355.4" font-family="Helvetica,sans-Serif" font-size="12.00" fill="white">_Incrementable</text>
</a>
</g>
</g>
<!-- Equatable&#45;&gt;_Incrementable -->
<g id="edge36" class="edge">
<path fill="none" stroke="#cccccc" d="M190.654,-405.988C198.238,-398.123 208.989,-386.974 218.006,-377.624"/>
<polygon fill="#cccccc" stroke="#cccccc" points="220.642,-379.932 225.064,-370.304 215.603,-375.073 220.642,-379.932"/>
</g>
<!-- ForwardIndexType -->
<g id="node8" class="node">
<g id="a_node8"><a xlink:href="/swift-2/protocol/ForwardIndexType/" target="_top">
<path fill="#999999" stroke="#999999" d="M306.206,-312C306.206,-312 211.794,-312 211.794,-312 208.127,-312 204.461,-308.333 204.461,-304.667 204.461,-304.667 204.461,-297.333 204.461,-297.333 204.461,-293.667 208.127,-290 211.794,-290 211.794,-290 306.206,-290 306.206,-290 309.873,-290 313.539,-293.667 313.539,-297.333 313.539,-297.333 313.539,-304.667 313.539,-304.667 313.539,-308.333 309.873,-312 306.206,-312"/>
<text text-anchor="middle" x="259" y="-297.4" font-family="Helvetica,sans-Serif" font-size="12.00" fill="white">ForwardIndexType</text>
</a>
</g>
</g>
<!-- ForwardIndexType&#45;&gt;BidirectionalIndexType -->
<g id="edge45" class="edge">
<path fill="none" stroke="#cccccc" d="M313.676,-291.495C375.356,-281.9 476.012,-266.243 544.764,-255.548"/>
<polygon fill="#cccccc" stroke="#cccccc" points="545.325,-259.003 554.668,-254.007 544.249,-252.086 545.325,-259.003"/>
</g>
<!-- ForwardIndexType&#45;&gt;Int -->
<g id="edge12" class="edge">
<path fill="none" stroke="#cccccc" d="M251.969,-289.848C239.312,-270.552 214,-226.853 214,-186 214,-186 214,-186 214,-126 214,-43.3053 509.512,-19.5665 615.627,-13.7079"/>
<polygon fill="#cccccc" stroke="#cccccc" points="616.069,-17.1895 625.87,-13.1659 615.699,-10.1992 616.069,-17.1895"/>
</g>
<!-- Hashable&#45;&gt;Int -->
<g id="edge10" class="edge">
<path fill="none" stroke="#cccccc" d="M108.536,-231.773C81.4797,-201.317 8.7588,-110.108 57,-58 94.9785,-16.9774 491.247,-12.423 615.769,-12.0092"/>
<polygon fill="#cccccc" stroke="#cccccc" points="615.958,-15.5088 625.949,-11.9828 615.94,-8.50883 615.958,-15.5088"/>
</g>
<!-- Hashable&#45;&gt;_IntegerType -->
<g id="edge28" class="edge">
<path fill="none" stroke="#cccccc" d="M148.359,-238.239C224.673,-228.784 425.143,-203.947 519.511,-192.255"/>
<polygon fill="#cccccc" stroke="#cccccc" points="520.171,-195.7 529.664,-190.997 519.31,-188.754 520.171,-195.7"/>
</g>
<!-- Int&#45;&gt;Bit -->
<g id="edge1" class="edge">
<path fill="none" stroke="#cccccc" d="M680.281,-11C682.738,-11 685.194,-11 687.651,-11"/>
<polygon fill="#cccccc" stroke="#cccccc" points="687.75,-14.5001 697.75,-11 687.749,-7.5001 687.75,-14.5001"/>
</g>
<!-- IntegerArithmeticType&#45;&gt;Int -->
<g id="edge6" class="edge">
<path fill="none" stroke="#cccccc" d="M967.679,-231.945C974.435,-218.746 984.294,-194.811 980,-174 968.655,-119.017 974.486,-92.2456 930,-58 846.697,6.12669 797.846,-41.5552 689.97,-21.8658"/>
<polygon fill="#cccccc" stroke="#cccccc" points="690.529,-18.4085 680.039,-19.894 689.166,-25.2745 690.529,-18.4085"/>
</g>
<!-- IntegerArithmeticType&#45;&gt;_IntegerType -->
<g id="edge29" class="edge">
<path fill="none" stroke="#cccccc" d="M898.583,-232.94C821.03,-221.861 691.344,-203.335 620.304,-193.186"/>
<polygon fill="#cccccc" stroke="#cccccc" points="620.656,-189.701 610.261,-191.752 619.666,-196.631 620.656,-189.701"/>
</g>
<!-- IntegerLiteralConvertible -->
<g id="node12" class="node">
<g id="a_node12"><a xlink:href="/swift-2/protocol/IntegerLiteralConvertible/" target="_top">
<path fill="#999999" stroke="#999999" d="M872.722,-254C872.722,-254 747.278,-254 747.278,-254 743.611,-254 739.944,-250.333 739.944,-246.667 739.944,-246.667 739.944,-239.333 739.944,-239.333 739.944,-235.667 743.611,-232 747.278,-232 747.278,-232 872.722,-232 872.722,-232 876.389,-232 880.056,-235.667 880.056,-239.333 880.056,-239.333 880.056,-246.667 880.056,-246.667 880.056,-250.333 876.389,-254 872.722,-254"/>
<text text-anchor="middle" x="810" y="-239.4" font-family="Helvetica,sans-Serif" font-size="12.00" fill="white">IntegerLiteralConvertible</text>
</a>
</g>
</g>
<!-- IntegerLiteralConvertible&#45;&gt;Int -->
<g id="edge19" class="edge">
<path fill="none" stroke="#cccccc" d="M739.587,-233.869C712.861,-227.492 684.064,-216.15 664,-196 619.276,-151.083 612.385,-119.432 628,-58 630.414,-48.5026 635.229,-38.8461 639.994,-30.849"/>
<polygon fill="#cccccc" stroke="#cccccc" points="642.998,-32.647 645.418,-22.3323 637.094,-28.8866 642.998,-32.647"/>
</g>
<!-- IntegerLiteralConvertible&#45;&gt;SignedNumberType -->
<g id="edge38" class="edge">
<path fill="none" stroke="#cccccc" d="M828.414,-231.988C844.281,-223.362 867.413,-210.785 885.478,-200.963"/>
<polygon fill="#cccccc" stroke="#cccccc" points="887.284,-203.965 894.398,-196.114 883.941,-197.816 887.284,-203.965"/>
</g>
<!-- IntegerLiteralConvertible&#45;&gt;_IntegerType -->
<g id="edge26" class="edge">
<path fill="none" stroke="#cccccc" d="M767.093,-231.988C725.815,-222.357 663.431,-207.801 619.941,-197.653"/>
<polygon fill="#cccccc" stroke="#cccccc" points="620.675,-194.23 610.141,-195.366 619.084,-201.047 620.675,-194.23"/>
</g>
<!-- IntegerType -->
<g id="node13" class="node">
<g id="a_node13"><a xlink:href="/swift-2/protocol/IntegerType/" target="_top">
<path fill="#999999" stroke="#999999" d="M729.202,-138C729.202,-138 670.798,-138 670.798,-138 667.132,-138 663.465,-134.333 663.465,-130.667 663.465,-130.667 663.465,-123.333 663.465,-123.333 663.465,-119.667 667.132,-116 670.798,-116 670.798,-116 729.202,-116 729.202,-116 732.868,-116 736.535,-119.667 736.535,-123.333 736.535,-123.333 736.535,-130.667 736.535,-130.667 736.535,-134.333 732.868,-138 729.202,-138"/>
<text text-anchor="middle" x="700" y="-123.4" font-family="Helvetica,sans-Serif" font-size="12.00" fill="white">IntegerType</text>
</a>
</g>
</g>
<!-- IntegerType&#45;&gt;Int -->
<g id="edge9" class="edge">
<path fill="none" stroke="#cccccc" d="M675.911,-115.994C661.183,-108.462 643.576,-96.5761 635,-80 626.975,-64.4897 633.532,-45.0894 640.884,-30.9847"/>
<polygon fill="#cccccc" stroke="#cccccc" points="643.995,-32.5952 645.932,-22.1788 637.922,-29.1141 643.995,-32.5952"/>
</g>
<!-- SignedIntegerType -->
<g id="node16" class="node">
<g id="a_node16"><a xlink:href="/swift-2/protocol/SignedIntegerType/" target="_top">
<path fill="#999999" stroke="#999999" d="M856.727,-80C856.727,-80 761.273,-80 761.273,-80 757.606,-80 753.94,-76.3333 753.94,-72.6667 753.94,-72.6667 753.94,-65.3333 753.94,-65.3333 753.94,-61.6667 757.606,-58 761.273,-58 761.273,-58 856.727,-58 856.727,-58 860.394,-58 864.06,-61.6667 864.06,-65.3333 864.06,-65.3333 864.06,-72.6667 864.06,-72.6667 864.06,-76.3333 860.394,-80 856.727,-80"/>
<text text-anchor="middle" x="809" y="-65.4" font-family="Helvetica,sans-Serif" font-size="12.00" fill="white">SignedIntegerType</text>
</a>
</g>
</g>
<!-- IntegerType&#45;&gt;SignedIntegerType -->
<g id="edge40" class="edge">
<path fill="none" stroke="#cccccc" d="M719.487,-115.988C736.432,-107.283 761.208,-94.5539 780.4,-84.6937"/>
<polygon fill="#cccccc" stroke="#cccccc" points="782.019,-87.7968 789.314,-80.1138 778.82,-81.5705 782.019,-87.7968"/>
</g>
<!-- MirrorPathType -->
<g id="node14" class="node">
<g id="a_node14"><a xlink:href="/swift-2/protocol/MirrorPathType/" target="_top">
<path fill="#999999" stroke="#999999" d="M728.69,-80C728.69,-80 651.31,-80 651.31,-80 647.643,-80 643.977,-76.3333 643.977,-72.6667 643.977,-72.6667 643.977,-65.3333 643.977,-65.3333 643.977,-61.6667 647.643,-58 651.31,-58 651.31,-58 728.69,-58 728.69,-58 732.357,-58 736.023,-61.6667 736.023,-65.3333 736.023,-65.3333 736.023,-72.6667 736.023,-72.6667 736.023,-76.3333 732.357,-80 728.69,-80"/>
<text text-anchor="middle" x="690" y="-65.4" font-family="Helvetica,sans-Serif" font-size="12.00" fill="white">MirrorPathType</text>
</a>
</g>
</g>
<!-- MirrorPathType&#45;&gt;Int -->
<g id="edge22" class="edge">
<path fill="none" stroke="#cccccc" d="M683.385,-57.9883C678.396,-50.4379 671.408,-39.8611 665.391,-30.7543"/>
<polygon fill="#cccccc" stroke="#cccccc" points="668.241,-28.7178 659.808,-22.3039 662.4,-32.5767 668.241,-28.7178"/>
</g>
<!-- RandomAccessIndexType&#45;&gt;Int -->
<g id="edge14" class="edge">
<path fill="none" stroke="#cccccc" d="M822.357,-178.311C849.026,-172.249 876.544,-160.484 893,-138 902.633,-124.838 910.926,-81.7327 890,-58 861.748,-25.958 747.764,-31.2767 690.13,-21.7691"/>
<polygon fill="#cccccc" stroke="#cccccc" points="690.542,-18.2837 680.058,-19.8089 689.205,-25.1548 690.542,-18.2837"/>
</g>
<!-- RandomAccessIndexType&#45;&gt;IntegerType -->
<g id="edge42" class="edge">
<path fill="none" stroke="#cccccc" d="M739.419,-173.988C732.745,-166.202 723.312,-155.197 715.347,-145.905"/>
<polygon fill="#cccccc" stroke="#cccccc" points="717.997,-143.619 708.832,-138.304 712.682,-148.174 717.997,-143.619"/>
</g>
<!-- SignedIntegerType&#45;&gt;Int -->
<g id="edge8" class="edge">
<path fill="none" stroke="#cccccc" d="M781.11,-57.9883C755.553,-48.814 717.55,-35.1716 689.568,-25.1271"/>
<polygon fill="#cccccc" stroke="#cccccc" points="690.72,-21.822 680.126,-21.7375 688.355,-28.4104 690.72,-21.822"/>
</g>
<!-- SignedNumberType&#45;&gt;Int -->
<g id="edge18" class="edge">
<path fill="none" stroke="#cccccc" d="M916.555,-173.974C924.19,-150.446 939.208,-91.1746 910,-58 878.917,-22.6959 752.541,-31.5076 690.194,-21.7476"/>
<polygon fill="#cccccc" stroke="#cccccc" points="690.52,-18.248 680.047,-19.8551 689.236,-25.1294 690.52,-18.248"/>
</g>
<!-- _SignedIntegerType -->
<g id="node23" class="node">
<g id="a_node23"><a xlink:href="/swift-2/protocol/_SignedIntegerType/" target="_top">
<path fill="#999999" stroke="#999999" d="M877.231,-138C877.231,-138 774.769,-138 774.769,-138 771.102,-138 767.436,-134.333 767.436,-130.667 767.436,-130.667 767.436,-123.333 767.436,-123.333 767.436,-119.667 771.102,-116 774.769,-116 774.769,-116 877.231,-116 877.231,-116 880.898,-116 884.564,-119.667 884.564,-123.333 884.564,-123.333 884.564,-130.667 884.564,-130.667 884.564,-134.333 880.898,-138 877.231,-138"/>
<text text-anchor="middle" x="826" y="-123.4" font-family="Helvetica,sans-Serif" font-size="12.00" fill="white">_SignedIntegerType</text>
</a>
</g>
</g>
<!-- SignedNumberType&#45;&gt;_SignedIntegerType -->
<g id="edge25" class="edge">
<path fill="none" stroke="#cccccc" d="M897.446,-173.988C884.413,-165.599 865.576,-153.474 850.516,-143.78"/>
<polygon fill="#cccccc" stroke="#cccccc" points="852.016,-140.583 841.713,-138.114 848.227,-146.469 852.016,-140.583"/>
</g>
<!-- Strideable&#45;&gt;Int -->
<g id="edge16" class="edge">
<path fill="none" stroke="#cccccc" d="M1199.8,-231.956C1213.72,-201.231 1250.24,-107.588 1204,-58 1166.52,-17.8103 780.08,-30.5104 690.414,-21.5317"/>
<polygon fill="#cccccc" stroke="#cccccc" points="690.758,-18.0469 680.388,-20.2197 689.849,-24.9877 690.758,-18.0469"/>
</g>
<!-- Strideable&#45;&gt;RandomAccessIndexType -->
<g id="edge44" class="edge">
<path fill="none" stroke="#cccccc" d="M1162.85,-237.973C1094.53,-229.414 932.973,-209.173 832.826,-196.627"/>
<polygon fill="#cccccc" stroke="#cccccc" points="833.089,-193.133 822.731,-195.362 832.219,-200.078 833.089,-193.133"/>
</g>
<!-- _Incrementable&#45;&gt;ForwardIndexType -->
<g id="edge46" class="edge">
<path fill="none" stroke="#cccccc" d="M239.291,-347.988C242.425,-340.674 246.777,-330.519 250.595,-321.612"/>
<polygon fill="#cccccc" stroke="#cccccc" points="253.862,-322.874 254.584,-312.304 247.428,-320.117 253.862,-322.874"/>
</g>
<!-- _Incrementable&#45;&gt;Int -->
<g id="edge13" class="edge">
<path fill="none" stroke="#cccccc" d="M223.615,-347.71C214.637,-339.01 202.428,-325.79 195,-312 180.118,-284.373 176,-275.38 176,-244 176,-244 176,-244 176,-126 176,-81.9843 208.083,-76.5473 248,-58 312.917,-27.8366 528.169,-16.6193 615.598,-13.241"/>
<polygon fill="#cccccc" stroke="#cccccc" points="615.989,-16.729 625.851,-12.8584 615.727,-9.73384 615.989,-16.729"/>
</g>
<!-- _Incrementable&#45;&gt;_IntegerType -->
<g id="edge31" class="edge">
<path fill="none" stroke="#cccccc" d="M281.072,-354.628C386.795,-345.835 641.681,-318.278 693,-254 699.101,-246.359 698.573,-240.034 693,-232 684.186,-219.293 650.171,-207.135 620.14,-198.514"/>
<polygon fill="#cccccc" stroke="#cccccc" points="620.723,-195.043 610.151,-195.73 618.844,-201.786 620.723,-195.043"/>
</g>
<!-- _IntegerArithmeticType -->
<g id="node20" class="node">
<g id="a_node20"><a xlink:href="/swift-2/protocol/_IntegerArithmeticType/" target="_top">
<path fill="#999999" stroke="#999999" d="M1025.22,-312C1025.22,-312 906.785,-312 906.785,-312 903.118,-312 899.452,-308.333 899.452,-304.667 899.452,-304.667 899.452,-297.333 899.452,-297.333 899.452,-293.667 903.118,-290 906.785,-290 906.785,-290 1025.22,-290 1025.22,-290 1028.88,-290 1032.55,-293.667 1032.55,-297.333 1032.55,-297.333 1032.55,-304.667 1032.55,-304.667 1032.55,-308.333 1028.88,-312 1025.22,-312"/>
<text text-anchor="middle" x="966" y="-297.4" font-family="Helvetica,sans-Serif" font-size="12.00" fill="white">_IntegerArithmeticType</text>
</a>
</g>
</g>
<!-- _IntegerArithmeticType&#45;&gt;Int -->
<g id="edge7" class="edge">
<path fill="none" stroke="#cccccc" d="M988.696,-289.862C1003.64,-282.08 1022.5,-269.96 1034,-254 1052.34,-228.538 1053,-217.38 1053,-186 1053,-186 1053,-186 1053,-126 1053,-73.3507 1005.03,-77.1723 956,-58 847.53,-15.5888 808.437,-44.4039 690.193,-21.9537"/>
<polygon fill="#cccccc" stroke="#cccccc" points="690.52,-18.4503 680.03,-19.936 689.157,-25.3163 690.52,-18.4503"/>
</g>
<!-- _IntegerArithmeticType&#45;&gt;IntegerArithmeticType -->
<g id="edge33" class="edge">
<path fill="none" stroke="#cccccc" d="M965.285,-289.988C964.779,-282.91 964.084,-273.171 963.463,-264.478"/>
<polygon fill="#cccccc" stroke="#cccccc" points="966.94,-264.029 962.736,-254.304 959.957,-264.528 966.94,-264.029"/>
</g>
<!-- _IntegerType&#45;&gt;Int -->
<g id="edge5" class="edge">
<path fill="none" stroke="#cccccc" d="M565.995,-173.921C557.697,-151.272 541.223,-95.4115 564,-58 575.399,-39.2762 597.146,-27.8393 616.288,-21.0525"/>
<polygon fill="#cccccc" stroke="#cccccc" points="617.555,-24.3213 625.992,-17.9133 615.4,-17.6611 617.555,-24.3213"/>
</g>
<!-- _IntegerType&#45;&gt;IntegerType -->
<g id="edge41" class="edge">
<path fill="none" stroke="#cccccc" d="M593.241,-173.988C613.818,-165.124 644.077,-152.09 667.132,-142.159"/>
<polygon fill="#cccccc" stroke="#cccccc" points="668.722,-145.285 676.522,-138.114 665.953,-138.856 668.722,-145.285"/>
</g>
<!-- _IntegerType&#45;&gt;_SignedIntegerType -->
<g id="edge24" class="edge">
<path fill="none" stroke="#cccccc" d="M610.282,-175.188C653.268,-165.785 721.686,-150.819 769.925,-140.266"/>
<polygon fill="#cccccc" stroke="#cccccc" points="770.875,-143.642 779.896,-138.085 769.379,-136.803 770.875,-143.642"/>
</g>
<!-- _Reflectable -->
<g id="node22" class="node">
<g id="a_node22"><a xlink:href="/swift-2/protocol/_Reflectable/" target="_top">
<path fill="#999999" stroke="#999999" d="M1187.7,-80C1187.7,-80 1126.3,-80 1126.3,-80 1122.63,-80 1118.97,-76.3333 1118.97,-72.6667 1118.97,-72.6667 1118.97,-65.3333 1118.97,-65.3333 1118.97,-61.6667 1122.63,-58 1126.3,-58 1126.3,-58 1187.7,-58 1187.7,-58 1191.37,-58 1195.03,-61.6667 1195.03,-65.3333 1195.03,-65.3333 1195.03,-72.6667 1195.03,-72.6667 1195.03,-76.3333 1191.37,-80 1187.7,-80"/>
<text text-anchor="middle" x="1157" y="-65.4" font-family="Helvetica,sans-Serif" font-size="12.00" fill="white">_Reflectable</text>
</a>
</g>
</g>
<!-- _Reflectable&#45;&gt;Int -->
<g id="edge21" class="edge">
<path fill="none" stroke="#cccccc" d="M1118.74,-60.1757C1114.12,-59.3696 1109.46,-58.6204 1105,-58 924.419,-32.8918 873.411,-54.1978 689.978,-21.8647"/>
<polygon fill="#cccccc" stroke="#cccccc" points="690.464,-18.3961 680.003,-20.0771 689.229,-25.2863 690.464,-18.3961"/>
</g>
<!-- _SignedIntegerType&#45;&gt;Int -->
<g id="edge3" class="edge">
<path fill="none" stroke="#cccccc" d="M841.604,-115.941C860.819,-102.328 889.054,-77.4994 873,-58 822.002,3.94335 773.805,-37.7945 689.928,-21.8694"/>
<polygon fill="#cccccc" stroke="#cccccc" points="690.579,-18.4297 680.069,-19.762 689.116,-25.2751 690.579,-18.4297"/>
</g>
<!-- _SignedIntegerType&#45;&gt;SignedIntegerType -->
<g id="edge39" class="edge">
<path fill="none" stroke="#cccccc" d="M822.961,-115.988C820.764,-108.752 817.724,-98.7373 815.041,-89.9"/>
<polygon fill="#cccccc" stroke="#cccccc" points="818.382,-88.856 812.128,-80.3039 811.684,-90.8894 818.382,-88.856"/>
</g>
<!-- _Strideable -->
<g id="node24" class="node">
<g id="a_node24"><a xlink:href="/swift-2/protocol/_Strideable/" target="_top">
<path fill="#999999" stroke="#999999" d="M1255.7,-312C1255.7,-312 1200.3,-312 1200.3,-312 1196.63,-312 1192.97,-308.333 1192.97,-304.667 1192.97,-304.667 1192.97,-297.333 1192.97,-297.333 1192.97,-293.667 1196.63,-290 1200.3,-290 1200.3,-290 1255.7,-290 1255.7,-290 1259.37,-290 1263.03,-293.667 1263.03,-297.333 1263.03,-297.333 1263.03,-304.667 1263.03,-304.667 1263.03,-308.333 1259.37,-312 1255.7,-312"/>
<text text-anchor="middle" x="1228" y="-297.4" font-family="Helvetica,sans-Serif" font-size="12.00" fill="white">_Strideable</text>
</a>
</g>
</g>
<!-- _Strideable&#45;&gt;Int -->
<g id="edge17" class="edge">
<path fill="none" stroke="#cccccc" d="M1233.01,-289.911C1242.24,-270.367 1261,-225.766 1261,-186 1261,-186 1261,-186 1261,-126 1261,-91.8038 1253.69,-76.6109 1225,-58 1127.39,5.32116 822.695,-39.6625 690.371,-21.7581"/>
<polygon fill="#cccccc" stroke="#cccccc" points="690.802,-18.2833 680.387,-20.2276 689.741,-25.2024 690.802,-18.2833"/>
</g>
<!-- _Strideable&#45;&gt;Strideable -->
<g id="edge48" class="edge">
<path fill="none" stroke="#cccccc" d="M1222.1,-289.988C1217.7,-282.517 1211.55,-272.081 1206.22,-263.039"/>
<polygon fill="#cccccc" stroke="#cccccc" points="1209.16,-261.142 1201.07,-254.304 1203.13,-264.696 1209.16,-261.142"/>
</g>
</g>
</svg>
