<?xml version="1.0" encoding="UTF-8" standalone="no"?>
<!DOCTYPE svg PUBLIC "-//W3C//DTD SVG 1.1//EN"
 "http://www.w3.org/Graphics/SVG/1.1/DTD/svg11.dtd">
<!-- Generated by graphviz version 2.36.0 (20140111.2315)
 -->
<!-- Title: UnicodeScalar &#45; Type Hierarchy &#45; Swifter Pages: 1 -->
<svg width="730pt" height="253pt"
 viewBox="0.00 0.00 730.40 253.20" xmlns="http://www.w3.org/2000/svg" xmlns:xlink="http://www.w3.org/1999/xlink">
<g id="graph0" class="graph" transform="scale(1 1) rotate(0) translate(7.2 195.6)">
<g transform="translate(0 -195.6)">
<g>
    <path fill="#666666" d="M13.846,10.832c-0.336-0.464-0.792-0.844-1.368-1.14s-1.224-0.444-1.944-0.444
        c-0.384,0-0.772,0.052-1.164,0.156C8.977,9.509,8.622,9.677,8.301,9.908c-0.32,0.232-0.58,0.52-0.78,0.864
        c-0.2,0.344-0.3,0.756-0.3,1.236c0,0.464,0.092,0.852,0.276,1.164c0.184,0.312,0.432,0.576,0.744,0.792s0.68,0.4,1.104,0.552
        c0.423,0.152,0.876,0.309,1.356,0.468c0.576,0.177,1.16,0.376,1.752,0.601c0.592,0.224,1.128,0.52,1.608,0.888
        s0.872,0.828,1.176,1.38s0.456,1.252,0.456,2.101c0,0.88-0.164,1.644-0.492,2.292c-0.328,0.647-0.765,1.184-1.308,1.607
        c-0.544,0.424-1.172,0.74-1.884,0.948s-1.444,0.312-2.196,0.312c-1.072,0-2.108-0.208-3.108-0.624
        c-1-0.415-1.828-1.031-2.484-1.848l1.848-1.56c0.4,0.592,0.936,1.071,1.608,1.439c0.672,0.368,1.399,0.552,2.184,0.552
        c0.4,0,0.8-0.056,1.2-0.168c0.4-0.111,0.764-0.288,1.092-0.527c0.328-0.24,0.596-0.54,0.804-0.9
        c0.208-0.36,0.312-0.796,0.312-1.308s-0.108-0.94-0.324-1.284c-0.216-0.344-0.508-0.636-0.876-0.876s-0.796-0.444-1.284-0.612
        c-0.488-0.168-1.004-0.34-1.548-0.516c-0.544-0.16-1.08-0.356-1.608-0.588c-0.528-0.232-1-0.528-1.416-0.889
        c-0.416-0.359-0.752-0.804-1.008-1.332c-0.256-0.527-0.384-1.184-0.384-1.968c0-0.848,0.172-1.576,0.516-2.184
        c0.344-0.608,0.792-1.112,1.344-1.512c0.552-0.4,1.176-0.692,1.872-0.876c0.696-0.184,1.396-0.276,2.1-0.276
        c0.992,0,1.92,0.176,2.784,0.528c0.864,0.352,1.56,0.824,2.088,1.416L13.846,10.832z"/>
    <path fill="#666666" d="M18.813,13.304l2.568,8.688h0.048l2.712-8.688h2.376l2.76,8.688h0.048l2.568-8.688h2.376L30.501,24.68
        h-2.352l-2.808-8.544h-0.048l-2.784,8.544h-2.352l-3.792-11.376H18.813z"/>
    <path fill="#666666" d="M38.685,9.2c0,0.416-0.147,0.76-0.44,1.032c-0.294,0.272-0.647,0.408-1.06,0.408s-0.762-0.14-1.047-0.42
        c-0.286-0.28-0.429-0.62-0.429-1.02c0-0.416,0.143-0.764,0.429-1.044c0.286-0.28,0.635-0.42,1.047-0.42s0.766,0.14,1.06,0.42
        C38.538,8.437,38.685,8.784,38.685,9.2z M38.325,24.68h-2.256V13.304h2.256V24.68z"/>
    <path fill="#666666" d="M47.613,15.152h-2.64v9.528h-2.256v-9.528h-2.256v-1.848h2.256v-2.376c0-0.672,0.076-1.292,0.228-1.86
        c0.152-0.568,0.4-1.06,0.744-1.476c0.344-0.416,0.784-0.744,1.32-0.984c0.536-0.24,1.188-0.36,1.956-0.36
        c0.544,0,1.016,0.056,1.416,0.168l-0.264,1.944c-0.176-0.048-0.352-0.088-0.528-0.12c-0.176-0.032-0.376-0.048-0.6-0.048
        c-0.432,0-0.78,0.076-1.044,0.228c-0.264,0.152-0.468,0.356-0.612,0.612s-0.24,0.548-0.288,0.876
        c-0.048,0.328-0.072,0.668-0.072,1.02v2.376h2.64V15.152z"/>
    <path fill="#666666" d="M54.909,15.152h-3.024v5.91c0,0.687,0.128,1.177,0.384,1.472c0.256,0.295,0.664,0.442,1.224,0.442
        c0.208,0,0.432-0.021,0.672-0.065c0.24-0.044,0.456-0.11,0.648-0.198l0.072,1.848c-0.272,0.096-0.572,0.172-0.9,0.229
        c-0.328,0.056-0.668,0.084-1.02,0.084c-1.072,0-1.892-0.296-2.46-0.889c-0.568-0.592-0.852-1.479-0.852-2.664v-6.168h-2.184
        v-1.848h2.184V10.04h2.232v3.264h3.024V15.152z"/>
    <path fill="#666666" d="M57.356,7.688h5.832c1.088,0,2.176,0.16,3.264,0.48c1.088,0.32,2.072,0.824,2.952,1.512
        s1.592,1.568,2.136,2.64c0.544,1.072,0.816,2.36,0.816,3.864c0,1.456-0.272,2.716-0.816,3.78s-1.256,1.943-2.136,2.64
        s-1.864,1.216-2.952,1.561c-1.088,0.344-2.176,0.516-3.264,0.516h-5.832V7.688z M59.732,22.593h2.976
        c1.024,0,1.972-0.145,2.844-0.432c0.872-0.288,1.624-0.704,2.256-1.248c0.632-0.544,1.124-1.216,1.476-2.017
        c0.352-0.8,0.528-1.704,0.528-2.712c0-1.056-0.176-1.983-0.528-2.784c-0.353-0.8-0.844-1.468-1.476-2.004
        c-0.632-0.536-1.384-0.944-2.256-1.224s-1.82-0.42-2.844-0.42h-2.976V22.593z"/>
    <path fill="#666666" d="M86.06,18.969c0,0.88-0.156,1.688-0.468,2.424c-0.312,0.736-0.744,1.372-1.296,1.908
        c-0.552,0.536-1.204,0.952-1.956,1.248c-0.752,0.296-1.56,0.443-2.424,0.443c-0.864,0-1.672-0.147-2.424-0.443
        c-0.752-0.296-1.4-0.712-1.944-1.248c-0.544-0.536-0.972-1.172-1.284-1.908c-0.312-0.735-0.468-1.544-0.468-2.424
        s0.156-1.684,0.468-2.412c0.312-0.728,0.74-1.356,1.284-1.884c0.543-0.528,1.191-0.939,1.944-1.236
        c0.752-0.296,1.56-0.444,2.424-0.444c0.864,0,1.672,0.148,2.424,0.444c0.752,0.297,1.404,0.708,1.956,1.236
        c0.552,0.527,0.984,1.156,1.296,1.884C85.904,17.285,86.06,18.089,86.06,18.969z M83.708,18.98c0-0.542-0.084-1.061-0.252-1.556
        c-0.169-0.494-0.414-0.929-0.734-1.304s-0.718-0.674-1.192-0.897s-1.015-0.335-1.625-0.335c-0.61,0-1.152,0.111-1.625,0.335
        c-0.474,0.224-0.871,0.522-1.191,0.897c-0.321,0.375-0.566,0.81-0.734,1.304C76.184,17.92,76.1,18.438,76.1,18.98
        c0,0.543,0.084,1.062,0.253,1.556c0.168,0.495,0.413,0.934,0.734,1.316c0.321,0.383,0.718,0.686,1.191,0.909
        c0.473,0.224,1.015,0.335,1.625,0.335c0.61,0,1.151-0.111,1.625-0.335s0.871-0.526,1.192-0.909s0.565-0.821,0.734-1.316
        C83.624,20.042,83.708,19.523,83.708,18.98z"/>
    <path fill="#666666" d="M96.428,16.184c-0.24-0.368-0.6-0.676-1.08-0.924s-0.992-0.372-1.536-0.372
        c-0.592,0-1.116,0.112-1.572,0.336c-0.456,0.225-0.844,0.524-1.164,0.9c-0.32,0.376-0.564,0.812-0.732,1.308
        s-0.252,1.017-0.252,1.56c0,0.545,0.084,1.064,0.252,1.561s0.412,0.933,0.732,1.308c0.32,0.376,0.712,0.677,1.176,0.9
        c0.464,0.225,0.992,0.336,1.584,0.336c0.576,0,1.1-0.111,1.572-0.336c0.472-0.224,0.86-0.528,1.164-0.912l1.512,1.368
        c-0.48,0.561-1.08,0.996-1.8,1.308c-0.72,0.312-1.536,0.468-2.448,0.468c-0.88,0-1.692-0.144-2.436-0.432
        c-0.744-0.288-1.388-0.691-1.932-1.212c-0.544-0.52-0.972-1.147-1.284-1.884s-0.468-1.561-0.468-2.473
        c0-0.896,0.152-1.711,0.456-2.447c0.304-0.736,0.728-1.368,1.272-1.896c0.543-0.527,1.188-0.936,1.932-1.224
        c0.744-0.288,1.548-0.433,2.412-0.433c0.8,0,1.596,0.16,2.388,0.48s1.419,0.784,1.884,1.392L96.428,16.184z"/>
    <path fill="#666666" d="M103.1,23.24c0,0.417-0.152,0.784-0.456,1.104c-0.304,0.32-0.688,0.479-1.152,0.479
        c-0.448,0-0.828-0.155-1.14-0.468c-0.312-0.312-0.468-0.676-0.468-1.092c0-0.432,0.152-0.804,0.456-1.116
        c0.304-0.312,0.688-0.468,1.152-0.468c0.464,0,0.848,0.152,1.152,0.456C102.947,22.44,103.1,22.808,103.1,23.24z"/>
    <path fill="#666666" d="M116.635,18.969c0,0.88-0.156,1.688-0.468,2.424c-0.312,0.736-0.744,1.372-1.296,1.908
        c-0.552,0.536-1.204,0.952-1.956,1.248c-0.752,0.296-1.56,0.443-2.424,0.443c-0.864,0-1.672-0.147-2.424-0.443
        c-0.752-0.296-1.4-0.712-1.944-1.248c-0.544-0.536-0.972-1.172-1.284-1.908c-0.312-0.735-0.468-1.544-0.468-2.424
        s0.156-1.684,0.468-2.412c0.312-0.728,0.74-1.356,1.284-1.884c0.543-0.528,1.191-0.939,1.944-1.236
        c0.752-0.296,1.56-0.444,2.424-0.444c0.864,0,1.672,0.148,2.424,0.444c0.752,0.297,1.404,0.708,1.956,1.236
        c0.552,0.527,0.984,1.156,1.296,1.884C116.479,17.285,116.635,18.089,116.635,18.969z M114.283,18.98
        c0-0.542-0.084-1.061-0.252-1.556c-0.169-0.494-0.414-0.929-0.734-1.304s-0.718-0.674-1.192-0.897s-1.015-0.335-1.625-0.335
        c-0.61,0-1.152,0.111-1.625,0.335c-0.474,0.224-0.871,0.522-1.191,0.897c-0.321,0.375-0.566,0.81-0.734,1.304
        c-0.169,0.495-0.253,1.014-0.253,1.556c0,0.543,0.084,1.062,0.253,1.556c0.168,0.495,0.413,0.934,0.734,1.316
        c0.321,0.383,0.718,0.686,1.191,0.909c0.473,0.224,1.015,0.335,1.625,0.335c0.61,0,1.151-0.111,1.625-0.335
        s0.871-0.526,1.192-0.909s0.565-0.821,0.734-1.316C114.199,20.042,114.283,19.523,114.283,18.98z"/>
    <path fill="#666666" d="M119.251,14.577c-0.016-0.48-0.04-0.904-0.072-1.272h2.136c0.032,0.288,0.056,0.62,0.072,0.996
        c0.016,0.376,0.024,0.684,0.024,0.924h0.072c0.32-0.672,0.788-1.212,1.404-1.62c0.616-0.408,1.308-0.612,2.076-0.612
        c0.352,0,0.648,0.033,0.888,0.097l-0.096,2.088c-0.32-0.08-0.664-0.12-1.032-0.12c-0.544,0-1.016,0.101-1.416,0.3
        c-0.4,0.2-0.732,0.468-0.996,0.805c-0.264,0.336-0.46,0.724-0.588,1.163c-0.128,0.44-0.192,0.9-0.192,1.381v5.976h-2.256v-8.928
        C119.275,15.449,119.267,15.056,119.251,14.577z"/>
    <path fill="#666666" d="M128.419,26.625c0.496,0.56,1.116,1.008,1.86,1.344c0.744,0.336,1.508,0.504,2.292,0.504
        c0.752,0,1.384-0.108,1.896-0.324s0.924-0.512,1.236-0.888s0.536-0.82,0.672-1.332c0.136-0.513,0.204-1.064,0.204-1.656v-1.464
        h-0.048c-0.416,0.641-0.984,1.128-1.704,1.464c-0.72,0.336-1.488,0.504-2.304,0.504c-0.864,0-1.652-0.151-2.364-0.456
        c-0.712-0.304-1.316-0.72-1.812-1.248c-0.496-0.527-0.88-1.147-1.152-1.859s-0.408-1.477-0.408-2.292
        c0-0.816,0.136-1.584,0.408-2.305c0.272-0.72,0.656-1.348,1.152-1.884c0.496-0.535,1.096-0.96,1.8-1.271
        c0.704-0.312,1.488-0.469,2.352-0.469c0.816,0,1.596,0.177,2.34,0.528c0.744,0.353,1.332,0.888,1.764,1.608h0.048v-1.824h2.184
        v10.8c0,0.832-0.104,1.628-0.312,2.388c-0.208,0.76-0.56,1.433-1.056,2.017s-1.144,1.052-1.944,1.404
        c-0.8,0.352-1.792,0.527-2.976,0.527c-0.992,0-1.988-0.18-2.988-0.54c-1-0.359-1.86-0.868-2.58-1.523L128.419,26.625z
         M129.091,18.873c0,0.527,0.084,1.031,0.253,1.512c0.168,0.479,0.417,0.904,0.746,1.271c0.329,0.369,0.726,0.664,1.192,0.889
        c0.465,0.224,0.995,0.336,1.589,0.336c0.577,0,1.107-0.104,1.589-0.312c0.481-0.207,0.891-0.491,1.228-0.852
        s0.598-0.784,0.782-1.272c0.185-0.487,0.277-1.012,0.277-1.571c0-0.544-0.093-1.057-0.277-1.536
        c-0.185-0.48-0.449-0.904-0.794-1.272c-0.345-0.367-0.755-0.66-1.228-0.876c-0.474-0.216-1-0.324-1.577-0.324
        c-0.594,0-1.124,0.108-1.589,0.324c-0.466,0.216-0.863,0.504-1.192,0.864s-0.578,0.784-0.746,1.271
        C129.175,17.812,129.091,18.329,129.091,18.873z"/>
</g>

</g>
<title>UnicodeScalar &#45; Type Hierarchy &#45; Swifter</title>

<!-- Comparable -->
<g id="node1" class="node">
<g id="a_node1"><a xlink:href="/protocol/Comparable/" xlink:title="Comparable">
<path fill="#999999" stroke="#999999" d="M178.191,-80C178.191,-80 117.809,-80 117.809,-80 114.142,-80 110.475,-76.3333 110.475,-72.6667 110.475,-72.6667 110.475,-65.3333 110.475,-65.3333 110.475,-61.6667 114.142,-58 117.809,-58 117.809,-58 178.191,-58 178.191,-58 181.858,-58 185.525,-61.6667 185.525,-65.3333 185.525,-65.3333 185.525,-72.6667 185.525,-72.6667 185.525,-76.3333 181.858,-80 178.191,-80"/>
<text text-anchor="middle" x="148" y="-65.4" font-family="Helvetica,sans-Serif" font-size="12.00" fill="white">Comparable</text>
</a>
</g>
</g>
<!-- UnicodeScalar -->
<g id="node8" class="node"><title>UnicodeScalar</title>
<g id="a_node8"><a xlink:href="/type/UnicodeScalar/" xlink:title="UnicodeScalar">
<polygon fill="#ee543d" stroke="#ee543d" points="355.031,-22 266.969,-22 266.969,-0 355.031,-0 355.031,-22"/>
<text text-anchor="middle" x="311" y="-7.4" font-family="Helvetica,sans-Serif" font-size="12.00" fill="white">UnicodeScalar</text>
</a>
</g>
</g>
<!-- Comparable&#45;&gt;UnicodeScalar -->
<g id="edge7" class="edge"><title>Comparable&#45;&gt;UnicodeScalar</title>
<path fill="none" stroke="#cccccc" d="M177.141,-57.9883C203.715,-48.8587 243.167,-35.3046 272.362,-25.2743"/>
<polygon fill="#cccccc" stroke="#cccccc" points="273.517,-28.5786 281.837,-22.0192 271.242,-21.9584 273.517,-28.5786"/>
</g>
<!-- DebugPrintable -->
<g id="node2" class="node"><title>DebugPrintable</title>
<g id="a_node2"><a xlink:href="/protocol/DebugPrintable/" xlink:title="DebugPrintable">
<path fill="#999999" stroke="#999999" d="M84.7096,-80C84.7096,-80 7.29039,-80 7.29039,-80 3.62372,-80 -0.0429445,-76.3333 -0.0429445,-72.6667 -0.0429445,-72.6667 -0.0429445,-65.3333 -0.0429445,-65.3333 -0.0429445,-61.6667 3.62372,-58 7.29039,-58 7.29039,-58 84.7096,-58 84.7096,-58 88.3763,-58 92.0429,-61.6667 92.0429,-65.3333 92.0429,-65.3333 92.0429,-72.6667 92.0429,-72.6667 92.0429,-76.3333 88.3763,-80 84.7096,-80"/>
<text text-anchor="middle" x="46" y="-65.4" font-family="Helvetica,sans-Serif" font-size="12.00" fill="white">DebugPrintable</text>
</a>
</g>
</g>
<!-- DebugPrintable&#45;&gt;UnicodeScalar -->
<g id="edge5" class="edge"><title>DebugPrintable&#45;&gt;UnicodeScalar</title>
<path fill="none" stroke="#cccccc" d="M92.1595,-58.2455C137.984,-48.5619 208.212,-33.7213 256.693,-23.4762"/>
<polygon fill="#cccccc" stroke="#cccccc" points="257.631,-26.8553 266.692,-21.3633 256.184,-20.0065 257.631,-26.8553"/>
</g>
<!-- Equatable -->
<g id="node3" class="node"><title>Equatable</title>
<g id="a_node3"><a xlink:href="/protocol/Equatable/" xlink:title="Equatable">
<path fill="#999999" stroke="#999999" d="M258.702,-138C258.702,-138 209.298,-138 209.298,-138 205.632,-138 201.965,-134.333 201.965,-130.667 201.965,-130.667 201.965,-123.333 201.965,-123.333 201.965,-119.667 205.632,-116 209.298,-116 209.298,-116 258.702,-116 258.702,-116 262.368,-116 266.035,-119.667 266.035,-123.333 266.035,-123.333 266.035,-130.667 266.035,-130.667 266.035,-134.333 262.368,-138 258.702,-138"/>
<text text-anchor="middle" x="234" y="-123.4" font-family="Helvetica,sans-Serif" font-size="12.00" fill="white">Equatable</text>
</a>
</g>
</g>
<!-- Equatable&#45;&gt;Comparable -->
<g id="edge10" class="edge"><title>Equatable&#45;&gt;Comparable</title>
<path fill="none" stroke="#cccccc" d="M218.625,-115.988C205.742,-107.599 187.121,-95.4743 172.234,-85.7804"/>
<polygon fill="#cccccc" stroke="#cccccc" points="173.822,-82.6376 163.532,-80.1138 170.002,-88.5036 173.822,-82.6376"/>
</g>
<!-- Hashable -->
<g id="node4" class="node"><title>Hashable</title>
<g id="a_node4"><a xlink:href="/protocol/Hashable/" xlink:title="Hashable">
<path fill="#999999" stroke="#999999" d="M256.694,-80C256.694,-80 211.306,-80 211.306,-80 207.639,-80 203.973,-76.3333 203.973,-72.6667 203.973,-72.6667 203.973,-65.3333 203.973,-65.3333 203.973,-61.6667 207.639,-58 211.306,-58 211.306,-58 256.694,-58 256.694,-58 260.361,-58 264.027,-61.6667 264.027,-65.3333 264.027,-65.3333 264.027,-72.6667 264.027,-72.6667 264.027,-76.3333 260.361,-80 256.694,-80"/>
<text text-anchor="middle" x="234" y="-65.4" font-family="Helvetica,sans-Serif" font-size="12.00" fill="white">Hashable</text>
</a>
</g>
</g>
<!-- Equatable&#45;&gt;Hashable -->
<g id="edge8" class="edge"><title>Equatable&#45;&gt;Hashable</title>
<path fill="none" stroke="#cccccc" d="M234,-115.988C234,-108.91 234,-99.1714 234,-90.4779"/>
<polygon fill="#cccccc" stroke="#cccccc" points="237.5,-90.3038 234,-80.3039 230.5,-90.3039 237.5,-90.3038"/>
</g>
<!-- Hashable&#45;&gt;UnicodeScalar -->
<g id="edge6" class="edge"><title>Hashable&#45;&gt;UnicodeScalar</title>
<path fill="none" stroke="#cccccc" d="M247.766,-57.9883C259.192,-49.6784 275.659,-37.7028 288.924,-28.0554"/>
<polygon fill="#cccccc" stroke="#cccccc" points="291.065,-30.8262 297.094,-22.1138 286.948,-25.165 291.065,-30.8262"/>
</g>
<!-- Printable -->
<g id="node5" class="node"><title>Printable</title>
<g id="a_node5"><a xlink:href="/protocol/Printable/" xlink:title="Printable">
<path fill="#999999" stroke="#999999" d="M332.187,-80C332.187,-80 289.813,-80 289.813,-80 286.147,-80 282.48,-76.3333 282.48,-72.6667 282.48,-72.6667 282.48,-65.3333 282.48,-65.3333 282.48,-61.6667 286.147,-58 289.813,-58 289.813,-58 332.187,-58 332.187,-58 335.853,-58 339.52,-61.6667 339.52,-65.3333 339.52,-65.3333 339.52,-72.6667 339.52,-72.6667 339.52,-76.3333 335.853,-80 332.187,-80"/>
<text text-anchor="middle" x="311" y="-65.4" font-family="Helvetica,sans-Serif" font-size="12.00" fill="white">Printable</text>
</a>
</g>
</g>
<!-- Printable&#45;&gt;UnicodeScalar -->
<g id="edge4" class="edge"><title>Printable&#45;&gt;UnicodeScalar</title>
<path fill="none" stroke="#cccccc" d="M311,-57.9883C311,-50.9098 311,-41.1714 311,-32.4779"/>
<polygon fill="#cccccc" stroke="#cccccc" points="314.5,-32.3038 311,-22.3039 307.5,-32.3039 314.5,-32.3038"/>
</g>
<!-- Reflectable -->
<g id="node6" class="node"><title>Reflectable</title>
<g id="a_node6"><a xlink:href="/protocol/Reflectable/" xlink:title="Reflectable">
<path fill="#999999" stroke="#999999" d="M420.693,-80C420.693,-80 365.307,-80 365.307,-80 361.64,-80 357.974,-76.3333 357.974,-72.6667 357.974,-72.6667 357.974,-65.3333 357.974,-65.3333 357.974,-61.6667 361.64,-58 365.307,-58 365.307,-58 420.693,-58 420.693,-58 424.36,-58 428.026,-61.6667 428.026,-65.3333 428.026,-65.3333 428.026,-72.6667 428.026,-72.6667 428.026,-76.3333 424.36,-80 420.693,-80"/>
<text text-anchor="middle" x="393" y="-65.4" font-family="Helvetica,sans-Serif" font-size="12.00" fill="white">Reflectable</text>
</a>
</g>
</g>
<!-- Reflectable&#45;&gt;UnicodeScalar -->
<g id="edge2" class="edge"><title>Reflectable&#45;&gt;UnicodeScalar</title>
<path fill="none" stroke="#cccccc" d="M378.34,-57.9883C366.056,-49.5993 348.302,-37.4743 334.107,-27.7804"/>
<polygon fill="#cccccc" stroke="#cccccc" points="336.041,-24.8632 325.81,-22.1138 332.094,-30.6438 336.041,-24.8632"/>
</g>
<!-- Streamable -->
<g id="node7" class="node"><title>Streamable</title>
<g id="a_node7"><a xlink:href="/protocol/Streamable/" xlink:title="Streamable">
<path fill="#999999" stroke="#999999" d="M510.19,-80C510.19,-80 453.81,-80 453.81,-80 450.144,-80 446.477,-76.3333 446.477,-72.6667 446.477,-72.6667 446.477,-65.3333 446.477,-65.3333 446.477,-61.6667 450.144,-58 453.81,-58 453.81,-58 510.19,-58 510.19,-58 513.856,-58 517.523,-61.6667 517.523,-65.3333 517.523,-65.3333 517.523,-72.6667 517.523,-72.6667 517.523,-76.3333 513.856,-80 510.19,-80"/>
<text text-anchor="middle" x="482" y="-65.4" font-family="Helvetica,sans-Serif" font-size="12.00" fill="white">Streamable</text>
</a>
</g>
</g>
<!-- Streamable&#45;&gt;UnicodeScalar -->
<g id="edge3" class="edge"><title>Streamable&#45;&gt;UnicodeScalar</title>
<path fill="none" stroke="#cccccc" d="M451.429,-57.9883C423.43,-48.819 381.802,-35.1866 351.135,-25.1436"/>
<polygon fill="#cccccc" stroke="#cccccc" points="352.187,-21.8054 341.594,-22.0192 350.009,-28.4577 352.187,-21.8054"/>
</g>
<!-- UnicodeScalarLiteralConvertible -->
<g id="node9" class="node"><title>UnicodeScalarLiteralConvertible</title>
<g id="a_node9"><a xlink:href="/protocol/UnicodeScalarLiteralConvertible/" xlink:title="UnicodeScalarLiteralConvertible">
<path fill="#999999" stroke="#999999" d="M709.233,-80C709.233,-80 542.767,-80 542.767,-80 539.101,-80 535.434,-76.3333 535.434,-72.6667 535.434,-72.6667 535.434,-65.3333 535.434,-65.3333 535.434,-61.6667 539.101,-58 542.767,-58 542.767,-58 709.233,-58 709.233,-58 712.899,-58 716.566,-61.6667 716.566,-65.3333 716.566,-65.3333 716.566,-72.6667 716.566,-72.6667 716.566,-76.3333 712.899,-80 709.233,-80"/>
<text text-anchor="middle" x="626" y="-65.4" font-family="Helvetica,sans-Serif" font-size="12.00" fill="white">UnicodeScalarLiteralConvertible</text>
</a>
</g>
</g>
<!-- UnicodeScalarLiteralConvertible&#45;&gt;UnicodeScalar -->
<g id="edge1" class="edge"><title>UnicodeScalarLiteralConvertible&#45;&gt;UnicodeScalar</title>
<path fill="none" stroke="#cccccc" d="M569.684,-57.9883C511.756,-47.69 422.159,-31.7617 365.067,-21.612"/>
<polygon fill="#cccccc" stroke="#cccccc" points="365.608,-18.1532 355.149,-19.8488 364.382,-25.0451 365.608,-18.1532"/>
</g>
<!-- _Comparable -->
<g id="node10" class="node"><title>_Comparable</title>
<g id="a_node10"><a xlink:href="/protocol/_Comparable/" xlink:title="_Comparable">
<path fill="#999999" stroke="#999999" d="M176.697,-138C176.697,-138 109.303,-138 109.303,-138 105.636,-138 101.969,-134.333 101.969,-130.667 101.969,-130.667 101.969,-123.333 101.969,-123.333 101.969,-119.667 105.636,-116 109.303,-116 109.303,-116 176.697,-116 176.697,-116 180.364,-116 184.031,-119.667 184.031,-123.333 184.031,-123.333 184.031,-130.667 184.031,-130.667 184.031,-134.333 180.364,-138 176.697,-138"/>
<text text-anchor="middle" x="143" y="-123.4" font-family="Helvetica,sans-Serif" font-size="12.00" fill="white">_Comparable</text>
</a>
</g>
</g>
<!-- _Comparable&#45;&gt;Comparable -->
<g id="edge9" class="edge"><title>_Comparable&#45;&gt;Comparable</title>
<path fill="none" stroke="#cccccc" d="M143.894,-115.988C144.526,-108.91 145.395,-99.1714 146.172,-90.4779"/>
<polygon fill="#cccccc" stroke="#cccccc" points="149.677,-90.5755 147.08,-80.3039 142.704,-89.953 149.677,-90.5755"/>
</g>
</g>
</svg>
