<?xml version="1.0" encoding="UTF-8" standalone="no"?>
<!DOCTYPE svg PUBLIC "-//W3C//DTD SVG 1.1//EN"
 "http://www.w3.org/Graphics/SVG/1.1/DTD/svg11.dtd">
<!-- Generated by graphviz version 2.36.0 (20140111.2315)
 -->
<!-- Title: Strideable &#45; Type Hierarchy &#45; SwiftDoc.org Pages: 1 -->
<svg width="1602pt" height="485pt"
 viewBox="0.00 0.00 1602.40 485.20" xmlns="http://www.w3.org/2000/svg" xmlns:xlink="http://www.w3.org/1999/xlink">
<g id="graph0" class="graph" transform="scale(1 1) rotate(0) translate(7.2 427.6)">
<g transform="translate(0 -427.6)">
<g>
    <path fill="#666666" d="M13.846,10.832c-0.336-0.464-0.792-0.844-1.368-1.14s-1.224-0.444-1.944-0.444
        c-0.384,0-0.772,0.052-1.164,0.156C8.977,9.509,8.622,9.677,8.301,9.908c-0.32,0.232-0.58,0.52-0.78,0.864
        c-0.2,0.344-0.3,0.756-0.3,1.236c0,0.464,0.092,0.852,0.276,1.164c0.184,0.312,0.432,0.576,0.744,0.792s0.68,0.4,1.104,0.552
        c0.423,0.152,0.876,0.309,1.356,0.468c0.576,0.177,1.16,0.376,1.752,0.601c0.592,0.224,1.128,0.52,1.608,0.888
        s0.872,0.828,1.176,1.38s0.456,1.252,0.456,2.101c0,0.88-0.164,1.644-0.492,2.292c-0.328,0.647-0.765,1.184-1.308,1.607
        c-0.544,0.424-1.172,0.74-1.884,0.948s-1.444,0.312-2.196,0.312c-1.072,0-2.108-0.208-3.108-0.624
        c-1-0.415-1.828-1.031-2.484-1.848l1.848-1.56c0.4,0.592,0.936,1.071,1.608,1.439c0.672,0.368,1.399,0.552,2.184,0.552
        c0.4,0,0.8-0.056,1.2-0.168c0.4-0.111,0.764-0.288,1.092-0.527c0.328-0.24,0.596-0.54,0.804-0.9
        c0.208-0.36,0.312-0.796,0.312-1.308s-0.108-0.94-0.324-1.284c-0.216-0.344-0.508-0.636-0.876-0.876s-0.796-0.444-1.284-0.612
        c-0.488-0.168-1.004-0.34-1.548-0.516c-0.544-0.16-1.08-0.356-1.608-0.588c-0.528-0.232-1-0.528-1.416-0.889
        c-0.416-0.359-0.752-0.804-1.008-1.332c-0.256-0.527-0.384-1.184-0.384-1.968c0-0.848,0.172-1.576,0.516-2.184
        c0.344-0.608,0.792-1.112,1.344-1.512c0.552-0.4,1.176-0.692,1.872-0.876c0.696-0.184,1.396-0.276,2.1-0.276
        c0.992,0,1.92,0.176,2.784,0.528c0.864,0.352,1.56,0.824,2.088,1.416L13.846,10.832z"/>
    <path fill="#666666" d="M18.813,13.304l2.568,8.688h0.048l2.712-8.688h2.376l2.76,8.688h0.048l2.568-8.688h2.376L30.501,24.68
        h-2.352l-2.808-8.544h-0.048l-2.784,8.544h-2.352l-3.792-11.376H18.813z"/>
    <path fill="#666666" d="M38.685,9.2c0,0.416-0.147,0.76-0.44,1.032c-0.294,0.272-0.647,0.408-1.06,0.408s-0.762-0.14-1.047-0.42
        c-0.286-0.28-0.429-0.62-0.429-1.02c0-0.416,0.143-0.764,0.429-1.044c0.286-0.28,0.635-0.42,1.047-0.42s0.766,0.14,1.06,0.42
        C38.538,8.437,38.685,8.784,38.685,9.2z M38.325,24.68h-2.256V13.304h2.256V24.68z"/>
    <path fill="#666666" d="M47.613,15.152h-2.64v9.528h-2.256v-9.528h-2.256v-1.848h2.256v-2.376c0-0.672,0.076-1.292,0.228-1.86
        c0.152-0.568,0.4-1.06,0.744-1.476c0.344-0.416,0.784-0.744,1.32-0.984c0.536-0.24,1.188-0.36,1.956-0.36
        c0.544,0,1.016,0.056,1.416,0.168l-0.264,1.944c-0.176-0.048-0.352-0.088-0.528-0.12c-0.176-0.032-0.376-0.048-0.6-0.048
        c-0.432,0-0.78,0.076-1.044,0.228c-0.264,0.152-0.468,0.356-0.612,0.612s-0.24,0.548-0.288,0.876
        c-0.048,0.328-0.072,0.668-0.072,1.02v2.376h2.64V15.152z"/>
    <path fill="#666666" d="M54.909,15.152h-3.024v5.91c0,0.687,0.128,1.177,0.384,1.472c0.256,0.295,0.664,0.442,1.224,0.442
        c0.208,0,0.432-0.021,0.672-0.065c0.24-0.044,0.456-0.11,0.648-0.198l0.072,1.848c-0.272,0.096-0.572,0.172-0.9,0.229
        c-0.328,0.056-0.668,0.084-1.02,0.084c-1.072,0-1.892-0.296-2.46-0.889c-0.568-0.592-0.852-1.479-0.852-2.664v-6.168h-2.184
        v-1.848h2.184V10.04h2.232v3.264h3.024V15.152z"/>
    <path fill="#666666" d="M57.356,7.688h5.832c1.088,0,2.176,0.16,3.264,0.48c1.088,0.32,2.072,0.824,2.952,1.512
        s1.592,1.568,2.136,2.64c0.544,1.072,0.816,2.36,0.816,3.864c0,1.456-0.272,2.716-0.816,3.78s-1.256,1.943-2.136,2.64
        s-1.864,1.216-2.952,1.561c-1.088,0.344-2.176,0.516-3.264,0.516h-5.832V7.688z M59.732,22.593h2.976
        c1.024,0,1.972-0.145,2.844-0.432c0.872-0.288,1.624-0.704,2.256-1.248c0.632-0.544,1.124-1.216,1.476-2.017
        c0.352-0.8,0.528-1.704,0.528-2.712c0-1.056-0.176-1.983-0.528-2.784c-0.353-0.8-0.844-1.468-1.476-2.004
        c-0.632-0.536-1.384-0.944-2.256-1.224s-1.82-0.42-2.844-0.42h-2.976V22.593z"/>
    <path fill="#666666" d="M86.06,18.969c0,0.88-0.156,1.688-0.468,2.424c-0.312,0.736-0.744,1.372-1.296,1.908
        c-0.552,0.536-1.204,0.952-1.956,1.248c-0.752,0.296-1.56,0.443-2.424,0.443c-0.864,0-1.672-0.147-2.424-0.443
        c-0.752-0.296-1.4-0.712-1.944-1.248c-0.544-0.536-0.972-1.172-1.284-1.908c-0.312-0.735-0.468-1.544-0.468-2.424
        s0.156-1.684,0.468-2.412c0.312-0.728,0.74-1.356,1.284-1.884c0.543-0.528,1.191-0.939,1.944-1.236
        c0.752-0.296,1.56-0.444,2.424-0.444c0.864,0,1.672,0.148,2.424,0.444c0.752,0.297,1.404,0.708,1.956,1.236
        c0.552,0.527,0.984,1.156,1.296,1.884C85.904,17.285,86.06,18.089,86.06,18.969z M83.708,18.98c0-0.542-0.084-1.061-0.252-1.556
        c-0.169-0.494-0.414-0.929-0.734-1.304s-0.718-0.674-1.192-0.897s-1.015-0.335-1.625-0.335c-0.61,0-1.152,0.111-1.625,0.335
        c-0.474,0.224-0.871,0.522-1.191,0.897c-0.321,0.375-0.566,0.81-0.734,1.304C76.184,17.92,76.1,18.438,76.1,18.98
        c0,0.543,0.084,1.062,0.253,1.556c0.168,0.495,0.413,0.934,0.734,1.316c0.321,0.383,0.718,0.686,1.191,0.909
        c0.473,0.224,1.015,0.335,1.625,0.335c0.61,0,1.151-0.111,1.625-0.335s0.871-0.526,1.192-0.909s0.565-0.821,0.734-1.316
        C83.624,20.042,83.708,19.523,83.708,18.98z"/>
    <path fill="#666666" d="M96.428,16.184c-0.24-0.368-0.6-0.676-1.08-0.924s-0.992-0.372-1.536-0.372
        c-0.592,0-1.116,0.112-1.572,0.336c-0.456,0.225-0.844,0.524-1.164,0.9c-0.32,0.376-0.564,0.812-0.732,1.308
        s-0.252,1.017-0.252,1.56c0,0.545,0.084,1.064,0.252,1.561s0.412,0.933,0.732,1.308c0.32,0.376,0.712,0.677,1.176,0.9
        c0.464,0.225,0.992,0.336,1.584,0.336c0.576,0,1.1-0.111,1.572-0.336c0.472-0.224,0.86-0.528,1.164-0.912l1.512,1.368
        c-0.48,0.561-1.08,0.996-1.8,1.308c-0.72,0.312-1.536,0.468-2.448,0.468c-0.88,0-1.692-0.144-2.436-0.432
        c-0.744-0.288-1.388-0.691-1.932-1.212c-0.544-0.52-0.972-1.147-1.284-1.884s-0.468-1.561-0.468-2.473
        c0-0.896,0.152-1.711,0.456-2.447c0.304-0.736,0.728-1.368,1.272-1.896c0.543-0.527,1.188-0.936,1.932-1.224
        c0.744-0.288,1.548-0.433,2.412-0.433c0.8,0,1.596,0.16,2.388,0.48s1.419,0.784,1.884,1.392L96.428,16.184z"/>
    <path fill="#666666" d="M103.1,23.24c0,0.417-0.152,0.784-0.456,1.104c-0.304,0.32-0.688,0.479-1.152,0.479
        c-0.448,0-0.828-0.155-1.14-0.468c-0.312-0.312-0.468-0.676-0.468-1.092c0-0.432,0.152-0.804,0.456-1.116
        c0.304-0.312,0.688-0.468,1.152-0.468c0.464,0,0.848,0.152,1.152,0.456C102.947,22.44,103.1,22.808,103.1,23.24z"/>
    <path fill="#666666" d="M116.635,18.969c0,0.88-0.156,1.688-0.468,2.424c-0.312,0.736-0.744,1.372-1.296,1.908
        c-0.552,0.536-1.204,0.952-1.956,1.248c-0.752,0.296-1.56,0.443-2.424,0.443c-0.864,0-1.672-0.147-2.424-0.443
        c-0.752-0.296-1.4-0.712-1.944-1.248c-0.544-0.536-0.972-1.172-1.284-1.908c-0.312-0.735-0.468-1.544-0.468-2.424
        s0.156-1.684,0.468-2.412c0.312-0.728,0.74-1.356,1.284-1.884c0.543-0.528,1.191-0.939,1.944-1.236
        c0.752-0.296,1.56-0.444,2.424-0.444c0.864,0,1.672,0.148,2.424,0.444c0.752,0.297,1.404,0.708,1.956,1.236
        c0.552,0.527,0.984,1.156,1.296,1.884C116.479,17.285,116.635,18.089,116.635,18.969z M114.283,18.98
        c0-0.542-0.084-1.061-0.252-1.556c-0.169-0.494-0.414-0.929-0.734-1.304s-0.718-0.674-1.192-0.897s-1.015-0.335-1.625-0.335
        c-0.61,0-1.152,0.111-1.625,0.335c-0.474,0.224-0.871,0.522-1.191,0.897c-0.321,0.375-0.566,0.81-0.734,1.304
        c-0.169,0.495-0.253,1.014-0.253,1.556c0,0.543,0.084,1.062,0.253,1.556c0.168,0.495,0.413,0.934,0.734,1.316
        c0.321,0.383,0.718,0.686,1.191,0.909c0.473,0.224,1.015,0.335,1.625,0.335c0.61,0,1.151-0.111,1.625-0.335
        s0.871-0.526,1.192-0.909s0.565-0.821,0.734-1.316C114.199,20.042,114.283,19.523,114.283,18.98z"/>
    <path fill="#666666" d="M119.251,14.577c-0.016-0.48-0.04-0.904-0.072-1.272h2.136c0.032,0.288,0.056,0.62,0.072,0.996
        c0.016,0.376,0.024,0.684,0.024,0.924h0.072c0.32-0.672,0.788-1.212,1.404-1.62c0.616-0.408,1.308-0.612,2.076-0.612
        c0.352,0,0.648,0.033,0.888,0.097l-0.096,2.088c-0.32-0.08-0.664-0.12-1.032-0.12c-0.544,0-1.016,0.101-1.416,0.3
        c-0.4,0.2-0.732,0.468-0.996,0.805c-0.264,0.336-0.46,0.724-0.588,1.163c-0.128,0.44-0.192,0.9-0.192,1.381v5.976h-2.256v-8.928
        C119.275,15.449,119.267,15.056,119.251,14.577z"/>
    <path fill="#666666" d="M128.419,26.625c0.496,0.56,1.116,1.008,1.86,1.344c0.744,0.336,1.508,0.504,2.292,0.504
        c0.752,0,1.384-0.108,1.896-0.324s0.924-0.512,1.236-0.888s0.536-0.82,0.672-1.332c0.136-0.513,0.204-1.064,0.204-1.656v-1.464
        h-0.048c-0.416,0.641-0.984,1.128-1.704,1.464c-0.72,0.336-1.488,0.504-2.304,0.504c-0.864,0-1.652-0.151-2.364-0.456
        c-0.712-0.304-1.316-0.72-1.812-1.248c-0.496-0.527-0.88-1.147-1.152-1.859s-0.408-1.477-0.408-2.292
        c0-0.816,0.136-1.584,0.408-2.305c0.272-0.72,0.656-1.348,1.152-1.884c0.496-0.535,1.096-0.96,1.8-1.271
        c0.704-0.312,1.488-0.469,2.352-0.469c0.816,0,1.596,0.177,2.34,0.528c0.744,0.353,1.332,0.888,1.764,1.608h0.048v-1.824h2.184
        v10.8c0,0.832-0.104,1.628-0.312,2.388c-0.208,0.76-0.56,1.433-1.056,2.017s-1.144,1.052-1.944,1.404
        c-0.8,0.352-1.792,0.527-2.976,0.527c-0.992,0-1.988-0.18-2.988-0.54c-1-0.359-1.86-0.868-2.58-1.523L128.419,26.625z
         M129.091,18.873c0,0.527,0.084,1.031,0.253,1.512c0.168,0.479,0.417,0.904,0.746,1.271c0.329,0.369,0.726,0.664,1.192,0.889
        c0.465,0.224,0.995,0.336,1.589,0.336c0.577,0,1.107-0.104,1.589-0.312c0.481-0.207,0.891-0.491,1.228-0.852
        s0.598-0.784,0.782-1.272c0.185-0.487,0.277-1.012,0.277-1.571c0-0.544-0.093-1.057-0.277-1.536
        c-0.185-0.48-0.449-0.904-0.794-1.272c-0.345-0.367-0.755-0.66-1.228-0.876c-0.474-0.216-1-0.324-1.577-0.324
        c-0.594,0-1.124,0.108-1.589,0.324c-0.466,0.216-0.863,0.504-1.192,0.864s-0.578,0.784-0.746,1.271
        C129.175,17.812,129.091,18.329,129.091,18.873z"/>
</g>
<g><a xlink:href="/" pointer-events="all" target="_top"><polygon fill="none" points="0,0 145,0 145,35 0,35 0,0"/></a></g>

</g>


<!-- AnyRandomAccessIndex -->
<g id="node1" class="node">
<g id="a_node1"><a xlink:href="/v2.0/type/AnyRandomAccessIndex/hierarchy/" target="_top">
<polygon fill="#999999" stroke="#999999" points="360.051,-22 215.949,-22 215.949,-0 360.051,-0 360.051,-22"/>
<text text-anchor="middle" x="288" y="-7.4" font-family="Helvetica,sans-Serif" font-size="12.00" fill="white">AnyRandomAccessIndex</text>
</a>
</g>
</g>
<!-- Bit -->
<g id="node2" class="node">
<g id="a_node2"><a xlink:href="/v2.0/type/Bit/hierarchy/" target="_top">
<polygon fill="#999999" stroke="#999999" points="432,-22 378,-22 378,-0 432,-0 432,-22"/>
<text text-anchor="middle" x="405" y="-7.4" font-family="Helvetica,sans-Serif" font-size="12.00" fill="white">Bit</text>
</a>
</g>
</g>
<!-- Comparable -->
<g id="node3" class="node">
<g id="a_node3"><a xlink:href="/v2.0/protocol/Comparable/hierarchy/" target="_top">
<path fill="#999999" stroke="#999999" d="M124.191,-312C124.191,-312 63.8087,-312 63.8087,-312 60.1421,-312 56.4754,-308.333 56.4754,-304.667 56.4754,-304.667 56.4754,-297.333 56.4754,-297.333 56.4754,-293.667 60.1421,-290 63.8087,-290 63.8087,-290 124.191,-290 124.191,-290 127.858,-290 131.525,-293.667 131.525,-297.333 131.525,-297.333 131.525,-304.667 131.525,-304.667 131.525,-308.333 127.858,-312 124.191,-312"/>
<text text-anchor="middle" x="94" y="-297.4" font-family="Helvetica,sans-Serif" font-size="12.00" fill="white">Comparable</text>
</a>
</g>
</g>
<!-- Strideable -->
<g id="node18" class="node">
<g id="a_node18"><a xlink:href="/v2.0/protocol/Strideable/" target="_top">
<path fill="#ee543d" stroke="#ee543d" d="M163.693,-254C163.693,-254 114.307,-254 114.307,-254 110.64,-254 106.974,-250.333 106.974,-246.667 106.974,-246.667 106.974,-239.333 106.974,-239.333 106.974,-235.667 110.64,-232 114.307,-232 114.307,-232 163.693,-232 163.693,-232 167.36,-232 171.026,-235.667 171.026,-239.333 171.026,-239.333 171.026,-246.667 171.026,-246.667 171.026,-250.333 167.36,-254 163.693,-254"/>
<text text-anchor="middle" x="139" y="-239.4" font-family="Helvetica,sans-Serif" font-size="12.00" fill="white">Strideable</text>
</a>
</g>
</g>
<!-- Comparable&#45;&gt;Strideable -->
<g id="edge24" class="edge">
<path fill="none" stroke="#cccccc" d="M102.045,-289.988C108.239,-282.281 116.967,-271.419 124.385,-262.187"/>
<polygon fill="#cccccc" stroke="#cccccc" points="127.184,-264.291 130.72,-254.304 121.728,-259.907 127.184,-264.291"/>
</g>
<!-- Double -->
<g id="node4" class="node">
<g id="a_node4"><a xlink:href="/v2.0/type/Double/hierarchy/" target="_top">
<polygon fill="#999999" stroke="#999999" points="126,-22 72,-22 72,-0 126,-0 126,-22"/>
<text text-anchor="middle" x="99" y="-7.4" font-family="Helvetica,sans-Serif" font-size="12.00" fill="white">Double</text>
</a>
</g>
</g>
<!-- Equatable -->
<g id="node5" class="node">
<g id="a_node5"><a xlink:href="/v2.0/protocol/Equatable/hierarchy/" target="_top">
<path fill="#999999" stroke="#999999" d="M118.702,-370C118.702,-370 69.2982,-370 69.2982,-370 65.6315,-370 61.9648,-366.333 61.9648,-362.667 61.9648,-362.667 61.9648,-355.333 61.9648,-355.333 61.9648,-351.667 65.6315,-348 69.2982,-348 69.2982,-348 118.702,-348 118.702,-348 122.368,-348 126.035,-351.667 126.035,-355.333 126.035,-355.333 126.035,-362.667 126.035,-362.667 126.035,-366.333 122.368,-370 118.702,-370"/>
<text text-anchor="middle" x="94" y="-355.4" font-family="Helvetica,sans-Serif" font-size="12.00" fill="white">Equatable</text>
</a>
</g>
</g>
<!-- Equatable&#45;&gt;Comparable -->
<g id="edge26" class="edge">
<path fill="none" stroke="#cccccc" d="M94,-347.988C94,-340.91 94,-331.171 94,-322.478"/>
<polygon fill="#cccccc" stroke="#cccccc" points="97.5001,-322.304 94,-312.304 90.5001,-322.304 97.5001,-322.304"/>
</g>
<!-- Float -->
<g id="node6" class="node">
<g id="a_node6"><a xlink:href="/v2.0/type/Float/hierarchy/" target="_top">
<polygon fill="#999999" stroke="#999999" points="198,-22 144,-22 144,-0 198,-0 198,-22"/>
<text text-anchor="middle" x="171" y="-7.4" font-family="Helvetica,sans-Serif" font-size="12.00" fill="white">Float</text>
</a>
</g>
</g>
<!-- Float80 -->
<g id="node7" class="node">
<g id="a_node7"><a xlink:href="/v2.0/type/Float80/hierarchy/" target="_top">
<polygon fill="#999999" stroke="#999999" points="54,-22 0,-22 0,-0 54,-0 54,-22"/>
<text text-anchor="middle" x="27" y="-7.4" font-family="Helvetica,sans-Serif" font-size="12.00" fill="white">Float80</text>
</a>
</g>
</g>
<!-- FloatingPointType -->
<g id="node8" class="node">
<g id="a_node8"><a xlink:href="/v2.0/protocol/FloatingPointType/hierarchy/" target="_top">
<path fill="#999999" stroke="#999999" d="M184.715,-80C184.715,-80 93.285,-80 93.285,-80 89.6183,-80 85.9517,-76.3333 85.9517,-72.6667 85.9517,-72.6667 85.9517,-65.3333 85.9517,-65.3333 85.9517,-61.6667 89.6183,-58 93.285,-58 93.285,-58 184.715,-58 184.715,-58 188.382,-58 192.048,-61.6667 192.048,-65.3333 192.048,-65.3333 192.048,-72.6667 192.048,-72.6667 192.048,-76.3333 188.382,-80 184.715,-80"/>
<text text-anchor="middle" x="139" y="-65.4" font-family="Helvetica,sans-Serif" font-size="12.00" fill="white">FloatingPointType</text>
</a>
</g>
</g>
<!-- FloatingPointType&#45;&gt;Double -->
<g id="edge4" class="edge">
<path fill="none" stroke="#cccccc" d="M131.849,-57.9883C126.399,-50.3592 118.743,-39.6405 112.193,-30.4702"/>
<polygon fill="#cccccc" stroke="#cccccc" points="115.02,-28.4069 106.36,-22.3039 109.324,-32.4756 115.02,-28.4069"/>
</g>
<!-- FloatingPointType&#45;&gt;Float -->
<g id="edge5" class="edge">
<path fill="none" stroke="#cccccc" d="M144.721,-57.9883C148.991,-50.5165 154.954,-40.0812 160.12,-31.0393"/>
<polygon fill="#cccccc" stroke="#cccccc" points="163.189,-32.7228 165.112,-22.3039 157.112,-29.2498 163.189,-32.7228"/>
</g>
<!-- Int -->
<g id="node9" class="node">
<g id="a_node9"><a xlink:href="/v2.0/type/Int/hierarchy/" target="_top">
<polygon fill="#999999" stroke="#999999" points="504,-22 450,-22 450,-0 504,-0 504,-22"/>
<text text-anchor="middle" x="477" y="-7.4" font-family="Helvetica,sans-Serif" font-size="12.00" fill="white">Int</text>
</a>
</g>
</g>
<!-- Int16 -->
<g id="node10" class="node">
<g id="a_node10"><a xlink:href="/v2.0/type/Int16/hierarchy/" target="_top">
<polygon fill="#999999" stroke="#999999" points="576,-22 522,-22 522,-0 576,-0 576,-22"/>
<text text-anchor="middle" x="549" y="-7.4" font-family="Helvetica,sans-Serif" font-size="12.00" fill="white">Int16</text>
</a>
</g>
</g>
<!-- Int32 -->
<g id="node11" class="node">
<g id="a_node11"><a xlink:href="/v2.0/type/Int32/hierarchy/" target="_top">
<polygon fill="#999999" stroke="#999999" points="648,-22 594,-22 594,-0 648,-0 648,-22"/>
<text text-anchor="middle" x="621" y="-7.4" font-family="Helvetica,sans-Serif" font-size="12.00" fill="white">Int32</text>
</a>
</g>
</g>
<!-- Int64 -->
<g id="node12" class="node">
<g id="a_node12"><a xlink:href="/v2.0/type/Int64/hierarchy/" target="_top">
<polygon fill="#999999" stroke="#999999" points="720,-22 666,-22 666,-0 720,-0 720,-22"/>
<text text-anchor="middle" x="693" y="-7.4" font-family="Helvetica,sans-Serif" font-size="12.00" fill="white">Int64</text>
</a>
</g>
</g>
<!-- Int8 -->
<g id="node13" class="node">
<g id="a_node13"><a xlink:href="/v2.0/type/Int8/hierarchy/" target="_top">
<polygon fill="#999999" stroke="#999999" points="792,-22 738,-22 738,-0 792,-0 792,-22"/>
<text text-anchor="middle" x="765" y="-7.4" font-family="Helvetica,sans-Serif" font-size="12.00" fill="white">Int8</text>
</a>
</g>
</g>
<!-- IntegerType -->
<g id="node14" class="node">
<g id="a_node14"><a xlink:href="/v2.0/protocol/IntegerType/hierarchy/" target="_top">
<path fill="#999999" stroke="#999999" d="M830.202,-138C830.202,-138 771.798,-138 771.798,-138 768.132,-138 764.465,-134.333 764.465,-130.667 764.465,-130.667 764.465,-123.333 764.465,-123.333 764.465,-119.667 768.132,-116 771.798,-116 771.798,-116 830.202,-116 830.202,-116 833.868,-116 837.535,-119.667 837.535,-123.333 837.535,-123.333 837.535,-130.667 837.535,-130.667 837.535,-134.333 833.868,-138 830.202,-138"/>
<text text-anchor="middle" x="801" y="-123.4" font-family="Helvetica,sans-Serif" font-size="12.00" fill="white">IntegerType</text>
</a>
</g>
</g>
<!-- SignedIntegerType -->
<g id="node17" class="node">
<g id="a_node17"><a xlink:href="/v2.0/protocol/SignedIntegerType/hierarchy/" target="_top">
<path fill="#999999" stroke="#999999" d="M704.727,-80C704.727,-80 609.273,-80 609.273,-80 605.606,-80 601.94,-76.3333 601.94,-72.6667 601.94,-72.6667 601.94,-65.3333 601.94,-65.3333 601.94,-61.6667 605.606,-58 609.273,-58 609.273,-58 704.727,-58 704.727,-58 708.394,-58 712.06,-61.6667 712.06,-65.3333 712.06,-65.3333 712.06,-72.6667 712.06,-72.6667 712.06,-76.3333 708.394,-80 704.727,-80"/>
<text text-anchor="middle" x="657" y="-65.4" font-family="Helvetica,sans-Serif" font-size="12.00" fill="white">SignedIntegerType</text>
</a>
</g>
</g>
<!-- IntegerType&#45;&gt;SignedIntegerType -->
<g id="edge12" class="edge">
<path fill="none" stroke="#cccccc" d="M775.256,-115.988C752.158,-107.006 718.045,-93.7398 692.386,-83.7614"/>
<polygon fill="#cccccc" stroke="#cccccc" points="693.596,-80.4763 683.007,-80.1138 691.058,-87.0004 693.596,-80.4763"/>
</g>
<!-- UnsignedIntegerType -->
<g id="node26" class="node">
<g id="a_node26"><a xlink:href="/v2.0/protocol/UnsignedIntegerType/hierarchy/" target="_top">
<path fill="#999999" stroke="#999999" d="M999.728,-80C999.728,-80 890.272,-80 890.272,-80 886.605,-80 882.938,-76.3333 882.938,-72.6667 882.938,-72.6667 882.938,-65.3333 882.938,-65.3333 882.938,-61.6667 886.605,-58 890.272,-58 890.272,-58 999.728,-58 999.728,-58 1003.39,-58 1007.06,-61.6667 1007.06,-65.3333 1007.06,-65.3333 1007.06,-72.6667 1007.06,-72.6667 1007.06,-76.3333 1003.39,-80 999.728,-80"/>
<text text-anchor="middle" x="945" y="-65.4" font-family="Helvetica,sans-Serif" font-size="12.00" fill="white">UnsignedIntegerType</text>
</a>
</g>
</g>
<!-- IntegerType&#45;&gt;UnsignedIntegerType -->
<g id="edge13" class="edge">
<path fill="none" stroke="#cccccc" d="M826.744,-115.988C849.842,-107.006 883.955,-93.7398 909.614,-83.7614"/>
<polygon fill="#cccccc" stroke="#cccccc" points="910.942,-87.0004 918.993,-80.1138 908.404,-80.4763 910.942,-87.0004"/>
</g>
<!-- RandomAccessIndexType -->
<g id="node15" class="node">
<g id="a_node15"><a xlink:href="/v2.0/protocol/RandomAccessIndexType/hierarchy/" target="_top">
<path fill="#999999" stroke="#999999" d="M868.225,-196C868.225,-196 733.775,-196 733.775,-196 730.108,-196 726.441,-192.333 726.441,-188.667 726.441,-188.667 726.441,-181.333 726.441,-181.333 726.441,-177.667 730.108,-174 733.775,-174 733.775,-174 868.225,-174 868.225,-174 871.892,-174 875.559,-177.667 875.559,-181.333 875.559,-181.333 875.559,-188.667 875.559,-188.667 875.559,-192.333 871.892,-196 868.225,-196"/>
<text text-anchor="middle" x="801" y="-181.4" font-family="Helvetica,sans-Serif" font-size="12.00" fill="white">RandomAccessIndexType</text>
</a>
</g>
</g>
<!-- RandomAccessIndexType&#45;&gt;AnyRandomAccessIndex -->
<g id="edge6" class="edge">
<path fill="none" stroke="#cccccc" d="M763.861,-173.939C731.514,-165.013 683.436,-151.355 642,-138 524.715,-100.2 387.776,-49.5818 324.044,-25.6423"/>
<polygon fill="#cccccc" stroke="#cccccc" points="325.05,-22.2813 314.458,-22.0353 322.584,-28.8329 325.05,-22.2813"/>
</g>
<!-- RandomAccessIndexType&#45;&gt;Bit -->
<g id="edge7" class="edge">
<path fill="none" stroke="#cccccc" d="M777.707,-173.883C710.374,-144.637 515.353,-59.9312 437.58,-26.151"/>
<polygon fill="#cccccc" stroke="#cccccc" points="438.83,-22.8782 428.264,-22.1045 436.042,-29.2987 438.83,-22.8782"/>
</g>
<!-- RandomAccessIndexType&#45;&gt;IntegerType -->
<g id="edge8" class="edge">
<path fill="none" stroke="#cccccc" d="M801,-173.988C801,-166.91 801,-157.171 801,-148.478"/>
<polygon fill="#cccccc" stroke="#cccccc" points="804.5,-148.304 801,-138.304 797.5,-148.304 804.5,-148.304"/>
</g>
<!-- ReverseRandomAccessIndex -->
<g id="node16" class="node">
<g id="a_node16"><a xlink:href="/v2.0/type/ReverseRandomAccessIndex/hierarchy/" target="_top">
<polygon fill="#999999" stroke="#999999" points="1338.06,-22 1169.94,-22 1169.94,-0 1338.06,-0 1338.06,-22"/>
<text text-anchor="middle" x="1254" y="-7.4" font-family="Helvetica,sans-Serif" font-size="12.00" fill="white">ReverseRandomAccessIndex</text>
</a>
</g>
</g>
<!-- RandomAccessIndexType&#45;&gt;ReverseRandomAccessIndex -->
<g id="edge9" class="edge">
<path fill="none" stroke="#cccccc" d="M827.646,-173.883C904.984,-144.518 1129.58,-59.2402 1217.81,-25.7408"/>
<polygon fill="#cccccc" stroke="#cccccc" points="1219.28,-28.9263 1227.39,-22.1045 1216.8,-22.3821 1219.28,-28.9263"/>
</g>
<!-- UnsafeMutablePointer -->
<g id="node24" class="node">
<g id="a_node24"><a xlink:href="/v2.0/type/UnsafeMutablePointer/hierarchy/" target="_top">
<polygon fill="#999999" stroke="#999999" points="1484.05,-22 1355.95,-22 1355.95,-0 1484.05,-0 1484.05,-22"/>
<text text-anchor="middle" x="1420" y="-7.4" font-family="Helvetica,sans-Serif" font-size="12.00" fill="white">UnsafeMutablePointer</text>
</a>
</g>
</g>
<!-- RandomAccessIndexType&#45;&gt;UnsafeMutablePointer -->
<g id="edge10" class="edge">
<path fill="none" stroke="#cccccc" d="M837.41,-173.883C944.053,-144.25 1255.61,-57.6788 1373.8,-24.8365"/>
<polygon fill="#cccccc" stroke="#cccccc" points="1374.94,-28.1541 1383.64,-22.1045 1373.06,-21.4096 1374.94,-28.1541"/>
</g>
<!-- UnsafePointer -->
<g id="node25" class="node">
<g id="a_node25"><a xlink:href="/v2.0/type/UnsafePointer/hierarchy/" target="_top">
<polygon fill="#999999" stroke="#999999" points="1588.03,-22 1501.97,-22 1501.97,-0 1588.03,-0 1588.03,-22"/>
<text text-anchor="middle" x="1545" y="-7.4" font-family="Helvetica,sans-Serif" font-size="12.00" fill="white">UnsafePointer</text>
</a>
</g>
</g>
<!-- RandomAccessIndexType&#45;&gt;UnsafePointer -->
<g id="edge11" class="edge">
<path fill="none" stroke="#cccccc" d="M851.334,-173.921C895.985,-164.873 962.942,-151.047 1021,-138 1195.66,-98.75 1401.94,-47.7893 1495.01,-24.5463"/>
<polygon fill="#cccccc" stroke="#cccccc" points="1496.14,-27.8717 1504.99,-22.0512 1494.44,-21.0806 1496.14,-27.8717"/>
</g>
<!-- SignedIntegerType&#45;&gt;Int -->
<g id="edge14" class="edge">
<path fill="none" stroke="#cccccc" d="M624.82,-57.9883C593.661,-48.2947 546.47,-33.6128 513.827,-23.4573"/>
<polygon fill="#cccccc" stroke="#cccccc" points="514.786,-20.0902 504.198,-20.4615 512.706,-26.7742 514.786,-20.0902"/>
</g>
<!-- SignedIntegerType&#45;&gt;Int16 -->
<g id="edge15" class="edge">
<path fill="none" stroke="#cccccc" d="M637.692,-57.9883C620.979,-49.3223 596.577,-36.6696 577.597,-26.8283"/>
<polygon fill="#cccccc" stroke="#cccccc" points="578.994,-23.6099 568.505,-22.1138 575.772,-29.8242 578.994,-23.6099"/>
</g>
<!-- SignedIntegerType&#45;&gt;Int32 -->
<g id="edge16" class="edge">
<path fill="none" stroke="#cccccc" d="M650.564,-57.9883C645.71,-50.4379 638.911,-39.8611 633.056,-30.7543"/>
<polygon fill="#cccccc" stroke="#cccccc" points="635.976,-28.823 627.624,-22.3039 630.087,-32.6083 635.976,-28.823"/>
</g>
<!-- SignedIntegerType&#45;&gt;Int64 -->
<g id="edge17" class="edge">
<path fill="none" stroke="#cccccc" d="M663.436,-57.9883C668.29,-50.4379 675.089,-39.8611 680.944,-30.7543"/>
<polygon fill="#cccccc" stroke="#cccccc" points="683.913,-32.6083 686.376,-22.3039 678.024,-28.823 683.913,-32.6083"/>
</g>
<!-- SignedIntegerType&#45;&gt;Int8 -->
<g id="edge18" class="edge">
<path fill="none" stroke="#cccccc" d="M676.308,-57.9883C693.021,-49.3223 717.423,-36.6696 736.403,-26.8283"/>
<polygon fill="#cccccc" stroke="#cccccc" points="738.228,-29.8242 745.495,-22.1138 735.006,-23.6099 738.228,-29.8242"/>
</g>
<!-- Strideable&#45;&gt;Float80 -->
<g id="edge1" class="edge">
<path fill="none" stroke="#cccccc" d="M134.043,-231.82C116.768,-196.345 59.0361,-77.7884 36.3077,-31.114"/>
<polygon fill="#cccccc" stroke="#cccccc" points="39.4246,-29.5204 31.8998,-22.062 33.1312,-32.5851 39.4246,-29.5204"/>
</g>
<!-- Strideable&#45;&gt;FloatingPointType -->
<g id="edge2" class="edge">
<path fill="none" stroke="#cccccc" d="M139,-231.756C139,-204.097 139,-127.509 139,-90.5186"/>
<polygon fill="#cccccc" stroke="#cccccc" points="142.5,-90.408 139,-80.4081 135.5,-90.4081 142.5,-90.408"/>
</g>
<!-- Strideable&#45;&gt;RandomAccessIndexType -->
<g id="edge3" class="edge">
<path fill="none" stroke="#cccccc" d="M171.378,-239.261C269.864,-230.93 568.111,-205.701 715.994,-193.191"/>
<polygon fill="#cccccc" stroke="#cccccc" points="716.707,-196.643 726.376,-192.313 716.117,-189.668 716.707,-196.643"/>
</g>
<!-- UInt -->
<g id="node19" class="node">
<g id="a_node19"><a xlink:href="/v2.0/type/UInt/hierarchy/" target="_top">
<polygon fill="#999999" stroke="#999999" points="864,-22 810,-22 810,-0 864,-0 864,-22"/>
<text text-anchor="middle" x="837" y="-7.4" font-family="Helvetica,sans-Serif" font-size="12.00" fill="white">UInt</text>
</a>
</g>
</g>
<!-- UInt16 -->
<g id="node20" class="node">
<g id="a_node20"><a xlink:href="/v2.0/type/UInt16/hierarchy/" target="_top">
<polygon fill="#999999" stroke="#999999" points="936,-22 882,-22 882,-0 936,-0 936,-22"/>
<text text-anchor="middle" x="909" y="-7.4" font-family="Helvetica,sans-Serif" font-size="12.00" fill="white">UInt16</text>
</a>
</g>
</g>
<!-- UInt32 -->
<g id="node21" class="node">
<g id="a_node21"><a xlink:href="/v2.0/type/UInt32/hierarchy/" target="_top">
<polygon fill="#999999" stroke="#999999" points="1008,-22 954,-22 954,-0 1008,-0 1008,-22"/>
<text text-anchor="middle" x="981" y="-7.4" font-family="Helvetica,sans-Serif" font-size="12.00" fill="white">UInt32</text>
</a>
</g>
</g>
<!-- UInt64 -->
<g id="node22" class="node">
<g id="a_node22"><a xlink:href="/v2.0/type/UInt64/hierarchy/" target="_top">
<polygon fill="#999999" stroke="#999999" points="1080,-22 1026,-22 1026,-0 1080,-0 1080,-22"/>
<text text-anchor="middle" x="1053" y="-7.4" font-family="Helvetica,sans-Serif" font-size="12.00" fill="white">UInt64</text>
</a>
</g>
</g>
<!-- UInt8 -->
<g id="node23" class="node">
<g id="a_node23"><a xlink:href="/v2.0/type/UInt8/hierarchy/" target="_top">
<polygon fill="#999999" stroke="#999999" points="1152,-22 1098,-22 1098,-0 1152,-0 1152,-22"/>
<text text-anchor="middle" x="1125" y="-7.4" font-family="Helvetica,sans-Serif" font-size="12.00" fill="white">UInt8</text>
</a>
</g>
</g>
<!-- UnsignedIntegerType&#45;&gt;UInt -->
<g id="edge19" class="edge">
<path fill="none" stroke="#cccccc" d="M925.692,-57.9883C908.979,-49.3223 884.577,-36.6696 865.597,-26.8283"/>
<polygon fill="#cccccc" stroke="#cccccc" points="866.994,-23.6099 856.505,-22.1138 863.772,-29.8242 866.994,-23.6099"/>
</g>
<!-- UnsignedIntegerType&#45;&gt;UInt16 -->
<g id="edge20" class="edge">
<path fill="none" stroke="#cccccc" d="M938.564,-57.9883C933.71,-50.4379 926.911,-39.8611 921.056,-30.7543"/>
<polygon fill="#cccccc" stroke="#cccccc" points="923.976,-28.823 915.624,-22.3039 918.087,-32.6083 923.976,-28.823"/>
</g>
<!-- UnsignedIntegerType&#45;&gt;UInt32 -->
<g id="edge21" class="edge">
<path fill="none" stroke="#cccccc" d="M951.436,-57.9883C956.29,-50.4379 963.089,-39.8611 968.944,-30.7543"/>
<polygon fill="#cccccc" stroke="#cccccc" points="971.913,-32.6083 974.376,-22.3039 966.024,-28.823 971.913,-32.6083"/>
</g>
<!-- UnsignedIntegerType&#45;&gt;UInt64 -->
<g id="edge22" class="edge">
<path fill="none" stroke="#cccccc" d="M964.308,-57.9883C981.021,-49.3223 1005.42,-36.6696 1024.4,-26.8283"/>
<polygon fill="#cccccc" stroke="#cccccc" points="1026.23,-29.8242 1033.49,-22.1138 1023.01,-23.6099 1026.23,-29.8242"/>
</g>
<!-- UnsignedIntegerType&#45;&gt;UInt8 -->
<g id="edge23" class="edge">
<path fill="none" stroke="#cccccc" d="M977.18,-57.9883C1008.34,-48.2947 1055.53,-33.6128 1088.17,-23.4573"/>
<polygon fill="#cccccc" stroke="#cccccc" points="1089.29,-26.7742 1097.8,-20.4615 1087.21,-20.0902 1089.29,-26.7742"/>
</g>
<!-- _Strideable -->
<g id="node27" class="node">
<g id="a_node27"><a xlink:href="/v2.0/protocol/_Strideable/hierarchy/" target="_top">
<path fill="#999999" stroke="#999999" d="M212.7,-312C212.7,-312 157.3,-312 157.3,-312 153.634,-312 149.967,-308.333 149.967,-304.667 149.967,-304.667 149.967,-297.333 149.967,-297.333 149.967,-293.667 153.634,-290 157.3,-290 157.3,-290 212.7,-290 212.7,-290 216.366,-290 220.033,-293.667 220.033,-297.333 220.033,-297.333 220.033,-304.667 220.033,-304.667 220.033,-308.333 216.366,-312 212.7,-312"/>
<text text-anchor="middle" x="185" y="-297.4" font-family="Helvetica,sans-Serif" font-size="12.00" fill="white">_Strideable</text>
</a>
</g>
</g>
<!-- _Strideable&#45;&gt;Strideable -->
<g id="edge25" class="edge">
<path fill="none" stroke="#cccccc" d="M176.776,-289.988C170.445,-282.281 161.523,-271.419 153.939,-262.187"/>
<polygon fill="#cccccc" stroke="#cccccc" points="156.516,-259.81 147.464,-254.304 151.107,-264.253 156.516,-259.81"/>
</g>
</g>
</svg>
