<?xml version="1.0" encoding="UTF-8" standalone="no"?>
<!DOCTYPE svg PUBLIC "-//W3C//DTD SVG 1.1//EN"
 "http://www.w3.org/Graphics/SVG/1.1/DTD/svg11.dtd">
<!-- Generated by graphviz version 2.36.0 (20140111.2315)
 -->
<!-- Title: Float80 &#45; Type Hierarchy &#45; SwiftDoc.org Pages: 1 -->
<svg width="751pt" height="369pt"
 viewBox="0.00 0.00 751.40 369.20" xmlns="http://www.w3.org/2000/svg" xmlns:xlink="http://www.w3.org/1999/xlink">
<g id="graph0" class="graph" transform="scale(1 1) rotate(0) translate(7.2 311.6)">
<title>Float80 &#45; Type Hierarchy &#45; SwiftDoc.org</title>
<polygon fill="white" stroke="none" points="-7.2,57.6 -7.2,-311.6 744.2,-311.6 744.2,57.6 -7.2,57.6"/>
<!-- AbsoluteValuable -->
<g id="node1" class="node"><title>AbsoluteValuable</title>
<g id="a_node1"><a xlink:href="/protocol/AbsoluteValuable/" xlink:title="AbsoluteValuable">
<path fill="#999999" stroke="#999999" d="M147.558,-80C147.558,-80 60.442,-80 60.442,-80 56.7753,-80 53.1086,-76.3333 53.1086,-72.6667 53.1086,-72.6667 53.1086,-65.3333 53.1086,-65.3333 53.1086,-61.6667 56.7753,-58 60.442,-58 60.442,-58 147.558,-58 147.558,-58 151.225,-58 154.891,-61.6667 154.891,-65.3333 154.891,-65.3333 154.891,-72.6667 154.891,-72.6667 154.891,-76.3333 151.225,-80 147.558,-80"/>
<text text-anchor="middle" x="104" y="-65.4" font-family="Helvetica,sans-Serif" font-size="12.00" fill="white">AbsoluteValuable</text>
</a>
</g>
</g>
<!-- Float80 -->
<g id="node5" class="node"><title>Float80</title>
<g id="a_node5"><a xlink:href="/type/Float80/" xlink:title="Float80">
<polygon fill="#ee543d" stroke="#ee543d" points="338,-22 284,-22 284,-0 338,-0 338,-22"/>
<text text-anchor="middle" x="311" y="-7.4" font-family="Helvetica,sans-Serif" font-size="12.00" fill="white">Float80</text>
</a>
</g>
</g>
<!-- AbsoluteValuable&#45;&gt;Float80 -->
<g id="edge7" class="edge"><title>AbsoluteValuable&#45;&gt;Float80</title>
<path fill="none" stroke="#cccccc" d="M141.007,-57.9883C178.53,-47.8373 236.273,-32.2161 273.847,-22.051"/>
<polygon fill="#cccccc" stroke="#cccccc" points="275.138,-25.3277 283.877,-19.3376 273.31,-18.5706 275.138,-25.3277"/>
</g>
<!-- Comparable -->
<g id="node2" class="node"><title>Comparable</title>
<g id="a_node2"><a xlink:href="/protocol/Comparable/" xlink:title="Comparable">
<path fill="#999999" stroke="#999999" d="M337.191,-196C337.191,-196 276.809,-196 276.809,-196 273.142,-196 269.475,-192.333 269.475,-188.667 269.475,-188.667 269.475,-181.333 269.475,-181.333 269.475,-177.667 273.142,-174 276.809,-174 276.809,-174 337.191,-174 337.191,-174 340.858,-174 344.525,-177.667 344.525,-181.333 344.525,-181.333 344.525,-188.667 344.525,-188.667 344.525,-192.333 340.858,-196 337.191,-196"/>
<text text-anchor="middle" x="307" y="-181.4" font-family="Helvetica,sans-Serif" font-size="12.00" fill="white">Comparable</text>
</a>
</g>
</g>
<!-- Comparable&#45;&gt;Float80 -->
<g id="edge4" class="edge"><title>Comparable&#45;&gt;Float80</title>
<path fill="none" stroke="#cccccc" d="M309.833,-173.875C315.46,-152.481 327.082,-101.1 322,-58 320.982,-49.3661 318.925,-40.0057 316.862,-31.9965"/>
<polygon fill="#cccccc" stroke="#cccccc" points="320.168,-30.8215 314.142,-22.1076 313.419,-32.6777 320.168,-30.8215"/>
</g>
<!-- SignedNumberType -->
<g id="node9" class="node"><title>SignedNumberType</title>
<g id="a_node9"><a xlink:href="/protocol/SignedNumberType/" xlink:title="SignedNumberType">
<path fill="#999999" stroke="#999999" d="M164.716,-138C164.716,-138 63.2835,-138 63.2835,-138 59.6169,-138 55.9502,-134.333 55.9502,-130.667 55.9502,-130.667 55.9502,-123.333 55.9502,-123.333 55.9502,-119.667 59.6169,-116 63.2835,-116 63.2835,-116 164.716,-116 164.716,-116 168.383,-116 172.05,-119.667 172.05,-123.333 172.05,-123.333 172.05,-130.667 172.05,-130.667 172.05,-134.333 168.383,-138 164.716,-138"/>
<text text-anchor="middle" x="114" y="-123.4" font-family="Helvetica,sans-Serif" font-size="12.00" fill="white">SignedNumberType</text>
</a>
</g>
</g>
<!-- Comparable&#45;&gt;SignedNumberType -->
<g id="edge14" class="edge"><title>Comparable&#45;&gt;SignedNumberType</title>
<path fill="none" stroke="#cccccc" d="M272.495,-173.988C240.621,-164.74 193.096,-150.95 158.402,-140.884"/>
<polygon fill="#cccccc" stroke="#cccccc" points="159.11,-137.445 148.531,-138.019 157.159,-144.167 159.11,-137.445"/>
</g>
<!-- Strideable -->
<g id="node10" class="node"><title>Strideable</title>
<g id="a_node10"><a xlink:href="/protocol/Strideable/" xlink:title="Strideable">
<path fill="#999999" stroke="#999999" d="M305.693,-80C305.693,-80 256.307,-80 256.307,-80 252.64,-80 248.974,-76.3333 248.974,-72.6667 248.974,-72.6667 248.974,-65.3333 248.974,-65.3333 248.974,-61.6667 252.64,-58 256.307,-58 256.307,-58 305.693,-58 305.693,-58 309.36,-58 313.026,-61.6667 313.026,-65.3333 313.026,-65.3333 313.026,-72.6667 313.026,-72.6667 313.026,-76.3333 309.36,-80 305.693,-80"/>
<text text-anchor="middle" x="281" y="-65.4" font-family="Helvetica,sans-Serif" font-size="12.00" fill="white">Strideable</text>
</a>
</g>
</g>
<!-- Comparable&#45;&gt;Strideable -->
<g id="edge16" class="edge"><title>Comparable&#45;&gt;Strideable</title>
<path fill="none" stroke="#cccccc" d="M304.693,-173.883C300.425,-155.17 291.224,-114.827 285.627,-90.2866"/>
<polygon fill="#cccccc" stroke="#cccccc" points="288.976,-89.2293 283.34,-80.2579 282.151,-90.7859 288.976,-89.2293"/>
</g>
<!-- CustomStringConvertible -->
<g id="node3" class="node"><title>CustomStringConvertible</title>
<g id="a_node3"><a xlink:href="/protocol/CustomStringConvertible/" xlink:title="CustomStringConvertible">
<path fill="#999999" stroke="#999999" d="M581.208,-80C581.208,-80 452.792,-80 452.792,-80 449.126,-80 445.459,-76.3333 445.459,-72.6667 445.459,-72.6667 445.459,-65.3333 445.459,-65.3333 445.459,-61.6667 449.126,-58 452.792,-58 452.792,-58 581.208,-58 581.208,-58 584.874,-58 588.541,-61.6667 588.541,-65.3333 588.541,-65.3333 588.541,-72.6667 588.541,-72.6667 588.541,-76.3333 584.874,-80 581.208,-80"/>
<text text-anchor="middle" x="517" y="-65.4" font-family="Helvetica,sans-Serif" font-size="12.00" fill="white">CustomStringConvertible</text>
</a>
</g>
</g>
<!-- CustomStringConvertible&#45;&gt;Float80 -->
<g id="edge1" class="edge"><title>CustomStringConvertible&#45;&gt;Float80</title>
<path fill="none" stroke="#cccccc" d="M480.171,-57.9883C442.936,-47.866 385.692,-32.3046 348.292,-22.1375"/>
<polygon fill="#cccccc" stroke="#cccccc" points="348.87,-18.6678 338.302,-19.4219 347.034,-25.4227 348.87,-18.6678"/>
</g>
<!-- Equatable -->
<g id="node4" class="node"><title>Equatable</title>
<g id="a_node4"><a xlink:href="/protocol/Equatable/" xlink:title="Equatable">
<path fill="#999999" stroke="#999999" d="M403.702,-254C403.702,-254 354.298,-254 354.298,-254 350.632,-254 346.965,-250.333 346.965,-246.667 346.965,-246.667 346.965,-239.333 346.965,-239.333 346.965,-235.667 350.632,-232 354.298,-232 354.298,-232 403.702,-232 403.702,-232 407.368,-232 411.035,-235.667 411.035,-239.333 411.035,-239.333 411.035,-246.667 411.035,-246.667 411.035,-250.333 407.368,-254 403.702,-254"/>
<text text-anchor="middle" x="379" y="-239.4" font-family="Helvetica,sans-Serif" font-size="12.00" fill="white">Equatable</text>
</a>
</g>
</g>
<!-- Equatable&#45;&gt;Comparable -->
<g id="edge11" class="edge"><title>Equatable&#45;&gt;Comparable</title>
<path fill="none" stroke="#cccccc" d="M366.128,-231.988C355.611,-223.809 340.528,-212.077 328.228,-202.511"/>
<polygon fill="#cccccc" stroke="#cccccc" points="330.29,-199.681 320.248,-196.304 325.993,-205.206 330.29,-199.681"/>
</g>
<!-- Equatable&#45;&gt;Float80 -->
<g id="edge5" class="edge"><title>Equatable&#45;&gt;Float80</title>
<path fill="none" stroke="#cccccc" d="M377.72,-231.723C373.955,-203.302 361.609,-121.555 337,-58 333.381,-48.6541 328.116,-38.9075 323.268,-30.8042"/>
<polygon fill="#cccccc" stroke="#cccccc" points="326.149,-28.8093 317.894,-22.1691 320.207,-32.5084 326.149,-28.8093"/>
</g>
<!-- Hashable -->
<g id="node7" class="node"><title>Hashable</title>
<g id="a_node7"><a xlink:href="/protocol/Hashable/" xlink:title="Hashable">
<path fill="#999999" stroke="#999999" d="M459.694,-138C459.694,-138 414.306,-138 414.306,-138 410.639,-138 406.973,-134.333 406.973,-130.667 406.973,-130.667 406.973,-123.333 406.973,-123.333 406.973,-119.667 410.639,-116 414.306,-116 414.306,-116 459.694,-116 459.694,-116 463.361,-116 467.027,-119.667 467.027,-123.333 467.027,-123.333 467.027,-130.667 467.027,-130.667 467.027,-134.333 463.361,-138 459.694,-138"/>
<text text-anchor="middle" x="437" y="-123.4" font-family="Helvetica,sans-Serif" font-size="12.00" fill="white">Hashable</text>
</a>
</g>
</g>
<!-- Equatable&#45;&gt;Hashable -->
<g id="edge12" class="edge"><title>Equatable&#45;&gt;Hashable</title>
<path fill="none" stroke="#cccccc" d="M384.147,-231.883C393.796,-212.917 414.75,-171.732 427.18,-147.3"/>
<polygon fill="#cccccc" stroke="#cccccc" points="430.366,-148.758 431.781,-138.258 424.127,-145.584 430.366,-148.758"/>
</g>
<!-- FloatLiteralConvertible -->
<g id="node6" class="node"><title>FloatLiteralConvertible</title>
<g id="a_node6"><a xlink:href="/protocol/FloatLiteralConvertible/" xlink:title="FloatLiteralConvertible">
<path fill="#999999" stroke="#999999" d="M729.711,-80C729.711,-80 614.289,-80 614.289,-80 610.623,-80 606.956,-76.3333 606.956,-72.6667 606.956,-72.6667 606.956,-65.3333 606.956,-65.3333 606.956,-61.6667 610.623,-58 614.289,-58 614.289,-58 729.711,-58 729.711,-58 733.377,-58 737.044,-61.6667 737.044,-65.3333 737.044,-65.3333 737.044,-72.6667 737.044,-72.6667 737.044,-76.3333 733.377,-80 729.711,-80"/>
<text text-anchor="middle" x="672" y="-65.4" font-family="Helvetica,sans-Serif" font-size="12.00" fill="white">FloatLiteralConvertible</text>
</a>
</g>
</g>
<!-- FloatLiteralConvertible&#45;&gt;Float80 -->
<g id="edge3" class="edge"><title>FloatLiteralConvertible&#45;&gt;Float80</title>
<path fill="none" stroke="#cccccc" d="M607.46,-57.9883C531.925,-46.2709 409.405,-27.265 348.23,-17.7752"/>
<polygon fill="#cccccc" stroke="#cccccc" points="348.668,-14.3014 338.249,-16.227 347.595,-21.2187 348.668,-14.3014"/>
</g>
<!-- Hashable&#45;&gt;Float80 -->
<g id="edge6" class="edge"><title>Hashable&#45;&gt;Float80</title>
<path fill="none" stroke="#cccccc" d="M432.317,-115.68C425.392,-101.315 411.248,-75.1316 393,-58 379.203,-45.0469 361.084,-34.3915 345.389,-26.6094"/>
<polygon fill="#cccccc" stroke="#cccccc" points="346.523,-23.2734 335.989,-22.1404 343.517,-29.5953 346.523,-23.2734"/>
</g>
<!-- IntegerLiteralConvertible -->
<g id="node8" class="node"><title>IntegerLiteralConvertible</title>
<g id="a_node8"><a xlink:href="/protocol/IntegerLiteralConvertible/" xlink:title="IntegerLiteralConvertible">
<path fill="#999999" stroke="#999999" d="M132.722,-196C132.722,-196 7.27758,-196 7.27758,-196 3.61091,-196 -0.055756,-192.333 -0.055756,-188.667 -0.055756,-188.667 -0.055756,-181.333 -0.055756,-181.333 -0.055756,-177.667 3.61091,-174 7.27758,-174 7.27758,-174 132.722,-174 132.722,-174 136.389,-174 140.056,-177.667 140.056,-181.333 140.056,-181.333 140.056,-188.667 140.056,-188.667 140.056,-192.333 136.389,-196 132.722,-196"/>
<text text-anchor="middle" x="70" y="-181.4" font-family="Helvetica,sans-Serif" font-size="12.00" fill="white">IntegerLiteralConvertible</text>
</a>
</g>
</g>
<!-- IntegerLiteralConvertible&#45;&gt;Float80 -->
<g id="edge2" class="edge"><title>IntegerLiteralConvertible&#45;&gt;Float80</title>
<path fill="none" stroke="#cccccc" d="M62.91,-173.806C47.5993,-150.429 15.0746,-92.335 44,-58 72.9104,-23.6829 207.033,-14.9672 273.483,-12.7536"/>
<polygon fill="#cccccc" stroke="#cccccc" points="273.65,-16.2502 283.541,-12.4512 273.44,-9.25339 273.65,-16.2502"/>
</g>
<!-- IntegerLiteralConvertible&#45;&gt;SignedNumberType -->
<g id="edge15" class="edge"><title>IntegerLiteralConvertible&#45;&gt;SignedNumberType</title>
<path fill="none" stroke="#cccccc" d="M77.8663,-173.988C83.9224,-166.281 92.4564,-155.419 99.7102,-146.187"/>
<polygon fill="#cccccc" stroke="#cccccc" points="102.478,-148.329 105.904,-138.304 96.9737,-144.005 102.478,-148.329"/>
</g>
<!-- SignedNumberType&#45;&gt;AbsoluteValuable -->
<g id="edge13" class="edge"><title>SignedNumberType&#45;&gt;AbsoluteValuable</title>
<path fill="none" stroke="#cccccc" d="M112.212,-115.988C110.934,-108.831 109.17,-98.9547 107.605,-90.1885"/>
<polygon fill="#cccccc" stroke="#cccccc" points="111.043,-89.5329 105.84,-80.3039 104.152,-90.7634 111.043,-89.5329"/>
</g>
<!-- SignedNumberType&#45;&gt;Float80 -->
<g id="edge8" class="edge"><title>SignedNumberType&#45;&gt;Float80</title>
<path fill="none" stroke="#cccccc" d="M130.69,-115.97C153.003,-102.598 193.828,-78.2606 229,-58 247.209,-47.5111 267.84,-35.939 283.853,-27.0254"/>
<polygon fill="#cccccc" stroke="#cccccc" points="285.653,-30.0293 292.694,-22.1128 282.253,-23.9104 285.653,-30.0293"/>
</g>
<!-- Strideable&#45;&gt;Float80 -->
<g id="edge9" class="edge"><title>Strideable&#45;&gt;Float80</title>
<path fill="none" stroke="#cccccc" d="M286.363,-57.9883C290.324,-50.5952 295.839,-40.3005 300.647,-31.3253"/>
<polygon fill="#cccccc" stroke="#cccccc" points="303.843,-32.7715 305.48,-22.3039 297.673,-29.4659 303.843,-32.7715"/>
</g>
<!-- _Strideable -->
<g id="node11" class="node"><title>_Strideable</title>
<g id="a_node11"><a xlink:href="/protocol/_Strideable/" xlink:title="_Strideable">
<path fill="#999999" stroke="#999999" d="M261.7,-138C261.7,-138 206.3,-138 206.3,-138 202.634,-138 198.967,-134.333 198.967,-130.667 198.967,-130.667 198.967,-123.333 198.967,-123.333 198.967,-119.667 202.634,-116 206.3,-116 206.3,-116 261.7,-116 261.7,-116 265.366,-116 269.033,-119.667 269.033,-123.333 269.033,-123.333 269.033,-130.667 269.033,-130.667 269.033,-134.333 265.366,-138 261.7,-138"/>
<text text-anchor="middle" x="234" y="-123.4" font-family="Helvetica,sans-Serif" font-size="12.00" fill="white">_Strideable</text>
</a>
</g>
</g>
<!-- _Strideable&#45;&gt;Float80 -->
<g id="edge10" class="edge"><title>_Strideable&#45;&gt;Float80</title>
<path fill="none" stroke="#cccccc" d="M232.301,-115.942C230.468,-101.888 229.119,-76.0726 240,-58 248.187,-44.4029 262.113,-34.0885 275.475,-26.7082"/>
<polygon fill="#cccccc" stroke="#cccccc" points="277.248,-29.7327 284.557,-22.0632 274.06,-23.5004 277.248,-29.7327"/>
</g>
<!-- _Strideable&#45;&gt;Strideable -->
<g id="edge17" class="edge"><title>_Strideable&#45;&gt;Strideable</title>
<path fill="none" stroke="#cccccc" d="M242.403,-115.988C248.872,-108.281 257.988,-97.4191 265.736,-88.187"/>
<polygon fill="#cccccc" stroke="#cccccc" points="268.604,-90.2137 272.352,-80.3039 263.242,-85.7136 268.604,-90.2137"/>
</g>
</g>
</svg>
