<?xml version="1.0" encoding="UTF-8" standalone="no"?>
<!DOCTYPE svg PUBLIC "-//W3C//DTD SVG 1.1//EN"
 "http://www.w3.org/Graphics/SVG/1.1/DTD/svg11.dtd">
<!-- Generated by graphviz version 2.36.0 (20140111.2315)
 -->
<!-- Title: _SignedIntegerType &#45; Type Hierarchy &#45; SwiftDoc.org Pages: 1 -->
<svg width="704pt" height="485pt"
 viewBox="0.00 0.00 704.40 485.20" xmlns="http://www.w3.org/2000/svg" xmlns:xlink="http://www.w3.org/1999/xlink">
<g id="graph0" class="graph" transform="scale(1 1) rotate(0) translate(7.2 427.6)">
<title>_SignedIntegerType &#45; Type Hierarchy &#45; SwiftDoc.org</title>
<polygon fill="white" stroke="none" points="-7.2,57.6 -7.2,-427.6 697.2,-427.6 697.2,57.6 -7.2,57.6"/>
<!-- Bit -->
<g id="node1" class="node"><title>Bit</title>
<g id="a_node1"><a xlink:href="/type/Bit/" xlink:title="Bit">
<polygon fill="#999999" stroke="#999999" points="126,-22 72,-22 72,-0 126,-0 126,-22"/>
<text text-anchor="middle" x="99" y="-7.4" font-family="Helvetica,sans-Serif" font-size="12.00" fill="white">Bit</text>
</a>
</g>
</g>
<!-- BitwiseOperationsType -->
<g id="node2" class="node"><title>BitwiseOperationsType</title>
<g id="a_node2"><a xlink:href="/protocol/BitwiseOperationsType/" xlink:title="BitwiseOperationsType">
<path fill="#999999" stroke="#999999" d="M643.715,-254C643.715,-254 526.285,-254 526.285,-254 522.618,-254 518.952,-250.333 518.952,-246.667 518.952,-246.667 518.952,-239.333 518.952,-239.333 518.952,-235.667 522.618,-232 526.285,-232 526.285,-232 643.715,-232 643.715,-232 647.382,-232 651.048,-235.667 651.048,-239.333 651.048,-239.333 651.048,-246.667 651.048,-246.667 651.048,-250.333 647.382,-254 643.715,-254"/>
<text text-anchor="middle" x="585" y="-239.4" font-family="Helvetica,sans-Serif" font-size="12.00" fill="white">BitwiseOperationsType</text>
</a>
</g>
</g>
<!-- _IntegerType -->
<g id="node18" class="node"><title>_IntegerType</title>
<g id="a_node18"><a xlink:href="/protocol/_IntegerType/" xlink:title="_IntegerType">
<path fill="#999999" stroke="#999999" d="M432.708,-196C432.708,-196 367.292,-196 367.292,-196 363.626,-196 359.959,-192.333 359.959,-188.667 359.959,-188.667 359.959,-181.333 359.959,-181.333 359.959,-177.667 363.626,-174 367.292,-174 367.292,-174 432.708,-174 432.708,-174 436.374,-174 440.041,-177.667 440.041,-181.333 440.041,-181.333 440.041,-188.667 440.041,-188.667 440.041,-192.333 436.374,-196 432.708,-196"/>
<text text-anchor="middle" x="400" y="-181.4" font-family="Helvetica,sans-Serif" font-size="12.00" fill="white">_IntegerType</text>
</a>
</g>
</g>
<!-- BitwiseOperationsType&#45;&gt;_IntegerType -->
<g id="edge19" class="edge"><title>BitwiseOperationsType&#45;&gt;_IntegerType</title>
<path fill="none" stroke="#cccccc" d="M551.926,-231.988C521.503,-222.779 476.208,-209.068 442.991,-199.013"/>
<polygon fill="#cccccc" stroke="#cccccc" points="443.684,-195.567 433.099,-196.019 441.656,-202.266 443.684,-195.567"/>
</g>
<!-- Comparable -->
<g id="node3" class="node"><title>Comparable</title>
<g id="a_node3"><a xlink:href="/protocol/Comparable/" xlink:title="Comparable">
<path fill="#999999" stroke="#999999" d="M308.191,-312C308.191,-312 247.809,-312 247.809,-312 244.142,-312 240.475,-308.333 240.475,-304.667 240.475,-304.667 240.475,-297.333 240.475,-297.333 240.475,-293.667 244.142,-290 247.809,-290 247.809,-290 308.191,-290 308.191,-290 311.858,-290 315.525,-293.667 315.525,-297.333 315.525,-297.333 315.525,-304.667 315.525,-304.667 315.525,-308.333 311.858,-312 308.191,-312"/>
<text text-anchor="middle" x="278" y="-297.4" font-family="Helvetica,sans-Serif" font-size="12.00" fill="white">Comparable</text>
</a>
</g>
</g>
<!-- IntegerArithmeticType -->
<g id="node12" class="node"><title>IntegerArithmeticType</title>
<g id="a_node12"><a xlink:href="/protocol/IntegerArithmeticType/" xlink:title="IntegerArithmeticType">
<path fill="#999999" stroke="#999999" d="M455.711,-254C455.711,-254 344.289,-254 344.289,-254 340.623,-254 336.956,-250.333 336.956,-246.667 336.956,-246.667 336.956,-239.333 336.956,-239.333 336.956,-235.667 340.623,-232 344.289,-232 344.289,-232 455.711,-232 455.711,-232 459.377,-232 463.044,-235.667 463.044,-239.333 463.044,-239.333 463.044,-246.667 463.044,-246.667 463.044,-250.333 459.377,-254 455.711,-254"/>
<text text-anchor="middle" x="400" y="-239.4" font-family="Helvetica,sans-Serif" font-size="12.00" fill="white">IntegerArithmeticType</text>
</a>
</g>
</g>
<!-- Comparable&#45;&gt;IntegerArithmeticType -->
<g id="edge23" class="edge"><title>Comparable&#45;&gt;IntegerArithmeticType</title>
<path fill="none" stroke="#cccccc" d="M299.811,-289.988C319.036,-281.164 347.265,-268.206 368.864,-258.292"/>
<polygon fill="#cccccc" stroke="#cccccc" points="370.338,-261.466 377.966,-254.114 367.418,-255.105 370.338,-261.466"/>
</g>
<!-- SignedNumberType -->
<g id="node15" class="node"><title>SignedNumberType</title>
<g id="a_node15"><a xlink:href="/protocol/SignedNumberType/" xlink:title="SignedNumberType">
<path fill="#999999" stroke="#999999" d="M137.716,-196C137.716,-196 36.2835,-196 36.2835,-196 32.6169,-196 28.9502,-192.333 28.9502,-188.667 28.9502,-188.667 28.9502,-181.333 28.9502,-181.333 28.9502,-177.667 32.6169,-174 36.2835,-174 36.2835,-174 137.716,-174 137.716,-174 141.383,-174 145.05,-177.667 145.05,-181.333 145.05,-181.333 145.05,-188.667 145.05,-188.667 145.05,-192.333 141.383,-196 137.716,-196"/>
<text text-anchor="middle" x="87" y="-181.4" font-family="Helvetica,sans-Serif" font-size="12.00" fill="white">SignedNumberType</text>
</a>
</g>
</g>
<!-- Comparable&#45;&gt;SignedNumberType -->
<g id="edge26" class="edge"><title>Comparable&#45;&gt;SignedNumberType</title>
<path fill="none" stroke="#cccccc" d="M240.548,-299.329C173.527,-297.251 37.3282,-288.747 8,-254 -9.775,-232.941 21.5526,-212.873 49.854,-200.07"/>
<polygon fill="#cccccc" stroke="#cccccc" points="51.4626,-203.188 59.2605,-196.016 48.6918,-196.76 51.4626,-203.188"/>
</g>
<!-- CustomStringConvertible -->
<g id="node4" class="node"><title>CustomStringConvertible</title>
<g id="a_node4"><a xlink:href="/protocol/CustomStringConvertible/" xlink:title="CustomStringConvertible">
<path fill="#999999" stroke="#999999" d="M311.208,-254C311.208,-254 182.792,-254 182.792,-254 179.126,-254 175.459,-250.333 175.459,-246.667 175.459,-246.667 175.459,-239.333 175.459,-239.333 175.459,-235.667 179.126,-232 182.792,-232 182.792,-232 311.208,-232 311.208,-232 314.874,-232 318.541,-235.667 318.541,-239.333 318.541,-239.333 318.541,-246.667 318.541,-246.667 318.541,-250.333 314.874,-254 311.208,-254"/>
<text text-anchor="middle" x="247" y="-239.4" font-family="Helvetica,sans-Serif" font-size="12.00" fill="white">CustomStringConvertible</text>
</a>
</g>
</g>
<!-- CustomStringConvertible&#45;&gt;_IntegerType -->
<g id="edge16" class="edge"><title>CustomStringConvertible&#45;&gt;_IntegerType</title>
<path fill="none" stroke="#cccccc" d="M274.353,-231.988C299.08,-222.938 335.685,-209.54 363.016,-199.537"/>
<polygon fill="#cccccc" stroke="#cccccc" points="364.438,-202.743 372.626,-196.019 362.032,-196.17 364.438,-202.743"/>
</g>
<!-- Equatable -->
<g id="node5" class="node"><title>Equatable</title>
<g id="a_node5"><a xlink:href="/protocol/Equatable/" xlink:title="Equatable">
<path fill="#999999" stroke="#999999" d="M539.702,-370C539.702,-370 490.298,-370 490.298,-370 486.632,-370 482.965,-366.333 482.965,-362.667 482.965,-362.667 482.965,-355.333 482.965,-355.333 482.965,-351.667 486.632,-348 490.298,-348 490.298,-348 539.702,-348 539.702,-348 543.368,-348 547.035,-351.667 547.035,-355.333 547.035,-355.333 547.035,-362.667 547.035,-362.667 547.035,-366.333 543.368,-370 539.702,-370"/>
<text text-anchor="middle" x="515" y="-355.4" font-family="Helvetica,sans-Serif" font-size="12.00" fill="white">Equatable</text>
</a>
</g>
</g>
<!-- Equatable&#45;&gt;Comparable -->
<g id="edge24" class="edge"><title>Equatable&#45;&gt;Comparable</title>
<path fill="none" stroke="#cccccc" d="M482.543,-350.331C441.914,-340.731 372.006,-324.212 325.393,-313.198"/>
<polygon fill="#cccccc" stroke="#cccccc" points="326.066,-309.761 315.529,-310.868 324.456,-316.573 326.066,-309.761"/>
</g>
<!-- Hashable -->
<g id="node6" class="node"><title>Hashable</title>
<g id="a_node6"><a xlink:href="/protocol/Hashable/" xlink:title="Hashable">
<path fill="#999999" stroke="#999999" d="M537.694,-312C537.694,-312 492.306,-312 492.306,-312 488.639,-312 484.973,-308.333 484.973,-304.667 484.973,-304.667 484.973,-297.333 484.973,-297.333 484.973,-293.667 488.639,-290 492.306,-290 492.306,-290 537.694,-290 537.694,-290 541.361,-290 545.027,-293.667 545.027,-297.333 545.027,-297.333 545.027,-304.667 545.027,-304.667 545.027,-308.333 541.361,-312 537.694,-312"/>
<text text-anchor="middle" x="515" y="-297.4" font-family="Helvetica,sans-Serif" font-size="12.00" fill="white">Hashable</text>
</a>
</g>
</g>
<!-- Equatable&#45;&gt;Hashable -->
<g id="edge21" class="edge"><title>Equatable&#45;&gt;Hashable</title>
<path fill="none" stroke="#cccccc" d="M515,-347.988C515,-340.91 515,-331.171 515,-322.478"/>
<polygon fill="#cccccc" stroke="#cccccc" points="518.5,-322.304 515,-312.304 511.5,-322.304 518.5,-322.304"/>
</g>
<!-- _Incrementable -->
<g id="node16" class="node"><title>_Incrementable</title>
<g id="a_node16"><a xlink:href="/protocol/_Incrementable/" xlink:title="_Incrementable">
<path fill="#999999" stroke="#999999" d="M682.705,-312C682.705,-312 605.295,-312 605.295,-312 601.628,-312 597.961,-308.333 597.961,-304.667 597.961,-304.667 597.961,-297.333 597.961,-297.333 597.961,-293.667 601.628,-290 605.295,-290 605.295,-290 682.705,-290 682.705,-290 686.372,-290 690.039,-293.667 690.039,-297.333 690.039,-297.333 690.039,-304.667 690.039,-304.667 690.039,-308.333 686.372,-312 682.705,-312"/>
<text text-anchor="middle" x="644" y="-297.4" font-family="Helvetica,sans-Serif" font-size="12.00" fill="white">_Incrementable</text>
</a>
</g>
</g>
<!-- Equatable&#45;&gt;_Incrementable -->
<g id="edge25" class="edge"><title>Equatable&#45;&gt;_Incrementable</title>
<path fill="none" stroke="#cccccc" d="M538.063,-347.988C558.481,-339.124 588.508,-326.09 611.384,-316.159"/>
<polygon fill="#cccccc" stroke="#cccccc" points="612.923,-319.306 620.702,-312.114 610.135,-312.885 612.923,-319.306"/>
</g>
<!-- Hashable&#45;&gt;_IntegerType -->
<g id="edge17" class="edge"><title>Hashable&#45;&gt;_IntegerType</title>
<path fill="none" stroke="#cccccc" d="M510.342,-289.816C503.477,-275.613 489.54,-249.622 472,-232 459.639,-219.581 443.356,-208.829 429.401,-200.85"/>
<polygon fill="#cccccc" stroke="#cccccc" points="431.08,-197.779 420.632,-196.017 427.701,-203.909 431.08,-197.779"/>
</g>
<!-- Int -->
<g id="node7" class="node"><title>Int</title>
<g id="a_node7"><a xlink:href="/type/Int/" xlink:title="Int">
<polygon fill="#999999" stroke="#999999" points="54,-22 0,-22 0,-0 54,-0 54,-22"/>
<text text-anchor="middle" x="27" y="-7.4" font-family="Helvetica,sans-Serif" font-size="12.00" fill="white">Int</text>
</a>
</g>
</g>
<!-- Int&#45;&gt;Bit -->
<g id="edge7" class="edge"><title>Int&#45;&gt;Bit</title>
<path fill="none" stroke="#cccccc" d="M54.2812,-11C56.7377,-11 59.1942,-11 61.6507,-11"/>
<polygon fill="#cccccc" stroke="#cccccc" points="61.7495,-14.5001 71.7495,-11 61.7495,-7.5001 61.7495,-14.5001"/>
</g>
<!-- Int16 -->
<g id="node8" class="node"><title>Int16</title>
<g id="a_node8"><a xlink:href="/type/Int16/" xlink:title="Int16">
<polygon fill="#999999" stroke="#999999" points="198,-22 144,-22 144,-0 198,-0 198,-22"/>
<text text-anchor="middle" x="171" y="-7.4" font-family="Helvetica,sans-Serif" font-size="12.00" fill="white">Int16</text>
</a>
</g>
</g>
<!-- Int32 -->
<g id="node9" class="node"><title>Int32</title>
<g id="a_node9"><a xlink:href="/type/Int32/" xlink:title="Int32">
<polygon fill="#999999" stroke="#999999" points="270,-22 216,-22 216,-0 270,-0 270,-22"/>
<text text-anchor="middle" x="243" y="-7.4" font-family="Helvetica,sans-Serif" font-size="12.00" fill="white">Int32</text>
</a>
</g>
</g>
<!-- Int64 -->
<g id="node10" class="node"><title>Int64</title>
<g id="a_node10"><a xlink:href="/type/Int64/" xlink:title="Int64">
<polygon fill="#999999" stroke="#999999" points="342,-22 288,-22 288,-0 342,-0 342,-22"/>
<text text-anchor="middle" x="315" y="-7.4" font-family="Helvetica,sans-Serif" font-size="12.00" fill="white">Int64</text>
</a>
</g>
</g>
<!-- Int8 -->
<g id="node11" class="node"><title>Int8</title>
<g id="a_node11"><a xlink:href="/type/Int8/" xlink:title="Int8">
<polygon fill="#999999" stroke="#999999" points="414,-22 360,-22 360,-0 414,-0 414,-22"/>
<text text-anchor="middle" x="387" y="-7.4" font-family="Helvetica,sans-Serif" font-size="12.00" fill="white">Int8</text>
</a>
</g>
</g>
<!-- IntegerArithmeticType&#45;&gt;_IntegerType -->
<g id="edge18" class="edge"><title>IntegerArithmeticType&#45;&gt;_IntegerType</title>
<path fill="none" stroke="#cccccc" d="M400,-231.988C400,-224.91 400,-215.171 400,-206.478"/>
<polygon fill="#cccccc" stroke="#cccccc" points="403.5,-206.304 400,-196.304 396.5,-206.304 403.5,-206.304"/>
</g>
<!-- IntegerLiteralConvertible -->
<g id="node13" class="node"><title>IntegerLiteralConvertible</title>
<g id="a_node13"><a xlink:href="/protocol/IntegerLiteralConvertible/" xlink:title="IntegerLiteralConvertible">
<path fill="#999999" stroke="#999999" d="M149.722,-254C149.722,-254 24.2776,-254 24.2776,-254 20.6109,-254 16.9442,-250.333 16.9442,-246.667 16.9442,-246.667 16.9442,-239.333 16.9442,-239.333 16.9442,-235.667 20.6109,-232 24.2776,-232 24.2776,-232 149.722,-232 149.722,-232 153.389,-232 157.056,-235.667 157.056,-239.333 157.056,-239.333 157.056,-246.667 157.056,-246.667 157.056,-250.333 153.389,-254 149.722,-254"/>
<text text-anchor="middle" x="87" y="-239.4" font-family="Helvetica,sans-Serif" font-size="12.00" fill="white">IntegerLiteralConvertible</text>
</a>
</g>
</g>
<!-- IntegerLiteralConvertible&#45;&gt;SignedNumberType -->
<g id="edge27" class="edge"><title>IntegerLiteralConvertible&#45;&gt;SignedNumberType</title>
<path fill="none" stroke="#cccccc" d="M87,-231.988C87,-224.91 87,-215.171 87,-206.478"/>
<polygon fill="#cccccc" stroke="#cccccc" points="90.5001,-206.304 87,-196.304 83.5001,-206.304 90.5001,-206.304"/>
</g>
<!-- IntegerLiteralConvertible&#45;&gt;_IntegerType -->
<g id="edge15" class="edge"><title>IntegerLiteralConvertible&#45;&gt;_IntegerType</title>
<path fill="none" stroke="#cccccc" d="M142.958,-231.988C201.724,-221.474 293.288,-205.092 349.796,-194.982"/>
<polygon fill="#cccccc" stroke="#cccccc" points="350.696,-198.377 359.923,-193.17 349.463,-191.486 350.696,-198.377"/>
</g>
<!-- SignedIntegerType -->
<g id="node14" class="node"><title>SignedIntegerType</title>
<g id="a_node14"><a xlink:href="/protocol/SignedIntegerType/" xlink:title="SignedIntegerType">
<path fill="#999999" stroke="#999999" d="M249.727,-80C249.727,-80 154.273,-80 154.273,-80 150.606,-80 146.94,-76.3333 146.94,-72.6667 146.94,-72.6667 146.94,-65.3333 146.94,-65.3333 146.94,-61.6667 150.606,-58 154.273,-58 154.273,-58 249.727,-58 249.727,-58 253.394,-58 257.06,-61.6667 257.06,-65.3333 257.06,-65.3333 257.06,-72.6667 257.06,-72.6667 257.06,-76.3333 253.394,-80 249.727,-80"/>
<text text-anchor="middle" x="202" y="-65.4" font-family="Helvetica,sans-Serif" font-size="12.00" fill="white">SignedIntegerType</text>
</a>
</g>
</g>
<!-- SignedIntegerType&#45;&gt;Int -->
<g id="edge8" class="edge"><title>SignedIntegerType&#45;&gt;Int</title>
<path fill="none" stroke="#cccccc" d="M170.714,-57.9883C140.818,-48.4216 95.739,-33.9965 64.0582,-23.8586"/>
<polygon fill="#cccccc" stroke="#cccccc" points="64.8702,-20.4437 54.2792,-20.7293 62.7367,-27.1107 64.8702,-20.4437"/>
</g>
<!-- SignedIntegerType&#45;&gt;Int16 -->
<g id="edge9" class="edge"><title>SignedIntegerType&#45;&gt;Int16</title>
<path fill="none" stroke="#cccccc" d="M196.458,-57.9883C192.365,-50.5952 186.666,-40.3005 181.698,-31.3253"/>
<polygon fill="#cccccc" stroke="#cccccc" points="184.609,-29.3577 176.704,-22.3039 178.485,-32.7479 184.609,-29.3577"/>
</g>
<!-- SignedIntegerType&#45;&gt;Int32 -->
<g id="edge10" class="edge"><title>SignedIntegerType&#45;&gt;Int32</title>
<path fill="none" stroke="#cccccc" d="M209.33,-57.9883C214.916,-50.3592 222.763,-39.6405 229.477,-30.4702"/>
<polygon fill="#cccccc" stroke="#cccccc" points="232.373,-32.4401 235.456,-22.3039 226.725,-28.3049 232.373,-32.4401"/>
</g>
<!-- SignedIntegerType&#45;&gt;Int64 -->
<g id="edge11" class="edge"><title>SignedIntegerType&#45;&gt;Int64</title>
<path fill="none" stroke="#cccccc" d="M222.202,-57.9883C239.849,-49.2431 265.687,-36.4381 285.621,-26.5594"/>
<polygon fill="#cccccc" stroke="#cccccc" points="287.186,-29.6903 294.592,-22.1138 284.078,-23.4182 287.186,-29.6903"/>
</g>
<!-- SignedIntegerType&#45;&gt;Int8 -->
<g id="edge12" class="edge"><title>SignedIntegerType&#45;&gt;Int8</title>
<path fill="none" stroke="#cccccc" d="M235.074,-57.9883C267.381,-48.2091 316.458,-33.3533 350.034,-23.1896"/>
<polygon fill="#cccccc" stroke="#cccccc" points="351.364,-26.4439 359.921,-20.1968 349.336,-19.7441 351.364,-26.4439"/>
</g>
<!-- _SignedIntegerType -->
<g id="node19" class="node"><title>_SignedIntegerType</title>
<g id="a_node19"><a xlink:href="/protocol/_SignedIntegerType/" xlink:title="_SignedIntegerType">
<path fill="#ee543d" stroke="#ee543d" d="M294.231,-138C294.231,-138 191.769,-138 191.769,-138 188.102,-138 184.436,-134.333 184.436,-130.667 184.436,-130.667 184.436,-123.333 184.436,-123.333 184.436,-119.667 188.102,-116 191.769,-116 191.769,-116 294.231,-116 294.231,-116 297.898,-116 301.564,-119.667 301.564,-123.333 301.564,-123.333 301.564,-130.667 301.564,-130.667 301.564,-134.333 297.898,-138 294.231,-138"/>
<text text-anchor="middle" x="243" y="-123.4" font-family="Helvetica,sans-Serif" font-size="12.00" fill="white">_SignedIntegerType</text>
</a>
</g>
</g>
<!-- SignedNumberType&#45;&gt;_SignedIntegerType -->
<g id="edge14" class="edge"><title>SignedNumberType&#45;&gt;_SignedIntegerType</title>
<path fill="none" stroke="#cccccc" d="M114.89,-173.988C140.212,-164.898 177.752,-151.422 205.657,-141.405"/>
<polygon fill="#cccccc" stroke="#cccccc" points="206.86,-144.692 215.089,-138.019 204.495,-138.104 206.86,-144.692"/>
</g>
<!-- _Incrementable&#45;&gt;_IntegerType -->
<g id="edge20" class="edge"><title>_Incrementable&#45;&gt;_IntegerType</title>
<path fill="none" stroke="#cccccc" d="M651.414,-289.515C660.718,-274.955 673.872,-248.541 660,-232 633.769,-200.721 518.187,-190.7 450.279,-187.497"/>
<polygon fill="#cccccc" stroke="#cccccc" points="450.36,-183.997 440.216,-187.056 450.053,-190.991 450.36,-183.997"/>
</g>
<!-- _IntegerArithmeticType -->
<g id="node17" class="node"><title>_IntegerArithmeticType</title>
<g id="a_node17"><a xlink:href="/protocol/_IntegerArithmeticType/" xlink:title="_IntegerArithmeticType">
<path fill="#999999" stroke="#999999" d="M459.215,-312C459.215,-312 340.785,-312 340.785,-312 337.118,-312 333.452,-308.333 333.452,-304.667 333.452,-304.667 333.452,-297.333 333.452,-297.333 333.452,-293.667 337.118,-290 340.785,-290 340.785,-290 459.215,-290 459.215,-290 462.882,-290 466.548,-293.667 466.548,-297.333 466.548,-297.333 466.548,-304.667 466.548,-304.667 466.548,-308.333 462.882,-312 459.215,-312"/>
<text text-anchor="middle" x="400" y="-297.4" font-family="Helvetica,sans-Serif" font-size="12.00" fill="white">_IntegerArithmeticType</text>
</a>
</g>
</g>
<!-- _IntegerArithmeticType&#45;&gt;IntegerArithmeticType -->
<g id="edge22" class="edge"><title>_IntegerArithmeticType&#45;&gt;IntegerArithmeticType</title>
<path fill="none" stroke="#cccccc" d="M400,-289.988C400,-282.91 400,-273.171 400,-264.478"/>
<polygon fill="#cccccc" stroke="#cccccc" points="403.5,-264.304 400,-254.304 396.5,-264.304 403.5,-264.304"/>
</g>
<!-- _IntegerType&#45;&gt;_SignedIntegerType -->
<g id="edge13" class="edge"><title>_IntegerType&#45;&gt;_SignedIntegerType</title>
<path fill="none" stroke="#cccccc" d="M371.932,-173.988C346.447,-164.898 308.666,-151.422 280.583,-141.405"/>
<polygon fill="#cccccc" stroke="#cccccc" points="281.684,-138.082 271.09,-138.019 279.333,-144.675 281.684,-138.082"/>
</g>
<!-- _SignedIntegerType&#45;&gt;Int -->
<g id="edge1" class="edge"><title>_SignedIntegerType&#45;&gt;Int</title>
<path fill="none" stroke="#cccccc" d="M214.25,-115.909C191.216,-107.421 158.345,-94.3893 131,-80 101.399,-64.4237 69.503,-42.7701 48.9513,-28.1152"/>
<polygon fill="#cccccc" stroke="#cccccc" points="50.7767,-25.1166 40.617,-22.1114 46.6851,-30.7963 50.7767,-25.1166"/>
</g>
<!-- _SignedIntegerType&#45;&gt;Int16 -->
<g id="edge2" class="edge"><title>_SignedIntegerType&#45;&gt;Int16</title>
<path fill="none" stroke="#cccccc" d="M190.912,-115.97C170.857,-109.294 149.924,-98.2412 138,-80 127.437,-63.8399 139.915,-43.7949 152.439,-29.6678"/>
<polygon fill="#cccccc" stroke="#cccccc" points="155.278,-31.7614 159.644,-22.1079 150.211,-26.9318 155.278,-31.7614"/>
</g>
<!-- _SignedIntegerType&#45;&gt;Int32 -->
<g id="edge3" class="edge"><title>_SignedIntegerType&#45;&gt;Int32</title>
<path fill="none" stroke="#cccccc" d="M249.76,-115.933C255.358,-106.949 262.882,-93.2086 266,-80 268.246,-70.4838 268.246,-67.5162 266,-58 263.783,-48.6095 259.34,-38.9503 254.944,-30.9225"/>
<polygon fill="#cccccc" stroke="#cccccc" points="257.833,-28.9286 249.76,-22.0672 251.792,-32.4654 257.833,-28.9286"/>
</g>
<!-- _SignedIntegerType&#45;&gt;Int64 -->
<g id="edge4" class="edge"><title>_SignedIntegerType&#45;&gt;Int64</title>
<path fill="none" stroke="#cccccc" d="M252.466,-115.926C260.624,-106.938 272.41,-93.1956 281,-80 291.099,-64.4858 300.337,-45.561 306.627,-31.619"/>
<polygon fill="#cccccc" stroke="#cccccc" points="310.005,-32.6307 310.827,-22.0677 303.598,-29.8127 310.005,-32.6307"/>
</g>
<!-- _SignedIntegerType&#45;&gt;Int8 -->
<g id="edge5" class="edge"><title>_SignedIntegerType&#45;&gt;Int8</title>
<path fill="none" stroke="#cccccc" d="M256.16,-115.816C268.141,-106.525 286.303,-92.3972 302,-80 323.975,-62.6448 348.987,-42.5995 366.159,-28.7922"/>
<polygon fill="#cccccc" stroke="#cccccc" points="368.77,-31.1838 374.367,-22.1878 364.382,-25.7301 368.77,-31.1838"/>
</g>
<!-- _SignedIntegerType&#45;&gt;SignedIntegerType -->
<g id="edge6" class="edge"><title>_SignedIntegerType&#45;&gt;SignedIntegerType</title>
<path fill="none" stroke="#cccccc" d="M235.67,-115.988C230.084,-108.359 222.237,-97.6405 215.523,-88.4702"/>
<polygon fill="#cccccc" stroke="#cccccc" points="218.275,-86.3049 209.544,-80.3039 212.627,-90.4401 218.275,-86.3049"/>
</g>
</g>
</svg>
