<?xml version="1.0" encoding="UTF-8" standalone="no"?>
<!DOCTYPE svg PUBLIC "-//W3C//DTD SVG 1.1//EN"
 "http://www.w3.org/Graphics/SVG/1.1/DTD/svg11.dtd">
<!-- Generated by graphviz version 2.36.0 (20140111.2315)
 -->
<!-- Title: _CVarArgPassedAsDouble &#45; Type Hierarchy &#45; SwiftDoc.org Pages: 1 -->
<svg width="166pt" height="253pt"
 viewBox="0.00 0.00 166.40 253.20" xmlns="http://www.w3.org/2000/svg" xmlns:xlink="http://www.w3.org/1999/xlink">
<g id="graph0" class="graph" transform="scale(1 1) rotate(0) translate(7.2 195.6)">
<title>_CVarArgPassedAsDouble &#45; Type Hierarchy &#45; SwiftDoc.org</title>
<polygon fill="white" stroke="none" points="-7.2,57.6 -7.2,-195.6 159.2,-195.6 159.2,57.6 -7.2,57.6"/>
<!-- CVarArgType -->
<g id="node1" class="node"><title>CVarArgType</title>
<g id="a_node1"><a xlink:href="/protocol/CVarArgType/" xlink:title="CVarArgType">
<path fill="#999999" stroke="#999999" d="M109.029,-138C109.029,-138 42.9709,-138 42.9709,-138 39.3043,-138 35.6376,-134.333 35.6376,-130.667 35.6376,-130.667 35.6376,-123.333 35.6376,-123.333 35.6376,-119.667 39.3043,-116 42.9709,-116 42.9709,-116 109.029,-116 109.029,-116 112.696,-116 116.362,-119.667 116.362,-123.333 116.362,-123.333 116.362,-130.667 116.362,-130.667 116.362,-134.333 112.696,-138 109.029,-138"/>
<text text-anchor="middle" x="76" y="-123.4" font-family="Helvetica,sans-Serif" font-size="12.00" fill="white">CVarArgType</text>
</a>
</g>
</g>
<!-- _CVarArgPassedAsDouble -->
<g id="node4" class="node"><title>_CVarArgPassedAsDouble</title>
<g id="a_node4"><a xlink:href="/protocol/_CVarArgPassedAsDouble/" xlink:title="_CVarArgPassedAsDouble">
<path fill="#ee543d" stroke="#ee543d" d="M145.062,-80C145.062,-80 6.93831,-80 6.93831,-80 3.27165,-80 -0.39502,-76.3333 -0.39502,-72.6667 -0.39502,-72.6667 -0.39502,-65.3333 -0.39502,-65.3333 -0.39502,-61.6667 3.27165,-58 6.93831,-58 6.93831,-58 145.062,-58 145.062,-58 148.728,-58 152.395,-61.6667 152.395,-65.3333 152.395,-65.3333 152.395,-72.6667 152.395,-72.6667 152.395,-76.3333 148.728,-80 145.062,-80"/>
<text text-anchor="middle" x="76" y="-65.4" font-family="Helvetica,sans-Serif" font-size="12.00" fill="white">_CVarArgPassedAsDouble</text>
</a>
</g>
</g>
<!-- CVarArgType&#45;&gt;_CVarArgPassedAsDouble -->
<g id="edge3" class="edge"><title>CVarArgType&#45;&gt;_CVarArgPassedAsDouble</title>
<path fill="none" stroke="#cccccc" d="M76,-115.988C76,-108.91 76,-99.1714 76,-90.4779"/>
<polygon fill="#cccccc" stroke="#cccccc" points="79.5001,-90.3038 76,-80.3039 72.5001,-90.3039 79.5001,-90.3038"/>
</g>
<!-- Double -->
<g id="node2" class="node"><title>Double</title>
<g id="a_node2"><a xlink:href="/type/Double/" xlink:title="Double">
<polygon fill="#999999" stroke="#999999" points="67,-22 13,-22 13,-0 67,-0 67,-22"/>
<text text-anchor="middle" x="40" y="-7.4" font-family="Helvetica,sans-Serif" font-size="12.00" fill="white">Double</text>
</a>
</g>
</g>
<!-- Float -->
<g id="node3" class="node"><title>Float</title>
<g id="a_node3"><a xlink:href="/type/Float/" xlink:title="Float">
<polygon fill="#999999" stroke="#999999" points="139,-22 85,-22 85,-0 139,-0 139,-22"/>
<text text-anchor="middle" x="112" y="-7.4" font-family="Helvetica,sans-Serif" font-size="12.00" fill="white">Float</text>
</a>
</g>
</g>
<!-- _CVarArgPassedAsDouble&#45;&gt;Double -->
<g id="edge1" class="edge"><title>_CVarArgPassedAsDouble&#45;&gt;Double</title>
<path fill="none" stroke="#cccccc" d="M69.5639,-57.9883C64.7101,-50.4379 57.9107,-39.8611 52.0563,-30.7543"/>
<polygon fill="#cccccc" stroke="#cccccc" points="54.9757,-28.823 46.6239,-22.3039 49.0874,-32.6083 54.9757,-28.823"/>
</g>
<!-- _CVarArgPassedAsDouble&#45;&gt;Float -->
<g id="edge2" class="edge"><title>_CVarArgPassedAsDouble&#45;&gt;Float</title>
<path fill="none" stroke="#cccccc" d="M82.4361,-57.9883C87.2899,-50.4379 94.0893,-39.8611 99.9437,-30.7543"/>
<polygon fill="#cccccc" stroke="#cccccc" points="102.913,-32.6083 105.376,-22.3039 97.0243,-28.823 102.913,-32.6083"/>
</g>
</g>
</svg>
