<?xml version="1.0" encoding="UTF-8" standalone="no"?>
<!DOCTYPE svg PUBLIC "-//W3C//DTD SVG 1.1//EN"
 "http://www.w3.org/Graphics/SVG/1.1/DTD/svg11.dtd">
<!-- Generated by graphviz version 2.36.0 (20140111.2315)
 -->
<!-- Title: GeneratorSequence&lt;G : GeneratorType&gt; &#45; Type Hierarchy &#45; SwiftDoc.org Pages: 1 -->
<svg width="244pt" height="311pt"
 viewBox="0.00 0.00 244.40 311.20" xmlns="http://www.w3.org/2000/svg" xmlns:xlink="http://www.w3.org/1999/xlink">
<g id="graph0" class="graph" transform="scale(1 1) rotate(0) translate(7.2 253.6)">
<title>GeneratorSequence&lt;G : GeneratorType&gt; &#45; Type Hierarchy &#45; SwiftDoc.org</title>
<polygon fill="white" stroke="none" points="-7.2,57.6 -7.2,-253.6 237.2,-253.6 237.2,57.6 -7.2,57.6"/>
<!-- GeneratorSequence&lt;G : GeneratorType&gt; -->
<g id="node1" class="node"><title>GeneratorSequence&lt;G : GeneratorType&gt;</title>
<g id="a_node1"><a xlink:href="/type/GeneratorSequence/" xlink:title="GeneratorSequence&lt;G : GeneratorType&gt;">
<polygon fill="#ee543d" stroke="#ee543d" points="230.609,-22 -0.608617,-22 -0.608617,-0 230.609,-0 230.609,-22"/>
<text text-anchor="middle" x="115" y="-7.4" font-family="Helvetica,sans-Serif" font-size="12.00" fill="white">GeneratorSequence&lt;G : GeneratorType&gt;</text>
</a>
</g>
</g>
<!-- GeneratorType -->
<g id="node2" class="node"><title>GeneratorType</title>
<g id="a_node2"><a xlink:href="/protocol/GeneratorType/" xlink:title="GeneratorType">
<path fill="#999999" stroke="#999999" d="M98.7048,-80C98.7048,-80 23.2952,-80 23.2952,-80 19.6286,-80 15.9619,-76.3333 15.9619,-72.6667 15.9619,-72.6667 15.9619,-65.3333 15.9619,-65.3333 15.9619,-61.6667 19.6286,-58 23.2952,-58 23.2952,-58 98.7048,-58 98.7048,-58 102.371,-58 106.038,-61.6667 106.038,-65.3333 106.038,-65.3333 106.038,-72.6667 106.038,-72.6667 106.038,-76.3333 102.371,-80 98.7048,-80"/>
<text text-anchor="middle" x="61" y="-65.4" font-family="Helvetica,sans-Serif" font-size="12.00" fill="white">GeneratorType</text>
</a>
</g>
</g>
<!-- GeneratorType&#45;&gt;GeneratorSequence&lt;G : GeneratorType&gt; -->
<g id="edge1" class="edge"><title>GeneratorType&#45;&gt;GeneratorSequence&lt;G : GeneratorType&gt;</title>
<path fill="none" stroke="#cccccc" d="M70.6541,-57.9883C78.2383,-50.1233 88.9889,-38.9745 98.0055,-29.6239"/>
<polygon fill="#cccccc" stroke="#cccccc" points="100.642,-31.9318 105.064,-22.3039 95.6033,-27.0729 100.642,-31.9318"/>
</g>
<!-- SequenceType -->
<g id="node3" class="node"><title>SequenceType</title>
<g id="a_node3"><a xlink:href="/protocol/SequenceType/" xlink:title="SequenceType">
<path fill="#999999" stroke="#999999" d="M206.718,-80C206.718,-80 131.282,-80 131.282,-80 127.615,-80 123.949,-76.3333 123.949,-72.6667 123.949,-72.6667 123.949,-65.3333 123.949,-65.3333 123.949,-61.6667 127.615,-58 131.282,-58 131.282,-58 206.718,-58 206.718,-58 210.385,-58 214.051,-61.6667 214.051,-65.3333 214.051,-65.3333 214.051,-72.6667 214.051,-72.6667 214.051,-76.3333 210.385,-80 206.718,-80"/>
<text text-anchor="middle" x="169" y="-65.4" font-family="Helvetica,sans-Serif" font-size="12.00" fill="white">SequenceType</text>
</a>
</g>
</g>
<!-- SequenceType&#45;&gt;GeneratorSequence&lt;G : GeneratorType&gt; -->
<g id="edge2" class="edge"><title>SequenceType&#45;&gt;GeneratorSequence&lt;G : GeneratorType&gt;</title>
<path fill="none" stroke="#cccccc" d="M159.346,-57.9883C151.762,-50.1233 141.011,-38.9745 131.994,-29.6239"/>
<polygon fill="#cccccc" stroke="#cccccc" points="134.397,-27.0729 124.936,-22.3039 129.358,-31.9318 134.397,-27.0729"/>
</g>
<!-- _SequenceType -->
<g id="node4" class="node"><title>_SequenceType</title>
<g id="a_node4"><a xlink:href="/protocol/_SequenceType/" xlink:title="_SequenceType">
<path fill="#999999" stroke="#999999" d="M209.724,-196C209.724,-196 128.276,-196 128.276,-196 124.609,-196 120.943,-192.333 120.943,-188.667 120.943,-188.667 120.943,-181.333 120.943,-181.333 120.943,-177.667 124.609,-174 128.276,-174 128.276,-174 209.724,-174 209.724,-174 213.391,-174 217.057,-177.667 217.057,-181.333 217.057,-181.333 217.057,-188.667 217.057,-188.667 217.057,-192.333 213.391,-196 209.724,-196"/>
<text text-anchor="middle" x="169" y="-181.4" font-family="Helvetica,sans-Serif" font-size="12.00" fill="white">_SequenceType</text>
</a>
</g>
</g>
<!-- _Sequence_Type -->
<g id="node5" class="node"><title>_Sequence_Type</title>
<g id="a_node5"><a xlink:href="/protocol/_Sequence_Type/" xlink:title="_Sequence_Type">
<path fill="#999999" stroke="#999999" d="M213.228,-138C213.228,-138 124.772,-138 124.772,-138 121.105,-138 117.439,-134.333 117.439,-130.667 117.439,-130.667 117.439,-123.333 117.439,-123.333 117.439,-119.667 121.105,-116 124.772,-116 124.772,-116 213.228,-116 213.228,-116 216.895,-116 220.561,-119.667 220.561,-123.333 220.561,-123.333 220.561,-130.667 220.561,-130.667 220.561,-134.333 216.895,-138 213.228,-138"/>
<text text-anchor="middle" x="169" y="-123.4" font-family="Helvetica,sans-Serif" font-size="12.00" fill="white">_Sequence_Type</text>
</a>
</g>
</g>
<!-- _SequenceType&#45;&gt;_Sequence_Type -->
<g id="edge4" class="edge"><title>_SequenceType&#45;&gt;_Sequence_Type</title>
<path fill="none" stroke="#cccccc" d="M169,-173.988C169,-166.91 169,-157.171 169,-148.478"/>
<polygon fill="#cccccc" stroke="#cccccc" points="172.5,-148.304 169,-138.304 165.5,-148.304 172.5,-148.304"/>
</g>
<!-- _Sequence_Type&#45;&gt;SequenceType -->
<g id="edge3" class="edge"><title>_Sequence_Type&#45;&gt;SequenceType</title>
<path fill="none" stroke="#cccccc" d="M169,-115.988C169,-108.91 169,-99.1714 169,-90.4779"/>
<polygon fill="#cccccc" stroke="#cccccc" points="172.5,-90.3038 169,-80.3039 165.5,-90.3039 172.5,-90.3038"/>
</g>
</g>
</svg>
