<?xml version="1.0" encoding="UTF-8" standalone="no"?>
<!DOCTYPE svg PUBLIC "-//W3C//DTD SVG 1.1//EN"
 "http://www.w3.org/Graphics/SVG/1.1/DTD/svg11.dtd">
<!-- Generated by graphviz version 2.36.0 (20140111.2315)
 -->
<!-- Title: FilterCollectionViewIndex&lt;Base : CollectionType&gt; &#45; Type Hierarchy &#45; SwiftDoc.org Pages: 1 -->
<svg width="288pt" height="369pt"
 viewBox="0.00 0.00 288.40 369.20" xmlns="http://www.w3.org/2000/svg" xmlns:xlink="http://www.w3.org/1999/xlink">
<g id="graph0" class="graph" transform="scale(1 1) rotate(0) translate(7.2 311.6)">
<title>FilterCollectionViewIndex&lt;Base : CollectionType&gt; &#45; Type Hierarchy &#45; SwiftDoc.org</title>
<polygon fill="white" stroke="none" points="-7.2,57.6 -7.2,-311.6 281.2,-311.6 281.2,57.6 -7.2,57.6"/>
<!-- Equatable -->
<g id="node1" class="node"><title>Equatable</title>
<g id="a_node1"><a xlink:href="/protocol/Equatable/" xlink:title="Equatable">
<path fill="#999999" stroke="#999999" d="M161.702,-254C161.702,-254 112.298,-254 112.298,-254 108.632,-254 104.965,-250.333 104.965,-246.667 104.965,-246.667 104.965,-239.333 104.965,-239.333 104.965,-235.667 108.632,-232 112.298,-232 112.298,-232 161.702,-232 161.702,-232 165.368,-232 169.035,-235.667 169.035,-239.333 169.035,-239.333 169.035,-246.667 169.035,-246.667 169.035,-250.333 165.368,-254 161.702,-254"/>
<text text-anchor="middle" x="137" y="-239.4" font-family="Helvetica,sans-Serif" font-size="12.00" fill="white">Equatable</text>
</a>
</g>
</g>
<!-- _Incrementable -->
<g id="node5" class="node"><title>_Incrementable</title>
<g id="a_node5"><a xlink:href="/protocol/_Incrementable/" xlink:title="_Incrementable">
<path fill="#999999" stroke="#999999" d="M175.705,-196C175.705,-196 98.2948,-196 98.2948,-196 94.6281,-196 90.9614,-192.333 90.9614,-188.667 90.9614,-188.667 90.9614,-181.333 90.9614,-181.333 90.9614,-177.667 94.6281,-174 98.2948,-174 98.2948,-174 175.705,-174 175.705,-174 179.372,-174 183.039,-177.667 183.039,-181.333 183.039,-181.333 183.039,-188.667 183.039,-188.667 183.039,-192.333 179.372,-196 175.705,-196"/>
<text text-anchor="middle" x="137" y="-181.4" font-family="Helvetica,sans-Serif" font-size="12.00" fill="white">_Incrementable</text>
</a>
</g>
</g>
<!-- Equatable&#45;&gt;_Incrementable -->
<g id="edge4" class="edge"><title>Equatable&#45;&gt;_Incrementable</title>
<path fill="none" stroke="#cccccc" d="M137,-231.988C137,-224.91 137,-215.171 137,-206.478"/>
<polygon fill="#cccccc" stroke="#cccccc" points="140.5,-206.304 137,-196.304 133.5,-206.304 140.5,-206.304"/>
</g>
<!-- FilterCollectionViewIndex&lt;Base : CollectionType&gt; -->
<g id="node2" class="node"><title>FilterCollectionViewIndex&lt;Base : CollectionType&gt;</title>
<g id="a_node2"><a xlink:href="/type/FilterCollectionViewIndex/" xlink:title="FilterCollectionViewIndex&lt;Base : CollectionType&gt;">
<polygon fill="#ee543d" stroke="#ee543d" points="273.949,-22 0.0512449,-22 0.0512449,-0 273.949,-0 273.949,-22"/>
<text text-anchor="middle" x="137" y="-7.4" font-family="Helvetica,sans-Serif" font-size="12.00" fill="white">FilterCollectionViewIndex&lt;Base : CollectionType&gt;</text>
</a>
</g>
</g>
<!-- ForwardIndexType -->
<g id="node3" class="node"><title>ForwardIndexType</title>
<g id="a_node3"><a xlink:href="/protocol/ForwardIndexType/" xlink:title="ForwardIndexType">
<path fill="#999999" stroke="#999999" d="M184.206,-80C184.206,-80 89.7938,-80 89.7938,-80 86.1272,-80 82.4605,-76.3333 82.4605,-72.6667 82.4605,-72.6667 82.4605,-65.3333 82.4605,-65.3333 82.4605,-61.6667 86.1272,-58 89.7938,-58 89.7938,-58 184.206,-58 184.206,-58 187.873,-58 191.539,-61.6667 191.539,-65.3333 191.539,-65.3333 191.539,-72.6667 191.539,-72.6667 191.539,-76.3333 187.873,-80 184.206,-80"/>
<text text-anchor="middle" x="137" y="-65.4" font-family="Helvetica,sans-Serif" font-size="12.00" fill="white">ForwardIndexType</text>
</a>
</g>
</g>
<!-- ForwardIndexType&#45;&gt;FilterCollectionViewIndex&lt;Base : CollectionType&gt; -->
<g id="edge1" class="edge"><title>ForwardIndexType&#45;&gt;FilterCollectionViewIndex&lt;Base : CollectionType&gt;</title>
<path fill="none" stroke="#cccccc" d="M137,-57.9883C137,-50.9098 137,-41.1714 137,-32.4779"/>
<polygon fill="#cccccc" stroke="#cccccc" points="140.5,-32.3038 137,-22.3039 133.5,-32.3039 140.5,-32.3038"/>
</g>
<!-- _ForwardIndexType -->
<g id="node4" class="node"><title>_ForwardIndexType</title>
<g id="a_node4"><a xlink:href="/protocol/_ForwardIndexType/" xlink:title="_ForwardIndexType">
<path fill="#999999" stroke="#999999" d="M187.712,-138C187.712,-138 86.2879,-138 86.2879,-138 82.6212,-138 78.9546,-134.333 78.9546,-130.667 78.9546,-130.667 78.9546,-123.333 78.9546,-123.333 78.9546,-119.667 82.6212,-116 86.2879,-116 86.2879,-116 187.712,-116 187.712,-116 191.379,-116 195.045,-119.667 195.045,-123.333 195.045,-123.333 195.045,-130.667 195.045,-130.667 195.045,-134.333 191.379,-138 187.712,-138"/>
<text text-anchor="middle" x="137" y="-123.4" font-family="Helvetica,sans-Serif" font-size="12.00" fill="white">_ForwardIndexType</text>
</a>
</g>
</g>
<!-- _ForwardIndexType&#45;&gt;ForwardIndexType -->
<g id="edge2" class="edge"><title>_ForwardIndexType&#45;&gt;ForwardIndexType</title>
<path fill="none" stroke="#cccccc" d="M137,-115.988C137,-108.91 137,-99.1714 137,-90.4779"/>
<polygon fill="#cccccc" stroke="#cccccc" points="140.5,-90.3038 137,-80.3039 133.5,-90.3039 140.5,-90.3038"/>
</g>
<!-- _Incrementable&#45;&gt;_ForwardIndexType -->
<g id="edge3" class="edge"><title>_Incrementable&#45;&gt;_ForwardIndexType</title>
<path fill="none" stroke="#cccccc" d="M137,-173.988C137,-166.91 137,-157.171 137,-148.478"/>
<polygon fill="#cccccc" stroke="#cccccc" points="140.5,-148.304 137,-138.304 133.5,-148.304 140.5,-148.304"/>
</g>
</g>
</svg>
