<?xml version="1.0" encoding="UTF-8" standalone="no"?>
<!DOCTYPE svg PUBLIC "-//W3C//DTD SVG 1.1//EN"
 "http://www.w3.org/Graphics/SVG/1.1/DTD/svg11.dtd">
<!-- Generated by graphviz version 2.36.0 (20140111.2315)
 -->
<!-- Title: RawRepresentable &#45; Type Hierarchy &#45; SwiftDoc.org Pages: 1 -->
<svg width="241pt" height="253pt"
 viewBox="0.00 0.00 241.40 253.20" xmlns="http://www.w3.org/2000/svg" xmlns:xlink="http://www.w3.org/1999/xlink">
<g id="graph0" class="graph" transform="scale(1 1) rotate(0) translate(7.2 195.6)">
<title>RawRepresentable &#45; Type Hierarchy &#45; SwiftDoc.org</title>
<polygon fill="white" stroke="none" points="-7.2,57.6 -7.2,-195.6 234.2,-195.6 234.2,57.6 -7.2,57.6"/>
<!-- OptionSetType -->
<g id="node1" class="node"><title>OptionSetType</title>
<g id="a_node1"><a xlink:href="/protocol/OptionSetType/" xlink:title="OptionSetType">
<path fill="#999999" stroke="#999999" d="M81.2075,-80C81.2075,-80 6.7925,-80 6.7925,-80 3.12583,-80 -0.540836,-76.3333 -0.540836,-72.6667 -0.540836,-72.6667 -0.540836,-65.3333 -0.540836,-65.3333 -0.540836,-61.6667 3.12583,-58 6.7925,-58 6.7925,-58 81.2075,-58 81.2075,-58 84.8742,-58 88.5408,-61.6667 88.5408,-65.3333 88.5408,-65.3333 88.5408,-72.6667 88.5408,-72.6667 88.5408,-76.3333 84.8742,-80 81.2075,-80"/>
<text text-anchor="middle" x="44" y="-65.4" font-family="Helvetica,sans-Serif" font-size="12.00" fill="white">OptionSetType</text>
</a>
</g>
</g>
<!-- RawOptionSetType -->
<g id="node2" class="node"><title>RawOptionSetType</title>
<g id="a_node2"><a xlink:href="/protocol/RawOptionSetType/" xlink:title="RawOptionSetType">
<path fill="#999999" stroke="#999999" d="M216.212,-22C216.212,-22 117.788,-22 117.788,-22 114.121,-22 110.455,-18.3333 110.455,-14.6667 110.455,-14.6667 110.455,-7.33333 110.455,-7.33333 110.455,-3.66667 114.121,-0 117.788,-0 117.788,-0 216.212,-0 216.212,-0 219.879,-0 223.545,-3.66667 223.545,-7.33333 223.545,-7.33333 223.545,-14.6667 223.545,-14.6667 223.545,-18.3333 219.879,-22 216.212,-22"/>
<text text-anchor="middle" x="167" y="-7.4" font-family="Helvetica,sans-Serif" font-size="12.00" fill="white">RawOptionSetType</text>
</a>
</g>
</g>
<!-- RawRepresentable -->
<g id="node3" class="node"><title>RawRepresentable</title>
<g id="a_node3"><a xlink:href="/protocol/RawRepresentable/" xlink:title="RawRepresentable">
<path fill="#ee543d" stroke="#ee543d" d="M153.711,-138C153.711,-138 56.2894,-138 56.2894,-138 52.6227,-138 48.956,-134.333 48.956,-130.667 48.956,-130.667 48.956,-123.333 48.956,-123.333 48.956,-119.667 52.6227,-116 56.2894,-116 56.2894,-116 153.711,-116 153.711,-116 157.377,-116 161.044,-119.667 161.044,-123.333 161.044,-123.333 161.044,-130.667 161.044,-130.667 161.044,-134.333 157.377,-138 153.711,-138"/>
<text text-anchor="middle" x="105" y="-123.4" font-family="Helvetica,sans-Serif" font-size="12.00" fill="white">RawRepresentable</text>
</a>
</g>
</g>
<!-- RawRepresentable&#45;&gt;OptionSetType -->
<g id="edge1" class="edge"><title>RawRepresentable&#45;&gt;OptionSetType</title>
<path fill="none" stroke="#cccccc" d="M94.0944,-115.988C85.4415,-108.045 73.1397,-96.7512 62.8925,-87.3439"/>
<polygon fill="#cccccc" stroke="#cccccc" points="64.9574,-84.4883 55.2239,-80.3039 60.2235,-89.6449 64.9574,-84.4883"/>
</g>
<!-- _RawOptionSetType -->
<g id="node4" class="node"><title>_RawOptionSetType</title>
<g id="a_node4"><a xlink:href="/protocol/_RawOptionSetType/" xlink:title="_RawOptionSetType">
<path fill="#999999" stroke="#999999" d="M219.718,-80C219.718,-80 114.282,-80 114.282,-80 110.615,-80 106.949,-76.3333 106.949,-72.6667 106.949,-72.6667 106.949,-65.3333 106.949,-65.3333 106.949,-61.6667 110.615,-58 114.282,-58 114.282,-58 219.718,-58 219.718,-58 223.385,-58 227.051,-61.6667 227.051,-65.3333 227.051,-65.3333 227.051,-72.6667 227.051,-72.6667 227.051,-76.3333 223.385,-80 219.718,-80"/>
<text text-anchor="middle" x="167" y="-65.4" font-family="Helvetica,sans-Serif" font-size="12.00" fill="white">_RawOptionSetType</text>
</a>
</g>
</g>
<!-- RawRepresentable&#45;&gt;_RawOptionSetType -->
<g id="edge2" class="edge"><title>RawRepresentable&#45;&gt;_RawOptionSetType</title>
<path fill="none" stroke="#cccccc" d="M116.084,-115.988C124.966,-107.966 137.631,-96.5272 148.107,-87.065"/>
<polygon fill="#cccccc" stroke="#cccccc" points="150.517,-89.6041 155.592,-80.3039 145.825,-84.4094 150.517,-89.6041"/>
</g>
<!-- _RawOptionSetType&#45;&gt;RawOptionSetType -->
<g id="edge3" class="edge"><title>_RawOptionSetType&#45;&gt;RawOptionSetType</title>
<path fill="none" stroke="#cccccc" d="M167,-57.9883C167,-50.9098 167,-41.1714 167,-32.4779"/>
<polygon fill="#cccccc" stroke="#cccccc" points="170.5,-32.3038 167,-22.3039 163.5,-32.3039 170.5,-32.3038"/>
</g>
</g>
</svg>
