<?xml version="1.0" encoding="UTF-8" standalone="no"?>
<!DOCTYPE svg PUBLIC "-//W3C//DTD SVG 1.1//EN"
 "http://www.w3.org/Graphics/SVG/1.1/DTD/svg11.dtd">
<!-- Generated by graphviz version 2.36.0 (20140111.2315)
 -->
<!-- Title: ExpressibleByIntegerLiteral &#45; Type Hierarchy &#45; SwiftDoc.org Pages: 1 -->
<svg width="1057pt" height="427pt"
 viewBox="0.00 0.00 1057.40 427.20" xmlns="http://www.w3.org/2000/svg" xmlns:xlink="http://www.w3.org/1999/xlink">
<g id="graph0" class="graph" transform="scale(1 1) rotate(0) translate(7.2 369.6)">
<g transform="translate(0 -369.6)">
<g>
    <path fill="#666666" d="M13.846,10.832c-0.336-0.464-0.792-0.844-1.368-1.14s-1.224-0.444-1.944-0.444
        c-0.384,0-0.772,0.052-1.164,0.156C8.977,9.509,8.622,9.677,8.301,9.908c-0.32,0.232-0.58,0.52-0.78,0.864
        c-0.2,0.344-0.3,0.756-0.3,1.236c0,0.464,0.092,0.852,0.276,1.164c0.184,0.312,0.432,0.576,0.744,0.792s0.68,0.4,1.104,0.552
        c0.423,0.152,0.876,0.309,1.356,0.468c0.576,0.177,1.16,0.376,1.752,0.601c0.592,0.224,1.128,0.52,1.608,0.888
        s0.872,0.828,1.176,1.38s0.456,1.252,0.456,2.101c0,0.88-0.164,1.644-0.492,2.292c-0.328,0.647-0.765,1.184-1.308,1.607
        c-0.544,0.424-1.172,0.74-1.884,0.948s-1.444,0.312-2.196,0.312c-1.072,0-2.108-0.208-3.108-0.624
        c-1-0.415-1.828-1.031-2.484-1.848l1.848-1.56c0.4,0.592,0.936,1.071,1.608,1.439c0.672,0.368,1.399,0.552,2.184,0.552
        c0.4,0,0.8-0.056,1.2-0.168c0.4-0.111,0.764-0.288,1.092-0.527c0.328-0.24,0.596-0.54,0.804-0.9
        c0.208-0.36,0.312-0.796,0.312-1.308s-0.108-0.94-0.324-1.284c-0.216-0.344-0.508-0.636-0.876-0.876s-0.796-0.444-1.284-0.612
        c-0.488-0.168-1.004-0.34-1.548-0.516c-0.544-0.16-1.08-0.356-1.608-0.588c-0.528-0.232-1-0.528-1.416-0.889
        c-0.416-0.359-0.752-0.804-1.008-1.332c-0.256-0.527-0.384-1.184-0.384-1.968c0-0.848,0.172-1.576,0.516-2.184
        c0.344-0.608,0.792-1.112,1.344-1.512c0.552-0.4,1.176-0.692,1.872-0.876c0.696-0.184,1.396-0.276,2.1-0.276
        c0.992,0,1.92,0.176,2.784,0.528c0.864,0.352,1.56,0.824,2.088,1.416L13.846,10.832z"/>
    <path fill="#666666" d="M18.813,13.304l2.568,8.688h0.048l2.712-8.688h2.376l2.76,8.688h0.048l2.568-8.688h2.376L30.501,24.68
        h-2.352l-2.808-8.544h-0.048l-2.784,8.544h-2.352l-3.792-11.376H18.813z"/>
    <path fill="#666666" d="M38.685,9.2c0,0.416-0.147,0.76-0.44,1.032c-0.294,0.272-0.647,0.408-1.06,0.408s-0.762-0.14-1.047-0.42
        c-0.286-0.28-0.429-0.62-0.429-1.02c0-0.416,0.143-0.764,0.429-1.044c0.286-0.28,0.635-0.42,1.047-0.42s0.766,0.14,1.06,0.42
        C38.538,8.437,38.685,8.784,38.685,9.2z M38.325,24.68h-2.256V13.304h2.256V24.68z"/>
    <path fill="#666666" d="M47.613,15.152h-2.64v9.528h-2.256v-9.528h-2.256v-1.848h2.256v-2.376c0-0.672,0.076-1.292,0.228-1.86
        c0.152-0.568,0.4-1.06,0.744-1.476c0.344-0.416,0.784-0.744,1.32-0.984c0.536-0.24,1.188-0.36,1.956-0.36
        c0.544,0,1.016,0.056,1.416,0.168l-0.264,1.944c-0.176-0.048-0.352-0.088-0.528-0.12c-0.176-0.032-0.376-0.048-0.6-0.048
        c-0.432,0-0.78,0.076-1.044,0.228c-0.264,0.152-0.468,0.356-0.612,0.612s-0.24,0.548-0.288,0.876
        c-0.048,0.328-0.072,0.668-0.072,1.02v2.376h2.64V15.152z"/>
    <path fill="#666666" d="M54.909,15.152h-3.024v5.91c0,0.687,0.128,1.177,0.384,1.472c0.256,0.295,0.664,0.442,1.224,0.442
        c0.208,0,0.432-0.021,0.672-0.065c0.24-0.044,0.456-0.11,0.648-0.198l0.072,1.848c-0.272,0.096-0.572,0.172-0.9,0.229
        c-0.328,0.056-0.668,0.084-1.02,0.084c-1.072,0-1.892-0.296-2.46-0.889c-0.568-0.592-0.852-1.479-0.852-2.664v-6.168h-2.184
        v-1.848h2.184V10.04h2.232v3.264h3.024V15.152z"/>
    <path fill="#666666" d="M57.356,7.688h5.832c1.088,0,2.176,0.16,3.264,0.48c1.088,0.32,2.072,0.824,2.952,1.512
        s1.592,1.568,2.136,2.64c0.544,1.072,0.816,2.36,0.816,3.864c0,1.456-0.272,2.716-0.816,3.78s-1.256,1.943-2.136,2.64
        s-1.864,1.216-2.952,1.561c-1.088,0.344-2.176,0.516-3.264,0.516h-5.832V7.688z M59.732,22.593h2.976
        c1.024,0,1.972-0.145,2.844-0.432c0.872-0.288,1.624-0.704,2.256-1.248c0.632-0.544,1.124-1.216,1.476-2.017
        c0.352-0.8,0.528-1.704,0.528-2.712c0-1.056-0.176-1.983-0.528-2.784c-0.353-0.8-0.844-1.468-1.476-2.004
        c-0.632-0.536-1.384-0.944-2.256-1.224s-1.82-0.42-2.844-0.42h-2.976V22.593z"/>
    <path fill="#666666" d="M86.06,18.969c0,0.88-0.156,1.688-0.468,2.424c-0.312,0.736-0.744,1.372-1.296,1.908
        c-0.552,0.536-1.204,0.952-1.956,1.248c-0.752,0.296-1.56,0.443-2.424,0.443c-0.864,0-1.672-0.147-2.424-0.443
        c-0.752-0.296-1.4-0.712-1.944-1.248c-0.544-0.536-0.972-1.172-1.284-1.908c-0.312-0.735-0.468-1.544-0.468-2.424
        s0.156-1.684,0.468-2.412c0.312-0.728,0.74-1.356,1.284-1.884c0.543-0.528,1.191-0.939,1.944-1.236
        c0.752-0.296,1.56-0.444,2.424-0.444c0.864,0,1.672,0.148,2.424,0.444c0.752,0.297,1.404,0.708,1.956,1.236
        c0.552,0.527,0.984,1.156,1.296,1.884C85.904,17.285,86.06,18.089,86.06,18.969z M83.708,18.98c0-0.542-0.084-1.061-0.252-1.556
        c-0.169-0.494-0.414-0.929-0.734-1.304s-0.718-0.674-1.192-0.897s-1.015-0.335-1.625-0.335c-0.61,0-1.152,0.111-1.625,0.335
        c-0.474,0.224-0.871,0.522-1.191,0.897c-0.321,0.375-0.566,0.81-0.734,1.304C76.184,17.92,76.1,18.438,76.1,18.98
        c0,0.543,0.084,1.062,0.253,1.556c0.168,0.495,0.413,0.934,0.734,1.316c0.321,0.383,0.718,0.686,1.191,0.909
        c0.473,0.224,1.015,0.335,1.625,0.335c0.61,0,1.151-0.111,1.625-0.335s0.871-0.526,1.192-0.909s0.565-0.821,0.734-1.316
        C83.624,20.042,83.708,19.523,83.708,18.98z"/>
    <path fill="#666666" d="M96.428,16.184c-0.24-0.368-0.6-0.676-1.08-0.924s-0.992-0.372-1.536-0.372
        c-0.592,0-1.116,0.112-1.572,0.336c-0.456,0.225-0.844,0.524-1.164,0.9c-0.32,0.376-0.564,0.812-0.732,1.308
        s-0.252,1.017-0.252,1.56c0,0.545,0.084,1.064,0.252,1.561s0.412,0.933,0.732,1.308c0.32,0.376,0.712,0.677,1.176,0.9
        c0.464,0.225,0.992,0.336,1.584,0.336c0.576,0,1.1-0.111,1.572-0.336c0.472-0.224,0.86-0.528,1.164-0.912l1.512,1.368
        c-0.48,0.561-1.08,0.996-1.8,1.308c-0.72,0.312-1.536,0.468-2.448,0.468c-0.88,0-1.692-0.144-2.436-0.432
        c-0.744-0.288-1.388-0.691-1.932-1.212c-0.544-0.52-0.972-1.147-1.284-1.884s-0.468-1.561-0.468-2.473
        c0-0.896,0.152-1.711,0.456-2.447c0.304-0.736,0.728-1.368,1.272-1.896c0.543-0.527,1.188-0.936,1.932-1.224
        c0.744-0.288,1.548-0.433,2.412-0.433c0.8,0,1.596,0.16,2.388,0.48s1.419,0.784,1.884,1.392L96.428,16.184z"/>
    <path fill="#666666" d="M103.1,23.24c0,0.417-0.152,0.784-0.456,1.104c-0.304,0.32-0.688,0.479-1.152,0.479
        c-0.448,0-0.828-0.155-1.14-0.468c-0.312-0.312-0.468-0.676-0.468-1.092c0-0.432,0.152-0.804,0.456-1.116
        c0.304-0.312,0.688-0.468,1.152-0.468c0.464,0,0.848,0.152,1.152,0.456C102.947,22.44,103.1,22.808,103.1,23.24z"/>
    <path fill="#666666" d="M116.635,18.969c0,0.88-0.156,1.688-0.468,2.424c-0.312,0.736-0.744,1.372-1.296,1.908
        c-0.552,0.536-1.204,0.952-1.956,1.248c-0.752,0.296-1.56,0.443-2.424,0.443c-0.864,0-1.672-0.147-2.424-0.443
        c-0.752-0.296-1.4-0.712-1.944-1.248c-0.544-0.536-0.972-1.172-1.284-1.908c-0.312-0.735-0.468-1.544-0.468-2.424
        s0.156-1.684,0.468-2.412c0.312-0.728,0.74-1.356,1.284-1.884c0.543-0.528,1.191-0.939,1.944-1.236
        c0.752-0.296,1.56-0.444,2.424-0.444c0.864,0,1.672,0.148,2.424,0.444c0.752,0.297,1.404,0.708,1.956,1.236
        c0.552,0.527,0.984,1.156,1.296,1.884C116.479,17.285,116.635,18.089,116.635,18.969z M114.283,18.98
        c0-0.542-0.084-1.061-0.252-1.556c-0.169-0.494-0.414-0.929-0.734-1.304s-0.718-0.674-1.192-0.897s-1.015-0.335-1.625-0.335
        c-0.61,0-1.152,0.111-1.625,0.335c-0.474,0.224-0.871,0.522-1.191,0.897c-0.321,0.375-0.566,0.81-0.734,1.304
        c-0.169,0.495-0.253,1.014-0.253,1.556c0,0.543,0.084,1.062,0.253,1.556c0.168,0.495,0.413,0.934,0.734,1.316
        c0.321,0.383,0.718,0.686,1.191,0.909c0.473,0.224,1.015,0.335,1.625,0.335c0.61,0,1.151-0.111,1.625-0.335
        s0.871-0.526,1.192-0.909s0.565-0.821,0.734-1.316C114.199,20.042,114.283,19.523,114.283,18.98z"/>
    <path fill="#666666" d="M119.251,14.577c-0.016-0.48-0.04-0.904-0.072-1.272h2.136c0.032,0.288,0.056,0.62,0.072,0.996
        c0.016,0.376,0.024,0.684,0.024,0.924h0.072c0.32-0.672,0.788-1.212,1.404-1.62c0.616-0.408,1.308-0.612,2.076-0.612
        c0.352,0,0.648,0.033,0.888,0.097l-0.096,2.088c-0.32-0.08-0.664-0.12-1.032-0.12c-0.544,0-1.016,0.101-1.416,0.3
        c-0.4,0.2-0.732,0.468-0.996,0.805c-0.264,0.336-0.46,0.724-0.588,1.163c-0.128,0.44-0.192,0.9-0.192,1.381v5.976h-2.256v-8.928
        C119.275,15.449,119.267,15.056,119.251,14.577z"/>
    <path fill="#666666" d="M128.419,26.625c0.496,0.56,1.116,1.008,1.86,1.344c0.744,0.336,1.508,0.504,2.292,0.504
        c0.752,0,1.384-0.108,1.896-0.324s0.924-0.512,1.236-0.888s0.536-0.82,0.672-1.332c0.136-0.513,0.204-1.064,0.204-1.656v-1.464
        h-0.048c-0.416,0.641-0.984,1.128-1.704,1.464c-0.72,0.336-1.488,0.504-2.304,0.504c-0.864,0-1.652-0.151-2.364-0.456
        c-0.712-0.304-1.316-0.72-1.812-1.248c-0.496-0.527-0.88-1.147-1.152-1.859s-0.408-1.477-0.408-2.292
        c0-0.816,0.136-1.584,0.408-2.305c0.272-0.72,0.656-1.348,1.152-1.884c0.496-0.535,1.096-0.96,1.8-1.271
        c0.704-0.312,1.488-0.469,2.352-0.469c0.816,0,1.596,0.177,2.34,0.528c0.744,0.353,1.332,0.888,1.764,1.608h0.048v-1.824h2.184
        v10.8c0,0.832-0.104,1.628-0.312,2.388c-0.208,0.76-0.56,1.433-1.056,2.017s-1.144,1.052-1.944,1.404
        c-0.8,0.352-1.792,0.527-2.976,0.527c-0.992,0-1.988-0.18-2.988-0.54c-1-0.359-1.86-0.868-2.58-1.523L128.419,26.625z
         M129.091,18.873c0,0.527,0.084,1.031,0.253,1.512c0.168,0.479,0.417,0.904,0.746,1.271c0.329,0.369,0.726,0.664,1.192,0.889
        c0.465,0.224,0.995,0.336,1.589,0.336c0.577,0,1.107-0.104,1.589-0.312c0.481-0.207,0.891-0.491,1.228-0.852
        s0.598-0.784,0.782-1.272c0.185-0.487,0.277-1.012,0.277-1.571c0-0.544-0.093-1.057-0.277-1.536
        c-0.185-0.48-0.449-0.904-0.794-1.272c-0.345-0.367-0.755-0.66-1.228-0.876c-0.474-0.216-1-0.324-1.577-0.324
        c-0.594,0-1.124,0.108-1.589,0.324c-0.466,0.216-0.863,0.504-1.192,0.864s-0.578,0.784-0.746,1.271
        C129.175,17.812,129.091,18.329,129.091,18.873z"/>
</g>
<g><a xlink:href="/" pointer-events="all" target="_top"><polygon fill="none" points="0,0 145,0 145,35 0,35 0,0"/></a></g>

</g>


<!-- AbsoluteValuable -->
<g id="node1" class="node">
<g id="a_node1"><a xlink:href="/v3.1/protocol/AbsoluteValuable/hierarchy/" target="_top">
<path fill="#999999" stroke="#999999" d="M493.558,-196C493.558,-196 406.442,-196 406.442,-196 402.775,-196 399.109,-192.333 399.109,-188.667 399.109,-188.667 399.109,-181.333 399.109,-181.333 399.109,-177.667 402.775,-174 406.442,-174 406.442,-174 493.558,-174 493.558,-174 497.225,-174 500.891,-177.667 500.891,-181.333 500.891,-181.333 500.891,-188.667 500.891,-188.667 500.891,-192.333 497.225,-196 493.558,-196"/>
<text text-anchor="middle" x="450" y="-181.4" font-family="Helvetica,sans-Serif" font-size="12.00" fill="white">AbsoluteValuable</text>
</a>
</g>
</g>
<!-- FloatingPoint -->
<g id="node10" class="node">
<g id="a_node10"><a xlink:href="/v3.1/protocol/FloatingPoint/hierarchy/" target="_top">
<path fill="#999999" stroke="#999999" d="M429.699,-138C429.699,-138 364.301,-138 364.301,-138 360.634,-138 356.968,-134.333 356.968,-130.667 356.968,-130.667 356.968,-123.333 356.968,-123.333 356.968,-119.667 360.634,-116 364.301,-116 364.301,-116 429.699,-116 429.699,-116 433.366,-116 437.032,-119.667 437.032,-123.333 437.032,-123.333 437.032,-130.667 437.032,-130.667 437.032,-134.333 433.366,-138 429.699,-138"/>
<text text-anchor="middle" x="397" y="-123.4" font-family="Helvetica,sans-Serif" font-size="12.00" fill="white">FloatingPoint</text>
</a>
</g>
</g>
<!-- AbsoluteValuable&#45;&gt;FloatingPoint -->
<g id="edge17" class="edge">
<path fill="none" stroke="#cccccc" d="M440.525,-173.988C433.081,-166.123 422.529,-154.974 413.68,-145.624"/>
<polygon fill="#cccccc" stroke="#cccccc" points="416.168,-143.161 406.752,-138.304 411.084,-147.973 416.168,-143.161"/>
</g>
<!-- Arithmetic -->
<g id="node2" class="node">
<g id="a_node2"><a xlink:href="/v3.1/protocol/Arithmetic/hierarchy/" target="_top">
<path fill="#999999" stroke="#999999" d="M371.174,-254C371.174,-254 322.826,-254 322.826,-254 319.16,-254 315.493,-250.333 315.493,-246.667 315.493,-246.667 315.493,-239.333 315.493,-239.333 315.493,-235.667 319.16,-232 322.826,-232 322.826,-232 371.174,-232 371.174,-232 374.84,-232 378.507,-235.667 378.507,-239.333 378.507,-239.333 378.507,-246.667 378.507,-246.667 378.507,-250.333 374.84,-254 371.174,-254"/>
<text text-anchor="middle" x="347" y="-239.4" font-family="Helvetica,sans-Serif" font-size="12.00" fill="white">Arithmetic</text>
</a>
</g>
</g>
<!-- BinaryInteger -->
<g id="node4" class="node">
<g id="a_node4"><a xlink:href="/v3.1/protocol/BinaryInteger/hierarchy/" target="_top">
<path fill="#999999" stroke="#999999" d="M214.196,-196C214.196,-196 147.804,-196 147.804,-196 144.138,-196 140.471,-192.333 140.471,-188.667 140.471,-188.667 140.471,-181.333 140.471,-181.333 140.471,-177.667 144.138,-174 147.804,-174 147.804,-174 214.196,-174 214.196,-174 217.862,-174 221.529,-177.667 221.529,-181.333 221.529,-181.333 221.529,-188.667 221.529,-188.667 221.529,-192.333 217.862,-196 214.196,-196"/>
<text text-anchor="middle" x="181" y="-181.4" font-family="Helvetica,sans-Serif" font-size="12.00" fill="white">BinaryInteger</text>
</a>
</g>
</g>
<!-- Arithmetic&#45;&gt;BinaryInteger -->
<g id="edge4" class="edge">
<path fill="none" stroke="#cccccc" d="M317.323,-231.988C290.26,-222.859 250.081,-209.305 220.349,-199.274"/>
<polygon fill="#cccccc" stroke="#cccccc" points="221.294,-195.899 210.7,-196.019 219.056,-202.532 221.294,-195.899"/>
</g>
<!-- Arithmetic&#45;&gt;FloatingPoint -->
<g id="edge5" class="edge">
<path fill="none" stroke="#cccccc" d="M351.437,-231.883C359.719,-213.002 377.659,-172.098 388.392,-147.627"/>
<polygon fill="#cccccc" stroke="#cccccc" points="391.689,-148.822 392.501,-138.258 385.279,-146.01 391.689,-148.822"/>
</g>
<!-- SignedArithmetic -->
<g id="node17" class="node">
<g id="a_node17"><a xlink:href="/v3.1/protocol/SignedArithmetic/hierarchy/" target="_top">
<path fill="#999999" stroke="#999999" d="M335.699,-196C335.699,-196 250.301,-196 250.301,-196 246.634,-196 242.967,-192.333 242.967,-188.667 242.967,-188.667 242.967,-181.333 242.967,-181.333 242.967,-177.667 246.634,-174 250.301,-174 250.301,-174 335.699,-174 335.699,-174 339.366,-174 343.033,-177.667 343.033,-181.333 343.033,-181.333 343.033,-188.667 343.033,-188.667 343.033,-192.333 339.366,-196 335.699,-196"/>
<text text-anchor="middle" x="293" y="-181.4" font-family="Helvetica,sans-Serif" font-size="12.00" fill="white">SignedArithmetic</text>
</a>
</g>
</g>
<!-- Arithmetic&#45;&gt;SignedArithmetic -->
<g id="edge6" class="edge">
<path fill="none" stroke="#cccccc" d="M337.346,-231.988C329.762,-224.123 319.011,-212.974 309.994,-203.624"/>
<polygon fill="#cccccc" stroke="#cccccc" points="312.397,-201.073 302.936,-196.304 307.358,-205.932 312.397,-201.073"/>
</g>
<!-- BinaryFloatingPoint -->
<g id="node3" class="node">
<g id="a_node3"><a xlink:href="/v3.1/protocol/BinaryFloatingPoint/hierarchy/" target="_top">
<path fill="#999999" stroke="#999999" d="M309.709,-80C309.709,-80 210.291,-80 210.291,-80 206.624,-80 202.958,-76.3333 202.958,-72.6667 202.958,-72.6667 202.958,-65.3333 202.958,-65.3333 202.958,-61.6667 206.624,-58 210.291,-58 210.291,-58 309.709,-58 309.709,-58 313.376,-58 317.042,-61.6667 317.042,-65.3333 317.042,-65.3333 317.042,-72.6667 317.042,-72.6667 317.042,-76.3333 313.376,-80 309.709,-80"/>
<text text-anchor="middle" x="260" y="-65.4" font-family="Helvetica,sans-Serif" font-size="12.00" fill="white">BinaryFloatingPoint</text>
</a>
</g>
</g>
<!-- Double -->
<g id="node5" class="node">
<g id="a_node5"><a xlink:href="/v3.1/type/Double/hierarchy/" target="_top">
<polygon fill="#999999" stroke="#999999" points="179,-22 125,-22 125,-0 179,-0 179,-22"/>
<text text-anchor="middle" x="152" y="-7.4" font-family="Helvetica,sans-Serif" font-size="12.00" fill="white">Double</text>
</a>
</g>
</g>
<!-- BinaryFloatingPoint&#45;&gt;Double -->
<g id="edge11" class="edge">
<path fill="none" stroke="#cccccc" d="M240.692,-57.9883C223.979,-49.3223 199.577,-36.6696 180.597,-26.8283"/>
<polygon fill="#cccccc" stroke="#cccccc" points="181.994,-23.6099 171.505,-22.1138 178.772,-29.8242 181.994,-23.6099"/>
</g>
<!-- Float -->
<g id="node8" class="node">
<g id="a_node8"><a xlink:href="/v3.1/type/Float/hierarchy/" target="_top">
<polygon fill="#999999" stroke="#999999" points="251,-22 197,-22 197,-0 251,-0 251,-22"/>
<text text-anchor="middle" x="224" y="-7.4" font-family="Helvetica,sans-Serif" font-size="12.00" fill="white">Float</text>
</a>
</g>
</g>
<!-- BinaryFloatingPoint&#45;&gt;Float -->
<g id="edge12" class="edge">
<path fill="none" stroke="#cccccc" d="M253.564,-57.9883C248.71,-50.4379 241.911,-39.8611 236.056,-30.7543"/>
<polygon fill="#cccccc" stroke="#cccccc" points="238.976,-28.823 230.624,-22.3039 233.087,-32.6083 238.976,-28.823"/>
</g>
<!-- Float80 -->
<g id="node9" class="node">
<g id="a_node9"><a xlink:href="/v3.1/type/Float80/hierarchy/" target="_top">
<polygon fill="#999999" stroke="#999999" points="323,-22 269,-22 269,-0 323,-0 323,-22"/>
<text text-anchor="middle" x="296" y="-7.4" font-family="Helvetica,sans-Serif" font-size="12.00" fill="white">Float80</text>
</a>
</g>
</g>
<!-- BinaryFloatingPoint&#45;&gt;Float80 -->
<g id="edge13" class="edge">
<path fill="none" stroke="#cccccc" d="M266.436,-57.9883C271.29,-50.4379 278.089,-39.8611 283.944,-30.7543"/>
<polygon fill="#cccccc" stroke="#cccccc" points="286.913,-32.6083 289.376,-22.3039 281.024,-28.823 286.913,-32.6083"/>
</g>
<!-- FixedWidthInteger -->
<g id="node7" class="node">
<g id="a_node7"><a xlink:href="/v3.1/protocol/FixedWidthInteger/hierarchy/" target="_top">
<path fill="#999999" stroke="#999999" d="M99.1988,-138C99.1988,-138 6.80117,-138 6.80117,-138 3.1345,-138 -0.532166,-134.333 -0.532166,-130.667 -0.532166,-130.667 -0.532166,-123.333 -0.532166,-123.333 -0.532166,-119.667 3.1345,-116 6.80117,-116 6.80117,-116 99.1988,-116 99.1988,-116 102.865,-116 106.532,-119.667 106.532,-123.333 106.532,-123.333 106.532,-130.667 106.532,-130.667 106.532,-134.333 102.865,-138 99.1988,-138"/>
<text text-anchor="middle" x="53" y="-123.4" font-family="Helvetica,sans-Serif" font-size="12.00" fill="white">FixedWidthInteger</text>
</a>
</g>
</g>
<!-- BinaryInteger&#45;&gt;FixedWidthInteger -->
<g id="edge7" class="edge">
<path fill="none" stroke="#cccccc" d="M158.116,-173.988C137.856,-165.124 108.062,-152.09 85.3628,-142.159"/>
<polygon fill="#cccccc" stroke="#cccccc" points="86.6818,-138.916 76.1173,-138.114 83.876,-145.329 86.6818,-138.916"/>
</g>
<!-- SignedInteger_ -->
<g id="node19" class="node">
<g id="a_node19"><a xlink:href="/v3.1/protocol/SignedInteger_/hierarchy/" target="_top">
<path fill="#999999" stroke="#999999" d="M331.215,-138C331.215,-138 254.785,-138 254.785,-138 251.118,-138 247.452,-134.333 247.452,-130.667 247.452,-130.667 247.452,-123.333 247.452,-123.333 247.452,-119.667 251.118,-116 254.785,-116 254.785,-116 331.215,-116 331.215,-116 334.882,-116 338.548,-119.667 338.548,-123.333 338.548,-123.333 338.548,-130.667 338.548,-130.667 338.548,-134.333 334.882,-138 331.215,-138"/>
<text text-anchor="middle" x="293" y="-123.4" font-family="Helvetica,sans-Serif" font-size="12.00" fill="white">SignedInteger_</text>
</a>
</g>
</g>
<!-- BinaryInteger&#45;&gt;SignedInteger_ -->
<g id="edge8" class="edge">
<path fill="none" stroke="#cccccc" d="M201.023,-173.988C218.435,-165.283 243.892,-152.554 263.613,-142.694"/>
<polygon fill="#cccccc" stroke="#cccccc" points="265.393,-145.717 272.772,-138.114 262.263,-139.456 265.393,-145.717"/>
</g>
<!-- UnsignedInteger_ -->
<g id="node27" class="node">
<g id="a_node27"><a xlink:href="/v3.1/protocol/UnsignedInteger_/hierarchy/" target="_top">
<path fill="#999999" stroke="#999999" d="M221.718,-138C221.718,-138 132.282,-138 132.282,-138 128.615,-138 124.948,-134.333 124.948,-130.667 124.948,-130.667 124.948,-123.333 124.948,-123.333 124.948,-119.667 128.615,-116 132.282,-116 132.282,-116 221.718,-116 221.718,-116 225.385,-116 229.052,-119.667 229.052,-123.333 229.052,-123.333 229.052,-130.667 229.052,-130.667 229.052,-134.333 225.385,-138 221.718,-138"/>
<text text-anchor="middle" x="177" y="-123.4" font-family="Helvetica,sans-Serif" font-size="12.00" fill="white">UnsignedInteger_</text>
</a>
</g>
</g>
<!-- BinaryInteger&#45;&gt;UnsignedInteger_ -->
<g id="edge9" class="edge">
<path fill="none" stroke="#cccccc" d="M180.285,-173.988C179.779,-166.91 179.084,-157.171 178.463,-148.478"/>
<polygon fill="#cccccc" stroke="#cccccc" points="181.94,-148.029 177.736,-138.304 174.957,-148.528 181.94,-148.029"/>
</g>
<!-- ExpressibleByIntegerLiteral -->
<g id="node6" class="node">
<g id="a_node6"><a xlink:href="/v3.1/protocol/ExpressibleByIntegerLiteral/" target="_top">
<path fill="#ee543d" stroke="#ee543d" d="M543.722,-312C543.722,-312 402.278,-312 402.278,-312 398.611,-312 394.944,-308.333 394.944,-304.667 394.944,-304.667 394.944,-297.333 394.944,-297.333 394.944,-293.667 398.611,-290 402.278,-290 402.278,-290 543.722,-290 543.722,-290 547.389,-290 551.056,-293.667 551.056,-297.333 551.056,-297.333 551.056,-304.667 551.056,-304.667 551.056,-308.333 547.389,-312 543.722,-312"/>
<text text-anchor="middle" x="473" y="-297.4" font-family="Helvetica,sans-Serif" font-size="12.00" fill="white">ExpressibleByIntegerLiteral</text>
</a>
</g>
</g>
<!-- ExpressibleByIntegerLiteral&#45;&gt;Arithmetic -->
<g id="edge1" class="edge">
<path fill="none" stroke="#cccccc" d="M450.474,-289.988C430.619,-281.164 401.464,-268.206 379.157,-258.292"/>
<polygon fill="#cccccc" stroke="#cccccc" points="380.316,-254.977 369.756,-254.114 377.473,-261.374 380.316,-254.977"/>
</g>
<!-- SignedNumber -->
<g id="node20" class="node">
<g id="a_node20"><a xlink:href="/v3.1/protocol/SignedNumber/hierarchy/" target="_top">
<path fill="#999999" stroke="#999999" d="M510.7,-254C510.7,-254 435.3,-254 435.3,-254 431.633,-254 427.966,-250.333 427.966,-246.667 427.966,-246.667 427.966,-239.333 427.966,-239.333 427.966,-235.667 431.633,-232 435.3,-232 435.3,-232 510.7,-232 510.7,-232 514.367,-232 518.034,-235.667 518.034,-239.333 518.034,-239.333 518.034,-246.667 518.034,-246.667 518.034,-250.333 514.367,-254 510.7,-254"/>
<text text-anchor="middle" x="473" y="-239.4" font-family="Helvetica,sans-Serif" font-size="12.00" fill="white">SignedNumber</text>
</a>
</g>
</g>
<!-- ExpressibleByIntegerLiteral&#45;&gt;SignedNumber -->
<g id="edge2" class="edge">
<path fill="none" stroke="#cccccc" d="M473,-289.988C473,-282.91 473,-273.171 473,-264.478"/>
<polygon fill="#cccccc" stroke="#cccccc" points="476.5,-264.304 473,-254.304 469.5,-264.304 476.5,-264.304"/>
</g>
<!-- _Integer -->
<g id="node29" class="node">
<g id="a_node29"><a xlink:href="/v3.1/protocol/_Integer/hierarchy/" target="_top">
<path fill="#999999" stroke="#999999" d="M621.692,-196C621.692,-196 582.308,-196 582.308,-196 578.642,-196 574.975,-192.333 574.975,-188.667 574.975,-188.667 574.975,-181.333 574.975,-181.333 574.975,-177.667 578.642,-174 582.308,-174 582.308,-174 621.692,-174 621.692,-174 625.358,-174 629.025,-177.667 629.025,-181.333 629.025,-181.333 629.025,-188.667 629.025,-188.667 629.025,-192.333 625.358,-196 621.692,-196"/>
<text text-anchor="middle" x="602" y="-181.4" font-family="Helvetica,sans-Serif" font-size="12.00" fill="white">_Integer</text>
</a>
</g>
</g>
<!-- ExpressibleByIntegerLiteral&#45;&gt;_Integer -->
<g id="edge3" class="edge">
<path fill="none" stroke="#cccccc" d="M485.102,-289.874C496.107,-280.623 512.754,-266.52 527,-254 546.493,-236.868 568.451,-216.876 583.545,-203.024"/>
<polygon fill="#cccccc" stroke="#cccccc" points="586.173,-205.362 591.165,-196.017 581.435,-200.209 586.173,-205.362"/>
</g>
<!-- FloatingPoint&#45;&gt;BinaryFloatingPoint -->
<g id="edge10" class="edge">
<path fill="none" stroke="#cccccc" d="M372.507,-115.988C350.725,-107.085 318.649,-93.9733 294.313,-84.0259"/>
<polygon fill="#cccccc" stroke="#cccccc" points="295.324,-80.6578 284.743,-80.1138 292.675,-87.1374 295.324,-80.6578"/>
</g>
<!-- Int -->
<g id="node11" class="node">
<g id="a_node11"><a xlink:href="/v3.1/type/Int/hierarchy/" target="_top">
<polygon fill="#999999" stroke="#999999" points="395,-22 341,-22 341,-0 395,-0 395,-22"/>
<text text-anchor="middle" x="368" y="-7.4" font-family="Helvetica,sans-Serif" font-size="12.00" fill="white">Int</text>
</a>
</g>
</g>
<!-- Int16 -->
<g id="node12" class="node">
<g id="a_node12"><a xlink:href="/v3.1/type/Int16/hierarchy/" target="_top">
<polygon fill="#999999" stroke="#999999" points="467,-22 413,-22 413,-0 467,-0 467,-22"/>
<text text-anchor="middle" x="440" y="-7.4" font-family="Helvetica,sans-Serif" font-size="12.00" fill="white">Int16</text>
</a>
</g>
</g>
<!-- Int32 -->
<g id="node13" class="node">
<g id="a_node13"><a xlink:href="/v3.1/type/Int32/hierarchy/" target="_top">
<polygon fill="#999999" stroke="#999999" points="539,-22 485,-22 485,-0 539,-0 539,-22"/>
<text text-anchor="middle" x="512" y="-7.4" font-family="Helvetica,sans-Serif" font-size="12.00" fill="white">Int32</text>
</a>
</g>
</g>
<!-- Int64 -->
<g id="node14" class="node">
<g id="a_node14"><a xlink:href="/v3.1/type/Int64/hierarchy/" target="_top">
<polygon fill="#999999" stroke="#999999" points="611,-22 557,-22 557,-0 611,-0 611,-22"/>
<text text-anchor="middle" x="584" y="-7.4" font-family="Helvetica,sans-Serif" font-size="12.00" fill="white">Int64</text>
</a>
</g>
</g>
<!-- Int8 -->
<g id="node15" class="node">
<g id="a_node15"><a xlink:href="/v3.1/type/Int8/hierarchy/" target="_top">
<polygon fill="#999999" stroke="#999999" points="683,-22 629,-22 629,-0 683,-0 683,-22"/>
<text text-anchor="middle" x="656" y="-7.4" font-family="Helvetica,sans-Serif" font-size="12.00" fill="white">Int8</text>
</a>
</g>
</g>
<!-- Integer -->
<g id="node16" class="node">
<g id="a_node16"><a xlink:href="/v3.1/protocol/Integer/hierarchy/" target="_top">
<path fill="#999999" stroke="#999999" d="M639.667,-138C639.667,-138 600.333,-138 600.333,-138 596.667,-138 593,-134.333 593,-130.667 593,-130.667 593,-123.333 593,-123.333 593,-119.667 596.667,-116 600.333,-116 600.333,-116 639.667,-116 639.667,-116 643.333,-116 647,-119.667 647,-123.333 647,-123.333 647,-130.667 647,-130.667 647,-134.333 643.333,-138 639.667,-138"/>
<text text-anchor="middle" x="620" y="-123.4" font-family="Helvetica,sans-Serif" font-size="12.00" fill="white">Integer</text>
</a>
</g>
</g>
<!-- SignedInteger -->
<g id="node18" class="node">
<g id="a_node18"><a xlink:href="/v3.1/protocol/SignedInteger/hierarchy/" target="_top">
<path fill="#999999" stroke="#999999" d="M563.711,-80C563.711,-80 494.289,-80 494.289,-80 490.622,-80 486.956,-76.3333 486.956,-72.6667 486.956,-72.6667 486.956,-65.3333 486.956,-65.3333 486.956,-61.6667 490.622,-58 494.289,-58 494.289,-58 563.711,-58 563.711,-58 567.378,-58 571.044,-61.6667 571.044,-65.3333 571.044,-65.3333 571.044,-72.6667 571.044,-72.6667 571.044,-76.3333 567.378,-80 563.711,-80"/>
<text text-anchor="middle" x="529" y="-65.4" font-family="Helvetica,sans-Serif" font-size="12.00" fill="white">SignedInteger</text>
</a>
</g>
</g>
<!-- Integer&#45;&gt;SignedInteger -->
<g id="edge27" class="edge">
<path fill="none" stroke="#cccccc" d="M603.731,-115.988C589.97,-107.52 570.023,-95.2452 554.198,-85.5067"/>
<polygon fill="#cccccc" stroke="#cccccc" points="555.786,-82.374 545.435,-80.1138 552.117,-88.3356 555.786,-82.374"/>
</g>
<!-- UnsignedInteger -->
<g id="node26" class="node">
<g id="a_node26"><a xlink:href="/v3.1/protocol/UnsignedInteger/hierarchy/" target="_top">
<path fill="#999999" stroke="#999999" d="M841.712,-80C841.712,-80 758.288,-80 758.288,-80 754.621,-80 750.955,-76.3333 750.955,-72.6667 750.955,-72.6667 750.955,-65.3333 750.955,-65.3333 750.955,-61.6667 754.621,-58 758.288,-58 758.288,-58 841.712,-58 841.712,-58 845.379,-58 849.045,-61.6667 849.045,-65.3333 849.045,-65.3333 849.045,-72.6667 849.045,-72.6667 849.045,-76.3333 845.379,-80 841.712,-80"/>
<text text-anchor="middle" x="800" y="-65.4" font-family="Helvetica,sans-Serif" font-size="12.00" fill="white">UnsignedInteger</text>
</a>
</g>
</g>
<!-- Integer&#45;&gt;UnsignedInteger -->
<g id="edge28" class="edge">
<path fill="none" stroke="#cccccc" d="M647.338,-117.495C676.788,-108.333 724.008,-93.6421 758.139,-83.0234"/>
<polygon fill="#cccccc" stroke="#cccccc" points="759.325,-86.3199 767.834,-80.0071 757.246,-79.6359 759.325,-86.3199"/>
</g>
<!-- SignedArithmetic&#45;&gt;SignedInteger_ -->
<g id="edge14" class="edge">
<path fill="none" stroke="#cccccc" d="M293,-173.988C293,-166.91 293,-157.171 293,-148.478"/>
<polygon fill="#cccccc" stroke="#cccccc" points="296.5,-148.304 293,-138.304 289.5,-148.304 296.5,-148.304"/>
</g>
<!-- SignedInteger&#45;&gt;Int -->
<g id="edge19" class="edge">
<path fill="none" stroke="#cccccc" d="M500.216,-57.9883C473.598,-48.7296 433.895,-34.9202 404.946,-24.8507"/>
<polygon fill="#cccccc" stroke="#cccccc" points="405.788,-21.4381 395.193,-21.4586 403.488,-28.0496 405.788,-21.4381"/>
</g>
<!-- SignedInteger&#45;&gt;Int16 -->
<g id="edge20" class="edge">
<path fill="none" stroke="#cccccc" d="M513.089,-57.9883C499.63,-49.5201 480.122,-37.2452 464.645,-27.5067"/>
<polygon fill="#cccccc" stroke="#cccccc" points="466.402,-24.4771 456.074,-22.1138 462.674,-30.4018 466.402,-24.4771"/>
</g>
<!-- SignedInteger&#45;&gt;Int32 -->
<g id="edge21" class="edge">
<path fill="none" stroke="#cccccc" d="M525.961,-57.9883C523.764,-50.7525 520.724,-40.7373 518.041,-31.9"/>
<polygon fill="#cccccc" stroke="#cccccc" points="521.382,-30.856 515.128,-22.3039 514.684,-32.8894 521.382,-30.856"/>
</g>
<!-- SignedInteger&#45;&gt;Int64 -->
<g id="edge22" class="edge">
<path fill="none" stroke="#cccccc" d="M538.833,-57.9883C546.557,-50.1233 557.507,-38.9745 566.691,-29.6239"/>
<polygon fill="#cccccc" stroke="#cccccc" points="569.37,-31.8909 573.88,-22.3039 564.376,-26.9859 569.37,-31.8909"/>
</g>
<!-- SignedInteger&#45;&gt;Int8 -->
<g id="edge23" class="edge">
<path fill="none" stroke="#cccccc" d="M551.705,-57.9883C571.807,-49.1244 601.368,-36.0897 623.89,-26.1587"/>
<polygon fill="#cccccc" stroke="#cccccc" points="625.325,-29.351 633.063,-22.1138 622.501,-22.946 625.325,-29.351"/>
</g>
<!-- SignedNumber&#45;&gt;AbsoluteValuable -->
<g id="edge15" class="edge">
<path fill="none" stroke="#cccccc" d="M468.888,-231.988C465.884,-224.674 461.713,-214.519 458.055,-205.612"/>
<polygon fill="#cccccc" stroke="#cccccc" points="461.269,-204.224 454.232,-196.304 454.794,-206.884 461.269,-204.224"/>
</g>
<!-- _SignedInteger -->
<g id="node30" class="node">
<g id="a_node30"><a xlink:href="/v3.1/protocol/_SignedInteger/hierarchy/" target="_top">
<path fill="#999999" stroke="#999999" d="M567.215,-138C567.215,-138 490.785,-138 490.785,-138 487.118,-138 483.452,-134.333 483.452,-130.667 483.452,-130.667 483.452,-123.333 483.452,-123.333 483.452,-119.667 487.118,-116 490.785,-116 490.785,-116 567.215,-116 567.215,-116 570.882,-116 574.548,-119.667 574.548,-123.333 574.548,-123.333 574.548,-130.667 574.548,-130.667 574.548,-134.333 570.882,-138 567.215,-138"/>
<text text-anchor="middle" x="529" y="-123.4" font-family="Helvetica,sans-Serif" font-size="12.00" fill="white">_SignedInteger</text>
</a>
</g>
</g>
<!-- SignedNumber&#45;&gt;_SignedInteger -->
<g id="edge16" class="edge">
<path fill="none" stroke="#cccccc" d="M483.162,-231.903C491.475,-223.115 502.97,-209.672 510,-196 517.784,-180.861 522.714,-162.136 525.596,-148.171"/>
<polygon fill="#cccccc" stroke="#cccccc" points="529.072,-148.626 527.483,-138.151 522.193,-147.33 529.072,-148.626"/>
</g>
<!-- UInt -->
<g id="node21" class="node">
<g id="a_node21"><a xlink:href="/v3.1/type/UInt/hierarchy/" target="_top">
<polygon fill="#999999" stroke="#999999" points="755,-22 701,-22 701,-0 755,-0 755,-22"/>
<text text-anchor="middle" x="728" y="-7.4" font-family="Helvetica,sans-Serif" font-size="12.00" fill="white">UInt</text>
</a>
</g>
</g>
<!-- UInt16 -->
<g id="node22" class="node">
<g id="a_node22"><a xlink:href="/v3.1/type/UInt16/hierarchy/" target="_top">
<polygon fill="#999999" stroke="#999999" points="827,-22 773,-22 773,-0 827,-0 827,-22"/>
<text text-anchor="middle" x="800" y="-7.4" font-family="Helvetica,sans-Serif" font-size="12.00" fill="white">UInt16</text>
</a>
</g>
</g>
<!-- UInt32 -->
<g id="node23" class="node">
<g id="a_node23"><a xlink:href="/v3.1/type/UInt32/hierarchy/" target="_top">
<polygon fill="#999999" stroke="#999999" points="899,-22 845,-22 845,-0 899,-0 899,-22"/>
<text text-anchor="middle" x="872" y="-7.4" font-family="Helvetica,sans-Serif" font-size="12.00" fill="white">UInt32</text>
</a>
</g>
</g>
<!-- UInt64 -->
<g id="node24" class="node">
<g id="a_node24"><a xlink:href="/v3.1/type/UInt64/hierarchy/" target="_top">
<polygon fill="#999999" stroke="#999999" points="971,-22 917,-22 917,-0 971,-0 971,-22"/>
<text text-anchor="middle" x="944" y="-7.4" font-family="Helvetica,sans-Serif" font-size="12.00" fill="white">UInt64</text>
</a>
</g>
</g>
<!-- UInt8 -->
<g id="node25" class="node">
<g id="a_node25"><a xlink:href="/v3.1/type/UInt8/hierarchy/" target="_top">
<polygon fill="#999999" stroke="#999999" points="1043,-22 989,-22 989,-0 1043,-0 1043,-22"/>
<text text-anchor="middle" x="1016" y="-7.4" font-family="Helvetica,sans-Serif" font-size="12.00" fill="white">UInt8</text>
</a>
</g>
</g>
<!-- UnsignedInteger&#45;&gt;UInt -->
<g id="edge29" class="edge">
<path fill="none" stroke="#cccccc" d="M787.128,-57.9883C776.611,-49.8087 761.528,-38.0773 749.228,-28.5108"/>
<polygon fill="#cccccc" stroke="#cccccc" points="751.29,-25.6806 741.248,-22.3039 746.993,-31.2061 751.29,-25.6806"/>
</g>
<!-- UnsignedInteger&#45;&gt;UInt16 -->
<g id="edge30" class="edge">
<path fill="none" stroke="#cccccc" d="M800,-57.9883C800,-50.9098 800,-41.1714 800,-32.4779"/>
<polygon fill="#cccccc" stroke="#cccccc" points="803.5,-32.3038 800,-22.3039 796.5,-32.3039 803.5,-32.3038"/>
</g>
<!-- UnsignedInteger&#45;&gt;UInt32 -->
<g id="edge31" class="edge">
<path fill="none" stroke="#cccccc" d="M812.872,-57.9883C823.389,-49.8087 838.472,-38.0773 850.772,-28.5108"/>
<polygon fill="#cccccc" stroke="#cccccc" points="853.007,-31.2061 858.752,-22.3039 848.71,-25.6806 853.007,-31.2061"/>
</g>
<!-- UnsignedInteger&#45;&gt;UInt64 -->
<g id="edge32" class="edge">
<path fill="none" stroke="#cccccc" d="M825.744,-57.9883C848.842,-49.0057 882.955,-35.7398 908.614,-25.7614"/>
<polygon fill="#cccccc" stroke="#cccccc" points="909.942,-29.0004 917.993,-22.1138 907.404,-22.4763 909.942,-29.0004"/>
</g>
<!-- UnsignedInteger&#45;&gt;UInt8 -->
<g id="edge33" class="edge">
<path fill="none" stroke="#cccccc" d="M840.454,-57.9168C874.836,-49.2898 925.758,-36.3793 978.937,-22.2477"/>
<polygon fill="#cccccc" stroke="#cccccc" points="980.128,-25.5525 988.89,-19.5955 978.326,-18.7885 980.128,-25.5525"/>
</g>
<!-- _DisallowMixedSignArithmetic -->
<g id="node28" class="node">
<g id="a_node28"><a xlink:href="/v3.1/protocol/_DisallowMixedSignArithmetic/hierarchy/" target="_top">
<path fill="#999999" stroke="#999999" d="M844.709,-138C844.709,-138 689.291,-138 689.291,-138 685.624,-138 681.957,-134.333 681.957,-130.667 681.957,-130.667 681.957,-123.333 681.957,-123.333 681.957,-119.667 685.624,-116 689.291,-116 689.291,-116 844.709,-116 844.709,-116 848.376,-116 852.043,-119.667 852.043,-123.333 852.043,-123.333 852.043,-130.667 852.043,-130.667 852.043,-134.333 848.376,-138 844.709,-138"/>
<text text-anchor="middle" x="767" y="-123.4" font-family="Helvetica,sans-Serif" font-size="12.00" fill="white">_DisallowMixedSignArithmetic</text>
</a>
</g>
</g>
<!-- _DisallowMixedSignArithmetic&#45;&gt;UnsignedInteger -->
<g id="edge34" class="edge">
<path fill="none" stroke="#cccccc" d="M772.9,-115.988C777.303,-108.517 783.452,-98.0812 788.78,-89.0393"/>
<polygon fill="#cccccc" stroke="#cccccc" points="791.866,-90.6962 793.928,-80.3039 785.836,-87.1423 791.866,-90.6962"/>
</g>
<!-- _Integer&#45;&gt;Integer -->
<g id="edge24" class="edge">
<path fill="none" stroke="#cccccc" d="M605.218,-173.988C607.544,-166.752 610.763,-156.737 613.604,-147.9"/>
<polygon fill="#cccccc" stroke="#cccccc" points="616.96,-148.895 616.688,-138.304 610.296,-146.753 616.96,-148.895"/>
</g>
<!-- _Integer&#45;&gt;_DisallowMixedSignArithmetic -->
<g id="edge25" class="edge">
<path fill="none" stroke="#cccccc" d="M629.246,-174.753C656.055,-165.654 697.271,-151.666 727.638,-141.359"/>
<polygon fill="#cccccc" stroke="#cccccc" points="729.139,-144.546 737.483,-138.018 726.889,-137.917 729.139,-144.546"/>
</g>
<!-- _Integer&#45;&gt;_SignedInteger -->
<g id="edge26" class="edge">
<path fill="none" stroke="#cccccc" d="M588.949,-173.988C578.286,-165.809 562.994,-154.077 550.523,-144.511"/>
<polygon fill="#cccccc" stroke="#cccccc" points="552.496,-141.613 542.432,-138.304 548.236,-147.168 552.496,-141.613"/>
</g>
<!-- _SignedInteger&#45;&gt;SignedInteger -->
<g id="edge18" class="edge">
<path fill="none" stroke="#cccccc" d="M529,-115.988C529,-108.91 529,-99.1714 529,-90.4779"/>
<polygon fill="#cccccc" stroke="#cccccc" points="532.5,-90.3038 529,-80.3039 525.5,-90.3039 532.5,-90.3038"/>
</g>
</g>
</svg>
