<?xml version="1.0" encoding="UTF-8" standalone="no"?>
<!DOCTYPE svg PUBLIC "-//W3C//DTD SVG 1.1//EN"
 "http://www.w3.org/Graphics/SVG/1.1/DTD/svg11.dtd">
<!-- Generated by graphviz version 2.36.0 (20140111.2315)
 -->
<!-- Title: CollectionOfOne&lt;Element&gt; &#45; Type Hierarchy &#45; SwiftDoc.org Pages: 1 -->
<svg width="591pt" height="369pt"
 viewBox="0.00 0.00 591.40 369.20" xmlns="http://www.w3.org/2000/svg" xmlns:xlink="http://www.w3.org/1999/xlink">
<g id="graph0" class="graph" transform="scale(1 1) rotate(0) translate(7.2 311.6)">
<g transform="translate(0 -311.6)">
<g>
    <path fill="#666666" d="M13.846,10.832c-0.336-0.464-0.792-0.844-1.368-1.14s-1.224-0.444-1.944-0.444
        c-0.384,0-0.772,0.052-1.164,0.156C8.977,9.509,8.622,9.677,8.301,9.908c-0.32,0.232-0.58,0.52-0.78,0.864
        c-0.2,0.344-0.3,0.756-0.3,1.236c0,0.464,0.092,0.852,0.276,1.164c0.184,0.312,0.432,0.576,0.744,0.792s0.68,0.4,1.104,0.552
        c0.423,0.152,0.876,0.309,1.356,0.468c0.576,0.177,1.16,0.376,1.752,0.601c0.592,0.224,1.128,0.52,1.608,0.888
        s0.872,0.828,1.176,1.38s0.456,1.252,0.456,2.101c0,0.88-0.164,1.644-0.492,2.292c-0.328,0.647-0.765,1.184-1.308,1.607
        c-0.544,0.424-1.172,0.74-1.884,0.948s-1.444,0.312-2.196,0.312c-1.072,0-2.108-0.208-3.108-0.624
        c-1-0.415-1.828-1.031-2.484-1.848l1.848-1.56c0.4,0.592,0.936,1.071,1.608,1.439c0.672,0.368,1.399,0.552,2.184,0.552
        c0.4,0,0.8-0.056,1.2-0.168c0.4-0.111,0.764-0.288,1.092-0.527c0.328-0.24,0.596-0.54,0.804-0.9
        c0.208-0.36,0.312-0.796,0.312-1.308s-0.108-0.94-0.324-1.284c-0.216-0.344-0.508-0.636-0.876-0.876s-0.796-0.444-1.284-0.612
        c-0.488-0.168-1.004-0.34-1.548-0.516c-0.544-0.16-1.08-0.356-1.608-0.588c-0.528-0.232-1-0.528-1.416-0.889
        c-0.416-0.359-0.752-0.804-1.008-1.332c-0.256-0.527-0.384-1.184-0.384-1.968c0-0.848,0.172-1.576,0.516-2.184
        c0.344-0.608,0.792-1.112,1.344-1.512c0.552-0.4,1.176-0.692,1.872-0.876c0.696-0.184,1.396-0.276,2.1-0.276
        c0.992,0,1.92,0.176,2.784,0.528c0.864,0.352,1.56,0.824,2.088,1.416L13.846,10.832z"/>
    <path fill="#666666" d="M18.813,13.304l2.568,8.688h0.048l2.712-8.688h2.376l2.76,8.688h0.048l2.568-8.688h2.376L30.501,24.68
        h-2.352l-2.808-8.544h-0.048l-2.784,8.544h-2.352l-3.792-11.376H18.813z"/>
    <path fill="#666666" d="M38.685,9.2c0,0.416-0.147,0.76-0.44,1.032c-0.294,0.272-0.647,0.408-1.06,0.408s-0.762-0.14-1.047-0.42
        c-0.286-0.28-0.429-0.62-0.429-1.02c0-0.416,0.143-0.764,0.429-1.044c0.286-0.28,0.635-0.42,1.047-0.42s0.766,0.14,1.06,0.42
        C38.538,8.437,38.685,8.784,38.685,9.2z M38.325,24.68h-2.256V13.304h2.256V24.68z"/>
    <path fill="#666666" d="M47.613,15.152h-2.64v9.528h-2.256v-9.528h-2.256v-1.848h2.256v-2.376c0-0.672,0.076-1.292,0.228-1.86
        c0.152-0.568,0.4-1.06,0.744-1.476c0.344-0.416,0.784-0.744,1.32-0.984c0.536-0.24,1.188-0.36,1.956-0.36
        c0.544,0,1.016,0.056,1.416,0.168l-0.264,1.944c-0.176-0.048-0.352-0.088-0.528-0.12c-0.176-0.032-0.376-0.048-0.6-0.048
        c-0.432,0-0.78,0.076-1.044,0.228c-0.264,0.152-0.468,0.356-0.612,0.612s-0.24,0.548-0.288,0.876
        c-0.048,0.328-0.072,0.668-0.072,1.02v2.376h2.64V15.152z"/>
    <path fill="#666666" d="M54.909,15.152h-3.024v5.91c0,0.687,0.128,1.177,0.384,1.472c0.256,0.295,0.664,0.442,1.224,0.442
        c0.208,0,0.432-0.021,0.672-0.065c0.24-0.044,0.456-0.11,0.648-0.198l0.072,1.848c-0.272,0.096-0.572,0.172-0.9,0.229
        c-0.328,0.056-0.668,0.084-1.02,0.084c-1.072,0-1.892-0.296-2.46-0.889c-0.568-0.592-0.852-1.479-0.852-2.664v-6.168h-2.184
        v-1.848h2.184V10.04h2.232v3.264h3.024V15.152z"/>
    <path fill="#666666" d="M57.356,7.688h5.832c1.088,0,2.176,0.16,3.264,0.48c1.088,0.32,2.072,0.824,2.952,1.512
        s1.592,1.568,2.136,2.64c0.544,1.072,0.816,2.36,0.816,3.864c0,1.456-0.272,2.716-0.816,3.78s-1.256,1.943-2.136,2.64
        s-1.864,1.216-2.952,1.561c-1.088,0.344-2.176,0.516-3.264,0.516h-5.832V7.688z M59.732,22.593h2.976
        c1.024,0,1.972-0.145,2.844-0.432c0.872-0.288,1.624-0.704,2.256-1.248c0.632-0.544,1.124-1.216,1.476-2.017
        c0.352-0.8,0.528-1.704,0.528-2.712c0-1.056-0.176-1.983-0.528-2.784c-0.353-0.8-0.844-1.468-1.476-2.004
        c-0.632-0.536-1.384-0.944-2.256-1.224s-1.82-0.42-2.844-0.42h-2.976V22.593z"/>
    <path fill="#666666" d="M86.06,18.969c0,0.88-0.156,1.688-0.468,2.424c-0.312,0.736-0.744,1.372-1.296,1.908
        c-0.552,0.536-1.204,0.952-1.956,1.248c-0.752,0.296-1.56,0.443-2.424,0.443c-0.864,0-1.672-0.147-2.424-0.443
        c-0.752-0.296-1.4-0.712-1.944-1.248c-0.544-0.536-0.972-1.172-1.284-1.908c-0.312-0.735-0.468-1.544-0.468-2.424
        s0.156-1.684,0.468-2.412c0.312-0.728,0.74-1.356,1.284-1.884c0.543-0.528,1.191-0.939,1.944-1.236
        c0.752-0.296,1.56-0.444,2.424-0.444c0.864,0,1.672,0.148,2.424,0.444c0.752,0.297,1.404,0.708,1.956,1.236
        c0.552,0.527,0.984,1.156,1.296,1.884C85.904,17.285,86.06,18.089,86.06,18.969z M83.708,18.98c0-0.542-0.084-1.061-0.252-1.556
        c-0.169-0.494-0.414-0.929-0.734-1.304s-0.718-0.674-1.192-0.897s-1.015-0.335-1.625-0.335c-0.61,0-1.152,0.111-1.625,0.335
        c-0.474,0.224-0.871,0.522-1.191,0.897c-0.321,0.375-0.566,0.81-0.734,1.304C76.184,17.92,76.1,18.438,76.1,18.98
        c0,0.543,0.084,1.062,0.253,1.556c0.168,0.495,0.413,0.934,0.734,1.316c0.321,0.383,0.718,0.686,1.191,0.909
        c0.473,0.224,1.015,0.335,1.625,0.335c0.61,0,1.151-0.111,1.625-0.335s0.871-0.526,1.192-0.909s0.565-0.821,0.734-1.316
        C83.624,20.042,83.708,19.523,83.708,18.98z"/>
    <path fill="#666666" d="M96.428,16.184c-0.24-0.368-0.6-0.676-1.08-0.924s-0.992-0.372-1.536-0.372
        c-0.592,0-1.116,0.112-1.572,0.336c-0.456,0.225-0.844,0.524-1.164,0.9c-0.32,0.376-0.564,0.812-0.732,1.308
        s-0.252,1.017-0.252,1.56c0,0.545,0.084,1.064,0.252,1.561s0.412,0.933,0.732,1.308c0.32,0.376,0.712,0.677,1.176,0.9
        c0.464,0.225,0.992,0.336,1.584,0.336c0.576,0,1.1-0.111,1.572-0.336c0.472-0.224,0.86-0.528,1.164-0.912l1.512,1.368
        c-0.48,0.561-1.08,0.996-1.8,1.308c-0.72,0.312-1.536,0.468-2.448,0.468c-0.88,0-1.692-0.144-2.436-0.432
        c-0.744-0.288-1.388-0.691-1.932-1.212c-0.544-0.52-0.972-1.147-1.284-1.884s-0.468-1.561-0.468-2.473
        c0-0.896,0.152-1.711,0.456-2.447c0.304-0.736,0.728-1.368,1.272-1.896c0.543-0.527,1.188-0.936,1.932-1.224
        c0.744-0.288,1.548-0.433,2.412-0.433c0.8,0,1.596,0.16,2.388,0.48s1.419,0.784,1.884,1.392L96.428,16.184z"/>
    <path fill="#666666" d="M103.1,23.24c0,0.417-0.152,0.784-0.456,1.104c-0.304,0.32-0.688,0.479-1.152,0.479
        c-0.448,0-0.828-0.155-1.14-0.468c-0.312-0.312-0.468-0.676-0.468-1.092c0-0.432,0.152-0.804,0.456-1.116
        c0.304-0.312,0.688-0.468,1.152-0.468c0.464,0,0.848,0.152,1.152,0.456C102.947,22.44,103.1,22.808,103.1,23.24z"/>
    <path fill="#666666" d="M116.635,18.969c0,0.88-0.156,1.688-0.468,2.424c-0.312,0.736-0.744,1.372-1.296,1.908
        c-0.552,0.536-1.204,0.952-1.956,1.248c-0.752,0.296-1.56,0.443-2.424,0.443c-0.864,0-1.672-0.147-2.424-0.443
        c-0.752-0.296-1.4-0.712-1.944-1.248c-0.544-0.536-0.972-1.172-1.284-1.908c-0.312-0.735-0.468-1.544-0.468-2.424
        s0.156-1.684,0.468-2.412c0.312-0.728,0.74-1.356,1.284-1.884c0.543-0.528,1.191-0.939,1.944-1.236
        c0.752-0.296,1.56-0.444,2.424-0.444c0.864,0,1.672,0.148,2.424,0.444c0.752,0.297,1.404,0.708,1.956,1.236
        c0.552,0.527,0.984,1.156,1.296,1.884C116.479,17.285,116.635,18.089,116.635,18.969z M114.283,18.98
        c0-0.542-0.084-1.061-0.252-1.556c-0.169-0.494-0.414-0.929-0.734-1.304s-0.718-0.674-1.192-0.897s-1.015-0.335-1.625-0.335
        c-0.61,0-1.152,0.111-1.625,0.335c-0.474,0.224-0.871,0.522-1.191,0.897c-0.321,0.375-0.566,0.81-0.734,1.304
        c-0.169,0.495-0.253,1.014-0.253,1.556c0,0.543,0.084,1.062,0.253,1.556c0.168,0.495,0.413,0.934,0.734,1.316
        c0.321,0.383,0.718,0.686,1.191,0.909c0.473,0.224,1.015,0.335,1.625,0.335c0.61,0,1.151-0.111,1.625-0.335
        s0.871-0.526,1.192-0.909s0.565-0.821,0.734-1.316C114.199,20.042,114.283,19.523,114.283,18.98z"/>
    <path fill="#666666" d="M119.251,14.577c-0.016-0.48-0.04-0.904-0.072-1.272h2.136c0.032,0.288,0.056,0.62,0.072,0.996
        c0.016,0.376,0.024,0.684,0.024,0.924h0.072c0.32-0.672,0.788-1.212,1.404-1.62c0.616-0.408,1.308-0.612,2.076-0.612
        c0.352,0,0.648,0.033,0.888,0.097l-0.096,2.088c-0.32-0.08-0.664-0.12-1.032-0.12c-0.544,0-1.016,0.101-1.416,0.3
        c-0.4,0.2-0.732,0.468-0.996,0.805c-0.264,0.336-0.46,0.724-0.588,1.163c-0.128,0.44-0.192,0.9-0.192,1.381v5.976h-2.256v-8.928
        C119.275,15.449,119.267,15.056,119.251,14.577z"/>
    <path fill="#666666" d="M128.419,26.625c0.496,0.56,1.116,1.008,1.86,1.344c0.744,0.336,1.508,0.504,2.292,0.504
        c0.752,0,1.384-0.108,1.896-0.324s0.924-0.512,1.236-0.888s0.536-0.82,0.672-1.332c0.136-0.513,0.204-1.064,0.204-1.656v-1.464
        h-0.048c-0.416,0.641-0.984,1.128-1.704,1.464c-0.72,0.336-1.488,0.504-2.304,0.504c-0.864,0-1.652-0.151-2.364-0.456
        c-0.712-0.304-1.316-0.72-1.812-1.248c-0.496-0.527-0.88-1.147-1.152-1.859s-0.408-1.477-0.408-2.292
        c0-0.816,0.136-1.584,0.408-2.305c0.272-0.72,0.656-1.348,1.152-1.884c0.496-0.535,1.096-0.96,1.8-1.271
        c0.704-0.312,1.488-0.469,2.352-0.469c0.816,0,1.596,0.177,2.34,0.528c0.744,0.353,1.332,0.888,1.764,1.608h0.048v-1.824h2.184
        v10.8c0,0.832-0.104,1.628-0.312,2.388c-0.208,0.76-0.56,1.433-1.056,2.017s-1.144,1.052-1.944,1.404
        c-0.8,0.352-1.792,0.527-2.976,0.527c-0.992,0-1.988-0.18-2.988-0.54c-1-0.359-1.86-0.868-2.58-1.523L128.419,26.625z
         M129.091,18.873c0,0.527,0.084,1.031,0.253,1.512c0.168,0.479,0.417,0.904,0.746,1.271c0.329,0.369,0.726,0.664,1.192,0.889
        c0.465,0.224,0.995,0.336,1.589,0.336c0.577,0,1.107-0.104,1.589-0.312c0.481-0.207,0.891-0.491,1.228-0.852
        s0.598-0.784,0.782-1.272c0.185-0.487,0.277-1.012,0.277-1.571c0-0.544-0.093-1.057-0.277-1.536
        c-0.185-0.48-0.449-0.904-0.794-1.272c-0.345-0.367-0.755-0.66-1.228-0.876c-0.474-0.216-1-0.324-1.577-0.324
        c-0.594,0-1.124,0.108-1.589,0.324c-0.466,0.216-0.863,0.504-1.192,0.864s-0.578,0.784-0.746,1.271
        C129.175,17.812,129.091,18.329,129.091,18.873z"/>
</g>
<g><a xlink:href="/" pointer-events="all" target="_top"><polygon fill="none" points="0,0 145,0 145,35 0,35 0,0"/></a></g>

</g>


<!-- BidirectionalCollection -->
<g id="node1" class="node">
<g id="a_node1"><a xlink:href="/v3.1/protocol/BidirectionalCollection/hierarchy/" target="_top">
<path fill="#999999" stroke="#999999" d="M446.712,-138C446.712,-138 333.288,-138 333.288,-138 329.621,-138 325.955,-134.333 325.955,-130.667 325.955,-130.667 325.955,-123.333 325.955,-123.333 325.955,-119.667 329.621,-116 333.288,-116 333.288,-116 446.712,-116 446.712,-116 450.379,-116 454.045,-119.667 454.045,-123.333 454.045,-123.333 454.045,-130.667 454.045,-130.667 454.045,-134.333 450.379,-138 446.712,-138"/>
<text text-anchor="middle" x="390" y="-123.4" font-family="Helvetica,sans-Serif" font-size="12.00" fill="white">BidirectionalCollection</text>
</a>
</g>
</g>
<!-- RandomAccessCollection -->
<g id="node7" class="node">
<g id="a_node7"><a xlink:href="/v3.1/protocol/RandomAccessCollection/hierarchy/" target="_top">
<path fill="#999999" stroke="#999999" d="M464.714,-80C464.714,-80 333.286,-80 333.286,-80 329.62,-80 325.953,-76.3333 325.953,-72.6667 325.953,-72.6667 325.953,-65.3333 325.953,-65.3333 325.953,-61.6667 329.62,-58 333.286,-58 333.286,-58 464.714,-58 464.714,-58 468.38,-58 472.047,-61.6667 472.047,-65.3333 472.047,-65.3333 472.047,-72.6667 472.047,-72.6667 472.047,-76.3333 468.38,-80 464.714,-80"/>
<text text-anchor="middle" x="399" y="-65.4" font-family="Helvetica,sans-Serif" font-size="12.00" fill="white">RandomAccessCollection</text>
</a>
</g>
</g>
<!-- BidirectionalCollection&#45;&gt;RandomAccessCollection -->
<g id="edge7" class="edge">
<path fill="none" stroke="#cccccc" d="M391.609,-115.988C392.759,-108.831 394.347,-98.9547 395.755,-90.1885"/>
<polygon fill="#cccccc" stroke="#cccccc" points="399.213,-90.7326 397.344,-80.3039 392.301,-89.6218 399.213,-90.7326"/>
</g>
<!-- Collection -->
<g id="node2" class="node">
<g id="a_node2"><a xlink:href="/v3.1/protocol/Collection/hierarchy/" target="_top">
<path fill="#999999" stroke="#999999" d="M480.688,-196C480.688,-196 433.312,-196 433.312,-196 429.645,-196 425.978,-192.333 425.978,-188.667 425.978,-188.667 425.978,-181.333 425.978,-181.333 425.978,-177.667 429.645,-174 433.312,-174 433.312,-174 480.688,-174 480.688,-174 484.355,-174 488.022,-177.667 488.022,-181.333 488.022,-181.333 488.022,-188.667 488.022,-188.667 488.022,-192.333 484.355,-196 480.688,-196"/>
<text text-anchor="middle" x="457" y="-181.4" font-family="Helvetica,sans-Serif" font-size="12.00" fill="white">Collection</text>
</a>
</g>
</g>
<!-- Collection&#45;&gt;BidirectionalCollection -->
<g id="edge8" class="edge">
<path fill="none" stroke="#cccccc" d="M445.022,-173.988C435.329,-165.887 421.469,-154.303 410.085,-144.787"/>
<polygon fill="#cccccc" stroke="#cccccc" points="412.245,-142.032 402.328,-138.304 407.756,-147.403 412.245,-142.032"/>
</g>
<!-- MutableCollection -->
<g id="node6" class="node">
<g id="a_node6"><a xlink:href="/v3.1/protocol/MutableCollection/hierarchy/" target="_top">
<path fill="#999999" stroke="#999999" d="M570.205,-138C570.205,-138 479.795,-138 479.795,-138 476.129,-138 472.462,-134.333 472.462,-130.667 472.462,-130.667 472.462,-123.333 472.462,-123.333 472.462,-119.667 476.129,-116 479.795,-116 479.795,-116 570.205,-116 570.205,-116 573.871,-116 577.538,-119.667 577.538,-123.333 577.538,-123.333 577.538,-130.667 577.538,-130.667 577.538,-134.333 573.871,-138 570.205,-138"/>
<text text-anchor="middle" x="525" y="-123.4" font-family="Helvetica,sans-Serif" font-size="12.00" fill="white">MutableCollection</text>
</a>
</g>
</g>
<!-- Collection&#45;&gt;MutableCollection -->
<g id="edge5" class="edge">
<path fill="none" stroke="#cccccc" d="M469.157,-173.988C478.994,-165.887 493.061,-154.303 504.615,-144.787"/>
<polygon fill="#cccccc" stroke="#cccccc" points="506.994,-147.363 512.488,-138.304 502.544,-141.959 506.994,-147.363"/>
</g>
<!-- CollectionOfOne&lt;Element&gt; -->
<g id="node3" class="node">
<g id="a_node3"><a xlink:href="/v3.1/type/CollectionOfOne/" target="_top">
<polygon fill="#ee543d" stroke="#ee543d" points="403.06,-22 246.94,-22 246.94,-0 403.06,-0 403.06,-22"/>
<text text-anchor="middle" x="325" y="-7.4" font-family="Helvetica,sans-Serif" font-size="12.00" fill="white">CollectionOfOne&lt;Element&gt;</text>
</a>
</g>
</g>
<!-- CustomDebugStringConvertible -->
<g id="node4" class="node">
<g id="a_node4"><a xlink:href="/v3.1/protocol/CustomDebugStringConvertible/hierarchy/" target="_top">
<path fill="#999999" stroke="#999999" d="M170.73,-80C170.73,-80 7.2704,-80 7.2704,-80 3.60373,-80 -0.0629365,-76.3333 -0.0629365,-72.6667 -0.0629365,-72.6667 -0.0629365,-65.3333 -0.0629365,-65.3333 -0.0629365,-61.6667 3.60373,-58 7.2704,-58 7.2704,-58 170.73,-58 170.73,-58 174.396,-58 178.063,-61.6667 178.063,-65.3333 178.063,-65.3333 178.063,-72.6667 178.063,-72.6667 178.063,-76.3333 174.396,-80 170.73,-80"/>
<text text-anchor="middle" x="89" y="-65.4" font-family="Helvetica,sans-Serif" font-size="12.00" fill="white">CustomDebugStringConvertible</text>
</a>
</g>
</g>
<!-- CustomDebugStringConvertible&#45;&gt;CollectionOfOne&lt;Element&gt; -->
<g id="edge3" class="edge">
<path fill="none" stroke="#cccccc" d="M131.192,-57.9883C170.838,-48.5809 230.282,-34.4754 272.876,-24.3685"/>
<polygon fill="#cccccc" stroke="#cccccc" points="273.854,-27.7335 282.776,-22.0192 272.238,-20.9227 273.854,-27.7335"/>
</g>
<!-- CustomReflectable -->
<g id="node5" class="node">
<g id="a_node5"><a xlink:href="/v3.1/protocol/CustomReflectable/hierarchy/" target="_top">
<path fill="#999999" stroke="#999999" d="M300.2,-80C300.2,-80 203.8,-80 203.8,-80 200.133,-80 196.466,-76.3333 196.466,-72.6667 196.466,-72.6667 196.466,-65.3333 196.466,-65.3333 196.466,-61.6667 200.133,-58 203.8,-58 203.8,-58 300.2,-58 300.2,-58 303.867,-58 307.534,-61.6667 307.534,-65.3333 307.534,-65.3333 307.534,-72.6667 307.534,-72.6667 307.534,-76.3333 303.867,-80 300.2,-80"/>
<text text-anchor="middle" x="252" y="-65.4" font-family="Helvetica,sans-Serif" font-size="12.00" fill="white">CustomReflectable</text>
</a>
</g>
</g>
<!-- CustomReflectable&#45;&gt;CollectionOfOne&lt;Element&gt; -->
<g id="edge4" class="edge">
<path fill="none" stroke="#cccccc" d="M265.051,-57.9883C275.714,-49.8087 291.006,-38.0773 303.477,-28.5108"/>
<polygon fill="#cccccc" stroke="#cccccc" points="305.764,-31.1675 311.568,-22.3039 301.504,-25.6135 305.764,-31.1675"/>
</g>
<!-- MutableCollection&#45;&gt;CollectionOfOne&lt;Element&gt; -->
<g id="edge1" class="edge">
<path fill="none" stroke="#cccccc" d="M521.03,-115.584C514.792,-100.612 501.277,-73.1482 481,-58 459.337,-41.8164 432.051,-31.3037 406.381,-24.4837"/>
<polygon fill="#cccccc" stroke="#cccccc" points="407.187,-21.0776 396.636,-22.0466 405.488,-27.8685 407.187,-21.0776"/>
</g>
<!-- RandomAccessCollection&#45;&gt;CollectionOfOne&lt;Element&gt; -->
<g id="edge2" class="edge">
<path fill="none" stroke="#cccccc" d="M385.77,-57.9883C374.961,-49.8087 359.459,-38.0773 346.818,-28.5108"/>
<polygon fill="#cccccc" stroke="#cccccc" points="348.702,-25.5474 338.616,-22.3039 344.478,-31.1293 348.702,-25.5474"/>
</g>
<!-- Sequence -->
<g id="node8" class="node">
<g id="a_node8"><a xlink:href="/v3.1/protocol/Sequence/hierarchy/" target="_top">
<path fill="#999999" stroke="#999999" d="M481.702,-254C481.702,-254 432.298,-254 432.298,-254 428.632,-254 424.965,-250.333 424.965,-246.667 424.965,-246.667 424.965,-239.333 424.965,-239.333 424.965,-235.667 428.632,-232 432.298,-232 432.298,-232 481.702,-232 481.702,-232 485.368,-232 489.035,-235.667 489.035,-239.333 489.035,-239.333 489.035,-246.667 489.035,-246.667 489.035,-250.333 485.368,-254 481.702,-254"/>
<text text-anchor="middle" x="457" y="-239.4" font-family="Helvetica,sans-Serif" font-size="12.00" fill="white">Sequence</text>
</a>
</g>
</g>
<!-- Sequence&#45;&gt;Collection -->
<g id="edge6" class="edge">
<path fill="none" stroke="#cccccc" d="M457,-231.988C457,-224.91 457,-215.171 457,-206.478"/>
<polygon fill="#cccccc" stroke="#cccccc" points="460.5,-206.304 457,-196.304 453.5,-206.304 460.5,-206.304"/>
</g>
</g>
</svg>
