<?xml version="1.0" encoding="UTF-8" standalone="no"?>
<!DOCTYPE svg PUBLIC "-//W3C//DTD SVG 1.1//EN"
 "http://www.w3.org/Graphics/SVG/1.1/DTD/svg11.dtd">
<!-- Generated by graphviz version 2.36.0 (20140111.2315)
 -->
<!-- Title: Reflectable &#45; Type Hierarchy &#45; SwiftDoc.org Pages: 1 -->
<svg width="3393pt" height="195pt"
 viewBox="0.00 0.00 3393.40 195.20" xmlns="http://www.w3.org/2000/svg" xmlns:xlink="http://www.w3.org/1999/xlink">
<g id="graph0" class="graph" transform="scale(1 1) rotate(0) translate(7.2 137.6)">
<title>Reflectable &#45; Type Hierarchy &#45; SwiftDoc.org</title>
<polygon fill="white" stroke="none" points="-7.2,57.6 -7.2,-137.6 3386.2,-137.6 3386.2,57.6 -7.2,57.6"/>
<!-- Array -->
<g id="node1" class="node"><title>Array</title>
<g id="a_node1"><a xlink:href="/type/Array/" xlink:title="Array">
<polygon fill="#999999" stroke="#999999" points="54,-22 0,-22 0,-0 54,-0 54,-22"/>
<text text-anchor="middle" x="27" y="-7.4" font-family="Helvetica,sans-Serif" font-size="12.00" fill="white">Array</text>
</a>
</g>
</g>
<!-- ArraySlice -->
<g id="node2" class="node"><title>ArraySlice</title>
<g id="a_node2"><a xlink:href="/type/ArraySlice/" xlink:title="ArraySlice">
<polygon fill="#999999" stroke="#999999" points="136.011,-22 71.9886,-22 71.9886,-0 136.011,-0 136.011,-22"/>
<text text-anchor="middle" x="104" y="-7.4" font-family="Helvetica,sans-Serif" font-size="12.00" fill="white">ArraySlice</text>
</a>
</g>
</g>
<!-- Bit -->
<g id="node3" class="node"><title>Bit</title>
<g id="a_node3"><a xlink:href="/type/Bit/" xlink:title="Bit">
<polygon fill="#999999" stroke="#999999" points="1408,-22 1354,-22 1354,-0 1408,-0 1408,-22"/>
<text text-anchor="middle" x="1381" y="-7.4" font-family="Helvetica,sans-Serif" font-size="12.00" fill="white">Bit</text>
</a>
</g>
</g>
<!-- Bool -->
<g id="node4" class="node"><title>Bool</title>
<g id="a_node4"><a xlink:href="/type/Bool/" xlink:title="Bool">
<polygon fill="#999999" stroke="#999999" points="208,-22 154,-22 154,-0 208,-0 208,-22"/>
<text text-anchor="middle" x="181" y="-7.4" font-family="Helvetica,sans-Serif" font-size="12.00" fill="white">Bool</text>
</a>
</g>
</g>
<!-- Character -->
<g id="node5" class="node"><title>Character</title>
<g id="a_node5"><a xlink:href="/type/Character/" xlink:title="Character">
<polygon fill="#999999" stroke="#999999" points="288.017,-22 225.983,-22 225.983,-0 288.017,-0 288.017,-22"/>
<text text-anchor="middle" x="257" y="-7.4" font-family="Helvetica,sans-Serif" font-size="12.00" fill="white">Character</text>
</a>
</g>
</g>
<!-- ClosedInterval -->
<g id="node6" class="node"><title>ClosedInterval</title>
<g id="a_node6"><a xlink:href="/type/ClosedInterval/" xlink:title="ClosedInterval">
<polygon fill="#999999" stroke="#999999" points="393.03,-22 306.97,-22 306.97,-0 393.03,-0 393.03,-22"/>
<text text-anchor="middle" x="350" y="-7.4" font-family="Helvetica,sans-Serif" font-size="12.00" fill="white">ClosedInterval</text>
</a>
</g>
</g>
<!-- CollectionOfOne -->
<g id="node7" class="node"><title>CollectionOfOne</title>
<g id="a_node7"><a xlink:href="/type/CollectionOfOne/" xlink:title="CollectionOfOne">
<polygon fill="#999999" stroke="#999999" points="509.032,-22 410.968,-22 410.968,-0 509.032,-0 509.032,-22"/>
<text text-anchor="middle" x="460" y="-7.4" font-family="Helvetica,sans-Serif" font-size="12.00" fill="white">CollectionOfOne</text>
</a>
</g>
</g>
<!-- ContiguousArray -->
<g id="node8" class="node"><title>ContiguousArray</title>
<g id="a_node8"><a xlink:href="/type/ContiguousArray/" xlink:title="ContiguousArray">
<polygon fill="#999999" stroke="#999999" points="626.534,-22 527.466,-22 527.466,-0 626.534,-0 626.534,-22"/>
<text text-anchor="middle" x="577" y="-7.4" font-family="Helvetica,sans-Serif" font-size="12.00" fill="white">ContiguousArray</text>
</a>
</g>
</g>
<!-- Dictionary -->
<g id="node9" class="node"><title>Dictionary</title>
<g id="a_node9"><a xlink:href="/type/Dictionary/" xlink:title="Dictionary">
<polygon fill="#999999" stroke="#999999" points="707.511,-22 644.489,-22 644.489,-0 707.511,-0 707.511,-22"/>
<text text-anchor="middle" x="676" y="-7.4" font-family="Helvetica,sans-Serif" font-size="12.00" fill="white">Dictionary</text>
</a>
</g>
</g>
<!-- Double -->
<g id="node10" class="node"><title>Double</title>
<g id="a_node10"><a xlink:href="/type/Double/" xlink:title="Double">
<polygon fill="#999999" stroke="#999999" points="780,-22 726,-22 726,-0 780,-0 780,-22"/>
<text text-anchor="middle" x="753" y="-7.4" font-family="Helvetica,sans-Serif" font-size="12.00" fill="white">Double</text>
</a>
</g>
</g>
<!-- EmptyCollection -->
<g id="node11" class="node"><title>EmptyCollection</title>
<g id="a_node11"><a xlink:href="/type/EmptyCollection/" xlink:title="EmptyCollection">
<polygon fill="#999999" stroke="#999999" points="894.027,-22 797.973,-22 797.973,-0 894.027,-0 894.027,-22"/>
<text text-anchor="middle" x="846" y="-7.4" font-family="Helvetica,sans-Serif" font-size="12.00" fill="white">EmptyCollection</text>
</a>
</g>
</g>
<!-- Float -->
<g id="node12" class="node"><title>Float</title>
<g id="a_node12"><a xlink:href="/type/Float/" xlink:title="Float">
<polygon fill="#999999" stroke="#999999" points="966,-22 912,-22 912,-0 966,-0 966,-22"/>
<text text-anchor="middle" x="939" y="-7.4" font-family="Helvetica,sans-Serif" font-size="12.00" fill="white">Float</text>
</a>
</g>
</g>
<!-- HalfOpenInterval -->
<g id="node13" class="node"><title>HalfOpenInterval</title>
<g id="a_node13"><a xlink:href="/type/HalfOpenInterval/" xlink:title="HalfOpenInterval">
<polygon fill="#999999" stroke="#999999" points="1084.04,-22 983.965,-22 983.965,-0 1084.04,-0 1084.04,-22"/>
<text text-anchor="middle" x="1034" y="-7.4" font-family="Helvetica,sans-Serif" font-size="12.00" fill="white">HalfOpenInterval</text>
</a>
</g>
</g>
<!-- ImplicitlyUnwrappedOptional -->
<g id="node14" class="node"><title>ImplicitlyUnwrappedOptional</title>
<g id="a_node14"><a xlink:href="/type/ImplicitlyUnwrappedOptional/" xlink:title="ImplicitlyUnwrappedOptional">
<polygon fill="#999999" stroke="#999999" points="1264.05,-22 1101.95,-22 1101.95,-0 1264.05,-0 1264.05,-22"/>
<text text-anchor="middle" x="1183" y="-7.4" font-family="Helvetica,sans-Serif" font-size="12.00" fill="white">ImplicitlyUnwrappedOptional</text>
</a>
</g>
</g>
<!-- Int -->
<g id="node15" class="node"><title>Int</title>
<g id="a_node15"><a xlink:href="/type/Int/" xlink:title="Int">
<polygon fill="#999999" stroke="#999999" points="1336,-22 1282,-22 1282,-0 1336,-0 1336,-22"/>
<text text-anchor="middle" x="1309" y="-7.4" font-family="Helvetica,sans-Serif" font-size="12.00" fill="white">Int</text>
</a>
</g>
</g>
<!-- Int&#45;&gt;Bit -->
<g id="edge38" class="edge"><title>Int&#45;&gt;Bit</title>
<path fill="none" stroke="#cccccc" d="M1336.28,-11C1338.74,-11 1341.19,-11 1343.65,-11"/>
<polygon fill="#cccccc" stroke="#cccccc" points="1343.75,-14.5001 1353.75,-11 1343.75,-7.5001 1343.75,-14.5001"/>
</g>
<!-- Int16 -->
<g id="node16" class="node"><title>Int16</title>
<g id="a_node16"><a xlink:href="/type/Int16/" xlink:title="Int16">
<polygon fill="#999999" stroke="#999999" points="1480,-22 1426,-22 1426,-0 1480,-0 1480,-22"/>
<text text-anchor="middle" x="1453" y="-7.4" font-family="Helvetica,sans-Serif" font-size="12.00" fill="white">Int16</text>
</a>
</g>
</g>
<!-- Int32 -->
<g id="node17" class="node"><title>Int32</title>
<g id="a_node17"><a xlink:href="/type/Int32/" xlink:title="Int32">
<polygon fill="#999999" stroke="#999999" points="1552,-22 1498,-22 1498,-0 1552,-0 1552,-22"/>
<text text-anchor="middle" x="1525" y="-7.4" font-family="Helvetica,sans-Serif" font-size="12.00" fill="white">Int32</text>
</a>
</g>
</g>
<!-- Int64 -->
<g id="node18" class="node"><title>Int64</title>
<g id="a_node18"><a xlink:href="/type/Int64/" xlink:title="Int64">
<polygon fill="#999999" stroke="#999999" points="1624,-22 1570,-22 1570,-0 1624,-0 1624,-22"/>
<text text-anchor="middle" x="1597" y="-7.4" font-family="Helvetica,sans-Serif" font-size="12.00" fill="white">Int64</text>
</a>
</g>
</g>
<!-- Int8 -->
<g id="node19" class="node"><title>Int8</title>
<g id="a_node19"><a xlink:href="/type/Int8/" xlink:title="Int8">
<polygon fill="#999999" stroke="#999999" points="1696,-22 1642,-22 1642,-0 1696,-0 1696,-22"/>
<text text-anchor="middle" x="1669" y="-7.4" font-family="Helvetica,sans-Serif" font-size="12.00" fill="white">Int8</text>
</a>
</g>
</g>
<!-- Optional -->
<g id="node20" class="node"><title>Optional</title>
<g id="a_node20"><a xlink:href="/type/Optional/" xlink:title="Optional">
<polygon fill="#999999" stroke="#999999" points="1768.02,-22 1713.98,-22 1713.98,-0 1768.02,-0 1768.02,-22"/>
<text text-anchor="middle" x="1741" y="-7.4" font-family="Helvetica,sans-Serif" font-size="12.00" fill="white">Optional</text>
</a>
</g>
</g>
<!-- Range -->
<g id="node21" class="node"><title>Range</title>
<g id="a_node21"><a xlink:href="/type/Range/" xlink:title="Range">
<polygon fill="#999999" stroke="#999999" points="1840,-22 1786,-22 1786,-0 1840,-0 1840,-22"/>
<text text-anchor="middle" x="1813" y="-7.4" font-family="Helvetica,sans-Serif" font-size="12.00" fill="white">Range</text>
</a>
</g>
</g>
<!-- Reflectable -->
<g id="node22" class="node"><title>Reflectable</title>
<g id="a_node22"><a xlink:href="/protocol/Reflectable/" xlink:title="Reflectable">
<path fill="#ee543d" stroke="#ee543d" d="M1696.69,-80C1696.69,-80 1641.31,-80 1641.31,-80 1637.64,-80 1633.97,-76.3333 1633.97,-72.6667 1633.97,-72.6667 1633.97,-65.3333 1633.97,-65.3333 1633.97,-61.6667 1637.64,-58 1641.31,-58 1641.31,-58 1696.69,-58 1696.69,-58 1700.36,-58 1704.03,-61.6667 1704.03,-65.3333 1704.03,-65.3333 1704.03,-72.6667 1704.03,-72.6667 1704.03,-76.3333 1700.36,-80 1696.69,-80"/>
<text text-anchor="middle" x="1669" y="-65.4" font-family="Helvetica,sans-Serif" font-size="12.00" fill="white">Reflectable</text>
</a>
</g>
</g>
<!-- Reflectable&#45;&gt;Array -->
<g id="edge1" class="edge"><title>Reflectable&#45;&gt;Array</title>
<path fill="none" stroke="#cccccc" d="M1633.83,-68.1497C1430.37,-68.8426 401.756,-69.9511 64.3887,-21.8143"/>
<polygon fill="#cccccc" stroke="#cccccc" points="64.7721,-18.3331 54.3689,-20.339 63.7524,-25.2585 64.7721,-18.3331"/>
</g>
<!-- Reflectable&#45;&gt;ArraySlice -->
<g id="edge2" class="edge"><title>Reflectable&#45;&gt;ArraySlice</title>
<path fill="none" stroke="#cccccc" d="M1633.72,-67.9363C1436.42,-67.4302 467.459,-62.9347 146.337,-21.8545"/>
<polygon fill="#cccccc" stroke="#cccccc" points="146.48,-18.343 136.107,-20.5033 145.563,-25.2827 146.48,-18.343"/>
</g>
<!-- Reflectable&#45;&gt;Bit -->
<g id="edge3" class="edge"><title>Reflectable&#45;&gt;Bit</title>
<path fill="none" stroke="#cccccc" d="M1633.74,-62.5957C1586.68,-55.1591 1500.6,-40.7701 1417.87,-22.0437"/>
<polygon fill="#cccccc" stroke="#cccccc" points="1418.59,-18.6182 1408.06,-19.7991 1417.03,-25.4418 1418.59,-18.6182"/>
</g>
<!-- Reflectable&#45;&gt;Bool -->
<g id="edge4" class="edge"><title>Reflectable&#45;&gt;Bool</title>
<path fill="none" stroke="#cccccc" d="M1633.8,-68.0255C1442.29,-67.9934 523.599,-65.6066 218.526,-21.8377"/>
<polygon fill="#cccccc" stroke="#cccccc" points="218.776,-18.3365 208.37,-20.3302 217.748,-25.2606 218.776,-18.3365"/>
</g>
<!-- Reflectable&#45;&gt;Character -->
<g id="edge5" class="edge"><title>Reflectable&#45;&gt;Character</title>
<path fill="none" stroke="#cccccc" d="M1633.96,-67.8003C1449.41,-66.6019 587.943,-59.1518 298.273,-21.66"/>
<polygon fill="#cccccc" stroke="#cccccc" points="298.588,-18.171 288.212,-20.3135 297.659,-25.1091 298.588,-18.171"/>
</g>
<!-- Reflectable&#45;&gt;ClosedInterval -->
<g id="edge6" class="edge"><title>Reflectable&#45;&gt;ClosedInterval</title>
<path fill="none" stroke="#cccccc" d="M1633.76,-67.4534C1457.59,-64.6109 670.702,-50.5829 403.114,-21.9204"/>
<polygon fill="#cccccc" stroke="#cccccc" points="403.376,-18.4281 393.052,-20.8075 402.606,-25.3857 403.376,-18.4281"/>
</g>
<!-- Reflectable&#45;&gt;CollectionOfOne -->
<g id="edge7" class="edge"><title>Reflectable&#45;&gt;CollectionOfOne</title>
<path fill="none" stroke="#cccccc" d="M1633.56,-68.2689C1493.38,-68.9791 964.122,-68.3231 519.458,-22.0188"/>
<polygon fill="#cccccc" stroke="#cccccc" points="519.611,-18.5157 509.3,-20.9514 518.879,-25.4773 519.611,-18.5157"/>
</g>
<!-- Reflectable&#45;&gt;ContiguousArray -->
<g id="edge8" class="edge"><title>Reflectable&#45;&gt;ContiguousArray</title>
<path fill="none" stroke="#cccccc" d="M1633.61,-68.0416C1502.66,-67.8562 1033.03,-64.1792 636.843,-22.0757"/>
<polygon fill="#cccccc" stroke="#cccccc" points="636.932,-18.5653 626.616,-20.9785 636.186,-25.5254 636.932,-18.5653"/>
</g>
<!-- Reflectable&#45;&gt;Dictionary -->
<g id="edge9" class="edge"><title>Reflectable&#45;&gt;Dictionary</title>
<path fill="none" stroke="#cccccc" d="M1633.97,-67.2038C1487.04,-63.7284 919.164,-48.9062 717.832,-21.7826"/>
<polygon fill="#cccccc" stroke="#cccccc" points="718.056,-18.2799 707.667,-20.3566 717.084,-25.212 718.056,-18.2799"/>
</g>
<!-- Reflectable&#45;&gt;Double -->
<g id="edge10" class="edge"><title>Reflectable&#45;&gt;Double</title>
<path fill="none" stroke="#cccccc" d="M1633.99,-67.1924C1494.3,-63.8152 975.778,-49.7633 790.524,-21.8676"/>
<polygon fill="#cccccc" stroke="#cccccc" points="790.802,-18.3683 780.38,-20.2706 789.714,-25.2832 790.802,-18.3683"/>
</g>
<!-- Reflectable&#45;&gt;EmptyCollection -->
<g id="edge11" class="edge"><title>Reflectable&#45;&gt;EmptyCollection</title>
<path fill="none" stroke="#cccccc" d="M1633.75,-67.308C1526.02,-64.8917 1191.48,-55.153 904.34,-22.0312"/>
<polygon fill="#cccccc" stroke="#cccccc" points="904.483,-18.5243 894.146,-20.843 903.673,-25.4773 904.483,-18.5243"/>
</g>
<!-- Reflectable&#45;&gt;Float -->
<g id="edge12" class="edge"><title>Reflectable&#45;&gt;Float</title>
<path fill="none" stroke="#cccccc" d="M1633.68,-68.199C1532.41,-68.2333 1232.43,-64.586 976.247,-21.8964"/>
<polygon fill="#cccccc" stroke="#cccccc" points="976.83,-18.4454 966.386,-20.2302 975.663,-25.3475 976.83,-18.4454"/>
</g>
<!-- Reflectable&#45;&gt;HalfOpenInterval -->
<g id="edge13" class="edge"><title>Reflectable&#45;&gt;HalfOpenInterval</title>
<path fill="none" stroke="#cccccc" d="M1633.83,-66.2739C1545.08,-61.6881 1304.75,-47.8357 1094.17,-22.0495"/>
<polygon fill="#cccccc" stroke="#cccccc" points="1094.52,-18.5662 1084.17,-20.8125 1093.66,-25.5133 1094.52,-18.5662"/>
</g>
<!-- Reflectable&#45;&gt;ImplicitlyUnwrappedOptional -->
<g id="edge14" class="edge"><title>Reflectable&#45;&gt;ImplicitlyUnwrappedOptional</title>
<path fill="none" stroke="#cccccc" d="M1633.66,-63.9275C1558.88,-55.3118 1382.65,-35.0051 1274.05,-22.4913"/>
<polygon fill="#cccccc" stroke="#cccccc" points="1274.42,-19.0105 1264.08,-21.3427 1273.62,-25.9645 1274.42,-19.0105"/>
</g>
<!-- Reflectable&#45;&gt;Int -->
<g id="edge15" class="edge"><title>Reflectable&#45;&gt;Int</title>
<path fill="none" stroke="#cccccc" d="M1633.74,-64.5121C1575.69,-58.4421 1456.26,-44.5746 1345.99,-21.9846"/>
<polygon fill="#cccccc" stroke="#cccccc" points="1346.54,-18.5233 1336.03,-19.9154 1345.11,-25.3769 1346.54,-18.5233"/>
</g>
<!-- Reflectable&#45;&gt;Int16 -->
<g id="edge16" class="edge"><title>Reflectable&#45;&gt;Int16</title>
<path fill="none" stroke="#cccccc" d="M1633.76,-59.2247C1599.42,-50.6214 1545.48,-36.9747 1489.79,-22.1749"/>
<polygon fill="#cccccc" stroke="#cccccc" points="1490.67,-18.7884 1480.11,-19.5955 1488.87,-25.5524 1490.67,-18.7884"/>
</g>
<!-- Reflectable&#45;&gt;Int32 -->
<g id="edge17" class="edge"><title>Reflectable&#45;&gt;Int32</title>
<path fill="none" stroke="#cccccc" d="M1643.26,-57.9883C1620.16,-49.0057 1586.05,-35.7398 1560.39,-25.7614"/>
<polygon fill="#cccccc" stroke="#cccccc" points="1561.6,-22.4763 1551.01,-22.1138 1559.06,-29.0004 1561.6,-22.4763"/>
</g>
<!-- Reflectable&#45;&gt;Int64 -->
<g id="edge18" class="edge"><title>Reflectable&#45;&gt;Int64</title>
<path fill="none" stroke="#cccccc" d="M1656.13,-57.9883C1645.61,-49.8087 1630.53,-38.0773 1618.23,-28.5108"/>
<polygon fill="#cccccc" stroke="#cccccc" points="1620.29,-25.6806 1610.25,-22.3039 1615.99,-31.2061 1620.29,-25.6806"/>
</g>
<!-- Reflectable&#45;&gt;Int8 -->
<g id="edge19" class="edge"><title>Reflectable&#45;&gt;Int8</title>
<path fill="none" stroke="#cccccc" d="M1669,-57.9883C1669,-50.9098 1669,-41.1714 1669,-32.4779"/>
<polygon fill="#cccccc" stroke="#cccccc" points="1672.5,-32.3038 1669,-22.3039 1665.5,-32.3039 1672.5,-32.3038"/>
</g>
<!-- Reflectable&#45;&gt;Optional -->
<g id="edge20" class="edge"><title>Reflectable&#45;&gt;Optional</title>
<path fill="none" stroke="#cccccc" d="M1681.87,-57.9883C1692.39,-49.8087 1707.47,-38.0773 1719.77,-28.5108"/>
<polygon fill="#cccccc" stroke="#cccccc" points="1722.01,-31.2061 1727.75,-22.3039 1717.71,-25.6806 1722.01,-31.2061"/>
</g>
<!-- Reflectable&#45;&gt;Range -->
<g id="edge21" class="edge"><title>Reflectable&#45;&gt;Range</title>
<path fill="none" stroke="#cccccc" d="M1694.74,-57.9883C1717.84,-49.0057 1751.95,-35.7398 1777.61,-25.7614"/>
<polygon fill="#cccccc" stroke="#cccccc" points="1778.94,-29.0004 1786.99,-22.1138 1776.4,-22.4763 1778.94,-29.0004"/>
</g>
<!-- Set -->
<g id="node23" class="node"><title>Set</title>
<g id="a_node23"><a xlink:href="/type/Set/" xlink:title="Set">
<polygon fill="#999999" stroke="#999999" points="1912,-22 1858,-22 1858,-0 1912,-0 1912,-22"/>
<text text-anchor="middle" x="1885" y="-7.4" font-family="Helvetica,sans-Serif" font-size="12.00" fill="white">Set</text>
</a>
</g>
</g>
<!-- Reflectable&#45;&gt;Set -->
<g id="edge22" class="edge"><title>Reflectable&#45;&gt;Set</title>
<path fill="none" stroke="#cccccc" d="M1704.24,-59.2247C1738.58,-50.6214 1792.52,-36.9747 1848.21,-22.1749"/>
<polygon fill="#cccccc" stroke="#cccccc" points="1849.13,-25.5524 1857.89,-19.5955 1847.33,-18.7884 1849.13,-25.5524"/>
</g>
<!-- StrideThrough -->
<g id="node24" class="node"><title>StrideThrough</title>
<g id="a_node24"><a xlink:href="/type/StrideThrough/" xlink:title="StrideThrough">
<polygon fill="#999999" stroke="#999999" points="2016.03,-22 1929.97,-22 1929.97,-0 2016.03,-0 2016.03,-22"/>
<text text-anchor="middle" x="1973" y="-7.4" font-family="Helvetica,sans-Serif" font-size="12.00" fill="white">StrideThrough</text>
</a>
</g>
</g>
<!-- Reflectable&#45;&gt;StrideThrough -->
<g id="edge23" class="edge"><title>Reflectable&#45;&gt;StrideThrough</title>
<path fill="none" stroke="#cccccc" d="M1704.08,-61.7046C1750.93,-53.2734 1836.77,-37.7417 1920,-22.1744"/>
<polygon fill="#cccccc" stroke="#cccccc" points="1920.69,-25.6067 1929.88,-20.3256 1919.4,-18.7263 1920.69,-25.6067"/>
</g>
<!-- StrideTo -->
<g id="node25" class="node"><title>StrideTo</title>
<g id="a_node25"><a xlink:href="/type/StrideTo/" xlink:title="StrideTo">
<polygon fill="#999999" stroke="#999999" points="2088.02,-22 2033.98,-22 2033.98,-0 2088.02,-0 2088.02,-22"/>
<text text-anchor="middle" x="2061" y="-7.4" font-family="Helvetica,sans-Serif" font-size="12.00" fill="white">StrideTo</text>
</a>
</g>
</g>
<!-- Reflectable&#45;&gt;StrideTo -->
<g id="edge24" class="edge"><title>Reflectable&#45;&gt;StrideTo</title>
<path fill="none" stroke="#cccccc" d="M1704.14,-65.1327C1766.63,-59.673 1901.29,-46.2846 2024.03,-21.9532"/>
<polygon fill="#cccccc" stroke="#cccccc" points="2024.86,-25.3564 2033.97,-19.9523 2023.48,-18.4939 2024.86,-25.3564"/>
</g>
<!-- String -->
<g id="node26" class="node"><title>String</title>
<g id="a_node26"><a xlink:href="/type/String/" xlink:title="String">
<polygon fill="#999999" stroke="#999999" points="2160,-22 2106,-22 2106,-0 2160,-0 2160,-22"/>
<text text-anchor="middle" x="2133" y="-7.4" font-family="Helvetica,sans-Serif" font-size="12.00" fill="white">String</text>
</a>
</g>
</g>
<!-- Reflectable&#45;&gt;String -->
<g id="edge25" class="edge"><title>Reflectable&#45;&gt;String</title>
<path fill="none" stroke="#cccccc" d="M1704.24,-66.1717C1776.21,-62.0187 1945.29,-50.1172 2096.08,-21.8981"/>
<polygon fill="#cccccc" stroke="#cccccc" points="2096.82,-25.3214 2105.99,-20.0157 2095.51,-18.4445 2096.82,-25.3214"/>
</g>
<!-- String.Index -->
<g id="node27" class="node"><title>String.Index</title>
<g id="a_node27"><a xlink:href="/type/String.Index/" xlink:title="String.Index">
<polygon fill="#999999" stroke="#999999" points="2252.03,-22 2177.97,-22 2177.97,-0 2252.03,-0 2252.03,-22"/>
<text text-anchor="middle" x="2215" y="-7.4" font-family="Helvetica,sans-Serif" font-size="12.00" fill="white">String.Index</text>
</a>
</g>
</g>
<!-- Reflectable&#45;&gt;String.Index -->
<g id="edge34" class="edge"><title>Reflectable&#45;&gt;String.Index</title>
<path fill="none" stroke="#cccccc" d="M1704.03,-66.2544C1784.36,-61.9366 1988.07,-49.1915 2168.01,-21.9859"/>
<polygon fill="#cccccc" stroke="#cccccc" points="2168.56,-25.4424 2177.92,-20.4695 2167.5,-18.523 2168.56,-25.4424"/>
</g>
<!-- String.UTF16View -->
<g id="node28" class="node"><title>String.UTF16View</title>
<g id="a_node28"><a xlink:href="/type/String.UTF16View/" xlink:title="String.UTF16View">
<polygon fill="#999999" stroke="#999999" points="2377.37,-22 2270.63,-22 2270.63,-0 2377.37,-0 2377.37,-22"/>
<text text-anchor="middle" x="2324" y="-7.4" font-family="Helvetica,sans-Serif" font-size="12.00" fill="white">String.UTF16View</text>
</a>
</g>
</g>
<!-- Reflectable&#45;&gt;String.UTF16View -->
<g id="edge35" class="edge"><title>Reflectable&#45;&gt;String.UTF16View</title>
<path fill="none" stroke="#cccccc" d="M1704.13,-66.2524C1794.51,-61.546 2042.69,-47.3011 2260.41,-21.9779"/>
<polygon fill="#cccccc" stroke="#cccccc" points="2260.9,-25.4442 2270.42,-20.8024 2260.08,-18.4919 2260.9,-25.4442"/>
</g>
<!-- String.UTF8View -->
<g id="node29" class="node"><title>String.UTF8View</title>
<g id="a_node29"><a xlink:href="/type/String.UTF8View/" xlink:title="String.UTF8View">
<polygon fill="#999999" stroke="#999999" points="2496.36,-22 2395.64,-22 2395.64,-0 2496.36,-0 2496.36,-22"/>
<text text-anchor="middle" x="2446" y="-7.4" font-family="Helvetica,sans-Serif" font-size="12.00" fill="white">String.UTF8View</text>
</a>
</g>
</g>
<!-- Reflectable&#45;&gt;String.UTF8View -->
<g id="edge36" class="edge"><title>Reflectable&#45;&gt;String.UTF8View</title>
<path fill="none" stroke="#cccccc" d="M1704.18,-67.0028C1807.17,-63.8161 2117.15,-52.3236 2385.31,-21.954"/>
<polygon fill="#cccccc" stroke="#cccccc" points="2386.1,-25.387 2395.64,-20.7731 2385.3,-18.4324 2386.1,-25.387"/>
</g>
<!-- String.UnicodeScalarView -->
<g id="node30" class="node"><title>String.UnicodeScalarView</title>
<g id="a_node30"><a xlink:href="/type/String.UnicodeScalarView/" xlink:title="String.UnicodeScalarView">
<polygon fill="#999999" stroke="#999999" points="2662.89,-22 2515.11,-22 2515.11,-0 2662.89,-0 2662.89,-22"/>
<text text-anchor="middle" x="2589" y="-7.4" font-family="Helvetica,sans-Serif" font-size="12.00" fill="white">String.UnicodeScalarView</text>
</a>
</g>
</g>
<!-- Reflectable&#45;&gt;String.UnicodeScalarView -->
<g id="edge37" class="edge"><title>Reflectable&#45;&gt;String.UnicodeScalarView</title>
<path fill="none" stroke="#cccccc" d="M1704.1,-66.8676C1817.89,-63.0274 2187.05,-49.2453 2504.5,-21.9825"/>
<polygon fill="#cccccc" stroke="#cccccc" points="2505.16,-25.4385 2514.82,-21.0896 2504.56,-18.4645 2505.16,-25.4385"/>
</g>
<!-- UInt -->
<g id="node31" class="node"><title>UInt</title>
<g id="a_node31"><a xlink:href="/type/UInt/" xlink:title="UInt">
<polygon fill="#999999" stroke="#999999" points="2735,-22 2681,-22 2681,-0 2735,-0 2735,-22"/>
<text text-anchor="middle" x="2708" y="-7.4" font-family="Helvetica,sans-Serif" font-size="12.00" fill="white">UInt</text>
</a>
</g>
</g>
<!-- Reflectable&#45;&gt;UInt -->
<g id="edge26" class="edge"><title>Reflectable&#45;&gt;UInt</title>
<path fill="none" stroke="#cccccc" d="M1704.09,-67.4497C1856.17,-64.9046 2459.75,-53.1135 2670.58,-21.8413"/>
<polygon fill="#cccccc" stroke="#cccccc" points="2671.28,-25.2761 2680.62,-20.2891 2670.21,-18.3583 2671.28,-25.2761"/>
</g>
<!-- UInt16 -->
<g id="node32" class="node"><title>UInt16</title>
<g id="a_node32"><a xlink:href="/type/UInt16/" xlink:title="UInt16">
<polygon fill="#999999" stroke="#999999" points="2807,-22 2753,-22 2753,-0 2807,-0 2807,-22"/>
<text text-anchor="middle" x="2780" y="-7.4" font-family="Helvetica,sans-Serif" font-size="12.00" fill="white">UInt16</text>
</a>
</g>
</g>
<!-- Reflectable&#45;&gt;UInt16 -->
<g id="edge27" class="edge"><title>Reflectable&#45;&gt;UInt16</title>
<path fill="none" stroke="#cccccc" d="M1704.15,-67.5734C1863.12,-65.4812 2516.57,-55.0952 2742.51,-21.8473"/>
<polygon fill="#cccccc" stroke="#cccccc" points="2743.27,-25.2722 2752.62,-20.298 2742.21,-18.353 2743.27,-25.2722"/>
</g>
<!-- UInt32 -->
<g id="node33" class="node"><title>UInt32</title>
<g id="a_node33"><a xlink:href="/type/UInt32/" xlink:title="UInt32">
<polygon fill="#999999" stroke="#999999" points="2879,-22 2825,-22 2825,-0 2879,-0 2879,-22"/>
<text text-anchor="middle" x="2852" y="-7.4" font-family="Helvetica,sans-Serif" font-size="12.00" fill="white">UInt32</text>
</a>
</g>
</g>
<!-- Reflectable&#45;&gt;UInt32 -->
<g id="edge28" class="edge"><title>Reflectable&#45;&gt;UInt32</title>
<path fill="none" stroke="#cccccc" d="M1704.23,-67.6816C1869.95,-66.0192 2573.56,-57.0814 2814.53,-21.8407"/>
<polygon fill="#cccccc" stroke="#cccccc" points="2815.27,-25.2694 2824.63,-20.3058 2814.21,-18.3489 2815.27,-25.2694"/>
</g>
<!-- UInt64 -->
<g id="node34" class="node"><title>UInt64</title>
<g id="a_node34"><a xlink:href="/type/UInt64/" xlink:title="UInt64">
<polygon fill="#999999" stroke="#999999" points="2951,-22 2897,-22 2897,-0 2951,-0 2951,-22"/>
<text text-anchor="middle" x="2924" y="-7.4" font-family="Helvetica,sans-Serif" font-size="12.00" fill="white">UInt64</text>
</a>
</g>
</g>
<!-- Reflectable&#45;&gt;UInt64 -->
<g id="edge29" class="edge"><title>Reflectable&#45;&gt;UInt64</title>
<path fill="none" stroke="#cccccc" d="M1704.1,-67.7791C1875.99,-66.5315 2630.61,-59.0892 2886.64,-21.8223"/>
<polygon fill="#cccccc" stroke="#cccccc" points="2887.26,-25.2674 2896.63,-20.3127 2886.22,-18.346 2887.26,-25.2674"/>
</g>
<!-- UInt8 -->
<g id="node35" class="node"><title>UInt8</title>
<g id="a_node35"><a xlink:href="/type/UInt8/" xlink:title="UInt8">
<polygon fill="#999999" stroke="#999999" points="3023,-22 2969,-22 2969,-0 3023,-0 3023,-22"/>
<text text-anchor="middle" x="2996" y="-7.4" font-family="Helvetica,sans-Serif" font-size="12.00" fill="white">UInt8</text>
</a>
</g>
</g>
<!-- Reflectable&#45;&gt;UInt8 -->
<g id="edge30" class="edge"><title>Reflectable&#45;&gt;UInt8</title>
<path fill="none" stroke="#cccccc" d="M1704.06,-67.8648C1882.02,-67.0116 2687.07,-61.1038 2958.43,-21.8496"/>
<polygon fill="#cccccc" stroke="#cccccc" points="2959.26,-25.2642 2968.63,-20.3188 2958.22,-18.3418 2959.26,-25.2642"/>
</g>
<!-- UnicodeScalar -->
<g id="node36" class="node"><title>UnicodeScalar</title>
<g id="a_node36"><a xlink:href="/type/UnicodeScalar/" xlink:title="UnicodeScalar">
<polygon fill="#999999" stroke="#999999" points="3129.03,-22 3040.97,-22 3040.97,-0 3129.03,-0 3129.03,-22"/>
<text text-anchor="middle" x="3085" y="-7.4" font-family="Helvetica,sans-Serif" font-size="12.00" fill="white">UnicodeScalar</text>
</a>
</g>
</g>
<!-- Reflectable&#45;&gt;UnicodeScalar -->
<g id="edge31" class="edge"><title>Reflectable&#45;&gt;UnicodeScalar</title>
<path fill="none" stroke="#cccccc" d="M1704.11,-67.5424C1888.07,-65.035 2743.06,-52.0037 3030.83,-21.9333"/>
<polygon fill="#cccccc" stroke="#cccccc" points="3031.26,-25.4075 3040.83,-20.8564 3030.51,-18.4478 3031.26,-25.4075"/>
</g>
<!-- UnsafeMutablePointer -->
<g id="node37" class="node"><title>UnsafeMutablePointer</title>
<g id="a_node37"><a xlink:href="/type/UnsafeMutablePointer/" xlink:title="UnsafeMutablePointer">
<polygon fill="#999999" stroke="#999999" points="3275.05,-22 3146.95,-22 3146.95,-0 3275.05,-0 3275.05,-22"/>
<text text-anchor="middle" x="3211" y="-7.4" font-family="Helvetica,sans-Serif" font-size="12.00" fill="white">UnsafeMutablePointer</text>
</a>
</g>
</g>
<!-- Reflectable&#45;&gt;UnsafeMutablePointer -->
<g id="edge32" class="edge"><title>Reflectable&#45;&gt;UnsafeMutablePointer</title>
<path fill="none" stroke="#cccccc" d="M1704.05,-68.2563C1866.06,-69.1585 2558.67,-69.9201 3136.74,-22.0131"/>
<polygon fill="#cccccc" stroke="#cccccc" points="3137.27,-25.4807 3146.95,-21.1609 3136.69,-18.5049 3137.27,-25.4807"/>
</g>
<!-- UnsafePointer -->
<g id="node38" class="node"><title>UnsafePointer</title>
<g id="a_node38"><a xlink:href="/type/UnsafePointer/" xlink:title="UnsafePointer">
<polygon fill="#999999" stroke="#999999" points="3379.03,-22 3292.97,-22 3292.97,-0 3379.03,-0 3379.03,-22"/>
<text text-anchor="middle" x="3336" y="-7.4" font-family="Helvetica,sans-Serif" font-size="12.00" fill="white">UnsafePointer</text>
</a>
</g>
</g>
<!-- Reflectable&#45;&gt;UnsafePointer -->
<g id="edge33" class="edge"><title>Reflectable&#45;&gt;UnsafePointer</title>
<path fill="none" stroke="#cccccc" d="M1704.31,-67.7707C1908.63,-66.3277 2941.68,-57.4222 3282.82,-21.9188"/>
<polygon fill="#cccccc" stroke="#cccccc" points="3283.38,-25.3786 3292.95,-20.8337 3282.64,-18.4184 3283.38,-25.3786"/>
</g>
</g>
</svg>
