<?xml version="1.0" encoding="UTF-8" standalone="no"?>
<!DOCTYPE svg PUBLIC "-//W3C//DTD SVG 1.1//EN"
 "http://www.w3.org/Graphics/SVG/1.1/DTD/svg11.dtd">
<!-- Generated by graphviz version 2.36.0 (20140111.2315)
 -->
<!-- Title: Reflectable &#45; Type Hierarchy &#45; Swifter Pages: 1 -->
<svg width="3383pt" height="195pt"
 viewBox="0.00 0.00 3383.40 195.20" xmlns="http://www.w3.org/2000/svg" xmlns:xlink="http://www.w3.org/1999/xlink">
<g id="graph0" class="graph" transform="scale(1 1) rotate(0) translate(7.2 137.6)">
<g transform="translate(0 -137.6)">
<g>
    <path fill="#666666" d="M13.846,10.832c-0.336-0.464-0.792-0.844-1.368-1.14s-1.224-0.444-1.944-0.444
        c-0.384,0-0.772,0.052-1.164,0.156C8.977,9.509,8.622,9.677,8.301,9.908c-0.32,0.232-0.58,0.52-0.78,0.864
        c-0.2,0.344-0.3,0.756-0.3,1.236c0,0.464,0.092,0.852,0.276,1.164c0.184,0.312,0.432,0.576,0.744,0.792s0.68,0.4,1.104,0.552
        c0.423,0.152,0.876,0.309,1.356,0.468c0.576,0.177,1.16,0.376,1.752,0.601c0.592,0.224,1.128,0.52,1.608,0.888
        s0.872,0.828,1.176,1.38s0.456,1.252,0.456,2.101c0,0.88-0.164,1.644-0.492,2.292c-0.328,0.647-0.765,1.184-1.308,1.607
        c-0.544,0.424-1.172,0.74-1.884,0.948s-1.444,0.312-2.196,0.312c-1.072,0-2.108-0.208-3.108-0.624
        c-1-0.415-1.828-1.031-2.484-1.848l1.848-1.56c0.4,0.592,0.936,1.071,1.608,1.439c0.672,0.368,1.399,0.552,2.184,0.552
        c0.4,0,0.8-0.056,1.2-0.168c0.4-0.111,0.764-0.288,1.092-0.527c0.328-0.24,0.596-0.54,0.804-0.9
        c0.208-0.36,0.312-0.796,0.312-1.308s-0.108-0.94-0.324-1.284c-0.216-0.344-0.508-0.636-0.876-0.876s-0.796-0.444-1.284-0.612
        c-0.488-0.168-1.004-0.34-1.548-0.516c-0.544-0.16-1.08-0.356-1.608-0.588c-0.528-0.232-1-0.528-1.416-0.889
        c-0.416-0.359-0.752-0.804-1.008-1.332c-0.256-0.527-0.384-1.184-0.384-1.968c0-0.848,0.172-1.576,0.516-2.184
        c0.344-0.608,0.792-1.112,1.344-1.512c0.552-0.4,1.176-0.692,1.872-0.876c0.696-0.184,1.396-0.276,2.1-0.276
        c0.992,0,1.92,0.176,2.784,0.528c0.864,0.352,1.56,0.824,2.088,1.416L13.846,10.832z"/>
    <path fill="#666666" d="M18.813,13.304l2.568,8.688h0.048l2.712-8.688h2.376l2.76,8.688h0.048l2.568-8.688h2.376L30.501,24.68
        h-2.352l-2.808-8.544h-0.048l-2.784,8.544h-2.352l-3.792-11.376H18.813z"/>
    <path fill="#666666" d="M38.685,9.2c0,0.416-0.147,0.76-0.44,1.032c-0.294,0.272-0.647,0.408-1.06,0.408s-0.762-0.14-1.047-0.42
        c-0.286-0.28-0.429-0.62-0.429-1.02c0-0.416,0.143-0.764,0.429-1.044c0.286-0.28,0.635-0.42,1.047-0.42s0.766,0.14,1.06,0.42
        C38.538,8.437,38.685,8.784,38.685,9.2z M38.325,24.68h-2.256V13.304h2.256V24.68z"/>
    <path fill="#666666" d="M47.613,15.152h-2.64v9.528h-2.256v-9.528h-2.256v-1.848h2.256v-2.376c0-0.672,0.076-1.292,0.228-1.86
        c0.152-0.568,0.4-1.06,0.744-1.476c0.344-0.416,0.784-0.744,1.32-0.984c0.536-0.24,1.188-0.36,1.956-0.36
        c0.544,0,1.016,0.056,1.416,0.168l-0.264,1.944c-0.176-0.048-0.352-0.088-0.528-0.12c-0.176-0.032-0.376-0.048-0.6-0.048
        c-0.432,0-0.78,0.076-1.044,0.228c-0.264,0.152-0.468,0.356-0.612,0.612s-0.24,0.548-0.288,0.876
        c-0.048,0.328-0.072,0.668-0.072,1.02v2.376h2.64V15.152z"/>
    <path fill="#666666" d="M54.909,15.152h-3.024v5.91c0,0.687,0.128,1.177,0.384,1.472c0.256,0.295,0.664,0.442,1.224,0.442
        c0.208,0,0.432-0.021,0.672-0.065c0.24-0.044,0.456-0.11,0.648-0.198l0.072,1.848c-0.272,0.096-0.572,0.172-0.9,0.229
        c-0.328,0.056-0.668,0.084-1.02,0.084c-1.072,0-1.892-0.296-2.46-0.889c-0.568-0.592-0.852-1.479-0.852-2.664v-6.168h-2.184
        v-1.848h2.184V10.04h2.232v3.264h3.024V15.152z"/>
    <path fill="#666666" d="M57.356,7.688h5.832c1.088,0,2.176,0.16,3.264,0.48c1.088,0.32,2.072,0.824,2.952,1.512
        s1.592,1.568,2.136,2.64c0.544,1.072,0.816,2.36,0.816,3.864c0,1.456-0.272,2.716-0.816,3.78s-1.256,1.943-2.136,2.64
        s-1.864,1.216-2.952,1.561c-1.088,0.344-2.176,0.516-3.264,0.516h-5.832V7.688z M59.732,22.593h2.976
        c1.024,0,1.972-0.145,2.844-0.432c0.872-0.288,1.624-0.704,2.256-1.248c0.632-0.544,1.124-1.216,1.476-2.017
        c0.352-0.8,0.528-1.704,0.528-2.712c0-1.056-0.176-1.983-0.528-2.784c-0.353-0.8-0.844-1.468-1.476-2.004
        c-0.632-0.536-1.384-0.944-2.256-1.224s-1.82-0.42-2.844-0.42h-2.976V22.593z"/>
    <path fill="#666666" d="M86.06,18.969c0,0.88-0.156,1.688-0.468,2.424c-0.312,0.736-0.744,1.372-1.296,1.908
        c-0.552,0.536-1.204,0.952-1.956,1.248c-0.752,0.296-1.56,0.443-2.424,0.443c-0.864,0-1.672-0.147-2.424-0.443
        c-0.752-0.296-1.4-0.712-1.944-1.248c-0.544-0.536-0.972-1.172-1.284-1.908c-0.312-0.735-0.468-1.544-0.468-2.424
        s0.156-1.684,0.468-2.412c0.312-0.728,0.74-1.356,1.284-1.884c0.543-0.528,1.191-0.939,1.944-1.236
        c0.752-0.296,1.56-0.444,2.424-0.444c0.864,0,1.672,0.148,2.424,0.444c0.752,0.297,1.404,0.708,1.956,1.236
        c0.552,0.527,0.984,1.156,1.296,1.884C85.904,17.285,86.06,18.089,86.06,18.969z M83.708,18.98c0-0.542-0.084-1.061-0.252-1.556
        c-0.169-0.494-0.414-0.929-0.734-1.304s-0.718-0.674-1.192-0.897s-1.015-0.335-1.625-0.335c-0.61,0-1.152,0.111-1.625,0.335
        c-0.474,0.224-0.871,0.522-1.191,0.897c-0.321,0.375-0.566,0.81-0.734,1.304C76.184,17.92,76.1,18.438,76.1,18.98
        c0,0.543,0.084,1.062,0.253,1.556c0.168,0.495,0.413,0.934,0.734,1.316c0.321,0.383,0.718,0.686,1.191,0.909
        c0.473,0.224,1.015,0.335,1.625,0.335c0.61,0,1.151-0.111,1.625-0.335s0.871-0.526,1.192-0.909s0.565-0.821,0.734-1.316
        C83.624,20.042,83.708,19.523,83.708,18.98z"/>
    <path fill="#666666" d="M96.428,16.184c-0.24-0.368-0.6-0.676-1.08-0.924s-0.992-0.372-1.536-0.372
        c-0.592,0-1.116,0.112-1.572,0.336c-0.456,0.225-0.844,0.524-1.164,0.9c-0.32,0.376-0.564,0.812-0.732,1.308
        s-0.252,1.017-0.252,1.56c0,0.545,0.084,1.064,0.252,1.561s0.412,0.933,0.732,1.308c0.32,0.376,0.712,0.677,1.176,0.9
        c0.464,0.225,0.992,0.336,1.584,0.336c0.576,0,1.1-0.111,1.572-0.336c0.472-0.224,0.86-0.528,1.164-0.912l1.512,1.368
        c-0.48,0.561-1.08,0.996-1.8,1.308c-0.72,0.312-1.536,0.468-2.448,0.468c-0.88,0-1.692-0.144-2.436-0.432
        c-0.744-0.288-1.388-0.691-1.932-1.212c-0.544-0.52-0.972-1.147-1.284-1.884s-0.468-1.561-0.468-2.473
        c0-0.896,0.152-1.711,0.456-2.447c0.304-0.736,0.728-1.368,1.272-1.896c0.543-0.527,1.188-0.936,1.932-1.224
        c0.744-0.288,1.548-0.433,2.412-0.433c0.8,0,1.596,0.16,2.388,0.48s1.419,0.784,1.884,1.392L96.428,16.184z"/>
    <path fill="#666666" d="M103.1,23.24c0,0.417-0.152,0.784-0.456,1.104c-0.304,0.32-0.688,0.479-1.152,0.479
        c-0.448,0-0.828-0.155-1.14-0.468c-0.312-0.312-0.468-0.676-0.468-1.092c0-0.432,0.152-0.804,0.456-1.116
        c0.304-0.312,0.688-0.468,1.152-0.468c0.464,0,0.848,0.152,1.152,0.456C102.947,22.44,103.1,22.808,103.1,23.24z"/>
    <path fill="#666666" d="M116.635,18.969c0,0.88-0.156,1.688-0.468,2.424c-0.312,0.736-0.744,1.372-1.296,1.908
        c-0.552,0.536-1.204,0.952-1.956,1.248c-0.752,0.296-1.56,0.443-2.424,0.443c-0.864,0-1.672-0.147-2.424-0.443
        c-0.752-0.296-1.4-0.712-1.944-1.248c-0.544-0.536-0.972-1.172-1.284-1.908c-0.312-0.735-0.468-1.544-0.468-2.424
        s0.156-1.684,0.468-2.412c0.312-0.728,0.74-1.356,1.284-1.884c0.543-0.528,1.191-0.939,1.944-1.236
        c0.752-0.296,1.56-0.444,2.424-0.444c0.864,0,1.672,0.148,2.424,0.444c0.752,0.297,1.404,0.708,1.956,1.236
        c0.552,0.527,0.984,1.156,1.296,1.884C116.479,17.285,116.635,18.089,116.635,18.969z M114.283,18.98
        c0-0.542-0.084-1.061-0.252-1.556c-0.169-0.494-0.414-0.929-0.734-1.304s-0.718-0.674-1.192-0.897s-1.015-0.335-1.625-0.335
        c-0.61,0-1.152,0.111-1.625,0.335c-0.474,0.224-0.871,0.522-1.191,0.897c-0.321,0.375-0.566,0.81-0.734,1.304
        c-0.169,0.495-0.253,1.014-0.253,1.556c0,0.543,0.084,1.062,0.253,1.556c0.168,0.495,0.413,0.934,0.734,1.316
        c0.321,0.383,0.718,0.686,1.191,0.909c0.473,0.224,1.015,0.335,1.625,0.335c0.61,0,1.151-0.111,1.625-0.335
        s0.871-0.526,1.192-0.909s0.565-0.821,0.734-1.316C114.199,20.042,114.283,19.523,114.283,18.98z"/>
    <path fill="#666666" d="M119.251,14.577c-0.016-0.48-0.04-0.904-0.072-1.272h2.136c0.032,0.288,0.056,0.62,0.072,0.996
        c0.016,0.376,0.024,0.684,0.024,0.924h0.072c0.32-0.672,0.788-1.212,1.404-1.62c0.616-0.408,1.308-0.612,2.076-0.612
        c0.352,0,0.648,0.033,0.888,0.097l-0.096,2.088c-0.32-0.08-0.664-0.12-1.032-0.12c-0.544,0-1.016,0.101-1.416,0.3
        c-0.4,0.2-0.732,0.468-0.996,0.805c-0.264,0.336-0.46,0.724-0.588,1.163c-0.128,0.44-0.192,0.9-0.192,1.381v5.976h-2.256v-8.928
        C119.275,15.449,119.267,15.056,119.251,14.577z"/>
    <path fill="#666666" d="M128.419,26.625c0.496,0.56,1.116,1.008,1.86,1.344c0.744,0.336,1.508,0.504,2.292,0.504
        c0.752,0,1.384-0.108,1.896-0.324s0.924-0.512,1.236-0.888s0.536-0.82,0.672-1.332c0.136-0.513,0.204-1.064,0.204-1.656v-1.464
        h-0.048c-0.416,0.641-0.984,1.128-1.704,1.464c-0.72,0.336-1.488,0.504-2.304,0.504c-0.864,0-1.652-0.151-2.364-0.456
        c-0.712-0.304-1.316-0.72-1.812-1.248c-0.496-0.527-0.88-1.147-1.152-1.859s-0.408-1.477-0.408-2.292
        c0-0.816,0.136-1.584,0.408-2.305c0.272-0.72,0.656-1.348,1.152-1.884c0.496-0.535,1.096-0.96,1.8-1.271
        c0.704-0.312,1.488-0.469,2.352-0.469c0.816,0,1.596,0.177,2.34,0.528c0.744,0.353,1.332,0.888,1.764,1.608h0.048v-1.824h2.184
        v10.8c0,0.832-0.104,1.628-0.312,2.388c-0.208,0.76-0.56,1.433-1.056,2.017s-1.144,1.052-1.944,1.404
        c-0.8,0.352-1.792,0.527-2.976,0.527c-0.992,0-1.988-0.18-2.988-0.54c-1-0.359-1.86-0.868-2.58-1.523L128.419,26.625z
         M129.091,18.873c0,0.527,0.084,1.031,0.253,1.512c0.168,0.479,0.417,0.904,0.746,1.271c0.329,0.369,0.726,0.664,1.192,0.889
        c0.465,0.224,0.995,0.336,1.589,0.336c0.577,0,1.107-0.104,1.589-0.312c0.481-0.207,0.891-0.491,1.228-0.852
        s0.598-0.784,0.782-1.272c0.185-0.487,0.277-1.012,0.277-1.571c0-0.544-0.093-1.057-0.277-1.536
        c-0.185-0.48-0.449-0.904-0.794-1.272c-0.345-0.367-0.755-0.66-1.228-0.876c-0.474-0.216-1-0.324-1.577-0.324
        c-0.594,0-1.124,0.108-1.589,0.324c-0.466,0.216-0.863,0.504-1.192,0.864s-0.578,0.784-0.746,1.271
        C129.175,17.812,129.091,18.329,129.091,18.873z"/>
</g>
<g><a xlink:href="/" pointer-events="all" target="_top"><polygon fill="none" points="0,0 145,0 145,35 0,35 0,0"/></a></g>

</g>


<!-- Array -->
<g id="node1" class="node">
<g id="a_node1"><a xlink:href="/type/Array/" target="_top">
<polygon fill="#999999" stroke="#999999" points="54,-22 0,-22 0,-0 54,-0 54,-22"/>
<text text-anchor="middle" x="27" y="-7.4" font-family="Helvetica,sans-Serif" font-size="12.00" fill="white">Array</text>
</a>
</g>
</g>
<!-- Bit -->
<g id="node2" class="node">
<g id="a_node2"><a xlink:href="/type/Bit/" target="_top">
<polygon fill="#999999" stroke="#999999" points="1326,-22 1272,-22 1272,-0 1326,-0 1326,-22"/>
<text text-anchor="middle" x="1299" y="-7.4" font-family="Helvetica,sans-Serif" font-size="12.00" fill="white">Bit</text>
</a>
</g>
</g>
<!-- Bool -->
<g id="node3" class="node">
<g id="a_node3"><a xlink:href="/type/Bool/" target="_top">
<polygon fill="#999999" stroke="#999999" points="126,-22 72,-22 72,-0 126,-0 126,-22"/>
<text text-anchor="middle" x="99" y="-7.4" font-family="Helvetica,sans-Serif" font-size="12.00" fill="white">Bool</text>
</a>
</g>
</g>
<!-- Character -->
<g id="node4" class="node">
<g id="a_node4"><a xlink:href="/type/Character/" target="_top">
<polygon fill="#999999" stroke="#999999" points="206.017,-22 143.983,-22 143.983,-0 206.017,-0 206.017,-22"/>
<text text-anchor="middle" x="175" y="-7.4" font-family="Helvetica,sans-Serif" font-size="12.00" fill="white">Character</text>
</a>
</g>
</g>
<!-- ClosedInterval -->
<g id="node5" class="node">
<g id="a_node5"><a xlink:href="/type/ClosedInterval/" target="_top">
<polygon fill="#999999" stroke="#999999" points="311.03,-22 224.97,-22 224.97,-0 311.03,-0 311.03,-22"/>
<text text-anchor="middle" x="268" y="-7.4" font-family="Helvetica,sans-Serif" font-size="12.00" fill="white">ClosedInterval</text>
</a>
</g>
</g>
<!-- CollectionOfOne -->
<g id="node6" class="node">
<g id="a_node6"><a xlink:href="/type/CollectionOfOne/" target="_top">
<polygon fill="#999999" stroke="#999999" points="427.032,-22 328.968,-22 328.968,-0 427.032,-0 427.032,-22"/>
<text text-anchor="middle" x="378" y="-7.4" font-family="Helvetica,sans-Serif" font-size="12.00" fill="white">CollectionOfOne</text>
</a>
</g>
</g>
<!-- ContiguousArray -->
<g id="node7" class="node">
<g id="a_node7"><a xlink:href="/type/ContiguousArray/" target="_top">
<polygon fill="#999999" stroke="#999999" points="544.534,-22 445.466,-22 445.466,-0 544.534,-0 544.534,-22"/>
<text text-anchor="middle" x="495" y="-7.4" font-family="Helvetica,sans-Serif" font-size="12.00" fill="white">ContiguousArray</text>
</a>
</g>
</g>
<!-- Dictionary -->
<g id="node8" class="node">
<g id="a_node8"><a xlink:href="/type/Dictionary/" target="_top">
<polygon fill="#999999" stroke="#999999" points="625.511,-22 562.489,-22 562.489,-0 625.511,-0 625.511,-22"/>
<text text-anchor="middle" x="594" y="-7.4" font-family="Helvetica,sans-Serif" font-size="12.00" fill="white">Dictionary</text>
</a>
</g>
</g>
<!-- Double -->
<g id="node9" class="node">
<g id="a_node9"><a xlink:href="/type/Double/" target="_top">
<polygon fill="#999999" stroke="#999999" points="698,-22 644,-22 644,-0 698,-0 698,-22"/>
<text text-anchor="middle" x="671" y="-7.4" font-family="Helvetica,sans-Serif" font-size="12.00" fill="white">Double</text>
</a>
</g>
</g>
<!-- EmptyCollection -->
<g id="node10" class="node">
<g id="a_node10"><a xlink:href="/type/EmptyCollection/" target="_top">
<polygon fill="#999999" stroke="#999999" points="812.027,-22 715.973,-22 715.973,-0 812.027,-0 812.027,-22"/>
<text text-anchor="middle" x="764" y="-7.4" font-family="Helvetica,sans-Serif" font-size="12.00" fill="white">EmptyCollection</text>
</a>
</g>
</g>
<!-- Float -->
<g id="node11" class="node">
<g id="a_node11"><a xlink:href="/type/Float/" target="_top">
<polygon fill="#999999" stroke="#999999" points="884,-22 830,-22 830,-0 884,-0 884,-22"/>
<text text-anchor="middle" x="857" y="-7.4" font-family="Helvetica,sans-Serif" font-size="12.00" fill="white">Float</text>
</a>
</g>
</g>
<!-- HalfOpenInterval -->
<g id="node12" class="node">
<g id="a_node12"><a xlink:href="/type/HalfOpenInterval/" target="_top">
<polygon fill="#999999" stroke="#999999" points="1002.04,-22 901.965,-22 901.965,-0 1002.04,-0 1002.04,-22"/>
<text text-anchor="middle" x="952" y="-7.4" font-family="Helvetica,sans-Serif" font-size="12.00" fill="white">HalfOpenInterval</text>
</a>
</g>
</g>
<!-- ImplicitlyUnwrappedOptional -->
<g id="node13" class="node">
<g id="a_node13"><a xlink:href="/type/ImplicitlyUnwrappedOptional/" target="_top">
<polygon fill="#999999" stroke="#999999" points="1182.05,-22 1019.95,-22 1019.95,-0 1182.05,-0 1182.05,-22"/>
<text text-anchor="middle" x="1101" y="-7.4" font-family="Helvetica,sans-Serif" font-size="12.00" fill="white">ImplicitlyUnwrappedOptional</text>
</a>
</g>
</g>
<!-- Int -->
<g id="node14" class="node">
<g id="a_node14"><a xlink:href="/type/Int/" target="_top">
<polygon fill="#999999" stroke="#999999" points="1254,-22 1200,-22 1200,-0 1254,-0 1254,-22"/>
<text text-anchor="middle" x="1227" y="-7.4" font-family="Helvetica,sans-Serif" font-size="12.00" fill="white">Int</text>
</a>
</g>
</g>
<!-- Int&#45;&gt;Bit -->
<g id="edge38" class="edge">
<path fill="none" stroke="#cccccc" d="M1254.28,-11C1256.74,-11 1259.19,-11 1261.65,-11"/>
<polygon fill="#cccccc" stroke="#cccccc" points="1261.75,-14.5001 1271.75,-11 1261.75,-7.5001 1261.75,-14.5001"/>
</g>
<!-- Int16 -->
<g id="node15" class="node">
<g id="a_node15"><a xlink:href="/type/Int16/" target="_top">
<polygon fill="#999999" stroke="#999999" points="1398,-22 1344,-22 1344,-0 1398,-0 1398,-22"/>
<text text-anchor="middle" x="1371" y="-7.4" font-family="Helvetica,sans-Serif" font-size="12.00" fill="white">Int16</text>
</a>
</g>
</g>
<!-- Int32 -->
<g id="node16" class="node">
<g id="a_node16"><a xlink:href="/type/Int32/" target="_top">
<polygon fill="#999999" stroke="#999999" points="1470,-22 1416,-22 1416,-0 1470,-0 1470,-22"/>
<text text-anchor="middle" x="1443" y="-7.4" font-family="Helvetica,sans-Serif" font-size="12.00" fill="white">Int32</text>
</a>
</g>
</g>
<!-- Int64 -->
<g id="node17" class="node">
<g id="a_node17"><a xlink:href="/type/Int64/" target="_top">
<polygon fill="#999999" stroke="#999999" points="1542,-22 1488,-22 1488,-0 1542,-0 1542,-22"/>
<text text-anchor="middle" x="1515" y="-7.4" font-family="Helvetica,sans-Serif" font-size="12.00" fill="white">Int64</text>
</a>
</g>
</g>
<!-- Int8 -->
<g id="node18" class="node">
<g id="a_node18"><a xlink:href="/type/Int8/" target="_top">
<polygon fill="#999999" stroke="#999999" points="1614,-22 1560,-22 1560,-0 1614,-0 1614,-22"/>
<text text-anchor="middle" x="1587" y="-7.4" font-family="Helvetica,sans-Serif" font-size="12.00" fill="white">Int8</text>
</a>
</g>
</g>
<!-- Optional -->
<g id="node19" class="node">
<g id="a_node19"><a xlink:href="/type/Optional/" target="_top">
<polygon fill="#999999" stroke="#999999" points="1686.02,-22 1631.98,-22 1631.98,-0 1686.02,-0 1686.02,-22"/>
<text text-anchor="middle" x="1659" y="-7.4" font-family="Helvetica,sans-Serif" font-size="12.00" fill="white">Optional</text>
</a>
</g>
</g>
<!-- Range -->
<g id="node20" class="node">
<g id="a_node20"><a xlink:href="/type/Range/" target="_top">
<polygon fill="#999999" stroke="#999999" points="1758,-22 1704,-22 1704,-0 1758,-0 1758,-22"/>
<text text-anchor="middle" x="1731" y="-7.4" font-family="Helvetica,sans-Serif" font-size="12.00" fill="white">Range</text>
</a>
</g>
</g>
<!-- Reflectable -->
<g id="node21" class="node">
<g id="a_node21"><a xlink:href="/protocol/Reflectable/" target="_top">
<path fill="#ee543d" stroke="#ee543d" d="M1686.69,-80C1686.69,-80 1631.31,-80 1631.31,-80 1627.64,-80 1623.97,-76.3333 1623.97,-72.6667 1623.97,-72.6667 1623.97,-65.3333 1623.97,-65.3333 1623.97,-61.6667 1627.64,-58 1631.31,-58 1631.31,-58 1686.69,-58 1686.69,-58 1690.36,-58 1694.03,-61.6667 1694.03,-65.3333 1694.03,-65.3333 1694.03,-72.6667 1694.03,-72.6667 1694.03,-76.3333 1690.36,-80 1686.69,-80"/>
<text text-anchor="middle" x="1659" y="-65.4" font-family="Helvetica,sans-Serif" font-size="12.00" fill="white">Reflectable</text>
</a>
</g>
</g>
<!-- Reflectable&#45;&gt;Array -->
<g id="edge1" class="edge">
<path fill="none" stroke="#cccccc" d="M1623.72,-68.1427C1420.79,-68.79 399.958,-69.6595 64.5706,-21.8405"/>
<polygon fill="#cccccc" stroke="#cccccc" points="64.7722,-18.3325 54.369,-20.3385 63.7525,-25.2579 64.7722,-18.3325"/>
</g>
<!-- Reflectable&#45;&gt;Bit -->
<g id="edge2" class="edge">
<path fill="none" stroke="#cccccc" d="M1623.74,-64.5121C1565.69,-58.4421 1446.26,-44.5746 1335.99,-21.9846"/>
<polygon fill="#cccccc" stroke="#cccccc" points="1336.54,-18.5233 1326.03,-19.9154 1335.11,-25.3769 1336.54,-18.5233"/>
</g>
<!-- Reflectable&#45;&gt;Bool -->
<g id="edge3" class="edge">
<path fill="none" stroke="#cccccc" d="M1623.7,-68.0869C1426.28,-68.4002 456.785,-67.6264 136.57,-21.842"/>
<polygon fill="#cccccc" stroke="#cccccc" points="136.774,-18.3343 126.37,-20.3346 135.75,-25.2591 136.774,-18.3343"/>
</g>
<!-- Reflectable&#45;&gt;Character -->
<g id="edge4" class="edge">
<path fill="none" stroke="#cccccc" d="M1623.72,-67.8671C1432.82,-66.9991 521.162,-60.9213 216.36,-21.6694"/>
<polygon fill="#cccccc" stroke="#cccccc" points="216.585,-18.1686 206.211,-20.319 215.662,-25.1075 216.585,-18.1686"/>
</g>
<!-- Reflectable&#45;&gt;ClosedInterval -->
<g id="edge5" class="edge">
<path fill="none" stroke="#cccccc" d="M1623.91,-67.5347C1442,-65.0115 604.305,-52.0031 321.287,-21.9365"/>
<polygon fill="#cccccc" stroke="#cccccc" points="321.373,-18.425 311.051,-20.814 320.61,-25.3833 321.373,-18.425"/>
</g>
<!-- Reflectable&#45;&gt;CollectionOfOne -->
<g id="edge6" class="edge">
<path fill="none" stroke="#cccccc" d="M1623.85,-68.3851C1478.77,-69.6178 912.186,-70.9166 437.44,-22.0132"/>
<polygon fill="#cccccc" stroke="#cccccc" points="437.607,-18.5118 427.299,-20.9594 436.884,-25.4743 437.607,-18.5118"/>
</g>
<!-- Reflectable&#45;&gt;ContiguousArray -->
<g id="edge7" class="edge">
<path fill="none" stroke="#cccccc" d="M1623.54,-68.187C1486.79,-68.5598 980.457,-66.7233 554.658,-22.0513"/>
<polygon fill="#cccccc" stroke="#cccccc" points="554.928,-18.5604 544.615,-20.9881 554.191,-25.5215 554.928,-18.5604"/>
</g>
<!-- Reflectable&#45;&gt;Dictionary -->
<g id="edge8" class="edge">
<path fill="none" stroke="#cccccc" d="M1623.99,-67.3411C1470.06,-64.3061 851.934,-50.6402 635.657,-21.7545"/>
<polygon fill="#cccccc" stroke="#cccccc" points="636.052,-18.2758 625.665,-20.3675 635.089,-25.2093 636.052,-18.2758"/>
</g>
<!-- Reflectable&#45;&gt;Double -->
<g id="edge9" class="edge">
<path fill="none" stroke="#cccccc" d="M1623.95,-67.351C1476.93,-64.4709 908.734,-51.721 708.485,-21.8554"/>
<polygon fill="#cccccc" stroke="#cccccc" points="708.797,-18.3619 698.378,-20.282 707.72,-25.2786 708.797,-18.3619"/>
</g>
<!-- Reflectable&#45;&gt;EmptyCollection -->
<g id="edge10" class="edge">
<path fill="none" stroke="#cccccc" d="M1623.75,-67.5623C1509.47,-65.8275 1138.86,-57.7248 822.432,-22.0331"/>
<polygon fill="#cccccc" stroke="#cccccc" points="822.475,-18.5155 812.143,-20.8606 821.683,-25.4704 822.475,-18.5155"/>
</g>
<!-- Reflectable&#45;&gt;Float -->
<g id="edge11" class="edge">
<path fill="none" stroke="#cccccc" d="M1623.97,-68.5096C1516.16,-69.528 1179.92,-68.5975 894.514,-21.9277"/>
<polygon fill="#cccccc" stroke="#cccccc" points="894.821,-18.4309 884.383,-20.2481 893.676,-25.3367 894.821,-18.4309"/>
</g>
<!-- Reflectable&#45;&gt;HalfOpenInterval -->
<g id="edge12" class="edge">
<path fill="none" stroke="#cccccc" d="M1623.76,-66.7016C1527.46,-62.8972 1251.6,-50.2905 1012.1,-22.0272"/>
<polygon fill="#cccccc" stroke="#cccccc" points="1012.51,-18.5509 1002.16,-20.8428 1011.68,-25.5017 1012.51,-18.5509"/>
</g>
<!-- Reflectable&#45;&gt;ImplicitlyUnwrappedOptional -->
<g id="edge13" class="edge">
<path fill="none" stroke="#cccccc" d="M1623.76,-64.6901C1547.27,-57.4733 1360.09,-39.6323 1192.43,-22.1395"/>
<polygon fill="#cccccc" stroke="#cccccc" points="1192.74,-18.6534 1182.43,-21.0946 1192.01,-25.6154 1192.74,-18.6534"/>
</g>
<!-- Reflectable&#45;&gt;Int -->
<g id="edge14" class="edge">
<path fill="none" stroke="#cccccc" d="M1623.76,-65.7511C1555.87,-61.0237 1402.2,-48.4031 1263.95,-21.921"/>
<polygon fill="#cccccc" stroke="#cccccc" points="1264.5,-18.4641 1254.02,-19.9903 1263.17,-25.3353 1264.5,-18.4641"/>
</g>
<!-- Reflectable&#45;&gt;Int16 -->
<g id="edge15" class="edge">
<path fill="none" stroke="#cccccc" d="M1623.74,-62.5957C1576.68,-55.1591 1490.6,-40.7701 1407.87,-22.0437"/>
<polygon fill="#cccccc" stroke="#cccccc" points="1408.59,-18.6182 1398.06,-19.7991 1407.03,-25.4418 1408.59,-18.6182"/>
</g>
<!-- Reflectable&#45;&gt;Int32 -->
<g id="edge16" class="edge">
<path fill="none" stroke="#cccccc" d="M1623.76,-59.2247C1589.42,-50.6214 1535.48,-36.9747 1479.79,-22.1749"/>
<polygon fill="#cccccc" stroke="#cccccc" points="1480.67,-18.7884 1470.11,-19.5955 1478.87,-25.5524 1480.67,-18.7884"/>
</g>
<!-- Reflectable&#45;&gt;Int64 -->
<g id="edge17" class="edge">
<path fill="none" stroke="#cccccc" d="M1633.26,-57.9883C1610.16,-49.0057 1576.05,-35.7398 1550.39,-25.7614"/>
<polygon fill="#cccccc" stroke="#cccccc" points="1551.6,-22.4763 1541.01,-22.1138 1549.06,-29.0004 1551.6,-22.4763"/>
</g>
<!-- Reflectable&#45;&gt;Int8 -->
<g id="edge18" class="edge">
<path fill="none" stroke="#cccccc" d="M1646.13,-57.9883C1635.61,-49.8087 1620.53,-38.0773 1608.23,-28.5108"/>
<polygon fill="#cccccc" stroke="#cccccc" points="1610.29,-25.6806 1600.25,-22.3039 1605.99,-31.2061 1610.29,-25.6806"/>
</g>
<!-- Reflectable&#45;&gt;Optional -->
<g id="edge19" class="edge">
<path fill="none" stroke="#cccccc" d="M1659,-57.9883C1659,-50.9098 1659,-41.1714 1659,-32.4779"/>
<polygon fill="#cccccc" stroke="#cccccc" points="1662.5,-32.3038 1659,-22.3039 1655.5,-32.3039 1662.5,-32.3038"/>
</g>
<!-- Reflectable&#45;&gt;Range -->
<g id="edge20" class="edge">
<path fill="none" stroke="#cccccc" d="M1671.87,-57.9883C1682.39,-49.8087 1697.47,-38.0773 1709.77,-28.5108"/>
<polygon fill="#cccccc" stroke="#cccccc" points="1712.01,-31.2061 1717.75,-22.3039 1707.71,-25.6806 1712.01,-31.2061"/>
</g>
<!-- Set -->
<g id="node22" class="node">
<g id="a_node22"><a xlink:href="/type/Set/" target="_top">
<polygon fill="#999999" stroke="#999999" points="1830,-22 1776,-22 1776,-0 1830,-0 1830,-22"/>
<text text-anchor="middle" x="1803" y="-7.4" font-family="Helvetica,sans-Serif" font-size="12.00" fill="white">Set</text>
</a>
</g>
</g>
<!-- Reflectable&#45;&gt;Set -->
<g id="edge21" class="edge">
<path fill="none" stroke="#cccccc" d="M1684.74,-57.9883C1707.84,-49.0057 1741.95,-35.7398 1767.61,-25.7614"/>
<polygon fill="#cccccc" stroke="#cccccc" points="1768.94,-29.0004 1776.99,-22.1138 1766.4,-22.4763 1768.94,-29.0004"/>
</g>
<!-- Slice -->
<g id="node23" class="node">
<g id="a_node23"><a xlink:href="/type/Slice/" target="_top">
<polygon fill="#999999" stroke="#999999" points="1902,-22 1848,-22 1848,-0 1902,-0 1902,-22"/>
<text text-anchor="middle" x="1875" y="-7.4" font-family="Helvetica,sans-Serif" font-size="12.00" fill="white">Slice</text>
</a>
</g>
</g>
<!-- Reflectable&#45;&gt;Slice -->
<g id="edge22" class="edge">
<path fill="none" stroke="#cccccc" d="M1694.24,-59.2247C1728.58,-50.6214 1782.52,-36.9747 1838.21,-22.1749"/>
<polygon fill="#cccccc" stroke="#cccccc" points="1839.13,-25.5524 1847.89,-19.5955 1837.33,-18.7884 1839.13,-25.5524"/>
</g>
<!-- StrideThrough -->
<g id="node24" class="node">
<g id="a_node24"><a xlink:href="/type/StrideThrough/" target="_top">
<polygon fill="#999999" stroke="#999999" points="2006.03,-22 1919.97,-22 1919.97,-0 2006.03,-0 2006.03,-22"/>
<text text-anchor="middle" x="1963" y="-7.4" font-family="Helvetica,sans-Serif" font-size="12.00" fill="white">StrideThrough</text>
</a>
</g>
</g>
<!-- Reflectable&#45;&gt;StrideThrough -->
<g id="edge23" class="edge">
<path fill="none" stroke="#cccccc" d="M1694.08,-61.7046C1740.93,-53.2734 1826.77,-37.7417 1910,-22.1744"/>
<polygon fill="#cccccc" stroke="#cccccc" points="1910.69,-25.6067 1919.88,-20.3256 1909.4,-18.7263 1910.69,-25.6067"/>
</g>
<!-- StrideTo -->
<g id="node25" class="node">
<g id="a_node25"><a xlink:href="/type/StrideTo/" target="_top">
<polygon fill="#999999" stroke="#999999" points="2078.02,-22 2023.98,-22 2023.98,-0 2078.02,-0 2078.02,-22"/>
<text text-anchor="middle" x="2051" y="-7.4" font-family="Helvetica,sans-Serif" font-size="12.00" fill="white">StrideTo</text>
</a>
</g>
</g>
<!-- Reflectable&#45;&gt;StrideTo -->
<g id="edge24" class="edge">
<path fill="none" stroke="#cccccc" d="M1694.14,-65.1327C1756.63,-59.673 1891.29,-46.2846 2014.03,-21.9532"/>
<polygon fill="#cccccc" stroke="#cccccc" points="2014.86,-25.3564 2023.97,-19.9523 2013.48,-18.4939 2014.86,-25.3564"/>
</g>
<!-- String -->
<g id="node26" class="node">
<g id="a_node26"><a xlink:href="/type/String/" target="_top">
<polygon fill="#999999" stroke="#999999" points="2150,-22 2096,-22 2096,-0 2150,-0 2150,-22"/>
<text text-anchor="middle" x="2123" y="-7.4" font-family="Helvetica,sans-Serif" font-size="12.00" fill="white">String</text>
</a>
</g>
</g>
<!-- Reflectable&#45;&gt;String -->
<g id="edge25" class="edge">
<path fill="none" stroke="#cccccc" d="M1694.24,-66.1717C1766.21,-62.0187 1935.29,-50.1172 2086.08,-21.8981"/>
<polygon fill="#cccccc" stroke="#cccccc" points="2086.82,-25.3214 2095.99,-20.0157 2085.51,-18.4445 2086.82,-25.3214"/>
</g>
<!-- String.Index -->
<g id="node27" class="node">
<g id="a_node27"><a xlink:href="/type/String.Index/" target="_top">
<polygon fill="#999999" stroke="#999999" points="2242.03,-22 2167.97,-22 2167.97,-0 2242.03,-0 2242.03,-22"/>
<text text-anchor="middle" x="2205" y="-7.4" font-family="Helvetica,sans-Serif" font-size="12.00" fill="white">String.Index</text>
</a>
</g>
</g>
<!-- Reflectable&#45;&gt;String.Index -->
<g id="edge34" class="edge">
<path fill="none" stroke="#cccccc" d="M1694.03,-66.2544C1774.36,-61.9366 1978.07,-49.1915 2158.01,-21.9859"/>
<polygon fill="#cccccc" stroke="#cccccc" points="2158.56,-25.4424 2167.92,-20.4695 2157.5,-18.523 2158.56,-25.4424"/>
</g>
<!-- String.UTF16View -->
<g id="node28" class="node">
<g id="a_node28"><a xlink:href="/type/String.UTF16View/" target="_top">
<polygon fill="#999999" stroke="#999999" points="2367.37,-22 2260.63,-22 2260.63,-0 2367.37,-0 2367.37,-22"/>
<text text-anchor="middle" x="2314" y="-7.4" font-family="Helvetica,sans-Serif" font-size="12.00" fill="white">String.UTF16View</text>
</a>
</g>
</g>
<!-- Reflectable&#45;&gt;String.UTF16View -->
<g id="edge35" class="edge">
<path fill="none" stroke="#cccccc" d="M1694.13,-66.2524C1784.51,-61.546 2032.69,-47.3011 2250.41,-21.9779"/>
<polygon fill="#cccccc" stroke="#cccccc" points="2250.9,-25.4442 2260.42,-20.8024 2250.08,-18.4919 2250.9,-25.4442"/>
</g>
<!-- String.UTF8View -->
<g id="node29" class="node">
<g id="a_node29"><a xlink:href="/type/String.UTF8View/" target="_top">
<polygon fill="#999999" stroke="#999999" points="2486.36,-22 2385.64,-22 2385.64,-0 2486.36,-0 2486.36,-22"/>
<text text-anchor="middle" x="2436" y="-7.4" font-family="Helvetica,sans-Serif" font-size="12.00" fill="white">String.UTF8View</text>
</a>
</g>
</g>
<!-- Reflectable&#45;&gt;String.UTF8View -->
<g id="edge36" class="edge">
<path fill="none" stroke="#cccccc" d="M1694.18,-67.0028C1797.17,-63.8161 2107.15,-52.3236 2375.31,-21.954"/>
<polygon fill="#cccccc" stroke="#cccccc" points="2376.1,-25.387 2385.64,-20.7731 2375.3,-18.4324 2376.1,-25.387"/>
</g>
<!-- String.UnicodeScalarView -->
<g id="node30" class="node">
<g id="a_node30"><a xlink:href="/type/String.UnicodeScalarView/" target="_top">
<polygon fill="#999999" stroke="#999999" points="2652.89,-22 2505.11,-22 2505.11,-0 2652.89,-0 2652.89,-22"/>
<text text-anchor="middle" x="2579" y="-7.4" font-family="Helvetica,sans-Serif" font-size="12.00" fill="white">String.UnicodeScalarView</text>
</a>
</g>
</g>
<!-- Reflectable&#45;&gt;String.UnicodeScalarView -->
<g id="edge37" class="edge">
<path fill="none" stroke="#cccccc" d="M1694.1,-66.8676C1807.89,-63.0274 2177.05,-49.2453 2494.5,-21.9825"/>
<polygon fill="#cccccc" stroke="#cccccc" points="2495.16,-25.4385 2504.82,-21.0896 2494.56,-18.4645 2495.16,-25.4385"/>
</g>
<!-- UInt -->
<g id="node31" class="node">
<g id="a_node31"><a xlink:href="/type/UInt/" target="_top">
<polygon fill="#999999" stroke="#999999" points="2725,-22 2671,-22 2671,-0 2725,-0 2725,-22"/>
<text text-anchor="middle" x="2698" y="-7.4" font-family="Helvetica,sans-Serif" font-size="12.00" fill="white">UInt</text>
</a>
</g>
</g>
<!-- Reflectable&#45;&gt;UInt -->
<g id="edge26" class="edge">
<path fill="none" stroke="#cccccc" d="M1694.09,-67.4497C1846.17,-64.9046 2449.75,-53.1135 2660.58,-21.8413"/>
<polygon fill="#cccccc" stroke="#cccccc" points="2661.28,-25.2761 2670.62,-20.2891 2660.21,-18.3583 2661.28,-25.2761"/>
</g>
<!-- UInt16 -->
<g id="node32" class="node">
<g id="a_node32"><a xlink:href="/type/UInt16/" target="_top">
<polygon fill="#999999" stroke="#999999" points="2797,-22 2743,-22 2743,-0 2797,-0 2797,-22"/>
<text text-anchor="middle" x="2770" y="-7.4" font-family="Helvetica,sans-Serif" font-size="12.00" fill="white">UInt16</text>
</a>
</g>
</g>
<!-- Reflectable&#45;&gt;UInt16 -->
<g id="edge27" class="edge">
<path fill="none" stroke="#cccccc" d="M1694.15,-67.5734C1853.12,-65.4812 2506.57,-55.0952 2732.51,-21.8473"/>
<polygon fill="#cccccc" stroke="#cccccc" points="2733.27,-25.2722 2742.62,-20.298 2732.21,-18.353 2733.27,-25.2722"/>
</g>
<!-- UInt32 -->
<g id="node33" class="node">
<g id="a_node33"><a xlink:href="/type/UInt32/" target="_top">
<polygon fill="#999999" stroke="#999999" points="2869,-22 2815,-22 2815,-0 2869,-0 2869,-22"/>
<text text-anchor="middle" x="2842" y="-7.4" font-family="Helvetica,sans-Serif" font-size="12.00" fill="white">UInt32</text>
</a>
</g>
</g>
<!-- Reflectable&#45;&gt;UInt32 -->
<g id="edge28" class="edge">
<path fill="none" stroke="#cccccc" d="M1694.23,-67.6816C1859.95,-66.0192 2563.56,-57.0814 2804.53,-21.8407"/>
<polygon fill="#cccccc" stroke="#cccccc" points="2805.27,-25.2694 2814.63,-20.3058 2804.21,-18.3489 2805.27,-25.2694"/>
</g>
<!-- UInt64 -->
<g id="node34" class="node">
<g id="a_node34"><a xlink:href="/type/UInt64/" target="_top">
<polygon fill="#999999" stroke="#999999" points="2941,-22 2887,-22 2887,-0 2941,-0 2941,-22"/>
<text text-anchor="middle" x="2914" y="-7.4" font-family="Helvetica,sans-Serif" font-size="12.00" fill="white">UInt64</text>
</a>
</g>
</g>
<!-- Reflectable&#45;&gt;UInt64 -->
<g id="edge29" class="edge">
<path fill="none" stroke="#cccccc" d="M1694.1,-67.7791C1865.99,-66.5315 2620.61,-59.0892 2876.64,-21.8223"/>
<polygon fill="#cccccc" stroke="#cccccc" points="2877.26,-25.2674 2886.63,-20.3127 2876.22,-18.346 2877.26,-25.2674"/>
</g>
<!-- UInt8 -->
<g id="node35" class="node">
<g id="a_node35"><a xlink:href="/type/UInt8/" target="_top">
<polygon fill="#999999" stroke="#999999" points="3013,-22 2959,-22 2959,-0 3013,-0 3013,-22"/>
<text text-anchor="middle" x="2986" y="-7.4" font-family="Helvetica,sans-Serif" font-size="12.00" fill="white">UInt8</text>
</a>
</g>
</g>
<!-- Reflectable&#45;&gt;UInt8 -->
<g id="edge30" class="edge">
<path fill="none" stroke="#cccccc" d="M1694.06,-67.8648C1872.02,-67.0116 2677.07,-61.1038 2948.43,-21.8496"/>
<polygon fill="#cccccc" stroke="#cccccc" points="2949.26,-25.2642 2958.63,-20.3188 2948.22,-18.3418 2949.26,-25.2642"/>
</g>
<!-- UnicodeScalar -->
<g id="node36" class="node">
<g id="a_node36"><a xlink:href="/type/UnicodeScalar/" target="_top">
<polygon fill="#999999" stroke="#999999" points="3119.03,-22 3030.97,-22 3030.97,-0 3119.03,-0 3119.03,-22"/>
<text text-anchor="middle" x="3075" y="-7.4" font-family="Helvetica,sans-Serif" font-size="12.00" fill="white">UnicodeScalar</text>
</a>
</g>
</g>
<!-- Reflectable&#45;&gt;UnicodeScalar -->
<g id="edge31" class="edge">
<path fill="none" stroke="#cccccc" d="M1694.11,-67.5424C1878.07,-65.035 2733.06,-52.0037 3020.83,-21.9333"/>
<polygon fill="#cccccc" stroke="#cccccc" points="3021.26,-25.4075 3030.83,-20.8564 3020.51,-18.4478 3021.26,-25.4075"/>
</g>
<!-- UnsafeMutablePointer -->
<g id="node37" class="node">
<g id="a_node37"><a xlink:href="/type/UnsafeMutablePointer/" target="_top">
<polygon fill="#999999" stroke="#999999" points="3265.05,-22 3136.95,-22 3136.95,-0 3265.05,-0 3265.05,-22"/>
<text text-anchor="middle" x="3201" y="-7.4" font-family="Helvetica,sans-Serif" font-size="12.00" fill="white">UnsafeMutablePointer</text>
</a>
</g>
</g>
<!-- Reflectable&#45;&gt;UnsafeMutablePointer -->
<g id="edge32" class="edge">
<path fill="none" stroke="#cccccc" d="M1694.05,-68.2563C1856.06,-69.1585 2548.67,-69.9201 3126.74,-22.0131"/>
<polygon fill="#cccccc" stroke="#cccccc" points="3127.27,-25.4807 3136.95,-21.1609 3126.69,-18.5049 3127.27,-25.4807"/>
</g>
<!-- UnsafePointer -->
<g id="node38" class="node">
<g id="a_node38"><a xlink:href="/type/UnsafePointer/" target="_top">
<polygon fill="#999999" stroke="#999999" points="3369.03,-22 3282.97,-22 3282.97,-0 3369.03,-0 3369.03,-22"/>
<text text-anchor="middle" x="3326" y="-7.4" font-family="Helvetica,sans-Serif" font-size="12.00" fill="white">UnsafePointer</text>
</a>
</g>
</g>
<!-- Reflectable&#45;&gt;UnsafePointer -->
<g id="edge33" class="edge">
<path fill="none" stroke="#cccccc" d="M1694.31,-67.7707C1898.63,-66.3277 2931.68,-57.4222 3272.82,-21.9188"/>
<polygon fill="#cccccc" stroke="#cccccc" points="3273.38,-25.3786 3282.95,-20.8337 3272.64,-18.4184 3273.38,-25.3786"/>
</g>
</g>
</svg>
