<?xml version="1.0" encoding="UTF-8" standalone="no"?>
<!DOCTYPE svg PUBLIC "-//W3C//DTD SVG 1.1//EN"
 "http://www.w3.org/Graphics/SVG/1.1/DTD/svg11.dtd">
<!-- Generated by graphviz version 2.36.0 (20140111.2315)
 -->
<!-- Title: Float &#45; Type Hierarchy &#45; SwiftDoc.org Pages: 1 -->
<svg width="1280pt" height="369pt"
 viewBox="0.00 0.00 1280.29 369.20" xmlns="http://www.w3.org/2000/svg" xmlns:xlink="http://www.w3.org/1999/xlink">
<g id="graph0" class="graph" transform="scale(1 1) rotate(0) translate(7.2 311.6)">
<title>Float &#45; Type Hierarchy &#45; SwiftDoc.org</title>
<polygon fill="white" stroke="none" points="-7.2,57.6 -7.2,-311.6 1273.09,-311.6 1273.09,57.6 -7.2,57.6"/>
<!-- AbsoluteValuable -->
<g id="node1" class="node"><title>AbsoluteValuable</title>
<g id="a_node1"><a xlink:href="/protocol/AbsoluteValuable/" xlink:title="AbsoluteValuable">
<path fill="#999999" stroke="#999999" d="M410.558,-80C410.558,-80 323.442,-80 323.442,-80 319.775,-80 316.109,-76.3333 316.109,-72.6667 316.109,-72.6667 316.109,-65.3333 316.109,-65.3333 316.109,-61.6667 319.775,-58 323.442,-58 323.442,-58 410.558,-58 410.558,-58 414.225,-58 417.891,-61.6667 417.891,-65.3333 417.891,-65.3333 417.891,-72.6667 417.891,-72.6667 417.891,-76.3333 414.225,-80 410.558,-80"/>
<text text-anchor="middle" x="367" y="-65.4" font-family="Helvetica,sans-Serif" font-size="12.00" fill="white">AbsoluteValuable</text>
</a>
</g>
</g>
<!-- Float -->
<g id="node6" class="node"><title>Float</title>
<g id="a_node6"><a xlink:href="/type/Float/" xlink:title="Float">
<polygon fill="#ee543d" stroke="#ee543d" points="659,-22 605,-22 605,-0 659,-0 659,-22"/>
<text text-anchor="middle" x="632" y="-7.4" font-family="Helvetica,sans-Serif" font-size="12.00" fill="white">Float</text>
</a>
</g>
</g>
<!-- AbsoluteValuable&#45;&gt;Float -->
<g id="edge9" class="edge"><title>AbsoluteValuable&#45;&gt;Float</title>
<path fill="none" stroke="#cccccc" d="M414.377,-57.9883C466.111,-47.0559 547.868,-29.7788 595.063,-19.8055"/>
<polygon fill="#cccccc" stroke="#cccccc" points="595.808,-23.2255 604.868,-17.7335 594.361,-16.3767 595.808,-23.2255"/>
</g>
<!-- CVarArgType -->
<g id="node2" class="node"><title>CVarArgType</title>
<g id="a_node2"><a xlink:href="/protocol/CVarArgType/" xlink:title="CVarArgType">
<path fill="#999999" stroke="#999999" d="M1125.03,-138C1125.03,-138 1058.97,-138 1058.97,-138 1055.3,-138 1051.64,-134.333 1051.64,-130.667 1051.64,-130.667 1051.64,-123.333 1051.64,-123.333 1051.64,-119.667 1055.3,-116 1058.97,-116 1058.97,-116 1125.03,-116 1125.03,-116 1128.7,-116 1132.36,-119.667 1132.36,-123.333 1132.36,-123.333 1132.36,-130.667 1132.36,-130.667 1132.36,-134.333 1128.7,-138 1125.03,-138"/>
<text text-anchor="middle" x="1092" y="-123.4" font-family="Helvetica,sans-Serif" font-size="12.00" fill="white">CVarArgType</text>
</a>
</g>
</g>
<!-- CVarArgType&#45;&gt;Float -->
<g id="edge14" class="edge"><title>CVarArgType&#45;&gt;Float</title>
<path fill="none" stroke="#cccccc" d="M1092.27,-115.832C1092.06,-100.656 1089.21,-72.3328 1072,-58 1041.29,-32.424 769.673,-18.0294 669.174,-13.5407"/>
<polygon fill="#cccccc" stroke="#cccccc" points="669.309,-10.0434 659.166,-13.1013 669.002,-17.0366 669.309,-10.0434"/>
</g>
<!-- _CVarArgAlignedType -->
<g id="node14" class="node"><title>_CVarArgAlignedType</title>
<g id="a_node14"><a xlink:href="/protocol/_CVarArgAlignedType/" xlink:title="_CVarArgAlignedType">
<path fill="#999999" stroke="#999999" d="M1240.06,-80C1240.06,-80 1127.94,-80 1127.94,-80 1124.27,-80 1120.61,-76.3333 1120.61,-72.6667 1120.61,-72.6667 1120.61,-65.3333 1120.61,-65.3333 1120.61,-61.6667 1124.27,-58 1127.94,-58 1127.94,-58 1240.06,-58 1240.06,-58 1243.73,-58 1247.39,-61.6667 1247.39,-65.3333 1247.39,-65.3333 1247.39,-72.6667 1247.39,-72.6667 1247.39,-76.3333 1243.73,-80 1240.06,-80"/>
<text text-anchor="middle" x="1184" y="-65.4" font-family="Helvetica,sans-Serif" font-size="12.00" fill="white">_CVarArgAlignedType</text>
</a>
</g>
</g>
<!-- CVarArgType&#45;&gt;_CVarArgAlignedType -->
<g id="edge25" class="edge"><title>CVarArgType&#45;&gt;_CVarArgAlignedType</title>
<path fill="none" stroke="#cccccc" d="M1108.45,-115.988C1122.36,-107.52 1142.53,-95.2452 1158.52,-85.5067"/>
<polygon fill="#cccccc" stroke="#cccccc" points="1160.66,-88.303 1167.38,-80.1138 1157.02,-82.3236 1160.66,-88.303"/>
</g>
<!-- _CVarArgPassedAsDouble -->
<g id="node15" class="node"><title>_CVarArgPassedAsDouble</title>
<g id="a_node15"><a xlink:href="/protocol/_CVarArgPassedAsDouble/" xlink:title="_CVarArgPassedAsDouble">
<path fill="#999999" stroke="#999999" d="M1056.06,-80C1056.06,-80 917.938,-80 917.938,-80 914.272,-80 910.605,-76.3333 910.605,-72.6667 910.605,-72.6667 910.605,-65.3333 910.605,-65.3333 910.605,-61.6667 914.272,-58 917.938,-58 917.938,-58 1056.06,-58 1056.06,-58 1059.73,-58 1063.4,-61.6667 1063.4,-65.3333 1063.4,-65.3333 1063.4,-72.6667 1063.4,-72.6667 1063.4,-76.3333 1059.73,-80 1056.06,-80"/>
<text text-anchor="middle" x="987" y="-65.4" font-family="Helvetica,sans-Serif" font-size="12.00" fill="white">_CVarArgPassedAsDouble</text>
</a>
</g>
</g>
<!-- CVarArgType&#45;&gt;_CVarArgPassedAsDouble -->
<g id="edge24" class="edge"><title>CVarArgType&#45;&gt;_CVarArgPassedAsDouble</title>
<path fill="none" stroke="#cccccc" d="M1073.23,-115.988C1056.98,-107.322 1033.26,-94.6696 1014.8,-84.8283"/>
<polygon fill="#cccccc" stroke="#cccccc" points="1016.43,-81.7315 1005.96,-80.1138 1013.14,-87.908 1016.43,-81.7315"/>
</g>
<!-- Comparable -->
<g id="node3" class="node"><title>Comparable</title>
<g id="a_node3"><a xlink:href="/protocol/Comparable/" xlink:title="Comparable">
<path fill="#999999" stroke="#999999" d="M624.191,-196C624.191,-196 563.809,-196 563.809,-196 560.142,-196 556.475,-192.333 556.475,-188.667 556.475,-188.667 556.475,-181.333 556.475,-181.333 556.475,-177.667 560.142,-174 563.809,-174 563.809,-174 624.191,-174 624.191,-174 627.858,-174 631.525,-177.667 631.525,-181.333 631.525,-181.333 631.525,-188.667 631.525,-188.667 631.525,-192.333 627.858,-196 624.191,-196"/>
<text text-anchor="middle" x="594" y="-181.4" font-family="Helvetica,sans-Serif" font-size="12.00" fill="white">Comparable</text>
</a>
</g>
</g>
<!-- Comparable&#45;&gt;Float -->
<g id="edge5" class="edge"><title>Comparable&#45;&gt;Float</title>
<path fill="none" stroke="#cccccc" d="M596.263,-173.756C602.374,-146.097 619.294,-69.5091 627.467,-32.5186"/>
<polygon fill="#cccccc" stroke="#cccccc" points="630.961,-32.9277 629.701,-22.4081 624.126,-31.4175 630.961,-32.9277"/>
</g>
<!-- SignedNumberType -->
<g id="node12" class="node"><title>SignedNumberType</title>
<g id="a_node12"><a xlink:href="/protocol/SignedNumberType/" xlink:title="SignedNumberType">
<path fill="#999999" stroke="#999999" d="M321.716,-138C321.716,-138 220.284,-138 220.284,-138 216.617,-138 212.95,-134.333 212.95,-130.667 212.95,-130.667 212.95,-123.333 212.95,-123.333 212.95,-119.667 216.617,-116 220.284,-116 220.284,-116 321.716,-116 321.716,-116 325.383,-116 329.05,-119.667 329.05,-123.333 329.05,-123.333 329.05,-130.667 329.05,-130.667 329.05,-134.333 325.383,-138 321.716,-138"/>
<text text-anchor="middle" x="271" y="-123.4" font-family="Helvetica,sans-Serif" font-size="12.00" fill="white">SignedNumberType</text>
</a>
</g>
</g>
<!-- Comparable&#45;&gt;SignedNumberType -->
<g id="edge21" class="edge"><title>Comparable&#45;&gt;SignedNumberType</title>
<path fill="none" stroke="#cccccc" d="M556.632,-177.521C503.402,-168.293 404.867,-151.209 338.619,-139.723"/>
<polygon fill="#cccccc" stroke="#cccccc" points="339.134,-136.26 328.683,-138.001 337.938,-143.158 339.134,-136.26"/>
</g>
<!-- Strideable -->
<g id="node13" class="node"><title>Strideable</title>
<g id="a_node13"><a xlink:href="/protocol/Strideable/" xlink:title="Strideable">
<path fill="#999999" stroke="#999999" d="M708.693,-138C708.693,-138 659.307,-138 659.307,-138 655.64,-138 651.974,-134.333 651.974,-130.667 651.974,-130.667 651.974,-123.333 651.974,-123.333 651.974,-119.667 655.64,-116 659.307,-116 659.307,-116 708.693,-116 708.693,-116 712.36,-116 716.026,-119.667 716.026,-123.333 716.026,-123.333 716.026,-130.667 716.026,-130.667 716.026,-134.333 712.36,-138 708.693,-138"/>
<text text-anchor="middle" x="684" y="-123.4" font-family="Helvetica,sans-Serif" font-size="12.00" fill="white">Strideable</text>
</a>
</g>
</g>
<!-- Comparable&#45;&gt;Strideable -->
<g id="edge17" class="edge"><title>Comparable&#45;&gt;Strideable</title>
<path fill="none" stroke="#cccccc" d="M610.09,-173.988C623.7,-165.52 643.427,-153.245 659.079,-143.507"/>
<polygon fill="#cccccc" stroke="#cccccc" points="661.104,-146.369 667.746,-138.114 657.406,-140.425 661.104,-146.369"/>
</g>
<!-- CustomStringConvertible -->
<g id="node4" class="node"><title>CustomStringConvertible</title>
<g id="a_node4"><a xlink:href="/protocol/CustomStringConvertible/" xlink:title="CustomStringConvertible">
<path fill="#999999" stroke="#999999" d="M290.208,-80C290.208,-80 161.792,-80 161.792,-80 158.126,-80 154.459,-76.3333 154.459,-72.6667 154.459,-72.6667 154.459,-65.3333 154.459,-65.3333 154.459,-61.6667 158.126,-58 161.792,-58 161.792,-58 290.208,-58 290.208,-58 293.874,-58 297.541,-61.6667 297.541,-65.3333 297.541,-65.3333 297.541,-72.6667 297.541,-72.6667 297.541,-76.3333 293.874,-80 290.208,-80"/>
<text text-anchor="middle" x="226" y="-65.4" font-family="Helvetica,sans-Serif" font-size="12.00" fill="white">CustomStringConvertible</text>
</a>
</g>
</g>
<!-- CustomStringConvertible&#45;&gt;Float -->
<g id="edge1" class="edge"><title>CustomStringConvertible&#45;&gt;Float</title>
<path fill="none" stroke="#cccccc" d="M297.65,-58.1172C384.3,-46.1655 526.905,-26.4958 594.377,-17.1893"/>
<polygon fill="#cccccc" stroke="#cccccc" points="595.113,-20.6211 604.541,-15.7874 594.157,-13.6867 595.113,-20.6211"/>
</g>
<!-- Equatable -->
<g id="node5" class="node"><title>Equatable</title>
<g id="a_node5"><a xlink:href="/protocol/Equatable/" xlink:title="Equatable">
<path fill="#999999" stroke="#999999" d="M618.702,-254C618.702,-254 569.298,-254 569.298,-254 565.632,-254 561.965,-250.333 561.965,-246.667 561.965,-246.667 561.965,-239.333 561.965,-239.333 561.965,-235.667 565.632,-232 569.298,-232 569.298,-232 618.702,-232 618.702,-232 622.368,-232 626.035,-235.667 626.035,-239.333 626.035,-239.333 626.035,-246.667 626.035,-246.667 626.035,-250.333 622.368,-254 618.702,-254"/>
<text text-anchor="middle" x="594" y="-239.4" font-family="Helvetica,sans-Serif" font-size="12.00" fill="white">Equatable</text>
</a>
</g>
</g>
<!-- Equatable&#45;&gt;Comparable -->
<g id="edge19" class="edge"><title>Equatable&#45;&gt;Comparable</title>
<path fill="none" stroke="#cccccc" d="M594,-231.988C594,-224.91 594,-215.171 594,-206.478"/>
<polygon fill="#cccccc" stroke="#cccccc" points="597.5,-206.304 594,-196.304 590.5,-206.304 597.5,-206.304"/>
</g>
<!-- Equatable&#45;&gt;Float -->
<g id="edge6" class="edge"><title>Equatable&#45;&gt;Float</title>
<path fill="none" stroke="#cccccc" d="M626.223,-238.733C770.605,-223.496 1347.03,-155.991 1256,-58 1216,-14.9416 797.682,-11.8099 669.275,-11.8709"/>
<polygon fill="#cccccc" stroke="#cccccc" points="669.143,-8.37093 659.147,-11.8828 669.151,-15.3709 669.143,-8.37093"/>
</g>
<!-- Hashable -->
<g id="node9" class="node"><title>Hashable</title>
<g id="a_node9"><a xlink:href="/protocol/Hashable/" xlink:title="Hashable">
<path fill="#999999" stroke="#999999" d="M52.6941,-138C52.6941,-138 7.30586,-138 7.30586,-138 3.6392,-138 -0.0274696,-134.333 -0.0274696,-130.667 -0.0274696,-130.667 -0.0274696,-123.333 -0.0274696,-123.333 -0.0274696,-119.667 3.6392,-116 7.30586,-116 7.30586,-116 52.6941,-116 52.6941,-116 56.3608,-116 60.0275,-119.667 60.0275,-123.333 60.0275,-123.333 60.0275,-130.667 60.0275,-130.667 60.0275,-134.333 56.3608,-138 52.6941,-138"/>
<text text-anchor="middle" x="30" y="-123.4" font-family="Helvetica,sans-Serif" font-size="12.00" fill="white">Hashable</text>
</a>
</g>
</g>
<!-- Equatable&#45;&gt;Hashable -->
<g id="edge20" class="edge"><title>Equatable&#45;&gt;Hashable</title>
<path fill="none" stroke="#cccccc" d="M561.83,-241.118C468.956,-238.219 201.885,-227.311 121,-196 91.9172,-184.742 64.0433,-161.448 46.9806,-145.282"/>
<polygon fill="#cccccc" stroke="#cccccc" points="49.1181,-142.478 39.5149,-138.002 44.2313,-147.489 49.1181,-142.478"/>
</g>
<!-- FloatLiteralConvertible -->
<g id="node7" class="node"><title>FloatLiteralConvertible</title>
<g id="a_node7"><a xlink:href="/protocol/FloatLiteralConvertible/" xlink:title="FloatLiteralConvertible">
<path fill="#999999" stroke="#999999" d="M558.711,-80C558.711,-80 443.289,-80 443.289,-80 439.623,-80 435.956,-76.3333 435.956,-72.6667 435.956,-72.6667 435.956,-65.3333 435.956,-65.3333 435.956,-61.6667 439.623,-58 443.289,-58 443.289,-58 558.711,-58 558.711,-58 562.377,-58 566.044,-61.6667 566.044,-65.3333 566.044,-65.3333 566.044,-72.6667 566.044,-72.6667 566.044,-76.3333 562.377,-80 558.711,-80"/>
<text text-anchor="middle" x="501" y="-65.4" font-family="Helvetica,sans-Serif" font-size="12.00" fill="white">FloatLiteralConvertible</text>
</a>
</g>
</g>
<!-- FloatLiteralConvertible&#45;&gt;Float -->
<g id="edge4" class="edge"><title>FloatLiteralConvertible&#45;&gt;Float</title>
<path fill="none" stroke="#cccccc" d="M524.42,-57.9883C545.155,-49.1244 575.647,-36.0897 598.879,-26.1587"/>
<polygon fill="#cccccc" stroke="#cccccc" points="600.522,-29.2629 608.341,-22.1138 597.77,-22.8263 600.522,-29.2629"/>
</g>
<!-- FloatingPointType -->
<g id="node8" class="node"><title>FloatingPointType</title>
<g id="a_node8"><a xlink:href="/protocol/FloatingPointType/" xlink:title="FloatingPointType">
<path fill="#999999" stroke="#999999" d="M758.715,-80C758.715,-80 667.285,-80 667.285,-80 663.618,-80 659.952,-76.3333 659.952,-72.6667 659.952,-72.6667 659.952,-65.3333 659.952,-65.3333 659.952,-61.6667 663.618,-58 667.285,-58 667.285,-58 758.715,-58 758.715,-58 762.382,-58 766.048,-61.6667 766.048,-65.3333 766.048,-65.3333 766.048,-72.6667 766.048,-72.6667 766.048,-76.3333 762.382,-80 758.715,-80"/>
<text text-anchor="middle" x="713" y="-65.4" font-family="Helvetica,sans-Serif" font-size="12.00" fill="white">FloatingPointType</text>
</a>
</g>
</g>
<!-- FloatingPointType&#45;&gt;Float -->
<g id="edge2" class="edge"><title>FloatingPointType&#45;&gt;Float</title>
<path fill="none" stroke="#cccccc" d="M698.519,-57.9883C686.499,-49.6784 669.177,-37.7028 655.223,-28.0554"/>
<polygon fill="#cccccc" stroke="#cccccc" points="656.845,-24.9217 646.629,-22.1138 652.864,-30.6796 656.845,-24.9217"/>
</g>
<!-- Hashable&#45;&gt;Float -->
<g id="edge7" class="edge"><title>Hashable&#45;&gt;Float</title>
<path fill="none" stroke="#cccccc" d="M33.3069,-115.789C38.9239,-100.285 51.9208,-71.2161 74,-58 118.483,-31.3733 476.349,-17.1794 594.384,-13.1882"/>
<polygon fill="#cccccc" stroke="#cccccc" points="594.843,-16.675 604.721,-12.8442 594.61,-9.67886 594.843,-16.675"/>
</g>
<!-- IntegerLiteralConvertible -->
<g id="node10" class="node"><title>IntegerLiteralConvertible</title>
<g id="a_node10"><a xlink:href="/protocol/IntegerLiteralConvertible/" xlink:title="IntegerLiteralConvertible">
<path fill="#999999" stroke="#999999" d="M262.722,-196C262.722,-196 137.278,-196 137.278,-196 133.611,-196 129.944,-192.333 129.944,-188.667 129.944,-188.667 129.944,-181.333 129.944,-181.333 129.944,-177.667 133.611,-174 137.278,-174 137.278,-174 262.722,-174 262.722,-174 266.389,-174 270.056,-177.667 270.056,-181.333 270.056,-181.333 270.056,-188.667 270.056,-188.667 270.056,-192.333 266.389,-196 262.722,-196"/>
<text text-anchor="middle" x="200" y="-181.4" font-family="Helvetica,sans-Serif" font-size="12.00" fill="white">IntegerLiteralConvertible</text>
</a>
</g>
</g>
<!-- IntegerLiteralConvertible&#45;&gt;Float -->
<g id="edge3" class="edge"><title>IntegerLiteralConvertible&#45;&gt;Float</title>
<path fill="none" stroke="#cccccc" d="M187.268,-173.772C160.162,-150.82 101.833,-94.3785 135,-58 165.828,-24.1871 484.109,-14.8562 594.523,-12.6263"/>
<polygon fill="#cccccc" stroke="#cccccc" points="594.914,-16.1195 604.844,-12.4266 594.778,-9.12086 594.914,-16.1195"/>
</g>
<!-- IntegerLiteralConvertible&#45;&gt;SignedNumberType -->
<g id="edge22" class="edge"><title>IntegerLiteralConvertible&#45;&gt;SignedNumberType</title>
<path fill="none" stroke="#cccccc" d="M212.693,-173.988C223.064,-165.809 237.938,-154.077 250.067,-144.511"/>
<polygon fill="#cccccc" stroke="#cccccc" points="252.252,-147.245 257.936,-138.304 247.917,-141.749 252.252,-147.245"/>
</g>
<!-- Reflectable -->
<g id="node11" class="node"><title>Reflectable</title>
<g id="a_node11"><a xlink:href="/protocol/Reflectable/" xlink:title="Reflectable">
<path fill="#999999" stroke="#999999" d="M846.693,-80C846.693,-80 791.307,-80 791.307,-80 787.64,-80 783.974,-76.3333 783.974,-72.6667 783.974,-72.6667 783.974,-65.3333 783.974,-65.3333 783.974,-61.6667 787.64,-58 791.307,-58 791.307,-58 846.693,-58 846.693,-58 850.36,-58 854.026,-61.6667 854.026,-65.3333 854.026,-65.3333 854.026,-72.6667 854.026,-72.6667 854.026,-76.3333 850.36,-80 846.693,-80"/>
<text text-anchor="middle" x="819" y="-65.4" font-family="Helvetica,sans-Serif" font-size="12.00" fill="white">Reflectable</text>
</a>
</g>
</g>
<!-- Reflectable&#45;&gt;Float -->
<g id="edge12" class="edge"><title>Reflectable&#45;&gt;Float</title>
<path fill="none" stroke="#cccccc" d="M785.568,-57.9883C752.817,-48.1806 703.015,-33.2666 669.069,-23.1008"/>
<polygon fill="#cccccc" stroke="#cccccc" points="669.663,-19.6252 659.079,-20.1092 667.655,-26.331 669.663,-19.6252"/>
</g>
<!-- SignedNumberType&#45;&gt;AbsoluteValuable -->
<g id="edge23" class="edge"><title>SignedNumberType&#45;&gt;AbsoluteValuable</title>
<path fill="none" stroke="#cccccc" d="M288.163,-115.988C302.815,-107.441 324.116,-95.0155 340.884,-85.2343"/>
<polygon fill="#cccccc" stroke="#cccccc" points="342.788,-88.1758 349.662,-80.1138 339.261,-82.1293 342.788,-88.1758"/>
</g>
<!-- SignedNumberType&#45;&gt;Float -->
<g id="edge8" class="edge"><title>SignedNumberType&#45;&gt;Float</title>
<path fill="none" stroke="#cccccc" d="M215.529,-115.905C170.729,-105.414 119.069,-86.4962 145,-58 175.113,-24.9091 485.648,-15.127 594.528,-12.7022"/>
<polygon fill="#cccccc" stroke="#cccccc" points="594.794,-16.1975 604.717,-12.4839 594.644,-9.19906 594.794,-16.1975"/>
</g>
<!-- Strideable&#45;&gt;Float -->
<g id="edge10" class="edge"><title>Strideable&#45;&gt;Float</title>
<path fill="none" stroke="#cccccc" d="M674.992,-115.708C667.611,-106.8 657.378,-93.2919 651,-80 643.636,-64.6524 638.67,-45.945 635.668,-32.0396"/>
<polygon fill="#cccccc" stroke="#cccccc" points="639.067,-31.1915 633.672,-22.0731 632.204,-32.5656 639.067,-31.1915"/>
</g>
<!-- Strideable&#45;&gt;FloatingPointType -->
<g id="edge16" class="edge"><title>Strideable&#45;&gt;FloatingPointType</title>
<path fill="none" stroke="#cccccc" d="M689.185,-115.988C693.013,-108.595 698.344,-98.3005 702.992,-89.3253"/>
<polygon fill="#cccccc" stroke="#cccccc" points="706.173,-90.7933 707.664,-80.3039 699.957,-87.5743 706.173,-90.7933"/>
</g>
<!-- _CVarArgAlignedType&#45;&gt;Float -->
<g id="edge15" class="edge"><title>_CVarArgAlignedType&#45;&gt;Float</title>
<path fill="none" stroke="#cccccc" d="M1120.59,-59.705C1115.66,-59.11 1110.75,-58.5347 1106,-58 943.435,-39.6954 749.001,-22.2063 669.079,-15.2072"/>
<polygon fill="#cccccc" stroke="#cccccc" points="669.286,-11.7121 659.019,-14.3288 668.677,-18.6855 669.286,-11.7121"/>
</g>
<!-- _CVarArgPassedAsDouble&#45;&gt;Float -->
<g id="edge13" class="edge"><title>_CVarArgPassedAsDouble&#45;&gt;Float</title>
<path fill="none" stroke="#cccccc" d="M923.533,-57.9883C849.595,-46.3248 729.876,-27.4397 669.445,-17.9068"/>
<polygon fill="#cccccc" stroke="#cccccc" points="669.647,-14.3954 659.223,-16.2944 668.556,-21.3099 669.647,-14.3954"/>
</g>
<!-- _Strideable -->
<g id="node16" class="node"><title>_Strideable</title>
<g id="a_node16"><a xlink:href="/protocol/_Strideable/" xlink:title="_Strideable">
<path fill="#999999" stroke="#999999" d="M825.7,-196C825.7,-196 770.3,-196 770.3,-196 766.634,-196 762.967,-192.333 762.967,-188.667 762.967,-188.667 762.967,-181.333 762.967,-181.333 762.967,-177.667 766.634,-174 770.3,-174 770.3,-174 825.7,-174 825.7,-174 829.366,-174 833.033,-177.667 833.033,-181.333 833.033,-181.333 833.033,-188.667 833.033,-188.667 833.033,-192.333 829.366,-196 825.7,-196"/>
<text text-anchor="middle" x="798" y="-181.4" font-family="Helvetica,sans-Serif" font-size="12.00" fill="white">_Strideable</text>
</a>
</g>
</g>
<!-- _Strideable&#45;&gt;Float -->
<g id="edge11" class="edge"><title>_Strideable&#45;&gt;Float</title>
<path fill="none" stroke="#cccccc" d="M810.853,-173.674C837.559,-151 894.07,-95.8672 863,-58 838.898,-28.6255 728.054,-17.6577 669.109,-13.8524"/>
<polygon fill="#cccccc" stroke="#cccccc" points="669.277,-10.3562 659.083,-13.242 668.851,-17.3433 669.277,-10.3562"/>
</g>
<!-- _Strideable&#45;&gt;Strideable -->
<g id="edge18" class="edge"><title>_Strideable&#45;&gt;Strideable</title>
<path fill="none" stroke="#cccccc" d="M777.619,-173.988C759.816,-165.243 733.749,-152.438 713.639,-142.559"/>
<polygon fill="#cccccc" stroke="#cccccc" points="715.108,-139.381 704.589,-138.114 712.021,-145.664 715.108,-139.381"/>
</g>
</g>
</svg>
