<?xml version="1.0" encoding="UTF-8" standalone="no"?>
<!DOCTYPE svg PUBLIC "-//W3C//DTD SVG 1.1//EN"
 "http://www.w3.org/Graphics/SVG/1.1/DTD/svg11.dtd">
<!-- Generated by graphviz version 2.36.0 (20140111.2315)
 -->
<!-- Title: ReverseRandomAccessIndex&lt;I : RandomAccessIndexType&gt; &#45; Type Hierarchy &#45; Swifter Pages: 1 -->
<svg width="388pt" height="485pt"
 viewBox="0.00 0.00 388.40 485.20" xmlns="http://www.w3.org/2000/svg" xmlns:xlink="http://www.w3.org/1999/xlink">
<g id="graph0" class="graph" transform="scale(1 1) rotate(0) translate(7.2 427.6)">
<g transform="translate(0 -427.6)">
<g>
    <path fill="#666666" d="M13.846,10.832c-0.336-0.464-0.792-0.844-1.368-1.14s-1.224-0.444-1.944-0.444
        c-0.384,0-0.772,0.052-1.164,0.156C8.977,9.509,8.622,9.677,8.301,9.908c-0.32,0.232-0.58,0.52-0.78,0.864
        c-0.2,0.344-0.3,0.756-0.3,1.236c0,0.464,0.092,0.852,0.276,1.164c0.184,0.312,0.432,0.576,0.744,0.792s0.68,0.4,1.104,0.552
        c0.423,0.152,0.876,0.309,1.356,0.468c0.576,0.177,1.16,0.376,1.752,0.601c0.592,0.224,1.128,0.52,1.608,0.888
        s0.872,0.828,1.176,1.38s0.456,1.252,0.456,2.101c0,0.88-0.164,1.644-0.492,2.292c-0.328,0.647-0.765,1.184-1.308,1.607
        c-0.544,0.424-1.172,0.74-1.884,0.948s-1.444,0.312-2.196,0.312c-1.072,0-2.108-0.208-3.108-0.624
        c-1-0.415-1.828-1.031-2.484-1.848l1.848-1.56c0.4,0.592,0.936,1.071,1.608,1.439c0.672,0.368,1.399,0.552,2.184,0.552
        c0.4,0,0.8-0.056,1.2-0.168c0.4-0.111,0.764-0.288,1.092-0.527c0.328-0.24,0.596-0.54,0.804-0.9
        c0.208-0.36,0.312-0.796,0.312-1.308s-0.108-0.94-0.324-1.284c-0.216-0.344-0.508-0.636-0.876-0.876s-0.796-0.444-1.284-0.612
        c-0.488-0.168-1.004-0.34-1.548-0.516c-0.544-0.16-1.08-0.356-1.608-0.588c-0.528-0.232-1-0.528-1.416-0.889
        c-0.416-0.359-0.752-0.804-1.008-1.332c-0.256-0.527-0.384-1.184-0.384-1.968c0-0.848,0.172-1.576,0.516-2.184
        c0.344-0.608,0.792-1.112,1.344-1.512c0.552-0.4,1.176-0.692,1.872-0.876c0.696-0.184,1.396-0.276,2.1-0.276
        c0.992,0,1.92,0.176,2.784,0.528c0.864,0.352,1.56,0.824,2.088,1.416L13.846,10.832z"/>
    <path fill="#666666" d="M18.813,13.304l2.568,8.688h0.048l2.712-8.688h2.376l2.76,8.688h0.048l2.568-8.688h2.376L30.501,24.68
        h-2.352l-2.808-8.544h-0.048l-2.784,8.544h-2.352l-3.792-11.376H18.813z"/>
    <path fill="#666666" d="M38.685,9.2c0,0.416-0.147,0.76-0.44,1.032c-0.294,0.272-0.647,0.408-1.06,0.408s-0.762-0.14-1.047-0.42
        c-0.286-0.28-0.429-0.62-0.429-1.02c0-0.416,0.143-0.764,0.429-1.044c0.286-0.28,0.635-0.42,1.047-0.42s0.766,0.14,1.06,0.42
        C38.538,8.437,38.685,8.784,38.685,9.2z M38.325,24.68h-2.256V13.304h2.256V24.68z"/>
    <path fill="#666666" d="M47.613,15.152h-2.64v9.528h-2.256v-9.528h-2.256v-1.848h2.256v-2.376c0-0.672,0.076-1.292,0.228-1.86
        c0.152-0.568,0.4-1.06,0.744-1.476c0.344-0.416,0.784-0.744,1.32-0.984c0.536-0.24,1.188-0.36,1.956-0.36
        c0.544,0,1.016,0.056,1.416,0.168l-0.264,1.944c-0.176-0.048-0.352-0.088-0.528-0.12c-0.176-0.032-0.376-0.048-0.6-0.048
        c-0.432,0-0.78,0.076-1.044,0.228c-0.264,0.152-0.468,0.356-0.612,0.612s-0.24,0.548-0.288,0.876
        c-0.048,0.328-0.072,0.668-0.072,1.02v2.376h2.64V15.152z"/>
    <path fill="#666666" d="M54.909,15.152h-3.024v5.91c0,0.687,0.128,1.177,0.384,1.472c0.256,0.295,0.664,0.442,1.224,0.442
        c0.208,0,0.432-0.021,0.672-0.065c0.24-0.044,0.456-0.11,0.648-0.198l0.072,1.848c-0.272,0.096-0.572,0.172-0.9,0.229
        c-0.328,0.056-0.668,0.084-1.02,0.084c-1.072,0-1.892-0.296-2.46-0.889c-0.568-0.592-0.852-1.479-0.852-2.664v-6.168h-2.184
        v-1.848h2.184V10.04h2.232v3.264h3.024V15.152z"/>
    <path fill="#666666" d="M57.356,7.688h5.832c1.088,0,2.176,0.16,3.264,0.48c1.088,0.32,2.072,0.824,2.952,1.512
        s1.592,1.568,2.136,2.64c0.544,1.072,0.816,2.36,0.816,3.864c0,1.456-0.272,2.716-0.816,3.78s-1.256,1.943-2.136,2.64
        s-1.864,1.216-2.952,1.561c-1.088,0.344-2.176,0.516-3.264,0.516h-5.832V7.688z M59.732,22.593h2.976
        c1.024,0,1.972-0.145,2.844-0.432c0.872-0.288,1.624-0.704,2.256-1.248c0.632-0.544,1.124-1.216,1.476-2.017
        c0.352-0.8,0.528-1.704,0.528-2.712c0-1.056-0.176-1.983-0.528-2.784c-0.353-0.8-0.844-1.468-1.476-2.004
        c-0.632-0.536-1.384-0.944-2.256-1.224s-1.82-0.42-2.844-0.42h-2.976V22.593z"/>
    <path fill="#666666" d="M86.06,18.969c0,0.88-0.156,1.688-0.468,2.424c-0.312,0.736-0.744,1.372-1.296,1.908
        c-0.552,0.536-1.204,0.952-1.956,1.248c-0.752,0.296-1.56,0.443-2.424,0.443c-0.864,0-1.672-0.147-2.424-0.443
        c-0.752-0.296-1.4-0.712-1.944-1.248c-0.544-0.536-0.972-1.172-1.284-1.908c-0.312-0.735-0.468-1.544-0.468-2.424
        s0.156-1.684,0.468-2.412c0.312-0.728,0.74-1.356,1.284-1.884c0.543-0.528,1.191-0.939,1.944-1.236
        c0.752-0.296,1.56-0.444,2.424-0.444c0.864,0,1.672,0.148,2.424,0.444c0.752,0.297,1.404,0.708,1.956,1.236
        c0.552,0.527,0.984,1.156,1.296,1.884C85.904,17.285,86.06,18.089,86.06,18.969z M83.708,18.98c0-0.542-0.084-1.061-0.252-1.556
        c-0.169-0.494-0.414-0.929-0.734-1.304s-0.718-0.674-1.192-0.897s-1.015-0.335-1.625-0.335c-0.61,0-1.152,0.111-1.625,0.335
        c-0.474,0.224-0.871,0.522-1.191,0.897c-0.321,0.375-0.566,0.81-0.734,1.304C76.184,17.92,76.1,18.438,76.1,18.98
        c0,0.543,0.084,1.062,0.253,1.556c0.168,0.495,0.413,0.934,0.734,1.316c0.321,0.383,0.718,0.686,1.191,0.909
        c0.473,0.224,1.015,0.335,1.625,0.335c0.61,0,1.151-0.111,1.625-0.335s0.871-0.526,1.192-0.909s0.565-0.821,0.734-1.316
        C83.624,20.042,83.708,19.523,83.708,18.98z"/>
    <path fill="#666666" d="M96.428,16.184c-0.24-0.368-0.6-0.676-1.08-0.924s-0.992-0.372-1.536-0.372
        c-0.592,0-1.116,0.112-1.572,0.336c-0.456,0.225-0.844,0.524-1.164,0.9c-0.32,0.376-0.564,0.812-0.732,1.308
        s-0.252,1.017-0.252,1.56c0,0.545,0.084,1.064,0.252,1.561s0.412,0.933,0.732,1.308c0.32,0.376,0.712,0.677,1.176,0.9
        c0.464,0.225,0.992,0.336,1.584,0.336c0.576,0,1.1-0.111,1.572-0.336c0.472-0.224,0.86-0.528,1.164-0.912l1.512,1.368
        c-0.48,0.561-1.08,0.996-1.8,1.308c-0.72,0.312-1.536,0.468-2.448,0.468c-0.88,0-1.692-0.144-2.436-0.432
        c-0.744-0.288-1.388-0.691-1.932-1.212c-0.544-0.52-0.972-1.147-1.284-1.884s-0.468-1.561-0.468-2.473
        c0-0.896,0.152-1.711,0.456-2.447c0.304-0.736,0.728-1.368,1.272-1.896c0.543-0.527,1.188-0.936,1.932-1.224
        c0.744-0.288,1.548-0.433,2.412-0.433c0.8,0,1.596,0.16,2.388,0.48s1.419,0.784,1.884,1.392L96.428,16.184z"/>
    <path fill="#666666" d="M103.1,23.24c0,0.417-0.152,0.784-0.456,1.104c-0.304,0.32-0.688,0.479-1.152,0.479
        c-0.448,0-0.828-0.155-1.14-0.468c-0.312-0.312-0.468-0.676-0.468-1.092c0-0.432,0.152-0.804,0.456-1.116
        c0.304-0.312,0.688-0.468,1.152-0.468c0.464,0,0.848,0.152,1.152,0.456C102.947,22.44,103.1,22.808,103.1,23.24z"/>
    <path fill="#666666" d="M116.635,18.969c0,0.88-0.156,1.688-0.468,2.424c-0.312,0.736-0.744,1.372-1.296,1.908
        c-0.552,0.536-1.204,0.952-1.956,1.248c-0.752,0.296-1.56,0.443-2.424,0.443c-0.864,0-1.672-0.147-2.424-0.443
        c-0.752-0.296-1.4-0.712-1.944-1.248c-0.544-0.536-0.972-1.172-1.284-1.908c-0.312-0.735-0.468-1.544-0.468-2.424
        s0.156-1.684,0.468-2.412c0.312-0.728,0.74-1.356,1.284-1.884c0.543-0.528,1.191-0.939,1.944-1.236
        c0.752-0.296,1.56-0.444,2.424-0.444c0.864,0,1.672,0.148,2.424,0.444c0.752,0.297,1.404,0.708,1.956,1.236
        c0.552,0.527,0.984,1.156,1.296,1.884C116.479,17.285,116.635,18.089,116.635,18.969z M114.283,18.98
        c0-0.542-0.084-1.061-0.252-1.556c-0.169-0.494-0.414-0.929-0.734-1.304s-0.718-0.674-1.192-0.897s-1.015-0.335-1.625-0.335
        c-0.61,0-1.152,0.111-1.625,0.335c-0.474,0.224-0.871,0.522-1.191,0.897c-0.321,0.375-0.566,0.81-0.734,1.304
        c-0.169,0.495-0.253,1.014-0.253,1.556c0,0.543,0.084,1.062,0.253,1.556c0.168,0.495,0.413,0.934,0.734,1.316
        c0.321,0.383,0.718,0.686,1.191,0.909c0.473,0.224,1.015,0.335,1.625,0.335c0.61,0,1.151-0.111,1.625-0.335
        s0.871-0.526,1.192-0.909s0.565-0.821,0.734-1.316C114.199,20.042,114.283,19.523,114.283,18.98z"/>
    <path fill="#666666" d="M119.251,14.577c-0.016-0.48-0.04-0.904-0.072-1.272h2.136c0.032,0.288,0.056,0.62,0.072,0.996
        c0.016,0.376,0.024,0.684,0.024,0.924h0.072c0.32-0.672,0.788-1.212,1.404-1.62c0.616-0.408,1.308-0.612,2.076-0.612
        c0.352,0,0.648,0.033,0.888,0.097l-0.096,2.088c-0.32-0.08-0.664-0.12-1.032-0.12c-0.544,0-1.016,0.101-1.416,0.3
        c-0.4,0.2-0.732,0.468-0.996,0.805c-0.264,0.336-0.46,0.724-0.588,1.163c-0.128,0.44-0.192,0.9-0.192,1.381v5.976h-2.256v-8.928
        C119.275,15.449,119.267,15.056,119.251,14.577z"/>
    <path fill="#666666" d="M128.419,26.625c0.496,0.56,1.116,1.008,1.86,1.344c0.744,0.336,1.508,0.504,2.292,0.504
        c0.752,0,1.384-0.108,1.896-0.324s0.924-0.512,1.236-0.888s0.536-0.82,0.672-1.332c0.136-0.513,0.204-1.064,0.204-1.656v-1.464
        h-0.048c-0.416,0.641-0.984,1.128-1.704,1.464c-0.72,0.336-1.488,0.504-2.304,0.504c-0.864,0-1.652-0.151-2.364-0.456
        c-0.712-0.304-1.316-0.72-1.812-1.248c-0.496-0.527-0.88-1.147-1.152-1.859s-0.408-1.477-0.408-2.292
        c0-0.816,0.136-1.584,0.408-2.305c0.272-0.72,0.656-1.348,1.152-1.884c0.496-0.535,1.096-0.96,1.8-1.271
        c0.704-0.312,1.488-0.469,2.352-0.469c0.816,0,1.596,0.177,2.34,0.528c0.744,0.353,1.332,0.888,1.764,1.608h0.048v-1.824h2.184
        v10.8c0,0.832-0.104,1.628-0.312,2.388c-0.208,0.76-0.56,1.433-1.056,2.017s-1.144,1.052-1.944,1.404
        c-0.8,0.352-1.792,0.527-2.976,0.527c-0.992,0-1.988-0.18-2.988-0.54c-1-0.359-1.86-0.868-2.58-1.523L128.419,26.625z
         M129.091,18.873c0,0.527,0.084,1.031,0.253,1.512c0.168,0.479,0.417,0.904,0.746,1.271c0.329,0.369,0.726,0.664,1.192,0.889
        c0.465,0.224,0.995,0.336,1.589,0.336c0.577,0,1.107-0.104,1.589-0.312c0.481-0.207,0.891-0.491,1.228-0.852
        s0.598-0.784,0.782-1.272c0.185-0.487,0.277-1.012,0.277-1.571c0-0.544-0.093-1.057-0.277-1.536
        c-0.185-0.48-0.449-0.904-0.794-1.272c-0.345-0.367-0.755-0.66-1.228-0.876c-0.474-0.216-1-0.324-1.577-0.324
        c-0.594,0-1.124,0.108-1.589,0.324c-0.466,0.216-0.863,0.504-1.192,0.864s-0.578,0.784-0.746,1.271
        C129.175,17.812,129.091,18.329,129.091,18.873z"/>
</g>

</g>
<title>ReverseRandomAccessIndex&lt;I : RandomAccessIndexType&gt; &#45; Type Hierarchy &#45; Swifter</title>

<!-- BidirectionalIndexType -->
<g id="node1" class="node">
<g id="a_node1"><a xlink:href="/protocol/BidirectionalIndexType/" xlink:title="BidirectionalIndexType">
<path fill="#999999" stroke="#999999" d="M338.725,-138C338.725,-138 223.275,-138 223.275,-138 219.608,-138 215.941,-134.333 215.941,-130.667 215.941,-130.667 215.941,-123.333 215.941,-123.333 215.941,-119.667 219.608,-116 223.275,-116 223.275,-116 338.725,-116 338.725,-116 342.392,-116 346.059,-119.667 346.059,-123.333 346.059,-123.333 346.059,-130.667 346.059,-130.667 346.059,-134.333 342.392,-138 338.725,-138"/>
<text text-anchor="middle" x="281" y="-123.4" font-family="Helvetica,sans-Serif" font-size="12.00" fill="white">BidirectionalIndexType</text>
</a>
</g>
</g>
<!-- RandomAccessIndexType -->
<g id="node5" class="node"><title>RandomAccessIndexType</title>
<g id="a_node5"><a xlink:href="/protocol/RandomAccessIndexType/" xlink:title="RandomAccessIndexType">
<path fill="#999999" stroke="#999999" d="M267.225,-80C267.225,-80 132.775,-80 132.775,-80 129.108,-80 125.441,-76.3333 125.441,-72.6667 125.441,-72.6667 125.441,-65.3333 125.441,-65.3333 125.441,-61.6667 129.108,-58 132.775,-58 132.775,-58 267.225,-58 267.225,-58 270.892,-58 274.559,-61.6667 274.559,-65.3333 274.559,-65.3333 274.559,-72.6667 274.559,-72.6667 274.559,-76.3333 270.892,-80 267.225,-80"/>
<text text-anchor="middle" x="200" y="-65.4" font-family="Helvetica,sans-Serif" font-size="12.00" fill="white">RandomAccessIndexType</text>
</a>
</g>
</g>
<!-- BidirectionalIndexType&#45;&gt;RandomAccessIndexType -->
<g id="edge2" class="edge"><title>BidirectionalIndexType&#45;&gt;RandomAccessIndexType</title>
<path fill="none" stroke="#cccccc" d="M266.519,-115.988C254.499,-107.678 237.177,-95.7028 223.223,-86.0554"/>
<polygon fill="#cccccc" stroke="#cccccc" points="224.845,-82.9217 214.629,-80.1138 220.864,-88.6796 224.845,-82.9217"/>
</g>
<!-- Comparable -->
<g id="node2" class="node"><title>Comparable</title>
<g id="a_node2"><a xlink:href="/protocol/Comparable/" xlink:title="Comparable">
<path fill="#999999" stroke="#999999" d="M71.1913,-312C71.1913,-312 10.8087,-312 10.8087,-312 7.14205,-312 3.47538,-308.333 3.47538,-304.667 3.47538,-304.667 3.47538,-297.333 3.47538,-297.333 3.47538,-293.667 7.14205,-290 10.8087,-290 10.8087,-290 71.1913,-290 71.1913,-290 74.8579,-290 78.5246,-293.667 78.5246,-297.333 78.5246,-297.333 78.5246,-304.667 78.5246,-304.667 78.5246,-308.333 74.8579,-312 71.1913,-312"/>
<text text-anchor="middle" x="41" y="-297.4" font-family="Helvetica,sans-Serif" font-size="12.00" fill="white">Comparable</text>
</a>
</g>
</g>
<!-- Strideable -->
<g id="node7" class="node"><title>Strideable</title>
<g id="a_node7"><a xlink:href="/protocol/Strideable/" xlink:title="Strideable">
<path fill="#999999" stroke="#999999" d="M106.693,-254C106.693,-254 57.307,-254 57.307,-254 53.6403,-254 49.9736,-250.333 49.9736,-246.667 49.9736,-246.667 49.9736,-239.333 49.9736,-239.333 49.9736,-235.667 53.6403,-232 57.307,-232 57.307,-232 106.693,-232 106.693,-232 110.36,-232 114.026,-235.667 114.026,-239.333 114.026,-239.333 114.026,-246.667 114.026,-246.667 114.026,-250.333 110.36,-254 106.693,-254"/>
<text text-anchor="middle" x="82" y="-239.4" font-family="Helvetica,sans-Serif" font-size="12.00" fill="white">Strideable</text>
</a>
</g>
</g>
<!-- Comparable&#45;&gt;Strideable -->
<g id="edge12" class="edge"><title>Comparable&#45;&gt;Strideable</title>
<path fill="none" stroke="#cccccc" d="M48.33,-289.988C53.9156,-282.359 61.7632,-271.64 68.4772,-262.47"/>
<polygon fill="#cccccc" stroke="#cccccc" points="71.3727,-264.44 74.4561,-254.304 65.7246,-260.305 71.3727,-264.44"/>
</g>
<!-- Equatable -->
<g id="node3" class="node"><title>Equatable</title>
<g id="a_node3"><a xlink:href="/protocol/Equatable/" xlink:title="Equatable">
<path fill="#999999" stroke="#999999" d="M206.702,-370C206.702,-370 157.298,-370 157.298,-370 153.632,-370 149.965,-366.333 149.965,-362.667 149.965,-362.667 149.965,-355.333 149.965,-355.333 149.965,-351.667 153.632,-348 157.298,-348 157.298,-348 206.702,-348 206.702,-348 210.368,-348 214.035,-351.667 214.035,-355.333 214.035,-355.333 214.035,-362.667 214.035,-362.667 214.035,-366.333 210.368,-370 206.702,-370"/>
<text text-anchor="middle" x="182" y="-355.4" font-family="Helvetica,sans-Serif" font-size="12.00" fill="white">Equatable</text>
</a>
</g>
</g>
<!-- Equatable&#45;&gt;Comparable -->
<g id="edge15" class="edge"><title>Equatable&#45;&gt;Comparable</title>
<path fill="none" stroke="#cccccc" d="M156.792,-347.988C134.275,-339.045 101.068,-325.857 75.9818,-315.893"/>
<polygon fill="#cccccc" stroke="#cccccc" points="77.0509,-312.552 66.4651,-312.114 74.467,-319.058 77.0509,-312.552"/>
</g>
<!-- _Incrementable -->
<g id="node11" class="node"><title>_Incrementable</title>
<g id="a_node11"><a xlink:href="/protocol/_Incrementable/" xlink:title="_Incrementable">
<path fill="#999999" stroke="#999999" d="M270.705,-312C270.705,-312 193.295,-312 193.295,-312 189.628,-312 185.961,-308.333 185.961,-304.667 185.961,-304.667 185.961,-297.333 185.961,-297.333 185.961,-293.667 189.628,-290 193.295,-290 193.295,-290 270.705,-290 270.705,-290 274.372,-290 278.039,-293.667 278.039,-297.333 278.039,-297.333 278.039,-304.667 278.039,-304.667 278.039,-308.333 274.372,-312 270.705,-312"/>
<text text-anchor="middle" x="232" y="-297.4" font-family="Helvetica,sans-Serif" font-size="12.00" fill="white">_Incrementable</text>
</a>
</g>
</g>
<!-- Equatable&#45;&gt;_Incrementable -->
<g id="edge8" class="edge"><title>Equatable&#45;&gt;_Incrementable</title>
<path fill="none" stroke="#cccccc" d="M190.939,-347.988C197.891,-340.202 207.717,-329.197 216.013,-319.905"/>
<polygon fill="#cccccc" stroke="#cccccc" points="218.751,-322.094 222.8,-312.304 213.529,-317.432 218.751,-322.094"/>
</g>
<!-- ForwardIndexType -->
<g id="node4" class="node"><title>ForwardIndexType</title>
<g id="a_node4"><a xlink:href="/protocol/ForwardIndexType/" xlink:title="ForwardIndexType">
<path fill="#999999" stroke="#999999" d="M367.206,-196C367.206,-196 272.794,-196 272.794,-196 269.127,-196 265.461,-192.333 265.461,-188.667 265.461,-188.667 265.461,-181.333 265.461,-181.333 265.461,-177.667 269.127,-174 272.794,-174 272.794,-174 367.206,-174 367.206,-174 370.873,-174 374.539,-177.667 374.539,-181.333 374.539,-181.333 374.539,-188.667 374.539,-188.667 374.539,-192.333 370.873,-196 367.206,-196"/>
<text text-anchor="middle" x="320" y="-181.4" font-family="Helvetica,sans-Serif" font-size="12.00" fill="white">ForwardIndexType</text>
</a>
</g>
</g>
<!-- ForwardIndexType&#45;&gt;BidirectionalIndexType -->
<g id="edge4" class="edge"><title>ForwardIndexType&#45;&gt;BidirectionalIndexType</title>
<path fill="none" stroke="#cccccc" d="M313.028,-173.988C307.769,-166.438 300.403,-155.861 294.061,-146.754"/>
<polygon fill="#cccccc" stroke="#cccccc" points="296.763,-144.51 288.176,-138.304 291.019,-148.51 296.763,-144.51"/>
</g>
<!-- ReverseRandomAccessIndex&lt;I : RandomAccessIndexType&gt; -->
<g id="node6" class="node"><title>ReverseRandomAccessIndex&lt;I : RandomAccessIndexType&gt;</title>
<g id="a_node6"><a xlink:href="/type/ReverseRandomAccessIndex/" xlink:title="ReverseRandomAccessIndex&lt;I : RandomAccessIndexType&gt;">
<polygon fill="#ee543d" stroke="#ee543d" points="367.129,-22 32.8714,-22 32.8714,-0 367.129,-0 367.129,-22"/>
<text text-anchor="middle" x="200" y="-7.4" font-family="Helvetica,sans-Serif" font-size="12.00" fill="white">ReverseRandomAccessIndex&lt;I : RandomAccessIndexType&gt;</text>
</a>
</g>
</g>
<!-- RandomAccessIndexType&#45;&gt;ReverseRandomAccessIndex&lt;I : RandomAccessIndexType&gt; -->
<g id="edge1" class="edge"><title>RandomAccessIndexType&#45;&gt;ReverseRandomAccessIndex&lt;I : RandomAccessIndexType&gt;</title>
<path fill="none" stroke="#cccccc" d="M200,-57.9883C200,-50.9098 200,-41.1714 200,-32.4779"/>
<polygon fill="#cccccc" stroke="#cccccc" points="203.5,-32.3038 200,-22.3039 196.5,-32.3039 203.5,-32.3038"/>
</g>
<!-- _RandomAccessIndexType -->
<g id="node12" class="node"><title>_RandomAccessIndexType</title>
<g id="a_node12"><a xlink:href="/protocol/_RandomAccessIndexType/" xlink:title="_RandomAccessIndexType">
<path fill="#999999" stroke="#999999" d="M190.731,-138C190.731,-138 49.2689,-138 49.2689,-138 45.6022,-138 41.9355,-134.333 41.9355,-130.667 41.9355,-130.667 41.9355,-123.333 41.9355,-123.333 41.9355,-119.667 45.6022,-116 49.2689,-116 49.2689,-116 190.731,-116 190.731,-116 194.398,-116 198.064,-119.667 198.064,-123.333 198.064,-123.333 198.064,-130.667 198.064,-130.667 198.064,-134.333 194.398,-138 190.731,-138"/>
<text text-anchor="middle" x="120" y="-123.4" font-family="Helvetica,sans-Serif" font-size="12.00" fill="white">_RandomAccessIndexType</text>
</a>
</g>
</g>
<!-- Strideable&#45;&gt;_RandomAccessIndexType -->
<g id="edge11" class="edge"><title>Strideable&#45;&gt;_RandomAccessIndexType</title>
<path fill="none" stroke="#cccccc" d="M84.4591,-231.745C87.768,-218.331 94.0467,-194.163 101,-174 104.05,-165.155 107.919,-155.563 111.369,-147.438"/>
<polygon fill="#cccccc" stroke="#cccccc" points="114.652,-148.664 115.421,-138.098 108.23,-145.879 114.652,-148.664"/>
</g>
<!-- _BidirectionalIndexType -->
<g id="node8" class="node"><title>_BidirectionalIndexType</title>
<g id="a_node8"><a xlink:href="/protocol/_BidirectionalIndexType/" xlink:title="_BidirectionalIndexType">
<path fill="#999999" stroke="#999999" d="M240.23,-196C240.23,-196 117.77,-196 117.77,-196 114.104,-196 110.437,-192.333 110.437,-188.667 110.437,-188.667 110.437,-181.333 110.437,-181.333 110.437,-177.667 114.104,-174 117.77,-174 117.77,-174 240.23,-174 240.23,-174 243.896,-174 247.563,-177.667 247.563,-181.333 247.563,-181.333 247.563,-188.667 247.563,-188.667 247.563,-192.333 243.896,-196 240.23,-196"/>
<text text-anchor="middle" x="179" y="-181.4" font-family="Helvetica,sans-Serif" font-size="12.00" fill="white">_BidirectionalIndexType</text>
</a>
</g>
</g>
<!-- _BidirectionalIndexType&#45;&gt;BidirectionalIndexType -->
<g id="edge5" class="edge"><title>_BidirectionalIndexType&#45;&gt;BidirectionalIndexType</title>
<path fill="none" stroke="#cccccc" d="M197.236,-173.988C212.948,-165.362 235.856,-152.785 253.745,-142.963"/>
<polygon fill="#cccccc" stroke="#cccccc" points="255.497,-145.994 262.578,-138.114 252.128,-139.858 255.497,-145.994"/>
</g>
<!-- _BidirectionalIndexType&#45;&gt;_RandomAccessIndexType -->
<g id="edge10" class="edge"><title>_BidirectionalIndexType&#45;&gt;_RandomAccessIndexType</title>
<path fill="none" stroke="#cccccc" d="M168.452,-173.988C160.083,-166.045 148.184,-154.751 138.273,-145.344"/>
<polygon fill="#cccccc" stroke="#cccccc" points="140.518,-142.65 130.856,-138.304 135.699,-147.727 140.518,-142.65"/>
</g>
<!-- _Comparable -->
<g id="node9" class="node"><title>_Comparable</title>
<g id="a_node9"><a xlink:href="/protocol/_Comparable/" xlink:title="_Comparable">
<path fill="#999999" stroke="#999999" d="M74.6974,-370C74.6974,-370 7.30257,-370 7.30257,-370 3.6359,-370 -0.0307668,-366.333 -0.0307668,-362.667 -0.0307668,-362.667 -0.0307668,-355.333 -0.0307668,-355.333 -0.0307668,-351.667 3.6359,-348 7.30257,-348 7.30257,-348 74.6974,-348 74.6974,-348 78.3641,-348 82.0308,-351.667 82.0308,-355.333 82.0308,-355.333 82.0308,-362.667 82.0308,-362.667 82.0308,-366.333 78.3641,-370 74.6974,-370"/>
<text text-anchor="middle" x="41" y="-355.4" font-family="Helvetica,sans-Serif" font-size="12.00" fill="white">_Comparable</text>
</a>
</g>
</g>
<!-- _Comparable&#45;&gt;Comparable -->
<g id="edge14" class="edge"><title>_Comparable&#45;&gt;Comparable</title>
<path fill="none" stroke="#cccccc" d="M41,-347.988C41,-340.91 41,-331.171 41,-322.478"/>
<polygon fill="#cccccc" stroke="#cccccc" points="44.5001,-322.304 41,-312.304 37.5001,-322.304 44.5001,-322.304"/>
</g>
<!-- _ForwardIndexType -->
<g id="node10" class="node"><title>_ForwardIndexType</title>
<g id="a_node10"><a xlink:href="/protocol/_ForwardIndexType/" xlink:title="_ForwardIndexType">
<path fill="#999999" stroke="#999999" d="M282.712,-254C282.712,-254 181.288,-254 181.288,-254 177.621,-254 173.955,-250.333 173.955,-246.667 173.955,-246.667 173.955,-239.333 173.955,-239.333 173.955,-235.667 177.621,-232 181.288,-232 181.288,-232 282.712,-232 282.712,-232 286.379,-232 290.045,-235.667 290.045,-239.333 290.045,-239.333 290.045,-246.667 290.045,-246.667 290.045,-250.333 286.379,-254 282.712,-254"/>
<text text-anchor="middle" x="232" y="-239.4" font-family="Helvetica,sans-Serif" font-size="12.00" fill="white">_ForwardIndexType</text>
</a>
</g>
</g>
<!-- _ForwardIndexType&#45;&gt;ForwardIndexType -->
<g id="edge6" class="edge"><title>_ForwardIndexType&#45;&gt;ForwardIndexType</title>
<path fill="none" stroke="#cccccc" d="M247.733,-231.988C261.04,-223.52 280.329,-211.245 295.632,-201.507"/>
<polygon fill="#cccccc" stroke="#cccccc" points="297.549,-204.435 304.107,-196.114 293.791,-198.53 297.549,-204.435"/>
</g>
<!-- _ForwardIndexType&#45;&gt;_BidirectionalIndexType -->
<g id="edge9" class="edge"><title>_ForwardIndexType&#45;&gt;_BidirectionalIndexType</title>
<path fill="none" stroke="#cccccc" d="M222.525,-231.988C215.081,-224.123 204.529,-212.974 195.68,-203.624"/>
<polygon fill="#cccccc" stroke="#cccccc" points="198.168,-201.161 188.752,-196.304 193.084,-205.973 198.168,-201.161"/>
</g>
<!-- _Incrementable&#45;&gt;_ForwardIndexType -->
<g id="edge7" class="edge"><title>_Incrementable&#45;&gt;_ForwardIndexType</title>
<path fill="none" stroke="#cccccc" d="M232,-289.988C232,-282.91 232,-273.171 232,-264.478"/>
<polygon fill="#cccccc" stroke="#cccccc" points="235.5,-264.304 232,-254.304 228.5,-264.304 235.5,-264.304"/>
</g>
<!-- _RandomAccessIndexType&#45;&gt;RandomAccessIndexType -->
<g id="edge3" class="edge"><title>_RandomAccessIndexType&#45;&gt;RandomAccessIndexType</title>
<path fill="none" stroke="#cccccc" d="M134.302,-115.988C146.174,-107.678 163.282,-95.7028 177.064,-86.0554"/>
<polygon fill="#cccccc" stroke="#cccccc" points="179.366,-88.7158 185.552,-80.1138 175.352,-82.9812 179.366,-88.7158"/>
</g>
<!-- _Strideable -->
<g id="node13" class="node"><title>_Strideable</title>
<g id="a_node13"><a xlink:href="/protocol/_Strideable/" xlink:title="_Strideable">
<path fill="#999999" stroke="#999999" d="M159.7,-312C159.7,-312 104.3,-312 104.3,-312 100.634,-312 96.9669,-308.333 96.9669,-304.667 96.9669,-304.667 96.9669,-297.333 96.9669,-297.333 96.9669,-293.667 100.634,-290 104.3,-290 104.3,-290 159.7,-290 159.7,-290 163.366,-290 167.033,-293.667 167.033,-297.333 167.033,-297.333 167.033,-304.667 167.033,-304.667 167.033,-308.333 163.366,-312 159.7,-312"/>
<text text-anchor="middle" x="132" y="-297.4" font-family="Helvetica,sans-Serif" font-size="12.00" fill="white">_Strideable</text>
</a>
</g>
</g>
<!-- _Strideable&#45;&gt;Strideable -->
<g id="edge13" class="edge"><title>_Strideable&#45;&gt;Strideable</title>
<path fill="none" stroke="#cccccc" d="M123.061,-289.988C116.109,-282.202 106.283,-271.197 97.9865,-261.905"/>
<polygon fill="#cccccc" stroke="#cccccc" points="100.471,-259.432 91.1999,-254.304 95.2493,-264.094 100.471,-259.432"/>
</g>
</g>
</svg>
