<?xml version="1.0" encoding="UTF-8" standalone="no"?>
<!DOCTYPE svg PUBLIC "-//W3C//DTD SVG 1.1//EN"
 "http://www.w3.org/Graphics/SVG/1.1/DTD/svg11.dtd">
<!-- Generated by graphviz version 2.36.0 (20140111.2315)
 -->
<!-- Title: Float &#45; Type Hierarchy &#45; Swifter Pages: 1 -->
<svg width="803pt" height="427pt"
 viewBox="0.00 0.00 803.40 427.20" xmlns="http://www.w3.org/2000/svg" xmlns:xlink="http://www.w3.org/1999/xlink">
<g id="graph0" class="graph" transform="scale(1 1) rotate(0) translate(7.2 369.6)">
<g transform="translate(0 -369.6)">
<g>
    <path fill="#666666" d="M13.846,10.832c-0.336-0.464-0.792-0.844-1.368-1.14s-1.224-0.444-1.944-0.444
        c-0.384,0-0.772,0.052-1.164,0.156C8.977,9.509,8.622,9.677,8.301,9.908c-0.32,0.232-0.58,0.52-0.78,0.864
        c-0.2,0.344-0.3,0.756-0.3,1.236c0,0.464,0.092,0.852,0.276,1.164c0.184,0.312,0.432,0.576,0.744,0.792s0.68,0.4,1.104,0.552
        c0.423,0.152,0.876,0.309,1.356,0.468c0.576,0.177,1.16,0.376,1.752,0.601c0.592,0.224,1.128,0.52,1.608,0.888
        s0.872,0.828,1.176,1.38s0.456,1.252,0.456,2.101c0,0.88-0.164,1.644-0.492,2.292c-0.328,0.647-0.765,1.184-1.308,1.607
        c-0.544,0.424-1.172,0.74-1.884,0.948s-1.444,0.312-2.196,0.312c-1.072,0-2.108-0.208-3.108-0.624
        c-1-0.415-1.828-1.031-2.484-1.848l1.848-1.56c0.4,0.592,0.936,1.071,1.608,1.439c0.672,0.368,1.399,0.552,2.184,0.552
        c0.4,0,0.8-0.056,1.2-0.168c0.4-0.111,0.764-0.288,1.092-0.527c0.328-0.24,0.596-0.54,0.804-0.9
        c0.208-0.36,0.312-0.796,0.312-1.308s-0.108-0.94-0.324-1.284c-0.216-0.344-0.508-0.636-0.876-0.876s-0.796-0.444-1.284-0.612
        c-0.488-0.168-1.004-0.34-1.548-0.516c-0.544-0.16-1.08-0.356-1.608-0.588c-0.528-0.232-1-0.528-1.416-0.889
        c-0.416-0.359-0.752-0.804-1.008-1.332c-0.256-0.527-0.384-1.184-0.384-1.968c0-0.848,0.172-1.576,0.516-2.184
        c0.344-0.608,0.792-1.112,1.344-1.512c0.552-0.4,1.176-0.692,1.872-0.876c0.696-0.184,1.396-0.276,2.1-0.276
        c0.992,0,1.92,0.176,2.784,0.528c0.864,0.352,1.56,0.824,2.088,1.416L13.846,10.832z"/>
    <path fill="#666666" d="M18.813,13.304l2.568,8.688h0.048l2.712-8.688h2.376l2.76,8.688h0.048l2.568-8.688h2.376L30.501,24.68
        h-2.352l-2.808-8.544h-0.048l-2.784,8.544h-2.352l-3.792-11.376H18.813z"/>
    <path fill="#666666" d="M38.685,9.2c0,0.416-0.147,0.76-0.44,1.032c-0.294,0.272-0.647,0.408-1.06,0.408s-0.762-0.14-1.047-0.42
        c-0.286-0.28-0.429-0.62-0.429-1.02c0-0.416,0.143-0.764,0.429-1.044c0.286-0.28,0.635-0.42,1.047-0.42s0.766,0.14,1.06,0.42
        C38.538,8.437,38.685,8.784,38.685,9.2z M38.325,24.68h-2.256V13.304h2.256V24.68z"/>
    <path fill="#666666" d="M47.613,15.152h-2.64v9.528h-2.256v-9.528h-2.256v-1.848h2.256v-2.376c0-0.672,0.076-1.292,0.228-1.86
        c0.152-0.568,0.4-1.06,0.744-1.476c0.344-0.416,0.784-0.744,1.32-0.984c0.536-0.24,1.188-0.36,1.956-0.36
        c0.544,0,1.016,0.056,1.416,0.168l-0.264,1.944c-0.176-0.048-0.352-0.088-0.528-0.12c-0.176-0.032-0.376-0.048-0.6-0.048
        c-0.432,0-0.78,0.076-1.044,0.228c-0.264,0.152-0.468,0.356-0.612,0.612s-0.24,0.548-0.288,0.876
        c-0.048,0.328-0.072,0.668-0.072,1.02v2.376h2.64V15.152z"/>
    <path fill="#666666" d="M54.909,15.152h-3.024v5.91c0,0.687,0.128,1.177,0.384,1.472c0.256,0.295,0.664,0.442,1.224,0.442
        c0.208,0,0.432-0.021,0.672-0.065c0.24-0.044,0.456-0.11,0.648-0.198l0.072,1.848c-0.272,0.096-0.572,0.172-0.9,0.229
        c-0.328,0.056-0.668,0.084-1.02,0.084c-1.072,0-1.892-0.296-2.46-0.889c-0.568-0.592-0.852-1.479-0.852-2.664v-6.168h-2.184
        v-1.848h2.184V10.04h2.232v3.264h3.024V15.152z"/>
    <path fill="#666666" d="M57.356,7.688h5.832c1.088,0,2.176,0.16,3.264,0.48c1.088,0.32,2.072,0.824,2.952,1.512
        s1.592,1.568,2.136,2.64c0.544,1.072,0.816,2.36,0.816,3.864c0,1.456-0.272,2.716-0.816,3.78s-1.256,1.943-2.136,2.64
        s-1.864,1.216-2.952,1.561c-1.088,0.344-2.176,0.516-3.264,0.516h-5.832V7.688z M59.732,22.593h2.976
        c1.024,0,1.972-0.145,2.844-0.432c0.872-0.288,1.624-0.704,2.256-1.248c0.632-0.544,1.124-1.216,1.476-2.017
        c0.352-0.8,0.528-1.704,0.528-2.712c0-1.056-0.176-1.983-0.528-2.784c-0.353-0.8-0.844-1.468-1.476-2.004
        c-0.632-0.536-1.384-0.944-2.256-1.224s-1.82-0.42-2.844-0.42h-2.976V22.593z"/>
    <path fill="#666666" d="M86.06,18.969c0,0.88-0.156,1.688-0.468,2.424c-0.312,0.736-0.744,1.372-1.296,1.908
        c-0.552,0.536-1.204,0.952-1.956,1.248c-0.752,0.296-1.56,0.443-2.424,0.443c-0.864,0-1.672-0.147-2.424-0.443
        c-0.752-0.296-1.4-0.712-1.944-1.248c-0.544-0.536-0.972-1.172-1.284-1.908c-0.312-0.735-0.468-1.544-0.468-2.424
        s0.156-1.684,0.468-2.412c0.312-0.728,0.74-1.356,1.284-1.884c0.543-0.528,1.191-0.939,1.944-1.236
        c0.752-0.296,1.56-0.444,2.424-0.444c0.864,0,1.672,0.148,2.424,0.444c0.752,0.297,1.404,0.708,1.956,1.236
        c0.552,0.527,0.984,1.156,1.296,1.884C85.904,17.285,86.06,18.089,86.06,18.969z M83.708,18.98c0-0.542-0.084-1.061-0.252-1.556
        c-0.169-0.494-0.414-0.929-0.734-1.304s-0.718-0.674-1.192-0.897s-1.015-0.335-1.625-0.335c-0.61,0-1.152,0.111-1.625,0.335
        c-0.474,0.224-0.871,0.522-1.191,0.897c-0.321,0.375-0.566,0.81-0.734,1.304C76.184,17.92,76.1,18.438,76.1,18.98
        c0,0.543,0.084,1.062,0.253,1.556c0.168,0.495,0.413,0.934,0.734,1.316c0.321,0.383,0.718,0.686,1.191,0.909
        c0.473,0.224,1.015,0.335,1.625,0.335c0.61,0,1.151-0.111,1.625-0.335s0.871-0.526,1.192-0.909s0.565-0.821,0.734-1.316
        C83.624,20.042,83.708,19.523,83.708,18.98z"/>
    <path fill="#666666" d="M96.428,16.184c-0.24-0.368-0.6-0.676-1.08-0.924s-0.992-0.372-1.536-0.372
        c-0.592,0-1.116,0.112-1.572,0.336c-0.456,0.225-0.844,0.524-1.164,0.9c-0.32,0.376-0.564,0.812-0.732,1.308
        s-0.252,1.017-0.252,1.56c0,0.545,0.084,1.064,0.252,1.561s0.412,0.933,0.732,1.308c0.32,0.376,0.712,0.677,1.176,0.9
        c0.464,0.225,0.992,0.336,1.584,0.336c0.576,0,1.1-0.111,1.572-0.336c0.472-0.224,0.86-0.528,1.164-0.912l1.512,1.368
        c-0.48,0.561-1.08,0.996-1.8,1.308c-0.72,0.312-1.536,0.468-2.448,0.468c-0.88,0-1.692-0.144-2.436-0.432
        c-0.744-0.288-1.388-0.691-1.932-1.212c-0.544-0.52-0.972-1.147-1.284-1.884s-0.468-1.561-0.468-2.473
        c0-0.896,0.152-1.711,0.456-2.447c0.304-0.736,0.728-1.368,1.272-1.896c0.543-0.527,1.188-0.936,1.932-1.224
        c0.744-0.288,1.548-0.433,2.412-0.433c0.8,0,1.596,0.16,2.388,0.48s1.419,0.784,1.884,1.392L96.428,16.184z"/>
    <path fill="#666666" d="M103.1,23.24c0,0.417-0.152,0.784-0.456,1.104c-0.304,0.32-0.688,0.479-1.152,0.479
        c-0.448,0-0.828-0.155-1.14-0.468c-0.312-0.312-0.468-0.676-0.468-1.092c0-0.432,0.152-0.804,0.456-1.116
        c0.304-0.312,0.688-0.468,1.152-0.468c0.464,0,0.848,0.152,1.152,0.456C102.947,22.44,103.1,22.808,103.1,23.24z"/>
    <path fill="#666666" d="M116.635,18.969c0,0.88-0.156,1.688-0.468,2.424c-0.312,0.736-0.744,1.372-1.296,1.908
        c-0.552,0.536-1.204,0.952-1.956,1.248c-0.752,0.296-1.56,0.443-2.424,0.443c-0.864,0-1.672-0.147-2.424-0.443
        c-0.752-0.296-1.4-0.712-1.944-1.248c-0.544-0.536-0.972-1.172-1.284-1.908c-0.312-0.735-0.468-1.544-0.468-2.424
        s0.156-1.684,0.468-2.412c0.312-0.728,0.74-1.356,1.284-1.884c0.543-0.528,1.191-0.939,1.944-1.236
        c0.752-0.296,1.56-0.444,2.424-0.444c0.864,0,1.672,0.148,2.424,0.444c0.752,0.297,1.404,0.708,1.956,1.236
        c0.552,0.527,0.984,1.156,1.296,1.884C116.479,17.285,116.635,18.089,116.635,18.969z M114.283,18.98
        c0-0.542-0.084-1.061-0.252-1.556c-0.169-0.494-0.414-0.929-0.734-1.304s-0.718-0.674-1.192-0.897s-1.015-0.335-1.625-0.335
        c-0.61,0-1.152,0.111-1.625,0.335c-0.474,0.224-0.871,0.522-1.191,0.897c-0.321,0.375-0.566,0.81-0.734,1.304
        c-0.169,0.495-0.253,1.014-0.253,1.556c0,0.543,0.084,1.062,0.253,1.556c0.168,0.495,0.413,0.934,0.734,1.316
        c0.321,0.383,0.718,0.686,1.191,0.909c0.473,0.224,1.015,0.335,1.625,0.335c0.61,0,1.151-0.111,1.625-0.335
        s0.871-0.526,1.192-0.909s0.565-0.821,0.734-1.316C114.199,20.042,114.283,19.523,114.283,18.98z"/>
    <path fill="#666666" d="M119.251,14.577c-0.016-0.48-0.04-0.904-0.072-1.272h2.136c0.032,0.288,0.056,0.62,0.072,0.996
        c0.016,0.376,0.024,0.684,0.024,0.924h0.072c0.32-0.672,0.788-1.212,1.404-1.62c0.616-0.408,1.308-0.612,2.076-0.612
        c0.352,0,0.648,0.033,0.888,0.097l-0.096,2.088c-0.32-0.08-0.664-0.12-1.032-0.12c-0.544,0-1.016,0.101-1.416,0.3
        c-0.4,0.2-0.732,0.468-0.996,0.805c-0.264,0.336-0.46,0.724-0.588,1.163c-0.128,0.44-0.192,0.9-0.192,1.381v5.976h-2.256v-8.928
        C119.275,15.449,119.267,15.056,119.251,14.577z"/>
    <path fill="#666666" d="M128.419,26.625c0.496,0.56,1.116,1.008,1.86,1.344c0.744,0.336,1.508,0.504,2.292,0.504
        c0.752,0,1.384-0.108,1.896-0.324s0.924-0.512,1.236-0.888s0.536-0.82,0.672-1.332c0.136-0.513,0.204-1.064,0.204-1.656v-1.464
        h-0.048c-0.416,0.641-0.984,1.128-1.704,1.464c-0.72,0.336-1.488,0.504-2.304,0.504c-0.864,0-1.652-0.151-2.364-0.456
        c-0.712-0.304-1.316-0.72-1.812-1.248c-0.496-0.527-0.88-1.147-1.152-1.859s-0.408-1.477-0.408-2.292
        c0-0.816,0.136-1.584,0.408-2.305c0.272-0.72,0.656-1.348,1.152-1.884c0.496-0.535,1.096-0.96,1.8-1.271
        c0.704-0.312,1.488-0.469,2.352-0.469c0.816,0,1.596,0.177,2.34,0.528c0.744,0.353,1.332,0.888,1.764,1.608h0.048v-1.824h2.184
        v10.8c0,0.832-0.104,1.628-0.312,2.388c-0.208,0.76-0.56,1.433-1.056,2.017s-1.144,1.052-1.944,1.404
        c-0.8,0.352-1.792,0.527-2.976,0.527c-0.992,0-1.988-0.18-2.988-0.54c-1-0.359-1.86-0.868-2.58-1.523L128.419,26.625z
         M129.091,18.873c0,0.527,0.084,1.031,0.253,1.512c0.168,0.479,0.417,0.904,0.746,1.271c0.329,0.369,0.726,0.664,1.192,0.889
        c0.465,0.224,0.995,0.336,1.589,0.336c0.577,0,1.107-0.104,1.589-0.312c0.481-0.207,0.891-0.491,1.228-0.852
        s0.598-0.784,0.782-1.272c0.185-0.487,0.277-1.012,0.277-1.571c0-0.544-0.093-1.057-0.277-1.536
        c-0.185-0.48-0.449-0.904-0.794-1.272c-0.345-0.367-0.755-0.66-1.228-0.876c-0.474-0.216-1-0.324-1.577-0.324
        c-0.594,0-1.124,0.108-1.589,0.324c-0.466,0.216-0.863,0.504-1.192,0.864s-0.578,0.784-0.746,1.271
        C129.175,17.812,129.091,18.329,129.091,18.873z"/>
</g>

</g>
<title>Float &#45; Type Hierarchy &#45; Swifter</title>

<!-- AbsoluteValuable -->
<g id="node1" class="node">
<g id="a_node1"><a xlink:href="/protocol/AbsoluteValuable/" xlink:title="AbsoluteValuable">
<path fill="#999999" stroke="#999999" d="M231.558,-80C231.558,-80 144.442,-80 144.442,-80 140.775,-80 137.109,-76.3333 137.109,-72.6667 137.109,-72.6667 137.109,-65.3333 137.109,-65.3333 137.109,-61.6667 140.775,-58 144.442,-58 144.442,-58 231.558,-58 231.558,-58 235.225,-58 238.891,-61.6667 238.891,-65.3333 238.891,-65.3333 238.891,-72.6667 238.891,-72.6667 238.891,-76.3333 235.225,-80 231.558,-80"/>
<text text-anchor="middle" x="188" y="-65.4" font-family="Helvetica,sans-Serif" font-size="12.00" fill="white">AbsoluteValuable</text>
</a>
</g>
</g>
<!-- Float -->
<g id="node5" class="node"><title>Float</title>
<g id="a_node5"><a xlink:href="/type/Float/" xlink:title="Float">
<polygon fill="#ee543d" stroke="#ee543d" points="415,-22 361,-22 361,-0 415,-0 415,-22"/>
<text text-anchor="middle" x="388" y="-7.4" font-family="Helvetica,sans-Serif" font-size="12.00" fill="white">Float</text>
</a>
</g>
</g>
<!-- AbsoluteValuable&#45;&gt;Float -->
<g id="edge7" class="edge"><title>AbsoluteValuable&#45;&gt;Float</title>
<path fill="none" stroke="#cccccc" d="M223.756,-57.9883C259.702,-47.9235 314.853,-32.4812 351.174,-22.3113"/>
<polygon fill="#cccccc" stroke="#cccccc" points="352.201,-25.6583 360.887,-19.5915 350.314,-18.9175 352.201,-25.6583"/>
</g>
<!-- CVarArgType -->
<g id="node2" class="node"><title>CVarArgType</title>
<g id="a_node2"><a xlink:href="/protocol/CVarArgType/" xlink:title="CVarArgType">
<path fill="#999999" stroke="#999999" d="M73.0291,-80C73.0291,-80 6.97093,-80 6.97093,-80 3.30427,-80 -0.362399,-76.3333 -0.362399,-72.6667 -0.362399,-72.6667 -0.362399,-65.3333 -0.362399,-65.3333 -0.362399,-61.6667 3.30427,-58 6.97093,-58 6.97093,-58 73.0291,-58 73.0291,-58 76.6957,-58 80.3624,-61.6667 80.3624,-65.3333 80.3624,-65.3333 80.3624,-72.6667 80.3624,-72.6667 80.3624,-76.3333 76.6957,-80 73.0291,-80"/>
<text text-anchor="middle" x="40" y="-65.4" font-family="Helvetica,sans-Serif" font-size="12.00" fill="white">CVarArgType</text>
</a>
</g>
</g>
<!-- CVarArgType&#45;&gt;Float -->
<g id="edge10" class="edge"><title>CVarArgType&#45;&gt;Float</title>
<path fill="none" stroke="#cccccc" d="M80.5295,-60.5166C85.4024,-59.6507 90.3113,-58.7942 95,-58 186.811,-42.4488 295.125,-25.9135 350.808,-17.545"/>
<polygon fill="#cccccc" stroke="#cccccc" points="351.53,-20.976 360.9,-16.0312 350.491,-14.0535 351.53,-20.976"/>
</g>
<!-- Comparable -->
<g id="node3" class="node"><title>Comparable</title>
<g id="a_node3"><a xlink:href="/protocol/Comparable/" xlink:title="Comparable">
<path fill="#999999" stroke="#999999" d="M422.191,-254C422.191,-254 361.809,-254 361.809,-254 358.142,-254 354.475,-250.333 354.475,-246.667 354.475,-246.667 354.475,-239.333 354.475,-239.333 354.475,-235.667 358.142,-232 361.809,-232 361.809,-232 422.191,-232 422.191,-232 425.858,-232 429.525,-235.667 429.525,-239.333 429.525,-239.333 429.525,-246.667 429.525,-246.667 429.525,-250.333 425.858,-254 422.191,-254"/>
<text text-anchor="middle" x="392" y="-239.4" font-family="Helvetica,sans-Serif" font-size="12.00" fill="white">Comparable</text>
</a>
</g>
</g>
<!-- Comparable&#45;&gt;Float -->
<g id="edge5" class="edge"><title>Comparable&#45;&gt;Float</title>
<path fill="none" stroke="#cccccc" d="M395.219,-231.886C403.655,-203.884 424.768,-123.108 410,-58 407.884,-48.6708 403.634,-39.0212 399.429,-30.984"/>
<polygon fill="#cccccc" stroke="#cccccc" points="402.403,-29.131 394.469,-22.1099 396.293,-32.5465 402.403,-29.131"/>
</g>
<!-- Strideable -->
<g id="node13" class="node"><title>Strideable</title>
<g id="a_node13"><a xlink:href="/protocol/Strideable/" xlink:title="Strideable">
<path fill="#999999" stroke="#999999" d="M362.693,-138C362.693,-138 313.307,-138 313.307,-138 309.64,-138 305.974,-134.333 305.974,-130.667 305.974,-130.667 305.974,-123.333 305.974,-123.333 305.974,-119.667 309.64,-116 313.307,-116 313.307,-116 362.693,-116 362.693,-116 366.36,-116 370.026,-119.667 370.026,-123.333 370.026,-123.333 370.026,-130.667 370.026,-130.667 370.026,-134.333 366.36,-138 362.693,-138"/>
<text text-anchor="middle" x="338" y="-123.4" font-family="Helvetica,sans-Serif" font-size="12.00" fill="white">Strideable</text>
</a>
</g>
</g>
<!-- Comparable&#45;&gt;Strideable -->
<g id="edge12" class="edge"><title>Comparable&#45;&gt;Strideable</title>
<path fill="none" stroke="#cccccc" d="M390.185,-231.91C387.478,-218.262 381.64,-193.394 372,-174 367.131,-164.204 360.157,-154.321 353.791,-146.24"/>
<polygon fill="#cccccc" stroke="#cccccc" points="356.299,-143.779 347.25,-138.268 350.887,-148.219 356.299,-143.779"/>
</g>
<!-- _SignedNumberType -->
<g id="node15" class="node"><title>_SignedNumberType</title>
<g id="a_node15"><a xlink:href="/protocol/_SignedNumberType/" xlink:title="_SignedNumberType">
<path fill="#999999" stroke="#999999" d="M251.723,-196C251.723,-196 144.277,-196 144.277,-196 140.611,-196 136.944,-192.333 136.944,-188.667 136.944,-188.667 136.944,-181.333 136.944,-181.333 136.944,-177.667 140.611,-174 144.277,-174 144.277,-174 251.723,-174 251.723,-174 255.389,-174 259.056,-177.667 259.056,-181.333 259.056,-181.333 259.056,-188.667 259.056,-188.667 259.056,-192.333 255.389,-196 251.723,-196"/>
<text text-anchor="middle" x="198" y="-181.4" font-family="Helvetica,sans-Serif" font-size="12.00" fill="white">_SignedNumberType</text>
</a>
</g>
</g>
<!-- Comparable&#45;&gt;_SignedNumberType -->
<g id="edge19" class="edge"><title>Comparable&#45;&gt;_SignedNumberType</title>
<path fill="none" stroke="#cccccc" d="M357.317,-231.988C325.277,-222.74 277.506,-208.95 242.632,-198.884"/>
<polygon fill="#cccccc" stroke="#cccccc" points="243.288,-195.43 232.71,-196.019 241.347,-202.155 243.288,-195.43"/>
</g>
<!-- Equatable -->
<g id="node4" class="node"><title>Equatable</title>
<g id="a_node4"><a xlink:href="/protocol/Equatable/" xlink:title="Equatable">
<path fill="#999999" stroke="#999999" d="M508.702,-312C508.702,-312 459.298,-312 459.298,-312 455.632,-312 451.965,-308.333 451.965,-304.667 451.965,-304.667 451.965,-297.333 451.965,-297.333 451.965,-293.667 455.632,-290 459.298,-290 459.298,-290 508.702,-290 508.702,-290 512.368,-290 516.035,-293.667 516.035,-297.333 516.035,-297.333 516.035,-304.667 516.035,-304.667 516.035,-308.333 512.368,-312 508.702,-312"/>
<text text-anchor="middle" x="484" y="-297.4" font-family="Helvetica,sans-Serif" font-size="12.00" fill="white">Equatable</text>
</a>
</g>
</g>
<!-- Equatable&#45;&gt;Comparable -->
<g id="edge15" class="edge"><title>Equatable&#45;&gt;Comparable</title>
<path fill="none" stroke="#cccccc" d="M467.552,-289.988C453.64,-281.52 433.474,-269.245 417.475,-259.507"/>
<polygon fill="#cccccc" stroke="#cccccc" points="418.977,-256.324 408.616,-254.114 415.338,-262.303 418.977,-256.324"/>
</g>
<!-- Hashable -->
<g id="node8" class="node"><title>Hashable</title>
<g id="a_node8"><a xlink:href="/protocol/Hashable/" xlink:title="Hashable">
<path fill="#999999" stroke="#999999" d="M509.694,-196C509.694,-196 464.306,-196 464.306,-196 460.639,-196 456.973,-192.333 456.973,-188.667 456.973,-188.667 456.973,-181.333 456.973,-181.333 456.973,-177.667 460.639,-174 464.306,-174 464.306,-174 509.694,-174 509.694,-174 513.361,-174 517.027,-177.667 517.027,-181.333 517.027,-181.333 517.027,-188.667 517.027,-188.667 517.027,-192.333 513.361,-196 509.694,-196"/>
<text text-anchor="middle" x="487" y="-181.4" font-family="Helvetica,sans-Serif" font-size="12.00" fill="white">Hashable</text>
</a>
</g>
</g>
<!-- Equatable&#45;&gt;Hashable -->
<g id="edge16" class="edge"><title>Equatable&#45;&gt;Hashable</title>
<path fill="none" stroke="#cccccc" d="M484.266,-289.883C484.759,-271.17 485.82,-230.827 486.466,-206.287"/>
<polygon fill="#cccccc" stroke="#cccccc" points="489.966,-206.347 486.73,-196.258 482.968,-206.162 489.966,-206.347"/>
</g>
<!-- FloatLiteralConvertible -->
<g id="node6" class="node"><title>FloatLiteralConvertible</title>
<g id="a_node6"><a xlink:href="/protocol/FloatLiteralConvertible/" xlink:title="FloatLiteralConvertible">
<path fill="#999999" stroke="#999999" d="M617.711,-80C617.711,-80 502.289,-80 502.289,-80 498.623,-80 494.956,-76.3333 494.956,-72.6667 494.956,-72.6667 494.956,-65.3333 494.956,-65.3333 494.956,-61.6667 498.623,-58 502.289,-58 502.289,-58 617.711,-58 617.711,-58 621.377,-58 625.044,-61.6667 625.044,-65.3333 625.044,-65.3333 625.044,-72.6667 625.044,-72.6667 625.044,-76.3333 621.377,-80 617.711,-80"/>
<text text-anchor="middle" x="560" y="-65.4" font-family="Helvetica,sans-Serif" font-size="12.00" fill="white">FloatLiteralConvertible</text>
</a>
</g>
</g>
<!-- FloatLiteralConvertible&#45;&gt;Float -->
<g id="edge4" class="edge"><title>FloatLiteralConvertible&#45;&gt;Float</title>
<path fill="none" stroke="#cccccc" d="M529.25,-57.9883C499.954,-48.45 455.823,-34.082 424.7,-23.949"/>
<polygon fill="#cccccc" stroke="#cccccc" points="425.68,-20.5872 415.088,-20.8193 423.513,-27.2433 425.68,-20.5872"/>
</g>
<!-- FloatingPointType -->
<g id="node7" class="node"><title>FloatingPointType</title>
<g id="a_node7"><a xlink:href="/protocol/FloatingPointType/" xlink:title="FloatingPointType">
<path fill="#999999" stroke="#999999" d="M393.715,-80C393.715,-80 302.285,-80 302.285,-80 298.618,-80 294.952,-76.3333 294.952,-72.6667 294.952,-72.6667 294.952,-65.3333 294.952,-65.3333 294.952,-61.6667 298.618,-58 302.285,-58 302.285,-58 393.715,-58 393.715,-58 397.382,-58 401.048,-61.6667 401.048,-65.3333 401.048,-65.3333 401.048,-72.6667 401.048,-72.6667 401.048,-76.3333 397.382,-80 393.715,-80"/>
<text text-anchor="middle" x="348" y="-65.4" font-family="Helvetica,sans-Serif" font-size="12.00" fill="white">FloatingPointType</text>
</a>
</g>
</g>
<!-- FloatingPointType&#45;&gt;Float -->
<g id="edge2" class="edge"><title>FloatingPointType&#45;&gt;Float</title>
<path fill="none" stroke="#cccccc" d="M355.151,-57.9883C360.601,-50.3592 368.257,-39.6405 374.807,-30.4702"/>
<polygon fill="#cccccc" stroke="#cccccc" points="377.676,-32.4756 380.64,-22.3039 371.98,-28.4069 377.676,-32.4756"/>
</g>
<!-- Hashable&#45;&gt;Float -->
<g id="edge6" class="edge"><title>Hashable&#45;&gt;Float</title>
<path fill="none" stroke="#cccccc" d="M485.328,-173.682C481.268,-151.024 469.23,-95.9217 443,-58 435.034,-46.4826 423.447,-36.2044 412.961,-28.3006"/>
<polygon fill="#cccccc" stroke="#cccccc" points="414.682,-25.2274 404.515,-22.2447 410.603,-30.9162 414.682,-25.2274"/>
</g>
<!-- IntegerLiteralConvertible -->
<g id="node9" class="node"><title>IntegerLiteralConvertible</title>
<g id="a_node9"><a xlink:href="/protocol/IntegerLiteralConvertible/" xlink:title="IntegerLiteralConvertible">
<path fill="#999999" stroke="#999999" d="M216.722,-254C216.722,-254 91.2776,-254 91.2776,-254 87.6109,-254 83.9442,-250.333 83.9442,-246.667 83.9442,-246.667 83.9442,-239.333 83.9442,-239.333 83.9442,-235.667 87.6109,-232 91.2776,-232 91.2776,-232 216.722,-232 216.722,-232 220.389,-232 224.056,-235.667 224.056,-239.333 224.056,-239.333 224.056,-246.667 224.056,-246.667 224.056,-250.333 220.389,-254 216.722,-254"/>
<text text-anchor="middle" x="154" y="-239.4" font-family="Helvetica,sans-Serif" font-size="12.00" fill="white">IntegerLiteralConvertible</text>
</a>
</g>
</g>
<!-- IntegerLiteralConvertible&#45;&gt;Float -->
<g id="edge3" class="edge"><title>IntegerLiteralConvertible&#45;&gt;Float</title>
<path fill="none" stroke="#cccccc" d="M146.119,-231.716C139.825,-222.813 131.501,-209.308 128,-196 112.397,-136.685 88.5893,-104.995 128,-58 155.972,-24.6451 285.547,-15.4631 350.571,-12.9453"/>
<polygon fill="#cccccc" stroke="#cccccc" points="350.931,-16.4348 360.802,-12.5837 350.684,-9.43919 350.931,-16.4348"/>
</g>
<!-- IntegerLiteralConvertible&#45;&gt;_SignedNumberType -->
<g id="edge20" class="edge"><title>IntegerLiteralConvertible&#45;&gt;_SignedNumberType</title>
<path fill="none" stroke="#cccccc" d="M161.866,-231.988C167.922,-224.281 176.456,-213.419 183.71,-204.187"/>
<polygon fill="#cccccc" stroke="#cccccc" points="186.478,-206.329 189.904,-196.304 180.974,-202.005 186.478,-206.329"/>
</g>
<!-- Printable -->
<g id="node10" class="node"><title>Printable</title>
<g id="a_node10"><a xlink:href="/protocol/Printable/" xlink:title="Printable">
<path fill="#999999" stroke="#999999" d="M693.187,-80C693.187,-80 650.813,-80 650.813,-80 647.147,-80 643.48,-76.3333 643.48,-72.6667 643.48,-72.6667 643.48,-65.3333 643.48,-65.3333 643.48,-61.6667 647.147,-58 650.813,-58 650.813,-58 693.187,-58 693.187,-58 696.853,-58 700.52,-61.6667 700.52,-65.3333 700.52,-65.3333 700.52,-72.6667 700.52,-72.6667 700.52,-76.3333 696.853,-80 693.187,-80"/>
<text text-anchor="middle" x="672" y="-65.4" font-family="Helvetica,sans-Serif" font-size="12.00" fill="white">Printable</text>
</a>
</g>
</g>
<!-- Printable&#45;&gt;Float -->
<g id="edge1" class="edge"><title>Printable&#45;&gt;Float</title>
<path fill="none" stroke="#cccccc" d="M643.421,-60.2418C640.25,-59.4519 637.062,-58.6882 634,-58 560.345,-41.445 473.351,-26.1722 425.054,-18.0672"/>
<polygon fill="#cccccc" stroke="#cccccc" points="425.508,-14.5946 415.068,-16.4012 424.356,-21.4992 425.508,-14.5946"/>
</g>
<!-- Reflectable -->
<g id="node11" class="node"><title>Reflectable</title>
<g id="a_node11"><a xlink:href="/protocol/Reflectable/" xlink:title="Reflectable">
<path fill="#999999" stroke="#999999" d="M781.693,-80C781.693,-80 726.307,-80 726.307,-80 722.64,-80 718.974,-76.3333 718.974,-72.6667 718.974,-72.6667 718.974,-65.3333 718.974,-65.3333 718.974,-61.6667 722.64,-58 726.307,-58 726.307,-58 781.693,-58 781.693,-58 785.36,-58 789.026,-61.6667 789.026,-65.3333 789.026,-65.3333 789.026,-72.6667 789.026,-72.6667 789.026,-76.3333 785.36,-80 781.693,-80"/>
<text text-anchor="middle" x="754" y="-65.4" font-family="Helvetica,sans-Serif" font-size="12.00" fill="white">Reflectable</text>
</a>
</g>
</g>
<!-- Reflectable&#45;&gt;Float -->
<g id="edge9" class="edge"><title>Reflectable&#45;&gt;Float</title>
<path fill="none" stroke="#cccccc" d="M718.679,-59.8835C715.413,-59.2139 712.149,-58.5747 709,-58 606.857,-39.3603 485.286,-23.7033 425.292,-16.4054"/>
<polygon fill="#cccccc" stroke="#cccccc" points="425.516,-12.9072 415.169,-15.1825 424.677,-19.8567 425.516,-12.9072"/>
</g>
<!-- SignedNumberType -->
<g id="node12" class="node"><title>SignedNumberType</title>
<g id="a_node12"><a xlink:href="/protocol/SignedNumberType/" xlink:title="SignedNumberType">
<path fill="#999999" stroke="#999999" d="M247.716,-138C247.716,-138 146.284,-138 146.284,-138 142.617,-138 138.95,-134.333 138.95,-130.667 138.95,-130.667 138.95,-123.333 138.95,-123.333 138.95,-119.667 142.617,-116 146.284,-116 146.284,-116 247.716,-116 247.716,-116 251.383,-116 255.05,-119.667 255.05,-123.333 255.05,-123.333 255.05,-130.667 255.05,-130.667 255.05,-134.333 251.383,-138 247.716,-138"/>
<text text-anchor="middle" x="197" y="-123.4" font-family="Helvetica,sans-Serif" font-size="12.00" fill="white">SignedNumberType</text>
</a>
</g>
</g>
<!-- SignedNumberType&#45;&gt;AbsoluteValuable -->
<g id="edge17" class="edge"><title>SignedNumberType&#45;&gt;AbsoluteValuable</title>
<path fill="none" stroke="#cccccc" d="M195.391,-115.988C194.241,-108.831 192.653,-98.9547 191.245,-90.1885"/>
<polygon fill="#cccccc" stroke="#cccccc" points="194.699,-89.6218 189.656,-80.3039 187.787,-90.7326 194.699,-89.6218"/>
</g>
<!-- Strideable&#45;&gt;Float -->
<g id="edge8" class="edge"><title>Strideable&#45;&gt;Float</title>
<path fill="none" stroke="#cccccc" d="M320.398,-115.776C300.371,-102.787 272.129,-79.4716 286,-58 300.324,-35.8265 328.182,-24.2318 351.169,-18.2329"/>
<polygon fill="#cccccc" stroke="#cccccc" points="352.062,-21.6185 360.995,-15.9212 350.459,-14.8046 352.062,-21.6185"/>
</g>
<!-- Strideable&#45;&gt;FloatingPointType -->
<g id="edge11" class="edge"><title>Strideable&#45;&gt;FloatingPointType</title>
<path fill="none" stroke="#cccccc" d="M339.788,-115.988C341.066,-108.831 342.83,-98.9547 344.395,-90.1885"/>
<polygon fill="#cccccc" stroke="#cccccc" points="347.848,-90.7634 346.16,-80.3039 340.957,-89.5329 347.848,-90.7634"/>
</g>
<!-- _Comparable -->
<g id="node14" class="node"><title>_Comparable</title>
<g id="a_node14"><a xlink:href="/protocol/_Comparable/" xlink:title="_Comparable">
<path fill="#999999" stroke="#999999" d="M425.697,-312C425.697,-312 358.303,-312 358.303,-312 354.636,-312 350.969,-308.333 350.969,-304.667 350.969,-304.667 350.969,-297.333 350.969,-297.333 350.969,-293.667 354.636,-290 358.303,-290 358.303,-290 425.697,-290 425.697,-290 429.364,-290 433.031,-293.667 433.031,-297.333 433.031,-297.333 433.031,-304.667 433.031,-304.667 433.031,-308.333 429.364,-312 425.697,-312"/>
<text text-anchor="middle" x="392" y="-297.4" font-family="Helvetica,sans-Serif" font-size="12.00" fill="white">_Comparable</text>
</a>
</g>
</g>
<!-- _Comparable&#45;&gt;Comparable -->
<g id="edge14" class="edge"><title>_Comparable&#45;&gt;Comparable</title>
<path fill="none" stroke="#cccccc" d="M392,-289.988C392,-282.91 392,-273.171 392,-264.478"/>
<polygon fill="#cccccc" stroke="#cccccc" points="395.5,-264.304 392,-254.304 388.5,-264.304 395.5,-264.304"/>
</g>
<!-- _SignedNumberType&#45;&gt;SignedNumberType -->
<g id="edge18" class="edge"><title>_SignedNumberType&#45;&gt;SignedNumberType</title>
<path fill="none" stroke="#cccccc" d="M197.821,-173.988C197.695,-166.91 197.521,-157.171 197.366,-148.478"/>
<polygon fill="#cccccc" stroke="#cccccc" points="200.862,-148.24 197.184,-138.304 193.863,-148.365 200.862,-148.24"/>
</g>
<!-- _Strideable -->
<g id="node16" class="node"><title>_Strideable</title>
<g id="a_node16"><a xlink:href="/protocol/_Strideable/" xlink:title="_Strideable">
<path fill="#999999" stroke="#999999" d="M355.7,-196C355.7,-196 300.3,-196 300.3,-196 296.634,-196 292.967,-192.333 292.967,-188.667 292.967,-188.667 292.967,-181.333 292.967,-181.333 292.967,-177.667 296.634,-174 300.3,-174 300.3,-174 355.7,-174 355.7,-174 359.366,-174 363.033,-177.667 363.033,-181.333 363.033,-181.333 363.033,-188.667 363.033,-188.667 363.033,-192.333 359.366,-196 355.7,-196"/>
<text text-anchor="middle" x="328" y="-181.4" font-family="Helvetica,sans-Serif" font-size="12.00" fill="white">_Strideable</text>
</a>
</g>
</g>
<!-- _Strideable&#45;&gt;Strideable -->
<g id="edge13" class="edge"><title>_Strideable&#45;&gt;Strideable</title>
<path fill="none" stroke="#cccccc" d="M329.788,-173.988C331.066,-166.831 332.83,-156.955 334.395,-148.189"/>
<polygon fill="#cccccc" stroke="#cccccc" points="337.848,-148.763 336.16,-138.304 330.957,-147.533 337.848,-148.763"/>
</g>
</g>
</svg>
