<?xml version="1.0" encoding="UTF-8" standalone="no"?>
<!DOCTYPE svg PUBLIC "-//W3C//DTD SVG 1.1//EN"
 "http://www.w3.org/Graphics/SVG/1.1/DTD/svg11.dtd">
<!-- Generated by graphviz version 2.36.0 (20140111.2315)
 -->
<!-- Title: RandomAccessReverseView&lt;T : CollectionType where T.Index : RandomAccessIndexType&gt; &#45; Type Hierarchy &#45; SwiftDoc.org Pages: 1 -->
<svg width="514pt" height="369pt"
 viewBox="0.00 0.00 514.40 369.20" xmlns="http://www.w3.org/2000/svg" xmlns:xlink="http://www.w3.org/1999/xlink">
<g id="graph0" class="graph" transform="scale(1 1) rotate(0) translate(7.2 311.6)">
<title>RandomAccessReverseView&lt;T : CollectionType where T.Index : RandomAccessIndexType&gt; &#45; Type Hierarchy &#45; SwiftDoc.org</title>
<polygon fill="white" stroke="none" points="-7.2,57.6 -7.2,-311.6 507.2,-311.6 507.2,57.6 -7.2,57.6"/>
<!-- CollectionType -->
<g id="node1" class="node"><title>CollectionType</title>
<g id="a_node1"><a xlink:href="/protocol/CollectionType/" xlink:title="CollectionType">
<path fill="#999999" stroke="#999999" d="M286.704,-80C286.704,-80 213.296,-80 213.296,-80 209.63,-80 205.963,-76.3333 205.963,-72.6667 205.963,-72.6667 205.963,-65.3333 205.963,-65.3333 205.963,-61.6667 209.63,-58 213.296,-58 213.296,-58 286.704,-58 286.704,-58 290.37,-58 294.037,-61.6667 294.037,-65.3333 294.037,-65.3333 294.037,-72.6667 294.037,-72.6667 294.037,-76.3333 290.37,-80 286.704,-80"/>
<text text-anchor="middle" x="250" y="-65.4" font-family="Helvetica,sans-Serif" font-size="12.00" fill="white">CollectionType</text>
</a>
</g>
</g>
<!-- RandomAccessReverseView&lt;T : CollectionType where T.Index : RandomAccessIndexType&gt; -->
<g id="node2" class="node"><title>RandomAccessReverseView&lt;T : CollectionType where T.Index : RandomAccessIndexType&gt;</title>
<g id="a_node2"><a xlink:href="/type/RandomAccessReverseView/" xlink:title="RandomAccessReverseView&lt;T : CollectionType where T.Index : RandomAccessIndexType&gt;">
<polygon fill="#ee543d" stroke="#ee543d" points="500.21,-22 -0.210421,-22 -0.210421,-0 500.21,-0 500.21,-22"/>
<text text-anchor="middle" x="250" y="-7.4" font-family="Helvetica,sans-Serif" font-size="12.00" fill="white">RandomAccessReverseView&lt;T : CollectionType where T.Index : RandomAccessIndexType&gt;</text>
</a>
</g>
</g>
<!-- CollectionType&#45;&gt;RandomAccessReverseView&lt;T : CollectionType where T.Index : RandomAccessIndexType&gt; -->
<g id="edge1" class="edge"><title>CollectionType&#45;&gt;RandomAccessReverseView&lt;T : CollectionType where T.Index : RandomAccessIndexType&gt;</title>
<path fill="none" stroke="#cccccc" d="M250,-57.9883C250,-50.9098 250,-41.1714 250,-32.4779"/>
<polygon fill="#cccccc" stroke="#cccccc" points="253.5,-32.3038 250,-22.3039 246.5,-32.3039 253.5,-32.3038"/>
</g>
<!-- SequenceType -->
<g id="node3" class="node"><title>SequenceType</title>
<g id="a_node3"><a xlink:href="/protocol/SequenceType/" xlink:title="SequenceType">
<path fill="#999999" stroke="#999999" d="M343.718,-138C343.718,-138 268.282,-138 268.282,-138 264.615,-138 260.949,-134.333 260.949,-130.667 260.949,-130.667 260.949,-123.333 260.949,-123.333 260.949,-119.667 264.615,-116 268.282,-116 268.282,-116 343.718,-116 343.718,-116 347.385,-116 351.051,-119.667 351.051,-123.333 351.051,-123.333 351.051,-130.667 351.051,-130.667 351.051,-134.333 347.385,-138 343.718,-138"/>
<text text-anchor="middle" x="306" y="-123.4" font-family="Helvetica,sans-Serif" font-size="12.00" fill="white">SequenceType</text>
</a>
</g>
</g>
<!-- SequenceType&#45;&gt;CollectionType -->
<g id="edge3" class="edge"><title>SequenceType&#45;&gt;CollectionType</title>
<path fill="none" stroke="#cccccc" d="M295.988,-115.988C288.123,-108.123 276.974,-96.9745 267.624,-87.6239"/>
<polygon fill="#cccccc" stroke="#cccccc" points="269.85,-84.9001 260.304,-80.3039 264.9,-89.8499 269.85,-84.9001"/>
</g>
<!-- _CollectionType -->
<g id="node4" class="node"><title>_CollectionType</title>
<g id="a_node4"><a xlink:href="/protocol/_CollectionType/" xlink:title="_CollectionType">
<path fill="#999999" stroke="#999999" d="M235.208,-138C235.208,-138 154.792,-138 154.792,-138 151.126,-138 147.459,-134.333 147.459,-130.667 147.459,-130.667 147.459,-123.333 147.459,-123.333 147.459,-119.667 151.126,-116 154.792,-116 154.792,-116 235.208,-116 235.208,-116 238.874,-116 242.541,-119.667 242.541,-123.333 242.541,-123.333 242.541,-130.667 242.541,-130.667 242.541,-134.333 238.874,-138 235.208,-138"/>
<text text-anchor="middle" x="195" y="-123.4" font-family="Helvetica,sans-Serif" font-size="12.00" fill="white">_CollectionType</text>
</a>
</g>
</g>
<!-- _CollectionType&#45;&gt;CollectionType -->
<g id="edge2" class="edge"><title>_CollectionType&#45;&gt;CollectionType</title>
<path fill="none" stroke="#cccccc" d="M204.833,-115.988C212.557,-108.123 223.507,-96.9745 232.691,-87.6239"/>
<polygon fill="#cccccc" stroke="#cccccc" points="235.37,-89.8909 239.88,-80.3039 230.376,-84.9859 235.37,-89.8909"/>
</g>
<!-- _SequenceType -->
<g id="node5" class="node"><title>_SequenceType</title>
<g id="a_node5"><a xlink:href="/protocol/_SequenceType/" xlink:title="_SequenceType">
<path fill="#999999" stroke="#999999" d="M294.724,-254C294.724,-254 213.276,-254 213.276,-254 209.609,-254 205.943,-250.333 205.943,-246.667 205.943,-246.667 205.943,-239.333 205.943,-239.333 205.943,-235.667 209.609,-232 213.276,-232 213.276,-232 294.724,-232 294.724,-232 298.391,-232 302.057,-235.667 302.057,-239.333 302.057,-239.333 302.057,-246.667 302.057,-246.667 302.057,-250.333 298.391,-254 294.724,-254"/>
<text text-anchor="middle" x="254" y="-239.4" font-family="Helvetica,sans-Serif" font-size="12.00" fill="white">_SequenceType</text>
</a>
</g>
</g>
<!-- _SequenceType&#45;&gt;_CollectionType -->
<g id="edge4" class="edge"><title>_SequenceType&#45;&gt;_CollectionType</title>
<path fill="none" stroke="#cccccc" d="M248.764,-231.883C238.948,-212.917 217.633,-171.732 204.989,-147.3"/>
<polygon fill="#cccccc" stroke="#cccccc" points="208.014,-145.53 200.309,-138.258 201.797,-148.748 208.014,-145.53"/>
</g>
<!-- _Sequence_Type -->
<g id="node6" class="node"><title>_Sequence_Type</title>
<g id="a_node6"><a xlink:href="/protocol/_Sequence_Type/" xlink:title="_Sequence_Type">
<path fill="#999999" stroke="#999999" d="M342.228,-196C342.228,-196 253.772,-196 253.772,-196 250.105,-196 246.439,-192.333 246.439,-188.667 246.439,-188.667 246.439,-181.333 246.439,-181.333 246.439,-177.667 250.105,-174 253.772,-174 253.772,-174 342.228,-174 342.228,-174 345.895,-174 349.561,-177.667 349.561,-181.333 349.561,-181.333 349.561,-188.667 349.561,-188.667 349.561,-192.333 345.895,-196 342.228,-196"/>
<text text-anchor="middle" x="298" y="-181.4" font-family="Helvetica,sans-Serif" font-size="12.00" fill="white">_Sequence_Type</text>
</a>
</g>
</g>
<!-- _SequenceType&#45;&gt;_Sequence_Type -->
<g id="edge6" class="edge"><title>_SequenceType&#45;&gt;_Sequence_Type</title>
<path fill="none" stroke="#cccccc" d="M261.866,-231.988C267.922,-224.281 276.456,-213.419 283.71,-204.187"/>
<polygon fill="#cccccc" stroke="#cccccc" points="286.478,-206.329 289.904,-196.304 280.974,-202.005 286.478,-206.329"/>
</g>
<!-- _Sequence_Type&#45;&gt;SequenceType -->
<g id="edge5" class="edge"><title>_Sequence_Type&#45;&gt;SequenceType</title>
<path fill="none" stroke="#cccccc" d="M299.43,-173.988C300.441,-166.91 301.833,-157.171 303.075,-148.478"/>
<polygon fill="#cccccc" stroke="#cccccc" points="306.579,-148.698 304.528,-138.304 299.649,-147.708 306.579,-148.698"/>
</g>
</g>
</svg>
