<?xml version="1.0" encoding="UTF-8" standalone="no"?>
<!DOCTYPE svg PUBLIC "-//W3C//DTD SVG 1.1//EN"
 "http://www.w3.org/Graphics/SVG/1.1/DTD/svg11.dtd">
<!-- Generated by graphviz version 2.36.0 (20140111.2315)
 -->
<!-- Title: ExtensibleCollectionType &#45; Type Hierarchy &#45; SwiftDoc.org Pages: 1 -->
<svg width="576pt" height="485pt"
 viewBox="0.00 0.00 576.40 485.20" xmlns="http://www.w3.org/2000/svg" xmlns:xlink="http://www.w3.org/1999/xlink">
<g id="graph0" class="graph" transform="scale(1 1) rotate(0) translate(7.2 427.6)">
<title>ExtensibleCollectionType &#45; Type Hierarchy &#45; SwiftDoc.org</title>
<polygon fill="white" stroke="none" points="-7.2,57.6 -7.2,-427.6 569.2,-427.6 569.2,57.6 -7.2,57.6"/>
<!-- Array -->
<g id="node1" class="node"><title>Array</title>
<g id="a_node1"><a xlink:href="/type/Array/" xlink:title="Array">
<polygon fill="#999999" stroke="#999999" points="136,-22 82,-22 82,-0 136,-0 136,-22"/>
<text text-anchor="middle" x="109" y="-7.4" font-family="Helvetica,sans-Serif" font-size="12.00" fill="white">Array</text>
</a>
</g>
</g>
<!-- ArraySlice -->
<g id="node2" class="node"><title>ArraySlice</title>
<g id="a_node2"><a xlink:href="/type/ArraySlice/" xlink:title="ArraySlice">
<polygon fill="#999999" stroke="#999999" points="64.0114,-22 -0.0113922,-22 -0.0113922,-0 64.0114,-0 64.0114,-22"/>
<text text-anchor="middle" x="32" y="-7.4" font-family="Helvetica,sans-Serif" font-size="12.00" fill="white">ArraySlice</text>
</a>
</g>
</g>
<!-- CollectionType -->
<g id="node3" class="node"><title>CollectionType</title>
<g id="a_node3"><a xlink:href="/protocol/CollectionType/" xlink:title="CollectionType">
<path fill="#999999" stroke="#999999" d="M287.704,-254C287.704,-254 214.296,-254 214.296,-254 210.63,-254 206.963,-250.333 206.963,-246.667 206.963,-246.667 206.963,-239.333 206.963,-239.333 206.963,-235.667 210.63,-232 214.296,-232 214.296,-232 287.704,-232 287.704,-232 291.37,-232 295.037,-235.667 295.037,-239.333 295.037,-239.333 295.037,-246.667 295.037,-246.667 295.037,-250.333 291.37,-254 287.704,-254"/>
<text text-anchor="middle" x="251" y="-239.4" font-family="Helvetica,sans-Serif" font-size="12.00" fill="white">CollectionType</text>
</a>
</g>
</g>
<!-- ExtensibleCollectionType -->
<g id="node5" class="node"><title>ExtensibleCollectionType</title>
<g id="a_node5"><a xlink:href="/protocol/ExtensibleCollectionType/" xlink:title="ExtensibleCollectionType">
<path fill="#ee543d" stroke="#ee543d" d="M315.727,-196C315.727,-196 186.273,-196 186.273,-196 182.607,-196 178.94,-192.333 178.94,-188.667 178.94,-188.667 178.94,-181.333 178.94,-181.333 178.94,-177.667 182.607,-174 186.273,-174 186.273,-174 315.727,-174 315.727,-174 319.393,-174 323.06,-177.667 323.06,-181.333 323.06,-181.333 323.06,-188.667 323.06,-188.667 323.06,-192.333 319.393,-196 315.727,-196"/>
<text text-anchor="middle" x="251" y="-181.4" font-family="Helvetica,sans-Serif" font-size="12.00" fill="white">ExtensibleCollectionType</text>
</a>
</g>
</g>
<!-- CollectionType&#45;&gt;ExtensibleCollectionType -->
<g id="edge16" class="edge"><title>CollectionType&#45;&gt;ExtensibleCollectionType</title>
<path fill="none" stroke="#cccccc" d="M251,-231.988C251,-224.91 251,-215.171 251,-206.478"/>
<polygon fill="#cccccc" stroke="#cccccc" points="254.5,-206.304 251,-196.304 247.5,-206.304 254.5,-206.304"/>
</g>
<!-- ContiguousArray -->
<g id="node4" class="node"><title>ContiguousArray</title>
<g id="a_node4"><a xlink:href="/type/ContiguousArray/" xlink:title="ContiguousArray">
<polygon fill="#999999" stroke="#999999" points="253.534,-22 154.466,-22 154.466,-0 253.534,-0 253.534,-22"/>
<text text-anchor="middle" x="204" y="-7.4" font-family="Helvetica,sans-Serif" font-size="12.00" fill="white">ContiguousArray</text>
</a>
</g>
</g>
<!-- ExtensibleCollectionType&#45;&gt;Array -->
<g id="edge1" class="edge"><title>ExtensibleCollectionType&#45;&gt;Array</title>
<path fill="none" stroke="#cccccc" d="M185.173,-173.938C144.708,-166.257 98.3192,-154.223 86,-138 61.9267,-106.297 82.7682,-57.3198 97.4801,-30.7296"/>
<polygon fill="#cccccc" stroke="#cccccc" points="100.542,-32.4265 102.528,-22.0196 94.4856,-28.9163 100.542,-32.4265"/>
</g>
<!-- ExtensibleCollectionType&#45;&gt;ArraySlice -->
<g id="edge2" class="edge"><title>ExtensibleCollectionType&#45;&gt;ArraySlice</title>
<path fill="none" stroke="#cccccc" d="M178.624,-181.247C142.785,-176.274 101.255,-164.563 73,-138 43.244,-110.026 35.041,-60.2515 32.8079,-32.369"/>
<polygon fill="#cccccc" stroke="#cccccc" points="36.2902,-31.9719 32.184,-22.2052 29.3033,-32.4008 36.2902,-31.9719"/>
</g>
<!-- ExtensibleCollectionType&#45;&gt;ContiguousArray -->
<g id="edge3" class="edge"><title>ExtensibleCollectionType&#45;&gt;ContiguousArray</title>
<path fill="none" stroke="#cccccc" d="M265.172,-173.698C275.338,-165.367 288.222,-152.643 294,-138 297.589,-128.905 297.414,-125.162 294,-116 280.323,-79.2956 247.219,-46.927 225.201,-28.4089"/>
<polygon fill="#cccccc" stroke="#cccccc" points="227.328,-25.6265 217.369,-22.0097 222.898,-31.0472 227.328,-25.6265"/>
</g>
<!-- RangeReplaceableCollectionType -->
<g id="node6" class="node"><title>RangeReplaceableCollectionType</title>
<g id="a_node6"><a xlink:href="/protocol/RangeReplaceableCollectionType/" xlink:title="RangeReplaceableCollectionType">
<path fill="#999999" stroke="#999999" d="M277.76,-138C277.76,-138 102.24,-138 102.24,-138 98.5731,-138 94.9064,-134.333 94.9064,-130.667 94.9064,-130.667 94.9064,-123.333 94.9064,-123.333 94.9064,-119.667 98.5731,-116 102.24,-116 102.24,-116 277.76,-116 277.76,-116 281.427,-116 285.094,-119.667 285.094,-123.333 285.094,-123.333 285.094,-130.667 285.094,-130.667 285.094,-134.333 281.427,-138 277.76,-138"/>
<text text-anchor="middle" x="190" y="-123.4" font-family="Helvetica,sans-Serif" font-size="12.00" fill="white">RangeReplaceableCollectionType</text>
</a>
</g>
</g>
<!-- ExtensibleCollectionType&#45;&gt;RangeReplaceableCollectionType -->
<g id="edge4" class="edge"><title>ExtensibleCollectionType&#45;&gt;RangeReplaceableCollectionType</title>
<path fill="none" stroke="#cccccc" d="M240.094,-173.988C231.441,-166.045 219.14,-154.751 208.892,-145.344"/>
<polygon fill="#cccccc" stroke="#cccccc" points="210.957,-142.488 201.224,-138.304 206.223,-147.645 210.957,-142.488"/>
</g>
<!-- String.CharacterView -->
<g id="node8" class="node"><title>String.CharacterView</title>
<g id="a_node8"><a xlink:href="/type/String.CharacterView/" xlink:title="String.CharacterView">
<polygon fill="#999999" stroke="#999999" points="394.376,-22 271.624,-22 271.624,-0 394.376,-0 394.376,-22"/>
<text text-anchor="middle" x="333" y="-7.4" font-family="Helvetica,sans-Serif" font-size="12.00" fill="white">String.CharacterView</text>
</a>
</g>
</g>
<!-- ExtensibleCollectionType&#45;&gt;String.CharacterView -->
<g id="edge5" class="edge"><title>ExtensibleCollectionType&#45;&gt;String.CharacterView</title>
<path fill="none" stroke="#cccccc" d="M270.278,-173.975C283.578,-166.028 300.513,-153.665 310,-138 329.969,-105.029 333.44,-58.9369 333.6,-32.6109"/>
<polygon fill="#cccccc" stroke="#cccccc" points="337.097,-32.2928 333.496,-22.3287 330.098,-32.3635 337.097,-32.2928"/>
</g>
<!-- String.UnicodeScalarView -->
<g id="node9" class="node"><title>String.UnicodeScalarView</title>
<g id="a_node9"><a xlink:href="/type/String.UnicodeScalarView/" xlink:title="String.UnicodeScalarView">
<polygon fill="#999999" stroke="#999999" points="560.892,-22 413.108,-22 413.108,-0 560.892,-0 560.892,-22"/>
<text text-anchor="middle" x="487" y="-7.4" font-family="Helvetica,sans-Serif" font-size="12.00" fill="white">String.UnicodeScalarView</text>
</a>
</g>
</g>
<!-- ExtensibleCollectionType&#45;&gt;String.UnicodeScalarView -->
<g id="edge6" class="edge"><title>ExtensibleCollectionType&#45;&gt;String.UnicodeScalarView</title>
<path fill="none" stroke="#cccccc" d="M269.734,-173.927C285.824,-165.048 309.448,-151.463 329,-138 381.338,-101.961 438.706,-53.8466 467.788,-28.7834"/>
<polygon fill="#cccccc" stroke="#cccccc" points="470.274,-31.2612 475.542,-22.0689 465.691,-25.9696 470.274,-31.2612"/>
</g>
<!-- RangeReplaceableCollectionType&#45;&gt;Array -->
<g id="edge7" class="edge"><title>RangeReplaceableCollectionType&#45;&gt;Array</title>
<path fill="none" stroke="#cccccc" d="M170.19,-115.918C156.43,-107.944 138.709,-95.5709 128,-80 118.244,-65.8148 113.474,-46.7261 111.155,-32.3844"/>
<polygon fill="#cccccc" stroke="#cccccc" points="114.572,-31.5303 109.773,-22.0847 107.634,-32.4614 114.572,-31.5303"/>
</g>
<!-- RangeReplaceableCollectionType&#45;&gt;ArraySlice -->
<g id="edge8" class="edge"><title>RangeReplaceableCollectionType&#45;&gt;ArraySlice</title>
<path fill="none" stroke="#cccccc" d="M171.709,-115.946C156.009,-107.078 132.977,-93.4995 114,-80 91.2851,-63.8416 66.8923,-43.1379 50.6717,-28.8426"/>
<polygon fill="#cccccc" stroke="#cccccc" points="52.7853,-26.0384 42.9865,-22.0093 48.1339,-31.2696 52.7853,-26.0384"/>
</g>
<!-- RangeReplaceableCollectionType&#45;&gt;ContiguousArray -->
<g id="edge9" class="edge"><title>RangeReplaceableCollectionType&#45;&gt;ContiguousArray</title>
<path fill="none" stroke="#cccccc" d="M198.18,-115.766C204.713,-106.893 213.357,-93.404 217,-80 221.371,-63.9179 217.194,-45.3083 212.445,-31.6271"/>
<polygon fill="#cccccc" stroke="#cccccc" points="215.694,-30.3241 208.835,-22.249 209.162,-32.8388 215.694,-30.3241"/>
</g>
<!-- RangeReplaceableCollectionType&#45;&gt;String.CharacterView -->
<g id="edge11" class="edge"><title>RangeReplaceableCollectionType&#45;&gt;String.CharacterView</title>
<path fill="none" stroke="#cccccc" d="M202.69,-115.883C227.327,-96.243 281.852,-52.7755 311.977,-28.7597"/>
<polygon fill="#cccccc" stroke="#cccccc" points="314.495,-31.2284 320.133,-22.2579 310.131,-25.7548 314.495,-31.2284"/>
</g>
<!-- RangeReplaceableCollectionType&#45;&gt;String.UnicodeScalarView -->
<g id="edge12" class="edge"><title>RangeReplaceableCollectionType&#45;&gt;String.UnicodeScalarView</title>
<path fill="none" stroke="#cccccc" d="M216.096,-115.983C269.328,-95.5508 390.513,-49.0356 451.109,-25.7763"/>
<polygon fill="#cccccc" stroke="#cccccc" points="452.562,-28.9676 460.644,-22.1165 450.054,-22.4325 452.562,-28.9676"/>
</g>
<!-- _ArrayType -->
<g id="node10" class="node"><title>_ArrayType</title>
<g id="a_node10"><a xlink:href="/protocol/_ArrayType/" xlink:title="_ArrayType">
<path fill="#999999" stroke="#999999" d="M201.19,-80C201.19,-80 144.81,-80 144.81,-80 141.144,-80 137.477,-76.3333 137.477,-72.6667 137.477,-72.6667 137.477,-65.3333 137.477,-65.3333 137.477,-61.6667 141.144,-58 144.81,-58 144.81,-58 201.19,-58 201.19,-58 204.856,-58 208.523,-61.6667 208.523,-65.3333 208.523,-65.3333 208.523,-72.6667 208.523,-72.6667 208.523,-76.3333 204.856,-80 201.19,-80"/>
<text text-anchor="middle" x="173" y="-65.4" font-family="Helvetica,sans-Serif" font-size="12.00" fill="white">_ArrayType</text>
</a>
</g>
</g>
<!-- RangeReplaceableCollectionType&#45;&gt;_ArrayType -->
<g id="edge10" class="edge"><title>RangeReplaceableCollectionType&#45;&gt;_ArrayType</title>
<path fill="none" stroke="#cccccc" d="M186.961,-115.988C184.764,-108.752 181.724,-98.7373 179.041,-89.9"/>
<polygon fill="#cccccc" stroke="#cccccc" points="182.382,-88.856 176.128,-80.3039 175.684,-90.8894 182.382,-88.856"/>
</g>
<!-- SequenceType -->
<g id="node7" class="node"><title>SequenceType</title>
<g id="a_node7"><a xlink:href="/protocol/SequenceType/" xlink:title="SequenceType">
<path fill="#999999" stroke="#999999" d="M239.718,-370C239.718,-370 164.282,-370 164.282,-370 160.615,-370 156.949,-366.333 156.949,-362.667 156.949,-362.667 156.949,-355.333 156.949,-355.333 156.949,-351.667 160.615,-348 164.282,-348 164.282,-348 239.718,-348 239.718,-348 243.385,-348 247.051,-351.667 247.051,-355.333 247.051,-355.333 247.051,-362.667 247.051,-362.667 247.051,-366.333 243.385,-370 239.718,-370"/>
<text text-anchor="middle" x="202" y="-355.4" font-family="Helvetica,sans-Serif" font-size="12.00" fill="white">SequenceType</text>
</a>
</g>
</g>
<!-- SequenceType&#45;&gt;CollectionType -->
<g id="edge17" class="edge"><title>SequenceType&#45;&gt;CollectionType</title>
<path fill="none" stroke="#cccccc" d="M209.545,-347.868C215.977,-338.842 225.093,-325.078 231,-312 237.955,-296.603 243.203,-278.162 246.574,-264.371"/>
<polygon fill="#cccccc" stroke="#cccccc" points="250.024,-264.987 248.872,-254.455 243.204,-263.406 250.024,-264.987"/>
</g>
<!-- _CollectionDefaultsType -->
<g id="node11" class="node"><title>_CollectionDefaultsType</title>
<g id="a_node11"><a xlink:href="/protocol/_CollectionDefaultsType/" xlink:title="_CollectionDefaultsType">
<path fill="#999999" stroke="#999999" d="M215.224,-312C215.224,-312 90.7762,-312 90.7762,-312 87.1095,-312 83.4428,-308.333 83.4428,-304.667 83.4428,-304.667 83.4428,-297.333 83.4428,-297.333 83.4428,-293.667 87.1095,-290 90.7762,-290 90.7762,-290 215.224,-290 215.224,-290 218.891,-290 222.557,-293.667 222.557,-297.333 222.557,-297.333 222.557,-304.667 222.557,-304.667 222.557,-308.333 218.891,-312 215.224,-312"/>
<text text-anchor="middle" x="153" y="-297.4" font-family="Helvetica,sans-Serif" font-size="12.00" fill="white">_CollectionDefaultsType</text>
</a>
</g>
</g>
<!-- SequenceType&#45;&gt;_CollectionDefaultsType -->
<g id="edge20" class="edge"><title>SequenceType&#45;&gt;_CollectionDefaultsType</title>
<path fill="none" stroke="#cccccc" d="M193.24,-347.988C186.427,-340.202 176.797,-329.197 168.667,-319.905"/>
<polygon fill="#cccccc" stroke="#cccccc" points="171.235,-317.525 162.016,-312.304 165.967,-322.134 171.235,-317.525"/>
</g>
<!-- _ArrayType&#45;&gt;Array -->
<g id="edge13" class="edge"><title>_ArrayType&#45;&gt;Array</title>
<path fill="none" stroke="#cccccc" d="M161.558,-57.9883C152.39,-49.966 139.317,-38.5272 128.503,-29.065"/>
<polygon fill="#cccccc" stroke="#cccccc" points="130.606,-26.2549 120.776,-22.3039 125.997,-31.523 130.606,-26.2549"/>
</g>
<!-- _ArrayType&#45;&gt;ArraySlice -->
<g id="edge14" class="edge"><title>_ArrayType&#45;&gt;ArraySlice</title>
<path fill="none" stroke="#cccccc" d="M147.792,-57.9883C125.275,-49.0453 92.0676,-35.8566 66.9818,-25.8935"/>
<polygon fill="#cccccc" stroke="#cccccc" points="68.0509,-22.5522 57.4651,-22.1138 65.467,-29.0579 68.0509,-22.5522"/>
</g>
<!-- _ArrayType&#45;&gt;ContiguousArray -->
<g id="edge15" class="edge"><title>_ArrayType&#45;&gt;ContiguousArray</title>
<path fill="none" stroke="#cccccc" d="M178.542,-57.9883C182.635,-50.5952 188.334,-40.3005 193.302,-31.3253"/>
<polygon fill="#cccccc" stroke="#cccccc" points="196.515,-32.7479 198.296,-22.3039 190.391,-29.3577 196.515,-32.7479"/>
</g>
<!-- _CollectionDefaultsType&#45;&gt;CollectionType -->
<g id="edge18" class="edge"><title>_CollectionDefaultsType&#45;&gt;CollectionType</title>
<path fill="none" stroke="#cccccc" d="M170.52,-289.988C185.478,-281.441 207.223,-269.015 224.34,-259.234"/>
<polygon fill="#cccccc" stroke="#cccccc" points="226.355,-262.114 233.301,-254.114 222.882,-256.036 226.355,-262.114"/>
</g>
<!-- _CollectionGeneratorDefaultsType -->
<g id="node12" class="node"><title>_CollectionGeneratorDefaultsType</title>
<g id="a_node12"><a xlink:href="/protocol/_CollectionGeneratorDefaultsType/" xlink:title="_CollectionGeneratorDefaultsType">
<path fill="#999999" stroke="#999999" d="M465.246,-312C465.246,-312 286.754,-312 286.754,-312 283.087,-312 279.421,-308.333 279.421,-304.667 279.421,-304.667 279.421,-297.333 279.421,-297.333 279.421,-293.667 283.087,-290 286.754,-290 286.754,-290 465.246,-290 465.246,-290 468.913,-290 472.579,-293.667 472.579,-297.333 472.579,-297.333 472.579,-304.667 472.579,-304.667 472.579,-308.333 468.913,-312 465.246,-312"/>
<text text-anchor="middle" x="376" y="-297.4" font-family="Helvetica,sans-Serif" font-size="12.00" fill="white">_CollectionGeneratorDefaultsType</text>
</a>
</g>
</g>
<!-- _CollectionGeneratorDefaultsType&#45;&gt;CollectionType -->
<g id="edge19" class="edge"><title>_CollectionGeneratorDefaultsType&#45;&gt;CollectionType</title>
<path fill="none" stroke="#cccccc" d="M353.653,-289.988C333.955,-281.164 305.031,-268.206 282.902,-258.292"/>
<polygon fill="#cccccc" stroke="#cccccc" points="284.132,-255.008 273.575,-254.114 281.271,-261.396 284.132,-255.008"/>
</g>
</g>
</svg>
