<?xml version="1.0" encoding="UTF-8" standalone="no"?>
<!DOCTYPE svg PUBLIC "-//W3C//DTD SVG 1.1//EN"
 "http://www.w3.org/Graphics/SVG/1.1/DTD/svg11.dtd">
<!-- Generated by graphviz version 2.36.0 (20140111.2315)
 -->
<!-- Title: _IntegerType &#45; Type Hierarchy &#45; SwiftDoc.org Pages: 1 -->
<svg width="716pt" height="485pt"
 viewBox="0.00 0.00 716.40 485.20" xmlns="http://www.w3.org/2000/svg" xmlns:xlink="http://www.w3.org/1999/xlink">
<g id="graph0" class="graph" transform="scale(1 1) rotate(0) translate(7.2 427.6)">
<g transform="translate(0 -427.6)">
<g>
    <path fill="#666666" d="M13.846,10.832c-0.336-0.464-0.792-0.844-1.368-1.14s-1.224-0.444-1.944-0.444
        c-0.384,0-0.772,0.052-1.164,0.156C8.977,9.509,8.622,9.677,8.301,9.908c-0.32,0.232-0.58,0.52-0.78,0.864
        c-0.2,0.344-0.3,0.756-0.3,1.236c0,0.464,0.092,0.852,0.276,1.164c0.184,0.312,0.432,0.576,0.744,0.792s0.68,0.4,1.104,0.552
        c0.423,0.152,0.876,0.309,1.356,0.468c0.576,0.177,1.16,0.376,1.752,0.601c0.592,0.224,1.128,0.52,1.608,0.888
        s0.872,0.828,1.176,1.38s0.456,1.252,0.456,2.101c0,0.88-0.164,1.644-0.492,2.292c-0.328,0.647-0.765,1.184-1.308,1.607
        c-0.544,0.424-1.172,0.74-1.884,0.948s-1.444,0.312-2.196,0.312c-1.072,0-2.108-0.208-3.108-0.624
        c-1-0.415-1.828-1.031-2.484-1.848l1.848-1.56c0.4,0.592,0.936,1.071,1.608,1.439c0.672,0.368,1.399,0.552,2.184,0.552
        c0.4,0,0.8-0.056,1.2-0.168c0.4-0.111,0.764-0.288,1.092-0.527c0.328-0.24,0.596-0.54,0.804-0.9
        c0.208-0.36,0.312-0.796,0.312-1.308s-0.108-0.94-0.324-1.284c-0.216-0.344-0.508-0.636-0.876-0.876s-0.796-0.444-1.284-0.612
        c-0.488-0.168-1.004-0.34-1.548-0.516c-0.544-0.16-1.08-0.356-1.608-0.588c-0.528-0.232-1-0.528-1.416-0.889
        c-0.416-0.359-0.752-0.804-1.008-1.332c-0.256-0.527-0.384-1.184-0.384-1.968c0-0.848,0.172-1.576,0.516-2.184
        c0.344-0.608,0.792-1.112,1.344-1.512c0.552-0.4,1.176-0.692,1.872-0.876c0.696-0.184,1.396-0.276,2.1-0.276
        c0.992,0,1.92,0.176,2.784,0.528c0.864,0.352,1.56,0.824,2.088,1.416L13.846,10.832z"/>
    <path fill="#666666" d="M18.813,13.304l2.568,8.688h0.048l2.712-8.688h2.376l2.76,8.688h0.048l2.568-8.688h2.376L30.501,24.68
        h-2.352l-2.808-8.544h-0.048l-2.784,8.544h-2.352l-3.792-11.376H18.813z"/>
    <path fill="#666666" d="M38.685,9.2c0,0.416-0.147,0.76-0.44,1.032c-0.294,0.272-0.647,0.408-1.06,0.408s-0.762-0.14-1.047-0.42
        c-0.286-0.28-0.429-0.62-0.429-1.02c0-0.416,0.143-0.764,0.429-1.044c0.286-0.28,0.635-0.42,1.047-0.42s0.766,0.14,1.06,0.42
        C38.538,8.437,38.685,8.784,38.685,9.2z M38.325,24.68h-2.256V13.304h2.256V24.68z"/>
    <path fill="#666666" d="M47.613,15.152h-2.64v9.528h-2.256v-9.528h-2.256v-1.848h2.256v-2.376c0-0.672,0.076-1.292,0.228-1.86
        c0.152-0.568,0.4-1.06,0.744-1.476c0.344-0.416,0.784-0.744,1.32-0.984c0.536-0.24,1.188-0.36,1.956-0.36
        c0.544,0,1.016,0.056,1.416,0.168l-0.264,1.944c-0.176-0.048-0.352-0.088-0.528-0.12c-0.176-0.032-0.376-0.048-0.6-0.048
        c-0.432,0-0.78,0.076-1.044,0.228c-0.264,0.152-0.468,0.356-0.612,0.612s-0.24,0.548-0.288,0.876
        c-0.048,0.328-0.072,0.668-0.072,1.02v2.376h2.64V15.152z"/>
    <path fill="#666666" d="M54.909,15.152h-3.024v5.91c0,0.687,0.128,1.177,0.384,1.472c0.256,0.295,0.664,0.442,1.224,0.442
        c0.208,0,0.432-0.021,0.672-0.065c0.24-0.044,0.456-0.11,0.648-0.198l0.072,1.848c-0.272,0.096-0.572,0.172-0.9,0.229
        c-0.328,0.056-0.668,0.084-1.02,0.084c-1.072,0-1.892-0.296-2.46-0.889c-0.568-0.592-0.852-1.479-0.852-2.664v-6.168h-2.184
        v-1.848h2.184V10.04h2.232v3.264h3.024V15.152z"/>
    <path fill="#666666" d="M57.356,7.688h5.832c1.088,0,2.176,0.16,3.264,0.48c1.088,0.32,2.072,0.824,2.952,1.512
        s1.592,1.568,2.136,2.64c0.544,1.072,0.816,2.36,0.816,3.864c0,1.456-0.272,2.716-0.816,3.78s-1.256,1.943-2.136,2.64
        s-1.864,1.216-2.952,1.561c-1.088,0.344-2.176,0.516-3.264,0.516h-5.832V7.688z M59.732,22.593h2.976
        c1.024,0,1.972-0.145,2.844-0.432c0.872-0.288,1.624-0.704,2.256-1.248c0.632-0.544,1.124-1.216,1.476-2.017
        c0.352-0.8,0.528-1.704,0.528-2.712c0-1.056-0.176-1.983-0.528-2.784c-0.353-0.8-0.844-1.468-1.476-2.004
        c-0.632-0.536-1.384-0.944-2.256-1.224s-1.82-0.42-2.844-0.42h-2.976V22.593z"/>
    <path fill="#666666" d="M86.06,18.969c0,0.88-0.156,1.688-0.468,2.424c-0.312,0.736-0.744,1.372-1.296,1.908
        c-0.552,0.536-1.204,0.952-1.956,1.248c-0.752,0.296-1.56,0.443-2.424,0.443c-0.864,0-1.672-0.147-2.424-0.443
        c-0.752-0.296-1.4-0.712-1.944-1.248c-0.544-0.536-0.972-1.172-1.284-1.908c-0.312-0.735-0.468-1.544-0.468-2.424
        s0.156-1.684,0.468-2.412c0.312-0.728,0.74-1.356,1.284-1.884c0.543-0.528,1.191-0.939,1.944-1.236
        c0.752-0.296,1.56-0.444,2.424-0.444c0.864,0,1.672,0.148,2.424,0.444c0.752,0.297,1.404,0.708,1.956,1.236
        c0.552,0.527,0.984,1.156,1.296,1.884C85.904,17.285,86.06,18.089,86.06,18.969z M83.708,18.98c0-0.542-0.084-1.061-0.252-1.556
        c-0.169-0.494-0.414-0.929-0.734-1.304s-0.718-0.674-1.192-0.897s-1.015-0.335-1.625-0.335c-0.61,0-1.152,0.111-1.625,0.335
        c-0.474,0.224-0.871,0.522-1.191,0.897c-0.321,0.375-0.566,0.81-0.734,1.304C76.184,17.92,76.1,18.438,76.1,18.98
        c0,0.543,0.084,1.062,0.253,1.556c0.168,0.495,0.413,0.934,0.734,1.316c0.321,0.383,0.718,0.686,1.191,0.909
        c0.473,0.224,1.015,0.335,1.625,0.335c0.61,0,1.151-0.111,1.625-0.335s0.871-0.526,1.192-0.909s0.565-0.821,0.734-1.316
        C83.624,20.042,83.708,19.523,83.708,18.98z"/>
    <path fill="#666666" d="M96.428,16.184c-0.24-0.368-0.6-0.676-1.08-0.924s-0.992-0.372-1.536-0.372
        c-0.592,0-1.116,0.112-1.572,0.336c-0.456,0.225-0.844,0.524-1.164,0.9c-0.32,0.376-0.564,0.812-0.732,1.308
        s-0.252,1.017-0.252,1.56c0,0.545,0.084,1.064,0.252,1.561s0.412,0.933,0.732,1.308c0.32,0.376,0.712,0.677,1.176,0.9
        c0.464,0.225,0.992,0.336,1.584,0.336c0.576,0,1.1-0.111,1.572-0.336c0.472-0.224,0.86-0.528,1.164-0.912l1.512,1.368
        c-0.48,0.561-1.08,0.996-1.8,1.308c-0.72,0.312-1.536,0.468-2.448,0.468c-0.88,0-1.692-0.144-2.436-0.432
        c-0.744-0.288-1.388-0.691-1.932-1.212c-0.544-0.52-0.972-1.147-1.284-1.884s-0.468-1.561-0.468-2.473
        c0-0.896,0.152-1.711,0.456-2.447c0.304-0.736,0.728-1.368,1.272-1.896c0.543-0.527,1.188-0.936,1.932-1.224
        c0.744-0.288,1.548-0.433,2.412-0.433c0.8,0,1.596,0.16,2.388,0.48s1.419,0.784,1.884,1.392L96.428,16.184z"/>
    <path fill="#666666" d="M103.1,23.24c0,0.417-0.152,0.784-0.456,1.104c-0.304,0.32-0.688,0.479-1.152,0.479
        c-0.448,0-0.828-0.155-1.14-0.468c-0.312-0.312-0.468-0.676-0.468-1.092c0-0.432,0.152-0.804,0.456-1.116
        c0.304-0.312,0.688-0.468,1.152-0.468c0.464,0,0.848,0.152,1.152,0.456C102.947,22.44,103.1,22.808,103.1,23.24z"/>
    <path fill="#666666" d="M116.635,18.969c0,0.88-0.156,1.688-0.468,2.424c-0.312,0.736-0.744,1.372-1.296,1.908
        c-0.552,0.536-1.204,0.952-1.956,1.248c-0.752,0.296-1.56,0.443-2.424,0.443c-0.864,0-1.672-0.147-2.424-0.443
        c-0.752-0.296-1.4-0.712-1.944-1.248c-0.544-0.536-0.972-1.172-1.284-1.908c-0.312-0.735-0.468-1.544-0.468-2.424
        s0.156-1.684,0.468-2.412c0.312-0.728,0.74-1.356,1.284-1.884c0.543-0.528,1.191-0.939,1.944-1.236
        c0.752-0.296,1.56-0.444,2.424-0.444c0.864,0,1.672,0.148,2.424,0.444c0.752,0.297,1.404,0.708,1.956,1.236
        c0.552,0.527,0.984,1.156,1.296,1.884C116.479,17.285,116.635,18.089,116.635,18.969z M114.283,18.98
        c0-0.542-0.084-1.061-0.252-1.556c-0.169-0.494-0.414-0.929-0.734-1.304s-0.718-0.674-1.192-0.897s-1.015-0.335-1.625-0.335
        c-0.61,0-1.152,0.111-1.625,0.335c-0.474,0.224-0.871,0.522-1.191,0.897c-0.321,0.375-0.566,0.81-0.734,1.304
        c-0.169,0.495-0.253,1.014-0.253,1.556c0,0.543,0.084,1.062,0.253,1.556c0.168,0.495,0.413,0.934,0.734,1.316
        c0.321,0.383,0.718,0.686,1.191,0.909c0.473,0.224,1.015,0.335,1.625,0.335c0.61,0,1.151-0.111,1.625-0.335
        s0.871-0.526,1.192-0.909s0.565-0.821,0.734-1.316C114.199,20.042,114.283,19.523,114.283,18.98z"/>
    <path fill="#666666" d="M119.251,14.577c-0.016-0.48-0.04-0.904-0.072-1.272h2.136c0.032,0.288,0.056,0.62,0.072,0.996
        c0.016,0.376,0.024,0.684,0.024,0.924h0.072c0.32-0.672,0.788-1.212,1.404-1.62c0.616-0.408,1.308-0.612,2.076-0.612
        c0.352,0,0.648,0.033,0.888,0.097l-0.096,2.088c-0.32-0.08-0.664-0.12-1.032-0.12c-0.544,0-1.016,0.101-1.416,0.3
        c-0.4,0.2-0.732,0.468-0.996,0.805c-0.264,0.336-0.46,0.724-0.588,1.163c-0.128,0.44-0.192,0.9-0.192,1.381v5.976h-2.256v-8.928
        C119.275,15.449,119.267,15.056,119.251,14.577z"/>
    <path fill="#666666" d="M128.419,26.625c0.496,0.56,1.116,1.008,1.86,1.344c0.744,0.336,1.508,0.504,2.292,0.504
        c0.752,0,1.384-0.108,1.896-0.324s0.924-0.512,1.236-0.888s0.536-0.82,0.672-1.332c0.136-0.513,0.204-1.064,0.204-1.656v-1.464
        h-0.048c-0.416,0.641-0.984,1.128-1.704,1.464c-0.72,0.336-1.488,0.504-2.304,0.504c-0.864,0-1.652-0.151-2.364-0.456
        c-0.712-0.304-1.316-0.72-1.812-1.248c-0.496-0.527-0.88-1.147-1.152-1.859s-0.408-1.477-0.408-2.292
        c0-0.816,0.136-1.584,0.408-2.305c0.272-0.72,0.656-1.348,1.152-1.884c0.496-0.535,1.096-0.96,1.8-1.271
        c0.704-0.312,1.488-0.469,2.352-0.469c0.816,0,1.596,0.177,2.34,0.528c0.744,0.353,1.332,0.888,1.764,1.608h0.048v-1.824h2.184
        v10.8c0,0.832-0.104,1.628-0.312,2.388c-0.208,0.76-0.56,1.433-1.056,2.017s-1.144,1.052-1.944,1.404
        c-0.8,0.352-1.792,0.527-2.976,0.527c-0.992,0-1.988-0.18-2.988-0.54c-1-0.359-1.86-0.868-2.58-1.523L128.419,26.625z
         M129.091,18.873c0,0.527,0.084,1.031,0.253,1.512c0.168,0.479,0.417,0.904,0.746,1.271c0.329,0.369,0.726,0.664,1.192,0.889
        c0.465,0.224,0.995,0.336,1.589,0.336c0.577,0,1.107-0.104,1.589-0.312c0.481-0.207,0.891-0.491,1.228-0.852
        s0.598-0.784,0.782-1.272c0.185-0.487,0.277-1.012,0.277-1.571c0-0.544-0.093-1.057-0.277-1.536
        c-0.185-0.48-0.449-0.904-0.794-1.272c-0.345-0.367-0.755-0.66-1.228-0.876c-0.474-0.216-1-0.324-1.577-0.324
        c-0.594,0-1.124,0.108-1.589,0.324c-0.466,0.216-0.863,0.504-1.192,0.864s-0.578,0.784-0.746,1.271
        C129.175,17.812,129.091,18.329,129.091,18.873z"/>
</g>
<g><a xlink:href="/" pointer-events="all" target="_top"><polygon fill="none" points="0,0 145,0 145,35 0,35 0,0"/></a></g>

</g>


<!-- BitwiseOperationsType -->
<g id="node1" class="node">
<g id="a_node1"><a xlink:href="/v1.2/protocol/BitwiseOperationsType/hierarchy/" target="_top">
<path fill="#999999" stroke="#999999" d="M135.715,-254C135.715,-254 18.2848,-254 18.2848,-254 14.6182,-254 10.9515,-250.333 10.9515,-246.667 10.9515,-246.667 10.9515,-239.333 10.9515,-239.333 10.9515,-235.667 14.6182,-232 18.2848,-232 18.2848,-232 135.715,-232 135.715,-232 139.382,-232 143.048,-235.667 143.048,-239.333 143.048,-239.333 143.048,-246.667 143.048,-246.667 143.048,-250.333 139.382,-254 135.715,-254"/>
<text text-anchor="middle" x="77" y="-239.4" font-family="Helvetica,sans-Serif" font-size="12.00" fill="white">BitwiseOperationsType</text>
</a>
</g>
</g>
<!-- _IntegerType -->
<g id="node24" class="node">
<g id="a_node24"><a xlink:href="/v1.2/protocol/_IntegerType/" target="_top">
<path fill="#ee543d" stroke="#ee543d" d="M379.708,-196C379.708,-196 314.292,-196 314.292,-196 310.626,-196 306.959,-192.333 306.959,-188.667 306.959,-188.667 306.959,-181.333 306.959,-181.333 306.959,-177.667 310.626,-174 314.292,-174 314.292,-174 379.708,-174 379.708,-174 383.374,-174 387.041,-177.667 387.041,-181.333 387.041,-181.333 387.041,-188.667 387.041,-188.667 387.041,-192.333 383.374,-196 379.708,-196"/>
<text text-anchor="middle" x="347" y="-181.4" font-family="Helvetica,sans-Serif" font-size="12.00" fill="white">_IntegerType</text>
</a>
</g>
</g>
<!-- BitwiseOperationsType&#45;&gt;_IntegerType -->
<g id="edge22" class="edge">
<path fill="none" stroke="#cccccc" d="M125.271,-231.988C173.56,-221.973 247.523,-206.632 296.563,-196.461"/>
<polygon fill="#cccccc" stroke="#cccccc" points="297.55,-199.831 306.631,-194.373 296.128,-192.977 297.55,-199.831"/>
</g>
<!-- Comparable -->
<g id="node2" class="node">
<g id="a_node2"><a xlink:href="/v1.2/protocol/Comparable/hierarchy/" target="_top">
<path fill="#999999" stroke="#999999" d="M127.191,-312C127.191,-312 66.8087,-312 66.8087,-312 63.1421,-312 59.4754,-308.333 59.4754,-304.667 59.4754,-304.667 59.4754,-297.333 59.4754,-297.333 59.4754,-293.667 63.1421,-290 66.8087,-290 66.8087,-290 127.191,-290 127.191,-290 130.858,-290 134.525,-293.667 134.525,-297.333 134.525,-297.333 134.525,-304.667 134.525,-304.667 134.525,-308.333 130.858,-312 127.191,-312"/>
<text text-anchor="middle" x="97" y="-297.4" font-family="Helvetica,sans-Serif" font-size="12.00" fill="white">Comparable</text>
</a>
</g>
</g>
<!-- IntegerArithmeticType -->
<g id="node10" class="node">
<g id="a_node10"><a xlink:href="/v1.2/protocol/IntegerArithmeticType/hierarchy/" target="_top">
<path fill="#999999" stroke="#999999" d="M280.711,-254C280.711,-254 169.289,-254 169.289,-254 165.623,-254 161.956,-250.333 161.956,-246.667 161.956,-246.667 161.956,-239.333 161.956,-239.333 161.956,-235.667 165.623,-232 169.289,-232 169.289,-232 280.711,-232 280.711,-232 284.377,-232 288.044,-235.667 288.044,-239.333 288.044,-239.333 288.044,-246.667 288.044,-246.667 288.044,-250.333 284.377,-254 280.711,-254"/>
<text text-anchor="middle" x="225" y="-239.4" font-family="Helvetica,sans-Serif" font-size="12.00" fill="white">IntegerArithmeticType</text>
</a>
</g>
</g>
<!-- Comparable&#45;&gt;IntegerArithmeticType -->
<g id="edge26" class="edge">
<path fill="none" stroke="#cccccc" d="M119.884,-289.988C140.144,-281.124 169.938,-268.09 192.637,-258.159"/>
<polygon fill="#cccccc" stroke="#cccccc" points="194.124,-261.329 201.883,-254.114 191.318,-254.916 194.124,-261.329"/>
</g>
<!-- Equatable -->
<g id="node3" class="node">
<g id="a_node3"><a xlink:href="/v1.2/protocol/Equatable/hierarchy/" target="_top">
<path fill="#999999" stroke="#999999" d="M358.702,-370C358.702,-370 309.298,-370 309.298,-370 305.632,-370 301.965,-366.333 301.965,-362.667 301.965,-362.667 301.965,-355.333 301.965,-355.333 301.965,-351.667 305.632,-348 309.298,-348 309.298,-348 358.702,-348 358.702,-348 362.368,-348 366.035,-351.667 366.035,-355.333 366.035,-355.333 366.035,-362.667 366.035,-362.667 366.035,-366.333 362.368,-370 358.702,-370"/>
<text text-anchor="middle" x="334" y="-355.4" font-family="Helvetica,sans-Serif" font-size="12.00" fill="white">Equatable</text>
</a>
</g>
</g>
<!-- Equatable&#45;&gt;Comparable -->
<g id="edge28" class="edge">
<path fill="none" stroke="#cccccc" d="M301.543,-350.331C260.914,-340.731 191.006,-324.212 144.393,-313.198"/>
<polygon fill="#cccccc" stroke="#cccccc" points="145.066,-309.761 134.529,-310.868 143.456,-316.573 145.066,-309.761"/>
</g>
<!-- Hashable -->
<g id="node4" class="node">
<g id="a_node4"><a xlink:href="/v1.2/protocol/Hashable/hierarchy/" target="_top">
<path fill="#999999" stroke="#999999" d="M356.694,-312C356.694,-312 311.306,-312 311.306,-312 307.639,-312 303.973,-308.333 303.973,-304.667 303.973,-304.667 303.973,-297.333 303.973,-297.333 303.973,-293.667 307.639,-290 311.306,-290 311.306,-290 356.694,-290 356.694,-290 360.361,-290 364.027,-293.667 364.027,-297.333 364.027,-297.333 364.027,-304.667 364.027,-304.667 364.027,-308.333 360.361,-312 356.694,-312"/>
<text text-anchor="middle" x="334" y="-297.4" font-family="Helvetica,sans-Serif" font-size="12.00" fill="white">Hashable</text>
</a>
</g>
</g>
<!-- Equatable&#45;&gt;Hashable -->
<g id="edge24" class="edge">
<path fill="none" stroke="#cccccc" d="M334,-347.988C334,-340.91 334,-331.171 334,-322.478"/>
<polygon fill="#cccccc" stroke="#cccccc" points="337.5,-322.304 334,-312.304 330.5,-322.304 337.5,-322.304"/>
</g>
<!-- _Incrementable -->
<g id="node22" class="node">
<g id="a_node22"><a xlink:href="/v1.2/protocol/_Incrementable/hierarchy/" target="_top">
<path fill="#999999" stroke="#999999" d="M467.705,-312C467.705,-312 390.295,-312 390.295,-312 386.628,-312 382.961,-308.333 382.961,-304.667 382.961,-304.667 382.961,-297.333 382.961,-297.333 382.961,-293.667 386.628,-290 390.295,-290 390.295,-290 467.705,-290 467.705,-290 471.372,-290 475.039,-293.667 475.039,-297.333 475.039,-297.333 475.039,-304.667 475.039,-304.667 475.039,-308.333 471.372,-312 467.705,-312"/>
<text text-anchor="middle" x="429" y="-297.4" font-family="Helvetica,sans-Serif" font-size="12.00" fill="white">_Incrementable</text>
</a>
</g>
</g>
<!-- Equatable&#45;&gt;_Incrementable -->
<g id="edge29" class="edge">
<path fill="none" stroke="#cccccc" d="M350.984,-347.988C365.484,-339.441 386.563,-327.015 403.156,-317.234"/>
<polygon fill="#cccccc" stroke="#cccccc" points="405.005,-320.207 411.843,-312.114 401.451,-314.177 405.005,-320.207"/>
</g>
<!-- Hashable&#45;&gt;_IntegerType -->
<g id="edge20" class="edge">
<path fill="none" stroke="#cccccc" d="M335.154,-289.883C337.288,-271.17 341.888,-230.827 344.687,-206.287"/>
<polygon fill="#cccccc" stroke="#cccccc" points="348.175,-206.59 345.83,-196.258 341.22,-205.797 348.175,-206.59"/>
</g>
<!-- Int -->
<g id="node5" class="node">
<g id="a_node5"><a xlink:href="/v1.2/type/Int/hierarchy/" target="_top">
<polygon fill="#999999" stroke="#999999" points="54,-22 0,-22 0,-0 54,-0 54,-22"/>
<text text-anchor="middle" x="27" y="-7.4" font-family="Helvetica,sans-Serif" font-size="12.00" fill="white">Int</text>
</a>
</g>
</g>
<!-- Int16 -->
<g id="node6" class="node">
<g id="a_node6"><a xlink:href="/v1.2/type/Int16/hierarchy/" target="_top">
<polygon fill="#999999" stroke="#999999" points="126,-22 72,-22 72,-0 126,-0 126,-22"/>
<text text-anchor="middle" x="99" y="-7.4" font-family="Helvetica,sans-Serif" font-size="12.00" fill="white">Int16</text>
</a>
</g>
</g>
<!-- Int32 -->
<g id="node7" class="node">
<g id="a_node7"><a xlink:href="/v1.2/type/Int32/hierarchy/" target="_top">
<polygon fill="#999999" stroke="#999999" points="198,-22 144,-22 144,-0 198,-0 198,-22"/>
<text text-anchor="middle" x="171" y="-7.4" font-family="Helvetica,sans-Serif" font-size="12.00" fill="white">Int32</text>
</a>
</g>
</g>
<!-- Int64 -->
<g id="node8" class="node">
<g id="a_node8"><a xlink:href="/v1.2/type/Int64/hierarchy/" target="_top">
<polygon fill="#999999" stroke="#999999" points="270,-22 216,-22 216,-0 270,-0 270,-22"/>
<text text-anchor="middle" x="243" y="-7.4" font-family="Helvetica,sans-Serif" font-size="12.00" fill="white">Int64</text>
</a>
</g>
</g>
<!-- Int8 -->
<g id="node9" class="node">
<g id="a_node9"><a xlink:href="/v1.2/type/Int8/hierarchy/" target="_top">
<polygon fill="#999999" stroke="#999999" points="342,-22 288,-22 288,-0 342,-0 342,-22"/>
<text text-anchor="middle" x="315" y="-7.4" font-family="Helvetica,sans-Serif" font-size="12.00" fill="white">Int8</text>
</a>
</g>
</g>
<!-- IntegerArithmeticType&#45;&gt;_IntegerType -->
<g id="edge21" class="edge">
<path fill="none" stroke="#cccccc" d="M246.811,-231.988C266.036,-223.164 294.265,-210.206 315.864,-200.292"/>
<polygon fill="#cccccc" stroke="#cccccc" points="317.338,-203.466 324.966,-196.114 314.418,-197.105 317.338,-203.466"/>
</g>
<!-- IntegerLiteralConvertible -->
<g id="node11" class="node">
<g id="a_node11"><a xlink:href="/v1.2/protocol/IntegerLiteralConvertible/hierarchy/" target="_top">
<path fill="#999999" stroke="#999999" d="M526.722,-254C526.722,-254 401.278,-254 401.278,-254 397.611,-254 393.944,-250.333 393.944,-246.667 393.944,-246.667 393.944,-239.333 393.944,-239.333 393.944,-235.667 397.611,-232 401.278,-232 401.278,-232 526.722,-232 526.722,-232 530.389,-232 534.056,-235.667 534.056,-239.333 534.056,-239.333 534.056,-246.667 534.056,-246.667 534.056,-250.333 530.389,-254 526.722,-254"/>
<text text-anchor="middle" x="464" y="-239.4" font-family="Helvetica,sans-Serif" font-size="12.00" fill="white">IntegerLiteralConvertible</text>
</a>
</g>
</g>
<!-- IntegerLiteralConvertible&#45;&gt;_IntegerType -->
<g id="edge18" class="edge">
<path fill="none" stroke="#cccccc" d="M443.083,-231.988C424.812,-223.243 398.058,-210.438 377.419,-200.559"/>
<polygon fill="#cccccc" stroke="#cccccc" points="378.662,-197.274 368.131,-196.114 375.64,-203.588 378.662,-197.274"/>
</g>
<!-- IntegerType -->
<g id="node12" class="node">
<g id="a_node12"><a xlink:href="/v1.2/protocol/IntegerType/hierarchy/" target="_top">
<path fill="#999999" stroke="#999999" d="M376.202,-138C376.202,-138 317.798,-138 317.798,-138 314.132,-138 310.465,-134.333 310.465,-130.667 310.465,-130.667 310.465,-123.333 310.465,-123.333 310.465,-119.667 314.132,-116 317.798,-116 317.798,-116 376.202,-116 376.202,-116 379.868,-116 383.535,-119.667 383.535,-123.333 383.535,-123.333 383.535,-130.667 383.535,-130.667 383.535,-134.333 379.868,-138 376.202,-138"/>
<text text-anchor="middle" x="347" y="-123.4" font-family="Helvetica,sans-Serif" font-size="12.00" fill="white">IntegerType</text>
</a>
</g>
</g>
<!-- SignedIntegerType -->
<g id="node14" class="node">
<g id="a_node14"><a xlink:href="/v1.2/protocol/SignedIntegerType/hierarchy/" target="_top">
<path fill="#999999" stroke="#999999" d="M281.727,-80C281.727,-80 186.273,-80 186.273,-80 182.606,-80 178.94,-76.3333 178.94,-72.6667 178.94,-72.6667 178.94,-65.3333 178.94,-65.3333 178.94,-61.6667 182.606,-58 186.273,-58 186.273,-58 281.727,-58 281.727,-58 285.394,-58 289.06,-61.6667 289.06,-65.3333 289.06,-65.3333 289.06,-72.6667 289.06,-72.6667 289.06,-76.3333 285.394,-80 281.727,-80"/>
<text text-anchor="middle" x="234" y="-65.4" font-family="Helvetica,sans-Serif" font-size="12.00" fill="white">SignedIntegerType</text>
</a>
</g>
</g>
<!-- IntegerType&#45;&gt;SignedIntegerType -->
<g id="edge4" class="edge">
<path fill="none" stroke="#cccccc" d="M326.798,-115.988C309.151,-107.243 283.313,-94.4381 263.379,-84.5594"/>
<polygon fill="#cccccc" stroke="#cccccc" points="264.922,-81.4182 254.408,-80.1138 261.814,-87.6903 264.922,-81.4182"/>
</g>
<!-- UnsignedIntegerType -->
<g id="node20" class="node">
<g id="a_node20"><a xlink:href="/v1.2/protocol/UnsignedIntegerType/hierarchy/" target="_top">
<path fill="#999999" stroke="#999999" d="M521.728,-80C521.728,-80 412.272,-80 412.272,-80 408.605,-80 404.938,-76.3333 404.938,-72.6667 404.938,-72.6667 404.938,-65.3333 404.938,-65.3333 404.938,-61.6667 408.605,-58 412.272,-58 412.272,-58 521.728,-58 521.728,-58 525.395,-58 529.062,-61.6667 529.062,-65.3333 529.062,-65.3333 529.062,-72.6667 529.062,-72.6667 529.062,-76.3333 525.395,-80 521.728,-80"/>
<text text-anchor="middle" x="467" y="-65.4" font-family="Helvetica,sans-Serif" font-size="12.00" fill="white">UnsignedIntegerType</text>
</a>
</g>
</g>
<!-- IntegerType&#45;&gt;UnsignedIntegerType -->
<g id="edge5" class="edge">
<path fill="none" stroke="#cccccc" d="M368.454,-115.988C387.278,-107.204 414.881,-94.3222 436.088,-84.4255"/>
<polygon fill="#cccccc" stroke="#cccccc" points="437.746,-87.5144 445.328,-80.1138 434.786,-81.1711 437.746,-87.5144"/>
</g>
<!-- Printable -->
<g id="node13" class="node">
<g id="a_node13"><a xlink:href="/v1.2/protocol/Printable/hierarchy/" target="_top">
<path fill="#999999" stroke="#999999" d="M602.187,-254C602.187,-254 559.813,-254 559.813,-254 556.147,-254 552.48,-250.333 552.48,-246.667 552.48,-246.667 552.48,-239.333 552.48,-239.333 552.48,-235.667 556.147,-232 559.813,-232 559.813,-232 602.187,-232 602.187,-232 605.853,-232 609.52,-235.667 609.52,-239.333 609.52,-239.333 609.52,-246.667 609.52,-246.667 609.52,-250.333 605.853,-254 602.187,-254"/>
<text text-anchor="middle" x="581" y="-239.4" font-family="Helvetica,sans-Serif" font-size="12.00" fill="white">Printable</text>
</a>
</g>
</g>
<!-- Printable&#45;&gt;_IntegerType -->
<g id="edge19" class="edge">
<path fill="none" stroke="#cccccc" d="M552.387,-234.383C549.223,-233.566 546.045,-232.758 543,-232 493.545,-219.692 436.843,-206.482 397.193,-197.39"/>
<polygon fill="#cccccc" stroke="#cccccc" points="397.77,-193.932 387.241,-195.113 396.209,-200.755 397.77,-193.932"/>
</g>
<!-- SignedIntegerType&#45;&gt;Int -->
<g id="edge6" class="edge">
<path fill="none" stroke="#cccccc" d="M196.279,-57.9476C163.713,-49.2478 115.143,-36.2225 64.0308,-22.2677"/>
<polygon fill="#cccccc" stroke="#cccccc" points="64.6892,-18.8194 54.1203,-19.5589 62.8436,-25.5717 64.6892,-18.8194"/>
</g>
<!-- SignedIntegerType&#45;&gt;Int16 -->
<g id="edge7" class="edge">
<path fill="none" stroke="#cccccc" d="M209.865,-57.9883C188.401,-49.0849 156.793,-35.9733 132.812,-26.0259"/>
<polygon fill="#cccccc" stroke="#cccccc" points="133.959,-22.7126 123.382,-22.1138 131.277,-29.1783 133.959,-22.7126"/>
</g>
<!-- SignedIntegerType&#45;&gt;Int32 -->
<g id="edge8" class="edge">
<path fill="none" stroke="#cccccc" d="M222.737,-57.9883C213.712,-49.966 200.843,-38.5272 190.198,-29.065"/>
<polygon fill="#cccccc" stroke="#cccccc" points="192.391,-26.3316 182.592,-22.3039 187.741,-31.5635 192.391,-26.3316"/>
</g>
<!-- SignedIntegerType&#45;&gt;Int64 -->
<g id="edge9" class="edge">
<path fill="none" stroke="#cccccc" d="M235.609,-57.9883C236.759,-50.8311 238.347,-40.9547 239.755,-32.1885"/>
<polygon fill="#cccccc" stroke="#cccccc" points="243.213,-32.7326 241.344,-22.3039 236.301,-31.6218 243.213,-32.7326"/>
</g>
<!-- SignedIntegerType&#45;&gt;Int8 -->
<g id="edge10" class="edge">
<path fill="none" stroke="#cccccc" d="M248.481,-57.9883C260.501,-49.6784 277.823,-37.7028 291.777,-28.0554"/>
<polygon fill="#cccccc" stroke="#cccccc" points="294.136,-30.6796 300.371,-22.1138 290.155,-24.9217 294.136,-30.6796"/>
</g>
<!-- UInt -->
<g id="node15" class="node">
<g id="a_node15"><a xlink:href="/v1.2/type/UInt/hierarchy/" target="_top">
<polygon fill="#999999" stroke="#999999" points="414,-22 360,-22 360,-0 414,-0 414,-22"/>
<text text-anchor="middle" x="387" y="-7.4" font-family="Helvetica,sans-Serif" font-size="12.00" fill="white">UInt</text>
</a>
</g>
</g>
<!-- UInt16 -->
<g id="node16" class="node">
<g id="a_node16"><a xlink:href="/v1.2/type/UInt16/hierarchy/" target="_top">
<polygon fill="#999999" stroke="#999999" points="486,-22 432,-22 432,-0 486,-0 486,-22"/>
<text text-anchor="middle" x="459" y="-7.4" font-family="Helvetica,sans-Serif" font-size="12.00" fill="white">UInt16</text>
</a>
</g>
</g>
<!-- UInt32 -->
<g id="node17" class="node">
<g id="a_node17"><a xlink:href="/v1.2/type/UInt32/hierarchy/" target="_top">
<polygon fill="#999999" stroke="#999999" points="558,-22 504,-22 504,-0 558,-0 558,-22"/>
<text text-anchor="middle" x="531" y="-7.4" font-family="Helvetica,sans-Serif" font-size="12.00" fill="white">UInt32</text>
</a>
</g>
</g>
<!-- UInt64 -->
<g id="node18" class="node">
<g id="a_node18"><a xlink:href="/v1.2/type/UInt64/hierarchy/" target="_top">
<polygon fill="#999999" stroke="#999999" points="630,-22 576,-22 576,-0 630,-0 630,-22"/>
<text text-anchor="middle" x="603" y="-7.4" font-family="Helvetica,sans-Serif" font-size="12.00" fill="white">UInt64</text>
</a>
</g>
</g>
<!-- UInt8 -->
<g id="node19" class="node">
<g id="a_node19"><a xlink:href="/v1.2/type/UInt8/hierarchy/" target="_top">
<polygon fill="#999999" stroke="#999999" points="702,-22 648,-22 648,-0 702,-0 702,-22"/>
<text text-anchor="middle" x="675" y="-7.4" font-family="Helvetica,sans-Serif" font-size="12.00" fill="white">UInt8</text>
</a>
</g>
</g>
<!-- UnsignedIntegerType&#45;&gt;UInt -->
<g id="edge11" class="edge">
<path fill="none" stroke="#cccccc" d="M452.698,-57.9883C440.826,-49.6784 423.718,-37.7028 409.936,-28.0554"/>
<polygon fill="#cccccc" stroke="#cccccc" points="411.648,-24.9812 401.448,-22.1138 407.634,-30.7158 411.648,-24.9812"/>
</g>
<!-- UnsignedIntegerType&#45;&gt;UInt16 -->
<g id="edge12" class="edge">
<path fill="none" stroke="#cccccc" d="M465.57,-57.9883C464.559,-50.9098 463.167,-41.1714 461.925,-32.4779"/>
<polygon fill="#cccccc" stroke="#cccccc" points="465.351,-31.7084 460.472,-22.3039 458.421,-32.6984 465.351,-31.7084"/>
</g>
<!-- UnsignedIntegerType&#45;&gt;UInt32 -->
<g id="edge13" class="edge">
<path fill="none" stroke="#cccccc" d="M478.442,-57.9883C487.61,-49.966 500.683,-38.5272 511.497,-29.065"/>
<polygon fill="#cccccc" stroke="#cccccc" points="514.003,-31.523 519.224,-22.3039 509.394,-26.2549 514.003,-31.523"/>
</g>
<!-- UnsignedIntegerType&#45;&gt;UInt64 -->
<g id="edge14" class="edge">
<path fill="none" stroke="#cccccc" d="M491.314,-57.9883C512.937,-49.0849 544.779,-35.9733 568.937,-26.0259"/>
<polygon fill="#cccccc" stroke="#cccccc" points="570.524,-29.1577 578.438,-22.1138 567.858,-22.685 570.524,-29.1577"/>
</g>
<!-- UnsignedIntegerType&#45;&gt;UInt8 -->
<g id="edge15" class="edge">
<path fill="none" stroke="#cccccc" d="M504.945,-57.964C537.704,-49.2746 586.56,-36.2563 637.923,-22.2771"/>
<polygon fill="#cccccc" stroke="#cccccc" points="639.153,-25.5695 647.881,-19.5632 637.312,-18.8158 639.153,-25.5695"/>
</g>
<!-- _Comparable -->
<g id="node21" class="node">
<g id="a_node21"><a xlink:href="/v1.2/protocol/_Comparable/hierarchy/" target="_top">
<path fill="#999999" stroke="#999999" d="M130.697,-370C130.697,-370 63.3026,-370 63.3026,-370 59.6359,-370 55.9692,-366.333 55.9692,-362.667 55.9692,-362.667 55.9692,-355.333 55.9692,-355.333 55.9692,-351.667 59.6359,-348 63.3026,-348 63.3026,-348 130.697,-348 130.697,-348 134.364,-348 138.031,-351.667 138.031,-355.333 138.031,-355.333 138.031,-362.667 138.031,-362.667 138.031,-366.333 134.364,-370 130.697,-370"/>
<text text-anchor="middle" x="97" y="-355.4" font-family="Helvetica,sans-Serif" font-size="12.00" fill="white">_Comparable</text>
</a>
</g>
</g>
<!-- _Comparable&#45;&gt;Comparable -->
<g id="edge27" class="edge">
<path fill="none" stroke="#cccccc" d="M97,-347.988C97,-340.91 97,-331.171 97,-322.478"/>
<polygon fill="#cccccc" stroke="#cccccc" points="100.5,-322.304 97,-312.304 93.5001,-322.304 100.5,-322.304"/>
</g>
<!-- _Incrementable&#45;&gt;_IntegerType -->
<g id="edge23" class="edge">
<path fill="none" stroke="#cccccc" d="M417.683,-289.729C408.265,-280.833 394.852,-267.332 385,-254 373.617,-238.596 363.199,-219.424 356.162,-205.367"/>
<polygon fill="#cccccc" stroke="#cccccc" points="359.201,-203.615 351.669,-196.163 352.91,-206.685 359.201,-203.615"/>
</g>
<!-- _IntegerArithmeticType -->
<g id="node23" class="node">
<g id="a_node23"><a xlink:href="/v1.2/protocol/_IntegerArithmeticType/hierarchy/" target="_top">
<path fill="#999999" stroke="#999999" d="M278.215,-312C278.215,-312 159.785,-312 159.785,-312 156.118,-312 152.452,-308.333 152.452,-304.667 152.452,-304.667 152.452,-297.333 152.452,-297.333 152.452,-293.667 156.118,-290 159.785,-290 159.785,-290 278.215,-290 278.215,-290 281.882,-290 285.548,-293.667 285.548,-297.333 285.548,-297.333 285.548,-304.667 285.548,-304.667 285.548,-308.333 281.882,-312 278.215,-312"/>
<text text-anchor="middle" x="219" y="-297.4" font-family="Helvetica,sans-Serif" font-size="12.00" fill="white">_IntegerArithmeticType</text>
</a>
</g>
</g>
<!-- _IntegerArithmeticType&#45;&gt;IntegerArithmeticType -->
<g id="edge25" class="edge">
<path fill="none" stroke="#cccccc" d="M220.073,-289.988C220.831,-282.91 221.874,-273.171 222.806,-264.478"/>
<polygon fill="#cccccc" stroke="#cccccc" points="226.311,-264.62 223.896,-254.304 219.351,-263.874 226.311,-264.62"/>
</g>
<!-- _IntegerType&#45;&gt;IntegerType -->
<g id="edge1" class="edge">
<path fill="none" stroke="#cccccc" d="M347,-173.988C347,-166.91 347,-157.171 347,-148.478"/>
<polygon fill="#cccccc" stroke="#cccccc" points="350.5,-148.304 347,-138.304 343.5,-148.304 350.5,-148.304"/>
</g>
<!-- _SignedIntegerType -->
<g id="node25" class="node">
<g id="a_node25"><a xlink:href="/v1.2/protocol/_SignedIntegerType/hierarchy/" target="_top">
<path fill="#999999" stroke="#999999" d="M285.231,-138C285.231,-138 182.769,-138 182.769,-138 179.102,-138 175.436,-134.333 175.436,-130.667 175.436,-130.667 175.436,-123.333 175.436,-123.333 175.436,-119.667 179.102,-116 182.769,-116 182.769,-116 285.231,-116 285.231,-116 288.898,-116 292.564,-119.667 292.564,-123.333 292.564,-123.333 292.564,-130.667 292.564,-130.667 292.564,-134.333 288.898,-138 285.231,-138"/>
<text text-anchor="middle" x="234" y="-123.4" font-family="Helvetica,sans-Serif" font-size="12.00" fill="white">_SignedIntegerType</text>
</a>
</g>
</g>
<!-- _IntegerType&#45;&gt;_SignedIntegerType -->
<g id="edge2" class="edge">
<path fill="none" stroke="#cccccc" d="M326.798,-173.988C309.151,-165.243 283.313,-152.438 263.379,-142.559"/>
<polygon fill="#cccccc" stroke="#cccccc" points="264.922,-139.418 254.408,-138.114 261.814,-145.69 264.922,-139.418"/>
</g>
<!-- _UnsignedIntegerType -->
<g id="node26" class="node">
<g id="a_node26"><a xlink:href="/v1.2/protocol/_UnsignedIntegerType/hierarchy/" target="_top">
<path fill="#999999" stroke="#999999" d="M524.734,-138C524.734,-138 409.266,-138 409.266,-138 405.599,-138 401.933,-134.333 401.933,-130.667 401.933,-130.667 401.933,-123.333 401.933,-123.333 401.933,-119.667 405.599,-116 409.266,-116 409.266,-116 524.734,-116 524.734,-116 528.401,-116 532.067,-119.667 532.067,-123.333 532.067,-123.333 532.067,-130.667 532.067,-130.667 532.067,-134.333 528.401,-138 524.734,-138"/>
<text text-anchor="middle" x="467" y="-123.4" font-family="Helvetica,sans-Serif" font-size="12.00" fill="white">_UnsignedIntegerType</text>
</a>
</g>
</g>
<!-- _IntegerType&#45;&gt;_UnsignedIntegerType -->
<g id="edge3" class="edge">
<path fill="none" stroke="#cccccc" d="M368.454,-173.988C387.278,-165.204 414.881,-152.322 436.088,-142.425"/>
<polygon fill="#cccccc" stroke="#cccccc" points="437.746,-145.514 445.328,-138.114 434.786,-139.171 437.746,-145.514"/>
</g>
<!-- _SignedIntegerType&#45;&gt;SignedIntegerType -->
<g id="edge16" class="edge">
<path fill="none" stroke="#cccccc" d="M234,-115.988C234,-108.91 234,-99.1714 234,-90.4779"/>
<polygon fill="#cccccc" stroke="#cccccc" points="237.5,-90.3038 234,-80.3039 230.5,-90.3039 237.5,-90.3038"/>
</g>
<!-- _UnsignedIntegerType&#45;&gt;UnsignedIntegerType -->
<g id="edge17" class="edge">
<path fill="none" stroke="#cccccc" d="M467,-115.988C467,-108.91 467,-99.1714 467,-90.4779"/>
<polygon fill="#cccccc" stroke="#cccccc" points="470.5,-90.3038 467,-80.3039 463.5,-90.3039 470.5,-90.3038"/>
</g>
</g>
</svg>
