<?xml version="1.0" encoding="UTF-8" standalone="no"?>
<!DOCTYPE svg PUBLIC "-//W3C//DTD SVG 1.1//EN"
 "http://www.w3.org/Graphics/SVG/1.1/DTD/svg11.dtd">
<!-- Generated by graphviz version 2.36.0 (20140111.2315)
 -->
<!-- Title: Double &#45; Type Hierarchy &#45; SwiftDoc.org Pages: 1 -->
<svg width="1280pt" height="369pt"
 viewBox="0.00 0.00 1280.29 369.20" xmlns="http://www.w3.org/2000/svg" xmlns:xlink="http://www.w3.org/1999/xlink">
<g id="graph0" class="graph" transform="scale(1 1) rotate(0) translate(7.2 311.6)">
<g transform="translate(0 -311.6)">
<g>
    <path fill="#666666" d="M13.846,10.832c-0.336-0.464-0.792-0.844-1.368-1.14s-1.224-0.444-1.944-0.444
        c-0.384,0-0.772,0.052-1.164,0.156C8.977,9.509,8.622,9.677,8.301,9.908c-0.32,0.232-0.58,0.52-0.78,0.864
        c-0.2,0.344-0.3,0.756-0.3,1.236c0,0.464,0.092,0.852,0.276,1.164c0.184,0.312,0.432,0.576,0.744,0.792s0.68,0.4,1.104,0.552
        c0.423,0.152,0.876,0.309,1.356,0.468c0.576,0.177,1.16,0.376,1.752,0.601c0.592,0.224,1.128,0.52,1.608,0.888
        s0.872,0.828,1.176,1.38s0.456,1.252,0.456,2.101c0,0.88-0.164,1.644-0.492,2.292c-0.328,0.647-0.765,1.184-1.308,1.607
        c-0.544,0.424-1.172,0.74-1.884,0.948s-1.444,0.312-2.196,0.312c-1.072,0-2.108-0.208-3.108-0.624
        c-1-0.415-1.828-1.031-2.484-1.848l1.848-1.56c0.4,0.592,0.936,1.071,1.608,1.439c0.672,0.368,1.399,0.552,2.184,0.552
        c0.4,0,0.8-0.056,1.2-0.168c0.4-0.111,0.764-0.288,1.092-0.527c0.328-0.24,0.596-0.54,0.804-0.9
        c0.208-0.36,0.312-0.796,0.312-1.308s-0.108-0.94-0.324-1.284c-0.216-0.344-0.508-0.636-0.876-0.876s-0.796-0.444-1.284-0.612
        c-0.488-0.168-1.004-0.34-1.548-0.516c-0.544-0.16-1.08-0.356-1.608-0.588c-0.528-0.232-1-0.528-1.416-0.889
        c-0.416-0.359-0.752-0.804-1.008-1.332c-0.256-0.527-0.384-1.184-0.384-1.968c0-0.848,0.172-1.576,0.516-2.184
        c0.344-0.608,0.792-1.112,1.344-1.512c0.552-0.4,1.176-0.692,1.872-0.876c0.696-0.184,1.396-0.276,2.1-0.276
        c0.992,0,1.92,0.176,2.784,0.528c0.864,0.352,1.56,0.824,2.088,1.416L13.846,10.832z"/>
    <path fill="#666666" d="M18.813,13.304l2.568,8.688h0.048l2.712-8.688h2.376l2.76,8.688h0.048l2.568-8.688h2.376L30.501,24.68
        h-2.352l-2.808-8.544h-0.048l-2.784,8.544h-2.352l-3.792-11.376H18.813z"/>
    <path fill="#666666" d="M38.685,9.2c0,0.416-0.147,0.76-0.44,1.032c-0.294,0.272-0.647,0.408-1.06,0.408s-0.762-0.14-1.047-0.42
        c-0.286-0.28-0.429-0.62-0.429-1.02c0-0.416,0.143-0.764,0.429-1.044c0.286-0.28,0.635-0.42,1.047-0.42s0.766,0.14,1.06,0.42
        C38.538,8.437,38.685,8.784,38.685,9.2z M38.325,24.68h-2.256V13.304h2.256V24.68z"/>
    <path fill="#666666" d="M47.613,15.152h-2.64v9.528h-2.256v-9.528h-2.256v-1.848h2.256v-2.376c0-0.672,0.076-1.292,0.228-1.86
        c0.152-0.568,0.4-1.06,0.744-1.476c0.344-0.416,0.784-0.744,1.32-0.984c0.536-0.24,1.188-0.36,1.956-0.36
        c0.544,0,1.016,0.056,1.416,0.168l-0.264,1.944c-0.176-0.048-0.352-0.088-0.528-0.12c-0.176-0.032-0.376-0.048-0.6-0.048
        c-0.432,0-0.78,0.076-1.044,0.228c-0.264,0.152-0.468,0.356-0.612,0.612s-0.24,0.548-0.288,0.876
        c-0.048,0.328-0.072,0.668-0.072,1.02v2.376h2.64V15.152z"/>
    <path fill="#666666" d="M54.909,15.152h-3.024v5.91c0,0.687,0.128,1.177,0.384,1.472c0.256,0.295,0.664,0.442,1.224,0.442
        c0.208,0,0.432-0.021,0.672-0.065c0.24-0.044,0.456-0.11,0.648-0.198l0.072,1.848c-0.272,0.096-0.572,0.172-0.9,0.229
        c-0.328,0.056-0.668,0.084-1.02,0.084c-1.072,0-1.892-0.296-2.46-0.889c-0.568-0.592-0.852-1.479-0.852-2.664v-6.168h-2.184
        v-1.848h2.184V10.04h2.232v3.264h3.024V15.152z"/>
    <path fill="#666666" d="M57.356,7.688h5.832c1.088,0,2.176,0.16,3.264,0.48c1.088,0.32,2.072,0.824,2.952,1.512
        s1.592,1.568,2.136,2.64c0.544,1.072,0.816,2.36,0.816,3.864c0,1.456-0.272,2.716-0.816,3.78s-1.256,1.943-2.136,2.64
        s-1.864,1.216-2.952,1.561c-1.088,0.344-2.176,0.516-3.264,0.516h-5.832V7.688z M59.732,22.593h2.976
        c1.024,0,1.972-0.145,2.844-0.432c0.872-0.288,1.624-0.704,2.256-1.248c0.632-0.544,1.124-1.216,1.476-2.017
        c0.352-0.8,0.528-1.704,0.528-2.712c0-1.056-0.176-1.983-0.528-2.784c-0.353-0.8-0.844-1.468-1.476-2.004
        c-0.632-0.536-1.384-0.944-2.256-1.224s-1.82-0.42-2.844-0.42h-2.976V22.593z"/>
    <path fill="#666666" d="M86.06,18.969c0,0.88-0.156,1.688-0.468,2.424c-0.312,0.736-0.744,1.372-1.296,1.908
        c-0.552,0.536-1.204,0.952-1.956,1.248c-0.752,0.296-1.56,0.443-2.424,0.443c-0.864,0-1.672-0.147-2.424-0.443
        c-0.752-0.296-1.4-0.712-1.944-1.248c-0.544-0.536-0.972-1.172-1.284-1.908c-0.312-0.735-0.468-1.544-0.468-2.424
        s0.156-1.684,0.468-2.412c0.312-0.728,0.74-1.356,1.284-1.884c0.543-0.528,1.191-0.939,1.944-1.236
        c0.752-0.296,1.56-0.444,2.424-0.444c0.864,0,1.672,0.148,2.424,0.444c0.752,0.297,1.404,0.708,1.956,1.236
        c0.552,0.527,0.984,1.156,1.296,1.884C85.904,17.285,86.06,18.089,86.06,18.969z M83.708,18.98c0-0.542-0.084-1.061-0.252-1.556
        c-0.169-0.494-0.414-0.929-0.734-1.304s-0.718-0.674-1.192-0.897s-1.015-0.335-1.625-0.335c-0.61,0-1.152,0.111-1.625,0.335
        c-0.474,0.224-0.871,0.522-1.191,0.897c-0.321,0.375-0.566,0.81-0.734,1.304C76.184,17.92,76.1,18.438,76.1,18.98
        c0,0.543,0.084,1.062,0.253,1.556c0.168,0.495,0.413,0.934,0.734,1.316c0.321,0.383,0.718,0.686,1.191,0.909
        c0.473,0.224,1.015,0.335,1.625,0.335c0.61,0,1.151-0.111,1.625-0.335s0.871-0.526,1.192-0.909s0.565-0.821,0.734-1.316
        C83.624,20.042,83.708,19.523,83.708,18.98z"/>
    <path fill="#666666" d="M96.428,16.184c-0.24-0.368-0.6-0.676-1.08-0.924s-0.992-0.372-1.536-0.372
        c-0.592,0-1.116,0.112-1.572,0.336c-0.456,0.225-0.844,0.524-1.164,0.9c-0.32,0.376-0.564,0.812-0.732,1.308
        s-0.252,1.017-0.252,1.56c0,0.545,0.084,1.064,0.252,1.561s0.412,0.933,0.732,1.308c0.32,0.376,0.712,0.677,1.176,0.9
        c0.464,0.225,0.992,0.336,1.584,0.336c0.576,0,1.1-0.111,1.572-0.336c0.472-0.224,0.86-0.528,1.164-0.912l1.512,1.368
        c-0.48,0.561-1.08,0.996-1.8,1.308c-0.72,0.312-1.536,0.468-2.448,0.468c-0.88,0-1.692-0.144-2.436-0.432
        c-0.744-0.288-1.388-0.691-1.932-1.212c-0.544-0.52-0.972-1.147-1.284-1.884s-0.468-1.561-0.468-2.473
        c0-0.896,0.152-1.711,0.456-2.447c0.304-0.736,0.728-1.368,1.272-1.896c0.543-0.527,1.188-0.936,1.932-1.224
        c0.744-0.288,1.548-0.433,2.412-0.433c0.8,0,1.596,0.16,2.388,0.48s1.419,0.784,1.884,1.392L96.428,16.184z"/>
    <path fill="#666666" d="M103.1,23.24c0,0.417-0.152,0.784-0.456,1.104c-0.304,0.32-0.688,0.479-1.152,0.479
        c-0.448,0-0.828-0.155-1.14-0.468c-0.312-0.312-0.468-0.676-0.468-1.092c0-0.432,0.152-0.804,0.456-1.116
        c0.304-0.312,0.688-0.468,1.152-0.468c0.464,0,0.848,0.152,1.152,0.456C102.947,22.44,103.1,22.808,103.1,23.24z"/>
    <path fill="#666666" d="M116.635,18.969c0,0.88-0.156,1.688-0.468,2.424c-0.312,0.736-0.744,1.372-1.296,1.908
        c-0.552,0.536-1.204,0.952-1.956,1.248c-0.752,0.296-1.56,0.443-2.424,0.443c-0.864,0-1.672-0.147-2.424-0.443
        c-0.752-0.296-1.4-0.712-1.944-1.248c-0.544-0.536-0.972-1.172-1.284-1.908c-0.312-0.735-0.468-1.544-0.468-2.424
        s0.156-1.684,0.468-2.412c0.312-0.728,0.74-1.356,1.284-1.884c0.543-0.528,1.191-0.939,1.944-1.236
        c0.752-0.296,1.56-0.444,2.424-0.444c0.864,0,1.672,0.148,2.424,0.444c0.752,0.297,1.404,0.708,1.956,1.236
        c0.552,0.527,0.984,1.156,1.296,1.884C116.479,17.285,116.635,18.089,116.635,18.969z M114.283,18.98
        c0-0.542-0.084-1.061-0.252-1.556c-0.169-0.494-0.414-0.929-0.734-1.304s-0.718-0.674-1.192-0.897s-1.015-0.335-1.625-0.335
        c-0.61,0-1.152,0.111-1.625,0.335c-0.474,0.224-0.871,0.522-1.191,0.897c-0.321,0.375-0.566,0.81-0.734,1.304
        c-0.169,0.495-0.253,1.014-0.253,1.556c0,0.543,0.084,1.062,0.253,1.556c0.168,0.495,0.413,0.934,0.734,1.316
        c0.321,0.383,0.718,0.686,1.191,0.909c0.473,0.224,1.015,0.335,1.625,0.335c0.61,0,1.151-0.111,1.625-0.335
        s0.871-0.526,1.192-0.909s0.565-0.821,0.734-1.316C114.199,20.042,114.283,19.523,114.283,18.98z"/>
    <path fill="#666666" d="M119.251,14.577c-0.016-0.48-0.04-0.904-0.072-1.272h2.136c0.032,0.288,0.056,0.62,0.072,0.996
        c0.016,0.376,0.024,0.684,0.024,0.924h0.072c0.32-0.672,0.788-1.212,1.404-1.62c0.616-0.408,1.308-0.612,2.076-0.612
        c0.352,0,0.648,0.033,0.888,0.097l-0.096,2.088c-0.32-0.08-0.664-0.12-1.032-0.12c-0.544,0-1.016,0.101-1.416,0.3
        c-0.4,0.2-0.732,0.468-0.996,0.805c-0.264,0.336-0.46,0.724-0.588,1.163c-0.128,0.44-0.192,0.9-0.192,1.381v5.976h-2.256v-8.928
        C119.275,15.449,119.267,15.056,119.251,14.577z"/>
    <path fill="#666666" d="M128.419,26.625c0.496,0.56,1.116,1.008,1.86,1.344c0.744,0.336,1.508,0.504,2.292,0.504
        c0.752,0,1.384-0.108,1.896-0.324s0.924-0.512,1.236-0.888s0.536-0.82,0.672-1.332c0.136-0.513,0.204-1.064,0.204-1.656v-1.464
        h-0.048c-0.416,0.641-0.984,1.128-1.704,1.464c-0.72,0.336-1.488,0.504-2.304,0.504c-0.864,0-1.652-0.151-2.364-0.456
        c-0.712-0.304-1.316-0.72-1.812-1.248c-0.496-0.527-0.88-1.147-1.152-1.859s-0.408-1.477-0.408-2.292
        c0-0.816,0.136-1.584,0.408-2.305c0.272-0.72,0.656-1.348,1.152-1.884c0.496-0.535,1.096-0.96,1.8-1.271
        c0.704-0.312,1.488-0.469,2.352-0.469c0.816,0,1.596,0.177,2.34,0.528c0.744,0.353,1.332,0.888,1.764,1.608h0.048v-1.824h2.184
        v10.8c0,0.832-0.104,1.628-0.312,2.388c-0.208,0.76-0.56,1.433-1.056,2.017s-1.144,1.052-1.944,1.404
        c-0.8,0.352-1.792,0.527-2.976,0.527c-0.992,0-1.988-0.18-2.988-0.54c-1-0.359-1.86-0.868-2.58-1.523L128.419,26.625z
         M129.091,18.873c0,0.527,0.084,1.031,0.253,1.512c0.168,0.479,0.417,0.904,0.746,1.271c0.329,0.369,0.726,0.664,1.192,0.889
        c0.465,0.224,0.995,0.336,1.589,0.336c0.577,0,1.107-0.104,1.589-0.312c0.481-0.207,0.891-0.491,1.228-0.852
        s0.598-0.784,0.782-1.272c0.185-0.487,0.277-1.012,0.277-1.571c0-0.544-0.093-1.057-0.277-1.536
        c-0.185-0.48-0.449-0.904-0.794-1.272c-0.345-0.367-0.755-0.66-1.228-0.876c-0.474-0.216-1-0.324-1.577-0.324
        c-0.594,0-1.124,0.108-1.589,0.324c-0.466,0.216-0.863,0.504-1.192,0.864s-0.578,0.784-0.746,1.271
        C129.175,17.812,129.091,18.329,129.091,18.873z"/>
</g>
<g><a xlink:href="/" pointer-events="all" target="_top"><polygon fill="none" points="0,0 145,0 145,35 0,35 0,0"/></a></g>

</g>


<!-- AbsoluteValuable -->
<g id="node1" class="node">
<g id="a_node1"><a xlink:href="/swift-2/protocol/AbsoluteValuable/" target="_top">
<path fill="#999999" stroke="#999999" d="M410.558,-80C410.558,-80 323.442,-80 323.442,-80 319.775,-80 316.109,-76.3333 316.109,-72.6667 316.109,-72.6667 316.109,-65.3333 316.109,-65.3333 316.109,-61.6667 319.775,-58 323.442,-58 323.442,-58 410.558,-58 410.558,-58 414.225,-58 417.891,-61.6667 417.891,-65.3333 417.891,-65.3333 417.891,-72.6667 417.891,-72.6667 417.891,-76.3333 414.225,-80 410.558,-80"/>
<text text-anchor="middle" x="367" y="-65.4" font-family="Helvetica,sans-Serif" font-size="12.00" fill="white">AbsoluteValuable</text>
</a>
</g>
</g>
<!-- Double -->
<g id="node5" class="node">
<g id="a_node5"><a xlink:href="/swift-2/type/Double/" target="_top">
<polygon fill="#ee543d" stroke="#ee543d" points="659,-22 605,-22 605,-0 659,-0 659,-22"/>
<text text-anchor="middle" x="632" y="-7.4" font-family="Helvetica,sans-Serif" font-size="12.00" fill="white">Double</text>
</a>
</g>
</g>
<!-- AbsoluteValuable&#45;&gt;Double -->
<g id="edge9" class="edge">
<path fill="none" stroke="#cccccc" d="M414.377,-57.9883C466.111,-47.0559 547.868,-29.7788 595.063,-19.8055"/>
<polygon fill="#cccccc" stroke="#cccccc" points="595.808,-23.2255 604.868,-17.7335 594.361,-16.3767 595.808,-23.2255"/>
</g>
<!-- CVarArgType -->
<g id="node2" class="node">
<g id="a_node2"><a xlink:href="/swift-2/protocol/CVarArgType/" target="_top">
<path fill="#999999" stroke="#999999" d="M1125.03,-138C1125.03,-138 1058.97,-138 1058.97,-138 1055.3,-138 1051.64,-134.333 1051.64,-130.667 1051.64,-130.667 1051.64,-123.333 1051.64,-123.333 1051.64,-119.667 1055.3,-116 1058.97,-116 1058.97,-116 1125.03,-116 1125.03,-116 1128.7,-116 1132.36,-119.667 1132.36,-123.333 1132.36,-123.333 1132.36,-130.667 1132.36,-130.667 1132.36,-134.333 1128.7,-138 1125.03,-138"/>
<text text-anchor="middle" x="1092" y="-123.4" font-family="Helvetica,sans-Serif" font-size="12.00" fill="white">CVarArgType</text>
</a>
</g>
</g>
<!-- CVarArgType&#45;&gt;Double -->
<g id="edge14" class="edge">
<path fill="none" stroke="#cccccc" d="M1092.27,-115.832C1092.06,-100.656 1089.21,-72.3328 1072,-58 1041.29,-32.424 769.673,-18.0294 669.174,-13.5407"/>
<polygon fill="#cccccc" stroke="#cccccc" points="669.309,-10.0434 659.166,-13.1013 669.002,-17.0366 669.309,-10.0434"/>
</g>
<!-- _CVarArgAlignedType -->
<g id="node14" class="node">
<g id="a_node14"><a xlink:href="/swift-2/protocol/_CVarArgAlignedType/" target="_top">
<path fill="#999999" stroke="#999999" d="M1240.06,-80C1240.06,-80 1127.94,-80 1127.94,-80 1124.27,-80 1120.61,-76.3333 1120.61,-72.6667 1120.61,-72.6667 1120.61,-65.3333 1120.61,-65.3333 1120.61,-61.6667 1124.27,-58 1127.94,-58 1127.94,-58 1240.06,-58 1240.06,-58 1243.73,-58 1247.39,-61.6667 1247.39,-65.3333 1247.39,-65.3333 1247.39,-72.6667 1247.39,-72.6667 1247.39,-76.3333 1243.73,-80 1240.06,-80"/>
<text text-anchor="middle" x="1184" y="-65.4" font-family="Helvetica,sans-Serif" font-size="12.00" fill="white">_CVarArgAlignedType</text>
</a>
</g>
</g>
<!-- CVarArgType&#45;&gt;_CVarArgAlignedType -->
<g id="edge25" class="edge">
<path fill="none" stroke="#cccccc" d="M1108.45,-115.988C1122.36,-107.52 1142.53,-95.2452 1158.52,-85.5067"/>
<polygon fill="#cccccc" stroke="#cccccc" points="1160.66,-88.303 1167.38,-80.1138 1157.02,-82.3236 1160.66,-88.303"/>
</g>
<!-- _CVarArgPassedAsDouble -->
<g id="node15" class="node">
<g id="a_node15"><a xlink:href="/swift-2/protocol/_CVarArgPassedAsDouble/" target="_top">
<path fill="#999999" stroke="#999999" d="M1056.06,-80C1056.06,-80 917.938,-80 917.938,-80 914.272,-80 910.605,-76.3333 910.605,-72.6667 910.605,-72.6667 910.605,-65.3333 910.605,-65.3333 910.605,-61.6667 914.272,-58 917.938,-58 917.938,-58 1056.06,-58 1056.06,-58 1059.73,-58 1063.4,-61.6667 1063.4,-65.3333 1063.4,-65.3333 1063.4,-72.6667 1063.4,-72.6667 1063.4,-76.3333 1059.73,-80 1056.06,-80"/>
<text text-anchor="middle" x="987" y="-65.4" font-family="Helvetica,sans-Serif" font-size="12.00" fill="white">_CVarArgPassedAsDouble</text>
</a>
</g>
</g>
<!-- CVarArgType&#45;&gt;_CVarArgPassedAsDouble -->
<g id="edge24" class="edge">
<path fill="none" stroke="#cccccc" d="M1073.23,-115.988C1056.98,-107.322 1033.26,-94.6696 1014.8,-84.8283"/>
<polygon fill="#cccccc" stroke="#cccccc" points="1016.43,-81.7315 1005.96,-80.1138 1013.14,-87.908 1016.43,-81.7315"/>
</g>
<!-- Comparable -->
<g id="node3" class="node">
<g id="a_node3"><a xlink:href="/swift-2/protocol/Comparable/" target="_top">
<path fill="#999999" stroke="#999999" d="M624.191,-196C624.191,-196 563.809,-196 563.809,-196 560.142,-196 556.475,-192.333 556.475,-188.667 556.475,-188.667 556.475,-181.333 556.475,-181.333 556.475,-177.667 560.142,-174 563.809,-174 563.809,-174 624.191,-174 624.191,-174 627.858,-174 631.525,-177.667 631.525,-181.333 631.525,-181.333 631.525,-188.667 631.525,-188.667 631.525,-192.333 627.858,-196 624.191,-196"/>
<text text-anchor="middle" x="594" y="-181.4" font-family="Helvetica,sans-Serif" font-size="12.00" fill="white">Comparable</text>
</a>
</g>
</g>
<!-- Comparable&#45;&gt;Double -->
<g id="edge5" class="edge">
<path fill="none" stroke="#cccccc" d="M596.263,-173.756C602.374,-146.097 619.294,-69.5091 627.467,-32.5186"/>
<polygon fill="#cccccc" stroke="#cccccc" points="630.961,-32.9277 629.701,-22.4081 624.126,-31.4175 630.961,-32.9277"/>
</g>
<!-- SignedNumberType -->
<g id="node12" class="node">
<g id="a_node12"><a xlink:href="/swift-2/protocol/SignedNumberType/" target="_top">
<path fill="#999999" stroke="#999999" d="M321.716,-138C321.716,-138 220.284,-138 220.284,-138 216.617,-138 212.95,-134.333 212.95,-130.667 212.95,-130.667 212.95,-123.333 212.95,-123.333 212.95,-119.667 216.617,-116 220.284,-116 220.284,-116 321.716,-116 321.716,-116 325.383,-116 329.05,-119.667 329.05,-123.333 329.05,-123.333 329.05,-130.667 329.05,-130.667 329.05,-134.333 325.383,-138 321.716,-138"/>
<text text-anchor="middle" x="271" y="-123.4" font-family="Helvetica,sans-Serif" font-size="12.00" fill="white">SignedNumberType</text>
</a>
</g>
</g>
<!-- Comparable&#45;&gt;SignedNumberType -->
<g id="edge21" class="edge">
<path fill="none" stroke="#cccccc" d="M556.632,-177.521C503.402,-168.293 404.867,-151.209 338.619,-139.723"/>
<polygon fill="#cccccc" stroke="#cccccc" points="339.134,-136.26 328.683,-138.001 337.938,-143.158 339.134,-136.26"/>
</g>
<!-- Strideable -->
<g id="node13" class="node">
<g id="a_node13"><a xlink:href="/swift-2/protocol/Strideable/" target="_top">
<path fill="#999999" stroke="#999999" d="M708.693,-138C708.693,-138 659.307,-138 659.307,-138 655.64,-138 651.974,-134.333 651.974,-130.667 651.974,-130.667 651.974,-123.333 651.974,-123.333 651.974,-119.667 655.64,-116 659.307,-116 659.307,-116 708.693,-116 708.693,-116 712.36,-116 716.026,-119.667 716.026,-123.333 716.026,-123.333 716.026,-130.667 716.026,-130.667 716.026,-134.333 712.36,-138 708.693,-138"/>
<text text-anchor="middle" x="684" y="-123.4" font-family="Helvetica,sans-Serif" font-size="12.00" fill="white">Strideable</text>
</a>
</g>
</g>
<!-- Comparable&#45;&gt;Strideable -->
<g id="edge17" class="edge">
<path fill="none" stroke="#cccccc" d="M610.09,-173.988C623.7,-165.52 643.427,-153.245 659.079,-143.507"/>
<polygon fill="#cccccc" stroke="#cccccc" points="661.104,-146.369 667.746,-138.114 657.406,-140.425 661.104,-146.369"/>
</g>
<!-- CustomStringConvertible -->
<g id="node4" class="node">
<g id="a_node4"><a xlink:href="/swift-2/protocol/CustomStringConvertible/" target="_top">
<path fill="#999999" stroke="#999999" d="M290.208,-80C290.208,-80 161.792,-80 161.792,-80 158.126,-80 154.459,-76.3333 154.459,-72.6667 154.459,-72.6667 154.459,-65.3333 154.459,-65.3333 154.459,-61.6667 158.126,-58 161.792,-58 161.792,-58 290.208,-58 290.208,-58 293.874,-58 297.541,-61.6667 297.541,-65.3333 297.541,-65.3333 297.541,-72.6667 297.541,-72.6667 297.541,-76.3333 293.874,-80 290.208,-80"/>
<text text-anchor="middle" x="226" y="-65.4" font-family="Helvetica,sans-Serif" font-size="12.00" fill="white">CustomStringConvertible</text>
</a>
</g>
</g>
<!-- CustomStringConvertible&#45;&gt;Double -->
<g id="edge1" class="edge">
<path fill="none" stroke="#cccccc" d="M297.65,-58.1172C384.3,-46.1655 526.905,-26.4958 594.377,-17.1893"/>
<polygon fill="#cccccc" stroke="#cccccc" points="595.113,-20.6211 604.541,-15.7874 594.157,-13.6867 595.113,-20.6211"/>
</g>
<!-- Equatable -->
<g id="node6" class="node">
<g id="a_node6"><a xlink:href="/swift-2/protocol/Equatable/" target="_top">
<path fill="#999999" stroke="#999999" d="M618.702,-254C618.702,-254 569.298,-254 569.298,-254 565.632,-254 561.965,-250.333 561.965,-246.667 561.965,-246.667 561.965,-239.333 561.965,-239.333 561.965,-235.667 565.632,-232 569.298,-232 569.298,-232 618.702,-232 618.702,-232 622.368,-232 626.035,-235.667 626.035,-239.333 626.035,-239.333 626.035,-246.667 626.035,-246.667 626.035,-250.333 622.368,-254 618.702,-254"/>
<text text-anchor="middle" x="594" y="-239.4" font-family="Helvetica,sans-Serif" font-size="12.00" fill="white">Equatable</text>
</a>
</g>
</g>
<!-- Equatable&#45;&gt;Comparable -->
<g id="edge19" class="edge">
<path fill="none" stroke="#cccccc" d="M594,-231.988C594,-224.91 594,-215.171 594,-206.478"/>
<polygon fill="#cccccc" stroke="#cccccc" points="597.5,-206.304 594,-196.304 590.5,-206.304 597.5,-206.304"/>
</g>
<!-- Equatable&#45;&gt;Double -->
<g id="edge6" class="edge">
<path fill="none" stroke="#cccccc" d="M626.223,-238.733C770.605,-223.496 1347.03,-155.991 1256,-58 1216,-14.9416 797.682,-11.8099 669.275,-11.8709"/>
<polygon fill="#cccccc" stroke="#cccccc" points="669.143,-8.37093 659.147,-11.8828 669.151,-15.3709 669.143,-8.37093"/>
</g>
<!-- Hashable -->
<g id="node9" class="node">
<g id="a_node9"><a xlink:href="/swift-2/protocol/Hashable/" target="_top">
<path fill="#999999" stroke="#999999" d="M52.6941,-138C52.6941,-138 7.30586,-138 7.30586,-138 3.6392,-138 -0.0274696,-134.333 -0.0274696,-130.667 -0.0274696,-130.667 -0.0274696,-123.333 -0.0274696,-123.333 -0.0274696,-119.667 3.6392,-116 7.30586,-116 7.30586,-116 52.6941,-116 52.6941,-116 56.3608,-116 60.0275,-119.667 60.0275,-123.333 60.0275,-123.333 60.0275,-130.667 60.0275,-130.667 60.0275,-134.333 56.3608,-138 52.6941,-138"/>
<text text-anchor="middle" x="30" y="-123.4" font-family="Helvetica,sans-Serif" font-size="12.00" fill="white">Hashable</text>
</a>
</g>
</g>
<!-- Equatable&#45;&gt;Hashable -->
<g id="edge20" class="edge">
<path fill="none" stroke="#cccccc" d="M561.83,-241.118C468.956,-238.219 201.885,-227.311 121,-196 91.9172,-184.742 64.0433,-161.448 46.9806,-145.282"/>
<polygon fill="#cccccc" stroke="#cccccc" points="49.1181,-142.478 39.5149,-138.002 44.2313,-147.489 49.1181,-142.478"/>
</g>
<!-- FloatLiteralConvertible -->
<g id="node7" class="node">
<g id="a_node7"><a xlink:href="/swift-2/protocol/FloatLiteralConvertible/" target="_top">
<path fill="#999999" stroke="#999999" d="M558.711,-80C558.711,-80 443.289,-80 443.289,-80 439.623,-80 435.956,-76.3333 435.956,-72.6667 435.956,-72.6667 435.956,-65.3333 435.956,-65.3333 435.956,-61.6667 439.623,-58 443.289,-58 443.289,-58 558.711,-58 558.711,-58 562.377,-58 566.044,-61.6667 566.044,-65.3333 566.044,-65.3333 566.044,-72.6667 566.044,-72.6667 566.044,-76.3333 562.377,-80 558.711,-80"/>
<text text-anchor="middle" x="501" y="-65.4" font-family="Helvetica,sans-Serif" font-size="12.00" fill="white">FloatLiteralConvertible</text>
</a>
</g>
</g>
<!-- FloatLiteralConvertible&#45;&gt;Double -->
<g id="edge4" class="edge">
<path fill="none" stroke="#cccccc" d="M524.42,-57.9883C545.155,-49.1244 575.647,-36.0897 598.879,-26.1587"/>
<polygon fill="#cccccc" stroke="#cccccc" points="600.522,-29.2629 608.341,-22.1138 597.77,-22.8263 600.522,-29.2629"/>
</g>
<!-- FloatingPointType -->
<g id="node8" class="node">
<g id="a_node8"><a xlink:href="/swift-2/protocol/FloatingPointType/" target="_top">
<path fill="#999999" stroke="#999999" d="M758.715,-80C758.715,-80 667.285,-80 667.285,-80 663.618,-80 659.952,-76.3333 659.952,-72.6667 659.952,-72.6667 659.952,-65.3333 659.952,-65.3333 659.952,-61.6667 663.618,-58 667.285,-58 667.285,-58 758.715,-58 758.715,-58 762.382,-58 766.048,-61.6667 766.048,-65.3333 766.048,-65.3333 766.048,-72.6667 766.048,-72.6667 766.048,-76.3333 762.382,-80 758.715,-80"/>
<text text-anchor="middle" x="713" y="-65.4" font-family="Helvetica,sans-Serif" font-size="12.00" fill="white">FloatingPointType</text>
</a>
</g>
</g>
<!-- FloatingPointType&#45;&gt;Double -->
<g id="edge2" class="edge">
<path fill="none" stroke="#cccccc" d="M698.519,-57.9883C686.499,-49.6784 669.177,-37.7028 655.223,-28.0554"/>
<polygon fill="#cccccc" stroke="#cccccc" points="656.845,-24.9217 646.629,-22.1138 652.864,-30.6796 656.845,-24.9217"/>
</g>
<!-- Hashable&#45;&gt;Double -->
<g id="edge7" class="edge">
<path fill="none" stroke="#cccccc" d="M33.3069,-115.789C38.9239,-100.285 51.9208,-71.2161 74,-58 118.483,-31.3733 476.349,-17.1794 594.384,-13.1882"/>
<polygon fill="#cccccc" stroke="#cccccc" points="594.843,-16.675 604.721,-12.8442 594.61,-9.67886 594.843,-16.675"/>
</g>
<!-- IntegerLiteralConvertible -->
<g id="node10" class="node">
<g id="a_node10"><a xlink:href="/swift-2/protocol/IntegerLiteralConvertible/" target="_top">
<path fill="#999999" stroke="#999999" d="M262.722,-196C262.722,-196 137.278,-196 137.278,-196 133.611,-196 129.944,-192.333 129.944,-188.667 129.944,-188.667 129.944,-181.333 129.944,-181.333 129.944,-177.667 133.611,-174 137.278,-174 137.278,-174 262.722,-174 262.722,-174 266.389,-174 270.056,-177.667 270.056,-181.333 270.056,-181.333 270.056,-188.667 270.056,-188.667 270.056,-192.333 266.389,-196 262.722,-196"/>
<text text-anchor="middle" x="200" y="-181.4" font-family="Helvetica,sans-Serif" font-size="12.00" fill="white">IntegerLiteralConvertible</text>
</a>
</g>
</g>
<!-- IntegerLiteralConvertible&#45;&gt;Double -->
<g id="edge3" class="edge">
<path fill="none" stroke="#cccccc" d="M187.268,-173.772C160.162,-150.82 101.833,-94.3785 135,-58 165.828,-24.1871 484.109,-14.8562 594.523,-12.6263"/>
<polygon fill="#cccccc" stroke="#cccccc" points="594.914,-16.1195 604.844,-12.4266 594.778,-9.12086 594.914,-16.1195"/>
</g>
<!-- IntegerLiteralConvertible&#45;&gt;SignedNumberType -->
<g id="edge22" class="edge">
<path fill="none" stroke="#cccccc" d="M212.693,-173.988C223.064,-165.809 237.938,-154.077 250.067,-144.511"/>
<polygon fill="#cccccc" stroke="#cccccc" points="252.252,-147.245 257.936,-138.304 247.917,-141.749 252.252,-147.245"/>
</g>
<!-- Reflectable -->
<g id="node11" class="node">
<g id="a_node11"><a xlink:href="/swift-2/protocol/Reflectable/" target="_top">
<path fill="#999999" stroke="#999999" d="M846.693,-80C846.693,-80 791.307,-80 791.307,-80 787.64,-80 783.974,-76.3333 783.974,-72.6667 783.974,-72.6667 783.974,-65.3333 783.974,-65.3333 783.974,-61.6667 787.64,-58 791.307,-58 791.307,-58 846.693,-58 846.693,-58 850.36,-58 854.026,-61.6667 854.026,-65.3333 854.026,-65.3333 854.026,-72.6667 854.026,-72.6667 854.026,-76.3333 850.36,-80 846.693,-80"/>
<text text-anchor="middle" x="819" y="-65.4" font-family="Helvetica,sans-Serif" font-size="12.00" fill="white">Reflectable</text>
</a>
</g>
</g>
<!-- Reflectable&#45;&gt;Double -->
<g id="edge12" class="edge">
<path fill="none" stroke="#cccccc" d="M785.568,-57.9883C752.817,-48.1806 703.015,-33.2666 669.069,-23.1008"/>
<polygon fill="#cccccc" stroke="#cccccc" points="669.663,-19.6252 659.079,-20.1092 667.655,-26.331 669.663,-19.6252"/>
</g>
<!-- SignedNumberType&#45;&gt;AbsoluteValuable -->
<g id="edge23" class="edge">
<path fill="none" stroke="#cccccc" d="M288.163,-115.988C302.815,-107.441 324.116,-95.0155 340.884,-85.2343"/>
<polygon fill="#cccccc" stroke="#cccccc" points="342.788,-88.1758 349.662,-80.1138 339.261,-82.1293 342.788,-88.1758"/>
</g>
<!-- SignedNumberType&#45;&gt;Double -->
<g id="edge8" class="edge">
<path fill="none" stroke="#cccccc" d="M215.529,-115.905C170.729,-105.414 119.069,-86.4962 145,-58 175.113,-24.9091 485.648,-15.127 594.528,-12.7022"/>
<polygon fill="#cccccc" stroke="#cccccc" points="594.794,-16.1975 604.717,-12.4839 594.644,-9.19906 594.794,-16.1975"/>
</g>
<!-- Strideable&#45;&gt;Double -->
<g id="edge10" class="edge">
<path fill="none" stroke="#cccccc" d="M674.992,-115.708C667.611,-106.8 657.378,-93.2919 651,-80 643.636,-64.6524 638.67,-45.945 635.668,-32.0396"/>
<polygon fill="#cccccc" stroke="#cccccc" points="639.067,-31.1915 633.672,-22.0731 632.204,-32.5656 639.067,-31.1915"/>
</g>
<!-- Strideable&#45;&gt;FloatingPointType -->
<g id="edge16" class="edge">
<path fill="none" stroke="#cccccc" d="M689.185,-115.988C693.013,-108.595 698.344,-98.3005 702.992,-89.3253"/>
<polygon fill="#cccccc" stroke="#cccccc" points="706.173,-90.7933 707.664,-80.3039 699.957,-87.5743 706.173,-90.7933"/>
</g>
<!-- _CVarArgAlignedType&#45;&gt;Double -->
<g id="edge15" class="edge">
<path fill="none" stroke="#cccccc" d="M1120.59,-59.705C1115.66,-59.11 1110.75,-58.5347 1106,-58 943.435,-39.6954 749.001,-22.2063 669.079,-15.2072"/>
<polygon fill="#cccccc" stroke="#cccccc" points="669.286,-11.7121 659.019,-14.3288 668.677,-18.6855 669.286,-11.7121"/>
</g>
<!-- _CVarArgPassedAsDouble&#45;&gt;Double -->
<g id="edge13" class="edge">
<path fill="none" stroke="#cccccc" d="M923.533,-57.9883C849.595,-46.3248 729.876,-27.4397 669.445,-17.9068"/>
<polygon fill="#cccccc" stroke="#cccccc" points="669.647,-14.3954 659.223,-16.2944 668.556,-21.3099 669.647,-14.3954"/>
</g>
<!-- _Strideable -->
<g id="node16" class="node">
<g id="a_node16"><a xlink:href="/swift-2/protocol/_Strideable/" target="_top">
<path fill="#999999" stroke="#999999" d="M825.7,-196C825.7,-196 770.3,-196 770.3,-196 766.634,-196 762.967,-192.333 762.967,-188.667 762.967,-188.667 762.967,-181.333 762.967,-181.333 762.967,-177.667 766.634,-174 770.3,-174 770.3,-174 825.7,-174 825.7,-174 829.366,-174 833.033,-177.667 833.033,-181.333 833.033,-181.333 833.033,-188.667 833.033,-188.667 833.033,-192.333 829.366,-196 825.7,-196"/>
<text text-anchor="middle" x="798" y="-181.4" font-family="Helvetica,sans-Serif" font-size="12.00" fill="white">_Strideable</text>
</a>
</g>
</g>
<!-- _Strideable&#45;&gt;Double -->
<g id="edge11" class="edge">
<path fill="none" stroke="#cccccc" d="M810.853,-173.674C837.559,-151 894.07,-95.8672 863,-58 838.898,-28.6255 728.054,-17.6577 669.109,-13.8524"/>
<polygon fill="#cccccc" stroke="#cccccc" points="669.277,-10.3562 659.083,-13.242 668.851,-17.3433 669.277,-10.3562"/>
</g>
<!-- _Strideable&#45;&gt;Strideable -->
<g id="edge18" class="edge">
<path fill="none" stroke="#cccccc" d="M777.619,-173.988C759.816,-165.243 733.749,-152.438 713.639,-142.559"/>
<polygon fill="#cccccc" stroke="#cccccc" points="715.108,-139.381 704.589,-138.114 712.021,-145.664 715.108,-139.381"/>
</g>
</g>
</svg>
