<?xml version="1.0" encoding="UTF-8" standalone="no"?>
<!DOCTYPE svg PUBLIC "-//W3C//DTD SVG 1.1//EN"
 "http://www.w3.org/Graphics/SVG/1.1/DTD/svg11.dtd">
<!-- Generated by graphviz version 2.36.0 (20140111.2315)
 -->
<!-- Title: Equatable &#45; Type Hierarchy &#45; SwiftDoc.org Pages: 1 -->
<svg width="4219pt" height="601pt"
 viewBox="0.00 0.00 4219.40 601.20" xmlns="http://www.w3.org/2000/svg" xmlns:xlink="http://www.w3.org/1999/xlink">
<g id="graph0" class="graph" transform="scale(1 1) rotate(0) translate(7.2 543.6)">
<g transform="translate(0 -543.6)">
<g>
    <path fill="#666666" d="M13.846,10.832c-0.336-0.464-0.792-0.844-1.368-1.14s-1.224-0.444-1.944-0.444
        c-0.384,0-0.772,0.052-1.164,0.156C8.977,9.509,8.622,9.677,8.301,9.908c-0.32,0.232-0.58,0.52-0.78,0.864
        c-0.2,0.344-0.3,0.756-0.3,1.236c0,0.464,0.092,0.852,0.276,1.164c0.184,0.312,0.432,0.576,0.744,0.792s0.68,0.4,1.104,0.552
        c0.423,0.152,0.876,0.309,1.356,0.468c0.576,0.177,1.16,0.376,1.752,0.601c0.592,0.224,1.128,0.52,1.608,0.888
        s0.872,0.828,1.176,1.38s0.456,1.252,0.456,2.101c0,0.88-0.164,1.644-0.492,2.292c-0.328,0.647-0.765,1.184-1.308,1.607
        c-0.544,0.424-1.172,0.74-1.884,0.948s-1.444,0.312-2.196,0.312c-1.072,0-2.108-0.208-3.108-0.624
        c-1-0.415-1.828-1.031-2.484-1.848l1.848-1.56c0.4,0.592,0.936,1.071,1.608,1.439c0.672,0.368,1.399,0.552,2.184,0.552
        c0.4,0,0.8-0.056,1.2-0.168c0.4-0.111,0.764-0.288,1.092-0.527c0.328-0.24,0.596-0.54,0.804-0.9
        c0.208-0.36,0.312-0.796,0.312-1.308s-0.108-0.94-0.324-1.284c-0.216-0.344-0.508-0.636-0.876-0.876s-0.796-0.444-1.284-0.612
        c-0.488-0.168-1.004-0.34-1.548-0.516c-0.544-0.16-1.08-0.356-1.608-0.588c-0.528-0.232-1-0.528-1.416-0.889
        c-0.416-0.359-0.752-0.804-1.008-1.332c-0.256-0.527-0.384-1.184-0.384-1.968c0-0.848,0.172-1.576,0.516-2.184
        c0.344-0.608,0.792-1.112,1.344-1.512c0.552-0.4,1.176-0.692,1.872-0.876c0.696-0.184,1.396-0.276,2.1-0.276
        c0.992,0,1.92,0.176,2.784,0.528c0.864,0.352,1.56,0.824,2.088,1.416L13.846,10.832z"/>
    <path fill="#666666" d="M18.813,13.304l2.568,8.688h0.048l2.712-8.688h2.376l2.76,8.688h0.048l2.568-8.688h2.376L30.501,24.68
        h-2.352l-2.808-8.544h-0.048l-2.784,8.544h-2.352l-3.792-11.376H18.813z"/>
    <path fill="#666666" d="M38.685,9.2c0,0.416-0.147,0.76-0.44,1.032c-0.294,0.272-0.647,0.408-1.06,0.408s-0.762-0.14-1.047-0.42
        c-0.286-0.28-0.429-0.62-0.429-1.02c0-0.416,0.143-0.764,0.429-1.044c0.286-0.28,0.635-0.42,1.047-0.42s0.766,0.14,1.06,0.42
        C38.538,8.437,38.685,8.784,38.685,9.2z M38.325,24.68h-2.256V13.304h2.256V24.68z"/>
    <path fill="#666666" d="M47.613,15.152h-2.64v9.528h-2.256v-9.528h-2.256v-1.848h2.256v-2.376c0-0.672,0.076-1.292,0.228-1.86
        c0.152-0.568,0.4-1.06,0.744-1.476c0.344-0.416,0.784-0.744,1.32-0.984c0.536-0.24,1.188-0.36,1.956-0.36
        c0.544,0,1.016,0.056,1.416,0.168l-0.264,1.944c-0.176-0.048-0.352-0.088-0.528-0.12c-0.176-0.032-0.376-0.048-0.6-0.048
        c-0.432,0-0.78,0.076-1.044,0.228c-0.264,0.152-0.468,0.356-0.612,0.612s-0.24,0.548-0.288,0.876
        c-0.048,0.328-0.072,0.668-0.072,1.02v2.376h2.64V15.152z"/>
    <path fill="#666666" d="M54.909,15.152h-3.024v5.91c0,0.687,0.128,1.177,0.384,1.472c0.256,0.295,0.664,0.442,1.224,0.442
        c0.208,0,0.432-0.021,0.672-0.065c0.24-0.044,0.456-0.11,0.648-0.198l0.072,1.848c-0.272,0.096-0.572,0.172-0.9,0.229
        c-0.328,0.056-0.668,0.084-1.02,0.084c-1.072,0-1.892-0.296-2.46-0.889c-0.568-0.592-0.852-1.479-0.852-2.664v-6.168h-2.184
        v-1.848h2.184V10.04h2.232v3.264h3.024V15.152z"/>
    <path fill="#666666" d="M57.356,7.688h5.832c1.088,0,2.176,0.16,3.264,0.48c1.088,0.32,2.072,0.824,2.952,1.512
        s1.592,1.568,2.136,2.64c0.544,1.072,0.816,2.36,0.816,3.864c0,1.456-0.272,2.716-0.816,3.78s-1.256,1.943-2.136,2.64
        s-1.864,1.216-2.952,1.561c-1.088,0.344-2.176,0.516-3.264,0.516h-5.832V7.688z M59.732,22.593h2.976
        c1.024,0,1.972-0.145,2.844-0.432c0.872-0.288,1.624-0.704,2.256-1.248c0.632-0.544,1.124-1.216,1.476-2.017
        c0.352-0.8,0.528-1.704,0.528-2.712c0-1.056-0.176-1.983-0.528-2.784c-0.353-0.8-0.844-1.468-1.476-2.004
        c-0.632-0.536-1.384-0.944-2.256-1.224s-1.82-0.42-2.844-0.42h-2.976V22.593z"/>
    <path fill="#666666" d="M86.06,18.969c0,0.88-0.156,1.688-0.468,2.424c-0.312,0.736-0.744,1.372-1.296,1.908
        c-0.552,0.536-1.204,0.952-1.956,1.248c-0.752,0.296-1.56,0.443-2.424,0.443c-0.864,0-1.672-0.147-2.424-0.443
        c-0.752-0.296-1.4-0.712-1.944-1.248c-0.544-0.536-0.972-1.172-1.284-1.908c-0.312-0.735-0.468-1.544-0.468-2.424
        s0.156-1.684,0.468-2.412c0.312-0.728,0.74-1.356,1.284-1.884c0.543-0.528,1.191-0.939,1.944-1.236
        c0.752-0.296,1.56-0.444,2.424-0.444c0.864,0,1.672,0.148,2.424,0.444c0.752,0.297,1.404,0.708,1.956,1.236
        c0.552,0.527,0.984,1.156,1.296,1.884C85.904,17.285,86.06,18.089,86.06,18.969z M83.708,18.98c0-0.542-0.084-1.061-0.252-1.556
        c-0.169-0.494-0.414-0.929-0.734-1.304s-0.718-0.674-1.192-0.897s-1.015-0.335-1.625-0.335c-0.61,0-1.152,0.111-1.625,0.335
        c-0.474,0.224-0.871,0.522-1.191,0.897c-0.321,0.375-0.566,0.81-0.734,1.304C76.184,17.92,76.1,18.438,76.1,18.98
        c0,0.543,0.084,1.062,0.253,1.556c0.168,0.495,0.413,0.934,0.734,1.316c0.321,0.383,0.718,0.686,1.191,0.909
        c0.473,0.224,1.015,0.335,1.625,0.335c0.61,0,1.151-0.111,1.625-0.335s0.871-0.526,1.192-0.909s0.565-0.821,0.734-1.316
        C83.624,20.042,83.708,19.523,83.708,18.98z"/>
    <path fill="#666666" d="M96.428,16.184c-0.24-0.368-0.6-0.676-1.08-0.924s-0.992-0.372-1.536-0.372
        c-0.592,0-1.116,0.112-1.572,0.336c-0.456,0.225-0.844,0.524-1.164,0.9c-0.32,0.376-0.564,0.812-0.732,1.308
        s-0.252,1.017-0.252,1.56c0,0.545,0.084,1.064,0.252,1.561s0.412,0.933,0.732,1.308c0.32,0.376,0.712,0.677,1.176,0.9
        c0.464,0.225,0.992,0.336,1.584,0.336c0.576,0,1.1-0.111,1.572-0.336c0.472-0.224,0.86-0.528,1.164-0.912l1.512,1.368
        c-0.48,0.561-1.08,0.996-1.8,1.308c-0.72,0.312-1.536,0.468-2.448,0.468c-0.88,0-1.692-0.144-2.436-0.432
        c-0.744-0.288-1.388-0.691-1.932-1.212c-0.544-0.52-0.972-1.147-1.284-1.884s-0.468-1.561-0.468-2.473
        c0-0.896,0.152-1.711,0.456-2.447c0.304-0.736,0.728-1.368,1.272-1.896c0.543-0.527,1.188-0.936,1.932-1.224
        c0.744-0.288,1.548-0.433,2.412-0.433c0.8,0,1.596,0.16,2.388,0.48s1.419,0.784,1.884,1.392L96.428,16.184z"/>
    <path fill="#666666" d="M103.1,23.24c0,0.417-0.152,0.784-0.456,1.104c-0.304,0.32-0.688,0.479-1.152,0.479
        c-0.448,0-0.828-0.155-1.14-0.468c-0.312-0.312-0.468-0.676-0.468-1.092c0-0.432,0.152-0.804,0.456-1.116
        c0.304-0.312,0.688-0.468,1.152-0.468c0.464,0,0.848,0.152,1.152,0.456C102.947,22.44,103.1,22.808,103.1,23.24z"/>
    <path fill="#666666" d="M116.635,18.969c0,0.88-0.156,1.688-0.468,2.424c-0.312,0.736-0.744,1.372-1.296,1.908
        c-0.552,0.536-1.204,0.952-1.956,1.248c-0.752,0.296-1.56,0.443-2.424,0.443c-0.864,0-1.672-0.147-2.424-0.443
        c-0.752-0.296-1.4-0.712-1.944-1.248c-0.544-0.536-0.972-1.172-1.284-1.908c-0.312-0.735-0.468-1.544-0.468-2.424
        s0.156-1.684,0.468-2.412c0.312-0.728,0.74-1.356,1.284-1.884c0.543-0.528,1.191-0.939,1.944-1.236
        c0.752-0.296,1.56-0.444,2.424-0.444c0.864,0,1.672,0.148,2.424,0.444c0.752,0.297,1.404,0.708,1.956,1.236
        c0.552,0.527,0.984,1.156,1.296,1.884C116.479,17.285,116.635,18.089,116.635,18.969z M114.283,18.98
        c0-0.542-0.084-1.061-0.252-1.556c-0.169-0.494-0.414-0.929-0.734-1.304s-0.718-0.674-1.192-0.897s-1.015-0.335-1.625-0.335
        c-0.61,0-1.152,0.111-1.625,0.335c-0.474,0.224-0.871,0.522-1.191,0.897c-0.321,0.375-0.566,0.81-0.734,1.304
        c-0.169,0.495-0.253,1.014-0.253,1.556c0,0.543,0.084,1.062,0.253,1.556c0.168,0.495,0.413,0.934,0.734,1.316
        c0.321,0.383,0.718,0.686,1.191,0.909c0.473,0.224,1.015,0.335,1.625,0.335c0.61,0,1.151-0.111,1.625-0.335
        s0.871-0.526,1.192-0.909s0.565-0.821,0.734-1.316C114.199,20.042,114.283,19.523,114.283,18.98z"/>
    <path fill="#666666" d="M119.251,14.577c-0.016-0.48-0.04-0.904-0.072-1.272h2.136c0.032,0.288,0.056,0.62,0.072,0.996
        c0.016,0.376,0.024,0.684,0.024,0.924h0.072c0.32-0.672,0.788-1.212,1.404-1.62c0.616-0.408,1.308-0.612,2.076-0.612
        c0.352,0,0.648,0.033,0.888,0.097l-0.096,2.088c-0.32-0.08-0.664-0.12-1.032-0.12c-0.544,0-1.016,0.101-1.416,0.3
        c-0.4,0.2-0.732,0.468-0.996,0.805c-0.264,0.336-0.46,0.724-0.588,1.163c-0.128,0.44-0.192,0.9-0.192,1.381v5.976h-2.256v-8.928
        C119.275,15.449,119.267,15.056,119.251,14.577z"/>
    <path fill="#666666" d="M128.419,26.625c0.496,0.56,1.116,1.008,1.86,1.344c0.744,0.336,1.508,0.504,2.292,0.504
        c0.752,0,1.384-0.108,1.896-0.324s0.924-0.512,1.236-0.888s0.536-0.82,0.672-1.332c0.136-0.513,0.204-1.064,0.204-1.656v-1.464
        h-0.048c-0.416,0.641-0.984,1.128-1.704,1.464c-0.72,0.336-1.488,0.504-2.304,0.504c-0.864,0-1.652-0.151-2.364-0.456
        c-0.712-0.304-1.316-0.72-1.812-1.248c-0.496-0.527-0.88-1.147-1.152-1.859s-0.408-1.477-0.408-2.292
        c0-0.816,0.136-1.584,0.408-2.305c0.272-0.72,0.656-1.348,1.152-1.884c0.496-0.535,1.096-0.96,1.8-1.271
        c0.704-0.312,1.488-0.469,2.352-0.469c0.816,0,1.596,0.177,2.34,0.528c0.744,0.353,1.332,0.888,1.764,1.608h0.048v-1.824h2.184
        v10.8c0,0.832-0.104,1.628-0.312,2.388c-0.208,0.76-0.56,1.433-1.056,2.017s-1.144,1.052-1.944,1.404
        c-0.8,0.352-1.792,0.527-2.976,0.527c-0.992,0-1.988-0.18-2.988-0.54c-1-0.359-1.86-0.868-2.58-1.523L128.419,26.625z
         M129.091,18.873c0,0.527,0.084,1.031,0.253,1.512c0.168,0.479,0.417,0.904,0.746,1.271c0.329,0.369,0.726,0.664,1.192,0.889
        c0.465,0.224,0.995,0.336,1.589,0.336c0.577,0,1.107-0.104,1.589-0.312c0.481-0.207,0.891-0.491,1.228-0.852
        s0.598-0.784,0.782-1.272c0.185-0.487,0.277-1.012,0.277-1.571c0-0.544-0.093-1.057-0.277-1.536
        c-0.185-0.48-0.449-0.904-0.794-1.272c-0.345-0.367-0.755-0.66-1.228-0.876c-0.474-0.216-1-0.324-1.577-0.324
        c-0.594,0-1.124,0.108-1.589,0.324c-0.466,0.216-0.863,0.504-1.192,0.864s-0.578,0.784-0.746,1.271
        C129.175,17.812,129.091,18.329,129.091,18.873z"/>
</g>
<g><a xlink:href="/" pointer-events="all" target="_top"><polygon fill="none" points="0,0 145,0 145,35 0,35 0,0"/></a></g>

</g>


<!-- AbsoluteValuable -->
<g id="node1" class="node">
<g id="a_node1"><a xlink:href="/v1.2/protocol/AbsoluteValuable/hierarchy/" target="_top">
<path fill="#999999" stroke="#999999" d="M1002.56,-138C1002.56,-138 915.442,-138 915.442,-138 911.775,-138 908.109,-134.333 908.109,-130.667 908.109,-130.667 908.109,-123.333 908.109,-123.333 908.109,-119.667 911.775,-116 915.442,-116 915.442,-116 1002.56,-116 1002.56,-116 1006.22,-116 1009.89,-119.667 1009.89,-123.333 1009.89,-123.333 1009.89,-130.667 1009.89,-130.667 1009.89,-134.333 1006.22,-138 1002.56,-138"/>
<text text-anchor="middle" x="959" y="-123.4" font-family="Helvetica,sans-Serif" font-size="12.00" fill="white">AbsoluteValuable</text>
</a>
</g>
</g>
<!-- Double -->
<g id="node12" class="node">
<g id="a_node12"><a xlink:href="/v1.2/type/Double/hierarchy/" target="_top">
<polygon fill="#999999" stroke="#999999" points="874,-22 820,-22 820,-0 874,-0 874,-22"/>
<text text-anchor="middle" x="847" y="-7.4" font-family="Helvetica,sans-Serif" font-size="12.00" fill="white">Double</text>
</a>
</g>
</g>
<!-- AbsoluteValuable&#45;&gt;Double -->
<g id="edge56" class="edge">
<path fill="none" stroke="#cccccc" d="M959.218,-115.593C958.982,-101.125 956.533,-74.8196 943,-58 934.956,-48.0021 907.391,-35.3153 883.85,-25.7987"/>
<polygon fill="#cccccc" stroke="#cccccc" points="884.997,-22.4885 874.41,-22.0611 882.419,-28.9968 884.997,-22.4885"/>
</g>
<!-- Float -->
<g id="node15" class="node">
<g id="a_node15"><a xlink:href="/v1.2/type/Float/hierarchy/" target="_top">
<polygon fill="#999999" stroke="#999999" points="802,-22 748,-22 748,-0 802,-0 802,-22"/>
<text text-anchor="middle" x="775" y="-7.4" font-family="Helvetica,sans-Serif" font-size="12.00" fill="white">Float</text>
</a>
</g>
</g>
<!-- AbsoluteValuable&#45;&gt;Float -->
<g id="edge57" class="edge">
<path fill="none" stroke="#cccccc" d="M907.779,-117.846C879.385,-111.319 844.728,-99.8434 819,-80 802.716,-67.4406 790.677,-47.038 783.348,-31.8528"/>
<polygon fill="#cccccc" stroke="#cccccc" points="786.349,-29.9961 779.032,-22.3339 779.974,-32.8868 786.349,-29.9961"/>
</g>
<!-- Float80 -->
<g id="node16" class="node">
<g id="a_node16"><a xlink:href="/v1.2/type/Float80/hierarchy/" target="_top">
<polygon fill="#999999" stroke="#999999" points="946,-22 892,-22 892,-0 946,-0 946,-22"/>
<text text-anchor="middle" x="919" y="-7.4" font-family="Helvetica,sans-Serif" font-size="12.00" fill="white">Float80</text>
</a>
</g>
</g>
<!-- AbsoluteValuable&#45;&gt;Float80 -->
<g id="edge58" class="edge">
<path fill="none" stroke="#cccccc" d="M965.649,-115.89C973.738,-102.218 985.237,-77.3232 976,-58 969.985,-45.4164 958.661,-35.1717 947.682,-27.5716"/>
<polygon fill="#cccccc" stroke="#cccccc" points="949.367,-24.4947 939.058,-22.0492 945.592,-30.3896 949.367,-24.4947"/>
</g>
<!-- AutoreleasingUnsafeMutablePointer -->
<g id="node2" class="node">
<g id="a_node2"><a xlink:href="/v1.2/type/AutoreleasingUnsafeMutablePointer/hierarchy/" target="_top">
<polygon fill="#999999" stroke="#999999" points="3509.09,-22 3306.91,-22 3306.91,-0 3509.09,-0 3509.09,-22"/>
<text text-anchor="middle" x="3408" y="-7.4" font-family="Helvetica,sans-Serif" font-size="12.00" fill="white">AutoreleasingUnsafeMutablePointer</text>
</a>
</g>
</g>
<!-- BidirectionalIndexType -->
<g id="node3" class="node">
<g id="a_node3"><a xlink:href="/v1.2/protocol/BidirectionalIndexType/hierarchy/" target="_top">
<path fill="#999999" stroke="#999999" d="M2589.73,-254C2589.73,-254 2474.27,-254 2474.27,-254 2470.61,-254 2466.94,-250.333 2466.94,-246.667 2466.94,-246.667 2466.94,-239.333 2466.94,-239.333 2466.94,-235.667 2470.61,-232 2474.27,-232 2474.27,-232 2589.73,-232 2589.73,-232 2593.39,-232 2597.06,-235.667 2597.06,-239.333 2597.06,-239.333 2597.06,-246.667 2597.06,-246.667 2597.06,-250.333 2593.39,-254 2589.73,-254"/>
<text text-anchor="middle" x="2532" y="-239.4" font-family="Helvetica,sans-Serif" font-size="12.00" fill="white">BidirectionalIndexType</text>
</a>
</g>
</g>
<!-- RandomAccessIndexType -->
<g id="node31" class="node">
<g id="a_node31"><a xlink:href="/v1.2/protocol/RandomAccessIndexType/hierarchy/" target="_top">
<path fill="#999999" stroke="#999999" d="M2028.23,-196C2028.23,-196 1893.77,-196 1893.77,-196 1890.11,-196 1886.44,-192.333 1886.44,-188.667 1886.44,-188.667 1886.44,-181.333 1886.44,-181.333 1886.44,-177.667 1890.11,-174 1893.77,-174 1893.77,-174 2028.23,-174 2028.23,-174 2031.89,-174 2035.56,-177.667 2035.56,-181.333 2035.56,-181.333 2035.56,-188.667 2035.56,-188.667 2035.56,-192.333 2031.89,-196 2028.23,-196"/>
<text text-anchor="middle" x="1961" y="-181.4" font-family="Helvetica,sans-Serif" font-size="12.00" fill="white">RandomAccessIndexType</text>
</a>
</g>
</g>
<!-- BidirectionalIndexType&#45;&gt;RandomAccessIndexType -->
<g id="edge82" class="edge">
<path fill="none" stroke="#cccccc" d="M2466.78,-235.603C2363.1,-225.435 2160.71,-205.586 2045.88,-194.324"/>
<polygon fill="#cccccc" stroke="#cccccc" points="2046.02,-190.821 2035.72,-193.328 2045.33,-197.788 2046.02,-190.821"/>
</g>
<!-- ReverseBidirectionalIndex -->
<g id="node34" class="node">
<g id="a_node34"><a xlink:href="/v1.2/type/ReverseBidirectionalIndex/hierarchy/" target="_top">
<polygon fill="#999999" stroke="#999999" points="2789.55,-22 2640.45,-22 2640.45,-0 2789.55,-0 2789.55,-22"/>
<text text-anchor="middle" x="2715" y="-7.4" font-family="Helvetica,sans-Serif" font-size="12.00" fill="white">ReverseBidirectionalIndex</text>
</a>
</g>
</g>
<!-- BidirectionalIndexType&#45;&gt;ReverseBidirectionalIndex -->
<g id="edge83" class="edge">
<path fill="none" stroke="#cccccc" d="M2540.1,-231.82C2568.56,-196.047 2664.24,-75.7942 2700.71,-29.9551"/>
<polygon fill="#cccccc" stroke="#cccccc" points="2703.51,-32.0665 2706.99,-22.062 2698.03,-27.7081 2703.51,-32.0665"/>
</g>
<!-- String.Index -->
<g id="node42" class="node">
<g id="a_node42"><a xlink:href="/v1.2/type/String.Index/hierarchy/" target="_top">
<polygon fill="#999999" stroke="#999999" points="2424.03,-22 2349.97,-22 2349.97,-0 2424.03,-0 2424.03,-22"/>
<text text-anchor="middle" x="2387" y="-7.4" font-family="Helvetica,sans-Serif" font-size="12.00" fill="white">String.Index</text>
</a>
</g>
</g>
<!-- BidirectionalIndexType&#45;&gt;String.Index -->
<g id="edge84" class="edge">
<path fill="none" stroke="#cccccc" d="M2525.58,-231.82C2503.12,-196.196 2427.85,-76.7927 2398.68,-30.5307"/>
<polygon fill="#cccccc" stroke="#cccccc" points="2401.64,-28.6547 2393.34,-22.062 2395.72,-32.3879 2401.64,-28.6547"/>
</g>
<!-- String.UnicodeScalarView.Index -->
<g id="node45" class="node">
<g id="a_node45"><a xlink:href="/v1.2/type/String.UnicodeScalarView.Index/hierarchy/" target="_top">
<polygon fill="#999999" stroke="#999999" points="2621.92,-22 2442.08,-22 2442.08,-0 2621.92,-0 2621.92,-22"/>
<text text-anchor="middle" x="2532" y="-7.4" font-family="Helvetica,sans-Serif" font-size="12.00" fill="white">String.UnicodeScalarView.Index</text>
</a>
</g>
</g>
<!-- BidirectionalIndexType&#45;&gt;String.UnicodeScalarView.Index -->
<g id="edge85" class="edge">
<path fill="none" stroke="#cccccc" d="M2532,-231.82C2532,-196.642 2532,-79.7709 2532,-32.3033"/>
<polygon fill="#cccccc" stroke="#cccccc" points="2535.5,-32.062 2532,-22.062 2528.5,-32.0621 2535.5,-32.062"/>
</g>
<!-- Bit -->
<g id="node4" class="node">
<g id="a_node4"><a xlink:href="/v1.2/type/Bit/hierarchy/" target="_top">
<polygon fill="#999999" stroke="#999999" points="1988,-22 1934,-22 1934,-0 1988,-0 1988,-22"/>
<text text-anchor="middle" x="1961" y="-7.4" font-family="Helvetica,sans-Serif" font-size="12.00" fill="white">Bit</text>
</a>
</g>
</g>
<!-- Bool -->
<g id="node5" class="node">
<g id="a_node5"><a xlink:href="/v1.2/type/Bool/hierarchy/" target="_top">
<polygon fill="#999999" stroke="#999999" points="435,-22 381,-22 381,-0 435,-0 435,-22"/>
<text text-anchor="middle" x="408" y="-7.4" font-family="Helvetica,sans-Serif" font-size="12.00" fill="white">Bool</text>
</a>
</g>
</g>
<!-- CFunctionPointer -->
<g id="node6" class="node">
<g id="a_node6"><a xlink:href="/v1.2/type/CFunctionPointer/hierarchy/" target="_top">
<polygon fill="#999999" stroke="#999999" points="291.036,-22 188.964,-22 188.964,-0 291.036,-0 291.036,-22"/>
<text text-anchor="middle" x="240" y="-7.4" font-family="Helvetica,sans-Serif" font-size="12.00" fill="white">CFunctionPointer</text>
</a>
</g>
</g>
<!-- COpaquePointer -->
<g id="node7" class="node">
<g id="a_node7"><a xlink:href="/v1.2/type/COpaquePointer/hierarchy/" target="_top">
<polygon fill="#999999" stroke="#999999" points="98.5424,-22 -0.542368,-22 -0.542368,-0 98.5424,-0 98.5424,-22"/>
<text text-anchor="middle" x="49" y="-7.4" font-family="Helvetica,sans-Serif" font-size="12.00" fill="white">COpaquePointer</text>
</a>
</g>
</g>
<!-- Character -->
<g id="node8" class="node">
<g id="a_node8"><a xlink:href="/v1.2/type/Character/hierarchy/" target="_top">
<polygon fill="#999999" stroke="#999999" points="624.017,-22 561.983,-22 561.983,-0 624.017,-0 624.017,-22"/>
<text text-anchor="middle" x="593" y="-7.4" font-family="Helvetica,sans-Serif" font-size="12.00" fill="white">Character</text>
</a>
</g>
</g>
<!-- ClosedInterval -->
<g id="node9" class="node">
<g id="a_node9"><a xlink:href="/v1.2/type/ClosedInterval/hierarchy/" target="_top">
<polygon fill="#999999" stroke="#999999" points="3613.03,-22 3526.97,-22 3526.97,-0 3613.03,-0 3613.03,-22"/>
<text text-anchor="middle" x="3570" y="-7.4" font-family="Helvetica,sans-Serif" font-size="12.00" fill="white">ClosedInterval</text>
</a>
</g>
</g>
<!-- Comparable -->
<g id="node10" class="node">
<g id="a_node10"><a xlink:href="/v1.2/protocol/Comparable/hierarchy/" target="_top">
<path fill="#999999" stroke="#999999" d="M1285.19,-370C1285.19,-370 1224.81,-370 1224.81,-370 1221.14,-370 1217.48,-366.333 1217.48,-362.667 1217.48,-362.667 1217.48,-355.333 1217.48,-355.333 1217.48,-351.667 1221.14,-348 1224.81,-348 1224.81,-348 1285.19,-348 1285.19,-348 1288.86,-348 1292.52,-351.667 1292.52,-355.333 1292.52,-355.333 1292.52,-362.667 1292.52,-362.667 1292.52,-366.333 1288.86,-370 1285.19,-370"/>
<text text-anchor="middle" x="1255" y="-355.4" font-family="Helvetica,sans-Serif" font-size="12.00" fill="white">Comparable</text>
</a>
</g>
</g>
<!-- Comparable&#45;&gt;Character -->
<g id="edge11" class="edge">
<path fill="none" stroke="#cccccc" d="M1217.24,-353.922C1095.93,-340.321 724,-294.503 724,-244 724,-244 724,-244 724,-184 724,-114.326 655.129,-55.2638 617.26,-28.0544"/>
<polygon fill="#cccccc" stroke="#cccccc" points="619.002,-25.0012 608.802,-22.1355 614.988,-30.7365 619.002,-25.0012"/>
</g>
<!-- DictionaryIndex -->
<g id="node11" class="node">
<g id="a_node11"><a xlink:href="/v1.2/type/DictionaryIndex/hierarchy/" target="_top">
<polygon fill="#999999" stroke="#999999" points="2900.03,-22 2807.97,-22 2807.97,-0 2900.03,-0 2900.03,-22"/>
<text text-anchor="middle" x="2854" y="-7.4" font-family="Helvetica,sans-Serif" font-size="12.00" fill="white">DictionaryIndex</text>
</a>
</g>
</g>
<!-- Comparable&#45;&gt;DictionaryIndex -->
<g id="edge12" class="edge">
<path fill="none" stroke="#cccccc" d="M1292.62,-357.554C1497.83,-355.012 2477.6,-341.411 2609,-312 2683.6,-295.302 2767,-320.45 2767,-244 2767,-244 2767,-244 2767,-126 2767,-84.1716 2804.47,-48.1453 2830.23,-28.3211"/>
<polygon fill="#cccccc" stroke="#cccccc" points="2832.49,-30.9996 2838.45,-22.2343 2828.33,-25.375 2832.49,-30.9996"/>
</g>
<!-- IntegerArithmeticType -->
<g id="node27" class="node">
<g id="a_node27"><a xlink:href="/v1.2/protocol/IntegerArithmeticType/hierarchy/" target="_top">
<path fill="#999999" stroke="#999999" d="M1494.71,-254C1494.71,-254 1383.29,-254 1383.29,-254 1379.62,-254 1375.96,-250.333 1375.96,-246.667 1375.96,-246.667 1375.96,-239.333 1375.96,-239.333 1375.96,-235.667 1379.62,-232 1383.29,-232 1383.29,-232 1494.71,-232 1494.71,-232 1498.38,-232 1502.04,-235.667 1502.04,-239.333 1502.04,-239.333 1502.04,-246.667 1502.04,-246.667 1502.04,-250.333 1498.38,-254 1494.71,-254"/>
<text text-anchor="middle" x="1439" y="-239.4" font-family="Helvetica,sans-Serif" font-size="12.00" fill="white">IntegerArithmeticType</text>
</a>
</g>
</g>
<!-- Comparable&#45;&gt;IntegerArithmeticType -->
<g id="edge13" class="edge">
<path fill="none" stroke="#cccccc" d="M1271.33,-347.883C1303.65,-327.855 1375.97,-283.05 1414.21,-259.361"/>
<polygon fill="#cccccc" stroke="#cccccc" points="1416.05,-262.336 1422.71,-254.094 1412.36,-256.386 1416.05,-262.336"/>
</g>
<!-- ObjectIdentifier -->
<g id="node30" class="node">
<g id="a_node30"><a xlink:href="/v1.2/type/ObjectIdentifier/hierarchy/" target="_top">
<polygon fill="#999999" stroke="#999999" points="543.031,-22 452.969,-22 452.969,-0 543.031,-0 543.031,-22"/>
<text text-anchor="middle" x="498" y="-7.4" font-family="Helvetica,sans-Serif" font-size="12.00" fill="white">ObjectIdentifier</text>
</a>
</g>
</g>
<!-- Comparable&#45;&gt;ObjectIdentifier -->
<g id="edge14" class="edge">
<path fill="none" stroke="#cccccc" d="M1217.63,-356.649C1060.06,-350.465 458,-321.751 458,-244 458,-244 458,-244 458,-126 458,-91.0772 474.92,-53.3584 486.751,-31.2532"/>
<polygon fill="#cccccc" stroke="#cccccc" points="489.95,-32.7025 491.75,-22.2616 483.832,-29.3012 489.95,-32.7025"/>
</g>
<!-- SetIndex -->
<g id="node37" class="node">
<g id="a_node37"><a xlink:href="/v1.2/type/SetIndex/hierarchy/" target="_top">
<polygon fill="#999999" stroke="#999999" points="2975.52,-22 2918.48,-22 2918.48,-0 2975.52,-0 2975.52,-22"/>
<text text-anchor="middle" x="2947" y="-7.4" font-family="Helvetica,sans-Serif" font-size="12.00" fill="white">SetIndex</text>
</a>
</g>
</g>
<!-- Comparable&#45;&gt;SetIndex -->
<g id="edge15" class="edge">
<path fill="none" stroke="#cccccc" d="M1292.44,-357.734C1504.56,-356.1 2550.93,-346.342 2690,-312 2757.16,-295.416 2830,-313.174 2830,-244 2830,-244 2830,-244 2830,-184 2830,-117.08 2891.3,-56.9232 2925.16,-28.7989"/>
<polygon fill="#cccccc" stroke="#cccccc" points="2927.55,-31.3659 2933.12,-22.3542 2923.14,-25.9247 2927.55,-31.3659"/>
</g>
<!-- Strideable -->
<g id="node40" class="node">
<g id="a_node40"><a xlink:href="/v1.2/protocol/Strideable/hierarchy/" target="_top">
<path fill="#999999" stroke="#999999" d="M1253.69,-312C1253.69,-312 1204.31,-312 1204.31,-312 1200.64,-312 1196.97,-308.333 1196.97,-304.667 1196.97,-304.667 1196.97,-297.333 1196.97,-297.333 1196.97,-293.667 1200.64,-290 1204.31,-290 1204.31,-290 1253.69,-290 1253.69,-290 1257.36,-290 1261.03,-293.667 1261.03,-297.333 1261.03,-297.333 1261.03,-304.667 1261.03,-304.667 1261.03,-308.333 1257.36,-312 1253.69,-312"/>
<text text-anchor="middle" x="1229" y="-297.4" font-family="Helvetica,sans-Serif" font-size="12.00" fill="white">Strideable</text>
</a>
</g>
</g>
<!-- Comparable&#45;&gt;Strideable -->
<g id="edge16" class="edge">
<path fill="none" stroke="#cccccc" d="M1250.35,-347.988C1246.96,-340.674 1242.24,-330.519 1238.11,-321.612"/>
<polygon fill="#cccccc" stroke="#cccccc" points="1241.17,-319.9 1233.78,-312.304 1234.82,-322.848 1241.17,-319.9"/>
</g>
<!-- String -->
<g id="node41" class="node">
<g id="a_node41"><a xlink:href="/v1.2/type/String/hierarchy/" target="_top">
<polygon fill="#999999" stroke="#999999" points="363,-22 309,-22 309,-0 363,-0 363,-22"/>
<text text-anchor="middle" x="336" y="-7.4" font-family="Helvetica,sans-Serif" font-size="12.00" fill="white">String</text>
</a>
</g>
</g>
<!-- Comparable&#45;&gt;String -->
<g id="edge17" class="edge">
<path fill="none" stroke="#cccccc" d="M1217.49,-357.318C1089.12,-354.716 668.076,-343.896 537,-312 463.906,-294.213 382,-319.227 382,-244 382,-244 382,-244 382,-126 382,-90.3052 362.366,-52.5924 348.752,-30.7338"/>
<polygon fill="#cccccc" stroke="#cccccc" points="351.557,-28.6255 343.188,-22.1293 345.679,-32.427 351.557,-28.6255"/>
</g>
<!-- Comparable&#45;&gt;String.Index -->
<g id="edge20" class="edge">
<path fill="none" stroke="#cccccc" d="M1292.52,-358.033C1482.26,-357.715 2327,-350.331 2327,-244 2327,-244 2327,-244 2327,-126 2327,-88.4547 2352.8,-51.1294 2370.56,-29.8802"/>
<polygon fill="#cccccc" stroke="#cccccc" points="2373.45,-31.8995 2377.36,-22.0542 2368.16,-27.3097 2373.45,-31.8995"/>
</g>
<!-- Comparable&#45;&gt;String.UnicodeScalarView.Index -->
<g id="edge21" class="edge">
<path fill="none" stroke="#cccccc" d="M1292.38,-358.283C1489.37,-359.295 2398,-357.795 2398,-244 2398,-244 2398,-244 2398,-184 2398,-113.736 2468.45,-54.9394 2507.18,-27.9206"/>
<polygon fill="#cccccc" stroke="#cccccc" points="2509.53,-30.5588 2515.84,-22.0456 2505.6,-24.7677 2509.53,-30.5588"/>
</g>
<!-- UnicodeScalar -->
<g id="node51" class="node">
<g id="a_node51"><a xlink:href="/v1.2/type/UnicodeScalar/hierarchy/" target="_top">
<polygon fill="#999999" stroke="#999999" points="730.031,-22 641.969,-22 641.969,-0 730.031,-0 730.031,-22"/>
<text text-anchor="middle" x="686" y="-7.4" font-family="Helvetica,sans-Serif" font-size="12.00" fill="white">UnicodeScalar</text>
</a>
</g>
</g>
<!-- Comparable&#45;&gt;UnicodeScalar -->
<g id="edge18" class="edge">
<path fill="none" stroke="#cccccc" d="M1217.39,-358.033C1165.15,-356.63 1068.93,-348.713 997,-312 856.457,-240.269 736.919,-83.8952 698.742,-30.3866"/>
<polygon fill="#cccccc" stroke="#cccccc" points="701.57,-28.3228 692.945,-22.1691 695.85,-32.358 701.57,-28.3228"/>
</g>
<!-- _SignedNumberType -->
<g id="node62" class="node">
<g id="a_node62"><a xlink:href="/v1.2/protocol/_SignedNumberType/hierarchy/" target="_top">
<path fill="#999999" stroke="#999999" d="M1120.72,-312C1120.72,-312 1013.28,-312 1013.28,-312 1009.61,-312 1005.94,-308.333 1005.94,-304.667 1005.94,-304.667 1005.94,-297.333 1005.94,-297.333 1005.94,-293.667 1009.61,-290 1013.28,-290 1013.28,-290 1120.72,-290 1120.72,-290 1124.39,-290 1128.06,-293.667 1128.06,-297.333 1128.06,-297.333 1128.06,-304.667 1128.06,-304.667 1128.06,-308.333 1124.39,-312 1120.72,-312"/>
<text text-anchor="middle" x="1067" y="-297.4" font-family="Helvetica,sans-Serif" font-size="12.00" fill="white">_SignedNumberType</text>
</a>
</g>
</g>
<!-- Comparable&#45;&gt;_SignedNumberType -->
<g id="edge19" class="edge">
<path fill="none" stroke="#cccccc" d="M1221.39,-347.988C1190.34,-338.74 1144.05,-324.95 1110.25,-314.884"/>
<polygon fill="#cccccc" stroke="#cccccc" points="1111.22,-311.52 1100.64,-312.019 1109.22,-318.228 1111.22,-311.52"/>
</g>
<!-- Equatable -->
<g id="node13" class="node">
<g id="a_node13"><a xlink:href="/v1.2/protocol/Equatable/" target="_top">
<path fill="#ee543d" stroke="#ee543d" d="M3662.7,-486C3662.7,-486 3613.3,-486 3613.3,-486 3609.63,-486 3605.96,-482.333 3605.96,-478.667 3605.96,-478.667 3605.96,-471.333 3605.96,-471.333 3605.96,-467.667 3609.63,-464 3613.3,-464 3613.3,-464 3662.7,-464 3662.7,-464 3666.37,-464 3670.04,-467.667 3670.04,-471.333 3670.04,-471.333 3670.04,-478.667 3670.04,-478.667 3670.04,-482.333 3666.37,-486 3662.7,-486"/>
<text text-anchor="middle" x="3638" y="-471.4" font-family="Helvetica,sans-Serif" font-size="12.00" fill="white">Equatable</text>
</a>
</g>
</g>
<!-- Equatable&#45;&gt;AutoreleasingUnsafeMutablePointer -->
<g id="edge1" class="edge">
<path fill="none" stroke="#cccccc" d="M3605.53,-472.507C3542.13,-467.665 3408,-447.127 3408,-360 3408,-360 3408,-360 3408,-126 3408,-93.1536 3408,-54.9837 3408,-32.197"/>
<polygon fill="#cccccc" stroke="#cccccc" points="3411.5,-32.0648 3408,-22.0648 3404.5,-32.0648 3411.5,-32.0648"/>
</g>
<!-- Equatable&#45;&gt;ClosedInterval -->
<g id="edge2" class="edge">
<path fill="none" stroke="#cccccc" d="M3626.77,-463.906C3607.46,-445.373 3570,-403.786 3570,-360 3570,-360 3570,-360 3570,-126 3570,-93.1536 3570,-54.9837 3570,-32.197"/>
<polygon fill="#cccccc" stroke="#cccccc" points="3573.5,-32.0648 3570,-22.0648 3566.5,-32.0648 3573.5,-32.0648"/>
</g>
<!-- Equatable&#45;&gt;Comparable -->
<g id="edge3" class="edge">
<path fill="none" stroke="#cccccc" d="M3605.78,-473.526C3401.02,-470.312 2260.05,-449.38 1334,-370 1323.88,-369.132 1313.05,-367.938 1302.77,-366.677"/>
<polygon fill="#cccccc" stroke="#cccccc" points="1303.07,-363.187 1292.71,-365.403 1302.19,-370.132 1303.07,-363.187"/>
</g>
<!-- FloatingPointClassification -->
<g id="node17" class="node">
<g id="a_node17"><a xlink:href="/v1.2/type/FloatingPointClassification/hierarchy/" target="_top">
<polygon fill="#999999" stroke="#999999" points="3782.05,-22 3631.95,-22 3631.95,-0 3782.05,-0 3782.05,-22"/>
<text text-anchor="middle" x="3707" y="-7.4" font-family="Helvetica,sans-Serif" font-size="12.00" fill="white">FloatingPointClassification</text>
</a>
</g>
</g>
<!-- Equatable&#45;&gt;FloatingPointClassification -->
<g id="edge4" class="edge">
<path fill="none" stroke="#cccccc" d="M3649.39,-463.94C3668.99,-445.461 3707,-403.956 3707,-360 3707,-360 3707,-360 3707,-126 3707,-93.1536 3707,-54.9837 3707,-32.197"/>
<polygon fill="#cccccc" stroke="#cccccc" points="3710.5,-32.0648 3707,-22.0648 3703.5,-32.0648 3710.5,-32.0648"/>
</g>
<!-- HalfOpenInterval -->
<g id="node20" class="node">
<g id="a_node20"><a xlink:href="/v1.2/type/HalfOpenInterval/hierarchy/" target="_top">
<polygon fill="#999999" stroke="#999999" points="3900.04,-22 3799.96,-22 3799.96,-0 3900.04,-0 3900.04,-22"/>
<text text-anchor="middle" x="3850" y="-7.4" font-family="Helvetica,sans-Serif" font-size="12.00" fill="white">HalfOpenInterval</text>
</a>
</g>
</g>
<!-- Equatable&#45;&gt;HalfOpenInterval -->
<g id="edge5" class="edge">
<path fill="none" stroke="#cccccc" d="M3670.2,-471.34C3729.5,-464.491 3850,-440.654 3850,-360 3850,-360 3850,-360 3850,-126 3850,-93.1536 3850,-54.9837 3850,-32.197"/>
<polygon fill="#cccccc" stroke="#cccccc" points="3853.5,-32.0648 3850,-22.0648 3846.5,-32.0648 3853.5,-32.0648"/>
</g>
<!-- Hashable -->
<g id="node21" class="node">
<g id="a_node21"><a xlink:href="/v1.2/protocol/Hashable/hierarchy/" target="_top">
<path fill="#999999" stroke="#999999" d="M594.694,-254C594.694,-254 549.306,-254 549.306,-254 545.639,-254 541.973,-250.333 541.973,-246.667 541.973,-246.667 541.973,-239.333 541.973,-239.333 541.973,-235.667 545.639,-232 549.306,-232 549.306,-232 594.694,-232 594.694,-232 598.361,-232 602.027,-235.667 602.027,-239.333 602.027,-239.333 602.027,-246.667 602.027,-246.667 602.027,-250.333 598.361,-254 594.694,-254"/>
<text text-anchor="middle" x="572" y="-239.4" font-family="Helvetica,sans-Serif" font-size="12.00" fill="white">Hashable</text>
</a>
</g>
</g>
<!-- Equatable&#45;&gt;Hashable -->
<g id="edge6" class="edge">
<path fill="none" stroke="#cccccc" d="M3605.93,-473.983C3428.61,-473.723 2550.2,-470.262 1834,-428 1555.07,-411.541 1485.9,-399.053 1208,-370 986.378,-346.831 923.722,-375.054 710,-312 668.064,-299.628 623.333,-275.274 596.528,-259.32"/>
<polygon fill="#cccccc" stroke="#cccccc" points="598.197,-256.239 587.828,-254.061 594.575,-262.229 598.197,-256.239"/>
</g>
<!-- ManagedBufferPointer -->
<g id="node29" class="node">
<g id="a_node29"><a xlink:href="/v1.2/type/ManagedBufferPointer/hierarchy/" target="_top">
<polygon fill="#999999" stroke="#999999" points="4047.4,-22 3918.6,-22 3918.6,-0 4047.4,-0 4047.4,-22"/>
<text text-anchor="middle" x="3983" y="-7.4" font-family="Helvetica,sans-Serif" font-size="12.00" fill="white">ManagedBufferPointer</text>
</a>
</g>
</g>
<!-- Equatable&#45;&gt;ManagedBufferPointer -->
<g id="edge7" class="edge">
<path fill="none" stroke="#cccccc" d="M3670.15,-470.361C3755.79,-459.777 3983,-425.525 3983,-360 3983,-360 3983,-360 3983,-126 3983,-93.1536 3983,-54.9837 3983,-32.197"/>
<polygon fill="#cccccc" stroke="#cccccc" points="3986.5,-32.0648 3983,-22.0648 3979.5,-32.0648 3986.5,-32.0648"/>
</g>
<!-- Range -->
<g id="node32" class="node">
<g id="a_node32"><a xlink:href="/v1.2/type/Range/hierarchy/" target="_top">
<polygon fill="#999999" stroke="#999999" points="4120,-22 4066,-22 4066,-0 4120,-0 4120,-22"/>
<text text-anchor="middle" x="4093" y="-7.4" font-family="Helvetica,sans-Serif" font-size="12.00" fill="white">Range</text>
</a>
</g>
</g>
<!-- Equatable&#45;&gt;Range -->
<g id="edge8" class="edge">
<path fill="none" stroke="#cccccc" d="M3670.18,-472.182C3768.3,-465.771 4057,-440.099 4057,-360 4057,-360 4057,-360 4057,-126 4057,-91.2628 4072.39,-53.2199 4083.04,-31.0413"/>
<polygon fill="#cccccc" stroke="#cccccc" points="4086.2,-32.5473 4087.53,-22.0363 4079.94,-29.4236 4086.2,-32.5473"/>
</g>
<!-- _Incrementable -->
<g id="node57" class="node">
<g id="a_node57"><a xlink:href="/v1.2/protocol/_Incrementable/hierarchy/" target="_top">
<path fill="#999999" stroke="#999999" d="M2775.71,-428C2775.71,-428 2698.29,-428 2698.29,-428 2694.63,-428 2690.96,-424.333 2690.96,-420.667 2690.96,-420.667 2690.96,-413.333 2690.96,-413.333 2690.96,-409.667 2694.63,-406 2698.29,-406 2698.29,-406 2775.71,-406 2775.71,-406 2779.37,-406 2783.04,-409.667 2783.04,-413.333 2783.04,-413.333 2783.04,-420.667 2783.04,-420.667 2783.04,-424.333 2779.37,-428 2775.71,-428"/>
<text text-anchor="middle" x="2737" y="-413.4" font-family="Helvetica,sans-Serif" font-size="12.00" fill="white">_Incrementable</text>
</a>
</g>
</g>
<!-- Equatable&#45;&gt;_Incrementable -->
<g id="edge9" class="edge">
<path fill="none" stroke="#cccccc" d="M3605.93,-472.007C3472.99,-463.744 2964.13,-432.117 2793.3,-421.499"/>
<polygon fill="#cccccc" stroke="#cccccc" points="2793.46,-418.002 2783.26,-420.875 2793.02,-424.989 2793.46,-418.002"/>
</g>
<!-- _RawOptionSetType -->
<g id="node60" class="node">
<g id="a_node60"><a xlink:href="/v1.2/protocol/_RawOptionSetType/hierarchy/" target="_top">
<path fill="#999999" stroke="#999999" d="M4197.72,-428C4197.72,-428 4092.28,-428 4092.28,-428 4088.62,-428 4084.95,-424.333 4084.95,-420.667 4084.95,-420.667 4084.95,-413.333 4084.95,-413.333 4084.95,-409.667 4088.62,-406 4092.28,-406 4092.28,-406 4197.72,-406 4197.72,-406 4201.38,-406 4205.05,-409.667 4205.05,-413.333 4205.05,-413.333 4205.05,-420.667 4205.05,-420.667 4205.05,-424.333 4201.38,-428 4197.72,-428"/>
<text text-anchor="middle" x="4145" y="-413.4" font-family="Helvetica,sans-Serif" font-size="12.00" fill="white">_RawOptionSetType</text>
</a>
</g>
</g>
<!-- Equatable&#45;&gt;_RawOptionSetType -->
<g id="edge10" class="edge">
<path fill="none" stroke="#cccccc" d="M3670.08,-470.907C3741.95,-463.911 3921.27,-446.066 4071,-428 4072.27,-427.847 4073.55,-427.691 4074.83,-427.533"/>
<polygon fill="#cccccc" stroke="#cccccc" points="4075.36,-430.995 4084.84,-426.275 4074.48,-424.049 4075.36,-430.995"/>
</g>
<!-- FilterCollectionViewIndex -->
<g id="node14" class="node">
<g id="a_node14"><a xlink:href="/v1.2/type/FilterCollectionViewIndex/hierarchy/" target="_top">
<polygon fill="#999999" stroke="#999999" points="3288.89,-22 3145.11,-22 3145.11,-0 3288.89,-0 3288.89,-22"/>
<text text-anchor="middle" x="3217" y="-7.4" font-family="Helvetica,sans-Serif" font-size="12.00" fill="white">FilterCollectionViewIndex</text>
</a>
</g>
</g>
<!-- FloatingPointType -->
<g id="node18" class="node">
<g id="a_node18"><a xlink:href="/v1.2/protocol/FloatingPointType/hierarchy/" target="_top">
<path fill="#999999" stroke="#999999" d="M926.715,-80C926.715,-80 835.285,-80 835.285,-80 831.618,-80 827.952,-76.3333 827.952,-72.6667 827.952,-72.6667 827.952,-65.3333 827.952,-65.3333 827.952,-61.6667 831.618,-58 835.285,-58 835.285,-58 926.715,-58 926.715,-58 930.382,-58 934.048,-61.6667 934.048,-65.3333 934.048,-65.3333 934.048,-72.6667 934.048,-72.6667 934.048,-76.3333 930.382,-80 926.715,-80"/>
<text text-anchor="middle" x="881" y="-65.4" font-family="Helvetica,sans-Serif" font-size="12.00" fill="white">FloatingPointType</text>
</a>
</g>
</g>
<!-- FloatingPointType&#45;&gt;Double -->
<g id="edge44" class="edge">
<path fill="none" stroke="#cccccc" d="M874.921,-57.9883C870.385,-50.5165 864.049,-40.0812 858.56,-31.0393"/>
<polygon fill="#cccccc" stroke="#cccccc" points="861.438,-29.0353 853.256,-22.3039 855.454,-32.6682 861.438,-29.0353"/>
</g>
<!-- FloatingPointType&#45;&gt;Float -->
<g id="edge45" class="edge">
<path fill="none" stroke="#cccccc" d="M862.049,-57.9883C845.646,-49.3223 821.696,-36.6696 803.068,-26.8283"/>
<polygon fill="#cccccc" stroke="#cccccc" points="804.621,-23.6904 794.144,-22.1138 801.351,-29.8798 804.621,-23.6904"/>
</g>
<!-- ForwardIndexType -->
<g id="node19" class="node">
<g id="a_node19"><a xlink:href="/v1.2/protocol/ForwardIndexType/hierarchy/" target="_top">
<path fill="#999999" stroke="#999999" d="M2979.21,-312C2979.21,-312 2884.79,-312 2884.79,-312 2881.13,-312 2877.46,-308.333 2877.46,-304.667 2877.46,-304.667 2877.46,-297.333 2877.46,-297.333 2877.46,-293.667 2881.13,-290 2884.79,-290 2884.79,-290 2979.21,-290 2979.21,-290 2982.87,-290 2986.54,-293.667 2986.54,-297.333 2986.54,-297.333 2986.54,-304.667 2986.54,-304.667 2986.54,-308.333 2982.87,-312 2979.21,-312"/>
<text text-anchor="middle" x="2932" y="-297.4" font-family="Helvetica,sans-Serif" font-size="12.00" fill="white">ForwardIndexType</text>
</a>
</g>
</g>
<!-- ForwardIndexType&#45;&gt;BidirectionalIndexType -->
<g id="edge77" class="edge">
<path fill="none" stroke="#cccccc" d="M2877.64,-292.389C2807.83,-282.616 2686.3,-265.602 2607.53,-254.575"/>
<polygon fill="#cccccc" stroke="#cccccc" points="2607.58,-251.047 2597.19,-253.127 2606.61,-257.98 2607.58,-251.047"/>
</g>
<!-- ForwardIndexType&#45;&gt;DictionaryIndex -->
<g id="edge78" class="edge">
<path fill="none" stroke="#cccccc" d="M2929.22,-289.75C2917.85,-247.758 2874.7,-88.4375 2859.41,-31.9816"/>
<polygon fill="#cccccc" stroke="#cccccc" points="2862.74,-30.8645 2856.74,-22.1273 2855.98,-32.6945 2862.74,-30.8645"/>
</g>
<!-- ForwardIndexType&#45;&gt;FilterCollectionViewIndex -->
<g id="edge79" class="edge">
<path fill="none" stroke="#cccccc" d="M2985.61,-289.932C3068.16,-272.877 3217,-235.294 3217,-186 3217,-186 3217,-186 3217,-126 3217,-93.1536 3217,-54.9837 3217,-32.197"/>
<polygon fill="#cccccc" stroke="#cccccc" points="3220.5,-32.0648 3217,-22.0648 3213.5,-32.0648 3220.5,-32.0648"/>
</g>
<!-- ForwardIndexType&#45;&gt;SetIndex -->
<g id="edge80" class="edge">
<path fill="none" stroke="#cccccc" d="M2933.48,-289.961C2936.26,-270.137 2942,-224.543 2942,-186 2942,-186 2942,-186 2942,-126 2942,-93.122 2944.1,-54.9615 2945.58,-32.1853"/>
<polygon fill="#cccccc" stroke="#cccccc" points="2949.08,-32.2711 2946.26,-22.0583 2942.1,-31.8002 2949.08,-32.2711"/>
</g>
<!-- String.UTF8View.Index -->
<g id="node44" class="node">
<g id="a_node44"><a xlink:href="/v1.2/type/String.UTF8View.Index/hierarchy/" target="_top">
<polygon fill="#999999" stroke="#999999" points="3125.89,-22 2994.11,-22 2994.11,-0 3125.89,-0 3125.89,-22"/>
<text text-anchor="middle" x="3060" y="-7.4" font-family="Helvetica,sans-Serif" font-size="12.00" fill="white">String.UTF8View.Index</text>
</a>
</g>
</g>
<!-- ForwardIndexType&#45;&gt;String.UTF8View.Index -->
<g id="edge81" class="edge">
<path fill="none" stroke="#cccccc" d="M2959.15,-289.986C2996.72,-274.164 3060,-239.564 3060,-186 3060,-186 3060,-186 3060,-126 3060,-93.1536 3060,-54.9837 3060,-32.197"/>
<polygon fill="#cccccc" stroke="#cccccc" points="3063.5,-32.0648 3060,-22.0648 3056.5,-32.0648 3063.5,-32.0648"/>
</g>
<!-- Hashable&#45;&gt;Bool -->
<g id="edge59" class="edge">
<path fill="none" stroke="#cccccc" d="M541.825,-232.767C522.492,-225.499 498.098,-213.618 482,-196 437.589,-147.395 418.237,-68.7416 411.286,-32.047"/>
<polygon fill="#cccccc" stroke="#cccccc" points="414.711,-31.3178 409.513,-22.0859 407.82,-32.5445 414.711,-31.3178"/>
</g>
<!-- Hashable&#45;&gt;CFunctionPointer -->
<g id="edge60" class="edge">
<path fill="none" stroke="#cccccc" d="M541.903,-232.15C519.12,-224.055 487.504,-211.429 462,-196 378.38,-145.411 293.185,-64.9673 257.452,-29.6285"/>
<polygon fill="#cccccc" stroke="#cccccc" points="259.769,-26.9966 250.215,-22.4169 254.828,-31.9549 259.769,-26.9966"/>
</g>
<!-- Hashable&#45;&gt;COpaquePointer -->
<g id="edge61" class="edge">
<path fill="none" stroke="#cccccc" d="M541.958,-237.288C503.859,-230.738 436.558,-217.234 382,-196 258.934,-148.102 124.983,-62.7897 72.2124,-27.7187"/>
<polygon fill="#cccccc" stroke="#cccccc" points="74.1455,-24.8009 63.8868,-22.1534 70.2554,-30.6205 74.1455,-24.8009"/>
</g>
<!-- Hashable&#45;&gt;Character -->
<g id="edge62" class="edge">
<path fill="none" stroke="#cccccc" d="M572.929,-231.82C576.141,-196.642 586.812,-79.7709 591.146,-32.3033"/>
<polygon fill="#cccccc" stroke="#cccccc" points="594.657,-32.3389 592.081,-22.062 587.686,-31.7023 594.657,-32.3389"/>
</g>
<!-- Hashable&#45;&gt;Double -->
<g id="edge63" class="edge">
<path fill="none" stroke="#cccccc" d="M587.819,-231.928C601.646,-222.941 622.096,-209.199 639,-196 712.526,-138.588 793.729,-62.8506 829.002,-29.286"/>
<polygon fill="#cccccc" stroke="#cccccc" points="831.757,-31.495 836.572,-22.0578 826.923,-26.4322 831.757,-31.495"/>
</g>
<!-- Hashable&#45;&gt;Float -->
<g id="edge64" class="edge">
<path fill="none" stroke="#cccccc" d="M581.67,-231.866C590.456,-222.61 603.726,-208.503 615,-196 669.126,-135.969 731.519,-63.1288 759.737,-29.9813"/>
<polygon fill="#cccccc" stroke="#cccccc" points="762.642,-31.9688 766.453,-22.0833 757.309,-27.4342 762.642,-31.9688"/>
</g>
<!-- Hashable&#45;&gt;Float80 -->
<g id="edge65" class="edge">
<path fill="none" stroke="#cccccc" d="M602.096,-239.728C693.756,-232.124 966.418,-204.22 1019,-138 1037.29,-114.97 1005.05,-72.8191 992,-58 980.629,-45.0901 964.769,-34.5057 950.736,-26.7585"/>
<polygon fill="#cccccc" stroke="#cccccc" points="952.324,-23.6388 941.844,-22.0812 949.065,-29.8341 952.324,-23.6388"/>
</g>
<!-- Hashable&#45;&gt;ObjectIdentifier -->
<g id="edge66" class="edge">
<path fill="none" stroke="#cccccc" d="M568.725,-231.82C557.359,-196.494 519.486,-78.7811 504.34,-31.7049"/>
<polygon fill="#cccccc" stroke="#cccccc" points="507.632,-30.5095 501.237,-22.062 500.968,-32.6535 507.632,-30.5095"/>
</g>
<!-- Set -->
<g id="node36" class="node">
<g id="a_node36"><a xlink:href="/v1.2/type/Set/hierarchy/" target="_top">
<polygon fill="#999999" stroke="#999999" points="171,-22 117,-22 117,-0 171,-0 171,-22"/>
<text text-anchor="middle" x="144" y="-7.4" font-family="Helvetica,sans-Serif" font-size="12.00" fill="white">Set</text>
</a>
</g>
</g>
<!-- Hashable&#45;&gt;Set -->
<g id="edge67" class="edge">
<path fill="none" stroke="#cccccc" d="M541.739,-235.043C511.565,-227.516 464.32,-214.119 426,-196 321.459,-146.571 210.102,-63.6684 164.881,-28.5356"/>
<polygon fill="#cccccc" stroke="#cccccc" points="166.774,-25.5727 156.741,-22.1701 162.462,-31.0871 166.774,-25.5727"/>
</g>
<!-- Hashable&#45;&gt;String -->
<g id="edge68" class="edge">
<path fill="none" stroke="#cccccc" d="M563.338,-231.907C538.567,-203.284 464.793,-119.67 396,-58 384.162,-47.3877 370.094,-36.5199 358.557,-28.014"/>
<polygon fill="#cccccc" stroke="#cccccc" points="360.452,-25.0647 350.306,-22.0134 356.335,-30.7258 360.452,-25.0647"/>
</g>
<!-- Hashable&#45;&gt;UnicodeScalar -->
<g id="edge69" class="edge">
<path fill="none" stroke="#cccccc" d="M577.046,-231.82C594.629,-196.345 653.392,-77.7884 676.526,-31.114"/>
<polygon fill="#cccccc" stroke="#cccccc" points="679.708,-32.5762 681.013,-22.062 673.436,-29.4675 679.708,-32.5762"/>
</g>
<!-- UnsafeMutablePointer -->
<g id="node52" class="node">
<g id="a_node52"><a xlink:href="/v1.2/type/UnsafeMutablePointer/hierarchy/" target="_top">
<polygon fill="#999999" stroke="#999999" points="1812.05,-22 1683.95,-22 1683.95,-0 1812.05,-0 1812.05,-22"/>
<text text-anchor="middle" x="1748" y="-7.4" font-family="Helvetica,sans-Serif" font-size="12.00" fill="white">UnsafeMutablePointer</text>
</a>
</g>
</g>
<!-- Hashable&#45;&gt;UnsafeMutablePointer -->
<g id="edge70" class="edge">
<path fill="none" stroke="#cccccc" d="M602.243,-241.623C731.87,-239.807 1241.02,-230.571 1397,-196 1533.52,-165.742 1674.51,-67.5534 1726.82,-28.3679"/>
<polygon fill="#cccccc" stroke="#cccccc" points="1729.13,-31.0098 1734.99,-22.1841 1724.9,-25.4282 1729.13,-31.0098"/>
</g>
<!-- UnsafePointer -->
<g id="node53" class="node">
<g id="a_node53"><a xlink:href="/v1.2/type/UnsafePointer/hierarchy/" target="_top">
<polygon fill="#999999" stroke="#999999" points="1916.03,-22 1829.97,-22 1829.97,-0 1916.03,-0 1916.03,-22"/>
<text text-anchor="middle" x="1873" y="-7.4" font-family="Helvetica,sans-Serif" font-size="12.00" fill="white">UnsafePointer</text>
</a>
</g>
</g>
<!-- Hashable&#45;&gt;UnsafePointer -->
<g id="edge71" class="edge">
<path fill="none" stroke="#cccccc" d="M602.223,-241.781C736.565,-240.598 1280.21,-233.54 1446,-196 1511.69,-181.127 1524.05,-164.427 1586,-138 1679.06,-98.2999 1788.33,-49.8038 1841.18,-26.2295"/>
<polygon fill="#cccccc" stroke="#cccccc" points="1842.67,-29.3975 1850.37,-22.1254 1839.82,-23.0054 1842.67,-29.3975"/>
</g>
<!-- _IntegerType -->
<g id="node58" class="node">
<g id="a_node58"><a xlink:href="/v1.2/protocol/_IntegerType/hierarchy/" target="_top">
<path fill="#999999" stroke="#999999" d="M1380.71,-196C1380.71,-196 1315.29,-196 1315.29,-196 1311.63,-196 1307.96,-192.333 1307.96,-188.667 1307.96,-188.667 1307.96,-181.333 1307.96,-181.333 1307.96,-177.667 1311.63,-174 1315.29,-174 1315.29,-174 1380.71,-174 1380.71,-174 1384.37,-174 1388.04,-177.667 1388.04,-181.333 1388.04,-181.333 1388.04,-188.667 1388.04,-188.667 1388.04,-192.333 1384.37,-196 1380.71,-196"/>
<text text-anchor="middle" x="1348" y="-181.4" font-family="Helvetica,sans-Serif" font-size="12.00" fill="white">_IntegerType</text>
</a>
</g>
</g>
<!-- Hashable&#45;&gt;_IntegerType -->
<g id="edge72" class="edge">
<path fill="none" stroke="#cccccc" d="M602.42,-239.805C720.637,-231.274 1150.24,-200.271 1297.82,-189.621"/>
<polygon fill="#cccccc" stroke="#cccccc" points="1298.22,-193.101 1307.95,-188.89 1297.72,-186.119 1298.22,-193.101"/>
</g>
<!-- Int -->
<g id="node22" class="node">
<g id="a_node22"><a xlink:href="/v1.2/type/Int/hierarchy/" target="_top">
<polygon fill="#999999" stroke="#999999" points="1090,-22 1036,-22 1036,-0 1090,-0 1090,-22"/>
<text text-anchor="middle" x="1063" y="-7.4" font-family="Helvetica,sans-Serif" font-size="12.00" fill="white">Int</text>
</a>
</g>
</g>
<!-- Int16 -->
<g id="node23" class="node">
<g id="a_node23"><a xlink:href="/v1.2/type/Int16/hierarchy/" target="_top">
<polygon fill="#999999" stroke="#999999" points="1162,-22 1108,-22 1108,-0 1162,-0 1162,-22"/>
<text text-anchor="middle" x="1135" y="-7.4" font-family="Helvetica,sans-Serif" font-size="12.00" fill="white">Int16</text>
</a>
</g>
</g>
<!-- Int32 -->
<g id="node24" class="node">
<g id="a_node24"><a xlink:href="/v1.2/type/Int32/hierarchy/" target="_top">
<polygon fill="#999999" stroke="#999999" points="1234,-22 1180,-22 1180,-0 1234,-0 1234,-22"/>
<text text-anchor="middle" x="1207" y="-7.4" font-family="Helvetica,sans-Serif" font-size="12.00" fill="white">Int32</text>
</a>
</g>
</g>
<!-- Int64 -->
<g id="node25" class="node">
<g id="a_node25"><a xlink:href="/v1.2/type/Int64/hierarchy/" target="_top">
<polygon fill="#999999" stroke="#999999" points="1306,-22 1252,-22 1252,-0 1306,-0 1306,-22"/>
<text text-anchor="middle" x="1279" y="-7.4" font-family="Helvetica,sans-Serif" font-size="12.00" fill="white">Int64</text>
</a>
</g>
</g>
<!-- Int8 -->
<g id="node26" class="node">
<g id="a_node26"><a xlink:href="/v1.2/type/Int8/hierarchy/" target="_top">
<polygon fill="#999999" stroke="#999999" points="1018,-22 964,-22 964,-0 1018,-0 1018,-22"/>
<text text-anchor="middle" x="991" y="-7.4" font-family="Helvetica,sans-Serif" font-size="12.00" fill="white">Int8</text>
</a>
</g>
</g>
<!-- IntegerArithmeticType&#45;&gt;Bit -->
<g id="edge22" class="edge">
<path fill="none" stroke="#cccccc" d="M1502.09,-239.557C1592.62,-235.134 1754.11,-223.56 1805,-196 1877.01,-157.008 1930.02,-70.2404 1951.05,-31.4238"/>
<polygon fill="#cccccc" stroke="#cccccc" points="1954.33,-32.7105 1955.91,-22.2346 1948.14,-29.4368 1954.33,-32.7105"/>
</g>
<!-- IntegerArithmeticType&#45;&gt;_IntegerType -->
<g id="edge23" class="edge">
<path fill="none" stroke="#cccccc" d="M1422.73,-231.988C1408.97,-223.52 1389.02,-211.245 1373.2,-201.507"/>
<polygon fill="#cccccc" stroke="#cccccc" points="1374.79,-198.374 1364.43,-196.114 1371.12,-204.336 1374.79,-198.374"/>
</g>
<!-- IntegerType -->
<g id="node28" class="node">
<g id="a_node28"><a xlink:href="/v1.2/protocol/IntegerType/hierarchy/" target="_top">
<path fill="#999999" stroke="#999999" d="M1377.2,-138C1377.2,-138 1318.8,-138 1318.8,-138 1315.13,-138 1311.47,-134.333 1311.47,-130.667 1311.47,-130.667 1311.47,-123.333 1311.47,-123.333 1311.47,-119.667 1315.13,-116 1318.8,-116 1318.8,-116 1377.2,-116 1377.2,-116 1380.87,-116 1384.53,-119.667 1384.53,-123.333 1384.53,-123.333 1384.53,-130.667 1384.53,-130.667 1384.53,-134.333 1380.87,-138 1377.2,-138"/>
<text text-anchor="middle" x="1348" y="-123.4" font-family="Helvetica,sans-Serif" font-size="12.00" fill="white">IntegerType</text>
</a>
</g>
</g>
<!-- SignedIntegerType -->
<g id="node38" class="node">
<g id="a_node38"><a xlink:href="/v1.2/protocol/SignedIntegerType/hierarchy/" target="_top">
<path fill="#999999" stroke="#999999" d="M1254.73,-80C1254.73,-80 1159.27,-80 1159.27,-80 1155.61,-80 1151.94,-76.3333 1151.94,-72.6667 1151.94,-72.6667 1151.94,-65.3333 1151.94,-65.3333 1151.94,-61.6667 1155.61,-58 1159.27,-58 1159.27,-58 1254.73,-58 1254.73,-58 1258.39,-58 1262.06,-61.6667 1262.06,-65.3333 1262.06,-65.3333 1262.06,-72.6667 1262.06,-72.6667 1262.06,-76.3333 1258.39,-80 1254.73,-80"/>
<text text-anchor="middle" x="1207" y="-65.4" font-family="Helvetica,sans-Serif" font-size="12.00" fill="white">SignedIntegerType</text>
</a>
</g>
</g>
<!-- IntegerType&#45;&gt;SignedIntegerType -->
<g id="edge27" class="edge">
<path fill="none" stroke="#cccccc" d="M1322.79,-115.988C1300.27,-107.045 1267.07,-93.8566 1241.98,-83.8935"/>
<polygon fill="#cccccc" stroke="#cccccc" points="1243.05,-80.5522 1232.47,-80.1138 1240.47,-87.0579 1243.05,-80.5522"/>
</g>
<!-- UnsignedIntegerType -->
<g id="node54" class="node">
<g id="a_node54"><a xlink:href="/v1.2/protocol/UnsignedIntegerType/hierarchy/" target="_top">
<path fill="#999999" stroke="#999999" d="M1522.73,-80C1522.73,-80 1413.27,-80 1413.27,-80 1409.61,-80 1405.94,-76.3333 1405.94,-72.6667 1405.94,-72.6667 1405.94,-65.3333 1405.94,-65.3333 1405.94,-61.6667 1409.61,-58 1413.27,-58 1413.27,-58 1522.73,-58 1522.73,-58 1526.39,-58 1530.06,-61.6667 1530.06,-65.3333 1530.06,-65.3333 1530.06,-72.6667 1530.06,-72.6667 1530.06,-76.3333 1526.39,-80 1522.73,-80"/>
<text text-anchor="middle" x="1468" y="-65.4" font-family="Helvetica,sans-Serif" font-size="12.00" fill="white">UnsignedIntegerType</text>
</a>
</g>
</g>
<!-- IntegerType&#45;&gt;UnsignedIntegerType -->
<g id="edge28" class="edge">
<path fill="none" stroke="#cccccc" d="M1369.45,-115.988C1388.28,-107.204 1415.88,-94.3222 1437.09,-84.4255"/>
<polygon fill="#cccccc" stroke="#cccccc" points="1438.75,-87.5144 1446.33,-80.1138 1435.79,-81.1711 1438.75,-87.5144"/>
</g>
<!-- RandomAccessIndexType&#45;&gt;Bit -->
<g id="edge47" class="edge">
<path fill="none" stroke="#cccccc" d="M1961,-173.756C1961,-146.097 1961,-69.5091 1961,-32.5186"/>
<polygon fill="#cccccc" stroke="#cccccc" points="1964.5,-32.408 1961,-22.4081 1957.5,-32.4081 1964.5,-32.408"/>
</g>
<!-- RandomAccessIndexType&#45;&gt;IntegerType -->
<g id="edge48" class="edge">
<path fill="none" stroke="#cccccc" d="M1886.34,-181.112C1779.53,-176.276 1576.84,-164.491 1394.61,-137.895"/>
<polygon fill="#cccccc" stroke="#cccccc" points="1394.98,-134.411 1384.58,-136.411 1393.96,-141.336 1394.98,-134.411"/>
</g>
<!-- ReverseRandomAccessIndex -->
<g id="node35" class="node">
<g id="a_node35"><a xlink:href="/v1.2/type/ReverseRandomAccessIndex/hierarchy/" target="_top">
<polygon fill="#999999" stroke="#999999" points="2174.06,-22 2005.94,-22 2005.94,-0 2174.06,-0 2174.06,-22"/>
<text text-anchor="middle" x="2090" y="-7.4" font-family="Helvetica,sans-Serif" font-size="12.00" fill="white">ReverseRandomAccessIndex</text>
</a>
</g>
</g>
<!-- RandomAccessIndexType&#45;&gt;ReverseRandomAccessIndex -->
<g id="edge49" class="edge">
<path fill="none" stroke="#cccccc" d="M1968.68,-173.756C1989.78,-145.621 2048.86,-66.8536 2076.02,-30.6411"/>
<polygon fill="#cccccc" stroke="#cccccc" points="2078.99,-32.5081 2082.19,-22.4081 2073.39,-28.3081 2078.99,-32.5081"/>
</g>
<!-- String.UTF16View.Index -->
<g id="node43" class="node">
<g id="a_node43"><a xlink:href="/v1.2/type/String.UTF16View.Index/hierarchy/" target="_top">
<polygon fill="#999999" stroke="#999999" points="2331.39,-22 2192.61,-22 2192.61,-0 2331.39,-0 2331.39,-22"/>
<text text-anchor="middle" x="2262" y="-7.4" font-family="Helvetica,sans-Serif" font-size="12.00" fill="white">String.UTF16View.Index</text>
</a>
</g>
</g>
<!-- RandomAccessIndexType&#45;&gt;String.UTF16View.Index -->
<g id="edge52" class="edge">
<path fill="none" stroke="#cccccc" d="M1978.93,-173.756C2029.74,-144.717 2174.95,-61.7444 2235.25,-27.2883"/>
<polygon fill="#cccccc" stroke="#cccccc" points="2237.22,-30.1909 2244.17,-22.1906 2233.75,-24.1132 2237.22,-30.1909"/>
</g>
<!-- RandomAccessIndexType&#45;&gt;UnsafeMutablePointer -->
<g id="edge50" class="edge">
<path fill="none" stroke="#cccccc" d="M1948.31,-173.756C1912.8,-145.076 1812.13,-63.7849 1768.54,-28.5865"/>
<polygon fill="#cccccc" stroke="#cccccc" points="1770.6,-25.7501 1760.62,-22.1906 1766.2,-31.1962 1770.6,-25.7501"/>
</g>
<!-- RandomAccessIndexType&#45;&gt;UnsafePointer -->
<g id="edge51" class="edge">
<path fill="none" stroke="#cccccc" d="M1955.76,-173.756C1941.49,-145.859 1901.75,-68.185 1883.01,-31.5708"/>
<polygon fill="#cccccc" stroke="#cccccc" points="1886,-29.7164 1878.33,-22.4081 1879.76,-32.9048 1886,-29.7164"/>
</g>
<!-- RawOptionSetType -->
<g id="node33" class="node">
<g id="a_node33"><a xlink:href="/v1.2/protocol/RawOptionSetType/hierarchy/" target="_top">
<path fill="#999999" stroke="#999999" d="M4194.21,-370C4194.21,-370 4095.79,-370 4095.79,-370 4092.12,-370 4088.45,-366.333 4088.45,-362.667 4088.45,-362.667 4088.45,-355.333 4088.45,-355.333 4088.45,-351.667 4092.12,-348 4095.79,-348 4095.79,-348 4194.21,-348 4194.21,-348 4197.88,-348 4201.55,-351.667 4201.55,-355.333 4201.55,-355.333 4201.55,-362.667 4201.55,-362.667 4201.55,-366.333 4197.88,-370 4194.21,-370"/>
<text text-anchor="middle" x="4145" y="-355.4" font-family="Helvetica,sans-Serif" font-size="12.00" fill="white">RawOptionSetType</text>
</a>
</g>
</g>
<!-- SignedIntegerType&#45;&gt;Int -->
<g id="edge29" class="edge">
<path fill="none" stroke="#cccccc" d="M1181.26,-57.9883C1158.16,-49.0057 1124.05,-35.7398 1098.39,-25.7614"/>
<polygon fill="#cccccc" stroke="#cccccc" points="1099.6,-22.4763 1089.01,-22.1138 1097.06,-29.0004 1099.6,-22.4763"/>
</g>
<!-- SignedIntegerType&#45;&gt;Int16 -->
<g id="edge30" class="edge">
<path fill="none" stroke="#cccccc" d="M1194.13,-57.9883C1183.61,-49.8087 1168.53,-38.0773 1156.23,-28.5108"/>
<polygon fill="#cccccc" stroke="#cccccc" points="1158.29,-25.6806 1148.25,-22.3039 1153.99,-31.2061 1158.29,-25.6806"/>
</g>
<!-- SignedIntegerType&#45;&gt;Int32 -->
<g id="edge31" class="edge">
<path fill="none" stroke="#cccccc" d="M1207,-57.9883C1207,-50.9098 1207,-41.1714 1207,-32.4779"/>
<polygon fill="#cccccc" stroke="#cccccc" points="1210.5,-32.3038 1207,-22.3039 1203.5,-32.3039 1210.5,-32.3038"/>
</g>
<!-- SignedIntegerType&#45;&gt;Int64 -->
<g id="edge32" class="edge">
<path fill="none" stroke="#cccccc" d="M1219.87,-57.9883C1230.39,-49.8087 1245.47,-38.0773 1257.77,-28.5108"/>
<polygon fill="#cccccc" stroke="#cccccc" points="1260.01,-31.2061 1265.75,-22.3039 1255.71,-25.6806 1260.01,-31.2061"/>
</g>
<!-- SignedIntegerType&#45;&gt;Int8 -->
<g id="edge33" class="edge">
<path fill="none" stroke="#cccccc" d="M1166.55,-57.9168C1132.16,-49.2898 1081.24,-36.3793 1028.06,-22.2477"/>
<polygon fill="#cccccc" stroke="#cccccc" points="1028.67,-18.7885 1018.11,-19.5955 1026.87,-25.5525 1028.67,-18.7885"/>
</g>
<!-- SignedNumberType -->
<g id="node39" class="node">
<g id="a_node39"><a xlink:href="/v1.2/protocol/SignedNumberType/hierarchy/" target="_top">
<path fill="#999999" stroke="#999999" d="M1086.72,-196C1086.72,-196 985.284,-196 985.284,-196 981.617,-196 977.95,-192.333 977.95,-188.667 977.95,-188.667 977.95,-181.333 977.95,-181.333 977.95,-177.667 981.617,-174 985.284,-174 985.284,-174 1086.72,-174 1086.72,-174 1090.38,-174 1094.05,-177.667 1094.05,-181.333 1094.05,-181.333 1094.05,-188.667 1094.05,-188.667 1094.05,-192.333 1090.38,-196 1086.72,-196"/>
<text text-anchor="middle" x="1036" y="-181.4" font-family="Helvetica,sans-Serif" font-size="12.00" fill="white">SignedNumberType</text>
</a>
</g>
</g>
<!-- SignedNumberType&#45;&gt;AbsoluteValuable -->
<g id="edge54" class="edge">
<path fill="none" stroke="#cccccc" d="M1022.23,-173.988C1010.81,-165.678 994.341,-153.703 981.076,-144.055"/>
<polygon fill="#cccccc" stroke="#cccccc" points="983.052,-141.165 972.906,-138.114 978.935,-146.826 983.052,-141.165"/>
</g>
<!-- _SignedIntegerType -->
<g id="node61" class="node">
<g id="a_node61"><a xlink:href="/v1.2/protocol/_SignedIntegerType/hierarchy/" target="_top">
<path fill="#999999" stroke="#999999" d="M1260.23,-138C1260.23,-138 1157.77,-138 1157.77,-138 1154.1,-138 1150.44,-134.333 1150.44,-130.667 1150.44,-130.667 1150.44,-123.333 1150.44,-123.333 1150.44,-119.667 1154.1,-116 1157.77,-116 1157.77,-116 1260.23,-116 1260.23,-116 1263.9,-116 1267.56,-119.667 1267.56,-123.333 1267.56,-123.333 1267.56,-130.667 1267.56,-130.667 1267.56,-134.333 1263.9,-138 1260.23,-138"/>
<text text-anchor="middle" x="1209" y="-123.4" font-family="Helvetica,sans-Serif" font-size="12.00" fill="white">_SignedIntegerType</text>
</a>
</g>
</g>
<!-- SignedNumberType&#45;&gt;_SignedIntegerType -->
<g id="edge55" class="edge">
<path fill="none" stroke="#cccccc" d="M1066.93,-173.988C1095.26,-164.819 1137.37,-151.187 1168.4,-141.144"/>
<polygon fill="#cccccc" stroke="#cccccc" points="1169.61,-144.429 1178.05,-138.019 1167.46,-137.769 1169.61,-144.429"/>
</g>
<!-- Strideable&#45;&gt;Float80 -->
<g id="edge41" class="edge">
<path fill="none" stroke="#cccccc" d="M1208.37,-289.872C1177.28,-272.987 1122,-235.945 1122,-186 1122,-186 1122,-186 1122,-126 1122,-88.3635 1014.58,-45.1577 956.019,-24.4018"/>
<polygon fill="#cccccc" stroke="#cccccc" points="956.972,-21.0272 946.377,-21.0303 954.662,-27.6349 956.972,-21.0272"/>
</g>
<!-- Strideable&#45;&gt;FloatingPointType -->
<g id="edge42" class="edge">
<path fill="none" stroke="#cccccc" d="M1196.62,-290.803C1145.83,-275.57 1045.35,-242.142 969,-196 934.421,-175.102 920.763,-172.041 899,-138 889.865,-123.711 885.344,-104.914 883.119,-90.7043"/>
<polygon fill="#cccccc" stroke="#cccccc" points="886.548,-89.9291 881.783,-80.4661 879.607,-90.835 886.548,-89.9291"/>
</g>
<!-- _RandomAccessIndexType -->
<g id="node59" class="node">
<g id="a_node59"><a xlink:href="/v1.2/protocol/_RandomAccessIndexType/hierarchy/" target="_top">
<path fill="#999999" stroke="#999999" d="M2031.73,-254C2031.73,-254 1890.27,-254 1890.27,-254 1886.6,-254 1882.94,-250.333 1882.94,-246.667 1882.94,-246.667 1882.94,-239.333 1882.94,-239.333 1882.94,-235.667 1886.6,-232 1890.27,-232 1890.27,-232 2031.73,-232 2031.73,-232 2035.4,-232 2039.06,-235.667 2039.06,-239.333 2039.06,-239.333 2039.06,-246.667 2039.06,-246.667 2039.06,-250.333 2035.4,-254 2031.73,-254"/>
<text text-anchor="middle" x="1961" y="-239.4" font-family="Helvetica,sans-Serif" font-size="12.00" fill="white">_RandomAccessIndexType</text>
</a>
</g>
</g>
<!-- Strideable&#45;&gt;_RandomAccessIndexType -->
<g id="edge43" class="edge">
<path fill="none" stroke="#cccccc" d="M1261.4,-297.521C1367.91,-289.373 1709.72,-263.224 1872.81,-250.747"/>
<polygon fill="#cccccc" stroke="#cccccc" points="1873.11,-254.234 1882.81,-249.982 1872.57,-247.255 1873.11,-254.234"/>
</g>
<!-- UInt -->
<g id="node46" class="node">
<g id="a_node46"><a xlink:href="/v1.2/type/UInt/hierarchy/" target="_top">
<polygon fill="#999999" stroke="#999999" points="1522,-22 1468,-22 1468,-0 1522,-0 1522,-22"/>
<text text-anchor="middle" x="1495" y="-7.4" font-family="Helvetica,sans-Serif" font-size="12.00" fill="white">UInt</text>
</a>
</g>
</g>
<!-- UInt16 -->
<g id="node47" class="node">
<g id="a_node47"><a xlink:href="/v1.2/type/UInt16/hierarchy/" target="_top">
<polygon fill="#999999" stroke="#999999" points="1594,-22 1540,-22 1540,-0 1594,-0 1594,-22"/>
<text text-anchor="middle" x="1567" y="-7.4" font-family="Helvetica,sans-Serif" font-size="12.00" fill="white">UInt16</text>
</a>
</g>
</g>
<!-- UInt32 -->
<g id="node48" class="node">
<g id="a_node48"><a xlink:href="/v1.2/type/UInt32/hierarchy/" target="_top">
<polygon fill="#999999" stroke="#999999" points="1666,-22 1612,-22 1612,-0 1666,-0 1666,-22"/>
<text text-anchor="middle" x="1639" y="-7.4" font-family="Helvetica,sans-Serif" font-size="12.00" fill="white">UInt32</text>
</a>
</g>
</g>
<!-- UInt64 -->
<g id="node49" class="node">
<g id="a_node49"><a xlink:href="/v1.2/type/UInt64/hierarchy/" target="_top">
<polygon fill="#999999" stroke="#999999" points="1378,-22 1324,-22 1324,-0 1378,-0 1378,-22"/>
<text text-anchor="middle" x="1351" y="-7.4" font-family="Helvetica,sans-Serif" font-size="12.00" fill="white">UInt64</text>
</a>
</g>
</g>
<!-- UInt8 -->
<g id="node50" class="node">
<g id="a_node50"><a xlink:href="/v1.2/type/UInt8/hierarchy/" target="_top">
<polygon fill="#999999" stroke="#999999" points="1450,-22 1396,-22 1396,-0 1450,-0 1450,-22"/>
<text text-anchor="middle" x="1423" y="-7.4" font-family="Helvetica,sans-Serif" font-size="12.00" fill="white">UInt8</text>
</a>
</g>
</g>
<!-- UnsignedIntegerType&#45;&gt;UInt -->
<g id="edge34" class="edge">
<path fill="none" stroke="#cccccc" d="M1472.83,-57.9883C1476.39,-50.5952 1481.36,-40.3005 1485.68,-31.3253"/>
<polygon fill="#cccccc" stroke="#cccccc" points="1488.84,-32.8316 1490.03,-22.3039 1482.54,-29.7915 1488.84,-32.8316"/>
</g>
<!-- UnsignedIntegerType&#45;&gt;UInt16 -->
<g id="edge35" class="edge">
<path fill="none" stroke="#cccccc" d="M1485.7,-57.9883C1500.81,-49.441 1522.78,-37.0155 1540.07,-27.2343"/>
<polygon fill="#cccccc" stroke="#cccccc" points="1542.14,-30.0837 1549.12,-22.1138 1538.69,-23.9909 1542.14,-30.0837"/>
</g>
<!-- UnsignedIntegerType&#45;&gt;UInt32 -->
<g id="edge36" class="edge">
<path fill="none" stroke="#cccccc" d="M1498.57,-57.9883C1527.61,-48.4784 1571.31,-34.1675 1602.24,-24.0396"/>
<polygon fill="#cccccc" stroke="#cccccc" points="1603.38,-27.3481 1611.79,-20.9096 1601.2,-20.6957 1603.38,-27.3481"/>
</g>
<!-- UnsignedIntegerType&#45;&gt;UInt64 -->
<g id="edge37" class="edge">
<path fill="none" stroke="#cccccc" d="M1447.08,-57.9883C1428.81,-49.2431 1402.06,-36.4381 1381.42,-26.5594"/>
<polygon fill="#cccccc" stroke="#cccccc" points="1382.66,-23.2741 1372.13,-22.1138 1379.64,-29.5882 1382.66,-23.2741"/>
</g>
<!-- UnsignedIntegerType&#45;&gt;UInt8 -->
<g id="edge38" class="edge">
<path fill="none" stroke="#cccccc" d="M1459.95,-57.9883C1453.76,-50.2806 1445.03,-39.4191 1437.61,-30.187"/>
<polygon fill="#cccccc" stroke="#cccccc" points="1440.27,-27.9066 1431.28,-22.3039 1434.82,-32.2914 1440.27,-27.9066"/>
</g>
<!-- _BidirectionalIndexType -->
<g id="node55" class="node">
<g id="a_node55"><a xlink:href="/v1.2/protocol/_BidirectionalIndexType/hierarchy/" target="_top">
<path fill="#999999" stroke="#999999" d="M2593.23,-312C2593.23,-312 2470.77,-312 2470.77,-312 2467.1,-312 2463.44,-308.333 2463.44,-304.667 2463.44,-304.667 2463.44,-297.333 2463.44,-297.333 2463.44,-293.667 2467.1,-290 2470.77,-290 2470.77,-290 2593.23,-290 2593.23,-290 2596.9,-290 2600.56,-293.667 2600.56,-297.333 2600.56,-297.333 2600.56,-304.667 2600.56,-304.667 2600.56,-308.333 2596.9,-312 2593.23,-312"/>
<text text-anchor="middle" x="2532" y="-297.4" font-family="Helvetica,sans-Serif" font-size="12.00" fill="white">_BidirectionalIndexType</text>
</a>
</g>
</g>
<!-- _BidirectionalIndexType&#45;&gt;BidirectionalIndexType -->
<g id="edge86" class="edge">
<path fill="none" stroke="#cccccc" d="M2532,-289.988C2532,-282.91 2532,-273.171 2532,-264.478"/>
<polygon fill="#cccccc" stroke="#cccccc" points="2535.5,-264.304 2532,-254.304 2528.5,-264.304 2535.5,-264.304"/>
</g>
<!-- _BidirectionalIndexType&#45;&gt;_RandomAccessIndexType -->
<g id="edge87" class="edge">
<path fill="none" stroke="#cccccc" d="M2463.41,-293.273C2359.86,-283.117 2163.62,-263.871 2049.45,-252.675"/>
<polygon fill="#cccccc" stroke="#cccccc" points="2049.64,-249.176 2039.34,-251.683 2048.95,-256.143 2049.64,-249.176"/>
</g>
<!-- _ForwardIndexType -->
<g id="node56" class="node">
<g id="a_node56"><a xlink:href="/v1.2/protocol/_ForwardIndexType/hierarchy/" target="_top">
<path fill="#999999" stroke="#999999" d="M2787.71,-370C2787.71,-370 2686.29,-370 2686.29,-370 2682.62,-370 2678.95,-366.333 2678.95,-362.667 2678.95,-362.667 2678.95,-355.333 2678.95,-355.333 2678.95,-351.667 2682.62,-348 2686.29,-348 2686.29,-348 2787.71,-348 2787.71,-348 2791.38,-348 2795.05,-351.667 2795.05,-355.333 2795.05,-355.333 2795.05,-362.667 2795.05,-362.667 2795.05,-366.333 2791.38,-370 2787.71,-370"/>
<text text-anchor="middle" x="2737" y="-355.4" font-family="Helvetica,sans-Serif" font-size="12.00" fill="white">_ForwardIndexType</text>
</a>
</g>
</g>
<!-- _ForwardIndexType&#45;&gt;ForwardIndexType -->
<g id="edge75" class="edge">
<path fill="none" stroke="#cccccc" d="M2771.86,-347.988C2804.07,-338.74 2852.08,-324.95 2887.14,-314.884"/>
<polygon fill="#cccccc" stroke="#cccccc" points="2888.47,-318.144 2897.11,-312.019 2886.53,-311.416 2888.47,-318.144"/>
</g>
<!-- _ForwardIndexType&#45;&gt;_BidirectionalIndexType -->
<g id="edge76" class="edge">
<path fill="none" stroke="#cccccc" d="M2700.35,-347.988C2666.35,-338.7 2615.58,-324.832 2578.69,-314.754"/>
<polygon fill="#cccccc" stroke="#cccccc" points="2579.25,-311.278 2568.68,-312.019 2577.4,-318.031 2579.25,-311.278"/>
</g>
<!-- _Incrementable&#45;&gt;_ForwardIndexType -->
<g id="edge73" class="edge">
<path fill="none" stroke="#cccccc" d="M2737,-405.988C2737,-398.91 2737,-389.171 2737,-380.478"/>
<polygon fill="#cccccc" stroke="#cccccc" points="2740.5,-380.304 2737,-370.304 2733.5,-380.304 2740.5,-380.304"/>
</g>
<!-- _Incrementable&#45;&gt;_IntegerType -->
<g id="edge74" class="edge">
<path fill="none" stroke="#cccccc" d="M2690.72,-413.556C2463.19,-401.142 1470.02,-342.197 1367,-254 1353.36,-242.325 1349.11,-221.754 1347.97,-206.285"/>
<polygon fill="#cccccc" stroke="#cccccc" points="1351.46,-205.989 1347.6,-196.124 1344.46,-206.245 1351.46,-205.989"/>
</g>
<!-- _IntegerType&#45;&gt;IntegerType -->
<g id="edge24" class="edge">
<path fill="none" stroke="#cccccc" d="M1348,-173.988C1348,-166.91 1348,-157.171 1348,-148.478"/>
<polygon fill="#cccccc" stroke="#cccccc" points="1351.5,-148.304 1348,-138.304 1344.5,-148.304 1351.5,-148.304"/>
</g>
<!-- _IntegerType&#45;&gt;_SignedIntegerType -->
<g id="edge25" class="edge">
<path fill="none" stroke="#cccccc" d="M1323.15,-173.988C1300.95,-165.045 1268.22,-151.857 1243.49,-141.893"/>
<polygon fill="#cccccc" stroke="#cccccc" points="1244.69,-138.604 1234.1,-138.114 1242.07,-145.097 1244.69,-138.604"/>
</g>
<!-- _UnsignedIntegerType -->
<g id="node63" class="node">
<g id="a_node63"><a xlink:href="/v1.2/protocol/_UnsignedIntegerType/hierarchy/" target="_top">
<path fill="#999999" stroke="#999999" d="M1525.73,-138C1525.73,-138 1410.27,-138 1410.27,-138 1406.6,-138 1402.93,-134.333 1402.93,-130.667 1402.93,-130.667 1402.93,-123.333 1402.93,-123.333 1402.93,-119.667 1406.6,-116 1410.27,-116 1410.27,-116 1525.73,-116 1525.73,-116 1529.4,-116 1533.07,-119.667 1533.07,-123.333 1533.07,-123.333 1533.07,-130.667 1533.07,-130.667 1533.07,-134.333 1529.4,-138 1525.73,-138"/>
<text text-anchor="middle" x="1468" y="-123.4" font-family="Helvetica,sans-Serif" font-size="12.00" fill="white">_UnsignedIntegerType</text>
</a>
</g>
</g>
<!-- _IntegerType&#45;&gt;_UnsignedIntegerType -->
<g id="edge26" class="edge">
<path fill="none" stroke="#cccccc" d="M1369.45,-173.988C1388.28,-165.204 1415.88,-152.322 1437.09,-142.425"/>
<polygon fill="#cccccc" stroke="#cccccc" points="1438.75,-145.514 1446.33,-138.114 1435.79,-139.171 1438.75,-145.514"/>
</g>
<!-- _RandomAccessIndexType&#45;&gt;RandomAccessIndexType -->
<g id="edge46" class="edge">
<path fill="none" stroke="#cccccc" d="M1961,-231.988C1961,-224.91 1961,-215.171 1961,-206.478"/>
<polygon fill="#cccccc" stroke="#cccccc" points="1964.5,-206.304 1961,-196.304 1957.5,-206.304 1964.5,-206.304"/>
</g>
<!-- _RawOptionSetType&#45;&gt;RawOptionSetType -->
<g id="edge88" class="edge">
<path fill="none" stroke="#cccccc" d="M4145,-405.988C4145,-398.91 4145,-389.171 4145,-380.478"/>
<polygon fill="#cccccc" stroke="#cccccc" points="4148.5,-380.304 4145,-370.304 4141.5,-380.304 4148.5,-380.304"/>
</g>
<!-- _SignedIntegerType&#45;&gt;SignedIntegerType -->
<g id="edge39" class="edge">
<path fill="none" stroke="#cccccc" d="M1208.64,-115.988C1208.39,-108.91 1208.04,-99.1714 1207.73,-90.4779"/>
<polygon fill="#cccccc" stroke="#cccccc" points="1211.22,-90.1726 1207.37,-80.3039 1204.23,-90.4225 1211.22,-90.1726"/>
</g>
<!-- _SignedNumberType&#45;&gt;SignedNumberType -->
<g id="edge53" class="edge">
<path fill="none" stroke="#cccccc" d="M1064.25,-289.883C1059.14,-271.086 1048.09,-230.463 1041.43,-205.956"/>
<polygon fill="#cccccc" stroke="#cccccc" points="1044.79,-204.989 1038.79,-196.258 1038.04,-206.826 1044.79,-204.989"/>
</g>
<!-- _UnsignedIntegerType&#45;&gt;UnsignedIntegerType -->
<g id="edge40" class="edge">
<path fill="none" stroke="#cccccc" d="M1468,-115.988C1468,-108.91 1468,-99.1714 1468,-90.4779"/>
<polygon fill="#cccccc" stroke="#cccccc" points="1471.5,-90.3038 1468,-80.3039 1464.5,-90.3039 1471.5,-90.3038"/>
</g>
</g>
</svg>
