<?xml version="1.0" encoding="UTF-8" standalone="no"?>
<!DOCTYPE svg PUBLIC "-//W3C//DTD SVG 1.1//EN"
 "http://www.w3.org/Graphics/SVG/1.1/DTD/svg11.dtd">
<!-- Generated by graphviz version 2.36.0 (20140111.2315)
 -->
<!-- Title: Hashable &#45; Type Hierarchy &#45; SwiftDoc.org Pages: 1 -->
<svg width="2726pt" height="427pt"
 viewBox="0.00 0.00 2726.40 427.20" xmlns="http://www.w3.org/2000/svg" xmlns:xlink="http://www.w3.org/1999/xlink">
<g id="graph0" class="graph" transform="scale(1 1) rotate(0) translate(7.2 369.6)">
<g transform="translate(0 -369.6)">
<g>
    <path fill="#666666" d="M13.846,10.832c-0.336-0.464-0.792-0.844-1.368-1.14s-1.224-0.444-1.944-0.444
        c-0.384,0-0.772,0.052-1.164,0.156C8.977,9.509,8.622,9.677,8.301,9.908c-0.32,0.232-0.58,0.52-0.78,0.864
        c-0.2,0.344-0.3,0.756-0.3,1.236c0,0.464,0.092,0.852,0.276,1.164c0.184,0.312,0.432,0.576,0.744,0.792s0.68,0.4,1.104,0.552
        c0.423,0.152,0.876,0.309,1.356,0.468c0.576,0.177,1.16,0.376,1.752,0.601c0.592,0.224,1.128,0.52,1.608,0.888
        s0.872,0.828,1.176,1.38s0.456,1.252,0.456,2.101c0,0.88-0.164,1.644-0.492,2.292c-0.328,0.647-0.765,1.184-1.308,1.607
        c-0.544,0.424-1.172,0.74-1.884,0.948s-1.444,0.312-2.196,0.312c-1.072,0-2.108-0.208-3.108-0.624
        c-1-0.415-1.828-1.031-2.484-1.848l1.848-1.56c0.4,0.592,0.936,1.071,1.608,1.439c0.672,0.368,1.399,0.552,2.184,0.552
        c0.4,0,0.8-0.056,1.2-0.168c0.4-0.111,0.764-0.288,1.092-0.527c0.328-0.24,0.596-0.54,0.804-0.9
        c0.208-0.36,0.312-0.796,0.312-1.308s-0.108-0.94-0.324-1.284c-0.216-0.344-0.508-0.636-0.876-0.876s-0.796-0.444-1.284-0.612
        c-0.488-0.168-1.004-0.34-1.548-0.516c-0.544-0.16-1.08-0.356-1.608-0.588c-0.528-0.232-1-0.528-1.416-0.889
        c-0.416-0.359-0.752-0.804-1.008-1.332c-0.256-0.527-0.384-1.184-0.384-1.968c0-0.848,0.172-1.576,0.516-2.184
        c0.344-0.608,0.792-1.112,1.344-1.512c0.552-0.4,1.176-0.692,1.872-0.876c0.696-0.184,1.396-0.276,2.1-0.276
        c0.992,0,1.92,0.176,2.784,0.528c0.864,0.352,1.56,0.824,2.088,1.416L13.846,10.832z"/>
    <path fill="#666666" d="M18.813,13.304l2.568,8.688h0.048l2.712-8.688h2.376l2.76,8.688h0.048l2.568-8.688h2.376L30.501,24.68
        h-2.352l-2.808-8.544h-0.048l-2.784,8.544h-2.352l-3.792-11.376H18.813z"/>
    <path fill="#666666" d="M38.685,9.2c0,0.416-0.147,0.76-0.44,1.032c-0.294,0.272-0.647,0.408-1.06,0.408s-0.762-0.14-1.047-0.42
        c-0.286-0.28-0.429-0.62-0.429-1.02c0-0.416,0.143-0.764,0.429-1.044c0.286-0.28,0.635-0.42,1.047-0.42s0.766,0.14,1.06,0.42
        C38.538,8.437,38.685,8.784,38.685,9.2z M38.325,24.68h-2.256V13.304h2.256V24.68z"/>
    <path fill="#666666" d="M47.613,15.152h-2.64v9.528h-2.256v-9.528h-2.256v-1.848h2.256v-2.376c0-0.672,0.076-1.292,0.228-1.86
        c0.152-0.568,0.4-1.06,0.744-1.476c0.344-0.416,0.784-0.744,1.32-0.984c0.536-0.24,1.188-0.36,1.956-0.36
        c0.544,0,1.016,0.056,1.416,0.168l-0.264,1.944c-0.176-0.048-0.352-0.088-0.528-0.12c-0.176-0.032-0.376-0.048-0.6-0.048
        c-0.432,0-0.78,0.076-1.044,0.228c-0.264,0.152-0.468,0.356-0.612,0.612s-0.24,0.548-0.288,0.876
        c-0.048,0.328-0.072,0.668-0.072,1.02v2.376h2.64V15.152z"/>
    <path fill="#666666" d="M54.909,15.152h-3.024v5.91c0,0.687,0.128,1.177,0.384,1.472c0.256,0.295,0.664,0.442,1.224,0.442
        c0.208,0,0.432-0.021,0.672-0.065c0.24-0.044,0.456-0.11,0.648-0.198l0.072,1.848c-0.272,0.096-0.572,0.172-0.9,0.229
        c-0.328,0.056-0.668,0.084-1.02,0.084c-1.072,0-1.892-0.296-2.46-0.889c-0.568-0.592-0.852-1.479-0.852-2.664v-6.168h-2.184
        v-1.848h2.184V10.04h2.232v3.264h3.024V15.152z"/>
    <path fill="#666666" d="M57.356,7.688h5.832c1.088,0,2.176,0.16,3.264,0.48c1.088,0.32,2.072,0.824,2.952,1.512
        s1.592,1.568,2.136,2.64c0.544,1.072,0.816,2.36,0.816,3.864c0,1.456-0.272,2.716-0.816,3.78s-1.256,1.943-2.136,2.64
        s-1.864,1.216-2.952,1.561c-1.088,0.344-2.176,0.516-3.264,0.516h-5.832V7.688z M59.732,22.593h2.976
        c1.024,0,1.972-0.145,2.844-0.432c0.872-0.288,1.624-0.704,2.256-1.248c0.632-0.544,1.124-1.216,1.476-2.017
        c0.352-0.8,0.528-1.704,0.528-2.712c0-1.056-0.176-1.983-0.528-2.784c-0.353-0.8-0.844-1.468-1.476-2.004
        c-0.632-0.536-1.384-0.944-2.256-1.224s-1.82-0.42-2.844-0.42h-2.976V22.593z"/>
    <path fill="#666666" d="M86.06,18.969c0,0.88-0.156,1.688-0.468,2.424c-0.312,0.736-0.744,1.372-1.296,1.908
        c-0.552,0.536-1.204,0.952-1.956,1.248c-0.752,0.296-1.56,0.443-2.424,0.443c-0.864,0-1.672-0.147-2.424-0.443
        c-0.752-0.296-1.4-0.712-1.944-1.248c-0.544-0.536-0.972-1.172-1.284-1.908c-0.312-0.735-0.468-1.544-0.468-2.424
        s0.156-1.684,0.468-2.412c0.312-0.728,0.74-1.356,1.284-1.884c0.543-0.528,1.191-0.939,1.944-1.236
        c0.752-0.296,1.56-0.444,2.424-0.444c0.864,0,1.672,0.148,2.424,0.444c0.752,0.297,1.404,0.708,1.956,1.236
        c0.552,0.527,0.984,1.156,1.296,1.884C85.904,17.285,86.06,18.089,86.06,18.969z M83.708,18.98c0-0.542-0.084-1.061-0.252-1.556
        c-0.169-0.494-0.414-0.929-0.734-1.304s-0.718-0.674-1.192-0.897s-1.015-0.335-1.625-0.335c-0.61,0-1.152,0.111-1.625,0.335
        c-0.474,0.224-0.871,0.522-1.191,0.897c-0.321,0.375-0.566,0.81-0.734,1.304C76.184,17.92,76.1,18.438,76.1,18.98
        c0,0.543,0.084,1.062,0.253,1.556c0.168,0.495,0.413,0.934,0.734,1.316c0.321,0.383,0.718,0.686,1.191,0.909
        c0.473,0.224,1.015,0.335,1.625,0.335c0.61,0,1.151-0.111,1.625-0.335s0.871-0.526,1.192-0.909s0.565-0.821,0.734-1.316
        C83.624,20.042,83.708,19.523,83.708,18.98z"/>
    <path fill="#666666" d="M96.428,16.184c-0.24-0.368-0.6-0.676-1.08-0.924s-0.992-0.372-1.536-0.372
        c-0.592,0-1.116,0.112-1.572,0.336c-0.456,0.225-0.844,0.524-1.164,0.9c-0.32,0.376-0.564,0.812-0.732,1.308
        s-0.252,1.017-0.252,1.56c0,0.545,0.084,1.064,0.252,1.561s0.412,0.933,0.732,1.308c0.32,0.376,0.712,0.677,1.176,0.9
        c0.464,0.225,0.992,0.336,1.584,0.336c0.576,0,1.1-0.111,1.572-0.336c0.472-0.224,0.86-0.528,1.164-0.912l1.512,1.368
        c-0.48,0.561-1.08,0.996-1.8,1.308c-0.72,0.312-1.536,0.468-2.448,0.468c-0.88,0-1.692-0.144-2.436-0.432
        c-0.744-0.288-1.388-0.691-1.932-1.212c-0.544-0.52-0.972-1.147-1.284-1.884s-0.468-1.561-0.468-2.473
        c0-0.896,0.152-1.711,0.456-2.447c0.304-0.736,0.728-1.368,1.272-1.896c0.543-0.527,1.188-0.936,1.932-1.224
        c0.744-0.288,1.548-0.433,2.412-0.433c0.8,0,1.596,0.16,2.388,0.48s1.419,0.784,1.884,1.392L96.428,16.184z"/>
    <path fill="#666666" d="M103.1,23.24c0,0.417-0.152,0.784-0.456,1.104c-0.304,0.32-0.688,0.479-1.152,0.479
        c-0.448,0-0.828-0.155-1.14-0.468c-0.312-0.312-0.468-0.676-0.468-1.092c0-0.432,0.152-0.804,0.456-1.116
        c0.304-0.312,0.688-0.468,1.152-0.468c0.464,0,0.848,0.152,1.152,0.456C102.947,22.44,103.1,22.808,103.1,23.24z"/>
    <path fill="#666666" d="M116.635,18.969c0,0.88-0.156,1.688-0.468,2.424c-0.312,0.736-0.744,1.372-1.296,1.908
        c-0.552,0.536-1.204,0.952-1.956,1.248c-0.752,0.296-1.56,0.443-2.424,0.443c-0.864,0-1.672-0.147-2.424-0.443
        c-0.752-0.296-1.4-0.712-1.944-1.248c-0.544-0.536-0.972-1.172-1.284-1.908c-0.312-0.735-0.468-1.544-0.468-2.424
        s0.156-1.684,0.468-2.412c0.312-0.728,0.74-1.356,1.284-1.884c0.543-0.528,1.191-0.939,1.944-1.236
        c0.752-0.296,1.56-0.444,2.424-0.444c0.864,0,1.672,0.148,2.424,0.444c0.752,0.297,1.404,0.708,1.956,1.236
        c0.552,0.527,0.984,1.156,1.296,1.884C116.479,17.285,116.635,18.089,116.635,18.969z M114.283,18.98
        c0-0.542-0.084-1.061-0.252-1.556c-0.169-0.494-0.414-0.929-0.734-1.304s-0.718-0.674-1.192-0.897s-1.015-0.335-1.625-0.335
        c-0.61,0-1.152,0.111-1.625,0.335c-0.474,0.224-0.871,0.522-1.191,0.897c-0.321,0.375-0.566,0.81-0.734,1.304
        c-0.169,0.495-0.253,1.014-0.253,1.556c0,0.543,0.084,1.062,0.253,1.556c0.168,0.495,0.413,0.934,0.734,1.316
        c0.321,0.383,0.718,0.686,1.191,0.909c0.473,0.224,1.015,0.335,1.625,0.335c0.61,0,1.151-0.111,1.625-0.335
        s0.871-0.526,1.192-0.909s0.565-0.821,0.734-1.316C114.199,20.042,114.283,19.523,114.283,18.98z"/>
    <path fill="#666666" d="M119.251,14.577c-0.016-0.48-0.04-0.904-0.072-1.272h2.136c0.032,0.288,0.056,0.62,0.072,0.996
        c0.016,0.376,0.024,0.684,0.024,0.924h0.072c0.32-0.672,0.788-1.212,1.404-1.62c0.616-0.408,1.308-0.612,2.076-0.612
        c0.352,0,0.648,0.033,0.888,0.097l-0.096,2.088c-0.32-0.08-0.664-0.12-1.032-0.12c-0.544,0-1.016,0.101-1.416,0.3
        c-0.4,0.2-0.732,0.468-0.996,0.805c-0.264,0.336-0.46,0.724-0.588,1.163c-0.128,0.44-0.192,0.9-0.192,1.381v5.976h-2.256v-8.928
        C119.275,15.449,119.267,15.056,119.251,14.577z"/>
    <path fill="#666666" d="M128.419,26.625c0.496,0.56,1.116,1.008,1.86,1.344c0.744,0.336,1.508,0.504,2.292,0.504
        c0.752,0,1.384-0.108,1.896-0.324s0.924-0.512,1.236-0.888s0.536-0.82,0.672-1.332c0.136-0.513,0.204-1.064,0.204-1.656v-1.464
        h-0.048c-0.416,0.641-0.984,1.128-1.704,1.464c-0.72,0.336-1.488,0.504-2.304,0.504c-0.864,0-1.652-0.151-2.364-0.456
        c-0.712-0.304-1.316-0.72-1.812-1.248c-0.496-0.527-0.88-1.147-1.152-1.859s-0.408-1.477-0.408-2.292
        c0-0.816,0.136-1.584,0.408-2.305c0.272-0.72,0.656-1.348,1.152-1.884c0.496-0.535,1.096-0.96,1.8-1.271
        c0.704-0.312,1.488-0.469,2.352-0.469c0.816,0,1.596,0.177,2.34,0.528c0.744,0.353,1.332,0.888,1.764,1.608h0.048v-1.824h2.184
        v10.8c0,0.832-0.104,1.628-0.312,2.388c-0.208,0.76-0.56,1.433-1.056,2.017s-1.144,1.052-1.944,1.404
        c-0.8,0.352-1.792,0.527-2.976,0.527c-0.992,0-1.988-0.18-2.988-0.54c-1-0.359-1.86-0.868-2.58-1.523L128.419,26.625z
         M129.091,18.873c0,0.527,0.084,1.031,0.253,1.512c0.168,0.479,0.417,0.904,0.746,1.271c0.329,0.369,0.726,0.664,1.192,0.889
        c0.465,0.224,0.995,0.336,1.589,0.336c0.577,0,1.107-0.104,1.589-0.312c0.481-0.207,0.891-0.491,1.228-0.852
        s0.598-0.784,0.782-1.272c0.185-0.487,0.277-1.012,0.277-1.571c0-0.544-0.093-1.057-0.277-1.536
        c-0.185-0.48-0.449-0.904-0.794-1.272c-0.345-0.367-0.755-0.66-1.228-0.876c-0.474-0.216-1-0.324-1.577-0.324
        c-0.594,0-1.124,0.108-1.589,0.324c-0.466,0.216-0.863,0.504-1.192,0.864s-0.578,0.784-0.746,1.271
        C129.175,17.812,129.091,18.329,129.091,18.873z"/>
</g>
<g><a xlink:href="/" pointer-events="all" target="_top"><polygon fill="none" points="0,0 145,0 145,35 0,35 0,0"/></a></g>

</g>


<!-- Bit -->
<g id="node1" class="node">
<g id="a_node1"><a xlink:href="/swift-2/type/Bit/" target="_top">
<polygon fill="#999999" stroke="#999999" points="1305,-22 1251,-22 1251,-0 1305,-0 1305,-22"/>
<text text-anchor="middle" x="1278" y="-7.4" font-family="Helvetica,sans-Serif" font-size="12.00" fill="white">Bit</text>
</a>
</g>
</g>
<!-- Bool -->
<g id="node2" class="node">
<g id="a_node2"><a xlink:href="/swift-2/type/Bool/" target="_top">
<polygon fill="#999999" stroke="#999999" points="54,-22 0,-22 0,-0 54,-0 54,-22"/>
<text text-anchor="middle" x="27" y="-7.4" font-family="Helvetica,sans-Serif" font-size="12.00" fill="white">Bool</text>
</a>
</g>
</g>
<!-- COpaquePointer -->
<g id="node3" class="node">
<g id="a_node3"><a xlink:href="/swift-2/type/COpaquePointer/" target="_top">
<polygon fill="#999999" stroke="#999999" points="171.542,-22 72.4576,-22 72.4576,-0 171.542,-0 171.542,-22"/>
<text text-anchor="middle" x="122" y="-7.4" font-family="Helvetica,sans-Serif" font-size="12.00" fill="white">COpaquePointer</text>
</a>
</g>
</g>
<!-- Character -->
<g id="node4" class="node">
<g id="a_node4"><a xlink:href="/swift-2/type/Character/" target="_top">
<polygon fill="#999999" stroke="#999999" points="252.017,-22 189.983,-22 189.983,-0 252.017,-0 252.017,-22"/>
<text text-anchor="middle" x="221" y="-7.4" font-family="Helvetica,sans-Serif" font-size="12.00" fill="white">Character</text>
</a>
</g>
</g>
<!-- Double -->
<g id="node5" class="node">
<g id="a_node5"><a xlink:href="/swift-2/type/Double/" target="_top">
<polygon fill="#999999" stroke="#999999" points="324,-22 270,-22 270,-0 324,-0 324,-22"/>
<text text-anchor="middle" x="297" y="-7.4" font-family="Helvetica,sans-Serif" font-size="12.00" fill="white">Double</text>
</a>
</g>
</g>
<!-- Equatable -->
<g id="node6" class="node">
<g id="a_node6"><a xlink:href="/swift-2/protocol/Equatable/" target="_top">
<path fill="#999999" stroke="#999999" d="M1321.7,-312C1321.7,-312 1272.3,-312 1272.3,-312 1268.63,-312 1264.96,-308.333 1264.96,-304.667 1264.96,-304.667 1264.96,-297.333 1264.96,-297.333 1264.96,-293.667 1268.63,-290 1272.3,-290 1272.3,-290 1321.7,-290 1321.7,-290 1325.37,-290 1329.04,-293.667 1329.04,-297.333 1329.04,-297.333 1329.04,-304.667 1329.04,-304.667 1329.04,-308.333 1325.37,-312 1321.7,-312"/>
<text text-anchor="middle" x="1297" y="-297.4" font-family="Helvetica,sans-Serif" font-size="12.00" fill="white">Equatable</text>
</a>
</g>
</g>
<!-- Hashable -->
<g id="node9" class="node">
<g id="a_node9"><a xlink:href="/swift-2/protocol/Hashable/" target="_top">
<path fill="#ee543d" stroke="#ee543d" d="M1319.69,-254C1319.69,-254 1274.31,-254 1274.31,-254 1270.64,-254 1266.97,-250.333 1266.97,-246.667 1266.97,-246.667 1266.97,-239.333 1266.97,-239.333 1266.97,-235.667 1270.64,-232 1274.31,-232 1274.31,-232 1319.69,-232 1319.69,-232 1323.36,-232 1327.03,-235.667 1327.03,-239.333 1327.03,-239.333 1327.03,-246.667 1327.03,-246.667 1327.03,-250.333 1323.36,-254 1319.69,-254"/>
<text text-anchor="middle" x="1297" y="-239.4" font-family="Helvetica,sans-Serif" font-size="12.00" fill="white">Hashable</text>
</a>
</g>
</g>
<!-- Equatable&#45;&gt;Hashable -->
<g id="edge72" class="edge">
<path fill="none" stroke="#cccccc" d="M1297,-289.988C1297,-282.91 1297,-273.171 1297,-264.478"/>
<polygon fill="#cccccc" stroke="#cccccc" points="1300.5,-264.304 1297,-254.304 1293.5,-264.304 1300.5,-264.304"/>
</g>
<!-- Float -->
<g id="node7" class="node">
<g id="a_node7"><a xlink:href="/swift-2/type/Float/" target="_top">
<polygon fill="#999999" stroke="#999999" points="396,-22 342,-22 342,-0 396,-0 396,-22"/>
<text text-anchor="middle" x="369" y="-7.4" font-family="Helvetica,sans-Serif" font-size="12.00" fill="white">Float</text>
</a>
</g>
</g>
<!-- Float80 -->
<g id="node8" class="node">
<g id="a_node8"><a xlink:href="/swift-2/type/Float80/" target="_top">
<polygon fill="#999999" stroke="#999999" points="468,-22 414,-22 414,-0 468,-0 468,-22"/>
<text text-anchor="middle" x="441" y="-7.4" font-family="Helvetica,sans-Serif" font-size="12.00" fill="white">Float80</text>
</a>
</g>
</g>
<!-- Hashable&#45;&gt;Bool -->
<g id="edge1" class="edge">
<path fill="none" stroke="#cccccc" d="M1266.91,-241.69C1135.58,-240.134 612.05,-231.766 452,-196 385.067,-181.043 372.096,-164.882 309,-138 217.236,-98.9041 109.94,-50.1001 58.1316,-26.337"/>
<polygon fill="#cccccc" stroke="#cccccc" points="59.3733,-23.0559 48.825,-22.0638 56.4523,-29.4174 59.3733,-23.0559"/>
</g>
<!-- Hashable&#45;&gt;COpaquePointer -->
<g id="edge2" class="edge">
<path fill="none" stroke="#cccccc" d="M1266.62,-241.67C1142.04,-240.087 670.127,-231.803 526,-196 373.749,-158.179 208.198,-64.1748 146.753,-27.2431"/>
<polygon fill="#cccccc" stroke="#cccccc" points="148.496,-24.2071 138.129,-22.022 144.871,-30.1952 148.496,-24.2071"/>
</g>
<!-- Hashable&#45;&gt;Character -->
<g id="edge3" class="edge">
<path fill="none" stroke="#cccccc" d="M1266.58,-241.569C1148.11,-239.655 717.638,-230.426 586,-196 528.304,-180.911 518.389,-164.573 465,-138 386.302,-98.8299 294.391,-50.7202 249.125,-26.8686"/>
<polygon fill="#cccccc" stroke="#cccccc" points="250.674,-23.7283 240.196,-22.159 247.408,-29.9199 250.674,-23.7283"/>
</g>
<!-- Hashable&#45;&gt;Double -->
<g id="edge4" class="edge">
<path fill="none" stroke="#cccccc" d="M1266.75,-241.462C1155.58,-239.234 769.915,-229.23 652,-196 517.149,-157.997 374.279,-65.5525 319.849,-28.1276"/>
<polygon fill="#cccccc" stroke="#cccccc" points="321.521,-25.028 311.309,-22.2059 317.532,-30.7804 321.521,-25.028"/>
</g>
<!-- Hashable&#45;&gt;Float -->
<g id="edge5" class="edge">
<path fill="none" stroke="#cccccc" d="M1266.94,-241.211C1162.46,-238.226 815.644,-226.221 709,-196 654.687,-180.609 645.797,-164.591 596,-138 522.995,-99.0162 437.938,-51.1354 395.673,-27.1746"/>
<polygon fill="#cccccc" stroke="#cccccc" points="397.267,-24.0545 386.842,-22.1628 393.812,-30.1425 397.267,-24.0545"/>
</g>
<!-- Hashable&#45;&gt;Float80 -->
<g id="edge6" class="edge">
<path fill="none" stroke="#cccccc" d="M1266.74,-241.017C1169.33,-237.592 864.764,-224.793 771,-196 644.706,-157.218 512.875,-65.5687 462.391,-28.2433"/>
<polygon fill="#cccccc" stroke="#cccccc" points="464.305,-25.3043 454.196,-22.1308 460.119,-30.9153 464.305,-25.3043"/>
</g>
<!-- Int -->
<g id="node10" class="node">
<g id="a_node10"><a xlink:href="/swift-2/type/Int/" target="_top">
<polygon fill="#999999" stroke="#999999" points="1170,-22 1116,-22 1116,-0 1170,-0 1170,-22"/>
<text text-anchor="middle" x="1143" y="-7.4" font-family="Helvetica,sans-Serif" font-size="12.00" fill="white">Int</text>
</a>
</g>
</g>
<!-- Hashable&#45;&gt;Int -->
<g id="edge7" class="edge">
<path fill="none" stroke="#cccccc" d="M1284.41,-231.871C1273.94,-223.063 1259,-209.61 1248,-196 1204.01,-141.597 1167.42,-66.4502 1151.52,-31.4253"/>
<polygon fill="#cccccc" stroke="#cccccc" points="1154.71,-29.9825 1147.43,-22.2845 1148.32,-32.8418 1154.71,-29.9825"/>
</g>
<!-- Int16 -->
<g id="node11" class="node">
<g id="a_node11"><a xlink:href="/swift-2/type/Int16/" target="_top">
<polygon fill="#999999" stroke="#999999" points="569,-22 515,-22 515,-0 569,-0 569,-22"/>
<text text-anchor="middle" x="542" y="-7.4" font-family="Helvetica,sans-Serif" font-size="12.00" fill="white">Int16</text>
</a>
</g>
</g>
<!-- Hashable&#45;&gt;Int16 -->
<g id="edge8" class="edge">
<path fill="none" stroke="#cccccc" d="M1266.69,-240.911C1176,-237.36 908.022,-224.657 826,-196 714.99,-157.215 603.958,-66.5988 560.799,-28.9103"/>
<polygon fill="#cccccc" stroke="#cccccc" points="562.906,-26.1018 553.093,-22.1093 558.275,-31.3504 562.906,-26.1018"/>
</g>
<!-- Int32 -->
<g id="node12" class="node">
<g id="a_node12"><a xlink:href="/swift-2/type/Int32/" target="_top">
<polygon fill="#999999" stroke="#999999" points="721,-22 667,-22 667,-0 721,-0 721,-22"/>
<text text-anchor="middle" x="694" y="-7.4" font-family="Helvetica,sans-Serif" font-size="12.00" fill="white">Int32</text>
</a>
</g>
</g>
<!-- Hashable&#45;&gt;Int32 -->
<g id="edge9" class="edge">
<path fill="none" stroke="#cccccc" d="M1266.77,-240.739C1181.91,-236.886 942.888,-223.799 870,-196 787.963,-164.711 727.278,-71.211 704.197,-30.8705"/>
<polygon fill="#cccccc" stroke="#cccccc" points="707.197,-29.0636 699.264,-22.0409 701.086,-32.4779 707.197,-29.0636"/>
</g>
<!-- Int64 -->
<g id="node13" class="node">
<g id="a_node13"><a xlink:href="/swift-2/type/Int64/" target="_top">
<polygon fill="#999999" stroke="#999999" points="835,-22 781,-22 781,-0 835,-0 835,-22"/>
<text text-anchor="middle" x="808" y="-7.4" font-family="Helvetica,sans-Serif" font-size="12.00" fill="white">Int64</text>
</a>
</g>
</g>
<!-- Hashable&#45;&gt;Int64 -->
<g id="edge10" class="edge">
<path fill="none" stroke="#cccccc" d="M1266.8,-239.997C1169.88,-232.93 869.235,-205.826 805,-138 778.05,-109.543 790.281,-59.2246 800.059,-31.5675"/>
<polygon fill="#cccccc" stroke="#cccccc" points="803.349,-32.7619 803.599,-22.17 796.798,-30.2941 803.349,-32.7619"/>
</g>
<!-- Int8 -->
<g id="node14" class="node">
<g id="a_node14"><a xlink:href="/swift-2/type/Int8/" target="_top">
<polygon fill="#999999" stroke="#999999" points="1098,-22 1044,-22 1044,-0 1098,-0 1098,-22"/>
<text text-anchor="middle" x="1071" y="-7.4" font-family="Helvetica,sans-Serif" font-size="12.00" fill="white">Int8</text>
</a>
</g>
</g>
<!-- Hashable&#45;&gt;Int8 -->
<g id="edge11" class="edge">
<path fill="none" stroke="#cccccc" d="M1279.31,-231.841C1265.01,-223.217 1244.75,-210.036 1229,-196 1168.7,-142.248 1110.04,-65.7193 1084.43,-30.743"/>
<polygon fill="#cccccc" stroke="#cccccc" points="1087.09,-28.4438 1078.38,-22.4077 1081.42,-32.5563 1087.09,-28.4438"/>
</g>
<!-- ObjectIdentifier -->
<g id="node16" class="node">
<g id="a_node16"><a xlink:href="/swift-2/type/ObjectIdentifier/" target="_top">
<polygon fill="#999999" stroke="#999999" points="2211.03,-22 2120.97,-22 2120.97,-0 2211.03,-0 2211.03,-22"/>
<text text-anchor="middle" x="2166" y="-7.4" font-family="Helvetica,sans-Serif" font-size="12.00" fill="white">ObjectIdentifier</text>
</a>
</g>
</g>
<!-- Hashable&#45;&gt;ObjectIdentifier -->
<g id="edge12" class="edge">
<path fill="none" stroke="#cccccc" d="M1327.26,-240.614C1423.25,-236.013 1720.08,-220.151 1813,-196 1874.23,-180.085 1886.51,-166.482 1943,-138 2016.31,-101.041 2099.86,-51.8589 2140.75,-27.3051"/>
<polygon fill="#cccccc" stroke="#cccccc" points="2142.75,-30.1901 2149.51,-22.033 2139.14,-24.1934 2142.75,-30.1901"/>
</g>
<!-- Set -->
<g id="node17" class="node">
<g id="a_node17"><a xlink:href="/swift-2/type/Set/" target="_top">
<polygon fill="#999999" stroke="#999999" points="2283,-22 2229,-22 2229,-0 2283,-0 2283,-22"/>
<text text-anchor="middle" x="2256" y="-7.4" font-family="Helvetica,sans-Serif" font-size="12.00" fill="white">Set</text>
</a>
</g>
</g>
<!-- Hashable&#45;&gt;Set -->
<g id="edge13" class="edge">
<path fill="none" stroke="#cccccc" d="M1327.09,-240.93C1428.48,-237.107 1757,-222.897 1859,-196 2007.86,-156.744 2169.83,-64.3309 2230.86,-27.5237"/>
<polygon fill="#cccccc" stroke="#cccccc" points="2233.05,-30.2936 2239.77,-22.1105 2229.41,-24.3109 2233.05,-30.2936"/>
</g>
<!-- String -->
<g id="node19" class="node">
<g id="a_node19"><a xlink:href="/swift-2/type/String/" target="_top">
<polygon fill="#999999" stroke="#999999" points="2355,-22 2301,-22 2301,-0 2355,-0 2355,-22"/>
<text text-anchor="middle" x="2328" y="-7.4" font-family="Helvetica,sans-Serif" font-size="12.00" fill="white">String</text>
</a>
</g>
</g>
<!-- Hashable&#45;&gt;String -->
<g id="edge14" class="edge">
<path fill="none" stroke="#cccccc" d="M1327.38,-240.901C1434.69,-236.835 1795.44,-221.546 1908,-196 1977.3,-180.272 1991.64,-165.883 2057,-138 2145.81,-100.114 2248.71,-50.7272 2298.28,-26.5801"/>
<polygon fill="#cccccc" stroke="#cccccc" points="2300.01,-29.6295 2307.46,-22.0981 2296.94,-23.3387 2300.01,-29.6295"/>
</g>
<!-- UInt -->
<g id="node20" class="node">
<g id="a_node20"><a xlink:href="/swift-2/type/UInt/" target="_top">
<polygon fill="#999999" stroke="#999999" points="1457,-22 1403,-22 1403,-0 1457,-0 1457,-22"/>
<text text-anchor="middle" x="1430" y="-7.4" font-family="Helvetica,sans-Serif" font-size="12.00" fill="white">UInt</text>
</a>
</g>
</g>
<!-- Hashable&#45;&gt;UInt -->
<g id="edge15" class="edge">
<path fill="none" stroke="#cccccc" d="M1310.2,-231.665C1320.76,-222.939 1335.5,-209.707 1346,-196 1381.56,-149.602 1385.13,-133.8 1408,-80 1414.66,-64.3214 1420.51,-45.901 1424.49,-32.1895"/>
<polygon fill="#cccccc" stroke="#cccccc" points="1427.92,-32.9198 1427.27,-22.3449 1421.19,-31.0177 1427.92,-32.9198"/>
</g>
<!-- UInt16 -->
<g id="node21" class="node">
<g id="a_node21"><a xlink:href="/swift-2/type/UInt16/" target="_top">
<polygon fill="#999999" stroke="#999999" points="1571,-22 1517,-22 1517,-0 1571,-0 1571,-22"/>
<text text-anchor="middle" x="1544" y="-7.4" font-family="Helvetica,sans-Serif" font-size="12.00" fill="white">UInt16</text>
</a>
</g>
</g>
<!-- Hashable&#45;&gt;UInt16 -->
<g id="edge16" class="edge">
<path fill="none" stroke="#cccccc" d="M1315.01,-231.921C1329.85,-223.245 1351.14,-209.951 1368,-196 1433.62,-141.703 1500.16,-64.9111 1529.06,-30.2407"/>
<polygon fill="#cccccc" stroke="#cccccc" points="1531.9,-32.3076 1535.58,-22.373 1526.51,-27.8432 1531.9,-32.3076"/>
</g>
<!-- UInt32 -->
<g id="node22" class="node">
<g id="a_node22"><a xlink:href="/swift-2/type/UInt32/" target="_top">
<polygon fill="#999999" stroke="#999999" points="1865,-22 1811,-22 1811,-0 1865,-0 1865,-22"/>
<text text-anchor="middle" x="1838" y="-7.4" font-family="Helvetica,sans-Serif" font-size="12.00" fill="white">UInt32</text>
</a>
</g>
</g>
<!-- Hashable&#45;&gt;UInt32 -->
<g id="edge17" class="edge">
<path fill="none" stroke="#cccccc" d="M1327.08,-239.793C1427.44,-231.88 1748.92,-201.935 1827,-138 1855.72,-114.483 1856.1,-94.7696 1851,-58 1849.78,-49.1978 1847.31,-39.7112 1844.84,-31.6528"/>
<polygon fill="#cccccc" stroke="#cccccc" points="1848.14,-30.4807 1841.71,-22.0595 1841.49,-32.6519 1848.14,-30.4807"/>
</g>
<!-- UInt64 -->
<g id="node23" class="node">
<g id="a_node23"><a xlink:href="/swift-2/type/UInt64/" target="_top">
<polygon fill="#999999" stroke="#999999" points="2017,-22 1963,-22 1963,-0 2017,-0 2017,-22"/>
<text text-anchor="middle" x="1990" y="-7.4" font-family="Helvetica,sans-Serif" font-size="12.00" fill="white">UInt64</text>
</a>
</g>
</g>
<!-- Hashable&#45;&gt;UInt64 -->
<g id="edge18" class="edge">
<path fill="none" stroke="#cccccc" d="M1327.15,-241.921C1397.43,-241.051 1577.15,-234.863 1721,-196 1782.08,-179.499 1794.93,-167.303 1851,-138 1895.18,-114.912 1911.39,-114.887 1947,-80 1961.43,-65.8621 1973.28,-45.9956 1980.86,-31.3853"/>
<polygon fill="#cccccc" stroke="#cccccc" points="1984.08,-32.7578 1985.4,-22.2453 1977.82,-29.6414 1984.08,-32.7578"/>
</g>
<!-- UInt8 -->
<g id="node24" class="node">
<g id="a_node24"><a xlink:href="/swift-2/type/UInt8/" target="_top">
<polygon fill="#999999" stroke="#999999" points="2103,-22 2049,-22 2049,-0 2103,-0 2103,-22"/>
<text text-anchor="middle" x="2076" y="-7.4" font-family="Helvetica,sans-Serif" font-size="12.00" fill="white">UInt8</text>
</a>
</g>
</g>
<!-- Hashable&#45;&gt;UInt8 -->
<g id="edge19" class="edge">
<path fill="none" stroke="#cccccc" d="M1327.23,-242.179C1402.69,-241.956 1604.91,-237.22 1767,-196 1831.08,-179.704 1844.37,-166.561 1904,-138 1953.14,-114.465 1968.77,-113.158 2012,-80 2031.14,-65.3194 2049.65,-44.7317 2061.8,-30.0634"/>
<polygon fill="#cccccc" stroke="#cccccc" points="2064.6,-32.1729 2068.17,-22.2004 2059.16,-27.7651 2064.6,-32.1729"/>
</g>
<!-- UnicodeScalar -->
<g id="node25" class="node">
<g id="a_node25"><a xlink:href="/swift-2/type/UnicodeScalar/" target="_top">
<polygon fill="#999999" stroke="#999999" points="2461.03,-22 2372.97,-22 2372.97,-0 2461.03,-0 2461.03,-22"/>
<text text-anchor="middle" x="2417" y="-7.4" font-family="Helvetica,sans-Serif" font-size="12.00" fill="white">UnicodeScalar</text>
</a>
</g>
</g>
<!-- Hashable&#45;&gt;UnicodeScalar -->
<g id="edge20" class="edge">
<path fill="none" stroke="#cccccc" d="M1327.08,-241.142C1439.46,-237.746 1834.54,-224.034 1957,-196 2127.97,-156.862 2318.42,-63.3346 2388.85,-26.8932"/>
<polygon fill="#cccccc" stroke="#cccccc" points="2390.72,-29.8641 2397.98,-22.1417 2387.49,-23.6551 2390.72,-29.8641"/>
</g>
<!-- UnsafeMutablePointer -->
<g id="node26" class="node">
<g id="a_node26"><a xlink:href="/swift-2/type/UnsafeMutablePointer/" target="_top">
<polygon fill="#999999" stroke="#999999" points="2607.05,-22 2478.95,-22 2478.95,-0 2607.05,-0 2607.05,-22"/>
<text text-anchor="middle" x="2543" y="-7.4" font-family="Helvetica,sans-Serif" font-size="12.00" fill="white">UnsafeMutablePointer</text>
</a>
</g>
</g>
<!-- Hashable&#45;&gt;UnsafeMutablePointer -->
<g id="edge21" class="edge">
<path fill="none" stroke="#cccccc" d="M1327.03,-241.115C1445.02,-237.478 1876.82,-222.596 2011,-196 2089.72,-180.397 2106.11,-164.112 2182,-138 2299.92,-97.4252 2439.17,-48.5502 2504.95,-25.4055"/>
<polygon fill="#cccccc" stroke="#cccccc" points="2506.21,-28.6706 2514.48,-22.0492 2503.89,-22.0676 2506.21,-28.6706"/>
</g>
<!-- UnsafePointer -->
<g id="node27" class="node">
<g id="a_node27"><a xlink:href="/swift-2/type/UnsafePointer/" target="_top">
<polygon fill="#999999" stroke="#999999" points="2711.03,-22 2624.97,-22 2624.97,-0 2711.03,-0 2711.03,-22"/>
<text text-anchor="middle" x="2668" y="-7.4" font-family="Helvetica,sans-Serif" font-size="12.00" fill="white">UnsafePointer</text>
</a>
</g>
</g>
<!-- Hashable&#45;&gt;UnsafePointer -->
<g id="edge22" class="edge">
<path fill="none" stroke="#cccccc" d="M1327.11,-241.143C1450.61,-237.48 1918.59,-222.13 2064,-196 2286.25,-156.062 2541.91,-61.26 2633.31,-25.7476"/>
<polygon fill="#cccccc" stroke="#cccccc" points="2634.59,-29.0037 2642.63,-22.1074 2632.04,-22.4828 2634.59,-29.0037"/>
</g>
<!-- _IntegerType -->
<g id="node30" class="node">
<g id="a_node30"><a xlink:href="/swift-2/protocol/_IntegerType/" target="_top">
<path fill="#999999" stroke="#999999" d="M1329.71,-196C1329.71,-196 1264.29,-196 1264.29,-196 1260.63,-196 1256.96,-192.333 1256.96,-188.667 1256.96,-188.667 1256.96,-181.333 1256.96,-181.333 1256.96,-177.667 1260.63,-174 1264.29,-174 1264.29,-174 1329.71,-174 1329.71,-174 1333.37,-174 1337.04,-177.667 1337.04,-181.333 1337.04,-181.333 1337.04,-188.667 1337.04,-188.667 1337.04,-192.333 1333.37,-196 1329.71,-196"/>
<text text-anchor="middle" x="1297" y="-181.4" font-family="Helvetica,sans-Serif" font-size="12.00" fill="white">_IntegerType</text>
</a>
</g>
</g>
<!-- Hashable&#45;&gt;_IntegerType -->
<g id="edge23" class="edge">
<path fill="none" stroke="#cccccc" d="M1297,-231.988C1297,-224.91 1297,-215.171 1297,-206.478"/>
<polygon fill="#cccccc" stroke="#cccccc" points="1300.5,-206.304 1297,-196.304 1293.5,-206.304 1300.5,-206.304"/>
</g>
<!-- Int&#45;&gt;Bit -->
<g id="edge24" class="edge">
<path fill="none" stroke="#cccccc" d="M1170.16,-11C1193.63,-11 1217.09,-11 1240.56,-11"/>
<polygon fill="#cccccc" stroke="#cccccc" points="1240.62,-14.5001 1250.62,-11 1240.62,-7.5001 1240.62,-14.5001"/>
</g>
<!-- IntegerType -->
<g id="node15" class="node">
<g id="a_node15"><a xlink:href="/swift-2/protocol/IntegerType/" target="_top">
<path fill="#999999" stroke="#999999" d="M1326.2,-138C1326.2,-138 1267.8,-138 1267.8,-138 1264.13,-138 1260.47,-134.333 1260.47,-130.667 1260.47,-130.667 1260.47,-123.333 1260.47,-123.333 1260.47,-119.667 1264.13,-116 1267.8,-116 1267.8,-116 1326.2,-116 1326.2,-116 1329.87,-116 1333.53,-119.667 1333.53,-123.333 1333.53,-123.333 1333.53,-130.667 1333.53,-130.667 1333.53,-134.333 1329.87,-138 1326.2,-138"/>
<text text-anchor="middle" x="1297" y="-123.4" font-family="Helvetica,sans-Serif" font-size="12.00" fill="white">IntegerType</text>
</a>
</g>
</g>
<!-- IntegerType&#45;&gt;Int -->
<g id="edge38" class="edge">
<path fill="none" stroke="#cccccc" d="M1292.97,-115.861C1286.68,-101.234 1273.23,-74.1951 1254,-58 1232.6,-39.9747 1203.14,-28.2092 1179.96,-21.0927"/>
<polygon fill="#cccccc" stroke="#cccccc" points="1180.7,-17.664 1170.12,-18.2335 1178.75,-24.3857 1180.7,-17.664"/>
</g>
<!-- IntegerType&#45;&gt;Int16 -->
<g id="edge39" class="edge">
<path fill="none" stroke="#cccccc" d="M1260.55,-125.355C1174.45,-123.282 952.008,-114.713 770,-80 701.157,-66.8704 623.417,-41.2749 578.813,-25.5048"/>
<polygon fill="#cccccc" stroke="#cccccc" points="579.874,-22.1674 569.279,-22.1049 577.522,-28.7606 579.874,-22.1674"/>
</g>
<!-- IntegerType&#45;&gt;Int32 -->
<g id="edge40" class="edge">
<path fill="none" stroke="#cccccc" d="M1260.54,-124.194C1164.85,-119.175 908.333,-103.837 827,-80 786.439,-68.1124 743.616,-43.7988 717.851,-27.6999"/>
<polygon fill="#cccccc" stroke="#cccccc" points="719.484,-24.5902 709.167,-22.1786 715.728,-30.4974 719.484,-24.5902"/>
</g>
<!-- IntegerType&#45;&gt;Int64 -->
<g id="edge41" class="edge">
<path fill="none" stroke="#cccccc" d="M1260.65,-117.525C1170.28,-96.4576 936.219,-41.8916 845.085,-20.6455"/>
<polygon fill="#cccccc" stroke="#cccccc" points="845.735,-17.2033 835.201,-18.3414 844.145,-24.0204 845.735,-17.2033"/>
</g>
<!-- IntegerType&#45;&gt;Int8 -->
<g id="edge42" class="edge">
<path fill="none" stroke="#cccccc" d="M1280.76,-115.939C1258.15,-102.107 1215.69,-76.7951 1178,-58 1154.57,-46.3152 1127.46,-34.6818 1106.4,-26.0374"/>
<polygon fill="#cccccc" stroke="#cccccc" points="1107.46,-22.6926 1096.88,-22.1669 1104.83,-29.1767 1107.46,-22.6926"/>
</g>
<!-- SignedIntegerType -->
<g id="node18" class="node">
<g id="a_node18"><a xlink:href="/swift-2/protocol/SignedIntegerType/" target="_top">
<path fill="#999999" stroke="#999999" d="M938.727,-80C938.727,-80 843.273,-80 843.273,-80 839.606,-80 835.94,-76.3333 835.94,-72.6667 835.94,-72.6667 835.94,-65.3333 835.94,-65.3333 835.94,-61.6667 839.606,-58 843.273,-58 843.273,-58 938.727,-58 938.727,-58 942.394,-58 946.06,-61.6667 946.06,-65.3333 946.06,-65.3333 946.06,-72.6667 946.06,-72.6667 946.06,-76.3333 942.394,-80 938.727,-80"/>
<text text-anchor="middle" x="891" y="-65.4" font-family="Helvetica,sans-Serif" font-size="12.00" fill="white">SignedIntegerType</text>
</a>
</g>
</g>
<!-- IntegerType&#45;&gt;SignedIntegerType -->
<g id="edge43" class="edge">
<path fill="none" stroke="#cccccc" d="M1260.61,-120.981C1192,-111.517 1042.63,-90.9151 956.255,-79.0007"/>
<polygon fill="#cccccc" stroke="#cccccc" points="956.685,-75.5269 946.3,-77.6276 955.728,-82.4613 956.685,-75.5269"/>
</g>
<!-- IntegerType&#45;&gt;UInt -->
<g id="edge44" class="edge">
<path fill="none" stroke="#cccccc" d="M1301.43,-115.576C1308.02,-101.088 1321.63,-74.7594 1340,-58 1355.42,-43.9279 1375.95,-33.0006 1393.5,-25.3342"/>
<polygon fill="#cccccc" stroke="#cccccc" points="1395.02,-28.494 1402.9,-21.4114 1392.32,-22.0344 1395.02,-28.494"/>
</g>
<!-- IntegerType&#45;&gt;UInt16 -->
<g id="edge45" class="edge">
<path fill="none" stroke="#cccccc" d="M1318.92,-115.883C1362.95,-95.5596 1462.27,-49.7217 1512.96,-26.3252"/>
<polygon fill="#cccccc" stroke="#cccccc" points="1514.52,-29.4626 1522.13,-22.0941 1511.58,-23.1068 1514.52,-29.4626"/>
</g>
<!-- IntegerType&#45;&gt;UInt32 -->
<g id="edge46" class="edge">
<path fill="none" stroke="#cccccc" d="M1333.76,-118.254C1432.41,-97.4657 1702.2,-40.6157 1801.06,-19.7838"/>
<polygon fill="#cccccc" stroke="#cccccc" points="1801.84,-23.1975 1810.9,-17.7107 1800.39,-16.3479 1801.84,-23.1975"/>
</g>
<!-- IntegerType&#45;&gt;UInt64 -->
<g id="edge47" class="edge">
<path fill="none" stroke="#cccccc" d="M1333.53,-125.26C1414.79,-123.02 1616.33,-114.179 1781,-80 1843.99,-66.9257 1914.66,-41.5784 1955.58,-25.7945"/>
<polygon fill="#cccccc" stroke="#cccccc" points="1957.02,-28.9881 1965.07,-22.0976 1954.48,-22.4653 1957.02,-28.9881"/>
</g>
<!-- IntegerType&#45;&gt;UInt8 -->
<g id="edge48" class="edge">
<path fill="none" stroke="#cccccc" d="M1333.59,-125.281C1421.11,-123.04 1649.14,-114.121 1836,-80 1909.23,-66.628 1992.32,-40.5567 2039.01,-24.8681"/>
<polygon fill="#cccccc" stroke="#cccccc" points="2040.34,-28.1148 2048.69,-21.5914 2038.09,-21.4849 2040.34,-28.1148"/>
</g>
<!-- UnsignedIntegerType -->
<g id="node28" class="node">
<g id="a_node28"><a xlink:href="/swift-2/protocol/UnsignedIntegerType/" target="_top">
<path fill="#999999" stroke="#999999" d="M1764.73,-80C1764.73,-80 1655.27,-80 1655.27,-80 1651.61,-80 1647.94,-76.3333 1647.94,-72.6667 1647.94,-72.6667 1647.94,-65.3333 1647.94,-65.3333 1647.94,-61.6667 1651.61,-58 1655.27,-58 1655.27,-58 1764.73,-58 1764.73,-58 1768.39,-58 1772.06,-61.6667 1772.06,-65.3333 1772.06,-65.3333 1772.06,-72.6667 1772.06,-72.6667 1772.06,-76.3333 1768.39,-80 1764.73,-80"/>
<text text-anchor="middle" x="1710" y="-65.4" font-family="Helvetica,sans-Serif" font-size="12.00" fill="white">UnsignedIntegerType</text>
</a>
</g>
</g>
<!-- IntegerType&#45;&gt;UnsignedIntegerType -->
<g id="edge49" class="edge">
<path fill="none" stroke="#cccccc" d="M1333.65,-121.03C1401.8,-111.79 1549.13,-91.8132 1637.89,-79.7775"/>
<polygon fill="#cccccc" stroke="#cccccc" points="1638.45,-83.2343 1647.89,-78.4224 1637.51,-76.2978 1638.45,-83.2343"/>
</g>
<!-- SignedIntegerType&#45;&gt;Int -->
<g id="edge50" class="edge">
<path fill="none" stroke="#cccccc" d="M942.7,-57.9138C984.357,-49.5777 1044.64,-37.0452 1106.06,-22.1277"/>
<polygon fill="#cccccc" stroke="#cccccc" points="1107.04,-25.4905 1115.92,-19.7133 1105.37,-18.6912 1107.04,-25.4905"/>
</g>
<!-- SignedIntegerType&#45;&gt;Int16 -->
<g id="edge51" class="edge">
<path fill="none" stroke="#cccccc" d="M835.7,-59.1266C763.931,-47.6107 640.633,-27.8266 579.138,-17.9591"/>
<polygon fill="#cccccc" stroke="#cccccc" points="579.536,-14.4782 569.107,-16.3496 578.427,-21.3898 579.536,-14.4782"/>
</g>
<!-- SignedIntegerType&#45;&gt;Int32 -->
<g id="edge52" class="edge">
<path fill="none" stroke="#cccccc" d="M855.78,-57.9883C820.626,-47.9952 766.823,-32.7008 731.041,-22.5293"/>
<polygon fill="#cccccc" stroke="#cccccc" points="731.582,-19.0447 721.006,-19.6769 729.668,-25.7779 731.582,-19.0447"/>
</g>
<!-- SignedIntegerType&#45;&gt;Int64 -->
<g id="edge53" class="edge">
<path fill="none" stroke="#cccccc" d="M876.161,-57.9883C863.728,-49.5993 845.757,-37.4743 831.389,-27.7804"/>
<polygon fill="#cccccc" stroke="#cccccc" points="833.237,-24.8055 822.99,-22.1138 829.322,-30.6083 833.237,-24.8055"/>
</g>
<!-- SignedIntegerType&#45;&gt;Int8 -->
<g id="edge54" class="edge">
<path fill="none" stroke="#cccccc" d="M923.18,-57.9883C954.339,-48.2947 1001.53,-33.6128 1034.17,-23.4573"/>
<polygon fill="#cccccc" stroke="#cccccc" points="1035.29,-26.7742 1043.8,-20.4615 1033.21,-20.0902 1035.29,-26.7742"/>
</g>
<!-- UnsignedIntegerType&#45;&gt;UInt -->
<g id="edge55" class="edge">
<path fill="none" stroke="#cccccc" d="M1659.94,-57.9883C1604.58,-46.9155 1516.67,-29.3339 1467.12,-19.4249"/>
<polygon fill="#cccccc" stroke="#cccccc" points="1467.65,-15.9612 1457.16,-17.432 1466.28,-22.8252 1467.65,-15.9612"/>
</g>
<!-- UnsignedIntegerType&#45;&gt;UInt16 -->
<g id="edge56" class="edge">
<path fill="none" stroke="#cccccc" d="M1680.32,-57.9883C1652.51,-48.6044 1610.83,-34.5458 1580.89,-24.4442"/>
<polygon fill="#cccccc" stroke="#cccccc" points="1581.81,-21.0628 1571.22,-21.1826 1579.58,-27.6955 1581.81,-21.0628"/>
</g>
<!-- UnsignedIntegerType&#45;&gt;UInt32 -->
<g id="edge57" class="edge">
<path fill="none" stroke="#cccccc" d="M1732.88,-57.9883C1753.14,-49.1244 1782.94,-36.0897 1805.64,-26.1587"/>
<polygon fill="#cccccc" stroke="#cccccc" points="1807.12,-29.3286 1814.88,-22.1138 1804.32,-22.9155 1807.12,-29.3286"/>
</g>
<!-- UnsignedIntegerType&#45;&gt;UInt64 -->
<g id="edge58" class="edge">
<path fill="none" stroke="#cccccc" d="M1760.06,-57.9883C1815.42,-46.9155 1903.33,-29.3339 1952.88,-19.4249"/>
<polygon fill="#cccccc" stroke="#cccccc" points="1953.72,-22.8252 1962.84,-17.432 1952.35,-15.9612 1953.72,-22.8252"/>
</g>
<!-- UnsignedIntegerType&#45;&gt;UInt8 -->
<g id="edge59" class="edge">
<path fill="none" stroke="#cccccc" d="M1772.21,-59.9318C1836.05,-51.421 1938.18,-37.1629 2026,-22 2030.17,-21.2799 2034.53,-20.4799 2038.86,-19.655"/>
<polygon fill="#cccccc" stroke="#cccccc" points="2039.66,-23.0645 2048.8,-17.7111 2038.32,-16.1945 2039.66,-23.0645"/>
</g>
<!-- _DisallowMixedSignArithmetic -->
<g id="node29" class="node">
<g id="a_node29"><a xlink:href="/swift-2/protocol/_DisallowMixedSignArithmetic/" target="_top">
<path fill="#999999" stroke="#999999" d="M1787.71,-138C1787.71,-138 1632.29,-138 1632.29,-138 1628.62,-138 1624.96,-134.333 1624.96,-130.667 1624.96,-130.667 1624.96,-123.333 1624.96,-123.333 1624.96,-119.667 1628.62,-116 1632.29,-116 1632.29,-116 1787.71,-116 1787.71,-116 1791.38,-116 1795.04,-119.667 1795.04,-123.333 1795.04,-123.333 1795.04,-130.667 1795.04,-130.667 1795.04,-134.333 1791.38,-138 1787.71,-138"/>
<text text-anchor="middle" x="1710" y="-123.4" font-family="Helvetica,sans-Serif" font-size="12.00" fill="white">_DisallowMixedSignArithmetic</text>
</a>
</g>
</g>
<!-- _DisallowMixedSignArithmetic&#45;&gt;UInt -->
<g id="edge60" class="edge">
<path fill="none" stroke="#cccccc" d="M1685.15,-115.883C1634.92,-95.4329 1521.24,-49.1489 1464.12,-25.8901"/>
<polygon fill="#cccccc" stroke="#cccccc" points="1465.37,-22.6234 1454.79,-22.0941 1462.73,-29.1066 1465.37,-22.6234"/>
</g>
<!-- _DisallowMixedSignArithmetic&#45;&gt;UInt16 -->
<g id="edge61" class="edge">
<path fill="none" stroke="#cccccc" d="M1694.07,-115.977C1679.59,-106.795 1657.69,-92.7352 1639,-80 1613.56,-62.669 1584.9,-41.9895 1565.77,-28.0218"/>
<polygon fill="#cccccc" stroke="#cccccc" points="1567.84,-25.1966 1557.7,-22.1127 1563.7,-30.8444 1567.84,-25.1966"/>
</g>
<!-- _DisallowMixedSignArithmetic&#45;&gt;UInt32 -->
<g id="edge62" class="edge">
<path fill="none" stroke="#cccccc" d="M1728.86,-115.862C1743.82,-107.346 1764.83,-94.3017 1781,-80 1798.01,-64.9585 1814.33,-44.6934 1825.11,-30.2073"/>
<polygon fill="#cccccc" stroke="#cccccc" points="1828.01,-32.1762 1831.07,-22.0329 1822.35,-28.0539 1828.01,-32.1762"/>
</g>
<!-- _DisallowMixedSignArithmetic&#45;&gt;UInt64 -->
<g id="edge63" class="edge">
<path fill="none" stroke="#cccccc" d="M1734.85,-115.883C1785.08,-95.4329 1898.76,-49.1489 1955.88,-25.8901"/>
<polygon fill="#cccccc" stroke="#cccccc" points="1957.27,-29.1066 1965.21,-22.0941 1954.63,-22.6234 1957.27,-29.1066"/>
</g>
<!-- _DisallowMixedSignArithmetic&#45;&gt;UInt8 -->
<g id="edge64" class="edge">
<path fill="none" stroke="#cccccc" d="M1744.31,-115.966C1775.56,-106.776 1822.95,-92.7122 1864,-80 1925.7,-60.8923 1997.18,-37.7562 2039.38,-23.9921"/>
<polygon fill="#cccccc" stroke="#cccccc" points="2040.53,-27.3 2048.95,-20.8694 2038.36,-20.6457 2040.53,-27.3"/>
</g>
<!-- _DisallowMixedSignArithmetic&#45;&gt;UnsignedIntegerType -->
<g id="edge65" class="edge">
<path fill="none" stroke="#cccccc" d="M1710,-115.988C1710,-108.91 1710,-99.1714 1710,-90.4779"/>
<polygon fill="#cccccc" stroke="#cccccc" points="1713.5,-90.3038 1710,-80.3039 1706.5,-90.3039 1713.5,-90.3038"/>
</g>
<!-- _IntegerType&#45;&gt;Int -->
<g id="edge25" class="edge">
<path fill="none" stroke="#cccccc" d="M1286.54,-173.989C1277.06,-164.816 1262.82,-150.762 1251,-138 1216.33,-100.559 1177.94,-54.6128 1157.57,-29.8526"/>
<polygon fill="#cccccc" stroke="#cccccc" points="1160.2,-27.5403 1151.15,-22.0268 1154.78,-31.9788 1160.2,-27.5403"/>
</g>
<!-- _IntegerType&#45;&gt;Int16 -->
<g id="edge26" class="edge">
<path fill="none" stroke="#cccccc" d="M1256.66,-183.723C1163.64,-182.431 927.288,-175.401 734,-138 648.568,-121.469 601.154,-148.113 547,-80 536.433,-66.7094 536.138,-46.9645 537.921,-32.1704"/>
<polygon fill="#cccccc" stroke="#cccccc" points="541.423,-32.44 539.554,-22.0112 534.511,-31.3289 541.423,-32.44"/>
</g>
<!-- _IntegerType&#45;&gt;Int32 -->
<g id="edge27" class="edge">
<path fill="none" stroke="#cccccc" d="M1256.95,-182.367C1155.27,-177.884 889.239,-163.961 805,-138 754.052,-122.299 729.086,-124.68 700,-80 690.919,-66.0498 689.996,-46.9382 691.013,-32.528"/>
<polygon fill="#cccccc" stroke="#cccccc" points="694.538,-32.4843 692.126,-22.1676 687.578,-31.7366 694.538,-32.4843"/>
</g>
<!-- _IntegerType&#45;&gt;Int64 -->
<g id="edge28" class="edge">
<path fill="none" stroke="#cccccc" d="M1256.97,-182.853C1148.43,-179.367 854.542,-167.29 823,-138 794.071,-111.136 798.294,-60.1361 803.43,-31.9579"/>
<polygon fill="#cccccc" stroke="#cccccc" points="806.882,-32.5502 805.449,-22.0527 800.023,-31.1525 806.882,-32.5502"/>
</g>
<!-- _IntegerType&#45;&gt;Int8 -->
<g id="edge29" class="edge">
<path fill="none" stroke="#cccccc" d="M1281.11,-173.974C1266.95,-164.904 1245.77,-151.016 1228,-138 1177.19,-100.785 1120.11,-53.5263 1090.77,-28.8062"/>
<polygon fill="#cccccc" stroke="#cccccc" points="1092.82,-25.9575 1082.93,-22.1758 1088.31,-31.3039 1092.82,-25.9575"/>
</g>
<!-- _IntegerType&#45;&gt;IntegerType -->
<g id="edge30" class="edge">
<path fill="none" stroke="#cccccc" d="M1297,-173.988C1297,-166.91 1297,-157.171 1297,-148.478"/>
<polygon fill="#cccccc" stroke="#cccccc" points="1300.5,-148.304 1297,-138.304 1293.5,-148.304 1300.5,-148.304"/>
</g>
<!-- _IntegerType&#45;&gt;UInt -->
<g id="edge31" class="edge">
<path fill="none" stroke="#cccccc" d="M1307.88,-173.867C1317.33,-164.84 1331.16,-151.075 1342,-138 1371.89,-101.931 1402.17,-56.0717 1418.25,-30.8158"/>
<polygon fill="#cccccc" stroke="#cccccc" points="1421.31,-32.5324 1423.69,-22.2084 1415.39,-28.7947 1421.31,-32.5324"/>
</g>
<!-- _IntegerType&#45;&gt;UInt16 -->
<g id="edge32" class="edge">
<path fill="none" stroke="#cccccc" d="M1312.18,-173.849C1326,-164.581 1346.93,-150.467 1365,-138 1421.56,-98.9653 1487.54,-52.2041 1521.4,-28.1112"/>
<polygon fill="#cccccc" stroke="#cccccc" points="1523.56,-30.8679 1529.68,-22.217 1519.5,-25.1655 1523.56,-30.8679"/>
</g>
<!-- _IntegerType&#45;&gt;UInt32 -->
<g id="edge33" class="edge">
<path fill="none" stroke="#cccccc" d="M1337.19,-182.958C1450.82,-179.654 1768.52,-167.816 1804,-138 1835.09,-111.877 1839.31,-60.5811 1839.05,-32.1581"/>
<polygon fill="#cccccc" stroke="#cccccc" points="1842.55,-32.0553 1838.76,-22.1607 1835.55,-32.2578 1842.55,-32.0553"/>
</g>
<!-- _IntegerType&#45;&gt;UInt64 -->
<g id="edge34" class="edge">
<path fill="none" stroke="#cccccc" d="M1337.25,-183.426C1444.98,-181.429 1737.74,-172.858 1827,-138 1888.86,-113.841 1946.73,-58.4463 1973.86,-29.8333"/>
<polygon fill="#cccccc" stroke="#cccccc" points="1976.72,-31.9023 1980.97,-22.1987 1971.59,-27.132 1976.72,-31.9023"/>
</g>
<!-- _IntegerType&#45;&gt;UInt8 -->
<g id="edge35" class="edge">
<path fill="none" stroke="#cccccc" d="M1337.3,-183.072C1449.7,-180.115 1764.81,-169.197 1863,-138 1940.01,-113.533 2018.82,-57.016 2055.23,-28.7421"/>
<polygon fill="#cccccc" stroke="#cccccc" points="2057.85,-31.1333 2063.54,-22.199 2053.52,-25.6321 2057.85,-31.1333"/>
</g>
<!-- _IntegerType&#45;&gt;_DisallowMixedSignArithmetic -->
<g id="edge36" class="edge">
<path fill="none" stroke="#cccccc" d="M1337.35,-178.529C1404,-169.492 1538.42,-151.265 1626.28,-139.352"/>
<polygon fill="#cccccc" stroke="#cccccc" points="1626.79,-142.815 1636.23,-138.003 1625.85,-135.879 1626.79,-142.815"/>
</g>
<!-- _SignedIntegerType -->
<g id="node31" class="node">
<g id="a_node31"><a xlink:href="/swift-2/protocol/_SignedIntegerType/" target="_top">
<path fill="#999999" stroke="#999999" d="M942.231,-138C942.231,-138 839.769,-138 839.769,-138 836.102,-138 832.436,-134.333 832.436,-130.667 832.436,-130.667 832.436,-123.333 832.436,-123.333 832.436,-119.667 836.102,-116 839.769,-116 839.769,-116 942.231,-116 942.231,-116 945.898,-116 949.564,-119.667 949.564,-123.333 949.564,-123.333 949.564,-130.667 949.564,-130.667 949.564,-134.333 945.898,-138 942.231,-138"/>
<text text-anchor="middle" x="891" y="-123.4" font-family="Helvetica,sans-Serif" font-size="12.00" fill="white">_SignedIntegerType</text>
</a>
</g>
</g>
<!-- _IntegerType&#45;&gt;_SignedIntegerType -->
<g id="edge37" class="edge">
<path fill="none" stroke="#cccccc" d="M1256.96,-178.477C1187.75,-168.932 1045,-149.242 959.68,-137.473"/>
<polygon fill="#cccccc" stroke="#cccccc" points="959.953,-133.978 949.568,-136.078 958.996,-140.912 959.953,-133.978"/>
</g>
<!-- _SignedIntegerType&#45;&gt;Int -->
<g id="edge66" class="edge">
<path fill="none" stroke="#cccccc" d="M914.174,-115.863C935.278,-106.604 967.283,-92.4965 995,-80 1035.71,-61.6475 1082.51,-40.0628 1112.39,-26.2163"/>
<polygon fill="#cccccc" stroke="#cccccc" points="1113.87,-29.388 1121.47,-22.0065 1110.93,-23.0373 1113.87,-29.388"/>
</g>
<!-- _SignedIntegerType&#45;&gt;Int16 -->
<g id="edge67" class="edge">
<path fill="none" stroke="#cccccc" d="M832.568,-124.835C750.237,-122.033 605.684,-112.49 566,-80 551.813,-68.3851 546.004,-47.8046 543.63,-32.318"/>
<polygon fill="#cccccc" stroke="#cccccc" points="547.078,-31.6673 542.437,-22.1426 540.125,-32.482 547.078,-31.6673"/>
</g>
<!-- _SignedIntegerType&#45;&gt;Int32 -->
<g id="edge68" class="edge">
<path fill="none" stroke="#cccccc" d="M832.246,-123.963C795.246,-119.702 748.821,-108.466 718,-80 704.679,-67.6968 698.749,-47.5473 696.111,-32.3689"/>
<polygon fill="#cccccc" stroke="#cccccc" points="699.565,-31.797 694.713,-22.3785 692.632,-32.767 699.565,-31.797"/>
</g>
<!-- _SignedIntegerType&#45;&gt;Int64 -->
<g id="edge69" class="edge">
<path fill="none" stroke="#cccccc" d="M870.247,-115.896C856.086,-107.987 837.975,-95.7014 827,-80 817.137,-65.8889 812.377,-46.793 810.09,-32.4297"/>
<polygon fill="#cccccc" stroke="#cccccc" points="813.507,-31.5702 808.735,-22.1108 806.567,-32.4813 813.507,-31.5702"/>
</g>
<!-- _SignedIntegerType&#45;&gt;Int8 -->
<g id="edge70" class="edge">
<path fill="none" stroke="#cccccc" d="M906.974,-115.883C938.463,-95.9399 1008.75,-51.4281 1046.27,-27.6618"/>
<polygon fill="#cccccc" stroke="#cccccc" points="1048.49,-30.4015 1055.06,-22.0941 1044.74,-24.4878 1048.49,-30.4015"/>
</g>
<!-- _SignedIntegerType&#45;&gt;SignedIntegerType -->
<g id="edge71" class="edge">
<path fill="none" stroke="#cccccc" d="M891,-115.988C891,-108.91 891,-99.1714 891,-90.4779"/>
<polygon fill="#cccccc" stroke="#cccccc" points="894.5,-90.3038 891,-80.3039 887.5,-90.3039 894.5,-90.3038"/>
</g>
</g>
</svg>
