<?xml version="1.0" encoding="UTF-8" standalone="no"?>
<!DOCTYPE svg PUBLIC "-//W3C//DTD SVG 1.1//EN"
 "http://www.w3.org/Graphics/SVG/1.1/DTD/svg11.dtd">
<!-- Generated by graphviz version 2.36.0 (20140111.2315)
 -->
<!-- Title: __ArrayType &#45; Type Hierarchy &#45; SwiftDoc.org Pages: 1 -->
<svg width="268pt" height="369pt"
 viewBox="0.00 0.00 268.40 369.20" xmlns="http://www.w3.org/2000/svg" xmlns:xlink="http://www.w3.org/1999/xlink">
<g id="graph0" class="graph" transform="scale(1 1) rotate(0) translate(7.2 311.6)">
<title>__ArrayType &#45; Type Hierarchy &#45; SwiftDoc.org</title>
<polygon fill="white" stroke="none" points="-7.2,57.6 -7.2,-311.6 261.2,-311.6 261.2,57.6 -7.2,57.6"/>
<!-- Array -->
<g id="node1" class="node"><title>Array</title>
<g id="a_node1"><a xlink:href="/type/Array/" xlink:title="Array">
<polygon fill="#999999" stroke="#999999" points="54,-22 0,-22 0,-0 54,-0 54,-22"/>
<text text-anchor="middle" x="27" y="-7.4" font-family="Helvetica,sans-Serif" font-size="12.00" fill="white">Array</text>
</a>
</g>
</g>
<!-- ArraySlice -->
<g id="node2" class="node"><title>ArraySlice</title>
<g id="a_node2"><a xlink:href="/type/ArraySlice/" xlink:title="ArraySlice">
<polygon fill="#999999" stroke="#999999" points="136.011,-22 71.9886,-22 71.9886,-0 136.011,-0 136.011,-22"/>
<text text-anchor="middle" x="104" y="-7.4" font-family="Helvetica,sans-Serif" font-size="12.00" fill="white">ArraySlice</text>
</a>
</g>
</g>
<!-- ContiguousArray -->
<g id="node3" class="node"><title>ContiguousArray</title>
<g id="a_node3"><a xlink:href="/type/ContiguousArray/" xlink:title="ContiguousArray">
<polygon fill="#999999" stroke="#999999" points="253.534,-22 154.466,-22 154.466,-0 253.534,-0 253.534,-22"/>
<text text-anchor="middle" x="204" y="-7.4" font-family="Helvetica,sans-Serif" font-size="12.00" fill="white">ContiguousArray</text>
</a>
</g>
</g>
<!-- _ArrayType -->
<g id="node4" class="node"><title>_ArrayType</title>
<g id="a_node4"><a xlink:href="/protocol/_ArrayType/" xlink:title="_ArrayType">
<path fill="#999999" stroke="#999999" d="M125.19,-80C125.19,-80 68.8102,-80 68.8102,-80 65.1436,-80 61.4769,-76.3333 61.4769,-72.6667 61.4769,-72.6667 61.4769,-65.3333 61.4769,-65.3333 61.4769,-61.6667 65.1436,-58 68.8102,-58 68.8102,-58 125.19,-58 125.19,-58 128.856,-58 132.523,-61.6667 132.523,-65.3333 132.523,-65.3333 132.523,-72.6667 132.523,-72.6667 132.523,-76.3333 128.856,-80 125.19,-80"/>
<text text-anchor="middle" x="97" y="-65.4" font-family="Helvetica,sans-Serif" font-size="12.00" fill="white">_ArrayType</text>
</a>
</g>
</g>
<!-- _ArrayType&#45;&gt;Array -->
<g id="edge5" class="edge"><title>_ArrayType&#45;&gt;Array</title>
<path fill="none" stroke="#cccccc" d="M84.4854,-57.9883C74.3592,-49.8873 59.8782,-38.3026 47.9842,-28.7873"/>
<polygon fill="#cccccc" stroke="#cccccc" points="49.875,-25.8178 39.8798,-22.3039 45.5021,-31.2839 49.875,-25.8178"/>
</g>
<!-- _ArrayType&#45;&gt;ArraySlice -->
<g id="edge6" class="edge"><title>_ArrayType&#45;&gt;ArraySlice</title>
<path fill="none" stroke="#cccccc" d="M98.2515,-57.9883C99.1363,-50.9098 100.354,-41.1714 101.44,-32.4779"/>
<polygon fill="#cccccc" stroke="#cccccc" points="104.945,-32.6608 102.712,-22.3039 97.9986,-31.7925 104.945,-32.6608"/>
</g>
<!-- _ArrayType&#45;&gt;ContiguousArray -->
<g id="edge7" class="edge"><title>_ArrayType&#45;&gt;ContiguousArray</title>
<path fill="none" stroke="#cccccc" d="M116.129,-57.9883C132.688,-49.3223 156.864,-36.6696 175.667,-26.8283"/>
<polygon fill="#cccccc" stroke="#cccccc" points="177.438,-29.8518 184.675,-22.1138 174.192,-23.6499 177.438,-29.8518"/>
</g>
<!-- _CollectionType -->
<g id="node5" class="node"><title>_CollectionType</title>
<g id="a_node5"><a xlink:href="/protocol/_CollectionType/" xlink:title="_CollectionType">
<path fill="#999999" stroke="#999999" d="M169.208,-196C169.208,-196 88.7925,-196 88.7925,-196 85.1258,-196 81.4591,-192.333 81.4591,-188.667 81.4591,-188.667 81.4591,-181.333 81.4591,-181.333 81.4591,-177.667 85.1258,-174 88.7925,-174 88.7925,-174 169.208,-174 169.208,-174 172.874,-174 176.541,-177.667 176.541,-181.333 176.541,-181.333 176.541,-188.667 176.541,-188.667 176.541,-192.333 172.874,-196 169.208,-196"/>
<text text-anchor="middle" x="129" y="-181.4" font-family="Helvetica,sans-Serif" font-size="12.00" fill="white">_CollectionType</text>
</a>
</g>
</g>
<!-- __ArrayType -->
<g id="node7" class="node"><title>__ArrayType</title>
<g id="a_node7"><a xlink:href="/protocol/__ArrayType/" xlink:title="__ArrayType">
<path fill="#ee543d" stroke="#ee543d" d="M160.696,-138C160.696,-138 97.304,-138 97.304,-138 93.6374,-138 89.9707,-134.333 89.9707,-130.667 89.9707,-130.667 89.9707,-123.333 89.9707,-123.333 89.9707,-119.667 93.6374,-116 97.304,-116 97.304,-116 160.696,-116 160.696,-116 164.363,-116 168.029,-119.667 168.029,-123.333 168.029,-123.333 168.029,-130.667 168.029,-130.667 168.029,-134.333 164.363,-138 160.696,-138"/>
<text text-anchor="middle" x="129" y="-123.4" font-family="Helvetica,sans-Serif" font-size="12.00" fill="white">__ArrayType</text>
</a>
</g>
</g>
<!-- _CollectionType&#45;&gt;__ArrayType -->
<g id="edge8" class="edge"><title>_CollectionType&#45;&gt;__ArrayType</title>
<path fill="none" stroke="#cccccc" d="M129,-173.988C129,-166.91 129,-157.171 129,-148.478"/>
<polygon fill="#cccccc" stroke="#cccccc" points="132.5,-148.304 129,-138.304 125.5,-148.304 132.5,-148.304"/>
</g>
<!-- _SequenceType -->
<g id="node6" class="node"><title>_SequenceType</title>
<g id="a_node6"><a xlink:href="/protocol/_SequenceType/" xlink:title="_SequenceType">
<path fill="#999999" stroke="#999999" d="M169.724,-254C169.724,-254 88.2759,-254 88.2759,-254 84.6092,-254 80.9425,-250.333 80.9425,-246.667 80.9425,-246.667 80.9425,-239.333 80.9425,-239.333 80.9425,-235.667 84.6092,-232 88.2759,-232 88.2759,-232 169.724,-232 169.724,-232 173.391,-232 177.057,-235.667 177.057,-239.333 177.057,-239.333 177.057,-246.667 177.057,-246.667 177.057,-250.333 173.391,-254 169.724,-254"/>
<text text-anchor="middle" x="129" y="-239.4" font-family="Helvetica,sans-Serif" font-size="12.00" fill="white">_SequenceType</text>
</a>
</g>
</g>
<!-- _SequenceType&#45;&gt;_CollectionType -->
<g id="edge9" class="edge"><title>_SequenceType&#45;&gt;_CollectionType</title>
<path fill="none" stroke="#cccccc" d="M129,-231.988C129,-224.91 129,-215.171 129,-206.478"/>
<polygon fill="#cccccc" stroke="#cccccc" points="132.5,-206.304 129,-196.304 125.5,-206.304 132.5,-206.304"/>
</g>
<!-- __ArrayType&#45;&gt;Array -->
<g id="edge1" class="edge"><title>__ArrayType&#45;&gt;Array</title>
<path fill="none" stroke="#cccccc" d="M103.015,-115.9C86.4045,-108.266 65.5179,-96.3022 52,-80 40.6118,-66.2661 34.1684,-46.8754 30.6865,-32.3128"/>
<polygon fill="#cccccc" stroke="#cccccc" points="34.0607,-31.3515 28.5682,-22.2915 27.212,-32.7992 34.0607,-31.3515"/>
</g>
<!-- __ArrayType&#45;&gt;ArraySlice -->
<g id="edge2" class="edge"><title>__ArrayType&#45;&gt;ArraySlice</title>
<path fill="none" stroke="#cccccc" d="M134.038,-115.595C139.896,-102.018 147.931,-77.6741 141,-58 137.22,-47.27 129.762,-37.1967 122.526,-29.228"/>
<polygon fill="#cccccc" stroke="#cccccc" points="124.99,-26.7417 115.508,-22.0144 119.973,-31.6228 124.99,-26.7417"/>
</g>
<!-- __ArrayType&#45;&gt;ContiguousArray -->
<g id="edge3" class="edge"><title>__ArrayType&#45;&gt;ContiguousArray</title>
<path fill="none" stroke="#cccccc" d="M135.656,-115.883C148.244,-96.7488 175.712,-54.9984 191.728,-30.6529"/>
<polygon fill="#cccccc" stroke="#cccccc" points="194.679,-32.5358 197.251,-22.2579 188.831,-28.6885 194.679,-32.5358"/>
</g>
<!-- __ArrayType&#45;&gt;_ArrayType -->
<g id="edge4" class="edge"><title>__ArrayType&#45;&gt;_ArrayType</title>
<path fill="none" stroke="#cccccc" d="M123.279,-115.988C119.009,-108.517 113.046,-98.0812 107.88,-89.0393"/>
<polygon fill="#cccccc" stroke="#cccccc" points="110.888,-87.2498 102.888,-80.3039 104.811,-90.7228 110.888,-87.2498"/>
</g>
</g>
</svg>
