<?xml version="1.0" encoding="UTF-8" standalone="no"?>
<!DOCTYPE svg PUBLIC "-//W3C//DTD SVG 1.1//EN"
 "http://www.w3.org/Graphics/SVG/1.1/DTD/svg11.dtd">
<!-- Generated by graphviz version 2.36.0 (20140111.2315)
 -->
<!-- Title: BitwiseOperationsType &#45; Type Hierarchy &#45; SwiftDoc.org Pages: 1 -->
<svg width="987pt" height="369pt"
 viewBox="0.00 0.00 987.40 369.20" xmlns="http://www.w3.org/2000/svg" xmlns:xlink="http://www.w3.org/1999/xlink">
<g id="graph0" class="graph" transform="scale(1 1) rotate(0) translate(7.2 311.6)">
<title>BitwiseOperationsType &#45; Type Hierarchy &#45; SwiftDoc.org</title>
<polygon fill="white" stroke="none" points="-7.2,57.6 -7.2,-311.6 980.2,-311.6 980.2,57.6 -7.2,57.6"/>
<!-- Bit -->
<g id="node1" class="node"><title>Bit</title>
<g id="a_node1"><a xlink:href="/type/Bit/" xlink:title="Bit">
<polygon fill="#999999" stroke="#999999" points="126,-22 72,-22 72,-0 126,-0 126,-22"/>
<text text-anchor="middle" x="99" y="-7.4" font-family="Helvetica,sans-Serif" font-size="12.00" fill="white">Bit</text>
</a>
</g>
</g>
<!-- BitwiseOperationsType -->
<g id="node2" class="node"><title>BitwiseOperationsType</title>
<g id="a_node2"><a xlink:href="/protocol/BitwiseOperationsType/" xlink:title="BitwiseOperationsType">
<path fill="#ee543d" stroke="#ee543d" d="M556.715,-254C556.715,-254 439.285,-254 439.285,-254 435.618,-254 431.952,-250.333 431.952,-246.667 431.952,-246.667 431.952,-239.333 431.952,-239.333 431.952,-235.667 435.618,-232 439.285,-232 439.285,-232 556.715,-232 556.715,-232 560.382,-232 564.048,-235.667 564.048,-239.333 564.048,-239.333 564.048,-246.667 564.048,-246.667 564.048,-250.333 560.382,-254 556.715,-254"/>
<text text-anchor="middle" x="498" y="-239.4" font-family="Helvetica,sans-Serif" font-size="12.00" fill="white">BitwiseOperationsType</text>
</a>
</g>
</g>
<!-- Int -->
<g id="node3" class="node"><title>Int</title>
<g id="a_node3"><a xlink:href="/type/Int/" xlink:title="Int">
<polygon fill="#999999" stroke="#999999" points="54,-22 0,-22 0,-0 54,-0 54,-22"/>
<text text-anchor="middle" x="27" y="-7.4" font-family="Helvetica,sans-Serif" font-size="12.00" fill="white">Int</text>
</a>
</g>
</g>
<!-- BitwiseOperationsType&#45;&gt;Int -->
<g id="edge1" class="edge"><title>BitwiseOperationsType&#45;&gt;Int</title>
<path fill="none" stroke="#cccccc" d="M431.845,-241.176C374.906,-238.1 291.913,-227.834 227,-196 143.467,-155.034 69.9554,-68.006 40.5894,-30.1833"/>
<polygon fill="#cccccc" stroke="#cccccc" points="43.2505,-27.9015 34.3954,-22.0846 37.6903,-32.1541 43.2505,-27.9015"/>
</g>
<!-- Int16 -->
<g id="node4" class="node"><title>Int16</title>
<g id="a_node4"><a xlink:href="/type/Int16/" xlink:title="Int16">
<polygon fill="#999999" stroke="#999999" points="198,-22 144,-22 144,-0 198,-0 198,-22"/>
<text text-anchor="middle" x="171" y="-7.4" font-family="Helvetica,sans-Serif" font-size="12.00" fill="white">Int16</text>
</a>
</g>
</g>
<!-- BitwiseOperationsType&#45;&gt;Int16 -->
<g id="edge2" class="edge"><title>BitwiseOperationsType&#45;&gt;Int16</title>
<path fill="none" stroke="#cccccc" d="M431.949,-236.587C368.799,-230.206 279.277,-217.632 252,-196 199.233,-154.154 179.993,-70.8583 173.717,-32.3689"/>
<polygon fill="#cccccc" stroke="#cccccc" points="177.161,-31.7344 172.218,-22.3635 170.239,-32.7719 177.161,-31.7344"/>
</g>
<!-- Int32 -->
<g id="node5" class="node"><title>Int32</title>
<g id="a_node5"><a xlink:href="/type/Int32/" xlink:title="Int32">
<polygon fill="#999999" stroke="#999999" points="270,-22 216,-22 216,-0 270,-0 270,-22"/>
<text text-anchor="middle" x="243" y="-7.4" font-family="Helvetica,sans-Serif" font-size="12.00" fill="white">Int32</text>
</a>
</g>
</g>
<!-- BitwiseOperationsType&#45;&gt;Int32 -->
<g id="edge3" class="edge"><title>BitwiseOperationsType&#45;&gt;Int32</title>
<path fill="none" stroke="#cccccc" d="M431.598,-239.397C386.735,-234.978 327.755,-223.781 283,-196 255.047,-178.648 248.092,-168.975 237,-138 224.265,-102.439 231.414,-57.6017 237.434,-32.1293"/>
<polygon fill="#cccccc" stroke="#cccccc" points="240.89,-32.7402 239.964,-22.1859 234.106,-31.0138 240.89,-32.7402"/>
</g>
<!-- Int64 -->
<g id="node6" class="node"><title>Int64</title>
<g id="a_node6"><a xlink:href="/type/Int64/" xlink:title="Int64">
<polygon fill="#999999" stroke="#999999" points="342,-22 288,-22 288,-0 342,-0 342,-22"/>
<text text-anchor="middle" x="315" y="-7.4" font-family="Helvetica,sans-Serif" font-size="12.00" fill="white">Int64</text>
</a>
</g>
</g>
<!-- BitwiseOperationsType&#45;&gt;Int64 -->
<g id="edge4" class="edge"><title>BitwiseOperationsType&#45;&gt;Int64</title>
<path fill="none" stroke="#cccccc" d="M431.795,-237.017C394.701,-231.519 349.174,-220.015 315,-196 259.216,-156.8 216.24,-118.331 248,-58 255.034,-44.6379 267.897,-34.4085 280.485,-27.0279"/>
<polygon fill="#cccccc" stroke="#cccccc" points="282.379,-29.9832 289.516,-22.153 279.054,-23.8234 282.379,-29.9832"/>
</g>
<!-- Int8 -->
<g id="node7" class="node"><title>Int8</title>
<g id="a_node7"><a xlink:href="/type/Int8/" xlink:title="Int8">
<polygon fill="#999999" stroke="#999999" points="417,-22 363,-22 363,-0 417,-0 417,-22"/>
<text text-anchor="middle" x="390" y="-7.4" font-family="Helvetica,sans-Serif" font-size="12.00" fill="white">Int8</text>
</a>
</g>
</g>
<!-- BitwiseOperationsType&#45;&gt;Int8 -->
<g id="edge5" class="edge"><title>BitwiseOperationsType&#45;&gt;Int8</title>
<path fill="none" stroke="#cccccc" d="M443.164,-231.995C392.527,-219.533 320.153,-192.796 286,-138 251.813,-83.1501 354.449,-105.76 376,-80 387.094,-66.7398 390.151,-46.9912 390.695,-32.188"/>
<polygon fill="#cccccc" stroke="#cccccc" points="394.195,-32.0273 390.712,-22.0213 387.195,-32.0153 394.195,-32.0273"/>
</g>
<!-- RawOptionSetType -->
<g id="node9" class="node"><title>RawOptionSetType</title>
<g id="a_node9"><a xlink:href="/protocol/RawOptionSetType/" xlink:title="RawOptionSetType">
<path fill="#999999" stroke="#999999" d="M966.212,-196C966.212,-196 867.788,-196 867.788,-196 864.121,-196 860.455,-192.333 860.455,-188.667 860.455,-188.667 860.455,-181.333 860.455,-181.333 860.455,-177.667 864.121,-174 867.788,-174 867.788,-174 966.212,-174 966.212,-174 969.879,-174 973.545,-177.667 973.545,-181.333 973.545,-181.333 973.545,-188.667 973.545,-188.667 973.545,-192.333 969.879,-196 966.212,-196"/>
<text text-anchor="middle" x="917" y="-181.4" font-family="Helvetica,sans-Serif" font-size="12.00" fill="white">RawOptionSetType</text>
</a>
</g>
</g>
<!-- BitwiseOperationsType&#45;&gt;RawOptionSetType -->
<g id="edge6" class="edge"><title>BitwiseOperationsType&#45;&gt;RawOptionSetType</title>
<path fill="none" stroke="#cccccc" d="M564.089,-233.434C634.107,-224.319 747.879,-209.395 846,-196 847.465,-195.8 848.946,-195.597 850.44,-195.392"/>
<polygon fill="#cccccc" stroke="#cccccc" points="850.998,-198.848 860.425,-194.013 850.04,-191.914 850.998,-198.848"/>
</g>
<!-- UInt -->
<g id="node11" class="node"><title>UInt</title>
<g id="a_node11"><a xlink:href="/type/UInt/" xlink:title="UInt">
<polygon fill="#999999" stroke="#999999" points="567,-22 513,-22 513,-0 567,-0 567,-22"/>
<text text-anchor="middle" x="540" y="-7.4" font-family="Helvetica,sans-Serif" font-size="12.00" fill="white">UInt</text>
</a>
</g>
</g>
<!-- BitwiseOperationsType&#45;&gt;UInt -->
<g id="edge7" class="edge"><title>BitwiseOperationsType&#45;&gt;UInt</title>
<path fill="none" stroke="#cccccc" d="M501.839,-231.909C505.217,-222.682 510.045,-208.594 513,-196 526.782,-137.26 534.83,-66.2296 538.172,-32.1533"/>
<polygon fill="#cccccc" stroke="#cccccc" points="541.667,-32.3705 539.126,-22.0849 534.698,-31.71 541.667,-32.3705"/>
</g>
<!-- UInt16 -->
<g id="node12" class="node"><title>UInt16</title>
<g id="a_node12"><a xlink:href="/type/UInt16/" xlink:title="UInt16">
<polygon fill="#999999" stroke="#999999" points="647,-22 593,-22 593,-0 647,-0 647,-22"/>
<text text-anchor="middle" x="620" y="-7.4" font-family="Helvetica,sans-Serif" font-size="12.00" fill="white">UInt16</text>
</a>
</g>
</g>
<!-- BitwiseOperationsType&#45;&gt;UInt16 -->
<g id="edge8" class="edge"><title>BitwiseOperationsType&#45;&gt;UInt16</title>
<path fill="none" stroke="#cccccc" d="M546.911,-231.989C595.094,-219.241 666.117,-192.039 699,-138 706.543,-125.604 711.408,-83.7566 696,-58 687.167,-43.234 671.599,-32.6017 656.844,-25.3046"/>
<polygon fill="#cccccc" stroke="#cccccc" points="657.896,-21.9378 647.344,-20.981 654.996,-28.309 657.896,-21.9378"/>
</g>
<!-- UInt32 -->
<g id="node13" class="node"><title>UInt32</title>
<g id="a_node13"><a xlink:href="/type/UInt32/" xlink:title="UInt32">
<polygon fill="#999999" stroke="#999999" points="719,-22 665,-22 665,-0 719,-0 719,-22"/>
<text text-anchor="middle" x="692" y="-7.4" font-family="Helvetica,sans-Serif" font-size="12.00" fill="white">UInt32</text>
</a>
</g>
</g>
<!-- BitwiseOperationsType&#45;&gt;UInt32 -->
<g id="edge9" class="edge"><title>BitwiseOperationsType&#45;&gt;UInt32</title>
<path fill="none" stroke="#cccccc" d="M564.117,-234.512C620.002,-223.972 694.462,-198.662 717,-138 721.357,-126.274 720.996,-85.525 714,-58 711.644,-48.7286 707.356,-39.088 703.189,-31.0418"/>
<polygon fill="#cccccc" stroke="#cccccc" points="706.185,-29.2279 698.301,-22.1502 700.051,-32.5996 706.185,-29.2279"/>
</g>
<!-- UInt64 -->
<g id="node14" class="node"><title>UInt64</title>
<g id="a_node14"><a xlink:href="/type/UInt64/" xlink:title="UInt64">
<polygon fill="#999999" stroke="#999999" points="791,-22 737,-22 737,-0 791,-0 791,-22"/>
<text text-anchor="middle" x="764" y="-7.4" font-family="Helvetica,sans-Serif" font-size="12.00" fill="white">UInt64</text>
</a>
</g>
</g>
<!-- BitwiseOperationsType&#45;&gt;UInt64 -->
<g id="edge10" class="edge"><title>BitwiseOperationsType&#45;&gt;UInt64</title>
<path fill="none" stroke="#cccccc" d="M564.218,-238.882C605.038,-234.134 656.716,-222.763 695,-196 749.324,-158.024 760.934,-71.7165 763.375,-32.3068"/>
<polygon fill="#cccccc" stroke="#cccccc" points="766.871,-32.4623 763.855,-22.3059 759.879,-32.1265 766.871,-32.4623"/>
</g>
<!-- UInt8 -->
<g id="node15" class="node"><title>UInt8</title>
<g id="a_node15"><a xlink:href="/type/UInt8/" xlink:title="UInt8">
<polygon fill="#999999" stroke="#999999" points="863,-22 809,-22 809,-0 863,-0 863,-22"/>
<text text-anchor="middle" x="836" y="-7.4" font-family="Helvetica,sans-Serif" font-size="12.00" fill="white">UInt8</text>
</a>
</g>
</g>
<!-- BitwiseOperationsType&#45;&gt;UInt8 -->
<g id="edge11" class="edge"><title>BitwiseOperationsType&#45;&gt;UInt8</title>
<path fill="none" stroke="#cccccc" d="M564.118,-241.812C611.572,-238.666 675.001,-228 721,-196 780.924,-154.313 816.022,-70.3072 829.542,-31.9359"/>
<polygon fill="#cccccc" stroke="#cccccc" points="832.88,-32.9908 832.786,-22.3964 826.253,-30.7371 832.88,-32.9908"/>
</g>
<!-- _IntegerType -->
<g id="node17" class="node"><title>_IntegerType</title>
<g id="a_node17"><a xlink:href="/protocol/_IntegerType/" xlink:title="_IntegerType">
<path fill="#999999" stroke="#999999" d="M496.708,-196C496.708,-196 431.292,-196 431.292,-196 427.626,-196 423.959,-192.333 423.959,-188.667 423.959,-188.667 423.959,-181.333 423.959,-181.333 423.959,-177.667 427.626,-174 431.292,-174 431.292,-174 496.708,-174 496.708,-174 500.374,-174 504.041,-177.667 504.041,-181.333 504.041,-181.333 504.041,-188.667 504.041,-188.667 504.041,-192.333 500.374,-196 496.708,-196"/>
<text text-anchor="middle" x="464" y="-181.4" font-family="Helvetica,sans-Serif" font-size="12.00" fill="white">_IntegerType</text>
</a>
</g>
</g>
<!-- BitwiseOperationsType&#45;&gt;_IntegerType -->
<g id="edge12" class="edge"><title>BitwiseOperationsType&#45;&gt;_IntegerType</title>
<path fill="none" stroke="#cccccc" d="M491.921,-231.988C487.385,-224.517 481.049,-214.081 475.56,-205.039"/>
<polygon fill="#cccccc" stroke="#cccccc" points="478.438,-203.035 470.256,-196.304 472.454,-206.668 478.438,-203.035"/>
</g>
<!-- Int&#45;&gt;Bit -->
<g id="edge13" class="edge"><title>Int&#45;&gt;Bit</title>
<path fill="none" stroke="#cccccc" d="M54.2812,-11C56.7377,-11 59.1942,-11 61.6507,-11"/>
<polygon fill="#cccccc" stroke="#cccccc" points="61.7495,-14.5001 71.7495,-11 61.7495,-7.5001 61.7495,-14.5001"/>
</g>
<!-- IntegerType -->
<g id="node8" class="node"><title>IntegerType</title>
<g id="a_node8"><a xlink:href="/protocol/IntegerType/" xlink:title="IntegerType">
<path fill="#999999" stroke="#999999" d="M496.202,-138C496.202,-138 437.798,-138 437.798,-138 434.132,-138 430.465,-134.333 430.465,-130.667 430.465,-130.667 430.465,-123.333 430.465,-123.333 430.465,-119.667 434.132,-116 437.798,-116 437.798,-116 496.202,-116 496.202,-116 499.868,-116 503.535,-119.667 503.535,-123.333 503.535,-123.333 503.535,-130.667 503.535,-130.667 503.535,-134.333 499.868,-138 496.202,-138"/>
<text text-anchor="middle" x="467" y="-123.4" font-family="Helvetica,sans-Serif" font-size="12.00" fill="white">IntegerType</text>
</a>
</g>
</g>
<!-- SignedIntegerType -->
<g id="node10" class="node"><title>SignedIntegerType</title>
<g id="a_node10"><a xlink:href="/protocol/SignedIntegerType/" xlink:title="SignedIntegerType">
<path fill="#999999" stroke="#999999" d="M359.727,-80C359.727,-80 264.273,-80 264.273,-80 260.606,-80 256.94,-76.3333 256.94,-72.6667 256.94,-72.6667 256.94,-65.3333 256.94,-65.3333 256.94,-61.6667 260.606,-58 264.273,-58 264.273,-58 359.727,-58 359.727,-58 363.394,-58 367.06,-61.6667 367.06,-65.3333 367.06,-65.3333 367.06,-72.6667 367.06,-72.6667 367.06,-76.3333 363.394,-80 359.727,-80"/>
<text text-anchor="middle" x="312" y="-65.4" font-family="Helvetica,sans-Serif" font-size="12.00" fill="white">SignedIntegerType</text>
</a>
</g>
</g>
<!-- IntegerType&#45;&gt;SignedIntegerType -->
<g id="edge17" class="edge"><title>IntegerType&#45;&gt;SignedIntegerType</title>
<path fill="none" stroke="#cccccc" d="M439.289,-115.988C414.239,-106.938 377.155,-93.5399 349.468,-83.5367"/>
<polygon fill="#cccccc" stroke="#cccccc" points="350.326,-80.1255 339.732,-80.0192 347.948,-86.709 350.326,-80.1255"/>
</g>
<!-- UnsignedIntegerType -->
<g id="node16" class="node"><title>UnsignedIntegerType</title>
<g id="a_node16"><a xlink:href="/protocol/UnsignedIntegerType/" xlink:title="UnsignedIntegerType">
<path fill="#999999" stroke="#999999" d="M679.728,-80C679.728,-80 570.272,-80 570.272,-80 566.605,-80 562.938,-76.3333 562.938,-72.6667 562.938,-72.6667 562.938,-65.3333 562.938,-65.3333 562.938,-61.6667 566.605,-58 570.272,-58 570.272,-58 679.728,-58 679.728,-58 683.395,-58 687.062,-61.6667 687.062,-65.3333 687.062,-65.3333 687.062,-72.6667 687.062,-72.6667 687.062,-76.3333 683.395,-80 679.728,-80"/>
<text text-anchor="middle" x="625" y="-65.4" font-family="Helvetica,sans-Serif" font-size="12.00" fill="white">UnsignedIntegerType</text>
</a>
</g>
</g>
<!-- IntegerType&#45;&gt;UnsignedIntegerType -->
<g id="edge18" class="edge"><title>IntegerType&#45;&gt;UnsignedIntegerType</title>
<path fill="none" stroke="#cccccc" d="M495.247,-115.988C520.894,-106.898 558.916,-93.4223 587.178,-83.4053"/>
<polygon fill="#cccccc" stroke="#cccccc" points="588.475,-86.6589 596.731,-80.0192 586.137,-80.0611 588.475,-86.6589"/>
</g>
<!-- SignedIntegerType&#45;&gt;Int -->
<g id="edge19" class="edge"><title>SignedIntegerType&#45;&gt;Int</title>
<path fill="none" stroke="#cccccc" d="M256.821,-59.2434C208.447,-51.2422 136.044,-38.4839 64.1935,-22.1249"/>
<polygon fill="#cccccc" stroke="#cccccc" points="64.5916,-18.6251 54.0613,-19.7929 63.0214,-25.4468 64.5916,-18.6251"/>
</g>
<!-- SignedIntegerType&#45;&gt;Int16 -->
<g id="edge20" class="edge"><title>SignedIntegerType&#45;&gt;Int16</title>
<path fill="none" stroke="#cccccc" d="M286.792,-57.9883C264.275,-49.0453 231.068,-35.8566 205.982,-25.8935"/>
<polygon fill="#cccccc" stroke="#cccccc" points="207.051,-22.5522 196.465,-22.1138 204.467,-29.0579 207.051,-22.5522"/>
</g>
<!-- SignedIntegerType&#45;&gt;Int32 -->
<g id="edge21" class="edge"><title>SignedIntegerType&#45;&gt;Int32</title>
<path fill="none" stroke="#cccccc" d="M299.664,-57.9883C289.683,-49.8873 275.409,-38.3026 263.684,-28.7873"/>
<polygon fill="#cccccc" stroke="#cccccc" points="265.666,-25.888 255.696,-22.3039 261.255,-31.3232 265.666,-25.888"/>
</g>
<!-- SignedIntegerType&#45;&gt;Int64 -->
<g id="edge22" class="edge"><title>SignedIntegerType&#45;&gt;Int64</title>
<path fill="none" stroke="#cccccc" d="M312.536,-57.9883C312.916,-50.9098 313.437,-41.1714 313.903,-32.4779"/>
<polygon fill="#cccccc" stroke="#cccccc" points="317.408,-32.4768 314.448,-22.3039 310.418,-32.1023 317.408,-32.4768"/>
</g>
<!-- SignedIntegerType&#45;&gt;Int8 -->
<g id="edge23" class="edge"><title>SignedIntegerType&#45;&gt;Int8</title>
<path fill="none" stroke="#cccccc" d="M325.945,-57.9883C337.519,-49.6784 354.2,-37.7028 367.637,-28.0554"/>
<polygon fill="#cccccc" stroke="#cccccc" points="369.831,-30.7891 375.913,-22.1138 365.748,-25.1028 369.831,-30.7891"/>
</g>
<!-- UnsignedIntegerType&#45;&gt;UInt -->
<g id="edge24" class="edge"><title>UnsignedIntegerType&#45;&gt;UInt</title>
<path fill="none" stroke="#cccccc" d="M609.804,-57.9883C597.07,-49.5993 578.666,-37.4743 563.952,-27.7804"/>
<polygon fill="#cccccc" stroke="#cccccc" points="565.628,-24.6927 555.351,-22.1138 561.776,-30.5382 565.628,-24.6927"/>
</g>
<!-- UnsignedIntegerType&#45;&gt;UInt16 -->
<g id="edge25" class="edge"><title>UnsignedIntegerType&#45;&gt;UInt16</title>
<path fill="none" stroke="#cccccc" d="M624.106,-57.9883C623.474,-50.9098 622.605,-41.1714 621.828,-32.4779"/>
<polygon fill="#cccccc" stroke="#cccccc" points="625.296,-31.953 620.92,-22.3039 618.323,-32.5755 625.296,-31.953"/>
</g>
<!-- UnsignedIntegerType&#45;&gt;UInt32 -->
<g id="edge26" class="edge"><title>UnsignedIntegerType&#45;&gt;UInt32</title>
<path fill="none" stroke="#cccccc" d="M636.978,-57.9883C646.671,-49.8873 660.531,-38.3026 671.915,-28.7873"/>
<polygon fill="#cccccc" stroke="#cccccc" points="674.244,-31.4025 679.672,-22.3039 669.755,-26.0315 674.244,-31.4025"/>
</g>
<!-- UnsignedIntegerType&#45;&gt;UInt64 -->
<g id="edge27" class="edge"><title>UnsignedIntegerType&#45;&gt;UInt64</title>
<path fill="none" stroke="#cccccc" d="M649.85,-57.9883C672.048,-49.0453 704.784,-35.8566 729.514,-25.8935"/>
<polygon fill="#cccccc" stroke="#cccccc" points="730.928,-29.0972 738.896,-22.1138 728.313,-22.6043 730.928,-29.0972"/>
</g>
<!-- UnsignedIntegerType&#45;&gt;UInt8 -->
<g id="edge28" class="edge"><title>UnsignedIntegerType&#45;&gt;UInt8</title>
<path fill="none" stroke="#cccccc" d="M663.965,-57.9235C697.377,-49.2459 747.052,-36.2571 799.135,-22.21"/>
<polygon fill="#cccccc" stroke="#cccccc" points="800.143,-25.563 808.884,-19.5756 798.317,-18.8054 800.143,-25.563"/>
</g>
<!-- _IntegerType&#45;&gt;IntegerType -->
<g id="edge14" class="edge"><title>_IntegerType&#45;&gt;IntegerType</title>
<path fill="none" stroke="#cccccc" d="M464.536,-173.988C464.916,-166.91 465.437,-157.171 465.903,-148.478"/>
<polygon fill="#cccccc" stroke="#cccccc" points="469.408,-148.477 466.448,-138.304 462.418,-148.102 469.408,-148.477"/>
</g>
<!-- _SignedIntegerType -->
<g id="node18" class="node"><title>_SignedIntegerType</title>
<g id="a_node18"><a xlink:href="/protocol/_SignedIntegerType/" xlink:title="_SignedIntegerType">
<path fill="#999999" stroke="#999999" d="M405.231,-138C405.231,-138 302.769,-138 302.769,-138 299.102,-138 295.436,-134.333 295.436,-130.667 295.436,-130.667 295.436,-123.333 295.436,-123.333 295.436,-119.667 299.102,-116 302.769,-116 302.769,-116 405.231,-116 405.231,-116 408.898,-116 412.564,-119.667 412.564,-123.333 412.564,-123.333 412.564,-130.667 412.564,-130.667 412.564,-134.333 408.898,-138 405.231,-138"/>
<text text-anchor="middle" x="354" y="-123.4" font-family="Helvetica,sans-Serif" font-size="12.00" fill="white">_SignedIntegerType</text>
</a>
</g>
</g>
<!-- _IntegerType&#45;&gt;_SignedIntegerType -->
<g id="edge15" class="edge"><title>_IntegerType&#45;&gt;_SignedIntegerType</title>
<path fill="none" stroke="#cccccc" d="M444.334,-173.988C427.234,-165.283 402.231,-152.554 382.863,-142.694"/>
<polygon fill="#cccccc" stroke="#cccccc" points="384.366,-139.532 373.866,-138.114 381.19,-145.77 384.366,-139.532"/>
</g>
<!-- _UnsignedIntegerType -->
<g id="node19" class="node"><title>_UnsignedIntegerType</title>
<g id="a_node19"><a xlink:href="/protocol/_UnsignedIntegerType/" xlink:title="_UnsignedIntegerType">
<path fill="#999999" stroke="#999999" d="M682.734,-138C682.734,-138 567.266,-138 567.266,-138 563.599,-138 559.933,-134.333 559.933,-130.667 559.933,-130.667 559.933,-123.333 559.933,-123.333 559.933,-119.667 563.599,-116 567.266,-116 567.266,-116 682.734,-116 682.734,-116 686.401,-116 690.067,-119.667 690.067,-123.333 690.067,-123.333 690.067,-130.667 690.067,-130.667 690.067,-134.333 686.401,-138 682.734,-138"/>
<text text-anchor="middle" x="625" y="-123.4" font-family="Helvetica,sans-Serif" font-size="12.00" fill="white">_UnsignedIntegerType</text>
</a>
</g>
</g>
<!-- _IntegerType&#45;&gt;_UnsignedIntegerType -->
<g id="edge16" class="edge"><title>_IntegerType&#45;&gt;_UnsignedIntegerType</title>
<path fill="none" stroke="#cccccc" d="M492.784,-173.988C518.917,-164.898 557.661,-151.422 586.46,-141.405"/>
<polygon fill="#cccccc" stroke="#cccccc" points="587.9,-144.61 596.195,-138.019 585.6,-137.999 587.9,-144.61"/>
</g>
<!-- _SignedIntegerType&#45;&gt;SignedIntegerType -->
<g id="edge29" class="edge"><title>_SignedIntegerType&#45;&gt;SignedIntegerType</title>
<path fill="none" stroke="#cccccc" d="M346.491,-115.988C340.769,-108.359 332.73,-97.6405 325.853,-88.4702"/>
<polygon fill="#cccccc" stroke="#cccccc" points="328.528,-86.2039 319.728,-80.3039 322.928,-90.4039 328.528,-86.2039"/>
</g>
<!-- _UnsignedIntegerType&#45;&gt;UnsignedIntegerType -->
<g id="edge30" class="edge"><title>_UnsignedIntegerType&#45;&gt;UnsignedIntegerType</title>
<path fill="none" stroke="#cccccc" d="M625,-115.988C625,-108.91 625,-99.1714 625,-90.4779"/>
<polygon fill="#cccccc" stroke="#cccccc" points="628.5,-90.3038 625,-80.3039 621.5,-90.3039 628.5,-90.3038"/>
</g>
</g>
</svg>
