<?xml version="1.0" encoding="UTF-8" standalone="no"?>
<!DOCTYPE svg PUBLIC "-//W3C//DTD SVG 1.1//EN"
 "http://www.w3.org/Graphics/SVG/1.1/DTD/svg11.dtd">
<!-- Generated by graphviz version 2.36.0 (20140111.2315)
 -->
<!-- Title: Strideable &#45; Type Hierarchy &#45; SwiftDoc.org Pages: 1 -->
<svg width="2141pt" height="485pt"
 viewBox="0.00 0.00 2141.40 485.20" xmlns="http://www.w3.org/2000/svg" xmlns:xlink="http://www.w3.org/1999/xlink">
<g id="graph0" class="graph" transform="scale(1 1) rotate(0) translate(7.2 427.6)">
<title>Strideable &#45; Type Hierarchy &#45; SwiftDoc.org</title>
<polygon fill="white" stroke="none" points="-7.2,57.6 -7.2,-427.6 2134.2,-427.6 2134.2,57.6 -7.2,57.6"/>
<!-- AnyRandomAccessIndex -->
<g id="node1" class="node"><title>AnyRandomAccessIndex</title>
<g id="a_node1"><a xlink:href="/type/AnyRandomAccessIndex/" xlink:title="AnyRandomAccessIndex">
<polygon fill="#999999" stroke="#999999" points="387.051,-22 242.949,-22 242.949,-0 387.051,-0 387.051,-22"/>
<text text-anchor="middle" x="315" y="-7.4" font-family="Helvetica,sans-Serif" font-size="12.00" fill="white">AnyRandomAccessIndex</text>
</a>
</g>
</g>
<!-- Bit -->
<g id="node2" class="node"><title>Bit</title>
<g id="a_node2"><a xlink:href="/type/Bit/" xlink:title="Bit">
<polygon fill="#999999" stroke="#999999" points="531,-22 477,-22 477,-0 531,-0 531,-22"/>
<text text-anchor="middle" x="504" y="-7.4" font-family="Helvetica,sans-Serif" font-size="12.00" fill="white">Bit</text>
</a>
</g>
</g>
<!-- Comparable -->
<g id="node3" class="node"><title>Comparable</title>
<g id="a_node3"><a xlink:href="/protocol/Comparable/" xlink:title="Comparable">
<path fill="#999999" stroke="#999999" d="M868.191,-312C868.191,-312 807.809,-312 807.809,-312 804.142,-312 800.475,-308.333 800.475,-304.667 800.475,-304.667 800.475,-297.333 800.475,-297.333 800.475,-293.667 804.142,-290 807.809,-290 807.809,-290 868.191,-290 868.191,-290 871.858,-290 875.525,-293.667 875.525,-297.333 875.525,-297.333 875.525,-304.667 875.525,-304.667 875.525,-308.333 871.858,-312 868.191,-312"/>
<text text-anchor="middle" x="838" y="-297.4" font-family="Helvetica,sans-Serif" font-size="12.00" fill="white">Comparable</text>
</a>
</g>
</g>
<!-- Strideable -->
<g id="node18" class="node"><title>Strideable</title>
<g id="a_node18"><a xlink:href="/protocol/Strideable/" xlink:title="Strideable">
<path fill="#ee543d" stroke="#ee543d" d="M907.693,-254C907.693,-254 858.307,-254 858.307,-254 854.64,-254 850.974,-250.333 850.974,-246.667 850.974,-246.667 850.974,-239.333 850.974,-239.333 850.974,-235.667 854.64,-232 858.307,-232 858.307,-232 907.693,-232 907.693,-232 911.36,-232 915.026,-235.667 915.026,-239.333 915.026,-239.333 915.026,-246.667 915.026,-246.667 915.026,-250.333 911.36,-254 907.693,-254"/>
<text text-anchor="middle" x="883" y="-239.4" font-family="Helvetica,sans-Serif" font-size="12.00" fill="white">Strideable</text>
</a>
</g>
</g>
<!-- Comparable&#45;&gt;Strideable -->
<g id="edge62" class="edge"><title>Comparable&#45;&gt;Strideable</title>
<path fill="none" stroke="#cccccc" d="M846.045,-289.988C852.239,-282.281 860.967,-271.419 868.385,-262.187"/>
<polygon fill="#cccccc" stroke="#cccccc" points="871.184,-264.291 874.72,-254.304 865.728,-259.907 871.184,-264.291"/>
</g>
<!-- Double -->
<g id="node4" class="node"><title>Double</title>
<g id="a_node4"><a xlink:href="/type/Double/" xlink:title="Double">
<polygon fill="#999999" stroke="#999999" points="54,-22 0,-22 0,-0 54,-0 54,-22"/>
<text text-anchor="middle" x="27" y="-7.4" font-family="Helvetica,sans-Serif" font-size="12.00" fill="white">Double</text>
</a>
</g>
</g>
<!-- Equatable -->
<g id="node5" class="node"><title>Equatable</title>
<g id="a_node5"><a xlink:href="/protocol/Equatable/" xlink:title="Equatable">
<path fill="#999999" stroke="#999999" d="M862.702,-370C862.702,-370 813.298,-370 813.298,-370 809.632,-370 805.965,-366.333 805.965,-362.667 805.965,-362.667 805.965,-355.333 805.965,-355.333 805.965,-351.667 809.632,-348 813.298,-348 813.298,-348 862.702,-348 862.702,-348 866.368,-348 870.035,-351.667 870.035,-355.333 870.035,-355.333 870.035,-362.667 870.035,-362.667 870.035,-366.333 866.368,-370 862.702,-370"/>
<text text-anchor="middle" x="838" y="-355.4" font-family="Helvetica,sans-Serif" font-size="12.00" fill="white">Equatable</text>
</a>
</g>
</g>
<!-- Equatable&#45;&gt;Comparable -->
<g id="edge64" class="edge"><title>Equatable&#45;&gt;Comparable</title>
<path fill="none" stroke="#cccccc" d="M838,-347.988C838,-340.91 838,-331.171 838,-322.478"/>
<polygon fill="#cccccc" stroke="#cccccc" points="841.5,-322.304 838,-312.304 834.5,-322.304 841.5,-322.304"/>
</g>
<!-- Float -->
<g id="node6" class="node"><title>Float</title>
<g id="a_node6"><a xlink:href="/type/Float/" xlink:title="Float">
<polygon fill="#999999" stroke="#999999" points="142,-22 88,-22 88,-0 142,-0 142,-22"/>
<text text-anchor="middle" x="115" y="-7.4" font-family="Helvetica,sans-Serif" font-size="12.00" fill="white">Float</text>
</a>
</g>
</g>
<!-- Float80 -->
<g id="node7" class="node"><title>Float80</title>
<g id="a_node7"><a xlink:href="/type/Float80/" xlink:title="Float80">
<polygon fill="#999999" stroke="#999999" points="225,-22 171,-22 171,-0 225,-0 225,-22"/>
<text text-anchor="middle" x="198" y="-7.4" font-family="Helvetica,sans-Serif" font-size="12.00" fill="white">Float80</text>
</a>
</g>
</g>
<!-- FloatingPointType -->
<g id="node8" class="node"><title>FloatingPointType</title>
<g id="a_node8"><a xlink:href="/protocol/FloatingPointType/" xlink:title="FloatingPointType">
<path fill="#999999" stroke="#999999" d="M149.715,-80C149.715,-80 58.285,-80 58.285,-80 54.6183,-80 50.9517,-76.3333 50.9517,-72.6667 50.9517,-72.6667 50.9517,-65.3333 50.9517,-65.3333 50.9517,-61.6667 54.6183,-58 58.285,-58 58.285,-58 149.715,-58 149.715,-58 153.382,-58 157.048,-61.6667 157.048,-65.3333 157.048,-65.3333 157.048,-72.6667 157.048,-72.6667 157.048,-76.3333 153.382,-80 149.715,-80"/>
<text text-anchor="middle" x="104" y="-65.4" font-family="Helvetica,sans-Serif" font-size="12.00" fill="white">FloatingPointType</text>
</a>
</g>
</g>
<!-- FloatingPointType&#45;&gt;Double -->
<g id="edge21" class="edge"><title>FloatingPointType&#45;&gt;Double</title>
<path fill="none" stroke="#cccccc" d="M90.2339,-57.9883C78.8078,-49.6784 62.3413,-37.7028 49.0761,-28.0554"/>
<polygon fill="#cccccc" stroke="#cccccc" points="51.0525,-25.165 40.9065,-22.1138 46.9353,-30.8262 51.0525,-25.165"/>
</g>
<!-- FloatingPointType&#45;&gt;Float -->
<g id="edge22" class="edge"><title>FloatingPointType&#45;&gt;Float</title>
<path fill="none" stroke="#cccccc" d="M105.967,-57.9883C107.372,-50.8311 109.312,-40.9547 111.034,-32.1885"/>
<polygon fill="#cccccc" stroke="#cccccc" points="114.483,-32.791 112.976,-22.3039 107.614,-31.4417 114.483,-32.791"/>
</g>
<!-- Int -->
<g id="node9" class="node"><title>Int</title>
<g id="a_node9"><a xlink:href="/type/Int/" xlink:title="Int">
<polygon fill="#999999" stroke="#999999" points="459,-22 405,-22 405,-0 459,-0 459,-22"/>
<text text-anchor="middle" x="432" y="-7.4" font-family="Helvetica,sans-Serif" font-size="12.00" fill="white">Int</text>
</a>
</g>
</g>
<!-- Int&#45;&gt;Bit -->
<g id="edge23" class="edge"><title>Int&#45;&gt;Bit</title>
<path fill="none" stroke="#cccccc" d="M459.281,-11C461.738,-11 464.194,-11 466.651,-11"/>
<polygon fill="#cccccc" stroke="#cccccc" points="466.75,-14.5001 476.75,-11 466.749,-7.5001 466.75,-14.5001"/>
</g>
<!-- Int16 -->
<g id="node10" class="node"><title>Int16</title>
<g id="a_node10"><a xlink:href="/type/Int16/" xlink:title="Int16">
<polygon fill="#999999" stroke="#999999" points="666,-22 612,-22 612,-0 666,-0 666,-22"/>
<text text-anchor="middle" x="639" y="-7.4" font-family="Helvetica,sans-Serif" font-size="12.00" fill="white">Int16</text>
</a>
</g>
</g>
<!-- Int32 -->
<g id="node11" class="node"><title>Int32</title>
<g id="a_node11"><a xlink:href="/type/Int32/" xlink:title="Int32">
<polygon fill="#999999" stroke="#999999" points="1005,-22 951,-22 951,-0 1005,-0 1005,-22"/>
<text text-anchor="middle" x="978" y="-7.4" font-family="Helvetica,sans-Serif" font-size="12.00" fill="white">Int32</text>
</a>
</g>
</g>
<!-- Int64 -->
<g id="node12" class="node"><title>Int64</title>
<g id="a_node12"><a xlink:href="/type/Int64/" xlink:title="Int64">
<polygon fill="#999999" stroke="#999999" points="784,-22 730,-22 730,-0 784,-0 784,-22"/>
<text text-anchor="middle" x="757" y="-7.4" font-family="Helvetica,sans-Serif" font-size="12.00" fill="white">Int64</text>
</a>
</g>
</g>
<!-- Int8 -->
<g id="node13" class="node"><title>Int8</title>
<g id="a_node13"><a xlink:href="/type/Int8/" xlink:title="Int8">
<polygon fill="#999999" stroke="#999999" points="891,-22 837,-22 837,-0 891,-0 891,-22"/>
<text text-anchor="middle" x="864" y="-7.4" font-family="Helvetica,sans-Serif" font-size="12.00" fill="white">Int8</text>
</a>
</g>
</g>
<!-- IntegerType -->
<g id="node14" class="node"><title>IntegerType</title>
<g id="a_node14"><a xlink:href="/protocol/IntegerType/" xlink:title="IntegerType">
<path fill="#999999" stroke="#999999" d="M1107.2,-138C1107.2,-138 1048.8,-138 1048.8,-138 1045.13,-138 1041.47,-134.333 1041.47,-130.667 1041.47,-130.667 1041.47,-123.333 1041.47,-123.333 1041.47,-119.667 1045.13,-116 1048.8,-116 1048.8,-116 1107.2,-116 1107.2,-116 1110.87,-116 1114.53,-119.667 1114.53,-123.333 1114.53,-123.333 1114.53,-130.667 1114.53,-130.667 1114.53,-134.333 1110.87,-138 1107.2,-138"/>
<text text-anchor="middle" x="1078" y="-123.4" font-family="Helvetica,sans-Serif" font-size="12.00" fill="white">IntegerType</text>
</a>
</g>
</g>
<!-- IntegerType&#45;&gt;Int -->
<g id="edge40" class="edge"><title>IntegerType&#45;&gt;Int</title>
<path fill="none" stroke="#cccccc" d="M1041.49,-123.978C969.471,-119.534 804.293,-107.08 668,-80 596.309,-65.7559 514.809,-40.0977 468.783,-24.6984"/>
<polygon fill="#cccccc" stroke="#cccccc" points="469.836,-21.36 459.242,-21.4829 467.601,-27.9934 469.836,-21.36"/>
</g>
<!-- IntegerType&#45;&gt;Int16 -->
<g id="edge41" class="edge"><title>IntegerType&#45;&gt;Int16</title>
<path fill="none" stroke="#cccccc" d="M1041.39,-124.893C958.101,-121.846 757.054,-111.37 698,-80 676.884,-68.7831 659.937,-46.6902 649.716,-30.7248"/>
<polygon fill="#cccccc" stroke="#cccccc" points="652.689,-28.8774 644.495,-22.1613 646.712,-32.5215 652.689,-28.8774"/>
</g>
<!-- IntegerType&#45;&gt;Int32 -->
<g id="edge42" class="edge"><title>IntegerType&#45;&gt;Int32</title>
<path fill="none" stroke="#cccccc" d="M1075.66,-115.777C1071.98,-101.527 1063.71,-75.4801 1049,-58 1038.24,-45.2166 1023.03,-34.7115 1009.44,-26.9839"/>
<polygon fill="#cccccc" stroke="#cccccc" points="1010.83,-23.7566 1000.37,-22.0839 1007.5,-29.9157 1010.83,-23.7566"/>
</g>
<!-- IntegerType&#45;&gt;Int64 -->
<g id="edge43" class="edge"><title>IntegerType&#45;&gt;Int64</title>
<path fill="none" stroke="#cccccc" d="M1049.59,-115.965C1023.25,-106.657 982.971,-92.4123 948,-80 894.408,-60.9784 832.386,-38.8822 793.92,-25.1683"/>
<polygon fill="#cccccc" stroke="#cccccc" points="794.79,-21.7626 784.195,-21.7008 792.439,-28.356 794.79,-21.7626"/>
</g>
<!-- IntegerType&#45;&gt;Int8 -->
<g id="edge44" class="edge"><title>IntegerType&#45;&gt;Int8</title>
<path fill="none" stroke="#cccccc" d="M1059.01,-115.883C1021.17,-95.7287 936.239,-50.4823 891.996,-26.9136"/>
<polygon fill="#cccccc" stroke="#cccccc" points="893.42,-23.7067 882.949,-22.0941 890.129,-29.8848 893.42,-23.7067"/>
</g>
<!-- SignedIntegerType -->
<g id="node17" class="node"><title>SignedIntegerType</title>
<g id="a_node17"><a xlink:href="/protocol/SignedIntegerType/" xlink:title="SignedIntegerType">
<path fill="#999999" stroke="#999999" d="M809.727,-80C809.727,-80 714.273,-80 714.273,-80 710.606,-80 706.94,-76.3333 706.94,-72.6667 706.94,-72.6667 706.94,-65.3333 706.94,-65.3333 706.94,-61.6667 710.606,-58 714.273,-58 714.273,-58 809.727,-58 809.727,-58 813.394,-58 817.06,-61.6667 817.06,-65.3333 817.06,-65.3333 817.06,-72.6667 817.06,-72.6667 817.06,-76.3333 813.394,-80 809.727,-80"/>
<text text-anchor="middle" x="762" y="-65.4" font-family="Helvetica,sans-Serif" font-size="12.00" fill="white">SignedIntegerType</text>
</a>
</g>
</g>
<!-- IntegerType&#45;&gt;SignedIntegerType -->
<g id="edge45" class="edge"><title>IntegerType&#45;&gt;SignedIntegerType</title>
<path fill="none" stroke="#cccccc" d="M1041.44,-119.521C989.164,-110.257 892.22,-93.0769 827.403,-81.5904"/>
<polygon fill="#cccccc" stroke="#cccccc" points="827.745,-78.0966 817.288,-79.7979 826.524,-84.9892 827.745,-78.0966"/>
</g>
<!-- UInt -->
<g id="node19" class="node"><title>UInt</title>
<g id="a_node19"><a xlink:href="/type/UInt/" xlink:title="UInt">
<polygon fill="#999999" stroke="#999999" points="1197,-22 1143,-22 1143,-0 1197,-0 1197,-22"/>
<text text-anchor="middle" x="1170" y="-7.4" font-family="Helvetica,sans-Serif" font-size="12.00" fill="white">UInt</text>
</a>
</g>
</g>
<!-- IntegerType&#45;&gt;UInt -->
<g id="edge46" class="edge"><title>IntegerType&#45;&gt;UInt</title>
<path fill="none" stroke="#cccccc" d="M1086.16,-115.883C1101.67,-96.6645 1135.6,-54.6301 1155.21,-30.3322"/>
<polygon fill="#cccccc" stroke="#cccccc" points="1158.17,-32.238 1161.72,-22.2579 1152.72,-27.8419 1158.17,-32.238"/>
</g>
<!-- UInt16 -->
<g id="node20" class="node"><title>UInt16</title>
<g id="a_node20"><a xlink:href="/type/UInt16/" xlink:title="UInt16">
<polygon fill="#999999" stroke="#999999" points="1290,-22 1236,-22 1236,-0 1290,-0 1290,-22"/>
<text text-anchor="middle" x="1263" y="-7.4" font-family="Helvetica,sans-Serif" font-size="12.00" fill="white">UInt16</text>
</a>
</g>
</g>
<!-- IntegerType&#45;&gt;UInt16 -->
<g id="edge47" class="edge"><title>IntegerType&#45;&gt;UInt16</title>
<path fill="none" stroke="#cccccc" d="M1094.42,-115.883C1126.92,-95.8554 1199.63,-51.0505 1238.07,-27.3608"/>
<polygon fill="#cccccc" stroke="#cccccc" points="1239.94,-30.3199 1246.62,-22.0941 1236.27,-24.3605 1239.94,-30.3199"/>
</g>
<!-- UInt32 -->
<g id="node21" class="node"><title>UInt32</title>
<g id="a_node21"><a xlink:href="/type/UInt32/" xlink:title="UInt32">
<polygon fill="#999999" stroke="#999999" points="1492,-22 1438,-22 1438,-0 1492,-0 1492,-22"/>
<text text-anchor="middle" x="1465" y="-7.4" font-family="Helvetica,sans-Serif" font-size="12.00" fill="white">UInt32</text>
</a>
</g>
</g>
<!-- IntegerType&#45;&gt;UInt32 -->
<g id="edge48" class="edge"><title>IntegerType&#45;&gt;UInt32</title>
<path fill="none" stroke="#cccccc" d="M1112,-115.983C1184.32,-94.6817 1352.87,-45.0315 1427.87,-22.9385"/>
<polygon fill="#cccccc" stroke="#cccccc" points="1429.21,-26.1929 1437.81,-20.0098 1427.23,-19.4782 1429.21,-26.1929"/>
</g>
<!-- UInt64 -->
<g id="node22" class="node"><title>UInt64</title>
<g id="a_node22"><a xlink:href="/type/UInt64/" xlink:title="UInt64">
<polygon fill="#999999" stroke="#999999" points="1601,-22 1547,-22 1547,-0 1601,-0 1601,-22"/>
<text text-anchor="middle" x="1574" y="-7.4" font-family="Helvetica,sans-Serif" font-size="12.00" fill="white">UInt64</text>
</a>
</g>
</g>
<!-- IntegerType&#45;&gt;UInt64 -->
<g id="edge49" class="edge"><title>IntegerType&#45;&gt;UInt64</title>
<path fill="none" stroke="#cccccc" d="M1114.36,-124.932C1203.66,-121.853 1431.46,-111.093 1500,-80 1524.53,-68.8705 1546.39,-46.4289 1559.88,-30.3697"/>
<polygon fill="#cccccc" stroke="#cccccc" points="1562.91,-32.193 1566.47,-22.2169 1557.46,-27.7908 1562.91,-32.193"/>
</g>
<!-- UInt8 -->
<g id="node23" class="node"><title>UInt8</title>
<g id="a_node23"><a xlink:href="/type/UInt8/" xlink:title="UInt8">
<polygon fill="#999999" stroke="#999999" points="1690,-22 1636,-22 1636,-0 1690,-0 1690,-22"/>
<text text-anchor="middle" x="1663" y="-7.4" font-family="Helvetica,sans-Serif" font-size="12.00" fill="white">UInt8</text>
</a>
</g>
</g>
<!-- IntegerType&#45;&gt;UInt8 -->
<g id="edge50" class="edge"><title>IntegerType&#45;&gt;UInt8</title>
<path fill="none" stroke="#cccccc" d="M1114.62,-126.801C1192.69,-127.535 1380.59,-124.102 1530,-80 1570.54,-68.0342 1613.37,-43.742 1639.14,-27.6689"/>
<polygon fill="#cccccc" stroke="#cccccc" points="1641.26,-30.4699 1647.83,-22.1572 1637.51,-24.5591 1641.26,-30.4699"/>
</g>
<!-- UnsignedIntegerType -->
<g id="node26" class="node"><title>UnsignedIntegerType</title>
<g id="a_node26"><a xlink:href="/protocol/UnsignedIntegerType/" xlink:title="UnsignedIntegerType">
<path fill="#999999" stroke="#999999" d="M1483.73,-80C1483.73,-80 1374.27,-80 1374.27,-80 1370.61,-80 1366.94,-76.3333 1366.94,-72.6667 1366.94,-72.6667 1366.94,-65.3333 1366.94,-65.3333 1366.94,-61.6667 1370.61,-58 1374.27,-58 1374.27,-58 1483.73,-58 1483.73,-58 1487.39,-58 1491.06,-61.6667 1491.06,-65.3333 1491.06,-65.3333 1491.06,-72.6667 1491.06,-72.6667 1491.06,-76.3333 1487.39,-80 1483.73,-80"/>
<text text-anchor="middle" x="1429" y="-65.4" font-family="Helvetica,sans-Serif" font-size="12.00" fill="white">UnsignedIntegerType</text>
</a>
</g>
</g>
<!-- IntegerType&#45;&gt;UnsignedIntegerType -->
<g id="edge51" class="edge"><title>IntegerType&#45;&gt;UnsignedIntegerType</title>
<path fill="none" stroke="#cccccc" d="M1114.57,-120.165C1171.67,-111.055 1283.09,-93.2796 1356.78,-81.5218"/>
<polygon fill="#cccccc" stroke="#cccccc" points="1357.6,-84.9361 1366.92,-79.9042 1356.5,-78.0235 1357.6,-84.9361"/>
</g>
<!-- RandomAccessIndexType -->
<g id="node15" class="node"><title>RandomAccessIndexType</title>
<g id="a_node15"><a xlink:href="/protocol/RandomAccessIndexType/" xlink:title="RandomAccessIndexType">
<path fill="#999999" stroke="#999999" d="M1145.23,-196C1145.23,-196 1010.77,-196 1010.77,-196 1007.11,-196 1003.44,-192.333 1003.44,-188.667 1003.44,-188.667 1003.44,-181.333 1003.44,-181.333 1003.44,-177.667 1007.11,-174 1010.77,-174 1010.77,-174 1145.23,-174 1145.23,-174 1148.89,-174 1152.56,-177.667 1152.56,-181.333 1152.56,-181.333 1152.56,-188.667 1152.56,-188.667 1152.56,-192.333 1148.89,-196 1145.23,-196"/>
<text text-anchor="middle" x="1078" y="-181.4" font-family="Helvetica,sans-Serif" font-size="12.00" fill="white">RandomAccessIndexType</text>
</a>
</g>
</g>
<!-- RandomAccessIndexType&#45;&gt;AnyRandomAccessIndex -->
<g id="edge24" class="edge"><title>RandomAccessIndexType&#45;&gt;AnyRandomAccessIndex</title>
<path fill="none" stroke="#cccccc" d="M1003.51,-183.743C909.789,-181.826 744.569,-173.14 608,-138 505.228,-111.556 392.122,-54.0897 341.753,-26.8696"/>
<polygon fill="#cccccc" stroke="#cccccc" points="343.271,-23.7111 332.815,-22 339.922,-29.8579 343.271,-23.7111"/>
</g>
<!-- RandomAccessIndexType&#45;&gt;Bit -->
<g id="edge25" class="edge"><title>RandomAccessIndexType&#45;&gt;Bit</title>
<path fill="none" stroke="#cccccc" d="M1003.42,-183.258C928.998,-180.508 812.32,-170.699 717,-138 640.624,-111.8 561.594,-56.1629 524.968,-28.4292"/>
<polygon fill="#cccccc" stroke="#cccccc" points="527.068,-25.6284 517,-22.3266 522.811,-31.1857 527.068,-25.6284"/>
</g>
<!-- RandomAccessIndexType&#45;&gt;Int -->
<g id="edge26" class="edge"><title>RandomAccessIndexType&#45;&gt;Int</title>
<path fill="none" stroke="#cccccc" d="M1003.51,-184.213C919.438,-182.52 779.465,-173.826 665,-138 581.764,-111.948 493.976,-55.3419 454.064,-27.7519"/>
<polygon fill="#cccccc" stroke="#cccccc" points="456.055,-24.8733 445.853,-22.0157 452.046,-30.6117 456.055,-24.8733"/>
</g>
<!-- RandomAccessIndexType&#45;&gt;Int16 -->
<g id="edge27" class="edge"><title>RandomAccessIndexType&#45;&gt;Int16</title>
<path fill="none" stroke="#cccccc" d="M1003.32,-178.492C921.742,-171.585 796.949,-158.148 754,-138 704.858,-114.946 667.136,-60.3184 649.67,-31.1439"/>
<polygon fill="#cccccc" stroke="#cccccc" points="652.587,-29.1963 644.537,-22.308 646.534,-32.7129 652.587,-29.1963"/>
</g>
<!-- RandomAccessIndexType&#45;&gt;Int32 -->
<g id="edge28" class="edge"><title>RandomAccessIndexType&#45;&gt;Int32</title>
<path fill="none" stroke="#cccccc" d="M1065.35,-173.737C1055.28,-165.053 1041.37,-151.841 1032,-138 1008.77,-103.684 992.157,-57.7576 983.908,-31.8906"/>
<polygon fill="#cccccc" stroke="#cccccc" points="987.187,-30.6459 980.89,-22.1252 980.499,-32.7128 987.187,-30.6459"/>
</g>
<!-- RandomAccessIndexType&#45;&gt;Int64 -->
<g id="edge29" class="edge"><title>RandomAccessIndexType&#45;&gt;Int64</title>
<path fill="none" stroke="#cccccc" d="M1003.53,-174.335C903.743,-159.682 734.877,-128.326 698,-80 683.583,-61.1072 707.106,-40.6684 728.585,-27.185"/>
<polygon fill="#cccccc" stroke="#cccccc" points="730.441,-30.1535 737.243,-22.0302 726.86,-24.139 730.441,-30.1535"/>
</g>
<!-- RandomAccessIndexType&#45;&gt;Int8 -->
<g id="edge30" class="edge"><title>RandomAccessIndexType&#45;&gt;Int8</title>
<path fill="none" stroke="#cccccc" d="M1064.05,-173.979C1051.38,-164.799 1032.24,-150.74 1016,-138 967.401,-99.8728 911.902,-52.9862 883.3,-28.5663"/>
<polygon fill="#cccccc" stroke="#cccccc" points="885.523,-25.8621 875.649,-22.0215 880.973,-31.1815 885.523,-25.8621"/>
</g>
<!-- RandomAccessIndexType&#45;&gt;IntegerType -->
<g id="edge31" class="edge"><title>RandomAccessIndexType&#45;&gt;IntegerType</title>
<path fill="none" stroke="#cccccc" d="M1078,-173.988C1078,-166.91 1078,-157.171 1078,-148.478"/>
<polygon fill="#cccccc" stroke="#cccccc" points="1081.5,-148.304 1078,-138.304 1074.5,-148.304 1081.5,-148.304"/>
</g>
<!-- ReverseRandomAccessIndex -->
<g id="node16" class="node"><title>ReverseRandomAccessIndex</title>
<g id="a_node16"><a xlink:href="/type/ReverseRandomAccessIndex/" xlink:title="ReverseRandomAccessIndex">
<polygon fill="#999999" stroke="#999999" points="1876.06,-22 1707.94,-22 1707.94,-0 1876.06,-0 1876.06,-22"/>
<text text-anchor="middle" x="1792" y="-7.4" font-family="Helvetica,sans-Serif" font-size="12.00" fill="white">ReverseRandomAccessIndex</text>
</a>
</g>
</g>
<!-- RandomAccessIndexType&#45;&gt;ReverseRandomAccessIndex -->
<g id="edge32" class="edge"><title>RandomAccessIndexType&#45;&gt;ReverseRandomAccessIndex</title>
<path fill="none" stroke="#cccccc" d="M1152.7,-183.002C1239.5,-180.248 1386.36,-170.63 1508,-138 1607.39,-111.338 1716.37,-54.4373 1765.45,-27.1753"/>
<polygon fill="#cccccc" stroke="#cccccc" points="1767.43,-30.0768 1774.44,-22.1359 1764.01,-23.9698 1767.43,-30.0768"/>
</g>
<!-- RandomAccessIndexType&#45;&gt;UInt -->
<g id="edge33" class="edge"><title>RandomAccessIndexType&#45;&gt;UInt</title>
<path fill="none" stroke="#cccccc" d="M1090.54,-173.8C1100.48,-165.152 1114.14,-151.958 1123,-138 1144.79,-103.68 1158.68,-57.7549 1165.34,-31.8893"/>
<polygon fill="#cccccc" stroke="#cccccc" points="1168.75,-32.672 1167.75,-22.1245 1161.96,-30.9935 1168.75,-32.672"/>
</g>
<!-- RandomAccessIndexType&#45;&gt;UInt16 -->
<g id="edge34" class="edge"><title>RandomAccessIndexType&#45;&gt;UInt16</title>
<path fill="none" stroke="#cccccc" d="M1094.13,-173.847C1107.69,-165.023 1127.31,-151.562 1143,-138 1183.86,-102.679 1226.18,-55.237 1247.99,-29.8323"/>
<polygon fill="#cccccc" stroke="#cccccc" points="1250.74,-31.9928 1254.57,-22.111 1245.42,-27.4531 1250.74,-31.9928"/>
</g>
<!-- RandomAccessIndexType&#45;&gt;UInt32 -->
<g id="edge35" class="edge"><title>RandomAccessIndexType&#45;&gt;UInt32</title>
<path fill="none" stroke="#cccccc" d="M1152.78,-176.503C1262.23,-163.813 1457.65,-134.051 1500,-80 1512.23,-64.391 1498.28,-43.8516 1484.53,-29.4465"/>
<polygon fill="#cccccc" stroke="#cccccc" points="1486.67,-26.6457 1477.08,-22.1451 1481.77,-31.6447 1486.67,-26.6457"/>
</g>
<!-- RandomAccessIndexType&#45;&gt;UInt64 -->
<g id="edge36" class="edge"><title>RandomAccessIndexType&#45;&gt;UInt64</title>
<path fill="none" stroke="#cccccc" d="M1152.45,-182.223C1224.17,-178.652 1334.89,-168.2 1426,-138 1476.24,-121.348 1491.37,-116.176 1530,-80 1544.84,-66.0992 1556.96,-46.2018 1564.69,-31.5199"/>
<polygon fill="#cccccc" stroke="#cccccc" points="1567.95,-32.8319 1569.32,-22.3266 1561.7,-29.682 1567.95,-32.8319"/>
</g>
<!-- RandomAccessIndexType&#45;&gt;UInt8 -->
<g id="edge37" class="edge"><title>RandomAccessIndexType&#45;&gt;UInt8</title>
<path fill="none" stroke="#cccccc" d="M1152.67,-183.97C1232.78,-181.943 1362.82,-172.843 1469,-138 1540.46,-114.551 1611.18,-57.9857 1644.01,-29.3009"/>
<polygon fill="#cccccc" stroke="#cccccc" points="1646.72,-31.5771 1651.87,-22.3224 1642.07,-26.3408 1646.72,-31.5771"/>
</g>
<!-- UnsafeMutablePointer -->
<g id="node24" class="node"><title>UnsafeMutablePointer</title>
<g id="a_node24"><a xlink:href="/type/UnsafeMutablePointer/" xlink:title="UnsafeMutablePointer">
<polygon fill="#999999" stroke="#999999" points="2022.05,-22 1893.95,-22 1893.95,-0 2022.05,-0 2022.05,-22"/>
<text text-anchor="middle" x="1958" y="-7.4" font-family="Helvetica,sans-Serif" font-size="12.00" fill="white">UnsafeMutablePointer</text>
</a>
</g>
</g>
<!-- RandomAccessIndexType&#45;&gt;UnsafeMutablePointer -->
<g id="edge38" class="edge"><title>RandomAccessIndexType&#45;&gt;UnsafeMutablePointer</title>
<path fill="none" stroke="#cccccc" d="M1152.49,-181.544C1246.78,-177.354 1413.82,-166.318 1554,-138 1693.34,-109.852 1852.83,-52.2771 1922.42,-25.8361"/>
<polygon fill="#cccccc" stroke="#cccccc" points="1923.93,-29.0064 1932.02,-22.1681 1921.43,-22.4674 1923.93,-29.0064"/>
</g>
<!-- UnsafePointer -->
<g id="node25" class="node"><title>UnsafePointer</title>
<g id="a_node25"><a xlink:href="/type/UnsafePointer/" xlink:title="UnsafePointer">
<polygon fill="#999999" stroke="#999999" points="2126.03,-22 2039.97,-22 2039.97,-0 2126.03,-0 2126.03,-22"/>
<text text-anchor="middle" x="2083" y="-7.4" font-family="Helvetica,sans-Serif" font-size="12.00" fill="white">UnsafePointer</text>
</a>
</g>
</g>
<!-- RandomAccessIndexType&#45;&gt;UnsafePointer -->
<g id="edge39" class="edge"><title>RandomAccessIndexType&#45;&gt;UnsafePointer</title>
<path fill="none" stroke="#cccccc" d="M1152.53,-181.733C1256.39,-177.637 1450.25,-166.582 1613,-138 1775.18,-109.518 1962.86,-51.365 2043.19,-25.2339"/>
<polygon fill="#cccccc" stroke="#cccccc" points="2044.48,-28.4946 2052.9,-22.0616 2042.31,-21.8408 2044.48,-28.4946"/>
</g>
<!-- SignedIntegerType&#45;&gt;Int -->
<g id="edge52" class="edge"><title>SignedIntegerType&#45;&gt;Int</title>
<path fill="none" stroke="#cccccc" d="M706.922,-61.3192C649.728,-53.9481 557.521,-40.8522 468.983,-22.0161"/>
<polygon fill="#cccccc" stroke="#cccccc" points="469.556,-18.5594 459.043,-19.8736 468.081,-25.4023 469.556,-18.5594"/>
</g>
<!-- SignedIntegerType&#45;&gt;Int16 -->
<g id="edge53" class="edge"><title>SignedIntegerType&#45;&gt;Int16</title>
<path fill="none" stroke="#cccccc" d="M740.01,-57.9883C720.628,-49.164 692.167,-36.206 670.391,-26.2919"/>
<polygon fill="#cccccc" stroke="#cccccc" points="671.766,-23.0721 661.214,-22.1138 668.865,-29.4429 671.766,-23.0721"/>
</g>
<!-- SignedIntegerType&#45;&gt;Int32 -->
<g id="edge54" class="edge"><title>SignedIntegerType&#45;&gt;Int32</title>
<path fill="none" stroke="#cccccc" d="M800.616,-57.9883C840.383,-47.6784 901.915,-31.7257 941.058,-21.5777"/>
<polygon fill="#cccccc" stroke="#cccccc" points="942.182,-24.902 950.983,-19.0044 940.425,-18.1261 942.182,-24.902"/>
</g>
<!-- SignedIntegerType&#45;&gt;Int64 -->
<g id="edge55" class="edge"><title>SignedIntegerType&#45;&gt;Int64</title>
<path fill="none" stroke="#cccccc" d="M761.106,-57.9883C760.474,-50.9098 759.605,-41.1714 758.828,-32.4779"/>
<polygon fill="#cccccc" stroke="#cccccc" points="762.296,-31.953 757.92,-22.3039 755.323,-32.5755 762.296,-31.953"/>
</g>
<!-- SignedIntegerType&#45;&gt;Int8 -->
<g id="edge56" class="edge"><title>SignedIntegerType&#45;&gt;Int8</title>
<path fill="none" stroke="#cccccc" d="M780.236,-57.9883C795.948,-49.3619 818.856,-36.785 836.745,-26.9633"/>
<polygon fill="#cccccc" stroke="#cccccc" points="838.497,-29.9945 845.578,-22.1138 835.128,-23.8584 838.497,-29.9945"/>
</g>
<!-- Strideable&#45;&gt;AnyRandomAccessIndex -->
<g id="edge1" class="edge"><title>Strideable&#45;&gt;AnyRandomAccessIndex</title>
<path fill="none" stroke="#cccccc" d="M850.633,-239.551C802.222,-235.11 708.664,-223.503 634,-196 513.734,-151.699 386.213,-63.9528 336.545,-27.9665"/>
<polygon fill="#cccccc" stroke="#cccccc" points="338.6,-25.1331 328.459,-22.0649 334.473,-30.7874 338.6,-25.1331"/>
</g>
<!-- Strideable&#45;&gt;Bit -->
<g id="edge2" class="edge"><title>Strideable&#45;&gt;Bit</title>
<path fill="none" stroke="#cccccc" d="M850.914,-235.184C819.795,-227.882 771.735,-214.756 733,-196 651.334,-156.457 633.099,-139.964 565,-80 547.652,-64.7242 530.285,-44.8007 518.544,-30.4734"/>
<polygon fill="#cccccc" stroke="#cccccc" points="521.011,-27.9571 512.011,-22.3673 515.561,-32.3497 521.011,-27.9571"/>
</g>
<!-- Strideable&#45;&gt;Double -->
<g id="edge3" class="edge"><title>Strideable&#45;&gt;Double</title>
<path fill="none" stroke="#cccccc" d="M850.699,-241.454C716.509,-238.987 207.069,-227.603 143,-196 81.6934,-165.759 72.7606,-141.047 42,-80 34.4452,-65.0067 30.6728,-46.2692 28.8023,-32.262"/>
<polygon fill="#cccccc" stroke="#cccccc" points="32.2671,-31.7521 27.674,-22.2047 25.3107,-32.5326 32.2671,-31.7521"/>
</g>
<!-- Strideable&#45;&gt;Float -->
<g id="edge4" class="edge"><title>Strideable&#45;&gt;Float</title>
<path fill="none" stroke="#cccccc" d="M850.866,-241.185C786.13,-238.848 635.888,-229.905 515,-196 454.474,-179.024 443.169,-164.141 386,-138 298.632,-98.0502 195.88,-49.9767 145.702,-26.429"/>
<polygon fill="#cccccc" stroke="#cccccc" points="146.927,-23.1376 136.387,-22.0561 143.952,-29.4741 146.927,-23.1376"/>
</g>
<!-- Strideable&#45;&gt;Float80 -->
<g id="edge5" class="edge"><title>Strideable&#45;&gt;Float80</title>
<path fill="none" stroke="#cccccc" d="M850.789,-240.295C794.513,-236.623 675.123,-225.739 579,-196 437.453,-152.208 282.428,-63.1935 223.04,-27.4077"/>
<polygon fill="#cccccc" stroke="#cccccc" points="224.713,-24.3285 214.347,-22.1364 221.083,-30.3141 224.713,-24.3285"/>
</g>
<!-- Strideable&#45;&gt;FloatingPointType -->
<g id="edge6" class="edge"><title>Strideable&#45;&gt;FloatingPointType</title>
<path fill="none" stroke="#cccccc" d="M850.832,-241.746C719.557,-240.465 228.626,-233.205 171,-196 133.349,-171.691 115.454,-118.826 108.195,-89.8967"/>
<polygon fill="#cccccc" stroke="#cccccc" points="111.589,-89.0381 105.914,-80.0909 104.771,-90.6238 111.589,-89.0381"/>
</g>
<!-- Strideable&#45;&gt;Int -->
<g id="edge7" class="edge"><title>Strideable&#45;&gt;Int</title>
<path fill="none" stroke="#cccccc" d="M850.796,-237.7C811.136,-231.676 742.242,-218.816 687,-196 596.254,-158.52 575.784,-141.186 499,-80 479.931,-64.8043 460.651,-44.6152 447.7,-30.1911"/>
<polygon fill="#cccccc" stroke="#cccccc" points="450.101,-27.6219 440.856,-22.4459 444.855,-32.2571 450.101,-27.6219"/>
</g>
<!-- Strideable&#45;&gt;Int16 -->
<g id="edge8" class="edge"><title>Strideable&#45;&gt;Int16</title>
<path fill="none" stroke="#cccccc" d="M850.93,-233.468C826.359,-225.999 792.319,-213.575 766,-196 708.907,-157.875 697.599,-139.868 664,-80 655.451,-64.7671 648.82,-46.0499 644.542,-32.1116"/>
<polygon fill="#cccccc" stroke="#cccccc" points="647.786,-30.7342 641.624,-22.1157 641.067,-32.6959 647.786,-30.7342"/>
</g>
<!-- Strideable&#45;&gt;Int32 -->
<g id="edge9" class="edge"><title>Strideable&#45;&gt;Int32</title>
<path fill="none" stroke="#cccccc" d="M887.205,-231.82C901.827,-196.419 950.621,-78.2851 969.983,-31.4085"/>
<polygon fill="#cccccc" stroke="#cccccc" points="973.261,-32.6408 973.844,-22.062 966.791,-29.9685 973.261,-32.6408"/>
</g>
<!-- Strideable&#45;&gt;Int64 -->
<g id="edge10" class="edge"><title>Strideable&#45;&gt;Int64</title>
<path fill="none" stroke="#cccccc" d="M861.488,-231.959C819.159,-210.841 726.045,-157.316 690,-80 685.868,-71.138 685.445,-66.6521 690,-58 697.034,-44.6379 709.897,-34.4085 722.485,-27.0279"/>
<polygon fill="#cccccc" stroke="#cccccc" points="724.379,-29.9832 731.516,-22.153 721.054,-23.8234 724.379,-29.9832"/>
</g>
<!-- Strideable&#45;&gt;Int8 -->
<g id="edge11" class="edge"><title>Strideable&#45;&gt;Int8</title>
<path fill="none" stroke="#cccccc" d="M882.159,-231.82C879.253,-196.642 869.598,-79.7709 865.677,-32.3033"/>
<polygon fill="#cccccc" stroke="#cccccc" points="869.143,-31.7399 864.831,-22.062 862.166,-32.3163 869.143,-31.7399"/>
</g>
<!-- Strideable&#45;&gt;RandomAccessIndexType -->
<g id="edge12" class="edge"><title>Strideable&#45;&gt;RandomAccessIndexType</title>
<path fill="none" stroke="#cccccc" d="M915.2,-232.753C947.435,-223.496 997.292,-209.178 1033.34,-198.825"/>
<polygon fill="#cccccc" stroke="#cccccc" points="1034.47,-202.142 1043.12,-196.018 1032.54,-195.414 1034.47,-202.142"/>
</g>
<!-- Strideable&#45;&gt;ReverseRandomAccessIndex -->
<g id="edge13" class="edge"><title>Strideable&#45;&gt;ReverseRandomAccessIndex</title>
<path fill="none" stroke="#cccccc" d="M915.271,-240.714C1016.14,-236.463 1324.52,-221.653 1421,-196 1480.19,-180.263 1490.96,-164.854 1546,-138 1625.72,-99.1076 1718.57,-50.6861 1764.03,-26.7752"/>
<polygon fill="#cccccc" stroke="#cccccc" points="1765.77,-29.8138 1772.99,-22.0572 1762.51,-23.6202 1765.77,-29.8138"/>
</g>
<!-- Strideable&#45;&gt;UInt -->
<g id="edge14" class="edge"><title>Strideable&#45;&gt;UInt</title>
<path fill="none" stroke="#cccccc" d="M915.076,-241.485C981.06,-239.695 1128.54,-231.7 1161,-196 1202.32,-150.553 1186.71,-69.7456 1176.33,-32.2055"/>
<polygon fill="#cccccc" stroke="#cccccc" points="1179.64,-31.0437 1173.47,-22.4289 1172.92,-33.0094 1179.64,-31.0437"/>
</g>
<!-- Strideable&#45;&gt;UInt16 -->
<g id="edge15" class="edge"><title>Strideable&#45;&gt;UInt16</title>
<path fill="none" stroke="#cccccc" d="M915.217,-240.882C983.653,-237.909 1140.64,-227.728 1182,-196 1235.43,-155.009 1254.34,-71.2795 1260.4,-32.5245"/>
<polygon fill="#cccccc" stroke="#cccccc" points="1263.89,-32.842 1261.85,-22.4468 1256.96,-31.8497 1263.89,-32.842"/>
</g>
<!-- Strideable&#45;&gt;UInt32 -->
<g id="edge16" class="edge"><title>Strideable&#45;&gt;UInt32</title>
<path fill="none" stroke="#cccccc" d="M915.18,-239.756C973.918,-235.15 1102.12,-222.729 1207,-196 1349.55,-159.669 1433.17,-200.882 1517,-80 1529.71,-61.6787 1509.66,-41.4778 1490.89,-27.8924"/>
<polygon fill="#cccccc" stroke="#cccccc" points="1492.71,-24.8957 1482.47,-22.1465 1488.76,-30.6764 1492.71,-24.8957"/>
</g>
<!-- Strideable&#45;&gt;UInt64 -->
<g id="edge17" class="edge"><title>Strideable&#45;&gt;UInt64</title>
<path fill="none" stroke="#cccccc" d="M915.047,-240.038C1026.27,-232.698 1394.03,-203.832 1489,-138 1528.04,-110.94 1554.2,-59.6387 1566.3,-31.5649"/>
<polygon fill="#cccccc" stroke="#cccccc" points="1569.65,-32.6198 1570.24,-22.0415 1563.18,-29.9414 1569.65,-32.6198"/>
</g>
<!-- Strideable&#45;&gt;UInt8 -->
<g id="edge18" class="edge"><title>Strideable&#45;&gt;UInt8</title>
<path fill="none" stroke="#cccccc" d="M915.281,-242.021C993.877,-241.411 1200.98,-235.816 1368,-196 1436.72,-179.617 1455.44,-174.387 1516,-138 1568.48,-106.465 1620.7,-56.0133 1646.46,-29.5316"/>
<polygon fill="#cccccc" stroke="#cccccc" points="1649.17,-31.7646 1653.58,-22.1301 1644.13,-26.9132 1649.17,-31.7646"/>
</g>
<!-- Strideable&#45;&gt;UnsafeMutablePointer -->
<g id="edge19" class="edge"><title>Strideable&#45;&gt;UnsafeMutablePointer</title>
<path fill="none" stroke="#cccccc" d="M915.321,-242.568C1004.22,-243.465 1259.42,-241.55 1465,-196 1647.25,-155.62 1852.64,-62.4829 1928.13,-26.5284"/>
<polygon fill="#cccccc" stroke="#cccccc" points="1929.99,-29.5176 1937.49,-22.0413 1926.96,-23.2043 1929.99,-29.5176"/>
</g>
<!-- Strideable&#45;&gt;UnsafePointer -->
<g id="edge20" class="edge"><title>Strideable&#45;&gt;UnsafePointer</title>
<path fill="none" stroke="#cccccc" d="M915.261,-242.337C1009.57,-242.757 1292.6,-239.973 1522,-196 1605.79,-179.937 1623.86,-164.38 1705,-138 1828.84,-97.7389 1974.94,-48.5596 2043.6,-25.3467"/>
<polygon fill="#cccccc" stroke="#cccccc" points="2044.81,-28.6338 2053.16,-22.1144 2042.56,-22.0028 2044.81,-28.6338"/>
</g>
<!-- UnsignedIntegerType&#45;&gt;UInt -->
<g id="edge57" class="edge"><title>UnsignedIntegerType&#45;&gt;UInt</title>
<path fill="none" stroke="#cccccc" d="M1382.7,-57.9883C1332.51,-47.1373 1253.42,-30.0357 1207.14,-20.0295"/>
<polygon fill="#cccccc" stroke="#cccccc" points="1207.74,-16.5792 1197.23,-17.8867 1206.26,-23.4211 1207.74,-16.5792"/>
</g>
<!-- UnsignedIntegerType&#45;&gt;UInt16 -->
<g id="edge58" class="edge"><title>UnsignedIntegerType&#45;&gt;UInt16</title>
<path fill="none" stroke="#cccccc" d="M1399.32,-57.9883C1371.51,-48.6044 1329.83,-34.5458 1299.89,-24.4442"/>
<polygon fill="#cccccc" stroke="#cccccc" points="1300.81,-21.0628 1290.22,-21.1826 1298.58,-27.6955 1300.81,-21.0628"/>
</g>
<!-- UnsignedIntegerType&#45;&gt;UInt32 -->
<g id="edge59" class="edge"><title>UnsignedIntegerType&#45;&gt;UInt32</title>
<path fill="none" stroke="#cccccc" d="M1435.44,-57.9883C1440.29,-50.4379 1447.09,-39.8611 1452.94,-30.7543"/>
<polygon fill="#cccccc" stroke="#cccccc" points="1455.91,-32.6083 1458.38,-22.3039 1450.02,-28.823 1455.91,-32.6083"/>
</g>
<!-- UnsignedIntegerType&#45;&gt;UInt64 -->
<g id="edge60" class="edge"><title>UnsignedIntegerType&#45;&gt;UInt64</title>
<path fill="none" stroke="#cccccc" d="M1454.92,-57.9883C1478.18,-49.0057 1512.53,-35.7398 1538.37,-25.7614"/>
<polygon fill="#cccccc" stroke="#cccccc" points="1539.74,-28.9816 1547.81,-22.1138 1537.22,-22.4516 1539.74,-28.9816"/>
</g>
<!-- UnsignedIntegerType&#45;&gt;UInt8 -->
<g id="edge61" class="edge"><title>UnsignedIntegerType&#45;&gt;UInt8</title>
<path fill="none" stroke="#cccccc" d="M1470.83,-57.9883C1514.92,-47.4382 1583.69,-30.9794 1625.9,-20.878"/>
<polygon fill="#cccccc" stroke="#cccccc" points="1626.86,-24.2473 1635.77,-18.5159 1625.23,-17.4395 1626.86,-24.2473"/>
</g>
<!-- _Strideable -->
<g id="node27" class="node"><title>_Strideable</title>
<g id="a_node27"><a xlink:href="/protocol/_Strideable/" xlink:title="_Strideable">
<path fill="#999999" stroke="#999999" d="M956.7,-312C956.7,-312 901.3,-312 901.3,-312 897.634,-312 893.967,-308.333 893.967,-304.667 893.967,-304.667 893.967,-297.333 893.967,-297.333 893.967,-293.667 897.634,-290 901.3,-290 901.3,-290 956.7,-290 956.7,-290 960.366,-290 964.033,-293.667 964.033,-297.333 964.033,-297.333 964.033,-304.667 964.033,-304.667 964.033,-308.333 960.366,-312 956.7,-312"/>
<text text-anchor="middle" x="929" y="-297.4" font-family="Helvetica,sans-Serif" font-size="12.00" fill="white">_Strideable</text>
</a>
</g>
</g>
<!-- _Strideable&#45;&gt;Strideable -->
<g id="edge63" class="edge"><title>_Strideable&#45;&gt;Strideable</title>
<path fill="none" stroke="#cccccc" d="M920.776,-289.988C914.445,-282.281 905.523,-271.419 897.939,-262.187"/>
<polygon fill="#cccccc" stroke="#cccccc" points="900.516,-259.81 891.464,-254.304 895.107,-264.253 900.516,-259.81"/>
</g>
</g>
</svg>
