<?xml version="1.0" encoding="UTF-8" standalone="no"?>
<!DOCTYPE svg PUBLIC "-//W3C//DTD SVG 1.1//EN"
 "http://www.w3.org/Graphics/SVG/1.1/DTD/svg11.dtd">
<!-- Generated by graphviz version 2.36.0 (20140111.2315)
 -->
<!-- Title: BidirectionalIndexType &#45; Type Hierarchy &#45; SwiftDoc.org Pages: 1 -->
<svg width="1841pt" height="601pt"
 viewBox="0.00 0.00 1841.40 601.20" xmlns="http://www.w3.org/2000/svg" xmlns:xlink="http://www.w3.org/1999/xlink">
<g id="graph0" class="graph" transform="scale(1 1) rotate(0) translate(7.2 543.6)">
<g transform="translate(0 -543.6)">
<g>
    <path fill="#666666" d="M13.846,10.832c-0.336-0.464-0.792-0.844-1.368-1.14s-1.224-0.444-1.944-0.444
        c-0.384,0-0.772,0.052-1.164,0.156C8.977,9.509,8.622,9.677,8.301,9.908c-0.32,0.232-0.58,0.52-0.78,0.864
        c-0.2,0.344-0.3,0.756-0.3,1.236c0,0.464,0.092,0.852,0.276,1.164c0.184,0.312,0.432,0.576,0.744,0.792s0.68,0.4,1.104,0.552
        c0.423,0.152,0.876,0.309,1.356,0.468c0.576,0.177,1.16,0.376,1.752,0.601c0.592,0.224,1.128,0.52,1.608,0.888
        s0.872,0.828,1.176,1.38s0.456,1.252,0.456,2.101c0,0.88-0.164,1.644-0.492,2.292c-0.328,0.647-0.765,1.184-1.308,1.607
        c-0.544,0.424-1.172,0.74-1.884,0.948s-1.444,0.312-2.196,0.312c-1.072,0-2.108-0.208-3.108-0.624
        c-1-0.415-1.828-1.031-2.484-1.848l1.848-1.56c0.4,0.592,0.936,1.071,1.608,1.439c0.672,0.368,1.399,0.552,2.184,0.552
        c0.4,0,0.8-0.056,1.2-0.168c0.4-0.111,0.764-0.288,1.092-0.527c0.328-0.24,0.596-0.54,0.804-0.9
        c0.208-0.36,0.312-0.796,0.312-1.308s-0.108-0.94-0.324-1.284c-0.216-0.344-0.508-0.636-0.876-0.876s-0.796-0.444-1.284-0.612
        c-0.488-0.168-1.004-0.34-1.548-0.516c-0.544-0.16-1.08-0.356-1.608-0.588c-0.528-0.232-1-0.528-1.416-0.889
        c-0.416-0.359-0.752-0.804-1.008-1.332c-0.256-0.527-0.384-1.184-0.384-1.968c0-0.848,0.172-1.576,0.516-2.184
        c0.344-0.608,0.792-1.112,1.344-1.512c0.552-0.4,1.176-0.692,1.872-0.876c0.696-0.184,1.396-0.276,2.1-0.276
        c0.992,0,1.92,0.176,2.784,0.528c0.864,0.352,1.56,0.824,2.088,1.416L13.846,10.832z"/>
    <path fill="#666666" d="M18.813,13.304l2.568,8.688h0.048l2.712-8.688h2.376l2.76,8.688h0.048l2.568-8.688h2.376L30.501,24.68
        h-2.352l-2.808-8.544h-0.048l-2.784,8.544h-2.352l-3.792-11.376H18.813z"/>
    <path fill="#666666" d="M38.685,9.2c0,0.416-0.147,0.76-0.44,1.032c-0.294,0.272-0.647,0.408-1.06,0.408s-0.762-0.14-1.047-0.42
        c-0.286-0.28-0.429-0.62-0.429-1.02c0-0.416,0.143-0.764,0.429-1.044c0.286-0.28,0.635-0.42,1.047-0.42s0.766,0.14,1.06,0.42
        C38.538,8.437,38.685,8.784,38.685,9.2z M38.325,24.68h-2.256V13.304h2.256V24.68z"/>
    <path fill="#666666" d="M47.613,15.152h-2.64v9.528h-2.256v-9.528h-2.256v-1.848h2.256v-2.376c0-0.672,0.076-1.292,0.228-1.86
        c0.152-0.568,0.4-1.06,0.744-1.476c0.344-0.416,0.784-0.744,1.32-0.984c0.536-0.24,1.188-0.36,1.956-0.36
        c0.544,0,1.016,0.056,1.416,0.168l-0.264,1.944c-0.176-0.048-0.352-0.088-0.528-0.12c-0.176-0.032-0.376-0.048-0.6-0.048
        c-0.432,0-0.78,0.076-1.044,0.228c-0.264,0.152-0.468,0.356-0.612,0.612s-0.24,0.548-0.288,0.876
        c-0.048,0.328-0.072,0.668-0.072,1.02v2.376h2.64V15.152z"/>
    <path fill="#666666" d="M54.909,15.152h-3.024v5.91c0,0.687,0.128,1.177,0.384,1.472c0.256,0.295,0.664,0.442,1.224,0.442
        c0.208,0,0.432-0.021,0.672-0.065c0.24-0.044,0.456-0.11,0.648-0.198l0.072,1.848c-0.272,0.096-0.572,0.172-0.9,0.229
        c-0.328,0.056-0.668,0.084-1.02,0.084c-1.072,0-1.892-0.296-2.46-0.889c-0.568-0.592-0.852-1.479-0.852-2.664v-6.168h-2.184
        v-1.848h2.184V10.04h2.232v3.264h3.024V15.152z"/>
    <path fill="#666666" d="M57.356,7.688h5.832c1.088,0,2.176,0.16,3.264,0.48c1.088,0.32,2.072,0.824,2.952,1.512
        s1.592,1.568,2.136,2.64c0.544,1.072,0.816,2.36,0.816,3.864c0,1.456-0.272,2.716-0.816,3.78s-1.256,1.943-2.136,2.64
        s-1.864,1.216-2.952,1.561c-1.088,0.344-2.176,0.516-3.264,0.516h-5.832V7.688z M59.732,22.593h2.976
        c1.024,0,1.972-0.145,2.844-0.432c0.872-0.288,1.624-0.704,2.256-1.248c0.632-0.544,1.124-1.216,1.476-2.017
        c0.352-0.8,0.528-1.704,0.528-2.712c0-1.056-0.176-1.983-0.528-2.784c-0.353-0.8-0.844-1.468-1.476-2.004
        c-0.632-0.536-1.384-0.944-2.256-1.224s-1.82-0.42-2.844-0.42h-2.976V22.593z"/>
    <path fill="#666666" d="M86.06,18.969c0,0.88-0.156,1.688-0.468,2.424c-0.312,0.736-0.744,1.372-1.296,1.908
        c-0.552,0.536-1.204,0.952-1.956,1.248c-0.752,0.296-1.56,0.443-2.424,0.443c-0.864,0-1.672-0.147-2.424-0.443
        c-0.752-0.296-1.4-0.712-1.944-1.248c-0.544-0.536-0.972-1.172-1.284-1.908c-0.312-0.735-0.468-1.544-0.468-2.424
        s0.156-1.684,0.468-2.412c0.312-0.728,0.74-1.356,1.284-1.884c0.543-0.528,1.191-0.939,1.944-1.236
        c0.752-0.296,1.56-0.444,2.424-0.444c0.864,0,1.672,0.148,2.424,0.444c0.752,0.297,1.404,0.708,1.956,1.236
        c0.552,0.527,0.984,1.156,1.296,1.884C85.904,17.285,86.06,18.089,86.06,18.969z M83.708,18.98c0-0.542-0.084-1.061-0.252-1.556
        c-0.169-0.494-0.414-0.929-0.734-1.304s-0.718-0.674-1.192-0.897s-1.015-0.335-1.625-0.335c-0.61,0-1.152,0.111-1.625,0.335
        c-0.474,0.224-0.871,0.522-1.191,0.897c-0.321,0.375-0.566,0.81-0.734,1.304C76.184,17.92,76.1,18.438,76.1,18.98
        c0,0.543,0.084,1.062,0.253,1.556c0.168,0.495,0.413,0.934,0.734,1.316c0.321,0.383,0.718,0.686,1.191,0.909
        c0.473,0.224,1.015,0.335,1.625,0.335c0.61,0,1.151-0.111,1.625-0.335s0.871-0.526,1.192-0.909s0.565-0.821,0.734-1.316
        C83.624,20.042,83.708,19.523,83.708,18.98z"/>
    <path fill="#666666" d="M96.428,16.184c-0.24-0.368-0.6-0.676-1.08-0.924s-0.992-0.372-1.536-0.372
        c-0.592,0-1.116,0.112-1.572,0.336c-0.456,0.225-0.844,0.524-1.164,0.9c-0.32,0.376-0.564,0.812-0.732,1.308
        s-0.252,1.017-0.252,1.56c0,0.545,0.084,1.064,0.252,1.561s0.412,0.933,0.732,1.308c0.32,0.376,0.712,0.677,1.176,0.9
        c0.464,0.225,0.992,0.336,1.584,0.336c0.576,0,1.1-0.111,1.572-0.336c0.472-0.224,0.86-0.528,1.164-0.912l1.512,1.368
        c-0.48,0.561-1.08,0.996-1.8,1.308c-0.72,0.312-1.536,0.468-2.448,0.468c-0.88,0-1.692-0.144-2.436-0.432
        c-0.744-0.288-1.388-0.691-1.932-1.212c-0.544-0.52-0.972-1.147-1.284-1.884s-0.468-1.561-0.468-2.473
        c0-0.896,0.152-1.711,0.456-2.447c0.304-0.736,0.728-1.368,1.272-1.896c0.543-0.527,1.188-0.936,1.932-1.224
        c0.744-0.288,1.548-0.433,2.412-0.433c0.8,0,1.596,0.16,2.388,0.48s1.419,0.784,1.884,1.392L96.428,16.184z"/>
    <path fill="#666666" d="M103.1,23.24c0,0.417-0.152,0.784-0.456,1.104c-0.304,0.32-0.688,0.479-1.152,0.479
        c-0.448,0-0.828-0.155-1.14-0.468c-0.312-0.312-0.468-0.676-0.468-1.092c0-0.432,0.152-0.804,0.456-1.116
        c0.304-0.312,0.688-0.468,1.152-0.468c0.464,0,0.848,0.152,1.152,0.456C102.947,22.44,103.1,22.808,103.1,23.24z"/>
    <path fill="#666666" d="M116.635,18.969c0,0.88-0.156,1.688-0.468,2.424c-0.312,0.736-0.744,1.372-1.296,1.908
        c-0.552,0.536-1.204,0.952-1.956,1.248c-0.752,0.296-1.56,0.443-2.424,0.443c-0.864,0-1.672-0.147-2.424-0.443
        c-0.752-0.296-1.4-0.712-1.944-1.248c-0.544-0.536-0.972-1.172-1.284-1.908c-0.312-0.735-0.468-1.544-0.468-2.424
        s0.156-1.684,0.468-2.412c0.312-0.728,0.74-1.356,1.284-1.884c0.543-0.528,1.191-0.939,1.944-1.236
        c0.752-0.296,1.56-0.444,2.424-0.444c0.864,0,1.672,0.148,2.424,0.444c0.752,0.297,1.404,0.708,1.956,1.236
        c0.552,0.527,0.984,1.156,1.296,1.884C116.479,17.285,116.635,18.089,116.635,18.969z M114.283,18.98
        c0-0.542-0.084-1.061-0.252-1.556c-0.169-0.494-0.414-0.929-0.734-1.304s-0.718-0.674-1.192-0.897s-1.015-0.335-1.625-0.335
        c-0.61,0-1.152,0.111-1.625,0.335c-0.474,0.224-0.871,0.522-1.191,0.897c-0.321,0.375-0.566,0.81-0.734,1.304
        c-0.169,0.495-0.253,1.014-0.253,1.556c0,0.543,0.084,1.062,0.253,1.556c0.168,0.495,0.413,0.934,0.734,1.316
        c0.321,0.383,0.718,0.686,1.191,0.909c0.473,0.224,1.015,0.335,1.625,0.335c0.61,0,1.151-0.111,1.625-0.335
        s0.871-0.526,1.192-0.909s0.565-0.821,0.734-1.316C114.199,20.042,114.283,19.523,114.283,18.98z"/>
    <path fill="#666666" d="M119.251,14.577c-0.016-0.48-0.04-0.904-0.072-1.272h2.136c0.032,0.288,0.056,0.62,0.072,0.996
        c0.016,0.376,0.024,0.684,0.024,0.924h0.072c0.32-0.672,0.788-1.212,1.404-1.62c0.616-0.408,1.308-0.612,2.076-0.612
        c0.352,0,0.648,0.033,0.888,0.097l-0.096,2.088c-0.32-0.08-0.664-0.12-1.032-0.12c-0.544,0-1.016,0.101-1.416,0.3
        c-0.4,0.2-0.732,0.468-0.996,0.805c-0.264,0.336-0.46,0.724-0.588,1.163c-0.128,0.44-0.192,0.9-0.192,1.381v5.976h-2.256v-8.928
        C119.275,15.449,119.267,15.056,119.251,14.577z"/>
    <path fill="#666666" d="M128.419,26.625c0.496,0.56,1.116,1.008,1.86,1.344c0.744,0.336,1.508,0.504,2.292,0.504
        c0.752,0,1.384-0.108,1.896-0.324s0.924-0.512,1.236-0.888s0.536-0.82,0.672-1.332c0.136-0.513,0.204-1.064,0.204-1.656v-1.464
        h-0.048c-0.416,0.641-0.984,1.128-1.704,1.464c-0.72,0.336-1.488,0.504-2.304,0.504c-0.864,0-1.652-0.151-2.364-0.456
        c-0.712-0.304-1.316-0.72-1.812-1.248c-0.496-0.527-0.88-1.147-1.152-1.859s-0.408-1.477-0.408-2.292
        c0-0.816,0.136-1.584,0.408-2.305c0.272-0.72,0.656-1.348,1.152-1.884c0.496-0.535,1.096-0.96,1.8-1.271
        c0.704-0.312,1.488-0.469,2.352-0.469c0.816,0,1.596,0.177,2.34,0.528c0.744,0.353,1.332,0.888,1.764,1.608h0.048v-1.824h2.184
        v10.8c0,0.832-0.104,1.628-0.312,2.388c-0.208,0.76-0.56,1.433-1.056,2.017s-1.144,1.052-1.944,1.404
        c-0.8,0.352-1.792,0.527-2.976,0.527c-0.992,0-1.988-0.18-2.988-0.54c-1-0.359-1.86-0.868-2.58-1.523L128.419,26.625z
         M129.091,18.873c0,0.527,0.084,1.031,0.253,1.512c0.168,0.479,0.417,0.904,0.746,1.271c0.329,0.369,0.726,0.664,1.192,0.889
        c0.465,0.224,0.995,0.336,1.589,0.336c0.577,0,1.107-0.104,1.589-0.312c0.481-0.207,0.891-0.491,1.228-0.852
        s0.598-0.784,0.782-1.272c0.185-0.487,0.277-1.012,0.277-1.571c0-0.544-0.093-1.057-0.277-1.536
        c-0.185-0.48-0.449-0.904-0.794-1.272c-0.345-0.367-0.755-0.66-1.228-0.876c-0.474-0.216-1-0.324-1.577-0.324
        c-0.594,0-1.124,0.108-1.589,0.324c-0.466,0.216-0.863,0.504-1.192,0.864s-0.578,0.784-0.746,1.271
        C129.175,17.812,129.091,18.329,129.091,18.873z"/>
</g>
<g><a xlink:href="/" pointer-events="all" target="_top"><polygon fill="none" points="0,0 145,0 145,35 0,35 0,0"/></a></g>

</g>


<!-- BidirectionalIndexType -->
<g id="node1" class="node">
<g id="a_node1"><a xlink:href="/v1.2/protocol/BidirectionalIndexType/" target="_top">
<path fill="#ee543d" stroke="#ee543d" d="M1583.73,-254C1583.73,-254 1468.27,-254 1468.27,-254 1464.61,-254 1460.94,-250.333 1460.94,-246.667 1460.94,-246.667 1460.94,-239.333 1460.94,-239.333 1460.94,-235.667 1464.61,-232 1468.27,-232 1468.27,-232 1583.73,-232 1583.73,-232 1587.39,-232 1591.06,-235.667 1591.06,-239.333 1591.06,-239.333 1591.06,-246.667 1591.06,-246.667 1591.06,-250.333 1587.39,-254 1583.73,-254"/>
<text text-anchor="middle" x="1526" y="-239.4" font-family="Helvetica,sans-Serif" font-size="12.00" fill="white">BidirectionalIndexType</text>
</a>
</g>
</g>
<!-- RandomAccessIndexType -->
<g id="node11" class="node">
<g id="a_node11"><a xlink:href="/v1.2/protocol/RandomAccessIndexType/hierarchy/" target="_top">
<path fill="#999999" stroke="#999999" d="M1115.23,-196C1115.23,-196 980.775,-196 980.775,-196 977.108,-196 973.441,-192.333 973.441,-188.667 973.441,-188.667 973.441,-181.333 973.441,-181.333 973.441,-177.667 977.108,-174 980.775,-174 980.775,-174 1115.23,-174 1115.23,-174 1118.89,-174 1122.56,-177.667 1122.56,-181.333 1122.56,-181.333 1122.56,-188.667 1122.56,-188.667 1122.56,-192.333 1118.89,-196 1115.23,-196"/>
<text text-anchor="middle" x="1048" y="-181.4" font-family="Helvetica,sans-Serif" font-size="12.00" fill="white">RandomAccessIndexType</text>
</a>
</g>
</g>
<!-- BidirectionalIndexType&#45;&gt;RandomAccessIndexType -->
<g id="edge1" class="edge">
<path fill="none" stroke="#cccccc" d="M1460.54,-234.331C1375.3,-224.345 1226.18,-206.875 1132.49,-195.899"/>
<polygon fill="#cccccc" stroke="#cccccc" points="1132.82,-192.413 1122.48,-194.726 1132,-199.366 1132.82,-192.413"/>
</g>
<!-- ReverseBidirectionalIndex -->
<g id="node12" class="node">
<g id="a_node12"><a xlink:href="/v1.2/type/ReverseBidirectionalIndex/hierarchy/" target="_top">
<polygon fill="#999999" stroke="#999999" points="1535.55,-22 1386.45,-22 1386.45,-0 1535.55,-0 1535.55,-22"/>
<text text-anchor="middle" x="1461" y="-7.4" font-family="Helvetica,sans-Serif" font-size="12.00" fill="white">ReverseBidirectionalIndex</text>
</a>
</g>
</g>
<!-- BidirectionalIndexType&#45;&gt;ReverseBidirectionalIndex -->
<g id="edge2" class="edge">
<path fill="none" stroke="#cccccc" d="M1523.12,-231.82C1513.14,-196.494 1479.87,-78.7811 1466.57,-31.7049"/>
<polygon fill="#cccccc" stroke="#cccccc" points="1469.93,-30.7333 1463.84,-22.062 1463.2,-32.637 1469.93,-30.7333"/>
</g>
<!-- String.Index -->
<g id="node15" class="node">
<g id="a_node15"><a xlink:href="/v1.2/type/String.Index/hierarchy/" target="_top">
<polygon fill="#999999" stroke="#999999" points="1628.03,-22 1553.97,-22 1553.97,-0 1628.03,-0 1628.03,-22"/>
<text text-anchor="middle" x="1591" y="-7.4" font-family="Helvetica,sans-Serif" font-size="12.00" fill="white">String.Index</text>
</a>
</g>
</g>
<!-- BidirectionalIndexType&#45;&gt;String.Index -->
<g id="edge3" class="edge">
<path fill="none" stroke="#cccccc" d="M1528.88,-231.82C1538.86,-196.494 1572.13,-78.7811 1585.43,-31.7049"/>
<polygon fill="#cccccc" stroke="#cccccc" points="1588.8,-32.637 1588.16,-22.062 1582.07,-30.7333 1588.8,-32.637"/>
</g>
<!-- String.UnicodeScalarView.Index -->
<g id="node17" class="node">
<g id="a_node17"><a xlink:href="/v1.2/type/String.UnicodeScalarView.Index/hierarchy/" target="_top">
<polygon fill="#999999" stroke="#999999" points="1825.92,-22 1646.08,-22 1646.08,-0 1825.92,-0 1825.92,-22"/>
<text text-anchor="middle" x="1736" y="-7.4" font-family="Helvetica,sans-Serif" font-size="12.00" fill="white">String.UnicodeScalarView.Index</text>
</a>
</g>
</g>
<!-- BidirectionalIndexType&#45;&gt;String.UnicodeScalarView.Index -->
<g id="edge4" class="edge">
<path fill="none" stroke="#cccccc" d="M1535.29,-231.82C1568.02,-195.973 1678.21,-75.2938 1719.87,-29.6701"/>
<polygon fill="#cccccc" stroke="#cccccc" points="1722.65,-31.8069 1726.81,-22.062 1717.49,-27.087 1722.65,-31.8069"/>
</g>
<!-- Bit -->
<g id="node2" class="node">
<g id="a_node2"><a xlink:href="/v1.2/type/Bit/hierarchy/" target="_top">
<polygon fill="#999999" stroke="#999999" points="54,-22 0,-22 0,-0 54,-0 54,-22"/>
<text text-anchor="middle" x="27" y="-7.4" font-family="Helvetica,sans-Serif" font-size="12.00" fill="white">Bit</text>
</a>
</g>
</g>
<!-- Equatable -->
<g id="node3" class="node">
<g id="a_node3"><a xlink:href="/v1.2/protocol/Equatable/hierarchy/" target="_top">
<path fill="#999999" stroke="#999999" d="M1550.7,-486C1550.7,-486 1501.3,-486 1501.3,-486 1497.63,-486 1493.96,-482.333 1493.96,-478.667 1493.96,-478.667 1493.96,-471.333 1493.96,-471.333 1493.96,-467.667 1497.63,-464 1501.3,-464 1501.3,-464 1550.7,-464 1550.7,-464 1554.37,-464 1558.04,-467.667 1558.04,-471.333 1558.04,-471.333 1558.04,-478.667 1558.04,-478.667 1558.04,-482.333 1554.37,-486 1550.7,-486"/>
<text text-anchor="middle" x="1526" y="-471.4" font-family="Helvetica,sans-Serif" font-size="12.00" fill="white">Equatable</text>
</a>
</g>
</g>
<!-- _Incrementable -->
<g id="node28" class="node">
<g id="a_node28"><a xlink:href="/v1.2/protocol/_Incrementable/hierarchy/" target="_top">
<path fill="#999999" stroke="#999999" d="M1564.71,-428C1564.71,-428 1487.29,-428 1487.29,-428 1483.63,-428 1479.96,-424.333 1479.96,-420.667 1479.96,-420.667 1479.96,-413.333 1479.96,-413.333 1479.96,-409.667 1483.63,-406 1487.29,-406 1487.29,-406 1564.71,-406 1564.71,-406 1568.37,-406 1572.04,-409.667 1572.04,-413.333 1572.04,-413.333 1572.04,-420.667 1572.04,-420.667 1572.04,-424.333 1568.37,-428 1564.71,-428"/>
<text text-anchor="middle" x="1526" y="-413.4" font-family="Helvetica,sans-Serif" font-size="12.00" fill="white">_Incrementable</text>
</a>
</g>
</g>
<!-- Equatable&#45;&gt;_Incrementable -->
<g id="edge27" class="edge">
<path fill="none" stroke="#cccccc" d="M1526,-463.988C1526,-456.91 1526,-447.171 1526,-438.478"/>
<polygon fill="#cccccc" stroke="#cccccc" points="1529.5,-438.304 1526,-428.304 1522.5,-438.304 1529.5,-438.304"/>
</g>
<!-- ForwardIndexType -->
<g id="node4" class="node">
<g id="a_node4"><a xlink:href="/v1.2/protocol/ForwardIndexType/hierarchy/" target="_top">
<path fill="#999999" stroke="#999999" d="M1503.21,-312C1503.21,-312 1408.79,-312 1408.79,-312 1405.13,-312 1401.46,-308.333 1401.46,-304.667 1401.46,-304.667 1401.46,-297.333 1401.46,-297.333 1401.46,-293.667 1405.13,-290 1408.79,-290 1408.79,-290 1503.21,-290 1503.21,-290 1506.87,-290 1510.54,-293.667 1510.54,-297.333 1510.54,-297.333 1510.54,-304.667 1510.54,-304.667 1510.54,-308.333 1506.87,-312 1503.21,-312"/>
<text text-anchor="middle" x="1456" y="-297.4" font-family="Helvetica,sans-Serif" font-size="12.00" fill="white">ForwardIndexType</text>
</a>
</g>
</g>
<!-- ForwardIndexType&#45;&gt;BidirectionalIndexType -->
<g id="edge23" class="edge">
<path fill="none" stroke="#cccccc" d="M1468.51,-289.988C1478.64,-281.887 1493.12,-270.303 1505.02,-260.787"/>
<polygon fill="#cccccc" stroke="#cccccc" points="1507.5,-263.284 1513.12,-254.304 1503.13,-257.818 1507.5,-263.284"/>
</g>
<!-- Int -->
<g id="node5" class="node">
<g id="a_node5"><a xlink:href="/v1.2/type/Int/hierarchy/" target="_top">
<polygon fill="#999999" stroke="#999999" points="126,-22 72,-22 72,-0 126,-0 126,-22"/>
<text text-anchor="middle" x="99" y="-7.4" font-family="Helvetica,sans-Serif" font-size="12.00" fill="white">Int</text>
</a>
</g>
</g>
<!-- Int16 -->
<g id="node6" class="node">
<g id="a_node6"><a xlink:href="/v1.2/type/Int16/hierarchy/" target="_top">
<polygon fill="#999999" stroke="#999999" points="198,-22 144,-22 144,-0 198,-0 198,-22"/>
<text text-anchor="middle" x="171" y="-7.4" font-family="Helvetica,sans-Serif" font-size="12.00" fill="white">Int16</text>
</a>
</g>
</g>
<!-- Int32 -->
<g id="node7" class="node">
<g id="a_node7"><a xlink:href="/v1.2/type/Int32/hierarchy/" target="_top">
<polygon fill="#999999" stroke="#999999" points="270,-22 216,-22 216,-0 270,-0 270,-22"/>
<text text-anchor="middle" x="243" y="-7.4" font-family="Helvetica,sans-Serif" font-size="12.00" fill="white">Int32</text>
</a>
</g>
</g>
<!-- Int64 -->
<g id="node8" class="node">
<g id="a_node8"><a xlink:href="/v1.2/type/Int64/hierarchy/" target="_top">
<polygon fill="#999999" stroke="#999999" points="342,-22 288,-22 288,-0 342,-0 342,-22"/>
<text text-anchor="middle" x="315" y="-7.4" font-family="Helvetica,sans-Serif" font-size="12.00" fill="white">Int64</text>
</a>
</g>
</g>
<!-- Int8 -->
<g id="node9" class="node">
<g id="a_node9"><a xlink:href="/v1.2/type/Int8/hierarchy/" target="_top">
<polygon fill="#999999" stroke="#999999" points="414,-22 360,-22 360,-0 414,-0 414,-22"/>
<text text-anchor="middle" x="387" y="-7.4" font-family="Helvetica,sans-Serif" font-size="12.00" fill="white">Int8</text>
</a>
</g>
</g>
<!-- IntegerType -->
<g id="node10" class="node">
<g id="a_node10"><a xlink:href="/v1.2/protocol/IntegerType/hierarchy/" target="_top">
<path fill="#999999" stroke="#999999" d="M632.202,-138C632.202,-138 573.798,-138 573.798,-138 570.132,-138 566.465,-134.333 566.465,-130.667 566.465,-130.667 566.465,-123.333 566.465,-123.333 566.465,-119.667 570.132,-116 573.798,-116 573.798,-116 632.202,-116 632.202,-116 635.868,-116 639.535,-119.667 639.535,-123.333 639.535,-123.333 639.535,-130.667 639.535,-130.667 639.535,-134.333 635.868,-138 632.202,-138"/>
<text text-anchor="middle" x="603" y="-123.4" font-family="Helvetica,sans-Serif" font-size="12.00" fill="white">IntegerType</text>
</a>
</g>
</g>
<!-- SignedIntegerType -->
<g id="node14" class="node">
<g id="a_node14"><a xlink:href="/v1.2/protocol/SignedIntegerType/hierarchy/" target="_top">
<path fill="#999999" stroke="#999999" d="M326.727,-80C326.727,-80 231.273,-80 231.273,-80 227.606,-80 223.94,-76.3333 223.94,-72.6667 223.94,-72.6667 223.94,-65.3333 223.94,-65.3333 223.94,-61.6667 227.606,-58 231.273,-58 231.273,-58 326.727,-58 326.727,-58 330.394,-58 334.06,-61.6667 334.06,-65.3333 334.06,-65.3333 334.06,-72.6667 334.06,-72.6667 334.06,-76.3333 330.394,-80 326.727,-80"/>
<text text-anchor="middle" x="279" y="-65.4" font-family="Helvetica,sans-Serif" font-size="12.00" fill="white">SignedIntegerType</text>
</a>
</g>
</g>
<!-- IntegerType&#45;&gt;SignedIntegerType -->
<g id="edge11" class="edge">
<path fill="none" stroke="#cccccc" d="M566.463,-119.685C512.627,-110.38 411.159,-92.8424 344.318,-81.2896"/>
<polygon fill="#cccccc" stroke="#cccccc" points="344.759,-77.814 334.309,-79.5596 343.567,-84.7117 344.759,-77.814"/>
</g>
<!-- UnsignedIntegerType -->
<g id="node25" class="node">
<g id="a_node25"><a xlink:href="/v1.2/protocol/UnsignedIntegerType/hierarchy/" target="_top">
<path fill="#999999" stroke="#999999" d="M657.728,-80C657.728,-80 548.272,-80 548.272,-80 544.605,-80 540.938,-76.3333 540.938,-72.6667 540.938,-72.6667 540.938,-65.3333 540.938,-65.3333 540.938,-61.6667 544.605,-58 548.272,-58 548.272,-58 657.728,-58 657.728,-58 661.395,-58 665.062,-61.6667 665.062,-65.3333 665.062,-65.3333 665.062,-72.6667 665.062,-72.6667 665.062,-76.3333 661.395,-80 657.728,-80"/>
<text text-anchor="middle" x="603" y="-65.4" font-family="Helvetica,sans-Serif" font-size="12.00" fill="white">UnsignedIntegerType</text>
</a>
</g>
</g>
<!-- IntegerType&#45;&gt;UnsignedIntegerType -->
<g id="edge12" class="edge">
<path fill="none" stroke="#cccccc" d="M603,-115.988C603,-108.91 603,-99.1714 603,-90.4779"/>
<polygon fill="#cccccc" stroke="#cccccc" points="606.5,-90.3038 603,-80.3039 599.5,-90.3039 606.5,-90.3038"/>
</g>
<!-- RandomAccessIndexType&#45;&gt;Bit -->
<g id="edge5" class="edge">
<path fill="none" stroke="#cccccc" d="M973.484,-181.339C826.244,-174.634 488.589,-152.057 215,-80 159.387,-65.3529 97.0071,-41.1797 59.9173,-25.9476"/>
<polygon fill="#cccccc" stroke="#cccccc" points="61.1811,-22.6828 50.6027,-22.0915 58.5035,-29.1505 61.1811,-22.6828"/>
</g>
<!-- RandomAccessIndexType&#45;&gt;IntegerType -->
<g id="edge6" class="edge">
<path fill="none" stroke="#cccccc" d="M973.517,-174.627C881.239,-163.014 726.795,-143.579 649.718,-133.879"/>
<polygon fill="#cccccc" stroke="#cccccc" points="649.729,-130.353 639.37,-132.577 648.854,-137.298 649.729,-130.353"/>
</g>
<!-- ReverseRandomAccessIndex -->
<g id="node13" class="node">
<g id="a_node13"><a xlink:href="/v1.2/type/ReverseRandomAccessIndex/hierarchy/" target="_top">
<polygon fill="#999999" stroke="#999999" points="960.056,-22 791.944,-22 791.944,-0 960.056,-0 960.056,-22"/>
<text text-anchor="middle" x="876" y="-7.4" font-family="Helvetica,sans-Serif" font-size="12.00" fill="white">ReverseRandomAccessIndex</text>
</a>
</g>
</g>
<!-- RandomAccessIndexType&#45;&gt;ReverseRandomAccessIndex -->
<g id="edge7" class="edge">
<path fill="none" stroke="#cccccc" d="M1037.76,-173.756C1009.38,-145.382 929.515,-65.5149 893.73,-29.7296"/>
<polygon fill="#cccccc" stroke="#cccccc" points="895.954,-27.0043 886.408,-22.4081 891.004,-31.9541 895.954,-27.0043"/>
</g>
<!-- String.UTF16View.Index -->
<g id="node16" class="node">
<g id="a_node16"><a xlink:href="/v1.2/type/String.UTF16View.Index/hierarchy/" target="_top">
<polygon fill="#999999" stroke="#999999" points="1117.39,-22 978.61,-22 978.61,-0 1117.39,-0 1117.39,-22"/>
<text text-anchor="middle" x="1048" y="-7.4" font-family="Helvetica,sans-Serif" font-size="12.00" fill="white">String.UTF16View.Index</text>
</a>
</g>
</g>
<!-- RandomAccessIndexType&#45;&gt;String.UTF16View.Index -->
<g id="edge10" class="edge">
<path fill="none" stroke="#cccccc" d="M1048,-173.756C1048,-146.097 1048,-69.5091 1048,-32.5186"/>
<polygon fill="#cccccc" stroke="#cccccc" points="1051.5,-32.408 1048,-22.4081 1044.5,-32.4081 1051.5,-32.408"/>
</g>
<!-- UnsafeMutablePointer -->
<g id="node23" class="node">
<g id="a_node23"><a xlink:href="/v1.2/type/UnsafeMutablePointer/hierarchy/" target="_top">
<polygon fill="#999999" stroke="#999999" points="1264.05,-22 1135.95,-22 1135.95,-0 1264.05,-0 1264.05,-22"/>
<text text-anchor="middle" x="1200" y="-7.4" font-family="Helvetica,sans-Serif" font-size="12.00" fill="white">UnsafeMutablePointer</text>
</a>
</g>
</g>
<!-- RandomAccessIndexType&#45;&gt;UnsafeMutablePointer -->
<g id="edge8" class="edge">
<path fill="none" stroke="#cccccc" d="M1057.05,-173.756C1082.02,-145.501 1152.12,-66.1852 1183.93,-30.183"/>
<polygon fill="#cccccc" stroke="#cccccc" points="1186.8,-32.2191 1190.8,-22.4081 1181.56,-27.5837 1186.8,-32.2191"/>
</g>
<!-- UnsafePointer -->
<g id="node24" class="node">
<g id="a_node24"><a xlink:href="/v1.2/type/UnsafePointer/hierarchy/" target="_top">
<polygon fill="#999999" stroke="#999999" points="1368.03,-22 1281.97,-22 1281.97,-0 1368.03,-0 1368.03,-22"/>
<text text-anchor="middle" x="1325" y="-7.4" font-family="Helvetica,sans-Serif" font-size="12.00" fill="white">UnsafePointer</text>
</a>
</g>
</g>
<!-- RandomAccessIndexType&#45;&gt;UnsafePointer -->
<g id="edge9" class="edge">
<path fill="none" stroke="#cccccc" d="M1064.5,-173.756C1111.17,-144.777 1244.34,-62.0856 1300.04,-27.5016"/>
<polygon fill="#cccccc" stroke="#cccccc" points="1301.94,-30.4392 1308.59,-22.1906 1298.25,-24.4924 1301.94,-30.4392"/>
</g>
<!-- SignedIntegerType&#45;&gt;Int -->
<g id="edge13" class="edge">
<path fill="none" stroke="#cccccc" d="M246.82,-57.9883C215.661,-48.2947 168.47,-33.6128 135.827,-23.4573"/>
<polygon fill="#cccccc" stroke="#cccccc" points="136.786,-20.0902 126.198,-20.4615 134.706,-26.7742 136.786,-20.0902"/>
</g>
<!-- SignedIntegerType&#45;&gt;Int16 -->
<g id="edge14" class="edge">
<path fill="none" stroke="#cccccc" d="M259.692,-57.9883C242.979,-49.3223 218.577,-36.6696 199.597,-26.8283"/>
<polygon fill="#cccccc" stroke="#cccccc" points="200.994,-23.6099 190.505,-22.1138 197.772,-29.8242 200.994,-23.6099"/>
</g>
<!-- SignedIntegerType&#45;&gt;Int32 -->
<g id="edge15" class="edge">
<path fill="none" stroke="#cccccc" d="M272.564,-57.9883C267.71,-50.4379 260.911,-39.8611 255.056,-30.7543"/>
<polygon fill="#cccccc" stroke="#cccccc" points="257.976,-28.823 249.624,-22.3039 252.087,-32.6083 257.976,-28.823"/>
</g>
<!-- SignedIntegerType&#45;&gt;Int64 -->
<g id="edge16" class="edge">
<path fill="none" stroke="#cccccc" d="M285.436,-57.9883C290.29,-50.4379 297.089,-39.8611 302.944,-30.7543"/>
<polygon fill="#cccccc" stroke="#cccccc" points="305.913,-32.6083 308.376,-22.3039 300.024,-28.823 305.913,-32.6083"/>
</g>
<!-- SignedIntegerType&#45;&gt;Int8 -->
<g id="edge17" class="edge">
<path fill="none" stroke="#cccccc" d="M298.308,-57.9883C315.021,-49.3223 339.423,-36.6696 358.403,-26.8283"/>
<polygon fill="#cccccc" stroke="#cccccc" points="360.228,-29.8242 367.495,-22.1138 357.006,-23.6099 360.228,-29.8242"/>
</g>
<!-- UInt -->
<g id="node18" class="node">
<g id="a_node18"><a xlink:href="/v1.2/type/UInt/hierarchy/" target="_top">
<polygon fill="#999999" stroke="#999999" points="486,-22 432,-22 432,-0 486,-0 486,-22"/>
<text text-anchor="middle" x="459" y="-7.4" font-family="Helvetica,sans-Serif" font-size="12.00" fill="white">UInt</text>
</a>
</g>
</g>
<!-- UInt16 -->
<g id="node19" class="node">
<g id="a_node19"><a xlink:href="/v1.2/type/UInt16/hierarchy/" target="_top">
<polygon fill="#999999" stroke="#999999" points="558,-22 504,-22 504,-0 558,-0 558,-22"/>
<text text-anchor="middle" x="531" y="-7.4" font-family="Helvetica,sans-Serif" font-size="12.00" fill="white">UInt16</text>
</a>
</g>
</g>
<!-- UInt32 -->
<g id="node20" class="node">
<g id="a_node20"><a xlink:href="/v1.2/type/UInt32/hierarchy/" target="_top">
<polygon fill="#999999" stroke="#999999" points="630,-22 576,-22 576,-0 630,-0 630,-22"/>
<text text-anchor="middle" x="603" y="-7.4" font-family="Helvetica,sans-Serif" font-size="12.00" fill="white">UInt32</text>
</a>
</g>
</g>
<!-- UInt64 -->
<g id="node21" class="node">
<g id="a_node21"><a xlink:href="/v1.2/type/UInt64/hierarchy/" target="_top">
<polygon fill="#999999" stroke="#999999" points="702,-22 648,-22 648,-0 702,-0 702,-22"/>
<text text-anchor="middle" x="675" y="-7.4" font-family="Helvetica,sans-Serif" font-size="12.00" fill="white">UInt64</text>
</a>
</g>
</g>
<!-- UInt8 -->
<g id="node22" class="node">
<g id="a_node22"><a xlink:href="/v1.2/type/UInt8/hierarchy/" target="_top">
<polygon fill="#999999" stroke="#999999" points="774,-22 720,-22 720,-0 774,-0 774,-22"/>
<text text-anchor="middle" x="747" y="-7.4" font-family="Helvetica,sans-Serif" font-size="12.00" fill="white">UInt8</text>
</a>
</g>
</g>
<!-- UnsignedIntegerType&#45;&gt;UInt -->
<g id="edge18" class="edge">
<path fill="none" stroke="#cccccc" d="M577.256,-57.9883C554.158,-49.0057 520.045,-35.7398 494.386,-25.7614"/>
<polygon fill="#cccccc" stroke="#cccccc" points="495.596,-22.4763 485.007,-22.1138 493.058,-29.0004 495.596,-22.4763"/>
</g>
<!-- UnsignedIntegerType&#45;&gt;UInt16 -->
<g id="edge19" class="edge">
<path fill="none" stroke="#cccccc" d="M590.128,-57.9883C579.611,-49.8087 564.528,-38.0773 552.228,-28.5108"/>
<polygon fill="#cccccc" stroke="#cccccc" points="554.29,-25.6806 544.248,-22.3039 549.993,-31.2061 554.29,-25.6806"/>
</g>
<!-- UnsignedIntegerType&#45;&gt;UInt32 -->
<g id="edge20" class="edge">
<path fill="none" stroke="#cccccc" d="M603,-57.9883C603,-50.9098 603,-41.1714 603,-32.4779"/>
<polygon fill="#cccccc" stroke="#cccccc" points="606.5,-32.3038 603,-22.3039 599.5,-32.3039 606.5,-32.3038"/>
</g>
<!-- UnsignedIntegerType&#45;&gt;UInt64 -->
<g id="edge21" class="edge">
<path fill="none" stroke="#cccccc" d="M615.872,-57.9883C626.389,-49.8087 641.472,-38.0773 653.772,-28.5108"/>
<polygon fill="#cccccc" stroke="#cccccc" points="656.007,-31.2061 661.752,-22.3039 651.71,-25.6806 656.007,-31.2061"/>
</g>
<!-- UnsignedIntegerType&#45;&gt;UInt8 -->
<g id="edge22" class="edge">
<path fill="none" stroke="#cccccc" d="M628.744,-57.9883C651.842,-49.0057 685.955,-35.7398 711.614,-25.7614"/>
<polygon fill="#cccccc" stroke="#cccccc" points="712.942,-29.0004 720.993,-22.1138 710.404,-22.4763 712.942,-29.0004"/>
</g>
<!-- _BidirectionalIndexType -->
<g id="node26" class="node">
<g id="a_node26"><a xlink:href="/v1.2/protocol/_BidirectionalIndexType/hierarchy/" target="_top">
<path fill="#999999" stroke="#999999" d="M1658.23,-312C1658.23,-312 1535.77,-312 1535.77,-312 1532.1,-312 1528.44,-308.333 1528.44,-304.667 1528.44,-304.667 1528.44,-297.333 1528.44,-297.333 1528.44,-293.667 1532.1,-290 1535.77,-290 1535.77,-290 1658.23,-290 1658.23,-290 1661.9,-290 1665.56,-293.667 1665.56,-297.333 1665.56,-297.333 1665.56,-304.667 1665.56,-304.667 1665.56,-308.333 1661.9,-312 1658.23,-312"/>
<text text-anchor="middle" x="1597" y="-297.4" font-family="Helvetica,sans-Serif" font-size="12.00" fill="white">_BidirectionalIndexType</text>
</a>
</g>
</g>
<!-- _BidirectionalIndexType&#45;&gt;BidirectionalIndexType -->
<g id="edge24" class="edge">
<path fill="none" stroke="#cccccc" d="M1584.31,-289.988C1573.94,-281.809 1559.06,-270.077 1546.93,-260.511"/>
<polygon fill="#cccccc" stroke="#cccccc" points="1549.08,-257.749 1539.06,-254.304 1544.75,-263.245 1549.08,-257.749"/>
</g>
<!-- _ForwardIndexType -->
<g id="node27" class="node">
<g id="a_node27"><a xlink:href="/v1.2/protocol/_ForwardIndexType/hierarchy/" target="_top">
<path fill="#999999" stroke="#999999" d="M1576.71,-370C1576.71,-370 1475.29,-370 1475.29,-370 1471.62,-370 1467.95,-366.333 1467.95,-362.667 1467.95,-362.667 1467.95,-355.333 1467.95,-355.333 1467.95,-351.667 1471.62,-348 1475.29,-348 1475.29,-348 1576.71,-348 1576.71,-348 1580.38,-348 1584.05,-351.667 1584.05,-355.333 1584.05,-355.333 1584.05,-362.667 1584.05,-362.667 1584.05,-366.333 1580.38,-370 1576.71,-370"/>
<text text-anchor="middle" x="1526" y="-355.4" font-family="Helvetica,sans-Serif" font-size="12.00" fill="white">_ForwardIndexType</text>
</a>
</g>
</g>
<!-- _ForwardIndexType&#45;&gt;ForwardIndexType -->
<g id="edge25" class="edge">
<path fill="none" stroke="#cccccc" d="M1513.49,-347.988C1503.36,-339.887 1488.88,-328.303 1476.98,-318.787"/>
<polygon fill="#cccccc" stroke="#cccccc" points="1478.87,-315.818 1468.88,-312.304 1474.5,-321.284 1478.87,-315.818"/>
</g>
<!-- _ForwardIndexType&#45;&gt;_BidirectionalIndexType -->
<g id="edge28" class="edge">
<path fill="none" stroke="#cccccc" d="M1538.69,-347.988C1549.06,-339.809 1563.94,-328.077 1576.07,-318.511"/>
<polygon fill="#cccccc" stroke="#cccccc" points="1578.25,-321.245 1583.94,-312.304 1573.92,-315.749 1578.25,-321.245"/>
</g>
<!-- _Incrementable&#45;&gt;_ForwardIndexType -->
<g id="edge26" class="edge">
<path fill="none" stroke="#cccccc" d="M1526,-405.988C1526,-398.91 1526,-389.171 1526,-380.478"/>
<polygon fill="#cccccc" stroke="#cccccc" points="1529.5,-380.304 1526,-370.304 1522.5,-380.304 1529.5,-380.304"/>
</g>
</g>
</svg>
