<?xml version="1.0" encoding="UTF-8" standalone="no"?>
<!DOCTYPE svg PUBLIC "-//W3C//DTD SVG 1.1//EN"
 "http://www.w3.org/Graphics/SVG/1.1/DTD/svg11.dtd">
<!-- Generated by graphviz version 2.36.0 (20140111.2315)
 -->
<!-- Title: Bit &#45; Type Hierarchy &#45; SwiftDoc.org Pages: 1 -->
<svg width="1642pt" height="543pt"
 viewBox="0.00 0.00 1642.26 543.20" xmlns="http://www.w3.org/2000/svg" xmlns:xlink="http://www.w3.org/1999/xlink">
<g id="graph0" class="graph" transform="scale(1 1) rotate(0) translate(7.2 485.6)">
<g transform="translate(0 -485.6)">
<g>
    <path fill="#666666" d="M13.846,10.832c-0.336-0.464-0.792-0.844-1.368-1.14s-1.224-0.444-1.944-0.444
        c-0.384,0-0.772,0.052-1.164,0.156C8.977,9.509,8.622,9.677,8.301,9.908c-0.32,0.232-0.58,0.52-0.78,0.864
        c-0.2,0.344-0.3,0.756-0.3,1.236c0,0.464,0.092,0.852,0.276,1.164c0.184,0.312,0.432,0.576,0.744,0.792s0.68,0.4,1.104,0.552
        c0.423,0.152,0.876,0.309,1.356,0.468c0.576,0.177,1.16,0.376,1.752,0.601c0.592,0.224,1.128,0.52,1.608,0.888
        s0.872,0.828,1.176,1.38s0.456,1.252,0.456,2.101c0,0.88-0.164,1.644-0.492,2.292c-0.328,0.647-0.765,1.184-1.308,1.607
        c-0.544,0.424-1.172,0.74-1.884,0.948s-1.444,0.312-2.196,0.312c-1.072,0-2.108-0.208-3.108-0.624
        c-1-0.415-1.828-1.031-2.484-1.848l1.848-1.56c0.4,0.592,0.936,1.071,1.608,1.439c0.672,0.368,1.399,0.552,2.184,0.552
        c0.4,0,0.8-0.056,1.2-0.168c0.4-0.111,0.764-0.288,1.092-0.527c0.328-0.24,0.596-0.54,0.804-0.9
        c0.208-0.36,0.312-0.796,0.312-1.308s-0.108-0.94-0.324-1.284c-0.216-0.344-0.508-0.636-0.876-0.876s-0.796-0.444-1.284-0.612
        c-0.488-0.168-1.004-0.34-1.548-0.516c-0.544-0.16-1.08-0.356-1.608-0.588c-0.528-0.232-1-0.528-1.416-0.889
        c-0.416-0.359-0.752-0.804-1.008-1.332c-0.256-0.527-0.384-1.184-0.384-1.968c0-0.848,0.172-1.576,0.516-2.184
        c0.344-0.608,0.792-1.112,1.344-1.512c0.552-0.4,1.176-0.692,1.872-0.876c0.696-0.184,1.396-0.276,2.1-0.276
        c0.992,0,1.92,0.176,2.784,0.528c0.864,0.352,1.56,0.824,2.088,1.416L13.846,10.832z"/>
    <path fill="#666666" d="M18.813,13.304l2.568,8.688h0.048l2.712-8.688h2.376l2.76,8.688h0.048l2.568-8.688h2.376L30.501,24.68
        h-2.352l-2.808-8.544h-0.048l-2.784,8.544h-2.352l-3.792-11.376H18.813z"/>
    <path fill="#666666" d="M38.685,9.2c0,0.416-0.147,0.76-0.44,1.032c-0.294,0.272-0.647,0.408-1.06,0.408s-0.762-0.14-1.047-0.42
        c-0.286-0.28-0.429-0.62-0.429-1.02c0-0.416,0.143-0.764,0.429-1.044c0.286-0.28,0.635-0.42,1.047-0.42s0.766,0.14,1.06,0.42
        C38.538,8.437,38.685,8.784,38.685,9.2z M38.325,24.68h-2.256V13.304h2.256V24.68z"/>
    <path fill="#666666" d="M47.613,15.152h-2.64v9.528h-2.256v-9.528h-2.256v-1.848h2.256v-2.376c0-0.672,0.076-1.292,0.228-1.86
        c0.152-0.568,0.4-1.06,0.744-1.476c0.344-0.416,0.784-0.744,1.32-0.984c0.536-0.24,1.188-0.36,1.956-0.36
        c0.544,0,1.016,0.056,1.416,0.168l-0.264,1.944c-0.176-0.048-0.352-0.088-0.528-0.12c-0.176-0.032-0.376-0.048-0.6-0.048
        c-0.432,0-0.78,0.076-1.044,0.228c-0.264,0.152-0.468,0.356-0.612,0.612s-0.24,0.548-0.288,0.876
        c-0.048,0.328-0.072,0.668-0.072,1.02v2.376h2.64V15.152z"/>
    <path fill="#666666" d="M54.909,15.152h-3.024v5.91c0,0.687,0.128,1.177,0.384,1.472c0.256,0.295,0.664,0.442,1.224,0.442
        c0.208,0,0.432-0.021,0.672-0.065c0.24-0.044,0.456-0.11,0.648-0.198l0.072,1.848c-0.272,0.096-0.572,0.172-0.9,0.229
        c-0.328,0.056-0.668,0.084-1.02,0.084c-1.072,0-1.892-0.296-2.46-0.889c-0.568-0.592-0.852-1.479-0.852-2.664v-6.168h-2.184
        v-1.848h2.184V10.04h2.232v3.264h3.024V15.152z"/>
    <path fill="#666666" d="M57.356,7.688h5.832c1.088,0,2.176,0.16,3.264,0.48c1.088,0.32,2.072,0.824,2.952,1.512
        s1.592,1.568,2.136,2.64c0.544,1.072,0.816,2.36,0.816,3.864c0,1.456-0.272,2.716-0.816,3.78s-1.256,1.943-2.136,2.64
        s-1.864,1.216-2.952,1.561c-1.088,0.344-2.176,0.516-3.264,0.516h-5.832V7.688z M59.732,22.593h2.976
        c1.024,0,1.972-0.145,2.844-0.432c0.872-0.288,1.624-0.704,2.256-1.248c0.632-0.544,1.124-1.216,1.476-2.017
        c0.352-0.8,0.528-1.704,0.528-2.712c0-1.056-0.176-1.983-0.528-2.784c-0.353-0.8-0.844-1.468-1.476-2.004
        c-0.632-0.536-1.384-0.944-2.256-1.224s-1.82-0.42-2.844-0.42h-2.976V22.593z"/>
    <path fill="#666666" d="M86.06,18.969c0,0.88-0.156,1.688-0.468,2.424c-0.312,0.736-0.744,1.372-1.296,1.908
        c-0.552,0.536-1.204,0.952-1.956,1.248c-0.752,0.296-1.56,0.443-2.424,0.443c-0.864,0-1.672-0.147-2.424-0.443
        c-0.752-0.296-1.4-0.712-1.944-1.248c-0.544-0.536-0.972-1.172-1.284-1.908c-0.312-0.735-0.468-1.544-0.468-2.424
        s0.156-1.684,0.468-2.412c0.312-0.728,0.74-1.356,1.284-1.884c0.543-0.528,1.191-0.939,1.944-1.236
        c0.752-0.296,1.56-0.444,2.424-0.444c0.864,0,1.672,0.148,2.424,0.444c0.752,0.297,1.404,0.708,1.956,1.236
        c0.552,0.527,0.984,1.156,1.296,1.884C85.904,17.285,86.06,18.089,86.06,18.969z M83.708,18.98c0-0.542-0.084-1.061-0.252-1.556
        c-0.169-0.494-0.414-0.929-0.734-1.304s-0.718-0.674-1.192-0.897s-1.015-0.335-1.625-0.335c-0.61,0-1.152,0.111-1.625,0.335
        c-0.474,0.224-0.871,0.522-1.191,0.897c-0.321,0.375-0.566,0.81-0.734,1.304C76.184,17.92,76.1,18.438,76.1,18.98
        c0,0.543,0.084,1.062,0.253,1.556c0.168,0.495,0.413,0.934,0.734,1.316c0.321,0.383,0.718,0.686,1.191,0.909
        c0.473,0.224,1.015,0.335,1.625,0.335c0.61,0,1.151-0.111,1.625-0.335s0.871-0.526,1.192-0.909s0.565-0.821,0.734-1.316
        C83.624,20.042,83.708,19.523,83.708,18.98z"/>
    <path fill="#666666" d="M96.428,16.184c-0.24-0.368-0.6-0.676-1.08-0.924s-0.992-0.372-1.536-0.372
        c-0.592,0-1.116,0.112-1.572,0.336c-0.456,0.225-0.844,0.524-1.164,0.9c-0.32,0.376-0.564,0.812-0.732,1.308
        s-0.252,1.017-0.252,1.56c0,0.545,0.084,1.064,0.252,1.561s0.412,0.933,0.732,1.308c0.32,0.376,0.712,0.677,1.176,0.9
        c0.464,0.225,0.992,0.336,1.584,0.336c0.576,0,1.1-0.111,1.572-0.336c0.472-0.224,0.86-0.528,1.164-0.912l1.512,1.368
        c-0.48,0.561-1.08,0.996-1.8,1.308c-0.72,0.312-1.536,0.468-2.448,0.468c-0.88,0-1.692-0.144-2.436-0.432
        c-0.744-0.288-1.388-0.691-1.932-1.212c-0.544-0.52-0.972-1.147-1.284-1.884s-0.468-1.561-0.468-2.473
        c0-0.896,0.152-1.711,0.456-2.447c0.304-0.736,0.728-1.368,1.272-1.896c0.543-0.527,1.188-0.936,1.932-1.224
        c0.744-0.288,1.548-0.433,2.412-0.433c0.8,0,1.596,0.16,2.388,0.48s1.419,0.784,1.884,1.392L96.428,16.184z"/>
    <path fill="#666666" d="M103.1,23.24c0,0.417-0.152,0.784-0.456,1.104c-0.304,0.32-0.688,0.479-1.152,0.479
        c-0.448,0-0.828-0.155-1.14-0.468c-0.312-0.312-0.468-0.676-0.468-1.092c0-0.432,0.152-0.804,0.456-1.116
        c0.304-0.312,0.688-0.468,1.152-0.468c0.464,0,0.848,0.152,1.152,0.456C102.947,22.44,103.1,22.808,103.1,23.24z"/>
    <path fill="#666666" d="M116.635,18.969c0,0.88-0.156,1.688-0.468,2.424c-0.312,0.736-0.744,1.372-1.296,1.908
        c-0.552,0.536-1.204,0.952-1.956,1.248c-0.752,0.296-1.56,0.443-2.424,0.443c-0.864,0-1.672-0.147-2.424-0.443
        c-0.752-0.296-1.4-0.712-1.944-1.248c-0.544-0.536-0.972-1.172-1.284-1.908c-0.312-0.735-0.468-1.544-0.468-2.424
        s0.156-1.684,0.468-2.412c0.312-0.728,0.74-1.356,1.284-1.884c0.543-0.528,1.191-0.939,1.944-1.236
        c0.752-0.296,1.56-0.444,2.424-0.444c0.864,0,1.672,0.148,2.424,0.444c0.752,0.297,1.404,0.708,1.956,1.236
        c0.552,0.527,0.984,1.156,1.296,1.884C116.479,17.285,116.635,18.089,116.635,18.969z M114.283,18.98
        c0-0.542-0.084-1.061-0.252-1.556c-0.169-0.494-0.414-0.929-0.734-1.304s-0.718-0.674-1.192-0.897s-1.015-0.335-1.625-0.335
        c-0.61,0-1.152,0.111-1.625,0.335c-0.474,0.224-0.871,0.522-1.191,0.897c-0.321,0.375-0.566,0.81-0.734,1.304
        c-0.169,0.495-0.253,1.014-0.253,1.556c0,0.543,0.084,1.062,0.253,1.556c0.168,0.495,0.413,0.934,0.734,1.316
        c0.321,0.383,0.718,0.686,1.191,0.909c0.473,0.224,1.015,0.335,1.625,0.335c0.61,0,1.151-0.111,1.625-0.335
        s0.871-0.526,1.192-0.909s0.565-0.821,0.734-1.316C114.199,20.042,114.283,19.523,114.283,18.98z"/>
    <path fill="#666666" d="M119.251,14.577c-0.016-0.48-0.04-0.904-0.072-1.272h2.136c0.032,0.288,0.056,0.62,0.072,0.996
        c0.016,0.376,0.024,0.684,0.024,0.924h0.072c0.32-0.672,0.788-1.212,1.404-1.62c0.616-0.408,1.308-0.612,2.076-0.612
        c0.352,0,0.648,0.033,0.888,0.097l-0.096,2.088c-0.32-0.08-0.664-0.12-1.032-0.12c-0.544,0-1.016,0.101-1.416,0.3
        c-0.4,0.2-0.732,0.468-0.996,0.805c-0.264,0.336-0.46,0.724-0.588,1.163c-0.128,0.44-0.192,0.9-0.192,1.381v5.976h-2.256v-8.928
        C119.275,15.449,119.267,15.056,119.251,14.577z"/>
    <path fill="#666666" d="M128.419,26.625c0.496,0.56,1.116,1.008,1.86,1.344c0.744,0.336,1.508,0.504,2.292,0.504
        c0.752,0,1.384-0.108,1.896-0.324s0.924-0.512,1.236-0.888s0.536-0.82,0.672-1.332c0.136-0.513,0.204-1.064,0.204-1.656v-1.464
        h-0.048c-0.416,0.641-0.984,1.128-1.704,1.464c-0.72,0.336-1.488,0.504-2.304,0.504c-0.864,0-1.652-0.151-2.364-0.456
        c-0.712-0.304-1.316-0.72-1.812-1.248c-0.496-0.527-0.88-1.147-1.152-1.859s-0.408-1.477-0.408-2.292
        c0-0.816,0.136-1.584,0.408-2.305c0.272-0.72,0.656-1.348,1.152-1.884c0.496-0.535,1.096-0.96,1.8-1.271
        c0.704-0.312,1.488-0.469,2.352-0.469c0.816,0,1.596,0.177,2.34,0.528c0.744,0.353,1.332,0.888,1.764,1.608h0.048v-1.824h2.184
        v10.8c0,0.832-0.104,1.628-0.312,2.388c-0.208,0.76-0.56,1.433-1.056,2.017s-1.144,1.052-1.944,1.404
        c-0.8,0.352-1.792,0.527-2.976,0.527c-0.992,0-1.988-0.18-2.988-0.54c-1-0.359-1.86-0.868-2.58-1.523L128.419,26.625z
         M129.091,18.873c0,0.527,0.084,1.031,0.253,1.512c0.168,0.479,0.417,0.904,0.746,1.271c0.329,0.369,0.726,0.664,1.192,0.889
        c0.465,0.224,0.995,0.336,1.589,0.336c0.577,0,1.107-0.104,1.589-0.312c0.481-0.207,0.891-0.491,1.228-0.852
        s0.598-0.784,0.782-1.272c0.185-0.487,0.277-1.012,0.277-1.571c0-0.544-0.093-1.057-0.277-1.536
        c-0.185-0.48-0.449-0.904-0.794-1.272c-0.345-0.367-0.755-0.66-1.228-0.876c-0.474-0.216-1-0.324-1.577-0.324
        c-0.594,0-1.124,0.108-1.589,0.324c-0.466,0.216-0.863,0.504-1.192,0.864s-0.578,0.784-0.746,1.271
        C129.175,17.812,129.091,18.329,129.091,18.873z"/>
</g>
<g><a xlink:href="/" pointer-events="all" target="_top"><polygon fill="none" points="0,0 145,0 145,35 0,35 0,0"/></a></g>

</g>


<!-- BidirectionalIndexType -->
<g id="node1" class="node">
<g id="a_node1"><a xlink:href="/swift-2/protocol/BidirectionalIndexType/" target="_top">
<path fill="#999999" stroke="#999999" d="M1116.73,-254C1116.73,-254 1001.27,-254 1001.27,-254 997.608,-254 993.941,-250.333 993.941,-246.667 993.941,-246.667 993.941,-239.333 993.941,-239.333 993.941,-235.667 997.608,-232 1001.27,-232 1001.27,-232 1116.73,-232 1116.73,-232 1120.39,-232 1124.06,-235.667 1124.06,-239.333 1124.06,-239.333 1124.06,-246.667 1124.06,-246.667 1124.06,-250.333 1120.39,-254 1116.73,-254"/>
<text text-anchor="middle" x="1059" y="-239.4" font-family="Helvetica,sans-Serif" font-size="12.00" fill="white">BidirectionalIndexType</text>
</a>
</g>
</g>
<!-- Bit -->
<g id="node2" class="node">
<g id="a_node2"><a xlink:href="/swift-2/type/Bit/" target="_top">
<polygon fill="#ee543d" stroke="#ee543d" points="1385,-22 1331,-22 1331,-0 1385,-0 1385,-22"/>
<text text-anchor="middle" x="1358" y="-7.4" font-family="Helvetica,sans-Serif" font-size="12.00" fill="white">Bit</text>
</a>
</g>
</g>
<!-- BidirectionalIndexType&#45;&gt;Bit -->
<g id="edge4" class="edge">
<path fill="none" stroke="#cccccc" d="M1124.31,-234.273C1180.18,-226.618 1255.36,-213.508 1280,-196 1313.8,-171.982 1305.5,-150.826 1328,-116 1338.57,-99.6391 1346.5,-98.3633 1353,-80 1358.43,-64.6563 1359.47,-46.178 1359.27,-32.3588"/>
<polygon fill="#cccccc" stroke="#cccccc" points="1362.75,-31.8779 1358.88,-22.0176 1355.76,-32.143 1362.75,-31.8779"/>
</g>
<!-- Int -->
<g id="node10" class="node">
<g id="a_node10"><a xlink:href="/swift-2/type/Int/" target="_top">
<polygon fill="#999999" stroke="#999999" points="625,-22 571,-22 571,-0 625,-0 625,-22"/>
<text text-anchor="middle" x="598" y="-7.4" font-family="Helvetica,sans-Serif" font-size="12.00" fill="white">Int</text>
</a>
</g>
</g>
<!-- BidirectionalIndexType&#45;&gt;Int -->
<g id="edge25" class="edge">
<path fill="none" stroke="#cccccc" d="M1056.01,-231.846C1046.05,-199.97 1010.7,-101.434 943,-58 892.665,-25.7067 713.913,-15.8512 635.421,-13.0418"/>
<polygon fill="#cccccc" stroke="#cccccc" points="635.147,-9.53068 625.034,-12.6906 634.91,-16.5267 635.147,-9.53068"/>
</g>
<!-- RandomAccessIndexType -->
<g id="node15" class="node">
<g id="a_node15"><a xlink:href="/swift-2/protocol/RandomAccessIndexType/" target="_top">
<path fill="#999999" stroke="#999999" d="M849.225,-196C849.225,-196 714.775,-196 714.775,-196 711.108,-196 707.441,-192.333 707.441,-188.667 707.441,-188.667 707.441,-181.333 707.441,-181.333 707.441,-177.667 711.108,-174 714.775,-174 714.775,-174 849.225,-174 849.225,-174 852.892,-174 856.559,-177.667 856.559,-181.333 856.559,-181.333 856.559,-188.667 856.559,-188.667 856.559,-192.333 852.892,-196 849.225,-196"/>
<text text-anchor="middle" x="782" y="-181.4" font-family="Helvetica,sans-Serif" font-size="12.00" fill="white">RandomAccessIndexType</text>
</a>
</g>
</g>
<!-- BidirectionalIndexType&#45;&gt;RandomAccessIndexType -->
<g id="edge53" class="edge">
<path fill="none" stroke="#cccccc" d="M1009.48,-231.988C962.454,-222.482 891.699,-208.177 841.604,-198.05"/>
<polygon fill="#cccccc" stroke="#cccccc" points="842.055,-194.57 831.56,-196.019 840.668,-201.431 842.055,-194.57"/>
</g>
<!-- BitwiseOperationsType -->
<g id="node3" class="node">
<g id="a_node3"><a xlink:href="/swift-2/protocol/BitwiseOperationsType/" target="_top">
<path fill="#999999" stroke="#999999" d="M152.715,-254C152.715,-254 35.2848,-254 35.2848,-254 31.6182,-254 27.9515,-250.333 27.9515,-246.667 27.9515,-246.667 27.9515,-239.333 27.9515,-239.333 27.9515,-235.667 31.6182,-232 35.2848,-232 35.2848,-232 152.715,-232 152.715,-232 156.382,-232 160.048,-235.667 160.048,-239.333 160.048,-239.333 160.048,-246.667 160.048,-246.667 160.048,-250.333 156.382,-254 152.715,-254"/>
<text text-anchor="middle" x="94" y="-239.4" font-family="Helvetica,sans-Serif" font-size="12.00" fill="white">BitwiseOperationsType</text>
</a>
</g>
</g>
<!-- BitwiseOperationsType&#45;&gt;Int -->
<g id="edge30" class="edge">
<path fill="none" stroke="#cccccc" d="M95.97,-231.839C102.741,-199.94 128.249,-101.345 192,-58 251.542,-17.5173 471.943,-12.3128 560.653,-11.893"/>
<polygon fill="#cccccc" stroke="#cccccc" points="560.81,-15.3927 570.799,-11.8635 560.789,-8.39271 560.81,-15.3927"/>
</g>
<!-- _IntegerType -->
<g id="node21" class="node">
<g id="a_node21"><a xlink:href="/swift-2/protocol/_IntegerType/" target="_top">
<path fill="#999999" stroke="#999999" d="M505.708,-196C505.708,-196 440.292,-196 440.292,-196 436.626,-196 432.959,-192.333 432.959,-188.667 432.959,-188.667 432.959,-181.333 432.959,-181.333 432.959,-177.667 436.626,-174 440.292,-174 440.292,-174 505.708,-174 505.708,-174 509.374,-174 513.041,-177.667 513.041,-181.333 513.041,-181.333 513.041,-188.667 513.041,-188.667 513.041,-192.333 509.374,-196 505.708,-196"/>
<text text-anchor="middle" x="473" y="-181.4" font-family="Helvetica,sans-Serif" font-size="12.00" fill="white">_IntegerType</text>
</a>
</g>
</g>
<!-- BitwiseOperationsType&#45;&gt;_IntegerType -->
<g id="edge40" class="edge">
<path fill="none" stroke="#cccccc" d="M160.45,-232.181C235.366,-221.112 355.486,-203.364 422.91,-193.401"/>
<polygon fill="#cccccc" stroke="#cccccc" points="423.483,-196.855 432.864,-191.93 422.46,-189.93 423.483,-196.855"/>
</g>
<!-- CVarArgType -->
<g id="node4" class="node">
<g id="a_node4"><a xlink:href="/swift-2/protocol/CVarArgType/" target="_top">
<path fill="#999999" stroke="#999999" d="M795.029,-80C795.029,-80 728.971,-80 728.971,-80 725.304,-80 721.638,-76.3333 721.638,-72.6667 721.638,-72.6667 721.638,-65.3333 721.638,-65.3333 721.638,-61.6667 725.304,-58 728.971,-58 728.971,-58 795.029,-58 795.029,-58 798.696,-58 802.362,-61.6667 802.362,-65.3333 802.362,-65.3333 802.362,-72.6667 802.362,-72.6667 802.362,-76.3333 798.696,-80 795.029,-80"/>
<text text-anchor="middle" x="762" y="-65.4" font-family="Helvetica,sans-Serif" font-size="12.00" fill="white">CVarArgType</text>
</a>
</g>
</g>
<!-- CVarArgType&#45;&gt;Int -->
<g id="edge33" class="edge">
<path fill="none" stroke="#cccccc" d="M732.68,-57.9883C705.281,-48.6326 664.275,-34.6304 634.711,-24.5356"/>
<polygon fill="#cccccc" stroke="#cccccc" points="635.755,-21.1935 625.16,-21.2743 633.493,-27.818 635.755,-21.1935"/>
</g>
<!-- Comparable -->
<g id="node5" class="node">
<g id="a_node5"><a xlink:href="/swift-2/protocol/Comparable/" target="_top">
<path fill="#999999" stroke="#999999" d="M425.191,-312C425.191,-312 364.809,-312 364.809,-312 361.142,-312 357.475,-308.333 357.475,-304.667 357.475,-304.667 357.475,-297.333 357.475,-297.333 357.475,-293.667 361.142,-290 364.809,-290 364.809,-290 425.191,-290 425.191,-290 428.858,-290 432.525,-293.667 432.525,-297.333 432.525,-297.333 432.525,-304.667 432.525,-304.667 432.525,-308.333 428.858,-312 425.191,-312"/>
<text text-anchor="middle" x="395" y="-297.4" font-family="Helvetica,sans-Serif" font-size="12.00" fill="white">Comparable</text>
</a>
</g>
</g>
<!-- Comparable&#45;&gt;Bit -->
<g id="edge2" class="edge">
<path fill="none" stroke="#cccccc" d="M432.404,-298.656C578.36,-293.283 1103.03,-272.74 1133,-254 1217.88,-200.918 1168.7,-123.975 1244,-58 1265.91,-38.8014 1296.87,-26.9982 1320.99,-20.1622"/>
<polygon fill="#cccccc" stroke="#cccccc" points="1322.11,-23.4875 1330.87,-17.5296 1320.3,-16.7237 1322.11,-23.4875"/>
</g>
<!-- Comparable&#45;&gt;Int -->
<g id="edge14" class="edge">
<path fill="none" stroke="#cccccc" d="M363.926,-289.931C326.374,-275.811 265.325,-246.077 242,-196 222.614,-154.379 206.673,-115.891 271,-58 313.022,-20.182 484.379,-13.3322 560.848,-12.1804"/>
<polygon fill="#cccccc" stroke="#cccccc" points="561.03,-15.6785 570.986,-12.0531 560.942,-8.67909 561.03,-15.6785"/>
</g>
<!-- IntegerArithmeticType -->
<g id="node11" class="node">
<g id="a_node11"><a xlink:href="/swift-2/protocol/IntegerArithmeticType/" target="_top">
<path fill="#999999" stroke="#999999" d="M967.711,-254C967.711,-254 856.289,-254 856.289,-254 852.623,-254 848.956,-250.333 848.956,-246.667 848.956,-246.667 848.956,-239.333 848.956,-239.333 848.956,-235.667 852.623,-232 856.289,-232 856.289,-232 967.711,-232 967.711,-232 971.377,-232 975.044,-235.667 975.044,-239.333 975.044,-239.333 975.044,-246.667 975.044,-246.667 975.044,-250.333 971.377,-254 967.711,-254"/>
<text text-anchor="middle" x="912" y="-239.4" font-family="Helvetica,sans-Serif" font-size="12.00" fill="white">IntegerArithmeticType</text>
</a>
</g>
</g>
<!-- Comparable&#45;&gt;IntegerArithmeticType -->
<g id="edge44" class="edge">
<path fill="none" stroke="#cccccc" d="M432.598,-295.928C517.773,-286.702 726.71,-264.07 838.542,-251.957"/>
<polygon fill="#cccccc" stroke="#cccccc" points="839.16,-255.41 848.725,-250.854 838.406,-248.451 839.16,-255.41"/>
</g>
<!-- SignedNumberType -->
<g id="node17" class="node">
<g id="a_node17"><a xlink:href="/swift-2/protocol/SignedNumberType/" target="_top">
<path fill="#999999" stroke="#999999" d="M359.716,-196C359.716,-196 258.284,-196 258.284,-196 254.617,-196 250.95,-192.333 250.95,-188.667 250.95,-188.667 250.95,-181.333 250.95,-181.333 250.95,-177.667 254.617,-174 258.284,-174 258.284,-174 359.716,-174 359.716,-174 363.383,-174 367.05,-177.667 367.05,-181.333 367.05,-181.333 367.05,-188.667 367.05,-188.667 367.05,-192.333 363.383,-196 359.716,-196"/>
<text text-anchor="middle" x="309" y="-181.4" font-family="Helvetica,sans-Serif" font-size="12.00" fill="white">SignedNumberType</text>
</a>
</g>
</g>
<!-- Comparable&#45;&gt;SignedNumberType -->
<g id="edge47" class="edge">
<path fill="none" stroke="#cccccc" d="M370.329,-289.972C354.712,-282.369 335.386,-270.412 324,-254 314.321,-240.049 310.748,-220.937 309.494,-206.527"/>
<polygon fill="#cccccc" stroke="#cccccc" points="312.967,-205.956 308.913,-196.167 305.978,-206.347 312.967,-205.956"/>
</g>
<!-- Strideable -->
<g id="node18" class="node">
<g id="a_node18"><a xlink:href="/swift-2/protocol/Strideable/" target="_top">
<path fill="#999999" stroke="#999999" d="M795.693,-254C795.693,-254 746.307,-254 746.307,-254 742.64,-254 738.974,-250.333 738.974,-246.667 738.974,-246.667 738.974,-239.333 738.974,-239.333 738.974,-235.667 742.64,-232 746.307,-232 746.307,-232 795.693,-232 795.693,-232 799.36,-232 803.026,-235.667 803.026,-239.333 803.026,-239.333 803.026,-246.667 803.026,-246.667 803.026,-250.333 799.36,-254 795.693,-254"/>
<text text-anchor="middle" x="771" y="-239.4" font-family="Helvetica,sans-Serif" font-size="12.00" fill="white">Strideable</text>
</a>
</g>
</g>
<!-- Comparable&#45;&gt;Strideable -->
<g id="edge57" class="edge">
<path fill="none" stroke="#cccccc" d="M432.427,-294.426C502.946,-283.923 655.037,-261.271 728.958,-250.262"/>
<polygon fill="#cccccc" stroke="#cccccc" points="729.478,-253.723 738.854,-248.788 728.447,-246.799 729.478,-253.723"/>
</g>
<!-- CustomStringConvertible -->
<g id="node6" class="node">
<g id="a_node6"><a xlink:href="/swift-2/protocol/CustomStringConvertible/" target="_top">
<path fill="#999999" stroke="#999999" d="M665.208,-254C665.208,-254 536.792,-254 536.792,-254 533.126,-254 529.459,-250.333 529.459,-246.667 529.459,-246.667 529.459,-239.333 529.459,-239.333 529.459,-235.667 533.126,-232 536.792,-232 536.792,-232 665.208,-232 665.208,-232 668.874,-232 672.541,-235.667 672.541,-239.333 672.541,-239.333 672.541,-246.667 672.541,-246.667 672.541,-250.333 668.874,-254 665.208,-254"/>
<text text-anchor="middle" x="601" y="-239.4" font-family="Helvetica,sans-Serif" font-size="12.00" fill="white">CustomStringConvertible</text>
</a>
</g>
</g>
<!-- CustomStringConvertible&#45;&gt;Int -->
<g id="edge21" class="edge">
<path fill="none" stroke="#cccccc" d="M600.867,-231.82C600.408,-196.642 598.884,-79.7709 598.265,-32.3033"/>
<polygon fill="#cccccc" stroke="#cccccc" points="601.761,-32.0155 598.131,-22.062 594.762,-32.1069 601.761,-32.0155"/>
</g>
<!-- CustomStringConvertible&#45;&gt;_IntegerType -->
<g id="edge37" class="edge">
<path fill="none" stroke="#cccccc" d="M578.116,-231.988C557.856,-223.124 528.062,-210.09 505.363,-200.159"/>
<polygon fill="#cccccc" stroke="#cccccc" points="506.682,-196.916 496.117,-196.114 503.876,-203.329 506.682,-196.916"/>
</g>
<!-- Equatable -->
<g id="node7" class="node">
<g id="a_node7"><a xlink:href="/swift-2/protocol/Equatable/" target="_top">
<path fill="#999999" stroke="#999999" d="M349.702,-428C349.702,-428 300.298,-428 300.298,-428 296.632,-428 292.965,-424.333 292.965,-420.667 292.965,-420.667 292.965,-413.333 292.965,-413.333 292.965,-409.667 296.632,-406 300.298,-406 300.298,-406 349.702,-406 349.702,-406 353.368,-406 357.035,-409.667 357.035,-413.333 357.035,-413.333 357.035,-420.667 357.035,-420.667 357.035,-424.333 353.368,-428 349.702,-428"/>
<text text-anchor="middle" x="325" y="-413.4" font-family="Helvetica,sans-Serif" font-size="12.00" fill="white">Equatable</text>
</a>
</g>
</g>
<!-- Equatable&#45;&gt;Comparable -->
<g id="edge45" class="edge">
<path fill="none" stroke="#cccccc" d="M331.212,-405.883C342.91,-386.833 368.372,-345.366 383.348,-320.976"/>
<polygon fill="#cccccc" stroke="#cccccc" points="386.451,-322.611 388.701,-312.258 380.486,-318.948 386.451,-322.611"/>
</g>
<!-- Hashable -->
<g id="node9" class="node">
<g id="a_node9"><a xlink:href="/swift-2/protocol/Hashable/" target="_top">
<path fill="#999999" stroke="#999999" d="M231.694,-254C231.694,-254 186.306,-254 186.306,-254 182.639,-254 178.973,-250.333 178.973,-246.667 178.973,-246.667 178.973,-239.333 178.973,-239.333 178.973,-235.667 182.639,-232 186.306,-232 186.306,-232 231.694,-232 231.694,-232 235.361,-232 239.027,-235.667 239.027,-239.333 239.027,-239.333 239.027,-246.667 239.027,-246.667 239.027,-250.333 235.361,-254 231.694,-254"/>
<text text-anchor="middle" x="209" y="-239.4" font-family="Helvetica,sans-Serif" font-size="12.00" fill="white">Hashable</text>
</a>
</g>
</g>
<!-- Equatable&#45;&gt;Hashable -->
<g id="edge42" class="edge">
<path fill="none" stroke="#cccccc" d="M318.091,-405.756C299.197,-377.74 246.444,-299.52 221.884,-263.104"/>
<polygon fill="#cccccc" stroke="#cccccc" points="224.513,-260.742 216.019,-254.408 218.709,-264.656 224.513,-260.742"/>
</g>
<!-- Equatable&#45;&gt;Int -->
<g id="edge12" class="edge">
<path fill="none" stroke="#cccccc" d="M292.948,-411.744C210.956,-399.963 0,-363.663 0,-302 0,-302 0,-302 0,-126 0,-46.6832 88.1171,-77.4984 165,-58 308.001,-21.7331 484.605,-14.0281 560.478,-12.4142"/>
<polygon fill="#cccccc" stroke="#cccccc" points="560.994,-15.9053 570.926,-12.2176 560.862,-8.90649 560.994,-15.9053"/>
</g>
<!-- _Incrementable -->
<g id="node19" class="node">
<g id="a_node19"><a xlink:href="/swift-2/protocol/_Incrementable/" target="_top">
<path fill="#999999" stroke="#999999" d="M1392.71,-370C1392.71,-370 1315.29,-370 1315.29,-370 1311.63,-370 1307.96,-366.333 1307.96,-362.667 1307.96,-362.667 1307.96,-355.333 1307.96,-355.333 1307.96,-351.667 1311.63,-348 1315.29,-348 1315.29,-348 1392.71,-348 1392.71,-348 1396.37,-348 1400.04,-351.667 1400.04,-355.333 1400.04,-355.333 1400.04,-362.667 1400.04,-362.667 1400.04,-366.333 1396.37,-370 1392.71,-370"/>
<text text-anchor="middle" x="1354" y="-355.4" font-family="Helvetica,sans-Serif" font-size="12.00" fill="white">_Incrementable</text>
</a>
</g>
</g>
<!-- Equatable&#45;&gt;_Incrementable -->
<g id="edge46" class="edge">
<path fill="none" stroke="#cccccc" d="M357.209,-414.247C503.8,-406.269 1108.88,-373.34 1297.55,-363.072"/>
<polygon fill="#cccccc" stroke="#cccccc" points="1298.01,-366.552 1307.8,-362.514 1297.63,-359.563 1298.01,-366.552"/>
</g>
<!-- ForwardIndexType -->
<g id="node8" class="node">
<g id="a_node8"><a xlink:href="/swift-2/protocol/ForwardIndexType/" target="_top">
<path fill="#999999" stroke="#999999" d="M1401.21,-312C1401.21,-312 1306.79,-312 1306.79,-312 1303.13,-312 1299.46,-308.333 1299.46,-304.667 1299.46,-304.667 1299.46,-297.333 1299.46,-297.333 1299.46,-293.667 1303.13,-290 1306.79,-290 1306.79,-290 1401.21,-290 1401.21,-290 1404.87,-290 1408.54,-293.667 1408.54,-297.333 1408.54,-297.333 1408.54,-304.667 1408.54,-304.667 1408.54,-308.333 1404.87,-312 1401.21,-312"/>
<text text-anchor="middle" x="1354" y="-297.4" font-family="Helvetica,sans-Serif" font-size="12.00" fill="white">ForwardIndexType</text>
</a>
</g>
</g>
<!-- ForwardIndexType&#45;&gt;BidirectionalIndexType -->
<g id="edge55" class="edge">
<path fill="none" stroke="#cccccc" d="M1301.26,-289.988C1250.97,-280.442 1175.2,-266.058 1121.81,-255.923"/>
<polygon fill="#cccccc" stroke="#cccccc" points="1122.26,-252.446 1111.78,-254.019 1120.95,-259.323 1122.26,-252.446"/>
</g>
<!-- ForwardIndexType&#45;&gt;Bit -->
<g id="edge5" class="edge">
<path fill="none" stroke="#cccccc" d="M1365.66,-289.851C1374.8,-281.233 1387.09,-268.055 1394,-254 1428.82,-183.217 1421.18,-158.494 1429,-80 1429.97,-70.2703 1433.67,-66.5904 1429,-58 1421.48,-44.1607 1407.8,-33.8436 1394.44,-26.5264"/>
<polygon fill="#cccccc" stroke="#cccccc" points="1395.82,-23.3067 1385.32,-21.9335 1392.68,-29.5583 1395.82,-23.3067"/>
</g>
<!-- ForwardIndexType&#45;&gt;Int -->
<g id="edge22" class="edge">
<path fill="none" stroke="#cccccc" d="M1342.44,-289.93C1298.01,-251.864 1132.54,-115.988 970,-58 853.06,-16.2806 703.8,-11.1962 635.349,-11.3128"/>
<polygon fill="#cccccc" stroke="#cccccc" points="635.055,-7.81433 625.075,-11.3714 635.095,-14.8142 635.055,-7.81433"/>
</g>
<!-- Hashable&#45;&gt;Int -->
<g id="edge20" class="edge">
<path fill="none" stroke="#cccccc" d="M204.849,-231.613C193.259,-200.71 164.225,-108.382 209,-58 232.163,-31.9364 467.891,-18.1097 560.722,-13.6415"/>
<polygon fill="#cccccc" stroke="#cccccc" points="560.974,-17.1336 570.798,-13.1664 560.644,-10.1414 560.974,-17.1336"/>
</g>
<!-- Hashable&#45;&gt;_IntegerType -->
<g id="edge38" class="edge">
<path fill="none" stroke="#cccccc" d="M239.284,-235.576C284.072,-226.076 368.5,-208.167 422.681,-196.674"/>
<polygon fill="#cccccc" stroke="#cccccc" points="423.704,-200.035 432.76,-194.536 422.252,-193.187 423.704,-200.035"/>
</g>
<!-- Int&#45;&gt;Bit -->
<g id="edge1" class="edge">
<path fill="none" stroke="#cccccc" d="M625.09,-11C856.881,-11 1088.67,-11 1320.46,-11"/>
<polygon fill="#cccccc" stroke="#cccccc" points="1320.8,-14.5001 1330.8,-11 1320.8,-7.5001 1320.8,-14.5001"/>
</g>
<!-- IntegerArithmeticType&#45;&gt;Bit -->
<g id="edge10" class="edge">
<path fill="none" stroke="#cccccc" d="M975.072,-233.292C1070.67,-220.081 1241.3,-196.452 1242,-196 1273.72,-175.517 1326.66,-74.7642 1348.32,-31.6414"/>
<polygon fill="#cccccc" stroke="#cccccc" points="1351.57,-32.9637 1352.9,-22.4523 1345.31,-29.8421 1351.57,-32.9637"/>
</g>
<!-- IntegerArithmeticType&#45;&gt;Int -->
<g id="edge16" class="edge">
<path fill="none" stroke="#cccccc" d="M916.92,-231.668C930.763,-200.919 966.25,-108.976 922,-58 885.229,-15.64 712.416,-11.2595 635.307,-11.471"/>
<polygon fill="#cccccc" stroke="#cccccc" points="635.066,-7.97221 625.086,-11.5279 635.105,-14.9721 635.066,-7.97221"/>
</g>
<!-- IntegerArithmeticType&#45;&gt;_IntegerType -->
<g id="edge39" class="edge">
<path fill="none" stroke="#cccccc" d="M848.634,-233.917C760.805,-222.713 603.825,-202.688 523.451,-192.436"/>
<polygon fill="#cccccc" stroke="#cccccc" points="523.464,-188.909 513.101,-191.115 522.578,-195.853 523.464,-188.909"/>
</g>
<!-- IntegerLiteralConvertible -->
<g id="node12" class="node">
<g id="a_node12"><a xlink:href="/swift-2/protocol/IntegerLiteralConvertible/" target="_top">
<path fill="#999999" stroke="#999999" d="M465.722,-254C465.722,-254 340.278,-254 340.278,-254 336.611,-254 332.944,-250.333 332.944,-246.667 332.944,-246.667 332.944,-239.333 332.944,-239.333 332.944,-235.667 336.611,-232 340.278,-232 340.278,-232 465.722,-232 465.722,-232 469.389,-232 473.056,-235.667 473.056,-239.333 473.056,-239.333 473.056,-246.667 473.056,-246.667 473.056,-250.333 469.389,-254 465.722,-254"/>
<text text-anchor="middle" x="403" y="-239.4" font-family="Helvetica,sans-Serif" font-size="12.00" fill="white">IntegerLiteralConvertible</text>
</a>
</g>
</g>
<!-- IntegerLiteralConvertible&#45;&gt;Int -->
<g id="edge29" class="edge">
<path fill="none" stroke="#cccccc" d="M401.048,-231.738C397.894,-217.443 390.507,-191.342 376,-174 356.533,-150.729 332.749,-164.513 318,-138 302.338,-109.846 343.876,-60.3463 347,-58 380.151,-33.1004 499.002,-20.021 560.514,-14.7878"/>
<polygon fill="#cccccc" stroke="#cccccc" points="560.908,-18.2673 570.586,-13.9575 560.333,-11.291 560.908,-18.2673"/>
</g>
<!-- IntegerLiteralConvertible&#45;&gt;SignedNumberType -->
<g id="edge48" class="edge">
<path fill="none" stroke="#cccccc" d="M386.195,-231.988C371.847,-223.441 350.99,-211.015 334.572,-201.234"/>
<polygon fill="#cccccc" stroke="#cccccc" points="336.359,-198.225 325.977,-196.114 332.776,-204.239 336.359,-198.225"/>
</g>
<!-- IntegerLiteralConvertible&#45;&gt;_IntegerType -->
<g id="edge36" class="edge">
<path fill="none" stroke="#cccccc" d="M415.515,-231.988C425.641,-223.887 440.122,-212.303 452.016,-202.787"/>
<polygon fill="#cccccc" stroke="#cccccc" points="454.498,-205.284 460.12,-196.304 450.125,-199.818 454.498,-205.284"/>
</g>
<!-- IntegerType -->
<g id="node13" class="node">
<g id="a_node13"><a xlink:href="/swift-2/protocol/IntegerType/" target="_top">
<path fill="#999999" stroke="#999999" d="M567.202,-138C567.202,-138 508.798,-138 508.798,-138 505.132,-138 501.465,-134.333 501.465,-130.667 501.465,-130.667 501.465,-123.333 501.465,-123.333 501.465,-119.667 505.132,-116 508.798,-116 508.798,-116 567.202,-116 567.202,-116 570.868,-116 574.535,-119.667 574.535,-123.333 574.535,-123.333 574.535,-130.667 574.535,-130.667 574.535,-134.333 570.868,-138 567.202,-138"/>
<text text-anchor="middle" x="538" y="-123.4" font-family="Helvetica,sans-Serif" font-size="12.00" fill="white">IntegerType</text>
</a>
</g>
</g>
<!-- IntegerType&#45;&gt;Int -->
<g id="edge19" class="edge">
<path fill="none" stroke="#cccccc" d="M541.121,-115.976C545.538,-102.402 554.279,-77.6175 565,-58 570.261,-48.3726 577.208,-38.3951 583.371,-30.2033"/>
<polygon fill="#cccccc" stroke="#cccccc" points="586.278,-32.1658 589.633,-22.1162 580.743,-27.88 586.278,-32.1658"/>
</g>
<!-- SignedIntegerType -->
<g id="node16" class="node">
<g id="a_node16"><a xlink:href="/swift-2/protocol/SignedIntegerType/" target="_top">
<path fill="#999999" stroke="#999999" d="M467.727,-80C467.727,-80 372.273,-80 372.273,-80 368.606,-80 364.94,-76.3333 364.94,-72.6667 364.94,-72.6667 364.94,-65.3333 364.94,-65.3333 364.94,-61.6667 368.606,-58 372.273,-58 372.273,-58 467.727,-58 467.727,-58 471.394,-58 475.06,-61.6667 475.06,-65.3333 475.06,-65.3333 475.06,-72.6667 475.06,-72.6667 475.06,-76.3333 471.394,-80 467.727,-80"/>
<text text-anchor="middle" x="420" y="-65.4" font-family="Helvetica,sans-Serif" font-size="12.00" fill="white">SignedIntegerType</text>
</a>
</g>
</g>
<!-- IntegerType&#45;&gt;SignedIntegerType -->
<g id="edge50" class="edge">
<path fill="none" stroke="#cccccc" d="M516.904,-115.988C498.393,-107.204 471.25,-94.3222 450.397,-84.4255"/>
<polygon fill="#cccccc" stroke="#cccccc" points="451.846,-81.2393 441.311,-80.1138 448.845,-87.5633 451.846,-81.2393"/>
</g>
<!-- MirrorPathType -->
<g id="node14" class="node">
<g id="a_node14"><a xlink:href="/swift-2/protocol/MirrorPathType/" target="_top">
<path fill="#999999" stroke="#999999" d="M905.69,-80C905.69,-80 828.31,-80 828.31,-80 824.643,-80 820.977,-76.3333 820.977,-72.6667 820.977,-72.6667 820.977,-65.3333 820.977,-65.3333 820.977,-61.6667 824.643,-58 828.31,-58 828.31,-58 905.69,-58 905.69,-58 909.357,-58 913.023,-61.6667 913.023,-65.3333 913.023,-65.3333 913.023,-72.6667 913.023,-72.6667 913.023,-76.3333 909.357,-80 905.69,-80"/>
<text text-anchor="middle" x="867" y="-65.4" font-family="Helvetica,sans-Serif" font-size="12.00" fill="white">MirrorPathType</text>
</a>
</g>
</g>
<!-- MirrorPathType&#45;&gt;Int -->
<g id="edge32" class="edge">
<path fill="none" stroke="#cccccc" d="M820.757,-58.3733C768.277,-47.4479 683.699,-29.8408 635.263,-19.7574"/>
<polygon fill="#cccccc" stroke="#cccccc" points="635.716,-16.2766 625.212,-17.665 634.289,-23.1297 635.716,-16.2766"/>
</g>
<!-- RandomAccessIndexType&#45;&gt;Bit -->
<g id="edge3" class="edge">
<path fill="none" stroke="#cccccc" d="M836.104,-173.983C917.579,-158.174 1076.06,-124.593 1206,-80 1250.17,-64.8427 1299.11,-41.7425 1329.22,-26.7562"/>
<polygon fill="#cccccc" stroke="#cccccc" points="1330.94,-29.8103 1338.3,-22.1959 1327.8,-23.5543 1330.94,-29.8103"/>
</g>
<!-- RandomAccessIndexType&#45;&gt;Int -->
<g id="edge24" class="edge">
<path fill="none" stroke="#cccccc" d="M774.299,-173.693C757.074,-151.057 713.446,-95.9954 669,-58 655.575,-46.5237 639.097,-35.6792 625.396,-27.4052"/>
<polygon fill="#cccccc" stroke="#cccccc" points="626.816,-24.1797 616.425,-22.1115 623.259,-30.2082 626.816,-24.1797"/>
</g>
<!-- RandomAccessIndexType&#45;&gt;IntegerType -->
<g id="edge52" class="edge">
<path fill="none" stroke="#cccccc" d="M738.378,-173.988C695.013,-164.036 628.736,-148.825 584.418,-138.653"/>
<polygon fill="#cccccc" stroke="#cccccc" points="585.011,-135.199 574.482,-136.373 583.446,-142.021 585.011,-135.199"/>
</g>
<!-- SignedIntegerType&#45;&gt;Int -->
<g id="edge18" class="edge">
<path fill="none" stroke="#cccccc" d="M451.823,-57.9883C482.412,-48.3648 528.627,-33.8251 560.879,-23.6786"/>
<polygon fill="#cccccc" stroke="#cccccc" points="562.333,-26.8902 570.822,-20.5504 560.232,-20.2129 562.333,-26.8902"/>
</g>
<!-- SignedNumberType&#45;&gt;Int -->
<g id="edge28" class="edge">
<path fill="none" stroke="#cccccc" d="M302.101,-173.742C287.223,-150.23 255.742,-91.8725 285,-58 320.204,-17.2445 485.145,-11.9361 560.398,-11.683"/>
<polygon fill="#cccccc" stroke="#cccccc" points="560.826,-15.1829 570.825,-11.6787 560.823,-8.18293 560.826,-15.1829"/>
</g>
<!-- _SignedIntegerType -->
<g id="node23" class="node">
<g id="a_node23"><a xlink:href="/swift-2/protocol/_SignedIntegerType/" target="_top">
<path fill="#999999" stroke="#999999" d="M437.231,-138C437.231,-138 334.769,-138 334.769,-138 331.102,-138 327.436,-134.333 327.436,-130.667 327.436,-130.667 327.436,-123.333 327.436,-123.333 327.436,-119.667 331.102,-116 334.769,-116 334.769,-116 437.231,-116 437.231,-116 440.898,-116 444.564,-119.667 444.564,-123.333 444.564,-123.333 444.564,-130.667 444.564,-130.667 444.564,-134.333 440.898,-138 437.231,-138"/>
<text text-anchor="middle" x="386" y="-123.4" font-family="Helvetica,sans-Serif" font-size="12.00" fill="white">_SignedIntegerType</text>
</a>
</g>
</g>
<!-- SignedNumberType&#45;&gt;_SignedIntegerType -->
<g id="edge35" class="edge">
<path fill="none" stroke="#cccccc" d="M322.766,-173.988C334.192,-165.678 350.659,-153.703 363.924,-144.055"/>
<polygon fill="#cccccc" stroke="#cccccc" points="366.065,-146.826 372.094,-138.114 361.948,-141.165 366.065,-146.826"/>
</g>
<!-- Strideable&#45;&gt;Bit -->
<g id="edge7" class="edge">
<path fill="none" stroke="#cccccc" d="M803.22,-233.779C881.569,-213.213 1087.41,-155.708 1248,-80 1279.81,-65.0047 1313.87,-42.9044 1335.52,-28.0061"/>
<polygon fill="#cccccc" stroke="#cccccc" points="1337.79,-30.6903 1344,-22.1037 1333.79,-24.9457 1337.79,-30.6903"/>
</g>
<!-- Strideable&#45;&gt;Int -->
<g id="edge26" class="edge">
<path fill="none" stroke="#cccccc" d="M748.235,-231.849C732.51,-223.917 711.989,-211.624 698,-196 652.52,-145.205 665.887,-116.578 631,-58 625.386,-48.5739 618.394,-38.6222 612.292,-30.3954"/>
<polygon fill="#cccccc" stroke="#cccccc" points="614.955,-28.1133 606.129,-22.2519 609.373,-32.3378 614.955,-28.1133"/>
</g>
<!-- Strideable&#45;&gt;RandomAccessIndexType -->
<g id="edge54" class="edge">
<path fill="none" stroke="#cccccc" d="M772.967,-231.988C774.372,-224.831 776.312,-214.955 778.034,-206.189"/>
<polygon fill="#cccccc" stroke="#cccccc" points="781.483,-206.791 779.976,-196.304 774.614,-205.442 781.483,-206.791"/>
</g>
<!-- _Incrementable&#45;&gt;Bit -->
<g id="edge6" class="edge">
<path fill="none" stroke="#cccccc" d="M1400.29,-355.308C1464.81,-350.626 1577.2,-338.789 1607,-312 1630.43,-290.938 1627,-275.502 1627,-244 1627,-244 1627,-244 1627,-126 1627,-26.5312 1469.15,-12.5593 1395.28,-11.4663"/>
<polygon fill="#cccccc" stroke="#cccccc" points="1395.05,-7.96456 1385.02,-11.3898 1395,-14.9644 1395.05,-7.96456"/>
</g>
<!-- _Incrementable&#45;&gt;ForwardIndexType -->
<g id="edge56" class="edge">
<path fill="none" stroke="#cccccc" d="M1354,-347.988C1354,-340.91 1354,-331.171 1354,-322.478"/>
<polygon fill="#cccccc" stroke="#cccccc" points="1357.5,-322.304 1354,-312.304 1350.5,-322.304 1357.5,-322.304"/>
</g>
<!-- _Incrementable&#45;&gt;Int -->
<g id="edge23" class="edge">
<path fill="none" stroke="#cccccc" d="M1375.51,-347.985C1398.63,-335.735 1430.36,-313.688 1417,-290 1391.42,-244.664 1059.99,-72.5028 1010,-58 875.93,-19.1059 708.511,-12.7426 635.24,-11.9426"/>
<polygon fill="#cccccc" stroke="#cccccc" points="635.155,-8.44191 625.128,-11.8617 635.099,-15.4417 635.155,-8.44191"/>
</g>
<!-- _Incrementable&#45;&gt;_IntegerType -->
<g id="edge41" class="edge">
<path fill="none" stroke="#cccccc" d="M1307.59,-357.756C1203.11,-356.518 941.758,-349.575 727,-312 632.887,-295.534 597.783,-309.483 520,-254 502.749,-241.695 489.762,-220.962 481.86,-205.618"/>
<polygon fill="#cccccc" stroke="#cccccc" points="484.926,-203.919 477.407,-196.455 478.63,-206.979 484.926,-203.919"/>
</g>
<!-- _IntegerArithmeticType -->
<g id="node20" class="node">
<g id="a_node20"><a xlink:href="/swift-2/protocol/_IntegerArithmeticType/" target="_top">
<path fill="#999999" stroke="#999999" d="M1591.22,-312C1591.22,-312 1472.78,-312 1472.78,-312 1469.12,-312 1465.45,-308.333 1465.45,-304.667 1465.45,-304.667 1465.45,-297.333 1465.45,-297.333 1465.45,-293.667 1469.12,-290 1472.78,-290 1472.78,-290 1591.22,-290 1591.22,-290 1594.88,-290 1598.55,-293.667 1598.55,-297.333 1598.55,-297.333 1598.55,-304.667 1598.55,-304.667 1598.55,-308.333 1594.88,-312 1591.22,-312"/>
<text text-anchor="middle" x="1532" y="-297.4" font-family="Helvetica,sans-Serif" font-size="12.00" fill="white">_IntegerArithmeticType</text>
</a>
</g>
</g>
<!-- _IntegerArithmeticType&#45;&gt;Bit -->
<g id="edge11" class="edge">
<path fill="none" stroke="#cccccc" d="M1532,-289.935C1532,-270.066 1532,-224.396 1532,-186 1532,-186 1532,-186 1532,-126 1532,-61.1294 1446.34,-31.1678 1395.22,-19.0642"/>
<polygon fill="#cccccc" stroke="#cccccc" points="1395.71,-15.5873 1385.19,-16.8113 1394.18,-22.4172 1395.71,-15.5873"/>
</g>
<!-- _IntegerArithmeticType&#45;&gt;Int -->
<g id="edge17" class="edge">
<path fill="none" stroke="#cccccc" d="M1530.07,-289.604C1523.39,-257.008 1497.96,-156.571 1432,-116 1310.09,-41.0212 1249.04,-121.264 1112,-80 1091.44,-73.8107 1089.6,-64.0384 1069,-58 987.687,-34.1656 731.631,-18.8761 635.214,-13.8351"/>
<polygon fill="#cccccc" stroke="#cccccc" points="635.228,-10.3312 625.061,-13.3114 634.867,-17.322 635.228,-10.3312"/>
</g>
<!-- _IntegerArithmeticType&#45;&gt;IntegerArithmeticType -->
<g id="edge43" class="edge">
<path fill="none" stroke="#cccccc" d="M1465.42,-294.169C1449.55,-292.791 1432.68,-291.335 1417,-290 1228.31,-273.934 1178.21,-275.038 985.467,-253.996"/>
<polygon fill="#cccccc" stroke="#cccccc" points="985.605,-250.49 975.283,-252.878 984.841,-257.448 985.605,-250.49"/>
</g>
<!-- _IntegerType&#45;&gt;Int -->
<g id="edge15" class="edge">
<path fill="none" stroke="#cccccc" d="M474.194,-173.672C476.166,-159.752 481.034,-134.579 492,-116 513.592,-79.4183 551.299,-46.8447 575.434,-28.2734"/>
<polygon fill="#cccccc" stroke="#cccccc" points="577.772,-30.894 583.657,-22.0834 573.562,-25.3015 577.772,-30.894"/>
</g>
<!-- _IntegerType&#45;&gt;IntegerType -->
<g id="edge51" class="edge">
<path fill="none" stroke="#cccccc" d="M484.621,-173.988C493.932,-165.966 507.209,-154.527 518.192,-145.065"/>
<polygon fill="#cccccc" stroke="#cccccc" points="520.749,-147.483 526.04,-138.304 516.18,-142.179 520.749,-147.483"/>
</g>
<!-- _IntegerType&#45;&gt;_SignedIntegerType -->
<g id="edge34" class="edge">
<path fill="none" stroke="#cccccc" d="M457.446,-173.988C444.413,-165.599 425.576,-153.474 410.516,-143.78"/>
<polygon fill="#cccccc" stroke="#cccccc" points="412.016,-140.583 401.713,-138.114 408.227,-146.469 412.016,-140.583"/>
</g>
<!-- _Reflectable -->
<g id="node22" class="node">
<g id="a_node22"><a xlink:href="/swift-2/protocol/_Reflectable/" target="_top">
<path fill="#999999" stroke="#999999" d="M1189.7,-80C1189.7,-80 1128.3,-80 1128.3,-80 1124.63,-80 1120.97,-76.3333 1120.97,-72.6667 1120.97,-72.6667 1120.97,-65.3333 1120.97,-65.3333 1120.97,-61.6667 1124.63,-58 1128.3,-58 1128.3,-58 1189.7,-58 1189.7,-58 1193.37,-58 1197.03,-61.6667 1197.03,-65.3333 1197.03,-65.3333 1197.03,-72.6667 1197.03,-72.6667 1197.03,-76.3333 1193.37,-80 1189.7,-80"/>
<text text-anchor="middle" x="1159" y="-65.4" font-family="Helvetica,sans-Serif" font-size="12.00" fill="white">_Reflectable</text>
</a>
</g>
</g>
<!-- _Reflectable&#45;&gt;Bit -->
<g id="edge9" class="edge">
<path fill="none" stroke="#cccccc" d="M1194.58,-57.9883C1230.24,-47.9523 1284.91,-32.5694 1321.05,-22.3986"/>
<polygon fill="#cccccc" stroke="#cccccc" points="1322.04,-25.755 1330.72,-19.6769 1320.15,-19.0167 1322.04,-25.755"/>
</g>
<!-- _Reflectable&#45;&gt;Int -->
<g id="edge31" class="edge">
<path fill="none" stroke="#cccccc" d="M1120.74,-60.1923C1116.12,-59.3833 1111.46,-58.6289 1107,-58 931.327,-33.2333 719.564,-19.0929 635.254,-14.0881"/>
<polygon fill="#cccccc" stroke="#cccccc" points="635.336,-10.587 625.148,-13.4959 634.926,-17.575 635.336,-10.587"/>
</g>
<!-- _SignedIntegerType&#45;&gt;Int -->
<g id="edge13" class="edge">
<path fill="none" stroke="#cccccc" d="M375.263,-115.836C361.579,-101.657 341.354,-75.6924 356,-58 381.586,-27.0921 499.683,-16.78 560.925,-13.4766"/>
<polygon fill="#cccccc" stroke="#cccccc" points="561.144,-16.9702 570.955,-12.9711 560.791,-9.97906 561.144,-16.9702"/>
</g>
<!-- _SignedIntegerType&#45;&gt;SignedIntegerType -->
<g id="edge49" class="edge">
<path fill="none" stroke="#cccccc" d="M392.079,-115.988C396.615,-108.517 402.951,-98.0812 408.44,-89.0393"/>
<polygon fill="#cccccc" stroke="#cccccc" points="411.546,-90.6682 413.744,-80.3039 405.562,-87.0353 411.546,-90.6682"/>
</g>
<!-- _Strideable -->
<g id="node24" class="node">
<g id="a_node24"><a xlink:href="/swift-2/protocol/_Strideable/" target="_top">
<path fill="#999999" stroke="#999999" d="M798.7,-312C798.7,-312 743.3,-312 743.3,-312 739.634,-312 735.967,-308.333 735.967,-304.667 735.967,-304.667 735.967,-297.333 735.967,-297.333 735.967,-293.667 739.634,-290 743.3,-290 743.3,-290 798.7,-290 798.7,-290 802.366,-290 806.033,-293.667 806.033,-297.333 806.033,-297.333 806.033,-304.667 806.033,-304.667 806.033,-308.333 802.366,-312 798.7,-312"/>
<text text-anchor="middle" x="771" y="-297.4" font-family="Helvetica,sans-Serif" font-size="12.00" fill="white">_Strideable</text>
</a>
</g>
</g>
<!-- _Strideable&#45;&gt;Bit -->
<g id="edge8" class="edge">
<path fill="none" stroke="#cccccc" d="M806.211,-299.181C875.979,-296.843 1036.25,-287.909 1166,-254 1230.77,-237.075 1255.01,-240.524 1305,-196 1349.13,-156.692 1355.07,-137.181 1370,-80 1374.16,-64.0747 1370.4,-45.6722 1366.03,-32.0303"/>
<polygon fill="#cccccc" stroke="#cccccc" points="1369.19,-30.4834 1362.53,-22.2487 1362.6,-32.8433 1369.19,-30.4834"/>
</g>
<!-- _Strideable&#45;&gt;Int -->
<g id="edge27" class="edge">
<path fill="none" stroke="#cccccc" d="M759.699,-289.718C740.797,-272.051 702.438,-234.137 678,-196 642.558,-140.69 615.919,-67.0151 604.347,-32.0502"/>
<polygon fill="#cccccc" stroke="#cccccc" points="607.544,-30.5615 601.128,-22.1305 600.886,-32.7225 607.544,-30.5615"/>
</g>
<!-- _Strideable&#45;&gt;Strideable -->
<g id="edge58" class="edge">
<path fill="none" stroke="#cccccc" d="M771,-289.988C771,-282.91 771,-273.171 771,-264.478"/>
<polygon fill="#cccccc" stroke="#cccccc" points="774.5,-264.304 771,-254.304 767.5,-264.304 774.5,-264.304"/>
</g>
</g>
</svg>
