<?xml version="1.0" encoding="UTF-8" standalone="no"?>
<!DOCTYPE svg PUBLIC "-//W3C//DTD SVG 1.1//EN"
 "http://www.w3.org/Graphics/SVG/1.1/DTD/svg11.dtd">
<!-- Generated by graphviz version 2.36.0 (20140111.2315)
 -->
<!-- Title: UnsignedIntegerType &#45; Type Hierarchy &#45; SwiftDoc.org Pages: 1 -->
<svg width="886pt" height="601pt"
 viewBox="0.00 0.00 886.40 601.20" xmlns="http://www.w3.org/2000/svg" xmlns:xlink="http://www.w3.org/1999/xlink">
<g id="graph0" class="graph" transform="scale(1 1) rotate(0) translate(7.2 543.6)">
<title>UnsignedIntegerType &#45; Type Hierarchy &#45; SwiftDoc.org</title>
<polygon fill="white" stroke="none" points="-7.2,57.6 -7.2,-543.6 879.2,-543.6 879.2,57.6 -7.2,57.6"/>
<!-- BidirectionalIndexType -->
<g id="node1" class="node"><title>BidirectionalIndexType</title>
<g id="a_node1"><a xlink:href="/protocol/BidirectionalIndexType/" xlink:title="BidirectionalIndexType">
<path fill="#999999" stroke="#999999" d="M188.725,-254C188.725,-254 73.2746,-254 73.2746,-254 69.6079,-254 65.9413,-250.333 65.9413,-246.667 65.9413,-246.667 65.9413,-239.333 65.9413,-239.333 65.9413,-235.667 69.6079,-232 73.2746,-232 73.2746,-232 188.725,-232 188.725,-232 192.392,-232 196.059,-235.667 196.059,-239.333 196.059,-239.333 196.059,-246.667 196.059,-246.667 196.059,-250.333 192.392,-254 188.725,-254"/>
<text text-anchor="middle" x="131" y="-239.4" font-family="Helvetica,sans-Serif" font-size="12.00" fill="white">BidirectionalIndexType</text>
</a>
</g>
</g>
<!-- RandomAccessIndexType -->
<g id="node11" class="node"><title>RandomAccessIndexType</title>
<g id="a_node11"><a xlink:href="/protocol/RandomAccessIndexType/" xlink:title="RandomAccessIndexType">
<path fill="#999999" stroke="#999999" d="M359.225,-196C359.225,-196 224.775,-196 224.775,-196 221.108,-196 217.441,-192.333 217.441,-188.667 217.441,-188.667 217.441,-181.333 217.441,-181.333 217.441,-177.667 221.108,-174 224.775,-174 224.775,-174 359.225,-174 359.225,-174 362.892,-174 366.559,-177.667 366.559,-181.333 366.559,-181.333 366.559,-188.667 366.559,-188.667 366.559,-192.333 362.892,-196 359.225,-196"/>
<text text-anchor="middle" x="292" y="-181.4" font-family="Helvetica,sans-Serif" font-size="12.00" fill="white">RandomAccessIndexType</text>
</a>
</g>
</g>
<!-- BidirectionalIndexType&#45;&gt;RandomAccessIndexType -->
<g id="edge23" class="edge"><title>BidirectionalIndexType&#45;&gt;RandomAccessIndexType</title>
<path fill="none" stroke="#cccccc" d="M159.784,-231.988C185.917,-222.898 224.661,-209.422 253.46,-199.405"/>
<polygon fill="#cccccc" stroke="#cccccc" points="254.9,-202.61 263.195,-196.019 252.6,-195.999 254.9,-202.61"/>
</g>
<!-- BitwiseOperationsType -->
<g id="node2" class="node"><title>BitwiseOperationsType</title>
<g id="a_node2"><a xlink:href="/protocol/BitwiseOperationsType/" xlink:title="BitwiseOperationsType">
<path fill="#999999" stroke="#999999" d="M864.715,-370C864.715,-370 747.285,-370 747.285,-370 743.618,-370 739.952,-366.333 739.952,-362.667 739.952,-362.667 739.952,-355.333 739.952,-355.333 739.952,-351.667 743.618,-348 747.285,-348 747.285,-348 864.715,-348 864.715,-348 868.382,-348 872.048,-351.667 872.048,-355.333 872.048,-355.333 872.048,-362.667 872.048,-362.667 872.048,-366.333 868.382,-370 864.715,-370"/>
<text text-anchor="middle" x="806" y="-355.4" font-family="Helvetica,sans-Serif" font-size="12.00" fill="white">BitwiseOperationsType</text>
</a>
</g>
</g>
<!-- _IntegerType -->
<g id="node24" class="node"><title>_IntegerType</title>
<g id="a_node24"><a xlink:href="/protocol/_IntegerType/" xlink:title="_IntegerType">
<path fill="#999999" stroke="#999999" d="M542.708,-312C542.708,-312 477.292,-312 477.292,-312 473.626,-312 469.959,-308.333 469.959,-304.667 469.959,-304.667 469.959,-297.333 469.959,-297.333 469.959,-293.667 473.626,-290 477.292,-290 477.292,-290 542.708,-290 542.708,-290 546.374,-290 550.041,-293.667 550.041,-297.333 550.041,-297.333 550.041,-304.667 550.041,-304.667 550.041,-308.333 546.374,-312 542.708,-312"/>
<text text-anchor="middle" x="510" y="-297.4" font-family="Helvetica,sans-Serif" font-size="12.00" fill="white">_IntegerType</text>
</a>
</g>
</g>
<!-- BitwiseOperationsType&#45;&gt;_IntegerType -->
<g id="edge13" class="edge"><title>BitwiseOperationsType&#45;&gt;_IntegerType</title>
<path fill="none" stroke="#cccccc" d="M753.081,-347.988C698.404,-337.644 613.701,-321.619 560.089,-311.476"/>
<polygon fill="#cccccc" stroke="#cccccc" points="560.603,-308.012 550.127,-309.592 559.302,-314.89 560.603,-308.012"/>
</g>
<!-- Comparable -->
<g id="node3" class="node"><title>Comparable</title>
<g id="a_node3"><a xlink:href="/protocol/Comparable/" xlink:title="Comparable">
<path fill="#999999" stroke="#999999" d="M521.191,-428C521.191,-428 460.809,-428 460.809,-428 457.142,-428 453.475,-424.333 453.475,-420.667 453.475,-420.667 453.475,-413.333 453.475,-413.333 453.475,-409.667 457.142,-406 460.809,-406 460.809,-406 521.191,-406 521.191,-406 524.858,-406 528.525,-409.667 528.525,-413.333 528.525,-413.333 528.525,-420.667 528.525,-420.667 528.525,-424.333 524.858,-428 521.191,-428"/>
<text text-anchor="middle" x="491" y="-413.4" font-family="Helvetica,sans-Serif" font-size="12.00" fill="white">Comparable</text>
</a>
</g>
</g>
<!-- IntegerArithmeticType -->
<g id="node7" class="node"><title>IntegerArithmeticType</title>
<g id="a_node7"><a xlink:href="/protocol/IntegerArithmeticType/" xlink:title="IntegerArithmeticType">
<path fill="#999999" stroke="#999999" d="M713.711,-370C713.711,-370 602.289,-370 602.289,-370 598.623,-370 594.956,-366.333 594.956,-362.667 594.956,-362.667 594.956,-355.333 594.956,-355.333 594.956,-351.667 598.623,-348 602.289,-348 602.289,-348 713.711,-348 713.711,-348 717.377,-348 721.044,-351.667 721.044,-355.333 721.044,-355.333 721.044,-362.667 721.044,-362.667 721.044,-366.333 717.377,-370 713.711,-370"/>
<text text-anchor="middle" x="658" y="-355.4" font-family="Helvetica,sans-Serif" font-size="12.00" fill="white">IntegerArithmeticType</text>
</a>
</g>
</g>
<!-- Comparable&#45;&gt;IntegerArithmeticType -->
<g id="edge17" class="edge"><title>Comparable&#45;&gt;IntegerArithmeticType</title>
<path fill="none" stroke="#cccccc" d="M520.856,-405.988C548.082,-396.859 588.502,-383.305 618.414,-373.274"/>
<polygon fill="#cccccc" stroke="#cccccc" points="619.753,-376.517 628.121,-370.019 617.527,-369.88 619.753,-376.517"/>
</g>
<!-- Strideable -->
<g id="node12" class="node"><title>Strideable</title>
<g id="a_node12"><a xlink:href="/protocol/Strideable/" xlink:title="Strideable">
<path fill="#999999" stroke="#999999" d="M297.693,-370C297.693,-370 248.307,-370 248.307,-370 244.64,-370 240.974,-366.333 240.974,-362.667 240.974,-362.667 240.974,-355.333 240.974,-355.333 240.974,-351.667 244.64,-348 248.307,-348 248.307,-348 297.693,-348 297.693,-348 301.36,-348 305.026,-351.667 305.026,-355.333 305.026,-355.333 305.026,-362.667 305.026,-362.667 305.026,-366.333 301.36,-370 297.693,-370"/>
<text text-anchor="middle" x="273" y="-355.4" font-family="Helvetica,sans-Serif" font-size="12.00" fill="white">Strideable</text>
</a>
</g>
</g>
<!-- Comparable&#45;&gt;Strideable -->
<g id="edge32" class="edge"><title>Comparable&#45;&gt;Strideable</title>
<path fill="none" stroke="#cccccc" d="M453.524,-406.373C414.919,-396.456 354.881,-381.034 314.771,-370.73"/>
<polygon fill="#cccccc" stroke="#cccccc" points="315.584,-367.325 305.028,-368.227 313.842,-374.105 315.584,-367.325"/>
</g>
<!-- Equatable -->
<g id="node4" class="node"><title>Equatable</title>
<g id="a_node4"><a xlink:href="/protocol/Equatable/" xlink:title="Equatable">
<path fill="#999999" stroke="#999999" d="M425.702,-486C425.702,-486 376.298,-486 376.298,-486 372.632,-486 368.965,-482.333 368.965,-478.667 368.965,-478.667 368.965,-471.333 368.965,-471.333 368.965,-467.667 372.632,-464 376.298,-464 376.298,-464 425.702,-464 425.702,-464 429.368,-464 433.035,-467.667 433.035,-471.333 433.035,-471.333 433.035,-478.667 433.035,-478.667 433.035,-482.333 429.368,-486 425.702,-486"/>
<text text-anchor="middle" x="401" y="-471.4" font-family="Helvetica,sans-Serif" font-size="12.00" fill="white">Equatable</text>
</a>
</g>
</g>
<!-- Equatable&#45;&gt;Comparable -->
<g id="edge19" class="edge"><title>Equatable&#45;&gt;Comparable</title>
<path fill="none" stroke="#cccccc" d="M417.09,-463.988C430.7,-455.52 450.427,-443.245 466.079,-433.507"/>
<polygon fill="#cccccc" stroke="#cccccc" points="468.104,-436.369 474.746,-428.114 464.406,-430.425 468.104,-436.369"/>
</g>
<!-- Hashable -->
<g id="node6" class="node"><title>Hashable</title>
<g id="a_node6"><a xlink:href="/protocol/Hashable/" xlink:title="Hashable">
<path fill="#999999" stroke="#999999" d="M425.694,-428C425.694,-428 380.306,-428 380.306,-428 376.639,-428 372.973,-424.333 372.973,-420.667 372.973,-420.667 372.973,-413.333 372.973,-413.333 372.973,-409.667 376.639,-406 380.306,-406 380.306,-406 425.694,-406 425.694,-406 429.361,-406 433.027,-409.667 433.027,-413.333 433.027,-413.333 433.027,-420.667 433.027,-420.667 433.027,-424.333 429.361,-428 425.694,-428"/>
<text text-anchor="middle" x="403" y="-413.4" font-family="Helvetica,sans-Serif" font-size="12.00" fill="white">Hashable</text>
</a>
</g>
</g>
<!-- Equatable&#45;&gt;Hashable -->
<g id="edge15" class="edge"><title>Equatable&#45;&gt;Hashable</title>
<path fill="none" stroke="#cccccc" d="M401.358,-463.988C401.61,-456.91 401.958,-447.171 402.269,-438.478"/>
<polygon fill="#cccccc" stroke="#cccccc" points="405.773,-438.422 402.632,-428.304 398.777,-438.173 405.773,-438.422"/>
</g>
<!-- _Incrementable -->
<g id="node22" class="node"><title>_Incrementable</title>
<g id="a_node22"><a xlink:href="/protocol/_Incrementable/" xlink:title="_Incrementable">
<path fill="#999999" stroke="#999999" d="M231.705,-428C231.705,-428 154.295,-428 154.295,-428 150.628,-428 146.961,-424.333 146.961,-420.667 146.961,-420.667 146.961,-413.333 146.961,-413.333 146.961,-409.667 150.628,-406 154.295,-406 154.295,-406 231.705,-406 231.705,-406 235.372,-406 239.039,-409.667 239.039,-413.333 239.039,-413.333 239.039,-420.667 239.039,-420.667 239.039,-424.333 235.372,-428 231.705,-428"/>
<text text-anchor="middle" x="193" y="-413.4" font-family="Helvetica,sans-Serif" font-size="12.00" fill="white">_Incrementable</text>
</a>
</g>
</g>
<!-- Equatable&#45;&gt;_Incrementable -->
<g id="edge20" class="edge"><title>Equatable&#45;&gt;_Incrementable</title>
<path fill="none" stroke="#cccccc" d="M368.956,-465.373C334.571,-456.115 279.604,-441.316 240.256,-430.723"/>
<polygon fill="#cccccc" stroke="#cccccc" points="240.925,-427.278 230.359,-428.058 239.105,-434.038 240.925,-427.278"/>
</g>
<!-- ForwardIndexType -->
<g id="node5" class="node"><title>ForwardIndexType</title>
<g id="a_node5"><a xlink:href="/protocol/ForwardIndexType/" xlink:title="ForwardIndexType">
<path fill="#999999" stroke="#999999" d="M101.206,-312C101.206,-312 6.79384,-312 6.79384,-312 3.12717,-312 -0.539495,-308.333 -0.539495,-304.667 -0.539495,-304.667 -0.539495,-297.333 -0.539495,-297.333 -0.539495,-293.667 3.12717,-290 6.79384,-290 6.79384,-290 101.206,-290 101.206,-290 104.873,-290 108.539,-293.667 108.539,-297.333 108.539,-297.333 108.539,-304.667 108.539,-304.667 108.539,-308.333 104.873,-312 101.206,-312"/>
<text text-anchor="middle" x="54" y="-297.4" font-family="Helvetica,sans-Serif" font-size="12.00" fill="white">ForwardIndexType</text>
</a>
</g>
</g>
<!-- ForwardIndexType&#45;&gt;BidirectionalIndexType -->
<g id="edge25" class="edge"><title>ForwardIndexType&#45;&gt;BidirectionalIndexType</title>
<path fill="none" stroke="#cccccc" d="M67.7661,-289.988C79.1922,-281.678 95.6587,-269.703 108.924,-260.055"/>
<polygon fill="#cccccc" stroke="#cccccc" points="111.065,-262.826 117.094,-254.114 106.948,-257.165 111.065,-262.826"/>
</g>
<!-- Hashable&#45;&gt;_IntegerType -->
<g id="edge11" class="edge"><title>Hashable&#45;&gt;_IntegerType</title>
<path fill="none" stroke="#cccccc" d="M433.04,-408.418C473.184,-397.986 540.112,-379.431 547,-370 558.771,-353.882 544.436,-333.582 530.321,-319.376"/>
<polygon fill="#cccccc" stroke="#cccccc" points="532.35,-316.479 522.669,-312.175 527.553,-321.577 532.35,-316.479"/>
</g>
<!-- IntegerArithmeticType&#45;&gt;_IntegerType -->
<g id="edge12" class="edge"><title>IntegerArithmeticType&#45;&gt;_IntegerType</title>
<path fill="none" stroke="#cccccc" d="M631.541,-347.988C607.801,-339.006 572.741,-325.74 546.369,-315.761"/>
<polygon fill="#cccccc" stroke="#cccccc" points="547.321,-312.379 536.729,-312.114 544.844,-318.926 547.321,-312.379"/>
</g>
<!-- IntegerLiteralConvertible -->
<g id="node8" class="node"><title>IntegerLiteralConvertible</title>
<g id="a_node8"><a xlink:href="/protocol/IntegerLiteralConvertible/" xlink:title="IntegerLiteralConvertible">
<path fill="#999999" stroke="#999999" d="M455.722,-370C455.722,-370 330.278,-370 330.278,-370 326.611,-370 322.944,-366.333 322.944,-362.667 322.944,-362.667 322.944,-355.333 322.944,-355.333 322.944,-351.667 326.611,-348 330.278,-348 330.278,-348 455.722,-348 455.722,-348 459.389,-348 463.056,-351.667 463.056,-355.333 463.056,-355.333 463.056,-362.667 463.056,-362.667 463.056,-366.333 459.389,-370 455.722,-370"/>
<text text-anchor="middle" x="393" y="-355.4" font-family="Helvetica,sans-Serif" font-size="12.00" fill="white">IntegerLiteralConvertible</text>
</a>
</g>
</g>
<!-- IntegerLiteralConvertible&#45;&gt;_IntegerType -->
<g id="edge9" class="edge"><title>IntegerLiteralConvertible&#45;&gt;_IntegerType</title>
<path fill="none" stroke="#cccccc" d="M413.917,-347.988C432.188,-339.243 458.942,-326.438 479.581,-316.559"/>
<polygon fill="#cccccc" stroke="#cccccc" points="481.36,-319.588 488.869,-312.114 478.338,-313.274 481.36,-319.588"/>
</g>
<!-- IntegerType -->
<g id="node9" class="node"><title>IntegerType</title>
<g id="a_node9"><a xlink:href="/protocol/IntegerType/" xlink:title="IntegerType">
<path fill="#999999" stroke="#999999" d="M446.202,-138C446.202,-138 387.798,-138 387.798,-138 384.132,-138 380.465,-134.333 380.465,-130.667 380.465,-130.667 380.465,-123.333 380.465,-123.333 380.465,-119.667 384.132,-116 387.798,-116 387.798,-116 446.202,-116 446.202,-116 449.868,-116 453.535,-119.667 453.535,-123.333 453.535,-123.333 453.535,-130.667 453.535,-130.667 453.535,-134.333 449.868,-138 446.202,-138"/>
<text text-anchor="middle" x="417" y="-123.4" font-family="Helvetica,sans-Serif" font-size="12.00" fill="white">IntegerType</text>
</a>
</g>
</g>
<!-- UnsignedIntegerType -->
<g id="node18" class="node"><title>UnsignedIntegerType</title>
<g id="a_node18"><a xlink:href="/protocol/UnsignedIntegerType/" xlink:title="UnsignedIntegerType">
<path fill="#ee543d" stroke="#ee543d" d="M510.728,-80C510.728,-80 401.272,-80 401.272,-80 397.605,-80 393.938,-76.3333 393.938,-72.6667 393.938,-72.6667 393.938,-65.3333 393.938,-65.3333 393.938,-61.6667 397.605,-58 401.272,-58 401.272,-58 510.728,-58 510.728,-58 514.395,-58 518.062,-61.6667 518.062,-65.3333 518.062,-65.3333 518.062,-72.6667 518.062,-72.6667 518.062,-76.3333 514.395,-80 510.728,-80"/>
<text text-anchor="middle" x="456" y="-65.4" font-family="Helvetica,sans-Serif" font-size="12.00" fill="white">UnsignedIntegerType</text>
</a>
</g>
</g>
<!-- IntegerType&#45;&gt;UnsignedIntegerType -->
<g id="edge7" class="edge"><title>IntegerType&#45;&gt;UnsignedIntegerType</title>
<path fill="none" stroke="#cccccc" d="M423.972,-115.988C429.231,-108.438 436.597,-97.8611 442.939,-88.7543"/>
<polygon fill="#cccccc" stroke="#cccccc" points="445.981,-90.5102 448.824,-80.3039 440.237,-86.5097 445.981,-90.5102"/>
</g>
<!-- Printable -->
<g id="node10" class="node"><title>Printable</title>
<g id="a_node10"><a xlink:href="/protocol/Printable/" xlink:title="Printable">
<path fill="#999999" stroke="#999999" d="M531.187,-370C531.187,-370 488.813,-370 488.813,-370 485.147,-370 481.48,-366.333 481.48,-362.667 481.48,-362.667 481.48,-355.333 481.48,-355.333 481.48,-351.667 485.147,-348 488.813,-348 488.813,-348 531.187,-348 531.187,-348 534.853,-348 538.52,-351.667 538.52,-355.333 538.52,-355.333 538.52,-362.667 538.52,-362.667 538.52,-366.333 534.853,-370 531.187,-370"/>
<text text-anchor="middle" x="510" y="-355.4" font-family="Helvetica,sans-Serif" font-size="12.00" fill="white">Printable</text>
</a>
</g>
</g>
<!-- Printable&#45;&gt;_IntegerType -->
<g id="edge10" class="edge"><title>Printable&#45;&gt;_IntegerType</title>
<path fill="none" stroke="#cccccc" d="M510,-347.988C510,-340.91 510,-331.171 510,-322.478"/>
<polygon fill="#cccccc" stroke="#cccccc" points="513.5,-322.304 510,-312.304 506.5,-322.304 513.5,-322.304"/>
</g>
<!-- RandomAccessIndexType&#45;&gt;IntegerType -->
<g id="edge22" class="edge"><title>RandomAccessIndexType&#45;&gt;IntegerType</title>
<path fill="none" stroke="#cccccc" d="M314.347,-173.988C334.045,-165.164 362.969,-152.206 385.098,-142.292"/>
<polygon fill="#cccccc" stroke="#cccccc" points="386.729,-145.396 394.425,-138.114 383.868,-139.008 386.729,-145.396"/>
</g>
<!-- _RandomAccessIndexType -->
<g id="node25" class="node"><title>_RandomAccessIndexType</title>
<g id="a_node25"><a xlink:href="/protocol/_RandomAccessIndexType/" xlink:title="_RandomAccessIndexType">
<path fill="#999999" stroke="#999999" d="M362.731,-254C362.731,-254 221.269,-254 221.269,-254 217.602,-254 213.936,-250.333 213.936,-246.667 213.936,-246.667 213.936,-239.333 213.936,-239.333 213.936,-235.667 217.602,-232 221.269,-232 221.269,-232 362.731,-232 362.731,-232 366.398,-232 370.064,-235.667 370.064,-239.333 370.064,-239.333 370.064,-246.667 370.064,-246.667 370.064,-250.333 366.398,-254 362.731,-254"/>
<text text-anchor="middle" x="292" y="-239.4" font-family="Helvetica,sans-Serif" font-size="12.00" fill="white">_RandomAccessIndexType</text>
</a>
</g>
</g>
<!-- Strideable&#45;&gt;_RandomAccessIndexType -->
<g id="edge31" class="edge"><title>Strideable&#45;&gt;_RandomAccessIndexType</title>
<path fill="none" stroke="#cccccc" d="M274.686,-347.883C277.805,-329.17 284.529,-288.827 288.619,-264.287"/>
<polygon fill="#cccccc" stroke="#cccccc" points="292.099,-264.697 290.29,-254.258 285.194,-263.546 292.099,-264.697"/>
</g>
<!-- UInt -->
<g id="node13" class="node"><title>UInt</title>
<g id="a_node13"><a xlink:href="/type/UInt/" xlink:title="UInt">
<polygon fill="#999999" stroke="#999999" points="339,-22 285,-22 285,-0 339,-0 339,-22"/>
<text text-anchor="middle" x="312" y="-7.4" font-family="Helvetica,sans-Serif" font-size="12.00" fill="white">UInt</text>
</a>
</g>
</g>
<!-- UInt16 -->
<g id="node14" class="node"><title>UInt16</title>
<g id="a_node14"><a xlink:href="/type/UInt16/" xlink:title="UInt16">
<polygon fill="#999999" stroke="#999999" points="411,-22 357,-22 357,-0 411,-0 411,-22"/>
<text text-anchor="middle" x="384" y="-7.4" font-family="Helvetica,sans-Serif" font-size="12.00" fill="white">UInt16</text>
</a>
</g>
</g>
<!-- UInt32 -->
<g id="node15" class="node"><title>UInt32</title>
<g id="a_node15"><a xlink:href="/type/UInt32/" xlink:title="UInt32">
<polygon fill="#999999" stroke="#999999" points="483,-22 429,-22 429,-0 483,-0 483,-22"/>
<text text-anchor="middle" x="456" y="-7.4" font-family="Helvetica,sans-Serif" font-size="12.00" fill="white">UInt32</text>
</a>
</g>
</g>
<!-- UInt64 -->
<g id="node16" class="node"><title>UInt64</title>
<g id="a_node16"><a xlink:href="/type/UInt64/" xlink:title="UInt64">
<polygon fill="#999999" stroke="#999999" points="555,-22 501,-22 501,-0 555,-0 555,-22"/>
<text text-anchor="middle" x="528" y="-7.4" font-family="Helvetica,sans-Serif" font-size="12.00" fill="white">UInt64</text>
</a>
</g>
</g>
<!-- UInt8 -->
<g id="node17" class="node"><title>UInt8</title>
<g id="a_node17"><a xlink:href="/type/UInt8/" xlink:title="UInt8">
<polygon fill="#999999" stroke="#999999" points="627,-22 573,-22 573,-0 627,-0 627,-22"/>
<text text-anchor="middle" x="600" y="-7.4" font-family="Helvetica,sans-Serif" font-size="12.00" fill="white">UInt8</text>
</a>
</g>
</g>
<!-- UnsignedIntegerType&#45;&gt;UInt -->
<g id="edge1" class="edge"><title>UnsignedIntegerType&#45;&gt;UInt</title>
<path fill="none" stroke="#cccccc" d="M430.256,-57.9883C407.158,-49.0057 373.045,-35.7398 347.386,-25.7614"/>
<polygon fill="#cccccc" stroke="#cccccc" points="348.596,-22.4763 338.007,-22.1138 346.058,-29.0004 348.596,-22.4763"/>
</g>
<!-- UnsignedIntegerType&#45;&gt;UInt16 -->
<g id="edge2" class="edge"><title>UnsignedIntegerType&#45;&gt;UInt16</title>
<path fill="none" stroke="#cccccc" d="M443.128,-57.9883C432.611,-49.8087 417.528,-38.0773 405.228,-28.5108"/>
<polygon fill="#cccccc" stroke="#cccccc" points="407.29,-25.6806 397.248,-22.3039 402.993,-31.2061 407.29,-25.6806"/>
</g>
<!-- UnsignedIntegerType&#45;&gt;UInt32 -->
<g id="edge3" class="edge"><title>UnsignedIntegerType&#45;&gt;UInt32</title>
<path fill="none" stroke="#cccccc" d="M456,-57.9883C456,-50.9098 456,-41.1714 456,-32.4779"/>
<polygon fill="#cccccc" stroke="#cccccc" points="459.5,-32.3038 456,-22.3039 452.5,-32.3039 459.5,-32.3038"/>
</g>
<!-- UnsignedIntegerType&#45;&gt;UInt64 -->
<g id="edge4" class="edge"><title>UnsignedIntegerType&#45;&gt;UInt64</title>
<path fill="none" stroke="#cccccc" d="M468.872,-57.9883C479.389,-49.8087 494.472,-38.0773 506.772,-28.5108"/>
<polygon fill="#cccccc" stroke="#cccccc" points="509.007,-31.2061 514.752,-22.3039 504.71,-25.6806 509.007,-31.2061"/>
</g>
<!-- UnsignedIntegerType&#45;&gt;UInt8 -->
<g id="edge5" class="edge"><title>UnsignedIntegerType&#45;&gt;UInt8</title>
<path fill="none" stroke="#cccccc" d="M481.744,-57.9883C504.842,-49.0057 538.955,-35.7398 564.614,-25.7614"/>
<polygon fill="#cccccc" stroke="#cccccc" points="565.942,-29.0004 573.993,-22.1138 563.404,-22.4763 565.942,-29.0004"/>
</g>
<!-- _BidirectionalIndexType -->
<g id="node19" class="node"><title>_BidirectionalIndexType</title>
<g id="a_node19"><a xlink:href="/protocol/_BidirectionalIndexType/" xlink:title="_BidirectionalIndexType">
<path fill="#999999" stroke="#999999" d="M256.23,-312C256.23,-312 133.77,-312 133.77,-312 130.104,-312 126.437,-308.333 126.437,-304.667 126.437,-304.667 126.437,-297.333 126.437,-297.333 126.437,-293.667 130.104,-290 133.77,-290 133.77,-290 256.23,-290 256.23,-290 259.896,-290 263.563,-293.667 263.563,-297.333 263.563,-297.333 263.563,-304.667 263.563,-304.667 263.563,-308.333 259.896,-312 256.23,-312"/>
<text text-anchor="middle" x="195" y="-297.4" font-family="Helvetica,sans-Serif" font-size="12.00" fill="white">_BidirectionalIndexType</text>
</a>
</g>
</g>
<!-- _BidirectionalIndexType&#45;&gt;BidirectionalIndexType -->
<g id="edge26" class="edge"><title>_BidirectionalIndexType&#45;&gt;BidirectionalIndexType</title>
<path fill="none" stroke="#cccccc" d="M183.558,-289.988C174.39,-281.966 161.317,-270.527 150.503,-261.065"/>
<polygon fill="#cccccc" stroke="#cccccc" points="152.606,-258.255 142.776,-254.304 147.997,-263.523 152.606,-258.255"/>
</g>
<!-- _BidirectionalIndexType&#45;&gt;_RandomAccessIndexType -->
<g id="edge30" class="edge"><title>_BidirectionalIndexType&#45;&gt;_RandomAccessIndexType</title>
<path fill="none" stroke="#cccccc" d="M212.342,-289.988C227.147,-281.441 248.67,-269.015 265.612,-259.234"/>
<polygon fill="#cccccc" stroke="#cccccc" points="267.571,-262.145 274.481,-254.114 264.071,-256.083 267.571,-262.145"/>
</g>
<!-- _Comparable -->
<g id="node20" class="node"><title>_Comparable</title>
<g id="a_node20"><a xlink:href="/protocol/_Comparable/" xlink:title="_Comparable">
<path fill="#999999" stroke="#999999" d="M525.697,-486C525.697,-486 458.303,-486 458.303,-486 454.636,-486 450.969,-482.333 450.969,-478.667 450.969,-478.667 450.969,-471.333 450.969,-471.333 450.969,-467.667 454.636,-464 458.303,-464 458.303,-464 525.697,-464 525.697,-464 529.364,-464 533.031,-467.667 533.031,-471.333 533.031,-471.333 533.031,-478.667 533.031,-478.667 533.031,-482.333 529.364,-486 525.697,-486"/>
<text text-anchor="middle" x="492" y="-471.4" font-family="Helvetica,sans-Serif" font-size="12.00" fill="white">_Comparable</text>
</a>
</g>
</g>
<!-- _Comparable&#45;&gt;Comparable -->
<g id="edge18" class="edge"><title>_Comparable&#45;&gt;Comparable</title>
<path fill="none" stroke="#cccccc" d="M491.821,-463.988C491.695,-456.91 491.521,-447.171 491.366,-438.478"/>
<polygon fill="#cccccc" stroke="#cccccc" points="494.862,-438.24 491.184,-428.304 487.863,-438.365 494.862,-438.24"/>
</g>
<!-- _ForwardIndexType -->
<g id="node21" class="node"><title>_ForwardIndexType</title>
<g id="a_node21"><a xlink:href="/protocol/_ForwardIndexType/" xlink:title="_ForwardIndexType">
<path fill="#999999" stroke="#999999" d="M177.712,-370C177.712,-370 76.2879,-370 76.2879,-370 72.6212,-370 68.9546,-366.333 68.9546,-362.667 68.9546,-362.667 68.9546,-355.333 68.9546,-355.333 68.9546,-351.667 72.6212,-348 76.2879,-348 76.2879,-348 177.712,-348 177.712,-348 181.379,-348 185.045,-351.667 185.045,-355.333 185.045,-355.333 185.045,-362.667 185.045,-362.667 185.045,-366.333 181.379,-370 177.712,-370"/>
<text text-anchor="middle" x="127" y="-355.4" font-family="Helvetica,sans-Serif" font-size="12.00" fill="white">_ForwardIndexType</text>
</a>
</g>
</g>
<!-- _ForwardIndexType&#45;&gt;ForwardIndexType -->
<g id="edge27" class="edge"><title>_ForwardIndexType&#45;&gt;ForwardIndexType</title>
<path fill="none" stroke="#cccccc" d="M113.949,-347.988C103.286,-339.809 87.9937,-328.077 75.523,-318.511"/>
<polygon fill="#cccccc" stroke="#cccccc" points="77.4965,-315.613 67.4318,-312.304 73.2358,-321.168 77.4965,-315.613"/>
</g>
<!-- _ForwardIndexType&#45;&gt;_BidirectionalIndexType -->
<g id="edge29" class="edge"><title>_ForwardIndexType&#45;&gt;_BidirectionalIndexType</title>
<path fill="none" stroke="#cccccc" d="M139.157,-347.988C148.994,-339.887 163.061,-328.303 174.615,-318.787"/>
<polygon fill="#cccccc" stroke="#cccccc" points="176.994,-321.363 182.488,-312.304 172.544,-315.959 176.994,-321.363"/>
</g>
<!-- _Incrementable&#45;&gt;_ForwardIndexType -->
<g id="edge28" class="edge"><title>_Incrementable&#45;&gt;_ForwardIndexType</title>
<path fill="none" stroke="#cccccc" d="M181.201,-405.988C171.653,-397.887 157.999,-386.303 146.785,-376.787"/>
<polygon fill="#cccccc" stroke="#cccccc" points="149.033,-374.105 139.144,-370.304 144.505,-379.442 149.033,-374.105"/>
</g>
<!-- _Incrementable&#45;&gt;_IntegerType -->
<g id="edge14" class="edge"><title>_Incrementable&#45;&gt;_IntegerType</title>
<path fill="none" stroke="#cccccc" d="M195.793,-405.781C200.527,-390.538 211.656,-362.129 232,-348 267.973,-323.017 389.628,-310.478 459.506,-305.198"/>
<polygon fill="#cccccc" stroke="#cccccc" points="460.122,-308.662 469.84,-304.441 459.611,-301.681 460.122,-308.662"/>
</g>
<!-- _IntegerArithmeticType -->
<g id="node23" class="node"><title>_IntegerArithmeticType</title>
<g id="a_node23"><a xlink:href="/protocol/_IntegerArithmeticType/" xlink:title="_IntegerArithmeticType">
<path fill="#999999" stroke="#999999" d="M717.215,-428C717.215,-428 598.785,-428 598.785,-428 595.118,-428 591.452,-424.333 591.452,-420.667 591.452,-420.667 591.452,-413.333 591.452,-413.333 591.452,-409.667 595.118,-406 598.785,-406 598.785,-406 717.215,-406 717.215,-406 720.882,-406 724.548,-409.667 724.548,-413.333 724.548,-413.333 724.548,-420.667 724.548,-420.667 724.548,-424.333 720.882,-428 717.215,-428"/>
<text text-anchor="middle" x="658" y="-413.4" font-family="Helvetica,sans-Serif" font-size="12.00" fill="white">_IntegerArithmeticType</text>
</a>
</g>
</g>
<!-- _IntegerArithmeticType&#45;&gt;IntegerArithmeticType -->
<g id="edge16" class="edge"><title>_IntegerArithmeticType&#45;&gt;IntegerArithmeticType</title>
<path fill="none" stroke="#cccccc" d="M658,-405.988C658,-398.91 658,-389.171 658,-380.478"/>
<polygon fill="#cccccc" stroke="#cccccc" points="661.5,-380.304 658,-370.304 654.5,-380.304 661.5,-380.304"/>
</g>
<!-- _IntegerType&#45;&gt;IntegerType -->
<g id="edge21" class="edge"><title>_IntegerType&#45;&gt;IntegerType</title>
<path fill="none" stroke="#cccccc" d="M500.91,-289.842C485.445,-272.06 453.95,-233.595 436,-196 428.666,-180.638 423.697,-161.932 420.686,-148.031"/>
<polygon fill="#cccccc" stroke="#cccccc" points="424.086,-147.182 418.684,-138.068 417.223,-148.562 424.086,-147.182"/>
</g>
<!-- _UnsignedIntegerType -->
<g id="node27" class="node"><title>_UnsignedIntegerType</title>
<g id="a_node27"><a xlink:href="/protocol/_UnsignedIntegerType/" xlink:title="_UnsignedIntegerType">
<path fill="#999999" stroke="#999999" d="M567.734,-196C567.734,-196 452.266,-196 452.266,-196 448.599,-196 444.933,-192.333 444.933,-188.667 444.933,-188.667 444.933,-181.333 444.933,-181.333 444.933,-177.667 448.599,-174 452.266,-174 452.266,-174 567.734,-174 567.734,-174 571.401,-174 575.067,-177.667 575.067,-181.333 575.067,-181.333 575.067,-188.667 575.067,-188.667 575.067,-192.333 571.401,-196 567.734,-196"/>
<text text-anchor="middle" x="510" y="-181.4" font-family="Helvetica,sans-Serif" font-size="12.00" fill="white">_UnsignedIntegerType</text>
</a>
</g>
</g>
<!-- _IntegerType&#45;&gt;_UnsignedIntegerType -->
<g id="edge8" class="edge"><title>_IntegerType&#45;&gt;_UnsignedIntegerType</title>
<path fill="none" stroke="#cccccc" d="M510,-289.883C510,-271.17 510,-230.827 510,-206.287"/>
<polygon fill="#cccccc" stroke="#cccccc" points="513.5,-206.258 510,-196.258 506.5,-206.258 513.5,-206.258"/>
</g>
<!-- _RandomAccessIndexType&#45;&gt;RandomAccessIndexType -->
<g id="edge24" class="edge"><title>_RandomAccessIndexType&#45;&gt;RandomAccessIndexType</title>
<path fill="none" stroke="#cccccc" d="M292,-231.988C292,-224.91 292,-215.171 292,-206.478"/>
<polygon fill="#cccccc" stroke="#cccccc" points="295.5,-206.304 292,-196.304 288.5,-206.304 295.5,-206.304"/>
</g>
<!-- _Strideable -->
<g id="node26" class="node"><title>_Strideable</title>
<g id="a_node26"><a xlink:href="/protocol/_Strideable/" xlink:title="_Strideable">
<path fill="#999999" stroke="#999999" d="M320.7,-428C320.7,-428 265.3,-428 265.3,-428 261.634,-428 257.967,-424.333 257.967,-420.667 257.967,-420.667 257.967,-413.333 257.967,-413.333 257.967,-409.667 261.634,-406 265.3,-406 265.3,-406 320.7,-406 320.7,-406 324.366,-406 328.033,-409.667 328.033,-413.333 328.033,-413.333 328.033,-420.667 328.033,-420.667 328.033,-424.333 324.366,-428 320.7,-428"/>
<text text-anchor="middle" x="293" y="-413.4" font-family="Helvetica,sans-Serif" font-size="12.00" fill="white">_Strideable</text>
</a>
</g>
</g>
<!-- _Strideable&#45;&gt;Strideable -->
<g id="edge33" class="edge"><title>_Strideable&#45;&gt;Strideable</title>
<path fill="none" stroke="#cccccc" d="M289.424,-405.988C286.84,-398.752 283.263,-388.737 280.107,-379.9"/>
<polygon fill="#cccccc" stroke="#cccccc" points="283.339,-378.544 276.68,-370.304 276.747,-380.899 283.339,-378.544"/>
</g>
<!-- _UnsignedIntegerType&#45;&gt;UnsignedIntegerType -->
<g id="edge6" class="edge"><title>_UnsignedIntegerType&#45;&gt;UnsignedIntegerType</title>
<path fill="none" stroke="#cccccc" d="M505.208,-173.883C496.224,-154.917 476.715,-113.732 465.142,-89.3004"/>
<polygon fill="#cccccc" stroke="#cccccc" points="468.303,-87.797 460.859,-80.2579 461.977,-90.7937 468.303,-87.797"/>
</g>
</g>
</svg>
