<?xml version="1.0" encoding="UTF-8" standalone="no"?>
<!DOCTYPE svg PUBLIC "-//W3C//DTD SVG 1.1//EN"
 "http://www.w3.org/Graphics/SVG/1.1/DTD/svg11.dtd">
<!-- Generated by graphviz version 2.36.0 (20140111.2315)
 -->
<!-- Title: ZipGenerator2&lt;Generator1 : GeneratorType, Generator2 : GeneratorType&gt; &#45; Type Hierarchy &#45; SwiftDoc.org Pages: 1 -->
<svg width="422pt" height="195pt"
 viewBox="0.00 0.00 422.40 195.20" xmlns="http://www.w3.org/2000/svg" xmlns:xlink="http://www.w3.org/1999/xlink">
<g id="graph0" class="graph" transform="scale(1 1) rotate(0) translate(7.2 137.6)">
<title>ZipGenerator2&lt;Generator1 : GeneratorType, Generator2 : GeneratorType&gt; &#45; Type Hierarchy &#45; SwiftDoc.org</title>
<polygon fill="white" stroke="none" points="-7.2,57.6 -7.2,-137.6 415.2,-137.6 415.2,57.6 -7.2,57.6"/>
<!-- GeneratorType -->
<g id="node1" class="node"><title>GeneratorType</title>
<g id="a_node1"><a xlink:href="/protocol/GeneratorType/" xlink:title="GeneratorType">
<path fill="#999999" stroke="#999999" d="M241.705,-80C241.705,-80 166.295,-80 166.295,-80 162.629,-80 158.962,-76.3333 158.962,-72.6667 158.962,-72.6667 158.962,-65.3333 158.962,-65.3333 158.962,-61.6667 162.629,-58 166.295,-58 166.295,-58 241.705,-58 241.705,-58 245.371,-58 249.038,-61.6667 249.038,-65.3333 249.038,-65.3333 249.038,-72.6667 249.038,-72.6667 249.038,-76.3333 245.371,-80 241.705,-80"/>
<text text-anchor="middle" x="204" y="-65.4" font-family="Helvetica,sans-Serif" font-size="12.00" fill="white">GeneratorType</text>
</a>
</g>
</g>
<!-- ZipGenerator2&lt;Generator1 : GeneratorType, Generator2 : GeneratorType&gt; -->
<g id="node2" class="node"><title>ZipGenerator2&lt;Generator1 : GeneratorType, Generator2 : GeneratorType&gt;</title>
<g id="a_node2"><a xlink:href="/type/ZipGenerator2/" xlink:title="ZipGenerator2&lt;Generator1 : GeneratorType, Generator2 : GeneratorType&gt;">
<polygon fill="#ee543d" stroke="#ee543d" points="408.177,-22 -0.17691,-22 -0.17691,-0 408.177,-0 408.177,-22"/>
<text text-anchor="middle" x="204" y="-7.4" font-family="Helvetica,sans-Serif" font-size="12.00" fill="white">ZipGenerator2&lt;Generator1 : GeneratorType, Generator2 : GeneratorType&gt;</text>
</a>
</g>
</g>
<!-- GeneratorType&#45;&gt;ZipGenerator2&lt;Generator1 : GeneratorType, Generator2 : GeneratorType&gt; -->
<g id="edge1" class="edge"><title>GeneratorType&#45;&gt;ZipGenerator2&lt;Generator1 : GeneratorType, Generator2 : GeneratorType&gt;</title>
<path fill="none" stroke="#cccccc" d="M204,-57.9883C204,-50.9098 204,-41.1714 204,-32.4779"/>
<polygon fill="#cccccc" stroke="#cccccc" points="207.5,-32.3038 204,-22.3039 200.5,-32.3039 207.5,-32.3038"/>
</g>
</g>
</svg>
