<?xml version="1.0" encoding="UTF-8" standalone="no"?>
<!DOCTYPE svg PUBLIC "-//W3C//DTD SVG 1.1//EN"
 "http://www.w3.org/Graphics/SVG/1.1/DTD/svg11.dtd">
<!-- Generated by graphviz version 2.36.0 (20140111.2315)
 -->
<!-- Title: Streamable &#45; Type Hierarchy &#45; SwiftDoc.org Pages: 1 -->
<svg width="254pt" height="195pt"
 viewBox="0.00 0.00 254.40 195.20" xmlns="http://www.w3.org/2000/svg" xmlns:xlink="http://www.w3.org/1999/xlink">
<g id="graph0" class="graph" transform="scale(1 1) rotate(0) translate(7.2 137.6)">
<title>Streamable &#45; Type Hierarchy &#45; SwiftDoc.org</title>
<polygon fill="white" stroke="none" points="-7.2,57.6 -7.2,-137.6 247.2,-137.6 247.2,57.6 -7.2,57.6"/>
<!-- Character -->
<g id="node1" class="node"><title>Character</title>
<g id="a_node1"><a xlink:href="/type/Character/" xlink:title="Character">
<polygon fill="#999999" stroke="#999999" points="62.0173,-22 -0.0172526,-22 -0.0172526,-0 62.0173,-0 62.0173,-22"/>
<text text-anchor="middle" x="31" y="-7.4" font-family="Helvetica,sans-Serif" font-size="12.00" fill="white">Character</text>
</a>
</g>
</g>
<!-- Streamable -->
<g id="node2" class="node"><title>Streamable</title>
<g id="a_node2"><a xlink:href="/protocol/Streamable/" xlink:title="Streamable">
<path fill="#ee543d" stroke="#ee543d" d="M135.19,-80C135.19,-80 78.8102,-80 78.8102,-80 75.1436,-80 71.4769,-76.3333 71.4769,-72.6667 71.4769,-72.6667 71.4769,-65.3333 71.4769,-65.3333 71.4769,-61.6667 75.1436,-58 78.8102,-58 78.8102,-58 135.19,-58 135.19,-58 138.856,-58 142.523,-61.6667 142.523,-65.3333 142.523,-65.3333 142.523,-72.6667 142.523,-72.6667 142.523,-76.3333 138.856,-80 135.19,-80"/>
<text text-anchor="middle" x="107" y="-65.4" font-family="Helvetica,sans-Serif" font-size="12.00" fill="white">Streamable</text>
</a>
</g>
</g>
<!-- Streamable&#45;&gt;Character -->
<g id="edge1" class="edge"><title>Streamable&#45;&gt;Character</title>
<path fill="none" stroke="#cccccc" d="M93.4127,-57.9883C82.135,-49.6784 65.8823,-37.7028 52.7894,-28.0554"/>
<polygon fill="#cccccc" stroke="#cccccc" points="54.8527,-25.2281 44.7259,-22.1138 50.7003,-30.8635 54.8527,-25.2281"/>
</g>
<!-- String -->
<g id="node3" class="node"><title>String</title>
<g id="a_node3"><a xlink:href="/type/String/" xlink:title="String">
<polygon fill="#999999" stroke="#999999" points="134,-22 80,-22 80,-0 134,-0 134,-22"/>
<text text-anchor="middle" x="107" y="-7.4" font-family="Helvetica,sans-Serif" font-size="12.00" fill="white">String</text>
</a>
</g>
</g>
<!-- Streamable&#45;&gt;String -->
<g id="edge2" class="edge"><title>Streamable&#45;&gt;String</title>
<path fill="none" stroke="#cccccc" d="M107,-57.9883C107,-50.9098 107,-41.1714 107,-32.4779"/>
<polygon fill="#cccccc" stroke="#cccccc" points="110.5,-32.3038 107,-22.3039 103.5,-32.3039 110.5,-32.3038"/>
</g>
<!-- UnicodeScalar -->
<g id="node4" class="node"><title>UnicodeScalar</title>
<g id="a_node4"><a xlink:href="/type/UnicodeScalar/" xlink:title="UnicodeScalar">
<polygon fill="#999999" stroke="#999999" points="240.031,-22 151.969,-22 151.969,-0 240.031,-0 240.031,-22"/>
<text text-anchor="middle" x="196" y="-7.4" font-family="Helvetica,sans-Serif" font-size="12.00" fill="white">UnicodeScalar</text>
</a>
</g>
</g>
<!-- Streamable&#45;&gt;UnicodeScalar -->
<g id="edge3" class="edge"><title>Streamable&#45;&gt;UnicodeScalar</title>
<path fill="none" stroke="#cccccc" d="M122.911,-57.9883C136.37,-49.5201 155.878,-37.2452 171.355,-27.5067"/>
<polygon fill="#cccccc" stroke="#cccccc" points="173.326,-30.4018 179.926,-22.1138 169.598,-24.4771 173.326,-30.4018"/>
</g>
</g>
</svg>
