<?xml version="1.0" encoding="UTF-8" standalone="no"?>
<!DOCTYPE svg PUBLIC "-//W3C//DTD SVG 1.1//EN"
 "http://www.w3.org/Graphics/SVG/1.1/DTD/svg11.dtd">
<!-- Generated by graphviz version 2.36.0 (20140111.2315)
 -->
<!-- Title: _NSArrayCoreType &#45; Type Hierarchy &#45; SwiftDoc.org Pages: 1 -->
<svg width="285pt" height="253pt"
 viewBox="0.00 0.00 285.40 253.20" xmlns="http://www.w3.org/2000/svg" xmlns:xlink="http://www.w3.org/1999/xlink">
<g id="graph0" class="graph" transform="scale(1 1) rotate(0) translate(7.2 195.6)">
<title>_NSArrayCoreType &#45; Type Hierarchy &#45; SwiftDoc.org</title>
<polygon fill="white" stroke="none" points="-7.2,57.6 -7.2,-195.6 278.2,-195.6 278.2,57.6 -7.2,57.6"/>
<!-- _NSArrayCoreType -->
<g id="node1" class="node"><title>_NSArrayCoreType</title>
<g id="a_node1"><a xlink:href="/protocol/_NSArrayCoreType/" xlink:title="_NSArrayCoreType">
<path fill="#ee543d" stroke="#ee543d" d="M172.7,-22C172.7,-22 73.2996,-22 73.2996,-22 69.633,-22 65.9663,-18.3333 65.9663,-14.6667 65.9663,-14.6667 65.9663,-7.33333 65.9663,-7.33333 65.9663,-3.66667 69.633,-0 73.2996,-0 73.2996,-0 172.7,-0 172.7,-0 176.367,-0 180.034,-3.66667 180.034,-7.33333 180.034,-7.33333 180.034,-14.6667 180.034,-14.6667 180.034,-18.3333 176.367,-22 172.7,-22"/>
<text text-anchor="middle" x="123" y="-7.4" font-family="Helvetica,sans-Serif" font-size="12.00" fill="white">_NSArrayCoreType</text>
</a>
</g>
</g>
<!-- _NSCopyingType -->
<g id="node2" class="node"><title>_NSCopyingType</title>
<g id="a_node2"><a xlink:href="/protocol/_NSCopyingType/" xlink:title="_NSCopyingType">
<path fill="#999999" stroke="#999999" d="M95.2105,-80C95.2105,-80 6.78948,-80 6.78948,-80 3.12281,-80 -0.543855,-76.3333 -0.543855,-72.6667 -0.543855,-72.6667 -0.543855,-65.3333 -0.543855,-65.3333 -0.543855,-61.6667 3.12281,-58 6.78948,-58 6.78948,-58 95.2105,-58 95.2105,-58 98.8772,-58 102.544,-61.6667 102.544,-65.3333 102.544,-65.3333 102.544,-72.6667 102.544,-72.6667 102.544,-76.3333 98.8772,-80 95.2105,-80"/>
<text text-anchor="middle" x="51" y="-65.4" font-family="Helvetica,sans-Serif" font-size="12.00" fill="white">_NSCopyingType</text>
</a>
</g>
</g>
<!-- _NSCopyingType&#45;&gt;_NSArrayCoreType -->
<g id="edge1" class="edge"><title>_NSCopyingType&#45;&gt;_NSArrayCoreType</title>
<path fill="none" stroke="#cccccc" d="M63.8722,-57.9883C74.3888,-49.8087 89.472,-38.0773 101.772,-28.5108"/>
<polygon fill="#cccccc" stroke="#cccccc" points="104.007,-31.2061 109.752,-22.3039 99.7098,-25.6806 104.007,-31.2061"/>
</g>
<!-- _NSFastEnumerationType -->
<g id="node3" class="node"><title>_NSFastEnumerationType</title>
<g id="a_node3"><a xlink:href="/protocol/_NSFastEnumerationType/" xlink:title="_NSFastEnumerationType">
<path fill="#999999" stroke="#999999" d="M263.724,-80C263.724,-80 128.276,-80 128.276,-80 124.609,-80 120.943,-76.3333 120.943,-72.6667 120.943,-72.6667 120.943,-65.3333 120.943,-65.3333 120.943,-61.6667 124.609,-58 128.276,-58 128.276,-58 263.724,-58 263.724,-58 267.391,-58 271.057,-61.6667 271.057,-65.3333 271.057,-65.3333 271.057,-72.6667 271.057,-72.6667 271.057,-76.3333 267.391,-80 263.724,-80"/>
<text text-anchor="middle" x="196" y="-65.4" font-family="Helvetica,sans-Serif" font-size="12.00" fill="white">_NSFastEnumerationType</text>
</a>
</g>
</g>
<!-- _NSFastEnumerationType&#45;&gt;_NSArrayCoreType -->
<g id="edge2" class="edge"><title>_NSFastEnumerationType&#45;&gt;_NSArrayCoreType</title>
<path fill="none" stroke="#cccccc" d="M182.949,-57.9883C172.286,-49.8087 156.994,-38.0773 144.523,-28.5108"/>
<polygon fill="#cccccc" stroke="#cccccc" points="146.496,-25.6135 136.432,-22.3039 142.236,-31.1675 146.496,-25.6135"/>
</g>
<!-- _ShadowProtocol -->
<g id="node4" class="node"><title>_ShadowProtocol</title>
<g id="a_node4"><a xlink:href="/protocol/_ShadowProtocol/" xlink:title="_ShadowProtocol">
<path fill="#999999" stroke="#999999" d="M167.712,-138C167.712,-138 78.2879,-138 78.2879,-138 74.6212,-138 70.9546,-134.333 70.9546,-130.667 70.9546,-130.667 70.9546,-123.333 70.9546,-123.333 70.9546,-119.667 74.6212,-116 78.2879,-116 78.2879,-116 167.712,-116 167.712,-116 171.379,-116 175.045,-119.667 175.045,-123.333 175.045,-123.333 175.045,-130.667 175.045,-130.667 175.045,-134.333 171.379,-138 167.712,-138"/>
<text text-anchor="middle" x="123" y="-123.4" font-family="Helvetica,sans-Serif" font-size="12.00" fill="white">_ShadowProtocol</text>
</a>
</g>
</g>
<!-- _ShadowProtocol&#45;&gt;_NSCopyingType -->
<g id="edge3" class="edge"><title>_ShadowProtocol&#45;&gt;_NSCopyingType</title>
<path fill="none" stroke="#cccccc" d="M110.128,-115.988C99.6112,-107.809 84.528,-96.0773 72.2281,-86.5108"/>
<polygon fill="#cccccc" stroke="#cccccc" points="74.2902,-83.6806 64.2478,-80.3039 69.9926,-89.2061 74.2902,-83.6806"/>
</g>
<!-- _ShadowProtocol&#45;&gt;_NSFastEnumerationType -->
<g id="edge4" class="edge"><title>_ShadowProtocol&#45;&gt;_NSFastEnumerationType</title>
<path fill="none" stroke="#cccccc" d="M136.051,-115.988C146.714,-107.809 162.006,-96.0773 174.477,-86.5108"/>
<polygon fill="#cccccc" stroke="#cccccc" points="176.764,-89.1675 182.568,-80.3039 172.504,-83.6135 176.764,-89.1675"/>
</g>
</g>
</svg>
