<?xml version="1.0" encoding="UTF-8" standalone="no"?>
<!DOCTYPE svg PUBLIC "-//W3C//DTD SVG 1.1//EN"
 "http://www.w3.org/Graphics/SVG/1.1/DTD/svg11.dtd">
<!-- Generated by graphviz version 2.36.0 (20140111.2315)
 -->
<!-- Title: String.UTF8View.Index &#45; Type Hierarchy &#45; SwiftDoc.org Pages: 1 -->
<svg width="155pt" height="311pt"
 viewBox="0.00 0.00 155.40 311.20" xmlns="http://www.w3.org/2000/svg" xmlns:xlink="http://www.w3.org/1999/xlink">
<g id="graph0" class="graph" transform="scale(1 1) rotate(0) translate(7.2 253.6)">
<title>String.UTF8View.Index &#45; Type Hierarchy &#45; SwiftDoc.org</title>
<polygon fill="white" stroke="none" points="-7.2,57.6 -7.2,-253.6 148.2,-253.6 148.2,57.6 -7.2,57.6"/>
<!-- Equatable -->
<g id="node1" class="node"><title>Equatable</title>
<g id="a_node1"><a xlink:href="/protocol/Equatable/" xlink:title="Equatable">
<path fill="#999999" stroke="#999999" d="M56.7018,-196C56.7018,-196 7.29817,-196 7.29817,-196 3.6315,-196 -0.0351648,-192.333 -0.0351648,-188.667 -0.0351648,-188.667 -0.0351648,-181.333 -0.0351648,-181.333 -0.0351648,-177.667 3.6315,-174 7.29817,-174 7.29817,-174 56.7018,-174 56.7018,-174 60.3685,-174 64.0352,-177.667 64.0352,-181.333 64.0352,-181.333 64.0352,-188.667 64.0352,-188.667 64.0352,-192.333 60.3685,-196 56.7018,-196"/>
<text text-anchor="middle" x="32" y="-181.4" font-family="Helvetica,sans-Serif" font-size="12.00" fill="white">Equatable</text>
</a>
</g>
</g>
<!-- String.UTF8View.Index -->
<g id="node3" class="node"><title>String.UTF8View.Index</title>
<g id="a_node3"><a xlink:href="/type/String.UTF8View.Index/" xlink:title="String.UTF8View.Index">
<polygon fill="#ee543d" stroke="#ee543d" points="139.887,-22 8.11339,-22 8.11339,-0 139.887,-0 139.887,-22"/>
<text text-anchor="middle" x="74" y="-7.4" font-family="Helvetica,sans-Serif" font-size="12.00" fill="white">String.UTF8View.Index</text>
</a>
</g>
</g>
<!-- Equatable&#45;&gt;String.UTF8View.Index -->
<g id="edge3" class="edge"><title>Equatable&#45;&gt;String.UTF8View.Index</title>
<path fill="none" stroke="#cccccc" d="M26.215,-173.89C14.3152,-151.648 -10.1625,-97.3219 10,-58 16.7823,-44.7728 29.333,-34.4882 41.5352,-27.0307"/>
<polygon fill="#cccccc" stroke="#cccccc" points="43.284,-30.0627 50.2712,-22.0985 39.8425,-23.9671 43.284,-30.0627"/>
</g>
<!-- _Incrementable -->
<g id="node4" class="node"><title>_Incrementable</title>
<g id="a_node4"><a xlink:href="/protocol/_Incrementable/" xlink:title="_Incrementable">
<path fill="#999999" stroke="#999999" d="M112.705,-138C112.705,-138 35.2948,-138 35.2948,-138 31.6281,-138 27.9614,-134.333 27.9614,-130.667 27.9614,-130.667 27.9614,-123.333 27.9614,-123.333 27.9614,-119.667 31.6281,-116 35.2948,-116 35.2948,-116 112.705,-116 112.705,-116 116.372,-116 120.039,-119.667 120.039,-123.333 120.039,-123.333 120.039,-130.667 120.039,-130.667 120.039,-134.333 116.372,-138 112.705,-138"/>
<text text-anchor="middle" x="74" y="-123.4" font-family="Helvetica,sans-Serif" font-size="12.00" fill="white">_Incrementable</text>
</a>
</g>
</g>
<!-- Equatable&#45;&gt;_Incrementable -->
<g id="edge5" class="edge"><title>Equatable&#45;&gt;_Incrementable</title>
<path fill="none" stroke="#cccccc" d="M39.5088,-173.988C45.2306,-166.359 53.2697,-155.64 60.1474,-146.47"/>
<polygon fill="#cccccc" stroke="#cccccc" points="63.0721,-148.404 66.2721,-138.304 57.472,-144.204 63.0721,-148.404"/>
</g>
<!-- ForwardIndexType -->
<g id="node2" class="node"><title>ForwardIndexType</title>
<g id="a_node2"><a xlink:href="/protocol/ForwardIndexType/" xlink:title="ForwardIndexType">
<path fill="#999999" stroke="#999999" d="M121.206,-80C121.206,-80 26.7938,-80 26.7938,-80 23.1272,-80 19.4605,-76.3333 19.4605,-72.6667 19.4605,-72.6667 19.4605,-65.3333 19.4605,-65.3333 19.4605,-61.6667 23.1272,-58 26.7938,-58 26.7938,-58 121.206,-58 121.206,-58 124.873,-58 128.539,-61.6667 128.539,-65.3333 128.539,-65.3333 128.539,-72.6667 128.539,-72.6667 128.539,-76.3333 124.873,-80 121.206,-80"/>
<text text-anchor="middle" x="74" y="-65.4" font-family="Helvetica,sans-Serif" font-size="12.00" fill="white">ForwardIndexType</text>
</a>
</g>
</g>
<!-- ForwardIndexType&#45;&gt;String.UTF8View.Index -->
<g id="edge1" class="edge"><title>ForwardIndexType&#45;&gt;String.UTF8View.Index</title>
<path fill="none" stroke="#cccccc" d="M74,-57.9883C74,-50.9098 74,-41.1714 74,-32.4779"/>
<polygon fill="#cccccc" stroke="#cccccc" points="77.5001,-32.3038 74,-22.3039 70.5001,-32.3039 77.5001,-32.3038"/>
</g>
<!-- _Incrementable&#45;&gt;ForwardIndexType -->
<g id="edge4" class="edge"><title>_Incrementable&#45;&gt;ForwardIndexType</title>
<path fill="none" stroke="#cccccc" d="M74,-115.988C74,-108.91 74,-99.1714 74,-90.4779"/>
<polygon fill="#cccccc" stroke="#cccccc" points="77.5001,-90.3038 74,-80.3039 70.5001,-90.3039 77.5001,-90.3038"/>
</g>
<!-- _Incrementable&#45;&gt;String.UTF8View.Index -->
<g id="edge2" class="edge"><title>_Incrementable&#45;&gt;String.UTF8View.Index</title>
<path fill="none" stroke="#cccccc" d="M95.5562,-115.964C118.287,-103.857 149.246,-82.1047 137,-58 130.352,-44.9148 118.042,-34.6647 106.056,-27.1942"/>
<polygon fill="#cccccc" stroke="#cccccc" points="107.466,-23.9682 97.0517,-22.0224 103.98,-30.0382 107.466,-23.9682"/>
</g>
</g>
</svg>
