<?xml version="1.0" encoding="UTF-8" standalone="no"?>
<!DOCTYPE svg PUBLIC "-//W3C//DTD SVG 1.1//EN"
 "http://www.w3.org/Graphics/SVG/1.1/DTD/svg11.dtd">
<!-- Generated by graphviz version 2.36.0 (20140111.2315)
 -->
<!-- Title: Hashable &#45; Type Hierarchy &#45; SwiftDoc.org Pages: 1 -->
<svg width="2199pt" height="427pt"
 viewBox="0.00 0.00 2199.40 427.20" xmlns="http://www.w3.org/2000/svg" xmlns:xlink="http://www.w3.org/1999/xlink">
<g id="graph0" class="graph" transform="scale(1 1) rotate(0) translate(7.2 369.6)">
<g transform="translate(0 -369.6)">
<g>
    <path fill="#666666" d="M13.846,10.832c-0.336-0.464-0.792-0.844-1.368-1.14s-1.224-0.444-1.944-0.444
        c-0.384,0-0.772,0.052-1.164,0.156C8.977,9.509,8.622,9.677,8.301,9.908c-0.32,0.232-0.58,0.52-0.78,0.864
        c-0.2,0.344-0.3,0.756-0.3,1.236c0,0.464,0.092,0.852,0.276,1.164c0.184,0.312,0.432,0.576,0.744,0.792s0.68,0.4,1.104,0.552
        c0.423,0.152,0.876,0.309,1.356,0.468c0.576,0.177,1.16,0.376,1.752,0.601c0.592,0.224,1.128,0.52,1.608,0.888
        s0.872,0.828,1.176,1.38s0.456,1.252,0.456,2.101c0,0.88-0.164,1.644-0.492,2.292c-0.328,0.647-0.765,1.184-1.308,1.607
        c-0.544,0.424-1.172,0.74-1.884,0.948s-1.444,0.312-2.196,0.312c-1.072,0-2.108-0.208-3.108-0.624
        c-1-0.415-1.828-1.031-2.484-1.848l1.848-1.56c0.4,0.592,0.936,1.071,1.608,1.439c0.672,0.368,1.399,0.552,2.184,0.552
        c0.4,0,0.8-0.056,1.2-0.168c0.4-0.111,0.764-0.288,1.092-0.527c0.328-0.24,0.596-0.54,0.804-0.9
        c0.208-0.36,0.312-0.796,0.312-1.308s-0.108-0.94-0.324-1.284c-0.216-0.344-0.508-0.636-0.876-0.876s-0.796-0.444-1.284-0.612
        c-0.488-0.168-1.004-0.34-1.548-0.516c-0.544-0.16-1.08-0.356-1.608-0.588c-0.528-0.232-1-0.528-1.416-0.889
        c-0.416-0.359-0.752-0.804-1.008-1.332c-0.256-0.527-0.384-1.184-0.384-1.968c0-0.848,0.172-1.576,0.516-2.184
        c0.344-0.608,0.792-1.112,1.344-1.512c0.552-0.4,1.176-0.692,1.872-0.876c0.696-0.184,1.396-0.276,2.1-0.276
        c0.992,0,1.92,0.176,2.784,0.528c0.864,0.352,1.56,0.824,2.088,1.416L13.846,10.832z"/>
    <path fill="#666666" d="M18.813,13.304l2.568,8.688h0.048l2.712-8.688h2.376l2.76,8.688h0.048l2.568-8.688h2.376L30.501,24.68
        h-2.352l-2.808-8.544h-0.048l-2.784,8.544h-2.352l-3.792-11.376H18.813z"/>
    <path fill="#666666" d="M38.685,9.2c0,0.416-0.147,0.76-0.44,1.032c-0.294,0.272-0.647,0.408-1.06,0.408s-0.762-0.14-1.047-0.42
        c-0.286-0.28-0.429-0.62-0.429-1.02c0-0.416,0.143-0.764,0.429-1.044c0.286-0.28,0.635-0.42,1.047-0.42s0.766,0.14,1.06,0.42
        C38.538,8.437,38.685,8.784,38.685,9.2z M38.325,24.68h-2.256V13.304h2.256V24.68z"/>
    <path fill="#666666" d="M47.613,15.152h-2.64v9.528h-2.256v-9.528h-2.256v-1.848h2.256v-2.376c0-0.672,0.076-1.292,0.228-1.86
        c0.152-0.568,0.4-1.06,0.744-1.476c0.344-0.416,0.784-0.744,1.32-0.984c0.536-0.24,1.188-0.36,1.956-0.36
        c0.544,0,1.016,0.056,1.416,0.168l-0.264,1.944c-0.176-0.048-0.352-0.088-0.528-0.12c-0.176-0.032-0.376-0.048-0.6-0.048
        c-0.432,0-0.78,0.076-1.044,0.228c-0.264,0.152-0.468,0.356-0.612,0.612s-0.24,0.548-0.288,0.876
        c-0.048,0.328-0.072,0.668-0.072,1.02v2.376h2.64V15.152z"/>
    <path fill="#666666" d="M54.909,15.152h-3.024v5.91c0,0.687,0.128,1.177,0.384,1.472c0.256,0.295,0.664,0.442,1.224,0.442
        c0.208,0,0.432-0.021,0.672-0.065c0.24-0.044,0.456-0.11,0.648-0.198l0.072,1.848c-0.272,0.096-0.572,0.172-0.9,0.229
        c-0.328,0.056-0.668,0.084-1.02,0.084c-1.072,0-1.892-0.296-2.46-0.889c-0.568-0.592-0.852-1.479-0.852-2.664v-6.168h-2.184
        v-1.848h2.184V10.04h2.232v3.264h3.024V15.152z"/>
    <path fill="#666666" d="M57.356,7.688h5.832c1.088,0,2.176,0.16,3.264,0.48c1.088,0.32,2.072,0.824,2.952,1.512
        s1.592,1.568,2.136,2.64c0.544,1.072,0.816,2.36,0.816,3.864c0,1.456-0.272,2.716-0.816,3.78s-1.256,1.943-2.136,2.64
        s-1.864,1.216-2.952,1.561c-1.088,0.344-2.176,0.516-3.264,0.516h-5.832V7.688z M59.732,22.593h2.976
        c1.024,0,1.972-0.145,2.844-0.432c0.872-0.288,1.624-0.704,2.256-1.248c0.632-0.544,1.124-1.216,1.476-2.017
        c0.352-0.8,0.528-1.704,0.528-2.712c0-1.056-0.176-1.983-0.528-2.784c-0.353-0.8-0.844-1.468-1.476-2.004
        c-0.632-0.536-1.384-0.944-2.256-1.224s-1.82-0.42-2.844-0.42h-2.976V22.593z"/>
    <path fill="#666666" d="M86.06,18.969c0,0.88-0.156,1.688-0.468,2.424c-0.312,0.736-0.744,1.372-1.296,1.908
        c-0.552,0.536-1.204,0.952-1.956,1.248c-0.752,0.296-1.56,0.443-2.424,0.443c-0.864,0-1.672-0.147-2.424-0.443
        c-0.752-0.296-1.4-0.712-1.944-1.248c-0.544-0.536-0.972-1.172-1.284-1.908c-0.312-0.735-0.468-1.544-0.468-2.424
        s0.156-1.684,0.468-2.412c0.312-0.728,0.74-1.356,1.284-1.884c0.543-0.528,1.191-0.939,1.944-1.236
        c0.752-0.296,1.56-0.444,2.424-0.444c0.864,0,1.672,0.148,2.424,0.444c0.752,0.297,1.404,0.708,1.956,1.236
        c0.552,0.527,0.984,1.156,1.296,1.884C85.904,17.285,86.06,18.089,86.06,18.969z M83.708,18.98c0-0.542-0.084-1.061-0.252-1.556
        c-0.169-0.494-0.414-0.929-0.734-1.304s-0.718-0.674-1.192-0.897s-1.015-0.335-1.625-0.335c-0.61,0-1.152,0.111-1.625,0.335
        c-0.474,0.224-0.871,0.522-1.191,0.897c-0.321,0.375-0.566,0.81-0.734,1.304C76.184,17.92,76.1,18.438,76.1,18.98
        c0,0.543,0.084,1.062,0.253,1.556c0.168,0.495,0.413,0.934,0.734,1.316c0.321,0.383,0.718,0.686,1.191,0.909
        c0.473,0.224,1.015,0.335,1.625,0.335c0.61,0,1.151-0.111,1.625-0.335s0.871-0.526,1.192-0.909s0.565-0.821,0.734-1.316
        C83.624,20.042,83.708,19.523,83.708,18.98z"/>
    <path fill="#666666" d="M96.428,16.184c-0.24-0.368-0.6-0.676-1.08-0.924s-0.992-0.372-1.536-0.372
        c-0.592,0-1.116,0.112-1.572,0.336c-0.456,0.225-0.844,0.524-1.164,0.9c-0.32,0.376-0.564,0.812-0.732,1.308
        s-0.252,1.017-0.252,1.56c0,0.545,0.084,1.064,0.252,1.561s0.412,0.933,0.732,1.308c0.32,0.376,0.712,0.677,1.176,0.9
        c0.464,0.225,0.992,0.336,1.584,0.336c0.576,0,1.1-0.111,1.572-0.336c0.472-0.224,0.86-0.528,1.164-0.912l1.512,1.368
        c-0.48,0.561-1.08,0.996-1.8,1.308c-0.72,0.312-1.536,0.468-2.448,0.468c-0.88,0-1.692-0.144-2.436-0.432
        c-0.744-0.288-1.388-0.691-1.932-1.212c-0.544-0.52-0.972-1.147-1.284-1.884s-0.468-1.561-0.468-2.473
        c0-0.896,0.152-1.711,0.456-2.447c0.304-0.736,0.728-1.368,1.272-1.896c0.543-0.527,1.188-0.936,1.932-1.224
        c0.744-0.288,1.548-0.433,2.412-0.433c0.8,0,1.596,0.16,2.388,0.48s1.419,0.784,1.884,1.392L96.428,16.184z"/>
    <path fill="#666666" d="M103.1,23.24c0,0.417-0.152,0.784-0.456,1.104c-0.304,0.32-0.688,0.479-1.152,0.479
        c-0.448,0-0.828-0.155-1.14-0.468c-0.312-0.312-0.468-0.676-0.468-1.092c0-0.432,0.152-0.804,0.456-1.116
        c0.304-0.312,0.688-0.468,1.152-0.468c0.464,0,0.848,0.152,1.152,0.456C102.947,22.44,103.1,22.808,103.1,23.24z"/>
    <path fill="#666666" d="M116.635,18.969c0,0.88-0.156,1.688-0.468,2.424c-0.312,0.736-0.744,1.372-1.296,1.908
        c-0.552,0.536-1.204,0.952-1.956,1.248c-0.752,0.296-1.56,0.443-2.424,0.443c-0.864,0-1.672-0.147-2.424-0.443
        c-0.752-0.296-1.4-0.712-1.944-1.248c-0.544-0.536-0.972-1.172-1.284-1.908c-0.312-0.735-0.468-1.544-0.468-2.424
        s0.156-1.684,0.468-2.412c0.312-0.728,0.74-1.356,1.284-1.884c0.543-0.528,1.191-0.939,1.944-1.236
        c0.752-0.296,1.56-0.444,2.424-0.444c0.864,0,1.672,0.148,2.424,0.444c0.752,0.297,1.404,0.708,1.956,1.236
        c0.552,0.527,0.984,1.156,1.296,1.884C116.479,17.285,116.635,18.089,116.635,18.969z M114.283,18.98
        c0-0.542-0.084-1.061-0.252-1.556c-0.169-0.494-0.414-0.929-0.734-1.304s-0.718-0.674-1.192-0.897s-1.015-0.335-1.625-0.335
        c-0.61,0-1.152,0.111-1.625,0.335c-0.474,0.224-0.871,0.522-1.191,0.897c-0.321,0.375-0.566,0.81-0.734,1.304
        c-0.169,0.495-0.253,1.014-0.253,1.556c0,0.543,0.084,1.062,0.253,1.556c0.168,0.495,0.413,0.934,0.734,1.316
        c0.321,0.383,0.718,0.686,1.191,0.909c0.473,0.224,1.015,0.335,1.625,0.335c0.61,0,1.151-0.111,1.625-0.335
        s0.871-0.526,1.192-0.909s0.565-0.821,0.734-1.316C114.199,20.042,114.283,19.523,114.283,18.98z"/>
    <path fill="#666666" d="M119.251,14.577c-0.016-0.48-0.04-0.904-0.072-1.272h2.136c0.032,0.288,0.056,0.62,0.072,0.996
        c0.016,0.376,0.024,0.684,0.024,0.924h0.072c0.32-0.672,0.788-1.212,1.404-1.62c0.616-0.408,1.308-0.612,2.076-0.612
        c0.352,0,0.648,0.033,0.888,0.097l-0.096,2.088c-0.32-0.08-0.664-0.12-1.032-0.12c-0.544,0-1.016,0.101-1.416,0.3
        c-0.4,0.2-0.732,0.468-0.996,0.805c-0.264,0.336-0.46,0.724-0.588,1.163c-0.128,0.44-0.192,0.9-0.192,1.381v5.976h-2.256v-8.928
        C119.275,15.449,119.267,15.056,119.251,14.577z"/>
    <path fill="#666666" d="M128.419,26.625c0.496,0.56,1.116,1.008,1.86,1.344c0.744,0.336,1.508,0.504,2.292,0.504
        c0.752,0,1.384-0.108,1.896-0.324s0.924-0.512,1.236-0.888s0.536-0.82,0.672-1.332c0.136-0.513,0.204-1.064,0.204-1.656v-1.464
        h-0.048c-0.416,0.641-0.984,1.128-1.704,1.464c-0.72,0.336-1.488,0.504-2.304,0.504c-0.864,0-1.652-0.151-2.364-0.456
        c-0.712-0.304-1.316-0.72-1.812-1.248c-0.496-0.527-0.88-1.147-1.152-1.859s-0.408-1.477-0.408-2.292
        c0-0.816,0.136-1.584,0.408-2.305c0.272-0.72,0.656-1.348,1.152-1.884c0.496-0.535,1.096-0.96,1.8-1.271
        c0.704-0.312,1.488-0.469,2.352-0.469c0.816,0,1.596,0.177,2.34,0.528c0.744,0.353,1.332,0.888,1.764,1.608h0.048v-1.824h2.184
        v10.8c0,0.832-0.104,1.628-0.312,2.388c-0.208,0.76-0.56,1.433-1.056,2.017s-1.144,1.052-1.944,1.404
        c-0.8,0.352-1.792,0.527-2.976,0.527c-0.992,0-1.988-0.18-2.988-0.54c-1-0.359-1.86-0.868-2.58-1.523L128.419,26.625z
         M129.091,18.873c0,0.527,0.084,1.031,0.253,1.512c0.168,0.479,0.417,0.904,0.746,1.271c0.329,0.369,0.726,0.664,1.192,0.889
        c0.465,0.224,0.995,0.336,1.589,0.336c0.577,0,1.107-0.104,1.589-0.312c0.481-0.207,0.891-0.491,1.228-0.852
        s0.598-0.784,0.782-1.272c0.185-0.487,0.277-1.012,0.277-1.571c0-0.544-0.093-1.057-0.277-1.536
        c-0.185-0.48-0.449-0.904-0.794-1.272c-0.345-0.367-0.755-0.66-1.228-0.876c-0.474-0.216-1-0.324-1.577-0.324
        c-0.594,0-1.124,0.108-1.589,0.324c-0.466,0.216-0.863,0.504-1.192,0.864s-0.578,0.784-0.746,1.271
        C129.175,17.812,129.091,18.329,129.091,18.873z"/>
</g>
<g><a xlink:href="/" pointer-events="all" target="_top"><polygon fill="none" points="0,0 145,0 145,35 0,35 0,0"/></a></g>

</g>


<!-- AnyHashable -->
<g id="node1" class="node">
<g id="a_node1"><a xlink:href="/v3.0/type/AnyHashable/hierarchy/" target="_top">
<polygon fill="#999999" stroke="#999999" points="80.5335,-22 -0.533453,-22 -0.533453,-0 80.5335,-0 80.5335,-22"/>
<text text-anchor="middle" x="40" y="-7.4" font-family="Helvetica,sans-Serif" font-size="12.00" fill="white">AnyHashable</text>
</a>
</g>
</g>
<!-- Bool -->
<g id="node2" class="node">
<g id="a_node2"><a xlink:href="/v3.0/type/Bool/hierarchy/" target="_top">
<polygon fill="#999999" stroke="#999999" points="153,-22 99,-22 99,-0 153,-0 153,-22"/>
<text text-anchor="middle" x="126" y="-7.4" font-family="Helvetica,sans-Serif" font-size="12.00" fill="white">Bool</text>
</a>
</g>
</g>
<!-- Character -->
<g id="node3" class="node">
<g id="a_node3"><a xlink:href="/v3.0/type/Character/hierarchy/" target="_top">
<polygon fill="#999999" stroke="#999999" points="233.017,-22 170.983,-22 170.983,-0 233.017,-0 233.017,-22"/>
<text text-anchor="middle" x="202" y="-7.4" font-family="Helvetica,sans-Serif" font-size="12.00" fill="white">Character</text>
</a>
</g>
</g>
<!-- Double -->
<g id="node4" class="node">
<g id="a_node4"><a xlink:href="/v3.0/type/Double/hierarchy/" target="_top">
<polygon fill="#999999" stroke="#999999" points="305,-22 251,-22 251,-0 305,-0 305,-22"/>
<text text-anchor="middle" x="278" y="-7.4" font-family="Helvetica,sans-Serif" font-size="12.00" fill="white">Double</text>
</a>
</g>
</g>
<!-- Equatable -->
<g id="node5" class="node">
<g id="a_node5"><a xlink:href="/v3.0/protocol/Equatable/hierarchy/" target="_top">
<path fill="#999999" stroke="#999999" d="M690.702,-312C690.702,-312 641.298,-312 641.298,-312 637.632,-312 633.965,-308.333 633.965,-304.667 633.965,-304.667 633.965,-297.333 633.965,-297.333 633.965,-293.667 637.632,-290 641.298,-290 641.298,-290 690.702,-290 690.702,-290 694.368,-290 698.035,-293.667 698.035,-297.333 698.035,-297.333 698.035,-304.667 698.035,-304.667 698.035,-308.333 694.368,-312 690.702,-312"/>
<text text-anchor="middle" x="666" y="-297.4" font-family="Helvetica,sans-Serif" font-size="12.00" fill="white">Equatable</text>
</a>
</g>
</g>
<!-- Hashable -->
<g id="node8" class="node">
<g id="a_node8"><a xlink:href="/v3.0/protocol/Hashable/" target="_top">
<path fill="#ee543d" stroke="#ee543d" d="M688.694,-254C688.694,-254 643.306,-254 643.306,-254 639.639,-254 635.973,-250.333 635.973,-246.667 635.973,-246.667 635.973,-239.333 635.973,-239.333 635.973,-235.667 639.639,-232 643.306,-232 643.306,-232 688.694,-232 688.694,-232 692.361,-232 696.027,-235.667 696.027,-239.333 696.027,-239.333 696.027,-246.667 696.027,-246.667 696.027,-250.333 692.361,-254 688.694,-254"/>
<text text-anchor="middle" x="666" y="-239.4" font-family="Helvetica,sans-Serif" font-size="12.00" fill="white">Hashable</text>
</a>
</g>
</g>
<!-- Equatable&#45;&gt;Hashable -->
<g id="edge34" class="edge">
<path fill="none" stroke="#cccccc" d="M666,-289.988C666,-282.91 666,-273.171 666,-264.478"/>
<polygon fill="#cccccc" stroke="#cccccc" points="669.5,-264.304 666,-254.304 662.5,-264.304 669.5,-264.304"/>
</g>
<!-- Float -->
<g id="node6" class="node">
<g id="a_node6"><a xlink:href="/v3.0/type/Float/hierarchy/" target="_top">
<polygon fill="#999999" stroke="#999999" points="377,-22 323,-22 323,-0 377,-0 377,-22"/>
<text text-anchor="middle" x="350" y="-7.4" font-family="Helvetica,sans-Serif" font-size="12.00" fill="white">Float</text>
</a>
</g>
</g>
<!-- Float80 -->
<g id="node7" class="node">
<g id="a_node7"><a xlink:href="/v3.0/type/Float80/hierarchy/" target="_top">
<polygon fill="#999999" stroke="#999999" points="449,-22 395,-22 395,-0 449,-0 449,-22"/>
<text text-anchor="middle" x="422" y="-7.4" font-family="Helvetica,sans-Serif" font-size="12.00" fill="white">Float80</text>
</a>
</g>
</g>
<!-- Hashable&#45;&gt;AnyHashable -->
<g id="edge1" class="edge">
<path fill="none" stroke="#cccccc" d="M635.833,-239.097C588.33,-233.937 493.614,-221.25 417,-196 277.804,-150.124 124.493,-62.6765 65.2675,-27.361"/>
<polygon fill="#cccccc" stroke="#cccccc" points="66.9628,-24.2966 56.5867,-22.155 63.3626,-30.2998 66.9628,-24.2966"/>
</g>
<!-- Hashable&#45;&gt;Bool -->
<g id="edge2" class="edge">
<path fill="none" stroke="#cccccc" d="M635.73,-237.418C596.596,-230.929 526.737,-217.411 470,-196 343.308,-148.191 204.685,-62.8286 150.042,-27.7315"/>
<polygon fill="#cccccc" stroke="#cccccc" points="151.72,-24.6482 141.421,-22.1619 147.921,-30.5281 151.72,-24.6482"/>
</g>
<!-- Hashable&#45;&gt;Character -->
<g id="edge3" class="edge">
<path fill="none" stroke="#cccccc" d="M635.726,-234.643C605.495,-226.81 558.039,-213.181 519,-196 403.068,-144.978 275.773,-62.0598 224.873,-27.6919"/>
<polygon fill="#cccccc" stroke="#cccccc" points="226.79,-24.763 216.55,-22.0439 222.859,-30.5552 226.79,-24.763"/>
</g>
<!-- Hashable&#45;&gt;Double -->
<g id="edge4" class="edge">
<path fill="none" stroke="#cccccc" d="M638.748,-231.955C616.527,-223.397 584.584,-210.249 558,-196 457.066,-141.901 345.778,-62.1884 299.756,-28.2537"/>
<polygon fill="#cccccc" stroke="#cccccc" points="301.563,-25.237 291.444,-22.0982 297.397,-30.8624 301.563,-25.237"/>
</g>
<!-- Hashable&#45;&gt;Float -->
<g id="edge5" class="edge">
<path fill="none" stroke="#cccccc" d="M648.66,-231.85C633.474,-222.814 610.936,-209.042 592,-196 507.187,-137.586 411.075,-61.3252 370.159,-28.3576"/>
<polygon fill="#cccccc" stroke="#cccccc" points="372.268,-25.5623 362.29,-22.0018 367.87,-31.008 372.268,-25.5623"/>
</g>
<!-- Hashable&#45;&gt;Float80 -->
<g id="edge6" class="edge">
<path fill="none" stroke="#cccccc" d="M655.201,-231.82C617.014,-195.824 488.082,-74.2909 440.147,-29.1061"/>
<polygon fill="#cccccc" stroke="#cccccc" points="442.352,-26.3744 432.674,-22.062 437.551,-31.4682 442.352,-26.3744"/>
</g>
<!-- ObjectIdentifier -->
<g id="node15" class="node">
<g id="a_node15"><a xlink:href="/v3.0/type/ObjectIdentifier/hierarchy/" target="_top">
<polygon fill="#999999" stroke="#999999" points="557.031,-22 466.969,-22 466.969,-0 557.031,-0 557.031,-22"/>
<text text-anchor="middle" x="512" y="-7.4" font-family="Helvetica,sans-Serif" font-size="12.00" fill="white">ObjectIdentifier</text>
</a>
</g>
</g>
<!-- Hashable&#45;&gt;ObjectIdentifier -->
<g id="edge7" class="edge">
<path fill="none" stroke="#cccccc" d="M659.184,-231.82C635.331,-196.196 555.383,-76.7927 524.408,-30.5307"/>
<polygon fill="#cccccc" stroke="#cccccc" points="527.209,-28.4241 518.737,-22.062 521.393,-32.3187 527.209,-28.4241"/>
</g>
<!-- OpaquePointer -->
<g id="node16" class="node">
<g id="a_node16"><a xlink:href="/v3.0/type/OpaquePointer/hierarchy/" target="_top">
<polygon fill="#999999" stroke="#999999" points="666.044,-22 575.956,-22 575.956,-0 666.044,-0 666.044,-22"/>
<text text-anchor="middle" x="621" y="-7.4" font-family="Helvetica,sans-Serif" font-size="12.00" fill="white">OpaquePointer</text>
</a>
</g>
</g>
<!-- Hashable&#45;&gt;OpaquePointer -->
<g id="edge8" class="edge">
<path fill="none" stroke="#cccccc" d="M664.008,-231.82C657.111,-196.568 634.163,-79.2764 624.914,-32.0032"/>
<polygon fill="#cccccc" stroke="#cccccc" points="628.324,-31.2039 622.969,-22.062 621.454,-32.548 628.324,-31.2039"/>
</g>
<!-- Set -->
<g id="node17" class="node">
<g id="a_node17"><a xlink:href="/v3.0/type/Set/hierarchy/" target="_top">
<polygon fill="#999999" stroke="#999999" points="738,-22 684,-22 684,-0 738,-0 738,-22"/>
<text text-anchor="middle" x="711" y="-7.4" font-family="Helvetica,sans-Serif" font-size="12.00" fill="white">Set</text>
</a>
</g>
</g>
<!-- Hashable&#45;&gt;Set -->
<g id="edge9" class="edge">
<path fill="none" stroke="#cccccc" d="M667.992,-231.82C674.889,-196.568 697.837,-79.2764 707.086,-32.0032"/>
<polygon fill="#cccccc" stroke="#cccccc" points="710.546,-32.548 709.031,-22.062 703.676,-31.2039 710.546,-32.548"/>
</g>
<!-- String -->
<g id="node19" class="node">
<g id="a_node19"><a xlink:href="/v3.0/type/String/hierarchy/" target="_top">
<polygon fill="#999999" stroke="#999999" points="810,-22 756,-22 756,-0 810,-0 810,-22"/>
<text text-anchor="middle" x="783" y="-7.4" font-family="Helvetica,sans-Serif" font-size="12.00" fill="white">String</text>
</a>
</g>
</g>
<!-- Hashable&#45;&gt;String -->
<g id="edge10" class="edge">
<path fill="none" stroke="#cccccc" d="M671.946,-231.858C677.324,-222.596 685.39,-208.486 692,-196 723.43,-136.629 757.913,-64.9301 773.912,-31.2478"/>
<polygon fill="#cccccc" stroke="#cccccc" points="777.141,-32.6065 778.26,-22.0709 770.815,-29.6092 777.141,-32.6065"/>
</g>
<!-- UnicodeScalar -->
<g id="node25" class="node">
<g id="a_node25"><a xlink:href="/v3.0/type/UnicodeScalar/hierarchy/" target="_top">
<polygon fill="#999999" stroke="#999999" points="916.031,-22 827.969,-22 827.969,-0 916.031,-0 916.031,-22"/>
<text text-anchor="middle" x="872" y="-7.4" font-family="Helvetica,sans-Serif" font-size="12.00" fill="white">UnicodeScalar</text>
</a>
</g>
</g>
<!-- Hashable&#45;&gt;UnicodeScalar -->
<g id="edge11" class="edge">
<path fill="none" stroke="#cccccc" d="M676.439,-231.969C685.9,-222.782 700.137,-208.719 712,-196 767.13,-136.89 829.029,-63.5966 856.932,-30.1597"/>
<polygon fill="#cccccc" stroke="#cccccc" points="859.859,-32.1135 863.568,-22.1891 854.48,-27.6343 859.859,-32.1135"/>
</g>
<!-- UnsafeMutablePointer -->
<g id="node26" class="node">
<g id="a_node26"><a xlink:href="/v3.0/type/UnsafeMutablePointer/hierarchy/" target="_top">
<polygon fill="#999999" stroke="#999999" points="1062.05,-22 933.949,-22 933.949,-0 1062.05,-0 1062.05,-22"/>
<text text-anchor="middle" x="998" y="-7.4" font-family="Helvetica,sans-Serif" font-size="12.00" fill="white">UnsafeMutablePointer</text>
</a>
</g>
</g>
<!-- Hashable&#45;&gt;UnsafeMutablePointer -->
<g id="edge12" class="edge">
<path fill="none" stroke="#cccccc" d="M681.661,-231.906C695.908,-222.676 717.477,-208.586 736,-196 825.649,-135.085 930.74,-60.2107 975.732,-27.9869"/>
<polygon fill="#cccccc" stroke="#cccccc" points="977.818,-30.798 983.907,-22.1276 973.74,-25.1085 977.818,-30.798"/>
</g>
<!-- UnsafeMutableRawPointer -->
<g id="node27" class="node">
<g id="a_node27"><a xlink:href="/v3.0/type/UnsafeMutableRawPointer/hierarchy/" target="_top">
<polygon fill="#999999" stroke="#999999" points="1233.06,-22 1080.94,-22 1080.94,-0 1233.06,-0 1233.06,-22"/>
<text text-anchor="middle" x="1157" y="-7.4" font-family="Helvetica,sans-Serif" font-size="12.00" fill="white">UnsafeMutableRawPointer</text>
</a>
</g>
</g>
<!-- Hashable&#45;&gt;UnsafeMutableRawPointer -->
<g id="edge13" class="edge">
<path fill="none" stroke="#cccccc" d="M688.267,-231.824C708.55,-222.539 739.318,-208.415 766,-196 900.574,-133.385 1060.67,-57.655 1126.47,-26.4788"/>
<polygon fill="#cccccc" stroke="#cccccc" points="1128.3,-29.4831 1135.84,-22.0375 1125.3,-23.1575 1128.3,-29.4831"/>
</g>
<!-- UnsafePointer -->
<g id="node28" class="node">
<g id="a_node28"><a xlink:href="/v3.0/type/UnsafePointer/hierarchy/" target="_top">
<polygon fill="#999999" stroke="#999999" points="1337.03,-22 1250.97,-22 1250.97,-0 1337.03,-0 1337.03,-22"/>
<text text-anchor="middle" x="1294" y="-7.4" font-family="Helvetica,sans-Serif" font-size="12.00" fill="white">UnsafePointer</text>
</a>
</g>
</g>
<!-- Hashable&#45;&gt;UnsafePointer -->
<g id="edge14" class="edge">
<path fill="none" stroke="#cccccc" d="M696.113,-232.016C723.529,-222.86 765.087,-208.817 801,-196 973.039,-134.6 1177.08,-56.8659 1258.19,-25.7695"/>
<polygon fill="#cccccc" stroke="#cccccc" points="1259.83,-28.8903 1267.91,-22.0404 1257.32,-22.3548 1259.83,-28.8903"/>
</g>
<!-- UnsafeRawPointer -->
<g id="node29" class="node">
<g id="a_node29"><a xlink:href="/v3.0/type/UnsafeRawPointer/hierarchy/" target="_top">
<polygon fill="#999999" stroke="#999999" points="1465.04,-22 1354.96,-22 1354.96,-0 1465.04,-0 1465.04,-22"/>
<text text-anchor="middle" x="1410" y="-7.4" font-family="Helvetica,sans-Serif" font-size="12.00" fill="white">UnsafeRawPointer</text>
</a>
</g>
</g>
<!-- Hashable&#45;&gt;UnsafeRawPointer -->
<g id="edge15" class="edge">
<path fill="none" stroke="#cccccc" d="M696.246,-234.846C731.965,-226.255 793.088,-211.107 845,-196 1045.02,-137.794 1281.03,-56.9298 1371.8,-25.3676"/>
<polygon fill="#cccccc" stroke="#cccccc" points="1373.09,-28.6233 1381.39,-22.0297 1370.79,-22.0126 1373.09,-28.6233"/>
</g>
<!-- _Integer -->
<g id="node32" class="node">
<g id="a_node32"><a xlink:href="/v3.0/protocol/_Integer/hierarchy/" target="_top">
<path fill="#999999" stroke="#999999" d="M1735.69,-196C1735.69,-196 1696.31,-196 1696.31,-196 1692.64,-196 1688.98,-192.333 1688.98,-188.667 1688.98,-188.667 1688.98,-181.333 1688.98,-181.333 1688.98,-177.667 1692.64,-174 1696.31,-174 1696.31,-174 1735.69,-174 1735.69,-174 1739.36,-174 1743.02,-177.667 1743.02,-181.333 1743.02,-181.333 1743.02,-188.667 1743.02,-188.667 1743.02,-192.333 1739.36,-196 1735.69,-196"/>
<text text-anchor="middle" x="1716" y="-181.4" font-family="Helvetica,sans-Serif" font-size="12.00" fill="white">_Integer</text>
</a>
</g>
</g>
<!-- Hashable&#45;&gt;_Integer -->
<g id="edge16" class="edge">
<path fill="none" stroke="#cccccc" d="M696.292,-240.384C846.656,-232.365 1512.23,-196.868 1678.34,-188.009"/>
<polygon fill="#cccccc" stroke="#cccccc" points="1678.75,-191.492 1688.55,-187.464 1678.37,-184.502 1678.75,-191.492"/>
</g>
<!-- Int -->
<g id="node9" class="node">
<g id="a_node9"><a xlink:href="/v3.0/type/Int/hierarchy/" target="_top">
<polygon fill="#999999" stroke="#999999" points="1537,-22 1483,-22 1483,-0 1537,-0 1537,-22"/>
<text text-anchor="middle" x="1510" y="-7.4" font-family="Helvetica,sans-Serif" font-size="12.00" fill="white">Int</text>
</a>
</g>
</g>
<!-- Int16 -->
<g id="node10" class="node">
<g id="a_node10"><a xlink:href="/v3.0/type/Int16/hierarchy/" target="_top">
<polygon fill="#999999" stroke="#999999" points="1609,-22 1555,-22 1555,-0 1609,-0 1609,-22"/>
<text text-anchor="middle" x="1582" y="-7.4" font-family="Helvetica,sans-Serif" font-size="12.00" fill="white">Int16</text>
</a>
</g>
</g>
<!-- Int32 -->
<g id="node11" class="node">
<g id="a_node11"><a xlink:href="/v3.0/type/Int32/hierarchy/" target="_top">
<polygon fill="#999999" stroke="#999999" points="1681,-22 1627,-22 1627,-0 1681,-0 1681,-22"/>
<text text-anchor="middle" x="1654" y="-7.4" font-family="Helvetica,sans-Serif" font-size="12.00" fill="white">Int32</text>
</a>
</g>
</g>
<!-- Int64 -->
<g id="node12" class="node">
<g id="a_node12"><a xlink:href="/v3.0/type/Int64/hierarchy/" target="_top">
<polygon fill="#999999" stroke="#999999" points="1753,-22 1699,-22 1699,-0 1753,-0 1753,-22"/>
<text text-anchor="middle" x="1726" y="-7.4" font-family="Helvetica,sans-Serif" font-size="12.00" fill="white">Int64</text>
</a>
</g>
</g>
<!-- Int8 -->
<g id="node13" class="node">
<g id="a_node13"><a xlink:href="/v3.0/type/Int8/hierarchy/" target="_top">
<polygon fill="#999999" stroke="#999999" points="1825,-22 1771,-22 1771,-0 1825,-0 1825,-22"/>
<text text-anchor="middle" x="1798" y="-7.4" font-family="Helvetica,sans-Serif" font-size="12.00" fill="white">Int8</text>
</a>
</g>
</g>
<!-- Integer -->
<g id="node14" class="node">
<g id="a_node14"><a xlink:href="/v3.0/protocol/Integer/hierarchy/" target="_top">
<path fill="#999999" stroke="#999999" d="M1781.67,-138C1781.67,-138 1742.33,-138 1742.33,-138 1738.67,-138 1735,-134.333 1735,-130.667 1735,-130.667 1735,-123.333 1735,-123.333 1735,-119.667 1738.67,-116 1742.33,-116 1742.33,-116 1781.67,-116 1781.67,-116 1785.33,-116 1789,-119.667 1789,-123.333 1789,-123.333 1789,-130.667 1789,-130.667 1789,-134.333 1785.33,-138 1781.67,-138"/>
<text text-anchor="middle" x="1762" y="-123.4" font-family="Helvetica,sans-Serif" font-size="12.00" fill="white">Integer</text>
</a>
</g>
</g>
<!-- SignedInteger -->
<g id="node18" class="node">
<g id="a_node18"><a xlink:href="/v3.0/protocol/SignedInteger/hierarchy/" target="_top">
<path fill="#999999" stroke="#999999" d="M1705.71,-80C1705.71,-80 1636.29,-80 1636.29,-80 1632.62,-80 1628.96,-76.3333 1628.96,-72.6667 1628.96,-72.6667 1628.96,-65.3333 1628.96,-65.3333 1628.96,-61.6667 1632.62,-58 1636.29,-58 1636.29,-58 1705.71,-58 1705.71,-58 1709.38,-58 1713.04,-61.6667 1713.04,-65.3333 1713.04,-65.3333 1713.04,-72.6667 1713.04,-72.6667 1713.04,-76.3333 1709.38,-80 1705.71,-80"/>
<text text-anchor="middle" x="1671" y="-65.4" font-family="Helvetica,sans-Serif" font-size="12.00" fill="white">SignedInteger</text>
</a>
</g>
</g>
<!-- Integer&#45;&gt;SignedInteger -->
<g id="edge20" class="edge">
<path fill="none" stroke="#cccccc" d="M1745.73,-115.988C1731.97,-107.52 1712.02,-95.2452 1696.2,-85.5067"/>
<polygon fill="#cccccc" stroke="#cccccc" points="1697.79,-82.374 1687.43,-80.1138 1694.12,-88.3356 1697.79,-82.374"/>
</g>
<!-- UnsignedInteger -->
<g id="node30" class="node">
<g id="a_node30"><a xlink:href="/v3.0/protocol/UnsignedInteger/hierarchy/" target="_top">
<path fill="#999999" stroke="#999999" d="M1983.71,-80C1983.71,-80 1900.29,-80 1900.29,-80 1896.62,-80 1892.95,-76.3333 1892.95,-72.6667 1892.95,-72.6667 1892.95,-65.3333 1892.95,-65.3333 1892.95,-61.6667 1896.62,-58 1900.29,-58 1900.29,-58 1983.71,-58 1983.71,-58 1987.38,-58 1991.05,-61.6667 1991.05,-65.3333 1991.05,-65.3333 1991.05,-72.6667 1991.05,-72.6667 1991.05,-76.3333 1987.38,-80 1983.71,-80"/>
<text text-anchor="middle" x="1942" y="-65.4" font-family="Helvetica,sans-Serif" font-size="12.00" fill="white">UnsignedInteger</text>
</a>
</g>
</g>
<!-- Integer&#45;&gt;UnsignedInteger -->
<g id="edge21" class="edge">
<path fill="none" stroke="#cccccc" d="M1789.34,-117.495C1818.79,-108.333 1866.01,-93.6421 1900.14,-83.0234"/>
<polygon fill="#cccccc" stroke="#cccccc" points="1901.33,-86.3199 1909.83,-80.0071 1899.25,-79.6359 1901.33,-86.3199"/>
</g>
<!-- SignedInteger&#45;&gt;Int -->
<g id="edge22" class="edge">
<path fill="none" stroke="#cccccc" d="M1642.22,-57.9883C1615.6,-48.7296 1575.9,-34.9202 1546.95,-24.8507"/>
<polygon fill="#cccccc" stroke="#cccccc" points="1547.79,-21.4381 1537.19,-21.4586 1545.49,-28.0496 1547.79,-21.4381"/>
</g>
<!-- SignedInteger&#45;&gt;Int16 -->
<g id="edge23" class="edge">
<path fill="none" stroke="#cccccc" d="M1655.09,-57.9883C1641.63,-49.5201 1622.12,-37.2452 1606.64,-27.5067"/>
<polygon fill="#cccccc" stroke="#cccccc" points="1608.4,-24.4771 1598.07,-22.1138 1604.67,-30.4018 1608.4,-24.4771"/>
</g>
<!-- SignedInteger&#45;&gt;Int32 -->
<g id="edge24" class="edge">
<path fill="none" stroke="#cccccc" d="M1667.96,-57.9883C1665.76,-50.7525 1662.72,-40.7373 1660.04,-31.9"/>
<polygon fill="#cccccc" stroke="#cccccc" points="1663.38,-30.856 1657.13,-22.3039 1656.68,-32.8894 1663.38,-30.856"/>
</g>
<!-- SignedInteger&#45;&gt;Int64 -->
<g id="edge25" class="edge">
<path fill="none" stroke="#cccccc" d="M1680.83,-57.9883C1688.56,-50.1233 1699.51,-38.9745 1708.69,-29.6239"/>
<polygon fill="#cccccc" stroke="#cccccc" points="1711.37,-31.8909 1715.88,-22.3039 1706.38,-26.9859 1711.37,-31.8909"/>
</g>
<!-- SignedInteger&#45;&gt;Int8 -->
<g id="edge26" class="edge">
<path fill="none" stroke="#cccccc" d="M1693.71,-57.9883C1713.81,-49.1244 1743.37,-36.0897 1765.89,-26.1587"/>
<polygon fill="#cccccc" stroke="#cccccc" points="1767.33,-29.351 1775.06,-22.1138 1764.5,-22.946 1767.33,-29.351"/>
</g>
<!-- UInt -->
<g id="node20" class="node">
<g id="a_node20"><a xlink:href="/v3.0/type/UInt/hierarchy/" target="_top">
<polygon fill="#999999" stroke="#999999" points="1897,-22 1843,-22 1843,-0 1897,-0 1897,-22"/>
<text text-anchor="middle" x="1870" y="-7.4" font-family="Helvetica,sans-Serif" font-size="12.00" fill="white">UInt</text>
</a>
</g>
</g>
<!-- UInt16 -->
<g id="node21" class="node">
<g id="a_node21"><a xlink:href="/v3.0/type/UInt16/hierarchy/" target="_top">
<polygon fill="#999999" stroke="#999999" points="1969,-22 1915,-22 1915,-0 1969,-0 1969,-22"/>
<text text-anchor="middle" x="1942" y="-7.4" font-family="Helvetica,sans-Serif" font-size="12.00" fill="white">UInt16</text>
</a>
</g>
</g>
<!-- UInt32 -->
<g id="node22" class="node">
<g id="a_node22"><a xlink:href="/v3.0/type/UInt32/hierarchy/" target="_top">
<polygon fill="#999999" stroke="#999999" points="2041,-22 1987,-22 1987,-0 2041,-0 2041,-22"/>
<text text-anchor="middle" x="2014" y="-7.4" font-family="Helvetica,sans-Serif" font-size="12.00" fill="white">UInt32</text>
</a>
</g>
</g>
<!-- UInt64 -->
<g id="node23" class="node">
<g id="a_node23"><a xlink:href="/v3.0/type/UInt64/hierarchy/" target="_top">
<polygon fill="#999999" stroke="#999999" points="2113,-22 2059,-22 2059,-0 2113,-0 2113,-22"/>
<text text-anchor="middle" x="2086" y="-7.4" font-family="Helvetica,sans-Serif" font-size="12.00" fill="white">UInt64</text>
</a>
</g>
</g>
<!-- UInt8 -->
<g id="node24" class="node">
<g id="a_node24"><a xlink:href="/v3.0/type/UInt8/hierarchy/" target="_top">
<polygon fill="#999999" stroke="#999999" points="2185,-22 2131,-22 2131,-0 2185,-0 2185,-22"/>
<text text-anchor="middle" x="2158" y="-7.4" font-family="Helvetica,sans-Serif" font-size="12.00" fill="white">UInt8</text>
</a>
</g>
</g>
<!-- UnsignedInteger&#45;&gt;UInt -->
<g id="edge27" class="edge">
<path fill="none" stroke="#cccccc" d="M1929.13,-57.9883C1918.61,-49.8087 1903.53,-38.0773 1891.23,-28.5108"/>
<polygon fill="#cccccc" stroke="#cccccc" points="1893.29,-25.6806 1883.25,-22.3039 1888.99,-31.2061 1893.29,-25.6806"/>
</g>
<!-- UnsignedInteger&#45;&gt;UInt16 -->
<g id="edge28" class="edge">
<path fill="none" stroke="#cccccc" d="M1942,-57.9883C1942,-50.9098 1942,-41.1714 1942,-32.4779"/>
<polygon fill="#cccccc" stroke="#cccccc" points="1945.5,-32.3038 1942,-22.3039 1938.5,-32.3039 1945.5,-32.3038"/>
</g>
<!-- UnsignedInteger&#45;&gt;UInt32 -->
<g id="edge29" class="edge">
<path fill="none" stroke="#cccccc" d="M1954.87,-57.9883C1965.39,-49.8087 1980.47,-38.0773 1992.77,-28.5108"/>
<polygon fill="#cccccc" stroke="#cccccc" points="1995.01,-31.2061 2000.75,-22.3039 1990.71,-25.6806 1995.01,-31.2061"/>
</g>
<!-- UnsignedInteger&#45;&gt;UInt64 -->
<g id="edge30" class="edge">
<path fill="none" stroke="#cccccc" d="M1967.74,-57.9883C1990.84,-49.0057 2024.95,-35.7398 2050.61,-25.7614"/>
<polygon fill="#cccccc" stroke="#cccccc" points="2051.94,-29.0004 2059.99,-22.1138 2049.4,-22.4763 2051.94,-29.0004"/>
</g>
<!-- UnsignedInteger&#45;&gt;UInt8 -->
<g id="edge31" class="edge">
<path fill="none" stroke="#cccccc" d="M1982.45,-57.9168C2016.84,-49.2898 2067.76,-36.3793 2120.94,-22.2477"/>
<polygon fill="#cccccc" stroke="#cccccc" points="2122.13,-25.5525 2130.89,-19.5955 2120.33,-18.7885 2122.13,-25.5525"/>
</g>
<!-- _DisallowMixedSignArithmetic -->
<g id="node31" class="node">
<g id="a_node31"><a xlink:href="/v3.0/protocol/_DisallowMixedSignArithmetic/hierarchy/" target="_top">
<path fill="#999999" stroke="#999999" d="M2002.71,-138C2002.71,-138 1847.29,-138 1847.29,-138 1843.62,-138 1839.96,-134.333 1839.96,-130.667 1839.96,-130.667 1839.96,-123.333 1839.96,-123.333 1839.96,-119.667 1843.62,-116 1847.29,-116 1847.29,-116 2002.71,-116 2002.71,-116 2006.38,-116 2010.04,-119.667 2010.04,-123.333 2010.04,-123.333 2010.04,-130.667 2010.04,-130.667 2010.04,-134.333 2006.38,-138 2002.71,-138"/>
<text text-anchor="middle" x="1925" y="-123.4" font-family="Helvetica,sans-Serif" font-size="12.00" fill="white">_DisallowMixedSignArithmetic</text>
</a>
</g>
</g>
<!-- _DisallowMixedSignArithmetic&#45;&gt;UnsignedInteger -->
<g id="edge32" class="edge">
<path fill="none" stroke="#cccccc" d="M1928.04,-115.988C1930.24,-108.752 1933.28,-98.7373 1935.96,-89.9"/>
<polygon fill="#cccccc" stroke="#cccccc" points="1939.32,-90.8894 1938.87,-80.3039 1932.62,-88.856 1939.32,-90.8894"/>
</g>
<!-- _Integer&#45;&gt;Integer -->
<g id="edge17" class="edge">
<path fill="none" stroke="#cccccc" d="M1724.22,-173.988C1730.56,-166.281 1739.48,-155.419 1747.06,-146.187"/>
<polygon fill="#cccccc" stroke="#cccccc" points="1749.89,-148.253 1753.54,-138.304 1744.48,-143.81 1749.89,-148.253"/>
</g>
<!-- _Integer&#45;&gt;_DisallowMixedSignArithmetic -->
<g id="edge18" class="edge">
<path fill="none" stroke="#cccccc" d="M1743.32,-176.679C1777.36,-167.558 1836.09,-151.824 1877.54,-140.716"/>
<polygon fill="#cccccc" stroke="#cccccc" points="1878.67,-144.038 1887.42,-138.069 1876.85,-137.277 1878.67,-144.038"/>
</g>
<!-- _SignedInteger -->
<g id="node33" class="node">
<g id="a_node33"><a xlink:href="/v3.0/protocol/_SignedInteger/hierarchy/" target="_top">
<path fill="#999999" stroke="#999999" d="M1709.21,-138C1709.21,-138 1632.79,-138 1632.79,-138 1629.12,-138 1625.45,-134.333 1625.45,-130.667 1625.45,-130.667 1625.45,-123.333 1625.45,-123.333 1625.45,-119.667 1629.12,-116 1632.79,-116 1632.79,-116 1709.21,-116 1709.21,-116 1712.88,-116 1716.55,-119.667 1716.55,-123.333 1716.55,-123.333 1716.55,-130.667 1716.55,-130.667 1716.55,-134.333 1712.88,-138 1709.21,-138"/>
<text text-anchor="middle" x="1671" y="-123.4" font-family="Helvetica,sans-Serif" font-size="12.00" fill="white">_SignedInteger</text>
</a>
</g>
</g>
<!-- _Integer&#45;&gt;_SignedInteger -->
<g id="edge19" class="edge">
<path fill="none" stroke="#cccccc" d="M1707.95,-173.988C1701.76,-166.281 1693.03,-155.419 1685.61,-146.187"/>
<polygon fill="#cccccc" stroke="#cccccc" points="1688.27,-143.907 1679.28,-138.304 1682.82,-148.291 1688.27,-143.907"/>
</g>
<!-- _SignedInteger&#45;&gt;SignedInteger -->
<g id="edge33" class="edge">
<path fill="none" stroke="#cccccc" d="M1671,-115.988C1671,-108.91 1671,-99.1714 1671,-90.4779"/>
<polygon fill="#cccccc" stroke="#cccccc" points="1674.5,-90.3038 1671,-80.3039 1667.5,-90.3039 1674.5,-90.3038"/>
</g>
</g>
</svg>
