<?xml version="1.0" encoding="UTF-8" standalone="no"?>
<!DOCTYPE svg PUBLIC "-//W3C//DTD SVG 1.1//EN"
 "http://www.w3.org/Graphics/SVG/1.1/DTD/svg11.dtd">
<!-- Generated by graphviz version 2.36.0 (20140111.2315)
 -->
<!-- Title: MapSequenceGenerator&lt;Base : GeneratorType, T&gt; &#45; Type Hierarchy &#45; SwiftDoc.org Pages: 1 -->
<svg width="300pt" height="311pt"
 viewBox="0.00 0.00 300.40 311.20" xmlns="http://www.w3.org/2000/svg" xmlns:xlink="http://www.w3.org/1999/xlink">
<g id="graph0" class="graph" transform="scale(1 1) rotate(0) translate(7.2 253.6)">
<title>MapSequenceGenerator&lt;Base : GeneratorType, T&gt; &#45; Type Hierarchy &#45; SwiftDoc.org</title>
<polygon fill="white" stroke="none" points="-7.2,57.6 -7.2,-253.6 293.2,-253.6 293.2,57.6 -7.2,57.6"/>
<!-- GeneratorType -->
<g id="node1" class="node"><title>GeneratorType</title>
<g id="a_node1"><a xlink:href="/protocol/GeneratorType/" xlink:title="GeneratorType">
<path fill="#999999" stroke="#999999" d="M126.705,-80C126.705,-80 51.2952,-80 51.2952,-80 47.6286,-80 43.9619,-76.3333 43.9619,-72.6667 43.9619,-72.6667 43.9619,-65.3333 43.9619,-65.3333 43.9619,-61.6667 47.6286,-58 51.2952,-58 51.2952,-58 126.705,-58 126.705,-58 130.371,-58 134.038,-61.6667 134.038,-65.3333 134.038,-65.3333 134.038,-72.6667 134.038,-72.6667 134.038,-76.3333 130.371,-80 126.705,-80"/>
<text text-anchor="middle" x="89" y="-65.4" font-family="Helvetica,sans-Serif" font-size="12.00" fill="white">GeneratorType</text>
</a>
</g>
</g>
<!-- MapSequenceGenerator&lt;Base : GeneratorType, T&gt; -->
<g id="node2" class="node"><title>MapSequenceGenerator&lt;Base : GeneratorType, T&gt;</title>
<g id="a_node2"><a xlink:href="/type/MapSequenceGenerator/" xlink:title="MapSequenceGenerator&lt;Base : GeneratorType, T&gt;">
<polygon fill="#ee543d" stroke="#ee543d" points="285.971,-22 0.029339,-22 0.029339,-0 285.971,-0 285.971,-22"/>
<text text-anchor="middle" x="143" y="-7.4" font-family="Helvetica,sans-Serif" font-size="12.00" fill="white">MapSequenceGenerator&lt;Base : GeneratorType, T&gt;</text>
</a>
</g>
</g>
<!-- GeneratorType&#45;&gt;MapSequenceGenerator&lt;Base : GeneratorType, T&gt; -->
<g id="edge1" class="edge"><title>GeneratorType&#45;&gt;MapSequenceGenerator&lt;Base : GeneratorType, T&gt;</title>
<path fill="none" stroke="#cccccc" d="M98.6541,-57.9883C106.238,-50.1233 116.989,-38.9745 126.006,-29.6239"/>
<polygon fill="#cccccc" stroke="#cccccc" points="128.642,-31.9318 133.064,-22.3039 123.603,-27.0729 128.642,-31.9318"/>
</g>
<!-- SequenceType -->
<g id="node3" class="node"><title>SequenceType</title>
<g id="a_node3"><a xlink:href="/protocol/SequenceType/" xlink:title="SequenceType">
<path fill="#999999" stroke="#999999" d="M234.718,-80C234.718,-80 159.282,-80 159.282,-80 155.615,-80 151.949,-76.3333 151.949,-72.6667 151.949,-72.6667 151.949,-65.3333 151.949,-65.3333 151.949,-61.6667 155.615,-58 159.282,-58 159.282,-58 234.718,-58 234.718,-58 238.385,-58 242.051,-61.6667 242.051,-65.3333 242.051,-65.3333 242.051,-72.6667 242.051,-72.6667 242.051,-76.3333 238.385,-80 234.718,-80"/>
<text text-anchor="middle" x="197" y="-65.4" font-family="Helvetica,sans-Serif" font-size="12.00" fill="white">SequenceType</text>
</a>
</g>
</g>
<!-- SequenceType&#45;&gt;MapSequenceGenerator&lt;Base : GeneratorType, T&gt; -->
<g id="edge2" class="edge"><title>SequenceType&#45;&gt;MapSequenceGenerator&lt;Base : GeneratorType, T&gt;</title>
<path fill="none" stroke="#cccccc" d="M187.346,-57.9883C179.762,-50.1233 169.011,-38.9745 159.994,-29.6239"/>
<polygon fill="#cccccc" stroke="#cccccc" points="162.397,-27.0729 152.936,-22.3039 157.358,-31.9318 162.397,-27.0729"/>
</g>
<!-- _SequenceType -->
<g id="node4" class="node"><title>_SequenceType</title>
<g id="a_node4"><a xlink:href="/protocol/_SequenceType/" xlink:title="_SequenceType">
<path fill="#999999" stroke="#999999" d="M237.724,-196C237.724,-196 156.276,-196 156.276,-196 152.609,-196 148.943,-192.333 148.943,-188.667 148.943,-188.667 148.943,-181.333 148.943,-181.333 148.943,-177.667 152.609,-174 156.276,-174 156.276,-174 237.724,-174 237.724,-174 241.391,-174 245.057,-177.667 245.057,-181.333 245.057,-181.333 245.057,-188.667 245.057,-188.667 245.057,-192.333 241.391,-196 237.724,-196"/>
<text text-anchor="middle" x="197" y="-181.4" font-family="Helvetica,sans-Serif" font-size="12.00" fill="white">_SequenceType</text>
</a>
</g>
</g>
<!-- _Sequence_Type -->
<g id="node5" class="node"><title>_Sequence_Type</title>
<g id="a_node5"><a xlink:href="/protocol/_Sequence_Type/" xlink:title="_Sequence_Type">
<path fill="#999999" stroke="#999999" d="M241.228,-138C241.228,-138 152.772,-138 152.772,-138 149.105,-138 145.439,-134.333 145.439,-130.667 145.439,-130.667 145.439,-123.333 145.439,-123.333 145.439,-119.667 149.105,-116 152.772,-116 152.772,-116 241.228,-116 241.228,-116 244.895,-116 248.561,-119.667 248.561,-123.333 248.561,-123.333 248.561,-130.667 248.561,-130.667 248.561,-134.333 244.895,-138 241.228,-138"/>
<text text-anchor="middle" x="197" y="-123.4" font-family="Helvetica,sans-Serif" font-size="12.00" fill="white">_Sequence_Type</text>
</a>
</g>
</g>
<!-- _SequenceType&#45;&gt;_Sequence_Type -->
<g id="edge4" class="edge"><title>_SequenceType&#45;&gt;_Sequence_Type</title>
<path fill="none" stroke="#cccccc" d="M197,-173.988C197,-166.91 197,-157.171 197,-148.478"/>
<polygon fill="#cccccc" stroke="#cccccc" points="200.5,-148.304 197,-138.304 193.5,-148.304 200.5,-148.304"/>
</g>
<!-- _Sequence_Type&#45;&gt;SequenceType -->
<g id="edge3" class="edge"><title>_Sequence_Type&#45;&gt;SequenceType</title>
<path fill="none" stroke="#cccccc" d="M197,-115.988C197,-108.91 197,-99.1714 197,-90.4779"/>
<polygon fill="#cccccc" stroke="#cccccc" points="200.5,-90.3038 197,-80.3039 193.5,-90.3039 200.5,-90.3038"/>
</g>
</g>
</svg>
