<?xml version="1.0" encoding="UTF-8" standalone="no"?>
<!DOCTYPE svg PUBLIC "-//W3C//DTD SVG 1.1//EN"
 "http://www.w3.org/Graphics/SVG/1.1/DTD/svg11.dtd">
<!-- Generated by graphviz version 2.36.0 (20140111.2315)
 -->
<!-- Title: UInt64 &#45; Type Hierarchy &#45; SwiftDoc.org Pages: 1 -->
<svg width="1191pt" height="543pt"
 viewBox="0.00 0.00 1191.40 543.20" xmlns="http://www.w3.org/2000/svg" xmlns:xlink="http://www.w3.org/1999/xlink">
<g id="graph0" class="graph" transform="scale(1 1) rotate(0) translate(7.2 485.6)">
<g transform="translate(0 -485.6)">
<g>
    <path fill="#666666" d="M13.846,10.832c-0.336-0.464-0.792-0.844-1.368-1.14s-1.224-0.444-1.944-0.444
        c-0.384,0-0.772,0.052-1.164,0.156C8.977,9.509,8.622,9.677,8.301,9.908c-0.32,0.232-0.58,0.52-0.78,0.864
        c-0.2,0.344-0.3,0.756-0.3,1.236c0,0.464,0.092,0.852,0.276,1.164c0.184,0.312,0.432,0.576,0.744,0.792s0.68,0.4,1.104,0.552
        c0.423,0.152,0.876,0.309,1.356,0.468c0.576,0.177,1.16,0.376,1.752,0.601c0.592,0.224,1.128,0.52,1.608,0.888
        s0.872,0.828,1.176,1.38s0.456,1.252,0.456,2.101c0,0.88-0.164,1.644-0.492,2.292c-0.328,0.647-0.765,1.184-1.308,1.607
        c-0.544,0.424-1.172,0.74-1.884,0.948s-1.444,0.312-2.196,0.312c-1.072,0-2.108-0.208-3.108-0.624
        c-1-0.415-1.828-1.031-2.484-1.848l1.848-1.56c0.4,0.592,0.936,1.071,1.608,1.439c0.672,0.368,1.399,0.552,2.184,0.552
        c0.4,0,0.8-0.056,1.2-0.168c0.4-0.111,0.764-0.288,1.092-0.527c0.328-0.24,0.596-0.54,0.804-0.9
        c0.208-0.36,0.312-0.796,0.312-1.308s-0.108-0.94-0.324-1.284c-0.216-0.344-0.508-0.636-0.876-0.876s-0.796-0.444-1.284-0.612
        c-0.488-0.168-1.004-0.34-1.548-0.516c-0.544-0.16-1.08-0.356-1.608-0.588c-0.528-0.232-1-0.528-1.416-0.889
        c-0.416-0.359-0.752-0.804-1.008-1.332c-0.256-0.527-0.384-1.184-0.384-1.968c0-0.848,0.172-1.576,0.516-2.184
        c0.344-0.608,0.792-1.112,1.344-1.512c0.552-0.4,1.176-0.692,1.872-0.876c0.696-0.184,1.396-0.276,2.1-0.276
        c0.992,0,1.92,0.176,2.784,0.528c0.864,0.352,1.56,0.824,2.088,1.416L13.846,10.832z"/>
    <path fill="#666666" d="M18.813,13.304l2.568,8.688h0.048l2.712-8.688h2.376l2.76,8.688h0.048l2.568-8.688h2.376L30.501,24.68
        h-2.352l-2.808-8.544h-0.048l-2.784,8.544h-2.352l-3.792-11.376H18.813z"/>
    <path fill="#666666" d="M38.685,9.2c0,0.416-0.147,0.76-0.44,1.032c-0.294,0.272-0.647,0.408-1.06,0.408s-0.762-0.14-1.047-0.42
        c-0.286-0.28-0.429-0.62-0.429-1.02c0-0.416,0.143-0.764,0.429-1.044c0.286-0.28,0.635-0.42,1.047-0.42s0.766,0.14,1.06,0.42
        C38.538,8.437,38.685,8.784,38.685,9.2z M38.325,24.68h-2.256V13.304h2.256V24.68z"/>
    <path fill="#666666" d="M47.613,15.152h-2.64v9.528h-2.256v-9.528h-2.256v-1.848h2.256v-2.376c0-0.672,0.076-1.292,0.228-1.86
        c0.152-0.568,0.4-1.06,0.744-1.476c0.344-0.416,0.784-0.744,1.32-0.984c0.536-0.24,1.188-0.36,1.956-0.36
        c0.544,0,1.016,0.056,1.416,0.168l-0.264,1.944c-0.176-0.048-0.352-0.088-0.528-0.12c-0.176-0.032-0.376-0.048-0.6-0.048
        c-0.432,0-0.78,0.076-1.044,0.228c-0.264,0.152-0.468,0.356-0.612,0.612s-0.24,0.548-0.288,0.876
        c-0.048,0.328-0.072,0.668-0.072,1.02v2.376h2.64V15.152z"/>
    <path fill="#666666" d="M54.909,15.152h-3.024v5.91c0,0.687,0.128,1.177,0.384,1.472c0.256,0.295,0.664,0.442,1.224,0.442
        c0.208,0,0.432-0.021,0.672-0.065c0.24-0.044,0.456-0.11,0.648-0.198l0.072,1.848c-0.272,0.096-0.572,0.172-0.9,0.229
        c-0.328,0.056-0.668,0.084-1.02,0.084c-1.072,0-1.892-0.296-2.46-0.889c-0.568-0.592-0.852-1.479-0.852-2.664v-6.168h-2.184
        v-1.848h2.184V10.04h2.232v3.264h3.024V15.152z"/>
    <path fill="#666666" d="M57.356,7.688h5.832c1.088,0,2.176,0.16,3.264,0.48c1.088,0.32,2.072,0.824,2.952,1.512
        s1.592,1.568,2.136,2.64c0.544,1.072,0.816,2.36,0.816,3.864c0,1.456-0.272,2.716-0.816,3.78s-1.256,1.943-2.136,2.64
        s-1.864,1.216-2.952,1.561c-1.088,0.344-2.176,0.516-3.264,0.516h-5.832V7.688z M59.732,22.593h2.976
        c1.024,0,1.972-0.145,2.844-0.432c0.872-0.288,1.624-0.704,2.256-1.248c0.632-0.544,1.124-1.216,1.476-2.017
        c0.352-0.8,0.528-1.704,0.528-2.712c0-1.056-0.176-1.983-0.528-2.784c-0.353-0.8-0.844-1.468-1.476-2.004
        c-0.632-0.536-1.384-0.944-2.256-1.224s-1.82-0.42-2.844-0.42h-2.976V22.593z"/>
    <path fill="#666666" d="M86.06,18.969c0,0.88-0.156,1.688-0.468,2.424c-0.312,0.736-0.744,1.372-1.296,1.908
        c-0.552,0.536-1.204,0.952-1.956,1.248c-0.752,0.296-1.56,0.443-2.424,0.443c-0.864,0-1.672-0.147-2.424-0.443
        c-0.752-0.296-1.4-0.712-1.944-1.248c-0.544-0.536-0.972-1.172-1.284-1.908c-0.312-0.735-0.468-1.544-0.468-2.424
        s0.156-1.684,0.468-2.412c0.312-0.728,0.74-1.356,1.284-1.884c0.543-0.528,1.191-0.939,1.944-1.236
        c0.752-0.296,1.56-0.444,2.424-0.444c0.864,0,1.672,0.148,2.424,0.444c0.752,0.297,1.404,0.708,1.956,1.236
        c0.552,0.527,0.984,1.156,1.296,1.884C85.904,17.285,86.06,18.089,86.06,18.969z M83.708,18.98c0-0.542-0.084-1.061-0.252-1.556
        c-0.169-0.494-0.414-0.929-0.734-1.304s-0.718-0.674-1.192-0.897s-1.015-0.335-1.625-0.335c-0.61,0-1.152,0.111-1.625,0.335
        c-0.474,0.224-0.871,0.522-1.191,0.897c-0.321,0.375-0.566,0.81-0.734,1.304C76.184,17.92,76.1,18.438,76.1,18.98
        c0,0.543,0.084,1.062,0.253,1.556c0.168,0.495,0.413,0.934,0.734,1.316c0.321,0.383,0.718,0.686,1.191,0.909
        c0.473,0.224,1.015,0.335,1.625,0.335c0.61,0,1.151-0.111,1.625-0.335s0.871-0.526,1.192-0.909s0.565-0.821,0.734-1.316
        C83.624,20.042,83.708,19.523,83.708,18.98z"/>
    <path fill="#666666" d="M96.428,16.184c-0.24-0.368-0.6-0.676-1.08-0.924s-0.992-0.372-1.536-0.372
        c-0.592,0-1.116,0.112-1.572,0.336c-0.456,0.225-0.844,0.524-1.164,0.9c-0.32,0.376-0.564,0.812-0.732,1.308
        s-0.252,1.017-0.252,1.56c0,0.545,0.084,1.064,0.252,1.561s0.412,0.933,0.732,1.308c0.32,0.376,0.712,0.677,1.176,0.9
        c0.464,0.225,0.992,0.336,1.584,0.336c0.576,0,1.1-0.111,1.572-0.336c0.472-0.224,0.86-0.528,1.164-0.912l1.512,1.368
        c-0.48,0.561-1.08,0.996-1.8,1.308c-0.72,0.312-1.536,0.468-2.448,0.468c-0.88,0-1.692-0.144-2.436-0.432
        c-0.744-0.288-1.388-0.691-1.932-1.212c-0.544-0.52-0.972-1.147-1.284-1.884s-0.468-1.561-0.468-2.473
        c0-0.896,0.152-1.711,0.456-2.447c0.304-0.736,0.728-1.368,1.272-1.896c0.543-0.527,1.188-0.936,1.932-1.224
        c0.744-0.288,1.548-0.433,2.412-0.433c0.8,0,1.596,0.16,2.388,0.48s1.419,0.784,1.884,1.392L96.428,16.184z"/>
    <path fill="#666666" d="M103.1,23.24c0,0.417-0.152,0.784-0.456,1.104c-0.304,0.32-0.688,0.479-1.152,0.479
        c-0.448,0-0.828-0.155-1.14-0.468c-0.312-0.312-0.468-0.676-0.468-1.092c0-0.432,0.152-0.804,0.456-1.116
        c0.304-0.312,0.688-0.468,1.152-0.468c0.464,0,0.848,0.152,1.152,0.456C102.947,22.44,103.1,22.808,103.1,23.24z"/>
    <path fill="#666666" d="M116.635,18.969c0,0.88-0.156,1.688-0.468,2.424c-0.312,0.736-0.744,1.372-1.296,1.908
        c-0.552,0.536-1.204,0.952-1.956,1.248c-0.752,0.296-1.56,0.443-2.424,0.443c-0.864,0-1.672-0.147-2.424-0.443
        c-0.752-0.296-1.4-0.712-1.944-1.248c-0.544-0.536-0.972-1.172-1.284-1.908c-0.312-0.735-0.468-1.544-0.468-2.424
        s0.156-1.684,0.468-2.412c0.312-0.728,0.74-1.356,1.284-1.884c0.543-0.528,1.191-0.939,1.944-1.236
        c0.752-0.296,1.56-0.444,2.424-0.444c0.864,0,1.672,0.148,2.424,0.444c0.752,0.297,1.404,0.708,1.956,1.236
        c0.552,0.527,0.984,1.156,1.296,1.884C116.479,17.285,116.635,18.089,116.635,18.969z M114.283,18.98
        c0-0.542-0.084-1.061-0.252-1.556c-0.169-0.494-0.414-0.929-0.734-1.304s-0.718-0.674-1.192-0.897s-1.015-0.335-1.625-0.335
        c-0.61,0-1.152,0.111-1.625,0.335c-0.474,0.224-0.871,0.522-1.191,0.897c-0.321,0.375-0.566,0.81-0.734,1.304
        c-0.169,0.495-0.253,1.014-0.253,1.556c0,0.543,0.084,1.062,0.253,1.556c0.168,0.495,0.413,0.934,0.734,1.316
        c0.321,0.383,0.718,0.686,1.191,0.909c0.473,0.224,1.015,0.335,1.625,0.335c0.61,0,1.151-0.111,1.625-0.335
        s0.871-0.526,1.192-0.909s0.565-0.821,0.734-1.316C114.199,20.042,114.283,19.523,114.283,18.98z"/>
    <path fill="#666666" d="M119.251,14.577c-0.016-0.48-0.04-0.904-0.072-1.272h2.136c0.032,0.288,0.056,0.62,0.072,0.996
        c0.016,0.376,0.024,0.684,0.024,0.924h0.072c0.32-0.672,0.788-1.212,1.404-1.62c0.616-0.408,1.308-0.612,2.076-0.612
        c0.352,0,0.648,0.033,0.888,0.097l-0.096,2.088c-0.32-0.08-0.664-0.12-1.032-0.12c-0.544,0-1.016,0.101-1.416,0.3
        c-0.4,0.2-0.732,0.468-0.996,0.805c-0.264,0.336-0.46,0.724-0.588,1.163c-0.128,0.44-0.192,0.9-0.192,1.381v5.976h-2.256v-8.928
        C119.275,15.449,119.267,15.056,119.251,14.577z"/>
    <path fill="#666666" d="M128.419,26.625c0.496,0.56,1.116,1.008,1.86,1.344c0.744,0.336,1.508,0.504,2.292,0.504
        c0.752,0,1.384-0.108,1.896-0.324s0.924-0.512,1.236-0.888s0.536-0.82,0.672-1.332c0.136-0.513,0.204-1.064,0.204-1.656v-1.464
        h-0.048c-0.416,0.641-0.984,1.128-1.704,1.464c-0.72,0.336-1.488,0.504-2.304,0.504c-0.864,0-1.652-0.151-2.364-0.456
        c-0.712-0.304-1.316-0.72-1.812-1.248c-0.496-0.527-0.88-1.147-1.152-1.859s-0.408-1.477-0.408-2.292
        c0-0.816,0.136-1.584,0.408-2.305c0.272-0.72,0.656-1.348,1.152-1.884c0.496-0.535,1.096-0.96,1.8-1.271
        c0.704-0.312,1.488-0.469,2.352-0.469c0.816,0,1.596,0.177,2.34,0.528c0.744,0.353,1.332,0.888,1.764,1.608h0.048v-1.824h2.184
        v10.8c0,0.832-0.104,1.628-0.312,2.388c-0.208,0.76-0.56,1.433-1.056,2.017s-1.144,1.052-1.944,1.404
        c-0.8,0.352-1.792,0.527-2.976,0.527c-0.992,0-1.988-0.18-2.988-0.54c-1-0.359-1.86-0.868-2.58-1.523L128.419,26.625z
         M129.091,18.873c0,0.527,0.084,1.031,0.253,1.512c0.168,0.479,0.417,0.904,0.746,1.271c0.329,0.369,0.726,0.664,1.192,0.889
        c0.465,0.224,0.995,0.336,1.589,0.336c0.577,0,1.107-0.104,1.589-0.312c0.481-0.207,0.891-0.491,1.228-0.852
        s0.598-0.784,0.782-1.272c0.185-0.487,0.277-1.012,0.277-1.571c0-0.544-0.093-1.057-0.277-1.536
        c-0.185-0.48-0.449-0.904-0.794-1.272c-0.345-0.367-0.755-0.66-1.228-0.876c-0.474-0.216-1-0.324-1.577-0.324
        c-0.594,0-1.124,0.108-1.589,0.324c-0.466,0.216-0.863,0.504-1.192,0.864s-0.578,0.784-0.746,1.271
        C129.175,17.812,129.091,18.329,129.091,18.873z"/>
</g>
<g><a xlink:href="/" pointer-events="all" target="_top"><polygon fill="none" points="0,0 145,0 145,35 0,35 0,0"/></a></g>

</g>


<!-- BidirectionalIndexType -->
<g id="node1" class="node">
<g id="a_node1"><a xlink:href="/swift-2/protocol/BidirectionalIndexType/" target="_top">
<path fill="#999999" stroke="#999999" d="M1103.73,-254C1103.73,-254 988.275,-254 988.275,-254 984.608,-254 980.941,-250.333 980.941,-246.667 980.941,-246.667 980.941,-239.333 980.941,-239.333 980.941,-235.667 984.608,-232 988.275,-232 988.275,-232 1103.73,-232 1103.73,-232 1107.39,-232 1111.06,-235.667 1111.06,-239.333 1111.06,-239.333 1111.06,-246.667 1111.06,-246.667 1111.06,-250.333 1107.39,-254 1103.73,-254"/>
<text text-anchor="middle" x="1046" y="-239.4" font-family="Helvetica,sans-Serif" font-size="12.00" fill="white">BidirectionalIndexType</text>
</a>
</g>
</g>
<!-- RandomAccessIndexType -->
<g id="node12" class="node">
<g id="a_node12"><a xlink:href="/swift-2/protocol/RandomAccessIndexType/" target="_top">
<path fill="#999999" stroke="#999999" d="M1002.23,-196C1002.23,-196 867.775,-196 867.775,-196 864.108,-196 860.441,-192.333 860.441,-188.667 860.441,-188.667 860.441,-181.333 860.441,-181.333 860.441,-177.667 864.108,-174 867.775,-174 867.775,-174 1002.23,-174 1002.23,-174 1005.89,-174 1009.56,-177.667 1009.56,-181.333 1009.56,-181.333 1009.56,-188.667 1009.56,-188.667 1009.56,-192.333 1005.89,-196 1002.23,-196"/>
<text text-anchor="middle" x="935" y="-181.4" font-family="Helvetica,sans-Serif" font-size="12.00" fill="white">RandomAccessIndexType</text>
</a>
</g>
</g>
<!-- BidirectionalIndexType&#45;&gt;RandomAccessIndexType -->
<g id="edge38" class="edge">
<path fill="none" stroke="#cccccc" d="M1026.16,-231.988C1008.9,-223.283 983.669,-210.554 964.125,-200.694"/>
<polygon fill="#cccccc" stroke="#cccccc" points="965.552,-197.493 955.047,-196.114 962.399,-203.743 965.552,-197.493"/>
</g>
<!-- UInt64 -->
<g id="node15" class="node">
<g id="a_node15"><a xlink:href="/swift-2/type/UInt64/" target="_top">
<polygon fill="#ee543d" stroke="#ee543d" points="619,-22 565,-22 565,-0 619,-0 619,-22"/>
<text text-anchor="middle" x="592" y="-7.4" font-family="Helvetica,sans-Serif" font-size="12.00" fill="white">UInt64</text>
</a>
</g>
</g>
<!-- BidirectionalIndexType&#45;&gt;UInt64 -->
<g id="edge13" class="edge">
<path fill="none" stroke="#cccccc" d="M1050.69,-231.578C1063.83,-200.577 1097.25,-108.003 1052,-58 1023.79,-26.8245 733.538,-15.8651 629.146,-12.9145"/>
<polygon fill="#cccccc" stroke="#cccccc" points="629.158,-9.41363 619.066,-12.6384 628.966,-16.411 629.158,-9.41363"/>
</g>
<!-- BitwiseOperationsType -->
<g id="node2" class="node">
<g id="a_node2"><a xlink:href="/swift-2/protocol/BitwiseOperationsType/" target="_top">
<path fill="#999999" stroke="#999999" d="M294.715,-254C294.715,-254 177.285,-254 177.285,-254 173.618,-254 169.952,-250.333 169.952,-246.667 169.952,-246.667 169.952,-239.333 169.952,-239.333 169.952,-235.667 173.618,-232 177.285,-232 177.285,-232 294.715,-232 294.715,-232 298.382,-232 302.048,-235.667 302.048,-239.333 302.048,-239.333 302.048,-246.667 302.048,-246.667 302.048,-250.333 298.382,-254 294.715,-254"/>
<text text-anchor="middle" x="236" y="-239.4" font-family="Helvetica,sans-Serif" font-size="12.00" fill="white">BitwiseOperationsType</text>
</a>
</g>
</g>
<!-- BitwiseOperationsType&#45;&gt;UInt64 -->
<g id="edge18" class="edge">
<path fill="none" stroke="#cccccc" d="M241.52,-231.653C258.947,-200.055 316.16,-104.166 392,-58 442.781,-27.0877 512.332,-16.9299 554.611,-13.6039"/>
<polygon fill="#cccccc" stroke="#cccccc" points="555.012,-17.0845 564.744,-12.897 554.524,-10.1015 555.012,-17.0845"/>
</g>
<!-- _IntegerType -->
<g id="node20" class="node">
<g id="a_node20"><a xlink:href="/swift-2/protocol/_IntegerType/" target="_top">
<path fill="#999999" stroke="#999999" d="M515.708,-196C515.708,-196 450.292,-196 450.292,-196 446.626,-196 442.959,-192.333 442.959,-188.667 442.959,-188.667 442.959,-181.333 442.959,-181.333 442.959,-177.667 446.626,-174 450.292,-174 450.292,-174 515.708,-174 515.708,-174 519.374,-174 523.041,-177.667 523.041,-181.333 523.041,-181.333 523.041,-188.667 523.041,-188.667 523.041,-192.333 519.374,-196 515.708,-196"/>
<text text-anchor="middle" x="483" y="-181.4" font-family="Helvetica,sans-Serif" font-size="12.00" fill="white">_IntegerType</text>
</a>
</g>
</g>
<!-- BitwiseOperationsType&#45;&gt;_IntegerType -->
<g id="edge29" class="edge">
<path fill="none" stroke="#cccccc" d="M280.159,-231.988C323.117,-222.249 388.287,-207.473 433.101,-197.313"/>
<polygon fill="#cccccc" stroke="#cccccc" points="433.922,-200.716 442.901,-195.091 432.375,-193.889 433.922,-200.716"/>
</g>
<!-- CVarArgType -->
<g id="node3" class="node">
<g id="a_node3"><a xlink:href="/swift-2/protocol/CVarArgType/" target="_top">
<path fill="#999999" stroke="#999999" d="M171.029,-138C171.029,-138 104.971,-138 104.971,-138 101.304,-138 97.6376,-134.333 97.6376,-130.667 97.6376,-130.667 97.6376,-123.333 97.6376,-123.333 97.6376,-119.667 101.304,-116 104.971,-116 104.971,-116 171.029,-116 171.029,-116 174.696,-116 178.362,-119.667 178.362,-123.333 178.362,-123.333 178.362,-130.667 178.362,-130.667 178.362,-134.333 174.696,-138 171.029,-138"/>
<text text-anchor="middle" x="138" y="-123.4" font-family="Helvetica,sans-Serif" font-size="12.00" fill="white">CVarArgType</text>
</a>
</g>
</g>
<!-- CVarArgType&#45;&gt;UInt64 -->
<g id="edge20" class="edge">
<path fill="none" stroke="#cccccc" d="M123.484,-115.789C105.275,-101.783 78.3431,-76.2697 95,-58 125.828,-24.1871 444.109,-14.8562 554.523,-12.6263"/>
<polygon fill="#cccccc" stroke="#cccccc" points="554.914,-16.1195 564.844,-12.4266 554.778,-9.12086 554.914,-16.1195"/>
</g>
<!-- _CVarArgAlignedType -->
<g id="node17" class="node">
<g id="a_node17"><a xlink:href="/swift-2/protocol/_CVarArgAlignedType/" target="_top">
<path fill="#999999" stroke="#999999" d="M224.059,-80C224.059,-80 111.941,-80 111.941,-80 108.274,-80 104.608,-76.3333 104.608,-72.6667 104.608,-72.6667 104.608,-65.3333 104.608,-65.3333 104.608,-61.6667 108.274,-58 111.941,-58 111.941,-58 224.059,-58 224.059,-58 227.726,-58 231.392,-61.6667 231.392,-65.3333 231.392,-65.3333 231.392,-72.6667 231.392,-72.6667 231.392,-76.3333 227.726,-80 224.059,-80"/>
<text text-anchor="middle" x="168" y="-65.4" font-family="Helvetica,sans-Serif" font-size="12.00" fill="white">_CVarArgAlignedType</text>
</a>
</g>
</g>
<!-- CVarArgType&#45;&gt;_CVarArgAlignedType -->
<g id="edge44" class="edge">
<path fill="none" stroke="#cccccc" d="M143.363,-115.988C147.324,-108.595 152.839,-98.3005 157.647,-89.3253"/>
<polygon fill="#cccccc" stroke="#cccccc" points="160.843,-90.7715 162.48,-80.3039 154.673,-87.4659 160.843,-90.7715"/>
</g>
<!-- Comparable -->
<g id="node4" class="node">
<g id="a_node4"><a xlink:href="/swift-2/protocol/Comparable/" target="_top">
<path fill="#999999" stroke="#999999" d="M601.191,-312C601.191,-312 540.809,-312 540.809,-312 537.142,-312 533.475,-308.333 533.475,-304.667 533.475,-304.667 533.475,-297.333 533.475,-297.333 533.475,-293.667 537.142,-290 540.809,-290 540.809,-290 601.191,-290 601.191,-290 604.858,-290 608.525,-293.667 608.525,-297.333 608.525,-297.333 608.525,-304.667 608.525,-304.667 608.525,-308.333 604.858,-312 601.191,-312"/>
<text text-anchor="middle" x="571" y="-297.4" font-family="Helvetica,sans-Serif" font-size="12.00" fill="white">Comparable</text>
</a>
</g>
</g>
<!-- IntegerArithmeticType -->
<g id="node9" class="node">
<g id="a_node9"><a xlink:href="/swift-2/protocol/IntegerArithmeticType/" target="_top">
<path fill="#999999" stroke="#999999" d="M638.711,-254C638.711,-254 527.289,-254 527.289,-254 523.623,-254 519.956,-250.333 519.956,-246.667 519.956,-246.667 519.956,-239.333 519.956,-239.333 519.956,-235.667 523.623,-232 527.289,-232 527.289,-232 638.711,-232 638.711,-232 642.377,-232 646.044,-235.667 646.044,-239.333 646.044,-239.333 646.044,-246.667 646.044,-246.667 646.044,-250.333 642.377,-254 638.711,-254"/>
<text text-anchor="middle" x="583" y="-239.4" font-family="Helvetica,sans-Serif" font-size="12.00" fill="white">IntegerArithmeticType</text>
</a>
</g>
</g>
<!-- Comparable&#45;&gt;IntegerArithmeticType -->
<g id="edge33" class="edge">
<path fill="none" stroke="#cccccc" d="M573.145,-289.988C574.679,-282.831 576.795,-272.955 578.674,-264.189"/>
<polygon fill="#cccccc" stroke="#cccccc" points="582.119,-264.815 580.792,-254.304 575.274,-263.349 582.119,-264.815"/>
</g>
<!-- Strideable -->
<g id="node14" class="node">
<g id="a_node14"><a xlink:href="/swift-2/protocol/Strideable/" target="_top">
<path fill="#999999" stroke="#999999" d="M917.693,-254C917.693,-254 868.307,-254 868.307,-254 864.64,-254 860.974,-250.333 860.974,-246.667 860.974,-246.667 860.974,-239.333 860.974,-239.333 860.974,-235.667 864.64,-232 868.307,-232 868.307,-232 917.693,-232 917.693,-232 921.36,-232 925.026,-235.667 925.026,-239.333 925.026,-239.333 925.026,-246.667 925.026,-246.667 925.026,-250.333 921.36,-254 917.693,-254"/>
<text text-anchor="middle" x="893" y="-239.4" font-family="Helvetica,sans-Serif" font-size="12.00" fill="white">Strideable</text>
</a>
</g>
</g>
<!-- Comparable&#45;&gt;Strideable -->
<g id="edge42" class="edge">
<path fill="none" stroke="#cccccc" d="M608.568,-293.466C669.07,-282.944 787.694,-262.314 850.942,-251.315"/>
<polygon fill="#cccccc" stroke="#cccccc" points="851.718,-254.732 860.97,-249.57 850.518,-247.836 851.718,-254.732"/>
</g>
<!-- Comparable&#45;&gt;UInt64 -->
<g id="edge4" class="edge">
<path fill="none" stroke="#cccccc" d="M533.355,-298.583C436.697,-294.56 185.617,-281.533 161,-254 118.258,-206.195 -17.435,-243.542 359,-58 422.953,-26.4781 506.819,-16.5525 554.517,-13.43"/>
<polygon fill="#cccccc" stroke="#cccccc" points="554.917,-16.9126 564.694,-12.8319 554.506,-9.92468 554.917,-16.9126"/>
</g>
<!-- CustomStringConvertible -->
<g id="node5" class="node">
<g id="a_node5"><a xlink:href="/swift-2/protocol/CustomStringConvertible/" target="_top">
<path fill="#999999" stroke="#999999" d="M456.208,-254C456.208,-254 327.792,-254 327.792,-254 324.126,-254 320.459,-250.333 320.459,-246.667 320.459,-246.667 320.459,-239.333 320.459,-239.333 320.459,-235.667 324.126,-232 327.792,-232 327.792,-232 456.208,-232 456.208,-232 459.874,-232 463.541,-235.667 463.541,-239.333 463.541,-239.333 463.541,-246.667 463.541,-246.667 463.541,-250.333 459.874,-254 456.208,-254"/>
<text text-anchor="middle" x="392" y="-239.4" font-family="Helvetica,sans-Serif" font-size="12.00" fill="white">CustomStringConvertible</text>
</a>
</g>
</g>
<!-- CustomStringConvertible&#45;&gt;UInt64 -->
<g id="edge11" class="edge">
<path fill="none" stroke="#cccccc" d="M389.243,-231.65C381.718,-200.852 364.248,-108.786 409,-58 428.017,-36.4185 507.06,-22.7995 554.826,-16.3746"/>
<polygon fill="#cccccc" stroke="#cccccc" points="555.334,-19.838 564.799,-15.0762 554.43,-12.8966 555.334,-19.838"/>
</g>
<!-- CustomStringConvertible&#45;&gt;_IntegerType -->
<g id="edge26" class="edge">
<path fill="none" stroke="#cccccc" d="M408.269,-231.988C422.03,-223.52 441.977,-211.245 457.802,-201.507"/>
<polygon fill="#cccccc" stroke="#cccccc" points="459.883,-204.336 466.565,-196.114 456.214,-198.374 459.883,-204.336"/>
</g>
<!-- Equatable -->
<g id="node6" class="node">
<g id="a_node6"><a xlink:href="/swift-2/protocol/Equatable/" target="_top">
<path fill="#999999" stroke="#999999" d="M360.702,-428C360.702,-428 311.298,-428 311.298,-428 307.632,-428 303.965,-424.333 303.965,-420.667 303.965,-420.667 303.965,-413.333 303.965,-413.333 303.965,-409.667 307.632,-406 311.298,-406 311.298,-406 360.702,-406 360.702,-406 364.368,-406 368.035,-409.667 368.035,-413.333 368.035,-413.333 368.035,-420.667 368.035,-420.667 368.035,-424.333 364.368,-428 360.702,-428"/>
<text text-anchor="middle" x="336" y="-413.4" font-family="Helvetica,sans-Serif" font-size="12.00" fill="white">Equatable</text>
</a>
</g>
</g>
<!-- Equatable&#45;&gt;Comparable -->
<g id="edge34" class="edge">
<path fill="none" stroke="#cccccc" d="M356.855,-405.883C398.663,-385.602 492.848,-339.912 541.169,-316.471"/>
<polygon fill="#cccccc" stroke="#cccccc" points="542.722,-319.608 550.192,-312.094 539.667,-313.31 542.722,-319.608"/>
</g>
<!-- Hashable -->
<g id="node8" class="node">
<g id="a_node8"><a xlink:href="/swift-2/protocol/Hashable/" target="_top">
<path fill="#999999" stroke="#999999" d="M106.694,-254C106.694,-254 61.3059,-254 61.3059,-254 57.6392,-254 53.9725,-250.333 53.9725,-246.667 53.9725,-246.667 53.9725,-239.333 53.9725,-239.333 53.9725,-235.667 57.6392,-232 61.3059,-232 61.3059,-232 106.694,-232 106.694,-232 110.361,-232 114.027,-235.667 114.027,-239.333 114.027,-239.333 114.027,-246.667 114.027,-246.667 114.027,-250.333 110.361,-254 106.694,-254"/>
<text text-anchor="middle" x="84" y="-239.4" font-family="Helvetica,sans-Serif" font-size="12.00" fill="white">Hashable</text>
</a>
</g>
</g>
<!-- Equatable&#45;&gt;Hashable -->
<g id="edge31" class="edge">
<path fill="none" stroke="#cccccc" d="M320.991,-405.756C278.709,-376.897 158.379,-294.767 107.342,-259.932"/>
<polygon fill="#cccccc" stroke="#cccccc" points="109.163,-256.937 98.9304,-254.191 105.217,-262.719 109.163,-256.937"/>
</g>
<!-- Equatable&#45;&gt;UInt64 -->
<g id="edge3" class="edge">
<path fill="none" stroke="#cccccc" d="M303.783,-412.076C219.685,-400.942 0,-365.755 0,-302 0,-302 0,-302 0,-126 0,-82.9439 29.9159,-76.0628 69,-58 155.593,-17.981 450.214,-12.6516 554.799,-12.0387"/>
<polygon fill="#cccccc" stroke="#cccccc" points="554.902,-15.5384 564.885,-11.9911 554.869,-8.53846 554.902,-15.5384"/>
</g>
<!-- _Incrementable -->
<g id="node18" class="node">
<g id="a_node18"><a xlink:href="/swift-2/protocol/_Incrementable/" target="_top">
<path fill="#999999" stroke="#999999" d="M612.705,-370C612.705,-370 535.295,-370 535.295,-370 531.628,-370 527.961,-366.333 527.961,-362.667 527.961,-362.667 527.961,-355.333 527.961,-355.333 527.961,-351.667 531.628,-348 535.295,-348 535.295,-348 612.705,-348 612.705,-348 616.372,-348 620.039,-351.667 620.039,-355.333 620.039,-355.333 620.039,-362.667 620.039,-362.667 620.039,-366.333 616.372,-370 612.705,-370"/>
<text text-anchor="middle" x="574" y="-355.4" font-family="Helvetica,sans-Serif" font-size="12.00" fill="white">_Incrementable</text>
</a>
</g>
</g>
<!-- Equatable&#45;&gt;_Incrementable -->
<g id="edge35" class="edge">
<path fill="none" stroke="#cccccc" d="M368.098,-408.448C407.343,-399.213 474.315,-383.455 521.192,-372.425"/>
<polygon fill="#cccccc" stroke="#cccccc" points="522.234,-375.776 531.167,-370.078 520.631,-368.962 522.234,-375.776"/>
</g>
<!-- ForwardIndexType -->
<g id="node7" class="node">
<g id="a_node7"><a xlink:href="/swift-2/protocol/ForwardIndexType/" target="_top">
<path fill="#999999" stroke="#999999" d="M1093.21,-312C1093.21,-312 998.794,-312 998.794,-312 995.127,-312 991.461,-308.333 991.461,-304.667 991.461,-304.667 991.461,-297.333 991.461,-297.333 991.461,-293.667 995.127,-290 998.794,-290 998.794,-290 1093.21,-290 1093.21,-290 1096.87,-290 1100.54,-293.667 1100.54,-297.333 1100.54,-297.333 1100.54,-304.667 1100.54,-304.667 1100.54,-308.333 1096.87,-312 1093.21,-312"/>
<text text-anchor="middle" x="1046" y="-297.4" font-family="Helvetica,sans-Serif" font-size="12.00" fill="white">ForwardIndexType</text>
</a>
</g>
</g>
<!-- ForwardIndexType&#45;&gt;BidirectionalIndexType -->
<g id="edge40" class="edge">
<path fill="none" stroke="#cccccc" d="M1046,-289.988C1046,-282.91 1046,-273.171 1046,-264.478"/>
<polygon fill="#cccccc" stroke="#cccccc" points="1049.5,-264.304 1046,-254.304 1042.5,-264.304 1049.5,-264.304"/>
</g>
<!-- ForwardIndexType&#45;&gt;UInt64 -->
<g id="edge14" class="edge">
<path fill="none" stroke="#cccccc" d="M1071.76,-289.834C1087.84,-282.236 1107.75,-270.337 1120,-254 1138.83,-228.897 1139,-217.38 1139,-186 1139,-186 1139,-186 1139,-126 1139,-83.8832 1110.96,-76.2372 1073,-58 994.662,-20.3677 728.036,-13.5186 629.232,-12.2749"/>
<polygon fill="#cccccc" stroke="#cccccc" points="629.156,-8.77393 619.117,-12.1601 629.077,-15.7735 629.156,-8.77393"/>
</g>
<!-- Hashable&#45;&gt;UInt64 -->
<g id="edge10" class="edge">
<path fill="none" stroke="#cccccc" d="M80.0855,-231.972C68.836,-201.291 40.0585,-107.762 86,-58 117.664,-23.703 442.903,-14.6737 554.588,-12.575"/>
<polygon fill="#cccccc" stroke="#cccccc" points="554.777,-16.0723 564.712,-12.393 554.651,-9.07343 554.777,-16.0723"/>
</g>
<!-- Hashable&#45;&gt;_IntegerType -->
<g id="edge27" class="edge">
<path fill="none" stroke="#cccccc" d="M114.317,-237.745C182.578,-228.165 348.896,-204.822 432.816,-193.043"/>
<polygon fill="#cccccc" stroke="#cccccc" points="433.457,-196.488 442.873,-191.632 432.484,-189.556 433.457,-196.488"/>
</g>
<!-- IntegerArithmeticType&#45;&gt;UInt64 -->
<g id="edge6" class="edge">
<path fill="none" stroke="#cccccc" d="M583.398,-231.82C584.775,-196.642 589.348,-79.7709 591.206,-32.3033"/>
<polygon fill="#cccccc" stroke="#cccccc" points="594.712,-32.1913 591.606,-22.062 587.718,-31.9175 594.712,-32.1913"/>
</g>
<!-- IntegerArithmeticType&#45;&gt;_IntegerType -->
<g id="edge28" class="edge">
<path fill="none" stroke="#cccccc" d="M565.122,-231.988C549.859,-223.441 527.67,-211.015 510.204,-201.234"/>
<polygon fill="#cccccc" stroke="#cccccc" points="511.496,-197.946 501.06,-196.114 508.075,-204.054 511.496,-197.946"/>
</g>
<!-- IntegerLiteralConvertible -->
<g id="node10" class="node">
<g id="a_node10"><a xlink:href="/swift-2/protocol/IntegerLiteralConvertible/" target="_top">
<path fill="#999999" stroke="#999999" d="M797.722,-254C797.722,-254 672.278,-254 672.278,-254 668.611,-254 664.944,-250.333 664.944,-246.667 664.944,-246.667 664.944,-239.333 664.944,-239.333 664.944,-235.667 668.611,-232 672.278,-232 672.278,-232 797.722,-232 797.722,-232 801.389,-232 805.056,-235.667 805.056,-239.333 805.056,-239.333 805.056,-246.667 805.056,-246.667 805.056,-250.333 801.389,-254 797.722,-254"/>
<text text-anchor="middle" x="735" y="-239.4" font-family="Helvetica,sans-Serif" font-size="12.00" fill="white">IntegerLiteralConvertible</text>
</a>
</g>
</g>
<!-- IntegerLiteralConvertible&#45;&gt;UInt64 -->
<g id="edge8" class="edge">
<path fill="none" stroke="#cccccc" d="M727.956,-231.789C715.255,-213.291 687.813,-172.916 666,-138 642.624,-100.582 616.857,-55.8527 602.736,-31.015"/>
<polygon fill="#cccccc" stroke="#cccccc" points="605.737,-29.2124 597.761,-22.239 599.647,-32.6645 605.737,-29.2124"/>
</g>
<!-- IntegerLiteralConvertible&#45;&gt;_IntegerType -->
<g id="edge25" class="edge">
<path fill="none" stroke="#cccccc" d="M689.947,-231.988C645.856,-222.19 578.831,-207.296 533.088,-197.131"/>
<polygon fill="#cccccc" stroke="#cccccc" points="533.614,-193.662 523.093,-194.91 532.096,-200.496 533.614,-193.662"/>
</g>
<!-- IntegerType -->
<g id="node11" class="node">
<g id="a_node11"><a xlink:href="/swift-2/protocol/IntegerType/" target="_top">
<path fill="#999999" stroke="#999999" d="M741.202,-138C741.202,-138 682.798,-138 682.798,-138 679.132,-138 675.465,-134.333 675.465,-130.667 675.465,-130.667 675.465,-123.333 675.465,-123.333 675.465,-119.667 679.132,-116 682.798,-116 682.798,-116 741.202,-116 741.202,-116 744.868,-116 748.535,-119.667 748.535,-123.333 748.535,-123.333 748.535,-130.667 748.535,-130.667 748.535,-134.333 744.868,-138 741.202,-138"/>
<text text-anchor="middle" x="712" y="-123.4" font-family="Helvetica,sans-Serif" font-size="12.00" fill="white">IntegerType</text>
</a>
</g>
</g>
<!-- IntegerType&#45;&gt;UInt64 -->
<g id="edge2" class="edge">
<path fill="none" stroke="#cccccc" d="M721.231,-115.94C732.971,-101.885 750.223,-76.0672 737,-58 712.475,-24.4902 663.377,-14.7907 629.143,-12.2942"/>
<polygon fill="#cccccc" stroke="#cccccc" points="629.218,-8.79311 619.039,-11.7323 628.83,-15.7823 629.218,-8.79311"/>
</g>
<!-- UnsignedIntegerType -->
<g id="node16" class="node">
<g id="a_node16"><a xlink:href="/swift-2/protocol/UnsignedIntegerType/" target="_top">
<path fill="#999999" stroke="#999999" d="M556.728,-80C556.728,-80 447.272,-80 447.272,-80 443.605,-80 439.938,-76.3333 439.938,-72.6667 439.938,-72.6667 439.938,-65.3333 439.938,-65.3333 439.938,-61.6667 443.605,-58 447.272,-58 447.272,-58 556.728,-58 556.728,-58 560.395,-58 564.062,-61.6667 564.062,-65.3333 564.062,-65.3333 564.062,-72.6667 564.062,-72.6667 564.062,-76.3333 560.395,-80 556.728,-80"/>
<text text-anchor="middle" x="502" y="-65.4" font-family="Helvetica,sans-Serif" font-size="12.00" fill="white">UnsignedIntegerType</text>
</a>
</g>
</g>
<!-- IntegerType&#45;&gt;UnsignedIntegerType -->
<g id="edge23" class="edge">
<path fill="none" stroke="#cccccc" d="M675.421,-116.246C640.47,-106.925 587.605,-92.828 549.432,-82.6486"/>
<polygon fill="#cccccc" stroke="#cccccc" points="550.138,-79.2146 539.574,-80.0198 548.335,-85.9783 550.138,-79.2146"/>
</g>
<!-- RandomAccessIndexType&#45;&gt;IntegerType -->
<g id="edge37" class="edge">
<path fill="none" stroke="#cccccc" d="M895.132,-173.988C856.789,-164.36 798.847,-149.809 758.439,-139.662"/>
<polygon fill="#cccccc" stroke="#cccccc" points="759.118,-136.224 748.566,-137.183 757.413,-143.013 759.118,-136.224"/>
</g>
<!-- RandomAccessIndexType&#45;&gt;UInt64 -->
<g id="edge12" class="edge">
<path fill="none" stroke="#cccccc" d="M931.03,-173.792C920.946,-149.329 891.845,-87.2232 846,-58 810.545,-35.3995 690.599,-21.2163 629.073,-15.2535"/>
<polygon fill="#cccccc" stroke="#cccccc" points="629.295,-11.7589 619.01,-14.3011 628.635,-18.7277 629.295,-11.7589"/>
</g>
<!-- Reflectable -->
<g id="node13" class="node">
<g id="a_node13"><a xlink:href="/swift-2/protocol/Reflectable/" target="_top">
<path fill="#999999" stroke="#999999" d="M720.693,-80C720.693,-80 665.307,-80 665.307,-80 661.64,-80 657.974,-76.3333 657.974,-72.6667 657.974,-72.6667 657.974,-65.3333 657.974,-65.3333 657.974,-61.6667 661.64,-58 665.307,-58 665.307,-58 720.693,-58 720.693,-58 724.36,-58 728.026,-61.6667 728.026,-65.3333 728.026,-65.3333 728.026,-72.6667 728.026,-72.6667 728.026,-76.3333 724.36,-80 720.693,-80"/>
<text text-anchor="middle" x="693" y="-65.4" font-family="Helvetica,sans-Serif" font-size="12.00" fill="white">Reflectable</text>
</a>
</g>
</g>
<!-- Reflectable&#45;&gt;UInt64 -->
<g id="edge19" class="edge">
<path fill="none" stroke="#cccccc" d="M674.943,-57.9883C659.385,-49.3619 636.702,-36.785 618.987,-26.9633"/>
<polygon fill="#cccccc" stroke="#cccccc" points="620.684,-23.902 610.241,-22.1138 617.289,-30.0239 620.684,-23.902"/>
</g>
<!-- Strideable&#45;&gt;RandomAccessIndexType -->
<g id="edge39" class="edge">
<path fill="none" stroke="#cccccc" d="M900.509,-231.988C906.231,-224.359 914.27,-213.64 921.147,-204.47"/>
<polygon fill="#cccccc" stroke="#cccccc" points="924.072,-206.404 927.272,-196.304 918.472,-202.204 924.072,-206.404"/>
</g>
<!-- Strideable&#45;&gt;UInt64 -->
<g id="edge16" class="edge">
<path fill="none" stroke="#cccccc" d="M881.136,-231.758C871.759,-223.087 858.967,-209.881 851,-196 819.023,-140.282 855.472,-101.283 808,-58 782.182,-34.4596 683.647,-21.1226 629.019,-15.3921"/>
<polygon fill="#cccccc" stroke="#cccccc" points="629.338,-11.9066 619.036,-14.3782 628.631,-18.8707 629.338,-11.9066"/>
</g>
<!-- UnsignedIntegerType&#45;&gt;UInt64 -->
<g id="edge1" class="edge">
<path fill="none" stroke="#cccccc" d="M518.09,-57.9883C531.7,-49.5201 551.427,-37.2452 567.079,-27.5067"/>
<polygon fill="#cccccc" stroke="#cccccc" points="569.104,-30.3686 575.746,-22.1138 565.406,-24.4252 569.104,-30.3686"/>
</g>
<!-- _CVarArgAlignedType&#45;&gt;UInt64 -->
<g id="edge21" class="edge">
<path fill="none" stroke="#cccccc" d="M231.477,-59.6162C321.094,-47.78 481.871,-26.5454 554.532,-16.9486"/>
<polygon fill="#cccccc" stroke="#cccccc" points="555.139,-20.3989 564.595,-15.6196 554.222,-13.4592 555.139,-20.3989"/>
</g>
<!-- _Incrementable&#45;&gt;ForwardIndexType -->
<g id="edge41" class="edge">
<path fill="none" stroke="#cccccc" d="M620.117,-352.529C704.691,-342.494 884.776,-321.128 981.458,-309.658"/>
<polygon fill="#cccccc" stroke="#cccccc" points="981.883,-313.132 991.401,-308.478 981.058,-306.181 981.883,-313.132"/>
</g>
<!-- _Incrementable&#45;&gt;UInt64 -->
<g id="edge15" class="edge">
<path fill="none" stroke="#cccccc" d="M620.166,-358.045C733.539,-357.523 1022.68,-352.171 1109,-312 1147.75,-293.966 1177,-286.741 1177,-244 1177,-244 1177,-244 1177,-126 1177,-83.2593 1147.72,-76.0915 1109,-58 1023.66,-18.1273 732.889,-12.7006 629.149,-12.051"/>
<polygon fill="#cccccc" stroke="#cccccc" points="629.156,-8.55105 619.139,-11.9997 629.121,-15.551 629.156,-8.55105"/>
</g>
<!-- _Incrementable&#45;&gt;_IntegerType -->
<g id="edge30" class="edge">
<path fill="none" stroke="#cccccc" d="M559.393,-347.846C548.259,-339.415 533.305,-326.491 524,-312 502.357,-278.295 491.188,-232.148 486.257,-206.078"/>
<polygon fill="#cccccc" stroke="#cccccc" points="489.704,-205.466 484.514,-196.229 482.811,-206.686 489.704,-205.466"/>
</g>
<!-- _IntegerArithmeticType -->
<g id="node19" class="node">
<g id="a_node19"><a xlink:href="/swift-2/protocol/_IntegerArithmeticType/" target="_top">
<path fill="#999999" stroke="#999999" d="M814.215,-312C814.215,-312 695.785,-312 695.785,-312 692.118,-312 688.452,-308.333 688.452,-304.667 688.452,-304.667 688.452,-297.333 688.452,-297.333 688.452,-293.667 692.118,-290 695.785,-290 695.785,-290 814.215,-290 814.215,-290 817.882,-290 821.548,-293.667 821.548,-297.333 821.548,-297.333 821.548,-304.667 821.548,-304.667 821.548,-308.333 817.882,-312 814.215,-312"/>
<text text-anchor="middle" x="755" y="-297.4" font-family="Helvetica,sans-Serif" font-size="12.00" fill="white">_IntegerArithmeticType</text>
</a>
</g>
</g>
<!-- _IntegerArithmeticType&#45;&gt;IntegerArithmeticType -->
<g id="edge32" class="edge">
<path fill="none" stroke="#cccccc" d="M724.25,-289.988C696.087,-280.819 654.216,-267.187 623.37,-257.144"/>
<polygon fill="#cccccc" stroke="#cccccc" points="624.366,-253.787 613.773,-254.019 622.199,-260.443 624.366,-253.787"/>
</g>
<!-- _IntegerArithmeticType&#45;&gt;UInt64 -->
<g id="edge7" class="edge">
<path fill="none" stroke="#cccccc" d="M776.037,-289.956C789.604,-282.215 806.135,-270.106 814,-254 829.316,-222.637 840.544,-139.878 754,-58 720.172,-25.9962 665.727,-16.0096 629.415,-13.0319"/>
<polygon fill="#cccccc" stroke="#cccccc" points="629.443,-9.52584 619.229,-12.3405 628.969,-16.5098 629.443,-9.52584"/>
</g>
<!-- _IntegerType&#45;&gt;IntegerType -->
<g id="edge36" class="edge">
<path fill="none" stroke="#cccccc" d="M523.151,-174.181C562.849,-164.474 623.555,-149.628 665.368,-139.403"/>
<polygon fill="#cccccc" stroke="#cccccc" points="666.421,-142.749 675.303,-136.974 664.758,-135.95 666.421,-142.749"/>
</g>
<!-- _IntegerType&#45;&gt;UInt64 -->
<g id="edge5" class="edge">
<path fill="none" stroke="#cccccc" d="M453.433,-173.863C437.197,-166.603 418.481,-155.056 409,-138 397.761,-117.781 413.481,-67.7986 423,-58 457.474,-22.5145 516.393,-13.5542 554.759,-11.7363"/>
<polygon fill="#cccccc" stroke="#cccccc" points="555.119,-15.2264 564.997,-11.3969 554.887,-8.23026 555.119,-15.2264"/>
</g>
<!-- _UnsignedIntegerType -->
<g id="node22" class="node">
<g id="a_node22"><a xlink:href="/swift-2/protocol/_UnsignedIntegerType/" target="_top">
<path fill="#999999" stroke="#999999" d="M540.734,-138C540.734,-138 425.266,-138 425.266,-138 421.599,-138 417.933,-134.333 417.933,-130.667 417.933,-130.667 417.933,-123.333 417.933,-123.333 417.933,-119.667 421.599,-116 425.266,-116 425.266,-116 540.734,-116 540.734,-116 544.401,-116 548.067,-119.667 548.067,-123.333 548.067,-123.333 548.067,-130.667 548.067,-130.667 548.067,-134.333 544.401,-138 540.734,-138"/>
<text text-anchor="middle" x="483" y="-123.4" font-family="Helvetica,sans-Serif" font-size="12.00" fill="white">_UnsignedIntegerType</text>
</a>
</g>
</g>
<!-- _IntegerType&#45;&gt;_UnsignedIntegerType -->
<g id="edge24" class="edge">
<path fill="none" stroke="#cccccc" d="M483,-173.988C483,-166.91 483,-157.171 483,-148.478"/>
<polygon fill="#cccccc" stroke="#cccccc" points="486.5,-148.304 483,-138.304 479.5,-148.304 486.5,-148.304"/>
</g>
<!-- _Strideable -->
<g id="node21" class="node">
<g id="a_node21"><a xlink:href="/swift-2/protocol/_Strideable/" target="_top">
<path fill="#999999" stroke="#999999" d="M942.7,-312C942.7,-312 887.3,-312 887.3,-312 883.634,-312 879.967,-308.333 879.967,-304.667 879.967,-304.667 879.967,-297.333 879.967,-297.333 879.967,-293.667 883.634,-290 887.3,-290 887.3,-290 942.7,-290 942.7,-290 946.366,-290 950.033,-293.667 950.033,-297.333 950.033,-297.333 950.033,-304.667 950.033,-304.667 950.033,-308.333 946.366,-312 942.7,-312"/>
<text text-anchor="middle" x="915" y="-297.4" font-family="Helvetica,sans-Serif" font-size="12.00" fill="white">_Strideable</text>
</a>
</g>
</g>
<!-- _Strideable&#45;&gt;Strideable -->
<g id="edge43" class="edge">
<path fill="none" stroke="#cccccc" d="M911.067,-289.988C908.193,-282.674 904.204,-272.519 900.705,-263.612"/>
<polygon fill="#cccccc" stroke="#cccccc" points="903.962,-262.332 897.048,-254.304 897.447,-264.891 903.962,-262.332"/>
</g>
<!-- _Strideable&#45;&gt;UInt64 -->
<g id="edge17" class="edge">
<path fill="none" stroke="#cccccc" d="M922.51,-289.75C932.877,-275.92 952.51,-250.846 972,-232 990.663,-213.954 1006.63,-219.338 1018,-196 1022.28,-187.21 1022.24,-182.813 1018,-174 948.184,-28.7396 719.786,-12.0764 629.353,-11.3322"/>
<polygon fill="#cccccc" stroke="#cccccc" points="629.285,-7.83212 619.278,-11.3116 629.271,-14.8321 629.285,-7.83212"/>
</g>
<!-- _UnsignedIntegerType&#45;&gt;UInt64 -->
<g id="edge9" class="edge">
<path fill="none" stroke="#cccccc" d="M465.619,-115.894C445.047,-102.64 415.428,-78.6449 431,-58 445.879,-38.2751 511.983,-24.4636 554.725,-17.4092"/>
<polygon fill="#cccccc" stroke="#cccccc" points="555.457,-20.8367 564.779,-15.8025 554.352,-13.9244 555.457,-20.8367"/>
</g>
<!-- _UnsignedIntegerType&#45;&gt;UnsignedIntegerType -->
<g id="edge22" class="edge">
<path fill="none" stroke="#cccccc" d="M486.397,-115.988C488.852,-108.752 492.25,-98.7373 495.248,-89.9"/>
<polygon fill="#cccccc" stroke="#cccccc" points="498.605,-90.8982 498.504,-80.3039 491.977,-88.6491 498.605,-90.8982"/>
</g>
</g>
</svg>
