<?xml version="1.0" encoding="UTF-8" standalone="no"?>
<!DOCTYPE svg PUBLIC "-//W3C//DTD SVG 1.1//EN"
 "http://www.w3.org/Graphics/SVG/1.1/DTD/svg11.dtd">
<!-- Generated by graphviz version 2.36.0 (20140111.2315)
 -->
<!-- Title: UnsafeMutableBufferPointer&lt;T&gt; &#45; Type Hierarchy &#45; SwiftDoc.org Pages: 1 -->
<svg width="637pt" height="369pt"
 viewBox="0.00 0.00 637.40 369.20" xmlns="http://www.w3.org/2000/svg" xmlns:xlink="http://www.w3.org/1999/xlink">
<g id="graph0" class="graph" transform="scale(1 1) rotate(0) translate(7.2 311.6)">
<title>UnsafeMutableBufferPointer&lt;T&gt; &#45; Type Hierarchy &#45; SwiftDoc.org</title>
<polygon fill="white" stroke="none" points="-7.2,57.6 -7.2,-311.6 630.2,-311.6 630.2,57.6 -7.2,57.6"/>
<!-- CollectionType -->
<g id="node1" class="node"><title>CollectionType</title>
<g id="a_node1"><a xlink:href="/protocol/CollectionType/" xlink:title="CollectionType">
<path fill="#999999" stroke="#999999" d="M438.704,-138C438.704,-138 365.296,-138 365.296,-138 361.63,-138 357.963,-134.333 357.963,-130.667 357.963,-130.667 357.963,-123.333 357.963,-123.333 357.963,-119.667 361.63,-116 365.296,-116 365.296,-116 438.704,-116 438.704,-116 442.37,-116 446.037,-119.667 446.037,-123.333 446.037,-123.333 446.037,-130.667 446.037,-130.667 446.037,-134.333 442.37,-138 438.704,-138"/>
<text text-anchor="middle" x="402" y="-123.4" font-family="Helvetica,sans-Serif" font-size="12.00" fill="white">CollectionType</text>
</a>
</g>
</g>
<!-- MutableCollectionType -->
<g id="node3" class="node"><title>MutableCollectionType</title>
<g id="a_node3"><a xlink:href="/protocol/MutableCollectionType/" xlink:title="MutableCollectionType">
<path fill="#999999" stroke="#999999" d="M411.221,-80C411.221,-80 294.779,-80 294.779,-80 291.112,-80 287.446,-76.3333 287.446,-72.6667 287.446,-72.6667 287.446,-65.3333 287.446,-65.3333 287.446,-61.6667 291.112,-58 294.779,-58 294.779,-58 411.221,-58 411.221,-58 414.888,-58 418.554,-61.6667 418.554,-65.3333 418.554,-65.3333 418.554,-72.6667 418.554,-72.6667 418.554,-76.3333 414.888,-80 411.221,-80"/>
<text text-anchor="middle" x="353" y="-65.4" font-family="Helvetica,sans-Serif" font-size="12.00" fill="white">MutableCollectionType</text>
</a>
</g>
</g>
<!-- CollectionType&#45;&gt;MutableCollectionType -->
<g id="edge7" class="edge"><title>CollectionType&#45;&gt;MutableCollectionType</title>
<path fill="none" stroke="#cccccc" d="M393.24,-115.988C386.427,-108.202 376.797,-97.1971 368.667,-87.9049"/>
<polygon fill="#cccccc" stroke="#cccccc" points="371.235,-85.5249 362.016,-80.3039 365.967,-90.1344 371.235,-85.5249"/>
</g>
<!-- UnsafeMutableBufferPointer&lt;T&gt; -->
<g id="node5" class="node"><title>UnsafeMutableBufferPointer&lt;T&gt;</title>
<g id="a_node5"><a xlink:href="/type/UnsafeMutableBufferPointer/" xlink:title="UnsafeMutableBufferPointer&lt;T&gt;">
<polygon fill="#ee543d" stroke="#ee543d" points="396.414,-22 215.586,-22 215.586,-0 396.414,-0 396.414,-22"/>
<text text-anchor="middle" x="306" y="-7.4" font-family="Helvetica,sans-Serif" font-size="12.00" fill="white">UnsafeMutableBufferPointer&lt;T&gt;</text>
</a>
</g>
</g>
<!-- CollectionType&#45;&gt;UnsafeMutableBufferPointer&lt;T&gt; -->
<g id="edge2" class="edge"><title>CollectionType&#45;&gt;UnsafeMutableBufferPointer&lt;T&gt;</title>
<path fill="none" stroke="#cccccc" d="M411.48,-115.568C423.039,-101.531 439.568,-76.2238 427,-58 416.342,-42.5462 399.757,-32.2798 382.247,-25.461"/>
<polygon fill="#cccccc" stroke="#cccccc" points="383.051,-22.0335 372.456,-22.0164 380.728,-28.6368 383.051,-22.0335"/>
</g>
<!-- CustomDebugStringConvertible -->
<g id="node2" class="node"><title>CustomDebugStringConvertible</title>
<g id="a_node2"><a xlink:href="/protocol/CustomDebugStringConvertible/" xlink:title="CustomDebugStringConvertible">
<path fill="#999999" stroke="#999999" d="M170.73,-80C170.73,-80 7.2704,-80 7.2704,-80 3.60373,-80 -0.0629365,-76.3333 -0.0629365,-72.6667 -0.0629365,-72.6667 -0.0629365,-65.3333 -0.0629365,-65.3333 -0.0629365,-61.6667 3.60373,-58 7.2704,-58 7.2704,-58 170.73,-58 170.73,-58 174.396,-58 178.063,-61.6667 178.063,-65.3333 178.063,-65.3333 178.063,-72.6667 178.063,-72.6667 178.063,-76.3333 174.396,-80 170.73,-80"/>
<text text-anchor="middle" x="89" y="-65.4" font-family="Helvetica,sans-Serif" font-size="12.00" fill="white">CustomDebugStringConvertible</text>
</a>
</g>
</g>
<!-- CustomDebugStringConvertible&#45;&gt;UnsafeMutableBufferPointer&lt;T&gt; -->
<g id="edge6" class="edge"><title>CustomDebugStringConvertible&#45;&gt;UnsafeMutableBufferPointer&lt;T&gt;</title>
<path fill="none" stroke="#cccccc" d="M127.795,-57.9883C163.941,-48.6603 217.987,-34.7132 257.077,-24.6252"/>
<polygon fill="#cccccc" stroke="#cccccc" points="258.367,-27.9071 267.175,-22.0192 256.618,-21.1291 258.367,-27.9071"/>
</g>
<!-- MutableCollectionType&#45;&gt;UnsafeMutableBufferPointer&lt;T&gt; -->
<g id="edge1" class="edge"><title>MutableCollectionType&#45;&gt;UnsafeMutableBufferPointer&lt;T&gt;</title>
<path fill="none" stroke="#cccccc" d="M344.597,-57.9883C338.128,-50.2806 329.012,-39.4191 321.264,-30.187"/>
<polygon fill="#cccccc" stroke="#cccccc" points="323.758,-27.7136 314.648,-22.3039 318.396,-32.2137 323.758,-27.7136"/>
</g>
<!-- SequenceType -->
<g id="node4" class="node"><title>SequenceType</title>
<g id="a_node4"><a xlink:href="/protocol/SequenceType/" xlink:title="SequenceType">
<path fill="#999999" stroke="#999999" d="M341.718,-254C341.718,-254 266.282,-254 266.282,-254 262.615,-254 258.949,-250.333 258.949,-246.667 258.949,-246.667 258.949,-239.333 258.949,-239.333 258.949,-235.667 262.615,-232 266.282,-232 266.282,-232 341.718,-232 341.718,-232 345.385,-232 349.051,-235.667 349.051,-239.333 349.051,-239.333 349.051,-246.667 349.051,-246.667 349.051,-250.333 345.385,-254 341.718,-254"/>
<text text-anchor="middle" x="304" y="-239.4" font-family="Helvetica,sans-Serif" font-size="12.00" fill="white">SequenceType</text>
</a>
</g>
</g>
<!-- SequenceType&#45;&gt;CollectionType -->
<g id="edge8" class="edge"><title>SequenceType&#45;&gt;CollectionType</title>
<path fill="none" stroke="#cccccc" d="M331.437,-231.937C348.287,-224.441 369.051,-212.616 382,-196 392.729,-182.232 397.709,-162.845 400.016,-148.293"/>
<polygon fill="#cccccc" stroke="#cccccc" points="403.5,-148.646 401.311,-138.28 396.558,-147.748 403.5,-148.646"/>
</g>
<!-- SequenceType&#45;&gt;UnsafeMutableBufferPointer&lt;T&gt; -->
<g id="edge3" class="edge"><title>SequenceType&#45;&gt;UnsafeMutableBufferPointer&lt;T&gt;</title>
<path fill="none" stroke="#cccccc" d="M271.285,-231.873C254.26,-224.751 234.967,-213.337 225,-196 220.127,-187.523 223.165,-183.604 225,-174 235.407,-119.524 243.733,-106.295 271,-58 276.566,-48.142 284.023,-38.0394 290.624,-29.8222"/>
<polygon fill="#cccccc" stroke="#cccccc" points="293.394,-31.9647 297.077,-22.0307 288.003,-27.4995 293.394,-31.9647"/>
</g>
<!-- _CollectionDefaultsType -->
<g id="node6" class="node"><title>_CollectionDefaultsType</title>
<g id="a_node6"><a xlink:href="/protocol/_CollectionDefaultsType/" xlink:title="_CollectionDefaultsType">
<path fill="#999999" stroke="#999999" d="M366.224,-196C366.224,-196 241.776,-196 241.776,-196 238.109,-196 234.443,-192.333 234.443,-188.667 234.443,-188.667 234.443,-181.333 234.443,-181.333 234.443,-177.667 238.109,-174 241.776,-174 241.776,-174 366.224,-174 366.224,-174 369.891,-174 373.557,-177.667 373.557,-181.333 373.557,-181.333 373.557,-188.667 373.557,-188.667 373.557,-192.333 369.891,-196 366.224,-196"/>
<text text-anchor="middle" x="304" y="-181.4" font-family="Helvetica,sans-Serif" font-size="12.00" fill="white">_CollectionDefaultsType</text>
</a>
</g>
</g>
<!-- SequenceType&#45;&gt;_CollectionDefaultsType -->
<g id="edge11" class="edge"><title>SequenceType&#45;&gt;_CollectionDefaultsType</title>
<path fill="none" stroke="#cccccc" d="M304,-231.988C304,-224.91 304,-215.171 304,-206.478"/>
<polygon fill="#cccccc" stroke="#cccccc" points="307.5,-206.304 304,-196.304 300.5,-206.304 307.5,-206.304"/>
</g>
<!-- _CollectionDefaultsType&#45;&gt;CollectionType -->
<g id="edge9" class="edge"><title>_CollectionDefaultsType&#45;&gt;CollectionType</title>
<path fill="none" stroke="#cccccc" d="M321.52,-173.988C336.478,-165.441 358.223,-153.015 375.34,-143.234"/>
<polygon fill="#cccccc" stroke="#cccccc" points="377.355,-146.114 384.301,-138.114 373.882,-140.036 377.355,-146.114"/>
</g>
<!-- _CollectionDefaultsType&#45;&gt;UnsafeMutableBufferPointer&lt;T&gt; -->
<g id="edge4" class="edge"><title>_CollectionDefaultsType&#45;&gt;UnsafeMutableBufferPointer&lt;T&gt;</title>
<path fill="none" stroke="#cccccc" d="M298.6,-173.758C287.92,-152.143 266.119,-100.367 278,-58 280.751,-48.1892 286.234,-38.3948 291.625,-30.3809"/>
<polygon fill="#cccccc" stroke="#cccccc" points="294.523,-32.3454 297.521,-22.1835 288.841,-28.2579 294.523,-32.3454"/>
</g>
<!-- _CollectionGeneratorDefaultsType -->
<g id="node7" class="node"><title>_CollectionGeneratorDefaultsType</title>
<g id="a_node7"><a xlink:href="/protocol/_CollectionGeneratorDefaultsType/" xlink:title="_CollectionGeneratorDefaultsType">
<path fill="#999999" stroke="#999999" d="M616.246,-196C616.246,-196 437.754,-196 437.754,-196 434.087,-196 430.421,-192.333 430.421,-188.667 430.421,-188.667 430.421,-181.333 430.421,-181.333 430.421,-177.667 434.087,-174 437.754,-174 437.754,-174 616.246,-174 616.246,-174 619.913,-174 623.579,-177.667 623.579,-181.333 623.579,-181.333 623.579,-188.667 623.579,-188.667 623.579,-192.333 619.913,-196 616.246,-196"/>
<text text-anchor="middle" x="527" y="-181.4" font-family="Helvetica,sans-Serif" font-size="12.00" fill="white">_CollectionGeneratorDefaultsType</text>
</a>
</g>
</g>
<!-- _CollectionGeneratorDefaultsType&#45;&gt;CollectionType -->
<g id="edge10" class="edge"><title>_CollectionGeneratorDefaultsType&#45;&gt;CollectionType</title>
<path fill="none" stroke="#cccccc" d="M504.653,-173.988C484.955,-165.164 456.031,-152.206 433.902,-142.292"/>
<polygon fill="#cccccc" stroke="#cccccc" points="435.132,-139.008 424.575,-138.114 432.271,-145.396 435.132,-139.008"/>
</g>
<!-- _CollectionGeneratorDefaultsType&#45;&gt;UnsafeMutableBufferPointer&lt;T&gt; -->
<g id="edge5" class="edge"><title>_CollectionGeneratorDefaultsType&#45;&gt;UnsafeMutableBufferPointer&lt;T&gt;</title>
<path fill="none" stroke="#cccccc" d="M523.08,-173.849C513.38,-150.049 485.962,-90.2337 444,-58 423.405,-42.1798 397.089,-31.647 372.971,-24.7063"/>
<polygon fill="#cccccc" stroke="#cccccc" points="373.716,-21.2819 363.148,-22.0377 371.881,-28.037 373.716,-21.2819"/>
</g>
</g>
</svg>
