<?xml version="1.0" encoding="UTF-8" standalone="no"?>
<!DOCTYPE svg PUBLIC "-//W3C//DTD SVG 1.1//EN"
 "http://www.w3.org/Graphics/SVG/1.1/DTD/svg11.dtd">
<!-- Generated by graphviz version 2.36.0 (20140111.2315)
 -->
<!-- Title: IntegerLiteralConvertible &#45; Type Hierarchy &#45; SwiftDoc.org Pages: 1 -->
<svg width="1217pt" height="427pt"
 viewBox="0.00 0.00 1217.40 427.20" xmlns="http://www.w3.org/2000/svg" xmlns:xlink="http://www.w3.org/1999/xlink">
<g id="graph0" class="graph" transform="scale(1 1) rotate(0) translate(7.2 369.6)">
<title>IntegerLiteralConvertible &#45; Type Hierarchy &#45; SwiftDoc.org</title>
<polygon fill="white" stroke="none" points="-7.2,57.6 -7.2,-369.6 1210.2,-369.6 1210.2,57.6 -7.2,57.6"/>
<!-- AbsoluteValuable -->
<g id="node1" class="node"><title>AbsoluteValuable</title>
<g id="a_node1"><a xlink:href="/protocol/AbsoluteValuable/" xlink:title="AbsoluteValuable">
<path fill="#999999" stroke="#999999" d="M661.558,-138C661.558,-138 574.442,-138 574.442,-138 570.775,-138 567.109,-134.333 567.109,-130.667 567.109,-130.667 567.109,-123.333 567.109,-123.333 567.109,-119.667 570.775,-116 574.442,-116 574.442,-116 661.558,-116 661.558,-116 665.225,-116 668.891,-119.667 668.891,-123.333 668.891,-123.333 668.891,-130.667 668.891,-130.667 668.891,-134.333 665.225,-138 661.558,-138"/>
<text text-anchor="middle" x="618" y="-123.4" font-family="Helvetica,sans-Serif" font-size="12.00" fill="white">AbsoluteValuable</text>
</a>
</g>
</g>
<!-- Double -->
<g id="node3" class="node"><title>Double</title>
<g id="a_node3"><a xlink:href="/type/Double/" xlink:title="Double">
<polygon fill="#999999" stroke="#999999" points="434,-22 380,-22 380,-0 434,-0 434,-22"/>
<text text-anchor="middle" x="407" y="-7.4" font-family="Helvetica,sans-Serif" font-size="12.00" fill="white">Double</text>
</a>
</g>
</g>
<!-- AbsoluteValuable&#45;&gt;Double -->
<g id="edge32" class="edge"><title>AbsoluteValuable&#45;&gt;Double</title>
<path fill="none" stroke="#cccccc" d="M599.275,-115.883C561.971,-95.7287 478.226,-50.4823 434.603,-26.9136"/>
<polygon fill="#cccccc" stroke="#cccccc" points="436.145,-23.7682 425.683,-22.0941 432.817,-29.9269 436.145,-23.7682"/>
</g>
<!-- Float -->
<g id="node4" class="node"><title>Float</title>
<g id="a_node4"><a xlink:href="/type/Float/" xlink:title="Float">
<polygon fill="#999999" stroke="#999999" points="526,-22 472,-22 472,-0 526,-0 526,-22"/>
<text text-anchor="middle" x="499" y="-7.4" font-family="Helvetica,sans-Serif" font-size="12.00" fill="white">Float</text>
</a>
</g>
</g>
<!-- AbsoluteValuable&#45;&gt;Float -->
<g id="edge33" class="edge"><title>AbsoluteValuable&#45;&gt;Float</title>
<path fill="none" stroke="#cccccc" d="M607.44,-115.883C587.114,-96.4116 542.341,-53.52 517.145,-29.3824"/>
<polygon fill="#cccccc" stroke="#cccccc" points="519.35,-26.6483 509.708,-22.2579 514.508,-31.7031 519.35,-26.6483"/>
</g>
<!-- Float80 -->
<g id="node5" class="node"><title>Float80</title>
<g id="a_node5"><a xlink:href="/type/Float80/" xlink:title="Float80">
<polygon fill="#999999" stroke="#999999" points="705,-22 651,-22 651,-0 705,-0 705,-22"/>
<text text-anchor="middle" x="678" y="-7.4" font-family="Helvetica,sans-Serif" font-size="12.00" fill="white">Float80</text>
</a>
</g>
</g>
<!-- AbsoluteValuable&#45;&gt;Float80 -->
<g id="edge34" class="edge"><title>AbsoluteValuable&#45;&gt;Float80</title>
<path fill="none" stroke="#cccccc" d="M623.325,-115.883C633.307,-96.9174 654.983,-55.7323 667.842,-31.3004"/>
<polygon fill="#cccccc" stroke="#cccccc" points="671.041,-32.7373 672.601,-22.2579 664.846,-29.477 671.041,-32.7373"/>
</g>
<!-- Bit -->
<g id="node2" class="node"><title>Bit</title>
<g id="a_node2"><a xlink:href="/type/Bit/" xlink:title="Bit">
<polygon fill="#999999" stroke="#999999" points="915,-22 861,-22 861,-0 915,-0 915,-22"/>
<text text-anchor="middle" x="888" y="-7.4" font-family="Helvetica,sans-Serif" font-size="12.00" fill="white">Bit</text>
</a>
</g>
</g>
<!-- Int -->
<g id="node6" class="node"><title>Int</title>
<g id="a_node6"><a xlink:href="/type/Int/" xlink:title="Int">
<polygon fill="#999999" stroke="#999999" points="843,-22 789,-22 789,-0 843,-0 843,-22"/>
<text text-anchor="middle" x="816" y="-7.4" font-family="Helvetica,sans-Serif" font-size="12.00" fill="white">Int</text>
</a>
</g>
</g>
<!-- Int&#45;&gt;Bit -->
<g id="edge16" class="edge"><title>Int&#45;&gt;Bit</title>
<path fill="none" stroke="#cccccc" d="M843.281,-11C845.738,-11 848.194,-11 850.651,-11"/>
<polygon fill="#cccccc" stroke="#cccccc" points="850.75,-14.5001 860.75,-11 850.749,-7.5001 850.75,-14.5001"/>
</g>
<!-- Int16 -->
<g id="node7" class="node"><title>Int16</title>
<g id="a_node7"><a xlink:href="/type/Int16/" xlink:title="Int16">
<polygon fill="#999999" stroke="#999999" points="987,-22 933,-22 933,-0 987,-0 987,-22"/>
<text text-anchor="middle" x="960" y="-7.4" font-family="Helvetica,sans-Serif" font-size="12.00" fill="white">Int16</text>
</a>
</g>
</g>
<!-- Int32 -->
<g id="node8" class="node"><title>Int32</title>
<g id="a_node8"><a xlink:href="/type/Int32/" xlink:title="Int32">
<polygon fill="#999999" stroke="#999999" points="1059,-22 1005,-22 1005,-0 1059,-0 1059,-22"/>
<text text-anchor="middle" x="1032" y="-7.4" font-family="Helvetica,sans-Serif" font-size="12.00" fill="white">Int32</text>
</a>
</g>
</g>
<!-- Int64 -->
<g id="node9" class="node"><title>Int64</title>
<g id="a_node9"><a xlink:href="/type/Int64/" xlink:title="Int64">
<polygon fill="#999999" stroke="#999999" points="1131,-22 1077,-22 1077,-0 1131,-0 1131,-22"/>
<text text-anchor="middle" x="1104" y="-7.4" font-family="Helvetica,sans-Serif" font-size="12.00" fill="white">Int64</text>
</a>
</g>
</g>
<!-- Int8 -->
<g id="node10" class="node"><title>Int8</title>
<g id="a_node10"><a xlink:href="/type/Int8/" xlink:title="Int8">
<polygon fill="#999999" stroke="#999999" points="1203,-22 1149,-22 1149,-0 1203,-0 1203,-22"/>
<text text-anchor="middle" x="1176" y="-7.4" font-family="Helvetica,sans-Serif" font-size="12.00" fill="white">Int8</text>
</a>
</g>
</g>
<!-- IntegerLiteralConvertible -->
<g id="node11" class="node"><title>IntegerLiteralConvertible</title>
<g id="a_node11"><a xlink:href="/protocol/IntegerLiteralConvertible/" xlink:title="IntegerLiteralConvertible">
<path fill="#ee543d" stroke="#ee543d" d="M574.722,-312C574.722,-312 449.278,-312 449.278,-312 445.611,-312 441.944,-308.333 441.944,-304.667 441.944,-304.667 441.944,-297.333 441.944,-297.333 441.944,-293.667 445.611,-290 449.278,-290 449.278,-290 574.722,-290 574.722,-290 578.389,-290 582.056,-293.667 582.056,-297.333 582.056,-297.333 582.056,-304.667 582.056,-304.667 582.056,-308.333 578.389,-312 574.722,-312"/>
<text text-anchor="middle" x="512" y="-297.4" font-family="Helvetica,sans-Serif" font-size="12.00" fill="white">IntegerLiteralConvertible</text>
</a>
</g>
</g>
<!-- IntegerLiteralConvertible&#45;&gt;Double -->
<g id="edge1" class="edge"><title>IntegerLiteralConvertible&#45;&gt;Double</title>
<path fill="none" stroke="#cccccc" d="M441.749,-297.193C367.494,-290.015 261,-265.807 261,-186 261,-186 261,-186 261,-126 261,-70.6563 326.979,-38.2035 370.229,-22.8756"/>
<polygon fill="#cccccc" stroke="#cccccc" points="371.534,-26.1289 379.881,-19.6027 369.286,-19.4997 371.534,-26.1289"/>
</g>
<!-- IntegerLiteralConvertible&#45;&gt;Float -->
<g id="edge2" class="edge"><title>IntegerLiteralConvertible&#45;&gt;Float</title>
<path fill="none" stroke="#cccccc" d="M441.666,-291.695C379.623,-279.985 299,-252.059 299,-186 299,-186 299,-186 299,-126 299,-88.8801 404.299,-45.608 462.087,-24.6553"/>
<polygon fill="#cccccc" stroke="#cccccc" points="463.374,-27.9125 471.61,-21.2485 461.016,-21.3216 463.374,-27.9125"/>
</g>
<!-- IntegerLiteralConvertible&#45;&gt;Float80 -->
<g id="edge3" class="edge"><title>IntegerLiteralConvertible&#45;&gt;Float80</title>
<path fill="none" stroke="#cccccc" d="M568.26,-289.959C622.688,-276.625 697,-247.211 697,-186 697,-186 697,-186 697,-126 697,-92.7209 689.025,-54.7115 683.408,-32.0705"/>
<polygon fill="#cccccc" stroke="#cccccc" points="686.77,-31.0891 680.886,-22.2784 679.991,-32.8354 686.77,-31.0891"/>
</g>
<!-- _IntegerType -->
<g id="node21" class="node"><title>_IntegerType</title>
<g id="a_node21"><a xlink:href="/protocol/_IntegerType/" xlink:title="_IntegerType">
<path fill="#999999" stroke="#999999" d="M544.708,-196C544.708,-196 479.292,-196 479.292,-196 475.626,-196 471.959,-192.333 471.959,-188.667 471.959,-188.667 471.959,-181.333 471.959,-181.333 471.959,-177.667 475.626,-174 479.292,-174 479.292,-174 544.708,-174 544.708,-174 548.374,-174 552.041,-177.667 552.041,-181.333 552.041,-181.333 552.041,-188.667 552.041,-188.667 552.041,-192.333 548.374,-196 544.708,-196"/>
<text text-anchor="middle" x="512" y="-181.4" font-family="Helvetica,sans-Serif" font-size="12.00" fill="white">_IntegerType</text>
</a>
</g>
</g>
<!-- IntegerLiteralConvertible&#45;&gt;_IntegerType -->
<g id="edge4" class="edge"><title>IntegerLiteralConvertible&#45;&gt;_IntegerType</title>
<path fill="none" stroke="#cccccc" d="M512,-289.883C512,-271.17 512,-230.827 512,-206.287"/>
<polygon fill="#cccccc" stroke="#cccccc" points="515.5,-206.258 512,-196.258 508.5,-206.258 515.5,-206.258"/>
</g>
<!-- _SignedNumberType -->
<g id="node23" class="node"><title>_SignedNumberType</title>
<g id="a_node23"><a xlink:href="/protocol/_SignedNumberType/" xlink:title="_SignedNumberType">
<path fill="#999999" stroke="#999999" d="M891.723,-254C891.723,-254 784.277,-254 784.277,-254 780.611,-254 776.944,-250.333 776.944,-246.667 776.944,-246.667 776.944,-239.333 776.944,-239.333 776.944,-235.667 780.611,-232 784.277,-232 784.277,-232 891.723,-232 891.723,-232 895.389,-232 899.056,-235.667 899.056,-239.333 899.056,-239.333 899.056,-246.667 899.056,-246.667 899.056,-250.333 895.389,-254 891.723,-254"/>
<text text-anchor="middle" x="838" y="-239.4" font-family="Helvetica,sans-Serif" font-size="12.00" fill="white">_SignedNumberType</text>
</a>
</g>
</g>
<!-- IntegerLiteralConvertible&#45;&gt;_SignedNumberType -->
<g id="edge5" class="edge"><title>IntegerLiteralConvertible&#45;&gt;_SignedNumberType</title>
<path fill="none" stroke="#cccccc" d="M570.282,-289.988C626.202,-280.382 710.638,-265.878 769.69,-255.734"/>
<polygon fill="#cccccc" stroke="#cccccc" points="770.411,-259.162 779.674,-254.019 769.225,-252.263 770.411,-259.162"/>
</g>
<!-- IntegerType -->
<g id="node12" class="node"><title>IntegerType</title>
<g id="a_node12"><a xlink:href="/protocol/IntegerType/" xlink:title="IntegerType">
<path fill="#999999" stroke="#999999" d="M541.202,-138C541.202,-138 482.798,-138 482.798,-138 479.132,-138 475.465,-134.333 475.465,-130.667 475.465,-130.667 475.465,-123.333 475.465,-123.333 475.465,-119.667 479.132,-116 482.798,-116 482.798,-116 541.202,-116 541.202,-116 544.868,-116 548.535,-119.667 548.535,-123.333 548.535,-123.333 548.535,-130.667 548.535,-130.667 548.535,-134.333 544.868,-138 541.202,-138"/>
<text text-anchor="middle" x="512" y="-123.4" font-family="Helvetica,sans-Serif" font-size="12.00" fill="white">IntegerType</text>
</a>
</g>
</g>
<!-- SignedIntegerType -->
<g id="node13" class="node"><title>SignedIntegerType</title>
<g id="a_node13"><a xlink:href="/protocol/SignedIntegerType/" xlink:title="SignedIntegerType">
<path fill="#999999" stroke="#999999" d="M1039.73,-80C1039.73,-80 944.273,-80 944.273,-80 940.606,-80 936.94,-76.3333 936.94,-72.6667 936.94,-72.6667 936.94,-65.3333 936.94,-65.3333 936.94,-61.6667 940.606,-58 944.273,-58 944.273,-58 1039.73,-58 1039.73,-58 1043.39,-58 1047.06,-61.6667 1047.06,-65.3333 1047.06,-65.3333 1047.06,-72.6667 1047.06,-72.6667 1047.06,-76.3333 1043.39,-80 1039.73,-80"/>
<text text-anchor="middle" x="992" y="-65.4" font-family="Helvetica,sans-Serif" font-size="12.00" fill="white">SignedIntegerType</text>
</a>
</g>
</g>
<!-- IntegerType&#45;&gt;SignedIntegerType -->
<g id="edge9" class="edge"><title>IntegerType&#45;&gt;SignedIntegerType</title>
<path fill="none" stroke="#cccccc" d="M548.59,-117.671C551.765,-117.062 554.934,-116.494 558,-116 688.106,-95.0265 841.756,-81.3187 926.9,-74.6851"/>
<polygon fill="#cccccc" stroke="#cccccc" points="927.237,-78.1696 936.938,-73.9112 926.698,-71.1904 927.237,-78.1696"/>
</g>
<!-- UnsignedIntegerType -->
<g id="node20" class="node"><title>UnsignedIntegerType</title>
<g id="a_node20"><a xlink:href="/protocol/UnsignedIntegerType/" xlink:title="UnsignedIntegerType">
<path fill="#999999" stroke="#999999" d="M225.728,-80C225.728,-80 116.272,-80 116.272,-80 112.605,-80 108.938,-76.3333 108.938,-72.6667 108.938,-72.6667 108.938,-65.3333 108.938,-65.3333 108.938,-61.6667 112.605,-58 116.272,-58 116.272,-58 225.728,-58 225.728,-58 229.395,-58 233.062,-61.6667 233.062,-65.3333 233.062,-65.3333 233.062,-72.6667 233.062,-72.6667 233.062,-76.3333 229.395,-80 225.728,-80"/>
<text text-anchor="middle" x="171" y="-65.4" font-family="Helvetica,sans-Serif" font-size="12.00" fill="white">UnsignedIntegerType</text>
</a>
</g>
</g>
<!-- IntegerType&#45;&gt;UnsignedIntegerType -->
<g id="edge10" class="edge"><title>IntegerType&#45;&gt;UnsignedIntegerType</title>
<path fill="none" stroke="#cccccc" d="M475.632,-117.885C472.38,-117.223 469.133,-116.584 466,-116 390.254,-101.874 303.008,-88.6431 243.157,-80.0306"/>
<polygon fill="#cccccc" stroke="#cccccc" points="243.448,-76.5366 233.053,-78.5829 242.455,-83.4658 243.448,-76.5366"/>
</g>
<!-- SignedIntegerType&#45;&gt;Int -->
<g id="edge11" class="edge"><title>SignedIntegerType&#45;&gt;Int</title>
<path fill="none" stroke="#cccccc" d="M960.535,-57.9883C930.379,-48.3932 884.863,-33.9108 852.987,-23.7685"/>
<polygon fill="#cccccc" stroke="#cccccc" points="853.744,-20.3366 843.153,-20.6397 851.621,-27.0071 853.744,-20.3366"/>
</g>
<!-- SignedIntegerType&#45;&gt;Int16 -->
<g id="edge12" class="edge"><title>SignedIntegerType&#45;&gt;Int16</title>
<path fill="none" stroke="#cccccc" d="M986.279,-57.9883C982.009,-50.5165 976.046,-40.0812 970.88,-31.0393"/>
<polygon fill="#cccccc" stroke="#cccccc" points="973.888,-29.2498 965.888,-22.3039 967.811,-32.7228 973.888,-29.2498"/>
</g>
<!-- SignedIntegerType&#45;&gt;Int32 -->
<g id="edge13" class="edge"><title>SignedIntegerType&#45;&gt;Int32</title>
<path fill="none" stroke="#cccccc" d="M999.151,-57.9883C1004.6,-50.3592 1012.26,-39.6405 1018.81,-30.4702"/>
<polygon fill="#cccccc" stroke="#cccccc" points="1021.68,-32.4756 1024.64,-22.3039 1015.98,-28.4069 1021.68,-32.4756"/>
</g>
<!-- SignedIntegerType&#45;&gt;Int64 -->
<g id="edge14" class="edge"><title>SignedIntegerType&#45;&gt;Int64</title>
<path fill="none" stroke="#cccccc" d="M1012.02,-57.9883C1029.43,-49.2827 1054.89,-36.5539 1074.61,-26.6937"/>
<polygon fill="#cccccc" stroke="#cccccc" points="1076.39,-29.7165 1083.77,-22.1138 1073.26,-23.4555 1076.39,-29.7165"/>
</g>
<!-- SignedIntegerType&#45;&gt;Int8 -->
<g id="edge15" class="edge"><title>SignedIntegerType&#45;&gt;Int8</title>
<path fill="none" stroke="#cccccc" d="M1024.9,-57.9883C1056.93,-48.2376 1105.55,-33.4399 1138.94,-23.2786"/>
<polygon fill="#cccccc" stroke="#cccccc" points="1140.23,-26.5447 1148.78,-20.2846 1138.19,-19.848 1140.23,-26.5447"/>
</g>
<!-- SignedNumberType -->
<g id="node14" class="node"><title>SignedNumberType</title>
<g id="a_node14"><a xlink:href="/protocol/SignedNumberType/" xlink:title="SignedNumberType">
<path fill="#999999" stroke="#999999" d="M940.716,-196C940.716,-196 839.284,-196 839.284,-196 835.617,-196 831.95,-192.333 831.95,-188.667 831.95,-188.667 831.95,-181.333 831.95,-181.333 831.95,-177.667 835.617,-174 839.284,-174 839.284,-174 940.716,-174 940.716,-174 944.383,-174 948.05,-177.667 948.05,-181.333 948.05,-181.333 948.05,-188.667 948.05,-188.667 948.05,-192.333 944.383,-196 940.716,-196"/>
<text text-anchor="middle" x="890" y="-181.4" font-family="Helvetica,sans-Serif" font-size="12.00" fill="white">SignedNumberType</text>
</a>
</g>
</g>
<!-- SignedNumberType&#45;&gt;AbsoluteValuable -->
<g id="edge25" class="edge"><title>SignedNumberType&#45;&gt;AbsoluteValuable</title>
<path fill="none" stroke="#cccccc" d="M841.372,-173.988C795.197,-164.482 725.718,-150.177 676.528,-140.05"/>
<polygon fill="#cccccc" stroke="#cccccc" points="677.165,-136.608 666.665,-138.019 675.754,-143.464 677.165,-136.608"/>
</g>
<!-- SignedNumberType&#45;&gt;Int -->
<g id="edge26" class="edge"><title>SignedNumberType&#45;&gt;Int</title>
<path fill="none" stroke="#cccccc" d="M885.593,-173.756C873.642,-145.978 840.458,-68.848 824.623,-32.0425"/>
<polygon fill="#cccccc" stroke="#cccccc" points="827.645,-30.2108 820.478,-22.4081 821.215,-32.9772 827.645,-30.2108"/>
</g>
<!-- SignedNumberType&#45;&gt;Int16 -->
<g id="edge27" class="edge"><title>SignedNumberType&#45;&gt;Int16</title>
<path fill="none" stroke="#cccccc" d="M891.935,-173.8C896.345,-151.829 908.308,-98.7286 928,-58 932.727,-48.2234 939.416,-38.2269 945.457,-30.061"/>
<polygon fill="#cccccc" stroke="#cccccc" points="948.32,-32.0788 951.634,-22.0157 942.768,-27.8157 948.32,-32.0788"/>
</g>
<!-- SignedNumberType&#45;&gt;Int32 -->
<g id="edge28" class="edge"><title>SignedNumberType&#45;&gt;Int32</title>
<path fill="none" stroke="#cccccc" d="M923.784,-173.923C963.609,-160.018 1027.92,-130.731 1056,-80 1064.75,-64.1864 1056,-44.5816 1046.7,-30.4914"/>
<polygon fill="#cccccc" stroke="#cccccc" points="1049.37,-28.2041 1040.69,-22.1238 1043.68,-32.2877 1049.37,-28.2041"/>
</g>
<!-- SignedNumberType&#45;&gt;Int64 -->
<g id="edge29" class="edge"><title>SignedNumberType&#45;&gt;Int64</title>
<path fill="none" stroke="#cccccc" d="M943.21,-173.976C970.124,-167.048 1002.24,-155.783 1027,-138 1064.48,-111.08 1087.32,-59.7217 1097.58,-31.6018"/>
<polygon fill="#cccccc" stroke="#cccccc" points="1100.92,-32.6566 1100.9,-22.0618 1094.31,-30.356 1100.92,-32.6566"/>
</g>
<!-- SignedNumberType&#45;&gt;Int8 -->
<g id="edge30" class="edge"><title>SignedNumberType&#45;&gt;Int8</title>
<path fill="none" stroke="#cccccc" d="M948.382,-174.992C980.57,-168.22 1020.31,-156.783 1052,-138 1099.92,-109.6 1142.21,-58.1429 1162.78,-30.593"/>
<polygon fill="#cccccc" stroke="#cccccc" points="1165.81,-32.3712 1168.89,-22.2344 1160.16,-28.237 1165.81,-32.3712"/>
</g>
<!-- _SignedIntegerType -->
<g id="node22" class="node"><title>_SignedIntegerType</title>
<g id="a_node22"><a xlink:href="/protocol/_SignedIntegerType/" xlink:title="_SignedIntegerType">
<path fill="#999999" stroke="#999999" d="M835.231,-138C835.231,-138 732.769,-138 732.769,-138 729.102,-138 725.436,-134.333 725.436,-130.667 725.436,-130.667 725.436,-123.333 725.436,-123.333 725.436,-119.667 729.102,-116 732.769,-116 732.769,-116 835.231,-116 835.231,-116 838.898,-116 842.564,-119.667 842.564,-123.333 842.564,-123.333 842.564,-130.667 842.564,-130.667 842.564,-134.333 838.898,-138 835.231,-138"/>
<text text-anchor="middle" x="784" y="-123.4" font-family="Helvetica,sans-Serif" font-size="12.00" fill="white">_SignedIntegerType</text>
</a>
</g>
</g>
<!-- SignedNumberType&#45;&gt;_SignedIntegerType -->
<g id="edge31" class="edge"><title>SignedNumberType&#45;&gt;_SignedIntegerType</title>
<path fill="none" stroke="#cccccc" d="M871.049,-173.988C854.646,-165.322 830.696,-152.67 812.068,-142.828"/>
<polygon fill="#cccccc" stroke="#cccccc" points="813.621,-139.69 803.144,-138.114 810.351,-145.88 813.621,-139.69"/>
</g>
<!-- UInt -->
<g id="node15" class="node"><title>UInt</title>
<g id="a_node15"><a xlink:href="/type/UInt/" xlink:title="UInt">
<polygon fill="#999999" stroke="#999999" points="270,-22 216,-22 216,-0 270,-0 270,-22"/>
<text text-anchor="middle" x="243" y="-7.4" font-family="Helvetica,sans-Serif" font-size="12.00" fill="white">UInt</text>
</a>
</g>
</g>
<!-- UInt16 -->
<g id="node16" class="node"><title>UInt16</title>
<g id="a_node16"><a xlink:href="/type/UInt16/" xlink:title="UInt16">
<polygon fill="#999999" stroke="#999999" points="342,-22 288,-22 288,-0 342,-0 342,-22"/>
<text text-anchor="middle" x="315" y="-7.4" font-family="Helvetica,sans-Serif" font-size="12.00" fill="white">UInt16</text>
</a>
</g>
</g>
<!-- UInt32 -->
<g id="node17" class="node"><title>UInt32</title>
<g id="a_node17"><a xlink:href="/type/UInt32/" xlink:title="UInt32">
<polygon fill="#999999" stroke="#999999" points="54,-22 0,-22 0,-0 54,-0 54,-22"/>
<text text-anchor="middle" x="27" y="-7.4" font-family="Helvetica,sans-Serif" font-size="12.00" fill="white">UInt32</text>
</a>
</g>
</g>
<!-- UInt64 -->
<g id="node18" class="node"><title>UInt64</title>
<g id="a_node18"><a xlink:href="/type/UInt64/" xlink:title="UInt64">
<polygon fill="#999999" stroke="#999999" points="126,-22 72,-22 72,-0 126,-0 126,-22"/>
<text text-anchor="middle" x="99" y="-7.4" font-family="Helvetica,sans-Serif" font-size="12.00" fill="white">UInt64</text>
</a>
</g>
</g>
<!-- UInt8 -->
<g id="node19" class="node"><title>UInt8</title>
<g id="a_node19"><a xlink:href="/type/UInt8/" xlink:title="UInt8">
<polygon fill="#999999" stroke="#999999" points="198,-22 144,-22 144,-0 198,-0 198,-22"/>
<text text-anchor="middle" x="171" y="-7.4" font-family="Helvetica,sans-Serif" font-size="12.00" fill="white">UInt8</text>
</a>
</g>
</g>
<!-- UnsignedIntegerType&#45;&gt;UInt -->
<g id="edge17" class="edge"><title>UnsignedIntegerType&#45;&gt;UInt</title>
<path fill="none" stroke="#cccccc" d="M183.872,-57.9883C194.389,-49.8087 209.472,-38.0773 221.772,-28.5108"/>
<polygon fill="#cccccc" stroke="#cccccc" points="224.007,-31.2061 229.752,-22.3039 219.71,-25.6806 224.007,-31.2061"/>
</g>
<!-- UnsignedIntegerType&#45;&gt;UInt16 -->
<g id="edge18" class="edge"><title>UnsignedIntegerType&#45;&gt;UInt16</title>
<path fill="none" stroke="#cccccc" d="M196.744,-57.9883C219.842,-49.0057 253.955,-35.7398 279.614,-25.7614"/>
<polygon fill="#cccccc" stroke="#cccccc" points="280.942,-29.0004 288.993,-22.1138 278.404,-22.4763 280.942,-29.0004"/>
</g>
<!-- UnsignedIntegerType&#45;&gt;UInt32 -->
<g id="edge19" class="edge"><title>UnsignedIntegerType&#45;&gt;UInt32</title>
<path fill="none" stroke="#cccccc" d="M145.256,-57.9883C122.158,-49.0057 88.0453,-35.7398 62.3865,-25.7614"/>
<polygon fill="#cccccc" stroke="#cccccc" points="63.5956,-22.4763 53.0069,-22.1138 61.0584,-29.0004 63.5956,-22.4763"/>
</g>
<!-- UnsignedIntegerType&#45;&gt;UInt64 -->
<g id="edge20" class="edge"><title>UnsignedIntegerType&#45;&gt;UInt64</title>
<path fill="none" stroke="#cccccc" d="M158.128,-57.9883C147.611,-49.8087 132.528,-38.0773 120.228,-28.5108"/>
<polygon fill="#cccccc" stroke="#cccccc" points="122.29,-25.6806 112.248,-22.3039 117.993,-31.2061 122.29,-25.6806"/>
</g>
<!-- UnsignedIntegerType&#45;&gt;UInt8 -->
<g id="edge21" class="edge"><title>UnsignedIntegerType&#45;&gt;UInt8</title>
<path fill="none" stroke="#cccccc" d="M171,-57.9883C171,-50.9098 171,-41.1714 171,-32.4779"/>
<polygon fill="#cccccc" stroke="#cccccc" points="174.5,-32.3038 171,-22.3039 167.5,-32.3039 174.5,-32.3038"/>
</g>
<!-- _IntegerType&#45;&gt;IntegerType -->
<g id="edge6" class="edge"><title>_IntegerType&#45;&gt;IntegerType</title>
<path fill="none" stroke="#cccccc" d="M512,-173.988C512,-166.91 512,-157.171 512,-148.478"/>
<polygon fill="#cccccc" stroke="#cccccc" points="515.5,-148.304 512,-138.304 508.5,-148.304 515.5,-148.304"/>
</g>
<!-- _IntegerType&#45;&gt;_SignedIntegerType -->
<g id="edge7" class="edge"><title>_IntegerType&#45;&gt;_SignedIntegerType</title>
<path fill="none" stroke="#cccccc" d="M552.135,-175.737C597.948,-166.305 673.292,-150.793 725.607,-140.022"/>
<polygon fill="#cccccc" stroke="#cccccc" points="726.332,-143.446 735.421,-138.002 724.92,-136.59 726.332,-143.446"/>
</g>
<!-- _UnsignedIntegerType -->
<g id="node24" class="node"><title>_UnsignedIntegerType</title>
<g id="a_node24"><a xlink:href="/protocol/_UnsignedIntegerType/" xlink:title="_UnsignedIntegerType">
<path fill="#999999" stroke="#999999" d="M449.734,-138C449.734,-138 334.266,-138 334.266,-138 330.599,-138 326.933,-134.333 326.933,-130.667 326.933,-130.667 326.933,-123.333 326.933,-123.333 326.933,-119.667 330.599,-116 334.266,-116 334.266,-116 449.734,-116 449.734,-116 453.401,-116 457.067,-119.667 457.067,-123.333 457.067,-123.333 457.067,-130.667 457.067,-130.667 457.067,-134.333 453.401,-138 449.734,-138"/>
<text text-anchor="middle" x="392" y="-123.4" font-family="Helvetica,sans-Serif" font-size="12.00" fill="white">_UnsignedIntegerType</text>
</a>
</g>
</g>
<!-- _IntegerType&#45;&gt;_UnsignedIntegerType -->
<g id="edge8" class="edge"><title>_IntegerType&#45;&gt;_UnsignedIntegerType</title>
<path fill="none" stroke="#cccccc" d="M490.546,-173.988C471.722,-165.204 444.119,-152.322 422.912,-142.425"/>
<polygon fill="#cccccc" stroke="#cccccc" points="424.214,-139.171 413.672,-138.114 421.254,-145.514 424.214,-139.171"/>
</g>
<!-- _SignedIntegerType&#45;&gt;SignedIntegerType -->
<g id="edge22" class="edge"><title>_SignedIntegerType&#45;&gt;SignedIntegerType</title>
<path fill="none" stroke="#cccccc" d="M821.186,-115.988C855.833,-106.66 907.637,-92.7132 945.106,-82.6252"/>
<polygon fill="#cccccc" stroke="#cccccc" points="946.039,-85.9987 954.786,-80.0192 944.22,-79.2394 946.039,-85.9987"/>
</g>
<!-- _SignedNumberType&#45;&gt;SignedNumberType -->
<g id="edge24" class="edge"><title>_SignedNumberType&#45;&gt;SignedNumberType</title>
<path fill="none" stroke="#cccccc" d="M847.297,-231.988C854.527,-224.202 864.746,-213.197 873.374,-203.905"/>
<polygon fill="#cccccc" stroke="#cccccc" points="876.192,-206.013 880.432,-196.304 871.063,-201.25 876.192,-206.013"/>
</g>
<!-- _UnsignedIntegerType&#45;&gt;UnsignedIntegerType -->
<g id="edge23" class="edge"><title>_UnsignedIntegerType&#45;&gt;UnsignedIntegerType</title>
<path fill="none" stroke="#cccccc" d="M352.49,-115.988C315.52,-106.621 260.167,-92.5944 220.317,-82.4966"/>
<polygon fill="#cccccc" stroke="#cccccc" points="221.094,-79.0829 210.54,-80.0192 219.374,-85.8684 221.094,-79.0829"/>
</g>
</g>
</svg>
