<?xml version="1.0" encoding="UTF-8" standalone="no"?>
<!DOCTYPE svg PUBLIC "-//W3C//DTD SVG 1.1//EN"
 "http://www.w3.org/Graphics/SVG/1.1/DTD/svg11.dtd">
<!-- Generated by graphviz version 2.36.0 (20140111.2315)
 -->
<!-- Title: String.UnicodeScalarView &#45; Type Hierarchy &#45; SwiftDoc.org Pages: 1 -->
<svg width="637pt" height="543pt"
 viewBox="0.00 0.00 637.40 543.20" xmlns="http://www.w3.org/2000/svg" xmlns:xlink="http://www.w3.org/1999/xlink">
<g id="graph0" class="graph" transform="scale(1 1) rotate(0) translate(7.2 485.6)">
<title>String.UnicodeScalarView &#45; Type Hierarchy &#45; SwiftDoc.org</title>
<polygon fill="white" stroke="none" points="-7.2,57.6 -7.2,-485.6 630.2,-485.6 630.2,57.6 -7.2,57.6"/>
<!-- CollectionType -->
<g id="node1" class="node"><title>CollectionType</title>
<g id="a_node1"><a xlink:href="/protocol/CollectionType/" xlink:title="CollectionType">
<path fill="#999999" stroke="#999999" d="M522.704,-254C522.704,-254 449.296,-254 449.296,-254 445.63,-254 441.963,-250.333 441.963,-246.667 441.963,-246.667 441.963,-239.333 441.963,-239.333 441.963,-235.667 445.63,-232 449.296,-232 449.296,-232 522.704,-232 522.704,-232 526.37,-232 530.037,-235.667 530.037,-239.333 530.037,-239.333 530.037,-246.667 530.037,-246.667 530.037,-250.333 526.37,-254 522.704,-254"/>
<text text-anchor="middle" x="486" y="-239.4" font-family="Helvetica,sans-Serif" font-size="12.00" fill="white">CollectionType</text>
</a>
</g>
</g>
<!-- _ExtensibleCollectionType -->
<g id="node11" class="node"><title>_ExtensibleCollectionType</title>
<g id="a_node11"><a xlink:href="/protocol/_ExtensibleCollectionType/" xlink:title="_ExtensibleCollectionType">
<path fill="#999999" stroke="#999999" d="M458.733,-196C458.733,-196 323.267,-196 323.267,-196 319.601,-196 315.934,-192.333 315.934,-188.667 315.934,-188.667 315.934,-181.333 315.934,-181.333 315.934,-177.667 319.601,-174 323.267,-174 323.267,-174 458.733,-174 458.733,-174 462.399,-174 466.066,-177.667 466.066,-181.333 466.066,-181.333 466.066,-188.667 466.066,-188.667 466.066,-192.333 462.399,-196 458.733,-196"/>
<text text-anchor="middle" x="391" y="-181.4" font-family="Helvetica,sans-Serif" font-size="12.00" fill="white">_ExtensibleCollectionType</text>
</a>
</g>
</g>
<!-- CollectionType&#45;&gt;_ExtensibleCollectionType -->
<g id="edge16" class="edge"><title>CollectionType&#45;&gt;_ExtensibleCollectionType</title>
<path fill="none" stroke="#cccccc" d="M469.016,-231.988C454.516,-223.441 433.437,-211.015 416.844,-201.234"/>
<polygon fill="#cccccc" stroke="#cccccc" points="418.549,-198.177 408.157,-196.114 414.995,-204.207 418.549,-198.177"/>
</g>
<!-- _Sliceable -->
<g id="node14" class="node"><title>_Sliceable</title>
<g id="a_node14"><a xlink:href="/protocol/_Sliceable/" xlink:title="_Sliceable">
<path fill="#999999" stroke="#999999" d="M542.194,-196C542.194,-196 491.806,-196 491.806,-196 488.139,-196 484.473,-192.333 484.473,-188.667 484.473,-188.667 484.473,-181.333 484.473,-181.333 484.473,-177.667 488.139,-174 491.806,-174 491.806,-174 542.194,-174 542.194,-174 545.861,-174 549.527,-177.667 549.527,-181.333 549.527,-181.333 549.527,-188.667 549.527,-188.667 549.527,-192.333 545.861,-196 542.194,-196"/>
<text text-anchor="middle" x="517" y="-181.4" font-family="Helvetica,sans-Serif" font-size="12.00" fill="white">_Sliceable</text>
</a>
</g>
</g>
<!-- CollectionType&#45;&gt;_Sliceable -->
<g id="edge9" class="edge"><title>CollectionType&#45;&gt;_Sliceable</title>
<path fill="none" stroke="#cccccc" d="M491.542,-231.988C495.635,-224.595 501.334,-214.301 506.302,-205.325"/>
<polygon fill="#cccccc" stroke="#cccccc" points="509.515,-206.748 511.296,-196.304 503.391,-203.358 509.515,-206.748"/>
</g>
<!-- DebugPrintable -->
<g id="node2" class="node"><title>DebugPrintable</title>
<g id="a_node2"><a xlink:href="/protocol/DebugPrintable/" xlink:title="DebugPrintable">
<path fill="#999999" stroke="#999999" d="M84.7096,-80C84.7096,-80 7.29039,-80 7.29039,-80 3.62372,-80 -0.0429445,-76.3333 -0.0429445,-72.6667 -0.0429445,-72.6667 -0.0429445,-65.3333 -0.0429445,-65.3333 -0.0429445,-61.6667 3.62372,-58 7.29039,-58 7.29039,-58 84.7096,-58 84.7096,-58 88.3763,-58 92.0429,-61.6667 92.0429,-65.3333 92.0429,-65.3333 92.0429,-72.6667 92.0429,-72.6667 92.0429,-76.3333 88.3763,-80 84.7096,-80"/>
<text text-anchor="middle" x="46" y="-65.4" font-family="Helvetica,sans-Serif" font-size="12.00" fill="white">DebugPrintable</text>
</a>
</g>
</g>
<!-- String.UnicodeScalarView -->
<g id="node9" class="node"><title>String.UnicodeScalarView</title>
<g id="a_node9"><a xlink:href="/type/String.UnicodeScalarView/" xlink:title="String.UnicodeScalarView">
<polygon fill="#ee543d" stroke="#ee543d" points="442.892,-22 295.108,-22 295.108,-0 442.892,-0 442.892,-22"/>
<text text-anchor="middle" x="369" y="-7.4" font-family="Helvetica,sans-Serif" font-size="12.00" fill="white">String.UnicodeScalarView</text>
</a>
</g>
</g>
<!-- DebugPrintable&#45;&gt;String.UnicodeScalarView -->
<g id="edge5" class="edge"><title>DebugPrintable&#45;&gt;String.UnicodeScalarView</title>
<path fill="none" stroke="#cccccc" d="M92.2076,-59.5645C95.1824,-59.032 98.1329,-58.5067 101,-58 168.366,-46.0947 245.339,-32.9282 299.457,-23.7431"/>
<polygon fill="#cccccc" stroke="#cccccc" points="300.353,-27.1411 309.627,-22.0182 299.182,-20.2397 300.353,-27.1411"/>
</g>
<!-- ExtensibleCollectionType -->
<g id="node3" class="node"><title>ExtensibleCollectionType</title>
<g id="a_node3"><a xlink:href="/protocol/ExtensibleCollectionType/" xlink:title="ExtensibleCollectionType">
<path fill="#999999" stroke="#999999" d="M455.727,-138C455.727,-138 326.273,-138 326.273,-138 322.607,-138 318.94,-134.333 318.94,-130.667 318.94,-130.667 318.94,-123.333 318.94,-123.333 318.94,-119.667 322.607,-116 326.273,-116 326.273,-116 455.727,-116 455.727,-116 459.393,-116 463.06,-119.667 463.06,-123.333 463.06,-123.333 463.06,-130.667 463.06,-130.667 463.06,-134.333 459.393,-138 455.727,-138"/>
<text text-anchor="middle" x="391" y="-123.4" font-family="Helvetica,sans-Serif" font-size="12.00" fill="white">ExtensibleCollectionType</text>
</a>
</g>
</g>
<!-- RangeReplaceableCollectionType -->
<g id="node5" class="node"><title>RangeReplaceableCollectionType</title>
<g id="a_node5"><a xlink:href="/protocol/RangeReplaceableCollectionType/" xlink:title="RangeReplaceableCollectionType">
<path fill="#999999" stroke="#999999" d="M456.76,-80C456.76,-80 281.24,-80 281.24,-80 277.573,-80 273.906,-76.3333 273.906,-72.6667 273.906,-72.6667 273.906,-65.3333 273.906,-65.3333 273.906,-61.6667 277.573,-58 281.24,-58 281.24,-58 456.76,-58 456.76,-58 460.427,-58 464.094,-61.6667 464.094,-65.3333 464.094,-65.3333 464.094,-72.6667 464.094,-72.6667 464.094,-76.3333 460.427,-80 456.76,-80"/>
<text text-anchor="middle" x="369" y="-65.4" font-family="Helvetica,sans-Serif" font-size="12.00" fill="white">RangeReplaceableCollectionType</text>
</a>
</g>
</g>
<!-- ExtensibleCollectionType&#45;&gt;RangeReplaceableCollectionType -->
<g id="edge17" class="edge"><title>ExtensibleCollectionType&#45;&gt;RangeReplaceableCollectionType</title>
<path fill="none" stroke="#cccccc" d="M387.067,-115.988C384.193,-108.674 380.204,-98.5192 376.705,-89.6122"/>
<polygon fill="#cccccc" stroke="#cccccc" points="379.962,-88.3316 373.048,-80.3039 373.447,-90.8912 379.962,-88.3316"/>
</g>
<!-- ExtensibleCollectionType&#45;&gt;String.UnicodeScalarView -->
<g id="edge6" class="edge"><title>ExtensibleCollectionType&#45;&gt;String.UnicodeScalarView</title>
<path fill="none" stroke="#cccccc" d="M421.3,-115.92C451.009,-104.302 489.601,-83.4947 473,-58 463.094,-42.7867 446.886,-32.5675 430.182,-25.7176"/>
<polygon fill="#cccccc" stroke="#cccccc" points="430.926,-22.2605 420.333,-22.0615 428.49,-28.8229 430.926,-22.2605"/>
</g>
<!-- Printable -->
<g id="node4" class="node"><title>Printable</title>
<g id="a_node4"><a xlink:href="/protocol/Printable/" xlink:title="Printable">
<path fill="#999999" stroke="#999999" d="M160.187,-80C160.187,-80 117.813,-80 117.813,-80 114.147,-80 110.48,-76.3333 110.48,-72.6667 110.48,-72.6667 110.48,-65.3333 110.48,-65.3333 110.48,-61.6667 114.147,-58 117.813,-58 117.813,-58 160.187,-58 160.187,-58 163.853,-58 167.52,-61.6667 167.52,-65.3333 167.52,-65.3333 167.52,-72.6667 167.52,-72.6667 167.52,-76.3333 163.853,-80 160.187,-80"/>
<text text-anchor="middle" x="139" y="-65.4" font-family="Helvetica,sans-Serif" font-size="12.00" fill="white">Printable</text>
</a>
</g>
</g>
<!-- Printable&#45;&gt;String.UnicodeScalarView -->
<g id="edge4" class="edge"><title>Printable&#45;&gt;String.UnicodeScalarView</title>
<path fill="none" stroke="#cccccc" d="M167.616,-60.3968C170.78,-59.5778 173.957,-58.7649 177,-58 223.842,-46.2269 277.287,-33.4778 315.875,-24.3939"/>
<polygon fill="#cccccc" stroke="#cccccc" points="316.915,-27.745 325.849,-22.0498 315.314,-20.9307 316.915,-27.745"/>
</g>
<!-- RangeReplaceableCollectionType&#45;&gt;String.UnicodeScalarView -->
<g id="edge7" class="edge"><title>RangeReplaceableCollectionType&#45;&gt;String.UnicodeScalarView</title>
<path fill="none" stroke="#cccccc" d="M369,-57.9883C369,-50.9098 369,-41.1714 369,-32.4779"/>
<polygon fill="#cccccc" stroke="#cccccc" points="372.5,-32.3038 369,-22.3039 365.5,-32.3039 372.5,-32.3038"/>
</g>
<!-- Reflectable -->
<g id="node6" class="node"><title>Reflectable</title>
<g id="a_node6"><a xlink:href="/protocol/Reflectable/" xlink:title="Reflectable">
<path fill="#999999" stroke="#999999" d="M248.693,-80C248.693,-80 193.307,-80 193.307,-80 189.64,-80 185.974,-76.3333 185.974,-72.6667 185.974,-72.6667 185.974,-65.3333 185.974,-65.3333 185.974,-61.6667 189.64,-58 193.307,-58 193.307,-58 248.693,-58 248.693,-58 252.36,-58 256.026,-61.6667 256.026,-65.3333 256.026,-65.3333 256.026,-72.6667 256.026,-72.6667 256.026,-76.3333 252.36,-80 248.693,-80"/>
<text text-anchor="middle" x="221" y="-65.4" font-family="Helvetica,sans-Serif" font-size="12.00" fill="white">Reflectable</text>
</a>
</g>
</g>
<!-- Reflectable&#45;&gt;String.UnicodeScalarView -->
<g id="edge3" class="edge"><title>Reflectable&#45;&gt;String.UnicodeScalarView</title>
<path fill="none" stroke="#cccccc" d="M247.459,-57.9883C271.199,-49.0057 306.259,-35.7398 332.631,-25.7614"/>
<polygon fill="#cccccc" stroke="#cccccc" points="334.156,-28.9263 342.271,-22.1138 331.679,-22.3793 334.156,-28.9263"/>
</g>
<!-- SequenceType -->
<g id="node7" class="node"><title>SequenceType</title>
<g id="a_node7"><a xlink:href="/protocol/SequenceType/" xlink:title="SequenceType">
<path fill="#999999" stroke="#999999" d="M615.718,-312C615.718,-312 540.282,-312 540.282,-312 536.615,-312 532.949,-308.333 532.949,-304.667 532.949,-304.667 532.949,-297.333 532.949,-297.333 532.949,-293.667 536.615,-290 540.282,-290 540.282,-290 615.718,-290 615.718,-290 619.385,-290 623.051,-293.667 623.051,-297.333 623.051,-297.333 623.051,-304.667 623.051,-304.667 623.051,-308.333 619.385,-312 615.718,-312"/>
<text text-anchor="middle" x="578" y="-297.4" font-family="Helvetica,sans-Serif" font-size="12.00" fill="white">SequenceType</text>
</a>
</g>
</g>
<!-- SequenceType&#45;&gt;CollectionType -->
<g id="edge11" class="edge"><title>SequenceType&#45;&gt;CollectionType</title>
<path fill="none" stroke="#cccccc" d="M561.552,-289.988C547.64,-281.52 527.474,-269.245 511.475,-259.507"/>
<polygon fill="#cccccc" stroke="#cccccc" points="512.977,-256.324 502.616,-254.114 509.338,-262.303 512.977,-256.324"/>
</g>
<!-- SequenceType&#45;&gt;String.UnicodeScalarView -->
<g id="edge2" class="edge"><title>SequenceType&#45;&gt;String.UnicodeScalarView</title>
<path fill="none" stroke="#cccccc" d="M578,-289.935C578,-270.066 578,-224.396 578,-186 578,-186 578,-186 578,-126 578,-66.1234 511.07,-37.5075 452.961,-23.9465"/>
<polygon fill="#cccccc" stroke="#cccccc" points="453.499,-20.481 442.98,-21.7409 451.989,-27.3161 453.499,-20.481"/>
</g>
<!-- Sliceable -->
<g id="node8" class="node"><title>Sliceable</title>
<g id="a_node8"><a xlink:href="/protocol/Sliceable/" xlink:title="Sliceable">
<path fill="#999999" stroke="#999999" d="M540.691,-138C540.691,-138 497.309,-138 497.309,-138 493.642,-138 489.975,-134.333 489.975,-130.667 489.975,-130.667 489.975,-123.333 489.975,-123.333 489.975,-119.667 493.642,-116 497.309,-116 497.309,-116 540.691,-116 540.691,-116 544.358,-116 548.025,-119.667 548.025,-123.333 548.025,-123.333 548.025,-130.667 548.025,-130.667 548.025,-134.333 544.358,-138 540.691,-138"/>
<text text-anchor="middle" x="519" y="-123.4" font-family="Helvetica,sans-Serif" font-size="12.00" fill="white">Sliceable</text>
</a>
</g>
</g>
<!-- Sliceable&#45;&gt;String.UnicodeScalarView -->
<g id="edge1" class="edge"><title>Sliceable&#45;&gt;String.UnicodeScalarView</title>
<path fill="none" stroke="#cccccc" d="M517.086,-115.813C513.821,-101.126 505.824,-74.0124 489,-58 472.676,-42.4637 450.553,-32.0263 429.748,-25.0828"/>
<polygon fill="#cccccc" stroke="#cccccc" points="430.58,-21.6759 419.991,-22.0403 428.496,-28.3585 430.58,-21.6759"/>
</g>
<!-- _CollectionType -->
<g id="node10" class="node"><title>_CollectionType</title>
<g id="a_node10"><a xlink:href="/protocol/_CollectionType/" xlink:title="_CollectionType">
<path fill="#999999" stroke="#999999" d="M507.208,-312C507.208,-312 426.792,-312 426.792,-312 423.126,-312 419.459,-308.333 419.459,-304.667 419.459,-304.667 419.459,-297.333 419.459,-297.333 419.459,-293.667 423.126,-290 426.792,-290 426.792,-290 507.208,-290 507.208,-290 510.874,-290 514.541,-293.667 514.541,-297.333 514.541,-297.333 514.541,-304.667 514.541,-304.667 514.541,-308.333 510.874,-312 507.208,-312"/>
<text text-anchor="middle" x="467" y="-297.4" font-family="Helvetica,sans-Serif" font-size="12.00" fill="white">_CollectionType</text>
</a>
</g>
</g>
<!-- _CollectionType&#45;&gt;CollectionType -->
<g id="edge10" class="edge"><title>_CollectionType&#45;&gt;CollectionType</title>
<path fill="none" stroke="#cccccc" d="M470.397,-289.988C472.852,-282.752 476.25,-272.737 479.248,-263.9"/>
<polygon fill="#cccccc" stroke="#cccccc" points="482.605,-264.898 482.504,-254.304 475.977,-262.649 482.605,-264.898"/>
</g>
<!-- _ExtensibleCollectionType&#45;&gt;ExtensibleCollectionType -->
<g id="edge15" class="edge"><title>_ExtensibleCollectionType&#45;&gt;ExtensibleCollectionType</title>
<path fill="none" stroke="#cccccc" d="M391,-173.988C391,-166.91 391,-157.171 391,-148.478"/>
<polygon fill="#cccccc" stroke="#cccccc" points="394.5,-148.304 391,-138.304 387.5,-148.304 394.5,-148.304"/>
</g>
<!-- _SequenceType -->
<g id="node12" class="node"><title>_SequenceType</title>
<g id="a_node12"><a xlink:href="/protocol/_SequenceType/" xlink:title="_SequenceType">
<path fill="#999999" stroke="#999999" d="M566.724,-428C566.724,-428 485.276,-428 485.276,-428 481.609,-428 477.943,-424.333 477.943,-420.667 477.943,-420.667 477.943,-413.333 477.943,-413.333 477.943,-409.667 481.609,-406 485.276,-406 485.276,-406 566.724,-406 566.724,-406 570.391,-406 574.057,-409.667 574.057,-413.333 574.057,-413.333 574.057,-420.667 574.057,-420.667 574.057,-424.333 570.391,-428 566.724,-428"/>
<text text-anchor="middle" x="526" y="-413.4" font-family="Helvetica,sans-Serif" font-size="12.00" fill="white">_SequenceType</text>
</a>
</g>
</g>
<!-- _SequenceType&#45;&gt;_CollectionType -->
<g id="edge12" class="edge"><title>_SequenceType&#45;&gt;_CollectionType</title>
<path fill="none" stroke="#cccccc" d="M520.764,-405.883C510.948,-386.917 489.633,-345.732 476.989,-321.3"/>
<polygon fill="#cccccc" stroke="#cccccc" points="480.014,-319.53 472.309,-312.258 473.797,-322.748 480.014,-319.53"/>
</g>
<!-- _Sequence_Type -->
<g id="node13" class="node"><title>_Sequence_Type</title>
<g id="a_node13"><a xlink:href="/protocol/_Sequence_Type/" xlink:title="_Sequence_Type">
<path fill="#999999" stroke="#999999" d="M614.228,-370C614.228,-370 525.772,-370 525.772,-370 522.105,-370 518.439,-366.333 518.439,-362.667 518.439,-362.667 518.439,-355.333 518.439,-355.333 518.439,-351.667 522.105,-348 525.772,-348 525.772,-348 614.228,-348 614.228,-348 617.895,-348 621.561,-351.667 621.561,-355.333 621.561,-355.333 621.561,-362.667 621.561,-362.667 621.561,-366.333 617.895,-370 614.228,-370"/>
<text text-anchor="middle" x="570" y="-355.4" font-family="Helvetica,sans-Serif" font-size="12.00" fill="white">_Sequence_Type</text>
</a>
</g>
</g>
<!-- _SequenceType&#45;&gt;_Sequence_Type -->
<g id="edge14" class="edge"><title>_SequenceType&#45;&gt;_Sequence_Type</title>
<path fill="none" stroke="#cccccc" d="M533.866,-405.988C539.922,-398.281 548.456,-387.419 555.71,-378.187"/>
<polygon fill="#cccccc" stroke="#cccccc" points="558.478,-380.329 561.904,-370.304 552.974,-376.005 558.478,-380.329"/>
</g>
<!-- _Sequence_Type&#45;&gt;SequenceType -->
<g id="edge13" class="edge"><title>_Sequence_Type&#45;&gt;SequenceType</title>
<path fill="none" stroke="#cccccc" d="M571.43,-347.988C572.441,-340.91 573.833,-331.171 575.075,-322.478"/>
<polygon fill="#cccccc" stroke="#cccccc" points="578.579,-322.698 576.528,-312.304 571.649,-321.708 578.579,-322.698"/>
</g>
<!-- _Sliceable&#45;&gt;Sliceable -->
<g id="edge8" class="edge"><title>_Sliceable&#45;&gt;Sliceable</title>
<path fill="none" stroke="#cccccc" d="M517.358,-173.988C517.61,-166.91 517.958,-157.171 518.269,-148.478"/>
<polygon fill="#cccccc" stroke="#cccccc" points="521.773,-148.422 518.632,-138.304 514.777,-148.173 521.773,-148.422"/>
</g>
</g>
</svg>
