<?xml version="1.0" encoding="UTF-8" standalone="no"?>
<!DOCTYPE svg PUBLIC "-//W3C//DTD SVG 1.1//EN"
 "http://www.w3.org/Graphics/SVG/1.1/DTD/svg11.dtd">
<!-- Generated by graphviz version 2.36.0 (20140111.2315)
 -->
<!-- Title: String.UnicodeScalarView &#45; Type Hierarchy &#45; Swifter Pages: 1 -->
<svg width="424pt" height="485pt"
 viewBox="0.00 0.00 424.40 485.20" xmlns="http://www.w3.org/2000/svg" xmlns:xlink="http://www.w3.org/1999/xlink">
<g id="graph0" class="graph" transform="scale(1 1) rotate(0) translate(7.2 427.6)">
<g transform="translate(0 -427.6)">
<g>
    <path fill="#666666" d="M13.846,10.832c-0.336-0.464-0.792-0.844-1.368-1.14s-1.224-0.444-1.944-0.444
        c-0.384,0-0.772,0.052-1.164,0.156C8.977,9.509,8.622,9.677,8.301,9.908c-0.32,0.232-0.58,0.52-0.78,0.864
        c-0.2,0.344-0.3,0.756-0.3,1.236c0,0.464,0.092,0.852,0.276,1.164c0.184,0.312,0.432,0.576,0.744,0.792s0.68,0.4,1.104,0.552
        c0.423,0.152,0.876,0.309,1.356,0.468c0.576,0.177,1.16,0.376,1.752,0.601c0.592,0.224,1.128,0.52,1.608,0.888
        s0.872,0.828,1.176,1.38s0.456,1.252,0.456,2.101c0,0.88-0.164,1.644-0.492,2.292c-0.328,0.647-0.765,1.184-1.308,1.607
        c-0.544,0.424-1.172,0.74-1.884,0.948s-1.444,0.312-2.196,0.312c-1.072,0-2.108-0.208-3.108-0.624
        c-1-0.415-1.828-1.031-2.484-1.848l1.848-1.56c0.4,0.592,0.936,1.071,1.608,1.439c0.672,0.368,1.399,0.552,2.184,0.552
        c0.4,0,0.8-0.056,1.2-0.168c0.4-0.111,0.764-0.288,1.092-0.527c0.328-0.24,0.596-0.54,0.804-0.9
        c0.208-0.36,0.312-0.796,0.312-1.308s-0.108-0.94-0.324-1.284c-0.216-0.344-0.508-0.636-0.876-0.876s-0.796-0.444-1.284-0.612
        c-0.488-0.168-1.004-0.34-1.548-0.516c-0.544-0.16-1.08-0.356-1.608-0.588c-0.528-0.232-1-0.528-1.416-0.889
        c-0.416-0.359-0.752-0.804-1.008-1.332c-0.256-0.527-0.384-1.184-0.384-1.968c0-0.848,0.172-1.576,0.516-2.184
        c0.344-0.608,0.792-1.112,1.344-1.512c0.552-0.4,1.176-0.692,1.872-0.876c0.696-0.184,1.396-0.276,2.1-0.276
        c0.992,0,1.92,0.176,2.784,0.528c0.864,0.352,1.56,0.824,2.088,1.416L13.846,10.832z"/>
    <path fill="#666666" d="M18.813,13.304l2.568,8.688h0.048l2.712-8.688h2.376l2.76,8.688h0.048l2.568-8.688h2.376L30.501,24.68
        h-2.352l-2.808-8.544h-0.048l-2.784,8.544h-2.352l-3.792-11.376H18.813z"/>
    <path fill="#666666" d="M38.685,9.2c0,0.416-0.147,0.76-0.44,1.032c-0.294,0.272-0.647,0.408-1.06,0.408s-0.762-0.14-1.047-0.42
        c-0.286-0.28-0.429-0.62-0.429-1.02c0-0.416,0.143-0.764,0.429-1.044c0.286-0.28,0.635-0.42,1.047-0.42s0.766,0.14,1.06,0.42
        C38.538,8.437,38.685,8.784,38.685,9.2z M38.325,24.68h-2.256V13.304h2.256V24.68z"/>
    <path fill="#666666" d="M47.613,15.152h-2.64v9.528h-2.256v-9.528h-2.256v-1.848h2.256v-2.376c0-0.672,0.076-1.292,0.228-1.86
        c0.152-0.568,0.4-1.06,0.744-1.476c0.344-0.416,0.784-0.744,1.32-0.984c0.536-0.24,1.188-0.36,1.956-0.36
        c0.544,0,1.016,0.056,1.416,0.168l-0.264,1.944c-0.176-0.048-0.352-0.088-0.528-0.12c-0.176-0.032-0.376-0.048-0.6-0.048
        c-0.432,0-0.78,0.076-1.044,0.228c-0.264,0.152-0.468,0.356-0.612,0.612s-0.24,0.548-0.288,0.876
        c-0.048,0.328-0.072,0.668-0.072,1.02v2.376h2.64V15.152z"/>
    <path fill="#666666" d="M54.909,15.152h-3.024v5.91c0,0.687,0.128,1.177,0.384,1.472c0.256,0.295,0.664,0.442,1.224,0.442
        c0.208,0,0.432-0.021,0.672-0.065c0.24-0.044,0.456-0.11,0.648-0.198l0.072,1.848c-0.272,0.096-0.572,0.172-0.9,0.229
        c-0.328,0.056-0.668,0.084-1.02,0.084c-1.072,0-1.892-0.296-2.46-0.889c-0.568-0.592-0.852-1.479-0.852-2.664v-6.168h-2.184
        v-1.848h2.184V10.04h2.232v3.264h3.024V15.152z"/>
    <path fill="#666666" d="M57.356,7.688h5.832c1.088,0,2.176,0.16,3.264,0.48c1.088,0.32,2.072,0.824,2.952,1.512
        s1.592,1.568,2.136,2.64c0.544,1.072,0.816,2.36,0.816,3.864c0,1.456-0.272,2.716-0.816,3.78s-1.256,1.943-2.136,2.64
        s-1.864,1.216-2.952,1.561c-1.088,0.344-2.176,0.516-3.264,0.516h-5.832V7.688z M59.732,22.593h2.976
        c1.024,0,1.972-0.145,2.844-0.432c0.872-0.288,1.624-0.704,2.256-1.248c0.632-0.544,1.124-1.216,1.476-2.017
        c0.352-0.8,0.528-1.704,0.528-2.712c0-1.056-0.176-1.983-0.528-2.784c-0.353-0.8-0.844-1.468-1.476-2.004
        c-0.632-0.536-1.384-0.944-2.256-1.224s-1.82-0.42-2.844-0.42h-2.976V22.593z"/>
    <path fill="#666666" d="M86.06,18.969c0,0.88-0.156,1.688-0.468,2.424c-0.312,0.736-0.744,1.372-1.296,1.908
        c-0.552,0.536-1.204,0.952-1.956,1.248c-0.752,0.296-1.56,0.443-2.424,0.443c-0.864,0-1.672-0.147-2.424-0.443
        c-0.752-0.296-1.4-0.712-1.944-1.248c-0.544-0.536-0.972-1.172-1.284-1.908c-0.312-0.735-0.468-1.544-0.468-2.424
        s0.156-1.684,0.468-2.412c0.312-0.728,0.74-1.356,1.284-1.884c0.543-0.528,1.191-0.939,1.944-1.236
        c0.752-0.296,1.56-0.444,2.424-0.444c0.864,0,1.672,0.148,2.424,0.444c0.752,0.297,1.404,0.708,1.956,1.236
        c0.552,0.527,0.984,1.156,1.296,1.884C85.904,17.285,86.06,18.089,86.06,18.969z M83.708,18.98c0-0.542-0.084-1.061-0.252-1.556
        c-0.169-0.494-0.414-0.929-0.734-1.304s-0.718-0.674-1.192-0.897s-1.015-0.335-1.625-0.335c-0.61,0-1.152,0.111-1.625,0.335
        c-0.474,0.224-0.871,0.522-1.191,0.897c-0.321,0.375-0.566,0.81-0.734,1.304C76.184,17.92,76.1,18.438,76.1,18.98
        c0,0.543,0.084,1.062,0.253,1.556c0.168,0.495,0.413,0.934,0.734,1.316c0.321,0.383,0.718,0.686,1.191,0.909
        c0.473,0.224,1.015,0.335,1.625,0.335c0.61,0,1.151-0.111,1.625-0.335s0.871-0.526,1.192-0.909s0.565-0.821,0.734-1.316
        C83.624,20.042,83.708,19.523,83.708,18.98z"/>
    <path fill="#666666" d="M96.428,16.184c-0.24-0.368-0.6-0.676-1.08-0.924s-0.992-0.372-1.536-0.372
        c-0.592,0-1.116,0.112-1.572,0.336c-0.456,0.225-0.844,0.524-1.164,0.9c-0.32,0.376-0.564,0.812-0.732,1.308
        s-0.252,1.017-0.252,1.56c0,0.545,0.084,1.064,0.252,1.561s0.412,0.933,0.732,1.308c0.32,0.376,0.712,0.677,1.176,0.9
        c0.464,0.225,0.992,0.336,1.584,0.336c0.576,0,1.1-0.111,1.572-0.336c0.472-0.224,0.86-0.528,1.164-0.912l1.512,1.368
        c-0.48,0.561-1.08,0.996-1.8,1.308c-0.72,0.312-1.536,0.468-2.448,0.468c-0.88,0-1.692-0.144-2.436-0.432
        c-0.744-0.288-1.388-0.691-1.932-1.212c-0.544-0.52-0.972-1.147-1.284-1.884s-0.468-1.561-0.468-2.473
        c0-0.896,0.152-1.711,0.456-2.447c0.304-0.736,0.728-1.368,1.272-1.896c0.543-0.527,1.188-0.936,1.932-1.224
        c0.744-0.288,1.548-0.433,2.412-0.433c0.8,0,1.596,0.16,2.388,0.48s1.419,0.784,1.884,1.392L96.428,16.184z"/>
    <path fill="#666666" d="M103.1,23.24c0,0.417-0.152,0.784-0.456,1.104c-0.304,0.32-0.688,0.479-1.152,0.479
        c-0.448,0-0.828-0.155-1.14-0.468c-0.312-0.312-0.468-0.676-0.468-1.092c0-0.432,0.152-0.804,0.456-1.116
        c0.304-0.312,0.688-0.468,1.152-0.468c0.464,0,0.848,0.152,1.152,0.456C102.947,22.44,103.1,22.808,103.1,23.24z"/>
    <path fill="#666666" d="M116.635,18.969c0,0.88-0.156,1.688-0.468,2.424c-0.312,0.736-0.744,1.372-1.296,1.908
        c-0.552,0.536-1.204,0.952-1.956,1.248c-0.752,0.296-1.56,0.443-2.424,0.443c-0.864,0-1.672-0.147-2.424-0.443
        c-0.752-0.296-1.4-0.712-1.944-1.248c-0.544-0.536-0.972-1.172-1.284-1.908c-0.312-0.735-0.468-1.544-0.468-2.424
        s0.156-1.684,0.468-2.412c0.312-0.728,0.74-1.356,1.284-1.884c0.543-0.528,1.191-0.939,1.944-1.236
        c0.752-0.296,1.56-0.444,2.424-0.444c0.864,0,1.672,0.148,2.424,0.444c0.752,0.297,1.404,0.708,1.956,1.236
        c0.552,0.527,0.984,1.156,1.296,1.884C116.479,17.285,116.635,18.089,116.635,18.969z M114.283,18.98
        c0-0.542-0.084-1.061-0.252-1.556c-0.169-0.494-0.414-0.929-0.734-1.304s-0.718-0.674-1.192-0.897s-1.015-0.335-1.625-0.335
        c-0.61,0-1.152,0.111-1.625,0.335c-0.474,0.224-0.871,0.522-1.191,0.897c-0.321,0.375-0.566,0.81-0.734,1.304
        c-0.169,0.495-0.253,1.014-0.253,1.556c0,0.543,0.084,1.062,0.253,1.556c0.168,0.495,0.413,0.934,0.734,1.316
        c0.321,0.383,0.718,0.686,1.191,0.909c0.473,0.224,1.015,0.335,1.625,0.335c0.61,0,1.151-0.111,1.625-0.335
        s0.871-0.526,1.192-0.909s0.565-0.821,0.734-1.316C114.199,20.042,114.283,19.523,114.283,18.98z"/>
    <path fill="#666666" d="M119.251,14.577c-0.016-0.48-0.04-0.904-0.072-1.272h2.136c0.032,0.288,0.056,0.62,0.072,0.996
        c0.016,0.376,0.024,0.684,0.024,0.924h0.072c0.32-0.672,0.788-1.212,1.404-1.62c0.616-0.408,1.308-0.612,2.076-0.612
        c0.352,0,0.648,0.033,0.888,0.097l-0.096,2.088c-0.32-0.08-0.664-0.12-1.032-0.12c-0.544,0-1.016,0.101-1.416,0.3
        c-0.4,0.2-0.732,0.468-0.996,0.805c-0.264,0.336-0.46,0.724-0.588,1.163c-0.128,0.44-0.192,0.9-0.192,1.381v5.976h-2.256v-8.928
        C119.275,15.449,119.267,15.056,119.251,14.577z"/>
    <path fill="#666666" d="M128.419,26.625c0.496,0.56,1.116,1.008,1.86,1.344c0.744,0.336,1.508,0.504,2.292,0.504
        c0.752,0,1.384-0.108,1.896-0.324s0.924-0.512,1.236-0.888s0.536-0.82,0.672-1.332c0.136-0.513,0.204-1.064,0.204-1.656v-1.464
        h-0.048c-0.416,0.641-0.984,1.128-1.704,1.464c-0.72,0.336-1.488,0.504-2.304,0.504c-0.864,0-1.652-0.151-2.364-0.456
        c-0.712-0.304-1.316-0.72-1.812-1.248c-0.496-0.527-0.88-1.147-1.152-1.859s-0.408-1.477-0.408-2.292
        c0-0.816,0.136-1.584,0.408-2.305c0.272-0.72,0.656-1.348,1.152-1.884c0.496-0.535,1.096-0.96,1.8-1.271
        c0.704-0.312,1.488-0.469,2.352-0.469c0.816,0,1.596,0.177,2.34,0.528c0.744,0.353,1.332,0.888,1.764,1.608h0.048v-1.824h2.184
        v10.8c0,0.832-0.104,1.628-0.312,2.388c-0.208,0.76-0.56,1.433-1.056,2.017s-1.144,1.052-1.944,1.404
        c-0.8,0.352-1.792,0.527-2.976,0.527c-0.992,0-1.988-0.18-2.988-0.54c-1-0.359-1.86-0.868-2.58-1.523L128.419,26.625z
         M129.091,18.873c0,0.527,0.084,1.031,0.253,1.512c0.168,0.479,0.417,0.904,0.746,1.271c0.329,0.369,0.726,0.664,1.192,0.889
        c0.465,0.224,0.995,0.336,1.589,0.336c0.577,0,1.107-0.104,1.589-0.312c0.481-0.207,0.891-0.491,1.228-0.852
        s0.598-0.784,0.782-1.272c0.185-0.487,0.277-1.012,0.277-1.571c0-0.544-0.093-1.057-0.277-1.536
        c-0.185-0.48-0.449-0.904-0.794-1.272c-0.345-0.367-0.755-0.66-1.228-0.876c-0.474-0.216-1-0.324-1.577-0.324
        c-0.594,0-1.124,0.108-1.589,0.324c-0.466,0.216-0.863,0.504-1.192,0.864s-0.578,0.784-0.746,1.271
        C129.175,17.812,129.091,18.329,129.091,18.873z"/>
</g>
<g><a xlink:href="/" pointer-events="all" target="_top"><polygon fill="none" points="0,0 145,0 145,35 0,35 0,0"/></a></g>

</g>


<!-- CollectionType -->
<g id="node1" class="node">
<g id="a_node1"><a xlink:href="/protocol/CollectionType/" target="_top">
<path fill="#999999" stroke="#999999" d="M329.704,-196C329.704,-196 256.296,-196 256.296,-196 252.63,-196 248.963,-192.333 248.963,-188.667 248.963,-188.667 248.963,-181.333 248.963,-181.333 248.963,-177.667 252.63,-174 256.296,-174 256.296,-174 329.704,-174 329.704,-174 333.37,-174 337.037,-177.667 337.037,-181.333 337.037,-181.333 337.037,-188.667 337.037,-188.667 337.037,-192.333 333.37,-196 329.704,-196"/>
<text text-anchor="middle" x="293" y="-181.4" font-family="Helvetica,sans-Serif" font-size="12.00" fill="white">CollectionType</text>
</a>
</g>
</g>
<!-- _Sliceable -->
<g id="node11" class="node">
<g id="a_node11"><a xlink:href="/protocol/_Sliceable/" target="_top">
<path fill="#999999" stroke="#999999" d="M324.194,-138C324.194,-138 273.806,-138 273.806,-138 270.139,-138 266.473,-134.333 266.473,-130.667 266.473,-130.667 266.473,-123.333 266.473,-123.333 266.473,-119.667 270.139,-116 273.806,-116 273.806,-116 324.194,-116 324.194,-116 327.861,-116 331.527,-119.667 331.527,-123.333 331.527,-123.333 331.527,-130.667 331.527,-130.667 331.527,-134.333 327.861,-138 324.194,-138"/>
<text text-anchor="middle" x="299" y="-123.4" font-family="Helvetica,sans-Serif" font-size="12.00" fill="white">_Sliceable</text>
</a>
</g>
</g>
<!-- CollectionType&#45;&gt;_Sliceable -->
<g id="edge7" class="edge">
<path fill="none" stroke="#cccccc" d="M294.073,-173.988C294.831,-166.91 295.874,-157.171 296.806,-148.478"/>
<polygon fill="#cccccc" stroke="#cccccc" points="300.311,-148.62 297.896,-138.304 293.351,-147.874 300.311,-148.62"/>
</g>
<!-- DebugPrintable -->
<g id="node2" class="node">
<g id="a_node2"><a xlink:href="/protocol/DebugPrintable/" target="_top">
<path fill="#999999" stroke="#999999" d="M85.7096,-80C85.7096,-80 8.29039,-80 8.29039,-80 4.62372,-80 0.957055,-76.3333 0.957055,-72.6667 0.957055,-72.6667 0.957055,-65.3333 0.957055,-65.3333 0.957055,-61.6667 4.62372,-58 8.29039,-58 8.29039,-58 85.7096,-58 85.7096,-58 89.3763,-58 93.0429,-61.6667 93.0429,-65.3333 93.0429,-65.3333 93.0429,-72.6667 93.0429,-72.6667 93.0429,-76.3333 89.3763,-80 85.7096,-80"/>
<text text-anchor="middle" x="47" y="-65.4" font-family="Helvetica,sans-Serif" font-size="12.00" fill="white">DebugPrintable</text>
</a>
</g>
</g>
<!-- String.UnicodeScalarView -->
<g id="node7" class="node">
<g id="a_node7"><a xlink:href="/type/String.UnicodeScalarView/" target="_top">
<polygon fill="#ee543d" stroke="#ee543d" points="295.892,-22 148.108,-22 148.108,-0 295.892,-0 295.892,-22"/>
<text text-anchor="middle" x="222" y="-7.4" font-family="Helvetica,sans-Serif" font-size="12.00" fill="white">String.UnicodeScalarView</text>
</a>
</g>
</g>
<!-- DebugPrintable&#45;&gt;String.UnicodeScalarView -->
<g id="edge5" class="edge">
<path fill="none" stroke="#cccccc" d="M78.2865,-57.9883C106.94,-48.819 149.542,-35.1866 180.926,-25.1436"/>
<polygon fill="#cccccc" stroke="#cccccc" points="182.232,-28.4006 190.69,-22.0192 180.099,-21.7336 182.232,-28.4006"/>
</g>
<!-- Printable -->
<g id="node3" class="node">
<g id="a_node3"><a xlink:href="/protocol/Printable/" target="_top">
<path fill="#999999" stroke="#999999" d="M161.187,-80C161.187,-80 118.813,-80 118.813,-80 115.147,-80 111.48,-76.3333 111.48,-72.6667 111.48,-72.6667 111.48,-65.3333 111.48,-65.3333 111.48,-61.6667 115.147,-58 118.813,-58 118.813,-58 161.187,-58 161.187,-58 164.853,-58 168.52,-61.6667 168.52,-65.3333 168.52,-65.3333 168.52,-72.6667 168.52,-72.6667 168.52,-76.3333 164.853,-80 161.187,-80"/>
<text text-anchor="middle" x="140" y="-65.4" font-family="Helvetica,sans-Serif" font-size="12.00" fill="white">Printable</text>
</a>
</g>
</g>
<!-- Printable&#45;&gt;String.UnicodeScalarView -->
<g id="edge4" class="edge">
<path fill="none" stroke="#cccccc" d="M154.66,-57.9883C166.944,-49.5993 184.698,-37.4743 198.893,-27.7804"/>
<polygon fill="#cccccc" stroke="#cccccc" points="200.906,-30.6438 207.19,-22.1138 196.959,-24.8632 200.906,-30.6438"/>
</g>
<!-- Reflectable -->
<g id="node4" class="node">
<g id="a_node4"><a xlink:href="/protocol/Reflectable/" target="_top">
<path fill="#999999" stroke="#999999" d="M249.693,-80C249.693,-80 194.307,-80 194.307,-80 190.64,-80 186.974,-76.3333 186.974,-72.6667 186.974,-72.6667 186.974,-65.3333 186.974,-65.3333 186.974,-61.6667 190.64,-58 194.307,-58 194.307,-58 249.693,-58 249.693,-58 253.36,-58 257.026,-61.6667 257.026,-65.3333 257.026,-65.3333 257.026,-72.6667 257.026,-72.6667 257.026,-76.3333 253.36,-80 249.693,-80"/>
<text text-anchor="middle" x="222" y="-65.4" font-family="Helvetica,sans-Serif" font-size="12.00" fill="white">Reflectable</text>
</a>
</g>
</g>
<!-- Reflectable&#45;&gt;String.UnicodeScalarView -->
<g id="edge3" class="edge">
<path fill="none" stroke="#cccccc" d="M222,-57.9883C222,-50.9098 222,-41.1714 222,-32.4779"/>
<polygon fill="#cccccc" stroke="#cccccc" points="225.5,-32.3038 222,-22.3039 218.5,-32.3039 225.5,-32.3038"/>
</g>
<!-- SequenceType -->
<g id="node5" class="node">
<g id="a_node5"><a xlink:href="/protocol/SequenceType/" target="_top">
<path fill="#999999" stroke="#999999" d="M402.718,-254C402.718,-254 327.282,-254 327.282,-254 323.615,-254 319.949,-250.333 319.949,-246.667 319.949,-246.667 319.949,-239.333 319.949,-239.333 319.949,-235.667 323.615,-232 327.282,-232 327.282,-232 402.718,-232 402.718,-232 406.385,-232 410.051,-235.667 410.051,-239.333 410.051,-239.333 410.051,-246.667 410.051,-246.667 410.051,-250.333 406.385,-254 402.718,-254"/>
<text text-anchor="middle" x="365" y="-239.4" font-family="Helvetica,sans-Serif" font-size="12.00" fill="white">SequenceType</text>
</a>
</g>
</g>
<!-- SequenceType&#45;&gt;CollectionType -->
<g id="edge9" class="edge">
<path fill="none" stroke="#cccccc" d="M352.128,-231.988C341.611,-223.809 326.528,-212.077 314.228,-202.511"/>
<polygon fill="#cccccc" stroke="#cccccc" points="316.29,-199.681 306.248,-196.304 311.993,-205.206 316.29,-199.681"/>
</g>
<!-- SequenceType&#45;&gt;String.UnicodeScalarView -->
<g id="edge2" class="edge">
<path fill="none" stroke="#cccccc" d="M367.001,-231.899C372.352,-201.797 383.891,-111.472 342,-58 329.814,-42.4453 311.698,-32.1475 293.213,-25.331"/>
<polygon fill="#cccccc" stroke="#cccccc" points="294.137,-21.949 283.543,-22.0744 291.903,-28.5829 294.137,-21.949"/>
</g>
<!-- Sliceable -->
<g id="node6" class="node">
<g id="a_node6"><a xlink:href="/protocol/Sliceable/" target="_top">
<path fill="#999999" stroke="#999999" d="M325.691,-80C325.691,-80 282.309,-80 282.309,-80 278.642,-80 274.975,-76.3333 274.975,-72.6667 274.975,-72.6667 274.975,-65.3333 274.975,-65.3333 274.975,-61.6667 278.642,-58 282.309,-58 282.309,-58 325.691,-58 325.691,-58 329.358,-58 333.025,-61.6667 333.025,-65.3333 333.025,-65.3333 333.025,-72.6667 333.025,-72.6667 333.025,-76.3333 329.358,-80 325.691,-80"/>
<text text-anchor="middle" x="304" y="-65.4" font-family="Helvetica,sans-Serif" font-size="12.00" fill="white">Sliceable</text>
</a>
</g>
</g>
<!-- Sliceable&#45;&gt;String.UnicodeScalarView -->
<g id="edge1" class="edge">
<path fill="none" stroke="#cccccc" d="M289.34,-57.9883C277.056,-49.5993 259.302,-37.4743 245.107,-27.7804"/>
<polygon fill="#cccccc" stroke="#cccccc" points="247.041,-24.8632 236.81,-22.1138 243.094,-30.6438 247.041,-24.8632"/>
</g>
<!-- _CollectionType -->
<g id="node8" class="node">
<g id="a_node8"><a xlink:href="/protocol/_CollectionType/" target="_top">
<path fill="#999999" stroke="#999999" d="M294.208,-254C294.208,-254 213.792,-254 213.792,-254 210.126,-254 206.459,-250.333 206.459,-246.667 206.459,-246.667 206.459,-239.333 206.459,-239.333 206.459,-235.667 210.126,-232 213.792,-232 213.792,-232 294.208,-232 294.208,-232 297.874,-232 301.541,-235.667 301.541,-239.333 301.541,-239.333 301.541,-246.667 301.541,-246.667 301.541,-250.333 297.874,-254 294.208,-254"/>
<text text-anchor="middle" x="254" y="-239.4" font-family="Helvetica,sans-Serif" font-size="12.00" fill="white">_CollectionType</text>
</a>
</g>
</g>
<!-- _CollectionType&#45;&gt;CollectionType -->
<g id="edge8" class="edge">
<path fill="none" stroke="#cccccc" d="M260.972,-231.988C266.231,-224.438 273.597,-213.861 279.939,-204.754"/>
<polygon fill="#cccccc" stroke="#cccccc" points="282.981,-206.51 285.824,-196.304 277.237,-202.51 282.981,-206.51"/>
</g>
<!-- _SequenceType -->
<g id="node9" class="node">
<g id="a_node9"><a xlink:href="/protocol/_SequenceType/" target="_top">
<path fill="#999999" stroke="#999999" d="M353.724,-370C353.724,-370 272.276,-370 272.276,-370 268.609,-370 264.943,-366.333 264.943,-362.667 264.943,-362.667 264.943,-355.333 264.943,-355.333 264.943,-351.667 268.609,-348 272.276,-348 272.276,-348 353.724,-348 353.724,-348 357.391,-348 361.057,-351.667 361.057,-355.333 361.057,-355.333 361.057,-362.667 361.057,-362.667 361.057,-366.333 357.391,-370 353.724,-370"/>
<text text-anchor="middle" x="313" y="-355.4" font-family="Helvetica,sans-Serif" font-size="12.00" fill="white">_SequenceType</text>
</a>
</g>
</g>
<!-- _SequenceType&#45;&gt;_CollectionType -->
<g id="edge10" class="edge">
<path fill="none" stroke="#cccccc" d="M307.764,-347.883C297.948,-328.917 276.633,-287.732 263.989,-263.3"/>
<polygon fill="#cccccc" stroke="#cccccc" points="267.014,-261.53 259.309,-254.258 260.797,-264.748 267.014,-261.53"/>
</g>
<!-- _Sequence_Type -->
<g id="node10" class="node">
<g id="a_node10"><a xlink:href="/protocol/_Sequence_Type/" target="_top">
<path fill="#999999" stroke="#999999" d="M401.228,-312C401.228,-312 312.772,-312 312.772,-312 309.105,-312 305.439,-308.333 305.439,-304.667 305.439,-304.667 305.439,-297.333 305.439,-297.333 305.439,-293.667 309.105,-290 312.772,-290 312.772,-290 401.228,-290 401.228,-290 404.895,-290 408.561,-293.667 408.561,-297.333 408.561,-297.333 408.561,-304.667 408.561,-304.667 408.561,-308.333 404.895,-312 401.228,-312"/>
<text text-anchor="middle" x="357" y="-297.4" font-family="Helvetica,sans-Serif" font-size="12.00" fill="white">_Sequence_Type</text>
</a>
</g>
</g>
<!-- _SequenceType&#45;&gt;_Sequence_Type -->
<g id="edge12" class="edge">
<path fill="none" stroke="#cccccc" d="M320.866,-347.988C326.922,-340.281 335.456,-329.419 342.71,-320.187"/>
<polygon fill="#cccccc" stroke="#cccccc" points="345.478,-322.329 348.904,-312.304 339.974,-318.005 345.478,-322.329"/>
</g>
<!-- _Sequence_Type&#45;&gt;SequenceType -->
<g id="edge11" class="edge">
<path fill="none" stroke="#cccccc" d="M358.43,-289.988C359.441,-282.91 360.833,-273.171 362.075,-264.478"/>
<polygon fill="#cccccc" stroke="#cccccc" points="365.579,-264.698 363.528,-254.304 358.649,-263.708 365.579,-264.698"/>
</g>
<!-- _Sliceable&#45;&gt;Sliceable -->
<g id="edge6" class="edge">
<path fill="none" stroke="#cccccc" d="M299.894,-115.988C300.526,-108.91 301.395,-99.1714 302.172,-90.4779"/>
<polygon fill="#cccccc" stroke="#cccccc" points="305.677,-90.5755 303.08,-80.3039 298.704,-89.953 305.677,-90.5755"/>
</g>
</g>
</svg>
