<?xml version="1.0" encoding="UTF-8" standalone="no"?>
<!DOCTYPE svg PUBLIC "-//W3C//DTD SVG 1.1//EN"
 "http://www.w3.org/Graphics/SVG/1.1/DTD/svg11.dtd">
<!-- Generated by graphviz version 2.36.0 (20140111.2315)
 -->
<!-- Title: RandomAccessCollection &#45; Type Hierarchy &#45; SwiftDoc.org Pages: 1 -->
<svg width="2444pt" height="369pt"
 viewBox="0.00 0.00 2444.40 369.20" xmlns="http://www.w3.org/2000/svg" xmlns:xlink="http://www.w3.org/1999/xlink">
<g id="graph0" class="graph" transform="scale(1 1) rotate(0) translate(7.2 311.6)">
<g transform="translate(0 -311.6)">
<g>
    <path fill="#666666" d="M13.846,10.832c-0.336-0.464-0.792-0.844-1.368-1.14s-1.224-0.444-1.944-0.444
        c-0.384,0-0.772,0.052-1.164,0.156C8.977,9.509,8.622,9.677,8.301,9.908c-0.32,0.232-0.58,0.52-0.78,0.864
        c-0.2,0.344-0.3,0.756-0.3,1.236c0,0.464,0.092,0.852,0.276,1.164c0.184,0.312,0.432,0.576,0.744,0.792s0.68,0.4,1.104,0.552
        c0.423,0.152,0.876,0.309,1.356,0.468c0.576,0.177,1.16,0.376,1.752,0.601c0.592,0.224,1.128,0.52,1.608,0.888
        s0.872,0.828,1.176,1.38s0.456,1.252,0.456,2.101c0,0.88-0.164,1.644-0.492,2.292c-0.328,0.647-0.765,1.184-1.308,1.607
        c-0.544,0.424-1.172,0.74-1.884,0.948s-1.444,0.312-2.196,0.312c-1.072,0-2.108-0.208-3.108-0.624
        c-1-0.415-1.828-1.031-2.484-1.848l1.848-1.56c0.4,0.592,0.936,1.071,1.608,1.439c0.672,0.368,1.399,0.552,2.184,0.552
        c0.4,0,0.8-0.056,1.2-0.168c0.4-0.111,0.764-0.288,1.092-0.527c0.328-0.24,0.596-0.54,0.804-0.9
        c0.208-0.36,0.312-0.796,0.312-1.308s-0.108-0.94-0.324-1.284c-0.216-0.344-0.508-0.636-0.876-0.876s-0.796-0.444-1.284-0.612
        c-0.488-0.168-1.004-0.34-1.548-0.516c-0.544-0.16-1.08-0.356-1.608-0.588c-0.528-0.232-1-0.528-1.416-0.889
        c-0.416-0.359-0.752-0.804-1.008-1.332c-0.256-0.527-0.384-1.184-0.384-1.968c0-0.848,0.172-1.576,0.516-2.184
        c0.344-0.608,0.792-1.112,1.344-1.512c0.552-0.4,1.176-0.692,1.872-0.876c0.696-0.184,1.396-0.276,2.1-0.276
        c0.992,0,1.92,0.176,2.784,0.528c0.864,0.352,1.56,0.824,2.088,1.416L13.846,10.832z"/>
    <path fill="#666666" d="M18.813,13.304l2.568,8.688h0.048l2.712-8.688h2.376l2.76,8.688h0.048l2.568-8.688h2.376L30.501,24.68
        h-2.352l-2.808-8.544h-0.048l-2.784,8.544h-2.352l-3.792-11.376H18.813z"/>
    <path fill="#666666" d="M38.685,9.2c0,0.416-0.147,0.76-0.44,1.032c-0.294,0.272-0.647,0.408-1.06,0.408s-0.762-0.14-1.047-0.42
        c-0.286-0.28-0.429-0.62-0.429-1.02c0-0.416,0.143-0.764,0.429-1.044c0.286-0.28,0.635-0.42,1.047-0.42s0.766,0.14,1.06,0.42
        C38.538,8.437,38.685,8.784,38.685,9.2z M38.325,24.68h-2.256V13.304h2.256V24.68z"/>
    <path fill="#666666" d="M47.613,15.152h-2.64v9.528h-2.256v-9.528h-2.256v-1.848h2.256v-2.376c0-0.672,0.076-1.292,0.228-1.86
        c0.152-0.568,0.4-1.06,0.744-1.476c0.344-0.416,0.784-0.744,1.32-0.984c0.536-0.24,1.188-0.36,1.956-0.36
        c0.544,0,1.016,0.056,1.416,0.168l-0.264,1.944c-0.176-0.048-0.352-0.088-0.528-0.12c-0.176-0.032-0.376-0.048-0.6-0.048
        c-0.432,0-0.78,0.076-1.044,0.228c-0.264,0.152-0.468,0.356-0.612,0.612s-0.24,0.548-0.288,0.876
        c-0.048,0.328-0.072,0.668-0.072,1.02v2.376h2.64V15.152z"/>
    <path fill="#666666" d="M54.909,15.152h-3.024v5.91c0,0.687,0.128,1.177,0.384,1.472c0.256,0.295,0.664,0.442,1.224,0.442
        c0.208,0,0.432-0.021,0.672-0.065c0.24-0.044,0.456-0.11,0.648-0.198l0.072,1.848c-0.272,0.096-0.572,0.172-0.9,0.229
        c-0.328,0.056-0.668,0.084-1.02,0.084c-1.072,0-1.892-0.296-2.46-0.889c-0.568-0.592-0.852-1.479-0.852-2.664v-6.168h-2.184
        v-1.848h2.184V10.04h2.232v3.264h3.024V15.152z"/>
    <path fill="#666666" d="M57.356,7.688h5.832c1.088,0,2.176,0.16,3.264,0.48c1.088,0.32,2.072,0.824,2.952,1.512
        s1.592,1.568,2.136,2.64c0.544,1.072,0.816,2.36,0.816,3.864c0,1.456-0.272,2.716-0.816,3.78s-1.256,1.943-2.136,2.64
        s-1.864,1.216-2.952,1.561c-1.088,0.344-2.176,0.516-3.264,0.516h-5.832V7.688z M59.732,22.593h2.976
        c1.024,0,1.972-0.145,2.844-0.432c0.872-0.288,1.624-0.704,2.256-1.248c0.632-0.544,1.124-1.216,1.476-2.017
        c0.352-0.8,0.528-1.704,0.528-2.712c0-1.056-0.176-1.983-0.528-2.784c-0.353-0.8-0.844-1.468-1.476-2.004
        c-0.632-0.536-1.384-0.944-2.256-1.224s-1.82-0.42-2.844-0.42h-2.976V22.593z"/>
    <path fill="#666666" d="M86.06,18.969c0,0.88-0.156,1.688-0.468,2.424c-0.312,0.736-0.744,1.372-1.296,1.908
        c-0.552,0.536-1.204,0.952-1.956,1.248c-0.752,0.296-1.56,0.443-2.424,0.443c-0.864,0-1.672-0.147-2.424-0.443
        c-0.752-0.296-1.4-0.712-1.944-1.248c-0.544-0.536-0.972-1.172-1.284-1.908c-0.312-0.735-0.468-1.544-0.468-2.424
        s0.156-1.684,0.468-2.412c0.312-0.728,0.74-1.356,1.284-1.884c0.543-0.528,1.191-0.939,1.944-1.236
        c0.752-0.296,1.56-0.444,2.424-0.444c0.864,0,1.672,0.148,2.424,0.444c0.752,0.297,1.404,0.708,1.956,1.236
        c0.552,0.527,0.984,1.156,1.296,1.884C85.904,17.285,86.06,18.089,86.06,18.969z M83.708,18.98c0-0.542-0.084-1.061-0.252-1.556
        c-0.169-0.494-0.414-0.929-0.734-1.304s-0.718-0.674-1.192-0.897s-1.015-0.335-1.625-0.335c-0.61,0-1.152,0.111-1.625,0.335
        c-0.474,0.224-0.871,0.522-1.191,0.897c-0.321,0.375-0.566,0.81-0.734,1.304C76.184,17.92,76.1,18.438,76.1,18.98
        c0,0.543,0.084,1.062,0.253,1.556c0.168,0.495,0.413,0.934,0.734,1.316c0.321,0.383,0.718,0.686,1.191,0.909
        c0.473,0.224,1.015,0.335,1.625,0.335c0.61,0,1.151-0.111,1.625-0.335s0.871-0.526,1.192-0.909s0.565-0.821,0.734-1.316
        C83.624,20.042,83.708,19.523,83.708,18.98z"/>
    <path fill="#666666" d="M96.428,16.184c-0.24-0.368-0.6-0.676-1.08-0.924s-0.992-0.372-1.536-0.372
        c-0.592,0-1.116,0.112-1.572,0.336c-0.456,0.225-0.844,0.524-1.164,0.9c-0.32,0.376-0.564,0.812-0.732,1.308
        s-0.252,1.017-0.252,1.56c0,0.545,0.084,1.064,0.252,1.561s0.412,0.933,0.732,1.308c0.32,0.376,0.712,0.677,1.176,0.9
        c0.464,0.225,0.992,0.336,1.584,0.336c0.576,0,1.1-0.111,1.572-0.336c0.472-0.224,0.86-0.528,1.164-0.912l1.512,1.368
        c-0.48,0.561-1.08,0.996-1.8,1.308c-0.72,0.312-1.536,0.468-2.448,0.468c-0.88,0-1.692-0.144-2.436-0.432
        c-0.744-0.288-1.388-0.691-1.932-1.212c-0.544-0.52-0.972-1.147-1.284-1.884s-0.468-1.561-0.468-2.473
        c0-0.896,0.152-1.711,0.456-2.447c0.304-0.736,0.728-1.368,1.272-1.896c0.543-0.527,1.188-0.936,1.932-1.224
        c0.744-0.288,1.548-0.433,2.412-0.433c0.8,0,1.596,0.16,2.388,0.48s1.419,0.784,1.884,1.392L96.428,16.184z"/>
    <path fill="#666666" d="M103.1,23.24c0,0.417-0.152,0.784-0.456,1.104c-0.304,0.32-0.688,0.479-1.152,0.479
        c-0.448,0-0.828-0.155-1.14-0.468c-0.312-0.312-0.468-0.676-0.468-1.092c0-0.432,0.152-0.804,0.456-1.116
        c0.304-0.312,0.688-0.468,1.152-0.468c0.464,0,0.848,0.152,1.152,0.456C102.947,22.44,103.1,22.808,103.1,23.24z"/>
    <path fill="#666666" d="M116.635,18.969c0,0.88-0.156,1.688-0.468,2.424c-0.312,0.736-0.744,1.372-1.296,1.908
        c-0.552,0.536-1.204,0.952-1.956,1.248c-0.752,0.296-1.56,0.443-2.424,0.443c-0.864,0-1.672-0.147-2.424-0.443
        c-0.752-0.296-1.4-0.712-1.944-1.248c-0.544-0.536-0.972-1.172-1.284-1.908c-0.312-0.735-0.468-1.544-0.468-2.424
        s0.156-1.684,0.468-2.412c0.312-0.728,0.74-1.356,1.284-1.884c0.543-0.528,1.191-0.939,1.944-1.236
        c0.752-0.296,1.56-0.444,2.424-0.444c0.864,0,1.672,0.148,2.424,0.444c0.752,0.297,1.404,0.708,1.956,1.236
        c0.552,0.527,0.984,1.156,1.296,1.884C116.479,17.285,116.635,18.089,116.635,18.969z M114.283,18.98
        c0-0.542-0.084-1.061-0.252-1.556c-0.169-0.494-0.414-0.929-0.734-1.304s-0.718-0.674-1.192-0.897s-1.015-0.335-1.625-0.335
        c-0.61,0-1.152,0.111-1.625,0.335c-0.474,0.224-0.871,0.522-1.191,0.897c-0.321,0.375-0.566,0.81-0.734,1.304
        c-0.169,0.495-0.253,1.014-0.253,1.556c0,0.543,0.084,1.062,0.253,1.556c0.168,0.495,0.413,0.934,0.734,1.316
        c0.321,0.383,0.718,0.686,1.191,0.909c0.473,0.224,1.015,0.335,1.625,0.335c0.61,0,1.151-0.111,1.625-0.335
        s0.871-0.526,1.192-0.909s0.565-0.821,0.734-1.316C114.199,20.042,114.283,19.523,114.283,18.98z"/>
    <path fill="#666666" d="M119.251,14.577c-0.016-0.48-0.04-0.904-0.072-1.272h2.136c0.032,0.288,0.056,0.62,0.072,0.996
        c0.016,0.376,0.024,0.684,0.024,0.924h0.072c0.32-0.672,0.788-1.212,1.404-1.62c0.616-0.408,1.308-0.612,2.076-0.612
        c0.352,0,0.648,0.033,0.888,0.097l-0.096,2.088c-0.32-0.08-0.664-0.12-1.032-0.12c-0.544,0-1.016,0.101-1.416,0.3
        c-0.4,0.2-0.732,0.468-0.996,0.805c-0.264,0.336-0.46,0.724-0.588,1.163c-0.128,0.44-0.192,0.9-0.192,1.381v5.976h-2.256v-8.928
        C119.275,15.449,119.267,15.056,119.251,14.577z"/>
    <path fill="#666666" d="M128.419,26.625c0.496,0.56,1.116,1.008,1.86,1.344c0.744,0.336,1.508,0.504,2.292,0.504
        c0.752,0,1.384-0.108,1.896-0.324s0.924-0.512,1.236-0.888s0.536-0.82,0.672-1.332c0.136-0.513,0.204-1.064,0.204-1.656v-1.464
        h-0.048c-0.416,0.641-0.984,1.128-1.704,1.464c-0.72,0.336-1.488,0.504-2.304,0.504c-0.864,0-1.652-0.151-2.364-0.456
        c-0.712-0.304-1.316-0.72-1.812-1.248c-0.496-0.527-0.88-1.147-1.152-1.859s-0.408-1.477-0.408-2.292
        c0-0.816,0.136-1.584,0.408-2.305c0.272-0.72,0.656-1.348,1.152-1.884c0.496-0.535,1.096-0.96,1.8-1.271
        c0.704-0.312,1.488-0.469,2.352-0.469c0.816,0,1.596,0.177,2.34,0.528c0.744,0.353,1.332,0.888,1.764,1.608h0.048v-1.824h2.184
        v10.8c0,0.832-0.104,1.628-0.312,2.388c-0.208,0.76-0.56,1.433-1.056,2.017s-1.144,1.052-1.944,1.404
        c-0.8,0.352-1.792,0.527-2.976,0.527c-0.992,0-1.988-0.18-2.988-0.54c-1-0.359-1.86-0.868-2.58-1.523L128.419,26.625z
         M129.091,18.873c0,0.527,0.084,1.031,0.253,1.512c0.168,0.479,0.417,0.904,0.746,1.271c0.329,0.369,0.726,0.664,1.192,0.889
        c0.465,0.224,0.995,0.336,1.589,0.336c0.577,0,1.107-0.104,1.589-0.312c0.481-0.207,0.891-0.491,1.228-0.852
        s0.598-0.784,0.782-1.272c0.185-0.487,0.277-1.012,0.277-1.571c0-0.544-0.093-1.057-0.277-1.536
        c-0.185-0.48-0.449-0.904-0.794-1.272c-0.345-0.367-0.755-0.66-1.228-0.876c-0.474-0.216-1-0.324-1.577-0.324
        c-0.594,0-1.124,0.108-1.589,0.324c-0.466,0.216-0.863,0.504-1.192,0.864s-0.578,0.784-0.746,1.271
        C129.175,17.812,129.091,18.329,129.091,18.873z"/>
</g>
<g><a xlink:href="/" pointer-events="all" target="_top"><polygon fill="none" points="0,0 145,0 145,35 0,35 0,0"/></a></g>

</g>


<!-- AnyRandomAccessCollection -->
<g id="node1" class="node">
<g id="a_node1"><a xlink:href="/v4.2/type/AnyRandomAccessCollection/hierarchy/" target="_top">
<polygon fill="#999999" stroke="#999999" points="166.554,-22 -0.554326,-22 -0.554326,-0 166.554,-0 166.554,-22"/>
<text text-anchor="middle" x="83" y="-7.4" font-family="Helvetica,sans-Serif" font-size="12.00" fill="white">AnyRandomAccessCollection</text>
</a>
</g>
</g>
<!-- Array -->
<g id="node2" class="node">
<g id="a_node2"><a xlink:href="/v4.2/type/Array/hierarchy/" target="_top">
<polygon fill="#999999" stroke="#999999" points="239,-22 185,-22 185,-0 239,-0 239,-22"/>
<text text-anchor="middle" x="212" y="-7.4" font-family="Helvetica,sans-Serif" font-size="12.00" fill="white">Array</text>
</a>
</g>
</g>
<!-- ArraySlice -->
<g id="node3" class="node">
<g id="a_node3"><a xlink:href="/v4.2/type/ArraySlice/hierarchy/" target="_top">
<polygon fill="#999999" stroke="#999999" points="321.011,-22 256.989,-22 256.989,-0 321.011,-0 321.011,-22"/>
<text text-anchor="middle" x="289" y="-7.4" font-family="Helvetica,sans-Serif" font-size="12.00" fill="white">ArraySlice</text>
</a>
</g>
</g>
<!-- BidirectionalCollection -->
<g id="node4" class="node">
<g id="a_node4"><a xlink:href="/v4.2/protocol/BidirectionalCollection/hierarchy/" target="_top">
<path fill="#999999" stroke="#999999" d="M1165.71,-138C1165.71,-138 1052.29,-138 1052.29,-138 1048.62,-138 1044.95,-134.333 1044.95,-130.667 1044.95,-130.667 1044.95,-123.333 1044.95,-123.333 1044.95,-119.667 1048.62,-116 1052.29,-116 1052.29,-116 1165.71,-116 1165.71,-116 1169.38,-116 1173.05,-119.667 1173.05,-123.333 1173.05,-123.333 1173.05,-130.667 1173.05,-130.667 1173.05,-134.333 1169.38,-138 1165.71,-138"/>
<text text-anchor="middle" x="1109" y="-123.4" font-family="Helvetica,sans-Serif" font-size="12.00" fill="white">BidirectionalCollection</text>
</a>
</g>
</g>
<!-- RandomAccessCollection -->
<g id="node14" class="node">
<g id="a_node14"><a xlink:href="/v4.2/protocol/RandomAccessCollection/" target="_top">
<path fill="#ee543d" stroke="#ee543d" d="M1174.71,-80C1174.71,-80 1043.29,-80 1043.29,-80 1039.62,-80 1035.95,-76.3333 1035.95,-72.6667 1035.95,-72.6667 1035.95,-65.3333 1035.95,-65.3333 1035.95,-61.6667 1039.62,-58 1043.29,-58 1043.29,-58 1174.71,-58 1174.71,-58 1178.38,-58 1182.05,-61.6667 1182.05,-65.3333 1182.05,-65.3333 1182.05,-72.6667 1182.05,-72.6667 1182.05,-76.3333 1178.38,-80 1174.71,-80"/>
<text text-anchor="middle" x="1109" y="-65.4" font-family="Helvetica,sans-Serif" font-size="12.00" fill="white">RandomAccessCollection</text>
</a>
</g>
</g>
<!-- BidirectionalCollection&#45;&gt;RandomAccessCollection -->
<g id="edge21" class="edge">
<path fill="none" stroke="#cccccc" d="M1109,-115.988C1109,-108.91 1109,-99.1714 1109,-90.4779"/>
<polygon fill="#cccccc" stroke="#cccccc" points="1112.5,-90.3038 1109,-80.3039 1105.5,-90.3039 1112.5,-90.3038"/>
</g>
<!-- ClosedRange -->
<g id="node5" class="node">
<g id="a_node5"><a xlink:href="/v4.2/type/ClosedRange/hierarchy/" target="_top">
<polygon fill="#999999" stroke="#999999" points="422.037,-22 339.963,-22 339.963,-0 422.037,-0 422.037,-22"/>
<text text-anchor="middle" x="381" y="-7.4" font-family="Helvetica,sans-Serif" font-size="12.00" fill="white">ClosedRange</text>
</a>
</g>
</g>
<!-- Collection -->
<g id="node6" class="node">
<g id="a_node6"><a xlink:href="/v4.2/protocol/Collection/hierarchy/" target="_top">
<path fill="#999999" stroke="#999999" d="M1132.69,-196C1132.69,-196 1085.31,-196 1085.31,-196 1081.65,-196 1077.98,-192.333 1077.98,-188.667 1077.98,-188.667 1077.98,-181.333 1077.98,-181.333 1077.98,-177.667 1081.65,-174 1085.31,-174 1085.31,-174 1132.69,-174 1132.69,-174 1136.35,-174 1140.02,-177.667 1140.02,-181.333 1140.02,-181.333 1140.02,-188.667 1140.02,-188.667 1140.02,-192.333 1136.35,-196 1132.69,-196"/>
<text text-anchor="middle" x="1109" y="-181.4" font-family="Helvetica,sans-Serif" font-size="12.00" fill="white">Collection</text>
</a>
</g>
</g>
<!-- Collection&#45;&gt;BidirectionalCollection -->
<g id="edge22" class="edge">
<path fill="none" stroke="#cccccc" d="M1109,-173.988C1109,-166.91 1109,-157.171 1109,-148.478"/>
<polygon fill="#cccccc" stroke="#cccccc" points="1112.5,-148.304 1109,-138.304 1105.5,-148.304 1112.5,-148.304"/>
</g>
<!-- CollectionOfOne -->
<g id="node7" class="node">
<g id="a_node7"><a xlink:href="/v4.2/type/CollectionOfOne/hierarchy/" target="_top">
<polygon fill="#999999" stroke="#999999" points="538.032,-22 439.968,-22 439.968,-0 538.032,-0 538.032,-22"/>
<text text-anchor="middle" x="489" y="-7.4" font-family="Helvetica,sans-Serif" font-size="12.00" fill="white">CollectionOfOne</text>
</a>
</g>
</g>
<!-- ContiguousArray -->
<g id="node8" class="node">
<g id="a_node8"><a xlink:href="/v4.2/type/ContiguousArray/hierarchy/" target="_top">
<polygon fill="#999999" stroke="#999999" points="655.534,-22 556.466,-22 556.466,-0 655.534,-0 655.534,-22"/>
<text text-anchor="middle" x="606" y="-7.4" font-family="Helvetica,sans-Serif" font-size="12.00" fill="white">ContiguousArray</text>
</a>
</g>
</g>
<!-- DefaultIndices -->
<g id="node9" class="node">
<g id="a_node9"><a xlink:href="/v4.2/type/DefaultIndices/hierarchy/" target="_top">
<polygon fill="#999999" stroke="#999999" points="760.032,-22 673.968,-22 673.968,-0 760.032,-0 760.032,-22"/>
<text text-anchor="middle" x="717" y="-7.4" font-family="Helvetica,sans-Serif" font-size="12.00" fill="white">DefaultIndices</text>
</a>
</g>
</g>
<!-- DictionaryLiteral -->
<g id="node10" class="node">
<g id="a_node10"><a xlink:href="/v4.2/type/DictionaryLiteral/hierarchy/" target="_top">
<polygon fill="#999999" stroke="#999999" points="874.025,-22 777.975,-22 777.975,-0 874.025,-0 874.025,-22"/>
<text text-anchor="middle" x="826" y="-7.4" font-family="Helvetica,sans-Serif" font-size="12.00" fill="white">DictionaryLiteral</text>
</a>
</g>
</g>
<!-- EmptyCollection -->
<g id="node11" class="node">
<g id="a_node11"><a xlink:href="/v4.2/type/EmptyCollection/hierarchy/" target="_top">
<polygon fill="#999999" stroke="#999999" points="988.027,-22 891.973,-22 891.973,-0 988.027,-0 988.027,-22"/>
<text text-anchor="middle" x="940" y="-7.4" font-family="Helvetica,sans-Serif" font-size="12.00" fill="white">EmptyCollection</text>
</a>
</g>
</g>
<!-- LazyCollection -->
<g id="node12" class="node">
<g id="a_node12"><a xlink:href="/v4.2/type/LazyCollection/hierarchy/" target="_top">
<polygon fill="#999999" stroke="#999999" points="1094.03,-22 1005.97,-22 1005.97,-0 1094.03,-0 1094.03,-22"/>
<text text-anchor="middle" x="1050" y="-7.4" font-family="Helvetica,sans-Serif" font-size="12.00" fill="white">LazyCollection</text>
</a>
</g>
</g>
<!-- LazyMapCollection -->
<g id="node13" class="node">
<g id="a_node13"><a xlink:href="/v4.2/type/LazyMapCollection/hierarchy/" target="_top">
<polygon fill="#999999" stroke="#999999" points="1223.54,-22 1112.46,-22 1112.46,-0 1223.54,-0 1223.54,-22"/>
<text text-anchor="middle" x="1168" y="-7.4" font-family="Helvetica,sans-Serif" font-size="12.00" fill="white">LazyMapCollection</text>
</a>
</g>
</g>
<!-- RandomAccessCollection&#45;&gt;AnyRandomAccessCollection -->
<g id="edge1" class="edge">
<path fill="none" stroke="#cccccc" d="M1035.73,-65.8298C879.831,-60.8988 503.543,-47.332 176.77,-22.0139"/>
<polygon fill="#cccccc" stroke="#cccccc" points="176.872,-18.5114 166.63,-21.2233 176.328,-25.4902 176.872,-18.5114"/>
</g>
<!-- RandomAccessCollection&#45;&gt;Array -->
<g id="edge2" class="edge">
<path fill="none" stroke="#cccccc" d="M1035.84,-66.1375C860.109,-61.3409 416.991,-47.2463 249.307,-21.8386"/>
<polygon fill="#cccccc" stroke="#cccccc" points="249.804,-18.3738 239.38,-20.2673 248.71,-25.2877 249.804,-18.3738"/>
</g>
<!-- RandomAccessCollection&#45;&gt;ArraySlice -->
<g id="edge3" class="edge">
<path fill="none" stroke="#cccccc" d="M1035.9,-67.9203C899.288,-66.8463 596.002,-60.0962 331.629,-21.8107"/>
<polygon fill="#cccccc" stroke="#cccccc" points="331.852,-18.3061 321.45,-20.3181 330.837,-25.232 331.852,-18.3061"/>
</g>
<!-- RandomAccessCollection&#45;&gt;ClosedRange -->
<g id="edge4" class="edge">
<path fill="none" stroke="#cccccc" d="M1035.95,-66.1472C913.178,-62.3511 657.605,-51.5243 432.164,-21.9947"/>
<polygon fill="#cccccc" stroke="#cccccc" points="432.503,-18.5092 422.13,-20.6653 431.584,-25.4485 432.503,-18.5092"/>
</g>
<!-- RandomAccessCollection&#45;&gt;CollectionOfOne -->
<g id="edge5" class="edge">
<path fill="none" stroke="#cccccc" d="M1035.59,-64.083C930.006,-57.9847 728.997,-44.642 548.27,-22.0659"/>
<polygon fill="#cccccc" stroke="#cccccc" points="548.676,-18.5893 538.316,-20.8103 547.8,-25.5343 548.676,-18.5893"/>
</g>
<!-- RandomAccessCollection&#45;&gt;ContiguousArray -->
<g id="edge6" class="edge">
<path fill="none" stroke="#cccccc" d="M1035.76,-61.8741C949.75,-54.3512 802.556,-40.4524 665.786,-22.0271"/>
<polygon fill="#cccccc" stroke="#cccccc" points="665.919,-18.5131 655.539,-20.6353 664.977,-25.4494 665.919,-18.5131"/>
</g>
<!-- RandomAccessCollection&#45;&gt;DefaultIndices -->
<g id="edge7" class="edge">
<path fill="none" stroke="#cccccc" d="M1035.87,-59.2971C969.187,-51.0892 867.713,-37.9195 770.135,-22.1163"/>
<polygon fill="#cccccc" stroke="#cccccc" points="770.53,-18.6346 760.097,-20.4789 769.403,-25.5433 770.53,-18.6346"/>
</g>
<!-- RandomAccessCollection&#45;&gt;DictionaryLiteral -->
<g id="edge8" class="edge">
<path fill="none" stroke="#cccccc" d="M1058.41,-57.9883C1009.52,-48.3143 935.523,-33.6723 884.213,-23.5192"/>
<polygon fill="#cccccc" stroke="#cccccc" points="884.757,-20.059 874.268,-21.5512 883.398,-26.9259 884.757,-20.059"/>
</g>
<!-- RandomAccessCollection&#45;&gt;EmptyCollection -->
<g id="edge9" class="edge">
<path fill="none" stroke="#cccccc" d="M1078.79,-57.9883C1051.23,-48.8587 1010.33,-35.3046 980.06,-25.2743"/>
<polygon fill="#cccccc" stroke="#cccccc" points="980.83,-21.8424 970.237,-22.0192 978.628,-28.4871 980.83,-21.8424"/>
</g>
<!-- RandomAccessCollection&#45;&gt;LazyCollection -->
<g id="edge10" class="edge">
<path fill="none" stroke="#cccccc" d="M1098.45,-57.9883C1090.08,-50.0446 1078.18,-38.7512 1068.27,-29.3439"/>
<polygon fill="#cccccc" stroke="#cccccc" points="1070.52,-26.6496 1060.86,-22.3039 1065.7,-31.7268 1070.52,-26.6496"/>
</g>
<!-- RandomAccessCollection&#45;&gt;LazyMapCollection -->
<g id="edge11" class="edge">
<path fill="none" stroke="#cccccc" d="M1119.55,-57.9883C1127.92,-50.0446 1139.82,-38.7512 1149.73,-29.3439"/>
<polygon fill="#cccccc" stroke="#cccccc" points="1152.3,-31.7268 1157.14,-22.3039 1147.48,-26.6496 1152.3,-31.7268"/>
</g>
<!-- Range -->
<g id="node15" class="node">
<g id="a_node15"><a xlink:href="/v4.2/type/Range/hierarchy/" target="_top">
<polygon fill="#999999" stroke="#999999" points="1296,-22 1242,-22 1242,-0 1296,-0 1296,-22"/>
<text text-anchor="middle" x="1269" y="-7.4" font-family="Helvetica,sans-Serif" font-size="12.00" fill="white">Range</text>
</a>
</g>
</g>
<!-- RandomAccessCollection&#45;&gt;Range -->
<g id="edge12" class="edge">
<path fill="none" stroke="#cccccc" d="M1137.6,-57.9883C1164.06,-48.7296 1203.51,-34.9202 1232.28,-24.8507"/>
<polygon fill="#cccccc" stroke="#cccccc" points="1233.69,-28.0656 1241.98,-21.4586 1231.38,-21.4586 1233.69,-28.0656"/>
</g>
<!-- Repeated -->
<g id="node16" class="node">
<g id="a_node16"><a xlink:href="/v4.2/type/Repeated/hierarchy/" target="_top">
<polygon fill="#999999" stroke="#999999" points="1376.03,-22 1313.97,-22 1313.97,-0 1376.03,-0 1376.03,-22"/>
<text text-anchor="middle" x="1345" y="-7.4" font-family="Helvetica,sans-Serif" font-size="12.00" fill="white">Repeated</text>
</a>
</g>
</g>
<!-- RandomAccessCollection&#45;&gt;Repeated -->
<g id="edge13" class="edge">
<path fill="none" stroke="#cccccc" d="M1152.64,-57.949C1190.21,-49.2516 1246.15,-36.2016 1303.59,-22.3204"/>
<polygon fill="#cccccc" stroke="#cccccc" points="1304.67,-25.6591 1313.57,-19.9036 1303.02,-18.8557 1304.67,-25.6591"/>
</g>
<!-- ReversedCollection -->
<g id="node17" class="node">
<g id="a_node17"><a xlink:href="/v4.2/type/ReversedCollection/hierarchy/" target="_top">
<polygon fill="#999999" stroke="#999999" points="1508.04,-22 1393.96,-22 1393.96,-0 1508.04,-0 1508.04,-22"/>
<text text-anchor="middle" x="1451" y="-7.4" font-family="Helvetica,sans-Serif" font-size="12.00" fill="white">ReversedCollection</text>
</a>
</g>
</g>
<!-- RandomAccessCollection&#45;&gt;ReversedCollection -->
<g id="edge14" class="edge">
<path fill="none" stroke="#cccccc" d="M1170.14,-57.9883C1230.2,-48.154 1321.62,-33.1855 1383.71,-23.018"/>
<polygon fill="#cccccc" stroke="#cccccc" points="1384.5,-26.4362 1393.8,-21.3662 1383.36,-19.5282 1384.5,-26.4362"/>
</g>
<!-- Slice -->
<g id="node19" class="node">
<g id="a_node19"><a xlink:href="/v4.2/type/Slice/hierarchy/" target="_top">
<polygon fill="#999999" stroke="#999999" points="1580,-22 1526,-22 1526,-0 1580,-0 1580,-22"/>
<text text-anchor="middle" x="1553" y="-7.4" font-family="Helvetica,sans-Serif" font-size="12.00" fill="white">Slice</text>
</a>
</g>
</g>
<!-- RandomAccessCollection&#45;&gt;Slice -->
<g id="edge15" class="edge">
<path fill="none" stroke="#cccccc" d="M1182.12,-63.2691C1262.02,-57.3094 1393.83,-45.1628 1516.07,-21.9136"/>
<polygon fill="#cccccc" stroke="#cccccc" points="1516.83,-25.3328 1525.98,-20.0003 1515.5,-18.4598 1516.83,-25.3328"/>
</g>
<!-- Unicode.Scalar.UTF16View -->
<g id="node20" class="node">
<g id="a_node20"><a xlink:href="/v4.2/type/Unicode.Scalar.UTF16View/hierarchy/" target="_top">
<polygon fill="#999999" stroke="#999999" points="1753.9,-22 1598.1,-22 1598.1,-0 1753.9,-0 1753.9,-22"/>
<text text-anchor="middle" x="1676" y="-7.4" font-family="Helvetica,sans-Serif" font-size="12.00" fill="white">Unicode.Scalar.UTF16View</text>
</a>
</g>
</g>
<!-- RandomAccessCollection&#45;&gt;Unicode.Scalar.UTF16View -->
<g id="edge20" class="edge">
<path fill="none" stroke="#cccccc" d="M1182.23,-61.4155C1274.28,-53.0414 1437.44,-37.878 1587.44,-22.1495"/>
<polygon fill="#cccccc" stroke="#cccccc" points="1588.17,-25.5913 1597.75,-21.0645 1587.44,-18.6296 1588.17,-25.5913"/>
</g>
<!-- UnsafeBufferPointer -->
<g id="node21" class="node">
<g id="a_node21"><a xlink:href="/v4.2/type/UnsafeBufferPointer/hierarchy/" target="_top">
<polygon fill="#999999" stroke="#999999" points="1889.39,-22 1772.61,-22 1772.61,-0 1889.39,-0 1889.39,-22"/>
<text text-anchor="middle" x="1831" y="-7.4" font-family="Helvetica,sans-Serif" font-size="12.00" fill="white">UnsafeBufferPointer</text>
</a>
</g>
</g>
<!-- RandomAccessCollection&#45;&gt;UnsafeBufferPointer -->
<g id="edge16" class="edge">
<path fill="none" stroke="#cccccc" d="M1182.23,-64.6632C1301.49,-58.8285 1545.29,-45.2337 1762.44,-21.9799"/>
<polygon fill="#cccccc" stroke="#cccccc" points="1762.86,-25.4542 1772.43,-20.9008 1762.11,-18.4947 1762.86,-25.4542"/>
</g>
<!-- UnsafeMutableBufferPointer -->
<g id="node22" class="node">
<g id="a_node22"><a xlink:href="/v4.2/type/UnsafeMutableBufferPointer/hierarchy/" target="_top">
<polygon fill="#999999" stroke="#999999" points="2067.91,-22 1908.09,-22 1908.09,-0 2067.91,-0 2067.91,-22"/>
<text text-anchor="middle" x="1988" y="-7.4" font-family="Helvetica,sans-Serif" font-size="12.00" fill="white">UnsafeMutableBufferPointer</text>
</a>
</g>
</g>
<!-- RandomAccessCollection&#45;&gt;UnsafeMutableBufferPointer -->
<g id="edge17" class="edge">
<path fill="none" stroke="#cccccc" d="M1182.24,-65.0139C1321.71,-59.043 1634.98,-44.2641 1898,-22 1898.1,-21.9913 1898.21,-21.9826 1898.31,-21.9738"/>
<polygon fill="#cccccc" stroke="#cccccc" points="1898.38,-25.481 1908.03,-21.1052 1897.76,-18.5088 1898.38,-25.481"/>
</g>
<!-- UnsafeMutableRawBufferPointer -->
<g id="node23" class="node">
<g id="a_node23"><a xlink:href="/v4.2/type/UnsafeMutableRawBufferPointer/hierarchy/" target="_top">
<polygon fill="#999999" stroke="#999999" points="2270.91,-22 2087.09,-22 2087.09,-0 2270.91,-0 2270.91,-22"/>
<text text-anchor="middle" x="2179" y="-7.4" font-family="Helvetica,sans-Serif" font-size="12.00" fill="white">UnsafeMutableRawBufferPointer</text>
</a>
</g>
</g>
<!-- RandomAccessCollection&#45;&gt;UnsafeMutableRawBufferPointer -->
<g id="edge18" class="edge">
<path fill="none" stroke="#cccccc" d="M1182.24,-65.7766C1343.87,-60.5937 1743.28,-46.2724 2077,-22 2077.1,-21.9925 2077.21,-21.9851 2077.31,-21.9776"/>
<polygon fill="#cccccc" stroke="#cccccc" points="2077.3,-25.4889 2087,-21.2343 2076.76,-18.5094 2077.3,-25.4889"/>
</g>
<!-- UnsafeRawBufferPointer -->
<g id="node24" class="node">
<g id="a_node24"><a xlink:href="/v4.2/type/UnsafeRawBufferPointer/hierarchy/" target="_top">
<polygon fill="#999999" stroke="#999999" points="2430.39,-22 2289.61,-22 2289.61,-0 2430.39,-0 2430.39,-22"/>
<text text-anchor="middle" x="2360" y="-7.4" font-family="Helvetica,sans-Serif" font-size="12.00" fill="white">UnsafeRawBufferPointer</text>
</a>
</g>
</g>
<!-- RandomAccessCollection&#45;&gt;UnsafeRawBufferPointer -->
<g id="edge19" class="edge">
<path fill="none" stroke="#cccccc" d="M1182.1,-67.2879C1365.04,-65.0407 1857.56,-56.1244 2279.11,-21.997"/>
<polygon fill="#cccccc" stroke="#cccccc" points="2279.68,-25.4618 2289.36,-21.1604 2279.11,-18.4849 2279.68,-25.4618"/>
</g>
<!-- Sequence -->
<g id="node18" class="node">
<g id="a_node18"><a xlink:href="/v4.2/protocol/Sequence/hierarchy/" target="_top">
<path fill="#999999" stroke="#999999" d="M1133.7,-254C1133.7,-254 1084.3,-254 1084.3,-254 1080.63,-254 1076.96,-250.333 1076.96,-246.667 1076.96,-246.667 1076.96,-239.333 1076.96,-239.333 1076.96,-235.667 1080.63,-232 1084.3,-232 1084.3,-232 1133.7,-232 1133.7,-232 1137.37,-232 1141.04,-235.667 1141.04,-239.333 1141.04,-239.333 1141.04,-246.667 1141.04,-246.667 1141.04,-250.333 1137.37,-254 1133.7,-254"/>
<text text-anchor="middle" x="1109" y="-239.4" font-family="Helvetica,sans-Serif" font-size="12.00" fill="white">Sequence</text>
</a>
</g>
</g>
<!-- Sequence&#45;&gt;Collection -->
<g id="edge23" class="edge">
<path fill="none" stroke="#cccccc" d="M1109,-231.988C1109,-224.91 1109,-215.171 1109,-206.478"/>
<polygon fill="#cccccc" stroke="#cccccc" points="1112.5,-206.304 1109,-196.304 1105.5,-206.304 1112.5,-206.304"/>
</g>
</g>
</svg>
