<?xml version="1.0" encoding="UTF-8" standalone="no"?>
<!DOCTYPE svg PUBLIC "-//W3C//DTD SVG 1.1//EN"
 "http://www.w3.org/Graphics/SVG/1.1/DTD/svg11.dtd">
<!-- Generated by graphviz version 2.36.0 (20140111.2315)
 -->
<!-- Title: UnsafeBufferPointerGenerator&lt;T&gt; &#45; Type Hierarchy &#45; SwiftDoc.org Pages: 1 -->
<svg width="212pt" height="195pt"
 viewBox="0.00 0.00 212.40 195.20" xmlns="http://www.w3.org/2000/svg" xmlns:xlink="http://www.w3.org/1999/xlink">
<g id="graph0" class="graph" transform="scale(1 1) rotate(0) translate(7.2 137.6)">
<title>UnsafeBufferPointerGenerator&lt;T&gt; &#45; Type Hierarchy &#45; SwiftDoc.org</title>
<polygon fill="white" stroke="none" points="-7.2,57.6 -7.2,-137.6 205.2,-137.6 205.2,57.6 -7.2,57.6"/>
<!-- GeneratorType -->
<g id="node1" class="node"><title>GeneratorType</title>
<g id="a_node1"><a xlink:href="/protocol/GeneratorType/" xlink:title="GeneratorType">
<path fill="#999999" stroke="#999999" d="M82.7048,-80C82.7048,-80 7.29524,-80 7.29524,-80 3.62857,-80 -0.0380931,-76.3333 -0.0380931,-72.6667 -0.0380931,-72.6667 -0.0380931,-65.3333 -0.0380931,-65.3333 -0.0380931,-61.6667 3.62857,-58 7.29524,-58 7.29524,-58 82.7048,-58 82.7048,-58 86.3714,-58 90.0381,-61.6667 90.0381,-65.3333 90.0381,-65.3333 90.0381,-72.6667 90.0381,-72.6667 90.0381,-76.3333 86.3714,-80 82.7048,-80"/>
<text text-anchor="middle" x="45" y="-65.4" font-family="Helvetica,sans-Serif" font-size="12.00" fill="white">GeneratorType</text>
</a>
</g>
</g>
<!-- UnsafeBufferPointerGenerator&lt;T&gt; -->
<g id="node3" class="node"><title>UnsafeBufferPointerGenerator&lt;T&gt;</title>
<g id="a_node3"><a xlink:href="/type/UnsafeBufferPointerGenerator/" xlink:title="UnsafeBufferPointerGenerator&lt;T&gt;">
<polygon fill="#ee543d" stroke="#ee543d" points="195.417,-22 2.58323,-22 2.58323,-0 195.417,-0 195.417,-22"/>
<text text-anchor="middle" x="99" y="-7.4" font-family="Helvetica,sans-Serif" font-size="12.00" fill="white">UnsafeBufferPointerGenerator&lt;T&gt;</text>
</a>
</g>
</g>
<!-- GeneratorType&#45;&gt;UnsafeBufferPointerGenerator&lt;T&gt; -->
<g id="edge1" class="edge"><title>GeneratorType&#45;&gt;UnsafeBufferPointerGenerator&lt;T&gt;</title>
<path fill="none" stroke="#cccccc" d="M54.6541,-57.9883C62.2383,-50.1233 72.9889,-38.9745 82.0055,-29.6239"/>
<polygon fill="#cccccc" stroke="#cccccc" points="84.6422,-31.9318 89.0641,-22.3039 79.6033,-27.0729 84.6422,-31.9318"/>
</g>
<!-- SequenceType -->
<g id="node2" class="node"><title>SequenceType</title>
<g id="a_node2"><a xlink:href="/protocol/SequenceType/" xlink:title="SequenceType">
<path fill="#999999" stroke="#999999" d="M190.718,-80C190.718,-80 115.282,-80 115.282,-80 111.615,-80 107.949,-76.3333 107.949,-72.6667 107.949,-72.6667 107.949,-65.3333 107.949,-65.3333 107.949,-61.6667 111.615,-58 115.282,-58 115.282,-58 190.718,-58 190.718,-58 194.385,-58 198.051,-61.6667 198.051,-65.3333 198.051,-65.3333 198.051,-72.6667 198.051,-72.6667 198.051,-76.3333 194.385,-80 190.718,-80"/>
<text text-anchor="middle" x="153" y="-65.4" font-family="Helvetica,sans-Serif" font-size="12.00" fill="white">SequenceType</text>
</a>
</g>
</g>
<!-- SequenceType&#45;&gt;UnsafeBufferPointerGenerator&lt;T&gt; -->
<g id="edge2" class="edge"><title>SequenceType&#45;&gt;UnsafeBufferPointerGenerator&lt;T&gt;</title>
<path fill="none" stroke="#cccccc" d="M143.346,-57.9883C135.762,-50.1233 125.011,-38.9745 115.994,-29.6239"/>
<polygon fill="#cccccc" stroke="#cccccc" points="118.397,-27.0729 108.936,-22.3039 113.358,-31.9318 118.397,-27.0729"/>
</g>
</g>
</svg>
