<?xml version="1.0" encoding="UTF-8" standalone="no"?>
<!DOCTYPE svg PUBLIC "-//W3C//DTD SVG 1.1//EN"
 "http://www.w3.org/Graphics/SVG/1.1/DTD/svg11.dtd">
<!-- Generated by graphviz version 2.36.0 (20140111.2315)
 -->
<!-- Title: CVarArgType &#45; Type Hierarchy &#45; SwiftDoc.org Pages: 1 -->
<svg width="1576pt" height="253pt"
 viewBox="0.00 0.00 1576.40 253.20" xmlns="http://www.w3.org/2000/svg" xmlns:xlink="http://www.w3.org/1999/xlink">
<g id="graph0" class="graph" transform="scale(1 1) rotate(0) translate(7.2 195.6)">
<g transform="translate(0 -195.6)">
<g>
    <path fill="#666666" d="M13.846,10.832c-0.336-0.464-0.792-0.844-1.368-1.14s-1.224-0.444-1.944-0.444
        c-0.384,0-0.772,0.052-1.164,0.156C8.977,9.509,8.622,9.677,8.301,9.908c-0.32,0.232-0.58,0.52-0.78,0.864
        c-0.2,0.344-0.3,0.756-0.3,1.236c0,0.464,0.092,0.852,0.276,1.164c0.184,0.312,0.432,0.576,0.744,0.792s0.68,0.4,1.104,0.552
        c0.423,0.152,0.876,0.309,1.356,0.468c0.576,0.177,1.16,0.376,1.752,0.601c0.592,0.224,1.128,0.52,1.608,0.888
        s0.872,0.828,1.176,1.38s0.456,1.252,0.456,2.101c0,0.88-0.164,1.644-0.492,2.292c-0.328,0.647-0.765,1.184-1.308,1.607
        c-0.544,0.424-1.172,0.74-1.884,0.948s-1.444,0.312-2.196,0.312c-1.072,0-2.108-0.208-3.108-0.624
        c-1-0.415-1.828-1.031-2.484-1.848l1.848-1.56c0.4,0.592,0.936,1.071,1.608,1.439c0.672,0.368,1.399,0.552,2.184,0.552
        c0.4,0,0.8-0.056,1.2-0.168c0.4-0.111,0.764-0.288,1.092-0.527c0.328-0.24,0.596-0.54,0.804-0.9
        c0.208-0.36,0.312-0.796,0.312-1.308s-0.108-0.94-0.324-1.284c-0.216-0.344-0.508-0.636-0.876-0.876s-0.796-0.444-1.284-0.612
        c-0.488-0.168-1.004-0.34-1.548-0.516c-0.544-0.16-1.08-0.356-1.608-0.588c-0.528-0.232-1-0.528-1.416-0.889
        c-0.416-0.359-0.752-0.804-1.008-1.332c-0.256-0.527-0.384-1.184-0.384-1.968c0-0.848,0.172-1.576,0.516-2.184
        c0.344-0.608,0.792-1.112,1.344-1.512c0.552-0.4,1.176-0.692,1.872-0.876c0.696-0.184,1.396-0.276,2.1-0.276
        c0.992,0,1.92,0.176,2.784,0.528c0.864,0.352,1.56,0.824,2.088,1.416L13.846,10.832z"/>
    <path fill="#666666" d="M18.813,13.304l2.568,8.688h0.048l2.712-8.688h2.376l2.76,8.688h0.048l2.568-8.688h2.376L30.501,24.68
        h-2.352l-2.808-8.544h-0.048l-2.784,8.544h-2.352l-3.792-11.376H18.813z"/>
    <path fill="#666666" d="M38.685,9.2c0,0.416-0.147,0.76-0.44,1.032c-0.294,0.272-0.647,0.408-1.06,0.408s-0.762-0.14-1.047-0.42
        c-0.286-0.28-0.429-0.62-0.429-1.02c0-0.416,0.143-0.764,0.429-1.044c0.286-0.28,0.635-0.42,1.047-0.42s0.766,0.14,1.06,0.42
        C38.538,8.437,38.685,8.784,38.685,9.2z M38.325,24.68h-2.256V13.304h2.256V24.68z"/>
    <path fill="#666666" d="M47.613,15.152h-2.64v9.528h-2.256v-9.528h-2.256v-1.848h2.256v-2.376c0-0.672,0.076-1.292,0.228-1.86
        c0.152-0.568,0.4-1.06,0.744-1.476c0.344-0.416,0.784-0.744,1.32-0.984c0.536-0.24,1.188-0.36,1.956-0.36
        c0.544,0,1.016,0.056,1.416,0.168l-0.264,1.944c-0.176-0.048-0.352-0.088-0.528-0.12c-0.176-0.032-0.376-0.048-0.6-0.048
        c-0.432,0-0.78,0.076-1.044,0.228c-0.264,0.152-0.468,0.356-0.612,0.612s-0.24,0.548-0.288,0.876
        c-0.048,0.328-0.072,0.668-0.072,1.02v2.376h2.64V15.152z"/>
    <path fill="#666666" d="M54.909,15.152h-3.024v5.91c0,0.687,0.128,1.177,0.384,1.472c0.256,0.295,0.664,0.442,1.224,0.442
        c0.208,0,0.432-0.021,0.672-0.065c0.24-0.044,0.456-0.11,0.648-0.198l0.072,1.848c-0.272,0.096-0.572,0.172-0.9,0.229
        c-0.328,0.056-0.668,0.084-1.02,0.084c-1.072,0-1.892-0.296-2.46-0.889c-0.568-0.592-0.852-1.479-0.852-2.664v-6.168h-2.184
        v-1.848h2.184V10.04h2.232v3.264h3.024V15.152z"/>
    <path fill="#666666" d="M57.356,7.688h5.832c1.088,0,2.176,0.16,3.264,0.48c1.088,0.32,2.072,0.824,2.952,1.512
        s1.592,1.568,2.136,2.64c0.544,1.072,0.816,2.36,0.816,3.864c0,1.456-0.272,2.716-0.816,3.78s-1.256,1.943-2.136,2.64
        s-1.864,1.216-2.952,1.561c-1.088,0.344-2.176,0.516-3.264,0.516h-5.832V7.688z M59.732,22.593h2.976
        c1.024,0,1.972-0.145,2.844-0.432c0.872-0.288,1.624-0.704,2.256-1.248c0.632-0.544,1.124-1.216,1.476-2.017
        c0.352-0.8,0.528-1.704,0.528-2.712c0-1.056-0.176-1.983-0.528-2.784c-0.353-0.8-0.844-1.468-1.476-2.004
        c-0.632-0.536-1.384-0.944-2.256-1.224s-1.82-0.42-2.844-0.42h-2.976V22.593z"/>
    <path fill="#666666" d="M86.06,18.969c0,0.88-0.156,1.688-0.468,2.424c-0.312,0.736-0.744,1.372-1.296,1.908
        c-0.552,0.536-1.204,0.952-1.956,1.248c-0.752,0.296-1.56,0.443-2.424,0.443c-0.864,0-1.672-0.147-2.424-0.443
        c-0.752-0.296-1.4-0.712-1.944-1.248c-0.544-0.536-0.972-1.172-1.284-1.908c-0.312-0.735-0.468-1.544-0.468-2.424
        s0.156-1.684,0.468-2.412c0.312-0.728,0.74-1.356,1.284-1.884c0.543-0.528,1.191-0.939,1.944-1.236
        c0.752-0.296,1.56-0.444,2.424-0.444c0.864,0,1.672,0.148,2.424,0.444c0.752,0.297,1.404,0.708,1.956,1.236
        c0.552,0.527,0.984,1.156,1.296,1.884C85.904,17.285,86.06,18.089,86.06,18.969z M83.708,18.98c0-0.542-0.084-1.061-0.252-1.556
        c-0.169-0.494-0.414-0.929-0.734-1.304s-0.718-0.674-1.192-0.897s-1.015-0.335-1.625-0.335c-0.61,0-1.152,0.111-1.625,0.335
        c-0.474,0.224-0.871,0.522-1.191,0.897c-0.321,0.375-0.566,0.81-0.734,1.304C76.184,17.92,76.1,18.438,76.1,18.98
        c0,0.543,0.084,1.062,0.253,1.556c0.168,0.495,0.413,0.934,0.734,1.316c0.321,0.383,0.718,0.686,1.191,0.909
        c0.473,0.224,1.015,0.335,1.625,0.335c0.61,0,1.151-0.111,1.625-0.335s0.871-0.526,1.192-0.909s0.565-0.821,0.734-1.316
        C83.624,20.042,83.708,19.523,83.708,18.98z"/>
    <path fill="#666666" d="M96.428,16.184c-0.24-0.368-0.6-0.676-1.08-0.924s-0.992-0.372-1.536-0.372
        c-0.592,0-1.116,0.112-1.572,0.336c-0.456,0.225-0.844,0.524-1.164,0.9c-0.32,0.376-0.564,0.812-0.732,1.308
        s-0.252,1.017-0.252,1.56c0,0.545,0.084,1.064,0.252,1.561s0.412,0.933,0.732,1.308c0.32,0.376,0.712,0.677,1.176,0.9
        c0.464,0.225,0.992,0.336,1.584,0.336c0.576,0,1.1-0.111,1.572-0.336c0.472-0.224,0.86-0.528,1.164-0.912l1.512,1.368
        c-0.48,0.561-1.08,0.996-1.8,1.308c-0.72,0.312-1.536,0.468-2.448,0.468c-0.88,0-1.692-0.144-2.436-0.432
        c-0.744-0.288-1.388-0.691-1.932-1.212c-0.544-0.52-0.972-1.147-1.284-1.884s-0.468-1.561-0.468-2.473
        c0-0.896,0.152-1.711,0.456-2.447c0.304-0.736,0.728-1.368,1.272-1.896c0.543-0.527,1.188-0.936,1.932-1.224
        c0.744-0.288,1.548-0.433,2.412-0.433c0.8,0,1.596,0.16,2.388,0.48s1.419,0.784,1.884,1.392L96.428,16.184z"/>
    <path fill="#666666" d="M103.1,23.24c0,0.417-0.152,0.784-0.456,1.104c-0.304,0.32-0.688,0.479-1.152,0.479
        c-0.448,0-0.828-0.155-1.14-0.468c-0.312-0.312-0.468-0.676-0.468-1.092c0-0.432,0.152-0.804,0.456-1.116
        c0.304-0.312,0.688-0.468,1.152-0.468c0.464,0,0.848,0.152,1.152,0.456C102.947,22.44,103.1,22.808,103.1,23.24z"/>
    <path fill="#666666" d="M116.635,18.969c0,0.88-0.156,1.688-0.468,2.424c-0.312,0.736-0.744,1.372-1.296,1.908
        c-0.552,0.536-1.204,0.952-1.956,1.248c-0.752,0.296-1.56,0.443-2.424,0.443c-0.864,0-1.672-0.147-2.424-0.443
        c-0.752-0.296-1.4-0.712-1.944-1.248c-0.544-0.536-0.972-1.172-1.284-1.908c-0.312-0.735-0.468-1.544-0.468-2.424
        s0.156-1.684,0.468-2.412c0.312-0.728,0.74-1.356,1.284-1.884c0.543-0.528,1.191-0.939,1.944-1.236
        c0.752-0.296,1.56-0.444,2.424-0.444c0.864,0,1.672,0.148,2.424,0.444c0.752,0.297,1.404,0.708,1.956,1.236
        c0.552,0.527,0.984,1.156,1.296,1.884C116.479,17.285,116.635,18.089,116.635,18.969z M114.283,18.98
        c0-0.542-0.084-1.061-0.252-1.556c-0.169-0.494-0.414-0.929-0.734-1.304s-0.718-0.674-1.192-0.897s-1.015-0.335-1.625-0.335
        c-0.61,0-1.152,0.111-1.625,0.335c-0.474,0.224-0.871,0.522-1.191,0.897c-0.321,0.375-0.566,0.81-0.734,1.304
        c-0.169,0.495-0.253,1.014-0.253,1.556c0,0.543,0.084,1.062,0.253,1.556c0.168,0.495,0.413,0.934,0.734,1.316
        c0.321,0.383,0.718,0.686,1.191,0.909c0.473,0.224,1.015,0.335,1.625,0.335c0.61,0,1.151-0.111,1.625-0.335
        s0.871-0.526,1.192-0.909s0.565-0.821,0.734-1.316C114.199,20.042,114.283,19.523,114.283,18.98z"/>
    <path fill="#666666" d="M119.251,14.577c-0.016-0.48-0.04-0.904-0.072-1.272h2.136c0.032,0.288,0.056,0.62,0.072,0.996
        c0.016,0.376,0.024,0.684,0.024,0.924h0.072c0.32-0.672,0.788-1.212,1.404-1.62c0.616-0.408,1.308-0.612,2.076-0.612
        c0.352,0,0.648,0.033,0.888,0.097l-0.096,2.088c-0.32-0.08-0.664-0.12-1.032-0.12c-0.544,0-1.016,0.101-1.416,0.3
        c-0.4,0.2-0.732,0.468-0.996,0.805c-0.264,0.336-0.46,0.724-0.588,1.163c-0.128,0.44-0.192,0.9-0.192,1.381v5.976h-2.256v-8.928
        C119.275,15.449,119.267,15.056,119.251,14.577z"/>
    <path fill="#666666" d="M128.419,26.625c0.496,0.56,1.116,1.008,1.86,1.344c0.744,0.336,1.508,0.504,2.292,0.504
        c0.752,0,1.384-0.108,1.896-0.324s0.924-0.512,1.236-0.888s0.536-0.82,0.672-1.332c0.136-0.513,0.204-1.064,0.204-1.656v-1.464
        h-0.048c-0.416,0.641-0.984,1.128-1.704,1.464c-0.72,0.336-1.488,0.504-2.304,0.504c-0.864,0-1.652-0.151-2.364-0.456
        c-0.712-0.304-1.316-0.72-1.812-1.248c-0.496-0.527-0.88-1.147-1.152-1.859s-0.408-1.477-0.408-2.292
        c0-0.816,0.136-1.584,0.408-2.305c0.272-0.72,0.656-1.348,1.152-1.884c0.496-0.535,1.096-0.96,1.8-1.271
        c0.704-0.312,1.488-0.469,2.352-0.469c0.816,0,1.596,0.177,2.34,0.528c0.744,0.353,1.332,0.888,1.764,1.608h0.048v-1.824h2.184
        v10.8c0,0.832-0.104,1.628-0.312,2.388c-0.208,0.76-0.56,1.433-1.056,2.017s-1.144,1.052-1.944,1.404
        c-0.8,0.352-1.792,0.527-2.976,0.527c-0.992,0-1.988-0.18-2.988-0.54c-1-0.359-1.86-0.868-2.58-1.523L128.419,26.625z
         M129.091,18.873c0,0.527,0.084,1.031,0.253,1.512c0.168,0.479,0.417,0.904,0.746,1.271c0.329,0.369,0.726,0.664,1.192,0.889
        c0.465,0.224,0.995,0.336,1.589,0.336c0.577,0,1.107-0.104,1.589-0.312c0.481-0.207,0.891-0.491,1.228-0.852
        s0.598-0.784,0.782-1.272c0.185-0.487,0.277-1.012,0.277-1.571c0-0.544-0.093-1.057-0.277-1.536
        c-0.185-0.48-0.449-0.904-0.794-1.272c-0.345-0.367-0.755-0.66-1.228-0.876c-0.474-0.216-1-0.324-1.577-0.324
        c-0.594,0-1.124,0.108-1.589,0.324c-0.466,0.216-0.863,0.504-1.192,0.864s-0.578,0.784-0.746,1.271
        C129.175,17.812,129.091,18.329,129.091,18.873z"/>
</g>
<g><a xlink:href="/" pointer-events="all" target="_top"><polygon fill="none" points="0,0 145,0 145,35 0,35 0,0"/></a></g>

</g>


<!-- AutoreleasingUnsafeMutablePointer -->
<g id="node1" class="node">
<g id="a_node1"><a xlink:href="/v1.2/type/AutoreleasingUnsafeMutablePointer/hierarchy/" target="_top">
<polygon fill="#999999" stroke="#999999" points="202.088,-22 -0.0879076,-22 -0.0879076,-0 202.088,-0 202.088,-22"/>
<text text-anchor="middle" x="101" y="-7.4" font-family="Helvetica,sans-Serif" font-size="12.00" fill="white">AutoreleasingUnsafeMutablePointer</text>
</a>
</g>
</g>
<!-- CFunctionPointer -->
<g id="node2" class="node">
<g id="a_node2"><a xlink:href="/v1.2/type/CFunctionPointer/hierarchy/" target="_top">
<polygon fill="#999999" stroke="#999999" points="322.036,-22 219.964,-22 219.964,-0 322.036,-0 322.036,-22"/>
<text text-anchor="middle" x="271" y="-7.4" font-family="Helvetica,sans-Serif" font-size="12.00" fill="white">CFunctionPointer</text>
</a>
</g>
</g>
<!-- COpaquePointer -->
<g id="node3" class="node">
<g id="a_node3"><a xlink:href="/v1.2/type/COpaquePointer/hierarchy/" target="_top">
<polygon fill="#999999" stroke="#999999" points="439.542,-22 340.458,-22 340.458,-0 439.542,-0 439.542,-22"/>
<text text-anchor="middle" x="390" y="-7.4" font-family="Helvetica,sans-Serif" font-size="12.00" fill="white">COpaquePointer</text>
</a>
</g>
</g>
<!-- CVarArgType -->
<g id="node4" class="node">
<g id="a_node4"><a xlink:href="/v1.2/protocol/CVarArgType/" target="_top">
<path fill="#ee543d" stroke="#ee543d" d="M842.029,-138C842.029,-138 775.971,-138 775.971,-138 772.304,-138 768.638,-134.333 768.638,-130.667 768.638,-130.667 768.638,-123.333 768.638,-123.333 768.638,-119.667 772.304,-116 775.971,-116 775.971,-116 842.029,-116 842.029,-116 845.696,-116 849.362,-119.667 849.362,-123.333 849.362,-123.333 849.362,-130.667 849.362,-130.667 849.362,-134.333 845.696,-138 842.029,-138"/>
<text text-anchor="middle" x="809" y="-123.4" font-family="Helvetica,sans-Serif" font-size="12.00" fill="white">CVarArgType</text>
</a>
</g>
</g>
<!-- CVarArgType&#45;&gt;AutoreleasingUnsafeMutablePointer -->
<g id="edge1" class="edge">
<path fill="none" stroke="#cccccc" d="M768.544,-122.382C698.076,-115.811 548.355,-100.663 423,-80 326.812,-64.1447 215.805,-39.2179 152.46,-24.3548"/>
<polygon fill="#cccccc" stroke="#cccccc" points="153.249,-20.9448 142.712,-22.0587 151.644,-27.7583 153.249,-20.9448"/>
</g>
<!-- CVarArgType&#45;&gt;CFunctionPointer -->
<g id="edge2" class="edge">
<path fill="none" stroke="#cccccc" d="M768.641,-121.242C711.565,-114.167 604.165,-99.5737 514,-80 442.257,-64.4255 360.313,-40.1025 312.265,-25.1586"/>
<polygon fill="#cccccc" stroke="#cccccc" points="313.132,-21.7625 302.543,-22.1186 311.043,-28.4435 313.132,-21.7625"/>
</g>
<!-- CVarArgType&#45;&gt;COpaquePointer -->
<g id="edge3" class="edge">
<path fill="none" stroke="#cccccc" d="M768.69,-119.043C724.488,-111.064 651.638,-96.8856 590,-80 531.632,-64.0103 465.411,-40.3803 425.713,-25.6035"/>
<polygon fill="#cccccc" stroke="#cccccc" points="426.805,-22.2752 416.213,-22.0475 424.352,-28.831 426.805,-22.2752"/>
</g>
<!-- Int -->
<g id="node7" class="node">
<g id="a_node7"><a xlink:href="/v1.2/type/Int/hierarchy/" target="_top">
<polygon fill="#999999" stroke="#999999" points="512,-22 458,-22 458,-0 512,-0 512,-22"/>
<text text-anchor="middle" x="485" y="-7.4" font-family="Helvetica,sans-Serif" font-size="12.00" fill="white">Int</text>
</a>
</g>
</g>
<!-- CVarArgType&#45;&gt;Int -->
<g id="edge4" class="edge">
<path fill="none" stroke="#cccccc" d="M768.895,-115.937C736.073,-107.37 688.607,-94.2164 648,-80 601.316,-63.656 548.745,-40.9095 516.242,-26.3188"/>
<polygon fill="#cccccc" stroke="#cccccc" points="517.383,-22.9936 506.828,-22.0687 514.502,-29.3735 517.383,-22.9936"/>
</g>
<!-- Int16 -->
<g id="node8" class="node">
<g id="a_node8"><a xlink:href="/v1.2/type/Int16/hierarchy/" target="_top">
<polygon fill="#999999" stroke="#999999" points="584,-22 530,-22 530,-0 584,-0 584,-22"/>
<text text-anchor="middle" x="557" y="-7.4" font-family="Helvetica,sans-Serif" font-size="12.00" fill="white">Int16</text>
</a>
</g>
</g>
<!-- CVarArgType&#45;&gt;Int16 -->
<g id="edge5" class="edge">
<path fill="none" stroke="#cccccc" d="M783.944,-115.943C761.547,-106.854 727.901,-92.9529 699,-80 659.559,-62.3231 614.665,-40.5398 586.102,-26.4671"/>
<polygon fill="#cccccc" stroke="#cccccc" points="587.589,-23.2979 577.073,-22.0073 584.489,-29.574 587.589,-23.2979"/>
</g>
<!-- Int32 -->
<g id="node9" class="node">
<g id="a_node9"><a xlink:href="/v1.2/type/Int32/hierarchy/" target="_top">
<polygon fill="#999999" stroke="#999999" points="656,-22 602,-22 602,-0 656,-0 656,-22"/>
<text text-anchor="middle" x="629" y="-7.4" font-family="Helvetica,sans-Serif" font-size="12.00" fill="white">Int32</text>
</a>
</g>
</g>
<!-- CVarArgType&#45;&gt;Int32 -->
<g id="edge6" class="edge">
<path fill="none" stroke="#cccccc" d="M793.026,-115.883C761.537,-95.9399 691.255,-51.4281 653.729,-27.6618"/>
<polygon fill="#cccccc" stroke="#cccccc" points="655.259,-24.4878 644.938,-22.0941 651.514,-30.4015 655.259,-24.4878"/>
</g>
<!-- Int64 -->
<g id="node10" class="node">
<g id="a_node10"><a xlink:href="/v1.2/type/Int64/hierarchy/" target="_top">
<polygon fill="#999999" stroke="#999999" points="728,-22 674,-22 674,-0 728,-0 728,-22"/>
<text text-anchor="middle" x="701" y="-7.4" font-family="Helvetica,sans-Serif" font-size="12.00" fill="white">Int64</text>
</a>
</g>
</g>
<!-- CVarArgType&#45;&gt;Int64 -->
<g id="edge7" class="edge">
<path fill="none" stroke="#cccccc" d="M799.416,-115.883C781.049,-96.4959 740.686,-53.8909 717.765,-29.6969"/>
<polygon fill="#cccccc" stroke="#cccccc" points="720.136,-27.1104 710.718,-22.2579 715.055,-31.9246 720.136,-27.1104"/>
</g>
<!-- Int8 -->
<g id="node11" class="node">
<g id="a_node11"><a xlink:href="/v1.2/type/Int8/hierarchy/" target="_top">
<polygon fill="#999999" stroke="#999999" points="800,-22 746,-22 746,-0 800,-0 800,-22"/>
<text text-anchor="middle" x="773" y="-7.4" font-family="Helvetica,sans-Serif" font-size="12.00" fill="white">Int8</text>
</a>
</g>
</g>
<!-- CVarArgType&#45;&gt;Int8 -->
<g id="edge8" class="edge">
<path fill="none" stroke="#cccccc" d="M805.805,-115.883C799.869,-97.086 787.041,-56.4627 779.302,-31.9559"/>
<polygon fill="#cccccc" stroke="#cccccc" points="782.588,-30.7398 776.239,-22.2579 775.913,-32.8478 782.588,-30.7398"/>
</g>
<!-- UInt -->
<g id="node12" class="node">
<g id="a_node12"><a xlink:href="/v1.2/type/UInt/hierarchy/" target="_top">
<polygon fill="#999999" stroke="#999999" points="872,-22 818,-22 818,-0 872,-0 872,-22"/>
<text text-anchor="middle" x="845" y="-7.4" font-family="Helvetica,sans-Serif" font-size="12.00" fill="white">UInt</text>
</a>
</g>
</g>
<!-- CVarArgType&#45;&gt;UInt -->
<g id="edge9" class="edge">
<path fill="none" stroke="#cccccc" d="M812.195,-115.883C818.131,-97.086 830.959,-56.4627 838.698,-31.9559"/>
<polygon fill="#cccccc" stroke="#cccccc" points="842.087,-32.8478 841.761,-22.2579 835.412,-30.7398 842.087,-32.8478"/>
</g>
<!-- UInt16 -->
<g id="node13" class="node">
<g id="a_node13"><a xlink:href="/v1.2/type/UInt16/hierarchy/" target="_top">
<polygon fill="#999999" stroke="#999999" points="944,-22 890,-22 890,-0 944,-0 944,-22"/>
<text text-anchor="middle" x="917" y="-7.4" font-family="Helvetica,sans-Serif" font-size="12.00" fill="white">UInt16</text>
</a>
</g>
</g>
<!-- CVarArgType&#45;&gt;UInt16 -->
<g id="edge10" class="edge">
<path fill="none" stroke="#cccccc" d="M818.584,-115.883C836.951,-96.4959 877.314,-53.8909 900.235,-29.6969"/>
<polygon fill="#cccccc" stroke="#cccccc" points="902.945,-31.9246 907.282,-22.2579 897.864,-27.1104 902.945,-31.9246"/>
</g>
<!-- UInt32 -->
<g id="node14" class="node">
<g id="a_node14"><a xlink:href="/v1.2/type/UInt32/hierarchy/" target="_top">
<polygon fill="#999999" stroke="#999999" points="1016,-22 962,-22 962,-0 1016,-0 1016,-22"/>
<text text-anchor="middle" x="989" y="-7.4" font-family="Helvetica,sans-Serif" font-size="12.00" fill="white">UInt32</text>
</a>
</g>
</g>
<!-- CVarArgType&#45;&gt;UInt32 -->
<g id="edge11" class="edge">
<path fill="none" stroke="#cccccc" d="M824.974,-115.883C856.463,-95.9399 926.745,-51.4281 964.271,-27.6618"/>
<polygon fill="#cccccc" stroke="#cccccc" points="966.486,-30.4015 973.062,-22.0941 962.741,-24.4878 966.486,-30.4015"/>
</g>
<!-- UInt64 -->
<g id="node15" class="node">
<g id="a_node15"><a xlink:href="/v1.2/type/UInt64/hierarchy/" target="_top">
<polygon fill="#999999" stroke="#999999" points="1088,-22 1034,-22 1034,-0 1088,-0 1088,-22"/>
<text text-anchor="middle" x="1061" y="-7.4" font-family="Helvetica,sans-Serif" font-size="12.00" fill="white">UInt64</text>
</a>
</g>
</g>
<!-- CVarArgType&#45;&gt;UInt64 -->
<g id="edge12" class="edge">
<path fill="none" stroke="#cccccc" d="M832.174,-115.863C853.278,-106.604 885.283,-92.4965 913,-80 953.706,-61.6475 1000.51,-40.0628 1030.39,-26.2163"/>
<polygon fill="#cccccc" stroke="#cccccc" points="1031.87,-29.388 1039.47,-22.0065 1028.93,-23.0373 1031.87,-29.388"/>
</g>
<!-- UInt8 -->
<g id="node16" class="node">
<g id="a_node16"><a xlink:href="/v1.2/type/UInt8/hierarchy/" target="_top">
<polygon fill="#999999" stroke="#999999" points="1160,-22 1106,-22 1106,-0 1160,-0 1160,-22"/>
<text text-anchor="middle" x="1133" y="-7.4" font-family="Helvetica,sans-Serif" font-size="12.00" fill="white">UInt8</text>
</a>
</g>
</g>
<!-- CVarArgType&#45;&gt;UInt8 -->
<g id="edge13" class="edge">
<path fill="none" stroke="#cccccc" d="M841.043,-115.953C869.703,-106.87 912.801,-92.9731 950,-80 1001.48,-62.0446 1060.53,-39.8023 1097.3,-25.7519"/>
<polygon fill="#cccccc" stroke="#cccccc" points="1098.97,-28.8608 1107.06,-22.0165 1096.47,-22.3236 1098.97,-28.8608"/>
</g>
<!-- UnsafeMutablePointer -->
<g id="node17" class="node">
<g id="a_node17"><a xlink:href="/v1.2/type/UnsafeMutablePointer/hierarchy/" target="_top">
<polygon fill="#999999" stroke="#999999" points="1306.05,-22 1177.95,-22 1177.95,-0 1306.05,-0 1306.05,-22"/>
<text text-anchor="middle" x="1242" y="-7.4" font-family="Helvetica,sans-Serif" font-size="12.00" fill="white">UnsafeMutablePointer</text>
</a>
</g>
</g>
<!-- CVarArgType&#45;&gt;UnsafeMutablePointer -->
<g id="edge14" class="edge">
<path fill="none" stroke="#cccccc" d="M849.351,-116.343C887.079,-107.238 944.953,-93.0752 995,-80 1065.66,-61.5407 1147.28,-38.7881 1196.74,-24.8425"/>
<polygon fill="#cccccc" stroke="#cccccc" points="1197.82,-28.1752 1206.49,-22.0899 1195.92,-21.4385 1197.82,-28.1752"/>
</g>
<!-- UnsafePointer -->
<g id="node18" class="node">
<g id="a_node18"><a xlink:href="/v1.2/type/UnsafePointer/hierarchy/" target="_top">
<polygon fill="#999999" stroke="#999999" points="1410.03,-22 1323.97,-22 1323.97,-0 1410.03,-0 1410.03,-22"/>
<text text-anchor="middle" x="1367" y="-7.4" font-family="Helvetica,sans-Serif" font-size="12.00" fill="white">UnsafePointer</text>
</a>
</g>
</g>
<!-- CVarArgType&#45;&gt;UnsafePointer -->
<g id="edge15" class="edge">
<path fill="none" stroke="#cccccc" d="M849.564,-118.548C897.505,-109.674 979.656,-94.2561 1050,-80 1142.89,-61.1755 1250.72,-37.697 1313.65,-23.8299"/>
<polygon fill="#cccccc" stroke="#cccccc" points="1314.73,-27.1777 1323.74,-21.6058 1313.22,-20.342 1314.73,-27.1777"/>
</g>
<!-- _CVarArgPassedAsDouble -->
<g id="node19" class="node">
<g id="a_node19"><a xlink:href="/v1.2/protocol/_CVarArgPassedAsDouble/hierarchy/" target="_top">
<path fill="#999999" stroke="#999999" d="M1536.06,-80C1536.06,-80 1397.94,-80 1397.94,-80 1394.27,-80 1390.6,-76.3333 1390.6,-72.6667 1390.6,-72.6667 1390.6,-65.3333 1390.6,-65.3333 1390.6,-61.6667 1394.27,-58 1397.94,-58 1397.94,-58 1536.06,-58 1536.06,-58 1539.73,-58 1543.4,-61.6667 1543.4,-65.3333 1543.4,-65.3333 1543.4,-72.6667 1543.4,-72.6667 1543.4,-76.3333 1539.73,-80 1536.06,-80"/>
<text text-anchor="middle" x="1467" y="-65.4" font-family="Helvetica,sans-Serif" font-size="12.00" fill="white">_CVarArgPassedAsDouble</text>
</a>
</g>
</g>
<!-- CVarArgType&#45;&gt;_CVarArgPassedAsDouble -->
<g id="edge16" class="edge">
<path fill="none" stroke="#cccccc" d="M849.599,-123.105C942.729,-116.378 1178.88,-98.8229 1376,-80 1377.48,-79.8584 1378.98,-79.7137 1380.49,-79.5664"/>
<polygon fill="#cccccc" stroke="#cccccc" points="1380.95,-83.0375 1390.55,-78.5605 1380.26,-76.0722 1380.95,-83.0375"/>
</g>
<!-- Double -->
<g id="node5" class="node">
<g id="a_node5"><a xlink:href="/v1.2/type/Double/hierarchy/" target="_top">
<polygon fill="#999999" stroke="#999999" points="1490,-22 1436,-22 1436,-0 1490,-0 1490,-22"/>
<text text-anchor="middle" x="1463" y="-7.4" font-family="Helvetica,sans-Serif" font-size="12.00" fill="white">Double</text>
</a>
</g>
</g>
<!-- Float -->
<g id="node6" class="node">
<g id="a_node6"><a xlink:href="/v1.2/type/Float/hierarchy/" target="_top">
<polygon fill="#999999" stroke="#999999" points="1562,-22 1508,-22 1508,-0 1562,-0 1562,-22"/>
<text text-anchor="middle" x="1535" y="-7.4" font-family="Helvetica,sans-Serif" font-size="12.00" fill="white">Float</text>
</a>
</g>
</g>
<!-- _CVarArgPassedAsDouble&#45;&gt;Double -->
<g id="edge17" class="edge">
<path fill="none" stroke="#cccccc" d="M1466.28,-57.9883C1465.78,-50.9098 1465.08,-41.1714 1464.46,-32.4779"/>
<polygon fill="#cccccc" stroke="#cccccc" points="1467.94,-32.0291 1463.74,-22.3039 1460.96,-32.5279 1467.94,-32.0291"/>
</g>
<!-- _CVarArgPassedAsDouble&#45;&gt;Float -->
<g id="edge18" class="edge">
<path fill="none" stroke="#cccccc" d="M1479.16,-57.9883C1488.99,-49.8873 1503.06,-38.3026 1514.62,-28.7873"/>
<polygon fill="#cccccc" stroke="#cccccc" points="1516.99,-31.3627 1522.49,-22.3039 1512.54,-25.9592 1516.99,-31.3627"/>
</g>
</g>
</svg>
