<?xml version="1.0" encoding="UTF-8" standalone="no"?>
<!DOCTYPE svg PUBLIC "-//W3C//DTD SVG 1.1//EN"
 "http://www.w3.org/Graphics/SVG/1.1/DTD/svg11.dtd">
<!-- Generated by graphviz version 2.36.0 (20140111.2315)
 -->
<!-- Title: Int32 &#45; Type Hierarchy &#45; SwiftDoc.org Pages: 1 -->
<svg width="1276pt" height="543pt"
 viewBox="0.00 0.00 1276.40 543.20" xmlns="http://www.w3.org/2000/svg" xmlns:xlink="http://www.w3.org/1999/xlink">
<g id="graph0" class="graph" transform="scale(1 1) rotate(0) translate(7.2 485.6)">
<g transform="translate(0 -485.6)">
<g>
    <path fill="#666666" d="M13.846,10.832c-0.336-0.464-0.792-0.844-1.368-1.14s-1.224-0.444-1.944-0.444
        c-0.384,0-0.772,0.052-1.164,0.156C8.977,9.509,8.622,9.677,8.301,9.908c-0.32,0.232-0.58,0.52-0.78,0.864
        c-0.2,0.344-0.3,0.756-0.3,1.236c0,0.464,0.092,0.852,0.276,1.164c0.184,0.312,0.432,0.576,0.744,0.792s0.68,0.4,1.104,0.552
        c0.423,0.152,0.876,0.309,1.356,0.468c0.576,0.177,1.16,0.376,1.752,0.601c0.592,0.224,1.128,0.52,1.608,0.888
        s0.872,0.828,1.176,1.38s0.456,1.252,0.456,2.101c0,0.88-0.164,1.644-0.492,2.292c-0.328,0.647-0.765,1.184-1.308,1.607
        c-0.544,0.424-1.172,0.74-1.884,0.948s-1.444,0.312-2.196,0.312c-1.072,0-2.108-0.208-3.108-0.624
        c-1-0.415-1.828-1.031-2.484-1.848l1.848-1.56c0.4,0.592,0.936,1.071,1.608,1.439c0.672,0.368,1.399,0.552,2.184,0.552
        c0.4,0,0.8-0.056,1.2-0.168c0.4-0.111,0.764-0.288,1.092-0.527c0.328-0.24,0.596-0.54,0.804-0.9
        c0.208-0.36,0.312-0.796,0.312-1.308s-0.108-0.94-0.324-1.284c-0.216-0.344-0.508-0.636-0.876-0.876s-0.796-0.444-1.284-0.612
        c-0.488-0.168-1.004-0.34-1.548-0.516c-0.544-0.16-1.08-0.356-1.608-0.588c-0.528-0.232-1-0.528-1.416-0.889
        c-0.416-0.359-0.752-0.804-1.008-1.332c-0.256-0.527-0.384-1.184-0.384-1.968c0-0.848,0.172-1.576,0.516-2.184
        c0.344-0.608,0.792-1.112,1.344-1.512c0.552-0.4,1.176-0.692,1.872-0.876c0.696-0.184,1.396-0.276,2.1-0.276
        c0.992,0,1.92,0.176,2.784,0.528c0.864,0.352,1.56,0.824,2.088,1.416L13.846,10.832z"/>
    <path fill="#666666" d="M18.813,13.304l2.568,8.688h0.048l2.712-8.688h2.376l2.76,8.688h0.048l2.568-8.688h2.376L30.501,24.68
        h-2.352l-2.808-8.544h-0.048l-2.784,8.544h-2.352l-3.792-11.376H18.813z"/>
    <path fill="#666666" d="M38.685,9.2c0,0.416-0.147,0.76-0.44,1.032c-0.294,0.272-0.647,0.408-1.06,0.408s-0.762-0.14-1.047-0.42
        c-0.286-0.28-0.429-0.62-0.429-1.02c0-0.416,0.143-0.764,0.429-1.044c0.286-0.28,0.635-0.42,1.047-0.42s0.766,0.14,1.06,0.42
        C38.538,8.437,38.685,8.784,38.685,9.2z M38.325,24.68h-2.256V13.304h2.256V24.68z"/>
    <path fill="#666666" d="M47.613,15.152h-2.64v9.528h-2.256v-9.528h-2.256v-1.848h2.256v-2.376c0-0.672,0.076-1.292,0.228-1.86
        c0.152-0.568,0.4-1.06,0.744-1.476c0.344-0.416,0.784-0.744,1.32-0.984c0.536-0.24,1.188-0.36,1.956-0.36
        c0.544,0,1.016,0.056,1.416,0.168l-0.264,1.944c-0.176-0.048-0.352-0.088-0.528-0.12c-0.176-0.032-0.376-0.048-0.6-0.048
        c-0.432,0-0.78,0.076-1.044,0.228c-0.264,0.152-0.468,0.356-0.612,0.612s-0.24,0.548-0.288,0.876
        c-0.048,0.328-0.072,0.668-0.072,1.02v2.376h2.64V15.152z"/>
    <path fill="#666666" d="M54.909,15.152h-3.024v5.91c0,0.687,0.128,1.177,0.384,1.472c0.256,0.295,0.664,0.442,1.224,0.442
        c0.208,0,0.432-0.021,0.672-0.065c0.24-0.044,0.456-0.11,0.648-0.198l0.072,1.848c-0.272,0.096-0.572,0.172-0.9,0.229
        c-0.328,0.056-0.668,0.084-1.02,0.084c-1.072,0-1.892-0.296-2.46-0.889c-0.568-0.592-0.852-1.479-0.852-2.664v-6.168h-2.184
        v-1.848h2.184V10.04h2.232v3.264h3.024V15.152z"/>
    <path fill="#666666" d="M57.356,7.688h5.832c1.088,0,2.176,0.16,3.264,0.48c1.088,0.32,2.072,0.824,2.952,1.512
        s1.592,1.568,2.136,2.64c0.544,1.072,0.816,2.36,0.816,3.864c0,1.456-0.272,2.716-0.816,3.78s-1.256,1.943-2.136,2.64
        s-1.864,1.216-2.952,1.561c-1.088,0.344-2.176,0.516-3.264,0.516h-5.832V7.688z M59.732,22.593h2.976
        c1.024,0,1.972-0.145,2.844-0.432c0.872-0.288,1.624-0.704,2.256-1.248c0.632-0.544,1.124-1.216,1.476-2.017
        c0.352-0.8,0.528-1.704,0.528-2.712c0-1.056-0.176-1.983-0.528-2.784c-0.353-0.8-0.844-1.468-1.476-2.004
        c-0.632-0.536-1.384-0.944-2.256-1.224s-1.82-0.42-2.844-0.42h-2.976V22.593z"/>
    <path fill="#666666" d="M86.06,18.969c0,0.88-0.156,1.688-0.468,2.424c-0.312,0.736-0.744,1.372-1.296,1.908
        c-0.552,0.536-1.204,0.952-1.956,1.248c-0.752,0.296-1.56,0.443-2.424,0.443c-0.864,0-1.672-0.147-2.424-0.443
        c-0.752-0.296-1.4-0.712-1.944-1.248c-0.544-0.536-0.972-1.172-1.284-1.908c-0.312-0.735-0.468-1.544-0.468-2.424
        s0.156-1.684,0.468-2.412c0.312-0.728,0.74-1.356,1.284-1.884c0.543-0.528,1.191-0.939,1.944-1.236
        c0.752-0.296,1.56-0.444,2.424-0.444c0.864,0,1.672,0.148,2.424,0.444c0.752,0.297,1.404,0.708,1.956,1.236
        c0.552,0.527,0.984,1.156,1.296,1.884C85.904,17.285,86.06,18.089,86.06,18.969z M83.708,18.98c0-0.542-0.084-1.061-0.252-1.556
        c-0.169-0.494-0.414-0.929-0.734-1.304s-0.718-0.674-1.192-0.897s-1.015-0.335-1.625-0.335c-0.61,0-1.152,0.111-1.625,0.335
        c-0.474,0.224-0.871,0.522-1.191,0.897c-0.321,0.375-0.566,0.81-0.734,1.304C76.184,17.92,76.1,18.438,76.1,18.98
        c0,0.543,0.084,1.062,0.253,1.556c0.168,0.495,0.413,0.934,0.734,1.316c0.321,0.383,0.718,0.686,1.191,0.909
        c0.473,0.224,1.015,0.335,1.625,0.335c0.61,0,1.151-0.111,1.625-0.335s0.871-0.526,1.192-0.909s0.565-0.821,0.734-1.316
        C83.624,20.042,83.708,19.523,83.708,18.98z"/>
    <path fill="#666666" d="M96.428,16.184c-0.24-0.368-0.6-0.676-1.08-0.924s-0.992-0.372-1.536-0.372
        c-0.592,0-1.116,0.112-1.572,0.336c-0.456,0.225-0.844,0.524-1.164,0.9c-0.32,0.376-0.564,0.812-0.732,1.308
        s-0.252,1.017-0.252,1.56c0,0.545,0.084,1.064,0.252,1.561s0.412,0.933,0.732,1.308c0.32,0.376,0.712,0.677,1.176,0.9
        c0.464,0.225,0.992,0.336,1.584,0.336c0.576,0,1.1-0.111,1.572-0.336c0.472-0.224,0.86-0.528,1.164-0.912l1.512,1.368
        c-0.48,0.561-1.08,0.996-1.8,1.308c-0.72,0.312-1.536,0.468-2.448,0.468c-0.88,0-1.692-0.144-2.436-0.432
        c-0.744-0.288-1.388-0.691-1.932-1.212c-0.544-0.52-0.972-1.147-1.284-1.884s-0.468-1.561-0.468-2.473
        c0-0.896,0.152-1.711,0.456-2.447c0.304-0.736,0.728-1.368,1.272-1.896c0.543-0.527,1.188-0.936,1.932-1.224
        c0.744-0.288,1.548-0.433,2.412-0.433c0.8,0,1.596,0.16,2.388,0.48s1.419,0.784,1.884,1.392L96.428,16.184z"/>
    <path fill="#666666" d="M103.1,23.24c0,0.417-0.152,0.784-0.456,1.104c-0.304,0.32-0.688,0.479-1.152,0.479
        c-0.448,0-0.828-0.155-1.14-0.468c-0.312-0.312-0.468-0.676-0.468-1.092c0-0.432,0.152-0.804,0.456-1.116
        c0.304-0.312,0.688-0.468,1.152-0.468c0.464,0,0.848,0.152,1.152,0.456C102.947,22.44,103.1,22.808,103.1,23.24z"/>
    <path fill="#666666" d="M116.635,18.969c0,0.88-0.156,1.688-0.468,2.424c-0.312,0.736-0.744,1.372-1.296,1.908
        c-0.552,0.536-1.204,0.952-1.956,1.248c-0.752,0.296-1.56,0.443-2.424,0.443c-0.864,0-1.672-0.147-2.424-0.443
        c-0.752-0.296-1.4-0.712-1.944-1.248c-0.544-0.536-0.972-1.172-1.284-1.908c-0.312-0.735-0.468-1.544-0.468-2.424
        s0.156-1.684,0.468-2.412c0.312-0.728,0.74-1.356,1.284-1.884c0.543-0.528,1.191-0.939,1.944-1.236
        c0.752-0.296,1.56-0.444,2.424-0.444c0.864,0,1.672,0.148,2.424,0.444c0.752,0.297,1.404,0.708,1.956,1.236
        c0.552,0.527,0.984,1.156,1.296,1.884C116.479,17.285,116.635,18.089,116.635,18.969z M114.283,18.98
        c0-0.542-0.084-1.061-0.252-1.556c-0.169-0.494-0.414-0.929-0.734-1.304s-0.718-0.674-1.192-0.897s-1.015-0.335-1.625-0.335
        c-0.61,0-1.152,0.111-1.625,0.335c-0.474,0.224-0.871,0.522-1.191,0.897c-0.321,0.375-0.566,0.81-0.734,1.304
        c-0.169,0.495-0.253,1.014-0.253,1.556c0,0.543,0.084,1.062,0.253,1.556c0.168,0.495,0.413,0.934,0.734,1.316
        c0.321,0.383,0.718,0.686,1.191,0.909c0.473,0.224,1.015,0.335,1.625,0.335c0.61,0,1.151-0.111,1.625-0.335
        s0.871-0.526,1.192-0.909s0.565-0.821,0.734-1.316C114.199,20.042,114.283,19.523,114.283,18.98z"/>
    <path fill="#666666" d="M119.251,14.577c-0.016-0.48-0.04-0.904-0.072-1.272h2.136c0.032,0.288,0.056,0.62,0.072,0.996
        c0.016,0.376,0.024,0.684,0.024,0.924h0.072c0.32-0.672,0.788-1.212,1.404-1.62c0.616-0.408,1.308-0.612,2.076-0.612
        c0.352,0,0.648,0.033,0.888,0.097l-0.096,2.088c-0.32-0.08-0.664-0.12-1.032-0.12c-0.544,0-1.016,0.101-1.416,0.3
        c-0.4,0.2-0.732,0.468-0.996,0.805c-0.264,0.336-0.46,0.724-0.588,1.163c-0.128,0.44-0.192,0.9-0.192,1.381v5.976h-2.256v-8.928
        C119.275,15.449,119.267,15.056,119.251,14.577z"/>
    <path fill="#666666" d="M128.419,26.625c0.496,0.56,1.116,1.008,1.86,1.344c0.744,0.336,1.508,0.504,2.292,0.504
        c0.752,0,1.384-0.108,1.896-0.324s0.924-0.512,1.236-0.888s0.536-0.82,0.672-1.332c0.136-0.513,0.204-1.064,0.204-1.656v-1.464
        h-0.048c-0.416,0.641-0.984,1.128-1.704,1.464c-0.72,0.336-1.488,0.504-2.304,0.504c-0.864,0-1.652-0.151-2.364-0.456
        c-0.712-0.304-1.316-0.72-1.812-1.248c-0.496-0.527-0.88-1.147-1.152-1.859s-0.408-1.477-0.408-2.292
        c0-0.816,0.136-1.584,0.408-2.305c0.272-0.72,0.656-1.348,1.152-1.884c0.496-0.535,1.096-0.96,1.8-1.271
        c0.704-0.312,1.488-0.469,2.352-0.469c0.816,0,1.596,0.177,2.34,0.528c0.744,0.353,1.332,0.888,1.764,1.608h0.048v-1.824h2.184
        v10.8c0,0.832-0.104,1.628-0.312,2.388c-0.208,0.76-0.56,1.433-1.056,2.017s-1.144,1.052-1.944,1.404
        c-0.8,0.352-1.792,0.527-2.976,0.527c-0.992,0-1.988-0.18-2.988-0.54c-1-0.359-1.86-0.868-2.58-1.523L128.419,26.625z
         M129.091,18.873c0,0.527,0.084,1.031,0.253,1.512c0.168,0.479,0.417,0.904,0.746,1.271c0.329,0.369,0.726,0.664,1.192,0.889
        c0.465,0.224,0.995,0.336,1.589,0.336c0.577,0,1.107-0.104,1.589-0.312c0.481-0.207,0.891-0.491,1.228-0.852
        s0.598-0.784,0.782-1.272c0.185-0.487,0.277-1.012,0.277-1.571c0-0.544-0.093-1.057-0.277-1.536
        c-0.185-0.48-0.449-0.904-0.794-1.272c-0.345-0.367-0.755-0.66-1.228-0.876c-0.474-0.216-1-0.324-1.577-0.324
        c-0.594,0-1.124,0.108-1.589,0.324c-0.466,0.216-0.863,0.504-1.192,0.864s-0.578,0.784-0.746,1.271
        C129.175,17.812,129.091,18.329,129.091,18.873z"/>
</g>
<g><a xlink:href="/" pointer-events="all" target="_top"><polygon fill="none" points="0,0 145,0 145,35 0,35 0,0"/></a></g>

</g>


<!-- BidirectionalIndexType -->
<g id="node1" class="node">
<g id="a_node1"><a xlink:href="/swift-2/protocol/BidirectionalIndexType/" target="_top">
<path fill="#999999" stroke="#999999" d="M1092.73,-254C1092.73,-254 977.275,-254 977.275,-254 973.608,-254 969.941,-250.333 969.941,-246.667 969.941,-246.667 969.941,-239.333 969.941,-239.333 969.941,-235.667 973.608,-232 977.275,-232 977.275,-232 1092.73,-232 1092.73,-232 1096.39,-232 1100.06,-235.667 1100.06,-239.333 1100.06,-239.333 1100.06,-246.667 1100.06,-246.667 1100.06,-250.333 1096.39,-254 1092.73,-254"/>
<text text-anchor="middle" x="1035" y="-239.4" font-family="Helvetica,sans-Serif" font-size="12.00" fill="white">BidirectionalIndexType</text>
</a>
</g>
</g>
<!-- Int32 -->
<g id="node9" class="node">
<g id="a_node9"><a xlink:href="/swift-2/type/Int32/" target="_top">
<polygon fill="#ee543d" stroke="#ee543d" points="719,-22 665,-22 665,-0 719,-0 719,-22"/>
<text text-anchor="middle" x="692" y="-7.4" font-family="Helvetica,sans-Serif" font-size="12.00" fill="white">Int32</text>
</a>
</g>
</g>
<!-- BidirectionalIndexType&#45;&gt;Int32 -->
<g id="edge12" class="edge">
<path fill="none" stroke="#cccccc" d="M997.706,-231.949C979.647,-224.998 959.617,-213.72 949,-196 930.69,-165.441 962.656,-150.557 954,-116 946.898,-87.6471 946.475,-75.4143 923,-58 892.778,-35.5806 786.618,-21.6217 729.327,-15.5459"/>
<polygon fill="#cccccc" stroke="#cccccc" points="729.535,-12.0488 719.228,-14.5029 728.815,-19.0117 729.535,-12.0488"/>
</g>
<!-- RandomAccessIndexType -->
<g id="node13" class="node">
<g id="a_node13"><a xlink:href="/swift-2/protocol/RandomAccessIndexType/" target="_top">
<path fill="#999999" stroke="#999999" d="M1100.23,-196C1100.23,-196 965.775,-196 965.775,-196 962.108,-196 958.441,-192.333 958.441,-188.667 958.441,-188.667 958.441,-181.333 958.441,-181.333 958.441,-177.667 962.108,-174 965.775,-174 965.775,-174 1100.23,-174 1100.23,-174 1103.89,-174 1107.56,-177.667 1107.56,-181.333 1107.56,-181.333 1107.56,-188.667 1107.56,-188.667 1107.56,-192.333 1103.89,-196 1100.23,-196"/>
<text text-anchor="middle" x="1033" y="-181.4" font-family="Helvetica,sans-Serif" font-size="12.00" fill="white">RandomAccessIndexType</text>
</a>
</g>
</g>
<!-- BidirectionalIndexType&#45;&gt;RandomAccessIndexType -->
<g id="edge41" class="edge">
<path fill="none" stroke="#cccccc" d="M1034.64,-231.988C1034.39,-224.91 1034.04,-215.171 1033.73,-206.478"/>
<polygon fill="#cccccc" stroke="#cccccc" points="1037.22,-206.173 1033.37,-196.304 1030.23,-206.422 1037.22,-206.173"/>
</g>
<!-- BitwiseOperationsType -->
<g id="node2" class="node">
<g id="a_node2"><a xlink:href="/swift-2/protocol/BitwiseOperationsType/" target="_top">
<path fill="#999999" stroke="#999999" d="M366.715,-254C366.715,-254 249.285,-254 249.285,-254 245.618,-254 241.952,-250.333 241.952,-246.667 241.952,-246.667 241.952,-239.333 241.952,-239.333 241.952,-235.667 245.618,-232 249.285,-232 249.285,-232 366.715,-232 366.715,-232 370.382,-232 374.048,-235.667 374.048,-239.333 374.048,-239.333 374.048,-246.667 374.048,-246.667 374.048,-250.333 370.382,-254 366.715,-254"/>
<text text-anchor="middle" x="308" y="-239.4" font-family="Helvetica,sans-Serif" font-size="12.00" fill="white">BitwiseOperationsType</text>
</a>
</g>
</g>
<!-- BitwiseOperationsType&#45;&gt;Int32 -->
<g id="edge19" class="edge">
<path fill="none" stroke="#cccccc" d="M319.063,-231.82C352.523,-201.495 456.527,-110.614 557,-58 588.551,-41.4781 627.265,-29.0006 655.133,-21.2385"/>
<polygon fill="#cccccc" stroke="#cccccc" points="656.142,-24.5912 664.876,-18.5933 654.308,-17.8358 656.142,-24.5912"/>
</g>
<!-- _IntegerType -->
<g id="node19" class="node">
<g id="a_node19"><a xlink:href="/swift-2/protocol/_IntegerType/" target="_top">
<path fill="#999999" stroke="#999999" d="M580.708,-196C580.708,-196 515.292,-196 515.292,-196 511.626,-196 507.959,-192.333 507.959,-188.667 507.959,-188.667 507.959,-181.333 507.959,-181.333 507.959,-177.667 511.626,-174 515.292,-174 515.292,-174 580.708,-174 580.708,-174 584.374,-174 588.041,-177.667 588.041,-181.333 588.041,-181.333 588.041,-188.667 588.041,-188.667 588.041,-192.333 584.374,-196 580.708,-196"/>
<text text-anchor="middle" x="548" y="-181.4" font-family="Helvetica,sans-Serif" font-size="12.00" fill="white">_IntegerType</text>
</a>
</g>
</g>
<!-- BitwiseOperationsType&#45;&gt;_IntegerType -->
<g id="edge30" class="edge">
<path fill="none" stroke="#cccccc" d="M350.907,-231.988C392.185,-222.357 454.569,-207.801 498.059,-197.653"/>
<polygon fill="#cccccc" stroke="#cccccc" points="498.916,-201.047 507.859,-195.366 497.325,-194.23 498.916,-201.047"/>
</g>
<!-- CVarArgType -->
<g id="node3" class="node">
<g id="a_node3"><a xlink:href="/swift-2/protocol/CVarArgType/" target="_top">
<path fill="#999999" stroke="#999999" d="M140.029,-80C140.029,-80 73.9709,-80 73.9709,-80 70.3043,-80 66.6376,-76.3333 66.6376,-72.6667 66.6376,-72.6667 66.6376,-65.3333 66.6376,-65.3333 66.6376,-61.6667 70.3043,-58 73.9709,-58 73.9709,-58 140.029,-58 140.029,-58 143.696,-58 147.362,-61.6667 147.362,-65.3333 147.362,-65.3333 147.362,-72.6667 147.362,-72.6667 147.362,-76.3333 143.696,-80 140.029,-80"/>
<text text-anchor="middle" x="107" y="-65.4" font-family="Helvetica,sans-Serif" font-size="12.00" fill="white">CVarArgType</text>
</a>
</g>
</g>
<!-- CVarArgType&#45;&gt;Int32 -->
<g id="edge21" class="edge">
<path fill="none" stroke="#cccccc" d="M147.481,-60.1978C152.363,-59.3878 157.287,-58.6316 162,-58 346.101,-33.329 568.038,-19.0315 654.744,-14.0347"/>
<polygon fill="#cccccc" stroke="#cccccc" points="655.091,-17.5208 664.875,-13.4579 654.693,-10.5321 655.091,-17.5208"/>
</g>
<!-- Comparable -->
<g id="node4" class="node">
<g id="a_node4"><a xlink:href="/swift-2/protocol/Comparable/" target="_top">
<path fill="#999999" stroke="#999999" d="M972.191,-312C972.191,-312 911.809,-312 911.809,-312 908.142,-312 904.475,-308.333 904.475,-304.667 904.475,-304.667 904.475,-297.333 904.475,-297.333 904.475,-293.667 908.142,-290 911.809,-290 911.809,-290 972.191,-290 972.191,-290 975.858,-290 979.525,-293.667 979.525,-297.333 979.525,-297.333 979.525,-304.667 979.525,-304.667 979.525,-308.333 975.858,-312 972.191,-312"/>
<text text-anchor="middle" x="942" y="-297.4" font-family="Helvetica,sans-Serif" font-size="12.00" fill="white">Comparable</text>
</a>
</g>
</g>
<!-- Comparable&#45;&gt;Int32 -->
<g id="edge4" class="edge">
<path fill="none" stroke="#cccccc" d="M979.457,-294.597C1023.34,-287.461 1092.22,-273.481 1109,-254 1132.29,-226.958 1127.1,-207.922 1116,-174 1096.13,-113.253 1085.93,-90.677 1031,-58 980.664,-28.0562 806.682,-16.948 729.444,-13.4257"/>
<polygon fill="#cccccc" stroke="#cccccc" points="729.354,-9.9185 719.211,-12.9779 729.048,-16.9118 729.354,-9.9185"/>
</g>
<!-- IntegerArithmeticType -->
<g id="node10" class="node">
<g id="a_node10"><a xlink:href="/swift-2/protocol/IntegerArithmeticType/" target="_top">
<path fill="#999999" stroke="#999999" d="M710.711,-254C710.711,-254 599.289,-254 599.289,-254 595.623,-254 591.956,-250.333 591.956,-246.667 591.956,-246.667 591.956,-239.333 591.956,-239.333 591.956,-235.667 595.623,-232 599.289,-232 599.289,-232 710.711,-232 710.711,-232 714.377,-232 718.044,-235.667 718.044,-239.333 718.044,-239.333 718.044,-246.667 718.044,-246.667 718.044,-250.333 714.377,-254 710.711,-254"/>
<text text-anchor="middle" x="655" y="-239.4" font-family="Helvetica,sans-Serif" font-size="12.00" fill="white">IntegerArithmeticType</text>
</a>
</g>
</g>
<!-- Comparable&#45;&gt;IntegerArithmeticType -->
<g id="edge34" class="edge">
<path fill="none" stroke="#cccccc" d="M904.48,-292.679C856.677,-283.352 773.423,-267.107 716.335,-255.968"/>
<polygon fill="#cccccc" stroke="#cccccc" points="716.834,-252.499 706.349,-254.019 715.493,-259.37 716.834,-252.499"/>
</g>
<!-- SignedNumberType -->
<g id="node15" class="node">
<g id="a_node15"><a xlink:href="/swift-2/protocol/SignedNumberType/" target="_top">
<path fill="#999999" stroke="#999999" d="M894.716,-196C894.716,-196 793.284,-196 793.284,-196 789.617,-196 785.95,-192.333 785.95,-188.667 785.95,-188.667 785.95,-181.333 785.95,-181.333 785.95,-177.667 789.617,-174 793.284,-174 793.284,-174 894.716,-174 894.716,-174 898.383,-174 902.05,-177.667 902.05,-181.333 902.05,-181.333 902.05,-188.667 902.05,-188.667 902.05,-192.333 898.383,-196 894.716,-196"/>
<text text-anchor="middle" x="844" y="-181.4" font-family="Helvetica,sans-Serif" font-size="12.00" fill="white">SignedNumberType</text>
</a>
</g>
</g>
<!-- Comparable&#45;&gt;SignedNumberType -->
<g id="edge37" class="edge">
<path fill="none" stroke="#cccccc" d="M941.499,-289.717C940.316,-275.395 936.343,-249.264 923,-232 912.411,-218.3 896.499,-207.922 881.725,-200.523"/>
<polygon fill="#cccccc" stroke="#cccccc" points="882.788,-197.156 872.247,-196.086 879.82,-203.496 882.788,-197.156"/>
</g>
<!-- Strideable -->
<g id="node16" class="node">
<g id="a_node16"><a xlink:href="/swift-2/protocol/Strideable/" target="_top">
<path fill="#999999" stroke="#999999" d="M1220.69,-254C1220.69,-254 1171.31,-254 1171.31,-254 1167.64,-254 1163.97,-250.333 1163.97,-246.667 1163.97,-246.667 1163.97,-239.333 1163.97,-239.333 1163.97,-235.667 1167.64,-232 1171.31,-232 1171.31,-232 1220.69,-232 1220.69,-232 1224.36,-232 1228.03,-235.667 1228.03,-239.333 1228.03,-239.333 1228.03,-246.667 1228.03,-246.667 1228.03,-250.333 1224.36,-254 1220.69,-254"/>
<text text-anchor="middle" x="1196" y="-239.4" font-family="Helvetica,sans-Serif" font-size="12.00" fill="white">Strideable</text>
</a>
</g>
</g>
<!-- Comparable&#45;&gt;Strideable -->
<g id="edge45" class="edge">
<path fill="none" stroke="#cccccc" d="M979.479,-291.737C1025.99,-281.483 1105.09,-264.044 1153.72,-253.322"/>
<polygon fill="#cccccc" stroke="#cccccc" points="1154.6,-256.712 1163.61,-251.141 1153.09,-249.876 1154.6,-256.712"/>
</g>
<!-- CustomStringConvertible -->
<g id="node5" class="node">
<g id="a_node5"><a xlink:href="/swift-2/protocol/CustomStringConvertible/" target="_top">
<path fill="#999999" stroke="#999999" d="M528.208,-254C528.208,-254 399.792,-254 399.792,-254 396.126,-254 392.459,-250.333 392.459,-246.667 392.459,-246.667 392.459,-239.333 392.459,-239.333 392.459,-235.667 396.126,-232 399.792,-232 399.792,-232 528.208,-232 528.208,-232 531.874,-232 535.541,-235.667 535.541,-239.333 535.541,-239.333 535.541,-246.667 535.541,-246.667 535.541,-250.333 531.874,-254 528.208,-254"/>
<text text-anchor="middle" x="464" y="-239.4" font-family="Helvetica,sans-Serif" font-size="12.00" fill="white">CustomStringConvertible</text>
</a>
</g>
</g>
<!-- CustomStringConvertible&#45;&gt;Int32 -->
<g id="edge10" class="edge">
<path fill="none" stroke="#cccccc" d="M467.852,-231.569C479.824,-200.543 519.382,-107.906 582,-58 603.574,-40.8054 632.499,-29.0465 655.273,-21.7239"/>
<polygon fill="#cccccc" stroke="#cccccc" points="656.402,-25.0389 664.936,-18.7613 654.35,-18.3464 656.402,-25.0389"/>
</g>
<!-- CustomStringConvertible&#45;&gt;_IntegerType -->
<g id="edge27" class="edge">
<path fill="none" stroke="#cccccc" d="M479.018,-231.988C491.601,-223.599 509.789,-211.474 524.329,-201.78"/>
<polygon fill="#cccccc" stroke="#cccccc" points="526.45,-204.573 532.829,-196.114 522.567,-198.749 526.45,-204.573"/>
</g>
<!-- Equatable -->
<g id="node6" class="node">
<g id="a_node6"><a xlink:href="/swift-2/protocol/Equatable/" target="_top">
<path fill="#999999" stroke="#999999" d="M282.702,-428C282.702,-428 233.298,-428 233.298,-428 229.632,-428 225.965,-424.333 225.965,-420.667 225.965,-420.667 225.965,-413.333 225.965,-413.333 225.965,-409.667 229.632,-406 233.298,-406 233.298,-406 282.702,-406 282.702,-406 286.368,-406 290.035,-409.667 290.035,-413.333 290.035,-413.333 290.035,-420.667 290.035,-420.667 290.035,-424.333 286.368,-428 282.702,-428"/>
<text text-anchor="middle" x="258" y="-413.4" font-family="Helvetica,sans-Serif" font-size="12.00" fill="white">Equatable</text>
</a>
</g>
</g>
<!-- Equatable&#45;&gt;Comparable -->
<g id="edge35" class="edge">
<path fill="none" stroke="#cccccc" d="M290.073,-410.654C400.136,-392.311 762.893,-331.851 894.102,-309.983"/>
<polygon fill="#cccccc" stroke="#cccccc" points="894.955,-313.389 904.243,-308.293 893.804,-306.484 894.955,-313.389"/>
</g>
<!-- Hashable -->
<g id="node8" class="node">
<g id="a_node8"><a xlink:href="/swift-2/protocol/Hashable/" target="_top">
<path fill="#999999" stroke="#999999" d="M140.694,-254C140.694,-254 95.3059,-254 95.3059,-254 91.6392,-254 87.9725,-250.333 87.9725,-246.667 87.9725,-246.667 87.9725,-239.333 87.9725,-239.333 87.9725,-235.667 91.6392,-232 95.3059,-232 95.3059,-232 140.694,-232 140.694,-232 144.361,-232 148.027,-235.667 148.027,-239.333 148.027,-239.333 148.027,-246.667 148.027,-246.667 148.027,-250.333 144.361,-254 140.694,-254"/>
<text text-anchor="middle" x="118" y="-239.4" font-family="Helvetica,sans-Serif" font-size="12.00" fill="white">Hashable</text>
</a>
</g>
</g>
<!-- Equatable&#45;&gt;Hashable -->
<g id="edge32" class="edge">
<path fill="none" stroke="#cccccc" d="M247.565,-405.898C229.227,-387.892 190.469,-348.692 162,-312 149.674,-296.113 137.389,-276.757 128.946,-262.765"/>
<polygon fill="#cccccc" stroke="#cccccc" points="131.879,-260.85 123.761,-254.043 125.862,-264.427 131.879,-260.85"/>
</g>
<!-- Equatable&#45;&gt;Int32 -->
<g id="edge3" class="edge">
<path fill="none" stroke="#cccccc" d="M225.846,-416.068C156.684,-414.355 0,-399.694 0,-302 0,-302 0,-302 0,-126 0,-90.7093 10.9024,-76.4273 41,-58 93.3394,-25.955 523.376,-15.2027 654.311,-12.6548"/>
<polygon fill="#cccccc" stroke="#cccccc" points="654.698,-16.1482 664.63,-12.4591 654.565,-9.14945 654.698,-16.1482"/>
</g>
<!-- _Incrementable -->
<g id="node17" class="node">
<g id="a_node17"><a xlink:href="/swift-2/protocol/_Incrementable/" target="_top">
<path fill="#999999" stroke="#999999" d="M426.705,-370C426.705,-370 349.295,-370 349.295,-370 345.628,-370 341.961,-366.333 341.961,-362.667 341.961,-362.667 341.961,-355.333 341.961,-355.333 341.961,-351.667 345.628,-348 349.295,-348 349.295,-348 426.705,-348 426.705,-348 430.372,-348 434.039,-351.667 434.039,-355.333 434.039,-355.333 434.039,-362.667 434.039,-362.667 434.039,-366.333 430.372,-370 426.705,-370"/>
<text text-anchor="middle" x="388" y="-355.4" font-family="Helvetica,sans-Serif" font-size="12.00" fill="white">_Incrementable</text>
</a>
</g>
</g>
<!-- Equatable&#45;&gt;_Incrementable -->
<g id="edge36" class="edge">
<path fill="none" stroke="#cccccc" d="M281.241,-405.988C301.818,-397.124 332.077,-384.09 355.132,-374.159"/>
<polygon fill="#cccccc" stroke="#cccccc" points="356.722,-377.285 364.522,-370.114 353.953,-370.856 356.722,-377.285"/>
</g>
<!-- ForwardIndexType -->
<g id="node7" class="node">
<g id="a_node7"><a xlink:href="/swift-2/protocol/ForwardIndexType/" target="_top">
<path fill="#999999" stroke="#999999" d="M793.206,-312C793.206,-312 698.794,-312 698.794,-312 695.127,-312 691.461,-308.333 691.461,-304.667 691.461,-304.667 691.461,-297.333 691.461,-297.333 691.461,-293.667 695.127,-290 698.794,-290 698.794,-290 793.206,-290 793.206,-290 796.873,-290 800.539,-293.667 800.539,-297.333 800.539,-297.333 800.539,-304.667 800.539,-304.667 800.539,-308.333 796.873,-312 793.206,-312"/>
<text text-anchor="middle" x="746" y="-297.4" font-family="Helvetica,sans-Serif" font-size="12.00" fill="white">ForwardIndexType</text>
</a>
</g>
</g>
<!-- ForwardIndexType&#45;&gt;BidirectionalIndexType -->
<g id="edge43" class="edge">
<path fill="none" stroke="#cccccc" d="M797.667,-289.988C846.933,-280.442 921.166,-266.058 973.467,-255.923"/>
<polygon fill="#cccccc" stroke="#cccccc" points="974.142,-259.358 983.294,-254.019 972.81,-252.486 974.142,-259.358"/>
</g>
<!-- ForwardIndexType&#45;&gt;Int32 -->
<g id="edge13" class="edge">
<path fill="none" stroke="#cccccc" d="M743.252,-289.838C739.63,-276.523 733.014,-252.463 727,-232 707.334,-165.086 693.947,-149.49 688,-80 686.629,-63.9826 687.842,-45.8021 689.281,-32.2721"/>
<polygon fill="#cccccc" stroke="#cccccc" points="692.78,-32.4952 690.492,-22.1503 685.829,-31.664 692.78,-32.4952"/>
</g>
<!-- Hashable&#45;&gt;Int32 -->
<g id="edge9" class="edge">
<path fill="none" stroke="#cccccc" d="M108.525,-231.762C81.4366,-201.277 8.63612,-109.994 57,-58 97.776,-14.1633 524.361,-11.5785 654.509,-11.8194"/>
<polygon fill="#cccccc" stroke="#cccccc" points="654.759,-15.3199 664.768,-11.8455 654.777,-8.31995 654.759,-15.3199"/>
</g>
<!-- Hashable&#45;&gt;_IntegerType -->
<g id="edge28" class="edge">
<path fill="none" stroke="#cccccc" d="M148.237,-238.062C221.221,-228.557 407.642,-204.279 497.743,-192.545"/>
<polygon fill="#cccccc" stroke="#cccccc" points="498.255,-196.008 507.72,-191.246 497.351,-189.067 498.255,-196.008"/>
</g>
<!-- IntegerArithmeticType&#45;&gt;Int32 -->
<g id="edge6" class="edge">
<path fill="none" stroke="#cccccc" d="M650.887,-231.847C639.895,-203.065 612.486,-119.074 640,-58 645.454,-45.8944 655.842,-35.6897 665.909,-27.9913"/>
<polygon fill="#cccccc" stroke="#cccccc" points="668.043,-30.7685 674.173,-22.1275 663.992,-25.0595 668.043,-30.7685"/>
</g>
<!-- IntegerArithmeticType&#45;&gt;_IntegerType -->
<g id="edge29" class="edge">
<path fill="none" stroke="#cccccc" d="M635.871,-231.988C619.312,-223.322 595.136,-210.67 576.333,-200.828"/>
<polygon fill="#cccccc" stroke="#cccccc" points="577.808,-197.65 567.325,-196.114 574.562,-203.852 577.808,-197.65"/>
</g>
<!-- IntegerLiteralConvertible -->
<g id="node11" class="node">
<g id="a_node11"><a xlink:href="/swift-2/protocol/IntegerLiteralConvertible/" target="_top">
<path fill="#999999" stroke="#999999" d="M906.722,-254C906.722,-254 781.278,-254 781.278,-254 777.611,-254 773.944,-250.333 773.944,-246.667 773.944,-246.667 773.944,-239.333 773.944,-239.333 773.944,-235.667 777.611,-232 781.278,-232 781.278,-232 906.722,-232 906.722,-232 910.389,-232 914.056,-235.667 914.056,-239.333 914.056,-239.333 914.056,-246.667 914.056,-246.667 914.056,-250.333 910.389,-254 906.722,-254"/>
<text text-anchor="middle" x="844" y="-239.4" font-family="Helvetica,sans-Serif" font-size="12.00" fill="white">IntegerLiteralConvertible</text>
</a>
</g>
</g>
<!-- IntegerLiteralConvertible&#45;&gt;Int32 -->
<g id="edge17" class="edge">
<path fill="none" stroke="#cccccc" d="M821.965,-231.932C791.149,-216.549 736.143,-184.051 711,-138 692.623,-104.341 690.422,-58.4927 690.916,-32.3957"/>
<polygon fill="#cccccc" stroke="#cccccc" points="694.42,-32.3264 691.269,-22.2112 687.425,-32.0841 694.42,-32.3264"/>
</g>
<!-- IntegerLiteralConvertible&#45;&gt;SignedNumberType -->
<g id="edge38" class="edge">
<path fill="none" stroke="#cccccc" d="M844,-231.988C844,-224.91 844,-215.171 844,-206.478"/>
<polygon fill="#cccccc" stroke="#cccccc" points="847.5,-206.304 844,-196.304 840.5,-206.304 847.5,-206.304"/>
</g>
<!-- IntegerLiteralConvertible&#45;&gt;_IntegerType -->
<g id="edge26" class="edge">
<path fill="none" stroke="#cccccc" d="M791.081,-231.988C736.404,-221.644 651.701,-205.619 598.089,-195.476"/>
<polygon fill="#cccccc" stroke="#cccccc" points="598.603,-192.012 588.127,-193.592 597.302,-198.89 598.603,-192.012"/>
</g>
<!-- IntegerType -->
<g id="node12" class="node">
<g id="a_node12"><a xlink:href="/swift-2/protocol/IntegerType/" target="_top">
<path fill="#999999" stroke="#999999" d="M921.202,-138C921.202,-138 862.798,-138 862.798,-138 859.132,-138 855.465,-134.333 855.465,-130.667 855.465,-130.667 855.465,-123.333 855.465,-123.333 855.465,-119.667 859.132,-116 862.798,-116 862.798,-116 921.202,-116 921.202,-116 924.868,-116 928.535,-119.667 928.535,-123.333 928.535,-123.333 928.535,-130.667 928.535,-130.667 928.535,-134.333 924.868,-138 921.202,-138"/>
<text text-anchor="middle" x="892" y="-123.4" font-family="Helvetica,sans-Serif" font-size="12.00" fill="white">IntegerType</text>
</a>
</g>
</g>
<!-- IntegerType&#45;&gt;Int32 -->
<g id="edge2" class="edge">
<path fill="none" stroke="#cccccc" d="M892.833,-115.701C893.43,-100.875 892.181,-73.5905 877,-58 856.726,-37.1796 777.209,-23.2775 729.27,-16.5997"/>
<polygon fill="#cccccc" stroke="#cccccc" points="729.643,-13.1183 719.264,-15.2466 728.705,-20.0551 729.643,-13.1183"/>
</g>
<!-- SignedIntegerType -->
<g id="node14" class="node">
<g id="a_node14"><a xlink:href="/swift-2/protocol/SignedIntegerType/" target="_top">
<path fill="#999999" stroke="#999999" d="M860.727,-80C860.727,-80 765.273,-80 765.273,-80 761.606,-80 757.94,-76.3333 757.94,-72.6667 757.94,-72.6667 757.94,-65.3333 757.94,-65.3333 757.94,-61.6667 761.606,-58 765.273,-58 765.273,-58 860.727,-58 860.727,-58 864.394,-58 868.06,-61.6667 868.06,-65.3333 868.06,-65.3333 868.06,-72.6667 868.06,-72.6667 868.06,-76.3333 864.394,-80 860.727,-80"/>
<text text-anchor="middle" x="813" y="-65.4" font-family="Helvetica,sans-Serif" font-size="12.00" fill="white">SignedIntegerType</text>
</a>
</g>
</g>
<!-- IntegerType&#45;&gt;SignedIntegerType -->
<g id="edge23" class="edge">
<path fill="none" stroke="#cccccc" d="M877.876,-115.988C866.153,-107.678 849.259,-95.7028 835.65,-86.0554"/>
<polygon fill="#cccccc" stroke="#cccccc" points="837.45,-83.0415 827.268,-80.1138 833.402,-88.7523 837.45,-83.0415"/>
</g>
<!-- RandomAccessIndexType&#45;&gt;Int32 -->
<g id="edge11" class="edge">
<path fill="none" stroke="#cccccc" d="M1034.59,-173.697C1037.65,-149.569 1041.5,-89.0977 1009,-58 969.602,-20.3025 804.545,-13.367 729.467,-12.1852"/>
<polygon fill="#cccccc" stroke="#cccccc" points="729.113,-8.68037 719.069,-12.0496 729.022,-15.6798 729.113,-8.68037"/>
</g>
<!-- RandomAccessIndexType&#45;&gt;IntegerType -->
<g id="edge40" class="edge">
<path fill="none" stroke="#cccccc" d="M1007.79,-173.988C985.275,-165.045 952.068,-151.857 926.982,-141.893"/>
<polygon fill="#cccccc" stroke="#cccccc" points="928.051,-138.552 917.465,-138.114 925.467,-145.058 928.051,-138.552"/>
</g>
<!-- SignedIntegerType&#45;&gt;Int32 -->
<g id="edge1" class="edge">
<path fill="none" stroke="#cccccc" d="M791.368,-57.9883C772.386,-49.2036 744.553,-36.3222 723.169,-26.4255"/>
<polygon fill="#cccccc" stroke="#cccccc" points="724.398,-23.1376 713.853,-22.1138 721.458,-29.4903 724.398,-23.1376"/>
</g>
<!-- SignedNumberType&#45;&gt;Int32 -->
<g id="edge18" class="edge">
<path fill="none" stroke="#cccccc" d="M886.646,-173.877C905.5,-167.051 925.882,-155.904 937,-138 957.303,-105.307 903.135,-62.1425 897,-58 845.894,-23.4927 772.884,-14.5007 729.188,-12.373"/>
<polygon fill="#cccccc" stroke="#cccccc" points="729.135,-8.8684 719.006,-11.9763 728.863,-15.8631 729.135,-8.8684"/>
</g>
<!-- _SignedIntegerType -->
<g id="node21" class="node">
<g id="a_node21"><a xlink:href="/swift-2/protocol/_SignedIntegerType/" target="_top">
<path fill="#999999" stroke="#999999" d="M830.231,-138C830.231,-138 727.769,-138 727.769,-138 724.102,-138 720.436,-134.333 720.436,-130.667 720.436,-130.667 720.436,-123.333 720.436,-123.333 720.436,-119.667 724.102,-116 727.769,-116 727.769,-116 830.231,-116 830.231,-116 833.898,-116 837.564,-119.667 837.564,-123.333 837.564,-123.333 837.564,-130.667 837.564,-130.667 837.564,-134.333 833.898,-138 830.231,-138"/>
<text text-anchor="middle" x="779" y="-123.4" font-family="Helvetica,sans-Serif" font-size="12.00" fill="white">_SignedIntegerType</text>
</a>
</g>
</g>
<!-- SignedNumberType&#45;&gt;_SignedIntegerType -->
<g id="edge25" class="edge">
<path fill="none" stroke="#cccccc" d="M832.379,-173.988C823.068,-165.966 809.791,-154.527 798.808,-145.065"/>
<polygon fill="#cccccc" stroke="#cccccc" points="800.82,-142.179 790.96,-138.304 796.251,-147.483 800.82,-142.179"/>
</g>
<!-- Strideable&#45;&gt;Int32 -->
<g id="edge15" class="edge">
<path fill="none" stroke="#cccccc" d="M1199.71,-231.942C1210.35,-201.177 1237.33,-107.43 1191,-58 1159.55,-24.4477 839.679,-14.94 729.25,-12.6464"/>
<polygon fill="#cccccc" stroke="#cccccc" points="729.302,-9.14685 719.234,-12.4464 729.162,-16.1455 729.302,-9.14685"/>
</g>
<!-- Strideable&#45;&gt;RandomAccessIndexType -->
<g id="edge42" class="edge">
<path fill="none" stroke="#cccccc" d="M1166.86,-231.988C1140.29,-222.859 1100.83,-209.305 1071.64,-199.274"/>
<polygon fill="#cccccc" stroke="#cccccc" points="1072.76,-195.958 1062.16,-196.019 1070.48,-202.579 1072.76,-195.958"/>
</g>
<!-- _Incrementable&#45;&gt;ForwardIndexType -->
<g id="edge44" class="edge">
<path fill="none" stroke="#cccccc" d="M434.069,-350.794C496.978,-340.953 610.069,-323.263 681.414,-312.103"/>
<polygon fill="#cccccc" stroke="#cccccc" points="682.288,-315.509 691.627,-310.505 681.206,-308.593 682.288,-315.509"/>
</g>
<!-- _Incrementable&#45;&gt;Int32 -->
<g id="edge14" class="edge">
<path fill="none" stroke="#cccccc" d="M341.738,-353.529C279.359,-344.662 176,-318.699 176,-244 176,-244 176,-244 176,-126 176,-81.0056 209.92,-76.3555 251,-58 322.987,-25.8344 562.155,-15.6918 654.847,-12.9229"/>
<polygon fill="#cccccc" stroke="#cccccc" points="654.997,-16.4202 664.893,-12.6348 654.797,-9.42303 654.997,-16.4202"/>
</g>
<!-- _Incrementable&#45;&gt;_IntegerType -->
<g id="edge31" class="edge">
<path fill="none" stroke="#cccccc" d="M417.089,-347.946C453.879,-333.519 515.82,-303.129 544,-254 552.264,-239.592 552.664,-220.525 551.342,-206.248"/>
<polygon fill="#cccccc" stroke="#cccccc" points="554.772,-205.48 550.029,-196.006 547.829,-206.37 554.772,-205.48"/>
</g>
<!-- _IntegerArithmeticType -->
<g id="node18" class="node">
<g id="a_node18"><a xlink:href="/swift-2/protocol/_IntegerArithmeticType/" target="_top">
<path fill="#999999" stroke="#999999" d="M429.215,-312C429.215,-312 310.785,-312 310.785,-312 307.118,-312 303.452,-308.333 303.452,-304.667 303.452,-304.667 303.452,-297.333 303.452,-297.333 303.452,-293.667 307.118,-290 310.785,-290 310.785,-290 429.215,-290 429.215,-290 432.882,-290 436.548,-293.667 436.548,-297.333 436.548,-297.333 436.548,-304.667 436.548,-304.667 436.548,-308.333 432.882,-312 429.215,-312"/>
<text text-anchor="middle" x="370" y="-297.4" font-family="Helvetica,sans-Serif" font-size="12.00" fill="white">_IntegerArithmeticType</text>
</a>
</g>
</g>
<!-- _IntegerArithmeticType&#45;&gt;Int32 -->
<g id="edge7" class="edge">
<path fill="none" stroke="#cccccc" d="M303.583,-291.173C278.455,-284.695 251.488,-273.465 233,-254 211.39,-231.247 214,-217.38 214,-186 214,-186 214,-186 214,-126 214,-35.501 542.291,-16.706 654.741,-12.9226"/>
<polygon fill="#cccccc" stroke="#cccccc" points="655.046,-16.4148 664.931,-12.6014 654.826,-9.4183 655.046,-16.4148"/>
</g>
<!-- _IntegerArithmeticType&#45;&gt;IntegerArithmeticType -->
<g id="edge33" class="edge">
<path fill="none" stroke="#cccccc" d="M420.952,-289.988C469.435,-280.462 542.437,-266.118 593.997,-255.987"/>
<polygon fill="#cccccc" stroke="#cccccc" points="594.872,-259.382 604.009,-254.019 593.522,-252.513 594.872,-259.382"/>
</g>
<!-- _IntegerType&#45;&gt;Int32 -->
<g id="edge5" class="edge">
<path fill="none" stroke="#cccccc" d="M549.884,-173.891C554.676,-150.693 569.337,-92.9494 602,-58 616.457,-42.5315 637.278,-31.4258 655.254,-24.0064"/>
<polygon fill="#cccccc" stroke="#cccccc" points="656.837,-27.146 664.889,-20.2596 654.3,-20.622 656.837,-27.146"/>
</g>
<!-- _IntegerType&#45;&gt;IntegerType -->
<g id="edge39" class="edge">
<path fill="none" stroke="#cccccc" d="M588.138,-178.596C643.645,-170.949 747.179,-156.06 845.799,-137.941"/>
<polygon fill="#cccccc" stroke="#cccccc" points="846.437,-141.382 855.633,-136.12 845.162,-134.499 846.437,-141.382"/>
</g>
<!-- _IntegerType&#45;&gt;_SignedIntegerType -->
<g id="edge24" class="edge">
<path fill="none" stroke="#cccccc" d="M588.237,-174.246C627.01,-164.846 685.826,-150.588 727.893,-140.39"/>
<polygon fill="#cccccc" stroke="#cccccc" points="728.775,-143.777 737.669,-138.02 727.125,-136.974 728.775,-143.777"/>
</g>
<!-- _Reflectable -->
<g id="node20" class="node">
<g id="a_node20"><a xlink:href="/swift-2/protocol/_Reflectable/" target="_top">
<path fill="#999999" stroke="#999999" d="M1174.7,-80C1174.7,-80 1113.3,-80 1113.3,-80 1109.63,-80 1105.97,-76.3333 1105.97,-72.6667 1105.97,-72.6667 1105.97,-65.3333 1105.97,-65.3333 1105.97,-61.6667 1109.63,-58 1113.3,-58 1113.3,-58 1174.7,-58 1174.7,-58 1178.37,-58 1182.03,-61.6667 1182.03,-65.3333 1182.03,-65.3333 1182.03,-72.6667 1182.03,-72.6667 1182.03,-76.3333 1178.37,-80 1174.7,-80"/>
<text text-anchor="middle" x="1144" y="-65.4" font-family="Helvetica,sans-Serif" font-size="12.00" fill="white">_Reflectable</text>
</a>
</g>
</g>
<!-- _Reflectable&#45;&gt;Int32 -->
<g id="edge20" class="edge">
<path fill="none" stroke="#cccccc" d="M1105.72,-60.2988C1101.11,-59.4712 1096.45,-58.6832 1092,-58 959.246,-37.6315 800.444,-21.9257 729.475,-15.3571"/>
<polygon fill="#cccccc" stroke="#cccccc" points="729.533,-11.8478 719.255,-14.4184 728.893,-18.8185 729.533,-11.8478"/>
</g>
<!-- _SignedIntegerType&#45;&gt;Int32 -->
<g id="edge8" class="edge">
<path fill="none" stroke="#cccccc" d="M771.279,-115.883C756.612,-96.6645 724.533,-54.6301 705.99,-30.3322"/>
<polygon fill="#cccccc" stroke="#cccccc" points="708.678,-28.0841 699.828,-22.2579 703.113,-32.3308 708.678,-28.0841"/>
</g>
<!-- _SignedIntegerType&#45;&gt;SignedIntegerType -->
<g id="edge22" class="edge">
<path fill="none" stroke="#cccccc" d="M785.079,-115.988C789.615,-108.517 795.951,-98.0812 801.44,-89.0393"/>
<polygon fill="#cccccc" stroke="#cccccc" points="804.546,-90.6682 806.744,-80.3039 798.562,-87.0353 804.546,-90.6682"/>
</g>
<!-- _Strideable -->
<g id="node22" class="node">
<g id="a_node22"><a xlink:href="/swift-2/protocol/_Strideable/" target="_top">
<path fill="#999999" stroke="#999999" d="M1253.7,-312C1253.7,-312 1198.3,-312 1198.3,-312 1194.63,-312 1190.97,-308.333 1190.97,-304.667 1190.97,-304.667 1190.97,-297.333 1190.97,-297.333 1190.97,-293.667 1194.63,-290 1198.3,-290 1198.3,-290 1253.7,-290 1253.7,-290 1257.37,-290 1261.03,-293.667 1261.03,-297.333 1261.03,-297.333 1261.03,-304.667 1261.03,-304.667 1261.03,-308.333 1257.37,-312 1253.7,-312"/>
<text text-anchor="middle" x="1226" y="-297.4" font-family="Helvetica,sans-Serif" font-size="12.00" fill="white">_Strideable</text>
</a>
</g>
</g>
<!-- _Strideable&#45;&gt;Int32 -->
<g id="edge16" class="edge">
<path fill="none" stroke="#cccccc" d="M1230.56,-289.862C1238.95,-270.235 1256,-225.498 1256,-186 1256,-186 1256,-186 1256,-126 1256,-90.0027 1242.83,-76.5804 1212,-58 1170.88,-33.2168 841.514,-17.9433 729.294,-13.4178"/>
<polygon fill="#cccccc" stroke="#cccccc" points="729.26,-9.91376 719.129,-13.0134 728.982,-16.9082 729.26,-9.91376"/>
</g>
<!-- _Strideable&#45;&gt;Strideable -->
<g id="edge46" class="edge">
<path fill="none" stroke="#cccccc" d="M1220.64,-289.988C1216.68,-282.595 1211.16,-272.301 1206.35,-263.325"/>
<polygon fill="#cccccc" stroke="#cccccc" points="1209.33,-261.466 1201.52,-254.304 1203.16,-264.771 1209.33,-261.466"/>
</g>
</g>
</svg>
