<?xml version="1.0" encoding="UTF-8" standalone="no"?>
<!DOCTYPE svg PUBLIC "-//W3C//DTD SVG 1.1//EN"
 "http://www.w3.org/Graphics/SVG/1.1/DTD/svg11.dtd">
<!-- Generated by graphviz version 2.36.0 (20140111.2315)
 -->
<!-- Title: UInt16 &#45; Type Hierarchy &#45; SwiftDoc.org Pages: 1 -->
<svg width="1303pt" height="543pt"
 viewBox="0.00 0.00 1302.74 543.20" xmlns="http://www.w3.org/2000/svg" xmlns:xlink="http://www.w3.org/1999/xlink">
<g id="graph0" class="graph" transform="scale(1 1) rotate(0) translate(7.2 485.6)">
<g transform="translate(0 -485.6)">
<g>
    <path fill="#666666" d="M13.846,10.832c-0.336-0.464-0.792-0.844-1.368-1.14s-1.224-0.444-1.944-0.444
        c-0.384,0-0.772,0.052-1.164,0.156C8.977,9.509,8.622,9.677,8.301,9.908c-0.32,0.232-0.58,0.52-0.78,0.864
        c-0.2,0.344-0.3,0.756-0.3,1.236c0,0.464,0.092,0.852,0.276,1.164c0.184,0.312,0.432,0.576,0.744,0.792s0.68,0.4,1.104,0.552
        c0.423,0.152,0.876,0.309,1.356,0.468c0.576,0.177,1.16,0.376,1.752,0.601c0.592,0.224,1.128,0.52,1.608,0.888
        s0.872,0.828,1.176,1.38s0.456,1.252,0.456,2.101c0,0.88-0.164,1.644-0.492,2.292c-0.328,0.647-0.765,1.184-1.308,1.607
        c-0.544,0.424-1.172,0.74-1.884,0.948s-1.444,0.312-2.196,0.312c-1.072,0-2.108-0.208-3.108-0.624
        c-1-0.415-1.828-1.031-2.484-1.848l1.848-1.56c0.4,0.592,0.936,1.071,1.608,1.439c0.672,0.368,1.399,0.552,2.184,0.552
        c0.4,0,0.8-0.056,1.2-0.168c0.4-0.111,0.764-0.288,1.092-0.527c0.328-0.24,0.596-0.54,0.804-0.9
        c0.208-0.36,0.312-0.796,0.312-1.308s-0.108-0.94-0.324-1.284c-0.216-0.344-0.508-0.636-0.876-0.876s-0.796-0.444-1.284-0.612
        c-0.488-0.168-1.004-0.34-1.548-0.516c-0.544-0.16-1.08-0.356-1.608-0.588c-0.528-0.232-1-0.528-1.416-0.889
        c-0.416-0.359-0.752-0.804-1.008-1.332c-0.256-0.527-0.384-1.184-0.384-1.968c0-0.848,0.172-1.576,0.516-2.184
        c0.344-0.608,0.792-1.112,1.344-1.512c0.552-0.4,1.176-0.692,1.872-0.876c0.696-0.184,1.396-0.276,2.1-0.276
        c0.992,0,1.92,0.176,2.784,0.528c0.864,0.352,1.56,0.824,2.088,1.416L13.846,10.832z"/>
    <path fill="#666666" d="M18.813,13.304l2.568,8.688h0.048l2.712-8.688h2.376l2.76,8.688h0.048l2.568-8.688h2.376L30.501,24.68
        h-2.352l-2.808-8.544h-0.048l-2.784,8.544h-2.352l-3.792-11.376H18.813z"/>
    <path fill="#666666" d="M38.685,9.2c0,0.416-0.147,0.76-0.44,1.032c-0.294,0.272-0.647,0.408-1.06,0.408s-0.762-0.14-1.047-0.42
        c-0.286-0.28-0.429-0.62-0.429-1.02c0-0.416,0.143-0.764,0.429-1.044c0.286-0.28,0.635-0.42,1.047-0.42s0.766,0.14,1.06,0.42
        C38.538,8.437,38.685,8.784,38.685,9.2z M38.325,24.68h-2.256V13.304h2.256V24.68z"/>
    <path fill="#666666" d="M47.613,15.152h-2.64v9.528h-2.256v-9.528h-2.256v-1.848h2.256v-2.376c0-0.672,0.076-1.292,0.228-1.86
        c0.152-0.568,0.4-1.06,0.744-1.476c0.344-0.416,0.784-0.744,1.32-0.984c0.536-0.24,1.188-0.36,1.956-0.36
        c0.544,0,1.016,0.056,1.416,0.168l-0.264,1.944c-0.176-0.048-0.352-0.088-0.528-0.12c-0.176-0.032-0.376-0.048-0.6-0.048
        c-0.432,0-0.78,0.076-1.044,0.228c-0.264,0.152-0.468,0.356-0.612,0.612s-0.24,0.548-0.288,0.876
        c-0.048,0.328-0.072,0.668-0.072,1.02v2.376h2.64V15.152z"/>
    <path fill="#666666" d="M54.909,15.152h-3.024v5.91c0,0.687,0.128,1.177,0.384,1.472c0.256,0.295,0.664,0.442,1.224,0.442
        c0.208,0,0.432-0.021,0.672-0.065c0.24-0.044,0.456-0.11,0.648-0.198l0.072,1.848c-0.272,0.096-0.572,0.172-0.9,0.229
        c-0.328,0.056-0.668,0.084-1.02,0.084c-1.072,0-1.892-0.296-2.46-0.889c-0.568-0.592-0.852-1.479-0.852-2.664v-6.168h-2.184
        v-1.848h2.184V10.04h2.232v3.264h3.024V15.152z"/>
    <path fill="#666666" d="M57.356,7.688h5.832c1.088,0,2.176,0.16,3.264,0.48c1.088,0.32,2.072,0.824,2.952,1.512
        s1.592,1.568,2.136,2.64c0.544,1.072,0.816,2.36,0.816,3.864c0,1.456-0.272,2.716-0.816,3.78s-1.256,1.943-2.136,2.64
        s-1.864,1.216-2.952,1.561c-1.088,0.344-2.176,0.516-3.264,0.516h-5.832V7.688z M59.732,22.593h2.976
        c1.024,0,1.972-0.145,2.844-0.432c0.872-0.288,1.624-0.704,2.256-1.248c0.632-0.544,1.124-1.216,1.476-2.017
        c0.352-0.8,0.528-1.704,0.528-2.712c0-1.056-0.176-1.983-0.528-2.784c-0.353-0.8-0.844-1.468-1.476-2.004
        c-0.632-0.536-1.384-0.944-2.256-1.224s-1.82-0.42-2.844-0.42h-2.976V22.593z"/>
    <path fill="#666666" d="M86.06,18.969c0,0.88-0.156,1.688-0.468,2.424c-0.312,0.736-0.744,1.372-1.296,1.908
        c-0.552,0.536-1.204,0.952-1.956,1.248c-0.752,0.296-1.56,0.443-2.424,0.443c-0.864,0-1.672-0.147-2.424-0.443
        c-0.752-0.296-1.4-0.712-1.944-1.248c-0.544-0.536-0.972-1.172-1.284-1.908c-0.312-0.735-0.468-1.544-0.468-2.424
        s0.156-1.684,0.468-2.412c0.312-0.728,0.74-1.356,1.284-1.884c0.543-0.528,1.191-0.939,1.944-1.236
        c0.752-0.296,1.56-0.444,2.424-0.444c0.864,0,1.672,0.148,2.424,0.444c0.752,0.297,1.404,0.708,1.956,1.236
        c0.552,0.527,0.984,1.156,1.296,1.884C85.904,17.285,86.06,18.089,86.06,18.969z M83.708,18.98c0-0.542-0.084-1.061-0.252-1.556
        c-0.169-0.494-0.414-0.929-0.734-1.304s-0.718-0.674-1.192-0.897s-1.015-0.335-1.625-0.335c-0.61,0-1.152,0.111-1.625,0.335
        c-0.474,0.224-0.871,0.522-1.191,0.897c-0.321,0.375-0.566,0.81-0.734,1.304C76.184,17.92,76.1,18.438,76.1,18.98
        c0,0.543,0.084,1.062,0.253,1.556c0.168,0.495,0.413,0.934,0.734,1.316c0.321,0.383,0.718,0.686,1.191,0.909
        c0.473,0.224,1.015,0.335,1.625,0.335c0.61,0,1.151-0.111,1.625-0.335s0.871-0.526,1.192-0.909s0.565-0.821,0.734-1.316
        C83.624,20.042,83.708,19.523,83.708,18.98z"/>
    <path fill="#666666" d="M96.428,16.184c-0.24-0.368-0.6-0.676-1.08-0.924s-0.992-0.372-1.536-0.372
        c-0.592,0-1.116,0.112-1.572,0.336c-0.456,0.225-0.844,0.524-1.164,0.9c-0.32,0.376-0.564,0.812-0.732,1.308
        s-0.252,1.017-0.252,1.56c0,0.545,0.084,1.064,0.252,1.561s0.412,0.933,0.732,1.308c0.32,0.376,0.712,0.677,1.176,0.9
        c0.464,0.225,0.992,0.336,1.584,0.336c0.576,0,1.1-0.111,1.572-0.336c0.472-0.224,0.86-0.528,1.164-0.912l1.512,1.368
        c-0.48,0.561-1.08,0.996-1.8,1.308c-0.72,0.312-1.536,0.468-2.448,0.468c-0.88,0-1.692-0.144-2.436-0.432
        c-0.744-0.288-1.388-0.691-1.932-1.212c-0.544-0.52-0.972-1.147-1.284-1.884s-0.468-1.561-0.468-2.473
        c0-0.896,0.152-1.711,0.456-2.447c0.304-0.736,0.728-1.368,1.272-1.896c0.543-0.527,1.188-0.936,1.932-1.224
        c0.744-0.288,1.548-0.433,2.412-0.433c0.8,0,1.596,0.16,2.388,0.48s1.419,0.784,1.884,1.392L96.428,16.184z"/>
    <path fill="#666666" d="M103.1,23.24c0,0.417-0.152,0.784-0.456,1.104c-0.304,0.32-0.688,0.479-1.152,0.479
        c-0.448,0-0.828-0.155-1.14-0.468c-0.312-0.312-0.468-0.676-0.468-1.092c0-0.432,0.152-0.804,0.456-1.116
        c0.304-0.312,0.688-0.468,1.152-0.468c0.464,0,0.848,0.152,1.152,0.456C102.947,22.44,103.1,22.808,103.1,23.24z"/>
    <path fill="#666666" d="M116.635,18.969c0,0.88-0.156,1.688-0.468,2.424c-0.312,0.736-0.744,1.372-1.296,1.908
        c-0.552,0.536-1.204,0.952-1.956,1.248c-0.752,0.296-1.56,0.443-2.424,0.443c-0.864,0-1.672-0.147-2.424-0.443
        c-0.752-0.296-1.4-0.712-1.944-1.248c-0.544-0.536-0.972-1.172-1.284-1.908c-0.312-0.735-0.468-1.544-0.468-2.424
        s0.156-1.684,0.468-2.412c0.312-0.728,0.74-1.356,1.284-1.884c0.543-0.528,1.191-0.939,1.944-1.236
        c0.752-0.296,1.56-0.444,2.424-0.444c0.864,0,1.672,0.148,2.424,0.444c0.752,0.297,1.404,0.708,1.956,1.236
        c0.552,0.527,0.984,1.156,1.296,1.884C116.479,17.285,116.635,18.089,116.635,18.969z M114.283,18.98
        c0-0.542-0.084-1.061-0.252-1.556c-0.169-0.494-0.414-0.929-0.734-1.304s-0.718-0.674-1.192-0.897s-1.015-0.335-1.625-0.335
        c-0.61,0-1.152,0.111-1.625,0.335c-0.474,0.224-0.871,0.522-1.191,0.897c-0.321,0.375-0.566,0.81-0.734,1.304
        c-0.169,0.495-0.253,1.014-0.253,1.556c0,0.543,0.084,1.062,0.253,1.556c0.168,0.495,0.413,0.934,0.734,1.316
        c0.321,0.383,0.718,0.686,1.191,0.909c0.473,0.224,1.015,0.335,1.625,0.335c0.61,0,1.151-0.111,1.625-0.335
        s0.871-0.526,1.192-0.909s0.565-0.821,0.734-1.316C114.199,20.042,114.283,19.523,114.283,18.98z"/>
    <path fill="#666666" d="M119.251,14.577c-0.016-0.48-0.04-0.904-0.072-1.272h2.136c0.032,0.288,0.056,0.62,0.072,0.996
        c0.016,0.376,0.024,0.684,0.024,0.924h0.072c0.32-0.672,0.788-1.212,1.404-1.62c0.616-0.408,1.308-0.612,2.076-0.612
        c0.352,0,0.648,0.033,0.888,0.097l-0.096,2.088c-0.32-0.08-0.664-0.12-1.032-0.12c-0.544,0-1.016,0.101-1.416,0.3
        c-0.4,0.2-0.732,0.468-0.996,0.805c-0.264,0.336-0.46,0.724-0.588,1.163c-0.128,0.44-0.192,0.9-0.192,1.381v5.976h-2.256v-8.928
        C119.275,15.449,119.267,15.056,119.251,14.577z"/>
    <path fill="#666666" d="M128.419,26.625c0.496,0.56,1.116,1.008,1.86,1.344c0.744,0.336,1.508,0.504,2.292,0.504
        c0.752,0,1.384-0.108,1.896-0.324s0.924-0.512,1.236-0.888s0.536-0.82,0.672-1.332c0.136-0.513,0.204-1.064,0.204-1.656v-1.464
        h-0.048c-0.416,0.641-0.984,1.128-1.704,1.464c-0.72,0.336-1.488,0.504-2.304,0.504c-0.864,0-1.652-0.151-2.364-0.456
        c-0.712-0.304-1.316-0.72-1.812-1.248c-0.496-0.527-0.88-1.147-1.152-1.859s-0.408-1.477-0.408-2.292
        c0-0.816,0.136-1.584,0.408-2.305c0.272-0.72,0.656-1.348,1.152-1.884c0.496-0.535,1.096-0.96,1.8-1.271
        c0.704-0.312,1.488-0.469,2.352-0.469c0.816,0,1.596,0.177,2.34,0.528c0.744,0.353,1.332,0.888,1.764,1.608h0.048v-1.824h2.184
        v10.8c0,0.832-0.104,1.628-0.312,2.388c-0.208,0.76-0.56,1.433-1.056,2.017s-1.144,1.052-1.944,1.404
        c-0.8,0.352-1.792,0.527-2.976,0.527c-0.992,0-1.988-0.18-2.988-0.54c-1-0.359-1.86-0.868-2.58-1.523L128.419,26.625z
         M129.091,18.873c0,0.527,0.084,1.031,0.253,1.512c0.168,0.479,0.417,0.904,0.746,1.271c0.329,0.369,0.726,0.664,1.192,0.889
        c0.465,0.224,0.995,0.336,1.589,0.336c0.577,0,1.107-0.104,1.589-0.312c0.481-0.207,0.891-0.491,1.228-0.852
        s0.598-0.784,0.782-1.272c0.185-0.487,0.277-1.012,0.277-1.571c0-0.544-0.093-1.057-0.277-1.536
        c-0.185-0.48-0.449-0.904-0.794-1.272c-0.345-0.367-0.755-0.66-1.228-0.876c-0.474-0.216-1-0.324-1.577-0.324
        c-0.594,0-1.124,0.108-1.589,0.324c-0.466,0.216-0.863,0.504-1.192,0.864s-0.578,0.784-0.746,1.271
        C129.175,17.812,129.091,18.329,129.091,18.873z"/>
</g>
<g><a xlink:href="/" pointer-events="all" target="_top"><polygon fill="none" points="0,0 145,0 145,35 0,35 0,0"/></a></g>

</g>


<!-- BidirectionalIndexType -->
<g id="node1" class="node">
<g id="a_node1"><a xlink:href="/swift-2/protocol/BidirectionalIndexType/" target="_top">
<path fill="#999999" stroke="#999999" d="M1039.73,-254C1039.73,-254 924.275,-254 924.275,-254 920.608,-254 916.941,-250.333 916.941,-246.667 916.941,-246.667 916.941,-239.333 916.941,-239.333 916.941,-235.667 920.608,-232 924.275,-232 924.275,-232 1039.73,-232 1039.73,-232 1043.39,-232 1047.06,-235.667 1047.06,-239.333 1047.06,-239.333 1047.06,-246.667 1047.06,-246.667 1047.06,-250.333 1043.39,-254 1039.73,-254"/>
<text text-anchor="middle" x="982" y="-239.4" font-family="Helvetica,sans-Serif" font-size="12.00" fill="white">BidirectionalIndexType</text>
</a>
</g>
</g>
<!-- RandomAccessIndexType -->
<g id="node12" class="node">
<g id="a_node12"><a xlink:href="/swift-2/protocol/RandomAccessIndexType/" target="_top">
<path fill="#999999" stroke="#999999" d="M867.225,-196C867.225,-196 732.775,-196 732.775,-196 729.108,-196 725.441,-192.333 725.441,-188.667 725.441,-188.667 725.441,-181.333 725.441,-181.333 725.441,-177.667 729.108,-174 732.775,-174 732.775,-174 867.225,-174 867.225,-174 870.892,-174 874.559,-177.667 874.559,-181.333 874.559,-181.333 874.559,-188.667 874.559,-188.667 874.559,-192.333 870.892,-196 867.225,-196"/>
<text text-anchor="middle" x="800" y="-181.4" font-family="Helvetica,sans-Serif" font-size="12.00" fill="white">RandomAccessIndexType</text>
</a>
</g>
</g>
<!-- BidirectionalIndexType&#45;&gt;RandomAccessIndexType -->
<g id="edge38" class="edge">
<path fill="none" stroke="#cccccc" d="M949.462,-231.988C919.533,-222.779 874.973,-209.068 842.294,-199.013"/>
<polygon fill="#cccccc" stroke="#cccccc" points="843.15,-195.615 832.563,-196.019 841.091,-202.305 843.15,-195.615"/>
</g>
<!-- UInt16 -->
<g id="node15" class="node">
<g id="a_node15"><a xlink:href="/swift-2/type/UInt16/" target="_top">
<polygon fill="#ee543d" stroke="#ee543d" points="611,-22 557,-22 557,-0 611,-0 611,-22"/>
<text text-anchor="middle" x="584" y="-7.4" font-family="Helvetica,sans-Serif" font-size="12.00" fill="white">UInt16</text>
</a>
</g>
</g>
<!-- BidirectionalIndexType&#45;&gt;UInt16 -->
<g id="edge13" class="edge">
<path fill="none" stroke="#cccccc" d="M981.832,-231.585C980.708,-199.791 972.656,-103.399 917,-58 872.35,-21.5785 698.458,-13.9753 621.268,-12.4025"/>
<polygon fill="#cccccc" stroke="#cccccc" points="621.103,-8.89908 611.041,-12.2183 620.976,-15.8979 621.103,-8.89908"/>
</g>
<!-- BitwiseOperationsType -->
<g id="node2" class="node">
<g id="a_node2"><a xlink:href="/swift-2/protocol/BitwiseOperationsType/" target="_top">
<path fill="#999999" stroke="#999999" d="M268.715,-254C268.715,-254 151.285,-254 151.285,-254 147.618,-254 143.952,-250.333 143.952,-246.667 143.952,-246.667 143.952,-239.333 143.952,-239.333 143.952,-235.667 147.618,-232 151.285,-232 151.285,-232 268.715,-232 268.715,-232 272.382,-232 276.048,-235.667 276.048,-239.333 276.048,-239.333 276.048,-246.667 276.048,-246.667 276.048,-250.333 272.382,-254 268.715,-254"/>
<text text-anchor="middle" x="210" y="-239.4" font-family="Helvetica,sans-Serif" font-size="12.00" fill="white">BitwiseOperationsType</text>
</a>
</g>
</g>
<!-- BitwiseOperationsType&#45;&gt;UInt16 -->
<g id="edge18" class="edge">
<path fill="none" stroke="#cccccc" d="M212.683,-231.971C221.674,-200.466 253.905,-102.911 319,-58 355.317,-32.9439 482.425,-19.8134 546.489,-14.6556"/>
<polygon fill="#cccccc" stroke="#cccccc" points="546.879,-18.1359 556.576,-13.8677 546.334,-11.1572 546.879,-18.1359"/>
</g>
<!-- _IntegerType -->
<g id="node19" class="node">
<g id="a_node19"><a xlink:href="/swift-2/protocol/_IntegerType/" target="_top">
<path fill="#999999" stroke="#999999" d="M431.708,-196C431.708,-196 366.292,-196 366.292,-196 362.626,-196 358.959,-192.333 358.959,-188.667 358.959,-188.667 358.959,-181.333 358.959,-181.333 358.959,-177.667 362.626,-174 366.292,-174 366.292,-174 431.708,-174 431.708,-174 435.374,-174 439.041,-177.667 439.041,-181.333 439.041,-181.333 439.041,-188.667 439.041,-188.667 439.041,-192.333 435.374,-196 431.708,-196"/>
<text text-anchor="middle" x="399" y="-181.4" font-family="Helvetica,sans-Serif" font-size="12.00" fill="white">_IntegerType</text>
</a>
</g>
</g>
<!-- BitwiseOperationsType&#45;&gt;_IntegerType -->
<g id="edge29" class="edge">
<path fill="none" stroke="#cccccc" d="M243.789,-231.988C275.004,-222.74 321.543,-208.95 355.518,-198.884"/>
<polygon fill="#cccccc" stroke="#cccccc" points="356.591,-202.216 365.185,-196.019 354.603,-195.504 356.591,-202.216"/>
</g>
<!-- CVarArgType -->
<g id="node3" class="node">
<g id="a_node3"><a xlink:href="/swift-2/protocol/CVarArgType/" target="_top">
<path fill="#999999" stroke="#999999" d="M144.029,-80C144.029,-80 77.9709,-80 77.9709,-80 74.3043,-80 70.6376,-76.3333 70.6376,-72.6667 70.6376,-72.6667 70.6376,-65.3333 70.6376,-65.3333 70.6376,-61.6667 74.3043,-58 77.9709,-58 77.9709,-58 144.029,-58 144.029,-58 147.696,-58 151.362,-61.6667 151.362,-65.3333 151.362,-65.3333 151.362,-72.6667 151.362,-72.6667 151.362,-76.3333 147.696,-80 144.029,-80"/>
<text text-anchor="middle" x="111" y="-65.4" font-family="Helvetica,sans-Serif" font-size="12.00" fill="white">CVarArgType</text>
</a>
</g>
</g>
<!-- CVarArgType&#45;&gt;UInt16 -->
<g id="edge21" class="edge">
<path fill="none" stroke="#cccccc" d="M151.496,-60.3042C156.375,-59.4755 161.294,-58.6859 166,-58 305.781,-37.627 473.044,-21.7731 546.4,-15.245"/>
<polygon fill="#cccccc" stroke="#cccccc" points="546.874,-18.7168 556.527,-14.35 546.258,-11.744 546.874,-18.7168"/>
</g>
<!-- Comparable -->
<g id="node4" class="node">
<g id="a_node4"><a xlink:href="/swift-2/protocol/Comparable/" target="_top">
<path fill="#999999" stroke="#999999" d="M575.191,-312C575.191,-312 514.809,-312 514.809,-312 511.142,-312 507.475,-308.333 507.475,-304.667 507.475,-304.667 507.475,-297.333 507.475,-297.333 507.475,-293.667 511.142,-290 514.809,-290 514.809,-290 575.191,-290 575.191,-290 578.858,-290 582.525,-293.667 582.525,-297.333 582.525,-297.333 582.525,-304.667 582.525,-304.667 582.525,-308.333 578.858,-312 575.191,-312"/>
<text text-anchor="middle" x="545" y="-297.4" font-family="Helvetica,sans-Serif" font-size="12.00" fill="white">Comparable</text>
</a>
</g>
</g>
<!-- IntegerArithmeticType -->
<g id="node9" class="node">
<g id="a_node9"><a xlink:href="/swift-2/protocol/IntegerArithmeticType/" target="_top">
<path fill="#999999" stroke="#999999" d="M612.711,-254C612.711,-254 501.289,-254 501.289,-254 497.623,-254 493.956,-250.333 493.956,-246.667 493.956,-246.667 493.956,-239.333 493.956,-239.333 493.956,-235.667 497.623,-232 501.289,-232 501.289,-232 612.711,-232 612.711,-232 616.377,-232 620.044,-235.667 620.044,-239.333 620.044,-239.333 620.044,-246.667 620.044,-246.667 620.044,-250.333 616.377,-254 612.711,-254"/>
<text text-anchor="middle" x="557" y="-239.4" font-family="Helvetica,sans-Serif" font-size="12.00" fill="white">IntegerArithmeticType</text>
</a>
</g>
</g>
<!-- Comparable&#45;&gt;IntegerArithmeticType -->
<g id="edge33" class="edge">
<path fill="none" stroke="#cccccc" d="M547.145,-289.988C548.679,-282.831 550.795,-272.955 552.674,-264.189"/>
<polygon fill="#cccccc" stroke="#cccccc" points="556.119,-264.815 554.792,-254.304 549.274,-263.349 556.119,-264.815"/>
</g>
<!-- Strideable -->
<g id="node14" class="node">
<g id="a_node14"><a xlink:href="/swift-2/protocol/Strideable/" target="_top">
<path fill="#999999" stroke="#999999" d="M853.693,-254C853.693,-254 804.307,-254 804.307,-254 800.64,-254 796.974,-250.333 796.974,-246.667 796.974,-246.667 796.974,-239.333 796.974,-239.333 796.974,-235.667 800.64,-232 804.307,-232 804.307,-232 853.693,-232 853.693,-232 857.36,-232 861.026,-235.667 861.026,-239.333 861.026,-239.333 861.026,-246.667 861.026,-246.667 861.026,-250.333 857.36,-254 853.693,-254"/>
<text text-anchor="middle" x="829" y="-239.4" font-family="Helvetica,sans-Serif" font-size="12.00" fill="white">Strideable</text>
</a>
</g>
</g>
<!-- Comparable&#45;&gt;Strideable -->
<g id="edge42" class="edge">
<path fill="none" stroke="#cccccc" d="M582.588,-293.512C628.481,-285.452 708.687,-270.923 786.799,-254.18"/>
<polygon fill="#cccccc" stroke="#cccccc" points="787.771,-257.551 796.808,-252.02 786.294,-250.708 787.771,-257.551"/>
</g>
<!-- Comparable&#45;&gt;UInt16 -->
<g id="edge4" class="edge">
<path fill="none" stroke="#cccccc" d="M507.355,-298.583C410.697,-294.56 159.617,-281.533 135,-254 98.4022,-213.066 9.50774,-210.98 291,-58 334.481,-34.3698 477.852,-20.2915 546.595,-14.743"/>
<polygon fill="#cccccc" stroke="#cccccc" points="547.267,-18.201 556.961,-13.9256 546.716,-11.2227 547.267,-18.201"/>
</g>
<!-- CustomStringConvertible -->
<g id="node5" class="node">
<g id="a_node5"><a xlink:href="/swift-2/protocol/CustomStringConvertible/" target="_top">
<path fill="#999999" stroke="#999999" d="M430.208,-254C430.208,-254 301.792,-254 301.792,-254 298.126,-254 294.459,-250.333 294.459,-246.667 294.459,-246.667 294.459,-239.333 294.459,-239.333 294.459,-235.667 298.126,-232 301.792,-232 301.792,-232 430.208,-232 430.208,-232 433.874,-232 437.541,-235.667 437.541,-239.333 437.541,-239.333 437.541,-246.667 437.541,-246.667 437.541,-250.333 433.874,-254 430.208,-254"/>
<text text-anchor="middle" x="366" y="-239.4" font-family="Helvetica,sans-Serif" font-size="12.00" fill="white">CustomStringConvertible</text>
</a>
</g>
</g>
<!-- CustomStringConvertible&#45;&gt;UInt16 -->
<g id="edge11" class="edge">
<path fill="none" stroke="#cccccc" d="M359.381,-231.922C348.02,-213.955 325.238,-174.812 317,-138 308.836,-101.516 313.672,-81.1867 343,-58 374.049,-33.4526 487.024,-20.3035 546.615,-14.94"/>
<polygon fill="#cccccc" stroke="#cccccc" points="547.084,-18.4125 556.742,-14.0573 546.476,-11.4389 547.084,-18.4125"/>
</g>
<!-- CustomStringConvertible&#45;&gt;_IntegerType -->
<g id="edge26" class="edge">
<path fill="none" stroke="#cccccc" d="M371.9,-231.988C376.303,-224.517 382.452,-214.081 387.78,-205.039"/>
<polygon fill="#cccccc" stroke="#cccccc" points="390.866,-206.696 392.928,-196.304 384.836,-203.142 390.866,-206.696"/>
</g>
<!-- Equatable -->
<g id="node6" class="node">
<g id="a_node6"><a xlink:href="/swift-2/protocol/Equatable/" target="_top">
<path fill="#999999" stroke="#999999" d="M334.702,-428C334.702,-428 285.298,-428 285.298,-428 281.632,-428 277.965,-424.333 277.965,-420.667 277.965,-420.667 277.965,-413.333 277.965,-413.333 277.965,-409.667 281.632,-406 285.298,-406 285.298,-406 334.702,-406 334.702,-406 338.368,-406 342.035,-409.667 342.035,-413.333 342.035,-413.333 342.035,-420.667 342.035,-420.667 342.035,-424.333 338.368,-428 334.702,-428"/>
<text text-anchor="middle" x="310" y="-413.4" font-family="Helvetica,sans-Serif" font-size="12.00" fill="white">Equatable</text>
</a>
</g>
</g>
<!-- Equatable&#45;&gt;Comparable -->
<g id="edge34" class="edge">
<path fill="none" stroke="#cccccc" d="M330.855,-405.883C372.663,-385.602 466.848,-339.912 515.169,-316.471"/>
<polygon fill="#cccccc" stroke="#cccccc" points="516.722,-319.608 524.192,-312.094 513.667,-313.31 516.722,-319.608"/>
</g>
<!-- Hashable -->
<g id="node8" class="node">
<g id="a_node8"><a xlink:href="/swift-2/protocol/Hashable/" target="_top">
<path fill="#999999" stroke="#999999" d="M80.6941,-254C80.6941,-254 35.3059,-254 35.3059,-254 31.6392,-254 27.9725,-250.333 27.9725,-246.667 27.9725,-246.667 27.9725,-239.333 27.9725,-239.333 27.9725,-235.667 31.6392,-232 35.3059,-232 35.3059,-232 80.6941,-232 80.6941,-232 84.3608,-232 88.0275,-235.667 88.0275,-239.333 88.0275,-239.333 88.0275,-246.667 88.0275,-246.667 88.0275,-250.333 84.3608,-254 80.6941,-254"/>
<text text-anchor="middle" x="58" y="-239.4" font-family="Helvetica,sans-Serif" font-size="12.00" fill="white">Hashable</text>
</a>
</g>
</g>
<!-- Equatable&#45;&gt;Hashable -->
<g id="edge31" class="edge">
<path fill="none" stroke="#cccccc" d="M294.991,-405.756C252.709,-376.897 132.379,-294.767 81.3421,-259.932"/>
<polygon fill="#cccccc" stroke="#cccccc" points="83.1631,-256.937 72.9304,-254.191 79.2168,-262.719 83.1631,-256.937"/>
</g>
<!-- Equatable&#45;&gt;UInt16 -->
<g id="edge3" class="edge">
<path fill="none" stroke="#cccccc" d="M277.702,-411.181C198.303,-398.429 0,-360.705 0,-302 0,-302 0,-302 0,-126 0,-90.0027 13.1385,-76.5302 44,-58 86.9253,-32.2264 431.789,-17.5111 546.813,-13.2831"/>
<polygon fill="#cccccc" stroke="#cccccc" points="547.031,-16.7776 556.898,-12.9178 546.777,-9.78222 547.031,-16.7776"/>
</g>
<!-- _Incrementable -->
<g id="node17" class="node">
<g id="a_node17"><a xlink:href="/swift-2/protocol/_Incrementable/" target="_top">
<path fill="#999999" stroke="#999999" d="M586.705,-370C586.705,-370 509.295,-370 509.295,-370 505.628,-370 501.961,-366.333 501.961,-362.667 501.961,-362.667 501.961,-355.333 501.961,-355.333 501.961,-351.667 505.628,-348 509.295,-348 509.295,-348 586.705,-348 586.705,-348 590.372,-348 594.039,-351.667 594.039,-355.333 594.039,-355.333 594.039,-362.667 594.039,-362.667 594.039,-366.333 590.372,-370 586.705,-370"/>
<text text-anchor="middle" x="548" y="-355.4" font-family="Helvetica,sans-Serif" font-size="12.00" fill="white">_Incrementable</text>
</a>
</g>
</g>
<!-- Equatable&#45;&gt;_Incrementable -->
<g id="edge35" class="edge">
<path fill="none" stroke="#cccccc" d="M342.098,-408.448C381.343,-399.213 448.315,-383.455 495.192,-372.425"/>
<polygon fill="#cccccc" stroke="#cccccc" points="496.234,-375.776 505.167,-370.078 494.631,-368.962 496.234,-375.776"/>
</g>
<!-- ForwardIndexType -->
<g id="node7" class="node">
<g id="a_node7"><a xlink:href="/swift-2/protocol/ForwardIndexType/" target="_top">
<path fill="#999999" stroke="#999999" d="M1029.21,-312C1029.21,-312 934.794,-312 934.794,-312 931.127,-312 927.461,-308.333 927.461,-304.667 927.461,-304.667 927.461,-297.333 927.461,-297.333 927.461,-293.667 931.127,-290 934.794,-290 934.794,-290 1029.21,-290 1029.21,-290 1032.87,-290 1036.54,-293.667 1036.54,-297.333 1036.54,-297.333 1036.54,-304.667 1036.54,-304.667 1036.54,-308.333 1032.87,-312 1029.21,-312"/>
<text text-anchor="middle" x="982" y="-297.4" font-family="Helvetica,sans-Serif" font-size="12.00" fill="white">ForwardIndexType</text>
</a>
</g>
</g>
<!-- ForwardIndexType&#45;&gt;BidirectionalIndexType -->
<g id="edge40" class="edge">
<path fill="none" stroke="#cccccc" d="M982,-289.988C982,-282.91 982,-273.171 982,-264.478"/>
<polygon fill="#cccccc" stroke="#cccccc" points="985.5,-264.304 982,-254.304 978.5,-264.304 985.5,-264.304"/>
</g>
<!-- ForwardIndexType&#45;&gt;UInt16 -->
<g id="edge14" class="edge">
<path fill="none" stroke="#cccccc" d="M1015.89,-289.877C1035.91,-282.524 1060.64,-270.874 1078,-254 1102.38,-230.31 1113,-219.991 1113,-186 1113,-186 1113,-186 1113,-126 1113,-25.3422 742.362,-13.3211 621.565,-12.0763"/>
<polygon fill="#cccccc" stroke="#cccccc" points="621.356,-8.5745 611.327,-11.9909 621.298,-15.5743 621.356,-8.5745"/>
</g>
<!-- Hashable&#45;&gt;UInt16 -->
<g id="edge10" class="edge">
<path fill="none" stroke="#cccccc" d="M54.1452,-231.955C43.0777,-201.226 14.8474,-107.573 61,-58 93.9801,-22.576 432.252,-14.2682 546.524,-12.4658"/>
<polygon fill="#cccccc" stroke="#cccccc" points="546.919,-15.9604 556.865,-12.311 546.814,-8.9612 546.919,-15.9604"/>
</g>
<!-- Hashable&#45;&gt;_IntegerType -->
<g id="edge27" class="edge">
<path fill="none" stroke="#cccccc" d="M88.2615,-237.03C146.987,-227.386 276.93,-206.047 348.784,-194.247"/>
<polygon fill="#cccccc" stroke="#cccccc" points="349.648,-197.652 358.948,-192.577 348.513,-190.744 349.648,-197.652"/>
</g>
<!-- IntegerArithmeticType&#45;&gt;UInt16 -->
<g id="edge6" class="edge">
<path fill="none" stroke="#cccccc" d="M558.195,-231.82C562.333,-196.568 576.102,-79.2764 581.652,-32.0032"/>
<polygon fill="#cccccc" stroke="#cccccc" points="585.129,-32.4019 582.819,-22.062 578.177,-31.5857 585.129,-32.4019"/>
</g>
<!-- IntegerArithmeticType&#45;&gt;_IntegerType -->
<g id="edge28" class="edge">
<path fill="none" stroke="#cccccc" d="M528.753,-231.988C503.106,-222.898 465.084,-209.422 436.822,-199.405"/>
<polygon fill="#cccccc" stroke="#cccccc" points="437.863,-196.061 427.269,-196.019 435.525,-202.659 437.863,-196.061"/>
</g>
<!-- IntegerLiteralConvertible -->
<g id="node10" class="node">
<g id="a_node10"><a xlink:href="/swift-2/protocol/IntegerLiteralConvertible/" target="_top">
<path fill="#999999" stroke="#999999" d="M771.722,-254C771.722,-254 646.278,-254 646.278,-254 642.611,-254 638.944,-250.333 638.944,-246.667 638.944,-246.667 638.944,-239.333 638.944,-239.333 638.944,-235.667 642.611,-232 646.278,-232 646.278,-232 771.722,-232 771.722,-232 775.389,-232 779.056,-235.667 779.056,-239.333 779.056,-239.333 779.056,-246.667 779.056,-246.667 779.056,-250.333 775.389,-254 771.722,-254"/>
<text text-anchor="middle" x="709" y="-239.4" font-family="Helvetica,sans-Serif" font-size="12.00" fill="white">IntegerLiteralConvertible</text>
</a>
</g>
</g>
<!-- IntegerLiteralConvertible&#45;&gt;UInt16 -->
<g id="edge8" class="edge">
<path fill="none" stroke="#cccccc" d="M703.156,-231.803C697.846,-222.504 689.823,-208.37 683,-196 649.976,-136.125 611.909,-64.6646 594.131,-31.1428"/>
<polygon fill="#cccccc" stroke="#cccccc" points="597.068,-29.2098 589.293,-22.0123 590.882,-32.4873 597.068,-29.2098"/>
</g>
<!-- IntegerLiteralConvertible&#45;&gt;_IntegerType -->
<g id="edge25" class="edge">
<path fill="none" stroke="#cccccc" d="M653.578,-231.988C595.54,-221.504 505.2,-205.184 449.197,-195.068"/>
<polygon fill="#cccccc" stroke="#cccccc" points="449.618,-191.587 439.155,-193.254 448.373,-198.476 449.618,-191.587"/>
</g>
<!-- IntegerType -->
<g id="node11" class="node">
<g id="a_node11"><a xlink:href="/swift-2/protocol/IntegerType/" target="_top">
<path fill="#999999" stroke="#999999" d="M548.202,-138C548.202,-138 489.798,-138 489.798,-138 486.132,-138 482.465,-134.333 482.465,-130.667 482.465,-130.667 482.465,-123.333 482.465,-123.333 482.465,-119.667 486.132,-116 489.798,-116 489.798,-116 548.202,-116 548.202,-116 551.868,-116 555.535,-119.667 555.535,-123.333 555.535,-123.333 555.535,-130.667 555.535,-130.667 555.535,-134.333 551.868,-138 548.202,-138"/>
<text text-anchor="middle" x="519" y="-123.4" font-family="Helvetica,sans-Serif" font-size="12.00" fill="white">IntegerType</text>
</a>
</g>
</g>
<!-- IntegerType&#45;&gt;UInt16 -->
<g id="edge2" class="edge">
<path fill="none" stroke="#cccccc" d="M524.768,-115.883C535.63,-96.8331 559.274,-55.3658 573.181,-30.9757"/>
<polygon fill="#cccccc" stroke="#cccccc" points="576.238,-32.6787 578.151,-22.2579 570.157,-29.2114 576.238,-32.6787"/>
</g>
<!-- UnsignedIntegerType -->
<g id="node16" class="node">
<g id="a_node16"><a xlink:href="/swift-2/protocol/UnsignedIntegerType/" target="_top">
<path fill="#999999" stroke="#999999" d="M510.728,-80C510.728,-80 401.272,-80 401.272,-80 397.605,-80 393.938,-76.3333 393.938,-72.6667 393.938,-72.6667 393.938,-65.3333 393.938,-65.3333 393.938,-61.6667 397.605,-58 401.272,-58 401.272,-58 510.728,-58 510.728,-58 514.395,-58 518.062,-61.6667 518.062,-65.3333 518.062,-65.3333 518.062,-72.6667 518.062,-72.6667 518.062,-76.3333 514.395,-80 510.728,-80"/>
<text text-anchor="middle" x="456" y="-65.4" font-family="Helvetica,sans-Serif" font-size="12.00" fill="white">UnsignedIntegerType</text>
</a>
</g>
</g>
<!-- IntegerType&#45;&gt;UnsignedIntegerType -->
<g id="edge23" class="edge">
<path fill="none" stroke="#cccccc" d="M507.737,-115.988C498.712,-107.966 485.843,-96.5272 475.198,-87.065"/>
<polygon fill="#cccccc" stroke="#cccccc" points="477.391,-84.3316 467.592,-80.3039 472.741,-89.5635 477.391,-84.3316"/>
</g>
<!-- RandomAccessIndexType&#45;&gt;IntegerType -->
<g id="edge37" class="edge">
<path fill="none" stroke="#cccccc" d="M749.763,-173.988C697.481,-163.569 616.283,-147.387 565.452,-137.257"/>
<polygon fill="#cccccc" stroke="#cccccc" points="565.89,-133.776 555.398,-135.254 564.521,-140.641 565.89,-133.776"/>
</g>
<!-- RandomAccessIndexType&#45;&gt;UInt16 -->
<g id="edge12" class="edge">
<path fill="none" stroke="#cccccc" d="M800.083,-173.814C799.7,-149.94 795.282,-89.9758 762,-58 724.074,-21.5626 661.227,-12.974 621.252,-11.4799"/>
<polygon fill="#cccccc" stroke="#cccccc" points="621.199,-7.97767 611.118,-11.2345 621.03,-14.9756 621.199,-7.97767"/>
</g>
<!-- Reflectable -->
<g id="node13" class="node">
<g id="a_node13"><a xlink:href="/swift-2/protocol/Reflectable/" target="_top">
<path fill="#999999" stroke="#999999" d="M712.693,-80C712.693,-80 657.307,-80 657.307,-80 653.64,-80 649.974,-76.3333 649.974,-72.6667 649.974,-72.6667 649.974,-65.3333 649.974,-65.3333 649.974,-61.6667 653.64,-58 657.307,-58 657.307,-58 712.693,-58 712.693,-58 716.36,-58 720.026,-61.6667 720.026,-65.3333 720.026,-65.3333 720.026,-72.6667 720.026,-72.6667 720.026,-76.3333 716.36,-80 712.693,-80"/>
<text text-anchor="middle" x="685" y="-65.4" font-family="Helvetica,sans-Serif" font-size="12.00" fill="white">Reflectable</text>
</a>
</g>
</g>
<!-- Reflectable&#45;&gt;UInt16 -->
<g id="edge19" class="edge">
<path fill="none" stroke="#cccccc" d="M666.943,-57.9883C651.385,-49.3619 628.702,-36.785 610.987,-26.9633"/>
<polygon fill="#cccccc" stroke="#cccccc" points="612.684,-23.902 602.241,-22.1138 609.289,-30.0239 612.684,-23.902"/>
</g>
<!-- Strideable&#45;&gt;RandomAccessIndexType -->
<g id="edge39" class="edge">
<path fill="none" stroke="#cccccc" d="M823.815,-231.988C819.987,-224.595 814.656,-214.301 810.008,-205.325"/>
<polygon fill="#cccccc" stroke="#cccccc" points="813.043,-203.574 805.336,-196.304 806.827,-206.793 813.043,-203.574"/>
</g>
<!-- Strideable&#45;&gt;UInt16 -->
<g id="edge16" class="edge">
<path fill="none" stroke="#cccccc" d="M796.954,-233.294C766.973,-224.424 725.428,-210.017 716,-196 681.618,-144.882 765.384,-107.713 729,-58 704.475,-24.4902 655.377,-14.7907 621.143,-12.2942"/>
<polygon fill="#cccccc" stroke="#cccccc" points="621.218,-8.79311 611.039,-11.7323 620.83,-15.7823 621.218,-8.79311"/>
</g>
<!-- UnsignedIntegerType&#45;&gt;UInt16 -->
<g id="edge1" class="edge">
<path fill="none" stroke="#cccccc" d="M478.884,-57.9883C499.144,-49.1244 528.938,-36.0897 551.637,-26.1587"/>
<polygon fill="#cccccc" stroke="#cccccc" points="553.124,-29.3286 560.883,-22.1138 550.318,-22.9155 553.124,-29.3286"/>
</g>
<!-- _Incrementable&#45;&gt;ForwardIndexType -->
<g id="edge41" class="edge">
<path fill="none" stroke="#cccccc" d="M594.446,-352.007C672.168,-341.978 828.746,-321.775 917.243,-310.356"/>
<polygon fill="#cccccc" stroke="#cccccc" points="917.955,-313.793 927.425,-309.042 917.059,-306.851 917.955,-313.793"/>
</g>
<!-- _Incrementable&#45;&gt;UInt16 -->
<g id="edge15" class="edge">
<path fill="none" stroke="#cccccc" d="M594.228,-355.772C756.013,-347.369 1287,-314.425 1287,-244 1287,-244 1287,-244 1287,-126 1287,-94.6202 1292.35,-77.7982 1268,-58 1217.71,-17.1033 757.683,-12.4995 621.692,-12.0355"/>
<polygon fill="#cccccc" stroke="#cccccc" points="621.381,-8.53473 611.371,-12.0063 621.361,-15.5347 621.381,-8.53473"/>
</g>
<!-- _Incrementable&#45;&gt;_IntegerType -->
<g id="edge30" class="edge">
<path fill="none" stroke="#cccccc" d="M535.256,-347.822C524.624,-338.983 509.421,-325.513 498,-312 470.626,-279.612 472.871,-264.807 446,-232 437.691,-221.856 427.379,-211.556 418.532,-203.281"/>
<polygon fill="#cccccc" stroke="#cccccc" points="420.659,-200.484 410.919,-196.314 415.933,-205.647 420.659,-200.484"/>
</g>
<!-- _IntegerArithmeticType -->
<g id="node18" class="node">
<g id="a_node18"><a xlink:href="/swift-2/protocol/_IntegerArithmeticType/" target="_top">
<path fill="#999999" stroke="#999999" d="M769.215,-312C769.215,-312 650.785,-312 650.785,-312 647.118,-312 643.452,-308.333 643.452,-304.667 643.452,-304.667 643.452,-297.333 643.452,-297.333 643.452,-293.667 647.118,-290 650.785,-290 650.785,-290 769.215,-290 769.215,-290 772.882,-290 776.548,-293.667 776.548,-297.333 776.548,-297.333 776.548,-304.667 776.548,-304.667 776.548,-308.333 772.882,-312 769.215,-312"/>
<text text-anchor="middle" x="710" y="-297.4" font-family="Helvetica,sans-Serif" font-size="12.00" fill="white">_IntegerArithmeticType</text>
</a>
</g>
</g>
<!-- _IntegerArithmeticType&#45;&gt;IntegerArithmeticType -->
<g id="edge32" class="edge">
<path fill="none" stroke="#cccccc" d="M682.647,-289.988C657.92,-280.938 621.315,-267.54 593.984,-257.537"/>
<polygon fill="#cccccc" stroke="#cccccc" points="594.968,-254.17 584.374,-254.019 592.562,-260.743 594.968,-254.17"/>
</g>
<!-- _IntegerArithmeticType&#45;&gt;UInt16 -->
<g id="edge7" class="edge">
<path fill="none" stroke="#cccccc" d="M776.547,-296.35C808.96,-291.122 846.017,-279.453 870,-254 894.703,-227.783 895.377,-207.829 883,-174 859.81,-110.618 842.638,-93.1125 785,-58 733.847,-26.8382 663.696,-16.7602 621.233,-13.5174"/>
<polygon fill="#cccccc" stroke="#cccccc" points="621.275,-10.0124 611.063,-12.8316 620.804,-16.9965 621.275,-10.0124"/>
</g>
<!-- _IntegerType&#45;&gt;IntegerType -->
<g id="edge36" class="edge">
<path fill="none" stroke="#cccccc" d="M420.454,-173.988C439.278,-165.204 466.881,-152.322 488.088,-142.425"/>
<polygon fill="#cccccc" stroke="#cccccc" points="489.746,-145.514 497.328,-138.114 486.786,-139.171 489.746,-145.514"/>
</g>
<!-- _IntegerType&#45;&gt;UInt16 -->
<g id="edge5" class="edge">
<path fill="none" stroke="#cccccc" d="M369.433,-173.863C353.197,-166.603 334.481,-155.056 325,-138 303.213,-98.8025 373.969,-59.1997 376,-58 429.686,-26.2851 502.876,-16.3923 546.594,-13.3341"/>
<polygon fill="#cccccc" stroke="#cccccc" points="547.012,-16.8151 556.779,-12.7086 546.583,-9.82822 547.012,-16.8151"/>
</g>
<!-- _UnsignedIntegerType -->
<g id="node22" class="node">
<g id="a_node22"><a xlink:href="/swift-2/protocol/_UnsignedIntegerType/" target="_top">
<path fill="#999999" stroke="#999999" d="M456.734,-138C456.734,-138 341.266,-138 341.266,-138 337.599,-138 333.933,-134.333 333.933,-130.667 333.933,-130.667 333.933,-123.333 333.933,-123.333 333.933,-119.667 337.599,-116 341.266,-116 341.266,-116 456.734,-116 456.734,-116 460.401,-116 464.067,-119.667 464.067,-123.333 464.067,-123.333 464.067,-130.667 464.067,-130.667 464.067,-134.333 460.401,-138 456.734,-138"/>
<text text-anchor="middle" x="399" y="-123.4" font-family="Helvetica,sans-Serif" font-size="12.00" fill="white">_UnsignedIntegerType</text>
</a>
</g>
</g>
<!-- _IntegerType&#45;&gt;_UnsignedIntegerType -->
<g id="edge24" class="edge">
<path fill="none" stroke="#cccccc" d="M399,-173.988C399,-166.91 399,-157.171 399,-148.478"/>
<polygon fill="#cccccc" stroke="#cccccc" points="402.5,-148.304 399,-138.304 395.5,-148.304 402.5,-148.304"/>
</g>
<!-- _Strideable -->
<g id="node20" class="node">
<g id="a_node20"><a xlink:href="/swift-2/protocol/_Strideable/" target="_top">
<path fill="#999999" stroke="#999999" d="M878.7,-312C878.7,-312 823.3,-312 823.3,-312 819.634,-312 815.967,-308.333 815.967,-304.667 815.967,-304.667 815.967,-297.333 815.967,-297.333 815.967,-293.667 819.634,-290 823.3,-290 823.3,-290 878.7,-290 878.7,-290 882.366,-290 886.033,-293.667 886.033,-297.333 886.033,-297.333 886.033,-304.667 886.033,-304.667 886.033,-308.333 882.366,-312 878.7,-312"/>
<text text-anchor="middle" x="851" y="-297.4" font-family="Helvetica,sans-Serif" font-size="12.00" fill="white">_Strideable</text>
</a>
</g>
</g>
<!-- _Strideable&#45;&gt;Strideable -->
<g id="edge43" class="edge">
<path fill="none" stroke="#cccccc" d="M847.067,-289.988C844.193,-282.674 840.204,-272.519 836.705,-263.612"/>
<polygon fill="#cccccc" stroke="#cccccc" points="839.962,-262.332 833.048,-254.304 833.447,-264.891 839.962,-262.332"/>
</g>
<!-- _Strideable&#45;&gt;UInt16 -->
<g id="edge17" class="edge">
<path fill="none" stroke="#cccccc" d="M886.288,-294.106C941.607,-284.568 1043.73,-265.648 1056,-254 1078.76,-232.392 1075,-217.38 1075,-186 1075,-186 1075,-186 1075,-126 1075,-32.8648 735.555,-15.7948 621.138,-12.6865"/>
<polygon fill="#cccccc" stroke="#cccccc" points="621.182,-9.18658 611.098,-12.4343 621.007,-16.1844 621.182,-9.18658"/>
</g>
<!-- _StringElementType -->
<g id="node21" class="node">
<g id="a_node21"><a xlink:href="/swift-2/protocol/_StringElementType/" target="_top">
<path fill="#999999" stroke="#999999" d="M1251.72,-80C1251.72,-80 1148.28,-80 1148.28,-80 1144.62,-80 1140.95,-76.3333 1140.95,-72.6667 1140.95,-72.6667 1140.95,-65.3333 1140.95,-65.3333 1140.95,-61.6667 1144.62,-58 1148.28,-58 1148.28,-58 1251.72,-58 1251.72,-58 1255.38,-58 1259.05,-61.6667 1259.05,-65.3333 1259.05,-65.3333 1259.05,-72.6667 1259.05,-72.6667 1259.05,-76.3333 1255.38,-80 1251.72,-80"/>
<text text-anchor="middle" x="1200" y="-65.4" font-family="Helvetica,sans-Serif" font-size="12.00" fill="white">_StringElementType</text>
</a>
</g>
</g>
<!-- _StringElementType&#45;&gt;UInt16 -->
<g id="edge20" class="edge">
<path fill="none" stroke="#cccccc" d="M1140.67,-59.6118C1136.05,-59.038 1131.45,-58.4929 1127,-58 937.244,-36.9796 709.243,-20.5157 621.2,-14.4863"/>
<polygon fill="#cccccc" stroke="#cccccc" points="621.383,-10.9907 611.168,-13.8031 620.907,-17.9746 621.383,-10.9907"/>
</g>
<!-- _UnsignedIntegerType&#45;&gt;UInt16 -->
<g id="edge9" class="edge">
<path fill="none" stroke="#cccccc" d="M392.174,-115.585C383.631,-101.108 371.646,-74.7924 385,-58 404.822,-33.0734 494.8,-20.4798 546.724,-15.184"/>
<polygon fill="#cccccc" stroke="#cccccc" points="547.267,-18.6478 556.879,-14.1918 546.586,-11.681 547.267,-18.6478"/>
</g>
<!-- _UnsignedIntegerType&#45;&gt;UnsignedIntegerType -->
<g id="edge22" class="edge">
<path fill="none" stroke="#cccccc" d="M409.19,-115.988C417.276,-108.045 428.771,-96.7512 438.346,-87.3439"/>
<polygon fill="#cccccc" stroke="#cccccc" points="440.832,-89.8088 445.512,-80.3039 435.926,-84.8154 440.832,-89.8088"/>
</g>
</g>
</svg>
