<?xml version="1.0" encoding="UTF-8" standalone="no"?>
<!DOCTYPE svg PUBLIC "-//W3C//DTD SVG 1.1//EN"
 "http://www.w3.org/Graphics/SVG/1.1/DTD/svg11.dtd">
<!-- Generated by graphviz version 2.36.0 (20140111.2315)
 -->
<!-- Title: BitwiseOperationsType &#45; Type Hierarchy &#45; SwiftDoc.org Pages: 1 -->
<svg width="1630pt" height="369pt"
 viewBox="0.00 0.00 1630.40 369.20" xmlns="http://www.w3.org/2000/svg" xmlns:xlink="http://www.w3.org/1999/xlink">
<g id="graph0" class="graph" transform="scale(1 1) rotate(0) translate(7.2 311.6)">
<g transform="translate(0 -311.6)">
<g>
    <path fill="#666666" d="M13.846,10.832c-0.336-0.464-0.792-0.844-1.368-1.14s-1.224-0.444-1.944-0.444
        c-0.384,0-0.772,0.052-1.164,0.156C8.977,9.509,8.622,9.677,8.301,9.908c-0.32,0.232-0.58,0.52-0.78,0.864
        c-0.2,0.344-0.3,0.756-0.3,1.236c0,0.464,0.092,0.852,0.276,1.164c0.184,0.312,0.432,0.576,0.744,0.792s0.68,0.4,1.104,0.552
        c0.423,0.152,0.876,0.309,1.356,0.468c0.576,0.177,1.16,0.376,1.752,0.601c0.592,0.224,1.128,0.52,1.608,0.888
        s0.872,0.828,1.176,1.38s0.456,1.252,0.456,2.101c0,0.88-0.164,1.644-0.492,2.292c-0.328,0.647-0.765,1.184-1.308,1.607
        c-0.544,0.424-1.172,0.74-1.884,0.948s-1.444,0.312-2.196,0.312c-1.072,0-2.108-0.208-3.108-0.624
        c-1-0.415-1.828-1.031-2.484-1.848l1.848-1.56c0.4,0.592,0.936,1.071,1.608,1.439c0.672,0.368,1.399,0.552,2.184,0.552
        c0.4,0,0.8-0.056,1.2-0.168c0.4-0.111,0.764-0.288,1.092-0.527c0.328-0.24,0.596-0.54,0.804-0.9
        c0.208-0.36,0.312-0.796,0.312-1.308s-0.108-0.94-0.324-1.284c-0.216-0.344-0.508-0.636-0.876-0.876s-0.796-0.444-1.284-0.612
        c-0.488-0.168-1.004-0.34-1.548-0.516c-0.544-0.16-1.08-0.356-1.608-0.588c-0.528-0.232-1-0.528-1.416-0.889
        c-0.416-0.359-0.752-0.804-1.008-1.332c-0.256-0.527-0.384-1.184-0.384-1.968c0-0.848,0.172-1.576,0.516-2.184
        c0.344-0.608,0.792-1.112,1.344-1.512c0.552-0.4,1.176-0.692,1.872-0.876c0.696-0.184,1.396-0.276,2.1-0.276
        c0.992,0,1.92,0.176,2.784,0.528c0.864,0.352,1.56,0.824,2.088,1.416L13.846,10.832z"/>
    <path fill="#666666" d="M18.813,13.304l2.568,8.688h0.048l2.712-8.688h2.376l2.76,8.688h0.048l2.568-8.688h2.376L30.501,24.68
        h-2.352l-2.808-8.544h-0.048l-2.784,8.544h-2.352l-3.792-11.376H18.813z"/>
    <path fill="#666666" d="M38.685,9.2c0,0.416-0.147,0.76-0.44,1.032c-0.294,0.272-0.647,0.408-1.06,0.408s-0.762-0.14-1.047-0.42
        c-0.286-0.28-0.429-0.62-0.429-1.02c0-0.416,0.143-0.764,0.429-1.044c0.286-0.28,0.635-0.42,1.047-0.42s0.766,0.14,1.06,0.42
        C38.538,8.437,38.685,8.784,38.685,9.2z M38.325,24.68h-2.256V13.304h2.256V24.68z"/>
    <path fill="#666666" d="M47.613,15.152h-2.64v9.528h-2.256v-9.528h-2.256v-1.848h2.256v-2.376c0-0.672,0.076-1.292,0.228-1.86
        c0.152-0.568,0.4-1.06,0.744-1.476c0.344-0.416,0.784-0.744,1.32-0.984c0.536-0.24,1.188-0.36,1.956-0.36
        c0.544,0,1.016,0.056,1.416,0.168l-0.264,1.944c-0.176-0.048-0.352-0.088-0.528-0.12c-0.176-0.032-0.376-0.048-0.6-0.048
        c-0.432,0-0.78,0.076-1.044,0.228c-0.264,0.152-0.468,0.356-0.612,0.612s-0.24,0.548-0.288,0.876
        c-0.048,0.328-0.072,0.668-0.072,1.02v2.376h2.64V15.152z"/>
    <path fill="#666666" d="M54.909,15.152h-3.024v5.91c0,0.687,0.128,1.177,0.384,1.472c0.256,0.295,0.664,0.442,1.224,0.442
        c0.208,0,0.432-0.021,0.672-0.065c0.24-0.044,0.456-0.11,0.648-0.198l0.072,1.848c-0.272,0.096-0.572,0.172-0.9,0.229
        c-0.328,0.056-0.668,0.084-1.02,0.084c-1.072,0-1.892-0.296-2.46-0.889c-0.568-0.592-0.852-1.479-0.852-2.664v-6.168h-2.184
        v-1.848h2.184V10.04h2.232v3.264h3.024V15.152z"/>
    <path fill="#666666" d="M57.356,7.688h5.832c1.088,0,2.176,0.16,3.264,0.48c1.088,0.32,2.072,0.824,2.952,1.512
        s1.592,1.568,2.136,2.64c0.544,1.072,0.816,2.36,0.816,3.864c0,1.456-0.272,2.716-0.816,3.78s-1.256,1.943-2.136,2.64
        s-1.864,1.216-2.952,1.561c-1.088,0.344-2.176,0.516-3.264,0.516h-5.832V7.688z M59.732,22.593h2.976
        c1.024,0,1.972-0.145,2.844-0.432c0.872-0.288,1.624-0.704,2.256-1.248c0.632-0.544,1.124-1.216,1.476-2.017
        c0.352-0.8,0.528-1.704,0.528-2.712c0-1.056-0.176-1.983-0.528-2.784c-0.353-0.8-0.844-1.468-1.476-2.004
        c-0.632-0.536-1.384-0.944-2.256-1.224s-1.82-0.42-2.844-0.42h-2.976V22.593z"/>
    <path fill="#666666" d="M86.06,18.969c0,0.88-0.156,1.688-0.468,2.424c-0.312,0.736-0.744,1.372-1.296,1.908
        c-0.552,0.536-1.204,0.952-1.956,1.248c-0.752,0.296-1.56,0.443-2.424,0.443c-0.864,0-1.672-0.147-2.424-0.443
        c-0.752-0.296-1.4-0.712-1.944-1.248c-0.544-0.536-0.972-1.172-1.284-1.908c-0.312-0.735-0.468-1.544-0.468-2.424
        s0.156-1.684,0.468-2.412c0.312-0.728,0.74-1.356,1.284-1.884c0.543-0.528,1.191-0.939,1.944-1.236
        c0.752-0.296,1.56-0.444,2.424-0.444c0.864,0,1.672,0.148,2.424,0.444c0.752,0.297,1.404,0.708,1.956,1.236
        c0.552,0.527,0.984,1.156,1.296,1.884C85.904,17.285,86.06,18.089,86.06,18.969z M83.708,18.98c0-0.542-0.084-1.061-0.252-1.556
        c-0.169-0.494-0.414-0.929-0.734-1.304s-0.718-0.674-1.192-0.897s-1.015-0.335-1.625-0.335c-0.61,0-1.152,0.111-1.625,0.335
        c-0.474,0.224-0.871,0.522-1.191,0.897c-0.321,0.375-0.566,0.81-0.734,1.304C76.184,17.92,76.1,18.438,76.1,18.98
        c0,0.543,0.084,1.062,0.253,1.556c0.168,0.495,0.413,0.934,0.734,1.316c0.321,0.383,0.718,0.686,1.191,0.909
        c0.473,0.224,1.015,0.335,1.625,0.335c0.61,0,1.151-0.111,1.625-0.335s0.871-0.526,1.192-0.909s0.565-0.821,0.734-1.316
        C83.624,20.042,83.708,19.523,83.708,18.98z"/>
    <path fill="#666666" d="M96.428,16.184c-0.24-0.368-0.6-0.676-1.08-0.924s-0.992-0.372-1.536-0.372
        c-0.592,0-1.116,0.112-1.572,0.336c-0.456,0.225-0.844,0.524-1.164,0.9c-0.32,0.376-0.564,0.812-0.732,1.308
        s-0.252,1.017-0.252,1.56c0,0.545,0.084,1.064,0.252,1.561s0.412,0.933,0.732,1.308c0.32,0.376,0.712,0.677,1.176,0.9
        c0.464,0.225,0.992,0.336,1.584,0.336c0.576,0,1.1-0.111,1.572-0.336c0.472-0.224,0.86-0.528,1.164-0.912l1.512,1.368
        c-0.48,0.561-1.08,0.996-1.8,1.308c-0.72,0.312-1.536,0.468-2.448,0.468c-0.88,0-1.692-0.144-2.436-0.432
        c-0.744-0.288-1.388-0.691-1.932-1.212c-0.544-0.52-0.972-1.147-1.284-1.884s-0.468-1.561-0.468-2.473
        c0-0.896,0.152-1.711,0.456-2.447c0.304-0.736,0.728-1.368,1.272-1.896c0.543-0.527,1.188-0.936,1.932-1.224
        c0.744-0.288,1.548-0.433,2.412-0.433c0.8,0,1.596,0.16,2.388,0.48s1.419,0.784,1.884,1.392L96.428,16.184z"/>
    <path fill="#666666" d="M103.1,23.24c0,0.417-0.152,0.784-0.456,1.104c-0.304,0.32-0.688,0.479-1.152,0.479
        c-0.448,0-0.828-0.155-1.14-0.468c-0.312-0.312-0.468-0.676-0.468-1.092c0-0.432,0.152-0.804,0.456-1.116
        c0.304-0.312,0.688-0.468,1.152-0.468c0.464,0,0.848,0.152,1.152,0.456C102.947,22.44,103.1,22.808,103.1,23.24z"/>
    <path fill="#666666" d="M116.635,18.969c0,0.88-0.156,1.688-0.468,2.424c-0.312,0.736-0.744,1.372-1.296,1.908
        c-0.552,0.536-1.204,0.952-1.956,1.248c-0.752,0.296-1.56,0.443-2.424,0.443c-0.864,0-1.672-0.147-2.424-0.443
        c-0.752-0.296-1.4-0.712-1.944-1.248c-0.544-0.536-0.972-1.172-1.284-1.908c-0.312-0.735-0.468-1.544-0.468-2.424
        s0.156-1.684,0.468-2.412c0.312-0.728,0.74-1.356,1.284-1.884c0.543-0.528,1.191-0.939,1.944-1.236
        c0.752-0.296,1.56-0.444,2.424-0.444c0.864,0,1.672,0.148,2.424,0.444c0.752,0.297,1.404,0.708,1.956,1.236
        c0.552,0.527,0.984,1.156,1.296,1.884C116.479,17.285,116.635,18.089,116.635,18.969z M114.283,18.98
        c0-0.542-0.084-1.061-0.252-1.556c-0.169-0.494-0.414-0.929-0.734-1.304s-0.718-0.674-1.192-0.897s-1.015-0.335-1.625-0.335
        c-0.61,0-1.152,0.111-1.625,0.335c-0.474,0.224-0.871,0.522-1.191,0.897c-0.321,0.375-0.566,0.81-0.734,1.304
        c-0.169,0.495-0.253,1.014-0.253,1.556c0,0.543,0.084,1.062,0.253,1.556c0.168,0.495,0.413,0.934,0.734,1.316
        c0.321,0.383,0.718,0.686,1.191,0.909c0.473,0.224,1.015,0.335,1.625,0.335c0.61,0,1.151-0.111,1.625-0.335
        s0.871-0.526,1.192-0.909s0.565-0.821,0.734-1.316C114.199,20.042,114.283,19.523,114.283,18.98z"/>
    <path fill="#666666" d="M119.251,14.577c-0.016-0.48-0.04-0.904-0.072-1.272h2.136c0.032,0.288,0.056,0.62,0.072,0.996
        c0.016,0.376,0.024,0.684,0.024,0.924h0.072c0.32-0.672,0.788-1.212,1.404-1.62c0.616-0.408,1.308-0.612,2.076-0.612
        c0.352,0,0.648,0.033,0.888,0.097l-0.096,2.088c-0.32-0.08-0.664-0.12-1.032-0.12c-0.544,0-1.016,0.101-1.416,0.3
        c-0.4,0.2-0.732,0.468-0.996,0.805c-0.264,0.336-0.46,0.724-0.588,1.163c-0.128,0.44-0.192,0.9-0.192,1.381v5.976h-2.256v-8.928
        C119.275,15.449,119.267,15.056,119.251,14.577z"/>
    <path fill="#666666" d="M128.419,26.625c0.496,0.56,1.116,1.008,1.86,1.344c0.744,0.336,1.508,0.504,2.292,0.504
        c0.752,0,1.384-0.108,1.896-0.324s0.924-0.512,1.236-0.888s0.536-0.82,0.672-1.332c0.136-0.513,0.204-1.064,0.204-1.656v-1.464
        h-0.048c-0.416,0.641-0.984,1.128-1.704,1.464c-0.72,0.336-1.488,0.504-2.304,0.504c-0.864,0-1.652-0.151-2.364-0.456
        c-0.712-0.304-1.316-0.72-1.812-1.248c-0.496-0.527-0.88-1.147-1.152-1.859s-0.408-1.477-0.408-2.292
        c0-0.816,0.136-1.584,0.408-2.305c0.272-0.72,0.656-1.348,1.152-1.884c0.496-0.535,1.096-0.96,1.8-1.271
        c0.704-0.312,1.488-0.469,2.352-0.469c0.816,0,1.596,0.177,2.34,0.528c0.744,0.353,1.332,0.888,1.764,1.608h0.048v-1.824h2.184
        v10.8c0,0.832-0.104,1.628-0.312,2.388c-0.208,0.76-0.56,1.433-1.056,2.017s-1.144,1.052-1.944,1.404
        c-0.8,0.352-1.792,0.527-2.976,0.527c-0.992,0-1.988-0.18-2.988-0.54c-1-0.359-1.86-0.868-2.58-1.523L128.419,26.625z
         M129.091,18.873c0,0.527,0.084,1.031,0.253,1.512c0.168,0.479,0.417,0.904,0.746,1.271c0.329,0.369,0.726,0.664,1.192,0.889
        c0.465,0.224,0.995,0.336,1.589,0.336c0.577,0,1.107-0.104,1.589-0.312c0.481-0.207,0.891-0.491,1.228-0.852
        s0.598-0.784,0.782-1.272c0.185-0.487,0.277-1.012,0.277-1.571c0-0.544-0.093-1.057-0.277-1.536
        c-0.185-0.48-0.449-0.904-0.794-1.272c-0.345-0.367-0.755-0.66-1.228-0.876c-0.474-0.216-1-0.324-1.577-0.324
        c-0.594,0-1.124,0.108-1.589,0.324c-0.466,0.216-0.863,0.504-1.192,0.864s-0.578,0.784-0.746,1.271
        C129.175,17.812,129.091,18.329,129.091,18.873z"/>
</g>
<g><a xlink:href="/" pointer-events="all" target="_top"><polygon fill="none" points="0,0 145,0 145,35 0,35 0,0"/></a></g>

</g>


<!-- Bit -->
<g id="node1" class="node">
<g id="a_node1"><a xlink:href="/swift-2/type/Bit/" target="_top">
<polygon fill="#999999" stroke="#999999" points="623,-22 569,-22 569,-0 623,-0 623,-22"/>
<text text-anchor="middle" x="596" y="-7.4" font-family="Helvetica,sans-Serif" font-size="12.00" fill="white">Bit</text>
</a>
</g>
</g>
<!-- BitwiseOperationsType -->
<g id="node2" class="node">
<g id="a_node2"><a xlink:href="/swift-2/protocol/BitwiseOperationsType/" target="_top">
<path fill="#ee543d" stroke="#ee543d" d="M840.715,-254C840.715,-254 723.285,-254 723.285,-254 719.618,-254 715.952,-250.333 715.952,-246.667 715.952,-246.667 715.952,-239.333 715.952,-239.333 715.952,-235.667 719.618,-232 723.285,-232 723.285,-232 840.715,-232 840.715,-232 844.382,-232 848.048,-235.667 848.048,-239.333 848.048,-239.333 848.048,-246.667 848.048,-246.667 848.048,-250.333 844.382,-254 840.715,-254"/>
<text text-anchor="middle" x="782" y="-239.4" font-family="Helvetica,sans-Serif" font-size="12.00" fill="white">BitwiseOperationsType</text>
</a>
</g>
</g>
<!-- Int -->
<g id="node3" class="node">
<g id="a_node3"><a xlink:href="/swift-2/type/Int/" target="_top">
<polygon fill="#999999" stroke="#999999" points="551,-22 497,-22 497,-0 551,-0 551,-22"/>
<text text-anchor="middle" x="524" y="-7.4" font-family="Helvetica,sans-Serif" font-size="12.00" fill="white">Int</text>
</a>
</g>
</g>
<!-- BitwiseOperationsType&#45;&gt;Int -->
<g id="edge1" class="edge">
<path fill="none" stroke="#cccccc" d="M766.624,-231.935C753.191,-222.952 733.34,-209.213 717,-196 647.349,-139.678 572.732,-63.3829 540.445,-29.481"/>
<polygon fill="#cccccc" stroke="#cccccc" points="542.94,-27.0258 533.52,-22.1769 537.86,-31.8419 542.94,-27.0258"/>
</g>
<!-- Int16 -->
<g id="node4" class="node">
<g id="a_node4"><a xlink:href="/swift-2/type/Int16/" target="_top">
<polygon fill="#999999" stroke="#999999" points="320,-22 266,-22 266,-0 320,-0 320,-22"/>
<text text-anchor="middle" x="293" y="-7.4" font-family="Helvetica,sans-Serif" font-size="12.00" fill="white">Int16</text>
</a>
</g>
</g>
<!-- BitwiseOperationsType&#45;&gt;Int16 -->
<g id="edge2" class="edge">
<path fill="none" stroke="#cccccc" d="M715.931,-237.16C595.566,-226.927 347.631,-198.853 290,-138 263.05,-109.543 275.281,-59.2246 285.059,-31.5675"/>
<polygon fill="#cccccc" stroke="#cccccc" points="288.349,-32.7619 288.599,-22.17 281.798,-30.2941 288.349,-32.7619"/>
</g>
<!-- Int32 -->
<g id="node5" class="node">
<g id="a_node5"><a xlink:href="/swift-2/type/Int32/" target="_top">
<polygon fill="#999999" stroke="#999999" points="695,-22 641,-22 641,-0 695,-0 695,-22"/>
<text text-anchor="middle" x="668" y="-7.4" font-family="Helvetica,sans-Serif" font-size="12.00" fill="white">Int32</text>
</a>
</g>
</g>
<!-- BitwiseOperationsType&#45;&gt;Int32 -->
<g id="edge3" class="edge">
<path fill="none" stroke="#cccccc" d="M768.437,-231.932C757.66,-223.362 742.817,-210.207 733,-196 696.505,-143.184 678.424,-67.7434 671.492,-32.1097"/>
<polygon fill="#cccccc" stroke="#cccccc" points="674.886,-31.2141 669.624,-22.0182 668.003,-32.4882 674.886,-31.2141"/>
</g>
<!-- Int64 -->
<g id="node6" class="node">
<g id="a_node6"><a xlink:href="/swift-2/type/Int64/" target="_top">
<polygon fill="#999999" stroke="#999999" points="54,-22 0,-22 0,-0 54,-0 54,-22"/>
<text text-anchor="middle" x="27" y="-7.4" font-family="Helvetica,sans-Serif" font-size="12.00" fill="white">Int64</text>
</a>
</g>
</g>
<!-- BitwiseOperationsType&#45;&gt;Int64 -->
<g id="edge4" class="edge">
<path fill="none" stroke="#cccccc" d="M715.835,-239.399C604.331,-234.375 384.005,-221.507 311,-196 199.99,-157.215 88.9578,-66.5988 45.7992,-28.9103"/>
<polygon fill="#cccccc" stroke="#cccccc" points="47.9064,-26.1018 38.0926,-22.1093 43.2746,-31.3504 47.9064,-26.1018"/>
</g>
<!-- Int8 -->
<g id="node7" class="node">
<g id="a_node7"><a xlink:href="/swift-2/type/Int8/" target="_top">
<polygon fill="#999999" stroke="#999999" points="206,-22 152,-22 152,-0 206,-0 206,-22"/>
<text text-anchor="middle" x="179" y="-7.4" font-family="Helvetica,sans-Serif" font-size="12.00" fill="white">Int8</text>
</a>
</g>
</g>
<!-- BitwiseOperationsType&#45;&gt;Int8 -->
<g id="edge5" class="edge">
<path fill="none" stroke="#cccccc" d="M715.719,-238.976C612.688,-233.585 419.267,-220.511 355,-196 272.963,-164.711 212.278,-71.211 189.197,-30.8705"/>
<polygon fill="#cccccc" stroke="#cccccc" points="192.197,-29.0636 184.264,-22.0409 186.086,-32.4779 192.197,-29.0636"/>
</g>
<!-- UInt -->
<g id="node10" class="node">
<g id="a_node10"><a xlink:href="/swift-2/type/UInt/" target="_top">
<polygon fill="#999999" stroke="#999999" points="1616,-22 1562,-22 1562,-0 1616,-0 1616,-22"/>
<text text-anchor="middle" x="1589" y="-7.4" font-family="Helvetica,sans-Serif" font-size="12.00" fill="white">UInt</text>
</a>
</g>
</g>
<!-- BitwiseOperationsType&#45;&gt;UInt -->
<g id="edge6" class="edge">
<path fill="none" stroke="#cccccc" d="M848.431,-241.624C940.434,-239.728 1111.22,-231.222 1252,-196 1317.34,-179.653 1330.5,-165.455 1392,-138 1446.46,-113.689 1463.39,-113.102 1513,-80 1535.12,-65.2405 1557.44,-44.3946 1572.12,-29.6836"/>
<polygon fill="#cccccc" stroke="#cccccc" points="1574.93,-31.811 1579.43,-22.2196 1569.93,-26.911 1574.93,-31.811"/>
</g>
<!-- UInt16 -->
<g id="node11" class="node">
<g id="a_node11"><a xlink:href="/swift-2/type/UInt16/" target="_top">
<polygon fill="#999999" stroke="#999999" points="980,-22 926,-22 926,-0 980,-0 980,-22"/>
<text text-anchor="middle" x="953" y="-7.4" font-family="Helvetica,sans-Serif" font-size="12.00" fill="white">UInt16</text>
</a>
</g>
</g>
<!-- BitwiseOperationsType&#45;&gt;UInt16 -->
<g id="edge7" class="edge">
<path fill="none" stroke="#cccccc" d="M794.438,-231.749C804.826,-222.867 819.708,-209.373 831,-196 878.038,-140.294 922.532,-65.7807 942.292,-31.1672"/>
<polygon fill="#cccccc" stroke="#cccccc" points="945.522,-32.5668 947.399,-22.1397 939.429,-29.12 945.522,-32.5668"/>
</g>
<!-- UInt32 -->
<g id="node12" class="node">
<g id="a_node12"><a xlink:href="/swift-2/type/UInt32/" target="_top">
<polygon fill="#999999" stroke="#999999" points="1056,-22 1002,-22 1002,-0 1056,-0 1056,-22"/>
<text text-anchor="middle" x="1029" y="-7.4" font-family="Helvetica,sans-Serif" font-size="12.00" fill="white">UInt32</text>
</a>
</g>
</g>
<!-- BitwiseOperationsType&#45;&gt;UInt32 -->
<g id="edge8" class="edge">
<path fill="none" stroke="#cccccc" d="M800.283,-231.978C815.354,-223.336 836.947,-210.06 854,-196 919.537,-141.966 985.552,-65.0409 1014.2,-30.2888"/>
<polygon fill="#cccccc" stroke="#cccccc" points="1017.03,-32.3569 1020.66,-22.4018 1011.62,-27.923 1017.03,-32.3569"/>
</g>
<!-- UInt64 -->
<g id="node13" class="node">
<g id="a_node13"><a xlink:href="/swift-2/type/UInt64/" target="_top">
<polygon fill="#999999" stroke="#999999" points="1350,-22 1296,-22 1296,-0 1350,-0 1350,-22"/>
<text text-anchor="middle" x="1323" y="-7.4" font-family="Helvetica,sans-Serif" font-size="12.00" fill="white">UInt64</text>
</a>
</g>
</g>
<!-- BitwiseOperationsType&#45;&gt;UInt64 -->
<g id="edge9" class="edge">
<path fill="none" stroke="#cccccc" d="M848.307,-236.751C974.235,-225.559 1241.72,-195.549 1312,-138 1340.72,-114.483 1341.1,-94.7696 1336,-58 1334.78,-49.1978 1332.31,-39.7112 1329.84,-31.6528"/>
<polygon fill="#cccccc" stroke="#cccccc" points="1333.14,-30.4807 1326.71,-22.0595 1326.49,-32.6519 1333.14,-30.4807"/>
</g>
<!-- UInt8 -->
<g id="node14" class="node">
<g id="a_node14"><a xlink:href="/swift-2/type/UInt8/" target="_top">
<polygon fill="#999999" stroke="#999999" points="1502,-22 1448,-22 1448,-0 1502,-0 1502,-22"/>
<text text-anchor="middle" x="1475" y="-7.4" font-family="Helvetica,sans-Serif" font-size="12.00" fill="white">UInt8</text>
</a>
</g>
</g>
<!-- BitwiseOperationsType&#45;&gt;UInt8 -->
<g id="edge10" class="edge">
<path fill="none" stroke="#cccccc" d="M848.178,-241.154C932.615,-238.644 1082.52,-229.36 1206,-196 1267.08,-179.499 1280,-167.433 1336,-138 1379.79,-114.986 1395.57,-114.519 1431,-80 1445.57,-65.8095 1457.72,-45.9498 1465.53,-31.3555"/>
<polygon fill="#cccccc" stroke="#cccccc" points="1468.77,-32.7209 1470.23,-22.2273 1462.54,-29.5194 1468.77,-32.7209"/>
</g>
<!-- _IntegerType -->
<g id="node17" class="node">
<g id="a_node17"><a xlink:href="/swift-2/protocol/_IntegerType/" target="_top">
<path fill="#999999" stroke="#999999" d="M814.708,-196C814.708,-196 749.292,-196 749.292,-196 745.626,-196 741.959,-192.333 741.959,-188.667 741.959,-188.667 741.959,-181.333 741.959,-181.333 741.959,-177.667 745.626,-174 749.292,-174 749.292,-174 814.708,-174 814.708,-174 818.374,-174 822.041,-177.667 822.041,-181.333 822.041,-181.333 822.041,-188.667 822.041,-188.667 822.041,-192.333 818.374,-196 814.708,-196"/>
<text text-anchor="middle" x="782" y="-181.4" font-family="Helvetica,sans-Serif" font-size="12.00" fill="white">_IntegerType</text>
</a>
</g>
</g>
<!-- BitwiseOperationsType&#45;&gt;_IntegerType -->
<g id="edge11" class="edge">
<path fill="none" stroke="#cccccc" d="M782,-231.988C782,-224.91 782,-215.171 782,-206.478"/>
<polygon fill="#cccccc" stroke="#cccccc" points="785.5,-206.304 782,-196.304 778.5,-206.304 785.5,-206.304"/>
</g>
<!-- Int&#45;&gt;Bit -->
<g id="edge12" class="edge">
<path fill="none" stroke="#cccccc" d="M551.281,-11C553.738,-11 556.194,-11 558.651,-11"/>
<polygon fill="#cccccc" stroke="#cccccc" points="558.75,-14.5001 568.75,-11 558.749,-7.5001 558.75,-14.5001"/>
</g>
<!-- IntegerType -->
<g id="node8" class="node">
<g id="a_node8"><a xlink:href="/swift-2/protocol/IntegerType/" target="_top">
<path fill="#999999" stroke="#999999" d="M811.202,-138C811.202,-138 752.798,-138 752.798,-138 749.132,-138 745.465,-134.333 745.465,-130.667 745.465,-130.667 745.465,-123.333 745.465,-123.333 745.465,-119.667 749.132,-116 752.798,-116 752.798,-116 811.202,-116 811.202,-116 814.868,-116 818.535,-119.667 818.535,-123.333 818.535,-123.333 818.535,-130.667 818.535,-130.667 818.535,-134.333 814.868,-138 811.202,-138"/>
<text text-anchor="middle" x="782" y="-123.4" font-family="Helvetica,sans-Serif" font-size="12.00" fill="white">IntegerType</text>
</a>
</g>
</g>
<!-- IntegerType&#45;&gt;Int -->
<g id="edge26" class="edge">
<path fill="none" stroke="#cccccc" d="M759.104,-115.883C713.013,-95.5174 608.939,-49.531 556.091,-26.1796"/>
<polygon fill="#cccccc" stroke="#cccccc" points="557.406,-22.9344 546.844,-22.0941 554.577,-29.3372 557.406,-22.9344"/>
</g>
<!-- IntegerType&#45;&gt;Int16 -->
<g id="edge27" class="edge">
<path fill="none" stroke="#cccccc" d="M745.645,-117.525C655.279,-96.4576 421.219,-41.8916 330.085,-20.6455"/>
<polygon fill="#cccccc" stroke="#cccccc" points="330.735,-17.2033 320.201,-18.3414 329.145,-24.0204 330.735,-17.2033"/>
</g>
<!-- IntegerType&#45;&gt;Int32 -->
<g id="edge28" class="edge">
<path fill="none" stroke="#cccccc" d="M777.326,-115.832C770.443,-101.647 756.484,-75.6773 739,-58 726.916,-45.7822 711.047,-35.1238 697.377,-27.1516"/>
<polygon fill="#cccccc" stroke="#cccccc" points="698.771,-23.9203 688.338,-22.0753 695.344,-30.0236 698.771,-23.9203"/>
</g>
<!-- IntegerType&#45;&gt;Int64 -->
<g id="edge29" class="edge">
<path fill="none" stroke="#cccccc" d="M745.552,-125.355C659.449,-123.282 437.008,-114.713 255,-80 186.157,-66.8704 108.417,-41.2749 63.8127,-25.5048"/>
<polygon fill="#cccccc" stroke="#cccccc" points="64.8738,-22.1674 54.2792,-22.1049 62.5225,-28.7606 64.8738,-22.1674"/>
</g>
<!-- IntegerType&#45;&gt;Int8 -->
<g id="edge30" class="edge">
<path fill="none" stroke="#cccccc" d="M745.538,-124.194C649.85,-119.175 393.333,-103.837 312,-80 271.439,-68.1124 228.616,-43.7988 202.851,-27.6999"/>
<polygon fill="#cccccc" stroke="#cccccc" points="204.484,-24.5902 194.167,-22.1786 200.728,-30.4974 204.484,-24.5902"/>
</g>
<!-- SignedIntegerType -->
<g id="node9" class="node">
<g id="a_node9"><a xlink:href="/swift-2/protocol/SignedIntegerType/" target="_top">
<path fill="#999999" stroke="#999999" d="M423.727,-80C423.727,-80 328.273,-80 328.273,-80 324.606,-80 320.94,-76.3333 320.94,-72.6667 320.94,-72.6667 320.94,-65.3333 320.94,-65.3333 320.94,-61.6667 324.606,-58 328.273,-58 328.273,-58 423.727,-58 423.727,-58 427.394,-58 431.06,-61.6667 431.06,-65.3333 431.06,-65.3333 431.06,-72.6667 431.06,-72.6667 431.06,-76.3333 427.394,-80 423.727,-80"/>
<text text-anchor="middle" x="376" y="-65.4" font-family="Helvetica,sans-Serif" font-size="12.00" fill="white">SignedIntegerType</text>
</a>
</g>
</g>
<!-- IntegerType&#45;&gt;SignedIntegerType -->
<g id="edge31" class="edge">
<path fill="none" stroke="#cccccc" d="M745.613,-120.981C676.996,-111.517 527.635,-90.9151 441.255,-79.0007"/>
<polygon fill="#cccccc" stroke="#cccccc" points="441.685,-75.5269 431.3,-77.6276 440.728,-82.4613 441.685,-75.5269"/>
</g>
<!-- IntegerType&#45;&gt;UInt -->
<g id="edge32" class="edge">
<path fill="none" stroke="#cccccc" d="M818.534,-124.939C905.921,-121.955 1133.69,-111.539 1321,-80 1404.87,-65.8777 1501.03,-38.7288 1552.29,-23.3511"/>
<polygon fill="#cccccc" stroke="#cccccc" points="1553.36,-26.6825 1561.92,-20.4398 1551.34,-19.9817 1553.36,-26.6825"/>
</g>
<!-- IntegerType&#45;&gt;UInt16 -->
<g id="edge33" class="edge">
<path fill="none" stroke="#cccccc" d="M785.933,-115.738C792.096,-100.958 805.386,-73.7302 825,-58 851.462,-36.7775 888.529,-24.8883 915.968,-18.5403"/>
<polygon fill="#cccccc" stroke="#cccccc" points="916.94,-21.911 925.971,-16.3708 915.456,-15.0701 916.94,-21.911"/>
</g>
<!-- IntegerType&#45;&gt;UInt32 -->
<g id="edge34" class="edge">
<path fill="none" stroke="#cccccc" d="M797.698,-115.848C820.03,-101.683 862.538,-75.7363 901,-58 930.91,-44.2073 966.227,-31.7886 992.178,-23.3414"/>
<polygon fill="#cccccc" stroke="#cccccc" points="993.532,-26.5828 1001.98,-20.1934 991.392,-19.9179 993.532,-26.5828"/>
</g>
<!-- IntegerType&#45;&gt;UInt64 -->
<g id="edge35" class="edge">
<path fill="none" stroke="#cccccc" d="M818.76,-118.254C917.413,-97.4657 1187.2,-40.6157 1286.06,-19.7838"/>
<polygon fill="#cccccc" stroke="#cccccc" points="1286.84,-23.1975 1295.9,-17.7107 1285.39,-16.3479 1286.84,-23.1975"/>
</g>
<!-- IntegerType&#45;&gt;UInt8 -->
<g id="edge36" class="edge">
<path fill="none" stroke="#cccccc" d="M818.532,-125.26C899.793,-123.02 1101.33,-114.179 1266,-80 1328.99,-66.9257 1399.66,-41.5784 1440.58,-25.7945"/>
<polygon fill="#cccccc" stroke="#cccccc" points="1442.02,-28.9881 1450.07,-22.0976 1439.48,-22.4653 1442.02,-28.9881"/>
</g>
<!-- UnsignedIntegerType -->
<g id="node15" class="node">
<g id="a_node15"><a xlink:href="/swift-2/protocol/UnsignedIntegerType/" target="_top">
<path fill="#999999" stroke="#999999" d="M1249.73,-80C1249.73,-80 1140.27,-80 1140.27,-80 1136.61,-80 1132.94,-76.3333 1132.94,-72.6667 1132.94,-72.6667 1132.94,-65.3333 1132.94,-65.3333 1132.94,-61.6667 1136.61,-58 1140.27,-58 1140.27,-58 1249.73,-58 1249.73,-58 1253.39,-58 1257.06,-61.6667 1257.06,-65.3333 1257.06,-65.3333 1257.06,-72.6667 1257.06,-72.6667 1257.06,-76.3333 1253.39,-80 1249.73,-80"/>
<text text-anchor="middle" x="1195" y="-65.4" font-family="Helvetica,sans-Serif" font-size="12.00" fill="white">UnsignedIntegerType</text>
</a>
</g>
</g>
<!-- IntegerType&#45;&gt;UnsignedIntegerType -->
<g id="edge37" class="edge">
<path fill="none" stroke="#cccccc" d="M818.651,-121.03C886.798,-111.79 1034.13,-91.8132 1122.89,-79.7775"/>
<polygon fill="#cccccc" stroke="#cccccc" points="1123.45,-83.2343 1132.89,-78.4224 1122.51,-76.2978 1123.45,-83.2343"/>
</g>
<!-- SignedIntegerType&#45;&gt;Int -->
<g id="edge38" class="edge">
<path fill="none" stroke="#cccccc" d="M402.459,-57.9883C426.199,-49.0057 461.259,-35.7398 487.631,-25.7614"/>
<polygon fill="#cccccc" stroke="#cccccc" points="489.156,-28.9263 497.271,-22.1138 486.679,-22.3793 489.156,-28.9263"/>
</g>
<!-- SignedIntegerType&#45;&gt;Int16 -->
<g id="edge39" class="edge">
<path fill="none" stroke="#cccccc" d="M361.161,-57.9883C348.728,-49.5993 330.757,-37.4743 316.389,-27.7804"/>
<polygon fill="#cccccc" stroke="#cccccc" points="318.237,-24.8055 307.99,-22.1138 314.322,-30.6083 318.237,-24.8055"/>
</g>
<!-- SignedIntegerType&#45;&gt;Int32 -->
<g id="edge40" class="edge">
<path fill="none" stroke="#cccccc" d="M431.232,-59.6011C481.046,-51.6817 556.495,-38.8365 630.925,-22.0868"/>
<polygon fill="#cccccc" stroke="#cccccc" points="631.968,-25.4391 640.942,-19.8072 630.415,-18.6136 631.968,-25.4391"/>
</g>
<!-- SignedIntegerType&#45;&gt;Int64 -->
<g id="edge41" class="edge">
<path fill="none" stroke="#cccccc" d="M320.7,-59.1266C248.931,-47.6107 125.633,-27.8266 64.1378,-17.9591"/>
<polygon fill="#cccccc" stroke="#cccccc" points="64.5357,-14.4782 54.1075,-16.3496 63.4266,-21.3898 64.5357,-14.4782"/>
</g>
<!-- SignedIntegerType&#45;&gt;Int8 -->
<g id="edge42" class="edge">
<path fill="none" stroke="#cccccc" d="M340.78,-57.9883C305.626,-47.9952 251.823,-32.7008 216.041,-22.5293"/>
<polygon fill="#cccccc" stroke="#cccccc" points="216.582,-19.0447 206.006,-19.6769 214.668,-25.7779 216.582,-19.0447"/>
</g>
<!-- UnsignedIntegerType&#45;&gt;UInt -->
<g id="edge43" class="edge">
<path fill="none" stroke="#cccccc" d="M1257.43,-59.1266C1340.23,-47.3582 1483.78,-26.955 1551.54,-17.3245"/>
<polygon fill="#cccccc" stroke="#cccccc" points="1552.33,-20.7467 1561.74,-15.8743 1551.35,-13.8164 1552.33,-20.7467"/>
</g>
<!-- UnsignedIntegerType&#45;&gt;UInt16 -->
<g id="edge44" class="edge">
<path fill="none" stroke="#cccccc" d="M1149.61,-57.9503C1108.63,-48.8086 1046.7,-34.8252 993,-22 991.956,-21.7506 990.896,-21.496 989.827,-21.2379"/>
<polygon fill="#cccccc" stroke="#cccccc" points="990.637,-17.8329 980.092,-18.855 988.973,-24.6322 990.637,-17.8329"/>
</g>
<!-- UnsignedIntegerType&#45;&gt;UInt32 -->
<g id="edge45" class="edge">
<path fill="none" stroke="#cccccc" d="M1165.32,-57.9883C1137.51,-48.6044 1095.83,-34.5458 1065.89,-24.4442"/>
<polygon fill="#cccccc" stroke="#cccccc" points="1066.81,-21.0628 1056.22,-21.1826 1064.58,-27.6955 1066.81,-21.0628"/>
</g>
<!-- UnsignedIntegerType&#45;&gt;UInt64 -->
<g id="edge46" class="edge">
<path fill="none" stroke="#cccccc" d="M1217.88,-57.9883C1238.14,-49.1244 1267.94,-36.0897 1290.64,-26.1587"/>
<polygon fill="#cccccc" stroke="#cccccc" points="1292.12,-29.3286 1299.88,-22.1138 1289.32,-22.9155 1292.12,-29.3286"/>
</g>
<!-- UnsignedIntegerType&#45;&gt;UInt8 -->
<g id="edge47" class="edge">
<path fill="none" stroke="#cccccc" d="M1245.06,-57.9883C1300.42,-46.9155 1388.33,-29.3339 1437.88,-19.4249"/>
<polygon fill="#cccccc" stroke="#cccccc" points="1438.72,-22.8252 1447.84,-17.432 1437.35,-15.9612 1438.72,-22.8252"/>
</g>
<!-- _DisallowMixedSignArithmetic -->
<g id="node16" class="node">
<g id="a_node16"><a xlink:href="/swift-2/protocol/_DisallowMixedSignArithmetic/" target="_top">
<path fill="#999999" stroke="#999999" d="M1272.71,-138C1272.71,-138 1117.29,-138 1117.29,-138 1113.62,-138 1109.96,-134.333 1109.96,-130.667 1109.96,-130.667 1109.96,-123.333 1109.96,-123.333 1109.96,-119.667 1113.62,-116 1117.29,-116 1117.29,-116 1272.71,-116 1272.71,-116 1276.38,-116 1280.04,-119.667 1280.04,-123.333 1280.04,-123.333 1280.04,-130.667 1280.04,-130.667 1280.04,-134.333 1276.38,-138 1272.71,-138"/>
<text text-anchor="middle" x="1195" y="-123.4" font-family="Helvetica,sans-Serif" font-size="12.00" fill="white">_DisallowMixedSignArithmetic</text>
</a>
</g>
</g>
<!-- _DisallowMixedSignArithmetic&#45;&gt;UInt -->
<g id="edge48" class="edge">
<path fill="none" stroke="#cccccc" d="M1229.62,-115.983C1303.57,-94.5861 1476.38,-44.5855 1552.22,-22.6428"/>
<polygon fill="#cccccc" stroke="#cccccc" points="1553.19,-26.0037 1561.83,-19.8621 1551.25,-19.2795 1553.19,-26.0037"/>
</g>
<!-- _DisallowMixedSignArithmetic&#45;&gt;UInt16 -->
<g id="edge49" class="edge">
<path fill="none" stroke="#cccccc" d="M1171.33,-115.863C1150.17,-106.721 1118.37,-92.7879 1091,-80 1053.12,-62.2994 1009.97,-40.8194 982.151,-26.801"/>
<polygon fill="#cccccc" stroke="#cccccc" points="983.49,-23.5563 972.986,-22.1721 980.334,-29.8046 983.49,-23.5563"/>
</g>
<!-- _DisallowMixedSignArithmetic&#45;&gt;UInt32 -->
<g id="edge50" class="edge">
<path fill="none" stroke="#cccccc" d="M1179.07,-115.977C1164.59,-106.795 1142.69,-92.7352 1124,-80 1098.56,-62.669 1069.9,-41.9895 1050.77,-28.0218"/>
<polygon fill="#cccccc" stroke="#cccccc" points="1052.84,-25.1966 1042.7,-22.1127 1048.7,-30.8444 1052.84,-25.1966"/>
</g>
<!-- _DisallowMixedSignArithmetic&#45;&gt;UInt64 -->
<g id="edge51" class="edge">
<path fill="none" stroke="#cccccc" d="M1213.86,-115.862C1228.82,-107.346 1249.83,-94.3017 1266,-80 1283.01,-64.9585 1299.33,-44.6934 1310.11,-30.2073"/>
<polygon fill="#cccccc" stroke="#cccccc" points="1313.01,-32.1762 1316.07,-22.0329 1307.35,-28.0539 1313.01,-32.1762"/>
</g>
<!-- _DisallowMixedSignArithmetic&#45;&gt;UInt8 -->
<g id="edge52" class="edge">
<path fill="none" stroke="#cccccc" d="M1219.85,-115.883C1270.08,-95.4329 1383.76,-49.1489 1440.88,-25.8901"/>
<polygon fill="#cccccc" stroke="#cccccc" points="1442.27,-29.1066 1450.21,-22.0941 1439.63,-22.6234 1442.27,-29.1066"/>
</g>
<!-- _DisallowMixedSignArithmetic&#45;&gt;UnsignedIntegerType -->
<g id="edge53" class="edge">
<path fill="none" stroke="#cccccc" d="M1195,-115.988C1195,-108.91 1195,-99.1714 1195,-90.4779"/>
<polygon fill="#cccccc" stroke="#cccccc" points="1198.5,-90.3038 1195,-80.3039 1191.5,-90.3039 1198.5,-90.3038"/>
</g>
<!-- _IntegerType&#45;&gt;Int -->
<g id="edge13" class="edge">
<path fill="none" stroke="#cccccc" d="M766.634,-173.756C723.345,-144.897 600.15,-62.7667 547.898,-27.9319"/>
<polygon fill="#cccccc" stroke="#cccccc" points="549.548,-24.8255 539.286,-22.1906 545.665,-30.6498 549.548,-24.8255"/>
</g>
<!-- _IntegerType&#45;&gt;Int16 -->
<g id="edge14" class="edge">
<path fill="none" stroke="#cccccc" d="M741.971,-182.853C633.433,-179.367 339.542,-167.29 308,-138 279.071,-111.136 283.294,-60.1361 288.43,-31.9579"/>
<polygon fill="#cccccc" stroke="#cccccc" points="291.882,-32.5502 290.449,-22.0527 285.023,-31.1525 291.882,-32.5502"/>
</g>
<!-- _IntegerType&#45;&gt;Int32 -->
<g id="edge15" class="edge">
<path fill="none" stroke="#cccccc" d="M770.076,-173.86C760.173,-165.045 746.119,-151.587 736,-138 710.031,-103.132 687.806,-57.0942 676.331,-31.4251"/>
<polygon fill="#cccccc" stroke="#cccccc" points="679.443,-29.807 672.218,-22.0576 673.033,-32.6211 679.443,-29.807"/>
</g>
<!-- _IntegerType&#45;&gt;Int64 -->
<g id="edge16" class="edge">
<path fill="none" stroke="#cccccc" d="M741.657,-183.723C648.641,-182.431 412.288,-175.401 219,-138 133.568,-121.469 86.1536,-148.113 32,-80 21.4332,-66.7094 21.1379,-46.9645 22.9212,-32.1704"/>
<polygon fill="#cccccc" stroke="#cccccc" points="26.4227,-32.44 24.5543,-22.0112 19.5114,-31.3289 26.4227,-32.44"/>
</g>
<!-- _IntegerType&#45;&gt;Int8 -->
<g id="edge17" class="edge">
<path fill="none" stroke="#cccccc" d="M741.951,-182.367C640.271,-177.884 374.239,-163.961 290,-138 239.052,-122.299 214.086,-124.68 185,-80 175.919,-66.0498 174.996,-46.9382 176.013,-32.528"/>
<polygon fill="#cccccc" stroke="#cccccc" points="179.538,-32.4843 177.126,-22.1676 172.578,-31.7366 179.538,-32.4843"/>
</g>
<!-- _IntegerType&#45;&gt;IntegerType -->
<g id="edge18" class="edge">
<path fill="none" stroke="#cccccc" d="M782,-173.988C782,-166.91 782,-157.171 782,-148.478"/>
<polygon fill="#cccccc" stroke="#cccccc" points="785.5,-148.304 782,-138.304 778.5,-148.304 785.5,-148.304"/>
</g>
<!-- _IntegerType&#45;&gt;UInt -->
<g id="edge19" class="edge">
<path fill="none" stroke="#cccccc" d="M822.221,-182.811C934.409,-179.166 1249.03,-166.612 1348,-138 1434.02,-113.132 1524.86,-55.9556 1566.16,-27.9905"/>
<polygon fill="#cccccc" stroke="#cccccc" points="1568.39,-30.7101 1574.66,-22.1733 1564.43,-24.9337 1568.39,-30.7101"/>
</g>
<!-- _IntegerType&#45;&gt;UInt16 -->
<g id="edge20" class="edge">
<path fill="none" stroke="#cccccc" d="M792.091,-173.848C801.266,-164.58 815.142,-150.466 827,-138 860.383,-102.908 866.374,-91.8658 901,-58 911.233,-47.9921 923.161,-37.3709 933.01,-28.8588"/>
<polygon fill="#cccccc" stroke="#cccccc" points="935.392,-31.4271 940.712,-22.2645 930.839,-26.11 935.392,-31.4271"/>
</g>
<!-- _IntegerType&#45;&gt;UInt32 -->
<g id="edge21" class="edge">
<path fill="none" stroke="#cccccc" d="M797.68,-173.934C811.94,-164.723 833.517,-150.645 852,-138 908.298,-99.4835 973.382,-52.5084 1006.75,-28.2452"/>
<polygon fill="#cccccc" stroke="#cccccc" points="1008.88,-31.0226 1014.9,-22.307 1004.76,-25.3638 1008.88,-31.0226"/>
</g>
<!-- _IntegerType&#45;&gt;UInt64 -->
<g id="edge22" class="edge">
<path fill="none" stroke="#cccccc" d="M822.191,-182.958C935.825,-179.654 1253.52,-167.816 1289,-138 1320.09,-111.877 1324.31,-60.5811 1324.05,-32.1581"/>
<polygon fill="#cccccc" stroke="#cccccc" points="1327.55,-32.0553 1323.76,-22.1607 1320.55,-32.2578 1327.55,-32.0553"/>
</g>
<!-- _IntegerType&#45;&gt;UInt8 -->
<g id="edge23" class="edge">
<path fill="none" stroke="#cccccc" d="M822.25,-183.426C929.977,-181.429 1222.74,-172.858 1312,-138 1373.86,-113.841 1431.73,-58.4463 1458.86,-29.8333"/>
<polygon fill="#cccccc" stroke="#cccccc" points="1461.72,-31.9023 1465.97,-22.1987 1456.59,-27.132 1461.72,-31.9023"/>
</g>
<!-- _IntegerType&#45;&gt;_DisallowMixedSignArithmetic -->
<g id="edge24" class="edge">
<path fill="none" stroke="#cccccc" d="M822.352,-178.529C888.997,-169.492 1023.42,-151.265 1111.28,-139.352"/>
<polygon fill="#cccccc" stroke="#cccccc" points="1111.79,-142.815 1121.23,-138.003 1110.85,-135.879 1111.79,-142.815"/>
</g>
<!-- _SignedIntegerType -->
<g id="node18" class="node">
<g id="a_node18"><a xlink:href="/swift-2/protocol/_SignedIntegerType/" target="_top">
<path fill="#999999" stroke="#999999" d="M427.231,-138C427.231,-138 324.769,-138 324.769,-138 321.102,-138 317.436,-134.333 317.436,-130.667 317.436,-130.667 317.436,-123.333 317.436,-123.333 317.436,-119.667 321.102,-116 324.769,-116 324.769,-116 427.231,-116 427.231,-116 430.898,-116 434.564,-119.667 434.564,-123.333 434.564,-123.333 434.564,-130.667 434.564,-130.667 434.564,-134.333 430.898,-138 427.231,-138"/>
<text text-anchor="middle" x="376" y="-123.4" font-family="Helvetica,sans-Serif" font-size="12.00" fill="white">_SignedIntegerType</text>
</a>
</g>
</g>
<!-- _IntegerType&#45;&gt;_SignedIntegerType -->
<g id="edge25" class="edge">
<path fill="none" stroke="#cccccc" d="M741.96,-178.477C672.754,-168.932 530.001,-149.242 444.68,-137.473"/>
<polygon fill="#cccccc" stroke="#cccccc" points="444.953,-133.978 434.568,-136.078 443.996,-140.912 444.953,-133.978"/>
</g>
<!-- _SignedIntegerType&#45;&gt;Int -->
<g id="edge54" class="edge">
<path fill="none" stroke="#cccccc" d="M390.406,-116C403.491,-106.834 423.248,-92.7839 440,-80 462.228,-63.037 487.042,-42.7801 503.899,-28.8125"/>
<polygon fill="#cccccc" stroke="#cccccc" points="506.481,-31.2171 511.933,-22.1323 502.006,-25.8346 506.481,-31.2171"/>
</g>
<!-- _SignedIntegerType&#45;&gt;Int16 -->
<g id="edge55" class="edge">
<path fill="none" stroke="#cccccc" d="M355.247,-115.896C341.086,-107.987 322.975,-95.7014 312,-80 302.137,-65.8889 297.377,-46.793 295.09,-32.4297"/>
<polygon fill="#cccccc" stroke="#cccccc" points="298.507,-31.5702 293.735,-22.1108 291.567,-32.4813 298.507,-31.5702"/>
</g>
<!-- _SignedIntegerType&#45;&gt;Int32 -->
<g id="edge56" class="edge">
<path fill="none" stroke="#cccccc" d="M401.657,-115.983C453.993,-95.5508 573.137,-49.0356 632.713,-25.7763"/>
<polygon fill="#cccccc" stroke="#cccccc" points="634.045,-29.0137 642.087,-22.1165 631.499,-22.493 634.045,-29.0137"/>
</g>
<!-- _SignedIntegerType&#45;&gt;Int64 -->
<g id="edge57" class="edge">
<path fill="none" stroke="#cccccc" d="M317.568,-124.835C235.237,-122.033 90.6837,-112.49 51,-80 36.8134,-68.3851 31.0039,-47.8046 28.6297,-32.318"/>
<polygon fill="#cccccc" stroke="#cccccc" points="32.0775,-31.6673 27.4374,-22.1426 25.1251,-32.482 32.0775,-31.6673"/>
</g>
<!-- _SignedIntegerType&#45;&gt;Int8 -->
<g id="edge58" class="edge">
<path fill="none" stroke="#cccccc" d="M317.246,-123.963C280.246,-119.702 233.821,-108.466 203,-80 189.679,-67.6968 183.749,-47.5473 181.111,-32.3689"/>
<polygon fill="#cccccc" stroke="#cccccc" points="184.565,-31.797 179.713,-22.3785 177.632,-32.767 184.565,-31.797"/>
</g>
<!-- _SignedIntegerType&#45;&gt;SignedIntegerType -->
<g id="edge59" class="edge">
<path fill="none" stroke="#cccccc" d="M376,-115.988C376,-108.91 376,-99.1714 376,-90.4779"/>
<polygon fill="#cccccc" stroke="#cccccc" points="379.5,-90.3038 376,-80.3039 372.5,-90.3039 379.5,-90.3038"/>
</g>
</g>
</svg>
