<?xml version="1.0" encoding="UTF-8" standalone="no"?>
<!DOCTYPE svg PUBLIC "-//W3C//DTD SVG 1.1//EN"
 "http://www.w3.org/Graphics/SVG/1.1/DTD/svg11.dtd">
<!-- Generated by graphviz version 2.36.0 (20140111.2315)
 -->
<!-- Title: String.UTF16View &#45; Type Hierarchy &#45; SwiftDoc.org Pages: 1 -->
<svg width="419pt" height="485pt"
 viewBox="0.00 0.00 419.40 485.20" xmlns="http://www.w3.org/2000/svg" xmlns:xlink="http://www.w3.org/1999/xlink">
<g id="graph0" class="graph" transform="scale(1 1) rotate(0) translate(7.2 427.6)">
<title>String.UTF16View &#45; Type Hierarchy &#45; SwiftDoc.org</title>
<polygon fill="white" stroke="none" points="-7.2,57.6 -7.2,-427.6 412.2,-427.6 412.2,57.6 -7.2,57.6"/>
<!-- CollectionType -->
<g id="node1" class="node"><title>CollectionType</title>
<g id="a_node1"><a xlink:href="/protocol/CollectionType/" xlink:title="CollectionType">
<path fill="#999999" stroke="#999999" d="M340.704,-196C340.704,-196 267.296,-196 267.296,-196 263.63,-196 259.963,-192.333 259.963,-188.667 259.963,-188.667 259.963,-181.333 259.963,-181.333 259.963,-177.667 263.63,-174 267.296,-174 267.296,-174 340.704,-174 340.704,-174 344.37,-174 348.037,-177.667 348.037,-181.333 348.037,-181.333 348.037,-188.667 348.037,-188.667 348.037,-192.333 344.37,-196 340.704,-196"/>
<text text-anchor="middle" x="304" y="-181.4" font-family="Helvetica,sans-Serif" font-size="12.00" fill="white">CollectionType</text>
</a>
</g>
</g>
<!-- _Sliceable -->
<g id="node11" class="node"><title>_Sliceable</title>
<g id="a_node11"><a xlink:href="/protocol/_Sliceable/" xlink:title="_Sliceable">
<path fill="#999999" stroke="#999999" d="M329.194,-138C329.194,-138 278.806,-138 278.806,-138 275.139,-138 271.473,-134.333 271.473,-130.667 271.473,-130.667 271.473,-123.333 271.473,-123.333 271.473,-119.667 275.139,-116 278.806,-116 278.806,-116 329.194,-116 329.194,-116 332.861,-116 336.527,-119.667 336.527,-123.333 336.527,-123.333 336.527,-130.667 336.527,-130.667 336.527,-134.333 332.861,-138 329.194,-138"/>
<text text-anchor="middle" x="304" y="-123.4" font-family="Helvetica,sans-Serif" font-size="12.00" fill="white">_Sliceable</text>
</a>
</g>
</g>
<!-- CollectionType&#45;&gt;_Sliceable -->
<g id="edge6" class="edge"><title>CollectionType&#45;&gt;_Sliceable</title>
<path fill="none" stroke="#cccccc" d="M304,-173.988C304,-166.91 304,-157.171 304,-148.478"/>
<polygon fill="#cccccc" stroke="#cccccc" points="307.5,-148.304 304,-138.304 300.5,-148.304 307.5,-148.304"/>
</g>
<!-- DebugPrintable -->
<g id="node2" class="node"><title>DebugPrintable</title>
<g id="a_node2"><a xlink:href="/protocol/DebugPrintable/" xlink:title="DebugPrintable">
<path fill="#999999" stroke="#999999" d="M85.7096,-80C85.7096,-80 8.29039,-80 8.29039,-80 4.62372,-80 0.957055,-76.3333 0.957055,-72.6667 0.957055,-72.6667 0.957055,-65.3333 0.957055,-65.3333 0.957055,-61.6667 4.62372,-58 8.29039,-58 8.29039,-58 85.7096,-58 85.7096,-58 89.3763,-58 93.0429,-61.6667 93.0429,-65.3333 93.0429,-65.3333 93.0429,-72.6667 93.0429,-72.6667 93.0429,-76.3333 89.3763,-80 85.7096,-80"/>
<text text-anchor="middle" x="47" y="-65.4" font-family="Helvetica,sans-Serif" font-size="12.00" fill="white">DebugPrintable</text>
</a>
</g>
</g>
<!-- String.UTF16View -->
<g id="node7" class="node"><title>String.UTF16View</title>
<g id="a_node7"><a xlink:href="/type/String.UTF16View/" xlink:title="String.UTF16View">
<polygon fill="#ee543d" stroke="#ee543d" points="234.365,-22 127.635,-22 127.635,-0 234.365,-0 234.365,-22"/>
<text text-anchor="middle" x="181" y="-7.4" font-family="Helvetica,sans-Serif" font-size="12.00" fill="white">String.UTF16View</text>
</a>
</g>
</g>
<!-- DebugPrintable&#45;&gt;String.UTF16View -->
<g id="edge4" class="edge"><title>DebugPrintable&#45;&gt;String.UTF16View</title>
<path fill="none" stroke="#cccccc" d="M70.9565,-57.9883C92.2612,-49.0849 123.635,-35.9733 147.438,-26.0259"/>
<polygon fill="#cccccc" stroke="#cccccc" points="148.922,-29.1991 156.799,-22.1138 146.223,-22.7405 148.922,-29.1991"/>
</g>
<!-- Printable -->
<g id="node3" class="node"><title>Printable</title>
<g id="a_node3"><a xlink:href="/protocol/Printable/" xlink:title="Printable">
<path fill="#999999" stroke="#999999" d="M161.187,-80C161.187,-80 118.813,-80 118.813,-80 115.147,-80 111.48,-76.3333 111.48,-72.6667 111.48,-72.6667 111.48,-65.3333 111.48,-65.3333 111.48,-61.6667 115.147,-58 118.813,-58 118.813,-58 161.187,-58 161.187,-58 164.853,-58 168.52,-61.6667 168.52,-65.3333 168.52,-65.3333 168.52,-72.6667 168.52,-72.6667 168.52,-76.3333 164.853,-80 161.187,-80"/>
<text text-anchor="middle" x="140" y="-65.4" font-family="Helvetica,sans-Serif" font-size="12.00" fill="white">Printable</text>
</a>
</g>
</g>
<!-- Printable&#45;&gt;String.UTF16View -->
<g id="edge3" class="edge"><title>Printable&#45;&gt;String.UTF16View</title>
<path fill="none" stroke="#cccccc" d="M147.33,-57.9883C152.916,-50.3592 160.763,-39.6405 167.477,-30.4702"/>
<polygon fill="#cccccc" stroke="#cccccc" points="170.373,-32.4401 173.456,-22.3039 164.725,-28.3049 170.373,-32.4401"/>
</g>
<!-- Reflectable -->
<g id="node4" class="node"><title>Reflectable</title>
<g id="a_node4"><a xlink:href="/protocol/Reflectable/" xlink:title="Reflectable">
<path fill="#999999" stroke="#999999" d="M249.693,-80C249.693,-80 194.307,-80 194.307,-80 190.64,-80 186.974,-76.3333 186.974,-72.6667 186.974,-72.6667 186.974,-65.3333 186.974,-65.3333 186.974,-61.6667 190.64,-58 194.307,-58 194.307,-58 249.693,-58 249.693,-58 253.36,-58 257.026,-61.6667 257.026,-65.3333 257.026,-65.3333 257.026,-72.6667 257.026,-72.6667 257.026,-76.3333 253.36,-80 249.693,-80"/>
<text text-anchor="middle" x="222" y="-65.4" font-family="Helvetica,sans-Serif" font-size="12.00" fill="white">Reflectable</text>
</a>
</g>
</g>
<!-- Reflectable&#45;&gt;String.UTF16View -->
<g id="edge2" class="edge"><title>Reflectable&#45;&gt;String.UTF16View</title>
<path fill="none" stroke="#cccccc" d="M214.67,-57.9883C209.084,-50.3592 201.237,-39.6405 194.523,-30.4702"/>
<polygon fill="#cccccc" stroke="#cccccc" points="197.275,-28.3049 188.544,-22.3039 191.627,-32.4401 197.275,-28.3049"/>
</g>
<!-- SequenceType -->
<g id="node5" class="node"><title>SequenceType</title>
<g id="a_node5"><a xlink:href="/protocol/SequenceType/" xlink:title="SequenceType">
<path fill="#999999" stroke="#999999" d="M397.718,-254C397.718,-254 322.282,-254 322.282,-254 318.615,-254 314.949,-250.333 314.949,-246.667 314.949,-246.667 314.949,-239.333 314.949,-239.333 314.949,-235.667 318.615,-232 322.282,-232 322.282,-232 397.718,-232 397.718,-232 401.385,-232 405.051,-235.667 405.051,-239.333 405.051,-239.333 405.051,-246.667 405.051,-246.667 405.051,-250.333 401.385,-254 397.718,-254"/>
<text text-anchor="middle" x="360" y="-239.4" font-family="Helvetica,sans-Serif" font-size="12.00" fill="white">SequenceType</text>
</a>
</g>
</g>
<!-- SequenceType&#45;&gt;CollectionType -->
<g id="edge8" class="edge"><title>SequenceType&#45;&gt;CollectionType</title>
<path fill="none" stroke="#cccccc" d="M349.988,-231.988C342.123,-224.123 330.974,-212.974 321.624,-203.624"/>
<polygon fill="#cccccc" stroke="#cccccc" points="323.85,-200.9 314.304,-196.304 318.9,-205.85 323.85,-200.9"/>
</g>
<!-- Sliceable -->
<g id="node6" class="node"><title>Sliceable</title>
<g id="a_node6"><a xlink:href="/protocol/Sliceable/" xlink:title="Sliceable">
<path fill="#999999" stroke="#999999" d="M325.691,-80C325.691,-80 282.309,-80 282.309,-80 278.642,-80 274.975,-76.3333 274.975,-72.6667 274.975,-72.6667 274.975,-65.3333 274.975,-65.3333 274.975,-61.6667 278.642,-58 282.309,-58 282.309,-58 325.691,-58 325.691,-58 329.358,-58 333.025,-61.6667 333.025,-65.3333 333.025,-65.3333 333.025,-72.6667 333.025,-72.6667 333.025,-76.3333 329.358,-80 325.691,-80"/>
<text text-anchor="middle" x="304" y="-65.4" font-family="Helvetica,sans-Serif" font-size="12.00" fill="white">Sliceable</text>
</a>
</g>
</g>
<!-- Sliceable&#45;&gt;String.UTF16View -->
<g id="edge1" class="edge"><title>Sliceable&#45;&gt;String.UTF16View</title>
<path fill="none" stroke="#cccccc" d="M282.01,-57.9883C262.628,-49.164 234.167,-36.206 212.391,-26.2919"/>
<polygon fill="#cccccc" stroke="#cccccc" points="213.766,-23.0721 203.214,-22.1138 210.865,-29.4429 213.766,-23.0721"/>
</g>
<!-- _CollectionType -->
<g id="node8" class="node"><title>_CollectionType</title>
<g id="a_node8"><a xlink:href="/protocol/_CollectionType/" xlink:title="_CollectionType">
<path fill="#999999" stroke="#999999" d="M289.208,-254C289.208,-254 208.792,-254 208.792,-254 205.126,-254 201.459,-250.333 201.459,-246.667 201.459,-246.667 201.459,-239.333 201.459,-239.333 201.459,-235.667 205.126,-232 208.792,-232 208.792,-232 289.208,-232 289.208,-232 292.874,-232 296.541,-235.667 296.541,-239.333 296.541,-239.333 296.541,-246.667 296.541,-246.667 296.541,-250.333 292.874,-254 289.208,-254"/>
<text text-anchor="middle" x="249" y="-239.4" font-family="Helvetica,sans-Serif" font-size="12.00" fill="white">_CollectionType</text>
</a>
</g>
</g>
<!-- _CollectionType&#45;&gt;CollectionType -->
<g id="edge7" class="edge"><title>_CollectionType&#45;&gt;CollectionType</title>
<path fill="none" stroke="#cccccc" d="M258.833,-231.988C266.557,-224.123 277.507,-212.974 286.691,-203.624"/>
<polygon fill="#cccccc" stroke="#cccccc" points="289.37,-205.891 293.88,-196.304 284.376,-200.986 289.37,-205.891"/>
</g>
<!-- _SequenceType -->
<g id="node9" class="node"><title>_SequenceType</title>
<g id="a_node9"><a xlink:href="/protocol/_SequenceType/" xlink:title="_SequenceType">
<path fill="#999999" stroke="#999999" d="M348.724,-370C348.724,-370 267.276,-370 267.276,-370 263.609,-370 259.943,-366.333 259.943,-362.667 259.943,-362.667 259.943,-355.333 259.943,-355.333 259.943,-351.667 263.609,-348 267.276,-348 267.276,-348 348.724,-348 348.724,-348 352.391,-348 356.057,-351.667 356.057,-355.333 356.057,-355.333 356.057,-362.667 356.057,-362.667 356.057,-366.333 352.391,-370 348.724,-370"/>
<text text-anchor="middle" x="308" y="-355.4" font-family="Helvetica,sans-Serif" font-size="12.00" fill="white">_SequenceType</text>
</a>
</g>
</g>
<!-- _SequenceType&#45;&gt;_CollectionType -->
<g id="edge9" class="edge"><title>_SequenceType&#45;&gt;_CollectionType</title>
<path fill="none" stroke="#cccccc" d="M302.764,-347.883C292.948,-328.917 271.633,-287.732 258.989,-263.3"/>
<polygon fill="#cccccc" stroke="#cccccc" points="262.014,-261.53 254.309,-254.258 255.797,-264.748 262.014,-261.53"/>
</g>
<!-- _Sequence_Type -->
<g id="node10" class="node"><title>_Sequence_Type</title>
<g id="a_node10"><a xlink:href="/protocol/_Sequence_Type/" xlink:title="_Sequence_Type">
<path fill="#999999" stroke="#999999" d="M396.228,-312C396.228,-312 307.772,-312 307.772,-312 304.105,-312 300.439,-308.333 300.439,-304.667 300.439,-304.667 300.439,-297.333 300.439,-297.333 300.439,-293.667 304.105,-290 307.772,-290 307.772,-290 396.228,-290 396.228,-290 399.895,-290 403.561,-293.667 403.561,-297.333 403.561,-297.333 403.561,-304.667 403.561,-304.667 403.561,-308.333 399.895,-312 396.228,-312"/>
<text text-anchor="middle" x="352" y="-297.4" font-family="Helvetica,sans-Serif" font-size="12.00" fill="white">_Sequence_Type</text>
</a>
</g>
</g>
<!-- _SequenceType&#45;&gt;_Sequence_Type -->
<g id="edge11" class="edge"><title>_SequenceType&#45;&gt;_Sequence_Type</title>
<path fill="none" stroke="#cccccc" d="M315.866,-347.988C321.922,-340.281 330.456,-329.419 337.71,-320.187"/>
<polygon fill="#cccccc" stroke="#cccccc" points="340.478,-322.329 343.904,-312.304 334.974,-318.005 340.478,-322.329"/>
</g>
<!-- _Sequence_Type&#45;&gt;SequenceType -->
<g id="edge10" class="edge"><title>_Sequence_Type&#45;&gt;SequenceType</title>
<path fill="none" stroke="#cccccc" d="M353.43,-289.988C354.441,-282.91 355.833,-273.171 357.075,-264.478"/>
<polygon fill="#cccccc" stroke="#cccccc" points="360.579,-264.698 358.528,-254.304 353.649,-263.708 360.579,-264.698"/>
</g>
<!-- _Sliceable&#45;&gt;Sliceable -->
<g id="edge5" class="edge"><title>_Sliceable&#45;&gt;Sliceable</title>
<path fill="none" stroke="#cccccc" d="M304,-115.988C304,-108.91 304,-99.1714 304,-90.4779"/>
<polygon fill="#cccccc" stroke="#cccccc" points="307.5,-90.3038 304,-80.3039 300.5,-90.3039 307.5,-90.3038"/>
</g>
</g>
</svg>
