<?xml version="1.0" encoding="UTF-8" standalone="no"?>
<!DOCTYPE svg PUBLIC "-//W3C//DTD SVG 1.1//EN"
 "http://www.w3.org/Graphics/SVG/1.1/DTD/svg11.dtd">
<!-- Generated by graphviz version 2.36.0 (20140111.2315)
 -->
<!-- Title: UnsafeMutablePointer&lt;T&gt; &#45; Type Hierarchy &#45; SwiftDoc.org Pages: 1 -->
<svg width="1143pt" height="427pt"
 viewBox="0.00 0.00 1142.98 427.20" xmlns="http://www.w3.org/2000/svg" xmlns:xlink="http://www.w3.org/1999/xlink">
<g id="graph0" class="graph" transform="scale(1 1) rotate(0) translate(7.2 369.6)">
<title>UnsafeMutablePointer&lt;T&gt; &#45; Type Hierarchy &#45; SwiftDoc.org</title>
<polygon fill="white" stroke="none" points="-7.2,57.6 -7.2,-369.6 1135.78,-369.6 1135.78,57.6 -7.2,57.6"/>
<!-- BidirectionalIndexType -->
<g id="node1" class="node"><title>BidirectionalIndexType</title>
<g id="a_node1"><a xlink:href="/protocol/BidirectionalIndexType/" xlink:title="BidirectionalIndexType">
<path fill="#999999" stroke="#999999" d="M426.868,-138C426.868,-138 311.418,-138 311.418,-138 307.751,-138 304.084,-134.333 304.084,-130.667 304.084,-130.667 304.084,-123.333 304.084,-123.333 304.084,-119.667 307.751,-116 311.418,-116 311.418,-116 426.868,-116 426.868,-116 430.535,-116 434.202,-119.667 434.202,-123.333 434.202,-123.333 434.202,-130.667 434.202,-130.667 434.202,-134.333 430.535,-138 426.868,-138"/>
<text text-anchor="middle" x="369.143" y="-123.4" font-family="Helvetica,sans-Serif" font-size="12.00" fill="white">BidirectionalIndexType</text>
</a>
</g>
</g>
<!-- RandomAccessIndexType -->
<g id="node9" class="node"><title>RandomAccessIndexType</title>
<g id="a_node9"><a xlink:href="/protocol/RandomAccessIndexType/" xlink:title="RandomAccessIndexType">
<path fill="#999999" stroke="#999999" d="M539.368,-80C539.368,-80 404.918,-80 404.918,-80 401.251,-80 397.584,-76.3333 397.584,-72.6667 397.584,-72.6667 397.584,-65.3333 397.584,-65.3333 397.584,-61.6667 401.251,-58 404.918,-58 404.918,-58 539.368,-58 539.368,-58 543.035,-58 546.702,-61.6667 546.702,-65.3333 546.702,-65.3333 546.702,-72.6667 546.702,-72.6667 546.702,-76.3333 543.035,-80 539.368,-80"/>
<text text-anchor="middle" x="472.143" y="-65.4" font-family="Helvetica,sans-Serif" font-size="12.00" fill="white">RandomAccessIndexType</text>
</a>
</g>
</g>
<!-- BidirectionalIndexType&#45;&gt;RandomAccessIndexType -->
<g id="edge16" class="edge"><title>BidirectionalIndexType&#45;&gt;RandomAccessIndexType</title>
<path fill="none" stroke="#cccccc" d="M387.557,-115.988C403.424,-107.362 426.556,-94.785 444.621,-84.9633"/>
<polygon fill="#cccccc" stroke="#cccccc" points="446.427,-87.9653 453.541,-80.1138 443.084,-81.8155 446.427,-87.9653"/>
</g>
<!-- UnsafeMutablePointer&lt;T&gt; -->
<g id="node13" class="node"><title>UnsafeMutablePointer&lt;T&gt;</title>
<g id="a_node13"><a xlink:href="/type/UnsafeMutablePointer/" xlink:title="UnsafeMutablePointer&lt;T&gt;">
<polygon fill="#ee543d" stroke="#ee543d" points="737.203,-22 587.083,-22 587.083,-0 737.203,-0 737.203,-22"/>
<text text-anchor="middle" x="662.143" y="-7.4" font-family="Helvetica,sans-Serif" font-size="12.00" fill="white">UnsafeMutablePointer&lt;T&gt;</text>
</a>
</g>
</g>
<!-- BidirectionalIndexType&#45;&gt;UnsafeMutablePointer&lt;T&gt; -->
<g id="edge2" class="edge"><title>BidirectionalIndexType&#45;&gt;UnsafeMutablePointer&lt;T&gt;</title>
<path fill="none" stroke="#cccccc" d="M368.83,-115.978C368.949,-100.993 371.554,-72.916 388.143,-58 415.407,-33.486 506.916,-21.8651 576.752,-16.4691"/>
<polygon fill="#cccccc" stroke="#cccccc" points="577.175,-19.9475 586.888,-15.7174 576.657,-12.9667 577.175,-19.9475"/>
</g>
<!-- CVarArgType -->
<g id="node2" class="node"><title>CVarArgType</title>
<g id="a_node2"><a xlink:href="/protocol/CVarArgType/" xlink:title="CVarArgType">
<path fill="#999999" stroke="#999999" d="M99.1722,-80C99.1722,-80 33.114,-80 33.114,-80 29.4474,-80 25.7807,-76.3333 25.7807,-72.6667 25.7807,-72.6667 25.7807,-65.3333 25.7807,-65.3333 25.7807,-61.6667 29.4474,-58 33.114,-58 33.114,-58 99.1722,-58 99.1722,-58 102.839,-58 106.506,-61.6667 106.506,-65.3333 106.506,-65.3333 106.506,-72.6667 106.506,-72.6667 106.506,-76.3333 102.839,-80 99.1722,-80"/>
<text text-anchor="middle" x="66.1431" y="-65.4" font-family="Helvetica,sans-Serif" font-size="12.00" fill="white">CVarArgType</text>
</a>
</g>
</g>
<!-- CVarArgType&#45;&gt;UnsafeMutablePointer&lt;T&gt; -->
<g id="edge15" class="edge"><title>CVarArgType&#45;&gt;UnsafeMutablePointer&lt;T&gt;</title>
<path fill="none" stroke="#cccccc" d="M106.623,-60.1897C111.505,-59.3812 116.429,-58.6275 121.143,-58 281.587,-36.6423 470.193,-23.2404 576.998,-16.7304"/>
<polygon fill="#cccccc" stroke="#cccccc" points="577.304,-20.2184 587.074,-16.1219 576.882,-13.2312 577.304,-20.2184"/>
</g>
<!-- Comparable -->
<g id="node3" class="node"><title>Comparable</title>
<g id="a_node3"><a xlink:href="/protocol/Comparable/" xlink:title="Comparable">
<path fill="#999999" stroke="#999999" d="M779.334,-196C779.334,-196 718.952,-196 718.952,-196 715.285,-196 711.618,-192.333 711.618,-188.667 711.618,-188.667 711.618,-181.333 711.618,-181.333 711.618,-177.667 715.285,-174 718.952,-174 718.952,-174 779.334,-174 779.334,-174 783.001,-174 786.668,-177.667 786.668,-181.333 786.668,-181.333 786.668,-188.667 786.668,-188.667 786.668,-192.333 783.001,-196 779.334,-196"/>
<text text-anchor="middle" x="749.143" y="-181.4" font-family="Helvetica,sans-Serif" font-size="12.00" fill="white">Comparable</text>
</a>
</g>
</g>
<!-- Strideable -->
<g id="node12" class="node"><title>Strideable</title>
<g id="a_node12"><a xlink:href="/protocol/Strideable/" xlink:title="Strideable">
<path fill="#999999" stroke="#999999" d="M773.836,-138C773.836,-138 724.45,-138 724.45,-138 720.783,-138 717.117,-134.333 717.117,-130.667 717.117,-130.667 717.117,-123.333 717.117,-123.333 717.117,-119.667 720.783,-116 724.45,-116 724.45,-116 773.836,-116 773.836,-116 777.503,-116 781.169,-119.667 781.169,-123.333 781.169,-123.333 781.169,-130.667 781.169,-130.667 781.169,-134.333 777.503,-138 773.836,-138"/>
<text text-anchor="middle" x="749.143" y="-123.4" font-family="Helvetica,sans-Serif" font-size="12.00" fill="white">Strideable</text>
</a>
</g>
</g>
<!-- Comparable&#45;&gt;Strideable -->
<g id="edge21" class="edge"><title>Comparable&#45;&gt;Strideable</title>
<path fill="none" stroke="#cccccc" d="M749.143,-173.988C749.143,-166.91 749.143,-157.171 749.143,-148.478"/>
<polygon fill="#cccccc" stroke="#cccccc" points="752.643,-148.304 749.143,-138.304 745.643,-148.304 752.643,-148.304"/>
</g>
<!-- Comparable&#45;&gt;UnsafeMutablePointer&lt;T&gt; -->
<g id="edge7" class="edge"><title>Comparable&#45;&gt;UnsafeMutablePointer&lt;T&gt;</title>
<path fill="none" stroke="#cccccc" d="M719.147,-173.892C682.034,-159.571 620.523,-129.468 594.143,-80 582.612,-58.3771 606.657,-39.1956 629.274,-26.764"/>
<polygon fill="#cccccc" stroke="#cccccc" points="631.17,-29.724 638.444,-22.0212 627.954,-23.5063 631.17,-29.724"/>
</g>
<!-- CustomDebugStringConvertible -->
<g id="node4" class="node"><title>CustomDebugStringConvertible</title>
<g id="a_node4"><a xlink:href="/protocol/CustomDebugStringConvertible/" xlink:title="CustomDebugStringConvertible">
<path fill="#999999" stroke="#999999" d="M333.873,-80C333.873,-80 170.414,-80 170.414,-80 166.747,-80 163.08,-76.3333 163.08,-72.6667 163.08,-72.6667 163.08,-65.3333 163.08,-65.3333 163.08,-61.6667 166.747,-58 170.414,-58 170.414,-58 333.873,-58 333.873,-58 337.539,-58 341.206,-61.6667 341.206,-65.3333 341.206,-65.3333 341.206,-72.6667 341.206,-72.6667 341.206,-76.3333 337.539,-80 333.873,-80"/>
<text text-anchor="middle" x="252.143" y="-65.4" font-family="Helvetica,sans-Serif" font-size="12.00" fill="white">CustomDebugStringConvertible</text>
</a>
</g>
</g>
<!-- CustomDebugStringConvertible&#45;&gt;UnsafeMutablePointer&lt;T&gt; -->
<g id="edge12" class="edge"><title>CustomDebugStringConvertible&#45;&gt;UnsafeMutablePointer&lt;T&gt;</title>
<path fill="none" stroke="#cccccc" d="M325.443,-57.9883C396.498,-48.2832 504.162,-33.578 578.523,-23.4212"/>
<polygon fill="#cccccc" stroke="#cccccc" points="579.354,-26.8404 588.788,-22.0192 578.406,-19.9048 579.354,-26.8404"/>
</g>
<!-- Equatable -->
<g id="node5" class="node"><title>Equatable</title>
<g id="a_node5"><a xlink:href="/protocol/Equatable/" xlink:title="Equatable">
<path fill="#999999" stroke="#999999" d="M945.845,-312C945.845,-312 896.441,-312 896.441,-312 892.775,-312 889.108,-308.333 889.108,-304.667 889.108,-304.667 889.108,-297.333 889.108,-297.333 889.108,-293.667 892.775,-290 896.441,-290 896.441,-290 945.845,-290 945.845,-290 949.512,-290 953.178,-293.667 953.178,-297.333 953.178,-297.333 953.178,-304.667 953.178,-304.667 953.178,-308.333 949.512,-312 945.845,-312"/>
<text text-anchor="middle" x="921.143" y="-297.4" font-family="Helvetica,sans-Serif" font-size="12.00" fill="white">Equatable</text>
</a>
</g>
</g>
<!-- Equatable&#45;&gt;Comparable -->
<g id="edge23" class="edge"><title>Equatable&#45;&gt;Comparable</title>
<path fill="none" stroke="#cccccc" d="M905.879,-289.883C875.865,-269.99 808.969,-225.652 773.045,-201.842"/>
<polygon fill="#cccccc" stroke="#cccccc" points="774.889,-198.865 764.62,-196.258 771.022,-204.7 774.889,-198.865"/>
</g>
<!-- Hashable -->
<g id="node7" class="node"><title>Hashable</title>
<g id="a_node7"><a xlink:href="/protocol/Hashable/" xlink:title="Hashable">
<path fill="#999999" stroke="#999999" d="M1110.84,-254C1110.84,-254 1065.45,-254 1065.45,-254 1061.78,-254 1058.12,-250.333 1058.12,-246.667 1058.12,-246.667 1058.12,-239.333 1058.12,-239.333 1058.12,-235.667 1061.78,-232 1065.45,-232 1065.45,-232 1110.84,-232 1110.84,-232 1114.5,-232 1118.17,-235.667 1118.17,-239.333 1118.17,-239.333 1118.17,-246.667 1118.17,-246.667 1118.17,-250.333 1114.5,-254 1110.84,-254"/>
<text text-anchor="middle" x="1088.14" y="-239.4" font-family="Helvetica,sans-Serif" font-size="12.00" fill="white">Hashable</text>
</a>
</g>
</g>
<!-- Equatable&#45;&gt;Hashable -->
<g id="edge24" class="edge"><title>Equatable&#45;&gt;Hashable</title>
<path fill="none" stroke="#cccccc" d="M950.999,-289.988C978.225,-280.859 1018.65,-267.305 1048.56,-257.274"/>
<polygon fill="#cccccc" stroke="#cccccc" points="1049.9,-260.517 1058.26,-254.019 1047.67,-253.88 1049.9,-260.517"/>
</g>
<!-- Equatable&#45;&gt;UnsafeMutablePointer&lt;T&gt; -->
<g id="edge5" class="edge"><title>Equatable&#45;&gt;UnsafeMutablePointer&lt;T&gt;</title>
<path fill="none" stroke="#cccccc" d="M932.702,-289.974C952.584,-271.549 991.143,-230.127 991.143,-186 991.143,-186 991.143,-186 991.143,-126 991.143,-91.16 980.825,-77.7781 952.143,-58 919.727,-35.6473 820.829,-23.521 747.491,-17.4187"/>
<polygon fill="#cccccc" stroke="#cccccc" points="747.572,-13.9139 737.322,-16.5972 747.008,-20.8912 747.572,-13.9139"/>
</g>
<!-- _Incrementable -->
<g id="node14" class="node"><title>_Incrementable</title>
<g id="a_node14"><a xlink:href="/protocol/_Incrementable/" xlink:title="_Incrementable">
<path fill="#999999" stroke="#999999" d="M290.848,-254C290.848,-254 213.438,-254 213.438,-254 209.771,-254 206.105,-250.333 206.105,-246.667 206.105,-246.667 206.105,-239.333 206.105,-239.333 206.105,-235.667 209.771,-232 213.438,-232 213.438,-232 290.848,-232 290.848,-232 294.515,-232 298.182,-235.667 298.182,-239.333 298.182,-239.333 298.182,-246.667 298.182,-246.667 298.182,-250.333 294.515,-254 290.848,-254"/>
<text text-anchor="middle" x="252.143" y="-239.4" font-family="Helvetica,sans-Serif" font-size="12.00" fill="white">_Incrementable</text>
</a>
</g>
</g>
<!-- Equatable&#45;&gt;_Incrementable -->
<g id="edge20" class="edge"><title>Equatable&#45;&gt;_Incrementable</title>
<path fill="none" stroke="#cccccc" d="M888.876,-297.299C782.8,-288.42 443.934,-260.054 308.679,-248.732"/>
<polygon fill="#cccccc" stroke="#cccccc" points="308.788,-245.229 298.531,-247.883 308.204,-252.205 308.788,-245.229"/>
</g>
<!-- ForwardIndexType -->
<g id="node6" class="node"><title>ForwardIndexType</title>
<g id="a_node6"><a xlink:href="/protocol/ForwardIndexType/" xlink:title="ForwardIndexType">
<path fill="#999999" stroke="#999999" d="M299.349,-196C299.349,-196 204.937,-196 204.937,-196 201.27,-196 197.604,-192.333 197.604,-188.667 197.604,-188.667 197.604,-181.333 197.604,-181.333 197.604,-177.667 201.27,-174 204.937,-174 204.937,-174 299.349,-174 299.349,-174 303.016,-174 306.683,-177.667 306.683,-181.333 306.683,-181.333 306.683,-188.667 306.683,-188.667 306.683,-192.333 303.016,-196 299.349,-196"/>
<text text-anchor="middle" x="252.143" y="-181.4" font-family="Helvetica,sans-Serif" font-size="12.00" fill="white">ForwardIndexType</text>
</a>
</g>
</g>
<!-- ForwardIndexType&#45;&gt;BidirectionalIndexType -->
<g id="edge18" class="edge"><title>ForwardIndexType&#45;&gt;BidirectionalIndexType</title>
<path fill="none" stroke="#cccccc" d="M273.06,-173.988C291.332,-165.243 318.085,-152.438 338.724,-142.559"/>
<polygon fill="#cccccc" stroke="#cccccc" points="340.503,-145.588 348.012,-138.114 337.481,-139.274 340.503,-145.588"/>
</g>
<!-- ForwardIndexType&#45;&gt;UnsafeMutablePointer&lt;T&gt; -->
<g id="edge3" class="edge"><title>ForwardIndexType&#45;&gt;UnsafeMutablePointer&lt;T&gt;</title>
<path fill="none" stroke="#cccccc" d="M233.917,-173.932C196.397,-151.999 117.041,-98.6137 154.143,-58 182.04,-27.4632 439.772,-16.998 577.022,-13.572"/>
<polygon fill="#cccccc" stroke="#cccccc" points="577.182,-17.0693 587.095,-13.3278 577.013,-10.0713 577.182,-17.0693"/>
</g>
<!-- Hashable&#45;&gt;UnsafeMutablePointer&lt;T&gt; -->
<g id="edge9" class="edge"><title>Hashable&#45;&gt;UnsafeMutablePointer&lt;T&gt;</title>
<path fill="none" stroke="#cccccc" d="M1093.99,-231.609C1110.52,-200.696 1153.56,-108.341 1108.14,-58 1084.5,-31.7891 870.422,-19.6271 747.665,-14.7647"/>
<polygon fill="#cccccc" stroke="#cccccc" points="747.663,-11.2621 737.535,-14.3718 747.392,-18.2569 747.663,-11.2621"/>
</g>
<!-- NilLiteralConvertible -->
<g id="node8" class="node"><title>NilLiteralConvertible</title>
<g id="a_node8"><a xlink:href="/protocol/NilLiteralConvertible/" xlink:title="NilLiteralConvertible">
<path fill="#999999" stroke="#999999" d="M713.343,-80C713.343,-80 610.943,-80 610.943,-80 607.276,-80 603.609,-76.3333 603.609,-72.6667 603.609,-72.6667 603.609,-65.3333 603.609,-65.3333 603.609,-61.6667 607.276,-58 610.943,-58 610.943,-58 713.343,-58 713.343,-58 717.01,-58 720.677,-61.6667 720.677,-65.3333 720.677,-65.3333 720.677,-72.6667 720.677,-72.6667 720.677,-76.3333 717.01,-80 713.343,-80"/>
<text text-anchor="middle" x="662.143" y="-65.4" font-family="Helvetica,sans-Serif" font-size="12.00" fill="white">NilLiteralConvertible</text>
</a>
</g>
</g>
<!-- NilLiteralConvertible&#45;&gt;UnsafeMutablePointer&lt;T&gt; -->
<g id="edge10" class="edge"><title>NilLiteralConvertible&#45;&gt;UnsafeMutablePointer&lt;T&gt;</title>
<path fill="none" stroke="#cccccc" d="M662.143,-57.9883C662.143,-50.9098 662.143,-41.1714 662.143,-32.4779"/>
<polygon fill="#cccccc" stroke="#cccccc" points="665.643,-32.3038 662.143,-22.3039 658.643,-32.3039 665.643,-32.3038"/>
</g>
<!-- RandomAccessIndexType&#45;&gt;UnsafeMutablePointer&lt;T&gt; -->
<g id="edge1" class="edge"><title>RandomAccessIndexType&#45;&gt;UnsafeMutablePointer&lt;T&gt;</title>
<path fill="none" stroke="#cccccc" d="M506.111,-57.9883C537.491,-48.7397 584.276,-34.9502 618.431,-24.8836"/>
<polygon fill="#cccccc" stroke="#cccccc" points="619.547,-28.2037 628.149,-22.0192 617.568,-21.4892 619.547,-28.2037"/>
</g>
<!-- Reflectable -->
<g id="node10" class="node"><title>Reflectable</title>
<g id="a_node10"><a xlink:href="/protocol/Reflectable/" xlink:title="Reflectable">
<path fill="#999999" stroke="#999999" d="M839.836,-80C839.836,-80 784.45,-80 784.45,-80 780.783,-80 777.117,-76.3333 777.117,-72.6667 777.117,-72.6667 777.117,-65.3333 777.117,-65.3333 777.117,-61.6667 780.783,-58 784.45,-58 784.45,-58 839.836,-58 839.836,-58 843.503,-58 847.169,-61.6667 847.169,-65.3333 847.169,-65.3333 847.169,-72.6667 847.169,-72.6667 847.169,-76.3333 843.503,-80 839.836,-80"/>
<text text-anchor="middle" x="812.143" y="-65.4" font-family="Helvetica,sans-Serif" font-size="12.00" fill="white">Reflectable</text>
</a>
</g>
</g>
<!-- Reflectable&#45;&gt;UnsafeMutablePointer&lt;T&gt; -->
<g id="edge13" class="edge"><title>Reflectable&#45;&gt;UnsafeMutablePointer&lt;T&gt;</title>
<path fill="none" stroke="#cccccc" d="M785.326,-57.9883C761.085,-48.9381 725.197,-35.5399 698.402,-25.5367"/>
<polygon fill="#cccccc" stroke="#cccccc" points="699.573,-22.2379 688.98,-22.0192 697.125,-28.7958 699.573,-22.2379"/>
</g>
<!-- SinkType -->
<g id="node11" class="node"><title>SinkType</title>
<g id="a_node11"><a xlink:href="/protocol/SinkType/" xlink:title="SinkType">
<path fill="#999999" stroke="#999999" d="M917.333,-80C917.333,-80 872.954,-80 872.954,-80 869.287,-80 865.62,-76.3333 865.62,-72.6667 865.62,-72.6667 865.62,-65.3333 865.62,-65.3333 865.62,-61.6667 869.287,-58 872.954,-58 872.954,-58 917.333,-58 917.333,-58 920.999,-58 924.666,-61.6667 924.666,-65.3333 924.666,-65.3333 924.666,-72.6667 924.666,-72.6667 924.666,-76.3333 920.999,-80 917.333,-80"/>
<text text-anchor="middle" x="895.143" y="-65.4" font-family="Helvetica,sans-Serif" font-size="12.00" fill="white">SinkType</text>
</a>
</g>
</g>
<!-- SinkType&#45;&gt;UnsafeMutablePointer&lt;T&gt; -->
<g id="edge14" class="edge"><title>SinkType&#45;&gt;UnsafeMutablePointer&lt;T&gt;</title>
<path fill="none" stroke="#cccccc" d="M865.77,-60.4075C862.524,-59.5866 859.265,-58.7703 856.143,-58 808.635,-46.2777 754.437,-33.4746 715.426,-24.3589"/>
<polygon fill="#cccccc" stroke="#cccccc" points="715.88,-20.871 705.347,-22.0069 714.29,-27.6879 715.88,-20.871"/>
</g>
<!-- Strideable&#45;&gt;RandomAccessIndexType -->
<g id="edge17" class="edge"><title>Strideable&#45;&gt;RandomAccessIndexType</title>
<path fill="none" stroke="#cccccc" d="M717.097,-119.521C671.823,-110.368 588.331,-93.4893 531.538,-82.0076"/>
<polygon fill="#cccccc" stroke="#cccccc" points="532.106,-78.5518 521.611,-80.0007 530.719,-85.4129 532.106,-78.5518"/>
</g>
<!-- Strideable&#45;&gt;UnsafeMutablePointer&lt;T&gt; -->
<g id="edge6" class="edge"><title>Strideable&#45;&gt;UnsafeMutablePointer&lt;T&gt;</title>
<path fill="none" stroke="#cccccc" d="M748.287,-115.846C746.65,-101.679 742.005,-75.7299 729.143,-58 719.876,-45.2256 705.917,-34.8326 693.134,-27.1787"/>
<polygon fill="#cccccc" stroke="#cccccc" points="694.549,-23.958 684.119,-22.0947 691.11,-30.0554 694.549,-23.958"/>
</g>
<!-- _Incrementable&#45;&gt;ForwardIndexType -->
<g id="edge19" class="edge"><title>_Incrementable&#45;&gt;ForwardIndexType</title>
<path fill="none" stroke="#cccccc" d="M252.143,-231.988C252.143,-224.91 252.143,-215.171 252.143,-206.478"/>
<polygon fill="#cccccc" stroke="#cccccc" points="255.643,-206.304 252.143,-196.304 248.643,-206.304 255.643,-206.304"/>
</g>
<!-- _Incrementable&#45;&gt;UnsafeMutablePointer&lt;T&gt; -->
<g id="edge4" class="edge"><title>_Incrementable&#45;&gt;UnsafeMutablePointer&lt;T&gt;</title>
<path fill="none" stroke="#cccccc" d="M217.946,-231.909C136.661,-206.35 -56.0892,-135.559 16.1431,-58 53.5547,-17.8297 409.809,-12.1778 576.685,-11.7565"/>
<polygon fill="#cccccc" stroke="#cccccc" points="576.92,-15.2561 586.913,-11.7366 576.906,-8.25612 576.92,-15.2561"/>
</g>
<!-- _PointerType -->
<g id="node15" class="node"><title>_PointerType</title>
<g id="a_node15"><a xlink:href="/protocol/_PointerType/" xlink:title="_PointerType">
<path fill="#999999" stroke="#999999" d="M1091.85,-80C1091.85,-80 1026.44,-80 1026.44,-80 1022.77,-80 1019.1,-76.3333 1019.1,-72.6667 1019.1,-72.6667 1019.1,-65.3333 1019.1,-65.3333 1019.1,-61.6667 1022.77,-58 1026.44,-58 1026.44,-58 1091.85,-58 1091.85,-58 1095.52,-58 1099.18,-61.6667 1099.18,-65.3333 1099.18,-65.3333 1099.18,-72.6667 1099.18,-72.6667 1099.18,-76.3333 1095.52,-80 1091.85,-80"/>
<text text-anchor="middle" x="1059.14" y="-65.4" font-family="Helvetica,sans-Serif" font-size="12.00" fill="white">_PointerType</text>
</a>
</g>
</g>
<!-- _PointerType&#45;&gt;UnsafeMutablePointer&lt;T&gt; -->
<g id="edge11" class="edge"><title>_PointerType&#45;&gt;UnsafeMutablePointer&lt;T&gt;</title>
<path fill="none" stroke="#cccccc" d="M1019.08,-60.3509C1014.39,-59.5233 1009.66,-58.721 1005.14,-58 917.49,-44.0153 816.775,-30.852 747.264,-22.2194"/>
<polygon fill="#cccccc" stroke="#cccccc" points="747.595,-18.7337 737.241,-20.9791 746.735,-25.6807 747.595,-18.7337"/>
</g>
<!-- _Strideable -->
<g id="node16" class="node"><title>_Strideable</title>
<g id="a_node16"><a xlink:href="/protocol/_Strideable/" xlink:title="_Strideable">
<path fill="#999999" stroke="#999999" d="M911.843,-196C911.843,-196 856.443,-196 856.443,-196 852.777,-196 849.11,-192.333 849.11,-188.667 849.11,-188.667 849.11,-181.333 849.11,-181.333 849.11,-177.667 852.777,-174 856.443,-174 856.443,-174 911.843,-174 911.843,-174 915.51,-174 919.176,-177.667 919.176,-181.333 919.176,-181.333 919.176,-188.667 919.176,-188.667 919.176,-192.333 915.51,-196 911.843,-196"/>
<text text-anchor="middle" x="884.143" y="-181.4" font-family="Helvetica,sans-Serif" font-size="12.00" fill="white">_Strideable</text>
</a>
</g>
</g>
<!-- _Strideable&#45;&gt;Strideable -->
<g id="edge22" class="edge"><title>_Strideable&#45;&gt;Strideable</title>
<path fill="none" stroke="#cccccc" d="M860.008,-173.988C838.544,-165.085 806.936,-151.973 782.956,-142.026"/>
<polygon fill="#cccccc" stroke="#cccccc" points="784.103,-138.713 773.525,-138.114 781.42,-145.178 784.103,-138.713"/>
</g>
<!-- _Strideable&#45;&gt;UnsafeMutablePointer&lt;T&gt; -->
<g id="edge8" class="edge"><title>_Strideable&#45;&gt;UnsafeMutablePointer&lt;T&gt;</title>
<path fill="none" stroke="#cccccc" d="M894.5,-173.698C916.487,-150.594 963.432,-93.8629 933.143,-58 909.665,-30.2003 817.991,-19.1977 747.702,-14.8451"/>
<polygon fill="#cccccc" stroke="#cccccc" points="747.684,-11.3382 737.497,-14.2499 747.276,-18.3263 747.684,-11.3382"/>
</g>
</g>
</svg>
