<?xml version="1.0" encoding="UTF-8" standalone="no"?>
<!DOCTYPE svg PUBLIC "-//W3C//DTD SVG 1.1//EN"
 "http://www.w3.org/Graphics/SVG/1.1/DTD/svg11.dtd">
<!-- Generated by graphviz version 2.36.0 (20140111.2315)
 -->
<!-- Title: UnsafeMutablePointer&lt;T&gt; &#45; Type Hierarchy &#45; SwiftDoc.org Pages: 1 -->
<svg width="1143pt" height="427pt"
 viewBox="0.00 0.00 1142.98 427.20" xmlns="http://www.w3.org/2000/svg" xmlns:xlink="http://www.w3.org/1999/xlink">
<g id="graph0" class="graph" transform="scale(1 1) rotate(0) translate(7.2 369.6)">
<g transform="translate(0 -369.6)">
<g>
    <path fill="#666666" d="M13.846,10.832c-0.336-0.464-0.792-0.844-1.368-1.14s-1.224-0.444-1.944-0.444
        c-0.384,0-0.772,0.052-1.164,0.156C8.977,9.509,8.622,9.677,8.301,9.908c-0.32,0.232-0.58,0.52-0.78,0.864
        c-0.2,0.344-0.3,0.756-0.3,1.236c0,0.464,0.092,0.852,0.276,1.164c0.184,0.312,0.432,0.576,0.744,0.792s0.68,0.4,1.104,0.552
        c0.423,0.152,0.876,0.309,1.356,0.468c0.576,0.177,1.16,0.376,1.752,0.601c0.592,0.224,1.128,0.52,1.608,0.888
        s0.872,0.828,1.176,1.38s0.456,1.252,0.456,2.101c0,0.88-0.164,1.644-0.492,2.292c-0.328,0.647-0.765,1.184-1.308,1.607
        c-0.544,0.424-1.172,0.74-1.884,0.948s-1.444,0.312-2.196,0.312c-1.072,0-2.108-0.208-3.108-0.624
        c-1-0.415-1.828-1.031-2.484-1.848l1.848-1.56c0.4,0.592,0.936,1.071,1.608,1.439c0.672,0.368,1.399,0.552,2.184,0.552
        c0.4,0,0.8-0.056,1.2-0.168c0.4-0.111,0.764-0.288,1.092-0.527c0.328-0.24,0.596-0.54,0.804-0.9
        c0.208-0.36,0.312-0.796,0.312-1.308s-0.108-0.94-0.324-1.284c-0.216-0.344-0.508-0.636-0.876-0.876s-0.796-0.444-1.284-0.612
        c-0.488-0.168-1.004-0.34-1.548-0.516c-0.544-0.16-1.08-0.356-1.608-0.588c-0.528-0.232-1-0.528-1.416-0.889
        c-0.416-0.359-0.752-0.804-1.008-1.332c-0.256-0.527-0.384-1.184-0.384-1.968c0-0.848,0.172-1.576,0.516-2.184
        c0.344-0.608,0.792-1.112,1.344-1.512c0.552-0.4,1.176-0.692,1.872-0.876c0.696-0.184,1.396-0.276,2.1-0.276
        c0.992,0,1.92,0.176,2.784,0.528c0.864,0.352,1.56,0.824,2.088,1.416L13.846,10.832z"/>
    <path fill="#666666" d="M18.813,13.304l2.568,8.688h0.048l2.712-8.688h2.376l2.76,8.688h0.048l2.568-8.688h2.376L30.501,24.68
        h-2.352l-2.808-8.544h-0.048l-2.784,8.544h-2.352l-3.792-11.376H18.813z"/>
    <path fill="#666666" d="M38.685,9.2c0,0.416-0.147,0.76-0.44,1.032c-0.294,0.272-0.647,0.408-1.06,0.408s-0.762-0.14-1.047-0.42
        c-0.286-0.28-0.429-0.62-0.429-1.02c0-0.416,0.143-0.764,0.429-1.044c0.286-0.28,0.635-0.42,1.047-0.42s0.766,0.14,1.06,0.42
        C38.538,8.437,38.685,8.784,38.685,9.2z M38.325,24.68h-2.256V13.304h2.256V24.68z"/>
    <path fill="#666666" d="M47.613,15.152h-2.64v9.528h-2.256v-9.528h-2.256v-1.848h2.256v-2.376c0-0.672,0.076-1.292,0.228-1.86
        c0.152-0.568,0.4-1.06,0.744-1.476c0.344-0.416,0.784-0.744,1.32-0.984c0.536-0.24,1.188-0.36,1.956-0.36
        c0.544,0,1.016,0.056,1.416,0.168l-0.264,1.944c-0.176-0.048-0.352-0.088-0.528-0.12c-0.176-0.032-0.376-0.048-0.6-0.048
        c-0.432,0-0.78,0.076-1.044,0.228c-0.264,0.152-0.468,0.356-0.612,0.612s-0.24,0.548-0.288,0.876
        c-0.048,0.328-0.072,0.668-0.072,1.02v2.376h2.64V15.152z"/>
    <path fill="#666666" d="M54.909,15.152h-3.024v5.91c0,0.687,0.128,1.177,0.384,1.472c0.256,0.295,0.664,0.442,1.224,0.442
        c0.208,0,0.432-0.021,0.672-0.065c0.24-0.044,0.456-0.11,0.648-0.198l0.072,1.848c-0.272,0.096-0.572,0.172-0.9,0.229
        c-0.328,0.056-0.668,0.084-1.02,0.084c-1.072,0-1.892-0.296-2.46-0.889c-0.568-0.592-0.852-1.479-0.852-2.664v-6.168h-2.184
        v-1.848h2.184V10.04h2.232v3.264h3.024V15.152z"/>
    <path fill="#666666" d="M57.356,7.688h5.832c1.088,0,2.176,0.16,3.264,0.48c1.088,0.32,2.072,0.824,2.952,1.512
        s1.592,1.568,2.136,2.64c0.544,1.072,0.816,2.36,0.816,3.864c0,1.456-0.272,2.716-0.816,3.78s-1.256,1.943-2.136,2.64
        s-1.864,1.216-2.952,1.561c-1.088,0.344-2.176,0.516-3.264,0.516h-5.832V7.688z M59.732,22.593h2.976
        c1.024,0,1.972-0.145,2.844-0.432c0.872-0.288,1.624-0.704,2.256-1.248c0.632-0.544,1.124-1.216,1.476-2.017
        c0.352-0.8,0.528-1.704,0.528-2.712c0-1.056-0.176-1.983-0.528-2.784c-0.353-0.8-0.844-1.468-1.476-2.004
        c-0.632-0.536-1.384-0.944-2.256-1.224s-1.82-0.42-2.844-0.42h-2.976V22.593z"/>
    <path fill="#666666" d="M86.06,18.969c0,0.88-0.156,1.688-0.468,2.424c-0.312,0.736-0.744,1.372-1.296,1.908
        c-0.552,0.536-1.204,0.952-1.956,1.248c-0.752,0.296-1.56,0.443-2.424,0.443c-0.864,0-1.672-0.147-2.424-0.443
        c-0.752-0.296-1.4-0.712-1.944-1.248c-0.544-0.536-0.972-1.172-1.284-1.908c-0.312-0.735-0.468-1.544-0.468-2.424
        s0.156-1.684,0.468-2.412c0.312-0.728,0.74-1.356,1.284-1.884c0.543-0.528,1.191-0.939,1.944-1.236
        c0.752-0.296,1.56-0.444,2.424-0.444c0.864,0,1.672,0.148,2.424,0.444c0.752,0.297,1.404,0.708,1.956,1.236
        c0.552,0.527,0.984,1.156,1.296,1.884C85.904,17.285,86.06,18.089,86.06,18.969z M83.708,18.98c0-0.542-0.084-1.061-0.252-1.556
        c-0.169-0.494-0.414-0.929-0.734-1.304s-0.718-0.674-1.192-0.897s-1.015-0.335-1.625-0.335c-0.61,0-1.152,0.111-1.625,0.335
        c-0.474,0.224-0.871,0.522-1.191,0.897c-0.321,0.375-0.566,0.81-0.734,1.304C76.184,17.92,76.1,18.438,76.1,18.98
        c0,0.543,0.084,1.062,0.253,1.556c0.168,0.495,0.413,0.934,0.734,1.316c0.321,0.383,0.718,0.686,1.191,0.909
        c0.473,0.224,1.015,0.335,1.625,0.335c0.61,0,1.151-0.111,1.625-0.335s0.871-0.526,1.192-0.909s0.565-0.821,0.734-1.316
        C83.624,20.042,83.708,19.523,83.708,18.98z"/>
    <path fill="#666666" d="M96.428,16.184c-0.24-0.368-0.6-0.676-1.08-0.924s-0.992-0.372-1.536-0.372
        c-0.592,0-1.116,0.112-1.572,0.336c-0.456,0.225-0.844,0.524-1.164,0.9c-0.32,0.376-0.564,0.812-0.732,1.308
        s-0.252,1.017-0.252,1.56c0,0.545,0.084,1.064,0.252,1.561s0.412,0.933,0.732,1.308c0.32,0.376,0.712,0.677,1.176,0.9
        c0.464,0.225,0.992,0.336,1.584,0.336c0.576,0,1.1-0.111,1.572-0.336c0.472-0.224,0.86-0.528,1.164-0.912l1.512,1.368
        c-0.48,0.561-1.08,0.996-1.8,1.308c-0.72,0.312-1.536,0.468-2.448,0.468c-0.88,0-1.692-0.144-2.436-0.432
        c-0.744-0.288-1.388-0.691-1.932-1.212c-0.544-0.52-0.972-1.147-1.284-1.884s-0.468-1.561-0.468-2.473
        c0-0.896,0.152-1.711,0.456-2.447c0.304-0.736,0.728-1.368,1.272-1.896c0.543-0.527,1.188-0.936,1.932-1.224
        c0.744-0.288,1.548-0.433,2.412-0.433c0.8,0,1.596,0.16,2.388,0.48s1.419,0.784,1.884,1.392L96.428,16.184z"/>
    <path fill="#666666" d="M103.1,23.24c0,0.417-0.152,0.784-0.456,1.104c-0.304,0.32-0.688,0.479-1.152,0.479
        c-0.448,0-0.828-0.155-1.14-0.468c-0.312-0.312-0.468-0.676-0.468-1.092c0-0.432,0.152-0.804,0.456-1.116
        c0.304-0.312,0.688-0.468,1.152-0.468c0.464,0,0.848,0.152,1.152,0.456C102.947,22.44,103.1,22.808,103.1,23.24z"/>
    <path fill="#666666" d="M116.635,18.969c0,0.88-0.156,1.688-0.468,2.424c-0.312,0.736-0.744,1.372-1.296,1.908
        c-0.552,0.536-1.204,0.952-1.956,1.248c-0.752,0.296-1.56,0.443-2.424,0.443c-0.864,0-1.672-0.147-2.424-0.443
        c-0.752-0.296-1.4-0.712-1.944-1.248c-0.544-0.536-0.972-1.172-1.284-1.908c-0.312-0.735-0.468-1.544-0.468-2.424
        s0.156-1.684,0.468-2.412c0.312-0.728,0.74-1.356,1.284-1.884c0.543-0.528,1.191-0.939,1.944-1.236
        c0.752-0.296,1.56-0.444,2.424-0.444c0.864,0,1.672,0.148,2.424,0.444c0.752,0.297,1.404,0.708,1.956,1.236
        c0.552,0.527,0.984,1.156,1.296,1.884C116.479,17.285,116.635,18.089,116.635,18.969z M114.283,18.98
        c0-0.542-0.084-1.061-0.252-1.556c-0.169-0.494-0.414-0.929-0.734-1.304s-0.718-0.674-1.192-0.897s-1.015-0.335-1.625-0.335
        c-0.61,0-1.152,0.111-1.625,0.335c-0.474,0.224-0.871,0.522-1.191,0.897c-0.321,0.375-0.566,0.81-0.734,1.304
        c-0.169,0.495-0.253,1.014-0.253,1.556c0,0.543,0.084,1.062,0.253,1.556c0.168,0.495,0.413,0.934,0.734,1.316
        c0.321,0.383,0.718,0.686,1.191,0.909c0.473,0.224,1.015,0.335,1.625,0.335c0.61,0,1.151-0.111,1.625-0.335
        s0.871-0.526,1.192-0.909s0.565-0.821,0.734-1.316C114.199,20.042,114.283,19.523,114.283,18.98z"/>
    <path fill="#666666" d="M119.251,14.577c-0.016-0.48-0.04-0.904-0.072-1.272h2.136c0.032,0.288,0.056,0.62,0.072,0.996
        c0.016,0.376,0.024,0.684,0.024,0.924h0.072c0.32-0.672,0.788-1.212,1.404-1.62c0.616-0.408,1.308-0.612,2.076-0.612
        c0.352,0,0.648,0.033,0.888,0.097l-0.096,2.088c-0.32-0.08-0.664-0.12-1.032-0.12c-0.544,0-1.016,0.101-1.416,0.3
        c-0.4,0.2-0.732,0.468-0.996,0.805c-0.264,0.336-0.46,0.724-0.588,1.163c-0.128,0.44-0.192,0.9-0.192,1.381v5.976h-2.256v-8.928
        C119.275,15.449,119.267,15.056,119.251,14.577z"/>
    <path fill="#666666" d="M128.419,26.625c0.496,0.56,1.116,1.008,1.86,1.344c0.744,0.336,1.508,0.504,2.292,0.504
        c0.752,0,1.384-0.108,1.896-0.324s0.924-0.512,1.236-0.888s0.536-0.82,0.672-1.332c0.136-0.513,0.204-1.064,0.204-1.656v-1.464
        h-0.048c-0.416,0.641-0.984,1.128-1.704,1.464c-0.72,0.336-1.488,0.504-2.304,0.504c-0.864,0-1.652-0.151-2.364-0.456
        c-0.712-0.304-1.316-0.72-1.812-1.248c-0.496-0.527-0.88-1.147-1.152-1.859s-0.408-1.477-0.408-2.292
        c0-0.816,0.136-1.584,0.408-2.305c0.272-0.72,0.656-1.348,1.152-1.884c0.496-0.535,1.096-0.96,1.8-1.271
        c0.704-0.312,1.488-0.469,2.352-0.469c0.816,0,1.596,0.177,2.34,0.528c0.744,0.353,1.332,0.888,1.764,1.608h0.048v-1.824h2.184
        v10.8c0,0.832-0.104,1.628-0.312,2.388c-0.208,0.76-0.56,1.433-1.056,2.017s-1.144,1.052-1.944,1.404
        c-0.8,0.352-1.792,0.527-2.976,0.527c-0.992,0-1.988-0.18-2.988-0.54c-1-0.359-1.86-0.868-2.58-1.523L128.419,26.625z
         M129.091,18.873c0,0.527,0.084,1.031,0.253,1.512c0.168,0.479,0.417,0.904,0.746,1.271c0.329,0.369,0.726,0.664,1.192,0.889
        c0.465,0.224,0.995,0.336,1.589,0.336c0.577,0,1.107-0.104,1.589-0.312c0.481-0.207,0.891-0.491,1.228-0.852
        s0.598-0.784,0.782-1.272c0.185-0.487,0.277-1.012,0.277-1.571c0-0.544-0.093-1.057-0.277-1.536
        c-0.185-0.48-0.449-0.904-0.794-1.272c-0.345-0.367-0.755-0.66-1.228-0.876c-0.474-0.216-1-0.324-1.577-0.324
        c-0.594,0-1.124,0.108-1.589,0.324c-0.466,0.216-0.863,0.504-1.192,0.864s-0.578,0.784-0.746,1.271
        C129.175,17.812,129.091,18.329,129.091,18.873z"/>
</g>
<g><a xlink:href="/" pointer-events="all" target="_top"><polygon fill="none" points="0,0 145,0 145,35 0,35 0,0"/></a></g>

</g>


<!-- BidirectionalIndexType -->
<g id="node1" class="node">
<g id="a_node1"><a xlink:href="/swift-2/protocol/BidirectionalIndexType/" target="_top">
<path fill="#999999" stroke="#999999" d="M426.868,-138C426.868,-138 311.418,-138 311.418,-138 307.751,-138 304.084,-134.333 304.084,-130.667 304.084,-130.667 304.084,-123.333 304.084,-123.333 304.084,-119.667 307.751,-116 311.418,-116 311.418,-116 426.868,-116 426.868,-116 430.535,-116 434.202,-119.667 434.202,-123.333 434.202,-123.333 434.202,-130.667 434.202,-130.667 434.202,-134.333 430.535,-138 426.868,-138"/>
<text text-anchor="middle" x="369.143" y="-123.4" font-family="Helvetica,sans-Serif" font-size="12.00" fill="white">BidirectionalIndexType</text>
</a>
</g>
</g>
<!-- RandomAccessIndexType -->
<g id="node9" class="node">
<g id="a_node9"><a xlink:href="/swift-2/protocol/RandomAccessIndexType/" target="_top">
<path fill="#999999" stroke="#999999" d="M539.368,-80C539.368,-80 404.918,-80 404.918,-80 401.251,-80 397.584,-76.3333 397.584,-72.6667 397.584,-72.6667 397.584,-65.3333 397.584,-65.3333 397.584,-61.6667 401.251,-58 404.918,-58 404.918,-58 539.368,-58 539.368,-58 543.035,-58 546.702,-61.6667 546.702,-65.3333 546.702,-65.3333 546.702,-72.6667 546.702,-72.6667 546.702,-76.3333 543.035,-80 539.368,-80"/>
<text text-anchor="middle" x="472.143" y="-65.4" font-family="Helvetica,sans-Serif" font-size="12.00" fill="white">RandomAccessIndexType</text>
</a>
</g>
</g>
<!-- BidirectionalIndexType&#45;&gt;RandomAccessIndexType -->
<g id="edge16" class="edge">
<path fill="none" stroke="#cccccc" d="M387.557,-115.988C403.424,-107.362 426.556,-94.785 444.621,-84.9633"/>
<polygon fill="#cccccc" stroke="#cccccc" points="446.427,-87.9653 453.541,-80.1138 443.084,-81.8155 446.427,-87.9653"/>
</g>
<!-- UnsafeMutablePointer&lt;T&gt; -->
<g id="node13" class="node">
<g id="a_node13"><a xlink:href="/swift-2/type/UnsafeMutablePointer/" target="_top">
<polygon fill="#ee543d" stroke="#ee543d" points="737.203,-22 587.083,-22 587.083,-0 737.203,-0 737.203,-22"/>
<text text-anchor="middle" x="662.143" y="-7.4" font-family="Helvetica,sans-Serif" font-size="12.00" fill="white">UnsafeMutablePointer&lt;T&gt;</text>
</a>
</g>
</g>
<!-- BidirectionalIndexType&#45;&gt;UnsafeMutablePointer&lt;T&gt; -->
<g id="edge2" class="edge">
<path fill="none" stroke="#cccccc" d="M368.83,-115.978C368.949,-100.993 371.554,-72.916 388.143,-58 415.407,-33.486 506.916,-21.8651 576.752,-16.4691"/>
<polygon fill="#cccccc" stroke="#cccccc" points="577.175,-19.9475 586.888,-15.7174 576.657,-12.9667 577.175,-19.9475"/>
</g>
<!-- CVarArgType -->
<g id="node2" class="node">
<g id="a_node2"><a xlink:href="/swift-2/protocol/CVarArgType/" target="_top">
<path fill="#999999" stroke="#999999" d="M99.1722,-80C99.1722,-80 33.114,-80 33.114,-80 29.4474,-80 25.7807,-76.3333 25.7807,-72.6667 25.7807,-72.6667 25.7807,-65.3333 25.7807,-65.3333 25.7807,-61.6667 29.4474,-58 33.114,-58 33.114,-58 99.1722,-58 99.1722,-58 102.839,-58 106.506,-61.6667 106.506,-65.3333 106.506,-65.3333 106.506,-72.6667 106.506,-72.6667 106.506,-76.3333 102.839,-80 99.1722,-80"/>
<text text-anchor="middle" x="66.1431" y="-65.4" font-family="Helvetica,sans-Serif" font-size="12.00" fill="white">CVarArgType</text>
</a>
</g>
</g>
<!-- CVarArgType&#45;&gt;UnsafeMutablePointer&lt;T&gt; -->
<g id="edge15" class="edge">
<path fill="none" stroke="#cccccc" d="M106.623,-60.1897C111.505,-59.3812 116.429,-58.6275 121.143,-58 281.587,-36.6423 470.193,-23.2404 576.998,-16.7304"/>
<polygon fill="#cccccc" stroke="#cccccc" points="577.304,-20.2184 587.074,-16.1219 576.882,-13.2312 577.304,-20.2184"/>
</g>
<!-- Comparable -->
<g id="node3" class="node">
<g id="a_node3"><a xlink:href="/swift-2/protocol/Comparable/" target="_top">
<path fill="#999999" stroke="#999999" d="M779.334,-196C779.334,-196 718.952,-196 718.952,-196 715.285,-196 711.618,-192.333 711.618,-188.667 711.618,-188.667 711.618,-181.333 711.618,-181.333 711.618,-177.667 715.285,-174 718.952,-174 718.952,-174 779.334,-174 779.334,-174 783.001,-174 786.668,-177.667 786.668,-181.333 786.668,-181.333 786.668,-188.667 786.668,-188.667 786.668,-192.333 783.001,-196 779.334,-196"/>
<text text-anchor="middle" x="749.143" y="-181.4" font-family="Helvetica,sans-Serif" font-size="12.00" fill="white">Comparable</text>
</a>
</g>
</g>
<!-- Strideable -->
<g id="node12" class="node">
<g id="a_node12"><a xlink:href="/swift-2/protocol/Strideable/" target="_top">
<path fill="#999999" stroke="#999999" d="M773.836,-138C773.836,-138 724.45,-138 724.45,-138 720.783,-138 717.117,-134.333 717.117,-130.667 717.117,-130.667 717.117,-123.333 717.117,-123.333 717.117,-119.667 720.783,-116 724.45,-116 724.45,-116 773.836,-116 773.836,-116 777.503,-116 781.169,-119.667 781.169,-123.333 781.169,-123.333 781.169,-130.667 781.169,-130.667 781.169,-134.333 777.503,-138 773.836,-138"/>
<text text-anchor="middle" x="749.143" y="-123.4" font-family="Helvetica,sans-Serif" font-size="12.00" fill="white">Strideable</text>
</a>
</g>
</g>
<!-- Comparable&#45;&gt;Strideable -->
<g id="edge21" class="edge">
<path fill="none" stroke="#cccccc" d="M749.143,-173.988C749.143,-166.91 749.143,-157.171 749.143,-148.478"/>
<polygon fill="#cccccc" stroke="#cccccc" points="752.643,-148.304 749.143,-138.304 745.643,-148.304 752.643,-148.304"/>
</g>
<!-- Comparable&#45;&gt;UnsafeMutablePointer&lt;T&gt; -->
<g id="edge7" class="edge">
<path fill="none" stroke="#cccccc" d="M719.147,-173.892C682.034,-159.571 620.523,-129.468 594.143,-80 582.612,-58.3771 606.657,-39.1956 629.274,-26.764"/>
<polygon fill="#cccccc" stroke="#cccccc" points="631.17,-29.724 638.444,-22.0212 627.954,-23.5063 631.17,-29.724"/>
</g>
<!-- CustomDebugStringConvertible -->
<g id="node4" class="node">
<g id="a_node4"><a xlink:href="/swift-2/protocol/CustomDebugStringConvertible/" target="_top">
<path fill="#999999" stroke="#999999" d="M333.873,-80C333.873,-80 170.414,-80 170.414,-80 166.747,-80 163.08,-76.3333 163.08,-72.6667 163.08,-72.6667 163.08,-65.3333 163.08,-65.3333 163.08,-61.6667 166.747,-58 170.414,-58 170.414,-58 333.873,-58 333.873,-58 337.539,-58 341.206,-61.6667 341.206,-65.3333 341.206,-65.3333 341.206,-72.6667 341.206,-72.6667 341.206,-76.3333 337.539,-80 333.873,-80"/>
<text text-anchor="middle" x="252.143" y="-65.4" font-family="Helvetica,sans-Serif" font-size="12.00" fill="white">CustomDebugStringConvertible</text>
</a>
</g>
</g>
<!-- CustomDebugStringConvertible&#45;&gt;UnsafeMutablePointer&lt;T&gt; -->
<g id="edge12" class="edge">
<path fill="none" stroke="#cccccc" d="M325.443,-57.9883C396.498,-48.2832 504.162,-33.578 578.523,-23.4212"/>
<polygon fill="#cccccc" stroke="#cccccc" points="579.354,-26.8404 588.788,-22.0192 578.406,-19.9048 579.354,-26.8404"/>
</g>
<!-- Equatable -->
<g id="node5" class="node">
<g id="a_node5"><a xlink:href="/swift-2/protocol/Equatable/" target="_top">
<path fill="#999999" stroke="#999999" d="M945.845,-312C945.845,-312 896.441,-312 896.441,-312 892.775,-312 889.108,-308.333 889.108,-304.667 889.108,-304.667 889.108,-297.333 889.108,-297.333 889.108,-293.667 892.775,-290 896.441,-290 896.441,-290 945.845,-290 945.845,-290 949.512,-290 953.178,-293.667 953.178,-297.333 953.178,-297.333 953.178,-304.667 953.178,-304.667 953.178,-308.333 949.512,-312 945.845,-312"/>
<text text-anchor="middle" x="921.143" y="-297.4" font-family="Helvetica,sans-Serif" font-size="12.00" fill="white">Equatable</text>
</a>
</g>
</g>
<!-- Equatable&#45;&gt;Comparable -->
<g id="edge23" class="edge">
<path fill="none" stroke="#cccccc" d="M905.879,-289.883C875.865,-269.99 808.969,-225.652 773.045,-201.842"/>
<polygon fill="#cccccc" stroke="#cccccc" points="774.889,-198.865 764.62,-196.258 771.022,-204.7 774.889,-198.865"/>
</g>
<!-- Hashable -->
<g id="node7" class="node">
<g id="a_node7"><a xlink:href="/swift-2/protocol/Hashable/" target="_top">
<path fill="#999999" stroke="#999999" d="M1110.84,-254C1110.84,-254 1065.45,-254 1065.45,-254 1061.78,-254 1058.12,-250.333 1058.12,-246.667 1058.12,-246.667 1058.12,-239.333 1058.12,-239.333 1058.12,-235.667 1061.78,-232 1065.45,-232 1065.45,-232 1110.84,-232 1110.84,-232 1114.5,-232 1118.17,-235.667 1118.17,-239.333 1118.17,-239.333 1118.17,-246.667 1118.17,-246.667 1118.17,-250.333 1114.5,-254 1110.84,-254"/>
<text text-anchor="middle" x="1088.14" y="-239.4" font-family="Helvetica,sans-Serif" font-size="12.00" fill="white">Hashable</text>
</a>
</g>
</g>
<!-- Equatable&#45;&gt;Hashable -->
<g id="edge24" class="edge">
<path fill="none" stroke="#cccccc" d="M950.999,-289.988C978.225,-280.859 1018.65,-267.305 1048.56,-257.274"/>
<polygon fill="#cccccc" stroke="#cccccc" points="1049.9,-260.517 1058.26,-254.019 1047.67,-253.88 1049.9,-260.517"/>
</g>
<!-- Equatable&#45;&gt;UnsafeMutablePointer&lt;T&gt; -->
<g id="edge5" class="edge">
<path fill="none" stroke="#cccccc" d="M932.702,-289.974C952.584,-271.549 991.143,-230.127 991.143,-186 991.143,-186 991.143,-186 991.143,-126 991.143,-91.16 980.825,-77.7781 952.143,-58 919.727,-35.6473 820.829,-23.521 747.491,-17.4187"/>
<polygon fill="#cccccc" stroke="#cccccc" points="747.572,-13.9139 737.322,-16.5972 747.008,-20.8912 747.572,-13.9139"/>
</g>
<!-- _Incrementable -->
<g id="node14" class="node">
<g id="a_node14"><a xlink:href="/swift-2/protocol/_Incrementable/" target="_top">
<path fill="#999999" stroke="#999999" d="M290.848,-254C290.848,-254 213.438,-254 213.438,-254 209.771,-254 206.105,-250.333 206.105,-246.667 206.105,-246.667 206.105,-239.333 206.105,-239.333 206.105,-235.667 209.771,-232 213.438,-232 213.438,-232 290.848,-232 290.848,-232 294.515,-232 298.182,-235.667 298.182,-239.333 298.182,-239.333 298.182,-246.667 298.182,-246.667 298.182,-250.333 294.515,-254 290.848,-254"/>
<text text-anchor="middle" x="252.143" y="-239.4" font-family="Helvetica,sans-Serif" font-size="12.00" fill="white">_Incrementable</text>
</a>
</g>
</g>
<!-- Equatable&#45;&gt;_Incrementable -->
<g id="edge20" class="edge">
<path fill="none" stroke="#cccccc" d="M888.876,-297.299C782.8,-288.42 443.934,-260.054 308.679,-248.732"/>
<polygon fill="#cccccc" stroke="#cccccc" points="308.788,-245.229 298.531,-247.883 308.204,-252.205 308.788,-245.229"/>
</g>
<!-- ForwardIndexType -->
<g id="node6" class="node">
<g id="a_node6"><a xlink:href="/swift-2/protocol/ForwardIndexType/" target="_top">
<path fill="#999999" stroke="#999999" d="M299.349,-196C299.349,-196 204.937,-196 204.937,-196 201.27,-196 197.604,-192.333 197.604,-188.667 197.604,-188.667 197.604,-181.333 197.604,-181.333 197.604,-177.667 201.27,-174 204.937,-174 204.937,-174 299.349,-174 299.349,-174 303.016,-174 306.683,-177.667 306.683,-181.333 306.683,-181.333 306.683,-188.667 306.683,-188.667 306.683,-192.333 303.016,-196 299.349,-196"/>
<text text-anchor="middle" x="252.143" y="-181.4" font-family="Helvetica,sans-Serif" font-size="12.00" fill="white">ForwardIndexType</text>
</a>
</g>
</g>
<!-- ForwardIndexType&#45;&gt;BidirectionalIndexType -->
<g id="edge18" class="edge">
<path fill="none" stroke="#cccccc" d="M273.06,-173.988C291.332,-165.243 318.085,-152.438 338.724,-142.559"/>
<polygon fill="#cccccc" stroke="#cccccc" points="340.503,-145.588 348.012,-138.114 337.481,-139.274 340.503,-145.588"/>
</g>
<!-- ForwardIndexType&#45;&gt;UnsafeMutablePointer&lt;T&gt; -->
<g id="edge3" class="edge">
<path fill="none" stroke="#cccccc" d="M233.917,-173.932C196.397,-151.999 117.041,-98.6137 154.143,-58 182.04,-27.4632 439.772,-16.998 577.022,-13.572"/>
<polygon fill="#cccccc" stroke="#cccccc" points="577.182,-17.0693 587.095,-13.3278 577.013,-10.0713 577.182,-17.0693"/>
</g>
<!-- Hashable&#45;&gt;UnsafeMutablePointer&lt;T&gt; -->
<g id="edge9" class="edge">
<path fill="none" stroke="#cccccc" d="M1093.99,-231.609C1110.52,-200.696 1153.56,-108.341 1108.14,-58 1084.5,-31.7891 870.422,-19.6271 747.665,-14.7647"/>
<polygon fill="#cccccc" stroke="#cccccc" points="747.663,-11.2621 737.535,-14.3718 747.392,-18.2569 747.663,-11.2621"/>
</g>
<!-- NilLiteralConvertible -->
<g id="node8" class="node">
<g id="a_node8"><a xlink:href="/swift-2/protocol/NilLiteralConvertible/" target="_top">
<path fill="#999999" stroke="#999999" d="M713.343,-80C713.343,-80 610.943,-80 610.943,-80 607.276,-80 603.609,-76.3333 603.609,-72.6667 603.609,-72.6667 603.609,-65.3333 603.609,-65.3333 603.609,-61.6667 607.276,-58 610.943,-58 610.943,-58 713.343,-58 713.343,-58 717.01,-58 720.677,-61.6667 720.677,-65.3333 720.677,-65.3333 720.677,-72.6667 720.677,-72.6667 720.677,-76.3333 717.01,-80 713.343,-80"/>
<text text-anchor="middle" x="662.143" y="-65.4" font-family="Helvetica,sans-Serif" font-size="12.00" fill="white">NilLiteralConvertible</text>
</a>
</g>
</g>
<!-- NilLiteralConvertible&#45;&gt;UnsafeMutablePointer&lt;T&gt; -->
<g id="edge10" class="edge">
<path fill="none" stroke="#cccccc" d="M662.143,-57.9883C662.143,-50.9098 662.143,-41.1714 662.143,-32.4779"/>
<polygon fill="#cccccc" stroke="#cccccc" points="665.643,-32.3038 662.143,-22.3039 658.643,-32.3039 665.643,-32.3038"/>
</g>
<!-- RandomAccessIndexType&#45;&gt;UnsafeMutablePointer&lt;T&gt; -->
<g id="edge1" class="edge">
<path fill="none" stroke="#cccccc" d="M506.111,-57.9883C537.491,-48.7397 584.276,-34.9502 618.431,-24.8836"/>
<polygon fill="#cccccc" stroke="#cccccc" points="619.547,-28.2037 628.149,-22.0192 617.568,-21.4892 619.547,-28.2037"/>
</g>
<!-- Reflectable -->
<g id="node10" class="node">
<g id="a_node10"><a xlink:href="/swift-2/protocol/Reflectable/" target="_top">
<path fill="#999999" stroke="#999999" d="M839.836,-80C839.836,-80 784.45,-80 784.45,-80 780.783,-80 777.117,-76.3333 777.117,-72.6667 777.117,-72.6667 777.117,-65.3333 777.117,-65.3333 777.117,-61.6667 780.783,-58 784.45,-58 784.45,-58 839.836,-58 839.836,-58 843.503,-58 847.169,-61.6667 847.169,-65.3333 847.169,-65.3333 847.169,-72.6667 847.169,-72.6667 847.169,-76.3333 843.503,-80 839.836,-80"/>
<text text-anchor="middle" x="812.143" y="-65.4" font-family="Helvetica,sans-Serif" font-size="12.00" fill="white">Reflectable</text>
</a>
</g>
</g>
<!-- Reflectable&#45;&gt;UnsafeMutablePointer&lt;T&gt; -->
<g id="edge13" class="edge">
<path fill="none" stroke="#cccccc" d="M785.326,-57.9883C761.085,-48.9381 725.197,-35.5399 698.402,-25.5367"/>
<polygon fill="#cccccc" stroke="#cccccc" points="699.573,-22.2379 688.98,-22.0192 697.125,-28.7958 699.573,-22.2379"/>
</g>
<!-- SinkType -->
<g id="node11" class="node">
<g id="a_node11"><a xlink:href="/swift-2/protocol/SinkType/" target="_top">
<path fill="#999999" stroke="#999999" d="M917.333,-80C917.333,-80 872.954,-80 872.954,-80 869.287,-80 865.62,-76.3333 865.62,-72.6667 865.62,-72.6667 865.62,-65.3333 865.62,-65.3333 865.62,-61.6667 869.287,-58 872.954,-58 872.954,-58 917.333,-58 917.333,-58 920.999,-58 924.666,-61.6667 924.666,-65.3333 924.666,-65.3333 924.666,-72.6667 924.666,-72.6667 924.666,-76.3333 920.999,-80 917.333,-80"/>
<text text-anchor="middle" x="895.143" y="-65.4" font-family="Helvetica,sans-Serif" font-size="12.00" fill="white">SinkType</text>
</a>
</g>
</g>
<!-- SinkType&#45;&gt;UnsafeMutablePointer&lt;T&gt; -->
<g id="edge14" class="edge">
<path fill="none" stroke="#cccccc" d="M865.77,-60.4075C862.524,-59.5866 859.265,-58.7703 856.143,-58 808.635,-46.2777 754.437,-33.4746 715.426,-24.3589"/>
<polygon fill="#cccccc" stroke="#cccccc" points="715.88,-20.871 705.347,-22.0069 714.29,-27.6879 715.88,-20.871"/>
</g>
<!-- Strideable&#45;&gt;RandomAccessIndexType -->
<g id="edge17" class="edge">
<path fill="none" stroke="#cccccc" d="M717.097,-119.521C671.823,-110.368 588.331,-93.4893 531.538,-82.0076"/>
<polygon fill="#cccccc" stroke="#cccccc" points="532.106,-78.5518 521.611,-80.0007 530.719,-85.4129 532.106,-78.5518"/>
</g>
<!-- Strideable&#45;&gt;UnsafeMutablePointer&lt;T&gt; -->
<g id="edge6" class="edge">
<path fill="none" stroke="#cccccc" d="M748.287,-115.846C746.65,-101.679 742.005,-75.7299 729.143,-58 719.876,-45.2256 705.917,-34.8326 693.134,-27.1787"/>
<polygon fill="#cccccc" stroke="#cccccc" points="694.549,-23.958 684.119,-22.0947 691.11,-30.0554 694.549,-23.958"/>
</g>
<!-- _Incrementable&#45;&gt;ForwardIndexType -->
<g id="edge19" class="edge">
<path fill="none" stroke="#cccccc" d="M252.143,-231.988C252.143,-224.91 252.143,-215.171 252.143,-206.478"/>
<polygon fill="#cccccc" stroke="#cccccc" points="255.643,-206.304 252.143,-196.304 248.643,-206.304 255.643,-206.304"/>
</g>
<!-- _Incrementable&#45;&gt;UnsafeMutablePointer&lt;T&gt; -->
<g id="edge4" class="edge">
<path fill="none" stroke="#cccccc" d="M217.946,-231.909C136.661,-206.35 -56.0892,-135.559 16.1431,-58 53.5547,-17.8297 409.809,-12.1778 576.685,-11.7565"/>
<polygon fill="#cccccc" stroke="#cccccc" points="576.92,-15.2561 586.913,-11.7366 576.906,-8.25612 576.92,-15.2561"/>
</g>
<!-- _PointerType -->
<g id="node15" class="node">
<g id="a_node15"><a xlink:href="/swift-2/protocol/_PointerType/" target="_top">
<path fill="#999999" stroke="#999999" d="M1091.85,-80C1091.85,-80 1026.44,-80 1026.44,-80 1022.77,-80 1019.1,-76.3333 1019.1,-72.6667 1019.1,-72.6667 1019.1,-65.3333 1019.1,-65.3333 1019.1,-61.6667 1022.77,-58 1026.44,-58 1026.44,-58 1091.85,-58 1091.85,-58 1095.52,-58 1099.18,-61.6667 1099.18,-65.3333 1099.18,-65.3333 1099.18,-72.6667 1099.18,-72.6667 1099.18,-76.3333 1095.52,-80 1091.85,-80"/>
<text text-anchor="middle" x="1059.14" y="-65.4" font-family="Helvetica,sans-Serif" font-size="12.00" fill="white">_PointerType</text>
</a>
</g>
</g>
<!-- _PointerType&#45;&gt;UnsafeMutablePointer&lt;T&gt; -->
<g id="edge11" class="edge">
<path fill="none" stroke="#cccccc" d="M1019.08,-60.3509C1014.39,-59.5233 1009.66,-58.721 1005.14,-58 917.49,-44.0153 816.775,-30.852 747.264,-22.2194"/>
<polygon fill="#cccccc" stroke="#cccccc" points="747.595,-18.7337 737.241,-20.9791 746.735,-25.6807 747.595,-18.7337"/>
</g>
<!-- _Strideable -->
<g id="node16" class="node">
<g id="a_node16"><a xlink:href="/swift-2/protocol/_Strideable/" target="_top">
<path fill="#999999" stroke="#999999" d="M911.843,-196C911.843,-196 856.443,-196 856.443,-196 852.777,-196 849.11,-192.333 849.11,-188.667 849.11,-188.667 849.11,-181.333 849.11,-181.333 849.11,-177.667 852.777,-174 856.443,-174 856.443,-174 911.843,-174 911.843,-174 915.51,-174 919.176,-177.667 919.176,-181.333 919.176,-181.333 919.176,-188.667 919.176,-188.667 919.176,-192.333 915.51,-196 911.843,-196"/>
<text text-anchor="middle" x="884.143" y="-181.4" font-family="Helvetica,sans-Serif" font-size="12.00" fill="white">_Strideable</text>
</a>
</g>
</g>
<!-- _Strideable&#45;&gt;Strideable -->
<g id="edge22" class="edge">
<path fill="none" stroke="#cccccc" d="M860.008,-173.988C838.544,-165.085 806.936,-151.973 782.956,-142.026"/>
<polygon fill="#cccccc" stroke="#cccccc" points="784.103,-138.713 773.525,-138.114 781.42,-145.178 784.103,-138.713"/>
</g>
<!-- _Strideable&#45;&gt;UnsafeMutablePointer&lt;T&gt; -->
<g id="edge8" class="edge">
<path fill="none" stroke="#cccccc" d="M894.5,-173.698C916.487,-150.594 963.432,-93.8629 933.143,-58 909.665,-30.2003 817.991,-19.1977 747.702,-14.8451"/>
<polygon fill="#cccccc" stroke="#cccccc" points="747.684,-11.3382 737.497,-14.2499 747.276,-18.3263 747.684,-11.3382"/>
</g>
</g>
</svg>
