<?xml version="1.0" encoding="UTF-8" standalone="no"?>
<!DOCTYPE svg PUBLIC "-//W3C//DTD SVG 1.1//EN"
 "http://www.w3.org/Graphics/SVG/1.1/DTD/svg11.dtd">
<!-- Generated by graphviz version 2.36.0 (20140111.2315)
 -->
<!-- Title: Mirror &#45; Type Hierarchy &#45; SwiftDoc.org Pages: 1 -->
<svg width="285pt" height="195pt"
 viewBox="0.00 0.00 285.40 195.20" xmlns="http://www.w3.org/2000/svg" xmlns:xlink="http://www.w3.org/1999/xlink">
<g id="graph0" class="graph" transform="scale(1 1) rotate(0) translate(7.2 137.6)">
<title>Mirror &#45; Type Hierarchy &#45; SwiftDoc.org</title>
<polygon fill="white" stroke="none" points="-7.2,57.6 -7.2,-137.6 278.2,-137.6 278.2,57.6 -7.2,57.6"/>
<!-- CustomReflectable -->
<g id="node1" class="node"><title>CustomReflectable</title>
<g id="a_node1"><a xlink:href="/protocol/CustomReflectable/" xlink:title="CustomReflectable">
<path fill="#999999" stroke="#999999" d="M103.2,-80C103.2,-80 6.79968,-80 6.79968,-80 3.13302,-80 -0.53365,-76.3333 -0.53365,-72.6667 -0.53365,-72.6667 -0.53365,-65.3333 -0.53365,-65.3333 -0.53365,-61.6667 3.13302,-58 6.79968,-58 6.79968,-58 103.2,-58 103.2,-58 106.867,-58 110.534,-61.6667 110.534,-65.3333 110.534,-65.3333 110.534,-72.6667 110.534,-72.6667 110.534,-76.3333 106.867,-80 103.2,-80"/>
<text text-anchor="middle" x="55" y="-65.4" font-family="Helvetica,sans-Serif" font-size="12.00" fill="white">CustomReflectable</text>
</a>
</g>
</g>
<!-- Mirror -->
<g id="node3" class="node"><title>Mirror</title>
<g id="a_node3"><a xlink:href="/type/Mirror/" xlink:title="Mirror">
<polygon fill="#ee543d" stroke="#ee543d" points="154,-22 100,-22 100,-0 154,-0 154,-22"/>
<text text-anchor="middle" x="127" y="-7.4" font-family="Helvetica,sans-Serif" font-size="12.00" fill="white">Mirror</text>
</a>
</g>
</g>
<!-- CustomReflectable&#45;&gt;Mirror -->
<g id="edge2" class="edge"><title>CustomReflectable&#45;&gt;Mirror</title>
<path fill="none" stroke="#cccccc" d="M67.8722,-57.9883C78.3888,-49.8087 93.472,-38.0773 105.772,-28.5108"/>
<polygon fill="#cccccc" stroke="#cccccc" points="108.007,-31.2061 113.752,-22.3039 103.71,-25.6806 108.007,-31.2061"/>
</g>
<!-- CustomStringConvertible -->
<g id="node2" class="node"><title>CustomStringConvertible</title>
<g id="a_node2"><a xlink:href="/protocol/CustomStringConvertible/" xlink:title="CustomStringConvertible">
<path fill="#999999" stroke="#999999" d="M264.208,-80C264.208,-80 135.792,-80 135.792,-80 132.126,-80 128.459,-76.3333 128.459,-72.6667 128.459,-72.6667 128.459,-65.3333 128.459,-65.3333 128.459,-61.6667 132.126,-58 135.792,-58 135.792,-58 264.208,-58 264.208,-58 267.874,-58 271.541,-61.6667 271.541,-65.3333 271.541,-65.3333 271.541,-72.6667 271.541,-72.6667 271.541,-76.3333 267.874,-80 264.208,-80"/>
<text text-anchor="middle" x="200" y="-65.4" font-family="Helvetica,sans-Serif" font-size="12.00" fill="white">CustomStringConvertible</text>
</a>
</g>
</g>
<!-- CustomStringConvertible&#45;&gt;Mirror -->
<g id="edge1" class="edge"><title>CustomStringConvertible&#45;&gt;Mirror</title>
<path fill="none" stroke="#cccccc" d="M186.949,-57.9883C176.286,-49.8087 160.994,-38.0773 148.523,-28.5108"/>
<polygon fill="#cccccc" stroke="#cccccc" points="150.496,-25.6135 140.432,-22.3039 146.236,-31.1675 150.496,-25.6135"/>
</g>
</g>
</svg>
