<?xml version="1.0" encoding="UTF-8" standalone="no"?>
<!DOCTYPE svg PUBLIC "-//W3C//DTD SVG 1.1//EN"
 "http://www.w3.org/Graphics/SVG/1.1/DTD/svg11.dtd">
<!-- Generated by graphviz version 2.36.0 (20140111.2315)
 -->
<!-- Title: _Sequence_Type &#45; Type Hierarchy &#45; SwiftDoc.org Pages: 1 -->
<svg width="5254pt" height="601pt"
 viewBox="0.00 0.00 5254.40 601.20" xmlns="http://www.w3.org/2000/svg" xmlns:xlink="http://www.w3.org/1999/xlink">
<g id="graph0" class="graph" transform="scale(1 1) rotate(0) translate(7.2 543.6)">
<g transform="translate(0 -543.6)">
<g>
    <path fill="#666666" d="M13.846,10.832c-0.336-0.464-0.792-0.844-1.368-1.14s-1.224-0.444-1.944-0.444
        c-0.384,0-0.772,0.052-1.164,0.156C8.977,9.509,8.622,9.677,8.301,9.908c-0.32,0.232-0.58,0.52-0.78,0.864
        c-0.2,0.344-0.3,0.756-0.3,1.236c0,0.464,0.092,0.852,0.276,1.164c0.184,0.312,0.432,0.576,0.744,0.792s0.68,0.4,1.104,0.552
        c0.423,0.152,0.876,0.309,1.356,0.468c0.576,0.177,1.16,0.376,1.752,0.601c0.592,0.224,1.128,0.52,1.608,0.888
        s0.872,0.828,1.176,1.38s0.456,1.252,0.456,2.101c0,0.88-0.164,1.644-0.492,2.292c-0.328,0.647-0.765,1.184-1.308,1.607
        c-0.544,0.424-1.172,0.74-1.884,0.948s-1.444,0.312-2.196,0.312c-1.072,0-2.108-0.208-3.108-0.624
        c-1-0.415-1.828-1.031-2.484-1.848l1.848-1.56c0.4,0.592,0.936,1.071,1.608,1.439c0.672,0.368,1.399,0.552,2.184,0.552
        c0.4,0,0.8-0.056,1.2-0.168c0.4-0.111,0.764-0.288,1.092-0.527c0.328-0.24,0.596-0.54,0.804-0.9
        c0.208-0.36,0.312-0.796,0.312-1.308s-0.108-0.94-0.324-1.284c-0.216-0.344-0.508-0.636-0.876-0.876s-0.796-0.444-1.284-0.612
        c-0.488-0.168-1.004-0.34-1.548-0.516c-0.544-0.16-1.08-0.356-1.608-0.588c-0.528-0.232-1-0.528-1.416-0.889
        c-0.416-0.359-0.752-0.804-1.008-1.332c-0.256-0.527-0.384-1.184-0.384-1.968c0-0.848,0.172-1.576,0.516-2.184
        c0.344-0.608,0.792-1.112,1.344-1.512c0.552-0.4,1.176-0.692,1.872-0.876c0.696-0.184,1.396-0.276,2.1-0.276
        c0.992,0,1.92,0.176,2.784,0.528c0.864,0.352,1.56,0.824,2.088,1.416L13.846,10.832z"/>
    <path fill="#666666" d="M18.813,13.304l2.568,8.688h0.048l2.712-8.688h2.376l2.76,8.688h0.048l2.568-8.688h2.376L30.501,24.68
        h-2.352l-2.808-8.544h-0.048l-2.784,8.544h-2.352l-3.792-11.376H18.813z"/>
    <path fill="#666666" d="M38.685,9.2c0,0.416-0.147,0.76-0.44,1.032c-0.294,0.272-0.647,0.408-1.06,0.408s-0.762-0.14-1.047-0.42
        c-0.286-0.28-0.429-0.62-0.429-1.02c0-0.416,0.143-0.764,0.429-1.044c0.286-0.28,0.635-0.42,1.047-0.42s0.766,0.14,1.06,0.42
        C38.538,8.437,38.685,8.784,38.685,9.2z M38.325,24.68h-2.256V13.304h2.256V24.68z"/>
    <path fill="#666666" d="M47.613,15.152h-2.64v9.528h-2.256v-9.528h-2.256v-1.848h2.256v-2.376c0-0.672,0.076-1.292,0.228-1.86
        c0.152-0.568,0.4-1.06,0.744-1.476c0.344-0.416,0.784-0.744,1.32-0.984c0.536-0.24,1.188-0.36,1.956-0.36
        c0.544,0,1.016,0.056,1.416,0.168l-0.264,1.944c-0.176-0.048-0.352-0.088-0.528-0.12c-0.176-0.032-0.376-0.048-0.6-0.048
        c-0.432,0-0.78,0.076-1.044,0.228c-0.264,0.152-0.468,0.356-0.612,0.612s-0.24,0.548-0.288,0.876
        c-0.048,0.328-0.072,0.668-0.072,1.02v2.376h2.64V15.152z"/>
    <path fill="#666666" d="M54.909,15.152h-3.024v5.91c0,0.687,0.128,1.177,0.384,1.472c0.256,0.295,0.664,0.442,1.224,0.442
        c0.208,0,0.432-0.021,0.672-0.065c0.24-0.044,0.456-0.11,0.648-0.198l0.072,1.848c-0.272,0.096-0.572,0.172-0.9,0.229
        c-0.328,0.056-0.668,0.084-1.02,0.084c-1.072,0-1.892-0.296-2.46-0.889c-0.568-0.592-0.852-1.479-0.852-2.664v-6.168h-2.184
        v-1.848h2.184V10.04h2.232v3.264h3.024V15.152z"/>
    <path fill="#666666" d="M57.356,7.688h5.832c1.088,0,2.176,0.16,3.264,0.48c1.088,0.32,2.072,0.824,2.952,1.512
        s1.592,1.568,2.136,2.64c0.544,1.072,0.816,2.36,0.816,3.864c0,1.456-0.272,2.716-0.816,3.78s-1.256,1.943-2.136,2.64
        s-1.864,1.216-2.952,1.561c-1.088,0.344-2.176,0.516-3.264,0.516h-5.832V7.688z M59.732,22.593h2.976
        c1.024,0,1.972-0.145,2.844-0.432c0.872-0.288,1.624-0.704,2.256-1.248c0.632-0.544,1.124-1.216,1.476-2.017
        c0.352-0.8,0.528-1.704,0.528-2.712c0-1.056-0.176-1.983-0.528-2.784c-0.353-0.8-0.844-1.468-1.476-2.004
        c-0.632-0.536-1.384-0.944-2.256-1.224s-1.82-0.42-2.844-0.42h-2.976V22.593z"/>
    <path fill="#666666" d="M86.06,18.969c0,0.88-0.156,1.688-0.468,2.424c-0.312,0.736-0.744,1.372-1.296,1.908
        c-0.552,0.536-1.204,0.952-1.956,1.248c-0.752,0.296-1.56,0.443-2.424,0.443c-0.864,0-1.672-0.147-2.424-0.443
        c-0.752-0.296-1.4-0.712-1.944-1.248c-0.544-0.536-0.972-1.172-1.284-1.908c-0.312-0.735-0.468-1.544-0.468-2.424
        s0.156-1.684,0.468-2.412c0.312-0.728,0.74-1.356,1.284-1.884c0.543-0.528,1.191-0.939,1.944-1.236
        c0.752-0.296,1.56-0.444,2.424-0.444c0.864,0,1.672,0.148,2.424,0.444c0.752,0.297,1.404,0.708,1.956,1.236
        c0.552,0.527,0.984,1.156,1.296,1.884C85.904,17.285,86.06,18.089,86.06,18.969z M83.708,18.98c0-0.542-0.084-1.061-0.252-1.556
        c-0.169-0.494-0.414-0.929-0.734-1.304s-0.718-0.674-1.192-0.897s-1.015-0.335-1.625-0.335c-0.61,0-1.152,0.111-1.625,0.335
        c-0.474,0.224-0.871,0.522-1.191,0.897c-0.321,0.375-0.566,0.81-0.734,1.304C76.184,17.92,76.1,18.438,76.1,18.98
        c0,0.543,0.084,1.062,0.253,1.556c0.168,0.495,0.413,0.934,0.734,1.316c0.321,0.383,0.718,0.686,1.191,0.909
        c0.473,0.224,1.015,0.335,1.625,0.335c0.61,0,1.151-0.111,1.625-0.335s0.871-0.526,1.192-0.909s0.565-0.821,0.734-1.316
        C83.624,20.042,83.708,19.523,83.708,18.98z"/>
    <path fill="#666666" d="M96.428,16.184c-0.24-0.368-0.6-0.676-1.08-0.924s-0.992-0.372-1.536-0.372
        c-0.592,0-1.116,0.112-1.572,0.336c-0.456,0.225-0.844,0.524-1.164,0.9c-0.32,0.376-0.564,0.812-0.732,1.308
        s-0.252,1.017-0.252,1.56c0,0.545,0.084,1.064,0.252,1.561s0.412,0.933,0.732,1.308c0.32,0.376,0.712,0.677,1.176,0.9
        c0.464,0.225,0.992,0.336,1.584,0.336c0.576,0,1.1-0.111,1.572-0.336c0.472-0.224,0.86-0.528,1.164-0.912l1.512,1.368
        c-0.48,0.561-1.08,0.996-1.8,1.308c-0.72,0.312-1.536,0.468-2.448,0.468c-0.88,0-1.692-0.144-2.436-0.432
        c-0.744-0.288-1.388-0.691-1.932-1.212c-0.544-0.52-0.972-1.147-1.284-1.884s-0.468-1.561-0.468-2.473
        c0-0.896,0.152-1.711,0.456-2.447c0.304-0.736,0.728-1.368,1.272-1.896c0.543-0.527,1.188-0.936,1.932-1.224
        c0.744-0.288,1.548-0.433,2.412-0.433c0.8,0,1.596,0.16,2.388,0.48s1.419,0.784,1.884,1.392L96.428,16.184z"/>
    <path fill="#666666" d="M103.1,23.24c0,0.417-0.152,0.784-0.456,1.104c-0.304,0.32-0.688,0.479-1.152,0.479
        c-0.448,0-0.828-0.155-1.14-0.468c-0.312-0.312-0.468-0.676-0.468-1.092c0-0.432,0.152-0.804,0.456-1.116
        c0.304-0.312,0.688-0.468,1.152-0.468c0.464,0,0.848,0.152,1.152,0.456C102.947,22.44,103.1,22.808,103.1,23.24z"/>
    <path fill="#666666" d="M116.635,18.969c0,0.88-0.156,1.688-0.468,2.424c-0.312,0.736-0.744,1.372-1.296,1.908
        c-0.552,0.536-1.204,0.952-1.956,1.248c-0.752,0.296-1.56,0.443-2.424,0.443c-0.864,0-1.672-0.147-2.424-0.443
        c-0.752-0.296-1.4-0.712-1.944-1.248c-0.544-0.536-0.972-1.172-1.284-1.908c-0.312-0.735-0.468-1.544-0.468-2.424
        s0.156-1.684,0.468-2.412c0.312-0.728,0.74-1.356,1.284-1.884c0.543-0.528,1.191-0.939,1.944-1.236
        c0.752-0.296,1.56-0.444,2.424-0.444c0.864,0,1.672,0.148,2.424,0.444c0.752,0.297,1.404,0.708,1.956,1.236
        c0.552,0.527,0.984,1.156,1.296,1.884C116.479,17.285,116.635,18.089,116.635,18.969z M114.283,18.98
        c0-0.542-0.084-1.061-0.252-1.556c-0.169-0.494-0.414-0.929-0.734-1.304s-0.718-0.674-1.192-0.897s-1.015-0.335-1.625-0.335
        c-0.61,0-1.152,0.111-1.625,0.335c-0.474,0.224-0.871,0.522-1.191,0.897c-0.321,0.375-0.566,0.81-0.734,1.304
        c-0.169,0.495-0.253,1.014-0.253,1.556c0,0.543,0.084,1.062,0.253,1.556c0.168,0.495,0.413,0.934,0.734,1.316
        c0.321,0.383,0.718,0.686,1.191,0.909c0.473,0.224,1.015,0.335,1.625,0.335c0.61,0,1.151-0.111,1.625-0.335
        s0.871-0.526,1.192-0.909s0.565-0.821,0.734-1.316C114.199,20.042,114.283,19.523,114.283,18.98z"/>
    <path fill="#666666" d="M119.251,14.577c-0.016-0.48-0.04-0.904-0.072-1.272h2.136c0.032,0.288,0.056,0.62,0.072,0.996
        c0.016,0.376,0.024,0.684,0.024,0.924h0.072c0.32-0.672,0.788-1.212,1.404-1.62c0.616-0.408,1.308-0.612,2.076-0.612
        c0.352,0,0.648,0.033,0.888,0.097l-0.096,2.088c-0.32-0.08-0.664-0.12-1.032-0.12c-0.544,0-1.016,0.101-1.416,0.3
        c-0.4,0.2-0.732,0.468-0.996,0.805c-0.264,0.336-0.46,0.724-0.588,1.163c-0.128,0.44-0.192,0.9-0.192,1.381v5.976h-2.256v-8.928
        C119.275,15.449,119.267,15.056,119.251,14.577z"/>
    <path fill="#666666" d="M128.419,26.625c0.496,0.56,1.116,1.008,1.86,1.344c0.744,0.336,1.508,0.504,2.292,0.504
        c0.752,0,1.384-0.108,1.896-0.324s0.924-0.512,1.236-0.888s0.536-0.82,0.672-1.332c0.136-0.513,0.204-1.064,0.204-1.656v-1.464
        h-0.048c-0.416,0.641-0.984,1.128-1.704,1.464c-0.72,0.336-1.488,0.504-2.304,0.504c-0.864,0-1.652-0.151-2.364-0.456
        c-0.712-0.304-1.316-0.72-1.812-1.248c-0.496-0.527-0.88-1.147-1.152-1.859s-0.408-1.477-0.408-2.292
        c0-0.816,0.136-1.584,0.408-2.305c0.272-0.72,0.656-1.348,1.152-1.884c0.496-0.535,1.096-0.96,1.8-1.271
        c0.704-0.312,1.488-0.469,2.352-0.469c0.816,0,1.596,0.177,2.34,0.528c0.744,0.353,1.332,0.888,1.764,1.608h0.048v-1.824h2.184
        v10.8c0,0.832-0.104,1.628-0.312,2.388c-0.208,0.76-0.56,1.433-1.056,2.017s-1.144,1.052-1.944,1.404
        c-0.8,0.352-1.792,0.527-2.976,0.527c-0.992,0-1.988-0.18-2.988-0.54c-1-0.359-1.86-0.868-2.58-1.523L128.419,26.625z
         M129.091,18.873c0,0.527,0.084,1.031,0.253,1.512c0.168,0.479,0.417,0.904,0.746,1.271c0.329,0.369,0.726,0.664,1.192,0.889
        c0.465,0.224,0.995,0.336,1.589,0.336c0.577,0,1.107-0.104,1.589-0.312c0.481-0.207,0.891-0.491,1.228-0.852
        s0.598-0.784,0.782-1.272c0.185-0.487,0.277-1.012,0.277-1.571c0-0.544-0.093-1.057-0.277-1.536
        c-0.185-0.48-0.449-0.904-0.794-1.272c-0.345-0.367-0.755-0.66-1.228-0.876c-0.474-0.216-1-0.324-1.577-0.324
        c-0.594,0-1.124,0.108-1.589,0.324c-0.466,0.216-0.863,0.504-1.192,0.864s-0.578,0.784-0.746,1.271
        C129.175,17.812,129.091,18.329,129.091,18.873z"/>
</g>
<g><a xlink:href="/" pointer-events="all" target="_top"><polygon fill="none" points="0,0 145,0 145,35 0,35 0,0"/></a></g>

</g>


<!-- Array -->
<g id="node1" class="node">
<g id="a_node1"><a xlink:href="/type/Array/" target="_top">
<polygon fill="#999999" stroke="#999999" points="384,-22 330,-22 330,-0 384,-0 384,-22"/>
<text text-anchor="middle" x="357" y="-7.4" font-family="Helvetica,sans-Serif" font-size="12.00" fill="white">Array</text>
</a>
</g>
</g>
<!-- ArraySlice -->
<g id="node2" class="node">
<g id="a_node2"><a xlink:href="/type/ArraySlice/" target="_top">
<polygon fill="#999999" stroke="#999999" points="490.011,-22 425.989,-22 425.989,-0 490.011,-0 490.011,-22"/>
<text text-anchor="middle" x="458" y="-7.4" font-family="Helvetica,sans-Serif" font-size="12.00" fill="white">ArraySlice</text>
</a>
</g>
</g>
<!-- BidirectionalReverseView -->
<g id="node3" class="node">
<g id="a_node3"><a xlink:href="/type/BidirectionalReverseView/" target="_top">
<polygon fill="#999999" stroke="#999999" points="1017.39,-22 872.612,-22 872.612,-0 1017.39,-0 1017.39,-22"/>
<text text-anchor="middle" x="945" y="-7.4" font-family="Helvetica,sans-Serif" font-size="12.00" fill="white">BidirectionalReverseView</text>
</a>
</g>
</g>
<!-- CollectionOfOne -->
<g id="node4" class="node">
<g id="a_node4"><a xlink:href="/type/CollectionOfOne/" target="_top">
<polygon fill="#999999" stroke="#999999" points="1134.03,-22 1035.97,-22 1035.97,-0 1134.03,-0 1134.03,-22"/>
<text text-anchor="middle" x="1085" y="-7.4" font-family="Helvetica,sans-Serif" font-size="12.00" fill="white">CollectionOfOne</text>
</a>
</g>
</g>
<!-- CollectionType -->
<g id="node5" class="node">
<g id="a_node5"><a xlink:href="/protocol/CollectionType/" target="_top">
<path fill="#999999" stroke="#999999" d="M1755.7,-312C1755.7,-312 1682.3,-312 1682.3,-312 1678.63,-312 1674.96,-308.333 1674.96,-304.667 1674.96,-304.667 1674.96,-297.333 1674.96,-297.333 1674.96,-293.667 1678.63,-290 1682.3,-290 1682.3,-290 1755.7,-290 1755.7,-290 1759.37,-290 1763.04,-293.667 1763.04,-297.333 1763.04,-297.333 1763.04,-304.667 1763.04,-304.667 1763.04,-308.333 1759.37,-312 1755.7,-312"/>
<text text-anchor="middle" x="1719" y="-297.4" font-family="Helvetica,sans-Serif" font-size="12.00" fill="white">CollectionType</text>
</a>
</g>
</g>
<!-- CollectionType&#45;&gt;BidirectionalReverseView -->
<g id="edge23" class="edge">
<path fill="none" stroke="#cccccc" d="M1674.92,-300.642C1554.59,-301.762 1222.98,-300.434 1126,-254 1088.57,-236.077 1062,-227.503 1062,-186 1062,-186 1062,-186 1062,-126 1062,-93.9507 1059.26,-81.9809 1038,-58 1025.09,-43.4436 1006.53,-32.9821 989.369,-25.7512"/>
<polygon fill="#cccccc" stroke="#cccccc" points="990.614,-22.4801 980.028,-22.0609 988.042,-28.9905 990.614,-22.4801"/>
</g>
<!-- CollectionType&#45;&gt;CollectionOfOne -->
<g id="edge24" class="edge">
<path fill="none" stroke="#cccccc" d="M1674.63,-298.39C1568.35,-294.14 1301.73,-281.041 1217,-254 1159.7,-235.714 1100,-246.145 1100,-186 1100,-186 1100,-186 1100,-126 1100,-92.8704 1093.7,-54.7845 1089.26,-32.092"/>
<polygon fill="#cccccc" stroke="#cccccc" points="1092.63,-31.11 1087.21,-22.0066 1085.77,-32.5031 1092.63,-31.11"/>
</g>
<!-- Dictionary -->
<g id="node7" class="node">
<g id="a_node7"><a xlink:href="/type/Dictionary/" target="_top">
<polygon fill="#999999" stroke="#999999" points="1215.51,-22 1152.49,-22 1152.49,-0 1215.51,-0 1215.51,-22"/>
<text text-anchor="middle" x="1184" y="-7.4" font-family="Helvetica,sans-Serif" font-size="12.00" fill="white">Dictionary</text>
</a>
</g>
</g>
<!-- CollectionType&#45;&gt;Dictionary -->
<g id="edge25" class="edge">
<path fill="none" stroke="#cccccc" d="M1674.76,-299.954C1546.58,-298.638 1184,-286.072 1184,-186 1184,-186 1184,-186 1184,-126 1184,-93.1536 1184,-54.9837 1184,-32.197"/>
<polygon fill="#cccccc" stroke="#cccccc" points="1187.5,-32.0648 1184,-22.0648 1180.5,-32.0648 1187.5,-32.0648"/>
</g>
<!-- EmptyCollection -->
<g id="node8" class="node">
<g id="a_node8"><a xlink:href="/type/EmptyCollection/" target="_top">
<polygon fill="#999999" stroke="#999999" points="1330.03,-22 1233.97,-22 1233.97,-0 1330.03,-0 1330.03,-22"/>
<text text-anchor="middle" x="1282" y="-7.4" font-family="Helvetica,sans-Serif" font-size="12.00" fill="white">EmptyCollection</text>
</a>
</g>
</g>
<!-- CollectionType&#45;&gt;EmptyCollection -->
<g id="edge26" class="edge">
<path fill="none" stroke="#cccccc" d="M1674.69,-297.847C1563.6,-291.244 1282,-266.563 1282,-186 1282,-186 1282,-186 1282,-126 1282,-93.1536 1282,-54.9837 1282,-32.197"/>
<polygon fill="#cccccc" stroke="#cccccc" points="1285.5,-32.0648 1282,-22.0648 1278.5,-32.0648 1285.5,-32.0648"/>
</g>
<!-- FilterCollectionView -->
<g id="node13" class="node">
<g id="a_node13"><a xlink:href="/type/FilterCollectionView/" target="_top">
<polygon fill="#999999" stroke="#999999" points="1463.37,-22 1348.63,-22 1348.63,-0 1463.37,-0 1463.37,-22"/>
<text text-anchor="middle" x="1406" y="-7.4" font-family="Helvetica,sans-Serif" font-size="12.00" fill="white">FilterCollectionView</text>
</a>
</g>
</g>
<!-- CollectionType&#45;&gt;FilterCollectionView -->
<g id="edge27" class="edge">
<path fill="none" stroke="#cccccc" d="M1674.82,-293.38C1588.54,-279.204 1406,-242.531 1406,-186 1406,-186 1406,-186 1406,-126 1406,-93.1536 1406,-54.9837 1406,-32.197"/>
<polygon fill="#cccccc" stroke="#cccccc" points="1409.5,-32.0648 1406,-22.0648 1402.5,-32.0648 1409.5,-32.0648"/>
</g>
<!-- LazyBidirectionalCollection -->
<g id="node20" class="node">
<g id="a_node20"><a xlink:href="/type/LazyBidirectionalCollection/" target="_top">
<polygon fill="#999999" stroke="#999999" points="1634.56,-22 1481.44,-22 1481.44,-0 1634.56,-0 1634.56,-22"/>
<text text-anchor="middle" x="1558" y="-7.4" font-family="Helvetica,sans-Serif" font-size="12.00" fill="white">LazyBidirectionalCollection</text>
</a>
</g>
</g>
<!-- CollectionType&#45;&gt;LazyBidirectionalCollection -->
<g id="edge28" class="edge">
<path fill="none" stroke="#cccccc" d="M1677.12,-289.886C1629.42,-275.573 1558,-244.394 1558,-186 1558,-186 1558,-186 1558,-126 1558,-93.1536 1558,-54.9837 1558,-32.197"/>
<polygon fill="#cccccc" stroke="#cccccc" points="1561.5,-32.0648 1558,-22.0648 1554.5,-32.0648 1561.5,-32.0648"/>
</g>
<!-- LazyForwardCollection -->
<g id="node21" class="node">
<g id="a_node21"><a xlink:href="/type/LazyForwardCollection/" target="_top">
<polygon fill="#999999" stroke="#999999" points="1785.04,-22 1652.96,-22 1652.96,-0 1785.04,-0 1785.04,-22"/>
<text text-anchor="middle" x="1719" y="-7.4" font-family="Helvetica,sans-Serif" font-size="12.00" fill="white">LazyForwardCollection</text>
</a>
</g>
</g>
<!-- CollectionType&#45;&gt;LazyForwardCollection -->
<g id="edge29" class="edge">
<path fill="none" stroke="#cccccc" d="M1719,-289.935C1719,-270.066 1719,-224.396 1719,-186 1719,-186 1719,-186 1719,-126 1719,-93.1536 1719,-54.9837 1719,-32.197"/>
<polygon fill="#cccccc" stroke="#cccccc" points="1722.5,-32.0648 1719,-22.0648 1715.5,-32.0648 1722.5,-32.0648"/>
</g>
<!-- LazyRandomAccessCollection -->
<g id="node22" class="node">
<g id="a_node22"><a xlink:href="/type/LazyRandomAccessCollection/" target="_top">
<polygon fill="#999999" stroke="#999999" points="1975.06,-22 1802.94,-22 1802.94,-0 1975.06,-0 1975.06,-22"/>
<text text-anchor="middle" x="1889" y="-7.4" font-family="Helvetica,sans-Serif" font-size="12.00" fill="white">LazyRandomAccessCollection</text>
</a>
</g>
</g>
<!-- CollectionType&#45;&gt;LazyRandomAccessCollection -->
<g id="edge30" class="edge">
<path fill="none" stroke="#cccccc" d="M1763.22,-290.62C1813.59,-277.039 1889,-246.588 1889,-186 1889,-186 1889,-186 1889,-126 1889,-93.1536 1889,-54.9837 1889,-32.197"/>
<polygon fill="#cccccc" stroke="#cccccc" points="1892.5,-32.0648 1889,-22.0648 1885.5,-32.0648 1892.5,-32.0648"/>
</g>
<!-- MapCollectionView -->
<g id="node24" class="node">
<g id="a_node24"><a xlink:href="/type/MapCollectionView/" target="_top">
<polygon fill="#999999" stroke="#999999" points="2104.38,-22 1993.62,-22 1993.62,-0 2104.38,-0 2104.38,-22"/>
<text text-anchor="middle" x="2049" y="-7.4" font-family="Helvetica,sans-Serif" font-size="12.00" fill="white">MapCollectionView</text>
</a>
</g>
</g>
<!-- CollectionType&#45;&gt;MapCollectionView -->
<g id="edge31" class="edge">
<path fill="none" stroke="#cccccc" d="M1763.16,-294.189C1853.08,-281.118 2049,-245.78 2049,-186 2049,-186 2049,-186 2049,-126 2049,-93.1536 2049,-54.9837 2049,-32.197"/>
<polygon fill="#cccccc" stroke="#cccccc" points="2052.5,-32.0648 2049,-22.0648 2045.5,-32.0648 2052.5,-32.0648"/>
</g>
<!-- MutableCollectionType -->
<g id="node27" class="node">
<g id="a_node27"><a xlink:href="/protocol/MutableCollectionType/" target="_top">
<path fill="#999999" stroke="#999999" d="M336.221,-196C336.221,-196 219.779,-196 219.779,-196 216.112,-196 212.446,-192.333 212.446,-188.667 212.446,-188.667 212.446,-181.333 212.446,-181.333 212.446,-177.667 216.112,-174 219.779,-174 219.779,-174 336.221,-174 336.221,-174 339.888,-174 343.554,-177.667 343.554,-181.333 343.554,-181.333 343.554,-188.667 343.554,-188.667 343.554,-192.333 339.888,-196 336.221,-196"/>
<text text-anchor="middle" x="278" y="-181.4" font-family="Helvetica,sans-Serif" font-size="12.00" fill="white">MutableCollectionType</text>
</a>
</g>
</g>
<!-- CollectionType&#45;&gt;MutableCollectionType -->
<g id="edge32" class="edge">
<path fill="none" stroke="#cccccc" d="M1674.48,-299.567C1534.8,-297.858 1092.87,-289.789 729,-254 590.472,-240.375 429.533,-213.398 342.282,-197.831"/>
<polygon fill="#cccccc" stroke="#cccccc" points="342.731,-194.356 332.27,-196.037 341.496,-201.246 342.731,-194.356"/>
</g>
<!-- RandomAccessReverseView -->
<g id="node30" class="node">
<g id="a_node30"><a xlink:href="/type/RandomAccessReverseView/" target="_top">
<polygon fill="#999999" stroke="#999999" points="2286.89,-22 2123.11,-22 2123.11,-0 2286.89,-0 2286.89,-22"/>
<text text-anchor="middle" x="2205" y="-7.4" font-family="Helvetica,sans-Serif" font-size="12.00" fill="white">RandomAccessReverseView</text>
</a>
</g>
</g>
<!-- CollectionType&#45;&gt;RandomAccessReverseView -->
<g id="edge33" class="edge">
<path fill="none" stroke="#cccccc" d="M1763.42,-299C1883.39,-295.103 2205,-276.24 2205,-186 2205,-186 2205,-186 2205,-126 2205,-93.1536 2205,-54.9837 2205,-32.197"/>
<polygon fill="#cccccc" stroke="#cccccc" points="2208.5,-32.0648 2205,-22.0648 2201.5,-32.0648 2208.5,-32.0648"/>
</g>
<!-- Range -->
<g id="node31" class="node">
<g id="a_node31"><a xlink:href="/type/Range/" target="_top">
<polygon fill="#999999" stroke="#999999" points="2359,-22 2305,-22 2305,-0 2359,-0 2359,-22"/>
<text text-anchor="middle" x="2332" y="-7.4" font-family="Helvetica,sans-Serif" font-size="12.00" fill="white">Range</text>
</a>
</g>
</g>
<!-- CollectionType&#45;&gt;Range -->
<g id="edge34" class="edge">
<path fill="none" stroke="#cccccc" d="M1763.17,-299.223C1842.93,-296.972 2015.81,-288.197 2157,-254 2238.1,-234.358 2332,-269.443 2332,-186 2332,-186 2332,-186 2332,-126 2332,-93.1536 2332,-54.9837 2332,-32.197"/>
<polygon fill="#cccccc" stroke="#cccccc" points="2335.5,-32.0648 2332,-22.0648 2328.5,-32.0648 2335.5,-32.0648"/>
</g>
<!-- Repeat -->
<g id="node34" class="node">
<g id="a_node34"><a xlink:href="/type/Repeat/" target="_top">
<polygon fill="#999999" stroke="#999999" points="2431,-22 2377,-22 2377,-0 2431,-0 2431,-22"/>
<text text-anchor="middle" x="2404" y="-7.4" font-family="Helvetica,sans-Serif" font-size="12.00" fill="white">Repeat</text>
</a>
</g>
</g>
<!-- CollectionType&#45;&gt;Repeat -->
<g id="edge35" class="edge">
<path fill="none" stroke="#cccccc" d="M1763.12,-298.003C1872.98,-292.734 2156.53,-277.249 2248,-254 2321.3,-235.368 2404,-261.634 2404,-186 2404,-186 2404,-186 2404,-126 2404,-93.1536 2404,-54.9837 2404,-32.197"/>
<polygon fill="#cccccc" stroke="#cccccc" points="2407.5,-32.0648 2404,-22.0648 2400.5,-32.0648 2407.5,-32.0648"/>
</g>
<!-- Set -->
<g id="node37" class="node">
<g id="a_node37"><a xlink:href="/type/Set/" target="_top">
<polygon fill="#999999" stroke="#999999" points="2503,-22 2449,-22 2449,-0 2503,-0 2503,-22"/>
<text text-anchor="middle" x="2476" y="-7.4" font-family="Helvetica,sans-Serif" font-size="12.00" fill="white">Set</text>
</a>
</g>
</g>
<!-- CollectionType&#45;&gt;Set -->
<g id="edge36" class="edge">
<path fill="none" stroke="#cccccc" d="M1763.07,-298.695C1884.32,-294.783 2220.98,-281.673 2328,-254 2398.08,-235.878 2476,-258.389 2476,-186 2476,-186 2476,-186 2476,-126 2476,-93.1536 2476,-54.9837 2476,-32.197"/>
<polygon fill="#cccccc" stroke="#cccccc" points="2479.5,-32.0648 2476,-22.0648 2472.5,-32.0648 2479.5,-32.0648"/>
</g>
<!-- String -->
<g id="node41" class="node">
<g id="a_node41"><a xlink:href="/type/String/" target="_top">
<polygon fill="#999999" stroke="#999999" points="854,-22 800,-22 800,-0 854,-0 854,-22"/>
<text text-anchor="middle" x="827" y="-7.4" font-family="Helvetica,sans-Serif" font-size="12.00" fill="white">String</text>
</a>
</g>
</g>
<!-- CollectionType&#45;&gt;String -->
<g id="edge37" class="edge">
<path fill="none" stroke="#cccccc" d="M1674.55,-298.793C1538.45,-294.821 1133.53,-280.854 1081,-254 1045.89,-236.05 1024,-225.436 1024,-186 1024,-186 1024,-186 1024,-126 1024,-90.4778 1010.21,-79.5822 982,-58 979.578,-56.1469 908.961,-35.5961 863.89,-22.5977"/>
<polygon fill="#cccccc" stroke="#cccccc" points="864.721,-19.1948 854.143,-19.7895 862.783,-25.9212 864.721,-19.1948"/>
</g>
<!-- String.UTF8View -->
<g id="node43" class="node">
<g id="a_node43"><a xlink:href="/type/String.UTF8View/" target="_top">
<polygon fill="#999999" stroke="#999999" points="2621.36,-22 2520.64,-22 2520.64,-0 2621.36,-0 2621.36,-22"/>
<text text-anchor="middle" x="2571" y="-7.4" font-family="Helvetica,sans-Serif" font-size="12.00" fill="white">String.UTF8View</text>
</a>
</g>
</g>
<!-- CollectionType&#45;&gt;String.UTF8View -->
<g id="edge42" class="edge">
<path fill="none" stroke="#cccccc" d="M1763.23,-298.87C1894.66,-295.224 2281.33,-282.318 2404,-254 2482.09,-235.974 2571,-266.139 2571,-186 2571,-186 2571,-186 2571,-126 2571,-93.1536 2571,-54.9837 2571,-32.197"/>
<polygon fill="#cccccc" stroke="#cccccc" points="2574.5,-32.0648 2571,-22.0648 2567.5,-32.0648 2574.5,-32.0648"/>
</g>
<!-- UnicodeScalar.UTF16View -->
<g id="node45" class="node">
<g id="a_node45"><a xlink:href="/type/UnicodeScalar.UTF16View/" target="_top">
<polygon fill="#999999" stroke="#999999" points="2792.39,-22 2639.61,-22 2639.61,-0 2792.39,-0 2792.39,-22"/>
<text text-anchor="middle" x="2716" y="-7.4" font-family="Helvetica,sans-Serif" font-size="12.00" fill="white">UnicodeScalar.UTF16View</text>
</a>
</g>
</g>
<!-- CollectionType&#45;&gt;UnicodeScalar.UTF16View -->
<g id="edge38" class="edge">
<path fill="none" stroke="#cccccc" d="M1763.13,-299.661C1956.08,-297.608 2716,-283.344 2716,-186 2716,-186 2716,-186 2716,-126 2716,-93.1536 2716,-54.9837 2716,-32.197"/>
<polygon fill="#cccccc" stroke="#cccccc" points="2719.5,-32.0648 2716,-22.0648 2712.5,-32.0648 2719.5,-32.0648"/>
</g>
<!-- UnsafeBufferPointer -->
<g id="node46" class="node">
<g id="a_node46"><a xlink:href="/type/UnsafeBufferPointer/" target="_top">
<polygon fill="#999999" stroke="#999999" points="2928.39,-22 2811.61,-22 2811.61,-0 2928.39,-0 2928.39,-22"/>
<text text-anchor="middle" x="2870" y="-7.4" font-family="Helvetica,sans-Serif" font-size="12.00" fill="white">UnsafeBufferPointer</text>
</a>
</g>
</g>
<!-- CollectionType&#45;&gt;UnsafeBufferPointer -->
<g id="edge39" class="edge">
<path fill="none" stroke="#cccccc" d="M1763.06,-300.346C1973.95,-301.435 2870,-299.392 2870,-186 2870,-186 2870,-186 2870,-126 2870,-93.1536 2870,-54.9837 2870,-32.197"/>
<polygon fill="#cccccc" stroke="#cccccc" points="2873.5,-32.0648 2870,-22.0648 2866.5,-32.0648 2873.5,-32.0648"/>
</g>
<!-- _ExtensibleCollectionType -->
<g id="node52" class="node">
<g id="a_node52"><a xlink:href="/protocol/_ExtensibleCollectionType/" target="_top">
<path fill="#999999" stroke="#999999" d="M980.733,-254C980.733,-254 845.267,-254 845.267,-254 841.601,-254 837.934,-250.333 837.934,-246.667 837.934,-246.667 837.934,-239.333 837.934,-239.333 837.934,-235.667 841.601,-232 845.267,-232 845.267,-232 980.733,-232 980.733,-232 984.399,-232 988.066,-235.667 988.066,-239.333 988.066,-239.333 988.066,-246.667 988.066,-246.667 988.066,-250.333 984.399,-254 980.733,-254"/>
<text text-anchor="middle" x="913" y="-239.4" font-family="Helvetica,sans-Serif" font-size="12.00" fill="white">_ExtensibleCollectionType</text>
</a>
</g>
</g>
<!-- CollectionType&#45;&gt;_ExtensibleCollectionType -->
<g id="edge40" class="edge">
<path fill="none" stroke="#cccccc" d="M1674.57,-297.705C1562.83,-291.804 1261.06,-275.078 1010,-254 1006.13,-253.675 1002.16,-253.327 998.165,-252.964"/>
<polygon fill="#cccccc" stroke="#cccccc" points="998.452,-249.476 988.17,-252.034 997.803,-256.446 998.452,-249.476"/>
</g>
<!-- _Sliceable -->
<g id="node55" class="node">
<g id="a_node55"><a xlink:href="/protocol/_Sliceable/" target="_top">
<path fill="#999999" stroke="#999999" d="M796.194,-254C796.194,-254 745.806,-254 745.806,-254 742.139,-254 738.473,-250.333 738.473,-246.667 738.473,-246.667 738.473,-239.333 738.473,-239.333 738.473,-235.667 742.139,-232 745.806,-232 745.806,-232 796.194,-232 796.194,-232 799.861,-232 803.527,-235.667 803.527,-239.333 803.527,-239.333 803.527,-246.667 803.527,-246.667 803.527,-250.333 799.861,-254 796.194,-254"/>
<text text-anchor="middle" x="771" y="-239.4" font-family="Helvetica,sans-Serif" font-size="12.00" fill="white">_Sliceable</text>
</a>
</g>
</g>
<!-- CollectionType&#45;&gt;_Sliceable -->
<g id="edge41" class="edge">
<path fill="none" stroke="#cccccc" d="M1674.86,-299.576C1544.87,-297.929 1152.29,-290.095 829,-254 823.926,-253.433 818.623,-252.707 813.373,-251.905"/>
<polygon fill="#cccccc" stroke="#cccccc" points="813.85,-248.437 803.419,-250.291 812.73,-255.346 813.85,-248.437"/>
</g>
<!-- ContiguousArray -->
<g id="node6" class="node">
<g id="a_node6"><a xlink:href="/type/ContiguousArray/" target="_top">
<polygon fill="#999999" stroke="#999999" points="304.534,-22 205.466,-22 205.466,-0 304.534,-0 304.534,-22"/>
<text text-anchor="middle" x="255" y="-7.4" font-family="Helvetica,sans-Serif" font-size="12.00" fill="white">ContiguousArray</text>
</a>
</g>
</g>
<!-- EmptyGenerator -->
<g id="node9" class="node">
<g id="a_node9"><a xlink:href="/type/EmptyGenerator/" target="_top">
<polygon fill="#999999" stroke="#999999" points="3045.03,-22 2946.97,-22 2946.97,-0 3045.03,-0 3045.03,-22"/>
<text text-anchor="middle" x="2996" y="-7.4" font-family="Helvetica,sans-Serif" font-size="12.00" fill="white">EmptyGenerator</text>
</a>
</g>
</g>
<!-- EnumerateGenerator -->
<g id="node10" class="node">
<g id="a_node10"><a xlink:href="/type/EnumerateGenerator/" target="_top">
<polygon fill="#999999" stroke="#999999" points="3185.05,-22 3062.95,-22 3062.95,-0 3185.05,-0 3185.05,-22"/>
<text text-anchor="middle" x="3124" y="-7.4" font-family="Helvetica,sans-Serif" font-size="12.00" fill="white">EnumerateGenerator</text>
</a>
</g>
</g>
<!-- EnumerateSequence -->
<g id="node11" class="node">
<g id="a_node11"><a xlink:href="/type/EnumerateSequence/" target="_top">
<polygon fill="#999999" stroke="#999999" points="3326.06,-22 3203.94,-22 3203.94,-0 3326.06,-0 3326.06,-22"/>
<text text-anchor="middle" x="3265" y="-7.4" font-family="Helvetica,sans-Serif" font-size="12.00" fill="white">EnumerateSequence</text>
</a>
</g>
</g>
<!-- ExtensibleCollectionType -->
<g id="node12" class="node">
<g id="a_node12"><a xlink:href="/protocol/ExtensibleCollectionType/" target="_top">
<path fill="#999999" stroke="#999999" d="M937.727,-196C937.727,-196 808.273,-196 808.273,-196 804.607,-196 800.94,-192.333 800.94,-188.667 800.94,-188.667 800.94,-181.333 800.94,-181.333 800.94,-177.667 804.607,-174 808.273,-174 808.273,-174 937.727,-174 937.727,-174 941.393,-174 945.06,-177.667 945.06,-181.333 945.06,-181.333 945.06,-188.667 945.06,-188.667 945.06,-192.333 941.393,-196 937.727,-196"/>
<text text-anchor="middle" x="873" y="-181.4" font-family="Helvetica,sans-Serif" font-size="12.00" fill="white">ExtensibleCollectionType</text>
</a>
</g>
</g>
<!-- RangeReplaceableCollectionType -->
<g id="node33" class="node">
<g id="a_node33"><a xlink:href="/protocol/RangeReplaceableCollectionType/" target="_top">
<path fill="#999999" stroke="#999999" d="M912.76,-138C912.76,-138 737.24,-138 737.24,-138 733.573,-138 729.906,-134.333 729.906,-130.667 729.906,-130.667 729.906,-123.333 729.906,-123.333 729.906,-119.667 733.573,-116 737.24,-116 737.24,-116 912.76,-116 912.76,-116 916.427,-116 920.094,-119.667 920.094,-123.333 920.094,-123.333 920.094,-130.667 920.094,-130.667 920.094,-134.333 916.427,-138 912.76,-138"/>
<text text-anchor="middle" x="825" y="-123.4" font-family="Helvetica,sans-Serif" font-size="12.00" fill="white">RangeReplaceableCollectionType</text>
</a>
</g>
</g>
<!-- ExtensibleCollectionType&#45;&gt;RangeReplaceableCollectionType -->
<g id="edge54" class="edge">
<path fill="none" stroke="#cccccc" d="M864.419,-173.988C857.745,-166.202 848.312,-155.197 840.347,-145.905"/>
<polygon fill="#cccccc" stroke="#cccccc" points="842.997,-143.619 833.832,-138.304 837.682,-148.174 842.997,-143.619"/>
</g>
<!-- ExtensibleCollectionType&#45;&gt;String -->
<g id="edge55" class="edge">
<path fill="none" stroke="#cccccc" d="M912.477,-173.941C930.912,-167.049 951.146,-155.828 962,-138 980.49,-107.63 982.694,-86.9132 962,-58 959.007,-53.8182 903.031,-35.6874 864.109,-23.4759"/>
<polygon fill="#cccccc" stroke="#cccccc" points="864.721,-20.0006 854.133,-20.3582 862.633,-26.6819 864.721,-20.0006"/>
</g>
<!-- String.UnicodeScalarView -->
<g id="node44" class="node">
<g id="a_node44"><a xlink:href="/type/String.UnicodeScalarView/" target="_top">
<polygon fill="#999999" stroke="#999999" points="781.892,-22 634.108,-22 634.108,-0 781.892,-0 781.892,-22"/>
<text text-anchor="middle" x="708" y="-7.4" font-family="Helvetica,sans-Serif" font-size="12.00" fill="white">String.UnicodeScalarView</text>
</a>
</g>
</g>
<!-- ExtensibleCollectionType&#45;&gt;String.UnicodeScalarView -->
<g id="edge56" class="edge">
<path fill="none" stroke="#cccccc" d="M800.694,-179.164C771.641,-173.389 740.477,-161.605 721,-138 696.275,-108.034 699.484,-59.4236 703.847,-32.171"/>
<polygon fill="#cccccc" stroke="#cccccc" points="707.31,-32.6909 705.647,-22.2275 700.422,-31.4444 707.31,-32.6909"/>
</g>
<!-- FilterGenerator -->
<g id="node14" class="node">
<g id="a_node14"><a xlink:href="/type/FilterGenerator/" target="_top">
<polygon fill="#999999" stroke="#999999" points="3435.02,-22 3344.98,-22 3344.98,-0 3435.02,-0 3435.02,-22"/>
<text text-anchor="middle" x="3390" y="-7.4" font-family="Helvetica,sans-Serif" font-size="12.00" fill="white">FilterGenerator</text>
</a>
</g>
</g>
<!-- FilterSequenceView -->
<g id="node15" class="node">
<g id="a_node15"><a xlink:href="/type/FilterSequenceView/" target="_top">
<polygon fill="#999999" stroke="#999999" points="3569.89,-22 3454.11,-22 3454.11,-0 3569.89,-0 3569.89,-22"/>
<text text-anchor="middle" x="3512" y="-7.4" font-family="Helvetica,sans-Serif" font-size="12.00" fill="white">FilterSequenceView</text>
</a>
</g>
</g>
<!-- GeneratorOf -->
<g id="node16" class="node">
<g id="a_node16"><a xlink:href="/type/GeneratorOf/" target="_top">
<polygon fill="#999999" stroke="#999999" points="3665.02,-22 3588.98,-22 3588.98,-0 3665.02,-0 3665.02,-22"/>
<text text-anchor="middle" x="3627" y="-7.4" font-family="Helvetica,sans-Serif" font-size="12.00" fill="white">GeneratorOf</text>
</a>
</g>
</g>
<!-- GeneratorOfOne -->
<g id="node17" class="node">
<g id="a_node17"><a xlink:href="/type/GeneratorOfOne/" target="_top">
<polygon fill="#999999" stroke="#999999" points="3782.53,-22 3683.47,-22 3683.47,-0 3782.53,-0 3782.53,-22"/>
<text text-anchor="middle" x="3733" y="-7.4" font-family="Helvetica,sans-Serif" font-size="12.00" fill="white">GeneratorOfOne</text>
</a>
</g>
</g>
<!-- GeneratorSequence -->
<g id="node18" class="node">
<g id="a_node18"><a xlink:href="/type/GeneratorSequence/" target="_top">
<polygon fill="#999999" stroke="#999999" points="3919.06,-22 3800.94,-22 3800.94,-0 3919.06,-0 3919.06,-22"/>
<text text-anchor="middle" x="3860" y="-7.4" font-family="Helvetica,sans-Serif" font-size="12.00" fill="white">GeneratorSequence</text>
</a>
</g>
</g>
<!-- IndexingGenerator -->
<g id="node19" class="node">
<g id="a_node19"><a xlink:href="/type/IndexingGenerator/" target="_top">
<polygon fill="#999999" stroke="#999999" points="4046.55,-22 3937.45,-22 3937.45,-0 4046.55,-0 4046.55,-22"/>
<text text-anchor="middle" x="3992" y="-7.4" font-family="Helvetica,sans-Serif" font-size="12.00" fill="white">IndexingGenerator</text>
</a>
</g>
</g>
<!-- LazySequence -->
<g id="node23" class="node">
<g id="a_node23"><a xlink:href="/type/LazySequence/" target="_top">
<polygon fill="#999999" stroke="#999999" points="4153.55,-22 4064.45,-22 4064.45,-0 4153.55,-0 4153.55,-22"/>
<text text-anchor="middle" x="4109" y="-7.4" font-family="Helvetica,sans-Serif" font-size="12.00" fill="white">LazySequence</text>
</a>
</g>
</g>
<!-- MapSequenceGenerator -->
<g id="node25" class="node">
<g id="a_node25"><a xlink:href="/type/MapSequenceGenerator/" target="_top">
<polygon fill="#999999" stroke="#999999" points="4312.56,-22 4171.44,-22 4171.44,-0 4312.56,-0 4312.56,-22"/>
<text text-anchor="middle" x="4242" y="-7.4" font-family="Helvetica,sans-Serif" font-size="12.00" fill="white">MapSequenceGenerator</text>
</a>
</g>
</g>
<!-- MapSequenceView -->
<g id="node26" class="node">
<g id="a_node26"><a xlink:href="/type/MapSequenceView/" target="_top">
<polygon fill="#999999" stroke="#999999" points="4443.39,-22 4330.61,-22 4330.61,-0 4443.39,-0 4443.39,-22"/>
<text text-anchor="middle" x="4387" y="-7.4" font-family="Helvetica,sans-Serif" font-size="12.00" fill="white">MapSequenceView</text>
</a>
</g>
</g>
<!-- MutableCollectionType&#45;&gt;Array -->
<g id="edge43" class="edge">
<path fill="none" stroke="#cccccc" d="M278.98,-173.865C281.496,-151.572 289.636,-97.1511 312,-58 318.194,-47.1562 327.559,-37.0119 336.144,-29.0237"/>
<polygon fill="#cccccc" stroke="#cccccc" points="338.53,-31.5856 343.696,-22.3355 333.889,-26.3452 338.53,-31.5856"/>
</g>
<!-- MutableCollectionType&#45;&gt;ArraySlice -->
<g id="edge44" class="edge">
<path fill="none" stroke="#cccccc" d="M343.702,-174.991C369.139,-168.487 396.714,-157.286 416,-138 444.947,-109.053 453.944,-59.6553 456.74,-32.0949"/>
<polygon fill="#cccccc" stroke="#cccccc" points="460.234,-32.3141 457.578,-22.0575 453.258,-31.7314 460.234,-32.3141"/>
</g>
<!-- MutableCollectionType&#45;&gt;ContiguousArray -->
<g id="edge45" class="edge">
<path fill="none" stroke="#cccccc" d="M212.624,-179.319C184.61,-173.683 154.391,-161.966 137,-138 105.039,-93.9537 177.787,-48.9989 222.782,-26.5852"/>
<polygon fill="#cccccc" stroke="#cccccc" points="224.446,-29.668 231.914,-22.153 221.39,-23.3705 224.446,-29.668"/>
</g>
<!-- MutableSliceable -->
<g id="node28" class="node">
<g id="a_node28"><a xlink:href="/protocol/MutableSliceable/" target="_top">
<path fill="#999999" stroke="#999999" d="M400.208,-138C400.208,-138 313.792,-138 313.792,-138 310.126,-138 306.459,-134.333 306.459,-130.667 306.459,-130.667 306.459,-123.333 306.459,-123.333 306.459,-119.667 310.126,-116 313.792,-116 313.792,-116 400.208,-116 400.208,-116 403.874,-116 407.541,-119.667 407.541,-123.333 407.541,-123.333 407.541,-130.667 407.541,-130.667 407.541,-134.333 403.874,-138 400.208,-138"/>
<text text-anchor="middle" x="357" y="-123.4" font-family="Helvetica,sans-Serif" font-size="12.00" fill="white">MutableSliceable</text>
</a>
</g>
</g>
<!-- MutableCollectionType&#45;&gt;MutableSliceable -->
<g id="edge46" class="edge">
<path fill="none" stroke="#cccccc" d="M292.124,-173.988C303.847,-165.678 320.741,-153.703 334.35,-144.055"/>
<polygon fill="#cccccc" stroke="#cccccc" points="336.598,-146.752 342.732,-138.114 332.55,-141.042 336.598,-146.752"/>
</g>
<!-- UnsafeMutableBufferPointer -->
<g id="node48" class="node">
<g id="a_node48"><a xlink:href="/type/UnsafeMutableBufferPointer/" target="_top">
<polygon fill="#999999" stroke="#999999" points="159.905,-22 0.0946575,-22 0.0946575,-0 159.905,-0 159.905,-22"/>
<text text-anchor="middle" x="80" y="-7.4" font-family="Helvetica,sans-Serif" font-size="12.00" fill="white">UnsafeMutableBufferPointer</text>
</a>
</g>
</g>
<!-- MutableCollectionType&#45;&gt;UnsafeMutableBufferPointer -->
<g id="edge47" class="edge">
<path fill="none" stroke="#cccccc" d="M212.578,-177.565C182.917,-171.574 149.341,-160.065 126,-138 95.956,-109.598 85.4596,-59.9895 81.8478,-32.2485"/>
<polygon fill="#cccccc" stroke="#cccccc" points="85.3069,-31.6877 80.7138,-22.1403 78.3506,-32.4681 85.3069,-31.6877"/>
</g>
<!-- _ArrayBufferType -->
<g id="node50" class="node">
<g id="a_node50"><a xlink:href="/protocol/_ArrayBufferType/" target="_top">
<path fill="#999999" stroke="#999999" d="M242.044,-138C242.044,-138 153.956,-138 153.956,-138 150.29,-138 146.623,-134.333 146.623,-130.667 146.623,-130.667 146.623,-123.333 146.623,-123.333 146.623,-119.667 150.29,-116 153.956,-116 153.956,-116 242.044,-116 242.044,-116 245.71,-116 249.377,-119.667 249.377,-123.333 249.377,-123.333 249.377,-130.667 249.377,-130.667 249.377,-134.333 245.71,-138 242.044,-138"/>
<text text-anchor="middle" x="198" y="-123.4" font-family="Helvetica,sans-Serif" font-size="12.00" fill="white">_ArrayBufferType</text>
</a>
</g>
</g>
<!-- MutableCollectionType&#45;&gt;_ArrayBufferType -->
<g id="edge48" class="edge">
<path fill="none" stroke="#cccccc" d="M263.698,-173.988C251.826,-165.678 234.718,-153.703 220.936,-144.055"/>
<polygon fill="#cccccc" stroke="#cccccc" points="222.648,-140.981 212.448,-138.114 218.634,-146.716 222.648,-140.981"/>
</g>
<!-- _ArrayType -->
<g id="node51" class="node">
<g id="a_node51"><a xlink:href="/protocol/_ArrayType/" target="_top">
<path fill="#999999" stroke="#999999" d="M385.19,-80C385.19,-80 328.81,-80 328.81,-80 325.144,-80 321.477,-76.3333 321.477,-72.6667 321.477,-72.6667 321.477,-65.3333 321.477,-65.3333 321.477,-61.6667 325.144,-58 328.81,-58 328.81,-58 385.19,-58 385.19,-58 388.856,-58 392.523,-61.6667 392.523,-65.3333 392.523,-65.3333 392.523,-72.6667 392.523,-72.6667 392.523,-76.3333 388.856,-80 385.19,-80"/>
<text text-anchor="middle" x="357" y="-65.4" font-family="Helvetica,sans-Serif" font-size="12.00" fill="white">_ArrayType</text>
</a>
</g>
</g>
<!-- MutableSliceable&#45;&gt;_ArrayType -->
<g id="edge49" class="edge">
<path fill="none" stroke="#cccccc" d="M357,-115.988C357,-108.91 357,-99.1714 357,-90.4779"/>
<polygon fill="#cccccc" stroke="#cccccc" points="360.5,-90.3038 357,-80.3039 353.5,-90.3039 360.5,-90.3038"/>
</g>
<!-- PermutationGenerator -->
<g id="node29" class="node">
<g id="a_node29"><a xlink:href="/type/PermutationGenerator/" target="_top">
<polygon fill="#999999" stroke="#999999" points="4590.05,-22 4461.95,-22 4461.95,-0 4590.05,-0 4590.05,-22"/>
<text text-anchor="middle" x="4526" y="-7.4" font-family="Helvetica,sans-Serif" font-size="12.00" fill="white">PermutationGenerator</text>
</a>
</g>
</g>
<!-- RangeGenerator -->
<g id="node32" class="node">
<g id="a_node32"><a xlink:href="/type/RangeGenerator/" target="_top">
<polygon fill="#999999" stroke="#999999" points="4707.54,-22 4608.46,-22 4608.46,-0 4707.54,-0 4707.54,-22"/>
<text text-anchor="middle" x="4658" y="-7.4" font-family="Helvetica,sans-Serif" font-size="12.00" fill="white">RangeGenerator</text>
</a>
</g>
</g>
<!-- RangeReplaceableCollectionType&#45;&gt;String -->
<g id="edge57" class="edge">
<path fill="none" stroke="#cccccc" d="M825.177,-115.883C825.506,-97.1703 826.214,-56.8266 826.644,-32.2866"/>
<polygon fill="#cccccc" stroke="#cccccc" points="830.144,-32.3178 826.82,-22.2579 823.145,-32.195 830.144,-32.3178"/>
</g>
<!-- RangeReplaceableCollectionType&#45;&gt;String.UnicodeScalarView -->
<g id="edge59" class="edge">
<path fill="none" stroke="#cccccc" d="M814.617,-115.883C794.633,-96.4116 750.613,-53.52 725.84,-29.3824"/>
<polygon fill="#cccccc" stroke="#cccccc" points="728.133,-26.7298 718.528,-22.2579 723.248,-31.7434 728.133,-26.7298"/>
</g>
<!-- RangeReplaceableCollectionType&#45;&gt;_ArrayType -->
<g id="edge58" class="edge">
<path fill="none" stroke="#cccccc" d="M741.331,-115.988C642.319,-104.141 481.034,-84.8417 402.65,-75.4624"/>
<polygon fill="#cccccc" stroke="#cccccc" points="402.952,-71.9736 392.607,-74.2606 402.12,-78.924 402.952,-71.9736"/>
</g>
<!-- SequenceOf -->
<g id="node35" class="node">
<g id="a_node35"><a xlink:href="/type/SequenceOf/" target="_top">
<polygon fill="#999999" stroke="#999999" points="4802.04,-22 4725.96,-22 4725.96,-0 4802.04,-0 4802.04,-22"/>
<text text-anchor="middle" x="4764" y="-7.4" font-family="Helvetica,sans-Serif" font-size="12.00" fill="white">SequenceOf</text>
</a>
</g>
</g>
<!-- SequenceType -->
<g id="node36" class="node">
<g id="a_node36"><a xlink:href="/protocol/SequenceType/" target="_top">
<path fill="#999999" stroke="#999999" d="M4029.72,-370C4029.72,-370 3954.28,-370 3954.28,-370 3950.62,-370 3946.95,-366.333 3946.95,-362.667 3946.95,-362.667 3946.95,-355.333 3946.95,-355.333 3946.95,-351.667 3950.62,-348 3954.28,-348 3954.28,-348 4029.72,-348 4029.72,-348 4033.38,-348 4037.05,-351.667 4037.05,-355.333 4037.05,-355.333 4037.05,-362.667 4037.05,-362.667 4037.05,-366.333 4033.38,-370 4029.72,-370"/>
<text text-anchor="middle" x="3992" y="-355.4" font-family="Helvetica,sans-Serif" font-size="12.00" fill="white">SequenceType</text>
</a>
</g>
</g>
<!-- SequenceType&#45;&gt;CollectionType -->
<g id="edge2" class="edge">
<path fill="none" stroke="#cccccc" d="M3946.85,-356.888C3659.39,-349.805 2086.68,-311.059 1773.32,-303.338"/>
<polygon fill="#cccccc" stroke="#cccccc" points="1773.22,-299.835 1763.14,-303.087 1773.05,-306.833 1773.22,-299.835"/>
</g>
<!-- SequenceType&#45;&gt;EmptyGenerator -->
<g id="edge3" class="edge">
<path fill="none" stroke="#cccccc" d="M3946.83,-357.794C3794.03,-356.747 3297.44,-350.401 3143,-312 3073.14,-294.63 2996,-315.985 2996,-244 2996,-244 2996,-244 2996,-126 2996,-93.1536 2996,-54.9837 2996,-32.197"/>
<polygon fill="#cccccc" stroke="#cccccc" points="2999.5,-32.0648 2996,-22.0648 2992.5,-32.0648 2999.5,-32.0648"/>
</g>
<!-- SequenceType&#45;&gt;EnumerateGenerator -->
<g id="edge4" class="edge">
<path fill="none" stroke="#cccccc" d="M3946.88,-357.012C3811.84,-353.747 3412.43,-341.769 3286,-312 3209.99,-294.104 3124,-322.086 3124,-244 3124,-244 3124,-244 3124,-126 3124,-93.1536 3124,-54.9837 3124,-32.197"/>
<polygon fill="#cccccc" stroke="#cccccc" points="3127.5,-32.0648 3124,-22.0648 3120.5,-32.0648 3127.5,-32.0648"/>
</g>
<!-- SequenceType&#45;&gt;EnumerateSequence -->
<g id="edge5" class="edge">
<path fill="none" stroke="#cccccc" d="M3946.75,-356.563C3827.99,-352.451 3509.57,-339.154 3408,-312 3340.01,-293.824 3265,-314.375 3265,-244 3265,-244 3265,-244 3265,-126 3265,-93.1536 3265,-54.9837 3265,-32.197"/>
<polygon fill="#cccccc" stroke="#cccccc" points="3268.5,-32.0648 3265,-22.0648 3261.5,-32.0648 3268.5,-32.0648"/>
</g>
<!-- SequenceType&#45;&gt;FilterGenerator -->
<g id="edge6" class="edge">
<path fill="none" stroke="#cccccc" d="M3946.88,-357.754C3865.89,-356.339 3691.02,-348.839 3549,-312 3474.6,-292.702 3390,-320.858 3390,-244 3390,-244 3390,-244 3390,-126 3390,-93.1536 3390,-54.9837 3390,-32.197"/>
<polygon fill="#cccccc" stroke="#cccccc" points="3393.5,-32.0648 3390,-22.0648 3386.5,-32.0648 3393.5,-32.0648"/>
</g>
<!-- SequenceType&#45;&gt;FilterSequenceView -->
<g id="edge7" class="edge">
<path fill="none" stroke="#cccccc" d="M3946.84,-356.844C3827.35,-352.567 3512,-332.863 3512,-244 3512,-244 3512,-244 3512,-126 3512,-93.1536 3512,-54.9837 3512,-32.197"/>
<polygon fill="#cccccc" stroke="#cccccc" points="3515.5,-32.0648 3512,-22.0648 3508.5,-32.0648 3515.5,-32.0648"/>
</g>
<!-- SequenceType&#45;&gt;GeneratorOf -->
<g id="edge8" class="edge">
<path fill="none" stroke="#cccccc" d="M3946.88,-353.51C3849.22,-342.544 3627,-310.304 3627,-244 3627,-244 3627,-244 3627,-126 3627,-93.1536 3627,-54.9837 3627,-32.197"/>
<polygon fill="#cccccc" stroke="#cccccc" points="3630.5,-32.0648 3627,-22.0648 3623.5,-32.0648 3630.5,-32.0648"/>
</g>
<!-- SequenceType&#45;&gt;GeneratorOfOne -->
<g id="edge9" class="edge">
<path fill="none" stroke="#cccccc" d="M3946.89,-357.693C3872.68,-354.548 3733,-336.361 3733,-244 3733,-244 3733,-244 3733,-126 3733,-93.1536 3733,-54.9837 3733,-32.197"/>
<polygon fill="#cccccc" stroke="#cccccc" points="3736.5,-32.0648 3733,-22.0648 3729.5,-32.0648 3736.5,-32.0648"/>
</g>
<!-- SequenceType&#45;&gt;GeneratorSequence -->
<g id="edge10" class="edge">
<path fill="none" stroke="#cccccc" d="M3963.36,-347.974C3924.54,-332.341 3860,-298.201 3860,-244 3860,-244 3860,-244 3860,-126 3860,-93.1536 3860,-54.9837 3860,-32.197"/>
<polygon fill="#cccccc" stroke="#cccccc" points="3863.5,-32.0648 3860,-22.0648 3856.5,-32.0648 3863.5,-32.0648"/>
</g>
<!-- SequenceType&#45;&gt;IndexingGenerator -->
<g id="edge11" class="edge">
<path fill="none" stroke="#cccccc" d="M3992,-347.935C3992,-328.066 3992,-282.396 3992,-244 3992,-244 3992,-244 3992,-126 3992,-93.1536 3992,-54.9837 3992,-32.197"/>
<polygon fill="#cccccc" stroke="#cccccc" points="3995.5,-32.0648 3992,-22.0648 3988.5,-32.0648 3995.5,-32.0648"/>
</g>
<!-- SequenceType&#45;&gt;LazySequence -->
<g id="edge12" class="edge">
<path fill="none" stroke="#cccccc" d="M4015.68,-347.869C4049.86,-331.46 4109,-295.616 4109,-244 4109,-244 4109,-244 4109,-126 4109,-93.1536 4109,-54.9837 4109,-32.197"/>
<polygon fill="#cccccc" stroke="#cccccc" points="4112.5,-32.0648 4109,-22.0648 4105.5,-32.0648 4112.5,-32.0648"/>
</g>
<!-- SequenceType&#45;&gt;MapSequenceGenerator -->
<g id="edge13" class="edge">
<path fill="none" stroke="#cccccc" d="M4037.27,-357.027C4109.32,-352.809 4242,-332.965 4242,-244 4242,-244 4242,-244 4242,-126 4242,-93.1536 4242,-54.9837 4242,-32.197"/>
<polygon fill="#cccccc" stroke="#cccccc" points="4245.5,-32.0648 4242,-22.0648 4238.5,-32.0648 4245.5,-32.0648"/>
</g>
<!-- SequenceType&#45;&gt;MapSequenceView -->
<g id="edge14" class="edge">
<path fill="none" stroke="#cccccc" d="M4037.31,-354.545C4141.07,-345.391 4387,-316.089 4387,-244 4387,-244 4387,-244 4387,-126 4387,-93.1536 4387,-54.9837 4387,-32.197"/>
<polygon fill="#cccccc" stroke="#cccccc" points="4390.5,-32.0648 4387,-22.0648 4383.5,-32.0648 4390.5,-32.0648"/>
</g>
<!-- SequenceType&#45;&gt;PermutationGenerator -->
<g id="edge15" class="edge">
<path fill="none" stroke="#cccccc" d="M4037.07,-357.927C4165.81,-356.514 4526,-343.656 4526,-244 4526,-244 4526,-244 4526,-126 4526,-93.1536 4526,-54.9837 4526,-32.197"/>
<polygon fill="#cccccc" stroke="#cccccc" points="4529.5,-32.0648 4526,-22.0648 4522.5,-32.0648 4529.5,-32.0648"/>
</g>
<!-- SequenceType&#45;&gt;RangeGenerator -->
<g id="edge16" class="edge">
<path fill="none" stroke="#cccccc" d="M4037.26,-357.878C4124.49,-356.74 4321.48,-349.779 4482,-312 4563.63,-292.789 4658,-327.858 4658,-244 4658,-244 4658,-244 4658,-126 4658,-93.1536 4658,-54.9837 4658,-32.197"/>
<polygon fill="#cccccc" stroke="#cccccc" points="4661.5,-32.0648 4658,-22.0648 4654.5,-32.0648 4661.5,-32.0648"/>
</g>
<!-- SequenceType&#45;&gt;SequenceOf -->
<g id="edge17" class="edge">
<path fill="none" stroke="#cccccc" d="M4037.12,-358.466C4135.71,-358.61 4377.28,-354.193 4574,-312 4661.7,-293.191 4764,-333.69 4764,-244 4764,-244 4764,-244 4764,-126 4764,-93.1536 4764,-54.9837 4764,-32.197"/>
<polygon fill="#cccccc" stroke="#cccccc" points="4767.5,-32.0648 4764,-22.0648 4760.5,-32.0648 4767.5,-32.0648"/>
</g>
<!-- StrideThrough -->
<g id="node39" class="node">
<g id="a_node39"><a xlink:href="/type/StrideThrough/" target="_top">
<polygon fill="#999999" stroke="#999999" points="4906.03,-22 4819.97,-22 4819.97,-0 4906.03,-0 4906.03,-22"/>
<text text-anchor="middle" x="4863" y="-7.4" font-family="Helvetica,sans-Serif" font-size="12.00" fill="white">StrideThrough</text>
</a>
</g>
</g>
<!-- SequenceType&#45;&gt;StrideThrough -->
<g id="edge18" class="edge">
<path fill="none" stroke="#cccccc" d="M4037.32,-356.57C4169.16,-352.151 4550.91,-337.458 4673,-312 4760.8,-293.692 4863,-333.69 4863,-244 4863,-244 4863,-244 4863,-126 4863,-93.1536 4863,-54.9837 4863,-32.197"/>
<polygon fill="#cccccc" stroke="#cccccc" points="4866.5,-32.0648 4863,-22.0648 4859.5,-32.0648 4866.5,-32.0648"/>
</g>
<!-- StrideTo -->
<g id="node40" class="node">
<g id="a_node40"><a xlink:href="/type/StrideTo/" target="_top">
<polygon fill="#999999" stroke="#999999" points="4978.02,-22 4923.98,-22 4923.98,-0 4978.02,-0 4978.02,-22"/>
<text text-anchor="middle" x="4951" y="-7.4" font-family="Helvetica,sans-Serif" font-size="12.00" fill="white">StrideTo</text>
</a>
</g>
</g>
<!-- SequenceType&#45;&gt;StrideTo -->
<g id="edge19" class="edge">
<path fill="none" stroke="#cccccc" d="M4037.14,-357.136C4181.42,-354.091 4630.24,-342.361 4772,-312 4855.22,-294.178 4951,-329.103 4951,-244 4951,-244 4951,-244 4951,-126 4951,-93.1536 4951,-54.9837 4951,-32.197"/>
<polygon fill="#cccccc" stroke="#cccccc" points="4954.5,-32.0648 4951,-22.0648 4947.5,-32.0648 4954.5,-32.0648"/>
</g>
<!-- SequenceType&#45;&gt;String.UnicodeScalarView -->
<g id="edge22" class="edge">
<path fill="none" stroke="#cccccc" d="M3946.85,-357.678C3549.52,-354.703 664,-330.13 664,-244 664,-244 664,-244 664,-126 664,-90.5184 682.78,-52.7402 695.802,-30.8107"/>
<polygon fill="#cccccc" stroke="#cccccc" points="698.857,-32.5245 701.125,-22.1752 692.898,-28.8513 698.857,-32.5245"/>
</g>
<!-- UnsafeBufferPointerGenerator -->
<g id="node47" class="node">
<g id="a_node47"><a xlink:href="/type/UnsafeBufferPointerGenerator/" target="_top">
<polygon fill="#999999" stroke="#999999" points="5167.41,-22 4996.59,-22 4996.59,-0 5167.41,-0 5167.41,-22"/>
<text text-anchor="middle" x="5082" y="-7.4" font-family="Helvetica,sans-Serif" font-size="12.00" fill="white">UnsafeBufferPointerGenerator</text>
</a>
</g>
</g>
<!-- SequenceType&#45;&gt;UnsafeBufferPointerGenerator -->
<g id="edge20" class="edge">
<path fill="none" stroke="#cccccc" d="M4037.1,-358.097C4242.81,-357.959 5082,-350.848 5082,-244 5082,-244 5082,-244 5082,-126 5082,-93.1536 5082,-54.9837 5082,-32.197"/>
<polygon fill="#cccccc" stroke="#cccccc" points="5085.5,-32.0648 5082,-22.0648 5078.5,-32.0648 5085.5,-32.0648"/>
</g>
<!-- Zip2 -->
<g id="node49" class="node">
<g id="a_node49"><a xlink:href="/type/Zip2/" target="_top">
<polygon fill="#999999" stroke="#999999" points="5240,-22 5186,-22 5186,-0 5240,-0 5240,-22"/>
<text text-anchor="middle" x="5213" y="-7.4" font-family="Helvetica,sans-Serif" font-size="12.00" fill="white">Zip2</text>
</a>
</g>
</g>
<!-- SequenceType&#45;&gt;Zip2 -->
<g id="edge21" class="edge">
<path fill="none" stroke="#cccccc" d="M4037.14,-357.311C4205.15,-354.525 4794.02,-342.743 4979,-312 5085.84,-294.244 5213,-352.302 5213,-244 5213,-244 5213,-244 5213,-126 5213,-93.1536 5213,-54.9837 5213,-32.197"/>
<polygon fill="#cccccc" stroke="#cccccc" points="5216.5,-32.0648 5213,-22.0648 5209.5,-32.0648 5216.5,-32.0648"/>
</g>
<!-- Sliceable -->
<g id="node38" class="node">
<g id="a_node38"><a xlink:href="/protocol/Sliceable/" target="_top">
<path fill="#999999" stroke="#999999" d="M590.691,-196C590.691,-196 547.309,-196 547.309,-196 543.642,-196 539.975,-192.333 539.975,-188.667 539.975,-188.667 539.975,-181.333 539.975,-181.333 539.975,-177.667 543.642,-174 547.309,-174 547.309,-174 590.691,-174 590.691,-174 594.358,-174 598.025,-177.667 598.025,-181.333 598.025,-181.333 598.025,-188.667 598.025,-188.667 598.025,-192.333 594.358,-196 590.691,-196"/>
<text text-anchor="middle" x="569" y="-181.4" font-family="Helvetica,sans-Serif" font-size="12.00" fill="white">Sliceable</text>
</a>
</g>
</g>
<!-- Sliceable&#45;&gt;Array -->
<g id="edge61" class="edge">
<path fill="none" stroke="#cccccc" d="M557.279,-173.988C541.602,-160.636 512.89,-136.321 488,-116 449.602,-84.6503 404.165,-48.8672 378.15,-28.5023"/>
<polygon fill="#cccccc" stroke="#cccccc" points="380.143,-25.6182 370.11,-22.2156 375.832,-31.1326 380.143,-25.6182"/>
</g>
<!-- Sliceable&#45;&gt;ArraySlice -->
<g id="edge62" class="edge">
<path fill="none" stroke="#cccccc" d="M562.637,-173.831C554.286,-160.51 539.145,-136.442 526,-116 506.674,-85.9463 483.89,-51.2465 470.213,-30.4936"/>
<polygon fill="#cccccc" stroke="#cccccc" points="473.043,-28.4271 464.615,-22.0066 467.2,-32.2814 473.043,-28.4271"/>
</g>
<!-- Sliceable&#45;&gt;ContiguousArray -->
<g id="edge63" class="edge">
<path fill="none" stroke="#cccccc" d="M547.955,-173.964C518.68,-160.159 463.861,-134.88 416,-116 370.499,-98.051 352.281,-107.748 312,-80 293.09,-66.9738 276.876,-46.0622 266.63,-30.8647"/>
<polygon fill="#cccccc" stroke="#cccccc" points="269.429,-28.7475 261.051,-22.262 263.556,-32.5565 269.429,-28.7475"/>
</g>
<!-- Sliceable&#45;&gt;MutableSliceable -->
<g id="edge64" class="edge">
<path fill="none" stroke="#cccccc" d="M539.967,-176.331C505.185,-167.143 446.417,-151.62 404.881,-140.648"/>
<polygon fill="#cccccc" stroke="#cccccc" points="405.544,-137.203 394.982,-138.033 403.756,-143.971 405.544,-137.203"/>
</g>
<!-- Sliceable&#45;&gt;String -->
<g id="edge65" class="edge">
<path fill="none" stroke="#cccccc" d="M598.16,-182.45C679.982,-177.805 907.194,-162.77 929,-138 963.233,-99.1142 895.497,-51.0034 854.735,-27.0397"/>
<polygon fill="#cccccc" stroke="#cccccc" points="856.421,-23.9717 846.005,-22.0313 852.937,-30.0435 856.421,-23.9717"/>
</g>
<!-- String.UTF16View -->
<g id="node42" class="node">
<g id="a_node42"><a xlink:href="/type/String.UTF16View/" target="_top">
<polygon fill="#999999" stroke="#999999" points="615.365,-22 508.635,-22 508.635,-0 615.365,-0 615.365,-22"/>
<text text-anchor="middle" x="562" y="-7.4" font-family="Helvetica,sans-Serif" font-size="12.00" fill="white">String.UTF16View</text>
</a>
</g>
</g>
<!-- Sliceable&#45;&gt;String.UTF16View -->
<g id="edge66" class="edge">
<path fill="none" stroke="#cccccc" d="M568.611,-173.873C567.787,-152.476 565.792,-101.09 564,-58 563.652,-49.6401 563.255,-40.4263 562.906,-32.4545"/>
<polygon fill="#cccccc" stroke="#cccccc" points="566.392,-32.0672 562.456,-22.2308 559.399,-32.3751 566.392,-32.0672"/>
</g>
<!-- Sliceable&#45;&gt;String.UnicodeScalarView -->
<g id="edge67" class="edge">
<path fill="none" stroke="#cccccc" d="M574.093,-173.747C585.587,-151.22 615.266,-96.362 650,-58 660.074,-46.8743 673.026,-36.3267 684.135,-28.145"/>
<polygon fill="#cccccc" stroke="#cccccc" points="686.457,-30.787 692.558,-22.1248 682.387,-25.0919 686.457,-30.787"/>
</g>
<!-- _ArrayType&#45;&gt;Array -->
<g id="edge50" class="edge">
<path fill="none" stroke="#cccccc" d="M357,-57.9883C357,-50.9098 357,-41.1714 357,-32.4779"/>
<polygon fill="#cccccc" stroke="#cccccc" points="360.5,-32.3038 357,-22.3039 353.5,-32.3039 360.5,-32.3038"/>
</g>
<!-- _ArrayType&#45;&gt;ArraySlice -->
<g id="edge51" class="edge">
<path fill="none" stroke="#cccccc" d="M375.057,-57.9883C390.615,-49.3619 413.298,-36.785 431.013,-26.9633"/>
<polygon fill="#cccccc" stroke="#cccccc" points="432.711,-30.0239 439.759,-22.1138 429.316,-23.902 432.711,-30.0239"/>
</g>
<!-- _ArrayType&#45;&gt;ContiguousArray -->
<g id="edge52" class="edge">
<path fill="none" stroke="#cccccc" d="M338.764,-57.9883C323.052,-49.3619 300.144,-36.785 282.255,-26.9633"/>
<polygon fill="#cccccc" stroke="#cccccc" points="283.872,-23.8584 273.422,-22.1138 280.503,-29.9945 283.872,-23.8584"/>
</g>
<!-- _ExtensibleCollectionType&#45;&gt;ExtensibleCollectionType -->
<g id="edge53" class="edge">
<path fill="none" stroke="#cccccc" d="M905.849,-231.988C900.399,-224.359 892.743,-213.64 886.193,-204.47"/>
<polygon fill="#cccccc" stroke="#cccccc" points="889.02,-202.407 880.36,-196.304 883.324,-206.476 889.02,-202.407"/>
</g>
<!-- _SequenceType -->
<g id="node53" class="node">
<g id="a_node53"><a xlink:href="/protocol/_SequenceType/" target="_top">
<path fill="#999999" stroke="#999999" d="M4032.72,-486C4032.72,-486 3951.28,-486 3951.28,-486 3947.61,-486 3943.94,-482.333 3943.94,-478.667 3943.94,-478.667 3943.94,-471.333 3943.94,-471.333 3943.94,-467.667 3947.61,-464 3951.28,-464 3951.28,-464 4032.72,-464 4032.72,-464 4036.39,-464 4040.06,-467.667 4040.06,-471.333 4040.06,-471.333 4040.06,-478.667 4040.06,-478.667 4040.06,-482.333 4036.39,-486 4032.72,-486"/>
<text text-anchor="middle" x="3992" y="-471.4" font-family="Helvetica,sans-Serif" font-size="12.00" fill="white">_SequenceType</text>
</a>
</g>
</g>
<!-- _Sequence_Type -->
<g id="node54" class="node">
<g id="a_node54"><a xlink:href="/protocol/_Sequence_Type/" target="_top">
<path fill="#ee543d" stroke="#ee543d" d="M4036.23,-428C4036.23,-428 3947.77,-428 3947.77,-428 3944.11,-428 3940.44,-424.333 3940.44,-420.667 3940.44,-420.667 3940.44,-413.333 3940.44,-413.333 3940.44,-409.667 3944.11,-406 3947.77,-406 3947.77,-406 4036.23,-406 4036.23,-406 4039.89,-406 4043.56,-409.667 4043.56,-413.333 4043.56,-413.333 4043.56,-420.667 4043.56,-420.667 4043.56,-424.333 4039.89,-428 4036.23,-428"/>
<text text-anchor="middle" x="3992" y="-413.4" font-family="Helvetica,sans-Serif" font-size="12.00" fill="white">_Sequence_Type</text>
</a>
</g>
</g>
<!-- _SequenceType&#45;&gt;_Sequence_Type -->
<g id="edge68" class="edge">
<path fill="none" stroke="#cccccc" d="M3992,-463.988C3992,-456.91 3992,-447.171 3992,-438.478"/>
<polygon fill="#cccccc" stroke="#cccccc" points="3995.5,-438.304 3992,-428.304 3988.5,-438.304 3995.5,-438.304"/>
</g>
<!-- _Sequence_Type&#45;&gt;SequenceType -->
<g id="edge1" class="edge">
<path fill="none" stroke="#cccccc" d="M3992,-405.988C3992,-398.91 3992,-389.171 3992,-380.478"/>
<polygon fill="#cccccc" stroke="#cccccc" points="3995.5,-380.304 3992,-370.304 3988.5,-380.304 3995.5,-380.304"/>
</g>
<!-- _Sliceable&#45;&gt;Sliceable -->
<g id="edge60" class="edge">
<path fill="none" stroke="#cccccc" d="M738.545,-233.003C702.918,-223.126 645.746,-207.276 607.784,-196.752"/>
<polygon fill="#cccccc" stroke="#cccccc" points="608.668,-193.365 598.096,-194.066 606.798,-200.111 608.668,-193.365"/>
</g>
</g>
</svg>
