<?xml version="1.0" encoding="UTF-8" standalone="no"?>
<!DOCTYPE svg PUBLIC "-//W3C//DTD SVG 1.1//EN"
 "http://www.w3.org/Graphics/SVG/1.1/DTD/svg11.dtd">
<!-- Generated by graphviz version 2.36.0 (20140111.2315)
 -->
<!-- Title: EnumerateGenerator&lt;Base : GeneratorType&gt; &#45; Type Hierarchy &#45; SwiftDoc.org Pages: 1 -->
<svg width="268pt" height="195pt"
 viewBox="0.00 0.00 268.40 195.20" xmlns="http://www.w3.org/2000/svg" xmlns:xlink="http://www.w3.org/1999/xlink">
<g id="graph0" class="graph" transform="scale(1 1) rotate(0) translate(7.2 137.6)">
<title>EnumerateGenerator&lt;Base : GeneratorType&gt; &#45; Type Hierarchy &#45; SwiftDoc.org</title>
<polygon fill="white" stroke="none" points="-7.2,57.6 -7.2,-137.6 261.2,-137.6 261.2,57.6 -7.2,57.6"/>
<!-- EnumerateGenerator&lt;Base : GeneratorType&gt; -->
<g id="node1" class="node"><title>EnumerateGenerator&lt;Base : GeneratorType&gt;</title>
<g id="a_node1"><a xlink:href="/type/EnumerateGenerator/" xlink:title="EnumerateGenerator&lt;Base : GeneratorType&gt;">
<polygon fill="#ee543d" stroke="#ee543d" points="254.111,-22 -0.11135,-22 -0.11135,-0 254.111,-0 254.111,-22"/>
<text text-anchor="middle" x="127" y="-7.4" font-family="Helvetica,sans-Serif" font-size="12.00" fill="white">EnumerateGenerator&lt;Base : GeneratorType&gt;</text>
</a>
</g>
</g>
<!-- GeneratorType -->
<g id="node2" class="node"><title>GeneratorType</title>
<g id="a_node2"><a xlink:href="/protocol/GeneratorType/" xlink:title="GeneratorType">
<path fill="#999999" stroke="#999999" d="M110.705,-80C110.705,-80 35.2952,-80 35.2952,-80 31.6286,-80 27.9619,-76.3333 27.9619,-72.6667 27.9619,-72.6667 27.9619,-65.3333 27.9619,-65.3333 27.9619,-61.6667 31.6286,-58 35.2952,-58 35.2952,-58 110.705,-58 110.705,-58 114.371,-58 118.038,-61.6667 118.038,-65.3333 118.038,-65.3333 118.038,-72.6667 118.038,-72.6667 118.038,-76.3333 114.371,-80 110.705,-80"/>
<text text-anchor="middle" x="73" y="-65.4" font-family="Helvetica,sans-Serif" font-size="12.00" fill="white">GeneratorType</text>
</a>
</g>
</g>
<!-- GeneratorType&#45;&gt;EnumerateGenerator&lt;Base : GeneratorType&gt; -->
<g id="edge1" class="edge"><title>GeneratorType&#45;&gt;EnumerateGenerator&lt;Base : GeneratorType&gt;</title>
<path fill="none" stroke="#cccccc" d="M82.6541,-57.9883C90.2383,-50.1233 100.989,-38.9745 110.006,-29.6239"/>
<polygon fill="#cccccc" stroke="#cccccc" points="112.642,-31.9318 117.064,-22.3039 107.603,-27.0729 112.642,-31.9318"/>
</g>
<!-- SequenceType -->
<g id="node3" class="node"><title>SequenceType</title>
<g id="a_node3"><a xlink:href="/protocol/SequenceType/" xlink:title="SequenceType">
<path fill="#999999" stroke="#999999" d="M218.718,-80C218.718,-80 143.282,-80 143.282,-80 139.615,-80 135.949,-76.3333 135.949,-72.6667 135.949,-72.6667 135.949,-65.3333 135.949,-65.3333 135.949,-61.6667 139.615,-58 143.282,-58 143.282,-58 218.718,-58 218.718,-58 222.385,-58 226.051,-61.6667 226.051,-65.3333 226.051,-65.3333 226.051,-72.6667 226.051,-72.6667 226.051,-76.3333 222.385,-80 218.718,-80"/>
<text text-anchor="middle" x="181" y="-65.4" font-family="Helvetica,sans-Serif" font-size="12.00" fill="white">SequenceType</text>
</a>
</g>
</g>
<!-- SequenceType&#45;&gt;EnumerateGenerator&lt;Base : GeneratorType&gt; -->
<g id="edge2" class="edge"><title>SequenceType&#45;&gt;EnumerateGenerator&lt;Base : GeneratorType&gt;</title>
<path fill="none" stroke="#cccccc" d="M171.346,-57.9883C163.762,-50.1233 153.011,-38.9745 143.994,-29.6239"/>
<polygon fill="#cccccc" stroke="#cccccc" points="146.397,-27.0729 136.936,-22.3039 141.358,-31.9318 146.397,-27.0729"/>
</g>
</g>
</svg>
