<?xml version="1.0" encoding="UTF-8" standalone="no"?>
<!DOCTYPE svg PUBLIC "-//W3C//DTD SVG 1.1//EN"
 "http://www.w3.org/Graphics/SVG/1.1/DTD/svg11.dtd">
<!-- Generated by graphviz version 2.36.0 (20140111.2315)
 -->
<!-- Title: _ObjectiveCBridgeable &#45; Type Hierarchy &#45; SwiftDoc.org Pages: 1 -->
<svg width="176pt" height="195pt"
 viewBox="0.00 0.00 176.40 195.20" xmlns="http://www.w3.org/2000/svg" xmlns:xlink="http://www.w3.org/1999/xlink">
<g id="graph0" class="graph" transform="scale(1 1) rotate(0) translate(7.2 137.6)">
<title>_ObjectiveCBridgeable &#45; Type Hierarchy &#45; SwiftDoc.org</title>
<polygon fill="white" stroke="none" points="-7.2,57.6 -7.2,-137.6 169.2,-137.6 169.2,57.6 -7.2,57.6"/>
<!-- ImplicitlyUnwrappedOptional -->
<g id="node1" class="node"><title>ImplicitlyUnwrappedOptional</title>
<g id="a_node1"><a xlink:href="/type/ImplicitlyUnwrappedOptional/" xlink:title="ImplicitlyUnwrappedOptional">
<polygon fill="#999999" stroke="#999999" points="162.051,-22 -0.0512767,-22 -0.0512767,-0 162.051,-0 162.051,-22"/>
<text text-anchor="middle" x="81" y="-7.4" font-family="Helvetica,sans-Serif" font-size="12.00" fill="white">ImplicitlyUnwrappedOptional</text>
</a>
</g>
</g>
<!-- _ObjectiveCBridgeable -->
<g id="node2" class="node"><title>_ObjectiveCBridgeable</title>
<g id="a_node2"><a xlink:href="/protocol/_ObjectiveCBridgeable/" xlink:title="_ObjectiveCBridgeable">
<path fill="#ee543d" stroke="#ee543d" d="M139.72,-80C139.72,-80 22.2805,-80 22.2805,-80 18.6138,-80 14.9471,-76.3333 14.9471,-72.6667 14.9471,-72.6667 14.9471,-65.3333 14.9471,-65.3333 14.9471,-61.6667 18.6138,-58 22.2805,-58 22.2805,-58 139.72,-58 139.72,-58 143.386,-58 147.053,-61.6667 147.053,-65.3333 147.053,-65.3333 147.053,-72.6667 147.053,-72.6667 147.053,-76.3333 143.386,-80 139.72,-80"/>
<text text-anchor="middle" x="81" y="-65.4" font-family="Helvetica,sans-Serif" font-size="12.00" fill="white">_ObjectiveCBridgeable</text>
</a>
</g>
</g>
<!-- _ObjectiveCBridgeable&#45;&gt;ImplicitlyUnwrappedOptional -->
<g id="edge1" class="edge"><title>_ObjectiveCBridgeable&#45;&gt;ImplicitlyUnwrappedOptional</title>
<path fill="none" stroke="#cccccc" d="M81,-57.9883C81,-50.9098 81,-41.1714 81,-32.4779"/>
<polygon fill="#cccccc" stroke="#cccccc" points="84.5001,-32.3038 81,-22.3039 77.5001,-32.3039 84.5001,-32.3038"/>
</g>
</g>
</svg>
