<?xml version="1.0" encoding="UTF-8" standalone="no"?>
<!DOCTYPE svg PUBLIC "-//W3C//DTD SVG 1.1//EN"
 "http://www.w3.org/Graphics/SVG/1.1/DTD/svg11.dtd">
<!-- Generated by graphviz version 2.36.0 (20140111.2315)
 -->
<!-- Title: Equatable &#45; Type Hierarchy &#45; SwiftDoc.org Pages: 1 -->
<svg width="5906pt" height="427pt"
 viewBox="0.00 0.00 5906.40 427.20" xmlns="http://www.w3.org/2000/svg" xmlns:xlink="http://www.w3.org/1999/xlink">
<g id="graph0" class="graph" transform="scale(1 1) rotate(0) translate(7.2 369.6)">
<g transform="translate(0 -369.6)">
<g>
    <path fill="#666666" d="M13.846,10.832c-0.336-0.464-0.792-0.844-1.368-1.14s-1.224-0.444-1.944-0.444
        c-0.384,0-0.772,0.052-1.164,0.156C8.977,9.509,8.622,9.677,8.301,9.908c-0.32,0.232-0.58,0.52-0.78,0.864
        c-0.2,0.344-0.3,0.756-0.3,1.236c0,0.464,0.092,0.852,0.276,1.164c0.184,0.312,0.432,0.576,0.744,0.792s0.68,0.4,1.104,0.552
        c0.423,0.152,0.876,0.309,1.356,0.468c0.576,0.177,1.16,0.376,1.752,0.601c0.592,0.224,1.128,0.52,1.608,0.888
        s0.872,0.828,1.176,1.38s0.456,1.252,0.456,2.101c0,0.88-0.164,1.644-0.492,2.292c-0.328,0.647-0.765,1.184-1.308,1.607
        c-0.544,0.424-1.172,0.74-1.884,0.948s-1.444,0.312-2.196,0.312c-1.072,0-2.108-0.208-3.108-0.624
        c-1-0.415-1.828-1.031-2.484-1.848l1.848-1.56c0.4,0.592,0.936,1.071,1.608,1.439c0.672,0.368,1.399,0.552,2.184,0.552
        c0.4,0,0.8-0.056,1.2-0.168c0.4-0.111,0.764-0.288,1.092-0.527c0.328-0.24,0.596-0.54,0.804-0.9
        c0.208-0.36,0.312-0.796,0.312-1.308s-0.108-0.94-0.324-1.284c-0.216-0.344-0.508-0.636-0.876-0.876s-0.796-0.444-1.284-0.612
        c-0.488-0.168-1.004-0.34-1.548-0.516c-0.544-0.16-1.08-0.356-1.608-0.588c-0.528-0.232-1-0.528-1.416-0.889
        c-0.416-0.359-0.752-0.804-1.008-1.332c-0.256-0.527-0.384-1.184-0.384-1.968c0-0.848,0.172-1.576,0.516-2.184
        c0.344-0.608,0.792-1.112,1.344-1.512c0.552-0.4,1.176-0.692,1.872-0.876c0.696-0.184,1.396-0.276,2.1-0.276
        c0.992,0,1.92,0.176,2.784,0.528c0.864,0.352,1.56,0.824,2.088,1.416L13.846,10.832z"/>
    <path fill="#666666" d="M18.813,13.304l2.568,8.688h0.048l2.712-8.688h2.376l2.76,8.688h0.048l2.568-8.688h2.376L30.501,24.68
        h-2.352l-2.808-8.544h-0.048l-2.784,8.544h-2.352l-3.792-11.376H18.813z"/>
    <path fill="#666666" d="M38.685,9.2c0,0.416-0.147,0.76-0.44,1.032c-0.294,0.272-0.647,0.408-1.06,0.408s-0.762-0.14-1.047-0.42
        c-0.286-0.28-0.429-0.62-0.429-1.02c0-0.416,0.143-0.764,0.429-1.044c0.286-0.28,0.635-0.42,1.047-0.42s0.766,0.14,1.06,0.42
        C38.538,8.437,38.685,8.784,38.685,9.2z M38.325,24.68h-2.256V13.304h2.256V24.68z"/>
    <path fill="#666666" d="M47.613,15.152h-2.64v9.528h-2.256v-9.528h-2.256v-1.848h2.256v-2.376c0-0.672,0.076-1.292,0.228-1.86
        c0.152-0.568,0.4-1.06,0.744-1.476c0.344-0.416,0.784-0.744,1.32-0.984c0.536-0.24,1.188-0.36,1.956-0.36
        c0.544,0,1.016,0.056,1.416,0.168l-0.264,1.944c-0.176-0.048-0.352-0.088-0.528-0.12c-0.176-0.032-0.376-0.048-0.6-0.048
        c-0.432,0-0.78,0.076-1.044,0.228c-0.264,0.152-0.468,0.356-0.612,0.612s-0.24,0.548-0.288,0.876
        c-0.048,0.328-0.072,0.668-0.072,1.02v2.376h2.64V15.152z"/>
    <path fill="#666666" d="M54.909,15.152h-3.024v5.91c0,0.687,0.128,1.177,0.384,1.472c0.256,0.295,0.664,0.442,1.224,0.442
        c0.208,0,0.432-0.021,0.672-0.065c0.24-0.044,0.456-0.11,0.648-0.198l0.072,1.848c-0.272,0.096-0.572,0.172-0.9,0.229
        c-0.328,0.056-0.668,0.084-1.02,0.084c-1.072,0-1.892-0.296-2.46-0.889c-0.568-0.592-0.852-1.479-0.852-2.664v-6.168h-2.184
        v-1.848h2.184V10.04h2.232v3.264h3.024V15.152z"/>
    <path fill="#666666" d="M57.356,7.688h5.832c1.088,0,2.176,0.16,3.264,0.48c1.088,0.32,2.072,0.824,2.952,1.512
        s1.592,1.568,2.136,2.64c0.544,1.072,0.816,2.36,0.816,3.864c0,1.456-0.272,2.716-0.816,3.78s-1.256,1.943-2.136,2.64
        s-1.864,1.216-2.952,1.561c-1.088,0.344-2.176,0.516-3.264,0.516h-5.832V7.688z M59.732,22.593h2.976
        c1.024,0,1.972-0.145,2.844-0.432c0.872-0.288,1.624-0.704,2.256-1.248c0.632-0.544,1.124-1.216,1.476-2.017
        c0.352-0.8,0.528-1.704,0.528-2.712c0-1.056-0.176-1.983-0.528-2.784c-0.353-0.8-0.844-1.468-1.476-2.004
        c-0.632-0.536-1.384-0.944-2.256-1.224s-1.82-0.42-2.844-0.42h-2.976V22.593z"/>
    <path fill="#666666" d="M86.06,18.969c0,0.88-0.156,1.688-0.468,2.424c-0.312,0.736-0.744,1.372-1.296,1.908
        c-0.552,0.536-1.204,0.952-1.956,1.248c-0.752,0.296-1.56,0.443-2.424,0.443c-0.864,0-1.672-0.147-2.424-0.443
        c-0.752-0.296-1.4-0.712-1.944-1.248c-0.544-0.536-0.972-1.172-1.284-1.908c-0.312-0.735-0.468-1.544-0.468-2.424
        s0.156-1.684,0.468-2.412c0.312-0.728,0.74-1.356,1.284-1.884c0.543-0.528,1.191-0.939,1.944-1.236
        c0.752-0.296,1.56-0.444,2.424-0.444c0.864,0,1.672,0.148,2.424,0.444c0.752,0.297,1.404,0.708,1.956,1.236
        c0.552,0.527,0.984,1.156,1.296,1.884C85.904,17.285,86.06,18.089,86.06,18.969z M83.708,18.98c0-0.542-0.084-1.061-0.252-1.556
        c-0.169-0.494-0.414-0.929-0.734-1.304s-0.718-0.674-1.192-0.897s-1.015-0.335-1.625-0.335c-0.61,0-1.152,0.111-1.625,0.335
        c-0.474,0.224-0.871,0.522-1.191,0.897c-0.321,0.375-0.566,0.81-0.734,1.304C76.184,17.92,76.1,18.438,76.1,18.98
        c0,0.543,0.084,1.062,0.253,1.556c0.168,0.495,0.413,0.934,0.734,1.316c0.321,0.383,0.718,0.686,1.191,0.909
        c0.473,0.224,1.015,0.335,1.625,0.335c0.61,0,1.151-0.111,1.625-0.335s0.871-0.526,1.192-0.909s0.565-0.821,0.734-1.316
        C83.624,20.042,83.708,19.523,83.708,18.98z"/>
    <path fill="#666666" d="M96.428,16.184c-0.24-0.368-0.6-0.676-1.08-0.924s-0.992-0.372-1.536-0.372
        c-0.592,0-1.116,0.112-1.572,0.336c-0.456,0.225-0.844,0.524-1.164,0.9c-0.32,0.376-0.564,0.812-0.732,1.308
        s-0.252,1.017-0.252,1.56c0,0.545,0.084,1.064,0.252,1.561s0.412,0.933,0.732,1.308c0.32,0.376,0.712,0.677,1.176,0.9
        c0.464,0.225,0.992,0.336,1.584,0.336c0.576,0,1.1-0.111,1.572-0.336c0.472-0.224,0.86-0.528,1.164-0.912l1.512,1.368
        c-0.48,0.561-1.08,0.996-1.8,1.308c-0.72,0.312-1.536,0.468-2.448,0.468c-0.88,0-1.692-0.144-2.436-0.432
        c-0.744-0.288-1.388-0.691-1.932-1.212c-0.544-0.52-0.972-1.147-1.284-1.884s-0.468-1.561-0.468-2.473
        c0-0.896,0.152-1.711,0.456-2.447c0.304-0.736,0.728-1.368,1.272-1.896c0.543-0.527,1.188-0.936,1.932-1.224
        c0.744-0.288,1.548-0.433,2.412-0.433c0.8,0,1.596,0.16,2.388,0.48s1.419,0.784,1.884,1.392L96.428,16.184z"/>
    <path fill="#666666" d="M103.1,23.24c0,0.417-0.152,0.784-0.456,1.104c-0.304,0.32-0.688,0.479-1.152,0.479
        c-0.448,0-0.828-0.155-1.14-0.468c-0.312-0.312-0.468-0.676-0.468-1.092c0-0.432,0.152-0.804,0.456-1.116
        c0.304-0.312,0.688-0.468,1.152-0.468c0.464,0,0.848,0.152,1.152,0.456C102.947,22.44,103.1,22.808,103.1,23.24z"/>
    <path fill="#666666" d="M116.635,18.969c0,0.88-0.156,1.688-0.468,2.424c-0.312,0.736-0.744,1.372-1.296,1.908
        c-0.552,0.536-1.204,0.952-1.956,1.248c-0.752,0.296-1.56,0.443-2.424,0.443c-0.864,0-1.672-0.147-2.424-0.443
        c-0.752-0.296-1.4-0.712-1.944-1.248c-0.544-0.536-0.972-1.172-1.284-1.908c-0.312-0.735-0.468-1.544-0.468-2.424
        s0.156-1.684,0.468-2.412c0.312-0.728,0.74-1.356,1.284-1.884c0.543-0.528,1.191-0.939,1.944-1.236
        c0.752-0.296,1.56-0.444,2.424-0.444c0.864,0,1.672,0.148,2.424,0.444c0.752,0.297,1.404,0.708,1.956,1.236
        c0.552,0.527,0.984,1.156,1.296,1.884C116.479,17.285,116.635,18.089,116.635,18.969z M114.283,18.98
        c0-0.542-0.084-1.061-0.252-1.556c-0.169-0.494-0.414-0.929-0.734-1.304s-0.718-0.674-1.192-0.897s-1.015-0.335-1.625-0.335
        c-0.61,0-1.152,0.111-1.625,0.335c-0.474,0.224-0.871,0.522-1.191,0.897c-0.321,0.375-0.566,0.81-0.734,1.304
        c-0.169,0.495-0.253,1.014-0.253,1.556c0,0.543,0.084,1.062,0.253,1.556c0.168,0.495,0.413,0.934,0.734,1.316
        c0.321,0.383,0.718,0.686,1.191,0.909c0.473,0.224,1.015,0.335,1.625,0.335c0.61,0,1.151-0.111,1.625-0.335
        s0.871-0.526,1.192-0.909s0.565-0.821,0.734-1.316C114.199,20.042,114.283,19.523,114.283,18.98z"/>
    <path fill="#666666" d="M119.251,14.577c-0.016-0.48-0.04-0.904-0.072-1.272h2.136c0.032,0.288,0.056,0.62,0.072,0.996
        c0.016,0.376,0.024,0.684,0.024,0.924h0.072c0.32-0.672,0.788-1.212,1.404-1.62c0.616-0.408,1.308-0.612,2.076-0.612
        c0.352,0,0.648,0.033,0.888,0.097l-0.096,2.088c-0.32-0.08-0.664-0.12-1.032-0.12c-0.544,0-1.016,0.101-1.416,0.3
        c-0.4,0.2-0.732,0.468-0.996,0.805c-0.264,0.336-0.46,0.724-0.588,1.163c-0.128,0.44-0.192,0.9-0.192,1.381v5.976h-2.256v-8.928
        C119.275,15.449,119.267,15.056,119.251,14.577z"/>
    <path fill="#666666" d="M128.419,26.625c0.496,0.56,1.116,1.008,1.86,1.344c0.744,0.336,1.508,0.504,2.292,0.504
        c0.752,0,1.384-0.108,1.896-0.324s0.924-0.512,1.236-0.888s0.536-0.82,0.672-1.332c0.136-0.513,0.204-1.064,0.204-1.656v-1.464
        h-0.048c-0.416,0.641-0.984,1.128-1.704,1.464c-0.72,0.336-1.488,0.504-2.304,0.504c-0.864,0-1.652-0.151-2.364-0.456
        c-0.712-0.304-1.316-0.72-1.812-1.248c-0.496-0.527-0.88-1.147-1.152-1.859s-0.408-1.477-0.408-2.292
        c0-0.816,0.136-1.584,0.408-2.305c0.272-0.72,0.656-1.348,1.152-1.884c0.496-0.535,1.096-0.96,1.8-1.271
        c0.704-0.312,1.488-0.469,2.352-0.469c0.816,0,1.596,0.177,2.34,0.528c0.744,0.353,1.332,0.888,1.764,1.608h0.048v-1.824h2.184
        v10.8c0,0.832-0.104,1.628-0.312,2.388c-0.208,0.76-0.56,1.433-1.056,2.017s-1.144,1.052-1.944,1.404
        c-0.8,0.352-1.792,0.527-2.976,0.527c-0.992,0-1.988-0.18-2.988-0.54c-1-0.359-1.86-0.868-2.58-1.523L128.419,26.625z
         M129.091,18.873c0,0.527,0.084,1.031,0.253,1.512c0.168,0.479,0.417,0.904,0.746,1.271c0.329,0.369,0.726,0.664,1.192,0.889
        c0.465,0.224,0.995,0.336,1.589,0.336c0.577,0,1.107-0.104,1.589-0.312c0.481-0.207,0.891-0.491,1.228-0.852
        s0.598-0.784,0.782-1.272c0.185-0.487,0.277-1.012,0.277-1.571c0-0.544-0.093-1.057-0.277-1.536
        c-0.185-0.48-0.449-0.904-0.794-1.272c-0.345-0.367-0.755-0.66-1.228-0.876c-0.474-0.216-1-0.324-1.577-0.324
        c-0.594,0-1.124,0.108-1.589,0.324c-0.466,0.216-0.863,0.504-1.192,0.864s-0.578,0.784-0.746,1.271
        C129.175,17.812,129.091,18.329,129.091,18.873z"/>
</g>
<g><a xlink:href="/" pointer-events="all" target="_top"><polygon fill="none" points="0,0 145,0 145,35 0,35 0,0"/></a></g>

</g>


<!-- AnyHashable -->
<g id="node1" class="node">
<g id="a_node1"><a xlink:href="/v4.2/type/AnyHashable/hierarchy/" target="_top">
<polygon fill="#999999" stroke="#999999" points="3975.53,-22 3894.47,-22 3894.47,-0 3975.53,-0 3975.53,-22"/>
<text text-anchor="middle" x="3935" y="-7.4" font-family="Helvetica,sans-Serif" font-size="12.00" fill="white">AnyHashable</text>
</a>
</g>
</g>
<!-- AnyIndex -->
<g id="node2" class="node">
<g id="a_node2"><a xlink:href="/v4.2/type/AnyIndex/hierarchy/" target="_top">
<polygon fill="#999999" stroke="#999999" points="60.0249,-22 -0.0249069,-22 -0.0249069,-0 60.0249,-0 60.0249,-22"/>
<text text-anchor="middle" x="30" y="-7.4" font-family="Helvetica,sans-Serif" font-size="12.00" fill="white">AnyIndex</text>
</a>
</g>
</g>
<!-- AnyKeyPath -->
<g id="node3" class="node">
<g id="a_node3"><a xlink:href="/v4.2/type/AnyKeyPath/hierarchy/" target="_top">
<polygon fill="#999999" stroke="#999999" points="4070.03,-22 3993.97,-22 3993.97,-0 4070.03,-0 4070.03,-22"/>
<text text-anchor="middle" x="4032" y="-7.4" font-family="Helvetica,sans-Serif" font-size="12.00" fill="white">AnyKeyPath</text>
</a>
</g>
</g>
<!-- PartialKeyPath -->
<g id="node43" class="node">
<g id="a_node43"><a xlink:href="/v4.2/type/PartialKeyPath/hierarchy/" target="_top">
<polygon fill="#999999" stroke="#999999" points="4382.53,-22 4293.47,-22 4293.47,-0 4382.53,-0 4382.53,-22"/>
<text text-anchor="middle" x="4338" y="-7.4" font-family="Helvetica,sans-Serif" font-size="12.00" fill="white">PartialKeyPath</text>
</a>
</g>
</g>
<!-- AnyKeyPath&#45;&gt;PartialKeyPath -->
<g id="edge92" class="edge">
<path fill="none" stroke="#cccccc" d="M4048.32,-22.1157C4059.07,-28.7452 4073.75,-36.5281 4088,-40 4168.75,-59.6682 4193.81,-57.7884 4275,-40 4287.19,-37.3291 4299.84,-32.0677 4310.57,-26.7511"/>
<polygon fill="#cccccc" stroke="#cccccc" points="4312.2,-29.8499 4319.45,-22.1284 4308.97,-23.6406 4312.2,-29.8499"/>
</g>
<!-- Array -->
<g id="node4" class="node">
<g id="a_node4"><a xlink:href="/v4.2/type/Array/hierarchy/" target="_top">
<polygon fill="#999999" stroke="#999999" points="4817,-22 4763,-22 4763,-0 4817,-0 4817,-22"/>
<text text-anchor="middle" x="4790" y="-7.4" font-family="Helvetica,sans-Serif" font-size="12.00" fill="white">Array</text>
</a>
</g>
</g>
<!-- ArraySlice -->
<g id="node5" class="node">
<g id="a_node5"><a xlink:href="/v4.2/type/ArraySlice/hierarchy/" target="_top">
<polygon fill="#999999" stroke="#999999" points="4899.01,-22 4834.99,-22 4834.99,-0 4899.01,-0 4899.01,-22"/>
<text text-anchor="middle" x="4867" y="-7.4" font-family="Helvetica,sans-Serif" font-size="12.00" fill="white">ArraySlice</text>
</a>
</g>
</g>
<!-- AutoreleasingUnsafeMutablePointer -->
<g id="node6" class="node">
<g id="a_node6"><a xlink:href="/v4.2/type/AutoreleasingUnsafeMutablePointer/hierarchy/" target="_top">
<polygon fill="#999999" stroke="#999999" points="5363.09,-22 5160.91,-22 5160.91,-0 5363.09,-0 5363.09,-22"/>
<text text-anchor="middle" x="5262" y="-7.4" font-family="Helvetica,sans-Serif" font-size="12.00" fill="white">AutoreleasingUnsafeMutablePointer</text>
</a>
</g>
</g>
<!-- BinaryFloatingPoint -->
<g id="node7" class="node">
<g id="a_node7"><a xlink:href="/v4.2/protocol/BinaryFloatingPoint/hierarchy/" target="_top">
<path fill="#999999" stroke="#999999" d="M482.709,-80C482.709,-80 383.291,-80 383.291,-80 379.624,-80 375.958,-76.3333 375.958,-72.6667 375.958,-72.6667 375.958,-65.3333 375.958,-65.3333 375.958,-61.6667 379.624,-58 383.291,-58 383.291,-58 482.709,-58 482.709,-58 486.376,-58 490.042,-61.6667 490.042,-65.3333 490.042,-65.3333 490.042,-72.6667 490.042,-72.6667 490.042,-76.3333 486.376,-80 482.709,-80"/>
<text text-anchor="middle" x="433" y="-65.4" font-family="Helvetica,sans-Serif" font-size="12.00" fill="white">BinaryFloatingPoint</text>
</a>
</g>
</g>
<!-- Double -->
<g id="node20" class="node">
<g id="a_node20"><a xlink:href="/v4.2/type/Double/hierarchy/" target="_top">
<polygon fill="#999999" stroke="#999999" points="424,-22 370,-22 370,-0 424,-0 424,-22"/>
<text text-anchor="middle" x="397" y="-7.4" font-family="Helvetica,sans-Serif" font-size="12.00" fill="white">Double</text>
</a>
</g>
</g>
<!-- BinaryFloatingPoint&#45;&gt;Double -->
<g id="edge56" class="edge">
<path fill="none" stroke="#cccccc" d="M426.564,-57.9883C421.71,-50.4379 414.911,-39.8611 409.056,-30.7543"/>
<polygon fill="#cccccc" stroke="#cccccc" points="411.976,-28.823 403.624,-22.3039 406.087,-32.6083 411.976,-28.823"/>
</g>
<!-- Float -->
<g id="node25" class="node">
<g id="a_node25"><a xlink:href="/v4.2/type/Float/hierarchy/" target="_top">
<polygon fill="#999999" stroke="#999999" points="496,-22 442,-22 442,-0 496,-0 496,-22"/>
<text text-anchor="middle" x="469" y="-7.4" font-family="Helvetica,sans-Serif" font-size="12.00" fill="white">Float</text>
</a>
</g>
</g>
<!-- BinaryFloatingPoint&#45;&gt;Float -->
<g id="edge57" class="edge">
<path fill="none" stroke="#cccccc" d="M439.436,-57.9883C444.29,-50.4379 451.089,-39.8611 456.944,-30.7543"/>
<polygon fill="#cccccc" stroke="#cccccc" points="459.913,-32.6083 462.376,-22.3039 454.024,-28.823 459.913,-32.6083"/>
</g>
<!-- Float80 -->
<g id="node26" class="node">
<g id="a_node26"><a xlink:href="/v4.2/type/Float80/hierarchy/" target="_top">
<polygon fill="#999999" stroke="#999999" points="352,-22 298,-22 298,-0 352,-0 352,-22"/>
<text text-anchor="middle" x="325" y="-7.4" font-family="Helvetica,sans-Serif" font-size="12.00" fill="white">Float80</text>
</a>
</g>
</g>
<!-- BinaryFloatingPoint&#45;&gt;Float80 -->
<g id="edge58" class="edge">
<path fill="none" stroke="#cccccc" d="M413.692,-57.9883C396.979,-49.3223 372.577,-36.6696 353.597,-26.8283"/>
<polygon fill="#cccccc" stroke="#cccccc" points="354.994,-23.6099 344.505,-22.1138 351.772,-29.8242 354.994,-23.6099"/>
</g>
<!-- BinaryInteger -->
<g id="node8" class="node">
<g id="a_node8"><a xlink:href="/v4.2/protocol/BinaryInteger/hierarchy/" target="_top">
<path fill="#999999" stroke="#999999" d="M1212.2,-138C1212.2,-138 1145.8,-138 1145.8,-138 1142.14,-138 1138.47,-134.333 1138.47,-130.667 1138.47,-130.667 1138.47,-123.333 1138.47,-123.333 1138.47,-119.667 1142.14,-116 1145.8,-116 1145.8,-116 1212.2,-116 1212.2,-116 1215.86,-116 1219.53,-119.667 1219.53,-123.333 1219.53,-123.333 1219.53,-130.667 1219.53,-130.667 1219.53,-134.333 1215.86,-138 1212.2,-138"/>
<text text-anchor="middle" x="1179" y="-123.4" font-family="Helvetica,sans-Serif" font-size="12.00" fill="white">BinaryInteger</text>
</a>
</g>
</g>
<!-- FixedWidthInteger -->
<g id="node23" class="node">
<g id="a_node23"><a xlink:href="/v4.2/protocol/FixedWidthInteger/hierarchy/" target="_top">
<path fill="#999999" stroke="#999999" d="M947.199,-80C947.199,-80 854.801,-80 854.801,-80 851.135,-80 847.468,-76.3333 847.468,-72.6667 847.468,-72.6667 847.468,-65.3333 847.468,-65.3333 847.468,-61.6667 851.135,-58 854.801,-58 854.801,-58 947.199,-58 947.199,-58 950.865,-58 954.532,-61.6667 954.532,-65.3333 954.532,-65.3333 954.532,-72.6667 954.532,-72.6667 954.532,-76.3333 950.865,-80 947.199,-80"/>
<text text-anchor="middle" x="901" y="-65.4" font-family="Helvetica,sans-Serif" font-size="12.00" fill="white">FixedWidthInteger</text>
</a>
</g>
</g>
<!-- BinaryInteger&#45;&gt;FixedWidthInteger -->
<g id="edge32" class="edge">
<path fill="none" stroke="#cccccc" d="M1138.58,-117.857C1091.89,-108.453 1014.64,-92.8909 960.951,-82.0764"/>
<polygon fill="#cccccc" stroke="#cccccc" points="961.373,-78.5913 950.879,-80.0475 959.991,-85.4534 961.373,-78.5913"/>
</g>
<!-- SignedInteger -->
<g id="node50" class="node">
<g id="a_node50"><a xlink:href="/v4.2/protocol/SignedInteger/hierarchy/" target="_top">
<path fill="#999999" stroke="#999999" d="M791.711,-80C791.711,-80 722.289,-80 722.289,-80 718.622,-80 714.956,-76.3333 714.956,-72.6667 714.956,-72.6667 714.956,-65.3333 714.956,-65.3333 714.956,-61.6667 718.622,-58 722.289,-58 722.289,-58 791.711,-58 791.711,-58 795.378,-58 799.044,-61.6667 799.044,-65.3333 799.044,-65.3333 799.044,-72.6667 799.044,-72.6667 799.044,-76.3333 795.378,-80 791.711,-80"/>
<text text-anchor="middle" x="757" y="-65.4" font-family="Helvetica,sans-Serif" font-size="12.00" fill="white">SignedInteger</text>
</a>
</g>
</g>
<!-- BinaryInteger&#45;&gt;SignedInteger -->
<g id="edge33" class="edge">
<path fill="none" stroke="#cccccc" d="M1138.39,-117.615C1135.22,-117.04 1132.06,-116.494 1129,-116 1127.04,-115.683 911.581,-89.0796 809.505,-76.48"/>
<polygon fill="#cccccc" stroke="#cccccc" points="809.756,-72.9845 799.402,-75.233 808.898,-79.9318 809.756,-72.9845"/>
</g>
<!-- UnsignedInteger -->
<g id="node69" class="node">
<g id="a_node69"><a xlink:href="/v4.2/protocol/UnsignedInteger/hierarchy/" target="_top">
<path fill="#999999" stroke="#999999" d="M1122.71,-80C1122.71,-80 1039.29,-80 1039.29,-80 1035.62,-80 1031.95,-76.3333 1031.95,-72.6667 1031.95,-72.6667 1031.95,-65.3333 1031.95,-65.3333 1031.95,-61.6667 1035.62,-58 1039.29,-58 1039.29,-58 1122.71,-58 1122.71,-58 1126.38,-58 1130.05,-61.6667 1130.05,-65.3333 1130.05,-65.3333 1130.05,-72.6667 1130.05,-72.6667 1130.05,-76.3333 1126.38,-80 1122.71,-80"/>
<text text-anchor="middle" x="1081" y="-65.4" font-family="Helvetica,sans-Serif" font-size="12.00" fill="white">UnsignedInteger</text>
</a>
</g>
</g>
<!-- BinaryInteger&#45;&gt;UnsignedInteger -->
<g id="edge34" class="edge">
<path fill="none" stroke="#cccccc" d="M1161.48,-115.988C1146.52,-107.441 1124.78,-95.0155 1107.66,-85.2343"/>
<polygon fill="#cccccc" stroke="#cccccc" points="1109.12,-82.0364 1098.7,-80.1138 1105.65,-88.1141 1109.12,-82.0364"/>
</g>
<!-- Bool -->
<g id="node9" class="node">
<g id="a_node9"><a xlink:href="/v4.2/type/Bool/hierarchy/" target="_top">
<polygon fill="#999999" stroke="#999999" points="4971,-22 4917,-22 4917,-0 4971,-0 4971,-22"/>
<text text-anchor="middle" x="4944" y="-7.4" font-family="Helvetica,sans-Serif" font-size="12.00" fill="white">Bool</text>
</a>
</g>
</g>
<!-- Character -->
<g id="node10" class="node">
<g id="a_node10"><a xlink:href="/v4.2/type/Character/hierarchy/" target="_top">
<polygon fill="#999999" stroke="#999999" points="2054.02,-22 1991.98,-22 1991.98,-0 2054.02,-0 2054.02,-22"/>
<text text-anchor="middle" x="2023" y="-7.4" font-family="Helvetica,sans-Serif" font-size="12.00" fill="white">Character</text>
</a>
</g>
</g>
<!-- Character.UnicodeScalarView.Index -->
<g id="node11" class="node">
<g id="a_node11"><a xlink:href="/v4.2/type/Character.UnicodeScalarView.Index/hierarchy/" target="_top">
<polygon fill="#999999" stroke="#999999" points="279.428,-22 78.5715,-22 78.5715,-0 279.428,-0 279.428,-22"/>
<text text-anchor="middle" x="179" y="-7.4" font-family="Helvetica,sans-Serif" font-size="12.00" fill="white">Character.UnicodeScalarView.Index</text>
</a>
</g>
</g>
<!-- ClosedRange -->
<g id="node12" class="node">
<g id="a_node12"><a xlink:href="/v4.2/type/ClosedRange/hierarchy/" target="_top">
<polygon fill="#999999" stroke="#999999" points="5071.04,-22 4988.96,-22 4988.96,-0 5071.04,-0 5071.04,-22"/>
<text text-anchor="middle" x="5030" y="-7.4" font-family="Helvetica,sans-Serif" font-size="12.00" fill="white">ClosedRange</text>
</a>
</g>
</g>
<!-- ClosedRange.Index -->
<g id="node13" class="node">
<g id="a_node13"><a xlink:href="/v4.2/type/ClosedRange.Index/hierarchy/" target="_top">
<polygon fill="#999999" stroke="#999999" points="2819.55,-22 2704.45,-22 2704.45,-0 2819.55,-0 2819.55,-22"/>
<text text-anchor="middle" x="2762" y="-7.4" font-family="Helvetica,sans-Serif" font-size="12.00" fill="white">ClosedRange.Index</text>
</a>
</g>
</g>
<!-- CodingUserInfoKey -->
<g id="node14" class="node">
<g id="a_node14"><a xlink:href="/v4.2/type/CodingUserInfoKey/hierarchy/" target="_top">
<polygon fill="#999999" stroke="#999999" points="3424.04,-22 3309.96,-22 3309.96,-0 3424.04,-0 3424.04,-22"/>
<text text-anchor="middle" x="3367" y="-7.4" font-family="Helvetica,sans-Serif" font-size="12.00" fill="white">CodingUserInfoKey</text>
</a>
</g>
</g>
<!-- Comparable -->
<g id="node15" class="node">
<g id="a_node15"><a xlink:href="/v4.2/protocol/Comparable/hierarchy/" target="_top">
<path fill="#999999" stroke="#999999" d="M2397.19,-254C2397.19,-254 2336.81,-254 2336.81,-254 2333.14,-254 2329.48,-250.333 2329.48,-246.667 2329.48,-246.667 2329.48,-239.333 2329.48,-239.333 2329.48,-235.667 2333.14,-232 2336.81,-232 2336.81,-232 2397.19,-232 2397.19,-232 2400.86,-232 2404.52,-235.667 2404.52,-239.333 2404.52,-239.333 2404.52,-246.667 2404.52,-246.667 2404.52,-250.333 2400.86,-254 2397.19,-254"/>
<text text-anchor="middle" x="2367" y="-239.4" font-family="Helvetica,sans-Serif" font-size="12.00" fill="white">Comparable</text>
</a>
</g>
</g>
<!-- Comparable&#45;&gt;AnyIndex -->
<g id="edge10" class="edge">
<path fill="none" stroke="#cccccc" d="M2329.65,-241.651C2124.14,-239.612 1129.33,-228.211 824,-196 681.128,-180.928 646.215,-169.294 506,-138 342.979,-101.616 151.514,-47.3702 69.9937,-23.7246"/>
<polygon fill="#cccccc" stroke="#cccccc" points="70.7277,-20.2932 60.1481,-20.8624 68.7735,-27.0149 70.7277,-20.2932"/>
</g>
<!-- Comparable&#45;&gt;Character -->
<g id="edge11" class="edge">
<path fill="none" stroke="#cccccc" d="M2351.77,-231.82C2297.38,-195.452 2112.4,-71.7707 2046.53,-27.7304"/>
<polygon fill="#cccccc" stroke="#cccccc" points="2048.31,-24.7106 2038.05,-22.062 2044.42,-30.5298 2048.31,-24.7106"/>
</g>
<!-- Comparable&#45;&gt;Character.UnicodeScalarView.Index -->
<g id="edge15" class="edge">
<path fill="none" stroke="#cccccc" d="M2329.37,-241.424C2139.8,-238.414 1288.15,-223.569 1025,-196 729.662,-165.06 653.914,-156.565 367,-80 311.435,-65.1721 249.041,-41.0521 211.935,-25.8801"/>
<polygon fill="#cccccc" stroke="#cccccc" points="213.196,-22.6141 202.616,-22.0401 210.529,-29.0861 213.196,-22.6141"/>
</g>
<!-- Comparable&#45;&gt;ClosedRange.Index -->
<g id="edge16" class="edge">
<path fill="none" stroke="#cccccc" d="M2384.23,-231.969C2446.6,-195.652 2660.88,-70.878 2735.85,-27.226"/>
<polygon fill="#cccccc" stroke="#cccccc" points="2737.8,-30.1401 2744.68,-22.0835 2734.28,-24.0909 2737.8,-30.1401"/>
</g>
<!-- Dictionary.Index -->
<g id="node18" class="node">
<g id="a_node18"><a xlink:href="/v4.2/type/Dictionary.Index/hierarchy/" target="_top">
<polygon fill="#999999" stroke="#999999" points="4275.37,-22 4180.63,-22 4180.63,-0 4275.37,-0 4275.37,-22"/>
<text text-anchor="middle" x="4228" y="-7.4" font-family="Helvetica,sans-Serif" font-size="12.00" fill="white">Dictionary.Index</text>
</a>
</g>
</g>
<!-- Comparable&#45;&gt;Dictionary.Index -->
<g id="edge17" class="edge">
<path fill="none" stroke="#cccccc" d="M2404.8,-242.328C2545.88,-243.149 3054.92,-242.504 3471,-196 3613.34,-180.091 3647.73,-166.959 3788,-138 3900.55,-114.763 3929.76,-112.494 4040,-80 4094.55,-63.9205 4156.29,-40.5662 4193.67,-25.8374"/>
<polygon fill="#cccccc" stroke="#cccccc" points="4195.07,-29.0448 4203.08,-22.1068 4192.5,-22.5372 4195.07,-29.0448"/>
</g>
<!-- FlattenCollection.Index -->
<g id="node24" class="node">
<g id="a_node24"><a xlink:href="/v4.2/type/FlattenCollection.Index/hierarchy/" target="_top">
<polygon fill="#999999" stroke="#999999" points="2375.05,-22 2242.95,-22 2242.95,-0 2375.05,-0 2375.05,-22"/>
<text text-anchor="middle" x="2309" y="-7.4" font-family="Helvetica,sans-Serif" font-size="12.00" fill="white">FlattenCollection.Index</text>
</a>
</g>
</g>
<!-- Comparable&#45;&gt;FlattenCollection.Index -->
<g id="edge18" class="edge">
<path fill="none" stroke="#cccccc" d="M2364.43,-231.82C2355.54,-196.568 2325.97,-79.2764 2314.04,-32.0032"/>
<polygon fill="#cccccc" stroke="#cccccc" points="2317.38,-30.9026 2311.54,-22.062 2310.59,-32.6143 2317.38,-30.9026"/>
</g>
<!-- LazyDropWhileCollection.Index -->
<g id="node35" class="node">
<g id="a_node35"><a xlink:href="/v4.2/type/LazyDropWhileCollection.Index/hierarchy/" target="_top">
<polygon fill="#999999" stroke="#999999" points="3014.06,-22 2837.94,-22 2837.94,-0 3014.06,-0 3014.06,-22"/>
<text text-anchor="middle" x="2926" y="-7.4" font-family="Helvetica,sans-Serif" font-size="12.00" fill="white">LazyDropWhileCollection.Index</text>
</a>
</g>
</g>
<!-- Comparable&#45;&gt;LazyDropWhileCollection.Index -->
<g id="edge19" class="edge">
<path fill="none" stroke="#cccccc" d="M2391.47,-231.955C2414.16,-222.64 2448.87,-208.39 2479,-196 2633.13,-132.624 2817.12,-56.8518 2891.89,-26.0512"/>
<polygon fill="#cccccc" stroke="#cccccc" points="2893.38,-29.2247 2901.29,-22.1797 2890.71,-22.7523 2893.38,-29.2247"/>
</g>
<!-- LazyPrefixWhileCollection.Index -->
<g id="node36" class="node">
<g id="a_node36"><a xlink:href="/v4.2/type/LazyPrefixWhileCollection.Index/hierarchy/" target="_top">
<polygon fill="#999999" stroke="#999999" points="3213.56,-22 3032.44,-22 3032.44,-0 3213.56,-0 3213.56,-22"/>
<text text-anchor="middle" x="3123" y="-7.4" font-family="Helvetica,sans-Serif" font-size="12.00" fill="white">LazyPrefixWhileCollection.Index</text>
</a>
</g>
</g>
<!-- Comparable&#45;&gt;LazyPrefixWhileCollection.Index -->
<g id="edge20" class="edge">
<path fill="none" stroke="#cccccc" d="M2399.97,-231.969C2521.41,-195.024 2943.76,-66.5314 3080.16,-25.0328"/>
<polygon fill="#cccccc" stroke="#cccccc" points="3081.31,-28.3427 3089.86,-22.0835 3079.27,-21.6457 3081.31,-28.3427"/>
</g>
<!-- ObjectIdentifier -->
<g id="node39" class="node">
<g id="a_node39"><a xlink:href="/v4.2/type/ObjectIdentifier/hierarchy/" target="_top">
<polygon fill="#999999" stroke="#999999" points="1973.03,-22 1882.97,-22 1882.97,-0 1973.03,-0 1973.03,-22"/>
<text text-anchor="middle" x="1928" y="-7.4" font-family="Helvetica,sans-Serif" font-size="12.00" fill="white">ObjectIdentifier</text>
</a>
</g>
</g>
<!-- Comparable&#45;&gt;ObjectIdentifier -->
<g id="edge12" class="edge">
<path fill="none" stroke="#cccccc" d="M2343.02,-231.943C2321.98,-222.966 2290.67,-209.229 2264,-196 2146.29,-137.605 2010.14,-59.751 1954.12,-27.2542"/>
<polygon fill="#cccccc" stroke="#cccccc" points="1955.63,-24.0814 1945.23,-22.0822 1952.11,-30.1334 1955.63,-24.0814"/>
</g>
<!-- ReversedCollection.Index -->
<g id="node46" class="node">
<g id="a_node46"><a xlink:href="/v4.2/type/ReversedCollection.Index/hierarchy/" target="_top">
<polygon fill="#999999" stroke="#999999" points="2539.06,-22 2392.94,-22 2392.94,-0 2539.06,-0 2539.06,-22"/>
<text text-anchor="middle" x="2466" y="-7.4" font-family="Helvetica,sans-Serif" font-size="12.00" fill="white">ReversedCollection.Index</text>
</a>
</g>
</g>
<!-- Comparable&#45;&gt;ReversedCollection.Index -->
<g id="edge21" class="edge">
<path fill="none" stroke="#cccccc" d="M2371.38,-231.82C2386.62,-196.419 2437.47,-78.2851 2457.65,-31.4085"/>
<polygon fill="#cccccc" stroke="#cccccc" points="2460.93,-32.6311 2461.67,-22.062 2454.5,-29.8635 2460.93,-32.6311"/>
</g>
<!-- Set.Index -->
<g id="node48" class="node">
<g id="a_node48"><a xlink:href="/v4.2/type/Set.Index/hierarchy/" target="_top">
<polygon fill="#999999" stroke="#999999" points="3292.03,-22 3231.97,-22 3231.97,-0 3292.03,-0 3292.03,-22"/>
<text text-anchor="middle" x="3262" y="-7.4" font-family="Helvetica,sans-Serif" font-size="12.00" fill="white">Set.Index</text>
</a>
</g>
</g>
<!-- Comparable&#45;&gt;Set.Index -->
<g id="edge22" class="edge">
<path fill="none" stroke="#cccccc" d="M2404.69,-233.718C2444.96,-224.779 2510.62,-209.942 2567,-196 2817.31,-134.097 3116.22,-52.2796 3222.29,-23.0007"/>
<polygon fill="#cccccc" stroke="#cccccc" points="3223.24,-26.3702 3231.95,-20.3337 3221.38,-19.6229 3223.24,-26.3702"/>
</g>
<!-- Strideable -->
<g id="node52" class="node">
<g id="a_node52"><a xlink:href="/v4.2/protocol/Strideable/hierarchy/" target="_top">
<path fill="#999999" stroke="#999999" d="M1907.69,-196C1907.69,-196 1858.31,-196 1858.31,-196 1854.64,-196 1850.97,-192.333 1850.97,-188.667 1850.97,-188.667 1850.97,-181.333 1850.97,-181.333 1850.97,-177.667 1854.64,-174 1858.31,-174 1858.31,-174 1907.69,-174 1907.69,-174 1911.36,-174 1915.03,-177.667 1915.03,-181.333 1915.03,-181.333 1915.03,-188.667 1915.03,-188.667 1915.03,-192.333 1911.36,-196 1907.69,-196"/>
<text text-anchor="middle" x="1883" y="-181.4" font-family="Helvetica,sans-Serif" font-size="12.00" fill="white">Strideable</text>
</a>
</g>
</g>
<!-- Comparable&#45;&gt;Strideable -->
<g id="edge13" class="edge">
<path fill="none" stroke="#cccccc" d="M2329.42,-237.652C2240.67,-227.383 2018.53,-201.681 1925.27,-190.89"/>
<polygon fill="#cccccc" stroke="#cccccc" points="1925.41,-187.384 1915.07,-189.711 1924.6,-194.337 1925.41,-187.384"/>
</g>
<!-- String.Index -->
<g id="node54" class="node">
<g id="a_node54"><a xlink:href="/v4.2/type/String.Index/hierarchy/" target="_top">
<polygon fill="#999999" stroke="#999999" points="4162.03,-22 4087.97,-22 4087.97,-0 4162.03,-0 4162.03,-22"/>
<text text-anchor="middle" x="4125" y="-7.4" font-family="Helvetica,sans-Serif" font-size="12.00" fill="white">String.Index</text>
</a>
</g>
</g>
<!-- Comparable&#45;&gt;String.Index -->
<g id="edge23" class="edge">
<path fill="none" stroke="#cccccc" d="M2404.5,-241.862C2536.98,-241.039 2995.29,-235.336 3371,-196 3529.13,-179.444 3568.4,-170.682 3724,-138 3825.48,-116.684 3851.27,-111.725 3950,-80 4000.42,-63.7995 4057.32,-40.7748 4092.18,-26.1121"/>
<polygon fill="#cccccc" stroke="#cccccc" points="4093.98,-29.1493 4101.83,-22.029 4091.25,-22.7027 4093.98,-29.1493"/>
</g>
<!-- StringProtocol -->
<g id="node56" class="node">
<g id="a_node56"><a xlink:href="/v4.2/protocol/StringProtocol/hierarchy/" target="_top">
<path fill="#999999" stroke="#999999" d="M1681.19,-138C1681.19,-138 1610.81,-138 1610.81,-138 1607.14,-138 1603.47,-134.333 1603.47,-130.667 1603.47,-130.667 1603.47,-123.333 1603.47,-123.333 1603.47,-119.667 1607.14,-116 1610.81,-116 1610.81,-116 1681.19,-116 1681.19,-116 1684.86,-116 1688.53,-119.667 1688.53,-123.333 1688.53,-123.333 1688.53,-130.667 1688.53,-130.667 1688.53,-134.333 1684.86,-138 1681.19,-138"/>
<text text-anchor="middle" x="1646" y="-123.4" font-family="Helvetica,sans-Serif" font-size="12.00" fill="white">StringProtocol</text>
</a>
</g>
</g>
<!-- Comparable&#45;&gt;StringProtocol -->
<g id="edge14" class="edge">
<path fill="none" stroke="#cccccc" d="M2329.62,-241.868C2242.92,-240.882 2021.84,-234.457 1842,-196 1782.83,-183.347 1716.92,-158.019 1678.59,-142.099"/>
<polygon fill="#cccccc" stroke="#cccccc" points="1679.58,-138.717 1669,-138.072 1676.87,-145.171 1679.58,-138.717"/>
</g>
<!-- Unicode.Scalar -->
<g id="node63" class="node">
<g id="a_node63"><a xlink:href="/v4.2/type/Unicode.Scalar/hierarchy/" target="_top">
<polygon fill="#999999" stroke="#999999" points="1325.53,-22 1234.47,-22 1234.47,-0 1325.53,-0 1325.53,-22"/>
<text text-anchor="middle" x="1280" y="-7.4" font-family="Helvetica,sans-Serif" font-size="12.00" fill="white">Unicode.Scalar</text>
</a>
</g>
</g>
<!-- Comparable&#45;&gt;Unicode.Scalar -->
<g id="edge24" class="edge">
<path fill="none" stroke="#cccccc" d="M2329.52,-241.602C2234.12,-240.059 1974.56,-232.548 1762,-196 1664.88,-179.301 1642.48,-166.008 1548,-138 1467.42,-114.111 1442.37,-119.17 1368,-80 1341.58,-66.0813 1314.95,-44.1554 1298.02,-28.9809"/>
<polygon fill="#cccccc" stroke="#cccccc" points="1300.28,-26.299 1290.53,-22.1387 1295.56,-31.4673 1300.28,-26.299"/>
</g>
<!-- ContiguousArray -->
<g id="node16" class="node">
<g id="a_node16"><a xlink:href="/v4.2/type/ContiguousArray/hierarchy/" target="_top">
<polygon fill="#999999" stroke="#999999" points="3541.53,-22 3442.47,-22 3442.47,-0 3541.53,-0 3541.53,-22"/>
<text text-anchor="middle" x="3492" y="-7.4" font-family="Helvetica,sans-Serif" font-size="12.00" fill="white">ContiguousArray</text>
</a>
</g>
</g>
<!-- Dictionary -->
<g id="node17" class="node">
<g id="a_node17"><a xlink:href="/v4.2/type/Dictionary/hierarchy/" target="_top">
<polygon fill="#999999" stroke="#999999" points="3622.51,-22 3559.49,-22 3559.49,-0 3622.51,-0 3622.51,-22"/>
<text text-anchor="middle" x="3591" y="-7.4" font-family="Helvetica,sans-Serif" font-size="12.00" fill="white">Dictionary</text>
</a>
</g>
</g>
<!-- Dictionary.Keys -->
<g id="node19" class="node">
<g id="a_node19"><a xlink:href="/v4.2/type/Dictionary.Keys/hierarchy/" target="_top">
<polygon fill="#999999" stroke="#999999" points="5473.36,-22 5380.64,-22 5380.64,-0 5473.36,-0 5473.36,-22"/>
<text text-anchor="middle" x="5427" y="-7.4" font-family="Helvetica,sans-Serif" font-size="12.00" fill="white">Dictionary.Keys</text>
</a>
</g>
</g>
<!-- EmptyCollection -->
<g id="node21" class="node">
<g id="a_node21"><a xlink:href="/v4.2/type/EmptyCollection/hierarchy/" target="_top">
<polygon fill="#999999" stroke="#999999" points="5588.03,-22 5491.97,-22 5491.97,-0 5588.03,-0 5588.03,-22"/>
<text text-anchor="middle" x="5540" y="-7.4" font-family="Helvetica,sans-Serif" font-size="12.00" fill="white">EmptyCollection</text>
</a>
</g>
</g>
<!-- Equatable -->
<g id="node22" class="node">
<g id="a_node22"><a xlink:href="/v4.2/protocol/Equatable/" target="_top">
<path fill="#ee543d" stroke="#ee543d" d="M5286.7,-312C5286.7,-312 5237.3,-312 5237.3,-312 5233.63,-312 5229.96,-308.333 5229.96,-304.667 5229.96,-304.667 5229.96,-297.333 5229.96,-297.333 5229.96,-293.667 5233.63,-290 5237.3,-290 5237.3,-290 5286.7,-290 5286.7,-290 5290.37,-290 5294.04,-293.667 5294.04,-297.333 5294.04,-297.333 5294.04,-304.667 5294.04,-304.667 5294.04,-308.333 5290.37,-312 5286.7,-312"/>
<text text-anchor="middle" x="5262" y="-297.4" font-family="Helvetica,sans-Serif" font-size="12.00" fill="white">Equatable</text>
</a>
</g>
</g>
<!-- Equatable&#45;&gt;AutoreleasingUnsafeMutablePointer -->
<g id="edge1" class="edge">
<path fill="none" stroke="#cccccc" d="M5262,-289.935C5262,-270.066 5262,-224.396 5262,-186 5262,-186 5262,-186 5262,-126 5262,-93.1536 5262,-54.9837 5262,-32.197"/>
<polygon fill="#cccccc" stroke="#cccccc" points="5265.5,-32.0648 5262,-22.0648 5258.5,-32.0648 5265.5,-32.0648"/>
</g>
<!-- Equatable&#45;&gt;Comparable -->
<g id="edge2" class="edge">
<path fill="none" stroke="#cccccc" d="M5229.98,-299.381C4939.69,-293.765 2765.31,-251.705 2414.67,-244.922"/>
<polygon fill="#cccccc" stroke="#cccccc" points="2414.67,-241.421 2404.6,-244.727 2414.53,-248.42 2414.67,-241.421"/>
</g>
<!-- Equatable&#45;&gt;Dictionary.Keys -->
<g id="edge9" class="edge">
<path fill="none" stroke="#cccccc" d="M5294.21,-293.122C5342.22,-280.761 5427,-249.891 5427,-186 5427,-186 5427,-186 5427,-126 5427,-93.1536 5427,-54.9837 5427,-32.197"/>
<polygon fill="#cccccc" stroke="#cccccc" points="5430.5,-32.0648 5427,-22.0648 5423.5,-32.0648 5430.5,-32.0648"/>
</g>
<!-- Equatable&#45;&gt;EmptyCollection -->
<g id="edge3" class="edge">
<path fill="none" stroke="#cccccc" d="M5294.16,-293.901C5367.34,-279.105 5540,-238.621 5540,-186 5540,-186 5540,-186 5540,-126 5540,-93.1536 5540,-54.9837 5540,-32.197"/>
<polygon fill="#cccccc" stroke="#cccccc" points="5543.5,-32.0648 5540,-22.0648 5536.5,-32.0648 5543.5,-32.0648"/>
</g>
<!-- Hashable -->
<g id="node28" class="node">
<g id="a_node28"><a xlink:href="/v4.2/protocol/Hashable/hierarchy/" target="_top">
<path fill="#999999" stroke="#999999" d="M3354.69,-196C3354.69,-196 3309.31,-196 3309.31,-196 3305.64,-196 3301.97,-192.333 3301.97,-188.667 3301.97,-188.667 3301.97,-181.333 3301.97,-181.333 3301.97,-177.667 3305.64,-174 3309.31,-174 3309.31,-174 3354.69,-174 3354.69,-174 3358.36,-174 3362.03,-177.667 3362.03,-181.333 3362.03,-181.333 3362.03,-188.667 3362.03,-188.667 3362.03,-192.333 3358.36,-196 3354.69,-196"/>
<text text-anchor="middle" x="3332" y="-181.4" font-family="Helvetica,sans-Serif" font-size="12.00" fill="white">Hashable</text>
</a>
</g>
</g>
<!-- Equatable&#45;&gt;Hashable -->
<g id="edge4" class="edge">
<path fill="none" stroke="#cccccc" d="M5229.71,-298.093C5000.92,-284.579 3626.32,-203.385 3372.34,-188.383"/>
<polygon fill="#cccccc" stroke="#cccccc" points="3372.28,-184.873 3362.09,-187.778 3371.87,-191.861 3372.28,-184.873"/>
</g>
<!-- ManagedBufferPointer -->
<g id="node37" class="node">
<g id="a_node37"><a xlink:href="/v4.2/type/ManagedBufferPointer/hierarchy/" target="_top">
<polygon fill="#999999" stroke="#999999" points="5735.4,-22 5606.6,-22 5606.6,-0 5735.4,-0 5735.4,-22"/>
<text text-anchor="middle" x="5671" y="-7.4" font-family="Helvetica,sans-Serif" font-size="12.00" fill="white">ManagedBufferPointer</text>
</a>
</g>
</g>
<!-- Equatable&#45;&gt;ManagedBufferPointer -->
<g id="edge5" class="edge">
<path fill="none" stroke="#cccccc" d="M5294.09,-297.979C5390.51,-291.04 5671,-264.136 5671,-186 5671,-186 5671,-186 5671,-126 5671,-93.1536 5671,-54.9837 5671,-32.197"/>
<polygon fill="#cccccc" stroke="#cccccc" points="5674.5,-32.0648 5671,-22.0648 5667.5,-32.0648 5674.5,-32.0648"/>
</g>
<!-- Numeric -->
<g id="node38" class="node">
<g id="a_node38"><a xlink:href="/v4.2/protocol/Numeric/hierarchy/" target="_top">
<path fill="#999999" stroke="#999999" d="M1198.67,-254C1198.67,-254 1159.33,-254 1159.33,-254 1155.66,-254 1151.99,-250.333 1151.99,-246.667 1151.99,-246.667 1151.99,-239.333 1151.99,-239.333 1151.99,-235.667 1155.66,-232 1159.33,-232 1159.33,-232 1198.67,-232 1198.67,-232 1202.34,-232 1206.01,-235.667 1206.01,-239.333 1206.01,-239.333 1206.01,-246.667 1206.01,-246.667 1206.01,-250.333 1202.34,-254 1198.67,-254"/>
<text text-anchor="middle" x="1179" y="-239.4" font-family="Helvetica,sans-Serif" font-size="12.00" fill="white">Numeric</text>
</a>
</g>
</g>
<!-- Equatable&#45;&gt;Numeric -->
<g id="edge6" class="edge">
<path fill="none" stroke="#cccccc" d="M5229.73,-299.557C4869.25,-294.613 1602.73,-249.812 1216.3,-244.512"/>
<polygon fill="#cccccc" stroke="#cccccc" points="1216.25,-241.011 1206.2,-244.373 1216.15,-248.01 1216.25,-241.011"/>
</g>
<!-- SetAlgebra -->
<g id="node49" class="node">
<g id="a_node49"><a xlink:href="/v4.2/protocol/SetAlgebra/hierarchy/" target="_top">
<path fill="#999999" stroke="#999999" d="M5184.2,-254C5184.2,-254 5129.8,-254 5129.8,-254 5126.14,-254 5122.47,-250.333 5122.47,-246.667 5122.47,-246.667 5122.47,-239.333 5122.47,-239.333 5122.47,-235.667 5126.14,-232 5129.8,-232 5129.8,-232 5184.2,-232 5184.2,-232 5187.86,-232 5191.53,-235.667 5191.53,-239.333 5191.53,-239.333 5191.53,-246.667 5191.53,-246.667 5191.53,-250.333 5187.86,-254 5184.2,-254"/>
<text text-anchor="middle" x="5157" y="-239.4" font-family="Helvetica,sans-Serif" font-size="12.00" fill="white">SetAlgebra</text>
</a>
</g>
</g>
<!-- Equatable&#45;&gt;SetAlgebra -->
<g id="edge7" class="edge">
<path fill="none" stroke="#cccccc" d="M5243.23,-289.988C5226.98,-281.322 5203.26,-268.67 5184.8,-258.828"/>
<polygon fill="#cccccc" stroke="#cccccc" points="5186.43,-255.732 5175.96,-254.114 5183.14,-261.908 5186.43,-255.732"/>
</g>
<!-- UnicodeDecodingResult -->
<g id="node64" class="node">
<g id="a_node64"><a xlink:href="/v4.2/type/UnicodeDecodingResult/hierarchy/" target="_top">
<polygon fill="#999999" stroke="#999999" points="5892.06,-22 5753.94,-22 5753.94,-0 5892.06,-0 5892.06,-22"/>
<text text-anchor="middle" x="5823" y="-7.4" font-family="Helvetica,sans-Serif" font-size="12.00" fill="white">UnicodeDecodingResult</text>
</a>
</g>
</g>
<!-- Equatable&#45;&gt;UnicodeDecodingResult -->
<g id="edge8" class="edge">
<path fill="none" stroke="#cccccc" d="M5294.18,-300.366C5413.38,-300.872 5823,-294.704 5823,-186 5823,-186 5823,-186 5823,-126 5823,-93.1536 5823,-54.9837 5823,-32.197"/>
<polygon fill="#cccccc" stroke="#cccccc" points="5826.5,-32.0648 5823,-22.0648 5819.5,-32.0648 5826.5,-32.0648"/>
</g>
<!-- Int -->
<g id="node29" class="node">
<g id="a_node29"><a xlink:href="/v4.2/type/Int/hierarchy/" target="_top">
<polygon fill="#999999" stroke="#999999" points="784,-22 730,-22 730,-0 784,-0 784,-22"/>
<text text-anchor="middle" x="757" y="-7.4" font-family="Helvetica,sans-Serif" font-size="12.00" fill="white">Int</text>
</a>
</g>
</g>
<!-- FixedWidthInteger&#45;&gt;Int -->
<g id="edge35" class="edge">
<path fill="none" stroke="#cccccc" d="M875.256,-57.9883C852.158,-49.0057 818.045,-35.7398 792.386,-25.7614"/>
<polygon fill="#cccccc" stroke="#cccccc" points="793.596,-22.4763 783.007,-22.1138 791.058,-29.0004 793.596,-22.4763"/>
</g>
<!-- Int16 -->
<g id="node30" class="node">
<g id="a_node30"><a xlink:href="/v4.2/type/Int16/hierarchy/" target="_top">
<polygon fill="#999999" stroke="#999999" points="856,-22 802,-22 802,-0 856,-0 856,-22"/>
<text text-anchor="middle" x="829" y="-7.4" font-family="Helvetica,sans-Serif" font-size="12.00" fill="white">Int16</text>
</a>
</g>
</g>
<!-- FixedWidthInteger&#45;&gt;Int16 -->
<g id="edge36" class="edge">
<path fill="none" stroke="#cccccc" d="M888.128,-57.9883C877.611,-49.8087 862.528,-38.0773 850.228,-28.5108"/>
<polygon fill="#cccccc" stroke="#cccccc" points="852.29,-25.6806 842.248,-22.3039 847.993,-31.2061 852.29,-25.6806"/>
</g>
<!-- Int32 -->
<g id="node31" class="node">
<g id="a_node31"><a xlink:href="/v4.2/type/Int32/hierarchy/" target="_top">
<polygon fill="#999999" stroke="#999999" points="640,-22 586,-22 586,-0 640,-0 640,-22"/>
<text text-anchor="middle" x="613" y="-7.4" font-family="Helvetica,sans-Serif" font-size="12.00" fill="white">Int32</text>
</a>
</g>
</g>
<!-- FixedWidthInteger&#45;&gt;Int32 -->
<g id="edge37" class="edge">
<path fill="none" stroke="#cccccc" d="M847.619,-59.6946C798.614,-51.746 723.819,-38.8013 649.995,-22.0748"/>
<polygon fill="#cccccc" stroke="#cccccc" points="650.589,-18.6202 640.06,-19.7991 649.026,-25.4435 650.589,-18.6202"/>
</g>
<!-- Int64 -->
<g id="node32" class="node">
<g id="a_node32"><a xlink:href="/v4.2/type/Int64/hierarchy/" target="_top">
<polygon fill="#999999" stroke="#999999" points="568,-22 514,-22 514,-0 568,-0 568,-22"/>
<text text-anchor="middle" x="541" y="-7.4" font-family="Helvetica,sans-Serif" font-size="12.00" fill="white">Int64</text>
</a>
</g>
</g>
<!-- FixedWidthInteger&#45;&gt;Int64 -->
<g id="edge38" class="edge">
<path fill="none" stroke="#cccccc" d="M847.475,-61.2595C773.362,-51.7875 642.244,-34.4952 578.103,-21.9621"/>
<polygon fill="#cccccc" stroke="#cccccc" points="578.531,-18.4777 568.034,-19.9154 577.137,-25.3374 578.531,-18.4777"/>
</g>
<!-- Int8 -->
<g id="node33" class="node">
<g id="a_node33"><a xlink:href="/v4.2/type/Int8/hierarchy/" target="_top">
<polygon fill="#999999" stroke="#999999" points="712,-22 658,-22 658,-0 712,-0 712,-22"/>
<text text-anchor="middle" x="685" y="-7.4" font-family="Helvetica,sans-Serif" font-size="12.00" fill="white">Int8</text>
</a>
</g>
</g>
<!-- FixedWidthInteger&#45;&gt;Int8 -->
<g id="edge39" class="edge">
<path fill="none" stroke="#cccccc" d="M860.546,-57.9168C826.164,-49.2898 775.242,-36.3793 722.063,-22.2477"/>
<polygon fill="#cccccc" stroke="#cccccc" points="722.674,-18.7885 712.11,-19.5955 720.872,-25.5525 722.674,-18.7885"/>
</g>
<!-- UInt -->
<g id="node58" class="node">
<g id="a_node58"><a xlink:href="/v4.2/type/UInt/hierarchy/" target="_top">
<polygon fill="#999999" stroke="#999999" points="1072,-22 1018,-22 1018,-0 1072,-0 1072,-22"/>
<text text-anchor="middle" x="1045" y="-7.4" font-family="Helvetica,sans-Serif" font-size="12.00" fill="white">UInt</text>
</a>
</g>
</g>
<!-- FixedWidthInteger&#45;&gt;UInt -->
<g id="edge40" class="edge">
<path fill="none" stroke="#cccccc" d="M926.744,-57.9883C949.842,-49.0057 983.955,-35.7398 1009.61,-25.7614"/>
<polygon fill="#cccccc" stroke="#cccccc" points="1010.94,-29.0004 1018.99,-22.1138 1008.4,-22.4763 1010.94,-29.0004"/>
</g>
<!-- UInt16 -->
<g id="node59" class="node">
<g id="a_node59"><a xlink:href="/v4.2/type/UInt16/hierarchy/" target="_top">
<polygon fill="#999999" stroke="#999999" points="1000,-22 946,-22 946,-0 1000,-0 1000,-22"/>
<text text-anchor="middle" x="973" y="-7.4" font-family="Helvetica,sans-Serif" font-size="12.00" fill="white">UInt16</text>
</a>
</g>
</g>
<!-- FixedWidthInteger&#45;&gt;UInt16 -->
<g id="edge41" class="edge">
<path fill="none" stroke="#cccccc" d="M913.872,-57.9883C924.389,-49.8087 939.472,-38.0773 951.772,-28.5108"/>
<polygon fill="#cccccc" stroke="#cccccc" points="954.007,-31.2061 959.752,-22.3039 949.71,-25.6806 954.007,-31.2061"/>
</g>
<!-- UInt32 -->
<g id="node60" class="node">
<g id="a_node60"><a xlink:href="/v4.2/type/UInt32/hierarchy/" target="_top">
<polygon fill="#999999" stroke="#999999" points="928,-22 874,-22 874,-0 928,-0 928,-22"/>
<text text-anchor="middle" x="901" y="-7.4" font-family="Helvetica,sans-Serif" font-size="12.00" fill="white">UInt32</text>
</a>
</g>
</g>
<!-- FixedWidthInteger&#45;&gt;UInt32 -->
<g id="edge42" class="edge">
<path fill="none" stroke="#cccccc" d="M901,-57.9883C901,-50.9098 901,-41.1714 901,-32.4779"/>
<polygon fill="#cccccc" stroke="#cccccc" points="904.5,-32.3038 901,-22.3039 897.5,-32.3039 904.5,-32.3038"/>
</g>
<!-- UInt64 -->
<g id="node61" class="node">
<g id="a_node61"><a xlink:href="/v4.2/type/UInt64/hierarchy/" target="_top">
<polygon fill="#999999" stroke="#999999" points="1216,-22 1162,-22 1162,-0 1216,-0 1216,-22"/>
<text text-anchor="middle" x="1189" y="-7.4" font-family="Helvetica,sans-Serif" font-size="12.00" fill="white">UInt64</text>
</a>
</g>
</g>
<!-- FixedWidthInteger&#45;&gt;UInt64 -->
<g id="edge43" class="edge">
<path fill="none" stroke="#cccccc" d="M954.381,-59.6946C1003.39,-51.746 1078.18,-38.8013 1152,-22.0748"/>
<polygon fill="#cccccc" stroke="#cccccc" points="1152.97,-25.4435 1161.94,-19.7991 1151.41,-18.6202 1152.97,-25.4435"/>
</g>
<!-- UInt8 -->
<g id="node62" class="node">
<g id="a_node62"><a xlink:href="/v4.2/type/UInt8/hierarchy/" target="_top">
<polygon fill="#999999" stroke="#999999" points="1144,-22 1090,-22 1090,-0 1144,-0 1144,-22"/>
<text text-anchor="middle" x="1117" y="-7.4" font-family="Helvetica,sans-Serif" font-size="12.00" fill="white">UInt8</text>
</a>
</g>
</g>
<!-- FixedWidthInteger&#45;&gt;UInt8 -->
<g id="edge44" class="edge">
<path fill="none" stroke="#cccccc" d="M941.454,-57.9168C975.836,-49.2898 1026.76,-36.3793 1079.94,-22.2477"/>
<polygon fill="#cccccc" stroke="#cccccc" points="1081.13,-25.5525 1089.89,-19.5955 1079.33,-18.7885 1081.13,-25.5525"/>
</g>
<!-- FloatingPoint -->
<g id="node27" class="node">
<g id="a_node27"><a xlink:href="/v4.2/protocol/FloatingPoint/hierarchy/" target="_top">
<path fill="#999999" stroke="#999999" d="M1112.7,-138C1112.7,-138 1047.3,-138 1047.3,-138 1043.63,-138 1039.97,-134.333 1039.97,-130.667 1039.97,-130.667 1039.97,-123.333 1039.97,-123.333 1039.97,-119.667 1043.63,-116 1047.3,-116 1047.3,-116 1112.7,-116 1112.7,-116 1116.37,-116 1120.03,-119.667 1120.03,-123.333 1120.03,-123.333 1120.03,-130.667 1120.03,-130.667 1120.03,-134.333 1116.37,-138 1112.7,-138"/>
<text text-anchor="middle" x="1080" y="-123.4" font-family="Helvetica,sans-Serif" font-size="12.00" fill="white">FloatingPoint</text>
</a>
</g>
</g>
<!-- FloatingPoint&#45;&gt;BinaryFloatingPoint -->
<g id="edge55" class="edge">
<path fill="none" stroke="#cccccc" d="M1039.53,-122.497C931.273,-113.127 634.213,-87.4156 500.176,-75.8143"/>
<polygon fill="#cccccc" stroke="#cccccc" points="500.302,-72.3123 490.038,-74.9368 499.699,-79.2862 500.302,-72.3123"/>
</g>
<!-- Hashable&#45;&gt;AnyHashable -->
<g id="edge61" class="edge">
<path fill="none" stroke="#cccccc" d="M3362.34,-178.947C3405.65,-171.467 3487.55,-156.338 3556,-138 3683.73,-103.781 3831.49,-50.6197 3898.54,-25.7292"/>
<polygon fill="#cccccc" stroke="#cccccc" points="3900.07,-28.8959 3908.22,-22.1258 3897.63,-22.336 3900.07,-28.8959"/>
</g>
<!-- Hashable&#45;&gt;AnyKeyPath -->
<g id="edge62" class="edge">
<path fill="none" stroke="#cccccc" d="M3362.05,-180.232C3413.02,-173.566 3519.49,-158.444 3608,-138 3751.82,-104.781 3918.69,-50.415 3992.93,-25.3837"/>
<polygon fill="#cccccc" stroke="#cccccc" points="3994.43,-28.5721 4002.78,-22.0516 3992.18,-21.9413 3994.43,-28.5721"/>
</g>
<!-- Hashable&#45;&gt;Array -->
<g id="edge63" class="edge">
<path fill="none" stroke="#cccccc" d="M3362.24,-181.704C3435.48,-175.977 3628.17,-159.931 3788,-138 3993.59,-109.79 4042.02,-83.1733 4248,-58 4468.51,-31.0506 4530.04,-59.5044 4752.58,-21.9358"/>
<polygon fill="#cccccc" stroke="#cccccc" points="4753.35,-25.3553 4762.61,-20.2162 4752.16,-18.456 4753.35,-25.3553"/>
</g>
<!-- Hashable&#45;&gt;ArraySlice -->
<g id="edge64" class="edge">
<path fill="none" stroke="#cccccc" d="M3362.09,-182.41C3443.83,-177.877 3676.76,-163.544 3869,-138 4012.71,-118.904 4047.97,-109.089 4190,-80 4232.88,-71.2172 4242.69,-64.3648 4286,-58 4520.72,-23.5035 4586.48,-57.6738 4824.86,-21.9181"/>
<polygon fill="#cccccc" stroke="#cccccc" points="4825.52,-25.3587 4834.88,-20.3906 4824.46,-18.4388 4825.52,-25.3587"/>
</g>
<!-- Hashable&#45;&gt;BinaryInteger -->
<g id="edge65" class="edge">
<path fill="none" stroke="#cccccc" d="M3301.91,-183.433C3124.33,-180.053 2195.18,-161.894 1437,-138 1365.12,-135.735 1281.99,-132.381 1229.96,-130.193"/>
<polygon fill="#cccccc" stroke="#cccccc" points="1229.8,-126.683 1219.66,-129.758 1229.5,-133.677 1229.8,-126.683"/>
</g>
<!-- Hashable&#45;&gt;Bool -->
<g id="edge66" class="edge">
<path fill="none" stroke="#cccccc" d="M3362.23,-183.033C3452.49,-179.875 3727.81,-168.267 3954,-138 4087.74,-120.104 4121.08,-112.648 4252,-80 4284.47,-71.9039 4291.07,-63.9593 4324,-58 4576.64,-12.2732 4649.69,-63.6972 4906.61,-21.9025"/>
<polygon fill="#cccccc" stroke="#cccccc" points="4907.32,-25.3325 4916.62,-20.2436 4906.18,-18.4269 4907.32,-25.3325"/>
</g>
<!-- Hashable&#45;&gt;Character -->
<g id="edge67" class="edge">
<path fill="none" stroke="#cccccc" d="M3301.76,-183.432C3204.81,-181.306 2893.23,-172.094 2638,-138 2419.41,-108.801 2162.17,-47.0452 2063.92,-22.4386"/>
<polygon fill="#cccccc" stroke="#cccccc" points="2064.65,-19.0127 2054.1,-19.9689 2062.94,-25.8015 2064.65,-19.0127"/>
</g>
<!-- Hashable&#45;&gt;ClosedRange -->
<g id="edge68" class="edge">
<path fill="none" stroke="#cccccc" d="M3362.07,-183.462C3459.89,-181.409 3777.71,-172.355 4038,-138 4217.74,-114.276 4258.28,-81.8367 4438,-58 4674.05,-26.6927 4738.91,-53.0009 4978.79,-21.9928"/>
<polygon fill="#cccccc" stroke="#cccccc" points="4979.41,-25.4418 4988.87,-20.67 4978.5,-18.5013 4979.41,-25.4418"/>
</g>
<!-- Hashable&#45;&gt;ClosedRange.Index -->
<g id="edge83" class="edge">
<path fill="none" stroke="#cccccc" d="M3301.89,-175.748C3269.13,-166.711 3215.24,-151.68 3169,-138 3034.87,-98.318 2876.81,-48.5075 2803.37,-25.1854"/>
<polygon fill="#cccccc" stroke="#cccccc" points="2804.17,-21.7673 2793.58,-22.0742 2802.05,-28.4385 2804.17,-21.7673"/>
</g>
<!-- Hashable&#45;&gt;CodingUserInfoKey -->
<g id="edge69" class="edge">
<path fill="none" stroke="#cccccc" d="M3334.08,-173.756C3339.71,-146.097 3355.3,-69.5091 3362.82,-32.5186"/>
<polygon fill="#cccccc" stroke="#cccccc" points="3366.32,-32.9052 3364.88,-22.4081 3359.46,-31.5093 3366.32,-32.9052"/>
</g>
<!-- Hashable&#45;&gt;ContiguousArray -->
<g id="edge70" class="edge">
<path fill="none" stroke="#cccccc" d="M3341.53,-173.756C3367.81,-145.501 3441.6,-66.1852 3475.09,-30.183"/>
<polygon fill="#cccccc" stroke="#cccccc" points="3478.07,-32.1138 3482.32,-22.4081 3472.94,-27.3461 3478.07,-32.1138"/>
</g>
<!-- Hashable&#45;&gt;Dictionary -->
<g id="edge71" class="edge">
<path fill="none" stroke="#cccccc" d="M3347.43,-173.756C3390.88,-144.897 3514.55,-62.7667 3567.01,-27.9319"/>
<polygon fill="#cccccc" stroke="#cccccc" points="3569.26,-30.6384 3575.65,-22.1906 3565.39,-24.8072 3569.26,-30.6384"/>
</g>
<!-- Hashable&#45;&gt;Dictionary.Index -->
<g id="edge84" class="edge">
<path fill="none" stroke="#cccccc" d="M3362.19,-181.784C3428.21,-176.649 3590.2,-162.471 3724,-138 3896.39,-106.47 4097.44,-50.2152 4184.33,-24.9325"/>
<polygon fill="#cccccc" stroke="#cccccc" points="4185.49,-28.2409 4194.11,-22.0785 4183.53,-21.5214 4185.49,-28.2409"/>
</g>
<!-- Hashable&#45;&gt;FlattenCollection.Index -->
<g id="edge85" class="edge">
<path fill="none" stroke="#cccccc" d="M3301.79,-181.912C3230.84,-176.765 3048.11,-162.111 2897,-138 2695.66,-105.874 2459.32,-49.4367 2358.55,-24.4763"/>
<polygon fill="#cccccc" stroke="#cccccc" points="2359.2,-21.0323 2348.65,-22.0183 2357.51,-27.8258 2359.2,-21.0323"/>
</g>
<!-- Hashable&#45;&gt;FloatingPoint -->
<g id="edge72" class="edge">
<path fill="none" stroke="#cccccc" d="M3301.91,-183.701C3057.41,-181.227 1399.06,-163.629 1130.05,-137.818"/>
<polygon fill="#cccccc" stroke="#cccccc" points="1130.33,-134.328 1120.02,-136.779 1129.6,-141.291 1130.33,-134.328"/>
</g>
<!-- Hashable&#45;&gt;LazyDropWhileCollection.Index -->
<g id="edge86" class="edge">
<path fill="none" stroke="#cccccc" d="M3308.12,-173.883C3239.09,-144.637 3039.14,-59.9312 2959.4,-26.151"/>
<polygon fill="#cccccc" stroke="#cccccc" points="2960.42,-22.7827 2949.85,-22.1045 2957.69,-29.2281 2960.42,-22.7827"/>
</g>
<!-- Hashable&#45;&gt;LazyPrefixWhileCollection.Index -->
<g id="edge87" class="edge">
<path fill="none" stroke="#cccccc" d="M3319.55,-173.756C3284.7,-145.076 3185.92,-63.7849 3143.15,-28.5865"/>
<polygon fill="#cccccc" stroke="#cccccc" points="3145.33,-25.8426 3135.38,-22.1906 3140.88,-31.2476 3145.33,-25.8426"/>
</g>
<!-- Hashable&#45;&gt;ObjectIdentifier -->
<g id="edge73" class="edge">
<path fill="none" stroke="#cccccc" d="M3301.67,-183.888C3192.86,-183.154 2812.02,-177.718 2501,-138 2371.48,-121.46 2340.52,-108.045 2213,-80 2130.28,-61.8082 2034.6,-38.5148 1977.81,-24.4516"/>
<polygon fill="#cccccc" stroke="#cccccc" points="1978.56,-21.0319 1968.02,-22.0213 1976.88,-27.826 1978.56,-21.0319"/>
</g>
<!-- OpaquePointer -->
<g id="node40" class="node">
<g id="a_node40"><a xlink:href="/v4.2/type/OpaquePointer/hierarchy/" target="_top">
<polygon fill="#999999" stroke="#999999" points="3731.04,-22 3640.96,-22 3640.96,-0 3731.04,-0 3731.04,-22"/>
<text text-anchor="middle" x="3686" y="-7.4" font-family="Helvetica,sans-Serif" font-size="12.00" fill="white">OpaquePointer</text>
</a>
</g>
</g>
<!-- Hashable&#45;&gt;OpaquePointer -->
<g id="edge74" class="edge">
<path fill="none" stroke="#cccccc" d="M3354.57,-173.991C3375.11,-164.819 3406.21,-150.765 3433,-138 3515.05,-98.8965 3610.83,-50.4117 3657.5,-26.5957"/>
<polygon fill="#cccccc" stroke="#cccccc" points="3659.12,-29.7015 3666.43,-22.0358 3655.93,-23.4676 3659.12,-29.7015"/>
</g>
<!-- Optional -->
<g id="node42" class="node">
<g id="a_node42"><a xlink:href="/v4.2/type/Optional/hierarchy/" target="_top">
<polygon fill="#999999" stroke="#999999" points="3804.02,-22 3749.98,-22 3749.98,-0 3804.02,-0 3804.02,-22"/>
<text text-anchor="middle" x="3777" y="-7.4" font-family="Helvetica,sans-Serif" font-size="12.00" fill="white">Optional</text>
</a>
</g>
</g>
<!-- Hashable&#45;&gt;Optional -->
<g id="edge75" class="edge">
<path fill="none" stroke="#cccccc" d="M3362.08,-174.619C3390.18,-165.707 3433.19,-151.672 3470,-138 3571.39,-100.345 3689.17,-50.1592 3744.78,-26.0698"/>
<polygon fill="#cccccc" stroke="#cccccc" points="3746.32,-29.2137 3754.1,-22.0213 3743.54,-22.7925 3746.32,-29.2137"/>
</g>
<!-- Range -->
<g id="node44" class="node">
<g id="a_node44"><a xlink:href="/v4.2/type/Range/hierarchy/" target="_top">
<polygon fill="#999999" stroke="#999999" points="3876,-22 3822,-22 3822,-0 3876,-0 3876,-22"/>
<text text-anchor="middle" x="3849" y="-7.4" font-family="Helvetica,sans-Serif" font-size="12.00" fill="white">Range</text>
</a>
</g>
</g>
<!-- Hashable&#45;&gt;Range -->
<g id="edge76" class="edge">
<path fill="none" stroke="#cccccc" d="M3362.22,-177.326C3398.2,-169.137 3459.99,-154.317 3512,-138 3624.91,-102.577 3755.27,-50.5766 3815.41,-25.9353"/>
<polygon fill="#cccccc" stroke="#cccccc" points="3816.87,-29.1204 3824.79,-22.0819 3814.21,-22.6458 3816.87,-29.1204"/>
</g>
<!-- Hashable&#45;&gt;ReversedCollection.Index -->
<g id="edge88" class="edge">
<path fill="none" stroke="#cccccc" d="M3301.83,-180.632C3244.26,-174.005 3114.83,-158.148 3007,-138 2823.16,-103.65 2607.38,-49.0342 2513.56,-24.5704"/>
<polygon fill="#cccccc" stroke="#cccccc" points="2514.36,-21.1614 2503.8,-22.0188 2512.59,-27.9339 2514.36,-21.1614"/>
</g>
<!-- Set -->
<g id="node47" class="node">
<g id="a_node47"><a xlink:href="/v4.2/type/Set/hierarchy/" target="_top">
<polygon fill="#999999" stroke="#999999" points="5143,-22 5089,-22 5089,-0 5143,-0 5143,-22"/>
<text text-anchor="middle" x="5116" y="-7.4" font-family="Helvetica,sans-Serif" font-size="12.00" fill="white">Set</text>
</a>
</g>
</g>
<!-- Hashable&#45;&gt;Set -->
<g id="edge77" class="edge">
<path fill="none" stroke="#cccccc" d="M3362.2,-182.88C3466.5,-178.873 3821.12,-164.078 4113,-138 4540.77,-99.7801 4653.6,-105.846 5078.87,-21.9772"/>
<polygon fill="#cccccc" stroke="#cccccc" points="5079.85,-25.3526 5088.98,-19.9792 5078.49,-18.4856 5079.85,-25.3526"/>
</g>
<!-- Hashable&#45;&gt;Set.Index -->
<g id="edge89" class="edge">
<path fill="none" stroke="#cccccc" d="M3327.83,-173.756C3316.53,-145.978 3285.14,-68.848 3270.16,-32.0425"/>
<polygon fill="#cccccc" stroke="#cccccc" points="3273.25,-30.351 3266.24,-22.4081 3266.76,-32.9898 3273.25,-30.351"/>
</g>
<!-- Hashable&#45;&gt;String.Index -->
<g id="edge90" class="edge">
<path fill="none" stroke="#cccccc" d="M3362.44,-181.112C3421.15,-175.248 3553.98,-160.558 3664,-138 3821.26,-105.756 4004.13,-50.2813 4084.08,-25.1068"/>
<polygon fill="#cccccc" stroke="#cccccc" points="4085.28,-28.3974 4093.76,-22.0471 4083.17,-21.7227 4085.28,-28.3974"/>
</g>
<!-- Hashable&#45;&gt;StringProtocol -->
<g id="edge78" class="edge">
<path fill="none" stroke="#cccccc" d="M3301.66,-182.992C3100.52,-176.311 1959.38,-138.409 1698.93,-129.758"/>
<polygon fill="#cccccc" stroke="#cccccc" points="1698.72,-126.249 1688.61,-129.415 1698.49,-133.245 1698.72,-126.249"/>
</g>
<!-- Hashable&#45;&gt;Unicode.Scalar -->
<g id="edge91" class="edge">
<path fill="none" stroke="#cccccc" d="M3301.65,-183.844C3084.24,-182.639 1767.47,-173.893 1594,-138 1482.99,-115.031 1360.91,-55.0864 1307.53,-26.9684"/>
<polygon fill="#cccccc" stroke="#cccccc" points="1308.85,-23.7085 1298.38,-22.1046 1305.57,-29.8894 1308.85,-23.7085"/>
</g>
<!-- UnsafeMutablePointer -->
<g id="node65" class="node">
<g id="a_node65"><a xlink:href="/v4.2/type/UnsafeMutablePointer/hierarchy/" target="_top">
<polygon fill="#999999" stroke="#999999" points="2686.05,-22 2557.95,-22 2557.95,-0 2686.05,-0 2686.05,-22"/>
<text text-anchor="middle" x="2622" y="-7.4" font-family="Helvetica,sans-Serif" font-size="12.00" fill="white">UnsafeMutablePointer</text>
</a>
</g>
</g>
<!-- Hashable&#45;&gt;UnsafeMutablePointer -->
<g id="edge79" class="edge">
<path fill="none" stroke="#cccccc" d="M3301.8,-178.862C3256.47,-170.992 3168.24,-155.061 3094,-138 2935.34,-101.537 2749.25,-48.9173 2666.06,-24.8686"/>
<polygon fill="#cccccc" stroke="#cccccc" points="2667.01,-21.5008 2656.44,-22.0804 2665.07,-28.2244 2667.01,-21.5008"/>
</g>
<!-- UnsafeMutableRawPointer -->
<g id="node66" class="node">
<g id="a_node66"><a xlink:href="/v4.2/type/UnsafeMutableRawPointer/hierarchy/" target="_top">
<polygon fill="#999999" stroke="#999999" points="2225.06,-22 2072.94,-22 2072.94,-0 2225.06,-0 2225.06,-22"/>
<text text-anchor="middle" x="2149" y="-7.4" font-family="Helvetica,sans-Serif" font-size="12.00" fill="white">UnsafeMutableRawPointer</text>
</a>
</g>
</g>
<!-- Hashable&#45;&gt;UnsafeMutableRawPointer -->
<g id="edge80" class="edge">
<path fill="none" stroke="#cccccc" d="M3301.84,-182.715C3218.27,-178.892 2976.77,-166.066 2778,-138 2561.67,-107.454 2307.53,-49.7341 2200.56,-24.4238"/>
<polygon fill="#cccccc" stroke="#cccccc" points="2201.21,-20.9812 2190.67,-22.0775 2199.59,-27.7921 2201.21,-20.9812"/>
</g>
<!-- UnsafePointer -->
<g id="node67" class="node">
<g id="a_node67"><a xlink:href="/v4.2/type/UnsafePointer/hierarchy/" target="_top">
<polygon fill="#999999" stroke="#999999" points="1865.03,-22 1778.97,-22 1778.97,-0 1865.03,-0 1865.03,-22"/>
<text text-anchor="middle" x="1822" y="-7.4" font-family="Helvetica,sans-Serif" font-size="12.00" fill="white">UnsafePointer</text>
</a>
</g>
</g>
<!-- Hashable&#45;&gt;UnsafePointer -->
<g id="edge81" class="edge">
<path fill="none" stroke="#cccccc" d="M3301.64,-183.285C3158.87,-179.813 2553.33,-163.807 2366,-138 2252.15,-122.315 2225.97,-105.922 2114,-80 2030.35,-60.6338 1933.26,-37.9914 1874.79,-24.3359"/>
<polygon fill="#cccccc" stroke="#cccccc" points="1875.57,-20.9247 1865.04,-22.0586 1873.98,-27.7412 1875.57,-20.9247"/>
</g>
<!-- UnsafeRawPointer -->
<g id="node68" class="node">
<g id="a_node68"><a xlink:href="/v4.2/type/UnsafeRawPointer/hierarchy/" target="_top">
<polygon fill="#999999" stroke="#999999" points="1761.04,-22 1650.96,-22 1650.96,-0 1761.04,-0 1761.04,-22"/>
<text text-anchor="middle" x="1706" y="-7.4" font-family="Helvetica,sans-Serif" font-size="12.00" fill="white">UnsafeRawPointer</text>
</a>
</g>
</g>
<!-- Hashable&#45;&gt;UnsafeRawPointer -->
<g id="edge82" class="edge">
<path fill="none" stroke="#cccccc" d="M3301.66,-183.466C3148.82,-180.663 2462.27,-166.666 2251,-138 2061.32,-112.262 1840.63,-51.4603 1749.14,-24.8491"/>
<polygon fill="#cccccc" stroke="#cccccc" points="1749.98,-21.4493 1739.4,-22.0041 1748.02,-28.1684 1749.98,-21.4493"/>
</g>
<!-- KeyPath -->
<g id="node34" class="node">
<g id="a_node34"><a xlink:href="/v4.2/type/KeyPath/hierarchy/" target="_top">
<polygon fill="#999999" stroke="#999999" points="4455.52,-22 4400.48,-22 4400.48,-0 4455.52,-0 4455.52,-22"/>
<text text-anchor="middle" x="4428" y="-7.4" font-family="Helvetica,sans-Serif" font-size="12.00" fill="white">KeyPath</text>
</a>
</g>
</g>
<!-- WritableKeyPath -->
<g id="node70" class="node">
<g id="a_node70"><a xlink:href="/v4.2/type/WritableKeyPath/hierarchy/" target="_top">
<polygon fill="#999999" stroke="#999999" points="4572.37,-22 4473.63,-22 4473.63,-0 4572.37,-0 4572.37,-22"/>
<text text-anchor="middle" x="4523" y="-7.4" font-family="Helvetica,sans-Serif" font-size="12.00" fill="white">WritableKeyPath</text>
</a>
</g>
</g>
<!-- KeyPath&#45;&gt;WritableKeyPath -->
<g id="edge94" class="edge">
<path fill="none" stroke="#cccccc" d="M4455.46,-11C4458.12,-11 4460.77,-11 4463.43,-11"/>
<polygon fill="#cccccc" stroke="#cccccc" points="4463.66,-14.5001 4473.66,-11 4463.66,-7.5001 4463.66,-14.5001"/>
</g>
<!-- Numeric&#45;&gt;BinaryInteger -->
<g id="edge96" class="edge">
<path fill="none" stroke="#cccccc" d="M1179,-231.883C1179,-213.17 1179,-172.827 1179,-148.287"/>
<polygon fill="#cccccc" stroke="#cccccc" points="1182.5,-148.258 1179,-138.258 1175.5,-148.258 1182.5,-148.258"/>
</g>
<!-- SignedNumeric -->
<g id="node51" class="node">
<g id="a_node51"><a xlink:href="/v4.2/protocol/SignedNumeric/hierarchy/" target="_top">
<path fill="#999999" stroke="#999999" d="M1118.69,-196C1118.69,-196 1041.31,-196 1041.31,-196 1037.64,-196 1033.97,-192.333 1033.97,-188.667 1033.97,-188.667 1033.97,-181.333 1033.97,-181.333 1033.97,-177.667 1037.64,-174 1041.31,-174 1041.31,-174 1118.69,-174 1118.69,-174 1122.36,-174 1126.03,-177.667 1126.03,-181.333 1126.03,-181.333 1126.03,-188.667 1126.03,-188.667 1126.03,-192.333 1122.36,-196 1118.69,-196"/>
<text text-anchor="middle" x="1080" y="-181.4" font-family="Helvetica,sans-Serif" font-size="12.00" fill="white">SignedNumeric</text>
</a>
</g>
</g>
<!-- Numeric&#45;&gt;SignedNumeric -->
<g id="edge97" class="edge">
<path fill="none" stroke="#cccccc" d="M1161.3,-231.988C1146.19,-223.441 1124.22,-211.015 1106.93,-201.234"/>
<polygon fill="#cccccc" stroke="#cccccc" points="1108.31,-197.991 1097.88,-196.114 1104.86,-204.084 1108.31,-197.991"/>
</g>
<!-- OptionSet -->
<g id="node41" class="node">
<g id="a_node41"><a xlink:href="/v4.2/protocol/OptionSet/hierarchy/" target="_top">
<path fill="#999999" stroke="#999999" d="M5121.19,-196C5121.19,-196 5072.81,-196 5072.81,-196 5069.14,-196 5065.48,-192.333 5065.48,-188.667 5065.48,-188.667 5065.48,-181.333 5065.48,-181.333 5065.48,-177.667 5069.14,-174 5072.81,-174 5072.81,-174 5121.19,-174 5121.19,-174 5124.86,-174 5128.52,-177.667 5128.52,-181.333 5128.52,-181.333 5128.52,-188.667 5128.52,-188.667 5128.52,-192.333 5124.86,-196 5121.19,-196"/>
<text text-anchor="middle" x="5097" y="-181.4" font-family="Helvetica,sans-Serif" font-size="12.00" fill="white">OptionSet</text>
</a>
</g>
</g>
<!-- PartialKeyPath&#45;&gt;KeyPath -->
<g id="edge93" class="edge">
<path fill="none" stroke="#cccccc" d="M4382.65,-11C4385.14,-11 4387.63,-11 4390.12,-11"/>
<polygon fill="#cccccc" stroke="#cccccc" points="4390.36,-14.5001 4400.36,-11 4390.36,-7.5001 4390.36,-14.5001"/>
</g>
<!-- ReferenceWritableKeyPath -->
<g id="node45" class="node">
<g id="a_node45"><a xlink:href="/v4.2/type/ReferenceWritableKeyPath/hierarchy/" target="_top">
<polygon fill="#999999" stroke="#999999" points="4744.9,-22 4591.1,-22 4591.1,-0 4744.9,-0 4744.9,-22"/>
<text text-anchor="middle" x="4668" y="-7.4" font-family="Helvetica,sans-Serif" font-size="12.00" fill="white">ReferenceWritableKeyPath</text>
</a>
</g>
</g>
<!-- SetAlgebra&#45;&gt;OptionSet -->
<g id="edge100" class="edge">
<path fill="none" stroke="#cccccc" d="M5146.27,-231.988C5137.76,-224.045 5125.66,-212.751 5115.58,-203.344"/>
<polygon fill="#cccccc" stroke="#cccccc" points="5117.74,-200.568 5108.04,-196.304 5112.96,-205.686 5117.74,-200.568"/>
</g>
<!-- SetAlgebra&#45;&gt;Set -->
<g id="edge101" class="edge">
<path fill="none" stroke="#cccccc" d="M5155.19,-231.82C5148.9,-196.568 5127.99,-79.2764 5119.57,-32.0032"/>
<polygon fill="#cccccc" stroke="#cccccc" points="5122.99,-31.2926 5117.79,-22.062 5116.1,-32.5211 5122.99,-31.2926"/>
</g>
<!-- SignedInteger&#45;&gt;Int -->
<g id="edge45" class="edge">
<path fill="none" stroke="#cccccc" d="M757,-57.9883C757,-50.9098 757,-41.1714 757,-32.4779"/>
<polygon fill="#cccccc" stroke="#cccccc" points="760.5,-32.3038 757,-22.3039 753.5,-32.3039 760.5,-32.3038"/>
</g>
<!-- SignedInteger&#45;&gt;Int16 -->
<g id="edge46" class="edge">
<path fill="none" stroke="#cccccc" d="M769.872,-57.9883C780.389,-49.8087 795.472,-38.0773 807.772,-28.5108"/>
<polygon fill="#cccccc" stroke="#cccccc" points="810.007,-31.2061 815.752,-22.3039 805.71,-25.6806 810.007,-31.2061"/>
</g>
<!-- SignedInteger&#45;&gt;Int32 -->
<g id="edge47" class="edge">
<path fill="none" stroke="#cccccc" d="M731.256,-57.9883C708.158,-49.0057 674.045,-35.7398 648.386,-25.7614"/>
<polygon fill="#cccccc" stroke="#cccccc" points="649.596,-22.4763 639.007,-22.1138 647.058,-29.0004 649.596,-22.4763"/>
</g>
<!-- SignedInteger&#45;&gt;Int64 -->
<g id="edge48" class="edge">
<path fill="none" stroke="#cccccc" d="M716.546,-57.9168C682.164,-49.2898 631.242,-36.3793 578.063,-22.2477"/>
<polygon fill="#cccccc" stroke="#cccccc" points="578.674,-18.7885 568.11,-19.5955 576.872,-25.5525 578.674,-18.7885"/>
</g>
<!-- SignedInteger&#45;&gt;Int8 -->
<g id="edge49" class="edge">
<path fill="none" stroke="#cccccc" d="M744.128,-57.9883C733.611,-49.8087 718.528,-38.0773 706.228,-28.5108"/>
<polygon fill="#cccccc" stroke="#cccccc" points="708.29,-25.6806 698.248,-22.3039 703.993,-31.2061 708.29,-25.6806"/>
</g>
<!-- SignedNumeric&#45;&gt;FloatingPoint -->
<g id="edge98" class="edge">
<path fill="none" stroke="#cccccc" d="M1080,-173.988C1080,-166.91 1080,-157.171 1080,-148.478"/>
<polygon fill="#cccccc" stroke="#cccccc" points="1083.5,-148.304 1080,-138.304 1076.5,-148.304 1083.5,-148.304"/>
</g>
<!-- SignedNumeric&#45;&gt;SignedInteger -->
<g id="edge99" class="edge">
<path fill="none" stroke="#cccccc" d="M1051.62,-173.983C993.488,-153.466 860.846,-106.651 795.221,-83.4898"/>
<polygon fill="#cccccc" stroke="#cccccc" points="796.258,-80.1443 785.664,-80.1165 793.929,-86.7453 796.258,-80.1443"/>
</g>
<!-- Strideable&#45;&gt;BinaryInteger -->
<g id="edge25" class="edge">
<path fill="none" stroke="#cccccc" d="M1850.92,-181.448C1739.11,-172.554 1365.98,-142.873 1229.53,-132.019"/>
<polygon fill="#cccccc" stroke="#cccccc" points="1229.6,-128.514 1219.36,-131.21 1229.05,-135.492 1229.6,-128.514"/>
</g>
<!-- Strideable&#45;&gt;FloatingPoint -->
<g id="edge26" class="edge">
<path fill="none" stroke="#cccccc" d="M1850.88,-183.65C1747.62,-182.185 1414.84,-174.828 1130.14,-137.971"/>
<polygon fill="#cccccc" stroke="#cccccc" points="1130.4,-134.475 1120.03,-136.647 1129.49,-141.416 1130.4,-134.475"/>
</g>
<!-- String.UTF16View.Index -->
<g id="node55" class="node">
<g id="a_node55"><a xlink:href="/v4.2/type/String.UTF16View.Index/hierarchy/" target="_top">
<polygon fill="#999999" stroke="#999999" points="1482.39,-22 1343.61,-22 1343.61,-0 1482.39,-0 1482.39,-22"/>
<text text-anchor="middle" x="1413" y="-7.4" font-family="Helvetica,sans-Serif" font-size="12.00" fill="white">String.UTF16View.Index</text>
</a>
</g>
</g>
<!-- Strideable&#45;&gt;String.UTF16View.Index -->
<g id="edge31" class="edge">
<path fill="none" stroke="#cccccc" d="M1850.98,-183.528C1796.32,-181.727 1682.36,-173.598 1594,-138 1527.82,-111.338 1462.08,-56.7281 1431.21,-28.9855"/>
<polygon fill="#cccccc" stroke="#cccccc" points="1433.54,-26.3765 1423.79,-22.2309 1428.83,-31.5519 1433.54,-26.3765"/>
</g>
<!-- Strideable&#45;&gt;UnsafeMutablePointer -->
<g id="edge27" class="edge">
<path fill="none" stroke="#cccccc" d="M1915.23,-176.499C2030.8,-149.6 2425.18,-57.8103 2568.98,-24.3401"/>
<polygon fill="#cccccc" stroke="#cccccc" points="2569.95,-27.7086 2578.89,-22.0328 2568.36,-20.8908 2569.95,-27.7086"/>
</g>
<!-- Strideable&#45;&gt;UnsafeMutableRawPointer -->
<g id="edge28" class="edge">
<path fill="none" stroke="#cccccc" d="M1898.84,-173.756C1943.57,-144.837 2071.01,-62.4264 2124.69,-27.7162"/>
<polygon fill="#cccccc" stroke="#cccccc" points="2126.74,-30.5596 2133.24,-22.1906 2122.94,-24.6815 2126.74,-30.5596"/>
</g>
<!-- Strideable&#45;&gt;UnsafePointer -->
<g id="edge29" class="edge">
<path fill="none" stroke="#cccccc" d="M1879.37,-173.756C1869.52,-145.978 1842.16,-68.848 1829.11,-32.0425"/>
<polygon fill="#cccccc" stroke="#cccccc" points="1832.33,-30.663 1825.69,-22.4081 1825.74,-33.0028 1832.33,-30.663"/>
</g>
<!-- Strideable&#45;&gt;UnsafeRawPointer -->
<g id="edge30" class="edge">
<path fill="none" stroke="#cccccc" d="M1872.46,-173.756C1843.26,-145.382 1761.07,-65.5149 1724.25,-29.7296"/>
<polygon fill="#cccccc" stroke="#cccccc" points="1726.32,-26.8671 1716.71,-22.4081 1721.44,-31.8872 1726.32,-26.8671"/>
</g>
<!-- String -->
<g id="node53" class="node">
<g id="a_node53"><a xlink:href="/v4.2/type/String/hierarchy/" target="_top">
<polygon fill="#999999" stroke="#999999" points="1555,-22 1501,-22 1501,-0 1555,-0 1555,-22"/>
<text text-anchor="middle" x="1528" y="-7.4" font-family="Helvetica,sans-Serif" font-size="12.00" fill="white">String</text>
</a>
</g>
</g>
<!-- StringProtocol&#45;&gt;String -->
<g id="edge59" class="edge">
<path fill="none" stroke="#cccccc" d="M1635.53,-115.883C1615.37,-96.4116 1570.98,-53.52 1545.99,-29.3824"/>
<polygon fill="#cccccc" stroke="#cccccc" points="1548.24,-26.6889 1538.62,-22.2579 1543.38,-31.7233 1548.24,-26.6889"/>
</g>
<!-- Substring -->
<g id="node57" class="node">
<g id="a_node57"><a xlink:href="/v4.2/type/Substring/hierarchy/" target="_top">
<polygon fill="#999999" stroke="#999999" points="1633.02,-22 1572.98,-22 1572.98,-0 1633.02,-0 1633.02,-22"/>
<text text-anchor="middle" x="1603" y="-7.4" font-family="Helvetica,sans-Serif" font-size="12.00" fill="white">Substring</text>
</a>
</g>
</g>
<!-- StringProtocol&#45;&gt;Substring -->
<g id="edge60" class="edge">
<path fill="none" stroke="#cccccc" d="M1642.18,-115.883C1635.06,-97.0017 1619.63,-56.098 1610.4,-31.6272"/>
<polygon fill="#cccccc" stroke="#cccccc" points="1613.67,-30.3792 1606.87,-22.2579 1607.12,-32.8497 1613.67,-30.3792"/>
</g>
<!-- UnsignedInteger&#45;&gt;UInt -->
<g id="edge50" class="edge">
<path fill="none" stroke="#cccccc" d="M1074.56,-57.9883C1069.71,-50.4379 1062.91,-39.8611 1057.06,-30.7543"/>
<polygon fill="#cccccc" stroke="#cccccc" points="1059.98,-28.823 1051.62,-22.3039 1054.09,-32.6083 1059.98,-28.823"/>
</g>
<!-- UnsignedInteger&#45;&gt;UInt16 -->
<g id="edge51" class="edge">
<path fill="none" stroke="#cccccc" d="M1061.69,-57.9883C1044.98,-49.3223 1020.58,-36.6696 1001.6,-26.8283"/>
<polygon fill="#cccccc" stroke="#cccccc" points="1002.99,-23.6099 992.505,-22.1138 999.772,-29.8242 1002.99,-23.6099"/>
</g>
<!-- UnsignedInteger&#45;&gt;UInt32 -->
<g id="edge52" class="edge">
<path fill="none" stroke="#cccccc" d="M1048.82,-57.9883C1017.66,-48.2947 970.47,-33.6128 937.827,-23.4573"/>
<polygon fill="#cccccc" stroke="#cccccc" points="938.786,-20.0902 928.198,-20.4615 936.706,-26.7742 938.786,-20.0902"/>
</g>
<!-- UnsignedInteger&#45;&gt;UInt64 -->
<g id="edge53" class="edge">
<path fill="none" stroke="#cccccc" d="M1100.31,-57.9883C1117.02,-49.3223 1141.42,-36.6696 1160.4,-26.8283"/>
<polygon fill="#cccccc" stroke="#cccccc" points="1162.23,-29.8242 1169.49,-22.1138 1159.01,-23.6099 1162.23,-29.8242"/>
</g>
<!-- UnsignedInteger&#45;&gt;UInt8 -->
<g id="edge54" class="edge">
<path fill="none" stroke="#cccccc" d="M1087.44,-57.9883C1092.29,-50.4379 1099.09,-39.8611 1104.94,-30.7543"/>
<polygon fill="#cccccc" stroke="#cccccc" points="1107.91,-32.6083 1110.38,-22.3039 1102.02,-28.823 1107.91,-32.6083"/>
</g>
<!-- WritableKeyPath&#45;&gt;ReferenceWritableKeyPath -->
<g id="edge95" class="edge">
<path fill="none" stroke="#cccccc" d="M4572.56,-11C4575.22,-11 4577.89,-11 4580.55,-11"/>
<polygon fill="#cccccc" stroke="#cccccc" points="4580.83,-14.5001 4590.83,-11 4580.83,-7.5001 4580.83,-14.5001"/>
</g>
</g>
</svg>
