<?xml version="1.0" encoding="UTF-8" standalone="no"?>
<!DOCTYPE svg PUBLIC "-//W3C//DTD SVG 1.1//EN"
 "http://www.w3.org/Graphics/SVG/1.1/DTD/svg11.dtd">
<!-- Generated by graphviz version 2.36.0 (20140111.2315)
 -->
<!-- Title: UnsignedIntegerType &#45; Type Hierarchy &#45; SwiftDoc.org Pages: 1 -->
<svg width="857pt" height="543pt"
 viewBox="0.00 0.00 857.40 543.20" xmlns="http://www.w3.org/2000/svg" xmlns:xlink="http://www.w3.org/1999/xlink">
<g id="graph0" class="graph" transform="scale(1 1) rotate(0) translate(7.2 485.6)">
<title>UnsignedIntegerType &#45; Type Hierarchy &#45; SwiftDoc.org</title>
<polygon fill="white" stroke="none" points="-7.2,57.6 -7.2,-485.6 850.199,-485.6 850.199,57.6 -7.2,57.6"/>
<!-- BidirectionalIndexType -->
<g id="node1" class="node"><title>BidirectionalIndexType</title>
<g id="a_node1"><a xlink:href="/protocol/BidirectionalIndexType/" xlink:title="BidirectionalIndexType">
<path fill="#999999" stroke="#999999" d="M197.725,-254C197.725,-254 82.2746,-254 82.2746,-254 78.6079,-254 74.9413,-250.333 74.9413,-246.667 74.9413,-246.667 74.9413,-239.333 74.9413,-239.333 74.9413,-235.667 78.6079,-232 82.2746,-232 82.2746,-232 197.725,-232 197.725,-232 201.392,-232 205.059,-235.667 205.059,-239.333 205.059,-239.333 205.059,-246.667 205.059,-246.667 205.059,-250.333 201.392,-254 197.725,-254"/>
<text text-anchor="middle" x="140" y="-239.4" font-family="Helvetica,sans-Serif" font-size="12.00" fill="white">BidirectionalIndexType</text>
</a>
</g>
</g>
<!-- RandomAccessIndexType -->
<g id="node11" class="node"><title>RandomAccessIndexType</title>
<g id="a_node11"><a xlink:href="/protocol/RandomAccessIndexType/" xlink:title="RandomAccessIndexType">
<path fill="#999999" stroke="#999999" d="M207.225,-196C207.225,-196 72.7747,-196 72.7747,-196 69.108,-196 65.4413,-192.333 65.4413,-188.667 65.4413,-188.667 65.4413,-181.333 65.4413,-181.333 65.4413,-177.667 69.108,-174 72.7747,-174 72.7747,-174 207.225,-174 207.225,-174 210.892,-174 214.559,-177.667 214.559,-181.333 214.559,-181.333 214.559,-188.667 214.559,-188.667 214.559,-192.333 210.892,-196 207.225,-196"/>
<text text-anchor="middle" x="140" y="-181.4" font-family="Helvetica,sans-Serif" font-size="12.00" fill="white">RandomAccessIndexType</text>
</a>
</g>
</g>
<!-- BidirectionalIndexType&#45;&gt;RandomAccessIndexType -->
<g id="edge22" class="edge"><title>BidirectionalIndexType&#45;&gt;RandomAccessIndexType</title>
<path fill="none" stroke="#cccccc" d="M140,-231.988C140,-224.91 140,-215.171 140,-206.478"/>
<polygon fill="#cccccc" stroke="#cccccc" points="143.5,-206.304 140,-196.304 136.5,-206.304 143.5,-206.304"/>
</g>
<!-- BitwiseOperationsType -->
<g id="node2" class="node"><title>BitwiseOperationsType</title>
<g id="a_node2"><a xlink:href="/protocol/BitwiseOperationsType/" xlink:title="BitwiseOperationsType">
<path fill="#999999" stroke="#999999" d="M641.715,-312C641.715,-312 524.285,-312 524.285,-312 520.618,-312 516.952,-308.333 516.952,-304.667 516.952,-304.667 516.952,-297.333 516.952,-297.333 516.952,-293.667 520.618,-290 524.285,-290 524.285,-290 641.715,-290 641.715,-290 645.382,-290 649.048,-293.667 649.048,-297.333 649.048,-297.333 649.048,-304.667 649.048,-304.667 649.048,-308.333 645.382,-312 641.715,-312"/>
<text text-anchor="middle" x="583" y="-297.4" font-family="Helvetica,sans-Serif" font-size="12.00" fill="white">BitwiseOperationsType</text>
</a>
</g>
</g>
<!-- _IntegerType -->
<g id="node21" class="node"><title>_IntegerType</title>
<g id="a_node21"><a xlink:href="/protocol/_IntegerType/" xlink:title="_IntegerType">
<path fill="#999999" stroke="#999999" d="M615.708,-254C615.708,-254 550.292,-254 550.292,-254 546.626,-254 542.959,-250.333 542.959,-246.667 542.959,-246.667 542.959,-239.333 542.959,-239.333 542.959,-235.667 546.626,-232 550.292,-232 550.292,-232 615.708,-232 615.708,-232 619.374,-232 623.041,-235.667 623.041,-239.333 623.041,-239.333 623.041,-246.667 623.041,-246.667 623.041,-250.333 619.374,-254 615.708,-254"/>
<text text-anchor="middle" x="583" y="-239.4" font-family="Helvetica,sans-Serif" font-size="12.00" fill="white">_IntegerType</text>
</a>
</g>
</g>
<!-- BitwiseOperationsType&#45;&gt;_IntegerType -->
<g id="edge13" class="edge"><title>BitwiseOperationsType&#45;&gt;_IntegerType</title>
<path fill="none" stroke="#cccccc" d="M583,-289.988C583,-282.91 583,-273.171 583,-264.478"/>
<polygon fill="#cccccc" stroke="#cccccc" points="586.5,-264.304 583,-254.304 579.5,-264.304 586.5,-264.304"/>
</g>
<!-- Comparable -->
<g id="node3" class="node"><title>Comparable</title>
<g id="a_node3"><a xlink:href="/protocol/Comparable/" xlink:title="Comparable">
<path fill="#999999" stroke="#999999" d="M314.191,-370C314.191,-370 253.809,-370 253.809,-370 250.142,-370 246.475,-366.333 246.475,-362.667 246.475,-362.667 246.475,-355.333 246.475,-355.333 246.475,-351.667 250.142,-348 253.809,-348 253.809,-348 314.191,-348 314.191,-348 317.858,-348 321.525,-351.667 321.525,-355.333 321.525,-355.333 321.525,-362.667 321.525,-362.667 321.525,-366.333 317.858,-370 314.191,-370"/>
<text text-anchor="middle" x="284" y="-355.4" font-family="Helvetica,sans-Serif" font-size="12.00" fill="white">Comparable</text>
</a>
</g>
</g>
<!-- IntegerArithmeticType -->
<g id="node8" class="node"><title>IntegerArithmeticType</title>
<g id="a_node8"><a xlink:href="/protocol/IntegerArithmeticType/" xlink:title="IntegerArithmeticType">
<path fill="#999999" stroke="#999999" d="M490.711,-312C490.711,-312 379.289,-312 379.289,-312 375.623,-312 371.956,-308.333 371.956,-304.667 371.956,-304.667 371.956,-297.333 371.956,-297.333 371.956,-293.667 375.623,-290 379.289,-290 379.289,-290 490.711,-290 490.711,-290 494.377,-290 498.044,-293.667 498.044,-297.333 498.044,-297.333 498.044,-304.667 498.044,-304.667 498.044,-308.333 494.377,-312 490.711,-312"/>
<text text-anchor="middle" x="435" y="-297.4" font-family="Helvetica,sans-Serif" font-size="12.00" fill="white">IntegerArithmeticType</text>
</a>
</g>
</g>
<!-- Comparable&#45;&gt;IntegerArithmeticType -->
<g id="edge17" class="edge"><title>Comparable&#45;&gt;IntegerArithmeticType</title>
<path fill="none" stroke="#cccccc" d="M310.996,-347.988C335.399,-338.938 371.526,-325.54 398.499,-315.537"/>
<polygon fill="#cccccc" stroke="#cccccc" points="399.825,-318.778 407.984,-312.019 397.391,-312.215 399.825,-318.778"/>
</g>
<!-- Strideable -->
<g id="node12" class="node"><title>Strideable</title>
<g id="a_node12"><a xlink:href="/protocol/Strideable/" xlink:title="Strideable">
<path fill="#999999" stroke="#999999" d="M59.693,-312C59.693,-312 10.307,-312 10.307,-312 6.64029,-312 2.97363,-308.333 2.97363,-304.667 2.97363,-304.667 2.97363,-297.333 2.97363,-297.333 2.97363,-293.667 6.64029,-290 10.307,-290 10.307,-290 59.693,-290 59.693,-290 63.3597,-290 67.0264,-293.667 67.0264,-297.333 67.0264,-297.333 67.0264,-304.667 67.0264,-304.667 67.0264,-308.333 63.3597,-312 59.693,-312"/>
<text text-anchor="middle" x="35" y="-297.4" font-family="Helvetica,sans-Serif" font-size="12.00" fill="white">Strideable</text>
</a>
</g>
</g>
<!-- Comparable&#45;&gt;Strideable -->
<g id="edge26" class="edge"><title>Comparable&#45;&gt;Strideable</title>
<path fill="none" stroke="#cccccc" d="M246.369,-349.933C206.7,-341.373 142.132,-327.281 77.2109,-312.248"/>
<polygon fill="#cccccc" stroke="#cccccc" points="77.7459,-308.779 67.2133,-309.926 76.1623,-315.598 77.7459,-308.779"/>
</g>
<!-- CustomStringConvertible -->
<g id="node4" class="node"><title>CustomStringConvertible</title>
<g id="a_node4"><a xlink:href="/protocol/CustomStringConvertible/" xlink:title="CustomStringConvertible">
<path fill="#999999" stroke="#999999" d="M803.208,-312C803.208,-312 674.792,-312 674.792,-312 671.126,-312 667.459,-308.333 667.459,-304.667 667.459,-304.667 667.459,-297.333 667.459,-297.333 667.459,-293.667 671.126,-290 674.792,-290 674.792,-290 803.208,-290 803.208,-290 806.874,-290 810.541,-293.667 810.541,-297.333 810.541,-297.333 810.541,-304.667 810.541,-304.667 810.541,-308.333 806.874,-312 803.208,-312"/>
<text text-anchor="middle" x="739" y="-297.4" font-family="Helvetica,sans-Serif" font-size="12.00" fill="white">CustomStringConvertible</text>
</a>
</g>
</g>
<!-- CustomStringConvertible&#45;&gt;_IntegerType -->
<g id="edge10" class="edge"><title>CustomStringConvertible&#45;&gt;_IntegerType</title>
<path fill="none" stroke="#cccccc" d="M711.11,-289.988C685.788,-280.898 648.248,-267.422 620.343,-257.405"/>
<polygon fill="#cccccc" stroke="#cccccc" points="621.505,-254.104 610.911,-254.019 619.14,-260.692 621.505,-254.104"/>
</g>
<!-- Equatable -->
<g id="node5" class="node"><title>Equatable</title>
<g id="a_node5"><a xlink:href="/protocol/Equatable/" xlink:title="Equatable">
<path fill="#999999" stroke="#999999" d="M410.702,-428C410.702,-428 361.298,-428 361.298,-428 357.632,-428 353.965,-424.333 353.965,-420.667 353.965,-420.667 353.965,-413.333 353.965,-413.333 353.965,-409.667 357.632,-406 361.298,-406 361.298,-406 410.702,-406 410.702,-406 414.368,-406 418.035,-409.667 418.035,-413.333 418.035,-413.333 418.035,-420.667 418.035,-420.667 418.035,-424.333 414.368,-428 410.702,-428"/>
<text text-anchor="middle" x="386" y="-413.4" font-family="Helvetica,sans-Serif" font-size="12.00" fill="white">Equatable</text>
</a>
</g>
</g>
<!-- Equatable&#45;&gt;Comparable -->
<g id="edge18" class="edge"><title>Equatable&#45;&gt;Comparable</title>
<path fill="none" stroke="#cccccc" d="M367.764,-405.988C352.052,-397.362 329.144,-384.785 311.255,-374.963"/>
<polygon fill="#cccccc" stroke="#cccccc" points="312.872,-371.858 302.422,-370.114 309.503,-377.994 312.872,-371.858"/>
</g>
<!-- Hashable -->
<g id="node7" class="node"><title>Hashable</title>
<g id="a_node7"><a xlink:href="/protocol/Hashable/" xlink:title="Hashable">
<path fill="#999999" stroke="#999999" d="M817.694,-370C817.694,-370 772.306,-370 772.306,-370 768.639,-370 764.973,-366.333 764.973,-362.667 764.973,-362.667 764.973,-355.333 764.973,-355.333 764.973,-351.667 768.639,-348 772.306,-348 772.306,-348 817.694,-348 817.694,-348 821.361,-348 825.027,-351.667 825.027,-355.333 825.027,-355.333 825.027,-362.667 825.027,-362.667 825.027,-366.333 821.361,-370 817.694,-370"/>
<text text-anchor="middle" x="795" y="-355.4" font-family="Helvetica,sans-Serif" font-size="12.00" fill="white">Hashable</text>
</a>
</g>
</g>
<!-- Equatable&#45;&gt;Hashable -->
<g id="edge15" class="edge"><title>Equatable&#45;&gt;Hashable</title>
<path fill="none" stroke="#cccccc" d="M418.094,-411.606C491.805,-401.513 673.1,-376.69 754.401,-365.559"/>
<polygon fill="#cccccc" stroke="#cccccc" points="755.295,-368.969 764.728,-364.145 754.346,-362.034 755.295,-368.969"/>
</g>
<!-- _Incrementable -->
<g id="node19" class="node"><title>_Incrementable</title>
<g id="a_node19"><a xlink:href="/protocol/_Incrementable/" xlink:title="_Incrementable">
<path fill="#999999" stroke="#999999" d="M424.705,-370C424.705,-370 347.295,-370 347.295,-370 343.628,-370 339.961,-366.333 339.961,-362.667 339.961,-362.667 339.961,-355.333 339.961,-355.333 339.961,-351.667 343.628,-348 347.295,-348 347.295,-348 424.705,-348 424.705,-348 428.372,-348 432.039,-351.667 432.039,-355.333 432.039,-355.333 432.039,-362.667 432.039,-362.667 432.039,-366.333 428.372,-370 424.705,-370"/>
<text text-anchor="middle" x="386" y="-355.4" font-family="Helvetica,sans-Serif" font-size="12.00" fill="white">_Incrementable</text>
</a>
</g>
</g>
<!-- Equatable&#45;&gt;_Incrementable -->
<g id="edge19" class="edge"><title>Equatable&#45;&gt;_Incrementable</title>
<path fill="none" stroke="#cccccc" d="M386,-405.988C386,-398.91 386,-389.171 386,-380.478"/>
<polygon fill="#cccccc" stroke="#cccccc" points="389.5,-380.304 386,-370.304 382.5,-380.304 389.5,-380.304"/>
</g>
<!-- ForwardIndexType -->
<g id="node6" class="node"><title>ForwardIndexType</title>
<g id="a_node6"><a xlink:href="/protocol/ForwardIndexType/" xlink:title="ForwardIndexType">
<path fill="#999999" stroke="#999999" d="M187.206,-312C187.206,-312 92.7938,-312 92.7938,-312 89.1272,-312 85.4605,-308.333 85.4605,-304.667 85.4605,-304.667 85.4605,-297.333 85.4605,-297.333 85.4605,-293.667 89.1272,-290 92.7938,-290 92.7938,-290 187.206,-290 187.206,-290 190.873,-290 194.539,-293.667 194.539,-297.333 194.539,-297.333 194.539,-304.667 194.539,-304.667 194.539,-308.333 190.873,-312 187.206,-312"/>
<text text-anchor="middle" x="140" y="-297.4" font-family="Helvetica,sans-Serif" font-size="12.00" fill="white">ForwardIndexType</text>
</a>
</g>
</g>
<!-- ForwardIndexType&#45;&gt;BidirectionalIndexType -->
<g id="edge24" class="edge"><title>ForwardIndexType&#45;&gt;BidirectionalIndexType</title>
<path fill="none" stroke="#cccccc" d="M140,-289.988C140,-282.91 140,-273.171 140,-264.478"/>
<polygon fill="#cccccc" stroke="#cccccc" points="143.5,-264.304 140,-254.304 136.5,-264.304 143.5,-264.304"/>
</g>
<!-- Hashable&#45;&gt;_IntegerType -->
<g id="edge11" class="edge"><title>Hashable&#45;&gt;_IntegerType</title>
<path fill="none" stroke="#cccccc" d="M809.287,-347.989C827.229,-334.215 853.854,-308.97 838,-290 812.465,-259.447 700.305,-249.153 633.536,-245.709"/>
<polygon fill="#cccccc" stroke="#cccccc" points="633.387,-242.198 623.23,-245.213 633.051,-249.19 633.387,-242.198"/>
</g>
<!-- IntegerArithmeticType&#45;&gt;_IntegerType -->
<g id="edge12" class="edge"><title>IntegerArithmeticType&#45;&gt;_IntegerType</title>
<path fill="none" stroke="#cccccc" d="M461.459,-289.988C485.199,-281.006 520.259,-267.74 546.631,-257.761"/>
<polygon fill="#cccccc" stroke="#cccccc" points="548.156,-260.926 556.271,-254.114 545.679,-254.379 548.156,-260.926"/>
</g>
<!-- IntegerLiteralConvertible -->
<g id="node9" class="node"><title>IntegerLiteralConvertible</title>
<g id="a_node9"><a xlink:href="/protocol/IntegerLiteralConvertible/" xlink:title="IntegerLiteralConvertible">
<path fill="#999999" stroke="#999999" d="M345.722,-312C345.722,-312 220.278,-312 220.278,-312 216.611,-312 212.944,-308.333 212.944,-304.667 212.944,-304.667 212.944,-297.333 212.944,-297.333 212.944,-293.667 216.611,-290 220.278,-290 220.278,-290 345.722,-290 345.722,-290 349.389,-290 353.056,-293.667 353.056,-297.333 353.056,-297.333 353.056,-304.667 353.056,-304.667 353.056,-308.333 349.389,-312 345.722,-312"/>
<text text-anchor="middle" x="283" y="-297.4" font-family="Helvetica,sans-Serif" font-size="12.00" fill="white">IntegerLiteralConvertible</text>
</a>
</g>
</g>
<!-- IntegerLiteralConvertible&#45;&gt;_IntegerType -->
<g id="edge9" class="edge"><title>IntegerLiteralConvertible&#45;&gt;_IntegerType</title>
<path fill="none" stroke="#cccccc" d="M336.634,-289.988C392.209,-279.614 478.388,-263.528 532.699,-253.389"/>
<polygon fill="#cccccc" stroke="#cccccc" points="533.598,-256.782 542.786,-251.507 532.314,-249.901 533.598,-256.782"/>
</g>
<!-- IntegerType -->
<g id="node10" class="node"><title>IntegerType</title>
<g id="a_node10"><a xlink:href="/protocol/IntegerType/" xlink:title="IntegerType">
<path fill="#999999" stroke="#999999" d="M492.202,-138C492.202,-138 433.798,-138 433.798,-138 430.132,-138 426.465,-134.333 426.465,-130.667 426.465,-130.667 426.465,-123.333 426.465,-123.333 426.465,-119.667 430.132,-116 433.798,-116 433.798,-116 492.202,-116 492.202,-116 495.868,-116 499.535,-119.667 499.535,-123.333 499.535,-123.333 499.535,-130.667 499.535,-130.667 499.535,-134.333 495.868,-138 492.202,-138"/>
<text text-anchor="middle" x="463" y="-123.4" font-family="Helvetica,sans-Serif" font-size="12.00" fill="white">IntegerType</text>
</a>
</g>
</g>
<!-- UnsignedIntegerType -->
<g id="node18" class="node"><title>UnsignedIntegerType</title>
<g id="a_node18"><a xlink:href="/protocol/UnsignedIntegerType/" xlink:title="UnsignedIntegerType">
<path fill="#ee543d" stroke="#ee543d" d="M577.728,-80C577.728,-80 468.272,-80 468.272,-80 464.605,-80 460.938,-76.3333 460.938,-72.6667 460.938,-72.6667 460.938,-65.3333 460.938,-65.3333 460.938,-61.6667 464.605,-58 468.272,-58 468.272,-58 577.728,-58 577.728,-58 581.395,-58 585.062,-61.6667 585.062,-65.3333 585.062,-65.3333 585.062,-72.6667 585.062,-72.6667 585.062,-76.3333 581.395,-80 577.728,-80"/>
<text text-anchor="middle" x="523" y="-65.4" font-family="Helvetica,sans-Serif" font-size="12.00" fill="white">UnsignedIntegerType</text>
</a>
</g>
</g>
<!-- IntegerType&#45;&gt;UnsignedIntegerType -->
<g id="edge7" class="edge"><title>IntegerType&#45;&gt;UnsignedIntegerType</title>
<path fill="none" stroke="#cccccc" d="M473.727,-115.988C482.238,-108.045 494.338,-96.7512 504.417,-87.3439"/>
<polygon fill="#cccccc" stroke="#cccccc" points="507.038,-89.6858 511.96,-80.3039 502.261,-84.5684 507.038,-89.6858"/>
</g>
<!-- RandomAccessIndexType&#45;&gt;IntegerType -->
<g id="edge21" class="edge"><title>RandomAccessIndexType&#45;&gt;IntegerType</title>
<path fill="none" stroke="#cccccc" d="M197.746,-173.988C260.226,-163.156 358.636,-146.094 416.391,-136.081"/>
<polygon fill="#cccccc" stroke="#cccccc" points="417.083,-139.513 426.338,-134.356 415.887,-132.616 417.083,-139.513"/>
</g>
<!-- Strideable&#45;&gt;RandomAccessIndexType -->
<g id="edge23" class="edge"><title>Strideable&#45;&gt;RandomAccessIndexType</title>
<path fill="none" stroke="#cccccc" d="M37.6331,-289.739C41.7206,-275.445 50.7513,-249.345 66,-232 77.3887,-219.046 93.3127,-208.506 107.473,-200.799"/>
<polygon fill="#cccccc" stroke="#cccccc" points="109.187,-203.853 116.458,-196.147 105.968,-197.637 109.187,-203.853"/>
</g>
<!-- UInt -->
<g id="node13" class="node"><title>UInt</title>
<g id="a_node13"><a xlink:href="/type/UInt/" xlink:title="UInt">
<polygon fill="#999999" stroke="#999999" points="406,-22 352,-22 352,-0 406,-0 406,-22"/>
<text text-anchor="middle" x="379" y="-7.4" font-family="Helvetica,sans-Serif" font-size="12.00" fill="white">UInt</text>
</a>
</g>
</g>
<!-- UInt16 -->
<g id="node14" class="node"><title>UInt16</title>
<g id="a_node14"><a xlink:href="/type/UInt16/" xlink:title="UInt16">
<polygon fill="#999999" stroke="#999999" points="478,-22 424,-22 424,-0 478,-0 478,-22"/>
<text text-anchor="middle" x="451" y="-7.4" font-family="Helvetica,sans-Serif" font-size="12.00" fill="white">UInt16</text>
</a>
</g>
</g>
<!-- UInt32 -->
<g id="node15" class="node"><title>UInt32</title>
<g id="a_node15"><a xlink:href="/type/UInt32/" xlink:title="UInt32">
<polygon fill="#999999" stroke="#999999" points="550,-22 496,-22 496,-0 550,-0 550,-22"/>
<text text-anchor="middle" x="523" y="-7.4" font-family="Helvetica,sans-Serif" font-size="12.00" fill="white">UInt32</text>
</a>
</g>
</g>
<!-- UInt64 -->
<g id="node16" class="node"><title>UInt64</title>
<g id="a_node16"><a xlink:href="/type/UInt64/" xlink:title="UInt64">
<polygon fill="#999999" stroke="#999999" points="622,-22 568,-22 568,-0 622,-0 622,-22"/>
<text text-anchor="middle" x="595" y="-7.4" font-family="Helvetica,sans-Serif" font-size="12.00" fill="white">UInt64</text>
</a>
</g>
</g>
<!-- UInt8 -->
<g id="node17" class="node"><title>UInt8</title>
<g id="a_node17"><a xlink:href="/type/UInt8/" xlink:title="UInt8">
<polygon fill="#999999" stroke="#999999" points="694,-22 640,-22 640,-0 694,-0 694,-22"/>
<text text-anchor="middle" x="667" y="-7.4" font-family="Helvetica,sans-Serif" font-size="12.00" fill="white">UInt8</text>
</a>
</g>
</g>
<!-- UnsignedIntegerType&#45;&gt;UInt -->
<g id="edge1" class="edge"><title>UnsignedIntegerType&#45;&gt;UInt</title>
<path fill="none" stroke="#cccccc" d="M497.256,-57.9883C474.158,-49.0057 440.045,-35.7398 414.386,-25.7614"/>
<polygon fill="#cccccc" stroke="#cccccc" points="415.596,-22.4763 405.007,-22.1138 413.058,-29.0004 415.596,-22.4763"/>
</g>
<!-- UnsignedIntegerType&#45;&gt;UInt16 -->
<g id="edge2" class="edge"><title>UnsignedIntegerType&#45;&gt;UInt16</title>
<path fill="none" stroke="#cccccc" d="M510.128,-57.9883C499.611,-49.8087 484.528,-38.0773 472.228,-28.5108"/>
<polygon fill="#cccccc" stroke="#cccccc" points="474.29,-25.6806 464.248,-22.3039 469.993,-31.2061 474.29,-25.6806"/>
</g>
<!-- UnsignedIntegerType&#45;&gt;UInt32 -->
<g id="edge3" class="edge"><title>UnsignedIntegerType&#45;&gt;UInt32</title>
<path fill="none" stroke="#cccccc" d="M523,-57.9883C523,-50.9098 523,-41.1714 523,-32.4779"/>
<polygon fill="#cccccc" stroke="#cccccc" points="526.5,-32.3038 523,-22.3039 519.5,-32.3039 526.5,-32.3038"/>
</g>
<!-- UnsignedIntegerType&#45;&gt;UInt64 -->
<g id="edge4" class="edge"><title>UnsignedIntegerType&#45;&gt;UInt64</title>
<path fill="none" stroke="#cccccc" d="M535.872,-57.9883C546.389,-49.8087 561.472,-38.0773 573.772,-28.5108"/>
<polygon fill="#cccccc" stroke="#cccccc" points="576.007,-31.2061 581.752,-22.3039 571.71,-25.6806 576.007,-31.2061"/>
</g>
<!-- UnsignedIntegerType&#45;&gt;UInt8 -->
<g id="edge5" class="edge"><title>UnsignedIntegerType&#45;&gt;UInt8</title>
<path fill="none" stroke="#cccccc" d="M548.744,-57.9883C571.842,-49.0057 605.955,-35.7398 631.614,-25.7614"/>
<polygon fill="#cccccc" stroke="#cccccc" points="632.942,-29.0004 640.993,-22.1138 630.404,-22.4763 632.942,-29.0004"/>
</g>
<!-- _Incrementable&#45;&gt;ForwardIndexType -->
<g id="edge25" class="edge"><title>_Incrementable&#45;&gt;ForwardIndexType</title>
<path fill="none" stroke="#cccccc" d="M342.02,-347.988C300.52,-338.541 238.208,-324.356 193.772,-314.241"/>
<polygon fill="#cccccc" stroke="#cccccc" points="194.541,-310.826 184.013,-312.019 192.987,-317.652 194.541,-310.826"/>
</g>
<!-- _Incrementable&#45;&gt;_IntegerType -->
<g id="edge14" class="edge"><title>_Incrementable&#45;&gt;_IntegerType</title>
<path fill="none" stroke="#cccccc" d="M432.168,-349.312C435.152,-348.841 438.116,-348.399 441,-348 482.792,-342.221 790.617,-343.215 819,-312 873.386,-252.189 717.774,-243.673 633.382,-243.279"/>
<polygon fill="#cccccc" stroke="#cccccc" points="633.218,-239.779 623.214,-243.269 633.211,-246.779 633.218,-239.779"/>
</g>
<!-- _IntegerArithmeticType -->
<g id="node20" class="node"><title>_IntegerArithmeticType</title>
<g id="a_node20"><a xlink:href="/protocol/_IntegerArithmeticType/" xlink:title="_IntegerArithmeticType">
<path fill="#999999" stroke="#999999" d="M576.215,-370C576.215,-370 457.785,-370 457.785,-370 454.118,-370 450.452,-366.333 450.452,-362.667 450.452,-362.667 450.452,-355.333 450.452,-355.333 450.452,-351.667 454.118,-348 457.785,-348 457.785,-348 576.215,-348 576.215,-348 579.882,-348 583.548,-351.667 583.548,-355.333 583.548,-355.333 583.548,-362.667 583.548,-362.667 583.548,-366.333 579.882,-370 576.215,-370"/>
<text text-anchor="middle" x="517" y="-355.4" font-family="Helvetica,sans-Serif" font-size="12.00" fill="white">_IntegerArithmeticType</text>
</a>
</g>
</g>
<!-- _IntegerArithmeticType&#45;&gt;IntegerArithmeticType -->
<g id="edge16" class="edge"><title>_IntegerArithmeticType&#45;&gt;IntegerArithmeticType</title>
<path fill="none" stroke="#cccccc" d="M502.34,-347.988C490.056,-339.599 472.302,-327.474 458.107,-317.78"/>
<polygon fill="#cccccc" stroke="#cccccc" points="460.041,-314.863 449.81,-312.114 456.094,-320.644 460.041,-314.863"/>
</g>
<!-- _IntegerType&#45;&gt;IntegerType -->
<g id="edge20" class="edge"><title>_IntegerType&#45;&gt;IntegerType</title>
<path fill="none" stroke="#cccccc" d="M572.351,-231.883C551.854,-212.412 506.705,-169.52 481.297,-145.382"/>
<polygon fill="#cccccc" stroke="#cccccc" points="483.458,-142.608 473.798,-138.258 478.637,-147.683 483.458,-142.608"/>
</g>
<!-- _UnsignedIntegerType -->
<g id="node23" class="node"><title>_UnsignedIntegerType</title>
<g id="a_node23"><a xlink:href="/protocol/_UnsignedIntegerType/" xlink:title="_UnsignedIntegerType">
<path fill="#999999" stroke="#999999" d="M640.734,-138C640.734,-138 525.266,-138 525.266,-138 521.599,-138 517.933,-134.333 517.933,-130.667 517.933,-130.667 517.933,-123.333 517.933,-123.333 517.933,-119.667 521.599,-116 525.266,-116 525.266,-116 640.734,-116 640.734,-116 644.401,-116 648.067,-119.667 648.067,-123.333 648.067,-123.333 648.067,-130.667 648.067,-130.667 648.067,-134.333 644.401,-138 640.734,-138"/>
<text text-anchor="middle" x="583" y="-123.4" font-family="Helvetica,sans-Serif" font-size="12.00" fill="white">_UnsignedIntegerType</text>
</a>
</g>
</g>
<!-- _IntegerType&#45;&gt;_UnsignedIntegerType -->
<g id="edge8" class="edge"><title>_IntegerType&#45;&gt;_UnsignedIntegerType</title>
<path fill="none" stroke="#cccccc" d="M583,-231.883C583,-213.17 583,-172.827 583,-148.287"/>
<polygon fill="#cccccc" stroke="#cccccc" points="586.5,-148.258 583,-138.258 579.5,-148.258 586.5,-148.258"/>
</g>
<!-- _Strideable -->
<g id="node22" class="node"><title>_Strideable</title>
<g id="a_node22"><a xlink:href="/protocol/_Strideable/" xlink:title="_Strideable">
<path fill="#999999" stroke="#999999" d="M62.6997,-370C62.6997,-370 7.30027,-370 7.30027,-370 3.63361,-370 -0.0330612,-366.333 -0.0330612,-362.667 -0.0330612,-362.667 -0.0330612,-355.333 -0.0330612,-355.333 -0.0330612,-351.667 3.63361,-348 7.30027,-348 7.30027,-348 62.6997,-348 62.6997,-348 66.3664,-348 70.0331,-351.667 70.0331,-355.333 70.0331,-355.333 70.0331,-362.667 70.0331,-362.667 70.0331,-366.333 66.3664,-370 62.6997,-370"/>
<text text-anchor="middle" x="35" y="-355.4" font-family="Helvetica,sans-Serif" font-size="12.00" fill="white">_Strideable</text>
</a>
</g>
</g>
<!-- _Strideable&#45;&gt;Strideable -->
<g id="edge27" class="edge"><title>_Strideable&#45;&gt;Strideable</title>
<path fill="none" stroke="#cccccc" d="M35,-347.988C35,-340.91 35,-331.171 35,-322.478"/>
<polygon fill="#cccccc" stroke="#cccccc" points="38.5001,-322.304 35,-312.304 31.5001,-322.304 38.5001,-322.304"/>
</g>
<!-- _UnsignedIntegerType&#45;&gt;UnsignedIntegerType -->
<g id="edge6" class="edge"><title>_UnsignedIntegerType&#45;&gt;UnsignedIntegerType</title>
<path fill="none" stroke="#cccccc" d="M572.273,-115.988C563.762,-108.045 551.662,-96.7512 541.583,-87.3439"/>
<polygon fill="#cccccc" stroke="#cccccc" points="543.739,-84.5684 534.04,-80.3039 538.962,-89.6858 543.739,-84.5684"/>
</g>
</g>
</svg>
