<?xml version="1.0" encoding="UTF-8" standalone="no"?>
<!DOCTYPE svg PUBLIC "-//W3C//DTD SVG 1.1//EN"
 "http://www.w3.org/Graphics/SVG/1.1/DTD/svg11.dtd">
<!-- Generated by graphviz version 2.36.0 (20140111.2315)
 -->
<!-- Title: Float80 &#45; Type Hierarchy &#45; SwiftDoc.org Pages: 1 -->
<svg width="561pt" height="427pt"
 viewBox="0.00 0.00 561.40 427.20" xmlns="http://www.w3.org/2000/svg" xmlns:xlink="http://www.w3.org/1999/xlink">
<g id="graph0" class="graph" transform="scale(1 1) rotate(0) translate(7.2 369.6)">
<title>Float80 &#45; Type Hierarchy &#45; SwiftDoc.org</title>
<polygon fill="white" stroke="none" points="-7.2,57.6 -7.2,-369.6 554.2,-369.6 554.2,57.6 -7.2,57.6"/>
<!-- AbsoluteValuable -->
<g id="node1" class="node"><title>AbsoluteValuable</title>
<g id="a_node1"><a xlink:href="/protocol/AbsoluteValuable/" xlink:title="AbsoluteValuable">
<path fill="#999999" stroke="#999999" d="M197.558,-80C197.558,-80 110.442,-80 110.442,-80 106.775,-80 103.109,-76.3333 103.109,-72.6667 103.109,-72.6667 103.109,-65.3333 103.109,-65.3333 103.109,-61.6667 106.775,-58 110.442,-58 110.442,-58 197.558,-58 197.558,-58 201.225,-58 204.891,-61.6667 204.891,-65.3333 204.891,-65.3333 204.891,-72.6667 204.891,-72.6667 204.891,-76.3333 201.225,-80 197.558,-80"/>
<text text-anchor="middle" x="154" y="-65.4" font-family="Helvetica,sans-Serif" font-size="12.00" fill="white">AbsoluteValuable</text>
</a>
</g>
</g>
<!-- Float80 -->
<g id="node4" class="node"><title>Float80</title>
<g id="a_node4"><a xlink:href="/type/Float80/" xlink:title="Float80">
<polygon fill="#ee543d" stroke="#ee543d" points="302,-22 248,-22 248,-0 302,-0 302,-22"/>
<text text-anchor="middle" x="275" y="-7.4" font-family="Helvetica,sans-Serif" font-size="12.00" fill="white">Float80</text>
</a>
</g>
</g>
<!-- AbsoluteValuable&#45;&gt;Float80 -->
<g id="edge6" class="edge"><title>AbsoluteValuable&#45;&gt;Float80</title>
<path fill="none" stroke="#cccccc" d="M175.632,-57.9883C194.614,-49.2036 222.447,-36.3222 243.831,-26.4255"/>
<polygon fill="#cccccc" stroke="#cccccc" points="245.542,-29.4903 253.147,-22.1138 242.602,-23.1376 245.542,-29.4903"/>
</g>
<!-- Comparable -->
<g id="node2" class="node"><title>Comparable</title>
<g id="a_node2"><a xlink:href="/protocol/Comparable/" xlink:title="Comparable">
<path fill="#999999" stroke="#999999" d="M236.191,-254C236.191,-254 175.809,-254 175.809,-254 172.142,-254 168.475,-250.333 168.475,-246.667 168.475,-246.667 168.475,-239.333 168.475,-239.333 168.475,-235.667 172.142,-232 175.809,-232 175.809,-232 236.191,-232 236.191,-232 239.858,-232 243.525,-235.667 243.525,-239.333 243.525,-239.333 243.525,-246.667 243.525,-246.667 243.525,-250.333 239.858,-254 236.191,-254"/>
<text text-anchor="middle" x="206" y="-239.4" font-family="Helvetica,sans-Serif" font-size="12.00" fill="white">Comparable</text>
</a>
</g>
</g>
<!-- Comparable&#45;&gt;Float80 -->
<g id="edge4" class="edge"><title>Comparable&#45;&gt;Float80</title>
<path fill="none" stroke="#cccccc" d="M209.054,-231.82C219.652,-196.494 254.966,-78.7811 269.089,-31.7049"/>
<polygon fill="#cccccc" stroke="#cccccc" points="272.46,-32.646 271.981,-22.062 265.755,-30.6346 272.46,-32.646"/>
</g>
<!-- Strideable -->
<g id="node10" class="node"><title>Strideable</title>
<g id="a_node10"><a xlink:href="/protocol/Strideable/" xlink:title="Strideable">
<path fill="#999999" stroke="#999999" d="M321.693,-196C321.693,-196 272.307,-196 272.307,-196 268.64,-196 264.974,-192.333 264.974,-188.667 264.974,-188.667 264.974,-181.333 264.974,-181.333 264.974,-177.667 268.64,-174 272.307,-174 272.307,-174 321.693,-174 321.693,-174 325.36,-174 329.026,-177.667 329.026,-181.333 329.026,-181.333 329.026,-188.667 329.026,-188.667 329.026,-192.333 325.36,-196 321.693,-196"/>
<text text-anchor="middle" x="297" y="-181.4" font-family="Helvetica,sans-Serif" font-size="12.00" fill="white">Strideable</text>
</a>
</g>
</g>
<!-- Comparable&#45;&gt;Strideable -->
<g id="edge15" class="edge"><title>Comparable&#45;&gt;Strideable</title>
<path fill="none" stroke="#cccccc" d="M222.269,-231.988C236.03,-223.52 255.977,-211.245 271.802,-201.507"/>
<polygon fill="#cccccc" stroke="#cccccc" points="273.883,-204.336 280.565,-196.114 270.214,-198.374 273.883,-204.336"/>
</g>
<!-- _SignedNumberType -->
<g id="node12" class="node"><title>_SignedNumberType</title>
<g id="a_node12"><a xlink:href="/protocol/_SignedNumberType/" xlink:title="_SignedNumberType">
<path fill="#999999" stroke="#999999" d="M201.723,-196C201.723,-196 94.2775,-196 94.2775,-196 90.6108,-196 86.9442,-192.333 86.9442,-188.667 86.9442,-188.667 86.9442,-181.333 86.9442,-181.333 86.9442,-177.667 90.6108,-174 94.2775,-174 94.2775,-174 201.723,-174 201.723,-174 205.389,-174 209.056,-177.667 209.056,-181.333 209.056,-181.333 209.056,-188.667 209.056,-188.667 209.056,-192.333 205.389,-196 201.723,-196"/>
<text text-anchor="middle" x="148" y="-181.4" font-family="Helvetica,sans-Serif" font-size="12.00" fill="white">_SignedNumberType</text>
</a>
</g>
</g>
<!-- Comparable&#45;&gt;_SignedNumberType -->
<g id="edge13" class="edge"><title>Comparable&#45;&gt;_SignedNumberType</title>
<path fill="none" stroke="#cccccc" d="M195.631,-231.988C187.403,-224.045 175.707,-212.751 165.963,-203.344"/>
<polygon fill="#cccccc" stroke="#cccccc" points="168.297,-200.732 158.672,-196.304 163.435,-205.768 168.297,-200.732"/>
</g>
<!-- Equatable -->
<g id="node3" class="node"><title>Equatable</title>
<g id="a_node3"><a xlink:href="/protocol/Equatable/" xlink:title="Equatable">
<path fill="#999999" stroke="#999999" d="M352.702,-312C352.702,-312 303.298,-312 303.298,-312 299.632,-312 295.965,-308.333 295.965,-304.667 295.965,-304.667 295.965,-297.333 295.965,-297.333 295.965,-293.667 299.632,-290 303.298,-290 303.298,-290 352.702,-290 352.702,-290 356.368,-290 360.035,-293.667 360.035,-297.333 360.035,-297.333 360.035,-304.667 360.035,-304.667 360.035,-308.333 356.368,-312 352.702,-312"/>
<text text-anchor="middle" x="328" y="-297.4" font-family="Helvetica,sans-Serif" font-size="12.00" fill="white">Equatable</text>
</a>
</g>
</g>
<!-- Equatable&#45;&gt;Comparable -->
<g id="edge9" class="edge"><title>Equatable&#45;&gt;Comparable</title>
<path fill="none" stroke="#cccccc" d="M306.189,-289.988C286.964,-281.164 258.735,-268.206 237.136,-258.292"/>
<polygon fill="#cccccc" stroke="#cccccc" points="238.582,-255.105 228.034,-254.114 235.662,-261.466 238.582,-255.105"/>
</g>
<!-- Hashable -->
<g id="node6" class="node"><title>Hashable</title>
<g id="a_node6"><a xlink:href="/protocol/Hashable/" xlink:title="Hashable">
<path fill="#999999" stroke="#999999" d="M368.694,-138C368.694,-138 323.306,-138 323.306,-138 319.639,-138 315.973,-134.333 315.973,-130.667 315.973,-130.667 315.973,-123.333 315.973,-123.333 315.973,-119.667 319.639,-116 323.306,-116 323.306,-116 368.694,-116 368.694,-116 372.361,-116 376.027,-119.667 376.027,-123.333 376.027,-123.333 376.027,-130.667 376.027,-130.667 376.027,-134.333 372.361,-138 368.694,-138"/>
<text text-anchor="middle" x="346" y="-123.4" font-family="Helvetica,sans-Serif" font-size="12.00" fill="white">Hashable</text>
</a>
</g>
</g>
<!-- Equatable&#45;&gt;Hashable -->
<g id="edge10" class="edge"><title>Equatable&#45;&gt;Hashable</title>
<path fill="none" stroke="#cccccc" d="M331.592,-289.923C334.698,-280.705 338.995,-266.622 341,-254 346.868,-217.063 347.131,-173.313 346.656,-148.292"/>
<polygon fill="#cccccc" stroke="#cccccc" points="350.153,-148.115 346.404,-138.206 343.155,-148.29 350.153,-148.115"/>
</g>
<!-- FloatLiteralConvertible -->
<g id="node5" class="node"><title>FloatLiteralConvertible</title>
<g id="a_node5"><a xlink:href="/protocol/FloatLiteralConvertible/" xlink:title="FloatLiteralConvertible">
<path fill="#999999" stroke="#999999" d="M463.711,-80C463.711,-80 348.289,-80 348.289,-80 344.623,-80 340.956,-76.3333 340.956,-72.6667 340.956,-72.6667 340.956,-65.3333 340.956,-65.3333 340.956,-61.6667 344.623,-58 348.289,-58 348.289,-58 463.711,-58 463.711,-58 467.377,-58 471.044,-61.6667 471.044,-65.3333 471.044,-65.3333 471.044,-72.6667 471.044,-72.6667 471.044,-76.3333 467.377,-80 463.711,-80"/>
<text text-anchor="middle" x="406" y="-65.4" font-family="Helvetica,sans-Serif" font-size="12.00" fill="white">FloatLiteralConvertible</text>
</a>
</g>
</g>
<!-- FloatLiteralConvertible&#45;&gt;Float80 -->
<g id="edge3" class="edge"><title>FloatLiteralConvertible&#45;&gt;Float80</title>
<path fill="none" stroke="#cccccc" d="M382.58,-57.9883C361.845,-49.1244 331.353,-36.0897 308.121,-26.1587"/>
<polygon fill="#cccccc" stroke="#cccccc" points="309.23,-22.8263 298.659,-22.1138 306.478,-29.2629 309.23,-22.8263"/>
</g>
<!-- Hashable&#45;&gt;Float80 -->
<g id="edge5" class="edge"><title>Hashable&#45;&gt;Float80</title>
<path fill="none" stroke="#cccccc" d="M339.699,-115.883C327.835,-96.8331 302.009,-55.3658 286.818,-30.9757"/>
<polygon fill="#cccccc" stroke="#cccccc" points="289.646,-28.896 281.389,-22.2579 283.704,-32.5966 289.646,-28.896"/>
</g>
<!-- IntegerLiteralConvertible -->
<g id="node7" class="node"><title>IntegerLiteralConvertible</title>
<g id="a_node7"><a xlink:href="/protocol/IntegerLiteralConvertible/" xlink:title="IntegerLiteralConvertible">
<path fill="#999999" stroke="#999999" d="M132.722,-254C132.722,-254 7.27758,-254 7.27758,-254 3.61091,-254 -0.055756,-250.333 -0.055756,-246.667 -0.055756,-246.667 -0.055756,-239.333 -0.055756,-239.333 -0.055756,-235.667 3.61091,-232 7.27758,-232 7.27758,-232 132.722,-232 132.722,-232 136.389,-232 140.056,-235.667 140.056,-239.333 140.056,-239.333 140.056,-246.667 140.056,-246.667 140.056,-250.333 136.389,-254 132.722,-254"/>
<text text-anchor="middle" x="70" y="-239.4" font-family="Helvetica,sans-Serif" font-size="12.00" fill="white">IntegerLiteralConvertible</text>
</a>
</g>
</g>
<!-- IntegerLiteralConvertible&#45;&gt;Float80 -->
<g id="edge2" class="edge"><title>IntegerLiteralConvertible&#45;&gt;Float80</title>
<path fill="none" stroke="#cccccc" d="M67.7005,-231.937C61.3169,-201.154 46.8027,-107.363 94,-58 113.581,-37.5204 190.795,-23.5631 237.817,-16.7683"/>
<polygon fill="#cccccc" stroke="#cccccc" points="238.514,-20.205 247.93,-15.3498 237.541,-13.2729 238.514,-20.205"/>
</g>
<!-- IntegerLiteralConvertible&#45;&gt;_SignedNumberType -->
<g id="edge14" class="edge"><title>IntegerLiteralConvertible&#45;&gt;_SignedNumberType</title>
<path fill="none" stroke="#cccccc" d="M83.9448,-231.988C95.5193,-223.678 112.2,-211.703 125.637,-202.055"/>
<polygon fill="#cccccc" stroke="#cccccc" points="127.831,-204.789 133.913,-196.114 123.748,-199.103 127.831,-204.789"/>
</g>
<!-- Printable -->
<g id="node8" class="node"><title>Printable</title>
<g id="a_node8"><a xlink:href="/protocol/Printable/" xlink:title="Printable">
<path fill="#999999" stroke="#999999" d="M539.187,-80C539.187,-80 496.813,-80 496.813,-80 493.147,-80 489.48,-76.3333 489.48,-72.6667 489.48,-72.6667 489.48,-65.3333 489.48,-65.3333 489.48,-61.6667 493.147,-58 496.813,-58 496.813,-58 539.187,-58 539.187,-58 542.853,-58 546.52,-61.6667 546.52,-65.3333 546.52,-65.3333 546.52,-72.6667 546.52,-72.6667 546.52,-76.3333 542.853,-80 539.187,-80"/>
<text text-anchor="middle" x="518" y="-65.4" font-family="Helvetica,sans-Serif" font-size="12.00" fill="white">Printable</text>
</a>
</g>
</g>
<!-- Printable&#45;&gt;Float80 -->
<g id="edge1" class="edge"><title>Printable&#45;&gt;Float80</title>
<path fill="none" stroke="#cccccc" d="M489.395,-60.3524C486.229,-59.5418 483.049,-58.743 480,-58 421.521,-43.7495 353.255,-28.7576 312.117,-19.9011"/>
<polygon fill="#cccccc" stroke="#cccccc" points="312.777,-16.4631 302.265,-17.7858 311.308,-23.3072 312.777,-16.4631"/>
</g>
<!-- SignedNumberType -->
<g id="node9" class="node"><title>SignedNumberType</title>
<g id="a_node9"><a xlink:href="/protocol/SignedNumberType/" xlink:title="SignedNumberType">
<path fill="#999999" stroke="#999999" d="M199.716,-138C199.716,-138 98.2835,-138 98.2835,-138 94.6169,-138 90.9502,-134.333 90.9502,-130.667 90.9502,-130.667 90.9502,-123.333 90.9502,-123.333 90.9502,-119.667 94.6169,-116 98.2835,-116 98.2835,-116 199.716,-116 199.716,-116 203.383,-116 207.05,-119.667 207.05,-123.333 207.05,-123.333 207.05,-130.667 207.05,-130.667 207.05,-134.333 203.383,-138 199.716,-138"/>
<text text-anchor="middle" x="149" y="-123.4" font-family="Helvetica,sans-Serif" font-size="12.00" fill="white">SignedNumberType</text>
</a>
</g>
</g>
<!-- SignedNumberType&#45;&gt;AbsoluteValuable -->
<g id="edge11" class="edge"><title>SignedNumberType&#45;&gt;AbsoluteValuable</title>
<path fill="none" stroke="#cccccc" d="M149.894,-115.988C150.526,-108.91 151.395,-99.1714 152.172,-90.4779"/>
<polygon fill="#cccccc" stroke="#cccccc" points="155.677,-90.5755 153.08,-80.3039 148.704,-89.953 155.677,-90.5755"/>
</g>
<!-- Strideable&#45;&gt;Float80 -->
<g id="edge7" class="edge"><title>Strideable&#45;&gt;Float80</title>
<path fill="none" stroke="#cccccc" d="M295.69,-173.756C292.152,-146.097 282.356,-69.5091 277.624,-32.5186"/>
<polygon fill="#cccccc" stroke="#cccccc" points="281.072,-31.8832 276.331,-22.4081 274.128,-32.7714 281.072,-31.8832"/>
</g>
<!-- _Comparable -->
<g id="node11" class="node"><title>_Comparable</title>
<g id="a_node11"><a xlink:href="/protocol/_Comparable/" xlink:title="_Comparable">
<path fill="#999999" stroke="#999999" d="M239.697,-312C239.697,-312 172.303,-312 172.303,-312 168.636,-312 164.969,-308.333 164.969,-304.667 164.969,-304.667 164.969,-297.333 164.969,-297.333 164.969,-293.667 168.636,-290 172.303,-290 172.303,-290 239.697,-290 239.697,-290 243.364,-290 247.031,-293.667 247.031,-297.333 247.031,-297.333 247.031,-304.667 247.031,-304.667 247.031,-308.333 243.364,-312 239.697,-312"/>
<text text-anchor="middle" x="206" y="-297.4" font-family="Helvetica,sans-Serif" font-size="12.00" fill="white">_Comparable</text>
</a>
</g>
</g>
<!-- _Comparable&#45;&gt;Comparable -->
<g id="edge8" class="edge"><title>_Comparable&#45;&gt;Comparable</title>
<path fill="none" stroke="#cccccc" d="M206,-289.988C206,-282.91 206,-273.171 206,-264.478"/>
<polygon fill="#cccccc" stroke="#cccccc" points="209.5,-264.304 206,-254.304 202.5,-264.304 209.5,-264.304"/>
</g>
<!-- _SignedNumberType&#45;&gt;SignedNumberType -->
<g id="edge12" class="edge"><title>_SignedNumberType&#45;&gt;SignedNumberType</title>
<path fill="none" stroke="#cccccc" d="M148.179,-173.988C148.305,-166.91 148.479,-157.171 148.634,-148.478"/>
<polygon fill="#cccccc" stroke="#cccccc" points="152.137,-148.365 148.816,-138.304 145.138,-148.24 152.137,-148.365"/>
</g>
<!-- _Strideable -->
<g id="node13" class="node"><title>_Strideable</title>
<g id="a_node13"><a xlink:href="/protocol/_Strideable/" xlink:title="_Strideable">
<path fill="#999999" stroke="#999999" d="M324.7,-254C324.7,-254 269.3,-254 269.3,-254 265.634,-254 261.967,-250.333 261.967,-246.667 261.967,-246.667 261.967,-239.333 261.967,-239.333 261.967,-235.667 265.634,-232 269.3,-232 269.3,-232 324.7,-232 324.7,-232 328.366,-232 332.033,-235.667 332.033,-239.333 332.033,-239.333 332.033,-246.667 332.033,-246.667 332.033,-250.333 328.366,-254 324.7,-254"/>
<text text-anchor="middle" x="297" y="-239.4" font-family="Helvetica,sans-Serif" font-size="12.00" fill="white">_Strideable</text>
</a>
</g>
</g>
<!-- _Strideable&#45;&gt;Strideable -->
<g id="edge16" class="edge"><title>_Strideable&#45;&gt;Strideable</title>
<path fill="none" stroke="#cccccc" d="M297,-231.988C297,-224.91 297,-215.171 297,-206.478"/>
<polygon fill="#cccccc" stroke="#cccccc" points="300.5,-206.304 297,-196.304 293.5,-206.304 300.5,-206.304"/>
</g>
</g>
</svg>
