<?xml version="1.0" encoding="UTF-8" standalone="no"?>
<!DOCTYPE svg PUBLIC "-//W3C//DTD SVG 1.1//EN"
 "http://www.w3.org/Graphics/SVG/1.1/DTD/svg11.dtd">
<!-- Generated by graphviz version 2.36.0 (20140111.2315)
 -->
<!-- Title: UInt16 &#45; Type Hierarchy &#45; SwiftDoc.org Pages: 1 -->
<svg width="1053pt" height="601pt"
 viewBox="0.00 0.00 1053.40 601.20" xmlns="http://www.w3.org/2000/svg" xmlns:xlink="http://www.w3.org/1999/xlink">
<g id="graph0" class="graph" transform="scale(1 1) rotate(0) translate(7.2 543.6)">
<g transform="translate(0 -543.6)">
<g>
    <path fill="#666666" d="M13.846,10.832c-0.336-0.464-0.792-0.844-1.368-1.14s-1.224-0.444-1.944-0.444
        c-0.384,0-0.772,0.052-1.164,0.156C8.977,9.509,8.622,9.677,8.301,9.908c-0.32,0.232-0.58,0.52-0.78,0.864
        c-0.2,0.344-0.3,0.756-0.3,1.236c0,0.464,0.092,0.852,0.276,1.164c0.184,0.312,0.432,0.576,0.744,0.792s0.68,0.4,1.104,0.552
        c0.423,0.152,0.876,0.309,1.356,0.468c0.576,0.177,1.16,0.376,1.752,0.601c0.592,0.224,1.128,0.52,1.608,0.888
        s0.872,0.828,1.176,1.38s0.456,1.252,0.456,2.101c0,0.88-0.164,1.644-0.492,2.292c-0.328,0.647-0.765,1.184-1.308,1.607
        c-0.544,0.424-1.172,0.74-1.884,0.948s-1.444,0.312-2.196,0.312c-1.072,0-2.108-0.208-3.108-0.624
        c-1-0.415-1.828-1.031-2.484-1.848l1.848-1.56c0.4,0.592,0.936,1.071,1.608,1.439c0.672,0.368,1.399,0.552,2.184,0.552
        c0.4,0,0.8-0.056,1.2-0.168c0.4-0.111,0.764-0.288,1.092-0.527c0.328-0.24,0.596-0.54,0.804-0.9
        c0.208-0.36,0.312-0.796,0.312-1.308s-0.108-0.94-0.324-1.284c-0.216-0.344-0.508-0.636-0.876-0.876s-0.796-0.444-1.284-0.612
        c-0.488-0.168-1.004-0.34-1.548-0.516c-0.544-0.16-1.08-0.356-1.608-0.588c-0.528-0.232-1-0.528-1.416-0.889
        c-0.416-0.359-0.752-0.804-1.008-1.332c-0.256-0.527-0.384-1.184-0.384-1.968c0-0.848,0.172-1.576,0.516-2.184
        c0.344-0.608,0.792-1.112,1.344-1.512c0.552-0.4,1.176-0.692,1.872-0.876c0.696-0.184,1.396-0.276,2.1-0.276
        c0.992,0,1.92,0.176,2.784,0.528c0.864,0.352,1.56,0.824,2.088,1.416L13.846,10.832z"/>
    <path fill="#666666" d="M18.813,13.304l2.568,8.688h0.048l2.712-8.688h2.376l2.76,8.688h0.048l2.568-8.688h2.376L30.501,24.68
        h-2.352l-2.808-8.544h-0.048l-2.784,8.544h-2.352l-3.792-11.376H18.813z"/>
    <path fill="#666666" d="M38.685,9.2c0,0.416-0.147,0.76-0.44,1.032c-0.294,0.272-0.647,0.408-1.06,0.408s-0.762-0.14-1.047-0.42
        c-0.286-0.28-0.429-0.62-0.429-1.02c0-0.416,0.143-0.764,0.429-1.044c0.286-0.28,0.635-0.42,1.047-0.42s0.766,0.14,1.06,0.42
        C38.538,8.437,38.685,8.784,38.685,9.2z M38.325,24.68h-2.256V13.304h2.256V24.68z"/>
    <path fill="#666666" d="M47.613,15.152h-2.64v9.528h-2.256v-9.528h-2.256v-1.848h2.256v-2.376c0-0.672,0.076-1.292,0.228-1.86
        c0.152-0.568,0.4-1.06,0.744-1.476c0.344-0.416,0.784-0.744,1.32-0.984c0.536-0.24,1.188-0.36,1.956-0.36
        c0.544,0,1.016,0.056,1.416,0.168l-0.264,1.944c-0.176-0.048-0.352-0.088-0.528-0.12c-0.176-0.032-0.376-0.048-0.6-0.048
        c-0.432,0-0.78,0.076-1.044,0.228c-0.264,0.152-0.468,0.356-0.612,0.612s-0.24,0.548-0.288,0.876
        c-0.048,0.328-0.072,0.668-0.072,1.02v2.376h2.64V15.152z"/>
    <path fill="#666666" d="M54.909,15.152h-3.024v5.91c0,0.687,0.128,1.177,0.384,1.472c0.256,0.295,0.664,0.442,1.224,0.442
        c0.208,0,0.432-0.021,0.672-0.065c0.24-0.044,0.456-0.11,0.648-0.198l0.072,1.848c-0.272,0.096-0.572,0.172-0.9,0.229
        c-0.328,0.056-0.668,0.084-1.02,0.084c-1.072,0-1.892-0.296-2.46-0.889c-0.568-0.592-0.852-1.479-0.852-2.664v-6.168h-2.184
        v-1.848h2.184V10.04h2.232v3.264h3.024V15.152z"/>
    <path fill="#666666" d="M57.356,7.688h5.832c1.088,0,2.176,0.16,3.264,0.48c1.088,0.32,2.072,0.824,2.952,1.512
        s1.592,1.568,2.136,2.64c0.544,1.072,0.816,2.36,0.816,3.864c0,1.456-0.272,2.716-0.816,3.78s-1.256,1.943-2.136,2.64
        s-1.864,1.216-2.952,1.561c-1.088,0.344-2.176,0.516-3.264,0.516h-5.832V7.688z M59.732,22.593h2.976
        c1.024,0,1.972-0.145,2.844-0.432c0.872-0.288,1.624-0.704,2.256-1.248c0.632-0.544,1.124-1.216,1.476-2.017
        c0.352-0.8,0.528-1.704,0.528-2.712c0-1.056-0.176-1.983-0.528-2.784c-0.353-0.8-0.844-1.468-1.476-2.004
        c-0.632-0.536-1.384-0.944-2.256-1.224s-1.82-0.42-2.844-0.42h-2.976V22.593z"/>
    <path fill="#666666" d="M86.06,18.969c0,0.88-0.156,1.688-0.468,2.424c-0.312,0.736-0.744,1.372-1.296,1.908
        c-0.552,0.536-1.204,0.952-1.956,1.248c-0.752,0.296-1.56,0.443-2.424,0.443c-0.864,0-1.672-0.147-2.424-0.443
        c-0.752-0.296-1.4-0.712-1.944-1.248c-0.544-0.536-0.972-1.172-1.284-1.908c-0.312-0.735-0.468-1.544-0.468-2.424
        s0.156-1.684,0.468-2.412c0.312-0.728,0.74-1.356,1.284-1.884c0.543-0.528,1.191-0.939,1.944-1.236
        c0.752-0.296,1.56-0.444,2.424-0.444c0.864,0,1.672,0.148,2.424,0.444c0.752,0.297,1.404,0.708,1.956,1.236
        c0.552,0.527,0.984,1.156,1.296,1.884C85.904,17.285,86.06,18.089,86.06,18.969z M83.708,18.98c0-0.542-0.084-1.061-0.252-1.556
        c-0.169-0.494-0.414-0.929-0.734-1.304s-0.718-0.674-1.192-0.897s-1.015-0.335-1.625-0.335c-0.61,0-1.152,0.111-1.625,0.335
        c-0.474,0.224-0.871,0.522-1.191,0.897c-0.321,0.375-0.566,0.81-0.734,1.304C76.184,17.92,76.1,18.438,76.1,18.98
        c0,0.543,0.084,1.062,0.253,1.556c0.168,0.495,0.413,0.934,0.734,1.316c0.321,0.383,0.718,0.686,1.191,0.909
        c0.473,0.224,1.015,0.335,1.625,0.335c0.61,0,1.151-0.111,1.625-0.335s0.871-0.526,1.192-0.909s0.565-0.821,0.734-1.316
        C83.624,20.042,83.708,19.523,83.708,18.98z"/>
    <path fill="#666666" d="M96.428,16.184c-0.24-0.368-0.6-0.676-1.08-0.924s-0.992-0.372-1.536-0.372
        c-0.592,0-1.116,0.112-1.572,0.336c-0.456,0.225-0.844,0.524-1.164,0.9c-0.32,0.376-0.564,0.812-0.732,1.308
        s-0.252,1.017-0.252,1.56c0,0.545,0.084,1.064,0.252,1.561s0.412,0.933,0.732,1.308c0.32,0.376,0.712,0.677,1.176,0.9
        c0.464,0.225,0.992,0.336,1.584,0.336c0.576,0,1.1-0.111,1.572-0.336c0.472-0.224,0.86-0.528,1.164-0.912l1.512,1.368
        c-0.48,0.561-1.08,0.996-1.8,1.308c-0.72,0.312-1.536,0.468-2.448,0.468c-0.88,0-1.692-0.144-2.436-0.432
        c-0.744-0.288-1.388-0.691-1.932-1.212c-0.544-0.52-0.972-1.147-1.284-1.884s-0.468-1.561-0.468-2.473
        c0-0.896,0.152-1.711,0.456-2.447c0.304-0.736,0.728-1.368,1.272-1.896c0.543-0.527,1.188-0.936,1.932-1.224
        c0.744-0.288,1.548-0.433,2.412-0.433c0.8,0,1.596,0.16,2.388,0.48s1.419,0.784,1.884,1.392L96.428,16.184z"/>
    <path fill="#666666" d="M103.1,23.24c0,0.417-0.152,0.784-0.456,1.104c-0.304,0.32-0.688,0.479-1.152,0.479
        c-0.448,0-0.828-0.155-1.14-0.468c-0.312-0.312-0.468-0.676-0.468-1.092c0-0.432,0.152-0.804,0.456-1.116
        c0.304-0.312,0.688-0.468,1.152-0.468c0.464,0,0.848,0.152,1.152,0.456C102.947,22.44,103.1,22.808,103.1,23.24z"/>
    <path fill="#666666" d="M116.635,18.969c0,0.88-0.156,1.688-0.468,2.424c-0.312,0.736-0.744,1.372-1.296,1.908
        c-0.552,0.536-1.204,0.952-1.956,1.248c-0.752,0.296-1.56,0.443-2.424,0.443c-0.864,0-1.672-0.147-2.424-0.443
        c-0.752-0.296-1.4-0.712-1.944-1.248c-0.544-0.536-0.972-1.172-1.284-1.908c-0.312-0.735-0.468-1.544-0.468-2.424
        s0.156-1.684,0.468-2.412c0.312-0.728,0.74-1.356,1.284-1.884c0.543-0.528,1.191-0.939,1.944-1.236
        c0.752-0.296,1.56-0.444,2.424-0.444c0.864,0,1.672,0.148,2.424,0.444c0.752,0.297,1.404,0.708,1.956,1.236
        c0.552,0.527,0.984,1.156,1.296,1.884C116.479,17.285,116.635,18.089,116.635,18.969z M114.283,18.98
        c0-0.542-0.084-1.061-0.252-1.556c-0.169-0.494-0.414-0.929-0.734-1.304s-0.718-0.674-1.192-0.897s-1.015-0.335-1.625-0.335
        c-0.61,0-1.152,0.111-1.625,0.335c-0.474,0.224-0.871,0.522-1.191,0.897c-0.321,0.375-0.566,0.81-0.734,1.304
        c-0.169,0.495-0.253,1.014-0.253,1.556c0,0.543,0.084,1.062,0.253,1.556c0.168,0.495,0.413,0.934,0.734,1.316
        c0.321,0.383,0.718,0.686,1.191,0.909c0.473,0.224,1.015,0.335,1.625,0.335c0.61,0,1.151-0.111,1.625-0.335
        s0.871-0.526,1.192-0.909s0.565-0.821,0.734-1.316C114.199,20.042,114.283,19.523,114.283,18.98z"/>
    <path fill="#666666" d="M119.251,14.577c-0.016-0.48-0.04-0.904-0.072-1.272h2.136c0.032,0.288,0.056,0.62,0.072,0.996
        c0.016,0.376,0.024,0.684,0.024,0.924h0.072c0.32-0.672,0.788-1.212,1.404-1.62c0.616-0.408,1.308-0.612,2.076-0.612
        c0.352,0,0.648,0.033,0.888,0.097l-0.096,2.088c-0.32-0.08-0.664-0.12-1.032-0.12c-0.544,0-1.016,0.101-1.416,0.3
        c-0.4,0.2-0.732,0.468-0.996,0.805c-0.264,0.336-0.46,0.724-0.588,1.163c-0.128,0.44-0.192,0.9-0.192,1.381v5.976h-2.256v-8.928
        C119.275,15.449,119.267,15.056,119.251,14.577z"/>
    <path fill="#666666" d="M128.419,26.625c0.496,0.56,1.116,1.008,1.86,1.344c0.744,0.336,1.508,0.504,2.292,0.504
        c0.752,0,1.384-0.108,1.896-0.324s0.924-0.512,1.236-0.888s0.536-0.82,0.672-1.332c0.136-0.513,0.204-1.064,0.204-1.656v-1.464
        h-0.048c-0.416,0.641-0.984,1.128-1.704,1.464c-0.72,0.336-1.488,0.504-2.304,0.504c-0.864,0-1.652-0.151-2.364-0.456
        c-0.712-0.304-1.316-0.72-1.812-1.248c-0.496-0.527-0.88-1.147-1.152-1.859s-0.408-1.477-0.408-2.292
        c0-0.816,0.136-1.584,0.408-2.305c0.272-0.72,0.656-1.348,1.152-1.884c0.496-0.535,1.096-0.96,1.8-1.271
        c0.704-0.312,1.488-0.469,2.352-0.469c0.816,0,1.596,0.177,2.34,0.528c0.744,0.353,1.332,0.888,1.764,1.608h0.048v-1.824h2.184
        v10.8c0,0.832-0.104,1.628-0.312,2.388c-0.208,0.76-0.56,1.433-1.056,2.017s-1.144,1.052-1.944,1.404
        c-0.8,0.352-1.792,0.527-2.976,0.527c-0.992,0-1.988-0.18-2.988-0.54c-1-0.359-1.86-0.868-2.58-1.523L128.419,26.625z
         M129.091,18.873c0,0.527,0.084,1.031,0.253,1.512c0.168,0.479,0.417,0.904,0.746,1.271c0.329,0.369,0.726,0.664,1.192,0.889
        c0.465,0.224,0.995,0.336,1.589,0.336c0.577,0,1.107-0.104,1.589-0.312c0.481-0.207,0.891-0.491,1.228-0.852
        s0.598-0.784,0.782-1.272c0.185-0.487,0.277-1.012,0.277-1.571c0-0.544-0.093-1.057-0.277-1.536
        c-0.185-0.48-0.449-0.904-0.794-1.272c-0.345-0.367-0.755-0.66-1.228-0.876c-0.474-0.216-1-0.324-1.577-0.324
        c-0.594,0-1.124,0.108-1.589,0.324c-0.466,0.216-0.863,0.504-1.192,0.864s-0.578,0.784-0.746,1.271
        C129.175,17.812,129.091,18.329,129.091,18.873z"/>
</g>
<g><a xlink:href="/" pointer-events="all" target="_top"><polygon fill="none" points="0,0 145,0 145,35 0,35 0,0"/></a></g>

</g>


<!-- BidirectionalIndexType -->
<g id="node1" class="node">
<g id="a_node1"><a xlink:href="/protocol/BidirectionalIndexType/" target="_top">
<path fill="#999999" stroke="#999999" d="M122.725,-254C122.725,-254 7.27461,-254 7.27461,-254 3.60795,-254 -0.0587187,-250.333 -0.0587187,-246.667 -0.0587187,-246.667 -0.0587187,-239.333 -0.0587187,-239.333 -0.0587187,-235.667 3.60795,-232 7.27461,-232 7.27461,-232 122.725,-232 122.725,-232 126.392,-232 130.059,-235.667 130.059,-239.333 130.059,-239.333 130.059,-246.667 130.059,-246.667 130.059,-250.333 126.392,-254 122.725,-254"/>
<text text-anchor="middle" x="65" y="-239.4" font-family="Helvetica,sans-Serif" font-size="12.00" fill="white">BidirectionalIndexType</text>
</a>
</g>
</g>
<!-- RandomAccessIndexType -->
<g id="node12" class="node">
<g id="a_node12"><a xlink:href="/protocol/RandomAccessIndexType/" target="_top">
<path fill="#999999" stroke="#999999" d="M322.225,-196C322.225,-196 187.775,-196 187.775,-196 184.108,-196 180.441,-192.333 180.441,-188.667 180.441,-188.667 180.441,-181.333 180.441,-181.333 180.441,-177.667 184.108,-174 187.775,-174 187.775,-174 322.225,-174 322.225,-174 325.892,-174 329.559,-177.667 329.559,-181.333 329.559,-181.333 329.559,-188.667 329.559,-188.667 329.559,-192.333 325.892,-196 322.225,-196"/>
<text text-anchor="middle" x="255" y="-181.4" font-family="Helvetica,sans-Serif" font-size="12.00" fill="white">RandomAccessIndexType</text>
</a>
</g>
</g>
<!-- BidirectionalIndexType&#45;&gt;RandomAccessIndexType -->
<g id="edge26" class="edge">
<path fill="none" stroke="#cccccc" d="M98.9682,-231.988C130.348,-222.74 177.133,-208.95 211.288,-198.884"/>
<polygon fill="#cccccc" stroke="#cccccc" points="212.404,-202.204 221.006,-196.019 210.425,-195.489 212.404,-202.204"/>
</g>
<!-- BitwiseOperationsType -->
<g id="node2" class="node">
<g id="a_node2"><a xlink:href="/protocol/BitwiseOperationsType/" target="_top">
<path fill="#999999" stroke="#999999" d="M446.715,-254C446.715,-254 329.285,-254 329.285,-254 325.618,-254 321.952,-250.333 321.952,-246.667 321.952,-246.667 321.952,-239.333 321.952,-239.333 321.952,-235.667 325.618,-232 329.285,-232 329.285,-232 446.715,-232 446.715,-232 450.382,-232 454.048,-235.667 454.048,-239.333 454.048,-239.333 454.048,-246.667 454.048,-246.667 454.048,-250.333 450.382,-254 446.715,-254"/>
<text text-anchor="middle" x="388" y="-239.4" font-family="Helvetica,sans-Serif" font-size="12.00" fill="white">BitwiseOperationsType</text>
</a>
</g>
</g>
<!-- UInt16 -->
<g id="node15" class="node">
<g id="a_node15"><a xlink:href="/type/UInt16/" target="_top">
<polygon fill="#ee543d" stroke="#ee543d" points="712,-22 658,-22 658,-0 712,-0 712,-22"/>
<text text-anchor="middle" x="685" y="-7.4" font-family="Helvetica,sans-Serif" font-size="12.00" fill="white">UInt16</text>
</a>
</g>
</g>
<!-- BitwiseOperationsType&#45;&gt;UInt16 -->
<g id="edge5" class="edge">
<path fill="none" stroke="#cccccc" d="M386.816,-231.841C384.696,-209.03 382.525,-152.859 407,-116 460.489,-35.4472 584.925,-17.1066 647.564,-13.0554"/>
<polygon fill="#cccccc" stroke="#cccccc" points="647.999,-16.5367 657.789,-12.4865 647.61,-9.5475 647.999,-16.5367"/>
</g>
<!-- _IntegerType -->
<g id="node22" class="node">
<g id="a_node22"><a xlink:href="/protocol/_IntegerType/" target="_top">
<path fill="#999999" stroke="#999999" d="M605.708,-196C605.708,-196 540.292,-196 540.292,-196 536.626,-196 532.959,-192.333 532.959,-188.667 532.959,-188.667 532.959,-181.333 532.959,-181.333 532.959,-177.667 536.626,-174 540.292,-174 540.292,-174 605.708,-174 605.708,-174 609.374,-174 613.041,-177.667 613.041,-181.333 613.041,-181.333 613.041,-188.667 613.041,-188.667 613.041,-192.333 609.374,-196 605.708,-196"/>
<text text-anchor="middle" x="573" y="-181.4" font-family="Helvetica,sans-Serif" font-size="12.00" fill="white">_IntegerType</text>
</a>
</g>
</g>
<!-- BitwiseOperationsType&#45;&gt;_IntegerType -->
<g id="edge16" class="edge">
<path fill="none" stroke="#cccccc" d="M421.074,-231.988C451.497,-222.779 496.792,-209.068 530.009,-199.013"/>
<polygon fill="#cccccc" stroke="#cccccc" points="531.344,-202.266 539.901,-196.019 529.316,-195.567 531.344,-202.266"/>
</g>
<!-- CVarArgType -->
<g id="node3" class="node">
<g id="a_node3"><a xlink:href="/protocol/CVarArgType/" target="_top">
<path fill="#999999" stroke="#999999" d="M806.029,-80C806.029,-80 739.971,-80 739.971,-80 736.304,-80 732.638,-76.3333 732.638,-72.6667 732.638,-72.6667 732.638,-65.3333 732.638,-65.3333 732.638,-61.6667 736.304,-58 739.971,-58 739.971,-58 806.029,-58 806.029,-58 809.696,-58 813.362,-61.6667 813.362,-65.3333 813.362,-65.3333 813.362,-72.6667 813.362,-72.6667 813.362,-76.3333 809.696,-80 806.029,-80"/>
<text text-anchor="middle" x="773" y="-65.4" font-family="Helvetica,sans-Serif" font-size="12.00" fill="white">CVarArgType</text>
</a>
</g>
</g>
<!-- CVarArgType&#45;&gt;UInt16 -->
<g id="edge8" class="edge">
<path fill="none" stroke="#cccccc" d="M757.267,-57.9883C743.96,-49.5201 724.671,-37.2452 709.368,-27.5067"/>
<polygon fill="#cccccc" stroke="#cccccc" points="711.209,-24.5298 700.893,-22.1138 707.451,-30.4354 711.209,-24.5298"/>
</g>
<!-- Comparable -->
<g id="node4" class="node">
<g id="a_node4"><a xlink:href="/protocol/Comparable/" target="_top">
<path fill="#999999" stroke="#999999" d="M644.191,-370C644.191,-370 583.809,-370 583.809,-370 580.142,-370 576.475,-366.333 576.475,-362.667 576.475,-362.667 576.475,-355.333 576.475,-355.333 576.475,-351.667 580.142,-348 583.809,-348 583.809,-348 644.191,-348 644.191,-348 647.858,-348 651.525,-351.667 651.525,-355.333 651.525,-355.333 651.525,-362.667 651.525,-362.667 651.525,-366.333 647.858,-370 644.191,-370"/>
<text text-anchor="middle" x="614" y="-355.4" font-family="Helvetica,sans-Serif" font-size="12.00" fill="white">Comparable</text>
</a>
</g>
</g>
<!-- IntegerArithmeticType -->
<g id="node8" class="node">
<g id="a_node8"><a xlink:href="/protocol/IntegerArithmeticType/" target="_top">
<path fill="#999999" stroke="#999999" d="M628.711,-254C628.711,-254 517.289,-254 517.289,-254 513.623,-254 509.956,-250.333 509.956,-246.667 509.956,-246.667 509.956,-239.333 509.956,-239.333 509.956,-235.667 513.623,-232 517.289,-232 517.289,-232 628.711,-232 628.711,-232 632.377,-232 636.044,-235.667 636.044,-239.333 636.044,-239.333 636.044,-246.667 636.044,-246.667 636.044,-250.333 632.377,-254 628.711,-254"/>
<text text-anchor="middle" x="573" y="-239.4" font-family="Helvetica,sans-Serif" font-size="12.00" fill="white">IntegerArithmeticType</text>
</a>
</g>
</g>
<!-- Comparable&#45;&gt;IntegerArithmeticType -->
<g id="edge20" class="edge">
<path fill="none" stroke="#cccccc" d="M626.809,-347.818C641.958,-334.483 663.728,-310.401 652,-290 643.824,-275.779 629.372,-265.542 615.045,-258.391"/>
<polygon fill="#cccccc" stroke="#cccccc" points="616.265,-255.101 605.715,-254.127 613.355,-261.467 616.265,-255.101"/>
</g>
<!-- Strideable -->
<g id="node14" class="node">
<g id="a_node14"><a xlink:href="/protocol/Strideable/" target="_top">
<path fill="#999999" stroke="#999999" d="M401.693,-312C401.693,-312 352.307,-312 352.307,-312 348.64,-312 344.974,-308.333 344.974,-304.667 344.974,-304.667 344.974,-297.333 344.974,-297.333 344.974,-293.667 348.64,-290 352.307,-290 352.307,-290 401.693,-290 401.693,-290 405.36,-290 409.026,-293.667 409.026,-297.333 409.026,-297.333 409.026,-304.667 409.026,-304.667 409.026,-308.333 405.36,-312 401.693,-312"/>
<text text-anchor="middle" x="377" y="-297.4" font-family="Helvetica,sans-Serif" font-size="12.00" fill="white">Strideable</text>
</a>
</g>
</g>
<!-- Comparable&#45;&gt;Strideable -->
<g id="edge35" class="edge">
<path fill="none" stroke="#cccccc" d="M576.447,-349.127C533.581,-338.998 463.645,-322.473 419.004,-311.925"/>
<polygon fill="#cccccc" stroke="#cccccc" points="419.594,-308.468 409.057,-309.575 417.984,-315.281 419.594,-308.468"/>
</g>
<!-- Equatable -->
<g id="node5" class="node">
<g id="a_node5"><a xlink:href="/protocol/Equatable/" target="_top">
<path fill="#999999" stroke="#999999" d="M603.702,-486C603.702,-486 554.298,-486 554.298,-486 550.632,-486 546.965,-482.333 546.965,-478.667 546.965,-478.667 546.965,-471.333 546.965,-471.333 546.965,-467.667 550.632,-464 554.298,-464 554.298,-464 603.702,-464 603.702,-464 607.368,-464 611.035,-467.667 611.035,-471.333 611.035,-471.333 611.035,-478.667 611.035,-478.667 611.035,-482.333 607.368,-486 603.702,-486"/>
<text text-anchor="middle" x="579" y="-471.4" font-family="Helvetica,sans-Serif" font-size="12.00" fill="white">Equatable</text>
</a>
</g>
</g>
<!-- Equatable&#45;&gt;Comparable -->
<g id="edge22" class="edge">
<path fill="none" stroke="#cccccc" d="M581.637,-463.804C585.138,-450.453 591.624,-426.353 598,-406 600.707,-397.36 603.948,-387.9 606.804,-379.818"/>
<polygon fill="#cccccc" stroke="#cccccc" points="610.182,-380.765 610.258,-370.171 603.592,-378.406 610.182,-380.765"/>
</g>
<!-- Hashable -->
<g id="node7" class="node">
<g id="a_node7"><a xlink:href="/protocol/Hashable/" target="_top">
<path fill="#999999" stroke="#999999" d="M941.694,-254C941.694,-254 896.306,-254 896.306,-254 892.639,-254 888.973,-250.333 888.973,-246.667 888.973,-246.667 888.973,-239.333 888.973,-239.333 888.973,-235.667 892.639,-232 896.306,-232 896.306,-232 941.694,-232 941.694,-232 945.361,-232 949.027,-235.667 949.027,-239.333 949.027,-239.333 949.027,-246.667 949.027,-246.667 949.027,-250.333 945.361,-254 941.694,-254"/>
<text text-anchor="middle" x="919" y="-239.4" font-family="Helvetica,sans-Serif" font-size="12.00" fill="white">Hashable</text>
</a>
</g>
</g>
<!-- Equatable&#45;&gt;Hashable -->
<g id="edge18" class="edge">
<path fill="none" stroke="#cccccc" d="M611.102,-464.737C635.815,-456.875 670.315,-444.28 698,-428 782.422,-378.357 867.228,-296.755 902.26,-261.321"/>
<polygon fill="#cccccc" stroke="#cccccc" points="904.83,-263.699 909.332,-254.108 899.832,-258.798 904.83,-263.699"/>
</g>
<!-- _Incrementable -->
<g id="node20" class="node">
<g id="a_node20"><a xlink:href="/protocol/_Incrementable/" target="_top">
<path fill="#999999" stroke="#999999" d="M520.705,-428C520.705,-428 443.295,-428 443.295,-428 439.628,-428 435.961,-424.333 435.961,-420.667 435.961,-420.667 435.961,-413.333 435.961,-413.333 435.961,-409.667 439.628,-406 443.295,-406 443.295,-406 520.705,-406 520.705,-406 524.372,-406 528.039,-409.667 528.039,-413.333 528.039,-413.333 528.039,-420.667 528.039,-420.667 528.039,-424.333 524.372,-428 520.705,-428"/>
<text text-anchor="middle" x="482" y="-413.4" font-family="Helvetica,sans-Serif" font-size="12.00" fill="white">_Incrementable</text>
</a>
</g>
</g>
<!-- Equatable&#45;&gt;_Incrementable -->
<g id="edge23" class="edge">
<path fill="none" stroke="#cccccc" d="M561.658,-463.988C546.853,-455.441 525.33,-443.015 508.388,-433.234"/>
<polygon fill="#cccccc" stroke="#cccccc" points="509.929,-430.083 499.519,-428.114 506.429,-436.145 509.929,-430.083"/>
</g>
<!-- ForwardIndexType -->
<g id="node6" class="node">
<g id="a_node6"><a xlink:href="/protocol/ForwardIndexType/" target="_top">
<path fill="#999999" stroke="#999999" d="M117.206,-312C117.206,-312 22.7938,-312 22.7938,-312 19.1272,-312 15.4605,-308.333 15.4605,-304.667 15.4605,-304.667 15.4605,-297.333 15.4605,-297.333 15.4605,-293.667 19.1272,-290 22.7938,-290 22.7938,-290 117.206,-290 117.206,-290 120.873,-290 124.539,-293.667 124.539,-297.333 124.539,-297.333 124.539,-304.667 124.539,-304.667 124.539,-308.333 120.873,-312 117.206,-312"/>
<text text-anchor="middle" x="70" y="-297.4" font-family="Helvetica,sans-Serif" font-size="12.00" fill="white">ForwardIndexType</text>
</a>
</g>
</g>
<!-- ForwardIndexType&#45;&gt;BidirectionalIndexType -->
<g id="edge28" class="edge">
<path fill="none" stroke="#cccccc" d="M69.1061,-289.988C68.4741,-282.91 67.6046,-273.171 66.8284,-264.478"/>
<polygon fill="#cccccc" stroke="#cccccc" points="70.2955,-263.953 65.92,-254.304 63.3233,-264.576 70.2955,-263.953"/>
</g>
<!-- Hashable&#45;&gt;UInt16 -->
<g id="edge2" class="edge">
<path fill="none" stroke="#cccccc" d="M903.082,-231.872C867.361,-208.549 779.531,-147.823 723,-80 710.737,-65.2874 700.412,-46.0417 693.634,-31.7814"/>
<polygon fill="#cccccc" stroke="#cccccc" points="696.692,-30.0521 689.349,-22.4149 690.327,-32.9646 696.692,-30.0521"/>
</g>
<!-- Hashable&#45;&gt;_IntegerType -->
<g id="edge14" class="edge">
<path fill="none" stroke="#cccccc" d="M888.929,-234.154C885.589,-233.381 882.229,-232.645 879,-232 789.608,-214.15 684.281,-199.753 623.417,-192.074"/>
<polygon fill="#cccccc" stroke="#cccccc" points="623.669,-188.578 613.312,-190.809 622.799,-195.524 623.669,-188.578"/>
</g>
<!-- IntegerArithmeticType&#45;&gt;_IntegerType -->
<g id="edge15" class="edge">
<path fill="none" stroke="#cccccc" d="M573,-231.988C573,-224.91 573,-215.171 573,-206.478"/>
<polygon fill="#cccccc" stroke="#cccccc" points="576.5,-206.304 573,-196.304 569.5,-206.304 576.5,-206.304"/>
</g>
<!-- IntegerLiteralConvertible -->
<g id="node9" class="node">
<g id="a_node9"><a xlink:href="/protocol/IntegerLiteralConvertible/" target="_top">
<path fill="#999999" stroke="#999999" d="M787.722,-254C787.722,-254 662.278,-254 662.278,-254 658.611,-254 654.944,-250.333 654.944,-246.667 654.944,-246.667 654.944,-239.333 654.944,-239.333 654.944,-235.667 658.611,-232 662.278,-232 662.278,-232 787.722,-232 787.722,-232 791.389,-232 795.056,-235.667 795.056,-239.333 795.056,-239.333 795.056,-246.667 795.056,-246.667 795.056,-250.333 791.389,-254 787.722,-254"/>
<text text-anchor="middle" x="725" y="-239.4" font-family="Helvetica,sans-Serif" font-size="12.00" fill="white">IntegerLiteralConvertible</text>
</a>
</g>
</g>
<!-- IntegerLiteralConvertible&#45;&gt;_IntegerType -->
<g id="edge12" class="edge">
<path fill="none" stroke="#cccccc" d="M697.825,-231.988C673.261,-222.938 636.894,-209.54 609.742,-199.537"/>
<polygon fill="#cccccc" stroke="#cccccc" points="610.789,-196.192 600.195,-196.019 608.369,-202.761 610.789,-196.192"/>
</g>
<!-- IntegerType -->
<g id="node10" class="node">
<g id="a_node10"><a xlink:href="/protocol/IntegerType/" target="_top">
<path fill="#999999" stroke="#999999" d="M482.202,-138C482.202,-138 423.798,-138 423.798,-138 420.132,-138 416.465,-134.333 416.465,-130.667 416.465,-130.667 416.465,-123.333 416.465,-123.333 416.465,-119.667 420.132,-116 423.798,-116 423.798,-116 482.202,-116 482.202,-116 485.868,-116 489.535,-119.667 489.535,-123.333 489.535,-123.333 489.535,-130.667 489.535,-130.667 489.535,-134.333 485.868,-138 482.202,-138"/>
<text text-anchor="middle" x="453" y="-123.4" font-family="Helvetica,sans-Serif" font-size="12.00" fill="white">IntegerType</text>
</a>
</g>
</g>
<!-- UnsignedIntegerType -->
<g id="node16" class="node">
<g id="a_node16"><a xlink:href="/protocol/UnsignedIntegerType/" target="_top">
<path fill="#999999" stroke="#999999" d="M627.728,-80C627.728,-80 518.272,-80 518.272,-80 514.605,-80 510.938,-76.3333 510.938,-72.6667 510.938,-72.6667 510.938,-65.3333 510.938,-65.3333 510.938,-61.6667 514.605,-58 518.272,-58 518.272,-58 627.728,-58 627.728,-58 631.395,-58 635.062,-61.6667 635.062,-65.3333 635.062,-65.3333 635.062,-72.6667 635.062,-72.6667 635.062,-76.3333 631.395,-80 627.728,-80"/>
<text text-anchor="middle" x="573" y="-65.4" font-family="Helvetica,sans-Serif" font-size="12.00" fill="white">UnsignedIntegerType</text>
</a>
</g>
</g>
<!-- IntegerType&#45;&gt;UnsignedIntegerType -->
<g id="edge10" class="edge">
<path fill="none" stroke="#cccccc" d="M474.454,-115.988C493.278,-107.204 520.881,-94.3222 542.088,-84.4255"/>
<polygon fill="#cccccc" stroke="#cccccc" points="543.746,-87.5144 551.328,-80.1138 540.786,-81.1711 543.746,-87.5144"/>
</g>
<!-- Printable -->
<g id="node11" class="node">
<g id="a_node11"><a xlink:href="/protocol/Printable/" target="_top">
<path fill="#999999" stroke="#999999" d="M863.187,-254C863.187,-254 820.813,-254 820.813,-254 817.147,-254 813.48,-250.333 813.48,-246.667 813.48,-246.667 813.48,-239.333 813.48,-239.333 813.48,-235.667 817.147,-232 820.813,-232 820.813,-232 863.187,-232 863.187,-232 866.853,-232 870.52,-235.667 870.52,-239.333 870.52,-239.333 870.52,-246.667 870.52,-246.667 870.52,-250.333 866.853,-254 863.187,-254"/>
<text text-anchor="middle" x="842" y="-239.4" font-family="Helvetica,sans-Serif" font-size="12.00" fill="white">Printable</text>
</a>
</g>
</g>
<!-- Printable&#45;&gt;UInt16 -->
<g id="edge3" class="edge">
<path fill="none" stroke="#cccccc" d="M813.606,-234.327C770.688,-222.599 693.848,-201.04 690,-196 652.92,-147.43 668.444,-68.7592 678.675,-32.0537"/>
<polygon fill="#cccccc" stroke="#cccccc" points="682.142,-32.6712 681.616,-22.0894 675.428,-30.6895 682.142,-32.6712"/>
</g>
<!-- Printable&#45;&gt;_IntegerType -->
<g id="edge13" class="edge">
<path fill="none" stroke="#cccccc" d="M813.412,-234.278C810.243,-233.481 807.058,-232.706 804,-232 742.011,-217.685 670.047,-203.78 623.129,-195.073"/>
<polygon fill="#cccccc" stroke="#cccccc" points="623.69,-191.617 613.22,-193.242 622.418,-198.501 623.69,-191.617"/>
</g>
<!-- RandomAccessIndexType&#45;&gt;IntegerType -->
<g id="edge25" class="edge">
<path fill="none" stroke="#cccccc" d="M290.398,-173.988C323.239,-164.7 372.273,-150.832 407.905,-140.754"/>
<polygon fill="#cccccc" stroke="#cccccc" points="408.905,-144.109 417.575,-138.019 407,-137.373 408.905,-144.109"/>
</g>
<!-- RandomAccessIndexType&#45;&gt;UInt16 -->
<g id="edge4" class="edge">
<path fill="none" stroke="#cccccc" d="M261.225,-173.664C276.745,-148.917 319.833,-86.2275 374,-58 420.96,-33.5281 575.405,-19.7264 647.416,-14.479"/>
<polygon fill="#cccccc" stroke="#cccccc" points="648.102,-17.9391 657.829,-13.7382 647.605,-10.9567 648.102,-17.9391"/>
</g>
<!-- Reflectable -->
<g id="node13" class="node">
<g id="a_node13"><a xlink:href="/protocol/Reflectable/" target="_top">
<path fill="#999999" stroke="#999999" d="M894.693,-80C894.693,-80 839.307,-80 839.307,-80 835.64,-80 831.974,-76.3333 831.974,-72.6667 831.974,-72.6667 831.974,-65.3333 831.974,-65.3333 831.974,-61.6667 835.64,-58 839.307,-58 839.307,-58 894.693,-58 894.693,-58 898.36,-58 902.026,-61.6667 902.026,-65.3333 902.026,-65.3333 902.026,-72.6667 902.026,-72.6667 902.026,-76.3333 898.36,-80 894.693,-80"/>
<text text-anchor="middle" x="867" y="-65.4" font-family="Helvetica,sans-Serif" font-size="12.00" fill="white">Reflectable</text>
</a>
</g>
</g>
<!-- Reflectable&#45;&gt;UInt16 -->
<g id="edge6" class="edge">
<path fill="none" stroke="#cccccc" d="M834.462,-57.9883C802.865,-48.2662 754.961,-33.5264 721.945,-23.3678"/>
<polygon fill="#cccccc" stroke="#cccccc" points="722.799,-19.9686 712.212,-20.3729 720.74,-26.659 722.799,-19.9686"/>
</g>
<!-- _RandomAccessIndexType -->
<g id="node23" class="node">
<g id="a_node23"><a xlink:href="/protocol/_RandomAccessIndexType/" target="_top">
<path fill="#999999" stroke="#999999" d="M296.731,-254C296.731,-254 155.269,-254 155.269,-254 151.602,-254 147.936,-250.333 147.936,-246.667 147.936,-246.667 147.936,-239.333 147.936,-239.333 147.936,-235.667 151.602,-232 155.269,-232 155.269,-232 296.731,-232 296.731,-232 300.398,-232 304.064,-235.667 304.064,-239.333 304.064,-239.333 304.064,-246.667 304.064,-246.667 304.064,-250.333 300.398,-254 296.731,-254"/>
<text text-anchor="middle" x="226" y="-239.4" font-family="Helvetica,sans-Serif" font-size="12.00" fill="white">_RandomAccessIndexType</text>
</a>
</g>
</g>
<!-- Strideable&#45;&gt;_RandomAccessIndexType -->
<g id="edge34" class="edge">
<path fill="none" stroke="#cccccc" d="M350.004,-289.988C325.601,-280.938 289.474,-267.54 262.501,-257.537"/>
<polygon fill="#cccccc" stroke="#cccccc" points="263.609,-254.215 253.016,-254.019 261.175,-260.778 263.609,-254.215"/>
</g>
<!-- UnsignedIntegerType&#45;&gt;UInt16 -->
<g id="edge1" class="edge">
<path fill="none" stroke="#cccccc" d="M593.023,-57.9883C610.435,-49.2827 635.892,-36.5539 655.613,-26.6937"/>
<polygon fill="#cccccc" stroke="#cccccc" points="657.393,-29.7165 664.772,-22.1138 654.263,-23.4555 657.393,-29.7165"/>
</g>
<!-- _BidirectionalIndexType -->
<g id="node17" class="node">
<g id="a_node17"><a xlink:href="/protocol/_BidirectionalIndexType/" target="_top">
<path fill="#999999" stroke="#999999" d="M277.23,-312C277.23,-312 154.77,-312 154.77,-312 151.104,-312 147.437,-308.333 147.437,-304.667 147.437,-304.667 147.437,-297.333 147.437,-297.333 147.437,-293.667 151.104,-290 154.77,-290 154.77,-290 277.23,-290 277.23,-290 280.896,-290 284.563,-293.667 284.563,-297.333 284.563,-297.333 284.563,-304.667 284.563,-304.667 284.563,-308.333 280.896,-312 277.23,-312"/>
<text text-anchor="middle" x="216" y="-297.4" font-family="Helvetica,sans-Serif" font-size="12.00" fill="white">_BidirectionalIndexType</text>
</a>
</g>
</g>
<!-- _BidirectionalIndexType&#45;&gt;BidirectionalIndexType -->
<g id="edge29" class="edge">
<path fill="none" stroke="#cccccc" d="M189.004,-289.988C164.601,-280.938 128.474,-267.54 101.501,-257.537"/>
<polygon fill="#cccccc" stroke="#cccccc" points="102.609,-254.215 92.0162,-254.019 100.175,-260.778 102.609,-254.215"/>
</g>
<!-- _BidirectionalIndexType&#45;&gt;_RandomAccessIndexType -->
<g id="edge33" class="edge">
<path fill="none" stroke="#cccccc" d="M217.788,-289.988C219.066,-282.831 220.83,-272.955 222.395,-264.189"/>
<polygon fill="#cccccc" stroke="#cccccc" points="225.848,-264.763 224.16,-254.304 218.957,-263.533 225.848,-264.763"/>
</g>
<!-- _Comparable -->
<g id="node18" class="node">
<g id="a_node18"><a xlink:href="/protocol/_Comparable/" target="_top">
<path fill="#999999" stroke="#999999" d="M681.697,-428C681.697,-428 614.303,-428 614.303,-428 610.636,-428 606.969,-424.333 606.969,-420.667 606.969,-420.667 606.969,-413.333 606.969,-413.333 606.969,-409.667 610.636,-406 614.303,-406 614.303,-406 681.697,-406 681.697,-406 685.364,-406 689.031,-409.667 689.031,-413.333 689.031,-413.333 689.031,-420.667 689.031,-420.667 689.031,-424.333 685.364,-428 681.697,-428"/>
<text text-anchor="middle" x="648" y="-413.4" font-family="Helvetica,sans-Serif" font-size="12.00" fill="white">_Comparable</text>
</a>
</g>
</g>
<!-- _Comparable&#45;&gt;Comparable -->
<g id="edge21" class="edge">
<path fill="none" stroke="#cccccc" d="M641.921,-405.988C637.385,-398.517 631.049,-388.081 625.56,-379.039"/>
<polygon fill="#cccccc" stroke="#cccccc" points="628.438,-377.035 620.256,-370.304 622.454,-380.668 628.438,-377.035"/>
</g>
<!-- _ForwardIndexType -->
<g id="node19" class="node">
<g id="a_node19"><a xlink:href="/protocol/_ForwardIndexType/" target="_top">
<path fill="#999999" stroke="#999999" d="M266.712,-370C266.712,-370 165.288,-370 165.288,-370 161.621,-370 157.955,-366.333 157.955,-362.667 157.955,-362.667 157.955,-355.333 157.955,-355.333 157.955,-351.667 161.621,-348 165.288,-348 165.288,-348 266.712,-348 266.712,-348 270.379,-348 274.045,-351.667 274.045,-355.333 274.045,-355.333 274.045,-362.667 274.045,-362.667 274.045,-366.333 270.379,-370 266.712,-370"/>
<text text-anchor="middle" x="216" y="-355.4" font-family="Helvetica,sans-Serif" font-size="12.00" fill="white">_ForwardIndexType</text>
</a>
</g>
</g>
<!-- _ForwardIndexType&#45;&gt;ForwardIndexType -->
<g id="edge30" class="edge">
<path fill="none" stroke="#cccccc" d="M189.898,-347.988C166.479,-339.006 131.893,-325.74 105.878,-315.761"/>
<polygon fill="#cccccc" stroke="#cccccc" points="106.958,-312.427 96.3682,-312.114 104.451,-318.963 106.958,-312.427"/>
</g>
<!-- _ForwardIndexType&#45;&gt;_BidirectionalIndexType -->
<g id="edge32" class="edge">
<path fill="none" stroke="#cccccc" d="M216,-347.988C216,-340.91 216,-331.171 216,-322.478"/>
<polygon fill="#cccccc" stroke="#cccccc" points="219.5,-322.304 216,-312.304 212.5,-322.304 219.5,-322.304"/>
</g>
<!-- _Incrementable&#45;&gt;_ForwardIndexType -->
<g id="edge31" class="edge">
<path fill="none" stroke="#cccccc" d="M435.666,-406.246C390.642,-396.767 322.147,-382.347 273.628,-372.132"/>
<polygon fill="#cccccc" stroke="#cccccc" points="274.1,-368.655 263.594,-370.02 272.658,-375.505 274.1,-368.655"/>
</g>
<!-- _Incrementable&#45;&gt;_IntegerType -->
<g id="edge17" class="edge">
<path fill="none" stroke="#cccccc" d="M480.191,-405.872C475.493,-376.445 465.602,-289.403 501,-232 509.414,-218.356 523.553,-208.035 537.086,-200.662"/>
<polygon fill="#cccccc" stroke="#cccccc" points="538.928,-203.653 546.28,-196.024 535.775,-197.403 538.928,-203.653"/>
</g>
<!-- _IntegerArithmeticType -->
<g id="node21" class="node">
<g id="a_node21"><a xlink:href="/protocol/_IntegerArithmeticType/" target="_top">
<path fill="#999999" stroke="#999999" d="M636.215,-312C636.215,-312 517.785,-312 517.785,-312 514.118,-312 510.452,-308.333 510.452,-304.667 510.452,-304.667 510.452,-297.333 510.452,-297.333 510.452,-293.667 514.118,-290 517.785,-290 517.785,-290 636.215,-290 636.215,-290 639.882,-290 643.548,-293.667 643.548,-297.333 643.548,-297.333 643.548,-304.667 643.548,-304.667 643.548,-308.333 639.882,-312 636.215,-312"/>
<text text-anchor="middle" x="577" y="-297.4" font-family="Helvetica,sans-Serif" font-size="12.00" fill="white">_IntegerArithmeticType</text>
</a>
</g>
</g>
<!-- _IntegerArithmeticType&#45;&gt;IntegerArithmeticType -->
<g id="edge19" class="edge">
<path fill="none" stroke="#cccccc" d="M576.285,-289.988C575.779,-282.91 575.084,-273.171 574.463,-264.478"/>
<polygon fill="#cccccc" stroke="#cccccc" points="577.94,-264.029 573.736,-254.304 570.957,-264.528 577.94,-264.029"/>
</g>
<!-- _IntegerType&#45;&gt;IntegerType -->
<g id="edge24" class="edge">
<path fill="none" stroke="#cccccc" d="M551.546,-173.988C532.722,-165.204 505.119,-152.322 483.912,-142.425"/>
<polygon fill="#cccccc" stroke="#cccccc" points="485.214,-139.171 474.672,-138.114 482.254,-145.514 485.214,-139.171"/>
</g>
<!-- _UnsignedIntegerType -->
<g id="node26" class="node">
<g id="a_node26"><a xlink:href="/protocol/_UnsignedIntegerType/" target="_top">
<path fill="#999999" stroke="#999999" d="M630.734,-138C630.734,-138 515.266,-138 515.266,-138 511.599,-138 507.933,-134.333 507.933,-130.667 507.933,-130.667 507.933,-123.333 507.933,-123.333 507.933,-119.667 511.599,-116 515.266,-116 515.266,-116 630.734,-116 630.734,-116 634.401,-116 638.067,-119.667 638.067,-123.333 638.067,-123.333 638.067,-130.667 638.067,-130.667 638.067,-134.333 634.401,-138 630.734,-138"/>
<text text-anchor="middle" x="573" y="-123.4" font-family="Helvetica,sans-Serif" font-size="12.00" fill="white">_UnsignedIntegerType</text>
</a>
</g>
</g>
<!-- _IntegerType&#45;&gt;_UnsignedIntegerType -->
<g id="edge11" class="edge">
<path fill="none" stroke="#cccccc" d="M573,-173.988C573,-166.91 573,-157.171 573,-148.478"/>
<polygon fill="#cccccc" stroke="#cccccc" points="576.5,-148.304 573,-138.304 569.5,-148.304 576.5,-148.304"/>
</g>
<!-- _RandomAccessIndexType&#45;&gt;RandomAccessIndexType -->
<g id="edge27" class="edge">
<path fill="none" stroke="#cccccc" d="M231.185,-231.988C235.013,-224.595 240.344,-214.301 244.992,-205.325"/>
<polygon fill="#cccccc" stroke="#cccccc" points="248.173,-206.793 249.664,-196.304 241.957,-203.574 248.173,-206.793"/>
</g>
<!-- _Strideable -->
<g id="node24" class="node">
<g id="a_node24"><a xlink:href="/protocol/_Strideable/" target="_top">
<path fill="#999999" stroke="#999999" d="M404.7,-370C404.7,-370 349.3,-370 349.3,-370 345.634,-370 341.967,-366.333 341.967,-362.667 341.967,-362.667 341.967,-355.333 341.967,-355.333 341.967,-351.667 345.634,-348 349.3,-348 349.3,-348 404.7,-348 404.7,-348 408.366,-348 412.033,-351.667 412.033,-355.333 412.033,-355.333 412.033,-362.667 412.033,-362.667 412.033,-366.333 408.366,-370 404.7,-370"/>
<text text-anchor="middle" x="377" y="-355.4" font-family="Helvetica,sans-Serif" font-size="12.00" fill="white">_Strideable</text>
</a>
</g>
</g>
<!-- _Strideable&#45;&gt;Strideable -->
<g id="edge36" class="edge">
<path fill="none" stroke="#cccccc" d="M377,-347.988C377,-340.91 377,-331.171 377,-322.478"/>
<polygon fill="#cccccc" stroke="#cccccc" points="380.5,-322.304 377,-312.304 373.5,-322.304 380.5,-322.304"/>
</g>
<!-- _StringElementType -->
<g id="node25" class="node">
<g id="a_node25"><a xlink:href="/protocol/_StringElementType/" target="_top">
<path fill="#999999" stroke="#999999" d="M1030.72,-80C1030.72,-80 927.285,-80 927.285,-80 923.618,-80 919.952,-76.3333 919.952,-72.6667 919.952,-72.6667 919.952,-65.3333 919.952,-65.3333 919.952,-61.6667 923.618,-58 927.285,-58 927.285,-58 1030.72,-58 1030.72,-58 1034.38,-58 1038.05,-61.6667 1038.05,-65.3333 1038.05,-65.3333 1038.05,-72.6667 1038.05,-72.6667 1038.05,-76.3333 1034.38,-80 1030.72,-80"/>
<text text-anchor="middle" x="979" y="-65.4" font-family="Helvetica,sans-Serif" font-size="12.00" fill="white">_StringElementType</text>
</a>
</g>
</g>
<!-- _StringElementType&#45;&gt;UInt16 -->
<g id="edge7" class="edge">
<path fill="none" stroke="#cccccc" d="M926.439,-57.9883C867.721,-46.804 774.141,-28.9793 722.422,-19.128"/>
<polygon fill="#cccccc" stroke="#cccccc" points="722.832,-15.6432 712.354,-17.2102 721.522,-22.5196 722.832,-15.6432"/>
</g>
<!-- _UnsignedIntegerType&#45;&gt;UnsignedIntegerType -->
<g id="edge9" class="edge">
<path fill="none" stroke="#cccccc" d="M573,-115.988C573,-108.91 573,-99.1714 573,-90.4779"/>
<polygon fill="#cccccc" stroke="#cccccc" points="576.5,-90.3038 573,-80.3039 569.5,-90.3039 576.5,-90.3038"/>
</g>
</g>
</svg>
