<?xml version="1.0" encoding="UTF-8" standalone="no"?>
<!DOCTYPE svg PUBLIC "-//W3C//DTD SVG 1.1//EN"
 "http://www.w3.org/Graphics/SVG/1.1/DTD/svg11.dtd">
<!-- Generated by graphviz version 2.36.0 (20140111.2315)
 -->
<!-- Title: Set&lt;T : Hashable&gt; &#45; Type Hierarchy &#45; SwiftDoc.org Pages: 1 -->
<svg width="607pt" height="369pt"
 viewBox="0.00 0.00 607.40 369.20" xmlns="http://www.w3.org/2000/svg" xmlns:xlink="http://www.w3.org/1999/xlink">
<g id="graph0" class="graph" transform="scale(1 1) rotate(0) translate(7.2 311.6)">
<title>Set&lt;T : Hashable&gt; &#45; Type Hierarchy &#45; SwiftDoc.org</title>
<polygon fill="white" stroke="none" points="-7.2,57.6 -7.2,-311.6 600.2,-311.6 600.2,57.6 -7.2,57.6"/>
<!-- ArrayLiteralConvertible -->
<g id="node1" class="node"><title>ArrayLiteralConvertible</title>
<g id="a_node1"><a xlink:href="/protocol/ArrayLiteralConvertible/" xlink:title="ArrayLiteralConvertible">
<path fill="#999999" stroke="#999999" d="M124.705,-80C124.705,-80 7.29524,-80 7.29524,-80 3.62858,-80 -0.0380908,-76.3333 -0.0380908,-72.6667 -0.0380908,-72.6667 -0.0380908,-65.3333 -0.0380908,-65.3333 -0.0380908,-61.6667 3.62858,-58 7.29524,-58 7.29524,-58 124.705,-58 124.705,-58 128.371,-58 132.038,-61.6667 132.038,-65.3333 132.038,-65.3333 132.038,-72.6667 132.038,-72.6667 132.038,-76.3333 128.371,-80 124.705,-80"/>
<text text-anchor="middle" x="66" y="-65.4" font-family="Helvetica,sans-Serif" font-size="12.00" fill="white">ArrayLiteralConvertible</text>
</a>
</g>
</g>
<!-- Set&lt;T : Hashable&gt; -->
<g id="node9" class="node"><title>Set&lt;T : Hashable&gt;</title>
<g id="a_node9"><a xlink:href="/type/Set/" xlink:title="Set&lt;T : Hashable&gt;">
<polygon fill="#ee543d" stroke="#ee543d" points="404.388,-22 295.612,-22 295.612,-0 404.388,-0 404.388,-22"/>
<text text-anchor="middle" x="350" y="-7.4" font-family="Helvetica,sans-Serif" font-size="12.00" fill="white">Set&lt;T : Hashable&gt;</text>
</a>
</g>
</g>
<!-- ArrayLiteralConvertible&#45;&gt;Set&lt;T : Hashable&gt; -->
<g id="edge3" class="edge"><title>ArrayLiteralConvertible&#45;&gt;Set&lt;T : Hashable&gt;</title>
<path fill="none" stroke="#cccccc" d="M116.774,-57.9883C165.087,-48.4618 237.832,-34.1176 289.211,-23.9866"/>
<polygon fill="#cccccc" stroke="#cccccc" points="290.054,-27.3878 299.188,-22.0192 288.7,-20.52 290.054,-27.3878"/>
</g>
<!-- CollectionType -->
<g id="node2" class="node"><title>CollectionType</title>
<g id="a_node2"><a xlink:href="/protocol/CollectionType/" xlink:title="CollectionType">
<path fill="#999999" stroke="#999999" d="M230.704,-80C230.704,-80 157.296,-80 157.296,-80 153.63,-80 149.963,-76.3333 149.963,-72.6667 149.963,-72.6667 149.963,-65.3333 149.963,-65.3333 149.963,-61.6667 153.63,-58 157.296,-58 157.296,-58 230.704,-58 230.704,-58 234.37,-58 238.037,-61.6667 238.037,-65.3333 238.037,-65.3333 238.037,-72.6667 238.037,-72.6667 238.037,-76.3333 234.37,-80 230.704,-80"/>
<text text-anchor="middle" x="194" y="-65.4" font-family="Helvetica,sans-Serif" font-size="12.00" fill="white">CollectionType</text>
</a>
</g>
</g>
<!-- CollectionType&#45;&gt;Set&lt;T : Hashable&gt; -->
<g id="edge2" class="edge"><title>CollectionType&#45;&gt;Set&lt;T : Hashable&gt;</title>
<path fill="none" stroke="#cccccc" d="M221.89,-57.9883C247.212,-48.8984 284.752,-35.4223 312.657,-25.4053"/>
<polygon fill="#cccccc" stroke="#cccccc" points="313.86,-28.6921 322.089,-22.0192 311.495,-22.1038 313.86,-28.6921"/>
</g>
<!-- DebugPrintable -->
<g id="node3" class="node"><title>DebugPrintable</title>
<g id="a_node3"><a xlink:href="/protocol/DebugPrintable/" xlink:title="DebugPrintable">
<path fill="#999999" stroke="#999999" d="M341.71,-80C341.71,-80 264.29,-80 264.29,-80 260.624,-80 256.957,-76.3333 256.957,-72.6667 256.957,-72.6667 256.957,-65.3333 256.957,-65.3333 256.957,-61.6667 260.624,-58 264.29,-58 264.29,-58 341.71,-58 341.71,-58 345.376,-58 349.043,-61.6667 349.043,-65.3333 349.043,-65.3333 349.043,-72.6667 349.043,-72.6667 349.043,-76.3333 345.376,-80 341.71,-80"/>
<text text-anchor="middle" x="303" y="-65.4" font-family="Helvetica,sans-Serif" font-size="12.00" fill="white">DebugPrintable</text>
</a>
</g>
</g>
<!-- DebugPrintable&#45;&gt;Set&lt;T : Hashable&gt; -->
<g id="edge5" class="edge"><title>DebugPrintable&#45;&gt;Set&lt;T : Hashable&gt;</title>
<path fill="none" stroke="#cccccc" d="M311.403,-57.9883C317.872,-50.2806 326.988,-39.4191 334.736,-30.187"/>
<polygon fill="#cccccc" stroke="#cccccc" points="337.604,-32.2137 341.352,-22.3039 332.242,-27.7136 337.604,-32.2137"/>
</g>
<!-- Equatable -->
<g id="node4" class="node"><title>Equatable</title>
<g id="a_node4"><a xlink:href="/protocol/Equatable/" xlink:title="Equatable">
<path fill="#999999" stroke="#999999" d="M422.702,-138C422.702,-138 373.298,-138 373.298,-138 369.632,-138 365.965,-134.333 365.965,-130.667 365.965,-130.667 365.965,-123.333 365.965,-123.333 365.965,-119.667 369.632,-116 373.298,-116 373.298,-116 422.702,-116 422.702,-116 426.368,-116 430.035,-119.667 430.035,-123.333 430.035,-123.333 430.035,-130.667 430.035,-130.667 430.035,-134.333 426.368,-138 422.702,-138"/>
<text text-anchor="middle" x="398" y="-123.4" font-family="Helvetica,sans-Serif" font-size="12.00" fill="white">Equatable</text>
</a>
</g>
</g>
<!-- Hashable -->
<g id="node5" class="node"><title>Hashable</title>
<g id="a_node5"><a xlink:href="/protocol/Hashable/" xlink:title="Hashable">
<path fill="#999999" stroke="#999999" d="M420.694,-80C420.694,-80 375.306,-80 375.306,-80 371.639,-80 367.973,-76.3333 367.973,-72.6667 367.973,-72.6667 367.973,-65.3333 367.973,-65.3333 367.973,-61.6667 371.639,-58 375.306,-58 375.306,-58 420.694,-58 420.694,-58 424.361,-58 428.027,-61.6667 428.027,-65.3333 428.027,-65.3333 428.027,-72.6667 428.027,-72.6667 428.027,-76.3333 424.361,-80 420.694,-80"/>
<text text-anchor="middle" x="398" y="-65.4" font-family="Helvetica,sans-Serif" font-size="12.00" fill="white">Hashable</text>
</a>
</g>
</g>
<!-- Equatable&#45;&gt;Hashable -->
<g id="edge7" class="edge"><title>Equatable&#45;&gt;Hashable</title>
<path fill="none" stroke="#cccccc" d="M398,-115.988C398,-108.91 398,-99.1714 398,-90.4779"/>
<polygon fill="#cccccc" stroke="#cccccc" points="401.5,-90.3038 398,-80.3039 394.5,-90.3039 401.5,-90.3038"/>
</g>
<!-- Hashable&#45;&gt;Set&lt;T : Hashable&gt; -->
<g id="edge1" class="edge"><title>Hashable&#45;&gt;Set&lt;T : Hashable&gt;</title>
<path fill="none" stroke="#cccccc" d="M389.419,-57.9883C382.745,-50.2019 373.312,-39.1971 365.347,-29.9049"/>
<polygon fill="#cccccc" stroke="#cccccc" points="367.997,-27.6187 358.832,-22.3039 362.682,-32.1742 367.997,-27.6187"/>
</g>
<!-- Printable -->
<g id="node6" class="node"><title>Printable</title>
<g id="a_node6"><a xlink:href="/protocol/Printable/" xlink:title="Printable">
<path fill="#999999" stroke="#999999" d="M496.187,-80C496.187,-80 453.813,-80 453.813,-80 450.147,-80 446.48,-76.3333 446.48,-72.6667 446.48,-72.6667 446.48,-65.3333 446.48,-65.3333 446.48,-61.6667 450.147,-58 453.813,-58 453.813,-58 496.187,-58 496.187,-58 499.853,-58 503.52,-61.6667 503.52,-65.3333 503.52,-65.3333 503.52,-72.6667 503.52,-72.6667 503.52,-76.3333 499.853,-80 496.187,-80"/>
<text text-anchor="middle" x="475" y="-65.4" font-family="Helvetica,sans-Serif" font-size="12.00" fill="white">Printable</text>
</a>
</g>
</g>
<!-- Printable&#45;&gt;Set&lt;T : Hashable&gt; -->
<g id="edge4" class="edge"><title>Printable&#45;&gt;Set&lt;T : Hashable&gt;</title>
<path fill="none" stroke="#cccccc" d="M452.653,-57.9883C432.955,-49.164 404.031,-36.206 381.902,-26.2919"/>
<polygon fill="#cccccc" stroke="#cccccc" points="383.132,-23.0082 372.575,-22.1138 380.271,-29.3964 383.132,-23.0082"/>
</g>
<!-- Reflectable -->
<g id="node7" class="node"><title>Reflectable</title>
<g id="a_node7"><a xlink:href="/protocol/Reflectable/" xlink:title="Reflectable">
<path fill="#999999" stroke="#999999" d="M584.693,-80C584.693,-80 529.307,-80 529.307,-80 525.64,-80 521.974,-76.3333 521.974,-72.6667 521.974,-72.6667 521.974,-65.3333 521.974,-65.3333 521.974,-61.6667 525.64,-58 529.307,-58 529.307,-58 584.693,-58 584.693,-58 588.36,-58 592.026,-61.6667 592.026,-65.3333 592.026,-65.3333 592.026,-72.6667 592.026,-72.6667 592.026,-76.3333 588.36,-80 584.693,-80"/>
<text text-anchor="middle" x="557" y="-65.4" font-family="Helvetica,sans-Serif" font-size="12.00" fill="white">Reflectable</text>
</a>
</g>
</g>
<!-- Reflectable&#45;&gt;Set&lt;T : Hashable&gt; -->
<g id="edge6" class="edge"><title>Reflectable&#45;&gt;Set&lt;T : Hashable&gt;</title>
<path fill="none" stroke="#cccccc" d="M521.885,-58.5004C487.472,-49.1906 434.803,-34.9419 396.838,-24.6711"/>
<polygon fill="#cccccc" stroke="#cccccc" points="397.602,-21.2522 387.035,-22.0192 395.774,-28.0093 397.602,-21.2522"/>
</g>
<!-- SequenceType -->
<g id="node8" class="node"><title>SequenceType</title>
<g id="a_node8"><a xlink:href="/protocol/SequenceType/" xlink:title="SequenceType">
<path fill="#999999" stroke="#999999" d="M320.718,-138C320.718,-138 245.282,-138 245.282,-138 241.615,-138 237.949,-134.333 237.949,-130.667 237.949,-130.667 237.949,-123.333 237.949,-123.333 237.949,-119.667 241.615,-116 245.282,-116 245.282,-116 320.718,-116 320.718,-116 324.385,-116 328.051,-119.667 328.051,-123.333 328.051,-123.333 328.051,-130.667 328.051,-130.667 328.051,-134.333 324.385,-138 320.718,-138"/>
<text text-anchor="middle" x="283" y="-123.4" font-family="Helvetica,sans-Serif" font-size="12.00" fill="white">SequenceType</text>
</a>
</g>
</g>
<!-- SequenceType&#45;&gt;CollectionType -->
<g id="edge9" class="edge"><title>SequenceType&#45;&gt;CollectionType</title>
<path fill="none" stroke="#cccccc" d="M267.089,-115.988C253.63,-107.52 234.122,-95.2452 218.645,-85.5067"/>
<polygon fill="#cccccc" stroke="#cccccc" points="220.402,-82.4771 210.074,-80.1138 216.674,-88.4018 220.402,-82.4771"/>
</g>
<!-- _CollectionType -->
<g id="node10" class="node"><title>_CollectionType</title>
<g id="a_node10"><a xlink:href="/protocol/_CollectionType/" xlink:title="_CollectionType">
<path fill="#999999" stroke="#999999" d="M218.208,-196C218.208,-196 137.792,-196 137.792,-196 134.126,-196 130.459,-192.333 130.459,-188.667 130.459,-188.667 130.459,-181.333 130.459,-181.333 130.459,-177.667 134.126,-174 137.792,-174 137.792,-174 218.208,-174 218.208,-174 221.874,-174 225.541,-177.667 225.541,-181.333 225.541,-181.333 225.541,-188.667 225.541,-188.667 225.541,-192.333 221.874,-196 218.208,-196"/>
<text text-anchor="middle" x="178" y="-181.4" font-family="Helvetica,sans-Serif" font-size="12.00" fill="white">_CollectionType</text>
</a>
</g>
</g>
<!-- _CollectionType&#45;&gt;CollectionType -->
<g id="edge8" class="edge"><title>_CollectionType&#45;&gt;CollectionType</title>
<path fill="none" stroke="#cccccc" d="M179.42,-173.883C182.046,-155.17 187.709,-114.827 191.153,-90.2866"/>
<polygon fill="#cccccc" stroke="#cccccc" points="194.636,-90.6474 192.56,-80.2579 187.704,-89.6744 194.636,-90.6474"/>
</g>
<!-- _SequenceType -->
<g id="node11" class="node"><title>_SequenceType</title>
<g id="a_node11"><a xlink:href="/protocol/_SequenceType/" xlink:title="_SequenceType">
<path fill="#999999" stroke="#999999" d="M276.724,-254C276.724,-254 195.276,-254 195.276,-254 191.609,-254 187.943,-250.333 187.943,-246.667 187.943,-246.667 187.943,-239.333 187.943,-239.333 187.943,-235.667 191.609,-232 195.276,-232 195.276,-232 276.724,-232 276.724,-232 280.391,-232 284.057,-235.667 284.057,-239.333 284.057,-239.333 284.057,-246.667 284.057,-246.667 284.057,-250.333 280.391,-254 276.724,-254"/>
<text text-anchor="middle" x="236" y="-239.4" font-family="Helvetica,sans-Serif" font-size="12.00" fill="white">_SequenceType</text>
</a>
</g>
</g>
<!-- _SequenceType&#45;&gt;_CollectionType -->
<g id="edge10" class="edge"><title>_SequenceType&#45;&gt;_CollectionType</title>
<path fill="none" stroke="#cccccc" d="M225.631,-231.988C217.403,-224.045 205.707,-212.751 195.963,-203.344"/>
<polygon fill="#cccccc" stroke="#cccccc" points="198.297,-200.732 188.672,-196.304 193.435,-205.768 198.297,-200.732"/>
</g>
<!-- _Sequence_Type -->
<g id="node12" class="node"><title>_Sequence_Type</title>
<g id="a_node12"><a xlink:href="/protocol/_Sequence_Type/" xlink:title="_Sequence_Type">
<path fill="#999999" stroke="#999999" d="M339.228,-196C339.228,-196 250.772,-196 250.772,-196 247.105,-196 243.439,-192.333 243.439,-188.667 243.439,-188.667 243.439,-181.333 243.439,-181.333 243.439,-177.667 247.105,-174 250.772,-174 250.772,-174 339.228,-174 339.228,-174 342.895,-174 346.561,-177.667 346.561,-181.333 346.561,-181.333 346.561,-188.667 346.561,-188.667 346.561,-192.333 342.895,-196 339.228,-196"/>
<text text-anchor="middle" x="295" y="-181.4" font-family="Helvetica,sans-Serif" font-size="12.00" fill="white">_Sequence_Type</text>
</a>
</g>
</g>
<!-- _SequenceType&#45;&gt;_Sequence_Type -->
<g id="edge12" class="edge"><title>_SequenceType&#45;&gt;_Sequence_Type</title>
<path fill="none" stroke="#cccccc" d="M246.548,-231.988C254.917,-224.045 266.816,-212.751 276.727,-203.344"/>
<polygon fill="#cccccc" stroke="#cccccc" points="279.301,-205.727 284.144,-196.304 274.482,-200.65 279.301,-205.727"/>
</g>
<!-- _Sequence_Type&#45;&gt;SequenceType -->
<g id="edge11" class="edge"><title>_Sequence_Type&#45;&gt;SequenceType</title>
<path fill="none" stroke="#cccccc" d="M292.855,-173.988C291.321,-166.831 289.205,-156.955 287.326,-148.189"/>
<polygon fill="#cccccc" stroke="#cccccc" points="290.726,-147.349 285.208,-138.304 283.881,-148.815 290.726,-147.349"/>
</g>
</g>
</svg>
