<?xml version="1.0" encoding="UTF-8" standalone="no"?>
<!DOCTYPE svg PUBLIC "-//W3C//DTD SVG 1.1//EN"
 "http://www.w3.org/Graphics/SVG/1.1/DTD/svg11.dtd">
<!-- Generated by graphviz version 2.36.0 (20140111.2315)
 -->
<!-- Title: Equatable &#45; Type Hierarchy &#45; Swifter Pages: 1 -->
<svg width="4424pt" height="601pt"
 viewBox="0.00 0.00 4424.40 601.20" xmlns="http://www.w3.org/2000/svg" xmlns:xlink="http://www.w3.org/1999/xlink">
<g id="graph0" class="graph" transform="scale(1 1) rotate(0) translate(7.2 543.6)">
<g transform="translate(0 -543.6)">
<g>
    <path fill="#666666" d="M13.846,10.832c-0.336-0.464-0.792-0.844-1.368-1.14s-1.224-0.444-1.944-0.444
        c-0.384,0-0.772,0.052-1.164,0.156C8.977,9.509,8.622,9.677,8.301,9.908c-0.32,0.232-0.58,0.52-0.78,0.864
        c-0.2,0.344-0.3,0.756-0.3,1.236c0,0.464,0.092,0.852,0.276,1.164c0.184,0.312,0.432,0.576,0.744,0.792s0.68,0.4,1.104,0.552
        c0.423,0.152,0.876,0.309,1.356,0.468c0.576,0.177,1.16,0.376,1.752,0.601c0.592,0.224,1.128,0.52,1.608,0.888
        s0.872,0.828,1.176,1.38s0.456,1.252,0.456,2.101c0,0.88-0.164,1.644-0.492,2.292c-0.328,0.647-0.765,1.184-1.308,1.607
        c-0.544,0.424-1.172,0.74-1.884,0.948s-1.444,0.312-2.196,0.312c-1.072,0-2.108-0.208-3.108-0.624
        c-1-0.415-1.828-1.031-2.484-1.848l1.848-1.56c0.4,0.592,0.936,1.071,1.608,1.439c0.672,0.368,1.399,0.552,2.184,0.552
        c0.4,0,0.8-0.056,1.2-0.168c0.4-0.111,0.764-0.288,1.092-0.527c0.328-0.24,0.596-0.54,0.804-0.9
        c0.208-0.36,0.312-0.796,0.312-1.308s-0.108-0.94-0.324-1.284c-0.216-0.344-0.508-0.636-0.876-0.876s-0.796-0.444-1.284-0.612
        c-0.488-0.168-1.004-0.34-1.548-0.516c-0.544-0.16-1.08-0.356-1.608-0.588c-0.528-0.232-1-0.528-1.416-0.889
        c-0.416-0.359-0.752-0.804-1.008-1.332c-0.256-0.527-0.384-1.184-0.384-1.968c0-0.848,0.172-1.576,0.516-2.184
        c0.344-0.608,0.792-1.112,1.344-1.512c0.552-0.4,1.176-0.692,1.872-0.876c0.696-0.184,1.396-0.276,2.1-0.276
        c0.992,0,1.92,0.176,2.784,0.528c0.864,0.352,1.56,0.824,2.088,1.416L13.846,10.832z"/>
    <path fill="#666666" d="M18.813,13.304l2.568,8.688h0.048l2.712-8.688h2.376l2.76,8.688h0.048l2.568-8.688h2.376L30.501,24.68
        h-2.352l-2.808-8.544h-0.048l-2.784,8.544h-2.352l-3.792-11.376H18.813z"/>
    <path fill="#666666" d="M38.685,9.2c0,0.416-0.147,0.76-0.44,1.032c-0.294,0.272-0.647,0.408-1.06,0.408s-0.762-0.14-1.047-0.42
        c-0.286-0.28-0.429-0.62-0.429-1.02c0-0.416,0.143-0.764,0.429-1.044c0.286-0.28,0.635-0.42,1.047-0.42s0.766,0.14,1.06,0.42
        C38.538,8.437,38.685,8.784,38.685,9.2z M38.325,24.68h-2.256V13.304h2.256V24.68z"/>
    <path fill="#666666" d="M47.613,15.152h-2.64v9.528h-2.256v-9.528h-2.256v-1.848h2.256v-2.376c0-0.672,0.076-1.292,0.228-1.86
        c0.152-0.568,0.4-1.06,0.744-1.476c0.344-0.416,0.784-0.744,1.32-0.984c0.536-0.24,1.188-0.36,1.956-0.36
        c0.544,0,1.016,0.056,1.416,0.168l-0.264,1.944c-0.176-0.048-0.352-0.088-0.528-0.12c-0.176-0.032-0.376-0.048-0.6-0.048
        c-0.432,0-0.78,0.076-1.044,0.228c-0.264,0.152-0.468,0.356-0.612,0.612s-0.24,0.548-0.288,0.876
        c-0.048,0.328-0.072,0.668-0.072,1.02v2.376h2.64V15.152z"/>
    <path fill="#666666" d="M54.909,15.152h-3.024v5.91c0,0.687,0.128,1.177,0.384,1.472c0.256,0.295,0.664,0.442,1.224,0.442
        c0.208,0,0.432-0.021,0.672-0.065c0.24-0.044,0.456-0.11,0.648-0.198l0.072,1.848c-0.272,0.096-0.572,0.172-0.9,0.229
        c-0.328,0.056-0.668,0.084-1.02,0.084c-1.072,0-1.892-0.296-2.46-0.889c-0.568-0.592-0.852-1.479-0.852-2.664v-6.168h-2.184
        v-1.848h2.184V10.04h2.232v3.264h3.024V15.152z"/>
    <path fill="#666666" d="M57.356,7.688h5.832c1.088,0,2.176,0.16,3.264,0.48c1.088,0.32,2.072,0.824,2.952,1.512
        s1.592,1.568,2.136,2.64c0.544,1.072,0.816,2.36,0.816,3.864c0,1.456-0.272,2.716-0.816,3.78s-1.256,1.943-2.136,2.64
        s-1.864,1.216-2.952,1.561c-1.088,0.344-2.176,0.516-3.264,0.516h-5.832V7.688z M59.732,22.593h2.976
        c1.024,0,1.972-0.145,2.844-0.432c0.872-0.288,1.624-0.704,2.256-1.248c0.632-0.544,1.124-1.216,1.476-2.017
        c0.352-0.8,0.528-1.704,0.528-2.712c0-1.056-0.176-1.983-0.528-2.784c-0.353-0.8-0.844-1.468-1.476-2.004
        c-0.632-0.536-1.384-0.944-2.256-1.224s-1.82-0.42-2.844-0.42h-2.976V22.593z"/>
    <path fill="#666666" d="M86.06,18.969c0,0.88-0.156,1.688-0.468,2.424c-0.312,0.736-0.744,1.372-1.296,1.908
        c-0.552,0.536-1.204,0.952-1.956,1.248c-0.752,0.296-1.56,0.443-2.424,0.443c-0.864,0-1.672-0.147-2.424-0.443
        c-0.752-0.296-1.4-0.712-1.944-1.248c-0.544-0.536-0.972-1.172-1.284-1.908c-0.312-0.735-0.468-1.544-0.468-2.424
        s0.156-1.684,0.468-2.412c0.312-0.728,0.74-1.356,1.284-1.884c0.543-0.528,1.191-0.939,1.944-1.236
        c0.752-0.296,1.56-0.444,2.424-0.444c0.864,0,1.672,0.148,2.424,0.444c0.752,0.297,1.404,0.708,1.956,1.236
        c0.552,0.527,0.984,1.156,1.296,1.884C85.904,17.285,86.06,18.089,86.06,18.969z M83.708,18.98c0-0.542-0.084-1.061-0.252-1.556
        c-0.169-0.494-0.414-0.929-0.734-1.304s-0.718-0.674-1.192-0.897s-1.015-0.335-1.625-0.335c-0.61,0-1.152,0.111-1.625,0.335
        c-0.474,0.224-0.871,0.522-1.191,0.897c-0.321,0.375-0.566,0.81-0.734,1.304C76.184,17.92,76.1,18.438,76.1,18.98
        c0,0.543,0.084,1.062,0.253,1.556c0.168,0.495,0.413,0.934,0.734,1.316c0.321,0.383,0.718,0.686,1.191,0.909
        c0.473,0.224,1.015,0.335,1.625,0.335c0.61,0,1.151-0.111,1.625-0.335s0.871-0.526,1.192-0.909s0.565-0.821,0.734-1.316
        C83.624,20.042,83.708,19.523,83.708,18.98z"/>
    <path fill="#666666" d="M96.428,16.184c-0.24-0.368-0.6-0.676-1.08-0.924s-0.992-0.372-1.536-0.372
        c-0.592,0-1.116,0.112-1.572,0.336c-0.456,0.225-0.844,0.524-1.164,0.9c-0.32,0.376-0.564,0.812-0.732,1.308
        s-0.252,1.017-0.252,1.56c0,0.545,0.084,1.064,0.252,1.561s0.412,0.933,0.732,1.308c0.32,0.376,0.712,0.677,1.176,0.9
        c0.464,0.225,0.992,0.336,1.584,0.336c0.576,0,1.1-0.111,1.572-0.336c0.472-0.224,0.86-0.528,1.164-0.912l1.512,1.368
        c-0.48,0.561-1.08,0.996-1.8,1.308c-0.72,0.312-1.536,0.468-2.448,0.468c-0.88,0-1.692-0.144-2.436-0.432
        c-0.744-0.288-1.388-0.691-1.932-1.212c-0.544-0.52-0.972-1.147-1.284-1.884s-0.468-1.561-0.468-2.473
        c0-0.896,0.152-1.711,0.456-2.447c0.304-0.736,0.728-1.368,1.272-1.896c0.543-0.527,1.188-0.936,1.932-1.224
        c0.744-0.288,1.548-0.433,2.412-0.433c0.8,0,1.596,0.16,2.388,0.48s1.419,0.784,1.884,1.392L96.428,16.184z"/>
    <path fill="#666666" d="M103.1,23.24c0,0.417-0.152,0.784-0.456,1.104c-0.304,0.32-0.688,0.479-1.152,0.479
        c-0.448,0-0.828-0.155-1.14-0.468c-0.312-0.312-0.468-0.676-0.468-1.092c0-0.432,0.152-0.804,0.456-1.116
        c0.304-0.312,0.688-0.468,1.152-0.468c0.464,0,0.848,0.152,1.152,0.456C102.947,22.44,103.1,22.808,103.1,23.24z"/>
    <path fill="#666666" d="M116.635,18.969c0,0.88-0.156,1.688-0.468,2.424c-0.312,0.736-0.744,1.372-1.296,1.908
        c-0.552,0.536-1.204,0.952-1.956,1.248c-0.752,0.296-1.56,0.443-2.424,0.443c-0.864,0-1.672-0.147-2.424-0.443
        c-0.752-0.296-1.4-0.712-1.944-1.248c-0.544-0.536-0.972-1.172-1.284-1.908c-0.312-0.735-0.468-1.544-0.468-2.424
        s0.156-1.684,0.468-2.412c0.312-0.728,0.74-1.356,1.284-1.884c0.543-0.528,1.191-0.939,1.944-1.236
        c0.752-0.296,1.56-0.444,2.424-0.444c0.864,0,1.672,0.148,2.424,0.444c0.752,0.297,1.404,0.708,1.956,1.236
        c0.552,0.527,0.984,1.156,1.296,1.884C116.479,17.285,116.635,18.089,116.635,18.969z M114.283,18.98
        c0-0.542-0.084-1.061-0.252-1.556c-0.169-0.494-0.414-0.929-0.734-1.304s-0.718-0.674-1.192-0.897s-1.015-0.335-1.625-0.335
        c-0.61,0-1.152,0.111-1.625,0.335c-0.474,0.224-0.871,0.522-1.191,0.897c-0.321,0.375-0.566,0.81-0.734,1.304
        c-0.169,0.495-0.253,1.014-0.253,1.556c0,0.543,0.084,1.062,0.253,1.556c0.168,0.495,0.413,0.934,0.734,1.316
        c0.321,0.383,0.718,0.686,1.191,0.909c0.473,0.224,1.015,0.335,1.625,0.335c0.61,0,1.151-0.111,1.625-0.335
        s0.871-0.526,1.192-0.909s0.565-0.821,0.734-1.316C114.199,20.042,114.283,19.523,114.283,18.98z"/>
    <path fill="#666666" d="M119.251,14.577c-0.016-0.48-0.04-0.904-0.072-1.272h2.136c0.032,0.288,0.056,0.62,0.072,0.996
        c0.016,0.376,0.024,0.684,0.024,0.924h0.072c0.32-0.672,0.788-1.212,1.404-1.62c0.616-0.408,1.308-0.612,2.076-0.612
        c0.352,0,0.648,0.033,0.888,0.097l-0.096,2.088c-0.32-0.08-0.664-0.12-1.032-0.12c-0.544,0-1.016,0.101-1.416,0.3
        c-0.4,0.2-0.732,0.468-0.996,0.805c-0.264,0.336-0.46,0.724-0.588,1.163c-0.128,0.44-0.192,0.9-0.192,1.381v5.976h-2.256v-8.928
        C119.275,15.449,119.267,15.056,119.251,14.577z"/>
    <path fill="#666666" d="M128.419,26.625c0.496,0.56,1.116,1.008,1.86,1.344c0.744,0.336,1.508,0.504,2.292,0.504
        c0.752,0,1.384-0.108,1.896-0.324s0.924-0.512,1.236-0.888s0.536-0.82,0.672-1.332c0.136-0.513,0.204-1.064,0.204-1.656v-1.464
        h-0.048c-0.416,0.641-0.984,1.128-1.704,1.464c-0.72,0.336-1.488,0.504-2.304,0.504c-0.864,0-1.652-0.151-2.364-0.456
        c-0.712-0.304-1.316-0.72-1.812-1.248c-0.496-0.527-0.88-1.147-1.152-1.859s-0.408-1.477-0.408-2.292
        c0-0.816,0.136-1.584,0.408-2.305c0.272-0.72,0.656-1.348,1.152-1.884c0.496-0.535,1.096-0.96,1.8-1.271
        c0.704-0.312,1.488-0.469,2.352-0.469c0.816,0,1.596,0.177,2.34,0.528c0.744,0.353,1.332,0.888,1.764,1.608h0.048v-1.824h2.184
        v10.8c0,0.832-0.104,1.628-0.312,2.388c-0.208,0.76-0.56,1.433-1.056,2.017s-1.144,1.052-1.944,1.404
        c-0.8,0.352-1.792,0.527-2.976,0.527c-0.992,0-1.988-0.18-2.988-0.54c-1-0.359-1.86-0.868-2.58-1.523L128.419,26.625z
         M129.091,18.873c0,0.527,0.084,1.031,0.253,1.512c0.168,0.479,0.417,0.904,0.746,1.271c0.329,0.369,0.726,0.664,1.192,0.889
        c0.465,0.224,0.995,0.336,1.589,0.336c0.577,0,1.107-0.104,1.589-0.312c0.481-0.207,0.891-0.491,1.228-0.852
        s0.598-0.784,0.782-1.272c0.185-0.487,0.277-1.012,0.277-1.571c0-0.544-0.093-1.057-0.277-1.536
        c-0.185-0.48-0.449-0.904-0.794-1.272c-0.345-0.367-0.755-0.66-1.228-0.876c-0.474-0.216-1-0.324-1.577-0.324
        c-0.594,0-1.124,0.108-1.589,0.324c-0.466,0.216-0.863,0.504-1.192,0.864s-0.578,0.784-0.746,1.271
        C129.175,17.812,129.091,18.329,129.091,18.873z"/>
</g>
<g><a xlink:href="/" pointer-events="all" target="_top"><polygon fill="none" points="0,0 145,0 145,35 0,35 0,0"/></a></g>

</g>


<!-- AbsoluteValuable -->
<g id="node1" class="node">
<g id="a_node1"><a xlink:href="/protocol/AbsoluteValuable/" target="_top">
<path fill="#999999" stroke="#999999" d="M1149.56,-138C1149.56,-138 1062.44,-138 1062.44,-138 1058.78,-138 1055.11,-134.333 1055.11,-130.667 1055.11,-130.667 1055.11,-123.333 1055.11,-123.333 1055.11,-119.667 1058.78,-116 1062.44,-116 1062.44,-116 1149.56,-116 1149.56,-116 1153.22,-116 1156.89,-119.667 1156.89,-123.333 1156.89,-123.333 1156.89,-130.667 1156.89,-130.667 1156.89,-134.333 1153.22,-138 1149.56,-138"/>
<text text-anchor="middle" x="1106" y="-123.4" font-family="Helvetica,sans-Serif" font-size="12.00" fill="white">AbsoluteValuable</text>
</a>
</g>
</g>
<!-- Double -->
<g id="node12" class="node">
<g id="a_node12"><a xlink:href="/type/Double/" target="_top">
<polygon fill="#999999" stroke="#999999" points="989,-22 935,-22 935,-0 989,-0 989,-22"/>
<text text-anchor="middle" x="962" y="-7.4" font-family="Helvetica,sans-Serif" font-size="12.00" fill="white">Double</text>
</a>
</g>
</g>
<!-- AbsoluteValuable&#45;&gt;Double -->
<g id="edge79" class="edge">
<path fill="none" stroke="#cccccc" d="M1071.36,-115.843C1050.42,-108.423 1024.17,-96.7158 1005,-80 989.604,-66.5739 977.765,-46.2949 970.444,-31.3749"/>
<polygon fill="#cccccc" stroke="#cccccc" points="973.499,-29.644 966.109,-22.0519 967.152,-32.5953 973.499,-29.644"/>
</g>
<!-- Float -->
<g id="node15" class="node">
<g id="a_node15"><a xlink:href="/type/Float/" target="_top">
<polygon fill="#999999" stroke="#999999" points="1213,-22 1159,-22 1159,-0 1213,-0 1213,-22"/>
<text text-anchor="middle" x="1186" y="-7.4" font-family="Helvetica,sans-Serif" font-size="12.00" fill="white">Float</text>
</a>
</g>
</g>
<!-- AbsoluteValuable&#45;&gt;Float -->
<g id="edge80" class="edge">
<path fill="none" stroke="#cccccc" d="M1113.1,-115.883C1126.53,-96.7488 1155.83,-54.9984 1172.91,-30.6529"/>
<polygon fill="#cccccc" stroke="#cccccc" points="1175.92,-32.454 1178.8,-22.2579 1170.19,-28.433 1175.92,-32.454"/>
</g>
<!-- Float80 -->
<g id="node16" class="node">
<g id="a_node16"><a xlink:href="/type/Float80/" target="_top">
<polygon fill="#999999" stroke="#999999" points="781,-22 727,-22 727,-0 781,-0 781,-22"/>
<text text-anchor="middle" x="754" y="-7.4" font-family="Helvetica,sans-Serif" font-size="12.00" fill="white">Float80</text>
</a>
</g>
</g>
<!-- AbsoluteValuable&#45;&gt;Float80 -->
<g id="edge81" class="edge">
<path fill="none" stroke="#cccccc" d="M1075.07,-115.983C1010.31,-95.0101 860.698,-46.5556 790.99,-23.9797"/>
<polygon fill="#cccccc" stroke="#cccccc" points="791.896,-20.5944 781.305,-20.843 789.74,-27.2538 791.896,-20.5944"/>
</g>
<!-- AutoreleasingUnsafeMutablePointer -->
<g id="node2" class="node">
<g id="a_node2"><a xlink:href="/type/AutoreleasingUnsafeMutablePointer/" target="_top">
<polygon fill="#999999" stroke="#999999" points="202.088,-22 -0.0879076,-22 -0.0879076,-0 202.088,-0 202.088,-22"/>
<text text-anchor="middle" x="101" y="-7.4" font-family="Helvetica,sans-Serif" font-size="12.00" fill="white">AutoreleasingUnsafeMutablePointer</text>
</a>
</g>
</g>
<!-- BidirectionalIndexType -->
<g id="node3" class="node">
<g id="a_node3"><a xlink:href="/protocol/BidirectionalIndexType/" target="_top">
<path fill="#999999" stroke="#999999" d="M3122.73,-254C3122.73,-254 3007.27,-254 3007.27,-254 3003.61,-254 2999.94,-250.333 2999.94,-246.667 2999.94,-246.667 2999.94,-239.333 2999.94,-239.333 2999.94,-235.667 3003.61,-232 3007.27,-232 3007.27,-232 3122.73,-232 3122.73,-232 3126.39,-232 3130.06,-235.667 3130.06,-239.333 3130.06,-239.333 3130.06,-246.667 3130.06,-246.667 3130.06,-250.333 3126.39,-254 3122.73,-254"/>
<text text-anchor="middle" x="3065" y="-239.4" font-family="Helvetica,sans-Serif" font-size="12.00" fill="white">BidirectionalIndexType</text>
</a>
</g>
</g>
<!-- DictionaryIndex -->
<g id="node11" class="node">
<g id="a_node11"><a xlink:href="/type/DictionaryIndex/" target="_top">
<polygon fill="#999999" stroke="#999999" points="2914.03,-22 2821.97,-22 2821.97,-0 2914.03,-0 2914.03,-22"/>
<text text-anchor="middle" x="2868" y="-7.4" font-family="Helvetica,sans-Serif" font-size="12.00" fill="white">DictionaryIndex</text>
</a>
</g>
</g>
<!-- BidirectionalIndexType&#45;&gt;DictionaryIndex -->
<g id="edge112" class="edge">
<path fill="none" stroke="#cccccc" d="M3056.28,-231.82C3025.58,-195.973 2922.21,-75.2938 2883.13,-29.6701"/>
<polygon fill="#cccccc" stroke="#cccccc" points="2885.78,-27.3801 2876.62,-22.062 2880.47,-31.9338 2885.78,-27.3801"/>
</g>
<!-- RandomAccessIndexType -->
<g id="node31" class="node">
<g id="a_node31"><a xlink:href="/protocol/RandomAccessIndexType/" target="_top">
<path fill="#999999" stroke="#999999" d="M2503.23,-196C2503.23,-196 2368.77,-196 2368.77,-196 2365.11,-196 2361.44,-192.333 2361.44,-188.667 2361.44,-188.667 2361.44,-181.333 2361.44,-181.333 2361.44,-177.667 2365.11,-174 2368.77,-174 2368.77,-174 2503.23,-174 2503.23,-174 2506.89,-174 2510.56,-177.667 2510.56,-181.333 2510.56,-181.333 2510.56,-188.667 2510.56,-188.667 2510.56,-192.333 2506.89,-196 2503.23,-196"/>
<text text-anchor="middle" x="2436" y="-181.4" font-family="Helvetica,sans-Serif" font-size="12.00" fill="white">RandomAccessIndexType</text>
</a>
</g>
</g>
<!-- BidirectionalIndexType&#45;&gt;RandomAccessIndexType -->
<g id="edge113" class="edge">
<path fill="none" stroke="#cccccc" d="M2999.76,-236.192C2885.17,-225.99 2647.87,-204.863 2520.75,-193.546"/>
<polygon fill="#cccccc" stroke="#cccccc" points="2520.95,-190.049 2510.67,-192.648 2520.32,-197.021 2520.95,-190.049"/>
</g>
<!-- ReverseBidirectionalIndex -->
<g id="node34" class="node">
<g id="a_node34"><a xlink:href="/type/ReverseBidirectionalIndex/" target="_top">
<polygon fill="#999999" stroke="#999999" points="3173.55,-22 3024.45,-22 3024.45,-0 3173.55,-0 3173.55,-22"/>
<text text-anchor="middle" x="3099" y="-7.4" font-family="Helvetica,sans-Serif" font-size="12.00" fill="white">ReverseBidirectionalIndex</text>
</a>
</g>
</g>
<!-- BidirectionalIndexType&#45;&gt;ReverseBidirectionalIndex -->
<g id="edge114" class="edge">
<path fill="none" stroke="#cccccc" d="M3066.5,-231.82C3071.72,-196.568 3089.05,-79.2764 3096.04,-32.0032"/>
<polygon fill="#cccccc" stroke="#cccccc" points="3099.51,-32.4664 3097.51,-22.062 3092.59,-31.4427 3099.51,-32.4664"/>
</g>
<!-- String.Index -->
<g id="node40" class="node">
<g id="a_node40"><a xlink:href="/type/String.Index/" target="_top">
<polygon fill="#999999" stroke="#999999" points="3006.03,-22 2931.97,-22 2931.97,-0 3006.03,-0 3006.03,-22"/>
<text text-anchor="middle" x="2969" y="-7.4" font-family="Helvetica,sans-Serif" font-size="12.00" fill="white">String.Index</text>
</a>
</g>
</g>
<!-- BidirectionalIndexType&#45;&gt;String.Index -->
<g id="edge115" class="edge">
<path fill="none" stroke="#cccccc" d="M3061.77,-231.725C3054.85,-210.046 3037.8,-158.157 3020,-116 3007.23,-85.7499 2990,-51.7796 2979.2,-31.1407"/>
<polygon fill="#cccccc" stroke="#cccccc" points="2982.22,-29.3666 2974.46,-22.1545 2976.03,-32.6324 2982.22,-29.3666"/>
</g>
<!-- String.UnicodeScalarView.Index -->
<g id="node42" class="node">
<g id="a_node42"><a xlink:href="/type/String.UnicodeScalarView.Index/" target="_top">
<polygon fill="#999999" stroke="#999999" points="3371.92,-22 3192.08,-22 3192.08,-0 3371.92,-0 3371.92,-22"/>
<text text-anchor="middle" x="3282" y="-7.4" font-family="Helvetica,sans-Serif" font-size="12.00" fill="white">String.UnicodeScalarView.Index</text>
</a>
</g>
</g>
<!-- BidirectionalIndexType&#45;&gt;String.UnicodeScalarView.Index -->
<g id="edge116" class="edge">
<path fill="none" stroke="#cccccc" d="M3070.14,-231.913C3088.86,-195.344 3153.03,-71.1859 3168,-58 3185.21,-42.8404 3208.07,-32.3018 3228.79,-25.1762"/>
<polygon fill="#cccccc" stroke="#cccccc" points="3230.02,-28.4588 3238.45,-22.0427 3227.86,-21.8006 3230.02,-28.4588"/>
</g>
<!-- Bit -->
<g id="node4" class="node">
<g id="a_node4"><a xlink:href="/type/Bit/" target="_top">
<polygon fill="#999999" stroke="#999999" points="2804,-22 2750,-22 2750,-0 2804,-0 2804,-22"/>
<text text-anchor="middle" x="2777" y="-7.4" font-family="Helvetica,sans-Serif" font-size="12.00" fill="white">Bit</text>
</a>
</g>
</g>
<!-- Bool -->
<g id="node5" class="node">
<g id="a_node5"><a xlink:href="/type/Bool/" target="_top">
<polygon fill="#999999" stroke="#999999" points="512,-22 458,-22 458,-0 512,-0 512,-22"/>
<text text-anchor="middle" x="485" y="-7.4" font-family="Helvetica,sans-Serif" font-size="12.00" fill="white">Bool</text>
</a>
</g>
</g>
<!-- CFunctionPointer -->
<g id="node6" class="node">
<g id="a_node6"><a xlink:href="/type/CFunctionPointer/" target="_top">
<polygon fill="#999999" stroke="#999999" points="322.036,-22 219.964,-22 219.964,-0 322.036,-0 322.036,-22"/>
<text text-anchor="middle" x="271" y="-7.4" font-family="Helvetica,sans-Serif" font-size="12.00" fill="white">CFunctionPointer</text>
</a>
</g>
</g>
<!-- COpaquePointer -->
<g id="node7" class="node">
<g id="a_node7"><a xlink:href="/type/COpaquePointer/" target="_top">
<polygon fill="#999999" stroke="#999999" points="439.542,-22 340.458,-22 340.458,-0 439.542,-0 439.542,-22"/>
<text text-anchor="middle" x="390" y="-7.4" font-family="Helvetica,sans-Serif" font-size="12.00" fill="white">COpaquePointer</text>
</a>
</g>
</g>
<!-- Character -->
<g id="node8" class="node">
<g id="a_node8"><a xlink:href="/type/Character/" target="_top">
<polygon fill="#999999" stroke="#999999" points="592.017,-22 529.983,-22 529.983,-0 592.017,-0 592.017,-22"/>
<text text-anchor="middle" x="561" y="-7.4" font-family="Helvetica,sans-Serif" font-size="12.00" fill="white">Character</text>
</a>
</g>
</g>
<!-- ClosedInterval -->
<g id="node9" class="node">
<g id="a_node9"><a xlink:href="/type/ClosedInterval/" target="_top">
<polygon fill="#999999" stroke="#999999" points="3862.03,-22 3775.97,-22 3775.97,-0 3862.03,-0 3862.03,-22"/>
<text text-anchor="middle" x="3819" y="-7.4" font-family="Helvetica,sans-Serif" font-size="12.00" fill="white">ClosedInterval</text>
</a>
</g>
</g>
<!-- Comparable -->
<g id="node10" class="node">
<g id="a_node10"><a xlink:href="/protocol/Comparable/" target="_top">
<path fill="#999999" stroke="#999999" d="M1677.19,-370C1677.19,-370 1616.81,-370 1616.81,-370 1613.14,-370 1609.48,-366.333 1609.48,-362.667 1609.48,-362.667 1609.48,-355.333 1609.48,-355.333 1609.48,-351.667 1613.14,-348 1616.81,-348 1616.81,-348 1677.19,-348 1677.19,-348 1680.86,-348 1684.52,-351.667 1684.52,-355.333 1684.52,-355.333 1684.52,-362.667 1684.52,-362.667 1684.52,-366.333 1680.86,-370 1677.19,-370"/>
<text text-anchor="middle" x="1647" y="-355.4" font-family="Helvetica,sans-Serif" font-size="12.00" fill="white">Comparable</text>
</a>
</g>
</g>
<!-- Comparable&#45;&gt;Character -->
<g id="edge16" class="edge">
<path fill="none" stroke="#cccccc" d="M1609.41,-358.159C1428.14,-358.694 649.038,-358.266 552,-312 515.619,-294.654 492,-284.305 492,-244 492,-244 492,-244 492,-126 492,-87.0236 521.885,-49.9742 542.319,-29.1965"/>
<polygon fill="#cccccc" stroke="#cccccc" points="544.911,-31.5575 549.606,-22.0599 540.013,-26.5564 544.911,-31.5575"/>
</g>
<!-- Comparable&#45;&gt;DictionaryIndex -->
<g id="edge17" class="edge">
<path fill="none" stroke="#cccccc" d="M1684.6,-356.577C1892.5,-348.465 2892,-306.232 2892,-244 2892,-244 2892,-244 2892,-126 2892,-92.4541 2881.93,-54.5236 2874.83,-31.9712"/>
<polygon fill="#cccccc" stroke="#cccccc" points="2878.08,-30.64 2871.65,-22.222 2871.42,-32.8145 2878.08,-30.64"/>
</g>
<!-- Comparable&#45;&gt;Double -->
<g id="edge18" class="edge">
<path fill="none" stroke="#cccccc" d="M1609.49,-356.966C1485.94,-353.324 1092.6,-339.785 969,-312 888.396,-293.88 796,-326.615 796,-244 796,-244 796,-244 796,-126 796,-87.6823 818.442,-81.1181 849,-58 861.504,-48.5405 897.336,-34.638 925.334,-24.5949"/>
<polygon fill="#cccccc" stroke="#cccccc" points="926.604,-27.8581 934.859,-21.2171 924.265,-21.2606 926.604,-27.8581"/>
</g>
<!-- Comparable&#45;&gt;Float -->
<g id="edge19" class="edge">
<path fill="none" stroke="#cccccc" d="M1609.46,-355.92C1505.94,-349.167 1224,-323.48 1224,-244 1224,-244 1224,-244 1224,-126 1224,-91.2644 1207.93,-53.4893 1196.69,-31.3219"/>
<polygon fill="#cccccc" stroke="#cccccc" points="1199.69,-29.5201 1191.94,-22.3021 1193.5,-32.7812 1199.69,-29.5201"/>
</g>
<!-- Comparable&#45;&gt;Float80 -->
<g id="edge20" class="edge">
<path fill="none" stroke="#cccccc" d="M1609.58,-357.531C1468.6,-355.516 969.698,-346.084 815,-312 735.127,-294.402 644,-325.789 644,-244 644,-244 644,-244 644,-126 644,-80.0663 690.818,-45.5457 723.367,-27.0969"/>
<polygon fill="#cccccc" stroke="#cccccc" points="725.421,-29.9637 732.53,-22.1078 722.074,-23.8159 725.421,-29.9637"/>
</g>
<!-- IntegerArithmeticType -->
<g id="node28" class="node">
<g id="a_node28"><a xlink:href="/protocol/IntegerArithmeticType/" target="_top">
<path fill="#999999" stroke="#999999" d="M2856.71,-254C2856.71,-254 2745.29,-254 2745.29,-254 2741.62,-254 2737.96,-250.333 2737.96,-246.667 2737.96,-246.667 2737.96,-239.333 2737.96,-239.333 2737.96,-235.667 2741.62,-232 2745.29,-232 2745.29,-232 2856.71,-232 2856.71,-232 2860.38,-232 2864.04,-235.667 2864.04,-239.333 2864.04,-239.333 2864.04,-246.667 2864.04,-246.667 2864.04,-250.333 2860.38,-254 2856.71,-254"/>
<text text-anchor="middle" x="2801" y="-239.4" font-family="Helvetica,sans-Serif" font-size="12.00" fill="white">IntegerArithmeticType</text>
</a>
</g>
</g>
<!-- Comparable&#45;&gt;IntegerArithmeticType -->
<g id="edge21" class="edge">
<path fill="none" stroke="#cccccc" d="M1684.44,-354.978C1821.96,-343.754 2312.42,-302.658 2727.7,-254.115"/>
<polygon fill="#cccccc" stroke="#cccccc" points="2728.28,-257.571 2737.8,-252.931 2727.46,-250.619 2728.28,-257.571"/>
</g>
<!-- Strideable -->
<g id="node38" class="node">
<g id="a_node38"><a xlink:href="/protocol/Strideable/" target="_top">
<path fill="#999999" stroke="#999999" d="M1034.69,-312C1034.69,-312 985.307,-312 985.307,-312 981.64,-312 977.974,-308.333 977.974,-304.667 977.974,-304.667 977.974,-297.333 977.974,-297.333 977.974,-293.667 981.64,-290 985.307,-290 985.307,-290 1034.69,-290 1034.69,-290 1038.36,-290 1042.03,-293.667 1042.03,-297.333 1042.03,-297.333 1042.03,-304.667 1042.03,-304.667 1042.03,-308.333 1038.36,-312 1034.69,-312"/>
<text text-anchor="middle" x="1010" y="-297.4" font-family="Helvetica,sans-Serif" font-size="12.00" fill="white">Strideable</text>
</a>
</g>
</g>
<!-- Comparable&#45;&gt;Strideable -->
<g id="edge22" class="edge">
<path fill="none" stroke="#cccccc" d="M1609.53,-354.706C1498.08,-344.909 1169.18,-315.994 1052.03,-305.695"/>
<polygon fill="#cccccc" stroke="#cccccc" points="1052.28,-302.203 1042.01,-304.814 1051.66,-309.176 1052.28,-302.203"/>
</g>
<!-- String -->
<g id="node39" class="node">
<g id="a_node39"><a xlink:href="/type/String/" target="_top">
<polygon fill="#999999" stroke="#999999" points="3444,-22 3390,-22 3390,-0 3444,-0 3444,-22"/>
<text text-anchor="middle" x="3417" y="-7.4" font-family="Helvetica,sans-Serif" font-size="12.00" fill="white">String</text>
</a>
</g>
</g>
<!-- Comparable&#45;&gt;String -->
<g id="edge23" class="edge">
<path fill="none" stroke="#cccccc" d="M1684.68,-357.775C1912.81,-356.295 3101.93,-346.926 3170,-312 3203.85,-294.631 3222,-282.046 3222,-244 3222,-244 3222,-244 3222,-126 3222,-89.7461 3323.72,-46.3925 3380.23,-25.1071"/>
<polygon fill="#cccccc" stroke="#cccccc" points="3381.73,-28.2825 3389.89,-21.518 3379.29,-21.721 3381.73,-28.2825"/>
</g>
<!-- Comparable&#45;&gt;String.Index -->
<g id="edge26" class="edge">
<path fill="none" stroke="#cccccc" d="M1684.55,-357.601C1883.88,-355.133 2812.42,-339.106 2904,-254 2968.18,-194.359 2971.61,-78.7849 2970.15,-32.1938"/>
<polygon fill="#cccccc" stroke="#cccccc" points="2973.64,-31.9877 2969.72,-22.1461 2966.65,-32.2863 2973.64,-31.9877"/>
</g>
<!-- Comparable&#45;&gt;String.UnicodeScalarView.Index -->
<g id="edge27" class="edge">
<path fill="none" stroke="#cccccc" d="M1684.41,-357.866C1909.61,-356.934 3077.42,-350.264 3142,-312 3172.17,-294.126 3182,-279.063 3182,-244 3182,-244 3182,-244 3182,-126 3182,-93.644 3187.41,-82.9562 3208,-58 3218.9,-44.792 3234.63,-34.2703 3248.79,-26.6418"/>
<polygon fill="#cccccc" stroke="#cccccc" points="3250.48,-29.7083 3257.8,-22.0474 3247.3,-23.4723 3250.48,-29.7083"/>
</g>
<!-- UnicodeScalar -->
<g id="node48" class="node">
<g id="a_node48"><a xlink:href="/type/UnicodeScalar/" target="_top">
<polygon fill="#999999" stroke="#999999" points="705.031,-22 616.969,-22 616.969,-0 705.031,-0 705.031,-22"/>
<text text-anchor="middle" x="661" y="-7.4" font-family="Helvetica,sans-Serif" font-size="12.00" fill="white">UnicodeScalar</text>
</a>
</g>
</g>
<!-- Comparable&#45;&gt;UnicodeScalar -->
<g id="edge24" class="edge">
<path fill="none" stroke="#cccccc" d="M1609.47,-358.376C1452.18,-359.625 845.683,-361.096 662,-312 598.244,-294.959 530,-309.994 530,-244 530,-244 530,-244 530,-184 530,-114.326 598.871,-55.2638 636.74,-28.0544"/>
<polygon fill="#cccccc" stroke="#cccccc" points="639.012,-30.7365 645.198,-22.1355 634.998,-25.0012 639.012,-30.7365"/>
</g>
<!-- _SignedNumberType -->
<g id="node59" class="node">
<g id="a_node59"><a xlink:href="/protocol/_SignedNumberType/" target="_top">
<path fill="#999999" stroke="#999999" d="M1700.72,-312C1700.72,-312 1593.28,-312 1593.28,-312 1589.61,-312 1585.94,-308.333 1585.94,-304.667 1585.94,-304.667 1585.94,-297.333 1585.94,-297.333 1585.94,-293.667 1589.61,-290 1593.28,-290 1593.28,-290 1700.72,-290 1700.72,-290 1704.39,-290 1708.06,-293.667 1708.06,-297.333 1708.06,-297.333 1708.06,-304.667 1708.06,-304.667 1708.06,-308.333 1704.39,-312 1700.72,-312"/>
<text text-anchor="middle" x="1647" y="-297.4" font-family="Helvetica,sans-Serif" font-size="12.00" fill="white">_SignedNumberType</text>
</a>
</g>
</g>
<!-- Comparable&#45;&gt;_SignedNumberType -->
<g id="edge25" class="edge">
<path fill="none" stroke="#cccccc" d="M1647,-347.988C1647,-340.91 1647,-331.171 1647,-322.478"/>
<polygon fill="#cccccc" stroke="#cccccc" points="1650.5,-322.304 1647,-312.304 1643.5,-322.304 1650.5,-322.304"/>
</g>
<!-- Equatable -->
<g id="node13" class="node">
<g id="a_node13"><a xlink:href="/protocol/Equatable/" target="_top">
<path fill="#ee543d" stroke="#ee543d" d="M3040.7,-486C3040.7,-486 2991.3,-486 2991.3,-486 2987.63,-486 2983.96,-482.333 2983.96,-478.667 2983.96,-478.667 2983.96,-471.333 2983.96,-471.333 2983.96,-467.667 2987.63,-464 2991.3,-464 2991.3,-464 3040.7,-464 3040.7,-464 3044.37,-464 3048.04,-467.667 3048.04,-471.333 3048.04,-471.333 3048.04,-478.667 3048.04,-478.667 3048.04,-482.333 3044.37,-486 3040.7,-486"/>
<text text-anchor="middle" x="3016" y="-471.4" font-family="Helvetica,sans-Serif" font-size="12.00" fill="white">Equatable</text>
</a>
</g>
</g>
<!-- Equatable&#45;&gt;AutoreleasingUnsafeMutablePointer -->
<g id="edge1" class="edge">
<path fill="none" stroke="#cccccc" d="M2983.76,-474.129C2695.12,-475.193 559.258,-481.229 281,-428 197.005,-411.932 101,-445.518 101,-360 101,-360 101,-360 101,-126 101,-93.1536 101,-54.9837 101,-32.197"/>
<polygon fill="#cccccc" stroke="#cccccc" points="104.5,-32.0648 101,-22.0648 97.5001,-32.0648 104.5,-32.0648"/>
</g>
<!-- Equatable&#45;&gt;Bool -->
<g id="edge2" class="edge">
<path fill="none" stroke="#cccccc" d="M2983.81,-473.917C2744.79,-473.216 1243.21,-467.281 790,-428 605.105,-411.975 378,-545.588 378,-360 378,-360 378,-360 378,-126 378,-80.5424 423.79,-45.7736 455.461,-27.1622"/>
<polygon fill="#cccccc" stroke="#cccccc" points="457.385,-30.095 464.369,-22.1282 453.941,-24.0007 457.385,-30.095"/>
</g>
<!-- Equatable&#45;&gt;CFunctionPointer -->
<g id="edge3" class="edge">
<path fill="none" stroke="#cccccc" d="M2983.75,-473.811C2683.56,-472.011 387.461,-457.293 324,-428 287.405,-411.108 264,-400.305 264,-360 264,-360 264,-360 264,-126 264,-93.0917 266.942,-54.9401 269.011,-32.1741"/>
<polygon fill="#cccccc" stroke="#cccccc" points="272.511,-32.3368 269.967,-22.0521 265.542,-31.6787 272.511,-32.3368"/>
</g>
<!-- Equatable&#45;&gt;COpaquePointer -->
<g id="edge4" class="edge">
<path fill="none" stroke="#cccccc" d="M2983.92,-474.063C2692.34,-474.56 508.662,-476.648 381,-428 337.71,-411.503 302,-406.327 302,-360 302,-360 302,-360 302,-126 302,-83.994 339.902,-48.0232 365.957,-28.2581"/>
<polygon fill="#cccccc" stroke="#cccccc" points="368.255,-30.9145 374.267,-22.1912 364.127,-25.2609 368.255,-30.9145"/>
</g>
<!-- Equatable&#45;&gt;Character -->
<g id="edge5" class="edge">
<path fill="none" stroke="#cccccc" d="M2983.6,-473.459C2684.52,-468.368 416,-427.526 416,-360 416,-360 416,-360 416,-184 416,-111.409 492.431,-53.5605 534.312,-27.3112"/>
<polygon fill="#cccccc" stroke="#cccccc" points="536.218,-30.2484 542.929,-22.0501 532.57,-24.2739 536.218,-30.2484"/>
</g>
<!-- Equatable&#45;&gt;ClosedInterval -->
<g id="edge6" class="edge">
<path fill="none" stroke="#cccccc" d="M3048.47,-472.874C3198.7,-467.245 3819,-439.204 3819,-360 3819,-360 3819,-360 3819,-126 3819,-93.1536 3819,-54.9837 3819,-32.197"/>
<polygon fill="#cccccc" stroke="#cccccc" points="3822.5,-32.0648 3819,-22.0648 3815.5,-32.0648 3822.5,-32.0648"/>
</g>
<!-- Equatable&#45;&gt;Comparable -->
<g id="edge7" class="edge">
<path fill="none" stroke="#cccccc" d="M2983.94,-472.383C2883.36,-467.212 2565.03,-450.118 2302,-428 2074.33,-408.855 1802.96,-378.161 1694.86,-365.617"/>
<polygon fill="#cccccc" stroke="#cccccc" points="1694.95,-362.104 1684.61,-364.425 1694.14,-369.057 1694.95,-362.104"/>
</g>
<!-- FloatingPointClassification -->
<g id="node17" class="node">
<g id="a_node17"><a xlink:href="/type/FloatingPointClassification/" target="_top">
<polygon fill="#999999" stroke="#999999" points="4031.05,-22 3880.95,-22 3880.95,-0 4031.05,-0 4031.05,-22"/>
<text text-anchor="middle" x="3956" y="-7.4" font-family="Helvetica,sans-Serif" font-size="12.00" fill="white">FloatingPointClassification</text>
</a>
</g>
</g>
<!-- Equatable&#45;&gt;FloatingPointClassification -->
<g id="edge8" class="edge">
<path fill="none" stroke="#cccccc" d="M3048.08,-473.557C3212.83,-470.867 3956,-453.548 3956,-360 3956,-360 3956,-360 3956,-126 3956,-93.1536 3956,-54.9837 3956,-32.197"/>
<polygon fill="#cccccc" stroke="#cccccc" points="3959.5,-32.0648 3956,-22.0648 3952.5,-32.0648 3959.5,-32.0648"/>
</g>
<!-- HalfOpenInterval -->
<g id="node20" class="node">
<g id="a_node20"><a xlink:href="/type/HalfOpenInterval/" target="_top">
<polygon fill="#999999" stroke="#999999" points="4149.04,-22 4048.96,-22 4048.96,-0 4149.04,-0 4149.04,-22"/>
<text text-anchor="middle" x="4099" y="-7.4" font-family="Helvetica,sans-Serif" font-size="12.00" fill="white">HalfOpenInterval</text>
</a>
</g>
</g>
<!-- Equatable&#45;&gt;HalfOpenInterval -->
<g id="edge9" class="edge">
<path fill="none" stroke="#cccccc" d="M3048.12,-474.075C3227.66,-474.083 4099,-468.532 4099,-360 4099,-360 4099,-360 4099,-126 4099,-93.1536 4099,-54.9837 4099,-32.197"/>
<polygon fill="#cccccc" stroke="#cccccc" points="4102.5,-32.0648 4099,-22.0648 4095.5,-32.0648 4102.5,-32.0648"/>
</g>
<!-- Hashable -->
<g id="node21" class="node">
<g id="a_node21"><a xlink:href="/protocol/Hashable/" target="_top">
<path fill="#999999" stroke="#999999" d="M1436.69,-254C1436.69,-254 1391.31,-254 1391.31,-254 1387.64,-254 1383.97,-250.333 1383.97,-246.667 1383.97,-246.667 1383.97,-239.333 1383.97,-239.333 1383.97,-235.667 1387.64,-232 1391.31,-232 1391.31,-232 1436.69,-232 1436.69,-232 1440.36,-232 1444.03,-235.667 1444.03,-239.333 1444.03,-239.333 1444.03,-246.667 1444.03,-246.667 1444.03,-250.333 1440.36,-254 1436.69,-254"/>
<text text-anchor="middle" x="1414" y="-239.4" font-family="Helvetica,sans-Serif" font-size="12.00" fill="white">Hashable</text>
</a>
</g>
</g>
<!-- Equatable&#45;&gt;Hashable -->
<g id="edge10" class="edge">
<path fill="none" stroke="#cccccc" d="M2983.64,-469.354C2780.17,-440.142 1679.03,-282.05 1454.13,-249.761"/>
<polygon fill="#cccccc" stroke="#cccccc" points="1454.48,-246.276 1444.09,-248.32 1453.49,-253.205 1454.48,-246.276"/>
</g>
<!-- HeapBuffer -->
<g id="node22" class="node">
<g id="a_node22"><a xlink:href="/type/HeapBuffer/" target="_top">
<polygon fill="#999999" stroke="#999999" points="4237.37,-22 4166.63,-22 4166.63,-0 4237.37,-0 4237.37,-22"/>
<text text-anchor="middle" x="4202" y="-7.4" font-family="Helvetica,sans-Serif" font-size="12.00" fill="white">HeapBuffer</text>
</a>
</g>
</g>
<!-- Equatable&#45;&gt;HeapBuffer -->
<g id="edge11" class="edge">
<path fill="none" stroke="#cccccc" d="M3048.03,-474.371C3237.37,-476.157 4202,-479.392 4202,-360 4202,-360 4202,-360 4202,-126 4202,-93.1536 4202,-54.9837 4202,-32.197"/>
<polygon fill="#cccccc" stroke="#cccccc" points="4205.5,-32.0648 4202,-22.0648 4198.5,-32.0648 4205.5,-32.0648"/>
</g>
<!-- Range -->
<g id="node32" class="node">
<g id="a_node32"><a xlink:href="/type/Range/" target="_top">
<polygon fill="#999999" stroke="#999999" points="4309,-22 4255,-22 4255,-0 4309,-0 4309,-22"/>
<text text-anchor="middle" x="4282" y="-7.4" font-family="Helvetica,sans-Serif" font-size="12.00" fill="white">Range</text>
</a>
</g>
</g>
<!-- Equatable&#45;&gt;Range -->
<g id="edge12" class="edge">
<path fill="none" stroke="#cccccc" d="M3048.18,-474.299C3206.28,-475.518 3901.5,-477.895 4111,-428 4182.21,-411.042 4261,-433.197 4261,-360 4261,-360 4261,-360 4261,-126 4261,-92.6214 4269.81,-54.6414 4276.02,-32.0334"/>
<polygon fill="#cccccc" stroke="#cccccc" points="4279.43,-32.8338 4278.81,-22.2573 4272.7,-30.9141 4279.43,-32.8338"/>
</g>
<!-- Equatable&#45;&gt;String -->
<g id="edge13" class="edge">
<path fill="none" stroke="#cccccc" d="M3048.06,-471.786C3142.98,-464.359 3416,-436.362 3416,-360 3416,-360 3416,-360 3416,-126 3416,-93.1523 3416.42,-54.9828 3416.72,-32.1966"/>
<polygon fill="#cccccc" stroke="#cccccc" points="3420.22,-32.1108 3416.85,-22.0645 3413.22,-32.0164 3420.22,-32.1108"/>
</g>
<!-- _Incrementable -->
<g id="node54" class="node">
<g id="a_node54"><a xlink:href="/protocol/_Incrementable/" target="_top">
<path fill="#999999" stroke="#999999" d="M3054.71,-428C3054.71,-428 2977.29,-428 2977.29,-428 2973.63,-428 2969.96,-424.333 2969.96,-420.667 2969.96,-420.667 2969.96,-413.333 2969.96,-413.333 2969.96,-409.667 2973.63,-406 2977.29,-406 2977.29,-406 3054.71,-406 3054.71,-406 3058.37,-406 3062.04,-409.667 3062.04,-413.333 3062.04,-413.333 3062.04,-420.667 3062.04,-420.667 3062.04,-424.333 3058.37,-428 3054.71,-428"/>
<text text-anchor="middle" x="3016" y="-413.4" font-family="Helvetica,sans-Serif" font-size="12.00" fill="white">_Incrementable</text>
</a>
</g>
</g>
<!-- Equatable&#45;&gt;_Incrementable -->
<g id="edge14" class="edge">
<path fill="none" stroke="#cccccc" d="M3016,-463.988C3016,-456.91 3016,-447.171 3016,-438.478"/>
<polygon fill="#cccccc" stroke="#cccccc" points="3019.5,-438.304 3016,-428.304 3012.5,-438.304 3019.5,-438.304"/>
</g>
<!-- _RawOptionSetType -->
<g id="node57" class="node">
<g id="a_node57"><a xlink:href="/protocol/_RawOptionSetType/" target="_top">
<path fill="#999999" stroke="#999999" d="M4401.72,-428C4401.72,-428 4296.28,-428 4296.28,-428 4292.62,-428 4288.95,-424.333 4288.95,-420.667 4288.95,-420.667 4288.95,-413.333 4288.95,-413.333 4288.95,-409.667 4292.62,-406 4296.28,-406 4296.28,-406 4401.72,-406 4401.72,-406 4405.38,-406 4409.05,-409.667 4409.05,-413.333 4409.05,-413.333 4409.05,-420.667 4409.05,-420.667 4409.05,-424.333 4405.38,-428 4401.72,-428"/>
<text text-anchor="middle" x="4349" y="-413.4" font-family="Helvetica,sans-Serif" font-size="12.00" fill="white">_RawOptionSetType</text>
</a>
</g>
</g>
<!-- Equatable&#45;&gt;_RawOptionSetType -->
<g id="edge15" class="edge">
<path fill="none" stroke="#cccccc" d="M3048.17,-473.981C3191.71,-473.651 3787.94,-469.707 4275,-428 4276.27,-427.891 4277.55,-427.776 4278.85,-427.655"/>
<polygon fill="#cccccc" stroke="#cccccc" points="4279.29,-431.128 4288.88,-426.625 4278.57,-424.164 4279.29,-431.128"/>
</g>
<!-- FilterCollectionViewIndex -->
<g id="node14" class="node">
<g id="a_node14"><a xlink:href="/type/FilterCollectionViewIndex/" target="_top">
<polygon fill="#999999" stroke="#999999" points="3756.89,-22 3613.11,-22 3613.11,-0 3756.89,-0 3756.89,-22"/>
<text text-anchor="middle" x="3685" y="-7.4" font-family="Helvetica,sans-Serif" font-size="12.00" fill="white">FilterCollectionViewIndex</text>
</a>
</g>
</g>
<!-- FloatingPointType -->
<g id="node18" class="node">
<g id="a_node18"><a xlink:href="/protocol/FloatingPointType/" target="_top">
<path fill="#999999" stroke="#999999" d="M1112.72,-80C1112.72,-80 1021.28,-80 1021.28,-80 1017.62,-80 1013.95,-76.3333 1013.95,-72.6667 1013.95,-72.6667 1013.95,-65.3333 1013.95,-65.3333 1013.95,-61.6667 1017.62,-58 1021.28,-58 1021.28,-58 1112.72,-58 1112.72,-58 1116.38,-58 1120.05,-61.6667 1120.05,-65.3333 1120.05,-65.3333 1120.05,-72.6667 1120.05,-72.6667 1120.05,-76.3333 1116.38,-80 1112.72,-80"/>
<text text-anchor="middle" x="1067" y="-65.4" font-family="Helvetica,sans-Serif" font-size="12.00" fill="white">FloatingPointType</text>
</a>
</g>
</g>
<!-- FloatingPointType&#45;&gt;Double -->
<g id="edge53" class="edge">
<path fill="none" stroke="#cccccc" d="M1048.23,-57.9883C1031.98,-49.3223 1008.26,-36.6696 989.803,-26.8283"/>
<polygon fill="#cccccc" stroke="#cccccc" points="991.434,-23.7315 980.963,-22.1138 988.14,-29.908 991.434,-23.7315"/>
</g>
<!-- FloatingPointType&#45;&gt;Float -->
<g id="edge54" class="edge">
<path fill="none" stroke="#cccccc" d="M1088.27,-57.9883C1106.94,-49.2036 1134.32,-36.3222 1155.35,-26.4255"/>
<polygon fill="#cccccc" stroke="#cccccc" points="1156.95,-29.5387 1164.51,-22.1138 1153.97,-23.205 1156.95,-29.5387"/>
</g>
<!-- ForwardIndexType -->
<g id="node19" class="node">
<g id="a_node19"><a xlink:href="/protocol/ForwardIndexType/" target="_top">
<path fill="#999999" stroke="#999999" d="M3371.21,-312C3371.21,-312 3276.79,-312 3276.79,-312 3273.13,-312 3269.46,-308.333 3269.46,-304.667 3269.46,-304.667 3269.46,-297.333 3269.46,-297.333 3269.46,-293.667 3273.13,-290 3276.79,-290 3276.79,-290 3371.21,-290 3371.21,-290 3374.87,-290 3378.54,-293.667 3378.54,-297.333 3378.54,-297.333 3378.54,-304.667 3378.54,-304.667 3378.54,-308.333 3374.87,-312 3371.21,-312"/>
<text text-anchor="middle" x="3324" y="-297.4" font-family="Helvetica,sans-Serif" font-size="12.00" fill="white">ForwardIndexType</text>
</a>
</g>
</g>
<!-- ForwardIndexType&#45;&gt;BidirectionalIndexType -->
<g id="edge109" class="edge">
<path fill="none" stroke="#cccccc" d="M3277.7,-289.988C3233.91,-280.521 3168.12,-266.297 3121.32,-256.177"/>
<polygon fill="#cccccc" stroke="#cccccc" points="3121.85,-252.712 3111.34,-254.019 3120.37,-259.554 3121.85,-252.712"/>
</g>
<!-- ForwardIndexType&#45;&gt;FilterCollectionViewIndex -->
<g id="edge110" class="edge">
<path fill="none" stroke="#cccccc" d="M3378.44,-294.256C3479.28,-282.096 3685,-249.506 3685,-186 3685,-186 3685,-186 3685,-126 3685,-93.1536 3685,-54.9837 3685,-32.197"/>
<polygon fill="#cccccc" stroke="#cccccc" points="3688.5,-32.0648 3685,-22.0648 3681.5,-32.0648 3688.5,-32.0648"/>
</g>
<!-- String.UTF8View.Index -->
<g id="node41" class="node">
<g id="a_node41"><a xlink:href="/type/String.UTF8View.Index/" target="_top">
<polygon fill="#999999" stroke="#999999" points="3593.89,-22 3462.11,-22 3462.11,-0 3593.89,-0 3593.89,-22"/>
<text text-anchor="middle" x="3528" y="-7.4" font-family="Helvetica,sans-Serif" font-size="12.00" fill="white">String.UTF8View.Index</text>
</a>
</g>
</g>
<!-- ForwardIndexType&#45;&gt;String.UTF8View.Index -->
<g id="edge111" class="edge">
<path fill="none" stroke="#cccccc" d="M3378.4,-293.255C3438.83,-282.367 3528,-254.667 3528,-186 3528,-186 3528,-186 3528,-126 3528,-93.1536 3528,-54.9837 3528,-32.197"/>
<polygon fill="#cccccc" stroke="#cccccc" points="3531.5,-32.0648 3528,-22.0648 3524.5,-32.0648 3531.5,-32.0648"/>
</g>
<!-- Hashable&#45;&gt;Bool -->
<g id="edge82" class="edge">
<path fill="none" stroke="#cccccc" d="M1383.68,-240.619C1287.5,-236.032 990.098,-220.207 897,-196 743.037,-155.967 574.083,-63.6626 510.805,-27.208"/>
<polygon fill="#cccccc" stroke="#cccccc" points="512.318,-24.0395 501.912,-22.05 508.806,-30.0948 512.318,-24.0395"/>
</g>
<!-- Hashable&#45;&gt;CFunctionPointer -->
<g id="edge83" class="edge">
<path fill="none" stroke="#cccccc" d="M1383.6,-241.061C1270.93,-237.396 877.372,-222.914 755,-196 575.609,-156.545 374.251,-62.8563 300.272,-26.6414"/>
<polygon fill="#cccccc" stroke="#cccccc" points="301.609,-23.3985 291.091,-22.1212 298.516,-29.6785 301.609,-23.3985"/>
</g>
<!-- Hashable&#45;&gt;COpaquePointer -->
<g id="edge84" class="edge">
<path fill="none" stroke="#cccccc" d="M1383.82,-240.91C1278.9,-236.923 930.521,-222 822,-196 756.503,-180.308 744.032,-164.232 682,-138 587.45,-98.0178 476.215,-49.6493 422.404,-26.1661"/>
<polygon fill="#cccccc" stroke="#cccccc" points="423.607,-22.8721 413.041,-22.0784 420.806,-29.2874 423.607,-22.8721"/>
</g>
<!-- Hashable&#45;&gt;Character -->
<g id="edge85" class="edge">
<path fill="none" stroke="#cccccc" d="M1383.78,-242.33C1309.77,-242.418 1114.1,-238.274 958,-196 898.105,-179.78 887.338,-164.01 831,-138 744.042,-97.8542 641.631,-49.8682 591.609,-26.384"/>
<polygon fill="#cccccc" stroke="#cccccc" points="592.862,-23.106 582.323,-22.0234 589.887,-29.4421 592.862,-23.106"/>
</g>
<!-- Hashable&#45;&gt;Double -->
<g id="edge86" class="edge">
<path fill="none" stroke="#cccccc" d="M1383.56,-238.282C1318.13,-229.279 1160.74,-202.146 1046,-138 1012.78,-119.428 1003.32,-112.183 983,-80 973.84,-65.4904 968.438,-46.7118 965.413,-32.5658"/>
<polygon fill="#cccccc" stroke="#cccccc" points="968.782,-31.5508 963.47,-22.3843 961.907,-32.8632 968.782,-31.5508"/>
</g>
<!-- Hashable&#45;&gt;Float -->
<g id="edge87" class="edge">
<path fill="none" stroke="#cccccc" d="M1390.51,-231.908C1373.54,-223.852 1350.76,-211.381 1334,-196 1278.95,-145.488 1287.67,-113.816 1238,-58 1228.61,-47.448 1216.92,-36.9174 1207,-28.5999"/>
<polygon fill="#cccccc" stroke="#cccccc" points="1209.13,-25.8184 1199.18,-22.1817 1204.69,-31.2303 1209.13,-25.8184"/>
</g>
<!-- Hashable&#45;&gt;Float80 -->
<g id="edge88" class="edge">
<path fill="none" stroke="#cccccc" d="M1383.86,-242.134C1321.83,-241.539 1176.11,-235.626 1062,-196 1046.58,-190.647 849.962,-70.7263 779.178,-27.4216"/>
<polygon fill="#cccccc" stroke="#cccccc" points="780.789,-24.3041 770.432,-22.0693 777.135,-30.2747 780.789,-24.3041"/>
</g>
<!-- Int -->
<g id="node23" class="node">
<g id="a_node23"><a xlink:href="/type/Int/" target="_top">
<polygon fill="#999999" stroke="#999999" points="1783,-22 1729,-22 1729,-0 1783,-0 1783,-22"/>
<text text-anchor="middle" x="1756" y="-7.4" font-family="Helvetica,sans-Serif" font-size="12.00" fill="white">Int</text>
</a>
</g>
</g>
<!-- Hashable&#45;&gt;Int -->
<g id="edge89" class="edge">
<path fill="none" stroke="#cccccc" d="M1422.52,-231.618C1448.38,-200.73 1529.54,-108.439 1616,-58 1648.42,-39.0867 1689.66,-26.744 1718.96,-19.6523"/>
<polygon fill="#cccccc" stroke="#cccccc" points="1719.85,-23.0391 1728.79,-17.3607 1718.26,-16.2218 1719.85,-23.0391"/>
</g>
<!-- Int16 -->
<g id="node24" class="node">
<g id="a_node24"><a xlink:href="/type/Int16/" target="_top">
<polygon fill="#999999" stroke="#999999" points="1861,-22 1807,-22 1807,-0 1861,-0 1861,-22"/>
<text text-anchor="middle" x="1834" y="-7.4" font-family="Helvetica,sans-Serif" font-size="12.00" fill="white">Int16</text>
</a>
</g>
</g>
<!-- Hashable&#45;&gt;Int16 -->
<g id="edge90" class="edge">
<path fill="none" stroke="#cccccc" d="M1428.59,-231.948C1441.85,-222.746 1461.89,-208.675 1479,-196 1559.43,-136.406 1567.17,-102.159 1657,-58 1663.36,-54.8715 1747.08,-33.6987 1797.06,-21.1959"/>
<polygon fill="#cccccc" stroke="#cccccc" points="1798.02,-24.5635 1806.88,-18.7439 1796.33,-17.7723 1798.02,-24.5635"/>
</g>
<!-- Int32 -->
<g id="node25" class="node">
<g id="a_node25"><a xlink:href="/type/Int32/" target="_top">
<polygon fill="#999999" stroke="#999999" points="1619,-22 1565,-22 1565,-0 1619,-0 1619,-22"/>
<text text-anchor="middle" x="1592" y="-7.4" font-family="Helvetica,sans-Serif" font-size="12.00" fill="white">Int32</text>
</a>
</g>
</g>
<!-- Hashable&#45;&gt;Int32 -->
<g id="edge91" class="edge">
<path fill="none" stroke="#cccccc" d="M1413.56,-231.978C1413.06,-209.447 1414.47,-153.811 1438,-116 1465.46,-71.8737 1519.35,-42.0984 1555.53,-26.087"/>
<polygon fill="#cccccc" stroke="#cccccc" points="1556.96,-29.2816 1564.77,-22.1239 1554.2,-22.8481 1556.96,-29.2816"/>
</g>
<!-- Int64 -->
<g id="node26" class="node">
<g id="a_node26"><a xlink:href="/type/Int64/" target="_top">
<polygon fill="#999999" stroke="#999999" points="1938,-22 1884,-22 1884,-0 1938,-0 1938,-22"/>
<text text-anchor="middle" x="1911" y="-7.4" font-family="Helvetica,sans-Serif" font-size="12.00" fill="white">Int64</text>
</a>
</g>
</g>
<!-- Hashable&#45;&gt;Int64 -->
<g id="edge92" class="edge">
<path fill="none" stroke="#cccccc" d="M1444.36,-241.291C1499.65,-239.149 1619.75,-230.543 1714,-196 1806.54,-162.083 1849.92,-163.046 1903,-80 1911.99,-65.9324 1913.52,-46.8322 1913.08,-32.4562"/>
<polygon fill="#cccccc" stroke="#cccccc" points="1916.55,-31.875 1912.4,-22.1262 1909.56,-32.3342 1916.55,-31.875"/>
</g>
<!-- Int8 -->
<g id="node27" class="node">
<g id="a_node27"><a xlink:href="/type/Int8/" target="_top">
<polygon fill="#999999" stroke="#999999" points="2020,-22 1966,-22 1966,-0 2020,-0 2020,-22"/>
<text text-anchor="middle" x="1993" y="-7.4" font-family="Helvetica,sans-Serif" font-size="12.00" fill="white">Int8</text>
</a>
</g>
</g>
<!-- Hashable&#45;&gt;Int8 -->
<g id="edge93" class="edge">
<path fill="none" stroke="#cccccc" d="M1444.4,-241.265C1505.62,-239.072 1647.59,-230.376 1761,-196 1816.92,-179.048 1832.34,-173.184 1879,-138 1921.35,-106.066 1960.45,-56.8345 1979.97,-30.3563"/>
<polygon fill="#cccccc" stroke="#cccccc" points="1982.99,-32.1539 1986.03,-22.0052 1977.32,-28.0417 1982.99,-32.1539"/>
</g>
<!-- ObjectIdentifier -->
<g id="node30" class="node">
<g id="a_node30"><a xlink:href="/type/ObjectIdentifier/" target="_top">
<polygon fill="#999999" stroke="#999999" points="917.031,-22 826.969,-22 826.969,-0 917.031,-0 917.031,-22"/>
<text text-anchor="middle" x="872" y="-7.4" font-family="Helvetica,sans-Serif" font-size="12.00" fill="white">ObjectIdentifier</text>
</a>
</g>
</g>
<!-- Hashable&#45;&gt;ObjectIdentifier -->
<g id="edge94" class="edge">
<path fill="none" stroke="#cccccc" d="M1383.73,-240.454C1329.72,-236.997 1213.72,-226.395 1121,-196 1067.73,-178.538 1054.92,-170.146 1009,-138 961.224,-104.558 912.724,-55.6487 888.264,-29.6993"/>
<polygon fill="#cccccc" stroke="#cccccc" points="890.58,-27.0518 881.198,-22.1297 885.463,-31.8282 890.58,-27.0518"/>
</g>
<!-- Hashable&#45;&gt;String -->
<g id="edge95" class="edge">
<path fill="none" stroke="#cccccc" d="M1444.28,-241.635C1607.37,-239.548 2382.64,-228.076 2620,-196 2886.02,-160.051 2945.91,-116.015 3208,-58 3281.53,-41.7226 3302.94,-40.5891 3379.75,-22.1856"/>
<polygon fill="#cccccc" stroke="#cccccc" points="3381.03,-25.4793 3389.92,-19.727 3379.38,-18.6753 3381.03,-25.4793"/>
</g>
<!-- UInt -->
<g id="node43" class="node">
<g id="a_node43"><a xlink:href="/type/UInt/" target="_top">
<polygon fill="#999999" stroke="#999999" points="2258,-22 2204,-22 2204,-0 2258,-0 2258,-22"/>
<text text-anchor="middle" x="2231" y="-7.4" font-family="Helvetica,sans-Serif" font-size="12.00" fill="white">UInt</text>
</a>
</g>
</g>
<!-- Hashable&#45;&gt;UInt -->
<g id="edge96" class="edge">
<path fill="none" stroke="#cccccc" d="M1444.06,-241.441C1510.49,-239.565 1674.32,-231.41 1806,-196 1963.63,-153.612 2138.53,-62.7368 2204.18,-26.9359"/>
<polygon fill="#cccccc" stroke="#cccccc" points="2205.97,-29.944 2213.05,-22.0657 2202.6,-23.8068 2205.97,-29.944"/>
</g>
<!-- UInt16 -->
<g id="node44" class="node">
<g id="a_node44"><a xlink:href="/type/UInt16/" target="_top">
<polygon fill="#999999" stroke="#999999" points="2330,-22 2276,-22 2276,-0 2330,-0 2330,-22"/>
<text text-anchor="middle" x="2303" y="-7.4" font-family="Helvetica,sans-Serif" font-size="12.00" fill="white">UInt16</text>
</a>
</g>
</g>
<!-- Hashable&#45;&gt;UInt16 -->
<g id="edge97" class="edge">
<path fill="none" stroke="#cccccc" d="M1444.13,-241.908C1617.42,-241.234 2480.75,-235.88 2519,-196 2547.59,-166.197 2610.67,-176.752 2493,-58 2445.75,-10.3138 2410.4,-36.7584 2340.23,-22.0203"/>
<polygon fill="#cccccc" stroke="#cccccc" points="2340.63,-18.519 2330.09,-19.6554 2339.04,-25.336 2340.63,-18.519"/>
</g>
<!-- UInt32 -->
<g id="node45" class="node">
<g id="a_node45"><a xlink:href="/type/UInt32/" target="_top">
<polygon fill="#999999" stroke="#999999" points="2402,-22 2348,-22 2348,-0 2402,-0 2402,-22"/>
<text text-anchor="middle" x="2375" y="-7.4" font-family="Helvetica,sans-Serif" font-size="12.00" fill="white">UInt32</text>
</a>
</g>
</g>
<!-- Hashable&#45;&gt;UInt32 -->
<g id="edge98" class="edge">
<path fill="none" stroke="#cccccc" d="M1444.21,-241.763C1619.93,-240.26 2504.22,-230.977 2549,-196 2577.65,-173.625 2579.15,-149.887 2566,-116 2553.37,-83.4462 2542.28,-77.022 2513,-58 2504.28,-52.3329 2449.61,-34.9038 2411.76,-23.2018"/>
<polygon fill="#cccccc" stroke="#cccccc" points="2412.65,-19.8129 2402.06,-20.2143 2410.59,-26.5028 2412.65,-19.8129"/>
</g>
<!-- UInt64 -->
<g id="node46" class="node">
<g id="a_node46"><a xlink:href="/type/UInt64/" target="_top">
<polygon fill="#999999" stroke="#999999" points="2474,-22 2420,-22 2420,-0 2474,-0 2474,-22"/>
<text text-anchor="middle" x="2447" y="-7.4" font-family="Helvetica,sans-Serif" font-size="12.00" fill="white">UInt64</text>
</a>
</g>
</g>
<!-- Hashable&#45;&gt;UInt64 -->
<g id="edge99" class="edge">
<path fill="none" stroke="#cccccc" d="M1444.03,-241.854C1621.7,-240.863 2528.99,-233.948 2573,-196 2620.54,-155.015 2590.96,-98.4901 2543,-58 2525.68,-43.3804 2502.93,-32.2121 2483.92,-24.543"/>
<polygon fill="#cccccc" stroke="#cccccc" points="2484.96,-21.1923 2474.37,-20.8518 2482.44,-27.7216 2484.96,-21.1923"/>
</g>
<!-- UInt8 -->
<g id="node47" class="node">
<g id="a_node47"><a xlink:href="/type/UInt8/" target="_top">
<polygon fill="#999999" stroke="#999999" points="2546,-22 2492,-22 2492,-0 2546,-0 2546,-22"/>
<text text-anchor="middle" x="2519" y="-7.4" font-family="Helvetica,sans-Serif" font-size="12.00" fill="white">UInt8</text>
</a>
</g>
</g>
<!-- Hashable&#45;&gt;UInt8 -->
<g id="edge100" class="edge">
<path fill="none" stroke="#cccccc" d="M1444.03,-241.868C1623.75,-240.948 2550.73,-234.351 2596,-196 2642.8,-156.355 2631.54,-107.984 2596,-58 2586.01,-43.9465 2570.25,-33.4437 2555.59,-26.0494"/>
<polygon fill="#cccccc" stroke="#cccccc" points="2556.72,-22.7148 2546.18,-21.6332 2553.74,-29.0513 2556.72,-22.7148"/>
</g>
<!-- Hashable&#45;&gt;UnicodeScalar -->
<g id="edge101" class="edge">
<path fill="none" stroke="#cccccc" d="M1383.77,-242.124C1316.63,-241.618 1150.61,-236.04 1019,-196 884.107,-154.96 739.462,-64.313 684.231,-27.7487"/>
<polygon fill="#cccccc" stroke="#cccccc" points="686.117,-24.7995 675.855,-22.1628 682.233,-30.6232 686.117,-24.7995"/>
</g>
<!-- UnsafeMutablePointer -->
<g id="node49" class="node">
<g id="a_node49"><a xlink:href="/type/UnsafeMutablePointer/" target="_top">
<polygon fill="#999999" stroke="#999999" points="1375.05,-22 1246.95,-22 1246.95,-0 1375.05,-0 1375.05,-22"/>
<text text-anchor="middle" x="1311" y="-7.4" font-family="Helvetica,sans-Serif" font-size="12.00" fill="white">UnsafeMutablePointer</text>
</a>
</g>
</g>
<!-- Hashable&#45;&gt;UnsafeMutablePointer -->
<g id="edge102" class="edge">
<path fill="none" stroke="#cccccc" d="M1392.36,-231.979C1377.9,-224.179 1359.65,-211.992 1349,-196 1314.73,-144.561 1310.37,-68.4589 1310.42,-32.3885"/>
<polygon fill="#cccccc" stroke="#cccccc" points="1313.93,-32.2126 1310.56,-22.166 1306.93,-32.1176 1313.93,-32.2126"/>
</g>
<!-- UnsafePointer -->
<g id="node50" class="node">
<g id="a_node50"><a xlink:href="/type/UnsafePointer/" target="_top">
<polygon fill="#999999" stroke="#999999" points="1524.03,-22 1437.97,-22 1437.97,-0 1524.03,-0 1524.03,-22"/>
<text text-anchor="middle" x="1481" y="-7.4" font-family="Helvetica,sans-Serif" font-size="12.00" fill="white">UnsafePointer</text>
</a>
</g>
</g>
<!-- Hashable&#45;&gt;UnsafePointer -->
<g id="edge103" class="edge">
<path fill="none" stroke="#cccccc" d="M1396.17,-231.873C1384.05,-223.876 1368.98,-211.495 1362,-196 1336.81,-140.079 1327.32,-108.587 1362,-58 1376.86,-36.3238 1403.51,-24.8591 1427.83,-18.7966"/>
<polygon fill="#cccccc" stroke="#cccccc" points="1428.71,-22.1848 1437.71,-16.5859 1427.18,-15.3537 1428.71,-22.1848"/>
</g>
<!-- _IntegerType -->
<g id="node55" class="node">
<g id="a_node55"><a xlink:href="/protocol/_IntegerType/" target="_top">
<path fill="#999999" stroke="#999999" d="M2220.71,-196C2220.71,-196 2155.29,-196 2155.29,-196 2151.63,-196 2147.96,-192.333 2147.96,-188.667 2147.96,-188.667 2147.96,-181.333 2147.96,-181.333 2147.96,-177.667 2151.63,-174 2155.29,-174 2155.29,-174 2220.71,-174 2220.71,-174 2224.37,-174 2228.04,-177.667 2228.04,-181.333 2228.04,-181.333 2228.04,-188.667 2228.04,-188.667 2228.04,-192.333 2224.37,-196 2220.71,-196"/>
<text text-anchor="middle" x="2188" y="-181.4" font-family="Helvetica,sans-Serif" font-size="12.00" fill="white">_IntegerType</text>
</a>
</g>
</g>
<!-- Hashable&#45;&gt;_IntegerType -->
<g id="edge104" class="edge">
<path fill="none" stroke="#cccccc" d="M1444.34,-239.805C1562.12,-231.284 1989.76,-200.343 2137.43,-189.659"/>
<polygon fill="#cccccc" stroke="#cccccc" points="2137.85,-193.137 2147.57,-188.925 2137.35,-186.156 2137.85,-193.137"/>
</g>
<!-- Int&#45;&gt;Bit -->
<g id="edge40" class="edge">
<path fill="none" stroke="#cccccc" d="M1770.72,-22.1039C1780.45,-28.7287 1793.8,-36.5108 1807,-40 1856.68,-53.1374 2682.7,-54.509 2732,-40 2740.4,-37.5276 2748.71,-32.9469 2755.86,-28.1447"/>
<polygon fill="#cccccc" stroke="#cccccc" points="2758.18,-30.7891 2764.22,-22.0854 2754.07,-25.122 2758.18,-30.7891"/>
</g>
<!-- IntegerArithmeticType&#45;&gt;Bit -->
<g id="edge28" class="edge">
<path fill="none" stroke="#cccccc" d="M2809.78,-231.869C2816.79,-223.059 2826.07,-209.605 2830,-196 2847.02,-137.076 2855.46,-113.801 2830,-58 2824.43,-45.7894 2813.84,-35.57 2803.58,-27.8891"/>
<polygon fill="#cccccc" stroke="#cccccc" points="2805.37,-24.8711 2795.16,-22.0461 2801.38,-30.6223 2805.37,-24.8711"/>
</g>
<!-- IntegerArithmeticType&#45;&gt;_IntegerType -->
<g id="edge29" class="edge">
<path fill="none" stroke="#cccccc" d="M2737.81,-233.03C2734.83,-232.668 2731.88,-232.323 2729,-232 2548.87,-211.847 2334.11,-196.016 2238.37,-189.384"/>
<polygon fill="#cccccc" stroke="#cccccc" points="2238.33,-185.873 2228.11,-188.678 2237.85,-192.857 2238.33,-185.873"/>
</g>
<!-- IntegerType -->
<g id="node29" class="node">
<g id="a_node29"><a xlink:href="/protocol/IntegerType/" target="_top">
<path fill="#999999" stroke="#999999" d="M2138.2,-138C2138.2,-138 2079.8,-138 2079.8,-138 2076.13,-138 2072.47,-134.333 2072.47,-130.667 2072.47,-130.667 2072.47,-123.333 2072.47,-123.333 2072.47,-119.667 2076.13,-116 2079.8,-116 2079.8,-116 2138.2,-116 2138.2,-116 2141.87,-116 2145.53,-119.667 2145.53,-123.333 2145.53,-123.333 2145.53,-130.667 2145.53,-130.667 2145.53,-134.333 2141.87,-138 2138.2,-138"/>
<text text-anchor="middle" x="2109" y="-123.4" font-family="Helvetica,sans-Serif" font-size="12.00" fill="white">IntegerType</text>
</a>
</g>
</g>
<!-- SignedIntegerType -->
<g id="node36" class="node">
<g id="a_node36"><a xlink:href="/protocol/SignedIntegerType/" target="_top">
<path fill="#999999" stroke="#999999" d="M1886.73,-80C1886.73,-80 1791.27,-80 1791.27,-80 1787.61,-80 1783.94,-76.3333 1783.94,-72.6667 1783.94,-72.6667 1783.94,-65.3333 1783.94,-65.3333 1783.94,-61.6667 1787.61,-58 1791.27,-58 1791.27,-58 1886.73,-58 1886.73,-58 1890.39,-58 1894.06,-61.6667 1894.06,-65.3333 1894.06,-65.3333 1894.06,-72.6667 1894.06,-72.6667 1894.06,-76.3333 1890.39,-80 1886.73,-80"/>
<text text-anchor="middle" x="1839" y="-65.4" font-family="Helvetica,sans-Serif" font-size="12.00" fill="white">SignedIntegerType</text>
</a>
</g>
</g>
<!-- IntegerType&#45;&gt;SignedIntegerType -->
<g id="edge33" class="edge">
<path fill="none" stroke="#cccccc" d="M2072.59,-118.448C2027.69,-109.136 1950.81,-93.1905 1897.58,-82.149"/>
<polygon fill="#cccccc" stroke="#cccccc" points="1898.09,-78.6822 1887.59,-80.0784 1896.67,-85.5364 1898.09,-78.6822"/>
</g>
<!-- UnsignedIntegerType -->
<g id="node51" class="node">
<g id="a_node51"><a xlink:href="/protocol/UnsignedIntegerType/" target="_top">
<path fill="#999999" stroke="#999999" d="M2476.73,-80C2476.73,-80 2367.27,-80 2367.27,-80 2363.61,-80 2359.94,-76.3333 2359.94,-72.6667 2359.94,-72.6667 2359.94,-65.3333 2359.94,-65.3333 2359.94,-61.6667 2363.61,-58 2367.27,-58 2367.27,-58 2476.73,-58 2476.73,-58 2480.39,-58 2484.06,-61.6667 2484.06,-65.3333 2484.06,-65.3333 2484.06,-72.6667 2484.06,-72.6667 2484.06,-76.3333 2480.39,-80 2476.73,-80"/>
<text text-anchor="middle" x="2422" y="-65.4" font-family="Helvetica,sans-Serif" font-size="12.00" fill="white">UnsignedIntegerType</text>
</a>
</g>
</g>
<!-- IntegerType&#45;&gt;UnsignedIntegerType -->
<g id="edge34" class="edge">
<path fill="none" stroke="#cccccc" d="M2145.52,-119.466C2197.03,-110.251 2291.87,-93.2817 2355.94,-81.8197"/>
<polygon fill="#cccccc" stroke="#cccccc" points="2356.72,-85.236 2365.94,-80.0295 2355.48,-78.3454 2356.72,-85.236"/>
</g>
<!-- RandomAccessIndexType&#45;&gt;Bit -->
<g id="edge56" class="edge">
<path fill="none" stroke="#cccccc" d="M2487.95,-173.939C2520.55,-166.501 2562.9,-154.739 2598,-138 2661.34,-107.794 2726.43,-55.6147 2757.79,-28.8717"/>
<polygon fill="#cccccc" stroke="#cccccc" points="2760.43,-31.2226 2765.72,-22.0428 2755.86,-25.9203 2760.43,-31.2226"/>
</g>
<!-- RandomAccessIndexType&#45;&gt;Int -->
<g id="edge57" class="edge">
<path fill="none" stroke="#cccccc" d="M2361.45,-176.493C2285.99,-168.498 2166.05,-154.706 2063,-138 2054.94,-136.694 1780.98,-85.5538 1775,-80 1761.99,-67.9169 1757.62,-47.7384 1756.28,-32.4934"/>
<polygon fill="#cccccc" stroke="#cccccc" points="1759.77,-32.2552 1755.76,-22.4508 1752.78,-32.6193 1759.77,-32.2552"/>
</g>
<!-- RandomAccessIndexType&#45;&gt;Int16 -->
<g id="edge58" class="edge">
<path fill="none" stroke="#cccccc" d="M2361.49,-176.292C2312.52,-169.686 2247.65,-157.968 2193,-138 2174.31,-131.17 2172.22,-124.004 2154,-116 2054.91,-72.4683 1931.63,-37.4718 1871.08,-21.4585"/>
<polygon fill="#cccccc" stroke="#cccccc" points="1871.78,-18.0236 1861.22,-18.8719 1870,-24.7945 1871.78,-18.0236"/>
</g>
<!-- RandomAccessIndexType&#45;&gt;Int32 -->
<g id="edge59" class="edge">
<path fill="none" stroke="#cccccc" d="M2361.56,-180.833C2243.94,-175.188 2020.68,-161.701 1945,-138 1926.01,-132.052 1924.51,-123.31 1906,-116 1843.04,-91.1351 1822.39,-100.889 1758,-80 1709.74,-64.3431 1655.67,-41.0741 1622.74,-26.2227"/>
<polygon fill="#cccccc" stroke="#cccccc" points="1624.18,-23.0338 1613.63,-22.0861 1621.29,-29.4075 1624.18,-23.0338"/>
</g>
<!-- RandomAccessIndexType&#45;&gt;Int64 -->
<g id="edge60" class="edge">
<path fill="none" stroke="#cccccc" d="M2422.41,-173.923C2398.27,-156.081 2349.63,-120.387 2341,-116 2295.52,-92.8891 2279.16,-99.4589 2232,-80 2211.79,-71.6609 2208.83,-64.6515 2188,-58 2089.02,-26.3893 2059.15,-41.0448 1957,-22 1954.14,-21.4664 1951.18,-20.8876 1948.21,-20.2866"/>
<polygon fill="#cccccc" stroke="#cccccc" points="1948.69,-16.8115 1938.19,-18.1908 1947.26,-23.6633 1948.69,-16.8115"/>
</g>
<!-- RandomAccessIndexType&#45;&gt;Int8 -->
<g id="edge61" class="edge">
<path fill="none" stroke="#cccccc" d="M2429.09,-173.932C2418.65,-159.395 2397.58,-132.465 2374,-116 2367.01,-111.121 2240.17,-60.4282 2232,-58 2162.15,-37.2352 2077.95,-23.5716 2030.43,-16.8651"/>
<polygon fill="#cccccc" stroke="#cccccc" points="2030.69,-13.3672 2020.3,-15.4627 2029.73,-20.301 2030.69,-13.3672"/>
</g>
<!-- RandomAccessIndexType&#45;&gt;IntegerType -->
<g id="edge62" class="edge">
<path fill="none" stroke="#cccccc" d="M2372.61,-173.96C2316.61,-164.966 2232.77,-151.196 2160,-138 2158.53,-137.733 2157.04,-137.459 2155.53,-137.18"/>
<polygon fill="#cccccc" stroke="#cccccc" points="2155.95,-133.697 2145.47,-135.282 2154.65,-140.576 2155.95,-133.697"/>
</g>
<!-- ReverseRandomAccessIndex -->
<g id="node35" class="node">
<g id="a_node35"><a xlink:href="/type/ReverseRandomAccessIndex/" target="_top">
<polygon fill="#999999" stroke="#999999" points="2732.06,-22 2563.94,-22 2563.94,-0 2732.06,-0 2732.06,-22"/>
<text text-anchor="middle" x="2648" y="-7.4" font-family="Helvetica,sans-Serif" font-size="12.00" fill="white">ReverseRandomAccessIndex</text>
</a>
</g>
</g>
<!-- RandomAccessIndexType&#45;&gt;ReverseRandomAccessIndex -->
<g id="edge63" class="edge">
<path fill="none" stroke="#cccccc" d="M2495.62,-173.967C2521.81,-167.224 2551.63,-156.12 2574,-138 2609.16,-109.527 2631.24,-59.5816 2641.41,-31.8952"/>
<polygon fill="#cccccc" stroke="#cccccc" points="2644.82,-32.7435 2644.83,-22.1486 2638.21,-30.4253 2644.82,-32.7435"/>
</g>
<!-- RandomAccessIndexType&#45;&gt;UInt -->
<g id="edge64" class="edge">
<path fill="none" stroke="#cccccc" d="M2434.99,-173.919C2433.03,-159.365 2427.44,-132.416 2412,-116 2383.89,-86.1142 2362.84,-99.973 2327,-80 2299.46,-64.6518 2270.23,-43.0898 2251.36,-28.3876"/>
<polygon fill="#cccccc" stroke="#cccccc" points="2253.48,-25.6039 2243.46,-22.1622 2249.15,-31.1014 2253.48,-25.6039"/>
</g>
<!-- RandomAccessIndexType&#45;&gt;UInt16 -->
<g id="edge65" class="edge">
<path fill="none" stroke="#cccccc" d="M2442.54,-173.803C2450.73,-159.584 2462.31,-133.573 2450,-116 2423.14,-77.6522 2388.2,-108.425 2351,-80 2334.05,-67.0455 2320.68,-46.4128 2312.4,-31.2688"/>
<polygon fill="#cccccc" stroke="#cccccc" points="2315.43,-29.5043 2307.71,-22.2455 2309.22,-32.7327 2315.43,-29.5043"/>
</g>
<!-- RandomAccessIndexType&#45;&gt;UInt32 -->
<g id="edge66" class="edge">
<path fill="none" stroke="#cccccc" d="M2453.17,-173.854C2465.15,-165.769 2480.31,-153.288 2488,-138 2504.02,-106.178 2513.1,-87.4117 2493,-58 2488.12,-50.8644 2444.72,-35.1412 2411.96,-24.0711"/>
<polygon fill="#cccccc" stroke="#cccccc" points="2412.78,-20.6556 2402.19,-20.7997 2410.56,-27.2934 2412.78,-20.6556"/>
</g>
<!-- RandomAccessIndexType&#45;&gt;UInt64 -->
<g id="edge67" class="edge">
<path fill="none" stroke="#cccccc" d="M2464.67,-173.833C2483.59,-166.106 2508.11,-154.061 2526,-138 2548.93,-117.411 2555.19,-109.531 2564,-80 2566.8,-70.6305 2569.51,-66.0804 2564,-58 2559.18,-50.9303 2516.38,-35.2669 2483.93,-24.1874"/>
<polygon fill="#cccccc" stroke="#cccccc" points="2484.84,-20.7999 2474.25,-20.9107 2482.6,-27.4308 2484.84,-20.7999"/>
</g>
<!-- RandomAccessIndexType&#45;&gt;UInt8 -->
<g id="edge68" class="edge">
<path fill="none" stroke="#cccccc" d="M2481.67,-173.985C2504.67,-167.043 2531.69,-155.763 2551,-138 2572.21,-118.485 2573.38,-108.049 2580,-80 2582.25,-70.4838 2584.36,-66.7512 2580,-58 2573.54,-45.0398 2561.5,-34.7678 2549.81,-27.2481"/>
<polygon fill="#cccccc" stroke="#cccccc" points="2551.42,-24.1348 2541.03,-22.0354 2547.84,-30.1526 2551.42,-24.1348"/>
</g>
<!-- RandomAccessIndexType&#45;&gt;UnsafeMutablePointer -->
<g id="edge69" class="edge">
<path fill="none" stroke="#cccccc" d="M2361.38,-180.149C2173.78,-170.388 1694.92,-144.961 1661,-138 1538.45,-112.849 1400.96,-53.6142 1341.31,-26.2796"/>
<polygon fill="#cccccc" stroke="#cccccc" points="1342.63,-23.036 1332.09,-22.0225 1339.7,-29.3915 1342.63,-23.036"/>
</g>
<!-- RandomAccessIndexType&#45;&gt;UnsafePointer -->
<g id="edge70" class="edge">
<path fill="none" stroke="#cccccc" d="M2361.27,-179.198C2236.58,-170.901 1991.34,-153.302 1906,-138 1810.27,-120.836 1788.25,-107.621 1695,-80 1633.97,-61.9228 1563.73,-39.2424 1520.86,-25.1847"/>
<polygon fill="#cccccc" stroke="#cccccc" points="1521.95,-21.8589 1511.36,-22.0629 1519.77,-28.5092 1521.95,-21.8589"/>
</g>
<!-- RawOptionSetType -->
<g id="node33" class="node">
<g id="a_node33"><a xlink:href="/protocol/RawOptionSetType/" target="_top">
<path fill="#999999" stroke="#999999" d="M4398.21,-370C4398.21,-370 4299.79,-370 4299.79,-370 4296.12,-370 4292.45,-366.333 4292.45,-362.667 4292.45,-362.667 4292.45,-355.333 4292.45,-355.333 4292.45,-351.667 4296.12,-348 4299.79,-348 4299.79,-348 4398.21,-348 4398.21,-348 4401.88,-348 4405.55,-351.667 4405.55,-355.333 4405.55,-355.333 4405.55,-362.667 4405.55,-362.667 4405.55,-366.333 4401.88,-370 4398.21,-370"/>
<text text-anchor="middle" x="4349" y="-355.4" font-family="Helvetica,sans-Serif" font-size="12.00" fill="white">RawOptionSetType</text>
</a>
</g>
</g>
<!-- SignedIntegerType&#45;&gt;Int -->
<g id="edge35" class="edge">
<path fill="none" stroke="#cccccc" d="M1824.16,-57.9883C1811.73,-49.5993 1793.76,-37.4743 1779.39,-27.7804"/>
<polygon fill="#cccccc" stroke="#cccccc" points="1781.24,-24.8055 1770.99,-22.1138 1777.32,-30.6083 1781.24,-24.8055"/>
</g>
<!-- SignedIntegerType&#45;&gt;Int16 -->
<g id="edge36" class="edge">
<path fill="none" stroke="#cccccc" d="M1838.11,-57.9883C1837.47,-50.9098 1836.6,-41.1714 1835.83,-32.4779"/>
<polygon fill="#cccccc" stroke="#cccccc" points="1839.3,-31.953 1834.92,-22.3039 1832.32,-32.5755 1839.3,-31.953"/>
</g>
<!-- SignedIntegerType&#45;&gt;Int32 -->
<g id="edge37" class="edge">
<path fill="none" stroke="#cccccc" d="M1794.84,-57.9883C1747.6,-47.2768 1673.49,-30.4745 1629.13,-20.419"/>
<polygon fill="#cccccc" stroke="#cccccc" points="1629.86,-16.9959 1619.34,-18.1981 1628.32,-23.8227 1629.86,-16.9959"/>
</g>
<!-- SignedIntegerType&#45;&gt;Int64 -->
<g id="edge38" class="edge">
<path fill="none" stroke="#cccccc" d="M1851.87,-57.9883C1862.39,-49.8087 1877.47,-38.0773 1889.77,-28.5108"/>
<polygon fill="#cccccc" stroke="#cccccc" points="1892.01,-31.2061 1897.75,-22.3039 1887.71,-25.6806 1892.01,-31.2061"/>
</g>
<!-- SignedIntegerType&#45;&gt;Int8 -->
<g id="edge39" class="edge">
<path fill="none" stroke="#cccccc" d="M1866.53,-57.9883C1891.57,-48.8821 1928.72,-35.3739 1956.28,-25.3513"/>
<polygon fill="#cccccc" stroke="#cccccc" points="1957.76,-28.5378 1965.96,-21.8311 1955.37,-21.9593 1957.76,-28.5378"/>
</g>
<!-- SignedNumberType -->
<g id="node37" class="node">
<g id="a_node37"><a xlink:href="/protocol/SignedNumberType/" target="_top">
<path fill="#999999" stroke="#999999" d="M1697.72,-196C1697.72,-196 1596.28,-196 1596.28,-196 1592.62,-196 1588.95,-192.333 1588.95,-188.667 1588.95,-188.667 1588.95,-181.333 1588.95,-181.333 1588.95,-177.667 1592.62,-174 1596.28,-174 1596.28,-174 1697.72,-174 1697.72,-174 1701.38,-174 1705.05,-177.667 1705.05,-181.333 1705.05,-181.333 1705.05,-188.667 1705.05,-188.667 1705.05,-192.333 1701.38,-196 1697.72,-196"/>
<text text-anchor="middle" x="1647" y="-181.4" font-family="Helvetica,sans-Serif" font-size="12.00" fill="white">SignedNumberType</text>
</a>
</g>
</g>
<!-- SignedNumberType&#45;&gt;AbsoluteValuable -->
<g id="edge72" class="edge">
<path fill="none" stroke="#cccccc" d="M1588.85,-177.98C1485.84,-167.318 1272.31,-145.215 1167.18,-134.333"/>
<polygon fill="#cccccc" stroke="#cccccc" points="1167.36,-130.833 1157.05,-133.284 1166.64,-137.796 1167.36,-130.833"/>
</g>
<!-- SignedNumberType&#45;&gt;Int -->
<g id="edge73" class="edge">
<path fill="none" stroke="#cccccc" d="M1627.72,-173.862C1606.99,-161.494 1578.45,-139.334 1590,-116 1615.29,-64.8905 1678.66,-36.1166 1719.38,-22.3454"/>
<polygon fill="#cccccc" stroke="#cccccc" points="1720.53,-25.6541 1728.96,-19.2408 1718.37,-18.9953 1720.53,-25.6541"/>
</g>
<!-- SignedNumberType&#45;&gt;Int16 -->
<g id="edge74" class="edge">
<path fill="none" stroke="#cccccc" d="M1639.79,-173.893C1631,-160.226 1618.43,-135.336 1628,-116 1646.84,-77.9163 1666.63,-78.221 1704,-58 1733.78,-41.8863 1770.33,-29.537 1797.09,-21.711"/>
<polygon fill="#cccccc" stroke="#cccccc" points="1798.17,-25.0421 1806.83,-18.9346 1796.25,-18.3103 1798.17,-25.0421"/>
</g>
<!-- SignedNumberType&#45;&gt;Int32 -->
<g id="edge75" class="edge">
<path fill="none" stroke="#cccccc" d="M1588.68,-179.066C1561.3,-173.481 1531.01,-161.881 1514,-138 1486.99,-100.074 1537.15,-52.7976 1568.87,-28.3472"/>
<polygon fill="#cccccc" stroke="#cccccc" points="1571.34,-30.8743 1577.25,-22.083 1567.15,-25.2681 1571.34,-30.8743"/>
</g>
<!-- SignedNumberType&#45;&gt;Int64 -->
<g id="edge76" class="edge">
<path fill="none" stroke="#cccccc" d="M1646.48,-173.66C1646.3,-159.27 1647.99,-133.059 1661,-116 1687.94,-80.6824 1811.34,-40.8339 1874.11,-22.39"/>
<polygon fill="#cccccc" stroke="#cccccc" points="1875.37,-25.6666 1884,-19.5131 1873.42,-18.9451 1875.37,-25.6666"/>
</g>
<!-- SignedNumberType&#45;&gt;Int8 -->
<g id="edge77" class="edge">
<path fill="none" stroke="#cccccc" d="M1686.97,-173.968C1717.41,-165.778 1760.06,-153.113 1796,-138 1845.86,-117.031 1857.51,-109.276 1903,-80 1928.05,-63.878 1955.1,-42.9075 1972.94,-28.542"/>
<polygon fill="#cccccc" stroke="#cccccc" points="1975.35,-31.0929 1980.9,-22.0707 1970.94,-25.6599 1975.35,-31.0929"/>
</g>
<!-- _SignedIntegerType -->
<g id="node58" class="node">
<g id="a_node58"><a xlink:href="/protocol/_SignedIntegerType/" target="_top">
<path fill="#999999" stroke="#999999" d="M1780.23,-138C1780.23,-138 1677.77,-138 1677.77,-138 1674.1,-138 1670.44,-134.333 1670.44,-130.667 1670.44,-130.667 1670.44,-123.333 1670.44,-123.333 1670.44,-119.667 1674.1,-116 1677.77,-116 1677.77,-116 1780.23,-116 1780.23,-116 1783.9,-116 1787.56,-119.667 1787.56,-123.333 1787.56,-123.333 1787.56,-130.667 1787.56,-130.667 1787.56,-134.333 1783.9,-138 1780.23,-138"/>
<text text-anchor="middle" x="1729" y="-123.4" font-family="Helvetica,sans-Serif" font-size="12.00" fill="white">_SignedIntegerType</text>
</a>
</g>
</g>
<!-- SignedNumberType&#45;&gt;_SignedIntegerType -->
<g id="edge78" class="edge">
<path fill="none" stroke="#cccccc" d="M1661.66,-173.988C1673.94,-165.599 1691.7,-153.474 1705.89,-143.78"/>
<polygon fill="#cccccc" stroke="#cccccc" points="1707.91,-146.644 1714.19,-138.114 1703.96,-140.863 1707.91,-146.644"/>
</g>
<!-- Strideable&#45;&gt;Double -->
<g id="edge48" class="edge">
<path fill="none" stroke="#cccccc" d="M977.719,-294.279C926.909,-283.211 834,-253.714 834,-186 834,-186 834,-186 834,-126 834,-76.6204 887.78,-43.3582 925.62,-26.0661"/>
<polygon fill="#cccccc" stroke="#cccccc" points="927.104,-29.2372 934.854,-22.0138 924.291,-22.8272 927.104,-29.2372"/>
</g>
<!-- Strideable&#45;&gt;Float -->
<g id="edge49" class="edge">
<path fill="none" stroke="#cccccc" d="M1024.61,-289.827C1056.31,-266.864 1131.37,-207.555 1166,-138 1183.11,-103.63 1186.22,-58.0335 1186.44,-32.1734"/>
<polygon fill="#cccccc" stroke="#cccccc" points="1189.94,-32.0707 1186.39,-22.0898 1182.94,-32.1086 1189.94,-32.0707"/>
</g>
<!-- Strideable&#45;&gt;Float80 -->
<g id="edge50" class="edge">
<path fill="none" stroke="#cccccc" d="M977.857,-294.425C902.352,-280.419 720,-240.909 720,-186 720,-186 720,-186 720,-126 720,-91.5891 734.402,-53.6812 744.459,-31.4041"/>
<polygon fill="#cccccc" stroke="#cccccc" points="747.758,-32.6119 748.836,-22.072 741.421,-29.6394 747.758,-32.6119"/>
</g>
<!-- Strideable&#45;&gt;FloatingPointType -->
<g id="edge51" class="edge">
<path fill="none" stroke="#cccccc" d="M1011.14,-289.818C1014.47,-261.642 1025.3,-180.462 1046,-116 1048.9,-106.968 1053.09,-97.3642 1056.97,-89.2813"/>
<polygon fill="#cccccc" stroke="#cccccc" points="1060.11,-90.8281 1061.44,-80.3166 1053.85,-87.7067 1060.11,-90.8281"/>
</g>
<!-- _RandomAccessIndexType -->
<g id="node56" class="node">
<g id="a_node56"><a xlink:href="/protocol/_RandomAccessIndexType/" target="_top">
<path fill="#999999" stroke="#999999" d="M2712.73,-254C2712.73,-254 2571.27,-254 2571.27,-254 2567.6,-254 2563.94,-250.333 2563.94,-246.667 2563.94,-246.667 2563.94,-239.333 2563.94,-239.333 2563.94,-235.667 2567.6,-232 2571.27,-232 2571.27,-232 2712.73,-232 2712.73,-232 2716.4,-232 2720.06,-235.667 2720.06,-239.333 2720.06,-239.333 2720.06,-246.667 2720.06,-246.667 2720.06,-250.333 2716.4,-254 2712.73,-254"/>
<text text-anchor="middle" x="2642" y="-239.4" font-family="Helvetica,sans-Serif" font-size="12.00" fill="white">_RandomAccessIndexType</text>
</a>
</g>
</g>
<!-- Strideable&#45;&gt;_RandomAccessIndexType -->
<g id="edge52" class="edge">
<path fill="none" stroke="#cccccc" d="M1042.23,-298.894C1235.92,-292.248 2247.11,-257.55 2553.76,-247.028"/>
<polygon fill="#cccccc" stroke="#cccccc" points="2554.06,-250.52 2563.93,-246.679 2553.82,-243.524 2554.06,-250.52"/>
</g>
<!-- UnsignedIntegerType&#45;&gt;UInt -->
<g id="edge41" class="edge">
<path fill="none" stroke="#cccccc" d="M2387.85,-57.9883C2354.06,-48.0811 2302.5,-32.9634 2267.81,-22.7927"/>
<polygon fill="#cccccc" stroke="#cccccc" points="2268.65,-19.3902 2258.06,-19.9352 2266.68,-26.1074 2268.65,-19.3902"/>
</g>
<!-- UnsignedIntegerType&#45;&gt;UInt16 -->
<g id="edge42" class="edge">
<path fill="none" stroke="#cccccc" d="M2400.73,-57.9883C2382.06,-49.2036 2354.68,-36.3222 2333.65,-26.4255"/>
<polygon fill="#cccccc" stroke="#cccccc" points="2335.03,-23.205 2324.49,-22.1138 2332.05,-29.5387 2335.03,-23.205"/>
</g>
<!-- UnsignedIntegerType&#45;&gt;UInt32 -->
<g id="edge43" class="edge">
<path fill="none" stroke="#cccccc" d="M2413.6,-57.9883C2407.13,-50.2806 2398.01,-39.4191 2390.26,-30.187"/>
<polygon fill="#cccccc" stroke="#cccccc" points="2392.76,-27.7136 2383.65,-22.3039 2387.4,-32.2137 2392.76,-27.7136"/>
</g>
<!-- UnsignedIntegerType&#45;&gt;UInt64 -->
<g id="edge44" class="edge">
<path fill="none" stroke="#cccccc" d="M2426.47,-57.9883C2429.73,-50.6738 2434.27,-40.5192 2438.24,-31.6122"/>
<polygon fill="#cccccc" stroke="#cccccc" points="2441.52,-32.8621 2442.4,-22.3039 2435.13,-30.0085 2441.52,-32.8621"/>
</g>
<!-- UnsignedIntegerType&#45;&gt;UInt8 -->
<g id="edge45" class="edge">
<path fill="none" stroke="#cccccc" d="M2439.34,-57.9883C2454.15,-49.441 2475.67,-37.0155 2492.61,-27.2343"/>
<polygon fill="#cccccc" stroke="#cccccc" points="2494.57,-30.1448 2501.48,-22.1138 2491.07,-24.0825 2494.57,-30.1448"/>
</g>
<!-- _BidirectionalIndexType -->
<g id="node52" class="node">
<g id="a_node52"><a xlink:href="/protocol/_BidirectionalIndexType/" target="_top">
<path fill="#999999" stroke="#999999" d="M3126.23,-312C3126.23,-312 3003.77,-312 3003.77,-312 3000.1,-312 2996.44,-308.333 2996.44,-304.667 2996.44,-304.667 2996.44,-297.333 2996.44,-297.333 2996.44,-293.667 3000.1,-290 3003.77,-290 3003.77,-290 3126.23,-290 3126.23,-290 3129.9,-290 3133.56,-293.667 3133.56,-297.333 3133.56,-297.333 3133.56,-304.667 3133.56,-304.667 3133.56,-308.333 3129.9,-312 3126.23,-312"/>
<text text-anchor="middle" x="3065" y="-297.4" font-family="Helvetica,sans-Serif" font-size="12.00" fill="white">_BidirectionalIndexType</text>
</a>
</g>
</g>
<!-- _BidirectionalIndexType&#45;&gt;BidirectionalIndexType -->
<g id="edge117" class="edge">
<path fill="none" stroke="#cccccc" d="M3065,-289.988C3065,-282.91 3065,-273.171 3065,-264.478"/>
<polygon fill="#cccccc" stroke="#cccccc" points="3068.5,-264.304 3065,-254.304 3061.5,-264.304 3068.5,-264.304"/>
</g>
<!-- _BidirectionalIndexType&#45;&gt;_RandomAccessIndexType -->
<g id="edge118" class="edge">
<path fill="none" stroke="#cccccc" d="M2996.57,-290.94C2923.36,-281.248 2807.09,-265.855 2727.8,-255.359"/>
<polygon fill="#cccccc" stroke="#cccccc" points="2728.21,-251.883 2717.84,-254.04 2727.29,-258.822 2728.21,-251.883"/>
</g>
<!-- _ForwardIndexType -->
<g id="node53" class="node">
<g id="a_node53"><a xlink:href="/protocol/_ForwardIndexType/" target="_top">
<path fill="#999999" stroke="#999999" d="M3115.71,-370C3115.71,-370 3014.29,-370 3014.29,-370 3010.62,-370 3006.95,-366.333 3006.95,-362.667 3006.95,-362.667 3006.95,-355.333 3006.95,-355.333 3006.95,-351.667 3010.62,-348 3014.29,-348 3014.29,-348 3115.71,-348 3115.71,-348 3119.38,-348 3123.05,-351.667 3123.05,-355.333 3123.05,-355.333 3123.05,-362.667 3123.05,-362.667 3123.05,-366.333 3119.38,-370 3115.71,-370"/>
<text text-anchor="middle" x="3065" y="-355.4" font-family="Helvetica,sans-Serif" font-size="12.00" fill="white">_ForwardIndexType</text>
</a>
</g>
</g>
<!-- _ForwardIndexType&#45;&gt;ForwardIndexType -->
<g id="edge107" class="edge">
<path fill="none" stroke="#cccccc" d="M3111.3,-347.988C3155.09,-338.521 3220.88,-324.297 3267.68,-314.177"/>
<polygon fill="#cccccc" stroke="#cccccc" points="3268.63,-317.554 3277.66,-312.019 3267.15,-310.712 3268.63,-317.554"/>
</g>
<!-- _ForwardIndexType&#45;&gt;_BidirectionalIndexType -->
<g id="edge108" class="edge">
<path fill="none" stroke="#cccccc" d="M3065,-347.988C3065,-340.91 3065,-331.171 3065,-322.478"/>
<polygon fill="#cccccc" stroke="#cccccc" points="3068.5,-322.304 3065,-312.304 3061.5,-322.304 3068.5,-322.304"/>
</g>
<!-- _Incrementable&#45;&gt;_ForwardIndexType -->
<g id="edge105" class="edge">
<path fill="none" stroke="#cccccc" d="M3024.76,-405.988C3031.57,-398.202 3041.2,-387.197 3049.33,-377.905"/>
<polygon fill="#cccccc" stroke="#cccccc" points="3052.03,-380.134 3055.98,-370.304 3046.77,-375.525 3052.03,-380.134"/>
</g>
<!-- _Incrementable&#45;&gt;_IntegerType -->
<g id="edge106" class="edge">
<path fill="none" stroke="#cccccc" d="M2979.89,-405.969C2846.62,-368.95 2382.46,-240.017 2234.02,-198.785"/>
<polygon fill="#cccccc" stroke="#cccccc" points="2234.87,-195.388 2224.3,-196.084 2233,-202.132 2234.87,-195.388"/>
</g>
<!-- _IntegerType&#45;&gt;IntegerType -->
<g id="edge30" class="edge">
<path fill="none" stroke="#cccccc" d="M2173.88,-173.988C2162.15,-165.678 2145.26,-153.703 2131.65,-144.055"/>
<polygon fill="#cccccc" stroke="#cccccc" points="2133.45,-141.042 2123.27,-138.114 2129.4,-146.752 2133.45,-141.042"/>
</g>
<!-- _IntegerType&#45;&gt;_SignedIntegerType -->
<g id="edge31" class="edge">
<path fill="none" stroke="#cccccc" d="M2147.67,-179.079C2069.07,-169.49 1894.62,-148.206 1797.54,-136.363"/>
<polygon fill="#cccccc" stroke="#cccccc" points="1797.89,-132.879 1787.54,-135.142 1797.04,-139.827 1797.89,-132.879"/>
</g>
<!-- _UnsignedIntegerType -->
<g id="node60" class="node">
<g id="a_node60"><a xlink:href="/protocol/_UnsignedIntegerType/" target="_top">
<path fill="#999999" stroke="#999999" d="M2324.73,-138C2324.73,-138 2209.27,-138 2209.27,-138 2205.6,-138 2201.93,-134.333 2201.93,-130.667 2201.93,-130.667 2201.93,-123.333 2201.93,-123.333 2201.93,-119.667 2205.6,-116 2209.27,-116 2209.27,-116 2324.73,-116 2324.73,-116 2328.4,-116 2332.07,-119.667 2332.07,-123.333 2332.07,-123.333 2332.07,-130.667 2332.07,-130.667 2332.07,-134.333 2328.4,-138 2324.73,-138"/>
<text text-anchor="middle" x="2267" y="-123.4" font-family="Helvetica,sans-Serif" font-size="12.00" fill="white">_UnsignedIntegerType</text>
</a>
</g>
</g>
<!-- _IntegerType&#45;&gt;_UnsignedIntegerType -->
<g id="edge32" class="edge">
<path fill="none" stroke="#cccccc" d="M2202.12,-173.988C2213.85,-165.678 2230.74,-153.703 2244.35,-144.055"/>
<polygon fill="#cccccc" stroke="#cccccc" points="2246.6,-146.752 2252.73,-138.114 2242.55,-141.042 2246.6,-146.752"/>
</g>
<!-- _RandomAccessIndexType&#45;&gt;RandomAccessIndexType -->
<g id="edge55" class="edge">
<path fill="none" stroke="#cccccc" d="M2605.17,-231.988C2571,-222.7 2519.99,-208.832 2482.92,-198.754"/>
<polygon fill="#cccccc" stroke="#cccccc" points="2483.42,-195.265 2472.86,-196.019 2481.59,-202.02 2483.42,-195.265"/>
</g>
<!-- _RawOptionSetType&#45;&gt;RawOptionSetType -->
<g id="edge119" class="edge">
<path fill="none" stroke="#cccccc" d="M4349,-405.988C4349,-398.91 4349,-389.171 4349,-380.478"/>
<polygon fill="#cccccc" stroke="#cccccc" points="4352.5,-380.304 4349,-370.304 4345.5,-380.304 4352.5,-380.304"/>
</g>
<!-- _SignedIntegerType&#45;&gt;SignedIntegerType -->
<g id="edge46" class="edge">
<path fill="none" stroke="#cccccc" d="M1748.67,-115.988C1765.77,-107.283 1790.77,-94.5539 1810.14,-84.6937"/>
<polygon fill="#cccccc" stroke="#cccccc" points="1811.81,-87.7698 1819.13,-80.1138 1808.63,-81.5316 1811.81,-87.7698"/>
</g>
<!-- _SignedNumberType&#45;&gt;SignedNumberType -->
<g id="edge71" class="edge">
<path fill="none" stroke="#cccccc" d="M1647,-289.883C1647,-271.17 1647,-230.827 1647,-206.287"/>
<polygon fill="#cccccc" stroke="#cccccc" points="1650.5,-206.258 1647,-196.258 1643.5,-206.258 1650.5,-206.258"/>
</g>
<!-- _UnsignedIntegerType&#45;&gt;UnsignedIntegerType -->
<g id="edge47" class="edge">
<path fill="none" stroke="#cccccc" d="M2294.71,-115.988C2319.76,-106.938 2356.84,-93.5399 2384.53,-83.5367"/>
<polygon fill="#cccccc" stroke="#cccccc" points="2386.05,-86.709 2394.27,-80.0192 2383.67,-80.1255 2386.05,-86.709"/>
</g>
</g>
</svg>
