<?xml version="1.0" encoding="UTF-8" standalone="no"?>
<!DOCTYPE svg PUBLIC "-//W3C//DTD SVG 1.1//EN"
 "http://www.w3.org/Graphics/SVG/1.1/DTD/svg11.dtd">
<!-- Generated by graphviz version 2.36.0 (20140111.2315)
 -->
<!-- Title: Equatable &#45; Type Hierarchy &#45; SwiftDoc.org Pages: 1 -->
<svg width="4843pt" height="601pt"
 viewBox="0.00 0.00 4843.40 601.20" xmlns="http://www.w3.org/2000/svg" xmlns:xlink="http://www.w3.org/1999/xlink">
<g id="graph0" class="graph" transform="scale(1 1) rotate(0) translate(7.2 543.6)">
<title>Equatable &#45; Type Hierarchy &#45; SwiftDoc.org</title>
<polygon fill="white" stroke="none" points="-7.2,57.6 -7.2,-543.6 4836.2,-543.6 4836.2,57.6 -7.2,57.6"/>
<!-- AbsoluteValuable -->
<g id="node1" class="node"><title>AbsoluteValuable</title>
<g id="a_node1"><a xlink:href="/protocol/AbsoluteValuable/" xlink:title="AbsoluteValuable">
<path fill="#999999" stroke="#999999" d="M965.558,-138C965.558,-138 878.442,-138 878.442,-138 874.775,-138 871.109,-134.333 871.109,-130.667 871.109,-130.667 871.109,-123.333 871.109,-123.333 871.109,-119.667 874.775,-116 878.442,-116 878.442,-116 965.558,-116 965.558,-116 969.225,-116 972.891,-119.667 972.891,-123.333 972.891,-123.333 972.891,-130.667 972.891,-130.667 972.891,-134.333 969.225,-138 965.558,-138"/>
<text text-anchor="middle" x="922" y="-123.4" font-family="Helvetica,sans-Serif" font-size="12.00" fill="white">AbsoluteValuable</text>
</a>
</g>
</g>
<!-- Double -->
<g id="node12" class="node"><title>Double</title>
<g id="a_node12"><a xlink:href="/type/Double/" xlink:title="Double">
<polygon fill="#999999" stroke="#999999" points="672,-22 618,-22 618,-0 672,-0 672,-22"/>
<text text-anchor="middle" x="645" y="-7.4" font-family="Helvetica,sans-Serif" font-size="12.00" fill="white">Double</text>
</a>
</g>
</g>
<!-- AbsoluteValuable&#45;&gt;Double -->
<g id="edge83" class="edge"><title>AbsoluteValuable&#45;&gt;Double</title>
<path fill="none" stroke="#cccccc" d="M871.002,-122.814C805.79,-117.741 697.731,-105.653 668,-80 654.181,-68.0766 648.646,-47.5406 646.439,-32.1485"/>
<polygon fill="#cccccc" stroke="#cccccc" points="649.902,-31.6135 645.35,-22.0465 642.942,-32.3642 649.902,-31.6135"/>
</g>
<!-- Float -->
<g id="node15" class="node"><title>Float</title>
<g id="a_node15"><a xlink:href="/type/Float/" xlink:title="Float">
<polygon fill="#999999" stroke="#999999" points="1028,-22 974,-22 974,-0 1028,-0 1028,-22"/>
<text text-anchor="middle" x="1001" y="-7.4" font-family="Helvetica,sans-Serif" font-size="12.00" fill="white">Float</text>
</a>
</g>
</g>
<!-- AbsoluteValuable&#45;&gt;Float -->
<g id="edge84" class="edge"><title>AbsoluteValuable&#45;&gt;Float</title>
<path fill="none" stroke="#cccccc" d="M929.011,-115.883C942.271,-96.7488 971.203,-54.9984 988.074,-30.6529"/>
<polygon fill="#cccccc" stroke="#cccccc" points="991.072,-32.4708 993.891,-22.2579 985.319,-28.4837 991.072,-32.4708"/>
</g>
<!-- Float80 -->
<g id="node16" class="node"><title>Float80</title>
<g id="a_node16"><a xlink:href="/type/Float80/" xlink:title="Float80">
<polygon fill="#999999" stroke="#999999" points="895,-22 841,-22 841,-0 895,-0 895,-22"/>
<text text-anchor="middle" x="868" y="-7.4" font-family="Helvetica,sans-Serif" font-size="12.00" fill="white">Float80</text>
</a>
</g>
</g>
<!-- AbsoluteValuable&#45;&gt;Float80 -->
<g id="edge85" class="edge"><title>AbsoluteValuable&#45;&gt;Float80</title>
<path fill="none" stroke="#cccccc" d="M919.963,-115.935C916.971,-102.314 910.672,-77.4767 901,-58 896.185,-48.303 889.403,-38.434 883.239,-30.3365"/>
<polygon fill="#cccccc" stroke="#cccccc" points="885.863,-28.0113 876.915,-22.3371 880.371,-32.3525 885.863,-28.0113"/>
</g>
<!-- AutoreleasingUnsafeMutablePointer -->
<g id="node2" class="node"><title>AutoreleasingUnsafeMutablePointer</title>
<g id="a_node2"><a xlink:href="/type/AutoreleasingUnsafeMutablePointer/" xlink:title="AutoreleasingUnsafeMutablePointer">
<polygon fill="#999999" stroke="#999999" points="202.088,-22 -0.0879076,-22 -0.0879076,-0 202.088,-0 202.088,-22"/>
<text text-anchor="middle" x="101" y="-7.4" font-family="Helvetica,sans-Serif" font-size="12.00" fill="white">AutoreleasingUnsafeMutablePointer</text>
</a>
</g>
</g>
<!-- BidirectionalIndexType -->
<g id="node3" class="node"><title>BidirectionalIndexType</title>
<g id="a_node3"><a xlink:href="/protocol/BidirectionalIndexType/" xlink:title="BidirectionalIndexType">
<path fill="#999999" stroke="#999999" d="M3279.73,-254C3279.73,-254 3164.27,-254 3164.27,-254 3160.61,-254 3156.94,-250.333 3156.94,-246.667 3156.94,-246.667 3156.94,-239.333 3156.94,-239.333 3156.94,-235.667 3160.61,-232 3164.27,-232 3164.27,-232 3279.73,-232 3279.73,-232 3283.39,-232 3287.06,-235.667 3287.06,-239.333 3287.06,-239.333 3287.06,-246.667 3287.06,-246.667 3287.06,-250.333 3283.39,-254 3279.73,-254"/>
<text text-anchor="middle" x="3222" y="-239.4" font-family="Helvetica,sans-Serif" font-size="12.00" fill="white">BidirectionalIndexType</text>
</a>
</g>
</g>
<!-- RandomAccessIndexType -->
<g id="node31" class="node"><title>RandomAccessIndexType</title>
<g id="a_node31"><a xlink:href="/protocol/RandomAccessIndexType/" xlink:title="RandomAccessIndexType">
<path fill="#999999" stroke="#999999" d="M2527.23,-196C2527.23,-196 2392.77,-196 2392.77,-196 2389.11,-196 2385.44,-192.333 2385.44,-188.667 2385.44,-188.667 2385.44,-181.333 2385.44,-181.333 2385.44,-177.667 2389.11,-174 2392.77,-174 2392.77,-174 2527.23,-174 2527.23,-174 2530.89,-174 2534.56,-177.667 2534.56,-181.333 2534.56,-181.333 2534.56,-188.667 2534.56,-188.667 2534.56,-192.333 2530.89,-196 2527.23,-196"/>
<text text-anchor="middle" x="2460" y="-181.4" font-family="Helvetica,sans-Serif" font-size="12.00" fill="white">RandomAccessIndexType</text>
</a>
</g>
</g>
<!-- BidirectionalIndexType&#45;&gt;RandomAccessIndexType -->
<g id="edge119" class="edge"><title>BidirectionalIndexType&#45;&gt;RandomAccessIndexType</title>
<path fill="none" stroke="#cccccc" d="M3156.7,-237.201C3018.84,-227.07 2698.18,-203.504 2544.75,-192.228"/>
<polygon fill="#cccccc" stroke="#cccccc" points="2544.67,-188.713 2534.44,-191.471 2544.16,-195.694 2544.67,-188.713"/>
</g>
<!-- ReverseBidirectionalIndex -->
<g id="node34" class="node"><title>ReverseBidirectionalIndex</title>
<g id="a_node34"><a xlink:href="/type/ReverseBidirectionalIndex/" xlink:title="ReverseBidirectionalIndex">
<polygon fill="#999999" stroke="#999999" points="3631.55,-22 3482.45,-22 3482.45,-0 3631.55,-0 3631.55,-22"/>
<text text-anchor="middle" x="3557" y="-7.4" font-family="Helvetica,sans-Serif" font-size="12.00" fill="white">ReverseBidirectionalIndex</text>
</a>
</g>
</g>
<!-- BidirectionalIndexType&#45;&gt;ReverseBidirectionalIndex -->
<g id="edge120" class="edge"><title>BidirectionalIndexType&#45;&gt;ReverseBidirectionalIndex</title>
<path fill="none" stroke="#cccccc" d="M3231.28,-231.843C3259.39,-201.583 3347.15,-110.864 3436,-58 3459.49,-44.0236 3487.97,-32.9444 3511.4,-25.1644"/>
<polygon fill="#cccccc" stroke="#cccccc" points="3512.66,-28.4355 3521.1,-22.0332 3510.51,-21.7738 3512.66,-28.4355"/>
</g>
<!-- String.Index -->
<g id="node42" class="node"><title>String.Index</title>
<g id="a_node42"><a xlink:href="/type/String.Index/" xlink:title="String.Index">
<polygon fill="#999999" stroke="#999999" points="3148.03,-22 3073.97,-22 3073.97,-0 3148.03,-0 3148.03,-22"/>
<text text-anchor="middle" x="3111" y="-7.4" font-family="Helvetica,sans-Serif" font-size="12.00" fill="white">String.Index</text>
</a>
</g>
</g>
<!-- BidirectionalIndexType&#45;&gt;String.Index -->
<g id="edge121" class="edge"><title>BidirectionalIndexType&#45;&gt;String.Index</title>
<path fill="none" stroke="#cccccc" d="M3217.09,-231.82C3199.97,-196.345 3142.75,-77.7884 3120.22,-31.114"/>
<polygon fill="#cccccc" stroke="#cccccc" points="3123.35,-29.5468 3115.86,-22.062 3117.05,-32.5893 3123.35,-29.5468"/>
</g>
<!-- String.UTF16View.Index -->
<g id="node43" class="node"><title>String.UTF16View.Index</title>
<g id="a_node43"><a xlink:href="/type/String.UTF16View.Index/" xlink:title="String.UTF16View.Index">
<polygon fill="#999999" stroke="#999999" points="3055.39,-22 2916.61,-22 2916.61,-0 3055.39,-0 3055.39,-22"/>
<text text-anchor="middle" x="2986" y="-7.4" font-family="Helvetica,sans-Serif" font-size="12.00" fill="white">String.UTF16View.Index</text>
</a>
</g>
</g>
<!-- BidirectionalIndexType&#45;&gt;String.UTF16View.Index -->
<g id="edge122" class="edge"><title>BidirectionalIndexType&#45;&gt;String.UTF16View.Index</title>
<path fill="none" stroke="#cccccc" d="M3212.14,-231.853C3184.78,-203.767 3105.41,-122.795 3037,-58 3026.58,-48.1347 3014.69,-37.3821 3005.02,-28.7551"/>
<polygon fill="#cccccc" stroke="#cccccc" points="3007.29,-26.094 2997.49,-22.0746 3002.64,-31.3298 3007.29,-26.094"/>
</g>
<!-- String.UnicodeScalarView.Index -->
<g id="node45" class="node"><title>String.UnicodeScalarView.Index</title>
<g id="a_node45"><a xlink:href="/type/String.UnicodeScalarView.Index/" xlink:title="String.UnicodeScalarView.Index">
<polygon fill="#999999" stroke="#999999" points="3463.92,-22 3284.08,-22 3284.08,-0 3463.92,-0 3463.92,-22"/>
<text text-anchor="middle" x="3374" y="-7.4" font-family="Helvetica,sans-Serif" font-size="12.00" fill="white">String.UnicodeScalarView.Index</text>
</a>
</g>
</g>
<!-- BidirectionalIndexType&#45;&gt;String.UnicodeScalarView.Index -->
<g id="edge123" class="edge"><title>BidirectionalIndexType&#45;&gt;String.UnicodeScalarView.Index</title>
<path fill="none" stroke="#cccccc" d="M3226.09,-231.684C3237.97,-202.471 3274.68,-117.457 3322,-58 3330.68,-47.0952 3342.13,-36.6571 3352.07,-28.4886"/>
<polygon fill="#cccccc" stroke="#cccccc" points="3354.33,-31.1646 3359.98,-22.2005 3349.97,-25.6861 3354.33,-31.1646"/>
</g>
<!-- Bit -->
<g id="node4" class="node"><title>Bit</title>
<g id="a_node4"><a xlink:href="/type/Bit/" xlink:title="Bit">
<polygon fill="#999999" stroke="#999999" points="2096,-22 2042,-22 2042,-0 2096,-0 2096,-22"/>
<text text-anchor="middle" x="2069" y="-7.4" font-family="Helvetica,sans-Serif" font-size="12.00" fill="white">Bit</text>
</a>
</g>
</g>
<!-- Bool -->
<g id="node5" class="node"><title>Bool</title>
<g id="a_node5"><a xlink:href="/type/Bool/" xlink:title="Bool">
<polygon fill="#999999" stroke="#999999" points="274,-22 220,-22 220,-0 274,-0 274,-22"/>
<text text-anchor="middle" x="247" y="-7.4" font-family="Helvetica,sans-Serif" font-size="12.00" fill="white">Bool</text>
</a>
</g>
</g>
<!-- CFunctionPointer -->
<g id="node6" class="node"><title>CFunctionPointer</title>
<g id="a_node6"><a xlink:href="/type/CFunctionPointer/" xlink:title="CFunctionPointer">
<polygon fill="#999999" stroke="#999999" points="394.036,-22 291.964,-22 291.964,-0 394.036,-0 394.036,-22"/>
<text text-anchor="middle" x="343" y="-7.4" font-family="Helvetica,sans-Serif" font-size="12.00" fill="white">CFunctionPointer</text>
</a>
</g>
</g>
<!-- COpaquePointer -->
<g id="node7" class="node"><title>COpaquePointer</title>
<g id="a_node7"><a xlink:href="/type/COpaquePointer/" xlink:title="COpaquePointer">
<polygon fill="#999999" stroke="#999999" points="3265.54,-22 3166.46,-22 3166.46,-0 3265.54,-0 3265.54,-22"/>
<text text-anchor="middle" x="3216" y="-7.4" font-family="Helvetica,sans-Serif" font-size="12.00" fill="white">COpaquePointer</text>
</a>
</g>
</g>
<!-- Character -->
<g id="node8" class="node"><title>Character</title>
<g id="a_node8"><a xlink:href="/type/Character/" xlink:title="Character">
<polygon fill="#999999" stroke="#999999" points="475.017,-22 412.983,-22 412.983,-0 475.017,-0 475.017,-22"/>
<text text-anchor="middle" x="444" y="-7.4" font-family="Helvetica,sans-Serif" font-size="12.00" fill="white">Character</text>
</a>
</g>
</g>
<!-- ClosedInterval -->
<g id="node9" class="node"><title>ClosedInterval</title>
<g id="a_node9"><a xlink:href="/type/ClosedInterval/" xlink:title="ClosedInterval">
<polygon fill="#999999" stroke="#999999" points="4236.03,-22 4149.97,-22 4149.97,-0 4236.03,-0 4236.03,-22"/>
<text text-anchor="middle" x="4193" y="-7.4" font-family="Helvetica,sans-Serif" font-size="12.00" fill="white">ClosedInterval</text>
</a>
</g>
</g>
<!-- Comparable -->
<g id="node10" class="node"><title>Comparable</title>
<g id="a_node10"><a xlink:href="/protocol/Comparable/" xlink:title="Comparable">
<path fill="#999999" stroke="#999999" d="M1830.19,-370C1830.19,-370 1769.81,-370 1769.81,-370 1766.14,-370 1762.48,-366.333 1762.48,-362.667 1762.48,-362.667 1762.48,-355.333 1762.48,-355.333 1762.48,-351.667 1766.14,-348 1769.81,-348 1769.81,-348 1830.19,-348 1830.19,-348 1833.86,-348 1837.52,-351.667 1837.52,-355.333 1837.52,-355.333 1837.52,-362.667 1837.52,-362.667 1837.52,-366.333 1833.86,-370 1830.19,-370"/>
<text text-anchor="middle" x="1800" y="-355.4" font-family="Helvetica,sans-Serif" font-size="12.00" fill="white">Comparable</text>
</a>
</g>
</g>
<!-- Comparable&#45;&gt;Character -->
<g id="edge16" class="edge"><title>Comparable&#45;&gt;Character</title>
<path fill="none" stroke="#cccccc" d="M1762.6,-357.956C1585,-357.536 825.801,-353.311 593,-312 496.405,-294.859 383,-342.105 383,-244 383,-244 383,-244 383,-126 383,-88.1506 409.464,-50.704 427.53,-29.5499"/>
<polygon fill="#cccccc" stroke="#cccccc" points="430.186,-31.8296 434.199,-22.0241 424.948,-27.187 430.186,-31.8296"/>
</g>
<!-- DictionaryIndex -->
<g id="node11" class="node"><title>DictionaryIndex</title>
<g id="a_node11"><a xlink:href="/type/DictionaryIndex/" xlink:title="DictionaryIndex">
<polygon fill="#999999" stroke="#999999" points="3742.03,-22 3649.97,-22 3649.97,-0 3742.03,-0 3742.03,-22"/>
<text text-anchor="middle" x="3696" y="-7.4" font-family="Helvetica,sans-Serif" font-size="12.00" fill="white">DictionaryIndex</text>
</a>
</g>
</g>
<!-- Comparable&#45;&gt;DictionaryIndex -->
<g id="edge17" class="edge"><title>Comparable&#45;&gt;DictionaryIndex</title>
<path fill="none" stroke="#cccccc" d="M1837.65,-357.73C2066.94,-355.981 3268.21,-345.249 3338,-312 3461.08,-253.36 3399.7,-138.128 3510,-58 3520.63,-50.2792 3588.96,-34.5714 3639.74,-23.6736"/>
<polygon fill="#cccccc" stroke="#cccccc" points="3640.59,-27.0712 3649.64,-21.5619 3639.13,-20.2253 3640.59,-27.0712"/>
</g>
<!-- Comparable&#45;&gt;Double -->
<g id="edge18" class="edge"><title>Comparable&#45;&gt;Double</title>
<path fill="none" stroke="#cccccc" d="M1762.45,-358.097C1594,-358.279 907.05,-356.241 697,-312 627.868,-297.439 597.111,-305.736 549,-254 512.883,-215.162 525.522,-190.843 521,-138 517.775,-100.318 523.088,-84.572 550,-58 566.286,-41.9193 589.294,-30.5803 608.588,-23.1838"/>
<polygon fill="#cccccc" stroke="#cccccc" points="609.792,-26.47 617.998,-19.7686 607.404,-19.8899 609.792,-26.47"/>
</g>
<!-- Comparable&#45;&gt;Float -->
<g id="edge19" class="edge"><title>Comparable&#45;&gt;Float</title>
<path fill="none" stroke="#cccccc" d="M1762.57,-356.054C1670.58,-350.956 1435.51,-335.928 1361,-312 1197.83,-259.603 1171.21,-204.088 1053,-80 1038.2,-64.4641 1023.55,-44.8238 1013.6,-30.6498"/>
<polygon fill="#cccccc" stroke="#cccccc" points="1016.34,-28.4612 1007.78,-22.223 1010.58,-32.4399 1016.34,-28.4612"/>
</g>
<!-- Comparable&#45;&gt;Float80 -->
<g id="edge20" class="edge"><title>Comparable&#45;&gt;Float80</title>
<path fill="none" stroke="#cccccc" d="M1762.41,-358.126C1678.35,-357.632 1469.22,-352.091 1300,-312 1093.76,-263.141 975.437,-313.088 856,-138 834.136,-105.949 848.139,-58.1731 858.935,-31.6091"/>
<polygon fill="#cccccc" stroke="#cccccc" points="862.23,-32.807 862.973,-22.2383 855.802,-30.0367 862.23,-32.807"/>
</g>
<!-- IntegerArithmeticType -->
<g id="node27" class="node"><title>IntegerArithmeticType</title>
<g id="a_node27"><a xlink:href="/protocol/IntegerArithmeticType/" xlink:title="IntegerArithmeticType">
<path fill="#999999" stroke="#999999" d="M2028.71,-254C2028.71,-254 1917.29,-254 1917.29,-254 1913.62,-254 1909.96,-250.333 1909.96,-246.667 1909.96,-246.667 1909.96,-239.333 1909.96,-239.333 1909.96,-235.667 1913.62,-232 1917.29,-232 1917.29,-232 2028.71,-232 2028.71,-232 2032.38,-232 2036.04,-235.667 2036.04,-239.333 2036.04,-239.333 2036.04,-246.667 2036.04,-246.667 2036.04,-250.333 2032.38,-254 2028.71,-254"/>
<text text-anchor="middle" x="1973" y="-239.4" font-family="Helvetica,sans-Serif" font-size="12.00" fill="white">IntegerArithmeticType</text>
</a>
</g>
</g>
<!-- Comparable&#45;&gt;IntegerArithmeticType -->
<g id="edge21" class="edge"><title>Comparable&#45;&gt;IntegerArithmeticType</title>
<path fill="none" stroke="#cccccc" d="M1815.35,-347.883C1845.54,-327.99 1912.83,-283.652 1948.96,-259.842"/>
<polygon fill="#cccccc" stroke="#cccccc" points="1951.01,-262.683 1957.43,-254.258 1947.16,-256.838 1951.01,-262.683"/>
</g>
<!-- ObjectIdentifier -->
<g id="node30" class="node"><title>ObjectIdentifier</title>
<g id="a_node30"><a xlink:href="/type/ObjectIdentifier/" xlink:title="ObjectIdentifier">
<polygon fill="#999999" stroke="#999999" points="1272.03,-22 1181.97,-22 1181.97,-0 1272.03,-0 1272.03,-22"/>
<text text-anchor="middle" x="1227" y="-7.4" font-family="Helvetica,sans-Serif" font-size="12.00" fill="white">ObjectIdentifier</text>
</a>
</g>
</g>
<!-- Comparable&#45;&gt;ObjectIdentifier -->
<g id="edge22" class="edge"><title>Comparable&#45;&gt;ObjectIdentifier</title>
<path fill="none" stroke="#cccccc" d="M1762.42,-352.676C1648.77,-335.753 1312.55,-279.361 1247,-196 1209.02,-147.7 1216.62,-68.8956 1222.9,-32.1055"/>
<polygon fill="#cccccc" stroke="#cccccc" points="1226.37,-32.5878 1224.75,-22.117 1219.49,-31.3103 1226.37,-32.5878"/>
</g>
<!-- SetIndex -->
<g id="node37" class="node"><title>SetIndex</title>
<g id="a_node37"><a xlink:href="/type/SetIndex/" xlink:title="SetIndex">
<polygon fill="#999999" stroke="#999999" points="3817.52,-22 3760.48,-22 3760.48,-0 3817.52,-0 3817.52,-22"/>
<text text-anchor="middle" x="3789" y="-7.4" font-family="Helvetica,sans-Serif" font-size="12.00" fill="white">SetIndex</text>
</a>
</g>
</g>
<!-- Comparable&#45;&gt;SetIndex -->
<g id="edge23" class="edge"><title>Comparable&#45;&gt;SetIndex</title>
<path fill="none" stroke="#cccccc" d="M1837.7,-358.209C2062.36,-359.278 3219.88,-362.299 3369,-312 3460.16,-281.253 3545,-282.201 3545,-186 3545,-186 3545,-186 3545,-126 3545,-103.55 3682.33,-50.6233 3750.93,-25.583"/>
<polygon fill="#cccccc" stroke="#cccccc" points="3752.33,-28.8006 3760.53,-22.0978 3749.94,-22.2208 3752.33,-28.8006"/>
</g>
<!-- Strideable -->
<g id="node40" class="node"><title>Strideable</title>
<g id="a_node40"><a xlink:href="/protocol/Strideable/" xlink:title="Strideable">
<path fill="#999999" stroke="#999999" d="M762.693,-312C762.693,-312 713.307,-312 713.307,-312 709.64,-312 705.974,-308.333 705.974,-304.667 705.974,-304.667 705.974,-297.333 705.974,-297.333 705.974,-293.667 709.64,-290 713.307,-290 713.307,-290 762.693,-290 762.693,-290 766.36,-290 770.026,-293.667 770.026,-297.333 770.026,-297.333 770.026,-304.667 770.026,-304.667 770.026,-308.333 766.36,-312 762.693,-312"/>
<text text-anchor="middle" x="738" y="-297.4" font-family="Helvetica,sans-Serif" font-size="12.00" fill="white">Strideable</text>
</a>
</g>
</g>
<!-- Comparable&#45;&gt;Strideable -->
<g id="edge24" class="edge"><title>Comparable&#45;&gt;Strideable</title>
<path fill="none" stroke="#cccccc" d="M1762.41,-358.053C1629.59,-357.862 1170.18,-354.005 794,-312 789.517,-311.499 784.852,-310.859 780.211,-310.145"/>
<polygon fill="#cccccc" stroke="#cccccc" points="780.609,-306.664 770.173,-308.489 779.47,-313.57 780.609,-306.664"/>
</g>
<!-- String -->
<g id="node41" class="node"><title>String</title>
<g id="a_node41"><a xlink:href="/type/String/" xlink:title="String">
<polygon fill="#999999" stroke="#999999" points="2898,-22 2844,-22 2844,-0 2898,-0 2898,-22"/>
<text text-anchor="middle" x="2871" y="-7.4" font-family="Helvetica,sans-Serif" font-size="12.00" fill="white">String</text>
</a>
</g>
</g>
<!-- Comparable&#45;&gt;String -->
<g id="edge25" class="edge"><title>Comparable&#45;&gt;String</title>
<path fill="none" stroke="#cccccc" d="M1837.44,-358.257C2033.72,-359.122 2935,-356.945 2935,-244 2935,-244 2935,-244 2935,-184 2935,-125.35 2901.91,-62.1144 2883.32,-31.212"/>
<polygon fill="#cccccc" stroke="#cccccc" points="2886.08,-29.03 2877.85,-22.3617 2880.13,-32.7088 2886.08,-29.03"/>
</g>
<!-- Comparable&#45;&gt;String.Index -->
<g id="edge28" class="edge"><title>Comparable&#45;&gt;String.Index</title>
<path fill="none" stroke="#cccccc" d="M1837.53,-357.699C2017.66,-356.08 2788.98,-347.137 2890,-312 3019.42,-266.984 3085.97,-91.0801 3105.09,-31.7017"/>
<polygon fill="#cccccc" stroke="#cccccc" points="3108.47,-32.6171 3108.11,-22.0284 3101.79,-30.5296 3108.47,-32.6171"/>
</g>
<!-- Comparable&#45;&gt;String.UTF16View.Index -->
<g id="edge29" class="edge"><title>Comparable&#45;&gt;String.UTF16View.Index</title>
<path fill="none" stroke="#cccccc" d="M1837.45,-357.323C2012.06,-354.037 2741.88,-338.798 2840,-312 2892.94,-297.543 2917.26,-298.766 2949,-254 2997.85,-185.107 2993.16,-77.3654 2988.61,-32.5881"/>
<polygon fill="#cccccc" stroke="#cccccc" points="2992.06,-31.9384 2987.46,-22.3932 2985.1,-32.7222 2992.06,-31.9384"/>
</g>
<!-- Comparable&#45;&gt;String.UnicodeScalarView.Index -->
<g id="edge30" class="edge"><title>Comparable&#45;&gt;String.UnicodeScalarView.Index</title>
<path fill="none" stroke="#cccccc" d="M1837.37,-357.583C2062.34,-354.982 3229.21,-340.166 3299,-312 3340.72,-295.161 3374,-288.994 3374,-244 3374,-244 3374,-244 3374,-126 3374,-93.1536 3374,-54.9837 3374,-32.197"/>
<polygon fill="#cccccc" stroke="#cccccc" points="3377.5,-32.0648 3374,-22.0648 3370.5,-32.0648 3377.5,-32.0648"/>
</g>
<!-- UnicodeScalar -->
<g id="node51" class="node"><title>UnicodeScalar</title>
<g id="a_node51"><a xlink:href="/type/UnicodeScalar/" xlink:title="UnicodeScalar">
<polygon fill="#999999" stroke="#999999" points="1161.03,-22 1072.97,-22 1072.97,-0 1161.03,-0 1161.03,-22"/>
<text text-anchor="middle" x="1117" y="-7.4" font-family="Helvetica,sans-Serif" font-size="12.00" fill="white">UnicodeScalar</text>
</a>
</g>
</g>
<!-- Comparable&#45;&gt;UnicodeScalar -->
<g id="edge26" class="edge"><title>Comparable&#45;&gt;UnicodeScalar</title>
<path fill="none" stroke="#cccccc" d="M1762.44,-358.816C1673.79,-359.038 1447.35,-349.491 1293,-254 1203.26,-198.48 1145.12,-78.6961 1124.93,-31.5934"/>
<polygon fill="#cccccc" stroke="#cccccc" points="1128.1,-30.0865 1121.01,-22.2127 1121.64,-32.7887 1128.1,-30.0865"/>
</g>
<!-- _SignedNumberType -->
<g id="node62" class="node"><title>_SignedNumberType</title>
<g id="a_node62"><a xlink:href="/protocol/_SignedNumberType/" xlink:title="_SignedNumberType">
<path fill="#999999" stroke="#999999" d="M1672.72,-312C1672.72,-312 1565.28,-312 1565.28,-312 1561.61,-312 1557.94,-308.333 1557.94,-304.667 1557.94,-304.667 1557.94,-297.333 1557.94,-297.333 1557.94,-293.667 1561.61,-290 1565.28,-290 1565.28,-290 1672.72,-290 1672.72,-290 1676.39,-290 1680.06,-293.667 1680.06,-297.333 1680.06,-297.333 1680.06,-304.667 1680.06,-304.667 1680.06,-308.333 1676.39,-312 1672.72,-312"/>
<text text-anchor="middle" x="1619" y="-297.4" font-family="Helvetica,sans-Serif" font-size="12.00" fill="white">_SignedNumberType</text>
</a>
</g>
</g>
<!-- Comparable&#45;&gt;_SignedNumberType -->
<g id="edge27" class="edge"><title>Comparable&#45;&gt;_SignedNumberType</title>
<path fill="none" stroke="#cccccc" d="M1767.64,-347.988C1737.88,-338.779 1693.56,-325.068 1661.06,-315.013"/>
<polygon fill="#cccccc" stroke="#cccccc" points="1661.97,-311.631 1651.38,-312.019 1659.9,-318.319 1661.97,-311.631"/>
</g>
<!-- Equatable -->
<g id="node13" class="node"><title>Equatable</title>
<g id="a_node13"><a xlink:href="/protocol/Equatable/" xlink:title="Equatable">
<path fill="#ee543d" stroke="#ee543d" d="M3215.7,-486C3215.7,-486 3166.3,-486 3166.3,-486 3162.63,-486 3158.96,-482.333 3158.96,-478.667 3158.96,-478.667 3158.96,-471.333 3158.96,-471.333 3158.96,-467.667 3162.63,-464 3166.3,-464 3166.3,-464 3215.7,-464 3215.7,-464 3219.37,-464 3223.04,-467.667 3223.04,-471.333 3223.04,-471.333 3223.04,-478.667 3223.04,-478.667 3223.04,-482.333 3219.37,-486 3215.7,-486"/>
<text text-anchor="middle" x="3191" y="-471.4" font-family="Helvetica,sans-Serif" font-size="12.00" fill="white">Equatable</text>
</a>
</g>
</g>
<!-- Equatable&#45;&gt;AutoreleasingUnsafeMutablePointer -->
<g id="edge1" class="edge"><title>Equatable&#45;&gt;AutoreleasingUnsafeMutablePointer</title>
<path fill="none" stroke="#cccccc" d="M3158.65,-473.898C2847.33,-472.862 390.325,-463.574 241,-428 173.71,-411.969 101,-429.174 101,-360 101,-360 101,-360 101,-126 101,-93.1536 101,-54.9837 101,-32.197"/>
<polygon fill="#cccccc" stroke="#cccccc" points="104.5,-32.0648 101,-22.0648 97.5001,-32.0648 104.5,-32.0648"/>
</g>
<!-- Equatable&#45;&gt;Bool -->
<g id="edge2" class="edge"><title>Equatable&#45;&gt;Bool</title>
<path fill="none" stroke="#cccccc" d="M3158.51,-473.922C2843.3,-473.114 339.046,-465.521 273,-428 242.114,-410.454 231,-395.522 231,-360 231,-360 231,-360 231,-126 231,-92.8519 237.716,-54.8038 242.446,-32.1192"/>
<polygon fill="#cccccc" stroke="#cccccc" points="245.875,-32.8202 244.57,-22.3061 239.034,-31.3393 245.875,-32.8202"/>
</g>
<!-- Equatable&#45;&gt;CFunctionPointer -->
<g id="edge3" class="edge"><title>Equatable&#45;&gt;CFunctionPointer</title>
<path fill="none" stroke="#cccccc" d="M3158.63,-473.925C2906.49,-473.256 1253.1,-467.406 755,-428 537.575,-410.799 269,-578.104 269,-360 269,-360 269,-360 269,-126 269,-86.2817 300.994,-49.5078 322.907,-28.9784"/>
<polygon fill="#cccccc" stroke="#cccccc" points="325.368,-31.4725 330.447,-22.1745 320.678,-26.2758 325.368,-31.4725"/>
</g>
<!-- Equatable&#45;&gt;COpaquePointer -->
<g id="edge4" class="edge"><title>Equatable&#45;&gt;COpaquePointer</title>
<path fill="none" stroke="#cccccc" d="M3206.41,-463.756C3238.85,-441.086 3313.26,-383.01 3338,-312 3376.04,-202.809 3274.23,-75.4492 3232.72,-29.5768"/>
<polygon fill="#cccccc" stroke="#cccccc" points="3235.28,-27.1984 3225.93,-22.2169 3230.14,-31.9423 3235.28,-27.1984"/>
</g>
<!-- Equatable&#45;&gt;Character -->
<g id="edge5" class="edge"><title>Equatable&#45;&gt;Character</title>
<path fill="none" stroke="#cccccc" d="M3158.55,-473.582C2843.76,-469.43 345,-434.135 345,-360 345,-360 345,-360 345,-126 345,-82.0523 387.461,-46.7729 416.768,-27.6573"/>
<polygon fill="#cccccc" stroke="#cccccc" points="418.77,-30.533 425.379,-22.2521 415.048,-24.6042 418.77,-30.533"/>
</g>
<!-- Equatable&#45;&gt;ClosedInterval -->
<g id="edge6" class="edge"><title>Equatable&#45;&gt;ClosedInterval</title>
<path fill="none" stroke="#cccccc" d="M3223.2,-473.798C3394.71,-472.311 4193,-460.015 4193,-360 4193,-360 4193,-360 4193,-126 4193,-93.1536 4193,-54.9837 4193,-32.197"/>
<polygon fill="#cccccc" stroke="#cccccc" points="4196.5,-32.0648 4193,-22.0648 4189.5,-32.0648 4196.5,-32.0648"/>
</g>
<!-- Equatable&#45;&gt;Comparable -->
<g id="edge7" class="edge"><title>Equatable&#45;&gt;Comparable</title>
<path fill="none" stroke="#cccccc" d="M3158.66,-471.35C2975.35,-456.326 2067.14,-381.893 1847.76,-363.914"/>
<polygon fill="#cccccc" stroke="#cccccc" points="1847.79,-360.405 1837.54,-363.077 1847.22,-367.382 1847.79,-360.405"/>
</g>
<!-- FloatingPointClassification -->
<g id="node17" class="node"><title>FloatingPointClassification</title>
<g id="a_node17"><a xlink:href="/type/FloatingPointClassification/" xlink:title="FloatingPointClassification">
<polygon fill="#999999" stroke="#999999" points="4405.05,-22 4254.95,-22 4254.95,-0 4405.05,-0 4405.05,-22"/>
<text text-anchor="middle" x="4330" y="-7.4" font-family="Helvetica,sans-Serif" font-size="12.00" fill="white">FloatingPointClassification</text>
</a>
</g>
</g>
<!-- Equatable&#45;&gt;FloatingPointClassification -->
<g id="edge8" class="edge"><title>Equatable&#45;&gt;FloatingPointClassification</title>
<path fill="none" stroke="#cccccc" d="M3223.25,-474.244C3408.61,-475.233 4330,-474.395 4330,-360 4330,-360 4330,-360 4330,-126 4330,-93.1536 4330,-54.9837 4330,-32.197"/>
<polygon fill="#cccccc" stroke="#cccccc" points="4333.5,-32.0648 4330,-22.0648 4326.5,-32.0648 4333.5,-32.0648"/>
</g>
<!-- HalfOpenInterval -->
<g id="node20" class="node"><title>HalfOpenInterval</title>
<g id="a_node20"><a xlink:href="/type/HalfOpenInterval/" xlink:title="HalfOpenInterval">
<polygon fill="#999999" stroke="#999999" points="4523.04,-22 4422.96,-22 4422.96,-0 4523.04,-0 4523.04,-22"/>
<text text-anchor="middle" x="4473" y="-7.4" font-family="Helvetica,sans-Serif" font-size="12.00" fill="white">HalfOpenInterval</text>
</a>
</g>
</g>
<!-- Equatable&#45;&gt;HalfOpenInterval -->
<g id="edge9" class="edge"><title>Equatable&#45;&gt;HalfOpenInterval</title>
<path fill="none" stroke="#cccccc" d="M3223.07,-473.598C3376.11,-471.525 4032.98,-460.843 4235,-428 4343.58,-410.347 4473,-470.011 4473,-360 4473,-360 4473,-360 4473,-126 4473,-93.1536 4473,-54.9837 4473,-32.197"/>
<polygon fill="#cccccc" stroke="#cccccc" points="4476.5,-32.0648 4473,-22.0648 4469.5,-32.0648 4476.5,-32.0648"/>
</g>
<!-- Hashable -->
<g id="node21" class="node"><title>Hashable</title>
<g id="a_node21"><a xlink:href="/protocol/Hashable/" xlink:title="Hashable">
<path fill="#999999" stroke="#999999" d="M1729.69,-254C1729.69,-254 1684.31,-254 1684.31,-254 1680.64,-254 1676.97,-250.333 1676.97,-246.667 1676.97,-246.667 1676.97,-239.333 1676.97,-239.333 1676.97,-235.667 1680.64,-232 1684.31,-232 1684.31,-232 1729.69,-232 1729.69,-232 1733.36,-232 1737.03,-235.667 1737.03,-239.333 1737.03,-239.333 1737.03,-246.667 1737.03,-246.667 1737.03,-250.333 1733.36,-254 1729.69,-254"/>
<text text-anchor="middle" x="1707" y="-239.4" font-family="Helvetica,sans-Serif" font-size="12.00" fill="white">Hashable</text>
</a>
</g>
</g>
<!-- Equatable&#45;&gt;Hashable -->
<g id="edge10" class="edge"><title>Equatable&#45;&gt;Hashable</title>
<path fill="none" stroke="#cccccc" d="M3158.97,-469.036C2966.22,-439.163 1961.69,-283.474 1747.29,-250.244"/>
<polygon fill="#cccccc" stroke="#cccccc" points="1747.53,-246.74 1737.11,-248.667 1746.46,-253.657 1747.53,-246.74"/>
</g>
<!-- ManagedBufferPointer -->
<g id="node29" class="node"><title>ManagedBufferPointer</title>
<g id="a_node29"><a xlink:href="/type/ManagedBufferPointer/" xlink:title="ManagedBufferPointer">
<polygon fill="#999999" stroke="#999999" points="4670.4,-22 4541.6,-22 4541.6,-0 4670.4,-0 4670.4,-22"/>
<text text-anchor="middle" x="4606" y="-7.4" font-family="Helvetica,sans-Serif" font-size="12.00" fill="white">ManagedBufferPointer</text>
</a>
</g>
</g>
<!-- Equatable&#45;&gt;ManagedBufferPointer -->
<g id="edge11" class="edge"><title>Equatable&#45;&gt;ManagedBufferPointer</title>
<path fill="none" stroke="#cccccc" d="M3223.05,-473.742C3386.96,-472.268 4132.67,-463.682 4361,-428 4472.65,-410.552 4606,-473.005 4606,-360 4606,-360 4606,-360 4606,-126 4606,-93.1536 4606,-54.9837 4606,-32.197"/>
<polygon fill="#cccccc" stroke="#cccccc" points="4609.5,-32.0648 4606,-22.0648 4602.5,-32.0648 4609.5,-32.0648"/>
</g>
<!-- Range -->
<g id="node32" class="node"><title>Range</title>
<g id="a_node32"><a xlink:href="/type/Range/" xlink:title="Range">
<polygon fill="#999999" stroke="#999999" points="4743,-22 4689,-22 4689,-0 4743,-0 4743,-22"/>
<text text-anchor="middle" x="4716" y="-7.4" font-family="Helvetica,sans-Serif" font-size="12.00" fill="white">Range</text>
</a>
</g>
</g>
<!-- Equatable&#45;&gt;Range -->
<g id="edge12" class="edge"><title>Equatable&#45;&gt;Range</title>
<path fill="none" stroke="#cccccc" d="M3223.14,-474.207C3398.12,-475.132 4237.23,-476.902 4491,-428 4578.66,-411.108 4680,-449.271 4680,-360 4680,-360 4680,-360 4680,-126 4680,-91.2628 4695.39,-53.2199 4706.04,-31.0413"/>
<polygon fill="#cccccc" stroke="#cccccc" points="4709.2,-32.5473 4710.53,-22.0363 4702.94,-29.4236 4709.2,-32.5473"/>
</g>
<!-- Equatable&#45;&gt;String -->
<g id="edge13" class="edge"><title>Equatable&#45;&gt;String</title>
<path fill="none" stroke="#cccccc" d="M3176.26,-463.849C3164.44,-455.23 3147.92,-442.051 3136,-428 3012.55,-282.431 3035.67,-208.278 2918,-58 2909.92,-47.676 2899.63,-37.3574 2890.74,-29.117"/>
<polygon fill="#cccccc" stroke="#cccccc" points="2892.84,-26.298 2883.07,-22.1931 2888.15,-31.493 2892.84,-26.298"/>
</g>
<!-- _Incrementable -->
<g id="node57" class="node"><title>_Incrementable</title>
<g id="a_node57"><a xlink:href="/protocol/_Incrementable/" xlink:title="_Incrementable">
<path fill="#999999" stroke="#999999" d="M3229.71,-428C3229.71,-428 3152.29,-428 3152.29,-428 3148.63,-428 3144.96,-424.333 3144.96,-420.667 3144.96,-420.667 3144.96,-413.333 3144.96,-413.333 3144.96,-409.667 3148.63,-406 3152.29,-406 3152.29,-406 3229.71,-406 3229.71,-406 3233.37,-406 3237.04,-409.667 3237.04,-413.333 3237.04,-413.333 3237.04,-420.667 3237.04,-420.667 3237.04,-424.333 3233.37,-428 3229.71,-428"/>
<text text-anchor="middle" x="3191" y="-413.4" font-family="Helvetica,sans-Serif" font-size="12.00" fill="white">_Incrementable</text>
</a>
</g>
</g>
<!-- Equatable&#45;&gt;_Incrementable -->
<g id="edge14" class="edge"><title>Equatable&#45;&gt;_Incrementable</title>
<path fill="none" stroke="#cccccc" d="M3191,-463.988C3191,-456.91 3191,-447.171 3191,-438.478"/>
<polygon fill="#cccccc" stroke="#cccccc" points="3194.5,-438.304 3191,-428.304 3187.5,-438.304 3194.5,-438.304"/>
</g>
<!-- _RawOptionSetType -->
<g id="node60" class="node"><title>_RawOptionSetType</title>
<g id="a_node60"><a xlink:href="/protocol/_RawOptionSetType/" xlink:title="_RawOptionSetType">
<path fill="#999999" stroke="#999999" d="M4820.72,-428C4820.72,-428 4715.28,-428 4715.28,-428 4711.62,-428 4707.95,-424.333 4707.95,-420.667 4707.95,-420.667 4707.95,-413.333 4707.95,-413.333 4707.95,-409.667 4711.62,-406 4715.28,-406 4715.28,-406 4820.72,-406 4820.72,-406 4824.38,-406 4828.05,-409.667 4828.05,-413.333 4828.05,-413.333 4828.05,-420.667 4828.05,-420.667 4828.05,-424.333 4824.38,-428 4820.72,-428"/>
<text text-anchor="middle" x="4768" y="-413.4" font-family="Helvetica,sans-Serif" font-size="12.00" fill="white">_RawOptionSetType</text>
</a>
</g>
</g>
<!-- Equatable&#45;&gt;_RawOptionSetType -->
<g id="edge15" class="edge"><title>Equatable&#45;&gt;_RawOptionSetType</title>
<path fill="none" stroke="#cccccc" d="M3223.06,-474.25C3382.42,-475.235 4105.03,-476.676 4694,-428 4695.27,-427.895 4696.56,-427.783 4697.85,-427.665"/>
<polygon fill="#cccccc" stroke="#cccccc" points="4698.28,-431.139 4707.88,-426.655 4697.58,-424.174 4698.28,-431.139"/>
</g>
<!-- FilterCollectionViewIndex -->
<g id="node14" class="node"><title>FilterCollectionViewIndex</title>
<g id="a_node14"><a xlink:href="/type/FilterCollectionViewIndex/" xlink:title="FilterCollectionViewIndex">
<polygon fill="#999999" stroke="#999999" points="4130.89,-22 3987.11,-22 3987.11,-0 4130.89,-0 4130.89,-22"/>
<text text-anchor="middle" x="4059" y="-7.4" font-family="Helvetica,sans-Serif" font-size="12.00" fill="white">FilterCollectionViewIndex</text>
</a>
</g>
</g>
<!-- FloatingPointType -->
<g id="node18" class="node"><title>FloatingPointType</title>
<g id="a_node18"><a xlink:href="/protocol/FloatingPointType/" xlink:title="FloatingPointType">
<path fill="#999999" stroke="#999999" d="M775.715,-80C775.715,-80 684.285,-80 684.285,-80 680.618,-80 676.952,-76.3333 676.952,-72.6667 676.952,-72.6667 676.952,-65.3333 676.952,-65.3333 676.952,-61.6667 680.618,-58 684.285,-58 684.285,-58 775.715,-58 775.715,-58 779.382,-58 783.048,-61.6667 783.048,-65.3333 783.048,-65.3333 783.048,-72.6667 783.048,-72.6667 783.048,-76.3333 779.382,-80 775.715,-80"/>
<text text-anchor="middle" x="730" y="-65.4" font-family="Helvetica,sans-Serif" font-size="12.00" fill="white">FloatingPointType</text>
</a>
</g>
</g>
<!-- FloatingPointType&#45;&gt;Double -->
<g id="edge56" class="edge"><title>FloatingPointType&#45;&gt;Double</title>
<path fill="none" stroke="#cccccc" d="M714.804,-57.9883C702.07,-49.5993 683.666,-37.4743 668.952,-27.7804"/>
<polygon fill="#cccccc" stroke="#cccccc" points="670.628,-24.6927 660.351,-22.1138 666.776,-30.5382 670.628,-24.6927"/>
</g>
<!-- FloatingPointType&#45;&gt;Float -->
<g id="edge57" class="edge"><title>FloatingPointType&#45;&gt;Float</title>
<path fill="none" stroke="#cccccc" d="M778.449,-57.9883C831.638,-46.9972 915.861,-29.5933 964,-19.6457"/>
<polygon fill="#cccccc" stroke="#cccccc" points="964.903,-23.0332 973.988,-17.5819 963.486,-16.178 964.903,-23.0332"/>
</g>
<!-- ForwardIndexType -->
<g id="node19" class="node"><title>ForwardIndexType</title>
<g id="a_node19"><a xlink:href="/protocol/ForwardIndexType/" xlink:title="ForwardIndexType">
<path fill="#999999" stroke="#999999" d="M3746.21,-312C3746.21,-312 3651.79,-312 3651.79,-312 3648.13,-312 3644.46,-308.333 3644.46,-304.667 3644.46,-304.667 3644.46,-297.333 3644.46,-297.333 3644.46,-293.667 3648.13,-290 3651.79,-290 3651.79,-290 3746.21,-290 3746.21,-290 3749.87,-290 3753.54,-293.667 3753.54,-297.333 3753.54,-297.333 3753.54,-304.667 3753.54,-304.667 3753.54,-308.333 3749.87,-312 3746.21,-312"/>
<text text-anchor="middle" x="3699" y="-297.4" font-family="Helvetica,sans-Serif" font-size="12.00" fill="white">ForwardIndexType</text>
</a>
</g>
</g>
<!-- ForwardIndexType&#45;&gt;BidirectionalIndexType -->
<g id="edge114" class="edge"><title>ForwardIndexType&#45;&gt;BidirectionalIndexType</title>
<path fill="none" stroke="#cccccc" d="M3644.28,-293.576C3558.84,-283.545 3393.56,-264.141 3297.06,-252.812"/>
<polygon fill="#cccccc" stroke="#cccccc" points="3297.42,-249.33 3287.08,-251.64 3296.6,-256.283 3297.42,-249.33"/>
</g>
<!-- ForwardIndexType&#45;&gt;DictionaryIndex -->
<g id="edge115" class="edge"><title>ForwardIndexType&#45;&gt;DictionaryIndex</title>
<path fill="none" stroke="#cccccc" d="M3644.49,-291.498C3587.73,-279.181 3507,-250.352 3507,-186 3507,-186 3507,-186 3507,-126 3507,-93.9507 3507.59,-79.8858 3531,-58 3539.36,-50.1885 3597.27,-35.1501 3642.15,-24.3937"/>
<polygon fill="#cccccc" stroke="#cccccc" points="3643.17,-27.7502 3652.09,-22.0316 3641.55,-20.9401 3643.17,-27.7502"/>
</g>
<!-- ForwardIndexType&#45;&gt;FilterCollectionViewIndex -->
<g id="edge116" class="edge"><title>ForwardIndexType&#45;&gt;FilterCollectionViewIndex</title>
<path fill="none" stroke="#cccccc" d="M3753.68,-294.18C3854.39,-281.933 4059,-249.264 4059,-186 4059,-186 4059,-186 4059,-126 4059,-93.1536 4059,-54.9837 4059,-32.197"/>
<polygon fill="#cccccc" stroke="#cccccc" points="4062.5,-32.0648 4059,-22.0648 4055.5,-32.0648 4062.5,-32.0648"/>
</g>
<!-- ForwardIndexType&#45;&gt;SetIndex -->
<g id="edge117" class="edge"><title>ForwardIndexType&#45;&gt;SetIndex</title>
<path fill="none" stroke="#cccccc" d="M3706.03,-289.848C3718.69,-270.552 3744,-226.853 3744,-186 3744,-186 3744,-186 3744,-126 3744,-90.4129 3763.21,-52.667 3776.52,-30.7727"/>
<polygon fill="#cccccc" stroke="#cccccc" points="3779.59,-32.4764 3781.97,-22.1525 3773.67,-28.7386 3779.59,-32.4764"/>
</g>
<!-- String.UTF8View.Index -->
<g id="node44" class="node"><title>String.UTF8View.Index</title>
<g id="a_node44"><a xlink:href="/type/String.UTF8View.Index/" xlink:title="String.UTF8View.Index">
<polygon fill="#999999" stroke="#999999" points="3967.89,-22 3836.11,-22 3836.11,-0 3967.89,-0 3967.89,-22"/>
<text text-anchor="middle" x="3902" y="-7.4" font-family="Helvetica,sans-Serif" font-size="12.00" fill="white">String.UTF8View.Index</text>
</a>
</g>
</g>
<!-- ForwardIndexType&#45;&gt;String.UTF8View.Index -->
<g id="edge118" class="edge"><title>ForwardIndexType&#45;&gt;String.UTF8View.Index</title>
<path fill="none" stroke="#cccccc" d="M3753.4,-293.118C3813.53,-282.111 3902,-254.31 3902,-186 3902,-186 3902,-186 3902,-126 3902,-93.1536 3902,-54.9837 3902,-32.197"/>
<polygon fill="#cccccc" stroke="#cccccc" points="3905.5,-32.0648 3902,-22.0648 3898.5,-32.0648 3905.5,-32.0648"/>
</g>
<!-- Hashable&#45;&gt;Bool -->
<g id="edge86" class="edge"><title>Hashable&#45;&gt;Bool</title>
<path fill="none" stroke="#cccccc" d="M1676.94,-241.567C1535.59,-239.374 936.134,-228.308 752,-196 665.874,-180.889 646.471,-167.061 564,-138 458.924,-100.974 337.101,-50.3265 279.883,-26.0698"/>
<polygon fill="#cccccc" stroke="#cccccc" points="281.189,-22.822 270.617,-22.1327 278.452,-29.2646 281.189,-22.822"/>
</g>
<!-- Hashable&#45;&gt;CFunctionPointer -->
<g id="edge87" class="edge"><title>Hashable&#45;&gt;CFunctionPointer</title>
<path fill="none" stroke="#cccccc" d="M1676.84,-241.907C1570.29,-241.231 1201.8,-235.959 901,-196 776.746,-179.494 744.23,-176.675 625,-138 528.444,-106.68 420.491,-52.7838 370.791,-26.8249"/>
<polygon fill="#cccccc" stroke="#cccccc" points="372.407,-23.7202 361.926,-22.1674 369.151,-29.917 372.407,-23.7202"/>
</g>
<!-- Hashable&#45;&gt;COpaquePointer -->
<g id="edge88" class="edge"><title>Hashable&#45;&gt;COpaquePointer</title>
<path fill="none" stroke="#cccccc" d="M1737.24,-240.387C1775.4,-238.365 1843.06,-234.82 1901,-232 2250.29,-214.999 2343.13,-259.605 2687,-196 2883.22,-159.704 3104.8,-63.3551 3184.98,-26.5614"/>
<polygon fill="#cccccc" stroke="#cccccc" points="3186.87,-29.5456 3194.48,-22.1766 3183.93,-23.1901 3186.87,-29.5456"/>
</g>
<!-- Hashable&#45;&gt;Character -->
<g id="edge89" class="edge"><title>Hashable&#45;&gt;Character</title>
<path fill="none" stroke="#cccccc" d="M1676.63,-242.041C1552.13,-241.927 1080.66,-238.629 939,-196 920.313,-190.376 919.373,-180.579 901,-174 808.135,-140.746 775.479,-169.488 682,-138 598.382,-109.833 508.703,-54.7174 467.345,-27.6951"/>
<polygon fill="#cccccc" stroke="#cccccc" points="469.089,-24.6527 458.814,-22.0698 465.236,-30.4967 469.089,-24.6527"/>
</g>
<!-- Hashable&#45;&gt;Double -->
<g id="edge90" class="edge"><title>Hashable&#45;&gt;Double</title>
<path fill="none" stroke="#cccccc" d="M1676.91,-241.951C1587.11,-241.335 1313.44,-236.053 1091,-196 1056.39,-189.768 1049.05,-182.775 1015,-174 944.837,-155.919 926.229,-155.824 856,-138 809.904,-126.301 680.084,-116.833 650,-80 639.259,-66.8495 638.985,-47.0877 640.82,-32.2517"/>
<polygon fill="#cccccc" stroke="#cccccc" points="644.328,-32.4931 642.497,-22.0577 637.42,-31.3573 644.328,-32.4931"/>
</g>
<!-- Hashable&#45;&gt;Float -->
<g id="edge91" class="edge"><title>Hashable&#45;&gt;Float</title>
<path fill="none" stroke="#cccccc" d="M1676.67,-241.081C1587.24,-238.04 1325.91,-226.693 1247,-196 1196.02,-176.171 1068.79,-69.977 1020.24,-28.5583"/>
<polygon fill="#cccccc" stroke="#cccccc" points="1022.51,-25.8922 1012.63,-22.0496 1017.96,-31.2107 1022.51,-25.8922"/>
</g>
<!-- Hashable&#45;&gt;Float80 -->
<g id="edge92" class="edge"><title>Hashable&#45;&gt;Float80</title>
<path fill="none" stroke="#cccccc" d="M1676.95,-240.266C1598.96,-235.544 1383.73,-221.099 1206,-196 1154.47,-188.724 1142.27,-182.931 1091,-174 1040.25,-165.159 895.478,-177.152 862,-138 855.646,-130.569 861.718,-125.774 862,-116 862.84,-86.8661 865,-53.1984 866.485,-32.2507"/>
<polygon fill="#cccccc" stroke="#cccccc" points="869.994,-32.2588 867.228,-22.0313 863.012,-31.7511 869.994,-32.2588"/>
</g>
<!-- Int -->
<g id="node22" class="node"><title>Int</title>
<g id="a_node22"><a xlink:href="/type/Int/" xlink:title="Int">
<polygon fill="#999999" stroke="#999999" points="1408,-22 1354,-22 1354,-0 1408,-0 1408,-22"/>
<text text-anchor="middle" x="1381" y="-7.4" font-family="Helvetica,sans-Serif" font-size="12.00" fill="white">Int</text>
</a>
</g>
</g>
<!-- Hashable&#45;&gt;Int -->
<g id="edge93" class="edge"><title>Hashable&#45;&gt;Int</title>
<path fill="none" stroke="#cccccc" d="M1676.84,-240.607C1591.02,-236.337 1350.14,-222.11 1327,-196 1284.05,-147.536 1337.54,-66.4906 1365.72,-30.3562"/>
<polygon fill="#cccccc" stroke="#cccccc" points="1368.74,-32.178 1372.26,-22.1843 1363.28,-27.8028 1368.74,-32.178"/>
</g>
<!-- Int16 -->
<g id="node23" class="node"><title>Int16</title>
<g id="a_node23"><a xlink:href="/type/Int16/" xlink:title="Int16">
<polygon fill="#999999" stroke="#999999" points="1742,-22 1688,-22 1688,-0 1742,-0 1742,-22"/>
<text text-anchor="middle" x="1715" y="-7.4" font-family="Helvetica,sans-Serif" font-size="12.00" fill="white">Int16</text>
</a>
</g>
</g>
<!-- Hashable&#45;&gt;Int16 -->
<g id="edge94" class="edge"><title>Hashable&#45;&gt;Int16</title>
<path fill="none" stroke="#cccccc" d="M1708.29,-231.634C1711.63,-203.649 1720.16,-124.208 1718,-58 1717.73,-49.6275 1717.18,-40.4114 1716.62,-32.4412"/>
<polygon fill="#cccccc" stroke="#cccccc" points="1720.09,-31.9342 1715.86,-22.2219 1713.11,-32.4544 1720.09,-31.9342"/>
</g>
<!-- Int32 -->
<g id="node24" class="node"><title>Int32</title>
<g id="a_node24"><a xlink:href="/type/Int32/" xlink:title="Int32">
<polygon fill="#999999" stroke="#999999" points="1878,-22 1824,-22 1824,-0 1878,-0 1878,-22"/>
<text text-anchor="middle" x="1851" y="-7.4" font-family="Helvetica,sans-Serif" font-size="12.00" fill="white">Int32</text>
</a>
</g>
</g>
<!-- Hashable&#45;&gt;Int32 -->
<g id="edge95" class="edge"><title>Hashable&#45;&gt;Int32</title>
<path fill="none" stroke="#cccccc" d="M1713.37,-231.82C1735.63,-196.271 1810.12,-77.2909 1839.22,-30.8214"/>
<polygon fill="#cccccc" stroke="#cccccc" points="1842.36,-32.3952 1844.7,-22.062 1836.43,-28.6806 1842.36,-32.3952"/>
</g>
<!-- Int64 -->
<g id="node25" class="node"><title>Int64</title>
<g id="a_node25"><a xlink:href="/type/Int64/" xlink:title="Int64">
<polygon fill="#999999" stroke="#999999" points="1634,-22 1580,-22 1580,-0 1634,-0 1634,-22"/>
<text text-anchor="middle" x="1607" y="-7.4" font-family="Helvetica,sans-Serif" font-size="12.00" fill="white">Int64</text>
</a>
</g>
</g>
<!-- Hashable&#45;&gt;Int64 -->
<g id="edge96" class="edge"><title>Hashable&#45;&gt;Int64</title>
<path fill="none" stroke="#cccccc" d="M1676.85,-235.863C1632.08,-224.95 1549.51,-197.477 1514,-138 1488.88,-95.9284 1545.22,-50.645 1580.78,-27.5241"/>
<polygon fill="#cccccc" stroke="#cccccc" points="1582.72,-30.4372 1589.31,-22.1389 1578.98,-24.5182 1582.72,-30.4372"/>
</g>
<!-- Int8 -->
<g id="node26" class="node"><title>Int8</title>
<g id="a_node26"><a xlink:href="/type/Int8/" xlink:title="Int8">
<polygon fill="#999999" stroke="#999999" points="1501,-22 1447,-22 1447,-0 1501,-0 1501,-22"/>
<text text-anchor="middle" x="1474" y="-7.4" font-family="Helvetica,sans-Serif" font-size="12.00" fill="white">Int8</text>
</a>
</g>
</g>
<!-- Hashable&#45;&gt;Int8 -->
<g id="edge97" class="edge"><title>Hashable&#45;&gt;Int8</title>
<path fill="none" stroke="#cccccc" d="M1676.84,-240.449C1593.38,-235.85 1364.07,-221.029 1342,-196 1290.73,-137.864 1396.73,-60.1364 1448.16,-27.4782"/>
<polygon fill="#cccccc" stroke="#cccccc" points="1450.16,-30.3588 1456.79,-22.0971 1446.45,-24.4192 1450.16,-30.3588"/>
</g>
<!-- Hashable&#45;&gt;ObjectIdentifier -->
<g id="edge98" class="edge"><title>Hashable&#45;&gt;ObjectIdentifier</title>
<path fill="none" stroke="#cccccc" d="M1676.89,-242.222C1594.79,-242.259 1369.27,-238.405 1311,-196 1255.96,-155.943 1236.11,-71.0361 1229.72,-32.1784"/>
<polygon fill="#cccccc" stroke="#cccccc" points="1233.15,-31.4704 1228.19,-22.1048 1226.23,-32.5152 1233.15,-31.4704"/>
</g>
<!-- Set -->
<g id="node36" class="node"><title>Set</title>
<g id="a_node36"><a xlink:href="/type/Set/" xlink:title="Set">
<polygon fill="#999999" stroke="#999999" points="600,-22 546,-22 546,-0 600,-0 600,-22"/>
<text text-anchor="middle" x="573" y="-7.4" font-family="Helvetica,sans-Serif" font-size="12.00" fill="white">Set</text>
</a>
</g>
</g>
<!-- Hashable&#45;&gt;Set -->
<g id="edge99" class="edge"><title>Hashable&#45;&gt;Set</title>
<path fill="none" stroke="#cccccc" d="M1676.71,-242.3C1579.64,-242.772 1267.88,-240.47 1015,-196 980.367,-189.91 973.263,-181.913 939,-174 848.014,-152.986 819.312,-171.115 732,-138 686.1,-120.591 676.159,-110.883 638,-80 619.323,-64.8842 600.645,-44.6831 588.136,-30.2344"/>
<polygon fill="#cccccc" stroke="#cccccc" points="590.677,-27.8202 581.53,-22.4739 585.346,-32.3575 590.677,-27.8202"/>
</g>
<!-- Hashable&#45;&gt;String -->
<g id="edge100" class="edge"><title>Hashable&#45;&gt;String</title>
<path fill="none" stroke="#cccccc" d="M1737.24,-240.408C1775.4,-238.407 1843.06,-234.884 1901,-232 1984.33,-227.853 2573.21,-226.165 2651,-196 2743.36,-160.183 2825.04,-68.9049 2856.85,-30.0029"/>
<polygon fill="#cccccc" stroke="#cccccc" points="2859.65,-32.1058 2863.2,-22.1218 2854.2,-27.7155 2859.65,-32.1058"/>
</g>
<!-- UInt -->
<g id="node46" class="node"><title>UInt</title>
<g id="a_node46"><a xlink:href="/type/UInt/" xlink:title="UInt">
<polygon fill="#999999" stroke="#999999" points="2248,-22 2194,-22 2194,-0 2248,-0 2248,-22"/>
<text text-anchor="middle" x="2221" y="-7.4" font-family="Helvetica,sans-Serif" font-size="12.00" fill="white">UInt</text>
</a>
</g>
</g>
<!-- Hashable&#45;&gt;UInt -->
<g id="edge101" class="edge"><title>Hashable&#45;&gt;UInt</title>
<path fill="none" stroke="#cccccc" d="M1725.28,-231.872C1765.82,-209.593 1866.59,-155.2 1954,-116 2034.81,-79.7609 2132.35,-43.6296 2184.27,-24.9815"/>
<polygon fill="#cccccc" stroke="#cccccc" points="2185.49,-28.2631 2193.72,-21.5984 2183.13,-21.6724 2185.49,-28.2631"/>
</g>
<!-- UInt16 -->
<g id="node47" class="node"><title>UInt16</title>
<g id="a_node47"><a xlink:href="/type/UInt16/" xlink:title="UInt16">
<polygon fill="#999999" stroke="#999999" points="2320,-22 2266,-22 2266,-0 2320,-0 2320,-22"/>
<text text-anchor="middle" x="2293" y="-7.4" font-family="Helvetica,sans-Serif" font-size="12.00" fill="white">UInt16</text>
</a>
</g>
</g>
<!-- Hashable&#45;&gt;UInt16 -->
<g id="edge102" class="edge"><title>Hashable&#45;&gt;UInt16</title>
<path fill="none" stroke="#cccccc" d="M1737.44,-234.512C1797.41,-219.354 1934.58,-182.653 2045,-138 2128.81,-104.109 2222.65,-52.4148 2267.04,-27.072"/>
<polygon fill="#cccccc" stroke="#cccccc" points="2268.81,-30.0922 2275.74,-22.08 2265.33,-24.0204 2268.81,-30.0922"/>
</g>
<!-- UInt32 -->
<g id="node48" class="node"><title>UInt32</title>
<g id="a_node48"><a xlink:href="/type/UInt32/" xlink:title="UInt32">
<polygon fill="#999999" stroke="#999999" points="2392,-22 2338,-22 2338,-0 2392,-0 2392,-22"/>
<text text-anchor="middle" x="2365" y="-7.4" font-family="Helvetica,sans-Serif" font-size="12.00" fill="white">UInt32</text>
</a>
</g>
</g>
<!-- Hashable&#45;&gt;UInt32 -->
<g id="edge103" class="edge"><title>Hashable&#45;&gt;UInt32</title>
<path fill="none" stroke="#cccccc" d="M1737.18,-240.409C1886.72,-232.516 2541.23,-197.87 2543,-196 2570.45,-166.999 2630.66,-180.031 2518,-58 2515.96,-55.7915 2446.5,-35.4733 2401.88,-22.5896"/>
<polygon fill="#cccccc" stroke="#cccccc" points="2402.8,-19.2125 2392.22,-19.805 2400.86,-25.9385 2402.8,-19.2125"/>
</g>
<!-- UInt64 -->
<g id="node49" class="node"><title>UInt64</title>
<g id="a_node49"><a xlink:href="/type/UInt64/" xlink:title="UInt64">
<polygon fill="#999999" stroke="#999999" points="2464,-22 2410,-22 2410,-0 2464,-0 2464,-22"/>
<text text-anchor="middle" x="2437" y="-7.4" font-family="Helvetica,sans-Serif" font-size="12.00" fill="white">UInt64</text>
</a>
</g>
</g>
<!-- Hashable&#45;&gt;UInt64 -->
<g id="edge104" class="edge"><title>Hashable&#45;&gt;UInt64</title>
<path fill="none" stroke="#cccccc" d="M1737.27,-240.422C1890.36,-232.44 2571.97,-196.854 2573,-196 2621.42,-155.753 2590.8,-96.5205 2541,-58 2520.91,-42.4629 2494.76,-30.9259 2473.7,-23.2919"/>
<polygon fill="#cccccc" stroke="#cccccc" points="2474.72,-19.9406 2464.12,-19.9581 2472.42,-26.5514 2474.72,-19.9406"/>
</g>
<!-- UInt8 -->
<g id="node50" class="node"><title>UInt8</title>
<g id="a_node50"><a xlink:href="/type/UInt8/" xlink:title="UInt8">
<polygon fill="#999999" stroke="#999999" points="2536,-22 2482,-22 2482,-0 2536,-0 2536,-22"/>
<text text-anchor="middle" x="2509" y="-7.4" font-family="Helvetica,sans-Serif" font-size="12.00" fill="white">UInt8</text>
</a>
</g>
</g>
<!-- Hashable&#45;&gt;UInt8 -->
<g id="edge105" class="edge"><title>Hashable&#45;&gt;UInt8</title>
<path fill="none" stroke="#cccccc" d="M1737.09,-240.443C1892.38,-232.408 2596,-196 2596,-196 2623.28,-172.585 2618.89,-150.265 2608,-116 2595.71,-77.3215 2559.01,-45.7769 2533.92,-27.9356"/>
<polygon fill="#cccccc" stroke="#cccccc" points="2535.81,-24.9888 2525.59,-22.2072 2531.85,-30.7569 2535.81,-24.9888"/>
</g>
<!-- Hashable&#45;&gt;UnicodeScalar -->
<g id="edge106" class="edge"><title>Hashable&#45;&gt;UnicodeScalar</title>
<path fill="none" stroke="#cccccc" d="M1676.8,-241.45C1592.06,-239.48 1353.76,-230.9 1285,-196 1209.26,-157.555 1150.87,-69.8337 1127.77,-31.0471"/>
<polygon fill="#cccccc" stroke="#cccccc" points="1130.73,-29.1757 1122.67,-22.3002 1124.69,-32.7019 1130.73,-29.1757"/>
</g>
<!-- UnsafeMutablePointer -->
<g id="node52" class="node"><title>UnsafeMutablePointer</title>
<g id="a_node52"><a xlink:href="/type/UnsafeMutablePointer/" xlink:title="UnsafeMutablePointer">
<polygon fill="#999999" stroke="#999999" points="2024.05,-22 1895.95,-22 1895.95,-0 2024.05,-0 2024.05,-22"/>
<text text-anchor="middle" x="1960" y="-7.4" font-family="Helvetica,sans-Serif" font-size="12.00" fill="white">UnsafeMutablePointer</text>
</a>
</g>
</g>
<!-- Hashable&#45;&gt;UnsafeMutablePointer -->
<g id="edge107" class="edge"><title>Hashable&#45;&gt;UnsafeMutablePointer</title>
<path fill="none" stroke="#cccccc" d="M1718.2,-231.82C1757.88,-195.75 1892.03,-73.7883 1941.49,-28.827"/>
<polygon fill="#cccccc" stroke="#cccccc" points="1943.89,-31.3786 1948.93,-22.062 1939.18,-26.199 1943.89,-31.3786"/>
</g>
<!-- UnsafePointer -->
<g id="node53" class="node"><title>UnsafePointer</title>
<g id="a_node53"><a xlink:href="/type/UnsafePointer/" xlink:title="UnsafePointer">
<polygon fill="#999999" stroke="#999999" points="2826.03,-22 2739.97,-22 2739.97,-0 2826.03,-0 2826.03,-22"/>
<text text-anchor="middle" x="2783" y="-7.4" font-family="Helvetica,sans-Serif" font-size="12.00" fill="white">UnsafePointer</text>
</a>
</g>
</g>
<!-- Hashable&#45;&gt;UnsafePointer -->
<g id="edge108" class="edge"><title>Hashable&#45;&gt;UnsafePointer</title>
<path fill="none" stroke="#cccccc" d="M1737.24,-240.428C1775.41,-238.447 1843.07,-234.945 1901,-232 1980.77,-227.944 2546.95,-230.489 2619,-196 2695.15,-159.55 2751.33,-70.0069 2773.09,-30.8474"/>
<polygon fill="#cccccc" stroke="#cccccc" points="2776.18,-32.4981 2777.88,-22.0401 2770.03,-29.1572 2776.18,-32.4981"/>
</g>
<!-- _IntegerType -->
<g id="node58" class="node"><title>_IntegerType</title>
<g id="a_node58"><a xlink:href="/protocol/_IntegerType/" xlink:title="_IntegerType">
<path fill="#999999" stroke="#999999" d="M2073.71,-196C2073.71,-196 2008.29,-196 2008.29,-196 2004.63,-196 2000.96,-192.333 2000.96,-188.667 2000.96,-188.667 2000.96,-181.333 2000.96,-181.333 2000.96,-177.667 2004.63,-174 2008.29,-174 2008.29,-174 2073.71,-174 2073.71,-174 2077.37,-174 2081.04,-177.667 2081.04,-181.333 2081.04,-181.333 2081.04,-188.667 2081.04,-188.667 2081.04,-192.333 2077.37,-196 2073.71,-196"/>
<text text-anchor="middle" x="2041" y="-181.4" font-family="Helvetica,sans-Serif" font-size="12.00" fill="white">_IntegerType</text>
</a>
</g>
</g>
<!-- Hashable&#45;&gt;_IntegerType -->
<g id="edge109" class="edge"><title>Hashable&#45;&gt;_IntegerType</title>
<path fill="none" stroke="#cccccc" d="M1737.23,-236.932C1794.78,-227.283 1920.59,-206.188 1990.91,-194.398"/>
<polygon fill="#cccccc" stroke="#cccccc" points="1991.58,-197.834 2000.87,-192.729 1990.43,-190.931 1991.58,-197.834"/>
</g>
<!-- Int&#45;&gt;Bit -->
<g id="edge43" class="edge"><title>Int&#45;&gt;Bit</title>
<path fill="none" stroke="#cccccc" d="M1400.5,-22.1328C1413.27,-28.7691 1430.59,-36.5532 1447,-40 1509.74,-53.1764 1962.5,-58.101 2024,-40 2032.4,-37.5276 2040.71,-32.9469 2047.86,-28.1447"/>
<polygon fill="#cccccc" stroke="#cccccc" points="2050.18,-30.7891 2056.22,-22.0854 2046.07,-25.122 2050.18,-30.7891"/>
</g>
<!-- IntegerArithmeticType&#45;&gt;Bit -->
<g id="edge31" class="edge"><title>IntegerArithmeticType&#45;&gt;Bit</title>
<path fill="none" stroke="#cccccc" d="M1967.78,-231.693C1957.31,-209.515 1936.23,-156.035 1954,-116 1971.76,-75.9908 2013.36,-44.8462 2041.35,-27.4483"/>
<polygon fill="#cccccc" stroke="#cccccc" points="2043.5,-30.238 2050.26,-22.0822 2039.89,-24.2407 2043.5,-30.238"/>
</g>
<!-- IntegerArithmeticType&#45;&gt;_IntegerType -->
<g id="edge32" class="edge"><title>IntegerArithmeticType&#45;&gt;_IntegerType</title>
<path fill="none" stroke="#cccccc" d="M1985.16,-231.988C1994.99,-223.887 2009.06,-212.303 2020.62,-202.787"/>
<polygon fill="#cccccc" stroke="#cccccc" points="2022.99,-205.363 2028.49,-196.304 2018.54,-199.959 2022.99,-205.363"/>
</g>
<!-- IntegerType -->
<g id="node28" class="node"><title>IntegerType</title>
<g id="a_node28"><a xlink:href="/protocol/IntegerType/" xlink:title="IntegerType">
<path fill="#999999" stroke="#999999" d="M2029.2,-138C2029.2,-138 1970.8,-138 1970.8,-138 1967.13,-138 1963.47,-134.333 1963.47,-130.667 1963.47,-130.667 1963.47,-123.333 1963.47,-123.333 1963.47,-119.667 1967.13,-116 1970.8,-116 1970.8,-116 2029.2,-116 2029.2,-116 2032.87,-116 2036.53,-119.667 2036.53,-123.333 2036.53,-123.333 2036.53,-130.667 2036.53,-130.667 2036.53,-134.333 2032.87,-138 2029.2,-138"/>
<text text-anchor="middle" x="2000" y="-123.4" font-family="Helvetica,sans-Serif" font-size="12.00" fill="white">IntegerType</text>
</a>
</g>
</g>
<!-- SignedIntegerType -->
<g id="node38" class="node"><title>SignedIntegerType</title>
<g id="a_node38"><a xlink:href="/protocol/SignedIntegerType/" xlink:title="SignedIntegerType">
<path fill="#999999" stroke="#999999" d="M1701.73,-80C1701.73,-80 1606.27,-80 1606.27,-80 1602.61,-80 1598.94,-76.3333 1598.94,-72.6667 1598.94,-72.6667 1598.94,-65.3333 1598.94,-65.3333 1598.94,-61.6667 1602.61,-58 1606.27,-58 1606.27,-58 1701.73,-58 1701.73,-58 1705.39,-58 1709.06,-61.6667 1709.06,-65.3333 1709.06,-65.3333 1709.06,-72.6667 1709.06,-72.6667 1709.06,-76.3333 1705.39,-80 1701.73,-80"/>
<text text-anchor="middle" x="1654" y="-65.4" font-family="Helvetica,sans-Serif" font-size="12.00" fill="white">SignedIntegerType</text>
</a>
</g>
</g>
<!-- IntegerType&#45;&gt;SignedIntegerType -->
<g id="edge36" class="edge"><title>IntegerType&#45;&gt;SignedIntegerType</title>
<path fill="none" stroke="#cccccc" d="M1963.63,-120.113C1905.63,-110.726 1791.38,-92.235 1719.06,-80.5292"/>
<polygon fill="#cccccc" stroke="#cccccc" points="1719.57,-77.0669 1709.14,-78.9242 1718.45,-83.977 1719.57,-77.0669"/>
</g>
<!-- UnsignedIntegerType -->
<g id="node54" class="node"><title>UnsignedIntegerType</title>
<g id="a_node54"><a xlink:href="/protocol/UnsignedIntegerType/" xlink:title="UnsignedIntegerType">
<path fill="#999999" stroke="#999999" d="M2481.73,-80C2481.73,-80 2372.27,-80 2372.27,-80 2368.61,-80 2364.94,-76.3333 2364.94,-72.6667 2364.94,-72.6667 2364.94,-65.3333 2364.94,-65.3333 2364.94,-61.6667 2368.61,-58 2372.27,-58 2372.27,-58 2481.73,-58 2481.73,-58 2485.39,-58 2489.06,-61.6667 2489.06,-65.3333 2489.06,-65.3333 2489.06,-72.6667 2489.06,-72.6667 2489.06,-76.3333 2485.39,-80 2481.73,-80"/>
<text text-anchor="middle" x="2427" y="-65.4" font-family="Helvetica,sans-Serif" font-size="12.00" fill="white">UnsignedIntegerType</text>
</a>
</g>
</g>
<!-- IntegerType&#45;&gt;UnsignedIntegerType -->
<g id="edge37" class="edge"><title>IntegerType&#45;&gt;UnsignedIntegerType</title>
<path fill="none" stroke="#cccccc" d="M2036.41,-121.225C2106.78,-111.997 2262.63,-91.5562 2354.78,-79.4713"/>
<polygon fill="#cccccc" stroke="#cccccc" points="2355.41,-82.9192 2364.87,-78.1485 2354.5,-75.9786 2355.41,-82.9192"/>
</g>
<!-- RandomAccessIndexType&#45;&gt;Bit -->
<g id="edge59" class="edge"><title>RandomAccessIndexType&#45;&gt;Bit</title>
<path fill="none" stroke="#cccccc" d="M2450.44,-173.853C2436.16,-159.215 2407.83,-132.164 2379,-116 2354.51,-102.266 2182.68,-47.6333 2105.91,-23.5287"/>
<polygon fill="#cccccc" stroke="#cccccc" points="2106.75,-20.1257 2096.16,-20.4731 2104.66,-26.805 2106.75,-20.1257"/>
</g>
<!-- RandomAccessIndexType&#45;&gt;Int -->
<g id="edge60" class="edge"><title>RandomAccessIndexType&#45;&gt;Int</title>
<path fill="none" stroke="#cccccc" d="M2385.56,-183.346C2258.96,-181.268 1993.97,-172.735 1773,-138 1668,-121.495 1641.77,-113.779 1541,-80 1494.58,-64.4393 1442.74,-41.2949 1410.99,-26.426"/>
<polygon fill="#cccccc" stroke="#cccccc" points="1412.35,-23.1967 1401.81,-22.0948 1409.36,-29.5274 1412.35,-23.1967"/>
</g>
<!-- RandomAccessIndexType&#45;&gt;Int16 -->
<g id="edge61" class="edge"><title>RandomAccessIndexType&#45;&gt;Int16</title>
<path fill="none" stroke="#cccccc" d="M2385.54,-175.561C2323.48,-167.861 2232.94,-155.08 2155,-138 2120.65,-130.473 2112.79,-125.719 2079,-116 1959.69,-81.6869 1818.27,-41.388 1752.33,-22.6187"/>
<polygon fill="#cccccc" stroke="#cccccc" points="1752.98,-19.1664 1742.41,-19.7953 1751.07,-25.899 1752.98,-19.1664"/>
</g>
<!-- RandomAccessIndexType&#45;&gt;Int32 -->
<g id="edge62" class="edge"><title>RandomAccessIndexType&#45;&gt;Int32</title>
<path fill="none" stroke="#cccccc" d="M2385.41,-176.914C2332.17,-170.417 2259.41,-158.581 2198,-138 2177.65,-131.179 2174.76,-124.385 2155,-116 2061.02,-76.1271 1946.05,-40.1127 1888.13,-22.8177"/>
<polygon fill="#cccccc" stroke="#cccccc" points="1888.91,-19.3993 1878.33,-19.9081 1886.92,-26.1098 1888.91,-19.3993"/>
</g>
<!-- RandomAccessIndexType&#45;&gt;Int64 -->
<g id="edge63" class="edge"><title>RandomAccessIndexType&#45;&gt;Int64</title>
<path fill="none" stroke="#cccccc" d="M2385.36,-178.997C2290.83,-171.969 2133.66,-157.782 2079,-138 2062.08,-131.875 2061.62,-122.898 2045,-116 1974.87,-86.9009 1951.94,-97.2419 1878,-80 1794.08,-60.4307 1696.12,-35.274 1644.03,-21.7094"/>
<polygon fill="#cccccc" stroke="#cccccc" points="1644.8,-18.2932 1634.24,-19.1561 1643.03,-25.0666 1644.8,-18.2932"/>
</g>
<!-- RandomAccessIndexType&#45;&gt;Int8 -->
<g id="edge64" class="edge"><title>RandomAccessIndexType&#45;&gt;Int8</title>
<path fill="none" stroke="#cccccc" d="M2385.24,-178.786C2286.36,-171.528 2106.74,-157.089 1954,-138 1872.72,-127.842 1667.11,-107.633 1590,-80 1554.69,-67.3464 1518.01,-43.7902 1495.59,-28.0012"/>
<polygon fill="#cccccc" stroke="#cccccc" points="1497.62,-25.1486 1487.45,-22.1679 1493.54,-30.8382 1497.62,-25.1486"/>
</g>
<!-- RandomAccessIndexType&#45;&gt;IntegerType -->
<g id="edge65" class="edge"><title>RandomAccessIndexType&#45;&gt;IntegerType</title>
<path fill="none" stroke="#cccccc" d="M2385.5,-177.463C2303.34,-169.826 2167.35,-155.919 2051,-138 2049.52,-137.773 2048.02,-137.533 2046.51,-137.283"/>
<polygon fill="#cccccc" stroke="#cccccc" points="2046.89,-133.795 2036.43,-135.518 2045.68,-140.69 2046.89,-133.795"/>
</g>
<!-- ReverseRandomAccessIndex -->
<g id="node35" class="node"><title>ReverseRandomAccessIndex</title>
<g id="a_node35"><a xlink:href="/type/ReverseRandomAccessIndex/" xlink:title="ReverseRandomAccessIndex">
<polygon fill="#999999" stroke="#999999" points="2722.06,-22 2553.94,-22 2553.94,-0 2722.06,-0 2722.06,-22"/>
<text text-anchor="middle" x="2638" y="-7.4" font-family="Helvetica,sans-Serif" font-size="12.00" fill="white">ReverseRandomAccessIndex</text>
</a>
</g>
</g>
<!-- RandomAccessIndexType&#45;&gt;ReverseRandomAccessIndex -->
<g id="edge66" class="edge"><title>RandomAccessIndexType&#45;&gt;ReverseRandomAccessIndex</title>
<path fill="none" stroke="#cccccc" d="M2501.6,-173.922C2523.93,-166.836 2550.75,-155.44 2570,-138 2602.69,-108.389 2622.73,-59.2907 2631.96,-31.9468"/>
<polygon fill="#cccccc" stroke="#cccccc" points="2635.33,-32.8955 2635.06,-22.304 2628.66,-30.7501 2635.33,-32.8955"/>
</g>
<!-- RandomAccessIndexType&#45;&gt;String.UTF16View.Index -->
<g id="edge74" class="edge"><title>RandomAccessIndexType&#45;&gt;String.UTF16View.Index</title>
<path fill="none" stroke="#cccccc" d="M2499.95,-173.917C2534.13,-165.085 2584.56,-151.573 2628,-138 2746.8,-100.882 2885.2,-49.9394 2949.59,-25.7829"/>
<polygon fill="#cccccc" stroke="#cccccc" points="2951.14,-28.9371 2959.27,-22.1421 2948.68,-22.3848 2951.14,-28.9371"/>
</g>
<!-- RandomAccessIndexType&#45;&gt;UInt -->
<g id="edge67" class="edge"><title>RandomAccessIndexType&#45;&gt;UInt</title>
<path fill="none" stroke="#cccccc" d="M2455.98,-173.839C2449.72,-159.185 2436.3,-132.113 2417,-116 2384.25,-88.6541 2365.94,-99.5236 2328,-80 2297.52,-64.3144 2264.52,-42.5448 2243.35,-27.9003"/>
<polygon fill="#cccccc" stroke="#cccccc" points="2245.25,-24.9554 2235.04,-22.0988 2241.24,-30.6943 2245.25,-24.9554"/>
</g>
<!-- RandomAccessIndexType&#45;&gt;UInt16 -->
<g id="edge68" class="edge"><title>RandomAccessIndexType&#45;&gt;UInt16</title>
<path fill="none" stroke="#cccccc" d="M2462.43,-173.588C2465.16,-159.115 2467.71,-132.803 2455,-116 2426.75,-78.6636 2395,-105.899 2356,-80 2335.83,-66.6047 2317.6,-45.464 2306.01,-30.3106"/>
<polygon fill="#cccccc" stroke="#cccccc" points="2308.75,-28.1315 2299.98,-22.1842 2303.13,-32.3013 2308.75,-28.1315"/>
</g>
<!-- RandomAccessIndexType&#45;&gt;UInt32 -->
<g id="edge69" class="edge"><title>RandomAccessIndexType&#45;&gt;UInt32</title>
<path fill="none" stroke="#cccccc" d="M2469.66,-173.984C2477.44,-165.244 2487.89,-151.828 2493,-138 2505.35,-104.586 2518.67,-87.017 2498,-58 2492.2,-49.8598 2439.49,-33.3345 2402.19,-22.4676"/>
<polygon fill="#cccccc" stroke="#cccccc" points="2402.72,-18.9752 2392.14,-19.5643 2400.77,-25.7006 2402.72,-18.9752"/>
</g>
<!-- RandomAccessIndexType&#45;&gt;UInt64 -->
<g id="edge70" class="edge"><title>RandomAccessIndexType&#45;&gt;UInt64</title>
<path fill="none" stroke="#cccccc" d="M2487.68,-173.899C2503.43,-166.553 2521.81,-154.904 2531,-138 2547.98,-106.762 2549.82,-88.1652 2531,-58 2524.32,-47.2973 2497.23,-34.6704 2473.83,-25.3561"/>
<polygon fill="#cccccc" stroke="#cccccc" points="2475.03,-22.0647 2464.44,-21.7085 2472.49,-28.5903 2475.03,-22.0647"/>
</g>
<!-- RandomAccessIndexType&#45;&gt;UInt8 -->
<g id="edge71" class="edge"><title>RandomAccessIndexType&#45;&gt;UInt8</title>
<path fill="none" stroke="#cccccc" d="M2499.78,-173.973C2518.38,-167.09 2538.85,-155.866 2550,-138 2568.82,-107.831 2563.86,-91.1522 2551,-58 2546.67,-46.8448 2538.24,-36.7396 2530.06,-28.8606"/>
<polygon fill="#cccccc" stroke="#cccccc" points="2532.22,-26.0953 2522.44,-22.0269 2527.55,-31.3078 2532.22,-26.0953"/>
</g>
<!-- RandomAccessIndexType&#45;&gt;UnsafeMutablePointer -->
<g id="edge72" class="edge"><title>RandomAccessIndexType&#45;&gt;UnsafeMutablePointer</title>
<path fill="none" stroke="#cccccc" d="M2441.44,-173.956C2424.88,-164.876 2400.07,-150.98 2379,-138 2363.99,-128.753 2362.05,-123.278 2346,-116 2342.06,-114.213 2109.6,-51.9875 2007.37,-24.6579"/>
<polygon fill="#cccccc" stroke="#cccccc" points="2008.17,-21.2485 1997.61,-22.0473 2006.36,-28.0111 2008.17,-21.2485"/>
</g>
<!-- RandomAccessIndexType&#45;&gt;UnsafePointer -->
<g id="edge73" class="edge"><title>RandomAccessIndexType&#45;&gt;UnsafePointer</title>
<path fill="none" stroke="#cccccc" d="M2497.43,-173.971C2524.89,-165.945 2562.69,-153.485 2594,-138 2659.22,-105.74 2728.61,-54.5282 2762.27,-28.4422"/>
<polygon fill="#cccccc" stroke="#cccccc" points="2764.69,-30.9966 2770.42,-22.0823 2760.38,-25.4803 2764.69,-30.9966"/>
</g>
<!-- RawOptionSetType -->
<g id="node33" class="node"><title>RawOptionSetType</title>
<g id="a_node33"><a xlink:href="/protocol/RawOptionSetType/" xlink:title="RawOptionSetType">
<path fill="#999999" stroke="#999999" d="M4817.21,-370C4817.21,-370 4718.79,-370 4718.79,-370 4715.12,-370 4711.45,-366.333 4711.45,-362.667 4711.45,-362.667 4711.45,-355.333 4711.45,-355.333 4711.45,-351.667 4715.12,-348 4718.79,-348 4718.79,-348 4817.21,-348 4817.21,-348 4820.88,-348 4824.55,-351.667 4824.55,-355.333 4824.55,-355.333 4824.55,-362.667 4824.55,-362.667 4824.55,-366.333 4820.88,-370 4817.21,-370"/>
<text text-anchor="middle" x="4768" y="-355.4" font-family="Helvetica,sans-Serif" font-size="12.00" fill="white">RawOptionSetType</text>
</a>
</g>
</g>
<!-- SignedIntegerType&#45;&gt;Int -->
<g id="edge38" class="edge"><title>SignedIntegerType&#45;&gt;Int</title>
<path fill="none" stroke="#cccccc" d="M1605.19,-57.9883C1551.61,-46.9972 1466.77,-29.5933 1418.27,-19.6457"/>
<polygon fill="#cccccc" stroke="#cccccc" points="1418.71,-16.1628 1408.21,-17.5819 1417.3,-23.02 1418.71,-16.1628"/>
</g>
<!-- SignedIntegerType&#45;&gt;Int16 -->
<g id="edge39" class="edge"><title>SignedIntegerType&#45;&gt;Int16</title>
<path fill="none" stroke="#cccccc" d="M1664.91,-57.9883C1673.56,-50.0446 1685.86,-38.7512 1696.11,-29.3439"/>
<polygon fill="#cccccc" stroke="#cccccc" points="1698.78,-31.6449 1703.78,-22.3039 1694.04,-26.4883 1698.78,-31.6449"/>
</g>
<!-- SignedIntegerType&#45;&gt;Int32 -->
<g id="edge40" class="edge"><title>SignedIntegerType&#45;&gt;Int32</title>
<path fill="none" stroke="#cccccc" d="M1689.22,-57.9883C1724.37,-47.9952 1778.18,-32.7008 1813.96,-22.5293"/>
<polygon fill="#cccccc" stroke="#cccccc" points="1815.33,-25.7779 1823.99,-19.6769 1813.42,-19.0447 1815.33,-25.7779"/>
</g>
<!-- SignedIntegerType&#45;&gt;Int64 -->
<g id="edge41" class="edge"><title>SignedIntegerType&#45;&gt;Int64</title>
<path fill="none" stroke="#cccccc" d="M1645.6,-57.9883C1639.13,-50.2806 1630.01,-39.4191 1622.26,-30.187"/>
<polygon fill="#cccccc" stroke="#cccccc" points="1624.76,-27.7136 1615.65,-22.3039 1619.4,-32.2137 1624.76,-27.7136"/>
</g>
<!-- SignedIntegerType&#45;&gt;Int8 -->
<g id="edge42" class="edge"><title>SignedIntegerType&#45;&gt;Int8</title>
<path fill="none" stroke="#cccccc" d="M1621.82,-57.9883C1590.66,-48.2947 1543.47,-33.6128 1510.83,-23.4573"/>
<polygon fill="#cccccc" stroke="#cccccc" points="1511.79,-20.0902 1501.2,-20.4615 1509.71,-26.7742 1511.79,-20.0902"/>
</g>
<!-- SignedNumberType -->
<g id="node39" class="node"><title>SignedNumberType</title>
<g id="a_node39"><a xlink:href="/protocol/SignedNumberType/" xlink:title="SignedNumberType">
<path fill="#999999" stroke="#999999" d="M1459.72,-196C1459.72,-196 1358.28,-196 1358.28,-196 1354.62,-196 1350.95,-192.333 1350.95,-188.667 1350.95,-188.667 1350.95,-181.333 1350.95,-181.333 1350.95,-177.667 1354.62,-174 1358.28,-174 1358.28,-174 1459.72,-174 1459.72,-174 1463.38,-174 1467.05,-177.667 1467.05,-181.333 1467.05,-181.333 1467.05,-188.667 1467.05,-188.667 1467.05,-192.333 1463.38,-196 1459.72,-196"/>
<text text-anchor="middle" x="1409" y="-181.4" font-family="Helvetica,sans-Serif" font-size="12.00" fill="white">SignedNumberType</text>
</a>
</g>
</g>
<!-- SignedNumberType&#45;&gt;AbsoluteValuable -->
<g id="edge76" class="edge"><title>SignedNumberType&#45;&gt;AbsoluteValuable</title>
<path fill="none" stroke="#cccccc" d="M1350.74,-177.301C1257.93,-166.629 1077.38,-145.867 982.921,-135.005"/>
<polygon fill="#cccccc" stroke="#cccccc" points="983.282,-131.524 972.947,-133.858 982.482,-138.478 983.282,-131.524"/>
</g>
<!-- SignedNumberType&#45;&gt;Int -->
<g id="edge77" class="edge"><title>SignedNumberType&#45;&gt;Int</title>
<path fill="none" stroke="#cccccc" d="M1395.56,-173.973C1385.57,-165.612 1372.71,-152.72 1367,-138 1353.21,-102.449 1364.5,-57.3085 1373.24,-31.8406"/>
<polygon fill="#cccccc" stroke="#cccccc" points="1376.61,-32.8096 1376.74,-22.2156 1370.03,-30.4125 1376.61,-32.8096"/>
</g>
<!-- SignedNumberType&#45;&gt;Int16 -->
<g id="edge78" class="edge"><title>SignedNumberType&#45;&gt;Int16</title>
<path fill="none" stroke="#cccccc" d="M1421.02,-173.976C1449.09,-150.956 1521.75,-93.5633 1590,-58 1618.42,-43.1892 1652.71,-30.932 1678.18,-22.8048"/>
<polygon fill="#cccccc" stroke="#cccccc" points="1679.32,-26.1148 1687.82,-19.7903 1677.23,-19.4337 1679.32,-26.1148"/>
</g>
<!-- SignedNumberType&#45;&gt;Int32 -->
<g id="edge79" class="edge"><title>SignedNumberType&#45;&gt;Int32</title>
<path fill="none" stroke="#cccccc" d="M1467.4,-178.873C1517.06,-173.102 1589.55,-161.3 1649,-138 1721.02,-109.774 1795.69,-55.4826 1830.65,-28.318"/>
<polygon fill="#cccccc" stroke="#cccccc" points="1832.95,-30.9582 1838.66,-22.0286 1828.63,-25.4534 1832.95,-30.9582"/>
</g>
<!-- SignedNumberType&#45;&gt;Int64 -->
<g id="edge80" class="edge"><title>SignedNumberType&#45;&gt;Int64</title>
<path fill="none" stroke="#cccccc" d="M1412.37,-173.95C1417.43,-159.905 1428.02,-134.101 1443,-116 1478.22,-73.4388 1535.54,-42.7542 1572.24,-26.1794"/>
<polygon fill="#cccccc" stroke="#cccccc" points="1573.82,-29.3104 1581.56,-22.0756 1571,-22.9045 1573.82,-29.3104"/>
</g>
<!-- SignedNumberType&#45;&gt;Int8 -->
<g id="edge81" class="edge"><title>SignedNumberType&#45;&gt;Int8</title>
<path fill="none" stroke="#cccccc" d="M1406.22,-173.608C1403.08,-160.046 1399.12,-135.718 1405,-116 1415.14,-82.0261 1440.5,-48.9951 1457.49,-29.5808"/>
<polygon fill="#cccccc" stroke="#cccccc" points="1460.11,-31.9075 1464.19,-22.131 1454.9,-27.2273 1460.11,-31.9075"/>
</g>
<!-- _SignedIntegerType -->
<g id="node61" class="node"><title>_SignedIntegerType</title>
<g id="a_node61"><a xlink:href="/protocol/_SignedIntegerType/" xlink:title="_SignedIntegerType">
<path fill="#999999" stroke="#999999" d="M1633.23,-138C1633.23,-138 1530.77,-138 1530.77,-138 1527.1,-138 1523.44,-134.333 1523.44,-130.667 1523.44,-130.667 1523.44,-123.333 1523.44,-123.333 1523.44,-119.667 1527.1,-116 1530.77,-116 1530.77,-116 1633.23,-116 1633.23,-116 1636.9,-116 1640.56,-119.667 1640.56,-123.333 1640.56,-123.333 1640.56,-130.667 1640.56,-130.667 1640.56,-134.333 1636.9,-138 1633.23,-138"/>
<text text-anchor="middle" x="1582" y="-123.4" font-family="Helvetica,sans-Serif" font-size="12.00" fill="white">_SignedIntegerType</text>
</a>
</g>
</g>
<!-- SignedNumberType&#45;&gt;_SignedIntegerType -->
<g id="edge82" class="edge"><title>SignedNumberType&#45;&gt;_SignedIntegerType</title>
<path fill="none" stroke="#cccccc" d="M1439.93,-173.988C1468.26,-164.819 1510.37,-151.187 1541.4,-141.144"/>
<polygon fill="#cccccc" stroke="#cccccc" points="1542.61,-144.429 1551.05,-138.019 1540.46,-137.769 1542.61,-144.429"/>
</g>
<!-- Strideable&#45;&gt;Double -->
<g id="edge51" class="edge"><title>Strideable&#45;&gt;Double</title>
<path fill="none" stroke="#cccccc" d="M705.834,-296.677C648.594,-288.796 535,-263.404 535,-186 535,-186 535,-186 535,-126 535,-80.0663 581.818,-45.5457 614.367,-27.0969"/>
<polygon fill="#cccccc" stroke="#cccccc" points="616.421,-29.9637 623.53,-22.1078 613.074,-23.8159 616.421,-29.9637"/>
</g>
<!-- Strideable&#45;&gt;Float -->
<g id="edge52" class="edge"><title>Strideable&#45;&gt;Float</title>
<path fill="none" stroke="#cccccc" d="M742.714,-289.968C754.564,-265.896 788.046,-204.592 835,-174 891.358,-137.282 936.637,-187.666 982,-138 1008.49,-109 1007.37,-59.6229 1004.2,-32.08"/>
<polygon fill="#cccccc" stroke="#cccccc" points="1007.66,-31.4881 1002.84,-22.0494 1000.72,-32.4292 1007.66,-31.4881"/>
</g>
<!-- Strideable&#45;&gt;Float80 -->
<g id="edge53" class="edge"><title>Strideable&#45;&gt;Float80</title>
<path fill="none" stroke="#cccccc" d="M738.525,-289.914C739.903,-268.167 744.578,-215.474 759,-174 779.368,-115.426 826.289,-57.8383 851.411,-29.7397"/>
<polygon fill="#cccccc" stroke="#cccccc" points="854.03,-32.0619 858.167,-22.308 848.851,-27.3532 854.03,-32.0619"/>
</g>
<!-- Strideable&#45;&gt;FloatingPointType -->
<g id="edge54" class="edge"><title>Strideable&#45;&gt;FloatingPointType</title>
<path fill="none" stroke="#cccccc" d="M731.24,-289.933C725.642,-280.949 718.118,-267.209 715,-254 700.908,-194.307 705.373,-176.573 715,-116 716.412,-107.117 719.267,-97.6171 722.111,-89.5707"/>
<polygon fill="#cccccc" stroke="#cccccc" points="725.465,-90.5958 725.721,-80.0041 718.916,-88.1244 725.465,-90.5958"/>
</g>
<!-- _RandomAccessIndexType -->
<g id="node59" class="node"><title>_RandomAccessIndexType</title>
<g id="a_node59"><a xlink:href="/protocol/_RandomAccessIndexType/" xlink:title="_RandomAccessIndexType">
<path fill="#999999" stroke="#999999" d="M2899.73,-254C2899.73,-254 2758.27,-254 2758.27,-254 2754.6,-254 2750.94,-250.333 2750.94,-246.667 2750.94,-246.667 2750.94,-239.333 2750.94,-239.333 2750.94,-235.667 2754.6,-232 2758.27,-232 2758.27,-232 2899.73,-232 2899.73,-232 2903.4,-232 2907.06,-235.667 2907.06,-239.333 2907.06,-239.333 2907.06,-246.667 2907.06,-246.667 2907.06,-250.333 2903.4,-254 2899.73,-254"/>
<text text-anchor="middle" x="2829" y="-239.4" font-family="Helvetica,sans-Serif" font-size="12.00" fill="white">_RandomAccessIndexType</text>
</a>
</g>
</g>
<!-- Strideable&#45;&gt;_RandomAccessIndexType -->
<g id="edge55" class="edge"><title>Strideable&#45;&gt;_RandomAccessIndexType</title>
<path fill="none" stroke="#cccccc" d="M770.425,-299.132C999.573,-292.995 2376.25,-256.125 2740.59,-246.368"/>
<polygon fill="#cccccc" stroke="#cccccc" points="2740.91,-249.86 2750.81,-246.094 2740.72,-242.863 2740.91,-249.86"/>
</g>
<!-- UnsignedIntegerType&#45;&gt;UInt -->
<g id="edge44" class="edge"><title>UnsignedIntegerType&#45;&gt;UInt</title>
<path fill="none" stroke="#cccccc" d="M2389.5,-57.9312C2357.13,-49.2209 2308.85,-36.1887 2257.98,-22.2583"/>
<polygon fill="#cccccc" stroke="#cccccc" points="2258.69,-18.823 2248.12,-19.5546 2256.84,-25.5739 2258.69,-18.823"/>
</g>
<!-- UnsignedIntegerType&#45;&gt;UInt16 -->
<g id="edge45" class="edge"><title>UnsignedIntegerType&#45;&gt;UInt16</title>
<path fill="none" stroke="#cccccc" d="M2403.04,-57.9883C2381.74,-49.0849 2350.36,-35.9733 2326.56,-26.0259"/>
<polygon fill="#cccccc" stroke="#cccccc" points="2327.78,-22.7405 2317.2,-22.1138 2325.08,-29.1991 2327.78,-22.7405"/>
</g>
<!-- UnsignedIntegerType&#45;&gt;UInt32 -->
<g id="edge46" class="edge"><title>UnsignedIntegerType&#45;&gt;UInt32</title>
<path fill="none" stroke="#cccccc" d="M2415.92,-57.9883C2407.03,-49.966 2394.37,-38.5272 2383.89,-29.065"/>
<polygon fill="#cccccc" stroke="#cccccc" points="2386.17,-26.4094 2376.41,-22.3039 2381.48,-31.6041 2386.17,-26.4094"/>
</g>
<!-- UnsignedIntegerType&#45;&gt;UInt64 -->
<g id="edge47" class="edge"><title>UnsignedIntegerType&#45;&gt;UInt64</title>
<path fill="none" stroke="#cccccc" d="M2428.79,-57.9883C2430.07,-50.8311 2431.83,-40.9547 2433.39,-32.1885"/>
<polygon fill="#cccccc" stroke="#cccccc" points="2436.85,-32.7634 2435.16,-22.3039 2429.96,-31.5329 2436.85,-32.7634"/>
</g>
<!-- UnsignedIntegerType&#45;&gt;UInt8 -->
<g id="edge48" class="edge"><title>UnsignedIntegerType&#45;&gt;UInt8</title>
<path fill="none" stroke="#cccccc" d="M2441.66,-57.9883C2453.94,-49.5993 2471.7,-37.4743 2485.89,-27.7804"/>
<polygon fill="#cccccc" stroke="#cccccc" points="2487.91,-30.6438 2494.19,-22.1138 2483.96,-24.8632 2487.91,-30.6438"/>
</g>
<!-- _BidirectionalIndexType -->
<g id="node55" class="node"><title>_BidirectionalIndexType</title>
<g id="a_node55"><a xlink:href="/protocol/_BidirectionalIndexType/" xlink:title="_BidirectionalIndexType">
<path fill="#999999" stroke="#999999" d="M3283.23,-312C3283.23,-312 3160.77,-312 3160.77,-312 3157.1,-312 3153.44,-308.333 3153.44,-304.667 3153.44,-304.667 3153.44,-297.333 3153.44,-297.333 3153.44,-293.667 3157.1,-290 3160.77,-290 3160.77,-290 3283.23,-290 3283.23,-290 3286.9,-290 3290.56,-293.667 3290.56,-297.333 3290.56,-297.333 3290.56,-304.667 3290.56,-304.667 3290.56,-308.333 3286.9,-312 3283.23,-312"/>
<text text-anchor="middle" x="3222" y="-297.4" font-family="Helvetica,sans-Serif" font-size="12.00" fill="white">_BidirectionalIndexType</text>
</a>
</g>
</g>
<!-- _BidirectionalIndexType&#45;&gt;BidirectionalIndexType -->
<g id="edge124" class="edge"><title>_BidirectionalIndexType&#45;&gt;BidirectionalIndexType</title>
<path fill="none" stroke="#cccccc" d="M3222,-289.988C3222,-282.91 3222,-273.171 3222,-264.478"/>
<polygon fill="#cccccc" stroke="#cccccc" points="3225.5,-264.304 3222,-254.304 3218.5,-264.304 3225.5,-264.304"/>
</g>
<!-- _BidirectionalIndexType&#45;&gt;_RandomAccessIndexType -->
<g id="edge125" class="edge"><title>_BidirectionalIndexType&#45;&gt;_RandomAccessIndexType</title>
<path fill="none" stroke="#cccccc" d="M3153.54,-290.246C3085.49,-280.549 2981.15,-265.68 2909.24,-255.434"/>
<polygon fill="#cccccc" stroke="#cccccc" points="2909.71,-251.966 2899.32,-254.02 2908.72,-258.896 2909.71,-251.966"/>
</g>
<!-- _ForwardIndexType -->
<g id="node56" class="node"><title>_ForwardIndexType</title>
<g id="a_node56"><a xlink:href="/protocol/_ForwardIndexType/" xlink:title="_ForwardIndexType">
<path fill="#999999" stroke="#999999" d="M3272.71,-370C3272.71,-370 3171.29,-370 3171.29,-370 3167.62,-370 3163.95,-366.333 3163.95,-362.667 3163.95,-362.667 3163.95,-355.333 3163.95,-355.333 3163.95,-351.667 3167.62,-348 3171.29,-348 3171.29,-348 3272.71,-348 3272.71,-348 3276.38,-348 3280.05,-351.667 3280.05,-355.333 3280.05,-355.333 3280.05,-362.667 3280.05,-362.667 3280.05,-366.333 3276.38,-370 3272.71,-370"/>
<text text-anchor="middle" x="3222" y="-355.4" font-family="Helvetica,sans-Serif" font-size="12.00" fill="white">_ForwardIndexType</text>
</a>
</g>
</g>
<!-- _ForwardIndexType&#45;&gt;ForwardIndexType -->
<g id="edge112" class="edge"><title>_ForwardIndexType&#45;&gt;ForwardIndexType</title>
<path fill="none" stroke="#cccccc" d="M3280.49,-351.133C3370.17,-340.605 3541.03,-320.546 3634.3,-309.596"/>
<polygon fill="#cccccc" stroke="#cccccc" points="3634.93,-313.046 3644.46,-308.403 3634.12,-306.093 3634.93,-313.046"/>
</g>
<!-- _ForwardIndexType&#45;&gt;_BidirectionalIndexType -->
<g id="edge113" class="edge"><title>_ForwardIndexType&#45;&gt;_BidirectionalIndexType</title>
<path fill="none" stroke="#cccccc" d="M3222,-347.988C3222,-340.91 3222,-331.171 3222,-322.478"/>
<polygon fill="#cccccc" stroke="#cccccc" points="3225.5,-322.304 3222,-312.304 3218.5,-322.304 3225.5,-322.304"/>
</g>
<!-- _Incrementable&#45;&gt;_ForwardIndexType -->
<g id="edge110" class="edge"><title>_Incrementable&#45;&gt;_ForwardIndexType</title>
<path fill="none" stroke="#cccccc" d="M3196.54,-405.988C3200.63,-398.595 3206.33,-388.301 3211.3,-379.325"/>
<polygon fill="#cccccc" stroke="#cccccc" points="3214.51,-380.748 3216.3,-370.304 3208.39,-377.358 3214.51,-380.748"/>
</g>
<!-- _Incrementable&#45;&gt;_IntegerType -->
<g id="edge111" class="edge"><title>_Incrementable&#45;&gt;_IntegerType</title>
<path fill="none" stroke="#cccccc" d="M3182.28,-405.827C3158.51,-378.354 3092.35,-303.797 3063,-290 3051.83,-284.75 2295.57,-210.793 2091.35,-190.898"/>
<polygon fill="#cccccc" stroke="#cccccc" points="2091.49,-187.396 2081.2,-189.91 2090.82,-194.363 2091.49,-187.396"/>
</g>
<!-- _IntegerType&#45;&gt;IntegerType -->
<g id="edge33" class="edge"><title>_IntegerType&#45;&gt;IntegerType</title>
<path fill="none" stroke="#cccccc" d="M2033.67,-173.988C2028.08,-166.359 2020.24,-155.64 2013.52,-146.47"/>
<polygon fill="#cccccc" stroke="#cccccc" points="2016.28,-144.305 2007.54,-138.304 2010.63,-148.44 2016.28,-144.305"/>
</g>
<!-- _IntegerType&#45;&gt;_SignedIntegerType -->
<g id="edge34" class="edge"><title>_IntegerType&#45;&gt;_SignedIntegerType</title>
<path fill="none" stroke="#cccccc" d="M2000.67,-179.079C1922.07,-169.49 1747.62,-148.206 1650.54,-136.363"/>
<polygon fill="#cccccc" stroke="#cccccc" points="1650.89,-132.879 1640.54,-135.142 1650.04,-139.827 1650.89,-132.879"/>
</g>
<!-- _UnsignedIntegerType -->
<g id="node63" class="node"><title>_UnsignedIntegerType</title>
<g id="a_node63"><a xlink:href="/protocol/_UnsignedIntegerType/" xlink:title="_UnsignedIntegerType">
<path fill="#999999" stroke="#999999" d="M2329.73,-138C2329.73,-138 2214.27,-138 2214.27,-138 2210.6,-138 2206.93,-134.333 2206.93,-130.667 2206.93,-130.667 2206.93,-123.333 2206.93,-123.333 2206.93,-119.667 2210.6,-116 2214.27,-116 2214.27,-116 2329.73,-116 2329.73,-116 2333.4,-116 2337.07,-119.667 2337.07,-123.333 2337.07,-123.333 2337.07,-130.667 2337.07,-130.667 2337.07,-134.333 2333.4,-138 2329.73,-138"/>
<text text-anchor="middle" x="2272" y="-123.4" font-family="Helvetica,sans-Serif" font-size="12.00" fill="white">_UnsignedIntegerType</text>
</a>
</g>
</g>
<!-- _IntegerType&#45;&gt;_UnsignedIntegerType -->
<g id="edge35" class="edge"><title>_IntegerType&#45;&gt;_UnsignedIntegerType</title>
<path fill="none" stroke="#cccccc" d="M2081.24,-174.246C2120.01,-164.846 2178.83,-150.588 2220.89,-140.39"/>
<polygon fill="#cccccc" stroke="#cccccc" points="2221.77,-143.777 2230.67,-138.02 2220.13,-136.974 2221.77,-143.777"/>
</g>
<!-- _RandomAccessIndexType&#45;&gt;RandomAccessIndexType -->
<g id="edge58" class="edge"><title>_RandomAccessIndexType&#45;&gt;RandomAccessIndexType</title>
<path fill="none" stroke="#cccccc" d="M2763.03,-231.988C2699.34,-222.323 2602.98,-207.698 2536.08,-197.546"/>
<polygon fill="#cccccc" stroke="#cccccc" points="2536.43,-194.059 2526.02,-196.019 2535.38,-200.98 2536.43,-194.059"/>
</g>
<!-- _RawOptionSetType&#45;&gt;RawOptionSetType -->
<g id="edge126" class="edge"><title>_RawOptionSetType&#45;&gt;RawOptionSetType</title>
<path fill="none" stroke="#cccccc" d="M4768,-405.988C4768,-398.91 4768,-389.171 4768,-380.478"/>
<polygon fill="#cccccc" stroke="#cccccc" points="4771.5,-380.304 4768,-370.304 4764.5,-380.304 4771.5,-380.304"/>
</g>
<!-- _SignedIntegerType&#45;&gt;SignedIntegerType -->
<g id="edge49" class="edge"><title>_SignedIntegerType&#45;&gt;SignedIntegerType</title>
<path fill="none" stroke="#cccccc" d="M1594.87,-115.988C1605.39,-107.809 1620.47,-96.0773 1632.77,-86.5108"/>
<polygon fill="#cccccc" stroke="#cccccc" points="1635.01,-89.2061 1640.75,-80.3039 1630.71,-83.6806 1635.01,-89.2061"/>
</g>
<!-- _SignedNumberType&#45;&gt;SignedNumberType -->
<g id="edge75" class="edge"><title>_SignedNumberType&#45;&gt;SignedNumberType</title>
<path fill="none" stroke="#cccccc" d="M1600.36,-289.883C1563.24,-269.729 1479.89,-224.482 1436.47,-200.914"/>
<polygon fill="#cccccc" stroke="#cccccc" points="1438.05,-197.789 1427.59,-196.094 1434.71,-203.941 1438.05,-197.789"/>
</g>
<!-- _UnsignedIntegerType&#45;&gt;UnsignedIntegerType -->
<g id="edge50" class="edge"><title>_UnsignedIntegerType&#45;&gt;UnsignedIntegerType</title>
<path fill="none" stroke="#cccccc" d="M2299.71,-115.988C2324.76,-106.938 2361.84,-93.5399 2389.53,-83.5367"/>
<polygon fill="#cccccc" stroke="#cccccc" points="2391.05,-86.709 2399.27,-80.0192 2388.67,-80.1255 2391.05,-86.709"/>
</g>
</g>
</svg>
