<?xml version="1.0" encoding="UTF-8" standalone="no"?>
<!DOCTYPE svg PUBLIC "-//W3C//DTD SVG 1.1//EN"
 "http://www.w3.org/Graphics/SVG/1.1/DTD/svg11.dtd">
<!-- Generated by graphviz version 2.36.0 (20140111.2315)
 -->
<!-- Title: ArrayType &#45; Type Hierarchy &#45; Swifter Pages: 1 -->
<svg width="572pt" height="601pt"
 viewBox="0.00 0.00 572.40 601.20" xmlns="http://www.w3.org/2000/svg" xmlns:xlink="http://www.w3.org/1999/xlink">
<g id="graph0" class="graph" transform="scale(1 1) rotate(0) translate(7.2 543.6)">
<g transform="translate(0 -543.6)">
<g>
    <path fill="#666666" d="M13.846,10.832c-0.336-0.464-0.792-0.844-1.368-1.14s-1.224-0.444-1.944-0.444
        c-0.384,0-0.772,0.052-1.164,0.156C8.977,9.509,8.622,9.677,8.301,9.908c-0.32,0.232-0.58,0.52-0.78,0.864
        c-0.2,0.344-0.3,0.756-0.3,1.236c0,0.464,0.092,0.852,0.276,1.164c0.184,0.312,0.432,0.576,0.744,0.792s0.68,0.4,1.104,0.552
        c0.423,0.152,0.876,0.309,1.356,0.468c0.576,0.177,1.16,0.376,1.752,0.601c0.592,0.224,1.128,0.52,1.608,0.888
        s0.872,0.828,1.176,1.38s0.456,1.252,0.456,2.101c0,0.88-0.164,1.644-0.492,2.292c-0.328,0.647-0.765,1.184-1.308,1.607
        c-0.544,0.424-1.172,0.74-1.884,0.948s-1.444,0.312-2.196,0.312c-1.072,0-2.108-0.208-3.108-0.624
        c-1-0.415-1.828-1.031-2.484-1.848l1.848-1.56c0.4,0.592,0.936,1.071,1.608,1.439c0.672,0.368,1.399,0.552,2.184,0.552
        c0.4,0,0.8-0.056,1.2-0.168c0.4-0.111,0.764-0.288,1.092-0.527c0.328-0.24,0.596-0.54,0.804-0.9
        c0.208-0.36,0.312-0.796,0.312-1.308s-0.108-0.94-0.324-1.284c-0.216-0.344-0.508-0.636-0.876-0.876s-0.796-0.444-1.284-0.612
        c-0.488-0.168-1.004-0.34-1.548-0.516c-0.544-0.16-1.08-0.356-1.608-0.588c-0.528-0.232-1-0.528-1.416-0.889
        c-0.416-0.359-0.752-0.804-1.008-1.332c-0.256-0.527-0.384-1.184-0.384-1.968c0-0.848,0.172-1.576,0.516-2.184
        c0.344-0.608,0.792-1.112,1.344-1.512c0.552-0.4,1.176-0.692,1.872-0.876c0.696-0.184,1.396-0.276,2.1-0.276
        c0.992,0,1.92,0.176,2.784,0.528c0.864,0.352,1.56,0.824,2.088,1.416L13.846,10.832z"/>
    <path fill="#666666" d="M18.813,13.304l2.568,8.688h0.048l2.712-8.688h2.376l2.76,8.688h0.048l2.568-8.688h2.376L30.501,24.68
        h-2.352l-2.808-8.544h-0.048l-2.784,8.544h-2.352l-3.792-11.376H18.813z"/>
    <path fill="#666666" d="M38.685,9.2c0,0.416-0.147,0.76-0.44,1.032c-0.294,0.272-0.647,0.408-1.06,0.408s-0.762-0.14-1.047-0.42
        c-0.286-0.28-0.429-0.62-0.429-1.02c0-0.416,0.143-0.764,0.429-1.044c0.286-0.28,0.635-0.42,1.047-0.42s0.766,0.14,1.06,0.42
        C38.538,8.437,38.685,8.784,38.685,9.2z M38.325,24.68h-2.256V13.304h2.256V24.68z"/>
    <path fill="#666666" d="M47.613,15.152h-2.64v9.528h-2.256v-9.528h-2.256v-1.848h2.256v-2.376c0-0.672,0.076-1.292,0.228-1.86
        c0.152-0.568,0.4-1.06,0.744-1.476c0.344-0.416,0.784-0.744,1.32-0.984c0.536-0.24,1.188-0.36,1.956-0.36
        c0.544,0,1.016,0.056,1.416,0.168l-0.264,1.944c-0.176-0.048-0.352-0.088-0.528-0.12c-0.176-0.032-0.376-0.048-0.6-0.048
        c-0.432,0-0.78,0.076-1.044,0.228c-0.264,0.152-0.468,0.356-0.612,0.612s-0.24,0.548-0.288,0.876
        c-0.048,0.328-0.072,0.668-0.072,1.02v2.376h2.64V15.152z"/>
    <path fill="#666666" d="M54.909,15.152h-3.024v5.91c0,0.687,0.128,1.177,0.384,1.472c0.256,0.295,0.664,0.442,1.224,0.442
        c0.208,0,0.432-0.021,0.672-0.065c0.24-0.044,0.456-0.11,0.648-0.198l0.072,1.848c-0.272,0.096-0.572,0.172-0.9,0.229
        c-0.328,0.056-0.668,0.084-1.02,0.084c-1.072,0-1.892-0.296-2.46-0.889c-0.568-0.592-0.852-1.479-0.852-2.664v-6.168h-2.184
        v-1.848h2.184V10.04h2.232v3.264h3.024V15.152z"/>
    <path fill="#666666" d="M57.356,7.688h5.832c1.088,0,2.176,0.16,3.264,0.48c1.088,0.32,2.072,0.824,2.952,1.512
        s1.592,1.568,2.136,2.64c0.544,1.072,0.816,2.36,0.816,3.864c0,1.456-0.272,2.716-0.816,3.78s-1.256,1.943-2.136,2.64
        s-1.864,1.216-2.952,1.561c-1.088,0.344-2.176,0.516-3.264,0.516h-5.832V7.688z M59.732,22.593h2.976
        c1.024,0,1.972-0.145,2.844-0.432c0.872-0.288,1.624-0.704,2.256-1.248c0.632-0.544,1.124-1.216,1.476-2.017
        c0.352-0.8,0.528-1.704,0.528-2.712c0-1.056-0.176-1.983-0.528-2.784c-0.353-0.8-0.844-1.468-1.476-2.004
        c-0.632-0.536-1.384-0.944-2.256-1.224s-1.82-0.42-2.844-0.42h-2.976V22.593z"/>
    <path fill="#666666" d="M86.06,18.969c0,0.88-0.156,1.688-0.468,2.424c-0.312,0.736-0.744,1.372-1.296,1.908
        c-0.552,0.536-1.204,0.952-1.956,1.248c-0.752,0.296-1.56,0.443-2.424,0.443c-0.864,0-1.672-0.147-2.424-0.443
        c-0.752-0.296-1.4-0.712-1.944-1.248c-0.544-0.536-0.972-1.172-1.284-1.908c-0.312-0.735-0.468-1.544-0.468-2.424
        s0.156-1.684,0.468-2.412c0.312-0.728,0.74-1.356,1.284-1.884c0.543-0.528,1.191-0.939,1.944-1.236
        c0.752-0.296,1.56-0.444,2.424-0.444c0.864,0,1.672,0.148,2.424,0.444c0.752,0.297,1.404,0.708,1.956,1.236
        c0.552,0.527,0.984,1.156,1.296,1.884C85.904,17.285,86.06,18.089,86.06,18.969z M83.708,18.98c0-0.542-0.084-1.061-0.252-1.556
        c-0.169-0.494-0.414-0.929-0.734-1.304s-0.718-0.674-1.192-0.897s-1.015-0.335-1.625-0.335c-0.61,0-1.152,0.111-1.625,0.335
        c-0.474,0.224-0.871,0.522-1.191,0.897c-0.321,0.375-0.566,0.81-0.734,1.304C76.184,17.92,76.1,18.438,76.1,18.98
        c0,0.543,0.084,1.062,0.253,1.556c0.168,0.495,0.413,0.934,0.734,1.316c0.321,0.383,0.718,0.686,1.191,0.909
        c0.473,0.224,1.015,0.335,1.625,0.335c0.61,0,1.151-0.111,1.625-0.335s0.871-0.526,1.192-0.909s0.565-0.821,0.734-1.316
        C83.624,20.042,83.708,19.523,83.708,18.98z"/>
    <path fill="#666666" d="M96.428,16.184c-0.24-0.368-0.6-0.676-1.08-0.924s-0.992-0.372-1.536-0.372
        c-0.592,0-1.116,0.112-1.572,0.336c-0.456,0.225-0.844,0.524-1.164,0.9c-0.32,0.376-0.564,0.812-0.732,1.308
        s-0.252,1.017-0.252,1.56c0,0.545,0.084,1.064,0.252,1.561s0.412,0.933,0.732,1.308c0.32,0.376,0.712,0.677,1.176,0.9
        c0.464,0.225,0.992,0.336,1.584,0.336c0.576,0,1.1-0.111,1.572-0.336c0.472-0.224,0.86-0.528,1.164-0.912l1.512,1.368
        c-0.48,0.561-1.08,0.996-1.8,1.308c-0.72,0.312-1.536,0.468-2.448,0.468c-0.88,0-1.692-0.144-2.436-0.432
        c-0.744-0.288-1.388-0.691-1.932-1.212c-0.544-0.52-0.972-1.147-1.284-1.884s-0.468-1.561-0.468-2.473
        c0-0.896,0.152-1.711,0.456-2.447c0.304-0.736,0.728-1.368,1.272-1.896c0.543-0.527,1.188-0.936,1.932-1.224
        c0.744-0.288,1.548-0.433,2.412-0.433c0.8,0,1.596,0.16,2.388,0.48s1.419,0.784,1.884,1.392L96.428,16.184z"/>
    <path fill="#666666" d="M103.1,23.24c0,0.417-0.152,0.784-0.456,1.104c-0.304,0.32-0.688,0.479-1.152,0.479
        c-0.448,0-0.828-0.155-1.14-0.468c-0.312-0.312-0.468-0.676-0.468-1.092c0-0.432,0.152-0.804,0.456-1.116
        c0.304-0.312,0.688-0.468,1.152-0.468c0.464,0,0.848,0.152,1.152,0.456C102.947,22.44,103.1,22.808,103.1,23.24z"/>
    <path fill="#666666" d="M116.635,18.969c0,0.88-0.156,1.688-0.468,2.424c-0.312,0.736-0.744,1.372-1.296,1.908
        c-0.552,0.536-1.204,0.952-1.956,1.248c-0.752,0.296-1.56,0.443-2.424,0.443c-0.864,0-1.672-0.147-2.424-0.443
        c-0.752-0.296-1.4-0.712-1.944-1.248c-0.544-0.536-0.972-1.172-1.284-1.908c-0.312-0.735-0.468-1.544-0.468-2.424
        s0.156-1.684,0.468-2.412c0.312-0.728,0.74-1.356,1.284-1.884c0.543-0.528,1.191-0.939,1.944-1.236
        c0.752-0.296,1.56-0.444,2.424-0.444c0.864,0,1.672,0.148,2.424,0.444c0.752,0.297,1.404,0.708,1.956,1.236
        c0.552,0.527,0.984,1.156,1.296,1.884C116.479,17.285,116.635,18.089,116.635,18.969z M114.283,18.98
        c0-0.542-0.084-1.061-0.252-1.556c-0.169-0.494-0.414-0.929-0.734-1.304s-0.718-0.674-1.192-0.897s-1.015-0.335-1.625-0.335
        c-0.61,0-1.152,0.111-1.625,0.335c-0.474,0.224-0.871,0.522-1.191,0.897c-0.321,0.375-0.566,0.81-0.734,1.304
        c-0.169,0.495-0.253,1.014-0.253,1.556c0,0.543,0.084,1.062,0.253,1.556c0.168,0.495,0.413,0.934,0.734,1.316
        c0.321,0.383,0.718,0.686,1.191,0.909c0.473,0.224,1.015,0.335,1.625,0.335c0.61,0,1.151-0.111,1.625-0.335
        s0.871-0.526,1.192-0.909s0.565-0.821,0.734-1.316C114.199,20.042,114.283,19.523,114.283,18.98z"/>
    <path fill="#666666" d="M119.251,14.577c-0.016-0.48-0.04-0.904-0.072-1.272h2.136c0.032,0.288,0.056,0.62,0.072,0.996
        c0.016,0.376,0.024,0.684,0.024,0.924h0.072c0.32-0.672,0.788-1.212,1.404-1.62c0.616-0.408,1.308-0.612,2.076-0.612
        c0.352,0,0.648,0.033,0.888,0.097l-0.096,2.088c-0.32-0.08-0.664-0.12-1.032-0.12c-0.544,0-1.016,0.101-1.416,0.3
        c-0.4,0.2-0.732,0.468-0.996,0.805c-0.264,0.336-0.46,0.724-0.588,1.163c-0.128,0.44-0.192,0.9-0.192,1.381v5.976h-2.256v-8.928
        C119.275,15.449,119.267,15.056,119.251,14.577z"/>
    <path fill="#666666" d="M128.419,26.625c0.496,0.56,1.116,1.008,1.86,1.344c0.744,0.336,1.508,0.504,2.292,0.504
        c0.752,0,1.384-0.108,1.896-0.324s0.924-0.512,1.236-0.888s0.536-0.82,0.672-1.332c0.136-0.513,0.204-1.064,0.204-1.656v-1.464
        h-0.048c-0.416,0.641-0.984,1.128-1.704,1.464c-0.72,0.336-1.488,0.504-2.304,0.504c-0.864,0-1.652-0.151-2.364-0.456
        c-0.712-0.304-1.316-0.72-1.812-1.248c-0.496-0.527-0.88-1.147-1.152-1.859s-0.408-1.477-0.408-2.292
        c0-0.816,0.136-1.584,0.408-2.305c0.272-0.72,0.656-1.348,1.152-1.884c0.496-0.535,1.096-0.96,1.8-1.271
        c0.704-0.312,1.488-0.469,2.352-0.469c0.816,0,1.596,0.177,2.34,0.528c0.744,0.353,1.332,0.888,1.764,1.608h0.048v-1.824h2.184
        v10.8c0,0.832-0.104,1.628-0.312,2.388c-0.208,0.76-0.56,1.433-1.056,2.017s-1.144,1.052-1.944,1.404
        c-0.8,0.352-1.792,0.527-2.976,0.527c-0.992,0-1.988-0.18-2.988-0.54c-1-0.359-1.86-0.868-2.58-1.523L128.419,26.625z
         M129.091,18.873c0,0.527,0.084,1.031,0.253,1.512c0.168,0.479,0.417,0.904,0.746,1.271c0.329,0.369,0.726,0.664,1.192,0.889
        c0.465,0.224,0.995,0.336,1.589,0.336c0.577,0,1.107-0.104,1.589-0.312c0.481-0.207,0.891-0.491,1.228-0.852
        s0.598-0.784,0.782-1.272c0.185-0.487,0.277-1.012,0.277-1.571c0-0.544-0.093-1.057-0.277-1.536
        c-0.185-0.48-0.449-0.904-0.794-1.272c-0.345-0.367-0.755-0.66-1.228-0.876c-0.474-0.216-1-0.324-1.577-0.324
        c-0.594,0-1.124,0.108-1.589,0.324c-0.466,0.216-0.863,0.504-1.192,0.864s-0.578,0.784-0.746,1.271
        C129.175,17.812,129.091,18.329,129.091,18.873z"/>
</g>
<g><a xlink:href="/" pointer-events="all" target="_top"><polygon fill="none" points="0,0 145,0 145,35 0,35 0,0"/></a></g>

</g>


<!-- Array -->
<g id="node1" class="node">
<g id="a_node1"><a xlink:href="/type/Array/" target="_top">
<polygon fill="#999999" stroke="#999999" points="131,-22 77,-22 77,-0 131,-0 131,-22"/>
<text text-anchor="middle" x="104" y="-7.4" font-family="Helvetica,sans-Serif" font-size="12.00" fill="white">Array</text>
</a>
</g>
</g>
<!-- ArrayLiteralConvertible -->
<g id="node2" class="node">
<g id="a_node2"><a xlink:href="/protocol/ArrayLiteralConvertible/" target="_top">
<path fill="#999999" stroke="#999999" d="M124.705,-138C124.705,-138 7.29524,-138 7.29524,-138 3.62858,-138 -0.0380908,-134.333 -0.0380908,-130.667 -0.0380908,-130.667 -0.0380908,-123.333 -0.0380908,-123.333 -0.0380908,-119.667 3.62858,-116 7.29524,-116 7.29524,-116 124.705,-116 124.705,-116 128.371,-116 132.038,-119.667 132.038,-123.333 132.038,-123.333 132.038,-130.667 132.038,-130.667 132.038,-134.333 128.371,-138 124.705,-138"/>
<text text-anchor="middle" x="66" y="-123.4" font-family="Helvetica,sans-Serif" font-size="12.00" fill="white">ArrayLiteralConvertible</text>
</a>
</g>
</g>
<!-- ArrayType -->
<g id="node3" class="node">
<g id="a_node3"><a xlink:href="/protocol/ArrayType/" target="_top">
<path fill="#ee543d" stroke="#ee543d" d="M223.687,-80C223.687,-80 174.313,-80 174.313,-80 170.647,-80 166.98,-76.3333 166.98,-72.6667 166.98,-72.6667 166.98,-65.3333 166.98,-65.3333 166.98,-61.6667 170.647,-58 174.313,-58 174.313,-58 223.687,-58 223.687,-58 227.353,-58 231.02,-61.6667 231.02,-65.3333 231.02,-65.3333 231.02,-72.6667 231.02,-72.6667 231.02,-76.3333 227.353,-80 223.687,-80"/>
<text text-anchor="middle" x="199" y="-65.4" font-family="Helvetica,sans-Serif" font-size="12.00" fill="white">ArrayType</text>
</a>
</g>
</g>
<!-- ArrayLiteralConvertible&#45;&gt;ArrayType -->
<g id="edge7" class="edge">
<path fill="none" stroke="#cccccc" d="M89.7777,-115.988C110.923,-107.085 142.064,-93.9733 165.688,-84.0259"/>
<polygon fill="#cccccc" stroke="#cccccc" points="167.122,-87.2202 174.98,-80.1138 164.405,-80.7687 167.122,-87.2202"/>
</g>
<!-- ArrayType&#45;&gt;Array -->
<g id="edge1" class="edge">
<path fill="none" stroke="#cccccc" d="M182.016,-57.9883C167.516,-49.441 146.437,-37.0155 129.844,-27.2343"/>
<polygon fill="#cccccc" stroke="#cccccc" points="131.549,-24.1768 121.157,-22.1138 127.995,-30.2071 131.549,-24.1768"/>
</g>
<!-- ContiguousArray -->
<g id="node5" class="node">
<g id="a_node5"><a xlink:href="/type/ContiguousArray/" target="_top">
<polygon fill="#999999" stroke="#999999" points="248.534,-22 149.466,-22 149.466,-0 248.534,-0 248.534,-22"/>
<text text-anchor="middle" x="199" y="-7.4" font-family="Helvetica,sans-Serif" font-size="12.00" fill="white">ContiguousArray</text>
</a>
</g>
</g>
<!-- ArrayType&#45;&gt;ContiguousArray -->
<g id="edge2" class="edge">
<path fill="none" stroke="#cccccc" d="M199,-57.9883C199,-50.9098 199,-41.1714 199,-32.4779"/>
<polygon fill="#cccccc" stroke="#cccccc" points="202.5,-32.3038 199,-22.3039 195.5,-32.3039 202.5,-32.3038"/>
</g>
<!-- Slice -->
<g id="node11" class="node">
<g id="a_node11"><a xlink:href="/type/Slice/" target="_top">
<polygon fill="#999999" stroke="#999999" points="321,-22 267,-22 267,-0 321,-0 321,-22"/>
<text text-anchor="middle" x="294" y="-7.4" font-family="Helvetica,sans-Serif" font-size="12.00" fill="white">Slice</text>
</a>
</g>
</g>
<!-- ArrayType&#45;&gt;Slice -->
<g id="edge3" class="edge">
<path fill="none" stroke="#cccccc" d="M215.984,-57.9883C230.484,-49.441 251.563,-37.0155 268.156,-27.2343"/>
<polygon fill="#cccccc" stroke="#cccccc" points="270.005,-30.2071 276.843,-22.1138 266.451,-24.1768 270.005,-30.2071"/>
</g>
<!-- CollectionType -->
<g id="node4" class="node">
<g id="a_node4"><a xlink:href="/protocol/CollectionType/" target="_top">
<path fill="#999999" stroke="#999999" d="M329.704,-312C329.704,-312 256.296,-312 256.296,-312 252.63,-312 248.963,-308.333 248.963,-304.667 248.963,-304.667 248.963,-297.333 248.963,-297.333 248.963,-293.667 252.63,-290 256.296,-290 256.296,-290 329.704,-290 329.704,-290 333.37,-290 337.037,-293.667 337.037,-297.333 337.037,-297.333 337.037,-304.667 337.037,-304.667 337.037,-308.333 333.37,-312 329.704,-312"/>
<text text-anchor="middle" x="293" y="-297.4" font-family="Helvetica,sans-Serif" font-size="12.00" fill="white">CollectionType</text>
</a>
</g>
</g>
<!-- MutableCollectionType -->
<g id="node7" class="node">
<g id="a_node7"><a xlink:href="/protocol/MutableCollectionType/" target="_top">
<path fill="#999999" stroke="#999999" d="M388.221,-196C388.221,-196 271.779,-196 271.779,-196 268.112,-196 264.446,-192.333 264.446,-188.667 264.446,-188.667 264.446,-181.333 264.446,-181.333 264.446,-177.667 268.112,-174 271.779,-174 271.779,-174 388.221,-174 388.221,-174 391.888,-174 395.554,-177.667 395.554,-181.333 395.554,-181.333 395.554,-188.667 395.554,-188.667 395.554,-192.333 391.888,-196 388.221,-196"/>
<text text-anchor="middle" x="330" y="-181.4" font-family="Helvetica,sans-Serif" font-size="12.00" fill="white">MutableCollectionType</text>
</a>
</g>
</g>
<!-- CollectionType&#45;&gt;MutableCollectionType -->
<g id="edge21" class="edge">
<path fill="none" stroke="#cccccc" d="M296.284,-289.883C302.384,-271.086 315.569,-230.463 323.523,-205.956"/>
<polygon fill="#cccccc" stroke="#cccccc" points="326.913,-206.85 326.671,-196.258 320.254,-204.689 326.913,-206.85"/>
</g>
<!-- _ArrayType -->
<g id="node13" class="node">
<g id="a_node13"><a xlink:href="/protocol/_ArrayType/" target="_top">
<path fill="#999999" stroke="#999999" d="M191.19,-254C191.19,-254 134.81,-254 134.81,-254 131.144,-254 127.477,-250.333 127.477,-246.667 127.477,-246.667 127.477,-239.333 127.477,-239.333 127.477,-235.667 131.144,-232 134.81,-232 134.81,-232 191.19,-232 191.19,-232 194.856,-232 198.523,-235.667 198.523,-239.333 198.523,-239.333 198.523,-246.667 198.523,-246.667 198.523,-250.333 194.856,-254 191.19,-254"/>
<text text-anchor="middle" x="163" y="-239.4" font-family="Helvetica,sans-Serif" font-size="12.00" fill="white">_ArrayType</text>
</a>
</g>
</g>
<!-- CollectionType&#45;&gt;_ArrayType -->
<g id="edge8" class="edge">
<path fill="none" stroke="#cccccc" d="M269.759,-289.988C249.182,-281.124 218.923,-268.09 195.868,-258.159"/>
<polygon fill="#cccccc" stroke="#cccccc" points="197.047,-254.856 186.478,-254.114 194.278,-261.285 197.047,-254.856"/>
</g>
<!-- _ExtensibleCollectionType -->
<g id="node15" class="node">
<g id="a_node15"><a xlink:href="/protocol/_ExtensibleCollectionType/" target="_top">
<path fill="#999999" stroke="#999999" d="M526.733,-254C526.733,-254 391.267,-254 391.267,-254 387.601,-254 383.934,-250.333 383.934,-246.667 383.934,-246.667 383.934,-239.333 383.934,-239.333 383.934,-235.667 387.601,-232 391.267,-232 391.267,-232 526.733,-232 526.733,-232 530.399,-232 534.066,-235.667 534.066,-239.333 534.066,-239.333 534.066,-246.667 534.066,-246.667 534.066,-250.333 530.399,-254 526.733,-254"/>
<text text-anchor="middle" x="459" y="-239.4" font-family="Helvetica,sans-Serif" font-size="12.00" fill="white">_ExtensibleCollectionType</text>
</a>
</g>
</g>
<!-- CollectionType&#45;&gt;_ExtensibleCollectionType -->
<g id="edge16" class="edge">
<path fill="none" stroke="#cccccc" d="M322.677,-289.988C349.74,-280.859 389.919,-267.305 419.651,-257.274"/>
<polygon fill="#cccccc" stroke="#cccccc" points="420.944,-260.532 429.3,-254.019 418.706,-253.899 420.944,-260.532"/>
</g>
<!-- _Sliceable -->
<g id="node18" class="node">
<g id="a_node18"><a xlink:href="/protocol/_Sliceable/" target="_top">
<path fill="#999999" stroke="#999999" d="M285.194,-254C285.194,-254 234.806,-254 234.806,-254 231.139,-254 227.473,-250.333 227.473,-246.667 227.473,-246.667 227.473,-239.333 227.473,-239.333 227.473,-235.667 231.139,-232 234.806,-232 234.806,-232 285.194,-232 285.194,-232 288.861,-232 292.527,-235.667 292.527,-239.333 292.527,-239.333 292.527,-246.667 292.527,-246.667 292.527,-250.333 288.861,-254 285.194,-254"/>
<text text-anchor="middle" x="260" y="-239.4" font-family="Helvetica,sans-Serif" font-size="12.00" fill="white">_Sliceable</text>
</a>
</g>
</g>
<!-- CollectionType&#45;&gt;_Sliceable -->
<g id="edge20" class="edge">
<path fill="none" stroke="#cccccc" d="M287.1,-289.988C282.697,-282.517 276.548,-272.081 271.22,-263.039"/>
<polygon fill="#cccccc" stroke="#cccccc" points="274.164,-261.142 266.072,-254.304 268.134,-264.696 274.164,-261.142"/>
</g>
<!-- ExtensibleCollectionType -->
<g id="node6" class="node">
<g id="a_node6"><a xlink:href="/protocol/ExtensibleCollectionType/" target="_top">
<path fill="#999999" stroke="#999999" d="M550.727,-196C550.727,-196 421.273,-196 421.273,-196 417.607,-196 413.94,-192.333 413.94,-188.667 413.94,-188.667 413.94,-181.333 413.94,-181.333 413.94,-177.667 417.607,-174 421.273,-174 421.273,-174 550.727,-174 550.727,-174 554.393,-174 558.06,-177.667 558.06,-181.333 558.06,-181.333 558.06,-188.667 558.06,-188.667 558.06,-192.333 554.393,-196 550.727,-196"/>
<text text-anchor="middle" x="486" y="-181.4" font-family="Helvetica,sans-Serif" font-size="12.00" fill="white">ExtensibleCollectionType</text>
</a>
</g>
</g>
<!-- RangeReplaceableCollectionType -->
<g id="node9" class="node">
<g id="a_node9"><a xlink:href="/protocol/RangeReplaceableCollectionType/" target="_top">
<path fill="#999999" stroke="#999999" d="M531.76,-138C531.76,-138 356.24,-138 356.24,-138 352.573,-138 348.906,-134.333 348.906,-130.667 348.906,-130.667 348.906,-123.333 348.906,-123.333 348.906,-119.667 352.573,-116 356.24,-116 356.24,-116 531.76,-116 531.76,-116 535.427,-116 539.094,-119.667 539.094,-123.333 539.094,-123.333 539.094,-130.667 539.094,-130.667 539.094,-134.333 535.427,-138 531.76,-138"/>
<text text-anchor="middle" x="444" y="-123.4" font-family="Helvetica,sans-Serif" font-size="12.00" fill="white">RangeReplaceableCollectionType</text>
</a>
</g>
</g>
<!-- ExtensibleCollectionType&#45;&gt;RangeReplaceableCollectionType -->
<g id="edge14" class="edge">
<path fill="none" stroke="#cccccc" d="M478.491,-173.988C472.769,-166.359 464.73,-155.64 457.853,-146.47"/>
<polygon fill="#cccccc" stroke="#cccccc" points="460.528,-144.204 451.728,-138.304 454.928,-148.404 460.528,-144.204"/>
</g>
<!-- MutableSliceable -->
<g id="node8" class="node">
<g id="a_node8"><a xlink:href="/protocol/MutableSliceable/" target="_top">
<path fill="#999999" stroke="#999999" d="M282.208,-138C282.208,-138 195.792,-138 195.792,-138 192.126,-138 188.459,-134.333 188.459,-130.667 188.459,-130.667 188.459,-123.333 188.459,-123.333 188.459,-119.667 192.126,-116 195.792,-116 195.792,-116 282.208,-116 282.208,-116 285.874,-116 289.541,-119.667 289.541,-123.333 289.541,-123.333 289.541,-130.667 289.541,-130.667 289.541,-134.333 285.874,-138 282.208,-138"/>
<text text-anchor="middle" x="239" y="-123.4" font-family="Helvetica,sans-Serif" font-size="12.00" fill="white">MutableSliceable</text>
</a>
</g>
</g>
<!-- MutableCollectionType&#45;&gt;MutableSliceable -->
<g id="edge18" class="edge">
<path fill="none" stroke="#cccccc" d="M313.731,-173.988C299.97,-165.52 280.023,-153.245 264.198,-143.507"/>
<polygon fill="#cccccc" stroke="#cccccc" points="265.786,-140.374 255.435,-138.114 262.117,-146.336 265.786,-140.374"/>
</g>
<!-- MutableSliceable&#45;&gt;ArrayType -->
<g id="edge6" class="edge">
<path fill="none" stroke="#cccccc" d="M231.849,-115.988C226.399,-108.359 218.743,-97.6405 212.193,-88.4702"/>
<polygon fill="#cccccc" stroke="#cccccc" points="215.02,-86.4069 206.36,-80.3039 209.324,-90.4756 215.02,-86.4069"/>
</g>
<!-- RangeReplaceableCollectionType&#45;&gt;ArrayType -->
<g id="edge5" class="edge">
<path fill="none" stroke="#cccccc" d="M400.199,-115.988C355.124,-105.685 285.396,-89.7476 240.994,-79.5986"/>
<polygon fill="#cccccc" stroke="#cccccc" points="241.631,-76.154 231.102,-77.3376 240.071,-82.978 241.631,-76.154"/>
</g>
<!-- SequenceType -->
<g id="node10" class="node">
<g id="a_node10"><a xlink:href="/protocol/SequenceType/" target="_top">
<path fill="#999999" stroke="#999999" d="M386.718,-370C386.718,-370 311.282,-370 311.282,-370 307.615,-370 303.949,-366.333 303.949,-362.667 303.949,-362.667 303.949,-355.333 303.949,-355.333 303.949,-351.667 307.615,-348 311.282,-348 311.282,-348 386.718,-348 386.718,-348 390.385,-348 394.051,-351.667 394.051,-355.333 394.051,-355.333 394.051,-362.667 394.051,-362.667 394.051,-366.333 390.385,-370 386.718,-370"/>
<text text-anchor="middle" x="349" y="-355.4" font-family="Helvetica,sans-Serif" font-size="12.00" fill="white">SequenceType</text>
</a>
</g>
</g>
<!-- SequenceType&#45;&gt;CollectionType -->
<g id="edge10" class="edge">
<path fill="none" stroke="#cccccc" d="M338.988,-347.988C331.123,-340.123 319.974,-328.974 310.624,-319.624"/>
<polygon fill="#cccccc" stroke="#cccccc" points="312.85,-316.9 303.304,-312.304 307.9,-321.85 312.85,-316.9"/>
</g>
<!-- Sliceable -->
<g id="node12" class="node">
<g id="a_node12"><a xlink:href="/protocol/Sliceable/" target="_top">
<path fill="#999999" stroke="#999999" d="M238.691,-196C238.691,-196 195.309,-196 195.309,-196 191.642,-196 187.975,-192.333 187.975,-188.667 187.975,-188.667 187.975,-181.333 187.975,-181.333 187.975,-177.667 191.642,-174 195.309,-174 195.309,-174 238.691,-174 238.691,-174 242.358,-174 246.025,-177.667 246.025,-181.333 246.025,-181.333 246.025,-188.667 246.025,-188.667 246.025,-192.333 242.358,-196 238.691,-196"/>
<text text-anchor="middle" x="217" y="-181.4" font-family="Helvetica,sans-Serif" font-size="12.00" fill="white">Sliceable</text>
</a>
</g>
</g>
<!-- Sliceable&#45;&gt;MutableSliceable -->
<g id="edge17" class="edge">
<path fill="none" stroke="#cccccc" d="M220.933,-173.988C223.807,-166.674 227.796,-156.519 231.295,-147.612"/>
<polygon fill="#cccccc" stroke="#cccccc" points="234.553,-148.891 234.952,-138.304 228.038,-146.332 234.553,-148.891"/>
</g>
<!-- _ArrayType&#45;&gt;ArrayType -->
<g id="edge4" class="edge">
<path fill="none" stroke="#cccccc" d="M163.323,-231.682C164.219,-209.922 167.488,-157.887 179,-116 181.466,-107.026 185.359,-97.5274 189.058,-89.5065"/>
<polygon fill="#cccccc" stroke="#cccccc" points="192.313,-90.814 193.516,-80.2877 186.012,-87.7662 192.313,-90.814"/>
</g>
<!-- _CollectionType -->
<g id="node14" class="node">
<g id="a_node14"><a xlink:href="/protocol/_CollectionType/" target="_top">
<path fill="#999999" stroke="#999999" d="M278.208,-370C278.208,-370 197.792,-370 197.792,-370 194.126,-370 190.459,-366.333 190.459,-362.667 190.459,-362.667 190.459,-355.333 190.459,-355.333 190.459,-351.667 194.126,-348 197.792,-348 197.792,-348 278.208,-348 278.208,-348 281.874,-348 285.541,-351.667 285.541,-355.333 285.541,-355.333 285.541,-362.667 285.541,-362.667 285.541,-366.333 281.874,-370 278.208,-370"/>
<text text-anchor="middle" x="238" y="-355.4" font-family="Helvetica,sans-Serif" font-size="12.00" fill="white">_CollectionType</text>
</a>
</g>
</g>
<!-- _CollectionType&#45;&gt;CollectionType -->
<g id="edge9" class="edge">
<path fill="none" stroke="#cccccc" d="M247.833,-347.988C255.557,-340.123 266.507,-328.974 275.691,-319.624"/>
<polygon fill="#cccccc" stroke="#cccccc" points="278.37,-321.891 282.88,-312.304 273.376,-316.986 278.37,-321.891"/>
</g>
<!-- _ExtensibleCollectionType&#45;&gt;ExtensibleCollectionType -->
<g id="edge15" class="edge">
<path fill="none" stroke="#cccccc" d="M463.827,-231.988C467.392,-224.595 472.355,-214.301 476.682,-205.325"/>
<polygon fill="#cccccc" stroke="#cccccc" points="479.842,-206.832 481.032,-196.304 473.536,-203.792 479.842,-206.832"/>
</g>
<!-- _SequenceType -->
<g id="node16" class="node">
<g id="a_node16"><a xlink:href="/protocol/_SequenceType/" target="_top">
<path fill="#999999" stroke="#999999" d="M337.724,-486C337.724,-486 256.276,-486 256.276,-486 252.609,-486 248.943,-482.333 248.943,-478.667 248.943,-478.667 248.943,-471.333 248.943,-471.333 248.943,-467.667 252.609,-464 256.276,-464 256.276,-464 337.724,-464 337.724,-464 341.391,-464 345.057,-467.667 345.057,-471.333 345.057,-471.333 345.057,-478.667 345.057,-478.667 345.057,-482.333 341.391,-486 337.724,-486"/>
<text text-anchor="middle" x="297" y="-471.4" font-family="Helvetica,sans-Serif" font-size="12.00" fill="white">_SequenceType</text>
</a>
</g>
</g>
<!-- _SequenceType&#45;&gt;_CollectionType -->
<g id="edge11" class="edge">
<path fill="none" stroke="#cccccc" d="M291.764,-463.883C281.948,-444.917 260.633,-403.732 247.989,-379.3"/>
<polygon fill="#cccccc" stroke="#cccccc" points="251.014,-377.53 243.309,-370.258 244.797,-380.748 251.014,-377.53"/>
</g>
<!-- _Sequence_Type -->
<g id="node17" class="node">
<g id="a_node17"><a xlink:href="/protocol/_Sequence_Type/" target="_top">
<path fill="#999999" stroke="#999999" d="M385.228,-428C385.228,-428 296.772,-428 296.772,-428 293.105,-428 289.439,-424.333 289.439,-420.667 289.439,-420.667 289.439,-413.333 289.439,-413.333 289.439,-409.667 293.105,-406 296.772,-406 296.772,-406 385.228,-406 385.228,-406 388.895,-406 392.561,-409.667 392.561,-413.333 392.561,-413.333 392.561,-420.667 392.561,-420.667 392.561,-424.333 388.895,-428 385.228,-428"/>
<text text-anchor="middle" x="341" y="-413.4" font-family="Helvetica,sans-Serif" font-size="12.00" fill="white">_Sequence_Type</text>
</a>
</g>
</g>
<!-- _SequenceType&#45;&gt;_Sequence_Type -->
<g id="edge13" class="edge">
<path fill="none" stroke="#cccccc" d="M304.866,-463.988C310.922,-456.281 319.456,-445.419 326.71,-436.187"/>
<polygon fill="#cccccc" stroke="#cccccc" points="329.478,-438.329 332.904,-428.304 323.974,-434.005 329.478,-438.329"/>
</g>
<!-- _Sequence_Type&#45;&gt;SequenceType -->
<g id="edge12" class="edge">
<path fill="none" stroke="#cccccc" d="M342.43,-405.988C343.441,-398.91 344.833,-389.171 346.075,-380.478"/>
<polygon fill="#cccccc" stroke="#cccccc" points="349.579,-380.698 347.528,-370.304 342.649,-379.708 349.579,-380.698"/>
</g>
<!-- _Sliceable&#45;&gt;Sliceable -->
<g id="edge19" class="edge">
<path fill="none" stroke="#cccccc" d="M252.312,-231.988C246.454,-224.359 238.224,-213.64 231.182,-204.47"/>
<polygon fill="#cccccc" stroke="#cccccc" points="233.778,-202.104 224.912,-196.304 228.226,-206.367 233.778,-202.104"/>
</g>
</g>
</svg>
